<svg width="24" height="24" viewBox="0 0 24 24" fill="none" xmlns="http://www.w3.org/2000/svg">
<path fill-rule="evenodd" clip-rule="evenodd" d="M1 12C1 15.866 4.13401 19 8 19H16C19.866 19 23 15.866 23 12C23 8.13401 19.866 5 16 5H8C4.13401 5 1 8.13401 1 12ZM8 17.5C4.96243 17.5 2.5 15.0376 2.5 12C2.5 8.96243 4.96243 6.5 8 6.5H16C19.0376 6.5 21.5 8.96243 21.5 12C21.5 15.0376 19.0376 17.5 16 17.5H8ZM12 12C12 14.2091 13.7909 16 16 16C18.2091 16 20 14.2091 20 12C20 9.79086 18.2091 8 16 8C13.7909 8 12 9.79086 12 12ZM16 14.5C14.6193 14.5 13.5 13.3807 13.5 12C13.5 10.6193 14.6193 9.5 16 9.5C17.3807 9.5 18.5 10.6193 18.5 12C18.5 13.3807 17.3807 14.5 16 14.5Z" fill="#FAFAFA"/>
</svg>
