<svg width="24" height="24" viewBox="0 0 24 24" fill="none" xmlns="http://www.w3.org/2000/svg">
<path d="M19.75 17.8286C19.7499 17.4445 19.5903 17.0052 19.3164 16.5512C19.0631 16.1316 18.7436 15.7536 18.4755 15.4702C18.2075 15.7536 17.8888 16.1318 17.6357 16.5512C17.3617 17.0052 17.2021 17.4445 17.2021 17.8286C17.2021 18.7482 17.8498 19.3449 18.4755 19.3452C19.1014 19.3452 19.75 18.7484 19.75 17.8286ZM21.25 17.8286C21.25 19.4125 20.0851 20.8452 18.4755 20.8452C16.8661 20.8449 15.7021 19.4123 15.7021 17.8286C15.7021 17.0582 16.0091 16.3431 16.3515 15.7758C16.699 15.2002 17.1229 14.7111 17.4443 14.3774L17.5546 14.2739C18.0883 13.8222 18.8627 13.8225 19.3964 14.2739L19.5078 14.3774L19.7646 14.6557C20.0357 14.961 20.3399 15.344 20.6005 15.7758C20.9429 16.3431 21.2499 17.0583 21.25 17.8286Z" fill="#FAFAFA"/>
<path d="M3.629 5.30215C4.09377 4.75221 4.81371 4.6814 5.35068 4.83047L6.49521 5.15469C7.87893 5.55379 9.90107 6.16199 11.8448 6.83926L12.0118 6.90665C12.7744 7.2532 13.2896 8.07028 13.1466 8.95254L13.1056 9.142C12.8497 10.0941 11.9328 10.6172 11.0401 10.5316L10.8614 10.5063C8.83847 10.1238 6.7823 9.64244 5.38388 9.29825L4.23056 9.00821C3.69107 8.86972 3.101 8.44986 2.97372 7.74063L2.95419 7.59415C2.92764 7.27935 2.93843 6.88379 3.0538 6.4545C3.16917 6.02519 3.35845 5.67756 3.53915 5.41836L3.629 5.30215ZM4.79013 6.26797C4.77654 6.27161 4.7706 6.27579 4.7706 6.27579C4.66702 6.42433 4.56333 6.61608 4.50204 6.84415C4.45619 7.01494 4.4409 7.17925 4.44247 7.32657L4.44931 7.46817L4.46201 7.48379C4.48363 7.50531 4.53053 7.5373 4.60361 7.55606L5.74423 7.84219C7.12597 8.18225 9.15315 8.65682 11.1407 9.03262L11.2364 9.04239C11.4533 9.04364 11.6164 8.90494 11.6573 8.75333L11.6671 8.68594C11.6746 8.54712 11.6005 8.3868 11.4395 8.29532L11.3517 8.25626C9.44195 7.59084 7.44828 6.99141 6.08115 6.59708L4.94931 6.27579C4.87664 6.25563 4.82015 6.25996 4.79013 6.26797Z" fill="#FAFAFA"/>
<path d="M9.54867 3.54846C10.1581 2.99927 11.0925 3.02995 11.6747 3.61194L18.3641 10.3014L18.4735 10.4215C18.9481 11.0059 18.9402 11.8585 18.4276 12.4274L18.3104 12.5446C17.2742 13.4757 15.0311 15.4447 12.2039 17.649L10.9579 18.6061C9.95842 19.362 8.58474 19.4496 7.52621 18.7438L7.31918 18.5914C6.86724 18.2292 6.33942 17.7828 5.79184 17.2701L5.2391 16.7369C4.68453 16.1824 4.19058 15.6286 3.77426 15.1324L3.38461 14.6569C2.5183 13.5759 2.56364 12.0843 3.36996 11.0182L3.92856 10.2867C4.48345 9.56628 5.02675 8.87973 5.54574 8.23694L5.59653 8.17932C5.864 7.90934 6.29835 7.88073 6.60043 8.12464C6.92249 8.38486 6.97282 8.85712 6.71274 9.17932L5.66 10.5026C5.48053 10.7317 5.29945 10.9649 5.11703 11.2018L4.56625 11.9225C4.14444 12.4801 4.14769 13.2117 4.55453 13.7194L4.92367 14.1686C5.31688 14.6371 5.78203 15.1568 6.30063 15.6754L6.81723 16.1754C7.33098 16.6564 7.82815 17.0781 8.25668 17.4215L8.35434 17.4928C8.85497 17.827 9.53072 17.8053 10.0536 17.4098L11.2821 16.4655C14.0722 14.29 16.2873 12.3461 17.3075 11.4293L17.3182 11.4157C17.3198 11.412 17.321 11.407 17.3211 11.401C17.3212 11.3949 17.3201 11.3883 17.3172 11.3815L17.3036 11.3619L10.6141 4.67249C10.6005 4.65891 10.587 4.6547 10.575 4.65491C10.569 4.65503 10.5641 4.65627 10.5604 4.65784L10.5467 4.66858C10.1092 5.15554 9.43663 5.9157 8.61606 6.88147L8.56332 6.93713C8.28918 7.20058 7.85441 7.21888 7.55844 6.96741C7.24293 6.69918 7.20435 6.2254 7.4725 5.90979L8.59653 4.60706C8.92654 4.23014 9.20878 3.91351 9.43149 3.66565L9.54867 3.54846Z" fill="#FAFAFA"/>
</svg>
