<svg width="24" height="24" viewBox="0 0 24 24" fill="none" xmlns="http://www.w3.org/2000/svg">
<path fill-rule="evenodd" clip-rule="evenodd" d="M9.5022 4.5C9.08798 4.5 8.7522 4.83579 8.7522 5.25V7H15.2522V5.25C15.2522 4.83579 14.9164 4.5 14.5022 4.5H9.5022ZM16.7522 7V5.25C16.7522 4.00736 15.7448 3 14.5022 3H9.5022C8.25956 3 7.2522 4.00736 7.2522 5.25V7H4.75C3.23122 7 2 8.23122 2 9.75V18.25C2 19.7688 3.23122 21 4.75 21H19.25C20.7688 21 22 19.7688 22 18.25V9.75C22 8.23122 20.7688 7 19.25 7H16.7522ZM4.75 8.5C4.05964 8.5 3.5 9.05964 3.5 9.75V12H20.5V9.75C20.5 9.05964 19.9404 8.5 19.25 8.5H4.75ZM20.5 13.5H12.7507L12.7522 15.2493C12.7526 15.6636 12.4171 15.9996 12.0029 16C11.5886 16.0004 11.2526 15.6649 11.2522 15.2507L11.2507 13.5H3.5V18.25C3.5 18.9404 4.05964 19.5 4.75 19.5H19.25C19.9404 19.5 20.5 18.9404 20.5 18.25V13.5Z" fill="#FAFAFA"/>
</svg>
