<svg width="24" height="24" viewBox="0 0 24 24" fill="none" xmlns="http://www.w3.org/2000/svg">
<path d="M15.2656 19.9209C15.6317 19.7697 16.051 19.9444 16.2021 20.3105C16.3531 20.6765 16.1793 21.0958 15.8135 21.2471C14.9387 21.6082 14.0007 21.8488 13.0225 21.9482C12.6286 21.988 12.2774 21.7005 12.2373 21.3066C12.1975 20.9128 12.484 20.5616 12.8779 20.5215C13.7158 20.4363 14.5174 20.2298 15.2656 19.9209Z" fill="#FAFAFA"/>
<path d="M7.20508 19.9824C7.38255 19.6284 7.81389 19.4857 8.16797 19.6631C8.89226 20.0261 9.67544 20.2891 10.499 20.4346C10.8891 20.5035 11.15 20.8756 11.0811 21.2656C11.0121 21.6556 10.64 21.9165 10.25 21.8477C9.28726 21.6776 8.3711 21.3697 7.52441 20.9453C7.17068 20.7677 7.02781 20.3364 7.20508 19.9824Z" fill="#FAFAFA"/>
<path d="M12 2C17.5229 2 21.9999 6.47715 22 12C21.9999 15.1542 20.5385 17.9673 18.2588 19.7988C17.95 20.0469 17.4981 19.9982 17.25 19.6895C17.0023 19.3807 17.0519 18.9297 17.3604 18.6816C19.3159 17.1107 20.5653 14.7012 20.5654 12C20.5654 7.26938 16.7307 3.43359 12 3.43359C9.46317 3.43363 7.18349 4.53612 5.61426 6.29004H7.0166C7.41234 6.29025 7.73408 6.61109 7.73438 7.00684C7.73438 7.40281 7.41255 7.7244 7.0166 7.72461H3.91016C3.71995 7.72461 3.53685 7.64914 3.40234 7.51465C3.26802 7.38021 3.19243 7.19787 3.19238 7.00781V3.90039C3.19254 3.50441 3.51414 3.18359 3.91016 3.18359C4.306 3.18379 4.6268 3.50454 4.62695 3.90039V5.24512C6.45443 3.25164 9.08084 2.00003 12 2Z" fill="#FAFAFA"/>
<path d="M3.77246 16.3623C4.10686 16.1501 4.55042 16.2496 4.7627 16.584C5.17804 17.2382 5.67989 17.8325 6.25195 18.3506C6.54543 18.6164 6.56829 19.0697 6.30273 19.3633C6.0369 19.6568 5.58267 19.6798 5.28906 19.4141C4.62189 18.8098 4.03649 18.1161 3.55176 17.3525C3.33967 17.0183 3.43838 16.5747 3.77246 16.3623Z" fill="#FAFAFA"/>
<path d="M2.7168 11.2822C3.11288 11.2822 3.43452 11.6039 3.43457 12C3.43461 12.816 3.54934 13.6046 3.76172 14.3506C3.8698 14.7313 3.64819 15.1278 3.26758 15.2363C2.88665 15.3447 2.48933 15.1241 2.38086 14.7432C2.13246 13.8707 2.00004 12.9501 2 12C2.00005 11.6041 2.32091 11.2825 2.7168 11.2822Z" fill="#FAFAFA"/>
<path fill-rule="evenodd" clip-rule="evenodd" d="M12 9.41699C12.685 9.41704 13.3428 9.68849 13.8271 10.1729C14.3114 10.6572 14.583 11.3151 14.583 12C14.5829 12.6847 14.3112 13.3419 13.8271 13.8262C13.3428 14.3105 12.685 14.583 12 14.583C11.315 14.583 10.6572 14.3105 10.1729 13.8262C9.68878 13.3419 9.4171 12.6847 9.41699 12C9.41699 11.315 9.68853 10.6572 10.1729 10.1729C10.6572 9.68845 11.315 9.41699 12 9.41699ZM12 10.8516C11.6954 10.8516 11.4029 10.9721 11.1875 11.1875C10.9722 11.4029 10.8516 11.6955 10.8516 12C10.8517 12.3043 10.9724 12.5963 11.1875 12.8115C11.4029 13.0269 11.6954 13.1484 12 13.1484C12.3045 13.1484 12.5962 13.0268 12.8115 12.8115C13.0268 12.5962 13.1483 12.3045 13.1484 12C13.1484 11.6954 13.0269 11.4029 12.8115 11.1875C12.5962 10.9723 12.3044 10.8516 12 10.8516Z" fill="#FAFAFA"/>
</svg>
