<svg width="24" height="24" viewBox="0 0 24 24" fill="none" xmlns="http://www.w3.org/2000/svg">
<path d="M3.99463 3.19544C4.28206 2.93413 4.71768 2.93727 5.00049 3.19153L5.0542 3.24524L20.0542 19.7452L20.103 19.8048C20.3291 20.1104 20.2915 20.5435 20.0044 20.8048C19.717 21.0661 19.2813 21.063 18.9985 20.8087L18.9448 20.755L3.94483 4.25501L3.896 4.19544C3.66996 3.88987 3.70755 3.45673 3.99463 3.19544Z" fill="#FAFAFA"/>
<path d="M14.9995 20.2501C15.4137 20.2501 15.7495 20.5859 15.7495 21.0001C15.7495 21.4143 15.4137 21.7501 14.9995 21.7501H8.99951C8.5853 21.7501 8.24951 21.4143 8.24951 21.0001C8.24951 20.5859 8.5853 20.2501 8.99951 20.2501H14.9995Z" fill="#FAFAFA"/>
<path d="M5.83887 5.4718C6.07561 5.13207 6.54296 5.04864 6.88281 5.28528C7.22255 5.52202 7.30598 5.98938 7.06934 6.32923C6.37082 7.3325 5.99702 8.52666 5.99903 9.74915L5.99024 10.3878C5.9067 13.3282 5.2599 15.7622 4.63672 17.0031L4.50391 17.2501H17.4541L17.5303 17.254C17.9085 17.2924 18.2041 17.6117 18.2041 18.0001C18.204 18.3884 17.9085 18.7079 17.5303 18.7462L17.4541 18.7501H4.49512C4.23266 18.7485 3.97477 18.6782 3.74805 18.546C3.52127 18.4137 3.33273 18.224 3.20215 17.9962C3.07157 17.7685 3.00351 17.5097 3.00391 17.2472C3.00438 16.9848 3.07391 16.7273 3.20508 16.5001L3.30664 16.3087C3.79311 15.3296 4.41008 13.1399 4.49024 10.3556L4.49903 9.75012C4.49672 8.22057 4.96483 6.72705 5.83887 5.4718Z" fill="#FAFAFA"/>
<path d="M17.9995 9.75012C17.9997 8.70076 17.7245 7.66974 17.2017 6.75989C16.6788 5.85005 15.9267 5.09283 15.02 4.56458C14.1134 4.03639 13.0839 3.75531 12.0347 3.74915C10.9853 3.74306 9.95236 4.0127 9.03955 4.5304C8.67938 4.73465 8.22153 4.60819 8.01709 4.24817C7.81279 3.88795 7.93921 3.43012 8.29932 3.22571C9.44019 2.57866 10.7309 2.24162 12.0425 2.24915C13.3542 2.25676 14.6415 2.60836 15.7749 3.26868C16.9083 3.929 17.8489 4.87548 18.5024 6.01282C19.1558 7.15 19.4997 8.43861 19.4995 9.75012L19.5054 10.2404C19.5582 12.5038 19.9688 14.4017 20.394 15.589L20.4858 15.8322L20.5103 15.9054C20.6125 16.2714 20.4224 16.663 20.061 16.8048C19.6996 16.9465 19.2945 16.7884 19.1206 16.4503L19.0894 16.381L18.9839 16.1007C18.4978 14.7458 18.0614 12.6844 18.0054 10.2726L17.9995 9.75012Z" fill="#FAFAFA"/>
</svg>
