<svg width="24" height="24" viewBox="0 0 24 24" fill="none" xmlns="http://www.w3.org/2000/svg">
<path fill-rule="evenodd" clip-rule="evenodd" d="M19.591 5.36647C17.727 3.80507 15.1014 3 12 3C8.89858 3 6.27294 3.80507 4.409 5.36647C2.52909 6.94126 1.49999 9.22327 1.49999 12C1.49999 14.7767 2.52909 17.0587 4.409 18.6335C6.27294 20.1949 8.89858 21 12 21C13.6933 21 15.5704 20.8376 17.2336 20.0781C17.256 20.0912 17.2792 20.1047 17.3032 20.1185C17.5822 20.2781 17.98 20.4795 18.4568 20.6457C19.3984 20.9739 20.7394 21.1944 22.0723 20.56C22.2758 20.4632 22.4249 20.28 22.4785 20.0611C22.5321 19.8423 22.4844 19.6109 22.3487 19.431C20.9061 17.5191 21.3344 16.3505 21.3524 16.3014C21.3526 16.3009 21.3538 16.2977 21.3581 16.2874L21.3662 16.2682L21.3781 16.2398C21.4541 16.0568 21.7291 15.3813 21.9862 14.5754C22.2358 13.7934 22.5 12.7949 22.5 12C22.5 9.22327 21.4709 6.94126 19.591 5.36647ZM17.7268 18.6146C17.4951 18.4442 17.1864 18.4212 16.932 18.5556C15.5056 19.3091 13.7621 19.5 12 19.5C9.14307 19.5 6.89371 18.7582 5.37223 17.4837C3.86673 16.2225 2.99999 14.3795 2.99999 12C2.99999 9.62048 3.86673 7.77749 5.37223 6.51634C6.89371 5.24181 9.14307 4.5 12 4.5C14.8569 4.5 17.1063 5.24181 18.6278 6.51634C20.1333 7.77749 21 9.62048 21 12C21 12.5419 20.8039 13.3462 20.5572 14.1194C20.3181 14.8687 20.0608 15.5009 19.9929 15.6645C19.9926 15.6652 19.9919 15.6668 19.9908 15.6692C19.9837 15.6859 19.9604 15.7404 19.944 15.7852C19.7874 16.2125 19.4764 17.5605 20.5621 19.4484C20.0016 19.5089 19.4452 19.4017 18.9505 19.2293C18.5813 19.1006 18.2684 18.9426 18.0482 18.8166C17.9388 18.754 17.8541 18.7003 17.7987 18.6637C17.7711 18.6455 17.7509 18.6316 17.7387 18.6231L17.7268 18.6146ZM17.7259 18.614L17.7264 18.6144L17.7267 18.6145C17.726 18.614 17.7255 18.6137 17.7254 18.6136L17.7259 18.614Z" fill="#FAFAFA"/>
<path d="M7.5 11C8.05228 11 8.5 11.4477 8.5 12C8.5 12.5523 8.05228 13 7.5 13C6.94772 13 6.5 12.5523 6.5 12C6.5 11.4477 6.94772 11 7.5 11Z" fill="#FAFAFA"/>
<path d="M12 11C12.5523 11 13 11.4477 13 12C13 12.5523 12.5523 13 12 13C11.4477 13 11 12.5523 11 12C11 11.4477 11.4477 11 12 11Z" fill="#FAFAFA"/>
<path d="M16.5 11C17.0523 11 17.5 11.4477 17.5 12C17.5 12.5523 17.0523 13 16.5 13C15.9477 13 15.5 12.5523 15.5 12C15.5 11.4477 15.9477 11 16.5 11Z" fill="#FAFAFA"/>
</svg>
