<svg width="24" height="24" viewBox="0 0 24 24" fill="none" xmlns="http://www.w3.org/2000/svg">
<path fill-rule="evenodd" clip-rule="evenodd" d="M19.72 3.21959C20.0128 2.92675 20.4876 2.92686 20.7805 3.21959C21.0734 3.51248 21.0734 3.98724 20.7805 4.28013L11.595 13.4647C13.0569 15.1549 13.9336 17.271 14.095 19.4999H20.2502C20.6644 19.4999 21.0001 19.8357 21.0002 20.2499C21.0002 20.664 20.6644 20.9999 20.2502 20.9999H3.75023C3.44699 20.9997 3.17292 20.8171 3.05687 20.537C2.94094 20.2568 3.00566 19.934 3.21995 19.7196L19.72 3.21959ZM5.56077 19.4999H12.592C12.4369 17.669 11.7163 15.9325 10.5315 14.5282L5.56077 19.4999Z" fill="#FAFAFA"/>
</svg>
