<svg width="24" height="24" viewBox="0 0 24 24" fill="none" xmlns="http://www.w3.org/2000/svg">
<path d="M6.59961 7.0498C7.01374 7.0498 7.34948 7.3857 7.34961 7.7998C7.34961 8.21402 7.01382 8.5498 6.59961 8.5498H4.7002C4.58091 8.5498 4.46622 8.59733 4.38184 8.68164C4.2975 8.76597 4.25006 8.88074 4.25 9V10.6504H5.40039C5.81442 10.6506 6.15039 10.9863 6.15039 11.4004C6.15013 11.8142 5.81426 12.1502 5.40039 12.1504H4.25V13.6504H10.7002C11.1143 13.6505 11.4502 13.9862 11.4502 14.4004V15.75C11.4499 16.1639 11.1142 16.4999 10.7002 16.5C10.2861 16.5 9.95046 16.164 9.9502 15.75V15.1504H4.25V19.7998L4.25879 19.8877C4.27603 19.9742 4.31854 20.0548 4.38184 20.1182C4.46622 20.2025 4.5809 20.25 4.7002 20.25H9.9502V19.1504C9.9503 18.7363 10.286 18.4004 10.7002 18.4004C11.1143 18.4004 11.4501 18.7363 11.4502 19.1504V20.25H18.5996C18.7189 20.25 18.8336 20.2024 18.918 20.1182C19.0023 20.0338 19.0498 19.9191 19.0498 19.7998V18.1504H17.2002C16.7861 18.1504 16.4505 17.8144 16.4502 17.4004C16.4502 16.9862 16.786 16.6504 17.2002 16.6504H19.0498V13C19.0499 12.586 19.3858 12.2501 19.7998 12.25C20.2139 12.25 20.5497 12.5859 20.5498 13V19.7998C20.5498 20.3169 20.3441 20.813 19.9785 21.1787C19.6128 21.5443 19.1167 21.75 18.5996 21.75H10.7197C10.7132 21.7502 10.7067 21.751 10.7002 21.751C10.6937 21.751 10.6872 21.7502 10.6807 21.75H4.7002C4.18307 21.75 3.68697 21.5443 3.32129 21.1787C3.0013 20.8587 2.80402 20.4387 2.75977 19.9922L2.75 19.7998V9C2.75006 8.48292 2.95565 7.98673 3.32129 7.62109C3.68697 7.25547 4.18308 7.0498 4.7002 7.0498H6.59961Z" fill="#FAFAFA"/>
<path fill-rule="evenodd" clip-rule="evenodd" d="M14.8428 5.25293C15.5181 5.22459 16.1886 5.37974 16.7832 5.70117C17.378 6.02267 17.8745 6.49937 18.2207 7.08008C18.5668 7.66074 18.75 8.324 18.75 9L18.7402 9.27246C18.694 9.90621 18.4873 10.5195 18.1377 11.0537C17.8313 11.5217 17.4243 11.9123 16.9502 12.2012V13.2002C16.9501 13.6142 16.6142 13.9501 16.2002 13.9502H15.75V14.5C15.7499 14.9141 15.4141 15.25 15 15.25C14.5859 15.25 14.2501 14.9141 14.25 14.5V13.9502H13.7998C13.3858 13.9501 13.0499 13.6142 13.0498 13.2002V12.2021C12.6206 11.9407 12.2459 11.595 11.9512 11.1836C11.5576 10.6341 11.3204 9.98796 11.2637 9.31445C11.207 8.64106 11.3329 7.96492 11.6289 7.35742C11.9251 6.74969 12.3806 6.23262 12.9463 5.8623C13.5119 5.49212 14.1674 5.28134 14.8428 5.25293ZM14.9053 6.75195C14.5001 6.76903 14.1069 6.89508 13.7676 7.11719C13.4282 7.33937 13.1553 7.65001 12.9775 8.01465C12.8 8.37906 12.7239 8.78455 12.7578 9.18848C12.7919 9.59269 12.9346 9.98079 13.1709 10.3105C13.4071 10.6402 13.7279 10.9002 14.0996 11.0625C14.3729 11.1818 14.5498 11.4518 14.5498 11.75V12.4502H15.4502V11.75C15.4502 11.452 15.6264 11.1819 15.8994 11.0625C16.3007 10.8873 16.643 10.5987 16.8828 10.2324C17.1225 9.86618 17.2499 9.43773 17.25 9C17.25 8.59435 17.1403 8.19608 16.9326 7.84766C16.7249 7.49934 16.427 7.21339 16.0703 7.02051C15.7135 6.82761 15.3106 6.7349 14.9053 6.75195Z" fill="#FAFAFA"/>
<path d="M9.2002 8.25C9.61432 8.25011 9.9502 8.58585 9.9502 9C9.9502 9.41415 9.61432 9.74989 9.2002 9.75H9C8.58579 9.75 8.25 9.41421 8.25 9C8.25 8.58579 8.58579 8.25 9 8.25H9.2002Z" fill="#FAFAFA"/>
<path d="M21 8.25C21.4141 8.25011 21.75 8.58585 21.75 9C21.75 9.41415 21.4141 9.74989 21 9.75H20.7998C20.3856 9.75 20.0498 9.41421 20.0498 9C20.0498 8.58579 20.3856 8.25 20.7998 8.25H21Z" fill="#FAFAFA"/>
<path d="M10.2305 4.23047C10.5233 3.93762 10.9981 3.93771 11.291 4.23047L11.4326 4.37207C11.7254 4.66497 11.7255 5.13976 11.4326 5.43262C11.1398 5.72547 10.665 5.72539 10.3721 5.43262L10.2305 5.29102C9.93772 4.99811 9.93763 4.52332 10.2305 4.23047Z" fill="#FAFAFA"/>
<path d="M18.7217 4.23047C19.0146 3.93771 19.4894 3.93762 19.7822 4.23047C20.0751 4.52332 20.075 4.99811 19.7822 5.29102L19.6406 5.43262C19.3477 5.72539 18.8729 5.72547 18.5801 5.43262C18.2872 5.13976 18.2873 4.66497 18.5801 4.37207L18.7217 4.23047Z" fill="#FAFAFA"/>
<path d="M15 2.25C15.4142 2.25 15.75 2.58579 15.75 3V3.2002C15.7499 3.61432 15.4141 3.9502 15 3.9502C14.5859 3.9502 14.2501 3.61432 14.25 3.2002V3C14.25 2.58579 14.5858 2.25 15 2.25Z" fill="#FAFAFA"/>
</svg>
