<svg width="24" height="24" viewBox="0 0 24 24" fill="none" xmlns="http://www.w3.org/2000/svg">
<path d="M11.2998 16.501C11.8521 16.501 12.2998 16.9487 12.2998 17.501C12.2995 18.053 11.8519 18.501 11.2998 18.501C10.7479 18.5007 10.3001 18.0529 10.2998 17.501C10.2998 16.9489 10.7477 16.5012 11.2998 16.501Z" fill="#FAFAFA"/>
<path d="M11.25 10C11.6641 10.0001 12 10.3359 12 10.75V14.75C12 15.1641 11.6641 15.4999 11.25 15.5C10.8359 15.4999 10.5 15.1641 10.5 14.75V10.75C10.5 10.3359 10.8359 10.0001 11.25 10Z" fill="#FAFAFA"/>
<path fill-rule="evenodd" clip-rule="evenodd" d="M15.6826 3.25C16.6784 3.25 17.5032 3.24786 18.1543 3.3379C18.8291 3.43125 19.4275 3.63657 19.9053 4.12793C20.3801 4.6164 20.5756 5.22325 20.665 5.90723C20.7519 6.57171 20.75 7.41456 20.75 8.44043V13.5117C20.75 14.5476 20.7508 15.6204 20.668 16.5166C20.6264 16.9659 20.5613 17.3987 20.4551 17.7764C20.3522 18.1419 20.1902 18.5321 19.9053 18.8252C19.5766 19.1633 19.2647 19.4693 18.6807 19.6025C18.4626 19.6523 18.2033 19.676 17.8887 19.6885C17.7963 20.4471 17.628 21.0416 17.3164 21.3418L17.1836 21.457C16.5839 21.9275 15.6811 21.9907 14.1084 21.999L13.333 22H8.66699L7.8916 21.999C6.31887 21.9907 5.41611 21.9275 4.81641 21.457L4.68359 21.3418C4.13727 20.8154 4.0289 19.3853 4.00684 17.75H4C3.58579 17.75 3.25 17.4142 3.25 17C3.25001 16.5858 3.58579 16.25 4 16.25V14.75C3.58579 14.75 3.25 14.4142 3.25 14C3.25001 13.5858 3.58579 13.25 4 13.25V11.75C3.58579 11.75 3.25 11.4142 3.25 11C3.25 10.5858 3.58579 10.25 4 10.25H4.00195C4.00294 8.42095 4.0241 7.42577 4.56348 6.78711L4.68359 6.65821C5.06209 6.29366 5.5683 6.13027 6.31836 6.05762C6.3319 5.79693 6.35337 5.57659 6.39355 5.38672C6.51835 4.79727 6.80369 4.47651 7.14258 4.12793C7.62029 3.63664 8.21876 3.43124 8.89355 3.3379C9.54465 3.24788 10.3695 3.25 11.3652 3.25H15.6826ZM7.79785 7.50293V7.51563H7.10645C6.78713 7.52563 6.52444 7.54109 6.29883 7.57032C5.82447 7.6318 5.74039 7.72286 5.72461 7.73829C5.71775 7.74489 5.63205 7.80132 5.57129 8.23633C5.52057 8.59977 5.50608 9.06874 5.50195 9.7461L5.50098 10.25H6L6.07715 10.2539C6.45512 10.2925 6.75 10.6118 6.75 11C6.75 11.3882 6.45512 11.7075 6.07715 11.7461L6 11.75H5.5V13.25H6L6.07715 13.2539C6.45511 13.2925 6.75 13.6118 6.75 14C6.75 14.3882 6.45512 14.7075 6.07715 14.7461L6 14.75H5.5V16.25H6L6.07715 16.2539C6.45511 16.2925 6.75 16.6118 6.75 17C6.75 17.3882 6.45512 17.7075 6.07715 17.7461L6 17.75H5.50684C5.51478 18.3291 5.53266 18.8568 5.57812 19.3174C5.61616 19.7024 5.66762 19.9831 5.72461 20.1729C5.74189 20.2304 5.75989 20.2687 5.77051 20.2939C5.83252 20.3301 5.97341 20.3875 6.29883 20.4297C6.81542 20.4966 7.52615 20.5 8.66699 20.5H13.333C14.4738 20.5 15.1846 20.4966 15.7012 20.4297C16.0253 20.3877 16.1661 20.3301 16.2285 20.2939C16.2391 20.2687 16.258 20.2306 16.2754 20.1729C16.3324 19.9831 16.3838 19.7024 16.4219 19.3174C16.4985 18.5409 16.5 17.5736 16.5 16.4912V10.4961C16.5 9.39245 16.4963 8.72079 16.4287 8.23633C16.368 7.80133 16.2823 7.7449 16.2754 7.73829C16.2596 7.72284 16.1755 7.63179 15.7012 7.57032C15.1846 7.5034 14.4738 7.5 13.333 7.5H8.66699C8.34473 7.5 8.05679 7.50104 7.79785 7.50293ZM11.3652 4.75C10.3262 4.75 9.6241 4.75175 9.09961 4.82422C8.59908 4.89344 8.37226 5.01406 8.21777 5.17286C7.92448 5.47453 7.89362 5.54016 7.86035 5.69727C7.84305 5.77906 7.83134 5.87626 7.82227 6.00098C7.84523 6.00083 7.86834 6.0011 7.8916 6.00098L8.66699 6H13.333L14.1084 6.00098C15.8016 6.00999 16.7184 6.08228 17.3164 6.65821C17.9998 7.31665 18 8.37665 18 10.4961V16.4912L17.999 17.2813C17.9975 17.5872 17.9918 17.8884 17.9844 18.1807C18.1427 18.1714 18.2564 18.1605 18.3477 18.1397C18.4759 18.1104 18.5272 18.0908 18.8301 17.7793C18.8613 17.7471 18.9368 17.6363 19.0117 17.3701C19.0832 17.1158 19.1373 16.7839 19.1748 16.3789C19.25 15.566 19.25 14.569 19.25 13.5117V8.44043C19.25 7.37333 19.2489 6.64622 19.1777 6.10157C19.1091 5.57646 18.9874 5.33471 18.8301 5.17286C18.6756 5.01408 18.4486 4.89344 17.9482 4.82422C17.4238 4.75175 16.7216 4.75 15.6826 4.75H11.3652Z" fill="#FAFAFA"/>
</svg>
