<svg width="24" height="24" viewBox="0 0 24 24" fill="none" xmlns="http://www.w3.org/2000/svg">
<path fill-rule="evenodd" clip-rule="evenodd" d="M3.2987 3.78538C3.59157 3.49275 4.06642 3.49269 4.35925 3.78538L20.702 20.1282L20.7528 20.1848C20.9933 20.4794 20.9767 20.915 20.702 21.1897C20.4274 21.4641 19.9926 21.4808 19.6981 21.2405L19.6415 21.1897L17.5057 19.0539C16.0795 20.7266 13.968 21.7901 11.6063 21.7903C7.31113 21.79 3.82825 18.2855 3.828 13.9631C3.8282 11.8992 4.83817 9.80161 6.25769 7.80491L3.2987 4.84592C3.00595 4.55302 3.00586 4.07823 3.2987 3.78538ZM7.33288 8.88108C6.06414 10.7139 5.32917 12.4264 5.32898 13.9631C5.32923 17.466 8.14847 20.29 11.6063 20.2903C11.6272 20.2903 11.648 20.2885 11.6688 20.2883V13.216L7.33288 8.88108Z" fill="#FAFAFA"/>
<path d="M10.8983 2.50413C11.288 2.11002 11.9256 2.11086 12.3153 2.5051C15.6959 5.92727 19.3843 9.92531 19.3846 13.9631L19.3749 14.3664C19.3435 14.987 19.238 15.5881 19.0712 16.1623L11.6688 8.75901V3.98753C11.6482 3.96647 11.627 3.94509 11.6063 3.92405C10.8286 4.71798 10.0426 5.5436 9.30066 6.39085L8.23816 5.32835C9.11059 4.3368 10.0258 3.38811 10.8983 2.50413Z" fill="#FAFAFA"/>
</svg>
