<svg width="40" height="40" viewBox="0 0 40 40" fill="none" xmlns="http://www.w3.org/2000/svg">
<path d="M33.6068 26.1475C34.2613 25.9302 34.9689 26.2842 35.1872 26.9386C35.405 27.5931 35.0506 28.3022 34.3962 28.5206L13.3968 35.5193C12.7422 35.7375 12.0335 35.3842 11.8148 34.7299C11.5965 34.075 11.9509 33.3662 12.6058 33.1479L33.6068 26.1475Z" fill="#FAFAFA"/>
<path fill-rule="evenodd" clip-rule="evenodd" d="M10.9993 14.0837C12.9222 14.0837 14.7667 14.8481 16.1263 16.2078C17.4856 17.5672 18.2502 19.4107 18.2503 21.3331C18.2502 22.2254 17.9486 23.1968 17.5651 24.0984C17.1712 25.0243 16.6383 25.9956 16.071 26.9239C14.9355 28.7817 13.5982 30.563 12.7718 31.6195C12.5615 31.8887 12.2928 32.1062 11.9857 32.2559C11.6779 32.4061 11.3405 32.4854 10.9993 32.4854C10.6582 32.4853 10.3207 32.4078 10.013 32.2576C9.70643 32.1079 9.43695 31.8899 9.22689 31.6212C8.40077 30.5643 7.06503 28.7818 5.92936 26.9239C5.36204 25.9957 4.82917 25.0242 4.43522 24.0984C4.05169 23.1969 3.75009 22.2255 3.75 21.3331C3.75017 19.4106 4.51466 17.5672 5.87402 16.2078C7.2335 14.8483 9.07677 14.0839 10.9993 14.0837ZM10.9993 19.5834C10.0331 19.5836 9.24985 20.3669 9.24967 21.3331C9.24967 22.2994 10.033 23.0826 10.9993 23.0828C11.9659 23.0828 12.749 22.2996 12.749 21.3331C12.7488 20.3668 11.9658 19.5834 10.9993 19.5834Z" fill="#FAFAFA"/>
<path fill-rule="evenodd" clip-rule="evenodd" d="M30 8.08276C31.6577 8.08276 33.2468 8.74338 34.4189 9.91545C35.5907 11.0875 36.25 12.677 36.25 14.3344C36.2498 15.1501 35.9606 16.0925 35.6136 16.9646C35.2526 17.8719 34.7675 18.852 34.2578 19.7917C33.2367 21.6742 32.068 23.4885 31.46 24.406C31.3005 24.6464 31.0826 24.8453 30.8268 24.9822L30.8252 24.9805C30.571 25.1166 30.2875 25.1889 30 25.1889C29.7124 25.1888 29.4291 25.1168 29.1748 24.9805C28.9189 24.8437 28.7012 24.6465 28.5417 24.406C27.9337 23.4893 26.7652 21.6768 25.7438 19.795C25.2337 18.855 24.7477 17.8743 24.3864 16.9662C24.0392 16.0934 23.7502 15.1513 23.75 14.3344C23.75 12.677 24.4093 11.0875 25.5811 9.91545C26.7532 8.74338 28.3423 8.08276 30 8.08276ZM30 12.5831C29.0339 12.5833 28.2507 13.3667 28.2503 14.3328C28.2503 15.2992 29.0337 16.0823 30 16.0824C30.9665 16.0824 31.7497 15.2993 31.7497 14.3328C31.7493 13.3666 30.9662 12.5831 30 12.5831Z" fill="#FAFAFA"/>
<path d="M20.9619 20.6479C21.2768 20.0337 22.0289 19.7911 22.6432 20.1059L25.5599 21.6C26.1738 21.9151 26.4166 22.6688 26.1019 23.283C25.7869 23.8968 25.0331 24.1395 24.4189 23.825L21.5039 22.3292C20.8896 22.0143 20.6471 21.2622 20.9619 20.6479Z" fill="#FAFAFA"/>
<path fill-rule="evenodd" clip-rule="evenodd" d="M15.9993 4.08374C17.6569 4.08374 19.2462 4.74277 20.4183 5.91479C21.5902 7.08687 22.2493 8.67617 22.2493 10.3337C22.2493 10.4043 22.2433 10.4758 22.2314 10.5453C21.8892 12.5446 21.147 14.4557 20.0505 16.1622C19.8259 16.5107 19.4429 16.7255 19.0283 16.7351C18.6135 16.7445 18.2204 16.5477 17.9801 16.2094C17.122 15.0001 14.5084 12.5831 11.1523 12.5831C10.5947 12.5828 10.1045 12.2127 9.95117 11.6765C9.82936 11.2501 9.7609 10.8097 9.74935 10.3663C9.74907 10.3556 9.74934 10.3444 9.74935 10.3337C9.74935 8.67632 10.4085 7.08686 11.5804 5.91479C12.7524 4.74278 14.3419 4.08384 15.9993 4.08374ZM15.9993 8.58407C15.0332 8.58438 14.2499 9.36758 14.2497 10.3337C14.2501 11.2997 15.0334 12.0831 15.9993 12.0834C16.9656 12.0834 17.7486 11.2999 17.749 10.3337C17.7489 9.42778 17.0607 8.6818 16.1784 8.5922L15.9993 8.58407Z" fill="#FAFAFA"/>
</svg>
