<svg width="40" height="40" viewBox="0 0 40 40" fill="none" xmlns="http://www.w3.org/2000/svg">
<path fill-rule="evenodd" clip-rule="evenodd" d="M20.6644 35C21.7547 35 22.7583 34.3914 23.2592 33.419L29.3135 21.6667H33.766C35.3768 21.6667 36.6826 20.3608 36.6826 18.75V6.25C36.6826 4.63917 35.3768 3.33333 33.766 3.33333H10.9793C7.89062 3.33333 5.26511 5.58953 4.80044 8.64307L3.40551 17.8097C2.82986 21.5926 5.75797 25 9.58438 25H16.8624L16.128 29.7106C15.694 32.4938 17.8556 35 20.6644 35ZM30.016 19.1667V5.83333H33.766C33.9961 5.83333 34.1826 6.01988 34.1826 6.25V18.75C34.1826 18.9801 33.9961 19.1667 33.766 19.1667H30.016Z" fill="#FAFAFA"/>
</svg>
