<svg width="40" height="40" viewBox="0 0 40 40" fill="none" xmlns="http://www.w3.org/2000/svg">
<path d="M19.9987 15.7064C20.9192 15.7064 21.6654 16.4526 21.6654 17.373C21.6651 18.2933 20.919 19.0397 19.9987 19.0397C19.0784 19.0397 18.3323 18.2933 18.332 17.373C18.332 16.4526 19.0782 15.7064 19.9987 15.7064Z" fill="#FAFAFA"/>
<path fill-rule="evenodd" clip-rule="evenodd" d="M28.332 3.75C30.8633 3.75 32.9154 5.80203 32.9154 8.33333V31.6667C32.9154 34.198 30.8633 36.25 28.332 36.25H11.6654C9.13406 36.25 7.08203 34.198 7.08203 31.6667V8.33333C7.08203 5.80203 9.13406 3.75 11.6654 3.75H28.332ZM19.9987 29.5833C19.3083 29.5833 18.7487 30.143 18.7487 30.8333C18.7487 31.5237 19.3083 32.0833 19.9987 32.0833C20.6891 32.0833 21.2487 31.5237 21.2487 30.8333C21.2487 30.143 20.6891 29.5833 19.9987 29.5833ZM18.3304 14.1667C17.4099 14.1667 16.6637 14.9129 16.6637 15.8333V24.1667C16.6637 25.0871 17.4099 25.8333 18.3304 25.8333H21.6686C22.5891 25.8333 23.3353 25.0871 23.3353 24.1667V15.8333C23.3353 14.9129 22.5891 14.1667 21.6686 14.1667H18.3304ZM19.9987 7.91667C19.3083 7.91667 18.7487 8.47631 18.7487 9.16667C18.7487 9.85702 19.3083 10.4167 19.9987 10.4167C20.6891 10.4167 21.2487 9.85702 21.2487 9.16667C21.2487 8.47631 20.6891 7.91667 19.9987 7.91667Z" fill="#FAFAFA"/>
</svg>
