<svg width="40" height="40" viewBox="0 0 40 40" fill="none" xmlns="http://www.w3.org/2000/svg">
<path fill-rule="evenodd" clip-rule="evenodd" d="M5 9.58333C5 7.05203 7.05203 5 9.58333 5H30.4167C32.948 5 35 7.05203 35 9.58333V30.4167C35 32.948 32.948 35 30.4167 35H9.58333C7.05203 35 5 32.948 5 30.4167V9.58333ZM14.5833 28.3333C13.893 28.3333 13.3333 27.7737 13.3333 27.0833C13.3333 26.393 13.893 25.8333 14.5833 25.8333H25.4167C26.107 25.8333 26.6667 26.393 26.6667 27.0833C26.6667 27.7737 26.107 28.3333 25.4167 28.3333H14.5833ZM24.6339 19.6339L20.8839 23.3839C20.3957 23.872 19.6043 23.872 19.1161 23.3839L15.3661 19.6339C14.878 19.1457 14.878 18.3543 15.3661 17.8661C15.8543 17.378 16.6457 17.378 17.1339 17.8661L18.75 19.4822V12.9167C18.75 12.2263 19.3096 11.6667 20 11.6667C20.6904 11.6667 21.25 12.2263 21.25 12.9167V19.4822L22.8661 17.8661C23.3543 17.378 24.1457 17.378 24.6339 17.8661C25.122 18.3543 25.122 19.1457 24.6339 19.6339Z" fill="#FAFAFA"/>
</svg>
