<svg width="40" height="40" viewBox="0 0 40 40" fill="none" xmlns="http://www.w3.org/2000/svg">
<path d="M23.125 5.625C23.8154 5.625 24.375 5.06536 24.375 4.375C24.375 3.68465 23.8154 3.125 23.125 3.125H16.875C16.1846 3.125 15.625 3.68465 15.625 4.375C15.625 5.06536 16.1846 5.625 16.875 5.625H23.125ZM5.9375 21.25C6.62786 21.25 7.1875 20.6904 7.1875 20C7.1875 19.3096 6.62786 18.75 5.9375 18.75H4.375C3.68464 18.75 3.125 19.3096 3.125 20C3.125 20.6904 3.68464 21.25 4.375 21.25H5.9375ZM35.625 21.25C36.3154 21.25 36.875 20.6904 36.875 20C36.875 19.3096 36.3154 18.75 35.625 18.75H34.0625C33.3721 18.75 32.8125 19.3096 32.8125 20C32.8125 20.6904 33.3721 21.25 34.0625 21.25H35.625ZM7.39746 32.6025C7.85513 33.0602 8.57967 33.0893 9.07064 32.6888L9.16504 32.6025L10.7275 31.04L10.8138 30.9456C11.2143 30.4547 11.1852 29.7301 10.7275 29.2725C10.2699 28.8148 9.54533 28.7857 9.05436 29.1862L8.95996 29.2725L7.39746 30.835L7.3112 30.9294C6.91068 31.4203 6.93979 32.1449 7.39746 32.6025ZM30.9294 32.6888C31.4203 33.0893 32.1449 33.0602 32.6025 32.6025C33.0907 32.1144 33.0907 31.3231 32.6025 30.835L31.04 29.2725C30.5519 28.7843 29.7606 28.7843 29.2725 29.2725C28.7843 29.7606 28.7843 30.5519 29.2725 31.04L30.835 32.6025L30.9294 32.6888ZM18.75 34.0625V35.625C18.75 36.3154 19.3096 36.875 20 36.875C20.6904 36.875 21.25 36.3154 21.25 35.625V34.0625C21.25 33.3721 20.6904 32.8125 20 32.8125C19.3096 32.8125 18.75 33.3721 18.75 34.0625ZM29.0381 19.3408C28.9266 17.8091 28.4278 16.3269 27.583 15.0358C26.7708 13.7948 25.6662 12.7795 24.375 12.0671V9.0625C24.375 8.37214 23.8154 7.8125 23.125 7.8125H16.875C16.1846 7.8125 15.625 8.37214 15.625 9.0625V12.0671C14.4462 12.7173 13.4216 13.62 12.6335 14.7201C11.682 16.0481 11.1073 17.6087 10.9701 19.2367C10.8328 20.8645 11.1382 22.4995 11.8538 23.9681C12.5695 25.4365 13.6692 26.6848 15.0358 27.5798C16.4024 28.4745 17.9855 28.9838 19.6175 29.0527C21.2498 29.1217 22.8709 28.747 24.3083 27.9704C25.7454 27.1938 26.9463 26.0432 27.7832 24.6403C28.6201 23.2373 29.062 21.6337 29.0625 20L29.0381 19.3408Z" fill="#FAFAFA"/>
</svg>
