<svg width="40" height="40" viewBox="0 0 40 40" fill="none" xmlns="http://www.w3.org/2000/svg">
<path d="M31.5669 26.8249C31.808 26.3426 32.3727 26.1293 32.8663 26.3163L32.9639 26.3583L35.0473 27.4C35.5616 27.6572 35.7707 28.2826 35.5138 28.797C35.2727 29.2793 34.7081 29.4926 34.2145 29.3057L34.1168 29.2636L32.0335 28.2219L31.9399 28.1691C31.4943 27.8865 31.3261 27.3071 31.5669 26.8249Z" fill="#FAFAFA"/>
<path d="M7.03347 26.3583C7.54793 26.1015 8.17331 26.3105 8.4305 26.8249C8.68736 27.3394 8.4783 27.9648 7.96392 28.2219L5.88059 29.2636C5.36613 29.5205 4.74075 29.3114 4.48356 28.797C4.2267 28.2826 4.43576 27.6572 4.95014 27.4L7.03347 26.3583Z" fill="#FAFAFA"/>
<path d="M7.4987 19.9985C8.07399 19.9985 8.54036 20.4648 8.54036 21.0401C8.54036 21.6154 8.07399 22.0818 7.4987 22.0818H4.3737C3.7984 22.0818 3.33203 21.6154 3.33203 21.0401C3.33203 20.4648 3.7984 19.9985 4.3737 19.9985H7.4987Z" fill="#FAFAFA"/>
<path d="M35.6237 19.9985C36.199 19.9985 36.6654 20.4648 36.6654 21.0401C36.6654 21.6154 36.199 22.0818 35.6237 22.0818H32.4987C31.9234 22.0818 31.457 21.6154 31.457 21.0401C31.457 20.4648 31.9234 19.9985 32.4987 19.9985H35.6237Z" fill="#FAFAFA"/>
<path d="M4.48356 13.2833C4.72471 12.801 5.28934 12.5876 5.78293 12.7746L5.88059 12.8167L7.96392 13.8583C8.4783 14.1155 8.68736 14.7409 8.4305 15.2554C8.18935 15.7377 7.62472 15.951 7.13113 15.764L7.03347 15.722L4.95014 14.6803L4.85655 14.6274C4.41094 14.3448 4.2428 13.7655 4.48356 13.2833Z" fill="#FAFAFA"/>
<path d="M34.1168 12.8167C34.6313 12.5598 35.2566 12.7689 35.5138 13.2833C35.7707 13.7977 35.5616 14.4231 35.0473 14.6803L32.9639 15.722C32.4495 15.9788 31.8241 15.7698 31.5669 15.2554C31.31 14.7409 31.5191 14.1155 32.0335 13.8583L34.1168 12.8167Z" fill="#FAFAFA"/>
<path d="M20.1184 22.5949C21.3277 22.5951 22.4876 23.0852 23.3428 23.9591C24.1982 24.8335 24.6787 26.02 24.6788 27.2565V28.517C24.6788 28.9244 24.3557 29.2546 23.9572 29.2546H23.3611C22.9973 29.2546 22.6903 29.5323 22.6452 29.9014L22.152 33.9378C22.1067 34.3066 21.7997 34.583 21.4361 34.5832H18.7994C18.4359 34.5828 18.1288 34.3065 18.0835 33.9378L17.5902 29.9014C17.5451 29.5323 17.2382 29.2546 16.8743 29.2546H16.2782C15.8797 29.2546 15.5567 28.9244 15.5567 28.517V27.2565C15.5567 26.02 16.0373 24.8335 16.8927 23.9591C17.748 23.085 18.9089 22.5949 20.1184 22.5949Z" fill="#FAFAFA"/>
<path d="M20.1184 16.5273C21.5574 16.5276 22.7238 17.72 22.7241 19.1909C22.7241 20.6622 21.5576 21.8556 20.1184 21.8559C18.679 21.8559 17.5113 20.6623 17.5113 19.1909C17.5117 17.7198 18.6792 16.5273 20.1184 16.5273Z" fill="#FAFAFA"/>
<path fill-rule="evenodd" clip-rule="evenodd" d="M22.8484 5.4165C23.6772 5.4165 24.4718 5.74734 25.0578 6.33339C25.6437 6.91941 25.9734 7.71422 25.9734 8.54286V9.63742C27.0291 9.77476 28.0313 10.1915 28.8257 10.8636C29.8157 11.7013 30.4153 12.8788 30.4154 14.1513V33.5415C30.4146 34.1162 29.9485 34.5832 29.3737 34.5832C28.7989 34.5832 28.3328 34.1162 28.332 33.5415V14.1513C28.332 13.5544 28.0524 12.9388 27.4802 12.4545C26.9025 11.9657 26.0869 11.6679 25.207 11.6679H14.7904C13.9105 11.6679 13.0949 11.9657 12.5171 12.4545C11.945 12.9388 11.6654 13.5544 11.6654 14.1513V33.5415C11.6646 34.1162 11.1985 34.5832 10.6237 34.5832C10.0489 34.5832 9.58276 34.1162 9.58203 33.5415V14.1513C9.5821 12.8788 10.1817 11.7013 11.1717 10.8636C11.8265 10.3096 12.6228 9.9294 13.4734 9.73508V8.54286C13.4734 7.71422 13.803 6.91941 14.3889 6.33339C14.9749 5.74734 15.7696 5.4165 16.5984 5.4165H22.8484ZM15.8619 7.80637C16.0572 7.61102 16.3221 7.50119 16.5984 7.50119H22.8484L23.0532 7.52154C23.2531 7.56166 23.4385 7.66004 23.5849 7.80637C23.78 8.00169 23.89 8.26675 23.89 8.54286V9.58453H15.5567V8.54286C15.5567 8.26675 15.6667 8.00169 15.8619 7.80637Z" fill="#FAFAFA"/>
<path d="M16.5984 7.50119C16.3221 7.50119 16.0572 7.61102 15.8619 7.80637C15.6667 8.00169 15.5567 8.26675 15.5567 8.54286V9.58453H23.89V8.54286C23.89 8.26675 23.78 8.00169 23.5849 7.80637C23.4385 7.66004 23.2531 7.56166 23.0532 7.52154L22.8484 7.50119H16.5984Z" fill="#FAFAFA"/>
</svg>
