<svg width="40" height="40" viewBox="0 0 40 40" fill="none" xmlns="http://www.w3.org/2000/svg">
<path fill-rule="evenodd" clip-rule="evenodd" d="M9.27192 9.15463C9.27192 8.60904 9.38446 8.06879 9.60312 7.56472C9.82177 7.06066 10.1423 6.60266 10.5463 6.21686C10.9503 5.83107 11.4299 5.52504 11.9578 5.31625C12.4857 5.10746 13.0515 5 13.6228 5C14.1942 5 14.76 5.10746 15.2879 5.31625C15.8157 5.52504 16.2954 5.83107 16.6994 6.21686C17.1034 6.60266 17.4239 7.06066 17.6426 7.56472C17.8612 8.06879 17.9737 8.60904 17.9737 9.15463C17.9737 10.2565 17.5154 11.3133 16.6994 12.0924C15.8834 12.8715 14.7768 13.3093 13.6228 13.3093C12.4689 13.3093 11.3622 12.8715 10.5463 12.0924C9.73032 11.3133 9.27192 10.2565 9.27192 9.15463ZM21.8812 9.15463C21.8812 8.05276 22.3396 6.99601 23.1555 6.21686C23.9715 5.43772 25.0781 5 26.2321 5C27.386 5 28.4927 5.43772 29.3086 6.21686C30.1246 6.99601 30.583 8.05276 30.583 9.15463C30.583 10.2565 30.1246 11.3133 29.3086 12.0924C28.4927 12.8715 27.386 13.3093 26.2321 13.3093C25.0781 13.3093 23.9715 12.8715 23.1555 12.0924C22.3396 11.3133 21.8812 10.2565 21.8812 9.15463ZM19.0202 28.941L18.0491 31.1775L18.0274 31.2329C17.5085 32.5559 17.6897 33.9219 18.4564 34.9903C18.3259 35 18.1984 35 18.0694 35C17.123 35 16.336 34.5488 15.8621 33.6451L14.1301 29.8835L11.7662 28.0775L11.6083 29.431C11.6083 30.033 11.2938 30.4855 10.9778 30.7872L7.51098 34.2471C7.03849 34.6983 6.40803 34.8491 5.77757 34.8491C5.14711 34.8491 4.51664 34.6997 4.04271 34.2471C3.09774 33.3448 3.09774 31.9913 4.04271 31.0876L6.88052 28.2269C7.16748 23.8481 7.93418 20.3453 9.08641 16.037C9.24439 15.2842 9.87485 14.6822 10.6633 14.3818C11.4503 14.231 12.3967 14.3818 12.8692 14.9839L15.9621 17.7891C15.7566 18.5842 15.8118 19.4204 16.1203 20.1845C16.4287 20.9486 16.9756 21.6038 17.6868 22.0614L16.494 22.5084C15.707 22.8087 14.6026 22.6593 13.9721 22.0572L13.333 21.5673L12.5547 23.5436L17.7549 26.5717C18.0709 26.8734 18.2288 27.0229 18.3854 27.4754L19.0216 28.9424L19.0202 28.941ZM22.2464 26.5717L27.4466 23.5436L26.6683 21.5673L26.0292 22.0572C25.3987 22.6593 24.2943 22.8087 23.5073 22.5084L19.0941 20.8532C17.8332 20.2512 17.3607 19.0471 17.8332 17.8431C18.4636 16.6391 19.7246 16.1879 20.9855 16.6391L23.9798 17.8431L27.1321 14.9839C27.6046 14.3818 28.551 14.231 29.338 14.3818C30.1265 14.6822 30.7569 15.2842 30.9149 16.037C32.0671 20.3453 32.8353 23.8481 33.1208 28.2269L35.9586 31.0876C36.9036 31.9899 36.9036 33.3434 35.9586 34.2471C35.4847 34.6983 34.8556 34.8491 34.2237 34.8491C33.5947 34.8491 32.9628 34.6997 32.4903 34.2471L29.0235 30.7872C28.7076 30.4855 28.393 30.033 28.393 29.431L28.2351 28.0775L25.8712 29.8835L24.1378 33.6451C23.6639 34.5488 22.8769 35 21.9304 35C21.6159 35 21.3 35 20.9855 34.8491C19.7246 34.2471 19.2506 33.0431 19.7246 31.839L21.6159 27.4754C21.7725 27.0229 21.9304 26.8734 22.2464 26.5717Z" fill="#FAFAFA"/>
</svg>
