<svg width="40" height="40" viewBox="0 0 40 40" fill="none" xmlns="http://www.w3.org/2000/svg">
<path fill-rule="evenodd" clip-rule="evenodd" d="M18.9687 4.55072C19.8227 3.33705 21.5153 2.91007 22.8353 3.80897C24.4385 4.90074 27.2437 7.0336 29.6592 10.0312C32.0734 13.0272 34.1673 16.9755 34.1673 21.6658C34.1673 29.7757 27.9025 36.6658 20.0007 36.6658C12.0988 36.6658 5.83398 29.7757 5.83398 21.6658C5.83398 18.2902 7.29928 13.94 10.1715 10.4613C11.2781 9.12099 13.2008 9.21446 14.3101 10.3166C14.4972 10.5024 14.8029 10.4711 14.9483 10.2645L18.9687 4.55072ZM19.9993 34.1658C22.5767 34.1658 24.666 31.7703 24.666 28.8152C24.666 25.6041 22.1482 23.253 20.8113 22.231C20.3257 21.8597 19.673 21.8597 19.1873 22.231C17.8505 23.253 15.3327 25.6041 15.3327 28.8152C15.3327 31.7703 17.422 34.1658 19.9993 34.1658Z" fill="#FAFAFA"/>
</svg>
