<svg width="48" height="48" viewBox="0 0 48 48" fill="none" xmlns="http://www.w3.org/2000/svg">
<path fill-rule="evenodd" clip-rule="evenodd" d="M26 14C26.8284 14 27.5 14.6716 27.5 15.5C27.5 20.3516 28.5718 23.5025 30.5346 25.4654C32.4975 27.4282 35.6484 28.5 40.5 28.5C41.3284 28.5 42 29.1716 42 30C42 30.8284 41.3284 31.5 40.5 31.5C35.6484 31.5 32.4975 32.5718 30.5346 34.5346C28.5718 36.4975 27.5 39.6484 27.5 44.5C27.5 45.3284 26.8284 46 26 46C25.1716 46 24.5 45.3284 24.5 44.5C24.5 39.6484 23.4282 36.4975 21.4654 34.5346C19.5025 32.5718 16.3516 31.5 11.5 31.5C10.6716 31.5 10 30.8284 10 30C10 29.1716 10.6716 28.5 11.5 28.5C16.3516 28.5 19.5025 27.4282 21.4654 25.4654C23.4282 23.5025 24.5 20.3516 24.5 15.5C24.5 14.6716 25.1716 14 26 14ZM26 24.0172C25.3981 25.3786 24.6015 26.5719 23.5867 27.5867C22.5719 28.6015 21.3786 29.3981 20.0172 30C21.3786 30.6019 22.5719 31.3985 23.5867 32.4133C24.6015 33.4281 25.3981 34.6214 26 35.9828C26.6019 34.6214 27.3985 33.4281 28.4133 32.4133C29.4281 31.3985 30.6214 30.6019 31.9828 30C30.6214 29.3981 29.4281 28.6015 28.4133 27.5867C27.3985 26.5719 26.6019 25.3786 26 24.0172Z" fill="#FAFAFA"/>
<path d="M12 11C12 10.4477 11.5523 10 11 10C10.4477 10 10 10.4477 10 11C10 12.9613 9.56558 14.1452 8.85539 14.8554C8.14521 15.5656 6.96126 16 5 16C4.44772 16 4 16.4477 4 17C4 17.5523 4.44772 18 5 18C6.96126 18 8.14521 18.4344 8.85539 19.1446C9.56558 19.8548 10 21.0387 10 23C10 23.5523 10.4477 24 11 24C11.5523 24 12 23.5523 12 23C12 21.0387 12.4344 19.8548 13.1446 19.1446C13.8548 18.4344 15.0387 18 17 18C17.5523 18 18 17.5523 18 17C18 16.4477 17.5523 16 17 16C15.0387 16 13.8548 15.5656 13.1446 14.8554C12.4344 14.1452 12 12.9613 12 11Z" fill="#FAFAFA"/>
<path d="M22 3C22 2.44772 21.5523 2 21 2C20.4477 2 20 2.44772 20 3C20 4.26682 19.7184 4.95076 19.3346 5.33456C18.9508 5.71836 18.2668 6 17 6C16.4477 6 16 6.44772 16 7C16 7.55228 16.4477 8 17 8C18.2668 8 18.9508 8.28164 19.3346 8.66544C19.7184 9.04924 20 9.73318 20 11C20 11.5523 20.4477 12 21 12C21.5523 12 22 11.5523 22 11C22 9.73318 22.2816 9.04924 22.6654 8.66544C23.0492 8.28164 23.7332 8 25 8C25.5523 8 26 7.55228 26 7C26 6.44772 25.5523 6 25 6C23.7332 6 23.0492 5.71836 22.6654 5.33456C22.2816 4.95076 22 4.26682 22 3Z" fill="#FAFAFA"/>
</svg>
