<svg width="48" height="48" viewBox="0 0 48 48" fill="none" xmlns="http://www.w3.org/2000/svg">
<path fill-rule="evenodd" clip-rule="evenodd" d="M33.25 5.84961C34.0784 5.84961 34.75 6.52118 34.75 7.34961V11.4004H40.6504H40.6797C40.6915 11.4006 40.7052 11.4018 40.7207 11.4023C40.7519 11.4034 40.7906 11.405 40.8359 11.4082C40.9264 11.4147 41.0463 11.426 41.1855 11.4492C41.4572 11.4945 41.8429 11.5875 42.2461 11.7891C42.6552 11.9937 43.1099 12.3259 43.459 12.8496C43.814 13.3825 43.9999 14.0256 44 14.75V25.8496H42.7695C43.9503 25.8498 44 25.8496 44 25.8496V25.8809C43.9998 25.8924 43.9985 25.9069 43.998 25.9219C43.997 25.9529 43.9954 25.9922 43.9922 26.0371C43.9857 26.1275 43.9743 26.2478 43.9512 26.3867C43.9059 26.6581 43.8124 27.0429 43.6113 27.4453C43.4067 27.8544 43.0744 28.3111 42.5508 28.6602C42.0179 29.015 41.3747 29.2011 40.6504 29.2012H34.75V40.6484C34.75 41.4769 34.0784 42.1484 33.25 42.1484C32.4216 42.1484 31.75 41.4769 31.75 40.6484V29.2012H16.248V40.6484C16.248 41.4769 15.5765 42.1484 14.748 42.1484C13.9196 42.1484 13.248 41.4769 13.248 40.6484V29.2012H7.34961H7.33594C7.33124 29.2011 7.3259 29.1993 7.32031 29.1992C7.30856 29.199 7.29482 29.1997 7.2793 29.1992C7.24817 29.1982 7.20934 29.1966 7.16406 29.1934C7.07362 29.1869 6.95381 29.1736 6.81445 29.1504C6.54282 29.1051 6.15716 29.0121 5.75391 28.8105C5.34488 28.606 4.89007 28.2754 4.54102 27.752C4.23021 27.2857 4.04834 26.7348 4.00781 26.1191L4 25.8496V14.75H5.22852L5.22656 14.748L4 14.75V14.7207C4.00019 14.7091 4.00143 14.695 4.00195 14.6797C4.00299 14.6486 4.0046 14.6096 4.00781 14.5645C4.01426 14.4741 4.02567 14.354 4.04883 14.2148C4.09409 13.9433 4.1872 13.5574 4.38867 13.1543C4.59324 12.7452 4.92559 12.2906 5.44922 11.9414C5.98217 11.5863 6.62504 11.4005 7.34961 11.4004H13.248V7.34961C13.248 6.52118 13.9196 5.84961 14.748 5.84961C15.5765 5.84961 16.248 6.52118 16.248 7.34961V11.4004H31.75V7.34961C31.75 6.52118 32.4216 5.84961 33.25 5.84961ZM7 25.8496L7.02148 26.0488C7.02592 26.0642 7.03085 26.075 7.0332 26.0801C7.03529 26.0845 7.03711 26.0879 7.03711 26.0879C7.03711 26.0879 7.03974 26.0913 7.04492 26.0957C7.05278 26.1022 7.06938 26.1138 7.0957 26.127C7.15461 26.1564 7.23182 26.1789 7.30664 26.1914C7.34025 26.197 7.36605 26.2004 7.37695 26.2012H14.709C14.722 26.2008 14.735 26.1992 14.748 26.1992C14.7611 26.1992 14.7741 26.2008 14.7871 26.2012H16.6797L7 16.5215V25.8496ZM32.0195 26.2012H33.2109C33.2239 26.2008 33.2369 26.1992 33.25 26.1992C33.2631 26.1992 33.2761 26.2008 33.2891 26.2012H38.8789L27.0781 14.4004H20.2188L32.0195 26.2012ZM20.9219 26.2012H27.7773L15.9766 14.4004H9.12109L20.9219 26.2012ZM41 24.0801V14.75C41 14.6463 40.9872 14.5837 40.9785 14.5527C40.9742 14.5375 40.9692 14.5268 40.9668 14.5215C40.965 14.5177 40.9629 14.5137 40.9629 14.5137C40.9629 14.5137 40.9614 14.5093 40.9551 14.5039C40.9473 14.4974 40.931 14.486 40.9043 14.4727C40.8454 14.4432 40.7682 14.4208 40.6934 14.4082C40.6598 14.4026 40.634 14.4012 40.623 14.4004H31.3203L41 24.0801Z" fill="#FAFAFA"/>
</svg>
