<svg width="48" height="48" viewBox="0 0 48 48" fill="none" xmlns="http://www.w3.org/2000/svg">
<path fill-rule="evenodd" clip-rule="evenodd" d="M19 7C17.8954 7 17 7.89543 17 9V22C17 22.5766 16.6695 23.1022 16.1498 23.352C15.6301 23.6017 15.0132 23.5315 14.563 23.1713L12.6864 21.6701C11.6083 20.8076 10.0351 20.9824 9.17253 22.0605L8.28471 23.1703L13.7947 33.6394C16.0153 37.8585 20.3907 40.5 25.1585 40.5C32.2507 40.5 38 34.7506 38 27.6585V26.5001C38 22.9102 35.0899 20.0001 31.5 20.0001H22.5C21.6716 20.0001 21 19.3285 21 18.5001V9C21 7.89543 20.1046 7 19 7ZM14 9C14 6.23858 16.2386 4 19 4C21.7614 4 24 6.23858 24 9V17.0001H31.5C36.7467 17.0001 41 21.2534 41 26.5001V27.6585C41 36.4075 33.9075 43.5 25.1585 43.5C19.2768 43.5 13.8793 40.2414 11.14 35.0366L5.17263 23.6986C4.89486 23.1709 4.95614 22.5287 5.32871 22.063L6.82993 20.1864C8.58276 17.9954 11.6698 17.5001 14 18.933V9Z" fill="#FAFAFA"/>
</svg>
