<svg width="48" height="48" viewBox="0 0 48 48" fill="none" xmlns="http://www.w3.org/2000/svg">
<path d="M32.5 15.8223C32.4999 14.7333 32.2823 13.6541 31.8574 12.6465C31.4324 11.6386 30.8076 10.7214 30.0195 9.94727C29.2315 9.17318 28.2949 8.55708 27.2617 8.13672C26.2285 7.71631 25.1199 7.5 24 7.5C21.7372 7.5 19.5725 8.38347 17.9805 9.94727C16.756 11.1501 15.9483 12.6794 15.6406 14.3223H19.416C19.6526 13.6171 20.0505 12.9692 20.5918 12.4375C21.5002 11.5452 22.7267 11.0488 24 11.0488C24.631 11.0488 25.2574 11.1704 25.8418 11.4082C26.426 11.646 26.9584 11.9956 27.4082 12.4375C27.858 12.8794 28.2159 13.4055 28.4609 13.9863C28.7059 14.5674 28.8339 15.1917 28.834 15.8223V15.8262C28.8305 17.5864 28.3716 19.3153 27.5039 20.8516C26.6363 22.3877 25.3887 23.6803 23.8789 24.6094L23.877 24.6113L15.5 29.7422V40.5H32.5V15.8223ZM35.5 42C35.5 42.8284 34.8284 43.5 34 43.5H14C13.1716 43.5 12.5 42.8284 12.5 42V28.9023C12.5002 28.3806 12.7719 27.8956 13.2168 27.623L22.3086 22.0527C23.3889 21.3875 24.2773 20.4662 24.8926 19.377C25.5078 18.2877 25.8312 17.0645 25.834 15.8223L25.8242 15.6523C25.8071 15.4813 25.7648 15.3126 25.6973 15.1523C25.6074 14.9394 25.4753 14.7439 25.3066 14.5781C25.1377 14.4122 24.9351 14.2788 24.7109 14.1875C24.4865 14.0962 24.2444 14.0488 24 14.0488C23.5052 14.0488 23.0352 14.2423 22.6934 14.5781C22.353 14.9128 22.1662 15.3609 22.166 15.8223C22.166 16.6507 21.4944 17.3223 20.666 17.3223H14C13.6022 17.3223 13.2208 17.1641 12.9395 16.8828C12.6583 16.6015 12.5 16.22 12.5 15.8223C12.5002 12.8109 13.7177 9.92778 15.877 7.80664C18.0356 5.68623 20.9586 4.5 24 4.5C25.5065 4.5 26.9993 4.79054 28.3926 5.35742C29.7859 5.92432 31.054 6.75654 32.123 7.80664C33.1919 8.85666 34.0411 10.1051 34.6211 11.4805C35.2011 12.856 35.4999 14.3318 35.5 15.8223V42Z" fill="#FAFAFA"/>
</svg>
