<svg width="48" height="48" viewBox="0 0 48 48" fill="none" xmlns="http://www.w3.org/2000/svg">
<path fill-rule="evenodd" clip-rule="evenodd" d="M21.5248 4.85325C22.8917 3.48642 25.1077 3.48641 26.4746 4.85325L31.0604 9.43904C31.6461 10.0248 31.6461 10.9746 31.0604 11.5604C30.4746 12.1461 29.5248 12.1461 28.939 11.5604L25.4997 8.12102V22.4997H39.8784L36.439 19.0604C35.8532 18.4746 35.8532 17.5248 36.439 16.939C37.0248 16.3533 37.9746 16.3533 38.5604 16.939L43.1461 21.5248C44.513 22.8917 44.513 25.1077 43.1461 26.4746L38.5604 31.0604C37.9746 31.6461 37.0248 31.6461 36.439 31.0604C35.8532 30.4746 35.8533 29.5248 36.439 28.939L39.8784 25.4997H25.4997V39.8784L28.939 36.439C29.5248 35.8532 30.4746 35.8532 31.0604 36.439C31.6461 37.0248 31.6461 37.9746 31.0604 38.5604L26.4746 43.1461C25.1077 44.513 22.8917 44.513 21.5248 43.1461L16.939 38.5604C16.3533 37.9746 16.3533 37.0248 16.939 36.439C17.5248 35.8532 18.4746 35.8532 19.0604 36.439L22.4997 39.8784V25.4997H8.12102L11.5604 28.939C12.1461 29.5248 12.1461 30.4746 11.5604 31.0604C10.9746 31.6461 10.0248 31.6461 9.43904 31.0604L4.85325 26.4746C3.48641 25.1077 3.48642 22.8917 4.85325 21.5248L5.90858 22.5802L4.85325 21.5248L9.43904 16.939C10.0248 16.3533 10.9746 16.3533 11.5604 16.939C12.1461 17.5248 12.1461 18.4746 11.5604 19.0604L8.12102 22.4997H22.4997V8.12102L19.0604 11.5604C18.4746 12.1461 17.5248 12.1461 16.939 11.5604C16.3533 10.9746 16.3533 10.0248 16.939 9.43904L21.5248 4.85325L22.5802 5.90858L22.5855 5.91391M21.5248 4.85325L22.5802 5.90858L21.5248 4.85325Z" fill="#FAFAFA"/>
</svg>
