<svg width="48" height="48" viewBox="0 0 48 48" fill="none" xmlns="http://www.w3.org/2000/svg">
<path fill-rule="evenodd" clip-rule="evenodd" d="M24 3.4082C27.4355 3.40834 30.7308 4.77577 33.1602 7.20508C35.589 9.63443 36.9531 12.9298 36.9531 16.3652V28.8633H38C38.8283 28.8633 39.4998 29.5351 39.5 30.3633C39.5 31.1917 38.8284 31.8633 38 31.8633H35.4922C35.4794 31.8636 35.466 31.8652 35.4531 31.8652H31.8633V43.0898C31.8633 43.9183 31.1917 44.5898 30.3633 44.5898C29.535 44.5897 28.8633 43.9182 28.8633 43.0898V31.8652H19.1367V43.0898C19.1367 43.9182 18.465 44.5897 17.6367 44.5898C16.8083 44.5898 16.1367 43.9183 16.1367 43.0898V31.8652H12.5449C12.5319 31.8652 12.5188 31.8636 12.5059 31.8633H10C9.17157 31.8633 8.5 31.1917 8.5 30.3633C8.50024 29.5351 9.17172 28.8633 10 28.8633H11.0449V16.3652C11.0449 12.9298 12.4109 9.63445 14.8398 7.20508C17.2692 4.77576 20.5645 3.40834 24 3.4082ZM24 6.41016C21.3601 6.4103 18.8276 7.45946 16.9609 9.32617C15.0946 11.1929 14.0449 13.7255 14.0449 16.3652V28.8633H22.5V23.3496L19.1211 19.9707C18.5355 19.3851 18.5359 18.4354 19.1211 17.8496C19.7069 17.2638 20.6564 17.2638 21.2422 17.8496L24 20.6074L26.7578 17.8496C27.3436 17.264 28.2932 17.2639 28.8789 17.8496C29.4641 18.4354 29.4643 19.3851 28.8789 19.9707L25.5 23.3496V28.8633H33.9531V16.3652C33.9531 13.7255 32.9053 11.193 31.0391 9.32617C29.1723 7.45945 26.6399 6.4103 24 6.41016Z" fill="#FAFAFA"/>
</svg>
