<svg width="48" height="48" viewBox="0 0 48 48" fill="none" xmlns="http://www.w3.org/2000/svg">
<path fill-rule="evenodd" clip-rule="evenodd" d="M26.209 8.93074L42.5 23.9999L26.209 39.0691L26.209 31.9999C26.209 30.6028 25.0603 29.4924 23.6859 29.5042C15.6243 29.5735 10.8884 30.4702 7.77483 32.3073C6.60538 32.9973 5.69236 33.8065 4.93424 34.696C5.37945 29.608 6.50985 26.0276 8.54785 23.5579C11.2239 20.3151 15.7808 18.6339 23.7246 18.5076C25.0641 18.4863 26.209 17.4027 26.209 15.9999L26.209 8.93074ZM23.209 15.5172V8.93074C23.209 6.31399 26.3252 4.95155 28.2461 6.72844L44.5371 21.7976C45.8209 22.9852 45.8209 25.0147 44.5371 26.2022L28.2461 41.2714C26.3252 43.0483 23.209 41.6858 23.209 39.0691V32.5096C15.5519 32.6117 11.6326 33.5144 9.29935 34.8911C7.01675 36.2379 6.0748 38.122 4.59748 41.077L4.55062 41.1707C4.23951 41.793 3.54141 42.1196 2.86436 41.9598C2.1873 41.8 1.70898 41.1956 1.70898 40.4999C1.70898 32.1375 2.76999 25.8461 6.23398 21.6485C9.69393 17.4557 15.234 15.7059 23.209 15.5172Z" fill="#FAFAFA"/>
</svg>
