<svg width="48" height="48" viewBox="0 0 48 48" fill="none" xmlns="http://www.w3.org/2000/svg">
<path d="M32.5703 21.9713C32.5703 17.2375 28.7328 13.3999 23.9989 13.3999V25.2999H32.5703V21.9713Z" fill="#316EFF"/>
<path d="M31 30V22C31 18.134 27.866 15 24 15C20.134 15 17 18.134 17 22V30C17 33.866 20.134 37 24 37V40C18.6494 40 14.2811 35.7978 14.0137 30.5137L14 30V22C14 16.4772 18.4772 12 24 12C29.5228 12 34 16.4772 34 22V30L33.9863 30.5137C33.7189 35.7978 29.3506 40 24 40V37C27.866 37 31 33.866 31 30Z" fill="#FAFAFA"/>
<path d="M32.5723 23.8003V26.8003H15.4297V23.8003H32.5723Z" fill="#FAFAFA"/>
<path d="M23.7949 22.562C22.8538 22.4661 22.1051 21.7182 22.0098 20.7769L22 20.5737V18.6929C22 17.5883 22.8954 16.6929 24 16.6929C25.1046 16.6929 26 17.5883 26 18.6929V20.5737L25.9902 20.7769C25.8881 21.7856 25.0357 22.5737 24 22.5737L23.7949 22.562Z" fill="#FAFAFA"/>
<path d="M37.3177 12V10.8916L40.7887 8.22289C41.1804 7.92169 41.4651 7.64056 41.6428 7.37952C41.825 7.11446 41.9161 6.82129 41.9161 6.5C41.9161 6.18675 41.8227 5.9257 41.6359 5.71687C41.4492 5.50803 41.1326 5.40361 40.6862 5.40361C40.1806 5.40361 39.8184 5.53012 39.5998 5.78313C39.3812 6.03614 39.2718 6.36345 39.2718 6.76506H37.5364C37.5364 6.18675 37.6571 5.69076 37.8985 5.27711C38.1445 4.86345 38.502 4.54819 38.9712 4.33133C39.4404 4.11044 40.012 4 40.6862 4C41.3057 4 41.8455 4.09438 42.3055 4.28313C42.7701 4.47189 43.1277 4.74297 43.3782 5.09639C43.6333 5.4498 43.7609 5.87952 43.7609 6.38554C43.7609 6.81124 43.672 7.18875 43.4944 7.51807C43.3167 7.84739 43.073 8.1506 42.7633 8.42771C42.4581 8.7008 42.1096 8.97992 41.7179 9.26506L39.8526 10.6446H44V12H37.3177Z" fill="#316EFF"/>
<path d="M30 12L32.5349 8.61446L33.3275 8.21084L34.7418 6.12048H36.6755L34.3182 9.28313L33.5939 9.6747L31.9336 12H30ZM34.9536 12L33.2796 9.6747L32.6306 9.3012L30.2255 6.12048H32.1591L33.5939 8.20482L34.3319 8.60843L36.8941 12H34.9536Z" fill="#316EFF"/>
</svg>
