<svg width="48" height="48" viewBox="0 0 48 48" fill="none" xmlns="http://www.w3.org/2000/svg">
<path d="M18.6152 39.1348C19.4437 39.1348 20.1152 39.8063 20.1152 40.6348V42.0801C20.1147 42.9081 19.4433 43.5801 18.6152 43.5801C17.7871 43.5801 17.1158 42.9081 17.1152 42.0801V40.6348C17.1152 39.8063 17.7868 39.1348 18.6152 39.1348Z" fill="#FAFAFA"/>
<path d="M13.4824 36.9512C14.1847 36.5127 15.1117 36.7258 15.5508 37.4277C15.9893 38.13 15.7741 39.055 15.0723 39.4941L13.7871 40.2988C13.0847 40.7376 12.1597 40.5227 11.7207 39.8203C11.2823 39.1179 11.495 38.1928 12.1973 37.7539L13.4824 36.9512Z" fill="#FAFAFA"/>
<path d="M21.3242 37.334C21.7266 36.6101 22.6392 36.3497 23.3633 36.752L24.8105 37.5547C25.5337 37.9572 25.7942 38.87 25.3926 39.5938C24.9904 40.3175 24.0775 40.5791 23.3535 40.1777L21.9062 39.373C21.1824 38.9707 20.922 38.058 21.3242 37.334Z" fill="#FAFAFA"/>
<path d="M24.0801 6.02734C24.9084 6.02742 25.5801 6.69896 25.5801 7.52734V28.7422C25.5798 29.9558 25.0907 31.1378 24.1758 32.0527L19.5156 36.7129C18.9299 37.2984 17.9803 37.2983 17.3945 36.7129C16.8088 36.1272 16.809 35.1776 17.3945 34.5918L22.0547 29.9316C22.4249 29.5614 22.5798 29.1352 22.5801 28.7422V7.52734C22.5801 6.69892 23.2517 6.02734 24.0801 6.02734Z" fill="#FAFAFA"/>
<path d="M11.5195 31.8691C11.9221 31.1457 12.8347 30.885 13.5586 31.2871L15.0059 32.0898C15.7291 32.4921 15.9891 33.4051 15.5879 34.1289C15.1857 34.8528 14.2729 35.1146 13.5488 34.7129L12.1016 33.9082C11.3777 33.5058 11.1173 32.5932 11.5195 31.8691Z" fill="#FAFAFA"/>
<path fill-rule="evenodd" clip-rule="evenodd" d="M16.3672 4.41992C18.4808 4.42039 20.277 6.21645 20.2773 8.33008V10.2598C20.2772 11.1594 19.949 11.9993 19.4121 12.6699C19.9488 13.3405 20.2772 14.1806 20.2773 15.0801V17.0098C20.2771 17.9088 19.9484 18.7476 19.4121 19.418C19.9494 20.0887 20.2772 20.93 20.2773 21.8301V23.7598C20.2767 25.8731 18.4806 27.6694 16.3672 27.6699H8.33008C6.21656 27.6696 4.42057 25.8732 4.41992 23.7598V21.8301C4.42007 20.9304 4.74642 20.0886 5.2832 19.418C4.74736 18.7478 4.42019 17.9084 4.41992 17.0098V15.0801C4.42006 14.181 4.74698 13.3403 5.2832 12.6699C4.74684 11.9995 4.42008 11.159 4.41992 10.2598V8.33008C4.42024 6.21636 6.21637 4.42024 8.33008 4.41992H16.3672ZM8.33008 20.9199C7.87321 20.9203 7.42033 21.3731 7.41992 21.8301V23.7598C7.42068 24.2165 7.87336 24.6696 8.33008 24.6699H16.3672C16.8238 24.6694 17.2766 24.2164 17.2773 23.7598V21.8301C17.2769 21.3732 16.824 20.9205 16.3672 20.9199H8.33008ZM8.33008 14.1699C7.87317 14.1703 7.42029 14.6232 7.41992 15.0801V17.0098C7.42067 17.4665 7.87336 17.9196 8.33008 17.9199H16.3672C16.8238 17.9194 17.2766 17.4664 17.2773 17.0098V15.0801C17.277 14.6233 16.824 14.1705 16.3672 14.1699H8.33008ZM8.33008 7.41992C7.87316 7.42029 7.42029 7.87317 7.41992 8.33008V10.2598C7.42034 10.7166 7.87319 11.1696 8.33008 11.1699H16.3672C16.824 11.1694 17.2769 10.7166 17.2773 10.2598V8.33008C17.277 7.87326 16.824 7.42047 16.3672 7.41992H8.33008Z" fill="#FAFAFA"/>
<path fill-rule="evenodd" clip-rule="evenodd" d="M39.6699 4.41992C41.7835 4.4204 43.5798 6.21646 43.5801 8.33008V10.2598C43.5798 11.1588 43.2512 11.9976 42.7148 12.668C43.2521 13.3387 43.5799 14.18 43.5801 15.0801V17.0098C43.5798 17.9088 43.2512 18.7476 42.7148 19.418C43.2521 20.0887 43.5799 20.93 43.5801 21.8301V23.7598C43.5795 25.8732 41.7834 27.6694 39.6699 27.6699H31.6328C29.5193 27.6696 27.7232 25.8733 27.7227 23.7598V21.8301C27.7228 20.9304 28.0491 20.0886 28.5859 19.418C28.0501 18.7478 27.7229 17.9084 27.7227 17.0098V15.0801C27.7228 14.1804 28.0491 13.3386 28.5859 12.668C28.0501 11.9978 27.7229 11.1584 27.7227 10.2598V8.33008C27.723 6.21636 29.5191 4.42024 31.6328 4.41992H39.6699ZM31.6328 20.9199C31.1759 20.9203 30.723 21.3732 30.7227 21.8301V23.7598C30.7233 24.2165 31.1761 24.6696 31.6328 24.6699H39.6699C40.1266 24.6694 40.5794 24.2164 40.5801 23.7598V21.8301C40.5797 21.3733 40.1267 20.9205 39.6699 20.9199H31.6328ZM31.6328 14.1699C31.1759 14.1703 30.723 14.6232 30.7227 15.0801V17.0098C30.7234 17.4665 31.1761 17.9196 31.6328 17.9199H39.6699C40.1265 17.9194 40.5793 17.4664 40.5801 17.0098V15.0801C40.5797 14.6233 40.1267 14.1705 39.6699 14.1699H31.6328ZM31.6328 7.41992C31.1759 7.42029 30.723 7.87317 30.7227 8.33008V10.2598C30.7234 10.7165 31.1761 11.1696 31.6328 11.1699H39.6699C40.1265 11.1694 40.5793 10.7164 40.5801 10.2598V8.33008C40.5797 7.87326 40.1267 7.42048 39.6699 7.41992H31.6328Z" fill="#FAFAFA"/>
</svg>
