<svg width="48" height="48" viewBox="0 0 48 48" fill="none" xmlns="http://www.w3.org/2000/svg">
<path d="M6 34.5C6.82843 34.5 7.5 35.1716 7.5 36V40.5H12L12.1543 40.5078C12.9102 40.585 13.5 41.2237 13.5 42C13.5 42.7763 12.9102 43.415 12.1543 43.4922L12 43.5H6C5.17159 43.5 4.50001 42.8284 4.5 42V36C4.5 35.1716 5.17158 34.5 6 34.5Z" fill="#FAFAFA"/>
<path d="M42 34.5C42.8284 34.5 43.5 35.1716 43.5 36V42C43.5 42.8284 42.8284 43.5 42 43.5H36C35.1716 43.5 34.5 42.8284 34.5 42C34.5 41.1716 35.1716 40.5 36 40.5H40.5V36C40.5 35.1716 41.1716 34.5 42 34.5Z" fill="#FAFAFA"/>
<path fill-rule="evenodd" clip-rule="evenodd" d="M21.5 12C24.0194 12 26.4352 13.0018 28.2168 14.7832C29.9982 16.5646 30.9998 18.9807 31 21.5C31 23.5141 30.3563 25.4598 29.1895 27.0703L34.5605 32.4414C35.1455 33.0273 35.146 33.977 34.5605 34.5625C33.975 35.1476 33.0252 35.1473 32.4395 34.5625L27.0684 29.1914C25.4581 30.3576 23.5135 31 21.5 31C18.9804 31 16.5648 29.9984 14.7832 28.2168C13.0018 26.4352 12 24.0194 12 21.5C12.0002 18.9807 13.0018 16.5646 14.7832 14.7832C16.5648 13.0018 18.9806 12 21.5 12ZM21.5 15C19.7763 15 18.1232 15.6855 16.9043 16.9043C15.6855 18.1231 15.0002 19.7764 15 21.5C15 23.2237 15.6855 24.8768 16.9043 26.0957C18.1233 27.3147 19.7761 28 21.5 28C23.0863 28 24.6097 27.4174 25.793 26.375C25.8591 26.2561 25.9381 26.142 26.0391 26.041C26.1412 25.9388 26.2565 25.8575 26.377 25.791C27.4178 24.6081 28 23.085 28 21.5C27.9998 19.7764 27.3145 18.1231 26.0957 16.9043C24.8768 15.6855 23.2237 15 21.5 15Z" fill="#FAFAFA"/>
<path d="M12.1543 4.50781C12.9102 4.58505 13.5 5.22366 13.5 6C13.5 6.77634 12.9102 7.41495 12.1543 7.49219L12 7.5H7.5V12C7.5 12.8284 6.82843 13.5 6 13.5C5.17157 13.5 4.5 12.8284 4.5 12V6L4.50781 5.8457C4.58506 5.08976 5.22367 4.5 6 4.5H12L12.1543 4.50781Z" fill="#FAFAFA"/>
<path d="M42.1543 4.50781C42.9102 4.58505 43.5 5.22368 43.5 6V12C43.5 12.8284 42.8284 13.5 42 13.5C41.1716 13.5 40.5 12.8284 40.5 12V7.5H36C35.1716 7.5 34.5 6.82843 34.5 6C34.5 5.17158 35.1716 4.5 36 4.5H42L42.1543 4.50781Z" fill="#FAFAFA"/>
</svg>
