<svg width="48" height="48" viewBox="0 0 48 48" fill="none" xmlns="http://www.w3.org/2000/svg">
<path fill-rule="evenodd" clip-rule="evenodd" d="M37.9995 6.50052C41.0369 6.50074 43.4995 8.96309 43.4995 12.0005V24.0005C43.4994 25.7096 42.7187 27.236 41.4956 28.2447C41.4903 29.1912 41.4463 30.2506 41.0933 31.3384C40.6972 32.5583 39.9556 33.7093 38.6929 34.8579C37.4904 35.9518 37.2325 36.2059 37.0952 36.7447C36.9169 37.4453 36.9683 38.6802 37.482 41.7525C37.5545 42.1871 37.4326 42.6328 37.148 42.9693C36.8632 43.3056 36.4441 43.5002 36.0034 43.5005H22.9995C22.5412 43.5002 22.108 43.2897 21.8238 42.9302C21.5394 42.5701 21.4344 42.0992 21.5406 41.6529L22.2613 38.6275C20.6557 37.8003 19.2645 36.8025 18.2574 35.3169C17.2219 33.789 16.6929 31.8974 16.5464 29.4771C14.2739 29.25 12.4998 27.3328 12.4995 25.0005C12.4995 22.5152 14.5143 20.5005 16.9995 20.5005H32.4995V12.0005C32.4995 8.96295 34.962 6.50052 37.9995 6.50052ZM19.5562 29.5005C19.6979 31.4626 20.124 32.724 20.7417 33.6353C21.5062 34.7623 22.6977 35.5709 24.6167 36.4361C25.2723 36.7319 25.6272 37.4532 25.4605 38.1529L24.8999 40.5005H34.2515C33.9725 38.5308 33.904 37.1238 34.189 36.0044C34.5934 34.4172 35.6793 33.5452 36.6753 32.6392C37.6106 31.7883 38.0276 31.0642 38.2398 30.4107C38.3342 30.1196 38.3903 29.8213 38.4292 29.5005H19.5562ZM16.9995 23.5005C16.1711 23.5005 15.4995 24.1721 15.4995 25.0005C15.4998 25.8288 16.1713 26.5005 16.9995 26.5005H32.4995V23.5005H16.9995ZM37.9995 9.50052C36.6188 9.50052 35.4995 10.6198 35.4995 12.0005V26.5005H37.9995C39.3799 26.5003 40.4993 25.3809 40.4995 24.0005V12.0005C40.4995 10.6199 39.3801 9.50074 37.9995 9.50052Z" fill="#FAFAFA"/>
<path d="M15.8335 4.51028C16.6567 4.41886 17.3981 5.01135 17.4898 5.8345C17.5811 6.65749 16.9885 7.39888 16.1656 7.49075C13.9496 7.73741 11.8828 8.73057 10.3062 10.3072C8.7296 11.8838 7.73644 13.9506 7.48978 16.1665C7.3979 16.9895 6.65652 17.5821 5.83353 17.4908C5.01037 17.3991 4.41788 16.6577 4.50931 15.8345C4.83133 12.9418 6.12699 10.2442 8.18509 8.18606C10.2432 6.12797 12.9408 4.83231 15.8335 4.51028Z" fill="#FAFAFA"/>
<path d="M15.9019 10.5044C16.7282 10.4511 17.4417 11.0767 17.4956 11.9029C17.5489 12.729 16.9232 13.4425 16.0972 13.4966C15.4206 13.5404 14.7825 13.829 14.3042 14.3072C13.8261 14.7853 13.5383 15.4211 13.4956 16.0943C13.4433 16.9205 12.7319 17.5481 11.9058 17.4966C11.0794 17.4444 10.4519 16.7331 10.5034 15.9068C10.592 14.5038 11.189 13.1802 12.1831 12.1861C13.177 11.1924 14.4992 10.5954 15.9019 10.5044Z" fill="#FAFAFA"/>
</svg>
