<svg width="32" height="32" viewBox="0 0 32 32" fill="none" xmlns="http://www.w3.org/2000/svg">
<path d="M8.41667 23.9137C9.11282 23.9142 9.7487 24.4716 9.7487 25.2471C9.7487 26.0226 9.1128 26.58 8.41667 26.5804C7.72057 26.58 7.08203 26.0226 7.08203 25.2471C7.08203 24.4716 7.72055 23.9142 8.41667 23.9137Z" fill="#FAFAFA"/>
<path d="M18.8333 24.2471C19.3855 24.2472 19.8333 24.6948 19.8333 25.2471C19.8333 25.7993 19.3855 26.247 18.8333 26.2471H17C16.4477 26.2471 16 25.7994 16 25.2471C16 24.6948 16.4477 24.2471 17 24.2471H18.8333Z" fill="#FAFAFA"/>
<path d="M23.8008 24.2471C24.3528 24.2474 24.8008 24.695 24.8008 25.2471C24.8008 25.7991 24.3528 26.2467 23.8008 26.2471H21.9674C21.4152 26.2471 20.9674 25.7994 20.9674 25.2471C20.9674 24.6948 21.4152 24.2471 21.9674 24.2471H23.8008Z" fill="#FAFAFA"/>
<path d="M8.41667 17.7484C9.11271 17.7488 9.7485 18.3064 9.7487 19.0817C9.7487 19.8572 9.1128 20.4146 8.41667 20.415C7.72057 20.4146 7.08203 19.8572 7.08203 19.0817C7.08223 18.3064 7.72066 17.7488 8.41667 17.7484Z" fill="#FAFAFA"/>
<path d="M18.8333 18.0817C19.3854 18.0818 19.8331 18.5296 19.8333 19.0817C19.8333 19.6339 19.3855 20.0816 18.8333 20.0817H17C16.4477 20.0817 16 19.634 16 19.0817C16.0002 18.5296 16.4478 18.0817 17 18.0817H18.8333Z" fill="#FAFAFA"/>
<path d="M23.8008 18.0817C24.3526 18.0821 24.8006 18.5298 24.8008 19.0817C24.8008 19.6338 24.3528 20.0813 23.8008 20.0817H21.9674C21.4152 20.0817 20.9674 19.634 20.9674 19.0817C20.9676 18.5296 21.4153 18.0817 21.9674 18.0817H23.8008Z" fill="#FAFAFA"/>
<path d="M8.41667 11.5843C9.11282 11.5847 9.7487 12.1422 9.7487 12.9176C9.74839 13.6928 9.11263 14.2505 8.41667 14.251C7.72074 14.2505 7.08234 13.6929 7.08203 12.9176C7.08203 12.1422 7.72055 11.5848 8.41667 11.5843Z" fill="#FAFAFA"/>
<path d="M18.8333 11.9176C19.3855 11.9177 19.8333 12.3654 19.8333 12.9176C19.833 13.4696 19.3853 13.9175 18.8333 13.9176H17C16.4479 13.9176 16.0003 13.4697 16 12.9176C16 12.3654 16.4477 11.9176 17 11.9176H18.8333Z" fill="#FAFAFA"/>
<path d="M23.8008 11.9176C24.3528 11.918 24.8008 12.3656 24.8008 12.9176C24.8005 13.4694 24.3526 13.9173 23.8008 13.9176H21.9674C21.4154 13.9176 20.9678 13.4697 20.9674 12.9176C20.9674 12.3654 21.4152 11.9176 21.9674 11.9176H23.8008Z" fill="#FAFAFA"/>
<path d="M8.41667 5.34863C9.1128 5.34907 9.74868 5.90651 9.7487 6.68197C9.7487 7.45746 9.1128 8.01486 8.41667 8.0153C7.72057 8.01486 7.08203 7.45748 7.08203 6.68197C7.08205 5.9065 7.72056 5.34908 8.41667 5.34863Z" fill="#FAFAFA"/>
<path d="M18.8333 5.75228C19.3855 5.75237 19.8333 6.20005 19.8333 6.75228C19.8332 7.30441 19.3855 7.75218 18.8333 7.75228H17C16.4478 7.75228 16.0001 7.30447 16 6.75228C16 6.19999 16.4477 5.75228 17 5.75228H18.8333Z" fill="#FAFAFA"/>
<path d="M23.8008 5.75228C24.3528 5.75264 24.8008 6.20022 24.8008 6.75228C24.8007 7.30425 24.3527 7.75192 23.8008 7.75228H21.9674C21.4152 7.75228 20.9676 7.30447 20.9674 6.75228C20.9674 6.19999 21.4152 5.75228 21.9674 5.75228H23.8008Z" fill="#FAFAFA"/>
<path fill-rule="evenodd" clip-rule="evenodd" d="M23.918 2.66895C26.1721 2.6692 27.9994 4.49693 28 6.75098C28 7.98308 27.4516 9.08555 26.5885 9.83431C27.4515 10.5827 27.9998 11.6844 28 12.9163C28 14.1482 27.4513 15.2496 26.5885 15.9984C27.4519 16.7468 27.9999 17.8495 28 19.0817C28 20.3136 27.4514 21.415 26.5885 22.1637C27.4518 22.9122 27.9999 24.0149 28 25.2471C27.9997 27.5014 26.1723 29.3302 23.918 29.3304H8.08203C5.82771 29.3302 4.00026 27.5014 4 25.2471C4.00014 24.0153 4.54736 22.9122 5.41016 22.1637C4.54775 21.415 4.00004 20.3133 4 19.0817C4.00014 17.8498 4.54726 16.7468 5.41016 15.9984C4.54783 15.2496 4 14.1479 4 12.9163C4.00021 11.6848 4.54758 10.5827 5.41016 9.83431C4.54756 9.08556 4 7.98273 4 6.75098C4.00058 4.49693 5.8279 2.6692 8.08203 2.66895H23.918ZM8.08203 23.165C6.93227 23.1653 6.00025 24.0973 6 25.2471C6.00026 26.3968 6.93228 27.3302 8.08203 27.3304H23.918C25.0677 27.3302 25.9997 26.3968 26 25.2471C25.9997 24.0973 25.0677 23.1653 23.918 23.165H8.08203ZM8.08203 16.9997C6.93227 16.9999 6.00025 17.9319 6 19.0817C6.00007 20.2316 6.93215 21.1648 8.08203 21.165H23.918C25.0678 21.1648 25.9999 20.2316 26 19.0817C25.9997 17.9319 25.0677 16.9999 23.918 16.9997H8.08203ZM8.08203 10.8343C6.93235 10.8346 6.00039 11.7667 6 12.9163C6 14.0663 6.93211 14.9994 8.08203 14.9997H23.918C25.0679 14.9994 26 14.0663 26 12.9163C25.9996 11.7667 25.0676 10.8346 23.918 10.8343H8.08203ZM8.08203 4.66895C6.93247 4.6692 6.00058 5.6015 6 6.75098C6 7.90095 6.93211 8.83406 8.08203 8.83431H23.918C25.0679 8.83406 26 7.90095 26 6.75098C25.9994 5.6015 25.0675 4.6692 23.918 4.66895H8.08203Z" fill="#FAFAFA"/>
</svg>
