<svg width="32" height="32" viewBox="0 0 32 32" fill="none" xmlns="http://www.w3.org/2000/svg">
<path fill-rule="evenodd" clip-rule="evenodd" d="M5.73625 10.5975C6.12678 10.9881 6.75994 10.9881 7.15047 10.5975L10.7767 6.9713V21.8904C10.7767 25.3882 13.6122 28.2238 17.11 28.2238H25.4434C25.9956 28.2238 26.4434 27.776 26.4434 27.2238C26.4434 26.6715 25.9956 26.2238 25.4434 26.2238H17.11C14.7168 26.2238 12.7767 24.2837 12.7767 21.8904V6.9713L16.4029 10.5975C16.7934 10.9881 17.4266 10.9881 17.8171 10.5975C18.2077 10.207 18.2077 9.57384 17.8171 9.18332L13.4266 4.79279C12.5154 3.88157 11.038 3.88157 10.1268 4.79279L5.73625 9.18332C5.34573 9.57384 5.34573 10.207 5.73625 10.5975Z" fill="#FAFAFA"/>
</svg>
