<svg width="32" height="32" viewBox="0 0 32 32" fill="none" xmlns="http://www.w3.org/2000/svg">
<path d="M2.66602 22.4606C2.66602 21.314 3.2522 20.325 4.0918 19.5374C4.92918 18.7519 6.08301 18.0993 7.41862 17.5869C7.93423 17.3891 8.51245 17.6468 8.71029 18.1624C8.90808 18.6781 8.65041 19.2563 8.13477 19.4541C6.94758 19.9095 6.04621 20.4449 5.45898 20.9957C4.8741 21.5445 4.66602 22.0418 4.66602 22.4606C4.66611 22.8521 4.84733 23.3084 5.34701 23.8148C5.85124 24.3257 6.63069 24.8318 7.67253 25.2783C9.75264 26.1698 12.6958 26.7457 15.9993 26.7457C19.3029 26.7457 22.2461 26.1698 24.3262 25.2783C25.368 24.8318 26.1475 24.3257 26.6517 23.8148C27.1514 23.3084 27.3326 22.8521 27.3327 22.4606C27.3327 22.0101 27.0899 21.465 26.3978 20.8681C25.9795 20.5075 25.9329 19.8762 26.2936 19.458C26.6543 19.0399 27.2856 18.9932 27.7038 19.3538C28.6528 20.1723 29.3327 21.2233 29.3327 22.4606C29.3326 23.5284 28.823 24.4617 28.0749 25.2197C27.3309 25.9735 26.304 26.6068 25.1139 27.1168C22.7303 28.1384 19.5072 28.7457 15.9993 28.7457C12.4915 28.7457 9.26841 28.1384 6.88477 27.1168C5.69471 26.6068 4.66779 25.9735 3.92383 25.2197C3.17573 24.4617 2.66611 23.5284 2.66602 22.4606Z" fill="#FAFAFA"/>
<path d="M15.2384 3.60545C15.5965 3.18541 16.2269 3.13446 16.6472 3.49217C17.0675 3.85029 17.1185 4.48195 16.7605 4.90232C14.7298 7.28562 14.7298 11.2065 16.7605 13.5898C19.4278 16.7206 19.4281 21.7404 16.7605 24.8711C16.4023 25.2914 15.7707 25.3412 15.3504 24.9831C14.9302 24.6249 14.8803 23.9945 15.2384 23.5742C17.269 21.191 17.2688 17.27 15.2384 14.8867C12.5707 11.7559 12.5707 6.73623 15.2384 3.60545Z" fill="#FAFAFA"/>
<path d="M8.87129 5.8582C9.28232 5.48946 9.91521 5.52405 10.2841 5.93503C10.6528 6.34606 10.6182 6.97895 10.2072 7.34779C8.30118 9.05876 8.30102 11.7827 10.2072 13.4936C12.9992 15.9993 12.9992 20.1116 10.2072 22.6173C9.79624 22.986 9.16461 22.9513 8.79577 22.5405C8.42699 22.1296 8.46059 21.498 8.87129 21.129C10.7777 19.4181 10.7777 16.6929 8.87129 14.9819C6.07957 12.4762 6.0794 8.36385 8.87129 5.8582Z" fill="#FAFAFA"/>
<path d="M21.7916 5.8582C22.2027 5.48946 22.8356 5.52405 23.2044 5.93503C23.5731 6.34606 23.5385 6.97895 23.1276 7.34779C21.2215 9.05876 21.2214 11.7827 23.1276 13.4936C25.9195 15.9993 25.9196 20.1116 23.1276 22.6173C22.7166 22.986 22.0849 22.9513 21.7161 22.5405C21.3473 22.1296 21.3809 21.498 21.7916 21.129C23.698 19.4181 23.6981 16.6929 21.7916 14.9819C18.9999 12.4762 18.9997 8.36385 21.7916 5.8582Z" fill="#FAFAFA"/>
</svg>
