<svg width="32" height="32" viewBox="0 0 32 32" fill="none" xmlns="http://www.w3.org/2000/svg">
<path d="M13.8066 17.3548C14.6689 16.4132 16.1043 16.2244 17.1882 16.946L17.7572 17.3249C18.2107 17.6274 18.3327 18.2409 18.0306 18.6947C17.728 19.1479 17.1157 19.2702 16.6621 18.9681L16.0931 18.5905C15.8445 18.4253 15.5209 18.454 15.3066 18.6465L15.2207 18.7389C14.3867 19.8509 12.8291 20.1181 11.6725 19.347L11.1061 18.9681L11.0254 18.9095C10.639 18.5912 10.5478 18.0238 10.8314 17.5983C11.1149 17.1735 11.6718 17.0395 12.1139 17.2728L12.2012 17.3249L12.7702 17.7038C13.0542 17.8927 13.4363 17.8279 13.6413 17.5553L13.8066 17.3548Z" fill="#FAFAFA"/>
<path d="M13.8066 13.1829C14.669 12.2409 16.1041 12.0521 17.1882 12.7741L17.7572 13.1517C18.2109 13.4542 18.3328 14.0677 18.0306 14.5215C17.728 14.975 17.1158 15.0972 16.6621 14.7949L16.0931 14.4173C15.8446 14.2522 15.5209 14.2809 15.3066 14.4733L15.2207 14.5658C14.3867 15.6778 12.8292 15.9463 11.6725 15.1751L11.1061 14.7949C10.6526 14.4922 10.5289 13.8788 10.8314 13.4251C11.1339 12.972 11.7476 12.8499 12.2012 13.1517L12.7702 13.5306C13.0543 13.7196 13.4363 13.6549 13.6413 13.3822L13.8066 13.1829Z" fill="#FAFAFA"/>
<path fill-rule="evenodd" clip-rule="evenodd" d="M18.1543 3.62695C18.7063 3.6273 19.1543 4.07619 19.1543 4.62826C19.1539 5.18002 18.7061 5.6279 18.1543 5.62826H15.3053V8.76237H20.9395C22.4547 8.76237 23.6829 9.99066 23.6829 11.5059V12.7827H27.3327C27.8849 12.7827 28.3326 13.2305 28.3327 13.7827V18.5285C28.3321 19.0803 27.8846 19.5285 27.3327 19.5285H23.6829V20.8053C23.6825 22.3202 22.4544 23.5488 20.9395 23.5488H18.2233V26.2181C18.2233 26.2713 18.2183 26.3234 18.2103 26.3743H25.9993C26.5516 26.3743 26.9993 26.8221 26.9993 27.3743C26.999 27.9263 26.5514 28.3743 25.9993 28.3743H4.66602C4.11395 28.3743 3.66637 27.9263 3.66602 27.3743C3.66602 26.8221 4.11373 26.3743 4.66602 26.3743H10.8001C10.7921 26.3234 10.7884 26.2713 10.7884 26.2181V23.5488H9.31576C6.1958 23.5488 3.66637 21.019 3.66602 17.8991V14.4121C3.66602 11.2919 6.19558 8.76237 9.31576 8.76237H13.3053V5.62826H10.4551C9.90301 5.62826 9.45543 5.18024 9.45508 4.62826C9.45508 4.07597 9.90279 3.62695 10.4551 3.62695H18.1543ZM12.7884 26.2181C12.7884 26.2713 12.7834 26.3234 12.7754 26.3743H16.2363C16.2283 26.3234 16.2233 26.2713 16.2233 26.2181V23.5488H12.7884V26.2181ZM9.31576 10.7624C7.30015 10.7624 5.66602 12.3965 5.66602 14.4121V17.8991C5.66637 19.9144 7.30037 21.5488 9.31576 21.5488H20.9395C21.3498 21.5488 21.6825 21.2156 21.6829 20.8053V18.5285C21.6829 17.9763 22.1307 17.5286 22.6829 17.5285H26.3327V14.7827H22.6829C22.131 14.7826 21.6833 14.3346 21.6829 13.7827V11.5059C21.6829 11.0952 21.3501 10.7624 20.9395 10.7624H9.31576Z" fill="#FAFAFA"/>
</svg>
