<svg width="32" height="32" viewBox="0 0 32 32" fill="none" xmlns="http://www.w3.org/2000/svg">
<path d="M9.33398 25.6666C9.88627 25.6666 10.334 26.1143 10.334 26.6666V27.9999C10.3339 28.5522 9.88624 28.9999 9.33398 28.9999C8.78172 28.9999 8.33403 28.5522 8.33398 27.9999V26.6666C8.33398 26.1143 8.7817 25.6666 9.33398 25.6666Z" fill="#FAFAFA"/>
<path d="M13.334 25.6666C13.8863 25.6666 14.334 26.1143 14.334 26.6666V27.9999C14.3339 28.5522 13.8862 28.9999 13.334 28.9999C12.7817 28.9999 12.334 28.5522 12.334 27.9999V26.6666C12.334 26.1143 12.7817 25.6666 13.334 25.6666Z" fill="#FAFAFA"/>
<path d="M17.334 25.6666C17.8863 25.6666 18.334 26.1143 18.334 26.6666V27.9999C18.3339 28.5522 17.8862 28.9999 17.334 28.9999C16.7817 28.9999 16.334 28.5522 16.334 27.9999V26.6666C16.334 26.1143 16.7817 25.6666 17.334 25.6666Z" fill="#FAFAFA"/>
<path d="M21.334 25.6666C21.8863 25.6666 22.334 26.1143 22.334 26.6666V27.9999C22.3339 28.5522 21.8862 28.9999 21.334 28.9999C20.7817 28.9999 20.334 28.5522 20.334 27.9999V26.6666C20.334 26.1143 20.7817 25.6666 21.334 25.6666Z" fill="#FAFAFA"/>
<path fill-rule="evenodd" clip-rule="evenodd" d="M25.2936 3.29289C25.6841 2.90237 26.3172 2.90237 26.7077 3.29289L29.3743 5.95956C29.7648 6.35009 29.7649 6.98311 29.3743 7.37362L26.7077 10.0403C26.3172 10.4308 25.6841 10.4308 25.2936 10.0403C24.9031 9.64978 24.9031 9.01675 25.2936 8.62623L26.2533 7.66659H24.9342C24.0138 7.66659 23.2676 8.41278 23.2676 9.33326V10.9999H24.6673C26.6924 10.9999 28.334 12.6415 28.334 14.6666V20.1327C28.3339 22.1577 26.6923 23.7994 24.6673 23.7994H6.00065C3.97563 23.7994 2.33403 22.1577 2.33398 20.1327V14.6666C2.33398 12.6415 3.97561 10.9999 6.00065 10.9999H7.26758V6.66659C7.26758 6.11431 7.71529 5.66659 8.26758 5.66659C8.81986 5.66659 9.26758 6.11431 9.26758 6.66659V10.9999H11.9342V8.99992C11.9342 7.15898 13.4266 5.66659 15.2676 5.66659C17.1085 5.66659 18.6009 7.15898 18.6009 8.99992V10.9999H21.2676V9.33326C21.2676 7.30821 22.9092 5.66659 24.9342 5.66659H26.2533L25.2936 4.70696C24.9031 4.31644 24.9031 3.68342 25.2936 3.29289ZM6.00065 12.9999C5.08018 12.9999 4.33398 13.7461 4.33398 14.6666V20.1327C4.33403 21.0532 5.0802 21.7994 6.00065 21.7994H24.6673C25.5878 21.7994 26.3339 21.0532 26.334 20.1327V14.6666C26.334 13.7461 25.5878 12.9999 24.6673 12.9999H23.2676V14.9999C23.2675 16.8408 21.7752 18.3333 19.9342 18.3333C18.0933 18.3333 16.601 16.8408 16.6009 14.9999V12.9999H13.9342V14.9999C13.9342 16.8408 12.4418 18.3333 10.6009 18.3333C8.75999 18.3333 7.26762 16.8408 7.26758 14.9999V12.9999H6.00065ZM9.26758 14.9999C9.26762 15.7363 9.86456 16.3333 10.6009 16.3333C11.3373 16.3333 11.9342 15.7363 11.9342 14.9999V12.9999H9.26758V14.9999ZM18.6009 14.9999C18.601 15.7363 19.1979 16.3333 19.9342 16.3333C20.6706 16.3333 21.2675 15.7363 21.2676 14.9999V12.9999H18.6009V14.9999ZM15.2676 7.66659C14.5312 7.66659 13.9342 8.26355 13.9342 8.99992V10.9999H16.6009V8.99992C16.6009 8.26355 16.004 7.66659 15.2676 7.66659Z" fill="#FAFAFA"/>
</svg>
