<svg width="32" height="32" viewBox="0 0 32 32" fill="none" xmlns="http://www.w3.org/2000/svg">
<path d="M11.3685 18.3903C11.9208 18.3903 12.3685 18.838 12.3685 19.3903C12.3685 19.9426 11.9208 20.3903 11.3685 20.3903H10.3841V21.8721C10.3841 22.4244 9.9364 22.8721 9.38411 22.8721C8.83183 22.8721 8.38411 22.4244 8.38411 21.8721V20.3903H7.39974C6.84745 20.3903 6.39974 19.9426 6.39974 19.3903C6.39974 18.838 6.84745 18.3903 7.39974 18.3903H11.3685Z" fill="#FAFAFA"/>
<path d="M19.8437 14.2432C20.3097 14.2432 20.7564 14.428 21.0859 14.7575C21.4155 15.087 21.6015 15.5337 21.6016 15.9997C21.6016 16.4658 21.4155 16.9136 21.0859 17.2432C20.7564 17.5725 20.3096 17.7574 19.8437 17.7575C19.3776 17.7575 18.9299 17.5728 18.6003 17.2432C18.2707 16.9136 18.0859 16.4658 18.0859 15.9997C18.086 15.5338 18.2709 15.087 18.6003 14.7575C18.9299 14.4279 19.3776 14.2432 19.8437 14.2432Z" fill="#FAFAFA"/>
<path fill-rule="evenodd" clip-rule="evenodd" d="M20.3542 9.21582C20.6843 9.2419 21.0031 9.35518 21.2773 9.54395C21.5911 9.75997 21.833 10.0655 21.9701 10.4202L22.2227 11.0778L22.9154 11.4762L23.6367 11.3656C24.0074 11.3154 24.3852 11.377 24.7214 11.5413C25.0583 11.7064 25.3397 11.9684 25.5273 12.2926L25.5299 12.2979L25.8867 12.9215C26.0759 13.2483 26.1635 13.6245 26.1367 14.0023C26.1099 14.3806 25.9677 14.7417 25.7318 15.04L25.7331 15.0413L25.2969 15.596V16.3942L25.7435 16.9489L25.7461 16.9528C25.9843 17.2516 26.1267 17.6167 26.1536 17.9984L26.1589 18.1416C26.1572 18.4739 26.0677 18.8013 25.8984 19.0895L25.8971 19.0882L25.5482 19.7028L25.5456 19.708C25.3578 20.0325 25.0774 20.2945 24.7409 20.4593C24.4039 20.6246 24.0258 20.6839 23.6549 20.6338L23.638 20.6325L22.9336 20.5231L22.2422 20.9202L21.987 21.5804C21.8499 21.9352 21.608 22.2395 21.2943 22.4554C20.9809 22.6711 20.6099 22.7888 20.2292 22.79H19.4753C19.142 22.7891 18.815 22.7002 18.5286 22.5335L18.4089 22.4567C18.0955 22.2411 17.8534 21.9359 17.7161 21.5804L17.4622 20.9215L16.7695 20.5231L16.0651 20.6312L16.0495 20.6338C15.6787 20.6841 15.3006 20.6231 14.9635 20.458C14.6265 20.2931 14.3466 20.0322 14.1589 19.708L14.1562 19.7028L13.8047 19.0895C13.6113 18.7601 13.5225 18.3793 13.5495 17.9984L13.5651 17.8564C13.6136 17.5273 13.7486 17.2158 13.957 16.9541L14.3893 16.4033V15.6051L13.9427 15.0518L13.9388 15.0465C13.7009 14.7477 13.5596 14.3835 13.5326 14.0023C13.5055 13.6209 13.5939 13.2396 13.7878 12.9098L14.138 12.2979L14.1406 12.2926C14.3284 11.9684 14.6089 11.7076 14.9453 11.5426L15.0742 11.4854C15.3336 11.3814 15.6131 11.3356 15.8919 11.3525L16.0312 11.3669L16.0482 11.3682L16.7552 11.4762L17.4622 11.0752L17.7161 10.4202C17.8533 10.065 18.0953 9.75976 18.4089 9.54395L18.5286 9.46712C18.8151 9.30031 19.1421 9.2116 19.4753 9.21061H20.2109L20.3542 9.21582ZM19.1992 12.1312C19.116 12.3458 18.9605 12.5252 18.7604 12.639L17.4414 13.3877C17.2463 13.4983 17.0186 13.5399 16.7969 13.5062L15.8346 13.359L15.5495 13.8577L16.168 14.6247C16.3111 14.8024 16.3893 15.0241 16.3893 15.2523V16.7484C16.3893 16.9722 16.3139 17.1895 16.1758 17.3656L15.5664 18.1403L15.8516 18.6403L16.8151 18.4945C17.0389 18.4605 17.2686 18.504 17.4648 18.6169L18.7656 19.3643L18.9049 19.4619C19.0351 19.57 19.1374 19.7099 19.1992 19.8695L19.5547 20.79H20.1497L20.5052 19.8695L20.5794 19.7171C20.6666 19.5717 20.7902 19.4497 20.9388 19.3643L22.2396 18.6169L22.3919 18.5452C22.5495 18.4872 22.7202 18.469 22.888 18.4945L23.8503 18.6403L24.1354 18.1416L23.5182 17.376C23.3749 17.1982 23.2969 16.9767 23.2969 16.7484V15.2523C23.2969 15.0284 23.3722 14.8112 23.5104 14.6351L24.1172 13.8577L23.832 13.359L22.8711 13.5062C22.6472 13.5403 22.4177 13.4967 22.2214 13.3838L20.9206 12.6364C20.7227 12.5225 20.5696 12.344 20.487 12.1312L20.1315 11.2106H19.5547L19.1992 12.1312Z" fill="#FAFAFA"/>
<path d="M9.32161 9.96322C9.8739 9.96322 10.3216 10.4122 10.3216 10.9645V16.2327C10.3209 16.7844 9.87346 17.2314 9.32161 17.2314C8.76955 17.2314 8.32197 16.7834 8.32161 16.2314V10.9632C8.32197 10.4112 8.76955 9.96322 9.32161 9.96322Z" fill="#FAFAFA"/>
<path fill-rule="evenodd" clip-rule="evenodd" d="M26.668 5.33301C28.1407 5.33301 29.3346 6.52692 29.3346 7.99967V23.9997C29.3346 25.4724 28.1407 26.6663 26.668 26.6663H5.33464L5.0625 26.652C3.7176 26.5157 2.66797 25.3805 2.66797 23.9997V7.99967C2.66797 6.52692 3.86188 5.33301 5.33464 5.33301H26.668ZM5.33464 7.33301C4.96645 7.33301 4.66797 7.63148 4.66797 7.99967V23.9997C4.66797 24.3679 4.96645 24.6663 5.33464 24.6663H26.668C27.0362 24.6663 27.3346 24.3679 27.3346 23.9997V7.99967C27.3346 7.63149 27.0362 7.33301 26.668 7.33301H5.33464Z" fill="#FAFAFA"/>
</svg>
