<svg width="32" height="32" viewBox="0 0 32 32" fill="none" xmlns="http://www.w3.org/2000/svg">
<path fill-rule="evenodd" clip-rule="evenodd" d="M13.6504 8.39551C17.6743 8.59918 20.8743 11.9264 20.8743 16.001L20.8639 16.3916C20.6599 20.415 17.3338 23.6152 13.2598 23.6156L12.8678 23.6051C8.97387 23.4079 5.85171 20.2855 5.6543 16.3916L5.64388 16.001C5.64388 11.7953 9.05415 8.38528 13.2598 8.38509L13.6504 8.39551ZM11.2363 21.238C11.8643 21.4808 12.5462 21.6155 13.2598 21.6156C14.1855 21.6155 15.0577 21.3888 15.8275 20.9919L13.4069 17.7653L11.2363 21.238ZM7.73503 16.9997C7.96217 18.2624 8.61036 19.378 9.5306 20.1963L11.5293 16.9997H7.73503ZM17.4147 19.7757C18.1084 19.0125 18.593 18.0575 18.7832 16.9997H15.3327L17.4147 19.7757ZM9.18555 12.1364C8.4483 12.9133 7.93288 13.9012 7.73503 14.9997H11.3327L9.18555 12.1364ZM15.1361 14.9997H18.7832C18.5636 13.7799 17.9511 12.6974 17.0801 11.8877L15.1361 14.9997ZM13.2598 10.3851C12.3764 10.3851 11.5399 10.5879 10.7962 10.9515L13.2572 14.2327L15.3978 10.807C14.7388 10.5352 14.0168 10.3852 13.2598 10.3851Z" fill="#FAFAFA"/>
<path d="M25.1934 17.3226C25.7456 17.3226 26.1934 17.7703 26.1934 18.3226V21.7966L26.1882 21.8981C26.137 22.4024 25.7112 22.7966 25.1934 22.7966C24.6757 22.7963 24.2497 22.4023 24.1986 21.8981L24.1934 21.7966V18.3226C24.1934 17.7705 24.6413 17.3228 25.1934 17.3226Z" fill="#FAFAFA"/>
<path fill-rule="evenodd" clip-rule="evenodd" d="M26.666 5.33301C28.1388 5.33301 29.3327 6.52692 29.3327 7.99967V23.9997C29.3327 25.4724 28.1388 26.6663 26.666 26.6663H5.33268L5.06055 26.652C3.71565 26.5157 2.66602 25.3805 2.66602 23.9997V7.99967C2.66602 6.52692 3.85992 5.33301 5.33268 5.33301H26.666ZM5.33268 7.33301C4.96449 7.33301 4.66602 7.63148 4.66602 7.99967V23.9997C4.66602 24.3679 4.96449 24.6663 5.33268 24.6663H26.666C27.0342 24.6663 27.3327 24.3679 27.3327 23.9997V7.99967C27.3327 7.63149 27.0342 7.33301 26.666 7.33301H5.33268Z" fill="#FAFAFA"/>
</svg>
