<svg width="32" height="32" viewBox="0 0 32 32" fill="none" xmlns="http://www.w3.org/2000/svg">
<path d="M11.7331 14.4661C12.5795 14.4661 13.2651 15.1526 13.2656 15.9987C13.2656 16.8455 12.5796 17.5326 11.7331 17.5326C10.8868 17.5323 10.2005 16.8454 10.2005 15.9987C10.2011 15.1528 10.8869 14.4664 11.7331 14.4661Z" fill="#FAFAFA"/>
<path d="M16 14.4661C16.8463 14.4661 17.532 15.1525 17.5326 15.9987C17.5326 16.8456 16.8464 17.5326 16 17.5326L15.9987 17.5312C15.1525 17.5309 14.4661 16.8455 14.4661 15.9987C14.4667 15.1527 15.1539 14.4665 16 14.4661Z" fill="#FAFAFA"/>
<path d="M20.2669 14.4661C21.1133 14.4661 21.7989 15.1525 21.7995 15.9987C21.7995 16.8456 21.1134 17.5326 20.2669 17.5326L20.2656 17.5312C19.4195 17.5309 18.7331 16.8455 18.7331 15.9987C18.7336 15.1527 19.4209 14.4665 20.2669 14.4661Z" fill="#FAFAFA"/>
<path fill-rule="evenodd" clip-rule="evenodd" d="M22.3997 10.7331C24.1299 10.7332 25.5321 12.1359 25.5326 13.8659V18.1328C25.5326 19.8633 24.1301 21.2668 22.3997 21.2669H9.59896C7.86871 21.2666 6.46615 19.8632 6.46615 18.1328V13.8659C6.4666 12.136 7.86899 10.7334 9.59896 10.7331H22.3997ZM9.59896 12.7331C8.97356 12.7334 8.4666 13.2405 8.46615 13.8659V18.1328C8.46615 18.7586 8.97326 19.2666 9.59896 19.2669H22.3997C23.0256 19.2668 23.5326 18.7587 23.5326 18.1328V13.8659C23.5321 13.2404 23.0253 12.7332 22.3997 12.7331H9.59896Z" fill="#FAFAFA"/>
<path fill-rule="evenodd" clip-rule="evenodd" d="M24.7995 3C27.1191 3 29 4.88094 29 7.20052V24.7995C29 27.1191 27.1191 29 24.7995 29H7.20052C4.88094 29 3 27.1191 3 24.7995V7.20052C3 4.88093 4.88093 3 7.20052 3H24.7995ZM7.20052 5C5.9855 5 5 5.9855 5 7.20052V24.7995C5 26.0145 5.98549 27 7.20052 27H24.7995C26.0146 27 27 26.0146 27 24.7995V7.20052C27 5.98549 26.0145 5 24.7995 5H7.20052Z" fill="#FAFAFA"/>
</svg>
