<svg width="32" height="32" viewBox="0 0 32 32" fill="none" xmlns="http://www.w3.org/2000/svg">
<path d="M24.125 16.9062C24.125 16.4504 23.9434 16.0137 23.6211 15.6914C23.2988 15.3691 22.8621 15.1875 22.4062 15.1875H9.71875C9.26291 15.1875 8.82623 15.3691 8.50391 15.6914C8.18158 16.0137 8 16.4504 8 16.9062V25.0625L8.00781 25.2318C8.04675 25.6255 8.22171 25.9951 8.50391 26.2773C8.82623 26.5997 9.26291 26.7812 9.71875 26.7812H22.4062C22.8621 26.7812 23.2988 26.5997 23.6211 26.2773C23.9434 25.955 24.125 25.5183 24.125 25.0625V16.9062ZM20.4948 9.4375C20.4697 8.92963 20.3577 8.42913 20.1628 7.95833C19.9398 7.41995 19.6126 6.93029 19.2005 6.51823C18.7885 6.10617 18.2988 5.77899 17.7604 5.55599C17.2896 5.36103 16.7891 5.24902 16.2812 5.22396L16.0625 5.21875C15.4799 5.21875 14.9029 5.33309 14.3646 5.55599C13.8262 5.77899 13.3365 6.10617 12.9245 6.51823C12.5124 6.93029 12.1852 7.41995 11.9622 7.95833C11.7393 8.4966 11.625 9.07365 11.625 9.65625V13.1875H20.5V9.65625L20.4948 9.4375ZM22.5 13.1914C23.4523 13.2154 24.3599 13.6021 25.0352 14.2773C25.7326 14.9747 26.125 15.92 26.125 16.9062V25.0625C26.125 26.0488 25.7326 26.994 25.0352 27.6914C24.3378 28.3888 23.3925 28.7812 22.4062 28.7812H9.71875C8.73248 28.7812 7.78725 28.3888 7.08984 27.6914C6.47953 27.0811 6.10269 26.2811 6.01823 25.4297L6 25.0625V16.9062C6 15.92 6.39244 14.9747 7.08984 14.2773C7.7651 13.6021 8.67273 13.2154 9.625 13.1914V9.65625C9.625 8.81092 9.79111 7.9737 10.1146 7.19271C10.4381 6.41168 10.9126 5.70194 11.5104 5.10417C12.1082 4.50639 12.8179 4.03185 13.599 3.70833C14.38 3.38486 15.2172 3.21875 16.0625 3.21875L16.3789 3.22656C17.1161 3.26284 17.8426 3.42528 18.526 3.70833C19.3071 4.03185 20.0168 4.50639 20.6146 5.10417C21.2124 5.70194 21.6869 6.41167 22.0104 7.19271C22.3339 7.9737 22.5 8.81092 22.5 9.65625V13.1914Z" fill="#FAFAFA"/>
</svg>
