<svg width="32" height="32" viewBox="0 0 32 32" fill="none" xmlns="http://www.w3.org/2000/svg">
<path d="M22.5429 22.0401C22.1524 22.4306 21.5194 22.4306 21.1288 22.0401L15.7955 16.7068C15.405 16.3163 15.405 15.6832 15.7955 15.2927L21.1288 9.95939C21.5194 9.56886 22.1524 9.56886 22.5429 9.95939C22.9334 10.3499 22.9334 10.9829 22.5429 11.3734L17.9166 15.9998L22.5429 20.6261C22.9334 21.0166 22.9334 21.6496 22.5429 22.0401Z" fill="#FAFAFA"/>
<path d="M16.2044 22.0401C15.8138 22.4306 15.1808 22.4306 14.7903 22.0401L9.45696 16.7068C9.06643 16.3163 9.06643 15.6832 9.45696 15.2927L14.7903 9.95939C15.1808 9.56886 15.8138 9.56886 16.2044 9.95939C16.5949 10.3499 16.5949 10.9829 16.2044 11.3734L11.578 15.9998L16.2044 20.6261C16.5949 21.0166 16.5949 21.6496 16.2044 22.0401Z" fill="#FAFAFA"/>
</svg>
