<svg width="32" height="32" viewBox="0 0 32 32" fill="none" xmlns="http://www.w3.org/2000/svg">
<path d="M13.2806 20.8493C13.5775 20.8493 13.8306 20.9585 14.0397 21.1774C14.2487 21.3963 14.3535 21.6564 14.3535 21.9574C14.3535 22.2642 14.2482 22.5264 14.0384 22.7425C13.8287 22.9583 13.5735 23.0667 13.2741 23.0667C12.9814 23.0666 12.7301 22.9581 12.5202 22.7425C12.3102 22.5267 12.2051 22.2643 12.2051 21.9561C12.2051 21.6548 12.3102 21.3945 12.5202 21.1761C12.7301 20.9579 12.9838 20.8493 13.2806 20.8493Z" fill="#FAFAFA"/>
<path d="M18.8171 20.8493C19.1168 20.8494 19.3706 20.9587 19.5788 21.1774C19.787 21.3963 19.8912 21.6564 19.8913 21.9574C19.8913 22.2642 19.7872 22.5264 19.5775 22.7425C19.3678 22.9585 19.1126 23.0666 18.8132 23.0667C18.5136 23.0667 18.259 22.9587 18.0501 22.7438C17.8412 22.5287 17.7363 22.2681 17.7363 21.9626C17.7363 21.6571 17.8414 21.3945 18.0514 21.1761C18.2614 20.9579 18.5171 20.8493 18.8171 20.8493Z" fill="#FAFAFA"/>
<path d="M16.0697 18.2907C16.3665 18.2908 16.6193 18.401 16.8275 18.6201C17.0356 18.8393 17.14 19.1001 17.14 19.4014C17.1399 19.7026 17.0345 19.963 16.8249 20.1813C16.6152 20.3995 16.36 20.5081 16.0605 20.5081C15.7678 20.508 15.5149 20.3991 15.3027 20.18C15.0905 19.9608 14.9851 19.7 14.985 19.3988C14.985 19.0974 15.091 18.8372 15.304 18.6188C15.5171 18.4004 15.7727 18.2907 16.0697 18.2907Z" fill="#FAFAFA"/>
<path d="M13.2324 15.7334C13.5294 15.7334 13.7825 15.8415 13.9915 16.0576C14.2005 16.2735 14.3052 16.5357 14.3053 16.8441C14.3053 17.1528 14.2 17.4134 13.9902 17.6253C13.7805 17.8373 13.5256 17.943 13.2259 17.943C12.9332 17.9429 12.6819 17.8365 12.472 17.624C12.2622 17.4115 12.157 17.15 12.1569 16.8389C12.1569 16.5343 12.262 16.2737 12.472 16.0576C12.682 15.8416 12.9355 15.7334 13.2324 15.7334Z" fill="#FAFAFA"/>
<path d="M18.877 15.7334C19.177 15.7334 19.4317 15.8416 19.64 16.0576C19.8479 16.2735 19.951 16.5358 19.9512 16.8441C19.9512 17.1526 19.8471 17.4135 19.6374 17.6253C19.4274 17.8372 19.1717 17.943 18.8717 17.943C18.5717 17.943 18.317 17.8367 18.1087 17.624C17.9009 17.4116 17.7963 17.1499 17.7962 16.8389C17.7962 16.5345 17.9015 16.2736 18.1113 16.0576C18.3214 15.8415 18.5769 15.7334 18.877 15.7334Z" fill="#FAFAFA"/>
<path fill-rule="evenodd" clip-rule="evenodd" d="M22.9993 10.3337C23.5516 10.3337 23.9993 10.7814 23.9993 11.3337V12.8063C27.0422 13.4235 29.3327 16.1126 29.3327 19.3376C29.3327 22.5632 27.2079 25.1601 23.9993 25.8662V27.2008C23.9993 27.7531 23.5516 28.2008 22.9993 28.2008C22.4471 28.2008 21.9993 27.7531 21.9993 27.2008V26.0016C21.9715 26.001 21.9564 26.0029 21.9564 26.0029H10.0423L10.0397 26.0016V27.2008C10.0397 27.7529 9.5917 28.2005 9.03971 28.2008C8.48743 28.2008 8.03971 27.7531 8.03971 27.2008V25.8753C4.80856 25.1823 2.66602 22.5767 2.66602 19.3376C2.66602 16.0984 4.9768 13.4 8.03971 12.7985V11.3337C8.03971 10.7814 8.48743 10.3337 9.03971 10.3337C9.5917 10.334 10.0397 10.7816 10.0397 11.3337V12.6722H21.9993V11.3337C21.9993 10.7814 22.4471 10.3337 22.9993 10.3337ZM10.0397 24.0029H21.9993V14.6722H10.0397V24.0029ZM8.03971 14.8545C6.09157 15.4148 4.66602 17.2092 4.66602 19.3376C4.66602 21.4658 6.09174 23.2589 8.03971 23.8193V14.8545ZM23.9993 23.8076C25.9266 23.2342 27.3327 21.4511 27.3327 19.3376C27.3327 17.2239 25.9268 15.4395 23.9993 14.8662V23.8076Z" fill="#FAFAFA"/>
<path d="M20.5853 4.66699C21.1375 4.66704 21.5853 5.11474 21.5853 5.66699C21.5853 6.21925 21.1375 6.66694 20.5853 6.66699H17.1257V9.72428C17.1255 10.2764 16.6777 10.7242 16.1257 10.7243C15.5734 10.7243 15.1258 10.2765 15.1257 9.72428V6.66699H11.666L11.5632 6.66178C11.059 6.61045 10.666 6.18467 10.666 5.66699C10.666 5.14932 11.059 4.72353 11.5632 4.6722L11.666 4.66699H20.5853Z" fill="#FAFAFA"/>
</svg>
