<svg width="32" height="32" viewBox="0 0 32 32" fill="none" xmlns="http://www.w3.org/2000/svg">
<path d="M11.2572 20.6928C11.8091 20.6931 12.2572 21.1407 12.2572 21.6928V23.5899C12.2569 24.1418 11.809 24.5896 11.2572 24.5899C10.705 24.5899 10.2574 24.142 10.2572 23.5899V21.6928C10.2572 21.1405 10.7049 20.6928 11.2572 20.6928Z" fill="#FAFAFA"/>
<path d="M20.7441 20.6928C21.2961 20.6931 21.7441 21.1407 21.7441 21.6928V23.5899C21.7439 24.1418 21.296 24.5896 20.7441 24.5899C20.192 24.5899 19.7444 24.142 19.7441 23.5899V21.6928C19.7441 21.1405 20.1919 20.6928 20.7441 20.6928Z" fill="#FAFAFA"/>
<path fill-rule="evenodd" clip-rule="evenodd" d="M24.5384 2.66675C26.1386 2.66675 27.4367 3.96382 27.4368 5.56388V26.4363C27.4367 28.0364 26.1386 29.3334 24.5384 29.3334H7.46159C5.86164 29.3333 4.56462 28.0363 4.56445 26.4363V5.56388C4.56462 3.96391 5.86163 2.66691 7.46159 2.66675H24.5384ZM6.56445 26.4363C6.56462 26.9317 6.96618 27.3333 7.46159 27.3334H15.0007V17.9493H6.56445V26.4363ZM17.0007 27.3334H24.5384C25.034 27.3334 25.4367 26.9318 25.4368 26.4363V17.9493H17.0007V27.3334ZM6.56445 15.9493H25.4368V11.3074H6.56445V15.9493ZM7.46159 4.66675C6.96619 4.66691 6.56462 5.06848 6.56445 5.56388V9.30737H25.4368V5.56388C25.4367 5.06837 25.034 4.66675 24.5384 4.66675H7.46159Z" fill="#FAFAFA"/>
</svg>
