<svg width="32" height="32" viewBox="0 0 32 32" fill="none" xmlns="http://www.w3.org/2000/svg">
<path fill-rule="evenodd" clip-rule="evenodd" d="M15.926 3C16.8277 3 17.6934 3.35855 18.331 3.99609C18.9683 4.63362 19.3257 5.49828 19.3258 6.39974C19.3258 7.30148 18.9686 8.16706 18.331 8.80469C17.9352 9.20038 17.4515 9.48712 16.926 9.64844V12.6003H19.926C20.4783 12.6003 20.926 13.048 20.926 13.6003C20.9259 14.1524 20.4782 14.6003 19.926 14.6003H16.926V24.5482C18.4435 24.3977 19.9133 23.9124 21.2255 23.1198C22.5855 22.2981 23.7311 21.173 24.5797 19.8385L23.5862 20.3542C23.0961 20.6082 22.4928 20.417 22.2385 19.9271C21.9846 19.4369 22.1755 18.8323 22.6656 18.5781L24.7229 17.5117L24.8323 17.4635C24.9442 17.4215 25.0636 17.3998 25.1838 17.3997C25.418 17.3998 25.6494 17.4458 25.8648 17.5339L26.0745 17.6354L26.2698 17.7643C26.3936 17.858 26.5048 17.9677 26.6005 18.0898L26.732 18.2812L26.8375 18.4896C26.8988 18.6323 26.941 18.7826 26.9638 18.9362L26.9833 19.1693L26.9729 19.4023C26.9467 19.6335 26.8756 19.8584 26.7633 20.0638L26.762 20.0625C25.7213 22.0313 24.1656 23.6805 22.2594 24.832C20.6348 25.8133 18.8086 26.4001 16.926 26.556V28C16.9257 28.552 16.4781 29 15.926 29C15.374 28.9999 14.9263 28.552 14.926 28V26.556C13.0433 26.4001 11.216 25.8134 9.5914 24.832C7.68122 23.6779 6.12156 22.0238 5.08098 20.0495L5.08228 20.0482C4.93775 19.778 4.86225 19.4758 4.86744 19.1693L4.88697 18.9362C4.92108 18.7059 4.99927 18.4828 5.11874 18.2812L5.25025 18.0898C5.39394 17.9064 5.57254 17.7515 5.77629 17.6354L5.98593 17.5339C6.20126 17.4458 6.4328 17.3999 6.66692 17.3997L6.78671 17.4076C6.90523 17.4218 7.02128 17.4565 7.12785 17.5117L9.18515 18.5781C9.67546 18.8323 9.86771 19.4368 9.61353 19.9271C9.35932 20.4173 8.75486 20.6083 8.26457 20.3542L7.26978 19.8385C8.11844 21.1734 9.26622 22.298 10.6266 23.1198C11.9389 23.9125 13.4087 24.3991 14.926 24.5495V14.6003H11.926C11.3739 14.6001 10.9262 14.1523 10.926 13.6003C10.926 13.0481 11.3739 12.6004 11.926 12.6003H14.926V9.64714C14.4013 9.48567 13.9178 9.19994 13.5224 8.80469C12.8848 8.16708 12.5263 7.30142 12.5263 6.39974C12.5264 5.49816 12.8849 4.63364 13.5224 3.99609C14.1599 3.35859 15.0245 3.00014 15.926 3ZM15.926 5C15.5549 5.00014 15.1989 5.14773 14.9364 5.41016C14.674 5.67263 14.5264 6.02859 14.5263 6.39974C14.5263 6.77086 14.6741 7.12681 14.9364 7.38932C15.1989 7.65175 15.5549 7.79934 15.926 7.79948C16.2973 7.79948 16.6531 7.6518 16.9156 7.38932C17.1782 7.12677 17.3258 6.77104 17.3258 6.39974C17.3257 6.02853 17.1781 5.67265 16.9156 5.41016C16.6531 5.14785 16.2972 5 15.926 5Z" fill="#FAFAFA"/>
</svg>
