<svg width="32" height="32" viewBox="0 0 32 32" fill="none" xmlns="http://www.w3.org/2000/svg">
<path fill-rule="evenodd" clip-rule="evenodd" d="M2.66602 9.00016C2.66602 6.97512 4.30764 5.3335 6.33268 5.3335H17.666C19.6911 5.3335 21.3327 6.97512 21.3327 9.00016V11.7155L25.9558 9.40388C27.5073 8.62816 29.3327 9.75632 29.3327 11.4909V20.5095C29.3327 22.244 27.5073 23.3722 25.9558 22.5964L21.3327 20.2849V23.0002C21.3327 25.0252 19.6911 26.6668 17.666 26.6668H6.33268C4.30764 26.6668 2.66602 25.0252 2.66602 23.0002V9.00016ZM21.3327 18.0488L26.8503 20.8076C27.0719 20.9184 27.3327 20.7572 27.3327 20.5095V11.4909C27.3327 11.2431 27.0719 11.0819 26.8503 11.1927L21.3327 13.9515V18.0488ZM19.3327 9.00016C19.3327 8.07969 18.5865 7.3335 17.666 7.3335H6.33268C5.41221 7.3335 4.66602 8.07969 4.66602 9.00016V23.0002C4.66602 23.9206 5.41221 24.6668 6.33268 24.6668H17.666C18.5865 24.6668 19.3327 23.9206 19.3327 23.0002V9.00016Z" fill="#FAFAFA"/>
</svg>
