<svg width="32" height="32" viewBox="0 0 32 32" fill="none" xmlns="http://www.w3.org/2000/svg">
<path d="M22.6702 24.259C23.2225 24.259 23.6702 24.7067 23.6702 25.259C23.6699 25.8109 23.2223 26.259 22.6702 26.259C22.1182 26.259 21.6706 25.8109 21.6702 25.259C21.6702 24.7067 22.118 24.259 22.6702 24.259Z" fill="#FAFAFA"/>
<path d="M22.6702 19.0441C23.2225 19.0441 23.6702 19.4918 23.6702 20.0441V22.6704C23.6702 23.2227 23.2225 23.6704 22.6702 23.6704C22.118 23.6704 21.6702 23.2227 21.6702 22.6704V20.0441C21.6702 19.4918 22.118 19.0441 22.6702 19.0441Z" fill="#FAFAFA"/>
<path fill-rule="evenodd" clip-rule="evenodd" d="M22.6702 15.992C26.1962 15.992 29.0813 18.7279 29.3226 22.1925C29.3338 22.3504 29.3408 22.5097 29.3408 22.6704C29.3408 26.3545 26.3543 29.341 22.6702 29.341C18.9862 29.341 15.9997 26.3545 15.9997 22.6704C15.9997 22.5097 16.008 22.3504 16.0192 22.1925C16.2605 18.7279 19.1443 15.992 22.6702 15.992ZM22.6702 17.9998C20.2091 17.9998 18.1951 19.9037 18.0153 22.3188C18.007 22.4324 17.9997 22.5469 17.9997 22.6626C17.9997 25.2421 20.0908 27.3332 22.6702 27.3332C25.2497 27.3332 27.3408 25.2421 27.3408 22.6626C27.3408 22.5469 27.3348 22.4324 27.3265 22.3188C27.1467 19.9036 25.1314 17.9998 22.6702 17.9998Z" fill="#FAFAFA"/>
<path d="M22.9997 2.6665C25.0247 2.6665 26.6663 4.30813 26.6663 6.33317V13.6613C26.6663 14.2136 26.2186 14.6613 25.6663 14.6613C25.1141 14.6613 24.6663 14.2136 24.6663 13.6613V6.33317C24.6663 5.4127 23.9201 4.6665 22.9997 4.6665H8.99967C8.0792 4.6665 7.33301 5.41269 7.33301 6.33317V25.6665C7.33301 26.587 8.0792 27.3332 8.99967 27.3332H13.6663C14.2186 27.3332 14.6663 27.7809 14.6663 28.3332C14.6663 28.8855 14.2186 29.3332 13.6663 29.3332H8.99967C6.97463 29.3332 5.33301 27.6915 5.33301 25.6665V6.33317C5.33301 4.30812 6.97463 2.6665 8.99967 2.6665H22.9997Z" fill="#FAFAFA"/>
<path d="M14.9997 13.3332C15.552 13.3332 15.9997 13.7809 15.9997 14.3332C15.9997 14.8855 15.552 15.3332 14.9997 15.3332H11.6663C11.1141 15.3332 10.6663 14.8855 10.6663 14.3332C10.6663 13.7809 11.1141 13.3332 11.6663 13.3332H14.9997Z" fill="#FAFAFA"/>
<path d="M20.333 7.99984C20.8853 7.99984 21.333 8.44755 21.333 8.99984C21.333 9.55212 20.8853 9.99984 20.333 9.99984H11.6663C11.1141 9.99984 10.6663 9.55212 10.6663 8.99984C10.6663 8.44755 11.1141 7.99984 11.6663 7.99984H20.333Z" fill="#FAFAFA"/>
</svg>
