<svg width="32" height="32" viewBox="0 0 32 32" fill="none" xmlns="http://www.w3.org/2000/svg">
<path fill-rule="evenodd" clip-rule="evenodd" d="M9.33353 9.33317C9.33353 5.65127 12.3183 2.6665 16.0002 2.6665C19.6821 2.6665 22.6669 5.65127 22.6669 9.33317V15.3332C22.6669 19.0151 19.6821 21.9998 16.0002 21.9998C12.3183 21.9998 9.33353 19.0151 9.33353 15.3332V9.33317ZM16.0002 4.6665C13.4229 4.6665 11.3335 6.75584 11.3335 9.33317V15.3332C11.3335 17.9105 13.4229 19.9998 16.0002 19.9998C18.5775 19.9998 20.6669 17.9105 20.6669 15.3332V9.33317C20.6669 6.75584 18.5775 4.6665 16.0002 4.6665ZM6.43191 18.4168C6.938 18.1957 7.52752 18.4267 7.74864 18.9328C9.13835 22.1135 12.3112 24.3332 16.0002 24.3332C19.6892 24.3332 22.862 22.1135 24.2518 18.9328C24.4729 18.4267 25.0624 18.1957 25.5685 18.4168C26.0746 18.6379 26.3056 19.2275 26.0845 19.7335C24.5147 23.3264 21.0794 25.9207 17.0002 26.2883V28.3332C17.0002 28.8855 16.5525 29.3332 16.0002 29.3332C15.4479 29.3332 15.0002 28.8855 15.0002 28.3332V26.2883C10.921 25.9207 7.4857 23.3264 5.91593 19.7335C5.69481 19.2275 5.92582 18.6379 6.43191 18.4168Z" fill="#FAFAFA"/>
</svg>
