<svg width="32" height="32" viewBox="0 0 32 32" fill="none" xmlns="http://www.w3.org/2000/svg">
<path d="M31 16C31.5523 16 32 16.4477 32 17C32 17.5523 31.5523 18 31 18H25C24.4477 18 24 17.5523 24 17C24 16.4477 24.4477 16 25 16H31Z" fill="#FAFAFA"/>
<path d="M19.5008 12.6667C19.5008 9.35304 16.8145 6.66675 13.5008 6.66675C10.1871 6.66675 7.5008 9.35304 7.5008 12.6667C7.5008 15.9805 10.1871 18.6667 13.5008 18.6667V20.6667C9.08252 20.6667 5.5008 17.085 5.5008 12.6667C5.5008 8.24847 9.08252 4.66675 13.5008 4.66675C17.9191 4.66675 21.5008 8.24847 21.5008 12.6667C21.5008 17.085 17.9191 20.6667 13.5008 20.6667V18.6667C16.8145 18.6667 19.5008 15.9805 19.5008 12.6667Z" fill="#FAFAFA"/>
<path d="M13.5008 19.0001C18.167 19.0001 22.0304 21.6879 24.7495 25.7319L25.0099 26.1277L25.0607 26.2162C25.2895 26.6685 25.1426 27.23 24.7065 27.5092C24.2705 27.7882 23.6999 27.6861 23.3849 27.2891L23.325 27.2058L22.8485 26.4962C20.4091 23.0387 17.1852 21.0001 13.5008 21.0001C9.57106 21.0001 6.16543 23.3194 3.67658 27.2058C3.37881 27.6708 2.76013 27.8068 2.29507 27.5092C1.83008 27.2114 1.6941 26.5927 1.99169 26.1277C4.72187 21.8643 8.68398 19.0001 13.5008 19.0001Z" fill="#FAFAFA"/>
</svg>
