<svg width="32" height="32" viewBox="0 0 32 32" fill="none" xmlns="http://www.w3.org/2000/svg">
<path fill-rule="evenodd" clip-rule="evenodd" d="M15.9993 4.6665C9.74012 4.6665 4.66602 9.74061 4.66602 15.9998C4.66602 22.2591 9.74012 27.3332 15.9993 27.3332C22.2586 27.3332 27.3327 22.2591 27.3327 15.9998C27.3327 9.74061 22.2586 4.6665 15.9993 4.6665ZM2.66602 15.9998C2.66602 8.63604 8.63555 2.6665 15.9993 2.6665C23.3631 2.6665 29.3327 8.63604 29.3327 15.9998C29.3327 23.3636 23.3631 29.3332 15.9993 29.3332C8.63555 29.3332 2.66602 23.3636 2.66602 15.9998Z" fill="#FAFAFA"/>
<path d="M12.666 13.9998C12.666 13.2635 13.263 12.6665 13.9993 12.6665H17.9993C18.7357 12.6665 19.3327 13.2635 19.3327 13.9998V17.9998C19.3327 18.7362 18.7357 19.3332 17.9993 19.3332H13.9993C13.263 19.3332 12.666 18.7362 12.666 17.9998V13.9998Z" fill="#FAFAFA"/>
</svg>
