<svg width="32" height="32" viewBox="0 0 32 32" fill="none" xmlns="http://www.w3.org/2000/svg">
<path fill-rule="evenodd" clip-rule="evenodd" d="M15.5038 4.05858C15.8829 3.96739 16.2829 3.98208 16.6588 4.10676L17.2812 4.3203C18.7206 4.83112 20.0848 5.42664 21.3124 5.99998L21.9713 6.31248C23.4905 7.04792 24.9022 7.82995 26.5221 8.88019L26.7681 9.05988C27.3169 9.51177 27.6694 10.1664 27.7369 10.8828L27.8502 12.2122C28.0447 14.8166 28.0537 17.1375 27.8567 19.7396L27.7408 21.0664C27.6708 21.7786 27.3187 22.428 26.7734 22.8763L26.5273 23.056C23.3161 25.1383 20.5428 26.5381 16.9973 27.7226L16.2773 27.957C16.2495 27.9658 16.2209 27.9717 16.1926 27.9778C16.1896 27.9785 16.1866 27.9798 16.1835 27.9805C16.1247 27.9925 16.0649 27.9969 16.0051 27.9974L15.9999 27.9987L15.9947 27.9974C15.9491 27.9972 15.9032 27.9965 15.858 27.9896L15.8228 27.9805C15.8128 27.9785 15.8028 27.9762 15.7929 27.9739L15.7213 27.957C12.0669 26.7989 9.267 25.4569 6.10929 23.4635L5.47257 23.056C4.87362 22.6677 4.45603 22.0583 4.30721 21.3672L4.26033 21.0664C3.90489 17.4507 3.92123 14.5029 4.26164 10.8828L4.30851 10.5794C4.45549 9.88389 4.8758 9.27146 5.47908 8.88019L6.69914 8.10675C9.51157 6.38069 12.0958 5.16046 15.3424 4.10285L15.5038 4.05858ZM16.9231 15.7591V25.789C20.064 24.6966 22.5873 23.4061 25.5247 21.5013L25.6028 21.4453C25.7739 21.3045 25.8821 21.102 25.9036 20.8854L26.0155 19.6055C26.2057 17.0976 26.1962 14.8658 26.0077 12.345L25.9322 11.4557L16.9231 15.7591ZM6.06763 11.4531C5.77285 14.7837 5.7676 17.5288 6.09757 20.8854L6.1119 20.9778C6.15769 21.1892 6.28637 21.3788 6.47518 21.5013L7.69263 22.2708C10.134 23.7671 12.3774 24.8489 15.0767 25.7877V15.7604L6.06763 11.4531ZM14.6288 11.2174C13.7625 11.676 12.9819 12.088 12.3658 12.414L15.9986 14.151L24.7708 9.95962C23.449 9.13934 22.2479 8.49469 20.9452 7.87238C18.982 8.91162 16.5839 10.1825 14.6288 11.2174ZM15.914 5.86327C12.8177 6.87189 10.362 8.0284 7.65747 9.68879L7.22908 9.95832L10.289 11.4206C10.3131 11.4079 10.3403 11.395 10.3684 11.3802C10.5496 11.2843 10.8133 11.144 11.1418 10.97C11.7997 10.6218 12.7193 10.1346 13.7655 9.58071C15.3142 8.76093 17.1415 7.79329 18.8098 6.91014C18.1161 6.6146 17.3992 6.32556 16.6653 6.06509L16.0793 5.86327C16.0536 5.85473 16.0254 5.85022 15.9973 5.85024L15.914 5.86327Z" fill="#FAFAFA"/>
</svg>
