<svg width="32" height="32" viewBox="0 0 32 32" fill="none" xmlns="http://www.w3.org/2000/svg">
<path fill-rule="evenodd" clip-rule="evenodd" d="M3.95989 3.95989C4.35041 3.56936 4.98357 3.56936 5.3741 3.95989L12.667 11.2528V5.00033C12.667 4.44804 13.1147 4.00033 13.667 4.00033C14.2193 4.00033 14.667 4.44804 14.667 5.00033V12.667C14.667 13.7716 13.7716 14.667 12.667 14.667L5.00033 14.667C4.44804 14.667 4.00033 14.2193 4.00033 13.667C4.00033 13.1147 4.44804 12.667 5.00033 12.667L11.2528 12.667L3.95989 5.3741C3.56936 4.98357 3.56936 4.35041 3.95989 3.95989ZM17.3337 9.00033C17.3337 8.44804 17.7814 8.00033 18.3337 8.00033H25.667C27.692 8.00033 29.3337 9.64195 29.3337 11.667V25.667C29.3337 27.692 27.692 29.3337 25.667 29.3337H11.667C9.64195 29.3337 8.00033 27.692 8.00033 25.667V18.3337C8.00033 17.7814 8.44804 17.3337 9.00033 17.3337C9.55261 17.3337 10.0003 17.7814 10.0003 18.3337V25.667C10.0003 26.5875 10.7465 27.3337 11.667 27.3337H25.667C26.5875 27.3337 27.3337 26.5875 27.3337 25.667V11.667C27.3337 10.7465 26.5875 10.0003 25.667 10.0003H18.3337C17.7814 10.0003 17.3337 9.55261 17.3337 9.00033Z" fill="#FAFAFA"/>
</svg>
