<svg width="32" height="32" viewBox="0 0 32 32" fill="none" xmlns="http://www.w3.org/2000/svg">
<path d="M19.4603 12.6667C20.415 12.6668 21.3203 13.0654 21.9798 13.7578C22.6378 14.4488 22.9993 15.3762 22.9993 16.3333C22.9993 17.2905 22.6379 18.2179 21.9798 18.9089C21.3203 19.6013 20.415 19.9998 19.4603 20H16.2728C16.3973 20.3519 16.3213 20.7588 16.0397 21.0404C15.6492 21.4309 15.0162 21.4309 14.6257 21.0404L13.2923 19.707C13.1048 19.5195 12.9993 19.2652 12.9993 19C12.9993 18.7348 13.1048 18.4805 13.2923 18.293L14.6257 16.9596C15.0162 16.5691 15.6492 16.5691 16.0397 16.9596C16.3213 17.2412 16.3973 17.6481 16.2728 18H19.4603C19.8522 17.9998 20.2391 17.8361 20.5319 17.5286C20.8261 17.2195 20.9993 16.7904 20.9993 16.3333C20.9993 15.876 20.8264 15.446 20.5319 15.1367C20.2391 14.8294 19.8522 14.6668 19.4603 14.6667H11.3327C10.7804 14.6667 10.3327 14.219 10.3327 13.6667C10.3327 13.1144 10.7804 12.6667 11.3327 12.6667H19.4603Z" fill="#FAFAFA"/>
<path fill-rule="evenodd" clip-rule="evenodd" d="M19.9993 3C20.5516 3 20.9993 3.44772 20.9993 4C20.9993 4.55228 20.5516 5 19.9993 5H16.9993V8H21.3327L21.7441 8.01042C25.9712 8.22457 29.3327 11.7197 29.3327 16V17.3333C29.3327 20.841 27.0743 23.8189 23.9329 24.8984V27.3997C23.9329 27.952 23.4852 28.3997 22.9329 28.3997C22.3807 28.3997 21.9329 27.952 21.9329 27.3997V25.3073C21.8701 25.312 21.8074 25.3197 21.7441 25.3229L21.3327 25.3333H10.666C10.4503 25.3333 10.2368 25.3214 10.0254 25.3047V27.3997C10.0254 27.952 9.57767 28.3997 9.02539 28.3997C8.47311 28.3997 8.02539 27.952 8.02539 27.3997V24.8854C5.02821 23.8375 2.84428 21.0578 2.67643 17.7448L2.66602 17.3333V16C2.66602 11.5817 6.24774 8 10.666 8H14.9993V5H11.9993C11.4471 5 10.9993 4.55228 10.9993 4C10.9993 3.44772 11.4471 3 11.9993 3H19.9993ZM10.666 10C7.35231 10 4.66602 12.6863 4.66602 16V17.3333C4.66602 20.647 7.35231 23.3333 10.666 23.3333H21.3327C24.6464 23.3333 27.3327 20.647 27.3327 17.3333V16C27.3327 12.6863 24.6464 10 21.3327 10H10.666Z" fill="#FAFAFA"/>
</svg>
