<svg width="32" height="32" viewBox="0 0 32 32" fill="none" xmlns="http://www.w3.org/2000/svg">
<path d="M9.45696 9.9594C9.84748 9.56887 10.4805 9.56887 10.871 9.9594L16.2044 15.2927C16.5949 15.6833 16.5949 16.3163 16.2044 16.7068L10.871 22.0401C10.4805 22.4307 9.84748 22.4307 9.45696 22.0401C9.06643 21.6496 9.06643 21.0166 9.45696 20.6261L14.0833 15.9998L9.45696 11.3735C9.06643 10.9829 9.06643 10.3499 9.45696 9.9594Z" fill="#FAFAFA"/>
<path d="M15.7955 9.9594C16.186 9.56887 16.819 9.56887 17.2096 9.9594L22.5429 15.2927C22.9334 15.6833 22.9334 16.3163 22.5429 16.7068L17.2096 22.0401C16.819 22.4307 16.186 22.4307 15.7955 22.0401C15.405 21.6496 15.405 21.0166 15.7955 20.6261L20.4218 15.9998L15.7955 11.3735C15.405 10.9829 15.405 10.3499 15.7955 9.9594Z" fill="#FAFAFA"/>
</svg>
