<svg width="32" height="32" viewBox="0 0 32 32" fill="none" xmlns="http://www.w3.org/2000/svg">
<path fill-rule="evenodd" clip-rule="evenodd" d="M11.0423 5.63277C11.7224 4.6127 12.8672 4 14.0932 4H17.9055C19.1315 4 20.2763 4.6127 20.9564 5.63277L22.0398 7.25783C22.3489 7.7215 22.8692 8 23.4265 8H25.666C27.6911 8 29.3327 9.64162 29.3327 11.6667V24.3333C29.3327 26.3584 27.6911 28 25.666 28H6.33268C4.30764 28 2.66602 26.3584 2.66602 24.3333V11.6667C2.66602 9.64162 4.30764 8 6.33268 8H8.57219C9.12945 8 9.64983 7.7215 9.95894 7.25783L11.0423 5.63277ZM14.0932 6C13.5359 6 13.0155 6.2785 12.7064 6.74217L11.623 8.36723C10.943 9.3873 9.79815 10 8.57219 10H6.33268C5.41221 10 4.66602 10.7462 4.66602 11.6667V24.3333C4.66602 25.2538 5.41221 26 6.33268 26H25.666C26.5865 26 27.3327 25.2538 27.3327 24.3333V11.6667C27.3327 10.7462 26.5865 10 25.666 10H23.4265C22.2005 10 21.0557 9.3873 20.3757 8.36723L19.2923 6.74217C18.9832 6.2785 18.4628 6 17.9055 6H14.0932ZM15.9993 14C14.1584 14 12.666 15.4924 12.666 17.3333C12.666 19.1743 14.1584 20.6667 15.9993 20.6667C17.8403 20.6667 19.3327 19.1743 19.3327 17.3333C19.3327 15.4924 17.8403 14 15.9993 14ZM10.666 17.3333C10.666 14.3878 13.0538 12 15.9993 12C18.9449 12 21.3327 14.3878 21.3327 17.3333C21.3327 20.2789 18.9449 22.6667 15.9993 22.6667C13.0538 22.6667 10.666 20.2789 10.666 17.3333Z" fill="#FAFAFA"/>
</svg>
