<svg width="32" height="32" viewBox="0 0 32 32" fill="none" xmlns="http://www.w3.org/2000/svg">
<path d="M15.9928 10.36C16.5449 10.3602 16.9928 10.8079 16.9928 11.36V11.8652C17.2784 11.8484 17.5693 11.9505 17.7806 12.1751C18.1586 12.5778 18.139 13.2112 17.7363 13.5892L16.9928 14.2858V15.653L18.1374 15.002L18.3796 14.0111L18.4082 13.9134C18.577 13.4388 19.0864 13.1601 19.5918 13.2832C19.8864 13.3553 20.1149 13.5523 20.2441 13.8001L20.765 13.5033C21.2447 13.2299 21.8598 13.3952 22.1387 13.8717C22.4174 14.3483 22.2548 14.9562 21.7754 15.2298L21.2546 15.5267C21.4077 15.7612 21.4663 16.0549 21.3822 16.3431C21.2281 16.87 20.6704 17.1715 20.1374 17.0163L19.1465 16.7272L18.0124 17.373L19.1478 18.0202L20.1374 17.7311L20.2376 17.7077C20.7385 17.6147 21.2375 17.9106 21.3822 18.4043C21.4662 18.6924 21.4076 18.9862 21.2546 19.2207L21.7754 19.5176C22.255 19.7911 22.4173 20.399 22.1387 20.8757C21.8598 21.3523 21.2448 21.5176 20.765 21.2441L20.2454 20.9473C20.1163 21.1954 19.8879 21.3919 19.5931 21.4642C19.0539 21.596 18.5101 21.2707 18.3796 20.7376L18.1374 19.7467L16.9928 19.0931V20.3848L17.7363 21.0827C18.1387 21.4607 18.1585 22.0929 17.7806 22.4954C17.5692 22.7204 17.2787 22.8209 16.9928 22.804V23.3874C16.9928 23.9395 16.5449 24.3872 15.9928 24.3874C15.4408 24.387 14.9928 23.9395 14.9928 23.3874V22.804C14.7068 22.821 14.4152 22.7207 14.2038 22.4954C13.8265 22.093 13.8464 21.4606 14.248 21.0827L14.9928 20.3835V19.0944L13.7819 19.7858L13.5397 20.7754C13.4093 21.3087 12.8668 21.6351 12.3275 21.5033C12.0327 21.431 11.803 21.2344 11.6738 20.9863L11.222 21.2441C10.7422 21.5173 10.1271 21.3523 9.84831 20.8757C9.56998 20.399 9.73327 19.7909 10.2129 19.5176L10.6634 19.2611C10.5104 19.0266 10.4544 18.7314 10.5384 18.4434C10.6924 17.9167 11.2491 17.6154 11.7819 17.7702L12.7715 18.0592L13.9746 17.373L12.7715 16.6882L11.7832 16.9772C11.2501 17.1324 10.6923 16.831 10.5384 16.304C10.4544 16.016 10.5118 15.722 10.6647 15.4876L10.2129 15.2298C9.73321 14.9563 9.57083 14.3484 9.84961 13.8717C10.1285 13.3951 10.7435 13.2298 11.2233 13.5033L11.6738 13.7611C11.803 13.5131 12.0328 13.3163 12.3275 13.2441C12.8668 13.1121 13.4105 13.4388 13.541 13.972L13.7819 14.9616L14.9928 15.6517V14.2871L14.248 13.5892L14.1777 13.515C13.8457 13.1326 13.8498 12.5525 14.2038 12.1751C14.4152 11.9501 14.7069 11.8483 14.9928 11.8652V11.36C14.9928 10.8079 15.4408 10.3604 15.9928 10.36Z" fill="#FAFAFA"/>
<path fill-rule="evenodd" clip-rule="evenodd" d="M21.5098 3.68815C24.3276 3.83113 26.5684 6.16159 26.5684 9.01497V27.2702H27.3327L27.4355 27.2754C27.9395 27.3269 28.3327 27.7526 28.3327 28.2702C28.3327 28.7877 27.9395 29.2135 27.4355 29.265L27.3327 29.2702H26.5684V29.2754H5.43034V29.2702H4.66602C4.11373 29.2702 3.66602 28.8225 3.66602 28.2702C3.66602 27.7179 4.11373 27.2702 4.66602 27.2702H5.43034V9.01497C5.43034 6.06946 7.81815 3.68164 10.7637 3.68164H21.235L21.5098 3.68815ZM10.7637 5.68164C8.92272 5.68164 7.43034 7.17403 7.43034 9.01497V27.2702H24.5684V9.01497C24.5684 7.17403 23.076 5.68164 21.235 5.68164H10.7637Z" fill="#FAFAFA"/>
</svg>
