<svg width="32" height="32" viewBox="0 0 32 32" fill="none" xmlns="http://www.w3.org/2000/svg">
<path d="M19.8835 18.7917C20.1305 18.2978 20.732 18.0969 21.226 18.3438L23.3692 19.4154C23.7105 19.5863 23.9247 19.9373 23.9213 20.319C23.9176 20.7007 23.6967 21.0477 23.3523 21.2122C21.8893 21.9111 20.3001 22.3084 18.6804 22.3802C18.6659 22.3808 18.6506 22.3815 18.6361 22.3815C17.3007 22.3814 16.3014 21.8672 15.5098 21.4714C14.7032 21.0681 14.0986 20.7795 13.3041 20.7734C11.9588 20.8355 10.6391 21.1668 9.42389 21.7474C8.92573 21.9851 8.32867 21.774 8.09055 21.276C7.85293 20.7779 8.06403 20.1808 8.56191 19.9427C10.0249 19.2438 11.614 18.8466 13.2338 18.7747L13.2781 18.7734C14.6135 18.7734 15.6127 19.2878 16.4044 19.6836C17.2105 20.0867 17.815 20.3738 18.6088 20.3802C19.1977 20.3531 19.7812 20.2718 20.3536 20.1432L20.3314 20.1328C19.8379 19.886 19.6374 19.2854 19.8835 18.7917Z" fill="#FAFAFA"/>
<path d="M19.8835 14.5052C20.1306 14.0117 20.7322 13.8108 21.226 14.0573L23.3692 15.1289C23.7104 15.2997 23.9244 15.651 23.9213 16.0326C23.9177 16.4144 23.6968 16.7611 23.3523 16.9258C21.8892 17.6247 20.3002 18.0219 18.6804 18.0938C18.6659 18.0944 18.6506 18.095 18.6361 18.0951C17.3007 18.095 16.3014 17.5807 15.5098 17.1849C14.7034 16.7817 14.0985 16.493 13.3041 16.487C11.9588 16.5491 10.6391 16.8803 9.42389 17.4609C8.92556 17.699 8.32863 17.4879 8.09055 16.9896C7.85328 16.4915 8.06395 15.8942 8.56191 15.6562C10.0249 14.9573 11.614 14.5601 13.2338 14.4883L13.2781 14.487C14.6133 14.487 15.6128 15.0013 16.4044 15.3971C17.2105 15.8002 17.815 16.0873 18.6088 16.0938C19.1977 16.0666 19.7811 15.9854 20.3536 15.8568L20.3314 15.8464C19.8381 15.5993 19.6372 14.9989 19.8835 14.5052Z" fill="#FAFAFA"/>
<path d="M19.8835 10.2201C20.1305 9.72621 20.7321 9.52537 21.226 9.77214L23.3692 10.8438C23.7105 11.0147 23.9247 11.3657 23.9213 11.7474C23.9177 12.1292 23.6968 12.476 23.3523 12.6406C21.8892 13.3395 20.3002 13.7368 18.6804 13.8086C18.6659 13.8092 18.6506 13.8099 18.6361 13.8099C17.3007 13.8098 16.3014 13.2956 15.5098 12.8997C14.7033 12.4965 14.0986 12.2079 13.3041 12.2018C11.9588 12.2639 10.6391 12.5952 9.42389 13.1758C8.9256 13.4137 8.3286 13.2027 8.09055 12.7044C7.85293 12.2063 8.06392 11.6092 8.56191 11.3711C10.0249 10.6722 11.614 10.275 13.2338 10.2031L13.2781 10.2018C14.6134 10.2018 15.6127 10.7162 16.4044 11.112C17.2105 11.5151 17.815 11.8022 18.6088 11.8086C19.1977 11.7815 19.7811 11.7002 20.3536 11.5716L20.3314 11.5612C19.8379 11.3143 19.6372 10.7138 19.8835 10.2201Z" fill="#FAFAFA"/>
<path fill-rule="evenodd" clip-rule="evenodd" d="M26.9382 6.01432C28.2831 6.15067 29.3327 7.2858 29.3327 8.66667V9.60286C30.0536 9.61421 30.6372 10.1982 30.6439 10.9232L30.6882 21.0273C30.6947 21.7635 30.1028 22.3657 29.3666 22.3724C29.3553 22.3725 29.344 22.3713 29.3327 22.3711V23.3333C29.3326 24.7141 28.283 25.8493 26.9382 25.9857L26.6661 26H5.33274C3.95206 25.9999 2.81689 24.9502 2.6804 23.6055L2.66607 23.3333V22.3711C1.94556 22.3596 1.36186 21.7767 1.35487 21.0521L1.3106 10.9479C1.3039 10.2116 1.89598 9.60969 2.63222 9.60286C2.64346 9.60276 2.65489 9.60269 2.66607 9.60286V8.66667C2.66607 7.19396 3.86006 6.00009 5.33274 6H26.6661L26.9382 6.01432ZM5.33274 8C4.96463 8.00009 4.66607 8.29853 4.66607 8.66667V23.3333C4.66625 23.7013 4.96474 23.9999 5.33274 24H26.6661C27.0342 24 27.3326 23.7014 27.3327 23.3333V8.66667C27.3327 8.29848 27.0343 8 26.6661 8H5.33274Z" fill="#FAFAFA"/>
</svg>
