<svg width="32" height="32" viewBox="0 0 32 32" fill="none" xmlns="http://www.w3.org/2000/svg">
<path fill-rule="evenodd" clip-rule="evenodd" d="M21.2103 17.3292C21.9645 17.0851 22.7739 17.0631 23.5397 17.2681C23.7957 17.3367 24.0139 17.5045 24.1465 17.7337C24.2791 17.9631 24.3153 18.2361 24.2467 18.4919L23.9316 19.6651C24.0811 19.6648 24.2313 19.6711 24.3809 19.6872C25.1691 19.772 25.9166 20.0826 26.5319 20.582C27.1471 21.0814 27.6039 21.7485 27.8483 22.5017C28.0927 23.2551 28.1147 24.0636 27.9095 24.8286C27.8408 25.0841 27.6728 25.3023 27.4434 25.4346C27.2137 25.567 26.9403 25.6033 26.6842 25.5348L25.5085 25.22C25.5088 25.3693 25.5037 25.5194 25.4876 25.6688C25.4027 26.4561 25.0917 27.2028 24.5918 27.8174C24.0918 28.4318 23.424 28.8882 22.6699 29.1323C21.9157 29.3764 21.1063 29.3983 20.3405 29.1934C20.0846 29.1248 19.8663 28.957 19.7337 28.7278C19.6012 28.4985 19.5649 28.2254 19.6335 27.9695L19.9473 26.7951C19.7982 26.7954 19.6485 26.7903 19.4993 26.7743C18.7111 26.6895 17.9636 26.3788 17.3483 25.8795C16.7331 25.3801 16.2763 24.713 16.0319 23.9597C15.7875 23.2064 15.7656 22.3979 15.9707 21.6329L16.041 21.4495C16.1278 21.2741 16.2647 21.1262 16.4368 21.0268C16.6665 20.8944 16.9398 20.8582 17.196 20.9267L18.3704 21.2401C18.3701 21.0913 18.3765 20.9417 18.3926 20.7927C18.4775 20.0054 18.7885 19.2587 19.2884 18.6441C19.7884 18.0296 20.4562 17.5733 21.2103 17.3292ZM21.8262 19.2294C21.4393 19.3547 21.0969 19.5891 20.8405 19.9044C20.584 20.2198 20.4244 20.6033 20.3809 21.0073C20.3375 21.4112 20.4123 21.8193 20.5957 22.1818C20.7732 22.5331 20.7269 22.9558 20.4785 23.2613C20.2298 23.5669 19.8242 23.6988 19.4434 23.5969L17.8887 23.1807C17.9017 23.2356 17.9167 23.2906 17.9342 23.3446C18.0597 23.731 18.2944 24.0729 18.61 24.3291C18.9258 24.5854 19.3097 24.7447 19.7142 24.7882C20.1185 24.8316 20.5271 24.7568 20.89 24.5736C21.2417 24.3963 21.6648 24.4426 21.9707 24.6907C22.2768 24.9391 22.4087 25.3442 22.3066 25.7247L21.89 27.2763C21.9448 27.2633 22.0001 27.2495 22.054 27.2321C22.4409 27.1068 22.7832 26.8723 23.0397 26.5571C23.2962 26.2417 23.4558 25.8582 23.4993 25.4542C23.5427 25.0503 23.4679 24.6422 23.2845 24.2797C23.107 23.9284 23.1534 23.5057 23.4017 23.2002C23.6504 22.8945 24.056 22.7627 24.4368 22.8646L25.9902 23.2795C25.9773 23.2251 25.9633 23.1704 25.946 23.1169C25.8205 22.7305 25.5858 22.3886 25.2702 22.1324C24.9544 21.8761 24.5705 21.7167 24.166 21.6733C23.7617 21.6299 23.3532 21.7047 22.9902 21.8879C22.6385 22.0651 22.2154 22.0188 21.9095 21.7708C21.6035 21.5224 21.4716 21.1173 21.5736 20.7368L21.9889 19.1839C21.9344 19.1968 21.8798 19.212 21.8262 19.2294Z" fill="#FAFAFA"/>
<path d="M21.6126 2.66602C23.6374 2.66637 25.2793 4.30601 25.2793 6.32856V15.2612C25.2793 15.8127 24.8313 16.2597 24.2793 16.2601C23.727 16.2601 23.2793 15.8129 23.2793 15.2612V6.32856C23.2793 5.40934 22.5328 4.66412 21.6126 4.66377H7.61784C6.69736 4.66377 5.95117 5.40912 5.95117 6.32856V25.6401C5.95117 26.5596 6.69736 27.3049 7.61784 27.3049H15.14C15.6923 27.3049 16.14 27.7521 16.14 28.3038C16.14 28.8555 15.6923 29.3027 15.14 29.3027H7.61784C5.5928 29.3027 3.95117 27.6629 3.95117 25.6401V6.32856C3.95117 4.30579 5.59279 2.66602 7.61784 2.66602H21.6126Z" fill="#FAFAFA"/>
<path d="M7.95898 20.6458C8.51097 20.6461 8.95898 21.0932 8.95898 21.6446V24.3083C8.95883 24.8596 8.51088 25.3068 7.95898 25.3072C7.40679 25.3072 6.95914 24.8598 6.95898 24.3083V21.6446C6.95898 21.093 7.4067 20.6458 7.95898 20.6458Z" fill="#FAFAFA"/>
<path d="M12.0293 20.6458C12.5813 20.6461 13.0293 21.0932 13.0293 21.6446V24.3083C13.0291 24.8596 12.5812 25.3068 12.0293 25.3072C11.4771 25.3072 11.0295 24.8598 11.0293 24.3083V21.6446C11.0293 21.093 11.477 20.6458 12.0293 20.6458Z" fill="#FAFAFA"/>
<path d="M21.2923 13.322C21.8442 13.3223 22.2922 13.7696 22.2923 14.3209C22.2923 14.8723 21.8443 15.3194 21.2923 15.3197H7.95898C7.4067 15.3197 6.95898 14.8725 6.95898 14.3209C6.95915 13.7693 7.4068 13.322 7.95898 13.322H21.2923Z" fill="#FAFAFA"/>
<path fill-rule="evenodd" clip-rule="evenodd" d="M21.0241 6.17639C21.7236 6.17639 22.2909 6.74323 22.291 7.44189V11.0823C22.2907 11.7806 21.7245 12.3475 21.0254 12.3478H8.22591C7.52655 12.3478 6.958 11.7808 6.95768 11.0823V7.44189C6.95782 6.74344 7.52543 6.17674 8.22461 6.17639H21.0241ZM8.95768 10.3501H11.39V8.17414H8.95768V10.3501ZM13.39 10.3501H15.8314V8.17414H13.39V10.3501ZM17.8314 10.3501H20.291V8.17414H17.8314V10.3501Z" fill="#FAFAFA"/>
</svg>
