<svg width="32" height="32" viewBox="0 0 32 32" fill="none" xmlns="http://www.w3.org/2000/svg">
<path d="M23.2246 23C23.7768 23 24.2245 23.4478 24.2246 24C24.2244 24.5521 23.7768 25 23.2246 25H19.4863C18.9342 24.9999 18.4865 24.5521 18.4863 24C18.4864 23.4478 18.9341 23.0001 19.4863 23H23.2246Z" fill="#FAFAFA"/>
<path d="M23.2246 19.1172C23.7768 19.1172 24.2245 19.565 24.2246 20.1172C24.2246 20.6695 23.7769 21.1172 23.2246 21.1172H19.4863C18.9341 21.1171 18.4863 20.6694 18.4863 20.1172C18.4864 19.565 18.9341 19.1172 19.4863 19.1172H23.2246Z" fill="#FAFAFA"/>
<path fill-rule="evenodd" clip-rule="evenodd" d="M25.9616 15.4818C27.3065 15.6181 28.3561 16.7533 28.3561 18.1341V18.2695C29.0769 18.2809 29.6605 18.865 29.6673 19.5898L29.7116 24.3607C29.7181 25.0969 29.1262 25.699 28.39 25.7057C28.3787 25.7058 28.3674 25.7046 28.3561 25.7044V26.1328C28.356 27.5135 27.3064 28.6488 25.9616 28.7852L25.6895 28.8008H17.0228C15.6423 28.8007 14.5072 27.7507 14.3704 26.4062L14.3561 26.1328V25.7044C13.6356 25.6929 13.0519 25.11 13.0449 24.3854L13.0007 19.6146C12.994 18.8784 13.586 18.2763 14.3223 18.2695C14.3335 18.2694 14.3449 18.2694 14.3561 18.2695V18.1341C14.3561 16.6614 15.5501 15.4675 17.0228 15.4674H25.6895L25.9616 15.4818ZM17.0228 17.4674C16.6546 17.4675 16.3561 17.766 16.3561 18.1341V26.1328C16.3563 26.5008 16.6548 26.8007 17.0228 26.8008H25.6895C26.0575 26.8008 26.3559 26.5009 26.3561 26.1328V18.1341C26.3561 17.7659 26.0576 17.4674 25.6895 17.4674H17.0228Z" fill="#FAFAFA"/>
<path fill-rule="evenodd" clip-rule="evenodd" d="M8.00065 4C9.28932 4 10.334 5.04467 10.334 6.33333V7H18.334V6.33333C18.334 5.04467 19.3787 4 20.6673 4H24.0007C25.2893 4 26.334 5.04467 26.334 6.33333V9.66667C26.334 10.9553 25.2893 12 24.0007 12H23.334V13C23.334 13.5523 22.8863 14 22.334 14C21.7817 14 21.334 13.5523 21.334 13V12H20.6673C19.3787 12 18.334 10.9553 18.334 9.66667V9H10.334V9.66667C10.334 10.9553 9.28932 12 8.00065 12H7.33398V20H7.66732C8.95598 20 10.0007 21.0447 10.0007 22.3333V23H10.4004C10.9527 23 11.4004 23.4477 11.4004 24C11.4004 24.5523 10.9527 25 10.4004 25H10.0007V25.6667C10.0007 26.9553 8.95598 28 7.66732 28H4.66732C3.37865 28 2.33398 26.9553 2.33398 25.6667V22.3333C2.33398 21.0447 3.37865 20 4.66732 20H5.33398V12H4.66732C3.37865 12 2.33398 10.9553 2.33398 9.66667V6.33333C2.33398 5.04467 3.37865 4 4.66732 4H8.00065ZM4.66732 22C4.48322 22 4.33398 22.1492 4.33398 22.3333V25.6667C4.33398 25.8508 4.48322 26 4.66732 26H7.66732C7.85141 26 8.00065 25.8508 8.00065 25.6667V22.3333C8.00065 22.1492 7.85141 22 7.66732 22H4.66732ZM4.66732 6C4.48322 6 4.33398 6.14924 4.33398 6.33333V9.66667C4.33398 9.85076 4.48322 10 4.66732 10H8.00065C8.18475 10 8.33398 9.85076 8.33398 9.66667V6.33333C8.33398 6.14924 8.18475 6 8.00065 6H4.66732ZM20.6673 6C20.4832 6 20.334 6.14924 20.334 6.33333V9.66667C20.334 9.85076 20.4832 10 20.6673 10H24.0007C24.1847 10 24.334 9.85076 24.334 9.66667V6.33333C24.334 6.14924 24.1847 6 24.0007 6H20.6673Z" fill="#FAFAFA"/>
</svg>
