<svg width="32" height="32" viewBox="0 0 32 32" fill="none" xmlns="http://www.w3.org/2000/svg">
<path d="M7.33919 3.24882C7.71927 2.91417 8.29929 2.91442 8.67904 3.26575C9.05876 3.61735 9.10335 4.19562 8.79883 4.60038L8.73372 4.67981L8.49284 4.94153C8.2705 5.19022 8.09837 5.40704 7.96289 5.65898C7.79566 5.9702 7.66606 6.37645 7.66602 7.00012C7.66602 8.10501 8.10322 8.61209 8.74674 9.33606C9.43642 10.1119 10.3326 11.1054 10.3327 13.0001C10.3327 13.9358 10.1288 14.6706 9.79622 15.2892C9.47705 15.8826 9.05662 16.3311 8.73372 16.6798C8.39019 17.0508 8.14356 17.323 7.96289 17.659C7.79566 17.9702 7.66606 18.3764 7.66602 19.0001C7.66602 20.105 8.10322 20.6121 8.74674 21.3361C9.39329 22.0634 10.2212 22.982 10.3223 24.6551L10.3327 25.0001C10.3327 25.9358 10.1288 26.6706 9.79622 27.2892C9.55678 27.7344 9.25987 28.0976 8.99023 28.3986L8.73372 28.6798L8.65951 28.7514C8.27938 29.0863 7.69945 29.086 7.31966 28.7345C6.94001 28.3828 6.89523 27.8046 7.19987 27.3999L7.26497 27.3204L7.50586 27.0587C7.7282 26.81 7.90034 26.5932 8.03581 26.3413C8.20301 26.03 8.33268 25.6238 8.33268 25.0001L8.32747 24.7996C8.27698 23.8311 7.85524 23.3429 7.25195 22.6642C6.56226 21.8883 5.66602 20.8949 5.66602 19.0001C5.66606 18.0644 5.86989 17.3297 6.20247 16.7111C6.52168 16.1177 6.9421 15.6691 7.26497 15.3204C7.60851 14.9494 7.85515 14.6773 8.03581 14.3413C8.20301 14.03 8.33268 13.6238 8.33268 13.0001C8.3326 11.8954 7.8955 11.3882 7.25195 10.6642C6.56226 9.88829 5.66602 8.89489 5.66602 7.00012C5.66606 6.06443 5.8699 5.32966 6.20247 4.71106C6.44194 4.2659 6.73883 3.90258 7.00846 3.60169L7.26497 3.32044L7.33919 3.24882Z" fill="#FAFAFA"/>
<path d="M15.3392 3.24882C15.7193 2.91417 16.2993 2.91442 16.679 3.26575C17.0588 3.61735 17.1033 4.19562 16.7988 4.60038L16.7337 4.67981L16.4928 4.94153C16.2705 5.19022 16.0984 5.40704 15.9629 5.65898C15.7957 5.9702 15.6661 6.37645 15.666 7.00012C15.666 8.10501 16.1032 8.61209 16.7467 9.33606C17.4364 10.1119 18.3326 11.1054 18.3327 13.0001C18.3327 13.9358 18.1288 14.6706 17.7962 15.2892C17.477 15.8826 17.0566 16.3311 16.7337 16.6798C16.3902 17.0508 16.1436 17.323 15.9629 17.659C15.7957 17.9702 15.6661 18.3764 15.666 19.0001C15.666 20.105 16.1032 20.6121 16.7467 21.3361C17.4364 22.1119 18.3326 23.1054 18.3327 25.0001C18.3327 25.9358 18.1288 26.6706 17.7962 27.2892C17.5568 27.7344 17.2599 28.0976 16.9902 28.3986L16.7337 28.6798L16.6595 28.7514C16.2794 29.0863 15.6995 29.086 15.3197 28.7345C14.94 28.3828 14.8952 27.8046 15.1999 27.3999L15.265 27.3204L15.5059 27.0587C15.7282 26.81 15.9003 26.5932 16.0358 26.3413C16.203 26.03 16.3327 25.6238 16.3327 25.0001C16.3326 23.8954 15.8955 23.3882 15.252 22.6642C14.5623 21.8883 13.666 20.8949 13.666 19.0001C13.6661 18.0644 13.8699 17.3297 14.2025 16.7111C14.5217 16.1177 14.9421 15.6691 15.265 15.3204C15.6085 14.9494 15.8551 14.6773 16.0358 14.3413C16.203 14.03 16.3327 13.6238 16.3327 13.0001C16.3326 11.8954 15.8955 11.3882 15.252 10.6642C14.5623 9.88829 13.666 8.89489 13.666 7.00012C13.6661 6.06443 13.8699 5.32966 14.2025 4.71106C14.4419 4.2659 14.7388 3.90258 15.0085 3.60169L15.265 3.32044L15.3392 3.24882Z" fill="#FAFAFA"/>
<path d="M23.3392 3.24882C23.7193 2.91417 24.2993 2.91442 24.679 3.26575C25.0588 3.61735 25.1033 4.19562 24.7988 4.60038L24.7337 4.67981L24.4928 4.94153C24.2705 5.19022 24.0984 5.40704 23.9629 5.65898C23.7957 5.9702 23.6661 6.37645 23.666 7.00012C23.666 8.10501 24.1032 8.61209 24.7467 9.33606C25.4364 10.1119 26.3326 11.1054 26.3327 13.0001C26.3327 13.9358 26.1288 14.6706 25.7962 15.2892C25.477 15.8826 25.0566 16.3311 24.7337 16.6798C24.3902 17.0508 24.1436 17.323 23.9629 17.659C23.7957 17.9702 23.6661 18.3764 23.666 19.0001C23.666 20.105 24.1032 20.6121 24.7467 21.3361C25.4364 22.1119 26.3326 23.1054 26.3327 25.0001C26.3327 25.9358 26.1288 26.6706 25.7962 27.2892C25.5568 27.7344 25.2599 28.0976 24.9902 28.3986L24.7337 28.6798L24.6595 28.7514C24.2794 29.0863 23.6995 29.086 23.3197 28.7345C22.94 28.3828 22.8952 27.8046 23.1999 27.3999L23.265 27.3204L23.5059 27.0587C23.7282 26.81 23.9003 26.5932 24.0358 26.3413C24.203 26.03 24.3327 25.6238 24.3327 25.0001C24.3326 23.8954 23.8955 23.3882 23.252 22.6642C22.5623 21.8883 21.666 20.8949 21.666 19.0001C21.6661 18.0644 21.8699 17.3297 22.2025 16.7111C22.5217 16.1177 22.9421 15.6691 23.265 15.3204C23.6085 14.9494 23.8551 14.6773 24.0358 14.3413C24.203 14.03 24.3327 13.6238 24.3327 13.0001C24.3326 11.8954 23.8955 11.3882 23.252 10.6642C22.5623 9.88829 21.666 8.89489 21.666 7.00012C21.6661 6.06443 21.8699 5.32966 22.2025 4.71106C22.4419 4.2659 22.7388 3.90258 23.0085 3.60169L23.265 3.32044L23.3392 3.24882Z" fill="#FAFAFA"/>
</svg>
