<svg width="32" height="32" viewBox="0 0 32 32" fill="none" xmlns="http://www.w3.org/2000/svg">
<path fill-rule="evenodd" clip-rule="evenodd" d="M14.3348 4.6665C14.1507 4.6665 14.0015 4.81574 14.0015 4.99984V7.99984H18.0015V4.99984C18.0015 4.81574 17.8523 4.6665 17.6682 4.6665H14.3348ZM20.0015 7.99984V4.99984C20.0015 3.71117 18.9568 2.6665 17.6682 2.6665H14.3348C13.0462 2.6665 12.0015 3.71117 12.0015 4.99984V7.99984H9.00151C7.71285 7.99984 6.66818 9.04451 6.66818 10.3332V16.2729C5.12577 16.8699 4.06239 18.485 4.48193 20.2471C4.9072 22.0332 5.57203 23.6287 6.67194 25.3273L3.45684 26.0224C2.91703 26.1391 2.57405 26.6714 2.69076 27.2112C2.80748 27.751 3.3397 28.094 3.87951 27.9773L9.48262 26.7658C9.71476 26.7156 9.95494 26.7156 10.1871 26.7658L15.2266 27.8554C15.7373 27.9658 16.2657 27.9658 16.7764 27.8554L21.816 26.7658C22.0481 26.7156 22.2883 26.7156 22.5204 26.7658L28.1235 27.9773C28.6633 28.094 29.1955 27.751 29.3123 27.2112C29.429 26.6714 29.086 26.1391 28.5462 26.0224L25.3311 25.3273C26.431 23.6287 27.0958 22.0332 27.5211 20.2471C27.9406 18.485 26.8773 16.8699 25.3348 16.2729V10.3332C25.3348 9.04451 24.2902 7.99984 23.0015 7.99984H20.0015ZM9.00151 9.99984C8.81742 9.99984 8.66818 10.1491 8.66818 10.3332V15.7545L15.1349 14.1815C15.7043 14.043 16.2987 14.043 16.8681 14.1815L23.3348 15.7545V10.3332C23.3348 10.1491 23.1856 9.99984 23.0015 9.99984H9.00151ZM23.2248 24.8719C24.4772 23.0964 25.1562 21.5446 25.5755 19.7839C25.7454 19.0703 25.2704 18.2836 24.4093 18.0741L16.3954 16.1248C16.1366 16.0619 15.8664 16.0619 15.6076 16.1248L7.59372 18.0741C6.73266 18.2836 6.25765 19.0703 6.42754 19.7839C6.84677 21.5446 7.52583 23.0964 8.7782 24.8719L9.05996 24.8109C9.57065 24.7005 10.099 24.7005 10.6097 24.8109L15.6493 25.9006C15.8814 25.9508 16.1216 25.9508 16.3537 25.9006L21.3933 24.8109C21.904 24.7005 22.4324 24.7005 22.9431 24.8109L23.2248 24.8719Z" fill="#FAFAFA"/>
</svg>
