<svg width="32" height="32" viewBox="0 0 32 32" fill="none" xmlns="http://www.w3.org/2000/svg">
<path d="M23.1654 25.4139C23.4358 25.4046 23.6983 25.5062 23.8932 25.6938C24.4164 26.1977 25.0466 26.5787 25.7357 26.8084C26.4247 27.038 27.1569 27.1112 27.8776 27.022C28.4253 26.9544 28.9241 27.3429 28.9922 27.8905C29.0599 28.4384 28.6704 28.9385 28.1224 29.0063C27.1061 29.1321 26.0744 29.0294 25.1029 28.7056C24.4333 28.4824 23.805 28.1559 23.237 27.7433C22.8512 28.0497 22.4278 28.3091 21.9753 28.5103C21.2276 28.8424 20.4184 29.0141 19.6003 29.0142C18.7819 29.0142 17.9719 28.8426 17.224 28.5103C16.7858 28.3155 16.3759 28.0656 16 27.772C15.6241 28.0656 15.2143 28.3155 14.776 28.5103C14.0281 28.8426 13.2182 29.0141 12.3997 29.0142C11.5817 29.0141 10.7724 28.8424 10.0247 28.5103C9.57194 28.309 9.14769 28.0499 8.76172 27.7433C8.19387 28.1557 7.56643 28.4825 6.89714 28.7056C5.92564 29.0294 4.8939 29.132 3.8776 29.0063C3.32956 28.9385 2.94008 28.4385 3.00781 27.8905C3.07594 27.3428 3.57465 26.9544 4.1224 27.022C4.84313 27.1112 5.57534 27.038 6.26432 26.8084C6.95346 26.5787 7.58357 26.1978 8.10677 25.6938L8.18229 25.6274C8.36694 25.4824 8.59784 25.4057 8.83464 25.4139C9.10499 25.4234 9.36025 25.5427 9.54167 25.7433C9.90255 26.143 10.3439 26.4634 10.8359 26.6821C11.3281 26.9008 11.8612 27.0141 12.3997 27.0142C12.9383 27.0141 13.4714 26.9009 13.9635 26.6821C14.4558 26.4634 14.8968 26.1431 15.2578 25.7433L15.332 25.6691C15.5146 25.5054 15.7524 25.4139 16 25.4139C16.2828 25.4139 16.5526 25.5335 16.7422 25.7433C17.1031 26.1431 17.5443 26.4634 18.0365 26.6821C18.5286 26.9008 19.0617 27.0142 19.6003 27.0142C20.1388 27.0141 20.6719 26.9008 21.1641 26.6821C21.6562 26.4634 22.0974 26.143 22.4583 25.7433L22.5286 25.6717C22.7028 25.5142 22.9286 25.4222 23.1654 25.4139Z" fill="#FAFAFA"/>
<path d="M12 17.4139C12.5522 17.414 13 17.8617 13 18.4139C12.9999 18.966 12.5521 19.4138 12 19.4139H10.3997C9.84752 19.4139 9.39985 18.9661 9.39974 18.4139C9.39974 17.8616 9.84746 17.4139 10.3997 17.4139H12Z" fill="#FAFAFA"/>
<path d="M16.8008 17.4139C17.3529 17.414 17.8008 17.8617 17.8008 18.4139C17.8007 18.966 17.3529 19.4138 16.8008 19.4139H15.2005C14.6483 19.4139 14.2006 18.9661 14.2005 18.4139C14.2005 17.8616 14.6482 17.4139 15.2005 17.4139H16.8008Z" fill="#FAFAFA"/>
<path d="M21.6003 17.4139C22.1524 17.414 22.6003 17.8617 22.6003 18.4139C22.6002 18.966 22.1524 19.4138 21.6003 19.4139H20C19.4478 19.4139 19.0001 18.9661 19 18.4139C19 17.8616 19.4477 17.4139 20 17.4139H21.6003Z" fill="#FAFAFA"/>
<path fill-rule="evenodd" clip-rule="evenodd" d="M13.0664 9.4139C13.4222 9.4139 13.7649 9.53802 14.0378 9.76156L14.151 9.86312L14.2526 9.9751C14.4762 10.248 14.6003 10.5919 14.6003 10.9478V14.2134H17.3997V10.9478C17.3997 10.5411 17.5615 10.1507 17.849 9.86312C18.1365 9.57556 18.5269 9.4139 18.9336 9.4139H21.0664C21.4222 9.4139 21.7649 9.53802 22.0378 9.76156L22.151 9.86312L22.2526 9.9751C22.4762 10.248 22.6003 10.5919 22.6003 10.9478V14.2134C23.2295 14.2164 23.8367 14.4478 24.3086 14.8644C24.7834 15.2837 25.0893 15.8622 25.168 16.4907L25.6823 20.6131H27.2005C27.3878 20.6132 27.5738 20.642 27.7513 20.6991L27.9271 20.7668L28.0938 20.8501C28.2016 20.9118 28.3029 20.985 28.3958 21.0675L28.5299 21.1991L28.6484 21.3436C28.7224 21.4437 28.7855 21.552 28.8372 21.6652L28.9062 21.8384L28.957 22.0194C28.9975 22.1999 29.0085 22.3865 28.9922 22.5715C28.8917 23.7238 28.5815 24.8496 28.0768 25.8905C27.8358 26.3873 27.2378 26.595 26.7409 26.354C26.2445 26.1129 26.0368 25.5147 26.2773 25.0181C26.6443 24.2612 26.8808 23.4476 26.9779 22.6131H5.02214C5.10723 23.3385 5.29564 24.049 5.58333 24.7212C5.80061 25.2287 5.5658 25.8161 5.05859 26.0337C4.55092 26.2511 3.96221 26.0166 3.74479 25.509C3.34576 24.5769 3.0975 23.5866 3.00781 22.5767L3 22.3892C3.00254 22.2026 3.03399 22.016 3.09375 21.8384L3.16276 21.6652C3.24041 21.4954 3.34491 21.3375 3.47135 21.1991L3.60417 21.0675C3.74368 20.9436 3.90277 20.8424 4.07422 20.7668L4.2487 20.6991C4.42623 20.642 4.61225 20.6145 4.79948 20.6144L6.31771 20.6131L6.83333 16.4907C6.91202 15.8622 7.21793 15.2837 7.69271 14.8644C8.16434 14.4482 8.77097 14.2167 9.39974 14.2134V10.9478C9.39974 10.5411 9.56146 10.1507 9.84896 9.86312C10.1365 9.57556 10.5269 9.4139 10.9336 9.4139H13.0664ZM9.41276 16.2134C9.26675 16.2135 9.12512 16.2665 9.01562 16.3631C8.90611 16.4598 8.8359 16.5945 8.81771 16.7394L8.33333 20.6131H23.668L23.1836 16.7394C23.1654 16.5945 23.0939 16.4598 22.9844 16.3631C22.875 16.2669 22.7342 16.2136 22.5885 16.2134H9.41276ZM11.3997 14.2134H12.6003V11.4139H11.3997V14.2134ZM19.3997 14.2134H20.6003V11.4139H19.3997V14.2134Z" fill="#FAFAFA"/>
<path d="M15.2005 3.01416C15.7526 3.01444 16.2005 3.46205 16.2005 4.01416C16.2004 4.80904 15.7795 5.36651 15.3398 5.73291C14.9331 6.07165 14.4183 6.32322 14.0469 6.50895C13.6191 6.72286 13.3337 6.87158 13.1406 7.03239C12.9806 7.16577 13 7.20981 13 7.21468C12.9995 7.76652 12.552 8.21468 12 8.21468C11.448 8.21468 11.0005 7.76652 11 7.21468C11 6.41985 11.4198 5.86241 11.8594 5.49593C12.266 5.15708 12.7807 4.9057 13.1523 4.71989C13.5804 4.50589 13.8667 4.35728 14.0599 4.19645C14.216 4.06634 14.2014 4.02089 14.2005 4.01416C14.2005 3.46188 14.6482 3.01416 15.2005 3.01416Z" fill="#FAFAFA"/>
<path d="M23.2005 3.01416C23.7526 3.01444 24.2005 3.46205 24.2005 4.01416C24.2004 4.80904 23.7795 5.36651 23.3398 5.73291C22.9331 6.07165 22.4183 6.32322 22.0469 6.50895C21.6191 6.72286 21.3337 6.87158 21.1406 7.03239C20.9806 7.16577 21 7.20981 21 7.21468C20.9995 7.76652 20.552 8.21468 20 8.21468C19.448 8.21468 19.0005 7.76652 19 7.21468C19 6.41985 19.4198 5.86241 19.8594 5.49593C20.266 5.15708 20.7807 4.9057 21.1523 4.71989C21.5804 4.50589 21.8667 4.35728 22.0599 4.19645C22.216 4.06634 22.2014 4.02089 22.2005 4.01416C22.2005 3.46188 22.6482 3.01416 23.2005 3.01416Z" fill="#FAFAFA"/>
</svg>
