<svg width="32" height="32" viewBox="0 0 32 32" fill="none" xmlns="http://www.w3.org/2000/svg">
<path d="M5.21354 19.5807C5.60402 19.1902 6.23707 19.1903 6.6276 19.5807C7.01787 19.9712 7.01804 20.6043 6.6276 20.9947L5.5612 22.0611C5.17075 22.4514 4.53764 22.4514 4.14714 22.0611C3.75678 21.6706 3.75677 21.0376 4.14714 20.6471L5.21354 19.5807Z" fill="#FAFAFA"/>
<path d="M25.3737 19.5807C25.7642 19.1901 26.3972 19.1901 26.7878 19.5807L27.8542 20.6471C28.2443 21.0376 28.2446 21.6707 27.8542 22.0611C27.4637 22.4513 26.8306 22.4512 26.4401 22.0611L25.3737 20.9947C24.9833 20.6043 24.9834 19.9712 25.3737 19.5807Z" fill="#FAFAFA"/>
<path fill-rule="evenodd" clip-rule="evenodd" d="M9.33333 10.7538C10.2581 10.7539 11.2623 10.8679 12.181 11.2616L12.1797 11.2629C14.0084 12.0026 15.4529 13.5671 15.4531 15.4869C15.453 17.4069 14.0086 18.9725 12.1797 19.7122C11.2611 20.1057 10.258 20.2199 9.33333 20.22H8.79948C8.36784 20.2198 8.01976 20.0144 7.79948 19.7942C7.59819 19.5929 7.41143 19.2846 7.38021 18.9036C7.08114 16.2118 7.07981 14.7622 7.37891 12.0702C7.41027 11.6895 7.59832 11.3808 7.79948 11.1796C8.01978 10.9595 8.3681 10.754 8.79948 10.7538H9.33333ZM9.32031 12.7538C9.1037 14.854 9.10244 16.1201 9.31901 18.22H9.33333C10.1149 18.2199 10.8188 18.1211 11.3932 17.8749L11.4154 17.8658C12.7754 17.3217 13.453 16.3322 13.4531 15.4869C13.4529 14.6417 12.7751 13.6534 11.4154 13.1093C11.4081 13.1064 11.4004 13.1033 11.3932 13.1002C10.8188 12.854 10.115 12.7539 9.33333 12.7538H9.32031Z" fill="#FAFAFA"/>
<path fill-rule="evenodd" clip-rule="evenodd" d="M23.2005 10.7538C23.632 10.7539 23.9802 10.9595 24.2005 11.1796C24.4017 11.3808 24.5884 11.6895 24.6198 12.0702C24.9189 14.7624 24.9202 16.2128 24.6211 18.9049L24.6198 18.9036C24.5886 19.2845 24.4018 19.5929 24.2005 19.7942C23.9802 20.0144 23.6322 20.2199 23.2005 20.22H22.6667C21.7419 20.22 20.7378 20.1072 19.819 19.7135C17.9905 18.9737 16.547 17.4066 16.5469 15.4869C16.5471 13.5675 17.9908 12.0027 19.819 11.2629C20.7377 10.8692 21.7419 10.7538 22.6667 10.7538H23.2005ZM22.6667 12.7538C21.8852 12.7538 21.1825 12.8541 20.6081 13.1002C20.6006 13.1034 20.5921 13.1063 20.5846 13.1093C19.2248 13.6534 18.5471 14.6417 18.5469 15.4869C18.547 16.2792 19.1425 17.1977 20.3372 17.7577L20.5846 17.8658L20.6081 17.8749C21.1824 18.1209 21.8853 18.22 22.6667 18.22H22.681C22.8975 16.1201 22.8963 14.854 22.6797 12.7538H22.6667Z" fill="#FAFAFA"/>
<path d="M5.38672 14.4869C5.93889 14.4869 6.38658 14.9348 6.38672 15.4869C6.38664 16.0391 5.93892 16.4869 5.38672 16.4869H4C3.44777 16.4869 3.00008 16.0391 3 15.4869C3.00014 14.9347 3.4478 14.4869 4 14.4869H5.38672Z" fill="#FAFAFA"/>
<path d="M28 14.4869C28.5522 14.4869 28.9999 14.9348 29 15.4869C28.9999 16.0391 28.5522 16.4869 28 16.4869H26.6133C26.061 16.4869 25.6134 16.0391 25.6133 15.4869C25.6134 14.9347 26.0611 14.4869 26.6133 14.4869H28Z" fill="#FAFAFA"/>
<path d="M4.14583 8.91399C4.53636 8.52346 5.16937 8.52346 5.5599 8.91399L6.6263 9.98039C7.01647 10.3709 7.01671 11.004 6.6263 11.3945C6.23587 11.7846 5.6027 11.7845 5.21224 11.3945L4.14583 10.328C3.7554 9.93762 3.75559 9.30453 4.14583 8.91399Z" fill="#FAFAFA"/>
<path d="M26.4401 8.91399C26.8306 8.52351 27.4636 8.52359 27.8542 8.91399C28.2444 9.30453 28.2446 9.93761 27.8542 10.328L26.7878 11.3945C26.3973 11.7848 25.7642 11.7847 25.3737 11.3945C24.9833 11.004 24.9833 10.3709 25.3737 9.98039L26.4401 8.91399Z" fill="#FAFAFA"/>
</svg>
