<svg width="32" height="32" viewBox="0 0 32 32" fill="none" xmlns="http://www.w3.org/2000/svg">
<path fill-rule="evenodd" clip-rule="evenodd" d="M15.334 6.2857L9.28298 10.6424C8.65895 11.0917 7.90947 11.3335 7.14053 11.3335H5.00065C4.08018 11.3335 3.33398 12.0797 3.33398 13.0001V19.0001C3.33398 19.9206 4.08018 20.6668 5.00065 20.6668H7.14053C7.90947 20.6668 8.65895 20.9085 9.28298 21.3578L15.334 25.7146V6.2857ZM14.6935 4.28239C15.7959 3.48862 17.334 4.27645 17.334 5.63495V26.3653C17.334 27.7238 15.7959 28.5116 14.6935 27.7179L8.11437 22.9809C7.83072 22.7767 7.49005 22.6668 7.14053 22.6668H5.00065C2.97561 22.6668 1.33398 21.0252 1.33398 19.0001V13.0001C1.33398 10.9751 2.97561 9.33346 5.00065 9.33346H7.14053C7.49005 9.33346 7.83072 9.22358 8.11437 9.01935L14.6935 4.28239ZM25.334 10.6668C25.8863 10.6668 26.334 11.1145 26.334 11.6668V15.0001H29.6673C30.2196 15.0001 30.6673 15.4478 30.6673 16.0001C30.6673 16.5524 30.2196 17.0001 29.6673 17.0001H26.334V20.3335C26.334 20.8857 25.8863 21.3335 25.334 21.3335C24.7817 21.3335 24.334 20.8857 24.334 20.3335V17.0001H21.0007C20.4484 17.0001 20.0007 16.5524 20.0007 16.0001C20.0007 15.4478 20.4484 15.0001 21.0007 15.0001H24.334V11.6668C24.334 11.1145 24.7817 10.6668 25.334 10.6668Z" fill="#FAFAFA"/>
</svg>
