<svg width="32" height="32" viewBox="0 0 32 32" fill="none" xmlns="http://www.w3.org/2000/svg">
<path fill-rule="evenodd" clip-rule="evenodd" d="M13.2769 5.13517C13.2769 3.4395 15.2547 2.51318 16.5573 3.59873L22.6534 8.67883L22.0953 9.34857L22.6534 8.67883C23.6186 9.48312 23.6119 10.9676 22.6395 11.7632L17.4611 16.0001L22.6395 20.2371C23.6119 21.0326 23.6186 22.5171 22.6534 23.3214L16.5573 28.4015C15.2547 29.4871 13.2769 28.5608 13.2769 26.8651V19.4235L7.68796 23.9963C7.26051 24.346 6.63049 24.283 6.28076 23.8556C5.93103 23.4281 5.99404 22.7981 6.42148 22.4484L13.2769 16.8394V15.1609L6.42148 9.55186C5.99404 9.20214 5.93103 8.57211 6.28076 8.14467C6.63049 7.71722 7.26051 7.65422 7.68796 8.00395L13.2769 12.5768V5.13517ZM15.8819 14.7081L15.2769 14.2131V5.13517L21.3731 10.2153L15.8819 14.7081ZM15.8819 17.2922L15.2769 17.7871V26.8651L21.3731 21.785L15.8819 17.2922Z" fill="#FAFAFA"/>
</svg>
