<svg width="32" height="32" viewBox="0 0 32 32" fill="none" xmlns="http://www.w3.org/2000/svg">
<path d="M23.7064 21.6663H28.3327C28.8849 21.6663 29.3326 22.1141 29.3327 22.6663C29.3327 23.2186 28.885 23.6663 28.3327 23.6663H25.0215L26.209 27.9775C26.3554 28.5099 26.0444 29.0694 25.515 29.2262C24.9858 29.3828 24.438 29.0784 24.291 28.5465L22.946 23.6663H9.05143L7.70898 28.5465C7.56205 29.0787 7.01307 29.3831 6.48372 29.2262C5.95447 29.0693 5.64461 28.5098 5.79102 27.9775L6.97852 23.6663L3.66602 23.6676C3.11387 23.6676 2.66621 23.2198 2.66602 22.6676C2.666 22.1154 3.11373 21.6677 3.66602 21.6676L8.24023 21.6663C8.28457 21.6648 8.32932 21.6617 8.37435 21.6663H23.6322C23.657 21.664 23.6818 21.6668 23.7064 21.6663Z" fill="#FAFAFA"/>
<path fill-rule="evenodd" clip-rule="evenodd" d="M21.9993 9.66634C22.9717 9.66634 23.9042 10.053 24.5918 10.7406C25.2794 11.4281 25.6659 12.3607 25.666 13.333C25.666 14.3054 25.2794 15.2378 24.5918 15.9255C23.9041 16.6131 22.9718 16.9997 21.9993 16.9997H21.6113C21.5005 17.6182 21.2235 18.2008 20.7988 18.6689C20.2315 19.2941 19.4401 19.6663 18.5918 19.6663H13.4069C12.5586 19.6663 11.7672 19.2941 11.1999 18.6689C10.6357 18.0471 10.3328 17.2227 10.3327 16.3812V11.238C10.3328 10.851 10.4715 10.4616 10.7441 10.1611L10.8522 10.0531C11.1185 9.81291 11.4697 9.66642 11.8509 9.66634H21.9993ZM21.666 14.9997H21.9993C22.4413 14.9997 22.8651 14.824 23.1777 14.5114C23.4902 14.1989 23.666 13.775 23.666 13.333C23.6659 12.8911 23.4902 12.4671 23.1777 12.1546C22.8651 11.8421 22.4412 11.6663 21.9993 11.6663H21.666V14.9997Z" fill="#FAFAFA"/>
<path d="M14.4616 4.00879C15.0139 4.00879 15.4616 4.4565 15.4616 5.00879V6.56348C15.4616 7.11576 15.0139 7.56348 14.4616 7.56348C13.9093 7.56348 13.4616 7.11576 13.4616 6.56348V5.00879C13.4616 4.4565 13.9093 4.00879 14.4616 4.00879Z" fill="#FAFAFA"/>
<path d="M17.5384 4.00879C18.0904 4.00914 18.5384 4.45672 18.5384 5.00879V6.56348C18.5384 7.11554 18.0904 7.56312 17.5384 7.56348C16.9861 7.56348 16.5384 7.11576 16.5384 6.56348V5.00879C16.5384 4.4565 16.9861 4.00879 17.5384 4.00879Z" fill="#FAFAFA"/>
</svg>
