<svg width="32" height="32" viewBox="0 0 32 32" fill="none" xmlns="http://www.w3.org/2000/svg">
<path fill-rule="evenodd" clip-rule="evenodd" d="M8.02865 11.005C8.36341 11.005 8.67661 11.1729 8.86198 11.4517L9.34766 12.1821L9.83464 11.4517L9.91016 11.3527C10.0987 11.1339 10.3739 11.0052 10.6667 11.005H11.332C12.1231 11.0052 12.8821 11.3195 13.4414 11.8787C14.0007 12.4382 14.315 13.1971 14.3151 13.9881V16.9556H23.2318C24.023 16.9556 24.7818 17.27 25.3411 17.8293L25.5391 18.048C25.9738 18.5787 26.2148 19.2464 26.2148 19.9386V27.8722C26.2145 28.4242 25.7669 28.8722 25.2148 28.8722H3.39844C2.84639 28.8722 2.39883 28.4242 2.39844 27.8722V19.9386C2.3985 19.1476 2.713 18.3887 3.27214 17.8293C3.58797 17.5135 3.96858 17.2785 4.38151 17.1313V13.9881C4.38157 13.197 4.69579 12.4382 5.25521 11.8787C5.81463 11.3193 6.57345 11.0051 7.36458 11.005H8.02865ZM5.38151 18.9556C5.12089 18.9556 4.87061 19.059 4.6862 19.2433C4.502 19.4278 4.3985 19.6782 4.39844 19.9386V26.8722H24.2148V19.9386C24.2148 19.6782 24.1113 19.4278 23.9271 19.2433C23.7426 19.0589 23.4923 18.9556 23.2318 18.9556H5.38151ZM7.36458 13.005C7.10389 13.0051 6.85362 13.1085 6.66927 13.2928C6.48492 13.4772 6.38157 13.7274 6.38151 13.9881V16.9556H12.3151V13.9881C12.315 13.7274 12.2115 13.4771 12.0273 13.2928C11.843 13.1085 11.5926 13.0052 11.332 13.005H11.2031L10.181 14.5415C9.99562 14.8203 9.68242 14.9881 9.34766 14.9881C9.01307 14.988 8.70091 14.8201 8.51562 14.5415L7.49349 13.005H7.36458Z" fill="#FAFAFA"/>
<path fill-rule="evenodd" clip-rule="evenodd" d="M17.9583 3.87223C18.1379 3.87223 18.3146 3.90943 18.4805 3.9764L18.4818 3.9751L23.5625 5.86833L25.7148 4.35791L25.7318 4.34619C26.0097 4.15961 26.3235 4.03222 26.6523 3.96989L26.8997 3.93473C27.0658 3.92039 27.2329 3.92335 27.3984 3.94255L27.6458 3.98421L27.668 3.98942C28.1498 4.10692 28.5878 4.363 28.9258 4.7264C29.2634 5.08966 29.4867 5.54459 29.569 6.03369C29.6509 6.52265 29.5887 7.0263 29.388 7.48031C29.1873 7.93411 28.8573 8.31981 28.4401 8.58838L28.4271 8.59749L19.7057 14.0155L19.7031 14.0129C19.4581 14.1688 19.1743 14.255 18.8828 14.255C18.5803 14.2549 18.2842 14.1645 18.0326 13.9959C18.0259 13.9915 18.0183 13.9862 18.0117 13.9816L14.8164 11.7238L14.8099 11.7199C14.6452 11.6016 14.5094 11.4438 14.4154 11.2603L14.4167 11.259C14.3469 11.1228 14.3006 10.976 14.2826 10.8254L14.2734 10.673L14.2826 10.5207C14.3006 10.369 14.3463 10.2201 14.4167 10.0832C14.4944 9.93213 14.602 9.80062 14.7292 9.69255L16.0729 8.49072C16.1099 8.45776 16.15 8.42801 16.1914 8.40088C16.3956 8.26721 16.6344 8.19645 16.8776 8.19645L17.0586 8.20947C17.2231 8.23356 17.3804 8.29232 17.5234 8.37874L17.526 8.37744L18.6536 9.04541L19.0208 8.7889L16.2695 7.07015C16.2339 7.04788 16.1992 7.02251 16.1667 6.99593C16.0092 6.86722 15.8813 6.70536 15.7943 6.52197C15.7291 6.38438 15.6874 6.23613 15.6706 6.08577L15.6628 5.93343L15.6706 5.78239C15.6873 5.63186 15.7291 5.484 15.7943 5.34619L15.8672 5.21208C15.9469 5.083 16.0484 4.96758 16.1667 4.87093L16.2018 4.84359L17.1875 4.11051L17.3438 4.01416C17.5352 3.92036 17.7459 3.87226 17.9583 3.87223ZM27.0234 5.93343C26.9603 5.94549 26.8997 5.97183 26.8464 6.00765L24.2812 7.80973C24.0117 7.99866 23.6652 8.04314 23.3568 7.92822L18.5456 6.13395L21.3659 7.89697C21.6504 8.07508 21.8276 8.38428 21.8359 8.71989C21.844 9.0553 21.6828 9.37304 21.4076 9.56494L19.2682 11.0545C18.9469 11.278 18.5243 11.2943 18.1875 11.0949L16.9688 10.3722L16.7031 10.6079L18.8997 12.16L27.3646 6.90088C27.4494 6.84429 27.5172 6.76505 27.5586 6.67171C27.6008 6.57608 27.6148 6.46939 27.5977 6.36572C27.5802 6.26214 27.5324 6.16537 27.4609 6.08838C27.3922 6.01446 27.3033 5.96215 27.2057 5.93603C27.1457 5.92417 27.0837 5.92203 27.0234 5.93343Z" fill="#FAFAFA"/>
<path fill-rule="evenodd" clip-rule="evenodd" d="M9.34896 3.12744C11.2704 3.12746 12.8281 4.68645 12.8281 6.60791C12.8278 8.52906 11.2702 10.0871 9.34896 10.0871C7.42771 10.0871 5.87016 8.52907 5.86979 6.60791C5.86979 4.68643 7.42749 3.12744 9.34896 3.12744ZM9.34896 5.12874C8.53205 5.12874 7.86979 5.79101 7.86979 6.60791C7.87016 7.4245 8.53228 8.08708 9.34896 8.08708C10.1656 8.08706 10.8278 7.4245 10.8281 6.60791C10.8281 5.79101 10.1658 5.12876 9.34896 5.12874Z" fill="#FAFAFA"/>
</svg>
