<svg width="32" height="32" viewBox="0 0 32 32" fill="none" xmlns="http://www.w3.org/2000/svg">
<path fill-rule="evenodd" clip-rule="evenodd" d="M22.3737 14.6222C22.8885 14.091 23.7424 14.0917 24.2578 14.6222C26.2922 16.7164 28.333 19.1075 28.3333 21.5207C28.333 24.3097 26.0865 26.5715 23.3151 26.5715C20.5438 26.5713 18.2972 24.3096 18.2969 21.5207C18.2972 19.1227 20.4062 16.6526 22.3737 14.6222ZM23.3151 16.535C22.5375 17.3632 21.8179 18.2018 21.2669 19.0363C20.5868 20.0664 20.2971 20.8893 20.2969 21.5207C20.2972 23.2171 21.6603 24.5713 23.3151 24.5715C24.97 24.5715 26.333 23.2172 26.3333 21.5207C26.3332 20.8706 26.0513 20.0592 25.388 19.0519C24.8423 18.2232 24.1186 17.3869 23.3151 16.535Z" fill="#FAFAFA"/>
<path d="M16.3997 23.8631C16.9519 23.8631 17.3996 24.311 17.3997 24.8631C17.3996 25.4153 16.9519 25.8631 16.3997 25.8631H3.66797C3.1158 25.8631 2.66814 25.4152 2.66797 24.8631C2.66814 24.311 3.1158 23.8631 3.66797 23.8631H16.3997Z" fill="#FAFAFA"/>
<path d="M16.3997 20.3019C16.952 20.3019 17.3997 20.7496 17.3997 21.3019C17.3994 21.8539 16.9518 22.3019 16.3997 22.3019H3.66797C3.11591 22.3019 2.66832 21.8539 2.66797 21.3019C2.66797 20.7496 3.1157 20.3019 3.66797 20.3019H16.3997Z" fill="#FAFAFA"/>
<path fill-rule="evenodd" clip-rule="evenodd" d="M5.86328 4.42822C7.83162 4.42837 9.54387 5.52304 10.4258 7.13656C11.1249 6.52717 12.0376 6.15623 13.0378 6.15609H15.2878V8.40609C15.2873 10.6034 13.506 12.3852 11.3086 12.3853H11.0339V16.7407H16.3997C16.952 16.7407 17.3997 17.1884 17.3997 17.7407C17.3992 18.2926 16.9517 18.7407 16.3997 18.7407H3.66797C3.11602 18.7407 2.6685 18.2925 2.66797 17.7407C2.66797 17.1884 3.1157 16.7407 3.66797 16.7407H9.03385V12.3853H8.29948C5.42959 12.385 3.1032 10.0585 3.10286 7.18864V4.42822H5.86328ZM5.10286 7.18864C5.1032 8.95404 6.53426 10.385 8.29948 10.3853H9.05859V10.1353C9.0586 10.118 9.05966 10.1004 9.0599 10.0832V9.62484C9.05957 7.85942 7.62851 6.42843 5.86328 6.42822H5.10286V7.18864ZM13.0378 8.15609C11.9538 8.15641 11.0742 9.02843 11.0599 10.1092V10.3853H11.3086C12.4013 10.3852 13.2873 9.49893 13.2878 8.40609V8.15609H13.0378Z" fill="#FAFAFA"/>
</svg>
