<svg width="32" height="32" viewBox="0 0 32 32" fill="none" xmlns="http://www.w3.org/2000/svg">
<path d="M23.513 16.25C24.0651 16.2503 24.513 16.6979 24.513 17.25C24.513 17.8021 24.0651 18.2497 23.513 18.25H23.5C22.9477 18.25 22.5 17.8023 22.5 17.25C22.5 16.6977 22.9477 16.25 23.5 16.25H23.513Z" fill="#FAFAFA"/>
<path fill-rule="evenodd" clip-rule="evenodd" d="M9.125 2.5C10.8821 2.5 12.5675 3.19768 13.8099 4.4401C15.0523 5.68253 15.75 7.36794 15.75 9.125C15.75 10.7341 15.4926 12.0233 15.0781 13.1211C15.8778 12.8213 16.7175 12.626 17.5768 12.5443C17.7764 11.3072 18.3604 10.1552 19.2578 9.25781C20.1445 8.37116 21.2799 7.79105 22.5 7.58464V6C22.5 5.44772 22.9477 5 23.5 5C24.0523 5 24.5 5.44772 24.5 6V11.3346C25.7203 11.5409 26.8555 12.1212 27.7422 13.0078C28.8674 14.133 29.5 15.6587 29.5 17.25V19.75C29.5 20.6783 29.1316 21.5689 28.4753 22.2253C27.8189 22.8816 26.9283 23.25 26 23.25H24.75C24.0207 23.25 23.3217 23.5403 22.806 24.056C22.2903 24.5717 22 25.2707 22 26C22 26.0122 21.9978 26.0243 21.9974 26.0365C21.9955 26.2732 21.9789 26.5105 21.9414 26.7461C21.9005 27.0032 21.8368 27.255 21.7552 27.5H23.5C24.0523 27.5 24.5 27.9477 24.5 28.5C24.5 29.0523 24.0523 29.5 23.5 29.5H11C6.94772 29.5 3.75 26.3023 3.75 22.25C3.75 18.2229 5.11311 15.8366 6.42969 13.944C6.60247 13.6956 6.76899 13.4609 6.92839 13.237C6.82772 13.2444 6.72662 13.25 6.625 13.25C5.53098 13.25 4.48192 12.8153 3.70833 12.0417C2.93475 11.2681 2.5 10.219 2.5 9.125C2.5 7.36794 3.19768 5.68253 4.4401 4.4401C5.68253 3.19768 7.36794 2.5 9.125 2.5ZM9.125 4.5C7.89837 4.5 6.72152 4.98681 5.85417 5.85417C4.98681 6.72152 4.5 7.89837 4.5 9.125C4.5 9.68859 4.72388 10.2291 5.1224 10.6276C5.52091 11.0261 6.06142 11.25 6.625 11.25C7.18859 11.25 7.72909 11.0261 8.1276 10.6276C8.52612 10.2291 8.75 9.68858 8.75 9.125C8.75 8.57272 9.19772 8.125 9.75 8.125C10.3023 8.125 10.75 8.57272 10.75 9.125C10.75 9.2104 10.7461 9.29546 10.7409 9.38021C10.6448 11.82 9.18872 13.4795 8.07031 15.0872C6.88705 16.7883 5.75 18.7775 5.75 22.25C5.75 25.1977 8.05229 27.5 11 27.5H19.5534C19.763 27.1775 19.9053 26.8138 19.9661 26.431C20.0489 25.9097 19.9808 25.3751 19.7682 24.8919C19.5556 24.4088 19.2072 23.9969 18.7669 23.7057C18.3267 23.4148 17.8115 23.2565 17.2839 23.25C16.7317 23.2434 16.2891 22.7904 16.2956 22.2383C16.3022 21.6861 16.7552 21.2435 17.3073 21.25C18.2191 21.261 19.1091 21.5349 19.8698 22.0378C20.3032 22.3243 20.6815 22.6811 20.9974 23.0872C21.1185 22.9312 21.2495 22.7818 21.3906 22.6406C22.2814 21.7498 23.4902 21.25 24.75 21.25H26C26.3978 21.25 26.7799 21.0925 27.0612 20.8112C27.3425 20.5299 27.5 20.1478 27.5 19.75V17.25C27.5 16.1891 27.0783 15.172 26.3281 14.4219C25.578 13.6717 24.5609 13.25 23.5 13.25C22.9477 13.25 22.5 12.8023 22.5 12.25V9.63151C21.8145 9.80885 21.1811 10.1626 20.6719 10.6719C19.9217 11.422 19.5 12.4391 19.5 13.5C19.5 14.0523 19.0523 14.5 18.5 14.5C16.4446 14.5 14.4729 15.3161 13.0195 16.7695C11.5661 18.2229 10.75 20.1946 10.75 22.25C10.75 22.8023 10.3023 23.25 9.75 23.25C9.19772 23.25 8.75 22.8023 8.75 22.25C8.75 22.0802 8.75423 21.9109 8.76302 21.7422C8.89554 18.5912 10.2529 16.8934 11.4544 15.3164C12.0794 14.4962 12.6374 13.739 13.0534 12.7943C13.4629 11.8644 13.75 10.7135 13.75 9.125C13.75 7.89837 13.2632 6.72152 12.3958 5.85417C11.5285 4.98681 10.3516 4.5 9.125 4.5Z" fill="#FAFAFA"/>
</svg>
