<svg width="32" height="32" viewBox="0 0 32 32" fill="none" xmlns="http://www.w3.org/2000/svg">
<path fill-rule="evenodd" clip-rule="evenodd" d="M16.7402 4.51144C18.1721 3.07952 20.4937 3.07952 21.9257 4.51144L27.4878 10.0735C28.9197 11.5055 28.9197 13.8271 27.4878 15.259L24.3734 18.3734C23.9828 18.7639 23.3497 18.7639 22.9592 18.3734C22.5686 17.9828 22.5686 17.3497 22.9592 16.9592L26.0735 13.8448C26.7244 13.1939 26.7244 12.1386 26.0735 11.4878L20.5114 5.92565C19.8606 5.27478 18.8053 5.27478 18.1544 5.92566L15.04 9.04004C14.6495 9.43056 14.0163 9.43056 13.6258 9.04004C13.2353 8.64951 13.2353 8.01635 13.6258 7.62582L16.7402 4.51144ZM20.7067 11.2925C21.0972 11.683 21.0972 12.3162 20.7067 12.7067L12.7067 20.7067C12.3162 21.0972 11.683 21.0972 11.2925 20.7067C10.902 20.3162 10.902 19.683 11.2925 19.2925L19.2925 11.2925C19.683 10.902 20.3162 10.902 20.7067 11.2925ZM9.04004 13.6258C9.43056 14.0163 9.43056 14.6495 9.04004 15.04L5.92566 18.1544C5.27478 18.8053 5.27478 19.8606 5.92565 20.5114L5.21855 21.2185L5.92566 20.5114L11.4878 26.0735C12.1386 26.7244 13.1939 26.7244 13.8448 26.0735L16.9592 22.9592C17.3497 22.5686 17.9828 22.5686 18.3734 22.9592C18.7639 23.3497 18.7639 23.9828 18.3734 24.3734L15.259 27.4878C13.8271 28.9197 11.5055 28.9197 10.0735 27.4878L4.51144 21.9257C3.07952 20.4937 3.07952 18.1721 4.51144 16.7402L7.62582 13.6258C8.01635 13.2353 8.64951 13.2353 9.04004 13.6258Z" fill="#FAFAFA"/>
</svg>
