<svg width="32" height="32" viewBox="0 0 32 32" fill="none" xmlns="http://www.w3.org/2000/svg">
<path d="M27.3346 16.0001C27.3346 9.74085 22.2605 4.66675 16.0013 4.66675C9.74207 4.66675 4.66797 9.74085 4.66797 16.0001C4.66797 22.2593 9.74207 27.3334 16.0013 27.3334V29.3334C8.63751 29.3334 2.66797 23.3639 2.66797 16.0001C2.66797 8.63628 8.63751 2.66675 16.0013 2.66675C23.3651 2.66675 29.3346 8.63628 29.3346 16.0001C29.3346 23.3639 23.3651 29.3334 16.0013 29.3334V27.3334C22.2605 27.3334 27.3346 22.2593 27.3346 16.0001Z" fill="#FAFAFA"/>
<path d="M22.0586 16.4363C22.38 16.3305 22.7241 16.3053 23.0586 16.3634C23.4406 16.4297 23.7973 16.6027 24.0859 16.8634L24.0846 16.8647L27.3372 19.7957C27.7474 20.1655 27.78 20.7982 27.4102 21.2084C27.0404 21.6181 26.4087 21.6507 25.9987 21.2813L22.7461 18.349L22.7448 18.3477C22.7381 18.3418 22.7283 18.3368 22.7161 18.3347C22.7037 18.3326 22.6905 18.3342 22.6797 18.3386L22.6784 18.3373L18.6758 19.9805C18.6664 19.9844 18.6592 19.9896 18.6549 19.9949C18.6513 19.9995 18.6479 20.0042 18.6471 20.0079L18.6484 20.0092L18.3346 22.1095C18.3339 22.1147 18.3351 22.1219 18.3398 22.129C18.3448 22.1363 18.3547 22.1445 18.3698 22.1485L21.1888 22.879L21.4453 22.9636C21.6952 23.0649 21.9237 23.2152 22.1172 23.4063L23.349 24.6212L23.418 24.6967C23.741 25.0874 23.7219 25.668 23.3581 26.0365C22.9702 26.4293 22.337 26.4331 21.944 26.0457L20.7122 24.8295L20.7109 24.8282L20.6862 24.8152L17.8685 24.0847C17.3835 23.9589 16.9587 23.6605 16.6784 23.2423C16.3978 22.8235 16.2823 22.315 16.3568 21.8152L16.6693 19.7136L16.7266 19.4545C16.7994 19.2008 16.9214 18.9634 17.0859 18.7553C17.3052 18.478 17.5919 18.2624 17.918 18.129L21.9219 16.4871L22.0586 16.4363Z" fill="#FAFAFA"/>
<path d="M21.668 6.66675C21.668 6.11446 22.1157 5.66675 22.668 5.66675C23.2203 5.66675 23.668 6.11446 23.668 6.66675V9.7592C23.6667 10.2236 23.5096 10.6801 23.2148 11.0483L23.2161 11.0496L20.5586 14.3751L20.5573 14.3764C20.2528 14.7562 19.8154 15.0186 19.3203 15.0899L19.319 15.0886L15.5521 15.6381H15.5495C15.0452 15.7099 14.5427 15.5744 14.1406 15.2774L11.7982 13.6277L9.32292 17.6003L9.32422 17.6016C9.31899 17.6102 9.31266 17.6265 9.3125 17.6485L9.28646 22.3113C9.28497 22.6327 9.21065 22.9518 9.0651 23.241C8.91925 23.5307 8.70429 23.7855 8.4349 23.9766L8.43359 23.9779L7.24479 24.8165C6.79372 25.1349 6.17015 25.0278 5.85156 24.5769C5.5331 24.1258 5.64022 23.5023 6.09115 23.1837L7.27865 22.3438V22.3412C7.2829 22.3326 7.28636 22.319 7.28646 22.3022L7.3125 17.6368L7.33333 17.3503C7.37372 17.0678 7.47149 16.7941 7.6237 16.5483L7.625 16.5457L10.1341 12.517L10.1367 12.5144L10.25 12.3503C10.3719 12.1928 10.5178 12.0533 10.6836 11.9376L10.8555 11.8308C11.0324 11.7329 11.2244 11.6619 11.4258 11.6238L11.6289 11.5964C11.7644 11.5857 11.9006 11.5897 12.0352 11.6082L12.2357 11.6472L12.4297 11.7058C12.6046 11.7696 12.7678 11.8599 12.9167 11.9701L15.293 13.6433L15.3047 13.6524L19.0052 13.1134L21.6549 9.80086L21.668 9.75399V6.66675Z" fill="#FAFAFA"/>
</svg>
