<svg width="32" height="32" viewBox="0 0 32 32" fill="none" xmlns="http://www.w3.org/2000/svg">
<path d="M4 3C4.55228 3 5 3.44772 5 4V27H28C28.5523 27 29 27.4477 29 28C29 28.5523 28.5523 29 28 29H4C3.44772 29 3 28.5523 3 28V4C3 3.44772 3.44772 3 4 3Z" fill="#FAFAFA"/>
<path fill-rule="evenodd" clip-rule="evenodd" d="M10.1641 17.3389C10.8897 17.3528 11.3164 17.4084 11.6094 17.6318C11.9996 17.9297 12 18.4086 12 19.3672V23.2998L11.9932 23.9336C11.9748 24.4866 11.9021 24.8118 11.6094 25.0352L11.4502 25.1338C11.0511 25.333 10.4323 25.333 9.33301 25.333L8.50293 25.3281C7.89867 25.3165 7.50091 25.2761 7.21582 25.1338L7.05762 25.0352C6.76485 24.8118 6.69117 24.4866 6.67285 23.9336L6.66699 23.2998V19.3672C6.66699 18.4085 6.66719 17.9297 7.05762 17.6318C7.44812 17.334 8.0762 17.333 9.33301 17.333L10.1641 17.3389ZM8.66699 19.3359V23.3291C8.85636 23.3314 9.07288 23.333 9.33301 23.333C9.59283 23.333 9.80981 23.3314 9.99902 23.3291C9.99905 23.3195 9.99997 23.3097 10 23.2998V19.3672C10 19.3566 9.99902 19.3462 9.99902 19.3359C9.80982 19.3337 9.59282 19.333 9.33301 19.333C9.07289 19.333 8.85635 19.3337 8.66699 19.3359Z" fill="#FAFAFA"/>
<path fill-rule="evenodd" clip-rule="evenodd" d="M17.4971 13.3389C18.2222 13.3527 18.6495 13.4071 18.9424 13.6289C19.3329 13.9251 19.333 14.4023 19.333 15.3555V23.3115L19.3271 23.9414C19.3088 24.4914 19.2352 24.816 18.9424 25.0381L18.7842 25.1357C18.3851 25.3338 17.7661 25.333 16.667 25.333L15.8359 25.3281C15.232 25.3166 14.8349 25.2771 14.5498 25.1357L14.3906 25.0381C14.0978 24.816 14.0252 24.4914 14.0068 23.9414L14 23.3115V15.3555C14 14.4023 14.0001 13.9251 14.3906 13.6289C14.7812 13.333 15.4103 13.333 16.667 13.333L17.4971 13.3389ZM16 15.3359V23.3291C16.1896 23.3314 16.4067 23.333 16.667 23.333C16.9266 23.333 17.1428 23.3314 17.332 23.3291C17.3321 23.3233 17.333 23.3174 17.333 23.3115V15.3555C17.333 15.3489 17.332 15.3424 17.332 15.3359C17.1428 15.3337 16.9266 15.333 16.667 15.333C16.4067 15.333 16.1896 15.3337 16 15.3359Z" fill="#FAFAFA"/>
<path fill-rule="evenodd" clip-rule="evenodd" d="M24.8311 5.33887C25.5563 5.35322 25.9835 5.4101 26.2764 5.63965C26.6665 5.9459 26.667 6.43939 26.667 7.4248V23.2422L26.6602 23.8945C26.6418 24.4629 26.569 24.7978 26.2764 25.0273L26.1172 25.1279C25.7181 25.3329 25.0996 25.333 24 25.333L23.1689 25.3281C22.5647 25.3162 22.1679 25.2743 21.8828 25.1279L21.7236 25.0273C21.431 24.7978 21.3582 24.4629 21.3398 23.8945L21.333 23.2422V7.4248C21.333 6.43939 21.3335 5.9459 21.7236 5.63965C22.1142 5.33356 22.7431 5.33301 24 5.33301L24.8311 5.33887ZM23.333 7.33594V23.3291C23.5222 23.3315 23.7391 23.333 24 23.333C24.2601 23.333 24.4762 23.3314 24.665 23.3291C24.6651 23.3012 24.667 23.2721 24.667 23.2422V7.4248C24.667 7.39429 24.6651 7.36439 24.665 7.33594C24.4762 7.3336 24.2601 7.33301 24 7.33301C23.7391 7.33301 23.5222 7.33358 23.333 7.33594Z" fill="#FAFAFA"/>
</svg>
