<svg width="32" height="32" viewBox="0 0 32 32" fill="none" xmlns="http://www.w3.org/2000/svg">
<path fill-rule="evenodd" clip-rule="evenodd" d="M16 12.418C16.2856 12.418 16.5576 12.5404 16.7474 12.7539L16.7604 12.7669C16.7676 12.7751 16.7774 12.7872 16.7904 12.8021C16.8165 12.832 16.8539 12.8759 16.901 12.931C16.9952 13.0411 17.1287 13.199 17.2878 13.3945C17.6054 13.785 18.0307 14.3305 18.4583 14.9453C18.8836 15.5567 19.3245 16.2567 19.6628 16.9544C19.9895 17.6284 20.2747 18.4083 20.2747 19.1497C20.2744 21.5104 18.3607 23.4245 16 23.4245C13.6393 23.4244 11.7256 21.5103 11.7253 19.1497C11.7253 18.4084 12.0105 17.6284 12.3372 16.9544C12.6755 16.2568 13.1164 15.5567 13.5417 14.9453C13.9693 14.3306 14.3946 13.785 14.7122 13.3945C14.8713 13.1991 15.0048 13.0411 15.099 12.931C15.146 12.8759 15.1836 12.832 15.2096 12.8021C15.2227 12.7871 15.2337 12.7751 15.2409 12.7669C15.2442 12.7632 15.2467 12.76 15.2487 12.7578L15.3281 12.6784C15.5112 12.512 15.7501 12.418 16 12.418ZM16 14.9909C15.7524 15.3058 15.4665 15.6806 15.1836 16.0872C14.7902 16.6527 14.4124 17.2582 14.1367 17.8268C13.8496 18.4191 13.7253 18.8679 13.7253 19.1497C13.7256 20.4058 14.7439 21.4244 16 21.4245C17.2562 21.4245 18.2744 20.4058 18.2747 19.1497C18.2747 18.8679 18.1504 18.4191 17.8633 17.8268C17.5876 17.2581 17.2098 16.6527 16.8164 16.0872C16.5335 15.6806 16.2477 15.3058 16 14.9909Z" fill="#FAFAFA"/>
<path fill-rule="evenodd" clip-rule="evenodd" d="M20.1979 2.79297C22.1672 2.79363 23.7694 4.34729 23.8555 6.29557H25.3333C26.8061 6.29557 28 7.48948 28 8.96224V26.2956C27.9996 27.768 26.8059 28.9622 25.3333 28.9622H6.66667L6.39453 28.9479C5.04984 28.8116 4.00033 27.6761 4 26.2956V8.96224C4 7.48948 5.19391 6.29557 6.66667 6.29557H8.14453C8.23059 4.34687 9.83348 2.79297 11.8034 2.79297H20.1979ZM6.66667 8.29557C6.29848 8.29557 6 8.59405 6 8.96224V26.2956C6.00035 26.6635 6.29869 26.9622 6.66667 26.9622H25.3333C25.7013 26.9622 25.9996 26.6635 26 26.2956V8.96224C26 8.59405 25.7015 8.29557 25.3333 8.29557H6.66667ZM11.8034 4.79297C10.9384 4.79297 10.2271 5.45222 10.1445 6.29557H21.8555C21.7729 5.45263 21.0624 4.79361 20.1979 4.79297H11.8034Z" fill="#FAFAFA"/>
</svg>
