<svg width="32" height="32" viewBox="0 0 32 32" fill="none" xmlns="http://www.w3.org/2000/svg">
<path fill-rule="evenodd" clip-rule="evenodd" d="M25.3327 4C27.5418 4 29.3327 5.79086 29.3327 8V18.6667L29.3275 18.8724C29.2238 20.9178 27.5838 22.5578 25.5384 22.6615L25.3327 22.6667H18.3327V25.6667H19.9993C20.5516 25.6667 20.9993 26.1144 20.9993 26.6667C20.9993 27.219 20.5516 27.6667 19.9993 27.6667H11.9993C11.4471 27.6667 10.9993 27.219 10.9993 26.6667C10.9993 26.1144 11.4471 25.6667 11.9993 25.6667H13.666V22.6667H6.66602L6.46029 22.6615C4.4149 22.5578 2.77485 20.9178 2.67122 18.8724L2.66602 18.6667V8C2.66602 5.79086 4.45688 4 6.66602 4H25.3327ZM6.66602 6C5.56145 6 4.66602 6.89543 4.66602 8V18.6667C4.66602 19.7712 5.56145 20.6667 6.66602 20.6667H25.3327C26.4373 20.6667 27.3327 19.7712 27.3327 18.6667V8C27.3327 6.89543 26.4373 6 25.3327 6H6.66602Z" fill="#FAFAFA"/>
</svg>
