<svg width="32" height="32" viewBox="0 0 32 32" fill="none" xmlns="http://www.w3.org/2000/svg">
<path fill-rule="evenodd" clip-rule="evenodd" d="M12.7381 14.0146C13.1286 13.6247 13.7618 13.6243 14.1521 14.0146C14.5422 14.4049 14.5419 15.0381 14.1521 15.4286L12.3019 17.2776L14.7211 19.6969L16.5714 17.8479C16.962 17.4581 17.5952 17.4577 17.9855 17.8479C18.3756 18.2382 18.3753 18.8715 17.9855 19.262L16.1352 21.1109L16.7068 21.6825C16.8942 21.87 16.9998 22.1245 16.9998 22.3896C16.9996 22.6545 16.8942 22.9092 16.7068 23.0966L14.7902 25.0133C14.2833 25.5337 13.678 25.9497 13.0102 26.2359C12.3374 26.5241 11.6132 26.6753 10.8813 26.6812C10.1493 26.6871 9.42329 26.5471 8.74589 26.2698C8.37932 26.1197 8.03153 25.9295 7.70683 25.706L5.20683 28.2073C4.81644 28.5976 4.18331 28.5974 3.79276 28.2073C3.40247 27.8167 3.40235 27.1837 3.79276 26.7932L6.29276 24.2919C6.06958 23.9676 5.88017 23.6202 5.73026 23.2542C5.45292 22.5768 5.31295 21.8507 5.31881 21.1187C5.32475 20.3867 5.47709 19.6627 5.76542 18.9898C6.05379 18.3169 6.47253 17.7074 6.99849 17.1982L8.90344 15.2932C9.29396 14.9027 9.92828 14.9027 10.3188 15.2932L10.8878 15.8635L12.7381 14.0146ZM8.39042 18.6357C8.05509 18.9603 7.78651 19.3486 7.60266 19.7776C7.419 20.2064 7.32263 20.6679 7.31881 21.1344C7.31506 21.6011 7.40497 22.0644 7.58183 22.4963C7.71775 22.8281 7.90319 23.1367 8.13131 23.4117C8.22779 23.4589 8.32061 23.519 8.40084 23.5992C8.47997 23.6784 8.53871 23.7697 8.58573 23.8648C8.86158 24.0946 9.1704 24.283 9.5037 24.4195C9.93567 24.5964 10.3989 24.685 10.8657 24.6812C11.3322 24.6774 11.7936 24.5811 12.2225 24.3974C12.6515 24.2135 13.0397 23.945 13.3644 23.6096L13.3761 23.5992L14.5857 22.3896L9.61047 17.4143L8.39042 18.6357Z" fill="#FAFAFA"/>
<path fill-rule="evenodd" clip-rule="evenodd" d="M26.7928 3.79321C27.1832 3.40288 27.8163 3.40295 28.2068 3.79321C28.5971 4.18372 28.5971 4.81682 28.2068 5.20727L25.7055 7.70727C25.929 8.03191 26.1193 8.37986 26.2693 8.74634C26.5466 9.42365 26.6867 10.1499 26.6808 10.8818C26.6748 11.6136 26.5237 12.338 26.2355 13.0107C25.9492 13.6785 25.5319 14.2825 25.0115 14.7893L25.0128 14.7906L23.0961 16.7073C22.9088 16.8946 22.654 17.0001 22.3891 17.0002C22.1241 17.0002 21.8696 16.8945 21.6821 16.7073L15.2928 10.3193C14.9023 9.92875 14.9023 9.29442 15.2928 8.90389L17.2094 6.98722C17.7163 6.46675 18.3215 6.05209 18.9894 5.76587C19.6623 5.47748 20.3861 5.3252 21.1183 5.31925C21.8502 5.31339 22.5763 5.45336 23.2537 5.73071C23.6198 5.88064 23.9671 6.07 24.2915 6.29321L26.7928 3.79321ZM21.1339 7.31925C20.6674 7.32308 20.206 7.41939 19.7771 7.60311C19.3481 7.78699 18.9599 8.05546 18.6352 8.39087L17.4139 9.61092L22.3891 14.5862L23.5988 13.3765L23.6092 13.3648C23.9445 13.0402 24.213 12.6519 24.3969 12.2229C24.5806 11.7941 24.6769 11.3326 24.6808 10.8661C24.6846 10.3995 24.5958 9.93603 24.4191 9.50415C24.283 9.17175 24.0959 8.86276 23.867 8.58748C23.7709 8.54031 23.6787 8.48117 23.5988 8.40128C23.5185 8.321 23.4585 8.22832 23.4113 8.13175C23.1363 7.90359 22.8277 7.71822 22.4959 7.58227C22.064 7.40541 21.6006 7.3155 21.1339 7.31925Z" fill="#FAFAFA"/>
<path d="M8.93209 4.60571C9.32262 4.21531 9.95697 4.21523 10.3475 4.60571C10.7373 4.99612 10.7373 5.62938 10.3475 6.01977L8.67297 7.69425L10.3475 9.36873C10.7379 9.75925 10.7379 10.3936 10.3475 10.7841C9.95704 11.1741 9.32383 11.1741 8.93339 10.7841L7.25761 9.10832L5.58313 10.7841C5.19274 11.1741 4.55951 11.174 4.16907 10.7841C3.77854 10.3936 3.77854 9.75926 4.16907 9.36873L5.84355 7.69425L4.16907 6.01977C3.77901 5.62934 3.77901 4.99615 4.16907 4.60571C4.55959 4.21523 5.19392 4.2152 5.58443 4.60571L7.25761 6.27889L8.93209 4.60571Z" fill="#FAFAFA"/>
</svg>
