<svg width="32" height="32" viewBox="0 0 32 32" fill="none" xmlns="http://www.w3.org/2000/svg">
<path fill-rule="evenodd" clip-rule="evenodd" d="M15.334 19.6672C18.0954 19.6672 20.334 21.9058 20.334 24.6672C20.3339 27.4286 18.0954 29.6672 15.334 29.6672C12.5726 29.6672 10.3341 27.4286 10.334 24.6672C10.334 21.9058 12.5726 19.6672 15.334 19.6672ZM15.3314 21.3339C15.0256 21.3339 14.777 21.5815 14.7767 21.8873V22.1477L14.5397 21.912C14.3234 21.6957 13.9735 21.6958 13.7572 21.912C13.5409 22.1284 13.5408 22.4782 13.7572 22.6946L14.7767 23.7154V24.11H14.3743L13.3574 23.093C13.141 22.8771 12.7898 22.8768 12.5736 23.093C12.3576 23.3092 12.3578 23.6605 12.5736 23.8769L12.8092 24.1126H12.554C12.2482 24.113 12.0006 24.3615 12.0007 24.6672C12.001 24.9732 12.2494 25.221 12.5553 25.2206H12.8105L12.5736 25.4576C12.3578 25.6739 12.3576 26.0253 12.5736 26.2415C12.7898 26.4576 13.141 26.4573 13.3574 26.2415L14.3796 25.218H14.7767V25.6191L13.7572 26.6386C13.5408 26.8549 13.5409 27.2061 13.7572 27.4225C13.9735 27.6385 14.3234 27.6386 14.5397 27.4225L14.7767 27.1855V27.4459C14.7767 27.7519 15.0254 28.0006 15.3314 28.0006C15.6369 28 15.8848 27.7515 15.8848 27.4459V27.1868L16.1204 27.4225L16.1621 27.4602C16.3797 27.6377 16.7015 27.6253 16.9043 27.4225C17.1067 27.2197 17.1191 26.899 16.9421 26.6816L16.9043 26.6386L15.8848 25.6204V25.2167L16.278 25.2154L17.3027 26.2415L17.3444 26.2792C17.5617 26.4562 17.8825 26.4435 18.0853 26.2415C18.288 26.0386 18.3018 25.7169 18.1243 25.4993L18.0853 25.4576L17.8418 25.2141H18.1139C18.4197 25.2137 18.6674 24.9651 18.6673 24.6594C18.6667 24.3536 18.4185 24.1057 18.1126 24.106H17.8561L18.0853 23.8769C18.3016 23.6605 18.3016 23.3094 18.0853 23.093C17.869 22.8774 17.5189 22.8773 17.3027 23.093L16.2871 24.1073L15.8848 24.1087V23.7141L16.9043 22.6946C17.1201 22.4783 17.1201 22.1283 16.9043 21.912C16.6879 21.6957 16.3368 21.6957 16.1204 21.912L15.8848 22.1464V21.8873C15.8845 21.5819 15.6367 21.3345 15.3314 21.3339Z" fill="#FAFAFA"/>
<path fill-rule="evenodd" clip-rule="evenodd" d="M25.2936 4.62688C25.6841 4.23635 26.3172 4.23635 26.7077 4.62688L29.3743 7.29354C29.7648 7.68407 29.7648 8.31711 29.3743 8.70761L26.7077 11.3743C26.3172 11.7647 25.6841 11.7647 25.2936 11.3743C24.9031 10.9838 24.9032 10.3507 25.2936 9.96021L26.2533 9.00058H24.9342C24.0138 9.00058 23.2676 9.74677 23.2676 10.6672V12.3339H24.6673C26.6924 12.3339 28.334 13.9755 28.334 16.0006V21.4667C28.3339 23.4917 26.6923 25.1334 24.6673 25.1334H22.6673C22.1151 25.1334 21.6674 24.6856 21.6673 24.1334C21.6676 23.5813 22.1152 23.1334 22.6673 23.1334H24.6673C25.5877 23.1334 26.3339 22.3871 26.334 21.4667V16.0006C26.334 15.0801 25.5878 14.3339 24.6673 14.3339H23.2676V16.3339C23.2675 18.1748 21.7751 19.6672 19.9342 19.6672C18.0933 19.6672 16.601 18.1748 16.6009 16.3339V14.3339H13.9342V16.3339C13.9342 18.1748 12.4418 19.6672 10.6009 19.6672C8.76001 19.6672 7.26765 18.1748 7.26758 16.3339V14.3339H6.00065C5.08018 14.3339 4.33398 15.0801 4.33398 16.0006V21.4667C4.33406 22.3871 5.08022 23.1334 6.00065 23.1334H8.00065C8.55276 23.1334 9.00037 23.5813 9.00065 24.1334C9.00058 24.6856 8.55289 25.1334 8.00065 25.1334H6.00065C3.97565 25.1334 2.33406 23.4917 2.33398 21.4667V16.0006C2.33398 13.9755 3.97561 12.3339 6.00065 12.3339H7.26758V8.00058C7.26758 7.44829 7.71529 7.00058 8.26758 7.00058C8.81986 7.00058 9.26758 7.44829 9.26758 8.00058V12.3339H11.9342V10.3339C11.9342 8.49296 13.4266 7.00058 15.2676 7.00058C17.1085 7.00058 18.6009 8.49296 18.6009 10.3339V12.3339H21.2676V10.6672C21.2676 8.6422 22.9092 7.00058 24.9342 7.00058H26.2533L25.2936 6.04094C24.9031 5.65044 24.9032 5.01741 25.2936 4.62688ZM9.26758 16.3339C9.26765 17.0702 9.86458 17.6672 10.6009 17.6672C11.3372 17.6672 11.9342 17.0702 11.9342 16.3339V14.3339H9.26758V16.3339ZM18.6009 16.3339C18.601 17.0702 19.1979 17.6672 19.9342 17.6672C20.6706 17.6672 21.2675 17.0702 21.2676 16.3339V14.3339H18.6009V16.3339ZM15.2676 9.00058C14.5312 9.00058 13.9342 9.59753 13.9342 10.3339V12.3339H16.6009V10.3339C16.6009 9.59753 16.004 9.00058 15.2676 9.00058Z" fill="#FAFAFA"/>
</svg>
