<svg width="32" height="32" viewBox="0 0 32 32" fill="none" xmlns="http://www.w3.org/2000/svg">
<path d="M22.5046 24.9753C22.8866 24.7305 23.3988 24.7713 23.7376 25.0977C24.9811 26.298 26.1612 26.3177 27.7051 26.3177C28.2572 26.3177 28.7048 26.7657 28.7051 27.3177C28.7051 27.87 28.2574 28.3177 27.7051 28.3177C26.3348 28.3177 24.6852 28.3321 23.0436 27.125C21.4571 28.304 19.9742 28.3177 19.5215 28.3177C19.0687 28.3177 17.5856 28.3048 15.9993 27.1263C14.413 28.3048 12.9298 28.3177 12.4772 28.3177C12.0243 28.3177 10.5405 28.3046 8.95378 27.125C7.31247 28.3314 5.66362 28.3177 4.29362 28.3177C3.74133 28.3177 3.29362 27.87 3.29362 27.3177C3.29394 26.7657 3.74153 26.3177 4.29362 26.3177C5.83754 26.3177 7.01759 26.2981 8.26107 25.0977L8.41602 24.9753C8.79826 24.7303 9.31152 24.7708 9.65039 25.0977C10.9299 26.3328 12.1666 26.3177 12.4772 26.3177C12.7877 26.3177 14.0256 26.333 15.3053 25.0977L15.4603 24.9753C15.8423 24.7305 16.3545 24.7714 16.6934 25.0977C17.9729 26.3329 19.2108 26.3177 19.5215 26.3177C19.8319 26.3177 21.0699 26.333 22.3496 25.0977L22.5046 24.9753Z" fill="#FAFAFA"/>
<path d="M22.5046 20.0117C22.8867 19.7668 23.3987 19.8076 23.7376 20.1341C24.9811 21.3345 26.1612 21.3542 27.7051 21.3542C28.2573 21.3542 28.7049 21.802 28.7051 22.3542C28.7051 22.9065 28.2574 23.3542 27.7051 23.3542C26.3348 23.3542 24.6852 23.3685 23.0436 22.1615C21.4571 23.3405 19.9742 23.3542 19.5215 23.3542C19.0687 23.3542 17.5856 23.3413 15.9993 22.1628C14.413 23.3413 12.9298 23.3542 12.4772 23.3542C12.0243 23.3542 10.5405 23.341 8.95378 22.1615C7.31247 23.3679 5.66362 23.3542 4.29362 23.3542C3.74133 23.3542 3.29362 22.9065 3.29362 22.3542C3.29376 21.802 3.74142 21.3542 4.29362 21.3542C5.83754 21.3542 7.01759 21.3345 8.26107 20.1341L8.41602 20.0117C8.79834 19.7666 9.31147 19.8071 9.65039 20.1341C10.9299 21.3692 12.1666 21.3542 12.4772 21.3542C12.7877 21.3542 14.0256 21.3694 15.3053 20.1341L15.4603 20.0117C15.8424 19.7668 16.3545 19.8076 16.6934 20.1341C17.9729 21.3693 19.2108 21.3542 19.5215 21.3542C19.8319 21.3542 21.0699 21.3694 22.3496 20.1341L22.5046 20.0117Z" fill="#FAFAFA"/>
<path d="M8.41602 15.0482C8.7984 14.803 9.31144 14.8434 9.65039 15.1706C10.9298 16.4055 12.1666 16.3907 12.4772 16.3906C12.7876 16.3906 14.0257 16.4057 15.3053 15.1706L15.4603 15.0482C15.8424 14.8031 16.3544 14.8439 16.6934 15.1706C17.9729 16.4056 19.2108 16.3907 19.5215 16.3906C19.8319 16.3906 21.07 16.4057 22.3496 15.1706L22.5046 15.0482C22.8867 14.8032 23.3987 14.8439 23.7376 15.1706C24.981 16.3708 26.1613 16.3906 27.7051 16.3906C28.2574 16.3906 28.7051 16.8384 28.7051 17.3906C28.7049 17.9428 28.2572 18.3906 27.7051 18.3906C26.3348 18.3906 24.6851 18.4048 23.0436 17.1979C21.4571 18.3768 19.9741 18.3906 19.5215 18.3906C19.0687 18.3906 17.5855 18.3776 15.9993 17.1992C14.4131 18.3776 12.9298 18.3906 12.4772 18.3906C12.0243 18.3906 10.5405 18.3774 8.95378 17.1979C7.31253 18.4042 5.66357 18.3906 4.29362 18.3906C3.74146 18.3906 3.29383 17.9428 3.29362 17.3906C3.29362 16.8384 3.74133 16.3906 4.29362 16.3906C5.83746 16.3906 7.01766 16.3708 8.26107 15.1706L8.41602 15.0482Z" fill="#FAFAFA"/>
<path d="M5.63346 3.96226C6.03164 3.57962 6.66483 3.5928 7.04753 3.99091C7.4302 4.38909 7.41833 5.02227 7.02018 5.40497L6.16341 6.22789H8.46549C11.4318 6.22789 13.9054 8.54921 13.9056 11.4948V12.4258C13.9055 12.9778 13.4576 13.4256 12.9056 13.4258C12.3534 13.4258 11.9057 12.978 11.9056 12.4258V11.4948C11.9054 9.72789 10.4028 8.22789 8.46549 8.22789H6.16211L7.02018 9.05211C7.41815 9.43482 7.43012 10.068 7.04753 10.4662C6.6648 10.8641 6.03157 10.8761 5.63346 10.4935L3.04622 8.00653C2.81644 7.82331 2.66602 7.54462 2.66602 7.22789C2.66612 6.90652 2.81968 6.623 3.05534 6.44013L5.63346 3.96226Z" fill="#FAFAFA"/>
<path d="M24.9499 3.99091C25.3325 3.59281 25.9657 3.57986 26.3639 3.96226L28.9473 6.44534C29.1801 6.62837 29.3326 6.90887 29.3327 7.22789C29.3327 7.54491 29.1814 7.82332 28.9512 8.00653L26.3639 10.4935C25.9657 10.8762 25.3326 10.8643 24.9499 10.4662C24.5673 10.068 24.5804 9.43479 24.9785 9.05211L25.8353 8.22789H23.5332C21.5959 8.22789 20.0933 9.72788 20.0931 11.4948V12.4258C20.093 12.978 19.6453 13.4258 19.0931 13.4258C18.5409 13.4258 18.0932 12.978 18.0931 12.4258V11.4948C18.0933 8.54922 20.5669 6.22789 23.5332 6.22789H25.8353L24.9785 5.40497C24.5804 5.02238 24.5675 4.38913 24.9499 3.99091Z" fill="#FAFAFA"/>
</svg>
