<svg width="32" height="32" viewBox="0 0 32 32" fill="none" xmlns="http://www.w3.org/2000/svg">
<path d="M9.20052 25.6276V21.0391C9.20052 20.9055 9.19601 20.7905 9.19531 20.6888C8.83125 20.6688 8.33906 20.6667 7.60026 20.6667C6.85991 20.6667 6.36692 20.6687 6.0026 20.6888C6.00191 20.7905 6 20.9055 6 21.0391V25.6276C6 25.7606 6.00192 25.8752 6.0026 25.9766C6.36692 25.9967 6.85986 26 7.60026 26V28L6.47786 27.9948C5.5804 27.9799 5.02166 27.9234 4.63021 27.7135L4.52734 27.6523C4.13206 27.3918 4.03256 27.0123 4.00781 26.3672L4 25.6276V21.0391C4 19.9208 4.00022 19.3618 4.52734 19.0143C5.05457 18.6668 5.90323 18.6667 7.60026 18.6667L8.72135 18.6719C9.70101 18.6881 10.2777 18.7536 10.6732 19.0143C11.2 19.3618 11.2005 19.921 11.2005 21.0391V25.6276L11.1914 26.3672C11.1667 27.0121 11.0682 27.3918 10.6732 27.6523L10.5703 27.7135C10.0365 28 9.19134 28 7.60026 28V26C8.33911 26 8.83124 25.9966 9.19531 25.9766C9.196 25.8752 9.20052 25.7606 9.20052 25.6276Z" fill="#FAFAFA"/>
<path d="M17.6006 25.5286V15.8047C17.6006 15.6294 17.5968 15.4835 17.5954 15.3568C17.2344 15.3359 16.7439 15.3333 16.0003 15.3333C15.256 15.3333 14.7651 15.3358 14.404 15.3568C14.4026 15.4835 14.4001 15.6294 14.4001 15.8047V25.5286C14.4001 25.7033 14.4026 25.8488 14.404 25.9753C14.7651 25.9962 15.256 26 16.0003 26V28L14.8779 27.9948C13.9805 27.9792 13.4217 27.9204 13.0303 27.7018L12.9274 27.638C12.5319 27.3665 12.4326 26.9708 12.4079 26.2982L12.4001 25.5286V15.8047C12.4001 14.6398 12.4003 14.0573 12.9274 13.6953C13.4546 13.3334 14.3034 13.3333 16.0003 13.3333L17.1214 13.3385C18.1011 13.3555 18.6777 13.4238 19.0732 13.6953C19.6001 14.0573 19.6006 14.64 19.6006 15.8047V25.5286L19.5915 26.2982C19.5668 26.9706 19.4685 27.3665 19.0732 27.638L18.9704 27.7018C18.4366 28.0002 17.5913 28 16.0003 28V26C16.744 26 17.2344 25.9962 17.5954 25.9753C17.5967 25.8488 17.6006 25.7033 17.6006 25.5286Z" fill="#FAFAFA"/>
<path d="M26.0005 25.4909V6.50911C26.0005 6.31792 25.9957 6.16068 25.994 6.02474C25.6343 6.00356 25.1448 6 24.4002 6C23.6541 6 23.1638 6.00344 22.8039 6.02474C22.8022 6.16068 22.8 6.31794 22.8 6.50911V25.4909C22.8 25.6815 22.8022 25.8383 22.8039 25.974C23.1638 25.9953 23.654 26 24.4002 26V28L23.2778 27.9948C22.3802 27.979 21.8216 27.9187 21.4302 27.6966L21.3273 27.6328C20.9318 27.3571 20.8325 26.9551 20.8078 26.2721L20.8 25.4909V6.50911C20.8 5.32633 20.8001 4.73465 21.3273 4.36719C21.8545 3.99987 22.7034 4 24.4002 4L25.5213 4.00521C26.501 4.02242 27.0777 4.09154 27.4731 4.36719C28.0002 4.73466 28.0005 5.32643 28.0005 6.50911V25.4909L27.9914 26.2721C27.9667 26.955 27.8686 27.3571 27.4731 27.6328L27.3703 27.6966C26.8365 27.9997 25.9915 28 24.4002 28V26C25.1449 26 25.6343 25.9951 25.994 25.974C25.9957 25.8383 26.0005 25.6815 26.0005 25.4909Z" fill="#FAFAFA"/>
</svg>
