<svg width="32" height="32" viewBox="0 0 32 32" fill="none" xmlns="http://www.w3.org/2000/svg">
<path fill-rule="evenodd" clip-rule="evenodd" d="M15.6116 7.33706L15.8901 10.9432C15.9382 11.5664 15.6337 12.164 15.1013 12.4914L12.0201 14.3857L15.9317 15.3308C16.2962 15.4189 16.5808 15.7035 16.6688 16.068L17.614 19.9795L19.5083 16.8983C19.8356 16.3659 20.4333 16.0614 21.0564 16.1095L24.6626 16.3881L22.3176 13.6343C21.9124 13.1585 21.8075 12.4959 22.0458 11.9182L23.4251 8.57459L20.0815 9.95385C19.5037 10.1922 18.8412 10.0872 18.3653 9.68204L15.6116 7.33706ZM13.5558 6.69202C13.4417 5.21393 15.1694 4.3336 16.2981 5.29476L19.507 8.02733L23.4033 6.42011C24.7737 5.85478 26.1449 7.22592 25.5795 8.59639L23.9723 12.4926L26.7049 15.7015C27.666 16.8302 26.7857 18.558 25.3076 18.4438L21.1054 18.1193L18.898 21.7097C18.1215 22.9726 16.2063 22.6693 15.8581 21.2282L15.1434 18.2704L5.7071 27.7066C5.31658 28.0972 4.68341 28.0972 4.29289 27.7066C3.90237 27.3161 3.90237 26.683 4.2929 26.2924L13.7292 16.8562L10.7714 16.1415C9.33038 15.7933 9.02703 13.8781 10.2899 13.1017L13.8804 10.8942L13.5558 6.69202Z" fill="#FAFAFA"/>
</svg>
