<svg width="32" height="32" viewBox="0 0 32 32" fill="none" xmlns="http://www.w3.org/2000/svg">
<path fill-rule="evenodd" clip-rule="evenodd" d="M23.4007 2.6665C23.953 2.6665 24.4007 3.11422 24.4007 3.6665V16.3175C24.593 16.2537 24.7589 16.1964 24.8968 16.1444C25.0848 16.0734 25.2228 16.0159 25.3095 15.9777C25.3528 15.9587 25.3841 15.9445 25.402 15.936C25.4108 15.9319 25.4176 15.9282 25.4202 15.9269C25.9128 15.6809 26.5121 15.8802 26.7601 16.3722C26.9926 16.8345 26.8329 17.3914 26.4059 17.6639L26.316 17.7147L26.2952 17.7251C26.2851 17.73 26.2712 17.7369 26.2548 17.7446C26.2215 17.7604 26.1746 17.7811 26.1155 17.8071C25.9968 17.8594 25.8262 17.9315 25.6038 18.0155C25.1956 18.1696 24.6118 18.3627 23.8551 18.561L17.7093 22.9946L23.9853 27.522C24.4329 27.8452 24.5336 28.47 24.2106 28.9178C23.8874 29.3656 23.2626 29.4662 22.8147 29.1431L16.0009 24.2264L9.18584 29.1444C8.73819 29.4673 8.11329 29.3664 7.79 28.9191C7.46696 28.4712 7.56872 27.8464 8.01657 27.5233L14.2926 22.9946L8.14938 18.5623C7.39078 18.3636 6.80567 18.1698 6.39678 18.0155C6.17438 17.9315 6.00379 17.8594 5.88506 17.8071C5.82591 17.7811 5.77911 17.7604 5.74573 17.7446C5.72924 17.7368 5.71552 17.73 5.70537 17.7251L5.68454 17.7147C5.1915 17.4663 4.99249 16.8654 5.24053 16.3722C5.48871 15.8798 6.0888 15.6812 6.58167 15.9282C6.58424 15.9295 6.5899 15.9319 6.5986 15.936C6.61651 15.9445 6.64782 15.9587 6.69105 15.9777C6.77772 16.0159 6.91565 16.0733 7.10381 16.1444C7.24201 16.1965 7.40819 16.2548 7.6012 16.3188V3.6665C7.6012 3.11422 8.04892 2.6665 8.6012 2.6665C9.15319 2.66686 9.6012 3.11444 9.6012 3.6665V4.31104H22.4007V3.6665C22.4007 3.11422 22.8484 2.6665 23.4007 2.6665ZM16.0009 21.7616L19.3772 19.3254C18.3627 19.419 17.2373 19.4764 16.0009 19.4764C14.7647 19.4764 13.6393 19.4189 12.6246 19.3254L16.0009 21.7616ZM9.6012 16.854C11.1422 17.1838 13.2751 17.4764 16.0009 17.4764C18.7271 17.4764 20.8598 17.1839 22.4007 16.854V12.7446H9.6012V16.854ZM9.6012 10.7446H22.4007V6.31103H9.6012V10.7446Z" fill="#FAFAFA"/>
</svg>
