<svg width="32" height="32" viewBox="0 0 32 32" fill="none" xmlns="http://www.w3.org/2000/svg">
<path d="M12.0371 13.3677C11.0754 13.368 10.1362 13.8594 9.73145 14.814L8.04785 18.2925H6.91797C4.52484 18.2925 2.66919 20.1563 2.66895 22.5601V24.2007C2.66916 25.6198 3.87141 26.8257 5.28418 26.8257H5.97852C6.32584 28.2636 7.61218 29.3333 9.15039 29.3335C10.6885 29.333 11.976 28.2634 12.3232 26.8257H18.833C19.1803 28.2636 20.4666 29.3334 22.0049 29.3335C23.543 29.3332 24.8295 28.2635 25.1768 26.8257H26.5254C27.9377 26.825 29.1394 25.6194 29.1396 24.2007V22.5601C29.1394 20.1566 27.2842 18.293 24.8916 18.2925H22.4287L25.3311 15.3765H28.168L28.2656 15.3716C28.7554 15.3217 29.1392 14.9068 29.1396 14.4019C29.1396 13.8965 28.7556 13.4801 28.2656 13.4302L28.168 13.4253H24.9287C24.7356 13.4253 24.548 13.4824 24.3896 13.5884L24.2422 13.7104L21.1084 16.8589L20.1074 14.7974L20.0674 14.7222L19.9746 14.5737C19.4855 13.8547 18.689 13.3681 17.8105 13.3677H12.0371ZM22.0049 24.7388C22.7263 24.7392 23.3113 25.3266 23.3115 26.0513C23.3113 26.776 22.7264 27.3634 22.0049 27.3638C21.2832 27.3636 20.6984 26.7762 20.6982 26.0513C20.6985 25.3264 21.2832 24.7389 22.0049 24.7388ZM9.15039 24.7388C9.87171 24.7394 10.4578 25.3267 10.458 26.0513C10.4578 26.7759 9.87175 27.3631 9.15039 27.3638C8.42881 27.3635 7.84394 26.7761 7.84375 26.0513C7.844 25.3265 8.42884 24.739 9.15039 24.7388ZM24.8916 20.2622C26.2013 20.2627 27.1785 21.2444 27.1787 22.5601V24.2007C27.1785 24.5317 26.8549 24.8562 26.5254 24.8569H25.0479C24.5722 23.6353 23.3896 22.7684 22.0049 22.7681C20.6202 22.7682 19.4388 23.6354 18.9629 24.8569H12.1924C11.7167 23.6355 10.5349 22.7685 9.15039 22.7681C7.76591 22.7682 6.58435 23.6356 6.1084 24.8569H5.28418C4.95431 24.8569 4.63013 24.532 4.62988 24.2007V22.5601C4.63011 21.244 5.60774 20.2622 6.91797 20.2622H24.8916ZM17.8105 15.3374C17.9581 15.3379 18.1965 15.4356 18.3711 15.7114L19.6201 18.2925H10.2275L11.5039 15.6597C11.5139 15.6388 11.5217 15.6157 11.5303 15.5942C11.5732 15.4874 11.7097 15.3376 12.0371 15.3374H17.8105ZM23.1621 4.53955C22.766 4.22818 22.191 4.26218 21.835 4.63428C21.4797 5.00639 21.4689 5.58431 21.7939 5.96924L21.8633 6.04443L21.9854 6.17432C22.1003 6.3112 22.1932 6.46583 22.2607 6.63232C22.3508 6.85437 22.3932 7.09386 22.3857 7.3335C22.3854 7.3437 22.3857 7.35454 22.3857 7.36475C22.3855 7.63181 22.2394 7.87046 21.7822 8.43408C21.4161 8.88538 20.7451 9.65749 20.7324 10.7329C20.7164 11.2511 20.8082 11.7674 21.0029 12.2476C21.1734 12.6679 21.4194 13.0528 21.7275 13.3833L21.8633 13.521L21.9395 13.5884C22.3354 13.8999 22.9114 13.8654 23.2676 13.4937C23.6234 13.1214 23.6343 12.5428 23.3086 12.1577L23.2393 12.0845L23.1172 11.9526C23.0024 11.8158 22.9093 11.661 22.8418 11.4946C22.7519 11.2728 22.7094 11.0339 22.7168 10.7944C22.7171 10.7843 22.7168 10.7733 22.7168 10.7632C22.717 10.4962 22.8635 10.2571 23.3203 9.69385C23.6863 9.24262 24.3575 8.47084 24.3701 7.39502L24.3711 7.396C24.3873 6.87752 24.2944 6.36078 24.0996 5.88037C23.9291 5.46006 23.6832 5.07508 23.375 4.74463L23.2393 4.60596L23.1621 4.53955ZM28.126 2.87744C27.7301 2.56596 27.155 2.60041 26.7988 2.97217C26.4436 3.34423 26.4319 3.92218 26.7568 4.30713L26.8271 4.38232L26.9482 4.51221C27.0632 4.64904 27.156 4.80378 27.2236 4.97021C27.3136 5.19217 27.3561 5.43184 27.3486 5.67139C27.3483 5.6815 27.3486 5.69251 27.3486 5.70264C27.3484 5.96975 27.2025 6.20912 26.7451 6.77295C26.379 7.22428 25.7089 7.99561 25.6963 9.0708C25.6802 9.58895 25.7712 10.1053 25.9658 10.5854C26.1364 11.0059 26.3831 11.3916 26.6914 11.7222L26.8271 11.8599L26.9033 11.9272C27.2991 12.2384 27.8743 12.204 28.2305 11.8325C28.5866 11.4603 28.5972 10.8818 28.2715 10.4966L28.2021 10.4224L28.0801 10.2915C27.9652 10.1546 27.8732 9.99903 27.8057 9.83252C27.7158 9.61076 27.6723 9.37262 27.6797 9.1333C27.68 9.12317 27.6797 9.1122 27.6797 9.10205C27.6797 8.83485 27.8261 8.59535 28.2832 8.03174C28.6492 7.58047 29.3205 6.80886 29.333 5.73291L29.334 5.73389C29.3502 5.21552 29.2572 4.69956 29.0625 4.21924C28.892 3.79872 28.6462 3.4131 28.3379 3.08252L28.2021 2.94385L28.126 2.87744Z" fill="#FAFAFA"/>
</svg>
