<svg width="32" height="32" viewBox="0 0 32 32" fill="none" xmlns="http://www.w3.org/2000/svg">
<path d="M16 8.33325C18.0333 8.33325 19.9828 9.14157 21.4206 10.5793C22.6205 11.7793 23.3799 13.3359 23.599 14.9999H28C28.5523 14.9999 29 15.4476 29 15.9999C29 16.5522 28.5523 16.9999 28 16.9999H23.6003C23.3812 18.664 22.6205 20.2205 21.4206 21.4205C19.9828 22.8583 18.0333 23.6666 16 23.6666C13.9667 23.6666 12.0172 22.8583 10.5794 21.4205C10.1889 21.03 10.1889 20.397 10.5794 20.0064C10.97 19.6164 11.6031 19.6161 11.9935 20.0064C13.0562 21.0691 14.4971 21.6666 16 21.6666C17.5029 21.6666 18.9438 21.0691 20.0065 20.0064C21.0027 19.0102 21.5906 17.6817 21.6602 16.2812L21.6667 15.9999C21.6667 14.497 21.0692 13.0561 20.0065 11.9934C18.9438 10.9307 17.5029 10.3333 16 10.3333L15.7188 10.3398C14.3182 10.4093 12.9897 10.9972 11.9935 11.9934C11.6031 12.3838 10.97 12.3834 10.5794 11.9934C10.1889 11.6029 10.1889 10.9699 10.5794 10.5793C11.9273 9.23143 13.7249 8.43638 15.6198 8.34237L16 8.33325Z" fill="#FAFAFA"/>
<path d="M15.293 12.6262C15.6835 12.2357 16.3165 12.2357 16.707 12.6262L19.3737 15.2929C19.5612 15.4804 19.6667 15.7347 19.6667 15.9999C19.6667 16.2651 19.5612 16.5194 19.3737 16.7069L16.707 19.3736C16.3165 19.7641 15.6835 19.7641 15.293 19.3736C14.9024 18.9831 14.9024 18.3501 15.293 17.9596L16.2526 16.9999H4C3.44772 16.9999 3 16.5522 3 15.9999C3 15.4476 3.44772 14.9999 4 14.9999H16.2526L15.293 14.0403C14.9024 13.6498 14.9024 13.0167 15.293 12.6262Z" fill="#FAFAFA"/>
</svg>
