<svg width="32" height="32" viewBox="0 0 32 32" fill="none" xmlns="http://www.w3.org/2000/svg">
<path d="M25.667 24.7995C25.667 24.4099 25.6667 24.1773 25.6527 24.0052C25.6396 23.8451 25.6194 23.8271 25.6305 23.849C25.5986 23.7862 25.5474 23.7351 25.4847 23.7031C25.5065 23.7143 25.4885 23.6941 25.3284 23.681C25.1564 23.6669 24.9237 23.6667 24.5342 23.6667H23.4665C23.0769 23.6667 22.8443 23.6669 22.6722 23.681C22.5121 23.6941 22.4941 23.7143 22.5159 23.7031C22.4532 23.7351 22.4021 23.7862 22.3701 23.849C22.3812 23.8271 22.3611 23.8451 22.348 24.0052C22.3339 24.1773 22.3337 24.4099 22.3337 24.7995V25.8672C22.3337 26.2567 22.3339 26.4894 22.348 26.6615C22.3611 26.8215 22.3812 26.8395 22.3701 26.8177C22.4021 26.8804 22.4532 26.9316 22.5159 26.9635C22.4941 26.9524 22.5121 26.9726 22.6722 26.9857C22.8443 26.9997 23.0769 27 23.4665 27H24.5342C24.9237 27 25.1564 26.9997 25.3284 26.9857C25.4885 26.9726 25.5065 26.9524 25.4847 26.9635C25.5474 26.9316 25.5986 26.8804 25.6305 26.8177C25.6194 26.8395 25.6396 26.8215 25.6527 26.6615C25.6667 26.4894 25.667 26.2567 25.667 25.8672V24.7995ZM11.6644 7.66667C11.6621 7.84375 11.657 8.00906 11.6449 8.15755C11.6216 8.44161 11.5695 8.75298 11.4131 9.0599C11.1894 9.49871 10.8324 9.85576 10.3936 10.0794C10.0866 10.2358 9.77527 10.288 9.49121 10.3112C9.35039 10.3227 9.1944 10.3282 9.02767 10.3307L6.99642 21.707C7.23165 21.7375 7.48085 21.7952 7.72689 21.9206C8.1657 22.1442 8.52275 22.5013 8.74642 22.9401C8.9028 23.247 8.95495 23.5584 8.97819 23.8424C8.99032 23.9909 8.99542 24.1562 8.99772 24.3333H20.3363C20.3386 24.1562 20.3437 23.9909 20.3558 23.8424C20.379 23.5584 20.4312 23.247 20.5876 22.9401C20.8112 22.5013 21.1683 22.1442 21.6071 21.9206C21.914 21.7642 22.2254 21.712 22.5094 21.6888C22.7818 21.6665 23.1098 21.6667 23.4665 21.6667H23.5133L25.1357 10.306C24.8628 10.281 24.5661 10.2284 24.2738 10.0794C23.835 9.85576 23.4779 9.4987 23.2542 9.0599C23.0978 8.75298 23.0457 8.44161 23.0225 8.15755C23.0103 8.00906 23.0052 7.84375 23.0029 7.66667H11.6644ZM3.66699 25.8672C3.66699 26.2567 3.66725 26.4894 3.68131 26.6615C3.69443 26.8215 3.71458 26.8395 3.70345 26.8177C3.73541 26.8804 3.78656 26.9316 3.84928 26.9635C3.82744 26.9524 3.84545 26.9726 4.00553 26.9857C4.17763 26.9997 4.41025 27 4.7998 27H5.86751C6.25707 27 6.48969 26.9997 6.66178 26.9857C6.82187 26.9726 6.83987 26.9524 6.81803 26.9635C6.88076 26.9316 6.93191 26.8804 6.96387 26.8177C6.95274 26.8395 6.97289 26.8215 6.986 26.6615C7.00006 26.4894 7.00032 26.2567 7.00033 25.8672V24.7995C7.00032 24.4099 7.00006 24.1773 6.986 24.0052C6.97289 23.8451 6.95274 23.8271 6.96387 23.849C6.93191 23.7862 6.88076 23.7351 6.81803 23.7031C6.83987 23.7143 6.82187 23.6941 6.66178 23.681C6.48969 23.6669 6.25707 23.6667 5.86751 23.6667H4.7998C4.41025 23.6667 4.17763 23.6669 4.00553 23.681C3.84545 23.6941 3.82744 23.7143 3.84928 23.7031C3.78656 23.7351 3.73541 23.7862 3.70345 23.849C3.71458 23.8271 3.69443 23.8451 3.68131 24.0052C3.66725 24.1773 3.66699 24.4099 3.66699 24.7995V25.8672ZM28.3337 6.13281C28.3337 5.74326 28.3334 5.51063 28.3193 5.33854C28.3062 5.17846 28.2861 5.16045 28.2972 5.18229C28.2652 5.11957 28.2141 5.06842 28.1514 5.03646C28.1732 5.04759 28.1552 5.02744 27.9951 5.01432C27.823 5.00026 27.5904 5 27.2008 5H26.1331C25.7436 5 25.511 5.00026 25.3389 5.01432C25.1788 5.02744 25.1608 5.04759 25.1826 5.03646C25.1199 5.06842 25.0687 5.11957 25.0368 5.18229C25.0479 5.16045 25.0278 5.17846 25.0146 5.33854C25.0006 5.51063 25.0003 5.74326 25.0003 6.13281V7.20052C25.0003 7.59008 25.0006 7.8227 25.0146 7.99479C25.0278 8.15487 25.0479 8.17288 25.0368 8.15104C25.0687 8.21376 25.1199 8.26492 25.1826 8.29688C25.1608 8.28575 25.1788 8.3059 25.3389 8.31901C25.511 8.33307 25.7436 8.33333 26.1331 8.33333H27.2008C27.5904 8.33333 27.823 8.33307 27.9951 8.31901C28.1552 8.3059 28.1732 8.28575 28.1514 8.29688C28.2141 8.26492 28.2652 8.21376 28.2972 8.15104C28.2861 8.17288 28.3062 8.15487 28.3193 7.99479C28.3334 7.8227 28.3337 7.59008 28.3337 7.20052V6.13281ZM6.33366 7.20052C6.33366 7.59008 6.33392 7.8227 6.34798 7.99479C6.36109 8.15487 6.38124 8.17288 6.37012 8.15104C6.40207 8.21376 6.45323 8.26492 6.51595 8.29688C6.49411 8.28575 6.51212 8.3059 6.6722 8.31901C6.84429 8.33307 7.07692 8.33333 7.46647 8.33333H8.53418C8.92373 8.33333 9.15636 8.33307 9.32845 8.31901C9.48853 8.3059 9.50654 8.28575 9.4847 8.29688C9.54742 8.26492 9.59858 8.21376 9.63053 8.15104C9.61941 8.17288 9.63956 8.15487 9.65267 7.99479C9.66673 7.8227 9.66699 7.59008 9.66699 7.20052V6.13281C9.66699 5.74326 9.66673 5.51063 9.65267 5.33854C9.63956 5.17846 9.61941 5.16045 9.63053 5.18229C9.59858 5.11957 9.54742 5.06842 9.4847 5.03646C9.50654 5.04759 9.48853 5.02744 9.32845 5.01432C9.15636 5.00026 8.92373 5 8.53418 5H7.46647C7.07692 5 6.84429 5.00026 6.6722 5.01432C6.51212 5.02744 6.49411 5.04759 6.51595 5.03646C6.45323 5.06842 6.40207 5.11957 6.37012 5.18229C6.38124 5.16045 6.36109 5.17846 6.34798 5.33854C6.33392 5.51063 6.33366 5.74326 6.33366 6.13281V7.20052ZM30.3337 7.20052C30.3337 7.55719 30.3338 7.88518 30.3115 8.15755C30.2883 8.44161 30.2361 8.75298 30.0798 9.0599C29.8561 9.4987 29.499 9.85576 29.0602 10.0794C28.7533 10.2358 28.4419 10.288 28.1579 10.3112C27.8855 10.3335 27.5575 10.3333 27.2008 10.3333H27.154L25.5303 21.6927C25.8036 21.7176 26.1007 21.7713 26.3936 21.9206C26.8324 22.1442 27.1894 22.5013 27.4131 22.9401C27.5695 23.247 27.6216 23.5584 27.6449 23.8424C27.6671 24.1148 27.667 24.4428 27.667 24.7995V25.8672C27.667 26.2239 27.6671 26.5518 27.6449 26.8242C27.6216 27.1083 27.5695 27.4196 27.4131 27.7266C27.1894 28.1654 26.8324 28.5224 26.3936 28.7461C26.0866 28.9025 25.7753 28.9546 25.4912 28.9779C25.2188 29.0001 24.8908 29 24.5342 29H23.4665C23.1098 29 22.7818 29.0001 22.5094 28.9779C22.2254 28.9546 21.914 28.9025 21.6071 28.7461C21.1683 28.5224 20.8112 28.1654 20.5876 27.7266C20.4312 27.4196 20.379 27.1083 20.3558 26.8242C20.3437 26.6757 20.3386 26.5104 20.3363 26.3333H8.99772C8.99542 26.5104 8.99032 26.6757 8.97819 26.8242C8.95495 27.1083 8.9028 27.4196 8.74642 27.7266C8.52275 28.1654 8.1657 28.5224 7.72689 28.7461C7.41997 28.9025 7.1086 28.9546 6.82454 28.9779C6.55217 29.0001 6.22418 29 5.86751 29H4.7998C4.44314 29 4.11514 29.0001 3.84277 28.9779C3.55872 28.9546 3.24735 28.9025 2.94043 28.7461C2.50162 28.5224 2.14456 28.1654 1.9209 27.7266C1.76452 27.4196 1.71236 27.1083 1.68913 26.8242C1.66687 26.5518 1.66699 26.2239 1.66699 25.8672V24.7995C1.66699 24.4428 1.66687 24.1148 1.68913 23.8424C1.71236 23.5584 1.76452 23.247 1.9209 22.9401C2.14456 22.5013 2.50162 22.1442 2.94043 21.9206C3.24735 21.7642 3.55872 21.712 3.84277 21.6888C4.11514 21.6665 4.44314 21.6667 4.7998 21.6667H4.97298L6.99642 10.3307C6.82082 10.3284 6.65684 10.3232 6.50944 10.3112C6.22538 10.288 5.91401 10.2358 5.6071 10.0794C5.16829 9.85576 4.81123 9.49871 4.58756 9.0599C4.43118 8.75298 4.37903 8.44161 4.35579 8.15755C4.33354 7.88518 4.33366 7.55719 4.33366 7.20052V6.13281C4.33366 5.77615 4.33354 5.44815 4.35579 5.17578C4.37903 4.89172 4.43118 4.58035 4.58756 4.27344C4.81123 3.83463 5.16829 3.47757 5.6071 3.25391C5.91401 3.09752 6.22538 3.04537 6.50944 3.02214C6.78181 2.99988 7.10981 3 7.46647 3H8.53418C8.89084 3 9.21884 2.99988 9.49121 3.02214C9.77527 3.04537 10.0866 3.09752 10.3936 3.25391C10.8324 3.47757 11.1894 3.83463 11.4131 4.27344C11.5695 4.58035 11.6216 4.89172 11.6449 5.17578C11.657 5.32427 11.6621 5.48958 11.6644 5.66667H23.0029C23.0052 5.48958 23.0103 5.32427 23.0225 5.17578C23.0457 4.89172 23.0978 4.58035 23.2542 4.27344C23.4779 3.83463 23.835 3.47757 24.2738 3.25391C24.5807 3.09752 24.892 3.04537 25.1761 3.02214C25.4485 2.99988 25.7765 3 26.1331 3H27.2008C27.5575 3 27.8855 2.99988 28.1579 3.02214C28.4419 3.04537 28.7533 3.09752 29.0602 3.25391C29.499 3.47757 29.8561 3.83463 30.0798 4.27344C30.2361 4.58035 30.2883 4.89172 30.3115 5.17578C30.3338 5.44815 30.3337 5.77615 30.3337 6.13281V7.20052Z" fill="#FAFAFA"/>
</svg>
