<svg width="32" height="32" viewBox="0 0 32 32" fill="none" xmlns="http://www.w3.org/2000/svg">
<path fill-rule="evenodd" clip-rule="evenodd" d="M24 4.52832C24.5523 4.52832 25 4.97604 25 5.52832C25 6.08061 24.5523 6.52832 24 6.52832H22.3333V8.19499C22.3333 9.87286 21.205 11.2827 19.6667 11.7184V16.5283H26C27.6569 16.5283 29 17.8715 29 19.5283C29 21.1852 27.6569 22.5283 26 22.5283H19.6667V22.8617C19.6667 24.8867 18.025 26.5283 16 26.5283C13.975 26.5283 12.3333 24.8867 12.3333 22.8617V22.5283H6C4.34315 22.5283 3 21.1852 3 19.5283C3 17.8715 4.34315 16.5283 6 16.5283H12.3333V11.7184C10.795 11.2827 9.66667 9.87286 9.66667 8.19499V6.52832H8C7.44772 6.52832 7 6.08061 7 5.52832C7 4.97604 7.44772 4.52832 8 4.52832H24ZM14.3333 22.5283V22.8617C14.3333 23.7821 15.0795 24.5283 16 24.5283C16.9205 24.5283 17.6667 23.7821 17.6667 22.8617V22.5283H14.3333ZM19.6667 20.5283H26C26.5523 20.5283 27 20.0806 27 19.5283C27 18.976 26.5523 18.5283 26 18.5283H19.6667V20.5283ZM14.3333 20.5283H17.6667V18.5283H14.3333V20.5283ZM6 18.5283C5.44772 18.5283 5 18.976 5 19.5283C5 20.0806 5.44772 20.5283 6 20.5283H12.3333V18.5283H6ZM14.3333 11.8617V16.5283H17.6667V11.8617H14.3333ZM11.6667 8.19499C11.6667 9.11546 12.4129 9.86165 13.3333 9.86165H18.6667C19.5871 9.86165 20.3333 9.11546 20.3333 8.19499V6.52832H11.6667V8.19499Z" fill="#FAFAFA"/>
</svg>
