<svg width="32" height="32" viewBox="0 0 32 32" fill="none" xmlns="http://www.w3.org/2000/svg">
<path fill-rule="evenodd" clip-rule="evenodd" d="M22.2429 19.4997C22.9498 19.4999 23.6284 19.7811 24.1283 20.2809C24.6281 20.7809 24.9095 21.4594 24.9095 22.1663C24.9095 22.8733 24.628 23.5517 24.1283 24.0518C23.6284 24.5517 22.9498 24.8328 22.2429 24.833C21.5358 24.833 20.8575 24.5517 20.3575 24.0518C19.8574 23.5517 19.5762 22.8735 19.5762 22.1663C19.5763 21.4592 19.8574 20.7809 20.3575 20.2809C20.8575 19.7812 21.5359 19.4997 22.2429 19.4997ZM22.2429 21.4997C22.0663 21.4997 21.8965 21.5703 21.7715 21.695C21.6466 21.8199 21.5763 21.9897 21.5762 22.1663C21.5762 22.3431 21.6466 22.5127 21.7715 22.6377C21.8965 22.7625 22.0662 22.833 22.2429 22.833C22.4194 22.8328 22.5894 22.7625 22.7142 22.6377C22.8389 22.5127 22.9095 22.3429 22.9095 22.1663C22.9095 21.9898 22.839 21.8199 22.7142 21.695C22.5894 21.5702 22.4194 21.4999 22.2429 21.4997Z" fill="#FAFAFA"/>
<path fill-rule="evenodd" clip-rule="evenodd" d="M22.8041 14.7041C23.1027 14.7277 23.3928 14.8176 23.6517 14.9684L23.778 15.0492L23.8991 15.139C24.1714 15.3584 24.3819 15.6463 24.5085 15.9736L24.808 16.7484L25.6504 17.2328L26.4799 17.1078L26.4968 17.1052L26.6439 17.0908C26.9874 17.07 27.3319 17.1379 27.6426 17.29C27.9982 17.4642 28.2935 17.7408 28.4916 18.083L28.4942 18.0882L28.8861 18.7744C29.0898 19.1214 29.1853 19.523 29.1569 19.9255C29.1286 20.325 28.979 20.7069 28.7299 21.0218L28.7312 21.0231L28.2181 21.6755V22.6481L28.7429 23.3005L28.7468 23.3044C28.9981 23.6195 29.148 24.0046 29.1765 24.4072C29.2047 24.8051 29.1121 25.2025 28.9121 25.5479L28.515 26.2458L28.5124 26.2497C28.3143 26.5923 28.0174 26.8673 27.6621 27.0413C27.3065 27.2156 26.9076 27.2806 26.5163 27.2275L26.5007 27.2262L25.6726 27.0986L24.8275 27.5856L24.5293 28.3591C24.3846 28.7338 24.1289 29.0569 23.7976 29.2848L23.7963 29.2835C23.4659 29.5106 23.0751 29.6337 22.6739 29.6351H21.8314C21.4294 29.6339 21.0374 29.5113 20.7064 29.2835C20.3761 29.0562 20.1208 28.735 19.976 28.3604L19.6765 27.5843L18.8314 27.0986L18.0033 27.2262L17.9877 27.2275C17.5961 27.2807 17.1963 27.2171 16.8405 27.0427C16.4855 26.8685 16.1906 26.5915 15.9929 26.2497L15.9903 26.2458L15.5918 25.5492L15.5931 25.5479C15.3931 25.2026 15.2993 24.8054 15.3275 24.4072L15.3444 24.2575C15.3957 23.9102 15.5372 23.5804 15.7572 23.3044L16.2663 22.6559V21.6833L15.7416 21.0322L15.7377 21.0283C15.4864 20.7129 15.3364 20.3281 15.308 19.9255C15.2796 19.5232 15.373 19.1209 15.5775 18.7731L15.9694 18.0882L15.972 18.083C16.1702 17.7409 16.466 17.4641 16.821 17.29C17.1319 17.1378 17.4772 17.0699 17.821 17.0908L17.9681 17.1052L17.9838 17.1078L18.8158 17.2341L19.6765 16.7458L19.976 15.9736C20.1207 15.5992 20.3757 15.2767 20.7064 15.0492C21.0374 14.8215 21.4298 14.6988 21.8314 14.6976H22.653L22.8041 14.7041ZM21.4135 17.8005C21.3302 18.0153 21.175 18.1957 20.9746 18.3096L19.502 19.1455C19.3069 19.2563 19.0793 19.2976 18.8575 19.264L17.7012 19.0869L17.308 19.777L17.3028 19.7848L18.045 20.7028C18.1881 20.8804 18.2662 21.1023 18.2663 21.3304V23.0023C18.2663 23.2258 18.1906 23.4435 18.0528 23.6195L17.3262 24.5453L17.3236 24.5479L17.3288 24.557L17.7207 25.2445L18.877 25.07L19.045 25.0583C19.213 25.0612 19.3794 25.1064 19.5267 25.1911L20.9799 26.027L21.1192 26.1247C21.2494 26.2328 21.3515 26.3728 21.4135 26.5322L21.8392 27.6351H22.6648L23.0918 26.5335L23.1661 26.3799C23.2532 26.2346 23.377 26.1124 23.5254 26.027L24.9786 25.1911L25.1309 25.1195C25.2884 25.0615 25.4593 25.0445 25.627 25.07L26.7819 25.2445L27.1765 24.557L27.1817 24.5492L26.4395 23.6299C26.2965 23.4522 26.2181 23.2304 26.2181 23.0023V21.3304C26.2183 21.1068 26.2936 20.8892 26.4317 20.7132L27.1582 19.7874L27.1608 19.7848L27.1569 19.777L26.7624 19.0869L25.6075 19.264C25.3836 19.2981 25.154 19.2545 24.9577 19.1416L23.5059 18.3057C23.3078 18.1917 23.1536 18.0135 23.071 17.8005L22.6439 16.6976H21.8405L21.4135 17.8005Z" fill="#FAFAFA"/>
<path d="M15.1075 2.37729C15.4748 2.28309 15.8599 2.2831 16.2273 2.37729C16.6503 2.48578 17.0156 2.75253 17.3588 3.00229C17.388 3.02358 17.4183 3.04384 17.4473 3.06479L28.5931 11.1299C29.0311 11.4469 29.132 12.0635 28.8184 12.5062C28.5047 12.9487 27.8944 13.0497 27.4564 12.7328L26.0736 11.7328V12.3578C26.0736 12.8964 25.637 13.333 25.0983 13.333C24.5598 13.3329 24.1231 12.8963 24.1231 12.3578V10.3213L16.3106 4.66895C16.0823 4.50376 15.9506 4.408 15.847 4.34343C15.7836 4.30386 15.7534 4.29178 15.7455 4.28874C15.6942 4.27591 15.6406 4.2759 15.5892 4.28874C15.5811 4.29187 15.5509 4.30401 15.4877 4.34343C15.3841 4.408 15.2525 4.50373 15.0241 4.66895L7.21163 10.3213V22.4476C7.21163 23.1996 7.21278 23.7046 7.24418 24.0934C7.27465 24.4703 7.3288 24.6515 7.38871 24.7705C7.54457 25.0797 7.79378 25.3317 8.09965 25.4893C8.21743 25.5499 8.39685 25.6043 8.77022 25.6351C9.15501 25.6668 9.65492 25.6677 10.3991 25.6677H12.3483C12.8929 25.6679 13.334 26.1101 13.334 26.6546C13.3337 27.1989 12.8927 27.6401 12.3483 27.6403H10.3588C9.66458 27.6403 9.08487 27.6403 8.61137 27.6012C8.11731 27.5604 7.65286 27.4716 7.21423 27.2458C6.54125 26.8992 5.99337 26.3465 5.65043 25.6663C5.427 25.2231 5.33925 24.7541 5.29887 24.2549C5.26016 23.7761 5.26109 23.1888 5.26111 22.4867V11.7328L3.87699 12.7328C3.43902 13.0495 2.83001 12.9486 2.51632 12.5062C2.20281 12.0635 2.30364 11.4469 2.74158 11.1299L13.8874 3.06479C13.9162 3.04397 13.9456 3.02344 13.9746 3.00229C14.3178 2.7525 14.6844 2.48584 15.1075 2.37729Z" fill="#FAFAFA"/>
</svg>
