<svg width="32" height="32" viewBox="0 0 32 32" fill="none" xmlns="http://www.w3.org/2000/svg">
<path d="M15.2926 10.9176C15.6832 10.5271 16.3162 10.5271 16.7067 10.9176L21.0817 15.2926C21.1462 15.3572 21.1961 15.4306 21.2393 15.5062C21.26 15.5424 21.2817 15.578 21.2978 15.6169C21.3255 15.6835 21.3452 15.7525 21.3577 15.8226C21.368 15.8801 21.3747 15.9392 21.3747 15.9997C21.3747 16.0597 21.3679 16.1183 21.3577 16.1755C21.3453 16.2456 21.3254 16.3145 21.2978 16.3812C21.2862 16.4093 21.2703 16.4351 21.2562 16.4619C21.2104 16.5492 21.1551 16.6333 21.0817 16.7067L16.7067 21.0817C16.3162 21.4722 15.6832 21.4722 15.2926 21.0817C14.9021 20.6912 14.9021 20.0582 15.2926 19.6676L17.9606 16.9997H10.9997C10.4474 16.9997 9.99967 16.552 9.99967 15.9997C9.99967 15.4474 10.4474 14.9997 10.9997 14.9997H17.9606L15.2926 12.3317C14.9021 11.9412 14.9021 11.3082 15.2926 10.9176Z" fill="#FAFAFA"/>
<path fill-rule="evenodd" clip-rule="evenodd" d="M15.9997 3.75098C16.5492 3.75098 17.0795 3.94222 17.501 4.28743L17.6742 4.44368L27.557 14.3265C28.0003 14.7705 28.2495 15.3722 28.2497 15.9997C28.2497 16.6274 28.0005 17.23 27.557 17.6742L17.6755 27.5557C16.8083 28.4229 15.4352 28.4786 14.5049 27.7184L14.3252 27.5557L4.44238 17.6742C3.99719 17.2284 3.75098 16.625 3.75098 15.9997C3.75113 15.3722 4.0003 14.7705 4.44368 14.3265L14.3265 4.44368C14.7705 4.0003 15.3722 3.75113 15.9997 3.75098ZM15.9997 5.75098C15.9021 5.75113 15.8083 5.79009 15.7393 5.85905L5.85905 15.7393C5.79009 15.8083 5.75113 15.9021 5.75098 15.9997C5.75098 16.0993 5.78962 16.1927 5.85645 16.2601L15.7406 26.1429C15.8831 26.2858 16.1152 26.2864 16.2601 26.1416L26.1416 16.2601C26.2105 16.191 26.2497 16.0972 26.2497 15.9997C26.2495 15.9021 26.2106 15.8083 26.1416 15.7393L16.2601 5.85905C16.191 5.79057 16.097 5.75098 15.9997 5.75098Z" fill="#FAFAFA"/>
</svg>
