<svg width="32" height="32" viewBox="0 0 32 32" fill="none" xmlns="http://www.w3.org/2000/svg">
<path fill-rule="evenodd" clip-rule="evenodd" d="M9.22609 4H22.7739C23.4861 3.99999 24.0806 3.99997 24.5662 4.03965C25.0727 4.08104 25.5483 4.17052 25.998 4.39964C26.6879 4.75118 27.2488 5.31211 27.6004 6.00204C27.8295 6.45172 27.919 6.92726 27.9603 7.43377C28 7.91941 28 8.51387 28 9.22606V22.7739C28 23.4861 28 24.0806 27.9603 24.5662C27.919 25.0727 27.8295 25.5483 27.6004 25.998C27.2488 26.6879 26.6879 27.2488 25.998 27.6004C25.5483 27.8295 25.0727 27.919 24.5662 27.9603C24.0806 28 23.4861 28 22.7739 28H9.22606C8.51387 28 7.91941 28 7.43377 27.9603C6.92726 27.919 6.45172 27.8295 6.00204 27.6004C5.31211 27.2488 4.75118 26.6879 4.39964 25.998C4.17052 25.5483 4.08104 25.0727 4.03965 24.5662C3.99997 24.0806 3.99999 23.4861 4 22.7739V9.22609C3.99999 8.51388 3.99997 7.91942 4.03965 7.43377C4.08104 6.92726 4.17052 6.45172 4.39964 6.00203C4.75118 5.31211 5.31211 4.75118 6.00203 4.39964C6.45172 4.17052 6.92726 4.08104 7.43377 4.03965C7.91942 3.99997 8.51388 3.99999 9.22609 4ZM7.59664 6.03301C7.21381 6.06429 7.03076 6.12013 6.91002 6.18166C6.59641 6.34144 6.34144 6.59641 6.18166 6.91002C6.12013 7.03076 6.06429 7.21381 6.03301 7.59664C6.00078 7.99114 6 8.50343 6 9.26667V22.7333C6 23.4966 6.00078 24.0089 6.03301 24.4034C6.06429 24.7862 6.12013 24.9692 6.18166 25.09C6.34144 25.4036 6.59641 25.6586 6.91001 25.8183C7.03076 25.8799 7.21381 25.9357 7.59664 25.967C7.99114 25.9992 8.50343 26 9.26667 26H15V6H9.26667C8.50343 6 7.99114 6.00078 7.59664 6.03301ZM17 6V26H22.7333C23.4966 26 24.0089 25.9992 24.4034 25.967C24.7862 25.9357 24.9692 25.8799 25.09 25.8183C25.4036 25.6586 25.6586 25.4036 25.8183 25.09C25.8799 24.9692 25.9357 24.7862 25.967 24.4034C25.9992 24.0089 26 23.4966 26 22.7333V9.26667C26 8.50343 25.9992 7.99114 25.967 7.59664C25.9357 7.21381 25.8799 7.03076 25.8183 6.91002C25.6586 6.59642 25.4036 6.34145 25.09 6.18166C24.9692 6.12013 24.7862 6.06429 24.4034 6.03301C24.0089 6.00078 23.4966 6 22.7333 6H17Z" fill="#FAFAFA"/>
<path fill-rule="evenodd" clip-rule="evenodd" d="M9.22502 3.96875H22.775C23.4863 3.96874 24.0818 3.96872 24.5688 4.00851C25.0772 4.05005 25.5573 4.14006 26.0122 4.3718C26.708 4.72633 27.2737 5.29204 27.6282 5.98785C27.8599 6.44267 27.9499 6.92278 27.9915 7.43123C28.0313 7.91817 28.0313 8.51376 28.0312 9.22507V22.7749C28.0313 23.4862 28.0313 24.0818 27.9915 24.5688C27.9499 25.0772 27.8599 25.5573 27.6282 26.0121C27.2737 26.708 26.708 27.2737 26.0121 27.6282C25.5573 27.8599 25.0772 27.9499 24.5688 27.9915C24.0818 28.0313 23.4862 28.0313 22.7749 28.0312H9.22507C8.51376 28.0313 7.91817 28.0313 7.43123 27.9915C6.92278 27.9499 6.44267 27.8599 5.98785 27.6282C5.29204 27.2737 4.72633 26.708 4.3718 26.0121C4.14006 25.5573 4.05005 25.0772 4.00851 24.5688C3.96872 24.0818 3.96874 23.4863 3.96875 22.775V9.22502C3.96874 8.51373 3.96872 7.91816 4.00851 7.43123C4.05005 6.92278 4.14006 6.44267 4.3718 5.98785C4.72633 5.29204 5.29204 4.72633 5.98785 4.3718C6.44267 4.14006 6.92278 4.05005 7.43123 4.00851C7.91816 3.96872 8.51373 3.96874 9.22502 3.96875ZM6.03125 13.3607V18.6393H25.9687V13.3607H6.03125ZM25.9687 11.2982H6.03125V9.26667C6.03125 8.50291 6.03205 7.99212 6.06416 7.59918C6.09528 7.21828 6.1506 7.03981 6.2095 6.9242C6.36629 6.61648 6.61648 6.36629 6.9242 6.2095C7.03981 6.1506 7.21828 6.09528 7.59918 6.06416C7.99212 6.03205 8.50291 6.03125 9.26667 6.03125H22.7333C23.4971 6.03125 24.0079 6.03205 24.4008 6.06416C24.7817 6.09528 24.9602 6.1506 25.0758 6.2095C25.3835 6.36629 25.6337 6.61648 25.7905 6.9242C25.8494 7.03981 25.9047 7.21828 25.9358 7.59918C25.9679 7.99212 25.9687 8.50291 25.9687 9.26667V11.2982ZM25.9687 20.7018H6.03125V22.7333C6.03125 23.4971 6.03205 24.0079 6.06416 24.4008C6.09528 24.7817 6.1506 24.9602 6.2095 25.0758C6.36629 25.3835 6.61648 25.6337 6.9242 25.7905C7.03981 25.8494 7.21828 25.9047 7.59918 25.9358C7.99212 25.9679 8.50291 25.9687 9.26667 25.9687H22.7333C23.4971 25.9687 24.0079 25.9679 24.4008 25.9358C24.7817 25.9047 24.9602 25.8494 25.0758 25.7905C25.3835 25.6337 25.6337 25.3835 25.7905 25.0758C25.8494 24.9602 25.9047 24.7817 25.9358 24.4008C25.9679 24.0079 25.9687 23.4971 25.9687 22.7333V20.7018Z" fill="#FAFAFA"/>
</svg>
