<svg width="32" height="32" viewBox="0 0 32 32" fill="none" xmlns="http://www.w3.org/2000/svg">
<path fill-rule="evenodd" clip-rule="evenodd" d="M2.66602 9.00016C2.66602 6.97512 4.30764 5.3335 6.33268 5.3335H25.666C27.6911 5.3335 29.3327 6.97512 29.3327 9.00016V23.0002C29.3327 25.0252 27.6911 26.6668 25.666 26.6668H6.33268C4.30764 26.6668 2.66602 25.0252 2.66602 23.0002V9.00016ZM6.33268 7.3335C5.41221 7.3335 4.66602 8.07969 4.66602 9.00016V16.3961C4.75227 16.3484 4.84022 16.2998 4.92982 16.2502C5.16983 16.1175 5.42173 15.9782 5.68497 15.8336C6.66959 15.2925 7.78748 14.6907 8.9485 14.1296C11.2236 13.0299 13.8312 12.0002 15.9993 12.0002C18.1675 12.0002 20.7751 13.0299 23.0502 14.1296C24.2112 14.6907 25.3291 15.2925 26.3137 15.8336C26.577 15.9782 26.8289 16.1175 27.0689 16.2502C27.1585 16.2998 27.2464 16.3484 27.3327 16.3961V9.00016C27.3327 8.07969 26.5865 7.3335 25.666 7.3335H6.33268ZM27.3327 18.6755C26.9505 18.4703 26.5253 18.2351 26.0731 17.9851C25.8387 17.8555 25.5971 17.7219 25.3505 17.5863C24.3746 17.05 23.2931 16.4683 22.1799 15.9303C20.1227 14.9359 18.0925 14.1606 16.4898 14.0222C16.4362 14.0984 16.377 14.1838 16.3137 14.2774C16.0288 14.6985 15.6676 15.2733 15.35 15.901C15.0282 16.5369 14.7746 17.1818 14.6705 17.7505C14.5644 18.3302 14.6376 18.6889 14.7778 18.9008C14.8499 19.0098 15.066 19.1792 15.7756 19.2315C16.3421 19.2733 16.9938 19.2282 17.7376 19.1767C17.8961 19.1658 18.0588 19.1545 18.2257 19.1437C19.1044 19.0871 20.1302 19.0418 21.0006 19.257C21.4522 19.3687 21.9162 19.5622 22.3107 19.9043C22.7168 20.2565 22.9972 20.7215 23.1366 21.2832C23.4017 22.3516 23.0443 23.2693 22.4841 23.9641C22.2765 24.2217 22.0367 24.4555 21.7806 24.6668H25.666C26.5865 24.6668 27.3327 23.9206 27.3327 23.0002V18.6755ZM17.2373 24.6668C17.2626 24.6597 17.292 24.6514 17.3249 24.6418C17.4606 24.6024 17.6567 24.5424 17.891 24.462C18.3639 24.2998 18.9731 24.0611 19.5514 23.7503C20.1424 23.4327 20.6303 23.077 20.9272 22.7088C21.202 22.3679 21.273 22.0773 21.1954 21.7648C21.149 21.5775 21.0759 21.4808 21.0004 21.4154C20.9133 21.3398 20.7674 21.2596 20.5204 21.1985C19.9935 21.0682 19.2671 21.0807 18.3545 21.1396C18.2158 21.1485 18.0724 21.1586 17.9257 21.1689C17.1819 21.2212 16.3526 21.2795 15.6286 21.2261C14.7843 21.1639 13.7228 20.931 13.1098 20.0043C12.5648 19.1805 12.5523 18.2148 12.7032 17.3905C12.8561 16.5551 13.202 15.7164 13.5654 14.9981C13.6854 14.7609 13.8099 14.5319 13.9341 14.3149C12.665 14.6541 11.2484 15.2393 9.81883 15.9303C8.70561 16.4683 7.62411 17.05 6.64817 17.5863C6.40159 17.7219 6.15999 17.8555 5.92564 17.9851C5.47345 18.2351 5.0482 18.4703 4.66602 18.6755V23.0002C4.66602 23.9206 5.41221 24.6668 6.33268 24.6668H17.2373Z" fill="#FAFAFA"/>
</svg>
