<svg width="32" height="32" viewBox="0 0 32 32" fill="none" xmlns="http://www.w3.org/2000/svg">
<path d="M18.6351 22.048C19.1874 22.048 19.6351 22.4957 19.6351 23.048C19.6347 23.6 19.1872 24.048 18.6351 24.048H13.363C12.8109 24.048 12.3633 23.6 12.363 23.048C12.363 22.4957 12.8107 22.048 13.363 22.048H18.6351Z" fill="#FAFAFA"/>
<path d="M19.5153 8.46338C20.0676 8.46338 20.5153 8.91109 20.5153 9.46338V13.4152C20.5149 13.9672 20.0674 14.4152 19.5153 14.4152C18.9632 14.4152 18.5157 13.9672 18.5153 13.4152V9.46338C18.5153 8.91109 18.963 8.46338 19.5153 8.46338Z" fill="#FAFAFA"/>
<path fill-rule="evenodd" clip-rule="evenodd" d="M24.4841 2.66781C24.5047 2.6685 24.5308 2.66957 24.5609 2.67171C24.6211 2.67602 24.7012 2.68357 24.7939 2.69906C24.9748 2.72928 25.2312 2.79234 25.4997 2.92692C25.7721 3.06349 26.0749 3.28362 26.307 3.63265C26.5431 3.98771 26.6663 4.41594 26.6663 4.89827V27.1209C26.6662 27.1287 26.6654 27.138 26.665 27.1483C26.6643 27.169 26.6633 27.1949 26.6611 27.2251C26.6568 27.2853 26.6492 27.3654 26.6338 27.4582C26.6037 27.639 26.5411 27.8956 26.4072 28.1639C26.2713 28.4362 26.0511 28.7397 25.7028 28.9725C25.348 29.2094 24.9197 29.3332 24.4372 29.3332H7.54264C7.53485 29.333 7.52558 29.3322 7.5153 29.3319C7.4946 29.3312 7.46854 29.3301 7.43848 29.328C7.37825 29.3236 7.29814 29.3161 7.2054 29.3006C7.02451 29.2704 6.76817 29.2073 6.49967 29.0728C6.22721 28.9362 5.9245 28.7161 5.69238 28.367C5.45627 28.012 5.33307 27.5837 5.33301 27.1014V4.87874C5.33313 4.87095 5.33397 4.86168 5.33431 4.8514C5.335 4.83065 5.33607 4.80475 5.33822 4.77458C5.34251 4.71438 5.35014 4.63425 5.36556 4.5415C5.39566 4.3607 5.4583 4.10408 5.59212 3.83577C5.72804 3.56345 5.94821 3.25998 6.29655 3.02718C6.65136 2.79025 7.07969 2.6665 7.56217 2.6665H24.4567C24.4645 2.66663 24.4738 2.66746 24.4841 2.66781ZM7.33301 27.1014C7.33304 27.1716 7.34152 27.2138 7.34733 27.2342C7.35022 27.2443 7.35357 27.2503 7.35514 27.2537C7.35639 27.2565 7.35775 27.259 7.35775 27.259C7.35775 27.259 7.35869 27.2619 7.36296 27.2655C7.368 27.2696 7.37837 27.2764 7.39551 27.285C7.4343 27.3044 7.48526 27.3197 7.53483 27.328C7.55687 27.3316 7.57325 27.3326 7.5804 27.3332H24.4372C24.5066 27.3332 24.5476 27.3245 24.5674 27.3188C24.5772 27.316 24.5836 27.3138 24.5869 27.3123C24.5896 27.3111 24.5921 27.3097 24.5921 27.3097C24.5921 27.3097 24.5938 27.3087 24.5973 27.3045C24.6016 27.2994 24.6093 27.2885 24.6182 27.2707C24.6377 27.2314 24.6528 27.18 24.6611 27.13C24.6649 27.1076 24.6658 27.0905 24.6663 27.0832V20.5233H7.33301V27.1014ZM7.43197 4.68083C7.4222 4.68362 7.41574 4.68583 7.41244 4.68734C7.40975 4.68858 7.40723 4.68994 7.40723 4.68994C7.40723 4.68994 7.40551 4.69098 7.40202 4.69515C7.39778 4.70025 7.39009 4.71115 7.38119 4.729C7.36162 4.76831 7.34656 4.81966 7.33822 4.86963C7.33449 4.89204 7.33354 4.90917 7.33301 4.9165V18.5233H14.9997V4.6665H7.56217C7.49277 4.6665 7.45178 4.67517 7.43197 4.68083ZM16.9997 18.5233H24.6663V4.89827C24.6663 4.8281 24.6578 4.78586 24.652 4.76546C24.6491 4.7554 24.6458 4.74935 24.6442 4.74593C24.643 4.74322 24.6416 4.74072 24.6416 4.74072C24.6416 4.74072 24.6407 4.73778 24.6364 4.73421C24.6314 4.73004 24.621 4.72329 24.6038 4.71468C24.5651 4.69524 24.5141 4.67999 24.4645 4.67171C24.4425 4.66803 24.4261 4.66703 24.4189 4.6665H16.9997V18.5233Z" fill="#FAFAFA"/>
<path d="M19.5153 8.46338C20.0676 8.46338 20.5153 8.91109 20.5153 9.46338V13.4152C20.5149 13.9672 20.0674 14.4152 19.5153 14.4152C18.9632 14.4152 18.5157 13.9672 18.5153 13.4152V9.46338C18.5153 8.91109 18.963 8.46338 19.5153 8.46338Z" fill="#FAFAFA"/>
<path d="M12.4467 8.46338C12.999 8.46338 13.4467 8.91109 13.4467 9.46338V13.4152C13.4463 13.9672 12.9988 14.4152 12.4467 14.4152C11.8946 14.4152 11.4471 13.9672 11.4467 13.4152V9.46338C11.4467 8.91109 11.8944 8.46338 12.4467 8.46338Z" fill="#FAFAFA"/>
<path d="M12.4467 8.46338C12.999 8.46338 13.4467 8.91109 13.4467 9.46338V13.4152C13.4463 13.9672 12.9988 14.4152 12.4467 14.4152C11.8946 14.4152 11.4471 13.9672 11.4467 13.4152V9.46338C11.4467 8.91109 11.8944 8.46338 12.4467 8.46338Z" fill="#FAFAFA"/>
</svg>
