<svg width="32" height="32" viewBox="0 0 32 32" fill="none" xmlns="http://www.w3.org/2000/svg">
<path d="M25.3333 27.3332V29.3332H6.66667V27.3332H25.3333ZM26 26.6665V5.33317C26 4.96498 25.7015 4.6665 25.3333 4.6665H6.66667C6.29848 4.6665 6 4.96498 6 5.33317V26.6665C6 27.0347 6.29848 27.3332 6.66667 27.3332V29.3332L6.39453 29.3188C5.13913 29.1916 4.1416 28.194 4.01432 26.9386L4 26.6665V5.33317C4 3.86041 5.19391 2.6665 6.66667 2.6665H25.3333C26.8061 2.6665 28 3.86041 28 5.33317V26.6665L27.9857 26.9386C27.8584 28.194 26.8609 29.1916 25.6055 29.3188L25.3333 29.3332V27.3332C25.7015 27.3332 26 27.0347 26 26.6665Z" fill="#FAFAFA"/>
<path d="M8.61148 22.1249V18.2916C8.61148 17.7393 9.0592 17.2916 9.61148 17.2916C10.1638 17.2916 10.6115 17.7393 10.6115 18.2916V22.1249C10.6115 22.6772 10.1638 23.1249 9.61148 23.1249C9.0592 23.1249 8.61148 22.6772 8.61148 22.1249Z" fill="#FAFAFA"/>
<path d="M12.8823 24.6802V17.0136C12.8823 16.4613 13.33 16.0136 13.8823 16.0136C14.4346 16.0136 14.8823 16.4613 14.8823 17.0136V24.6802C14.8823 25.2325 14.4346 25.6802 13.8823 25.6802C13.33 25.6802 12.8823 25.2325 12.8823 24.6802Z" fill="#FAFAFA"/>
<path d="M17.215 24.6802V17.0136C17.215 16.4613 17.6627 16.0136 18.215 16.0136C18.7673 16.0136 19.215 16.4613 19.215 17.0136V24.6802C19.215 25.2325 18.7673 25.6802 18.215 25.6802C17.6627 25.6802 17.215 25.2325 17.215 24.6802Z" fill="#FAFAFA"/>
<path d="M21.3888 22.1249V18.2916C21.3888 17.7393 21.8365 17.2916 22.3888 17.2916C22.9411 17.2916 23.3888 17.7393 23.3888 18.2916V22.1249C23.3888 22.6772 22.9411 23.1249 22.3888 23.1249C21.8365 23.1249 21.3888 22.6772 21.3888 22.1249Z" fill="#FAFAFA"/>
<path d="M18.1479 10.7533C18.1479 9.56733 17.1867 8.60522 16.0008 8.60487C14.8146 8.60487 13.8524 9.56712 13.8524 10.7533C13.8527 11.9392 14.8148 12.9004 16.0008 12.9004C17.1865 12.9001 18.1476 11.939 18.1479 10.7533ZM20.1479 10.7533C20.1476 13.0435 18.291 14.9001 16.0008 14.9004C13.7103 14.9004 11.8527 13.0438 11.8524 10.7533C11.8524 8.46255 13.71 6.60487 16.0008 6.60487C18.2913 6.60522 20.1479 8.46276 20.1479 10.7533Z" fill="#FAFAFA"/>
</svg>
