<svg width="32" height="32" viewBox="0 0 32 32" fill="none" xmlns="http://www.w3.org/2000/svg">
<path fill-rule="evenodd" clip-rule="evenodd" d="M20.3665 4.62603C21.1961 4.40378 22.0618 4.34735 22.9133 4.45936L23.2324 4.50884C23.9702 4.64326 24.6804 4.90387 25.3313 5.27968L25.6061 5.44764C26.2363 5.85416 26.793 6.36705 27.2506 6.96327C28.114 8.08894 27.2681 9.55023 25.8977 9.9177L23.4446 10.5739C23.78 10.7175 24.1039 10.8884 24.412 11.087C25.1342 11.5524 25.7575 12.1566 26.2467 12.863L26.4238 13.1312C26.8199 13.7682 27.1047 14.4694 27.2636 15.2042L27.3248 15.5206C27.447 16.2605 27.4396 17.0168 27.3053 17.7562C27.0516 19.1523 25.4018 19.5077 24.2089 18.7393L19.3704 15.6208L20.218 26.4854C20.3235 27.8411 19.2509 28.9994 17.8912 28.9997H14.1074C12.7474 28.9997 11.6751 27.8413 11.7805 26.4854L12.6269 15.6156L7.78184 18.7393C6.58901 19.5077 4.93916 19.1523 4.68548 17.7562C4.55117 17.0168 4.54374 16.2605 4.66595 15.5206L4.72715 15.2042C4.88602 14.4695 5.16955 13.7682 5.56569 13.1312L5.74278 12.863C6.23188 12.1567 6.85528 11.5524 7.57741 11.087C7.88512 10.8887 8.20863 10.7174 8.54356 10.5739L6.09173 9.9177C4.72149 9.55008 3.87659 8.08889 4.74017 6.96327C5.19764 6.36716 5.75332 5.85412 6.3834 5.44764L6.65944 5.27968C7.31038 4.9039 8.02051 4.64323 8.7584 4.50884L9.07611 4.45936C9.92795 4.34722 10.7944 4.40368 11.6243 4.62603C12.4542 4.84843 13.2317 5.2332 13.9133 5.75624C14.595 6.27933 15.1686 6.93137 15.5982 7.67551C15.75 7.93838 15.8807 8.2118 15.9941 8.49192C16.1076 8.21147 16.2406 7.93867 16.3925 7.67551C16.8221 6.93136 17.3957 6.27933 18.0774 5.75624C18.7591 5.23325 19.5366 4.8484 20.3665 4.62603ZM16.205 13.4307C16.0845 13.3364 15.9142 13.3366 15.7936 13.4307L14.8548 14.1664C14.7814 14.224 14.7357 14.3104 14.7285 14.4034L13.7753 26.6404C13.7602 26.8341 13.9131 26.9997 14.1074 26.9997H17.8912C18.0852 26.9994 18.2383 26.8339 18.2232 26.6404L17.2701 14.4034C17.2629 14.3105 17.217 14.224 17.1438 14.1664L16.205 13.4307ZM12.0826 12.1469C11.4997 12.0209 10.8972 12.0117 10.3105 12.1182C9.72358 12.2249 9.16217 12.4448 8.66074 12.768C8.15936 13.0911 7.7269 13.5106 7.38731 14.001C7.04773 14.4915 6.80766 15.0443 6.68158 15.6273C6.57664 16.1129 6.5523 16.6117 6.60866 17.1039C6.63827 17.0921 6.66897 17.0773 6.6985 17.0583L13.3795 12.7536C13.4086 12.7349 13.4336 12.7129 13.4563 12.6911C13.0316 12.4367 12.5679 12.2519 12.0826 12.1469ZM21.6803 12.1182C21.0934 12.0116 20.4911 12.0208 19.9081 12.1469C19.4228 12.2518 18.9592 12.4367 18.5344 12.6911C18.5572 12.7129 18.5822 12.7349 18.6113 12.7536L25.2923 17.0583C25.3219 17.0774 25.3524 17.0921 25.3821 17.1039C25.4385 16.6117 25.4141 16.1129 25.3092 15.6273C25.1831 15.0443 24.943 14.4914 24.6035 14.001C24.2638 13.5106 23.8301 13.0911 23.3287 12.768C22.8274 12.445 22.267 12.2249 21.6803 12.1182ZM11.1061 6.55832C10.53 6.40402 9.92914 6.36461 9.33783 6.44244C8.74651 6.5203 8.17599 6.71329 7.65944 7.01145C7.22907 7.25993 6.84179 7.57771 6.51491 7.95025C6.54366 7.96434 6.57589 7.97624 6.60996 7.9854L14.287 10.0427C14.3205 10.0516 14.3533 10.0561 14.3847 10.0583C14.2878 9.57259 14.1135 9.10431 13.8652 8.67421C13.5669 8.15775 13.1691 7.70525 12.6959 7.34218C12.2227 6.97911 11.6822 6.7127 11.1061 6.55832ZM22.6529 6.44244C22.0615 6.36457 21.4596 6.40395 20.8834 6.55832C20.3076 6.7127 19.7679 6.97933 19.2949 7.34218C18.8217 7.70521 18.4239 8.15781 18.1256 8.67421C17.8772 9.10436 17.7016 9.57253 17.6048 10.0583C17.6363 10.0561 17.6701 10.0517 17.7037 10.0427L25.3808 7.9854C25.4146 7.97629 25.446 7.96423 25.4745 7.95025C25.1477 7.57771 24.7617 7.25993 24.3313 7.01145C23.8148 6.71324 23.2443 6.52033 22.6529 6.44244Z" fill="#FAFAFA"/>
</svg>
