<svg width="32" height="32" viewBox="0 0 32 32" fill="none" xmlns="http://www.w3.org/2000/svg">
<path d="M16.8466 5.32017C16.4562 4.92967 15.8231 4.92981 15.4326 5.32017C15.042 5.71067 15.0421 6.34368 15.4326 6.73423L24.7255 16.0272L15.4326 25.3202C15.0421 25.7107 15.042 26.3437 15.4326 26.7342C15.8231 27.1246 16.4562 27.1247 16.8466 26.7342L26.374 17.2056C26.5287 17.051 26.6509 16.8672 26.7346 16.6652C26.8185 16.463 26.8623 16.2461 26.8623 16.0272C26.8623 15.8083 26.8185 15.5914 26.7346 15.3892C26.6509 15.1872 26.5287 15.0034 26.374 14.8488L16.8466 5.32017Z" fill="#FAFAFA"/>
<path d="M6.8466 5.32017C6.45615 4.92967 5.8231 4.92981 5.43254 5.32017C5.04199 5.71067 5.04204 6.34368 5.43254 6.73423L14.7255 16.0272L5.43254 25.3202C5.04204 25.7107 5.04199 26.3437 5.43254 26.7342C5.8231 27.1246 6.45615 27.1247 6.8466 26.7342L16.3739 17.2056C16.5286 17.051 16.6508 16.8672 16.7346 16.6652C16.8185 16.463 16.8622 16.2461 16.8622 16.0272C16.8622 15.8083 16.8185 15.5914 16.7346 15.3892C16.6508 15.1872 16.5286 15.0034 16.3739 14.8488L6.8466 5.32017Z" fill="#FAFAFA"/>
</svg>
