<svg width="32" height="32" viewBox="0 0 32 32" fill="none" xmlns="http://www.w3.org/2000/svg">
<path d="M13.6317 20.9492C13.9521 21.342 13.9288 21.9216 13.5627 22.2878C13.1965 22.6539 12.6169 22.6772 12.2241 22.3568L12.1486 22.2878L6.14859 16.2878C5.78245 15.9216 5.75917 15.342 6.07958 14.9492L6.14859 14.8737L12.1486 8.87369L12.2241 8.80468C12.6169 8.48427 13.1965 8.50755 13.5627 8.87369C13.9288 9.23983 13.9521 9.81946 13.6317 10.2122L13.5627 10.2878L8.26969 15.5807L13.5627 20.8737L13.6317 20.9492Z" fill="#FAFAFA"/>
<path d="M26.2983 14.9492C26.6187 15.342 26.5955 15.9216 26.2293 16.2878L20.2293 22.2878L20.1538 22.3568C19.761 22.6772 19.1814 22.6539 18.8153 22.2878C18.4491 21.9216 18.4258 21.342 18.7462 20.9492L18.8153 20.8737L24.1082 15.5807L18.8153 10.2878C18.4247 9.89723 18.4247 9.26422 18.8153 8.87369C19.2058 8.48317 19.8388 8.48317 20.2293 8.87369L26.2293 14.8737L26.2983 14.9492Z" fill="#FAFAFA"/>
</svg>
