<svg width="32" height="32" viewBox="0 0 32 32" fill="none" xmlns="http://www.w3.org/2000/svg">
<path d="M10.9994 10.3332C10.9994 10.8855 10.5517 11.3332 9.99941 11.3332H5.33274C4.96468 11.3333 4.66607 11.6317 4.66607 11.9998V25.3332C4.66625 25.7011 4.96479 25.9997 5.33274 25.9998H26.6661C27.0342 25.9998 27.3326 25.7012 27.3327 25.3332V11.9998C27.3327 11.6316 27.0343 11.3332 26.6661 11.3332H21.9994C21.4471 11.3332 20.9994 10.8855 20.9994 10.3332C20.9994 9.78089 21.4471 9.33317 21.9994 9.33317H26.6661L26.9382 9.34749C28.2831 9.48384 29.3327 10.619 29.3327 11.9998V12.936C30.0536 12.9474 30.6372 13.5314 30.6439 14.2563L30.6882 23.0272C30.6947 23.7634 30.1028 24.3655 29.3666 24.3722C29.3553 24.3723 29.3439 24.3711 29.3327 24.3709V25.3332C29.3326 26.7139 28.283 27.8492 26.9382 27.9855L26.6661 27.9998H5.33274C3.95211 27.9997 2.81688 26.95 2.68039 25.6053L2.66607 25.3332V24.3709C1.94561 24.3593 1.36186 23.7765 1.35487 23.0519L1.3106 14.2811C1.3039 13.5449 1.89603 12.9429 2.63222 12.936C2.64342 12.9359 2.65493 12.9359 2.66607 12.936V11.9998C2.66607 10.5272 3.86011 9.33332 5.33274 9.33317H9.99941C10.5517 9.33317 10.9994 9.78089 10.9994 10.3332Z" fill="#FAFAFA"/>
<path d="M23.5346 21.5493C24.0868 21.5493 24.5346 21.997 24.5346 22.5493C24.5342 23.1013 24.0866 23.5493 23.5346 23.5493H8.46295C7.91101 23.5492 7.4633 23.1012 7.46295 22.5493C7.46295 21.9971 7.91079 21.5495 8.46295 21.5493H23.5346Z" fill="#FAFAFA"/>
<path d="M23.5346 17.6665C24.0868 17.6665 24.5346 18.1142 24.5346 18.6665C24.5344 19.2186 24.0867 19.6665 23.5346 19.6665H8.46295C7.9109 19.6664 7.46312 19.2185 7.46295 18.6665C7.46295 18.1143 7.91079 17.6667 8.46295 17.6665H23.5346Z" fill="#FAFAFA"/>
<path d="M23.5346 13.7837C24.0868 13.7837 24.5346 14.2314 24.5346 14.7837C24.5346 15.336 24.0868 15.7837 23.5346 15.7837H8.46295C7.91079 15.7835 7.46295 15.3359 7.46295 14.7837C7.46295 14.2315 7.91079 13.7838 8.46295 13.7837H23.5346Z" fill="#FAFAFA"/>
<path d="M13.3327 3.6665C15.3578 3.6665 16.9994 5.30813 16.9994 7.33317V8.91911L17.2924 8.62614C17.6829 8.23562 18.3159 8.23564 18.7064 8.62614C19.097 9.01666 19.097 9.64968 18.7064 10.0402L16.7064 12.0402C16.6416 12.105 16.5675 12.1545 16.4916 12.1978C16.4554 12.2184 16.4198 12.2403 16.3809 12.2563C16.3382 12.274 16.2938 12.2852 16.2494 12.2967C16.2319 12.3012 16.2152 12.3087 16.1973 12.3123C16.19 12.3138 16.1826 12.3149 16.1752 12.3162C16.1181 12.3264 16.0595 12.3332 15.9994 12.3332C15.9393 12.3332 15.8808 12.3264 15.8236 12.3162C15.8158 12.3149 15.808 12.3139 15.8002 12.3123C15.7823 12.3087 15.7656 12.3013 15.7481 12.2967C15.7038 12.2852 15.6593 12.274 15.6166 12.2563C15.5495 12.2285 15.4866 12.1933 15.4278 12.1522C15.3805 12.1191 15.3346 12.0824 15.2924 12.0402L13.2924 10.0402C12.9019 9.64968 12.9019 9.01666 13.2924 8.62614C13.6829 8.23562 14.3159 8.23564 14.7064 8.62614L14.9994 8.91911V7.33317C14.9994 6.4127 14.2532 5.6665 13.3327 5.6665H10.6661C10.1138 5.66647 9.66607 5.21877 9.66607 4.6665C9.66607 4.11424 10.1138 3.66653 10.6661 3.6665H13.3327Z" fill="#FAFAFA"/>
</svg>
