<svg width="32" height="32" viewBox="0 0 32 32" fill="none" xmlns="http://www.w3.org/2000/svg">
<path fill-rule="evenodd" clip-rule="evenodd" d="M22.0026 4.01432C22.4442 4.07839 22.8298 4.3608 23.0208 4.77344L27.1237 13.6406C27.5069 14.469 26.964 15.4092 26.0924 15.5234L25.9141 15.5339H18.1966C18.1978 15.5537 18.1992 15.5736 18.1992 15.5938V22.5026L18.1797 22.8802C18.0878 23.7555 17.6787 24.5702 17.0299 25.1836C16.3832 25.7949 15.5436 26.1644 14.6589 26.2474L14.2773 26.2656H9.22786L9.21875 26.4167C9.14148 27.1055 8.80057 27.7338 8.27995 28.1966C7.68869 28.7222 6.9085 29 6.11719 29H4C3.44774 29 3.00004 28.5522 3 28V22.3529L3.00521 22.25C3.0567 21.746 3.48244 21.3529 4 21.3529H6.11719C6.9085 21.3529 7.68868 21.6307 8.27995 22.1562C8.87503 22.6852 9.23568 23.4307 9.23568 24.2357V24.2656H14.2773L14.4727 24.2565C14.9256 24.214 15.344 24.0255 15.6562 23.7305C15.9667 23.4369 16.1492 23.0606 16.1901 22.6706L16.1992 22.5026V15.5938C16.1992 15.5736 16.2006 15.5537 16.2018 15.5339H8.73958L8.5612 15.5234C7.68987 15.4091 7.14692 14.4688 7.52995 13.6406L11.6328 4.77344C11.8236 4.36122 12.2087 4.07882 12.6497 4.01432L12.8424 4H21.8112L22.0026 4.01432ZM5 27H6.11719C6.44892 27 6.74752 26.8821 6.95052 26.7018C7.09985 26.5691 7.18536 26.4154 7.21875 26.2656L7.23568 26.1172V24.2357C7.23568 24.0422 7.14969 23.8281 6.95052 23.651C6.74752 23.4708 6.44894 23.3529 6.11719 23.3529H5V27ZM9.78255 13.5339H24.8711L21.3841 6H13.2695L9.78255 13.5339Z" fill="#FAFAFA"/>
</svg>
