<svg width="32" height="32" viewBox="0 0 32 32" fill="none" xmlns="http://www.w3.org/2000/svg">
<path d="M12.2873 0.693848C12.5258 0.693848 12.7613 0.750161 12.9735 0.859212C13.1856 0.968311 13.3685 1.1274 13.5073 1.32145L17.5334 6.95687L17.5347 6.95947C17.6944 7.18171 17.7905 7.4444 17.812 7.71728C17.8335 7.99129 17.7798 8.26631 17.6558 8.51156C17.5317 8.7567 17.3423 8.96295 17.1089 9.10791C16.8753 9.2529 16.6052 9.33084 16.3302 9.33317H16.2808L19.5568 13.7004C19.8879 14.142 19.799 14.7687 19.3576 15.1001C18.9158 15.4315 18.288 15.3414 17.9565 14.8996L14.0815 9.73291C13.9145 9.51023 13.8124 9.24579 13.7873 8.96859C13.7622 8.69115 13.815 8.41176 13.9396 8.1626C14.0641 7.91358 14.2549 7.70356 14.4917 7.55713C14.7286 7.4107 15.0022 7.3332 15.2808 7.33317H15.3433L12.2873 3.05322L9.23128 7.33317H9.28076C9.55932 7.33317 9.83285 7.41067 10.0698 7.55713C10.3067 7.70355 10.4973 7.91356 10.6219 8.1626C10.7465 8.41176 10.7993 8.69115 10.7742 8.96859C10.7491 9.24562 10.6481 9.51031 10.4813 9.73291L6.28076 15.3332H7.28076C7.55932 15.3332 7.83285 15.4107 8.06982 15.5571C8.30667 15.7035 8.49735 15.9136 8.6219 16.1626C8.74648 16.4118 8.79926 16.6911 8.77424 16.9686C8.74915 17.2456 8.6481 17.5103 8.48128 17.7329L4.28076 23.3332H12.2808C12.3499 23.3332 12.4174 23.3407 12.4826 23.354C12.6128 23.3807 12.7342 23.4318 12.8407 23.5037C12.947 23.5757 13.0383 23.6681 13.1102 23.7746C13.2179 23.9341 13.2807 24.1262 13.2808 24.3332V30.3332C13.2808 30.8855 12.833 31.3332 12.2808 31.3332C11.7285 31.3331 11.2808 30.8854 11.2808 30.3332V25.3332H3.28076C3.00224 25.3331 2.72862 25.2556 2.49169 25.1092C2.25494 24.9628 2.06411 24.7527 1.93961 24.5037C1.81515 24.2548 1.76235 23.9763 1.78727 23.6991C1.81228 23.4216 1.91439 23.1563 2.08154 22.9334L6.28076 17.3332H5.28076C5.00224 17.3331 4.72862 17.2556 4.49169 17.1092C4.25494 16.9628 4.06411 16.7527 3.93961 16.5037C3.81515 16.2548 3.76235 15.9763 3.78727 15.6991C3.81228 15.4216 3.9144 15.1563 4.08154 14.9334L8.28076 9.33317H8.2443C7.9694 9.33082 7.70053 9.25286 7.46695 9.10791C7.23345 8.96299 7.04421 8.75674 6.92008 8.51156C6.79601 8.26632 6.74101 7.99127 6.76253 7.71728C6.78404 7.4443 6.88005 7.18177 7.03987 6.95947L11.0672 1.32145C11.2059 1.12752 11.389 0.9683 11.6011 0.859212C11.8132 0.750158 12.0488 0.693896 12.2873 0.693848Z" fill="#FAFAFA"/>
<path fill-rule="evenodd" clip-rule="evenodd" d="M21.5216 17.1405C22.5053 16.3536 23.906 16.3622 24.8797 17.1613L29.2638 20.759C29.8805 21.2655 30.2378 22.0221 30.2378 22.8201V28.6704C30.2377 30.1407 29.0453 31.3329 27.575 31.3332H18.6662L18.394 31.3201C17.0492 31.1838 15.9996 30.0473 15.9995 28.6665V22.841C15.9995 22.1322 16.2813 21.4562 16.7755 20.9595L17.0008 20.7576L21.5216 17.1405ZM23.6115 18.7069C23.3681 18.5071 23.0175 18.5051 22.7716 18.7017L18.2495 22.3201C18.0916 22.4467 17.9995 22.6386 17.9995 22.841V28.6665C17.9996 29.0346 18.298 29.3332 18.6662 29.3332H20.3481V27.4009C20.3481 26.1122 21.3928 25.0675 22.6814 25.0675H23.5629C24.8514 25.0678 25.8963 26.1124 25.8963 27.4009V29.3332H27.575C27.9407 29.3329 28.2377 29.0361 28.2378 28.6704V22.8201C28.2378 22.6207 28.1483 22.4312 27.9943 22.3045L23.6115 18.7069ZM22.6814 27.0675C22.4973 27.0675 22.3481 27.2168 22.3481 27.4009V29.3332H23.8963V27.4009C23.8963 27.2169 23.7468 27.0678 23.5629 27.0675H22.6814Z" fill="#FAFAFA"/>
</svg>
