<svg width="32" height="32" viewBox="0 0 32 32" fill="none" xmlns="http://www.w3.org/2000/svg">
<path fill-rule="evenodd" clip-rule="evenodd" d="M1.33203 15.9999C1.33203 10.1187 6.05311 5.33325 11.8987 5.33325C15.7863 5.33325 19.1782 7.45244 21.0114 10.597C21.1418 10.8209 21.4396 10.975 21.7575 10.9309C22.1093 10.8822 22.468 10.8571 22.832 10.8571C27.168 10.8571 30.6654 14.406 30.6654 18.7618C30.6654 23.1177 27.168 26.6666 22.832 26.6666H11.8987C6.05311 26.6666 1.33203 21.8811 1.33203 15.9999ZM11.8987 7.33325C7.17724 7.33325 3.33203 11.2036 3.33203 15.9999C3.33203 20.7962 7.17724 24.6666 11.8987 24.6666H22.832C26.0439 24.6666 28.6654 22.0328 28.6654 18.7618C28.6654 15.4909 26.0439 12.8571 22.832 12.8571C22.5602 12.8571 22.2932 12.8758 22.0321 12.912C20.9732 13.0588 19.8531 12.5813 19.2835 11.6043C17.7903 9.04294 15.0391 7.33325 11.8987 7.33325Z" fill="#FAFAFA"/>
</svg>
