<svg width="32" height="32" viewBox="0 0 32 32" fill="none" xmlns="http://www.w3.org/2000/svg">
<path fill-rule="evenodd" clip-rule="evenodd" d="M16.0003 4.6665C9.7411 4.6665 4.66699 9.74061 4.66699 15.9998C4.66699 22.2591 9.7411 27.3332 16.0003 27.3332C22.2596 27.3332 27.3337 22.2591 27.3337 15.9998C27.3337 9.74061 22.2596 4.6665 16.0003 4.6665ZM2.66699 15.9998C2.66699 8.63604 8.63653 2.6665 16.0003 2.6665C23.3641 2.6665 29.3337 8.63604 29.3337 15.9998C29.3337 23.3636 23.3641 29.3332 16.0003 29.3332C8.63653 29.3332 2.66699 23.3636 2.66699 15.9998ZM17.0003 12.7474L19.6266 15.3736C20.0171 15.7641 20.6502 15.7641 21.0408 15.3736C21.4313 14.9831 21.4313 14.3499 21.0408 13.9594L17.6502 10.5689C16.739 9.65765 15.2616 9.65765 14.3504 10.5689L10.9599 13.9594C10.5694 14.3499 10.5694 14.9831 10.9599 15.3736C11.3504 15.7641 11.9836 15.7641 12.3741 15.3736L15.0003 12.7474V21.6665C15.0003 22.2188 15.448 22.6665 16.0003 22.6665C16.5526 22.6665 17.0003 22.2188 17.0003 21.6665V12.7474Z" fill="#FAFAFA"/>
</svg>
