<svg width="32" height="32" viewBox="0 0 32 32" fill="none" xmlns="http://www.w3.org/2000/svg">
<path d="M10.5794 10.5797C10.97 10.1895 11.603 10.1893 11.9935 10.5797C12.3836 10.9702 12.3836 11.6034 11.9935 11.9938C10.931 13.0564 10.3335 14.4976 10.3333 16.0003C10.3334 17.5031 10.9308 18.9455 11.9935 20.0081C12.3835 20.3986 12.3837 21.0318 11.9935 21.4222C11.6031 21.8124 10.97 21.8122 10.5794 21.4222C9.37952 20.2223 8.62017 18.6646 8.40104 17.0003H4C3.44778 17.0003 3.00011 16.5525 3 16.0003C3 15.448 3.44772 15.0003 4 15.0003H8.40104C8.62019 13.3363 9.37962 11.7796 10.5794 10.5797Z" fill="#FAFAFA"/>
<path d="M20.0065 10.5784C20.3969 10.1883 21.0301 10.1885 21.4206 10.5784C22.6206 11.7785 23.3799 13.336 23.599 15.0003H28C28.5523 15.0003 29 15.448 29 16.0003C28.9999 16.5525 28.5522 17.0003 28 17.0003H23.599C23.3797 18.6643 22.6202 20.2212 21.4206 21.4209C21.03 21.811 20.3969 21.8113 20.0065 21.4209C19.6164 21.0305 19.6165 20.3973 20.0065 20.0068C21.0691 18.9441 21.6667 17.5018 21.6667 15.999C21.6664 14.4965 21.069 13.055 20.0065 11.9925C19.6165 11.602 19.6164 10.9688 20.0065 10.5784Z" fill="#FAFAFA"/>
<path d="M15.6146 12.3167C15.8383 12.1225 16.1617 12.1225 16.3854 12.3167C17.1241 12.958 18.6667 14.4792 18.6667 16.0003C18.6666 16.7075 18.3855 17.3857 17.8854 17.8857C17.3853 18.3858 16.7072 18.667 16 18.667C15.2928 18.667 14.6147 18.3858 14.1146 17.8857C13.6145 17.3857 13.3334 16.7075 13.3333 16.0003C13.3333 14.4792 14.8759 12.958 15.6146 12.3167Z" fill="#FAFAFA"/>
</svg>
