<svg width="32" height="32" viewBox="0 0 32 32" fill="none" xmlns="http://www.w3.org/2000/svg">
<path fill-rule="evenodd" clip-rule="evenodd" d="M12.9206 13.3997C14.3563 13.3999 15.5207 14.5643 15.5208 16C15.5207 17.4357 14.3563 18.6001 12.9206 18.6003C11.4847 18.6003 10.3205 17.4358 10.3203 16C10.3205 14.5643 11.4847 13.3997 12.9206 13.3997ZM12.9206 15.3997C12.5893 15.3997 12.3205 15.6688 12.3203 16C12.3205 16.3312 12.5893 16.6003 12.9206 16.6003C13.2517 16.6001 13.5207 16.3311 13.5208 16C13.5207 15.6689 13.2517 15.3999 12.9206 15.3997Z" fill="#FAFAFA"/>
<path fill-rule="evenodd" clip-rule="evenodd" d="M19.3216 13.3997C20.7573 13.3999 21.9217 14.5643 21.9219 16C21.9217 17.4357 20.7573 18.6001 19.3216 18.6003C17.8858 18.6003 16.7215 17.4358 16.7214 16C16.7215 14.5642 17.8858 13.3997 19.3216 13.3997ZM19.3216 15.3997C18.9904 15.3997 18.7215 15.6688 18.7214 16C18.7215 16.3312 18.9904 16.6003 19.3216 16.6003C19.6528 16.6001 19.9217 16.3311 19.9219 16C19.9217 15.6689 19.6527 15.3999 19.3216 15.3997Z" fill="#FAFAFA"/>
<path fill-rule="evenodd" clip-rule="evenodd" d="M9.49479 8.67708C13.1631 5.27085 18.8382 5.2708 22.5065 8.67708C23.7469 9.82911 24.4552 11.4424 24.4661 13.1341H24.9466C25.4987 13.1344 25.9466 13.582 25.9466 14.1341V17.8008C25.9463 18.3527 25.4985 18.8005 24.9466 18.8008H24.4674V18.8281C24.4671 20.534 23.7564 22.1634 22.5065 23.3242C18.8382 26.7302 13.1631 26.7302 9.49479 23.3242C8.24466 22.1633 7.53416 20.5341 7.53385 18.8281V18.8008H7.05469C6.50258 18.8008 6.05497 18.3528 6.05469 17.8008V14.1341C6.05469 13.5818 6.5024 13.1341 7.05469 13.1341H7.53516C7.54613 11.4423 8.25426 9.82914 9.49479 8.67708ZM15.1211 8.17448C13.5759 8.3546 12.0753 9.01052 10.8555 10.1432C10.0129 10.9259 9.53385 12.0245 9.53385 13.1745V14.1341C9.53357 14.6861 9.08591 15.134 8.53385 15.1341H8.05469V16.8008H8.53385C9.08608 16.8008 9.53385 17.2485 9.53385 17.8008V18.8281C9.53416 19.9779 10.0128 21.0769 10.8555 21.8594C12.0752 22.9918 13.5761 23.6454 15.1211 23.8255V21.8672C15.1211 21.3149 15.5688 20.8672 16.1211 20.8672C16.6734 20.8672 17.1211 21.3149 17.1211 21.8672V23.7943C18.5807 23.5766 19.9896 22.9329 21.1458 21.8594C21.9884 21.0769 22.4671 19.9779 22.4674 18.8281V17.8008C22.4674 17.2485 22.9152 16.8008 23.4674 16.8008H23.9466V15.1341H23.4674C22.9153 15.1341 22.4677 14.6862 22.4674 14.1341V13.1745C22.4674 12.0246 21.9882 10.9259 21.1458 10.1432C19.9895 9.06951 18.5808 8.42479 17.1211 8.20703V10.1328C17.1211 10.6851 16.6734 11.1328 16.1211 11.1328C15.5688 11.1328 15.1211 10.6851 15.1211 10.1328V8.17448Z" fill="#FAFAFA"/>
<path fill-rule="evenodd" clip-rule="evenodd" d="M24.7995 3C27.1191 3 29 4.88094 29 7.20052V24.7995C29 27.1191 27.1191 29 24.7995 29H7.20052C4.88094 29 3 27.1191 3 24.7995V7.20052C3 4.88093 4.88093 3 7.20052 3H24.7995ZM7.20052 5C5.9855 5 5 5.9855 5 7.20052V24.7995C5 26.0145 5.98549 27 7.20052 27H24.7995C26.0146 27 27 26.0146 27 24.7995V7.20052C27 5.98549 26.0145 5 24.7995 5H7.20052Z" fill="#FAFAFA"/>
</svg>
