<svg width="32" height="32" viewBox="0 0 32 32" fill="none" xmlns="http://www.w3.org/2000/svg">
<path d="M5.33203 21.6666C5.88432 21.6666 6.33203 22.1143 6.33203 22.6666V23.9999C6.33203 24.4419 6.50775 24.8657 6.82031 25.1783C7.13287 25.4909 7.55667 25.6666 7.9987 25.6666H9.33203C9.88432 25.6666 10.332 26.1143 10.332 26.6666C10.332 27.2189 9.88432 27.6666 9.33203 27.6666H7.9987C7.02624 27.6666 6.09388 27.28 5.40625 26.5924C4.71862 25.9047 4.33203 24.9724 4.33203 23.9999V22.6666C4.33203 22.1143 4.77975 21.6666 5.33203 21.6666Z" fill="#FAFAFA"/>
<path d="M15.9987 22.9999C16.551 22.9999 16.9987 23.4476 16.9987 23.9999V26.6666C16.9987 27.2189 16.551 27.6666 15.9987 27.6666C15.4464 27.6666 14.9987 27.2189 14.9987 26.6666V23.9999C14.9987 23.4476 15.4464 22.9999 15.9987 22.9999Z" fill="#FAFAFA"/>
<path d="M26.6654 21.6666C27.2176 21.6666 27.6654 22.1143 27.6654 22.6666V23.9999C27.6654 24.9724 27.2788 25.9047 26.5911 26.5924C25.9035 27.28 24.9712 27.6666 23.9987 27.6666H22.6654C22.1131 27.6666 21.6654 27.2189 21.6654 26.6666C21.6654 26.1143 22.1131 25.6666 22.6654 25.6666H23.9987C24.4407 25.6666 24.8645 25.4909 25.1771 25.1783C25.4896 24.8657 25.6654 24.4419 25.6654 23.9999V22.6666C25.6654 22.1143 26.1131 21.6666 26.6654 21.6666Z" fill="#FAFAFA"/>
<path fill-rule="evenodd" clip-rule="evenodd" d="M15.9987 10.9999C17.3248 10.9999 18.5962 11.5271 19.5339 12.4648C20.4715 13.4024 20.9987 14.6738 20.9987 15.9999C20.9987 17.326 20.4715 18.5974 19.5339 19.5351C18.5962 20.4728 17.3248 20.9999 15.9987 20.9999C14.6726 20.9999 13.4012 20.4728 12.4635 19.5351C11.5259 18.5974 10.9987 17.326 10.9987 15.9999C10.9987 14.6738 11.5259 13.4024 12.4635 12.4648C13.4012 11.5271 14.6726 10.9999 15.9987 10.9999ZM15.9987 12.9999C15.203 12.9999 14.4402 13.3162 13.8776 13.8788C13.315 14.4414 12.9987 15.2043 12.9987 15.9999C12.9987 16.7956 13.315 17.5584 13.8776 18.121C14.4402 18.6836 15.203 18.9999 15.9987 18.9999C16.7943 18.9999 17.5572 18.6836 18.1198 18.121C18.6824 17.5584 18.9987 16.7956 18.9987 15.9999C18.9987 15.2043 18.6824 14.4414 18.1198 13.8788C17.5572 13.3162 16.7943 12.9999 15.9987 12.9999Z" fill="#FAFAFA"/>
<path d="M7.9987 14.9999C8.55098 14.9999 8.9987 15.4476 8.9987 15.9999C8.9987 16.5522 8.55098 16.9999 7.9987 16.9999H5.33203C4.77975 16.9999 4.33203 16.5522 4.33203 15.9999C4.33203 15.4476 4.77975 14.9999 5.33203 14.9999H7.9987Z" fill="#FAFAFA"/>
<path d="M26.6654 14.9999C27.2176 14.9999 27.6654 15.4476 27.6654 15.9999C27.6654 16.5522 27.2176 16.9999 26.6654 16.9999H23.9987C23.4464 16.9999 22.9987 16.5522 22.9987 15.9999C22.9987 15.4476 23.4464 14.9999 23.9987 14.9999H26.6654Z" fill="#FAFAFA"/>
<path d="M9.33203 4.33325C9.88432 4.33325 10.332 4.78097 10.332 5.33325C10.332 5.88554 9.88432 6.33325 9.33203 6.33325H7.9987C7.55667 6.33325 7.13287 6.50897 6.82031 6.82153C6.50775 7.13409 6.33203 7.55789 6.33203 7.99992V9.33325C6.33203 9.88554 5.88432 10.3333 5.33203 10.3333C4.77975 10.3333 4.33203 9.88554 4.33203 9.33325V7.99992C4.33203 7.02746 4.71862 6.0951 5.40625 5.40747C6.09388 4.71984 7.02624 4.33325 7.9987 4.33325H9.33203Z" fill="#FAFAFA"/>
<path d="M23.9987 4.33325C24.9712 4.33325 25.9035 4.71984 26.5911 5.40747C27.2788 6.0951 27.6654 7.02746 27.6654 7.99992V9.33325C27.6654 9.88554 27.2176 10.3333 26.6654 10.3333C26.1131 10.3333 25.6654 9.88554 25.6654 9.33325V7.99992C25.6654 7.55789 25.4896 7.13409 25.1771 6.82153C24.8645 6.50897 24.4407 6.33325 23.9987 6.33325H22.6654C22.1131 6.33325 21.6654 5.88554 21.6654 5.33325C21.6654 4.78097 22.1131 4.33325 22.6654 4.33325H23.9987Z" fill="#FAFAFA"/>
<path d="M15.9987 4.33325C16.551 4.33325 16.9987 4.78097 16.9987 5.33325V7.99992C16.9987 8.5522 16.551 8.99992 15.9987 8.99992C15.4464 8.99992 14.9987 8.5522 14.9987 7.99992V5.33325C14.9987 4.78097 15.4464 4.33325 15.9987 4.33325Z" fill="#FAFAFA"/>
</svg>
