<svg width="32" height="32" viewBox="0 0 32 32" fill="none" xmlns="http://www.w3.org/2000/svg">
<path fill-rule="evenodd" clip-rule="evenodd" d="M28.2579 5.02995C28.7936 4.8962 29.3362 5.22213 29.4701 5.75781C29.6038 6.29351 29.2779 6.83613 28.7422 6.97005L17.0001 9.90495V15H22.2501V15.5742C22.2502 15.0173 22.2496 15.0005 22.2501 15H22.2774C22.29 15.0002 22.3062 15.0007 22.3256 15.0013C22.3647 15.0026 22.4174 15.0058 22.4818 15.0104C22.6108 15.0196 22.7894 15.0365 23.0001 15.0716C23.417 15.1411 23.9884 15.2827 24.5717 15.5742C25.159 15.8679 25.7774 16.3243 26.2461 17.0273C26.719 17.7367 27 18.6375 27 19.75V24.75H26C26.9684 24.75 26.9991 24.7495 27 24.75V24.7773C26.9998 24.7899 26.9994 24.8061 26.9987 24.8255C26.9974 24.8647 26.9942 24.9173 26.9896 24.9818C26.9804 25.1108 26.9635 25.2893 26.9284 25.5C26.8589 25.9169 26.7174 26.4883 26.4258 27.0716C26.1321 27.659 25.6758 28.2774 24.9727 28.7461C24.2634 29.219 23.3625 29.5 22.2501 29.5H9.75005V28.5C9.75005 29.5 9.75057 29.5 9.75005 29.5H9.72271C9.71014 29.4998 9.69391 29.4993 9.67453 29.4987C9.6354 29.4974 9.58268 29.4942 9.51828 29.4896C9.38925 29.4804 9.21073 29.4635 9.00005 29.4284C8.58313 29.3589 8.01169 29.2173 7.42844 28.9258C6.84107 28.6321 6.22266 28.1757 5.75396 27.4727C5.28108 26.7633 5.00005 25.8625 5.00005 24.75V19.75H6.00005C5.00014 19.75 5.00005 19.7505 5.00005 19.75V19.7227C5.00026 19.7101 5.00071 19.6939 5.00135 19.6745C5.00266 19.6353 5.00587 19.5827 5.01047 19.5182C5.01969 19.3892 5.03656 19.2107 5.07167 19C5.14115 18.5831 5.28272 18.0117 5.57427 17.4284C5.86795 16.841 6.32434 16.2226 7.0274 15.7539C7.73672 15.281 8.63759 15 9.75005 15H15.0001V10.4049L3.74224 13.2201C3.20656 13.3538 2.66392 13.0279 2.53 12.4922C2.39627 11.9565 2.72221 11.4139 3.25786 11.2799L28.2579 5.02995ZM7.00005 23.25V24.75C7.00005 25.5125 7.1878 26.0179 7.41802 26.3633C7.6523 26.7147 7.97177 26.9617 8.32167 27.1367C8.6755 27.3136 9.04218 27.4067 9.32818 27.4544C9.46881 27.4779 9.58425 27.4894 9.66021 27.4948C9.69772 27.4975 9.7252 27.4995 9.74094 27.5H22.2501C23.0125 27.5 23.518 27.3123 23.8633 27.082C24.2148 26.8477 24.4617 26.5283 24.6368 26.1784C24.8137 25.8245 24.9068 25.4579 24.9545 25.1719C24.9779 25.0312 24.9894 24.9158 24.9948 24.8398C24.9975 24.8023 24.9995 24.7748 25 24.7591V23.25H7.00005ZM9.75005 17C8.98757 17 8.48211 17.1877 8.13677 17.418C7.78536 17.6523 7.53837 17.9717 7.36333 18.3216C7.18641 18.6755 7.09332 19.0421 7.04562 19.3281C7.02218 19.4688 7.01068 19.5842 7.00526 19.6602C7.00258 19.6977 7.00058 19.7252 7.00005 19.7409V21.25H11.2501V17H9.75005ZM13.2501 21.25H18.7501V17H13.2501V21.25ZM20.7501 21.25H25V19.75C25 18.9875 24.8123 18.4821 24.5821 18.1367C24.3478 17.7853 24.0283 17.5383 23.6784 17.3633C23.3246 17.1864 22.9579 17.0933 22.6719 17.0456C22.5313 17.0221 22.4158 17.0106 22.3399 17.0052C22.3024 17.0025 22.2749 17.0005 22.2592 17H20.7501V21.25Z" fill="#FAFAFA"/>
<path d="M13.5131 3.75C14.0651 3.75028 14.5131 4.19789 14.5131 4.75C14.5131 5.30211 14.0651 5.74972 13.5131 5.75H13.5001C12.9478 5.74997 12.5001 5.30227 12.5001 4.75C12.5001 4.19773 12.9478 3.75003 13.5001 3.75H13.5131Z" fill="#FAFAFA"/>
<path d="M18.5131 2.5C19.0651 2.50028 19.5131 2.94789 19.5131 3.5C19.5131 4.05211 19.0651 4.49972 18.5131 4.5H18.5001C17.9478 4.49997 17.5001 4.05227 17.5001 3.5C17.5001 2.94773 17.9478 2.50003 18.5001 2.5H18.5131Z" fill="#FAFAFA"/>
</svg>
