<svg width="32" height="32" viewBox="0 0 32 32" fill="none" xmlns="http://www.w3.org/2000/svg">
<path fill-rule="evenodd" clip-rule="evenodd" d="M15.0378 12.73C15.3934 12.5284 15.8453 12.5618 16.1693 12.8302C17.0006 13.5196 17.8265 14.4424 18.4505 15.4591C19.0679 16.4652 19.5376 17.6464 19.5378 18.8354C19.5377 20.0589 19.025 21.0337 18.2305 21.6831C17.46 22.3127 16.4732 22.5998 15.5299 22.5998C14.5869 22.5997 13.6011 22.3125 12.8307 21.6831C12.0362 21.0337 11.5235 20.0589 11.5234 18.8354C11.5234 18.8153 11.5235 18.7944 11.5247 18.7743C11.6769 16.2913 12.9546 14.438 14.8919 12.8302L15.0378 12.73ZM15.5195 14.95C14.279 16.1433 13.6243 17.3706 13.5247 18.8654C13.5324 19.4678 13.769 19.8673 14.0964 20.1349C14.4533 20.4264 14.9702 20.5997 15.5299 20.5998C16.09 20.5998 16.6077 20.4266 16.9648 20.1349C17.2976 19.8629 17.5377 19.4546 17.5378 18.8354C17.5376 18.1509 17.2549 17.3359 16.7448 16.5047C16.3993 15.9419 15.9707 15.4092 15.5195 14.95Z" fill="#FAFAFA"/>
<path fill-rule="evenodd" clip-rule="evenodd" d="M14.7305 3.80029C15.42 3.80029 16.0814 4.07442 16.569 4.56201C17.0566 5.04961 17.3307 5.71099 17.3307 6.40055V7.00081H18.7305C18.9957 7.00081 19.25 7.10625 19.4375 7.29378L19.5299 7.38623L20.0924 6.82503C20.3338 6.58358 20.6208 6.39194 20.9362 6.26123C21.2516 6.13059 21.5896 6.06335 21.931 6.06331C22.2725 6.06333 22.6116 6.13048 22.9271 6.26123C23.2424 6.39199 23.5295 6.58357 23.7708 6.82503L23.7695 6.82633L25.5065 8.56201L25.6784 8.75081C25.8402 8.948 25.9723 9.16926 26.0703 9.40576C26.2009 9.72109 26.2682 10.0593 26.2682 10.4006C26.2682 10.7419 26.2009 11.08 26.0703 11.3953C25.9723 11.6319 25.8402 11.8531 25.6784 12.0503L25.5065 12.2391L24.944 12.8003L25.0378 12.894C25.225 13.0815 25.3307 13.3361 25.3307 13.6011V25.6011C25.3305 26.2904 25.0564 26.9522 24.569 27.4396C24.0815 27.927 23.4199 28.2013 22.7305 28.2013H8.33073C7.6414 28.2013 6.97973 27.9269 6.49219 27.4396C6.00477 26.9522 5.73067 26.2904 5.73047 25.6011V9.60107C5.73047 8.91163 6.00475 8.2501 6.49219 7.76253C6.73472 7.52 7.02012 7.32947 7.33073 7.20003V6.40055C7.33073 5.71099 7.60485 5.04961 8.09245 4.56201C8.58004 4.07442 9.24143 3.80029 9.93099 3.80029H14.7305ZM8.33073 9.00081C8.1716 9.00081 8.01877 9.06407 7.90625 9.17659C7.79388 9.28909 7.73047 9.44206 7.73047 9.60107V25.6011C7.73067 25.7599 7.7939 25.9132 7.90625 26.0256C8.01872 26.1378 8.17184 26.2013 8.33073 26.2013H22.7305C22.8894 26.2013 23.0425 26.1378 23.1549 26.0256C23.2673 25.9132 23.3305 25.7599 23.3307 25.6011V14.0151L18.3164 9.00081H8.33073ZM21.931 8.06331C21.8524 8.06335 21.7745 8.07882 21.7018 8.10889C21.629 8.13906 21.5622 8.18334 21.5065 8.23909L20.944 8.80029L23.5299 11.3862L24.0924 10.825L24.1667 10.7339C24.1885 10.7013 24.2076 10.6661 24.2227 10.6297C24.2527 10.5571 24.2682 10.4791 24.2682 10.4006C24.2682 10.322 24.2526 10.244 24.2227 10.1714C24.2076 10.135 24.1884 10.0998 24.1667 10.0672L24.0924 9.97607L22.3555 8.23909C22.2999 8.18356 22.234 8.13903 22.1615 8.10889C22.0887 8.07873 22.0098 8.06333 21.931 8.06331ZM9.93099 5.80029C9.77186 5.80029 9.61903 5.86355 9.50651 5.97607C9.39399 6.0886 9.33073 6.24142 9.33073 6.40055V7.00081H15.3307V6.40055C15.3307 6.24142 15.2675 6.0886 15.1549 5.97607C15.0424 5.86355 14.8896 5.80029 14.7305 5.80029H9.93099Z" fill="#FAFAFA"/>
</svg>
