<svg width="32" height="32" viewBox="0 0 32 32" fill="none" xmlns="http://www.w3.org/2000/svg">
<path d="M15.0586 9.3474C15.6106 9.34754 16.0584 9.79539 16.0586 10.3474C16.0586 10.8996 15.6108 11.3473 15.0586 11.3474H6.25781C5.6373 11.3477 5.12551 11.8598 5.125 12.4802V25.8135C5.125 26.4344 5.637 26.9474 6.25781 26.9477H16.3919C17.0129 26.9475 17.5247 26.4345 17.5247 25.8135V18.6143C17.525 18.0623 17.9727 17.6145 18.5247 17.6143C19.0769 17.6143 19.5245 18.0622 19.5247 18.6143V25.8135C19.5247 27.5391 18.1174 28.9475 16.3919 28.9477H6.25781C4.53243 28.9474 3.125 27.539 3.125 25.8135V12.4802C3.1255 10.7552 4.53274 9.34769 6.25781 9.3474H15.0586Z" fill="#FAFAFA"/>
<path d="M15.1914 23.3474C15.7436 23.3474 16.1912 23.7953 16.1914 24.3474C16.1914 24.8997 15.7437 25.3474 15.1914 25.3474H7.45833C6.90605 25.3474 6.45833 24.8997 6.45833 24.3474C6.45855 23.7953 6.90618 23.3474 7.45833 23.3474H15.1914Z" fill="#FAFAFA"/>
<path d="M15.1914 20.2146C15.7437 20.2146 16.1914 20.6623 16.1914 21.2146C16.1913 21.7668 15.7436 22.2146 15.1914 22.2146H7.45833C6.90613 22.2146 6.45847 21.7668 6.45833 21.2146C6.45833 20.6623 6.90605 20.2146 7.45833 20.2146H15.1914Z" fill="#FAFAFA"/>
<path d="M15.1914 17.0805C15.7436 17.0805 16.1912 17.5284 16.1914 18.0805C16.1914 18.6328 15.7437 19.0805 15.1914 19.0805H7.45833C6.90605 19.0805 6.45833 18.6328 6.45833 18.0805C6.45855 17.5284 6.90618 17.0805 7.45833 17.0805H15.1914Z" fill="#FAFAFA"/>
<path fill-rule="evenodd" clip-rule="evenodd" d="M22.5586 3.28621C22.9289 2.97816 23.4666 2.97731 23.8372 3.2849C25.0853 4.32223 26.3279 5.71494 27.2643 7.24454C28.1941 8.76339 28.8724 10.5006 28.8724 12.212C28.8721 13.9484 28.1524 15.3092 27.0456 16.2159C25.9628 17.1026 24.5594 17.5179 23.1992 17.518C21.8388 17.518 20.4345 17.1028 19.3516 16.2159C18.2447 15.3092 17.525 13.9484 17.5247 12.212C17.5247 12.192 17.5248 12.1708 17.526 12.1508C17.7498 8.48696 19.6205 5.73053 22.5586 3.28621ZM23.1901 5.38647C20.9345 7.43177 19.6951 9.57058 19.5247 12.2471C19.5342 13.362 19.9801 14.1445 20.6185 14.6677C21.2881 15.2161 22.223 15.518 23.1992 15.518C24.1752 15.5178 25.1091 15.216 25.7786 14.6677C26.4238 14.139 26.8721 13.3456 26.8724 12.212C26.8724 11.0041 26.3813 9.63271 25.5586 8.28881C24.9007 7.21427 24.0605 6.20971 23.1901 5.38647Z" fill="#FAFAFA"/>
<path d="M7.99219 12.3474C8.83861 12.3474 9.52422 13.0337 9.52474 13.88C9.52474 14.7268 8.83874 15.4138 7.99219 15.4138L7.99089 15.4125C7.14457 15.4122 6.45833 14.7266 6.45833 13.88C6.45886 13.0339 7.14601 12.3477 7.99219 12.3474Z" fill="#FAFAFA"/>
</svg>
