<svg width="32" height="32" viewBox="0 0 32 32" fill="none" xmlns="http://www.w3.org/2000/svg">
<path fill-rule="evenodd" clip-rule="evenodd" d="M16.0104 22.2005C16.337 22.2041 16.6414 22.367 16.8255 22.6367L16.8268 22.638L16.8281 22.6406L16.832 22.6458C16.8356 22.651 16.8414 22.6587 16.8477 22.668C16.8604 22.687 16.8781 22.7155 16.901 22.75C16.9472 22.8195 17.0133 22.9192 17.0911 23.0404C17.2466 23.2823 17.4553 23.6165 17.6654 23.9805C17.8737 24.3417 18.0939 24.7504 18.2643 25.1367C18.4153 25.4789 18.6003 25.9576 18.6003 26.401C18.5996 27.8061 17.4051 28.9999 16 29C14.5948 29 13.4004 27.8062 13.3997 26.401C13.3997 25.942 13.5752 25.4596 13.7331 25.0964C13.9055 24.6999 14.1271 24.2909 14.3372 23.9336C14.5494 23.573 14.7611 23.2457 14.918 23.0104C14.9964 22.8927 15.0627 22.7965 15.1094 22.7292C15.1326 22.6957 15.151 22.6683 15.1641 22.6497C15.1703 22.6409 15.1761 22.634 15.1797 22.6289C15.1813 22.6267 15.1836 22.6224 15.1836 22.6224L15.1849 22.6198C15.3748 22.3539 15.6837 22.197 16.0104 22.2005ZM15.987 25.0781C15.8262 25.3585 15.6767 25.6409 15.5664 25.8945C15.5032 26.0401 15.4578 26.1635 15.4297 26.2617C15.4022 26.3581 15.3997 26.401 15.3997 26.401C15.4005 26.7017 15.6993 27 16 27C16.3006 26.9998 16.5995 26.7016 16.6003 26.401C16.5992 26.4088 16.5794 26.2715 16.4349 25.944C16.3181 25.6792 16.1575 25.3784 15.987 25.0781Z" fill="#FAFAFA"/>
<path fill-rule="evenodd" clip-rule="evenodd" d="M6.72005 9.93359C7.27234 9.93359 7.72005 10.3813 7.72005 10.9336V11.3737C8.40977 11.2864 8.98903 11.0555 9.59375 10.444L9.7474 10.3177C9.91118 10.2075 10.1056 10.1471 10.306 10.1471C10.573 10.1473 10.8292 10.2541 11.0169 10.444C12.0092 11.4475 12.9516 11.4271 13.1523 11.4271C13.3521 11.4271 14.2959 11.4484 15.2891 10.444L15.4414 10.3177C15.6053 10.2074 15.7995 10.1471 16 10.1471C16.2671 10.1471 16.5231 10.2541 16.7109 10.444C17.7041 11.4484 18.6479 11.4271 18.8477 11.4271C19.0482 11.4271 19.9907 11.4476 20.9831 10.444L21.1354 10.3177C21.513 10.0627 22.0285 10.0928 22.375 10.4141C23.039 11.0295 23.6417 11.2709 24.2799 11.3659V10.9336C24.2799 10.3813 24.7277 9.93364 25.2799 9.93359H27.9466C28.4989 9.93359 28.9466 10.3813 28.9466 10.9336C28.9464 11.4857 28.4988 11.9336 27.9466 11.9336H26.2799V13.9206C26.2797 14.9874 25.6924 16.0824 24.7083 16.6003L24.7096 16.6016L16.4961 21.2956C16.1888 21.471 15.8112 21.471 15.5039 21.2956L7.29036 16.6016C7.27058 16.5903 7.25073 16.5777 7.23177 16.5651C6.3872 16.0019 5.7203 15.0805 5.72005 13.9206V11.9336H4.05339C3.50121 11.9336 3.05356 11.4857 3.05339 10.9336C3.05339 10.3813 3.5011 9.93359 4.05339 9.93359H6.72005ZM21.7161 12.4453C20.4183 13.4079 19.2165 13.4271 18.8477 13.4271C18.4813 13.4271 17.2899 13.409 16 12.4622C14.7101 13.409 13.5187 13.4271 13.1523 13.4271C12.7853 13.4271 11.5935 13.4088 10.3034 12.4609C9.43508 13.0893 8.55979 13.3089 7.72005 13.3854V13.9206C7.72029 14.2504 7.90395 14.6047 8.33073 14.8932L16 19.2747L23.7174 14.8659L23.7656 14.8385C24.0317 14.7055 24.2797 14.329 24.2799 13.9206V13.3789C23.4741 13.2961 22.611 13.0689 21.7161 12.4453Z" fill="#FAFAFA"/>
<path d="M23.5195 3.01562C24.9414 3.16077 26.0831 4.26486 26.2943 5.66667H28C28.5523 5.66667 29 6.11438 29 6.66667C29 7.21895 28.5523 7.66667 28 7.66667H25.3333C24.781 7.66667 24.3333 7.21895 24.3333 6.66667V6.13281C24.3331 5.55084 23.8829 5.06509 23.3151 5.00651L23.2005 5H8.79948C8.17884 5.00029 7.66695 5.51217 7.66667 6.13281V6.66667C7.66667 7.21895 7.21895 7.66667 6.66667 7.66667H4C3.44772 7.66667 3 7.21895 3 6.66667C3 6.11438 3.44772 5.66667 4 5.66667H5.70573C5.9325 4.16143 7.23283 3.00026 8.79948 3H23.2005L23.5195 3.01562Z" fill="#FAFAFA"/>
</svg>
