<svg width="32" height="32" viewBox="0 0 32 32" fill="none" xmlns="http://www.w3.org/2000/svg">
<path fill-rule="evenodd" clip-rule="evenodd" d="M22.0658 14.2318C24.7897 14.232 27.0656 16.509 27.0658 19.2331V22.2344H27.209C27.7613 22.2344 28.209 22.6821 28.209 23.2344C28.2088 23.7865 27.7612 24.2344 27.209 24.2344H25.9238V27.2357C25.9234 27.7876 25.4759 28.2357 24.9238 28.2357C24.3718 28.2357 23.9242 27.7876 23.9238 27.2357V24.2344H20.2077V27.2357C20.2073 27.7876 19.7597 28.2357 19.2077 28.2357C18.6556 28.2357 18.2081 27.7876 18.2077 27.2357V24.2344H16.9212C16.369 24.2344 15.9214 23.7865 15.9212 23.2344C15.9212 22.6821 16.3689 22.2344 16.9212 22.2344H17.0645V19.2331C17.0646 16.5089 19.3417 14.2318 22.0658 14.2318ZM22.0658 16.2318C20.4462 16.2318 19.0646 17.6135 19.0645 19.2331V22.2344H21.0658V21.362L20.2155 20.5117C19.825 20.1212 19.825 19.4882 20.2155 19.0977C20.606 18.7071 21.239 18.7071 21.6296 19.0977L22.0658 19.5339L22.502 19.0977C22.8925 18.7072 23.5255 18.7072 23.916 19.0977C24.3063 19.4882 24.3064 20.1212 23.916 20.5117L23.0658 21.362V22.2344H25.0658V19.2331C25.0656 17.6137 23.6852 16.232 22.0658 16.2318Z" fill="#FAFAFA"/>
<path fill-rule="evenodd" clip-rule="evenodd" d="M14.791 6.61589C16.1027 6.61589 17.3288 6.77431 18.2598 7.05339C18.7189 7.19105 19.1643 7.3742 19.5163 7.6237C19.8421 7.85471 20.2909 8.29376 20.291 8.96484C20.291 9.63591 19.8421 10.0749 19.5163 10.306C19.1643 10.5555 18.7189 10.7399 18.2598 10.8776C17.3288 11.1566 16.1026 11.3138 14.791 11.3138C13.4794 11.3138 12.2532 11.1566 11.3223 10.8776C10.8631 10.7399 10.4177 10.5555 10.0658 10.306C9.73991 10.0749 9.29102 9.6359 9.29102 8.96484C9.29114 8.29376 9.73993 7.85471 10.0658 7.6237C10.4177 7.37421 10.8631 7.19105 11.3223 7.05339C12.2532 6.7743 13.4793 6.61589 14.791 6.61589ZM14.791 8.61589C13.6251 8.61589 12.6068 8.75782 11.9095 8.96484C12.6069 9.1719 13.625 9.3138 14.791 9.3138C15.9564 9.3138 16.9739 9.1717 17.6712 8.96484C16.9739 8.75801 15.9563 8.61589 14.791 8.61589Z" fill="#FAFAFA"/>
<path fill-rule="evenodd" clip-rule="evenodd" d="M14.791 3.76562C17.6523 3.76562 20.2899 4.25125 22.2493 5.07422C23.2269 5.48481 24.0836 5.99882 24.7103 6.62109C25.2253 7.1326 25.6143 7.75698 25.7415 8.47266C25.7702 8.56571 25.791 8.66319 25.791 8.76562V13.7656C25.7908 14.3178 25.3432 14.7656 24.791 14.7656C24.2388 14.7656 23.7912 14.3178 23.791 13.7656V12.0443C23.3302 12.3494 22.8105 12.6224 22.2493 12.8581C20.4344 13.6203 18.0373 14.0895 15.4199 14.1549C15.3776 14.1604 15.3348 14.1654 15.291 14.1654H15.2493C15.2155 14.1661 15.1623 14.1688 15.0918 14.1719C14.9503 14.178 14.7383 14.1893 14.472 14.2148C13.9384 14.266 13.1892 14.37 12.3379 14.5755C10.7252 14.9648 8.8173 15.7043 7.29102 17.0924V21.9232C7.54086 21.7317 7.81391 21.5316 8.11133 21.3333C9.7064 20.27 12.0242 19.1654 14.791 19.1654C15.3433 19.1654 15.791 19.6131 15.791 20.1654C15.791 20.7176 15.3433 21.1654 14.791 21.1654C12.5578 21.1654 10.6256 22.0608 9.2207 22.9974C8.52304 23.4625 7.97036 23.9277 7.5944 24.2747C7.40695 24.4478 7.26454 24.5907 7.17122 24.6875C7.12471 24.7357 7.08979 24.7722 7.06836 24.7956C7.05786 24.807 7.05047 24.8156 7.04622 24.8203L7.04232 24.8229C6.76801 25.1363 6.32937 25.248 5.93945 25.1016C5.54946 24.955 5.29102 24.582 5.29102 24.1654V16.6654L5.31055 16.4688C5.34905 16.2768 5.44349 16.0988 5.58398 15.9583C6.70423 14.8381 7.99894 14.0523 9.26107 13.5C8.56588 13.3184 7.91871 13.1042 7.33268 12.8581C6.77149 12.6224 6.25184 12.3494 5.79102 12.0443V14.2656C5.79084 14.8178 5.34319 15.2656 4.79102 15.2656C4.23884 15.2656 3.79119 14.8178 3.79102 14.2656V8.76562C3.79102 8.66333 3.81065 8.5656 3.83919 8.47266C3.96635 7.75689 4.35668 7.13266 4.87174 6.62109C5.49842 5.99881 6.35515 5.48481 7.33268 5.07422C9.29213 4.25125 11.9297 3.76563 14.791 3.76562ZM14.791 5.76562C12.1296 5.76563 9.76726 6.22087 8.10742 6.91797C7.27565 7.26733 6.66722 7.65783 6.2819 8.04036C5.90046 8.41919 5.79102 8.73173 5.79102 8.96615C5.79128 9.2005 5.90078 9.51218 6.2819 9.89062C6.66724 10.2732 7.27562 10.6637 8.10742 11.013C9.76726 11.7101 12.1296 12.1654 14.791 12.1654C17.4524 12.1654 19.8148 11.7101 21.4746 11.013C22.3064 10.6637 22.9148 10.2732 23.3001 9.89062C23.6813 9.51218 23.7908 9.2005 23.791 8.96615C23.791 8.73173 23.6816 8.41919 23.3001 8.04036C22.9148 7.65783 22.3064 7.26733 21.4746 6.91797C19.8148 6.22086 17.4524 5.76562 14.791 5.76562Z" fill="#FAFAFA"/>
<path d="M9.64388 17.0703C10.2577 17.1232 10.7414 17.638 10.7415 18.2656C10.7413 18.8927 10.2595 19.4049 9.64648 19.4583C9.6122 19.4619 9.57754 19.4648 9.54232 19.4648C9.5384 19.4648 9.5332 19.4636 9.5293 19.4635C8.91411 19.457 8.40945 18.9889 8.34831 18.388L8.3418 18.2656L8.34831 18.1419C8.41015 17.5371 8.92143 17.0651 9.54232 17.0651L9.64388 17.0703Z" fill="#FAFAFA"/>
<path d="M12.6725 15.8906C13.2777 15.952 13.7507 16.4643 13.7507 17.0859C13.75 17.7479 13.2126 18.2852 12.5501 18.2852L12.4473 18.2799L12.4408 18.2786C11.8699 18.2271 11.4143 17.7769 11.3561 17.2083L11.3496 17.0859L11.3561 16.9622C11.4141 16.3936 11.8693 15.9414 12.4395 15.8893C12.4757 15.8853 12.5128 15.8854 12.5501 15.8854L12.6725 15.8906Z" fill="#FAFAFA"/>
<path d="M15.9434 15.2708C16.5576 15.3231 17.0423 15.8378 17.0423 16.4661C17.0419 17.0937 16.5589 17.6066 15.9447 17.6589C15.9108 17.6623 15.8766 17.6653 15.8418 17.6654C15.2207 17.6654 14.7095 17.1933 14.6478 16.5885L14.6413 16.4661L14.6478 16.3424C14.7095 15.7373 15.221 15.2656 15.8418 15.2656L15.9434 15.2708Z" fill="#FAFAFA"/>
</svg>
