<svg width="32" height="32" viewBox="0 0 32 32" fill="none" xmlns="http://www.w3.org/2000/svg">
<path fill-rule="evenodd" clip-rule="evenodd" d="M2.95891 2.9594C3.34943 2.56887 3.9826 2.56887 4.37312 2.9594L29.0398 27.6261C29.4303 28.0166 29.4303 28.6498 29.0398 29.0403C28.6493 29.4308 28.0161 29.4308 27.6256 29.0403L26.5851 27.9998H6.33268C4.30764 27.9998 2.66602 26.3582 2.66602 24.3332V11.6665C2.66602 9.64146 4.30764 7.99984 6.33268 7.99984H6.58513L2.95891 4.37361C2.56838 3.98309 2.56838 3.34992 2.95891 2.9594ZM8.58513 9.99984H6.33268C5.41221 9.99984 4.66602 10.746 4.66602 11.6665V24.3332C4.66602 25.2536 5.41221 25.9998 6.33268 25.9998H24.5851L19.7298 21.1446C18.7688 22.0852 17.4522 22.6665 15.9993 22.6665C13.0538 22.6665 10.666 20.2787 10.666 17.3332C10.666 15.8803 11.2474 14.5637 12.188 13.6027L8.58513 9.99984ZM13.6021 15.0169C13.0217 15.6173 12.666 16.4339 12.666 17.3332C12.666 19.1741 14.1584 20.6665 15.9993 20.6665C16.8986 20.6665 17.7152 20.3108 18.3157 19.7304L13.6021 15.0169ZM11.9993 4.99984C11.9993 4.44755 12.4471 3.99984 12.9993 3.99984H17.9055C19.1315 3.99984 20.2763 4.61254 20.9564 5.6326L22.0398 7.25767C22.3489 7.72133 22.8692 7.99984 23.4265 7.99984H25.666C27.6911 7.99984 29.3327 9.64146 29.3327 11.6665V21.6665C29.3327 22.2188 28.885 22.6665 28.3327 22.6665C27.7804 22.6665 27.3327 22.2188 27.3327 21.6665V11.6665C27.3327 10.746 26.5865 9.99984 25.666 9.99984H23.4265C22.2005 9.99984 21.0557 9.38713 20.3757 8.36707L19.2923 6.742C18.9832 6.27834 18.4628 5.99984 17.9055 5.99984H12.9993C12.4471 5.99984 11.9993 5.55212 11.9993 4.99984Z" fill="#FAFAFA"/>
</svg>
