<svg width="32" height="32" viewBox="0 0 32 32" fill="none" xmlns="http://www.w3.org/2000/svg">
<path d="M22.0406 9.45647C22.4311 9.84699 22.4311 10.48 22.0406 10.8705L16.7073 16.2039C16.3168 16.5944 15.6837 16.5944 15.2932 16.2039L9.95989 10.8705C9.56936 10.48 9.56936 9.84699 9.95989 9.45647C10.3504 9.06594 10.9834 9.06594 11.3739 9.45647L16.0003 14.0828L20.6266 9.45647C21.0171 9.06594 21.6501 9.06594 22.0406 9.45647Z" fill="#FAFAFA"/>
<path d="M22.0406 15.795C22.4311 16.1855 22.4311 16.8185 22.0406 17.2091L16.7073 22.5424C16.3168 22.9329 15.6837 22.9329 15.2932 22.5424L9.95989 17.2091C9.56936 16.8185 9.56936 16.1855 9.95989 15.795C10.3504 15.4045 10.9834 15.4045 11.3739 15.795L16.0003 20.4213L20.6266 15.795C21.0171 15.4045 21.6501 15.4045 22.0406 15.795Z" fill="#FAFAFA"/>
</svg>
