<svg width="32" height="32" viewBox="0 0 32 32" fill="none" xmlns="http://www.w3.org/2000/svg">
<path d="M10.8906 11.2316C10.8906 10.5825 11.0185 9.93939 11.2669 9.33968C11.5153 8.74014 11.8797 8.1957 12.3385 7.73682L15.9596 4.11442C16.4186 3.65539 16.9641 3.29124 17.5638 3.04281C18.1635 2.79437 18.8066 2.6665 19.4557 2.6665C20.1048 2.66654 20.748 2.7944 21.3477 3.04281C21.9471 3.29122 22.4917 3.65554 22.9505 4.11442L27.8867 9.05062C28.3456 9.50946 28.7099 10.054 28.9583 10.6535C29.2067 11.2531 29.3346 11.8964 29.3346 12.5454C29.3346 13.1945 29.2068 13.8376 28.9583 14.4373C28.7099 15.037 28.3457 15.5825 27.8867 16.0415L27.8854 16.0402L24.2643 19.6626C23.8054 20.1215 23.261 20.4858 22.6615 20.7342C22.0617 20.9826 21.4187 21.1105 20.7695 21.1105C20.1205 21.1105 19.4773 20.9826 18.8776 20.7342C18.4064 20.5389 17.9692 20.2719 17.5807 19.9438L9.28906 28.2368C8.66757 28.8582 7.84683 29.2419 6.97135 29.3188L6.92969 29.3215L6.6901 29.3319L6.66667 29.3332H5.03776C4.45739 29.333 3.89727 29.1199 3.46354 28.7342C3.02984 28.3486 2.75296 27.8171 2.6849 27.2407L2.68099 27.2121L2.67969 27.1834L2.66927 27.022L2.66797 26.992V25.3566C2.66818 24.4784 2.97762 23.6274 3.54167 22.9543L3.55599 22.9386L3.57031 22.9217L3.73307 22.7433L3.76432 22.7121L4.33073 22.1444L4.6237 21.8514H6.77865V19.1105H9.51953V16.9556L12.056 14.4191C11.7285 14.031 11.462 13.5942 11.2669 13.1235C11.0185 12.5239 10.8906 11.8807 10.8906 11.2316ZM12.8906 11.2316C12.8906 11.618 12.9667 12.0009 13.1146 12.3579C13.2625 12.7149 13.4794 13.0391 13.7526 13.3123L14.8724 14.4321L11.5195 17.7837V21.1105H8.77865V23.8514H5.45312L5.17839 24.1261L5.06771 24.2459C4.8091 24.558 4.66815 24.9512 4.66797 25.3566V26.9256L4.67318 27.0181C4.6861 27.1035 4.72822 27.1818 4.79297 27.2394C4.86073 27.2996 4.94845 27.3332 5.03906 27.3332H6.625L6.81771 27.3228C7.21717 27.2827 7.5908 27.1069 7.875 26.8228L17.569 17.1287L18.6888 18.2485L18.9036 18.4425C19.1268 18.6256 19.3756 18.7757 19.6432 18.8866C20.0002 19.0344 20.3831 19.1105 20.7695 19.1105C21.156 19.1105 21.5388 19.0345 21.8958 18.8866C22.2528 18.7387 22.577 18.5218 22.8503 18.2485L26.4727 14.6261L26.6667 14.4126C26.85 14.1893 26.9997 13.9396 27.1107 13.6717C27.2586 13.3147 27.3346 12.9318 27.3346 12.5454C27.3346 12.159 27.2586 11.7761 27.1107 11.4191C26.9628 11.0622 26.7459 10.7379 26.4727 10.4647L21.5365 5.52848C21.2633 5.25526 20.939 5.03837 20.582 4.89046C20.2251 4.74259 19.8421 4.66654 19.4557 4.6665C19.0693 4.6665 18.6864 4.74259 18.3294 4.89046C17.9725 5.03833 17.6482 5.2553 17.375 5.52848L13.7526 9.15088C13.4794 9.4241 13.2625 9.74833 13.1146 10.1053C12.9667 10.4623 12.8906 10.8452 12.8906 11.2316Z" fill="#FAFAFA"/>
<path d="M22.2873 10.7587C22.2873 11.3568 21.8005 11.8416 21.1999 11.8416C20.5993 11.8416 20.1124 11.3568 20.1124 10.7587C20.1124 10.1605 20.5993 9.67567 21.1999 9.67567C21.8005 9.67567 22.2873 10.1605 22.2873 10.7587Z" fill="#FAFAFA"/>
</svg>
