<svg width="32" height="32" viewBox="0 0 32 32" fill="none" xmlns="http://www.w3.org/2000/svg">
<path d="M1.66602 21.9386C1.66616 20.6655 2.29589 19.5491 3.23372 18.643C4.16836 17.7401 5.46285 16.9872 6.9694 16.4008C7.48395 16.2006 8.06453 16.4554 8.26497 16.9699C8.46521 17.4844 8.21037 18.065 7.69596 18.2654C6.34641 18.7906 5.30755 19.4194 4.62305 20.0805C3.94199 20.7385 3.66616 21.3688 3.66602 21.9386C3.66602 22.979 4.63932 24.2487 6.98503 25.3149C9.24045 26.3401 12.4267 26.9998 15.9993 26.9998C19.572 26.9998 22.7582 26.3401 25.0137 25.3149C27.3594 24.2487 28.3327 22.979 28.3327 21.9386C28.3325 21.3688 28.0567 20.7385 27.3757 20.0805C26.7768 19.5021 25.9069 18.9485 24.7949 18.4673L24.3027 18.2654L24.2103 18.2238C23.7586 17.9933 23.5459 17.4526 23.7337 16.9699C23.9217 16.4875 24.4432 16.2343 24.9316 16.3696L25.0293 16.4008L25.584 16.6287C26.8539 17.1778 27.9472 17.853 28.765 18.643C29.7028 19.5491 30.3325 20.6655 30.3327 21.9386C30.3327 24.2454 28.3216 26.0079 25.8418 27.1352C23.2715 28.3036 19.7904 28.9998 15.9993 28.9998C12.2083 28.9998 8.72718 28.3036 6.1569 27.1352C3.67706 26.0079 1.66602 24.2454 1.66602 21.9386Z" fill="#FAFAFA"/>
<path d="M16.0007 9.10873C17.1434 9.10873 18.0872 9.47569 18.8509 10.1048C19.5923 10.7155 20.1212 11.5372 20.5293 12.39L20.7429 12.8744C21.1489 13.8678 21.4242 15.0013 21.5827 16.0801L21.6517 16.6139L21.6674 16.8926C21.6665 18.143 20.686 19.0797 19.5358 19.2259L19.196 21.3457C19.0751 22.1063 18.6865 22.7985 18.1009 23.2988C17.5147 23.7996 16.7691 24.0748 15.9981 24.0749C15.2269 24.0749 14.4803 23.7997 13.8939 23.2988C13.3079 22.798 12.9193 22.1046 12.7989 21.3431L12.4577 19.2246C11.2276 19.0647 10.1935 17.9992 10.3496 16.6152L10.4187 16.0801C10.604 14.821 10.9487 13.4886 11.472 12.3913L11.6309 12.0723C12.0157 11.3353 12.5016 10.6393 13.1504 10.1048C13.9142 9.47569 14.8579 9.10873 16.0007 9.10873ZM16.0007 11.1087C15.3234 11.1087 14.8293 11.3141 14.4226 11.6491C13.9934 12.0026 13.6192 12.5377 13.2767 13.2533C12.804 14.245 12.4812 15.5726 12.3366 16.8405C12.3251 16.9448 12.3574 17.0342 12.4291 17.1087C12.5056 17.1883 12.6276 17.248 12.7767 17.248H13.3145L13.4942 17.265C13.9041 17.3399 14.2332 17.6652 14.3015 18.0892L14.7741 21.028V21.0306L14.8275 21.2428C14.8991 21.4494 15.0252 21.6342 15.1934 21.778C15.4176 21.9695 15.7032 22.0749 15.9981 22.0749C16.2928 22.0748 16.5774 21.9694 16.8015 21.778C17.0256 21.5865 17.1747 21.3218 17.2207 21.0306V21.028L17.6934 18.0892L17.739 17.9147C17.8779 17.5215 18.2519 17.248 18.6817 17.248H19.2233C19.3735 17.2479 19.4959 17.188 19.5723 17.1087C19.6439 17.0343 19.6762 16.9447 19.6648 16.8405L19.6023 16.3626C19.4609 15.4045 19.2217 14.4415 18.8952 13.64L18.7246 13.2533C18.3822 12.5377 18.008 12.0026 17.5788 11.6491C17.172 11.3141 16.678 11.1087 16.0007 11.1087Z" fill="#FAFAFA"/>
<path d="M18.0556 7.05469C18.0556 6.26063 17.8351 5.78221 17.5543 5.5013C17.2735 5.22046 16.7951 5.00005 16.001 5C15.2076 5 14.7288 5.22021 14.4476 5.5013C14.1665 5.78236 13.9463 6.26091 13.9463 7.05469C13.9463 7.84686 14.1663 8.32526 14.4476 8.60677C14.7288 8.88817 15.2071 9.10873 16.0007 9.10873C16.7935 9.10868 17.273 8.8894 17.5543 8.60807C17.8357 8.32674 18.0556 7.84752 18.0556 7.05469ZM20.0556 7.05469C20.0556 8.21601 19.7256 9.26494 18.9684 10.0221C18.2112 10.7793 17.162 11.1087 16.0007 11.1087C14.8383 11.1087 13.7892 10.7784 13.0322 10.0208C12.2755 9.26344 11.9463 8.21496 11.9463 7.05469C11.9463 5.89268 12.276 4.84314 13.0335 4.08594C13.7909 3.32897 14.84 3 16.001 3C17.1625 3.00005 18.2111 3.32993 18.9684 4.08724C19.7256 4.84458 20.0556 5.89318 20.0556 7.05469Z" fill="#FAFAFA"/>
</svg>
