<svg width="32" height="32" viewBox="0 0 32 32" fill="none" xmlns="http://www.w3.org/2000/svg">
<path fill-rule="evenodd" clip-rule="evenodd" d="M4 11.3334C4 6.55989 7.82071 2.66675 12.5625 2.66675C15.5506 2.66675 18.1759 4.21613 19.7049 6.55191C19.8661 6.7982 20.2192 6.9654 20.5875 6.91298C20.8861 6.87048 21.1908 6.84857 21.5 6.84857C25.1027 6.84857 28 9.80558 28 13.4243C28 17.0431 25.1027 20.0001 21.5 20.0001H12.5625C7.82071 20.0001 4 16.1069 4 11.3334ZM12.5625 4.66675C8.95098 4.66675 6 7.63858 6 11.3334C6 15.0283 8.95098 18.0001 12.5625 18.0001H21.5C23.9724 18.0001 26 15.9644 26 13.4243C26 10.8843 23.9724 8.84857 21.5 8.84857C21.2854 8.84857 21.0749 8.86377 20.8693 8.89303C19.8112 9.04363 18.6594 8.60645 18.0316 7.6473C16.8519 5.84525 14.84 4.66675 12.5625 4.66675ZM9.4539 22.7448C9.9631 22.9586 10.2025 23.5448 9.98865 24.054L8.58865 27.3873C8.37479 27.8965 7.78863 28.1359 7.27943 27.9221C6.77024 27.7082 6.53082 27.122 6.74468 26.6129L8.14468 23.2795C8.35855 22.7703 8.9447 22.5309 9.4539 22.7448ZM16.1494 22.7442C16.659 22.9572 16.8993 23.543 16.6862 24.0526L15.2923 27.3859C15.0792 27.8954 14.4934 28.1357 13.9839 27.9227C13.4744 27.7096 13.234 27.1238 13.4471 26.6143L14.8411 23.2809C15.0541 22.7714 15.6399 22.5311 16.1494 22.7442ZM22.8162 22.7442C23.3257 22.9572 23.5661 23.543 23.353 24.0526L21.959 27.3859C21.746 27.8954 21.1602 28.1357 20.6507 27.9227C20.1411 27.7096 19.9008 27.1238 20.1139 26.6143L21.5078 23.2809C21.7209 22.7714 22.3067 22.5311 22.8162 22.7442Z" fill="#FAFAFA"/>
</svg>
