<svg width="32" height="32" viewBox="0 0 32 32" fill="none" xmlns="http://www.w3.org/2000/svg">
<path fill-rule="evenodd" clip-rule="evenodd" d="M11.3714 4.0713C11.8842 4.27641 12.1336 4.85838 11.9285 5.37117L9.81039 10.6664H22.1897L20.0715 5.37117C19.8664 4.85838 20.1159 4.27641 20.6286 4.0713C21.1414 3.86619 21.7234 4.1156 21.9285 4.62839L24.3437 10.6664H26.7481C28.1966 10.6664 29.2951 11.9725 29.047 13.3996L27.0362 24.9614C26.7308 26.7177 25.2064 27.9998 23.4238 27.9998H8.57629C6.79363 27.9998 5.26928 26.7177 4.96384 24.9614L2.9531 13.3996C2.70491 11.9725 3.8034 10.6664 5.25192 10.6664H7.65633L10.0715 4.62839C10.2767 4.1156 10.8586 3.86619 11.3714 4.0713ZM5.25192 12.6664C5.04499 12.6664 4.88806 12.853 4.92352 13.0569L6.93427 24.6187C7.0731 25.417 7.76599 25.9998 8.57629 25.9998H23.4238C24.2341 25.9998 24.927 25.417 25.0658 24.6187L27.0765 13.0569C27.112 12.853 26.9551 12.6664 26.7481 12.6664H5.25192Z" fill="#FAFAFA"/>
<path d="M9.66669 22.104V16.7707C9.66669 16.2184 10.1144 15.7707 10.6667 15.7707C11.219 15.7707 11.6667 16.2184 11.6667 16.7707V22.104C11.6667 22.6563 11.219 23.104 10.6667 23.104C10.1144 23.104 9.66669 22.6563 9.66669 22.104ZM15 22.104V16.7707C15 16.2184 15.4477 15.7707 16 15.7707C16.5523 15.7707 17 16.2184 17 16.7707V22.104C17 22.6563 16.5523 23.104 16 23.104C15.4477 23.104 15 22.6563 15 22.104ZM20.3334 22.104V16.7707C20.3334 16.2184 20.7811 15.7707 21.3334 15.7707C21.8856 15.7707 22.3334 16.2184 22.3334 16.7707V22.104C22.3334 22.6563 21.8856 23.104 21.3334 23.104C20.7811 23.104 20.3334 22.6563 20.3334 22.104Z" fill="#FAFAFA"/>
</svg>
