<svg width="32" height="32" viewBox="0 0 32 32" fill="none" xmlns="http://www.w3.org/2000/svg">
<path d="M5.32683 4.26042C5.71007 3.91201 6.29089 3.9162 6.66797 4.25521L6.73959 4.32682L26.7396 26.3268L26.8047 26.4062C27.1061 26.8137 27.056 27.3912 26.6732 27.7396C26.2899 28.088 25.7091 28.0838 25.332 27.7448L25.2604 27.6732L5.26042 5.67318L5.19531 5.59375C4.89394 5.18633 4.94405 4.60882 5.32683 4.26042Z" fill="#FAFAFA"/>
<path d="M20 27C20.5523 27 21 27.4477 21 28C21 28.5523 20.5523 29 20 29H12C11.4477 29 11 28.5523 11 28C11 27.4477 11.4477 27 12 27H20Z" fill="#FAFAFA"/>
<path d="M7.78581 7.29558C8.10146 6.84259 8.7246 6.73136 9.17774 7.04688C9.63072 7.36253 9.74195 7.98567 9.42643 8.4388C8.49508 9.7765 7.99668 11.3687 7.99935 12.9987V13L7.98763 13.8503C7.87625 17.7708 7.01385 21.0162 6.18295 22.6706L6.00586 23H23.2728L23.3744 23.0052C23.8787 23.0563 24.2728 23.4822 24.2728 24C24.2726 24.5177 23.8786 24.9437 23.3744 24.9948L23.2728 25H5.99414C5.6442 24.9979 5.30035 24.9042 4.99805 24.7279C4.69568 24.5515 4.4443 24.2985 4.27018 23.9948C4.09608 23.6911 4.00533 23.3461 4.00586 22.9961C4.00649 22.6463 4.0992 22.303 4.27409 22V21.9987L4.40951 21.7448C5.05814 20.4393 5.88076 17.5197 5.98763 13.8073L5.99935 13C5.99628 10.9606 6.62043 8.96924 7.78581 7.29558Z" fill="#FAFAFA"/>
<path d="M24 13C24.0002 11.6009 23.6333 10.2262 22.9362 9.01302C22.2391 7.7999 21.2363 6.79028 20.0273 6.08594C18.8185 5.38169 17.4458 5.00691 16.0469 4.9987C14.6477 4.99058 13.2705 5.3501 12.0534 6.04037C11.5732 6.3127 10.9627 6.14409 10.6901 5.66406C10.4177 5.18377 10.5863 4.57333 11.0664 4.30078C12.5876 3.43805 14.3085 2.98866 16.0573 2.9987C17.8063 3.00884 19.5226 3.47765 21.0339 4.35807C22.5451 5.2385 23.7992 6.50048 24.6706 8.01693C25.5417 9.53317 26.0002 11.2513 26 13L26.0078 13.6536C26.0783 16.6715 26.6257 19.202 27.1927 20.7852L27.3151 21.1094L27.3477 21.207C27.484 21.695 27.2305 22.2171 26.7487 22.4062C26.2667 22.5952 25.7266 22.3843 25.4948 21.9336L25.4531 21.8411L25.3125 21.4674C24.6644 19.6608 24.0826 16.9124 24.0078 13.6966L24 13Z" fill="#FAFAFA"/>
</svg>
