<svg width="32" height="32" viewBox="0 0 32 32" fill="none" xmlns="http://www.w3.org/2000/svg">
<path fill-rule="evenodd" clip-rule="evenodd" d="M9.4362 16.881C12.5767 16.881 15.1234 19.4268 15.1237 22.5672L15.1159 22.8602C14.9636 25.8649 12.4788 28.2547 9.4362 28.2547L9.14453 28.2469C6.13964 28.0948 3.75 25.6099 3.75 22.5672C3.75026 19.4269 6.29592 16.8813 9.4362 16.881ZM9.4362 18.881C7.40049 18.8813 5.75026 20.5315 5.75 22.5672C5.75 24.6032 7.40033 26.2545 9.4362 26.2547C11.4723 26.2547 13.1237 24.6033 13.1237 22.5672C13.1234 20.5313 11.4721 18.881 9.4362 18.881Z" fill="#FAFAFA"/>
<path fill-rule="evenodd" clip-rule="evenodd" d="M22.5625 16.8797C23.6392 16.8797 24.5478 16.8778 25.2682 16.9748C26.0162 17.0756 26.7093 17.2993 27.2682 17.8589L27.4635 18.075C27.8838 18.5929 28.0667 19.2061 28.155 19.8615C28.252 20.5819 28.25 21.4906 28.25 22.5672C28.25 23.6435 28.2519 24.5514 28.155 25.2716C28.0542 26.0198 27.8293 26.7126 27.2695 27.2716L27.2708 27.273C26.7115 27.8342 26.0172 28.0588 25.2682 28.1597C24.5478 28.2567 23.6392 28.2547 22.5625 28.2547C21.4858 28.2547 20.5772 28.2567 19.8568 28.1597C19.1078 28.0588 18.4135 27.8342 17.8542 27.273C17.2949 26.714 17.0708 26.0195 16.9701 25.2716C16.8731 24.5514 16.875 23.6435 16.875 22.5672C16.875 21.4906 16.873 20.5819 16.9701 19.8615C17.0709 19.1124 17.2954 18.4183 17.8568 17.8589C18.4157 17.2993 19.1088 17.0756 19.8568 16.9748C20.5772 16.8778 21.4858 16.8797 22.5625 16.8797ZM22.5625 18.8797C21.4292 18.8797 20.6796 18.8817 20.1237 18.9565C19.597 19.0275 19.3963 19.147 19.2708 19.273L19.2682 19.2756C19.1423 19.4011 19.0228 19.6017 18.9518 20.1284C18.877 20.6843 18.875 21.4339 18.875 22.5672C18.875 23.7 18.877 24.449 18.9518 25.0047C19.0051 25.4004 19.0856 25.6128 19.1758 25.7469L19.2682 25.8589L19.2708 25.8615L19.3828 25.9539C19.5169 26.044 19.7286 26.1247 20.1237 26.1779C20.6796 26.2528 21.4292 26.2547 22.5625 26.2547C23.6958 26.2547 24.4454 26.2528 25.0013 26.1779C25.5278 26.107 25.7286 25.9874 25.8542 25.8615L25.8568 25.8589L25.9492 25.7469C26.0394 25.6128 26.1199 25.4004 26.1732 25.0047C26.248 24.449 26.25 23.7 26.25 22.5672C26.25 21.4339 26.248 20.6843 26.1732 20.1284C26.1022 19.6017 25.9827 19.4011 25.8568 19.2756L25.8542 19.273C25.7287 19.147 25.528 19.0275 25.0013 18.9565C24.4454 18.8817 23.6958 18.8797 22.5625 18.8797Z" fill="#FAFAFA"/>
<path fill-rule="evenodd" clip-rule="evenodd" d="M9.4375 3.74561C10.5142 3.74561 11.4229 3.74365 12.1432 3.84066C12.8911 3.94143 13.5843 4.16528 14.1432 4.72478L14.3385 4.94092C14.7589 5.45873 14.9417 6.07205 15.03 6.72738C15.127 7.44776 15.125 8.35644 15.125 9.43311C15.125 10.5098 15.127 11.4185 15.03 12.1388C14.9292 12.8867 14.704 13.5786 14.1445 14.1375L14.1458 14.1388C13.5865 14.7002 12.8923 14.9246 12.1432 15.0256C11.4228 15.1226 10.5142 15.1206 9.4375 15.1206C8.36084 15.1206 7.45216 15.1226 6.73177 15.0256C5.98418 14.9248 5.29188 14.7005 4.73308 14.1414L4.73177 14.1427C4.16966 13.5837 3.94594 12.888 3.84506 12.1388C3.74811 11.4185 3.75 10.5101 3.75 9.43311C3.75 8.35644 3.74804 7.44776 3.84506 6.72738C3.94578 5.97978 4.17015 5.28748 4.72917 4.72868L4.72787 4.72738C5.28692 4.16526 5.98264 3.94155 6.73177 3.84066C7.45208 3.74372 8.36049 3.74561 9.4375 3.74561ZM9.4375 5.74561C8.30391 5.74561 7.55451 5.74765 6.9987 5.82243C6.47161 5.89342 6.27184 6.01346 6.14714 6.13884L6.14323 6.14144C6.01727 6.26695 5.89781 6.46755 5.82683 6.99431C5.75197 7.55017 5.75 8.29978 5.75 9.43311C5.75 10.5667 5.75204 11.3161 5.82683 11.8719C5.88011 12.2676 5.96091 12.4793 6.05078 12.6128L6.14323 12.7235L6.14584 12.7274L6.25782 12.8198C6.39185 12.9099 6.60346 12.9905 6.9987 13.0438C7.55457 13.1186 8.30418 13.1206 9.4375 13.1206C10.5708 13.1206 11.3204 13.1186 11.8763 13.0438C12.4031 12.9728 12.6037 12.8533 12.7292 12.7274L12.7318 12.7248L12.8242 12.6128C12.9143 12.4788 12.9949 12.2672 13.0482 11.8719C13.123 11.316 13.125 10.5664 13.125 9.43311C13.125 8.29978 13.123 7.55017 13.0482 6.99431C12.9772 6.46755 12.8577 6.26695 12.7318 6.14144L12.7292 6.13884C12.6037 6.01288 12.4031 5.89341 11.8763 5.82243C11.3204 5.74757 10.5708 5.74561 9.4375 5.74561Z" fill="#FAFAFA"/>
<path fill-rule="evenodd" clip-rule="evenodd" d="M22.5625 3.74561C25.703 3.74561 28.2497 6.29136 28.25 9.43181L28.2422 9.72477C28.09 12.7295 25.6051 15.1193 22.5625 15.1193L22.2708 15.1115C19.2659 14.9594 16.8763 12.4745 16.8763 9.43181C16.8766 6.29152 19.4222 3.74586 22.5625 3.74561ZM22.5625 5.74561C20.5268 5.74586 18.8766 7.39609 18.8763 9.43181C18.8763 11.4677 20.5266 13.1191 22.5625 13.1193C24.5986 13.1193 26.25 11.4679 26.25 9.43181C26.2497 7.39593 24.5984 5.74561 22.5625 5.74561Z" fill="#FAFAFA"/>
</svg>
