<svg width="32" height="32" viewBox="0 0 32 32" fill="none" xmlns="http://www.w3.org/2000/svg">
<path fill-rule="evenodd" clip-rule="evenodd" d="M18.8872 3.01302C19.1792 3.04021 19.4683 3.10831 19.7401 3.21745C20.1019 3.36279 20.4377 3.58462 20.7049 3.88021C20.9736 4.17757 21.1676 4.54564 21.2349 4.95964C21.3024 5.3764 21.2343 5.79363 21.0526 6.16536L19.5682 9.20052L23.6242 22.8828C23.7418 23.2799 23.6026 23.7076 23.2739 23.9596L16.6072 29.0716C16.2485 29.3462 15.7498 29.3464 15.3911 29.0716L8.72444 23.9596C8.39604 23.7076 8.25666 23.2797 8.37417 22.8828L12.4289 9.20052L10.9458 6.16536C10.7641 5.7937 10.696 5.3763 10.7635 4.95964C10.8307 4.54572 11.0248 4.17754 11.2934 3.88021C11.5606 3.58461 11.8965 3.36283 12.2583 3.21745C12.6206 3.07189 13.0136 3.00017 13.4041 3H18.5942L18.8872 3.01302ZM14.2453 10.112L10.4849 22.7917L15.9992 27.0169L21.5122 22.7917L17.7531 10.112H14.2453ZM13.1919 5.01953C13.1247 5.03224 13.0615 5.05129 13.0044 5.07422C12.8897 5.12035 12.8159 5.17648 12.7765 5.22005C12.7496 5.24989 12.7399 5.27011 12.7375 5.27734C12.7375 5.27734 12.7405 5.282 12.7427 5.28646L14.1242 8.11198H17.8742L19.2557 5.28646C19.2577 5.28228 19.2596 5.27734 19.2596 5.27734C19.257 5.26967 19.2483 5.2493 19.2218 5.22005C19.1823 5.17647 19.1087 5.12029 18.994 5.07422C18.9368 5.05132 18.8736 5.03221 18.8065 5.01953L18.5942 5H13.4041L13.1919 5.01953Z" fill="#FAFAFA"/>
</svg>
