<svg width="32" height="32" viewBox="0 0 32 32" fill="none" xmlns="http://www.w3.org/2000/svg">
<path fill-rule="evenodd" clip-rule="evenodd" d="M6.33268 7.3335C5.41221 7.3335 4.66602 8.07969 4.66602 9.00016V20.3335C4.66602 21.254 5.41221 22.0002 6.33268 22.0002H12.3327C12.885 22.0002 13.3327 22.4479 13.3327 23.0002C13.3327 23.5524 12.885 24.0002 12.3327 24.0002H6.33268C4.30764 24.0002 2.66602 22.3585 2.66602 20.3335V9.00016C2.66602 6.97512 4.30764 5.3335 6.33268 5.3335H22.9993C25.0244 5.3335 26.666 6.97512 26.666 9.00016V15.0002C26.666 15.5524 26.2183 16.0002 25.666 16.0002C25.1137 16.0002 24.666 15.5524 24.666 15.0002V9.00016C24.666 8.07969 23.9198 7.3335 22.9993 7.3335H6.33268ZM15.9993 21.6668C15.9993 20.01 17.3425 18.6668 18.9993 18.6668H26.3327C27.9895 18.6668 29.3327 20.01 29.3327 21.6668V25.0002C29.3327 26.657 27.9895 28.0002 26.3327 28.0002H18.9993C17.3425 28.0002 15.9993 26.657 15.9993 25.0002V21.6668ZM18.9993 20.6668C18.4471 20.6668 17.9993 21.1145 17.9993 21.6668V25.0002C17.9993 25.5524 18.4471 26.0002 18.9993 26.0002H26.3327C26.885 26.0002 27.3327 25.5524 27.3327 25.0002V21.6668C27.3327 21.1145 26.885 20.6668 26.3327 20.6668H18.9993Z" fill="#FAFAFA"/>
</svg>
