<svg width="32" height="32" viewBox="0 0 32 32" fill="none" xmlns="http://www.w3.org/2000/svg">
<path d="M18.3689 17.8906C18.7617 17.5703 19.3417 17.594 19.7078 17.96C20.0735 18.3261 20.0963 18.9052 19.7762 19.2979L19.7078 19.374L17.7478 21.333L19.7078 23.293L19.7762 23.3682C20.0965 23.7609 20.0739 24.3409 19.7078 24.707C19.3417 25.0731 18.7617 25.0966 18.3689 24.7764L18.2937 24.707L16.3338 22.7471L14.3738 24.707L14.2986 24.7764C13.9058 25.0966 13.3258 25.0731 12.9597 24.707C12.5939 24.3409 12.5711 23.7608 12.8914 23.3682L12.9597 23.293L14.9197 21.333L12.9597 19.374L12.8914 19.2979C12.5714 18.9052 12.5941 18.326 12.9597 17.96C13.3258 17.5939 13.9058 17.5705 14.2986 17.8906L14.3738 17.96L16.3338 19.9189L18.2937 17.96L18.3689 17.8906Z" fill="#FAFAFA"/>
<path fill-rule="evenodd" clip-rule="evenodd" d="M14.242 2.68164C14.439 2.7084 14.6284 2.77359 14.8055 2.86523L14.8064 2.86328C22.4148 6.3811 26.7301 13.7149 26.4646 19.8535C26.3513 22.4303 25.428 24.8184 23.6375 26.5635C21.841 28.3142 19.2597 29.3329 15.9969 29.333C12.7487 29.333 10.1636 28.371 8.35916 26.6416C6.55713 24.9141 5.63617 22.5195 5.52811 19.8516V19.8369C5.48912 18.309 5.87037 16.7997 6.62869 15.4727C7.38697 14.1457 8.49383 13.0507 9.82987 12.3086L9.92362 12.2627C10.1476 12.1675 10.4006 12.1572 10.6336 12.2354C10.8997 12.325 11.1169 12.5224 11.2303 12.7793C11.6068 13.6337 12.3397 13.9709 12.9685 13.9258C13.5715 13.8821 14.1442 13.4895 14.2869 12.6221C14.6883 10.1791 14.0248 7.29576 12.6502 4.91504C12.47 4.60913 12.4038 4.24676 12.4656 3.89648C12.5293 3.53727 12.7227 3.21289 13.0086 2.98633L13.117 2.91211C13.3862 2.75149 13.6948 2.66603 14.0086 2.66602L14.242 2.68164ZM15.0515 5.22363C16.157 7.64859 16.6739 10.4246 16.2596 12.9463C15.9612 14.7607 14.6039 15.8121 13.1131 15.9199C11.983 16.0013 10.8181 15.5388 10.0135 14.5752C9.34659 15.0876 8.78442 15.7292 8.36405 16.4648C7.78717 17.4746 7.49845 18.6236 7.52811 19.7861C7.62243 22.0375 8.38823 23.8984 9.74295 25.1973C11.0986 26.4965 13.1478 27.333 15.9969 27.333C18.8314 27.3329 20.8808 26.4573 22.242 25.1309C23.6087 23.7986 24.3717 21.9238 24.4666 19.7666C24.6802 14.8211 21.3264 8.60708 15.0515 5.22363Z" fill="#FAFAFA"/>
</svg>
