<svg width="32" height="32" viewBox="0 0 32 32" fill="none" xmlns="http://www.w3.org/2000/svg">
<path fill-rule="evenodd" clip-rule="evenodd" d="M16 2.6665C16.4602 2.66658 16.8333 3.03965 16.8333 3.49984V7.6665H20.1667V5.1665C20.1667 4.70627 20.5398 4.33317 21 4.33317C21.4602 4.33325 21.8333 4.70632 21.8333 5.1665V7.6665H23.3177L23.5013 7.67692C23.6836 7.6974 23.8621 7.74786 24.0287 7.82666C24.2506 7.93172 24.4468 8.08497 24.6029 8.27458C24.7589 8.4642 24.8719 8.68628 24.9323 8.92432C24.9926 9.1623 24.9999 9.41117 24.9531 9.65218L24.9518 9.65609L23.7513 15.6561C23.638 16.2228 23.3323 16.7336 22.8854 17.1001C22.4385 17.4665 21.8774 17.6665 21.2995 17.6665H20.3646L22.4323 27.3162C22.4842 27.5593 22.4822 27.8115 22.4245 28.0532C22.3668 28.2948 22.255 28.5202 22.099 28.7134C21.9428 28.9066 21.745 29.0633 21.5208 29.1704C21.2966 29.2775 21.0505 29.333 20.8021 29.3332H11.1979C10.9495 29.333 10.7034 29.2775 10.4792 29.1704C10.2549 29.0633 10.0573 28.9066 9.90105 28.7134C9.74497 28.5202 9.63327 28.2948 9.57553 28.0532C9.51775 27.8115 9.51576 27.5593 9.56771 27.3162L11.6354 17.6665H10.7005C10.1242 17.667 9.56518 17.4682 9.11849 17.104C8.6717 16.7395 8.36403 16.2315 8.2487 15.6665V15.6639L7.04818 9.6652L7.02214 9.48291C7.00569 9.29905 7.02052 9.11343 7.06511 8.93343C7.12451 8.69371 7.23562 8.46968 7.39193 8.27848C7.54833 8.08726 7.74554 7.93248 7.96875 7.82666C8.19195 7.72088 8.4366 7.66653 8.6836 7.6665H10.1667V5.1665C10.1667 4.70627 10.5398 4.33317 11 4.33317C11.4602 4.33325 11.8333 4.70632 11.8333 5.1665V7.6665H15.1667V3.49984C15.1667 3.0396 15.5398 2.6665 16 2.6665ZM11.1966 27.6652L11.1979 27.6665H20.8021L20.8034 27.6652L18.6589 17.6665H13.3412L11.1966 27.6652ZM9.88282 15.3358C9.92168 15.523 10.0237 15.6914 10.1719 15.8123C10.3208 15.9337 10.5071 16 10.6992 15.9998H11.8333V12.6665H9.34896L9.88282 15.3358ZM20.1667 15.9998H21.2995C21.492 15.9998 21.6792 15.933 21.8281 15.811C21.9771 15.6889 22.0794 15.5182 22.1172 15.3293L22.6497 12.6665H20.1667V15.9998ZM13.5 15.9998H18.5V12.6665H13.5V15.9998ZM8.6823 9.33577L9.01563 10.9998H22.9831L23.3164 9.33447L8.6823 9.33317V9.33577Z" fill="#FAFAFA"/>
</svg>
