<svg width="32" height="32" viewBox="0 0 32 32" fill="none" xmlns="http://www.w3.org/2000/svg">
<path d="M9.95904 13.9595C10.3496 13.569 10.9826 13.569 11.3731 13.9595L13.3731 15.9595C13.7636 16.35 13.7636 16.983 13.3731 17.3735C12.9826 17.764 12.3496 17.764 11.959 17.3735L11.6661 17.0806V17.3332C11.6661 18.2536 12.4123 18.9998 13.3327 18.9998H17.9994C18.5517 18.9998 18.9994 19.4476 18.9994 19.9998C18.9994 20.5521 18.5517 20.9998 17.9994 20.9998H13.3327C11.3077 20.9998 9.66607 19.3582 9.66607 17.3332V17.0806L9.3731 17.3735C8.98258 17.764 8.34956 17.764 7.95904 17.3735C7.56855 16.983 7.56855 16.35 7.95904 15.9595L9.95904 13.9595Z" fill="#FAFAFA"/>
<path d="M18.6661 10.9998C20.6911 10.9998 22.3327 12.6415 22.3327 14.6665V15.5858L22.6257 15.2928C23.0162 14.9023 23.6492 14.9023 24.0398 15.2928C24.4303 15.6833 24.4303 16.3163 24.0398 16.7069L22.0398 18.7069C21.6492 19.0974 21.0162 19.0974 20.6257 18.7069L18.6257 16.7069C18.2352 16.3164 18.2352 15.6833 18.6257 15.2928C19.0162 14.9023 19.6492 14.9023 20.0398 15.2928L20.3327 15.5858V14.6665C20.3327 13.746 19.5865 12.9998 18.6661 12.9998H13.9994C13.4471 12.9998 12.9994 12.5521 12.9994 11.9998C12.9994 11.4476 13.4471 10.9999 13.9994 10.9998H18.6661Z" fill="#FAFAFA"/>
<path fill-rule="evenodd" clip-rule="evenodd" d="M26.9382 6.68083C28.2831 6.81718 29.3327 7.9523 29.3327 9.33317V10.2694C30.0536 10.2807 30.6372 10.8647 30.6439 11.5897L30.6882 20.3605C30.6947 21.0967 30.1028 21.6989 29.3666 21.7056C29.3553 21.7057 29.344 21.7044 29.3327 21.7043V22.6665C29.3326 24.0472 28.283 25.1825 26.9382 25.3188L26.6661 25.3332H5.33274C3.95206 25.3331 2.81689 24.2833 2.6804 22.9386L2.66607 22.6665V21.7043C1.94556 21.6927 1.36186 21.1099 1.35487 20.3853L1.3106 11.6144C1.3039 10.8781 1.89598 10.2762 2.63222 10.2694C2.64346 10.2693 2.65489 10.2692 2.66607 10.2694V9.33317C2.66607 7.86047 3.86006 6.6666 5.33274 6.6665H26.6661L26.9382 6.68083ZM5.33274 8.6665C4.96463 8.6666 4.66607 8.96504 4.66607 9.33317V22.6665C4.66625 23.0345 4.96474 23.3331 5.33274 23.3332H26.6661C27.0342 23.3332 27.3326 23.0345 27.3327 22.6665V9.33317C27.3327 8.96498 27.0343 8.6665 26.6661 8.6665H5.33274Z" fill="#FAFAFA"/>
</svg>
