<svg width="32" height="32" viewBox="0 0 32 32" fill="none" xmlns="http://www.w3.org/2000/svg">
<path d="M20.6673 3C21.2196 3 21.6673 3.44772 21.6673 4C21.6673 4.55228 21.2196 5 20.6673 5H15.6673V8.38151C16.6902 8.48001 17.6703 8.72769 18.5853 9.10286L19.097 9.32812L19.1868 9.3763C19.6202 9.63884 19.7928 10.1926 19.571 10.6602C19.3488 11.1278 18.8101 11.3446 18.3327 11.1745L18.2376 11.1354L17.8275 10.9531C16.854 10.5538 15.7875 10.3333 14.6673 10.3333C10.0649 10.3333 6.33398 14.0643 6.33398 18.6667C6.33398 23.269 10.0649 27 14.6673 27C18.5435 27 21.8034 24.3525 22.7337 20.7656L22.765 20.668C22.9412 20.1927 23.4526 19.9182 23.9538 20.0482C24.4882 20.1869 24.8086 20.7337 24.6699 21.2682L24.554 21.681C23.264 25.917 19.3268 29 14.6673 29C8.96038 29 4.33398 24.3736 4.33398 18.6667C4.33398 13.2971 8.4296 8.8845 13.6673 8.38151V5H8.00065C7.44837 5 7.00065 4.55228 7.00065 4C7.00065 3.44772 7.44837 3 8.00065 3H20.6673Z" fill="#FAFAFA"/>
<path fill-rule="evenodd" clip-rule="evenodd" d="M14.6673 14.6667C16.8765 14.6667 18.6673 16.4575 18.6673 18.6667C18.6673 20.8758 16.8765 22.6667 14.6673 22.6667C12.4582 22.6667 10.6673 20.8758 10.6673 18.6667C10.6673 16.4575 12.4582 14.6667 14.6673 14.6667ZM14.6673 16.6667C13.5627 16.6667 12.6673 17.5621 12.6673 18.6667C12.6673 19.7712 13.5627 20.6667 14.6673 20.6667C15.7719 20.6667 16.6673 19.7712 16.6673 18.6667C16.6673 17.5621 15.7719 16.6667 14.6673 16.6667Z" fill="#FAFAFA"/>
<path fill-rule="evenodd" clip-rule="evenodd" d="M24.1647 9.67969C24.5408 9.74204 24.8542 10.0162 24.9616 10.3919L26.2949 15.0586C26.3204 15.1479 26.334 15.2404 26.334 15.3333V17.3333C26.334 17.8856 25.8863 18.3333 25.334 18.3333H21.334C20.7817 18.3333 20.334 17.8856 20.334 17.3333V15.3333C20.334 15.2404 20.3475 15.1479 20.373 15.0586L21.7064 10.3919L21.7637 10.237C21.9271 9.8929 22.2768 9.66667 22.6673 9.66667H24.0007L24.1647 9.67969ZM22.334 15.4714V16.3333H24.334V15.4714L23.334 11.9714L22.334 15.4714Z" fill="#FAFAFA"/>
</svg>
