<svg width="32" height="32" viewBox="0 0 32 32" fill="none" xmlns="http://www.w3.org/2000/svg">
<path d="M8 15.6668C8.55228 15.6668 9 16.1145 9 16.6668V19.7267C9.3879 19.8643 9.66667 20.2318 9.66667 20.6668C9.66667 21.2191 9.21895 21.6668 8.66667 21.6668H7.33333C6.78105 21.6668 6.33333 21.2191 6.33333 20.6668C6.33333 20.2318 6.6121 19.8643 7 19.7267V16.6668C7 16.1145 7.44772 15.6668 8 15.6668Z" fill="#FAFAFA"/>
<path d="M8.66667 10.3335C9.21895 10.3335 9.66667 10.7812 9.66667 11.3335C9.66667 11.8858 9.21895 12.3335 8.66667 12.3335H7.33333C6.78105 12.3335 6.33333 11.8858 6.33333 11.3335C6.33333 10.7812 6.78105 10.3335 7.33333 10.3335H8.66667Z" fill="#FAFAFA"/>
<path d="M16 15.6668C16.5523 15.6668 17 16.1145 17 16.6668V19.7267C17.3879 19.8643 17.6667 20.2318 17.6667 20.6668C17.6667 21.2191 17.219 21.6668 16.6667 21.6668H15.3333C14.781 21.6668 14.3333 21.2191 14.3333 20.6668C14.3333 20.2318 14.6121 19.8643 15 19.7267V16.6668C15 16.1145 15.4477 15.6668 16 15.6668Z" fill="#FAFAFA"/>
<path d="M16.6667 10.3335C17.219 10.3335 17.6667 10.7812 17.6667 11.3335C17.6667 11.8858 17.219 12.3335 16.6667 12.3335H15.3333C14.781 12.3335 14.3333 11.8858 14.3333 11.3335C14.3333 10.7812 14.781 10.3335 15.3333 10.3335H16.6667Z" fill="#FAFAFA"/>
<path d="M24 15.6668C24.5523 15.6668 25 16.1145 25 16.6668V19.7267C25.3879 19.8643 25.6667 20.2318 25.6667 20.6668C25.6667 21.2191 25.219 21.6668 24.6667 21.6668H23.3333C22.781 21.6668 22.3333 21.2191 22.3333 20.6668C22.3333 20.2318 22.6121 19.8643 23 19.7267V16.6668C23 16.1145 23.4477 15.6668 24 15.6668Z" fill="#FAFAFA"/>
<path d="M24.6667 10.3335C25.219 10.3335 25.6667 10.7812 25.6667 11.3335C25.6667 11.8858 25.219 12.3335 24.6667 12.3335H23.3333C22.781 12.3335 22.3333 11.8858 22.3333 11.3335C22.3333 10.7812 22.781 10.3335 23.3333 10.3335H24.6667Z" fill="#FAFAFA"/>
<path fill-rule="evenodd" clip-rule="evenodd" d="M9.33333 2.3335C10.622 2.3335 11.6667 3.37817 11.6667 4.66683V6.3335H12.3333V4.66683C12.3333 3.37817 13.378 2.3335 14.6667 2.3335H17.3333C18.622 2.3335 19.6667 3.37817 19.6667 4.66683V6.3335H20.3333V4.66683C20.3333 3.37817 21.378 2.3335 22.6667 2.3335H25.3333C26.622 2.3335 27.6667 3.37817 27.6667 4.66683V6.56006C28.4546 6.93471 29 7.73634 29 8.66683V23.3335C29 24.2638 28.4543 25.0642 27.6667 25.439V27.3335C27.6667 28.6222 26.622 29.6668 25.3333 29.6668H22.6667C21.378 29.6668 20.3333 28.6222 20.3333 27.3335V25.6668H19.6667V27.3335C19.6667 28.6222 18.622 29.6668 17.3333 29.6668H14.6667C13.378 29.6668 12.3333 28.6222 12.3333 27.3335V25.6668H11.6667V27.3335C11.6667 28.6222 10.622 29.6668 9.33333 29.6668H6.66667C5.378 29.6668 4.33333 28.6222 4.33333 27.3335V25.439C4.29591 25.4212 4.25765 25.4053 4.22135 25.3856C3.49381 24.9905 3 24.2196 3 23.3335V8.66683C3 7.78074 3.49381 7.00982 4.22135 6.61475C4.25781 6.59495 4.29574 6.57794 4.33333 6.56006V4.66683C4.33333 3.37817 5.378 2.3335 6.66667 2.3335H9.33333ZM6.33333 27.3335C6.33333 27.5176 6.48257 27.6668 6.66667 27.6668H9.33333C9.51743 27.6668 9.66667 27.5176 9.66667 27.3335V25.6668H6.33333V27.3335ZM14.3333 27.3335C14.3333 27.5176 14.4826 27.6668 14.6667 27.6668H17.3333C17.5174 27.6668 17.6667 27.5176 17.6667 27.3335V25.6668H14.3333V27.3335ZM22.3333 27.3335C22.3333 27.5176 22.4826 27.6668 22.6667 27.6668H25.3333C25.5174 27.6668 25.6667 27.5176 25.6667 27.3335V25.6668H22.3333V27.3335ZM5.33333 8.3335C5.14924 8.3335 5 8.48273 5 8.66683V23.3335C5 23.5176 5.14924 23.6668 5.33333 23.6668H10.6667C10.8508 23.6668 11 23.5176 11 23.3335V8.66683C11 8.48273 10.8508 8.3335 10.6667 8.3335H5.33333ZM13.3333 8.3335C13.1492 8.3335 13 8.48273 13 8.66683V23.3335C13 23.5176 13.1492 23.6668 13.3333 23.6668H18.6667C18.8508 23.6668 19 23.5176 19 23.3335V8.66683C19 8.48273 18.8508 8.3335 18.6667 8.3335H13.3333ZM21.3333 8.3335C21.1492 8.3335 21 8.48273 21 8.66683V23.3335C21 23.5176 21.1492 23.6668 21.3333 23.6668H26.6667C26.8508 23.6668 27 23.5176 27 23.3335V8.66683C27 8.48274 26.8508 8.3335 26.6667 8.3335H21.3333ZM6.66667 4.3335C6.48257 4.3335 6.33333 4.48273 6.33333 4.66683V6.3335H9.66667V4.66683C9.66667 4.48273 9.51743 4.3335 9.33333 4.3335H6.66667ZM14.6667 4.3335C14.4826 4.3335 14.3333 4.48273 14.3333 4.66683V6.3335H17.6667V4.66683C17.6667 4.48273 17.5174 4.3335 17.3333 4.3335H14.6667ZM22.6667 4.3335C22.4826 4.3335 22.3333 4.48273 22.3333 4.66683V6.3335H25.6667V4.66683C25.6667 4.48273 25.5174 4.3335 25.3333 4.3335H22.6667Z" fill="#FAFAFA"/>
</svg>
