<svg width="32" height="32" viewBox="0 0 32 32" fill="none" xmlns="http://www.w3.org/2000/svg">
<path d="M9.71289 13.0521C9.90488 12.5345 10.4803 12.2705 10.998 12.4622C11.68 12.7151 12.6797 13.6145 12.5866 15.1602L12.5853 15.1719C12.5227 16.0366 12.0251 16.639 11.7559 16.9831C11.4428 17.3831 11.3545 17.5318 11.3366 17.6966C11.3194 17.9851 11.3791 18.1838 11.4681 18.3477C11.5685 18.5323 11.7244 18.7078 11.9525 18.9245C12.3525 19.3048 12.3677 19.9382 11.9876 20.3385C11.6074 20.7385 10.9752 20.7547 10.5749 20.375C10.0097 19.8381 9.24912 18.9895 9.34049 17.5612L9.3418 17.5391C9.41495 16.6851 9.91745 16.0873 10.1803 15.7513C10.4954 15.3487 10.578 15.1997 10.5905 15.0273C10.6043 14.7552 10.5278 14.5896 10.4564 14.4896C10.3675 14.3653 10.2768 14.3277 10.3027 14.3372C9.78523 14.1452 9.52119 13.5698 9.71289 13.0521Z" fill="#FAFAFA"/>
<path d="M14.6296 13.0521C14.8215 12.5345 15.397 12.2705 15.9147 12.4622C16.5968 12.7152 17.6025 13.6184 17.4902 15.1719L17.4889 15.1706C17.4329 16.0367 16.933 16.6408 16.6686 16.9805C16.3491 17.3911 16.2746 17.529 16.265 17.6862V17.7018C16.2427 17.9917 16.3012 18.1902 16.3887 18.3542C16.4872 18.5386 16.6398 18.714 16.8652 18.9336C17.2604 19.3189 17.2685 19.9522 16.8835 20.3477C16.4981 20.743 15.8649 20.7509 15.4694 20.3659C14.9265 19.8368 14.1667 18.9879 14.2702 17.5638C14.3232 16.6961 14.8289 16.0888 15.0905 15.7526C15.4061 15.347 15.4842 15.2042 15.4941 15.0391L15.4954 15.0273C15.5154 14.75 15.4388 14.584 15.3691 14.4857C15.2822 14.3633 15.1929 14.327 15.2207 14.3372C14.7028 14.1454 14.4377 13.57 14.6296 13.0521Z" fill="#FAFAFA"/>
<path d="M19.5462 13.0521C19.7382 12.5345 20.3136 12.2705 20.8314 12.4622C21.5134 12.7151 22.513 13.6145 22.4199 15.1602L22.4186 15.1719C22.3561 16.0366 21.8584 16.639 21.5892 16.9831C21.2762 17.3831 21.1878 17.5318 21.1699 17.6966C21.1528 17.9848 21.2123 18.1846 21.3014 18.3503C21.4021 18.5371 21.5567 18.7142 21.7819 18.9336C22.1772 19.319 22.1853 19.9522 21.8001 20.3477C21.4148 20.7431 20.7816 20.7511 20.3861 20.3659C19.8407 19.8345 19.0826 18.9869 19.1738 17.5612L19.1751 17.5391C19.2483 16.6851 19.7508 16.0873 20.0137 15.7513C20.3287 15.3487 20.4114 15.1997 20.4238 15.0273C20.4377 14.7552 20.3611 14.5896 20.2897 14.4896C20.2008 14.3653 20.1101 14.3277 20.1361 14.3372C19.6186 14.1452 19.3545 13.5698 19.5462 13.0521Z" fill="#FAFAFA"/>
<path fill-rule="evenodd" clip-rule="evenodd" d="M19.9993 3C20.5516 3 20.9993 3.44772 20.9993 4C20.9993 4.55228 20.5516 5 19.9993 5H16.9993V8H21.3327L21.7441 8.01042C25.9712 8.22457 29.3327 11.7197 29.3327 16V17.3333C29.3327 20.841 27.0743 23.8189 23.9329 24.8984V27.3997C23.9329 27.952 23.4852 28.3997 22.9329 28.3997C22.3807 28.3997 21.9329 27.952 21.9329 27.3997V25.3073C21.8701 25.312 21.8074 25.3197 21.7441 25.3229L21.3327 25.3333H10.666C10.4503 25.3333 10.2368 25.3214 10.0254 25.3047V27.3997C10.0254 27.952 9.57767 28.3997 9.02539 28.3997C8.47311 28.3997 8.02539 27.952 8.02539 27.3997V24.8854C5.02821 23.8375 2.84428 21.0578 2.67643 17.7448L2.66602 17.3333V16C2.66602 11.5817 6.24774 8 10.666 8H14.9993V5H11.9993C11.4471 5 10.9993 4.55228 10.9993 4C10.9993 3.44772 11.4471 3 11.9993 3H19.9993ZM10.666 10C7.35231 10 4.66602 12.6863 4.66602 16V17.3333C4.66602 20.647 7.35231 23.3333 10.666 23.3333H21.3327C24.6464 23.3333 27.3327 20.647 27.3327 17.3333V16C27.3327 12.6863 24.6464 10 21.3327 10H10.666Z" fill="#FAFAFA"/>
</svg>
