<svg width="32" height="32" viewBox="0 0 32 32" fill="none" xmlns="http://www.w3.org/2000/svg">
<path fill-rule="evenodd" clip-rule="evenodd" d="M24.2057 6.00521C26.3193 6.11229 28 7.85986 28 10V22L27.9948 22.2057C27.8912 24.2511 26.2511 25.8912 24.2057 25.9948L24 26H8L7.79427 25.9948C5.74888 25.8912 4.10883 24.2511 4.00521 22.2057L4 22V10C4 7.85986 5.68074 6.11229 7.79427 6.00521L8 6H24L24.2057 6.00521ZM8 8C6.89543 8 6 8.89543 6 10V22C6 23.1046 6.89543 24 8 24H11V8H8ZM13 24H24C25.1046 24 26 23.1046 26 22V10C26 8.89543 25.1046 8 24 8H13V24Z" fill="#FAFAFA"/>
<path d="M20.3852 10.6119C20.7488 10.1972 21.38 10.1552 21.7953 10.5181C22.2108 10.8817 22.2536 11.5139 21.8904 11.9296L18.3279 15.9986L21.8904 20.0689C22.2539 20.4844 22.2106 21.1166 21.7953 21.4804C21.3798 21.8437 20.7488 21.8018 20.3852 21.3866L16.2471 16.6574C15.9177 16.2805 15.9175 15.7179 16.2471 15.341L20.3852 10.6119Z" fill="#FAFAFA"/>
</svg>
