<svg width="32" height="32" viewBox="0 0 32 32" fill="none" xmlns="http://www.w3.org/2000/svg">
<path fill-rule="evenodd" clip-rule="evenodd" d="M20 19C20.5523 19 21 19.4477 21 20V20.6003H21.6003C22.1524 20.6004 22.6003 21.0481 22.6003 21.6003V24.7995C22.6003 25.3517 22.1524 25.7993 21.6003 25.7995H8.79948C8.24743 25.7992 7.79948 25.3516 7.79948 24.7995V21.6003C7.79948 21.0481 8.24743 20.6005 8.79948 20.6003H9.39974V20C9.39974 19.4478 9.84757 19.0001 10.3997 19C10.952 19 11.3997 19.4477 11.3997 20V20.6003H14.2005V20C14.2005 19.4477 14.6482 19 15.2005 19C15.7526 19.0003 16.2005 19.4479 16.2005 20V20.6003H19V20C19 19.4477 19.4477 19 20 19ZM9.79948 23.7995H20.6003V22.6003H9.79948V23.7995Z" fill="#FAFAFA"/>
<path fill-rule="evenodd" clip-rule="evenodd" d="M20.9427 12.207C21.6489 12.2785 22.2005 12.8752 22.2005 13.6003C22.2004 14.3734 21.5726 15 20.7995 15C20.075 14.9997 19.4794 14.4491 19.4076 13.7435L19.3997 13.6003L19.4076 13.457C19.4792 12.7512 20.0748 12.2008 20.7995 12.2005L20.9427 12.207ZM20.7995 13C20.4684 13.0003 20.2005 13.269 20.2005 13.6003L20.2122 13.7214C20.2683 13.9944 20.5099 14.2003 20.7995 14.2005C21.0893 14.2005 21.3319 13.9946 21.388 13.7214L21.3997 13.6003L21.388 13.4792C21.3401 13.2446 21.1552 13.0595 20.9206 13.0117L20.7995 13Z" fill="#FAFAFA"/>
<path fill-rule="evenodd" clip-rule="evenodd" d="M16 7.79948C16.9941 7.79948 17.7995 8.60614 17.7995 9.60026V12.7995C17.7995 13.7936 16.9941 14.6003 16 14.6003H12.7995C11.8056 14.6 11 13.7934 11 12.7995V9.60026C11 8.60633 11.8056 7.79976 12.7995 7.79948H16ZM13 12.6003H15.7995V9.79948H13V12.6003Z" fill="#FAFAFA"/>
<path d="M8.79948 8.60026C9.35176 8.60026 9.79948 9.04798 9.79948 9.60026V12C9.79948 12.5523 9.35176 13 8.79948 13C8.24743 12.9997 7.79948 12.5521 7.79948 12V9.60026C7.79948 9.04815 8.24743 8.60054 8.79948 8.60026Z" fill="#FAFAFA"/>
<path fill-rule="evenodd" clip-rule="evenodd" d="M20.7995 7.39974C21.5725 7.39974 22.2002 8.0265 22.2005 8.79948C22.2005 9.5727 21.5727 10.2005 20.7995 10.2005C20.0265 10.2002 19.3997 9.57253 19.3997 8.79948C19.4 8.02667 20.0267 7.40002 20.7995 7.39974ZM20.7995 8.20052C20.4685 8.2008 20.2008 8.46851 20.2005 8.79948L20.2122 8.92057C20.268 9.19399 20.5097 9.39949 20.7995 9.39974C21.1308 9.39974 21.3997 9.13087 21.3997 8.79948C21.3995 8.50963 21.194 8.26803 20.9206 8.21224L20.7995 8.20052Z" fill="#FAFAFA"/>
<path fill-rule="evenodd" clip-rule="evenodd" d="M23.2005 3C23.8898 3.00014 24.5516 3.27421 25.0391 3.76172C25.5265 4.24932 25.7995 4.91095 25.7995 5.60026V12.9818L27.5625 13.8633L27.7214 13.9492C28.0839 14.1631 28.3899 14.4622 28.612 14.8216C28.8658 15.2325 29.0001 15.706 29 16.1888V20.6107C29.0002 21.0935 28.8658 21.567 28.612 21.9779C28.3583 22.3886 27.9946 22.7214 27.5625 22.9375L25.7995 23.819V26.3997C25.7995 27.089 25.5265 27.7507 25.0391 28.2383C24.5515 28.7258 23.8898 28.9999 23.2005 29H7.20052C6.51108 29 5.84961 28.7259 5.36198 28.2383C4.87437 27.7507 4.60026 27.0892 4.60026 26.3997V14.3997C4.28973 14.2704 4.00421 14.081 3.76172 13.8385C3.27411 13.3509 3 12.6896 3 12V8.79948C3.00014 8.11012 3.27424 7.44841 3.76172 6.96094C4.0042 6.71855 4.28977 6.52906 4.60026 6.39974V5.60026C4.60026 4.9107 4.87439 4.24931 5.36198 3.76172C5.84956 3.2742 6.51103 3 7.20052 3H23.2005ZM7.20052 5C7.04145 5 6.88854 5.06335 6.77604 5.17578C6.66352 5.2883 6.60026 5.44114 6.60026 5.60026V7.20052C6.60012 7.46555 6.49471 7.72014 6.30729 7.90755C6.16655 8.04824 5.98799 8.14258 5.79557 8.18099L5.48307 8.21224C5.36753 8.23525 5.26027 8.29181 5.17578 8.3763C5.06355 8.48866 5.00014 8.64066 5 8.79948V12C5 12.1591 5.06327 12.312 5.17578 12.4245C5.26026 12.5089 5.36754 12.5655 5.48307 12.5885L5.79557 12.6198C5.988 12.6582 6.16654 12.7525 6.30729 12.8932C6.49467 13.0807 6.60026 13.3352 6.60026 13.6003V26.3997C6.60026 26.5589 6.66355 26.7117 6.77604 26.8242C6.8885 26.9366 7.04138 27 7.20052 27H23.2005C23.3594 26.9999 23.5114 26.9364 23.6237 26.8242C23.7361 26.7118 23.7995 26.5589 23.7995 26.3997V23.2005C23.7995 22.8218 24.0141 22.4754 24.3529 22.306L26.668 21.1484L26.7396 21.1055C26.8078 21.0585 26.8662 20.9982 26.9102 20.9271C26.9687 20.8324 27 20.7232 27 20.612V16.1888C27 16.0776 26.9686 15.9685 26.9102 15.8737C26.8516 15.7791 26.7673 15.702 26.668 15.6523L24.3529 14.4948C24.0141 14.3255 23.7996 13.979 23.7995 13.6003V5.60026C23.7995 5.44107 23.7362 5.28825 23.6237 5.17578C23.5114 5.06359 23.3593 5.00014 23.2005 5H7.20052Z" fill="#FAFAFA"/>
</svg>
