<svg width="32" height="32" viewBox="0 0 32 32" fill="none" xmlns="http://www.w3.org/2000/svg">
<path fill-rule="evenodd" clip-rule="evenodd" d="M16.0008 2.66699C16.5531 2.66704 17.0008 3.11479 17.0007 3.66708L17.0003 8.33375C17.0003 8.88603 16.5525 9.33371 16.0002 9.33366C15.448 9.33361 15.0003 8.88586 15.0003 8.33357L15.0007 3.6669C15.0008 3.11462 15.4485 2.66694 16.0008 2.66699ZM6.57258 6.57189C6.96314 6.1814 7.59631 6.18145 7.9868 6.57201L11.2863 9.87213C11.6768 10.2627 11.6768 10.8959 11.2862 11.2863C10.8957 11.6768 10.2625 11.6768 9.872 11.2862L6.57246 7.9861C6.18197 7.59554 6.18203 6.96238 6.57258 6.57189ZM25.4291 6.57289C25.8196 6.96342 25.8196 7.59658 25.4291 7.98711L22.1292 11.2869C21.7387 11.6775 21.1056 11.6775 20.715 11.2869C20.3245 10.8964 20.3245 10.2632 20.715 9.87273L24.0149 6.57289C24.4054 6.18237 25.0385 6.18237 25.4291 6.57289ZM2.66699 16.0013C2.66699 15.449 3.11471 15.0013 3.66699 15.0013H8.33366C8.88594 15.0013 9.33366 15.449 9.33366 16.0013C9.33366 16.5535 8.88594 17.0013 8.33366 17.0013H3.66699C3.11471 17.0013 2.66699 16.5535 2.66699 16.0013ZM22.667 16.0013C22.667 15.449 23.1147 15.0013 23.667 15.0013H28.3337C28.8859 15.0013 29.3337 15.449 29.3337 16.0013C29.3337 16.5535 28.8859 17.0013 28.3337 17.0013H23.667C23.1147 17.0013 22.667 16.5535 22.667 16.0013ZM20.7147 20.7141C21.1052 20.3236 21.7383 20.3236 22.1289 20.7141L25.4287 24.0139C25.8192 24.4044 25.8192 25.0376 25.4287 25.4281C25.0382 25.8187 24.405 25.8187 24.0145 25.4281L20.7147 22.1283C20.3241 21.7378 20.3241 21.1046 20.7147 20.7141ZM11.2869 20.715C11.6775 21.1056 11.6775 21.7387 11.2869 22.1292L7.98711 25.4291C7.59658 25.8196 6.96342 25.8196 6.57289 25.4291C6.18237 25.0385 6.18237 24.4054 6.57289 24.0149L9.87272 20.715C10.2632 20.3245 10.8964 20.3245 11.2869 20.715ZM16.0007 22.667C16.553 22.667 17.0007 23.1147 17.0007 23.667V28.3337C17.0007 28.8859 16.553 29.3337 16.0007 29.3337C15.4484 29.3337 15.0007 28.8859 15.0007 28.3337V23.667C15.0007 23.1147 15.4484 22.667 16.0007 22.667Z" fill="#FAFAFA"/>
</svg>
