<svg width="32" height="32" viewBox="0 0 32 32" fill="none" xmlns="http://www.w3.org/2000/svg">
<path fill-rule="evenodd" clip-rule="evenodd" d="M16.0003 27.3332C22.2596 27.3332 27.3337 22.2591 27.3337 15.9998C27.3337 9.74061 22.2596 4.6665 16.0003 4.6665C9.7411 4.6665 4.66699 9.74061 4.66699 15.9998C4.66699 22.2591 9.7411 27.3332 16.0003 27.3332ZM29.3337 15.9998C29.3337 23.3636 23.3641 29.3332 16.0003 29.3332C8.63653 29.3332 2.66699 23.3636 2.66699 15.9998C2.66699 8.63604 8.63653 2.6665 16.0003 2.6665C23.3641 2.6665 29.3337 8.63604 29.3337 15.9998Z" fill="#FAFAFA"/>
<path fill-rule="evenodd" clip-rule="evenodd" d="M19.0979 22.0403C19.4884 21.6497 19.4884 21.0166 19.0979 20.6261L14.7073 16.2355C14.5772 16.1054 14.5772 15.8943 14.7073 15.7641L19.0979 11.3736C19.4884 10.9831 19.4884 10.3499 19.0979 9.95939C18.7073 9.56887 18.0742 9.56887 17.6836 9.95939L13.2931 14.3499C12.3819 15.2611 12.3819 16.7385 13.2931 17.6497L17.6836 22.0403C18.0742 22.4308 18.7073 22.4308 19.0979 22.0403Z" fill="#FAFAFA"/>
</svg>
