<svg width="32" height="32" viewBox="0 0 32 32" fill="none" xmlns="http://www.w3.org/2000/svg">
<path fill-rule="evenodd" clip-rule="evenodd" d="M17.7399 6.66651C17.7346 6.6734 17.7293 6.68028 17.724 6.68715L17.7399 6.66651Z" fill="#FAFAFA"/>
<path fill-rule="evenodd" clip-rule="evenodd" d="M13.8063 20.1379C14.1503 20.1579 14.5234 20.2796 14.8063 20.6196C15.0655 20.9316 15.1811 21.348 15.2243 21.8058C15.2841 22.4425 15.1751 23.0985 14.9209 23.6704C14.9172 23.6788 14.9129 23.6868 14.9092 23.6952C14.8411 23.8452 14.763 23.9888 14.6748 24.1248C14.6614 24.1456 14.647 24.1657 14.6331 24.186C14.6088 24.2217 14.5846 24.2571 14.5589 24.2915C14.5409 24.3156 14.5229 24.3396 14.5042 24.3631C14.4661 24.411 14.4266 24.4573 14.3857 24.5024C14.3482 24.544 14.3097 24.5845 14.2699 24.6235C14.2481 24.6448 14.2259 24.6655 14.2035 24.686C14.1666 24.7198 14.1276 24.7509 14.0889 24.7824C14.055 24.8099 14.0213 24.8374 13.986 24.8631C13.9369 24.8991 13.8868 24.9337 13.835 24.966C13.814 24.9791 13.7926 24.9913 13.7712 25.0037C13.7126 25.0378 13.6532 25.0708 13.5915 25.1001C13.5743 25.1082 13.5568 25.1158 13.5394 25.1235C13.4718 25.1536 13.4023 25.1803 13.3311 25.2043C13.3108 25.2111 13.2904 25.2175 13.2699 25.2238C13.1898 25.2484 13.1082 25.271 13.0238 25.2876L12.8831 25.311C12.8576 25.3145 12.8318 25.3149 12.8063 25.3176C12.7768 25.3206 12.7473 25.3221 12.7178 25.3241C12.6612 25.3278 12.6049 25.3294 12.5485 25.3293C12.5176 25.3292 12.4869 25.3292 12.4561 25.328C12.402 25.3258 12.3483 25.3218 12.2946 25.3162C12.2668 25.3134 12.239 25.3109 12.2113 25.3071C12.1548 25.2994 12.0991 25.2886 12.0433 25.2772C12.0133 25.2711 11.9832 25.2661 11.9535 25.259C11.9127 25.2492 11.8727 25.2368 11.8324 25.2251C11.7903 25.2129 11.7476 25.2028 11.7061 25.1886C11.6493 25.1692 11.5937 25.1466 11.5381 25.1235C11.5165 25.1146 11.4944 25.107 11.473 25.0975C11.3983 25.0643 11.325 25.0276 11.2529 24.9881C11.2188 24.9695 11.1861 24.9483 11.1527 24.9282C11.1151 24.9057 11.0774 24.8834 11.0407 24.8592C10.9937 24.8283 10.9481 24.7952 10.9027 24.7616C10.882 24.7462 10.8605 24.7319 10.8402 24.716C10.7993 24.6842 10.7598 24.6509 10.7204 24.617C10.6911 24.5918 10.6616 24.5666 10.6331 24.5402C10.6001 24.5096 10.5687 24.4772 10.5368 24.4452C10.5085 24.4166 10.4807 24.3876 10.4535 24.3579C10.4185 24.32 10.3838 24.2817 10.3506 24.242C10.3314 24.2191 10.3132 24.1953 10.2946 24.1717C10.2543 24.1207 10.2148 24.0691 10.1774 24.0155C10.1685 24.0026 10.1601 23.9894 10.1514 23.9764C10.1137 23.9207 10.0776 23.8641 10.0433 23.8058C10.0347 23.7913 10.0269 23.7763 10.0186 23.7616C9.90195 23.556 9.80393 23.3372 9.7347 23.1053L9.66178 22.8084C9.58468 22.4114 9.58298 22.0289 9.71256 21.6834C9.84819 21.3227 10.0972 21.0767 10.3766 20.9126C10.6406 20.7577 10.9407 20.6699 11.2126 20.6066C11.4074 20.5613 11.626 20.5201 11.835 20.4816C11.9141 20.467 11.992 20.4529 12.0667 20.4386C12.2488 20.4039 12.414 20.3636 12.5902 20.3202C12.6858 20.2966 12.7852 20.272 12.8923 20.2472C13.1623 20.1847 13.4898 20.1195 13.8063 20.1379ZM13.0693 22.2616C12.8992 22.3035 12.6837 22.3572 12.4417 22.4035C12.3593 22.4192 12.2748 22.4347 12.1969 22.4491C11.9773 22.4895 11.8068 22.5217 11.6657 22.5545C11.7425 22.7929 11.8902 23.0077 12.0889 23.1548C12.3229 23.328 12.524 23.3478 12.6396 23.3254L12.723 23.2993C12.8127 23.2605 12.9196 23.1772 13.0264 22.9959C13.1481 22.789 13.2268 22.5108 13.2373 22.2199C13.1829 22.233 13.1282 22.247 13.0693 22.2616Z" fill="#FAFAFA"/>
<path fill-rule="evenodd" clip-rule="evenodd" d="M18.4339 16.8241C18.6723 16.8376 18.9072 16.8865 19.1097 16.9334C19.2174 16.9584 19.3171 16.9826 19.4131 17.0064C19.5886 17.0497 19.7523 17.0914 19.9339 17.1261C19.9742 17.1338 20.0158 17.1405 20.0576 17.1483L20.1696 17.1691C20.3772 17.2073 20.5947 17.2478 20.7881 17.2928C21.06 17.3561 21.3601 17.4452 21.624 17.6001C21.694 17.6412 21.7621 17.6875 21.8271 17.7394C21.8918 17.7911 21.9537 17.848 22.0107 17.9113C22.1253 18.0384 22.2215 18.1904 22.2894 18.3709C22.338 18.5007 22.3685 18.6356 22.3831 18.7746C22.3977 18.9133 22.3966 19.0562 22.3831 19.2017C22.3742 19.2986 22.3594 19.3968 22.3402 19.4959C22.3224 19.5873 22.3006 19.6772 22.2751 19.7655C22.2495 19.8539 22.2206 19.9409 22.1878 20.0259C22.0893 20.2809 21.9592 20.5197 21.8037 20.7368C21.7519 20.8092 21.6969 20.879 21.6396 20.9465C21.411 21.216 21.1411 21.4448 20.8454 21.6209C20.7714 21.665 20.6958 21.706 20.6188 21.7433C20.465 21.8179 20.3053 21.8777 20.1423 21.923C19.8974 21.9912 19.6445 22.0252 19.3896 22.0194L19.1175 21.9985L18.9769 21.9751C18.8872 21.9575 18.7999 21.9353 18.7152 21.9087C17.4487 21.511 16.7391 20.1368 16.7607 18.7824L16.7777 18.4933C16.8208 18.0354 16.9353 17.6191 17.1943 17.3071C17.4772 16.9672 17.8515 16.8441 18.1956 16.8241C18.2747 16.8195 18.3545 16.8195 18.4339 16.8241ZM18.7829 19.1222C18.7938 19.1925 18.8088 19.2608 18.8271 19.3267C18.8637 19.4579 18.9136 19.5789 18.9743 19.6821C19.0783 19.8588 19.1826 19.9418 19.2712 19.9816C19.3002 19.9947 19.3281 20.0034 19.3532 20.009L19.3923 20.0155C19.4236 20.0191 19.4592 20.0189 19.4977 20.0142C19.7696 19.9802 20.1919 19.7352 20.3441 19.2433L19.8076 19.1366L19.6943 19.1157L19.5589 19.0897C19.3179 19.0435 19.1033 18.9909 18.9339 18.9491C18.8738 18.9342 18.8174 18.9207 18.762 18.9074C18.7647 18.9802 18.772 19.052 18.7829 19.1222Z" fill="#FAFAFA"/>
<path fill-rule="evenodd" clip-rule="evenodd" d="M10.4847 9.98552C11.0532 9.94037 11.5617 10.1599 11.9782 10.4829C12.3917 10.8037 12.7497 11.2518 13.0498 11.7472C13.6503 12.7386 14.0883 14.0366 14.2751 15.2772C14.4587 16.4999 14.4069 17.5738 13.9652 18.4022C13.4995 19.275 12.6719 19.7509 11.6136 19.9074C10.4223 20.0833 9.46897 19.7707 8.79329 18.9764C8.24478 18.3312 7.93264 17.4267 7.74251 16.4074L7.66829 15.9634C7.43492 14.4089 7.55764 13.0688 7.97428 12.0441L8.06152 11.8436C8.55222 10.7859 9.40391 10.0716 10.4847 9.98552ZM10.6201 11.9816C10.4271 12.0047 10.1309 12.1341 9.87533 12.6847C9.60159 13.2751 9.43606 14.2672 9.64616 15.6665C9.81256 16.7737 10.0643 17.3838 10.3167 17.6808L10.3766 17.7459C10.5272 17.8946 10.7629 18.0122 11.3219 17.9295C11.9271 17.84 12.1068 17.6345 12.1995 17.4608C12.3244 17.2266 12.4282 16.7697 12.3454 15.9491L12.2972 15.5741C12.1433 14.5527 11.7817 13.5148 11.3389 12.7837C11.1165 12.4167 10.91 12.1843 10.7529 12.0623C10.6873 12.0115 10.6412 11.9901 10.6201 11.9816Z" fill="#FAFAFA"/>
<path fill-rule="evenodd" clip-rule="evenodd" d="M21.5107 6.67172C21.782 6.6914 22.0387 6.7513 22.279 6.8462C22.5191 6.94112 22.7432 7.07082 22.9482 7.23161C23.3583 7.553 23.694 7.99687 23.9391 8.52588C23.9694 8.59132 23.9986 8.65813 24.0264 8.7264C24.0819 8.86321 24.1324 9.00566 24.1774 9.15349C24.2449 9.37552 24.3 9.60982 24.3428 9.85531C24.3997 10.1819 24.4345 10.5285 24.4456 10.8931C24.4623 11.4406 24.4258 12.0288 24.3324 12.6509L24.2581 13.0949C24.2344 13.2222 24.2091 13.3478 24.1813 13.4712C24.0979 13.8418 23.9952 14.1937 23.8675 14.5194C23.6971 14.9537 23.4818 15.3412 23.2074 15.6639L23.0771 15.8071C23.0356 15.8501 22.993 15.8912 22.9495 15.9308C22.7755 16.0897 22.5867 16.2223 22.3831 16.328C21.9762 16.5391 21.5112 16.644 20.9925 16.6418C20.7978 16.641 20.5954 16.6245 20.3857 16.5936C19.3282 16.437 18.5023 15.9607 18.0368 15.0884C17.6503 14.3634 17.5602 13.4512 17.667 12.4152L17.7243 11.9647C17.8876 10.8792 18.2419 9.75039 18.7295 8.82146L18.9456 8.43734C19.2453 7.94227 19.6034 7.4942 20.0173 7.17302C20.3823 6.88988 20.8172 6.68636 21.3011 6.66781C21.37 6.66515 21.4399 6.66661 21.5107 6.67172ZM21.3831 8.66781C21.3624 8.67564 21.3145 8.69892 21.2438 8.75375C21.085 8.87698 20.8771 9.10813 20.6566 9.4725C20.2708 10.1102 19.9479 10.9833 19.7699 11.8774L19.7021 12.2616C19.6823 12.3938 19.6671 12.5182 19.6553 12.6353C19.6435 12.7524 19.6352 12.862 19.6305 12.9647C19.6025 13.5806 19.6937 13.9452 19.8011 14.147L19.8923 14.2811C19.9219 14.315 19.9576 14.3488 20.0016 14.3814C20.1332 14.4785 20.3394 14.5655 20.6787 14.6157C21.317 14.7098 21.5343 14.5429 21.6839 14.367C21.9362 14.0697 22.1882 13.46 22.3545 12.354L22.4157 11.8475C22.5209 10.7119 22.3638 9.88516 22.124 9.36703C21.8975 8.87814 21.6415 8.72448 21.4574 8.68083L21.3831 8.66781Z" fill="#FAFAFA"/>
<path d="M29.3337 9.33318C29.3337 7.86042 28.1397 6.66651 26.667 6.66651H25.1501C25.3865 6.98695 25.5896 7.33074 25.7542 7.68604C25.8992 7.99907 26.0191 8.32689 26.1175 8.66651H26.667C27.0352 8.66651 27.3337 8.96499 27.3337 9.33318V22.6665C27.3337 23.0347 27.0352 23.3332 26.667 23.3332H21.8818L17.1019 23.3579C16.9548 24.0446 16.6847 24.7293 16.2777 25.3332H26.667C28.1397 25.3332 29.3337 24.1393 29.3337 22.6665V9.33318Z" fill="#FAFAFA"/>
<path d="M17.2347 7.40088L17.5433 6.92823C17.6004 6.84704 17.6619 6.76746 17.724 6.68715L17.7399 6.66651H5.33366C3.8609 6.66651 2.66699 7.86042 2.66699 9.33318V22.6665C2.66699 24.1393 3.8609 25.3332 5.33366 25.3332H8.66439C8.2173 24.7445 7.89217 24.0613 7.72819 23.3332H5.33366C4.96547 23.3332 4.66699 23.0347 4.66699 22.6665V9.33318C4.66699 8.96499 4.96547 8.66651 5.33366 8.66651H16.5954C16.784 8.22326 16.9955 7.79625 17.2347 7.40088Z" fill="#FAFAFA"/>
</svg>
