<svg width="32" height="32" viewBox="0 0 32 32" fill="none" xmlns="http://www.w3.org/2000/svg">
<path d="M21.625 15C22.1773 15 22.625 15.4477 22.625 16C22.625 16.5523 22.1773 17 21.625 17H10.375C9.82272 17 9.375 16.5523 9.375 16C9.375 15.4477 9.82272 15 10.375 15H21.625Z" fill="#FAFAFA"/>
<path fill-rule="evenodd" clip-rule="evenodd" d="M27.25 10C27.8467 10 28.4192 10.2369 28.8411 10.6589C29.2631 11.0808 29.5 11.6533 29.5 12.25V17.25C29.5 17.8467 29.2631 18.4192 28.8411 18.8411C28.4192 19.2631 27.8467 19.5 27.25 19.5H26.4141L24.207 21.707C24.0195 21.8946 23.7652 22 23.5 22H8.5C8.23478 22 7.98051 21.8946 7.79297 21.707L5.58594 19.5H4.75C4.15326 19.5 3.58081 19.2631 3.15885 18.8411C2.7369 18.4192 2.5 17.8467 2.5 17.25V12.25C2.5 11.6533 2.7369 11.0808 3.15885 10.6589C3.58081 10.2369 4.15326 10 4.75 10H27.25ZM4.75 12C4.6837 12 4.6198 12.026 4.57292 12.0729C4.52603 12.1198 4.5 12.1837 4.5 12.25V17.25C4.5 17.3163 4.52603 17.3802 4.57292 17.4271C4.6198 17.474 4.6837 17.5 4.75 17.5H6C6.26522 17.5 6.5195 17.6054 6.70703 17.793L8.91406 20H23.0859L25.293 17.793L25.4453 17.668C25.6084 17.5593 25.8011 17.5 26 17.5H27.25C27.3163 17.5 27.3802 17.474 27.4271 17.4271C27.474 17.3802 27.5 17.3163 27.5 17.25V12.25C27.5 12.1837 27.474 12.1198 27.4271 12.0729C27.3802 12.026 27.3163 12 27.25 12H4.75Z" fill="#FAFAFA"/>
</svg>
