<svg width="32" height="32" viewBox="0 0 32 32" fill="none" xmlns="http://www.w3.org/2000/svg">
<path fill-rule="evenodd" clip-rule="evenodd" d="M6.59721 8.34773L14.9449 15.1777C15.5589 15.68 16.4418 15.68 17.0557 15.1777L25.4034 8.34773C25.0869 8.33419 24.6718 8.33325 24.067 8.33325H7.93366C7.32888 8.33325 6.91373 8.33419 6.59721 8.34773ZM3.73086 8.58666C3.77283 8.26943 3.84238 8.01549 3.95764 7.78928C4.14871 7.41428 4.42484 7.09168 4.76162 6.84589C4.87547 6.7628 4.99625 6.68849 5.12302 6.6239C5.69345 6.33325 6.44019 6.33325 7.93366 6.33325H24.067C25.5605 6.33325 26.3072 6.33325 26.8776 6.6239C27.0044 6.68849 27.1252 6.7628 27.239 6.84589C27.5758 7.09168 27.8519 7.41428 28.043 7.78928C28.1583 8.01549 28.2278 8.26943 28.2698 8.58666C28.3337 9.0694 28.3337 9.6987 28.3337 10.5999V21.3999C28.3337 22.8934 28.3337 23.6401 28.043 24.2106C27.7873 24.7123 27.3794 25.1203 26.8776 25.3759C26.3072 25.6666 25.5605 25.6666 24.067 25.6666H7.93366C6.44019 25.6666 5.69345 25.6666 5.12302 25.3759C4.62125 25.1203 4.2133 24.7123 3.95764 24.2106C3.66699 23.6401 3.66699 22.8934 3.66699 21.3999V10.5999C3.66699 9.6987 3.66699 9.0694 3.73086 8.58666ZM26.3333 10.1711L18.3222 16.7256C16.9715 17.8307 15.0291 17.8307 13.6785 16.7256L5.66737 10.1711C5.66705 10.3026 5.66699 10.445 5.66699 10.5999V21.3999C5.66699 22.1797 5.66855 22.6442 5.69668 22.9885C5.71385 23.1987 5.73651 23.287 5.74385 23.3107C5.80657 23.4297 5.90385 23.527 6.02289 23.5897C6.04657 23.5971 6.1349 23.6197 6.34506 23.6369C6.6894 23.665 7.15392 23.6666 7.93366 23.6666H24.067C24.8467 23.6666 25.3113 23.665 25.6556 23.6369C25.8657 23.6197 25.9541 23.5971 25.9778 23.5897C26.0968 23.527 26.1941 23.4297 26.2568 23.3107C26.2641 23.287 26.2868 23.1987 26.304 22.9885C26.3321 22.6442 26.3337 22.1797 26.3337 21.3999V10.5999C26.3337 10.445 26.3336 10.3026 26.3333 10.1711Z" fill="#FAFAFA"/>
</svg>
