<svg width="32" height="32" viewBox="0 0 32 32" fill="none" xmlns="http://www.w3.org/2000/svg">
<path fill-rule="evenodd" clip-rule="evenodd" d="M22.1328 3C22.4895 3 22.8464 3.07336 23.1693 3.25781C23.4962 3.44461 23.7258 3.70943 23.8789 3.99349C24.1607 4.51615 24.2005 5.13315 24.2005 5.60026V13.6003C24.2005 14.0674 24.1607 14.6845 23.8789 15.207C23.7257 15.491 23.4961 15.756 23.1693 15.9427C22.8464 16.1271 22.4895 16.2005 22.1328 16.2005H20C19.2481 16.2005 18.5039 16.1144 17.7995 15.9232V21.6003C17.7994 22.7141 17.3566 23.7827 16.569 24.5703C16.0219 25.1172 15.3392 25.4968 14.6003 25.6784V28.0013C14.5996 28.553 14.1522 29.0013 13.6003 29.0013C13.0484 29.0013 12.6009 28.553 12.6003 28.0013V25.6784C11.8608 25.4969 11.1775 25.1174 10.6302 24.5703C9.84263 23.7827 9.39983 22.7141 9.39974 21.6003V14.6003H8.20052V19.2005C8.20027 20.9108 7.04673 21.9753 6.13021 22.5482C5.65777 22.8435 5.19339 23.0463 4.85156 23.1745C4.67924 23.2391 4.53349 23.2858 4.42839 23.3177C4.37572 23.3337 4.33216 23.3455 4.30078 23.3542C4.28537 23.3584 4.27275 23.362 4.26302 23.3646C4.25811 23.3659 4.25337 23.3676 4.25 23.3685L4.24609 23.3698H4.24349C3.94483 23.4444 3.62676 23.3782 3.38411 23.1888C3.14141 22.9993 3.00001 22.7077 3 22.3997V11.9688C3.03527 10.8292 3.44015 9.7314 4.15234 8.84115C4.8646 7.95103 5.84657 7.31571 6.95052 7.03125C6.96084 7.02859 6.97141 7.02706 6.98177 7.02474L14.6706 5.3151C14.8817 5.0376 15.1167 4.78264 15.3763 4.55208C16.6279 3.44075 18.2945 3 20 3H22.1328ZM11.3997 21.6003C11.3998 22.1836 11.6318 22.7437 12.0443 23.1562C12.4568 23.5686 13.017 23.8008 13.6003 23.8008C14.1833 23.8006 14.7425 23.5684 15.1549 23.1562C15.5675 22.7437 15.7994 22.1836 15.7995 21.6003V14.9831C15.6544 14.878 15.5121 14.7677 15.3763 14.6471C15.3593 14.632 15.3436 14.6156 15.3268 14.6003H11.3997V21.6003ZM6.20052 9.60156C6.02271 9.74662 5.85855 9.90989 5.71354 10.0911C5.27185 10.6434 5.02183 11.3245 5 12.0312V20.8919C5.02292 20.8782 5.04744 20.8659 5.07031 20.8516C5.75326 20.4246 6.20028 19.8894 6.20052 19.2005V9.60156ZM21 14.2005H22.1328L22.1406 14.1992C22.15 14.1684 22.1609 14.1247 22.1706 14.0651C22.1899 13.945 22.2005 13.7914 22.2005 13.6003V5.60026C22.2005 5.40899 22.1899 5.25558 22.1706 5.13542C22.1609 5.07506 22.1501 5.03097 22.1406 5H21V14.2005ZM19 5.06771C18.0635 5.20199 17.2839 5.53353 16.7044 6.04818C15.9503 6.71798 15.3997 7.81893 15.3997 9.60026C15.3998 11.3814 15.9503 12.4826 16.7044 13.1523C17.2839 13.6668 18.0636 13.9972 19 14.1315V5.06771ZM8.20052 8.80208V12.6003H13.9414C13.5881 11.7416 13.3998 10.7401 13.3997 9.60026C13.3997 8.87693 13.4748 8.20886 13.6198 7.59766L8.20052 8.80208Z" fill="#FAFAFA"/>
<path d="M25.5052 13.1536C25.7521 12.6599 26.3525 12.4593 26.8464 12.7057L28.4466 13.5052C28.9406 13.7522 29.1415 14.3537 28.8945 14.8477C28.6475 15.3416 28.046 15.5412 27.5521 15.2943L25.9531 14.4948C25.4595 14.2478 25.2587 13.6474 25.5052 13.1536Z" fill="#FAFAFA"/>
<path d="M28 8.60026C28.5522 8.6004 29 9.04806 29 9.60026C29 10.1525 28.5522 10.6001 28 10.6003H26.3997C25.8476 10.6001 25.3997 10.1525 25.3997 9.60026C25.3997 9.04806 25.8476 8.6004 26.3997 8.60026H28Z" fill="#FAFAFA"/>
<path d="M27.5521 3.90625C28.0461 3.65926 28.6475 3.86019 28.8945 4.35417C29.1407 4.84795 28.9402 5.4485 28.4466 5.69531L26.8464 6.49479C26.3527 6.74109 25.7522 6.54152 25.5052 6.04818C25.2583 5.55436 25.4595 4.95287 25.9531 4.70573L27.5521 3.90625Z" fill="#FAFAFA"/>
</svg>
