<svg width="32" height="32" viewBox="0 0 32 32" fill="none" xmlns="http://www.w3.org/2000/svg">
<path fill-rule="evenodd" clip-rule="evenodd" d="M19.2391 22.2092C19.5956 22.2657 19.8997 22.5127 20.0242 22.8602L22.1349 28.7548C22.2442 29.0609 22.1983 29.4017 22.0112 29.6675C21.824 29.9333 21.5186 30.0918 21.1935 30.092H10.8094C10.4844 30.092 10.179 29.933 9.99167 29.6675C9.80451 29.4018 9.75866 29.0609 9.86798 28.7548L11.9734 22.8615C12.1156 22.4638 12.4926 22.1977 12.9149 22.1975H19.0828L19.2391 22.2092ZM12.2287 28.092H19.7729L18.3784 24.1975H13.6206L12.2287 28.092Z" fill="#FAFAFA"/>
<path fill-rule="evenodd" clip-rule="evenodd" d="M13.812 9.85763C14.945 8.64937 16.8442 8.58828 18.0529 9.72091C19.2613 10.854 19.3209 12.7532 18.1883 13.9618C17.0552 15.1697 15.1573 15.231 13.9487 14.0985C12.7405 12.9655 12.679 11.0664 13.812 9.85763ZM16.6844 11.1792C16.2815 10.8024 15.6478 10.8225 15.2703 11.2248C14.8928 11.6276 14.9142 12.2624 15.3172 12.6402C15.7199 13.0175 16.3523 12.9968 16.73 12.5946C17.1076 12.1917 17.087 11.5568 16.6844 11.1792Z" fill="#FAFAFA"/>
<path fill-rule="evenodd" clip-rule="evenodd" d="M10.2586 2.01909C10.5772 1.89975 10.9305 1.87309 11.2716 1.95269C11.7258 2.05896 12.1155 2.34255 12.3589 2.73394L13.6479 4.81076C13.8676 4.56441 14.104 4.33125 14.3563 4.11414L14.7846 3.7717C15.8082 3.01253 17.0103 2.5227 18.2781 2.34982C19.727 2.15252 21.203 2.37705 22.5268 2.99956C23.6848 3.54428 24.6841 4.37253 25.4331 5.40321L25.7391 5.85763L25.7872 5.94748L25.8524 6.08029L25.8914 6.16883C26.0102 6.48679 26.0362 6.83938 25.9565 7.18055C25.877 7.52029 25.6991 7.82581 25.45 8.05946C25.4255 8.08244 25.3986 8.10416 25.3719 8.12456L25.2547 8.2144C25.2296 8.23351 25.2033 8.25114 25.1766 8.26779L23.0997 9.55685C23.3462 9.77671 23.5792 10.0141 23.7964 10.2665C24.7506 11.3756 25.3631 12.738 25.5607 14.1871C25.7334 15.4549 25.5833 16.7438 25.1258 17.9332L24.9096 18.4371C24.365 19.5944 23.5375 20.5932 22.5073 21.342L22.0516 21.648C21.6587 21.8918 21.1827 21.9723 20.73 21.8667C20.3328 21.7737 19.984 21.5449 19.7404 21.2274L19.6414 21.0855L18.351 19.0087C18.1314 19.2549 17.8961 19.4883 17.644 19.7053C16.5351 20.6594 15.1724 21.272 13.7234 21.4696C12.2745 21.6669 10.7974 21.4425 9.47345 20.8199C8.14996 20.1972 7.03341 19.2042 6.26121 17.9618C6.01668 17.5682 5.9385 17.0921 6.04376 16.6402L6.09194 16.4722C6.22268 16.09 6.48188 15.7644 6.82371 15.5516L8.89923 14.2613C8.65327 14.0419 8.42075 13.8049 8.20391 13.5529C7.24987 12.444 6.63728 11.0823 6.43959 9.63367C6.24227 8.18493 6.46832 6.7074 7.09063 5.38368C7.71328 4.0604 8.70651 2.94354 9.94871 2.17144L10.0372 2.12196L10.1714 2.05685L10.2586 2.01909ZM10.7964 4.00868C9.97941 4.56871 9.3221 5.33622 8.89923 6.23524C8.44151 7.20915 8.27599 8.29596 8.42136 9.36284C8.56691 10.4299 9.01773 11.4324 9.71954 12.2483C10.1368 12.7331 10.6346 13.1404 11.187 13.4553C11.4931 13.6298 11.6854 13.9532 11.6922 14.3055C11.6989 14.6579 11.5188 14.988 11.2195 15.174L8.09975 17.1128C8.65974 17.9299 9.4259 18.587 10.325 19.01C11.2991 19.468 12.3866 19.6346 13.4539 19.4891C14.5207 19.3436 15.5235 18.8928 16.3393 18.191C16.8246 17.7734 17.2327 17.2749 17.5477 16.7222L17.618 16.6128C17.8014 16.3709 18.0884 16.223 18.3966 16.217C18.7489 16.2104 19.0791 16.3904 19.2651 16.6897L21.2026 19.8095C22.0196 19.2495 22.6781 18.4833 23.101 17.5842C23.5588 16.6104 23.7243 15.5236 23.5789 14.4566C23.4334 13.3895 22.9827 12.3871 22.2807 11.5712C21.8628 11.0855 21.3647 10.6777 20.812 10.3628C20.5059 10.1883 20.3149 9.86486 20.3081 9.51258C20.3015 9.16026 20.4801 8.83005 20.7794 8.64409L23.9005 6.70399C23.3406 5.8878 22.5738 5.2321 21.6753 4.80946C20.7014 4.35154 19.6147 4.18501 18.5477 4.33029C17.4804 4.47588 16.4769 4.92766 15.6609 5.62977C15.1759 6.04727 14.7686 6.54495 14.4539 7.09722C14.2794 7.40319 13.9558 7.59562 13.6037 7.60242C13.2516 7.60895 12.9212 7.43 12.7352 7.13107L10.7964 4.00868Z" fill="#FAFAFA"/>
</svg>
