<svg width="32" height="32" viewBox="0 0 32 32" fill="none" xmlns="http://www.w3.org/2000/svg">
<path d="M9 27V22C9 21.7167 9.09587 21.4791 9.28767 21.2873C9.4792 21.0958 9.71667 21 10 21H15V16C15 15.7167 15.0959 15.4791 15.2877 15.2873C15.4792 15.0958 15.7167 15 16 15H21V10C21 9.71667 21.0959 9.47913 21.2877 9.28733C21.4792 9.0958 21.7167 9 22 9H27V5C27 4.71667 27.0965 4.47911 27.2893 4.28733C27.482 4.09578 27.7209 4 28.006 4C28.2909 4 28.5278 4.09578 28.7167 4.28733C28.9055 4.47911 29 4.71667 29 5V10C29 10.2833 28.9042 10.5208 28.7127 10.7123C28.5209 10.9041 28.2833 11 28 11H23V16C23 16.2833 22.9042 16.5208 22.7127 16.7123C22.5209 16.9041 22.2833 17 22 17H17V22C17 22.2833 16.9042 22.5208 16.7127 22.7123C16.5209 22.9041 16.2833 23 16 23H11V28C11 28.2833 10.9042 28.5208 10.7127 28.7123C10.5209 28.9041 10.2833 29 10 29H5C4.71667 29 4.47922 28.9035 4.28767 28.7107C4.09589 28.518 4 28.2791 4 27.994C4 27.7091 4.09589 27.4722 4.28767 27.2833C4.47922 27.0945 4.71667 27 5 27H9Z" fill="#FAFAFA"/>
</svg>
