<svg width="32" height="32" viewBox="0 0 32 32" fill="none" xmlns="http://www.w3.org/2000/svg">
<path d="M19.2429 2.85946C19.6024 2.44075 20.234 2.39215 20.6531 2.75138C21.0718 3.11074 21.12 3.74236 20.7611 4.16154L13.7286 12.3647L22.3184 15.2279C22.647 15.3376 22.8951 15.6109 22.9747 15.948C23.0541 16.285 22.9537 16.6392 22.7091 16.8842L13.8367 25.7553L14.9825 27.004C15.7026 27.7895 15.2557 29.0605 14.2026 29.2227L9.77938 29.9037C8.89491 30.0398 8.12939 29.2831 8.25594 28.3972L8.93693 23.6342C9.09608 22.5201 10.4783 22.0916 11.239 22.9207L12.4851 24.2787L20.1505 16.6147L11.6856 13.7931C11.3698 13.6878 11.1274 13.4316 11.0385 13.1108C10.9497 12.7899 11.0263 12.4456 11.2429 12.1928L19.2429 2.85946Z" fill="#FAFAFA"/>
</svg>
