<svg width="32" height="32" viewBox="0 0 32 32" fill="none" xmlns="http://www.w3.org/2000/svg">
<path d="M16.1589 9.10125C16.1989 9.1067 16.2347 9.11427 16.2605 9.11948C16.313 9.13011 16.3676 9.14316 16.4128 9.15464L16.668 9.22495L16.7136 9.23927C16.9157 9.30938 17.2383 9.44297 17.448 9.53615C17.8682 9.72291 18.3718 9.98965 18.7748 10.3005L18.7761 10.2992C19.3292 10.6753 19.831 11.1542 20.28 11.7067C22.1544 14.0137 23.2579 17.7965 23.2579 21.9098C23.2577 22.4618 22.8098 22.9096 22.2579 22.9098H9.74093C9.18876 22.9098 8.74112 22.462 8.74093 21.9098C8.74093 17.7964 9.84423 14.0136 11.7188 11.7067C12.1116 11.2233 12.5443 10.7961 13.017 10.445L13.2227 10.2992C13.6256 9.98843 14.1294 9.72288 14.5495 9.53615C14.7593 9.44291 15.0829 9.3094 15.2852 9.23927L15.3308 9.22495C15.3939 9.20639 15.4919 9.17819 15.5847 9.15464C15.6299 9.14316 15.6844 9.13014 15.737 9.11948C15.7628 9.11426 15.7997 9.10672 15.8399 9.10125C15.8551 9.09917 15.9168 9.0945 15.9987 9.09474C16.0818 9.09444 16.1443 9.09927 16.1589 9.10125ZM15.9805 11.1195C15.9602 11.1251 15.9403 11.1289 15.9232 11.1338C15.7937 11.18 15.5445 11.2832 15.362 11.3643C14.9842 11.5322 14.6279 11.731 14.4128 11.9046C14.3916 11.9217 14.3689 11.9375 14.3464 11.9528C13.9792 12.2026 13.6175 12.5407 13.2709 12.9671C11.9114 14.6402 10.9312 17.5136 10.7683 20.9098H21.2305C21.0676 17.5136 20.0874 14.6402 18.7279 12.9671C18.3812 12.5404 18.0185 12.2027 17.6511 11.9528C17.6288 11.9376 17.607 11.9216 17.586 11.9046C17.3709 11.731 17.0134 11.5322 16.6355 11.3643C16.4527 11.2831 16.2035 11.1799 16.0743 11.1338C16.0575 11.129 16.0382 11.125 16.0183 11.1195C16.0119 11.1177 16.0051 11.116 15.9987 11.1143C15.9927 11.1159 15.9866 11.1178 15.9805 11.1195ZM15.9402 11.0869C15.9635 11.0883 15.9833 11.0896 15.9987 11.0895C16.0138 11.0896 16.0332 11.0882 16.056 11.0869H15.9402ZM16.1277 11.0804H16.1303C16.1332 11.0799 16.1342 11.0791 16.1342 11.0791C16.1342 11.0791 16.1308 11.0797 16.1277 11.0804Z" fill="#FAFAFA"/>
<path d="M16.0398 13.3924C16.0684 13.393 16.0896 13.3915 16.101 13.3924C16.2081 13.4009 16.2996 13.4239 16.3419 13.4353C16.446 13.4634 16.5584 13.504 16.6609 13.546C16.8348 13.6173 17.0901 13.7415 17.3132 13.9067L17.3145 13.9054C17.327 13.9139 17.3374 13.9253 17.3497 13.934C17.3591 13.9413 17.3704 13.9461 17.3796 13.9536L17.3783 13.9549C17.9826 14.3926 18.4086 15.0714 18.6817 15.7934C18.9709 16.558 19.127 17.4572 19.127 18.3976C19.127 18.9498 18.6792 19.3974 18.127 19.3976H13.8718C13.3195 19.3976 12.8718 18.9499 12.8718 18.3976C12.8718 17.4572 13.028 16.558 13.3171 15.7934C13.59 15.0721 14.0145 14.3927 14.6179 13.9549C14.6328 13.9428 14.6495 13.9313 14.6648 13.9197C14.6714 13.9151 14.6776 13.9099 14.6843 13.9054C14.9076 13.74 15.1638 13.6174 15.338 13.546C15.4404 13.504 15.5529 13.4634 15.657 13.4353C15.6994 13.4239 15.791 13.4009 15.8979 13.3924C15.909 13.3915 15.9292 13.3931 15.9565 13.3924C15.9712 13.3915 15.9851 13.3913 15.9981 13.3911C16.0111 13.3913 16.025 13.3916 16.0398 13.3924ZM15.9447 15.4679C15.8937 15.4954 15.8744 15.5096 15.8744 15.5096C15.8532 15.5267 15.8318 15.5437 15.8093 15.559C15.6308 15.6804 15.388 15.9735 15.1882 16.5017C15.0885 16.7654 15.0087 17.0673 14.9538 17.3976H17.045C16.9901 17.0673 16.9103 16.7654 16.8106 16.5017C16.6108 15.9735 16.368 15.6804 16.1895 15.559C16.167 15.5437 16.1456 15.5267 16.1244 15.5096C16.1244 15.5096 16.1038 15.4947 16.0541 15.4679C16.0367 15.4585 16.0169 15.4509 15.9981 15.4418C15.98 15.4507 15.9616 15.4588 15.9447 15.4679ZM15.7325 15.3546H15.7351C15.7324 15.3539 15.7299 15.3528 15.7273 15.352L15.7325 15.3546Z" fill="#FAFAFA"/>
<path d="M2.90765 9.94545C3.27136 9.52998 3.90354 9.48807 4.31911 9.8517L6.3738 11.6499C6.59071 11.8397 6.71612 12.1143 6.71625 12.4025C6.71625 12.6908 6.59081 12.9652 6.3738 13.1551L5.17849 14.2007L6.3738 15.2475C6.59081 15.4374 6.71625 15.7118 6.71625 16.0001C6.71625 16.2885 6.59081 16.5629 6.3738 16.7527L5.17849 17.7983L6.3738 18.8452C6.59081 19.0351 6.71625 19.3094 6.71625 19.5978C6.71612 19.886 6.5907 20.1606 6.3738 20.3504L4.31911 22.1486C3.90354 22.5122 3.27136 22.4703 2.90765 22.0548C2.54402 21.6392 2.58594 21.0071 3.0014 20.6434L4.19672 19.5965L3.0014 18.5509C2.78463 18.361 2.66026 18.0865 2.66026 17.7983C2.66038 17.5101 2.7845 17.2355 3.0014 17.0457L4.19672 16.0001L3.0014 14.9546C2.7845 14.7648 2.66038 14.4902 2.66026 14.202C2.66026 13.9138 2.78463 13.6392 3.0014 13.4494L4.19672 12.4025L3.0014 11.3569C2.58594 10.9932 2.54402 10.361 2.90765 9.94545Z" fill="#FAFAFA"/>
<path d="M27.6724 9.85172C28.0881 9.4881 28.7202 9.52986 29.0839 9.94547C29.4475 10.3611 29.4045 10.9933 28.9888 11.3569L27.7935 12.4025L28.9888 13.4494C29.2059 13.6393 29.3313 13.9136 29.3313 14.202C29.3312 14.4902 29.2057 14.7648 28.9888 14.9546L27.7935 16.0002L28.9888 17.0457C29.2057 17.2355 29.3312 17.5101 29.3313 17.7983C29.3313 18.0867 29.2059 18.3611 28.9888 18.5509L27.7935 19.5965L28.9888 20.6434C29.4045 21.0071 29.4475 21.6392 29.0839 22.0548C28.7202 22.4705 28.0881 22.5122 27.6724 22.1486L25.6164 20.3504C25.3995 20.1606 25.2754 19.886 25.2753 19.5978C25.2753 19.3096 25.3997 19.0351 25.6164 18.8452L26.8118 17.7983L25.6164 16.7528C25.3995 16.5629 25.2753 16.2884 25.2753 16.0002C25.2753 15.7119 25.3995 15.4374 25.6164 15.2476L26.8118 14.2007L25.6164 13.1551C25.3997 12.9652 25.2753 12.6907 25.2753 12.4025C25.2754 12.1143 25.3995 11.8397 25.6164 11.6499L27.6724 9.85172Z" fill="#FAFAFA"/>
</svg>
