<svg width="32" height="32" viewBox="0 0 32 32" fill="none" xmlns="http://www.w3.org/2000/svg">
<path d="M16.5332 4.14449C18.1147 3.54045 19.8372 3.40593 21.4928 3.75908C23.1486 4.11238 24.668 4.93708 25.8652 6.13408L25.9902 6.28772C26.0986 6.4506 26.1582 6.64389 26.1582 6.84241C26.158 7.04098 26.0988 7.23428 25.9902 7.3971L25.8639 7.54944L22.1569 11.2552C23.1144 11.5391 24.022 11.9845 24.8366 12.5794C26.2038 13.5779 27.2519 14.9523 27.8561 16.5338C28.4601 18.1152 28.5946 19.8379 28.2415 21.4935C27.8882 23.149 27.0634 24.6687 25.8665 25.8658C25.6791 26.0532 25.4233 26.1588 25.1582 26.1588C24.8936 26.1587 24.6398 26.0528 24.4525 25.8658L20.7454 22.1588C20.4615 23.1157 20.0157 24.0231 19.4212 24.8372C18.4227 26.2043 17.0482 27.2526 15.4668 27.8567C13.8854 28.4608 12.1628 28.5953 10.5072 28.2422C8.8515 27.8889 7.33204 27.064 6.13477 25.8672C5.94757 25.6799 5.8421 25.4249 5.8418 25.1601C5.84179 24.8952 5.9477 24.6406 6.13477 24.4531L7.63347 22.9518C7.7995 23.0233 8.01015 23.1212 8.28842 23.2604C8.61045 23.4214 9.04221 23.6396 9.56967 23.8437L8.30925 25.1041C9.08379 25.6775 9.97386 26.0837 10.9238 26.2864C12.202 26.5591 13.5324 26.4558 14.7533 25.9895C15.9739 25.5232 17.0332 24.7126 17.804 23.6575C18.0204 23.3612 18.2086 23.0472 18.3731 22.7226C19.1235 22.1694 19.5854 21.2908 19.5944 20.3372L19.5892 20.1237C19.5727 19.8567 19.5196 19.5965 19.4356 19.3489C19.524 19.2707 19.626 19.2064 19.7402 19.1627C20.1085 19.0223 20.5253 19.1119 20.804 19.3906L25.1048 23.6914C25.6778 22.9172 26.0831 22.0262 26.2858 21.0768C26.5585 19.7987 26.4552 18.4682 25.9889 17.2474C25.5226 16.0266 24.7121 14.9674 23.6569 14.1966C22.6013 13.4256 21.3448 12.9764 20.0397 12.9036C19.8163 12.8911 19.6107 12.8015 19.4473 12.6614C19.5402 12.3764 19.5915 12.0751 19.5944 11.7656L19.5892 11.552C19.579 11.3871 19.554 11.2248 19.5176 11.0664L23.6908 6.89449C22.9165 6.32153 22.0257 5.91743 21.0762 5.71481C19.7979 5.44206 18.4678 5.54532 17.2468 6.01168C16.2959 6.37495 15.4444 6.94849 14.7494 7.68225C13.5462 7.56261 12.3397 8.18135 11.7676 9.32548C11.7173 9.42634 11.6728 9.53072 11.6348 9.63408C11.5548 9.59972 11.4648 9.55855 11.3613 9.51038C11.6453 8.67576 12.0536 7.88331 12.5788 7.16403C13.5773 5.79693 14.9518 4.74872 16.5332 4.14449Z" fill="#FAFAFA"/>
<path d="M13.5566 18.7916C13.8036 18.2977 14.4051 18.0968 14.8991 18.3437L17.0423 19.4153C17.3837 19.5863 17.5978 19.9372 17.5944 20.319C17.5907 20.7007 17.3698 21.0476 17.0254 21.2122C15.5624 21.9111 13.9732 22.3084 12.3535 22.3802C12.339 22.3808 12.3237 22.3815 12.3093 22.3815C11.8965 22.3814 11.517 22.3269 11.1647 22.2474L11.1634 22.25C11.1423 22.2452 11.1217 22.2387 11.1009 22.233C10.3422 22.0521 9.71506 21.7374 9.18295 21.4713C8.37632 21.068 7.77174 20.7794 6.97722 20.7734C5.63196 20.8355 4.31227 21.1667 3.09701 21.7474C2.59885 21.9851 2.00177 21.774 1.76368 21.276C1.52596 20.7779 1.73715 20.1808 2.23503 19.9427C3.69799 19.2437 5.28715 18.8465 6.90691 18.7747L6.95118 18.7734C8.28668 18.7734 9.28581 19.2877 10.0775 19.6836C10.8836 20.0866 11.4882 20.3737 12.2819 20.3802C12.8708 20.3531 13.4543 20.2717 14.0267 20.1432L14.0046 20.1328C13.511 19.886 13.3106 19.2854 13.5566 18.7916Z" fill="#FAFAFA"/>
<path d="M13.5566 14.5052C13.8037 14.0116 14.4053 13.8107 14.8991 14.0573L17.0423 15.1289C17.3835 15.2997 17.5976 15.6509 17.5944 16.0325C17.5909 16.4144 17.37 16.7611 17.0254 16.9257C16.3959 17.2265 15.7421 17.4678 15.0736 17.6549C15.0297 17.6679 14.9862 17.6821 14.9421 17.694L14.9395 17.6927C14.0964 17.9182 13.2297 18.0549 12.3535 18.0937C12.339 18.0944 12.3238 18.095 12.3093 18.095C10.9739 18.0949 9.97457 17.5807 9.18295 17.1849C8.37652 16.7817 7.77161 16.493 6.97722 16.4869C5.63195 16.5491 4.31228 16.8803 3.09701 17.4609C2.59869 17.699 2.00176 17.4879 1.76368 16.9895C1.52635 16.4914 1.73705 15.8942 2.23503 15.6562C3.69801 14.9573 5.28714 14.5601 6.90691 14.4882L6.95118 14.4869C8.28645 14.4869 9.28587 15.0013 10.0775 15.3971C10.8836 15.8002 11.4882 16.0873 12.2819 16.0937C12.8709 16.0666 13.4542 15.9853 14.0267 15.8567L14.0046 15.8463C13.5112 15.5993 13.3103 14.9989 13.5566 14.5052Z" fill="#FAFAFA"/>
<path d="M13.5566 10.22C13.8036 9.72612 14.4052 9.5253 14.8991 9.7721L17.0423 10.8437C17.3837 11.0147 17.5978 11.3656 17.5944 11.7474C17.5908 12.1292 17.37 12.476 17.0254 12.6406C15.5624 13.3395 13.9733 13.7368 12.3535 13.8086C12.339 13.8092 12.3237 13.8099 12.3093 13.8099C10.9739 13.8098 9.97457 13.2955 9.18295 12.8997C8.3764 12.4964 7.77169 12.2078 6.97722 12.2018C5.63196 12.2639 4.31227 12.5951 3.09701 13.1757C2.59874 13.4136 2.00172 13.2026 1.76368 12.7044C1.526 12.2062 1.73706 11.6092 2.23503 11.3711C3.698 10.6721 5.28715 10.2749 6.90691 10.2031L6.95118 10.2018C8.28659 10.2018 9.28584 10.7161 10.0775 11.1119C10.8836 11.515 11.4882 11.8021 12.2819 11.8086C12.8708 11.7815 13.4543 11.7001 14.0267 11.5716L14.0046 11.5612C13.511 11.3142 13.3104 10.7137 13.5566 10.22Z" fill="#FAFAFA"/>
<path d="M6.8405 5.84241C7.10573 5.8424 7.35999 5.94914 7.54753 6.13668L10.5059 9.09502C9.69552 8.70369 8.485 8.20179 6.95118 8.20179L6.89259 8.20309L6.84831 8.20439C6.83846 8.20468 6.82821 8.20526 6.81837 8.20569C6.01701 8.24123 5.22202 8.3444 4.44207 8.51429C4.86696 7.63692 5.43756 6.83154 6.13347 6.13538L6.28712 6.01038C6.44984 5.90209 6.64216 5.84256 6.8405 5.84241Z" fill="#FAFAFA"/>
</svg>
