<svg width="32" height="32" viewBox="0 0 32 32" fill="none" xmlns="http://www.w3.org/2000/svg">
<path d="M16.7962 8.25407C16.7962 8.04283 16.7125 7.83964 16.5632 7.69027C16.4139 7.54115 16.2116 7.45729 16.0007 7.45719C15.7894 7.45719 15.5862 7.54089 15.4368 7.69027C15.2875 7.83964 15.2038 8.04283 15.2038 8.25407C15.2039 8.46505 15.2877 8.66731 15.4368 8.81657C15.5862 8.96594 15.7894 9.04964 16.0007 9.04964C16.2118 9.04954 16.4139 8.96585 16.5632 8.81657C16.7124 8.66729 16.7961 8.46517 16.7962 8.25407ZM18.7962 8.25407C18.7961 8.99561 18.5016 9.70628 17.9772 10.2306C17.4529 10.755 16.7422 11.0495 16.0007 11.0496C15.259 11.0496 14.5472 10.7551 14.0228 10.2306C13.4986 9.7063 13.2039 8.99548 13.2038 8.25407C13.2038 7.51239 13.4983 6.80065 14.0228 6.2762C14.5472 5.75176 15.259 5.45719 16.0007 5.45719C16.7421 5.45729 17.4529 5.75202 17.9772 6.2762C18.5017 6.80065 18.7962 7.51239 18.7962 8.25407Z" fill="#FAFAFA"/>
<path d="M16.0013 1.86377C17.9295 1.86383 19.358 2.69606 20.5703 3.81169C21.1665 4.36035 21.7226 4.98919 22.2643 5.62679C22.819 6.27965 23.3452 6.92562 23.9349 7.58903L24.5247 8.25309L23.9349 8.91715C23.3452 9.58056 22.819 10.2265 22.2643 10.8794C21.7226 11.517 21.1665 12.1458 20.5703 12.6945C19.358 13.8101 17.9295 14.6424 16.0013 14.6424C14.073 14.6424 12.6446 13.8101 11.4323 12.6945C10.836 12.1458 10.2787 11.5171 9.73698 10.8794C9.18244 10.2267 8.65728 9.58043 8.06771 8.91715L7.47656 8.25309L8.06771 7.58903C8.65734 6.92569 9.18238 6.27957 9.73698 5.62679C10.2787 4.98912 10.836 4.3604 11.4323 3.81169C12.6446 2.69613 14.0731 1.86377 16.0013 1.86377ZM16.0013 3.86377C14.7377 3.86377 13.7703 4.37897 12.7865 5.28434C12.2847 5.7461 11.793 6.29699 11.2617 6.92236C10.91 7.33632 10.5297 7.78915 10.1341 8.25309C10.5299 8.71722 10.9099 9.17102 11.2617 9.58512C11.7931 10.2105 12.2847 10.7614 12.7865 11.2231C13.7702 12.1284 14.7378 12.6424 16.0013 12.6424C17.2648 12.6424 18.2324 12.1285 19.2161 11.2231C19.7179 10.7614 20.2095 10.2106 20.7409 9.58512C21.0926 9.17115 21.4715 8.71707 21.8672 8.25309C21.4718 7.78937 21.0924 7.33614 20.7409 6.92236C20.2096 6.29709 19.7178 5.74605 19.2161 5.28434C18.2324 4.37902 17.2648 3.86383 16.0013 3.86377Z" fill="#FAFAFA"/>
<path d="M14.6673 23.7437C14.6676 23.0075 15.2645 22.4103 16.0007 22.4103C16.7368 22.4103 17.3337 23.0075 17.334 23.7437V23.7567C17.334 24.4931 16.737 25.09 16.0007 25.09C15.2643 25.09 14.6673 24.4931 14.6673 23.7567V23.7437Z" fill="#FAFAFA"/>
<path d="M20.4466 20.111C20.4469 19.3749 21.0438 18.7777 21.7799 18.7777C22.5161 18.7777 23.113 19.3749 23.1133 20.111V20.1241C23.1133 20.8604 22.5163 21.4574 21.7799 21.4574C21.0436 21.4574 20.4466 20.8604 20.4466 20.1241V20.111Z" fill="#FAFAFA"/>
<path d="M8.88802 20.111C8.88832 19.3749 9.48516 18.7777 10.2214 18.7777C10.9576 18.7777 11.5544 19.3749 11.5547 20.111V20.1241C11.5547 20.8604 10.9577 21.4574 10.2214 21.4574C9.48497 21.4574 8.88802 20.8604 8.88802 20.1241V20.111Z" fill="#FAFAFA"/>
<path d="M3.10742 16.4779C3.10772 15.7418 3.70456 15.1445 4.44076 15.1445C5.17695 15.1445 5.77379 15.7418 5.77409 16.4779V16.4909C5.77409 17.2273 5.17713 17.8242 4.44076 17.8242C3.70438 17.8242 3.10742 17.2273 3.10742 16.4909L3.10742 16.4779Z" fill="#FAFAFA"/>
<path d="M14.6673 17.8298C14.6676 17.0937 15.2645 16.4965 16.0007 16.4965C16.7368 16.4965 17.3337 17.0937 17.334 17.8298V17.8428C17.334 18.5792 16.737 19.1762 16.0007 19.1762C15.2643 19.1762 14.6673 18.5792 14.6673 17.8428V17.8298Z" fill="#FAFAFA"/>
<path d="M26.2272 16.4779C26.2275 15.7418 26.8244 15.1445 27.5605 15.1445C28.2967 15.1445 28.8936 15.7418 28.8939 16.4779V16.4909C28.8939 17.2273 28.2969 17.8242 27.5605 17.8242C26.8242 17.8242 26.2272 17.2273 26.2272 16.4909V16.4779Z" fill="#FAFAFA"/>
<path d="M20.334 27.1359C20.8863 27.1359 21.334 27.5836 21.334 28.1359C21.334 28.6882 20.8863 29.1359 20.334 29.1359H11.6673C11.115 29.1359 10.6673 28.6882 10.6673 28.1359C10.6673 27.5836 11.115 27.1359 11.6673 27.1359H20.334Z" fill="#FAFAFA"/>
</svg>
