<svg width="32" height="32" viewBox="0 0 32 32" fill="none" xmlns="http://www.w3.org/2000/svg">
<path d="M9.99941 9.33358C10.5517 9.33358 10.9994 9.7813 10.9994 10.3336C10.9994 10.8858 10.5517 11.3336 9.99941 11.3336H5.33274C4.96468 11.3337 4.66607 11.6322 4.66607 12.0002V25.3336C4.66629 25.7015 4.96481 26.0001 5.33274 26.0002H26.6661C27.0341 26.0002 27.3325 25.7016 27.3327 25.3336V12.0002C27.3327 11.6321 27.0343 11.3336 26.6661 11.3336H21.9994C21.4472 11.3335 20.9994 10.8858 20.9994 10.3336C20.9994 9.78134 21.4472 9.33364 21.9994 9.33358H26.6661L26.9382 9.34791C28.2831 9.48426 29.3327 10.6194 29.3327 12.0002V12.9364C30.0536 12.9478 30.6372 13.5318 30.6439 14.2568L30.6882 23.0276C30.6947 23.7638 30.1028 24.3659 29.3666 24.3726C29.3553 24.3727 29.3439 24.3715 29.3327 24.3713V25.3336C29.3325 26.7143 28.283 27.8496 26.9382 27.9859L26.6661 28.0002H5.33274C3.95213 28.0001 2.81691 26.9503 2.6804 25.6057L2.66607 25.3336V24.3713C1.94564 24.3597 1.3619 23.7769 1.35487 23.0523L1.3106 14.2815C1.3039 13.5453 1.89603 12.9433 2.63222 12.9364C2.64342 12.9363 2.65493 12.9363 2.66607 12.9364V12.0002C2.66607 10.5276 3.86011 9.33374 5.33274 9.33358H9.99941Z" fill="#FAFAFA"/>
<path d="M23.5346 21.5497C24.0868 21.5497 24.5346 21.9974 24.5346 22.5497C24.5342 23.1017 24.0866 23.5497 23.5346 23.5497H8.46295C7.91103 23.5496 7.46334 23.1016 7.46295 22.5497C7.46295 21.9975 7.91079 21.5499 8.46295 21.5497H23.5346Z" fill="#FAFAFA"/>
<path d="M23.5346 17.6669C24.0868 17.6669 24.5346 18.1146 24.5346 18.6669C24.5343 19.219 24.0867 19.6669 23.5346 19.6669H8.46295C7.91093 19.6668 7.46316 19.2189 7.46295 18.6669C7.46295 18.1147 7.91079 17.6671 8.46295 17.6669H23.5346Z" fill="#FAFAFA"/>
<path d="M23.5346 13.7841C24.0868 13.7841 24.5346 14.2318 24.5346 14.7841C24.5345 15.3364 24.0868 15.7841 23.5346 15.7841H8.46295C7.91082 15.784 7.46299 15.3363 7.46295 14.7841C7.46295 14.2319 7.91079 13.7843 8.46295 13.7841H23.5346Z" fill="#FAFAFA"/>
<path d="M19.959 1.95989C20.3496 1.56936 20.9826 1.56936 21.3731 1.95989L23.3731 3.95989C23.7636 4.35041 23.7636 4.98343 23.3731 5.37395L21.3731 7.37395C20.9826 7.7644 20.3495 7.76444 19.959 7.37395C19.5685 6.98345 19.5686 6.35042 19.959 5.95989L20.252 5.66692H18.6661C17.7456 5.66695 16.9994 6.41313 16.9994 7.33358V8.91952L17.2924 8.62655C17.6829 8.23603 18.3159 8.23603 18.7064 8.62655C19.097 9.01708 19.097 9.65009 18.7064 10.0406L16.7064 12.0406C16.6416 12.1054 16.5675 12.1549 16.4916 12.1982C16.4554 12.2188 16.4198 12.2407 16.3809 12.2568C16.3382 12.2744 16.2938 12.2857 16.2494 12.2971C16.2319 12.3017 16.2152 12.3092 16.1973 12.3127C16.19 12.3142 16.1826 12.3153 16.1752 12.3167C16.1181 12.3268 16.0594 12.3336 15.9994 12.3336C15.9393 12.3336 15.8808 12.3268 15.8236 12.3167C15.8158 12.3153 15.808 12.3143 15.8002 12.3127C15.7823 12.3091 15.7656 12.3017 15.7481 12.2971C15.7038 12.2856 15.6593 12.2745 15.6166 12.2568C15.5495 12.2289 15.4866 12.1937 15.4278 12.1526C15.3805 12.1195 15.3346 12.0829 15.2924 12.0406L13.2924 10.0406C12.9019 9.65011 12.9019 9.01708 13.2924 8.62655C13.6829 8.23603 14.3159 8.23603 14.7064 8.62655L14.9994 8.91952V7.33358C14.9994 6.41311 14.2532 5.66692 13.3327 5.66692H11.7468L12.0398 5.95989C12.4303 6.35041 12.4303 6.98343 12.0398 7.37395C11.6492 7.7644 11.0162 7.76444 10.6257 7.37395L8.62571 5.37395C8.23521 4.98345 8.23525 4.35042 8.62571 3.95989L10.6257 1.95989C11.0162 1.56936 11.6492 1.56936 12.0398 1.95989C12.4303 2.35041 12.4303 2.98343 12.0398 3.37395L11.7468 3.66692H13.3327C14.3847 3.66692 15.3308 4.11223 15.9994 4.82186C16.668 4.11221 17.6141 3.66693 18.6661 3.66692H20.252L19.959 3.37395C19.5685 2.98345 19.5686 2.35041 19.959 1.95989Z" fill="#FAFAFA"/>
</svg>
