<svg width="32" height="32" viewBox="0 0 32 32" fill="none" xmlns="http://www.w3.org/2000/svg">
<path fill-rule="evenodd" clip-rule="evenodd" d="M16.2413 2.67521C17.4774 2.73642 18.6509 3.254 19.5301 4.13354C20.4677 5.0715 20.9949 6.34358 20.995 7.67C20.995 8.99639 20.4676 10.2685 19.5301 11.2065C19.3981 11.3385 19.2583 11.4621 19.1138 11.5776C19.5245 11.8361 19.9072 12.1456 20.2509 12.5033C21.3712 13.6698 21.994 15.244 21.9941 16.877V20.0007C21.9941 20.553 21.547 21.0004 20.995 21.0007H19.8827L18.9876 28.4486C18.9273 28.9512 18.5009 29.3312 17.995 29.3315H13.9946C13.4884 29.3315 13.061 28.9514 13.0006 28.4486L12.1069 21.0007H10.9946C10.4423 21.0007 9.99418 20.5532 9.99414 20.0007V16.877C9.99431 15.2441 10.6172 13.6698 11.7374 12.5033C12.0809 12.1458 12.4627 11.8347 12.8732 11.5763C12.7293 11.4612 12.591 11.338 12.4594 11.2065C11.5218 10.2684 10.9946 8.99658 10.9946 7.67C10.9947 6.34352 11.5218 5.07152 12.4594 4.13354C13.3971 3.19573 14.6682 2.66877 15.9941 2.6687L16.2413 2.67521ZM15.9941 12.6726C14.9465 12.6727 13.9336 13.1056 13.1802 13.8901C12.4255 14.6758 11.9939 15.7494 11.9937 16.877V19.0007H12.9941C13.5003 19.0007 13.9277 19.3795 13.9881 19.8822L14.8818 27.3302H17.1065L18.0015 19.8822L18.0418 19.6999C18.1708 19.2908 18.5514 19.0009 18.9941 19.0007H19.9946V16.877C19.9944 15.7493 19.5628 14.6758 18.8081 13.8901C18.0546 13.1057 17.0417 12.6726 15.9941 12.6726ZM15.9941 4.6687C15.1986 4.66877 14.4362 4.98614 13.8736 5.54891C13.3111 6.11165 12.9942 6.8742 12.9941 7.67C12.9941 8.46596 13.311 9.22957 13.8736 9.7924C14.4361 10.355 15.1987 10.6712 15.9941 10.6713C16.7898 10.6713 17.5534 10.3552 18.116 9.7924C18.6785 9.22959 18.9941 8.46589 18.9941 7.67C18.9941 6.87439 18.6782 6.11161 18.116 5.54891C17.6238 5.05651 16.9774 4.7513 16.2908 4.68302L15.9941 4.6687Z" fill="#FAFAFA"/>
</svg>
