<svg width="32" height="32" viewBox="0 0 32 32" fill="none" xmlns="http://www.w3.org/2000/svg">
<path fill-rule="evenodd" clip-rule="evenodd" d="M24.0716 4.76392C26.241 4.76427 28.0011 6.52289 28.0013 8.6923C28.0013 10.5192 26.7519 12.0505 25.0625 12.4905C25.0647 12.5176 25.0677 12.5449 25.0677 12.5725C25.0677 17.5864 23.0861 21.0094 20.4076 23.1571C17.7666 25.2744 14.5103 26.1049 11.9674 26.1051H11.2852C10.5959 27.2396 9.35252 28.0009 7.92839 28.0009C5.75897 28.0007 4.00035 26.2406 4 24.0712C4.00019 22.2457 5.24627 20.714 6.93359 20.273V6.34465C6.93359 5.79236 7.38131 5.34465 7.93359 5.34465C8.48588 5.34465 8.93359 5.79236 8.93359 6.34465V20.2756C10.6161 20.72 11.8579 22.2493 11.8581 24.0712C11.8581 24.0825 11.8569 24.0938 11.8568 24.1051H11.9674C14.1298 24.1049 16.9243 23.3865 19.1562 21.5972C21.3504 19.8379 23.0677 16.9938 23.0677 12.5725C23.0677 12.544 23.068 12.5158 23.0703 12.4879C21.386 12.0446 20.1432 10.5157 20.1432 8.6923C20.1435 6.52281 21.9021 4.76414 24.0716 4.76392ZM7.8763 22.1441C6.83547 22.172 6.00022 23.0237 6 24.0712C6.00035 25.136 6.86354 26.0007 7.92839 26.0009C8.99343 26.0009 9.85772 25.1362 9.85807 24.0712C9.85785 23.0253 9.02429 22.1758 7.98568 22.1454C7.96836 22.1463 7.95113 22.1506 7.93359 22.1506C7.91427 22.1506 7.89535 22.1452 7.8763 22.1441ZM24.0716 6.76392C23.0067 6.76414 22.1435 7.62738 22.1432 8.6923C22.1432 9.75742 23.0066 10.6218 24.0716 10.622C25.1366 10.6216 26.0013 9.75734 26.0013 8.6923C26.0011 7.62745 25.1364 6.76427 24.0716 6.76392Z" fill="#FAFAFA"/>
</svg>
