<svg width="32" height="32" viewBox="0 0 32 32" fill="none" xmlns="http://www.w3.org/2000/svg">
<path fill-rule="evenodd" clip-rule="evenodd" d="M10.7035 14.0949C11.4398 14.0949 12.0367 14.6919 12.0368 15.4282V21.7147H16.5186L16.654 21.7212C17.3263 21.7895 17.8519 22.3577 17.8519 23.048V27.9998L17.8441 28.1366C17.7802 28.7639 17.2813 29.2629 16.654 29.3267L16.5186 29.3332H11.5928L11.4561 29.3267C10.7841 29.2582 10.2597 28.6898 10.2594 27.9998V23.5767H4.00033C3.26395 23.5767 2.66699 22.9797 2.66699 22.2433V15.4282C2.66708 14.6919 3.264 14.0949 4.00033 14.0949H10.7035ZM12.2594 27.3332H15.8519V23.7147H12.2594V27.3332ZM4.66699 21.5767H10.0368V16.0949H4.66699V21.5767Z" fill="#FAFAFA"/>
<path fill-rule="evenodd" clip-rule="evenodd" d="M28.137 21.7212C28.8093 21.7895 29.335 22.3577 29.335 23.048V27.9998L29.3271 28.1366C29.2633 28.7639 28.7644 29.2629 28.137 29.3267L28.0016 29.3332H23.0758L22.9391 29.3267C22.2672 29.2582 21.7428 28.6898 21.7425 27.9998V23.048C21.7425 22.3578 22.267 21.7896 22.9391 21.7212L23.0758 21.7147H28.0016L28.137 21.7212ZM23.7425 27.3332H27.335V23.7147H23.7425V27.3332Z" fill="#FAFAFA"/>
<path d="M21.6084 17.9048C21.6817 17.905 21.741 17.9643 21.7412 18.0376V19.7707C21.7412 19.8442 21.6818 19.9045 21.6084 19.9048H19.8818C19.8082 19.9048 19.749 19.8443 19.749 19.7707V18.0376C19.7492 17.9641 19.8083 17.9048 19.8818 17.9048H21.6084Z" fill="#FAFAFA"/>
<path d="M29.2008 15.9998C29.2741 16.0001 29.3334 16.0594 29.3337 16.1326V17.867C29.3334 17.9403 29.2741 17.9996 29.2008 17.9998H27.4743C27.4008 17.9998 27.3418 17.9404 27.3415 17.867V16.1326C27.3418 16.0593 27.4008 15.9998 27.4743 15.9998H29.2008Z" fill="#FAFAFA"/>
<path fill-rule="evenodd" clip-rule="evenodd" d="M28.0003 2.68734C28.7364 2.68769 29.3337 3.28451 29.3337 4.02067V10.8358C29.3336 11.5719 28.7364 12.1688 28.0003 12.1691H21.6006V14.578L21.5928 14.7134C21.5292 15.341 21.0302 15.8396 20.4027 15.9035L20.2673 15.9113H17.2868L17.1501 15.9035C16.5226 15.8396 16.0235 15.3409 15.96 14.7134L15.9535 14.578V11.5298C15.9537 10.8397 16.478 10.2714 17.1501 10.203L17.2868 10.1965H19.9639V4.02067C19.9639 3.28429 20.5608 2.68734 21.2972 2.68734H28.0003ZM17.9535 13.9113H19.6006V12.1965H17.9535V13.9113ZM21.9639 10.1691H27.3337V4.68734H21.9639V10.1691Z" fill="#FAFAFA"/>
<path fill-rule="evenodd" clip-rule="evenodd" d="M9.06152 2.67301C9.73414 2.74103 10.2594 3.30929 10.2594 3.99984V8.95166L10.2516 9.08838C10.1879 9.71612 9.68932 10.215 9.06152 10.2785L8.92611 10.285H4.00033L3.86361 10.2785C3.19146 10.21 2.66699 9.64188 2.66699 8.95166V3.99984C2.66699 3.3096 3.19143 2.74146 3.86361 2.67301L4.00033 2.6665H8.92611L9.06152 2.67301ZM4.66699 8.28499H8.25944V4.6665H4.66699V8.28499Z" fill="#FAFAFA"/>
<path d="M15.9144 6.4764C15.988 6.4764 16.0484 6.53563 16.0485 6.60921V8.34228C16.0485 8.41592 15.988 8.4764 15.9144 8.4764H14.1878C14.1144 8.47612 14.055 8.41575 14.055 8.34228V6.60921C14.0551 6.5358 14.1145 6.47668 14.1878 6.4764H15.9144Z" fill="#FAFAFA"/>
</svg>
