<svg width="32" height="32" viewBox="0 0 32 32" fill="none" xmlns="http://www.w3.org/2000/svg">
<path d="M27.2365 2.66643C27.4118 2.66643 27.6034 2.66604 27.7678 2.67945C27.8999 2.69025 28.063 2.71272 28.2365 2.77451L28.4123 2.85003L28.5282 2.91513C28.7548 3.05403 28.9453 3.24451 29.0842 3.47112L29.1493 3.58701L29.2248 3.76279C29.2866 3.93631 29.309 4.09944 29.3198 4.23154C29.3332 4.39591 29.3329 4.5875 29.3329 4.76279V20.5727C29.3329 20.8603 29.3397 21.1676 29.2678 21.4672C29.2097 21.709 29.1138 21.9401 28.9839 22.1521C28.823 22.4147 28.6013 22.6272 28.398 22.8305L22.8303 28.3982C22.6269 28.6015 22.4145 28.8232 22.1519 28.9841C21.9399 29.114 21.7087 29.2099 21.467 29.268C21.1674 29.3399 20.86 29.3331 20.5724 29.3331H4.76254C4.58726 29.3331 4.39566 29.3335 4.23129 29.3201C4.05529 29.3057 3.82438 29.2705 3.58676 29.1495C3.26967 28.9879 3.01135 28.7296 2.84978 28.4125C2.7288 28.1749 2.69359 27.944 2.67921 27.768C2.6658 27.6036 2.66619 27.412 2.66619 27.2367V11.4268C2.66619 11.1393 2.65937 10.8319 2.73129 10.5323C2.78935 10.2906 2.88526 10.0594 3.01515 9.84742C3.17609 9.58479 3.39777 9.37235 3.60108 9.16904L9.16879 3.60133C9.37211 3.39801 9.58455 3.17633 9.84718 3.01539C10.0592 2.88551 10.2903 2.78959 10.5321 2.73154C10.8316 2.65962 11.139 2.66643 11.4266 2.66643H27.2365ZM6.08025 27.3331H20.4813V22.4815H10.9318L6.08025 27.3331ZM4.66619 25.919L9.51775 21.0675V11.518H4.66619V25.919ZM22.4813 25.919L25.9188 22.4815H22.4813V25.919ZM22.4813 10.9321V20.4815H27.3329V6.0805L22.4813 10.9321ZM11.5178 20.4815H20.4813V11.518H11.5178V20.4815ZM11.5178 9.518H21.0672L25.9188 4.66643H11.5178V9.518ZM6.08025 9.518H9.51775V6.0805L6.08025 9.518Z" fill="#FAFAFA"/>
</svg>
