<svg width="32" height="32" viewBox="0 0 32 32" fill="none" xmlns="http://www.w3.org/2000/svg">
<path d="M15.5827 1.57616C15.9005 1.316 16.3434 1.25938 16.7181 1.43163C17.0929 1.60404 17.3327 1.97435 17.3327 2.38085V4.06574C24.0704 4.73473 29.3326 10.4189 29.3327 17.3327C29.3327 24.6965 23.3631 30.666 15.9993 30.666C8.63555 30.666 2.66602 24.6965 2.66602 17.3327C2.66604 13.8041 4.03765 10.5931 6.27539 8.20897C6.65337 7.8064 7.2868 7.78678 7.68945 8.1647C8.09214 8.54266 8.11169 9.17607 7.73372 9.57876C5.83038 11.6068 4.66604 14.3327 4.66602 17.3327C4.66602 23.5919 9.74012 28.666 15.9993 28.666C22.2586 28.666 27.3327 23.5919 27.3327 17.3327C27.3326 11.5246 22.9635 6.73738 17.3327 6.07746V7.61782C17.3327 8.02432 17.0929 8.39463 16.7181 8.56704C16.3433 8.73933 15.9006 8.68399 15.5827 8.42381L12.3835 5.80402C12.1403 5.60498 11.9993 5.31025 11.9993 4.99933C11.9994 4.68846 12.1403 4.39367 12.3835 4.19465L15.5827 1.57616Z" fill="#FAFAFA"/>
<path fill-rule="evenodd" clip-rule="evenodd" d="M20.3743 12.6774C20.9869 12.6774 21.5229 12.794 21.9824 13.0263C22.4473 13.2588 22.8336 13.6045 23.14 14.0641C23.4517 14.5185 23.6859 15.0794 23.8444 15.7451C24.0028 16.4053 24.0827 17.163 24.0827 18.0185C24.0827 18.8797 24.0029 19.6407 23.8444 20.3011C23.6859 20.9613 23.4515 21.5187 23.14 21.973C22.8336 22.422 22.4473 22.7626 21.9824 22.9951C21.5229 23.2275 20.987 23.344 20.3743 23.344C19.7615 23.344 19.2246 23.2275 18.765 22.9951C18.3055 22.7626 17.9203 22.4219 17.6087 21.973C17.3023 21.5186 17.0693 20.9615 16.9108 20.3011C16.7576 19.6407 16.6816 18.8822 16.6816 18.0263C16.6817 17.1656 16.7577 16.4052 16.9108 15.7451C17.0693 15.0794 17.3023 14.5185 17.6087 14.0641C17.9203 13.6048 18.3056 13.2587 18.765 13.0263C19.2246 12.7939 19.7615 12.6774 20.3743 12.6774ZM20.3743 14.5081C20.0838 14.5081 19.8432 14.5981 19.653 14.7776C19.4628 14.9572 19.3121 15.2081 19.2012 15.5302C19.0903 15.8524 19.0104 16.2275 18.9629 16.6552C18.9206 17.0778 18.9004 17.5326 18.9004 18.0185C18.9004 18.4992 18.9206 18.9539 18.9629 19.3818C19.0104 19.8044 19.0903 20.1768 19.2012 20.499C19.3121 20.8159 19.4628 21.0642 19.653 21.2438C19.8432 21.4234 20.0838 21.5133 20.3743 21.5133C20.67 21.5132 20.9134 21.4233 21.1035 21.2438C21.2987 21.0642 21.4498 20.8157 21.5553 20.499C21.6662 20.1768 21.7423 19.8043 21.7845 19.3818C21.832 18.9539 21.8561 18.4993 21.8561 18.0185C21.8561 17.5326 21.832 17.0778 21.7845 16.6552C21.7422 16.2275 21.6662 15.8524 21.5553 15.5302C21.4497 15.2081 21.2988 14.9572 21.1035 14.7776C20.9134 14.5981 20.67 14.5082 20.3743 14.5081Z" fill="#FAFAFA"/>
<path d="M11.7363 12.6774C12.3593 12.6774 12.9349 12.7751 13.4629 12.9704C13.9911 13.1605 14.4141 13.4595 14.7311 13.8662C15.0534 14.2677 15.2142 14.7856 15.2142 15.4196C15.2142 16.0588 15.0534 16.5666 14.7311 16.9417C14.4142 17.3113 13.9834 17.5724 13.4395 17.7256C14.0312 17.8471 14.5225 18.1117 14.9134 18.5185C15.3042 18.92 15.4993 19.4901 15.4993 20.2295C15.4993 20.9004 15.3461 21.469 15.0397 21.9339C14.7386 22.3933 14.3079 22.7418 13.748 22.9795C13.1935 23.2171 12.5308 23.3362 11.7598 23.3362C10.5394 23.3362 9.59348 23.0564 8.92253 22.4964C8.25157 21.9364 7.91602 21.088 7.91602 19.9521H9.92904C9.92904 20.4752 10.0873 20.8854 10.4043 21.1813C10.7266 21.4717 11.1762 21.6162 11.752 21.6162C12.2748 21.6161 12.6714 21.492 12.9408 21.2438C13.2151 20.9955 13.3521 20.6049 13.3522 20.0719C13.3522 19.5542 13.1837 19.1781 12.8457 18.9456C12.5076 18.7132 12.0732 18.598 11.5449 18.598H10.903V16.9495H11.6087C12.0842 16.9495 12.4679 16.828 12.7585 16.5849C13.049 16.3366 13.1934 16.0112 13.1934 15.6097C13.1933 15.1976 13.0642 14.8937 12.8053 14.6982C12.5519 14.5029 12.1981 14.4053 11.7441 14.4052C11.2528 14.4052 10.8717 14.5319 10.6022 14.7855C10.3382 15.0337 10.2065 15.3797 10.2064 15.8232H8.19336C8.19343 15.1049 8.34917 14.5158 8.66081 14.0563C8.97778 13.5914 9.4033 13.2457 9.93685 13.0185C10.4704 12.7914 11.0707 12.6774 11.7363 12.6774Z" fill="#FAFAFA"/>
</svg>
