<svg width="32" height="32" viewBox="0 0 32 32" fill="none" xmlns="http://www.w3.org/2000/svg">
<path fill-rule="evenodd" clip-rule="evenodd" d="M21.9993 3C23.1486 3 24.2505 3.45687 25.0632 4.26953C25.8758 5.08219 26.3327 6.18406 26.3327 7.33333C26.3327 8.48261 25.8758 9.58448 25.0632 10.3971C24.4907 10.9696 23.7743 11.3642 22.9993 11.5482V13.1615C22.9993 15.1852 21.3615 16.8281 19.3353 16.8281H12.6647C11.7449 16.8281 10.9993 17.5736 10.9993 18.4948V20.4505C11.7745 20.6345 12.4906 21.0303 13.0632 21.6029C13.8758 22.4155 14.3327 23.5174 14.3327 24.6667C14.3327 25.8159 13.8758 26.9178 13.0632 27.7305C12.2505 28.5431 11.1486 29 9.99935 29C8.85008 29 7.7482 28.5431 6.93555 27.7305C6.12289 26.9178 5.66602 25.8159 5.66602 24.6667C5.66602 23.5174 6.12289 22.4155 6.93555 21.6029C7.5081 21.0303 8.22424 20.6345 8.99935 20.4505V11.5482C8.22436 11.3642 7.50803 10.9696 6.93555 10.3971C6.12289 9.58448 5.66602 8.4826 5.66602 7.33333C5.66602 6.18406 6.12289 5.08219 6.93555 4.26953C7.7482 3.45687 8.85008 3 9.99935 3C11.1486 3 12.2505 3.45687 13.0632 4.26953C13.8758 5.08219 14.3327 6.18406 14.3327 7.33333C14.3327 8.4826 13.8758 9.58448 13.0632 10.3971C12.4907 10.9696 11.7743 11.3642 10.9993 11.5482V15.2305C11.4992 14.9748 12.0644 14.8281 12.6647 14.8281H19.3353C20.2544 14.8281 20.9993 14.0831 20.9993 13.1615V11.5482C20.2244 11.3642 19.508 10.9696 18.9355 10.3971C18.1229 9.58448 17.666 8.4826 17.666 7.33333C17.666 6.18406 18.1229 5.08219 18.9355 4.26953C19.7482 3.45687 20.8501 3 21.9993 3ZM9.99935 22.3333C9.38051 22.3333 8.78719 22.5793 8.34961 23.0169C7.91202 23.4545 7.66602 24.0478 7.66602 24.6667C7.66602 25.2855 7.91202 25.8788 8.34961 26.3164C8.78719 26.754 9.38051 27 9.99935 27C10.6182 27 11.2115 26.754 11.6491 26.3164C12.0867 25.8788 12.3327 25.2855 12.3327 24.6667C12.3327 24.0478 12.0867 23.4545 11.6491 23.0169C11.2115 22.5793 10.6182 22.3333 9.99935 22.3333ZM9.99935 5C9.38051 5 8.78719 5.24601 8.34961 5.68359C7.91202 6.12118 7.66602 6.71449 7.66602 7.33333C7.66602 7.95217 7.91202 8.54549 8.34961 8.98307C8.78719 9.42066 9.38051 9.66667 9.99935 9.66667C10.6182 9.66667 11.2115 9.42066 11.6491 8.98307C12.0867 8.54549 12.3327 7.95217 12.3327 7.33333C12.3327 6.71449 12.0867 6.12118 11.6491 5.68359C11.2115 5.24601 10.6182 5 9.99935 5ZM21.9993 5C21.3805 5 20.7872 5.24601 20.3496 5.68359C19.912 6.12118 19.666 6.71449 19.666 7.33333C19.666 7.95217 19.912 8.54549 20.3496 8.98307C20.7872 9.42066 21.3805 9.66667 21.9993 9.66667C22.6182 9.66667 23.2115 9.42066 23.6491 8.98307C24.0867 8.54549 24.3327 7.95217 24.3327 7.33333C24.3327 6.7145 24.0867 6.12118 23.6491 5.68359C23.2115 5.24601 22.6182 5 21.9993 5Z" fill="#FAFAFA"/>
</svg>
