<svg width="32" height="32" viewBox="0 0 32 32" fill="none" xmlns="http://www.w3.org/2000/svg">
<path fill-rule="evenodd" clip-rule="evenodd" d="M23.3327 15.3332C25.5419 15.3332 27.3327 17.124 27.3327 19.3332V19.5571C28.1211 19.9316 28.6661 20.7357 28.6661 21.6665V24.9998C28.6661 26.2885 27.6214 27.3332 26.3327 27.3332H20.3327C19.0441 27.3331 17.9994 26.2885 17.9994 24.9998V21.6665C17.9994 20.7357 18.5444 19.9316 19.3327 19.5571V19.3332C19.3327 17.124 21.1236 15.3332 23.3327 15.3332ZM20.3327 21.3332C20.1487 21.3332 19.9994 21.4824 19.9994 21.6665V24.9998C19.9994 25.1839 20.1487 25.3331 20.3327 25.3332H26.3327C26.5168 25.3332 26.6661 25.1839 26.6661 24.9998V21.6665C26.6661 21.4824 26.5168 21.3332 26.3327 21.3332H20.3327ZM23.3327 17.3332C22.2282 17.3332 21.3327 18.2286 21.3327 19.3332H25.3327C25.3327 18.2286 24.4373 17.3332 23.3327 17.3332Z" fill="#FAFAFA"/>
<path d="M26.9382 4.68083C28.2831 4.81718 29.3327 5.9523 29.3327 7.33317V8.26937C30.0536 8.28071 30.6372 8.86474 30.6439 9.58968L30.6765 13.9829C30.6831 14.9107 29.9324 15.6664 29.0046 15.6665C28.0814 15.6665 27.3327 14.9178 27.3327 13.9946V7.33317C27.3327 6.96498 27.0343 6.6665 26.6661 6.6665H5.33274C4.96468 6.66666 4.66607 6.96508 4.66607 7.33317V20.6665C4.66625 21.0344 4.96479 21.333 5.33274 21.3332H14.976C15.536 21.3335 15.9823 21.8109 15.9877 22.3709C15.9926 22.9022 15.5685 23.3332 15.0372 23.3332H5.33274C3.95211 23.333 2.81688 22.2833 2.68039 20.9386L2.66607 20.6665V19.7043C1.94561 19.6927 1.36186 19.1098 1.35487 18.3853L1.3106 9.61442C1.3039 8.87819 1.89603 8.27626 2.63222 8.26937C2.64342 8.26927 2.65493 8.2692 2.66607 8.26937V7.33317C2.66607 5.86051 3.86011 4.66666 5.33274 4.6665H26.6661L26.9382 4.68083Z" fill="#FAFAFA"/>
<path d="M16.015 16.8826C16.5673 16.8826 17.015 17.3304 17.015 17.8826C17.015 18.4349 16.5673 18.8826 16.015 18.8826H8.46295C7.91101 18.8825 7.4633 18.4345 7.46295 17.8826C7.46295 17.3305 7.91079 16.8828 8.46295 16.8826H16.015Z" fill="#FAFAFA"/>
<path d="M18.6661 12.9998C19.2184 12.9998 19.6661 13.4476 19.6661 13.9998C19.6661 14.5521 19.2184 14.9998 18.6661 14.9998H8.46295C7.9109 14.9997 7.46312 14.5519 7.46295 13.9998C7.46295 13.4476 7.91079 13 8.46295 12.9998H18.6661Z" fill="#FAFAFA"/>
<path d="M23.5346 9.11702C24.0868 9.11702 24.5346 9.56474 24.5346 10.117C24.5346 10.6693 24.0868 11.117 23.5346 11.117H8.46295C7.91079 11.1169 7.46295 10.6692 7.46295 10.117C7.46295 9.56483 7.91079 9.11718 8.46295 9.11702H23.5346Z" fill="#FAFAFA"/>
</svg>
