<svg width="32" height="32" viewBox="0 0 32 32" fill="none" xmlns="http://www.w3.org/2000/svg">
<path fill-rule="evenodd" clip-rule="evenodd" d="M15.9993 4.66675C9.74012 4.66675 4.66602 9.74085 4.66602 16.0001C4.66602 22.2593 9.74012 27.3334 15.9993 27.3334C22.2586 27.3334 27.3327 22.2593 27.3327 16.0001C27.3327 9.74085 22.2586 4.66675 15.9993 4.66675ZM2.66602 16.0001C2.66602 8.63628 8.63555 2.66675 15.9993 2.66675C23.3631 2.66675 29.3327 8.63628 29.3327 16.0001C29.3327 23.3639 23.3631 29.3334 15.9993 29.3334C8.63555 29.3334 2.66602 23.3639 2.66602 16.0001ZM10.7252 17.0001C10.8897 18.3771 11.3902 19.6329 12.1409 20.6145C13.0705 21.8302 14.4257 22.6667 15.9993 22.6667C17.5766 22.6667 18.9343 21.8264 19.8641 20.6062C20.1989 20.1669 20.1142 19.5395 19.6749 19.2047C19.2356 18.87 18.6082 18.9547 18.2734 19.3939C17.6341 20.2328 16.8207 20.6667 15.9993 20.6667C15.1797 20.6667 14.3683 20.2348 13.7296 19.3996C13.2518 18.7748 12.8942 17.9477 12.744 17.0001H14.3327C14.885 17.0001 15.3327 16.5524 15.3327 16.0001C15.3327 15.4478 14.885 15.0001 14.3327 15.0001H12.744C12.8942 14.0525 13.2518 13.2254 13.7296 12.6006C14.3683 11.7654 15.1797 11.3334 15.9993 11.3334C16.8207 11.3334 17.6341 11.7673 18.2734 12.6062C18.6082 13.0455 19.2356 13.1302 19.6749 12.7954C20.1142 12.4607 20.1989 11.8332 19.8641 11.3939C18.9343 10.1738 17.5766 9.33341 15.9993 9.33341C14.4257 9.33341 13.0705 10.17 12.1409 11.3857C11.3902 12.3673 10.8897 13.623 10.7252 15.0001H10.3327C9.7804 15.0001 9.33268 15.4478 9.33268 16.0001C9.33268 16.5524 9.7804 17.0001 10.3327 17.0001H10.7252Z" fill="#FAFAFA"/>
</svg>
