<svg width="32" height="32" viewBox="0 0 32 32" fill="none" xmlns="http://www.w3.org/2000/svg">
<path fill-rule="evenodd" clip-rule="evenodd" d="M23.6224 23.4245C23.9207 23.4161 24.2086 23.5421 24.4049 23.7669C24.6332 24.0284 25.0873 24.6092 25.4896 25.2318C25.6913 25.5439 25.8951 25.8879 26.0508 26.2227C26.1919 26.5262 26.354 26.9468 26.3542 27.3698C26.354 28.2441 25.9867 28.9356 25.4128 29.3841C24.8734 29.8053 24.2166 29.9646 23.6523 29.9648C23.0879 29.9648 22.4304 29.8055 21.8906 29.3841C21.3164 28.9356 20.9494 28.2444 20.9492 27.3698C20.9494 26.9353 21.1159 26.5098 21.263 26.1992C21.4235 25.8606 21.632 25.5155 21.8359 25.207C22.2438 24.5904 22.698 24.0224 22.862 23.8112L22.9349 23.7279C23.115 23.5429 23.3614 23.4321 23.6224 23.4245ZM23.5039 26.3099C23.3263 26.5785 23.1744 26.8366 23.0703 27.056C22.954 27.3014 22.9493 27.3933 22.9492 27.3698C22.9493 27.5191 22.9786 27.6115 23.0052 27.6667C23.0319 27.7219 23.0693 27.7681 23.1211 27.8086C23.2361 27.8982 23.4313 27.9648 23.6523 27.9648C23.873 27.9646 24.0675 27.8981 24.1823 27.8086C24.2337 27.7683 24.2716 27.7217 24.2982 27.6667C24.3247 27.6114 24.3541 27.5186 24.3542 27.3698C24.3542 27.4028 24.3527 27.3154 24.237 27.0664C24.1348 26.8467 23.9845 26.5867 23.8099 26.3164C23.7599 26.2391 23.7073 26.1634 23.6562 26.0885C23.6058 26.1612 23.5534 26.235 23.5039 26.3099Z" fill="#FAFAFA"/>
<path fill-rule="evenodd" clip-rule="evenodd" d="M13.3333 1.86719C13.8856 1.86719 14.3333 2.3149 14.3333 2.86719C14.3333 3.41947 13.8856 3.86719 13.3333 3.86719H12.7331V6.74349C12.7347 7.06525 12.8611 7.36907 13.0768 7.58984C13.2919 7.80987 13.5783 7.93073 13.8724 7.93229H15V6.86719C15 6.3149 15.4477 5.86719 16 5.86719C16.5523 5.86719 17 6.3149 17 6.86719V7.93229H19.194C21.4462 7.93229 23.6022 8.84651 25.1888 10.4674C26.6756 11.9865 27.5501 14.0095 27.6562 16.138L27.6667 16.5651V19.2005H28C28.5523 19.2005 29 19.6482 29 20.2005C29 20.7528 28.5523 21.2005 28 21.2005H18.6667C18.1144 21.2005 17.6667 20.7528 17.6667 20.2005C17.6667 19.6482 18.1144 19.2005 18.6667 19.2005H19.2669V17.6576C19.2653 17.3358 19.1389 17.032 18.9232 16.8112C18.7351 16.6188 18.4928 16.5024 18.2383 16.4753L18.1276 16.4688H17V17.5339C17 18.0861 16.5523 18.5339 16 18.5339C15.4477 18.5339 15 18.0861 15 17.5339V16.4688H12.806C10.5538 16.4688 8.39782 15.5545 6.8112 13.9336C5.22532 12.3133 4.33667 10.1194 4.33333 7.83594V3.86719H4C3.44772 3.86719 3 3.41947 3 2.86719C3 2.3149 3.44772 1.86719 4 1.86719H13.3333ZM17 9.93229V14.4688H18.138C18.9738 14.4732 19.7703 14.8154 20.3542 15.4128C20.9372 16.0094 21.2627 16.813 21.2669 17.6471V19.2005H25.6667V16.5677L25.6576 16.237C25.5753 14.5899 24.8992 13.032 23.7591 11.8672C22.5438 10.6255 20.9014 9.93229 19.194 9.93229H17ZM6.33333 3.86719V7.83333C6.33592 9.60145 7.02478 11.2914 8.24089 12.5339C9.45624 13.7756 11.0986 14.4688 12.806 14.4688H15V9.93229H13.862C13.0262 9.92785 12.2297 9.58569 11.6458 8.98828C11.0628 8.39165 10.7373 7.588 10.7331 6.75391V3.86719H6.33333Z" fill="#FAFAFA"/>
</svg>
