<svg width="32" height="32" viewBox="0 0 32 32" fill="none" xmlns="http://www.w3.org/2000/svg">
<path fill-rule="evenodd" clip-rule="evenodd" d="M15.1053 2.37732C15.4728 2.28307 15.8577 2.28309 16.2251 2.37732C16.6483 2.48584 17.0147 2.7512 17.3579 3.00101C17.3872 3.02231 17.4162 3.04386 17.4452 3.06482L28.591 11.1299C29.0289 11.4469 29.1297 12.0622 28.8163 12.5049C28.5027 12.9476 27.8937 13.0496 27.4556 12.7328L26.0715 11.7328V22.4867C26.0715 23.1886 26.0724 23.7749 26.0337 24.2536C25.9934 24.753 25.9057 25.223 25.6822 25.6664C25.3392 26.3465 24.7913 26.8993 24.1184 27.2458C23.6797 27.4716 23.2153 27.5605 22.7212 27.6013C22.2477 27.6403 21.6681 27.6404 20.9738 27.6403H10.3579C9.66333 27.6404 9.08296 27.6404 8.60925 27.6013C8.11512 27.5605 7.6508 27.4717 7.21211 27.2458C6.53911 26.8993 5.99128 26.3465 5.64831 25.6664C5.42477 25.223 5.33842 24.753 5.29805 24.2536C5.25937 23.7749 5.25897 23.1887 5.25899 22.4867V11.7328L3.87617 12.7328C3.43806 13.0498 2.82784 12.9477 2.51419 12.5049C2.20093 12.0623 2.30175 11.4469 2.73945 11.1299L13.8853 3.06482C13.9143 3.04383 13.9445 3.02234 13.9738 3.00101C14.3169 2.75135 14.6825 2.4858 15.1053 2.37732ZM15.5871 4.28747C15.5792 4.29051 15.5491 4.30382 15.4855 4.34346C15.382 4.40805 15.2504 4.50374 15.022 4.66898L7.20951 10.32V22.4463C7.20951 23.1988 7.21062 23.7045 7.24206 24.0935C7.27257 24.4709 7.32787 24.6515 7.38789 24.7705C7.54379 25.0796 7.79167 25.3318 8.09753 25.4893C8.21533 25.55 8.39461 25.6043 8.7681 25.6351C9.15293 25.6669 9.65262 25.6677 10.397 25.6677H14.6652V19.583C14.6652 19.4994 14.6687 19.4161 14.673 19.333H14.4152C13.1555 19.333 11.9466 18.8332 11.0559 17.9424C10.1652 17.0516 9.66524 15.8427 9.66524 14.583V13.4659C9.66572 12.8406 10.1727 12.3334 10.798 12.333H11.9152C13.1749 12.333 14.3838 12.833 15.2746 13.7237C15.8647 14.3137 16.2819 15.0441 16.4973 15.8356C17.327 15.1898 18.3527 14.8331 19.4152 14.833H20.5324C21.1578 14.8333 21.6648 15.3405 21.6652 15.9659V17.083L21.66 17.3187C21.6018 18.4926 21.1096 19.6073 20.2746 20.4424C19.3838 21.3332 18.175 21.833 16.9152 21.833H16.6652V25.6677H20.9335C21.6778 25.6677 22.1776 25.6669 22.5624 25.6351C22.9358 25.6043 23.1151 25.5499 23.2329 25.4893C23.5389 25.3317 23.788 25.0798 23.9439 24.7705C24.0039 24.6515 24.0579 24.4707 24.0884 24.0935C24.1199 23.7045 24.121 23.1988 24.121 22.4463V10.32L16.3085 4.66898C16.08 4.50372 15.9485 4.40804 15.8449 4.34346C15.7813 4.30382 15.7513 4.29051 15.7434 4.28747C15.6921 4.27469 15.6383 4.27466 15.5871 4.28747ZM19.4152 16.833C18.686 16.8331 17.9869 17.1234 17.4712 17.639C16.9556 18.1547 16.6653 18.8538 16.6652 19.583V19.833H16.9152C17.6446 19.833 18.3435 19.5428 18.8592 19.0271C19.3749 18.5113 19.6652 17.8123 19.6652 17.083V16.833H19.4152ZM11.6652 14.583C11.6652 15.3123 11.9557 16.0114 12.4712 16.5271C12.9869 17.0427 13.6859 17.333 14.4152 17.333H14.6652V17.083C14.6651 16.3538 14.3749 15.6547 13.8592 15.139C13.4081 14.688 12.8167 14.4086 12.1874 14.3461L11.9152 14.333H11.6652V14.583Z" fill="#FAFAFA"/>
</svg>
