<svg width="32" height="32" viewBox="0 0 32 32" fill="none" xmlns="http://www.w3.org/2000/svg">
<path fill-rule="evenodd" clip-rule="evenodd" d="M14.0811 4C14.5453 4 14.9217 4.39565 14.9219 4.88379V8.04199H17.6162C18.7214 8.04199 19.7209 8.73452 20.1562 9.80273L22.3213 15.1162H26.5713C28.0972 15.1162 29.334 16.417 29.334 18.0215V22.0635C29.3338 23.6679 28.0971 24.9688 26.5713 24.9688H26.3447C25.9625 26.7053 24.4835 28 22.7158 28C20.9485 27.9998 19.4701 26.7051 19.0879 24.9688H12.8975C12.5153 26.7053 11.0361 27.9999 9.26855 28C7.50096 28 6.02186 26.7053 5.63965 24.9688H5.43066C3.90494 24.9688 2.66813 23.6679 2.66797 22.0635V18.0215C2.66797 16.417 3.90483 15.1162 5.43066 15.1162H5.83691L8.00195 9.80273L8.08984 9.60742C8.56227 8.65085 9.5057 8.04199 10.542 8.04199H13.2402V4.88379C13.2405 4.39577 13.617 4.0002 14.0811 4ZM9.26855 21.9326C8.16358 21.9326 7.26522 22.8546 7.22754 24.0068C7.22964 24.0323 7.23242 24.0579 7.23242 24.084C7.23242 24.1089 7.22947 24.1338 7.22754 24.1582C7.26574 25.31 8.16396 26.2314 9.26855 26.2314C10.3973 26.2314 11.3125 25.2691 11.3125 24.082C11.3125 22.895 10.3974 21.9327 9.26855 21.9326ZM22.7158 21.9326C21.6111 21.9328 20.7135 22.8547 20.6758 24.0068C20.6779 24.0323 20.6787 24.058 20.6787 24.084C20.6787 24.1086 20.6767 24.1331 20.6748 24.1572C20.7125 25.3094 21.6112 26.2312 22.7158 26.2314C23.8449 26.2314 24.7607 25.2692 24.7607 24.082C24.7607 22.8949 23.8449 21.9326 22.7158 21.9326ZM5.43066 16.8838C4.8336 16.8838 4.34961 17.3936 4.34961 18.0215V22.0635C4.34977 22.6912 4.83369 23.2002 5.43066 23.2002H5.63867C6.01916 21.4612 7.49931 20.1641 9.26855 20.1641C11.0378 20.1641 12.518 21.4612 12.8984 23.2002H19.0859C19.4663 21.4612 20.9468 20.1643 22.7158 20.1641C24.4853 20.1641 25.9663 21.4611 26.3467 23.2002H26.5713C27.1683 23.2002 27.6522 22.6912 27.6523 22.0635V18.0215C27.6523 17.3936 27.1684 16.8838 26.5713 16.8838H21.7871C21.7813 16.8839 21.7754 16.8848 21.7695 16.8848H6.39355C6.38768 16.8848 6.38182 16.8839 6.37598 16.8838H5.43066ZM10.542 9.81055C10.1637 9.81055 9.81696 10.0179 9.62207 10.3496L9.54785 10.499L7.66602 15.1162H20.4922L18.6104 10.499C18.4399 10.0812 18.0486 9.81055 17.6162 9.81055H10.542Z" fill="#FAFAFA"/>
</svg>
