<svg width="32" height="32" viewBox="0 0 32 32" fill="none" xmlns="http://www.w3.org/2000/svg">
<path d="M13.125 22.5716C13.125 21.4383 13.123 20.6887 13.0482 20.1328C12.9772 19.606 12.8577 19.4055 12.7318 19.2799L12.7292 19.2773C12.6037 19.1514 12.403 19.0319 11.8763 18.9609C11.3204 18.8861 10.5708 18.8841 9.4375 18.8841C8.30417 18.8841 7.55457 18.8861 6.9987 18.9609C6.47196 19.0319 6.27134 19.1514 6.14584 19.2773L6.14323 19.2799C6.01731 19.4055 5.89777 19.606 5.82683 20.1328C5.75197 20.6887 5.75 21.4383 5.75 22.5716C5.75 23.7047 5.75197 24.4544 5.82683 25.0104C5.88016 25.4064 5.9609 25.6178 6.05078 25.7513L6.14323 25.862L6.14584 25.8659L6.25782 25.9583C6.39187 26.0484 6.60359 26.1291 6.9987 26.1823C7.55457 26.2572 8.30417 26.2591 9.4375 26.2591C10.5708 26.2591 11.3204 26.2572 11.8763 26.1823C12.4028 26.1113 12.6036 25.9918 12.7292 25.8659L12.7318 25.8633L12.8242 25.7513C12.9144 25.6172 12.9949 25.4048 13.0482 25.0091C13.123 24.4534 13.125 23.7044 13.125 22.5716ZM26.25 22.5716C26.25 21.4383 26.248 20.6887 26.1732 20.1328C26.1022 19.606 25.9827 19.4055 25.8568 19.2799L25.8542 19.2773C25.7287 19.1514 25.528 19.0319 25.0013 18.9609C24.4454 18.8861 23.6958 18.8841 22.5625 18.8841C21.4292 18.8841 20.6796 18.8861 20.1237 18.9609C19.597 19.0319 19.3963 19.1514 19.2708 19.2773L19.2682 19.2799C19.1423 19.4055 19.0228 19.606 18.9518 20.1328C18.877 20.6887 18.875 21.4383 18.875 22.5716C18.875 23.7044 18.877 24.4534 18.9518 25.0091C19.0051 25.4048 19.0856 25.6172 19.1758 25.7513L19.2682 25.8633L19.2708 25.8659L19.3828 25.9583C19.5169 26.0484 19.7286 26.1291 20.1237 26.1823C20.6796 26.2572 21.4292 26.2591 22.5625 26.2591C23.6958 26.2591 24.4454 26.2572 25.0013 26.1823C25.5278 26.1113 25.7286 25.9918 25.8542 25.8659L25.8568 25.8633L25.9492 25.7513C26.0394 25.6172 26.1199 25.4048 26.1732 25.0091C26.248 24.4534 26.25 23.7044 26.25 22.5716ZM13.125 9.4375C13.125 8.30417 13.123 7.55457 13.0482 6.9987C12.9772 6.47194 12.8577 6.27135 12.7318 6.14584L12.7292 6.14323C12.6037 6.01727 12.4031 5.89781 11.8763 5.82683C11.3204 5.75197 10.5708 5.75 9.4375 5.75C8.30391 5.75 7.55451 5.75204 6.9987 5.82683C6.47161 5.89781 6.27184 6.01786 6.14714 6.14323L6.14323 6.14584C6.01727 6.27135 5.89781 6.47194 5.82683 6.9987C5.75197 7.55457 5.75 8.30417 5.75 9.4375C5.75 10.5711 5.75204 11.3205 5.82683 11.8763C5.88011 12.272 5.96091 12.4837 6.05078 12.6172L6.14323 12.7279L6.14584 12.7318L6.25782 12.8242C6.39185 12.9143 6.60346 12.9949 6.9987 13.0482C7.55457 13.123 8.30417 13.125 9.4375 13.125C10.5708 13.125 11.3204 13.123 11.8763 13.0482C12.4031 12.9772 12.6037 12.8577 12.7292 12.7318L12.7318 12.7292L12.8242 12.6172C12.9143 12.4832 12.9949 12.2715 13.0482 11.8763C13.123 11.3204 13.125 10.5708 13.125 9.4375ZM26.25 9.4375C26.25 8.30417 26.248 7.55457 26.1732 6.9987C26.1022 6.47194 25.9827 6.27135 25.8568 6.14584L25.8542 6.14323C25.7287 6.01727 25.5281 5.89781 25.0013 5.82683C24.4454 5.75197 23.6958 5.75 22.5625 5.75C21.4292 5.75 20.6796 5.75197 20.1237 5.82683C19.5969 5.89781 19.3963 6.01727 19.2708 6.14323L19.2682 6.14584C19.1423 6.27135 19.0228 6.47194 18.9518 6.9987C18.877 7.55457 18.875 8.30417 18.875 9.4375C18.875 10.5708 18.877 11.3204 18.9518 11.8763C19.0051 12.2715 19.0857 12.4832 19.1758 12.6172L19.2682 12.7292L19.2708 12.7318L19.3828 12.8242C19.5169 12.9143 19.7285 12.9949 20.1237 13.0482C20.6796 13.123 21.4292 13.125 22.5625 13.125C23.6958 13.125 24.4454 13.123 25.0013 13.0482C25.5281 12.9772 25.7287 12.8577 25.8542 12.7318L25.8568 12.7292L25.9492 12.6172C26.0393 12.4832 26.1199 12.2715 26.1732 11.8763C26.248 11.3204 26.25 10.5708 26.25 9.4375ZM15.125 22.5716C15.125 23.6479 15.1269 24.5558 15.03 25.276C14.9292 26.0242 14.7043 26.717 14.1445 27.276L14.1458 27.2773C13.5865 27.8386 12.8922 28.0632 12.1432 28.1641C11.4228 28.2611 10.5142 28.2591 9.4375 28.2591C8.36083 28.2591 7.45216 28.2611 6.73177 28.1641C5.98279 28.0632 5.28851 27.8386 4.72917 27.2773L4.73047 27.276C4.17057 26.7175 3.94575 26.0249 3.84506 25.2773C3.74806 24.5569 3.75 23.6481 3.75 22.5716C3.75 21.4949 3.74804 20.5863 3.84506 19.8659C3.94594 19.1168 4.17041 18.4227 4.73177 17.8633C5.29071 17.3037 5.98382 17.0799 6.73177 16.9792C7.45216 16.8822 8.36083 16.8841 9.4375 16.8841C10.5142 16.8841 11.4228 16.8822 12.1432 16.9792C12.8912 17.0799 13.5843 17.3037 14.1432 17.8633L14.3385 18.0794C14.7588 18.5973 14.9417 19.2105 15.03 19.8659C15.127 20.5863 15.125 21.4949 15.125 22.5716ZM28.25 22.5716C28.25 23.6479 28.2519 24.5558 28.155 25.276C28.0542 26.0242 27.8293 26.717 27.2695 27.276L27.2708 27.2773C26.7115 27.8386 26.0172 28.0632 25.2682 28.1641C24.5478 28.2611 23.6392 28.2591 22.5625 28.2591C21.4858 28.2591 20.5772 28.2611 19.8568 28.1641C19.1078 28.0632 18.4135 27.8386 17.8542 27.2773V27.276C17.2949 26.7171 17.0708 26.0239 16.9701 25.276C16.8731 24.5558 16.875 23.6479 16.875 22.5716C16.875 21.4949 16.873 20.5863 16.9701 19.8659C17.0709 19.1168 17.2954 18.4227 17.8568 17.8633C18.4157 17.3037 19.1088 17.0799 19.8568 16.9792C20.5772 16.8822 21.4858 16.8841 22.5625 16.8841C23.6392 16.8841 24.5478 16.8822 25.2682 16.9792C26.0162 17.0799 26.7093 17.3037 27.2682 17.8633L27.4635 18.0794C27.8838 18.5973 28.0667 19.2105 28.155 19.8659C28.252 20.5863 28.25 21.4949 28.25 22.5716ZM15.125 9.4375C15.125 10.5142 15.127 11.4228 15.03 12.1432C14.9292 12.8911 14.704 13.583 14.1445 14.1419L14.1458 14.1432C13.5865 14.7046 12.8923 14.929 12.1432 15.03C11.4228 15.127 10.5142 15.125 9.4375 15.125C8.36083 15.125 7.45216 15.127 6.73177 15.03C5.98417 14.9292 5.29188 14.7049 4.73308 14.1458L4.73177 14.1471C4.16966 13.5881 3.94594 12.8924 3.84506 12.1432C3.74811 11.4229 3.75 10.5145 3.75 9.4375C3.75 8.36083 3.74804 7.45216 3.84506 6.73177C3.94578 5.98417 4.17015 5.29188 4.72917 4.73308L4.72787 4.73177C5.28692 4.16966 5.98264 3.94594 6.73177 3.84506C7.45208 3.74811 8.36049 3.75 9.4375 3.75C10.5142 3.75 11.4228 3.74804 12.1432 3.84506C12.8911 3.94582 13.5843 4.16967 14.1432 4.72917L14.3385 4.94532C14.7589 5.46312 14.9417 6.07645 15.03 6.73177C15.127 7.45216 15.125 8.36083 15.125 9.4375ZM28.25 9.4375C28.25 10.5142 28.252 11.4228 28.155 12.1432C28.0542 12.8911 27.829 13.583 27.2695 14.1419L27.2708 14.1432C26.7115 14.7046 26.0173 14.929 25.2682 15.03C24.5478 15.127 23.6392 15.125 22.5625 15.125C21.4858 15.125 20.5772 15.127 19.8568 15.03C19.1077 14.929 18.4135 14.7046 17.8542 14.1432V14.1419C17.2951 13.5831 17.0708 12.8908 16.9701 12.1432C16.873 11.4228 16.875 10.5142 16.875 9.4375C16.875 8.36083 16.873 7.45216 16.9701 6.73177C17.071 5.98273 17.2954 5.28853 17.8568 4.72917C18.4157 4.16967 19.1089 3.94582 19.8568 3.84506C20.5772 3.74804 21.4858 3.75 22.5625 3.75C23.6392 3.75 24.5478 3.74804 25.2682 3.84506C26.0161 3.94582 26.7093 4.16967 27.2682 4.72917L27.4635 4.94532C27.8839 5.46312 28.0667 6.07645 28.155 6.73177C28.252 7.45216 28.25 8.36083 28.25 9.4375Z" fill="#FAFAFA"/>
</svg>
