<svg width="32" height="32" viewBox="0 0 32 32" fill="none" xmlns="http://www.w3.org/2000/svg">
<path d="M10.304 12.8223C10.8563 12.8223 11.304 13.27 11.304 13.8223V18.4889C11.3037 19.0409 10.8561 19.4889 10.304 19.4889C9.75197 19.4889 9.30439 19.0409 9.30404 18.4889V13.821C9.30439 13.269 9.75197 12.8223 10.304 12.8223Z" fill="#FAFAFA"/>
<path d="M14.304 12.8223C14.8563 12.8223 15.304 13.27 15.304 13.8223V18.4889C15.3037 19.0409 14.8561 19.4889 14.304 19.4889C13.752 19.4889 13.3044 19.0409 13.304 18.4889V13.821C13.3044 13.269 13.752 12.8223 14.304 12.8223Z" fill="#FAFAFA"/>
<path d="M18.304 12.8223C18.8563 12.8223 19.304 13.27 19.304 13.8223V18.4889C19.3037 19.0409 18.8561 19.4889 18.304 19.4889C17.752 19.4889 17.3044 19.0409 17.304 18.4889V13.821C17.3044 13.269 17.752 12.8223 18.304 12.8223Z" fill="#FAFAFA"/>
<path fill-rule="evenodd" clip-rule="evenodd" d="M18.1543 3.62695C18.7063 3.6273 19.1543 4.07619 19.1543 4.62826C19.1539 5.18002 18.7061 5.6279 18.1543 5.62826H15.3053V8.76237H20.9395C22.4547 8.76237 23.6829 9.99066 23.6829 11.5059V13.5827H27.3327C27.8849 13.5827 28.3326 14.0305 28.3327 14.5827V17.7285C28.3321 18.2803 27.8846 18.7285 27.3327 18.7285H23.6829V20.8053C23.6825 22.3202 22.4544 23.5488 20.9395 23.5488H18.2233V26.2181C18.2233 26.2713 18.2183 26.3234 18.2103 26.3743H25.9993C26.5516 26.3743 26.9993 26.8221 26.9993 27.3743C26.999 27.9263 26.5514 28.3743 25.9993 28.3743H4.66602C4.11395 28.3743 3.66637 27.9263 3.66602 27.3743C3.66602 26.8221 4.11373 26.3743 4.66602 26.3743H10.8001C10.7921 26.3234 10.7884 26.2713 10.7884 26.2181V23.5488H9.31575C6.1958 23.5488 3.66637 21.019 3.66602 17.8991V14.4121C3.66602 11.2919 6.19558 8.76237 9.31575 8.76237H13.3053V5.62826H10.4551C9.90301 5.62826 9.45543 5.18024 9.45508 4.62826C9.45508 4.07597 9.90279 3.62695 10.4551 3.62695H18.1543ZM12.7884 26.2181C12.7884 26.2713 12.7834 26.3234 12.7754 26.3743H16.2363C16.2283 26.3234 16.2233 26.2713 16.2233 26.2181V23.5488H12.7884V26.2181ZM9.31575 10.7624C7.30015 10.7624 5.66602 12.3965 5.66602 14.4121V17.8991C5.66637 19.9144 7.30037 21.5488 9.31575 21.5488H20.9395C21.3498 21.5488 21.6825 21.2156 21.6829 20.8053V17.7285C21.6829 17.1763 22.1307 16.7286 22.6829 16.7285H26.3327V15.5827H22.6829C22.131 15.5826 21.6833 15.1346 21.6829 14.5827V11.5059C21.6829 11.0952 21.3501 10.7624 20.9395 10.7624H9.31575Z" fill="#FAFAFA"/>
</svg>
