<svg width="32" height="32" viewBox="0 0 32 32" fill="none" xmlns="http://www.w3.org/2000/svg">
<path fill-rule="evenodd" clip-rule="evenodd" d="M27.5208 15.1602C28.073 15.1604 28.5208 15.608 28.5208 16.1602C28.5208 20.1948 25.5272 23.6127 21.5339 24.1302V24.5872C24.1531 24.789 26.5533 25.7673 28.5729 27.181C29.0254 27.4977 29.1357 28.1218 28.819 28.5742C28.5022 29.0263 27.8781 29.1356 27.4258 28.819C25.4337 27.4247 23.0698 26.5469 20.5326 26.5469C17.9572 26.547 15.516 27.3406 13.6862 28.7852C13.2527 29.1273 12.6234 29.0532 12.2812 28.6198C11.9393 28.1864 12.0133 27.557 12.4466 27.2148C14.4196 25.6572 16.9197 24.7649 19.5339 24.5833V24.1302C15.5405 23.6127 12.5469 20.1948 12.5469 16.1602C12.5469 15.6079 12.9946 15.1602 13.5469 15.1602C16.5151 15.1602 19.1415 16.8272 20.5339 19.263C21.9262 16.8272 24.5526 15.1602 27.5208 15.1602ZM14.6497 17.2656C15.1 19.6967 17.0068 21.6437 19.4805 22.0977C19.0175 19.6782 17.0692 17.7286 14.6497 17.2656ZM26.4167 17.2656C23.9976 17.729 22.0488 19.6784 21.5859 22.0977C24.06 21.644 25.9663 19.6969 26.4167 17.2656Z" fill="#FAFAFA"/>
<path fill-rule="evenodd" clip-rule="evenodd" d="M18.401 3C19.2543 3.00024 19.8876 3.45298 20.3112 3.9375L20.4805 4.14714L20.513 4.19141L23.4479 8.59505C23.9101 9.06748 24.2005 9.70872 24.2005 10.401V12.4271C24.2002 12.9789 23.7523 13.4268 23.2005 13.4271C22.6485 13.4271 22.2009 12.9791 22.2005 12.4271V10.401C22.2005 10.1001 21.9012 9.80095 21.6003 9.80078H5.60026C5.29921 9.80078 5 10.1 5 10.401V21.6003C5.00043 21.9011 5.29943 22.2005 5.60026 22.2005H11.1471C11.6991 22.2008 12.147 22.6485 12.1471 23.2005C12.1468 23.7523 11.699 24.2003 11.1471 24.2005H5.60026C4.19486 24.2005 3.00037 23.0056 3 21.6003V10.401C3 9.70515 3.29285 9.06035 3.75911 8.58724L6.77734 4.21615C7.19471 3.46907 8.06144 3 8.90755 3H18.401ZM14.6003 7.80078H20.5156L18.8763 5.34115C18.655 5.04818 18.4913 5.00024 18.401 5H14.6003V7.80078ZM8.90755 5C8.83601 5 8.74175 5.02372 8.65365 5.07552C8.56348 5.12868 8.52798 5.1825 8.52214 5.19401C8.50118 5.23592 8.47714 5.27654 8.45052 5.3151L6.73307 7.80078H12.6003V5H8.90755Z" fill="#FAFAFA"/>
</svg>
