<svg width="32" height="32" viewBox="0 0 32 32" fill="none" xmlns="http://www.w3.org/2000/svg">
<path fill-rule="evenodd" clip-rule="evenodd" d="M9.41536 3.01042C11.4919 3.11971 13.4511 4.04362 14.9115 5.59245C15.866 6.60486 16.5589 7.83442 16.9531 9.16667C17.1944 8.82135 17.4619 8.49322 17.7526 8.1849C19.3102 6.53295 21.4357 5.59245 23.6654 5.59245H27.332L27.4349 5.59766C27.9387 5.64914 28.3319 6.07504 28.332 6.59245V7.88932L28.3216 8.32031C28.221 10.4741 27.37 12.5272 25.9115 14.0742C24.4512 15.623 22.4919 16.5456 20.4154 16.6549L19.9987 16.6667H17.332V18.556H22.444L22.5456 18.5612C23.0499 18.6123 23.444 19.0382 23.444 19.556V24.7409C23.4439 25.6751 23.0944 26.5829 22.4557 27.2604C21.8149 27.94 20.9318 28.3333 19.9987 28.3333H12.6654C11.7325 28.3332 10.8503 27.9398 10.2096 27.2604C9.57082 26.5829 9.22144 25.6752 9.22135 24.7409V19.556L9.22656 19.4531C9.27806 18.9492 9.7038 18.556 10.2214 18.556H15.332V15.3698H12.6654C10.4357 15.3698 8.31023 14.4305 6.7526 12.7786C5.29412 11.2318 4.44317 9.17836 4.34245 7.02474L4.33203 6.59245V4L4.33724 3.89714C4.38873 3.39318 4.81448 3 5.33203 3H8.9987L9.41536 3.01042ZM11.2214 24.7409C11.2214 25.1815 11.3875 25.5933 11.6654 25.888C11.9413 26.1805 12.3021 26.3332 12.6654 26.3333H19.9987C20.3621 26.3333 20.724 26.1807 21 25.888C21.2777 25.5933 21.4439 25.1814 21.444 24.7409V20.556H11.2214V24.7409ZM23.6654 7.59245C22.0054 7.59245 20.3999 8.29095 19.207 9.55599C18.015 10.8203 17.3351 12.5467 17.332 14.3581V14.6667H19.9987L20.3086 14.6589C21.8574 14.5776 23.3385 13.8881 24.457 12.7018C25.5768 11.5139 26.2451 9.91868 26.3242 8.22786L26.332 7.88932V7.59245H23.6654ZM6.33203 6.59245L6.33984 6.93229C6.41906 8.62312 7.08715 10.2184 8.20703 11.4062C9.39991 12.6714 11.0053 13.3698 12.6654 13.3698H15.332V11.7773C15.3319 9.96156 14.6517 8.23062 13.457 6.96354C12.3386 5.7773 10.8574 5.08907 9.30859 5.00781L8.9987 5H6.33203V6.59245Z" fill="#FAFAFA"/>
</svg>
