<svg width="32" height="32" viewBox="0 0 32 32" fill="none" xmlns="http://www.w3.org/2000/svg">
<path d="M11.9993 13.667C12.5516 13.667 12.9993 14.1147 12.9993 14.667V17.0003L13.1999 16.7334C13.5313 16.2919 14.1579 16.2029 14.5996 16.5342C15.0411 16.8656 15.1301 17.4922 14.7988 17.9339L12.7988 20.6006C12.7718 20.6366 12.7414 20.6692 12.7103 20.7008C12.7045 20.7068 12.698 20.712 12.6921 20.7178C12.6536 20.7549 12.6131 20.789 12.5697 20.8193C12.564 20.8233 12.5585 20.8272 12.5527 20.8311C12.5076 20.8611 12.4601 20.8868 12.4108 20.9092C12.3966 20.9156 12.3824 20.9216 12.3678 20.9274C12.3168 20.9477 12.2643 20.9639 12.2103 20.9756C12.1913 20.9797 12.1723 20.983 12.153 20.986C12.1374 20.9884 12.1219 20.9921 12.1061 20.9938C12.071 20.9975 12.0354 21.0003 11.9993 21.0003C11.9628 21.0003 11.9268 20.9976 11.8913 20.9938C11.8755 20.9921 11.86 20.9885 11.8444 20.986C11.8251 20.983 11.806 20.9797 11.7871 20.9756C11.7331 20.9638 11.6806 20.9478 11.6296 20.9274C11.615 20.9216 11.6008 20.9156 11.5866 20.9092C11.5373 20.8868 11.4897 20.8612 11.4447 20.8311C11.4389 20.8272 11.4334 20.8233 11.4277 20.8193C11.3843 20.789 11.3437 20.7549 11.3053 20.7178C11.2994 20.712 11.2929 20.7068 11.2871 20.7008C11.2562 20.6694 11.2267 20.6363 11.1999 20.6006L9.19987 17.9339C8.8686 17.4922 8.95762 16.8656 9.39909 16.5342C9.84078 16.2029 10.4674 16.2919 10.7988 16.7334L10.9993 17.0003V14.667C10.9993 14.1147 11.4471 13.667 11.9993 13.667Z" fill="#FAFAFA"/>
<path d="M19.9993 13.667C20.5516 13.667 20.9993 14.1147 20.9993 14.667V17.0003L21.1999 16.7334C21.5313 16.2919 22.1579 16.2029 22.5996 16.5342C23.0411 16.8656 23.1301 17.4922 22.7988 17.9339L20.7988 20.6006C20.7718 20.6366 20.7414 20.6692 20.7103 20.7008C20.7045 20.7068 20.698 20.712 20.6921 20.7178C20.6536 20.7549 20.6131 20.789 20.5697 20.8193C20.564 20.8233 20.5585 20.8272 20.5527 20.8311C20.5076 20.8611 20.4601 20.8868 20.4108 20.9092C20.3966 20.9156 20.3824 20.9216 20.3678 20.9274C20.3168 20.9477 20.2643 20.9639 20.2103 20.9756C20.1913 20.9797 20.1723 20.983 20.153 20.986C20.1374 20.9884 20.1219 20.9921 20.1061 20.9938C20.071 20.9975 20.0354 21.0003 19.9993 21.0003C19.9628 21.0003 19.9268 20.9976 19.8913 20.9938C19.8755 20.9921 19.86 20.9885 19.8444 20.986C19.8251 20.983 19.806 20.9797 19.7871 20.9756C19.7331 20.9638 19.6806 20.9478 19.6296 20.9274C19.615 20.9216 19.6008 20.9156 19.5866 20.9092C19.5373 20.8868 19.4897 20.8612 19.4447 20.8311C19.4389 20.8272 19.4334 20.8233 19.4277 20.8193C19.3843 20.789 19.3437 20.7549 19.3053 20.7178C19.2994 20.712 19.2929 20.7068 19.2871 20.7008C19.2562 20.6694 19.2267 20.6363 19.1999 20.6006L17.1999 17.9339C16.8686 17.4922 16.9576 16.8656 17.3991 16.5342C17.8408 16.2029 18.4674 16.2919 18.7988 16.7334L18.9993 17.0003V14.667C18.9993 14.1147 19.4471 13.667 19.9993 13.667Z" fill="#FAFAFA"/>
<path fill-rule="evenodd" clip-rule="evenodd" d="M19.9993 4.90137C20.5516 4.90137 20.9993 5.34908 20.9993 5.90137C20.999 6.45335 20.5514 6.90137 19.9993 6.90137H16.9993V10.6722H22.6673L23.0098 10.6813C26.5318 10.8596 29.3327 13.7712 29.3327 17.3376C29.3327 20.5776 27.0205 23.276 23.9564 23.8766V26.0993C23.9564 26.6514 23.5084 27.0989 22.9564 27.0993C22.4041 27.0993 21.9564 26.6516 21.9564 26.0993V24.0029H10.0423V26.0993C10.0423 26.6516 9.5946 27.0993 9.04232 27.0993C8.49003 27.0993 8.04232 26.6516 8.04232 26.0993V23.8766C4.97819 23.276 2.66602 20.5776 2.66602 17.3376C2.66602 13.7712 5.46691 10.8596 8.98893 10.6813L9.33138 10.6722H14.9993V6.90137H11.9993C11.4473 6.90137 10.9997 6.45335 10.9993 5.90137C10.9993 5.34908 11.4471 4.90137 11.9993 4.90137H19.9993ZM9.33138 12.6722C6.75477 12.6722 4.66602 14.761 4.66602 17.3376C4.66602 19.9142 6.75477 22.0029 9.33138 22.0029H22.6673C25.2439 22.0029 27.3327 19.9142 27.3327 17.3376C27.3327 14.761 25.2439 12.6722 22.6673 12.6722H9.33138Z" fill="#FAFAFA"/>
</svg>
