<svg width="32" height="32" viewBox="0 0 32 32" fill="none" xmlns="http://www.w3.org/2000/svg">
<path fill-rule="evenodd" clip-rule="evenodd" d="M12.0003 5.00008C12.0003 3.71142 13.045 2.66675 14.3337 2.66675H17.667C18.9557 2.66675 20.0003 3.71142 20.0003 5.00008V6.46971C22.491 7.5162 24.4842 9.50937 25.5307 12.0001H27.0003C28.289 12.0001 29.3337 13.0447 29.3337 14.3334V17.6667C29.3337 18.9554 28.289 20.0001 27.0003 20.0001H25.5307C24.4842 22.4908 22.491 24.484 20.0003 25.5305V27.0001C20.0003 28.2887 18.9557 29.3334 17.667 29.3334H14.3337C13.045 29.3334 12.0003 28.2887 12.0003 27.0001V25.5305C9.50961 24.484 7.51644 22.4908 6.46995 20.0001H5.00033C3.71166 20.0001 2.66699 18.9554 2.66699 17.6667V14.3334C2.66699 13.0447 3.71166 12.0001 5.00033 12.0001H6.46995C7.51644 9.50937 9.50961 7.51619 12.0003 6.46971V5.00008ZM12.025 8.67404C10.6108 9.44328 9.44353 10.6105 8.67429 12.0248C9.80149 12.1896 10.667 13.1605 10.667 14.3334V17.6667C10.667 18.8397 9.8015 19.8105 8.67429 19.9754C9.44353 21.3897 10.6108 22.5569 12.025 23.3261C12.1899 22.1989 13.1607 21.3334 14.3337 21.3334H17.667C18.84 21.3334 19.8108 22.1989 19.9756 23.3261C21.3899 22.5569 22.5571 21.3897 23.3264 19.9754C22.1992 19.8105 21.3337 18.8397 21.3337 17.6667V14.3334C21.3337 13.1605 22.1992 12.1896 23.3264 12.0248C22.5571 10.6105 21.3899 9.44328 19.9756 8.67404C19.8108 9.80125 18.84 10.6667 17.667 10.6667H14.3337C13.1607 10.6667 12.1899 9.80125 12.025 8.67404ZM14.3337 4.66675C14.1496 4.66675 14.0003 4.81599 14.0003 5.00008V8.33341C14.0003 8.51751 14.1496 8.66675 14.3337 8.66675H17.667C17.8511 8.66675 18.0003 8.51751 18.0003 8.33341V5.00008C18.0003 4.81599 17.8511 4.66675 17.667 4.66675H14.3337ZM5.00033 14.0001C4.81623 14.0001 4.66699 14.1493 4.66699 14.3334V17.6667C4.66699 17.8508 4.81623 18.0001 5.00033 18.0001H8.33366C8.51775 18.0001 8.66699 17.8508 8.66699 17.6667V14.3334C8.66699 14.1493 8.51775 14.0001 8.33366 14.0001H5.00033ZM23.667 14.0001C23.4829 14.0001 23.3337 14.1493 23.3337 14.3334V17.6667C23.3337 17.8508 23.4829 18.0001 23.667 18.0001H27.0003C27.1844 18.0001 27.3337 17.8508 27.3337 17.6667V14.3334C27.3337 14.1493 27.1844 14.0001 27.0003 14.0001H23.667ZM14.3337 23.3334C14.1496 23.3334 14.0003 23.4827 14.0003 23.6667V27.0001C14.0003 27.1842 14.1496 27.3334 14.3337 27.3334H17.667C17.8511 27.3334 18.0003 27.1842 18.0003 27.0001V23.6667C18.0003 23.4827 17.8511 23.3334 17.667 23.3334H14.3337Z" fill="#FAFAFA"/>
</svg>
