<svg width="32" height="32" viewBox="0 0 32 32" fill="none" xmlns="http://www.w3.org/2000/svg">
<path fill-rule="evenodd" clip-rule="evenodd" d="M14.196 9.69434C14.4986 9.40649 14.9568 9.25612 15.4225 9.37402L15.6217 9.44043L15.6621 9.45866C17.3855 10.2814 18.8425 11.5696 19.8652 13.1748L20.0384 13.4391C20.882 14.7702 21.3326 16.3144 21.3327 17.8923V17.9001C21.3096 20.79 18.9086 22.794 16.2546 22.8857L15.998 22.8883C13.346 22.8556 10.7836 20.8802 10.6842 17.9899L10.6673 17.7256C10.6289 16.4086 11.2819 15.1903 12.248 14.4014C12.5696 14.1135 13.0185 13.9096 13.5293 14.0303C13.9891 14.1393 14.2669 14.4629 14.3965 14.7087L14.5163 14.9001C14.6938 14.3764 14.7348 13.7653 14.6426 13.1383L14.5983 12.8844C14.4807 12.2968 14.2671 11.7298 13.9655 11.2087C13.6124 10.6055 13.882 9.99329 14.196 9.69434ZM16.5592 12.4912L16.6204 12.8376V12.8415L16.6751 13.3389C16.7587 14.5255 16.5227 15.8489 15.6751 16.904L15.6738 16.9053C15.5548 17.0528 15.4052 17.173 15.2363 17.2568C15.0712 17.3386 14.89 17.3848 14.7064 17.3923H14.6921C14.5044 17.3984 14.3171 17.3642 14.1439 17.292C13.9775 17.2223 13.8262 17.1171 13.7012 16.986C13.5351 16.8155 13.3245 16.6058 13.1178 16.3571C12.8428 16.7156 12.6846 17.1334 12.6673 17.5446L12.6751 17.792L12.679 17.8727C12.7095 19.5273 14.2152 20.8658 16.0215 20.8883L16.3587 20.8779C18.0181 20.7452 19.3155 19.4902 19.3327 17.8923L19.3145 17.4131C19.2421 16.4629 18.9544 15.5401 18.4733 14.7139L18.2168 14.3102L18.196 14.2764C17.7426 13.5587 17.1803 12.9179 16.5332 12.3766C16.5414 12.4147 16.5516 12.453 16.5592 12.4912Z" fill="#FAFAFA"/>
<path fill-rule="evenodd" clip-rule="evenodd" d="M15.9993 5.33366C21.8904 5.33366 26.666 10.1093 26.666 16.0003C26.666 21.8914 21.8904 26.667 15.9993 26.667C10.1083 26.667 5.33268 21.8914 5.33268 16.0003C5.33268 10.1093 10.1083 5.33366 15.9993 5.33366ZM15.9993 7.33366C11.2129 7.33366 7.33268 11.2139 7.33268 16.0003C7.33268 20.7868 11.2129 24.667 15.9993 24.667C20.7858 24.667 24.666 20.7868 24.666 16.0003C24.666 11.2139 20.7858 7.33366 15.9993 7.33366Z" fill="#FAFAFA"/>
<path fill-rule="evenodd" clip-rule="evenodd" d="M25.5384 2.6722C27.6519 2.77928 29.3327 4.52685 29.3327 6.66699V25.3337L29.3275 25.5394C29.2238 27.5848 27.5838 29.2248 25.5384 29.3284L25.3327 29.3337H6.66602L6.46029 29.3284C4.4149 29.2248 2.77485 27.5848 2.67122 25.5394L2.66602 25.3337V6.66699C2.66602 4.52685 4.34676 2.77928 6.46029 2.6722L6.66602 2.66699H25.3327L25.5384 2.6722ZM6.66602 4.66699C5.56145 4.66699 4.66602 5.56242 4.66602 6.66699V25.3337C4.66602 26.4382 5.56145 27.3337 6.66602 27.3337H25.3327C26.4373 27.3337 27.3327 26.4382 27.3327 25.3337V6.66699C27.3327 5.56242 26.4373 4.66699 25.3327 4.66699H6.66602Z" fill="#FAFAFA"/>
</svg>
