<svg width="32" height="32" viewBox="0 0 32 32" fill="none" xmlns="http://www.w3.org/2000/svg">
<path fill-rule="evenodd" clip-rule="evenodd" d="M15.3321 1.87763C15.7542 1.68663 16.2393 1.68448 16.6628 1.87242L16.8685 1.98179L17.3477 2.2982C19.6491 3.88497 21.3852 6.14296 22.3073 8.75393C22.4753 8.74278 22.644 8.73538 22.8126 8.7357H28.6797C29.5998 8.73597 30.3461 9.48234 30.3464 10.4024V12.569L30.3295 13.1068C30.2441 14.3555 29.8451 15.567 29.1667 16.6315C28.6085 17.5073 27.8748 18.2551 27.0196 18.8399C27.6157 19.7986 27.944 20.9048 27.9493 22.0456V23.2917C27.9492 24.2118 27.2026 24.9578 26.2826 24.9584H21.3282C19.75 24.9662 18.2222 24.3944 17.0495 23.3503C17.0326 23.3352 17.0168 23.3186 17.0001 23.3034V29.3334C17.0001 29.8856 16.5523 30.3334 16.0001 30.3334C15.4478 30.3333 15.0001 29.8856 15.0001 29.3334V23.3021C14.9831 23.3176 14.9678 23.335 14.9506 23.3503C13.7779 24.3943 12.2501 24.9649 10.6719 24.9571L5.74354 24.9584C4.82339 24.958 4.07693 24.2119 4.07688 23.2917V22.0456C4.08212 20.905 4.40933 19.7985 5.00526 18.8399C4.15025 18.2551 3.41753 17.5071 2.85943 16.6315C2.08393 15.4148 1.67424 14.0062 1.67974 12.569V10.4024C1.68006 9.48218 2.42615 8.73572 3.34641 8.7357H9.18755C9.37649 8.73379 9.56566 8.74144 9.75396 8.75393C10.7236 5.97641 12.6136 3.59295 15.1277 1.9883L15.3321 1.87763ZM16.004 3.80601C13.9146 5.20165 12.3604 7.23136 11.5834 9.57424C11.3196 10.3696 10.5385 10.8292 9.75657 10.7578C9.57174 10.7409 9.38516 10.7335 9.19927 10.7357H3.67974V12.5768C3.67572 13.6277 3.97486 14.6604 4.54563 15.556C4.97871 16.2355 5.55574 16.8165 6.23573 17.2604C7.09796 17.8238 7.29301 18.9912 6.75657 19.8099C6.31861 20.4781 6.08057 21.2558 6.07688 22.0547V22.9584H10.6784C11.77 22.9646 12.8208 22.5694 13.6211 21.8568C14.1299 21.4036 14.5119 20.8427 14.7475 20.2266L8.72141 15.4063C8.29015 15.0613 8.22015 14.4313 8.56516 14C8.91023 13.5691 9.54026 13.4989 9.97141 13.8438L15.0001 17.8659V9.33336C15.0002 8.78118 15.4479 8.33339 16.0001 8.33336C16.5523 8.33336 17 8.78116 17.0001 9.33336V16.8659L22.1654 13.7669C22.6389 13.4835 23.2538 13.6374 23.5378 14.1107C23.8215 14.5841 23.6672 15.1989 23.1941 15.4831L17.0053 19.1953C17.1128 20.2115 17.5984 21.1605 18.3803 21.8568C19.1807 22.5693 20.2314 22.9648 21.323 22.9584H25.9493V22.0547L25.9363 21.7565C25.8824 21.0633 25.6528 20.3946 25.2696 19.8099C24.7328 18.9911 24.9279 17.8238 25.7904 17.2604L26.0404 17.0873C26.6121 16.6695 27.1016 16.1505 27.4805 15.556C28.0512 14.6605 28.3504 13.6276 28.3464 12.5768V10.7357H22.8113C22.6424 10.7353 22.4727 10.7438 22.3047 10.7591C21.5249 10.8306 20.7464 10.3728 20.4805 9.58075C19.6905 7.22748 18.1154 5.19471 16.004 3.80601Z" fill="#FAFAFA"/>
</svg>
