<svg width="32" height="32" viewBox="0 0 32 32" fill="none" xmlns="http://www.w3.org/2000/svg">
<path d="M15.4199 24.1832C15.5154 24.2002 15.6038 24.2449 15.6738 24.3121C15.7439 24.3793 15.7923 24.466 15.8132 24.5608C15.834 24.6556 15.8263 24.7543 15.791 24.8447C15.7557 24.935 15.6947 25.013 15.6152 25.0686C15.5357 25.1241 15.4413 25.1551 15.3444 25.1572C15.2474 25.1592 15.1515 25.1325 15.0697 25.0803C14.9878 25.0281 14.9225 24.9518 14.8835 24.8629C14.8316 24.7438 14.8297 24.6089 14.877 24.4879C14.9242 24.3668 15.0172 24.2695 15.1361 24.217C15.225 24.178 15.3243 24.1662 15.4199 24.1832Z" fill="#FAFAFA"/>
<path fill-rule="evenodd" clip-rule="evenodd" d="M15.334 19.6663C18.0954 19.6663 20.334 21.9048 20.334 24.6663C20.3339 27.4277 18.0954 29.6663 15.334 29.6663C12.5726 29.6663 10.334 27.4277 10.334 24.6663C10.334 21.9048 12.5726 19.6663 15.334 19.6663ZM15.0319 21.3486C14.3561 21.3303 13.7808 21.5414 13.3066 21.9814C13.144 22.1326 13.0394 22.3366 13.0111 22.5569C12.9828 22.7771 13.0327 23.0009 13.1517 23.1884C13.482 23.7109 13.8938 24.1033 14.3743 24.3525C14.3417 24.4517 14.3245 24.5553 14.3236 24.6598C13.7418 24.8995 13.1145 24.8795 12.4538 24.6624C12.4048 24.6461 12.3525 24.6407 12.3014 24.648C12.2501 24.6555 12.2007 24.6756 12.1582 24.7053C12.1158 24.735 12.0812 24.7743 12.0566 24.8199C12.0321 24.8655 12.0177 24.9166 12.0163 24.9683C11.9981 25.6441 12.2091 26.2194 12.6491 26.6936C12.8004 26.8562 13.0043 26.9608 13.2246 26.9892C13.4448 27.0175 13.6687 26.9675 13.8561 26.8486C14.3787 26.5177 14.7702 26.1065 15.0189 25.6259C15.1183 25.6587 15.2227 25.6757 15.3275 25.6767C15.5672 26.2585 15.5472 26.8858 15.3301 27.5465C15.3138 27.5955 15.3084 27.6477 15.3158 27.6988C15.3232 27.7501 15.3433 27.7996 15.373 27.842C15.4027 27.8844 15.4421 27.9191 15.4876 27.9436C15.5332 27.9681 15.5843 27.9825 15.6361 27.984C16.3118 28.0022 16.8872 27.7911 17.3613 27.3512C17.5239 27.1999 17.6285 26.9959 17.6569 26.7756C17.6852 26.5554 17.6353 26.3316 17.5163 26.1441C17.1859 25.6216 16.7742 25.2293 16.2936 24.9801C16.3263 24.8809 16.3434 24.7772 16.3444 24.6728C16.9263 24.433 17.5534 24.453 18.2142 24.6702C18.2632 24.6865 18.3154 24.6919 18.3665 24.6845C18.4178 24.677 18.4673 24.6569 18.5098 24.6272C18.5521 24.5975 18.5868 24.5581 18.6113 24.5126C18.6359 24.467 18.6502 24.4159 18.6517 24.3642C18.6699 23.6884 18.4588 23.1131 18.0189 22.6389C17.8676 22.4762 17.6637 22.3717 17.4434 22.3433C17.223 22.315 16.9994 22.3649 16.8118 22.484C16.2892 22.8148 15.8978 23.226 15.6491 23.7066C15.5497 23.6738 15.4452 23.6568 15.3405 23.6558C15.1007 23.074 15.1207 22.4468 15.3379 21.7861C15.3542 21.7371 15.3596 21.6848 15.3522 21.6337C15.3447 21.5824 15.3246 21.5329 15.2949 21.4905C15.2652 21.4481 15.2259 21.4135 15.1803 21.3889C15.1347 21.3643 15.0837 21.35 15.0319 21.3486Z" fill="#FAFAFA"/>
<path fill-rule="evenodd" clip-rule="evenodd" d="M25.2936 4.6259C25.6841 4.23538 26.3172 4.23538 26.7077 4.6259L29.3743 7.29257C29.7648 7.6831 29.7649 8.31612 29.3743 8.70663L26.7077 11.3733C26.3172 11.7638 25.6841 11.7638 25.2936 11.3733C24.9031 10.9828 24.9031 10.3498 25.2936 9.95923L26.2533 8.9996H24.9342C24.0138 8.9996 23.2676 9.74579 23.2676 10.6663V12.3329H24.6673C26.6924 12.3329 28.334 13.9746 28.334 15.9996V21.4657C28.3339 23.4908 26.6923 25.1324 24.6673 25.1324H22.6673C22.1151 25.1324 21.6674 24.6847 21.6673 24.1324C21.6676 23.5804 22.1152 23.1324 22.6673 23.1324H24.6673C25.5878 23.1324 26.3339 22.3862 26.334 21.4657V15.9996C26.334 15.0791 25.5878 14.3329 24.6673 14.3329H23.2676V16.3329C23.2675 18.1738 21.7752 19.6663 19.9342 19.6663C18.0933 19.6663 16.601 18.1738 16.6009 16.3329V14.3329H13.9342V16.3329C13.9342 18.1738 12.4418 19.6663 10.6009 19.6663C8.75999 19.6663 7.26762 18.1738 7.26758 16.3329V14.3329H6.00065C5.08018 14.3329 4.33398 15.0791 4.33398 15.9996V21.4657C4.33403 22.3862 5.0802 23.1324 6.00065 23.1324H8.00065C8.55276 23.1324 9.00037 23.5804 9.00065 24.1324C9.00061 24.6847 8.55291 25.1324 8.00065 25.1324H6.00065C3.97563 25.1324 2.33403 23.4908 2.33398 21.4657V15.9996C2.33398 13.9746 3.97561 12.3329 6.00065 12.3329H7.26758V7.9996C7.26758 7.44731 7.71529 6.9996 8.26758 6.9996C8.81986 6.9996 9.26758 7.44731 9.26758 7.9996V12.3329H11.9342V10.3329C11.9342 8.49198 13.4266 6.9996 15.2676 6.9996C17.1085 6.9996 18.6009 8.49198 18.6009 10.3329V12.3329H21.2676V10.6663C21.2676 8.64122 22.9092 6.9996 24.9342 6.9996H26.2533L25.2936 6.03996C24.9031 5.64945 24.9031 5.01643 25.2936 4.6259ZM9.26758 16.3329C9.26762 17.0693 9.86456 17.6663 10.6009 17.6663C11.3373 17.6663 11.9342 17.0693 11.9342 16.3329V14.3329H9.26758V16.3329ZM18.6009 16.3329C18.601 17.0693 19.1979 17.6663 19.9342 17.6663C20.6706 17.6663 21.2675 17.0693 21.2676 16.3329V14.3329H18.6009V16.3329ZM15.2676 8.9996C14.5312 8.9996 13.9342 9.59655 13.9342 10.3329V12.3329H16.6009V10.3329C16.6009 9.59655 16.004 8.9996 15.2676 8.9996Z" fill="#FAFAFA"/>
</svg>
