<svg width="32" height="32" viewBox="0 0 32 32" fill="none" xmlns="http://www.w3.org/2000/svg">
<path d="M16.1315 16.2497C16.2678 16.0351 16.5269 15.9456 16.7578 16.0335C16.9884 16.1217 17.1319 16.3645 17.1055 16.6208L16.8854 18.7562L18.2552 19.0947C18.4242 19.1365 18.5642 19.2615 18.6289 19.4307C18.6933 19.5997 18.6752 19.7923 18.5807 19.945L15.3971 25.0791C15.259 25.3012 14.9905 25.3907 14.7552 25.2939C14.5201 25.1968 14.3818 24.9395 14.4245 24.6781L14.8919 21.8447L13.6745 21.3525C13.5238 21.2914 13.4071 21.1613 13.3581 20.9997C13.3093 20.838 13.3338 20.6617 13.4232 20.5205L16.1315 16.2497Z" fill="#FAFAFA"/>
<path d="M7.66667 17.333C8.21895 17.333 8.66667 17.7807 8.66667 18.333V22.9997C8.66667 23.552 8.21895 23.9997 7.66667 23.9997C7.11438 23.9997 6.66667 23.552 6.66667 22.9997V18.333C6.66667 17.7807 7.11438 17.333 7.66667 17.333Z" fill="#FAFAFA"/>
<path d="M24.3333 17.333C24.8856 17.333 25.3333 17.7807 25.3333 18.333V22.9997C25.3333 23.552 24.8856 23.9997 24.3333 23.9997C23.781 23.9997 23.3333 23.552 23.3333 22.9997V18.333C23.3333 17.7807 23.781 17.333 24.3333 17.333Z" fill="#FAFAFA"/>
<path fill-rule="evenodd" clip-rule="evenodd" d="M23.6667 3.33301C24.219 3.33301 24.6667 3.78072 24.6667 4.33301V4.99967H25.3333C25.8856 4.99967 26.3333 5.44739 26.3333 5.99967C26.3333 6.55196 25.8856 6.99967 25.3333 6.99967H24.6667V8.33301H25.3333C25.8856 8.33301 26.3333 8.78072 26.3333 9.33301C26.3333 9.88529 25.8856 10.333 25.3333 10.333H24.6667V12.333H25.3333C27.3584 12.333 29 13.9746 29 15.9997V25.333C29 27.358 27.3584 28.9997 25.3333 28.9997H6.66667C4.64162 28.9997 3 27.358 3 25.333V15.9997C3 13.9746 4.64162 12.333 6.66667 12.333H7.33333V10.333H6.66667C6.11438 10.333 5.66667 9.88529 5.66667 9.33301C5.66667 8.78072 6.11438 8.33301 6.66667 8.33301H7.33333V6.99967H6.66667C6.11438 6.99967 5.66667 6.55196 5.66667 5.99967C5.66667 5.44739 6.11438 4.99967 6.66667 4.99967H7.33333V4.33301C7.33333 3.78072 7.78105 3.33301 8.33333 3.33301C8.88562 3.33301 9.33333 3.78072 9.33333 4.33301V4.99967H10C10.5523 4.99967 11 5.44739 11 5.99967C11 6.55196 10.5523 6.99967 10 6.99967H9.33333V8.33301H10C10.5523 8.33301 11 8.78072 11 9.33301C11 9.88529 10.5523 10.333 10 10.333H9.33333V12.333H15V10.333H14.3333C13.781 10.333 13.3333 9.88529 13.3333 9.33301C13.3333 8.78072 13.781 8.33301 14.3333 8.33301H15V6.99967H14.3333C13.781 6.99967 13.3333 6.55196 13.3333 5.99967C13.3333 5.44739 13.781 4.99967 14.3333 4.99967H15V4.33301C15 3.78072 15.4477 3.33301 16 3.33301C16.5523 3.33301 17 3.78072 17 4.33301V4.99967H17.6667C18.219 4.99967 18.6667 5.44739 18.6667 5.99967C18.6667 6.55196 18.219 6.99967 17.6667 6.99967H17V8.33301H17.6667C18.219 8.33301 18.6667 8.78072 18.6667 9.33301C18.6667 9.88529 18.219 10.333 17.6667 10.333H17V12.333H22.6667V10.333H22C21.4477 10.333 21 9.88529 21 9.33301C21 8.78072 21.4477 8.33301 22 8.33301H22.6667V6.99967H22C21.4477 6.99967 21 6.55196 21 5.99967C21 5.44739 21.4477 4.99967 22 4.99967H22.6667V4.33301C22.6667 3.78072 23.1144 3.33301 23.6667 3.33301ZM6.66667 14.333C5.74619 14.333 5 15.0792 5 15.9997V25.333C5 26.2535 5.74619 26.9997 6.66667 26.9997H25.3333C26.2538 26.9997 27 26.2535 27 25.333V15.9997C27 15.0792 26.2538 14.333 25.3333 14.333H6.66667Z" fill="#FAFAFA"/>
</svg>
