<svg width="32" height="32" viewBox="0 0 32 32" fill="none" xmlns="http://www.w3.org/2000/svg">
<path fill-rule="evenodd" clip-rule="evenodd" d="M23.8021 4.66016C24.3728 4.66016 24.8356 5.12203 24.8359 5.69271V9.35547H25.9232C27.8069 9.35547 29.3346 10.8832 29.3346 12.7669V23.9297C29.3343 25.8132 27.8067 27.3398 25.9232 27.3398H6.07943C4.19586 27.3398 2.66828 25.8132 2.66797 23.9297V12.7669C2.66797 10.8832 4.19567 9.35547 6.07943 9.35547H7.14844V5.69271C7.14879 5.12203 7.61153 4.66016 8.18229 4.66016C8.75276 4.66051 9.21579 5.12224 9.21615 5.69271V9.35547H22.7682V5.69271C22.7686 5.12203 23.2313 4.66016 23.8021 4.66016ZM6.07943 11.2161C5.22317 11.2161 4.52865 11.9107 4.52865 12.7669V23.9297C4.52896 24.7857 5.22336 25.4792 6.07943 25.4792H25.9232C26.7792 25.4792 27.4736 24.7857 27.474 23.9297V12.7669C27.474 11.9107 26.7794 11.2161 25.9232 11.2161H6.07943Z" fill="#FAFAFA"/>
<path d="M20.7808 23.3328C19.6561 23.3328 18.7846 23.0748 18.1663 22.5587C17.548 22.0427 17.2389 21.2612 17.2389 20.2145H19.0938C19.0938 20.6965 19.2399 21.0738 19.532 21.3464C19.829 21.6142 20.2428 21.7481 20.7735 21.7481C21.2555 21.7481 21.6206 21.6337 21.8689 21.4049C22.1221 21.176 22.2487 20.8158 22.2487 20.324C22.2487 19.8469 22.0929 19.5012 21.7813 19.287C21.4697 19.0728 21.0705 18.9657 20.5836 18.9657H19.9921V17.4467H20.642C21.0802 17.4467 21.4332 17.3347 21.7009 17.1108C21.9687 16.8819 22.1026 16.5825 22.1026 16.2125C22.1026 15.8327 21.9833 15.5528 21.7448 15.3727C21.5111 15.1925 21.1849 15.1025 20.7662 15.1025C20.3134 15.1025 19.9629 15.2193 19.7146 15.453C19.4711 15.6818 19.3494 16.0007 19.3494 16.4097H17.4945C17.4945 15.7475 17.6381 15.2047 17.9253 14.7811C18.2175 14.3527 18.6094 14.0338 19.1011 13.8244C19.5928 13.6151 20.1454 13.5104 20.7589 13.5104C21.3334 13.5104 21.864 13.6005 22.3509 13.7806C22.8378 13.9559 23.2273 14.231 23.5194 14.6059C23.8164 14.9759 23.9648 15.453 23.9648 16.0372C23.9648 16.6263 23.8164 17.0937 23.5194 17.4394C23.2273 17.7802 22.8305 18.0212 22.329 18.1624C22.8743 18.2744 23.3271 18.5178 23.6873 18.8927C24.0476 19.2627 24.2278 19.7885 24.2278 20.4701C24.2278 21.0884 24.0866 21.6118 23.8042 22.0402C23.5267 22.4638 23.1299 22.7851 22.6138 23.0042C22.1026 23.2233 21.4916 23.3328 20.7808 23.3328Z" fill="#FAFAFA"/>
<path d="M7.14844 23.2089L10.683 13.3792H12.8374L16.3793 23.2089H14.2396L13.5385 21.0472H9.98927L9.26628 23.2089H7.14844ZM10.4786 19.3457H13.0346L11.7566 15.4094L10.4786 19.3457Z" fill="#FAFAFA"/>
</svg>
