<svg width="32" height="32" viewBox="0 0 32 32" fill="none" xmlns="http://www.w3.org/2000/svg">
<path fill-rule="evenodd" clip-rule="evenodd" d="M15.998 9.13639C17.8185 9.13639 19.565 9.85959 20.8522 11.1468C22.1393 12.4339 22.8625 14.1795 22.8626 15.9997C22.8626 17.8201 22.1394 19.5666 20.8522 20.8538C19.565 22.1411 17.8185 22.8643 15.998 22.8643C14.1779 22.8641 12.4323 22.1409 11.1452 20.8538C9.85796 19.5666 9.13477 17.8201 9.13477 15.9997C9.13492 14.1795 9.85809 12.4339 11.1452 11.1468C12.4323 9.85972 14.1778 9.13655 15.998 9.13639ZM15.998 11.1364C14.7083 11.1365 13.4713 11.6489 12.5592 12.5609C11.6472 13.4729 11.1349 14.7099 11.1348 15.9997C11.1348 17.2896 11.6471 18.5276 12.5592 19.4398C13.4713 20.3517 14.7083 20.8641 15.998 20.8643C17.288 20.8643 18.526 20.3519 19.4382 19.4398C20.3503 18.5276 20.8626 17.2896 20.8626 15.9997C20.8625 14.7099 20.3501 13.4729 19.4382 12.5609C18.526 11.6487 17.288 11.1364 15.998 11.1364Z" fill="#FAFAFA"/>
<path fill-rule="evenodd" clip-rule="evenodd" d="M21.696 4.11035C22.179 4.11036 22.6536 4.24156 23.0684 4.48926C23.4829 4.73702 23.8225 5.09264 24.0514 5.5179L29.0124 14.7327C29.222 15.1223 29.3327 15.5586 29.3327 16.001C29.3326 16.4431 29.2231 16.8785 29.0137 17.2679L29.0124 17.2692L24.0514 26.4827C23.8225 26.908 23.4829 27.2636 23.0684 27.5114C22.6536 27.7591 22.179 27.8903 21.696 27.8903H10.3027C9.81968 27.8903 9.34506 27.7591 8.93034 27.5114C8.51579 27.2636 8.17619 26.908 7.94727 26.4827L2.98633 17.2692L2.98503 17.2679C2.77556 16.8785 2.66611 16.4431 2.66602 16.001C2.66602 15.5586 2.77544 15.1223 2.98503 14.7327L7.94727 5.5179C8.17619 5.09264 8.51577 4.73702 8.93034 4.48926C9.34506 4.24156 9.81968 4.11036 10.3027 4.11035H21.696ZM10.3027 6.11035C10.1809 6.11036 10.061 6.14294 9.95638 6.2054C9.85166 6.26795 9.7655 6.35841 9.70768 6.46582L4.74674 15.6807C4.69389 15.779 4.66602 15.8893 4.66602 16.001C4.66611 16.1124 4.69401 16.2219 4.74674 16.32L9.70768 25.5348C9.7655 25.6422 9.85165 25.7327 9.95638 25.7952C10.061 25.8577 10.1808 25.8903 10.3027 25.8903H21.696C21.8179 25.8903 21.9377 25.8577 22.0423 25.7952C22.147 25.7327 22.2332 25.6422 22.291 25.5348L27.252 16.32C27.3047 16.2219 27.3326 16.1124 27.3327 16.001C27.3327 15.8893 27.3048 15.779 27.252 15.6807L22.291 6.46582C22.2332 6.35841 22.147 6.26795 22.0423 6.2054C21.9377 6.14294 21.8178 6.11036 21.696 6.11035H10.3027Z" fill="#FAFAFA"/>
</svg>
