<svg width="48" height="48" viewBox="0 0 48 48" fill="none" xmlns="http://www.w3.org/2000/svg">
<path fill-rule="evenodd" clip-rule="evenodd" d="M30 13.5C30 12.6716 30.6716 12 31.5 12H42.5C43.3284 12 44 12.6716 44 13.5V24.5C44 25.3284 43.3284 26 42.5 26C41.6716 26 41 25.3284 41 24.5V17.1413L29.8883 28.2371C27.74 30.3823 24.2597 30.3811 22.1129 28.2343L19.7678 25.8891C18.7915 24.9128 17.2085 24.9128 16.2322 25.8891L6.56066 35.5607C5.97487 36.1464 5.02513 36.1464 4.43934 35.5607C3.85355 34.9749 3.85355 34.0251 4.43934 33.4393L14.1109 23.7678C16.2588 21.6199 19.7412 21.6199 21.8891 23.7678L24.2343 26.1129C25.2101 27.0888 26.792 27.0893 27.7685 26.1142L38.8987 15H31.5C30.6716 15 30 14.3284 30 13.5Z" fill="#FAFAFA"/>
</svg>
