<svg width="40" height="40" viewBox="0 0 40 40" fill="none" xmlns="http://www.w3.org/2000/svg">
<path d="M12.8532 3.75154C13.3229 3.73381 13.7899 3.84853 14.1992 4.0852C14.6603 4.35184 15.0224 4.75981 15.236 5.24731H15.2376L18.54 12.6236L18.5482 12.6415L18.6507 12.9312C18.7361 13.2266 18.7672 13.5363 18.7402 13.8443C18.7133 14.1518 18.6296 14.4509 18.4945 14.7265L18.3415 14.995C18.3142 15.0367 18.2841 15.0773 18.252 15.1155L15.0049 18.9729C16.1731 21.3492 18.6824 23.8294 21.0726 24.9901L24.8763 21.7561L24.9935 21.6682C25.3397 21.4378 25.7382 21.2973 26.1523 21.2597C26.4631 21.2315 26.7756 21.2613 27.0736 21.3476L27.3649 21.4517L27.3828 21.4599L34.7298 24.7525H34.7314C35.2281 24.9648 35.6427 25.3331 35.9131 25.8007C36.1834 26.2682 36.2958 26.8106 36.2321 27.3469L36.2305 27.3648L34.9902 27.1988L36.2288 27.3648C35.9459 29.4793 34.9051 31.4196 33.2992 32.8238C31.6935 34.2276 29.6328 34.9997 27.5 34.9983V34.9999C21.5328 34.9999 15.8097 32.6291 11.5902 28.4097C7.50252 24.3221 5.1496 18.823 5.00651 13.0582L5 12.4999C4.99845 10.3667 5.77193 8.30496 7.17611 6.69913C8.58017 5.09368 10.5195 4.05249 12.6335 3.76944L12.653 3.76782L12.8532 3.75154ZM7.52442 13.4911C7.76967 18.4343 9.84147 23.1259 13.3577 26.6422C17.1084 30.3927 22.1958 32.4999 27.5 32.4999H27.5016L27.7865 32.4934C29.2114 32.4299 30.5757 31.8833 31.6536 30.9407C32.7989 29.9391 33.5425 28.5577 33.7484 27.0507L33.7288 27.0426L26.3851 23.7532L22.5846 26.9872C22.5494 27.0172 22.5123 27.046 22.474 27.0719C22.1157 27.3136 21.7005 27.4577 21.2695 27.4901C20.8383 27.5226 20.4053 27.4413 20.0146 27.2558L20.0081 27.2525C17.1059 25.8525 14.1659 22.9492 12.749 20.0487L12.7441 20.0406C12.5583 19.6526 12.4769 19.223 12.5065 18.7939L12.5488 18.4748C12.6121 18.16 12.7365 17.8588 12.915 17.5894L12.9997 17.4755L16.2451 13.6148L12.9557 6.26944L12.9476 6.24991C11.441 6.45598 10.059 7.19968 9.05762 8.34464C8.05224 9.4944 7.49884 10.971 7.5 12.4983V12.4999L7.52442 13.4911Z" fill="#FAFAFA"/>
</svg>
