<svg width="40" height="40" viewBox="0 0 40 40" fill="none" xmlns="http://www.w3.org/2000/svg">
<path fill-rule="evenodd" clip-rule="evenodd" d="M14.8626 8.6429C14.2457 7.53181 12.9235 7.19099 11.9077 7.80081C10.8616 8.4288 10.4683 9.86218 11.1001 11.0001L16.2514 20.2772C16.4835 20.6952 16.4568 21.2089 16.1828 21.6006C15.9087 21.9923 15.4352 22.1934 14.963 22.1186L12.9234 21.7956C11.7795 21.6145 10.6348 22.4291 10.4436 23.7346L10.2485 25.0663L18.8856 30.7308C22.3517 33.004 26.7349 33.0925 30.2818 30.9632C35.5745 27.7859 37.4228 20.7064 34.3392 15.153L32.7687 12.3247C31.6776 10.3597 29.3053 9.72626 27.4682 10.8291L20.033 15.2926C19.7425 15.467 19.3936 15.516 19.0663 15.4283C18.739 15.3407 18.4613 15.1239 18.2968 14.8277L14.8626 8.6429ZM10.6209 5.65738C12.8902 4.29512 15.7686 5.12463 17.0483 7.42928L19.8548 12.4837L26.1814 8.68567C29.2719 6.83038 33.2005 7.95247 34.9544 11.1111L33.9303 11.6797L34.9544 11.1111L36.5248 13.9394C40.2414 20.6328 38.0541 29.2132 31.5686 33.1066C27.1975 35.7306 21.7816 35.6198 17.5145 32.8213L8.21064 26.7195C7.80393 26.4527 7.58887 25.9743 7.65936 25.4931L7.97001 23.3723C8.3265 20.9384 10.425 19.1463 12.8357 19.2757L8.91448 12.2137C7.64966 9.9358 8.38195 7.00148 10.6209 5.65738ZM4.21951 11.5286C4.86393 11.7762 5.1856 12.4994 4.93798 13.1438C3.91 15.8191 3.91 18.1655 4.93798 20.8408C5.1856 21.4852 4.86393 22.2084 4.21951 22.456C3.57509 22.7036 2.85195 22.3819 2.60433 21.7375C1.35455 18.485 1.35455 15.4996 2.60433 12.2471C2.85195 11.6027 3.57509 11.281 4.21951 11.5286Z" fill="#FAFAFA"/>
</svg>
