<svg width="40" height="40" viewBox="0 0 40 40" fill="none" xmlns="http://www.w3.org/2000/svg">
<path d="M23.3333 27.0837C24.0237 27.0837 24.5833 27.6433 24.5833 28.3337C24.5833 29.024 24.0237 29.5837 23.3333 29.5837H16.6667C15.9763 29.5837 15.4167 29.024 15.4167 28.3337C15.4167 27.6433 15.9763 27.0837 16.6667 27.0837H23.3333ZM28.3333 18.7503C29.0237 18.7503 29.5833 19.31 29.5833 20.0003C29.5833 20.6907 29.0237 21.2503 28.3333 21.2503H11.6667C10.9763 21.2503 10.4167 20.6907 10.4167 20.0003C10.4167 19.31 10.9763 18.7503 11.6667 18.7503H28.3333ZM32.5 10.417C33.1904 10.417 33.75 10.9766 33.75 11.667C33.75 12.3573 33.1904 12.917 32.5 12.917H7.5C6.80964 12.917 6.25 12.3573 6.25 11.667C6.25 10.9766 6.80964 10.417 7.5 10.417H32.5Z" fill="#FAFAFA"/>
</svg>
