<svg width="40" height="40" viewBox="0 0 40 40" fill="none" xmlns="http://www.w3.org/2000/svg">
<path fill-rule="evenodd" clip-rule="evenodd" d="M20 4.6875C24.0611 4.6875 27.9552 6.30153 30.8268 9.17318C33.6985 12.0448 35.3125 15.9389 35.3125 20L35.293 20.7601C35.105 24.5445 33.5188 28.1348 30.8268 30.8268C28.1348 33.5188 24.5445 35.105 20.7601 35.293L20 35.3125C15.9389 35.3125 12.0448 33.6985 9.17318 30.8268C6.30153 27.9552 4.6875 24.0611 4.6875 20C4.6875 15.9389 6.30153 12.0448 9.17318 9.17318C12.0448 6.30153 15.9389 4.6875 20 4.6875ZM20 7.1875C16.6019 7.1875 13.3436 8.53795 10.9408 10.9408C8.53795 13.3436 7.1875 16.6019 7.1875 20C7.1875 23.3981 8.53795 26.6564 10.9408 29.0592C13.3436 31.4621 16.6019 32.8125 20 32.8125L20.6348 32.7962C20.6446 32.7957 20.6543 32.7935 20.6641 32.793L20.0309 7.1875C20.0206 7.18748 20.0103 7.1875 20 7.1875Z" fill="#FAFAFA"/>
</svg>
