<svg width="40" height="40" viewBox="0 0 40 40" fill="none" xmlns="http://www.w3.org/2000/svg">
<path d="M11.6667 19.7918C12.357 19.7918 12.9167 20.3515 12.9167 21.0418C12.9167 23.9176 11.9149 25.4229 11.04 26.7352C10.2482 27.9229 9.58333 28.9176 9.58333 31.0418C9.58333 31.7322 9.02369 32.2918 8.33333 32.2918C7.64298 32.2918 7.08333 31.7322 7.08333 31.0418C7.08333 28.1661 8.08512 26.6607 8.95996 25.3485C9.75179 24.1607 10.4167 23.1661 10.4167 21.0418C10.4167 20.3515 10.9763 19.7918 11.6667 19.7918Z" fill="#FAFAFA"/>
<path d="M20 19.7918C20.6904 19.7918 21.25 20.3515 21.25 21.0418C21.25 23.9176 20.2482 25.4229 19.3734 26.7352C18.5815 27.9229 17.9167 28.9176 17.9167 31.0418C17.9167 31.7322 17.357 32.2918 16.6667 32.2918C15.9763 32.2918 15.4167 31.7322 15.4167 31.0418C15.4167 28.1661 16.4185 26.6607 17.2933 25.3485C18.0851 24.1607 18.75 23.1661 18.75 21.0418C18.75 20.3515 19.3096 19.7918 20 19.7918Z" fill="#FAFAFA"/>
<path d="M28.3333 19.7918C29.0237 19.7918 29.5833 20.3515 29.5833 21.0418C29.5833 23.9176 28.5815 25.4229 27.7067 26.7352C26.9149 27.9229 26.25 28.9176 26.25 31.0418C26.25 31.7322 25.6904 32.2918 25 32.2918C24.3096 32.2918 23.75 31.7322 23.75 31.0418C23.75 28.1661 24.7518 26.6607 25.6266 25.3485C26.4185 24.1607 27.0833 23.1661 27.0833 21.0418C27.0833 20.3515 27.643 19.7918 28.3333 19.7918Z" fill="#FAFAFA"/>
<path fill-rule="evenodd" clip-rule="evenodd" d="M32.5 3.3335C33.1875 3.3335 33.7762 3.5781 34.2659 4.06755C34.7554 4.55727 35 5.146 35 5.8335V8.3335C35 9.021 34.7554 9.61003 34.2659 10.0994C33.7762 10.5891 33.1874 10.8335 32.5 10.8335H30.1253L28.8753 14.2091C28.6829 14.6879 28.372 15.0776 27.9443 15.3794C27.5168 15.6815 27.0354 15.8334 26.5007 15.8335H13.291C12.7496 15.8334 12.2602 15.6714 11.8229 15.3485C11.3856 15.0258 11.083 14.6045 10.9163 14.0838L9.87467 10.8335H7.5C6.8125 10.8335 6.22349 10.5892 5.73405 10.0994C5.24432 9.61003 5 9.021 5 8.3335V5.8335C5 5.14609 5.24446 4.55723 5.73405 4.06755C6.22349 3.5781 6.8125 3.3335 7.5 3.3335H32.5ZM13.291 13.3335H26.709L27.4577 10.8335H12.5423L13.291 13.3335ZM7.5 8.3335H32.5V5.8335H7.5V8.3335Z" fill="#FAFAFA"/>
</svg>
