<svg width="40" height="40" viewBox="0 0 40 40" fill="none" xmlns="http://www.w3.org/2000/svg">
<path d="M33.125 18.194C33.1248 17.7185 32.9133 17.1718 32.3405 16.5697C31.7607 15.9605 30.8618 15.3539 29.6566 14.8184C27.2492 13.7487 23.836 13.0557 20 13.0557C16.164 13.0557 12.7508 13.7487 10.3434 14.8184C9.13817 15.3539 8.23926 15.9605 7.65951 16.5697C7.08671 17.1718 6.87516 17.7185 6.875 18.194C6.875 18.6697 7.08629 19.2175 7.65951 19.82C8.23923 20.4292 9.13824 21.0341 10.3434 21.5697C12.6003 22.5725 15.7409 23.2457 19.2855 23.3258L20 23.334L20.1286 23.3405C20.7585 23.4049 21.25 23.9371 21.25 24.584C21.2497 25.2307 20.7584 25.7631 20.1286 25.8275L20 25.834L19.235 25.8242C15.4301 25.7388 11.9487 25.0194 9.3278 23.8548C7.93177 23.2344 6.72475 22.4632 5.84961 21.5436C4.96823 20.6175 4.375 19.4831 4.375 18.194C4.37517 16.9052 4.96845 15.772 5.84961 14.846C6.72472 13.9265 7.9318 13.1552 9.3278 12.5348C12.1234 11.2926 15.8979 10.5557 20 10.5557C24.1021 10.5557 27.8766 11.2926 30.6722 12.5348C32.0682 13.1552 33.2753 13.9265 34.1504 14.846C35.0316 15.772 35.6248 16.9052 35.625 18.194C35.625 19.817 34.6946 21.181 33.4163 22.2223C32.1324 23.2681 30.3686 24.1051 28.3431 24.7077C27.6814 24.9045 26.9855 24.5279 26.7887 23.8662C26.5919 23.2045 26.9685 22.5087 27.6302 22.3118C29.4598 21.7676 30.8912 21.0547 31.8376 20.2839C32.7891 19.5086 33.125 18.7876 33.125 18.194Z" fill="#FAFAFA"/>
<path d="M14.9201 19.8418C15.3617 19.3689 16.084 19.3152 16.5883 19.6985L16.686 19.7815L20.8527 23.6699L20.9438 23.7659C21.1449 23.998 21.2555 24.2973 21.2498 24.6074C21.2439 24.9177 21.1228 25.213 20.9129 25.4375L20.8185 25.5286L16.6518 29.1386C16.1302 29.5907 15.3413 29.5347 14.8891 29.0133C14.4371 28.4917 14.4931 27.7028 15.0145 27.2506L18.1297 24.5488L14.9803 21.6077L14.8908 21.5166C14.4738 21.0397 14.4785 20.3148 14.9201 19.8418Z" fill="#FAFAFA"/>
</svg>
