<svg width="40" height="40" viewBox="0 0 40 40" fill="none" xmlns="http://www.w3.org/2000/svg">
<path fill-rule="evenodd" clip-rule="evenodd" d="M26.2093 16.2795C26.5516 16.1452 26.9401 16.1685 27.2673 16.3478L35.6803 20.9604C35.6996 20.971 35.7172 20.9847 35.7357 20.9963C35.757 21.0095 35.7787 21.0225 35.7992 21.0369C35.8524 21.0746 35.9027 21.1158 35.9489 21.1606C35.9609 21.1723 35.9715 21.1859 35.9831 21.1981C36.0244 21.2416 36.0625 21.2878 36.097 21.3364C36.1069 21.3503 36.117 21.3644 36.1263 21.3787C36.2041 21.4988 36.261 21.6319 36.2939 21.7726C36.3151 21.8636 36.3297 21.9584 36.3298 22.0558V31.2778C36.3298 31.7339 36.08 32.1552 35.6803 32.3748L27.2673 36.9858C27.2382 37.0018 27.2061 37.0131 27.1761 37.0265C27.1631 37.0324 27.1503 37.039 27.137 37.0444C27.0664 37.0733 26.9943 37.0958 26.9206 37.1112C26.9147 37.1124 26.9086 37.1133 26.9027 37.1144C26.867 37.1213 26.8313 37.1269 26.7952 37.1307C26.7662 37.1337 26.7369 37.1346 26.7074 37.1356C26.6932 37.1361 26.6792 37.1388 26.665 37.1388C26.6205 37.1388 26.5766 37.1353 26.5332 37.1307C26.5005 37.1272 26.468 37.1221 26.4355 37.1161C26.4252 37.1141 26.4149 37.1117 26.4046 37.1095C26.3339 37.0944 26.2642 37.0736 26.1963 37.0461C26.1769 37.0382 26.1582 37.0288 26.1393 37.02C26.115 37.0087 26.0898 36.9988 26.0661 36.9858L17.6546 32.3748C17.2545 32.1554 17.0052 31.7342 17.0052 31.2778V22.0558C17.0053 21.9585 17.0167 21.8635 17.0378 21.7726C17.0706 21.632 17.1278 21.4988 17.2054 21.3787C17.2149 21.3641 17.2246 21.349 17.2347 21.3348C17.268 21.2878 17.3057 21.2435 17.3454 21.2013C17.3579 21.188 17.3697 21.1734 17.3828 21.1606C17.4284 21.1164 17.4784 21.0759 17.5309 21.0386C17.5541 21.022 17.5782 21.0063 17.6025 20.9914C17.6195 20.981 17.6371 20.97 17.6546 20.9604L26.0661 16.3478L26.2093 16.2795ZM27.915 27.4074V33.7778L33.8298 30.5373V24.1652L27.915 27.4074ZM19.5052 30.5373L25.415 33.7762V27.4058L19.5052 24.1652V30.5373ZM20.8545 22.0542L26.6667 25.241L32.4772 22.0542L26.6667 18.8674L20.8545 22.0542Z" fill="#FAFAFA"/>
<path fill-rule="evenodd" clip-rule="evenodd" d="M29.7005 2.87777C30.0645 2.95252 30.3382 3.27459 30.3385 3.66064V12.728C30.3382 13.1142 30.0647 13.4379 29.7005 13.5125L29.5394 13.5288H15.1383L14.9772 13.5451C14.8699 13.5671 14.7711 13.6118 14.6842 13.672C14.656 13.7086 14.6268 13.7446 14.5947 13.7778C14.5767 13.7965 14.5569 13.814 14.5378 13.8315C14.5141 13.8533 14.4915 13.8768 14.4661 13.8966C14.3864 14.0209 14.3393 14.1692 14.3392 14.328V28.729L14.3229 28.8901C14.2479 29.2541 13.9246 29.5282 13.5384 29.5282H4.47103C4.08519 29.5278 3.76314 29.2538 3.68815 28.8901L3.67188 28.729V3.66064C3.67229 3.21943 4.02981 2.86028 4.47103 2.85986H29.5394L29.7005 2.87777ZM6.17188 27.0282H11.8392V22.7769H9.69727C9.00718 22.7769 8.44771 22.2168 8.44727 21.5269C8.44727 20.8365 9.00691 20.2769 9.69727 20.2769H11.8392V14.328C11.8392 14.273 11.8446 14.2178 11.8473 14.1636H9.69727C9.00718 14.1636 8.44771 13.6036 8.44727 12.9136C8.44727 12.2232 9.00691 11.6636 9.69727 11.6636H12.4479V8.91292C12.4479 8.22257 13.0076 7.66292 13.6979 7.66292C14.3879 7.66336 14.9479 8.22284 14.9479 8.91292V11.0386C15.011 11.035 15.0743 11.0288 15.1383 11.0288H21.0889V8.91292C21.0889 8.22257 21.6485 7.66292 22.3389 7.66292C23.0292 7.66292 23.5889 8.22257 23.5889 8.91292V11.0288H27.8385V5.36149H6.17188V27.0282Z" fill="#FAFAFA"/>
</svg>
