<svg width="40" height="40" viewBox="0 0 40 40" fill="none" xmlns="http://www.w3.org/2000/svg">
<path d="M8.75 26.25V13.75C8.75 13.0596 9.30964 12.5 10 12.5C10.6904 12.5 11.25 13.0596 11.25 13.75V26.25C11.25 26.9404 10.6904 27.5 10 27.5C9.30964 27.5 8.75 26.9404 8.75 26.25Z" fill="#FAFAFA"/>
<path d="M26.25 28.75C26.9404 28.75 27.5 29.3096 27.5 30C27.5 30.6904 26.9404 31.25 26.25 31.25H13.75C13.0596 31.25 12.5 30.6904 12.5 30C12.5 29.3096 13.0596 28.75 13.75 28.75H26.25Z" fill="#FAFAFA"/>
<path d="M28.75 26.25V13.75C28.75 13.0596 29.3096 12.5 30 12.5C30.6904 12.5 31.25 13.0596 31.25 13.75V26.25C31.25 26.9404 30.6904 27.5 30 27.5C29.3096 27.5 28.75 26.9404 28.75 26.25Z" fill="#FAFAFA"/>
<path d="M26.25 8.75C26.9404 8.75 27.5 9.30964 27.5 10C27.5 10.6904 26.9404 11.25 26.25 11.25H13.75C13.0596 11.25 12.5 10.6904 12.5 10C12.5 9.30964 13.0596 8.75 13.75 8.75H26.25Z" fill="#FAFAFA"/>
<path d="M32.5 10C32.5 8.61929 31.3807 7.5 30 7.5C28.6193 7.5 27.5 8.61929 27.5 10C27.5 11.3807 28.6193 12.5 30 12.5V15C27.2386 15 25 12.7614 25 10C25 7.23858 27.2386 5 30 5C32.7614 5 35 7.23858 35 10C35 12.7614 32.7614 15 30 15V12.5C31.3807 12.5 32.5 11.3807 32.5 10Z" fill="#FAFAFA"/>
<path d="M32.5 30C32.5 28.6193 31.3807 27.5 30 27.5C28.6193 27.5 27.5 28.6193 27.5 30C27.5 31.3807 28.6193 32.5 30 32.5V35C27.2386 35 25 32.7614 25 30C25 27.2386 27.2386 25 30 25C32.7614 25 35 27.2386 35 30C35 32.7614 32.7614 35 30 35V32.5C31.3807 32.5 32.5 31.3807 32.5 30Z" fill="#FAFAFA"/>
<path d="M12.5 30C12.5 28.6193 11.3807 27.5 10 27.5C8.61929 27.5 7.5 28.6193 7.5 30C7.5 31.3807 8.61929 32.5 10 32.5V35C7.23858 35 5 32.7614 5 30C5 27.2386 7.23858 25 10 25C12.7614 25 15 27.2386 15 30C15 32.7614 12.7614 35 10 35V32.5C11.3807 32.5 12.5 31.3807 12.5 30Z" fill="#FAFAFA"/>
<path d="M12.5 10C12.5 8.61929 11.3807 7.5 10 7.5C8.61929 7.5 7.5 8.61929 7.5 10C7.5 11.3807 8.61929 12.5 10 12.5V15C7.23858 15 5 12.7614 5 10C5 7.23858 7.23858 5 10 5C12.7614 5 15 7.23858 15 10C15 12.7614 12.7614 15 10 15V12.5C11.3807 12.5 12.5 11.3807 12.5 10Z" fill="#FAFAFA"/>
</svg>
