<svg width="40" height="40" viewBox="0 0 40 40" fill="none" xmlns="http://www.w3.org/2000/svg">
<path d="M20 4.6875C20.6904 4.6875 21.25 5.24714 21.25 5.9375V18.75H34.0625C34.7529 18.75 35.3125 19.3096 35.3125 20C35.3125 20.6904 34.7529 21.25 34.0625 21.25H21.25V34.0625C21.25 34.7529 20.6904 35.3125 20 35.3125C19.3096 35.3125 18.75 34.7529 18.75 34.0625V21.25H5.9375C5.24714 21.25 4.6875 20.6904 4.6875 20C4.6875 19.3096 5.24714 18.75 5.9375 18.75H18.75V5.9375C18.75 5.24714 19.3096 4.6875 20 4.6875Z" fill="#FAFAFA"/>
<path d="M29.3913 31.25C30.0813 31.2504 30.6413 31.8099 30.6413 32.5C30.6413 33.1901 30.0813 33.7496 29.3913 33.75H29.375C28.6846 33.75 28.125 33.1904 28.125 32.5C28.125 31.8096 28.6846 31.25 29.375 31.25H29.3913Z" fill="#FAFAFA"/>
<path d="M13.75 28.125C14.4404 28.125 15 28.6846 15 29.375C15 30.0654 14.4404 30.625 13.75 30.625H7.5C6.80964 30.625 6.25 30.0654 6.25 29.375C6.25 28.6846 6.80964 28.125 7.5 28.125H13.75Z" fill="#FAFAFA"/>
<path d="M29.3913 25C30.0813 25.0004 30.6413 25.5599 30.6413 26.25C30.6413 26.9401 30.0813 27.4996 29.3913 27.5H29.375C28.6846 27.5 28.125 26.9404 28.125 26.25C28.125 25.5596 28.6846 25 29.375 25H29.3913Z" fill="#FAFAFA"/>
<path d="M10.625 6.25C11.3154 6.25 11.875 6.80964 11.875 7.5V9.375H13.75C14.4404 9.375 15 9.93464 15 10.625C15 11.3154 14.4404 11.875 13.75 11.875H11.875V13.75C11.875 14.4404 11.3154 15 10.625 15C9.93464 15 9.375 14.4404 9.375 13.75V11.875H7.5C6.80964 11.875 6.25 11.3154 6.25 10.625C6.25 9.93464 6.80964 9.375 7.5 9.375H9.375V7.5C9.375 6.80964 9.93464 6.25 10.625 6.25Z" fill="#FAFAFA"/>
<path d="M30.835 7.39746C31.3231 6.90931 32.1144 6.90931 32.6025 7.39746C33.0907 7.88562 33.0907 8.67688 32.6025 9.16504L31.1426 10.625L32.6025 12.085C33.0907 12.5731 33.0907 13.3644 32.6025 13.8525C32.1144 14.3407 31.3231 14.3407 30.835 13.8525L29.375 12.3926L27.915 13.8525C27.4269 14.3407 26.6356 14.3407 26.1475 13.8525C25.6593 13.3644 25.6593 12.5731 26.1475 12.085L27.6074 10.625L26.1475 9.16504C25.6593 8.67688 25.6593 7.88562 26.1475 7.39746C26.6356 6.90931 27.4269 6.90931 27.915 7.39746L29.375 8.85742L30.835 7.39746Z" fill="#FAFAFA"/>
</svg>
