<svg width="40" height="40" viewBox="0 0 40 40" fill="none" xmlns="http://www.w3.org/2000/svg">
<path fill-rule="evenodd" clip-rule="evenodd" d="M19.9997 5.8335C12.1756 5.8335 5.83301 12.1761 5.83301 20.0002C5.83301 27.8242 12.1756 34.1668 19.9997 34.1668C27.8237 34.1668 34.1663 27.8242 34.1663 20.0002C34.1663 12.1761 27.8237 5.8335 19.9997 5.8335ZM3.33301 20.0002C3.33301 10.7954 10.7949 3.3335 19.9997 3.3335C29.2044 3.3335 36.6663 10.7954 36.6663 20.0002C36.6663 29.2049 29.2044 36.6668 19.9997 36.6668C10.7949 36.6668 3.33301 29.2049 3.33301 20.0002Z" fill="#FAFAFA"/>
<path fill-rule="evenodd" clip-rule="evenodd" d="M12.4491 26.6339C12.9373 27.122 13.7287 27.122 14.2169 26.6339L19.705 21.1457C19.8678 20.983 20.1316 20.983 20.2943 21.1457L25.7825 26.6339C26.2706 27.122 27.0621 27.122 27.5502 26.6339C28.0384 26.1457 28.0384 25.3543 27.5502 24.8661L22.0621 19.378C20.923 18.2389 19.0763 18.2389 17.9373 19.378L12.4491 24.8661C11.961 25.3543 11.961 26.1457 12.4491 26.6339ZM12.4491 19.9672C12.9373 20.4554 13.7287 20.4554 14.2169 19.9672L19.705 14.4791C19.8678 14.3163 20.1316 14.3163 20.2943 14.4791L25.7825 19.9672C26.2706 20.4554 27.0621 20.4554 27.5502 19.9672C28.0384 19.4791 28.0384 18.6876 27.5502 18.1994L22.0621 12.7113C20.923 11.5723 19.0763 11.5723 17.9373 12.7113L12.4491 18.1995C11.961 18.6876 11.961 19.4791 12.4491 19.9672Z" fill="#FAFAFA"/>
</svg>
