<svg width="40" height="40" viewBox="0 0 40 40" fill="none" xmlns="http://www.w3.org/2000/svg">
<path d="M22.2734 7.87891L24.281 7.87891C24.584 7.87891 24.8428 7.99254 25.0575 8.21982C25.2721 8.44709 25.3794 8.71224 25.3794 9.01527C25.3794 9.3183 25.2658 9.57717 25.0385 9.79179C24.8113 10.0064 24.5461 10.1138 24.2431 10.1138H22.2734L22.2734 29.8486H24.2431C24.565 29.8486 24.8349 29.9582 25.0525 30.1774C25.2705 30.3963 25.3794 30.6678 25.3794 30.9918C25.3794 31.3155 25.2705 31.5847 25.0525 31.7994C24.8349 32.014 24.565 32.1213 24.2431 32.1213H22.2734C21.6673 32.1213 21.137 31.8941 20.6825 31.4395C20.2279 30.985 20.0007 30.4547 20.0007 29.8486L20.0007 10.1516C20.0007 9.54557 20.2279 9.01527 20.6825 8.56073C21.137 8.10618 21.6673 7.87891 22.2734 7.87891ZM14.6976 7.87891C15.3037 7.87891 15.834 8.10618 16.2885 8.56073C16.7431 9.01527 16.9703 9.54557 16.9703 10.1516L16.9703 29.8486C16.9703 30.4547 16.7431 30.985 16.2885 31.4395C15.834 31.8941 15.3037 32.1213 14.6976 32.1213H5.60671C5.00065 32.1213 4.47035 31.8941 4.0158 31.4395C3.56126 30.985 3.33399 30.4547 3.33399 29.8486L3.33398 10.1516C3.33398 9.54557 3.56126 9.01527 4.0158 8.56073C4.47035 8.10618 5.00065 7.87891 5.60671 7.87891L14.6976 7.87891ZM14.6976 10.1138L5.60671 10.1138L5.60671 29.8486L14.6976 29.8486L14.6976 10.1138ZM28.9022 18.8638L35.531 18.8638C35.8529 18.8638 36.1227 18.9734 36.3404 19.1925C36.5584 19.4115 36.6673 19.6829 36.6673 20.0069C36.6673 20.3306 36.5584 20.5999 36.3404 20.8145C36.1227 21.0291 35.8529 21.1365 35.531 21.1365L28.9022 21.1365L30.9855 23.2198C31.2128 23.4471 31.3264 23.7122 31.3264 24.0153C31.3264 24.3183 31.2148 24.5835 30.9916 24.8107C30.7683 25.038 30.5031 25.1516 30.1961 25.1516C29.8891 25.1516 29.6219 25.038 29.3946 24.8107L25.3416 20.7956C25.2153 20.6693 25.1269 20.5414 25.0764 20.4119C25.0259 20.2821 25.0007 20.1431 25.0007 19.9952C25.0007 19.8469 25.0259 19.7097 25.0764 19.5835C25.1269 19.4572 25.2153 19.331 25.3416 19.2047L29.3567 15.1138C29.584 14.8865 29.8554 14.7728 30.1711 14.7728C30.4868 14.7728 30.7582 14.8914 30.9855 15.1285C31.2128 15.346 31.3264 15.6087 31.3264 15.9168C31.3264 16.2246 31.2128 16.4872 30.9855 16.7047L28.9022 18.8638Z" fill="#FAFAFA"/>
</svg>
