<svg width="40" height="40" viewBox="0 0 40 40" fill="none" xmlns="http://www.w3.org/2000/svg">
<path fill-rule="evenodd" clip-rule="evenodd" d="M32.6876 27.1695C32.1994 26.6813 31.408 26.6813 30.9198 27.1695L26.387 31.7023V13.0534C26.387 8.68113 22.8426 5.13672 18.4704 5.13672H8.05371C7.36336 5.13672 6.80371 5.69636 6.80371 6.38672C6.80371 7.07707 7.36336 7.63672 8.05371 7.63672H18.4704C21.4619 7.63672 23.887 10.0618 23.887 13.0534V31.7023L19.3543 27.1695C18.8661 26.6813 18.0746 26.6813 17.5865 27.1695C17.0983 27.6577 17.0983 28.4491 17.5865 28.9373L23.0746 34.4254C24.2137 35.5645 26.0604 35.5645 27.1994 34.4254L32.6876 28.9373C33.1757 28.4491 33.1758 27.6577 32.6876 27.1695Z" fill="#FAFAFA"/>
</svg>
