<svg width="40" height="40" viewBox="0 0 40 40" fill="none" xmlns="http://www.w3.org/2000/svg">
<path d="M4.39084 31.25C5.0809 31.2504 5.64084 31.8099 5.64084 32.5C5.64084 33.1901 5.0809 33.7496 4.39084 33.75H4.37456C3.68446 33.7497 3.12456 33.1902 3.12456 32.5C3.12456 31.8098 3.68446 31.2503 4.37456 31.25H4.39084Z" fill="#FAFAFA"/>
<path d="M3.14572 26.0205C3.27237 25.3423 3.92576 24.8951 4.60406 25.0212C6.40288 25.3563 8.05787 26.229 9.35178 27.5228C10.6457 28.8167 11.5182 30.4716 11.8534 32.2705C11.9798 32.949 11.5324 33.6022 10.8541 33.7288C10.1758 33.8549 9.52237 33.4077 9.39572 32.7295C9.15306 31.4267 8.52128 30.2274 7.5842 29.2904C6.64714 28.3534 5.4478 27.7215 4.14507 27.4788C3.46706 27.3519 3.01945 26.6988 3.14572 26.0205Z" fill="#FAFAFA"/>
<path d="M4.5064 18.7565C7.98966 19.1262 11.2417 20.6791 13.7186 23.1559C16.1956 25.6329 17.7484 28.8848 18.1181 32.3682C18.1908 33.0546 17.6929 33.6706 17.0064 33.7435C16.3202 33.8159 15.7039 33.3181 15.6311 32.6318C15.3217 29.7172 14.0236 26.996 11.9511 24.9235C9.87857 22.8511 7.15722 21.5528 4.24273 21.2435C3.55657 21.1704 3.05835 20.5544 3.13107 19.8682C3.2039 19.1819 3.82017 18.6841 4.5064 18.7565Z" fill="#FAFAFA"/>
<path d="M32.4996 6.25C33.6598 6.25 34.7732 6.71063 35.5936 7.53092C36.4141 8.3514 36.8746 9.46468 36.8746 10.625V29.375C36.8746 30.5353 36.4141 31.6486 35.5936 32.4691C34.7732 33.2894 33.6598 33.75 32.4996 33.75H23.1246C22.4345 33.7497 21.8746 33.1902 21.8746 32.5C21.8746 31.8098 22.4345 31.2503 23.1246 31.25H32.4996C32.9967 31.25 33.4745 31.053 33.8261 30.7015C34.1777 30.3499 34.3746 29.8723 34.3746 29.375V10.625C34.3746 10.1277 34.1777 9.65013 33.8261 9.2985C33.4745 8.94704 32.9967 8.75 32.4996 8.75H7.49956C7.00248 8.75015 6.52457 8.947 6.17307 9.2985C5.82161 9.65011 5.62456 10.1278 5.62456 10.625V13.75C5.62456 14.4404 5.06492 15 4.37456 15C3.68446 14.9997 3.12456 14.4402 3.12456 13.75V10.625C3.12456 9.46481 3.58519 8.35137 4.40549 7.53092C5.22583 6.71058 6.33944 6.25015 7.49956 6.25H32.4996Z" fill="#FAFAFA"/>
</svg>
