<svg width="40" height="40" viewBox="0 0 40 40" fill="none" xmlns="http://www.w3.org/2000/svg">
<path d="M23.2119 28.008C23.8424 28.0718 24.335 28.6041 24.335 29.2515C24.3345 29.8985 23.8422 30.4312 23.2119 30.495L23.085 30.5015H16.918C16.2279 30.5015 15.6684 29.9414 15.668 29.2515C15.668 28.5611 16.2276 28.0015 16.918 28.0015H23.085L23.2119 28.008Z" fill="#FAFAFA"/>
<path d="M23.2119 21.841C23.8424 21.9048 24.335 22.4371 24.335 23.0845C24.3345 23.7315 23.8422 24.2642 23.2119 24.328L23.085 24.3345H16.918C16.2279 24.3345 15.6684 23.7745 15.668 23.0845C15.668 22.3941 16.2276 21.8345 16.918 21.8345H23.085L23.2119 21.841Z" fill="#FAFAFA"/>
<path d="M20.0007 9.50049C20.691 9.50049 21.2507 10.0601 21.2507 10.7505V12.5832H23.085L23.2119 12.5897C23.8425 12.6535 24.335 13.1858 24.335 13.8332C24.335 14.4806 23.8425 15.0129 23.2119 15.0767L23.085 15.0832H21.2507V16.9175C21.2505 17.6077 20.6909 18.1675 20.0007 18.1675C19.3104 18.1675 18.7508 17.6077 18.7507 16.9175V15.0832H16.918C16.2276 15.0832 15.668 14.5235 15.668 13.8332C15.668 13.1428 16.2276 12.5832 16.918 12.5832H18.7507V10.7505C18.7507 10.0601 19.3103 9.50049 20.0007 9.50049Z" fill="#FAFAFA"/>
<path fill-rule="evenodd" clip-rule="evenodd" d="M26.1676 3.3335C27.3169 3.3335 28.4198 3.79037 29.2324 4.60303C30.0446 5.41548 30.5002 6.51737 30.5003 7.66618V17.5636H32.3346C33.5148 17.5638 34.6262 18.0698 35.4303 18.9357C36.2316 19.7986 36.6671 20.9507 36.6673 22.134V32.0965C36.6673 33.2799 36.2316 34.4318 35.4303 35.2948C34.6262 36.1608 33.5148 36.6666 32.3346 36.6668H7.66667C6.48648 36.6666 5.3751 36.1608 4.57096 35.2948C3.7697 34.4318 3.33401 33.2799 3.33398 32.0965V17.1535C3.33405 15.9701 3.76969 14.8182 4.57096 13.9552C5.3751 13.0892 6.48648 12.5834 7.66667 12.5832H9.50098V7.66618C9.50115 6.51714 9.958 5.41553 10.7705 4.60303C11.583 3.79052 12.6846 3.33367 13.8337 3.3335H26.1676ZM30.5003 34.1668H32.3346C32.7894 34.1666 33.2457 33.9728 33.5977 33.5939C33.9527 33.2115 34.1673 32.6743 34.1673 32.0965V22.134C34.1671 21.5564 33.9526 21.0188 33.5977 20.6366C33.2457 20.2579 32.7892 20.0638 32.3346 20.0636H30.5003V34.1668ZM13.8337 5.8335C13.3477 5.83367 12.8817 6.02694 12.5381 6.37061C12.1944 6.71427 12.0011 7.18018 12.001 7.66618V34.1668H28.0003V7.66618C28.0002 7.18018 27.8069 6.71427 27.4632 6.37061C27.1194 6.02699 26.6537 5.8335 26.1676 5.8335H13.8337ZM7.66667 15.0832C7.21197 15.0834 6.75562 15.2772 6.40365 15.6561C6.04861 16.0384 5.83405 16.5758 5.83398 17.1535V32.0965C5.83401 32.6743 6.04858 33.2115 6.40365 33.5939C6.75563 33.9728 7.21194 34.1666 7.66667 34.1668H9.50098V15.0832H7.66667Z" fill="#FAFAFA"/>
</svg>
