<svg width="40" height="40" viewBox="0 0 40 40" fill="none" xmlns="http://www.w3.org/2000/svg">
<path d="M13.75 29.6875C14.9103 29.6875 16.0236 30.148 16.8441 30.9684C17.6645 31.7889 18.125 32.9022 18.125 34.0625V35.625C18.125 36.3154 17.5654 36.875 16.875 36.875C16.1846 36.875 15.625 36.3154 15.625 35.625V34.0625C15.625 33.5652 15.4281 33.0876 15.0765 32.736C14.7249 32.3844 14.2473 32.1875 13.75 32.1875H7.5C7.00272 32.1875 6.52513 32.3844 6.1735 32.736C5.82187 33.0876 5.625 33.5652 5.625 34.0625V35.625C5.625 36.3154 5.06536 36.875 4.375 36.875C3.68464 36.875 3.125 36.3154 3.125 35.625V34.0625C3.125 32.9022 3.58545 31.7889 4.40592 30.9684C5.2264 30.148 6.33968 29.6875 7.5 29.6875H13.75Z" fill="#FAFAFA"/>
<path d="M32.5 29.6875C33.6603 29.6875 34.7736 30.148 35.5941 30.9684C36.4145 31.7889 36.875 32.9022 36.875 34.0625V35.625C36.875 36.3154 36.3154 36.875 35.625 36.875C34.9346 36.875 34.375 36.3154 34.375 35.625V34.0625C34.375 33.5652 34.1781 33.0876 33.8265 32.736C33.4749 32.3844 32.9973 32.1875 32.5 32.1875H26.25C25.7527 32.1875 25.2751 32.3844 24.9235 32.736C24.5719 33.0876 24.375 33.5652 24.375 34.0625V35.625C24.375 36.3154 23.8154 36.875 23.125 36.875C22.4346 36.875 21.875 36.3154 21.875 35.625V34.0625C21.875 32.9022 22.3355 31.7889 23.1559 30.9684C23.9764 30.148 25.0897 29.6875 26.25 29.6875H32.5Z" fill="#FAFAFA"/>
<path d="M16.875 3.125C17.5654 3.125 18.125 3.68464 18.125 4.375C18.125 11.137 13.1833 16.7911 6.73177 17.9167C6.82808 18.0705 6.92566 18.2328 7.02311 18.4033C7.87652 19.8968 8.75 22.0641 8.75 24.6875C8.75 25.3779 8.19036 25.9375 7.5 25.9375C6.80964 25.9375 6.25 25.3779 6.25 24.6875C6.25 22.6235 5.56095 20.8844 4.85189 19.6436C4.49888 19.0258 4.14656 18.5426 3.88672 18.2178C3.75733 18.056 3.65252 17.9341 3.58236 17.8564C3.54731 17.8176 3.51984 17.7898 3.50423 17.7734L3.48958 17.7572L3.49121 17.7588C3.41001 17.6776 3.34683 17.5854 3.29264 17.4902C3.26686 17.445 3.23947 17.4005 3.2194 17.3519C3.18506 17.2686 3.1601 17.1823 3.14453 17.0947C3.13188 17.0234 3.125 16.95 3.125 16.875C3.125 16.7995 3.13169 16.7255 3.14453 16.6536C3.1597 16.5689 3.18342 16.4853 3.21615 16.4046L3.22266 16.3883C3.24196 16.3427 3.26826 16.3008 3.29264 16.2581C3.34671 16.1634 3.41036 16.0721 3.49121 15.9912L3.49284 15.9896C3.49778 15.9845 3.50736 15.9742 3.52051 15.9603C3.54684 15.9325 3.58877 15.8872 3.64421 15.8252C3.7556 15.7005 3.9212 15.5081 4.12272 15.2507C4.5266 14.7346 5.07354 13.9608 5.62174 12.9557C6.71828 10.9453 7.8125 8.02536 7.8125 4.375C7.8125 3.68464 8.37214 3.125 9.0625 3.125C9.75286 3.125 10.3125 3.68464 10.3125 4.375C10.3125 8.53687 9.06288 11.8672 7.81575 14.1536C7.5936 14.5609 7.36581 14.9323 7.15006 15.2734C12.0052 14.0284 15.625 9.60275 15.625 4.375C15.625 3.68464 16.1846 3.125 16.875 3.125Z" fill="#FAFAFA"/>
<path d="M20 15.4167C20.2402 15.4166 20.4803 15.4858 20.6885 15.6234C20.7229 15.6461 20.7569 15.6701 20.7894 15.6966C20.8221 15.7233 20.8533 15.7524 20.8838 15.7829L24.2171 19.1162C24.7053 19.6044 24.7053 20.3956 24.2171 20.8838C23.729 21.3719 22.9377 21.3719 22.4495 20.8838L21.25 19.6842V23.3333C21.25 23.3684 21.248 23.4031 21.2451 23.4375H26.25C26.9404 23.4375 27.5 23.9971 27.5 24.6875C27.5 25.3779 26.9404 25.9375 26.25 25.9375H13.75C13.0596 25.9375 12.5 25.3779 12.5 24.6875C12.5 23.9971 13.0596 23.4375 13.75 23.4375H18.7549C18.752 23.4031 18.75 23.3684 18.75 23.3333V19.6842L17.5505 20.8838C17.0623 21.3719 16.271 21.3719 15.7829 20.8838C15.2947 20.3956 15.2947 19.6044 15.7829 19.1162L19.1162 15.7829C19.3603 15.5389 19.6801 15.4166 20 15.4167Z" fill="#FAFAFA"/>
<path d="M30.9375 3.125C31.6279 3.125 32.1875 3.68464 32.1875 4.375C32.1875 8.02536 33.2817 10.9453 34.3783 12.9557C34.9265 13.9608 35.4734 14.7346 35.8773 15.2507C36.0788 15.5081 36.2444 15.7005 36.3558 15.8252C36.4112 15.8872 36.4532 15.9325 36.4795 15.9603C36.4926 15.9742 36.5022 15.9845 36.5072 15.9896L36.5088 15.9912C36.5894 16.0719 36.6517 16.1637 36.7057 16.2581C36.7316 16.3034 36.7588 16.3479 36.779 16.3965C36.8135 16.4798 36.8381 16.566 36.8538 16.6536C36.8667 16.7256 36.875 16.7994 36.875 16.875C36.875 16.9484 36.866 17.0199 36.8538 17.0898C36.8381 17.1804 36.8131 17.2692 36.7773 17.3551C36.7652 17.3842 36.7476 17.4103 36.7334 17.4382C36.6752 17.5526 36.6045 17.6631 36.5088 17.7588L36.5104 17.7572C36.5081 17.7596 36.5034 17.7654 36.4958 17.7734C36.4802 17.7898 36.4527 17.8176 36.4176 17.8564C36.3475 17.9341 36.2427 18.056 36.1133 18.2178C35.8534 18.5426 35.5011 19.0258 35.1481 19.6436C34.4391 20.8844 33.75 22.6235 33.75 24.6875C33.75 25.3779 33.1904 25.9375 32.5 25.9375C31.8096 25.9375 31.25 25.3779 31.25 24.6875C31.25 22.0641 32.1235 19.8968 32.9769 18.4033C33.0742 18.2331 33.1704 18.0703 33.2666 17.9167C26.8159 16.7904 21.875 11.1364 21.875 4.375C21.875 3.68464 22.4346 3.125 23.125 3.125C23.8154 3.125 24.375 3.68464 24.375 4.375C24.375 9.6022 27.9939 14.0278 32.8483 15.2734C32.6327 14.9325 32.4062 14.5606 32.1842 14.1536C30.9371 11.8672 29.6875 8.53687 29.6875 4.375C29.6875 3.68464 30.2471 3.125 30.9375 3.125Z" fill="#FAFAFA"/>
</svg>
