<svg width="40" height="40" viewBox="0 0 40 40" fill="none" xmlns="http://www.w3.org/2000/svg">
<path d="M20.0006 3.75C20.2601 3.75 20.5144 3.82663 20.7298 3.97135C20.945 4.11599 21.1118 4.32213 21.2099 4.56217L25.0576 13.8753L35.0429 14.6875C35.3 14.7117 35.5446 14.8109 35.746 14.9723C35.9473 15.1337 36.0978 15.3503 36.1774 15.5957C36.257 15.8413 36.2621 16.1052 36.1936 16.3542L36.1285 16.5365C36.0512 16.7119 35.9368 16.8695 35.7916 16.9971L28.1826 23.5596L30.5068 33.3708C30.5682 33.6228 30.5533 33.8872 30.4645 34.1309L30.3847 34.3083C30.2927 34.4775 30.1638 34.6248 30.0071 34.7396L29.8427 34.8421C29.6722 34.9319 29.4835 34.9833 29.2893 34.9919L29.0957 34.987C28.9674 34.9736 28.8418 34.941 28.7229 34.8909L28.5504 34.8031L20.0006 29.5459L11.4508 34.8031L11.2783 34.8909C11.1005 34.9657 10.9078 35.0002 10.7135 34.9919L10.5198 34.9707C10.3936 34.9463 10.2722 34.902 10.1585 34.8421L9.99409 34.7396C9.83741 34.6248 9.70852 34.4775 9.61649 34.3083L9.53673 34.1309C9.44787 33.8872 9.43306 33.6228 9.49442 33.3708L11.8186 23.5677L4.20959 17.0052C4.06204 16.8778 3.94492 16.7196 3.86616 16.543L3.80106 16.3607C3.73105 16.1105 3.73587 15.8445 3.81571 15.5973C3.8956 15.3503 4.04727 15.1325 4.25028 14.9707C4.4028 14.8491 4.57964 14.7632 4.76785 14.7184L4.95828 14.6875L14.9436 13.8753L18.7913 4.56217C18.8894 4.32215 19.0562 4.116 19.2714 3.97135C19.4868 3.82664 19.7411 3.75001 20.0006 3.75ZM10.7835 33.6751L10.7737 33.6735L10.7688 33.68L10.7835 33.6751ZM10.7835 33.6751L10.7688 33.68L10.7737 33.6735L10.7835 33.6751ZM17.2548 14.8291C16.8965 15.6966 16.0826 16.2911 15.1471 16.3672L7.97261 16.9499L13.4527 21.6748L13.6985 21.9173C14.1525 22.4342 14.3736 23.1172 14.3089 23.8021L14.2519 24.1439L12.5852 31.1686L18.6904 27.4154L19.0013 27.2542C19.7442 26.93 20.608 26.9831 21.3108 27.4154L27.4143 31.1702L25.7493 24.1357C25.5343 23.2281 25.8423 22.2761 26.5485 21.6667L32.0172 16.9499L24.8541 16.3672C23.9186 16.2911 23.1047 15.6966 22.7464 14.8291L20.0006 8.18359L17.2548 14.8291Z" fill="#FAFAFA"/>
</svg>
