<svg width="40" height="40" viewBox="0 0 40 40" fill="none" xmlns="http://www.w3.org/2000/svg">
<path fill-rule="evenodd" clip-rule="evenodd" d="M21.2839 4.08753C22.5939 3.37394 24.1185 3.18841 25.737 3.44137C26.12 3.50136 26.454 3.73611 26.6403 4.07614C26.8265 4.4163 26.845 4.82454 26.6891 5.17965C26.6531 5.26162 26.6174 5.3456 26.5817 5.4303C25.8805 7.09421 25.8017 7.95357 25.8916 8.38278C25.948 8.65109 26.0919 8.88279 26.7168 9.14612C27.342 9.40955 27.6083 9.35038 27.8398 9.20309C28.2099 8.96758 28.7695 8.3113 29.4707 6.64775L29.5439 6.4736L29.6074 6.34013C29.7738 6.0412 30.0577 5.82126 30.3936 5.73629C30.7775 5.63929 31.1857 5.72962 31.4922 5.98043C32.6896 6.96028 33.5239 8.15911 33.8685 9.54814C34.213 10.9375 34.0383 12.3998 33.4258 13.8532C32.8399 15.2434 31.9675 16.3525 30.8086 17.0807C29.9029 17.6496 28.8773 17.947 27.778 18.0052C27.5046 18.7281 27.2211 19.4638 26.9105 20.2008C26.5097 21.1519 26.0817 22.0715 25.6589 22.9629C26.5475 23.8115 27.2521 25.0346 27.2523 26.6168C27.2521 28.245 26.4795 30.6581 25.3952 32.6243C24.843 33.6255 24.1663 34.5936 23.3883 35.3278C22.6255 36.0475 21.6297 36.6673 20.4635 36.6673C18.5217 36.6673 15.5445 36.4378 12.8838 36.1578C10.2668 35.8825 7.76917 35.5399 6.86165 35.2806C6.32517 35.1271 5.95508 34.6358 5.95508 34.0778V25.2773C5.95528 25.0484 6.01836 24.8234 6.13737 24.6279L11.279 16.1839C12.001 14.9984 13.3839 14.3838 14.7474 14.6442C16.2422 14.9298 17.4489 15.7941 18.2174 16.9407C18.2646 16.8266 18.3109 16.7116 18.359 16.5973C18.6698 15.8599 18.9959 15.1416 19.3226 14.4407C18.5976 13.6138 18.0942 12.6729 17.8691 11.6282C17.5809 10.29 17.7682 8.89113 18.3542 7.50062C18.9935 5.98377 19.9708 4.80292 21.2839 4.08753ZM14.277 17.1002C13.9381 17.0358 13.5942 17.1884 13.4144 17.4827L8.45508 25.6289V33.0589C9.50667 33.2391 11.2159 33.4694 13.1458 33.6725C15.7867 33.9503 18.6575 34.1673 20.4635 34.1673C20.721 34.1673 21.1302 34.0217 21.6729 33.5097C22.2001 33.0122 22.7296 32.2806 23.2061 31.4166C24.1789 29.6525 24.7521 27.6656 24.7523 26.6168C24.7521 25.7433 24.3288 25.0713 23.7155 24.5807C23.0626 24.0587 22.3271 23.8499 21.987 23.8499H17.1188C16.698 23.8499 16.305 23.6384 16.0739 23.2867C15.8433 22.9353 15.8047 22.491 15.9714 22.1051L16.401 21.109C17.1382 19.4012 16.1043 17.4492 14.277 17.1002ZM23.7513 5.87627C23.2701 5.94237 22.8477 6.08299 22.4801 6.28317C21.7535 6.67905 21.1197 7.37489 20.6572 8.47229C20.2324 9.4806 20.1529 10.3534 20.3138 11.1009C20.4744 11.8462 20.8962 12.5745 21.6566 13.2558C22.0694 13.6259 22.1896 14.2234 21.9512 14.7239C21.5074 15.6554 21.0718 16.6006 20.6637 17.569C20.1816 18.7131 19.7496 19.8609 19.334 21.0016C19.2929 21.1145 19.2596 21.2312 19.2314 21.3499H21.987C22.4546 21.3499 22.9815 21.4542 23.5153 21.6461C23.8887 20.8533 24.2597 20.0519 24.6058 19.2308C25.0139 18.2625 25.3867 17.2903 25.7435 16.3222L25.8298 16.1351C26.0638 15.7239 26.5162 15.4743 27 15.5068C28.0181 15.5751 28.8335 15.3701 29.4788 14.9648C30.1264 14.5579 30.696 13.8902 31.1211 12.8815C31.5648 11.8286 31.6332 10.9225 31.4417 10.1504C31.3594 9.81829 31.2199 9.49088 31.0234 9.16728C30.4835 10.1307 29.8913 10.8613 29.1826 11.3125C27.9939 12.0686 26.7831 11.8858 25.7467 11.4492C24.7103 11.0124 23.7328 10.2743 23.4437 8.89547C23.2605 8.02128 23.3915 7.01903 23.7513 5.87627Z" fill="#FAFAFA"/>
</svg>
