<svg width="40" height="40" viewBox="0 0 40 40" fill="none" xmlns="http://www.w3.org/2000/svg">
<path fill-rule="evenodd" clip-rule="evenodd" d="M21.3752 6.3519C20.5887 5.66069 19.4113 5.66069 18.6248 6.3519L8.20809 15.5059C7.758 15.9015 7.5 16.4717 7.5 17.0709V30.9793C7.5 32.1299 8.43274 33.0626 9.58333 33.0626H14.5833C14.8135 33.0626 15 32.8761 15 32.6459V28.4793C15 25.948 17.052 23.8959 19.5833 23.8959H20.4167C22.948 23.8959 25 25.948 25 28.4793V32.6459C25 32.8761 25.1865 33.0626 25.4167 33.0626H30.4167C31.5673 33.0626 32.5 32.1299 32.5 30.9793V17.0709C32.5 16.4717 32.242 15.9015 31.7919 15.5059L21.3752 6.3519ZM16.9745 4.47399C18.7049 2.95333 21.2951 2.95333 23.0255 4.47399L33.4422 13.628C34.4324 14.4982 35 15.7526 35 17.0709V30.9793C35 33.5106 32.948 35.5626 30.4167 35.5626H25.4167C23.8058 35.5626 22.5 34.2568 22.5 32.6459V28.4793C22.5 27.3287 21.5673 26.3959 20.4167 26.3959H19.5833C18.4327 26.3959 17.5 27.3287 17.5 28.4793V32.6459C17.5 34.2568 16.1942 35.5626 14.5833 35.5626H9.58333C7.05203 35.5626 5 33.5106 5 30.9793V17.0709C5 15.7526 5.56759 14.4982 6.55781 13.628L16.9745 4.47399Z" fill="#FAFAFA"/>
</svg>
