<svg width="40" height="40" viewBox="0 0 40 40" fill="none" xmlns="http://www.w3.org/2000/svg">
<path d="M9.16602 9.99984C9.62625 9.99984 9.99935 10.3729 9.99935 10.8332C9.99935 11.2934 9.62625 11.6665 9.16602 11.6665H7.49935C7.03911 11.6665 6.66602 11.2934 6.66602 10.8332C6.66602 10.3729 7.03911 9.99984 7.49935 9.99984H9.16602Z" fill="#FAFAFA"/>
<path fill-rule="evenodd" clip-rule="evenodd" d="M9.16602 6.6665C11.007 6.6665 12.4993 8.15889 12.4993 9.99984H15.8327C17.6736 9.99984 19.166 11.4922 19.166 13.3332V14.9998C19.166 19.0314 16.303 22.3933 12.4993 23.1655V29.9998C12.4993 31.7259 11.1873 33.1448 9.50619 33.3153L9.16602 33.3332H7.49935L7.15918 33.3153C5.47805 33.1448 4.16602 31.7259 4.16602 29.9998V9.99984C4.16602 8.15889 5.6584 6.6665 7.49935 6.6665H9.16602ZM7.49935 8.33317C6.57887 8.33317 5.83268 9.07936 5.83268 9.99984V29.9998C5.83268 30.9203 6.57887 31.6665 7.49935 31.6665H9.16602C10.0865 31.6665 10.8327 30.9203 10.8327 29.9998V9.99984C10.8327 9.07936 10.0865 8.33317 9.16602 8.33317H7.49935ZM12.4993 21.4565C15.3747 20.7165 17.4993 18.1062 17.4993 14.9998V13.3332C17.4993 12.4127 16.7532 11.6665 15.8327 11.6665H12.4993V21.4565Z" fill="#FAFAFA"/>
<path d="M32.4993 9.99984C32.9596 9.99984 33.3327 10.3729 33.3327 10.8332C33.3327 11.2934 32.9596 11.6665 32.4993 11.6665H30.8327C30.3724 11.6665 29.9993 11.2934 29.9993 10.8332C29.9993 10.3729 30.3724 9.99984 30.8327 9.99984H32.4993Z" fill="#FAFAFA"/>
<path fill-rule="evenodd" clip-rule="evenodd" d="M32.4993 6.6665C34.3403 6.6665 35.8327 8.15889 35.8327 9.99984V29.9998C35.8327 31.7259 34.5206 33.1448 32.8395 33.3153L32.4993 33.3332H30.8327L30.4925 33.3153C28.8114 33.1448 27.4993 31.7259 27.4993 29.9998V23.1655C23.6957 22.3933 20.8327 19.0314 20.8327 14.9998V13.3332C20.8327 11.4922 22.3251 9.99984 24.166 9.99984H27.4993C27.4993 8.15889 28.9917 6.6665 30.8327 6.6665H32.4993ZM30.8327 8.33317C29.9122 8.33317 29.166 9.07936 29.166 9.99984V29.9998C29.166 30.9203 29.9122 31.6665 30.8327 31.6665H32.4993C33.4198 31.6665 34.166 30.9203 34.166 29.9998V9.99984C34.166 9.07936 33.4198 8.33317 32.4993 8.33317H30.8327ZM24.166 11.6665C23.2455 11.6665 22.4993 12.4127 22.4993 13.3332V14.9998C22.4993 18.1062 24.624 20.7165 27.4993 21.4565V11.6665H24.166Z" fill="#FAFAFA"/>
</svg>
