<svg width="40" height="40" viewBox="0 0 40 40" fill="none" xmlns="http://www.w3.org/2000/svg">
<path fill-rule="evenodd" clip-rule="evenodd" d="M29.5825 5.41504C32.1138 5.41504 34.1675 7.4687 34.1675 10V32.0825H35C35.6902 32.0825 36.2498 32.6424 36.25 33.3325C36.25 34.0229 35.6904 34.5825 35 34.5825H5C4.30964 34.5825 3.75 34.0229 3.75 33.3325C3.75022 32.6424 4.30978 32.0825 5 32.0825H5.83252V10C5.83252 7.46869 7.88618 5.41504 10.4175 5.41504H29.5825ZM8.33252 32.0825H31.6675V17.9175H8.33252V32.0825ZM8.33252 15.4175H31.6675V12.9175H8.33252V15.4175ZM10.4175 7.91748C9.26689 7.91748 8.33252 8.84941 8.33252 10V10.4175H31.6675V10C31.6675 8.84941 30.7331 7.91748 29.5825 7.91748H10.4175Z" fill="#FAFAFA"/>
</svg>
