<svg width="40" height="40" viewBox="0 0 40 40" fill="none" xmlns="http://www.w3.org/2000/svg">
<path d="M7.5 11.6667C7.5 13.0475 6.38071 14.1667 5 14.1667C3.61929 14.1667 2.5 13.0475 2.5 11.6667C2.5 10.286 3.61929 9.16675 5 9.16675C6.38071 9.16675 7.5 10.286 7.5 11.6667Z" fill="#FAFAFA"/>
<path d="M37.5 11.6667C37.5 13.0475 36.3807 14.1667 35 14.1667C33.6193 14.1667 32.5 13.0475 32.5 11.6667C32.5 10.286 33.6193 9.16675 35 9.16675C36.3807 9.16675 37.5 10.286 37.5 11.6667Z" fill="#FAFAFA"/>
<path d="M7.5 11.6667C7.5 13.0475 6.38071 14.1667 5 14.1667C3.61929 14.1667 2.5 13.0475 2.5 11.6667C2.5 10.286 3.61929 9.16675 5 9.16675C6.38071 9.16675 7.5 10.286 7.5 11.6667Z" stroke="#FAFAFA" stroke-linecap="round" stroke-linejoin="round"/>
<path d="M37.5 11.6667C37.5 13.0475 36.3807 14.1667 35 14.1667C33.6193 14.1667 32.5 13.0475 32.5 11.6667C32.5 10.286 33.6193 9.16675 35 9.16675C36.3807 9.16675 37.5 10.286 37.5 11.6667Z" stroke="#FAFAFA" stroke-linecap="round" stroke-linejoin="round"/>
<path fill-rule="evenodd" clip-rule="evenodd" d="M15.0003 9.58341C15.0003 7.97258 16.3062 6.66675 17.917 6.66675H22.0837C23.6945 6.66675 25.0003 7.97258 25.0003 9.58341V10.4167H35.0003C35.6907 10.4167 36.2503 10.9764 36.2503 11.6667C36.2503 12.3571 35.6907 12.9167 35.0003 12.9167H28.7515C31.9802 15.3423 34.1696 19.0767 34.5309 23.3334H35.417C37.0278 23.3334 38.3337 24.6392 38.3337 26.2501V30.4167C38.3337 32.0276 37.0278 33.3334 35.417 33.3334H31.2503C29.6395 33.3334 28.3337 32.0276 28.3337 30.4167V26.2501C28.3337 24.6392 29.6395 23.3334 31.2503 23.3334H32.0198C31.5728 18.9841 28.8185 15.317 25.0003 13.5793V13.7501C25.0003 15.3609 23.6945 16.6667 22.0837 16.6667H17.917C16.3062 16.6667 15.0003 15.3609 15.0003 13.7501V13.5793C11.1822 15.317 8.4279 18.9841 7.98086 23.3334H8.75033C10.3612 23.3334 11.667 24.6392 11.667 26.2501V30.4167C11.667 32.0276 10.3612 33.3334 8.75033 33.3334H4.58366C2.97283 33.3334 1.66699 32.0276 1.66699 30.4167V26.2501C1.66699 24.6392 2.97283 23.3334 4.58366 23.3334H5.46979C5.83104 19.0767 8.0204 15.3423 11.2492 12.9167H5.00033C4.30997 12.9167 3.75033 12.3571 3.75033 11.6667C3.75033 10.9764 4.30997 10.4167 5.00033 10.4167H15.0003V9.58341ZM17.5003 9.58341C17.5003 9.3533 17.6869 9.16675 17.917 9.16675H22.0837C22.3138 9.16675 22.5003 9.3533 22.5003 9.58341V13.7501C22.5003 13.9802 22.3138 14.1667 22.0837 14.1667H17.917C17.6869 14.1667 17.5003 13.9802 17.5003 13.7501V9.58341ZM4.58366 25.8334C4.35354 25.8334 4.16699 26.02 4.16699 26.2501V30.4167C4.16699 30.6469 4.35354 30.8334 4.58366 30.8334H8.75033C8.98044 30.8334 9.16699 30.6469 9.16699 30.4167V26.2501C9.16699 26.02 8.98044 25.8334 8.75033 25.8334H4.58366ZM31.2503 25.8334C31.0202 25.8334 30.8337 26.02 30.8337 26.2501V30.4167C30.8337 30.6469 31.0202 30.8334 31.2503 30.8334H35.417C35.6471 30.8334 35.8337 30.6469 35.8337 30.4167V26.2501C35.8337 26.02 35.6471 25.8334 35.417 25.8334H31.2503Z" fill="#FAFAFA"/>
</svg>
