<svg width="40" height="40" viewBox="0 0 40 40" fill="none" xmlns="http://www.w3.org/2000/svg">
<path fill-rule="evenodd" clip-rule="evenodd" d="M20.8265 3.35417C22.0649 3.41564 23.2846 3.6139 24.4642 3.94173L24.9671 4.09147L25.068 4.12402C25.0947 4.13253 25.1212 4.14143 25.1478 4.15007C25.2971 4.19856 25.4459 4.24876 25.5938 4.30143C25.6586 4.32453 25.7229 4.34915 25.7874 4.37305C25.9034 4.41598 26.0191 4.45939 26.1341 4.50488C26.2016 4.53158 26.2688 4.55869 26.3359 4.58626C26.4816 4.64613 26.6266 4.70783 26.7705 4.77181C26.802 4.78582 26.8335 4.79993 26.8649 4.81413C27.2876 5.00512 27.7026 5.21321 28.1084 5.43913C28.1286 5.45035 28.1485 5.462 28.1686 5.47331C28.3839 5.59434 28.5966 5.72022 28.8066 5.85091C28.82 5.85925 28.834 5.86695 28.8473 5.87533C29.025 5.98659 29.1997 6.10254 29.373 6.22038C30.2316 6.80423 31.0405 7.46953 31.7852 8.21419C31.969 8.39806 32.148 8.58596 32.3223 8.77734C32.4754 8.94551 32.6242 9.11797 32.7699 9.29167C32.8266 9.35937 32.8819 9.42823 32.9375 9.49674C33.036 9.61806 33.1324 9.74079 33.2272 9.86458C33.2746 9.92638 33.3224 9.98773 33.3688 10.0501C33.5029 10.2302 33.6347 10.412 33.7611 10.597C33.9137 10.8204 34.0609 11.0472 34.2021 11.2773C34.692 12.075 35.1135 12.9115 35.4619 13.7773C35.7878 14.5874 36.0491 15.4234 36.2448 16.2773C36.4324 17.0962 36.5586 17.9318 36.6208 18.7773C36.6506 19.1827 36.6663 19.5904 36.6663 19.9997L36.6452 20.8265C36.6377 20.9771 36.6274 21.1274 36.6159 21.2773C36.5509 22.123 36.4222 22.9586 36.2318 23.7773C36.0331 24.6315 35.7683 25.4675 35.4391 26.2773C35.0871 27.1435 34.6618 27.98 34.168 28.7773C33.6193 29.6632 32.9854 30.5008 32.2718 31.2773C32.1135 31.4496 31.9513 31.619 31.7852 31.7852L31.1862 32.3548C30.456 33.016 29.6728 33.607 28.8473 34.124C28.6743 34.2324 28.4983 34.3363 28.3216 34.4382C28.2822 34.4608 28.2423 34.4825 28.2028 34.5049C28.0804 34.5741 27.9574 34.6423 27.8333 34.7083C27.8003 34.7259 27.7688 34.7463 27.7357 34.7637L27.5436 34.8564C27.448 34.905 27.3521 34.953 27.2555 34.9997C27.1911 35.0308 27.1283 35.0654 27.0635 35.0957C27.0512 35.1015 27.0384 35.1062 27.026 35.112C26.8357 35.2005 26.6434 35.2847 26.4499 35.3659C26.3437 35.4105 26.2363 35.4521 26.1292 35.4945C26.0503 35.5257 25.971 35.5556 25.8916 35.5856C25.7655 35.6333 25.6396 35.681 25.5124 35.7256C25.332 35.7888 25.1513 35.8525 24.9688 35.9095C23.3747 36.4074 21.7004 36.6663 19.9997 36.6663L19.1729 36.6452C15.3282 36.4544 11.6666 34.9386 8.81315 32.3548L8.21419 31.7852C8.04805 31.619 7.88588 31.4496 7.72754 31.2773C7.01394 30.5008 6.38002 29.6632 5.83138 28.7773C4.4333 26.5199 3.58874 23.9491 3.38346 21.2773C3.37194 21.1274 3.36164 20.9771 3.35417 20.8265L3.33301 19.9997C3.33301 19.5904 3.34879 19.1827 3.37858 18.7773C3.44071 17.9318 3.56695 17.0962 3.75456 16.2773C3.9502 15.4234 4.21152 14.5874 4.53743 13.7773C4.88583 12.9115 5.30739 12.075 5.7972 11.2773C6.34078 10.3921 6.96933 9.55447 7.67708 8.77734C7.85139 8.58596 8.03033 8.39806 8.21419 8.21419C11.3398 5.08859 15.5794 3.33301 19.9997 3.33301L20.8265 3.35417ZM19.9997 5.83301C16.8546 5.83301 13.8168 6.87843 11.3522 8.77734C10.8725 9.14693 10.4146 9.54893 9.98177 9.98177C9.57158 10.392 9.18939 10.8249 8.83594 11.2773C8.22665 12.0573 7.70275 12.8956 7.27181 13.7773C6.88029 14.5785 6.56564 15.4157 6.33105 16.2773C6.10931 17.0918 5.95856 17.9283 5.88509 18.7773C5.85005 19.1823 5.83301 19.5901 5.83301 19.9997C5.83301 20.4279 5.85169 20.8542 5.88997 21.2773C5.96682 22.1266 6.12048 22.9631 6.3457 23.7773C6.58415 24.6394 6.90376 25.4765 7.29948 26.2773C7.7354 27.1595 8.26334 27.9982 8.87825 28.7773C9.21958 29.2098 9.58828 29.6241 9.98177 30.0176C10.4363 30.4721 10.9194 30.8926 11.4255 31.2773C13.877 33.141 16.8855 34.1663 19.9997 34.1663C20.3634 34.1663 20.7252 34.1468 21.0853 34.1191C20.8183 33.9518 20.5536 33.7794 20.2959 33.5967C19.7585 33.2157 19.2421 32.8007 18.7497 32.3548L18.167 31.8014L18.1507 31.7852C17.9847 31.6191 17.8223 31.4496 17.6641 31.2773C17.1249 30.6906 16.6303 30.0696 16.1846 29.4186C16.0406 29.2083 15.9018 28.9936 15.7679 28.7773C14.37 26.52 13.5252 23.9489 13.32 21.2773C13.3085 21.1276 13.2982 20.9769 13.2907 20.8265L13.2695 19.9997C13.2695 19.5907 13.2853 19.1825 13.3151 18.7773C13.3773 17.9321 13.5035 17.096 13.6911 16.2773C13.8867 15.4236 14.1481 14.5872 14.474 13.7773C14.8223 12.9116 15.244 12.0749 15.7337 11.2773C16.2772 10.3923 16.906 9.55433 17.6136 8.77734C17.7878 8.58608 17.967 8.39794 18.1507 8.21419C19.0448 7.32019 20.0308 6.53938 21.0853 5.87858C20.7252 5.85092 20.3633 5.83301 19.9997 5.83301ZM23.1605 32.4395C23.7416 32.7559 24.3434 33.031 24.9622 33.263C25.1747 33.1836 25.3854 33.1003 25.5938 33.0107L28.5202 21.2773L28.6862 20.6165L31.0479 11.1357C30.7264 10.7351 30.3843 10.3485 30.0176 9.98177C29.6898 9.65396 29.3473 9.34414 28.9922 9.05241L23.1605 32.4395ZM28.613 31.2415C29.1039 30.8654 29.5754 30.4597 30.0176 30.0176C32.6743 27.3608 34.1663 23.7569 34.1663 19.9997C34.1663 17.9488 33.7196 15.9446 32.8838 14.1143L28.613 31.2415ZM24.9655 6.7347C24.7603 6.81158 24.5566 6.89253 24.3551 6.97884L18.8962 28.8734C19.2153 29.2705 19.5546 29.6539 19.9183 30.0176C20.249 30.3483 20.5949 30.6611 20.9534 30.9551L26.7852 7.56478C26.1987 7.24488 25.5904 6.96856 24.9655 6.7347ZM21.2887 8.77734C20.8091 9.14686 20.3511 9.54903 19.9183 9.98177C19.5082 10.3918 19.1258 10.8251 18.7725 11.2773C18.1633 12.0571 17.6392 12.8957 17.2083 13.7773C16.8169 14.5783 16.5022 15.4159 16.2676 16.2773C16.0459 17.0916 15.8951 17.9285 15.8216 18.7773C15.7866 19.1821 15.7696 19.5903 15.7695 19.9997C15.7695 20.4277 15.7883 20.8545 15.8265 21.2773C15.9033 22.1264 16.0571 22.9633 16.2822 23.7773C16.4837 24.5057 16.746 25.2155 17.0602 25.9014L21.3311 8.77734L21.3392 8.73828C21.3223 8.75118 21.3056 8.76436 21.2887 8.77734Z" fill="#FAFAFA"/>
</svg>
