<svg width="40" height="40" viewBox="0 0 40 40" fill="none" xmlns="http://www.w3.org/2000/svg">
<path fill-rule="evenodd" clip-rule="evenodd" d="M27.4814 2.77246C29.0921 2.77255 30.3972 4.07789 30.3975 5.68848V19.4307L34.5449 23.8008L34.5615 23.8203L36.8516 26.332C37.3162 26.8423 37.2785 27.6328 36.7686 28.0977C36.2582 28.5625 35.4669 28.5269 35.002 28.0166L34.8887 27.8906V34.3105C34.8885 35.9211 33.5822 37.2263 31.9717 37.2266H26.9395C26.9286 37.2268 26.9171 37.2285 26.9062 37.2285H20.3867C20.3761 37.2285 20.3641 37.2268 20.3535 37.2266H4.07422C3.38409 37.2263 2.82422 36.6668 2.82422 35.9766V13.5762C2.82448 12.8862 3.38425 12.3264 4.07422 12.3262H10.1162V5.68848C10.1164 4.07783 11.4225 2.77246 13.0332 2.77246H27.4814ZM5.32422 34.7266H12.4375C12.418 34.5905 12.4043 34.4519 12.4043 34.3105V27.3721L12.2549 27.5244C11.7695 28.0153 10.9782 28.0196 10.4873 27.5342C9.99689 27.0488 9.99232 26.2573 10.4775 25.7666L12.9072 23.3076V14.8262H5.32422V34.7266ZM23.9688 16.2891C23.8067 16.1187 23.5355 16.116 23.3701 16.2832L15.4072 24.335V34.7266H19.1367V29.0283C19.1369 27.4178 20.4423 26.1126 22.0527 26.1123H25.2402C26.8505 26.1128 28.156 27.418 28.1562 29.0283V34.7266H31.9717C32.2015 34.7263 32.3885 34.5404 32.3887 34.3105V25.1602L23.9688 16.2891ZM22.0527 28.6123C21.823 28.6126 21.6369 28.7985 21.6367 29.0283V34.7266H25.6562V29.0283C25.656 28.7987 25.4698 28.6128 25.2402 28.6123H22.0527ZM13.0332 5.27246C12.8032 5.27246 12.6164 5.45855 12.6162 5.68848V12.3262H14.1572C14.8474 12.3262 15.407 12.8861 15.4072 13.5762V20.7803L21.5928 14.5254C22.7507 13.3543 24.6483 13.3732 25.7822 14.5674L27.8975 16.7959V5.68848C27.8972 5.4586 27.7114 5.27255 27.4814 5.27246H13.0332Z" fill="#FAFAFA"/>
</svg>
