<svg width="40" height="40" viewBox="0 0 40 40" fill="none" xmlns="http://www.w3.org/2000/svg">
<path d="M33.75 23.333C34.4404 23.333 35 23.8927 35 24.583V30.416C35 32.9472 32.9481 34.9998 30.417 35H9.58301C7.05185 34.9998 5 32.9472 5 30.416V24.583C5 23.8927 5.55964 23.333 6.25 23.333C6.94036 23.333 7.5 23.8927 7.5 24.583V30.416C7.5 31.5665 8.43256 32.4998 9.58301 32.5H30.417C31.5674 32.4998 32.5 31.5665 32.5 30.416V24.583C32.5 23.8927 33.0596 23.333 33.75 23.333ZM20 5C20.3315 5.00005 20.6494 5.13183 20.8838 5.36621L26.7168 11.1992C27.2049 11.6873 27.2049 12.4786 26.7168 12.9668C26.2286 13.455 25.4374 13.455 24.9492 12.9668L21.25 9.26758V25C21.25 25.6903 20.6903 26.2499 20 26.25C19.3096 26.25 18.75 25.6904 18.75 25V9.26758L15.0508 12.9668C14.5626 13.455 13.7704 13.455 13.2822 12.9668C12.7945 12.4786 12.7943 11.6872 13.2822 11.1992L19.1162 5.36621C19.3506 5.13185 19.6685 5 20 5Z" fill="#FAFAFA"/>
</svg>
