<svg width="40" height="40" viewBox="0 0 40 40" fill="none" xmlns="http://www.w3.org/2000/svg">
<path fill-rule="evenodd" clip-rule="evenodd" d="M5 7.91667C5 6.30584 6.30584 5 7.91667 5H12.0833C13.6942 5 15 6.30584 15 7.91667V8.75H25V7.91667C25 6.30584 26.3058 5 27.9167 5H32.0833C33.6942 5 35 6.30584 35 7.91667V12.0833C35 13.6942 33.6942 15 32.0833 15H31.25V17.0833C31.25 17.7737 30.6904 18.3333 30 18.3333C29.3096 18.3333 28.75 17.7737 28.75 17.0833V15H27.9167C26.3058 15 25 13.6942 25 12.0833V11.25H15V12.0833C15 13.6942 13.6942 15 12.0833 15H11.25V25H11.6667C13.2775 25 14.5833 26.3058 14.5833 27.9167V28.75H17.0833C17.7737 28.75 18.3333 29.3096 18.3333 30C18.3333 30.6904 17.7737 31.25 17.0833 31.25H14.5833V32.0833C14.5833 33.6942 13.2775 35 11.6667 35H7.91667C6.30584 35 5 33.6942 5 32.0833V27.9167C5 26.3058 6.30584 25 7.91667 25H8.75V15H7.91667C6.30584 15 5 13.6942 5 12.0833V7.91667ZM12.0833 12.5C12.3135 12.5 12.5 12.3135 12.5 12.0833V7.91667C12.5 7.68655 12.3135 7.5 12.0833 7.5H7.91667C7.68655 7.5 7.5 7.68655 7.5 7.91667V12.0833C7.5 12.3135 7.68655 12.5 7.91667 12.5H12.0833ZM7.91667 27.5C7.68655 27.5 7.5 27.6865 7.5 27.9167V32.0833C7.5 32.3135 7.68655 32.5 7.91667 32.5H11.6667C11.8968 32.5 12.0833 32.3135 12.0833 32.0833V27.9167C12.0833 27.6865 11.8968 27.5 11.6667 27.5H7.91667ZM27.9167 7.5C27.6865 7.5 27.5 7.68655 27.5 7.91667V12.0833C27.5 12.3135 27.6865 12.5 27.9167 12.5H32.0833C32.3135 12.5 32.5 12.3135 32.5 12.0833V7.91667C32.5 7.68655 32.3135 7.5 32.0833 7.5H27.9167ZM19.2344 21.8705C18.7748 20.262 20.262 18.7748 21.8705 19.2344L33.2564 22.4875C35.0961 23.0132 35.3662 25.5082 33.6816 26.4153L28.9585 28.9585L26.4153 33.6816C25.5082 35.3662 23.0132 35.0961 22.4875 33.2564L19.2344 21.8705ZM29.0108 28.8614C29.0107 28.8616 29.0109 28.8612 29.0108 28.8614V28.8614ZM28.862 29.0105C28.8618 29.0106 28.8622 29.0104 28.862 29.0105V29.0105ZM21.82 21.82L24.6429 31.7001L26.8096 27.6762C27.0075 27.3087 27.3087 27.0075 27.6762 26.8096L31.7001 24.6429L21.82 21.82Z" fill="#FAFAFA"/>
</svg>
