<svg width="32" height="32" viewBox="0 0 32 32" fill="none" xmlns="http://www.w3.org/2000/svg">
<path d="M8.37832 20.3753C7.96236 20.5127 7.60542 20.65 7.33398 20.7618V28.3332C7.33398 28.8855 6.88627 29.3332 6.33398 29.3332C5.7817 29.3332 5.33398 28.8855 5.33398 28.3332V5.86535C5.33398 4.9852 5.83802 4.13189 6.72052 3.77825C7.76963 3.35783 9.79409 2.6665 11.8578 2.6665C13.4694 2.6665 15.0349 3.44229 16.3401 4.08907L16.4443 4.14069C17.8866 4.85472 19.0483 5.40724 20.1435 5.40724C21.2632 5.40724 22.4203 5.14936 23.3703 4.85357C24.8648 4.38831 26.6673 5.42576 26.6673 7.18273V19.2825C26.6673 20.1626 26.1633 21.0159 25.2808 21.3696C24.2317 21.79 22.2072 22.4813 20.1435 22.4813C18.5319 22.4813 16.9664 21.7055 15.6612 21.0587L15.557 21.0071C14.1147 20.2931 12.953 19.7406 11.8578 19.7406C10.6332 19.7406 9.36658 20.0489 8.37832 20.3753Z" fill="#FAFAFA"/>
</svg>
