<svg width="32" height="32" viewBox="0 0 32 32" fill="none" xmlns="http://www.w3.org/2000/svg">
<path d="M29.415 11.7941L12 29.2079C11.8142 29.3936 11.5938 29.541 11.3511 29.6415C11.1084 29.7421 10.8483 29.7938 10.5856 29.7938C10.3229 29.7938 10.0628 29.7421 9.82012 29.6415C9.57744 29.541 9.35695 29.3936 9.17122 29.2079L2.58497 22.6229C2.39921 22.4372 2.25185 22.2167 2.15131 21.974C2.05077 21.7313 1.99902 21.4712 1.99902 21.2085C1.99902 20.9458 2.05077 20.6857 2.15131 20.443C2.25185 20.2004 2.39921 19.9799 2.58497 19.7941L6.23122 16.1479C6.27766 16.1014 6.3328 16.0645 6.3935 16.0394C6.4542 16.0142 6.51926 16.0012 6.58497 16.0012C6.65068 16.0012 6.71574 16.0142 6.77644 16.0394C6.83714 16.0645 6.89229 16.1014 6.93872 16.1479L11.2925 20.5016C11.3897 20.5988 11.5059 20.6749 11.6338 20.7251C11.7618 20.7754 11.8987 20.7987 12.0361 20.7936C12.1734 20.7886 12.3083 20.7553 12.4322 20.6958C12.5561 20.6363 12.6664 20.5519 12.7562 20.4479C12.9205 20.2498 13.0039 19.997 12.99 19.7401C12.9761 19.4831 12.8659 19.2409 12.6812 19.0616L8.35247 14.7329C8.25897 14.6391 8.20645 14.5122 8.20645 14.3798C8.20645 14.2474 8.25897 14.1204 8.35247 14.0266L10.2275 12.1516C10.2739 12.1051 10.3291 12.0683 10.3898 12.0431C10.4505 12.0179 10.5155 12.005 10.5812 12.005C10.6469 12.005 10.712 12.0179 10.7727 12.0431C10.8334 12.0683 10.8885 12.1051 10.935 12.1516L15.2887 16.5054C15.3859 16.6025 15.5022 16.6786 15.6301 16.7289C15.758 16.7791 15.895 16.8024 16.0323 16.7974C16.1697 16.7923 16.3045 16.759 16.4284 16.6995C16.5523 16.6401 16.6626 16.5557 16.7525 16.4516C16.9167 16.2535 17.0002 16.0008 16.9863 15.7438C16.9724 15.4869 16.8621 15.2446 16.6775 15.0654L12.3537 10.7329C12.2602 10.6391 12.2077 10.5122 12.2077 10.3798C12.2077 10.2474 12.2602 10.1204 12.3537 10.0266L14.2287 8.15163C14.3225 8.05813 14.4494 8.00561 14.5818 8.00561C14.7142 8.00561 14.8412 8.05813 14.935 8.15163L19.2887 12.5054C19.386 12.6027 19.5022 12.679 19.6303 12.7294C19.7584 12.7797 19.8954 12.8031 20.0329 12.7981C20.1705 12.793 20.3054 12.7596 20.4295 12.7C20.5535 12.6404 20.6639 12.5559 20.7537 12.4516C20.9178 12.2534 21.0011 12.0005 20.9869 11.7436C20.9728 11.4866 20.8623 11.2445 20.6775 11.0654L16.3537 6.73288C16.2602 6.63915 16.2077 6.51216 16.2077 6.37976C16.2077 6.24736 16.2602 6.12036 16.3537 6.02663L20 2.38038C20.1857 2.19462 20.4062 2.04726 20.6489 1.94672C20.8916 1.84618 21.1517 1.79443 21.4143 1.79443C21.677 1.79443 21.9371 1.84618 22.1798 1.94672C22.4225 2.04726 22.643 2.19462 22.8287 2.38038L29.415 8.96538C29.6007 9.1511 29.7481 9.3716 29.8486 9.61428C29.9492 9.85696 30.0009 10.1171 30.0009 10.3798C30.0009 10.6424 29.9492 10.9025 29.8486 11.1452C29.7481 11.3879 29.6007 11.6084 29.415 11.7941Z" fill="#FAFAFA"/>
</svg>
