<svg width="32" height="32" viewBox="0 0 32 32" fill="none" xmlns="http://www.w3.org/2000/svg">
<path fill-rule="evenodd" clip-rule="evenodd" d="M15.0013 29.3334H6.66797L6.46224 29.3282C4.41685 29.2246 2.7768 27.5845 2.67318 25.5391L2.66797 25.3334V6.66675C2.66797 4.52661 4.34871 2.77903 6.46224 2.67196L6.66797 2.66675H15.0013V29.3334ZM10.0013 13.6667C9.7262 13.6667 9.46485 13.78 9.27734 13.9766L9.20182 14.0665L7.20182 16.7332C6.87056 17.1748 6.95957 17.8014 7.40104 18.1329C7.84272 18.464 8.46938 18.3751 8.80078 17.9337L10.0013 16.3321L11.2018 17.9337L11.2669 18.0118C11.6105 18.3844 12.1874 18.4435 12.6016 18.1329C13.0154 17.822 13.1199 17.2518 12.8581 16.8178L12.8008 16.7332L10.8008 14.0665C10.612 13.815 10.3158 13.6669 10.0013 13.6667Z" fill="#FAFAFA"/>
<path fill-rule="evenodd" clip-rule="evenodd" d="M25.5404 2.67196C27.6539 2.77903 29.3346 4.52661 29.3346 6.66675V25.3334L29.3294 25.5391C29.2258 27.5845 27.5858 29.2246 25.5404 29.3282L25.3346 29.3334H17.0013V2.66675H25.3346L25.5404 2.67196ZM24.6016 13.8673C24.1873 13.5566 23.6104 13.6156 23.2669 13.9884L23.2018 14.0665L22.0013 15.6667L20.8008 14.0665L20.7357 13.9884C20.3922 13.6156 19.8153 13.5566 19.401 13.8673C18.987 14.1781 18.8826 14.7483 19.1445 15.1824L19.2018 15.267L21.2018 17.9337C21.3907 18.1852 21.6867 18.3334 22.0013 18.3334C22.3159 18.3334 22.6119 18.1852 22.8008 17.9337L24.8008 15.267L24.8581 15.1824C25.12 14.7483 25.0156 14.1781 24.6016 13.8673Z" fill="#FAFAFA"/>
</svg>
