<svg width="32" height="32" viewBox="0 0 32 32" fill="none" xmlns="http://www.w3.org/2000/svg">
<path d="M15.1822 10.9563L21.6886 7.06089C23.8447 5.77008 26.6016 6.53611 27.8464 8.77187L29.2207 11.2402C32.1961 16.5843 30.4304 23.4177 25.2769 26.5031C21.8123 28.5773 17.5248 28.4903 14.1412 26.2772L6.71259 21.4184C6.27775 21.134 6.04774 20.6229 6.12324 20.1088L6.27125 19.1011C6.52115 17.3996 8.05388 16.2304 9.69469 16.4895L11.4796 16.7714L6.97176 8.67499C6.1419 7.18448 6.63438 5.27857 8.07175 4.41803C9.50912 3.55748 11.3471 4.06817 12.1769 5.55868L15.1822 10.9563Z" fill="#FAFAFA"/>
<path fill-rule="evenodd" clip-rule="evenodd" d="M3.37502 9.22279C3.89056 9.42088 4.1479 9.99939 3.9498 10.5149C3.12741 12.6552 3.12741 14.5323 3.9498 16.6726C4.1479 17.1881 3.89056 17.7666 3.37502 17.9647C2.85949 18.1628 2.28098 17.9055 2.08288 17.3899C1.08305 14.7879 1.08305 12.3996 2.08288 9.79757C2.28098 9.28203 2.85949 9.0247 3.37502 9.22279Z" fill="#FAFAFA"/>
</svg>
