<svg width="32" height="32" viewBox="0 0 32 32" fill="none" xmlns="http://www.w3.org/2000/svg">
<path fill-rule="evenodd" clip-rule="evenodd" d="M22.0312 5.66675C22.3817 5.66836 22.7279 5.74892 23.043 5.90243C23.3561 6.05503 23.6297 6.27689 23.8464 6.54956L28.4857 12.3477C28.8149 12.7582 28.9969 13.2681 29 13.7944V21.3334C29 21.9523 28.754 22.5456 28.3164 22.9832C27.8788 23.4207 27.2855 23.6667 26.6667 23.6667H26.1927C26.0886 24.033 25.9287 24.3831 25.7148 24.7032C25.312 25.3061 24.7402 25.7772 24.0703 26.0548C23.4005 26.3322 22.6629 26.4044 21.9518 26.2631C21.2406 26.1216 20.587 25.772 20.0742 25.2592C19.6307 24.8156 19.3095 24.2671 19.1393 23.6667H12.8594C12.7555 24.0332 12.5954 24.3831 12.3815 24.7032C11.9787 25.3061 11.4069 25.7772 10.737 26.0548C10.0671 26.3322 9.3296 26.4044 8.61849 26.2631C7.90723 26.1216 7.25368 25.772 6.74089 25.2592C6.29745 24.8158 5.97631 24.267 5.80599 23.6667H5.33333C4.7145 23.6667 4.12118 23.4207 3.68359 22.9832C3.24601 22.5456 3 21.9523 3 21.3334V8.00008C3 7.38124 3.24601 6.78793 3.68359 6.35034C4.12118 5.91276 4.71449 5.66675 5.33333 5.66675H22.0312ZM9.33333 21.0001C9.0037 21.0001 8.68163 21.0982 8.40755 21.2813C8.13349 21.4645 7.91911 21.7242 7.79297 22.0287C7.66683 22.3333 7.63491 22.669 7.69922 22.9923C7.76359 23.3154 7.92197 23.6122 8.15495 23.8451C8.38793 24.0781 8.68469 24.2365 9.00781 24.3009C9.33111 24.3652 9.66682 24.3333 9.97135 24.2071C10.2759 24.081 10.5356 23.8666 10.7188 23.5925C10.9019 23.3184 11 22.9964 11 22.6667C11 22.2247 10.8243 21.8009 10.5117 21.4884C10.1992 21.1758 9.77536 21.0001 9.33333 21.0001ZM22.6667 21.0001C22.337 21.0001 22.015 21.0982 21.7409 21.2813C21.4668 21.4645 21.2524 21.7242 21.1263 22.0287C21.0002 22.3333 20.9682 22.669 21.0326 22.9923C21.0969 23.3154 21.2553 23.6122 21.4883 23.8451C21.7213 24.0781 22.018 24.2365 22.3411 24.3009C22.6644 24.3652 23.0001 24.3333 23.3047 24.2071C23.6092 24.081 23.8689 23.8666 24.0521 23.5925C24.2352 23.3184 24.3333 22.9964 24.3333 22.6667C24.3333 22.2247 24.1576 21.8009 23.8451 21.4884C23.5325 21.1758 23.1087 21.0001 22.6667 21.0001ZM16 11.0001C15.4477 11.0001 15 11.4478 15 12.0001V13.6667H13.3333C12.781 13.6667 12.3333 14.1145 12.3333 14.6667C12.3333 15.219 12.781 15.6667 13.3333 15.6667H15V17.3334C15 17.8857 15.4477 18.3334 16 18.3334C16.5523 18.3334 17 17.8857 17 17.3334V15.6667H18.6667C19.219 15.6667 19.6667 15.219 19.6667 14.6667C19.6667 14.1145 19.219 13.6667 18.6667 13.6667H17V12.0001C17 11.4478 16.5523 11.0001 16 11.0001Z" fill="#FAFAFA"/>
</svg>
