<svg width="32" height="32" viewBox="0 0 32 32" fill="none" xmlns="http://www.w3.org/2000/svg">
<path fill-rule="evenodd" clip-rule="evenodd" d="M7.41637 7.32371C7.41637 6.88723 7.5064 6.45503 7.68132 6.05178C7.85624 5.64853 8.11263 5.28213 8.43585 4.97349C8.75906 4.66486 9.14278 4.42003 9.56508 4.253C9.98738 4.08597 10.44 4 10.8971 4C11.3542 4 11.8068 4.08597 12.2291 4.253C12.6514 4.42003 13.0351 4.66486 13.3583 4.97349C13.6816 5.28213 13.9379 5.64853 14.1129 6.05178C14.2878 6.45503 14.3778 6.88723 14.3778 7.32371C14.3778 8.20521 14.0111 9.05061 13.3583 9.67392C12.7056 10.2972 11.8202 10.6474 10.8971 10.6474C9.97395 10.6474 9.08861 10.2972 8.43585 9.67392C7.78309 9.05061 7.41637 8.20521 7.41637 7.32371ZM17.5038 7.32371C17.5038 6.4422 17.8705 5.59681 18.5232 4.97349C19.176 4.35018 20.0613 4 20.9845 4C21.9076 4 22.793 4.35018 23.4457 4.97349C24.0985 5.59681 24.4652 6.4422 24.4652 7.32371C24.4652 8.20521 24.0985 9.05061 23.4457 9.67392C22.793 10.2972 21.9076 10.6474 20.9845 10.6474C20.0613 10.6474 19.176 10.2972 18.5232 9.67392C17.8705 9.05061 17.5038 8.20521 17.5038 7.32371ZM15.215 23.1528L14.4381 24.942L14.4207 24.9863C14.0056 26.0447 14.1506 27.1375 14.7639 27.9923C14.6596 28 14.5575 28 14.4544 28C13.6972 28 13.0676 27.6391 12.6885 26.9161L11.3029 23.9068L9.41182 22.462L9.28543 23.5448C9.28543 24.0264 9.03383 24.3884 8.78106 24.6298L6.00761 27.3977C5.62962 27.7586 5.12525 27.8793 4.62088 27.8793C4.11651 27.8793 3.61214 27.7597 3.233 27.3977C2.47702 26.6758 2.47702 25.593 3.233 24.87L5.50324 22.5815C5.73282 19.0785 6.34618 16.2762 7.26795 12.8296C7.39434 12.2273 7.89871 11.7457 8.52946 11.5055C9.15905 11.3848 9.91618 11.5055 10.2942 11.9871L12.7685 14.2313C12.6041 14.8674 12.6483 15.5363 12.895 16.1476C13.1418 16.7589 13.5793 17.283 14.1483 17.6491L13.194 18.0067C12.5644 18.247 11.6809 18.1274 11.1765 17.6458L10.6652 17.2539L10.0426 18.8349L14.2027 21.2574C14.4555 21.4987 14.5819 21.6183 14.7071 21.9803L15.2161 23.1539L15.215 23.1528ZM17.7959 21.2574L21.9561 18.8349L21.3335 17.2539L20.8222 17.6458C20.3178 18.1274 19.4343 18.247 18.8047 18.0067L15.2741 16.6826C14.2654 16.201 13.8874 15.2377 14.2654 14.2745C14.7697 13.3113 15.7785 12.9503 16.7872 13.3113L19.1827 14.2745L21.7045 11.9871C22.0825 11.5055 22.8396 11.3848 23.4692 11.5055C24.1 11.7457 24.6044 12.2273 24.7307 12.8296C25.6525 16.2762 26.267 19.0785 26.4955 22.5815L28.7657 24.87C29.5217 25.5919 29.5217 26.6747 28.7657 27.3977C28.3866 27.7586 27.8833 27.8793 27.3778 27.8793C26.8746 27.8793 26.3691 27.7597 25.9911 27.3977L23.2176 24.6298C22.9649 24.3884 22.7133 24.0264 22.7133 23.5448L22.5869 22.462L20.6958 23.9068L19.3091 26.9161C18.9299 27.6391 18.3003 28 17.5432 28C17.2916 28 17.0388 28 16.7872 27.8793C15.7785 27.3977 15.3993 26.4345 15.7785 25.4712L17.2916 21.9803C17.4168 21.6183 17.5432 21.4987 17.7959 21.2574Z" fill="#FAFAFA"/>
</svg>
