<svg width="32" height="32" viewBox="0 0 32 32" fill="none" xmlns="http://www.w3.org/2000/svg">
<circle cx="6.24585" cy="6.24585" r="6.24585" transform="matrix(-1 0 0 1 16.9326 9.75391)" fill="#131313"/>
<path fill-rule="evenodd" clip-rule="evenodd" d="M30.667 16.0003C30.667 10.8457 26.4883 6.66699 21.3337 6.66699H10.667C5.51233 6.66699 1.33366 10.8457 1.33366 16.0003C1.33366 21.155 5.51233 25.3337 10.667 25.3337H21.3337C26.4883 25.3337 30.667 21.155 30.667 16.0003ZM15.5003 16.0003C15.5003 13.3309 13.3364 11.167 10.667 11.167C7.99761 11.167 5.83366 13.3309 5.83366 16.0003C5.83366 18.6697 7.99761 20.8337 10.667 20.8337C13.3364 20.8337 15.5003 18.6697 15.5003 16.0003Z" fill="#FAFAFA"/>
</svg>
