<svg width="32" height="32" viewBox="0 0 32 32" fill="none" xmlns="http://www.w3.org/2000/svg">
<path d="M14.8 10.1559C14.9238 10.2274 15 10.3594 15 10.5023V15.5925C15 15.889 14.6887 16.0824 14.4228 15.9511L9.5651 13.5513C9.22403 13.3828 9.00651 13.0347 9.00651 12.6542V7.50333C9.00651 7.1954 9.33987 7.00295 9.60654 7.15694L14.8 10.1559Z" fill="#FAFAFA"/>
<path d="M22.9935 12.6542C22.9935 13.0343 22.7768 13.3826 22.4362 13.5513L17.5771 15.9512C17.3113 16.0825 17 15.889 17 15.5925V10.5023C17 10.3594 17.0762 10.2274 17.2 10.1559L22.3935 7.15694C22.6601 7.00295 22.9935 7.1954 22.9935 7.50333V12.6542Z" fill="#FAFAFA"/>
<path d="M15.6641 2.83128C15.9172 2.74104 16.1987 2.75527 16.4427 2.87555L20.8181 5.03786C21.1046 5.17941 21.1176 5.58308 20.8409 5.74286L16.2 8.42282C16.0762 8.49429 15.9238 8.4943 15.8 8.42284L11.158 5.74288C10.8812 5.58312 10.8943 5.17939 11.1808 5.03785L15.5573 2.87555L15.6641 2.83128Z" fill="#FAFAFA"/>
<path d="M7.80078 22.4549C7.80123 23.0068 8.24877 23.4549 8.80078 23.4549C9.35249 23.4546 9.80034 23.0066 9.80078 22.4549V18.1606H12.6003V22.4549C12.6007 23.0068 13.0482 23.4549 13.6003 23.4549C14.1523 23.4549 14.5998 23.0068 14.6003 22.4549V18.1606H17.3997V22.4549C17.4002 23.0068 17.8477 23.4549 18.3997 23.4549C18.9518 23.4549 19.3993 23.0068 19.3997 22.4549V18.1606H22.2005V22.4549C22.201 23.0068 22.6485 23.4549 23.2005 23.4549C23.7522 23.4546 24.2001 23.0066 24.2005 22.4549V18.1606H26.9531C26.9605 18.1608 26.9696 18.1629 26.9792 18.1632C26.9987 18.1639 27.023 18.1652 27.0508 18.1672C27.1064 18.1711 27.1795 18.1778 27.2643 18.1919C27.4298 18.2195 27.6661 18.2763 27.9141 18.4002C28.166 18.5262 28.4483 18.7322 28.6654 19.0578C28.8863 19.3895 29 19.7872 29 20.2284V27.1815C28.9998 27.1888 28.999 27.1981 28.9987 27.2075C28.998 27.227 28.9968 27.2515 28.9948 27.2791C28.9908 27.3347 28.9841 27.4081 28.9701 27.4927C28.9424 27.6581 28.8855 27.8948 28.7617 28.1424C28.6357 28.3942 28.4297 28.6767 28.1042 28.8937C27.7723 29.1148 27.3749 29.2283 26.9336 29.2284H5.02083C5.00133 29.2277 4.977 29.2264 4.94922 29.2244C4.89355 29.2205 4.82054 29.2125 4.73568 29.1984C4.57024 29.1708 4.33389 29.114 4.08594 28.9901C3.83418 28.8642 3.55172 28.6591 3.33464 28.3338C3.11341 28.002 3.00011 27.6033 3 27.1619V20.2088C3.00012 20.2016 3.00097 20.1921 3.0013 20.1828C3.00195 20.1634 3.00325 20.1387 3.00521 20.1112C3.00919 20.0556 3.01588 19.9822 3.02995 19.8976C3.05751 19.7323 3.11447 19.4957 3.23828 19.2479C3.36422 18.996 3.57027 18.7137 3.89583 18.4966C4.22769 18.2755 4.62502 18.1607 5.06641 18.1606H7.80078V22.4549Z" fill="#FAFAFA"/>
</svg>
