<svg width="32" height="32" viewBox="0 0 32 32" fill="none" xmlns="http://www.w3.org/2000/svg">
<path fill-rule="evenodd" clip-rule="evenodd" d="M11.1289 9.15885C11.6495 8.97512 12.2209 9.24779 12.4049 9.76823L16.0625 20.1328C16.2459 20.6534 15.9736 21.225 15.4531 21.4089C14.9325 21.5925 14.361 21.3187 14.1771 20.7982L13.8646 19.9141L11.9688 20.7266L12.4049 21.9622C12.5884 22.4828 12.3161 23.0544 11.7956 23.2383C11.2749 23.422 10.7035 23.1481 10.5195 22.6276L6.86198 12.2643C6.67825 11.7437 6.95098 11.1723 7.47135 10.9883C7.99197 10.8045 8.56338 11.0772 8.7474 11.5977L9.07292 12.5221L10.9688 11.7096L10.5195 10.4349C10.3358 9.91431 10.6085 9.34291 11.1289 9.15885ZM10.8737 17.625L11.3008 18.8359L13.1966 18.0234L12.7695 16.8112L10.8737 17.625ZM9.73958 14.4128L10.2057 15.7344L12.1029 14.9219L11.6367 13.6003L9.73958 14.4128Z" fill="#FAFAFA"/>
<path fill-rule="evenodd" clip-rule="evenodd" d="M16.0365 3.0013C16.0959 3.00347 16.1553 3.00945 16.2135 3.02214C16.2485 3.02981 16.2831 3.04045 16.3177 3.05208C16.3344 3.05766 16.3508 3.06385 16.3672 3.07031C16.3802 3.07545 16.3934 3.08021 16.4062 3.08594L20.6771 4.98438C20.7279 5.00697 20.7753 5.03423 20.8203 5.0638C20.8232 5.06572 20.8265 5.06706 20.8294 5.06901L20.8529 5.08464C20.8783 5.10283 20.8998 5.12557 20.9232 5.14583C20.9441 5.16401 20.9663 5.18068 20.9857 5.20052C21.0124 5.22791 21.0341 5.25905 21.0573 5.28906C21.0736 5.31007 21.0921 5.32927 21.1068 5.35156C21.1247 5.37901 21.1385 5.40852 21.1536 5.4375C21.1687 5.46621 21.1844 5.49448 21.1966 5.52474C21.2092 5.55603 21.2171 5.58868 21.2266 5.62109C21.2356 5.65213 21.2466 5.68264 21.2526 5.71484C21.2539 5.72172 21.2541 5.72877 21.2552 5.73568C21.2639 5.78877 21.2708 5.84288 21.2708 5.89844V9.05208L23.5417 10.1263V9.30208C23.5417 8.7498 23.9894 8.30208 24.5417 8.30208C25.094 8.30208 25.5417 8.7498 25.5417 9.30208V11.0742L27.7383 12.1146L27.7448 12.1172L27.7786 12.1341C27.818 12.1527 27.8549 12.175 27.8906 12.1979C27.9035 12.2062 27.9159 12.2151 27.9284 12.224C27.9482 12.238 27.9658 12.2543 27.9844 12.2695C28.0187 12.2978 28.0518 12.3268 28.082 12.3594C28.0974 12.376 28.1108 12.394 28.125 12.4115C28.1503 12.4426 28.1752 12.4737 28.1966 12.5078C28.2101 12.5293 28.2213 12.5518 28.2331 12.5742C28.2514 12.6089 28.2684 12.644 28.2826 12.681C28.2929 12.7079 28.3006 12.7354 28.3086 12.763C28.3191 12.7998 28.3296 12.8366 28.3359 12.875C28.3372 12.8824 28.3388 12.8897 28.3398 12.8971C28.3463 12.9432 28.3516 12.9899 28.3516 13.0378V23.2201C28.3514 23.6222 28.1102 23.9858 27.7396 24.1419L16.388 28.9219C16.14 29.0263 15.8601 29.0263 15.612 28.9219L4.26042 24.1419C3.88976 23.9858 3.64857 23.6222 3.64844 23.2201V8.77995C3.64844 8.37761 3.88961 8.01421 4.26042 7.85807L15.612 3.07812C15.6176 3.07578 15.6233 3.07386 15.6289 3.07161C15.6387 3.06769 15.6489 3.06481 15.6589 3.0612C15.708 3.04333 15.758 3.02941 15.8086 3.01953C15.8173 3.01783 15.8259 3.0158 15.8346 3.01432C15.88 3.00671 15.9256 3.00131 15.9714 3H16.0182C16.0243 3.00011 16.0304 3.00108 16.0365 3.0013ZM5.64844 9.44401V18.9688L6.79167 18.4284C7.29056 18.1922 7.8871 18.405 8.1237 18.9036C8.36006 19.4027 8.14733 19.9992 7.64844 20.2357L5.64844 21.1823V22.556L16 26.9141L26.3516 22.556V21.1836L15.5716 16.0768C15.5284 16.0563 15.488 16.0321 15.4492 16.0065C15.444 16.003 15.4388 15.9997 15.4336 15.9961C15.4017 15.9742 15.3737 15.9482 15.3451 15.9232C15.3204 15.9017 15.2958 15.8806 15.2734 15.8568C15.2513 15.8332 15.2318 15.8079 15.2122 15.7826C15.1934 15.7582 15.1741 15.7344 15.1576 15.7083C15.1402 15.681 15.1252 15.6525 15.1107 15.6237C15.0949 15.5927 15.0802 15.5614 15.0677 15.5286C15.0578 15.5027 15.0507 15.476 15.043 15.4492C15.0176 15.3612 15 15.2694 15 15.1732V5.50521L5.64844 9.44401Z" fill="#FAFAFA"/>
</svg>
