<svg width="32" height="32" viewBox="0 0 32 32" fill="none" xmlns="http://www.w3.org/2000/svg">
<path fill-rule="evenodd" clip-rule="evenodd" d="M19.3516 19.3568C21.633 17.0758 25.3319 17.0758 27.6133 19.3568C29.8947 21.6382 29.8944 25.3382 27.6133 27.6198C25.3318 29.9006 21.6329 29.9009 19.3516 27.6198C18.9772 27.2454 18.6649 26.8305 18.4128 26.3906H17.5651C17.3677 26.3906 17.1746 26.3321 17.0104 26.2227L16.4232 25.8307L15.8372 26.2227C15.5014 26.4465 15.0637 26.4464 14.7279 26.2227L14.1406 25.8307L13.5547 26.2227C13.1582 26.487 12.63 26.4345 12.293 26.0977L10.3906 24.1953C10.0002 23.8048 10.0002 23.1718 10.3906 22.7812L12.293 20.8789L12.4453 20.7539C12.6083 20.6454 12.8013 20.5859 13 20.5859H18.4128C18.6649 20.1461 18.9772 19.7311 19.3516 19.3568ZM26.1992 20.7708C24.6988 19.271 22.266 19.2709 20.7656 20.7708C20.4066 21.1298 20.1345 21.5408 19.9479 21.9779C19.7908 22.3462 19.429 22.5857 19.0286 22.5859H13.4141L12.5117 23.4883L13.1263 24.1029L13.5859 23.7969C13.9216 23.5734 14.3596 23.5735 14.6953 23.7969L15.2826 24.1875L15.8698 23.7969L16 23.724C16.3132 23.5774 16.6855 23.6011 16.9792 23.7969L17.8685 24.3906H19.0286L19.1771 24.401C19.5163 24.452 19.8103 24.6756 19.9479 24.9974C20.1344 25.4345 20.4067 25.8453 20.7656 26.2044C22.2661 27.7049 24.6987 27.7049 26.1992 26.2044C27.6993 24.7039 27.6996 22.2712 26.1992 20.7708Z" fill="#FAFAFA"/>
<path fill-rule="evenodd" clip-rule="evenodd" d="M16.026 5.32812C19.5107 5.32842 22.3359 8.15334 22.3359 11.638C22.3356 15.1225 19.5105 17.9476 16.026 17.9479C15.9113 17.9479 15.7968 17.9435 15.6836 17.9375C15.6478 17.9414 15.611 17.944 15.5742 17.944C10.9973 17.9443 7.32832 21.5577 7.32812 25.9635C7.32816 26.6264 7.4113 27.2699 7.56641 27.8841L7.5651 27.8828L7.5625 27.8776C7.5636 27.8807 7.57141 27.9011 7.57812 27.9219C7.58591 27.946 7.59322 27.9719 7.60156 28.0013C7.75212 28.5325 7.444 29.0863 6.91276 29.237C6.38197 29.3871 5.82937 29.0787 5.67839 28.5482C5.6766 28.5419 5.67448 28.5365 5.67448 28.5365C5.67448 28.5365 5.67342 28.5319 5.67188 28.5273C5.66622 28.5109 5.65861 28.4872 5.64974 28.457C5.64169 28.4297 5.63344 28.4019 5.6263 28.3737C5.43118 27.601 5.32816 26.793 5.32812 25.9635C5.32827 21.6214 8.14433 17.9469 12.0638 16.5482C10.6319 15.3916 9.71633 13.622 9.71615 11.638C9.7162 8.15319 12.5412 5.32818 16.026 5.32812ZM16.026 7.32812C13.6458 7.32818 11.7162 9.25776 11.7161 11.638C11.7165 14.0181 13.6459 15.9479 16.026 15.9479C18.4059 15.9476 20.3356 14.0179 20.3359 11.638C20.3359 9.25791 18.4061 7.32842 16.026 7.32812Z" fill="#FAFAFA"/>
<path fill-rule="evenodd" clip-rule="evenodd" d="M26.1992 20.7708C24.6988 19.271 22.266 19.2709 20.7656 20.7708C20.4066 21.1298 20.1345 21.5408 19.9479 21.9779C19.7908 22.3462 19.429 22.5857 19.0286 22.5859H13.4141L12.5117 23.4883L13.1263 24.1029L13.5859 23.7969C13.9216 23.5734 14.3596 23.5735 14.6953 23.7969L15.2826 24.1875L15.8698 23.7969L16 23.724C16.3132 23.5774 16.6855 23.6011 16.9792 23.7969L17.8685 24.3906H19.0286L19.1771 24.401C19.5163 24.452 19.8103 24.6756 19.9479 24.9974C20.1344 25.4345 20.4067 25.8453 20.7656 26.2044C22.2661 27.7049 24.6987 27.7049 26.1992 26.2044C27.6993 24.7039 27.6996 22.2712 26.1992 20.7708ZM25.2031 23.5117C25.2031 22.5912 24.4569 21.8451 23.5365 21.8451C22.616 21.8451 21.8698 22.5912 21.8698 23.5117C21.8701 24.4319 22.6162 25.1784 23.5365 25.1784C24.4567 25.1784 25.2028 24.4319 25.2031 23.5117Z" fill="#FAFAFA"/>
<path d="M16.026 7.32812C13.6458 7.32818 11.7162 9.25776 11.7161 11.638C11.7165 14.0181 13.6459 15.9479 16.026 15.9479C18.4059 15.9476 20.3356 14.0179 20.3359 11.638C20.3359 9.25791 18.4061 7.32842 16.026 7.32812Z" fill="#FAFAFA"/>
</svg>
