<svg width="32" height="32" viewBox="0 0 32 32" fill="none" xmlns="http://www.w3.org/2000/svg">
<path d="M28.7396 10.2533L23.0791 4.59377C22.8909 4.40552 22.6675 4.2562 22.4216 4.15432C22.1756 4.05244 21.9121 4 21.6459 4C21.3797 4 21.1162 4.05244 20.8703 4.15432C20.6243 4.2562 20.4009 4.40552 20.2127 4.59377L4.59405 20.2132C4.40505 20.4007 4.2552 20.624 4.15322 20.8699C4.05124 21.1158 3.99916 21.3796 4.00001 21.6458V27.3066C4.00001 27.8442 4.21353 28.3597 4.59358 28.7397C4.97364 29.1198 5.48911 29.3333 6.0266 29.3333H27.3058C27.5745 29.3333 27.8323 29.2266 28.0223 29.0365C28.2123 28.8465 28.3191 28.5887 28.3191 28.32C28.3191 28.0512 28.2123 27.7935 28.0223 27.6034C27.8323 27.4134 27.5745 27.3066 27.3058 27.3066H14.5535L28.7396 13.1198C28.9278 12.9316 29.0772 12.7082 29.179 12.4622C29.2809 12.2163 29.3333 11.9527 29.3333 11.6866C29.3333 11.4204 29.2809 11.1568 29.179 10.9109C29.0772 10.6649 28.9278 10.4415 28.7396 10.2533ZM24.2659 14.7272L18.6067 9.06642L21.6465 6.02639L27.3058 11.6872L24.2659 14.7272Z" fill="#FAFAFA"/>
</svg>
