<svg width="32" height="32" viewBox="0 0 32 32" fill="none" xmlns="http://www.w3.org/2000/svg">
<path d="M7 21V11C7 10.4477 7.44772 10 8 10C8.55228 10 9 10.4477 9 11V21C9 21.5523 8.55228 22 8 22C7.44772 22 7 21.5523 7 21Z" fill="#FAFAFA"/>
<path d="M21 23C21.5523 23 22 23.4477 22 24C22 24.5523 21.5523 25 21 25H11C10.4477 25 10 24.5523 10 24C10 23.4477 10.4477 23 11 23H21Z" fill="#FAFAFA"/>
<path d="M23 21V11C23 10.4477 23.4477 10 24 10C24.5523 10 25 10.4477 25 11V21C25 21.5523 24.5523 22 24 22C23.4477 22 23 21.5523 23 21Z" fill="#FAFAFA"/>
<path d="M21 7C21.5523 7 22 7.44772 22 8C22 8.55228 21.5523 9 21 9H11C10.4477 9 10 8.55228 10 8C10 7.44772 10.4477 7 11 7H21Z" fill="#FAFAFA"/>
<path d="M28 8C28 10.2091 26.2091 12 24 12C21.7909 12 20 10.2091 20 8C20 5.79086 21.7909 4 24 4C26.2091 4 28 5.79086 28 8Z" fill="#FAFAFA"/>
<path d="M28 24C28 26.2091 26.2091 28 24 28C21.7909 28 20 26.2091 20 24C20 21.7909 21.7909 20 24 20C26.2091 20 28 21.7909 28 24Z" fill="#FAFAFA"/>
<path d="M12 24C12 26.2091 10.2091 28 8 28C5.79086 28 4 26.2091 4 24C4 21.7909 5.79086 20 8 20C10.2091 20 12 21.7909 12 24Z" fill="#FAFAFA"/>
<path d="M12 8C12 10.2091 10.2091 12 8 12C5.79086 12 4 10.2091 4 8C4 5.79086 5.79086 4 8 4C10.2091 4 12 5.79086 12 8Z" fill="#FAFAFA"/>
</svg>
