<svg width="32" height="32" viewBox="0 0 32 32" fill="none" xmlns="http://www.w3.org/2000/svg">
<path d="M3.51247 25C4.06437 25.0003 4.51223 25.4481 4.51247 26C4.51247 26.5521 4.06452 26.9997 3.51247 27H3.49945C2.94757 26.9995 2.49945 26.552 2.49945 26C2.49969 25.4482 2.94772 25.0005 3.49945 25H3.51247Z" fill="#FAFAFA"/>
<path d="M2.51638 20.8164C2.61782 20.2742 3.1407 19.9164 3.68304 20.0169C5.1219 20.285 6.44616 20.9834 7.48122 22.0182C8.51624 23.0532 9.21431 24.3775 9.48252 25.8164C9.58361 26.3592 9.22572 26.8817 8.68304 26.9831C8.14053 27.0837 7.61767 26.726 7.51638 26.1836C7.32218 25.1415 6.8167 24.1818 6.06716 23.4323C5.31757 22.683 4.35784 22.1771 3.31586 21.9831C2.77373 21.8813 2.41539 21.3589 2.51638 20.8164Z" fill="#FAFAFA"/>
<path d="M3.60492 15.0052C6.39132 15.3009 8.99323 16.5436 10.9747 18.5247C12.9562 20.5062 14.1984 23.108 14.4942 25.8945C14.5525 26.4437 14.1541 26.9365 13.6049 26.9948C13.0561 27.0525 12.5629 26.6544 12.5047 26.1055C12.2571 23.774 11.2185 21.5967 9.56065 19.9388C7.90271 18.2812 5.72537 17.2422 3.39398 16.9948C2.8453 16.9361 2.44649 16.4434 2.50466 15.8945C2.5631 15.3459 3.05625 14.9475 3.60492 15.0052Z" fill="#FAFAFA"/>
<path fill-rule="evenodd" clip-rule="evenodd" d="M25.9995 5C26.9276 5 27.8184 5.3685 28.4747 6.02474C29.1311 6.68112 29.4995 7.57174 29.4995 8.5V23.5C29.4995 24.4283 29.1311 25.3189 28.4747 25.9753C27.8184 26.6315 26.9276 27 25.9995 27H18.4995C17.9474 26.9998 17.4994 26.5521 17.4994 26C17.4994 22.6481 15.8512 19.1377 13.2221 16.4492C10.596 13.7639 7.09053 12 3.49945 12C2.94737 11.9998 2.49945 11.5521 2.49945 11V8.5C2.49945 7.57185 2.86795 6.6811 3.52419 6.02474C4.18046 5.36847 5.07135 5.00012 5.99945 5H25.9995Z" fill="#FAFAFA"/>
</svg>
