<svg width="32" height="32" viewBox="0 0 32 32" fill="none" xmlns="http://www.w3.org/2000/svg">
<path fill-rule="evenodd" clip-rule="evenodd" d="M2.66699 5.33317C2.66699 3.86041 3.8609 2.6665 5.33366 2.6665H18.667C20.1397 2.6665 21.3337 3.86041 21.3337 5.33317V10.6665H26.667C28.1397 10.6665 29.3337 11.8604 29.3337 13.3332V26.6665C29.3337 28.1393 28.1397 29.3332 26.667 29.3332H13.3337C11.8609 29.3332 10.667 28.1393 10.667 26.6665V21.3332H5.33366C3.8609 21.3332 2.66699 20.1393 2.66699 18.6665V5.33317ZM19.3337 10.6665H13.3337C11.8609 10.6665 10.667 11.8604 10.667 13.3332V19.3332H5.33366C4.96547 19.3332 4.66699 19.0347 4.66699 18.6665V5.33317C4.66699 4.96498 4.96547 4.6665 5.33366 4.6665H18.667C19.0352 4.6665 19.3337 4.96498 19.3337 5.33317V10.6665Z" fill="#FAFAFA"/>
</svg>
