<svg width="32" height="32" viewBox="0 0 32 32" fill="none" xmlns="http://www.w3.org/2000/svg">
<path d="M4.39835 5.04815C4.78888 4.65777 5.42193 4.6577 5.81241 5.04815L27.6028 26.8385L27.6705 26.914C27.9911 27.3068 27.9689 27.8863 27.6028 28.2526C27.2366 28.6187 26.657 28.642 26.2642 28.3216L26.1887 28.2526L23.3411 25.4049C21.4397 27.6358 18.6248 29.0546 15.4752 29.0547C9.74793 29.0547 5.10563 24.3819 5.10538 18.6185C5.10539 15.8663 6.45118 13.0698 8.34366 10.4075L4.39835 6.46222C4.00785 6.07169 4.00783 5.43867 4.39835 5.04815Z" fill="#FAFAFA"/>
<path d="M14.5312 3.33982C15.0507 2.81363 15.8994 2.81399 16.4192 3.33982C20.9271 7.90317 25.845 13.2341 25.845 18.6185C25.8449 19.636 25.6969 20.6184 25.427 21.5482L10.9843 7.10545C12.1476 5.78333 13.3677 4.51858 14.5312 3.33982Z" fill="#FAFAFA"/>
</svg>
