<svg width="32" height="32" viewBox="0 0 32 32" fill="none" xmlns="http://www.w3.org/2000/svg">
<path d="M15.9992 17.3337C16.1196 17.3337 16.2163 17.378 16.2727 17.4288C16.3253 17.4763 16.3326 17.5172 16.3326 17.5342V20.3337H12.9992V17.5342C12.9992 17.5173 13.0065 17.4763 13.0591 17.4288C13.1155 17.378 13.2122 17.3337 13.3326 17.3337H15.9992Z" fill="#FAFAFA"/>
<path fill-rule="evenodd" clip-rule="evenodd" d="M15.4393 4.07068C15.8068 3.97644 16.1917 3.97644 16.5591 4.07068C16.9823 4.17921 17.3487 4.44457 17.6919 4.69438C17.7212 4.71567 17.7502 4.73723 17.7792 4.75818L28.925 12.8233C29.3628 13.1403 29.4636 13.7556 29.1503 14.1983C28.8367 14.641 28.2277 14.7429 27.7896 14.4262L26.4055 13.4262V24.1801C26.4055 24.8821 26.4051 25.4682 26.3664 25.947C26.3261 26.4464 26.2397 26.9164 26.0162 27.3597C25.6732 28.0398 25.1253 28.5926 24.4524 28.9392C24.0137 29.165 23.5493 29.2538 23.0552 29.2946C22.5873 29.3332 22.0159 29.3324 21.3326 29.3324H21.3352C21.3259 29.3324 21.3159 29.3337 21.3065 29.3337H10.6919L10.662 29.3324H10.6646C9.98188 29.3324 9.41085 29.3332 8.94325 29.2946C8.44914 29.2538 7.98479 29.165 7.54611 28.9392C6.87312 28.5926 6.32528 28.0399 5.98231 27.3597C5.75878 26.9164 5.67243 26.4464 5.63205 25.947C5.59338 25.4682 5.59298 24.8821 5.59299 24.1801V13.4262L4.21018 14.4262C3.77207 14.7431 3.16185 14.6411 2.8482 14.1983C2.53491 13.7556 2.63572 13.1403 3.07346 12.8233L14.2193 4.75818C14.2483 4.7372 14.2785 4.71571 14.3078 4.69438C14.6509 4.44471 15.0165 4.17915 15.4393 4.07068ZM13.3326 15.3337C12.7458 15.3337 12.1643 15.5424 11.7206 15.9418C11.2736 16.3442 10.9992 16.9149 10.9992 17.5342V20.3337H10.6659C10.1136 20.3337 9.66591 20.7814 9.66591 21.3337V26.3623C9.66591 26.9146 10.1136 27.3623 10.6659 27.3623C11.2182 27.3623 11.6659 26.9146 11.6659 26.3623V22.3337H16.3326V26.3623C16.3326 26.9146 16.7803 27.3623 17.3326 27.3623C17.8849 27.3623 18.3326 26.9146 18.3326 26.3623V20.0004H20.3326V26.3623C20.3326 26.9146 20.7803 27.3623 21.3326 27.3623C21.8849 27.3623 22.3326 26.9146 22.3326 26.3623V19.0004C22.3326 18.4481 21.8849 18.0004 21.3326 18.0004H18.3326V17.5342C18.3326 16.9149 18.0582 16.3442 17.6112 15.9418C17.1675 15.5424 16.5861 15.3337 15.9992 15.3337H13.3326Z" fill="#FAFAFA"/>
</svg>
