<svg width="32" height="32" viewBox="0 0 32 32" fill="none" xmlns="http://www.w3.org/2000/svg">
<path fill-rule="evenodd" clip-rule="evenodd" d="M22.7664 3.65918C24.3185 3.65925 25.6602 4.09676 26.5971 5.16178C27.4935 6.18054 27.8156 7.54949 27.8784 8.96517C27.9274 10.0695 27.9924 11.1966 28.0593 12.3441C28.2318 15.3074 28.4121 19.6166 28.3106 22.5863C28.3117 22.6403 28.3119 22.6948 28.3119 22.749C28.3119 24.3466 27.8654 25.7902 26.8354 26.835C25.8022 27.8826 24.3677 28.3402 22.7781 28.3402C21.1889 28.3401 19.755 27.8824 18.7221 26.835C17.694 25.7923 17.2473 24.352 17.2455 22.7581C17.1606 20.7836 17.2027 18.3539 17.2911 16.0511C18.1329 16.2504 19.0094 16.646 19.9369 17.266C20.4617 17.6167 21.1721 17.4756 21.5229 16.9508C21.8733 16.4262 21.7323 15.717 21.2078 15.3662C19.7936 14.4209 18.3552 13.8327 16.8784 13.6618C16.5674 13.5873 16.2775 13.555 16.006 13.555C15.7481 13.555 15.4736 13.5834 15.1804 13.6501C13.6684 13.8055 12.1969 14.3996 10.7507 15.3662C10.2264 15.717 10.0853 16.4262 10.4356 16.9508C10.7864 17.4756 11.4968 17.6167 12.0216 17.266C12.9635 16.6364 13.8527 16.2382 14.7065 16.042C14.7955 18.3582 14.8374 20.8035 14.7507 22.7855C14.7439 24.3685 14.2965 25.7982 13.2742 26.835C12.2412 27.8824 10.8076 28.3402 9.2182 28.3402C7.62882 28.3402 6.19519 27.8824 5.16221 26.835C4.13209 25.7902 3.68572 24.3467 3.68565 22.749C3.68565 22.6878 3.68563 22.6263 3.68695 22.5654C3.58707 19.5964 3.7661 15.3006 3.93825 12.3441C4.00507 11.1966 4.0703 10.0695 4.11924 8.96517C4.18197 7.54956 4.50437 6.18053 5.40049 5.16178C6.33749 4.09666 7.68017 3.65918 9.23252 3.65918C10.7847 3.65927 12.1263 4.09679 13.0632 5.16178C13.8038 6.00358 14.1518 7.0846 14.2859 8.2334C14.8479 8.12588 15.4216 8.06934 16.006 8.06934C16.5855 8.06934 17.1541 8.12498 17.7117 8.23079C17.846 7.08301 18.1944 6.00294 18.9343 5.16178C19.8713 4.09666 21.214 3.65918 22.7664 3.65918ZM9.2182 19.9001C9.00216 19.9001 8.80334 19.9113 8.62054 19.9339C7.9155 20.0213 7.44836 20.2648 7.14398 20.5602C6.76136 20.9317 6.45777 21.5597 6.43044 22.598L6.42913 22.6201C6.42822 22.6624 6.42783 22.7055 6.42783 22.749C6.42791 23.8521 6.73061 24.519 7.11533 24.9092C7.49736 25.2963 8.14445 25.598 9.2182 25.598C10.2919 25.598 10.939 25.2963 11.3211 24.9092C11.7058 24.519 12.0085 23.8521 12.0086 22.749C12.0086 21.6458 11.7058 20.9791 11.3211 20.5889C10.9391 20.2015 10.2922 19.9001 9.2182 19.9001ZM22.4474 19.9092C21.5692 19.9649 21.0174 20.2432 20.6765 20.5889C20.2919 20.9791 19.989 21.6461 19.989 22.749C19.989 22.7642 19.9895 22.7796 19.989 22.7946C19.9973 23.8704 20.2958 24.5243 20.6752 24.9092C21.0572 25.2964 21.7045 25.5979 22.7781 25.598C23.8522 25.598 24.5003 25.2965 24.8823 24.9092C25.2669 24.519 25.5684 23.8521 25.5685 22.749C25.5685 21.6461 25.2668 20.9792 24.8823 20.5889C24.5003 20.2015 23.8522 19.9001 22.7781 19.9001C22.6631 19.9001 22.5527 19.9025 22.4474 19.9092Z" fill="#FAFAFA"/>
</svg>
