<svg width="32" height="32" viewBox="0 0 32 32" fill="none" xmlns="http://www.w3.org/2000/svg">
<path d="M14.2417 2.68237C14.4388 2.70913 14.6283 2.77422 14.8055 2.86597L14.8068 2.86336C22.4154 6.38128 26.73 13.7156 26.4643 19.8542C26.351 22.431 25.4281 24.8188 23.6375 26.5639C21.841 28.3146 19.2597 29.3333 15.9969 29.3334C12.7487 29.3334 10.1633 28.3715 8.35884 26.642C6.55678 24.9145 5.63615 22.5196 5.52811 19.8516V19.8373C5.4891 18.3094 5.87002 16.7998 6.62837 15.4727C7.38672 14.1457 8.49399 13.0508 9.8302 12.3087L9.92395 12.2631C10.148 12.1679 10.4006 12.1575 10.6336 12.2358C10.8998 12.3254 11.1166 12.523 11.2299 12.78C11.6065 13.6344 12.3394 13.971 12.9682 13.9259C13.5713 13.8823 14.1446 13.49 14.2872 12.6225C14.6886 10.1795 14.0252 7.2962 12.6505 4.91545C12.4702 4.60948 12.4038 4.24761 12.4656 3.89722C12.5292 3.53782 12.7225 3.21372 13.0086 2.98706L13.1167 2.91284C13.386 2.75206 13.6947 2.66675 14.0086 2.66675L14.2417 2.68237Z" fill="#FAFAFA"/>
</svg>
