<svg width="32" height="32" viewBox="0 0 32 32" fill="none" xmlns="http://www.w3.org/2000/svg">
<path fill-rule="evenodd" clip-rule="evenodd" d="M15.9993 3C16.6182 3 17.2115 3.24601 17.6491 3.68359C18.0867 4.12118 18.3327 4.71449 18.3327 5.33333V7H22.2311C22.6154 7.00199 22.9935 7.09938 23.3314 7.28255C23.6678 7.46503 23.9536 7.72764 24.1647 8.04688L25.9382 10.7135L25.9408 10.7161C26.1917 11.0971 26.3262 11.5438 26.3262 12C26.3262 12.4562 26.1917 12.9029 25.9408 13.2839L25.9382 13.2865L24.166 15.9531L24.1647 15.9518C23.9536 16.2715 23.6681 16.5348 23.3314 16.7174C22.9935 16.9006 22.6154 16.998 22.2311 17H18.3327V27H19.9993C20.5516 27 20.9993 27.4477 20.9993 28C20.9993 28.5523 20.5516 29 19.9993 29H9.33268C8.7804 29 8.33268 28.5523 8.33268 28C8.33268 27.4477 8.7804 27 9.33268 27H10.9993V17H7.99935C7.38051 17 6.78719 16.754 6.34961 16.3164C5.91202 15.8788 5.66602 15.2855 5.66602 14.6667V9.33333C5.66602 8.71449 5.91202 8.12118 6.34961 7.68359C6.78719 7.24601 7.38051 7 7.99935 7H10.9993V5.33333C10.9993 4.71449 11.2454 4.12118 11.6829 3.68359C12.1205 3.24601 12.7138 3 13.3327 3H15.9993ZM12.9993 27H16.3327V17H12.9993V27ZM13.3327 5C13.2443 5 13.1595 5.03514 13.097 5.09766C13.0345 5.16017 12.9993 5.24493 12.9993 5.33333V7H16.3327V5.33333C16.3327 5.24493 16.2975 5.16017 16.235 5.09766C16.1881 5.05072 16.1286 5.01929 16.0645 5.00651L15.9993 5H13.3327Z" fill="#FAFAFA"/>
</svg>
