<svg width="24" height="24" viewBox="0 0 24 24" fill="none" xmlns="http://www.w3.org/2000/svg">
<path fill-rule="evenodd" clip-rule="evenodd" d="M8.80038 5.5C8.3894 5.5 8.00468 5.70201 7.77136 6.04033L4.15067 11.2903C3.85603 11.7176 3.85603 12.2824 4.15067 12.7097L7.77136 17.9597C8.00468 18.298 8.3894 18.5 8.80038 18.5H19.2502C19.9405 18.5 20.5002 17.9404 20.5002 17.25V6.75C20.5002 6.05964 19.9405 5.5 19.2502 5.5H8.80038ZM6.53654 5.18873C7.04985 4.44443 7.89623 4 8.80038 4H19.2502C20.769 4 22.0002 5.23122 22.0002 6.75V17.25C22.0002 18.7688 20.769 20 19.2502 20H8.80038C7.89623 20 7.04985 19.5556 6.53654 18.8113L2.91585 13.5613C2.26763 12.6213 2.26763 11.3787 2.91585 10.4387L3.53326 10.8645L2.91585 10.4387L6.53654 5.18873ZM10.7182 9.46967C11.0111 9.17678 11.486 9.17678 11.7788 9.46967L13.2502 10.941L14.7215 9.46967C15.0144 9.17678 15.4893 9.17678 15.7822 9.46967C16.0751 9.76256 16.0751 10.2374 15.7822 10.5303L14.3108 12.0017L15.7805 13.4713C16.0734 13.7642 16.0734 14.2391 15.7805 14.532C15.4876 14.8249 15.0127 14.8249 14.7199 14.532L13.2502 13.0623L11.7805 14.532C11.4876 14.8249 11.0127 14.8249 10.7199 14.532C10.427 14.2391 10.427 13.7642 10.7199 13.4713L12.1895 12.0017L10.7182 10.5303C10.4253 10.2374 10.4253 9.76256 10.7182 9.46967Z" fill="#FAFAFA"/>
</svg>
