<svg width="24" height="24" viewBox="0 0 24 24" fill="none" xmlns="http://www.w3.org/2000/svg">
<path fill-rule="evenodd" clip-rule="evenodd" d="M10.2197 3.25195C10.6118 3.24536 10.995 3.36899 11.3076 3.60645C11.6252 3.84787 11.8511 4.19103 11.9473 4.57812L13.6182 11.25H16.25V6C16.25 5.58579 16.5858 5.25 17 5.25C17.4142 5.25 17.75 5.58579 17.75 6V17.25H21C21.4142 17.25 21.75 17.5858 21.75 18C21.75 18.4142 21.4142 18.75 21 18.75H17.6455C17.5178 19.2002 17.2769 19.6118 16.9443 19.9443C16.5597 20.3289 16.0696 20.5912 15.5361 20.6973C15.0028 20.8033 14.4496 20.7491 13.9473 20.541C13.4448 20.3329 13.016 19.9795 12.7139 19.5273C12.5535 19.2873 12.4334 19.0248 12.3555 18.75H9.64551C9.51785 19.2003 9.277 19.6117 8.94434 19.9443C8.55974 20.3289 8.06958 20.5912 7.53613 20.6973C7.0028 20.8033 6.44965 20.7491 5.94727 20.541C5.44485 20.3329 5.01601 19.9795 4.71387 19.5273C4.55349 19.2873 4.43354 19.0247 4.35547 18.75H4C3.53587 18.75 3.09089 18.5655 2.7627 18.2373C2.43451 17.9091 2.25 17.4641 2.25 17V11C2.25001 10.5359 2.43451 10.0909 2.7627 9.7627C3.09088 9.43451 3.53588 9.25 4 9.25H4.25V5C4.25011 4.53614 4.43476 4.09076 4.7627 3.7627C5.09086 3.43464 5.53597 3.24902 6 3.24902H10.2197V3.25195ZM7 16.75C6.66848 16.75 6.35063 16.8818 6.11621 17.1162C5.88179 17.3506 5.75 17.6685 5.75 18C5.75 18.2472 5.82359 18.4888 5.96094 18.6943C6.09829 18.8999 6.29309 19.0607 6.52148 19.1553C6.74989 19.2499 7.00167 19.2738 7.24414 19.2256C7.48648 19.1773 7.70906 19.0585 7.88379 18.8838C8.05852 18.7091 8.17731 18.4865 8.22559 18.2441C8.27382 18.0017 8.24988 17.7499 8.15527 17.5215C8.06067 17.2931 7.89988 17.0983 7.69434 16.9609C7.48877 16.8236 7.24723 16.75 7 16.75ZM14.876 16.7559C14.59 16.7844 14.3212 16.9112 14.1162 17.1162C13.8818 17.3506 13.75 17.6685 13.75 18C13.75 18.2472 13.8236 18.4888 13.9609 18.6943C14.0983 18.8999 14.2931 19.0607 14.5215 19.1553C14.7499 19.2499 15.0017 19.2738 15.2441 19.2256C15.4865 19.1773 15.7091 19.0585 15.8838 18.8838C16.0585 18.7091 16.1773 18.4865 16.2256 18.2441C16.2738 18.0017 16.2499 17.7499 16.1553 17.5215C16.0607 17.2931 15.8999 17.0983 15.6943 16.9609C15.4888 16.8236 15.2472 16.75 15 16.75L14.876 16.7559ZM4 10.75C3.9337 10.75 3.87013 10.7764 3.82324 10.8232C3.77636 10.8701 3.75001 10.9337 3.75 11V17C3.75 17.0663 3.77637 17.1299 3.82324 17.1768C3.87012 17.2236 3.93369 17.25 4 17.25H4.35645C4.48343 16.8027 4.72104 16.3903 5.05566 16.0557C5.57139 15.5399 6.27065 15.25 7 15.25C7.54384 15.25 8.07514 15.4118 8.52734 15.7139C8.97952 16.016 9.33286 16.4448 9.54102 16.9473C9.58195 17.0461 9.61456 17.1478 9.64355 17.25H12.3564C12.4834 16.8027 12.721 16.3903 13.0557 16.0557C13.5714 15.5399 14.2707 15.25 15 15.25C15.4364 15.25 15.8641 15.3555 16.25 15.5527V12.75H9C8.71528 12.75 8.45485 12.5889 8.32812 12.334L7.61035 10.8877L7.57129 10.8311C7.55565 10.814 7.53749 10.7993 7.51758 10.7871C7.47782 10.7628 7.43136 10.7497 7.38477 10.75H4ZM6 4.75C5.9338 4.75 5.87011 4.77649 5.82324 4.82324C5.77661 4.87 5.75011 4.93396 5.75 5V9.25H7.37988C7.70426 9.24869 8.02296 9.33765 8.2998 9.50684C8.54324 9.65566 8.74642 9.86126 8.8916 10.1055L8.9502 10.2129L8.95215 10.2168L9.46484 11.25H12.0713L10.4922 4.94238V4.94043C10.4785 4.88506 10.4458 4.83534 10.4004 4.80078C10.355 4.76633 10.2991 4.74842 10.2422 4.75H6Z" fill="#FAFAFA"/>
</svg>
