<svg width="24" height="24" viewBox="0 0 24 24" fill="none" xmlns="http://www.w3.org/2000/svg">
<path fill-rule="evenodd" clip-rule="evenodd" d="M11.665 9.8208C12.6142 9.63881 13.5831 9.70148 14.4902 10.0005C14.6926 10.0672 14.8525 10.2213 14.9287 10.4224C15.0048 10.6235 14.9901 10.8524 14.8877 11.0493C14.7786 11.2586 14.6961 11.6043 14.6162 12.1313C14.5441 12.6068 14.4725 13.2381 14.3525 13.8149C14.1114 14.974 13.5816 16.4025 11.9531 16.8647C11.0289 17.1267 10.2722 16.6852 9.83496 16.3228C9.77996 16.5057 9.72635 16.7017 9.67773 16.9126C9.5833 17.3222 9.1823 17.5918 8.78223 17.5142C8.38204 17.4362 8.13325 17.0401 8.22754 16.6304C8.36212 16.0465 8.52576 15.5406 8.70605 15.103C8.27115 14.5743 7.99222 13.9874 7.95117 13.356C7.89395 12.473 8.30646 11.6786 9.02051 11.063L9.04199 11.0454C9.81685 10.4241 10.716 10.0029 11.665 9.8208ZM13.2734 11.2759C12.8122 11.2083 12.3423 11.2165 11.8799 11.3052C11.1861 11.4383 10.5239 11.7448 9.94824 12.2026C9.53195 12.5643 9.4177 12.8992 9.43652 13.1909C9.44467 13.3163 9.47944 13.4593 9.5498 13.6167C9.63617 13.5056 9.72108 13.4028 9.80664 13.3101C10.0939 12.9987 10.3648 12.7952 10.5781 12.6646C10.6843 12.5996 10.7754 12.5522 10.8467 12.52C10.8822 12.504 10.9136 12.4924 10.9385 12.4829C10.9509 12.4782 10.9622 12.4736 10.9717 12.4702C10.9763 12.4686 10.9805 12.4666 10.9844 12.4653C10.9863 12.4647 10.9902 12.4634 10.9902 12.4634L10.9941 12.4624C10.9941 12.4624 11.0023 12.4848 11.1865 13.1606L10.9961 12.4624C11.3927 12.3354 11.8018 12.5537 11.9102 12.9507C12.0182 13.3476 11.7839 13.7713 11.3877 13.8989L11.3896 13.8999L11.3916 13.8989L11.3965 13.8979L11.4102 13.8931C11.4102 13.8931 11.406 13.8953 11.4023 13.897C11.3874 13.9037 11.3538 13.9199 11.3066 13.9487C11.2119 14.0068 11.0558 14.1188 10.873 14.3169C10.7569 14.4429 10.6279 14.6083 10.4932 14.8208C10.5735 14.9156 10.6779 15.0272 10.7998 15.1294C11.1095 15.3889 11.3827 15.4755 11.6113 15.4106C12.3401 15.2035 12.6799 14.6061 12.8965 13.5649C13.0053 13.0418 13.06 12.529 13.1455 11.9653C13.179 11.7446 13.2201 11.5099 13.2734 11.2759Z" fill="#FAFAFA"/>
<path fill-rule="evenodd" clip-rule="evenodd" d="M11.0469 2.8501C11.564 2.8501 12.0601 3.05569 12.4258 3.42139C12.7915 3.78708 12.9971 4.28312 12.9971 4.80029V5.25049H14.0469C14.2458 5.25049 14.4365 5.32956 14.5771 5.47021L14.6465 5.53955L15.0684 5.11865C15.2494 4.93756 15.4646 4.79383 15.7012 4.6958C15.9377 4.59782 16.1912 4.54739 16.4473 4.54736C16.7034 4.54738 16.9577 4.59774 17.1943 4.6958C17.4308 4.79387 17.6462 4.93756 17.8271 5.11865L17.8262 5.11963L19.1289 6.42139L19.2578 6.56299C19.3792 6.71088 19.4783 6.87682 19.5518 7.0542C19.6497 7.2907 19.7002 7.54432 19.7002 7.80029C19.7002 8.05627 19.6497 8.30989 19.5518 8.54639C19.4782 8.72377 19.3792 8.88971 19.2578 9.0376L19.1289 9.1792L18.707 9.6001L18.7773 9.67041C18.9178 9.81103 18.9971 10.0019 18.9971 10.2007V19.2007C18.9969 19.7177 18.7913 20.214 18.4258 20.5796C18.0601 20.9451 17.5639 21.1509 17.0469 21.1509H6.24707C5.73008 21.1509 5.23382 20.945 4.86816 20.5796C4.5026 20.214 4.29702 19.7177 4.29688 19.2007V7.20068C4.29688 6.6836 4.50258 6.18746 4.86816 5.82178C5.05006 5.63988 5.26411 5.49698 5.49707 5.3999V4.80029C5.49707 4.28312 5.70266 3.78708 6.06836 3.42139C6.43406 3.05569 6.93009 2.8501 7.44727 2.8501H11.0469ZM6.24707 6.75049C6.12772 6.75049 6.0131 6.79793 5.92871 6.88232C5.84443 6.9667 5.79688 7.08142 5.79688 7.20068V19.2007C5.79702 19.3198 5.84445 19.4348 5.92871 19.519C6.01307 19.6032 6.1279 19.6509 6.24707 19.6509H17.0469C17.1661 19.6509 17.2809 19.6033 17.3652 19.519C17.4495 19.4348 17.4969 19.3198 17.4971 19.2007V10.5112L13.7363 6.75049H6.24707ZM16.4473 6.04736C16.3883 6.04739 16.3299 6.05899 16.2754 6.08154C16.2208 6.10418 16.1707 6.13738 16.1289 6.1792L15.707 6.6001L17.6465 8.53955L18.0684 8.11865L18.124 8.05029C18.1404 8.02585 18.1547 7.99947 18.166 7.97217C18.1885 7.91772 18.2002 7.85921 18.2002 7.80029C18.2002 7.74137 18.1885 7.68288 18.166 7.62842C18.1547 7.60113 18.1404 7.57473 18.124 7.55029L18.0684 7.48193L16.7656 6.1792C16.724 6.13755 16.6745 6.10415 16.6201 6.08154C16.5655 6.05892 16.5063 6.04738 16.4473 6.04736ZM7.44727 4.3501C7.32792 4.3501 7.2133 4.39754 7.12891 4.48193C7.04452 4.56632 6.99707 4.68095 6.99707 4.80029V5.25049H11.4971V4.80029C11.4971 4.68095 11.4496 4.56632 11.3652 4.48193C11.2808 4.39754 11.1662 4.3501 11.0469 4.3501H7.44727Z" fill="#FAFAFA"/>
</svg>
