<svg width="24" height="24" viewBox="0 0 24 24" fill="none" xmlns="http://www.w3.org/2000/svg">
<path fill-rule="evenodd" clip-rule="evenodd" d="M12 2C14.3233 2 16.4525 2.24532 18.0234 2.65625C18.8033 2.86028 19.4883 3.11653 19.9961 3.43066C20.4629 3.71944 20.9999 4.1981 21 4.9082C21 5.00747 20.9881 5.10204 20.9688 5.19238C20.9558 5.28811 20.938 5.41935 20.916 5.58105C20.8664 5.94605 20.7946 6.46821 20.707 7.09766C20.5319 8.35667 20.2925 10.0459 20.0342 11.7646C19.9918 12.0464 19.9455 12.3285 19.9023 12.6104C19.8997 12.633 19.8963 12.6553 19.8916 12.6777C19.7724 13.4543 19.6536 14.2238 19.5342 14.9482C19.5333 14.9528 19.5323 14.9574 19.5312 14.9619C19.4341 15.5507 19.3402 16.11 19.248 16.6191C19.1229 17.3101 19.0024 17.9181 18.8936 18.3867C18.8393 18.6202 18.7858 18.8289 18.7334 19C18.6883 19.1473 18.6226 19.3426 18.5254 19.4951C17.7085 20.7821 15.7247 22 12 22C8.27529 22 6.29154 20.7821 5.47461 19.4951L5.40723 19.374C5.3456 19.2479 5.30047 19.1105 5.2666 19C5.21418 18.8289 5.16066 18.6202 5.10645 18.3867C4.99763 17.9181 4.87706 17.3101 4.75195 16.6191C4.54491 15.4756 4.32213 14.08 4.10449 12.6611C4.10267 12.6514 4.10104 12.6416 4.09961 12.6318C4.05533 12.3429 4.00923 12.0535 3.96582 11.7646C3.70746 10.0459 3.46813 8.35667 3.29297 7.09766C3.20539 6.46821 3.13356 5.94605 3.08398 5.58105C3.06201 5.41927 3.04322 5.28812 3.03027 5.19238C3.01096 5.1021 3 5.0074 3 4.9082C3.00007 4.1981 3.53712 3.71944 4.00391 3.43066C4.5117 3.11653 5.19669 2.86028 5.97656 2.65625C7.54748 2.24532 9.67668 2 12 2ZM7.61816 19.5195C8.23442 19.9135 9.17452 20.2742 10.5713 20.4238L10.9629 20.0156L9.05371 18.0176L7.61816 19.5195ZM13.0361 20.0156L13.4268 20.4238C14.8244 20.2743 15.7645 19.9128 16.3809 19.5186L14.9453 18.0166L13.0361 20.0156ZM10.0908 16.9316L12 18.9297L13.9082 16.9316L11.999 14.9336L10.0908 16.9316ZM6.00195 15.043C6.07942 15.5054 6.15493 15.9451 6.22852 16.3516C6.35199 17.0335 6.46674 17.6134 6.56738 18.0469C6.59538 18.1675 6.62134 18.274 6.64551 18.3662L8.0166 16.9326L6.10645 14.9336L6.00195 15.043ZM15.9824 16.9316L17.3535 18.3662C17.3777 18.2739 17.4046 18.1676 17.4326 18.0469C17.5333 17.6134 17.648 17.0335 17.7715 16.3516C17.8451 15.9449 17.9196 15.5047 17.9971 15.042L17.8936 14.9336L15.9824 16.9316ZM7.14453 13.8486L9.05371 15.8467L10.9619 13.8486L9.05273 11.8506L7.14453 13.8486ZM13.0361 13.8486L14.9453 15.8457L16.8555 13.8486L14.9463 11.8506L13.0361 13.8486ZM4.8584 7.46094C5.02292 8.63395 5.22915 10.078 5.44922 11.542C5.48102 11.7536 5.51462 11.9652 5.54688 12.1768L6.10742 12.7627L8.01562 10.7646L4.8584 7.46094ZM10.0898 10.7646L12 12.7627L13.9092 10.7656L12 8.76758L10.0898 10.7646ZM15.9844 10.7656L17.8926 12.7627L18.4512 12.1777C18.4835 11.9658 18.5189 11.754 18.5508 11.542C18.7708 10.0784 18.9761 8.63473 19.1406 7.46191L15.9844 10.7656ZM9.05273 9.67969L10.8545 7.79395C9.3659 7.7412 7.98949 7.58657 6.83008 7.35352L9.05273 9.67969ZM17.1689 7.35352C16.0095 7.58651 14.6331 7.74125 13.1445 7.79395L14.9463 9.67969L17.1689 7.35352ZM12 3.5C9.76635 3.5 7.77023 3.7373 6.35547 4.10742C5.64273 4.29391 5.11994 4.50379 4.79297 4.70605C4.64843 4.79547 4.57342 4.86455 4.53418 4.90723C4.57328 4.9498 4.64734 5.02027 4.79297 5.11035C5.11999 5.31258 5.64285 5.52248 6.35547 5.70898C7.77024 6.07921 9.7664 6.31641 12 6.31641C14.2336 6.31641 16.2298 6.07921 17.6445 5.70898C18.3572 5.52248 18.88 5.31258 19.207 5.11035C19.3517 5.02088 19.4247 4.94999 19.4639 4.90723C19.4245 4.86437 19.3505 4.79483 19.207 4.70605C18.8801 4.50379 18.3573 4.29391 17.6445 4.10742C16.2298 3.7373 14.2336 3.5 12 3.5Z" fill="#FAFAFA"/>
</svg>
