<svg width="24" height="24" viewBox="0 0 24 24" fill="none" xmlns="http://www.w3.org/2000/svg">
<path fill-rule="evenodd" clip-rule="evenodd" d="M11.9443 2.26953C13.2823 2.26953 14.5759 2.74927 15.5908 3.62109C16.4467 4.35639 17.0556 5.32993 17.3467 6.41016C18.4633 6.52469 19.5126 7.02047 20.3135 7.82129C21.233 8.74091 21.75 9.98852 21.75 11.2891C21.7499 12.5895 21.233 13.8373 20.3135 14.7568C19.3939 15.6763 18.146 16.1924 16.8457 16.1924H12.6396V20.9814C12.6394 21.3953 12.3035 21.7312 11.8896 21.7314C11.4756 21.7314 11.1399 21.3954 11.1396 20.9814V16.1924H7.1543C5.8539 16.1924 4.60614 15.6762 3.68652 14.7568C2.76696 13.8373 2.25009 12.5895 2.25 11.2891C2.25 9.98854 2.76695 8.74093 3.68652 7.82129C4.45977 7.04812 5.46471 6.56067 6.53809 6.4248C6.82751 5.33875 7.43821 4.3597 8.29785 3.62109C9.3127 2.74928 10.6064 2.2696 11.9443 2.26953ZM11.9443 3.76953C10.9651 3.7696 10.0182 4.12067 9.27539 4.75879C8.53268 5.39692 8.04316 6.28005 7.89551 7.24805C7.83957 7.6141 7.52458 7.88455 7.1543 7.88477C6.25162 7.88477 5.3854 8.2436 4.74707 8.88184C4.1088 9.52017 3.75 10.3864 3.75 11.2891C3.75009 12.1917 4.10881 13.058 4.74707 13.6963C5.38538 14.3344 6.25173 14.6924 7.1543 14.6924H11.1396V13.6768L9.28223 11.8193C8.98939 11.5265 8.98951 11.0517 9.28223 10.7588C9.57512 10.4659 10.0499 10.4659 10.3428 10.7588L11.8896 12.3057L13.4365 10.7588C13.7294 10.466 14.2042 10.4659 14.4971 10.7588C14.7894 11.0517 14.7897 11.5266 14.4971 11.8193L12.6396 13.6768V14.6924H16.8457C17.7482 14.6924 18.6146 14.3344 19.2529 13.6963C19.8912 13.058 20.2499 12.1917 20.25 11.2891C20.25 10.3864 19.8912 9.52019 19.2529 8.88184C18.6146 8.24359 17.7483 7.88477 16.8457 7.88477H16.7354C16.3649 7.88475 16.0501 7.61422 15.9941 7.24805C15.8464 6.28008 15.3568 5.39689 14.6143 4.75879C13.8714 4.12061 12.9237 3.76953 11.9443 3.76953Z" fill="#FAFAFA"/>
</svg>
