<svg width="24" height="24" viewBox="0 0 24 24" fill="none" xmlns="http://www.w3.org/2000/svg">
<path d="M12.0138 10.3037C12.0138 8.20319 10.3106 6.50013 8.21013 6.5C6.10954 6.5 4.40642 8.20311 4.40642 10.3037C4.40655 12.4042 6.10962 14.1074 8.21013 14.1074C10.3105 14.1073 12.0137 12.4041 12.0138 10.3037ZM13.5138 10.3037C13.5137 13.2325 11.139 15.6073 8.21013 15.6074C5.28119 15.6074 2.90655 13.2326 2.90642 10.3037C2.90642 7.37469 5.28111 5 8.21013 5C11.139 5.00013 13.5138 7.37477 13.5138 10.3037Z" fill="#FAFAFA"/>
<path d="M8.47374 14.109C9.79095 14.1501 11.0818 14.499 12.2423 15.1285C13.4029 15.7582 14.3989 16.6502 15.1515 17.7321L15.298 17.9508L15.337 18.0172C15.5109 18.3552 15.4037 18.7762 15.0782 18.9879C14.7527 19.1996 14.3244 19.1268 14.086 18.8307L14.0411 18.7682L13.7931 18.4127C13.1906 17.6018 12.4175 16.9303 11.5265 16.4469C10.6357 15.9637 9.65168 15.6818 8.64366 15.6188L8.21007 15.6051C7.05157 15.6051 5.91099 15.8945 4.89269 16.4469C3.87459 16.9993 3.01059 17.7972 2.37902 18.7682L2.33409 18.8307C2.09573 19.1269 1.66652 19.1997 1.34093 18.9879C0.994056 18.762 0.895586 18.2979 1.1212 17.9508L1.26866 17.7321C2.02131 16.6502 3.01727 15.7582 4.17784 15.1285C5.41571 14.457 6.80178 14.1051 8.21007 14.1051L8.47374 14.109Z" fill="#FAFAFA"/>
<path d="M16.1795 14.1111C17.4966 14.1515 18.7875 14.4994 19.948 15.1287C21.1087 15.7581 22.1047 16.6502 22.8572 17.7322L23.0047 17.951L23.0427 18.0174C23.2168 18.3554 23.1096 18.7773 22.784 18.989C22.4584 19.2003 22.03 19.1269 21.7918 18.8308L21.7469 18.7683L21.4988 18.4129C20.8965 17.6021 20.1241 16.9301 19.2332 16.447C18.3422 15.9639 17.3576 15.6832 16.3494 15.6209L15.9158 15.6072L15.8396 15.6033C15.4614 15.5651 15.166 15.2456 15.1658 14.8572C15.1658 14.4432 15.5017 14.1074 15.9158 14.1072L16.1795 14.1111Z" fill="#FAFAFA"/>
<path d="M16.2327 5.00977C17.0122 5.05702 17.7721 5.27559 18.4573 5.65039C19.1424 6.02519 19.7363 6.54684 20.1965 7.17773C20.6568 7.80871 20.9717 8.53386 21.1194 9.30078C21.267 10.0676 21.244 10.8576 21.051 11.6143C20.8579 12.3711 20.4993 13.0763 20.0022 13.6787C19.5051 14.2811 18.8813 14.7663 18.175 15.0996C17.4687 15.4329 16.6968 15.6065 15.9158 15.6072L15.8396 15.6033C15.4614 15.5651 15.166 15.2456 15.1658 14.8572C15.1658 14.4432 15.5017 14.1074 15.9158 14.1072L16.1243 14.1006C16.6125 14.0733 17.092 13.9524 17.5354 13.7432C18.0418 13.5041 18.4895 13.1556 18.8459 12.7236C19.2021 12.2918 19.4585 11.7866 19.5969 11.2441C19.7354 10.7014 19.7526 10.134 19.6467 9.58398C19.5408 9.0341 19.3146 8.51395 18.9846 8.06152C18.6545 7.60911 18.2279 7.23556 17.7366 6.9668C17.2452 6.69809 16.7008 6.54071 16.1418 6.50684C15.5829 6.47297 15.0233 6.56312 14.5032 6.77051L14.4299 6.7959C14.0645 6.90019 13.6724 6.71218 13.5286 6.35156C13.3752 5.96694 13.562 5.53048 13.9465 5.37695L14.2219 5.27637C14.8678 5.05924 15.5506 4.96844 16.2327 5.00977Z" fill="#FAFAFA"/>
</svg>
