<svg width="24" height="24" viewBox="0 0 24 24" fill="none" xmlns="http://www.w3.org/2000/svg">
<path fill-rule="evenodd" clip-rule="evenodd" d="M11.5 14.9999C11.6874 14.9999 11.8666 15.0705 12.0039 15.1953L12.0635 15.2548C12.0635 15.2548 12.0664 15.2585 12.0684 15.2607C12.0729 15.2658 12.0798 15.2729 12.0879 15.2822C12.1041 15.3007 12.1273 15.3274 12.1562 15.3613C12.2144 15.4293 12.2965 15.5269 12.3945 15.6474C12.5899 15.8876 12.8516 16.2236 13.1152 16.6025C13.3772 16.9791 13.6513 17.4135 13.8623 17.8486C14.0646 18.2659 14.25 18.7651 14.25 19.2499C14.25 20.7687 13.0187 21.9999 11.5 21.9999C9.98123 21.9999 8.75003 20.7687 8.75 19.2499C8.75 18.7651 8.93537 18.2659 9.1377 17.8486C9.34866 17.4135 9.62279 16.9791 9.88477 16.6025C10.1484 16.2236 10.4101 15.8876 10.6055 15.6474C10.7035 15.5269 10.7856 15.4293 10.8438 15.3613C10.8727 15.3274 10.8959 15.3007 10.9121 15.2822C10.9202 15.2729 10.9271 15.2658 10.9316 15.2607C10.9336 15.2585 10.9365 15.2548 10.9365 15.2548L10.9961 15.1953C11.1334 15.0705 11.3126 14.9999 11.5 14.9999ZM11.5 16.9365C11.3784 17.0948 11.246 17.2719 11.1152 17.4599C10.8774 17.8019 10.6512 18.1647 10.4873 18.5029C10.3147 18.859 10.25 19.1098 10.25 19.2499C10.25 19.9403 10.8097 20.4999 11.5 20.4999C12.1903 20.4999 12.75 19.9403 12.75 19.2499C12.75 19.1098 12.6853 18.859 12.5127 18.5029C12.3488 18.1647 12.1226 17.8019 11.8848 17.4599C11.754 17.2719 11.6216 17.0948 11.5 16.9365Z" fill="#FAFAFA"/>
<path fill-rule="evenodd" clip-rule="evenodd" d="M18.9697 3.46967C19.2626 3.17678 19.7374 3.17678 20.0303 3.46967L22.0303 5.46967C22.3231 5.76257 22.3232 6.23733 22.0303 6.53022L20.0303 8.53022C19.7374 8.82307 19.2626 8.82307 18.9697 8.53022C18.6768 8.23733 18.6769 7.76257 18.9697 7.46967L19.6895 6.74994H18.7002C18.0098 6.74994 17.4502 7.30959 17.4502 7.99994V9.24994H18.5C20.0188 9.24994 21.25 10.4812 21.25 11.9999V16.0996C21.25 17.6183 20.0188 18.8496 18.5 18.8496H16.5C16.0858 18.8496 15.75 18.5137 15.75 18.0996C15.7502 17.6855 16.0859 17.3496 16.5 17.3496H18.5C19.1903 17.3496 19.75 16.7899 19.75 16.0996V11.9999C19.75 11.3096 19.1904 10.7499 18.5 10.7499H17.4502V12.2499C17.4502 13.6306 16.3309 14.7499 14.9502 14.7499C13.5695 14.7499 12.4502 13.6306 12.4502 12.2499V10.7499H10.4502V12.2499C10.4502 13.6306 9.33089 14.7499 7.9502 14.7499C6.5695 14.7499 5.45023 13.6306 5.4502 12.2499V10.7499H4.5C3.80964 10.7499 3.25 11.3096 3.25 11.9999V16.0996C3.25003 16.7899 3.80966 17.3496 4.5 17.3496H6.5C6.91408 17.3496 7.24979 17.6855 7.25 18.0996C7.24997 18.5137 6.91419 18.8496 6.5 18.8496H4.5C2.98124 18.8496 1.75003 17.6183 1.75 16.0996V11.9999C1.75 10.4812 2.98122 9.24994 4.5 9.24994H5.4502V5.99994C5.4502 5.58573 5.78598 5.24994 6.2002 5.24994C6.61441 5.24994 6.9502 5.58573 6.9502 5.99994V9.24994H8.9502V7.74994C8.9502 6.36923 10.0695 5.24994 11.4502 5.24994C12.8309 5.24994 13.9502 6.36923 13.9502 7.74994V9.24994H15.9502V7.99994C15.9502 6.48116 17.1814 5.24994 18.7002 5.24994H19.6895L18.9697 4.53022C18.6768 4.23733 18.6769 3.76257 18.9697 3.46967ZM6.9502 12.2499C6.95023 12.8022 7.39793 13.2499 7.9502 13.2499C8.50246 13.2499 8.95016 12.8022 8.9502 12.2499V10.7499H6.9502V12.2499ZM13.9502 12.2499C13.9502 12.8022 14.3979 13.2499 14.9502 13.2499C15.5025 13.2499 15.9502 12.8022 15.9502 12.2499V10.7499H13.9502V12.2499ZM11.4502 6.74994C10.8979 6.74994 10.4502 7.19766 10.4502 7.74994V9.24994H12.4502V7.74994C12.4502 7.19766 12.0025 6.74994 11.4502 6.74994Z" fill="#FAFAFA"/>
</svg>
