<svg width="24" height="24" viewBox="0 0 24 24" fill="none" xmlns="http://www.w3.org/2000/svg">
<path fill-rule="evenodd" clip-rule="evenodd" d="M18.5625 6.5625C18.9767 6.5625 19.3125 6.89829 19.3125 7.3125C19.3125 7.72671 18.9767 8.0625 18.5625 8.0625H16.6855L17.3936 11.25H20.4375C20.8517 11.25 21.1875 11.5858 21.1875 12C21.1875 12.4142 20.8517 12.75 20.4375 12.75H17.7266L18.3574 15.5869C18.4473 15.9912 18.1923 16.3924 17.7881 16.4824C17.3838 16.5723 16.9826 16.3173 16.8926 15.9131L16.1895 12.75H7.81055L7.10742 15.9131C7.01743 16.3173 6.61616 16.5723 6.21191 16.4824C5.80774 16.3924 5.55275 15.9912 5.64258 15.5869L6.27344 12.75H3.5625C3.14829 12.75 2.8125 12.4142 2.8125 12C2.8125 11.5858 3.14829 11.25 3.5625 11.25H6.60645L7.31445 8.0625H5.4375C5.02329 8.0625 4.6875 7.72671 4.6875 7.3125C4.6875 6.89829 5.02329 6.5625 5.4375 6.5625H18.5625ZM8.14355 11.25H15.8564L15.1484 8.0625H8.85156L8.14355 11.25Z" fill="#FAFAFA"/>
</svg>
