<svg width="24" height="24" viewBox="0 0 24 24" fill="none" xmlns="http://www.w3.org/2000/svg">
<path d="M12 16.25C12.1989 16.25 12.3896 16.3291 12.5303 16.4697C12.6709 16.6104 12.75 16.8011 12.75 17C12.75 17.1989 12.6709 17.3896 12.5303 17.5303C12.3896 17.6709 12.1989 17.75 12 17.75C11.8011 17.75 11.6104 17.6709 11.4697 17.5303C11.3291 17.3896 11.25 17.1989 11.25 17C11.25 16.8011 11.3291 16.6104 11.4697 16.4697C11.6104 16.3291 11.8011 16.25 12 16.25Z" fill="#FAFAFA"/>
<path d="M9.34961 15.5C9.54852 15.5 9.73923 15.5791 9.87988 15.7197C10.0205 15.8604 10.0996 16.0511 10.0996 16.25C10.0996 16.4489 10.0205 16.6396 9.87988 16.7803C9.73923 16.9209 9.54852 17 9.34961 17C9.1507 17 8.95999 16.9209 8.81934 16.7803C8.67868 16.6396 8.59961 16.4489 8.59961 16.25C8.59961 16.0511 8.67868 15.8604 8.81934 15.7197C8.95999 15.5791 9.1507 15.5 9.34961 15.5Z" fill="#FAFAFA"/>
<path d="M14.6504 15.5C14.8493 15.5 15.04 15.5791 15.1807 15.7197C15.3213 15.8604 15.4004 16.0511 15.4004 16.25C15.4004 16.4489 15.3213 16.6396 15.1807 16.7803C15.04 16.9209 14.8493 17 14.6504 17C14.4515 17 14.2608 16.9209 14.1201 16.7803C13.9795 16.6396 13.9004 16.4489 13.9004 16.25C13.9004 16.0511 13.9795 15.8604 14.1201 15.7197C14.2608 15.5791 14.4515 15.5 14.6504 15.5Z" fill="#FAFAFA"/>
<path d="M6.73047 9.7002C6.89618 9.32057 7.33815 9.14679 7.71777 9.3125C8.09734 9.47823 8.27017 9.92021 8.10449 10.2998C7.87262 10.831 7.75005 11.4093 7.75 12C7.75 12.5909 7.87257 13.1699 8.10449 13.7012C8.27004 14.0807 8.09732 14.5228 7.71777 14.6885C7.33818 14.8542 6.8962 14.6803 6.73047 14.3008C6.51572 13.8088 6.37145 13.2867 6.30078 12.75H3C2.58579 12.75 2.25 12.4142 2.25 12C2.25 11.5858 2.58579 11.25 3 11.25H6.30078C6.37149 10.7136 6.51582 10.192 6.73047 9.7002Z" fill="#FAFAFA"/>
<path d="M16.2822 9.3125C16.6619 9.14683 17.1048 9.32056 17.2705 9.7002C17.485 10.1919 17.6288 10.7136 17.6992 11.25H21C21.4142 11.25 21.75 11.5858 21.75 12C21.75 12.4142 21.4142 12.75 21 12.75H17.6992C17.6288 13.2864 17.4851 13.8081 17.2705 14.2998C17.1048 14.6794 16.6619 14.8532 16.2822 14.6875C15.9028 14.5218 15.73 14.0797 15.8955 13.7002C16.1273 13.1691 16.25 12.5907 16.25 12C16.25 11.4093 16.1273 10.831 15.8955 10.2998C15.7299 9.92028 15.9028 9.47827 16.2822 9.3125Z" fill="#FAFAFA"/>
<path d="M12 10C12.5304 10 13.039 10.2109 13.4141 10.5859C13.7891 10.961 14 11.4696 14 12C14 12.5304 13.7891 13.039 13.4141 13.4141C13.039 13.7891 12.5304 14 12 14C11.4696 14 10.961 13.7891 10.5859 13.4141C10.2109 13.039 10 12.5304 10 12C10 11.4696 10.2109 10.961 10.5859 10.5859C10.961 10.2109 11.4696 10 12 10Z" fill="#FAFAFA"/>
<path d="M9.34961 7C9.54852 7 9.73923 7.07907 9.87988 7.21973C10.0205 7.36038 10.0996 7.55109 10.0996 7.75C10.0996 7.94891 10.0205 8.13962 9.87988 8.28027C9.73923 8.42093 9.54852 8.5 9.34961 8.5C9.1507 8.5 8.95999 8.42093 8.81934 8.28027C8.67868 8.13962 8.59961 7.94891 8.59961 7.75C8.59961 7.55109 8.67868 7.36038 8.81934 7.21973C8.95999 7.07907 9.1507 7 9.34961 7Z" fill="#FAFAFA"/>
<path d="M14.6504 7C14.8493 7 15.04 7.07907 15.1807 7.21973C15.3213 7.36038 15.4004 7.55109 15.4004 7.75C15.4004 7.94891 15.3213 8.13962 15.1807 8.28027C15.04 8.42093 14.8493 8.5 14.6504 8.5C14.4515 8.5 14.2608 8.42093 14.1201 8.28027C13.9795 8.13962 13.9004 7.94891 13.9004 7.75C13.9004 7.55109 13.9795 7.36038 14.1201 7.21973C14.2608 7.07907 14.4515 7 14.6504 7Z" fill="#FAFAFA"/>
<path d="M12 6.25C12.1989 6.25 12.3896 6.32907 12.5303 6.46973C12.6709 6.61038 12.75 6.80109 12.75 7C12.75 7.19891 12.6709 7.38962 12.5303 7.53027C12.3896 7.67093 12.1989 7.75 12 7.75C11.8011 7.75 11.6104 7.67093 11.4697 7.53027C11.3291 7.38962 11.25 7.19891 11.25 7C11.25 6.80109 11.3291 6.61038 11.4697 6.46973C11.6104 6.32907 11.8011 6.25 12 6.25Z" fill="#FAFAFA"/>
</svg>
