<svg width="24" height="24" viewBox="0 0 24 24" fill="none" xmlns="http://www.w3.org/2000/svg">
<path d="M20.25 15C20.25 14.138 19.9073 13.3116 19.2979 12.7021C18.7264 12.1307 17.9644 11.7937 17.1611 11.7539L17 11.75H14.6201C14.2957 11.7513 13.977 11.6623 13.7002 11.4932C13.422 11.3231 13.1965 11.0783 13.0498 10.7871L13.0459 10.7793L12.6104 9.8877L12.5713 9.83105C12.5557 9.81399 12.5375 9.79933 12.5176 9.78711C12.4778 9.76281 12.4314 9.74968 12.3848 9.75H9.61523C9.56864 9.74968 9.52218 9.76281 9.48242 9.78711C9.44284 9.81139 9.41055 9.84622 9.38965 9.8877L8.9541 10.7793L8.9502 10.7871C8.80348 11.0783 8.57798 11.3231 8.2998 11.4932C8.02296 11.6623 7.70426 11.7503 7.37988 11.749L3.75 11.75V14.25H16C16.4641 14.25 16.9091 14.4345 17.2373 14.7627C17.5655 15.0909 17.75 15.5359 17.75 16V18C17.75 18.0663 17.7764 18.1299 17.8232 18.1768C17.8701 18.2236 17.9337 18.25 18 18.25H20C20.0663 18.25 20.1299 18.2236 20.1768 18.1768C20.2236 18.1299 20.25 18.0663 20.25 18V15ZM21.75 18C21.75 18.4641 21.5655 18.9091 21.2373 19.2373C20.9091 19.5655 20.4641 19.75 20 19.75H18C17.5359 19.75 17.0909 19.5655 16.7627 19.2373C16.4345 18.9091 16.25 18.4641 16.25 18V16C16.25 15.9337 16.2236 15.8701 16.1768 15.8232C16.1299 15.7764 16.0663 15.75 16 15.75H3.75V17C3.75 17.4142 3.41421 17.75 3 17.75C2.58579 17.75 2.25 17.4142 2.25 17V9C2.25 8.58579 2.58579 8.25 3 8.25C3.41421 8.25 3.75 8.58579 3.75 9V10.25H7.38477C7.43136 10.2503 7.47782 10.2372 7.51758 10.2129C7.55716 10.1886 7.58945 10.1538 7.61035 10.1123L8.0459 9.2207L8.0498 9.21289C8.19652 8.92172 8.42202 8.6769 8.7002 8.50684C8.97704 8.33765 9.29574 8.24869 9.62012 8.25H10.25V5.75H8C7.58579 5.75 7.25 5.41421 7.25 5C7.25 4.58579 7.58579 4.25 8 4.25H14C14.4142 4.25 14.75 4.58579 14.75 5C14.75 5.41421 14.4142 5.75 14 5.75H11.75V8.25H12.3799C12.7043 8.24869 13.023 8.33765 13.2998 8.50684C13.5432 8.65567 13.7464 8.86125 13.8916 9.10547L13.9502 9.21289L13.9541 9.2207L14.3896 10.1123C14.4105 10.1538 14.4428 10.1886 14.4824 10.2129C14.5222 10.2372 14.5686 10.2503 14.6152 10.25H17C18.2598 10.25 19.4676 10.7508 20.3584 11.6416C21.2492 12.5324 21.75 13.7402 21.75 15V18Z" fill="#FAFAFA"/>
</svg>
