<svg width="24" height="24" viewBox="0 0 24 24" fill="none" xmlns="http://www.w3.org/2000/svg">
<path fill-rule="evenodd" clip-rule="evenodd" d="M14.8125 2.8125C15.7573 2.8125 16.6639 3.18737 17.332 3.85547C18.0001 4.52357 18.375 5.43017 18.375 6.375C18.375 6.78921 18.0392 7.125 17.625 7.125C17.2108 7.125 16.875 6.78921 16.875 6.375C16.875 5.82799 16.6573 5.30379 16.2705 4.91699C15.8837 4.5302 15.3595 4.3125 14.8125 4.3125C14.2655 4.3125 13.7413 4.5302 13.3545 4.91699C12.9677 5.30379 12.75 5.82799 12.75 6.375V15H14.0625V11.0625C14.0625 10.3663 14.3388 9.69834 14.8311 9.20605C15.3233 8.71377 15.9913 8.4375 16.6875 8.4375C17.3837 8.4375 18.0517 8.71377 18.5439 9.20605C19.0362 9.69834 19.3125 10.3663 19.3125 11.0625C19.3125 11.4767 18.9767 11.8125 18.5625 11.8125C18.1483 11.8125 17.8125 11.4767 17.8125 11.0625C17.8125 10.7641 17.6944 10.4776 17.4834 10.2666C17.2724 10.0556 16.9859 9.9375 16.6875 9.9375C16.3891 9.9375 16.1026 10.0556 15.8916 10.2666C15.6806 10.4776 15.5625 10.7641 15.5625 11.0625V15H20.4375C20.8517 15 21.1875 15.3358 21.1875 15.75V17.625C21.1875 18.5698 20.8126 19.4764 20.1445 20.1445C19.4764 20.8126 18.5698 21.1875 17.625 21.1875H6.375C5.43017 21.1875 4.52357 20.8126 3.85547 20.1445C3.18737 19.4764 2.8125 18.5698 2.8125 17.625V15.75C2.8125 15.3358 3.14829 15 3.5625 15H8.4375V11.0625C8.4375 10.7641 8.31938 10.4776 8.1084 10.2666C7.89742 10.0556 7.61087 9.9375 7.3125 9.9375C7.01413 9.9375 6.72758 10.0556 6.5166 10.2666C6.30562 10.4776 6.1875 10.7641 6.1875 11.0625C6.1875 11.4767 5.85171 11.8125 5.4375 11.8125C5.02329 11.8125 4.6875 11.4767 4.6875 11.0625C4.6875 10.3663 4.96377 9.69834 5.45605 9.20605C5.94834 8.71377 6.61631 8.4375 7.3125 8.4375C8.00869 8.4375 8.67666 8.71377 9.16895 9.20605C9.66123 9.69834 9.9375 10.3663 9.9375 11.0625V15H11.25V6.375C11.25 5.82799 11.0323 5.30379 10.6455 4.91699C10.2587 4.5302 9.73451 4.3125 9.1875 4.3125C8.64049 4.3125 8.11629 4.5302 7.72949 4.91699C7.3427 5.30379 7.125 5.82799 7.125 6.375C7.125 6.78921 6.78921 7.125 6.375 7.125C5.96079 7.125 5.625 6.78921 5.625 6.375C5.625 5.43017 5.99987 4.52357 6.66797 3.85547C7.33607 3.18737 8.24267 2.8125 9.1875 2.8125C10.1323 2.8125 11.0389 3.18737 11.707 3.85547C11.8122 3.96068 11.9097 4.07222 12 4.18848C12.0903 4.07222 12.1878 3.96068 12.293 3.85547C12.9611 3.18737 13.8677 2.8125 14.8125 2.8125ZM4.3125 17.625L4.32227 17.8291C4.36919 18.3012 4.5786 18.7446 4.91699 19.083C5.30379 19.4698 5.82799 19.6875 6.375 19.6875H17.625C18.172 19.6875 18.6962 19.4698 19.083 19.083C19.4698 18.6962 19.6875 18.172 19.6875 17.625V16.5H4.3125V17.625Z" fill="#FAFAFA"/>
</svg>
