<svg width="24" height="24" viewBox="0 0 24 24" fill="none" xmlns="http://www.w3.org/2000/svg">
<path d="M16.2188 11.25C16.633 11.25 16.9688 11.5858 16.9688 12C16.9688 12.4142 16.633 12.75 16.2188 12.75H7.78125C7.36704 12.75 7.03125 12.4142 7.03125 12C7.03125 11.5858 7.36704 11.25 7.78125 11.25H16.2188Z" fill="#FAFAFA"/>
<path fill-rule="evenodd" clip-rule="evenodd" d="M20.4375 7.5C20.8851 7.5 21.3144 7.67767 21.6309 7.99414C21.9473 8.31061 22.125 8.73995 22.125 9.1875V12.9375C22.125 13.3851 21.9473 13.8144 21.6309 14.1309C21.3144 14.4473 20.8851 14.625 20.4375 14.625H19.8105L18.1553 16.2803C18.0146 16.4209 17.8239 16.5 17.625 16.5H6.375C6.17609 16.5 5.98538 16.4209 5.84473 16.2803L4.18945 14.625H3.5625C3.11495 14.625 2.68561 14.4473 2.36914 14.1309C2.05267 13.8144 1.875 13.3851 1.875 12.9375V9.1875C1.875 8.73995 2.05267 8.31061 2.36914 7.99414C2.68561 7.67767 3.11495 7.5 3.5625 7.5H20.4375ZM3.5625 9C3.51277 9 3.46485 9.01952 3.42969 9.05469C3.39452 9.08985 3.375 9.13777 3.375 9.1875V12.9375C3.375 12.9872 3.39452 13.0351 3.42969 13.0703C3.46485 13.1055 3.51277 13.125 3.5625 13.125H4.5C4.69891 13.125 4.88962 13.2041 5.03027 13.3447L6.68555 15H17.3145L18.9697 13.3447L19.084 13.251C19.2063 13.1694 19.3508 13.125 19.5 13.125H20.4375C20.4872 13.125 20.5351 13.1055 20.5703 13.0703C20.6055 13.0351 20.625 12.9872 20.625 12.9375V9.1875C20.625 9.13777 20.6055 9.08985 20.5703 9.05469C20.5352 9.01952 20.4872 9 20.4375 9H3.5625Z" fill="#FAFAFA"/>
</svg>
