<svg width="24" height="24" viewBox="0 0 24 24" fill="none" xmlns="http://www.w3.org/2000/svg">
<path fill-rule="evenodd" clip-rule="evenodd" d="M20.6514 4.99902C20.9414 5.04875 21.1809 5.26615 21.2529 5.55957L22.5723 10.9316C22.5865 10.9899 22.5938 11.0504 22.5938 11.1104V16.4727C22.5935 16.8866 22.2577 17.2226 21.8438 17.2227H19.6885C19.5675 17.6136 19.3533 17.9738 19.0586 18.2686C18.5822 18.7448 17.9363 19.0126 17.2627 19.0127C16.589 19.0127 15.9423 18.7449 15.4658 18.2686C15.1712 17.9739 14.957 17.6136 14.8359 17.2227H8.16406C8.04305 17.6136 7.82891 17.9738 7.53418 18.2686C7.05788 18.7448 6.41181 19.0125 5.73828 19.0127C5.06464 19.0127 4.41783 18.7448 3.94141 18.2686C3.64668 17.9738 3.43156 17.6136 3.31055 17.2227H2.15625C1.74222 17.2227 1.40654 16.8866 1.40625 16.4727V11.3809L1.41016 11.3037C1.44878 10.9257 1.76808 10.6309 2.15625 10.6309H14.7217V5.73828C14.7217 5.32407 15.0575 4.9873 15.4717 4.9873H20.5244L20.6514 4.99902ZM5.73828 15.4316C5.46229 15.4316 5.19711 15.5412 5.00195 15.7363C4.80687 15.9315 4.69727 16.1967 4.69727 16.4727C4.6975 16.7483 4.80707 17.0131 5.00195 17.208C5.19707 17.4029 5.46246 17.5127 5.73828 17.5127C6.01399 17.5125 6.27864 17.4029 6.47363 17.208C6.66858 17.0131 6.77809 16.7483 6.77832 16.4727C6.77832 16.1968 6.66856 15.9314 6.47363 15.7363C6.27864 15.5414 6.014 15.4318 5.73828 15.4316ZM17.2627 15.4316C16.9867 15.4316 16.7215 15.5412 16.5264 15.7363C16.3314 15.9315 16.2217 16.1968 16.2217 16.4727C16.2219 16.7483 16.3315 17.0131 16.5264 17.208C16.7215 17.403 16.9868 17.5127 17.2627 17.5127C17.5384 17.5126 17.803 17.4029 17.998 17.208C18.193 17.0131 18.3025 16.7483 18.3027 16.4727C18.3027 16.1968 18.193 15.9315 17.998 15.7363C17.803 15.5413 17.5385 15.4317 17.2627 15.4316ZM2.90625 15.7227H3.31055C3.43145 15.331 3.64635 14.9709 3.94141 14.6758C4.41787 14.1993 5.06447 13.9316 5.73828 13.9316C6.41182 13.9318 7.05788 14.1995 7.53418 14.6758C7.82908 14.9708 8.04318 15.3312 8.16406 15.7227H14.7217V12.1309H2.90625V15.7227ZM16.2217 14.1572C16.5463 14.0113 16.9 13.9316 17.2627 13.9316C17.9363 13.9317 18.5822 14.1995 19.0586 14.6758C19.3536 14.9709 19.5686 15.331 19.6895 15.7227H21.0938V11.2012L19.9365 6.48828H16.2217V14.1572Z" fill="#FAFAFA"/>
</svg>
