<svg width="24" height="24" viewBox="0 0 24 24" fill="none" xmlns="http://www.w3.org/2000/svg">
<path fill-rule="evenodd" clip-rule="evenodd" d="M15.2749 3.46977C15.8971 3.30308 16.5463 3.26075 17.185 3.34477L17.4243 3.38188C17.9777 3.48269 18.5103 3.67814 18.9985 3.96L19.2045 4.08598C19.6772 4.39086 20.0948 4.77553 20.4379 5.2227C21.0855 6.06695 20.4511 7.16292 19.4233 7.43852L17.5834 7.9307C17.835 8.03838 18.0779 8.16657 18.309 8.31547C18.8507 8.66454 19.3182 9.11773 19.685 9.6475L19.8178 9.84867C20.115 10.3264 20.3285 10.8523 20.4477 11.4034L20.4936 11.6407C20.5853 12.1956 20.5797 12.7628 20.479 13.3174C20.2887 14.3645 19.0513 14.631 18.1567 14.0547L14.5278 11.7159L15.1635 19.8643C15.2426 20.8811 14.4382 21.7498 13.4184 21.75H10.5805C9.56051 21.75 8.7563 20.8812 8.8354 19.8643L9.47017 11.712L5.83638 14.0547C4.94176 14.631 3.70437 14.3645 3.51411 13.3174C3.41338 12.7628 3.4078 12.1956 3.49946 11.6407L3.54536 11.4034C3.66452 10.8523 3.87716 10.3264 4.17427 9.84867L4.30708 9.6475C4.67391 9.11777 5.14146 8.66453 5.68306 8.31547C5.91384 8.16675 6.15647 8.03831 6.40767 7.9307L4.5688 7.43852C3.54112 7.16281 2.90744 6.06691 3.55513 5.2227C3.89823 4.77562 4.31499 4.39083 4.78755 4.08598L4.99458 3.96C5.48279 3.67817 6.01539 3.48266 6.5688 3.38188L6.80708 3.34477C7.44596 3.26066 8.09578 3.30301 8.71821 3.46977C9.34065 3.63657 9.92378 3.92514 10.435 4.31742C10.9463 4.70974 11.3765 5.19877 11.6987 5.75688C11.8125 5.95403 11.9105 6.1591 11.9956 6.36918C12.0807 6.15885 12.1805 5.95425 12.2944 5.75688C12.6166 5.19877 13.0468 4.70974 13.5581 4.31742C14.0693 3.92518 14.6524 3.63654 15.2749 3.46977ZM12.1538 10.0733C12.0634 10.0026 11.9356 10.0027 11.8452 10.0733L11.1411 10.625C11.086 10.6682 11.0518 10.733 11.0463 10.8028L10.3315 19.9805C10.3202 20.1258 10.4348 20.25 10.5805 20.25H13.4184C13.5639 20.2498 13.6787 20.1256 13.6674 19.9805L12.9526 10.8028C12.9472 10.7331 12.9128 10.6682 12.8579 10.625L12.1538 10.0733ZM9.06196 9.11039C8.62481 9.01589 8.17292 9.009 7.73286 9.08891C7.29269 9.16892 6.87163 9.33387 6.49556 9.57621C6.11952 9.81858 5.79517 10.1332 5.54048 10.501C5.2858 10.8688 5.10574 11.2835 5.01118 11.7207C4.93248 12.0849 4.91422 12.459 4.9565 12.8282C4.97871 12.8193 5.00173 12.8082 5.02388 12.794L10.0346 9.56547C10.0564 9.5514 10.0752 9.5349 10.0922 9.51859C9.77367 9.32774 9.42592 9.18914 9.06196 9.11039ZM16.2602 9.08891C15.8201 9.00895 15.3683 9.01588 14.9311 9.11039C14.5671 9.18911 14.2194 9.32775 13.9008 9.51859C13.9179 9.53488 13.9366 9.55142 13.9584 9.56547L18.9692 12.794C18.9914 12.8083 19.0143 12.8193 19.0366 12.8282C19.0788 12.459 19.0606 12.0849 18.9819 11.7207C18.8873 11.2835 18.7072 10.8688 18.4526 10.501C18.1979 10.1332 17.8726 9.81858 17.4965 9.57621C17.1206 9.33402 16.7002 9.16889 16.2602 9.08891ZM8.32954 4.91899C7.89747 4.80326 7.44685 4.7737 7.00337 4.83207C6.55988 4.89047 6.13199 5.03521 5.74458 5.25883C5.4218 5.44519 5.13134 5.68353 4.88618 5.96293C4.90775 5.9735 4.93191 5.98243 4.95747 5.9893L10.7153 7.53227C10.7404 7.53897 10.765 7.54229 10.7885 7.54399C10.7159 7.17969 10.5851 6.82848 10.3989 6.5059C10.1752 6.11856 9.8768 5.77918 9.52193 5.50688C9.16699 5.23458 8.76166 5.03477 8.32954 4.91899ZM16.9897 4.83207C16.5461 4.77367 16.0947 4.80321 15.6625 4.91899C15.2307 5.03477 14.8259 5.23474 14.4711 5.50688C14.1163 5.77915 13.8179 6.1186 13.5942 6.5059C13.4079 6.82851 13.2762 7.17964 13.2036 7.54399C13.2272 7.54229 13.2526 7.53902 13.2778 7.53227L19.0356 5.9893C19.061 5.98246 19.0845 5.97342 19.1059 5.96293C18.8607 5.68353 18.5713 5.44519 18.2485 5.25883C17.8611 5.03517 17.4332 4.89049 16.9897 4.83207Z" fill="#FAFAFA"/>
</svg>
