<svg width="24" height="24" viewBox="0 0 24 24" fill="none" xmlns="http://www.w3.org/2000/svg">
<path fill-rule="evenodd" clip-rule="evenodd" d="M10.6475 7.1875C10.8744 6.9715 11.218 6.85879 11.5674 6.94727L11.7168 6.99707L11.7471 7.01074C13.0398 7.62785 14.1323 8.59378 14.8994 9.79785L15.0293 9.99609C15.662 10.9944 16 12.1515 16 13.335V13.3408C15.983 15.5086 14.1822 17.0122 12.1914 17.0811L11.999 17.083C10.0099 17.0586 8.08817 15.577 8.01367 13.4092L8.00098 13.2109C7.97203 12.2231 8.46183 11.3095 9.18652 10.7178C9.42776 10.5017 9.76418 10.3488 10.1475 10.4395C10.4924 10.5212 10.7007 10.7629 10.7979 10.9473L10.8877 11.0908C11.0209 10.6979 11.0517 10.24 10.9824 9.76953L10.9492 9.5791C10.861 9.13839 10.7008 8.71407 10.4746 8.32324L10.4756 8.32227C10.2107 7.8699 10.412 7.41171 10.6475 7.1875ZM12.4199 9.28516L12.4658 9.54395V9.54688L12.5068 9.9209C12.5695 10.8109 12.3927 11.8034 11.7568 12.5947L11.7559 12.5957C11.6666 12.7064 11.5545 12.7965 11.4277 12.8594C11.3038 12.9208 11.1681 12.9544 11.0303 12.96L11.0312 12.9609C11.0281 12.961 11.0246 12.9599 11.0215 12.96L11.0205 12.9609L11.0195 12.96C10.8787 12.9646 10.7384 12.9399 10.6084 12.8857C10.4835 12.8335 10.3702 12.7546 10.2764 12.6562C10.1517 12.5282 9.99401 12.3704 9.83887 12.1836C9.63236 12.4526 9.5139 12.7666 9.50098 13.0752L9.50684 13.2607L9.50977 13.3213C9.53263 14.5623 10.6618 15.5662 12.0166 15.583L12.2695 15.5752C13.5144 15.4758 14.4875 14.5339 14.5 13.335L14.4863 12.9766C14.4321 12.2638 14.2163 11.5719 13.8555 10.9521L13.6631 10.6484L13.6475 10.624C13.3074 10.0857 12.8858 9.60526 12.4004 9.19922C12.4066 9.22786 12.4142 9.25641 12.4199 9.28516Z" fill="#FAFAFA"/>
<path fill-rule="evenodd" clip-rule="evenodd" d="M14.75 2.00393C15.1642 2.00393 15.5 2.33971 15.5 2.75393V4.05275L18 4.04883C19.1046 4.04883 20 4.94426 20 6.04883V20L19.9893 20.2041C19.887 21.2128 19.0357 22 18 22H6C4.89543 22 4 21.1046 4 20V6.04883C4 4.94426 4.89543 4.04883 6 4.04883H8.5V2.75C8.5 2.33579 8.83579 2 9.25 2C9.66421 2 10 2.33579 10 2.75V4.04883L14 4.05275V2.75393C14 2.33971 14.3358 2.00393 14.75 2.00393ZM17.8125 18.6396C16.7345 18.1846 15.506 18.2578 14.4893 18.8369C12.9492 19.7141 11.0705 19.7565 9.49219 18.9502L9.40234 18.9043C8.21847 18.2995 6.809 18.3302 5.65332 18.9873L5.5 19.0742V20C5.5 20.2761 5.72386 20.5 6 20.5H18C18.2761 20.5 18.5 20.2761 18.5 20V18.9297L17.8125 18.6396ZM6 5.54883C5.72386 5.54883 5.5 5.77269 5.5 6.04883V17.3945C6.96864 16.7792 8.64645 16.8341 10.084 17.5684L10.1748 17.6143C11.303 18.1906 12.6462 18.1602 13.7471 17.5332C15.1693 16.7233 16.8876 16.6214 18.3955 17.2578L18.5 17.3018V6.04883C18.5 5.77269 18.2761 5.54883 18 5.54883H6Z" fill="#FAFAFA"/>
</svg>
