<svg width="24" height="24" viewBox="0 0 24 24" fill="none" xmlns="http://www.w3.org/2000/svg">
<path d="M20.076 17.4989C20.4899 17.4989 20.8255 17.8351 20.826 18.2489C20.8258 18.663 20.4901 18.9989 20.076 18.9989H14.8631L15.6492 19.9296C15.916 20.2461 15.8758 20.7192 15.5594 20.9862C15.2429 21.2529 14.7698 21.2126 14.5027 20.8964L12.6766 18.7333C12.4888 18.5104 12.4466 18.1979 12.5692 17.9335C12.6921 17.669 12.9582 17.4991 13.2498 17.4989H20.076Z" fill="#FAFAFA"/>
<path d="M11.282 3.20299C12.3396 2.91285 13.4598 2.93378 14.5057 3.26549C15.4202 3.5558 16.2454 4.07263 16.9041 4.76452L17.1766 5.07213L17.2215 5.13366L17.283 5.22643L17.3201 5.28795C17.4399 5.51256 17.495 5.77254 17.4695 6.03405C17.444 6.29434 17.3415 6.53889 17.1795 6.73717C17.1635 6.75675 17.1456 6.77595 17.1277 6.79381L17.0496 6.87194C17.0329 6.88863 17.0151 6.90475 16.9969 6.91979L15.5809 8.08385C15.7856 8.22277 15.9825 8.37593 16.1688 8.54186C16.9266 9.21727 17.485 10.0844 17.7947 11.0477C17.4395 11.1208 17.0965 11.2798 16.7996 11.5301C16.6752 11.6352 16.564 11.7509 16.4686 11.8749C16.454 11.8095 16.4404 11.7434 16.4227 11.6786C16.2088 10.8999 15.7741 10.199 15.1717 9.66198C14.813 9.34243 14.4017 9.08836 13.9598 8.90905C13.715 8.80967 13.5408 8.58815 13.5008 8.32702C13.461 8.0657 13.5613 7.80253 13.7654 7.63463L15.8934 5.88366C15.3964 5.33247 14.7612 4.92044 14.0516 4.69518C13.2822 4.45123 12.4574 4.43559 11.6785 4.64928C10.8996 4.86323 10.199 5.29852 9.66193 5.90124C9.34271 6.25966 9.08925 6.66946 8.90997 7.1112C8.81068 7.3559 8.58892 7.53101 8.32794 7.57116C8.06696 7.61101 7.80356 7.51009 7.63556 7.30651L5.88458 5.1776C5.33269 5.67488 4.92046 6.31011 4.69513 7.02038C4.45117 7.7899 4.43541 8.6145 4.64923 9.39342C4.86319 10.1721 5.29773 10.8731 5.90021 11.41C6.25844 11.729 6.66934 11.9827 7.11114 12.162C7.35567 12.2615 7.53026 12.483 7.57013 12.744C7.60982 13.005 7.50927 13.2685 7.30548 13.4364L5.17755 15.1864C5.67483 15.7383 6.30998 16.1515 7.02032 16.3768C7.78964 16.6206 8.61454 16.6365 9.39337 16.4227C9.98968 16.2589 10.5394 15.9643 11.0057 15.5653C11.038 16.0431 11.2198 16.4804 11.5047 16.8309C11.4025 16.9566 11.3126 17.094 11.2381 17.2421C10.7886 17.5153 10.302 17.7283 9.78986 17.869C8.73244 18.1592 7.61201 18.1381 6.56622 17.8065C5.52083 17.4748 4.59243 16.8468 3.89532 15.9999C3.67457 15.7315 3.56891 15.3853 3.60236 15.0389L3.62189 14.909C3.68126 14.6118 3.84174 14.3443 4.07501 14.1522L5.49005 12.9872C5.28566 12.8485 5.08913 12.6958 4.90314 12.5301C4.08394 11.8003 3.49349 10.8483 3.20294 9.79088C2.91274 8.73343 2.93395 7.61297 3.26544 6.56725C3.59722 5.52165 4.22497 4.59252 5.07208 3.89538L5.13361 3.85045L5.22638 3.78893L5.2879 3.75182C5.51288 3.63169 5.77268 3.57704 6.034 3.60241C6.38193 3.63656 6.70014 3.80834 6.91974 4.07506L8.0838 5.49108C8.22279 5.28611 8.37575 5.08962 8.54181 4.90319L8.82599 4.60631C9.51168 3.94064 10.3567 3.45709 11.282 3.20299Z" fill="#FAFAFA"/>
<path d="M17.7664 12.6766C18.0829 12.4097 18.556 12.45 18.8231 12.7665L20.6492 14.9296C20.8371 15.1525 20.8794 15.4649 20.7567 15.7294C20.6336 15.9937 20.3676 16.1639 20.076 16.1639H13.2498C12.836 16.1639 12.5005 15.8276 12.4998 15.4139C12.4998 14.9997 12.8356 14.6639 13.2498 14.6639H18.4627L17.6766 13.7333C17.4097 13.4168 17.4502 12.9438 17.7664 12.6766Z" fill="#FAFAFA"/>
<path fill-rule="evenodd" clip-rule="evenodd" d="M8.70587 9.22741C9.4285 8.21694 10.8338 7.98363 11.8445 8.70592C12.8548 9.42869 13.0882 10.8341 12.366 11.8446C11.6435 12.855 10.2381 13.0881 9.22736 12.3661C8.21691 11.6435 7.98335 10.2383 8.70587 9.22741ZM10.9725 9.92565C10.6356 9.68493 10.1665 9.7628 9.9256 10.0995C9.68486 10.4363 9.76343 10.9054 10.1004 11.1464C10.4372 11.3867 10.9055 11.3091 11.1463 10.9725C11.387 10.6357 11.3087 10.1666 10.9725 9.92565Z" fill="#FAFAFA"/>
</svg>
