<svg width="24" height="24" viewBox="0 0 24 24" fill="none" xmlns="http://www.w3.org/2000/svg">
<path fill-rule="evenodd" clip-rule="evenodd" d="M9 3C9.04743 3 9.09368 3.00525 9.13867 3.01367C9.14156 3.01421 9.14458 3.01407 9.14746 3.01465C9.15141 3.01544 9.15525 3.01673 9.15918 3.01758C9.19707 3.0258 9.23409 3.03766 9.27051 3.05176C9.28404 3.057 9.29741 3.06236 9.31055 3.06836C9.31863 3.07204 9.32699 3.07512 9.33496 3.0791L15.0869 5.95508L20.8184 4.52246L20.9023 4.50586C21.1004 4.47985 21.3026 4.53477 21.4619 4.65918C21.6437 4.80132 21.75 5.01921 21.75 5.25V18.75C21.75 19.0942 21.5155 19.3941 21.1816 19.4775L15.1816 20.9775C15.1763 20.9789 15.1704 20.9783 15.165 20.9795C15.129 20.9876 15.0925 20.9943 15.0547 20.9971C15.0505 20.9974 15.0462 20.9968 15.042 20.9971C15.0281 20.9978 15.0141 21 15 21C14.9382 21 14.8788 20.9897 14.8213 20.9756C14.7964 20.9695 14.7722 20.9618 14.748 20.9531C14.7261 20.9453 14.7045 20.9375 14.6836 20.9277C14.6776 20.925 14.6709 20.9238 14.665 20.9209L8.91211 18.0439L3.18164 19.4775C2.95765 19.5335 2.72006 19.4829 2.53809 19.3408C2.35628 19.1987 2.25 18.9808 2.25 18.75V5.25L2.26074 5.12305C2.31024 4.83407 2.52632 4.59547 2.81836 4.52246L8.81836 3.02246L8.83398 3.01953C8.88746 3.00743 8.94287 3 9 3ZM15.75 7.33496V19.2891L20.25 18.1641V6.20996L15.75 7.33496ZM9.75 16.7861L14.25 19.0361V7.21289L9.75 4.96289V16.7861ZM3.75 5.83496V17.7891L8.25 16.6641V4.70898L3.75 5.83496Z" fill="#FAFAFA"/>
</svg>
