<svg width="24" height="24" viewBox="0 0 24 24" fill="none" xmlns="http://www.w3.org/2000/svg">
<path d="M17.418 17.25C17.8321 17.25 18.1679 17.5858 18.168 18C18.1678 18.4141 17.8321 18.75 17.418 18.75H14.6143C14.2002 18.75 13.8644 18.4141 13.8643 18C13.8643 17.5859 14.2001 17.25 14.6143 17.25H17.418Z" fill="#FAFAFA"/>
<path d="M17.418 14.3379C17.8321 14.3379 18.1679 14.6737 18.168 15.0879C18.168 15.5021 17.8322 15.8379 17.418 15.8379H14.6143C14.2001 15.8378 13.8643 15.5021 13.8643 15.0879C13.8643 14.6737 14.2001 14.3379 14.6143 14.3379H17.418Z" fill="#FAFAFA"/>
<path fill-rule="evenodd" clip-rule="evenodd" d="M19.4707 11.6113C20.4794 11.7136 21.2666 12.5649 21.2666 13.6006V13.7021C21.8072 13.7107 22.2449 14.1487 22.25 14.6924L22.2832 18.2705C22.2881 18.8227 21.8442 19.2743 21.292 19.2793C21.2835 19.2794 21.275 19.2785 21.2666 19.2783V19.5996C21.2665 20.6351 20.4793 21.4866 19.4707 21.5889L19.2666 21.6006H12.7666C11.7312 21.6005 10.8799 20.813 10.7773 19.8047L10.7666 19.5996V19.2783C10.2262 19.2697 9.78844 18.8325 9.7832 18.2891L9.75 14.7109C9.74503 14.1588 10.189 13.7072 10.7412 13.7021C10.7497 13.7021 10.7582 13.702 10.7666 13.7021V13.6006C10.7666 12.496 11.6621 11.6006 12.7666 11.6006H19.2666L19.4707 11.6113ZM12.7666 13.1006C12.4905 13.1006 12.2666 13.3245 12.2666 13.6006V19.5996C12.2667 19.8756 12.4906 20.1005 12.7666 20.1006H19.2666C19.5427 20.1006 19.7665 19.8756 19.7666 19.5996V13.6006C19.7666 13.3244 19.5427 13.1006 19.2666 13.1006H12.7666Z" fill="#FAFAFA"/>
<path fill-rule="evenodd" clip-rule="evenodd" d="M6 3C6.9665 3 7.75 3.7835 7.75 4.75V5.25H13.75V4.75C13.75 3.7835 14.5335 3 15.5 3H18C18.9665 3 19.75 3.7835 19.75 4.75V7.25C19.75 8.2165 18.9665 9 18 9H17.5V9.75C17.5 10.1642 17.1642 10.5 16.75 10.5C16.3358 10.5 16 10.1642 16 9.75V9H15.5C14.5335 9 13.75 8.2165 13.75 7.25V6.75H7.75V7.25C7.75 8.2165 6.9665 9 6 9H5.5V15H5.75C6.7165 15 7.5 15.7835 7.5 16.75V17.25H7.7998C8.21402 17.25 8.5498 17.5858 8.5498 18C8.5498 18.4142 8.21402 18.75 7.7998 18.75H7.5V19.25C7.5 20.2165 6.7165 21 5.75 21H3.5C2.5335 21 1.75 20.2165 1.75 19.25V16.75C1.75 15.7835 2.5335 15 3.5 15H4V9H3.5C2.5335 9 1.75 8.2165 1.75 7.25V4.75C1.75 3.7835 2.5335 3 3.5 3H6ZM3.5 16.5C3.36193 16.5 3.25 16.6119 3.25 16.75V19.25C3.25 19.3881 3.36193 19.5 3.5 19.5H5.75C5.88807 19.5 6 19.3881 6 19.25V16.75C6 16.6119 5.88807 16.5 5.75 16.5H3.5ZM3.5 4.5C3.36193 4.5 3.25 4.61193 3.25 4.75V7.25C3.25 7.38807 3.36193 7.5 3.5 7.5H6C6.13807 7.5 6.25 7.38807 6.25 7.25V4.75C6.25 4.61193 6.13807 4.5 6 4.5H3.5ZM15.5 4.5C15.3619 4.5 15.25 4.61193 15.25 4.75V7.25C15.25 7.38807 15.3619 7.5 15.5 7.5H18C18.1381 7.5 18.25 7.38807 18.25 7.25V4.75C18.25 4.61193 18.1381 4.5 18 4.5H15.5Z" fill="#FAFAFA"/>
</svg>
