<svg width="24" height="24" viewBox="0 0 24 24" fill="none" xmlns="http://www.w3.org/2000/svg">
<path fill-rule="evenodd" clip-rule="evenodd" d="M18.167 3.99805C18.6928 3.99818 19.1975 4.20733 19.5693 4.5791C19.941 4.95098 20.1504 5.45565 20.1504 5.98145V10.8457C20.5815 10.9465 20.9807 11.1634 21.2988 11.4814C21.7478 11.9304 22 12.5398 22 13.1748V19.249C21.9998 19.6631 21.6641 19.999 21.25 19.999C20.8359 19.999 20.5002 19.6631 20.5 19.249V17.8301H3.5V19.252C3.49984 19.666 3.16411 20.002 2.75 20.002C2.33589 20.002 2.00016 19.666 2 19.252V13.1748C2.00004 12.5398 2.25218 11.9304 2.70117 11.4814C3.01953 11.1631 3.41909 10.9464 3.85059 10.8457V5.98145C3.85059 5.45546 4.05971 4.95102 4.43164 4.5791C4.80359 4.2072 5.30801 3.99805 5.83398 3.99805H18.167ZM4.39453 12.2803C4.15733 12.2803 3.92945 12.3743 3.76172 12.542C3.59402 12.7097 3.50004 12.9377 3.5 13.1748V16.3301H20.5V13.1748C20.5 12.9377 20.406 12.7097 20.2383 12.542C20.0706 12.3743 19.8427 12.2803 19.6055 12.2803H19.4199C19.4134 12.2804 19.4069 12.2812 19.4004 12.2812C19.394 12.2812 19.3872 12.2804 19.3809 12.2803H4.62012C4.61362 12.2804 4.60712 12.2812 4.60059 12.2812C4.59422 12.2812 4.58739 12.2804 4.58105 12.2803H4.39453ZM5.83398 5.49805C5.7058 5.49805 5.58282 5.54904 5.49219 5.63965C5.40155 5.73028 5.35059 5.8533 5.35059 5.98145V10.7803H7.5498V9.26953C7.54982 8.85258 7.71592 8.45302 8.01074 8.1582C8.30559 7.86339 8.70512 7.69727 9.12207 7.69727H14.8779C15.2948 7.69736 15.6945 7.86347 15.9893 8.1582C16.284 8.453 16.4502 8.85267 16.4502 9.26953V10.7803H18.6504V5.98145C18.6504 5.85352 18.5991 5.73023 18.5088 5.63965C18.4183 5.5492 18.295 5.49818 18.167 5.49805H5.83398ZM9.12207 9.19727C9.10291 9.19727 9.08483 9.20523 9.07129 9.21875C9.05776 9.23228 9.04982 9.25043 9.0498 9.26953V10.7803H14.9502V9.26953C14.9502 9.25051 14.9421 9.23226 14.9287 9.21875C14.9153 9.20531 14.897 9.19736 14.8779 9.19727H9.12207Z" fill="#FAFAFA"/>
</svg>
