<svg width="24" height="24" viewBox="0 0 24 24" fill="none" xmlns="http://www.w3.org/2000/svg">
<path d="M21 11.25H3C2.58579 11.25 2.25 11.5858 2.25 12C2.25 12.4142 2.58579 12.75 3 12.75L21 12.75C21.4142 12.75 21.75 12.4142 21.75 12C21.75 11.5858 21.4142 11.25 21 11.25Z" fill="#FAFAFA"/>
<path d="M18.25 9C18.25 9.41421 18.5858 9.75 19 9.75C19.4142 9.75 19.75 9.41421 19.75 9V7C19.75 6.58579 19.4142 6.25 19 6.25C18.5858 6.25 18.25 6.58579 18.25 7V9ZM16.5 4.25H15.1875C14.7733 4.25 14.4375 4.58579 14.4375 5C14.4375 5.41421 14.7733 5.75 15.1875 5.75H16.5C16.9142 5.75 17.25 5.41421 17.25 5C17.25 4.58579 16.9142 4.25 16.5 4.25ZM12.5625 4.25H11.25C10.8358 4.25 10.5 4.58579 10.5 5C10.5 5.41421 10.8358 5.75 11.25 5.75L12.5625 5.75C12.9767 5.75 13.3125 5.41421 13.3125 5C13.3125 4.58579 12.9767 4.25 12.5625 4.25ZM8.625 4.25H7.3125C6.89829 4.25 6.5625 4.58579 6.5625 5C6.5625 5.41421 6.89829 5.75 7.3125 5.75H8.625C9.03921 5.75 9.375 5.41421 9.375 5C9.375 4.58579 9.03921 4.25 8.625 4.25ZM4.25 9C4.25 9.41421 4.58579 9.75 5 9.75C5.41421 9.75 5.75 9.41421 5.75 9V7C5.75 6.58579 5.41421 6.25 5 6.25C4.58579 6.25 4.25 6.58579 4.25 7V9Z" fill="#FAFAFA"/>
<path d="M17.25 19.75H6.75C6.13799 19.75 5.52498 19.5603 5.0498 19.1875C4.57028 18.8112 4.25003 18.2568 4.25 17.627L4.25 15L4.25391 14.9229C4.29253 14.5449 4.61183 14.25 5 14.25C5.38817 14.25 5.70747 14.5449 5.74609 14.9229L5.75 15L5.75 17.627C5.75003 17.7254 5.79883 17.8691 5.97559 18.0078C6.15679 18.15 6.43378 18.25 6.75 18.25H17.25C17.5662 18.25 17.8432 18.15 18.0244 18.0078C18.2012 17.8691 18.25 17.7254 18.25 17.627V15L18.2539 14.9229C18.2925 14.5449 18.6118 14.25 19 14.25C19.3882 14.25 19.7075 14.5449 19.7461 14.9229L19.75 15V17.627C19.75 18.2568 19.4297 18.8112 18.9502 19.1875C18.475 19.5603 17.862 19.75 17.25 19.75Z" fill="#FAFAFA"/>
</svg>
