<svg width="24" height="24" viewBox="0 0 24 24" fill="none" xmlns="http://www.w3.org/2000/svg">
<path fill-rule="evenodd" clip-rule="evenodd" d="M11.75 2.29303C11.9388 2.22625 12.1481 2.2371 12.3301 2.32623C15.1051 3.68642 17.6148 6.13893 18.9805 8.94635L19.0235 9.04401C19.2167 9.53158 19.0949 10.0316 18.8047 10.3848C18.5065 10.7475 18.0435 10.9532 17.5528 10.9532H16.7539C16.7285 10.9532 16.7085 10.956 16.6934 10.96C18.1656 12.5743 19.2068 14.0505 20.5557 16.336L20.6416 16.5069C20.8119 16.9096 20.7753 17.3469 20.5752 17.7061C20.3791 18.0579 20.0438 18.31 19.6485 18.4219L19.4756 18.462C18.0227 18.7131 15.2553 19.1414 12.8369 19.2296V22.0001C12.8369 22.4142 12.5011 22.75 12.0869 22.7501C11.6728 22.75 11.337 22.4142 11.3369 22.0001V19.2354C9.21406 19.1722 6.787 18.8335 5.20607 18.5762L4.52443 18.462C4.0547 18.3808 3.64891 18.1081 3.42482 17.7061C3.19611 17.2955 3.18084 16.7825 3.44435 16.336L3.9424 15.5059C5.06298 13.675 6.01985 12.3701 7.30568 10.96C7.29067 10.9561 7.27099 10.9532 7.24611 10.9532H6.44728C5.95635 10.9532 5.49351 10.7468 5.19533 10.3839C4.88584 10.007 4.76779 9.46399 5.01955 8.94635L5.28908 8.42389C6.70026 5.83642 9.06846 3.60137 11.6699 2.32623L11.75 2.29303ZM12 3.84381C9.69446 5.06552 7.61972 7.12975 6.44533 9.45221L6.44728 9.45319H7.24611C7.86574 9.45319 8.40168 9.77384 8.67091 10.2676C8.92986 10.7429 8.91573 11.3459 8.54201 11.8243L8.46291 11.918C7.0772 13.4305 6.0974 14.8023 4.80275 16.9864C6.42885 17.2669 9.56577 17.7465 12 17.7471L12.4658 17.7413C14.8214 17.6871 17.672 17.2493 19.1963 16.9864C18.0665 15.0803 17.1773 13.7925 16.0479 12.4903L15.5371 11.918C15.0873 11.4268 15.053 10.7744 15.3291 10.2676C15.5983 9.77385 16.1343 9.45323 16.7539 9.45319H17.5528L17.5537 9.45221C16.3793 7.12994 14.3054 5.06544 12 3.84381Z" fill="#FAFAFA"/>
</svg>
