<svg width="24" height="24" viewBox="0 0 24 24" fill="none" xmlns="http://www.w3.org/2000/svg">
<path fill-rule="evenodd" clip-rule="evenodd" d="M11.6494 8.90137C11.7424 8.89668 11.836 8.9068 11.9258 8.93164L12.0576 8.98047L12.0635 8.9834C12.865 9.3627 13.5444 9.95993 14.0234 10.7061C14.5024 11.4523 14.7623 12.3184 14.7734 13.2051L14.7744 13.2139C14.7743 13.9794 14.47 14.7146 13.9287 15.2559C13.3875 15.797 12.653 16.1004 11.8877 16.1006C11.1223 16.1005 10.387 15.797 9.8457 15.2559C9.33836 14.7484 9.03938 14.0707 9.00391 13.3574L9 13.2139C8.99388 12.6978 9.13832 12.1907 9.41504 11.7549C9.68878 11.324 10.0811 10.981 10.5439 10.7666C10.5459 10.7656 10.5478 10.7637 10.5498 10.7627C10.5563 10.7597 10.5638 10.7568 10.5703 10.7539C10.6749 10.7058 10.7881 10.6788 10.9033 10.6748L10.9971 10.6768C11.0468 10.6804 11.0962 10.6891 11.1445 10.7012C11.1061 10.5365 11.0448 10.3774 10.9551 10.2324C10.8577 10.0761 10.8118 9.89188 10.8252 9.70801L10.8467 9.56934C10.8791 9.43339 10.9435 9.3057 11.0361 9.19922L11.1367 9.10156C11.2442 9.01225 11.3728 8.94959 11.5107 8.91992L11.6494 8.90137ZM12.5625 11.0449C12.5642 11.5292 12.4476 12.0072 12.2197 12.4355C12.1269 12.6099 11.9627 12.7367 11.7705 12.7822C11.5783 12.8275 11.3749 12.7872 11.2139 12.6729C11.0471 12.5543 10.8995 12.4125 10.7734 12.2539C10.6991 12.3251 10.631 12.4044 10.5752 12.4922C10.4407 12.7042 10.3711 12.9511 10.375 13.2021V13.2139C10.3751 13.6146 10.5341 13.9997 10.8174 14.2832C11.1009 14.5667 11.4867 14.7255 11.8877 14.7256C12.2885 14.7254 12.6736 14.5666 12.957 14.2832C13.2403 13.9997 13.3984 13.6146 13.3984 13.2139C13.389 12.5875 13.2056 11.9755 12.8672 11.4482C12.7757 11.3058 12.6734 11.1711 12.5625 11.0449Z" fill="#FAFAFA"/>
<path d="M5.96973 10.9697C6.26262 10.6768 6.73738 10.6768 7.03027 10.9697L8.03027 11.9697C8.09857 12.038 8.15343 12.1195 8.19141 12.21C8.19974 12.2298 8.20434 12.251 8.21094 12.2715C8.23418 12.3438 8.25 12.4199 8.25 12.5C8.25 12.5482 8.24403 12.595 8.23535 12.6406C8.22608 12.6891 8.21378 12.7368 8.19531 12.7822C8.15983 12.8696 8.10679 12.9473 8.04297 13.0146C8.03837 13.0195 8.03501 13.0255 8.03027 13.0303L7.03027 14.0303C6.73738 14.3232 6.26262 14.3232 5.96973 14.0303C5.75852 13.8191 5.70152 13.514 5.79492 13.25H5C4.58579 13.25 4.25 12.9142 4.25 12.5C4.25 12.0858 4.58579 11.75 5 11.75H5.79492C5.70152 11.486 5.75852 11.1809 5.96973 10.9697Z" fill="#FAFAFA"/>
<path d="M16.7695 10.9697C17.0624 10.6769 17.5372 10.677 17.8301 10.9697C18.0413 11.181 18.0983 11.486 18.0049 11.75H18.7998C19.214 11.75 19.5498 12.0858 19.5498 12.5C19.5498 12.9142 19.214 13.25 18.7998 13.25H18.0049C18.0983 13.514 18.0413 13.819 17.8301 14.0303C17.5372 14.323 17.0624 14.3231 16.7695 14.0303L15.7695 13.0303C15.7648 13.0255 15.7614 13.0195 15.7568 13.0146C15.6931 12.9474 15.6409 12.8694 15.6055 12.7822C15.5869 12.7366 15.5728 12.6892 15.5635 12.6406C15.5548 12.5951 15.5498 12.5481 15.5498 12.5C15.5498 12.431 15.5627 12.3652 15.5801 12.3018C15.5886 12.2708 15.596 12.2395 15.6084 12.21C15.6202 12.1818 15.6364 12.1561 15.6514 12.1299C15.6779 12.0835 15.7089 12.0402 15.7451 12C15.7538 11.9904 15.7604 11.9789 15.7695 11.9697L16.7695 10.9697Z" fill="#FAFAFA"/>
<path fill-rule="evenodd" clip-rule="evenodd" d="M15 2.25C15.4142 2.25 15.75 2.58579 15.75 3C15.75 3.41421 15.4142 3.75 15 3.75H12.75V6H16L16.3086 6.00781C19.4789 6.16843 22 8.78979 22 12V13C22 15.6308 20.3062 17.8642 17.9502 18.6738V20.5498C17.9502 20.964 17.6144 21.2998 17.2002 21.2998C16.786 21.2998 16.4502 20.964 16.4502 20.5498V18.9805C16.4031 18.984 16.356 18.9898 16.3086 18.9922L16 19H8C7.8382 19 7.6781 18.9911 7.51953 18.9785V20.5498C7.51953 20.964 7.18374 21.2998 6.76953 21.2998C6.35532 21.2998 6.01953 20.964 6.01953 20.5498V18.6641C3.77165 17.8781 2.1337 15.7934 2.00781 13.3086L2 13V12C2 8.68629 4.68629 6 8 6H11.25V3.75H9C8.58579 3.75 8.25 3.41421 8.25 3C8.25 2.58579 8.58579 2.25 9 2.25H15ZM8 7.5C5.51472 7.5 3.5 9.51472 3.5 12V13C3.5 15.4853 5.51472 17.5 8 17.5H16C18.4853 17.5 20.5 15.4853 20.5 13V12C20.5 9.51472 18.4853 7.5 16 7.5H8Z" fill="#FAFAFA"/>
</svg>
