<svg width="24" height="24" viewBox="0 0 24 24" fill="none" xmlns="http://www.w3.org/2000/svg">
<path d="M8.52539 13.793C8.9396 13.793 9.27539 14.1288 9.27539 14.543C9.27539 14.9572 8.9396 15.293 8.52539 15.293H7.78711V16.4043C7.78711 16.8185 7.45132 17.1543 7.03711 17.1543C6.6229 17.1543 6.28711 16.8185 6.28711 16.4043V15.293H5.54883C5.13461 15.293 4.79883 14.9572 4.79883 14.543C4.79883 14.1288 5.13461 13.793 5.54883 13.793H8.52539Z" fill="#FAFAFA"/>
<path d="M14.8818 10.6826C15.2313 10.6827 15.5663 10.8212 15.8135 11.0684C16.0606 11.3155 16.2001 11.6505 16.2002 12C16.2002 12.3496 16.0607 12.6854 15.8135 12.9326C15.5664 13.1796 15.2312 13.3183 14.8818 13.3184C14.5322 13.3184 14.1964 13.1798 13.9492 12.9326C13.702 12.6854 13.5635 12.3496 13.5635 12C13.5635 11.6506 13.7022 11.3155 13.9492 11.0684C14.1964 10.8212 14.5322 10.6826 14.8818 10.6826Z" fill="#FAFAFA"/>
<path fill-rule="evenodd" clip-rule="evenodd" d="M15.2646 6.91211C15.5123 6.93167 15.7513 7.01663 15.957 7.1582C16.1923 7.32022 16.3738 7.54939 16.4766 7.81543L16.666 8.30859L17.1855 8.60742L17.7266 8.52441C18.0046 8.4868 18.2879 8.53296 18.54 8.65625C18.7928 8.78003 19.0038 8.97653 19.1445 9.21973L19.1465 9.22363L19.4141 9.69141C19.5559 9.93644 19.6217 10.2186 19.6016 10.502C19.5814 10.7857 19.4748 11.0565 19.2979 11.2803L19.2988 11.2812L18.9717 11.6973V12.2959L19.3066 12.7119L19.3086 12.7148C19.4872 12.9389 19.5941 13.2127 19.6143 13.499L19.6182 13.6064C19.6169 13.8557 19.5498 14.1012 19.4229 14.3174L19.4219 14.3164L19.1602 14.7773L19.1582 14.7812C19.0174 15.0246 18.8071 15.2211 18.5547 15.3447C18.3019 15.4687 18.0183 15.5132 17.7402 15.4756L17.7275 15.4746L17.1992 15.3926L16.6807 15.6904L16.4893 16.1855C16.3864 16.4517 16.205 16.6799 15.9697 16.8418C15.7347 17.0036 15.4565 17.0919 15.1709 17.0928H14.6055C14.3555 17.092 14.1103 17.0254 13.8955 16.9004L13.8057 16.8428C13.5706 16.681 13.3891 16.4521 13.2861 16.1855L13.0957 15.6914L12.5762 15.3926L12.0479 15.4736L12.0361 15.4756C11.758 15.5133 11.4744 15.4676 11.2217 15.3438C10.9689 15.2201 10.7589 15.0244 10.6182 14.7812L10.6162 14.7773L10.3525 14.3174C10.2075 14.0703 10.1409 13.7848 10.1611 13.499L10.1729 13.3926C10.2092 13.1457 10.3105 12.9121 10.4668 12.7158L10.791 12.3027V11.7041L10.4561 11.2891L10.4531 11.2852C10.2747 11.061 10.1687 10.7879 10.1484 10.502C10.1282 10.2159 10.1944 9.92991 10.3398 9.68262L10.6025 9.22363L10.6045 9.21973C10.7453 8.97653 10.9557 8.78093 11.208 8.65723L11.3047 8.61426C11.4993 8.53633 11.7088 8.50196 11.918 8.51465L12.0225 8.52539L12.0352 8.52637L12.5654 8.60742L13.0957 8.30664L13.2861 7.81543C13.389 7.54902 13.5705 7.32006 13.8057 7.1582L13.8955 7.10059C14.1104 6.97547 14.3556 6.90894 14.6055 6.9082H15.1572L15.2646 6.91211ZM14.3984 9.09863C14.336 9.25959 14.2194 9.39417 14.0693 9.47949L13.0801 10.041C12.9337 10.124 12.763 10.1552 12.5967 10.1299L11.875 10.0195L11.6611 10.3936L12.125 10.9688C12.2324 11.102 12.291 11.2683 12.291 11.4395V12.5615C12.291 12.7294 12.2344 12.8924 12.1309 13.0244L11.6738 13.6055L11.8877 13.9805L12.6104 13.8711C12.7782 13.8456 12.9505 13.8782 13.0977 13.9629L14.0732 14.5234L14.1777 14.5967C14.2754 14.6778 14.352 14.7827 14.3984 14.9023L14.665 15.5928H15.1113L15.3779 14.9023L15.4336 14.7881C15.499 14.679 15.5917 14.5876 15.7031 14.5234L16.6787 13.9629L16.793 13.9092C16.9111 13.8657 17.0392 13.852 17.165 13.8711L17.8867 13.9805L18.1006 13.6064L17.6377 13.0322C17.5302 12.8989 17.4717 12.7328 17.4717 12.5615V11.4395C17.4717 11.2716 17.5282 11.1086 17.6318 10.9766L18.0869 10.3936L17.873 10.0195L17.1523 10.1299C16.9844 10.1555 16.8123 10.1228 16.665 10.0381L15.6895 9.47754C15.5411 9.39212 15.4262 9.25823 15.3643 9.09863L15.0977 8.4082H14.665L14.3984 9.09863Z" fill="#FAFAFA"/>
<path d="M6.99023 7.47266C7.40445 7.47266 7.74023 7.80942 7.74023 8.22363V12.1748C7.73971 12.5886 7.40412 12.9238 6.99023 12.9238C6.57618 12.9238 6.2405 12.5878 6.24023 12.1738V8.22266C6.2405 7.80867 6.57618 7.47266 6.99023 7.47266Z" fill="#FAFAFA"/>
<path fill-rule="evenodd" clip-rule="evenodd" d="M20 4C21.1046 4 22 4.89543 22 6V18C22 19.1046 21.1046 20 20 20H4L3.7959 19.9893C2.78722 19.887 2 19.0357 2 18V6C2 4.89543 2.89543 4 4 4H20ZM4 5.5C3.72386 5.5 3.5 5.72386 3.5 6V18C3.5 18.2761 3.72386 18.5 4 18.5H20C20.2761 18.5 20.5 18.2761 20.5 18V6C20.5 5.72386 20.2761 5.5 20 5.5H4Z" fill="#FAFAFA"/>
</svg>
