<svg width="24" height="24" viewBox="0 0 24 24" fill="none" xmlns="http://www.w3.org/2000/svg">
<path fill-rule="evenodd" clip-rule="evenodd" d="M16.5986 2C17.0164 2 17.4131 2.17068 17.7021 2.46777C17.9903 2.76402 18.1484 3.16174 18.1484 3.57227V4.4668H19.7988C20.213 4.4668 20.5488 4.80258 20.5488 5.2168C20.5488 5.63095 20.213 5.9668 19.7988 5.9668H19.3496V12.2773H19.7988C20.2129 12.2773 20.5486 12.6133 20.5488 13.0273C20.5488 13.4416 20.213 13.7773 19.7988 13.7773H19.3496V20.5H19.7988C20.213 20.5 20.5488 20.8358 20.5488 21.25C20.5488 21.6642 20.213 22 19.7988 22H4.19922C3.78501 22 3.44922 21.6642 3.44922 21.25C3.44922 20.8358 3.78501 20.5 4.19922 20.5H4.64941V13.7773H4.19922C3.78501 13.7773 3.44922 13.4416 3.44922 13.0273C3.44942 12.6133 3.78513 12.2773 4.19922 12.2773H4.64941V5.9668H4.19922C3.78505 5.9668 3.44928 5.63095 3.44922 5.2168C3.44922 4.80258 3.78501 4.4668 4.19922 4.4668H13.0488V3.57227C13.0488 3.16181 13.207 2.76401 13.4951 2.46777C13.7841 2.17072 14.1809 2.00005 14.5986 2H16.5986ZM6.14941 12.2773H7.19922C7.61331 12.2773 7.94902 12.6133 7.94922 13.0273C7.94922 13.4416 7.61343 13.7773 7.19922 13.7773H6.14941V20.5H17.8496V13.7773H16.7988C16.3846 13.7773 16.0488 13.4416 16.0488 13.0273C16.049 12.6133 16.3847 12.2773 16.7988 12.2773H17.8496V5.9668H6.14941V12.2773ZM14.5703 3.51367C14.5586 3.52584 14.5488 3.54677 14.5488 3.57227V4.4668H16.6484V3.57227C16.6484 3.54666 16.6388 3.52582 16.627 3.51367C16.616 3.50242 16.6052 3.5 16.5986 3.5H14.5986C14.5921 3.50005 14.5812 3.5025 14.5703 3.51367Z" fill="#FAFAFA"/>
<path d="M12.4858 9.82078C13.4349 9.63879 14.4032 9.70134 15.3104 10.0003C15.5128 10.0671 15.6729 10.2211 15.7491 10.4223C15.8253 10.6236 15.8102 10.8526 15.7076 11.0495C15.5985 11.2588 15.5167 11.6039 15.4368 12.1309C15.3647 12.6064 15.2933 13.2379 15.1733 13.8149C14.9322 14.9739 14.4022 16.4025 12.7737 16.8648C11.8391 17.1297 11.0758 16.6752 10.6408 16.3106C10.4109 16.1178 10.2302 15.9161 10.1077 15.765C10.0457 15.6885 9.99639 15.6227 9.96191 15.5743C9.95802 15.5689 9.95446 15.5635 9.95092 15.5585C9.27484 14.9204 8.82454 14.1744 8.7714 13.3556C8.71418 12.4727 9.12677 11.6788 9.84082 11.0631L9.86205 11.0454C10.6371 10.4239 11.5365 10.0029 12.4858 9.82078ZM12.7003 11.3047C12.0065 11.4378 11.3446 11.7443 10.7688 12.2022C10.3523 12.564 10.2383 12.8988 10.2572 13.1906C10.2785 13.5199 10.4804 13.9712 11.0414 14.4827C11.0866 14.5239 11.1265 14.5711 11.1597 14.6228L11.1585 14.6211C11.1588 14.6215 11.1601 14.6226 11.162 14.6254C11.1658 14.631 11.1721 14.6412 11.1817 14.6545C11.2014 14.6822 11.2334 14.7245 11.2747 14.7755C11.3587 14.879 11.4774 15.01 11.6196 15.1292C11.9295 15.3889 12.2025 15.4758 12.4313 15.411C13.1604 15.2039 13.4997 14.6065 13.7163 13.5651C13.8252 13.0418 13.88 12.5289 13.9655 11.9651C13.999 11.7443 14.0407 11.5096 14.0941 11.2754C13.6328 11.2078 13.1629 11.2161 12.7003 11.3047Z" fill="#FAFAFA"/>
<path d="M11.8152 12.4622C12.2118 12.335 12.621 12.5534 12.7294 12.9504C12.8376 13.3474 12.6037 13.7714 12.2074 13.899C12.2078 13.9002 12.2084 13.8998 12.2085 13.8998L12.2114 13.8993C12.2128 13.8988 12.2148 13.8979 12.2161 13.8974L12.2293 13.8931C12.228 13.8936 12.2255 13.8948 12.2218 13.8964C12.207 13.9031 12.1732 13.9194 12.1255 13.9486C12.0308 14.0066 11.8755 14.1187 11.6928 14.3168C11.3305 14.7097 10.8281 15.4759 10.4969 16.9129C10.4024 17.3225 10.0015 17.5917 9.60134 17.5139C9.20107 17.436 8.95283 17.0399 9.04727 16.6301C9.43082 14.9662 10.0477 13.937 10.626 13.31C10.9133 12.9985 11.1841 12.7947 11.3974 12.6641C11.5037 12.599 11.5951 12.5522 11.6664 12.52C11.702 12.5039 11.7329 12.4921 11.7578 12.4826C11.7702 12.4778 11.7811 12.473 11.7906 12.4697C11.7953 12.468 11.7998 12.4666 11.8038 12.4653C11.8057 12.4646 11.8076 12.4638 11.8094 12.4633L11.8132 12.4626C11.8138 12.4624 11.8152 12.4618 12.0056 13.1603L11.8152 12.4622Z" fill="#FAFAFA"/>
</svg>
