<svg width="24" height="24" viewBox="0 0 24 24" fill="none" xmlns="http://www.w3.org/2000/svg">
<path d="M12.7207 8.82857C13.25 8.88241 13.663 9.32998 13.663 9.87349C13.6628 10.4532 13.1929 10.9232 12.6132 10.9233C12.0336 10.9232 11.5637 10.4532 11.5634 9.87349C11.5635 9.29376 12.0335 8.8238 12.6132 8.82369L12.7207 8.82857Z" fill="#FAFAFA"/>
<path fill-rule="evenodd" clip-rule="evenodd" d="M8.3027 4.84224C8.46878 4.46297 8.9116 4.28964 9.29098 4.45552L16.6562 7.6772V5.68111C16.6562 5.2669 16.992 4.93111 17.4062 4.93111H19.8027C20.2166 4.93144 20.5527 5.2671 20.5527 5.68111V9.3813L21.2968 9.70747C21.6761 9.8735 21.8494 10.3164 21.6836 10.6958C21.5175 11.0749 21.0755 11.2481 20.6963 11.0825L20.5527 11.019V18.1069H21C21.4141 18.107 21.75 18.4427 21.75 18.8569C21.7498 19.2708 21.4139 19.6068 21 19.6069H3.03024C2.61616 19.6069 2.28045 19.2709 2.28024 18.8569C2.28024 18.4427 2.61603 18.1069 3.03024 18.1069H3.47848V11.9858L3.14742 12.0522C2.74132 12.1334 2.34595 11.8694 2.26461 11.4633C2.18373 11.0575 2.44675 10.6629 2.8525 10.5815L4.06735 10.3383C4.07191 10.3373 4.07641 10.3354 4.08102 10.3344L9.46871 9.25728V6.17134L8.68942 5.83052C8.31006 5.66448 8.13679 5.22166 8.3027 4.84224ZM4.97848 11.685V18.1069H9.46774V10.7866L4.97848 11.685ZM10.9687 18.1069H11.8642V15.2631C11.8643 14.7461 12.07 14.2498 12.4355 13.8842C12.8012 13.5186 13.2974 13.3129 13.8144 13.3129H16.2138C16.7309 13.313 17.2271 13.5187 17.5927 13.8842C17.9583 14.2499 18.164 14.7462 18.164 15.2631V15.2651L18.1582 18.1069H19.0527V10.3627L10.9687 6.82759V18.1069ZM13.8144 14.8129C13.6951 14.8129 13.5804 14.8605 13.4961 14.9448C13.4117 15.0291 13.3643 15.144 13.3642 15.2631V18.1069H16.6582L16.664 15.2631L16.6552 15.1743C16.6379 15.0881 16.5952 15.0078 16.5322 14.9448C16.4479 14.8606 16.3331 14.813 16.2138 14.8129H13.8144ZM18.1562 8.33345L19.0527 8.72505V6.43111H18.1562V8.33345Z" fill="#FAFAFA"/>
</svg>
