<svg width="24" height="24" viewBox="0 0 24 24" fill="none" xmlns="http://www.w3.org/2000/svg">
<path d="M9.31836 14.8076C9.73238 14.8078 10.0684 15.1435 10.0684 15.5576V15.5674C10.068 15.9812 9.73217 16.3172 9.31836 16.3174H9.31543C8.90146 16.3173 8.56577 15.9813 8.56543 15.5674V15.5576C8.56543 15.1434 8.90125 14.8077 9.31543 14.8076H9.31836Z" fill="#FAFAFA"/>
<path d="M18.2275 14.8174C18.6416 14.8175 18.9775 15.1533 18.9775 15.5674C18.9775 15.9815 18.6416 16.3173 18.2275 16.3174H15.8721C15.4579 16.3174 15.1221 15.9816 15.1221 15.5674C15.1221 15.1532 15.4579 14.8174 15.8721 14.8174H18.2275Z" fill="#FAFAFA"/>
<path d="M6.63086 13.9326C7.04488 13.9328 7.38086 14.2685 7.38086 14.6826V14.6924C7.38052 15.1062 7.04467 15.4422 6.63086 15.4424C6.21686 15.4424 5.8812 15.1063 5.88086 14.6924V14.6826C5.88086 14.2684 6.21665 13.9326 6.63086 13.9326Z" fill="#FAFAFA"/>
<path d="M12.0029 13.9326C12.4171 13.9326 12.7529 14.2684 12.7529 14.6826V14.6924C12.7526 15.1063 12.4169 15.4424 12.0029 15.4424C11.589 15.4423 11.2533 15.1063 11.2529 14.6924V14.6826C11.2529 14.2684 11.5887 13.9327 12.0029 13.9326Z" fill="#FAFAFA"/>
<path d="M9.31836 10.2451C9.78141 10.2459 10.2252 10.4303 10.5527 10.7578C10.8398 11.045 11.0169 11.4217 11.0566 11.8223L11.0654 11.9951C11.0654 12.4592 10.8809 12.9043 10.5527 13.2324C10.2255 13.5596 9.78198 13.7441 9.31934 13.7451H9.31348C8.85112 13.7439 8.40816 13.5594 8.08105 13.2324C7.75292 12.9043 7.56842 12.4592 7.56836 11.9951L7.57715 11.8223C7.61691 11.4217 7.79395 11.045 8.08105 10.7578C8.4084 10.4306 8.85168 10.246 9.31445 10.2451H9.31836Z" fill="#FAFAFA"/>
<path d="M5.75586 11.2451C6.16988 11.2453 6.50586 11.581 6.50586 11.9951V12.0049C6.50552 12.4187 6.16967 12.7547 5.75586 12.7549C5.34186 12.7549 5.0062 12.4188 5.00586 12.0049V11.9951C5.00586 11.5809 5.34165 11.2451 5.75586 11.2451Z" fill="#FAFAFA"/>
<path d="M12.8779 11.2451C13.2921 11.2451 13.6279 11.5809 13.6279 11.9951V12.0049C13.6276 12.4188 13.2919 12.7549 12.8779 12.7549C12.464 12.7548 12.1283 12.4188 12.1279 12.0049V11.9951C12.1279 11.5809 12.4638 11.2452 12.8779 11.2451Z" fill="#FAFAFA"/>
<path d="M17.0498 7.68262C17.4639 7.68275 17.7998 8.01849 17.7998 8.43262V8.86035H18.2275C18.6416 8.86048 18.9774 9.19633 18.9775 9.61035C18.9775 10.0245 18.6416 10.3602 18.2275 10.3604H17.7998V10.7881C17.7998 11.2022 17.4639 11.538 17.0498 11.5381C16.6357 11.538 16.2998 11.2022 16.2998 10.7881V10.3604H15.8721C15.4579 10.3604 15.1221 10.0246 15.1221 9.61035C15.1222 9.19625 15.4579 8.86035 15.8721 8.86035H16.2998V8.43262C16.2998 8.01849 16.6357 7.68275 17.0498 7.68262Z" fill="#FAFAFA"/>
<path d="M6.63086 8.55762C7.04488 8.55784 7.38086 8.89354 7.38086 9.30762V9.31738C7.38052 9.73117 7.04467 10.0672 6.63086 10.0674C6.21686 10.0674 5.8812 9.7313 5.88086 9.31738V9.30762C5.88086 8.8934 6.21665 8.55762 6.63086 8.55762Z" fill="#FAFAFA"/>
<path d="M12.0029 8.55762C12.4171 8.55762 12.7529 8.8934 12.7529 9.30762V9.31738C12.7526 9.7313 12.4169 10.0674 12.0029 10.0674C11.589 10.0673 11.2533 9.73128 11.2529 9.31738V9.30762C11.2529 8.89343 11.5887 8.55766 12.0029 8.55762Z" fill="#FAFAFA"/>
<path d="M9.31836 7.68262C9.73238 7.68284 10.0684 8.01854 10.0684 8.43262V8.44238C10.068 8.85617 9.73217 9.19216 9.31836 9.19238H9.31543C8.90146 9.19234 8.56577 8.85628 8.56543 8.44238V8.43262C8.56543 8.01843 8.90125 7.68266 9.31543 7.68262H9.31836Z" fill="#FAFAFA"/>
<path fill-rule="evenodd" clip-rule="evenodd" d="M20 4C21.1046 4 22 4.89543 22 6V18C22 19.1046 21.1046 20 20 20H4L3.7959 19.9893C2.78722 19.887 2 19.0357 2 18V6C2 4.89543 2.89543 4 4 4H20ZM4 5.5C3.72386 5.5 3.5 5.72386 3.5 6V18C3.5 18.2761 3.72386 18.5 4 18.5H20C20.2761 18.5 20.5 18.2761 20.5 18V6C20.5 5.72386 20.2761 5.5 20 5.5H4Z" fill="#FAFAFA"/>
</svg>
