<svg width="24" height="24" viewBox="0 0 24 24" fill="none" xmlns="http://www.w3.org/2000/svg">
<path d="M12.0986 12.1875C12.2008 12.0266 12.3951 11.9595 12.5684 12.0254C12.7413 12.0915 12.8489 12.2736 12.8291 12.4658L12.6641 14.0674L13.6914 14.3213C13.8181 14.3526 13.9232 14.4464 13.9717 14.5732C14.02 14.7 14.0064 14.8445 13.9355 14.959L11.5479 18.8096C11.4442 18.9761 11.2428 19.0433 11.0664 18.9707C10.8901 18.8978 10.7864 18.7048 10.8184 18.5088L11.1689 16.3838L10.2559 16.0146C10.1429 15.9688 10.0553 15.8712 10.0186 15.75C9.98199 15.6287 10.0003 15.4965 10.0674 15.3906L12.0986 12.1875Z" fill="#FAFAFA"/>
<path d="M5.75 13C6.16421 13 6.5 13.3358 6.5 13.75V17.25C6.5 17.6642 6.16421 18 5.75 18C5.33579 18 5 17.6642 5 17.25V13.75C5 13.3358 5.33579 13 5.75 13Z" fill="#FAFAFA"/>
<path d="M18.25 13C18.6642 13 19 13.3358 19 13.75V17.25C19 17.6642 18.6642 18 18.25 18C17.8358 18 17.5 17.6642 17.5 17.25V13.75C17.5 13.3358 17.8358 13 18.25 13Z" fill="#FAFAFA"/>
<path fill-rule="evenodd" clip-rule="evenodd" d="M17.75 2.5C18.1642 2.5 18.5 2.83579 18.5 3.25V3.75H19C19.4142 3.75 19.75 4.08579 19.75 4.5C19.75 4.91421 19.4142 5.25 19 5.25H18.5V6.25H19C19.4142 6.25 19.75 6.58579 19.75 7C19.75 7.41421 19.4142 7.75 19 7.75H18.5V9.25H19C20.5188 9.25 21.75 10.4812 21.75 12V19C21.75 20.5188 20.5188 21.75 19 21.75H5C3.48122 21.75 2.25 20.5188 2.25 19V12C2.25 10.4812 3.48122 9.25 5 9.25H5.5V7.75H5C4.58579 7.75 4.25 7.41421 4.25 7C4.25 6.58579 4.58579 6.25 5 6.25H5.5V5.25H5C4.58579 5.25 4.25 4.91421 4.25 4.5C4.25 4.08579 4.58579 3.75 5 3.75H5.5V3.25C5.5 2.83579 5.83579 2.5 6.25 2.5C6.66421 2.5 7 2.83579 7 3.25V3.75H7.5C7.91421 3.75 8.25 4.08579 8.25 4.5C8.25 4.91421 7.91421 5.25 7.5 5.25H7V6.25H7.5C7.91421 6.25 8.25 6.58579 8.25 7C8.25 7.41421 7.91421 7.75 7.5 7.75H7V9.25H11.25V7.75H10.75C10.3358 7.75 10 7.41421 10 7C10 6.58579 10.3358 6.25 10.75 6.25H11.25V5.25H10.75C10.3358 5.25 10 4.91421 10 4.5C10 4.08579 10.3358 3.75 10.75 3.75H11.25V3.25C11.25 2.83579 11.5858 2.5 12 2.5C12.4142 2.5 12.75 2.83579 12.75 3.25V3.75H13.25C13.6642 3.75 14 4.08579 14 4.5C14 4.91421 13.6642 5.25 13.25 5.25H12.75V6.25H13.25C13.6642 6.25 14 6.58579 14 7C14 7.41421 13.6642 7.75 13.25 7.75H12.75V9.25H17V7.75H16.5C16.0858 7.75 15.75 7.41421 15.75 7C15.75 6.58579 16.0858 6.25 16.5 6.25H17V5.25H16.5C16.0858 5.25 15.75 4.91421 15.75 4.5C15.75 4.08579 16.0858 3.75 16.5 3.75H17V3.25C17 2.83579 17.3358 2.5 17.75 2.5ZM5 10.75C4.30964 10.75 3.75 11.3096 3.75 12V19C3.75 19.6904 4.30964 20.25 5 20.25H19C19.6904 20.25 20.25 19.6904 20.25 19V12C20.25 11.3096 19.6904 10.75 19 10.75H5Z" fill="#FAFAFA"/>
</svg>
