<svg width="24" height="24" viewBox="0 0 24 24" fill="none" xmlns="http://www.w3.org/2000/svg">
<path d="M12.0006 14.5003C12.5526 14.5006 13.0005 14.9483 13.0006 15.5003C13.0003 16.0521 12.5525 16.5 12.0006 16.5003C11.4487 16.5001 11.001 16.0522 11.0006 15.5003C11.0008 14.9482 11.4485 14.5004 12.0006 14.5003Z" fill="#FAFAFA"/>
<path d="M12.0006 7.9993C12.4145 7.99958 12.7505 8.33537 12.7506 8.7493V12.7493C12.7505 13.1633 12.4145 13.499 12.0006 13.4993C11.5865 13.4993 11.2507 13.1634 11.2506 12.7493V8.7493C11.2508 8.3352 11.5865 7.9993 12.0006 7.9993Z" fill="#FAFAFA"/>
<path fill-rule="evenodd" clip-rule="evenodd" d="M10.5866 3.16141C11.3676 2.38048 12.6337 2.3804 13.4147 3.16141L20.8395 10.5862C21.6201 11.3673 21.6203 12.6334 20.8395 13.4143L13.4147 20.8391C12.6338 21.62 11.3676 21.6198 10.5866 20.8391L3.16176 13.4143C2.42945 12.682 2.38411 11.5231 3.02504 10.7376L3.16176 10.5862L10.5866 3.16141ZM12.3541 4.22196C12.1589 4.02674 11.8424 4.02681 11.6471 4.22196L4.22231 11.6468C4.02711 11.842 4.02707 12.1586 4.22231 12.3538L11.6471 19.7786C11.8424 19.9735 12.159 19.9737 12.3541 19.7786L19.7789 12.3538C19.974 12.1586 19.9738 11.842 19.7789 11.6468L12.3541 4.22196Z" fill="#FAFAFA"/>
</svg>
