<svg width="24" height="24" viewBox="0 0 24 24" fill="none" xmlns="http://www.w3.org/2000/svg">
<path d="M16.9072 16.5303C16.6143 16.8232 16.1395 16.8232 15.8466 16.5303L11.8466 12.5303C11.5537 12.2374 11.5537 11.7627 11.8466 11.4698L15.8466 7.46978C16.1395 7.17689 16.6143 7.17689 16.9072 7.46978C17.2001 7.76268 17.2001 8.23744 16.9072 8.53033L13.4374 12.0001L16.9072 15.4698C17.2001 15.7627 17.2001 16.2374 16.9072 16.5303Z" fill="#FAFAFA"/>
<path d="M12.1533 16.5303C11.8604 16.8232 11.3856 16.8232 11.0927 16.5303L7.09272 12.5303C6.79982 12.2374 6.79982 11.7627 7.09272 11.4698L11.0927 7.46978C11.3856 7.17689 11.8604 7.17689 12.1533 7.46978C12.4462 7.76268 12.4462 8.23744 12.1533 8.53033L8.68354 12.0001L12.1533 15.4698C12.4462 15.7627 12.4462 16.2374 12.1533 16.5303Z" fill="#FAFAFA"/>
</svg>
