<svg width="24" height="24" viewBox="0 0 24 24" fill="none" xmlns="http://www.w3.org/2000/svg">
<path fill-rule="evenodd" clip-rule="evenodd" d="M12.0049 10.5015C12.2286 10.4952 12.4445 10.5897 12.5918 10.7583C12.763 10.9544 13.1036 11.3901 13.4053 11.8569C13.5565 12.091 13.7095 12.3491 13.8262 12.6001C13.932 12.8277 14.0536 13.1433 14.0537 13.4604C14.0535 14.1161 13.778 14.6349 13.3477 14.9712C12.9431 15.287 12.4505 15.4066 12.0273 15.4067C11.6041 15.4067 11.1109 15.2872 10.7061 14.9712C10.2754 14.6349 10.0002 14.1163 10 13.4604C10.0002 13.1347 10.125 12.8154 10.2354 12.5825C10.3557 12.3286 10.5121 12.0697 10.665 11.8384C10.9708 11.376 11.3115 10.95 11.4346 10.7915L11.4893 10.729C11.6244 10.5903 11.8092 10.5072 12.0049 10.5015ZM11.916 12.6655C11.7829 12.8669 11.6688 13.0606 11.5908 13.2251C11.504 13.4084 11.5001 13.4774 11.5 13.4604C11.5001 13.5723 11.5221 13.6417 11.542 13.6831C11.562 13.7245 11.5901 13.7593 11.6289 13.7896C11.7152 13.8567 11.8616 13.9067 12.0273 13.9067C12.1928 13.9065 12.3387 13.8567 12.4248 13.7896C12.4633 13.7593 12.4918 13.7243 12.5117 13.6831C12.5316 13.6417 12.5536 13.572 12.5537 13.4604C12.5537 13.4846 12.5523 13.4191 12.4658 13.2329C12.3892 13.0682 12.2765 12.8731 12.1455 12.6704C12.1081 12.6125 12.0685 12.5556 12.0303 12.4995C11.9925 12.554 11.9531 12.6094 11.916 12.6655Z" fill="#FAFAFA"/>
<path fill-rule="evenodd" clip-rule="evenodd" d="M16.25 2.35156C16.6642 2.35156 17 2.68735 17 3.10156C16.9998 3.51565 16.6641 3.85156 16.25 3.85156H12.7617V6.00098H20.5V5.75098C20.5 5.5386 20.5723 5.36059 20.7168 5.2168C20.8613 5.07313 21.041 5.00098 21.2549 5.00098C21.4683 5.00106 21.6455 5.07324 21.7871 5.2168C21.9288 5.36063 22 5.53848 22 5.75098V12.251C22 12.4634 21.9278 12.6415 21.7832 12.7852C21.6387 12.929 21.459 13.001 21.2451 13.001C21.0317 13.0009 20.8544 12.9288 20.7129 12.7852C20.5712 12.6415 20.5 12.4635 20.5 12.251V12.001H18.9248C18.9581 12.1676 18.9789 12.33 18.9873 12.4883C18.9957 12.6466 19 12.8176 19 13.001C19 14.951 18.3212 16.6055 16.9629 17.9639C15.6045 19.3222 13.95 20.001 12 20.001H3.5V20.251C3.5 20.4634 3.42778 20.6415 3.2832 20.7852C3.1387 20.929 2.95895 21.001 2.74512 21.001C2.5317 21.0009 2.35445 20.9288 2.21289 20.7852C2.07123 20.6415 2 20.4635 2 20.251V13.751C2 13.5386 2.07231 13.3606 2.2168 13.2168C2.3613 13.0731 2.54105 13.001 2.75488 13.001C2.96836 13.0011 3.14553 13.0733 3.28711 13.2168C3.42877 13.3606 3.5 13.5385 3.5 13.751V14.001H5.0752C5.04186 13.8344 5.02105 13.672 5.0127 13.5137C5.00435 13.3553 5 13.1843 5 13.001C5 11.051 5.67876 9.39644 7.03711 8.03809C8.22061 6.85459 9.62909 6.18749 11.2617 6.03516V3.85156H7.75C7.33588 3.85156 7.00015 3.51565 7 3.10156C7 2.68735 7.33579 2.35156 7.75 2.35156H16.25ZM3.5 18.501H7.6748C7.1915 18.1176 6.75832 17.6714 6.375 17.1631C5.99175 16.6548 5.6835 16.1009 5.4502 15.501H3.5V18.501ZM12.0049 7.50098C10.4849 7.50106 9.18722 8.03698 8.1123 9.1084C7.03743 10.1799 6.5 11.476 6.5 12.9961C6.50009 14.5161 7.03601 15.8138 8.10742 16.8887C9.17889 17.9635 10.4751 18.501 11.9951 18.501C13.5151 18.5009 14.8128 17.965 15.8877 16.8936C16.9626 15.8221 17.5 14.5259 17.5 13.0059C17.4999 11.4859 16.964 10.1882 15.8926 9.11328C14.8211 8.0384 13.5249 7.50098 12.0049 7.50098ZM16.3252 7.50098C16.8085 7.88431 17.2417 8.33056 17.625 8.83887C18.0082 9.34713 18.3165 9.9011 18.5498 10.501H20.5V7.50098H16.3252Z" fill="#FAFAFA"/>
</svg>
