<svg width="24" height="24" viewBox="0 0 24 24" fill="none" xmlns="http://www.w3.org/2000/svg">
<path d="M5.93848 10.0605C6.28099 9.82772 6.74758 9.9163 6.98047 10.2588C7.21308 10.6013 7.12366 11.0679 6.78125 11.3008C5.95444 11.8632 5.19053 12.929 4.63184 14.4062C4.14921 15.6825 3.83864 17.2197 3.7666 18.8906H12.626C12.5983 18.3887 12.5499 17.8782 12.4971 17.3496C12.2639 16.1139 11.9568 14.9698 11.5801 13.9902C11.4314 13.6037 11.6242 13.1693 12.0107 13.0205C12.3973 12.8718 12.8318 13.0646 12.9805 13.4512C13.348 14.407 13.6469 15.4807 13.8809 16.6133L13.9775 17.1025L13.9863 17.166C14.0657 17.9595 14.1504 18.7971 14.1504 19.6406C14.1501 20.0545 13.8143 20.3904 13.4004 20.3906H3C2.58594 20.3906 2.25026 20.0546 2.25 19.6406C2.25 17.5215 2.60278 15.5297 3.22852 13.875C3.84967 12.2328 4.76566 10.8582 5.93848 10.0605Z" fill="#FAFAFA"/>
<path d="M5.87695 13.7344C6.08997 13.3794 6.55016 13.2639 6.90527 13.4766C7.26038 13.6896 7.37606 14.1507 7.16309 14.5059C6.86573 15.0015 6.6637 15.6905 6.58594 16.4902H9.72168C9.62663 15.7376 9.39883 15.075 9.12891 14.5352C8.94392 14.1647 9.09449 13.7145 9.46484 13.5293C9.83515 13.3444 10.2854 13.4941 10.4707 13.8643C10.9143 14.7515 11.2695 15.9063 11.2695 17.2402C11.2694 17.6544 10.9337 17.9902 10.5195 17.9902H5.7998C5.38565 17.9902 5.04991 17.6544 5.0498 17.2402C5.0498 15.9579 5.30384 14.6896 5.87695 13.7344Z" fill="#FAFAFA"/>
<path d="M12.2402 10.2773C12.6395 10.1673 13.0529 10.4016 13.1631 10.8008C13.273 11.1998 13.0385 11.6123 12.6396 11.7227L7.99902 13.0029C7.59983 13.1129 7.18734 12.8786 7.07715 12.4795C6.96704 12.0802 7.20131 11.6668 7.60059 11.5566L12.2402 10.2773Z" fill="#FAFAFA"/>
<path fill-rule="evenodd" clip-rule="evenodd" d="M15.8799 3.60938C16.8251 3.60941 17.7934 3.78044 18.6182 4.1377L18.6191 4.13672C20.3136 4.76115 21.7498 6.175 21.75 8.04004C21.7498 9.86366 20.4455 11.3628 18.6631 12.085L18.6641 12.0859C17.8298 12.4567 16.8422 12.6308 15.8799 12.6309H15.3193C14.6485 12.6307 14.271 12.1465 14.1279 11.7178C14.1146 11.6779 14.1051 11.6363 14.0986 11.5947C13.9321 10.5123 13.8496 9.35292 13.8496 8.12012C13.8496 6.89558 13.9314 5.74413 14.0957 4.66797C14.1245 4.31957 14.3113 4.04754 14.5293 3.87793C14.758 3.70012 15.0421 3.60943 15.3193 3.60938H15.8799ZM15.5479 5.11035C15.4174 6.04167 15.3496 7.04471 15.3496 8.12012C15.3496 9.19579 15.4173 10.1993 15.5479 11.1309H15.8799C16.6771 11.1308 17.4493 10.9838 18.0547 10.7148C18.0632 10.711 18.0724 10.7076 18.0811 10.7041C19.4852 10.1424 20.2498 9.08733 20.25 8.04004C20.2498 7.02558 19.4455 6.03955 18.1006 5.54395C18.0853 5.53833 18.0695 5.53199 18.0547 5.52539C17.4493 5.2564 16.6771 5.11038 15.8799 5.11035H15.5479Z" fill="#FAFAFA"/>
<path d="M12.2529 7.31348C12.6538 7.21008 13.0633 7.45168 13.167 7.85254C13.2704 8.25324 13.0294 8.66265 12.6289 8.7666L7.98828 9.96582C7.58733 10.0694 7.17793 9.82867 7.07422 9.42773C6.97064 9.02678 7.21233 8.61737 7.61328 8.51367L12.2529 7.31348Z" fill="#FAFAFA"/>
<path d="M12.2529 4.35352C12.6538 4.25012 13.0633 4.49172 13.167 4.89258C13.2704 5.29328 13.0294 5.70269 12.6289 5.80664L7.98828 7.00586C7.58733 7.10944 7.17793 6.86871 7.07422 6.46777C6.97064 6.06682 7.21233 5.65741 7.61328 5.55371L12.2529 4.35352Z" fill="#FAFAFA"/>
</svg>
