<svg width="24" height="24" viewBox="0 0 24 24" fill="none" xmlns="http://www.w3.org/2000/svg">
<path d="M11.999 7.72168C12.4131 7.72183 12.749 8.05756 12.749 8.47168V8.85059C12.9632 8.83797 13.1814 8.91464 13.3398 9.08301C13.6233 9.38501 13.6086 9.86006 13.3066 10.1436L12.749 10.666V11.6914L13.6074 11.2031L13.7891 10.46L13.8105 10.3867C13.9371 10.0308 14.3193 9.82186 14.6982 9.91406C14.9192 9.96816 15.0906 10.1159 15.1875 10.3018L15.5781 10.0791C15.9379 9.87413 16.3992 9.99812 16.6084 10.3555C16.8174 10.7129 16.6955 11.1688 16.3359 11.374L15.9453 11.5967C16.0602 11.7726 16.1041 11.9929 16.041 12.209C15.9254 12.604 15.5072 12.8303 15.1074 12.7139L14.3643 12.4971L13.5137 12.9814L14.3652 13.4668L15.1074 13.25L15.1826 13.2324C15.5583 13.1627 15.9325 13.3846 16.041 13.7549C16.1041 13.9709 16.0601 14.1913 15.9453 14.3672L16.3359 14.5898C16.6957 14.795 16.8174 15.2509 16.6084 15.6084C16.3992 15.9657 15.9379 16.0898 15.5781 15.8848L15.1885 15.6621C15.0916 15.8481 14.9203 15.9956 14.6992 16.0498C14.2949 16.1485 13.8869 15.9046 13.7891 15.5049L13.6074 14.7617L12.749 14.2715V15.2402L13.3066 15.7637C13.6085 16.0472 13.6233 16.5213 13.3398 16.8232C13.1813 16.9918 12.9633 17.0673 12.749 17.0547V17.4922C12.749 17.9063 12.4131 18.242 11.999 18.2422C11.5852 18.2418 11.2491 17.9061 11.249 17.4922V17.0547C11.0346 17.0673 10.8158 16.9921 10.6572 16.8232C10.3744 16.5215 10.3894 16.0471 10.6904 15.7637L11.249 15.2393V14.2725L10.3408 14.791L10.1592 15.5332C10.0613 15.9331 9.65442 16.178 9.25 16.0791C9.02903 16.0249 8.85659 15.8774 8.75977 15.6914L8.4209 15.8848C8.06109 16.0895 7.59966 15.9658 7.39062 15.6084C7.18198 15.251 7.30454 14.7949 7.66406 14.5898L8.00195 14.3975C7.88729 14.2217 7.84522 14.0001 7.9082 13.7842C8.02369 13.3893 8.44128 13.1634 8.84082 13.2793L9.58301 13.4961L10.4854 12.9814L9.58301 12.4678L8.8418 12.6846C8.44207 12.8008 8.02363 12.5748 7.9082 12.1797C7.84524 11.9638 7.88831 11.7432 8.00293 11.5674L7.66406 11.374C7.30449 11.1689 7.18268 10.7129 7.3916 10.3555C7.60072 9.99807 8.06207 9.87417 8.42188 10.0791L8.75977 10.2725C8.85662 10.0866 9.02911 9.93896 9.25 9.88477C9.65446 9.78577 10.0623 10.0307 10.1602 10.4307L10.3408 11.1729L11.249 11.6904V10.667L10.6904 10.1436L10.6377 10.0879C10.3888 9.80118 10.392 9.36599 10.6572 9.08301C10.8157 8.91431 11.0347 8.838 11.249 8.85059V8.47168C11.249 8.0577 11.5851 7.72207 11.999 7.72168Z" fill="#FAFAFA"/>
<path fill-rule="evenodd" clip-rule="evenodd" d="M14.75 1.99609C15.1642 1.99609 15.5 2.33188 15.5 2.74609V4.04492L18 4.04883C19.1046 4.04883 20 4.94426 20 6.04883V20L19.9893 20.2041C19.887 21.2128 19.0356 22 18 22H6C4.89543 22 4.00001 21.1046 4 20V6.04883C4 4.94426 4.89543 4.04883 6 4.04883H8.5V2.75C8.5 2.33579 8.83579 2 9.25 2C9.66421 2 10 2.33579 10 2.75V4.04883L14 4.04492V2.74609C14 2.33188 14.3358 1.99609 14.75 1.99609ZM6 5.5C5.72386 5.5 5.5 5.72386 5.5 6V19.9512C5.50001 20.2273 5.72386 20.4512 6 20.4512H18C18.2761 20.4512 18.5 20.2273 18.5 19.9512V6C18.5 5.72386 18.2761 5.5 18 5.5H6Z" fill="#FAFAFA"/>
</svg>
