<svg width="24" height="24" viewBox="0 0 24 24" fill="none" xmlns="http://www.w3.org/2000/svg">
<path fill-rule="evenodd" clip-rule="evenodd" d="M11.999 1.875C12.2989 1.87492 12.5701 2.05357 12.6885 2.3291C12.8067 2.60488 12.7499 2.9253 12.543 3.14258C10.4415 5.3491 9.20132 8.22423 9.02441 11.25H10.5938C11.008 11.25 11.3438 11.5858 11.3438 12C11.3438 12.4142 11.008 12.75 10.5938 12.75H9.02441C9.18571 15.504 10.2289 18.1321 12 20.2461C13.348 18.6368 14.2857 16.7192 14.7217 14.6572C14.8074 14.2521 15.2052 13.9934 15.6104 14.0791C16.0155 14.1649 16.2742 14.5626 16.1885 14.9678C15.7688 16.9526 14.9325 18.817 13.7461 20.4453C15.1923 20.1466 16.5404 19.4826 17.6582 18.5117C18.8614 17.4666 19.7513 16.1082 20.2295 14.5879C20.3537 14.1929 20.7749 13.9726 21.1699 14.0967C21.565 14.2209 21.7843 14.642 21.6602 15.0371C21.0988 16.8222 20.0543 18.4175 18.6416 19.6445C17.2289 20.8716 15.5032 21.6823 13.6572 21.9883C13.1147 22.0782 12.5681 22.1219 12.0225 22.123C12.015 22.1233 12.0075 22.125 12 22.125C11.9949 22.125 11.9894 22.1241 11.9844 22.124C10.6864 22.1218 9.39544 21.8704 8.18359 21.377C6.45065 20.6713 4.94703 19.4996 3.83984 17.9912C2.73264 16.4828 2.0649 14.6969 1.91113 12.832C1.88995 12.5751 1.87948 12.3181 1.87793 12.0615C1.87628 12.0412 1.875 12.0207 1.875 12C1.875 11.974 1.87631 11.9482 1.87891 11.9229C1.89084 10.3641 2.261 8.82473 2.96875 7.42676C3.814 5.7573 5.10511 4.35399 6.69922 3.37402C8.29324 2.39411 10.1279 1.87554 11.999 1.875ZM3.41016 12.75C3.54752 14.3236 4.11385 15.8297 5.04883 17.1035C5.99199 18.3885 7.27279 19.3871 8.74902 19.9883C9.23598 20.1866 9.73853 20.3374 10.249 20.4434C8.6182 18.204 7.66812 15.5323 7.52246 12.75H3.41016ZM10.25 3.55469C9.27612 3.75672 8.34022 4.12686 7.48535 4.65234C6.12741 5.48713 5.02667 6.68237 4.30664 8.10449C3.80773 9.09005 3.50541 10.1583 3.41016 11.25H7.52246C7.66812 8.46691 8.61841 5.79439 10.25 3.55469Z" fill="#FAFAFA"/>
<path fill-rule="evenodd" clip-rule="evenodd" d="M17.625 1.875C18.3212 1.875 18.9892 2.15127 19.4814 2.64355C19.9737 3.13584 20.25 3.80381 20.25 4.5V5.625H20.4375V6.02734C20.4376 5.625 20.4375 5.625 20.4375 5.625H20.4521C20.458 5.62509 20.4649 5.62572 20.4727 5.62598C20.4884 5.6265 20.5083 5.62727 20.5312 5.62891C20.5767 5.63216 20.6369 5.63774 20.707 5.64941C20.844 5.67223 21.0381 5.71981 21.2412 5.82129C21.4474 5.92437 21.6768 6.09085 21.8525 6.35449C22.0314 6.62282 22.125 6.94689 22.125 7.3125V10.125H21.375C22.125 10.125 22.125 10.125 22.125 10.125V10.1396C22.1249 10.1455 22.1243 10.1524 22.124 10.1602C22.1235 10.1759 22.1227 10.1958 22.1211 10.2188C22.1178 10.2642 22.1123 10.3244 22.1006 10.3945C22.0778 10.5315 22.0302 10.7256 21.9287 10.9287C21.8256 11.1349 21.6591 11.3643 21.3955 11.54C21.1272 11.7189 20.8031 11.8125 20.4375 11.8125H14.8125V11.0625C14.8125 11.8125 14.8125 11.8125 14.8125 11.8125H14.7979C14.792 11.8124 14.7851 11.8118 14.7773 11.8115C14.7616 11.811 14.7417 11.8102 14.7188 11.8086C14.6733 11.8053 14.6131 11.7998 14.543 11.7881C14.406 11.7653 14.2119 11.7177 14.0088 11.6162C13.8026 11.5131 13.5732 11.3466 13.3975 11.083C13.2186 10.8147 13.125 10.4906 13.125 10.125V7.3125H13.875C13.125 7.3125 13.125 7.3125 13.125 7.3125V7.29785C13.1251 7.29201 13.1257 7.28507 13.126 7.27734C13.1265 7.26163 13.1273 7.24166 13.1289 7.21875C13.1322 7.17325 13.1377 7.11309 13.1494 7.04297C13.1722 6.90605 13.2198 6.71187 13.3213 6.50879C13.4244 6.30263 13.5909 6.07322 13.8545 5.89746C14.1228 5.71857 14.4469 5.625 14.8125 5.625H15V4.5C15 3.80381 15.2763 3.13584 15.7686 2.64355C16.2608 2.15127 16.9288 1.875 17.625 1.875ZM14.709 7.13672C14.6933 7.14123 14.6865 7.14551 14.6865 7.14551C14.6865 7.14551 14.677 7.15092 14.6631 7.17871C14.6476 7.20978 14.6364 7.25039 14.6299 7.28906C14.627 7.30621 14.6254 7.31928 14.625 7.3252V10.125C14.625 10.1793 14.632 10.2121 14.6367 10.2285C14.6412 10.2442 14.6455 10.251 14.6455 10.251C14.6455 10.251 14.6509 10.2605 14.6787 10.2744C14.7098 10.2899 14.7504 10.3011 14.7891 10.3076C14.8062 10.3105 14.8193 10.3121 14.8252 10.3125H20.4375C20.4918 10.3125 20.5246 10.3055 20.541 10.3008C20.5567 10.2963 20.5635 10.292 20.5635 10.292C20.5635 10.292 20.573 10.2866 20.5869 10.2588C20.6024 10.2277 20.6136 10.1871 20.6201 10.1484C20.623 10.1313 20.6246 10.1182 20.625 10.1123V7.3125C20.625 7.25818 20.618 7.22544 20.6133 7.20898C20.6088 7.19327 20.6045 7.18652 20.6045 7.18652C20.6045 7.18652 20.5991 7.17704 20.5713 7.16309C20.5402 7.14755 20.4996 7.13635 20.4609 7.12988C20.4438 7.12702 20.4307 7.12544 20.4248 7.125H14.8125C14.7582 7.125 14.7254 7.13202 14.709 7.13672ZM17.625 3.375C17.3266 3.375 17.0401 3.49312 16.8291 3.7041C16.6181 3.91508 16.5 4.20163 16.5 4.5V5.625H18.75V4.5C18.75 4.20163 18.6319 3.91508 18.4209 3.7041C18.2099 3.49312 17.9234 3.375 17.625 3.375Z" fill="#FAFAFA"/>
</svg>
