<svg width="24" height="24" viewBox="0 0 24 24" fill="none" xmlns="http://www.w3.org/2000/svg">
<path fill-rule="evenodd" clip-rule="evenodd" d="M10.7502 3.5C10.6121 3.5 10.5002 3.61193 10.5002 3.75V6H13.5002V3.75C13.5002 3.61193 13.3882 3.5 13.2502 3.5H10.7502ZM15.0002 6V3.75C15.0002 2.7835 14.2167 2 13.2502 2H10.7502C9.78366 2 9.00016 2.7835 9.00016 3.75V6H6.75016C5.78366 6 5.00016 6.7835 5.00016 7.75V12.2048C3.84335 12.6525 3.04581 13.8639 3.36047 15.1855C3.67943 16.525 4.17805 17.7217 5.00298 18.9956L2.59166 19.5169C2.1868 19.6045 1.92956 20.0036 2.0171 20.4085C2.10463 20.8134 2.5038 21.0706 2.90866 20.9831L7.11099 20.0744C7.28509 20.0368 7.46523 20.0368 7.63932 20.0744L11.419 20.8917C11.802 20.9745 12.1983 20.9745 12.5813 20.8917L16.361 20.0744C16.5351 20.0368 16.7152 20.0368 16.8893 20.0744L21.0917 20.9831C21.4965 21.0706 21.8957 20.8134 21.9832 20.4085C22.0708 20.0036 21.8135 19.6045 21.4087 19.5169L18.9973 18.9956C19.8223 17.7217 20.3209 16.525 20.6398 15.1855C20.9545 13.8639 20.157 12.6525 19.0002 12.2048V7.75C19.0002 6.7835 18.2167 6 17.2502 6H15.0002ZM6.75016 7.5C6.61209 7.5 6.50016 7.61193 6.50016 7.75V11.816L11.3502 10.6362C11.7773 10.5323 12.223 10.5323 12.6501 10.6362L17.5002 11.816V7.75C17.5002 7.61193 17.3882 7.5 17.2502 7.5H6.75016ZM17.4176 18.654C18.3569 17.3224 18.8662 16.1586 19.1806 14.838C19.3081 14.3029 18.9518 13.7128 18.306 13.5557L12.2956 12.0937C12.1015 12.0465 11.8988 12.0465 11.7047 12.0937L5.69431 13.5557C5.04852 13.7128 4.69226 14.3029 4.81968 14.838C5.1341 16.1586 5.6434 17.3224 6.58267 18.654L6.79399 18.6083C7.17701 18.5255 7.5733 18.5255 7.95632 18.6083L11.736 19.4256C11.9101 19.4632 12.0902 19.4632 12.2643 19.4256L16.044 18.6083C16.427 18.5255 16.8233 18.5255 17.2063 18.6083L17.4176 18.654Z" fill="#FAFAFA"/>
</svg>
