<svg width="24" height="24" viewBox="0 0 24 24" fill="none" xmlns="http://www.w3.org/2000/svg">
<path fill-rule="evenodd" clip-rule="evenodd" d="M6.19 4.68244C6.76547 4.72249 7.32413 4.90168 7.81697 5.20619C8.38011 5.55424 8.83575 6.05256 9.13191 6.64464L10.9994 10.3796H13.4111C14.3568 10.3796 15.2636 10.7556 15.9323 11.4243C16.6009 12.093 16.977 12.9999 16.977 13.9456V16.0851C16.9769 16.6524 16.7513 17.1967 16.3502 17.5979C15.949 17.999 15.4048 18.2247 14.8374 18.2247H13.3163C13.1898 18.7134 12.9383 19.1655 12.5753 19.5285C12.0403 20.0634 11.3148 20.3643 10.5583 20.3643C9.8018 20.3643 9.07628 20.0634 8.5413 19.5285C8.17827 19.1655 7.92679 18.7134 7.80025 18.2247H2.71319C2.31946 18.2247 2.00025 17.9052 2 17.5115C2 17.1176 2.31931 16.7983 2.71319 16.7983H7.79932C7.92574 16.3094 8.17812 15.8578 8.5413 15.4945C9.0763 14.9595 9.80169 14.6588 10.5583 14.6588C11.3149 14.6588 12.0403 14.9595 12.5753 15.4945C12.9385 15.8578 13.1909 16.3094 13.3173 16.7983H14.8374L14.9777 16.7844C15.1145 16.757 15.2415 16.6895 15.3417 16.5894C15.4753 16.4557 15.5505 16.2741 15.5506 16.0851V13.9456C15.5506 13.3782 15.3249 12.834 14.9238 12.4328C14.5226 12.0316 13.9785 11.806 13.4111 11.806H2.71319C2.31946 11.806 2.00025 11.4865 2 11.0928C2 10.6989 2.31931 10.3796 2.71319 10.3796H9.404L7.85597 7.28261C7.67833 6.92758 7.40522 6.6287 7.06756 6.41991C6.77175 6.23711 6.43606 6.13003 6.09063 6.10603L5.94205 6.10046H2.71319C2.31946 6.10046 2.00025 5.78094 2 5.38727C2 4.99339 2.31931 4.67408 2.71319 4.67408H5.94298L6.19 4.68244ZM10.5583 16.0851C10.18 16.0851 9.8173 16.2355 9.5498 16.503C9.28244 16.7705 9.13191 17.1333 9.13191 17.5115L9.13934 17.6527C9.17189 17.979 9.3159 18.2861 9.5498 18.52C9.81727 18.7874 10.1801 18.9379 10.5583 18.9379C10.9365 18.9379 11.2993 18.7874 11.5668 18.52C11.8342 18.2526 11.9846 17.8897 11.9847 17.5115C11.9847 17.1333 11.8341 16.7705 11.5668 16.503C11.2993 16.2355 10.9366 16.0851 10.5583 16.0851Z" fill="#FAFAFA"/>
<path d="M21.2868 10.3796C21.6806 10.3797 22 10.699 22 11.0928C21.9997 11.4864 21.6804 11.8059 21.2868 11.806H19.1472C18.7535 11.806 18.4343 11.4865 18.434 11.0928C18.434 10.6989 18.7533 10.3796 19.1472 10.3796H21.2868Z" fill="#FAFAFA"/>
<path d="M18.9021 6.04939C19.1805 5.77094 19.632 5.77107 19.9106 6.04939C20.1891 6.32791 20.1891 6.77937 19.9106 7.05789L18.3978 8.57063C18.1193 8.84903 17.6678 8.84911 17.3893 8.57063C17.1111 8.29213 17.111 7.84059 17.3893 7.56213L18.9021 6.04939Z" fill="#FAFAFA"/>
<path d="M14.8681 3.95996C15.2619 3.96009 15.5813 4.28027 15.5813 4.67408V6.81365C15.581 7.20725 15.2617 7.52672 14.8681 7.52685C14.4744 7.52685 14.1551 7.20733 14.1549 6.81365V4.67408C14.1549 4.2802 14.4742 3.95996 14.8681 3.95996Z" fill="#FAFAFA"/>
</svg>
