<svg width="24" height="24" viewBox="0 0 24 24" fill="none" xmlns="http://www.w3.org/2000/svg">
<path d="M3 2.25C3.41421 2.25 3.75 2.58579 3.75 3V20.25H21C21.4142 20.25 21.75 20.5858 21.75 21C21.75 21.4142 21.4142 21.75 21 21.75H3C2.58579 21.75 2.25 21.4142 2.25 21V3C2.25 2.58579 2.58579 2.25 3 2.25Z" fill="#FAFAFA"/>
<path fill-rule="evenodd" clip-rule="evenodd" d="M7.62305 13.0039C8.16725 13.0144 8.48732 13.0561 8.70703 13.2236C8.99985 13.447 9 13.8064 9 14.5254V17.4746L8.99512 17.9502C8.98138 18.365 8.9266 18.6089 8.70703 18.7764L8.58789 18.8506C8.28854 19 7.82454 19 7 19L6.37695 18.9961C5.92376 18.9874 5.62593 18.9573 5.41211 18.8506L5.29297 18.7764C5.0734 18.6089 5.01862 18.365 5.00488 17.9502L5 17.4746V14.5254C5 13.8064 5.00015 13.447 5.29297 13.2236C5.58587 13.0002 6.05719 13 7 13L7.62305 13.0039ZM6.5 14.502V17.4971C6.64214 17.4988 6.80469 17.5 7 17.5C7.19487 17.5 7.35712 17.4988 7.49902 17.4971C7.49902 17.4897 7.5 17.4822 7.5 17.4746V14.5254C7.5 14.5175 7.49902 14.5097 7.49902 14.502C7.35712 14.5002 7.19486 14.5 7 14.5C6.80469 14.5 6.64214 14.5002 6.5 14.502Z" fill="#FAFAFA"/>
<path fill-rule="evenodd" clip-rule="evenodd" d="M13.123 10.0039C13.667 10.0143 13.9873 10.0552 14.207 10.2217C14.4999 10.4438 14.5 10.8017 14.5 11.5166V17.4834L14.4951 17.9561C14.4814 18.3686 14.4267 18.6117 14.207 18.7783L14.0879 18.8516C13.7885 19.0001 13.3245 19 12.5 19L11.877 18.9961C11.4238 18.9874 11.1259 18.9577 10.9121 18.8516L10.793 18.7783C10.5733 18.6117 10.5186 18.3686 10.5049 17.9561L10.5 17.4834V11.5166C10.5 10.8017 10.5001 10.4438 10.793 10.2217C11.0859 9.99974 11.5575 10 12.5 10L13.123 10.0039ZM12 11.502V17.4971C12.1422 17.4988 12.3048 17.5 12.5 17.5C12.6948 17.5 12.8571 17.4988 12.999 17.4971C12.999 17.4925 13 17.488 13 17.4834V11.5166C13 11.5117 12.999 11.5068 12.999 11.502C12.8571 11.5003 12.6948 11.5 12.5 11.5C12.3048 11.5 12.1422 11.5002 12 11.502Z" fill="#FAFAFA"/>
<path fill-rule="evenodd" clip-rule="evenodd" d="M18.623 4.00391C19.1671 4.01466 19.4873 4.0573 19.707 4.22949C19.9999 4.45916 20 4.82907 20 5.56836V17.4316L19.9951 17.9209C19.9814 18.3472 19.9266 18.5983 19.707 18.7705L19.5879 18.8457C19.2885 18.9995 18.8248 19 18 19L17.377 18.9961C16.9236 18.9871 16.6259 18.9556 16.4121 18.8457L16.293 18.7705C16.0734 18.5983 16.0186 18.3472 16.0049 17.9209L16 17.4316V5.56836C16 4.82907 16.0001 4.45916 16.293 4.22949C16.5859 3.99993 17.0573 4 18 4L18.623 4.00391ZM17.5 5.50195V17.4971C17.6419 17.4988 17.8043 17.5 18 17.5C18.1952 17.5 18.3574 17.4988 18.499 17.4971C18.499 17.476 18.5 17.4542 18.5 17.4316V5.56836C18.5 5.54547 18.499 5.52329 18.499 5.50195C18.3574 5.5002 18.1952 5.5 18 5.5C17.8043 5.5 17.6419 5.50019 17.5 5.50195Z" fill="#FAFAFA"/>
</svg>
