<svg width="24" height="24" viewBox="0 0 24 24" fill="none" xmlns="http://www.w3.org/2000/svg">
<path fill-rule="evenodd" clip-rule="evenodd" d="M16.0586 10.6497C16.4206 10.6497 16.776 10.7506 17.084 10.9408C17.3919 11.131 17.6408 11.4042 17.8027 11.7279L19.082 14.2865C19.7388 14.3881 20.3513 14.6965 20.8271 15.1722C21.4178 15.7628 21.7499 16.5645 21.75 17.3997V18.5999C21.7499 19.1169 21.5442 19.6132 21.1787 19.9788C20.813 20.3444 20.3169 20.5501 19.7998 20.5501H19.2002C19.1031 20.783 18.9611 20.9972 18.7793 21.179C18.4136 21.5447 17.9175 21.7503 17.4004 21.7503C16.8833 21.7503 16.3872 21.5446 16.0215 21.179C15.8397 20.9972 15.6976 20.783 15.6006 20.5501H9.59961C9.50255 20.783 9.36053 20.9972 9.17871 21.179C8.81306 21.5447 8.31691 21.7503 7.7998 21.7503C7.28272 21.7503 6.78657 21.5446 6.4209 21.179C6.23908 20.9972 6.09706 20.783 6 20.5501H4.2002C3.68311 20.5501 3.18697 20.3444 2.82129 19.9788C2.45578 19.6132 2.25005 19.1169 2.25 18.5999V17.3997C2.25012 16.5645 2.58221 15.7628 3.17285 15.1722C3.76355 14.5817 4.56515 14.2493 5.40039 14.2493H6.73633L7.99316 11.7279C8.15515 11.4042 8.40497 11.131 8.71289 10.9408C9.02089 10.7505 9.37628 10.6497 9.73828 10.6497H16.0586ZM7.7998 19.3499C7.6805 19.3499 7.56583 19.3974 7.48145 19.4818C7.3971 19.5661 7.34966 19.6809 7.34961 19.8001C7.34966 19.9194 7.39716 20.0342 7.48145 20.1185C7.56582 20.2028 7.68055 20.2503 7.7998 20.2503C7.91908 20.2503 8.03382 20.2028 8.11816 20.1185C8.20245 20.0342 8.24995 19.9194 8.25 19.8001C8.24995 19.6809 8.20239 19.5661 8.11816 19.4818C8.03383 19.3975 7.91904 19.35 7.7998 19.3499ZM17.4004 19.3499C17.2811 19.3499 17.1664 19.3974 17.082 19.4818C16.9977 19.5661 16.9502 19.6809 16.9502 19.8001C16.9502 19.9194 16.9977 20.0342 17.082 20.1185C17.1664 20.2028 17.2811 20.2503 17.4004 20.2503C17.5197 20.2503 17.6344 20.2028 17.7188 20.1185C17.8017 20.0355 17.8481 19.9232 17.8496 19.806V19.7933C17.8478 19.6766 17.8014 19.5645 17.7188 19.4818C17.6344 19.3975 17.5196 19.35 17.4004 19.3499ZM5.40039 15.7493C4.96298 15.7493 4.54279 15.9236 4.2334 16.2327C3.92407 16.5421 3.75012 16.9623 3.75 17.3997V18.5999C3.75005 18.7191 3.79763 18.834 3.88184 18.9183C3.96621 19.0026 4.08094 19.0501 4.2002 19.0501H6C6.09707 18.8173 6.2391 18.603 6.4209 18.4212C6.78658 18.0556 7.28268 17.8499 7.7998 17.8499C8.31686 17.85 8.81307 18.0556 9.17871 18.4212C9.36045 18.603 9.50252 18.8173 9.59961 19.0501H15.6006C15.6977 18.8173 15.8397 18.603 16.0215 18.4212C16.3872 18.0556 16.8833 17.8499 17.4004 17.8499C17.9174 17.85 18.4137 18.0556 18.7793 18.4212C18.961 18.603 19.1031 18.8173 19.2002 19.0501H19.7998C19.9191 19.0501 20.0338 19.0026 20.1182 18.9183C20.2024 18.834 20.2499 18.7191 20.25 18.5999V17.3997C20.2499 16.9623 20.0759 16.5421 19.7666 16.2327C19.4593 15.9256 19.0426 15.7517 18.6084 15.7493C18.6058 15.7494 18.6032 15.7503 18.6006 15.7503L5.40039 15.7493ZM9.73828 12.1497C9.65485 12.1497 9.57297 12.1733 9.50195 12.2171C9.43095 12.261 9.37333 12.3242 9.33594 12.3988L8.41211 14.2503H17.3867L16.4609 12.3988C16.4235 12.3242 16.3659 12.261 16.2949 12.2171C16.2417 12.1843 16.1825 12.1622 16.1211 12.1536L16.0586 12.1497H9.73828Z" fill="#FAFAFA"/>
<path d="M16.1582 2.62435C16.3315 2.3384 16.6734 2.20193 16.9961 2.28939C18.2003 2.61584 19.2298 3.55801 19.9404 4.56282C20.6489 5.56459 21.149 6.78231 21.1494 7.81185C21.1503 8.42423 21.0216 9.03019 20.7715 9.58919C20.5214 10.1481 20.1553 10.6476 19.6982 11.055C19.3891 11.3304 18.9152 11.3036 18.6396 10.9945C18.3642 10.6854 18.3914 10.2115 18.7002 9.93587C18.9991 9.66943 19.2388 9.34237 19.4023 8.97689C19.5659 8.61126 19.65 8.21434 19.6494 7.8138C19.6493 7.20374 19.3213 6.28413 18.7158 5.42806C18.6512 5.33675 18.5838 5.24854 18.5156 5.16243C18.5349 5.55749 18.4797 5.97814 18.2822 6.37142C18.0279 6.87756 17.5811 7.25572 16.9697 7.472L16.9707 7.47298C16.4039 7.67391 15.8747 7.66929 15.4092 7.49446C14.9588 7.32525 14.6341 7.02157 14.4102 6.7347C14.3957 6.71617 14.383 6.6957 14.3691 6.67708C14.1519 7.03694 14.006 7.43855 13.9482 7.86165C13.9527 8.16965 14.0068 8.47531 14.1094 8.76595C14.2471 9.15644 14.0418 9.58511 13.6514 9.72298C13.261 9.86052 12.8332 9.65533 12.6953 9.26497C12.5308 8.79917 12.4467 8.30876 12.4473 7.81478L12.4531 7.72493C12.5938 6.57149 13.1645 5.51335 14.0518 4.76302L14.1299 4.7054C14.3171 4.58453 14.5502 4.55229 14.7656 4.62142C15.0106 4.70011 15.1984 4.8988 15.2627 5.14778L15.2646 5.15364C15.2668 5.16109 15.2704 5.17494 15.2764 5.19368C15.2884 5.23157 15.3078 5.28917 15.3359 5.35775C15.3941 5.49931 15.4801 5.66743 15.5928 5.81185C15.7054 5.95608 15.8214 6.04683 15.9365 6.09017C16.0371 6.12794 16.1997 6.15424 16.4688 6.05892C16.7616 5.95533 16.882 5.81648 16.9414 5.69857C17.0097 5.56264 17.0428 5.36145 17.0049 5.08626C16.9261 4.51531 16.5748 3.87479 16.249 3.52279C16.0218 3.27734 15.985 2.91047 16.1582 2.62435Z" fill="#FAFAFA"/>
</svg>
