<svg width="24" height="24" viewBox="0 0 24 24" fill="none" xmlns="http://www.w3.org/2000/svg">
<path fill-rule="evenodd" clip-rule="evenodd" d="M14.8127 2.8125C15.2269 2.8125 15.5627 3.14829 15.5627 3.5625C15.5627 3.97671 15.2269 4.3125 14.8127 4.3125H14.6252V9.93945C15.5365 10.3509 16.3412 10.9717 16.9709 11.7549C17.7134 12.6784 18.1838 13.7908 18.3293 14.9668C18.4747 16.1428 18.2892 17.3365 17.7941 18.4131C17.2989 19.4897 16.5132 20.4075 15.5256 21.0625C15.4027 21.1439 15.2579 21.1875 15.1105 21.1875H8.89081C8.74358 21.1875 8.5995 21.1438 8.47675 21.0625C7.48857 20.4078 6.70193 19.4908 6.20624 18.4141C5.71061 17.3373 5.52483 16.1432 5.67011 14.9668C5.81547 13.7903 6.28664 12.6768 7.02949 11.7529C7.65919 10.9699 8.46396 10.3498 9.37519 9.93848V4.3125H9.18769C8.77356 4.31239 8.43769 3.97665 8.43769 3.5625C8.43769 3.14835 8.77356 2.81261 9.18769 2.8125H14.8127ZM7.12812 15.5625C7.0989 16.3263 7.24744 17.0883 7.56855 17.7861C7.9176 18.5444 8.45706 19.1976 9.13007 19.6875H14.8713C15.5437 19.1976 16.0821 18.5451 16.4309 17.7871C16.7519 17.089 16.9007 16.3266 16.8713 15.5625H7.12812ZM10.8752 10.4434C10.8752 10.7613 10.675 11.0455 10.3752 11.1514C9.5204 11.4531 8.76648 11.987 8.19843 12.6934C7.86628 13.1064 7.60764 13.5698 7.42597 14.0625H16.5734C16.392 13.5705 16.1336 13.1079 15.8019 12.6953C15.2341 11.9891 14.4797 11.4541 13.6252 11.1523C13.3258 11.0463 13.1252 10.763 13.1252 10.4453V4.3125H10.8752V10.4434Z" fill="#FAFAFA"/>
</svg>
