<svg width="24" height="24" viewBox="0 0 24 24" fill="none" xmlns="http://www.w3.org/2000/svg">
<path fill-rule="evenodd" clip-rule="evenodd" d="M7.0625 2.25781C8.6199 2.33978 10.0893 3.03272 11.1846 4.19434C11.9005 4.95365 12.4202 5.87582 12.7158 6.875C12.8968 6.61601 13.0974 6.36992 13.3154 6.13867C14.4837 4.89971 16.0777 4.19434 17.75 4.19434H20.5L20.5771 4.19824C20.955 4.23686 21.2499 4.55628 21.25 4.94434V5.91699L21.2422 6.24023C21.1667 7.85555 20.5285 9.39541 19.4346 10.5557C18.3393 11.7173 16.8699 12.4092 15.3125 12.4912L15 12.5H13V13.917H16.834L16.9102 13.9209C17.2884 13.9592 17.584 14.2786 17.584 14.667V18.5557C17.5839 19.2563 17.3218 19.9372 16.8428 20.4453C16.3622 20.955 15.6998 21.25 15 21.25H9.5C8.80032 21.2499 8.13872 20.9549 7.6582 20.4453C7.17909 19.9371 6.91705 19.2564 6.91699 18.5557V14.667L6.9209 14.5898C6.95952 14.2119 7.27883 13.917 7.66699 13.917H11.5V11.5273H9.5C7.82779 11.5273 6.23365 10.8229 5.06543 9.58398C3.97156 8.42382 3.33335 6.88377 3.25781 5.26855L3.25 4.94434V3L3.25391 2.92285C3.29253 2.54488 3.61183 2.25 4 2.25H6.75L7.0625 2.25781ZM8.41699 18.5557C8.41705 18.8861 8.54161 19.195 8.75 19.416C8.95693 19.6354 9.22757 19.7499 9.5 19.75H15C15.2725 19.75 15.544 19.6355 15.751 19.416C15.9593 19.195 16.0839 18.8861 16.084 18.5557V15.417H8.41699V18.5557ZM17.75 5.69434C16.505 5.69434 15.3009 6.21821 14.4062 7.16699C13.5122 8.1152 13.0023 9.41001 13 10.7686V11H15L15.2324 10.9941C16.394 10.9332 17.5049 10.4161 18.3438 9.52637C19.1836 8.63539 19.6848 7.43901 19.7441 6.1709L19.75 5.91699V5.69434H17.75ZM4.75 4.94434L4.75586 5.19922C4.81527 6.46734 5.31634 7.66378 6.15625 8.55469C7.05091 9.50357 8.25494 10.0273 9.5 10.0273H11.5V8.83301C11.4999 7.47117 10.9898 6.17296 10.0938 5.22266C9.25489 4.33297 8.144 3.8168 6.98242 3.75586L6.75 3.75H4.75V4.94434Z" fill="#FAFAFA"/>
</svg>
