<svg width="24" height="24" viewBox="0 0 24 24" fill="none" xmlns="http://www.w3.org/2000/svg">
<path d="M17.5938 12.2656C17.5938 11.9237 17.4576 11.5962 17.2158 11.3545C16.9741 11.1127 16.6466 10.9766 16.3047 10.9766H6.78906C6.44718 10.9766 6.11968 11.1127 5.87793 11.3545C5.63618 11.5962 5.5 11.9237 5.5 12.2656V18.3828L5.50586 18.5098C5.53506 18.805 5.66628 19.0823 5.87793 19.2939C6.11968 19.5357 6.44718 19.6719 6.78906 19.6719H16.3047C16.6466 19.6719 16.9741 19.5357 17.2158 19.2939C17.4576 19.0522 17.5938 18.7247 17.5938 18.3828V12.2656ZM21.4648 6.82812C21.4648 6.44565 21.3991 6.06639 21.2705 5.70703L21.2119 5.55469C21.0447 5.1509 20.7993 4.78365 20.4902 4.47461C20.1812 4.16557 19.8139 3.92018 19.4102 3.75293C19.0065 3.58576 18.5737 3.5 18.1367 3.5C17.6998 3.5 17.267 3.58576 16.8633 3.75293C16.4595 3.92018 16.0922 4.16556 15.7832 4.47461C15.5127 4.74515 15.2911 5.06013 15.1279 5.40527L15.0615 5.55469C14.8944 5.95839 14.8086 6.39118 14.8086 6.82812V9.47656H16.3047C17.0444 9.47656 17.7533 9.7709 18.2764 10.2939C18.7994 10.817 19.0938 11.5259 19.0938 12.2656V18.3828C19.0938 19.1225 18.7994 19.8314 18.2764 20.3545C17.7533 20.8775 17.0444 21.1719 16.3047 21.1719H6.78906C6.04936 21.1719 5.34043 20.8775 4.81738 20.3545C4.35965 19.8968 4.07701 19.2968 4.01367 18.6582L4 18.3828V12.2656C4 11.5259 4.29433 10.817 4.81738 10.2939C5.34043 9.7709 6.04936 9.47656 6.78906 9.47656H13.3086V6.82812C13.3086 6.19412 13.4332 5.56621 13.6758 4.98047L13.7725 4.76367C14.0092 4.26317 14.3303 3.8064 14.7227 3.41406C15.171 2.96573 15.7033 2.60982 16.2891 2.36719C16.8748 2.12458 17.5027 2 18.1367 2C18.7707 2 19.3986 2.12458 19.9844 2.36719C20.5702 2.60982 21.1024 2.96573 21.5508 3.41406C21.9991 3.8624 22.355 4.39469 22.5977 4.98047L22.6826 5.20215C22.8691 5.7234 22.9648 6.27335 22.9648 6.82812C22.9648 7.24234 22.6291 7.57812 22.2148 7.57812C21.8006 7.57812 21.4648 7.24234 21.4648 6.82812Z" fill="#FAFAFA"/>
</svg>
