<svg width="24" height="24" viewBox="0 0 24 24" fill="none" xmlns="http://www.w3.org/2000/svg">
<path fill-rule="evenodd" clip-rule="evenodd" d="M15 9.5C16.1046 9.5 17 10.3954 17 11.5V17.5C17 18.5357 16.2128 19.387 15.2041 19.4893L15 19.5H9L8.7959 19.4893C7.85435 19.3938 7.1062 18.6457 7.01074 17.7041L7 17.5V11.5C7 10.3954 7.89543 9.5 9 9.5H15ZM8.5 16.6504V17.5C8.5 17.7761 8.72386 18 9 18H15C15.2761 18 15.5 17.7761 15.5 17.5V16.6504H8.5ZM8.5 15.1504H15.5V13.8506H8.5V15.1504ZM9 11C8.72386 11 8.5 11.2239 8.5 11.5V12.3506H15.5V11.5C15.5 11.2239 15.2761 11 15 11H9Z" fill="#FAFAFA"/>
<path d="M16 6.75C16.4142 6.75 16.75 7.08579 16.75 7.5C16.75 7.91421 16.4142 8.25 16 8.25H15C14.5858 8.25 14.25 7.91421 14.25 7.5C14.25 7.08579 14.5858 6.75 15 6.75H16Z" fill="#FAFAFA"/>
<path fill-rule="evenodd" clip-rule="evenodd" d="M18 1.5C19.1046 1.5 20 2.39543 20 3.5V20.5C20 21.6046 19.1046 22.5 18 22.5H6C4.96435 22.5 4.113 21.7128 4.01074 20.7041L4 20.5V3.5C4 2.39543 4.89543 1.5 6 1.5H18ZM6 3C5.72386 3 5.5 3.22386 5.5 3.5V20.5C5.5 20.7761 5.72386 21 6 21H18C18.2761 21 18.5 20.7761 18.5 20.5V3.5C18.5 3.22386 18.2761 3 18 3H17V3.5C17 4.53565 16.2128 5.387 15.2041 5.48926L15 5.5H9L8.7959 5.48926C7.78722 5.387 7 4.53565 7 3.5V3H6ZM8.5 3.5C8.5 3.77614 8.72386 4 9 4H15C15.2761 4 15.5 3.77614 15.5 3.5V3H8.5V3.5Z" fill="#FAFAFA"/>
</svg>
