<svg width="24" height="24" viewBox="0 0 24 24" fill="none" xmlns="http://www.w3.org/2000/svg">
<path d="M4.2002 17.8496C4.61419 17.8497 4.94998 18.1856 4.9502 18.5996V19.7998C4.95025 19.919 4.99777 20.0338 5.08203 20.1182C5.16637 20.2024 5.28108 20.25 5.40039 20.25H6.60059C7.0144 20.2503 7.35037 20.5862 7.35059 21C7.35038 21.4138 7.0144 21.7497 6.60059 21.75H5.40039C4.88336 21.75 4.38719 21.5443 4.02148 21.1787C3.65588 20.8131 3.45025 20.3168 3.4502 19.7998V18.5996C3.45041 18.1856 3.78611 17.8496 4.2002 17.8496Z" fill="#FAFAFA"/>
<path d="M11.4004 20.25C11.8144 20.2502 12.1504 20.5859 12.1504 21C12.1504 21.4141 11.8144 21.7498 11.4004 21.75H9C8.58579 21.75 8.25 21.4142 8.25 21C8.25 20.5858 8.58579 20.25 9 20.25H11.4004Z" fill="#FAFAFA"/>
<path d="M18.1074 17.5557C18.6366 17.6096 19.0496 18.0562 19.0498 18.5996C19.0498 19.1794 18.5798 19.6493 18 19.6494C17.4202 19.6493 16.9502 19.1794 16.9502 18.5996C16.9504 18.02 17.4203 17.5499 18 17.5498L18.1074 17.5557Z" fill="#FAFAFA"/>
<path fill-rule="evenodd" clip-rule="evenodd" d="M19.7998 10.6504C20.8767 10.6504 21.75 11.5237 21.75 12.6006V19.8008C21.7496 20.8774 20.8765 21.75 19.7998 21.75H16.2002C15.1235 21.75 14.2504 20.8774 14.25 19.8008V12.6006C14.25 11.5237 15.1233 10.6504 16.2002 10.6504H19.7998ZM16.2002 12.1504C15.9517 12.1504 15.75 12.3521 15.75 12.6006V19.8008C15.7504 20.0489 15.9519 20.25 16.2002 20.25H19.7998C20.048 20.25 20.2496 20.0489 20.25 19.8008V12.6006C20.25 12.3521 20.0483 12.1504 19.7998 12.1504H16.2002Z" fill="#FAFAFA"/>
<path d="M4.2002 13.0498C4.61425 13.0499 4.95009 13.3857 4.9502 13.7998V16.2002C4.94998 16.6142 4.61419 16.9501 4.2002 16.9502C3.78611 16.9502 3.45041 16.6142 3.4502 16.2002V13.7998C3.4503 13.3857 3.78605 13.0498 4.2002 13.0498Z" fill="#FAFAFA"/>
<path d="M7.90723 7.95508C8.43662 8.00886 8.84951 8.45644 8.84961 9C8.8495 9.57981 8.37964 10.0498 7.7998 10.0498C7.22006 10.0497 6.75011 9.57975 6.75 9C6.75011 8.42025 7.22006 7.9503 7.7998 7.9502L7.90723 7.95508Z" fill="#FAFAFA"/>
<path fill-rule="evenodd" clip-rule="evenodd" d="M12.2002 2.25C12.505 2.25005 12.7971 2.37145 13.0127 2.58691C13.228 2.80245 13.3496 3.09537 13.3496 3.40039V5.7998C13.3496 6.21077 13.1868 6.60495 12.8965 6.89551C12.8026 6.98937 12.6966 7.06769 12.584 7.13379C12.6908 7.53725 12.7478 7.95309 12.75 8.37207L12.7412 8.68457C12.6926 9.5195 12.4331 10.3286 11.9873 11.0361C11.5414 11.7435 10.9237 12.3274 10.1914 12.7314C9.45922 13.1354 8.63604 13.3476 7.7998 13.3477C6.96356 13.3476 6.14038 13.1354 5.4082 12.7314C4.67593 12.3273 4.05721 11.7437 3.61133 11.0361C3.16559 10.3286 2.90695 9.51936 2.8584 8.68457C2.82796 8.16081 2.88092 7.63729 3.01367 7.13379C2.90204 7.06808 2.79729 6.98962 2.7041 6.89648C2.41343 6.60581 2.25 6.2109 2.25 5.7998V3.40039C2.25 3.09539 2.37125 2.80258 2.58691 2.58691C2.80258 2.37125 3.09539 2.25 3.40039 2.25H12.2002ZM4.51367 7.34961C4.38571 7.75123 4.33087 8.17431 4.35547 8.59766C4.38933 9.17944 4.57021 9.74324 4.88086 10.2363C5.19163 10.7295 5.62251 11.1363 6.13281 11.418C6.64311 11.6995 7.21697 11.8476 7.7998 11.8477C8.38258 11.8476 8.95653 11.6995 9.4668 11.418C9.97699 11.1364 10.408 10.7293 10.7188 10.2363C11.0293 9.74324 11.2103 9.17935 11.2441 8.59766C11.2687 8.17421 11.2139 7.75129 11.0859 7.34961H4.51367ZM3.75 5.7998C3.75 5.81297 3.75539 5.8256 3.76465 5.83496L3.78125 5.84668C3.78706 5.84901 3.79343 5.84958 3.7998 5.84961H3.87402C3.96191 5.83312 4.05222 5.83343 4.14258 5.84961H11.4541C11.5454 5.83287 11.6368 5.83292 11.7256 5.84961H11.7998C11.8131 5.84961 11.8257 5.84427 11.835 5.83496C11.8444 5.82551 11.8496 5.81296 11.8496 5.7998V3.75H3.75V5.7998Z" fill="#FAFAFA"/>
<path d="M18 7.05078C18.835 7.0509 19.636 7.38243 20.2266 7.97266C20.5195 8.2655 20.5194 8.74124 20.2266 9.03418C19.9337 9.32638 19.4587 9.32668 19.166 9.03418C18.8567 8.725 18.4373 8.5509 18 8.55078C17.5627 8.5509 17.1423 8.72495 16.833 9.03418C16.5401 9.32641 16.0652 9.32665 15.7725 9.03418C15.4798 8.74136 15.4799 8.2655 15.7725 7.97266C16.363 7.38236 17.165 7.0509 18 7.05078Z" fill="#FAFAFA"/>
<path d="M18 4.64941C18.9475 4.64947 19.8831 4.86816 20.7324 5.28809C21.1034 5.47175 21.2557 5.92181 21.0723 6.29297C20.8887 6.66419 20.4386 6.81624 20.0674 6.63281C19.4248 6.31512 18.7169 6.14947 18 6.14941C17.283 6.14947 16.5744 6.31497 15.9316 6.63281C15.5605 6.81596 15.1113 6.66389 14.9277 6.29297C14.7445 5.92181 14.8966 5.47166 15.2676 5.28809C16.117 4.86812 17.0525 4.64947 18 4.64941Z" fill="#FAFAFA"/>
</svg>
