<svg width="24" height="24" viewBox="0 0 24 24" fill="none" xmlns="http://www.w3.org/2000/svg">
<path d="M18.5 5.77734C18.4999 5.59575 18.4593 5.55906 18.4746 5.58203C18.4836 5.59534 18.4845 5.58551 18.4404 5.56348C18.3903 5.53841 18.3213 5.51921 18.2529 5.50781C18.2225 5.50275 18.2001 5.50062 18.1914 5.5H5.77734C5.59575 5.50007 5.55906 5.54071 5.58203 5.52539C5.59534 5.51644 5.58551 5.51551 5.56348 5.55957C5.53841 5.60972 5.51921 5.67866 5.50781 5.74707C5.50275 5.77753 5.50062 5.7999 5.5 5.80859V18.2227C5.50007 18.4042 5.54071 18.4409 5.52539 18.418C5.51644 18.4047 5.51551 18.4145 5.55957 18.4365C5.60972 18.4616 5.67866 18.4808 5.74707 18.4922C5.77753 18.4972 5.7999 18.4994 5.80859 18.5H18.2227V20H5.77734L5.70117 19.9961C5.37266 19.9726 4.0957 19.7911 4.00488 18.3838L4 18.2227V5.77734C4.00014 5.74675 4.01508 4.10821 5.61621 4.00488L5.77734 4H18.2227C18.2542 4.00014 19.9997 4.01608 20 5.77734V18.2227C19.9999 18.2532 19.9849 19.8918 18.3838 19.9951L18.2227 20V18.5C18.4042 18.4999 18.4409 18.4593 18.418 18.4746C18.4047 18.4836 18.4145 18.4845 18.4365 18.4404C18.4616 18.3903 18.4808 18.3213 18.4922 18.2529C18.4972 18.2225 18.4994 18.2001 18.5 18.1914V5.77734Z" fill="#FAFAFA"/>
<path d="M6.78234 6.78234C7.05695 6.50774 7.49167 6.49028 7.78625 6.73059L7.84289 6.78234L9.71789 8.65734L9.76965 8.71398C10.01 9.00857 9.99249 9.44329 9.71789 9.71789L7.84289 11.5929C7.55 11.8858 7.07524 11.8858 6.78234 11.5929C6.48945 11.3 6.48945 10.8252 6.78234 10.5323L8.12707 9.18762L6.78234 7.84289L6.73059 7.78625C6.49028 7.49167 6.50774 7.05695 6.78234 6.78234Z" fill="#FAFAFA"/>
<path d="M14.8125 12.1875C15.2267 12.1875 15.5625 12.5233 15.5625 12.9375C15.5625 13.3517 15.2267 13.6875 14.8125 13.6875H11.0625C10.6483 13.6875 10.3125 13.3517 10.3125 12.9375C10.3125 12.5233 10.6483 12.1875 11.0625 12.1875H14.8125Z" fill="#FAFAFA"/>
</svg>
