<svg width="24" height="24" viewBox="0 0 24 24" fill="none" xmlns="http://www.w3.org/2000/svg">
<path fill-rule="evenodd" clip-rule="evenodd" d="M14.3994 15.4688C14.5941 14.7313 15.3196 14.2447 16.0898 14.3662C16.9105 14.4963 17.4726 15.2682 17.3428 16.0898C17.2125 16.9114 16.4397 17.4723 15.6191 17.3428L15.6182 17.3418C14.7975 17.2112 14.2386 16.4399 14.3682 15.6191L14.3994 15.4688ZM15.8516 15.8496L15.8496 15.8516L15.8486 15.8535V15.8555L15.8496 15.8584L15.8516 15.8604H15.8555L15.8584 15.8584L15.8604 15.8574L15.8613 15.8564L15.8604 15.8555L15.8613 15.8545L15.8594 15.8506L15.8574 15.8486L15.8545 15.8477L15.8516 15.8496Z" fill="#FAFAFA"/>
<path fill-rule="evenodd" clip-rule="evenodd" d="M16.0176 10.0498C16.7923 9.92777 17.5873 10.0329 18.3037 10.3516C18.3269 10.3619 18.35 10.3741 18.3721 10.3867L18.4375 10.4238L18.4971 10.4619C18.6741 10.5875 18.816 10.7654 18.8975 10.9766L18.8984 10.9785C18.9792 11.1896 18.9931 11.4171 18.9453 11.6299C18.9399 11.6538 18.9325 11.6789 18.9248 11.7021L18.9014 11.7725C18.8938 11.7952 18.8847 11.819 18.875 11.8408L18.502 12.6777C18.5697 12.6924 18.6389 12.7084 18.7061 12.7266C19.463 12.9316 20.1452 13.3522 20.6689 13.9355C21.1925 14.5191 21.5369 15.2429 21.6592 16.0176C21.7811 16.7923 21.6762 17.5872 21.3574 18.3037L21.3584 18.3047C21.2375 18.5756 21.012 18.7906 20.7314 18.8984C20.4505 19.0062 20.1392 18.9954 19.8682 18.875L19.0312 18.5029C19.0167 18.5703 19.0024 18.6383 18.9844 18.7051C18.7793 19.4623 18.3575 20.1444 17.7744 20.668C17.1909 21.1917 16.4672 21.5358 15.6924 21.6582C14.9175 21.7804 14.1229 21.6761 13.4062 21.3574C13.1342 21.2363 12.9193 21.0103 12.8115 20.7305C12.7039 20.4497 12.7137 20.139 12.834 19.8682L13.2051 19.0312C13.1386 19.0169 13.0718 19.0012 13.0059 18.9834C12.343 18.8041 11.7368 18.4592 11.2451 17.9854L11.042 17.7734C10.5186 17.1903 10.1723 16.4676 10.0498 15.6924C9.92767 14.9175 10.033 14.1227 10.3516 13.4062L10.3838 13.3418L10.4209 13.2764L10.4619 13.2129C10.5903 13.0317 10.7703 12.8914 10.9775 12.8115L11.085 12.7764C11.3363 12.7078 11.6037 12.7286 11.8408 12.834L12.6777 13.2061C12.6923 13.1388 12.7095 13.0716 12.7275 13.0049C12.9324 12.2476 13.3521 11.5659 13.9355 11.042C14.5187 10.5187 15.2424 10.1723 16.0176 10.0498ZM16.4355 11.5088L16.251 11.5312C15.7628 11.6083 15.3063 11.8262 14.9375 12.1572C14.5691 12.4881 14.304 12.9189 14.1748 13.3965C14.0981 13.6803 14.071 13.9746 14.0938 14.2656C14.1143 14.5289 13.9949 14.785 13.7793 14.9375C13.5635 15.0898 13.2824 15.118 13.041 15.0107L11.5947 14.3672C11.4958 14.7207 11.4737 15.0939 11.5312 15.459C11.6084 15.9468 11.8265 16.4029 12.1572 16.7715L12.2861 16.9043C12.5968 17.2038 12.9788 17.4222 13.3965 17.5352C13.68 17.6118 13.975 17.638 14.2666 17.6152C14.5297 17.595 14.7841 17.7152 14.9365 17.9307C15.0887 18.1464 15.1171 18.4267 15.0098 18.668L14.3662 20.1133C14.72 20.2125 15.0933 20.2344 15.459 20.1768C15.9472 20.0996 16.4033 19.883 16.7715 19.5527C17.1401 19.2218 17.4069 18.7909 17.5361 18.3135C17.6127 18.0305 17.638 17.7354 17.6152 17.4434L17.6143 17.3447C17.6264 17.1176 17.7412 16.9059 17.9297 16.7725C18.1455 16.62 18.4266 16.592 18.668 16.6992L20.1133 17.3428C20.2123 16.9892 20.2353 16.6164 20.1777 16.251C20.1006 15.7624 19.8823 15.3059 19.5518 14.9375C19.2211 14.5693 18.7909 14.3031 18.3135 14.1738L18.3145 14.1748C18.0305 14.098 17.7343 14.0709 17.4424 14.0938C17.1791 14.1142 16.925 13.9939 16.7725 13.7783C16.6201 13.5625 16.5918 13.2824 16.6992 13.041L17.3418 11.5947C17.0479 11.5126 16.7406 11.4832 16.4355 11.5088Z" fill="#FAFAFA"/>
<path fill-rule="evenodd" clip-rule="evenodd" d="M14 2C14.4461 2 14.8842 2.11487 15.2744 2.33008L19.0244 4.21191L19.0586 4.23047C19.4575 4.45775 19.7894 4.78687 20.0205 5.18359C20.2515 5.58039 20.3742 6.03206 20.375 6.49121V10.6758C20.3532 10.5971 20.3284 10.5186 20.2988 10.4414C20.2966 10.4357 20.2933 10.4295 20.291 10.4238C20.1003 9.93723 19.773 9.52823 19.3643 9.23828C19.345 9.22466 19.3245 9.21094 19.3047 9.19824L19.2451 9.16016C19.2231 9.14606 19.1995 9.13206 19.1768 9.11914L19.1182 9.08691L19.1191 9.08594C19.0658 9.05534 18.9955 9.01778 18.9141 8.98145L18.9131 8.98047L18.875 8.96484V6.5293L9.125 11.1924V12.5215L9.11621 12.5361L9.0791 12.6016L9.04199 12.6709L9.00977 12.7354L8.98047 12.7959C8.54453 13.7762 8.40016 14.8646 8.56738 15.9258L8.64551 16.3213C8.80709 17.0129 9.10043 17.6654 9.50488 18.2441C9.15232 18.4117 8.76698 18.501 8.375 18.501C7.92901 18.501 7.49077 18.387 7.10059 18.1719L3.35059 16.29C3.33868 16.2841 3.327 16.2771 3.31543 16.2705C2.55429 15.8352 2.06431 15.0516 2.00586 14.1846L2 14.0098V9.30566L2.00586 9.13086C2.06418 8.26451 2.55398 7.48018 3.31445 7.04395L3.35156 7.02441L12.7266 2.3291C13.1166 2.11416 13.5542 2 14 2ZM3.5 14.0098L3.50977 14.1562C3.55454 14.4875 3.74946 14.7856 4.04688 14.9609L7.625 16.7568V11.2021L3.5 9.32715V14.0098ZM14 3.50098C13.8017 3.50098 13.6068 3.55298 13.4346 3.65137C13.4228 3.6581 13.4106 3.66482 13.3984 3.6709L4.49023 8.12988L8.36621 9.8916L17.9062 5.3291L14.6006 3.66992C14.5888 3.66401 14.5769 3.65789 14.5654 3.65137C14.3932 3.55298 14.1983 3.50098 14 3.50098Z" fill="#FAFAFA"/>
</svg>
