<svg width="24" height="24" viewBox="0 0 24 24" fill="none" xmlns="http://www.w3.org/2000/svg">
<path d="M16.2822 9.3125C16.6619 9.14683 17.1038 9.32058 17.2695 9.7002C17.4841 10.1919 17.6285 10.7136 17.6992 11.25H21C21.4142 11.25 21.75 11.5858 21.75 12C21.75 12.4142 21.4142 12.75 21 12.75H17.6992C17.5349 13.998 16.9654 15.1655 16.0654 16.0654C14.9871 17.1437 13.525 17.75 12 17.75C10.475 17.75 9.0129 17.1437 7.93457 16.0654C7.03465 15.1655 6.46513 13.998 6.30078 12.75H3C2.58579 12.75 2.25 12.4142 2.25 12C2.25 11.5858 2.58579 11.25 3 11.25H6.30078C6.37124 10.7136 6.51496 10.1919 6.72949 9.7002C6.89517 9.32056 7.33814 9.14683 7.71777 9.3125C8.09718 9.47827 8.27009 9.92028 8.10449 10.2998C7.87269 10.831 7.75 11.4093 7.75 12C7.75003 13.1271 8.19811 14.2079 8.99512 15.0049C9.79214 15.8019 10.8729 16.25 12 16.25C13.1271 16.25 14.2079 15.8019 15.0049 15.0049C15.8019 14.2079 16.25 13.1271 16.25 12C16.25 11.4093 16.1273 10.831 15.8955 10.2998C15.7299 9.92028 15.9028 9.47827 16.2822 9.3125Z" fill="#FAFAFA"/>
<path d="M12 10C12.5304 10 13.039 10.2109 13.4141 10.5859C13.7891 10.961 14 11.4696 14 12C14 12.5304 13.7891 13.039 13.4141 13.4141C13.039 13.7891 12.5304 14 12 14C11.4696 14 10.961 13.7891 10.5859 13.4141C10.2109 13.039 10 12.5304 10 12C10 11.4696 10.2109 10.961 10.5859 10.5859C10.961 10.2109 11.4696 10 12 10Z" fill="#FAFAFA"/>
<path d="M9.34961 7C9.54852 7 9.73923 7.07907 9.87988 7.21973C10.0205 7.36038 10.0996 7.55109 10.0996 7.75C10.0996 7.94891 10.0205 8.13962 9.87988 8.28027C9.73923 8.42093 9.54852 8.5 9.34961 8.5C9.1507 8.5 8.95999 8.42093 8.81934 8.28027C8.67868 8.13962 8.59961 7.94891 8.59961 7.75C8.59961 7.55109 8.67868 7.36038 8.81934 7.21973C8.95999 7.07907 9.1507 7 9.34961 7Z" fill="#FAFAFA"/>
<path d="M14.6504 7C14.8493 7 15.04 7.07907 15.1807 7.21973C15.3213 7.36038 15.4004 7.55109 15.4004 7.75C15.4004 7.94891 15.3213 8.13962 15.1807 8.28027C15.04 8.42093 14.8493 8.5 14.6504 8.5C14.4515 8.5 14.2608 8.42093 14.1201 8.28027C13.9795 8.13962 13.9004 7.94891 13.9004 7.75C13.9004 7.55109 13.9795 7.36038 14.1201 7.21973C14.2608 7.07907 14.4515 7 14.6504 7Z" fill="#FAFAFA"/>
<path d="M12 6.25C12.1989 6.25 12.3896 6.32907 12.5303 6.46973C12.6709 6.61038 12.75 6.80109 12.75 7C12.75 7.19891 12.6709 7.38962 12.5303 7.53027C12.3896 7.67093 12.1989 7.75 12 7.75C11.8011 7.75 11.6104 7.67093 11.4697 7.53027C11.3291 7.38962 11.25 7.19891 11.25 7C11.25 6.80109 11.3291 6.61038 11.4697 6.46973C11.6104 6.32907 11.8011 6.25 12 6.25Z" fill="#FAFAFA"/>
</svg>
