<svg width="24" height="24" viewBox="0 0 24 24" fill="none" xmlns="http://www.w3.org/2000/svg">
<path d="M3.98047 19.2947C4.5603 19.2947 5.03017 19.7647 5.03027 20.3445C5.03015 20.9243 4.56029 21.3943 3.98047 21.3943V20.7947L3.97949 20.7937L3.98047 21.3943C3.40072 21.3942 2.92981 20.9242 2.92969 20.3445C2.92979 19.7648 3.40071 19.2948 3.98047 19.2947Z" fill="#FAFAFA"/>
<path d="M7.08789 19.2996C7.61727 19.3534 8.03017 19.801 8.03027 20.3445C8.03015 20.9243 7.56031 21.3943 6.98047 21.3943C6.40074 21.3942 5.93079 20.9242 5.93066 20.3445C5.93077 19.7648 6.40073 19.2948 6.98047 19.2947L7.08789 19.2996Z" fill="#FAFAFA"/>
<path d="M10.0889 19.2996C10.6182 19.3534 11.0312 19.801 11.0312 20.3445C11.0311 20.9243 10.5613 21.3943 9.98145 21.3943C9.4017 21.3942 8.93177 20.9242 8.93164 20.3445C8.93175 19.7648 9.40169 19.2948 9.98145 19.2947L10.0889 19.2996Z" fill="#FAFAFA"/>
<path d="M5.8877 16.2996C6.41707 16.3534 6.82998 16.801 6.83008 17.3445C6.82995 17.9243 6.36011 18.3943 5.78027 18.3943C5.20055 18.3942 4.73059 17.9242 4.73047 17.3445C4.73057 16.7648 5.20053 16.2948 5.78027 16.2947L5.8877 16.2996Z" fill="#FAFAFA"/>
<path d="M8.8877 16.2996C9.41707 16.3534 9.82998 16.801 9.83008 17.3445C9.82995 17.9243 9.36011 18.3943 8.78027 18.3943C8.20055 18.3942 7.73059 17.9242 7.73047 17.3445C7.73057 16.7648 8.20053 16.2948 8.78027 16.2947L8.8877 16.2996Z" fill="#FAFAFA"/>
<path fill-rule="evenodd" clip-rule="evenodd" d="M16.0225 2.38455C16.5039 2.19589 17.0408 2.2059 17.5146 2.41287C17.9885 2.61986 18.361 3.00661 18.5498 3.48807L21.6152 11.3094C21.8038 11.7906 21.7936 12.3269 21.5869 12.8006C21.38 13.2744 20.9931 13.6469 20.5117 13.8357L12.6904 16.9021C12.3054 17.0527 11.8714 16.863 11.7197 16.4783L11.1133 14.9402L9.58105 15.5428C9.39601 15.6154 9.18906 15.6114 9.00684 15.532C8.8245 15.4524 8.68102 15.3032 8.6084 15.1179L8.00586 13.5818L6.4707 14.1873C6.28552 14.2601 6.07892 14.257 5.89648 14.1775C5.714 14.0979 5.57069 13.9488 5.49805 13.7635L3.74707 9.2908C3.55832 8.80933 3.56842 8.27255 3.77539 7.79861C3.98239 7.32474 4.36915 6.95221 4.85059 6.76346L16.0225 2.38455ZM16.9141 3.7869C16.805 3.73938 16.6813 3.73766 16.5703 3.78104L5.39844 8.15994C5.28737 8.20349 5.19817 8.28989 5.15039 8.3992C5.1027 8.50848 5.10008 8.63191 5.14355 8.74295L6.62012 12.5164L8.15625 11.9119L8.29785 11.8719C8.44273 11.8458 8.59354 11.863 8.73047 11.9226C8.91272 12.0022 9.05624 12.1506 9.12891 12.3357L9.73047 13.8719L11.2627 13.2713L11.3359 13.2469C11.7017 13.1446 12.0932 13.3332 12.2354 13.6941L12.8398 15.2312L19.9639 12.4392C20.0748 12.3957 20.1641 12.3101 20.2119 12.201C20.2597 12.0915 20.2623 11.9673 20.2188 11.8562L17.1533 4.03592C17.1098 3.92488 17.0234 3.83468 16.9141 3.7869Z" fill="#FAFAFA"/>
</svg>
