<svg width="24" height="24" viewBox="0 0 24 24" fill="none" xmlns="http://www.w3.org/2000/svg">
<path fill-rule="evenodd" clip-rule="evenodd" d="M7.37109 7.625C7.37109 7.72346 7.39006 7.82114 7.42773 7.91211C7.46543 8.0031 7.52118 8.08563 7.59082 8.15527C7.66046 8.22492 7.74299 8.28067 7.83398 8.31836C7.92496 8.35603 8.02263 8.375 8.12109 8.375C8.21956 8.375 8.31723 8.35603 8.4082 8.31836C8.4992 8.28067 8.58172 8.22492 8.65137 8.15527C8.72101 8.08563 8.77676 8.0031 8.81445 7.91211C8.85212 7.82114 8.87109 7.72346 8.87109 7.625H10.2422L10.3438 7.62988C10.8481 7.68099 11.2422 8.10716 11.2422 8.625V16.125L11.2363 16.2275C11.185 16.7316 10.7589 17.125 10.2412 17.125H6L5.89746 17.1201C5.42703 17.0722 5.05278 16.698 5.00488 16.2275L5 16.125V8.625C5 8.07272 5.44772 7.625 6 7.625H7.37109ZM6.5 15.625H9.74219V9.125H6.5V15.625Z" fill="#FAFAFA"/>
<path fill-rule="evenodd" clip-rule="evenodd" d="M15.1211 7.625C15.1211 7.72346 15.1401 7.82114 15.1777 7.91211C15.2154 8.0031 15.2712 8.08563 15.3408 8.15527C15.4105 8.22492 15.493 8.28067 15.584 8.31836C15.675 8.35603 15.7726 8.375 15.8711 8.375C15.9696 8.375 16.0672 8.35603 16.1582 8.31836C16.2492 8.28067 16.3317 8.22492 16.4014 8.15527C16.471 8.08563 16.5268 8.0031 16.5645 7.91211C16.6021 7.82114 16.6211 7.72346 16.6211 7.625H17.9922L18.0938 7.62988C18.5981 7.68099 18.9922 8.10716 18.9922 8.625V13.0732L18.9863 13.1758C18.935 13.6798 18.5088 14.0732 17.9912 14.0732H13.75L13.6475 14.0684C13.177 14.0205 12.8028 13.6462 12.7549 13.1758L12.75 13.0732V8.625C12.75 8.07272 13.1977 7.625 13.75 7.625H15.1211ZM14.25 12.5732H17.4922V9.125H14.25V12.5732Z" fill="#FAFAFA"/>
<path d="M8.12109 6.875C8.32001 6.875 8.51072 6.95407 8.65137 7.09473C8.79202 7.23538 8.87109 7.42609 8.87109 7.625H7.37109C7.37109 7.42609 7.45017 7.23538 7.59082 7.09473C7.73147 6.95407 7.92218 6.875 8.12109 6.875Z" fill="#FAFAFA"/>
<path d="M15.8711 6.875C16.07 6.875 16.2607 6.95407 16.4014 7.09473C16.542 7.23538 16.6211 7.42609 16.6211 7.625H15.1211C15.1211 7.42609 15.2002 7.23538 15.3408 7.09473C15.4815 6.95407 15.6722 6.875 15.8711 6.875Z" fill="#FAFAFA"/>
<path fill-rule="evenodd" clip-rule="evenodd" d="M19.25 4C20.7688 4 22 5.23122 22 6.75V17.25C22 18.7688 20.7688 20 19.25 20H4.75C3.23122 20 2 18.7688 2 17.25V6.75C2 5.23122 3.23122 4 4.75 4H19.25ZM4.75 5.5C4.05964 5.5 3.5 6.05964 3.5 6.75V17.25C3.5 17.9404 4.05964 18.5 4.75 18.5H19.25C19.9404 18.5 20.5 17.9404 20.5 17.25V6.75C20.5 6.05964 19.9404 5.5 19.25 5.5H4.75Z" fill="#FAFAFA"/>
</svg>
