<svg width="24" height="24" viewBox="0 0 24 24" fill="none" xmlns="http://www.w3.org/2000/svg">
<path fill-rule="evenodd" clip-rule="evenodd" d="M13.6162 2.71875C14.0302 2.71901 14.3662 3.05568 14.3662 3.46973C14.3659 3.88355 14.03 4.21946 13.6162 4.21973H11.4795V6.57031H15.7051C16.8415 6.57031 17.7627 7.49153 17.7627 8.62793V10.1855H20.5C20.9142 10.1855 21.2499 10.5214 21.25 10.9355V13.2949C21.2496 13.7088 20.914 14.0449 20.5 14.0449H17.7627V15.6025C17.7623 16.7387 16.8413 17.6602 15.7051 17.6602H13.668V19.6621C13.668 19.702 13.6642 19.7411 13.6582 19.7793H19.5C19.9142 19.7793 20.25 20.1151 20.25 20.5293C20.2497 20.9433 19.9141 21.2793 19.5 21.2793H3.5C3.08595 21.2793 2.75026 20.9433 2.75 20.5293C2.75 20.1151 3.08579 19.7793 3.5 19.7793H8.10059C8.09459 19.7411 8.0918 19.702 8.0918 19.6621V17.6602H6.9873C4.64734 17.6602 2.75026 15.7628 2.75 13.4229V10.8076C2.75 8.46749 4.64718 6.57031 6.9873 6.57031H9.97949V4.21973H7.8418C7.42775 4.21973 7.09206 3.88372 7.0918 3.46973C7.0918 3.05551 7.42758 2.71875 7.8418 2.71875H13.6162ZM9.5918 19.6621C9.5918 19.702 9.58803 19.7411 9.58203 19.7793H12.1777C12.1717 19.7411 12.168 19.702 12.168 19.6621V17.6602H9.5918V19.6621ZM6.9873 8.07031C5.4756 8.07031 4.25 9.29591 4.25 10.8076V13.4229C4.25026 14.9343 5.47576 16.1602 6.9873 16.1602H15.7051C16.0129 16.1602 16.2623 15.9102 16.2627 15.6025V13.2949C16.2627 12.8807 16.5985 12.545 17.0127 12.5449H19.75V11.6855H17.0127C16.5987 11.6855 16.263 11.3495 16.2627 10.9355V8.62793C16.2627 8.31996 16.0131 8.07031 15.7051 8.07031H6.9873Z" fill="#FAFAFA"/>
<path d="M8.369 11.0675C8.14929 11.0675 7.96068 10.9878 7.80316 10.8283C7.64564 10.6688 7.56688 10.4723 7.56688 10.2387C7.56688 10.0103 7.64564 9.8151 7.80316 9.65305C7.96068 9.49099 8.1508 9.40997 8.37353 9.40997C8.59625 9.40997 8.78601 9.49099 8.94282 9.65305C9.09964 9.8151 9.17804 10.0119 9.17804 10.2434C9.17804 10.4749 9.09938 10.6701 8.94206 10.8291C8.78475 10.988 8.59373 11.0675 8.369 11.0675ZM10.4949 12.9911C10.2751 12.9911 10.0857 12.9089 9.92647 12.7445C9.76724 12.5801 9.68763 12.3848 9.68763 12.1588C9.68763 11.9328 9.76754 11.7379 9.92736 11.574C10.0872 11.4102 10.2785 11.3283 10.5012 11.3283C10.7239 11.3283 10.9134 11.4105 11.0696 11.575C11.2258 11.7394 11.3039 11.9346 11.3039 12.1607C11.3039 12.3867 11.2252 12.5816 11.0679 12.7454C10.9106 12.9092 10.7196 12.9911 10.4949 12.9911ZM8.40519 14.9095C8.18548 14.9095 7.99687 14.8286 7.83935 14.6667C7.68184 14.5049 7.60308 14.3084 7.60308 14.0772C7.60308 13.8511 7.68184 13.6562 7.83935 13.4924C7.99687 13.3286 8.18699 13.2467 8.40971 13.2467C8.63243 13.2467 8.8222 13.3288 8.97902 13.4931C9.13582 13.6573 9.21422 13.8523 9.21422 14.0781C9.21422 14.3083 9.13557 14.5044 8.97826 14.6664C8.82095 14.8285 8.62992 14.9095 8.40519 14.9095ZM12.6029 11.0675C12.3779 11.0675 12.1873 10.9878 12.0311 10.8283C11.8749 10.6688 11.7968 10.4723 11.7968 10.2387C11.7968 10.0103 11.8755 9.8151 12.033 9.65305C12.1906 9.49099 12.3818 9.40997 12.6069 9.40997C12.8319 9.40997 13.0225 9.49099 13.1787 9.65305C13.3349 9.8151 13.413 10.0119 13.413 10.2434C13.413 10.4749 13.3343 10.6701 13.1767 10.8291C13.0192 10.988 12.828 11.0675 12.6029 11.0675ZM12.5588 14.9095C12.334 14.9095 12.1433 14.8289 11.9866 14.6675C11.8299 14.5062 11.7515 14.311 11.7515 14.0818C11.7515 13.8527 11.8303 13.6562 11.9878 13.4924C12.1453 13.3286 12.3366 13.2467 12.5616 13.2467C12.7867 13.2467 12.9773 13.3288 13.1335 13.4931C13.2897 13.6573 13.3678 13.8523 13.3678 14.0781C13.3678 14.3083 13.2891 14.5044 13.1318 14.6664C12.9745 14.8285 12.7835 14.9095 12.5588 14.9095ZM14.7176 12.9911C14.4949 12.9911 14.3055 12.9089 14.1493 12.7445C13.993 12.5801 13.9149 12.3848 13.9149 12.1588C13.9149 11.9328 13.9936 11.7379 14.1509 11.574C14.3082 11.4102 14.4993 11.3283 14.724 11.3283C14.9437 11.3283 15.1332 11.4105 15.2924 11.575C15.4516 11.7394 15.5312 11.9346 15.5312 12.1607C15.5312 12.3867 15.4513 12.5816 15.2915 12.7454C15.1317 12.9092 14.9404 12.9911 14.7176 12.9911ZM6.24975 12.9911C6.02472 12.9911 5.83496 12.9089 5.68045 12.7445C5.52595 12.5801 5.44869 12.3833 5.44869 12.1542C5.44869 11.925 5.5263 11.7301 5.68152 11.5694C5.83673 11.4087 6.02685 11.3283 6.25188 11.3283C6.4769 11.3283 6.66782 11.4105 6.82463 11.575C6.98144 11.7394 7.05985 11.9346 7.05985 12.1607C7.05985 12.3867 6.98109 12.5816 6.82357 12.7454C6.66606 12.9092 6.47478 12.9911 6.24975 12.9911Z" fill="#FAFAFA"/>
</svg>
