<svg width="24" height="24" viewBox="0 0 24 24" fill="none" xmlns="http://www.w3.org/2000/svg">
<path fill-rule="evenodd" clip-rule="evenodd" d="M2 6.75C2 5.23122 3.23122 4 4.75 4H14.25C15.7688 4 17 5.23122 17 6.75V7.48155L19.4066 6.15789C20.5729 5.51643 22 6.36022 22 7.69127V16.3087C22 17.6398 20.5729 18.4836 19.4066 17.8421L17 16.5185V17.25C17 18.7688 15.7688 20 14.25 20H4.75C3.23122 20 2 18.7688 2 17.25V6.75ZM4.75 5.5C4.05964 5.5 3.5 6.05964 3.5 6.75V17.25C3.5 17.9404 4.05964 18.5 4.75 18.5H14.25C14.9404 18.5 15.5 17.9404 15.5 17.25V13.9815L20.1295 16.5278C20.2961 16.6194 20.5 16.4989 20.5 16.3087V7.69127C20.5 7.50112 20.2961 7.38058 20.1295 7.47222L15.5 10.0185V6.75C15.5 6.05964 14.9404 5.5 14.25 5.5H4.75ZM9.5 10C8.39543 10 7.5 10.8954 7.5 12C7.5 13.1046 8.39543 14 9.5 14C10.6046 14 11.5 13.1046 11.5 12C11.5 10.8954 10.6046 10 9.5 10ZM6 12C6 10.067 7.567 8.5 9.5 8.5C11.433 8.5 13 10.067 13 12C13 13.933 11.433 15.5 9.5 15.5C7.567 15.5 6 13.933 6 12Z" fill="#FAFAFA"/>
</svg>
