<svg width="24" height="24" viewBox="0 0 24 24" fill="none" xmlns="http://www.w3.org/2000/svg">
<path fill-rule="evenodd" clip-rule="evenodd" d="M8.39941 2.25C9.23466 2.2501 10.0353 2.58227 10.626 3.17285C11.0365 3.58338 11.3219 4.09568 11.458 4.65039H12.5996C13.0136 4.6506 13.3496 4.98631 13.3496 5.40039C13.3493 5.81425 13.0135 6.15018 12.5996 6.15039H11.458C11.3219 6.70474 11.0364 7.21655 10.626 7.62695C10.3308 7.92215 9.9827 8.15173 9.60449 8.30859C10.2146 8.42814 10.7806 8.72687 11.2266 9.17285C11.8173 9.76359 12.1494 10.565 12.1494 11.4004V15C12.1494 15.5172 11.9438 16.0132 11.5781 16.3789C11.3963 16.5608 11.1821 16.7028 10.9492 16.7998V19.2002C10.9492 19.8764 10.6803 20.5248 10.2021 21.0029C9.72394 21.4811 9.07567 21.75 8.39941 21.75C7.72316 21.75 7.07489 21.4811 6.59668 21.0029C6.11851 20.5248 5.84966 19.8764 5.84961 19.2002V16.7998C5.61672 16.7028 5.40258 16.5608 5.2207 16.3789C4.85501 16.0132 4.64941 15.5172 4.64941 15V11.4004C4.64941 10.565 4.98153 9.76359 5.57227 9.17285C6.01801 8.7271 6.58362 8.42827 7.19336 8.30859C6.8151 8.15173 6.46701 7.92209 6.17188 7.62695C5.76151 7.21656 5.47597 6.70474 5.33984 6.15039H4.19922C3.78517 6.15039 3.44948 5.81438 3.44922 5.40039C3.44922 4.98618 3.78501 4.65039 4.19922 4.65039H5.33984C5.47591 4.09568 5.76135 3.58338 6.17188 3.17285C6.76261 2.58211 7.56398 2.25 8.39941 2.25ZM7.7998 9.75C7.3622 9.75 6.94225 9.92396 6.63281 10.2334C6.32338 10.5428 6.14941 10.9628 6.14941 11.4004V15C6.14941 15.1193 6.19686 15.234 6.28125 15.3184C6.36563 15.4027 6.48031 15.4502 6.59961 15.4502C7.01373 15.4503 7.34961 15.786 7.34961 16.2002V19.2002C7.34966 19.4786 7.46036 19.7455 7.65723 19.9424C7.85413 20.1392 8.12098 20.25 8.39941 20.25C8.67785 20.25 8.9447 20.1392 9.1416 19.9424C9.33847 19.7455 9.44917 19.4786 9.44922 19.2002V16.2002C9.44922 15.786 9.7851 15.4503 10.1992 15.4502C10.3185 15.4502 10.4332 15.4027 10.5176 15.3184C10.602 15.234 10.6494 15.1193 10.6494 15V11.4004C10.6494 10.9628 10.4755 10.5428 10.166 10.2334C9.85658 9.92396 9.43663 9.75 8.99902 9.75H7.7998ZM6.93066 6.15039C7.00846 6.30249 7.10937 6.44333 7.23242 6.56641C7.54186 6.87584 7.96181 7.0498 8.39941 7.0498C8.83688 7.0497 9.25609 6.87575 9.56543 6.56641C9.68851 6.44333 9.7894 6.30248 9.86719 6.15039H6.93066ZM8.39941 3.75C7.96181 3.75 7.54186 3.92396 7.23242 4.2334C7.10918 4.35664 7.00849 4.49796 6.93066 4.65039H9.86719C9.78936 4.49796 9.68867 4.35664 9.56543 4.2334C9.2561 3.92412 8.83683 3.7501 8.39941 3.75Z" fill="#FAFAFA"/>
<path d="M19.7988 2.25C20.213 2.25 20.5488 2.58579 20.5488 3V5.40039C20.5487 6.23568 20.2166 7.03631 19.626 7.62695C19.2156 8.0373 18.7037 8.32188 18.1494 8.45801V21C18.1494 21.4142 17.8136 21.75 17.3994 21.75C16.9852 21.75 16.6494 21.4142 16.6494 21V8.45801C16.0948 8.32192 15.5823 8.03743 15.1719 7.62695C14.5813 7.03631 14.2491 6.23564 14.249 5.40039V3C14.249 2.58579 14.5848 2.25 14.999 2.25C15.4132 2.25 15.749 2.58579 15.749 3V5.40039C15.7491 5.83781 15.9231 6.25707 16.2324 6.56641C16.3557 6.68965 16.497 6.79033 16.6494 6.86816V3C16.6494 2.58579 16.9852 2.25 17.3994 2.25C17.8136 2.25 18.1494 2.58579 18.1494 3V6.86719C18.3013 6.78942 18.4425 6.68937 18.5654 6.56641C18.8748 6.25706 19.0487 5.83786 19.0488 5.40039V3C19.0488 2.58585 19.3847 2.25011 19.7988 2.25Z" fill="#FAFAFA"/>
</svg>
