<svg width="24" height="24" viewBox="0 0 24 24" fill="none" xmlns="http://www.w3.org/2000/svg">
<path fill-rule="evenodd" clip-rule="evenodd" d="M7.75 2C8.16421 2 8.5 2.33579 8.5 2.75V4H15.5V2.75C15.5 2.33579 15.8358 2 16.25 2C16.6642 2 17 2.33579 17 2.75V4H18.25C19.7688 4 21 5.23122 21 6.75V12.25C21 12.6642 20.6642 13 20.25 13C19.8358 13 19.5 12.6642 19.5 12.25V10H4.5V18.25C4.5 18.9404 5.05964 19.5 5.75 19.5H11.25C11.6642 19.5 12 19.8358 12 20.25C12 20.6642 11.6642 21 11.25 21H5.75C4.23122 21 3 19.7688 3 18.25V6.75C3 5.23122 4.23122 4 5.75 4H7V2.75C7 2.33579 7.33579 2 7.75 2ZM4.5 8.5H19.5V6.75C19.5 6.05964 18.9404 5.5 18.25 5.5H5.75C5.05964 5.5 4.5 6.05964 4.5 6.75V8.5ZM21.7142 15.1609C22.0395 15.4172 22.0955 15.8888 21.8391 16.2142L17.5058 21.7142C17.3725 21.8833 17.173 21.987 16.9581 21.9989C16.7431 22.0107 16.5334 21.9297 16.3823 21.7763L14.2156 19.5763C13.925 19.2811 13.9286 18.8063 14.2237 18.5156C14.5189 18.225 14.9937 18.2286 15.2844 18.5237L16.8541 20.1176L20.6609 15.2858C20.9172 14.9605 21.3888 14.9045 21.7142 15.1609Z" fill="#FAFAFA"/>
</svg>
