<svg width="24" height="24" viewBox="0 0 24 24" fill="none" xmlns="http://www.w3.org/2000/svg">
<path fill-rule="evenodd" clip-rule="evenodd" d="M6.91877 2.97656H17.0812C17.6147 2.97655 18.0614 2.97654 18.4266 3.00638C18.8079 3.03754 19.168 3.10504 19.5091 3.27885C20.031 3.54475 20.4553 3.96903 20.7212 4.49089C20.895 4.832 20.9625 5.19209 20.9936 5.57342C21.0235 5.93863 21.0234 6.38532 21.0234 6.9188V17.0812C21.0234 17.6147 21.0235 18.0614 20.9936 18.4266C20.9625 18.8079 20.895 19.168 20.7212 19.5091C20.4553 20.031 20.031 20.4552 19.5091 20.7211C19.168 20.895 18.8079 20.9625 18.4266 20.9936C18.0614 21.0235 17.6147 21.0234 17.0812 21.0234H6.9188C6.38532 21.0234 5.93863 21.0235 5.57342 20.9936C5.19209 20.9625 4.832 20.895 4.49089 20.7211C3.96903 20.4552 3.54475 20.031 3.27885 19.5091C3.10504 19.168 3.03754 18.8079 3.00638 18.4266C2.97654 18.0614 2.97655 17.6147 2.97656 17.0812V6.91877C2.97655 6.3853 2.97654 5.93862 3.00638 5.57342C3.03754 5.19209 3.10504 4.832 3.27885 4.49089C3.54475 3.96903 3.96903 3.54475 4.49089 3.27885C4.832 3.10504 5.19209 3.03754 5.57342 3.00638C5.93862 2.97654 6.3853 2.97655 6.91877 2.97656ZM4.52344 10.0205V13.9795H19.4766V10.0205H4.52344ZM19.4766 8.47363H4.52344V6.95C4.52344 6.37719 4.52404 5.99409 4.54812 5.69939C4.57146 5.41371 4.61295 5.27986 4.65713 5.19315C4.77472 4.96236 4.96236 4.77472 5.19315 4.65713C5.27986 4.61295 5.41371 4.57146 5.69939 4.54812C5.99409 4.52404 6.37719 4.52344 6.95 4.52344H17.05C17.6228 4.52344 18.0059 4.52404 18.3006 4.54812C18.5863 4.57146 18.7201 4.61295 18.8068 4.65713C19.0376 4.77472 19.2253 4.96236 19.3429 5.19315C19.3871 5.27986 19.4285 5.41371 19.4519 5.69939C19.476 5.99409 19.4766 6.37719 19.4766 6.95V8.47363ZM19.4766 15.5264H4.52344V17.05C4.52344 17.6228 4.52404 18.0059 4.54812 18.3006C4.57146 18.5863 4.61295 18.7201 4.65713 18.8068C4.77472 19.0376 4.96236 19.2253 5.19315 19.3429C5.27986 19.3871 5.41371 19.4285 5.69939 19.4519C5.99409 19.476 6.37719 19.4766 6.95 19.4766H17.05C17.6228 19.4766 18.0059 19.476 18.3006 19.4519C18.5863 19.4285 18.7201 19.3871 18.8069 19.3429C19.0376 19.2253 19.2253 19.0376 19.3429 18.8068C19.3871 18.7201 19.4285 18.5863 19.4519 18.3006C19.476 18.0059 19.4766 17.6228 19.4766 17.05V15.5264Z" fill="#FAFAFA"/>
</svg>
