<svg width="24" height="24" viewBox="0 0 24 24" fill="none" xmlns="http://www.w3.org/2000/svg">
<path d="M7.46879 10.4697C7.76168 10.1768 8.23644 10.1769 8.52934 10.4697L10.0293 11.9697C10.3222 12.2626 10.3222 12.7374 10.0293 13.0303C9.73644 13.3231 9.26168 13.3232 8.96879 13.0303L8.74907 12.8105V13C8.74907 13.6903 9.30873 14.25 9.99907 14.25H13.4991C13.9133 14.25 14.2491 14.5858 14.2491 15C14.2491 15.4142 13.9133 15.75 13.4991 15.75H9.99907C8.4803 15.75 7.24907 14.5188 7.24907 13V12.8105L7.02934 13.0303C6.73644 13.3231 6.26168 13.3232 5.96879 13.0303C5.67593 12.7374 5.67593 12.2626 5.96879 11.9697L7.46879 10.4697Z" fill="#FAFAFA"/>
<path d="M13.9991 8.25C15.5178 8.25 16.7491 9.48122 16.7491 11V11.6895L16.9688 11.4697C17.2617 11.1768 17.7364 11.1769 18.0293 11.4697C18.3222 11.7626 18.3222 12.2374 18.0293 12.5303L16.5293 14.0303C16.2364 14.3231 15.7617 14.3232 15.4688 14.0303L13.9688 12.5303C13.6759 12.2374 13.6759 11.7626 13.9688 11.4697C14.2617 11.1768 14.7364 11.1769 15.0293 11.4697L15.2491 11.6895V11C15.2491 10.3096 14.6894 9.75 13.9991 9.75H10.4991C10.0849 9.74998 9.74907 9.4142 9.74907 9C9.74907 8.5858 10.0849 8.25002 10.4991 8.25H13.9991Z" fill="#FAFAFA"/>
<path fill-rule="evenodd" clip-rule="evenodd" d="M20.2032 5.01074C21.2118 5.113 21.9991 5.96435 21.9991 7V7.70215C22.5397 7.71065 22.9774 8.14868 22.9825 8.69238L23.0157 15.2705C23.0206 15.8227 22.5766 16.2743 22.0245 16.2793C22.016 16.2794 22.0075 16.2785 21.9991 16.2783V17C21.9989 18.0355 21.2118 18.887 20.2032 18.9893L19.9991 19H3.99907C2.96355 18.9999 2.11218 18.2126 2.00981 17.2041L1.99907 17V16.2783C1.45868 16.2697 1.02091 15.8325 1.01567 15.2891L0.982464 8.71094C0.977437 8.15873 1.42149 7.70727 1.97368 7.70215C1.98211 7.70207 1.99068 7.70202 1.99907 7.70215V7C1.99907 5.89547 2.89455 5.00007 3.99907 5H19.9991L20.2032 5.01074ZM3.99907 6.5C3.72298 6.50007 3.49907 6.7239 3.49907 7V17C3.4992 17.276 3.72306 17.4999 3.99907 17.5H19.9991C20.2751 17.5 20.4989 17.276 20.4991 17V7C20.4991 6.72386 20.2752 6.5 19.9991 6.5H3.99907Z" fill="#FAFAFA"/>
</svg>
