<svg width="24" height="24" viewBox="0 0 24 24" fill="none" xmlns="http://www.w3.org/2000/svg">
<path d="M12 6.25C13.525 6.25 14.9871 6.85624 16.0654 7.93457C16.9654 8.83452 17.5349 10.002 17.6992 11.25H21C21.4142 11.25 21.75 11.5858 21.75 12C21.75 12.4142 21.4142 12.75 21 12.75H17.7002C17.5359 13.9981 16.9654 15.1655 16.0654 16.0654C14.9871 17.1438 13.525 17.75 12 17.75C10.475 17.75 9.0129 17.1438 7.93457 16.0654C7.64168 15.7725 7.64168 15.2978 7.93457 15.0049C8.22749 14.7124 8.70235 14.7121 8.99512 15.0049C9.79215 15.8019 10.8728 16.25 12 16.25C13.1272 16.25 14.2079 15.8019 15.0049 15.0049C15.7521 14.2577 16.193 13.2613 16.2451 12.2109L16.25 12C16.25 10.8728 15.8019 9.79215 15.0049 8.99512C14.2079 8.19809 13.1272 7.75 12 7.75L11.7891 7.75488C10.7387 7.80703 9.74229 8.24794 8.99512 8.99512C8.70235 9.28788 8.22749 9.28763 7.93457 8.99512C7.64168 8.70222 7.64168 8.22746 7.93457 7.93457C8.9455 6.92364 10.2937 6.32734 11.7148 6.25684L12 6.25Z" fill="#FAFAFA"/>
<path d="M11.4697 9.46973C11.7626 9.17683 12.2374 9.17683 12.5303 9.46973L14.5303 11.4697C14.6709 11.6104 14.75 11.8011 14.75 12C14.75 12.1989 14.6709 12.3896 14.5303 12.5303L12.5303 14.5303C12.2374 14.8232 11.7626 14.8232 11.4697 14.5303C11.1768 14.2374 11.1768 13.7626 11.4697 13.4697L12.1895 12.75H3C2.58579 12.75 2.25 12.4142 2.25 12C2.25 11.5858 2.58579 11.25 3 11.25H12.1895L11.4697 10.5303C11.1768 10.2374 11.1768 9.76262 11.4697 9.46973Z" fill="#FAFAFA"/>
</svg>
