<svg width="24" height="24" viewBox="0 0 24 24" fill="none" xmlns="http://www.w3.org/2000/svg">
<path d="M16.0605 3.75L4.5 15.3115V19.5H8.68945L20.25 7.93652L16.0605 3.75ZM21.75 7.93652C21.75 8.33414 21.5926 8.7158 21.3115 8.99707L9.53027 20.7803C9.38962 20.921 9.19894 21 9 21H4.5C4.10218 21 3.72076 20.8419 3.43945 20.5605C3.15819 20.2792 3 19.8978 3 19.5V15.3105L3.00781 15.1621C3.04196 14.8193 3.19295 14.4969 3.43848 14.251L15 2.68945L15.1104 2.58984C15.3772 2.37122 15.7126 2.25005 16.0605 2.25L16.209 2.25781C16.5522 2.29189 16.875 2.44351 17.1211 2.68945L21.3105 6.87598L21.4111 6.98633C21.6295 7.25315 21.75 7.5887 21.75 7.93652Z" fill="#FAFAFA"/>
<path d="M20.25 19.5C20.6642 19.5 21 19.8358 21 20.25C21 20.6642 20.6642 21 20.25 21H9C8.58579 21 8.25 20.6642 8.25 20.25C8.25 19.8358 8.58579 19.5 9 19.5H20.25Z" fill="#FAFAFA"/>
<path d="M12.2197 5.46973C12.4943 5.19512 12.9291 5.17766 13.2236 5.41797L13.2803 5.46973L18.5303 10.7197L18.582 10.7764C18.8223 11.0709 18.8049 11.5057 18.5303 11.7803C18.2557 12.0549 17.8209 12.0723 17.5264 11.832L17.4697 11.7803L12.2197 6.53027L12.168 6.47363C11.9277 6.17905 11.9451 5.74433 12.2197 5.46973Z" fill="#FAFAFA"/>
</svg>
