<svg width="24" height="24" viewBox="0 0 24 24" fill="none" xmlns="http://www.w3.org/2000/svg">
<path fill-rule="evenodd" clip-rule="evenodd" d="M13.3623 5.84668C14.6294 5.83448 15.8816 6.12303 17.0156 6.68848C17.217 6.78887 17.3623 6.97493 17.4121 7.19434C17.4618 7.41367 17.4107 7.64391 17.2725 7.82129C17.0612 8.09236 16.8795 8.53923 16.6758 9.18359C16.4878 9.77809 16.2798 10.5471 16.0137 11.2432C15.4719 12.6599 14.5351 14.2011 12.4287 14.3936L12.4297 14.3945C11.2687 14.502 10.4019 13.8417 9.88965 13.293C9.78873 13.1849 9.69845 13.0752 9.61621 12.9707C9.43864 13.2908 9.263 13.653 9.09375 14.0625C8.93551 14.4452 8.49704 14.6269 8.11426 14.4688C7.73158 14.3105 7.54983 13.872 7.70801 13.4893C8.01027 12.7579 8.33768 12.1443 8.67383 11.6299C8.16093 10.8613 7.88321 10.057 7.94238 9.25977C8.02179 8.19198 8.6851 7.34148 9.70605 6.76953C9.71232 6.76602 9.71922 6.76309 9.72559 6.75977C10.8486 6.17244 12.0951 5.85895 13.3623 5.84668ZM13.376 7.34668C12.3495 7.35668 11.34 7.6097 10.4297 8.08398C9.73003 8.47878 9.47091 8.93493 9.43848 9.37109C9.41799 9.64794 9.4856 9.98576 9.67871 10.3779C9.92085 10.1355 10.1584 9.93432 10.3857 9.76855C10.8108 9.45863 11.1907 9.27744 11.4775 9.17188C11.6206 9.11922 11.7401 9.08556 11.8301 9.06445C11.875 9.05392 11.9129 9.04621 11.9424 9.04102C11.9569 9.03845 11.97 9.03672 11.9805 9.03516C11.9855 9.03441 11.9901 9.03376 11.9941 9.0332C11.9961 9.03293 12 9.03223 12 9.03223H12.0029L12.0039 9.03125C12.0039 9.03125 12.0056 9.03157 12.0918 9.73438L12.0059 9.03125C12.4168 8.98108 12.7903 9.27366 12.8408 9.68457C12.891 10.0936 12.6022 10.4661 12.1943 10.5195H12.1963C12.1983 10.5193 12.2012 10.5186 12.2012 10.5186C12.198 10.5191 12.189 10.5206 12.1729 10.5244C12.1391 10.5323 12.0778 10.5487 11.9951 10.5791C11.8302 10.6398 11.5753 10.7585 11.2695 10.9814C11.0483 11.1428 10.7953 11.3625 10.5283 11.6621C10.5374 11.677 10.5464 11.6929 10.5566 11.709C10.6564 11.8667 10.8022 12.0723 10.9863 12.2695C11.372 12.6825 11.8134 12.9457 12.292 12.9014C13.5133 12.7896 14.1301 11.9682 14.6123 10.707C14.8581 10.0641 15.0301 9.41466 15.2461 8.73145C15.3513 8.39882 15.4694 8.05038 15.6152 7.7207C14.8985 7.46672 14.1404 7.33928 13.376 7.34668Z" fill="#FAFAFA"/>
<path fill-rule="evenodd" clip-rule="evenodd" d="M19.2012 2.25C19.6152 2.25021 19.9512 2.58592 19.9512 3V17.4004C19.951 17.8143 19.6151 18.1502 19.2012 18.1504H18.751V20.25H19.2012C19.6152 20.2502 19.9512 20.5859 19.9512 21C19.9512 21.4141 19.6152 21.7498 19.2012 21.75H6.60059C5.92436 21.7499 5.27602 21.4811 4.79785 21.0029C4.37944 20.5845 4.12146 20.0359 4.06348 19.4521L4.05078 19.2002V5.40039C4.05078 4.56496 4.38289 3.76359 4.97363 3.17285C5.56437 2.58211 6.36574 2.25 7.20117 2.25H19.2012ZM6.60059 18.1504C6.32218 18.1504 6.05527 18.2611 5.8584 18.458C5.6861 18.6304 5.57943 18.8562 5.55566 19.0967L5.55078 19.2002L5.55566 19.3037C5.57951 19.5441 5.68608 19.7701 5.8584 19.9424C6.05526 20.1392 6.32218 20.2499 6.60059 20.25H17.251V18.1504H6.60059ZM7.20117 3.75C6.76356 3.75 6.34361 3.92396 6.03418 4.2334C5.72474 4.54283 5.55078 4.96278 5.55078 5.40039V16.8789C5.87787 16.7309 6.23467 16.6504 6.60059 16.6504H18.4512V3.75H7.20117Z" fill="#FAFAFA"/>
</svg>
