<svg width="24" height="24" viewBox="0 0 24 24" fill="none" xmlns="http://www.w3.org/2000/svg">
<path fill-rule="evenodd" clip-rule="evenodd" d="M12 5.5C9.70131 5.5 7.74584 6.97778 7.03548 9.03735C6.94249 9.30696 6.70463 9.5005 6.42174 9.53673C4.20987 9.81999 2.5 11.7109 2.5 14C2.5 16.4853 4.51472 18.5 7 18.5H18.125C19.989 18.5 21.5 16.989 21.5 15.125C21.5 13.261 19.989 11.75 18.125 11.75C18.0892 11.75 18.0536 11.7506 18.018 11.7517C17.8098 11.7581 17.6083 11.6777 17.4617 11.5296C17.3152 11.3815 17.2368 11.1792 17.2454 10.971C17.2485 10.8978 17.25 10.8241 17.25 10.75C17.25 7.85051 14.8995 5.5 12 5.5ZM5.77996 8.12427C6.80396 5.70153 9.20241 4 12 4C15.5725 4 18.4969 6.77542 18.7344 10.2877C21.1392 10.5876 23 12.639 23 15.125C23 17.8174 20.8174 20 18.125 20H7C3.68629 20 1 17.3137 1 14C1 11.1041 3.05102 8.68825 5.77996 8.12427Z" fill="#FAFAFA"/>
<path d="M14.3831 10.3069L12.6566 11.7509C12.3962 11.9686 12 11.7835 12 11.444V10.7501C10.8954 10.7501 10 11.6455 10 12.7501C10 13.8547 10.8954 14.7501 12 14.7501C12.9808 14.7501 13.7982 14.0433 13.9676 13.111C14.0417 12.7035 14.4322 12.4332 14.8397 12.5073C15.2472 12.5814 15.5175 12.9718 15.4435 13.3794C15.1466 15.0121 13.7187 16.2501 12 16.2501C10.067 16.2501 8.5 14.6831 8.5 12.7501C8.5 10.8171 10.067 9.25008 12 9.25008V8.55604C12 8.21657 12.3962 8.03142 12.6566 8.24921L14.3831 9.6932C14.5743 9.85309 14.5743 10.147 14.3831 10.3069Z" fill="#FAFAFA"/>
</svg>
