<svg width="24" height="24" viewBox="0 0 24 24" fill="none" xmlns="http://www.w3.org/2000/svg">
<path fill-rule="evenodd" clip-rule="evenodd" d="M13.6162 2.71875C14.0302 2.71901 14.3662 3.05568 14.3662 3.46973C14.3659 3.88355 14.03 4.21946 13.6162 4.21973H11.4795V6.57031H15.7051C16.8415 6.57031 17.7627 7.49153 17.7627 8.62793V10.1855H20.5C20.9142 10.1855 21.2499 10.5214 21.25 10.9355V13.2949C21.2496 13.7088 20.914 14.0449 20.5 14.0449H17.7627V15.6025C17.7623 16.7387 16.8413 17.6602 15.7051 17.6602H13.668V19.6621C13.668 19.702 13.6642 19.7411 13.6582 19.7793H19.5C19.9142 19.7793 20.25 20.1151 20.25 20.5293C20.2497 20.9433 19.9141 21.2793 19.5 21.2793H3.5C3.08595 21.2793 2.75026 20.9433 2.75 20.5293C2.75 20.1151 3.08579 19.7793 3.5 19.7793H8.10059C8.09459 19.7411 8.0918 19.702 8.0918 19.6621V17.6602H6.9873C4.64734 17.6602 2.75026 15.7628 2.75 13.4229V10.8076C2.75 8.46749 4.64718 6.57031 6.9873 6.57031H9.97949V4.21973H7.8418C7.42775 4.21973 7.09206 3.88372 7.0918 3.46973C7.0918 3.05551 7.42758 2.71875 7.8418 2.71875H13.6162ZM9.5918 19.6621C9.5918 19.702 9.58803 19.7411 9.58203 19.7793H10.1436V17.6602H9.5918V19.6621ZM11.6436 19.7793H12.1777C12.1717 19.7411 12.168 19.702 12.168 19.6621V17.6602H11.6436V19.7793ZM6.9873 8.07031C5.4756 8.07031 4.25 9.29591 4.25 10.8076V13.4229C4.25026 14.9343 5.47576 16.1602 6.9873 16.1602H10.1436V12.1836C10.1436 11.7694 10.4793 11.4336 10.8936 11.4336H13.2314L13.1211 11.3252C12.8252 11.0356 12.825 10.5659 13.1211 10.2764C13.4172 9.98709 13.8973 9.98709 14.1934 10.2764L15.6064 11.6592C15.9024 11.9488 15.9025 12.4184 15.6064 12.708L14.1934 14.0898C13.8973 14.3794 13.4172 14.3794 13.1211 14.0898C12.8252 13.8002 12.8251 13.3306 13.1211 13.041L13.2314 12.9336H11.6436V16.1602H15.7051C16.0129 16.1602 16.2623 15.9102 16.2627 15.6025V13.2949C16.2627 12.8807 16.5985 12.545 17.0127 12.5449H19.75V11.6855H17.0127C16.5987 11.6855 16.263 11.3495 16.2627 10.9355V8.62793C16.2627 8.31996 16.0131 8.07031 15.7051 8.07031H6.9873Z" fill="#FAFAFA"/>
</svg>
