<svg width="24" height="24" viewBox="0 0 24 24" fill="none" xmlns="http://www.w3.org/2000/svg">
<path fill-rule="evenodd" clip-rule="evenodd" d="M6.25 4.41667C6.25 3.08198 7.33198 2 8.66667 2C10.043 2 11.2603 2.68092 12 3.72427C12.7397 2.68093 13.957 2 15.3333 2C16.668 2 17.75 3.08198 17.75 4.41667C17.75 5.39677 17.4047 6.29622 16.8291 7H18.25C19.7688 7 21 8.23122 21 9.75V10C21 10.8547 20.6098 11.6176 20 12.1213V18.25C20 19.7688 18.7688 21 17.25 21H6.75C5.23122 21 4 19.7688 4 18.25V12.1213C3.39017 11.6176 3 10.8547 3 10V9.75C3 8.23122 4.23122 7 5.75 7H7.1709C6.59531 6.29622 6.25 5.39677 6.25 4.41667ZM10.3333 7H11.25V6.08333C11.25 4.6566 10.0934 3.5 8.66667 3.5C8.16041 3.5 7.75 3.91041 7.75 4.41667C7.75 5.8434 8.9066 7 10.3333 7ZM12.75 6.08333V7H13.6667C15.0934 7 16.25 5.8434 16.25 4.41667C16.25 3.91041 15.8396 3.5 15.3333 3.5C13.9066 3.5 12.75 4.6566 12.75 6.08333ZM11.25 8.5H5.75C5.05964 8.5 4.5 9.05964 4.5 9.75V10C4.5 10.4617 4.74996 10.866 5.12554 11.0832C5.30864 11.1891 5.52108 11.25 5.75 11.25H11.25V8.5ZM12.75 11.25V8.5H18.25C18.9404 8.5 19.5 9.05964 19.5 9.75V10C19.5 10.4617 19.25 10.866 18.8745 11.0832C18.6914 11.1891 18.4789 11.25 18.25 11.25H12.75ZM11.25 12.75H5.75C5.66578 12.75 5.58239 12.7462 5.5 12.7387V18.25C5.5 18.9404 6.05964 19.5 6.75 19.5H11.25V12.75ZM12.75 19.5V12.75H18.25C18.3342 12.75 18.4176 12.7462 18.5 12.7387V18.25C18.5 18.9404 17.9404 19.5 17.25 19.5H12.75Z" fill="#FAFAFA"/>
</svg>
