<svg width="24" height="24" viewBox="0 0 24 24" fill="none" xmlns="http://www.w3.org/2000/svg">
<path fill-rule="evenodd" clip-rule="evenodd" d="M6 2.75C6.41421 2.75 6.75 3.08579 6.75 3.5V10.5322C7.21228 9.82372 7.77373 9.16585 8.42676 8.57812C10.2924 6.89908 12.759 5.91145 15.3516 5.76953C15.4771 5.3148 15.7162 4.89512 16.0557 4.55566C16.5714 4.03994 17.2707 3.75 18 3.75C18.7293 3.75 19.4286 4.03994 19.9443 4.55566C20.4601 5.07139 20.75 5.77065 20.75 6.5C20.75 7.22935 20.4601 7.92861 19.9443 8.44434C19.4286 8.96006 18.7293 9.25 18 9.25C17.2707 9.25 16.5714 8.96006 16.0557 8.44434C15.7263 8.11499 15.4898 7.71057 15.3613 7.27148C13.1197 7.40986 11.0114 8.27074 9.43066 9.69336C7.74144 11.2137 6.79416 13.2466 6.75293 15.3564C7.19913 15.4836 7.61038 15.7217 7.94434 16.0557C8.46006 16.5714 8.75 17.2707 8.75 18C8.75 18.7293 8.46006 19.4286 7.94434 19.9443C7.42861 20.4601 6.72935 20.75 6 20.75C5.27065 20.75 4.57139 20.4601 4.05566 19.9443C3.53994 19.4286 3.25 18.7293 3.25 18C3.25 17.2707 3.53994 16.5714 4.05566 16.0557C4.39029 15.721 4.80275 15.4834 5.25 15.3564V3.5C5.25 3.08579 5.58579 2.75 6 2.75ZM6 16.75C5.66848 16.75 5.35063 16.8818 5.11621 17.1162C4.88179 17.3506 4.75 17.6685 4.75 18C4.75 18.3315 4.88179 18.6494 5.11621 18.8838C5.35063 19.1182 5.66848 19.25 6 19.25C6.33152 19.25 6.64937 19.1182 6.88379 18.8838C7.11821 18.6494 7.25 18.3315 7.25 18C7.25 17.6685 7.11821 17.3506 6.88379 17.1162C6.64937 16.8818 6.33152 16.75 6 16.75ZM18 5.25C17.6685 5.25 17.3506 5.38179 17.1162 5.61621C16.8818 5.85063 16.75 6.16848 16.75 6.5C16.75 6.83152 16.8818 7.14937 17.1162 7.38379C17.3506 7.61821 17.6685 7.75 18 7.75C18.3315 7.75 18.6494 7.61821 18.8838 7.38379C19.1182 7.14937 19.25 6.83152 19.25 6.5C19.25 6.16848 19.1182 5.85063 18.8838 5.61621C18.6494 5.38179 18.3315 5.25 18 5.25Z" fill="#FAFAFA"/>
<path d="M16.125 12.75C16.5392 12.75 16.875 13.0858 16.875 13.5V15.75H18.9375C19.3517 15.75 19.6875 16.0858 19.6875 16.5C19.6875 16.9142 19.3517 17.25 18.9375 17.25H16.875V19.125C16.875 19.5392 16.5392 19.875 16.125 19.875C15.7108 19.875 15.375 19.5392 15.375 19.125V17.25H13.3125C12.8983 17.25 12.5625 16.9142 12.5625 16.5C12.5625 16.0858 12.8983 15.75 13.3125 15.75H15.375V13.5C15.375 13.0858 15.7108 12.75 16.125 12.75Z" fill="#FAFAFA"/>
</svg>
