<svg width="24" height="24" viewBox="0 0 24 24" fill="none" xmlns="http://www.w3.org/2000/svg">
<path d="M16.4638 3.00586C16.5684 3.01217 16.6492 3.02559 16.7255 3.05078C16.8607 3.09544 16.9851 3.16817 17.0898 3.26465C17.2081 3.3737 17.2915 3.52373 17.4579 3.82324L21.5693 11.2227C21.7268 11.5063 21.805 11.6487 21.8359 11.7988C21.8631 11.9316 21.8631 12.0684 21.8359 12.2012C21.805 12.3513 21.7268 12.4937 21.5693 12.7773L17.4579 20.1768L17.2558 20.5273C17.1993 20.616 17.149 20.6808 17.0898 20.7354L17.0078 20.8037C16.9224 20.867 16.8268 20.9158 16.7255 20.9492C16.6492 20.9744 16.5684 20.9878 16.4638 20.9941L16.0595 21H7.94232L7.53705 20.9941C7.4847 20.991 7.43833 20.9856 7.39545 20.9785L7.27533 20.9492C7.14015 20.9046 7.01576 20.8318 6.91107 20.7354C6.79279 20.6263 6.70926 20.4762 6.54291 20.1768L2.43256 12.7773C2.31422 12.5643 2.23975 12.4311 2.1972 12.3145L2.16498 12.2012C2.13772 12.0684 2.13772 11.9316 2.16498 11.7988C2.18043 11.7237 2.20763 11.6503 2.25092 11.5605L2.43256 11.2227L6.54291 3.82324C6.70926 3.5238 6.79279 3.37369 6.91107 3.26465C7.01576 3.16817 7.14015 3.09544 7.27533 3.05078C7.35164 3.02557 7.43245 3.01218 7.53705 3.00586L7.94232 3H16.0595L16.4638 3.00586ZM7.88275 4.5C7.8738 4.51608 7.86451 4.53361 7.85443 4.55176L3.7431 11.9512C3.73349 11.9685 3.72426 11.9847 3.71576 12C3.72426 12.0153 3.73349 12.0315 3.7431 12.0488L7.85443 19.4482C7.86436 19.4661 7.87393 19.4832 7.88275 19.499C7.90131 19.499 7.92135 19.5 7.94232 19.5H16.0595C16.0799 19.5 16.099 19.499 16.1171 19.499C16.126 19.483 16.1364 19.4663 16.1464 19.4482L20.2578 12.0488C20.2673 12.0317 20.2757 12.0152 20.2841 12C20.2757 11.9848 20.2673 11.9683 20.2578 11.9512L16.1464 4.55176C16.1362 4.53342 16.1262 4.51623 16.1171 4.5H7.88275Z" fill="#FAFAFA"/>
</svg>
