<svg width="24" height="24" viewBox="0 0 24 24" fill="none" xmlns="http://www.w3.org/2000/svg">
<path fill-rule="evenodd" clip-rule="evenodd" d="M15.9072 12.9974C16.4729 12.8143 17.0799 12.7979 17.6543 12.9515C17.8463 13.003 18.01 13.1288 18.1094 13.3008C18.2088 13.4728 18.236 13.6776 18.1846 13.8694L17.9482 14.7493C18.0603 14.7491 18.173 14.7538 18.2852 14.7659C18.8764 14.8295 19.4369 15.0625 19.8984 15.437C20.3598 15.8116 20.7025 16.3118 20.8857 16.8768C21.069 17.4418 21.0855 18.0482 20.9316 18.6219C20.8801 18.8136 20.7541 18.9772 20.582 19.0765C20.4098 19.1758 20.2048 19.203 20.0127 19.1516L19.1309 18.9155C19.1311 19.0275 19.1273 19.14 19.1152 19.2521C19.0516 19.8426 18.8183 20.4026 18.4434 20.8635C18.0684 21.3244 17.5675 21.6666 17.002 21.8497C16.4363 22.0328 15.8293 22.0492 15.2549 21.8956C15.063 21.8441 14.8992 21.7182 14.7998 21.5463C14.7004 21.3743 14.6732 21.1695 14.7246 20.9777L14.96 20.0968C14.8482 20.097 14.7359 20.0932 14.624 20.0812C14.0328 20.0176 13.4722 19.7846 13.0107 19.4101C12.5494 19.0355 12.2067 18.5352 12.0234 17.9703C11.8402 17.4053 11.8237 16.7989 11.9775 16.2252L12.0303 16.0877C12.0954 15.9561 12.1981 15.8451 12.3271 15.7706C12.4994 15.6713 12.7044 15.6442 12.8965 15.6955L13.7773 15.9306C13.7771 15.819 13.7819 15.7068 13.7939 15.595C13.8576 15.0045 14.0909 14.4445 14.4658 13.9836C14.8408 13.5227 15.3417 13.1805 15.9072 12.9974ZM16.3691 14.4225C16.079 14.5165 15.8222 14.6923 15.6299 14.9288C15.4375 15.1653 15.3178 15.453 15.2852 15.756C15.2526 16.0589 15.3087 16.365 15.4463 16.6368C15.5794 16.9003 15.5447 17.2173 15.3584 17.4465C15.1719 17.6757 14.8677 17.7746 14.582 17.6981L13.416 17.386C13.4258 17.4272 13.4371 17.4684 13.4502 17.5089C13.5443 17.7987 13.7203 18.0552 13.957 18.2473C14.1938 18.4395 14.4818 18.559 14.7852 18.5917C15.0884 18.6242 15.3948 18.5681 15.667 18.4307C15.9308 18.2977 16.2481 18.3325 16.4775 18.5185C16.7071 18.7048 16.806 19.0086 16.7295 19.294L16.417 20.4577C16.4581 20.448 16.4996 20.4376 16.54 20.4246C16.8302 20.3306 17.0869 20.1547 17.2793 19.9183C17.4717 19.6818 17.5914 19.3941 17.624 19.0911C17.6566 18.7882 17.6004 18.4822 17.4629 18.2103C17.3298 17.9468 17.3646 17.6298 17.5508 17.4006C17.7373 17.1714 18.0415 17.0725 18.3271 17.149L19.4922 17.4601C19.4825 17.4193 19.472 17.3783 19.459 17.3382C19.3649 17.0484 19.1889 16.7919 18.9521 16.5998C18.7153 16.4076 18.4274 16.288 18.124 16.2554C17.8208 16.2229 17.5144 16.279 17.2422 16.4164C16.9784 16.5493 16.661 16.5146 16.4316 16.3286C16.2021 16.1423 16.1032 15.8384 16.1797 15.5531L16.4912 14.3884C16.4503 14.3981 16.4093 14.4095 16.3691 14.4225Z" fill="#FAFAFA"/>
<path d="M16.209 2C17.7275 2.00026 18.959 3.22999 18.959 4.74691V11.4464C18.959 11.86 18.623 12.1953 18.209 12.1955C17.7948 12.1955 17.459 11.8601 17.459 11.4464V4.74691C17.459 4.05749 16.8991 3.49858 16.209 3.49831H5.71289C5.02253 3.49831 4.46289 4.05733 4.46289 4.74691V19.2306C4.46289 19.9202 5.02253 20.4792 5.71289 20.4792H11.3545C11.7687 20.4792 12.1045 20.8146 12.1045 21.2283C12.1045 21.6421 11.7687 21.9775 11.3545 21.9775H5.71289C4.19411 21.9775 2.96289 20.7477 2.96289 19.2306V4.74691C2.96289 3.22983 4.19411 2 5.71289 2H16.209Z" fill="#FAFAFA"/>
<path d="M5.96875 15.4848C6.38274 15.4851 6.71875 15.8204 6.71875 16.234V18.2317C6.71863 18.6452 6.38267 18.9806 5.96875 18.9809C5.55461 18.9809 5.21887 18.6454 5.21875 18.2317V16.234C5.21875 15.8202 5.55454 15.4848 5.96875 15.4848Z" fill="#FAFAFA"/>
<path d="M9.02148 15.4848C9.43547 15.4851 9.77148 15.8204 9.77148 16.234V18.2317C9.77137 18.6452 9.4354 18.9806 9.02148 18.9809C8.60734 18.9809 8.2716 18.6454 8.27148 18.2317V16.234C8.27148 15.8202 8.60727 15.4848 9.02148 15.4848Z" fill="#FAFAFA"/>
<path d="M15.9688 9.99198C16.3827 9.99224 16.7186 10.3277 16.7188 10.7411C16.7188 11.1547 16.3827 11.49 15.9688 11.4903H5.96875C5.55454 11.4903 5.21875 11.1549 5.21875 10.7411C5.21887 10.3275 5.55461 9.99198 5.96875 9.99198H15.9688Z" fill="#FAFAFA"/>
<path fill-rule="evenodd" clip-rule="evenodd" d="M15.7676 4.63278C16.2922 4.63278 16.7177 5.05791 16.7178 5.5819V8.31223C16.7175 8.83594 16.2929 9.26109 15.7686 9.26135H6.16895C5.64442 9.26135 5.21801 8.8361 5.21777 8.31223V5.5819C5.21787 5.05807 5.64358 4.63304 6.16797 4.63278H15.7676ZM6.71777 7.76304H8.54199V6.13109H6.71777V7.76304ZM10.042 7.76304H11.873V6.13109H10.042V7.76304ZM13.373 7.76304H15.2178V6.13109H13.373V7.76304Z" fill="#FAFAFA"/>
</svg>
