<svg width="24" height="24" viewBox="0 0 24 24" fill="none" xmlns="http://www.w3.org/2000/svg">
<path d="M13.5004 12C13.5004 11.1716 12.8288 10.5 12.0004 10.5C11.1719 10.5 10.5004 11.1716 10.5004 12C10.5004 12.8284 11.1719 13.5 12.0004 13.5V15C10.3435 15 9.00037 13.6569 9.00037 12C9.00037 10.3431 10.3435 9 12.0004 9C13.6572 9 15.0004 10.3431 15.0004 12C15.0004 13.6569 13.6572 15 12.0004 15V13.5C12.8288 13.5 13.5004 12.8284 13.5004 12Z" fill="#FAFAFA"/>
<path d="M15.2719 3C16.4717 3.39345 17.5846 4.00407 18.5521 4.7998L18.5638 8.1748C18.6321 8.2798 18.6966 8.38637 18.7562 8.49512L21.8197 10.1953C22.0611 11.3856 22.0611 12.6105 21.8197 13.8008L18.7572 15.498C18.6947 15.6058 18.6302 15.7125 18.5648 15.8174L18.5492 19.1924L18.1801 19.4834C17.3037 20.1408 16.3213 20.6536 15.2719 21L12.1986 19.3232H11.8138L8.73084 21L8.28553 20.8428C7.40224 20.5072 6.5722 20.0513 5.81971 19.4893L5.45056 19.2002L5.43885 15.8252C5.37056 15.7202 5.30609 15.6136 5.24646 15.5049L2.18103 13.8037C1.96977 12.762 1.94342 11.6938 2.10193 10.6455L2.18103 10.1982L5.24353 8.50098C5.306 8.39325 5.37057 8.28656 5.43592 8.18164L5.45154 4.80664C6.4182 4.00857 7.53078 3.39548 8.73084 3L11.809 4.67676H12.1937L15.2719 3ZM12.9115 5.99414C12.6913 6.11413 12.4445 6.17675 12.1937 6.17676H11.809C11.5582 6.17676 11.3114 6.11414 11.0912 5.99414L8.61267 4.64355C8.02389 4.88576 7.46543 5.19047 6.94764 5.55273L6.93592 8.18848C6.93496 8.39683 6.89104 8.602 6.80701 8.79102L6.70935 8.97461L6.54139 9.25391C6.43936 9.4298 6.30283 9.58231 6.14099 9.70312L5.97107 9.81348L3.5492 11.1543C3.48582 11.7168 3.48588 12.2841 3.5492 12.8467L5.97498 14.1934L6.15174 14.3096C6.3197 14.4367 6.45985 14.5981 6.56189 14.7842L6.69666 15.0068L6.75232 15.0996C6.87385 15.3196 6.93798 15.5678 6.93885 15.8203L6.94764 18.4512C7.46573 18.8121 8.02397 19.1155 8.61267 19.3564L11.097 18.0049L11.267 17.9258C11.4407 17.8578 11.6262 17.8232 11.8138 17.8232H12.1986L12.3861 17.835C12.5717 17.8584 12.7522 17.9157 12.9174 18.0059L15.389 19.3555C15.9774 19.1131 16.5348 18.8076 17.0521 18.4453L17.0648 15.8105L17.0795 15.6035C17.109 15.3987 17.1812 15.2014 17.2914 15.0244C17.3491 14.9317 17.4054 14.8382 17.4594 14.7451L17.5726 14.5771C17.6966 14.4177 17.8518 14.2841 18.0297 14.1855L20.4506 12.8438C20.5139 12.2808 20.5141 11.7133 20.4506 11.1504L18.0277 9.80566C17.7804 9.66826 17.5768 9.46392 17.4408 9.21582L17.306 8.99316C17.1684 8.78151 17.0867 8.53869 17.0678 8.28809L17.0638 8.17969L17.0541 5.54785C16.5363 5.18729 15.9783 4.88435 15.39 4.64355L12.9115 5.99414Z" fill="#FAFAFA"/>
</svg>
