<svg width="24" height="24" viewBox="0 0 24 24" fill="none" xmlns="http://www.w3.org/2000/svg">
<path fill-rule="evenodd" clip-rule="evenodd" d="M9.07617 8.25391C9.45442 8.29226 9.75 8.61164 9.75 9C9.75 9.38836 9.45442 9.70774 9.07617 9.74609L9 9.75H8.9502V11.4502H9C9.41421 11.4502 9.75 11.786 9.75 12.2002C9.74987 12.6143 9.41413 12.9502 9 12.9502H3.7998C3.78662 12.9502 3.77398 12.9555 3.76465 12.9648C3.75539 12.9742 3.75005 12.9869 3.75 13V20.2002C3.75007 20.2133 3.75539 20.226 3.76465 20.2354C3.77397 20.2446 3.78667 20.2499 3.7998 20.25H20.2002C20.2133 20.2499 20.226 20.2446 20.2354 20.2354C20.2446 20.226 20.2499 20.2133 20.25 20.2002V13C20.2499 12.9869 20.2446 12.9742 20.2354 12.9648C20.226 12.9555 20.2134 12.9502 20.2002 12.9502H15.4004C14.9863 12.9502 14.6505 12.6143 14.6504 12.2002C14.6504 11.9132 14.813 11.6661 15.0498 11.54V9.75H15C14.5858 9.75 14.25 9.41421 14.25 9C14.25 8.58579 14.5858 8.25 15 8.25H20.4004L20.4766 8.25391C20.8548 8.29226 21.1504 8.61164 21.1504 9C21.1504 9.38836 20.8548 9.70774 20.4766 9.74609L20.4004 9.75H20.3496V11.457C20.7058 11.4916 21.0407 11.6491 21.2959 11.9043C21.5865 12.1949 21.7499 12.589 21.75 13V20.2002C21.7499 20.6111 21.5865 21.0053 21.2959 21.2959C21.0053 21.5865 20.6112 21.7499 20.2002 21.75H3.7998C3.38885 21.7499 2.99473 21.5865 2.7041 21.2959C2.41354 21.0053 2.25006 20.6111 2.25 20.2002V13C2.25005 12.589 2.41354 12.1949 2.7041 11.9043C2.95931 11.6491 3.29424 11.4916 3.65039 11.457V9.75H3.59961C3.1854 9.75 2.84961 9.41421 2.84961 9C2.84961 8.58579 3.1854 8.25 3.59961 8.25H9L9.07617 8.25391ZM5.15039 11.4502H7.4502V9.75H5.15039V11.4502ZM16.5498 11.4502H18.8496V9.75H16.5498V11.4502Z" fill="#FAFAFA"/>
<path fill-rule="evenodd" clip-rule="evenodd" d="M12.5566 10.6738C12.7711 10.4595 13.0939 10.3948 13.374 10.5107C13.654 10.6268 13.8368 10.9009 13.8369 11.2041L13.8389 13.7129H14.6123C14.8132 13.714 15.0099 13.7747 15.1768 13.8867C15.3435 13.9988 15.4738 14.1582 15.5508 14.3438C15.6277 14.5295 15.649 14.7343 15.6104 14.9316C15.5717 15.129 15.4753 15.3111 15.334 15.4541L15.3301 15.457L11.4434 19.3398C11.2289 19.554 10.906 19.6179 10.626 19.502C10.3459 19.3858 10.1631 19.1118 10.1631 18.8086V16.2998H9.38086C9.18047 16.2964 8.98462 16.2335 8.81934 16.1201C8.65424 16.0067 8.52642 15.8468 8.45117 15.6611C8.37594 15.4753 8.35677 15.2717 8.39648 15.0752C8.43619 14.8789 8.53251 14.6986 8.67383 14.5566L12.5566 10.6738ZM10.5518 14.7998H10.9131C11.3272 14.8 11.6631 15.1357 11.6631 15.5498V17L13.4521 15.2129H13.0889C12.6749 15.2129 12.3392 14.8778 12.3389 14.4639L12.3379 13.0127L10.5518 14.7998Z" fill="#FAFAFA"/>
<path d="M9.07617 5.85352C9.4543 5.89186 9.74981 6.21141 9.75 6.59961C9.75 6.98796 9.4544 7.30733 9.07617 7.3457L9 7.34961H3.59961C3.1854 7.34961 2.84961 7.01382 2.84961 6.59961C2.84981 6.18556 3.18552 5.84961 3.59961 5.84961H9L9.07617 5.85352Z" fill="#FAFAFA"/>
<path d="M20.4766 5.85352C20.8547 5.89186 21.1502 6.21141 21.1504 6.59961C21.1504 6.98796 20.8548 7.30733 20.4766 7.3457L20.4004 7.34961H15C14.5858 7.34961 14.25 7.01382 14.25 6.59961C14.2502 6.18556 14.5859 5.84961 15 5.84961H20.4004L20.4766 5.85352Z" fill="#FAFAFA"/>
<path d="M6.2002 2.25C6.61441 2.25 6.9502 2.58579 6.9502 3V3.4502H9L9.07617 3.4541C9.45441 3.49247 9.75 3.81184 9.75 4.2002C9.74988 4.58845 9.45434 4.90794 9.07617 4.94629L9 4.9502H3.59961C3.18548 4.9502 2.84974 4.6143 2.84961 4.2002C2.84961 3.78598 3.1854 3.4502 3.59961 3.4502H5.4502V3C5.4502 2.58579 5.78598 2.25 6.2002 2.25Z" fill="#FAFAFA"/>
<path d="M17.7998 2.25C18.214 2.25 18.5498 2.58579 18.5498 3V3.4502H20.4004L20.4766 3.4541C20.8548 3.49247 21.1504 3.81184 21.1504 4.2002C21.1503 4.58845 20.8547 4.90794 20.4766 4.94629L20.4004 4.9502H15C14.5859 4.9502 14.2501 4.6143 14.25 4.2002C14.25 3.78598 14.5858 3.4502 15 3.4502H17.0498V3C17.0498 2.58579 17.3856 2.25 17.7998 2.25Z" fill="#FAFAFA"/>
</svg>
