<svg width="24" height="24" viewBox="0 0 24 24" fill="none" xmlns="http://www.w3.org/2000/svg">
<path fill-rule="evenodd" clip-rule="evenodd" d="M19.7077 10.2106C20.1219 10.2106 20.4576 10.5464 20.4577 10.9606V20.9938C20.4576 21.408 20.1219 21.7438 19.7077 21.7438H6.76823C6.35423 21.7436 6.01829 21.4078 6.01823 20.9938V18.2565C6.0183 17.8425 6.35424 17.5067 6.76823 17.5065H8.95769V15.9772C8.95775 15.5632 9.29369 15.2274 9.70769 15.2272H11.8962V13.6979C11.8964 13.2841 12.2324 12.9483 12.6462 12.9479H15.4274V10.9606C15.4275 10.5466 15.7634 10.2108 16.1774 10.2106H19.7077ZM16.9274 13.6979C16.9274 14.112 16.5915 14.4477 16.1774 14.4479H13.3962V15.9772C13.3961 16.3914 13.0604 16.7272 12.6462 16.7272H10.4577V18.2565C10.4575 18.6704 10.1216 19.0063 9.70769 19.0065H7.51823V20.2438H18.9577V11.7106H16.9274V13.6979Z" fill="#FAFAFA"/>
<path fill-rule="evenodd" clip-rule="evenodd" d="M7.08073 7.43033C7.27546 6.69293 8.0009 6.20628 8.77116 6.32779C9.59205 6.45772 10.1539 7.2297 10.0241 8.05142C9.89396 8.87327 9.12126 9.43412 8.30046 9.30435L8.29948 9.30338C7.47873 9.17279 6.91974 8.40159 7.04948 7.58072L7.08073 7.43033ZM8.53288 7.81119L8.53093 7.81314L8.52995 7.8151V7.81705L8.53093 7.81998L8.53288 7.82193H8.53679L8.53972 7.81998L8.54167 7.819L8.54265 7.81803L8.54167 7.81705L8.54265 7.81607L8.54069 7.81217L8.53874 7.81021L8.53581 7.80924L8.53288 7.81119Z" fill="#FAFAFA"/>
<path fill-rule="evenodd" clip-rule="evenodd" d="M8.6989 2.01139C9.47374 1.88929 10.2685 1.99443 10.985 2.31314C11.0084 2.32354 11.0312 2.33558 11.0534 2.3483L11.1188 2.38541L11.1784 2.42349C11.3556 2.54914 11.4973 2.72683 11.5788 2.93814L11.5798 2.9401C11.6606 3.15126 11.6745 3.37853 11.6266 3.59146C11.6212 3.61568 11.614 3.64017 11.6061 3.66373L11.5827 3.73404C11.575 3.75699 11.5661 3.7803 11.5563 3.8024L11.1833 4.63932C11.2511 4.65396 11.3201 4.66995 11.3874 4.68814C12.1445 4.89314 12.8264 5.31364 13.3503 5.89713C13.874 6.48071 14.2182 7.20434 14.3405 7.97916C14.4625 8.75396 14.3576 9.54865 14.0387 10.2653L14.0397 10.2663C13.9188 10.5373 13.6935 10.7522 13.4128 10.86C13.1317 10.9678 12.8207 10.9572 12.5495 10.8366L11.7126 10.4645C11.698 10.532 11.6838 10.5998 11.6657 10.6667C11.4607 11.424 11.0389 12.1059 10.4557 12.6295C9.8721 13.1533 9.14866 13.4975 8.3737 13.6198C7.59864 13.742 6.80428 13.6379 6.08757 13.319C5.81539 13.1979 5.60052 12.972 5.49284 12.692C5.38525 12.4112 5.39499 12.1006 5.5153 11.8297L5.8864 10.9928C5.81977 10.9784 5.75325 10.9628 5.68718 10.945C5.02421 10.7657 4.41819 10.421 3.92644 9.94693L3.72331 9.73502C3.19984 9.15179 2.85357 8.42929 2.73112 7.65396C2.60898 6.87903 2.71422 6.0843 3.03288 5.36783L3.06511 5.30338L3.10222 5.23795L3.14323 5.17447C3.27161 4.99332 3.45163 4.85298 3.65886 4.7731L3.76628 4.73795C4.01766 4.6693 4.28495 4.69012 4.52214 4.79557L5.35905 5.16764C5.37362 5.10026 5.3908 5.03324 5.40886 4.96646C5.61374 4.20913 6.03346 3.52752 6.61687 3.00357C7.19998 2.48024 7.9237 2.13388 8.6989 2.01139ZM9.11687 3.47037L8.93229 3.49283C8.44408 3.56992 7.98764 3.7878 7.61882 4.11881C7.25042 4.44963 6.98533 4.88049 6.85612 5.35807C6.77942 5.64192 6.75235 5.93611 6.77507 6.22721C6.79572 6.49067 6.67637 6.74649 6.46062 6.89908C6.24475 7.05151 5.96379 7.07975 5.72233 6.97232L4.27604 6.32877C4.1771 6.68237 4.15498 7.05536 4.21257 7.42057C4.28969 7.90856 4.50777 8.3644 4.83854 8.73307L4.96745 8.86588C5.2782 9.16555 5.65997 9.3837 6.0778 9.49674C6.36144 9.57342 6.65619 9.59962 6.94792 9.57682C7.21116 9.55644 7.4654 9.67666 7.61784 9.89224C7.77025 10.1081 7.79845 10.3881 7.69108 10.6295L7.04753 12.0749C7.40145 12.1741 7.77453 12.196 8.1403 12.1383C8.62863 12.0612 9.08451 11.8446 9.4528 11.5143C9.82149 11.1833 10.0882 10.7526 10.2175 10.2751C10.294 9.99193 10.3194 9.69706 10.2966 9.40494L10.2956 9.30631C10.3077 9.07922 10.4225 8.86748 10.611 8.73404C10.8268 8.58158 11.1079 8.55354 11.3493 8.6608L12.7946 9.30435C12.8936 8.95068 12.9167 8.5781 12.8591 8.21256C12.7819 7.72381 12.5638 7.26755 12.2331 6.89908C11.9023 6.53076 11.4724 6.26465 10.9948 6.13541L10.9958 6.13639C10.7118 6.05958 10.4157 6.0324 10.1237 6.05533C9.8603 6.07581 9.60626 5.95569 9.45378 5.7399C9.30134 5.52399 9.27304 5.24406 9.38054 5.0026L10.0231 3.55631C9.72908 3.47411 9.42198 3.4447 9.11687 3.47037Z" fill="#FAFAFA"/>
</svg>
