<svg width="24" height="24" viewBox="0 0 24 24" fill="none" xmlns="http://www.w3.org/2000/svg">
<path fill-rule="evenodd" clip-rule="evenodd" d="M11.4981 2.0126C13.9737 1.88826 16.4077 2.68752 18.3272 4.25577C20.2466 5.824 21.515 8.04932 21.8868 10.4999C22.2275 12.746 21.7904 15.0333 20.6622 16.9911C20.9998 17.4425 21.1876 17.9921 21.1876 18.5624C21.1875 19.2586 20.9113 19.9266 20.419 20.4189C19.9267 20.9111 19.2587 21.1874 18.5626 21.1874C17.9921 21.1874 17.4427 20.9989 16.9913 20.661C15.0334 21.7894 12.7463 22.2274 10.5001 21.8866C8.2026 21.538 6.10329 20.4011 4.55769 18.6786L4.25593 18.3271C2.78577 16.5275 1.99121 14.276 2.00007 11.9618L2.01277 11.498C2.13718 9.02255 3.17625 6.68124 4.92878 4.92862C6.57195 3.28543 8.73275 2.26983 11.0362 2.04678L11.4981 2.0126ZM11.5733 3.51065C9.46928 3.61646 7.479 4.49948 5.98933 5.98917C4.49971 7.47887 3.61658 9.4691 3.51082 11.5732C3.40514 13.6773 4.0851 15.7463 5.41804 17.3778C6.75092 19.0092 8.64195 20.0881 10.7247 20.4042C12.5771 20.6852 14.4631 20.3428 16.0938 19.4462C15.9932 19.1649 15.9376 18.8668 15.9376 18.5624C15.9376 18.1226 16.0487 17.6944 16.254 17.3144L13.2471 14.3075C12.8671 14.5127 12.4397 14.6249 12.0001 14.6249C11.3039 14.6249 10.6359 14.3486 10.1436 13.8564C9.65137 13.3641 9.3751 12.6961 9.37507 11.9999C9.37507 11.3038 9.6514 10.6357 10.1436 10.1435C10.6359 9.6512 11.3039 9.37493 12.0001 9.37491C12.6963 9.37491 13.3642 9.65118 13.8565 10.1435C14.3488 10.6357 14.6251 11.3037 14.6251 11.9999C14.6251 12.4397 14.514 12.8678 14.3087 13.248L17.3135 16.2528C17.6937 16.0474 18.1226 15.9374 18.5626 15.9374C18.867 15.9374 19.1651 15.993 19.4464 16.0937C20.343 14.4629 20.6854 12.577 20.4044 10.7245C20.0883 8.6417 19.0093 6.75081 17.378 5.41788C15.7464 4.08487 13.6775 3.40496 11.5733 3.51065ZM18.5626 17.4374C18.2847 17.4374 18.0174 17.5401 17.8116 17.7245C17.7984 17.74 17.7862 17.7568 17.7716 17.7714C17.7569 17.7861 17.7402 17.7982 17.7247 17.8114C17.5403 18.0173 17.4376 18.2846 17.4376 18.5624C17.4376 18.8607 17.5557 19.1474 17.7667 19.3583C17.9776 19.5693 18.2642 19.6874 18.5626 19.6874C18.8609 19.6874 19.1475 19.5692 19.3585 19.3583C19.5694 19.1474 19.6875 18.8607 19.6876 18.5624C19.6876 18.264 19.5694 17.9775 19.3585 17.7665C19.1475 17.5555 18.8609 17.4374 18.5626 17.4374ZM12.0001 10.8749C11.7017 10.8749 11.4151 10.993 11.2042 11.204C10.9932 11.415 10.8751 11.7016 10.8751 11.9999C10.8751 12.2982 10.9932 12.5849 11.2042 12.7958C11.4151 13.0068 11.7017 13.1249 12.0001 13.1249C12.279 13.1249 12.5459 13.0197 12.752 12.8339C12.7645 12.8193 12.7783 12.8057 12.7921 12.7919C12.8068 12.7771 12.8223 12.7632 12.838 12.7499C13.0221 12.5441 13.1251 12.2775 13.1251 11.9999C13.1251 11.7015 13.0069 11.415 12.796 11.204C12.585 10.993 12.2984 10.8749 12.0001 10.8749Z" fill="#FAFAFA"/>
</svg>
