<svg width="24" height="24" viewBox="0 0 24 24" fill="none" xmlns="http://www.w3.org/2000/svg">
<path fill-rule="evenodd" clip-rule="evenodd" d="M18.0104 5.98959C14.691 2.67014 9.30906 2.67013 5.9896 5.9896C2.67014 9.30904 2.67013 14.6909 5.9896 18.0104C9.30904 21.3299 14.6909 21.3299 18.0104 18.0104C21.3299 14.691 21.3299 9.30906 18.0104 5.98959ZM4.92894 4.92893C8.83418 1.02369 15.1658 1.02369 19.0711 4.92894C22.9763 8.83418 22.9763 15.1658 19.0711 19.0711C15.1658 22.9763 8.83416 22.9763 4.92894 19.0711C1.02369 15.1658 1.02369 8.83416 4.92894 4.92893Z" fill="#FAFAFA"/>
<path d="M10.5 9.5C10.5 10.3284 9.94035 11 9.25 11C8.55964 11 8 10.3284 8 9.5C8 8.67157 8.55964 8 9.25 8C9.94035 8 10.5 8.67157 10.5 9.5Z" fill="#FAFAFA"/>
<path d="M16 9.5C16 10.3284 15.4404 11 14.75 11C14.0596 11 13.5 10.3284 13.5 9.5C13.5 8.67157 14.0596 8 14.75 8C15.4404 8 16 8.67157 16 9.5Z" fill="#FAFAFA"/>
<path fill-rule="evenodd" clip-rule="evenodd" d="M14.2984 15.9519C13.0292 14.6827 10.9714 14.6827 9.7022 15.9519C9.40931 16.2448 8.93444 16.2448 8.64154 15.9519C8.34865 15.659 8.34865 15.1841 8.64154 14.8912C10.4965 13.0363 13.5041 13.0363 15.3591 14.8912C15.6519 15.1841 15.6519 15.659 15.3591 15.9519C15.0662 16.2448 14.5913 16.2448 14.2984 15.9519Z" fill="#FAFAFA"/>
</svg>
