<svg width="24" height="24" viewBox="0 0 24 24" fill="none" xmlns="http://www.w3.org/2000/svg">
<path d="M6.75405 16.6817C6.98107 16.3416 7.44098 16.2494 7.78125 16.4763C8.12129 16.7033 8.21247 17.1632 7.98573 17.5035L7.70216 17.9298C7.56016 18.143 7.60914 18.43 7.81404 18.5837L7.96354 18.7072C8.62299 19.3109 8.7905 20.2892 8.3696 21.0779L8.27026 21.2438L7.98669 21.6701L7.94136 21.7309C7.70265 22.0209 7.27773 22.0884 6.95853 21.8756C6.61848 21.6486 6.52642 21.1886 6.75309 20.8484L7.03762 20.4221C7.16158 20.2355 7.1398 19.9925 6.99518 19.8318L6.92573 19.7681C6.09186 19.1427 5.89159 17.9754 6.46952 17.108L6.75405 16.6817Z" fill="#FAFAFA"/>
<path d="M11.428 16.6209C11.6668 16.3311 12.0917 16.2635 12.4109 16.4763C12.7295 16.689 12.83 17.1063 12.6549 17.4379L12.6163 17.5035L12.3318 17.9298C12.1899 18.143 12.2388 18.4301 12.4437 18.5837L12.5932 18.7072C13.2997 19.354 13.4415 20.4308 12.8999 21.2438L12.6163 21.6701C12.3895 22.0104 11.9295 22.1022 11.5891 21.8756C11.2487 21.6487 11.1568 21.1888 11.3837 20.8484L11.6672 20.4221C11.7912 20.2355 11.7694 19.9925 11.6248 19.8318L11.5554 19.7681C10.7213 19.1426 10.5208 17.9745 11.0992 17.1071L11.3837 16.6817L11.428 16.6209Z" fill="#FAFAFA"/>
<path d="M16.0133 16.6817C16.2403 16.3416 16.7002 16.2494 17.0405 16.4763C17.3805 16.7032 17.4725 17.1632 17.2459 17.5035L16.9614 17.9298C16.8196 18.143 16.8684 18.4301 17.0733 18.5837L17.2228 18.7072C17.9294 19.354 18.0711 20.4308 17.5295 21.2438L17.2459 21.6701C17.0191 22.0104 16.5591 22.1022 16.2187 21.8756C15.8784 21.6487 15.7864 21.1888 16.0133 20.8484L16.2969 20.4221C16.4208 20.2355 16.3991 19.9925 16.2544 19.8318L16.185 19.7681C15.351 19.1426 15.1504 17.9745 15.7288 17.1071L16.0133 16.6817Z" fill="#FAFAFA"/>
<path d="M17.5556 5.7037C17.9647 5.7037 18.2963 6.03535 18.2963 6.44445C18.2963 6.85355 17.9647 7.18519 17.5556 7.18519H15.4444C15.0353 7.18519 14.7037 6.85355 14.7037 6.44445C14.7037 6.03535 15.0353 5.7037 15.4444 5.7037H17.5556Z" fill="#FAFAFA"/>
<path fill-rule="evenodd" clip-rule="evenodd" d="M16.1001 2C17.2 2 18.0896 1.99918 18.7959 2.08102C19.5177 2.16469 20.1425 2.3434 20.6748 2.76775L20.8262 2.89506C20.9732 3.02649 21.1092 3.16998 21.2323 3.32427L21.3808 3.52874C21.7004 4.01482 21.8458 4.57254 21.919 5.20409C22.0008 5.91044 22 6.79999 22 7.89989C22 9.37211 22.001 10.5405 21.8939 11.4647C21.7986 12.2871 21.6114 12.9885 21.2139 13.5924L21.0307 13.8451C20.8751 14.0401 20.7034 14.222 20.5176 14.3881L20.3266 14.5492C19.6676 15.0746 18.8859 15.3035 17.9462 15.4124C17.022 15.5195 15.8536 15.5185 14.3814 15.5185H9.61863C8.14639 15.5185 6.97802 15.5195 6.05382 15.4124C5.23141 15.3171 4.53007 15.1299 3.92612 14.7324L3.67342 14.5492C3.47825 14.3936 3.29647 14.2219 3.1304 14.0361L2.96933 13.8451C2.44391 13.1861 2.21501 12.4045 2.1061 11.4647C1.99902 10.5405 2 9.37216 2 7.89989C2 6.79999 1.99918 5.91044 2.08102 5.20409C2.16469 4.48232 2.34338 3.85749 2.76775 3.32523L2.89506 3.1738C3.02656 3.02667 3.17076 2.89092 3.32523 2.76775L3.52874 2.61921C4.01481 2.29958 4.57254 2.15423 5.20409 2.08102C5.91044 1.99918 6.79999 2 7.89988 2H16.1001ZM9.22222 12.7407C8.78094 12.7407 8.48678 12.7407 8.25964 12.7562C8.14957 12.7637 8.06831 12.7742 8.00694 12.7861L7.87095 12.8256C7.6328 12.9243 7.43702 13.1019 7.31636 13.3272L7.27006 13.4265C7.23292 13.5162 7.2064 13.6443 7.19387 13.9502L7.19194 14.0062C7.85104 14.0324 8.64243 14.037 9.61863 14.037H14.3814C15.3595 14.037 16.1521 14.0325 16.8119 14.0062C16.81 13.7849 16.8065 13.7008 16.7936 13.6358C16.7168 13.2502 16.4433 12.937 16.0808 12.8063L15.9207 12.762C15.8314 12.7442 15.7063 12.7407 15.2407 12.7407H9.22222ZM7.89988 3.48148C6.76449 3.48148 5.97609 3.48222 5.37481 3.55189C4.86245 3.61127 4.55838 3.71424 4.33796 3.86053L4.24826 3.92612C4.18872 3.97362 4.13229 4.02473 4.07851 4.07851L3.92612 4.24826C3.74471 4.47575 3.61974 4.78936 3.55189 5.37481C3.48222 5.97609 3.48148 6.76449 3.48148 7.89989C3.48148 9.40764 3.48302 10.4748 3.57793 11.294C3.671 12.0971 3.84544 12.567 4.1277 12.9211L4.23476 13.0484C4.3456 13.1724 4.46731 13.2871 4.59742 13.3908L4.73534 13.4911C4.98362 13.6556 5.29121 13.7754 5.71528 13.8605C5.73141 13.4965 5.77384 13.1651 5.90046 12.8594L6.01042 12.6279C6.29191 12.1022 6.74804 11.6873 7.30382 11.457L7.51215 11.3837C7.7218 11.3223 7.93641 11.2937 8.15837 11.2786C8.44767 11.2588 8.80094 11.2593 9.22222 11.2593H15.2407C15.6354 11.2593 15.9407 11.2561 16.2091 11.3094L16.3991 11.3547C17.3355 11.6153 18.0542 12.3815 18.2461 13.3455L18.277 13.5548C18.2865 13.6503 18.289 13.7514 18.2915 13.8596C18.7939 13.758 19.1321 13.6064 19.4026 13.3908L19.5299 13.2838C19.6539 13.173 19.7685 13.0512 19.8723 12.9211L19.9726 12.7832C20.1967 12.445 20.3406 11.9972 20.4221 11.294C20.517 10.4748 20.5185 9.40759 20.5185 7.89989C20.5185 6.76449 20.5178 5.97609 20.4481 5.37481C20.3887 4.86245 20.2858 4.55838 20.1395 4.33796L20.0739 4.24826C20.0263 4.1887 19.9752 4.13227 19.9215 4.07851L19.7517 3.92612C19.5242 3.74468 19.2106 3.61974 18.6252 3.55189C18.0239 3.48222 17.2355 3.48148 16.1001 3.48148H7.89988Z" fill="#FAFAFA"/>
</svg>
