<svg width="24" height="24" viewBox="0 0 24 24" fill="none" xmlns="http://www.w3.org/2000/svg">
<path d="M12 13.25C12.4142 13.25 12.75 13.5858 12.75 14V16C12.75 16.4142 12.4142 16.75 12 16.75C11.5858 16.75 11.25 16.4142 11.25 16V14C11.25 13.5858 11.5858 13.25 12 13.25Z" fill="#FAFAFA"/>
<path d="M8 13.25C8.41421 13.25 8.75 13.5858 8.75 14V15C8.75 15.4142 8.41421 15.75 8 15.75C7.58579 15.75 7.25 15.4142 7.25 15V14C7.25 13.5858 7.58579 13.25 8 13.25Z" fill="#FAFAFA"/>
<path d="M16 13.25C16.4142 13.25 16.75 13.5858 16.75 14V15C16.75 15.4142 16.4142 15.75 16 15.75C15.5858 15.75 15.25 15.4142 15.25 15V14C15.25 13.5858 15.5858 13.25 16 13.25Z" fill="#FAFAFA"/>
<path d="M10 10.25C10.4142 10.25 10.75 10.5858 10.75 11V12C10.75 12.4142 10.4142 12.75 10 12.75C9.58579 12.75 9.25 12.4142 9.25 12V11C9.25 10.5858 9.58579 10.25 10 10.25Z" fill="#FAFAFA"/>
<path d="M14 9.25C14.4142 9.25 14.75 9.58579 14.75 10V12C14.75 12.4142 14.4142 12.75 14 12.75C13.5858 12.75 13.25 12.4142 13.25 12V10C13.25 9.58579 13.5858 9.25 14 9.25Z" fill="#FAFAFA"/>
<path fill-rule="evenodd" clip-rule="evenodd" d="M15.1484 2.09473C16.6254 2.09522 17.827 3.26047 17.8916 4.72168H19C20.1046 4.72168 21 5.61711 21 6.72168V19.7217C20.9997 20.826 20.1044 21.7217 19 21.7217H5L4.7959 21.7109C3.78738 21.6087 3.00025 20.7571 3 19.7217V6.72168C3 5.61711 3.89543 4.72168 5 4.72168H6.1084C6.17294 3.26016 7.37511 2.09473 8.85254 2.09473H15.1484ZM5 6.22168C4.72386 6.22168 4.5 6.44554 4.5 6.72168V19.7217C4.50026 19.9976 4.72402 20.2217 5 20.2217H19C19.276 20.2217 19.4997 19.9976 19.5 19.7217V6.72168C19.5 6.44554 19.2761 6.22168 19 6.22168H5ZM8.85254 3.59473C8.20378 3.59473 7.67031 4.08917 7.6084 4.72168H16.3916C16.3297 4.08947 15.7968 3.59521 15.1484 3.59473H8.85254Z" fill="#FAFAFA"/>
</svg>
