<svg width="24" height="24" viewBox="0 0 24 24" fill="none" xmlns="http://www.w3.org/2000/svg">
<path fill-rule="evenodd" clip-rule="evenodd" d="M8.87252 13.9043C9.74913 13.9043 10.6173 14.0782 11.4262 14.416C12.235 14.7538 12.9693 15.2487 13.5854 15.8721C14.2014 16.4954 14.6877 17.2353 15.0161 18.0479C15.3443 18.8605 15.5087 19.7311 15.4985 20.6074C15.4934 21.0212 15.1535 21.3532 14.7397 21.3486C14.3257 21.3438 13.9939 21.0038 13.9985 20.5898C14.0064 19.912 13.8793 19.2389 13.6254 18.6104C13.3715 17.9817 12.9946 17.409 12.518 16.9268C12.275 16.6809 12.008 16.4609 11.7221 16.2695C11.5702 16.702 11.3246 17.0999 10.9917 17.4268C10.4264 17.9815 9.66546 18.2918 8.87349 18.292C8.08132 18.292 7.31979 17.9816 6.75435 17.4268C6.4212 17.0998 6.17388 16.7022 6.02193 16.2695C5.73629 16.4608 5.46985 16.6811 5.22701 16.9268C4.75036 17.4091 4.37359 17.9816 4.11959 18.6104C3.86574 19.2389 3.73867 19.912 3.74654 20.5898C3.75111 21.0038 3.41932 21.3438 3.00533 21.3486C2.59147 21.3533 2.25163 21.0213 2.24654 20.6074C2.23634 19.731 2.40072 18.8605 2.72896 18.0479C3.0573 17.2353 3.54357 16.4954 4.15963 15.8721C4.77581 15.2487 5.50998 14.7539 6.31881 14.416C7.12773 14.0782 7.99588 13.9043 8.87252 13.9043ZM8.87252 15.4043C8.3698 15.4043 7.87059 15.4775 7.39107 15.6221C7.45716 15.8984 7.59928 16.1533 7.80513 16.3555C8.09012 16.635 8.47427 16.792 8.87349 16.792C9.27254 16.7918 9.65606 16.635 9.94088 16.3555C10.1466 16.1534 10.2869 15.8982 10.353 15.6221C9.87372 15.4776 9.37494 15.4043 8.87252 15.4043Z" fill="#FAFAFA"/>
<path d="M20.8169 2.65625C21.2311 2.65625 21.5669 2.99301 21.5669 3.40723V5.80762C21.5666 6.64273 21.2345 7.44365 20.644 8.03418C20.2336 8.44441 19.7217 8.72921 19.1674 8.86523V20.5986C19.1672 21.0126 18.8315 21.3486 18.4174 21.3486C18.0036 21.3484 17.6677 21.0125 17.6674 20.5986V8.86523C17.1129 8.72912 16.6003 8.44457 16.1899 8.03418C15.5994 7.44366 15.2673 6.64269 15.267 5.80762V3.40723C15.267 2.99316 15.603 2.65649 16.017 2.65625C16.4313 2.65625 16.767 2.99301 16.767 3.40723V5.80762C16.7673 6.24486 16.9413 6.66441 17.2504 6.97363C17.3734 7.09661 17.5154 7.19567 17.6674 7.27344V3.40723C17.6674 2.99316 18.0034 2.65649 18.4174 2.65625C18.8317 2.65625 19.1674 2.99301 19.1674 3.40723V7.27441C19.3194 7.19671 19.4604 7.09654 19.5835 6.97363C19.8927 6.66441 20.0666 6.24491 20.0669 5.80762V3.40723C20.0669 2.99323 20.4029 2.6566 20.8169 2.65625Z" fill="#FAFAFA"/>
<path fill-rule="evenodd" clip-rule="evenodd" d="M10.5962 4.93848C11.1683 4.93864 11.7206 5.15044 12.146 5.5332C12.5181 5.8683 12.7702 6.31439 12.8676 6.80176L12.8999 7.01367L13.1118 9.06348C13.4116 9.21341 13.7037 9.38067 13.9868 9.56445C14.3339 9.79007 14.432 10.2543 14.2065 10.6016C14.0748 10.8044 13.8618 10.9192 13.6381 10.9375C13.8583 11.3724 14.1455 11.7742 14.4926 12.126C14.5048 12.1383 14.5175 12.152 14.5288 12.165C14.6646 12.3235 14.7644 12.51 14.8208 12.7109C14.8771 12.912 14.8887 13.124 14.8549 13.3301C14.8211 13.536 14.7429 13.7328 14.6254 13.9053C14.5078 14.0778 14.3537 14.2232 14.1743 14.3301L14.1645 14.335L14.0424 14.4062C13.6836 14.6126 13.2247 14.4884 13.018 14.1299C12.8115 13.7708 12.9354 13.312 13.2944 13.1055L13.3335 13.082C12.9932 12.7221 12.6985 12.325 12.4545 11.9004C12.2924 12.1399 12.1067 12.3642 11.8979 12.5664C11.4947 12.9566 11.0166 13.2635 10.4936 13.4668C9.97705 13.6674 9.42542 13.7637 8.87154 13.751C8.31766 13.7633 7.76589 13.6668 7.24947 13.4658C6.72672 13.2623 6.25002 12.9558 5.84713 12.5654C5.6347 12.3596 5.44682 12.1311 5.28267 11.8867C5.03698 12.3174 4.74055 12.7205 4.39596 13.085C4.42104 13.0992 4.44748 13.1151 4.47506 13.1299C4.83948 13.3262 4.97673 13.7808 4.78072 14.1455C4.58455 14.5098 4.12967 14.6458 3.7651 14.4502C3.69245 14.4111 3.62037 14.3713 3.55318 14.3311L3.55416 14.3301C3.37567 14.2234 3.22209 14.0791 3.10494 13.9072C2.98739 13.7346 2.90826 13.5381 2.87447 13.332C2.84075 13.1259 2.85322 12.914 2.90963 12.7129C2.96613 12.5119 3.06561 12.3254 3.20162 12.167L3.23678 12.1289C3.58574 11.7753 3.87247 11.3703 4.09322 10.9326C3.87659 10.9093 3.67126 10.7956 3.54342 10.5986C3.31833 10.2511 3.41675 9.78584 3.76412 9.56055C4.04384 9.37926 4.33238 9.21369 4.62838 9.06543L4.84615 7.01172C4.90651 6.44316 5.17508 5.9157 5.60006 5.5332C6.0253 5.15069 6.57788 4.93852 7.14986 4.93848H10.5962ZM8.89107 9.61328C8.87879 9.61358 8.86624 9.61358 8.85396 9.61328C7.91697 9.58996 6.98911 9.74275 6.11666 10.0576C6.15293 10.2443 6.20779 10.4277 6.28267 10.6035C6.42424 10.9358 6.63077 11.2369 6.8901 11.4883C7.14954 11.7397 7.45774 11.9373 7.79439 12.0684C8.1307 12.1992 8.49031 12.2617 8.85103 12.252C8.86464 12.2516 8.87941 12.2516 8.89303 12.252C9.25402 12.2619 9.61401 12.1991 9.95064 12.0684C10.2873 11.9375 10.5954 11.7404 10.8549 11.4893C11.1144 11.238 11.3216 10.9367 11.4633 10.6045C11.5384 10.4286 11.5922 10.2445 11.6284 10.0576C10.756 9.74285 9.82808 9.58977 8.89107 9.61328ZM7.14986 6.43848C6.94837 6.43849 6.75381 6.51375 6.60396 6.64844C6.4918 6.74937 6.41032 6.87875 6.36763 7.02148L6.33736 7.16895L6.20162 8.45508C7.06508 8.20984 7.96516 8.09353 8.87252 8.11426C9.77874 8.09343 10.678 8.20947 11.5405 8.4541L11.4087 7.16992L11.3794 7.02246C11.3368 6.87951 11.2552 6.74958 11.143 6.64844C10.9931 6.51348 10.7978 6.43864 10.5962 6.43848H7.14986Z" fill="#FAFAFA"/>
</svg>
