<svg width="24" height="24" viewBox="0 0 24 24" fill="none" xmlns="http://www.w3.org/2000/svg">
<path fill-rule="evenodd" clip-rule="evenodd" d="M3 8.5C3 4.91986 5.86553 2 9.42188 2C11.663 2 13.6319 3.16204 14.7787 4.91387C14.8996 5.09859 15.1644 5.22399 15.4406 5.18468C15.6646 5.1528 15.8931 5.13636 16.125 5.13636C18.827 5.13636 21 7.35412 21 10.0682C21 12.7822 18.827 15 16.125 15H9.42188C5.86553 15 3 12.0801 3 8.5ZM9.42188 3.5C6.71324 3.5 4.5 5.72887 4.5 8.5C4.5 11.2711 6.71324 13.5 9.42188 13.5H16.125C17.9793 13.5 19.5 11.9732 19.5 10.0682C19.5 8.16314 17.9793 6.63636 16.125 6.63636C15.9641 6.63636 15.8062 6.64776 15.652 6.66971C14.8584 6.78266 13.9946 6.45478 13.5237 5.73542C12.6389 4.38387 11.13 3.5 9.42188 3.5ZM7.09042 17.0585C7.47232 17.2189 7.65188 17.6585 7.49149 18.0404L6.44149 20.5404C6.28109 20.9223 5.84147 21.1019 5.45958 20.9415C5.07768 20.7811 4.89812 20.3415 5.05851 19.9596L6.10851 17.4596C6.26891 17.0777 6.70853 16.8981 7.09042 17.0585ZM12.1121 17.0581C12.4942 17.2179 12.6745 17.6572 12.5147 18.0394L11.4692 20.5394C11.3094 20.9215 10.8701 21.1017 10.4879 20.9419C10.1058 20.7821 9.92553 20.3428 10.0853 19.9606L11.1308 17.4606C11.2906 17.0785 11.7299 16.8983 12.1121 17.0581ZM17.1122 17.0581C17.4943 17.2179 17.6745 17.6572 17.5147 18.0394L16.4693 20.5394C16.3095 20.9215 15.8701 21.1017 15.488 20.9419C15.1058 20.7821 14.9256 20.3428 15.0854 19.9606L16.1309 17.4606C16.2907 17.0785 16.73 16.8983 17.1122 17.0581Z" fill="#FAFAFA"/>
</svg>
