<svg width="24" height="24" viewBox="0 0 24 24" fill="none" xmlns="http://www.w3.org/2000/svg">
<path fill-rule="evenodd" clip-rule="evenodd" d="M16.5732 2.96161C17.2192 2.43207 18.0496 2.18115 18.8809 2.26337C19.7121 2.34565 20.4771 2.75513 21.0068 3.40106C21.5358 4.0464 21.7866 4.87538 21.7051 5.70575C21.5561 7.24763 21.0179 8.71392 20.1572 9.97431C20.13 10.0236 20.0973 10.0701 20.0586 10.113C19.6786 10.6477 19.2414 11.145 18.748 11.5915C17.2426 12.9539 15.3305 13.767 13.3193 13.9196C13.2848 13.9245 13.2497 13.9275 13.2139 13.9274C13.0099 13.9405 12.8052 13.9486 12.5996 13.9479L11.4004 13.9489C10.6448 13.9499 9.92007 14.2506 9.38574 14.7849C8.85149 15.3191 8.55084 16.044 8.5498 16.7995V18.5993C8.54973 19.4345 8.2175 20.2362 7.62695 20.8268C7.03635 21.4172 6.23548 21.7486 5.40039 21.7487C4.56512 21.7487 3.76356 21.4174 3.17285 20.8268C2.5823 20.2362 2.25008 19.4345 2.25 18.5993V16.7985L2.26172 16.3444C2.37642 14.0842 3.32479 11.9396 4.93262 10.3317C6.6478 8.61665 8.97385 7.65188 11.3994 7.64911H12.6025C13.3088 7.65196 13.9916 7.39123 14.5156 6.91767C15.0394 6.44413 15.3672 5.79138 15.4355 5.08856L15.4365 5.08759C15.5189 4.2564 15.9273 3.49122 16.5732 2.96161ZM5.39551 17.8288C4.84254 17.8252 4.29098 17.8796 3.75 17.9899V18.5993C3.75008 19.0366 3.92425 19.456 4.2334 19.7653C4.54283 20.0748 4.96278 20.2487 5.40039 20.2487C5.83786 20.2486 6.25706 20.0747 6.56641 19.7653C6.87562 19.456 7.04973 19.0367 7.0498 18.5993V17.9899C6.50924 17.8798 5.95795 17.8253 5.40527 17.8288H5.39551ZM5.58887 11.8327C4.48195 13.1274 3.83499 14.756 3.75781 16.4626C4.29822 16.3712 4.84618 16.3268 5.39551 16.3298H5.40039L5.40527 16.3288L5.4043 16.3298C5.96082 16.3267 6.5162 16.3727 7.06348 16.4665C7.13046 15.6043 7.45302 14.7829 7.9873 14.1061C7.67052 13.6505 7.30637 13.2291 6.90039 12.8493L6.89453 12.8434C6.49498 12.4621 6.05727 12.1235 5.58887 11.8327ZM11.4004 9.14911C9.68905 9.15117 8.03808 9.72727 6.70215 10.7683C7.13555 11.0623 7.54488 11.3915 7.9248 11.7536L8.16113 11.9831C8.5074 12.3306 8.8257 12.7045 9.11328 13.1013C9.79475 12.6796 10.5852 12.4498 11.3994 12.4489H12.4629C12.4401 11.9422 12.37 11.4381 12.251 10.944L12.25 10.9431C12.1014 10.323 11.8847 9.72186 11.6064 9.14911H11.4004ZM15.8975 7.64227C15.7802 7.77834 15.655 7.90837 15.5205 8.02997C14.8769 8.61157 14.0777 8.98276 13.2285 9.10419C13.4256 9.58708 13.5871 10.0843 13.709 10.5925L13.7803 10.9147C13.8756 11.3817 13.935 11.8552 13.959 12.3308C15.3597 12.0823 16.673 11.4459 17.7412 10.4792C18.0328 10.2153 18.3001 9.92959 18.5449 9.62763C18.1831 9.21875 17.7791 8.84794 17.3398 8.52216L17.332 8.5163C16.885 8.17596 16.4041 7.88305 15.8975 7.64227ZM18.7334 3.75556C18.298 3.71247 17.8628 3.84442 17.5244 4.12177C17.1862 4.39909 16.972 4.79984 16.9287 5.23505C16.8912 5.61944 16.8017 5.9938 16.667 6.34931C17.2178 6.62123 17.7423 6.94472 18.2324 7.31708L18.4932 7.51727C18.8102 7.77006 19.1102 8.04347 19.3916 8.33466C19.8354 7.47824 20.1185 6.53874 20.2129 5.5622V5.56024C20.2558 5.12491 20.124 4.68955 19.8467 4.35126C19.5692 4.01316 19.1686 3.79865 18.7334 3.75556Z" fill="#FAFAFA"/>
</svg>
