<svg width="24" height="24" viewBox="0 0 24 24" fill="none" xmlns="http://www.w3.org/2000/svg">
<path fill-rule="evenodd" clip-rule="evenodd" d="M11.9989 2.5C8.40859 2.5 5.49805 5.41055 5.49805 9.00089C5.49805 11.1006 6.4927 12.9677 8.03962 14.1574C8.31964 14.3728 8.61757 14.5658 8.93075 14.7338H15.0671C15.3803 14.5658 15.6782 14.3728 15.9582 14.1574C17.5052 12.9677 18.4998 11.1006 18.4998 9.00089C18.4998 5.41055 15.5893 2.5 11.9989 2.5ZM14.5001 16.2338H9.49775V17.25C9.49775 17.3881 9.60968 17.5 9.74775 17.5H14.2501C14.3882 17.5 14.5001 17.3881 14.5001 17.25V16.2338ZM7.99775 15.9308C7.69359 15.7549 7.40216 15.5595 7.12515 15.3465C5.22495 13.885 3.99805 11.5861 3.99805 9.00089C3.99805 4.58212 7.58016 1 11.9989 1C16.4177 1 19.9998 4.58212 19.9998 9.00089C19.9998 11.5861 18.7729 13.885 16.8727 15.3465C16.5957 15.5595 16.3043 15.7549 16.0001 15.9308V17.25C16.0001 18.2165 15.2166 19 14.2501 19H9.74775C8.78125 19 7.99775 18.2165 7.99775 17.25V15.9308ZM8.99982 21.25C8.99982 20.8358 9.3356 20.5 9.74982 20.5H14.2498C14.664 20.5 14.9998 20.8358 14.9998 21.25C14.9998 21.6642 14.664 22 14.2498 22H9.74982C9.3356 22 8.99982 21.6642 8.99982 21.25Z" fill="#FAFAFA"/>
</svg>
