<svg width="24" height="24" viewBox="0 0 24 24" fill="none" xmlns="http://www.w3.org/2000/svg">
<path d="M12.4013 3.10835C13.5873 2.65537 14.8793 2.55444 16.121 2.81929C17.3627 3.0843 18.5024 3.70285 19.4003 4.60054L19.4941 4.71578C19.5753 4.83791 19.62 4.98295 19.62 5.13179C19.6199 5.28069 19.5755 5.42571 19.4941 5.54781L19.3993 5.66109L17.9736 7.08589C17.9145 7.05762 17.8498 7.02694 17.7802 6.99214C17.4765 6.84029 17.0446 6.61719 16.5009 6.43843L17.7695 5.17085C17.1888 4.74115 16.5206 4.43808 15.8085 4.28609C14.8499 4.08154 13.8522 4.15902 12.9365 4.50874C12.0208 4.85857 11.2255 5.4662 10.6474 6.25777C10.338 6.68147 10.0994 7.14906 9.9345 7.64156C9.44565 8.14741 9.2182 8.85984 9.33001 9.55953C9.2879 9.58632 9.24397 9.61159 9.19622 9.62984C8.92026 9.73494 8.60733 9.66759 8.39836 9.45894L5.17278 6.2314C4.74283 6.81225 4.43906 7.48093 4.28704 8.19331C4.08258 9.15192 4.15994 10.1497 4.50969 11.0654C4.85954 11.981 5.46719 12.7763 6.25872 13.3544C7.0503 13.9324 7.99297 14.2686 8.97161 14.3232C9.20092 14.3361 9.40672 14.4546 9.53704 14.6357C9.36609 14.9807 9.28378 15.3669 9.30461 15.7568L6.23333 18.8281C6.81419 19.2581 7.48185 19.5628 8.19426 19.7148C9.15282 19.9193 10.1507 19.8418 11.0663 19.4921C11.9818 19.1424 12.7763 18.5344 13.3544 17.7431C13.4692 17.586 13.5715 17.421 13.6669 17.2529C14.0362 17.1609 14.4142 17.1033 14.7958 17.082C14.9333 17.0858 15.0607 17.1157 15.3388 17.2402C15.1387 17.7295 14.8822 18.1967 14.5673 18.6279C13.8184 19.6532 12.7875 20.4394 11.6015 20.8925C10.4155 21.3455 9.12342 21.4464 7.88176 21.1816C6.64005 20.9166 5.5004 20.298 4.60247 19.4003C4.46205 19.2599 4.38297 19.0687 4.38274 18.8701C4.38273 18.6714 4.46212 18.4804 4.60247 18.3398L7.38176 15.5585C6.66446 15.3456 5.9843 15.012 5.37395 14.5664C4.34861 13.8175 3.5625 12.7866 3.1093 11.6005C2.65629 10.4145 2.55547 9.12246 2.82024 7.88081C3.0852 6.63912 3.70387 5.49944 4.60149 4.60152L4.71672 4.50777C4.83877 4.42658 4.98302 4.38188 5.13176 4.38179C5.33063 4.38182 5.52141 4.46187 5.66204 4.60249L8.44231 7.38179C8.65527 6.66414 8.98962 5.98361 9.43547 5.373C10.1843 4.34769 11.2152 3.56152 12.4013 3.10835Z" fill="#FAFAFA"/>
<path d="M16.8808 17.9404C17.4051 18.1289 18.0445 18.286 18.7841 18.2861C18.832 18.2861 18.875 18.2835 18.8827 18.2832C19.3957 18.2604 19.9053 18.1988 20.4072 18.1025C20.1285 18.5727 19.7915 19.0091 19.4013 19.3994C19.2607 19.5399 19.0688 19.619 18.87 19.6191C18.6714 19.619 18.4803 19.5398 18.3398 19.3994L16.8808 17.9404Z" fill="#FAFAFA"/>
<path d="M19.7187 14.0937C19.9039 13.7232 20.355 13.5725 20.7255 13.7578L22.3329 14.5615C22.589 14.6897 22.7496 14.9529 22.747 15.2392C22.7442 15.5255 22.5786 15.7857 22.3202 15.9091C21.223 16.4333 20.0311 16.7313 18.8163 16.7851C18.8055 16.7856 18.794 16.7861 18.7831 16.7861C17.7816 16.786 17.0321 16.4003 16.4384 16.1035C15.8334 15.801 15.38 15.5846 14.7841 15.58C13.7751 15.6266 12.7854 15.875 11.874 16.3105C11.5003 16.4888 11.0525 16.3305 10.874 15.957C10.6957 15.5834 10.854 15.1356 11.2275 14.957C12.3247 14.4328 13.5165 14.1349 14.7314 14.081L14.7646 14.08C15.7662 14.08 16.5155 14.4658 17.1093 14.7627C17.7139 15.065 18.1673 15.2803 18.7626 15.2851C19.2043 15.2648 19.6419 15.2038 20.0712 15.1074L20.0546 15.0996C19.6844 14.9145 19.5341 14.464 19.7187 14.0937Z" fill="#FAFAFA"/>
<path d="M19.7187 10.8789C19.904 10.5087 20.3552 10.358 20.7255 10.5429L22.3329 11.3466C22.5888 11.4748 22.7494 11.7382 22.747 12.0244C22.7443 12.3108 22.5787 12.5708 22.3202 12.6943C21.2229 13.2185 20.0312 13.5164 18.8163 13.5703C18.8054 13.5708 18.794 13.5712 18.7831 13.5712C17.7815 13.5712 17.0321 13.1855 16.4384 12.8886C15.8335 12.5862 15.3799 12.3697 14.7841 12.3652C13.7751 12.4118 12.7854 12.6602 11.874 13.0957C11.5002 13.2742 11.0525 13.1159 10.874 12.7421C10.6959 12.3685 10.8539 11.9206 11.2275 11.7421C12.3247 11.218 13.5165 10.92 14.7314 10.8662L14.7646 10.8652C15.7661 10.8652 16.5156 11.2509 17.1093 11.5478C17.7139 11.8501 18.1673 12.0655 18.7626 12.0703C19.2044 12.0499 19.6418 11.989 20.0712 11.8925L20.0546 11.8847C19.6845 11.6995 19.5339 11.2491 19.7187 10.8789Z" fill="#FAFAFA"/>
<path d="M19.7187 7.66499C19.9039 7.29455 20.3551 7.1439 20.7255 7.32906L22.3329 8.13277C22.589 8.26097 22.7496 8.52416 22.747 8.8105C22.7443 9.09688 22.5787 9.35696 22.3202 9.48042C21.223 10.0046 20.0312 10.3026 18.8163 10.3564C18.8054 10.3569 18.794 10.3574 18.7831 10.3574C17.7815 10.3573 17.0321 9.97163 16.4384 9.67476C15.8335 9.37229 15.38 9.15586 14.7841 9.15132C13.7751 9.1979 12.7854 9.44633 11.874 9.88179C11.5002 10.0602 11.0525 9.90198 10.874 9.52828C10.6957 9.15464 10.8539 8.70683 11.2275 8.52828C12.3247 8.00408 13.5165 7.70617 14.7314 7.6523L14.7646 7.65132C15.7662 7.65132 16.5156 8.03707 17.1093 8.33394C17.7139 8.63626 18.1673 8.85158 18.7626 8.8564C19.2043 8.83607 19.6419 8.7751 20.0712 8.67867L20.0546 8.67085C19.6844 8.48568 19.5339 8.03532 19.7187 7.66499Z" fill="#FAFAFA"/>
</svg>
