<svg width="24" height="24" viewBox="0 0 24 24" fill="none" xmlns="http://www.w3.org/2000/svg">
<path fill-rule="evenodd" clip-rule="evenodd" d="M19.6465 2.00098C19.8096 2.00034 19.9713 2.02814 20.123 2.08496L20.2734 2.15234L20.415 2.2373C20.505 2.29932 20.5869 2.37253 20.6592 2.4541L20.7607 2.58301L20.8457 2.72363C20.8964 2.82022 20.9356 2.92261 20.9619 3.02832L20.9912 3.18945L21.002 3.35254C21.0027 3.51432 20.9739 3.67534 20.918 3.82812L17.9189 12.0752L17.917 12.0811C17.7766 12.4579 17.5246 12.7842 17.1943 13.0146C16.865 13.2443 16.4731 13.3662 16.0713 13.3652L11.75 13.3662V19H15.6309C15.94 18.1266 16.7707 17.5 17.75 17.5C18.9926 17.5 20 18.5074 20 19.75C20 20.9926 18.9926 22 17.75 22C16.7707 22 15.94 21.3734 15.6309 20.5H11.0195C11.013 20.5002 11.0065 20.501 11 20.501C10.9935 20.501 10.987 20.5002 10.9805 20.5H7.36914C7.06001 21.3734 6.22933 22 5.25 22C4.00736 22 3 20.9926 3 19.75C3 18.5074 4.00736 17.5 5.25 17.5C6.22933 17.5 7.06001 18.1266 7.36914 19H10.25V13.3662H5.36133C5.14294 13.3666 4.92768 13.3146 4.73438 13.2139C4.54023 13.1127 4.37405 12.9656 4.24902 12.7871C4.12402 12.6086 4.04333 12.4028 4.01367 12.1875C3.98408 11.9724 4.00568 11.7531 4.07715 11.5479L4.08301 11.5342L7.13086 3.31152C7.26516 2.93525 7.50978 2.60693 7.83398 2.37207C8.16226 2.13441 8.55624 2.00391 8.96191 2L19.6465 2.00098ZM5.25 19C4.83579 19 4.5 19.3358 4.5 19.75C4.5 20.1642 4.83579 20.5 5.25 20.5C5.58763 20.5 5.86886 20.2756 5.96289 19.9688C5.94164 19.8993 5.92773 19.8264 5.92773 19.75C5.92773 19.6732 5.94147 19.6 5.96289 19.5303C5.86857 19.2239 5.58731 19 5.25 19ZM17.75 19C17.3358 19 17 19.3358 17 19.75C17 20.1642 17.3358 20.5 17.75 20.5C18.1642 20.5 18.5 20.1642 18.5 19.75C18.5 19.3358 18.1642 19 17.75 19ZM5.55957 11.8662H16.0742C16.1667 11.8666 16.2589 11.8386 16.3369 11.7842C16.4148 11.7297 16.4759 11.6509 16.5107 11.5576L16.9521 10.3428H6.12402L5.55957 11.8662ZM8.90723 3.50586C8.83852 3.51722 8.77217 3.54476 8.71387 3.58691C8.63603 3.6433 8.57512 3.72435 8.54199 3.81934C8.54042 3.82384 8.53877 3.82853 8.53711 3.83301L6.68066 8.84277H17.498L19.4414 3.5H8.97656L8.90723 3.50586Z" fill="#FAFAFA"/>
</svg>
