<svg width="24" height="24" viewBox="0 0 24 24" fill="none" xmlns="http://www.w3.org/2000/svg">
<path d="M14.7998 11.0508C15.0483 10.7195 15.5192 10.6521 15.8506 10.9004L17.8506 12.4004C17.8638 12.4103 17.8763 12.421 17.8887 12.4316C17.8936 12.4358 17.8985 12.44 17.9033 12.4443C17.9052 12.446 17.9073 12.4475 17.9092 12.4492L17.9512 12.4912L17.9541 12.4951C17.9599 12.5014 17.9652 12.5082 17.9707 12.5146C17.9807 12.5264 17.9906 12.5383 18 12.5508C18.0145 12.5702 18.0277 12.5901 18.04 12.6104C18.0461 12.6202 18.0511 12.6305 18.0566 12.6406C18.0694 12.6639 18.0798 12.6878 18.0898 12.7119C18.1008 12.7382 18.1103 12.7647 18.1182 12.792C18.1236 12.8108 18.1279 12.8296 18.1318 12.8486C18.137 12.8733 18.1409 12.8978 18.1436 12.9229C18.1462 12.9486 18.1475 12.9742 18.1475 13C18.1475 13.0252 18.146 13.05 18.1436 13.0752C18.1415 13.0952 18.1384 13.1149 18.1348 13.1348C18.1296 13.1634 18.1238 13.1917 18.1152 13.2197C18.1097 13.2377 18.1026 13.2549 18.0957 13.2725C18.0716 13.334 18.0425 13.3947 18.001 13.4502C17.964 13.4996 17.9207 13.5416 17.875 13.5791C17.8666 13.586 17.8584 13.593 17.8496 13.5996L15.8506 15.0996C15.5193 15.348 15.0483 15.2814 14.7998 14.9502C14.5516 14.6189 14.6192 14.1489 14.9502 13.9004L15.1504 13.75H9.25L9.4502 13.9004C9.78121 14.1489 9.84881 14.6189 9.60059 14.9502C9.35207 15.2814 8.88114 15.348 8.5498 15.0996L6.55078 13.5996C6.54203 13.593 6.53378 13.586 6.52539 13.5791C6.4797 13.5416 6.43643 13.4996 6.39941 13.4502C6.36498 13.4042 6.33784 13.3551 6.31543 13.3047C6.30906 13.2904 6.30431 13.2755 6.29883 13.2607C6.2938 13.2472 6.28939 13.2335 6.28516 13.2197C6.27906 13.1998 6.27196 13.1804 6.26758 13.1602C6.26429 13.145 6.26213 13.1297 6.25977 13.1143C6.25901 13.1093 6.2575 13.1045 6.25684 13.0996C6.25457 13.0825 6.25305 13.0653 6.25195 13.0479C6.25155 13.0413 6.25121 13.0348 6.25098 13.0283C6.25063 13.0189 6.25 13.0095 6.25 13C6.25 12.9905 6.25063 12.9811 6.25098 12.9717C6.2512 12.9655 6.25157 12.9593 6.25195 12.9531C6.25307 12.935 6.25446 12.9171 6.25684 12.8994C6.25742 12.8952 6.25814 12.891 6.25879 12.8867C6.2617 12.8675 6.26617 12.8488 6.27051 12.8301C6.2731 12.8189 6.27618 12.8079 6.2793 12.7969C6.28561 12.7745 6.29239 12.7523 6.30078 12.7305C6.30611 12.7167 6.31128 12.7029 6.31738 12.6895C6.32424 12.6744 6.33289 12.6602 6.34082 12.6455C6.34917 12.63 6.3577 12.6146 6.36719 12.5996C6.37489 12.5875 6.38225 12.5751 6.39062 12.5635C6.39373 12.5591 6.39718 12.5551 6.40039 12.5508C6.40822 12.5403 6.41655 12.5304 6.4248 12.5205C6.43688 12.5061 6.44862 12.4912 6.46191 12.4775C6.46657 12.4727 6.47178 12.4685 6.47656 12.4639C6.48314 12.4575 6.48924 12.4505 6.49609 12.4443C6.50088 12.44 6.50586 12.4359 6.51074 12.4316C6.52331 12.4208 6.53637 12.4105 6.5498 12.4004L8.5498 10.9004C8.88117 10.6521 9.35212 10.7195 9.60059 11.0508C9.8486 11.382 9.78194 11.8521 9.45117 12.1006L9.25195 12.25H15.1484L14.9492 12.1006C14.6185 11.8521 14.5518 11.382 14.7998 11.0508Z" fill="#FAFAFA"/>
<path fill-rule="evenodd" clip-rule="evenodd" d="M15 3.67578C15.4142 3.67578 15.75 4.01157 15.75 4.42578C15.7497 4.83977 15.4141 5.17578 15 5.17578H12.75V8.00391H17.001L17.2578 8.01074C19.8993 8.14443 22 10.3282 22 13.0029C22 15.433 20.2659 17.4568 17.9678 17.9072V19.5742C17.9678 19.9883 17.6318 20.324 17.2178 20.3242C16.8036 20.3242 16.4678 19.9884 16.4678 19.5742V18.002H7.53223V19.5742C7.53223 19.9884 7.19644 20.3242 6.78223 20.3242C6.36801 20.3242 6.03223 19.9884 6.03223 19.5742V17.9072C3.73413 17.4568 2 15.433 2 13.0029C2 10.3282 4.10067 8.14443 6.74219 8.01074L6.99902 8.00391H11.25V5.17578H9C8.58595 5.17578 8.25026 4.83977 8.25 4.42578C8.25 4.01157 8.58579 3.67578 9 3.67578H15ZM6.99902 9.50391C5.06657 9.50391 3.5 11.0705 3.5 13.0029C3.5 14.9354 5.06657 16.502 6.99902 16.502H17.001C18.9334 16.502 20.5 14.9354 20.5 13.0029C20.5 11.0705 18.9334 9.50391 17.001 9.50391H6.99902Z" fill="#FAFAFA"/>
</svg>
