<svg width="24" height="24" viewBox="0 0 24 24" fill="none" xmlns="http://www.w3.org/2000/svg">
<path fill-rule="evenodd" clip-rule="evenodd" d="M12.8251 3.81104C12.3532 3.39632 11.6468 3.39632 11.1749 3.81104L4.92486 9.30347C4.6548 9.54079 4.5 9.88291 4.5 10.2424V18.5875C4.5 19.2778 5.05964 19.8375 5.75 19.8375H8.75C8.88807 19.8375 9 19.7255 9 19.5875V17.0875C9 15.5687 10.2312 14.3375 11.75 14.3375H12.25C13.7688 14.3375 15 15.5687 15 17.0875V19.5875C15 19.7255 15.1119 19.8375 15.25 19.8375H18.25C18.9404 19.8375 19.5 19.2778 19.5 18.5875V10.2424C19.5 9.88291 19.3452 9.54079 19.0751 9.30347L12.8251 3.81104ZM10.1847 2.6843C11.2229 1.7719 12.7771 1.7719 13.8153 2.6843L20.0653 8.17672C20.6594 8.69883 21 9.45148 21 10.2424V18.5875C21 20.1063 19.7688 21.3375 18.25 21.3375H15.25C14.2835 21.3375 13.5 20.554 13.5 19.5875V17.0875C13.5 16.3971 12.9404 15.8375 12.25 15.8375H11.75C11.0596 15.8375 10.5 16.3971 10.5 17.0875V19.5875C10.5 20.554 9.7165 21.3375 8.75 21.3375H5.75C4.23122 21.3375 3 20.1063 3 18.5875V10.2424C3 9.45148 3.34056 8.69883 3.93468 8.17672L10.1847 2.6843Z" fill="#FAFAFA"/>
</svg>
