<svg width="24" height="24" viewBox="0 0 24 24" fill="none" xmlns="http://www.w3.org/2000/svg">
<path fill-rule="evenodd" clip-rule="evenodd" d="M9.9577 3.8515C9.9577 2.57974 11.441 1.88501 12.418 2.69917L16.9901 6.50925L16.5715 7.01155L16.9901 6.50925C17.7139 7.11246 17.7089 8.22585 16.9797 8.82252L13.0958 12.0002L16.9797 15.1779C17.7089 15.7746 17.7139 16.888 16.9901 17.4912L12.418 21.3013C11.441 22.1154 9.9577 21.4207 9.9577 20.1489V14.5677L5.76597 17.9974C5.44538 18.2596 4.97287 18.2124 4.71057 17.8918C4.44827 17.5712 4.49553 17.0987 4.81611 16.8364L9.9577 12.6297V11.3708L4.81611 7.16402C4.49553 6.90172 4.44827 6.42921 4.71057 6.10862C4.97287 5.78804 5.44538 5.74079 5.76597 6.00308L9.9577 9.43269V3.8515ZM11.9114 11.0312L11.4577 10.66V3.8515L16.0298 7.66158L11.9114 11.0312ZM11.9114 12.9693L11.4577 13.3405V20.1489L16.0298 16.3389L11.9114 12.9693Z" fill="#FAFAFA"/>
</svg>
