<svg width="24" height="24" viewBox="0 0 24 24" fill="none" xmlns="http://www.w3.org/2000/svg">
<path fill-rule="evenodd" clip-rule="evenodd" d="M20.2246 10.6406C20.3527 10.6585 20.4767 10.7011 20.5889 10.7676L20.6963 10.8408C20.7644 10.8945 20.8246 10.9572 20.876 11.0264L20.9453 11.1338L20.9463 11.1357C21.0299 11.287 21.0712 11.4583 21.0674 11.6318L21.0684 11.6328C21.0644 11.8074 21.0137 11.9766 20.9229 12.124L20.9209 12.1279L19.793 13.9326H20.9326C21.0915 13.9361 21.2471 13.9748 21.3887 14.0449L21.5254 14.126L21.6484 14.2256C21.725 14.2975 21.7911 14.3799 21.8438 14.4707L21.9131 14.6133C21.9914 14.8107 22.0094 15.0279 21.9658 15.2354C21.9219 15.4437 21.8175 15.6339 21.667 15.7822C21.6631 15.7861 21.6593 15.7902 21.6553 15.7939L15.2393 21.832C14.9921 22.0644 14.6196 22.1022 14.3311 21.9238C14.0425 21.7454 13.9103 21.3953 14.0078 21.0703L14.9551 17.9092H14.3135C14.1011 17.9092 13.8913 17.8593 13.7012 17.7646C13.5105 17.6698 13.3447 17.532 13.2168 17.3623C13.1209 17.235 13.0477 17.0922 13.001 16.9404L12.9629 16.7861C12.9244 16.5775 12.9347 16.3623 12.9932 16.1582L14.3037 11.5723C14.3809 11.3011 14.5447 11.0624 14.7695 10.8926L14.8564 10.833C15.0636 10.7016 15.3042 10.6309 15.5508 10.6309H20.0957L20.2246 10.6406ZM14.4814 16.4092H15.9639C16.2009 16.4092 16.4239 16.5208 16.5654 16.7109C16.7069 16.901 16.7506 17.1471 16.6826 17.374L16.2471 18.8232L19.8506 15.4326H18.4404C18.1678 15.4326 17.9163 15.2844 17.7842 15.0459C17.6521 14.8075 17.6594 14.5163 17.8037 14.2852L19.1494 12.1309H15.7041L14.4814 16.4092Z" fill="#FAFAFA"/>
<path d="M14.8027 1.96777C15.1809 2.00614 15.4764 2.32563 15.4766 2.71387C15.4766 3.10221 15.181 3.42158 14.8027 3.45996L14.7266 3.46387H12.5879V4.44043H16.0928L16.2266 4.45215C16.5313 4.50745 16.7766 4.74811 16.8311 5.0625L17.1133 6.69434L17.4053 8.15527H19.2666L19.3428 8.15918C19.721 8.1976 20.0166 8.51696 20.0166 8.90527C20.0164 9.29345 19.7209 9.61299 19.3428 9.65137L19.2666 9.65527H16.79C16.4326 9.65523 16.1248 9.40227 16.0547 9.05176L15.6416 6.98828C15.6403 6.98191 15.6398 6.97516 15.6387 6.96875L15.4609 5.94043H8.84668L7.82812 6.95898C7.68754 7.09956 7.49666 7.17864 7.29785 7.17871H5.98438V12.2822H7.29785L7.39746 12.2891C7.62712 12.3199 7.83239 12.4557 7.94922 12.6602L9.38379 15.1709H11.2188C11.6328 15.1711 11.9687 15.5068 11.9688 15.9209C11.9687 16.335 11.6328 16.6707 11.2188 16.6709H8.94824C8.67937 16.6707 8.43133 16.5264 8.29785 16.293L6.8623 13.7822H5.64746C5.37757 13.7822 5.11697 13.688 4.91016 13.5186L4.8252 13.4414C4.60723 13.2234 4.48438 12.9275 4.48438 12.6191V10.4805H3.50781V13.0322C3.50761 13.4463 3.1719 13.7822 2.75781 13.7822C2.34372 13.7822 2.00801 13.4463 2.00781 13.0322V6.42871C2.00781 6.0145 2.3436 5.67871 2.75781 5.67871C3.17203 5.67871 3.50781 6.0145 3.50781 6.42871V8.98047H4.48438V6.8418C4.48438 6.53345 4.60714 6.23759 4.8252 6.01953L4.91016 5.94238C5.11707 5.77282 5.37762 5.67871 5.64746 5.67871H6.9873L8.00586 4.66016L8.12012 4.56641C8.24235 4.48501 8.38711 4.44043 8.53613 4.44043H11.0879V3.46387H8.94824C8.53418 3.46368 8.19824 3.12797 8.19824 2.71387C8.19837 2.29988 8.53427 1.96405 8.94824 1.96387H14.7266L14.8027 1.96777Z" fill="#FAFAFA"/>
</svg>
