<svg width="24" height="24" viewBox="0 0 24 24" fill="none" xmlns="http://www.w3.org/2000/svg">
<path d="M9 12.25C9.41421 12.25 9.75 12.5858 9.75 13V14C9.75 14.4142 9.41421 14.75 9 14.75C8.58579 14.75 8.25 14.4142 8.25 14V13C8.25 12.5858 8.58579 12.25 9 12.25Z" fill="#FAFAFA"/>
<path d="M15 12.25C15.4142 12.25 15.75 12.5858 15.75 13V14C15.75 14.4142 15.4142 14.75 15 14.75C14.5858 14.75 14.25 14.4142 14.25 14V13C14.25 12.5858 14.5858 12.25 15 12.25Z" fill="#FAFAFA"/>
<path d="M12 8.25C12.4142 8.25 12.75 8.58579 12.75 9V10C12.75 10.4142 12.4142 10.75 12 10.75C11.5858 10.75 11.25 10.4142 11.25 10V9C11.25 8.58579 11.5858 8.25 12 8.25Z" fill="#FAFAFA"/>
<path fill-rule="evenodd" clip-rule="evenodd" d="M12.3467 5.00879C14.077 5.09452 15.7194 5.819 16.9502 7.0498C18.2629 8.36256 19 10.1435 19 12L18.9912 12.3467C18.9055 14.077 18.181 15.7194 16.9502 16.9502L16.6982 17.1895C15.4142 18.3521 13.7404 19 12 19L11.6533 18.9912C10.0384 18.9112 8.50032 18.2746 7.30176 17.1895L7.0498 16.9502C5.819 15.7194 5.09452 14.077 5.00879 12.3467L5 12C5 10.2596 5.64794 8.58582 6.81055 7.30176L7.0498 7.0498C8.36256 5.73705 10.1435 5 12 5L12.3467 5.00879ZM12 6.5C10.5413 6.5 9.14278 7.07988 8.11133 8.11133C7.14428 9.07837 6.57421 10.368 6.50684 11.7275L6.5 12C6.5 13.4587 7.07988 14.8572 8.11133 15.8887C9.14278 16.9201 10.5413 17.5 12 17.5C13.4587 17.5 14.8572 16.9201 15.8887 15.8887C16.8557 14.9216 17.4258 13.632 17.4932 12.2725L17.5 12C17.5 10.5413 16.9201 9.14278 15.8887 8.11133C14.9216 7.14428 13.632 6.57421 12.2725 6.50684L12 6.5Z" fill="#FAFAFA"/>
<path fill-rule="evenodd" clip-rule="evenodd" d="M19.1543 2.00391C20.7394 2.08421 22 3.39489 22 5V19L21.9961 19.1543C21.9184 20.6883 20.6883 21.9184 19.1543 21.9961L19 22H5L4.8457 21.9961C3.31166 21.9184 2.08163 20.6883 2.00391 19.1543L2 19V5C2 3.39489 3.26055 2.08421 4.8457 2.00391L5 2H19L19.1543 2.00391ZM5 3.5C4.17157 3.5 3.5 4.17157 3.5 5V19C3.5 19.8284 4.17157 20.5 5 20.5H19C19.8284 20.5 20.5 19.8284 20.5 19V5C20.5 4.17157 19.8284 3.5 19 3.5H5Z" fill="#FAFAFA"/>
</svg>
