<svg width="24" height="24" viewBox="0 0 24 24" fill="none" xmlns="http://www.w3.org/2000/svg">
<path d="M6.75 20.25V16.5C6.75 16.2875 6.8219 16.1094 6.96575 15.9655C7.1094 15.8218 7.2875 15.75 7.5 15.75H11.25V12C11.25 11.7875 11.3219 11.6094 11.4657 11.4655C11.6094 11.3218 11.7875 11.25 12 11.25H15.75V7.5C15.75 7.2875 15.8219 7.10935 15.9657 6.9655C16.1094 6.82185 16.2875 6.75 16.5 6.75H20.25V3.75C20.25 3.5375 20.3223 3.35934 20.467 3.2155C20.6115 3.07184 20.7906 3 21.0045 3C21.2181 3 21.3959 3.07184 21.5375 3.2155C21.6791 3.35934 21.75 3.5375 21.75 3.75V7.5C21.75 7.7125 21.6782 7.8906 21.5345 8.03425C21.3906 8.1781 21.2125 8.25 21 8.25H17.25V12C17.25 12.2125 17.1782 12.3906 17.0345 12.5343C16.8906 12.6781 16.7125 12.75 16.5 12.75H12.75V16.5C12.75 16.7125 12.6782 16.8906 12.5345 17.0343C12.3906 17.1781 12.2125 17.25 12 17.25H8.25V21C8.25 21.2125 8.17815 21.3906 8.0345 21.5343C7.89065 21.6781 7.7125 21.75 7.5 21.75H3.75C3.5375 21.75 3.35941 21.6777 3.21575 21.533C3.07191 21.3885 3 21.2094 3 20.9955C3 20.7819 3.07191 20.6041 3.21575 20.4625C3.35941 20.3209 3.5375 20.25 3.75 20.25H6.75Z" fill="#FAFAFA"/>
</svg>
