<svg width="24" height="24" viewBox="0 0 24 24" fill="none" xmlns="http://www.w3.org/2000/svg">
<path fill-rule="evenodd" clip-rule="evenodd" d="M11.5021 8.96495C11.8706 8.96495 12.1694 9.2838 12.1694 9.67711V15.2298C12.4325 15.3327 12.6755 15.4936 12.8774 15.7092C13.2421 16.0984 13.4473 16.6268 13.4474 17.1771C13.4473 17.7271 13.2416 18.2541 12.8774 18.6432L12.8783 18.6441C12.5137 19.0334 12.0184 19.2522 11.503 19.2524C11.0518 19.2524 10.6163 19.0849 10.2702 18.7823L10.1277 18.6441C9.76306 18.2549 9.55787 17.7274 9.55776 17.1771C9.55782 16.6267 9.763 16.0984 10.1277 15.7092C10.3296 15.4939 10.5719 15.3326 10.8349 15.2298V9.67711C10.8349 9.2838 11.1336 8.96496 11.5021 8.96495ZM11.5021 16.5261C11.5004 16.5261 11.4987 16.5252 11.4969 16.5252C11.3373 16.5268 11.1843 16.5957 11.0712 16.7162C10.9568 16.8383 10.8923 17.0044 10.8922 17.1771C10.8923 17.3497 10.9569 17.515 11.0712 17.6371L11.1642 17.7187C11.2636 17.7893 11.3817 17.8281 11.503 17.8281C11.6647 17.8279 11.8197 17.759 11.9339 17.6371L12.0104 17.5378C12.0765 17.4318 12.1128 17.3063 12.1129 17.1771C12.1128 17.0045 12.0483 16.8383 11.9339 16.7162C11.8209 16.5956 11.6679 16.5269 11.5082 16.5252C11.5062 16.5252 11.5042 16.5261 11.5021 16.5261Z" fill="#FAFAFA"/>
<path fill-rule="evenodd" clip-rule="evenodd" d="M11.5004 2C12.3546 2.0002 13.1743 2.36241 13.7784 3.00705L13.8887 3.13131C14.4239 3.7622 14.7228 4.58438 14.7228 5.43935V13.8453C15.2841 14.4602 15.6825 15.2262 15.8731 16.0644L15.9408 16.4204C16.0691 17.2561 15.9882 18.1161 15.7037 18.9112C15.4191 19.7062 14.9423 20.404 14.3249 20.9355L14.0521 21.1534C13.3016 21.7049 12.4114 21.9999 11.5004 22C10.7032 22 9.92185 21.774 9.23631 21.3481L8.94786 21.1534C8.19737 20.6019 7.62151 19.8197 7.29627 18.9112L7.18681 18.5662C6.96063 17.7547 6.93885 16.8914 7.12686 16.0644L7.21982 15.7138C7.43311 15.0126 7.79572 14.3735 8.27802 13.8453V5.43935C8.27805 4.52719 8.61722 3.65204 9.22154 3.00705L9.33709 2.89021C9.92823 2.31887 10.6991 2 11.5004 2ZM11.5004 3.42433C11.0623 3.42433 10.6391 3.58679 10.3032 3.88056L10.1651 4.0141C9.81101 4.39197 9.61252 4.90494 9.6125 5.43935V14.1476C9.6125 14.35 9.5312 14.543 9.39008 14.678C8.97207 15.0771 8.66147 15.587 8.48914 16.1534L8.42398 16.4C8.29167 16.9819 8.30659 17.5891 8.46568 18.1601L8.543 18.4021L8.63683 18.6376C8.87479 19.1763 9.2427 19.6399 9.70459 19.9794L9.90702 20.1167C10.3894 20.4164 10.9394 20.5757 11.5004 20.5757C12.1413 20.5755 12.7675 20.3674 13.2953 19.9794L13.4873 19.8264C13.9215 19.4526 14.2569 18.962 14.4569 18.403L14.5343 18.1601C14.6706 17.6706 14.7011 17.1543 14.6237 16.6504L14.5768 16.4C14.4445 15.8182 14.1694 15.2857 13.7827 14.8561L13.6107 14.679C13.4692 14.5439 13.3883 14.3503 13.3883 14.1476V5.43935C13.3883 4.90505 13.1887 4.39284 12.8349 4.01502C12.481 3.63751 12.0007 3.42453 11.5004 3.42433Z" fill="#FAFAFA"/>
</svg>
