<svg width="24" height="24" viewBox="0 0 24 24" fill="none" xmlns="http://www.w3.org/2000/svg">
<path fill-rule="evenodd" clip-rule="evenodd" d="M4.2627 8.41509C4.72045 7.96393 5.41558 7.98736 5.87109 8.34966L5.96484 8.43267L8.95605 11.3614L9.94824 10.3692C10.2411 10.0759 10.7159 10.076 11.0088 10.3692C11.3016 10.6625 11.3016 11.1374 11.0088 11.4307L10.0283 12.4122L12.9834 15.3057C13.4619 15.7746 13.5188 16.611 12.9365 17.1065C12.4668 17.5061 11.9388 17.8338 11.3701 18.0772C10.7947 18.3235 10.1859 18.4786 9.56543 18.5411V20.4981H21C21.4142 20.4981 21.7499 20.8343 21.75 21.2491C21.75 21.6639 21.4142 22 21 22H2.5C2.08579 22 1.75 21.6639 1.75 21.2491C1.75006 20.8343 2.08582 20.4981 2.5 20.4981H3.30762L5.00977 17.1436C4.88428 17.0389 4.76164 16.9302 4.64453 16.8155C4.06645 16.2493 3.6049 15.5747 3.28711 14.8301C2.96935 14.0855 2.80112 13.2853 2.79199 12.4756C2.78292 11.6659 2.93342 10.862 3.23438 10.1104C3.4646 9.53559 3.77969 8.99883 4.16797 8.51958L4.2627 8.41509ZM4.99023 20.4981H8.06543V18.5079C7.58395 18.4378 7.11083 18.3121 6.65723 18.1299C6.52842 18.0782 6.40205 18.0212 6.27734 17.961L4.99023 20.4981ZM5.13867 9.72368C4.93271 10.0172 4.76095 10.3354 4.62695 10.67C4.39941 11.2383 4.28519 11.8458 4.29199 12.4581C4.29887 13.0705 4.42572 13.6761 4.66602 14.2393C4.90643 14.8026 5.25599 15.3139 5.69336 15.7422C6.1306 16.1703 6.64832 16.5084 7.21582 16.7364C7.78334 16.9643 8.39055 17.0782 9.00195 17.0713C9.61342 17.0645 10.218 16.937 10.7803 16.6963C11.1112 16.5547 11.4235 16.3739 11.7119 16.1612L5.13867 9.72368Z" fill="#FAFAFA"/>
<path fill-rule="evenodd" clip-rule="evenodd" d="M16.5 2.00005L16.7832 2.01079C16.8755 2.0178 16.9674 2.02826 17.0586 2.04204C17.0648 2.04298 17.071 2.044 17.0771 2.04497C17.1575 2.05752 17.2372 2.07314 17.3164 2.09087C17.3397 2.09608 17.3626 2.10279 17.3857 2.10845C17.449 2.12389 17.5119 2.14051 17.5742 2.15923C17.6013 2.16738 17.6283 2.17585 17.6553 2.18462C17.7104 2.20255 17.7651 2.22175 17.8193 2.24224C17.8507 2.25408 17.8821 2.26568 17.9131 2.27837C17.9691 2.30124 18.0242 2.32601 18.0791 2.35161C18.1039 2.36319 18.1288 2.37463 18.1533 2.38677C18.2141 2.41679 18.2738 2.44909 18.333 2.48247C18.352 2.49319 18.3718 2.50265 18.3906 2.51372C18.4683 2.55934 18.5446 2.60783 18.6191 2.65923C18.6971 2.71295 18.7724 2.76997 18.8457 2.82915C18.9189 2.88827 18.9903 2.94947 19.0586 3.01372C19.4689 3.39952 19.7886 3.87535 19.9912 4.4063C20.1199 4.45035 20.2441 4.50443 20.3633 4.56743C20.4828 4.63057 20.5971 4.70258 20.7051 4.78325C20.8126 4.86364 20.9137 4.95256 21.0078 5.04888C21.0551 5.09725 21.101 5.14715 21.1445 5.19927C21.1879 5.25116 21.2292 5.30498 21.2686 5.3604C21.308 5.41594 21.3451 5.47315 21.3799 5.5313C21.554 5.82212 21.6698 6.14362 21.7207 6.47759C21.741 6.61094 21.7506 6.74673 21.75 6.88286C21.7499 6.96998 21.7459 7.05669 21.7373 7.14263C21.6942 7.57224 21.5465 7.98383 21.3086 8.34087C21.2135 8.48361 21.1034 8.61716 20.9805 8.74028L20.7881 8.91509C20.7276 8.96476 20.6639 9.0099 20.5996 9.05376C20.5832 9.06491 20.5664 9.07522 20.5498 9.08599C20.499 9.119 20.4474 9.15038 20.3945 9.17974C20.375 9.19056 20.3557 9.20164 20.3359 9.21196C20.1996 9.28318 20.0577 9.3424 19.9111 9.38872C19.8895 9.39554 19.8675 9.40101 19.8457 9.40727C19.7883 9.4238 19.7304 9.43864 19.6719 9.45122C19.6556 9.45472 19.6394 9.45878 19.623 9.46196C19.5443 9.47731 19.465 9.491 19.3848 9.49907L19.125 9.51177H13.5C13.4004 9.51177 13.3013 9.5069 13.2031 9.49712C13.1144 9.48828 13.0266 9.47369 12.9395 9.45708C12.9152 9.45246 12.8913 9.44667 12.8672 9.44145C12.8028 9.42751 12.739 9.41172 12.6758 9.3936C12.65 9.38622 12.6242 9.37921 12.5986 9.37114C12.4306 9.31806 12.2675 9.25074 12.1113 9.16899C12.0878 9.15669 12.0652 9.14286 12.042 9.12993C11.9873 9.09942 11.9337 9.0672 11.8809 9.03325C11.8581 9.0186 11.8349 9.00459 11.8125 8.98931C11.8001 8.98082 11.7867 8.97357 11.7744 8.96489L11.5986 8.8311C11.5225 8.76863 11.4491 8.70219 11.3789 8.63188C10.8163 8.06842 10.5 7.30374 10.5 6.50688C10.5 6.47097 10.5036 6.43523 10.5049 6.39946C10.5069 6.34228 10.5084 6.28527 10.5137 6.22856C10.5182 6.18004 10.5264 6.13212 10.5332 6.08403C10.5397 6.03863 10.5452 5.99323 10.5537 5.94829C10.5602 5.91417 10.5686 5.88055 10.5762 5.84673C10.5889 5.79032 10.6023 5.73424 10.6182 5.67876C10.6283 5.64338 10.639 5.60824 10.6504 5.57329C10.6679 5.5197 10.6866 5.4666 10.707 5.41411C10.7201 5.38064 10.7338 5.34748 10.748 5.3145C10.7722 5.2586 10.7987 5.20383 10.8262 5.14946C10.8405 5.12114 10.8539 5.09237 10.8691 5.0645C10.9012 5.00584 10.9367 4.94914 10.9727 4.89263C10.9868 4.87046 10.999 4.84705 11.0137 4.82524C11.0653 4.74868 11.1209 4.67445 11.1797 4.60259L11.3789 4.38286C11.4433 4.31835 11.5107 4.25721 11.5801 4.19927C11.6131 4.17171 11.6476 4.1462 11.6816 4.12017C11.722 4.0893 11.762 4.05804 11.8037 4.02935C11.8374 4.0062 11.8727 3.98562 11.9072 3.96392C11.9511 3.93636 11.9949 3.90904 12.04 3.88384C12.0761 3.86373 12.1126 3.84481 12.1494 3.82622C12.1951 3.80313 12.2413 3.7815 12.2881 3.76079C12.3263 3.74389 12.3645 3.72725 12.4033 3.71196C12.4551 3.69157 12.5077 3.67378 12.5605 3.6563C12.5928 3.64563 12.6246 3.63364 12.6572 3.62407C12.7184 3.60611 12.7804 3.59124 12.8428 3.5772C12.872 3.57061 12.9012 3.56338 12.9307 3.55767C13.0206 3.54024 13.1114 3.52578 13.2031 3.51665L13.5 3.502H13.5625C13.8965 3.03485 14.3377 2.65495 14.8486 2.3936C14.9763 2.32829 15.1073 2.27008 15.2412 2.22075C15.6431 2.07261 16.0695 1.99782 16.5 2.00005ZM16.2988 3.51372C16.1878 3.52467 16.0778 3.54381 15.9697 3.57134C15.8078 3.61265 15.6501 3.67253 15.5 3.75005L15.3867 3.81352C15.0377 4.02054 14.7501 4.31878 14.5586 4.67876L14.3359 5.00493H13.5L13.3516 5.01274C13.0084 5.04693 12.6855 5.19804 12.4395 5.44438L12.3398 5.55571C12.3269 5.57157 12.315 5.58821 12.3027 5.60454C12.1082 5.86341 12 6.17915 12 6.50688C12 6.56463 12.0042 6.62195 12.0107 6.67876C12.0178 6.74013 12.0286 6.80075 12.043 6.8604C12.1073 7.12646 12.243 7.37261 12.4395 7.56938C12.7207 7.85101 13.1023 8.00884 13.5 8.00884H19.125C19.1623 8.00879 19.1995 8.00766 19.2363 8.00395C19.4571 7.98175 19.6663 7.89396 19.8379 7.75298C19.8663 7.72965 19.8937 7.70498 19.9199 7.67876C19.9552 7.6434 19.9866 7.60474 20.0166 7.56548C20.1658 7.37023 20.2496 7.13143 20.25 6.88286C20.2505 6.61358 20.1537 6.35293 19.9775 6.14946C19.8572 6.01045 19.7052 5.90513 19.5361 5.83989C19.4888 5.82161 19.4404 5.8057 19.3906 5.79399L19.292 5.77544L18.7959 5.70122L18.6748 5.21392C18.6581 5.14296 18.6367 5.07351 18.6133 5.00493C18.4917 4.64895 18.2826 4.32792 18.002 4.07427C17.7731 3.86743 17.5045 3.71261 17.2148 3.61626C17.134 3.5894 17.0516 3.56634 16.9678 3.54888L16.8018 3.52056C16.6341 3.49876 16.4653 3.49721 16.2988 3.51372Z" fill="#FAFAFA"/>
</svg>
