<svg width="24" height="24" viewBox="0 0 24 24" fill="none" xmlns="http://www.w3.org/2000/svg">
<path d="M11.4697 8.18848C11.7626 7.89558 12.2374 7.89558 12.5303 8.18848L15.8115 11.4697C15.8599 11.5181 15.8973 11.5732 15.9297 11.6299C15.9452 11.657 15.9615 11.6838 15.9736 11.7129C15.9943 11.7629 16.0091 11.8146 16.0186 11.8672C16.0263 11.9103 16.0312 11.9546 16.0312 12C16.0312 12.045 16.0262 12.089 16.0186 12.1318C16.0092 12.1845 15.9943 12.2361 15.9736 12.2861C15.9649 12.3073 15.9529 12.3266 15.9424 12.3467C15.908 12.4121 15.8665 12.4753 15.8115 12.5303L12.5303 15.8115C12.2374 16.1044 11.7626 16.1044 11.4697 15.8115C11.1768 15.5186 11.1768 15.0439 11.4697 14.751L13.4707 12.75H8.25C7.83579 12.75 7.5 12.4142 7.5 12C7.5 11.5858 7.83579 11.25 8.25 11.25H13.4707L11.4697 9.24902C11.1768 8.95613 11.1768 8.48137 11.4697 8.18848Z" fill="#FAFAFA"/>
<path fill-rule="evenodd" clip-rule="evenodd" d="M12 2.81348C12.4122 2.81348 12.8099 2.95691 13.126 3.21582L13.2559 3.33301L20.668 10.7451C21.0005 11.0781 21.1874 11.5294 21.1875 12C21.1875 12.4708 21.0006 12.9228 20.668 13.2559L13.2568 20.667C12.6064 21.3174 11.5766 21.3592 10.8789 20.7891L10.7441 20.667L3.33203 13.2559C2.99814 12.9215 2.81348 12.469 2.81348 12C2.8136 11.5294 3.00047 11.0781 3.33301 10.7451L10.7451 3.33301C11.0781 3.00047 11.5294 2.8136 12 2.81348ZM12 4.31348C11.9268 4.31359 11.8564 4.34282 11.8047 4.39453L4.39453 11.8047C4.34282 11.8564 4.31359 11.9268 4.31348 12C4.31348 12.0747 4.34246 12.1448 4.39258 12.1953L11.8057 19.6074C11.9126 19.7146 12.0866 19.715 12.1953 19.6064L19.6064 12.1953C19.6581 12.1435 19.6875 12.0732 19.6875 12C19.6874 11.9268 19.6582 11.8564 19.6064 11.8047L12.1953 4.39453C12.1435 4.34317 12.073 4.31348 12 4.31348Z" fill="#FAFAFA"/>
</svg>
