<svg width="24" height="24" viewBox="0 0 24 24" fill="none" xmlns="http://www.w3.org/2000/svg">
<path d="M12 17.3799C12.5845 17.3799 13.0585 17.854 13.0586 18.4385C13.0585 19.0229 12.5844 19.4961 12 19.4961C11.4523 19.496 11.0017 19.0803 10.9473 18.5469L10.9414 18.4385L10.9473 18.3301C11.0015 17.7965 11.4521 17.3799 12 17.3799Z" fill="#FAFAFA"/>
<path d="M13.4062 4.5C13.8205 4.5 14.1562 4.83579 14.1562 5.25C14.1562 5.66421 13.8205 6 13.4062 6H10.5938C10.1795 6 9.84375 5.66421 9.84375 5.25C9.84375 4.83579 10.1795 4.5 10.5938 4.5H13.4062Z" fill="#FAFAFA"/>
<path fill-rule="evenodd" clip-rule="evenodd" d="M17.25 2C18.7688 2 20 3.23122 20 4.75V19.25C20 20.7688 18.7688 22 17.25 22H6.75C5.23122 22 4 20.7688 4 19.25V4.75C4 3.23122 5.23122 2 6.75 2H17.25ZM6.75 3.5C6.05964 3.5 5.5 4.05964 5.5 4.75V19.25C5.5 19.9404 6.05964 20.5 6.75 20.5H17.25C17.9404 20.5 18.5 19.9404 18.5 19.25V4.75C18.5 4.05964 17.9404 3.5 17.25 3.5H6.75Z" fill="#FAFAFA"/>
</svg>
