<svg width="24" height="24" viewBox="0 0 24 24" fill="none" xmlns="http://www.w3.org/2000/svg">
<path fill-rule="evenodd" clip-rule="evenodd" d="M18 16.5962C18 19.9099 15.3137 22.5962 12 22.5962C8.68629 22.5962 6 19.9099 6 16.5962V11.5962C6 8.28248 8.68629 5.59619 12 5.59619C15.3137 5.59619 18 8.28248 18 11.5962V16.5962ZM12 21.0962C14.4853 21.0962 16.5 19.0815 16.5 16.5962V11.5962C16.5 9.11091 14.4853 7.09619 12 7.09619C9.51472 7.09619 7.5 9.11091 7.5 11.5962V16.5962C7.5 19.0815 9.51472 21.0962 12 21.0962ZM12 18.5962C11.5858 18.5962 11.25 18.2604 11.25 17.8462V15.3462C11.25 14.932 11.5858 14.5962 12 14.5962C12.4142 14.5962 12.75 14.932 12.75 15.3462V17.8462C12.75 18.2604 12.4142 18.5962 12 18.5962ZM15.624 3.76222C15.3943 4.10686 14.9286 4.19999 14.584 3.97023L12.6934 2.70983C12.2735 2.42991 11.7265 2.42991 11.3066 2.70983L9.41603 3.97023C9.07138 4.19999 8.60573 4.10686 8.37596 3.76222C8.1462 3.41757 8.23933 2.95192 8.58397 2.72215L10.4746 1.46175C11.3983 0.845936 12.6017 0.84594 13.5254 1.46175L15.416 2.72215C15.7607 2.95192 15.8538 3.41757 15.624 3.76222Z" fill="#FAFAFA"/>
</svg>
