<svg width="24" height="24" viewBox="0 0 24 24" fill="none" xmlns="http://www.w3.org/2000/svg">
<path fill-rule="evenodd" clip-rule="evenodd" d="M2 6.75C2 5.23122 3.23122 4 4.75 4H19.25C20.7688 4 22 5.23122 22 6.75V17.25C22 18.7688 20.7688 20 19.25 20H4.75C3.23122 20 2 18.7688 2 17.25V6.75ZM4.75 5.5C4.05964 5.5 3.5 6.05964 3.5 6.75V17.25C3.5 17.9404 4.05964 18.5 4.75 18.5H19.25C19.9404 18.5 20.5 17.9404 20.5 17.25V6.75C20.5 6.05964 19.9404 5.5 19.25 5.5H4.75Z" fill="#FAFAFA"/>
<path d="M12.3113 15.7378V8.26221H13.872V11.8278L16.5656 8.26221H18.2873L15.5104 11.789L18.4762 15.7378H16.6878L13.872 11.9111V15.7378H12.3113Z" fill="#FAFAFA"/>
<path d="M8.87313 15.7378V14.3993H5.56299V13.1497L8.87869 8.44548H10.3394V13.1885H11.3113V14.3993H10.3394V15.7378H8.87313ZM6.90149 13.1885H8.90646V10.3227L6.90149 13.1885Z" fill="#FAFAFA"/>
</svg>
