<svg width="24" height="24" viewBox="0 0 24 24" fill="none" xmlns="http://www.w3.org/2000/svg">
<path d="M8.25 7.4998C8.94619 7.4998 9.61416 7.77608 10.1064 8.26836C10.5987 8.76063 10.875 9.42867 10.875 10.1248C10.8749 10.5389 10.5391 10.8748 10.125 10.8748C9.71087 10.8748 9.37513 10.5389 9.375 10.1248C9.375 9.82649 9.2568 9.53987 9.0459 9.32891C8.83492 9.11793 8.54837 8.9998 8.25 8.9998C7.95163 8.9998 7.66508 9.11793 7.4541 9.32891C7.2432 9.53987 7.125 9.82649 7.125 10.1248C7.12487 10.5389 6.78913 10.8748 6.375 10.8748C5.96087 10.8748 5.62513 10.5389 5.625 10.1248C5.625 9.42867 5.90135 8.76063 6.39355 8.26836C6.88584 7.77608 7.55381 7.4998 8.25 7.4998Z" fill="#FAFAFA"/>
<path fill-rule="evenodd" clip-rule="evenodd" d="M7.95605 2.87285C8.17507 2.77944 8.42802 2.79425 8.63574 2.91875L12.3525 5.14922C13.1807 5.64623 13.6875 6.54177 13.6875 7.50762V12.2322C14.8908 12.378 15.7605 12.8808 16.3936 13.6219C17.1073 14.4575 17.4662 15.5398 17.7549 16.4637C18.0643 17.4538 18.2941 18.2542 18.6973 18.8406C18.8854 19.1142 19.0976 19.3162 19.3545 19.4539C19.6113 19.5915 19.9545 19.6873 20.4375 19.6873C20.8517 19.6873 21.1875 20.0231 21.1875 20.4373C21.1874 20.8514 20.8517 21.1873 20.4375 21.1873C19.7487 21.1873 19.1541 21.0487 18.6455 20.7762C18.1373 20.5038 17.7561 20.1195 17.4609 19.6902C16.8974 18.8705 16.5997 17.7956 16.3232 16.9109C16.0261 15.96 15.7402 15.167 15.2529 14.5965C14.9112 14.1964 14.4398 13.8732 13.6875 13.7459V20.4373C13.6874 20.8514 13.3517 21.1873 12.9375 21.1873C12.5233 21.1873 12.1876 20.8514 12.1875 20.4373V14.6248H9V20.4373C8.9999 20.8514 8.66415 21.1873 8.25 21.1873C7.83585 21.1873 7.5001 20.8514 7.5 20.4373V14.6248H4.3125V20.4373C4.3124 20.8514 3.97665 21.1873 3.5625 21.1873C3.14835 21.1873 2.8126 20.8514 2.8125 20.4373V7.50762C2.81252 6.54177 3.31932 5.64623 4.14746 5.14922L7.86426 2.91875L7.95605 2.87285ZM4.91895 6.43535C4.5427 6.66129 4.31252 7.06872 4.3125 7.50762V13.1248H12.1875V7.50762C12.1875 7.06872 11.9573 6.66129 11.5811 6.43535L8.25 4.43633L4.91895 6.43535Z" fill="#FAFAFA"/>
</svg>
