<svg width="24" height="24" viewBox="0 0 24 24" fill="none" xmlns="http://www.w3.org/2000/svg">
<path d="M7.93457 7.93474C8.22748 7.64203 8.70229 7.64191 8.99512 7.93474C9.28768 8.22759 9.28773 8.70247 8.99512 8.99529C8.19822 9.79222 7.7501 10.8732 7.75 12.0002C7.75004 13.1273 8.19812 14.209 8.99512 15.006C9.28761 15.2989 9.28781 15.7738 8.99512 16.0666C8.70234 16.3593 8.22747 16.3591 7.93457 16.0666C7.03464 15.1666 6.46513 13.9984 6.30078 12.7502H3C2.58584 12.7502 2.25008 12.4143 2.25 12.0002C2.25 11.586 2.58579 11.2502 3 11.2502H6.30078C6.46514 10.0022 7.03471 8.83463 7.93457 7.93474Z" fill="#FAFAFA"/>
<path d="M15.0049 7.93376C15.2977 7.64116 15.7726 7.64128 16.0654 7.93376C16.9654 8.83378 17.5349 10.002 17.6992 11.2502H21C21.4142 11.2502 21.75 11.586 21.75 12.0002C21.7499 12.4143 21.4142 12.7502 21 12.7502H17.6992C17.5348 13.9981 16.9651 15.1658 16.0654 16.0656C15.7725 16.3582 15.2977 16.3584 15.0049 16.0656C14.7123 15.7728 14.7124 15.2979 15.0049 15.0051C15.8018 14.208 16.25 13.1263 16.25 11.9992C16.2498 10.8723 15.8017 9.79117 15.0049 8.99431C14.7124 8.70145 14.7123 8.22655 15.0049 7.93376Z" fill="#FAFAFA"/>
<path d="M12 9.25017C12.4142 9.25017 12.75 9.58596 12.75 10.0002V11.2502H14C14.4142 11.2502 14.75 11.586 14.75 12.0002C14.7499 12.4143 14.4142 12.7502 14 12.7502H12.75V14.0002C12.7499 14.4143 12.4142 14.7502 12 14.7502C11.5858 14.7502 11.2501 14.4143 11.25 14.0002V12.7502H10C9.58584 12.7502 9.25008 12.4143 9.25 12.0002C9.25 11.586 9.58579 11.2502 10 11.2502H11.25V10.0002C11.25 9.58596 11.5858 9.25017 12 9.25017Z" fill="#FAFAFA"/>
</svg>
