<svg width="48" height="48" viewBox="0 0 48 48" fill="none" xmlns="http://www.w3.org/2000/svg">
<path fill-rule="evenodd" clip-rule="evenodd" d="M23.9941 5.51172C25.1301 5.51179 26.1119 6.03067 26.8965 6.74414C27.6747 7.45208 28.3363 8.4157 28.8926 9.50977C29.8799 11.4517 30.6382 14.0122 31.0996 16.8926C34.0119 17.3534 36.5774 18.1114 38.5156 19.1016C39.607 19.6592 40.5655 20.3227 41.2676 21.1035C41.9761 21.8915 42.4824 22.8714 42.4824 24C42.4822 25.1965 41.925 26.2226 41.1523 27.0391C40.3864 27.8482 39.3407 28.5293 38.1523 29.0977C37.4053 29.4545 36.5098 29.1394 36.1523 28.3926C35.7949 27.6452 36.112 26.7481 36.8594 26.3906C37.8513 25.9161 38.5457 25.4276 38.9727 24.9766C39.392 24.5336 39.4822 24.2093 39.4824 24C39.4824 23.817 39.407 23.5208 39.0371 23.1094C38.6608 22.6908 38.0438 22.229 37.1523 21.7734C35.7439 21.0538 33.8098 20.4353 31.498 20.0059C31.5371 20.4298 31.5716 20.8542 31.5957 21.2793L31.6406 22.3789L31.6367 22.5332C31.58 23.2911 30.9577 23.897 30.1816 23.918C29.4057 23.9385 28.7516 23.3669 28.6543 22.6133L28.6426 22.459L28.5996 21.4492C28.5637 20.8156 28.507 20.1834 28.4355 19.5527C27.3631 19.4383 26.2869 19.3651 25.209 19.3359L23.998 19.3203C23.9883 19.3203 23.9785 19.3205 23.9688 19.3203C22.4969 19.2946 21.0249 19.3553 19.5605 19.5C19.3908 20.991 19.3066 22.491 19.3145 23.9922V24.0078C19.3071 25.4041 19.3773 26.7995 19.5234 28.1875L19.5469 28.3867C20.5018 28.4925 21.4612 28.5592 22.4219 28.584H25.2109L24.4727 27.748L24.377 27.627C23.9337 27.0097 24.0204 26.1454 24.6016 25.6309C25.1832 25.1165 26.0527 25.135 26.6113 25.6504L26.7188 25.7598L29.748 29.1855L29.9141 29.4121C30.1956 29.8843 30.1961 30.4773 29.9141 30.9492L29.748 31.1738L26.7188 34.5996C26.17 35.2197 25.222 35.2787 24.6016 34.7305C23.981 34.1818 23.9242 33.2339 24.4727 32.6133L25.3828 31.584H22.3828L22.3438 31.582C21.5565 31.5617 20.7705 31.5133 19.9863 31.4434C20.4134 33.7846 21.0306 35.74 21.752 37.1602C22.7215 39.0686 23.5818 39.4879 23.9941 39.4883C24.2033 39.4882 24.5278 39.3974 24.9707 38.9785C25.4218 38.5514 25.9121 37.8556 26.3867 36.8633L27.7383 37.5117L29.0918 38.1582C28.5235 39.3465 27.8422 40.3903 27.0332 41.1562C26.2166 41.9291 25.1909 42.4882 23.9941 42.4883C21.7359 42.488 20.1229 40.5743 19.0781 38.5176C18.087 36.5662 17.3365 33.9806 16.8789 31.0488C13.945 30.5887 11.36 29.8301 9.41016 28.834C8.31874 28.2763 7.36031 27.6129 6.6582 26.832C5.9497 26.044 5.44338 25.0641 5.44336 23.9355C5.44355 22.7997 5.96239 21.8197 6.67578 21.0352C7.38385 20.2566 8.34691 19.5936 9.44141 19.0371C11.4 18.0413 13.9878 17.2768 16.8984 16.8164C17.3604 13.9364 18.1144 11.3994 19.0957 9.47852C19.6533 8.38731 20.317 7.42863 21.0977 6.72656C21.8855 6.01815 22.8658 5.51189 23.9941 5.51172ZM16.502 19.9316C14.1861 20.3609 12.23 20.9843 10.8008 21.7109C9.9024 22.1677 9.27725 22.6319 8.89453 23.0527C8.5179 23.4669 8.44354 23.7601 8.44336 23.9355C8.44338 24.1185 8.51888 24.4148 8.88867 24.8262C9.26511 25.2448 9.88361 25.7064 10.7754 26.1621C12.1964 26.888 14.1516 27.5117 16.4902 27.9414C16.3702 26.6287 16.3076 25.3109 16.3145 23.9922C16.3079 22.636 16.3743 21.2811 16.502 19.9316ZM23.9941 8.51172C23.8111 8.51187 23.5146 8.5874 23.1035 8.95703C22.6849 9.33349 22.2231 9.95215 21.7676 10.8438C21.0526 12.2433 20.437 14.1613 20.0078 16.4531C21.3322 16.3466 22.6609 16.3 23.9902 16.3223C23.9998 16.3224 24.0119 16.3201 24.0215 16.3203L24.0195 16.3223C25.3099 16.3198 26.5996 16.3731 27.8848 16.4844L27.9824 16.4941C27.5536 14.2117 26.9374 12.2826 26.2188 10.8691C25.762 9.97095 25.2977 9.34556 24.877 8.96289C24.4627 8.58636 24.1694 8.51179 23.9941 8.51172Z" fill="#FAFAFA"/>
<path d="M26.3867 36.8633C26.7443 36.1167 27.6397 35.8013 28.3867 36.1582C29.1338 36.5158 29.4492 37.411 29.0918 38.1582L26.3867 36.8633Z" fill="#FAFAFA"/>
</svg>
