<svg width="24" height="24" viewBox="0 0 24 24" fill="none" xmlns="http://www.w3.org/2000/svg">
<path fill-rule="evenodd" clip-rule="evenodd" d="M19.9902 9.91309C20.218 9.92901 20.4287 10.031 20.583 10.2021C20.6829 10.3131 20.7408 10.4326 20.7754 10.5293L20.8037 10.6172L20.8047 10.6221L21.1865 12.0566L21.1924 12.0811C21.3524 12.7788 21.3495 13.5048 21.1836 14.2012C21.0177 14.8976 20.6938 15.5469 20.2363 16.0977C20.1649 16.1836 20.0889 16.2654 20.0117 16.3457L20.1396 16.3916L20.2705 16.4531C20.3555 16.4985 20.4362 16.5522 20.5107 16.6133L20.6182 16.7109L20.7158 16.8184C20.7769 16.8929 20.8306 16.9736 20.876 17.0586L20.9385 17.1895L20.9873 17.3262C21.0291 17.4647 21.05 17.6097 21.0498 17.7549C21.0497 17.7969 21.0462 17.8394 21.0391 17.8809L20.6826 19.9492C20.6726 20.1126 20.6381 20.2743 20.5752 20.4258C20.5008 20.6047 20.3912 20.7675 20.2539 20.9043C20.1164 21.0411 19.9529 21.1499 19.7734 21.2236C19.5947 21.297 19.4031 21.3334 19.21 21.333L13.7754 21.334C13.5818 21.3341 13.3898 21.2966 13.2109 21.2227C13.0321 21.1487 12.8694 21.04 12.7324 20.9033C12.5955 20.7666 12.4863 20.6035 12.4121 20.4248C12.3494 20.2736 12.3147 20.1122 12.3047 19.9492L11.9482 17.8809L11.9375 17.7539C11.9375 17.5604 11.9758 17.3683 12.0498 17.1895L12.1123 17.0586C12.1806 16.931 12.2674 16.8136 12.3701 16.7109C12.5072 16.574 12.6696 16.4646 12.8486 16.3906L12.9756 16.3457C12.8989 16.2658 12.824 16.1841 12.7529 16.0986C12.2957 15.5484 11.9709 14.8999 11.8047 14.2041C11.6386 13.5083 11.6356 12.7833 11.7949 12.0859L11.8008 12.0615L12.1807 10.623L12.1826 10.6172C12.2112 10.513 12.2702 10.35 12.4033 10.2021C12.5576 10.031 12.7674 9.92906 12.9951 9.91309C13.192 9.89937 13.3575 9.95224 13.4619 9.99512C13.5172 10.0178 13.5705 10.0445 13.6211 10.0723L13.7637 10.1572L13.8398 10.2148C13.9124 10.2762 13.9736 10.3511 14.0186 10.4355L14.6943 11.7051C14.967 11.2441 15.2673 10.7994 15.5928 10.373C15.6011 10.3622 15.6103 10.3512 15.6191 10.3408C15.8178 10.1086 16.1007 9.96459 16.4053 9.94043C16.705 9.91674 17.0013 10.0115 17.2324 10.2031C17.2364 10.2063 17.2412 10.2086 17.2451 10.2119L17.2441 10.2129C17.2948 10.2555 17.3419 10.3022 17.3838 10.3535C17.3889 10.3597 17.3945 10.3657 17.3994 10.3721C17.7243 10.7969 18.0228 11.2407 18.2949 11.7002L18.9678 10.4355L19.0176 10.3545C19.0726 10.2766 19.1421 10.2093 19.2227 10.1572C19.3114 10.0999 19.4142 10.0404 19.5244 9.99512C19.6287 9.95229 19.7937 9.89948 19.9902 9.91309ZM13.7891 19.7324C13.7948 19.7658 13.7967 19.8002 13.7979 19.834H19.1895C19.1906 19.8002 19.1925 19.7658 19.1982 19.7324L19.5342 17.7793H13.4531L13.7891 19.7324ZM13.2549 12.4277C13.1486 12.8981 13.1517 13.3874 13.2637 13.8564C13.3763 14.3278 13.5965 14.7669 13.9062 15.1396C14.2163 15.5126 14.6086 15.8099 15.0518 16.0068C15.1469 16.0491 15.2443 16.0856 15.3428 16.1182L13.2959 12.2715L13.2549 12.4277ZM18.9775 13.6084C18.9599 13.6492 18.9397 13.6884 18.915 13.7256L17.6445 16.1172C17.7431 16.0846 17.8412 16.0492 17.9365 16.0068C18.38 15.8097 18.7719 15.512 19.082 15.1387C19.392 14.7654 19.6121 14.3255 19.7246 13.8535C19.837 13.3816 19.8389 12.8899 19.7305 12.417L19.6904 12.2686L18.9775 13.6084ZM16.4961 11.6787C16.136 12.192 15.8178 12.7332 15.541 13.2959L16.4941 15.0869L17.4492 13.291C17.1729 12.73 16.8555 12.1904 16.4961 11.6787Z" fill="#FAFAFA"/>
<path fill-rule="evenodd" clip-rule="evenodd" d="M16.8564 2.6709C17.0566 2.69402 17.2409 2.7974 17.3652 2.95898L21.1787 7.91895C21.1861 7.92861 21.1923 7.93931 21.1992 7.94922C21.2024 7.95382 21.2059 7.95821 21.209 7.96289C21.2307 7.99561 21.2487 8.02971 21.2646 8.06445C21.2756 8.0884 21.2835 8.11345 21.292 8.13867C21.2995 8.16112 21.3072 8.18319 21.3125 8.20605C21.3209 8.24236 21.3281 8.27926 21.3311 8.31738C21.3318 8.32649 21.3317 8.33561 21.332 8.34473C21.3325 8.35511 21.334 8.36549 21.334 8.37598C21.334 8.44462 21.321 8.51008 21.3037 8.57324C21.2979 8.59467 21.2919 8.61583 21.2842 8.63672C21.2748 8.66195 21.2639 8.6861 21.252 8.70996C21.242 8.72994 21.2315 8.74942 21.2197 8.76855C21.2071 8.78896 21.1932 8.80811 21.1787 8.82715C21.1592 8.85281 21.1403 8.87899 21.1172 8.90234C21.1152 8.90431 21.1133 8.90626 21.1113 8.9082C21.0893 8.93002 21.0662 8.9513 21.041 8.9707C21.0311 8.97831 21.0199 8.98418 21.0098 8.99121C21.0052 8.99441 21.0008 8.99788 20.9961 9.00098C20.9633 9.02263 20.9293 9.04073 20.8945 9.05664C20.8706 9.06759 20.8456 9.07556 20.8203 9.08398C20.7978 9.09148 20.7758 9.09921 20.7529 9.10449C20.7169 9.11281 20.6803 9.11915 20.6426 9.12207C20.6331 9.1228 20.6237 9.12365 20.6143 9.12402C20.6042 9.12442 20.5941 9.12598 20.584 9.12598H7.91504V11.0596H10.0938C10.5079 11.0596 10.8438 11.3954 10.8438 11.8096C10.8438 12.2238 10.5079 12.5596 10.0938 12.5596H7.91504V14.874H10.4756C10.8897 14.8741 11.2256 15.2098 11.2256 15.624C11.2256 16.0382 10.8897 16.374 10.4756 16.374H3.41797C3.00376 16.374 2.66797 16.0382 2.66797 15.624V8.37598C2.66797 8.35624 2.6694 8.33673 2.6709 8.31738C2.67139 8.31121 2.67123 8.30499 2.67188 8.29883C2.67465 8.27167 2.67898 8.24497 2.68457 8.21875C2.69369 8.17628 2.70618 8.13433 2.72266 8.09375C2.72727 8.08239 2.73313 8.07162 2.73828 8.06055C2.75184 8.03134 2.76771 8.00316 2.78516 7.97559C2.7916 7.96542 2.79777 7.95514 2.80469 7.94531C2.80965 7.93825 2.81411 7.93075 2.81934 7.92383L6.56641 2.96387L6.62305 2.89746L6.63477 2.88574C6.63721 2.8833 6.6401 2.88132 6.64258 2.87891C6.6731 2.84922 6.70546 2.82174 6.74023 2.79785C6.74589 2.79396 6.75205 2.79085 6.75781 2.78711C6.83568 2.73671 6.92224 2.7005 7.01367 2.68164C7.06257 2.67162 7.11318 2.66602 7.16504 2.66602H16.7705L16.8564 2.6709ZM4.16797 14.874H6.41504V12.5596H4.16797V14.874ZM4.16797 11.0596H6.41504V9.12598H4.16797V11.0596ZM4.9248 7.62598H9.40527L7.16504 4.66016L4.9248 7.62598ZM15.9443 7.62598H19.0615L16.4014 4.16602H13.3301L15.9443 7.62598ZM11.2861 7.62598H14.0635L11.4492 4.16602H8.67188L11.2861 7.62598Z" fill="#FAFAFA"/>
</svg>
