<svg width="24" height="24" viewBox="0 0 24 24" fill="none" xmlns="http://www.w3.org/2000/svg">
<path fill-rule="evenodd" clip-rule="evenodd" d="M12 2.25C12.3481 2.25 12.6766 2.39428 12.9287 2.5498C13.1975 2.71559 13.4603 2.94418 13.6924 3.21289C14.1515 3.74463 14.5498 4.51227 14.5498 5.40039C14.5497 6.1477 14.3497 6.72554 14.207 7.22949C14.0922 7.63511 13.9851 8.07437 13.957 8.68164C14.1878 8.78706 14.411 8.91194 14.627 9.05273C14.7962 8.70755 15.0098 8.37498 15.2676 8.08301C15.7729 7.51083 16.4926 7.04992 17.3994 7.0498C18.638 7.04989 19.7388 7.86138 20.4912 8.94824C21.2573 10.0549 21.75 11.5556 21.75 13.2002C21.7498 13.5913 21.4485 13.9165 21.0586 13.9473C20.4515 13.9951 19.8426 13.8768 19.2979 13.6045C18.753 13.3321 18.292 12.9159 17.9658 12.4014C17.7443 12.0515 17.8485 11.5879 18.1982 11.3662C18.548 11.1447 19.0117 11.2489 19.2334 11.5986C19.4135 11.8826 19.668 12.1123 19.9688 12.2627C20.042 12.2993 20.1174 12.331 20.1943 12.3574C20.0659 11.3502 19.7173 10.4655 19.2578 9.80176C18.6604 8.93888 17.9607 8.54989 17.3994 8.5498C17.0411 8.54991 16.7011 8.72487 16.3916 9.0752C16.1449 9.35457 15.9462 9.71764 15.8145 10.0928C15.8703 10.157 15.9258 10.222 15.9795 10.2891C16.0731 10.406 16.1614 10.5275 16.2471 10.6514C16.3565 10.7218 16.4503 10.8196 16.5127 10.9443C16.5523 11.0237 16.5731 11.1071 16.583 11.1904C17.2127 12.3133 17.5498 13.642 17.5498 15C17.5498 15.0694 17.5467 15.1387 17.5449 15.208C17.8189 15.1671 18.097 15.1577 18.3701 15.1924C19.0989 15.285 19.7661 15.6898 20.124 16.4932L20.249 16.7988C20.5151 17.5217 20.6042 18.3 20.5078 19.0674C20.3976 19.9441 20.0485 20.7738 19.499 21.4658C19.3567 21.6449 19.1399 21.75 18.9111 21.75H18.9004C18.8965 21.7499 18.8921 21.7491 18.8877 21.749C18.8788 21.7488 18.8686 21.7487 18.8574 21.748C18.8347 21.7467 18.8067 21.7441 18.7754 21.7402C18.7128 21.7326 18.6323 21.7193 18.541 21.6934C18.3577 21.6411 18.1249 21.5388 17.8975 21.3447C17.4203 20.9372 17.1074 20.2484 17.1074 19.1992C17.1078 18.7854 17.4435 18.4493 17.8574 18.4492C18.2712 18.4494 18.607 18.7855 18.6074 19.1992C18.6074 19.5406 18.653 19.7707 18.7061 19.9238C18.8659 19.5966 18.9737 19.2444 19.0195 18.8799C19.0954 18.2757 19.0038 17.6621 18.7549 17.1064L18.7539 17.1045C18.6316 16.8295 18.4465 16.7144 18.1807 16.6807C17.9525 16.6518 17.6637 16.6888 17.3486 16.7939C17.1043 17.8762 16.6415 18.8835 15.9795 19.7109C14.9582 20.9875 13.5328 21.75 12 21.75C10.4672 21.7499 9.04173 20.9875 8.02051 19.7109C7.35852 18.8834 6.89472 17.8763 6.65039 16.7939C6.33534 16.6889 6.04652 16.6518 5.81836 16.6807C5.55271 16.7144 5.36739 16.8297 5.24512 17.1045L5.24414 17.1064C4.99528 17.6621 4.9046 18.2758 4.98047 18.8799C5.02635 19.2448 5.13186 19.5983 5.29199 19.9258C5.34534 19.7726 5.39258 19.5422 5.39258 19.1992C5.393 18.7854 5.72862 18.4492 6.14258 18.4492C6.55635 18.4494 6.89216 18.7855 6.89258 19.1992C6.89258 20.2481 6.57949 20.9372 6.10254 21.3447C5.87513 21.5388 5.64138 21.6411 5.45801 21.6934C5.36712 21.7192 5.28705 21.7326 5.22461 21.7402C5.19338 21.744 5.16529 21.7467 5.14258 21.748C5.13155 21.7487 5.12117 21.7488 5.1123 21.749C5.10791 21.7491 5.10253 21.7499 5.09863 21.75H5.08984L5.08789 21V21.75C4.85925 21.7499 4.6432 21.6449 4.50098 21.4658C3.95132 20.7738 3.60246 19.9442 3.49219 19.0674C3.38199 18.1905 3.51464 17.2998 3.87598 16.4932C4.23394 15.69 4.90111 15.2849 5.62988 15.1924C5.90279 15.1578 6.18042 15.1681 6.4541 15.209C6.45234 15.1394 6.4502 15.0698 6.4502 15C6.4502 13.6422 6.78647 12.3132 7.41602 11.1904C7.42596 11.1071 7.44767 11.0237 7.4873 10.9443C7.54956 10.8198 7.64288 10.7218 7.75195 10.6514C7.8377 10.5274 7.92681 10.4062 8.02051 10.2891C8.07375 10.2225 8.1282 10.1575 8.18359 10.0938C8.0521 9.71841 7.85519 9.35469 7.6084 9.0752C7.29879 8.72462 6.95811 8.5498 6.59961 8.5498C6.0384 8.54998 5.33856 8.93898 4.74121 9.80176C4.28177 10.4655 3.93212 11.3502 3.80371 12.3574C3.88124 12.3308 3.95744 12.2996 4.03125 12.2627C4.33204 12.1123 4.58652 11.8826 4.7666 11.5986C4.98838 11.2489 5.45196 11.1445 5.80176 11.3662C6.15148 11.588 6.25483 12.0516 6.0332 12.4014C5.70708 12.9158 5.24694 13.3321 4.70215 13.6045C4.15739 13.8768 3.54858 13.995 2.94141 13.9473C2.55136 13.9166 2.2502 13.5914 2.25 13.2002C2.25004 11.5555 2.74267 10.0549 3.50879 8.94824C4.2612 7.86149 5.36111 7.04998 6.59961 7.0498C7.50661 7.0498 8.22706 7.51072 8.73242 8.08301C8.99012 8.37488 9.20288 8.70765 9.37207 9.05273C9.58822 8.91176 9.81197 8.78717 10.043 8.68164C10.0139 8.07349 9.90776 7.63473 9.79297 7.22949C9.65012 6.72525 9.45026 6.14886 9.4502 5.40039C9.4502 4.51229 9.84849 3.74463 10.3076 3.21289C10.5397 2.94408 10.8034 2.71563 11.0723 2.5498C11.3243 2.39439 11.6521 2.25005 12 2.25ZM10.4873 19.8652C10.9716 20.1197 11.4859 20.25 12 20.25C12.3664 20.25 12.733 20.1836 13.0889 20.0537L12.1299 18.1367C12.0191 18.1563 11.9057 18.1507 11.7969 18.1201L10.4873 19.8652ZM13.4854 17.4941L14.3652 19.2529C14.5194 19.1084 14.6684 18.9496 14.8086 18.7744C15.0698 18.4479 15.2935 18.0786 15.4775 17.6787L14.8564 16.8096L13.4854 17.4941ZM8.52148 17.6787C8.70554 18.0787 8.9301 18.4478 9.19141 18.7744C9.23293 18.8263 9.27552 18.8766 9.31836 18.9258L10.4248 17.4502L9.1416 16.8086L8.52148 17.6787ZM12.335 13.8711C12.1239 13.9765 11.8751 13.9766 11.6641 13.8711L11.3525 13.7148L10.0244 15.5732L11.999 16.5605L13.9736 15.5732L12.6455 13.7148L12.335 13.8711ZM8.5293 12.3027C8.15681 13.1048 7.9502 14.0336 7.9502 15C7.9502 15.2796 7.96738 15.556 8.00098 15.8271L9.99512 13.0361L8.5293 12.3027ZM14.0039 13.0352L15.9971 15.8271C16.0307 15.5559 16.0498 15.2797 16.0498 15C16.0498 14.0334 15.8423 13.1049 15.4697 12.3027L14.0039 13.0352ZM12 9.75C11.0544 9.75006 10.1062 10.1872 9.35059 11.0371L11.999 12.3613L14.6484 11.0361C13.8929 10.1869 12.9452 9.75 12 9.75ZM12 3.75586C11.9762 3.76435 11.9292 3.78406 11.8594 3.82715C11.7345 3.90421 11.5852 4.02797 11.4424 4.19336C11.1517 4.53016 10.9502 4.96309 10.9502 5.40039C10.9503 5.89146 11.0698 6.23361 11.2363 6.82129C11.3504 7.22398 11.4633 7.68417 11.5176 8.27637C11.677 8.25959 11.8378 8.25001 12 8.25C12.1625 8.25 12.3237 8.25952 12.4834 8.27637C12.537 7.68483 12.6496 7.22427 12.7637 6.82129C12.9305 6.23197 13.0497 5.8901 13.0498 5.40039C13.0498 4.96301 12.8484 4.53019 12.5576 4.19336C12.4147 4.02787 12.2655 3.9042 12.1406 3.82715C12.0705 3.78387 12.0237 3.76429 12 3.75586Z" fill="#FAFAFA"/>
</svg>
