<svg width="24" height="24" viewBox="0 0 24 24" fill="none" xmlns="http://www.w3.org/2000/svg">
<path d="M4.5 10.3418V19.8135C4.50026 20.0894 4.72402 20.3135 5 20.3135H11.25V11.5918C11.25 11.1776 11.5858 10.8418 12 10.8418C12.4142 10.8418 12.75 11.1776 12.75 11.5918V20.3135H19C19.276 20.3135 19.4997 20.0894 19.5 19.8135V17.8418H22.5C22.9142 17.8418 23.25 18.1776 23.25 18.5918C23.25 19.006 22.9142 19.3418 22.5 19.3418H21V19.8135C20.9997 20.9178 20.1044 21.8135 19 21.8135H5L4.7959 21.8027C3.78738 21.7005 3.00025 20.8489 3 19.8135V11.8418H1.5C1.08579 11.8418 0.75 11.506 0.75 11.0918C0.75 10.6776 1.08579 10.3418 1.5 10.3418H4.5Z" fill="#FAFAFA"/>
<path fill-rule="evenodd" clip-rule="evenodd" d="M15.1484 2.18652C16.6254 2.18702 17.827 3.35226 17.8916 4.81348H19C20.1046 4.81348 21 5.70891 21 6.81348V14.8418H22.5C22.9142 14.8418 23.25 15.1776 23.25 15.5918C23.25 16.006 22.9142 16.3418 22.5 16.3418H19.5V6.81348C19.5 6.53733 19.2761 6.31348 19 6.31348H12.75V8.3418C12.75 8.75601 12.4142 9.0918 12 9.0918C11.5858 9.0918 11.25 8.75601 11.25 8.3418V6.31348H5C4.72386 6.31348 4.5 6.53733 4.5 6.81348V8.8418H1.5C1.08579 8.8418 0.75 8.50601 0.75 8.0918C0.75 7.67758 1.08579 7.3418 1.5 7.3418H3V6.81348C3 5.70891 3.89543 4.81348 5 4.81348H6.1084C6.17294 3.35195 7.37511 2.18652 8.85254 2.18652H15.1484ZM8.85254 3.68652C8.20378 3.68652 7.67031 4.18096 7.6084 4.81348H16.3916C16.3297 4.18127 15.7968 3.687 15.1484 3.68652H8.85254Z" fill="#FAFAFA"/>
</svg>
