<svg width="24" height="24" viewBox="0 0 24 24" fill="none" xmlns="http://www.w3.org/2000/svg">
<path fill-rule="evenodd" clip-rule="evenodd" d="M19.1543 2.00391C20.7394 2.08421 22 3.39489 22 5V19L21.9961 19.1543C21.9184 20.6883 20.6883 21.9184 19.1543 21.9961L19 22H5L4.8457 21.9961C3.31166 21.9184 2.08163 20.6883 2.00391 19.1543L2 19V5C2 3.39489 3.26055 2.08421 4.8457 2.00391L5 2H19L19.1543 2.00391ZM5 3.5C4.17157 3.5 3.5 4.17157 3.5 5V19C3.5 19.8284 4.17157 20.5 5 20.5H19C19.8284 20.5 20.5 19.8284 20.5 19V5C20.5 4.17157 19.8284 3.5 19 3.5H5Z" fill="#FAFAFA"/>
<path d="M8.22035 13.4688C9.19818 13.4154 10.0304 13.1214 10.6708 12.509C10.6185 12.3713 10.5879 12.2262 10.58 12.0791C9.82194 11.9982 9.08188 11.6946 8.38103 11.1782C8.12889 10.9932 7.94947 10.7257 7.8739 10.4222C7.79833 10.1187 7.83137 9.79835 7.9673 9.51667C8.36407 8.69675 9.01043 8.12579 9.90637 7.80379C9.97508 7.77916 10.0486 7.77096 10.121 7.77984C10.1935 7.78871 10.2628 7.81442 10.3236 7.85491C10.3843 7.89539 10.4347 7.94953 10.4708 8.01299C10.5068 8.07644 10.5275 8.14746 10.5312 8.22035C10.5846 9.19818 10.8786 10.0304 11.491 10.6708C11.6289 10.6185 11.774 10.5879 11.9212 10.58C12.0015 9.82214 12.3055 9.08262 12.8218 8.38104C13.0068 8.12889 13.2743 7.94947 13.5778 7.8739C13.8813 7.79833 14.2017 7.83138 14.4833 7.96731C15.3032 8.36407 15.8742 9.01042 16.1962 9.90638C16.2208 9.97508 16.229 10.0486 16.2202 10.121C16.2113 10.1935 16.1856 10.2628 16.1451 10.3236C16.1046 10.3843 16.0505 10.4347 15.987 10.4708C15.9236 10.5068 15.8525 10.5275 15.7796 10.5312C14.8018 10.5846 13.9695 10.8786 13.3292 11.491C13.3815 11.6287 13.4121 11.7738 13.42 11.9209C14.1781 12.0018 14.9181 12.3054 15.619 12.8218C15.8711 13.0068 16.0505 13.2743 16.1261 13.5778C16.2017 13.8813 16.1686 14.2017 16.0327 14.4833C15.6359 15.3032 14.9896 15.8742 14.0936 16.1962C14.0249 16.2208 13.9514 16.229 13.879 16.2202C13.8065 16.2113 13.7372 16.1856 13.6764 16.1451C13.6157 16.1046 13.5653 16.0505 13.5292 15.987C13.4932 15.9236 13.4725 15.8525 13.4688 15.7796C13.4154 14.8018 13.1214 13.9696 12.509 13.3292C12.3711 13.3815 12.226 13.4121 12.0787 13.42C11.9985 14.1779 11.6945 14.9174 11.1782 15.619C10.9932 15.8711 10.7257 16.0505 10.4222 16.1261C10.1187 16.2017 9.79835 16.1686 9.51667 16.0327C8.69675 15.6359 8.12579 14.9896 7.80379 14.0936C7.77917 14.0249 7.77096 13.9514 7.77984 13.879C7.78872 13.8065 7.81442 13.7372 7.85491 13.6764C7.89539 13.6157 7.94953 13.5653 8.01298 13.5292C8.07644 13.4932 8.14746 13.4725 8.22035 13.4688ZM11.5111 12.4889C11.6078 12.5856 11.731 12.6514 11.8651 12.6781C11.9992 12.7048 12.1383 12.6911 12.2646 12.6388C12.3909 12.5864 12.4989 12.4978 12.5749 12.3841C12.6508 12.2704 12.6914 12.1367 12.6914 12C12.6914 11.8633 12.6508 11.7296 12.5749 11.6159C12.4989 11.5022 12.3909 11.4136 12.2646 11.3612C12.1383 11.3089 11.9992 11.2952 11.8651 11.3219C11.731 11.3486 11.6078 11.4144 11.5111 11.5111C11.3816 11.6409 11.3089 11.8167 11.3089 12C11.3089 12.1833 11.3816 12.3591 11.5111 12.4889Z" fill="#FAFAFA"/>
<path fill-rule="evenodd" clip-rule="evenodd" d="M12 20C7.58172 20 4 16.4183 4 12C4 7.58172 7.58172 4 12 4C16.4183 4 20 7.58172 20 12C20 16.4183 16.4183 20 12 20ZM12 5.5C15.5899 5.5 18.5 8.41015 18.5 12C18.5 15.5899 15.5899 18.5 12 18.5C8.41015 18.5 5.5 15.5899 5.5 12C5.5 8.41015 8.41015 5.5 12 5.5Z" fill="#FAFAFA"/>
</svg>
