<svg width="24" height="24" viewBox="0 0 24 24" fill="none" xmlns="http://www.w3.org/2000/svg">
<path d="M6.25 12.75C6.25 13.0261 6.02614 13.25 5.75 13.25C5.47386 13.25 5.25 13.0261 5.25 12.75C5.25 12.4739 5.47386 12.25 5.75 12.25C6.02614 12.25 6.25 12.4739 6.25 12.75Z" fill="#FAFAFA"/>
<path d="M6.25 17.25C6.25 17.5261 6.02614 17.75 5.75 17.75C5.47386 17.75 5.25 17.5261 5.25 17.25C5.25 16.9739 5.47386 16.75 5.75 16.75C6.02614 16.75 6.25 16.9739 6.25 17.25Z" fill="#FAFAFA"/>
<path d="M18.7502 12.75C18.7502 13.0261 18.5264 13.25 18.2502 13.25C17.9741 13.25 17.7502 13.0261 17.7502 12.75C17.7502 12.4739 17.9741 12.25 18.2502 12.25C18.5264 12.25 18.7502 12.4739 18.7502 12.75Z" fill="#FAFAFA"/>
<path d="M18.7502 17.25C18.7502 17.5261 18.5264 17.75 18.2502 17.75C17.9741 17.75 17.7502 17.5261 17.7502 17.25C17.7502 16.9739 17.9741 16.75 18.2502 16.75C18.5264 16.75 18.7502 16.9739 18.7502 17.25Z" fill="#FAFAFA"/>
<path d="M10.25 12.75C10.25 13.0261 10.0261 13.25 9.75 13.25C9.47386 13.25 9.25 13.0261 9.25 12.75C9.25 12.4739 9.47386 12.25 9.75 12.25C10.0261 12.25 10.25 12.4739 10.25 12.75Z" fill="#FAFAFA"/>
<path d="M14.75 12.75C14.75 13.0261 14.5261 13.25 14.25 13.25C13.9739 13.25 13.75 13.0261 13.75 12.75C13.75 12.4739 13.9739 12.25 14.25 12.25C14.5261 12.25 14.75 12.4739 14.75 12.75Z" fill="#FAFAFA"/>
<path fill-rule="evenodd" clip-rule="evenodd" d="M6.75 12.75C6.75 13.3023 6.30228 13.75 5.75 13.75C5.19772 13.75 4.75 13.3023 4.75 12.75C4.75 12.1977 5.19772 11.75 5.75 11.75C6.30228 11.75 6.75 12.1977 6.75 12.75ZM6.75 17.25C6.75 17.8023 6.30228 18.25 5.75 18.25C5.19772 18.25 4.75 17.8023 4.75 17.25C4.75 16.6977 5.19772 16.25 5.75 16.25C6.30228 16.25 6.75 16.6977 6.75 17.25ZM19.2502 12.75C19.2502 13.3023 18.8025 13.75 18.2502 13.75C17.698 13.75 17.2502 13.3023 17.2502 12.75C17.2502 12.1977 17.698 11.75 18.2502 11.75C18.8025 11.75 19.2502 12.1977 19.2502 12.75ZM19.2502 17.25C19.2502 17.8023 18.8025 18.25 18.2502 18.25C17.698 18.25 17.2502 17.8023 17.2502 17.25C17.2502 16.6977 17.698 16.25 18.2502 16.25C18.8025 16.25 19.2502 16.6977 19.2502 17.25ZM10.75 12.75C10.75 13.3023 10.3023 13.75 9.75 13.75C9.19772 13.75 8.75 13.3023 8.75 12.75C8.75 12.1977 9.19772 11.75 9.75 11.75C10.3023 11.75 10.75 12.1977 10.75 12.75ZM15.25 12.75C15.25 13.3023 14.8023 13.75 14.25 13.75C13.6977 13.75 13.25 13.3023 13.25 12.75C13.25 12.1977 13.6977 11.75 14.25 11.75C14.8023 11.75 15.25 12.1977 15.25 12.75ZM5.75 13.25C6.02614 13.25 6.25 13.0261 6.25 12.75C6.25 12.4739 6.02614 12.25 5.75 12.25C5.47386 12.25 5.25 12.4739 5.25 12.75C5.25 13.0261 5.47386 13.25 5.75 13.25ZM5.75 17.75C6.02614 17.75 6.25 17.5261 6.25 17.25C6.25 16.9739 6.02614 16.75 5.75 16.75C5.47386 16.75 5.25 16.9739 5.25 17.25C5.25 17.5261 5.47386 17.75 5.75 17.75ZM18.7502 12.75C18.7502 13.0261 18.5264 13.25 18.2502 13.25C17.9741 13.25 17.7502 13.0261 17.7502 12.75C17.7502 12.4739 17.9741 12.25 18.2502 12.25C18.5264 12.25 18.7502 12.4739 18.7502 12.75ZM18.2502 17.75C18.5264 17.75 18.7502 17.5261 18.7502 17.25C18.7502 16.9739 18.5264 16.75 18.2502 16.75C17.9741 16.75 17.7502 16.9739 17.7502 17.25C17.7502 17.5261 17.9741 17.75 18.2502 17.75ZM10.25 12.75C10.25 13.0261 10.0261 13.25 9.75 13.25C9.47386 13.25 9.25 13.0261 9.25 12.75C9.25 12.4739 9.47386 12.25 9.75 12.25C10.0261 12.25 10.25 12.4739 10.25 12.75ZM14.25 13.25C14.5261 13.25 14.75 13.0261 14.75 12.75C14.75 12.4739 14.5261 12.25 14.25 12.25C13.9739 12.25 13.75 12.4739 13.75 12.75C13.75 13.0261 13.9739 13.25 14.25 13.25Z" fill="#FAFAFA"/>
<path fill-rule="evenodd" clip-rule="evenodd" d="M18.25 2C18.6642 2 19 2.33579 19 2.75V3.25C19 4.49264 17.9926 5.5 16.75 5.5H7.75C7.05964 5.5 6.5 6.05964 6.5 6.75V8H20.25C21.7688 8 23 9.23122 23 10.75V19.25C23 20.7688 21.7688 22 20.25 22H3.75C2.23122 22 1 20.7688 1 19.25V10.75C1 9.23122 2.23122 8 3.75 8H5V6.75C5 5.23122 6.23122 4 7.75 4H16.75C17.1642 4 17.5 3.66421 17.5 3.25V2.75C17.5 2.33579 17.8358 2 18.25 2ZM3.75 9.5C3.05964 9.5 2.5 10.0596 2.5 10.75V19.25C2.5 19.9404 3.05964 20.5 3.75 20.5H20.25C20.9404 20.5 21.5 19.9404 21.5 19.25V10.75C21.5 10.0596 20.9404 9.5 20.25 9.5H3.75ZM9 17.25C9 16.8358 9.33579 16.5 9.75 16.5H14.25C14.6642 16.5 15 16.8358 15 17.25C15 17.6642 14.6642 18 14.25 18H9.75C9.33579 18 9 17.6642 9 17.25Z" fill="#FAFAFA"/>
</svg>
