<svg width="24" height="24" viewBox="0 0 24 24" fill="none" xmlns="http://www.w3.org/2000/svg">
<path d="M12 6.25C12.4142 6.25 12.75 6.58579 12.75 7C12.75 7.41421 12.4142 7.75 12 7.75C10.8728 7.75 9.79215 8.19809 8.99512 8.99512C8.19809 9.79215 7.75 10.8728 7.75 12C7.75 13.1272 8.19809 14.2079 8.99512 15.0049C9.79215 15.8019 10.8728 16.25 12 16.25C12.4142 16.25 12.75 16.5858 12.75 17C12.75 17.4142 12.4142 17.75 12 17.75C10.475 17.75 9.0129 17.1438 7.93457 16.0654C7.03462 15.1655 6.46511 13.998 6.30078 12.75H3C2.58579 12.75 2.25 12.4142 2.25 12C2.25 11.5858 2.58579 11.25 3 11.25H6.30078C6.46511 10.002 7.03462 8.83452 7.93457 7.93457C9.0129 6.85624 10.475 6.25 12 6.25Z" fill="#FAFAFA"/>
<path d="M12 10C12.5304 10 13.039 10.2109 13.4141 10.5859C13.6055 10.7774 13.7539 11.0038 13.8535 11.25H21C21.4142 11.25 21.75 11.5858 21.75 12C21.75 12.4142 21.4142 12.75 21 12.75H13.8535C13.7539 12.9962 13.6055 13.2226 13.4141 13.4141C13.039 13.7891 12.5304 14 12 14C11.4696 14 10.961 13.7891 10.5859 13.4141C10.2109 13.039 10 12.5304 10 12C10 11.4696 10.2109 10.961 10.5859 10.5859C10.961 10.2109 11.4696 10 12 10Z" fill="#FAFAFA"/>
</svg>
