<svg width="24" height="24" viewBox="0 0 24 24" fill="none" xmlns="http://www.w3.org/2000/svg">
<path d="M13.6523 17.2646C14.0584 17.1835 14.4538 17.4466 14.5352 17.8525L15.1348 20.8525C15.1788 21.0728 15.1219 21.3018 14.9795 21.4756C14.8371 21.6493 14.624 21.75 14.3994 21.75H9.59961C9.37492 21.75 9.16199 21.6493 9.01953 21.4756C8.87708 21.3018 8.82019 21.0729 8.86426 20.8525L9.46387 17.8525C9.54527 17.4466 9.94064 17.1834 10.3467 17.2646C10.7528 17.3459 11.0158 17.7413 10.9346 18.1475L10.5146 20.25H13.4844L13.0645 18.1475C12.9833 17.7414 13.2463 17.346 13.6523 17.2646Z" fill="#FAFAFA"/>
<path fill-rule="evenodd" clip-rule="evenodd" d="M12 5.85059C12.4142 5.85059 12.75 6.18637 12.75 6.60059V7.69727C13.4174 7.78399 14.0709 8.00424 14.6064 8.45801C15.3664 9.10215 15.75 10.0939 15.75 11.4004C15.7499 12.1308 15.5165 12.8703 15.2129 13.5342C14.9058 14.2055 14.5035 14.8503 14.1123 15.4033C13.7197 15.9582 13.3285 16.4355 13.0361 16.7734C12.8897 16.9427 12.7665 17.0789 12.6797 17.1729C12.6364 17.2197 12.6013 17.2568 12.5771 17.2822C12.5653 17.2947 12.5555 17.3046 12.5488 17.3115C12.5457 17.3147 12.5429 17.3174 12.541 17.3193L12.5391 17.3223L12.5381 17.3232C12.5088 17.3533 12.4744 17.3785 12.4404 17.4033C12.4333 17.4085 12.4272 17.415 12.4199 17.4199C12.2999 17.5014 12.156 17.5508 12 17.5508C11.8438 17.5508 11.6992 17.5017 11.5791 17.4199C11.5718 17.415 11.5657 17.4085 11.5586 17.4033C11.5249 17.3786 11.492 17.3531 11.4629 17.3232L11.4609 17.3223L11.459 17.3193C11.4571 17.3174 11.4543 17.3147 11.4512 17.3115C11.4445 17.3046 11.4347 17.2947 11.4229 17.2822C11.3987 17.2568 11.3636 17.2197 11.3203 17.1729C11.2335 17.0789 11.1103 16.9427 10.9639 16.7734C10.6715 16.4355 10.2803 15.9582 9.8877 15.4033C9.49647 14.8503 9.09419 14.2055 8.78711 13.5342C8.48348 12.8703 8.2501 12.1308 8.25 11.4004C8.25 10.0944 8.63384 9.10319 9.39355 8.45898C9.92909 8.00513 10.5825 7.78425 11.25 7.69727V6.60059C11.25 6.18637 11.5858 5.85059 12 5.85059ZM11.25 9.21387C10.8772 9.28541 10.5825 9.41676 10.3633 9.60254C10.0377 9.8786 9.75 10.3878 9.75 11.4004C9.75011 11.8292 9.89186 12.3447 10.1504 12.9102C10.4058 13.4684 10.7537 14.0302 11.1123 14.5371C11.1578 14.6014 11.2046 14.6637 11.25 14.7256V9.21387ZM12.75 14.7256C12.7954 14.6637 12.8422 14.6014 12.8877 14.5371C13.2463 14.0302 13.5942 13.4684 13.8496 12.9102C14.1081 12.3447 14.2499 11.8292 14.25 11.4004C14.25 10.3874 13.9622 9.87847 13.6367 9.60254C13.4175 9.41682 13.1229 9.28543 12.75 9.21387V14.7256Z" fill="#FAFAFA"/>
<path d="M3.40723 9.45508C3.93659 9.50886 4.34951 9.95644 4.34961 10.5C4.34948 11.0798 3.87964 11.5498 3.2998 11.5498C2.72007 11.5497 2.25013 11.0797 2.25 10.5C2.25011 9.92025 2.72006 9.4503 3.2998 9.4502L3.40723 9.45508Z" fill="#FAFAFA"/>
<path d="M6.40723 9.45508C6.93659 9.50886 7.34951 9.95644 7.34961 10.5C7.34948 11.0798 6.87964 11.5498 6.2998 11.5498C5.72006 11.5497 5.25013 11.0797 5.25 10.5C5.25011 9.92025 5.72006 9.4503 6.2998 9.4502L6.40723 9.45508Z" fill="#FAFAFA"/>
<path d="M17.8076 9.45508C18.337 9.50886 18.7499 9.95643 18.75 10.5C18.7499 11.0798 18.28 11.5498 17.7002 11.5498C17.1205 11.5497 16.6505 11.0797 16.6504 10.5C16.6505 9.92024 17.1205 9.4503 17.7002 9.4502L17.8076 9.45508Z" fill="#FAFAFA"/>
<path d="M20.8076 9.45508C21.337 9.50886 21.7499 9.95643 21.75 10.5C21.7499 11.0798 21.28 11.5498 20.7002 11.5498C20.1205 11.5497 19.6505 11.0797 19.6504 10.5C19.6505 9.92024 20.1205 9.4503 20.7002 9.4502L20.8076 9.45508Z" fill="#FAFAFA"/>
<path d="M8.20703 5.85547C8.73639 5.90926 9.14931 6.35684 9.14941 6.90039C9.14915 7.48007 8.67935 7.9502 8.09961 7.9502C7.51996 7.95009 7.05007 7.48 7.0498 6.90039C7.04991 6.32064 7.51986 5.85069 8.09961 5.85059L8.20703 5.85547Z" fill="#FAFAFA"/>
<path d="M16.0068 5.85547C16.5362 5.90926 16.9491 6.35683 16.9492 6.90039C16.949 7.48008 16.4791 7.9502 15.8994 7.9502C15.3198 7.95009 14.8499 7.48002 14.8496 6.90039C14.8497 6.32063 15.3197 5.85069 15.8994 5.85059L16.0068 5.85547Z" fill="#FAFAFA"/>
<path d="M5.20703 3.45508C5.7364 3.50886 6.14932 3.95644 6.14941 4.5C6.14928 5.07979 5.67943 5.5498 5.09961 5.5498C4.51988 5.5497 4.04994 5.07972 4.0498 4.5C4.04991 3.92025 4.51986 3.4503 5.09961 3.4502L5.20703 3.45508Z" fill="#FAFAFA"/>
<path d="M18.9004 3.4502C19.4802 3.4502 19.9501 3.92018 19.9502 4.5C19.9501 5.0798 19.4802 5.5498 18.9004 5.5498V4.9502L18.8994 4.94922L18.9004 5.5498C18.3207 5.5497 17.8497 5.07974 17.8496 4.5C17.8497 3.92024 18.3207 3.4503 18.9004 3.4502Z" fill="#FAFAFA"/>
<path d="M12 2.25C12.5798 2.25 13.0497 2.71999 13.0498 3.2998C13.0498 3.87972 12.5799 4.34961 12 4.34961C11.4202 4.3495 10.9502 3.87965 10.9502 3.2998C10.9503 2.72005 11.4203 2.25011 12 2.25Z" fill="#FAFAFA"/>
</svg>
