<svg width="24" height="24" viewBox="0 0 24 24" fill="none" xmlns="http://www.w3.org/2000/svg">
<path fill-rule="evenodd" clip-rule="evenodd" d="M13.6162 2.71875C14.0302 2.71901 14.3662 3.05568 14.3662 3.46973C14.3659 3.88355 14.03 4.21946 13.6162 4.21973H11.4795V6.57031H15.7051C16.8415 6.57031 17.7627 7.49153 17.7627 8.62793V10.1855H20.5C20.9142 10.1855 21.2499 10.5214 21.25 10.9355V13.2949C21.2496 13.7088 20.914 14.0449 20.5 14.0449H17.7627V15.6025C17.7623 16.7387 16.8413 17.6602 15.7051 17.6602H13.668V19.6621C13.668 19.702 13.6642 19.7411 13.6582 19.7793H19.5C19.9142 19.7793 20.25 20.1151 20.25 20.5293C20.2497 20.9433 19.9141 21.2793 19.5 21.2793H3.5C3.08595 21.2793 2.75026 20.9433 2.75 20.5293C2.75 20.1151 3.08579 19.7793 3.5 19.7793H8.10059C8.09459 19.7411 8.0918 19.702 8.0918 19.6621V17.6602H6.9873C4.64734 17.6602 2.75026 15.7628 2.75 13.4229V10.8076C2.75 8.46749 4.64718 6.57031 6.9873 6.57031H9.97949V4.21973H7.8418C7.42775 4.21973 7.09206 3.88372 7.0918 3.46973C7.0918 3.05551 7.42758 2.71875 7.8418 2.71875H13.6162ZM9.5918 19.6621C9.5918 19.702 9.58803 19.7411 9.58203 19.7793H12.1777C12.1717 19.7411 12.168 19.702 12.168 19.6621V17.6602H9.5918V19.6621ZM6.9873 8.07031C5.4756 8.07031 4.25 9.29591 4.25 10.8076V13.4229C4.25026 14.9343 5.47576 16.1602 6.9873 16.1602H15.7051C16.0129 16.1602 16.2623 15.9102 16.2627 15.6025V13.2949C16.2627 12.8807 16.5985 12.545 17.0127 12.5449H19.75V11.6855H17.0127C16.5987 11.6855 16.263 11.3495 16.2627 10.9355V8.62793C16.2627 8.31996 16.0131 8.07031 15.7051 8.07031H6.9873Z" fill="#FAFAFA"/>
<path d="M14.6535 10.6382C14.7342 10.6382 14.811 10.6536 14.8839 10.6772C14.9024 10.6832 14.9215 10.6874 14.9396 10.6948C14.9553 10.7013 14.9694 10.7108 14.9845 10.7183C15.0559 10.7535 15.1243 10.7976 15.1837 10.8569C15.2412 10.9144 15.2846 10.9806 15.3195 11.0493C15.328 11.066 15.3386 11.0817 15.3458 11.0991C15.3669 11.1497 15.3813 11.2021 15.3908 11.2554C15.3984 11.2984 15.4035 11.343 15.4035 11.3882V13.3872C15.403 13.8009 15.0673 14.137 14.6535 14.1372C14.2395 14.1372 13.9039 13.801 13.9035 13.3872V13.1763C13.3587 13.6487 12.5677 14.1428 11.671 14.1353L11.672 14.1362C11.6647 14.1364 11.6569 14.1351 11.6496 14.1353C11.6462 14.1352 11.6422 14.1363 11.6388 14.1362C10.655 14.1466 10.1319 13.7468 9.54217 12.8931C9.25197 12.4736 8.70186 12.2059 8.17693 12.2173C8.16626 12.2175 8.15537 12.2175 8.1447 12.2173C7.61969 12.206 7.06955 12.4734 6.77947 12.8931L6.7326 12.9546C6.48602 13.2438 6.05497 13.3052 5.73553 13.0845C5.39509 12.8489 5.30977 12.3812 5.5451 12.0405L5.66228 11.8833C6.26464 11.1283 7.2231 10.7095 8.1447 10.7192C8.14983 10.7191 8.1552 10.7193 8.16033 10.7192C8.16578 10.7193 8.17148 10.7182 8.17693 10.7183L8.17595 10.7192C9.16007 10.7083 10.1864 11.1867 10.7765 12.0405C11.0665 12.4603 11.1138 12.6474 11.6388 12.6362C11.6496 12.636 11.6612 12.636 11.672 12.6362C12.0159 12.6436 12.4249 12.4456 12.8087 12.1382H12.6544C12.2404 12.1382 11.9047 11.8022 11.9044 11.3882C11.9044 10.974 12.2402 10.6382 12.6544 10.6382H14.6535Z" fill="#FAFAFA"/>
</svg>
