<svg width="24" height="24" viewBox="0 0 24 24" fill="none" xmlns="http://www.w3.org/2000/svg">
<path fill-rule="evenodd" clip-rule="evenodd" d="M5.34473 9.46777C5.82506 9.41821 6.31145 9.46933 6.77051 9.61914C7.22958 9.76903 7.65214 10.0144 8.01074 10.3379C8.36936 10.6614 8.65628 11.0567 8.85254 11.498C9.0487 11.9392 9.15029 12.4166 9.15039 12.8994V20.4004C9.15027 20.7581 9.00777 21.1015 8.75488 21.3545C8.50187 21.6074 8.15853 21.7498 7.80078 21.75H3.60059C3.24275 21.75 2.89961 21.6074 2.64648 21.3545C2.39342 21.1014 2.2511 20.7583 2.25098 20.4004V18.0186C2.25083 18.0124 2.25 18.0062 2.25 18C2.25 17.9935 2.25081 17.987 2.25098 17.9805V13.8184C2.25083 13.8122 2.25 13.806 2.25 13.7998C2.25 13.7933 2.25081 13.7868 2.25098 13.7803V13.0537C2.23633 12.1875 2.53826 11.345 3.10059 10.6855C3.66626 10.0225 4.45598 9.59007 5.31934 9.4707C5.32755 9.46958 5.33649 9.46863 5.34473 9.46777ZM3.75098 20.25H7.65039V18.75H3.75098V20.25ZM3.75098 17.25H7.65039V14.5498H3.75098V17.25ZM5.50684 10.959C5.01456 11.0315 4.56439 11.2803 4.24121 11.6592C3.91426 12.0427 3.73934 12.5333 3.75 13.0371C3.75009 13.0412 3.75073 13.0456 3.75098 13.0498H7.65039V12.9004C7.65037 12.6274 7.59331 12.3569 7.48242 12.1074C7.37151 11.858 7.20948 11.634 7.00684 11.4512C6.80415 11.2684 6.56415 11.1306 6.30469 11.0459C6.04768 10.9621 5.77579 10.9323 5.50684 10.959Z" fill="#FAFAFA"/>
<path fill-rule="evenodd" clip-rule="evenodd" d="M13.1445 9.46777C13.6249 9.41821 14.1113 9.46933 14.5703 9.61914C15.0294 9.76903 15.4519 10.0144 15.8105 10.3379C16.1692 10.6614 16.4561 11.0567 16.6523 11.498C16.8485 11.9392 16.9501 12.4166 16.9502 12.8994V20.4004C16.9501 20.7581 16.8076 21.1015 16.5547 21.3545C16.3017 21.6074 15.9583 21.7498 15.6006 21.75H11.4004C11.0426 21.75 10.6994 21.6074 10.4463 21.3545C10.1932 21.1014 10.0509 20.7583 10.0508 20.4004V18.0186C10.0506 18.0124 10.0498 18.0062 10.0498 18C10.0498 17.9935 10.0506 17.987 10.0508 17.9805V13.8184C10.0506 13.8122 10.0498 13.806 10.0498 13.7998C10.0498 13.7933 10.0506 13.7868 10.0508 13.7803V13.0537C10.0361 12.1875 10.3381 11.345 10.9004 10.6855C11.4661 10.0225 12.2558 9.59007 13.1191 9.4707C13.1274 9.46958 13.1363 9.46863 13.1445 9.46777ZM11.5508 20.25H15.4502V18.75H11.5508V20.25ZM11.5508 17.25H15.4502V14.5498H11.5508V17.25ZM13.3066 10.959C12.8144 11.0315 12.3642 11.2803 12.041 11.6592C11.7141 12.0427 11.5391 12.5333 11.5498 13.0371C11.5499 13.0412 11.5505 13.0456 11.5508 13.0498H15.4502V12.9004C15.4502 12.6274 15.3931 12.3569 15.2822 12.1074C15.1713 11.858 15.0093 11.634 14.8066 11.4512C14.604 11.2684 14.364 11.1306 14.1045 11.0459C13.8475 10.9621 13.5756 10.9323 13.3066 10.959Z" fill="#FAFAFA"/>
<path fill-rule="evenodd" clip-rule="evenodd" d="M9.60059 2.25C10.4358 2.2501 11.2365 2.58227 11.8271 3.17285C12.2377 3.58338 12.5231 4.09568 12.6592 4.65039H16.2002C17.3538 4.65044 18.4606 5.10907 19.2764 5.9248C20.0917 6.74044 20.5497 7.84673 20.5498 9V13.7998C20.7828 13.8969 20.9968 14.0398 21.1787 14.2217C21.5442 14.5873 21.75 15.0836 21.75 15.6006C21.7498 16.1175 21.5443 16.6139 21.1787 16.9795C20.997 17.1612 20.7825 17.3024 20.5498 17.3994V18.5996C20.5498 19.0138 20.214 19.3496 19.7998 19.3496C19.3856 19.3496 19.0498 19.0138 19.0498 18.5996V17.3994C18.8171 17.3024 18.6026 17.1611 18.4209 16.9795C18.0553 16.6139 17.8498 16.1175 17.8496 15.6006C17.8496 15.0835 18.0553 14.5874 18.4209 14.2217C18.6028 14.0398 18.8169 13.8969 19.0498 13.7998V9C19.0497 8.24437 18.7491 7.51972 18.2148 6.98535C17.6804 6.45098 16.9559 6.15044 16.2002 6.15039H12.6592C12.5231 6.70474 12.2376 7.21655 11.8271 7.62695C11.2365 8.2176 10.4359 8.5497 9.60059 8.5498C8.76515 8.5498 7.96379 8.21769 7.37305 7.62695C6.78246 7.03631 6.4503 6.23564 6.4502 5.40039C6.4502 4.56496 6.78231 3.76359 7.37305 3.17285C7.96379 2.58211 8.76515 2.25 9.60059 2.25ZM19.7998 15.1504C19.6805 15.1504 19.5658 15.1978 19.4814 15.2822C19.3972 15.3666 19.3496 15.4813 19.3496 15.6006C19.3498 15.7197 19.3972 15.8347 19.4814 15.9189C19.5642 16.0015 19.6763 16.048 19.793 16.0498H19.8057C19.9227 16.0482 20.0352 16.0018 20.1182 15.9189C20.2024 15.8347 20.2498 15.7197 20.25 15.6006C20.25 15.4814 20.2023 15.3666 20.1182 15.2822C20.0338 15.1979 19.9191 15.1504 19.7998 15.1504ZM9.60059 3.75C9.16298 3.75 8.74303 3.92396 8.43359 4.2334C8.12416 4.54283 7.9502 4.96278 7.9502 5.40039C7.9503 5.83781 8.12431 6.25707 8.43359 6.56641C8.74303 6.87584 9.16298 7.0498 9.60059 7.0498C10.0381 7.0497 10.4573 6.87575 10.7666 6.56641C11.0759 6.25706 11.2499 5.83786 11.25 5.40039C11.25 4.96278 11.076 4.54283 10.7666 4.2334C10.4573 3.92412 10.038 3.7501 9.60059 3.75Z" fill="#FAFAFA"/>
</svg>
