<svg width="24" height="24" viewBox="0 0 24 24" fill="none" xmlns="http://www.w3.org/2000/svg">
<path d="M11.5996 2.6748C16.1387 2.6748 19.8495 6.3857 19.8496 10.9248C19.8496 11.339 19.5138 11.6748 19.0996 11.6748C18.6854 11.6748 18.3496 11.339 18.3496 10.9248C18.3495 7.21413 15.3103 4.1748 11.5996 4.1748C7.8889 4.1748 4.84974 7.21413 4.84961 10.9248C4.84961 14.6356 7.88882 17.6748 11.5996 17.6748H18.1475L16.7695 16.5264C16.4515 16.2612 16.4088 15.7879 16.6738 15.4697C16.939 15.1517 17.4123 15.1089 17.7305 15.374L20.7305 17.874C20.9013 18.0165 21 18.2277 21 18.4502C20.9999 18.6726 20.9013 18.8839 20.7305 19.0264L17.7305 21.5264C17.4124 21.7913 16.939 21.7485 16.6738 21.4307C16.4087 21.1126 16.4516 20.6392 16.7695 20.374L18.209 19.1748H11.5996C7.0604 19.1748 3.34961 15.464 3.34961 10.9248C3.34974 6.3857 7.06048 2.6748 11.5996 2.6748Z" fill="#FAFAFA"/>
<path d="M12.7236 12.25C14.0369 12.25 14.9612 13.5365 14.5469 14.7803C14.146 15.9829 12.7111 16.4756 11.6562 15.7725L11.4336 15.624C11.0889 15.3943 10.9958 14.9286 11.2256 14.584C11.4553 14.2393 11.921 14.1462 12.2656 14.376L12.4883 14.5244C12.7201 14.6789 13.0358 14.5709 13.124 14.3066C13.2156 14.0319 13.011 13.75 12.7236 13.75C11.0826 13.75 8.61532 13.75 7.34961 13.75C6.9354 13.75 6.59961 13.4142 6.59961 13C6.59964 12.5858 6.93541 12.25 7.34961 12.25C8.61531 12.25 11.0826 12.25 12.7236 12.25Z" fill="#FAFAFA"/>
<path d="M13.7881 8.27344C15.0712 7.13291 17.0996 8.04402 17.0996 9.76074C17.0994 10.859 16.2095 11.75 15.1104 11.75C13.1918 11.75 9.49997 11.75 7.34961 11.75C6.93541 11.75 6.59964 11.4142 6.59961 11C6.59961 10.5858 6.9354 10.25 7.34961 10.25C9.49997 10.25 13.1918 10.25 15.1104 10.25C15.3802 10.25 15.5994 10.0314 15.5996 9.76074C15.5996 9.33838 15.1009 9.11414 14.7852 9.39453L14.5977 9.56055C14.2881 9.83562 13.8142 9.80759 13.5391 9.49805C13.264 9.18846 13.292 8.71461 13.6016 8.43945L13.7881 8.27344Z" fill="#FAFAFA"/>
<path d="M9.65625 6.22754C10.7111 5.52441 12.146 6.01708 12.5469 7.21973C12.9613 8.46384 12.0363 9.7498 10.7236 9.75C9.70456 9.74999 8.39128 9.75 7.34961 9.75C6.93541 9.75 6.59964 9.41419 6.59961 9C6.59961 8.58579 6.9354 8.25 7.34961 8.25C8.39129 8.25 9.70456 8.24999 10.7236 8.25C11.0113 8.2498 11.2154 7.96758 11.124 7.69336C11.0358 7.42912 10.7201 7.32112 10.4883 7.47559L10.2656 7.62402C9.92098 7.85379 9.45535 7.76066 9.22559 7.41602C8.99582 7.07137 9.08895 6.60574 9.43359 6.37598L9.65625 6.22754Z" fill="#FAFAFA"/>
</svg>
