<svg width="24" height="24" viewBox="0 0 24 24" fill="none" xmlns="http://www.w3.org/2000/svg">
<path fill-rule="evenodd" clip-rule="evenodd" d="M7.75 2.5C8.16421 2.5 8.5 2.83579 8.5 3.25V4.5H15.5V3.25C15.5 2.83579 15.8358 2.5 16.25 2.5C16.6642 2.5 17 2.83579 17 3.25V4.5H18.25C19.7688 4.5 21 5.73122 21 7.25V18.75C21 20.2688 19.7688 21.5 18.25 21.5H5.75C4.23122 21.5 3 20.2688 3 18.75V7.25C3 5.73122 4.23122 4.5 5.75 4.5H7V3.25C7 2.83579 7.33579 2.5 7.75 2.5ZM5.75 6C5.05964 6 4.5 6.55964 4.5 7.25V9.5H19.5V7.25C19.5 6.55964 18.9404 6 18.25 6H5.75ZM19.5 11H4.5V18.75C4.5 19.4404 5.05964 20 5.75 20H18.25C18.9404 20 19.5 19.4404 19.5 18.75V11Z" fill="#FAFAFA"/>
</svg>
