<svg width="24" height="24" viewBox="0 0 24 24" fill="none" xmlns="http://www.w3.org/2000/svg">
<path fill-rule="evenodd" clip-rule="evenodd" d="M8.91738 5.18559C8.54721 4.51894 7.7539 4.31445 7.14441 4.68034C6.51675 5.05713 6.2808 5.91716 6.65989 6.59989L9.75064 12.1662C9.88988 12.4169 9.8739 12.7252 9.70946 12.9602C9.54502 13.1952 9.26094 13.3159 8.97763 13.271L7.75383 13.0772C7.06751 12.9685 6.38071 13.4573 6.26597 14.2406L6.14893 15.0396L11.3312 18.4383C13.4108 19.8022 16.0407 19.8553 18.1689 18.5778C21.3445 16.6714 22.4535 12.4237 20.6033 9.09166L19.661 7.39466C19.0064 6.21565 17.583 5.83561 16.4807 6.49731L12.0196 9.17539C11.8453 9.28003 11.636 9.30943 11.4396 9.25684C11.2432 9.20425 11.0766 9.07419 10.9779 8.89645L8.91738 5.18559ZM6.37236 3.39428C7.73391 2.57692 9.46096 3.07463 10.2288 4.45742L11.9127 7.49005L15.7087 5.21125C17.563 4.09808 19.9201 4.77134 20.9724 6.66649L20.358 7.00766L20.9724 6.66649L21.9147 8.36349C24.1447 12.3795 22.8323 17.5278 18.9409 19.8638C16.3183 21.4382 13.0688 21.3717 10.5085 19.6926L4.92619 16.0315C4.68216 15.8715 4.55312 15.5844 4.59542 15.2957L4.78181 14.0232C4.99571 12.5629 6.25483 11.4876 7.70124 11.5652L5.34849 7.32806C4.5896 5.96133 5.02898 4.20074 6.37236 3.39428ZM2.53151 6.91701C2.91816 7.06558 3.11117 7.49946 2.9626 7.88612C2.3458 9.49131 2.3458 10.8992 2.9626 12.5043C3.11117 12.891 2.91816 13.3249 2.53151 13.4735C2.14486 13.622 1.71098 13.429 1.5624 13.0424C0.812532 11.0908 0.812532 9.29963 1.5624 7.3481C1.71098 6.96144 2.14486 6.76844 2.53151 6.91701Z" fill="#FAFAFA"/>
</svg>
