<svg width="24" height="24" viewBox="0 0 24 24" fill="none" xmlns="http://www.w3.org/2000/svg">
<path d="M19.5 16.25C19.9142 16.25 20.25 16.5858 20.25 17C20.25 17.4142 19.9142 17.75 19.5 17.75H4.5C4.08579 17.75 3.75 17.4142 3.75 17C3.75 16.5858 4.08579 16.25 4.5 16.25H19.5Z" fill="#FAFAFA"/>
<path fill-rule="evenodd" clip-rule="evenodd" d="M4.75 7C4.75 7.79186 4.89836 8.54891 5.16699 9.24609C5.72541 9.23204 6.26747 9.15188 6.75488 9.0127C7.29344 8.8589 7.73027 8.64433 8.04395 8.4043L8.14941 8.33691C8.40531 8.20148 8.72154 8.2243 8.95703 8.40527C9.26918 8.64535 9.70561 8.86078 10.2441 9.01465C10.7802 9.16778 11.3825 9.25 12 9.25C12.6174 9.25 13.2198 9.16778 13.7559 9.01465C14.2944 8.86078 14.7308 8.64537 15.043 8.40527L15.1484 8.33789C15.4045 8.20179 15.7211 8.22399 15.957 8.40527C16.2692 8.64537 16.7056 8.86078 17.2441 9.01465C17.7314 9.15386 18.2736 9.23357 18.832 9.24707C19.101 8.54956 19.25 7.79231 19.25 7V6.25H22C22.4142 6.25 22.75 6.58579 22.75 7C22.75 7.41421 22.4142 7.75 22 7.75H20.7129C20.3356 11.6782 17.0272 14.75 13 14.75H11C6.97285 14.75 3.66439 11.6782 3.28711 7.75H2C1.58579 7.75 1.25 7.41421 1.25 7C1.25 6.58579 1.58579 6.25 2 6.25H4.75V7ZM15.5 9.89844C15.1015 10.1312 14.6503 10.3192 14.168 10.457C13.4879 10.6513 12.746 10.75 12 10.75C11.254 10.75 10.5121 10.6513 9.83203 10.457C9.34937 10.3191 8.89775 10.1314 8.49902 9.89844C8.10028 10.1306 7.64912 10.3174 7.16699 10.4551C6.78045 10.5655 6.37386 10.6441 5.95801 10.6924C7.09537 12.2428 8.92973 13.25 11 13.25H13C15.0696 13.25 16.9026 12.2429 18.04 10.6934C17.6245 10.6453 17.2182 10.5674 16.832 10.457C16.3497 10.3192 15.8985 10.1312 15.5 9.89844Z" fill="#FAFAFA"/>
</svg>
