<svg width="24" height="24" viewBox="0 0 24 24" fill="none" xmlns="http://www.w3.org/2000/svg">
<path d="M11.996 1.25C12.4102 1.25 12.746 1.58579 12.746 2V3.70703L13.453 3.03516C13.7532 2.75012 14.2273 2.76248 14.5126 3.0625C14.7979 3.36259 14.7862 3.83662 14.4862 4.12207L12.746 5.77734V10.7012L17.0477 8.21777L17.6122 5.88281C17.7094 5.4803 18.1139 5.23306 18.5165 5.33008C18.919 5.42718 19.167 5.83188 19.0702 6.23438L18.8407 7.18262L20.2821 6.35059C20.6408 6.14364 21.0995 6.26636 21.3065 6.625C21.5133 6.98357 21.3905 7.44229 21.0321 7.64941L19.5917 8.48145L20.5263 8.75684C20.9232 8.87416 21.1501 9.2914 21.0331 9.68848C20.9156 10.0854 20.4985 10.3125 20.1015 10.1953L17.7987 9.5166L13.496 12L17.7968 14.4834L20.1015 13.8047C20.4986 13.6876 20.9149 13.9144 21.0321 14.3115C21.1493 14.7086 20.9233 15.1257 20.5263 15.2432L19.5897 15.5186L21.0311 16.3506C21.3899 16.5577 21.5127 17.0163 21.3056 17.375C21.0984 17.7335 20.6398 17.8565 20.2811 17.6494L18.8407 16.8184L19.0702 17.7656C19.167 18.1681 18.918 18.5728 18.5155 18.6699C18.1133 18.7664 17.7094 18.5193 17.6122 18.1172L17.0477 15.7832L12.746 13.2988V18.2656L14.4862 19.9219C14.7862 20.2073 14.7979 20.6813 14.5126 20.9814C14.2273 21.2815 13.7532 21.2939 13.453 21.0088L12.746 20.3359V22C12.746 22.4142 12.4102 22.75 11.996 22.75C11.582 22.7498 11.246 22.4141 11.246 22V20.3369L10.5399 21.0088C10.2398 21.294 9.76475 21.2815 9.47939 20.9814C9.19442 20.6813 9.20676 20.2072 9.50673 19.9219L11.246 18.2666V13.2988L6.98134 15.7617L6.41884 18.0947C6.32172 18.4971 5.917 18.7452 5.51455 18.6484C5.11214 18.5513 4.864 18.1456 4.96083 17.7432L5.18837 16.7969L3.71181 17.6494C3.3532 17.8565 2.89362 17.7335 2.68642 17.375C2.47953 17.0163 2.60318 16.5576 2.96181 16.3506L4.43935 15.4971L3.50478 15.2207C3.10784 15.1033 2.88077 14.6862 2.99794 14.2891C3.11522 13.8922 3.53164 13.6655 3.92861 13.7822L6.23232 14.4619L10.495 11.999L6.23134 9.53809L3.92861 10.2168C3.53168 10.3337 3.11544 10.1076 2.99794 9.71094C2.88078 9.31388 3.10693 8.89582 3.5038 8.77832L4.43837 8.50293L2.96083 7.64941C2.60225 7.44236 2.47958 6.98366 2.68642 6.625C2.89357 6.26641 3.35217 6.14351 3.71083 6.35059L5.18935 7.2041L4.96083 6.25586C4.86408 5.85337 5.11206 5.44863 5.51455 5.35156C5.91691 5.25477 6.32156 5.50205 6.41884 5.9043L6.98232 8.23926L11.246 10.7002V5.77637L9.50673 4.12207C9.20679 3.83675 9.19437 3.36265 9.47939 3.0625C9.76473 2.76243 10.2398 2.75001 10.5399 3.03516L11.246 3.70605V2C11.246 1.58591 11.582 1.25021 11.996 1.25Z" fill="#FAFAFA"/>
</svg>
