<svg width="24" height="24" viewBox="0 0 24 24" fill="none" xmlns="http://www.w3.org/2000/svg">
<path d="M7.5 12.25C7.91421 12.25 8.25 12.5858 8.25 13C8.25 13.4142 7.91421 13.75 7.5 13.75H5.5C5.08579 13.75 4.75 13.4142 4.75 13C4.75 12.5858 5.08579 12.25 5.5 12.25H7.5Z" fill="#FAFAFA"/>
<path d="M7.5 9.25C7.91421 9.25 8.25 9.58579 8.25 10C8.25 10.4142 7.91421 10.75 7.5 10.75H5.5C5.08579 10.75 4.75 10.4142 4.75 10C4.75 9.58579 5.08579 9.25 5.5 9.25H7.5Z" fill="#FAFAFA"/>
<path d="M7.5 6.25C7.91421 6.25 8.25 6.58579 8.25 7C8.25 7.41421 7.91421 7.75 7.5 7.75H5.5C5.08579 7.75 4.75 7.41421 4.75 7C4.75 6.58579 5.08579 6.25 5.5 6.25H7.5Z" fill="#FAFAFA"/>
<path fill-rule="evenodd" clip-rule="evenodd" d="M8 3.25C9.51878 3.25 10.75 4.48122 10.75 6V18C10.75 19.5188 9.51878 20.75 8 20.75H5C3.48122 20.75 2.25 19.5188 2.25 18V6C2.25 4.48122 3.48122 3.25 5 3.25H8ZM5 4.75C4.30964 4.75 3.75 5.30964 3.75 6V18C3.75 18.6904 4.30964 19.25 5 19.25H8C8.69036 19.25 9.25 18.6904 9.25 18V6C9.25 5.30964 8.69036 4.75 8 4.75H5Z" fill="#FAFAFA"/>
<path d="M18.5 12.25C18.9142 12.25 19.25 12.5858 19.25 13C19.25 13.4142 18.9142 13.75 18.5 13.75H16.5C16.0858 13.75 15.75 13.4142 15.75 13C15.75 12.5858 16.0858 12.25 16.5 12.25H18.5Z" fill="#FAFAFA"/>
<path d="M18.5 9.25C18.9142 9.25 19.25 9.58579 19.25 10C19.25 10.4142 18.9142 10.75 18.5 10.75H16.5C16.0858 10.75 15.75 10.4142 15.75 10C15.75 9.58579 16.0858 9.25 16.5 9.25H18.5Z" fill="#FAFAFA"/>
<path d="M18.5 6.25C18.9142 6.25 19.25 6.58579 19.25 7C19.25 7.41421 18.9142 7.75 18.5 7.75H16.5C16.0858 7.75 15.75 7.41421 15.75 7C15.75 6.58579 16.0858 6.25 16.5 6.25H18.5Z" fill="#FAFAFA"/>
<path fill-rule="evenodd" clip-rule="evenodd" d="M19 3.25C20.5188 3.25 21.75 4.48122 21.75 6V18C21.75 19.5188 20.5188 20.75 19 20.75H16C14.4812 20.75 13.25 19.5188 13.25 18V6C13.25 4.48122 14.4812 3.25 16 3.25H19ZM16 4.75C15.3096 4.75 14.75 5.30964 14.75 6V18C14.75 18.6904 15.3096 19.25 16 19.25H19C19.6904 19.25 20.25 18.6904 20.25 18V6C20.25 5.30964 19.6904 4.75 19 4.75H16Z" fill="#FAFAFA"/>
</svg>
