<svg width="24" height="24" viewBox="0 0 24 24" fill="none" xmlns="http://www.w3.org/2000/svg">
<path fill-rule="evenodd" clip-rule="evenodd" d="M12 5.5C9.70131 5.5 7.74584 6.97778 7.03548 9.03735C6.94249 9.30696 6.70463 9.5005 6.42174 9.53673C4.20987 9.81999 2.5 11.7109 2.5 14C2.5 16.4853 4.51472 18.5 7 18.5H7.25C7.66421 18.5 8 18.8358 8 19.25C8 19.6642 7.66421 20 7.25 20H7C3.68629 20 1 17.3137 1 14C1 11.1041 3.05102 8.68825 5.77996 8.12427C6.80396 5.70153 9.20241 4 12 4C15.5725 4 18.4969 6.77542 18.7344 10.2877C21.1392 10.5876 23 12.639 23 15.125C23 17.8174 20.8174 20 18.125 20H16.75C16.3358 20 16 19.6642 16 19.25C16 18.8358 16.3358 18.5 16.75 18.5H18.125C19.989 18.5 21.5 16.989 21.5 15.125C21.5 13.261 19.989 11.75 18.125 11.75C18.0892 11.75 18.0536 11.7506 18.018 11.7517C17.8098 11.7581 17.6083 11.6777 17.4617 11.5296C17.3152 11.3815 17.2368 11.1792 17.2454 10.971C17.2485 10.8978 17.25 10.8241 17.25 10.75C17.25 7.85051 14.8995 5.5 12 5.5ZM12 11C12.4142 11 12.75 11.3358 12.75 11.75V17.4393L13.9697 16.2197C14.2626 15.9268 14.7374 15.9268 15.0303 16.2197C15.3232 16.5126 15.3232 16.9874 15.0303 17.2803L12.5303 19.7803C12.2374 20.0732 11.7626 20.0732 11.4697 19.7803L8.96967 17.2803C8.67678 16.9874 8.67678 16.5126 8.96967 16.2197C9.26256 15.9268 9.73744 15.9268 10.0303 16.2197L11.25 17.4393V11.75C11.25 11.3358 11.5858 11 12 11Z" fill="#FAFAFA"/>
</svg>
