<svg width="24" height="24" viewBox="0 0 24 24" fill="none" xmlns="http://www.w3.org/2000/svg">
<path fill-rule="evenodd" clip-rule="evenodd" d="M2 5.75C2 4.23122 3.23122 3 4.75 3H19.25C20.7688 3 22 4.23122 22 5.75V16.25C22 17.7688 20.7688 19 19.25 19H15.3759C15.3177 19 15.2613 19.0203 15.2164 19.0575L13.1181 20.7959C12.4676 21.3348 11.5249 21.3321 10.8775 20.7894L8.81242 19.0584C8.76741 19.0207 8.71055 19 8.65182 19H4.75C3.23122 19 2 17.7688 2 16.25V5.75ZM4.75 4.5C4.05964 4.5 3.5 5.05964 3.5 5.75V16.25C3.5 16.9404 4.05964 17.5 4.75 17.5H8.65182C9.06294 17.5 9.46095 17.6447 9.77602 17.9089L11.8411 19.6399C11.9336 19.7174 12.0682 19.7178 12.1612 19.6408L14.2595 17.9024C14.5734 17.6423 14.9683 17.5 15.3759 17.5H19.25C19.9404 17.5 20.5 16.9404 20.5 16.25V5.75C20.5 5.05964 19.9404 4.5 19.25 4.5H4.75Z" fill="#FAFAFA"/>
<path d="M7.5 9.75C8.19036 9.75 8.75 10.3096 8.75 11C8.75 11.6904 8.19036 12.25 7.5 12.25C6.80964 12.25 6.25 11.6904 6.25 11C6.25 10.3096 6.80964 9.75 7.5 9.75Z" fill="#FAFAFA"/>
<path d="M12 9.75C12.6904 9.75 13.25 10.3096 13.25 11C13.25 11.6904 12.6904 12.25 12 12.25C11.3096 12.25 10.75 11.6904 10.75 11C10.75 10.3096 11.3096 9.75 12 9.75Z" fill="#FAFAFA"/>
<path d="M16.5 9.75C17.1904 9.75 17.75 10.3096 17.75 11C17.75 11.6904 17.1904 12.25 16.5 12.25C15.8096 12.25 15.25 11.6904 15.25 11C15.25 10.3096 15.8096 9.75 16.5 9.75Z" fill="#FAFAFA"/>
</svg>
