<svg width="24" height="24" viewBox="0 0 24 24" fill="none" xmlns="http://www.w3.org/2000/svg">
<path fill-rule="evenodd" clip-rule="evenodd" d="M18.0253 12.1787C18.6838 12.1788 19.3155 12.4397 19.7812 12.9053C20.247 13.3711 20.5087 14.0033 20.5087 14.6621V15.9043C20.838 15.9043 21.1538 16.0349 21.3867 16.2676C21.6196 16.5005 21.7509 16.8171 21.7509 17.1465V19.6299C21.7509 19.9593 21.6196 20.2749 21.3867 20.5078C21.1538 20.7407 20.8381 20.8721 20.5087 20.8721H15.541C15.2116 20.872 14.8959 20.7407 14.663 20.5078C14.4302 20.2749 14.2988 19.9592 14.2988 19.6299V17.1465C14.2988 16.8171 14.4301 16.5005 14.663 16.2676C14.8959 16.0348 15.2117 15.9043 15.541 15.9043V14.6621C15.541 14.0033 15.8027 13.3711 16.2685 12.9053C16.7343 12.4395 17.3666 12.1787 18.0253 12.1787ZM18.0253 13.4199C17.6959 13.4199 17.3793 13.5513 17.1464 13.7842C16.9137 14.0171 16.7831 14.3329 16.7831 14.6621V15.9043H19.2665V14.6621C19.2665 14.3328 19.1361 14.0171 18.9033 13.7842C18.6704 13.5513 18.3546 13.42 18.0253 13.4199Z" fill="#FAFAFA"/>
<path d="M17.9999 2.75C18.4141 2.75006 18.7499 3.08582 18.7499 3.5V8.68945L21.0302 10.9697L21.082 11.0264C21.3222 11.3209 21.3047 11.7557 21.0302 12.0303C20.7556 12.3049 20.3209 12.3223 20.0263 12.082L19.9697 12.0303L12.8837 4.94434C12.3956 4.4564 11.6043 4.45644 11.1162 4.94434L5.89057 10.1699V17.4854C5.8911 18.1753 6.45054 18.7354 7.14057 18.7354H10.9999L11.0771 18.7383C11.455 18.7769 11.7499 19.0972 11.7499 19.4854C11.7494 19.8731 11.4548 20.1929 11.0771 20.2314L10.9999 20.2354H7.14057C5.62211 20.2354 4.3911 19.0037 4.39057 17.4854V11.6699L3.53022 12.5303C3.23734 12.8231 2.76257 12.8231 2.46967 12.5303C2.17678 12.2374 2.17678 11.7626 2.46967 11.4697L10.0556 3.88379L10.2646 3.69531C11.3447 2.81453 12.9375 2.87716 13.9443 3.88379L14.7499 4.68945V3.5C14.7499 3.08579 15.0857 2.75 15.4999 2.75H17.9999Z" fill="#FAFAFA"/>
</svg>
