<svg width="24" height="24" viewBox="0 0 24 24" fill="none" xmlns="http://www.w3.org/2000/svg">
<path fill-rule="evenodd" clip-rule="evenodd" d="M16.1337 4.46967C15.8408 4.76256 15.8408 5.23744 16.1337 5.53033L18.8534 8.25H7.66406C5.04071 8.25 2.91406 10.3766 2.91406 13V19.25C2.91406 19.6642 3.24985 20 3.66406 20C4.07828 20 4.41406 19.6642 4.41406 19.25V13C4.41406 11.2051 5.86914 9.75 7.66406 9.75H18.8534L16.1337 12.4697C15.8408 12.7626 15.8408 13.2374 16.1337 13.5303C16.4266 13.8232 16.9015 13.8232 17.1944 13.5303L20.4873 10.2374C21.1707 9.55402 21.1707 8.44598 20.4873 7.76256L17.1944 4.46967C16.9015 4.17678 16.4266 4.17678 16.1337 4.46967Z" fill="#FAFAFA"/>
</svg>
