<svg width="24" height="24" viewBox="0 0 24 24" fill="none" xmlns="http://www.w3.org/2000/svg">
<path fill-rule="evenodd" clip-rule="evenodd" d="M11.6265 2.09964C11.8593 1.96589 12.1459 1.96685 12.3779 2.10217L18.3779 5.60217C18.6083 5.73657 18.75 5.98325 18.75 6.25C18.75 6.51675 18.6083 6.76343 18.3779 6.89783L12.75 10.1808V17.25C12.75 17.6642 12.4142 18 12 18C11.5858 18 11.25 17.6642 11.25 17.25V9.76422C11.2498 9.7552 11.2498 9.74619 11.25 9.73718V2.75C11.25 2.48145 11.3936 2.2334 11.6265 2.09964ZM12.75 8.44422L16.5115 6.25L12.75 4.05578V8.44422ZM9.74287 13.848C9.79986 14.2582 9.51347 14.637 9.1032 14.694C7.34345 14.9385 5.87843 15.3938 4.87691 15.9527C3.83187 16.5359 3.5 17.1024 3.5 17.4995C3.5 17.7484 3.62129 18.0587 3.99588 18.4178C4.37244 18.7787 4.95702 19.1383 5.74104 19.4561C7.30522 20.0903 9.51773 20.4995 12 20.4995C14.4823 20.4995 16.6948 20.0903 18.259 19.4561C19.043 19.1383 19.6276 18.7787 20.0041 18.4178C20.3787 18.0587 20.5 17.7484 20.5 17.4995C20.5 17.1024 20.1681 16.5359 19.1231 15.9527C18.1216 15.3938 16.6566 14.9385 14.8968 14.694C14.4865 14.637 14.2001 14.2582 14.2571 13.848C14.3141 13.4377 14.6929 13.1513 15.1032 13.2083C16.9796 13.469 18.6396 13.9651 19.854 14.6428C21.0249 15.2962 22 16.2513 22 17.4995C22 18.2862 21.6036 18.9624 21.0421 19.5007C20.4825 20.037 19.7124 20.4855 18.8225 20.8463C17.0389 21.5694 14.6264 21.9995 12 21.9995C9.37363 21.9995 6.96115 21.5694 5.17748 20.8463C4.28759 20.4855 3.51753 20.037 2.95794 19.5007C2.39638 18.9624 2 18.2862 2 17.4995C2 16.2513 2.97506 15.2962 4.14598 14.6428C5.36043 13.9651 7.02041 13.469 8.8968 13.2083C9.30707 13.1513 9.68587 13.4377 9.74287 13.848Z" fill="#FAFAFA"/>
</svg>
