<svg width="24" height="24" viewBox="0 0 24 24" fill="none" xmlns="http://www.w3.org/2000/svg">
<path fill-rule="evenodd" clip-rule="evenodd" d="M10.3143 18.7568C10.8839 18.7569 11.4736 18.867 11.9765 19.1133C12.381 19.3115 13.2321 19.8703 13.2323 20.9521C13.2321 22.0338 12.3811 22.5917 11.9765 22.79C11.4736 23.0364 10.8839 23.1464 10.3143 23.1465C9.7446 23.1465 9.15434 23.0364 8.65126 22.79C8.272 22.6042 7.50008 22.1023 7.40516 21.1484L7.3954 20.9521L7.40516 20.7549C7.50032 19.8014 8.27208 19.299 8.65126 19.1133C9.15427 18.867 9.74473 18.7568 10.3143 18.7568ZM10.3143 20.2568C9.53116 20.2568 8.89575 20.5685 8.8954 20.9521C8.89577 21.2878 9.38197 21.5681 10.0282 21.6328L10.3143 21.6465C11.0487 21.6463 11.6533 21.373 11.7255 21.0225L11.7323 20.9521C11.732 20.6165 11.2456 20.3353 10.5995 20.2705L10.3143 20.2568Z" fill="#FAFAFA"/>
<path fill-rule="evenodd" clip-rule="evenodd" d="M11.7655 1.33301C12.1752 1.37324 12.5802 1.45246 12.9755 1.56934L12.9774 1.56836C17.1306 2.75895 19.6078 3.49505 20.3661 3.76465L20.5136 3.82324C21.2319 4.12888 21.6846 4.7081 21.9364 5.42871C22.1929 6.1627 22.254 7.07058 22.2196 8.07324C22.1853 9.07557 22.0617 9.976 21.7557 10.6904C21.4551 11.392 20.9645 11.9402 20.2274 12.1963L20.0761 12.2432L20.037 12.2529L14.121 13.5771C14.1431 13.6301 14.163 13.6864 14.1776 13.7461C14.2901 14.2063 14.0907 14.617 13.9325 14.8682C13.9224 14.8841 13.9099 14.8991 13.8993 14.915C14.1512 14.9364 14.4336 14.9576 14.744 14.9902C15.0224 15.0195 15.3202 15.0593 15.579 15.125C15.709 15.158 15.8511 15.2032 15.9852 15.2676C16.1134 15.3291 16.2836 15.4318 16.4188 15.6045C16.5715 15.7997 16.6539 16.0537 16.6171 16.3281C16.5841 16.5725 16.4657 16.7659 16.3583 16.9014C16.1491 17.1648 15.8158 17.411 15.4159 17.6543C14.5633 18.173 13.8231 18.3994 13.1327 18.4082C12.4482 18.4168 11.8914 18.2094 11.4403 18.0166C10.9587 17.8107 10.6482 17.651 10.2704 17.5732C9.93827 17.505 9.54893 17.5058 9.01161 17.7139C7.60174 18.2597 6.58256 18.3504 5.79188 18.0889C5.02477 17.8348 4.61084 17.2774 4.38368 16.999C4.36215 16.9903 4.30761 16.9718 4.19911 16.9531C3.97521 16.9147 3.72824 16.9063 3.35731 16.875C2.73573 16.8226 1.71493 16.7112 1.08876 15.8877C0.772155 15.4711 0.632892 14.956 0.860241 14.4492C1.05041 14.0257 1.43236 13.7736 1.71376 13.6279C2.30026 13.3244 3.04051 13.1902 3.31922 13.1494C3.49699 13.1234 3.71117 13.1146 3.91005 13.1064C4.12366 13.0976 4.36103 13.0886 4.63465 13.0674C5.17692 13.0254 5.86292 12.9355 6.6913 12.7061C7.40683 12.5079 8.01966 12.4532 8.6034 12.4619C8.49995 12.2881 8.40453 12.108 8.3202 11.9238C7.7871 10.7594 7.50752 9.2186 7.56434 7.57031L7.57899 7.2627C7.67005 5.73411 8.04394 4.3342 8.61708 3.2793C9.16788 2.26564 10.0207 1.38096 11.1268 1.30859L11.3515 1.30371L11.7655 1.33301ZM9.16688 13.9922C8.46814 13.935 7.8611 13.9383 7.09169 14.1514C6.15097 14.4119 5.36699 14.5148 4.75087 14.5625C4.44565 14.5861 4.18098 14.5959 3.97255 14.6045C3.74949 14.6137 3.62042 14.6214 3.53602 14.6338C3.29009 14.6698 2.75742 14.7767 2.40321 14.96C2.36654 14.9789 2.33642 14.9965 2.31239 15.0117C2.49855 15.2237 2.84304 15.3258 3.48426 15.3799C3.76124 15.4032 4.14468 15.4217 4.45301 15.4746C4.71443 15.5195 5.09442 15.6124 5.39344 15.8857L5.51649 16.0146L5.71376 16.251C5.8927 16.4594 6.03201 16.5876 6.26258 16.6641C6.57298 16.7668 7.19755 16.8069 8.46962 16.3145C9.27353 16.0032 9.95627 15.9776 10.5731 16.1045C11.1442 16.222 11.6607 16.4788 12.0302 16.6367C12.43 16.8077 12.7502 16.9128 13.1132 16.9082C13.4401 16.9041 13.8685 16.8066 14.4647 16.4707C14.0064 16.4273 13.3798 16.3878 12.9745 16.3145C12.8526 16.2924 12.7206 16.2634 12.5966 16.2207C12.4853 16.1824 12.3116 16.1106 12.161 15.9707C11.9804 15.8027 11.8291 15.5229 11.8856 15.1787C11.9314 14.9017 12.0949 14.7106 12.1981 14.6084L12.3554 14.4473C12.4322 14.3655 12.4963 14.2904 12.5497 14.2236C12.3852 14.1986 12.1552 14.1787 11.8417 14.1787C10.7331 14.1789 9.85862 14.0488 9.16688 13.9922ZM11.2929 2.80273C10.9509 2.79515 10.4332 3.0772 9.93446 3.99512C9.45606 4.87566 9.11361 6.1562 9.06337 7.62207C9.01291 9.08783 9.2673 10.3888 9.68446 11.2998C10.1224 12.2561 10.6235 12.5701 10.9647 12.582C11.3068 12.5937 11.8284 12.314 12.3309 11.3896C12.8094 10.5093 13.1527 9.2299 13.203 7.76465L13.2079 7.22266C13.1869 5.97917 12.946 4.88417 12.5809 4.08691C12.1473 3.14023 11.6511 2.82172 11.3095 2.80371H11.3007L11.2929 2.80273ZM13.9442 3.46191C14.4776 4.6263 14.7591 6.16701 14.703 7.81543C14.6464 9.46322 14.261 10.9823 13.6493 12.1074C13.641 12.1227 13.6314 12.1372 13.6229 12.1523L19.6825 10.7949C19.9739 10.7092 20.1992 10.5175 20.3778 10.1006C20.5736 9.64364 20.6883 8.9649 20.7206 8.02148C20.7529 7.07809 20.6843 6.39315 20.5204 5.92383C20.3876 5.54399 20.2066 5.33761 19.9686 5.22266L19.8632 5.17871C19.24 4.95719 17.267 4.36602 13.914 3.39941C13.9238 3.42035 13.9346 3.44089 13.9442 3.46191Z" fill="#FAFAFA"/>
</svg>
