<svg width="24" height="24" viewBox="0 0 24 24" fill="none" xmlns="http://www.w3.org/2000/svg">
<path fill-rule="evenodd" clip-rule="evenodd" d="M11.5 4.71439L6.96174 7.98194C6.49373 8.31891 5.93161 8.50022 5.35491 8.50022H3.75C3.05964 8.50022 2.5 9.05986 2.5 9.75022V14.2502C2.5 14.9406 3.05964 15.5002 3.75 15.5002H5.35491C5.93161 15.5002 6.49373 15.6815 6.96174 16.0185L11.5 19.286V4.71439ZM11.0196 3.21192C11.8465 2.61658 13 3.20746 13 4.22634V19.7741C13 20.793 11.8465 21.3839 11.0196 20.7885L6.08529 17.2358C5.87255 17.0826 5.61705 17.0002 5.35491 17.0002H3.75C2.23122 17.0002 1 15.769 1 14.2502V9.75022C1 8.23144 2.23122 7.00022 3.75 7.00022H5.35491C5.61705 7.00022 5.87255 6.91781 6.08529 6.76464L11.0196 3.21192ZM18.7175 4.22184C19.0104 3.92895 19.4853 3.92895 19.7782 4.22184C21.768 6.21163 23 8.96266 23 12C23 15.0374 21.768 17.7884 19.7782 19.7782C19.4853 20.0711 19.0104 20.0711 18.7175 19.7782C18.4246 19.4853 18.4246 19.0104 18.7175 18.7175C20.4375 16.9975 21.5 14.6236 21.5 12C21.5 9.37646 20.4375 7.00249 18.7175 5.2825C18.4246 4.98961 18.4246 4.51474 18.7175 4.22184ZM15.3588 7.58122C15.6516 7.28832 16.1265 7.28832 16.4194 7.58122C17.5496 8.71142 18.25 10.275 18.25 12.0006C18.25 13.7263 17.5496 15.2898 16.4194 16.4201C16.1265 16.7129 15.6516 16.7129 15.3588 16.4201C15.0659 16.1272 15.0659 15.6523 15.3588 15.3594C16.2192 14.499 16.75 13.3125 16.75 12.0006C16.75 10.6888 16.2192 9.50228 15.3588 8.64188C15.0659 8.34898 15.0659 7.87411 15.3588 7.58122Z" fill="#FAFAFA"/>
</svg>
