<svg width="24" height="24" viewBox="0 0 24 24" fill="none" xmlns="http://www.w3.org/2000/svg">
<path fill-rule="evenodd" clip-rule="evenodd" d="M5.91262 6.48293C5.75043 6.34403 5.5 6.45928 5.5 6.67281V17.3268C5.5 17.5404 5.75043 17.6556 5.91262 17.5167L12.2424 12.0958V11.9038L5.91262 6.48293ZM12.2424 9.92889L6.88832 5.34363C5.75299 4.37133 4 5.17805 4 6.67281V17.3268C4 18.8216 5.75299 19.6283 6.88832 18.656L12.2424 14.0707V17.3268C12.2424 18.8216 13.9954 19.6283 15.1307 18.656L21.351 13.329C22.1665 12.6305 22.1665 11.3691 21.351 10.6706L15.1307 5.34363C13.9954 4.37133 12.2424 5.17805 12.2424 6.67281V9.92889ZM14.155 6.48293C13.9929 6.34403 13.7424 6.45928 13.7424 6.67281V17.3268C13.7424 17.5404 13.9929 17.6556 14.155 17.5167L20.3753 12.1897C20.4918 12.0899 20.4918 11.9097 20.3753 11.8099L14.155 6.48293Z" fill="#FAFAFA"/>
</svg>
