<svg width="24" height="24" viewBox="0 0 24 24" fill="none" xmlns="http://www.w3.org/2000/svg">
<path fill-rule="evenodd" clip-rule="evenodd" d="M11.2773 9.54736C11.5441 9.39616 11.883 9.42119 12.126 9.62256C12.7495 10.1396 13.3689 10.8317 13.8369 11.5942C14.2999 12.3488 14.6523 13.2346 14.6523 14.1265C14.6523 15.044 14.2678 15.7752 13.6719 16.2622C13.094 16.7344 12.3539 16.9497 11.6465 16.9497C10.9392 16.9496 10.1998 16.7342 9.62207 16.2622C9.02618 15.7752 8.64164 15.044 8.6416 14.1265C8.6416 14.1113 8.64166 14.0957 8.64258 14.0806C8.75668 12.2183 9.71496 10.8284 11.168 9.62256L11.2773 9.54736ZM11.6387 11.2124C10.7083 12.1073 10.2172 13.0278 10.1426 14.1489C10.1483 14.6007 10.3257 14.9003 10.5713 15.1011C10.839 15.3197 11.2267 15.4496 11.6465 15.4497C12.0665 15.4497 12.4548 15.3198 12.7227 15.1011C12.9723 14.897 13.1523 14.5908 13.1523 14.1265C13.1522 13.6131 12.9402 13.0018 12.5576 12.3784C12.2985 11.9563 11.977 11.5568 11.6387 11.2124Z" fill="#FAFAFA"/>
<path fill-rule="evenodd" clip-rule="evenodd" d="M11.0469 2.8501C11.564 2.8501 12.0601 3.05569 12.4258 3.42139C12.7915 3.78708 12.9971 4.28312 12.9971 4.80029V5.25049H14.0469C14.2458 5.25049 14.4365 5.32956 14.5771 5.47021L14.6465 5.53955L15.0684 5.11865C15.2494 4.93756 15.4646 4.79383 15.7012 4.6958C15.9377 4.59782 16.1912 4.54739 16.4473 4.54736C16.7034 4.54738 16.9577 4.59774 17.1943 4.6958C17.4308 4.79387 17.6462 4.93756 17.8271 5.11865L17.8262 5.11963L19.1289 6.42139L19.2578 6.56299C19.3792 6.71088 19.4783 6.87682 19.5518 7.0542C19.6497 7.2907 19.7002 7.54432 19.7002 7.80029C19.7002 8.05627 19.6497 8.30989 19.5518 8.54639C19.4782 8.72377 19.3792 8.88971 19.2578 9.0376L19.1289 9.1792L18.707 9.6001L18.7773 9.67041C18.9178 9.81103 18.9971 10.0019 18.9971 10.2007V19.2007C18.9969 19.7177 18.7913 20.214 18.4258 20.5796C18.0601 20.9451 17.5639 21.1509 17.0469 21.1509H6.24707C5.73008 21.1509 5.23382 20.945 4.86816 20.5796C4.5026 20.214 4.29702 19.7177 4.29688 19.2007V7.20068C4.29688 6.6836 4.50258 6.18746 4.86816 5.82178C5.05006 5.63988 5.26411 5.49698 5.49707 5.3999V4.80029C5.49707 4.28312 5.70266 3.78708 6.06836 3.42139C6.43406 3.05569 6.93009 2.8501 7.44727 2.8501H11.0469ZM6.24707 6.75049C6.12772 6.75049 6.0131 6.79793 5.92871 6.88232C5.84443 6.9667 5.79688 7.08142 5.79688 7.20068V19.2007C5.79702 19.3198 5.84445 19.4348 5.92871 19.519C6.01307 19.6032 6.1279 19.6509 6.24707 19.6509H17.0469C17.1661 19.6509 17.2809 19.6033 17.3652 19.519C17.4495 19.4348 17.4969 19.3198 17.4971 19.2007V10.5112L13.7363 6.75049H6.24707ZM16.4473 6.04736C16.3883 6.04739 16.3299 6.05899 16.2754 6.08154C16.2208 6.10418 16.1707 6.13738 16.1289 6.1792L15.707 6.6001L17.6465 8.53955L18.0684 8.11865L18.124 8.05029C18.1404 8.02585 18.1547 7.99947 18.166 7.97217C18.1885 7.91772 18.2002 7.85921 18.2002 7.80029C18.2002 7.74137 18.1885 7.68288 18.166 7.62842C18.1547 7.60113 18.1404 7.57473 18.124 7.55029L18.0684 7.48193L16.7656 6.1792C16.724 6.13755 16.6745 6.10415 16.6201 6.08154C16.5655 6.05892 16.5063 6.04738 16.4473 6.04736ZM7.44727 4.3501C7.32792 4.3501 7.2133 4.39754 7.12891 4.48193C7.04452 4.56632 6.99707 4.68095 6.99707 4.80029V5.25049H11.4971V4.80029C11.4971 4.68095 11.4496 4.56632 11.3652 4.48193C11.2808 4.39754 11.1662 4.3501 11.0469 4.3501H7.44727Z" fill="#FAFAFA"/>
</svg>
