<svg width="24" height="24" viewBox="0 0 24 24" fill="none" xmlns="http://www.w3.org/2000/svg">
<path fill-rule="evenodd" clip-rule="evenodd" d="M11.627 8.16602C11.8027 7.88051 12.1471 7.74597 12.4697 7.83691C12.7925 7.92826 13.0155 8.22316 13.0156 8.55859V11.5215H13.7002C13.8564 11.5215 14.0112 11.5532 14.1543 11.6133L14.2939 11.6826L14.4219 11.7705C14.5034 11.8342 14.5767 11.9084 14.6387 11.9912L14.7236 12.1221L14.79 12.2627C14.8471 12.4069 14.8753 12.5617 14.8721 12.7178C14.8677 12.9262 14.8074 13.1301 14.6982 13.3076L11.667 18.2344C11.4911 18.52 11.147 18.6538 10.8242 18.5625C10.5015 18.471 10.2783 18.1763 10.2783 17.8408V14.8779H9.59375C9.38551 14.8779 9.18065 14.8221 9.00098 14.7168C8.82141 14.6114 8.67295 14.46 8.57129 14.2783C8.46964 14.0963 8.41747 13.89 8.42188 13.6816L8.43555 13.5264C8.45944 13.3729 8.51372 13.2249 8.5957 13.0918L11.627 8.16602ZM10.1807 13.3779H11.0283C11.4424 13.3779 11.7781 13.7139 11.7783 14.1279V15.1904L13.1133 13.0215H12.2656C11.8517 13.0212 11.5156 12.6855 11.5156 12.2715V11.208L10.1807 13.3779Z" fill="#FAFAFA"/>
<path fill-rule="evenodd" clip-rule="evenodd" d="M11.0469 2.84961C11.564 2.84961 12.0601 3.05532 12.4258 3.4209C12.7914 3.78651 12.997 4.28276 12.9971 4.7998V5.25H14.0469C14.2458 5.25 14.4365 5.32907 14.5771 5.46973L14.6465 5.53906L15.0684 5.11816C15.2494 4.93713 15.4647 4.79332 15.7012 4.69531C15.9377 4.59736 16.1913 4.5469 16.4473 4.54688C16.7034 4.54689 16.9577 4.59725 17.1943 4.69531C17.4309 4.79338 17.6461 4.93704 17.8271 5.11816L17.8262 5.11914L19.1289 6.4209L19.2578 6.5625C19.3792 6.71042 19.4782 6.87628 19.5518 7.05371C19.6497 7.29024 19.7002 7.54378 19.7002 7.7998C19.7002 8.05581 19.6497 8.30937 19.5518 8.5459C19.4782 8.7233 19.3792 8.88921 19.2578 9.03711L19.1289 9.17871L18.707 9.59961L18.7773 9.66992C18.9179 9.81056 18.9971 10.0014 18.9971 10.2002V19.2002C18.997 19.7173 18.7914 20.2135 18.4258 20.5791C18.0601 20.9447 17.564 21.1504 17.0469 21.1504H6.24707C5.72999 21.1504 5.23384 20.9447 4.86816 20.5791C4.50251 20.2135 4.29693 19.7173 4.29688 19.2002V7.2002C4.29688 6.68302 4.50247 6.18699 4.86816 5.82129C5.0501 5.63935 5.26406 5.49649 5.49707 5.39941V4.7998C5.49717 4.28276 5.70275 3.78651 6.06836 3.4209C6.43404 3.05532 6.93018 2.84961 7.44727 2.84961H11.0469ZM6.24707 6.75C6.12772 6.75 6.0131 6.79744 5.92871 6.88184C5.84432 6.96623 5.79688 7.08085 5.79688 7.2002V19.2002C5.79693 19.3195 5.84437 19.4342 5.92871 19.5186C6.01308 19.6028 6.12782 19.6504 6.24707 19.6504H17.0469C17.1662 19.6504 17.2809 19.6029 17.3652 19.5186C17.4496 19.4342 17.497 19.3195 17.4971 19.2002V10.5107L13.7363 6.75H6.24707ZM16.4473 6.04688C16.3883 6.0469 16.3298 6.05854 16.2754 6.08105C16.2208 6.10367 16.1707 6.13695 16.1289 6.17871L15.707 6.59961L17.6465 8.53906L18.0684 8.11816L18.124 8.0498C18.1404 8.02534 18.1547 7.99899 18.166 7.97168C18.1885 7.91719 18.2002 7.85876 18.2002 7.7998C18.2002 7.74084 18.1886 7.68242 18.166 7.62793C18.1547 7.60058 18.1404 7.57429 18.124 7.5498L18.0684 7.48145L16.7656 6.17871C16.7239 6.13703 16.6746 6.10366 16.6201 6.08105C16.5655 6.05844 16.5063 6.04689 16.4473 6.04688ZM7.44727 4.34961C7.328 4.34961 7.21328 4.39717 7.12891 4.48145C7.0446 4.56575 6.99717 4.68059 6.99707 4.7998V5.25H11.4971V4.7998C11.497 4.68059 11.4495 4.56575 11.3652 4.48145C11.2809 4.39717 11.1661 4.34961 11.0469 4.34961H7.44727Z" fill="#FAFAFA"/>
</svg>
