<svg width="24" height="24" viewBox="0 0 24 24" fill="none" xmlns="http://www.w3.org/2000/svg">
<path d="M14.5431 0.905137C14.7701 0.730561 15.0817 0.698828 15.3429 0.832871C15.6038 0.966957 15.7595 1.23827 15.7501 1.52428L15.7355 1.64732L14.3605 8.52135L19.7638 10.5477C19.9981 10.6357 20.1734 10.8353 20.2306 11.079C20.2876 11.3226 20.2187 11.5786 20.048 11.7616L9.54797 23.0116C9.31918 23.2565 8.95555 23.3199 8.65734 23.1669C8.35928 23.0137 8.19904 22.681 8.26476 22.3524L9.63879 15.4774L4.23644 13.452C4.00213 13.364 3.82684 13.1644 3.76965 12.9208C3.71265 12.6771 3.78152 12.4211 3.95226 12.2381L14.4523 0.988145L14.5431 0.905137ZM5.81261 12.4413L10.7638 14.2977C11.1079 14.4269 11.3076 14.7869 11.2355 15.1473L10.253 20.0585L18.1866 11.5575L13.2364 9.70201C12.8924 9.5728 12.6927 9.21285 12.7648 8.8524L13.7462 3.94029L5.81261 12.4413Z" fill="#FAFAFA"/>
</svg>
