<svg width="24" height="24" viewBox="0 0 24 24" fill="none" xmlns="http://www.w3.org/2000/svg">
<path d="M16 16.25C16.4142 16.25 16.75 16.5858 16.75 17C16.75 17.4142 16.4142 17.75 16 17.75H8C7.58579 17.75 7.25 17.4142 7.25 17C7.25 16.5858 7.58579 16.25 8 16.25H16Z" fill="#FAFAFA"/>
<path fill-rule="evenodd" clip-rule="evenodd" d="M10.9531 5.72461C11.9678 5.73726 13.2424 5.76551 14.6953 5.77051C15.0214 5.77165 15.3487 5.79852 15.6729 5.85254C17.4045 6.14116 18.4263 7.95597 17.7744 9.58594L17.1084 11.25C16.7334 12.1874 15.7239 12.7038 14.7441 12.459C12.9432 12.0088 11.0587 12.0088 9.25781 12.459C8.27802 12.704 7.26762 12.1876 6.89258 11.25L6.22754 9.58594C5.57558 7.95603 6.59664 6.14134 8.32812 5.85254L8.75391 5.78125C9.17237 5.71152 9.98169 5.7125 10.9531 5.72461ZM10.9346 7.22461C9.89476 7.21165 9.2528 7.21861 9 7.26074L8.5752 7.33203C7.78806 7.46323 7.32376 8.28839 7.62012 9.0293L8.28516 10.6934C8.3817 10.9344 8.64175 11.0668 8.89355 11.0039C9.05148 10.9644 9.21017 10.9289 9.36914 10.8955L8.79785 9.2998C8.65819 8.90994 8.86112 8.48059 9.25098 8.34082C9.64084 8.20116 10.0702 8.40409 10.21 8.79395L10.8818 10.6699C12.2945 10.5461 13.7227 10.6578 15.1074 11.0039C15.3593 11.0669 15.6192 10.9344 15.7158 10.6934L16.3818 9.0293C16.6782 8.2885 16.2136 7.46343 15.4268 7.33203C15.1847 7.2917 14.9374 7.27136 14.6895 7.27051C13.2287 7.26548 11.931 7.23703 10.9346 7.22461Z" fill="#FAFAFA"/>
<path fill-rule="evenodd" clip-rule="evenodd" d="M18 2.25C19.5188 2.25 20.75 3.48122 20.75 5V19C20.75 20.5188 19.5188 21.75 18 21.75H6C4.48122 21.75 3.25 20.5188 3.25 19V5C3.25 3.48122 4.48122 2.25 6 2.25H18ZM6 3.75C5.30964 3.75 4.75 4.30964 4.75 5V19C4.75 19.6904 5.30964 20.25 6 20.25H18C18.6904 20.25 19.25 19.6904 19.25 19V5C19.25 4.30964 18.6904 3.75 18 3.75H6Z" fill="#FAFAFA"/>
</svg>
