<svg width="24" height="24" viewBox="0 0 24 24" fill="none" xmlns="http://www.w3.org/2000/svg">
<path d="M20.4427 8.4982C20.7197 8.19038 21.1944 8.16548 21.5022 8.44253C21.81 8.71962 21.8349 9.19423 21.5579 9.5021C19.0151 12.3278 15.812 13.7501 12.0003 13.7501C8.30766 13.7501 5.18618 12.4153 2.68289 9.76284L2.44265 9.5021L2.3948 9.44253C2.17007 9.13572 2.20962 8.70241 2.49832 8.44253C2.78697 8.18277 3.22167 8.18905 3.5032 8.44448L3.55789 8.4982L3.98758 8.95425C6.16708 11.1574 8.8239 12.2501 12.0003 12.2501C15.3885 12.2501 18.1855 11.0065 20.4427 8.4982Z" fill="#FAFAFA"/>
<path d="M4.91922 10.7257C5.15915 10.4313 5.58812 10.3602 5.91238 10.5734C6.23677 10.7868 6.34103 11.209 6.16531 11.546L6.12722 11.6125L3.62722 15.4123C3.3996 15.7582 2.93419 15.8546 2.58816 15.6271C2.24216 15.3995 2.14576 14.9341 2.37332 14.588L4.87332 10.7882L4.91922 10.7257Z" fill="#FAFAFA"/>
<path d="M18.095 10.5744C18.4191 10.3605 18.8478 10.4312 19.0882 10.7257L19.1341 10.7873L21.6262 14.5636L21.6653 14.6291C21.8417 14.9659 21.7375 15.3888 21.4134 15.6027C21.0892 15.8166 20.6595 15.746 20.4192 15.4513L20.3743 15.3898L17.8821 11.6134L17.843 11.547C17.667 11.2103 17.771 10.7882 18.095 10.5744Z" fill="#FAFAFA"/>
<path d="M9.59304 12.256C9.97842 12.3042 10.2591 12.6367 10.2503 13.0168L10.2444 13.0929L9.74441 17.0929C9.69304 17.5039 9.31842 17.7955 8.9075 17.7443C8.49656 17.6929 8.2049 17.3183 8.25613 16.9074L8.75613 12.9074L8.7698 12.8312C8.85496 12.461 9.20794 12.208 9.59304 12.256Z" fill="#FAFAFA"/>
<path d="M14.4075 12.256C14.7926 12.208 15.1456 12.461 15.2307 12.8312L15.2444 12.9074L15.7444 16.9074L15.7503 16.9835C15.7591 17.3636 15.4784 17.6961 15.093 17.7443C14.7079 17.7923 14.355 17.5393 14.2698 17.1691L14.2561 17.0929L13.7561 13.0929L13.7503 13.0168C13.7414 12.6367 14.0221 12.3042 14.4075 12.256Z" fill="#FAFAFA"/>
</svg>
