<svg width="24" height="24" viewBox="0 0 24 24" fill="none" xmlns="http://www.w3.org/2000/svg">
<path d="M2.25 17.9541V7.0459C2.25 6.30077 2.55064 5.58779 3.08203 5.06445C3.61302 4.54158 4.33113 4.25 5.07715 4.25H10.042L10.251 4.25977C10.4584 4.27998 10.6619 4.33112 10.8555 4.41016C11.1135 4.51554 11.3483 4.67051 11.5469 4.86621L11.5479 4.86523L13.5049 6.79297L13.6016 6.87109C13.7052 6.93903 13.8298 6.97743 13.959 6.97754H18.9229C19.6689 6.97754 20.387 7.26904 20.918 7.79199C21.4493 8.31527 21.7499 9.02743 21.75 9.77246V17.9541C21.75 18.6992 21.4494 19.4122 20.918 19.9355C20.387 20.4584 19.6689 20.75 18.9229 20.75H5.07715C4.33113 20.75 3.61302 20.4584 3.08203 19.9355C2.55064 19.4122 2.25 18.6992 2.25 17.9541ZM3.75 17.9541C3.75 18.2939 3.8872 18.6224 4.13477 18.8662C4.38276 19.1104 4.72156 19.25 5.07715 19.25H18.9229C19.2784 19.25 19.6172 19.1104 19.8652 18.8662C20.1128 18.6224 20.25 18.2939 20.25 17.9541V9.77246C20.2499 9.43271 20.1128 9.10415 19.8652 8.86035C19.6173 8.61629 19.2783 8.47754 18.9229 8.47754H13.957C13.4654 8.47708 12.9887 8.30822 12.6084 8.00098L12.4521 7.86133L10.4951 5.93457C10.4369 5.87715 10.3667 5.83059 10.2891 5.79883C10.2501 5.78293 10.2093 5.7708 10.168 5.7627L10.042 5.75H5.07715C4.72156 5.75 4.38276 5.88955 4.13477 6.13379C3.8872 6.37764 3.75 6.70608 3.75 7.0459V17.9541Z" fill="#FAFAFA"/>
<path d="M14.25 12.25V12.7383C14.2501 12.25 14.2497 12.25 14.25 12.25H14.2646C14.2701 12.2501 14.2763 12.2508 14.2832 12.251C14.2975 12.2515 14.3156 12.2515 14.3359 12.253C14.3763 12.2558 14.429 12.2613 14.4902 12.2715C14.6096 12.2914 14.7803 12.3331 14.96 12.4229C15.1427 12.5142 15.3487 12.6631 15.5068 12.9004C15.6681 13.1424 15.75 13.4313 15.75 13.75V16V16.0147C15.7499 16.0201 15.7493 16.0263 15.749 16.0332C15.7485 16.0476 15.7485 16.0656 15.7471 16.086C15.7442 16.1263 15.7387 16.179 15.7285 16.2403C15.7086 16.3596 15.6669 16.5303 15.5771 16.71C15.4858 16.8927 15.3369 17.0987 15.0996 17.2569C14.8576 17.4182 14.5687 17.5 14.25 17.5H9.75V16.75C9.75 17.5 9.75037 17.5 9.75 17.5H9.73535C9.72992 17.4999 9.72373 17.4993 9.7168 17.499C9.70246 17.4986 9.68441 17.4985 9.66406 17.4971C9.62372 17.4942 9.571 17.4887 9.50977 17.4785C9.39042 17.4586 9.21968 17.4169 9.04004 17.3272C8.85732 17.2358 8.65134 17.0869 8.49316 16.8496C8.33186 16.6077 8.25 16.3188 8.25 16V13.75H9C8.25 13.75 8.25 13.7504 8.25 13.75V13.7354C8.25009 13.7299 8.25075 13.7238 8.25098 13.7168C8.25145 13.7025 8.25148 13.6844 8.25293 13.6641C8.25582 13.6237 8.26129 13.571 8.27148 13.5098C8.29138 13.3904 8.33309 13.2197 8.42285 13.0401C8.51421 12.8573 8.66312 12.6514 8.90039 12.4932C9.14236 12.3319 9.43126 12.25 9.75 12.25H14.25ZM9.75195 13.7559C9.75048 13.7647 9.75004 13.7709 9.75 13.7715V15.9961C9.75197 15.9965 9.7538 15.9977 9.75586 15.9981C9.76468 15.9995 9.77092 16 9.77148 16H14.2461C14.2465 15.9981 14.2477 15.9962 14.248 15.9942C14.2495 15.9853 14.25 15.9791 14.25 15.9785V13.753C14.2481 13.7526 14.2461 13.7523 14.2441 13.752C14.2353 13.7505 14.2291 13.7501 14.2285 13.75H9.75391C9.75352 13.752 9.7523 13.7538 9.75195 13.7559Z" fill="#FAFAFA"/>
<path d="M12.75 13V11.5C12.75 11.3011 12.6709 11.1104 12.5303 10.9697C12.3896 10.8291 12.1989 10.75 12 10.75C11.8011 10.75 11.6104 10.8291 11.4697 10.9697C11.3291 11.1104 11.25 11.3011 11.25 11.5V13C11.25 13.4142 10.9142 13.75 10.5 13.75C10.0858 13.75 9.75001 13.4142 9.75 13V11.5C9.75 10.9033 9.98722 10.3311 10.4092 9.90918C10.8311 9.48722 11.4033 9.25 12 9.25C12.5967 9.25 13.1689 9.48722 13.5908 9.90918C14.0128 10.3311 14.25 10.9033 14.25 11.5V13C14.25 13.4142 13.9142 13.75 13.5 13.75C13.0858 13.75 12.75 13.4142 12.75 13Z" fill="#FAFAFA"/>
</svg>
