<svg width="24" height="24" viewBox="0 0 24 24" fill="none" xmlns="http://www.w3.org/2000/svg">
<path d="M4.28516 4.00293C4.28501 4.30597 4.03937 4.55161 3.73633 4.55176V4.95312C3.2439 4.95312 2.83861 4.57923 2.79004 4.09961L2.78516 4.00293L2.79004 3.90527C2.8388 3.42585 3.24404 3.05176 3.73633 3.05176V3.45312L3.84668 3.46484C4.0969 3.51604 4.28516 3.73757 4.28516 4.00293Z" fill="#FAFAFA"/>
<path d="M4.6875 4.00293C4.68735 4.52796 4.2614 4.95312 3.73633 4.95312V4.55176C3.47095 4.55176 3.24942 4.36353 3.19824 4.11328L3.1875 4.00293L3.19824 3.8916C3.24958 3.64155 3.47109 3.45312 3.73633 3.45312V3.05176C4.26149 3.05176 4.6875 3.47777 4.6875 4.00293Z" fill="#FAFAFA"/>
<path d="M7.14355 7.71045C7.1434 8.01349 6.89777 8.25913 6.59473 8.25928V8.66064C6.1023 8.66064 5.69701 8.28675 5.64844 7.80713L5.64355 7.71045L5.64844 7.61279C5.6972 7.13337 6.10244 6.75928 6.59473 6.75928V7.16064L6.70508 7.17236C6.9553 7.22356 7.14355 7.44509 7.14355 7.71045Z" fill="#FAFAFA"/>
<path d="M7.54492 7.71045C7.54477 8.23548 7.1198 8.66064 6.59473 8.66064V8.25928C6.32935 8.25928 6.10684 8.07105 6.05566 7.8208L6.04492 7.71045L6.05566 7.59912C6.107 7.34907 6.32949 7.16064 6.59473 7.16064V6.75928C7.11989 6.75928 7.54492 7.18529 7.54492 7.71045Z" fill="#FAFAFA"/>
<path d="M4.68652 11.1089C4.68637 11.412 4.44068 11.6576 4.1377 11.6577V12.0591C3.64532 12.0591 3.23998 11.6853 3.19141 11.2056L3.18652 11.1089L3.19141 11.0112C3.24017 10.5317 3.64546 10.1577 4.1377 10.1577V10.5591L4.24805 10.5708C4.49823 10.622 4.68652 10.8435 4.68652 11.1089Z" fill="#FAFAFA"/>
<path d="M5.08887 11.1089C5.08872 11.634 4.66271 12.0591 4.1377 12.0591V11.6577C3.87237 11.6577 3.6508 11.4695 3.59961 11.2192L3.58887 11.1089L3.59961 10.9976C3.65095 10.7475 3.87251 10.5591 4.1377 10.5591V10.1577C4.6628 10.1577 5.08887 10.5836 5.08887 11.1089Z" fill="#FAFAFA"/>
<path d="M6.94238 15.4104C6.94223 15.7135 6.69654 15.9591 6.39355 15.9592V16.3606C5.90117 16.3606 5.49584 15.9868 5.44727 15.5071L5.44238 15.4104L5.44727 15.3127C5.49603 14.8333 5.90132 14.4592 6.39355 14.4592V14.8606L6.50391 14.8723C6.75409 14.9235 6.94238 15.145 6.94238 15.4104Z" fill="#FAFAFA"/>
<path d="M7.34473 15.4104C7.34458 15.9355 6.91857 16.3606 6.39355 16.3606V15.9592C6.12823 15.9592 5.90665 15.771 5.85547 15.5208L5.84473 15.4104L5.85547 15.2991C5.90681 15.049 6.12837 14.8606 6.39355 14.8606V14.4592C6.91866 14.4592 7.34473 14.8852 7.34473 15.4104Z" fill="#FAFAFA"/>
<path d="M4.48633 19.1799C4.48618 19.483 4.24048 19.7286 3.9375 19.7288V20.1301C3.44512 20.1301 3.03978 19.7563 2.99121 19.2766L2.98633 19.1799L2.99121 19.0823C3.03998 18.6028 3.44526 18.2288 3.9375 18.2288V18.6301L4.04785 18.6418C4.29804 18.693 4.48633 18.9145 4.48633 19.1799Z" fill="#FAFAFA"/>
<path d="M4.8877 19.1799C4.88754 19.705 4.46251 20.1301 3.9375 20.1301V19.7288C3.67217 19.7288 3.44962 19.5406 3.39844 19.2903L3.3877 19.1799L3.39844 19.0686C3.44978 18.8185 3.67231 18.6301 3.9375 18.6301V18.2288C4.4626 18.2288 4.8877 18.6547 4.8877 19.1799Z" fill="#FAFAFA"/>
<path d="M8.33887 20.7939V3.20703C8.33887 2.79282 8.67465 2.45703 9.08887 2.45703C9.50308 2.45703 9.83887 2.79282 9.83887 3.20703V20.7939L9.83496 20.8711C9.79636 21.2491 9.47705 21.5439 9.08887 21.5439C8.70069 21.5439 8.38138 21.2491 8.34277 20.8711L8.33887 20.7939Z" fill="#FAFAFA"/>
<path d="M13.9647 4.80591C14.9668 4.80593 15.928 5.20382 16.6366 5.91235C17.0638 6.33937 17.6429 6.57926 18.2469 6.57935C18.8511 6.57935 19.4309 6.33948 19.8583 5.91235C20.1512 5.61969 20.626 5.61961 20.9188 5.91235C21.2115 6.2052 21.2114 6.68005 20.9188 6.9729C20.2102 7.68117 19.2488 8.07935 18.2469 8.07935C17.2452 8.07926 16.2846 7.68109 15.576 6.9729C15.1488 6.54567 14.569 6.30593 13.9647 6.30591C13.3604 6.30591 12.7807 6.5457 12.3534 6.9729C12.0605 7.26579 11.5857 7.2658 11.2928 6.9729C11.0001 6.67999 11 6.2052 11.2928 5.91235C12.0015 5.20385 12.9626 4.80591 13.9647 4.80591Z" fill="#FAFAFA"/>
<path d="M13.9647 15.6887C14.9668 15.6887 15.928 16.0866 16.6366 16.7952L16.8026 16.9456C16.9754 17.0874 17.1685 17.2034 17.3759 17.2893C17.6521 17.4037 17.948 17.4631 18.2469 17.4631C18.5461 17.4631 18.8426 17.4038 19.119 17.2893L19.3212 17.1936C19.5183 17.0881 19.6997 16.9538 19.8583 16.7952C20.1511 16.5026 20.626 16.5025 20.9188 16.7952C21.2117 17.088 21.2115 17.5628 20.9188 17.8557C20.6119 18.1628 20.2547 18.4145 19.8632 18.5999L19.6932 18.675C19.2349 18.8649 18.7432 18.9631 18.2469 18.9631C17.7509 18.9631 17.2599 18.8649 16.8016 18.675C16.3433 18.4851 15.9268 18.2066 15.576 17.8557C15.1488 17.4285 14.569 17.1887 13.9647 17.1887C13.3604 17.1887 12.7807 17.4285 12.3534 17.8557C12.0605 18.1486 11.5857 18.1486 11.2928 17.8557C11.0001 17.5628 11 17.088 11.2928 16.7952C12.0015 16.0866 12.9627 15.6887 13.9647 15.6887Z" fill="#FAFAFA"/>
<path d="M15.7958 10.1577C16.5782 10.1577 17.3285 10.4688 17.8817 11.022C18.1537 11.2939 18.5227 11.4467 18.9071 11.4468C19.2915 11.4468 19.6605 11.2938 19.9325 11.022C20.2254 10.7291 20.7002 10.7291 20.993 11.022C21.2859 11.3149 21.286 11.7897 20.993 12.0825C20.4398 12.6356 19.6895 12.9468 18.9071 12.9468C18.1247 12.9467 17.3744 12.6356 16.8212 12.0825C16.5491 11.8106 16.1803 11.6577 15.7958 11.6577C15.4113 11.6577 15.0424 11.8106 14.7704 12.0825C14.4775 12.3753 14.0027 12.3753 13.7098 12.0825C13.417 11.7896 13.417 11.3148 13.7098 11.022C14.2631 10.4689 15.0134 10.1577 15.7958 10.1577Z" fill="#FAFAFA"/>
</svg>
