<svg width="24" height="24" viewBox="0 0 24 24" fill="none" xmlns="http://www.w3.org/2000/svg">
<path fill-rule="evenodd" clip-rule="evenodd" d="M12 4.46586L10.5 4.46586L9.99071 3.91528L10.5 4.46586L2.35449 12.0004L10.5 19.535L10.5 16.0004C10.5 15.3019 11.0744 14.7467 11.7615 14.7526C15.7923 14.7873 18.1603 15.2356 19.7171 16.1541C20.3018 16.4992 20.7583 16.9037 21.1374 17.3485C20.9148 14.8045 20.3496 13.0143 19.3306 11.7795C17.9925 10.1581 15.7141 9.31746 11.7422 9.25429C11.0724 9.24364 10.5 8.70183 10.5 8.00045V4.46586L12 4.46586ZM12 7.7591V4.46586C12 3.15748 10.4419 2.47626 9.48143 3.36471L1.33593 10.8993L1.84521 11.4499L1.33593 10.8993C0.694014 11.4931 0.694012 12.5078 1.33593 13.1016L9.48143 20.6362C10.4419 21.5246 12 20.8434 12 19.535V16.2553C15.8286 16.3063 17.7882 16.7577 18.9548 17.446C20.0961 18.1194 20.5671 19.0615 21.3057 20.539L21.3292 20.5859C21.4847 20.897 21.8338 21.0603 22.1723 20.9804C22.5108 20.9005 22.75 20.5983 22.75 20.2504C22.75 16.0692 22.2195 12.9235 20.4875 10.8247C18.7575 8.72836 15.9875 7.85346 12 7.7591Z" fill="#FAFAFA"/>
</svg>
