<svg width="24" height="24" viewBox="0 0 24 24" fill="none" xmlns="http://www.w3.org/2000/svg">
<path d="M12 2.75C17.1086 2.75 21.25 6.89137 21.25 12C21.25 12.4142 20.9142 12.75 20.5 12.75C20.0858 12.75 19.75 12.4142 19.75 12C19.75 7.71979 16.2802 4.25 12 4.25C7.71979 4.25 4.25 7.71979 4.25 12C4.25 16.2802 7.71979 19.75 12 19.75C12.4142 19.75 12.75 20.0858 12.75 20.5C12.75 20.9142 12.4142 21.25 12 21.25C6.89137 21.25 2.75 17.1086 2.75 12C2.75 6.89137 6.89137 2.75 12 2.75Z" fill="#FAFAFA"/>
<path d="M18.916 15.375C19.8248 15.375 20.625 16.0855 20.625 17.0381C20.625 17.72 20.2019 18.3119 19.5889 18.5674L18.25 19.125H19.875C20.2892 19.125 20.625 19.4608 20.625 19.875C20.625 20.2892 20.2892 20.625 19.875 20.625H17.25C16.8358 20.625 16.5 20.2892 16.5 19.875V19.3428C16.5 18.6511 16.9294 18.0503 17.5518 17.791L19.0117 17.1826C19.0967 17.1472 19.125 17.0818 19.125 17.0381C19.1249 16.982 19.0662 16.875 18.916 16.875H18.2344C18.1108 16.875 18.0319 16.9486 18.0088 17.0107C17.8647 17.3991 17.4333 17.5972 17.0449 17.4531C16.6568 17.309 16.4586 16.8775 16.6025 16.4893C16.8497 15.8231 17.5008 15.375 18.2344 15.375H18.916Z" fill="#FAFAFA"/>
<path fill-rule="evenodd" clip-rule="evenodd" d="M12.6445 7.5C14.1047 7.5 15.3281 8.65368 15.3281 10.125V13.875C15.3281 15.3463 14.1047 16.5 12.6445 16.5H11.3555C9.89528 16.5 8.67188 15.3463 8.67188 13.875V10.125C8.67188 8.65368 9.89528 7.5 11.3555 7.5H12.6445ZM11.3555 9C10.6799 9 10.1719 9.52527 10.1719 10.125V13.875C10.1719 14.4747 10.6799 15 11.3555 15H12.6445C13.3201 15 13.8281 14.4747 13.8281 13.875V10.125C13.8281 9.52527 13.3201 9 12.6445 9H11.3555Z" fill="#FAFAFA"/>
</svg>
