<svg width="24" height="24" viewBox="0 0 24 24" fill="none" xmlns="http://www.w3.org/2000/svg">
<path d="M8.5 7.50098C8.91421 7.50098 9.25 7.83676 9.25 8.25098V8.75098C9.24974 9.16497 8.91405 9.50098 8.5 9.50098C8.08579 9.50098 7.75 9.16421 7.75 8.75V8.25C7.75026 7.83601 8.08595 7.50098 8.5 7.50098Z" fill="#FAFAFA"/>
<path d="M11.5 7.50098C11.9142 7.50098 12.25 7.83676 12.25 8.25098V8.75098C12.2497 9.16497 11.9141 9.50098 11.5 9.50098C11.0858 9.50098 10.75 9.16421 10.75 8.75V8.25C10.7503 7.83601 11.0859 7.50098 11.5 7.50098Z" fill="#FAFAFA"/>
<path d="M15 7.50098C15.4142 7.50098 15.75 7.83676 15.75 8.25098V8.75098C15.7497 9.16497 15.4141 9.50098 15 9.50098C14.5858 9.50098 14.25 9.16421 14.25 8.75V8.25C14.2503 7.83601 14.5859 7.50098 15 7.50098Z" fill="#FAFAFA"/>
<path d="M18 7.50098C18.4142 7.50098 18.75 7.83676 18.75 8.25098V8.75098C18.7497 9.16497 18.4141 9.50098 18 9.50098C17.5858 9.50098 17.25 9.16421 17.25 8.75V8.25C17.2503 7.83601 17.5859 7.50098 18 7.50098Z" fill="#FAFAFA"/>
<path d="M10 5.50098C10.4142 5.50098 10.75 5.83676 10.75 6.25098V6.75098C10.7497 7.16497 10.4141 7.50098 10 7.50098C9.58579 7.50098 9.25 7.16421 9.25 6.75V6.25C9.25026 5.83601 9.58595 5.50098 10 5.50098Z" fill="#FAFAFA"/>
<path d="M16.5 5.50098C16.9142 5.50098 17.25 5.83676 17.25 6.25098V6.75098C17.2497 7.16497 16.9141 7.50098 16.5 7.50098C16.0858 7.50098 15.75 7.16421 15.75 6.75V6.25C15.7503 5.83601 16.0859 5.50098 16.5 5.50098Z" fill="#FAFAFA"/>
<path fill-rule="evenodd" clip-rule="evenodd" d="M19.75 3C20.7165 3 21.5 3.78448 21.5 4.75098V10.751C21.4997 11.7173 20.7163 12.5 19.75 12.5H6.75C5.7835 12.5 5 11.7165 5 10.75V8.5H4.75C4.05989 8.5001 3.50026 9.05993 3.5 9.75V13.25C3.5 15.0449 4.95516 16.4999 6.75 16.5H8.24805C8.26346 15.8256 8.53654 15.1812 9.01465 14.7031C9.50691 14.211 10.175 13.9346 10.8711 13.9346H11.5586C12.006 13.9346 12.4355 14.1124 12.752 14.4287C12.8824 14.5591 12.9868 14.96 13.0674 14.8721H13.8711C14.2853 14.8721 14.6211 15.2088 14.6211 15.623C14.6208 16.037 14.2851 16.3721 13.8711 16.3721H13.2461V18.0225H13.8711C14.2853 18.0225 14.621 18.3583 14.6211 18.7725C14.6211 19.1867 14.2853 19.5225 13.8711 19.5225H13.0684C12.9878 19.6847 12.8825 19.8353 12.752 19.9658C12.4355 20.2823 12.0061 20.46 11.5586 20.46H10.8711C10.1749 20.46 9.50693 20.1837 9.01465 19.6914C8.56145 19.2382 8.29392 18.636 8.25391 18H6.75C4.12673 17.9999 2 15.8733 2 13.25V9.75C2.00026 8.2315 3.23146 7.0001 4.75 7H5V4.75C5.00026 3.78373 5.78366 3 6.75 3H19.75ZM10.8711 15.4346C10.5728 15.4346 10.2861 15.5528 10.0752 15.7637C9.86433 15.9745 9.74622 16.2614 9.74609 16.5596V17.835C9.74624 17.7842 9.86438 18.42 10.0752 18.6309C10.2862 18.8418 10.5727 18.96 10.8711 18.96H11.5586C11.6083 18.96 11.6562 18.9404 11.6914 18.9053C11.7265 18.8698 11.7461 18.4725 11.7461 18.7725V15.6221C11.746 15.5725 11.7265 15.5243 11.6914 15.4893C11.6563 15.4542 11.6082 15.4346 11.5586 15.4346H10.8711ZM6.75 4.5C6.61209 4.5 6.50026 4.61215 6.5 4.75V10.75C6.5 10.8881 6.61193 11 6.75 11H19.75C19.8881 11 20 10.8881 20 10.75V4.75C19.9997 4.61215 19.8879 4.5 19.75 4.5H6.75Z" fill="#FAFAFA"/>
</svg>
