<svg width="24" height="24" viewBox="0 0 24 24" fill="none" xmlns="http://www.w3.org/2000/svg">
<path d="M16.6289 13.8076C16.6344 13.8086 16.64 13.8094 16.6455 13.8105C16.6518 13.8118 16.6578 13.815 16.6641 13.8164C16.7044 13.8256 16.7445 13.8366 16.7832 13.8525C16.8009 13.8598 16.817 13.8703 16.834 13.8789C16.9033 13.9139 16.9694 13.9578 17.0273 14.0156C17.0745 14.0627 17.1116 14.1159 17.1436 14.1709C17.1601 14.1994 17.1767 14.228 17.1895 14.2588C17.2101 14.3088 17.2249 14.3605 17.2344 14.4131C17.2421 14.4562 17.2471 14.5005 17.2471 14.5459V16.5449C17.2469 16.9589 16.911 17.2947 16.4971 17.2949C16.083 17.2949 15.7472 16.9589 15.7471 16.5449V16.335C15.2024 16.8073 14.4112 17.3015 13.5146 17.2939L13.5156 17.2949C13.5084 17.295 13.5004 17.2938 13.4932 17.2939C13.4898 17.294 13.4858 17.295 13.4824 17.2949C12.4987 17.3052 11.4725 16.8253 10.8828 15.9717C10.5927 15.5521 10.0426 15.2845 9.51758 15.2959C9.50695 15.2961 9.49598 15.2961 9.48535 15.2959C8.96037 15.2846 8.41018 15.552 8.12012 15.9717L8.07324 16.0332C7.82662 16.3221 7.39549 16.3837 7.07617 16.1631C6.73575 15.9277 6.65071 15.4598 6.88574 15.1191L7.00293 14.9619C7.60526 14.2069 8.56378 13.7881 9.48535 13.7979C9.49043 13.7977 9.49589 13.7979 9.50098 13.7979C9.50639 13.7979 9.51217 13.7968 9.51758 13.7969L9.5166 13.7979C10.5008 13.7869 11.527 14.2651 12.1172 15.1191C12.4071 15.5388 12.9574 15.8061 13.4824 15.7949C13.4932 15.7947 13.5049 15.7947 13.5156 15.7949C13.8598 15.8023 14.2693 15.6036 14.6533 15.2959H14.498C14.0839 15.2958 13.748 14.9601 13.748 14.5459C13.748 14.1317 14.0839 13.796 14.498 13.7959H16.4971C16.542 13.7959 16.5861 13.8 16.6289 13.8076Z" fill="#FAFAFA"/>
<path d="M16.6289 9.15918C16.6344 9.16016 16.64 9.16101 16.6455 9.16211C16.6518 9.16338 16.6578 9.16653 16.6641 9.16797C16.7044 9.17714 16.7445 9.18819 16.7832 9.2041C16.8009 9.21141 16.817 9.22187 16.834 9.23047C16.9033 9.26543 16.9694 9.30935 17.0273 9.36719C17.0745 9.4143 17.1116 9.46741 17.1436 9.52246C17.1601 9.55099 17.1767 9.5796 17.1895 9.61035C17.2101 9.66037 17.2249 9.71203 17.2344 9.76465C17.2421 9.80781 17.2471 9.85208 17.2471 9.89746V11.8965C17.2469 12.3104 16.911 12.6463 16.4971 12.6465C16.083 12.6464 15.7472 12.3105 15.7471 11.8965V11.6865C15.2024 12.1588 14.4112 12.6531 13.5146 12.6455L13.5156 12.6465C13.5084 12.6466 13.5004 12.6454 13.4932 12.6455C13.4898 12.6455 13.4858 12.6466 13.4824 12.6465C12.4987 12.6568 11.4725 12.1768 10.8828 11.3232C10.5927 10.9036 10.0426 10.6361 9.51758 10.6475C9.50695 10.6477 9.49598 10.6477 9.48535 10.6475C8.96037 10.6362 8.41018 10.9036 8.12012 11.3232L8.07324 11.3848C7.82662 11.6737 7.39549 11.7352 7.07617 11.5146C6.73575 11.2792 6.65071 10.8114 6.88574 10.4707L7.00293 10.3135C7.60526 9.5585 8.56378 9.13968 9.48535 9.14941C9.49043 9.1493 9.49589 9.14945 9.50098 9.14941C9.50639 9.1495 9.51217 9.14837 9.51758 9.14844L9.5166 9.14941C10.5008 9.13847 11.527 9.6167 12.1172 10.4707C12.4071 10.8904 12.9574 11.1576 13.4824 11.1465C13.4932 11.1463 13.5049 11.1463 13.5156 11.1465C13.8598 11.1538 14.2693 10.9552 14.6533 10.6475H14.498C14.0839 10.6474 13.748 10.3116 13.748 9.89746C13.748 9.48329 14.0839 9.14753 14.498 9.14746H16.4971C16.542 9.14748 16.5861 9.15158 16.6289 9.15918Z" fill="#FAFAFA"/>
<path fill-rule="evenodd" clip-rule="evenodd" d="M15.1484 2.09473C16.6254 2.09522 17.827 3.26047 17.8916 4.72168H19C20.1046 4.72168 21 5.61711 21 6.72168V19.7217C20.9997 20.826 20.1044 21.7217 19 21.7217H5L4.7959 21.7109C3.78738 21.6087 3.00025 20.7571 3 19.7217V6.72168C3 5.61711 3.89543 4.72168 5 4.72168H6.1084C6.17294 3.26016 7.37511 2.09473 8.85254 2.09473H15.1484ZM5 6.22168C4.72386 6.22168 4.5 6.44554 4.5 6.72168V19.7217C4.50026 19.9976 4.72402 20.2217 5 20.2217H19C19.276 20.2217 19.4997 19.9976 19.5 19.7217V6.72168C19.5 6.44554 19.2761 6.22168 19 6.22168H5ZM8.85254 3.59473C8.20378 3.59473 7.67031 4.08917 7.6084 4.72168H16.3916C16.3297 4.08947 15.7968 3.59521 15.1484 3.59473H8.85254Z" fill="#FAFAFA"/>
</svg>
