<svg width="24" height="24" viewBox="0 0 24 24" fill="none" xmlns="http://www.w3.org/2000/svg">
<path d="M17.5254 14.9922C17.9394 14.9925 18.2754 15.3281 18.2754 15.7422V17.4453L19.3359 18.4248C19.6285 18.7177 19.6287 19.1926 19.3359 19.4854C19.0431 19.7781 18.5683 19.7779 18.2754 19.4854L16.9941 18.2861C16.8537 18.1455 16.7754 17.9546 16.7754 17.7559V15.7422C16.7754 15.328 17.1112 14.9922 17.5254 14.9922Z" fill="#FAFAFA"/>
<path fill-rule="evenodd" clip-rule="evenodd" d="M18.1484 12.1924C20.96 12.3348 23.1963 14.6599 23.1963 17.5068L23.1885 17.7803C23.046 20.5917 20.7218 22.828 17.875 22.8281L17.6006 22.8203C14.8799 22.6822 12.6984 20.501 12.5605 17.7803L12.5537 17.5068C12.5537 14.5681 14.9363 12.1855 17.875 12.1855L18.1484 12.1924ZM17.875 13.6855C15.7647 13.6855 14.0537 15.3965 14.0537 17.5068C14.0538 19.617 15.7648 21.3281 17.875 21.3281C19.9851 21.328 21.6962 19.6169 21.6963 17.5068C21.6963 15.3966 19.9852 13.6857 17.875 13.6855Z" fill="#FAFAFA"/>
<path fill-rule="evenodd" clip-rule="evenodd" d="M16.25 2C16.6642 2 17 2.33579 17 2.75V4H18.25C19.7688 4 21 5.23122 21 6.75V10.25C21 10.6642 20.6642 11 20.25 11C19.8358 11 19.5 10.6642 19.5 10.25V10H4.5V18.25C4.5 18.9404 5.05964 19.5 5.75 19.5H11.25C11.6642 19.5 12 19.8358 12 20.25C12 20.6642 11.6642 21 11.25 21H5.75C4.23122 21 3 19.7688 3 18.25V6.75C3 5.23122 4.23122 4 5.75 4H7V2.75C7 2.33579 7.33579 2 7.75 2C8.16421 2 8.5 2.33579 8.5 2.75V4H15.5V2.75C15.5 2.33579 15.8358 2 16.25 2ZM5.75 5.5C5.05964 5.5 4.5 6.05964 4.5 6.75V8.5H19.5V6.75C19.5 6.05964 18.9404 5.5 18.25 5.5H5.75Z" fill="#FAFAFA"/>
</svg>
