<svg width="24" height="24" viewBox="0 0 24 24" fill="none" xmlns="http://www.w3.org/2000/svg">
<path fill-rule="evenodd" clip-rule="evenodd" d="M13.1171 1.99707C14.2951 1.99707 15.3216 2.33148 16.0526 3.0625C16.7835 3.79351 17.1171 4.82007 17.1171 5.99805C17.117 7.17589 16.7835 8.20267 16.0526 8.93359C15.4885 9.49755 14.7481 9.82335 13.8983 9.94336V13.3271H17.3495C17.9168 13.3273 18.4633 13.551 18.8671 13.9502L19.0106 14.1064C19.3246 14.4858 19.4998 14.9645 19.4999 15.4619V21.001C19.4994 21.4145 19.1635 21.7506 18.7499 21.751C18.3361 21.7508 18.0003 21.4147 17.9999 21.001V15.4619C17.9998 15.3382 17.9628 15.2165 17.8934 15.1133L17.8124 15.0166C17.6913 14.8969 17.5245 14.8273 17.3495 14.8271H13.1483C12.7343 14.8271 12.3986 14.4911 12.3983 14.0771V9.95117C11.5224 9.8385 10.7593 9.51137 10.1815 8.93359C9.4506 8.20267 9.11716 7.17589 9.11706 5.99805C9.11706 4.82019 9.45075 3.7935 10.1815 3.0625C10.9125 2.33153 11.9391 1.99712 13.1171 1.99707ZM13.1171 3.49805C12.2153 3.49809 11.616 3.7491 11.2421 4.12305C10.8683 4.49705 10.6171 5.09639 10.6171 5.99805C10.6172 6.89972 10.8682 7.49914 11.2421 7.87305C11.616 8.24692 12.2154 8.498 13.1171 8.49805C14.0187 8.49805 14.6181 8.24682 14.9921 7.87305C15.366 7.49914 15.617 6.89971 15.6171 5.99805C15.6171 5.0962 15.366 4.49703 14.9921 4.12305C14.6181 3.74907 14.019 3.49805 13.1171 3.49805Z" fill="#FAFAFA"/>
<path d="M9.72253 10.5615C10.1005 10.5997 10.3959 10.9185 10.3964 11.3066C10.3968 11.7207 10.0614 12.057 9.64734 12.0576L9.36609 12.0674C8.80655 12.1054 8.26057 12.2552 7.76159 12.5068L7.51648 12.6406C6.95353 12.9737 6.48021 13.433 6.13367 13.9785L5.99304 14.2178C5.63933 14.8684 5.47022 15.6011 5.50378 16.3379L5.52624 16.6123C5.59923 17.2515 5.82409 17.8664 6.18445 18.4062L6.34558 18.6318C6.74056 19.1447 7.25429 19.5599 7.84558 19.8418C8.52125 20.1638 9.27329 20.2993 10.0214 20.2334L10.2997 20.1992C10.9461 20.0983 11.5607 19.8483 12.0917 19.4678L12.3124 19.2979C12.8139 18.8846 13.2109 18.3595 13.4686 17.7656C13.6337 17.3861 14.0752 17.2121 14.455 17.377C14.8345 17.542 15.0093 17.9835 14.8446 18.3633C14.4918 19.1762 13.9496 19.8921 13.2665 20.4551L12.9657 20.6875C12.243 21.2054 11.408 21.5448 10.5311 21.6816L10.1532 21.7275C9.13893 21.8169 8.1182 21.6339 7.20007 21.1963C6.39659 20.8133 5.69739 20.2471 5.15808 19.5469L4.9364 19.2393C4.44389 18.5014 4.13617 17.6593 4.03601 16.7832L4.00574 16.4062C3.9597 15.3954 4.19155 14.3913 4.67566 13.501L4.86804 13.1738C5.34171 12.4284 5.98727 11.8025 6.75281 11.3496L7.08679 11.167C7.87808 10.768 8.75545 10.5585 9.64636 10.5576L9.72253 10.5615Z" fill="#FAFAFA"/>
</svg>
