<svg width="24" height="24" viewBox="0 0 24 24" fill="none" xmlns="http://www.w3.org/2000/svg">
<path d="M9.96094 15.6367C10.1836 15.6367 10.3735 15.7186 10.5303 15.8828C10.687 16.047 10.7656 16.2421 10.7656 16.4678C10.7656 16.6979 10.6866 16.8946 10.5293 17.0566C10.372 17.2185 10.1806 17.2998 9.95605 17.2998C9.73654 17.2997 9.54804 17.2184 9.39062 17.0566C9.23311 16.8948 9.1543 16.698 9.1543 16.4668C9.15435 16.2409 9.23316 16.0456 9.39062 15.8818C9.54809 15.7182 9.73834 15.6367 9.96094 15.6367Z" fill="#FAFAFA"/>
<path d="M14.1133 15.6367C14.3381 15.6368 14.5285 15.7188 14.6846 15.8828C14.8407 16.047 14.9189 16.2421 14.9189 16.4678C14.9189 16.6979 14.8409 16.8946 14.6836 17.0566C14.5263 17.2186 14.335 17.2997 14.1104 17.2998C13.8857 17.2998 13.6948 17.2188 13.5381 17.0576C13.3814 16.8963 13.3027 16.7008 13.3027 16.4717C13.3027 16.2425 13.3815 16.0456 13.5391 15.8818C13.6965 15.7182 13.8883 15.6367 14.1133 15.6367Z" fill="#FAFAFA"/>
<path d="M12.0527 13.7178C12.2754 13.7178 12.4649 13.8005 12.6211 13.9648C12.7772 14.1293 12.8555 14.3248 12.8555 14.5508C12.8554 14.7767 12.7764 14.972 12.6191 15.1357C12.4619 15.2994 12.2705 15.3809 12.0459 15.3809C11.8263 15.3808 11.6367 15.2991 11.4775 15.1348C11.3184 14.9704 11.2393 14.7748 11.2393 14.5488C11.2393 14.3228 11.3187 14.1277 11.4785 13.9639C11.6383 13.8001 11.83 13.7178 12.0527 13.7178Z" fill="#FAFAFA"/>
<path d="M9.9248 11.7998C10.1475 11.7998 10.3373 11.8809 10.4941 12.043C10.6508 12.2049 10.7294 12.4015 10.7295 12.6328C10.7295 12.8643 10.6505 13.0598 10.4932 13.2188C10.3359 13.3777 10.1447 13.457 9.91992 13.457C9.70038 13.4569 9.51192 13.3772 9.35449 13.2178C9.19717 13.0584 9.11824 12.8623 9.11816 12.6289C9.11816 12.4005 9.19699 12.205 9.35449 12.043C9.512 11.8809 9.70209 11.7998 9.9248 11.7998Z" fill="#FAFAFA"/>
<path d="M14.1582 11.7998C14.3832 11.7998 14.5743 11.8809 14.7305 12.043C14.8864 12.2049 14.9638 12.4016 14.9639 12.6328C14.9639 12.8642 14.8858 13.0599 14.7285 13.2188C14.571 13.3777 14.3793 13.457 14.1543 13.457C13.9293 13.457 13.7382 13.3772 13.582 13.2178C13.4261 13.0584 13.3477 12.8622 13.3477 12.6289C13.3477 12.4006 13.4266 12.205 13.584 12.043C13.7415 11.8809 13.9332 11.7998 14.1582 11.7998Z" fill="#FAFAFA"/>
<path fill-rule="evenodd" clip-rule="evenodd" d="M17.25 7.75C17.6642 7.75 18 8.08579 18 8.5V9.60449C20.2821 10.0674 22 12.0842 22 14.5029C22 16.9221 20.4064 18.8699 18 19.3994V20.4004C18 20.8146 17.6642 21.1504 17.25 21.1504C16.8358 21.1504 16.5 20.8146 16.5 20.4004V19.501C16.4791 19.5005 16.4678 19.502 16.4678 19.502H7.53223L7.53027 19.501V20.4004C7.53027 20.8144 7.19426 21.1501 6.78027 21.1504C6.36606 21.1504 6.03027 20.8146 6.03027 20.4004V19.4062C3.60691 18.8865 2 16.9323 2 14.5029C2 12.0735 3.73309 10.0497 6.03027 9.59863V8.5C6.03027 8.08579 6.36606 7.75 6.78027 7.75C7.19426 7.75026 7.53027 8.08595 7.53027 8.5V9.50391H16.5V8.5C16.5 8.08579 16.8358 7.75 17.25 7.75ZM7.53027 18.002H16.5V11.0039H7.53027V18.002ZM6.03027 11.1406C4.56916 11.5608 3.5 12.9066 3.5 14.5029C3.5 16.0991 4.5693 17.444 6.03027 17.8643V11.1406ZM18 17.8555C19.4454 17.4254 20.5 16.0881 20.5 14.5029C20.5 12.9177 19.4456 11.5794 18 11.1494V17.8555Z" fill="#FAFAFA"/>
<path d="M15.4395 3.5C15.8536 3.50004 16.1895 3.83581 16.1895 4.25C16.1895 4.66419 15.8536 4.99996 15.4395 5H12.8447V7.29297C12.8446 7.70704 12.5088 8.04288 12.0947 8.04297C11.6806 8.04297 11.3448 7.7071 11.3447 7.29297V5H8.75L8.67285 4.99609C8.29475 4.95759 8 4.63826 8 4.25C8 3.86174 8.29475 3.54241 8.67285 3.50391L8.75 3.5H15.4395Z" fill="#FAFAFA"/>
</svg>
