<svg width="24" height="24" viewBox="0 0 24 24" fill="none" xmlns="http://www.w3.org/2000/svg">
<path fill-rule="evenodd" clip-rule="evenodd" d="M21.1934 3.77246C21.5952 3.67215 22.0021 3.9166 22.1026 4.31836C22.2029 4.72013 21.9584 5.1271 21.5567 5.22754L12.75 7.42871V11.25H16.6875V11.6807C16.6876 11.263 16.6872 11.2504 16.6875 11.25H16.708C16.7175 11.2502 16.7296 11.2505 16.7442 11.251C16.7735 11.252 16.8131 11.2544 16.8614 11.2578C16.9581 11.2647 17.092 11.2774 17.25 11.3037C17.5627 11.3558 17.9913 11.462 18.4287 11.6807C18.8693 11.9009 19.3331 12.2432 19.6846 12.7705C20.0393 13.3025 20.25 13.9781 20.25 14.8125V18.5625H19.5C20.2263 18.5625 20.2493 18.5621 20.25 18.5625V18.583C20.2499 18.5924 20.2495 18.6046 20.2491 18.6191C20.2481 18.6485 20.2457 18.688 20.2422 18.7363C20.2353 18.8331 20.2227 18.967 20.1963 19.125C20.1442 19.4377 20.038 19.8663 19.8194 20.3037C19.5991 20.7442 19.2568 21.208 18.7295 21.5596C18.1975 21.9142 17.5219 22.125 16.6875 22.125H7.31254V21.375C7.31254 22.125 7.31293 22.125 7.31254 22.125H7.29203C7.28261 22.1248 7.27043 22.1245 7.2559 22.124C7.22655 22.123 7.18701 22.1206 7.13871 22.1172C7.04194 22.1103 6.90805 22.0976 6.75004 22.0713C6.43734 22.0192 6.00877 21.913 5.57133 21.6943C5.1308 21.4741 4.667 21.1318 4.31547 20.6045C3.96081 20.0725 3.75004 19.3969 3.75004 18.5625V14.8125H4.50004C3.7501 14.8125 3.75004 14.8129 3.75004 14.8125V14.792C3.75019 14.7826 3.75053 14.7704 3.75102 14.7559C3.75199 14.7265 3.75441 14.687 3.75785 14.6387C3.76476 14.5419 3.77742 14.408 3.80375 14.25C3.85587 13.9373 3.96204 13.5087 4.1807 13.0713C4.40097 12.6308 4.74325 12.167 5.27055 11.8154C5.80254 11.4608 6.4782 11.25 7.31254 11.25H11.25V7.80371L2.80668 9.91504C2.40492 10.0153 1.99794 9.7709 1.8975 9.36914C1.7972 8.96739 2.04166 8.56042 2.4434 8.45996L21.1934 3.77246ZM5.25004 17.4375V18.5625C5.25004 19.1344 5.39085 19.5135 5.56352 19.7725C5.73922 20.036 5.97883 20.2213 6.24125 20.3525C6.50663 20.4852 6.78163 20.555 6.99613 20.5908C7.1016 20.6084 7.18819 20.617 7.24516 20.6211C7.27329 20.6231 7.2939 20.6246 7.3057 20.625H16.6875C17.2594 20.625 17.6385 20.4842 17.8975 20.3115C18.1611 20.1358 18.3463 19.8962 18.4776 19.6338C18.6103 19.3684 18.6801 19.0934 18.7159 18.8789C18.7334 18.7734 18.7421 18.6868 18.7461 18.6299C18.7481 18.6017 18.7496 18.5811 18.75 18.5693V17.4375H5.25004ZM7.31254 12.75C6.74068 12.75 6.36158 12.8908 6.10258 13.0635C5.83902 13.2392 5.65378 13.4788 5.5225 13.7412C5.38981 14.0066 5.31999 14.2816 5.28422 14.4961C5.26664 14.6016 5.25801 14.6882 5.25395 14.7451C5.25193 14.7733 5.25043 14.7939 5.25004 14.8057V15.9375H8.43754V12.75H7.31254ZM9.93754 15.9375H14.0625V12.75H9.93754V15.9375ZM15.5625 15.9375H18.75V14.8125C18.75 14.2406 18.6092 13.8616 18.4366 13.6025C18.2608 13.339 18.0213 13.1537 17.7588 13.0225C17.4934 12.8898 17.2184 12.82 17.0039 12.7842C16.8985 12.7666 16.8119 12.758 16.7549 12.7539C16.7268 12.7519 16.7062 12.7504 16.6944 12.75H15.5625V15.9375Z" fill="#FAFAFA"/>
<path d="M10.1348 2.8125C10.5488 2.81271 10.8848 3.14842 10.8848 3.5625C10.8848 3.97658 10.5488 4.31229 10.1348 4.3125H10.125C9.71085 4.31248 9.37504 3.9767 9.37504 3.5625C9.37504 3.1483 9.71085 2.81252 10.125 2.8125H10.1348Z" fill="#FAFAFA"/>
<path d="M13.8848 1.875C14.2988 1.87521 14.6348 2.21092 14.6348 2.625C14.6348 3.03908 14.2988 3.37479 13.8848 3.375H13.875C13.4608 3.37498 13.125 3.0392 13.125 2.625C13.125 2.2108 13.4608 1.87502 13.875 1.875H13.8848Z" fill="#FAFAFA"/>
</svg>
