<svg width="24" height="24" viewBox="0 0 24 24" fill="none" xmlns="http://www.w3.org/2000/svg">
<path fill-rule="evenodd" clip-rule="evenodd" d="M6.80165 2.36417C7.08488 2.18658 7.46034 2.21615 7.71278 2.45303L11.7645 6.25772L11.8153 6.31046C11.9433 6.45667 12.0375 6.62866 12.0927 6.81339L12.1347 7.00284L12.1493 7.19522C12.15 7.38828 12.1095 7.58053 12.0292 7.75772C11.9221 7.99378 11.749 8.19437 11.5311 8.33487C11.3678 8.44019 11.1839 8.50835 10.9931 8.53604L10.9501 8.53897V10.6493H20.4003C20.7581 10.6494 21.1013 10.7919 21.3544 11.0448C21.6074 11.2978 21.7497 11.6412 21.7499 11.9989V20.9989C21.7499 21.4131 21.4141 21.7489 20.9999 21.7489C20.5858 21.7488 20.2499 21.4131 20.2499 20.9989V12.1493H15.7499V13.7616C16.1441 13.8829 16.5068 14.0996 16.8036 14.3964C17.2815 14.8744 17.5495 15.5232 17.5497 16.1991C17.5497 16.8753 17.2817 17.5246 16.8036 18.0028C16.3254 18.481 15.6762 18.7489 14.9999 18.7489C14.3238 18.7489 13.6753 18.4808 13.1972 18.0028C12.719 17.5246 12.4501 16.8754 12.4501 16.1991C12.4502 15.523 12.7191 14.8745 13.1972 14.3964C13.4939 14.0998 13.8562 13.8839 14.2499 13.7626V12.1493H10.9501V20.9999C10.95 21.414 10.6142 21.7499 10.2001 21.7499C9.78594 21.7499 9.45019 21.414 9.45009 20.9999V19.9501H4.95009V20.9999C4.94998 21.414 4.61419 21.7499 4.20009 21.7499C3.78594 21.7499 3.45019 21.414 3.45009 20.9999V8.53897C3.24348 8.51603 3.04383 8.44817 2.86806 8.33487C2.65023 8.19439 2.4771 7.99375 2.37001 7.75772C2.26297 7.52163 2.22672 7.25928 2.26454 7.00284L2.30653 6.81339C2.36176 6.62858 2.45584 6.45671 2.58388 6.31046L2.63466 6.25772L6.68641 2.45303L6.80165 2.36417ZM4.95009 18.4501H9.45009V16.9501H4.95009V18.4501ZM14.9999 15.1493C14.7216 15.1494 14.4545 15.2602 14.2577 15.4569C14.0609 15.6537 13.9502 15.9209 13.9501 16.1991C13.9501 16.4774 14.061 16.7444 14.2577 16.9413C14.4546 17.1382 14.7215 17.2489 14.9999 17.2489C15.2783 17.2489 15.5452 17.1382 15.7421 16.9413C15.9388 16.7444 16.0497 16.4775 16.0497 16.1991C16.0495 15.9209 15.9388 15.6537 15.7421 15.4569C15.5452 15.2603 15.2782 15.1494 14.9999 15.1493ZM4.95009 15.4501H9.45009V8.54971H4.95009V15.4501ZM3.98329 7.04971H10.4159L7.19911 4.02823L3.98329 7.04971Z" fill="#FAFAFA"/>
</svg>
