<svg width="24" height="24" viewBox="0 0 24 24" fill="none" xmlns="http://www.w3.org/2000/svg">
<path d="M11.7988 2.16449C11.9316 2.13723 12.0684 2.13723 12.2012 2.16449C12.3513 2.19537 12.4937 2.27451 12.7773 2.43207L20.1768 6.54243C20.4762 6.70878 20.6263 6.79231 20.7354 6.91059C20.8318 7.01528 20.9046 7.13967 20.9492 7.27485C20.9997 7.42764 21 7.59922 21 7.94184V16.059L20.9941 16.4633C20.9878 16.5679 20.9744 16.6487 20.9492 16.7251C20.9046 16.8602 20.8318 16.9846 20.7354 17.0893L20.6445 17.1733C20.5423 17.2545 20.4015 17.3326 20.1768 17.4575L12.7773 21.5688L12.4395 21.7495C12.3497 21.7928 12.2763 21.82 12.2012 21.8354C12.1014 21.8559 11.9994 21.8613 11.8984 21.851L11.7988 21.8354C11.7237 21.82 11.6503 21.7928 11.5605 21.7495L11.2227 21.5688L3.82324 17.4575C3.59846 17.3326 3.45765 17.2545 3.35547 17.1733L3.26465 17.0893C3.19229 17.0108 3.13277 16.9215 3.08887 16.8247L3.05078 16.7251C3.02559 16.6487 3.01217 16.5679 3.00586 16.4633L3 16.059V7.94184C3 7.59922 3.00031 7.42764 3.05078 7.27485C3.09544 7.13967 3.16817 7.01528 3.26465 6.91059C3.31922 6.8514 3.38404 6.80102 3.47266 6.74458L3.82324 6.54243L11.2227 2.43207C11.5063 2.27451 11.6487 2.19538 11.7988 2.16449ZM11.9512 3.74262L4.55176 7.85395C4.53361 7.86404 4.51608 7.87333 4.5 7.88227V16.1167C4.51623 16.1257 4.53342 16.1358 4.55176 16.146L11.9512 20.2573C11.9683 20.2668 11.9848 20.2752 12 20.2837C12.0152 20.2752 12.0317 20.2668 12.0488 20.2573L19.4482 16.146C19.4663 16.1359 19.483 16.1256 19.499 16.1167C19.499 16.0986 19.5 16.0794 19.5 16.059V7.94184C19.5 7.92088 19.499 7.90084 19.499 7.88227C19.4832 7.87345 19.4661 7.86388 19.4482 7.85395L12.0488 3.74262C12.0315 3.733 12.0153 3.72377 12 3.71527C11.9847 3.72377 11.9685 3.733 11.9512 3.74262Z" fill="#FAFAFA"/>
</svg>
