<svg width="24" height="24" viewBox="0 0 24 24" fill="none" xmlns="http://www.w3.org/2000/svg">
<path d="M2.43662 18.4951C2.18563 18.2101 2.18581 17.775 2.44931 17.4902C2.71301 17.2054 3.14671 17.172 3.45029 17.4004L3.50986 17.4492L3.70615 17.6299C3.89267 17.7966 4.05528 17.9257 4.24423 18.0273C4.47765 18.1528 4.78233 18.25 5.25009 18.25C6.07876 18.25 6.45907 17.9221 7.00205 17.4395C7.58396 16.9222 8.32906 16.2501 9.75009 16.25C10.4519 16.25 11.0029 16.4029 11.4669 16.6523C11.912 16.8917 12.2483 17.207 12.5099 17.4492C12.7881 17.7069 12.9923 17.8918 13.2442 18.0273C13.4777 18.1528 13.7823 18.25 14.2501 18.25C15.0788 18.25 15.4591 17.9221 16.002 17.4395C16.5476 16.9545 17.2365 16.3336 18.4913 16.2578L18.7501 16.25C19.4519 16.25 20.0029 16.4029 20.4669 16.6523C20.8008 16.8319 21.0732 17.0546 21.2989 17.2568L21.5099 17.4492L21.5636 17.5049C21.8147 17.79 21.8145 18.2249 21.5509 18.5098C21.2871 18.7945 20.8534 18.8281 20.5499 18.5996L20.4903 18.5508L20.294 18.3701C20.1075 18.2034 19.9449 18.0743 19.756 17.9727C19.5225 17.8473 19.2179 17.75 18.7501 17.75L18.5997 17.7539C17.8733 17.7918 17.5072 18.1081 16.9981 18.5605C16.4162 19.0778 15.6712 19.75 14.2501 19.75C13.5483 19.75 12.9972 19.5971 12.5333 19.3477C12.0882 19.1082 11.7519 18.7929 11.4903 18.5508C11.2121 18.2931 11.008 18.1082 10.756 17.9727C10.5225 17.8473 10.2179 17.75 9.75009 17.75C8.92152 17.7501 8.54113 18.0779 7.99814 18.5605C7.41622 19.0778 6.67116 19.75 5.25009 19.75C4.54832 19.75 3.99724 19.5971 3.5333 19.3477C3.19942 19.1681 2.92694 18.9454 2.70126 18.7432L2.49033 18.5508L2.43662 18.4951Z" fill="#FAFAFA"/>
<path d="M2.43662 12.4951C2.18563 12.2101 2.18581 11.775 2.44931 11.4902C2.71301 11.2054 3.14671 11.172 3.45029 11.4004L3.50986 11.4492L3.70615 11.6299C3.89267 11.7966 4.05528 11.9257 4.24423 12.0273C4.47765 12.1528 4.78233 12.25 5.25009 12.25C6.07876 12.25 6.45907 11.9221 7.00205 11.4395C7.58396 10.9222 8.32906 10.2501 9.75009 10.25C10.4519 10.25 11.0029 10.4029 11.4669 10.6523C11.912 10.8917 12.2483 11.207 12.5099 11.4492C12.7881 11.7069 12.9923 11.8918 13.2442 12.0273C13.4777 12.1528 13.7823 12.25 14.2501 12.25C15.0788 12.25 15.4591 11.9221 16.002 11.4395C16.584 10.9222 17.3291 10.2501 18.7501 10.25C19.4519 10.25 20.0029 10.4029 20.4669 10.6523C20.8008 10.8319 21.0732 11.0546 21.2989 11.2568L21.5099 11.4492L21.5636 11.5049C21.8147 11.79 21.8145 12.2249 21.5509 12.5098C21.2871 12.7945 20.8534 12.8281 20.5499 12.5996L20.4903 12.5508L20.294 12.3701C20.1075 12.2034 19.9449 12.0743 19.756 11.9727C19.5225 11.8473 19.2179 11.75 18.7501 11.75C17.9215 11.7501 17.5411 12.0779 16.9981 12.5605C16.4162 13.0778 15.6712 13.75 14.2501 13.75C13.5483 13.75 12.9972 13.5971 12.5333 13.3477C12.0882 13.1082 11.7519 12.7929 11.4903 12.5508C11.2121 12.2931 11.008 12.1082 10.756 11.9727C10.5225 11.8473 10.2179 11.75 9.75009 11.75C8.92152 11.7501 8.54113 12.0779 7.99814 12.5605C7.41622 13.0778 6.67116 13.75 5.25009 13.75C4.54832 13.75 3.99724 13.5971 3.5333 13.3477C3.19942 13.1681 2.92694 12.9454 2.70126 12.7432L2.49033 12.5508L2.43662 12.4951Z" fill="#FAFAFA"/>
<path d="M2.43662 6.49512C2.18563 6.21006 2.18581 5.77504 2.44931 5.49023C2.71301 5.20544 3.14671 5.172 3.45029 5.40039L3.50986 5.44922L3.70615 5.62988C3.89267 5.79664 4.05528 5.92573 4.24423 6.02734C4.47765 6.15277 4.78233 6.24997 5.25009 6.25C6.07876 6.25 6.45907 5.9221 7.00205 5.43945C7.58396 4.9222 8.32906 4.25007 9.75009 4.25C10.4519 4.25 11.0029 4.40294 11.4669 4.65234C11.912 4.89173 12.2483 5.20704 12.5099 5.44922C12.7881 5.70687 12.9923 5.89184 13.2442 6.02734C13.4777 6.15277 13.7823 6.24997 14.2501 6.25C15.0788 6.25 15.4591 5.9221 16.002 5.43945C16.584 4.9222 17.3291 4.25007 18.7501 4.25C19.4519 4.25 20.0029 4.40294 20.4669 4.65234C20.8008 4.83193 21.0732 5.05461 21.2989 5.25684L21.5099 5.44922L21.5636 5.50488C21.8147 5.78998 21.8145 6.22492 21.5509 6.50977C21.2871 6.79451 20.8534 6.82809 20.5499 6.59961L20.4903 6.55078L20.294 6.37012C20.1075 6.20337 19.9449 6.07426 19.756 5.97266C19.5225 5.84725 19.2179 5.75 18.7501 5.75C17.9215 5.75006 17.5411 6.07789 16.9981 6.56055C16.4162 7.07781 15.6712 7.75 14.2501 7.75C13.5483 7.74997 12.9972 7.59709 12.5333 7.34766C12.0882 7.10825 11.7519 6.79294 11.4903 6.55078C11.2121 6.29313 11.008 6.10815 10.756 5.97266C10.5225 5.84725 10.2179 5.75 9.75009 5.75C8.92152 5.75006 8.54113 6.07789 7.99814 6.56055C7.41622 7.07781 6.67116 7.75 5.25009 7.75C4.54832 7.74997 3.99724 7.59709 3.5333 7.34766C3.19942 7.16805 2.92694 6.94539 2.70126 6.74316L2.49033 6.55078L2.43662 6.49512Z" fill="#FAFAFA"/>
</svg>
