<svg width="24" height="24" viewBox="0 0 24 24" fill="none" xmlns="http://www.w3.org/2000/svg">
<path d="M5.83594 16.5078C6.058 16.5305 6.2207 16.649 6.31348 16.751C6.42082 16.8691 6.51074 17.0441 6.51074 17.2529C6.51066 17.4615 6.42069 17.6359 6.31348 17.7539C6.22072 17.8559 6.05798 17.9743 5.83594 17.9971C5.81129 18 5.7862 18.0029 5.76074 18.0029C5.73556 18.0029 5.71091 18 5.68652 17.9971C5.46409 17.9744 5.30084 17.856 5.20801 17.7539C5.11419 17.6506 5.03335 17.5039 5.01465 17.3291L5.01074 17.2529L5.01465 17.1768C5.03331 17.0017 5.11403 16.8544 5.20801 16.751C5.30085 16.6488 5.46402 16.5303 5.68652 16.5078C5.71088 16.5049 5.73559 16.5029 5.76074 16.5029C5.78617 16.5029 5.81132 16.5049 5.83594 16.5078Z" fill="#FAFAFA"/>
<path d="M8.83594 16.5078C9.058 16.5305 9.2207 16.649 9.31348 16.751C9.42082 16.8691 9.51074 17.0441 9.51074 17.2529C9.51066 17.4615 9.42069 17.6359 9.31348 17.7539C9.22072 17.8559 9.05798 17.9743 8.83594 17.9971C8.81129 18 8.7862 18.0029 8.76074 18.0029C8.73556 18.0029 8.71091 18 8.68652 17.9971C8.46409 17.9744 8.30084 17.856 8.20801 17.7539C8.11419 17.6506 8.03335 17.5039 8.01465 17.3291L8.01074 17.2529L8.01465 17.1768C8.03331 17.0017 8.11403 16.8544 8.20801 16.751C8.30085 16.6488 8.46402 16.5303 8.68652 16.5078C8.71088 16.5049 8.73559 16.5029 8.76074 16.5029C8.78617 16.5029 8.81132 16.5049 8.83594 16.5078Z" fill="#FAFAFA"/>
<path d="M11.8359 16.5078C12.058 16.5305 12.2207 16.649 12.3135 16.751C12.4208 16.8691 12.5107 17.0441 12.5107 17.2529C12.5107 17.4615 12.4207 17.6359 12.3135 17.7539C12.2207 17.8559 12.058 17.9743 11.8359 17.9971C11.8113 18 11.7862 18.0029 11.7607 18.0029C11.7356 18.0029 11.7109 18 11.6865 17.9971C11.4641 17.9744 11.3008 17.856 11.208 17.7539C11.1142 17.6506 11.0333 17.5039 11.0146 17.3291L11.0107 17.2529L11.0146 17.1768C11.0333 17.0017 11.114 16.8544 11.208 16.751C11.3009 16.6488 11.464 16.5303 11.6865 16.5078C11.7109 16.5049 11.7356 16.5029 11.7607 16.5029C11.7862 16.5029 11.8113 16.5049 11.8359 16.5078Z" fill="#FAFAFA"/>
<path fill-rule="evenodd" clip-rule="evenodd" d="M16.5146 11.25C17.8954 11.25 19.0146 12.3693 19.0146 13.75C19.0146 15.1307 17.8954 16.25 16.5146 16.25C15.134 16.2499 14.0146 15.1307 14.0146 13.75C14.0146 12.3693 15.134 11.2501 16.5146 11.25ZM16.5146 12.75C15.9624 12.7501 15.5146 13.1978 15.5146 13.75C15.5146 14.3022 15.9624 14.7499 16.5146 14.75C17.0669 14.75 17.5146 14.3023 17.5146 13.75C17.5146 13.1977 17.0669 12.75 16.5146 12.75Z" fill="#FAFAFA"/>
<path fill-rule="evenodd" clip-rule="evenodd" d="M10.2607 9C11.2272 9 12.0107 9.7835 12.0107 10.75V12.75C12.0107 13.7165 11.2272 14.5 10.2607 14.5H7.26074C6.29424 14.5 5.51074 13.7165 5.51074 12.75V10.75C5.51074 9.7835 6.29424 9 7.26074 9H10.2607ZM7.26074 10.5C7.12267 10.5 7.01074 10.6119 7.01074 10.75V12.75C7.01074 12.8881 7.12267 13 7.26074 13H10.2607C10.3988 13 10.5107 12.8881 10.5107 12.75V10.75C10.5107 10.6119 10.3988 10.5 10.2607 10.5H7.26074Z" fill="#FAFAFA"/>
<path fill-rule="evenodd" clip-rule="evenodd" d="M8 2C8.9665 2 9.75 2.7835 9.75 3.75V6H20L20.2041 6.01074C21.2128 6.11301 22 6.96435 22 8V19C22 20.0357 21.2128 20.887 20.2041 20.9893L20 21H4C2.96435 21 2.113 20.2128 2.01074 19.2041L2 19V8C2 6.89543 2.89543 6 4 6H5.25V3.75C5.25 2.7835 6.0335 2 7 2H8ZM4 7.5C3.72386 7.5 3.5 7.72386 3.5 8V19C3.5 19.2761 3.72386 19.5 4 19.5H20C20.2761 19.5 20.5 19.2761 20.5 19V8C20.5 7.72386 20.2761 7.5 20 7.5H4ZM7 3.5C6.86193 3.5 6.75 3.61193 6.75 3.75V6H8.25V3.75C8.25 3.61193 8.13807 3.5 8 3.5H7Z" fill="#FAFAFA"/>
</svg>
