<svg width="24" height="24" viewBox="0 0 24 24" fill="none" xmlns="http://www.w3.org/2000/svg">
<path d="M12.1202 6.82569C12.1501 6.82978 12.177 6.83546 12.1963 6.83937C12.2357 6.84734 12.2766 6.85713 12.3106 6.86573L12.502 6.91847L12.5362 6.92921C12.6878 6.98179 12.9297 7.08199 13.0869 7.15187C13.4021 7.29194 13.7798 7.49199 14.0821 7.72511L14.083 7.72413C14.4979 8.00622 14.8742 8.3654 15.211 8.7798C16.6168 10.51 17.4444 13.3471 17.4444 16.4321C17.4442 16.8461 17.1083 17.1819 16.6944 17.1821H7.30668C6.89255 17.1821 6.55682 16.8462 6.55668 16.4321C6.55668 13.347 7.38415 10.51 8.79007 8.7798C9.08468 8.41724 9.40919 8.0968 9.76371 7.83351L9.918 7.72413C10.2202 7.49108 10.598 7.29192 10.9131 7.15187C11.0705 7.08194 11.3132 6.9818 11.4649 6.92921L11.4991 6.91847C11.5464 6.90455 11.6199 6.8834 11.6895 6.86573C11.7234 6.85713 11.7643 6.84736 11.8037 6.83937C11.8231 6.83545 11.8508 6.8298 11.8809 6.82569C11.8923 6.82413 11.9386 6.82063 12 6.82081C12.0623 6.82058 12.1092 6.82421 12.1202 6.82569ZM11.9864 8.33937C11.9711 8.34359 11.9562 8.34643 11.9434 8.35011C11.8463 8.38479 11.6594 8.46213 11.5225 8.52296C11.2391 8.64891 10.9719 8.79801 10.8106 8.92823C10.7947 8.94106 10.7777 8.95288 10.7608 8.96437C10.4853 9.1517 10.2141 9.40526 9.95414 9.72511C8.93451 10.9799 8.19935 13.1349 8.07718 15.6821H15.9239C15.8017 13.1349 15.0665 10.9799 14.0469 9.72511C13.7868 9.40508 13.5149 9.15175 13.2393 8.96437C13.2225 8.95297 13.2062 8.94095 13.1905 8.92823C13.0292 8.798 12.761 8.64892 12.4776 8.52296C12.3405 8.46205 12.1536 8.38466 12.0567 8.35011C12.0441 8.34649 12.0296 8.3435 12.0147 8.33937C12.0099 8.33805 12.0048 8.33676 12 8.33546C11.9955 8.33671 11.9909 8.3381 11.9864 8.33937ZM11.9561 8.31495C11.9736 8.31597 11.9885 8.31695 12 8.3169C12.0113 8.31696 12.0259 8.31591 12.043 8.31495H11.9561ZM12.0967 8.31007H12.0987C12.1008 8.30969 12.1016 8.30909 12.1016 8.30909C12.1016 8.30909 12.0991 8.30954 12.0967 8.31007Z" fill="#FAFAFA"/>
<path d="M12.0308 10.044C12.0523 10.0445 12.0682 10.0433 12.0767 10.044C12.1571 10.0505 12.2257 10.0677 12.2574 10.0763C12.3355 10.0973 12.4198 10.1278 12.4966 10.1593C12.6271 10.2127 12.8186 10.3059 12.9859 10.4298L12.9869 10.4288C12.9962 10.4352 13.004 10.4438 13.0132 10.4503C13.0203 10.4557 13.0288 10.4593 13.0357 10.4649L13.0347 10.4659C13.4879 10.7942 13.8074 11.3033 14.0123 11.8448C14.2291 12.4182 14.3462 13.0927 14.3462 13.7979C14.3462 14.2121 14.0104 14.5478 13.5962 14.5479H10.4048C9.99062 14.5479 9.65484 14.2122 9.65484 13.7979C9.65485 13.0927 9.77195 12.4182 9.98882 11.8448C10.1935 11.3038 10.5119 10.7943 10.9644 10.4659C10.9756 10.4569 10.9881 10.4483 10.9996 10.4395C11.0045 10.4361 11.0092 10.4322 11.0142 10.4288C11.1817 10.3048 11.3738 10.2128 11.5044 10.1593C11.5813 10.1278 11.6656 10.0973 11.7437 10.0763C11.7755 10.0677 11.8442 10.0505 11.9244 10.044C11.9327 10.0434 11.9479 10.0446 11.9683 10.044C11.9794 10.0434 11.9898 10.0432 11.9996 10.0431C12.0093 10.0432 12.0197 10.0434 12.0308 10.044ZM11.9595 11.6007C11.9213 11.6213 11.9068 11.6319 11.9068 11.6319C11.8909 11.6448 11.8749 11.6575 11.858 11.669C11.7241 11.7601 11.542 11.9799 11.3921 12.3761C11.3174 12.5738 11.2575 12.8002 11.2164 13.0479H12.7847C12.7436 12.8002 12.6837 12.5738 12.6089 12.3761C12.4591 11.9799 12.277 11.7601 12.1431 11.669C12.1262 11.6575 12.1102 11.6448 12.0943 11.6319C12.0943 11.6319 12.0788 11.6208 12.0416 11.6007C12.0285 11.5936 12.0136 11.588 11.9996 11.5811C11.986 11.5878 11.9722 11.5938 11.9595 11.6007ZM11.8003 11.5157H11.8023C11.8003 11.5152 11.7984 11.5143 11.7964 11.5138L11.8003 11.5157Z" fill="#FAFAFA"/>
<path d="M2.18172 7.45884C2.4545 7.14724 2.92863 7.11581 3.24031 7.38853L4.78133 8.73716C4.94401 8.87951 5.03807 9.08546 5.03816 9.30161C5.03816 9.51789 4.94409 9.72365 4.78133 9.86607L3.88484 10.6502L4.78133 11.4354C4.94409 11.5778 5.03816 11.7836 5.03816 11.9999C5.03816 12.2161 4.94409 12.4219 4.78133 12.5643L3.88484 13.3485L4.78133 14.1336C4.94409 14.2761 5.03816 14.4818 5.03816 14.6981C5.03807 14.9143 4.94401 15.1202 4.78133 15.2626L3.24031 16.6112C2.92863 16.8839 2.4545 16.8525 2.18172 16.5409C1.909 16.2292 1.94043 15.7551 2.25203 15.4823L3.14851 14.6971L2.25203 13.9129C2.08945 13.7705 1.99617 13.5646 1.99617 13.3485C1.99626 13.1323 2.08935 12.9264 2.25203 12.784L3.14851 11.9999L2.25203 11.2157C2.08935 11.0733 1.99626 10.8674 1.99617 10.6512C1.99617 10.4351 2.08945 10.2292 2.25203 10.0868L3.14851 9.30161L2.25203 8.51744C1.94043 8.24465 1.909 7.77052 2.18172 7.45884Z" fill="#FAFAFA"/>
<path d="M20.7553 7.38855C21.067 7.11583 21.5411 7.14715 21.8139 7.45886C22.0866 7.77059 22.0543 8.2447 21.7426 8.51745L20.8461 9.30163L21.7426 10.0868C21.9054 10.2292 21.9994 10.435 21.9994 10.6512C21.9993 10.8674 21.9053 11.0734 21.7426 11.2157L20.8461 11.9999L21.7426 12.7841C21.9053 12.9264 21.9993 13.1324 21.9994 13.3485C21.9994 13.5648 21.9054 13.7705 21.7426 13.913L20.8461 14.6971L21.7426 15.4823C22.0543 15.7551 22.0866 16.2292 21.8139 16.5409C21.5411 16.8526 21.067 16.8839 20.7553 16.6112L19.2133 15.2626C19.0506 15.1202 18.9575 14.9143 18.9575 14.6981C18.9575 14.482 19.0507 14.2761 19.2133 14.1337L20.1098 13.3485L19.2133 12.5643C19.0506 12.4219 18.9575 12.2161 18.9575 11.9999C18.9575 11.7837 19.0506 11.5778 19.2133 11.4354L20.1098 10.6503L19.2133 9.86609C19.0507 9.72368 18.9575 9.51777 18.9575 9.30163C18.9575 9.08548 19.0506 8.87953 19.2133 8.73718L20.7553 7.38855Z" fill="#FAFAFA"/>
</svg>
