<svg width="24" height="24" viewBox="0 0 24 24" fill="none" xmlns="http://www.w3.org/2000/svg">
<path fill-rule="evenodd" clip-rule="evenodd" d="M20.2344 3.05078C20.249 3.05127 20.2673 3.05222 20.2881 3.05371C20.3298 3.0567 20.3846 3.06167 20.4482 3.07227C20.5723 3.09295 20.7496 3.13556 20.9355 3.22852C21.1245 3.32298 21.3362 3.47748 21.499 3.72168C21.6648 3.97051 21.7499 4.26867 21.75 4.59961V7.81445C21.7499 7.82 21.7493 7.82683 21.749 7.83398C21.7485 7.84859 21.7476 7.86687 21.7461 7.8877C21.7431 7.92938 21.7381 7.98429 21.7275 8.04785C21.7069 8.17188 21.6642 8.34928 21.5713 8.53516C21.4768 8.7241 21.3224 8.93578 21.0781 9.09863C20.8292 9.26452 20.5313 9.34958 20.2002 9.34961H19.8457L18.2949 19.6885C18.2257 20.1504 17.9926 20.5721 17.6387 20.877C17.2847 21.1818 16.8333 21.3497 16.3662 21.3496H7.63379C7.16658 21.3497 6.71438 21.1818 6.36035 20.877C6.00663 20.5721 5.77326 20.1503 5.7041 19.6885L4.15332 9.34961H3.76562C3.75099 9.34912 3.73276 9.34817 3.71191 9.34668C3.67015 9.34369 3.61543 9.33776 3.55176 9.32715C3.42764 9.30646 3.25047 9.26391 3.06445 9.1709C2.87558 9.07644 2.66379 8.92281 2.50098 8.67871C2.33505 8.42975 2.25 8.13097 2.25 7.7998V4.58496C2.25011 4.57944 2.25074 4.57249 2.25098 4.56543C2.25147 4.55084 2.25243 4.53244 2.25391 4.51172C2.2569 4.46999 2.26188 4.41508 2.27246 4.35156C2.29316 4.22747 2.33578 4.05015 2.42871 3.86426C2.52321 3.67533 2.67766 3.46359 2.92188 3.30078C3.17075 3.13498 3.46881 3.04984 3.7998 3.0498H20.2148C20.2204 3.0499 20.2272 3.05054 20.2344 3.05078ZM6.93066 17.75L7.1875 19.4658C7.20341 19.5721 7.25759 19.6699 7.33887 19.7402C7.42044 19.8105 7.52517 19.8495 7.63281 19.8496H16.3662L16.4463 19.8428C16.525 19.8286 16.5988 19.793 16.6602 19.7402C16.7417 19.6699 16.7956 19.5724 16.8115 19.4658L17.0693 17.75H6.93066ZM6.70508 16.25H17.2939L17.6094 14.1504H6.39062L6.70508 16.25ZM6.16602 12.6504H17.834L18.3291 9.34961H5.6709L6.16602 12.6504ZM3.76465 4.55273C3.76023 4.56539 3.7548 4.58084 3.75195 4.59766C3.75016 4.6084 3.75012 4.61682 3.75 4.61914V7.7998C3.75 7.81384 3.75204 7.82519 3.75293 7.83398C3.76569 7.83847 3.7808 7.84479 3.79785 7.84766C3.80898 7.84951 3.81934 7.85059 3.81934 7.85059L3.81641 7.84961H20.2002C20.2144 7.8496 20.2255 7.84756 20.2344 7.84668C20.2388 7.83394 20.2452 7.81871 20.248 7.80176C20.2499 7.79071 20.25 7.78027 20.25 7.78027V4.59961C20.25 4.58497 20.247 4.57338 20.2461 4.56445C20.2336 4.56014 20.2186 4.55453 20.2021 4.55176C20.191 4.5499 20.1807 4.5498 20.1807 4.5498H3.7998C3.78511 4.54981 3.7736 4.5518 3.76465 4.55273Z" fill="#FAFAFA"/>
</svg>
