<svg width="24" height="24" viewBox="0 0 24 24" fill="none" xmlns="http://www.w3.org/2000/svg">
<path fill-rule="evenodd" clip-rule="evenodd" d="M12 20.5C16.6944 20.5 20.5 16.6944 20.5 12C20.5 7.30558 16.6944 3.5 12 3.5C7.30558 3.5 3.5 7.30558 3.5 12C3.5 16.6944 7.30558 20.5 12 20.5ZM22 12C22 17.5228 17.5228 22 12 22C6.47715 22 2 17.5228 2 12C2 6.47715 6.47715 2 12 2C17.5228 2 22 6.47715 22 12Z" fill="#FAFAFA"/>
<path fill-rule="evenodd" clip-rule="evenodd" d="M16.5303 8.01967C16.2374 7.72678 15.7626 7.72678 15.4697 8.01967L12.1768 11.3126C12.0791 11.4102 11.9209 11.4102 11.8232 11.3126L8.53033 8.01967C8.23744 7.72678 7.76256 7.72678 7.46967 8.01967C7.17678 8.31256 7.17678 8.78744 7.46967 9.08033L10.7626 12.3732C11.446 13.0566 12.554 13.0566 13.2374 12.3732L16.5303 9.08033C16.8232 8.78744 16.8232 8.31256 16.5303 8.01967ZM16.5303 12.0197C16.2374 11.7268 15.7626 11.7268 15.4697 12.0197L12.1768 15.3126C12.0791 15.4102 11.9209 15.4102 11.8232 15.3126L8.53033 12.0197C8.23744 11.7268 7.76256 11.7268 7.46967 12.0197C7.17678 12.3126 7.17678 12.7874 7.46967 13.0803L10.7626 16.3732C11.446 17.0566 12.554 17.0566 13.2374 16.3732L16.5303 13.0803C16.8232 12.7874 16.8232 12.3126 16.5303 12.0197Z" fill="#FAFAFA"/>
</svg>
