<svg width="24" height="24" viewBox="0 0 24 24" fill="none" xmlns="http://www.w3.org/2000/svg">
<path d="M17.6524 14.1624C18.0666 14.1624 18.4024 14.4981 18.4024 14.9124C18.4021 15.3263 18.0664 15.6624 17.6524 15.6624H6.34868C5.93464 15.6623 5.59894 15.3263 5.59868 14.9124C5.59868 14.4982 5.93448 14.1624 6.34868 14.1624H17.6524Z" fill="#FAFAFA"/>
<path d="M17.6524 11.2502C18.0666 11.2502 18.4024 11.586 18.4024 12.0002C18.4023 12.4143 18.0665 12.7502 17.6524 12.7502H6.34868C5.93456 12.7502 5.59881 12.4143 5.59868 12.0002C5.59868 11.586 5.93448 11.2503 6.34868 11.2502H17.6524Z" fill="#FAFAFA"/>
<path d="M17.6524 8.33813C18.0666 8.33813 18.4024 8.67392 18.4024 9.08813C18.4024 9.50235 18.0666 9.83813 17.6524 9.83813H6.34868C5.93448 9.83811 5.59868 9.50233 5.59868 9.08813C5.59868 8.67394 5.93448 8.33816 6.34868 8.33813H17.6524Z" fill="#FAFAFA"/>
<path fill-rule="evenodd" clip-rule="evenodd" d="M20.2051 5.01099C21.2138 5.11325 22.001 5.96459 22.001 7.00024V7.70239C22.5416 7.7109 22.9794 8.14892 22.9844 8.69263L23.0176 15.2708C23.0225 15.8229 22.5786 16.2745 22.0264 16.2795C22.0179 16.2796 22.0095 16.2787 22.001 16.2786V17.0002C22.0009 18.0358 21.2137 18.8872 20.2051 18.9895L20.001 19.0002H4.00102C2.96547 19.0002 2.11413 18.2129 2.01176 17.2043L2.00102 17.0002V16.2786C1.4606 16.27 1.02286 15.8328 1.01762 15.2893L0.984417 8.71118C0.979389 8.15895 1.42341 7.70747 1.97563 7.70239C1.98409 7.70232 1.99261 7.70226 2.00102 7.70239V7.00024C2.00102 5.89569 2.89647 5.00027 4.00102 5.00024H20.001L20.2051 5.01099ZM4.00102 6.50024C3.7249 6.50027 3.50102 6.72412 3.50102 7.00024V17.0002C3.50115 17.2763 3.72498 17.5002 4.00102 17.5002H20.001C20.2771 17.5002 20.5009 17.2763 20.501 17.0002V7.00024C20.501 6.7241 20.2772 6.50024 20.001 6.50024H4.00102Z" fill="#FAFAFA"/>
</svg>
