<svg width="24" height="24" viewBox="0 0 24 24" fill="none" xmlns="http://www.w3.org/2000/svg">
<path fill-rule="evenodd" clip-rule="evenodd" d="M7.37793 3.5918C7.66145 3.61997 7.93236 3.71917 8.16699 3.87793C8.44794 3.68757 8.78177 3.58307 9.12598 3.58301H11.043L11.2119 3.5918C11.6027 3.63074 11.9708 3.80292 12.251 4.08301C12.2919 4.12397 12.3299 4.16741 12.3662 4.21191C12.3721 4.20968 12.3779 4.20725 12.3838 4.20508L12.4209 4.19238L12.5488 4.15332L12.5928 4.1416L14.6855 3.63379L14.6875 3.63281L14.8584 3.60059C15.7159 3.48062 16.5746 3.99299 16.8145 4.86426L20.3555 17.7236L20.3574 17.7305L20.3916 17.8877C20.4533 18.2561 20.3934 18.6367 20.2197 18.9707C20.0459 19.3045 19.7687 19.5716 19.4316 19.7324L19.2832 19.7949C19.2711 19.7994 19.2584 19.8038 19.2461 19.8076L19.1182 19.8467C19.1038 19.8511 19.0889 19.8558 19.0742 19.8594L16.9814 20.3672H16.9795C16.1249 20.5722 15.2274 20.1271 14.9082 19.3047L14.8525 19.1357L12.751 11.5029V18.708L12.7432 18.877C12.7043 19.2678 12.5311 19.6358 12.251 19.916C11.9708 20.1962 11.6028 20.3693 11.2119 20.4082L11.043 20.416H9.12598C8.78168 20.416 8.44798 20.3116 8.16699 20.1211C7.93231 20.2803 7.66165 20.38 7.37793 20.4082L7.20898 20.416H5.29199C4.83903 20.4159 4.40428 20.2363 4.08398 19.916C3.80386 19.6358 3.63162 19.2678 3.59277 18.877L3.58398 18.708V5.29102C3.58414 4.83814 3.76374 4.40325 4.08398 4.08301C4.40427 3.76279 4.83909 3.58309 5.29199 3.58301H7.20898L7.37793 3.5918ZM15.6582 16.4111L16.2988 18.7373L16.3145 18.7783C16.3623 18.8698 16.4833 18.9425 16.627 18.9092L18.6924 18.4072L18.7715 18.3838C18.8219 18.3637 18.8644 18.3266 18.8896 18.2783C18.9157 18.2281 18.9217 18.1699 18.9072 18.1152L18.2588 15.7607L15.6582 16.4111ZM5.08398 18.708L5.08789 18.749C5.09589 18.7889 5.11542 18.8262 5.14453 18.8555C5.18352 18.8945 5.23686 18.9159 5.29199 18.916H7.20898L7.25 18.9121C7.28995 18.9041 7.32721 18.8847 7.35645 18.8555C7.39544 18.8164 7.41699 18.7632 7.41699 18.708V8.91699H5.08398V18.708ZM8.91797 18.708L8.92188 18.749C8.92988 18.7889 8.94934 18.8262 8.97852 18.8555C9.0175 18.8944 9.0709 18.9159 9.12598 18.916H11.043L11.084 18.9121C11.1238 18.904 11.1613 18.8846 11.1904 18.8555C11.2195 18.8263 11.2391 18.7888 11.2471 18.749L11.251 18.708V16.583H8.91797V18.708ZM9.12598 5.08301C9.07101 5.08309 9.01748 5.10479 8.97852 5.14355C8.93958 5.18249 8.91812 5.23597 8.91797 5.29102V15.083H11.251V5.29102C11.2508 5.23602 11.2293 5.18248 11.1904 5.14355C11.1613 5.11448 11.1237 5.09497 11.084 5.08691L11.043 5.08301H9.12598ZM13.8057 9.68555L15.2598 14.9648L17.8604 14.3145L16.4072 9.03613L13.8057 9.68555ZM15.0381 5.0918L15.0371 5.09082L12.9736 5.5918L12.8955 5.61523C12.845 5.6354 12.8025 5.67331 12.7773 5.72168C12.7514 5.77188 12.7453 5.8311 12.7598 5.88574L13.4072 8.23926L16.0088 7.58887L15.3682 5.2627C15.3381 5.15351 15.2035 5.05213 15.0381 5.0918ZM5.29199 5.08301C5.23691 5.08309 5.18351 5.10464 5.14453 5.14355C5.10559 5.18249 5.08413 5.23597 5.08398 5.29102V7.41699H7.41699V5.29102L7.41309 5.25098C7.40511 5.21086 7.38579 5.1729 7.35645 5.14355C7.32722 5.11445 7.28986 5.09491 7.25 5.08691L7.20898 5.08301H5.29199Z" fill="#FAFAFA"/>
</svg>
