<svg width="24" height="24" viewBox="0 0 24 24" fill="none" xmlns="http://www.w3.org/2000/svg">
<path d="M14.9141 14.0938C15.0993 13.7233 15.5505 13.5726 15.9209 13.7578L17.5284 14.5615C17.7844 14.6897 17.945 14.953 17.9424 15.2393C17.9396 15.5255 17.774 15.7858 17.5157 15.9092C16.4184 16.4333 15.2265 16.7313 14.0118 16.7852C14.0009 16.7856 13.9894 16.7861 13.9786 16.7861C12.977 16.7861 12.2275 16.4004 11.6338 16.1035C11.0289 15.801 10.5754 15.5846 9.97953 15.5801C8.97059 15.6267 7.98082 15.8751 7.06938 16.3105C6.69576 16.4889 6.24797 16.3305 6.06938 15.957C5.89116 15.5835 6.04949 15.1356 6.42289 14.957C7.52012 14.4328 8.71198 14.1349 9.9268 14.0811L9.96 14.0801C10.9616 14.0801 11.711 14.4658 12.3047 14.7627C12.9093 15.065 13.3627 15.2803 13.958 15.2852C14.3997 15.2648 14.8373 15.2038 15.2666 15.1074L15.25 15.0996C14.8799 14.9145 14.7295 14.464 14.9141 14.0938Z" fill="#FAFAFA"/>
<path d="M14.9141 10.8789C15.0994 10.5088 15.5506 10.3581 15.9209 10.543L17.5284 11.3467C17.7842 11.4748 17.9448 11.7383 17.9424 12.0244C17.9398 12.3108 17.7741 12.5709 17.5157 12.6943C16.4183 13.2186 15.2266 13.5165 14.0118 13.5703C14.0009 13.5708 13.9894 13.5713 13.9786 13.5713C12.977 13.5712 12.2275 13.1855 11.6338 12.8887C11.029 12.5863 10.5753 12.3698 9.97953 12.3652C8.97059 12.4118 7.98082 12.6603 7.06938 13.0957C6.69563 13.2742 6.24794 13.1159 6.06938 12.7422C5.89142 12.3686 6.04943 11.9206 6.42289 11.7422C7.52012 11.218 8.71198 10.9201 9.9268 10.8662L9.96 10.8652C10.9614 10.8652 11.711 11.251 12.3047 11.5479C12.9093 11.8502 13.3627 12.0655 13.958 12.0703C14.3998 12.05 14.8373 11.989 15.2666 11.8926L15.25 11.8848C14.88 11.6995 14.7293 11.2492 14.9141 10.8789Z" fill="#FAFAFA"/>
<path d="M14.9141 7.66504C15.0993 7.29466 15.5505 7.14403 15.9209 7.3291L17.5284 8.13281C17.7844 8.261 17.945 8.52424 17.9424 8.81055C17.9397 9.09693 17.7741 9.357 17.5157 9.48047C16.4184 10.0046 15.2266 10.3026 14.0118 10.3564C14.0009 10.3569 13.9894 10.3574 13.9786 10.3574C12.977 10.3574 12.2275 9.97166 11.6338 9.6748C11.0289 9.37236 10.5754 9.1559 9.97953 9.15137C8.97058 9.19796 7.98083 9.44639 7.06938 9.88184C6.69566 10.0603 6.24791 9.90201 6.06938 9.52832C5.89116 9.15471 6.04941 8.70687 6.42289 8.52832C7.52012 8.00414 8.71198 7.70623 9.9268 7.65234L9.96 7.65137C10.9615 7.65137 11.711 8.03712 12.3047 8.33398C12.9093 8.63629 13.3627 8.85161 13.958 8.85645C14.3997 8.83612 14.8373 8.77514 15.2666 8.67871L15.25 8.6709C14.8799 8.4857 14.7294 8.03534 14.9141 7.66504Z" fill="#FAFAFA"/>
<path fill-rule="evenodd" clip-rule="evenodd" d="M20.2051 4.51074C21.2138 4.613 22.001 5.46435 22.001 6.5V7.20215C22.5416 7.21065 22.9794 7.64868 22.9844 8.19238L23.0176 15.7705C23.0225 16.3227 22.5786 16.7743 22.0264 16.7793C22.0179 16.7794 22.0094 16.7785 22.001 16.7783V17.5C22.0009 18.5355 21.2137 19.387 20.2051 19.4893L20.001 19.5H4.00102C2.96551 19.4999 2.11413 18.7126 2.01176 17.7041L2.00102 17.5V16.7783C1.46064 16.7697 1.02286 16.3325 1.01762 15.7891L0.984417 8.21094C0.97939 7.65873 1.42345 7.20727 1.97563 7.20215C1.98406 7.20207 1.99263 7.20202 2.00102 7.20215V6.5C2.00102 5.39547 2.89651 4.50007 4.00102 4.5H20.001L20.2051 4.51074ZM4.00102 6C3.72493 6.00007 3.50102 6.2239 3.50102 6.5V17.5C3.50115 17.776 3.72502 17.9999 4.00102 18H20.001C20.2771 18 20.5009 17.776 20.501 17.5V6.5C20.501 6.22386 20.2772 6 20.001 6H4.00102Z" fill="#FAFAFA"/>
</svg>
