<svg width="24" height="24" viewBox="0 0 24 24" fill="none" xmlns="http://www.w3.org/2000/svg">
<path fill-rule="evenodd" clip-rule="evenodd" d="M16.5498 10.6738C18.5928 10.674 20.2997 12.3818 20.2998 14.4248V16.6758H20.4072C20.8214 16.6758 21.1572 17.0116 21.1572 17.4258C21.1571 17.8399 20.8214 18.1758 20.4072 18.1758H19.4434V20.4268C19.4431 20.8407 19.1074 21.1768 18.6934 21.1768C18.2793 21.1768 17.9437 20.8407 17.9434 20.4268V18.1758H15.1562V20.4268C15.156 20.8407 14.8203 21.1768 14.4062 21.1768C13.9922 21.1768 13.6565 20.8407 13.6562 20.4268V18.1758H12.6914C12.2773 18.1758 11.9415 17.8399 11.9414 17.4258C11.9414 17.0116 12.2772 16.6758 12.6914 16.6758H12.7988V14.4248C12.799 12.3817 14.5068 10.6738 16.5498 10.6738ZM16.5498 12.1738C15.3352 12.1738 14.299 13.2101 14.2988 14.4248V16.6758H15.7998V16.0215L15.1621 15.3838C14.8692 15.0909 14.8692 14.6161 15.1621 14.3232C15.455 14.0303 15.9298 14.0303 16.2227 14.3232L16.5498 14.6504L16.877 14.3232C17.1699 14.0304 17.6446 14.0304 17.9375 14.3232C18.2302 14.6161 18.2303 15.0909 17.9375 15.3838L17.2998 16.0215V16.6758H18.7998V14.4248C18.7997 13.2102 17.7644 12.174 16.5498 12.1738Z" fill="#FAFAFA"/>
<path fill-rule="evenodd" clip-rule="evenodd" d="M11.0938 4.96191C12.0775 4.96191 12.9971 5.08073 13.6953 5.29004C14.0397 5.39329 14.3737 5.53065 14.6377 5.71777C14.8821 5.89103 15.2187 6.22032 15.2188 6.72363C15.2188 7.22693 14.8821 7.55617 14.6377 7.72949C14.3737 7.91661 14.0397 8.05496 13.6953 8.1582C12.9971 8.36748 12.0775 8.48535 11.0938 8.48535C10.11 8.48535 9.1904 8.36749 8.49219 8.1582C8.14783 8.05496 7.81377 7.91661 7.5498 7.72949C7.30542 7.55617 6.96875 7.22693 6.96875 6.72363C6.96884 6.22032 7.30544 5.89103 7.5498 5.71777C7.81377 5.53065 8.14783 5.39329 8.49219 5.29004C9.19042 5.08073 10.11 4.96191 11.0938 4.96191ZM11.0938 6.46191C10.2193 6.46191 9.45562 6.56836 8.93262 6.72363C9.45563 6.87892 10.2192 6.98535 11.0938 6.98535C11.9678 6.98535 12.7309 6.87877 13.2539 6.72363C12.7309 6.56851 11.9677 6.46191 11.0938 6.46191Z" fill="#FAFAFA"/>
<path fill-rule="evenodd" clip-rule="evenodd" d="M11.0938 2.82422C13.2397 2.82422 15.2179 3.18844 16.6875 3.80566C17.4206 4.11361 18.0632 4.49911 18.5332 4.96582C18.9195 5.34945 19.2112 5.81773 19.3066 6.35449C19.3281 6.42428 19.3438 6.49739 19.3438 6.57422V10.3242C19.3436 10.7383 19.0079 11.0742 18.5938 11.0742C18.1796 11.0742 17.8439 10.7383 17.8438 10.3242V9.0332C17.4981 9.26204 17.1084 9.46678 16.6875 9.64355C15.3263 10.2152 13.5285 10.5671 11.5654 10.6162C11.5337 10.6203 11.5016 10.624 11.4688 10.624H11.4375C11.4121 10.6246 11.3722 10.6266 11.3193 10.6289C11.2132 10.6335 11.0542 10.642 10.8545 10.6611C10.4543 10.6995 9.8924 10.7775 9.25391 10.9316C8.0444 11.2236 6.61346 11.7783 5.46875 12.8193V16.4424C5.65613 16.2987 5.86092 16.1487 6.08398 16C7.28029 15.2025 9.01866 14.374 11.0938 14.374C11.508 14.374 11.8437 14.7098 11.8438 15.124C11.8438 15.5382 11.508 15.874 11.0938 15.874C9.41884 15.874 7.96971 16.5456 6.91602 17.248C6.39277 17.5969 5.97826 17.9458 5.69629 18.2061C5.5557 18.3358 5.44889 18.443 5.37891 18.5156C5.34402 18.5518 5.31783 18.5791 5.30176 18.5967C5.29388 18.6053 5.28834 18.6117 5.28516 18.6152L5.28223 18.6172C5.0765 18.8523 4.74751 18.936 4.45508 18.8262C4.16259 18.7163 3.96875 18.4365 3.96875 18.124V12.499L3.9834 12.3516C4.01228 12.2076 4.0831 12.0741 4.18848 11.9688C5.02866 11.1286 5.9997 10.5392 6.94629 10.125C6.42489 9.98877 5.93952 9.82814 5.5 9.64355C5.0791 9.46678 4.68937 9.26204 4.34375 9.0332V10.6992C4.34362 11.1133 4.00788 11.4492 3.59375 11.4492C3.17962 11.4492 2.84388 11.1133 2.84375 10.6992V6.57422C2.84375 6.49749 2.85848 6.4242 2.87988 6.35449C2.97525 5.81766 3.268 5.34949 3.6543 4.96582C4.1243 4.49911 4.76685 4.11361 5.5 3.80566C6.96959 3.18844 8.94775 2.82422 11.0938 2.82422ZM11.0938 4.32422C9.09767 4.32422 7.32593 4.66565 6.08105 5.18848C5.45723 5.45049 5.0009 5.74337 4.71191 6.03027C4.42583 6.31439 4.34375 6.54879 4.34375 6.72461C4.34395 6.90037 4.42608 7.13414 4.71191 7.41797C5.00091 7.70487 5.4572 7.99775 6.08105 8.25977C7.32593 8.78259 9.09768 9.12402 11.0938 9.12402C13.0898 9.12402 14.8616 8.78259 16.1064 8.25977C16.7303 7.99775 17.1866 7.70487 17.4756 7.41797C17.7614 7.13413 17.8436 6.90037 17.8438 6.72461C17.8438 6.5488 17.7617 6.31439 17.4756 6.03027C17.1866 5.74337 16.7303 5.45049 16.1064 5.18848C14.8616 4.66565 13.0898 4.32422 11.0938 4.32422Z" fill="#FAFAFA"/>
<path d="M7.2334 12.8027C7.69374 12.8424 8.05652 13.2285 8.05664 13.6992C8.05644 14.1695 7.69513 14.5537 7.23535 14.5938C7.20964 14.5964 7.18365 14.5986 7.15723 14.5986C7.15429 14.5986 7.15039 14.5977 7.14746 14.5977C6.68607 14.5927 6.30757 14.2417 6.26172 13.791L6.25684 13.6992L6.26172 13.6064C6.3081 13.1528 6.69156 12.7988 7.15723 12.7988L7.2334 12.8027Z" fill="#FAFAFA"/>
<path d="M9.50488 11.918C9.95877 11.964 10.3135 12.3482 10.3135 12.8145C10.313 13.311 9.90995 13.7139 9.41309 13.7139L9.33594 13.71L9.33105 13.709C8.90295 13.6703 8.56122 13.3327 8.51758 12.9062L8.5127 12.8145L8.51758 12.7217C8.56107 12.2952 8.90246 11.9561 9.33008 11.917C9.3573 11.914 9.38507 11.9141 9.41309 11.9141L9.50488 11.918Z" fill="#FAFAFA"/>
<path d="M11.958 11.4531C12.4187 11.4923 12.7822 11.8783 12.7822 12.3496C12.7819 12.8203 12.4197 13.205 11.959 13.2441C11.9336 13.2467 11.9079 13.249 11.8818 13.249C11.416 13.249 11.0326 12.895 10.9863 12.4414L10.9814 12.3496L10.9863 12.2568C11.0326 11.803 11.4162 11.4492 11.8818 11.4492L11.958 11.4531Z" fill="#FAFAFA"/>
</svg>
