<svg width="24" height="24" viewBox="0 0 24 24" fill="none" xmlns="http://www.w3.org/2000/svg">
<path fill-rule="evenodd" clip-rule="evenodd" d="M16.5 2.25C17.1904 2.25 17.75 2.80964 17.75 3.5V6.25H20.5C21.1904 6.25 21.75 6.80964 21.75 7.5V8.25C21.75 8.66421 21.4142 9 21 9C20.5858 9 20.25 8.66421 20.25 8.25V7.75H7.75V20.25H20.25C20.25 19.8358 20.5858 19.5 21 19.5C21.4142 19.5 21.75 19.8358 21.75 20.25V20.5C21.75 21.1904 21.1904 21.75 20.5 21.75H7.5C6.80964 21.75 6.25 21.1904 6.25 20.5V17.75H3.5C2.80964 17.75 2.25 17.1904 2.25 16.5V3.5C2.25 2.80964 2.80964 2.25 3.5 2.25H16.5ZM3.75 16.25H6.25V7.5C6.25 6.80964 6.80964 6.25 7.5 6.25H16.25V3.75H3.75V16.25Z" fill="#FAFAFA"/>
<path d="M11.7217 15.7578C12.0921 15.5726 12.5433 15.7233 12.7285 16.0938C12.9131 16.464 12.7627 16.9145 12.3926 17.0996L12.376 17.1074C12.8053 17.2038 13.2429 17.2648 13.6846 17.2852C14.2799 17.2803 14.7333 17.065 15.3379 16.7627C15.9316 16.4658 16.681 16.0801 17.6826 16.0801L17.7158 16.0811C18.9306 16.1349 20.1225 16.4328 21.2197 16.957C21.5931 17.1356 21.7515 17.5835 21.5732 17.957C21.3947 18.3305 20.9469 18.4888 20.5732 18.3105C19.6618 17.8751 18.672 17.6267 17.6631 17.5801C17.0672 17.5846 16.6137 17.801 16.0088 18.1035C15.4151 18.4004 14.6656 18.7861 13.6641 18.7861C13.6532 18.7861 13.6417 18.7856 13.6309 18.7852C12.4161 18.7313 11.2242 18.4333 10.127 17.9092C9.86863 17.7857 9.70298 17.5255 9.7002 17.2393C9.69765 16.9529 9.85826 16.6897 10.1143 16.5615L11.7217 15.7578Z" fill="#FAFAFA"/>
<path d="M11.7217 12.543C12.092 12.3581 12.5432 12.5088 12.7285 12.8789C12.9133 13.2492 12.7626 13.6995 12.3926 13.8848L12.376 13.8926C12.8053 13.989 13.2429 14.05 13.6846 14.0703C14.2799 14.0655 14.7333 13.8502 15.3379 13.5479C15.9316 13.251 16.6812 12.8652 17.6826 12.8652L17.7158 12.8662C18.9306 12.9201 20.1225 13.218 21.2197 13.7422C21.5932 13.9206 21.7512 14.3686 21.5732 14.7422C21.3947 15.1159 20.947 15.2742 20.5732 15.0957C19.6618 14.6603 18.672 14.4118 17.6631 14.3652C17.0673 14.3698 16.6136 14.5863 16.0088 14.8887C15.4151 15.1855 14.6656 15.5712 13.6641 15.5713C13.6532 15.5713 13.6417 15.5708 13.6309 15.5703C12.416 15.5165 11.2243 15.2186 10.127 14.6943C9.86852 14.5709 9.70286 14.3108 9.7002 14.0244C9.69781 13.7383 9.85838 13.4748 10.1143 13.3467L11.7217 12.543Z" fill="#FAFAFA"/>
<path d="M11.7217 9.3291C12.0921 9.14403 12.5433 9.29466 12.7285 9.66504C12.9132 10.0353 12.7627 10.4857 12.3926 10.6709L12.376 10.6787C12.8053 10.7751 13.2429 10.8361 13.6846 10.8564C14.2799 10.8516 14.7333 10.6363 15.3379 10.334C15.9316 10.0371 16.6811 9.65137 17.6826 9.65137L17.7158 9.65234C18.9306 9.70623 20.1225 10.0041 21.2197 10.5283C21.5932 10.7069 21.7515 11.1547 21.5732 11.5283C21.3947 11.902 20.9469 12.0602 20.5732 11.8818C19.6618 11.4464 18.672 11.198 17.6631 11.1514C17.0672 11.1559 16.6137 11.3724 16.0088 11.6748C15.4151 11.9717 14.6656 12.3574 13.6641 12.3574C13.6532 12.3574 13.6417 12.3569 13.6309 12.3564C12.4161 12.3026 11.2242 12.0046 10.127 11.4805C9.86853 11.357 9.70287 11.0969 9.7002 10.8105C9.69765 10.5242 9.85826 10.261 10.1143 10.1328L11.7217 9.3291Z" fill="#FAFAFA"/>
</svg>
