<svg width="24" height="24" viewBox="0 0 24 24" fill="none" xmlns="http://www.w3.org/2000/svg">
<path fill-rule="evenodd" clip-rule="evenodd" d="M17.75 14C19.4067 14.0001 20.75 15.3432 20.75 17C20.75 17.8871 20.3621 18.6812 19.75 19.2305C20.7741 19.7853 21.3089 20.6989 21.4736 21.3027C21.5825 21.7022 21.3467 22.1146 20.9473 22.2236C20.5478 22.3323 20.1353 22.0967 20.0264 21.6973C19.9125 21.2802 19.3017 20.2501 17.75 20.25C16.1984 20.2502 15.5874 21.2802 15.4736 21.6973C15.3646 22.0967 14.9522 22.3324 14.5527 22.2236C14.1534 22.1145 13.9175 21.7022 14.0264 21.3027C14.191 20.6991 14.7256 19.7854 15.749 19.2305C15.1373 18.6813 14.75 17.8868 14.75 17C14.75 15.3433 16.0933 14.0002 17.75 14ZM17.75 15.5C16.9218 15.5002 16.25 16.1717 16.25 17C16.25 17.8283 16.9218 18.4998 17.75 18.5C18.5783 18.4999 19.25 17.8283 19.25 17C19.25 16.1717 18.5783 15.5001 17.75 15.5Z" fill="#FAFAFA"/>
<path fill-rule="evenodd" clip-rule="evenodd" d="M16.25 2C16.6642 2 17 2.33579 17 2.75V4H18.25C19.7688 4 21 5.23122 21 6.75V11.25C21 11.6642 20.6642 12 20.25 12C19.8358 12 19.5 11.6642 19.5 11.25V10H4.5V18.25C4.5 18.9404 5.05964 19.5 5.75 19.5H11.25C11.6642 19.5 12 19.8358 12 20.25C12 20.6642 11.6642 21 11.25 21H5.75C4.23122 21 3 19.7688 3 18.25V6.75C3 5.23122 4.23122 4 5.75 4H7V2.75C7 2.33579 7.33579 2 7.75 2C8.16421 2 8.5 2.33579 8.5 2.75V4H15.5V2.75C15.5 2.33579 15.8358 2 16.25 2ZM5.75 5.5C5.05964 5.5 4.5 6.05964 4.5 6.75V8.5H19.5V6.75C19.5 6.05964 18.9404 5.5 18.25 5.5H5.75Z" fill="#FAFAFA"/>
</svg>
