<svg width="24" height="24" viewBox="0 0 24 24" fill="none" xmlns="http://www.w3.org/2000/svg">
<path fill-rule="evenodd" clip-rule="evenodd" d="M6.99917 7C6.99917 4.23858 9.23774 2 11.9992 2C14.7606 2 16.9992 4.23858 16.9992 7V11.5C16.9992 14.2614 14.7606 16.5 11.9992 16.5C9.23774 16.5 6.99917 14.2614 6.99917 11.5V7ZM11.9992 3.5C10.0662 3.5 8.49917 5.067 8.49917 7V11.5C8.49917 13.433 10.0662 15 11.9992 15C13.9322 15 15.4992 13.433 15.4992 11.5V7C15.4992 5.067 13.9322 3.5 11.9992 3.5ZM4.82296 13.8127C5.20252 13.6469 5.64466 13.8202 5.8105 14.1997C6.85279 16.5853 9.23241 18.25 11.9992 18.25C14.7659 18.25 17.1456 16.5853 18.1878 14.1997C18.3537 13.8202 18.7958 13.6469 19.1754 13.8127C19.555 13.9786 19.7282 14.4207 19.5624 14.8003C18.385 17.4949 15.8085 19.4407 12.7492 19.7164V21.25C12.7492 21.6642 12.4134 22 11.9992 22C11.585 22 11.2492 21.6642 11.2492 21.25V19.7164C8.1898 19.4407 5.6133 17.4949 4.43597 14.8003C4.27013 14.4207 4.44339 13.9786 4.82296 13.8127Z" fill="#FAFAFA"/>
</svg>
