<svg width="24" height="24" viewBox="0 0 24 24" fill="none" xmlns="http://www.w3.org/2000/svg">
<path fill-rule="evenodd" clip-rule="evenodd" d="M15.8965 6C15.57 4.84575 14.5088 4 13.25 4H4.75C3.23122 4 2 5.23122 2 6.75V14.3561C2 15.5958 2.85323 16.6362 4.00449 16.9221C4.09398 18.637 5.51282 20 7.25 20C8.96081 20 10.3629 18.6781 10.4905 17H13.5095C13.6371 18.6781 15.0392 20 16.75 20C18.4926 20 19.9149 18.6285 19.9963 16.906C21.1507 16.5937 22 15.5389 22 14.2857V10.6248C22 10.0654 21.8294 9.51933 21.511 9.05943L20.2131 7.18467C19.6995 6.44273 18.8545 6 17.9521 6H15.8965ZM16 7.5H17.9521C18.3623 7.5 18.7464 7.70124 18.9798 8.03849L20.2777 9.91324C20.4225 10.1223 20.5 10.3705 20.5 10.6248V14.2857C20.5 14.8045 20.1746 15.2473 19.7168 15.4212C19.2089 14.2888 18.0715 13.5 16.75 13.5C16.4919 13.5 16.2408 13.5301 16 13.587V7.5ZM14.5 14.4048C14.1799 14.712 13.9225 15.0841 13.7491 15.5H10.2509C9.76114 14.3255 8.60198 13.5 7.25 13.5C5.92146 13.5 4.7791 14.2972 4.27515 15.4392C3.82432 15.2858 3.5 14.8588 3.5 14.3561V6.75C3.5 6.05964 4.05964 5.5 4.75 5.5H13.25C13.9404 5.5 14.5 6.05964 14.5 6.75V14.4048ZM16.75 15C17.7165 15 18.5 15.7835 18.5 16.75C18.5 17.7165 17.7165 18.5 16.75 18.5C15.7835 18.5 15 17.7165 15 16.75C15 15.7835 15.7835 15 16.75 15ZM7.25 15C8.2165 15 9 15.7835 9 16.75C9 17.7165 8.2165 18.5 7.25 18.5C6.2835 18.5 5.5 17.7165 5.5 16.75C5.5 15.7835 6.2835 15 7.25 15Z" fill="#FAFAFA"/>
</svg>
