<svg width="24" height="24" viewBox="0 0 24 24" fill="none" xmlns="http://www.w3.org/2000/svg">
<path d="M12.3125 1.18236C12.0741 0.987243 11.742 0.944781 11.4609 1.07396C11.1798 1.20328 11 1.48101 11 1.78588V3.04955C5.94672 3.55129 2.00004 7.81444 2 12.9997C2 18.5226 6.47715 22.9997 12 22.9997C17.5228 22.9997 22 18.5226 22 12.9997C22 10.3533 20.9713 7.94507 19.293 6.15697C19.0095 5.85505 18.5344 5.84033 18.2324 6.12377C17.9304 6.40724 17.9157 6.8823 18.1992 7.18432C19.6267 8.70536 20.5 10.7497 20.5 12.9997C20.5 17.6942 16.6944 21.4997 12 21.4997C7.30558 21.4997 3.5 17.6942 3.5 12.9997C3.50004 8.64368 6.77687 5.05328 11 4.55834V5.71361C11 6.01848 11.1798 6.29621 11.4609 6.42553C11.742 6.55474 12.0741 6.51324 12.3125 6.3181L14.7119 4.35326C14.8943 4.20398 15 3.98293 15 3.74975C15 3.51659 14.8943 3.2955 14.7119 3.14623L12.3125 1.18236Z" fill="#FAFAFA"/>
<path d="M10.0742 17.8074H8.37305V11.7038C8.24305 11.8542 8.0825 11.9983 7.8916 12.1365C7.70056 12.2706 7.46862 12.3911 7.19629 12.4968C6.92811 12.5984 6.60898 12.6754 6.23926 12.7283V11.2283C6.61306 11.147 6.94033 11.0373 7.2207 10.8992C7.50522 10.761 7.75348 10.5996 7.96484 10.4167C8.18004 10.2299 8.3706 10.0266 8.53711 9.80736H10.0742V17.8074Z" fill="#FAFAFA"/>
<path d="M16.6846 11.1687H13.4443L13.3057 12.9578C13.4381 12.8213 13.6189 12.7054 13.8477 12.6091C14.0806 12.5087 14.3676 12.4578 14.709 12.4578C15.1668 12.4578 15.5928 12.5448 15.9863 12.7175C16.3798 12.8902 16.6966 13.1653 16.9375 13.5427C17.1784 13.9201 17.2997 14.4176 17.2998 15.0359C17.2998 15.6544 17.1729 16.1692 16.9199 16.5788C16.6669 16.9883 16.3233 17.295 15.8896 17.4997C15.4599 17.7046 14.9738 17.8074 14.4316 17.8074C13.8896 17.8073 13.3977 17.7194 12.9561 17.5427C12.5143 17.366 12.1624 17.0965 11.9014 16.7351C11.6405 16.3698 11.5098 15.9119 11.5098 15.3621H13.1064C13.1065 15.7233 13.2316 16.0041 13.4805 16.2048C13.7294 16.4015 14.0463 16.4997 14.4316 16.4997C14.797 16.4997 15.0925 16.3839 15.3174 16.1511C15.5463 15.9182 15.6611 15.5459 15.6611 15.0359C15.6611 14.5703 15.5406 14.2348 15.2998 14.03C15.0629 13.8212 14.7553 13.7176 14.3779 13.7175C14.0849 13.7175 13.8477 13.7629 13.667 13.8552C13.4903 13.9436 13.3477 14.0547 13.2393 14.1872H11.8057L12.1484 9.80736H16.6846V11.1687Z" fill="#FAFAFA"/>
</svg>
