<svg width="40" height="40" viewBox="0 0 40 40" fill="none" xmlns="http://www.w3.org/2000/svg">
<path fill-rule="evenodd" clip-rule="evenodd" d="M28.4594 4.57422C30.3996 4.57431 32.0767 5.12119 33.2478 6.45247C34.3683 7.72592 34.771 9.43711 34.8494 11.2067C34.9107 12.5871 34.992 13.996 35.0756 15.4303C35.2912 19.1345 35.5166 24.521 35.3898 28.2331C35.3911 28.3006 35.3914 28.3687 35.3914 28.4365C35.3913 30.4335 34.8333 32.238 33.5457 33.5439C32.2543 34.8534 30.4611 35.4255 28.4741 35.4255C26.4876 35.4253 24.6952 34.8533 23.4041 33.5439C22.119 32.2406 21.5606 30.4403 21.5584 28.4479C21.4523 25.9798 21.5049 22.9426 21.6154 20.0641C22.6676 20.3132 23.7632 20.8078 24.9226 21.5827C25.5786 22.0211 26.4666 21.8448 26.9051 21.1888C27.3431 20.533 27.1669 19.6464 26.5112 19.208C24.7434 18.0264 22.9455 17.2911 21.0994 17.0775C20.7107 16.9844 20.3484 16.944 20.0089 16.944C19.6866 16.944 19.3435 16.9795 18.977 17.0628C17.087 17.2571 15.2476 17.9997 13.4399 19.208C12.7845 19.6465 12.608 20.5331 13.046 21.1888C13.4844 21.8448 14.3725 22.0211 15.0284 21.5827C16.2059 20.7958 17.3173 20.298 18.3846 20.0527C18.4959 22.948 18.5482 26.0046 18.4399 28.4821C18.4314 30.4609 17.872 32.248 16.5942 33.5439C15.303 34.8532 13.5109 35.4255 11.5242 35.4255C9.53749 35.4255 7.74545 34.8532 6.45422 33.5439C5.16657 32.238 4.60861 30.4336 4.60852 28.4365C4.60852 28.36 4.6085 28.2831 4.61015 28.207C4.4853 24.4958 4.70909 19.1259 4.92428 15.4303C5.0078 13.996 5.08935 12.5871 5.15051 11.2067C5.22893 9.43719 5.63193 7.7259 6.75208 6.45247C7.92332 5.12107 9.60168 4.57422 11.5421 4.57422C13.4823 4.57433 15.1594 5.12123 16.3305 6.45247C17.2562 7.50472 17.6912 8.85599 17.8588 10.292C18.5614 10.1576 19.2785 10.0869 20.0089 10.0869C20.7333 10.0869 21.4441 10.1565 22.1411 10.2887C22.309 8.854 22.7445 7.50392 23.6694 6.45247C24.8406 5.12107 26.5189 4.57422 28.4594 4.57422ZM11.5242 24.8753C11.2542 24.8753 11.0056 24.8894 10.7771 24.9176C9.89584 25.0269 9.31192 25.3312 8.93144 25.7005C8.45317 26.1648 8.07368 26.9498 8.03951 28.2477L8.03788 28.2754C8.03674 28.3282 8.03626 28.3821 8.03626 28.4365C8.03635 29.8154 8.41473 30.649 8.89563 31.1367C9.37316 31.6207 10.182 31.9977 11.5242 31.9977C12.8664 31.9977 13.6753 31.6207 14.1528 31.1367C14.6337 30.649 15.0121 29.8154 15.0122 28.4365C15.0122 27.0575 14.6337 26.2241 14.1528 25.7363C13.6753 25.2521 12.8667 24.8753 11.5242 24.8753ZM28.0607 24.8867C26.963 24.9563 26.2732 25.3042 25.8471 25.7363C25.3663 26.2241 24.9878 27.0578 24.9878 28.4365C24.9877 28.4555 24.9884 28.4748 24.9878 28.4935C24.9981 29.8383 25.3713 30.6556 25.8455 31.1367C26.3229 31.6208 27.1321 31.9976 28.4741 31.9977C29.8167 31.9977 30.6268 31.6208 31.1043 31.1367C31.5851 30.649 31.9619 29.8153 31.962 28.4365C31.962 27.0579 31.5849 26.2242 31.1043 25.7363C30.6268 25.2521 29.8167 24.8753 28.4741 24.8753C28.3303 24.8753 28.1924 24.8784 28.0607 24.8867Z" fill="#FAFAFA"/>
</svg>
