<svg width="40" height="40" viewBox="0 0 40 40" fill="none" xmlns="http://www.w3.org/2000/svg">
<path d="M15.4656 32.3535C16.1558 32.3535 16.7153 32.9134 16.7156 33.6035V35C16.7153 35.6901 16.1558 36.25 15.4656 36.25H9.18794C8.4979 36.2498 7.9382 35.69 7.93794 35V33.6035C7.9382 32.9135 8.4979 32.3537 9.18794 32.3535C9.87787 32.3538 10.4377 32.9136 10.4379 33.6035V33.75H14.2156V33.6035C14.2159 32.9136 14.7758 32.3539 15.4656 32.3535Z" fill="#FAFAFA"/>
<path d="M19.7771 3.75C20.1019 3.75 20.4147 3.87716 20.6479 4.10319L35.8709 18.8688C36.2362 19.2232 36.35 19.7643 36.159 20.236C35.9677 20.7076 35.5091 21.0173 35.0001 21.0173H31.9435V35C31.9435 35.3329 31.8102 35.6524 31.574 35.887C31.3379 36.1211 31.0178 36.2521 30.6853 36.25L23.8299 36.2061C23.7531 36.2055 23.6781 36.1954 23.6053 36.1816C23.5983 36.1804 23.591 36.1798 23.5841 36.1784C23.5501 36.1713 23.5177 36.1588 23.4848 36.1491C23.2825 36.0892 23.0995 35.9852 22.9542 35.8398L22.9493 35.835C22.9329 35.8183 22.9209 35.7972 22.9054 35.7796C22.7108 35.5593 22.588 35.2731 22.588 34.9561V23.6914H16.7156V23.8379C16.7153 24.528 16.1558 25.0879 15.4656 25.0879C14.7758 25.0875 14.2159 24.5277 14.2156 23.8379V22.4414C14.2156 21.7513 14.7756 21.1918 15.4656 21.1914H19.7267V6.69108L18.7908 7.62858C18.3027 8.11586 17.5112 8.11609 17.0232 7.62858C16.5355 7.14051 16.5355 6.34744 17.0232 5.85938L18.7664 4.11621C19.0006 3.88196 19.3205 3.75019 19.6518 3.75H19.7771Z" fill="#FAFAFA"/>
<path d="M9.18794 26.7725C9.87797 26.7728 10.4378 27.3324 10.4379 28.0225V29.4189C10.4377 30.1089 9.87787 30.6686 9.18794 30.6689C8.4979 30.6688 7.9382 30.109 7.93794 29.4189V28.0225C7.93805 27.3323 8.4978 26.7726 9.18794 26.7725Z" fill="#FAFAFA"/>
<path d="M15.4656 26.7725C16.1559 26.7725 16.7155 27.3322 16.7156 28.0225V29.4189C16.7153 30.1091 16.1558 30.6689 15.4656 30.6689C14.7758 30.6685 14.2159 30.1088 14.2156 29.4189V28.0225C14.2157 27.3325 14.7757 26.7729 15.4656 26.7725Z" fill="#FAFAFA"/>
<path d="M6.18663 16.6992C6.66144 16.1984 7.45319 16.1776 7.95421 16.652C8.45455 17.1271 8.47455 17.9172 7.99978 18.418L7.90538 18.5173H9.18631C9.87664 18.5173 10.4363 19.0769 10.4363 19.7673V23.5042C10.4361 24.1945 9.87656 24.7542 9.18631 24.7542C8.4967 24.7535 7.93647 24.194 7.93631 23.5042V21.0173H5.00011C4.50096 21.0169 4.04819 20.719 3.85102 20.2604C3.65413 19.8018 3.75033 19.2686 4.09353 18.9063L6.18663 16.6992Z" fill="#FAFAFA"/>
<path d="M10.394 12.4886C10.882 12.0006 11.675 12.0008 12.1632 12.4886C12.6508 12.9767 12.6508 13.7681 12.1632 14.2562L10.4184 16.001C9.93029 16.4879 9.13863 16.4884 8.65083 16.001C8.16327 15.513 8.16354 14.7199 8.65083 14.2318L10.394 12.4886Z" fill="#FAFAFA"/>
<path d="M14.5818 8.30241C15.0699 7.81475 15.863 7.8146 16.351 8.30241C16.8385 8.79032 16.8382 9.5819 16.351 10.07L14.6062 11.8148C14.1182 12.3022 13.3267 12.3024 12.8387 11.8148C12.3508 11.3267 12.3507 10.5337 12.8387 10.0456L14.5818 8.30241Z" fill="#FAFAFA"/>
</svg>
