<svg width="40" height="40" viewBox="0 0 40 40" fill="none" xmlns="http://www.w3.org/2000/svg">
<path fill-rule="evenodd" clip-rule="evenodd" d="M30.8333 4.03979C33.1344 4.0398 34.9998 5.90546 35 8.20646V20.0326C35 30.6955 24.8067 35.5627 21.2256 36.9434L20.9261 37.0427C20.219 37.2405 19.4755 37.1916 18.7891 36.9028C15.2213 35.4014 5 30.2122 5 20.0326V8.20646C5.00022 5.90546 6.86562 4.03979 9.16667 4.03979H30.8333ZM19.1797 12.4822C18.9982 11.8167 18.3122 11.4241 17.6465 11.6049L17.5081 11.6423C17.4909 11.6474 17.4729 11.6546 17.4561 11.6602C17.3914 11.6704 17.325 11.6849 17.2607 11.7058C15.6574 12.2271 14.2399 13.1938 13.1706 14.4874C13.1332 14.5235 13.0966 14.563 13.0632 14.6046C13.0488 14.6226 13.0351 14.6418 13.0208 14.6599C13.0063 14.6784 12.9913 14.6983 12.9769 14.7169C12.9455 14.7572 12.9163 14.7995 12.8906 14.8422C12.8708 14.8689 12.85 14.8967 12.8304 14.9236C11.8641 16.254 11.2887 17.824 11.1637 19.4548C11.1401 19.5412 11.1243 19.6319 11.1198 19.725C11.1187 19.7483 11.1175 19.7717 11.1165 19.795C11.1156 19.8187 11.1157 19.843 11.1149 19.8666C11.1119 19.9591 11.1215 20.0494 11.1377 20.1368C11.1387 21.7598 11.5866 23.3468 12.4235 24.7266C12.4565 24.8232 12.5002 24.9189 12.5586 25.0082C12.5712 25.0275 12.5849 25.0476 12.5977 25.0668L12.627 25.0457C12.6929 25.1446 12.7603 25.2437 12.8304 25.3403C13.93 26.8537 15.4816 27.9813 17.2607 28.5597C19.0396 29.1376 20.957 29.1371 22.736 28.5597C24.5152 27.9816 26.0681 26.855 27.168 25.3419C27.5737 24.7835 27.4494 24.0013 26.8913 23.5955C26.3328 23.1901 25.5505 23.3138 25.1449 23.8722C25.1102 23.9198 25.0701 23.9639 25.0342 24.0105C25.0205 24.0263 25.0065 24.0427 24.9935 24.0593C24.9834 24.0724 24.9728 24.0871 24.9626 24.1C24.9555 24.109 24.9482 24.1185 24.9414 24.1277C24.1687 25.083 23.1375 25.8005 21.9645 26.1817C20.6874 26.5963 19.3093 26.5967 18.0322 26.1817C16.7556 25.7665 15.641 24.9582 14.8519 23.8722C14.0627 22.7857 13.6378 21.4748 13.6377 20.1319C13.6378 18.7893 14.063 17.4797 14.8519 16.3933C15.641 15.3071 16.7555 14.4974 18.0322 14.0821L18.0387 14.0789C18.0932 14.0708 18.1488 14.0603 18.2031 14.0447C18.2191 14.0401 18.2375 14.0345 18.2536 14.03C18.2693 14.0256 18.2867 14.0229 18.3024 14.0186C18.9683 13.8373 19.3608 13.1482 19.1797 12.4822ZM27.6188 19.1537C26.9294 19.1319 26.3507 19.6719 26.3281 20.3614C26.3276 20.3784 26.3288 20.3965 26.3281 20.4135C26.3274 20.4302 26.3257 20.4473 26.3249 20.4639C26.2915 21.1526 26.823 21.7379 27.5114 21.7725C28.2007 21.8061 28.7878 21.2753 28.8216 20.586L28.8281 20.4428C28.8504 19.7529 28.3087 19.1761 27.6188 19.1537ZM27.3063 15.1824C26.9189 14.6114 26.1409 14.4618 25.5697 14.8487C24.999 15.2362 24.8492 16.0142 25.236 16.5854L25.293 16.67C25.6709 17.2471 26.4457 17.4084 27.0231 17.0313C27.6001 16.6532 27.7636 15.8785 27.3861 15.3012L27.3063 15.1824ZM22.9818 11.8214C22.3331 11.5879 21.6165 11.9234 21.3818 12.5717C21.1479 13.2204 21.4839 13.9367 22.1322 14.1716C22.1479 14.1773 22.1653 14.1837 22.181 14.1895C22.1965 14.1953 22.2128 14.2016 22.2282 14.2074C22.8732 14.4523 23.5958 14.1279 23.8411 13.4832C24.0856 12.8379 23.7604 12.1151 23.1152 11.8702L22.9818 11.8214Z" fill="#FAFAFA"/>
</svg>
