<svg width="40" height="40" viewBox="0 0 40 40" fill="none" xmlns="http://www.w3.org/2000/svg">
<path d="M20.0009 31.6668C20.6911 31.667 21.2509 32.2266 21.2509 32.9168V36.2502C21.2509 36.9404 20.6911 37.5 20.0009 37.5002C19.3106 37.5002 18.7509 36.9405 18.7509 36.2502V32.9168C18.7509 32.2265 19.3106 31.6668 20.0009 31.6668Z" fill="#FAFAFA"/>
<path fill-rule="evenodd" clip-rule="evenodd" d="M20.0009 3.3335C23.8435 3.33359 27.5441 4.76369 30.2841 7.33252C33.027 9.90399 34.5843 13.4099 34.5843 17.0835V32.0835C34.5843 32.127 34.5804 32.1698 34.5761 32.2121L36.7522 34.5688C37.2201 35.076 37.1889 35.8665 36.6822 36.3348C36.1751 36.8029 35.3846 36.7716 34.9163 36.2648L25.2874 25.8335H21.2509V27.9168C21.2509 28.6071 20.6911 29.1666 20.0009 29.1668C19.3106 29.1668 18.7509 28.6072 18.7509 27.9168V25.8335H14.7145L5.08556 36.2648C4.61733 36.7717 3.82678 36.8028 3.31961 36.3348C2.81266 35.8665 2.78147 35.076 3.24962 34.5688L5.4241 32.2121C5.41978 32.1698 5.41759 32.1269 5.41759 32.0835V17.0835C5.41759 13.4098 6.97482 9.90399 9.71772 7.33252C12.4579 4.76373 16.1584 3.3335 20.0009 3.3335ZM20.0009 12.5002C18.7512 12.5002 17.5724 12.956 16.7197 13.7355C15.8709 14.5117 15.4176 15.539 15.4176 16.5838V23.3335H24.5843V16.5838C24.5843 15.5392 24.1308 14.5117 23.2822 13.7355C22.4296 12.956 21.2506 12.5003 20.0009 12.5002Z" fill="#FAFAFA"/>
</svg>
