<svg width="40" height="40" viewBox="0 0 40 40" fill="none" xmlns="http://www.w3.org/2000/svg">
<path d="M36.769 14.7428L15.0002 36.51C14.7681 36.7422 14.4924 36.9264 14.1891 37.0521C13.8857 37.1777 13.5606 37.2424 13.2322 37.2424C12.9039 37.2424 12.5788 37.1777 12.2754 37.0521C11.972 36.9264 11.6964 36.7422 11.4643 36.51L3.23146 28.2787C2.99925 28.0466 2.81505 27.7709 2.68938 27.4676C2.56371 27.1642 2.49902 26.8391 2.49902 26.5108C2.49902 26.1824 2.56371 25.8573 2.68938 25.5539C2.81505 25.2506 2.99925 24.9749 3.23146 24.7428L7.78927 20.185C7.84732 20.1269 7.91625 20.0808 7.99212 20.0493C8.068 20.0179 8.14932 20.0017 8.23146 20.0017C8.31359 20.0017 8.39492 20.0179 8.4708 20.0493C8.54667 20.0808 8.6156 20.1269 8.67365 20.185L14.1158 25.6272C14.2374 25.7486 14.3826 25.8437 14.5425 25.9065C14.7025 25.9693 14.8736 25.9985 15.0453 25.9922C15.217 25.9859 15.3856 25.9442 15.5405 25.8699C15.6953 25.7955 15.8332 25.69 15.9455 25.56C16.1508 25.3123 16.2552 24.9964 16.2378 24.6752C16.2204 24.354 16.0826 24.0512 15.8518 23.8272L10.4408 18.4162C10.324 18.2991 10.2583 18.1403 10.2583 17.9748C10.2583 17.8093 10.324 17.6506 10.4408 17.5334L12.7846 15.1897C12.8426 15.1315 12.9116 15.0855 12.9874 15.054C13.0633 15.0225 13.1446 15.0064 13.2268 15.0064C13.3089 15.0064 13.3902 15.0225 13.4661 15.054C13.542 15.0855 13.6109 15.1315 13.669 15.1897L19.1111 20.6318C19.2327 20.7533 19.3779 20.8484 19.5379 20.9112C19.6978 20.974 19.8689 21.0032 20.0406 20.9968C20.2123 20.9905 20.3809 20.9489 20.5358 20.8745C20.6906 20.8002 20.8285 20.6947 20.9408 20.5647C21.1461 20.317 21.2505 20.0011 21.2331 19.6799C21.2157 19.3587 21.0779 19.0559 20.8471 18.8318L15.4424 13.4162C15.3255 13.2991 15.2599 13.1403 15.2599 12.9748C15.2599 12.8093 15.3255 12.6506 15.4424 12.5334L17.7861 10.1897C17.9033 10.0728 18.0621 10.0071 18.2276 10.0071C18.3931 10.0071 18.5518 10.0728 18.669 10.1897L24.1111 15.6318C24.2327 15.7536 24.3781 15.8489 24.5381 15.9118C24.6982 15.9748 24.8695 16.004 25.0414 15.9977C25.2133 15.9914 25.3821 15.9497 25.5371 15.8752C25.6921 15.8006 25.8301 15.6949 25.9424 15.5647C26.1475 15.3168 26.2516 15.0008 26.2339 14.6796C26.2162 14.3584 26.0781 14.0557 25.8471 13.8318L20.4424 8.41622C20.3255 8.29906 20.2599 8.14032 20.2599 7.97482C20.2599 7.80932 20.3255 7.65058 20.4424 7.53341L25.0002 2.9756C25.2324 2.74339 25.508 2.55919 25.8113 2.43352C26.1147 2.30785 26.4398 2.24316 26.7682 2.24316C27.0965 2.24316 27.4217 2.30785 27.725 2.43352C28.0284 2.55919 28.304 2.74339 28.5361 2.9756L36.769 11.2068C37.0012 11.439 37.1854 11.7146 37.311 12.018C37.4367 12.3213 37.5014 12.6465 37.5014 12.9748C37.5014 13.3032 37.4367 13.6283 37.311 13.9317C37.1854 14.235 37.0012 14.5106 36.769 14.7428Z" fill="#FAFAFA"/>
</svg>
