<svg width="40" height="40" viewBox="0 0 40 40" fill="none" xmlns="http://www.w3.org/2000/svg">
<path fill-rule="evenodd" clip-rule="evenodd" d="M5.46754 3.69912C4.97939 3.21097 4.18793 3.21097 3.69978 3.69912C3.21162 4.18728 3.21162 4.97874 3.69978 5.46689L8.97921 10.7463C6.73913 12.5547 4.71732 14.95 3.02979 17.9115C2.29152 19.2071 2.29477 20.7967 3.03167 22.0895C6.24497 27.727 10.6746 31.3147 15.4911 32.6946C20.0018 33.9868 24.7451 33.3092 28.9505 30.7176L34.5331 36.3002C35.0213 36.7884 35.8127 36.7884 36.3009 36.3002C36.789 35.8121 36.789 35.0206 36.3009 34.5325L5.46754 3.69912ZM23.7461 25.5133L21.9268 23.6939C21.3504 23.9955 20.6949 24.1655 19.9989 24.1655C17.6977 24.1655 15.8322 22.3 15.8322 19.9989C15.8322 19.3028 16.0023 18.6474 16.3038 18.0709L14.4845 16.2516C13.7578 17.3192 13.3322 18.61 13.3322 19.9989C13.3322 23.6808 16.317 26.6655 19.9989 26.6655C21.3877 26.6655 22.6785 26.2399 23.7461 25.5133Z" fill="#FAFAFA"/>
<path d="M32.8726 27.5689C34.3804 26.0373 35.7611 24.2073 36.9692 22.0873C37.7067 20.7931 37.7066 19.2063 36.9692 17.9121C32.7634 10.5314 26.4654 6.66639 20.0003 6.66634C17.7423 6.66632 15.5047 7.13776 13.3695 8.06576L32.8726 27.5689Z" fill="#FAFAFA"/>
</svg>
