<svg width="40" height="40" viewBox="0 0 40 40" fill="none" xmlns="http://www.w3.org/2000/svg">
<path fill-rule="evenodd" clip-rule="evenodd" d="M27.9222 18.1427C31.186 18.1431 33.9231 20.8798 33.9232 24.1437V28.478H34.7809C35.3329 28.4783 35.7803 28.9269 35.7803 29.479C35.7799 30.0308 35.3327 30.4781 34.7809 30.4784H32.7318V34.8127C32.7318 35.3648 32.2845 35.8134 31.7324 35.8136C31.1802 35.8136 30.7314 35.3649 30.7314 34.8127V30.4784H25.1113V34.8127C25.1113 35.3647 24.6639 35.8132 24.112 35.8136C23.5597 35.8136 23.111 35.3649 23.111 34.8127V30.4784H21.0635C20.5114 30.4784 20.0628 30.031 20.0625 29.479C20.0625 28.9267 20.5112 28.478 21.0635 28.478H21.9196V24.1437C21.9197 20.8796 24.6582 18.1427 27.9222 18.1427ZM30.1536 24.1991C29.7632 23.8086 29.1298 23.8087 28.7393 24.1991L27.9222 25.0161L27.1051 24.1991C26.7146 23.8085 26.0813 23.8086 25.6908 24.1991C25.3002 24.5896 25.3002 25.2229 25.6908 25.6134L26.9212 26.8439V28.478H28.9215V26.8439L30.1536 25.6134C30.5439 25.2231 30.5436 24.5896 30.1536 24.1991Z" fill="#FAFAFA"/>
<path fill-rule="evenodd" clip-rule="evenodd" d="M18.2233 4.18604C21.9716 4.18611 25.3965 4.82346 27.9092 5.87874C29.1639 6.40577 30.222 7.05119 30.9772 7.80094C31.7348 8.5533 32.2223 9.45043 32.2223 10.4539V17.4217C30.9749 16.614 29.4963 16.1425 27.9222 16.1424C24.8722 16.1424 22.1809 17.9132 20.834 20.4686V20.4539C20.834 19.7545 20.2669 19.1879 19.5677 19.1877C18.8681 19.1877 18.2998 19.7543 18.2998 20.4539C18.3 21.1532 18.8682 21.7202 19.5677 21.7202C19.896 21.7201 20.1956 21.5949 20.4206 21.3898C20.0978 22.2511 19.9209 23.1795 19.9209 24.1437V26.009C19.3642 26.0381 18.7974 26.0529 18.2233 26.0529C15.0678 26.0529 12.3621 27.3172 10.4255 28.6082C9.46035 29.2517 8.69592 29.8961 8.17448 30.3774C7.91428 30.6176 7.71446 30.8162 7.58203 30.9536C7.51591 31.0222 7.46769 31.0765 7.43555 31.1115L7.39974 31.1489L7.3916 31.1587L7.38997 31.1603C7.20702 31.3685 6.91383 31.4418 6.6543 31.3442C6.39477 31.2466 6.22324 30.9982 6.22298 30.7209V20.7209C6.22298 20.5441 6.29328 20.3739 6.41829 20.2489C7.90424 18.7629 9.74616 17.6477 11.6738 16.8781C12.115 16.7025 12.0461 16.0569 11.5778 15.978L11.3467 15.939C10.3224 15.6876 9.37753 15.381 8.53581 15.0275C7.2814 14.5006 6.22278 13.8565 5.46777 13.1069C4.71021 12.3547 4.2228 11.4573 4.22266 10.4539V10.4507C4.22357 9.44833 4.71081 8.5526 5.46777 7.80094C6.22286 7.05117 7.28103 6.40579 8.53581 5.87874C11.0485 4.8234 14.4748 4.18604 18.2233 4.18604ZM11.2148 21.7039C10.5153 21.7039 9.94695 22.2708 9.94694 22.9702C9.94694 23.6698 10.5153 24.2365 11.2148 24.2365C11.9142 24.2362 12.4811 23.6697 12.4811 22.9702C12.4811 22.2709 11.9142 21.7042 11.2148 21.7039ZM15.2334 20.0129C14.5342 20.0131 13.9674 20.5799 13.9671 21.2791C13.9671 21.9785 14.534 22.5468 15.2334 22.547C15.933 22.547 16.4997 21.9786 16.4997 21.2791C16.4994 20.5797 15.9328 20.0129 15.2334 20.0129ZM18.2233 7.98812C16.5203 7.98812 14.9517 8.19426 13.7881 8.54313C13.2109 8.71624 12.6949 8.93503 12.3086 9.20882C11.9395 9.47044 11.5566 9.88217 11.5566 10.4539C11.5569 11.0254 11.9397 11.4359 12.3086 11.6974C12.695 11.9713 13.2106 12.1916 13.7881 12.3647C14.9517 12.7136 16.5203 12.9198 18.2233 12.9198C19.9261 12.9197 21.4935 12.7136 22.6569 12.3647C23.2343 12.1916 23.75 11.9713 24.1364 11.6974C24.5054 11.4359 24.8897 11.0254 24.89 10.4539C24.89 9.88217 24.5055 9.47044 24.1364 9.20882C23.7501 8.93504 23.2341 8.71622 22.6569 8.54313C21.4934 8.19431 19.9261 7.98817 18.2233 7.98812Z" fill="#FAFAFA"/>
<path d="M4.52865 14.0526C5.44471 14.9621 6.66798 15.6902 8.01986 16.258C8.34726 16.3955 8.68794 16.5254 9.04036 16.6486C7.80252 17.3324 6.58055 18.2019 5.47591 19.3065C5.10084 19.6815 4.88997 20.1905 4.88997 20.7209V21.9188C4.47229 21.3846 4.22266 20.7621 4.22266 20.0535V13.7287C4.32124 13.8403 4.42399 13.9486 4.52865 14.0526Z" fill="#FAFAFA"/>
</svg>
