<svg width="40" height="40" viewBox="0 0 40 40" fill="none" xmlns="http://www.w3.org/2000/svg">
<path fill-rule="evenodd" clip-rule="evenodd" d="M22.0459 5.30827C22.3938 4.71219 23.1587 4.51126 23.7549 4.85905C24.3509 5.20702 24.5519 5.97187 24.2041 6.56803L21.4453 11.2946L33.999 32.8132H35.625C36.3154 32.8132 36.875 33.3728 36.875 34.0632C36.8748 34.7534 36.3152 35.3132 35.625 35.3132H4.375C3.68475 35.3132 3.12518 34.7534 3.125 34.0632C3.125 33.3728 3.68464 32.8132 4.375 32.8132H6.00098L18.5531 11.2946L15.7959 6.56803C15.4481 5.97187 15.6491 5.20702 16.2451 4.85905C16.8413 4.51126 17.6062 4.71219 17.9541 5.30827L20 8.81413L22.0459 5.30827ZM15.0407 32.8132H24.9593L20 23.8337L15.0407 32.8132Z" fill="#FAFAFA"/>
</svg>
