<svg width="40" height="40" viewBox="0 0 40 40" fill="none" xmlns="http://www.w3.org/2000/svg">
<path fill-rule="evenodd" clip-rule="evenodd" d="M27.5391 7.08325C27.9772 7.08527 28.4099 7.18597 28.8037 7.37785C29.1951 7.56861 29.5372 7.84593 29.8079 8.18677L35.6071 15.4345C36.0187 15.9476 36.2462 16.585 36.25 17.2428V26.6666C36.25 27.4401 35.9425 28.1818 35.3955 28.7288C34.8485 29.2757 34.1069 29.5833 33.3333 29.5833H32.7409C32.6108 30.0411 32.4109 30.4787 32.1436 30.8788C31.64 31.6325 30.9253 32.2214 30.0879 32.5683C29.2506 32.9151 28.3287 33.0054 27.4398 32.8287C26.5507 32.6518 25.7338 32.2148 25.0928 31.5738C24.5383 31.0194 24.1369 30.3337 23.9242 29.5833H16.0742C15.9443 30.0413 15.7442 30.4787 15.4769 30.8788C14.9733 31.6325 14.2586 32.2214 13.4212 32.5683C12.5839 32.9151 11.662 33.0054 10.7731 32.8287C9.88403 32.6518 9.0671 32.2148 8.42611 31.5738C7.87182 31.0195 7.47039 30.3336 7.25749 29.5833H6.66667C5.89312 29.5833 5.15148 29.2757 4.60449 28.7288C4.05751 28.1818 3.75 27.4401 3.75 26.6666V9.99992C3.75 9.22637 4.05751 8.48473 4.60449 7.93774C5.15147 7.39076 5.89312 7.08325 6.66667 7.08325H27.5391ZM11.6667 26.2499C11.2546 26.2499 10.852 26.3726 10.5094 26.6015C10.1669 26.8304 9.89888 27.1551 9.74121 27.5357C9.58354 27.9164 9.54364 28.336 9.62402 28.7402C9.70448 29.1441 9.90246 29.515 10.1937 29.8062C10.4849 30.0975 10.8559 30.2954 11.2598 30.3759C11.6639 30.4563 12.0835 30.4164 12.4642 30.2587C12.8448 30.101 13.1695 29.833 13.3984 29.4905C13.6274 29.1479 13.75 28.7453 13.75 28.3333C13.75 27.7807 13.5303 27.251 13.1396 26.8603C12.7489 26.4696 12.2192 26.2499 11.6667 26.2499ZM28.3333 26.2499C27.9213 26.2499 27.5187 26.3726 27.1761 26.6015C26.8335 26.8304 26.5655 27.1551 26.4079 27.5357C26.2502 27.9164 26.2103 28.336 26.2907 28.7402C26.3711 29.1441 26.5691 29.515 26.8604 29.8062C27.1516 30.0975 27.5225 30.2954 27.9264 30.3759C28.3306 30.4563 28.7502 30.4164 29.1309 30.2587C29.5115 30.101 29.8362 29.8331 30.0651 29.4905C30.294 29.1479 30.4167 28.7453 30.4167 28.3333C30.4167 27.7807 30.197 27.251 29.8063 26.8603C29.4156 26.4696 28.8859 26.2499 28.3333 26.2499ZM20 13.7499C19.3096 13.7499 18.75 14.3096 18.75 14.9999V17.0833H16.6667C15.9763 17.0833 15.4167 17.6429 15.4167 18.3333C15.4167 19.0236 15.9763 19.5833 16.6667 19.5833H18.75V21.6666C18.75 22.3569 19.3096 22.9166 20 22.9166C20.6904 22.9166 21.25 22.3569 21.25 21.6666V19.5833H23.3333C24.0237 19.5833 24.5833 19.0236 24.5833 18.3333C24.5833 17.6429 24.0237 17.0833 23.3333 17.0833H21.25V14.9999C21.25 14.3096 20.6904 13.7499 20 13.7499Z" fill="#FAFAFA"/>
</svg>
