<svg width="40" height="40" viewBox="0 0 40 40" fill="none" xmlns="http://www.w3.org/2000/svg">
<path fill-rule="evenodd" clip-rule="evenodd" d="M32.084 4.58325C33.9249 4.58325 35.4173 6.07564 35.4173 7.91659V32.0833C35.4173 33.9242 33.9249 35.4166 32.084 35.4166H7.91732C6.07637 35.4166 4.58398 33.9242 4.58398 32.0833V7.91659C4.58398 6.07564 6.07637 4.58325 7.91732 4.58325H32.084ZM18.4349 10.4166C18.2435 10.4166 18.0249 10.4158 17.8359 10.4312C17.6832 10.4437 17.4891 10.4694 17.2809 10.5435L17.0693 10.6347C16.7859 10.7791 16.5417 10.9885 16.3564 11.2434L16.1921 11.512C16.0462 11.7982 16.0037 12.075 15.987 12.2786C15.9715 12.4676 15.9723 12.6876 15.9723 12.8792V15.9716H12.8799C12.6884 15.9716 12.4683 15.9708 12.2793 15.9862C12.1267 15.9987 11.9337 16.0262 11.7259 16.1002L11.5127 16.1913C11.2299 16.3356 10.9865 16.5441 10.8014 16.7984L10.6354 17.0686C10.4896 17.355 10.4486 17.6317 10.432 17.8352C10.4165 18.0241 10.4173 18.2428 10.4173 18.4342V21.5657C10.4173 21.7571 10.4165 21.9757 10.432 22.1646C10.4486 22.3681 10.4896 22.6448 10.6354 22.9312C10.8278 23.3087 11.1353 23.616 11.5127 23.8085C11.799 23.9544 12.0757 23.9969 12.2793 24.0136C12.4683 24.029 12.6884 24.0282 12.8799 24.0282H15.9723V27.1207C15.9723 27.3122 15.9715 27.5322 15.987 27.7213C16.0037 27.9248 16.0462 28.2016 16.1921 28.4879C16.3846 28.8653 16.6918 29.1728 17.0693 29.3652C17.3558 29.511 17.6324 29.552 17.8359 29.5686C18.0249 29.584 18.2435 29.5833 18.4349 29.5833H21.5664C21.7578 29.5833 21.9764 29.584 22.1654 29.5686C22.3689 29.552 22.6455 29.511 22.932 29.3652C23.3095 29.1728 23.6167 28.8653 23.8092 28.4879C23.9551 28.2016 23.9976 27.9248 24.0143 27.7213C24.0298 27.5322 24.029 27.3122 24.029 27.1207V24.0282H27.1214C27.3129 24.0282 27.533 24.029 27.722 24.0136C27.9256 23.9969 28.2023 23.9544 28.4886 23.8085C28.866 23.616 29.1735 23.3087 29.3659 22.9312C29.5117 22.6448 29.5527 22.3681 29.5693 22.1646C29.5848 21.9757 29.584 21.7571 29.584 21.5657V18.4342C29.584 18.2428 29.5848 18.0241 29.5693 17.8352C29.5569 17.6825 29.5311 17.4884 29.457 17.2802L29.3659 17.0686L29.1999 16.7984C29.0763 16.6287 28.927 16.4792 28.7572 16.3557L28.4886 16.1913L28.2754 16.1002C28.0676 16.0262 27.8746 15.9987 27.722 15.9862C27.533 15.9708 27.3129 15.9716 27.1214 15.9716H24.029V12.8792C24.029 12.6876 24.0298 12.4676 24.0143 12.2786C24.0018 12.126 23.9743 11.9329 23.9004 11.7252L23.8092 11.512L23.6449 11.2434C23.5214 11.0736 23.3719 10.9242 23.2021 10.8007L22.932 10.6347L22.7204 10.5435C22.5122 10.4694 22.3181 10.4437 22.1654 10.4312C21.9764 10.4158 21.7578 10.4166 21.5664 10.4166H18.4349Z" fill="#FAFAFA"/>
</svg>
