<svg width="40" height="40" viewBox="0 0 40 40" fill="none" xmlns="http://www.w3.org/2000/svg">
<path fill-rule="evenodd" clip-rule="evenodd" d="M20 5C14.831 5 10.4549 6.34178 7.34834 8.94412C4.21515 11.5688 2.49999 15.3721 2.49999 20C2.49999 24.6279 4.21515 28.4312 7.34834 31.0559C10.4549 33.6582 14.831 35 20 35C22.8221 35 25.9507 34.7293 28.7227 33.4635C28.7599 33.4854 28.7986 33.5079 28.8387 33.5308C29.3036 33.7969 29.9667 34.1325 30.7613 34.4095C32.3306 34.9565 34.5657 35.324 36.7872 34.2667C37.1263 34.1053 37.3748 33.8 37.4641 33.4352C37.5534 33.0704 37.474 32.6849 37.2478 32.3851C34.8434 29.1986 35.5573 27.2508 35.5873 27.1691C35.5873 27.1691 35.5896 27.1628 35.5968 27.1457L35.6104 27.1136L35.6302 27.0664C35.7569 26.7614 36.2151 25.6355 36.6437 24.2923C37.0596 22.9889 37.5 21.3249 37.5 20C37.5 15.3721 35.7848 11.5688 32.6516 8.94412C29.5451 6.34178 25.169 5 20 5ZM29.1667 20C29.1667 20.9205 28.4205 21.6667 27.5 21.6667C26.5795 21.6667 25.8333 20.9205 25.8333 20C25.8333 19.0795 26.5795 18.3333 27.5 18.3333C28.4205 18.3333 29.1667 19.0795 29.1667 20ZM21.6667 20C21.6667 20.9205 20.9205 21.6667 20 21.6667C19.0795 21.6667 18.3333 20.9205 18.3333 20C18.3333 19.0795 19.0795 18.3333 20 18.3333C20.9205 18.3333 21.6667 19.0795 21.6667 20ZM12.5 21.6667C13.4205 21.6667 14.1667 20.9205 14.1667 20C14.1667 19.0795 13.4205 18.3333 12.5 18.3333C11.5795 18.3333 10.8333 19.0795 10.8333 20C10.8333 20.9205 11.5795 21.6667 12.5 21.6667Z" fill="#FAFAFA"/>
</svg>
