<svg width="40" height="40" viewBox="0 0 40 40" fill="none" xmlns="http://www.w3.org/2000/svg">
<path d="M28.4678 35C29.3579 35 30.101 34.9998 30.708 34.9502C31.341 34.8985 31.9351 34.7863 32.4971 34.5C33.3595 34.0606 34.0606 33.3595 34.5 32.4971C34.7863 31.9351 34.8985 31.341 34.9502 30.708C34.9998 30.101 35 29.3579 35 28.4678V17.917C35 17.2266 34.4404 16.667 33.75 16.667C33.0596 16.667 32.5 17.2266 32.5 17.917V28.417C32.5 29.3707 32.4992 30.0109 32.459 30.5039C32.4199 30.9824 32.3494 31.2114 32.2725 31.3623C32.0727 31.7543 31.7543 32.0727 31.3623 32.2725C31.2114 32.3494 30.9824 32.4199 30.5039 32.459C30.0109 32.4992 29.3707 32.5 28.417 32.5H11.583C10.6293 32.5 9.98913 32.4992 9.49609 32.459C9.01756 32.4199 8.78863 32.3494 8.6377 32.2725C8.24573 32.0727 7.92727 31.7543 7.72754 31.3623C7.65063 31.2114 7.58011 30.9824 7.54102 30.5039C7.50076 30.0109 7.5 29.3707 7.5 28.417V11.583C7.5 10.6293 7.50076 9.98913 7.54102 9.49609C7.58011 9.01756 7.65063 8.78863 7.72754 8.6377C7.92727 8.24573 8.24573 7.92727 8.6377 7.72754C8.78863 7.65063 9.01755 7.58011 9.49609 7.54102C9.98913 7.50076 10.6293 7.5 11.583 7.5H22.083C22.7734 7.5 23.333 6.94036 23.333 6.25C23.333 5.55964 22.7734 5 22.083 5H11.5322C10.6421 4.99998 9.89896 5.00021 9.29199 5.0498C8.65899 5.10154 8.06492 5.21367 7.50293 5.5C6.64052 5.93942 5.93942 6.64052 5.5 7.50293C5.21368 8.06492 5.10154 8.65899 5.04981 9.29199C5.00021 9.89896 4.99998 10.6421 5 11.5322V28.4678C4.99998 29.3579 5.00021 30.101 5.04981 30.708C5.10154 31.341 5.21368 31.9351 5.5 32.4971C5.93942 33.3595 6.64052 34.0606 7.50293 34.5C8.06493 34.7863 8.65899 34.8985 9.29199 34.9502C9.89896 34.9998 10.6421 35 11.5322 35H28.4678Z" fill="#FAFAFA"/>
<path d="M14.3594 25.6787C14.8475 26.1666 15.6389 26.1668 16.127 25.6787L23.9951 17.7783L28.1006 21.8828C28.4581 22.2401 28.9959 22.3477 29.4629 22.1543C29.9298 21.9608 30.2343 21.5044 30.2344 20.999L30.2324 11.0635C30.2497 10.7225 30.1285 10.3757 29.8682 10.1152C29.6078 9.85486 29.2609 9.73374 28.9199 9.75098L18.9844 9.74902C18.4788 9.74902 18.0216 10.0535 17.8281 10.5205C17.6349 10.9875 17.7432 11.5254 18.1006 11.8828L22.2275 16.0107L14.3594 23.9111C13.8712 24.3993 13.8712 25.1906 14.3594 25.6787Z" fill="#FAFAFA"/>
</svg>
