<svg width="40" height="40" viewBox="0 0 40 40" fill="none" xmlns="http://www.w3.org/2000/svg">
<path d="M33.7497 5.00293C34.44 5.00293 34.9997 5.56257 34.9997 6.25293V18.4762C34.9997 19.1666 34.44 19.7262 33.7497 19.7262C33.0593 19.7262 32.4997 19.1666 32.4997 18.4762V9.26562L15.7337 26.0299C16.278 26.8805 16.5995 27.8607 16.6501 28.8799L16.6566 29.1696C16.6565 30.7154 16.0422 32.1977 14.9492 33.2907C13.8562 34.3837 12.3739 34.9979 10.8281 34.998L10.5384 34.9915C9.09781 34.92 7.73016 34.3154 6.7054 33.2907C5.61262 32.1977 4.99816 30.7152 4.99805 29.1696C4.99805 27.6237 5.61228 26.14 6.7054 25.0469C7.73015 24.0221 9.09783 23.4192 10.5384 23.3477L10.8281 23.3395C11.9499 23.3396 13.0372 23.6654 13.9678 24.2607L30.7272 7.50293H21.5264L21.3978 7.49642C20.7677 7.43247 20.2768 6.89981 20.2764 6.25293C20.2764 5.60569 20.7674 5.07178 21.3978 5.00781L21.5264 5.00293H33.7497Z" fill="#FAFAFA"/>
</svg>
