<svg width="40" height="40" viewBox="0 0 40 40" fill="none" xmlns="http://www.w3.org/2000/svg">
<path d="M17.0001 21.8401C16.9139 21.84 16.8311 21.8733 16.769 21.933C16.7068 21.9926 16.6702 22.074 16.6667 22.1601V25.4934C16.6667 26.0239 16.8775 26.5326 17.2525 26.9076C17.6276 27.2827 18.1363 27.4934 18.6667 27.4934V34.1601C18.6667 34.5137 18.8072 34.8529 19.0573 35.1029C19.3073 35.353 19.6465 35.4934 20.0001 35.4934C20.3537 35.4934 20.6928 35.353 20.9429 35.1029C21.1929 34.8529 21.3334 34.5137 21.3334 34.1601V27.4934C21.8638 27.4934 22.3726 27.2827 22.7476 26.9076C23.1227 26.5326 23.3334 26.0239 23.3334 25.4934V22.1601C23.33 22.074 23.2933 21.9926 23.2312 21.933C23.1691 21.8733 23.0862 21.84 23.0001 21.8401H17.0001Z" fill="#FAFAFA"/>
<path d="M27.0001 9.33343V11.1734C27.0035 11.2595 27.0402 11.3409 27.1023 11.4006C27.1644 11.4602 27.2473 11.4935 27.3334 11.4934H32.0001C32.5305 11.4934 33.0392 11.2827 33.4143 10.9076C33.7894 10.5326 34.0001 10.0239 34.0001 9.49343C34.0001 8.963 33.7894 8.45429 33.4143 8.07922C33.0392 7.70415 32.5305 7.49343 32.0001 7.49343H27.1867C27.1352 7.49442 27.0845 7.5069 27.0383 7.52997C26.9922 7.55304 26.9518 7.58611 26.9201 7.62677C26.8639 7.7086 26.8401 7.8084 26.8534 7.90677C26.9542 8.37555 27.0034 8.85395 27.0001 9.33343Z" fill="#FAFAFA"/>
<path d="M13.0001 9.33343C13.0034 8.88515 13.0525 8.43838 13.1467 8.0001C13.1594 7.95154 13.1599 7.90061 13.1483 7.85179C13.1367 7.80298 13.1133 7.75776 13.0801 7.7201C13.0498 7.68112 13.0115 7.64906 12.9678 7.62606C12.9241 7.60307 12.876 7.58967 12.8267 7.58677H8.00008C7.46965 7.58677 6.96094 7.79748 6.58587 8.17255C6.2108 8.54763 6.00008 9.05633 6.00008 9.58677C6.00008 10.1172 6.2108 10.6259 6.58587 11.001C6.96094 11.3761 7.46965 11.5868 8.00008 11.5868H12.6667C12.7529 11.5868 12.8357 11.5536 12.8979 11.4939C12.96 11.4342 12.9966 11.3528 13.0001 11.2668V9.33343Z" fill="#FAFAFA"/>
<path d="M33.4001 27.7201C33.1061 27.5271 32.7478 27.4581 32.4032 27.528C32.0586 27.5979 31.7556 27.8012 31.5601 28.0934L30.0001 30.4268L28.8134 28.6534C28.6498 28.4114 28.4293 28.2133 28.1712 28.0763C27.9132 27.9393 27.6255 27.8677 27.3334 27.8677C27.0413 27.8677 26.7536 27.9393 26.4956 28.0763C26.2376 28.2133 26.0171 28.4114 25.8534 28.6534L23.5601 32.0934C23.4511 32.2383 23.3728 32.404 23.33 32.5802C23.2872 32.7564 23.2808 32.9394 23.3111 33.1182C23.3415 33.297 23.408 33.4676 23.5066 33.6198C23.6052 33.772 23.7338 33.9025 23.8845 34.0033C24.0352 34.1041 24.2049 34.173 24.3832 34.206C24.5615 34.239 24.7447 34.2352 24.9215 34.195C25.0983 34.1548 25.265 34.0789 25.4115 33.972C25.558 33.8651 25.6811 33.7295 25.7734 33.5734L27.3334 31.2401L28.5201 33.0134C28.6837 33.2554 28.9042 33.4536 29.1622 33.5906C29.4203 33.7276 29.7079 33.7992 30.0001 33.7992C30.2922 33.7992 30.5799 33.7276 30.8379 33.5906C31.0959 33.4536 31.3164 33.2554 31.4801 33.0134L33.7734 29.5734C33.871 29.4274 33.9389 29.2635 33.9729 29.0911C34.007 28.9188 34.0067 28.7414 33.972 28.5692C33.9373 28.3969 33.8689 28.2333 33.7708 28.0876C33.6726 27.9418 33.5466 27.817 33.4001 27.7201Z" fill="#FAFAFA"/>
<path d="M14.1467 28.6534C13.9831 28.4114 13.7626 28.2133 13.5046 28.0763C13.2466 27.9393 12.9589 27.8677 12.6667 27.8677C12.3746 27.8677 12.0869 27.9393 11.8289 28.0763C11.5709 28.2133 11.3504 28.4114 11.1867 28.6534L10.0001 30.4268L8.44008 28.0934C8.34781 27.9373 8.22466 27.8017 8.07819 27.6949C7.93171 27.588 7.76497 27.5121 7.58816 27.4719C7.41136 27.4316 7.22821 27.4279 7.04991 27.4609C6.87161 27.4938 6.70191 27.5628 6.55118 27.6636C6.40045 27.7644 6.27186 27.8949 6.17328 28.047C6.07469 28.1992 6.00818 28.3699 5.97782 28.5487C5.94745 28.7274 5.95386 28.9105 5.99666 29.0867C6.03947 29.2629 6.11776 29.4285 6.22675 29.5734L8.52008 33.0134C8.68374 33.2554 8.90423 33.4536 9.16225 33.5906C9.42027 33.7276 9.70795 33.7992 10.0001 33.7992C10.2922 33.7992 10.5799 33.7276 10.8379 33.5906C11.0959 33.4536 11.3164 33.2554 11.4801 33.0134L12.6667 31.2401L14.2267 33.5734C14.319 33.7295 14.4422 33.8651 14.5886 33.972C14.7351 34.0789 14.9019 34.1548 15.0787 34.195C15.2555 34.2352 15.4386 34.239 15.6169 34.206C15.7952 34.173 15.9649 34.1041 16.1157 34.0033C16.2664 33.9025 16.395 33.772 16.4936 33.6198C16.5921 33.4676 16.6587 33.297 16.689 33.1182C16.7194 32.9394 16.713 32.7564 16.6702 32.5802C16.6274 32.404 16.5491 32.2383 16.4401 32.0934L14.1467 28.6534Z" fill="#FAFAFA"/>
<path fill-rule="evenodd" clip-rule="evenodd" d="M20.0003 4.50605C20.6461 4.49192 21.2884 4.60607 21.89 4.84134C22.4917 5.07675 23.0413 5.42939 23.5062 5.87812C23.971 6.32686 24.3418 6.86388 24.5983 7.4569C24.8547 8.04984 24.9917 8.68757 25.0003 9.33353V19.493C25.0004 19.5825 24.9662 19.6693 24.9043 19.7339C24.8421 19.7986 24.7563 19.8363 24.6667 19.8397L15.334 19.8934C15.2444 19.89 15.1585 19.8523 15.0964 19.7876C15.0343 19.723 15.0003 19.6363 15.0003 19.5467V9.33353C15.009 8.68757 15.1459 8.04984 15.4023 7.4569C15.6588 6.86388 16.0296 6.32686 16.4945 5.87812C16.9593 5.42939 17.509 5.07675 18.1107 4.84134C18.7122 4.60607 19.3546 4.49192 20.0003 4.50605ZM18 13.7492C17.3099 13.7492 16.7504 14.3092 16.75 14.9992C16.75 15.6896 17.3096 16.2492 18 16.2492H22.0007C22.6907 16.2489 23.2507 15.6894 23.2507 14.9992C23.2502 14.3094 22.6905 13.7496 22.0007 13.7492H18ZM18 9.75019C17.3096 9.75019 16.75 10.3098 16.75 11.0002C16.75 11.6905 17.3097 12.2502 18 12.2502H22.0007C22.6907 12.2498 23.2506 11.6903 23.2507 11.0002C23.2507 10.3101 22.6907 9.75054 22.0007 9.75019H18Z" fill="#FAFAFA"/>
</svg>
