<svg width="40" height="40" viewBox="0 0 40 40" fill="none" xmlns="http://www.w3.org/2000/svg">
<path fill-rule="evenodd" clip-rule="evenodd" d="M17.9163 3.33325C16.3055 3.33325 14.9997 4.63909 14.9997 6.24992V8.08696C11.8863 9.39506 9.39482 11.8865 8.08671 14.9999H6.24967C4.63884 14.9999 3.33301 16.3058 3.33301 17.9166V22.0833C3.33301 23.6941 4.63884 24.9999 6.24967 24.9999H8.08671C9.39482 28.1133 11.8863 30.6048 14.9997 31.9129V33.7499C14.9997 35.3607 16.3055 36.6666 17.9163 36.6666H22.083C23.6938 36.6666 24.9997 35.3607 24.9997 33.7499V31.9129C28.1131 30.6048 30.6045 28.1133 31.9126 24.9999H33.7497C35.3605 24.9999 36.6663 23.6941 36.6663 22.0833V17.9166C36.6663 16.3058 35.3605 14.9999 33.7497 14.9999H31.9126C30.6045 11.8865 28.1131 9.39506 24.9997 8.08696V6.24992C24.9997 4.63909 23.6938 3.33325 22.083 3.33325H17.9163ZM10.8421 15.0308C11.8037 13.263 13.2627 11.8039 15.0305 10.8424C15.2366 12.2514 16.4501 13.3333 17.9163 13.3333H22.083C23.5492 13.3333 24.7627 12.2514 24.9688 10.8424C26.7366 11.8039 28.1957 13.263 29.1572 15.0308C27.7482 15.2369 26.6663 16.4504 26.6663 17.9166V22.0833C26.6663 23.5495 27.7482 24.763 29.1572 24.9691C28.1957 26.7369 26.7366 28.1959 24.9688 29.1575C24.7627 27.7485 23.5492 26.6666 22.083 26.6666H17.9163C16.4501 26.6666 15.2366 27.7485 15.0305 29.1575C13.2627 28.1959 11.8037 26.7369 10.8421 24.9691C12.2511 24.763 13.333 23.5495 13.333 22.0833V17.9166C13.333 16.4504 12.2511 15.2369 10.8421 15.0308Z" fill="#FAFAFA"/>
</svg>
