<svg width="40" height="40" viewBox="0 0 40 40" fill="none" xmlns="http://www.w3.org/2000/svg">
<path d="M19.4648 2.67871C20.1552 2.67871 20.7148 3.23835 20.7148 3.92871V5.82487C23.5726 6.11332 26.2586 7.38401 28.306 9.44141C30.6491 11.7963 31.9646 14.9892 31.9648 18.3167V20.3724C31.9648 21.0628 31.4052 21.6224 30.7148 21.6224H24.8066V25.5107C24.8066 26.2008 24.2466 26.7603 23.5566 26.7607C22.8663 26.7607 22.3066 26.2011 22.3066 25.5107V21.6224H20.7148V33.512H24.5788C25.2689 33.5124 25.8288 34.0719 25.8288 34.762C25.8288 35.4522 25.2689 36.0117 24.5788 36.012H14.3509C13.6606 36.012 13.1009 35.4524 13.1009 34.762C13.1009 34.0717 13.6606 33.512 14.3509 33.512H18.2148V21.6224H8.21484C7.52449 21.6224 6.96484 21.0628 6.96484 20.3724V18.3167C6.96507 14.9892 8.28055 11.7963 10.6237 9.44141C12.6711 7.38401 15.3571 6.11332 18.2148 5.82487V3.92871C18.2148 3.23835 18.7745 2.67871 19.4648 2.67871Z" fill="#FAFAFA"/>
</svg>
