<svg width="40" height="40" viewBox="0 0 40 40" fill="none" xmlns="http://www.w3.org/2000/svg">
<path fill-rule="evenodd" clip-rule="evenodd" d="M20.3955 4.0332C21.317 4.07855 22.2249 4.28196 23.0791 4.63574C24.0554 5.04014 24.9432 5.63266 25.6904 6.37988C26.4376 7.1271 27.0302 8.01492 27.4346 8.99121C27.8389 9.96741 28.0469 11.0137 28.0469 12.0703V16.4873C29.2372 16.5173 30.3717 17.0026 31.2158 17.8467C32.0876 18.7184 32.5781 19.9 32.5781 21.1328V31.3281C32.5781 32.561 32.0876 33.7425 31.2158 34.6143C30.3441 35.486 29.1625 35.9766 27.9297 35.9766H12.0703C10.8375 35.9766 9.65593 35.486 8.78418 34.6143C8.02129 33.8514 7.54991 32.8514 7.44434 31.7871L7.42188 31.3281V21.1328C7.42188 19.9 7.91243 18.7184 8.78418 17.8467C9.62826 17.0026 10.7628 16.5173 11.9531 16.4873V12.0703C11.9531 11.0137 12.1611 9.96741 12.5654 8.99121C12.9698 8.01492 13.5623 7.1271 14.3096 6.37988C15.0568 5.63266 15.9446 5.04014 16.9209 4.63574C17.8971 4.23144 18.9434 4.02344 20 4.02344L20.3955 4.0332ZM20 6.52344C19.2718 6.52344 18.5507 6.66674 17.8779 6.94531C17.205 7.22407 16.5922 7.63239 16.0771 8.14746C15.5621 8.66254 15.1538 9.27526 14.875 9.94824C14.5964 10.621 14.4531 11.3421 14.4531 12.0703V16.25H25.5469V12.0703L25.54 11.7969C25.5087 11.1621 25.3687 10.5367 25.125 9.94824C24.8462 9.27527 24.4379 8.66254 23.9229 8.14746C23.4078 7.63239 22.795 7.22407 22.1221 6.94531C21.5336 6.70166 20.9082 6.5616 20.2734 6.53027L20 6.52344Z" fill="#FAFAFA"/>
</svg>
