<svg width="48" height="48" viewBox="0 0 48 48" fill="none" xmlns="http://www.w3.org/2000/svg">
<path fill-rule="evenodd" clip-rule="evenodd" d="M36.0331 23.9648C37.2647 23.9651 38.4454 24.4781 39.3163 25.3906C40.1874 26.3034 40.6776 27.5412 40.6776 28.832V31.2656C41.2935 31.2657 41.8847 31.5222 42.3202 31.9785C42.7555 32.4348 42.9998 33.054 42.9999 33.6992V38.5664C42.9999 39.2116 42.7554 39.8308 42.3202 40.2871C41.8847 40.7434 41.2935 40.9999 40.6776 41H31.3866C30.771 40.9998 30.1813 40.7432 29.746 40.2871C29.3104 39.8307 29.0643 39.2118 29.0643 38.5664V33.6992C29.0644 33.0538 29.3105 32.4349 29.746 31.9785C30.1813 31.5226 30.7711 31.2658 31.3866 31.2656V28.832C31.3866 27.5412 31.8769 26.3034 32.7479 25.3906C33.619 24.4778 34.8012 23.9648 36.0331 23.9648ZM36.0331 26.3984C35.4172 26.3984 34.826 26.6551 34.3905 27.1113C33.955 27.5677 33.7089 28.1866 33.7089 28.832V31.2656H38.3554V28.832C38.3553 28.1866 38.1092 27.5677 37.6737 27.1113C37.2384 26.6554 36.6486 26.3987 36.0331 26.3984Z" fill="#FAFAFA"/>
<path d="M22.6366 12.3789C23.3957 11.6107 24.628 11.5841 25.4198 12.3184L32.1249 18.5391C33.3886 19.7118 32.6709 22.1954 31.4081 23.3691C31.149 23.6099 30.9061 23.8723 30.6815 24.1543C29.7591 25.3131 29.207 26.7349 29.0878 28.2188C29.0266 28.9805 28.6449 29.6914 28.1151 30.2422C27.8274 30.5414 27.5765 30.8797 27.371 31.25C26.9585 31.9934 26.7418 32.8393 26.7421 33.6992V36.5664C26.7418 37.6707 25.8465 38.5664 24.7421 38.5664H13.9686C13.0447 38.5664 12.1591 38.1807 11.5057 37.4961C10.8526 36.8116 10.4844 35.884 10.4843 34.916V25.498C10.4844 24.9719 10.6926 24.4661 11.0624 24.0918L22.6366 12.3789Z" fill="#FAFAFA"/>
<path d="M36.1542 5.50781C36.9101 5.58511 37.4999 6.22371 37.4999 7V17.3789L42.0604 21.9395L42.1639 22.0527C42.6445 22.6419 42.6096 23.5114 42.0604 24.0605C41.5112 24.6097 40.6418 24.6446 40.0526 24.1641L39.9393 24.0605L25.7675 9.88867C24.8522 8.97375 23.4036 8.91623 22.4218 9.7168L22.2323 9.88867L7.06043 25.0605C6.47467 25.6463 5.52513 25.6463 4.93934 25.0605C4.35355 24.4748 4.35355 23.5252 4.93934 22.9395L20.1112 7.76758L20.5292 7.39062C22.6893 5.629 25.875 5.75431 27.8886 7.76758L29.4999 9.37891V7L29.5077 6.8457C29.5849 6.08977 30.2236 5.5 30.9999 5.5H35.9999L36.1542 5.50781Z" fill="#FAFAFA"/>
</svg>
