<svg width="48" height="48" viewBox="0 0 48 48" fill="none" xmlns="http://www.w3.org/2000/svg">
<path d="M5.73443 25.5179C6.3107 25.6092 6.80661 26.0353 6.95709 26.637L8.57818 33.1214C8.63399 33.3437 8.83528 33.5003 9.06451 33.5003H12.502C15.5387 33.5013 18.0019 35.9634 18.002 39.0003V42.0003C18.0019 42.8281 17.3296 43.4993 16.502 43.5003C15.6737 43.5003 15.0021 42.8286 15.002 42.0003V39.0003C15.0019 37.6203 13.8818 36.5013 12.502 36.5003H11.502C10.1214 36.5003 9.00213 37.6197 9.00201 39.0003V42.0003C9.00191 42.8281 8.32956 43.4993 7.50201 43.5003C6.67369 43.5003 6.00211 42.8286 6.00201 42.0003V35.2464C6.00198 35.2058 5.9962 35.1647 5.98639 35.1253L4.04693 27.3636C3.84639 26.5601 4.33526 25.7461 5.13873 25.5452C5.18829 25.5329 5.23964 25.5231 5.28912 25.5159C5.43935 25.4944 5.59033 25.4952 5.73443 25.5179Z" fill="#FAFAFA"/>
<path fill-rule="evenodd" clip-rule="evenodd" d="M20.8458 6.37725C22.7393 5.05192 25.2607 5.05205 27.1544 6.37725L39.6622 15.1331C42.4646 17.0956 41.0757 21.4998 37.6544 21.5003H25.4083C25.4639 21.6571 25.5001 21.8244 25.5001 22.0003V42.0003C25.4997 42.8282 24.828 43.5 24.0001 43.5003C23.1723 43.4997 22.5004 42.8281 22.5001 42.0003V22.0003C22.5001 21.8243 22.5381 21.6572 22.5938 21.5003H10.3458C6.92487 21.4994 5.53599 17.0956 8.33795 15.1331L20.8458 6.37725Z" fill="#FAFAFA"/>
<path d="M42.7129 25.5159C42.7624 25.5231 42.8138 25.5329 42.8633 25.5452C43.6663 25.7465 44.1556 26.5604 43.9551 27.3636L42.0157 35.1253C42.0058 35.1648 42.0001 35.2057 42.0001 35.2464V42.0003C42 42.8283 41.328 43.4998 40.5001 43.5003C39.6721 43.4998 39.0002 42.8283 39.0001 42.0003V39.0003C38.9999 37.6201 37.8802 36.5008 36.5001 36.5003H35.5001C34.1199 36.5008 33.0002 37.62 33.0001 39.0003V42.0003C33 42.8283 32.328 43.4998 31.5001 43.5003C30.6721 43.4998 30.0002 42.8283 30.0001 42.0003V39.0003C30.0002 35.9632 32.463 33.5008 35.5001 33.5003H38.9376C39.1666 33.4999 39.3683 33.3437 39.4239 33.1214L41.045 26.637C41.1956 26.035 41.691 25.6089 42.2676 25.5179C42.4117 25.4953 42.5627 25.4943 42.7129 25.5159Z" fill="#FAFAFA"/>
</svg>
