<svg width="48" height="48" viewBox="0 0 48 48" fill="none" xmlns="http://www.w3.org/2000/svg">
<path d="M4 10.4336V5.5L4.00781 5.3457C4.08506 4.58976 4.72367 4 5.5 4H10.7852C11.6136 4 12.2852 4.67157 12.2852 5.5C12.2852 6.32843 11.6136 7 10.7852 7H7V10.4336L6.99219 10.5859C6.91572 11.3427 6.27691 11.9336 5.5 11.9336C4.72309 11.9336 4.08428 11.3427 4.00781 10.5859L4 10.4336Z" fill="#FAFAFA"/>
<path d="M40.9994 10.4336V7H37.2143C36.3858 7 35.7143 6.32843 35.7143 5.5C35.7143 4.67157 36.3858 4 37.2143 4H42.4994C43.3278 4 43.9994 4.67157 43.9994 5.5V10.4336C43.9993 11.2619 43.3278 11.9336 42.4994 11.9336C41.6713 11.9333 40.9996 11.2617 40.9994 10.4336Z" fill="#FAFAFA"/>
<path d="M4 37.5667C4 36.7382 4.67157 36.0667 5.5 36.0667C6.32843 36.0667 7 36.7382 7 37.5667V41.0003H10.7852C11.6136 41.0003 12.2852 41.6718 12.2852 42.5003C12.285 43.3286 11.6135 44.0003 10.7852 44.0003H5.5C4.67166 44.0003 4.00014 43.3286 4 42.5003V37.5667Z" fill="#FAFAFA"/>
<path d="M40.9994 37.5667C40.9994 36.7384 41.6713 36.067 42.4994 36.0667C43.3278 36.0667 43.9994 36.7382 43.9994 37.5667V42.5002C43.9993 43.3286 43.3278 44.0002 42.4994 44.0002H37.2143C36.3859 44.0002 35.7144 43.3286 35.7143 42.5002C35.7143 41.6718 36.3858 41.0002 37.2143 41.0002H40.9994V37.5667Z" fill="#FAFAFA"/>
<path fill-rule="evenodd" clip-rule="evenodd" d="M37.0194 12.5019C37.0521 12.503 37.0941 12.5044 37.1424 12.5078C37.2382 12.5147 37.3651 12.528 37.5135 12.5527C37.8042 12.6012 38.2156 12.6997 38.6444 12.9141C39.079 13.1314 39.5593 13.4828 39.9276 14.0351C40.3016 14.5966 40.4997 15.2776 40.4998 16.0527V31.9766C40.4996 31.9887 40.4984 32.0032 40.4979 32.0195C40.4968 32.0523 40.4955 32.0943 40.492 32.1426C40.4851 32.2384 40.4718 32.3653 40.4471 32.5137C40.3986 32.8044 40.3001 33.2158 40.0858 33.6445C39.8685 34.0791 39.517 34.5595 38.9647 34.9277C38.4032 35.3017 37.7222 35.4999 36.9471 35.5H11.0233C11.0111 35.4998 10.9966 35.4986 10.9803 35.498C10.9476 35.4969 10.9055 35.4956 10.8572 35.4922C10.7614 35.4853 10.6345 35.472 10.4861 35.4473C10.1954 35.3988 9.784 35.3003 9.35529 35.0859C8.92068 34.8686 8.44032 34.5172 8.07209 33.9648C7.69807 33.4034 7.49992 32.7224 7.49982 31.9473V16.0234C7.50002 16.0113 7.50123 15.9968 7.50177 15.9805C7.50287 15.9477 7.50419 15.9057 7.50763 15.8574C7.5145 15.7616 7.52785 15.6347 7.55256 15.4863C7.60101 15.1956 7.69954 14.7842 7.91388 14.3555C8.13119 13.9209 8.48263 13.4405 9.03498 13.0723C9.59641 12.6982 10.2774 12.5001 11.0526 12.5H36.9764C36.9885 12.5002 37.003 12.5014 37.0194 12.5019ZM13.9998 17.5C13.1714 17.5 12.4998 18.1716 12.4998 19V29C12.4998 29.8284 13.1714 30.5 13.9998 30.5C14.8282 30.5 15.4998 29.8284 15.4998 29V19C15.4998 18.1716 14.8282 17.5 13.9998 17.5ZM18.9998 27.5C18.1714 27.5 17.4998 28.1716 17.4998 29C17.4998 29.8284 18.1714 30.5 18.9998 30.5H28.9998C29.8282 30.5 30.4998 29.8284 30.4998 29C30.4998 28.1716 29.8282 27.5 28.9998 27.5H18.9998ZM33.9998 17.5C33.1714 17.5 32.4998 18.1716 32.4998 19V29C32.4998 29.8284 33.1714 30.5 33.9998 30.5C34.828 30.4997 35.4998 29.8283 35.4998 29V19C35.4998 18.1717 34.828 17.5003 33.9998 17.5ZM18.9998 17.5C18.1714 17.5 17.4998 18.1716 17.4998 19V25C17.4998 25.8284 18.1714 26.5 18.9998 26.5C19.8282 26.5 20.4998 25.8284 20.4998 25V19C20.4998 18.1716 19.8282 17.5 18.9998 17.5ZM23.9998 17.5C23.1714 17.5 22.4998 18.1716 22.4998 19V25C22.4998 25.8284 23.1714 26.5 23.9998 26.5C24.8282 26.5 25.4998 25.8284 25.4998 25V19C25.4998 18.1716 24.8282 17.5 23.9998 17.5ZM28.9998 17.5C28.1714 17.5 27.4998 18.1716 27.4998 19V25C27.4998 25.8284 28.1714 26.5 28.9998 26.5C29.828 26.4997 30.4998 25.8283 30.4998 25V19C30.4998 18.1717 29.828 17.5003 28.9998 17.5Z" fill="#FAFAFA"/>
</svg>
