<svg width="48" height="48" viewBox="0 0 48 48" fill="none" xmlns="http://www.w3.org/2000/svg">
<path d="M33.307 38.9669C35.7374 37.4996 38.7502 37.3789 41.2894 38.6485L44.3031 40.1563C45.0435 40.527 45.3432 41.4274 44.973 42.168C44.6025 42.9088 43.7022 43.2084 42.9613 42.838L39.9476 41.3321C38.3285 40.5225 36.4076 40.5997 34.8578 41.5352L34.6859 41.6387C32.138 43.1771 28.9433 43.1635 26.4086 41.6036C24.8667 40.6548 22.9297 40.6234 21.3578 41.5216L21.0316 41.7071C18.4197 43.1997 15.2075 43.1744 12.6195 41.6407C10.9641 40.6599 8.90966 40.6414 7.23669 41.5919L5.10779 42.8009C4.38758 43.2098 3.47205 42.9585 3.06287 42.2384C2.65376 41.5181 2.90711 40.6027 3.62732 40.1934L5.75427 38.9845C8.36337 37.502 11.5672 37.5308 14.1488 39.0606C15.8082 40.044 17.8685 40.0605 19.5433 39.1036L19.8695 38.9161C22.394 37.4737 25.5047 37.525 27.9808 39.0489C29.5591 40.0202 31.5487 40.0283 33.1351 39.0704L33.307 38.9669Z" fill="#FAFAFA"/>
<path fill-rule="evenodd" clip-rule="evenodd" d="M19.7445 5.00398C20.3994 5.0086 21.0276 5.26311 21.6176 5.50203L40.9164 13.254C41.6689 13.5565 42.0403 14.4177 41.7445 15.1759C41.4482 15.9331 40.5982 16.3021 39.8461 16.0001L37.4691 15.045L41.1254 29.7071C41.1803 29.7331 41.235 29.76 41.2894 29.7872L44.3031 31.295C45.0435 31.6657 45.3434 32.566 44.973 33.3067C44.6022 34.0469 43.7019 34.3468 42.9613 33.9766L39.9476 32.4708C38.3284 31.6612 36.4076 31.7382 34.8578 32.6739L34.6859 32.7774C32.1382 34.3154 28.9431 34.3019 26.4086 32.7423C24.8667 31.7934 22.9297 31.762 21.3578 32.6602L21.0316 32.8458C18.4199 34.338 15.2073 34.3128 12.6195 32.7794C10.9641 31.7985 8.9097 31.7799 7.23669 32.7305L5.10779 33.9395C4.38785 34.3479 3.4721 34.0966 3.06287 33.377C2.65378 32.657 2.90751 31.7415 3.62732 31.3321L5.75427 30.1231C6.70934 29.5804 7.74445 29.2398 8.79919 29.1016L7.1781 22.5977L5.52771 24.5567C5.00514 25.1765 4.08028 25.2489 3.46326 24.7188C2.84679 24.1883 2.77132 23.255 3.29333 22.6348L16.5883 6.85359L16.6918 6.72859C17.1005 6.24064 17.5375 5.72178 18.1136 5.41023C18.6143 5.13971 19.1755 5.00016 19.7445 5.00398ZM27.2914 22.0782C27.0241 21.0069 25.9389 20.3545 24.8676 20.6212L20.9867 21.5899C19.9151 21.8572 19.2625 22.9421 19.5297 24.0137L20.9105 29.5567C23.2145 28.6524 25.8354 28.8673 27.9808 30.1876C28.4458 30.4737 28.9477 30.6722 29.4633 30.7911L27.2914 22.0782Z" fill="#FAFAFA"/>
</svg>
