<svg width="48" height="48" viewBox="0 0 48 48" fill="none" xmlns="http://www.w3.org/2000/svg">
<path fill-rule="evenodd" clip-rule="evenodd" d="M24 4C35.0457 4 44 12.9543 44 24C44 35.0457 35.0457 44 24 44C12.9543 44 4 35.0457 4 24C4 12.9543 12.9543 4 24 4ZM32.9473 16.5C32.8636 16.5029 32.7803 16.5134 32.6982 16.5303C32.6832 16.5334 32.6683 16.5375 32.6533 16.541C32.3986 16.6016 32.1575 16.7282 31.959 16.9199L31.8555 17.0312L21.9082 28.7871L17.0605 23.9395L16.9473 23.8359C16.8982 23.7959 16.8466 23.7604 16.7939 23.7275C16.7804 23.7191 16.7667 23.7111 16.7529 23.7031C16.7045 23.675 16.6552 23.6492 16.6045 23.627C16.5915 23.6212 16.5785 23.6157 16.5654 23.6104C16.5199 23.5919 16.4736 23.5763 16.4268 23.5625C16.406 23.5563 16.3853 23.5502 16.3643 23.5449C16.3196 23.5338 16.2748 23.5245 16.2295 23.5176C16.2187 23.5159 16.2081 23.5131 16.1973 23.5117C16.1037 23.4995 16.0092 23.4963 15.915 23.502C15.56 23.5222 15.2106 23.6683 14.9395 23.9395C14.6534 24.2256 14.5077 24.5986 14.501 24.9736C14.5007 24.9873 14.5009 25.001 14.501 25.0146C14.5021 25.1359 14.5175 25.2569 14.5479 25.375C14.5518 25.3904 14.5561 25.4056 14.5605 25.4209C14.5944 25.5372 14.6425 25.65 14.7051 25.7568C14.7118 25.7683 14.7186 25.7797 14.7256 25.791C14.7589 25.8447 14.7952 25.8973 14.8359 25.9473L14.9395 26.0605L20.9395 32.0605L21.0547 32.166C21.1607 32.252 21.2774 32.3224 21.4014 32.376C21.5663 32.4473 21.744 32.4882 21.9258 32.4971C21.9711 32.4993 22.0168 32.4999 22.0625 32.498C22.3243 32.4871 22.5761 32.4083 22.7939 32.2725C22.8813 32.218 22.963 32.154 23.0381 32.082C23.0753 32.0463 23.1109 32.0085 23.1445 31.9688L34.1445 18.9688L34.2383 18.8477C34.2746 18.7947 34.3053 18.7386 34.334 18.6826C34.3396 18.6716 34.3452 18.6606 34.3506 18.6494C34.4059 18.5346 34.4455 18.4151 34.4697 18.293C34.4718 18.2822 34.4737 18.2715 34.4756 18.2607C34.4974 18.1365 34.5038 18.0108 34.4941 17.8857C34.4934 17.8753 34.4922 17.8649 34.4912 17.8545C34.4794 17.7342 34.4535 17.6157 34.4131 17.501C34.4069 17.4833 34.4004 17.4657 34.3936 17.4482C34.3778 17.4085 34.36 17.3696 34.3408 17.3311C34.334 17.3174 34.3295 17.3025 34.3223 17.2891C34.2789 17.2084 34.2269 17.1314 34.168 17.0586C34.1093 16.986 34.0427 16.918 33.9688 16.8555C33.8944 16.7926 33.8162 16.7375 33.7344 16.6914C33.6828 16.6624 33.6292 16.6383 33.5752 16.6162C33.4164 16.5501 33.2499 16.5111 33.082 16.502C33.0371 16.4994 32.9922 16.4984 32.9473 16.5Z" fill="#FAFAFA"/>
</svg>
