<svg width="48" height="48" viewBox="0 0 48 48" fill="none" xmlns="http://www.w3.org/2000/svg">
<path d="M24 4C35.0457 4 44 12.9543 44 24C44 35.0457 35.0457 44 24 44C12.9543 44 4 35.0457 4 24C4 12.9543 12.9543 4 24 4ZM24.001 14.0156C23.1726 14.0156 22.501 14.6872 22.501 15.5156V22.501H15.5156C14.6872 22.501 14.0156 23.1726 14.0156 24.001C14.0157 24.8294 14.6872 25.501 15.5156 25.501H22.501V32.4863C22.5011 33.3147 23.1726 33.9863 24.001 33.9863C24.8293 33.9863 25.5009 33.3147 25.501 32.4863V25.501H32.4863C33.3147 25.5009 33.9863 24.8293 33.9863 24.001C33.9863 23.1726 33.3147 22.5011 32.4863 22.501H25.501V15.5156C25.501 14.6872 24.8294 14.0157 24.001 14.0156Z" fill="#FAFAFA"/>
</svg>
