<svg width="48" height="48" viewBox="0 0 48 48" fill="none" xmlns="http://www.w3.org/2000/svg">
<path fill-rule="evenodd" clip-rule="evenodd" d="M21.3615 4.02344C21.6571 4.06356 21.9415 4.16129 22.2072 4.29883L22.2092 4.29492C33.6221 9.57179 40.0941 20.5732 39.6955 29.7812C39.5255 33.6464 38.1411 37.2281 35.4553 39.8457C32.7605 42.4716 28.8884 43.9998 23.9943 44C19.1222 43.9999 15.2439 42.557 12.5373 39.9629C9.83431 37.3716 8.45324 33.7792 8.29119 29.7773V29.7559C8.23267 27.464 8.80412 25.1996 9.94158 23.209C11.0791 21.2185 12.7401 19.5761 14.7443 18.4629L14.8849 18.3945C15.2209 18.2517 15.6 18.2363 15.9494 18.3535C16.3487 18.488 16.6739 18.7844 16.8439 19.1699C17.4087 20.4513 18.5082 20.9562 19.4514 20.8887C20.356 20.8233 21.2158 20.2349 21.4299 18.9336C22.032 15.2691 21.0368 10.9442 18.9748 7.37305C18.7045 6.91414 18.6047 6.37121 18.6974 5.8457C18.7928 5.3067 19.0829 4.82045 19.5119 4.48047L19.674 4.36914C20.0779 4.12803 20.5412 4.00006 21.0119 4L21.3615 4.02344ZM29.5607 26.9395C29.0116 26.3906 28.142 26.3556 27.5529 26.8359L27.4396 26.9395L24.5002 29.8789L21.5607 26.9395L21.4474 26.8359C20.8583 26.3558 19.9887 26.3904 19.4396 26.9395C18.8907 27.4885 18.856 28.3582 19.3361 28.9473L19.4396 29.0605L22.3791 32L19.4396 34.9395L19.3361 35.0527C18.8557 35.6418 18.8907 36.5114 19.4396 37.0605C19.9888 37.6097 20.8583 37.6445 21.4474 37.1641L21.5607 37.0605L24.5002 34.1211L27.4396 37.0605L27.5529 37.1641C28.142 37.6446 29.0115 37.6096 29.5607 37.0605C30.1099 36.5113 30.1449 35.6419 29.6642 35.0527L29.5607 34.9395L26.6213 32L29.5607 29.0605L29.6642 28.9473C30.1446 28.3581 30.1099 27.4886 29.5607 26.9395Z" fill="#FAFAFA"/>
</svg>
