<svg width="48" height="48" viewBox="0 0 48 48" fill="none" xmlns="http://www.w3.org/2000/svg">
<path fill-rule="evenodd" clip-rule="evenodd" d="M26.2676 4.03144C26.4756 3.98916 26.6913 3.98995 26.8985 4.03535C27.1055 4.08078 27.2989 4.16903 27.4649 4.29316C27.6307 4.41752 27.767 4.5752 27.8594 4.7541C27.9515 4.93306 27.9993 5.13171 28.0001 5.33027V8.00019H36.2852C36.7398 8.00019 37.1766 8.28135 37.4981 8.78144C37.8191 9.28127 38 9.95971 38.0001 10.6662V14.5002C37.9994 15.3281 37.3281 16.0002 36.5001 16.0002C35.6722 16 35.0007 15.328 35.0001 14.5002V11.0002H28.0001V37.0002H35.0001V33.5002C35.0001 32.6719 35.6718 32.0003 36.5001 32.0002C37.3285 32.0002 38.0001 32.6718 38.0001 33.5002V37.3342C37.9997 38.0405 37.8192 38.7194 37.4981 39.2189C37.1767 39.7183 36.7395 40.0002 36.2852 40.0002H28.0001V42.6838C27.9998 42.8741 27.9547 43.0637 27.8692 43.2365C27.7833 43.4092 27.6574 43.5646 27.502 43.6877C27.3465 43.8107 27.1632 43.9024 26.9669 43.9533C26.7701 44.0039 26.5627 44.0135 26.3614 43.9826L9.21881 41.7775C8.87778 41.7302 8.56581 41.5673 8.34186 41.3225C8.11852 41.0778 7.99689 40.7649 8.00006 40.4436V9.25996C8.00568 8.96014 8.12099 8.66982 8.32428 8.43769C8.52787 8.20582 8.80951 8.04492 9.12311 7.98066L26.2676 4.03144ZM20.0001 22.0002C18.8956 22.0003 18.0001 22.8957 18.0001 24.0002C18.0007 25.1041 18.896 26 20.0001 26.0002C21.1042 26.0002 21.9994 25.1042 22.0001 24.0002C22.0001 22.8956 21.1046 22.0002 20.0001 22.0002Z" fill="#FAFAFA"/>
<path d="M35.334 19.34C35.8833 18.7909 36.7528 18.7558 37.3419 19.2365L37.4551 19.34L41.0547 22.9396L41.1583 23.0529C41.6068 23.6028 41.6067 24.3976 41.1583 24.9475L41.0547 25.0607L37.4551 28.6603C36.8694 29.2456 35.9197 29.2458 35.334 28.6603C34.7486 28.0747 34.7488 27.125 35.334 26.5393L36.3731 25.5002H31.7598C30.9317 25.5001 30.2602 24.8283 30.2598 24.0002C30.26 23.172 30.9316 22.5003 31.7598 22.5002H36.3731L35.334 21.4611L35.2305 21.3478C34.7499 20.7588 34.7852 19.8893 35.334 19.34Z" fill="#FAFAFA"/>
</svg>
