<svg width="48" height="48" viewBox="0 0 48 48" fill="none" xmlns="http://www.w3.org/2000/svg">
<path d="M8 9.5C8 6.46243 10.4624 4 13.5 4H34.5C37.5376 4 40 6.46243 40 9.5V25.6263C38.4119 24.0056 36.1984 23 33.75 23C29.6624 23 26.2295 25.8029 25.2682 29.5915C23.9131 30.367 23 31.8268 23 33.5V42.5C23 43.026 23.0902 43.5308 23.2561 44H13.5C10.4624 44 8 41.5376 8 38.5V9.5Z" fill="#FAFAFA"/>
<path fill-rule="evenodd" clip-rule="evenodd" d="M40 32.3368V32C40 28.6863 37.3137 26 34 26C30.6863 26 28 28.6863 28 32V32.3368C26.8175 32.8985 26 34.1038 26 35.5V40.5C26 42.433 27.567 44 29.5 44H38.5C40.433 44 42 42.433 42 40.5V35.5C42 34.1038 41.1825 32.8985 40 32.3368ZM31 32H37C37 30.3431 35.6569 29 34 29C32.3431 29 31 30.3431 31 32ZM38.5 35H29.5C29.2239 35 29 35.2239 29 35.5V40.5C29 40.7761 29.2239 41 29.5 41H38.5C38.7761 41 39 40.7761 39 40.5V35.5C39 35.2239 38.7761 35 38.5 35Z" fill="#FAFAFA"/>
</svg>
