<svg width="48" height="48" viewBox="0 0 48 48" fill="none" xmlns="http://www.w3.org/2000/svg">
<path fill-rule="evenodd" clip-rule="evenodd" d="M28.752 14.4297C29.2115 13.7404 30.1427 13.5541 30.832 14.0137L42.0645 21.502C42.3537 21.5142 42.6214 21.6083 42.8457 21.7617H44C44.8284 21.7617 45.5 22.4333 45.5 23.2617C45.5 24.0901 44.8284 24.7617 44 24.7617H43.5V41.7617H44C44.8284 41.7617 45.5 42.4333 45.5 43.2617C45.5 44.0901 44.8284 44.7617 44 44.7617H4C3.17157 44.7617 2.5 44.0901 2.5 43.2617C2.5 42.4333 3.17157 41.7617 4 41.7617H4.5V24.7617H4C3.17157 24.7617 2.5 24.0901 2.5 23.2617C2.5 22.4333 3.17157 21.7617 4 21.7617H5.1543C5.37806 21.6086 5.64509 21.5145 5.93359 21.502L17.168 14.0137C17.8573 13.5541 18.7885 13.7404 19.248 14.4297C19.7076 15.119 19.5213 16.0502 18.832 16.5098L11.3457 21.5H36.6543L29.168 16.5098C28.4787 16.0502 28.2924 15.119 28.752 14.4297ZM12 27.7617C11.1716 27.7617 10.5 28.4333 10.5 29.2617V37.2617C10.5 38.0901 11.1716 38.7617 12 38.7617C12.8284 38.7617 13.5 38.0901 13.5 37.2617V29.2617C13.5 28.4333 12.8284 27.7617 12 27.7617ZM18 27.7617C17.1716 27.7617 16.5 28.4333 16.5 29.2617V37.2617C16.5 38.0901 17.1716 38.7617 18 38.7617C18.8284 38.7617 19.5 38.0901 19.5 37.2617V29.2617C19.5 28.4333 18.8284 27.7617 18 27.7617ZM24 27.7617C23.1716 27.7617 22.5 28.4333 22.5 29.2617V37.2617C22.5 38.0901 23.1716 38.7617 24 38.7617C24.8284 38.7617 25.5 38.0901 25.5 37.2617V29.2617C25.5 28.4333 24.8284 27.7617 24 27.7617ZM30 27.7617C29.1716 27.7617 28.5 28.4333 28.5 29.2617V37.2617C28.5 38.0901 29.1716 38.7617 30 38.7617C30.8284 38.7617 31.5 38.0901 31.5 37.2617V29.2617C31.5 28.4333 30.8284 27.7617 30 27.7617ZM36 27.7617C35.1716 27.7617 34.5 28.4333 34.5 29.2617V37.2617C34.5 38.0901 35.1716 38.7617 36 38.7617C36.8284 38.7617 37.5 38.0901 37.5 37.2617V29.2617C37.5 28.4333 36.8284 27.7617 36 27.7617Z" fill="#FAFAFA"/>
<path d="M24 2C24.8284 2 25.5 2.67157 25.5 3.5V7.83984C25.8581 8.00992 26.1889 8.23965 26.4746 8.52539C27.1311 9.18183 27.5 10.0718 27.5 11C27.5 11.9282 27.131 12.8182 26.4746 13.4746C25.8182 14.131 24.9282 14.5 24 14.5C23.0718 14.5 22.1818 14.131 21.5254 13.4746C20.869 12.8182 20.5 11.9282 20.5 11C20.5 10.0718 20.8689 9.18183 21.5254 8.52539C21.8111 8.23965 22.1419 8.00992 22.5 7.83984V3.5C22.5 2.67157 23.1716 2 24 2Z" fill="#FAFAFA"/>
</svg>
