<svg width="48" height="48" viewBox="0 0 48 48" fill="none" xmlns="http://www.w3.org/2000/svg">
<path d="M23.9995 38C24.8278 38.0002 25.4995 38.6717 25.4995 39.5V43.5C25.4995 44.3283 24.8278 44.9998 23.9995 45C23.1711 45 22.4995 44.3284 22.4995 43.5V39.5C22.4995 38.6716 23.1711 38 23.9995 38Z" fill="#FAFAFA"/>
<path fill-rule="evenodd" clip-rule="evenodd" d="M23.9995 4C28.6106 4.00011 33.0513 5.71623 36.3394 8.79883C39.6309 11.8846 41.4995 16.0917 41.4995 20.5V38.5C41.4995 38.5521 41.495 38.6035 41.4898 38.6543L44.1011 41.4824C44.6626 42.0909 44.6252 43.0396 44.0171 43.6016C43.4086 44.1633 42.46 44.1257 41.898 43.5176L30.3433 31H25.4995V33.5C25.4995 34.3283 24.8278 34.9998 23.9995 35C23.1711 35 22.4995 34.3284 22.4995 33.5V31H17.6558L6.10111 43.5176C5.53923 44.1258 4.59057 44.1631 3.98197 43.6016C3.37363 43.0396 3.3362 42.091 3.89798 41.4824L6.50736 38.6543C6.50217 38.6036 6.49955 38.5521 6.49955 38.5V20.5C6.49955 16.0915 8.36822 11.8846 11.6597 8.79883C14.9479 5.71628 19.3885 4 23.9995 4ZM23.9995 15C22.4999 15 21.0853 15.547 20.062 16.4824C19.0435 17.4138 18.4995 18.6467 18.4995 19.9004V28H29.4995V19.9004C29.4995 18.6468 28.9554 17.4138 27.937 16.4824C26.9139 15.547 25.4992 15.0001 23.9995 15Z" fill="#FAFAFA"/>
</svg>
