<svg width="48" height="48" viewBox="0 0 48 48" fill="none" xmlns="http://www.w3.org/2000/svg">
<path d="M20.5703 7.56641C20.9825 7.60716 21.3875 7.70989 21.7715 7.86914C22.2828 8.08124 22.7473 8.39172 23.1387 8.7832L26.9824 12.627L27.168 12.7793C27.3667 12.9117 27.6027 12.9842 27.8457 12.9844H37.5938C39.0732 12.9844 40.491 13.573 41.5371 14.6191C42.5832 15.6652 43.1719 17.0831 43.1719 18.5625V34.875C43.1719 36.3544 42.5832 37.7723 41.5371 38.8184C40.491 39.8645 39.0732 40.4531 37.5938 40.4531H10.4062C8.92684 40.4531 7.50899 39.8645 6.46289 38.8184C5.41679 37.7723 4.82812 36.3544 4.82812 34.875V13.125C4.82813 11.6456 5.41679 10.2277 6.46289 9.18164C7.50899 8.13554 8.92684 7.54688 10.4062 7.54688H20.1562L20.5703 7.56641ZM10.4062 10.5469C9.72249 10.5469 9.06748 10.8192 8.58398 11.3027C8.10049 11.7862 7.82812 12.4412 7.82812 13.125V19.0547C8.61712 18.6434 9.50005 18.4219 10.4062 18.4219H37.5938C38.4999 18.4219 39.3829 18.6434 40.1719 19.0547V18.5625C40.1719 17.8787 39.8995 17.2237 39.416 16.7402C38.9325 16.2567 38.2775 15.9844 37.5938 15.9844H27.8438C26.7269 15.9834 25.6524 15.5394 24.8613 14.748L21.0176 10.9043C20.9044 10.791 20.769 10.702 20.6211 10.6406C20.5471 10.61 20.4708 10.5858 20.3926 10.5703L20.1562 10.5469H10.4062Z" fill="#FAFAFA"/>
</svg>
