<svg width="48" height="48" viewBox="0 0 48 48" fill="none" xmlns="http://www.w3.org/2000/svg">
<path d="M19.2614 34.1159C20.0531 34.1618 20.9112 34.4424 21.5622 35.2252C22.1586 35.9429 22.4238 36.9002 22.5231 37.9537C22.8542 41.4791 20.9699 45.2738 17.4626 45.9616C14.0212 46.6346 10.4496 43.9689 9.72819 40.2604C9.55057 39.3466 9.54717 38.4675 9.84537 37.6725C10.1573 36.8417 10.7314 36.2768 11.3747 35.8991C11.9818 35.5427 12.6711 35.3395 13.2965 35.194C13.9147 35.0502 14.6357 34.9288 15.2614 34.8092C15.908 34.6857 16.4587 34.5302 17.1598 34.3678C17.7809 34.224 18.5334 34.0737 19.2614 34.1159Z" fill="#FAFAFA"/>
<path d="M28.738 25.3014C29.4662 25.2592 30.2203 25.4095 30.8415 25.5534C31.5423 25.7157 32.0914 25.871 32.738 25.9948C33.3635 26.1145 34.0848 26.2356 34.7028 26.3795C35.3282 26.5252 36.0176 26.7301 36.6247 27.0866C37.2675 27.4641 37.842 28.028 38.154 28.858C38.4524 29.6531 38.4506 30.5341 38.2731 31.4479C37.5743 35.0408 34.1981 37.6541 30.859 37.2018L30.5368 37.1491C27.029 36.4614 25.1446 32.666 25.4762 29.1412C25.5755 28.0876 25.841 27.1305 26.4372 26.4127C27.0879 25.6302 27.9462 25.3474 28.738 25.3014Z" fill="#FAFAFA"/>
<path d="M11.6227 10.7643C12.9304 10.6604 14.1003 11.1659 15.0583 11.9088C16.0094 12.6468 16.8327 13.6774 17.5231 14.817C18.9043 17.0974 19.9118 20.0826 20.3415 22.9362C20.764 25.7487 20.6428 28.2182 19.6266 30.1237C18.5557 32.1314 16.6545 33.2266 14.2204 33.5866C11.4796 33.9916 9.28644 33.2732 7.73209 31.4459C6.28986 29.7499 5.55873 27.2744 5.1442 24.5162C4.5714 20.7024 4.93102 17.4496 6.0485 15.0397C7.17715 12.6065 9.1364 10.9622 11.6227 10.7643Z" fill="#FAFAFA"/>
<path d="M36.3649 1.94984C38.8597 2.13084 40.821 3.78117 41.9489 6.21547C43.0663 8.62818 43.4266 11.8888 42.8532 15.7037C42.4386 18.4617 41.7075 20.9355 40.2653 22.6315C38.7108 24.4593 36.5167 25.1775 33.7751 24.7721C31.3423 24.4119 29.4432 23.3162 28.3727 21.3092C27.357 19.4038 27.2332 16.936 27.6559 14.1237C28.0852 11.2709 29.0856 8.28918 30.4645 6.01039C31.1537 4.87144 31.9772 3.84302 32.9294 3.10414C33.8887 2.35989 35.0578 1.85533 36.3649 1.94984Z" fill="#FAFAFA"/>
</svg>
