<svg width="48" height="48" viewBox="0 0 48 48" fill="none" xmlns="http://www.w3.org/2000/svg">
<path fill-rule="evenodd" clip-rule="evenodd" d="M19.4277 7.50297C19.428 5.04147 21.903 3.34916 24.1973 4.24125L40.7695 10.6846L41.0156 10.792C42.221 11.3706 42.9995 12.5937 43 13.9463V40.5791C43 42.5121 41.433 44.0791 39.5 44.0791H7.5C5.56701 44.0791 4 42.5121 4 40.5791V24.126C4.00051 22.532 5.07813 21.1396 6.62109 20.7393L19.4277 17.419V7.50297ZM11.6719 33.5791C10.8435 33.5791 10.172 34.2508 10.1719 35.0791C10.1719 35.9076 10.8434 36.5791 11.6719 36.5791H15.7871L15.9395 36.5713C16.6959 36.4945 17.2871 35.8558 17.2871 35.0791C17.287 34.3026 16.6958 33.6637 15.9395 33.587L15.7871 33.5791H11.6719ZM28.1289 29.0791C27.3006 29.0791 26.6291 29.7508 26.6289 30.5791V34.5791C26.6289 35.4076 27.3005 36.0791 28.1289 36.0791C28.9573 36.0791 29.6289 35.4076 29.6289 34.5791V30.5791C29.6288 29.7508 28.9572 29.0791 28.1289 29.0791ZM34.2988 29.0791C33.4709 29.0797 32.799 29.7512 32.7988 30.5791V34.5791C32.7988 35.4076 33.4724 36.0791 34.3008 36.0791C35.1288 36.0786 35.7988 35.4072 35.7988 34.5791V30.5791C35.7987 29.7508 35.1272 29.0791 34.2988 29.0791ZM11.6719 27.5791C10.8435 27.5791 10.172 28.2508 10.1719 29.0791C10.1719 29.9076 10.8434 30.5791 11.6719 30.5791H15.7871L15.9395 30.5713C16.6959 30.4945 17.2871 29.8558 17.2871 29.0791C17.287 28.3026 16.6958 27.6637 15.9395 27.587L15.7871 27.5791H11.6719ZM28.1289 17.0791C27.3006 17.0791 26.6291 17.7508 26.6289 18.5791V22.5791C26.6289 23.4076 27.3005 24.0791 28.1289 24.0791C28.9573 24.0791 29.6289 23.4076 29.6289 22.5791V18.5791C29.6288 17.7508 28.9572 17.0791 28.1289 17.0791ZM34.2988 17.0791C33.4709 17.0797 32.799 17.7512 32.7988 18.5791V22.5791C32.7988 23.4076 33.4724 24.0791 34.3008 24.0791C35.1288 24.0786 35.7988 23.4072 35.7988 22.5791V18.5791C35.7987 17.7508 35.1272 17.0791 34.2988 17.0791Z" fill="#FAFAFA"/>
</svg>
