<svg width="48" height="48" viewBox="0 0 48 48" fill="none" xmlns="http://www.w3.org/2000/svg">
<path fill-rule="evenodd" clip-rule="evenodd" d="M24 6.5C28.6412 6.5 33.093 8.34315 36.375 11.625C39.6567 14.9069 41.5 19.3588 41.5 24V36C41.5 39.0376 39.0376 41.5 36 41.5H12C8.96243 41.5 6.5 39.0376 6.5 36V24C6.5 19.3587 8.34309 14.9069 11.625 11.625C14.9069 8.34309 19.3587 6.5 24 6.5ZM24 9.5C20.1544 9.5 16.4654 11.0268 13.7461 13.7461C11.0268 16.4654 9.5 20.1544 9.5 24V26.918L38.4336 36.5625C38.4753 36.3815 38.5 36.1936 38.5 36V24C38.5 20.1544 36.9731 16.4654 34.2539 13.7461C31.5344 11.0268 27.8455 9.5 24 9.5Z" fill="#FAFAFA"/>
</svg>
