<svg width="48" height="48" viewBox="0 0 48 48" fill="none" xmlns="http://www.w3.org/2000/svg">
<path fill-rule="evenodd" clip-rule="evenodd" d="M19.3066 6.87425C19.6978 6.77654 20.1115 6.83055 20.4648 7.02464L32.6094 14.9114C32.6729 14.9462 32.7439 14.966 32.8164 14.966C32.8891 14.966 32.9617 14.9464 33.0254 14.9114C33.0871 14.8756 33.1395 14.8243 33.1758 14.7629C33.212 14.7014 33.231 14.6312 33.2324 14.5598V12.4309C33.2327 12.007 33.4014 11.5998 33.7012 11.3C34.001 11.0003 34.408 10.8315 34.832 10.8313H36.4336C36.8576 10.8315 37.2646 11.0003 37.5645 11.3C37.8642 11.5998 38.0329 12.007 38.0332 12.4309V17.9836C38.0362 18.1168 38.0708 18.2476 38.1348 18.3645C38.1987 18.4813 38.2899 18.5812 38.4004 18.6555L42.4648 21.2961C42.8211 21.5273 43.0716 21.8905 43.1602 22.3059C43.2486 22.7211 43.1682 23.1547 42.9375 23.511C42.7062 23.8674 42.3413 24.1178 41.9258 24.2063C41.5104 24.2946 41.077 24.2148 40.7207 23.9836L40.2246 23.6477C40.1612 23.6129 40.0899 23.5951 40.0176 23.595C39.9449 23.595 39.8723 23.6127 39.8086 23.6477C39.7467 23.6834 39.6946 23.7346 39.6582 23.7961C39.6219 23.8576 39.6031 23.9279 39.6016 23.9993V37.2317C39.6016 37.4438 39.686 37.6481 39.8359 37.7981C39.9858 37.9476 40.1887 38.0324 40.4004 38.0325H41.6016C42.0256 38.0327 42.4326 38.2014 42.7324 38.5012C43.0321 38.8012 43.2011 39.2081 43.2012 39.6321C43.2011 40.0561 43.0322 40.463 42.7324 40.7629C42.4325 41.0628 42.0256 41.2315 41.6016 41.2317H6.40039C5.97619 41.2316 5.5695 41.0629 5.26953 40.7629C4.96965 40.4629 4.80086 40.0562 4.80078 39.6321C4.80085 39.208 4.96974 38.8012 5.26953 38.5012C5.56949 38.2013 5.97625 38.0326 6.40039 38.0325H6.80078C7.01295 38.0325 7.21716 37.9481 7.36719 37.7981C7.5171 37.6481 7.60156 37.4438 7.60156 37.2317V28.1594C7.60177 27.9555 7.52247 27.7591 7.38281 27.6106C7.24325 27.4624 7.05281 27.373 6.84961 27.3606C6.59252 27.3378 6.34425 27.2518 6.12695 27.1125C5.9098 26.9733 5.72959 26.7837 5.60156 26.5598C5.39449 26.1907 5.34139 25.7545 5.45508 25.3469C5.56909 24.9391 5.84036 24.5924 6.20898 24.384L17.2168 18.2395C17.5307 18.0742 17.8909 18.0178 18.2402 18.0793C18.4055 18.0461 18.5767 18.0502 18.7402 18.091C18.9038 18.132 19.0573 18.2085 19.1875 18.3157C19.3177 18.4229 19.4226 18.5595 19.4941 18.7121C19.5654 18.8646 19.6025 19.0321 19.6016 19.2004V37.2317C19.597 37.3379 19.6138 37.4451 19.6523 37.5442C19.6909 37.6428 19.7494 37.7329 19.8242 37.8078C19.8994 37.883 19.9908 37.9411 20.0898 37.9797C20.1887 38.0182 20.2944 38.0369 20.4004 38.0325H21.2012C21.4129 38.0324 21.6158 37.9476 21.7656 37.7981C21.9156 37.6481 22 37.4438 22 37.2317V12.2551C21.9969 12.1221 21.9623 11.9909 21.8984 11.8743C21.8344 11.7577 21.7433 11.6574 21.6328 11.5832L18.7207 9.69652C18.4007 9.45108 18.1851 9.0921 18.1172 8.69456C18.0496 8.29734 18.1352 7.88942 18.3555 7.55199C18.5759 7.21439 18.9155 6.97209 19.3066 6.87425ZM12.4004 31.6321C12.1885 31.6322 11.9858 31.7167 11.8359 31.8664C11.6862 32.0162 11.6019 32.2191 11.6016 32.4309V37.2317C11.6016 37.4438 11.686 37.6481 11.8359 37.7981C11.9858 37.9476 12.1887 38.0324 12.4004 38.0325H16.4004C16.6125 38.0325 16.8168 37.948 16.9668 37.7981C17.1167 37.6481 17.2012 37.4438 17.2012 37.2317V32.4309C17.2009 32.2193 17.1163 32.0162 16.9668 31.8664C16.8168 31.7165 16.6125 31.6321 16.4004 31.6321H12.4004ZM26.8008 32.4309C26.5887 32.4309 26.3844 32.5154 26.2344 32.6653C26.0844 32.8152 26.0001 33.0196 26 33.2317V37.2317C26 37.4438 26.0845 37.6481 26.2344 37.7981C26.3844 37.9481 26.5886 38.0325 26.8008 38.0325H34.8008C35.013 38.0325 35.2172 37.9481 35.3672 37.7981C35.5171 37.6481 35.6016 37.4438 35.6016 37.2317V33.2317C35.6015 33.0196 35.5171 32.8152 35.3672 32.6653C35.2172 32.5154 35.0129 32.4309 34.8008 32.4309H26.8008ZM28.4004 19.6321C27.7641 19.6322 27.1531 19.8853 26.7031 20.3352C26.2534 20.7852 26.0001 21.3963 26 22.0325C26.0001 22.5065 26.1412 22.9702 26.4043 23.3645C26.668 23.7591 27.0439 24.0676 27.4824 24.2493C27.9209 24.4309 28.4036 24.4786 28.8691 24.386C29.3344 24.2934 29.7621 24.065 30.0977 23.7297C30.4332 23.3941 30.6613 22.9647 30.7539 22.4993C30.8463 22.0339 30.7987 21.5508 30.6172 21.1125C30.4355 20.6746 30.1286 20.2998 29.7344 20.0364C29.3397 19.7727 28.875 19.6321 28.4004 19.6321Z" fill="#FAFAFA"/>
</svg>
