<svg width="48" height="48" viewBox="0 0 48 48" fill="none" xmlns="http://www.w3.org/2000/svg">
<path d="M24.002 2.79492C26.8938 2.7953 29.0372 4.0455 30.8555 5.71875C31.7494 6.54152 32.5842 7.48537 33.3965 8.44141C34.2282 9.42033 35.0181 10.39 35.9023 11.3848L36.7871 12.3809L35.9023 13.377C35.0178 14.372 34.2285 15.341 33.3965 16.3203C32.5839 17.2767 31.7497 18.22 30.8555 19.043C29.0372 20.7162 26.8938 21.9645 24.002 21.9648C21.1101 21.9648 18.9667 20.7159 17.1484 19.043C16.2544 18.2202 15.4178 17.2765 14.6055 16.3203C13.7739 15.3416 12.9856 14.3715 12.1016 13.377L11.2129 12.3809L12.1016 11.3848C12.986 10.3898 13.7736 9.42055 14.6055 8.44141C15.4181 7.48491 16.254 6.54183 17.1484 5.71875C18.9669 4.04543 21.1097 2.79492 24.002 2.79492ZM24 8.18555C22.8876 8.18555 21.8198 8.62755 21.0332 9.41406C20.2467 10.2006 19.8048 11.2685 19.8047 12.3809C19.8048 13.4929 20.2471 14.5592 21.0332 15.3457C21.8199 16.1324 22.8875 16.5742 24 16.5742C25.1123 16.5741 26.1783 16.1322 26.9648 15.3457C27.7512 14.5592 28.1932 13.4931 28.1934 12.3809C28.1932 11.2685 27.7514 10.2006 26.9648 9.41406C26.1784 8.62794 25.112 8.1857 24 8.18555Z" fill="#FAFAFA"/>
<path d="M22 35.6157C22.0004 34.5115 22.8957 33.6157 24 33.6157C25.1043 33.6157 25.9996 34.5115 26 35.6157V35.6353C26 36.7398 25.1046 37.6353 24 37.6353C22.8954 37.6353 22 36.7398 22 35.6353V35.6157Z" fill="#FAFAFA"/>
<path d="M30.6689 30.1668C30.6694 29.0626 31.5647 28.1668 32.6689 28.1668C33.7732 28.1668 34.6685 29.0626 34.6689 30.1668V30.1863C34.6689 31.2909 33.7735 32.1863 32.6689 32.1863C31.5644 32.1863 30.6689 31.2909 30.6689 30.1863V30.1668Z" fill="#FAFAFA"/>
<path d="M13.3311 30.1668C13.3315 29.0626 14.2268 28.1668 15.3311 28.1668C16.4353 28.1668 17.3306 29.0626 17.3311 30.1668V30.1863C17.3311 31.2909 16.4356 32.1863 15.3311 32.1863C14.2265 32.1863 13.3311 31.2909 13.3311 30.1863V30.1668Z" fill="#FAFAFA"/>
<path d="M4.66016 24.7171C4.6606 23.6129 5.55586 22.7171 6.66016 22.7171C7.76445 22.7171 8.65971 23.6129 8.66016 24.7171V24.7366C8.66016 25.8412 7.76473 26.7366 6.66016 26.7366C5.55559 26.7366 4.66016 25.8412 4.66016 24.7366L4.66016 24.7171Z" fill="#FAFAFA"/>
<path d="M22 26.745C22.0004 25.6408 22.8957 24.745 24 24.745C25.1043 24.745 25.9996 25.6408 26 26.745V26.7645C26 27.8691 25.1046 28.7645 24 28.7645C22.8954 28.7645 22 27.8691 22 26.7645V26.745Z" fill="#FAFAFA"/>
<path d="M39.3398 24.7171C39.3403 23.6129 40.2355 22.7171 41.3398 22.7171C42.4441 22.7171 43.3394 23.6129 43.3398 24.7171V24.7366C43.3398 25.8412 42.4444 26.7366 41.3398 26.7366C40.2353 26.7366 39.3398 25.8412 39.3398 24.7366V24.7171Z" fill="#FAFAFA"/>
<path d="M30.5 40.7041C31.3284 40.7041 32 41.3757 32 42.2041C32 43.0325 31.3284 43.7041 30.5 43.7041H17.5C16.6716 43.7041 16 43.0325 16 42.2041C16 41.3757 16.6716 40.7041 17.5 40.7041H30.5Z" fill="#FAFAFA"/>
</svg>
