<svg width="48" height="48" viewBox="0 0 48 48" fill="none" xmlns="http://www.w3.org/2000/svg">
<path d="M20.4062 29.0996C20.4068 28.6382 20.9069 28.3493 21.3066 28.5801L30.1992 33.7168C30.3848 33.824 30.5 34.022 30.5 34.2363V43.9668C30.4994 44.4223 30.0109 44.7112 29.6113 44.4922L21.1855 39.873C20.7055 39.6098 20.4064 39.1042 20.4062 38.5566V29.0996Z" fill="#FAFAFA"/>
<path d="M42.6953 28.5781C43.0951 28.3474 43.5951 28.6363 43.5957 29.0977V38.5566C43.5955 39.1041 43.2963 39.6097 42.8164 39.873L34.3887 44.4922C33.989 44.7112 33.5005 44.4223 33.5 43.9668V34.2363C33.5 34.022 33.6152 33.824 33.8008 33.7168L42.6953 28.5781Z" fill="#FAFAFA"/>
<path d="M35.4473 3.43164C35.9769 3.43197 36.4058 3.86301 36.4062 4.39258V15.2734C36.4057 15.803 35.9769 16.234 35.4473 16.2344H28.3066V10.6953C28.3066 9.86689 27.6351 9.19531 26.8066 9.19531C25.9782 9.19531 25.3066 9.86689 25.3066 10.6953V16.2344H18.166C18.0871 16.2344 18.0109 16.2457 17.9375 16.2637V10.6953C17.9375 9.86721 17.2655 9.19584 16.4375 9.19531C15.6091 9.19531 14.9375 9.86689 14.9375 10.6953V13.9961H11.6367C10.8083 13.9961 10.1367 14.6677 10.1367 15.4961C10.1372 16.3241 10.8086 16.9961 11.6367 16.9961H17.2285C17.2153 17.0596 17.2071 17.1259 17.207 17.1934V24.332H11.6367C10.8083 24.332 10.1367 25.0036 10.1367 25.832C10.1372 26.66 10.8086 27.332 11.6367 27.332H17.207V34.4746C17.2062 35.0041 16.7758 35.4336 16.2461 35.4336H5.36523C4.83599 35.4331 4.40711 35.0038 4.40625 34.4746V4.39258C4.40675 3.86312 4.83577 3.43214 5.36523 3.43164H35.4473Z" fill="#FAFAFA"/>
<path d="M31.4531 20.5586C31.8638 20.3977 32.3302 20.4255 32.7227 20.6406L40.877 25.1113C41.2872 25.3362 41.2938 25.9223 40.8887 26.1562L32.2988 31.1191C32.1132 31.2264 31.8829 31.2264 31.6973 31.1191L23.1113 26.1582C22.7063 25.9243 22.7128 25.3381 23.123 25.1133L31.2812 20.6406L31.4531 20.5586Z" fill="#FAFAFA"/>
</svg>
