<svg width="48" height="48" viewBox="0 0 48 48" fill="none" xmlns="http://www.w3.org/2000/svg">
<path d="M27.9336 6.19288C30.3168 5.75883 32.7754 6.06136 34.9824 7.06006L35.1445 7.146C35.5072 7.3672 35.7627 7.73412 35.8398 8.15772C35.9165 8.58094 35.808 9.01457 35.5469 9.34913L35.4258 9.48585L28.8887 16.023L28.8398 16.0991C28.8288 16.1267 28.8224 16.1568 28.8223 16.187C28.8225 16.2484 28.8458 16.3091 28.8887 16.353L31.6465 19.1108L31.7227 19.1597C31.7507 19.1711 31.7817 19.1773 31.8125 19.1773C31.8736 19.1771 31.9327 19.1533 31.9766 19.1108L38.5137 12.5737L38.6504 12.4526C38.9852 12.1913 39.4183 12.0826 39.8418 12.1597C40.3262 12.248 40.7365 12.5685 40.9395 13.0171C41.9379 15.2239 42.2406 17.683 41.8066 20.0659C41.3722 22.4491 40.2227 24.646 38.5098 26.3589C36.7969 28.0715 34.6017 29.2214 32.2188 29.6558C30.1827 30.0267 28.0908 29.8583 26.1484 29.1792L14.8496 40.4819C13.8776 41.4537 12.558 41.9995 11.1836 41.9995C9.98093 41.9995 8.82072 41.5812 7.89844 40.8257L7.51758 40.4819C6.54572 39.5101 6.00026 38.1903 6 36.8159C6.00004 35.4415 6.54583 34.1219 7.51758 33.1499L18.8184 21.8491C18.1399 19.9076 17.9731 17.8159 18.3438 15.7808C18.7781 13.3978 19.928 11.2026 21.6406 9.48975C23.3537 7.77666 25.5502 6.62718 27.9336 6.19288Z" fill="#FAFAFA"/>
</svg>
