<svg width="48" height="48" viewBox="0 0 48 48" fill="none" xmlns="http://www.w3.org/2000/svg">
<path d="M44.122 17.6914L17.9995 43.8121C17.7209 44.0907 17.3901 44.3118 17.0261 44.4626C16.6621 44.6134 16.2719 44.691 15.8779 44.691C15.4839 44.691 15.0937 44.6134 14.7297 44.4626C14.3657 44.3118 14.0349 44.0907 13.7563 43.8121L3.87697 33.9346C3.59832 33.656 3.37728 33.3252 3.22647 32.9612C3.07567 32.5972 2.99805 32.207 2.99805 31.813C2.99805 31.419 3.07567 31.0288 3.22647 30.6648C3.37728 30.3008 3.59832 29.97 3.87697 29.6914L9.34634 24.2221C9.416 24.1523 9.49872 24.097 9.58976 24.0593C9.68081 24.0215 9.77841 24.0021 9.87697 24.0021C9.97553 24.0021 10.0731 24.0215 10.1642 24.0593C10.2552 24.097 10.3379 24.1523 10.4076 24.2221L16.9382 30.7527C17.0841 30.8984 17.2584 31.0126 17.4503 31.0879C17.6422 31.1633 17.8476 31.1983 18.0536 31.1907C18.2596 31.1831 18.4619 31.1332 18.6478 31.0439C18.8336 30.9547 18.9991 30.8281 19.1338 30.6721C19.3802 30.3749 19.5054 29.9958 19.4846 29.6104C19.4637 29.2249 19.2983 28.8615 19.0213 28.5927L12.5282 22.0996C12.388 21.959 12.3092 21.7685 12.3092 21.5699C12.3092 21.3713 12.388 21.1808 12.5282 21.0402L15.3407 18.2277C15.4104 18.158 15.4931 18.1026 15.5841 18.0649C15.6752 18.0272 15.7728 18.0077 15.8713 18.0077C15.9699 18.0077 16.0675 18.0272 16.1586 18.0649C16.2496 18.1026 16.3323 18.158 16.402 18.2277L22.9326 24.7583C23.0784 24.9041 23.2527 25.0182 23.4446 25.0935C23.6366 25.1689 23.8419 25.2039 24.048 25.1963C24.254 25.1888 24.4563 25.1388 24.6421 25.0496C24.828 24.9603 24.9935 24.8337 25.1282 24.6777C25.3746 24.3805 25.4998 24.0014 25.4789 23.616C25.4581 23.2306 25.2927 22.8672 25.0157 22.5983L18.5301 16.0996C18.3898 15.959 18.3111 15.7685 18.3111 15.5699C18.3111 15.3713 18.3898 15.1808 18.5301 15.0402L21.3426 12.2277C21.4832 12.0874 21.6737 12.0087 21.8723 12.0087C22.0709 12.0087 22.2614 12.0874 22.402 12.2277L28.9326 18.7583C29.0785 18.9044 29.2529 19.0187 29.445 19.0943C29.6371 19.1698 29.8427 19.2049 30.0489 19.1973C30.2552 19.1898 30.4577 19.1397 30.6437 19.0503C30.8298 18.9609 30.9953 18.834 31.1301 18.6777C31.3762 18.3803 31.5011 18.001 31.4799 17.6156C31.4587 17.2302 31.293 16.8669 31.0157 16.5983L24.5301 10.0996C24.3898 9.95897 24.3111 9.76848 24.3111 9.56988C24.3111 9.37128 24.3898 9.18079 24.5301 9.04019L29.9995 3.57082C30.2781 3.29217 30.6088 3.07113 30.9728 2.92032C31.3368 2.76951 31.727 2.69189 32.121 2.69189C32.5151 2.69189 32.9052 2.76951 33.2692 2.92032C33.6333 3.07113 33.964 3.29217 34.2426 3.57082L44.122 13.4483C44.4006 13.7269 44.6217 14.0576 44.7725 14.4217C44.9233 14.7857 45.0009 15.1759 45.0009 15.5699C45.0009 15.9639 44.9233 16.3541 44.7725 16.7181C44.6217 17.0821 44.4006 17.4129 44.122 17.6914Z" fill="#FAFAFA"/>
</svg>
