<svg width="48" height="48" viewBox="0 0 48 48" fill="none" xmlns="http://www.w3.org/2000/svg">
<circle cx="10.032" cy="10.032" r="10.032" transform="matrix(-1 0 0 1 26.6895 13.9678)" fill="#131313"/>
<path fill-rule="evenodd" clip-rule="evenodd" d="M46 24C46 16.268 39.732 10 32 10H16C8.26801 10 2 16.268 2 24C2 31.732 8.26801 38 16 38H32C39.732 38 46 31.732 46 24ZM23.25 24C23.25 19.9959 20.0041 16.75 16 16.75C11.9959 16.75 8.75 19.9959 8.75 24C8.75 28.0041 11.9959 31.25 16 31.25C20.0041 31.25 23.25 28.0041 23.25 24Z" fill="#FAFAFA"/>
</svg>
