<svg width="48" height="48" viewBox="0 0 48 48" fill="none" xmlns="http://www.w3.org/2000/svg">
<path d="M22.3984 10.624C22.9579 10.4775 23.551 10.5303 24.0762 10.7725C24.6013 11.0147 25.0256 11.4315 25.2773 11.9521L26.8789 15.1514C28.1548 17.7162 30.1864 19.8284 32.7012 21.2002C36.8553 23.3695 40.0381 27.0266 41.6133 31.4404L42.0938 32.8799C42.2529 33.4706 42.1798 34.1005 41.8906 34.6396C41.6014 35.1783 41.1169 35.5863 40.5371 35.7803C39.9571 35.9741 39.3247 35.9391 38.7695 35.6826C38.2144 35.426 37.779 34.9668 37.5508 34.3994L37.2305 33.4229C36.6127 31.5831 35.615 29.8936 34.3027 28.4639C34.2157 28.3832 34.1011 28.3366 33.9824 28.335C33.9222 28.3414 33.8629 28.3613 33.8105 28.3916C33.7584 28.4219 33.7131 28.4639 33.6777 28.5127L30.3984 33.4229C29.8637 34.2263 29.1535 34.8992 28.3223 35.3896C27.4911 35.88 26.5595 36.1753 25.5977 36.2549L19.7109 36.5439C19.461 36.564 19.2179 36.6418 19.0039 36.7725C18.79 36.903 18.6106 37.0829 18.4785 37.2959L15.5508 41.9678C15.3355 42.312 15.0353 42.596 14.6797 42.792C14.3241 42.988 13.9236 43.0887 13.5176 43.0869C12.9722 43.0799 12.4437 42.8951 12.0137 42.5596C11.5772 42.1621 11.2938 41.6232 11.2148 41.0381C11.136 40.4532 11.2667 39.8592 11.582 39.3604L15.4863 33.1201C15.682 32.8042 15.9489 32.5372 16.2656 32.3428C16.5822 32.1486 16.9405 32.0306 17.3105 31.999L20.0781 31.8076C20.1551 31.8035 20.2287 31.7767 20.291 31.7314C20.3535 31.686 20.402 31.6238 20.4297 31.5518C20.4546 31.4804 20.4584 31.4027 20.4414 31.3291C20.4243 31.2558 20.3874 31.1887 20.334 31.1357L18.4141 29.2158C18.3426 29.1446 18.2574 29.0882 18.1641 29.0498C18.0708 29.0114 17.97 28.991 17.8691 28.9912H17.7734L11.373 29.6475C10.7431 29.7013 10.1166 29.5084 9.62695 29.1084C9.13704 28.7081 8.8226 28.1314 8.75 27.5029C8.68769 26.8713 8.87781 26.2406 9.2793 25.749C9.68117 25.2572 10.2627 24.9445 10.8945 24.8799L17.2148 24.2393H17.7734C19.2505 24.2289 20.6727 24.8039 21.7266 25.8389L23.3262 27.4404C23.3686 27.4803 23.4197 27.511 23.4746 27.5303C23.5296 27.5494 23.5885 27.5566 23.6465 27.5518C23.7062 27.5453 23.7643 27.5271 23.8164 27.4971C23.8686 27.4668 23.9137 27.4248 23.9492 27.376L26.6855 23.2803C26.7465 23.2061 26.7811 23.1126 26.7812 23.0166C26.7812 22.9203 26.7467 22.8254 26.6855 22.751C24.9735 21.2032 23.5668 19.3478 22.541 17.2803L20.9414 13.9834C20.7873 13.6713 20.7041 13.3294 20.6953 12.9814C20.6866 12.6331 20.7521 12.2856 20.8906 11.9658C21.029 11.6465 21.2364 11.3616 21.4961 11.1299C21.7562 10.898 22.0649 10.725 22.3984 10.624Z" fill="#FAFAFA"/>
<path d="M11.3418 4.7998C11.4869 4.80096 11.6301 4.84126 11.7539 4.91699C11.8779 4.99308 11.9799 5.10229 12.0469 5.23145L15.8555 12.6396C15.9136 12.7632 15.9411 12.8997 15.9355 13.0361C15.9299 13.1723 15.8901 13.3047 15.8223 13.4229C15.7505 13.5407 15.6498 13.6388 15.5293 13.7061C15.4088 13.7733 15.2728 13.8084 15.1348 13.8076H12.7988C12.7301 13.8111 12.6639 13.8346 12.6074 13.874C12.5508 13.9136 12.5055 13.9686 12.4785 14.0322C12.4478 14.0886 12.4316 14.1517 12.4316 14.2158C12.4316 14.28 12.4478 14.3431 12.4785 14.3994L15.0547 20.4951C15.0944 20.5804 15.1001 20.6793 15.0703 20.7686C15.0404 20.8575 14.9773 20.9313 14.8945 20.9756C14.8252 21.0342 14.7373 21.0674 14.6465 21.0674C14.5557 21.0673 14.4677 21.0342 14.3984 20.9756L5.99805 11.9521C5.89285 11.8387 5.82328 11.6964 5.79687 11.5439C5.77055 11.3916 5.78876 11.2349 5.84961 11.0928C5.91058 10.9505 6.01198 10.8292 6.14062 10.7432C6.26915 10.6572 6.41961 10.6105 6.57422 10.6084H9.23047C9.3048 10.6098 9.37864 10.5903 9.44336 10.5537C9.50791 10.5171 9.56252 10.4637 9.59961 10.3994C9.63917 10.3377 9.66005 10.2657 9.66016 10.1924C9.66016 10.1187 9.63951 10.0454 9.59961 9.9834L6.60742 6.0791C6.51832 5.96026 6.46256 5.81883 6.44922 5.6709C6.43605 5.52319 6.46493 5.37386 6.53125 5.24121C6.5977 5.10864 6.70002 4.99691 6.82617 4.91895C6.95234 4.84103 7.09781 4.79991 7.24609 4.7998H11.3418Z" fill="#FAFAFA"/>
<path d="M36.2383 11.7275C37.2948 11.7276 38.3076 12.1485 39.0547 12.8955C39.8017 13.6426 40.2227 14.6554 40.2227 15.7119C40.2226 16.7684 39.8017 17.7812 39.0547 18.5283C38.3076 19.2754 37.2948 19.6962 36.2383 19.6963C35.1817 19.6963 34.1671 19.2755 33.4199 18.5283C32.6733 17.7813 32.2539 16.7681 32.2539 15.7119C32.2539 14.6557 32.6733 13.6426 33.4199 12.8955C34.1671 12.1484 35.1817 11.7275 36.2383 11.7275Z" fill="#FAFAFA"/>
</svg>
