<svg width="48" height="48" viewBox="0 0 48 48" fill="none" xmlns="http://www.w3.org/2000/svg">
<path fill-rule="evenodd" clip-rule="evenodd" d="M24 18C26.387 18 28.6755 18.9489 30.3633 20.6367L30.6719 20.959C32.1668 22.6099 33 24.7621 33 27C33 30.8419 27.6237 38.1513 25.1816 41.2754C25.0415 41.4549 24.8629 41.6014 24.6582 41.7012C24.4534 41.8012 24.2278 41.8516 24 41.8516C23.7722 41.8516 23.5466 41.8012 23.3418 41.7012C23.1371 41.6014 22.9585 41.4549 22.8184 41.2754C20.3763 38.1533 15 30.8419 15 27C15 24.7621 15.8332 22.6099 17.3281 20.959L17.6367 20.6367C19.3245 18.9489 21.613 18 24 18ZM24.0098 24.5C22.9691 24.5 22.1123 25.2911 22.0098 26.3047L22 26.5098L22.0098 26.7148C22.113 27.7277 22.9697 28.5195 24.0098 28.5195L24.2148 28.5078C25.2279 28.405 26.019 27.5497 26.0195 26.5098C26.0195 25.4001 25.1195 24.5 24.0098 24.5Z" fill="#FAFAFA"/>
<path fill-rule="evenodd" clip-rule="evenodd" d="M12 3C14.5593 3 16.9871 4.10147 18.7578 6.01758C20.5248 7.93004 21.5 10.5007 21.5 13.1582V14.2422C21.6469 14.2134 21.795 14.1896 21.9434 14.166C19.2582 14.5963 16.7562 15.8595 14.8086 17.8066C12.3964 20.2188 11.0306 23.4823 11.002 26.8906C11.0033 26.7961 11.005 26.7017 11.0078 26.6074C10.9645 26.6468 10.9199 26.6858 10.8711 26.7207C10.197 27.2018 9.26065 27.0451 8.7793 26.3711C7.62973 24.7614 6.08768 22.5032 4.82812 20.1777C3.60545 17.9203 2.5 15.3387 2.5 13.1582C2.50004 10.5007 3.47517 7.93004 5.24219 6.01758C7.01289 4.10147 9.44069 3 12 3ZM11.9824 9.75C10.9173 9.75 9.96484 10.5971 9.96484 11.75C9.96484 12.9029 10.9173 13.75 11.9824 13.75C13.0475 13.75 14 12.9029 14 11.75C14 10.5971 13.0475 9.75 11.9824 9.75Z" fill="#FAFAFA"/>
<path fill-rule="evenodd" clip-rule="evenodd" d="M36 3C38.5593 3 40.9871 4.10147 42.7578 6.01758C44.5248 7.93004 45.5 10.5007 45.5 13.1582C45.5 15.3387 44.3946 17.9203 43.1719 20.1777C41.9123 22.5032 40.3703 24.7614 39.2207 26.3711C38.7393 27.0451 37.803 27.2018 37.1289 26.7207C37.0797 26.6855 37.0339 26.6472 36.9902 26.6074C36.8905 23.302 35.5386 20.1519 33.1934 17.8066C31.2509 15.8641 28.7558 14.6033 26.0781 14.1699C26.2192 14.1926 26.3602 14.2148 26.5 14.2422V13.1582C26.5 10.5007 27.4752 7.93004 29.2422 6.01758C31.0129 4.10147 33.4407 3 36 3ZM36.0176 10.5C34.9526 10.5001 34 11.3472 34 12.5C34 13.6528 34.9526 14.4999 36.0176 14.5C37.0827 14.5 38.0352 13.6529 38.0352 12.5C38.0352 11.3471 37.0827 10.5 36.0176 10.5Z" fill="#FAFAFA"/>
</svg>
