<svg width="32" height="32" viewBox="0 0 32 32" fill="none" xmlns="http://www.w3.org/2000/svg">
<path d="M23.8919 16.1001L23.8893 16.1079C23.7022 16.6104 23.3662 17.0454 22.9258 17.3527C22.4866 17.6589 21.9642 17.8215 21.4284 17.8202H15.6667V25.3332H20.8411C21.2533 24.1686 22.3609 23.3332 23.6667 23.3332C25.3235 23.3332 26.6667 24.6763 26.6667 26.3332C26.6667 27.99 25.3235 29.3332 23.6667 29.3332C22.3609 29.3332 21.2533 28.4978 20.8411 27.3332H14.6927C14.6841 27.3334 14.6754 27.3345 14.6667 27.3345C14.658 27.3345 14.6493 27.3334 14.6406 27.3332H9.82552C9.41335 28.4978 8.30578 29.3332 7 29.3332C5.34315 29.3332 4 27.99 4 26.3332C4.00001 24.6763 5.34315 23.3332 7 23.3332C8.30577 23.3332 9.41335 24.1686 9.82552 25.3332H13.6667V17.8202L7.14844 17.8215C6.85726 17.8219 6.57023 17.7526 6.3125 17.6183C6.05368 17.4834 5.83204 17.2874 5.66536 17.0493C5.49874 16.8113 5.39109 16.5368 5.35156 16.2499C5.31212 15.9631 5.34092 15.6706 5.4362 15.397L5.44401 15.3788L6.0612 13.7147H24.7591L23.8919 16.1001Z" fill="#FAFAFA"/>
<path d="M26.1953 2.66652C26.4128 2.66564 26.6284 2.70406 26.8307 2.7798L27.0312 2.86964L27.2201 2.98292C27.34 3.0656 27.4491 3.16323 27.5456 3.27199L27.681 3.44386L27.7943 3.63136C27.8619 3.76015 27.9141 3.89666 27.9492 4.03761L27.9883 4.25246L28.0026 4.4699C28.0035 4.68563 27.9653 4.90028 27.8906 5.10402L25.487 11.7147H6.80208L9.50781 4.41522C9.68686 3.91354 10.0131 3.47576 10.4453 3.16261C10.883 2.84571 11.4083 2.67177 11.9492 2.66652H26.1953Z" fill="#FAFAFA"/>
</svg>
