<svg width="32" height="32" viewBox="0 0 32 32" fill="none" xmlns="http://www.w3.org/2000/svg">
<path d="M13 2C12.4477 2 12 2.44772 12 3C12 3.55228 12.4477 4 13 4H19C19.5523 4 20 3.55228 20 3C20 2.44772 19.5523 2 19 2H13Z" fill="#FAFAFA"/>
<path fill-rule="evenodd" clip-rule="evenodd" d="M28 17.3333C28 23.9608 22.6274 29.3333 16 29.3333C9.37258 29.3333 4 23.9608 4 17.3333C4 10.7059 9.37258 5.33333 16 5.33333C22.6274 5.33333 28 10.7059 28 17.3333ZM11.2929 14.0404C10.9024 13.6499 10.9024 13.0168 11.2929 12.6262C11.6834 12.2357 12.3166 12.2357 12.7071 12.6262L16.7071 16.6262C17.0976 17.0168 17.0976 17.6499 16.7071 18.0404C16.3166 18.431 15.6834 18.431 15.2929 18.0404L11.2929 14.0404Z" fill="#FAFAFA"/>
</svg>
