<svg width="32" height="32" viewBox="0 0 32 32" fill="none" xmlns="http://www.w3.org/2000/svg">
<path fill-rule="evenodd" clip-rule="evenodd" d="M25.334 3.6665C25.334 3.11422 24.8863 2.6665 24.334 2.6665C23.7817 2.6665 23.334 3.11422 23.334 3.6665V4.33317C23.334 4.88545 22.8863 5.33317 22.334 5.33317H10.334C8.30894 5.33317 6.66732 6.97479 6.66732 8.99984V10.6665H5.00065C2.97561 10.6665 1.33398 12.3081 1.33398 14.3332V25.6665C1.33398 27.6915 2.97561 29.3332 5.00065 29.3332H27.0007C29.0257 29.3332 30.6673 27.6915 30.6673 25.6665V14.3332C30.6673 12.3081 29.0257 10.6665 27.0007 10.6665H8.66732V8.99984C8.66732 8.07936 9.41351 7.33317 10.334 7.33317H22.334C23.9908 7.33317 25.334 5.99002 25.334 4.33317V3.6665ZM13.0007 21.9998C12.4484 21.9998 12.0007 22.4476 12.0007 22.9998C12.0007 23.5521 12.4484 23.9998 13.0007 23.9998H19.0007C19.5529 23.9998 20.0007 23.5521 20.0007 22.9998C20.0007 22.4476 19.5529 21.9998 19.0007 21.9998H13.0007ZM7.66732 18.3332C8.4037 18.3332 9.00065 17.7362 9.00065 16.9998C9.00065 16.2635 8.4037 15.6665 7.66732 15.6665C6.93094 15.6665 6.33398 16.2635 6.33398 16.9998C6.33398 17.7362 6.93094 18.3332 7.66732 18.3332ZM7.66732 24.3332C8.4037 24.3332 9.00065 23.7362 9.00065 22.9998C9.00065 22.2635 8.4037 21.6665 7.66732 21.6665C6.93094 21.6665 6.33398 22.2635 6.33398 22.9998C6.33398 23.7362 6.93094 24.3332 7.66732 24.3332ZM25.6676 16.9998C25.6676 17.7362 25.0707 18.3332 24.3343 18.3332C23.5979 18.3332 23.001 17.7362 23.001 16.9998C23.001 16.2635 23.5979 15.6665 24.3343 15.6665C25.0707 15.6665 25.6676 16.2635 25.6676 16.9998ZM24.3343 24.3332C25.0707 24.3332 25.6676 23.7362 25.6676 22.9998C25.6676 22.2635 25.0707 21.6665 24.3343 21.6665C23.5979 21.6665 23.001 22.2635 23.001 22.9998C23.001 23.7362 23.5979 24.3332 24.3343 24.3332ZM14.334 16.9998C14.334 17.7362 13.737 18.3332 13.0007 18.3332C12.2643 18.3332 11.6673 17.7362 11.6673 16.9998C11.6673 16.2635 12.2643 15.6665 13.0007 15.6665C13.737 15.6665 14.334 16.2635 14.334 16.9998ZM19.0007 18.3332C19.737 18.3332 20.334 17.7362 20.334 16.9998C20.334 16.2635 19.737 15.6665 19.0007 15.6665C18.2643 15.6665 17.6673 16.2635 17.6673 16.9998C17.6673 17.7362 18.2643 18.3332 19.0007 18.3332Z" fill="#FAFAFA"/>
</svg>
