<svg width="32" height="32" viewBox="0 0 32 32" fill="none" xmlns="http://www.w3.org/2000/svg">
<path d="M15.2942 2.96623C15.6847 2.57571 16.3179 2.57571 16.7084 2.96623L20.0417 6.29957C20.4323 6.69009 20.4323 7.32326 20.0417 7.71378C19.6512 8.1043 19.0181 8.1043 18.6275 7.71378L17.0013 6.08755V11C17.0013 11.5523 16.5536 12 16.0013 12C15.449 12 15.0013 11.5523 15.0013 11V6.08755L13.3751 7.71378C12.9846 8.1043 12.3514 8.1043 11.9609 7.71378C11.5703 7.32326 11.5703 6.69009 11.9609 6.29957L15.2942 2.96623Z" fill="#FAFAFA"/>
<path d="M2.67318 27C2.67318 26.4477 3.12089 26 3.67318 26H28.3398C28.8921 26 29.3398 26.4477 29.3398 27C29.3398 27.5523 28.8921 28 28.3398 28H3.67318C3.12089 28 2.67318 27.5523 2.67318 27Z" fill="#FAFAFA"/>
<path d="M3.66797 20.6667C3.11568 20.6667 2.66797 21.1144 2.66797 21.6667C2.66797 22.219 3.11568 22.6667 3.66797 22.6667H5.66797C6.22025 22.6667 6.66797 22.219 6.66797 21.6667C6.66797 21.1144 6.22025 20.6667 5.66797 20.6667H3.66797Z" fill="#FAFAFA"/>
<path d="M26.3346 20.6667C25.7824 20.6667 25.3346 21.1144 25.3346 21.6667C25.3346 22.219 25.7824 22.6667 26.3346 22.6667H28.3346C28.8869 22.6667 29.3346 22.219 29.3346 21.6667C29.3346 21.1144 28.8869 20.6667 28.3346 20.6667H26.3346Z" fill="#FAFAFA"/>
<path d="M21.668 22.6667C22.2203 22.6667 22.668 22.219 22.668 21.6667V21.3333C22.668 17.6514 19.6832 14.6667 16.0013 14.6667C12.3194 14.6667 9.33464 17.6514 9.33464 21.3333V21.6667C9.33464 22.219 9.78235 22.6667 10.3346 22.6667C12.9247 22.6667 16.2708 22.6667 21.668 22.6667Z" fill="#FAFAFA"/>
<path fill-rule="evenodd" clip-rule="evenodd" d="M23.1519 15.334C22.7969 14.9109 22.8521 14.2802 23.2752 13.9252L24.8073 12.6396C25.2303 12.2846 25.8611 12.3398 26.2161 12.7628C26.5711 13.1859 26.5159 13.8167 26.0928 14.1717L24.5608 15.4572C24.1377 15.8122 23.5069 15.7571 23.1519 15.334Z" fill="#FAFAFA"/>
<path fill-rule="evenodd" clip-rule="evenodd" d="M5.78734 12.7628C6.14234 12.3398 6.7731 12.2846 7.19617 12.6396L8.72826 13.9251C9.15134 14.2802 9.20652 14.9109 8.85152 15.334C8.49652 15.7571 7.86576 15.8122 7.44269 15.4572L5.9106 14.1717C5.48752 13.8167 5.43234 13.1859 5.78734 12.7628Z" fill="#FAFAFA"/>
</svg>
