<svg width="32" height="32" viewBox="0 0 32 32" fill="none" xmlns="http://www.w3.org/2000/svg">
<path d="M14.8828 2.66699C15.8551 2.6671 16.788 3.05367 17.4756 3.74121L28.1553 14.4209C29.5871 15.8528 29.5871 18.1745 28.1553 19.6064L19.6064 28.1553C18.1745 29.5871 15.8528 29.5871 14.4209 28.1553L3.74121 17.4756C3.05367 16.788 2.6671 15.8551 2.66699 14.8828V6.33398C2.66699 4.30894 4.30894 2.66699 6.33398 2.66699H14.8828ZM10 8C8.89569 8.00018 8.00018 8.89569 8 10C8 11.1045 8.89558 11.9998 10 12C11.1046 12 12 11.1046 12 10C11.9998 8.89558 11.1045 8 10 8Z" fill="#FAFAFA"/>
</svg>
