<svg width="32" height="32" viewBox="0 0 32 32" fill="none" xmlns="http://www.w3.org/2000/svg">
<path d="M9.22609 4C8.51389 3.99999 7.91942 3.99998 7.43377 4.03965C6.92726 4.08104 6.45172 4.17052 6.00204 4.39964C5.31211 4.75118 4.75118 5.31211 4.39964 6.00204C4.17052 6.45172 4.08104 6.92726 4.03965 7.43377C3.99998 7.91942 3.99999 8.51387 4 9.22607V10.6667L28 10.6667V9.22607C28 8.51387 28 7.91941 27.9603 7.43377C27.919 6.92726 27.8295 6.45172 27.6004 6.00204C27.2488 5.31211 26.6879 4.75118 25.998 4.39964C25.5483 4.17052 25.0727 4.08104 24.5662 4.03965C24.0806 3.99998 23.4861 3.99999 22.7739 4H9.22609Z" fill="#FAFAFA"/>
<path d="M4 19.3333V12.6667L28 12.6667V19.3333L4 19.3333Z" fill="#FAFAFA"/>
<path d="M4 21.3333V22.7739C3.99999 23.4861 3.99998 24.0806 4.03965 24.5662C4.08104 25.0727 4.17052 25.5483 4.39964 25.998C4.75118 26.6879 5.31211 27.2488 6.00204 27.6004C6.45172 27.8295 6.92726 27.919 7.43377 27.9603C7.91941 28 8.51387 28 9.22607 28H22.7739C23.4861 28 24.0806 28 24.5662 27.9603C25.0727 27.919 25.5483 27.8295 25.998 27.6004C26.6879 27.2488 27.2488 26.6879 27.6004 25.998C27.8295 25.5483 27.919 25.0727 27.9603 24.5662C28 24.0806 28 23.4861 28 22.7739V21.3333L4 21.3333Z" fill="#FAFAFA"/>
</svg>
