<svg width="32" height="32" viewBox="0 0 32 32" fill="none" xmlns="http://www.w3.org/2000/svg">
<path d="M20.0153 3.67562C20.4582 3.71962 20.8749 3.9155 21.1924 4.23291L27.7679 10.8084L27.8968 10.9504C28.1788 11.2946 28.3343 11.728 28.3343 12.1769V19.8228C28.3343 20.3359 28.1308 20.8284 27.7679 21.1912L21.1924 27.7668L21.0505 27.8944C20.7553 28.1364 20.3951 28.2863 20.0153 28.3241L19.8239 28.3332H12.1755C11.7263 28.3331 11.2932 28.1768 10.9489 27.8944L10.807 27.7668L4.23145 21.1912C3.86875 20.8284 3.66504 20.3358 3.66504 19.8228V12.1769C3.66504 11.6639 3.86876 11.1713 4.23145 10.8084L10.807 4.23291C11.1698 3.87014 11.6624 3.66661 12.1755 3.6665H19.8239L20.0153 3.67562Z" fill="#FAFAFA"/>
<path d="M16.0003 10.6665C16.5526 10.6665 17.0003 11.1142 17.0003 11.6665V16.9998C17.0003 17.5521 16.5526 17.9998 16.0003 17.9998C15.448 17.9998 15.0003 17.5521 15.0003 16.9998V11.6665C15.0003 11.1142 15.448 10.6665 16.0003 10.6665Z" fill="black"/>
<path d="M17.3337 20.6668C17.3337 21.4032 16.7367 22.0002 16.0003 22.0002C15.2639 22.0002 14.667 21.4032 14.667 20.6668C14.667 19.9305 15.2639 19.3335 16.0003 19.3335C16.7367 19.3335 17.3337 19.9305 17.3337 20.6668Z" fill="black"/>
</svg>
