<svg width="32" height="32" viewBox="0 0 32 32" fill="none" xmlns="http://www.w3.org/2000/svg">
<path d="M23.0007 23.3333C22.4484 23.3333 22.0007 23.781 22.0007 24.3333C22.0007 24.8856 22.4484 25.3333 23.0007 25.3333H26.0007C26.5529 25.3333 27.0007 24.8856 27.0007 24.3333C27.0007 23.781 26.5529 23.3333 26.0007 23.3333H23.0007Z" fill="#FAFAFA"/>
<path fill-rule="evenodd" clip-rule="evenodd" d="M7.66732 4C5.64227 4 4.00065 5.64162 4.00065 7.66667V21.3333H2.33398C1.7817 21.3333 1.33398 21.781 1.33398 22.3333V24.3333C1.33398 26.3584 2.97561 28 5.00065 28H18.8388C19.5113 28.8143 20.5287 29.3333 21.6673 29.3333H27.0007C29.0257 29.3333 30.6673 27.6917 30.6673 25.6667V14.3333C30.6673 12.655 29.5397 11.24 28.0007 10.8047V7.66667C28.0007 5.64162 26.359 4 24.334 4H7.66732ZM20.0007 14.3333C20.0007 13.4129 20.7468 12.6667 21.6673 12.6667H27.0007C27.9211 12.6667 28.6673 13.4129 28.6673 14.3333V25.6667C28.6673 26.5871 27.9211 27.3333 27.0007 27.3333H21.6673C20.7468 27.3333 20.0007 26.5871 20.0007 25.6667V14.3333ZM3.33398 23.3333H18.0007V25.6667C18.0007 25.779 18.0057 25.8902 18.0156 26H5.00065C4.08018 26 3.33398 25.2538 3.33398 24.3333V23.3333Z" fill="#FAFAFA"/>
</svg>
