<svg width="32" height="32" viewBox="0 0 32 32" fill="none" xmlns="http://www.w3.org/2000/svg">
<path fill-rule="evenodd" clip-rule="evenodd" d="M18.1543 3.62695C18.7063 3.62723 19.1543 4.07614 19.1543 4.62826C19.1539 5.18007 18.7061 5.62797 18.1543 5.62826H15.3053V8.76107H20.9395C22.4546 8.76107 23.6828 9.9907 23.6829 11.5059V13.5827H27.3327C27.8849 13.5827 28.3325 14.0305 28.3327 14.5827V17.7285C28.3321 18.2803 27.8846 18.7285 27.3327 18.7285H23.6829V20.8053C23.6825 22.3202 22.4544 23.5488 20.9395 23.5488H18.2233V26.2181C18.2233 26.2709 18.2182 26.3225 18.2103 26.373H24.9993C25.5514 26.373 25.999 26.821 25.9993 27.373C25.9993 27.9253 25.5516 28.373 24.9993 28.373H3.66602C3.11373 28.373 2.66602 27.9253 2.66602 27.373C2.66632 26.821 3.11392 26.373 3.66602 26.373H10.8001C10.7923 26.3225 10.7884 26.2708 10.7884 26.2181V23.5488H9.31575C6.1958 23.5488 3.66637 21.019 3.66602 17.8991V14.4121C3.66606 11.292 6.19561 8.76107 9.31575 8.76107H13.3053V5.62826H10.4551C9.90301 5.62826 9.45543 5.18024 9.45508 4.62826C9.45508 4.07597 9.90279 3.62695 10.4551 3.62695H18.1543ZM17.3288 14.1868C16.7765 14.1868 16.3288 14.6346 16.3288 15.1868C16.3295 15.7385 16.7769 16.1868 17.3288 16.1868H17.5345C17.0229 16.5965 16.4773 16.8605 16.0189 16.8509C16.0047 16.8506 15.9888 16.8506 15.9746 16.8509C15.2748 16.8658 15.2111 16.6158 14.8249 16.0566C14.0381 14.9183 12.6694 14.2805 11.3574 14.2949L11.3587 14.2936C11.3516 14.2935 11.3437 14.295 11.3366 14.2949C11.3299 14.295 11.3224 14.2948 11.3158 14.2949C10.087 14.2819 8.809 14.8404 8.00586 15.847L7.84961 16.0566C7.53601 16.5108 7.6497 17.1346 8.10352 17.4486C8.52933 17.7422 9.10432 17.6607 9.43294 17.2754L9.49544 17.1934C9.88223 16.6338 10.6158 16.2772 11.3158 16.2923C11.3298 16.2926 11.3447 16.2926 11.3587 16.2923C12.0585 16.2773 12.7922 16.6342 13.179 17.1934C13.9652 18.3311 14.6632 18.8647 15.9746 18.8509C15.979 18.8509 15.9846 18.8496 15.9889 18.8496C15.9985 18.8495 16.0093 18.8511 16.0189 18.8509L16.0176 18.8496C17.2129 18.8595 18.268 18.2007 18.9941 17.571V17.8522C18.9951 18.4037 19.4424 18.8522 19.9941 18.8522C20.5454 18.8517 20.9932 18.4034 20.9941 17.8522V15.1868C20.9941 15.1268 20.9874 15.0669 20.9772 15.0098C20.9646 14.9391 20.9452 14.8686 20.9173 14.8014C20.9077 14.7785 20.8934 14.757 20.8822 14.735C20.8357 14.6436 20.7774 14.555 20.7012 14.4785C20.6222 14.3996 20.5304 14.3405 20.4355 14.2936C20.4156 14.2837 20.3962 14.271 20.3757 14.2624C20.3518 14.2525 20.3259 14.2468 20.3014 14.2389C20.2044 14.2074 20.1016 14.187 19.9941 14.1868H17.3288Z" fill="#FAFAFA"/>
</svg>
