<svg width="32" height="32" viewBox="0 0 32 32" fill="none" xmlns="http://www.w3.org/2000/svg">
<path fill-rule="evenodd" clip-rule="evenodd" d="M25.8555 12.1081C27.496 12.1084 28.8255 13.439 28.8255 15.0795V25.918C28.8254 27.5585 27.4959 28.889 25.8555 28.8893H6.14714C4.5065 28.8893 3.17592 27.5587 3.17578 25.918V15.0795C3.17581 13.4387 4.50642 12.1081 6.14714 12.1081H25.8555ZM14.0299 16.0495C13.9608 16.0495 13.8933 16.057 13.8281 16.0703C13.3727 16.1637 13.03 16.5664 13.0299 17.0495V23.9479C13.0301 24.1547 13.0929 24.347 13.2005 24.5065C13.2725 24.6133 13.3647 24.7053 13.4714 24.7774C13.6309 24.8851 13.8231 24.9479 14.0299 24.9479C14.2368 24.9479 14.429 24.8851 14.5885 24.7774C14.6952 24.7053 14.7874 24.6133 14.8594 24.5065C14.967 24.347 15.0298 24.1547 15.0299 23.9479V17.0495C15.0299 16.5664 14.6872 16.1637 14.2318 16.0703C14.1666 16.057 14.0991 16.0495 14.0299 16.0495ZM18.4635 16.0495C18.3944 16.0495 18.3269 16.057 18.2617 16.0703C17.8063 16.1637 17.4636 16.5664 17.4635 17.0495V23.9479C17.4637 24.1547 17.5265 24.347 17.6341 24.5065C17.7061 24.6133 17.7983 24.7053 17.9049 24.7774C18.0644 24.8851 18.2567 24.9479 18.4635 24.9479C18.6704 24.9479 18.8626 24.8851 19.0221 24.7774C19.1288 24.7053 19.2209 24.6133 19.293 24.5065C19.4006 24.347 19.4634 24.1547 19.4635 23.9479V17.0495C19.4635 16.5664 19.1208 16.1637 18.6654 16.0703C18.6002 16.057 18.5327 16.0495 18.4635 16.0495ZM22.8984 16.0495C22.8293 16.0495 22.7618 16.057 22.6966 16.0703C22.2411 16.1637 21.8985 16.5664 21.8984 17.0495V23.9479C21.8985 24.1547 21.9614 24.347 22.069 24.5065C22.141 24.6133 22.2332 24.7053 22.3398 24.7774C22.4993 24.8851 22.6916 24.9479 22.8984 24.9479C23.1053 24.9479 23.2975 24.8851 23.457 24.7774C23.5637 24.7053 23.6558 24.6133 23.7279 24.5065C23.8355 24.347 23.8983 24.1547 23.8984 23.9479V17.0495C23.8984 16.5664 23.5557 16.1637 23.1003 16.0703C23.035 16.057 22.9676 16.0495 22.8984 16.0495ZM8.50521 16.0547C8.4082 16.0614 8.31369 16.0772 8.22266 16.1016C7.85902 16.1988 7.54962 16.4295 7.35156 16.7383C7.30198 16.8156 7.26007 16.8982 7.22526 16.9844C7.15574 17.1565 7.11727 17.3446 7.11719 17.5417C7.11719 18.3308 7.72976 18.9748 8.50521 19.0287C8.53949 19.0322 8.57416 19.0352 8.60938 19.0352C8.64415 19.0352 8.67838 19.0321 8.71224 19.0287C9.48851 18.9757 10.1016 18.3314 10.1016 17.5417C10.1012 16.7522 9.48835 16.1076 8.71224 16.0547C8.67843 16.0513 8.6441 16.0495 8.60938 16.0495C8.57421 16.0495 8.53944 16.0512 8.50521 16.0547Z" fill="#FAFAFA"/>
<path d="M9.30339 2.62893C9.64841 2.19826 10.2773 2.12809 10.7083 2.47268C11.1392 2.81772 11.2094 3.44779 10.8646 3.87893C10.4312 4.42072 10.464 4.6496 10.4714 4.69664C10.4914 4.82295 10.575 4.96542 10.8737 5.35029C11.108 5.65219 11.5582 6.19824 11.6719 6.9206C11.7978 7.7229 11.4982 8.50607 10.8646 9.2982C10.5197 9.72926 9.89088 9.7989 9.45964 9.45445C9.02842 9.10946 8.95845 8.48076 9.30339 8.0495C9.73516 7.50974 9.70416 7.28006 9.69661 7.2318C9.67673 7.10534 9.59337 6.96226 9.29427 6.57685C9.05997 6.27496 8.60841 5.72928 8.49479 5.00654C8.3688 4.20414 8.6696 3.42116 9.30339 2.62893Z" fill="#FAFAFA"/>
<path d="M15.2161 2.62893C15.5612 2.19826 16.19 2.12809 16.6211 2.47268C17.052 2.81772 17.1221 3.44779 16.7773 3.87893C16.344 4.42072 16.3767 4.6496 16.3841 4.69664C16.4042 4.82295 16.4878 4.96542 16.7865 5.35029C17.0208 5.65219 17.471 6.19824 17.5846 6.9206C17.7106 7.7229 17.411 8.50607 16.7773 9.2982C16.4325 9.72926 15.8036 9.7989 15.3724 9.45445C14.9412 9.10946 14.8712 8.48076 15.2161 8.0495C15.6479 7.50974 15.6169 7.28006 15.6094 7.2318C15.5895 7.10534 15.5061 6.96226 15.207 6.57685C14.9727 6.27496 14.5212 5.72928 14.4076 5.00654C14.2816 4.20414 14.5824 3.42116 15.2161 2.62893Z" fill="#FAFAFA"/>
<path d="M21.1289 2.62893C21.4739 2.19826 22.1028 2.1281 22.5339 2.47268C22.9648 2.81772 23.0349 3.44779 22.6901 3.87893C22.2567 4.42072 22.2895 4.64959 22.2969 4.69664C22.3169 4.82295 22.4005 4.96541 22.6992 5.35029C22.9335 5.65219 23.3837 6.19824 23.4974 6.9206C23.6234 7.7229 23.3237 8.50605 22.6901 9.2982C22.3453 9.72928 21.7164 9.79891 21.2852 9.45445C20.8539 9.10947 20.784 8.48077 21.1289 8.0495C21.5607 7.50973 21.5297 7.28006 21.5221 7.2318C21.5023 7.10533 21.4189 6.96224 21.1198 6.57685C20.8855 6.27496 20.4339 5.72928 20.3203 5.00654C20.1943 4.20414 20.4951 3.42116 21.1289 2.62893Z" fill="#FAFAFA"/>
</svg>
