<svg width="32" height="32" viewBox="0 0 32 32" fill="none" xmlns="http://www.w3.org/2000/svg">
<path fill-rule="evenodd" clip-rule="evenodd" d="M16.0013 3.75098C15.4517 3.75098 14.9215 3.94222 14.5 4.28743L14.3268 4.44368L4.44401 14.3265C4.00066 14.7705 3.75146 15.3722 3.7513 15.9997C3.7513 16.6274 4.00049 17.23 4.44401 17.6742L14.3255 27.5557C15.1927 28.4229 16.5658 28.4786 17.4961 27.7184L17.6758 27.5557L27.5586 17.6742C28.0038 17.2284 28.25 16.625 28.25 15.9997C28.2498 15.3722 28.0007 14.7705 27.5573 14.3265L17.6745 4.44368C17.2305 4.0003 16.6288 3.75113 16.0013 3.75098ZM15.2943 10.9176C15.6848 10.5271 16.3178 10.5271 16.7083 10.9176C17.0988 11.3082 17.0988 11.9412 16.7083 12.3317L14.0404 14.9997H21.0013C21.5536 14.9997 22.0013 15.4474 22.0013 15.9997C22.0012 16.5519 21.5535 16.9997 21.0013 16.9997H14.0404L16.7083 19.6676C17.0988 20.0582 17.0988 20.6912 16.7083 21.0817C16.3178 21.4721 15.6848 21.4721 15.2943 21.0817L10.9193 16.7067C10.8768 16.6642 10.8405 16.6176 10.8073 16.57C10.7662 16.5112 10.7309 16.4483 10.7031 16.3812C10.6754 16.3141 10.6557 16.2447 10.6432 16.1742C10.6332 16.1174 10.6263 16.0593 10.6263 15.9997C10.6263 15.9392 10.6329 15.8801 10.6432 15.8226C10.6558 15.7525 10.6755 15.6835 10.7031 15.6169C10.7192 15.578 10.741 15.5424 10.7617 15.5062C10.8049 15.4306 10.8548 15.3572 10.9193 15.2926L15.2943 10.9176Z" fill="#FAFAFA"/>
</svg>
