<svg width="32" height="32" viewBox="0 0 32 32" fill="none" xmlns="http://www.w3.org/2000/svg">
<path fill-rule="evenodd" clip-rule="evenodd" d="M14.2103 1.82552C14.2535 1.82569 14.2961 1.82785 14.3379 1.83333C14.3449 1.83427 14.3517 1.83615 14.3587 1.83724C14.3871 1.84158 14.4145 1.8488 14.4421 1.85547C14.4554 1.85872 14.4692 1.86081 14.4824 1.86458L28.5788 6.65104C29.0079 6.7738 29.304 7.16691 29.304 7.61328V10.8125C29.3037 11.3644 28.856 11.8124 28.304 11.8125H26.903V13.7214C26.903 13.7319 26.902 13.7434 26.9017 13.7539C26.8944 13.983 26.9497 14.2108 27.0605 14.4115C27.1704 14.6101 27.3314 14.7763 27.5267 14.8919C28.0431 15.1701 28.4796 15.5774 28.7923 16.0742C29.112 16.5824 29.2922 17.1669 29.3132 17.7669C29.3339 18.3668 29.1944 18.9618 28.9108 19.4909C28.6271 20.02 28.2085 20.4652 27.6973 20.7799C27.1859 21.0947 26.5997 21.2689 25.9993 21.2839C25.3993 21.2988 24.8056 21.1546 24.2793 20.8659C23.7531 20.5771 23.3117 20.1535 23.002 19.6393C22.6923 19.125 22.5241 18.5365 22.515 17.9362C22.5067 17.3842 22.9475 16.9293 23.4993 16.9206C24.0516 16.9123 24.5067 17.354 24.515 17.9062C24.5188 18.1532 24.5881 18.3952 24.7155 18.6068C24.843 18.8185 25.0249 18.9931 25.2415 19.112C25.4582 19.2308 25.7028 19.2913 25.9499 19.2852C26.1969 19.279 26.4386 19.2063 26.6491 19.0768C26.8593 18.9473 27.0323 18.7644 27.1491 18.5469C27.2658 18.3291 27.323 18.0829 27.3145 17.8359C27.3058 17.5891 27.2311 17.3484 27.0996 17.1393C26.968 16.9302 26.7833 16.7592 26.5645 16.6445C26.5506 16.6373 26.5363 16.629 26.5228 16.6211C26.0139 16.3234 25.5943 15.8936 25.3092 15.3776C25.06 14.926 24.921 14.4223 24.903 13.9089V11.8125H15.2064V18.7995C15.2062 18.8099 15.2068 18.8203 15.2064 18.8307V28.1758H28.5814C29.1337 28.1758 29.5814 28.6235 29.5814 29.1758C29.581 29.7278 29.1334 30.1758 28.5814 30.1758H3.41992C2.86785 30.1758 2.42027 29.7278 2.41992 29.1758C2.41992 28.6235 2.86764 28.1758 3.41992 28.1758H8.4069V11.8125H4.62044C4.06837 11.8125 3.62079 11.3645 3.62044 10.8125V7.61328C3.62044 7.34828 3.72616 7.09374 3.91341 6.90625L8.68685 2.13151C8.73956 2.07679 8.79869 2.0286 8.86263 1.98698C8.90591 1.95881 8.95112 1.93386 8.99805 1.91276C9.01869 1.90349 9.04049 1.8972 9.06185 1.88932C9.09474 1.87714 9.12805 1.86675 9.16211 1.85807C9.19306 1.85026 9.22383 1.84079 9.25586 1.83594L9.26367 1.83464C9.31043 1.82793 9.35829 1.82422 9.4069 1.82422H14.2077L14.2103 1.82552ZM10.4069 27.3984V28.1758H13.2064V23.0508L10.4069 27.3984ZM10.4069 23.7018L13.2064 19.3555V19.0703L10.4069 14.6029V23.7018ZM11.0228 11.819L13.2064 15.3047V11.8125H11.0176C11.0191 11.8148 11.0213 11.8167 11.0228 11.819ZM11.4577 9.8125H13.2064V6.58333L11.4577 9.8125ZM10.4069 7.55339L12.4264 3.82552H10.4069V7.55339Z" fill="#FAFAFA"/>
</svg>
