<svg width="32" height="32" viewBox="0 0 32 32" fill="none" xmlns="http://www.w3.org/2000/svg">
<path fill-rule="evenodd" clip-rule="evenodd" d="M23.5234 2.5C23.5336 2.50017 23.5463 2.50081 23.5612 2.5013C23.5912 2.5023 23.6309 2.50442 23.6784 2.50781C23.7732 2.51459 23.9026 2.52675 24.0547 2.55208C24.3544 2.60204 24.7696 2.70454 25.1966 2.91797C25.6277 3.13353 26.0899 3.4727 26.4414 4C26.7971 4.53356 27 5.20002 27 6V26.0234C26.9998 26.0336 26.9992 26.0463 26.9987 26.0612C26.9977 26.0912 26.9956 26.1309 26.9922 26.1784C26.9854 26.2732 26.9733 26.4026 26.9479 26.5547C26.898 26.8544 26.7955 27.2696 26.582 27.6966C26.3665 28.1277 26.0273 28.5899 25.5 28.9414C24.9664 29.2971 24.3 29.5 23.5 29.5H8.47656C8.46636 29.4998 8.45372 29.4992 8.4388 29.4987C8.40875 29.4977 8.36914 29.4956 8.32161 29.4922C8.22676 29.4854 8.09743 29.4733 7.94531 29.4479C7.64557 29.398 7.23042 29.2955 6.80339 29.082C6.37226 28.8665 5.91013 28.5273 5.55859 28C5.20289 27.4664 5 26.8 5 26V5.97656C5.00017 5.96636 5.00081 5.95372 5.0013 5.9388C5.0023 5.90875 5.00442 5.86914 5.00781 5.82161C5.01459 5.72676 5.02675 5.59743 5.05208 5.44531C5.10204 5.14557 5.20454 4.73042 5.41797 4.30339C5.63353 3.87226 5.9727 3.41013 6.5 3.05859C7.03356 2.70289 7.70002 2.5 8.5 2.5H23.5234ZM11 22.5C10.4477 22.5 10 22.9477 10 23.5C10 24.0523 10.4477 24.5 11 24.5H11.013C11.5651 24.4997 12.013 24.0521 12.013 23.5C12.013 22.9479 11.5651 22.5003 11.013 22.5H11ZM16 22.5C15.4477 22.5 15 22.9477 15 23.5C15 24.0523 15.4477 24.5 16 24.5H16.013C16.5651 24.4997 17.013 24.0521 17.013 23.5C17.013 22.9479 16.5651 22.5003 16.013 22.5H16ZM21 17.5C20.4477 17.5 20 17.9477 20 18.5V23.5C20 24.0523 20.4477 24.5 21 24.5C21.5523 24.5 22 24.0523 22 23.5V18.5C22 17.9477 21.5523 17.5 21 17.5ZM11 17.5C10.4477 17.5 10 17.9477 10 18.5C10 19.0523 10.4477 19.5 11 19.5H11.013C11.5651 19.4997 12.013 19.0521 12.013 18.5C12.013 17.9479 11.5651 17.5003 11.013 17.5H11ZM16 17.5C15.4477 17.5 15 17.9477 15 18.5C15 19.0523 15.4477 19.5 16 19.5H16.013C16.5651 19.4997 17.013 19.0521 17.013 18.5C17.013 17.9479 16.5651 17.5003 16.013 17.5H16ZM11 12.5C10.4477 12.5 10 12.9477 10 13.5C10 14.0523 10.4477 14.5 11 14.5H11.013C11.5651 14.4997 12.013 14.0521 12.013 13.5C12.013 12.9479 11.5651 12.5003 11.013 12.5H11ZM16 12.5C15.4477 12.5 15 12.9477 15 13.5C15 14.0523 15.4477 14.5 16 14.5H16.013C16.5651 14.4997 17.013 14.0521 17.013 13.5C17.013 12.9479 16.5651 12.5003 16.013 12.5H16ZM21 12.5C20.4477 12.5 20 12.9477 20 13.5C20 14.0523 20.4477 14.5 21 14.5H21.013C21.5651 14.4997 22.013 14.0521 22.013 13.5C22.013 12.9479 21.5651 12.5003 21.013 12.5H21ZM11 7.5C10.4477 7.5 10 7.94772 10 8.5C10 9.05228 10.4477 9.5 11 9.5H21C21.5523 9.5 22 9.05228 22 8.5C22 7.94772 21.5523 7.5 21 7.5H11Z" fill="#FAFAFA"/>
</svg>
