<svg width="32" height="32" viewBox="0 0 32 32" fill="none" xmlns="http://www.w3.org/2000/svg">
<path d="M13.7009 5.33325H18.2991L18.9058 11.9999H13.0942L13.7009 5.33325ZM12.8515 14.6666H19.1484L19.7551 21.3333H17.2133V23.9999H19.6398C20.3099 23.9999 20.8531 24.5969 20.8531 25.3333C20.8531 26.0697 20.3099 26.6666 19.6398 26.6666H12.3602C11.6901 26.6666 11.1469 26.0697 11.1469 25.3333C11.1469 24.5969 11.6901 23.9999 12.3602 23.9999H14.7867V21.3333H12.2449L12.8515 14.6666ZM21.5871 14.6666L22.1937 21.3333H26.1795C27.3279 21.3333 28.1892 20.1786 27.9641 18.941L27.1861 14.6666H21.5871ZM20.7378 5.33325L21.3445 11.9999H26.7008L25.8776 7.47694C25.6508 6.23048 24.6549 5.33325 23.4982 5.33325H20.7378ZM11.2622 5.33325H8.50174C7.34504 5.33325 6.34915 6.23048 6.12231 7.47694L5.29918 11.9999H10.6555L11.2622 5.33325ZM10.4129 14.6666H4.81387L4.03596 18.941C3.81074 20.1786 4.67207 21.3333 5.82052 21.3333H9.80626L10.4129 14.6666Z" fill="#FAFAFA"/>
</svg>
