<svg width="32" height="32" viewBox="0 0 32 32" fill="none" xmlns="http://www.w3.org/2000/svg">
<path d="M19.6652 16.833V17.083C19.6652 17.8123 19.3749 18.5113 18.8592 19.0271C18.3435 19.5428 17.6446 19.833 16.9152 19.833H16.6652V19.583C16.6653 18.8538 16.9556 18.1547 17.4712 17.639C17.9869 17.1234 18.686 16.8331 19.4152 16.833H19.6652Z" fill="#FAFAFA"/>
<path d="M11.9152 14.333L12.1874 14.3461C12.8167 14.4086 13.4081 14.688 13.8592 15.139C14.3749 15.6547 14.6651 16.3538 14.6652 17.083V17.333H14.4152C13.6859 17.333 12.9869 17.0427 12.4712 16.5271C11.9557 16.0114 11.6652 15.3123 11.6652 14.583V14.333H11.9152Z" fill="#FAFAFA"/>
<path fill-rule="evenodd" clip-rule="evenodd" d="M15.1053 2.37732C15.4728 2.28307 15.8577 2.28309 16.2251 2.37732C16.6483 2.48584 17.0147 2.7512 17.3579 3.00101C17.3872 3.02231 17.4162 3.04386 17.4452 3.06482L28.591 11.1299C29.0289 11.4469 29.1297 12.0622 28.8163 12.5049C28.5027 12.9476 27.8937 13.0496 27.4556 12.7328L26.0715 11.7328V22.4867C26.0715 23.1886 26.0724 23.7749 26.0337 24.2536C25.9934 24.753 25.9057 25.223 25.6822 25.6664C25.3392 26.3465 24.7913 26.8993 24.1184 27.2458C23.6797 27.4716 23.2153 27.5605 22.7212 27.6013C22.2477 27.6403 21.6681 27.6404 20.9738 27.6403H10.3579C9.66333 27.6404 9.08296 27.6404 8.60925 27.6013C8.11512 27.5605 7.6508 27.4717 7.21211 27.2458C6.53911 26.8993 5.99128 26.3465 5.64831 25.6664C5.42477 25.223 5.33842 24.753 5.29805 24.2536C5.25937 23.7749 5.25897 23.1887 5.25899 22.4867V11.7328L3.87617 12.7328C3.43806 13.0498 2.82784 12.9477 2.51419 12.5049C2.20093 12.0623 2.30175 11.4469 2.73945 11.1299L13.8853 3.06482C13.9143 3.04383 13.9445 3.02234 13.9738 3.00101C14.3169 2.75135 14.6825 2.4858 15.1053 2.37732ZM10.798 12.333C10.1727 12.3334 9.66572 12.8406 9.66524 13.4659V14.583C9.66524 15.8427 10.1652 17.0516 11.0559 17.9424C11.9466 18.8332 13.1555 19.333 14.4152 19.333H14.6717C14.6674 19.416 14.6652 19.4996 14.6652 19.583V25.6677H16.6652V21.833H16.9152C18.175 21.833 19.3838 21.3332 20.2746 20.4424C21.1096 19.6073 21.6018 18.4926 21.66 17.3187L21.6652 17.083V15.9659C21.6648 15.3405 21.1578 14.8333 20.5324 14.833H19.4152C18.3524 14.8331 17.3259 15.1894 16.496 15.8356C16.2806 15.0442 15.8646 14.3137 15.2746 13.7237C14.3838 12.833 13.1749 12.333 11.9152 12.333H10.798Z" fill="#FAFAFA"/>
</svg>
