<svg width="32" height="32" viewBox="0 0 32 32" fill="none" xmlns="http://www.w3.org/2000/svg">
<path d="M23.749 24.3817C23.932 24.3818 24.1116 24.43 24.2711 24.5197C24.4309 24.6097 24.5654 24.7393 24.6604 24.896C24.9533 25.344 25.3409 25.7222 25.7959 26.0041C26.2509 26.286 26.7629 26.4649 27.2946 26.5276C27.3938 26.5378 27.4947 26.5378 27.594 26.5276H27.7321C27.9909 26.525 28.2428 26.6166 28.4391 26.7854C28.6352 26.9541 28.7635 27.1893 28.7998 27.4455C28.8254 27.5888 28.8214 27.7361 28.788 27.8778C28.7547 28.0195 28.6925 28.1529 28.6058 28.2697C28.5188 28.3867 28.4078 28.4847 28.2815 28.5575C28.1554 28.6301 28.0159 28.6763 27.8714 28.6929C27.6689 28.7035 27.4658 28.7035 27.2633 28.6929C26.021 28.6564 24.8359 28.1625 23.9352 27.3062C23.9142 27.2817 23.8879 27.2618 23.8584 27.2489C23.8289 27.2361 23.7967 27.2307 23.7646 27.232C23.6987 27.2319 23.6349 27.2545 23.5836 27.2958C22.599 28.1961 21.3123 28.6944 19.9781 28.6929C19.3469 28.6963 18.721 28.5746 18.137 28.3348C17.553 28.095 17.0212 27.7419 16.5745 27.2958C16.5252 27.2498 16.4609 27.2235 16.3935 27.2216C16.3313 27.2239 16.2713 27.2462 16.2229 27.2854C15.1608 28.177 13.8232 28.6741 12.4365 28.6929C11.0764 28.6741 9.77181 28.1498 8.77763 27.2216C8.75416 27.1973 8.72549 27.1771 8.69429 27.1643C8.66336 27.1517 8.63004 27.1454 8.59664 27.146C8.53451 27.1483 8.47444 27.1708 8.42606 27.2098C7.4016 28.1296 6.08927 28.6659 4.71382 28.7255C4.51841 28.7361 4.322 28.7361 4.12658 28.7255C3.84391 28.707 3.58043 28.5764 3.39351 28.3635C3.20648 28.1504 3.1108 27.8716 3.12919 27.5888C3.14764 27.3061 3.27838 27.0426 3.49117 26.8557C3.70421 26.6686 3.98301 26.573 4.26591 26.5914H4.4469C4.54974 26.6019 4.65395 26.6019 4.75679 26.5914C5.97921 26.4184 7.08994 25.7848 7.86096 24.8205C7.96334 24.7009 8.09103 24.605 8.23466 24.5406C8.37845 24.4761 8.53543 24.445 8.69299 24.4481C8.87113 24.4444 9.04777 24.4847 9.20601 24.5666C9.36428 24.6486 9.49945 24.7692 9.59924 24.9169C9.92269 25.3825 10.3486 25.7677 10.844 26.0432C11.3394 26.3186 11.8912 26.4776 12.4573 26.5067C13.0807 26.4636 13.6885 26.289 14.2399 25.995C14.7913 25.7009 15.2747 25.2935 15.6578 24.7997C15.7593 24.6713 15.8889 24.5679 16.0367 24.4976C16.1846 24.4274 16.347 24.3923 16.5107 24.3947C16.7119 24.3883 16.9113 24.4387 17.0849 24.5406C17.2585 24.6425 17.3999 24.7915 17.4925 24.9703C17.7321 25.4247 18.0893 25.807 18.5263 26.077C18.9632 26.347 19.4647 26.4956 19.9781 26.5067C20.5503 26.4942 21.1111 26.341 21.6097 26.0601C22.1081 25.7792 22.5292 25.3789 22.8362 24.896C22.9313 24.7393 23.0658 24.6097 23.2255 24.5197C23.3852 24.4299 23.5657 24.3817 23.749 24.3817Z" fill="#FAFAFA"/>
<path d="M5.04455 18.4429C6.46319 18.4429 8.15917 20.448 14.0042 22.4C15.0373 22.6926 16.1108 22.8223 17.1839 22.7841C18.3729 22.7864 19.5579 22.6461 20.7138 22.3674C20.8921 22.3238 21.0747 22.2992 21.2581 22.2932C21.5359 22.2724 21.8105 22.3614 22.0237 22.5406C22.2369 22.7199 22.3715 22.9755 22.3987 23.2528C22.0339 23.4631 21.7262 23.7605 21.5029 24.1174C21.3374 24.3574 21.1189 24.5562 20.8636 24.6968C20.6081 24.8375 20.3229 24.9158 20.0315 24.9273C19.8109 24.9169 19.5961 24.8497 19.4091 24.732C19.2224 24.6142 19.0697 24.4498 18.9651 24.2554C18.752 23.8548 18.4406 23.514 18.0615 23.2645C17.6824 23.0153 17.2467 22.8655 16.7946 22.8283C16.3422 22.7912 15.8877 22.8681 15.4729 23.0523C15.0582 23.2365 14.6965 23.5225 14.4209 23.883C13.9436 24.4796 13.249 24.863 12.4899 24.9494C12.1846 24.9154 11.8898 24.8161 11.6266 24.6578C11.3634 24.4994 11.1383 24.2851 10.9651 24.0315C10.7217 23.6584 10.3872 23.3537 9.99377 23.1447C9.60016 22.9358 9.15939 22.83 8.71382 22.8375C8.30742 22.8229 7.90299 22.9021 7.53283 23.0705C7.16273 23.2389 6.837 23.4916 6.58101 23.8075C6.12009 24.4053 5.46193 24.8207 4.72424 24.9807H4.52242C2.47449 22.3034 3.0609 18.9971 4.58622 18.5171C4.73368 18.4665 4.88864 18.4416 5.04455 18.4429Z" fill="#FAFAFA"/>
<path d="M13.8766 12.7359C14.4424 12.7359 14.9856 12.9608 15.3857 13.3609C15.7855 13.7608 16.0106 14.3032 16.0107 14.8687C16.0107 15.4344 15.7857 15.9777 15.3857 16.3778C14.9856 16.7779 14.4424 17.0028 13.8766 17.0028C13.311 17.0028 12.7688 16.7776 12.3688 16.3778C11.9687 15.9777 11.7438 15.4345 11.7438 14.8687C11.7439 14.3031 11.9688 13.7609 12.3688 13.3609C12.7688 12.9609 13.3109 12.7359 13.8766 12.7359Z" fill="#FAFAFA"/>
<path fill-rule="evenodd" clip-rule="evenodd" d="M5.34273 3.13302C5.6003 3.12152 5.85479 3.19375 6.06799 3.33875L8.42476 4.87391C8.59447 4.98135 8.73497 5.12993 8.83362 5.3049C8.93217 5.47969 8.98698 5.6759 8.99117 5.87651V6.75151L11.038 8.0536C11.228 7.95388 11.4447 7.91297 11.6578 7.93771C11.8708 7.96253 12.0714 8.05114 12.2334 8.19162C12.3487 8.29811 12.4387 8.42899 12.4977 8.57443C12.5566 8.71999 12.5831 8.87726 12.5745 9.03407L20.4781 14.0484C20.6373 13.9144 20.8328 13.8295 21.0393 13.8049C21.2458 13.7803 21.4548 13.8164 21.6409 13.9091C21.854 14.0215 22.0232 14.2028 22.1201 14.4234C22.2169 14.6442 22.2364 14.8921 22.1748 15.1252L24.0732 16.3414L24.7776 16.0315C24.9617 15.9542 25.1622 15.9231 25.361 15.9416C25.5599 15.9602 25.7515 16.0281 25.9183 16.1382L28.2867 17.6747C28.5005 17.8157 28.665 18.0203 28.7568 18.2593C28.8485 18.4983 28.863 18.7603 28.7985 19.008C28.5644 19.8203 28.0832 20.5398 27.4222 21.0666C27.21 21.2432 26.9416 21.3382 26.6656 21.3335C26.4229 21.3261 26.1884 21.2431 25.9938 21.0979L23.6357 19.5627C23.4648 19.4568 23.3231 19.3094 23.2242 19.1343C23.1255 18.9591 23.0728 18.7612 23.0706 18.5601V17.6109L21.3531 16.5432C20.3966 17.8816 19.14 18.9781 17.6839 19.7437C16.5947 20.332 15.3799 20.6506 14.1422 20.6721H13.9821C12.3905 20.1177 10.8432 19.4428 9.35315 18.6552L9.50289 18.4312C8.85533 17.6447 8.41219 16.7102 8.21252 15.7111C8.04506 14.5765 8.11335 13.4194 8.41434 12.3127C8.71537 11.206 9.24214 10.1736 9.96122 9.28016L8.10575 8.10698L7.33752 8.43771C7.18916 8.50107 7.02879 8.53278 6.86747 8.53276C6.62291 8.52718 6.38546 8.44927 6.18518 8.3088L3.82841 6.77365C3.61141 6.63531 3.44316 6.43121 3.34924 6.19162C3.25539 5.9522 3.23996 5.6891 3.30497 5.44032C3.5326 4.64183 3.99772 3.9308 4.6383 3.40256C4.83773 3.23905 5.0851 3.14456 5.34273 3.13302ZM11.7321 10.4104C11.1667 11.0887 10.7476 11.8774 10.5016 12.7255C10.2557 13.5734 10.1878 14.4634 10.3024 15.3388V15.3062C10.4326 15.9165 10.7011 16.4893 11.0875 16.9794C11.474 17.4694 11.9684 17.8641 12.5315 18.133C13.1986 18.407 13.9202 18.524 14.6396 18.4742C15.3592 18.4242 16.0583 18.2089 16.6813 17.8453C17.8059 17.2477 18.7824 16.4058 19.5393 15.3817L11.7321 10.4104Z" fill="#FAFAFA"/>
</svg>
