<svg width="32" height="32" viewBox="0 0 32 32" fill="none" xmlns="http://www.w3.org/2000/svg">
<path fill-rule="evenodd" clip-rule="evenodd" d="M22.6884 3.43889C22.9849 3.19233 23.4149 3.19224 23.7114 3.43867C24.9435 4.46273 26.1709 5.8379 27.0954 7.34797C28.0146 8.84947 28.6739 10.5496 28.6739 12.2109C28.6739 13.8875 27.9812 15.1911 26.9203 16.0601C25.8786 16.9134 24.5222 17.318 23.2 17.318C21.8779 17.318 20.5215 16.9134 19.4798 16.0601C18.4189 15.1911 17.7262 13.8875 17.7262 12.2109C17.7262 12.1946 17.7267 12.1783 17.7277 12.1621C17.947 8.57085 19.7763 5.86143 22.6884 3.43889ZM18.4659 17.2978C17.0358 16.1264 16.1262 14.3695 16.1262 12.2109C16.1262 12.1621 16.1277 12.1133 16.1307 12.0645C16.1846 11.1797 16.3242 10.3439 16.5402 9.55129C16.4914 9.54888 16.4422 9.54766 16.3929 9.54766H6.25951C4.64434 9.54766 3.32617 10.8658 3.32617 12.481V25.8143C3.32617 27.4295 4.64434 28.7477 6.25951 28.7477H16.3929C18.008 28.7477 19.3262 27.4295 19.3262 25.8143V17.8965C19.0275 17.7212 18.7396 17.5221 18.4659 17.2978ZM15.9929 18.081C15.9929 18.5228 15.6347 18.881 15.1929 18.881H7.45951C7.01767 18.881 6.65951 18.5228 6.65951 18.081C6.65951 17.6392 7.01767 17.281 7.45951 17.281H15.1929C15.6347 17.281 15.9929 17.6392 15.9929 18.081ZM15.1929 22.0143C15.6347 22.0143 15.9929 21.6561 15.9929 21.2143C15.9929 20.7725 15.6347 20.4143 15.1929 20.4143H7.45951C7.01767 20.4143 6.65951 20.7725 6.65951 21.2143C6.65951 21.6561 7.01767 22.0143 7.45951 22.0143H15.1929ZM15.9929 24.3477C15.9929 24.7895 15.6347 25.1477 15.1929 25.1477H7.45951C7.01767 25.1477 6.65951 24.7895 6.65951 24.3477C6.65951 23.9058 7.01767 23.5477 7.45951 23.5477H15.1929C15.6347 23.5477 15.9929 23.9058 15.9929 24.3477ZM7.99259 12.5477C7.25635 12.5477 6.65951 13.1445 6.65951 13.8808C6.65951 14.617 7.25635 15.2138 7.99259 15.2138C8.72785 15.2138 9.32617 14.618 9.32617 13.8808C9.32617 13.1435 8.72785 12.5477 7.99259 12.5477Z" fill="#FAFAFA"/>
</svg>
