<svg width="32" height="32" viewBox="0 0 32 32" fill="none" xmlns="http://www.w3.org/2000/svg">
<path d="M15.3314 21.3339C15.6367 21.3344 15.8844 21.5819 15.8848 21.8873V22.1464L16.1204 21.912C16.3368 21.6957 16.688 21.6957 16.9043 21.912C17.1201 22.1283 17.1201 22.4783 16.9043 22.6946L15.8848 23.7141V24.1086L16.2871 24.1073L17.3027 23.093C17.5189 22.8773 17.869 22.8774 18.0853 23.093C18.3016 23.3094 18.3016 23.6605 18.0853 23.8769L17.8561 24.106H18.1126C18.4185 24.1057 18.6667 24.3536 18.6673 24.6594C18.6674 24.9652 18.4197 25.2137 18.1139 25.2141H17.8418L18.0853 25.4576L18.1243 25.4993C18.3018 25.7169 18.288 26.0386 18.0853 26.2415C17.8825 26.4435 17.5617 26.4562 17.3444 26.2792L17.3027 26.2415L16.278 25.2154L15.8848 25.2167V25.6204L16.9043 26.6386L16.9421 26.6816C17.1191 26.899 17.1067 27.2197 16.9043 27.4224C16.7015 27.6253 16.3797 27.6389 16.1621 27.4615L16.1204 27.4224L15.8848 27.1868V27.4459C15.8848 27.7515 15.6369 28 15.3314 28.0006C15.0254 28.0006 14.7767 27.7519 14.7767 27.4459V27.1855L14.5397 27.4224C14.3234 27.6386 13.9735 27.6385 13.7572 27.4224C13.5409 27.2061 13.5408 26.8549 13.7572 26.6386L14.7767 25.6191V25.218H14.3796L13.3574 26.2415C13.141 26.4573 12.7898 26.4576 12.5736 26.2415C12.3577 26.0252 12.3578 25.6739 12.5736 25.4576L12.8105 25.2206H12.5553C12.2494 25.221 12.001 24.9732 12.0007 24.6672C12.0006 24.3615 12.2483 24.113 12.554 24.1126H12.8092L12.5736 23.8769C12.3578 23.6605 12.3576 23.3092 12.5736 23.093C12.7898 22.8768 13.141 22.8772 13.3574 23.093L14.3743 24.1099H14.7767V23.7154L13.7572 22.6946C13.5408 22.4782 13.5409 22.1284 13.7572 21.912C13.9735 21.6958 14.3234 21.6957 14.5397 21.912L14.7767 22.1477V21.8873C14.777 21.5816 15.0256 21.3339 15.3314 21.3339Z" fill="#FAFAFA"/>
<path d="M7.26758 16.3339C7.26784 18.1746 8.76013 19.6672 10.6009 19.6672C12.4417 19.6672 13.934 18.1746 13.9342 16.3339V12.3339H16.6009V16.3339C16.6012 18.1746 18.0935 19.6672 19.9342 19.6672C21.775 19.6672 23.2673 18.1746 23.2676 16.3339V12.3339H24.6673C26.6924 12.3339 28.334 13.9755 28.334 16.0006V21.4667C28.3337 23.4915 26.6922 25.1334 24.6673 25.1334H20.3118C20.326 24.9799 20.334 24.8244 20.334 24.6672C20.334 21.9058 18.0954 19.6672 15.334 19.6672C12.5726 19.6672 10.334 21.9058 10.334 24.6672C10.334 24.8244 10.3419 24.9799 10.3561 25.1334H6.00065C3.97577 25.1334 2.33425 23.4915 2.33398 21.4667V16.0006C2.33398 13.9755 3.97561 12.3339 6.00065 12.3339H7.26758V16.3339Z" fill="#FAFAFA"/>
<path d="M11.9342 16.3339C11.934 17.0701 11.3371 17.6672 10.6009 17.6672C9.86469 17.6672 9.26784 17.0701 9.26758 16.3339V12.3339H11.9342V16.3339Z" fill="#FAFAFA"/>
<path d="M21.2676 16.3339C21.2673 17.0701 20.6705 17.6672 19.9342 17.6672C19.198 17.6672 18.6012 17.0701 18.6009 16.3339V12.3339H21.2676V16.3339Z" fill="#FAFAFA"/>
<path d="M8.26758 7.00058C8.81986 7.00058 9.26758 7.44829 9.26758 8.00058V12.3339H7.26758V8.00058C7.26758 7.44829 7.71529 7.00058 8.26758 7.00058Z" fill="#FAFAFA"/>
<path d="M15.2676 7.00058C17.1085 7.00058 18.6009 8.49296 18.6009 10.3339V12.3339H16.6009V10.3339C16.6009 9.59753 16.004 9.00058 15.2676 9.00058C14.5312 9.00058 13.9342 9.59753 13.9342 10.3339V12.3339H11.9342V10.3339C11.9342 8.49296 13.4266 7.00058 15.2676 7.00058Z" fill="#FAFAFA"/>
<path d="M25.2936 4.62688C25.6841 4.23635 26.3172 4.23635 26.7077 4.62688L29.3743 7.29354C29.7646 7.68409 29.7648 8.31716 29.3743 8.70761L26.7077 11.3743C26.3172 11.7645 25.6841 11.7645 25.2936 11.3743C24.9032 10.9838 24.9033 10.3508 25.2936 9.96021L26.2533 9.00058H24.9342C24.0138 9.00058 23.2676 9.74677 23.2676 10.6672V12.3339H21.2676V10.6672C21.2676 8.6422 22.9092 7.00058 24.9342 7.00058H26.2533L25.2936 6.04094C24.9032 5.6505 24.9033 5.01742 25.2936 4.62688Z" fill="#FAFAFA"/>
</svg>
