<svg width="32" height="32" viewBox="0 0 32 32" fill="none" xmlns="http://www.w3.org/2000/svg">
<path d="M24.9994 1.3335C24.4471 1.3335 23.9994 1.78121 23.9994 2.3335C23.9994 2.88578 24.4471 3.3335 24.9994 3.3335H27.6214L24.21 7.71956C23.9755 8.02104 23.9332 8.42975 24.101 8.77285C24.2688 9.11594 24.6174 9.3335 24.9994 9.3335H29.666C30.2183 9.3335 30.666 8.88578 30.666 8.3335C30.666 7.78121 30.2183 7.3335 29.666 7.3335H27.044L30.4554 2.94744C30.6899 2.64596 30.7321 2.23724 30.5643 1.89414C30.3965 1.55105 30.048 1.3335 29.666 1.3335H24.9994Z" fill="#FAFAFA"/>
<path fill-rule="evenodd" clip-rule="evenodd" d="M20.5223 3.45354C21.0208 3.63329 21.3327 4.1188 21.3327 4.64877V9.3335C21.3327 10.8063 22.5266 12.0002 23.9993 12.0002H27.7435C28.326 12.0002 28.8478 12.3769 28.9808 12.9439C29.2109 13.9254 29.3327 14.9485 29.3327 16.0002C29.3327 23.364 23.3631 29.3335 15.9993 29.3335C8.63555 29.3335 2.66602 23.364 2.66602 16.0002C2.66602 8.63637 8.63555 2.66683 15.9993 2.66683C17.5871 2.66683 19.11 2.94435 20.5223 3.45354ZM16.9993 10.6668C16.9993 10.1145 16.5516 9.66683 15.9993 9.66683C15.4471 9.66683 14.9993 10.1145 14.9993 10.6668V16.0002C14.9993 16.2654 15.1047 16.5197 15.2922 16.7073L18.6256 20.0406C19.0161 20.4311 19.6493 20.4311 20.0398 20.0406C20.4303 19.6501 20.4303 19.0169 20.0398 18.6264L16.9993 15.5859V10.6668Z" fill="#FAFAFA"/>
</svg>
