<svg width="32" height="32" viewBox="0 0 32 32" fill="none" xmlns="http://www.w3.org/2000/svg">
<path d="M18.2031 23.0195C18.7445 22.9113 19.2717 23.2622 19.3802 23.8034L20.1797 27.8034C20.2384 28.0971 20.1625 28.4024 19.9727 28.6341C19.7827 28.8657 19.4987 29 19.1992 29H12.7995C12.4999 29 12.216 28.8658 12.026 28.6341C11.8361 28.4024 11.7603 28.0972 11.819 27.8034L12.6185 23.8034C12.727 23.2621 13.2542 22.9113 13.7956 23.0195C14.3371 23.1279 14.6877 23.6551 14.5794 24.1966L14.0195 27H17.9792L17.4193 24.1966C17.311 23.6552 17.6617 23.128 18.2031 23.0195Z" fill="#FAFAFA"/>
<path d="M16 23.401L15.8971 23.3958C15.8861 23.3947 15.8755 23.3908 15.8646 23.3893C15.9093 23.3956 15.9543 23.401 16 23.401Z" fill="#FAFAFA"/>
<path d="M15.4115 23.2044C15.3703 23.1742 15.329 23.1441 15.293 23.1081L15.2839 23.0977C15.3229 23.1377 15.3669 23.1718 15.4115 23.2044Z" fill="#FAFAFA"/>
<path d="M17 10.263C17.8899 10.3787 18.7612 10.6723 19.4753 11.2773C20.4886 12.1362 21 13.4585 21 15.2005C20.9999 16.1744 20.6887 17.1604 20.2839 18.0456C19.8744 18.9407 19.338 19.8004 18.8164 20.5378C18.2929 21.2776 17.7713 21.914 17.3815 22.3646C17.1862 22.5903 17.0221 22.7718 16.9062 22.8971C16.8486 22.9596 16.8017 23.0091 16.7695 23.043C16.7538 23.0595 16.7406 23.0728 16.7318 23.082C16.7277 23.0863 16.7238 23.0899 16.7214 23.0924L16.7188 23.0964L16.7174 23.0977C16.7151 23.1001 16.712 23.1018 16.7096 23.1042C16.8887 22.9236 16.9998 22.6754 17 22.401V10.263Z" fill="#FAFAFA"/>
<path d="M15 22.401C15.0002 22.6721 15.1086 22.9176 15.2839 23.0977L15.2812 23.0964L15.2786 23.0924C15.2762 23.0899 15.2723 23.0863 15.2682 23.082C15.2594 23.0728 15.2462 23.0595 15.2305 23.043C15.1983 23.0091 15.1514 22.9596 15.0938 22.8971C14.9779 22.7718 14.8138 22.5903 14.6185 22.3646C14.2287 21.914 13.7071 21.2776 13.1836 20.5378C12.662 19.8004 12.1256 18.9407 11.7161 18.0456C11.3113 17.1604 11.0001 16.1744 11 15.2005C11 13.4592 11.5118 12.1376 12.5247 11.2786C13.2388 10.6735 14.11 10.379 15 10.263V22.401Z" fill="#FAFAFA"/>
<path d="M4.54297 12.6068C5.24879 12.6785 5.79935 13.2753 5.79948 14C5.7993 14.773 5.17285 15.3997 4.39974 15.3997C3.62676 15.3996 3.00018 14.7729 3 14C3.00014 13.227 3.62675 12.6004 4.39974 12.6003L4.54297 12.6068Z" fill="#FAFAFA"/>
<path d="M8.54297 12.6068C9.24879 12.6785 9.79935 13.2753 9.79948 14C9.7993 14.773 9.17285 15.3997 8.39974 15.3997C7.62675 15.3996 7.00018 14.7729 7 14C7.00014 13.227 7.62674 12.6004 8.39974 12.6003L8.54297 12.6068Z" fill="#FAFAFA"/>
<path d="M23.7435 12.6068C24.4493 12.6785 24.9999 13.2752 25 14C24.9998 14.773 24.3733 15.3997 23.6003 15.3997C22.8273 15.3996 22.2007 14.773 22.2005 14C22.2007 13.227 22.8273 12.6004 23.6003 12.6003L23.7435 12.6068Z" fill="#FAFAFA"/>
<path d="M27.7435 12.6068C28.4493 12.6785 28.9999 13.2752 29 14C28.9998 14.773 28.3733 15.3997 27.6003 15.3997C26.8273 15.3996 26.2007 14.773 26.2005 14C26.2007 13.227 26.8273 12.6004 27.6003 12.6003L27.7435 12.6068Z" fill="#FAFAFA"/>
<path d="M10.9427 7.80729C11.6485 7.87901 12.1991 8.47579 12.1992 9.20052C12.1989 9.97342 11.5725 10.6003 10.7995 10.6003C10.0266 10.6001 9.40009 9.97334 9.39974 9.20052C9.39988 8.42753 10.0265 7.80092 10.7995 7.80078L10.9427 7.80729Z" fill="#FAFAFA"/>
<path d="M21.3424 7.80729C22.0482 7.87901 22.5988 8.47578 22.599 9.20052C22.5986 9.97344 21.9722 10.6003 21.1992 10.6003C20.4264 10.6001 19.7998 9.97335 19.7995 9.20052C19.7996 8.42751 20.4263 7.80092 21.1992 7.80078L21.3424 7.80729Z" fill="#FAFAFA"/>
<path d="M16 7.79948C16.5523 7.79948 17 8.2485 17 8.80078V10.263C16.6668 10.2197 16.3312 10.2005 16 10.2005C15.6688 10.2005 15.3332 10.2196 15 10.263V8.80078C15 8.2485 15.4477 7.79948 16 7.79948Z" fill="#FAFAFA"/>
<path d="M6.94271 4.60677C7.64853 4.67848 8.19909 5.27526 8.19922 6C8.19904 6.77305 7.57257 7.39974 6.79948 7.39974C6.02651 7.3996 5.39992 6.77297 5.39974 6C5.39988 5.227 6.02648 4.6004 6.79948 4.60026L6.94271 4.60677Z" fill="#FAFAFA"/>
<path d="M25.2005 4.60026C25.9736 4.60026 26.6001 5.2269 26.6003 6C26.6001 6.77307 25.9736 7.39974 25.2005 7.39974V6.60026L25.1992 6.59896L25.2005 7.39974C24.4276 7.3996 23.7997 6.77298 23.7995 6C23.7996 5.22699 24.4276 4.6004 25.2005 4.60026Z" fill="#FAFAFA"/>
<path d="M16 3C16.7731 3 17.3996 3.62665 17.3997 4.39974C17.3997 5.17296 16.7732 5.79948 16 5.79948C15.2269 5.79934 14.6003 5.17287 14.6003 4.39974C14.6004 3.62674 15.227 3.00014 16 3Z" fill="#FAFAFA"/>
</svg>
