<svg width="32" height="32" viewBox="0 0 32 32" fill="none" xmlns="http://www.w3.org/2000/svg">
<path fill-rule="evenodd" clip-rule="evenodd" d="M11.1146 4.78906C11.4922 4.82669 11.8528 4.95919 12.1654 5.17057C12.54 4.91657 12.9849 4.77743 13.444 4.77734H16L16.2253 4.78906C16.7465 4.84085 17.237 5.07051 17.6107 5.44401C17.6652 5.49858 17.716 5.5566 17.7643 5.61589C17.7725 5.61276 17.7808 5.60981 17.7891 5.60677L17.8385 5.58984L18.0091 5.53776L18.0677 5.52214L20.8581 4.84505L20.8607 4.84375L21.0885 4.80078C22.2319 4.64082 23.3768 5.32398 23.6966 6.48568L28.418 23.6315L28.4206 23.6406L28.4661 23.8503C28.5484 24.3415 28.4686 24.849 28.237 25.2943C28.0053 25.7394 27.6357 26.0954 27.1862 26.3099L26.9883 26.3932C26.9719 26.3992 26.9554 26.405 26.9388 26.4102L26.7682 26.4622C26.7488 26.4682 26.7294 26.4744 26.7096 26.4792L23.9193 27.1562H23.9167C22.7771 27.43 21.5807 26.8362 21.1549 25.7396L21.0807 25.5143L18.2773 15.3333V24.944L18.2669 25.1693C18.2151 25.6906 17.9843 26.181 17.6107 26.5547C17.2369 26.9284 16.7466 27.1591 16.2253 27.2109L16 27.2214H13.444C12.9848 27.2213 12.5401 27.0823 12.1654 26.8281C11.8527 27.0401 11.4925 27.1733 11.1146 27.2109L10.8893 27.2214H8.33333C7.72946 27.2212 7.1497 26.9816 6.72266 26.5547C6.34906 26.181 6.11951 25.6905 6.06771 25.1693L6.05469 24.944V7.05469C6.05489 6.45086 6.29567 5.871 6.72266 5.44401C7.14967 5.01725 7.72962 4.77746 8.33333 4.77734H10.8893L11.1146 4.78906ZM22.1536 21.8815L23.0091 24.9831L23.0299 25.0378C23.0939 25.1598 23.2549 25.2569 23.4466 25.2122L26.2005 24.543L26.306 24.5117C26.3733 24.4848 26.4299 24.4355 26.4635 24.3711C26.4982 24.3042 26.5062 24.2265 26.487 24.1536L25.6224 21.0143L22.1536 21.8815ZM8.05599 24.944L8.0612 24.9987C8.07188 25.0519 8.09782 25.1016 8.13672 25.1406C8.1887 25.1925 8.2599 25.2212 8.33333 25.2214H10.8893L10.944 25.2161C10.997 25.2054 11.0471 25.1795 11.0859 25.1406C11.1377 25.0886 11.1667 25.0175 11.1667 24.944V11.8893H8.05599V24.944ZM13.1667 24.944L13.1719 24.9987C13.1825 25.0518 13.2086 25.1017 13.2474 25.1406C13.2994 25.1926 13.3705 25.2212 13.444 25.2214H16L16.0547 25.2161C16.1079 25.2054 16.1576 25.1796 16.1966 25.1406C16.2355 25.1016 16.2614 25.0519 16.2721 24.9987L16.2773 24.944V22.1107H13.1667V24.944ZM21.3281 6.78906L21.3268 6.78776L18.5755 7.45573L18.4714 7.48698C18.4037 7.51382 18.3475 7.56424 18.3138 7.62891C18.279 7.6959 18.271 7.7747 18.2904 7.84766L19.1536 10.9857L22.6211 10.1198L21.7682 7.01693C21.7282 6.87135 21.5487 6.73617 21.3281 6.78906ZM13.444 6.77734C13.3706 6.77746 13.2994 6.80618 13.2474 6.85807C13.1955 6.90999 13.1669 6.98129 13.1667 7.05469V9.96094H16.2773V7.05469C16.2771 6.98129 16.2485 6.90999 16.1966 6.85807C16.1576 6.81926 16.1078 6.79322 16.0547 6.78255L16 6.77734H13.444Z" fill="#FAFAFA"/>
</svg>
