<svg width="32" height="32" viewBox="0 0 32 32" fill="none" xmlns="http://www.w3.org/2000/svg">
<path d="M15.9564 14.7712C16.0726 14.748 16.1932 14.7598 16.3027 14.805C16.4124 14.8504 16.5063 14.9277 16.5723 15.0264C16.6382 15.1251 16.6738 15.241 16.6738 15.3597C16.6738 15.4784 16.6382 15.5943 16.5723 15.693C16.5063 15.7917 16.4124 15.869 16.3027 15.9144C16.1932 15.9596 16.0726 15.9714 15.9564 15.9482C15.84 15.9251 15.733 15.8681 15.6491 15.7842C15.5367 15.6715 15.4733 15.5188 15.4733 15.3597C15.4733 15.2006 15.5367 15.0479 15.6491 14.9352C15.733 14.8513 15.84 14.7943 15.9564 14.7712Z" fill="#FAFAFA"/>
<path fill-rule="evenodd" clip-rule="evenodd" d="M16.0007 9.74512C19.1016 9.74547 21.6152 12.26 21.6152 15.361C21.6145 18.4614 19.1011 20.9752 16.0007 20.9756C12.9 20.9754 10.3855 18.4615 10.3848 15.361C10.3848 12.2599 12.8996 9.7453 16.0007 9.74512ZM14.4421 11.6956C14.3793 11.688 14.3154 11.6951 14.2559 11.7165C13.4781 11.996 12.9167 12.4917 12.5723 13.2035C12.4543 13.448 12.426 13.7265 12.4915 13.9899C12.5571 14.2533 12.7128 14.4855 12.9316 14.6462C13.54 15.0944 14.1825 15.3585 14.8405 15.4287C14.8474 15.5562 14.8746 15.6817 14.9199 15.8011C14.364 16.3327 13.6412 16.5881 12.7923 16.6344C12.729 16.6376 12.6677 16.6565 12.6126 16.6878C12.5575 16.7191 12.5098 16.7627 12.4746 16.8154C12.4396 16.868 12.4172 16.9285 12.4095 16.9912C12.4019 17.054 12.409 17.1179 12.4303 17.1774C12.7099 17.9551 13.2056 18.5166 13.9173 18.861C14.1618 18.979 14.4403 19.0073 14.7038 18.9417C14.9672 18.8761 15.1994 18.7204 15.36 18.5016C15.8082 17.8926 16.0729 17.2506 16.1426 16.5928C16.2701 16.5859 16.3956 16.5586 16.515 16.5133C17.0466 17.0693 17.302 17.7921 17.3483 18.641C17.3515 18.7042 17.3704 18.7655 17.4017 18.8206C17.433 18.8757 17.4766 18.9235 17.5293 18.9587C17.5819 18.9936 17.6424 19.0161 17.7051 19.0238C17.7678 19.0314 17.8317 19.0243 17.8913 19.0029C18.669 18.7234 19.2304 18.2277 19.5749 17.516C19.6929 17.2714 19.7212 16.9929 19.6556 16.7295C19.59 16.4661 19.4343 16.2339 19.2155 16.0732C18.6072 15.625 17.9646 15.3609 17.3066 15.2907C17.2998 15.1632 17.2725 15.0377 17.2272 14.9183C17.7832 14.3867 18.5059 14.1313 19.3548 14.085C19.4181 14.0818 19.4794 14.0629 19.5345 14.0316C19.5896 14.0003 19.6374 13.9567 19.6725 13.904C19.7075 13.8514 19.7299 13.7909 19.7376 13.7282C19.7453 13.6654 19.7381 13.6015 19.7168 13.542C19.4373 12.7643 18.9415 12.2028 18.2298 11.8584C17.9853 11.7404 17.7068 11.7121 17.4434 11.7777C17.18 11.8433 16.9477 11.999 16.7871 12.2178C16.3389 12.8268 16.0742 13.4688 16.0046 14.1266C15.8771 14.1335 15.7515 14.1608 15.6322 14.2061C15.1005 13.6501 14.8452 12.9273 14.7988 12.0785C14.7956 12.0152 14.7767 11.9539 14.7454 11.8988C14.7141 11.8437 14.6706 11.7959 14.6178 11.7607C14.5652 11.7258 14.5048 11.7033 14.4421 11.6956Z" fill="#FAFAFA"/>
<path fill-rule="evenodd" clip-rule="evenodd" d="M21.5098 3.68913C24.3276 3.8321 26.5684 6.16257 26.5684 9.01595V27.2712H27.3327L27.4355 27.2764C27.9395 27.3279 28.3327 27.7536 28.3327 28.2712C28.3327 28.7887 27.9395 29.2145 27.4355 29.266L27.3327 29.2712H26.5684V29.2764H5.43034V29.2712H4.66602C4.11373 29.2712 3.66602 28.8234 3.66602 28.2712C3.66602 27.7189 4.11373 27.2712 4.66602 27.2712H5.43034V9.01595C5.43034 6.07043 7.81815 3.68262 10.7637 3.68262H21.235L21.5098 3.68913ZM16.0007 7.74512C11.795 7.7453 8.38477 11.1553 8.38477 15.361L8.39518 15.7516C8.59259 19.6456 11.7148 22.7679 15.6087 22.9652L16.0007 22.9756C20.0747 22.9752 23.4008 19.775 23.6048 15.7516L23.6152 15.361C23.6152 11.2865 20.4152 7.95921 16.3913 7.75553L16.0007 7.74512Z" fill="#FAFAFA"/>
</svg>
