<svg width="32" height="32" viewBox="0 0 32 32" fill="none" xmlns="http://www.w3.org/2000/svg">
<path d="M20.3135 27.043H21.333C21.8853 27.043 22.333 27.4907 22.333 28.043C22.3328 28.5951 21.8852 29.043 21.333 29.043H10.667C10.1148 29.043 9.66717 28.5951 9.66699 28.043C9.66699 27.4907 10.1147 27.043 10.667 27.043H11.7773V18.376H20.3135V27.043ZM28 3.04297C28.5523 3.04297 29 3.49068 29 4.04297V13.376C29 13.9283 28.5523 14.376 28 14.376C27.4477 14.376 27 13.9283 27 13.376V12.8535H20.4561C20.4161 12.8535 20.3784 12.8682 20.3525 12.8926C20.3283 12.9154 20.3161 12.945 20.3135 12.9736V16.376H11.7773V12.9736C11.7747 12.945 11.7626 12.9154 11.7383 12.8926C11.7124 12.8684 11.6755 12.8535 11.6357 12.8535H5V13.376C5 13.9283 4.55228 14.376 4 14.376C3.44772 14.376 3 13.9283 3 13.376V4.04297C3 3.49068 3.44772 3.04297 4 3.04297C4.55228 3.04297 5 3.49068 5 4.04297V4.37598H27V4.04297C27 3.49068 27.4477 3.04297 28 3.04297Z" fill="#FAFAFA"/>
</svg>
