<svg width="32" height="32" viewBox="0 0 32 32" fill="none" xmlns="http://www.w3.org/2000/svg">
<path fill-rule="evenodd" clip-rule="evenodd" d="M16.0003 29.3335C8.63653 29.3335 2.66699 23.364 2.66699 16.0002C2.66699 8.63637 8.63653 2.66683 16.0003 2.66683C23.3641 2.66683 29.3337 8.63637 29.3337 16.0002C29.3337 23.364 23.3641 29.3335 16.0003 29.3335ZM17.0003 19.2526L19.6266 16.6264C20.0171 16.2359 20.6502 16.2359 21.0408 16.6264C21.4313 17.0169 21.4313 17.6501 21.0408 18.0406L17.6502 21.4311C16.739 22.3424 15.2616 22.3424 14.3504 21.4311L10.9599 18.0406C10.5694 17.6501 10.5694 17.0169 10.9599 16.6264C11.3504 16.2359 11.9836 16.2359 12.3741 16.6264L15.0003 19.2526V10.3335C15.0003 9.78121 15.448 9.3335 16.0003 9.3335C16.5526 9.3335 17.0003 9.78121 17.0003 10.3335V19.2526Z" fill="#FAFAFA"/>
</svg>
