<svg width="32" height="32" viewBox="0 0 32 32" fill="none" xmlns="http://www.w3.org/2000/svg">
<path fill-rule="evenodd" clip-rule="evenodd" d="M20.3606 4C21.9605 4.52461 23.4444 5.33927 24.7346 6.40039L24.7502 10.9004C24.8411 11.0402 24.9267 11.1814 25.0061 11.3262L29.091 13.5938C29.4129 15.1809 29.4129 16.8142 29.091 18.4014L25.008 20.6641C24.9247 20.8077 24.8384 20.9499 24.7512 21.0898L24.7307 25.5898C23.4426 26.6542 21.96 27.472 20.3606 28L16.2629 25.7637H15.7502L11.6399 28C10.04 27.4754 8.55593 26.6607 7.26584 25.5996L7.25021 21.0996C7.15931 20.9598 7.07375 20.8186 6.99435 20.6738L2.90744 18.4053C2.58553 16.8182 2.58555 15.1848 2.90744 13.5977L6.99045 11.335C7.07368 11.1914 7.15924 11.049 7.24631 10.9092L7.26682 6.40918C8.55574 5.34505 10.0397 4.52731 11.6399 4L15.7434 6.23633H16.257L20.3606 4ZM15.9992 12C13.7901 12 11.9992 13.7909 11.9992 16C11.9992 18.2091 13.7901 20 15.9992 20C18.2083 19.9999 19.9992 18.2091 19.9992 16C19.9992 13.7909 18.2083 12.0001 15.9992 12Z" fill="#FAFAFA"/>
</svg>
