<svg width="32" height="32" viewBox="0 0 32 32" fill="none" xmlns="http://www.w3.org/2000/svg">
<path d="M17.6459 6.93887C18.2044 8.28111 19.1228 9.87147 20.6264 11.3751C22.1296 12.8783 23.7192 13.7957 25.0613 14.3542L15.1993 24.2162C14.4302 24.9853 14.0452 25.3697 13.6211 25.7006C13.1207 26.091 12.5795 26.4262 12.0066 26.6993C11.5209 26.9307 11.0038 27.1026 9.97141 27.4467L4.5274 29.2618C4.01938 29.431 3.45943 29.2979 3.08078 28.9193C2.70223 28.5405 2.57031 27.9806 2.73964 27.4727L4.55344 22.0287C4.8976 20.9963 5.07066 20.4793 5.30214 19.9936C5.57515 19.4208 5.90931 18.8793 6.29953 18.379C6.63042 17.9548 7.01571 17.5704 7.78521 16.8008L17.6459 6.93887Z" fill="#FAFAFA"/>
<path d="M20.3816 4.20319C22.4292 2.15558 25.7493 2.15558 27.7969 4.20319C29.8441 6.25069 29.844 9.56971 27.7969 11.6173L26.6133 12.8008C26.5649 12.7848 26.516 12.7673 26.4662 12.7501C25.2166 12.3166 23.5778 11.4996 22.0391 9.961C20.5005 8.42232 19.6835 6.78345 19.2501 5.53392C19.2326 5.48373 19.2155 5.43435 19.1993 5.38548L20.3816 4.20319Z" fill="#FAFAFA"/>
</svg>
