<svg width="32" height="32" viewBox="0 0 32 32" fill="none" xmlns="http://www.w3.org/2000/svg">
<path d="M26.8854 20.9179C27.409 20.744 27.9751 21.0272 28.1497 21.5507C28.324 22.0744 28.0405 22.6416 27.5169 22.8163L10.7174 28.4153C10.1938 28.5898 9.62678 28.3072 9.45182 27.7838C9.27718 27.2599 9.56074 26.6928 10.0846 26.5181L26.8854 20.9179Z" fill="#FAFAFA"/>
<path fill-rule="evenodd" clip-rule="evenodd" d="M8.79948 11.2668C10.3377 11.2668 11.8133 11.8784 12.901 12.9661C13.9885 14.0536 14.6001 15.5284 14.6003 17.0663C14.6002 17.7802 14.3589 18.5573 14.0521 19.2786C13.7369 20.0193 13.3106 20.7964 12.8568 21.539C11.9484 23.0252 10.8786 24.4502 10.2174 25.2955C10.0492 25.5108 9.83427 25.6848 9.58854 25.8046C9.34235 25.9247 9.07244 25.9882 8.79948 25.9882C8.52659 25.9881 8.25653 25.9261 8.01042 25.8059C7.76514 25.6862 7.54956 25.5118 7.38151 25.2968C6.72061 24.4513 5.65202 23.0253 4.74349 21.539C4.28963 20.7965 3.86333 20.0193 3.54818 19.2786C3.24135 18.5573 3.00007 17.7802 3 17.0663C3.00014 15.5283 3.61173 14.0536 4.69922 12.9661C5.7868 11.8785 7.26142 11.267 8.79948 11.2668ZM8.79948 15.6666C8.02647 15.6667 7.39988 16.2934 7.39974 17.0663C7.39974 17.8394 8.02638 18.4659 8.79948 18.4661C9.5727 18.4661 10.1992 17.8395 10.1992 17.0663C10.1991 16.2933 9.57261 15.6666 8.79948 15.6666Z" fill="#FAFAFA"/>
<path fill-rule="evenodd" clip-rule="evenodd" d="M24 6.46606C25.3261 6.46606 26.5974 6.99456 27.5352 7.93221C28.4725 8.86984 29 10.1414 29 11.4674C28.9998 12.12 28.7684 12.8738 28.4909 13.5715C28.2021 14.2974 27.814 15.0814 27.4062 15.8333C26.5894 17.3392 25.6544 18.7907 25.168 19.5247C25.0404 19.717 24.8661 19.8761 24.6615 19.9856L24.6602 19.9843C24.4568 20.0931 24.23 20.151 24 20.151C23.7699 20.1509 23.5433 20.0933 23.3398 19.9843C23.1352 19.8748 22.961 19.717 22.8333 19.5247C22.347 18.7913 21.4121 17.3413 20.5951 15.8359C20.1869 15.0839 19.7982 14.2993 19.5091 13.5728C19.2313 12.8746 19.0002 12.1209 19 11.4674C19 10.1414 19.5275 8.86984 20.4648 7.93221C21.4026 6.99456 22.6739 6.46606 24 6.46606ZM24 10.0663C23.2271 10.0665 22.6006 10.6932 22.6003 11.4661C22.6003 12.2392 23.2269 12.8657 24 12.8658C24.7732 12.8658 25.3997 12.2393 25.3997 11.4661C25.3994 10.6931 24.773 10.0663 24 10.0663Z" fill="#FAFAFA"/>
<path d="M16.7695 16.5181C17.0215 16.0268 17.6232 15.8327 18.1146 16.0846L20.4479 17.2799C20.939 17.5319 21.1333 18.1349 20.8815 18.6262C20.6295 19.1173 20.0265 19.3114 19.5352 19.0598L17.2031 17.8632C16.7117 17.6113 16.5177 17.0096 16.7695 16.5181Z" fill="#FAFAFA"/>
<path fill-rule="evenodd" clip-rule="evenodd" d="M12.7995 3.26685C14.1255 3.26685 15.3969 3.79407 16.3346 4.73169C17.2722 5.66935 17.7995 6.94079 17.7995 8.26685C17.7995 8.32326 17.7947 8.38051 17.7852 8.43612C17.5113 10.0356 16.9176 11.5644 16.0404 12.9296C15.8607 13.2085 15.5543 13.3802 15.2227 13.3879C14.8908 13.3955 14.5763 13.238 14.3841 12.9674C13.6976 12 11.6067 10.0663 8.92188 10.0663C8.47573 10.0661 8.08364 9.77003 7.96094 9.34106C7.86349 8.9999 7.80872 8.64759 7.79948 8.29289C7.79926 8.28435 7.79947 8.27539 7.79948 8.26685C7.79948 6.94091 8.32684 5.66934 9.26432 4.73169C10.2019 3.79408 11.4735 3.26693 12.7995 3.26685ZM12.7995 6.86711C12.0266 6.86735 11.3999 7.49392 11.3997 8.26685C11.4001 9.0396 12.0267 9.66634 12.7995 9.66659C13.5725 9.66659 14.1989 9.03975 14.1992 8.26685C14.1991 7.54208 13.6486 6.94529 12.9427 6.87362L12.7995 6.86711Z" fill="#FAFAFA"/>
</svg>
