<svg width="32" height="32" viewBox="0 0 32 32" fill="none" xmlns="http://www.w3.org/2000/svg">
<path fill-rule="evenodd" clip-rule="evenodd" d="M10.3151 2.66675C11.517 2.66719 12.6708 3.15003 13.5208 4.0092L13.6758 4.17586C14.4287 5.01701 14.8502 6.11289 14.8503 7.25269V18.461C15.64 19.2808 16.2006 20.3021 16.4688 21.4194L16.5638 21.8946C16.7442 23.0086 16.6308 24.1551 16.2305 25.2149C15.8301 26.2747 15.1591 27.2056 14.2904 27.9141L13.9063 28.2045C12.8503 28.9397 11.597 29.3331 10.3151 29.3334C9.1933 29.3334 8.09238 29.0326 7.12762 28.4649L6.72267 28.2045C5.66652 27.4692 4.85621 26.4262 4.39845 25.2149L4.24351 24.7553C3.9252 23.6733 3.89431 22.522 4.15887 21.4194L4.29038 20.9519C4.59057 20.017 5.10124 19.1652 5.77996 18.461V7.25269C5.78 6.0365 6.2563 4.86918 7.10679 4.0092L7.26955 3.85425C8.10152 3.09247 9.18742 2.66676 10.3151 2.66675ZM10.3177 11.9519C9.79911 11.9519 9.37762 12.3793 9.37762 12.9037V20.3074C9.00775 20.4444 8.66675 20.6586 8.38283 20.9454C7.86956 21.4644 7.57952 22.1699 7.57944 22.9037C7.57981 23.6371 7.86995 24.3408 8.38283 24.8595L8.58335 25.043C9.0704 25.4464 9.68423 25.6706 10.319 25.6707C11.0439 25.6701 11.741 25.378 12.2539 24.8595L12.2526 24.8582C12.7649 24.3396 13.0543 23.6366 13.0547 22.9037C13.0546 22.1699 12.7658 21.4644 12.2526 20.9454C11.9686 20.6582 11.6265 20.4445 11.2565 20.3074V12.9037C11.2565 12.3796 10.836 11.9524 10.3177 11.9519Z" fill="#FAFAFA"/>
<path d="M23.9401 4.05216C24.224 3.76136 24.6561 3.67136 25.0326 3.8243C25.4091 3.97764 25.6562 4.34352 25.6563 4.75008V9.5717H27.5573C27.7762 9.57219 27.9918 9.6227 28.1875 9.71623L28.3763 9.8243L28.5469 9.95841C28.6535 10.0563 28.7454 10.1696 28.819 10.2944L28.9154 10.4897L28.9167 10.4936C29.024 10.762 29.0515 11.0563 28.9948 11.3399C28.9398 11.6143 28.8057 11.865 28.6146 12.0678L28.6172 12.0704L22.4675 18.711C22.1879 19.0128 21.7515 19.1123 21.3685 18.9623C20.9856 18.8121 20.7331 18.4427 20.7331 18.0313V13.267H18.4466C18.2279 13.2665 18.0122 13.2173 17.8164 13.1238L17.6276 13.0157C17.3859 12.8524 17.198 12.62 17.0886 12.349L17.0873 12.3464C16.9799 12.078 16.9524 11.7837 17.0091 11.5001C17.066 11.216 17.2044 10.9548 17.4063 10.7488L23.9401 4.05216Z" fill="#FAFAFA"/>
</svg>
