<svg width="32" height="32" viewBox="0 0 32 32" fill="none" xmlns="http://www.w3.org/2000/svg">
<path fill-rule="evenodd" clip-rule="evenodd" d="M4.0013 7.66667C4.0013 5.64162 5.64292 4 7.66797 4H16.3346C18.3597 4 20.0013 5.64162 20.0013 7.66667V12H21.0013C23.0263 12 24.668 13.6416 24.668 15.6667V20.6667C24.668 21.403 25.2649 22 26.0013 22C26.7377 22 27.3346 21.403 27.3346 20.6667V11.8543C27.3346 11.3818 27.1341 10.9315 26.7829 10.6155L24.3323 8.40996C23.9218 8.0405 23.8885 7.40821 24.258 6.9977C24.6275 6.58719 25.2598 6.55391 25.6703 6.92337L28.1208 9.12889C28.8935 9.82424 29.3346 10.8148 29.3346 11.8543V20.6667C29.3346 22.5076 27.8423 24 26.0013 24C24.1604 24 22.668 22.5076 22.668 20.6667V15.6667C22.668 14.7462 21.9218 14 21.0013 14H20.0013V26H20.3346C20.8869 26 21.3346 26.4477 21.3346 27C21.3346 27.5523 20.8869 28 20.3346 28H3.66797C3.11568 28 2.66797 27.5523 2.66797 27C2.66797 26.4477 3.11568 26 3.66797 26H4.0013V7.66667ZM8.0013 13C8.0013 12.4477 8.44902 12 9.0013 12H15.0013C15.5536 12 16.0013 12.4477 16.0013 13C16.0013 13.5523 15.5536 14 15.0013 14H9.0013C8.44902 14 8.0013 13.5523 8.0013 13Z" fill="#FAFAFA"/>
</svg>
