<svg width="32" height="32" viewBox="0 0 32 32" fill="none" xmlns="http://www.w3.org/2000/svg">
<path fill-rule="evenodd" clip-rule="evenodd" d="M15.0319 21.3495C15.0837 21.351 15.1347 21.3653 15.1803 21.3899C15.2259 21.4145 15.2652 21.4491 15.2949 21.4915C15.3246 21.5339 15.3447 21.5834 15.3522 21.6347C15.3595 21.6858 15.3542 21.7381 15.3379 21.787C15.1208 22.4478 15.1007 23.075 15.3405 23.6568C15.4452 23.6578 15.5497 23.6748 15.6491 23.7076C15.8978 23.227 16.2892 22.8158 16.8118 22.485C16.9994 22.3659 17.223 22.316 17.4434 22.3443C17.6637 22.3727 17.8676 22.4772 18.0189 22.6399C18.4588 23.1141 18.6699 23.6894 18.6517 24.3652C18.6502 24.417 18.6359 24.468 18.6113 24.5136C18.5868 24.5592 18.5521 24.5985 18.5098 24.6282C18.4673 24.6579 18.4178 24.678 18.3665 24.6855C18.3154 24.6929 18.2632 24.6875 18.2142 24.6712C17.5534 24.454 16.9263 24.4339 16.3444 24.6738C16.3434 24.7782 16.3263 24.8818 16.2936 24.981C16.7743 25.2303 17.1859 25.6225 17.5163 26.1451C17.6353 26.3326 17.6853 26.5563 17.6569 26.7766C17.6285 26.9969 17.524 27.2009 17.3613 27.3521C16.8872 27.7921 16.3118 28.0031 15.6361 27.985C15.5843 27.9835 15.5332 27.9691 15.4876 27.9446C15.4421 27.9201 15.4027 27.8853 15.373 27.843C15.3433 27.8006 15.3232 27.7511 15.3158 27.6998C15.3084 27.6486 15.3137 27.5965 15.3301 27.5475C15.5473 26.8867 15.5673 26.2595 15.3275 25.6777C15.2227 25.6767 15.1183 25.6597 15.0189 25.6269C14.7702 26.1075 14.3787 26.5187 13.8561 26.8495C13.6687 26.9685 13.4448 27.0184 13.2246 26.9902C13.0043 26.9618 12.8004 26.8572 12.6491 26.6946C12.2091 26.2204 11.9981 25.6451 12.0163 24.9693C12.0177 24.9175 12.0321 24.8665 12.0566 24.8209C12.0812 24.7753 12.1158 24.736 12.1582 24.7063C12.2007 24.6766 12.2501 24.6565 12.3014 24.649C12.3525 24.6417 12.4048 24.647 12.4538 24.6633C13.1145 24.8804 13.7418 24.9005 14.3236 24.6607C14.3245 24.5561 14.3416 24.4515 14.3743 24.3521C13.8938 24.1029 13.482 23.7118 13.1517 23.1894C13.0327 23.0019 12.9828 22.7781 13.0111 22.5579C13.0394 22.3375 13.144 22.1336 13.3066 21.9823C13.7808 21.5423 14.356 21.3313 15.0319 21.3495ZM15.4199 24.1842C15.3243 24.1672 15.225 24.1777 15.1361 24.2167C15.017 24.2692 14.9243 24.3676 14.877 24.4889C14.8297 24.6099 14.8316 24.7447 14.8835 24.8639C14.9225 24.9528 14.9878 25.029 15.0697 25.0813C15.1515 25.1335 15.2474 25.1601 15.3444 25.1581C15.4414 25.156 15.5357 25.1251 15.6152 25.0696C15.6947 25.014 15.7557 24.936 15.791 24.8456C15.8263 24.7552 15.834 24.6565 15.8132 24.5618C15.7923 24.467 15.7438 24.3803 15.6738 24.3131C15.6038 24.2459 15.5154 24.2012 15.4199 24.1842Z" fill="#FAFAFA"/>
<path d="M7.26758 16.3339C7.2677 18.1748 8.76004 19.6672 10.6009 19.6672C12.4418 19.6672 13.9341 18.1748 13.9342 16.3339V12.3339H16.6009V16.3339C16.601 18.1748 18.0934 19.6672 19.9342 19.6672C21.7751 19.6672 23.2675 18.1748 23.2676 16.3339V12.3339H24.6673C26.6924 12.3339 28.334 13.9755 28.334 16.0006V21.4667C28.3339 23.4917 26.6923 25.1334 24.6673 25.1334H20.3118C20.326 24.9799 20.334 24.8244 20.334 24.6672C20.334 21.9058 18.0954 19.6672 15.334 19.6672C12.5726 19.6672 10.334 21.9058 10.334 24.6672C10.334 24.8244 10.3419 24.9799 10.3561 25.1334H6.00065C3.97568 25.1334 2.3341 23.4917 2.33398 21.4667V16.0006C2.33398 13.9755 3.97561 12.3339 6.00065 12.3339H7.26758V16.3339Z" fill="#FAFAFA"/>
<path d="M11.9342 16.3339C11.9341 17.0702 11.3372 17.6672 10.6009 17.6672C9.8646 17.6672 9.2677 17.0702 9.26758 16.3339V12.3339H11.9342V16.3339Z" fill="#FAFAFA"/>
<path d="M21.2676 16.3339C21.2675 17.0702 20.6706 17.6672 19.9342 17.6672C19.1979 17.6672 18.601 17.0702 18.6009 16.3339V12.3339H21.2676V16.3339Z" fill="#FAFAFA"/>
<path d="M8.26758 7.00058C8.81986 7.00058 9.26758 7.44829 9.26758 8.00058V12.3339H7.26758V8.00058C7.26758 7.44829 7.71529 7.00058 8.26758 7.00058Z" fill="#FAFAFA"/>
<path d="M15.2676 7.00058C17.1085 7.00058 18.6009 8.49296 18.6009 10.3339V12.3339H16.6009V10.3339C16.6009 9.59753 16.004 9.00058 15.2676 9.00058C14.5312 9.00058 13.9342 9.59753 13.9342 10.3339V12.3339H11.9342V10.3339C11.9342 8.49296 13.4266 7.00058 15.2676 7.00058Z" fill="#FAFAFA"/>
<path d="M25.2936 4.62688C25.6841 4.23635 26.3172 4.23635 26.7077 4.62688L29.3743 7.29354C29.7648 7.68408 29.7648 8.31712 29.3743 8.70761L26.7077 11.3743C26.3172 11.7647 25.6841 11.7647 25.2936 11.3743C24.9031 10.9838 24.9032 10.3507 25.2936 9.96021L26.2533 9.00058H24.9342C24.0138 9.00058 23.2676 9.74677 23.2676 10.6672V12.3339H21.2676V10.6672C21.2676 8.6422 22.9092 7.00058 24.9342 7.00058H26.2533L25.2936 6.04094C24.9031 5.65045 24.9032 5.01741 25.2936 4.62688Z" fill="#FAFAFA"/>
</svg>
