<svg width="32" height="32" viewBox="0 0 32 32" fill="none" xmlns="http://www.w3.org/2000/svg">
<path fill-rule="evenodd" clip-rule="evenodd" d="M22.25 1.875C23.4564 1.875 24.3643 1.91942 25.0342 1.97656C26.457 2.0978 27.4888 3.20837 27.5801 4.59668C27.6064 5.00009 27.625 5.47209 27.625 6C27.625 6.52791 27.6064 6.99893 27.5801 7.40234C27.4888 8.79066 26.457 9.9022 25.0342 10.0234C24.5638 10.0636 23.976 10.0957 23.25 10.1123V12.6074C24.0787 12.7797 24.8719 12.9614 25.6162 13.1543C27.6313 13.6769 28.875 15.5309 28.875 17.5117V28.125H29.125C29.6773 28.125 30.125 28.5727 30.125 29.125C30.125 29.6773 29.6773 30.125 29.125 30.125H27.8926C27.8867 30.1251 27.8809 30.126 27.875 30.126H4.125C4.11913 30.126 4.11327 30.1251 4.10742 30.125H2.875C2.32272 30.125 1.875 29.6773 1.875 29.125C1.875 28.5727 2.32272 28.125 2.875 28.125H3.125V14.75C3.125 12.4811 4.97144 10.5998 7.29199 10.7041L8.3584 10.7588C12.317 10.9814 17.0754 11.4809 21.25 12.2227V10.1123C20.524 10.0957 19.9362 10.0636 19.4658 10.0234C18.043 9.90219 17.0112 8.79163 16.9199 7.40332C16.9068 7.20167 16.8956 6.98215 16.8877 6.74805L16.875 6C16.8747 5.53251 16.8899 5.06516 16.9199 4.59863V4.59668C17.0112 3.20837 18.043 2.09781 19.4658 1.97656C20.1357 1.91942 21.0436 1.875 22.25 1.875ZM5.33301 28H10.667V22.667H5.33301V28ZM13.333 28H18.667V22.667H13.333V28ZM21.333 28H26.667V22.667H21.333V28ZM22.25 3.875C21.0917 3.875 20.2418 3.91716 19.6367 3.96875C19.2353 4.0029 18.944 4.28908 18.915 4.72754C18.8878 5.15081 18.8747 5.57488 18.875 5.99902C18.875 6.48101 18.8914 6.90968 18.915 7.27246C18.944 7.71097 19.2352 7.99715 19.6367 8.03125C20.2418 8.08284 21.0917 8.125 22.25 8.125C23.4086 8.125 24.2592 8.08286 24.8643 8.03125L25.0088 8.00684C25.3339 7.92336 25.5596 7.65631 25.585 7.27246C25.6086 6.90968 25.625 6.48198 25.625 6C25.625 5.51802 25.6086 5.09032 25.585 4.72754C25.556 4.28907 25.2657 4.00289 24.8643 3.96875C24.2592 3.91714 23.4086 3.875 22.25 3.875Z" fill="#FAFAFA"/>
</svg>
