<svg width="32" height="32" viewBox="0 0 32 32" fill="none" xmlns="http://www.w3.org/2000/svg">
<path fill-rule="evenodd" clip-rule="evenodd" d="M15.9999 3.75C16.9282 3.75002 17.8188 4.11838 18.4752 4.77474C19.1315 5.43111 19.4999 6.32176 19.4999 7.25C19.4999 8.17824 19.1315 9.06889 18.4752 9.72526C18.0605 10.1399 17.552 10.4383 16.9999 10.6029V24.8359L19.0429 22.793C19.4334 22.4025 20.0664 22.4025 20.457 22.793C20.8474 23.1835 20.8474 23.8165 20.457 24.207L16.707 27.957C16.6645 27.9995 16.6179 28.0358 16.5702 28.069C16.5114 28.1101 16.4486 28.1454 16.3814 28.1732C16.3387 28.1908 16.2943 28.2021 16.2499 28.2135C16.2324 28.2181 16.2157 28.2256 16.1978 28.2292C16.1901 28.2307 16.1822 28.2317 16.1744 28.2331C16.1177 28.2431 16.0595 28.25 15.9999 28.25C15.9394 28.25 15.8804 28.2434 15.8228 28.2331C15.8155 28.2318 15.8081 28.2307 15.8007 28.2292C15.7829 28.2256 15.7661 28.2181 15.7486 28.2135C15.7043 28.202 15.6598 28.1909 15.6171 28.1732C15.5783 28.1571 15.5426 28.1353 15.5064 28.1146C15.4309 28.0714 15.3574 28.0216 15.2929 27.957L11.5429 24.207C11.1524 23.8165 11.1524 23.1835 11.5429 22.793C11.9334 22.4025 12.5664 22.4025 12.957 22.793L14.9999 24.8359V10.6029C14.4478 10.4384 13.9393 10.1399 13.5247 9.72526C12.8683 9.06888 12.4999 8.17826 12.4999 7.25C12.4999 6.32174 12.8683 5.43112 13.5247 4.77474C14.181 4.11839 15.0717 3.75 15.9999 3.75Z" fill="#FAFAFA"/>
</svg>
