<svg width="32" height="32" viewBox="0 0 32 32" fill="none" xmlns="http://www.w3.org/2000/svg">
<path d="M22.4958 16.6938C24.4049 16.598 26.667 17.1841 27.1898 18.7303C27.2265 18.8049 27.2458 18.8881 27.2458 18.9712C27.2458 19.0541 27.2264 19.1363 27.1898 19.2108C27.146 19.2833 27.0849 19.3447 27.0127 19.3892C26.9405 19.4336 26.8577 19.4608 26.7732 19.4673C24.4923 19.4704 22.2748 20.2194 20.4594 21.6001H22.1338C22.2749 21.6003 22.4103 21.6567 22.5101 21.7563C22.61 21.8563 22.6664 21.9926 22.6664 22.134V25.8983C22.6664 26.6082 22.3844 27.2894 21.8825 27.7915C21.3806 28.2935 20.6992 28.5765 19.9893 28.5767H14.656C13.9461 28.5766 13.2648 28.2934 12.7627 27.7915C12.2609 27.2894 11.9789 26.6082 11.9789 25.8983V23.7655C12.45 24.0725 12.9942 24.2498 13.5557 24.2798C14.1173 24.3096 14.6783 24.1913 15.1794 23.936C15.6003 24.1548 16.0648 24.2781 16.5388 24.2954C17.0129 24.3126 17.4859 24.224 17.9216 24.0363C18.3574 23.8484 18.7477 23.5661 19.0609 23.2095C19.3741 22.8528 19.6041 22.4303 19.7341 21.9738C19.8806 21.5123 19.9173 21.0222 19.8409 20.5441C20.1793 20.2413 20.45 19.8696 20.6338 19.4543C20.8176 19.0388 20.9108 18.5882 20.9073 18.134C20.9048 17.7405 20.8323 17.3499 20.6937 16.9816C21.2806 16.8141 21.8859 16.7176 22.4958 16.6938Z" fill="#FAFAFA"/>
<path fill-rule="evenodd" clip-rule="evenodd" d="M11.7341 3.93604C11.972 3.93611 12.2083 3.983 12.4281 4.07406C12.6479 4.16518 12.8484 4.29903 13.0166 4.46729C13.1848 4.63557 13.3188 4.83603 13.4099 5.05583C13.5008 5.27564 13.5479 5.51195 13.5479 5.74984C13.5577 5.83804 13.5577 5.92726 13.5479 6.01546C13.7839 5.86032 14.0538 5.76178 14.3344 5.729C14.6148 5.69638 14.8998 5.73002 15.1651 5.82666C15.4306 5.92352 15.6705 6.08184 15.8643 6.2876C16.0581 6.49342 16.2015 6.74195 16.2823 7.01286C16.363 7.28379 16.3787 7.57047 16.3291 7.8488C16.2796 8.12697 16.1663 8.39068 15.9971 8.61702C15.8279 8.84331 15.6067 9.0272 15.3539 9.15348C15.1013 9.27945 14.8223 9.34418 14.5401 9.34359C14.7076 9.49253 14.8479 9.67036 14.9555 9.86702C15.1397 10.207 15.2116 10.597 15.1599 10.9803C15.1081 11.3636 14.9355 11.7209 14.6677 11.9998C14.7317 12.2558 14.817 12.5233 14.8916 12.8006C15.1049 13.5684 15.3288 14.3043 15.4568 14.9334C15.8163 15.0162 16.1386 15.2168 16.3721 15.5024C16.6054 15.788 16.7375 16.1429 16.7471 16.5116C16.7565 16.593 16.7565 16.6762 16.7471 16.7577C17.0108 16.598 17.3138 16.5123 17.6221 16.5116H17.7185C18.262 15.3491 19.0391 14.3101 20.001 13.4608C19.8828 13.1189 19.8714 12.7494 19.9685 12.4009C20.0657 12.0522 20.267 11.7405 20.5453 11.509C20.2296 11.4957 19.9211 11.4047 19.6495 11.2433C19.2735 10.979 19.0107 10.5811 18.9164 10.1313C18.8223 9.68138 18.9032 9.21187 19.1416 8.81885C19.3802 8.42595 19.759 8.13709 20.2015 8.01286C20.644 7.88882 21.1177 7.93821 21.5258 8.14958C21.5153 8.05751 21.5153 7.9643 21.5258 7.87223C21.5258 7.39133 21.717 6.92974 22.057 6.58968C22.3971 6.24979 22.8588 6.05843 23.3396 6.05843C23.8203 6.0586 24.2822 6.24977 24.6221 6.58968C24.9619 6.92971 25.1534 7.3915 25.1534 7.87223C25.1586 7.96451 25.1586 8.0573 25.1534 8.14958C25.436 7.96832 25.7669 7.87491 26.1026 7.88265C26.3434 7.87134 26.5847 7.9087 26.8109 7.99202C27.037 8.07541 27.2445 8.20352 27.4203 8.36833C27.5962 8.53336 27.7379 8.73246 27.8357 8.95296C27.9334 9.17363 27.9866 9.41218 27.9906 9.65348C27.988 10.1261 27.8012 10.5796 27.4711 10.9178C27.141 11.2559 26.6921 11.4533 26.2198 11.4673C26.4244 11.6396 26.5887 11.8557 26.7002 12.0988C26.8118 12.3421 26.8686 12.6072 26.8656 12.8748C26.8626 13.1424 26.8002 13.4062 26.6833 13.647C26.5663 13.8877 26.3971 14.1003 26.1885 14.2681C25.98 14.4357 25.7364 14.5557 25.4763 14.6183C25.216 14.6808 24.9441 14.6846 24.682 14.63C24.4201 14.5754 24.1729 14.4631 23.9594 14.3019C23.7458 14.1406 23.5706 13.9334 23.4463 13.6965C23.3413 13.9008 23.1955 14.0817 23.0193 14.229C22.7824 14.4326 22.4954 14.5706 22.1885 14.6287C21.8819 14.6866 21.5651 14.6626 21.2706 14.5597C20.3884 15.3356 19.6888 16.2979 19.2224 17.3761C19.2571 17.4517 19.2851 17.5303 19.307 17.6105V18.134C19.3146 18.4353 19.2398 18.7333 19.0896 18.9946C18.9391 19.256 18.7186 19.4708 18.4541 19.6157C18.2363 19.7271 17.9944 19.7854 17.7497 19.7863C17.9064 19.9208 18.037 20.0843 18.1338 20.2668C18.1843 20.3429 18.2133 20.432 18.2172 20.5233C18.221 20.6144 18.1997 20.705 18.156 20.785C18.1122 20.8649 18.0472 20.9318 17.9685 20.9777C17.8897 21.0234 17.7991 21.0469 17.7081 21.0454V21.6965C17.7003 21.8783 17.6641 22.0581 17.6013 22.229V22.3996L16.0974 21.7173H14.4646L14.3903 21.6535L14.3265 21.5897L14.2732 21.5259L14.2094 21.4504V21.3123C14.1238 21.4751 14.0118 21.6232 13.8786 21.7498L13.8135 21.8032V21.8566H12.4281V21.8032C12.4046 21.7831 12.3862 21.7565 12.3747 21.7277V21.5142C12.2249 21.1902 12.1845 20.8263 12.2614 20.4777C12.3385 20.1292 12.5282 19.8152 12.8005 19.5845H12.139L12.044 19.5311C11.8101 19.3899 11.6145 19.1907 11.4776 18.9543C11.4359 18.8867 11.4011 18.8146 11.3721 18.7407C11.2955 18.5435 11.2545 18.3338 11.2536 18.1222C11.2535 17.822 11.3356 17.5273 11.4893 17.2694V17.0662L11.6169 16.5116C11.6342 16.5072 11.653 16.5071 11.6703 16.5116L11.7341 16.4582H12.8435C13.0866 16.4795 13.321 16.5611 13.5258 16.6938C13.5211 16.6121 13.5211 16.5295 13.5258 16.4478C13.5282 16.0551 13.673 15.6765 13.932 15.3813C13.7814 14.6599 13.5881 13.9478 13.3552 13.2485C13.2912 13.0033 13.2173 12.768 13.1534 12.5441C12.8637 12.5078 12.5858 12.4029 12.3448 12.2381C12.1038 12.0731 11.9054 11.8519 11.7666 11.5949C11.6584 11.797 11.5129 11.9774 11.3396 12.1274C11.1625 12.3027 10.9508 12.4411 10.7185 12.5311C10.486 12.621 10.2358 12.6613 9.9867 12.6509C9.73786 12.6403 9.49318 12.5789 9.26925 12.4699C9.04514 12.3607 8.84643 12.2051 8.68462 12.0155C8.52279 11.8257 8.40164 11.6044 8.32915 11.3657C8.25675 11.1272 8.23379 10.8764 8.26274 10.6287C8.29173 10.381 8.37151 10.1411 8.49712 9.92562C8.6227 9.71037 8.79211 9.52333 8.99321 9.37614C8.67974 9.36827 8.37352 9.27568 8.1078 9.10921C7.87786 9.00496 7.67133 8.85391 7.50363 8.6652C7.33592 8.47639 7.21029 8.25355 7.13384 8.01286C7.05744 7.77217 7.03285 7.51772 7.06092 7.26676C7.08905 7.01593 7.16895 6.77358 7.2966 6.55583C7.42429 6.33808 7.59663 6.14949 7.80181 6.00244C8.0069 5.85556 8.24093 5.75257 8.488 5.70166C8.73523 5.65087 8.99147 5.6528 9.238 5.70687C9.48429 5.76097 9.71719 5.86602 9.9203 6.01546C9.91548 5.927 9.91548 5.8383 9.9203 5.74984C9.9203 5.5119 9.96733 5.27568 10.0583 5.05583C10.1494 4.83601 10.2833 4.63556 10.4515 4.46729C10.6198 4.29906 10.8202 4.16513 11.0401 4.07406C11.2599 3.98306 11.4962 3.93604 11.7341 3.93604ZM15.2328 17.9412C15.0221 17.9412 14.8156 18.004 14.6403 18.1209C14.465 18.2381 14.3279 18.4053 14.2471 18.6001C14.1665 18.7949 14.1461 19.0092 14.1872 19.216C14.2284 19.4229 14.3297 19.6137 14.4789 19.7629C14.6279 19.9116 14.818 20.0134 15.0245 20.0545C15.2312 20.0955 15.4469 20.074 15.6416 19.9933C15.8361 19.9125 16.0025 19.7752 16.1195 19.6001C16.2365 19.4248 16.2992 19.2184 16.2992 19.0077C16.2991 18.725 16.1865 18.4537 15.9867 18.2537C15.7868 18.054 15.5154 17.9414 15.2328 17.9412ZM23.1638 9.33317C22.957 9.3743 22.766 9.47581 22.6169 9.62484C22.468 9.77389 22.3664 9.96377 22.3252 10.1704C22.2841 10.3772 22.3058 10.5915 22.3864 10.7863C22.4671 10.981 22.6032 11.1483 22.7784 11.2655C22.9537 11.3825 23.1613 11.4451 23.3721 11.4451C23.6546 11.4448 23.9263 11.3324 24.126 11.1326C24.3257 10.9327 24.4385 10.6614 24.4385 10.3787C24.4385 10.168 24.3758 9.96158 24.2588 9.7863C24.1417 9.61103 23.9744 9.47383 23.7797 9.39307C23.585 9.31246 23.3704 9.29223 23.1638 9.33317ZM11.5258 7.48682C11.3193 7.52793 11.1292 7.62976 10.9802 7.77848C10.831 7.92763 10.7297 8.11849 10.6885 8.32536C10.6474 8.53214 10.6678 8.74643 10.7484 8.94124C10.8292 9.13607 10.9663 9.30324 11.1416 9.42041C11.3169 9.53738 11.5234 9.60009 11.7341 9.6001C12.0167 9.59995 12.2881 9.48739 12.488 9.2876C12.6878 9.08766 12.8004 8.81634 12.8005 8.53369C12.8005 8.32292 12.7378 8.11655 12.6208 7.94124C12.5038 7.76614 12.3374 7.6288 12.143 7.54801C11.9482 7.46735 11.7325 7.4458 11.5258 7.48682Z" fill="#FAFAFA"/>
<path d="M7.3604 14.3254C8.77622 14.2664 10.186 14.5519 11.4672 15.1574C10.8223 15.4293 10.2779 15.8955 9.90988 16.4907C9.53618 17.108 9.38192 17.8335 9.47238 18.5493C7.98454 17.8672 6.4429 17.3072 4.86431 16.8748L3.93722 16.5871C3.85837 16.5629 3.78556 16.5194 3.72628 16.4621C3.66708 16.4047 3.62148 16.3344 3.59477 16.2563C3.56768 16.1769 3.56029 16.0921 3.57134 16.009C3.58245 15.9257 3.61288 15.8455 3.65988 15.7759C4.12836 15.2722 4.70435 14.8797 5.34477 14.6287C5.98524 14.3779 6.67446 14.2741 7.3604 14.3254Z" fill="#FAFAFA"/>
</svg>
