<svg width="32" height="32" viewBox="0 0 32 32" fill="none" xmlns="http://www.w3.org/2000/svg">
<path d="M26.7904 15.1746C26.8446 15.175 26.8985 15.1899 26.9453 15.2176C26.9917 15.2452 27.0297 15.285 27.056 15.3322C27.0822 15.3796 27.0963 15.433 27.0951 15.4871C27.0938 15.5414 27.0779 15.5946 27.0495 15.6408L24.5898 19.577H27.8906C27.9771 19.5789 28.0617 19.6057 28.1328 19.6551C28.2039 19.7045 28.2584 19.7739 28.2904 19.8543C28.3222 19.9346 28.3302 20.0224 28.3125 20.1069C28.2947 20.1917 28.2517 20.2701 28.1901 20.3309L20.3607 27.6994C20.1621 27.8863 19.8435 27.6898 19.9219 27.4285L21.2878 22.8778H19.0872C18.9587 22.8778 18.8313 22.8479 18.7161 22.7905C18.6013 22.7333 18.5005 22.6509 18.4232 22.5483C18.3458 22.4457 18.2943 22.3258 18.2708 22.1994C18.2475 22.073 18.2536 21.9428 18.2891 21.8192L20.0365 15.7033C20.0799 15.5509 20.1719 15.4172 20.2982 15.3218C20.4246 15.2263 20.5785 15.1747 20.737 15.1746H26.7904Z" fill="#FAFAFA"/>
<path d="M19.7396 2.62386C20.2439 2.67503 20.638 3.10086 20.638 3.61865C20.638 4.13645 20.2439 4.56227 19.7396 4.61344L19.638 4.61865H16.7865V5.92074H21.4596L21.638 5.93636C22.0445 6.01001 22.3714 6.33088 22.444 6.75016L22.8203 8.92594L23.2096 10.8739L25.1927 11.0067C25.7447 11.0068 26.1925 11.4547 26.1927 12.0067V13.9611H20.5508C20.2221 13.9612 19.9012 14.0554 19.625 14.2306L19.5091 14.3101C19.2094 14.5365 18.991 14.8549 18.888 15.2163L17.1406 21.3309C17.0627 21.6029 17.049 21.89 17.1003 22.1681L17.1276 22.2788L11.9336 22.228C11.5751 22.2278 11.2444 22.0353 11.0664 21.7241L9.15234 18.3765H7.53255C7.17267 18.3765 6.82524 18.2508 6.54948 18.0249L6.4362 17.922C6.14565 17.6314 5.98186 17.2367 5.98177 16.8257V13.9728H4.67969V17.3765C4.67917 17.9283 4.23165 18.3765 3.67969 18.3765C3.12772 18.3765 2.6802 17.9283 2.67969 17.3765V8.57178C2.67969 8.01949 3.1274 7.57178 3.67969 7.57178C4.23197 7.57178 4.67969 8.01949 4.67969 8.57178V11.9728H5.98177V9.12256C5.98177 8.7115 6.14555 8.31693 6.4362 8.0262L6.54948 7.92334C6.8254 7.69715 7.17268 7.57178 7.53255 7.57178H9.31901L10.6771 6.2137L10.8294 6.0887C10.9924 5.98008 11.1853 5.92074 11.3841 5.92074H14.7865V4.61865H11.9336C11.3813 4.61865 10.9336 4.17094 10.9336 3.61865C10.9336 3.06637 11.3813 2.61865 11.9336 2.61865H19.638L19.7396 2.62386Z" fill="#FAFAFA"/>
</svg>
