<svg width="32" height="32" viewBox="0 0 32 32" fill="none" xmlns="http://www.w3.org/2000/svg">
<path fill-rule="evenodd" clip-rule="evenodd" d="M18.7396 4.6722C20.8528 4.7796 22.5339 6.52707 22.5339 8.66699V10.2191H24.6237V7.00553C24.6237 6.45325 25.0714 6.00553 25.6237 6.00553C26.1757 6.00589 26.6237 6.45347 26.6237 7.00553V11.2191C26.6233 11.7708 26.1755 12.2187 25.6237 12.2191H22.5339V15.0394H26.957C27.509 15.0397 27.957 15.4873 27.957 16.0394C27.957 16.5915 27.509 17.039 26.957 17.0394H22.5339V19.861H25.6237C26.1757 19.8614 26.6237 20.3089 26.6237 20.861V25.0745C26.6233 25.6263 26.1755 26.0742 25.6237 26.0745C25.0716 26.0745 24.6241 25.6265 24.6237 25.0745V21.861H22.5339V23.3337C22.5339 25.4736 20.8528 27.221 18.7396 27.3285L18.5339 27.3337H9.20052C7.06039 27.3337 5.31282 25.6529 5.20573 23.5394L5.19922 23.3337V8.66699C5.19922 6.45785 6.99138 4.66699 9.20052 4.66699H18.5339L18.7396 4.6722ZM14.9479 10.7048C14.6594 10.6044 14.3358 10.7073 14.1654 10.9521L10.7786 15.8337C10.6669 15.9951 10.637 16.1971 10.6979 16.3818C10.7592 16.5668 10.9052 16.7156 11.0938 16.7855L12.6146 17.3467L12.0312 20.585C11.9776 20.8841 12.151 21.1784 12.4453 21.2894C12.7395 21.3999 13.0749 21.2975 13.2474 21.0433L17.2266 15.1761C17.3444 15.0017 17.367 14.7819 17.2865 14.5889C17.2056 14.3958 17.0313 14.2513 16.8203 14.2035L15.1068 13.8167L15.3828 11.3766C15.4155 11.0839 15.2362 10.8053 14.9479 10.7048Z" fill="#FAFAFA"/>
</svg>
