<svg width="32" height="32" viewBox="0 0 32 32" fill="none" xmlns="http://www.w3.org/2000/svg">
<path d="M22.9328 25.6003H18.6661C18.5247 25.6003 18.389 25.5442 18.289 25.4441C18.189 25.3441 18.1328 25.2085 18.1328 25.067V23.3497C18.1313 23.2739 18.1134 23.1994 18.0802 23.1312C18.0471 23.0631 17.9995 23.0029 17.9408 22.955C17.8839 22.9029 17.816 22.8643 17.7421 22.8422C17.6682 22.82 17.5903 22.8148 17.5141 22.827C16.5058 22.9693 15.4825 22.9693 14.4741 22.827C14.3987 22.8145 14.3215 22.8187 14.2478 22.8393C14.1742 22.86 14.106 22.8965 14.048 22.9463C13.9901 22.9961 13.9437 23.0581 13.9123 23.1278C13.8809 23.1975 13.8651 23.2732 13.8661 23.3497V25.067C13.8661 25.2085 13.81 25.3441 13.7099 25.4441C13.6099 25.5442 13.4743 25.6003 13.3328 25.6003H9.06615C8.6418 25.6003 8.23483 25.7689 7.93477 26.069C7.63472 26.369 7.46615 26.776 7.46615 27.2003C7.46615 27.6247 7.63472 28.0317 7.93477 28.3317C8.23483 28.6318 8.6418 28.8003 9.06615 28.8003H22.9328C23.3572 28.8003 23.7641 28.6318 24.0642 28.3317C24.3642 28.0317 24.5328 27.6247 24.5328 27.2003C24.5328 26.776 24.3642 26.369 24.0642 26.069C23.7641 25.7689 23.3572 25.6003 22.9328 25.6003Z" fill="#FAFAFA"/>
<path d="M16.0003 21.3335C17.7935 21.3335 19.5464 20.8018 21.0374 19.8055C22.5284 18.8093 23.6905 17.3932 24.3768 15.7365C25.063 14.0798 25.2426 12.2568 24.8927 10.498C24.5429 8.73929 23.6794 7.12376 22.4114 5.85576C21.1434 4.58777 19.5278 3.72425 17.7691 3.37441C16.0103 3.02457 14.1873 3.20412 12.5306 3.89036C10.8739 4.57659 9.45786 5.73869 8.4616 7.2297C7.46534 8.7207 6.93359 10.4736 6.93359 12.2669C6.93642 14.6706 7.89256 16.9751 9.59228 18.6748C11.292 20.3746 13.5965 21.3307 16.0003 21.3335ZM17.3336 9.45087L18.7416 5.94153C18.7719 5.87265 18.8159 5.81064 18.8709 5.7593C18.9259 5.70795 18.9908 5.66834 19.0616 5.64287C19.1283 5.61148 19.2012 5.59521 19.2749 5.59521C19.3487 5.59521 19.4215 5.61148 19.4883 5.64287C20.6925 6.2791 21.6998 7.23261 22.4011 8.40017C23.1024 9.56774 23.471 10.9049 23.4669 12.2669C23.4722 12.3557 23.4722 12.4447 23.4669 12.5335C23.4653 12.6067 23.4483 12.6786 23.417 12.7448C23.3858 12.8109 23.341 12.8698 23.2856 12.9175C23.1675 13.0101 23.0193 13.0557 22.8696 13.0455L18.8483 12.4695C18.8002 12.4619 18.7566 12.4372 18.7252 12.3999C18.6939 12.3627 18.677 12.3155 18.6776 12.2669C18.6704 11.845 18.562 11.4311 18.3616 11.0598C18.1611 10.6886 17.8744 10.3709 17.5256 10.1335C17.4155 10.0631 17.3351 9.95459 17.2997 9.82873C17.2643 9.70288 17.2764 9.56841 17.3336 9.45087ZM16.0003 14.9335C16.3884 14.9361 16.7718 14.8484 17.1203 14.6775C17.2313 14.6296 17.355 14.6193 17.4725 14.6482C17.59 14.6771 17.6948 14.7436 17.7709 14.8375L20.0963 17.8029C20.1422 17.863 20.1753 17.9318 20.1937 18.0052C20.212 18.0785 20.2152 18.1549 20.2029 18.2295C20.1893 18.3022 20.1603 18.3712 20.118 18.4319C20.0758 18.4925 20.0211 18.5436 19.9576 18.5815C18.7728 19.3339 17.3984 19.7334 15.9949 19.7334C14.5915 19.7334 13.217 19.3339 12.0323 18.5815C11.9696 18.5413 11.9162 18.4881 11.8757 18.4256C11.8352 18.363 11.8086 18.2925 11.7976 18.2189C11.7827 18.146 11.7845 18.0706 11.803 17.9986C11.8215 17.9265 11.8561 17.8596 11.9043 17.8029L14.2189 14.8375C14.2951 14.7436 14.3999 14.6771 14.5174 14.6482C14.6348 14.6193 14.7585 14.6296 14.8696 14.6775C15.2214 14.8497 15.6086 14.9373 16.0003 14.9335ZM8.73626 12.9175C8.67586 12.8728 8.62628 12.8151 8.5912 12.7486C8.55612 12.6821 8.53643 12.6086 8.53359 12.5335C8.52827 12.4447 8.52827 12.3557 8.53359 12.2669C8.53436 10.9114 8.90409 9.58172 9.60313 8.42041C10.3022 7.25911 11.3041 6.31 12.5016 5.67487C12.5683 5.64348 12.6412 5.62721 12.7149 5.62721C12.7887 5.62721 12.8615 5.64348 12.9283 5.67487C13.0014 5.69902 13.0682 5.73938 13.1236 5.79294C13.179 5.8465 13.2216 5.91188 13.2483 5.9842L14.6563 9.48287C14.703 9.59431 14.7105 9.71832 14.6776 9.8346C14.6447 9.95088 14.5732 10.0525 14.4749 10.1229C14.1281 10.3614 13.8435 10.6796 13.6449 11.0508C13.4463 11.4219 13.3396 11.8353 13.3336 12.2562C13.3339 12.3064 13.3155 12.355 13.282 12.3925C13.2485 12.4299 13.2022 12.4536 13.1523 12.4589L9.15226 13.0242C9.07932 13.0369 9.00452 13.034 8.9328 13.0156C8.86108 12.9972 8.79409 12.9638 8.73626 12.9175Z" fill="#FAFAFA"/>
</svg>
