<svg width="32" height="32" viewBox="0 0 32 32" fill="none" xmlns="http://www.w3.org/2000/svg">
<path d="M9.22609 4H22.7739C23.4861 3.99999 24.0806 3.99998 24.5662 4.03965C25.0727 4.08104 25.5483 4.17052 25.998 4.39964C26.6879 4.75118 27.2488 5.31211 27.6004 6.00204C27.8295 6.45172 27.919 6.92726 27.9603 7.43377C28 7.91941 28 8.51387 28 9.22607V12L4 12V9.22609C3.99999 8.51389 3.99998 7.91942 4.03965 7.43377C4.08104 6.92726 4.17052 6.45172 4.39964 6.00204C4.75118 5.31211 5.31211 4.75118 6.00204 4.39964C6.45172 4.17052 6.92726 4.08104 7.43377 4.03965C7.91942 3.99998 8.51389 3.99999 9.22609 4Z" fill="#FAFAFA"/>
<path d="M4 14V22.7739C3.99999 23.4861 3.99998 24.0806 4.03965 24.5662C4.08104 25.0727 4.17052 25.5483 4.39964 25.998C4.75118 26.6879 5.31211 27.2488 6.00204 27.6004C6.45172 27.8295 6.92726 27.919 7.43377 27.9603C7.91941 28 8.51387 28 9.22607 28L15 28V14L4 14Z" fill="#FAFAFA"/>
<path d="M17 28L22.7739 28C23.4861 28 24.0806 28 24.5662 27.9603C25.0727 27.919 25.5483 27.8295 25.998 27.6004C26.6879 27.2488 27.2488 26.6879 27.6004 25.998C27.8295 25.5483 27.919 25.0727 27.9603 24.5662C28 24.0806 28 23.4861 28 22.7739V14H17V28Z" fill="#FAFAFA"/>
</svg>
