<svg width="32" height="32" viewBox="0 0 32 32" fill="none" xmlns="http://www.w3.org/2000/svg">
<path fill-rule="evenodd" clip-rule="evenodd" d="M2.66602 16.0001C2.66602 8.63628 8.63555 2.66675 15.9993 2.66675C23.3631 2.66675 29.3327 8.63628 29.3327 16.0001C29.3327 23.3639 23.3631 29.3334 15.9993 29.3334C8.63555 29.3334 2.66602 23.3639 2.66602 16.0001ZM12.666 14.0001C13.7706 14.0001 14.666 13.1047 14.666 12.0001C14.666 10.8955 13.7706 10.0001 12.666 10.0001C11.5614 10.0001 10.666 10.8955 10.666 12.0001C10.666 13.1047 11.5614 14.0001 12.666 14.0001ZM21.3327 12.0001C21.3327 13.1047 20.4373 14.0001 19.3327 14.0001C18.2281 14.0001 17.3327 13.1047 17.3327 12.0001C17.3327 10.8955 18.2281 10.0001 19.3327 10.0001C20.4373 10.0001 21.3327 10.8955 21.3327 12.0001ZM8.33268 16.0001C8.33268 15.4478 7.88497 15.0001 7.33268 15.0001C6.7804 15.0001 6.33268 15.4478 6.33268 16.0001C6.33268 21.3388 10.6606 25.6667 15.9993 25.6667C21.3381 25.6667 25.666 21.3388 25.666 16.0001C25.666 15.4478 25.2183 15.0001 24.666 15.0001C24.1137 15.0001 23.666 15.4478 23.666 16.0001C23.666 20.2343 20.2335 23.6667 15.9993 23.6667C11.7652 23.6667 8.33268 20.2343 8.33268 16.0001Z" fill="#FAFAFA"/>
</svg>
