<svg width="32" height="32" viewBox="0 0 32 32" fill="none" xmlns="http://www.w3.org/2000/svg">
<path d="M2.66699 16.0001C2.66699 8.63628 8.63653 2.66675 16.0003 2.66675C23.3641 2.66675 29.3337 8.63628 29.3337 16.0001C29.3337 23.3639 23.3641 29.3334 16.0003 29.3334C8.63653 29.3334 2.66699 23.3639 2.66699 16.0001Z" fill="#FAFAFA"/>
<path d="M21.3963 11.3636C21.7067 10.963 22.2761 10.8551 22.7153 11.1293C23.1833 11.4219 23.3266 12.0386 23.0343 12.5069L18.0108 20.5538C17.8623 20.7915 17.6198 20.9557 17.3442 21.0069C17.1032 21.0515 16.8556 21.0055 16.6476 20.8806L16.5603 20.822L15.4562 19.9899L15.3767 19.9248C15.0051 19.5805 14.9483 19.0036 15.2595 18.5902C15.5711 18.1768 16.1412 18.0727 16.5747 18.335L16.6593 18.3936L16.8911 18.5681L21.3377 11.447L21.3963 11.3636Z" fill="#131313"/>
<path d="M16.4405 11.5642C16.7438 11.1028 17.3644 10.9747 17.826 11.2777C18.2873 11.5809 18.4155 12.2016 18.1124 12.6631L12.9848 20.4717C12.832 20.7042 12.5886 20.8631 12.3142 20.9092C12.0398 20.9553 11.7586 20.8838 11.5382 20.7139L9.20356 18.9144L9.12543 18.848C8.75779 18.4996 8.70673 17.922 9.02257 17.5121C9.33865 17.1025 9.90983 17.0056 10.3403 17.2725L10.4249 17.3311L11.9041 18.4717L16.4405 11.5642Z" fill="#131313"/>
</svg>
