<svg width="32" height="32" viewBox="0 0 32 32" fill="none" xmlns="http://www.w3.org/2000/svg">
<path d="M13.0768 11.7591C12.8107 10.9998 12.666 10.1834 12.666 9.33325C12.666 6.05482 14.8173 3.27886 17.7853 2.34007C16.9081 1.70657 15.8307 1.33325 14.666 1.33325C11.7205 1.33325 9.33268 3.72107 9.33268 6.66659C9.33268 9.05861 10.9074 11.0828 13.0768 11.7591Z" fill="#FAFAFA"/>
<path d="M19.9993 3.99992C19.308 3.99992 18.6443 4.13213 18.0345 4.37388C16.0636 5.15523 14.666 7.0794 14.666 9.33325C14.666 9.81715 14.7308 10.288 14.8529 10.7367C15.4692 13.0004 17.538 14.6666 19.9993 14.6666C22.9449 14.6666 25.3327 12.2788 25.3327 9.33325C25.3327 6.38773 22.9449 3.99992 19.9993 3.99992Z" fill="#FAFAFA"/>
<path fill-rule="evenodd" clip-rule="evenodd" d="M2.66602 19.6666C2.66602 17.6415 4.30764 15.9999 6.33268 15.9999C7.56888 15.9999 8.66219 16.6117 9.32639 17.549C12.9047 16.649 15.8976 16.387 18.2394 16.5382C20.659 16.6944 22.5372 17.3032 23.5744 18.268C23.9349 18.6034 24.2249 19.0148 24.3646 19.4849C24.5931 19.3181 24.8148 19.1484 25.0272 18.9796C26.472 17.8315 28.7137 17.8922 29.952 19.442C30.8917 20.6183 30.9427 22.3535 29.8722 23.5324C26.6237 27.1095 22.5073 29.5653 17.2766 29.3159C16.049 29.2574 14.585 28.8843 13.4803 28.5515C12.9167 28.3816 12.4248 28.2154 12.0733 28.0916C11.9098 28.0339 11.7762 27.9853 11.6793 27.9495H9.20216C8.53038 28.7928 7.49465 29.3333 6.33268 29.3333C4.30764 29.3333 2.66602 27.6916 2.66602 25.6666V19.6666ZM9.9886 25.9495H11.861C11.9842 25.9495 12.1064 25.9723 12.2214 26.0167M12.2214 26.0167L12.228 26.0192L12.2527 26.0286C12.2751 26.0371 12.309 26.0499 12.3535 26.0664C12.4425 26.0994 12.5735 26.1473 12.7381 26.2053C13.0678 26.3215 13.5297 26.4775 14.0573 26.6365C15.1352 26.9613 16.4028 27.272 17.3719 27.3182C21.8284 27.5307 25.4073 25.474 28.3916 22.1878C28.7443 21.7994 28.7713 21.1684 28.3894 20.6905C27.9239 20.1077 26.9631 19.9959 26.2715 20.5455C25.0721 21.4985 23.3797 22.6573 21.6892 23.1265C21.123 23.2837 20.5607 23.4074 20.0395 23.5045C19.2647 23.6657 18.3949 23.7797 17.4354 23.8417L17.4102 23.8434L17.389 23.8447L17.3867 23.8448L17.3828 23.8451L17.3808 23.8452C17.3808 23.8452 17.3796 23.8452 17.3243 22.8468L17.3808 23.8452C16.8308 23.8756 16.3584 23.4556 16.326 22.9057C16.2936 22.3557 16.712 21.8831 17.2618 21.8487C17.2784 21.8477 17.295 21.8466 17.3115 21.8456L17.3459 21.8433C17.4005 21.8394 17.4826 21.8332 17.5884 21.824C17.8001 21.8055 18.1055 21.775 18.4733 21.7272C18.8219 21.682 19.2228 21.6217 19.6505 21.5426C20.8885 21.2831 21.6852 20.9164 22.1149 20.5668C22.43 20.3106 22.4532 20.1458 22.4548 20.115C22.456 20.0934 22.4581 19.9611 22.2122 19.7324C21.6804 19.2377 20.3676 18.6797 18.1105 18.534C16.0514 18.4011 13.3295 18.6209 9.99271 19.4441C9.99712 19.5177 9.99935 19.5919 9.99935 19.6666V25.6666C9.99935 25.7618 9.99572 25.8561 9.9886 25.9495" fill="#FAFAFA"/>
</svg>
