<svg width="32" height="32" viewBox="0 0 32 32" fill="none" xmlns="http://www.w3.org/2000/svg">
<path fill-rule="evenodd" clip-rule="evenodd" d="M16.0003 2.6665C23.3641 2.6665 29.3337 8.63604 29.3337 15.9998C29.3337 23.3636 23.3641 29.3332 16.0003 29.3332C8.63653 29.3332 2.66699 23.3636 2.66699 15.9998C2.66699 8.63604 8.63653 2.6665 16.0003 2.6665ZM10.3337 14.9998C10.0684 14.9998 9.81416 15.1053 9.62663 15.2928C9.43909 15.4803 9.33366 15.7346 9.33366 15.9998C9.33366 16.2651 9.43909 16.5193 9.62663 16.7069C9.81416 16.8944 10.0684 16.9998 10.3337 16.9998H21.667C21.9322 16.9998 22.1865 16.8944 22.374 16.7069C22.5616 16.5193 22.667 16.2651 22.667 15.9998C22.667 15.7346 22.5616 15.4803 22.374 15.2928C22.1865 15.1053 21.9322 14.9998 21.667 14.9998H10.3337Z" fill="#FAFAFA"/>
<path d="M21.6663 15C21.9316 15 22.1858 15.1054 22.3734 15.293C22.5609 15.4805 22.6663 15.7348 22.6663 16C22.6663 16.2652 22.5609 16.5195 22.3734 16.707C22.1858 16.8946 21.9316 17 21.6663 17H10.333C10.0678 17 9.81351 16.8946 9.62598 16.707C9.43844 16.5195 9.33301 16.2652 9.33301 16C9.33301 15.7348 9.43844 15.4805 9.62598 15.293C9.81351 15.1054 10.0678 15 10.333 15H21.6663Z" fill="#131313"/>
</svg>
