<svg width="32" height="32" viewBox="0 0 32 32" fill="none" xmlns="http://www.w3.org/2000/svg">
<path fill-rule="evenodd" clip-rule="evenodd" d="M13.6126 3.6747C14.9404 2.33044 17.0609 2.33044 18.3887 3.6747C19.7975 5.10135 21.8473 7.36222 23.5501 9.9898C25.2386 12.5954 26.6673 15.6845 26.6673 18.7424C26.6671 24.5996 21.8843 29.3349 16.0007 29.3349C10.117 29.3349 5.33418 24.5996 5.33398 18.7424C5.33398 15.6845 6.76267 12.5954 8.45117 9.9898C10.154 7.36222 12.2038 5.10135 13.6126 3.6747ZM20.041 14.1343C19.6505 13.7438 19.0175 13.7438 18.627 14.1343L11.9603 20.801C11.5698 21.1915 11.5698 21.8246 11.9603 22.2151C12.3508 22.6054 12.9839 22.6054 13.3743 22.2151L20.041 15.5484C20.4315 15.1579 20.4314 14.5249 20.041 14.1343ZM18.6673 19.1747C17.7468 19.1747 17.0007 19.9209 17.0007 20.8414C17.0007 21.7618 17.7469 22.508 18.6673 22.508C19.5877 22.508 20.3339 21.7618 20.334 20.8414C20.334 19.9209 19.5878 19.1747 18.6673 19.1747ZM13.334 13.8414C12.4135 13.8414 11.6673 14.5876 11.6673 15.508C11.6674 16.4284 12.4136 17.1747 13.334 17.1747C14.2544 17.1747 15.0006 16.4284 15.0007 15.508C15.0007 14.5876 14.2545 13.8414 13.334 13.8414Z" fill="#FAFAFA"/>
</svg>
