<svg width="32" height="32" viewBox="0 0 32 32" fill="none" xmlns="http://www.w3.org/2000/svg">
<path d="M13.6042 19.3996C13.6045 19.0919 13.9379 18.8993 14.2044 19.0532L20.1328 22.4777C20.2566 22.5492 20.3333 22.6812 20.3333 22.8241V29.311C20.3329 29.6147 20.0073 29.8073 19.7409 29.6613L14.1237 26.5819C13.8037 26.4063 13.6043 26.0693 13.6042 25.7043V19.3996Z" fill="#FAFAFA"/>
<path d="M28.4635 19.0519C28.73 18.8981 29.0634 19.0907 29.0638 19.3983V25.7043C29.0637 26.0692 28.8642 26.4063 28.5443 26.5819L22.9258 29.6613C22.6594 29.8073 22.3337 29.6147 22.3333 29.311V22.8241C22.3333 22.6812 22.4101 22.5492 22.5339 22.4777L28.4635 19.0519Z" fill="#FAFAFA"/>
<path d="M23.6315 2.2876C23.9846 2.28782 24.2705 2.57518 24.2708 2.92822V10.1821C24.2705 10.5352 23.9846 10.8225 23.6315 10.8228H18.8711V7.13005C18.8711 6.57776 18.4234 6.13005 17.8711 6.13005C17.3188 6.13005 16.8711 6.57776 16.8711 7.13005V10.8228H12.1107C12.058 10.8228 12.0073 10.8303 11.9583 10.8423V7.13005C11.9583 6.57798 11.5103 6.1304 10.9583 6.13005C10.406 6.13005 9.95833 6.57776 9.95833 7.13005V9.33057H7.75781C7.20553 9.33057 6.75781 9.77828 6.75781 10.3306C6.75816 10.8826 7.20574 11.3306 7.75781 11.3306H11.4857C11.4768 11.3729 11.4714 11.4171 11.4714 11.4621V16.2212H7.75781C7.20553 16.2212 6.75781 16.6689 6.75781 17.2212C6.75816 17.7732 7.20574 18.2212 7.75781 18.2212H11.4714V22.9829C11.4708 23.3359 11.1838 23.6222 10.8307 23.6222H3.57682C3.224 23.6219 2.93807 23.3357 2.9375 22.9829V2.92822C2.93783 2.57525 3.22385 2.28793 3.57682 2.2876H23.6315Z" fill="#FAFAFA"/>
<path d="M20.9688 13.7056C21.2425 13.5983 21.5534 13.6168 21.8151 13.7603L27.2513 16.7407C27.5248 16.8906 27.5292 17.2814 27.2591 17.4373L21.5326 20.7459C21.4088 20.8174 21.2553 20.8174 21.1315 20.7459L15.4076 17.4386C15.1375 17.2827 15.1419 16.8919 15.4154 16.742L20.8542 13.7603L20.9688 13.7056Z" fill="#FAFAFA"/>
</svg>
