<svg width="32" height="32" viewBox="0 0 32 32" fill="none" xmlns="http://www.w3.org/2000/svg">
<path d="M22.4316 27.316C22.4835 27.5588 22.4806 27.8113 22.4229 28.0528C22.3652 28.2941 22.2544 28.5206 22.0985 28.7136C21.9425 28.9062 21.7438 29.0635 21.5202 29.1704C21.3526 29.2502 21.1709 29.3016 20.9874 29.3223L20.8018 29.3332H11.1968C10.9492 29.3327 10.7019 29.2771 10.4785 29.1704C10.2551 29.0633 10.0559 28.9062 9.90014 28.7136C9.74456 28.5207 9.63334 28.2938 9.57571 28.0528C9.51817 27.8115 9.51529 27.5597 9.56703 27.3171L11.276 19.3419H20.7226L22.4316 27.316Z" fill="#FAFAFA"/>
<path fill-rule="evenodd" clip-rule="evenodd" d="M23.7511 15.657C23.6376 16.2233 23.3307 16.7338 22.8841 17.1001C22.4933 17.4198 22.0145 17.6135 21.5147 17.6567L21.2988 17.6665H20.3635L20.3656 17.6752H11.633L11.6352 17.6665H10.6998C10.1242 17.6664 9.5639 17.4672 9.11781 17.1034C8.67188 16.739 8.36392 16.2309 8.24867 15.6667L8.24758 15.6635L7.48044 11.8267H24.5171L23.7511 15.657ZM9.88061 15.3336C9.91902 15.5211 10.0234 15.6908 10.1714 15.8121C10.3197 15.9329 10.5076 15.9995 10.6988 15.9998H11.8283V12.6665H9.34784L9.88061 15.3336ZM20.1682 15.9998H21.2999C21.4914 15.9996 21.6788 15.9321 21.8272 15.811C21.9759 15.6891 22.0791 15.5188 22.1169 15.3303L22.6497 12.6665H20.1682V15.9998Z" fill="#FAFAFA"/>
<path d="M16.0015 2.6665C16.4615 2.66676 16.8348 3.03976 16.8348 3.49984V7.6665H20.1682V5.1665C20.1682 4.70627 20.5413 4.33317 21.0015 4.33317C21.4615 4.33343 21.8348 4.70643 21.8348 5.1665V7.6665H23.317L23.5004 7.67735C23.682 7.69776 23.8618 7.74883 24.0277 7.82709C24.2491 7.93188 24.4459 8.08527 24.6017 8.27414C24.7577 8.46363 24.8711 8.68625 24.9316 8.9241C24.992 9.16211 24.999 9.41114 24.9522 9.65218L24.9511 9.65652L24.8502 10.16H7.14732L7.04749 9.66303L7.04858 9.66195C7.00035 9.42106 7.00477 9.17128 7.06377 8.93278C7.12309 8.69366 7.23569 8.46934 7.39146 8.27848C7.54739 8.08788 7.74635 7.93287 7.96872 7.82709C8.19104 7.72184 8.43673 7.66688 8.68269 7.6665H10.1682V5.1665C10.1682 4.70627 10.5413 4.33317 11.0015 4.33317C11.4615 4.33343 11.8348 4.70643 11.8348 5.1665V7.6665H15.1682V3.49984C15.1682 3.0396 15.5413 2.6665 16.0015 2.6665Z" fill="#FAFAFA"/>
</svg>
