<svg width="32" height="32" viewBox="0 0 32 32" fill="none" xmlns="http://www.w3.org/2000/svg">
<path d="M16.5338 4.14447C18.1152 3.54049 19.8378 3.40592 21.4934 3.75906C23.149 4.11239 24.6686 4.93713 25.8658 6.13405L25.9908 6.2877C26.0991 6.45054 26.1587 6.64394 26.1588 6.84239C26.1585 7.04092 26.0993 7.23428 25.9908 7.39708L25.8645 7.54812L23.9634 9.44786C23.8848 9.41016 23.7984 9.36925 23.7056 9.32286C22.935 8.93751 21.547 8.20181 19.6848 8.20176L19.6262 8.20307L19.5819 8.20437C19.5722 8.20466 19.5617 8.20524 19.552 8.20567C17.9001 8.27896 16.2751 8.64181 14.7525 9.27728L14.1067 9.56635C12.6119 10.2808 11.9796 12.0722 12.6926 13.5663L12.8384 13.8372C12.9701 14.0533 13.1299 14.2444 13.3046 14.4153C12.4117 15.288 12.1253 16.664 12.6926 17.8528C12.8486 18.1793 13.0601 18.4612 13.3046 18.7005C12.4117 19.5731 12.1254 20.9491 12.6926 22.138C13.4065 23.632 15.1973 24.2659 16.6926 23.552C17.6436 23.0977 18.675 22.8346 19.7265 22.776C19.9098 22.781 20.0797 22.8209 20.4504 22.9869C20.1837 23.6394 19.8416 24.2623 19.4218 24.8372C18.4233 26.2042 17.0487 27.2525 15.4674 27.8567C13.886 28.4607 12.1633 28.5952 10.5077 28.2421C8.8521 27.8889 7.33257 27.064 6.13532 25.8671C5.94809 25.6799 5.84266 25.4249 5.84235 25.1601C5.84234 24.8952 5.9482 24.6405 6.13532 24.4531L9.84105 20.7447C8.88464 20.4608 7.97776 20.016 7.16397 19.4218C5.79685 18.4234 4.7487 17.0488 4.14443 15.4674C3.54041 13.8861 3.40599 12.1633 3.75902 10.5078C4.1123 8.85217 4.93719 7.33258 6.13402 6.13536L6.28766 6.01036C6.45039 5.90211 6.64272 5.84251 6.84105 5.84239C7.10621 5.84243 7.36058 5.94916 7.54808 6.13666L11.2551 9.84239C11.5391 8.88552 11.9849 7.97815 12.5793 7.164C13.5778 5.79692 14.9524 4.74869 16.5338 4.14447Z" fill="#FAFAFA"/>
<path d="M22.5064 23.9205C23.2055 24.1718 24.058 24.3814 25.0442 24.3814C25.108 24.3814 25.1653 24.378 25.1757 24.3775C25.8596 24.3472 26.539 24.2651 27.2082 24.1367C26.8367 24.7635 26.3874 25.3454 25.8671 25.8658C25.6796 26.0531 25.4238 26.1587 25.1588 26.1588C24.8939 26.1587 24.6391 26.053 24.4517 25.8658L22.5064 23.9205Z" fill="#FAFAFA"/>
<path d="M26.2903 18.7916C26.5373 18.2976 27.1387 18.0967 27.6327 18.3437L29.7759 19.4153C30.1173 19.5862 30.3315 19.9372 30.328 20.3189C30.3243 20.7006 30.1035 21.0476 29.759 21.2122C28.296 21.9111 26.7069 22.3084 25.0871 22.3801C25.0726 22.3808 25.0574 22.3814 25.0429 22.3814C23.7074 22.3814 22.7082 21.8671 21.9166 21.4713C21.1099 21.068 20.5054 20.7794 19.7108 20.7734C18.3655 20.8355 17.0459 21.1667 15.8306 21.7473C15.3325 21.9851 14.7354 21.774 14.4973 21.276C14.2596 20.7778 14.4707 20.1808 14.9687 19.9426C16.4316 19.2437 18.0207 18.8465 19.6405 18.7747L19.6848 18.7734C21.0203 18.7734 22.0194 19.2877 22.8111 19.6835C23.6173 20.0866 24.2217 20.3737 25.0155 20.3801C25.6044 20.3531 26.1879 20.2717 26.7603 20.1432L26.7382 20.1328C26.2446 19.886 26.0442 19.2854 26.2903 18.7916Z" fill="#FAFAFA"/>
<path d="M26.2903 14.5051C26.5373 14.0116 27.1389 13.8106 27.6327 14.0572L29.7759 15.1288C30.1171 15.2997 30.3312 15.6509 30.328 16.0325C30.3245 16.4143 30.1036 16.7611 29.759 16.9257C28.2959 17.6247 26.707 18.0219 25.0871 18.0937C25.0726 18.0943 25.0574 18.095 25.0429 18.095C23.7074 18.0949 22.7082 17.5807 21.9166 17.1848C21.1101 16.7816 20.5053 16.493 19.7108 16.4869C18.3655 16.549 17.0459 16.8803 15.8306 17.4609C15.3323 17.699 14.7354 17.4879 14.4973 16.9895C14.2599 16.4914 14.4706 15.8941 14.9687 15.6562C16.4316 14.9573 18.0207 14.5601 19.6405 14.4882L19.6848 14.4869C21.0201 14.4869 22.0195 15.0013 22.8111 15.3971C23.6173 15.8002 24.2217 16.0873 25.0155 16.0937C25.6045 16.0666 26.1878 15.9853 26.7603 15.8567L26.7382 15.8463C26.2447 15.5993 26.0439 14.9989 26.2903 14.5051Z" fill="#FAFAFA"/>
<path d="M26.2903 10.22C26.5372 9.72606 27.1388 9.5252 27.6327 9.77208L29.7759 10.8437C30.1173 11.0146 30.3315 11.3655 30.328 11.7473C30.3245 12.1292 30.1036 12.4759 29.759 12.6406C28.296 13.3395 26.7069 13.7367 25.0871 13.8085C25.0726 13.8092 25.0574 13.8098 25.0429 13.8098C23.7074 13.8098 22.7082 13.2955 21.9166 12.8997C21.11 12.4964 20.5053 12.2078 19.7108 12.2018C18.3655 12.2639 17.0459 12.5951 15.8306 13.1757C15.3323 13.4137 14.7354 13.2026 14.4973 12.7044C14.2596 12.2062 14.4706 11.6091 14.9687 11.371C16.4317 10.6721 18.0207 10.2749 19.6405 10.2031L19.6848 10.2018C21.0203 10.2018 22.0194 10.7161 22.8111 11.1119C23.6173 11.515 24.2217 11.8021 25.0155 11.8085C25.6045 11.7814 26.1879 11.7001 26.7603 11.5716L26.7382 11.5611C26.2446 11.3142 26.0439 10.7138 26.2903 10.22Z" fill="#FAFAFA"/>
</svg>
