<svg width="32" height="32" viewBox="0 0 32 32" fill="none" xmlns="http://www.w3.org/2000/svg">
<path d="M20.9997 10.3333C20.9997 9.78097 20.552 9.33325 19.9997 9.33325C19.4474 9.33325 18.9997 9.78097 18.9997 10.3333C18.9997 13.5677 18.2852 15.6683 16.9766 16.9768C15.668 18.2854 13.5674 18.9999 10.333 18.9999C9.78072 18.9999 9.33301 19.4476 9.33301 19.9999C9.33301 20.5522 9.78072 20.9999 10.333 20.9999C13.5674 20.9999 15.668 21.7144 16.9766 23.023C18.2852 24.3316 18.9997 26.4322 18.9997 29.6666C18.9997 30.2189 19.4474 30.6666 19.9997 30.6666C20.552 30.6666 20.9997 30.2189 20.9997 29.6666C20.9997 26.4322 21.7142 24.3316 23.0228 23.023C24.3313 21.7144 26.4319 20.9999 29.6663 20.9999C30.2186 20.9999 30.6663 20.5522 30.6663 19.9999C30.6663 19.4476 30.2186 18.9999 29.6663 18.9999C26.4319 18.9999 24.3313 18.2854 23.0228 16.9768C21.7142 15.6683 20.9997 13.5677 20.9997 10.3333Z" fill="#FAFAFA"/>
<path d="M9.66634 2.33325C9.66634 1.78097 9.21863 1.33325 8.66634 1.33325C8.11406 1.33325 7.66634 1.78097 7.66634 2.33325C7.66634 4.41026 7.20646 5.67754 6.44187 6.44212C5.67729 7.2067 4.41001 7.66659 2.33301 7.66659C1.78072 7.66659 1.33301 8.1143 1.33301 8.66659C1.33301 9.21887 1.78072 9.66659 2.33301 9.66659C4.41001 9.66659 5.67729 10.1265 6.44187 10.8911C7.20646 11.6556 7.66634 12.9229 7.66634 14.9999C7.66634 15.5522 8.11406 15.9999 8.66634 15.9999C9.21863 15.9999 9.66634 15.5522 9.66634 14.9999C9.66634 12.9229 10.1262 11.6556 10.8908 10.8911C11.6554 10.1265 12.9227 9.66659 14.9997 9.66659C15.552 9.66659 15.9997 9.21887 15.9997 8.66659C15.9997 8.1143 15.552 7.66659 14.9997 7.66659C12.9227 7.66659 11.6554 7.2067 10.8908 6.44212C10.1262 5.67754 9.66634 4.41026 9.66634 2.33325Z" fill="#FAFAFA"/>
</svg>
