<svg width="32" height="32" viewBox="0 0 32 32" fill="none" xmlns="http://www.w3.org/2000/svg">
<path fill-rule="evenodd" clip-rule="evenodd" d="M29.3327 23.0002C29.3327 25.0252 27.6911 26.6668 25.666 26.6668H6.33268C4.30764 26.6668 2.66602 25.0252 2.66602 23.0002V9.00016C2.66602 6.97512 4.30764 5.3335 6.33268 5.3335H25.666C27.6911 5.3335 29.3327 6.97512 29.3327 9.00016V23.0002ZM7.41471 17.4116C8.19397 17.4115 8.82617 16.7794 8.82617 16.0002C8.82609 15.2697 8.2707 14.6688 7.55924 14.5965L7.41471 14.5887L7.27018 14.5965C6.55899 14.6691 6.00464 15.2698 6.00456 16.0002C6.00456 16.7794 6.63555 17.4114 7.41471 17.4116ZM24.9993 18.8752C25.5516 18.8752 25.9993 18.4274 25.9993 17.8752V14.1252C25.9993 13.5729 25.5516 13.1252 24.9993 13.1252C24.4471 13.1252 23.9993 13.5729 23.9993 14.1252V17.8752C23.9993 18.4274 24.4471 18.8752 24.9993 18.8752Z" fill="#FAFAFA"/>
</svg>
