<svg width="32" height="32" viewBox="0 0 32 32" fill="none" xmlns="http://www.w3.org/2000/svg">
<path fill-rule="evenodd" clip-rule="evenodd" d="M12.0794 5.64978C12.4699 5.25932 13.103 5.25932 13.4935 5.64978L17.487 9.64327H24.3099C26.0071 9.64327 27.3492 10.838 28.2096 12.3438C29.086 13.8778 29.5964 15.9307 29.5964 18.1433C29.5963 20.3558 29.0861 22.4088 28.2096 23.9428C27.3492 25.4483 26.007 26.6433 24.3099 26.6433H7.69141C7.65489 26.6433 7.61884 26.6406 7.58333 26.6368C5.99384 26.588 4.6706 25.4773 3.79297 23.9415C2.88546 22.353 2.40625 20.2655 2.40625 18.142C2.40634 16.0184 2.88539 13.9308 3.79297 12.3425C4.69045 10.7721 6.0539 9.64223 7.69141 9.64197C7.7014 9.64197 7.71138 9.64319 7.72135 9.64327H14.6589L12.0794 7.06385C11.6889 6.67332 11.6889 6.04029 12.0794 5.64978ZM7.69141 11.6433C7.05621 11.6435 6.23953 12.0932 5.52995 13.3347C4.83027 14.5591 4.40634 16.2877 4.40625 18.142C4.40625 19.9962 4.83035 21.7247 5.52995 22.9493C6.23959 24.191 7.05614 24.6417 7.69141 24.642C8.32677 24.642 9.1443 24.1915 9.85417 22.9493C10.5538 21.7247 10.9779 19.9962 10.9779 18.142C10.9778 16.2877 10.5538 14.5591 9.85417 13.3347C9.14436 12.0928 8.3267 11.6433 7.69141 11.6433ZM12.7995 20.3568C12.6863 21.0527 12.5206 21.7257 12.3021 22.3568H17.3346C17.8869 22.3568 18.3346 21.9091 18.3346 21.3568C18.3345 20.8047 17.8868 20.3568 17.3346 20.3568H12.7995ZM17.8828 15C17.3306 15 16.883 15.4479 16.8828 16C16.883 16.5522 17.3306 17 17.8828 17H27.5417C27.4736 16.2826 27.3409 15.6105 27.1615 15H17.8828Z" fill="#FAFAFA"/>
</svg>
