<svg width="32" height="32" viewBox="0 0 32 32" fill="none" xmlns="http://www.w3.org/2000/svg">
<path d="M18.4115 19.8498C18.4813 19.8498 18.5505 19.8637 18.6146 19.8914C18.6787 19.9192 18.736 19.9603 18.7839 20.0112L20.9388 22.1545C21.0372 22.2559 21.0924 22.3921 21.0924 22.5334C21.0924 22.6747 21.0372 22.8108 20.9388 22.9123L18.3359 25.5151C18.1297 25.7186 17.8724 25.8623 17.5911 25.9318C17.3097 26.0012 17.0143 25.9939 16.737 25.9097C16.6901 25.8977 16.6404 25.898 16.5938 25.911C16.5471 25.924 16.504 25.9493 16.4701 25.9839L14.0586 28.3953C13.8588 28.5937 13.5888 28.7052 13.3073 28.7052C13.0255 28.7052 12.7545 28.594 12.5547 28.3953C12.4547 28.2962 12.3758 28.1777 12.3216 28.0477C12.2675 27.9177 12.2396 27.7783 12.2396 27.6375C12.2396 27.4967 12.2675 27.3573 12.3216 27.2274C12.3758 27.0974 12.4547 26.9789 12.5547 26.8797L14.9661 24.4696C14.9999 24.4351 15.0239 24.3914 15.0352 24.3446C15.0463 24.2978 15.0444 24.2485 15.0299 24.2026C14.9477 23.9269 14.9412 23.6343 15.0104 23.355C15.0798 23.0756 15.2227 22.8195 15.4245 22.6141L18.0378 20.0112C18.0856 19.9602 18.1441 19.9192 18.2083 19.8914C18.2724 19.8638 18.3417 19.8498 18.4115 19.8498Z" fill="#FAFAFA"/>
<path d="M12.3203 17.3836C12.4596 17.3837 12.5931 17.4386 12.6927 17.536L14.8268 19.6701C14.9249 19.7714 14.9803 19.9067 14.9805 20.0477C14.9805 20.1889 14.9251 20.3251 14.8268 20.4266L14.0378 21.2157C13.8324 21.4213 13.5746 21.5675 13.293 21.6388C13.0114 21.7102 12.7159 21.7049 12.4375 21.6219C12.3916 21.6062 12.3415 21.6041 12.2943 21.6154C12.2472 21.6268 12.2043 21.651 12.1706 21.6857L5.45052 28.4058C5.24662 28.5803 4.98436 28.6712 4.71615 28.661C4.44774 28.6506 4.19256 28.5397 4.0026 28.3498C3.81264 28.1598 3.70178 27.9047 3.69141 27.6362C3.68112 27.368 3.77202 27.1058 3.94661 26.9019L10.6875 20.1818C10.7226 20.1505 10.7477 20.109 10.7591 20.0633C10.7705 20.0177 10.7675 19.9694 10.7513 19.9253C10.6684 19.647 10.6631 19.3513 10.7344 19.0698C10.8057 18.7881 10.9519 18.5304 11.1576 18.325L11.9466 17.536C12.0463 17.4383 12.1808 17.3836 12.3203 17.3836Z" fill="#FAFAFA"/>
<path d="M27.6211 12.256C27.9029 12.256 28.1738 12.3672 28.3737 12.5659C28.4735 12.6649 28.5527 12.7826 28.6068 12.9123C28.6609 13.0421 28.6887 13.1818 28.6888 13.3224C28.6888 13.4631 28.6608 13.6027 28.6068 13.7326C28.5526 13.8626 28.4737 13.9811 28.3737 14.0802L26.3151 16.1063C26.2822 16.1391 26.2587 16.181 26.2474 16.2261C26.2361 16.2711 26.2377 16.3184 26.2513 16.3628C26.3345 16.6404 26.3415 16.9356 26.2721 17.217C26.2027 17.4982 26.0595 17.756 25.8568 17.9631L23.2435 20.5659C23.1956 20.6169 23.1371 20.6566 23.0729 20.6844C23.0087 20.7122 22.9397 20.7274 22.8698 20.7274C22.7998 20.7274 22.7309 20.7122 22.6667 20.6844C22.6025 20.6566 22.544 20.6169 22.4961 20.5659L20.3633 18.4318C20.2651 18.3305 20.2098 18.1953 20.2096 18.0542C20.2096 17.9129 20.2649 17.7768 20.3633 17.6753L22.9766 15.0724C23.1796 14.8668 23.4348 14.7207 23.7148 14.6493C23.9947 14.5779 24.2885 14.5843 24.5651 14.6675C24.611 14.6832 24.6611 14.6853 24.7083 14.674C24.7556 14.6627 24.7982 14.6372 24.832 14.6024L26.8698 12.5659C27.0695 12.3674 27.3395 12.2562 27.6211 12.256Z" fill="#FAFAFA"/>
<path d="M9.82422 11.286C9.96655 11.2846 10.1043 11.3373 10.2083 11.4344L12.3411 13.5685C12.3921 13.6163 12.4331 13.6737 12.4609 13.7378C12.4887 13.8018 12.5025 13.8711 12.5026 13.9409C12.5026 14.0109 12.4887 14.0811 12.4609 14.1453C12.4331 14.2094 12.3921 14.2668 12.3411 14.3146L9.73958 16.9175C9.53695 17.1271 9.27873 17.2756 8.99609 17.3472C8.71363 17.4187 8.41716 17.4102 8.13932 17.3224C8.09498 17.3089 8.04759 17.3086 8.0026 17.3198C7.95761 17.3311 7.91561 17.3534 7.88281 17.3862L5.11979 20.1493C4.92 20.3478 4.65016 20.4591 4.36849 20.4591C4.08669 20.4591 3.81574 20.3479 3.61589 20.1493C3.51618 20.0503 3.4369 19.9326 3.38281 19.8029C3.32873 19.6731 3.30086 19.5334 3.30078 19.3927C3.30078 19.2521 3.32881 19.1124 3.38281 18.9826C3.43692 18.8527 3.51603 18.734 3.61589 18.6349L6.32552 15.8823C6.36003 15.8485 6.38532 15.8065 6.39844 15.7599C6.41151 15.7132 6.41166 15.6637 6.39974 15.6167C6.31827 15.3357 6.31613 15.037 6.39323 14.7547C6.47036 14.4725 6.62427 14.217 6.83724 14.0164L9.45052 11.4344C9.5507 11.3378 9.68509 11.2852 9.82422 11.286Z" fill="#FAFAFA"/>
<path d="M16.5117 13.2456C16.6513 13.2456 16.7857 13.3002 16.8854 13.3979L19.0195 15.5308C19.1147 15.6317 19.1667 15.7657 19.1667 15.9045C19.1666 16.0432 19.1147 16.1772 19.0195 16.2782L16.7578 18.5386C16.7083 18.5885 16.6495 18.6287 16.5846 18.6558C16.5196 18.6828 16.4493 18.6961 16.3789 18.6961C16.3087 18.6961 16.2393 18.6827 16.1745 18.6558C16.1095 18.6287 16.0496 18.5886 16 18.5386L13.8034 16.3732C13.7069 16.2732 13.653 16.1398 13.6536 16.0008C13.6576 15.8658 13.7111 15.7362 13.8034 15.6375L16.1393 13.3979C16.2389 13.3004 16.3723 13.2458 16.5117 13.2456Z" fill="#FAFAFA"/>
<path d="M27.6497 3.59587C27.7964 3.5902 27.9427 3.6153 28.0794 3.66878C28.2163 3.72241 28.3414 3.80441 28.4453 3.90837C28.5491 4.0122 28.63 4.13629 28.6836 4.27295C28.7372 4.40965 28.7621 4.55593 28.7565 4.70264C28.7508 4.84954 28.7151 4.99478 28.651 5.12712C28.587 5.25927 28.4956 5.37665 28.3841 5.47217L22.0378 11.8185C22.0066 11.8546 21.9851 11.8984 21.974 11.9448C21.9629 11.9911 21.9626 12.0393 21.974 12.0854C22.0586 12.3611 22.0668 12.6546 21.9974 12.9344C21.9279 13.2144 21.7833 13.4711 21.5794 13.6753L20.8646 14.4006C20.7631 14.4988 20.6269 14.5542 20.4857 14.5542C20.3445 14.5541 20.2082 14.4989 20.1068 14.4006L17.9531 12.2456C17.8565 12.1454 17.8026 12.0111 17.8034 11.8719C17.8042 11.73 17.8578 11.5929 17.9531 11.4878L18.6784 10.7729C18.8824 10.5694 19.1382 10.4258 19.418 10.3563C19.6978 10.2868 19.9913 10.2939 20.2669 10.3784C20.314 10.3916 20.3644 10.3916 20.4115 10.3784C20.4583 10.3652 20.5006 10.3397 20.5339 10.3042L26.8802 3.96826C26.9758 3.8566 27.0942 3.76536 27.2266 3.70133C27.3588 3.63742 27.503 3.60153 27.6497 3.59587Z" fill="#FAFAFA"/>
<path d="M19.4076 3.28467C19.6893 3.28467 19.9603 3.39592 20.1602 3.59456C20.2601 3.69372 20.3391 3.81224 20.3932 3.94222C20.4473 4.07216 20.4753 4.21162 20.4753 4.35238C20.4752 4.49312 20.4474 4.63261 20.3932 4.76253C20.3392 4.89226 20.2599 5.00986 20.1602 5.10889L17.7383 7.53076C17.7082 7.56092 17.687 7.59904 17.6758 7.64014C17.6647 7.68106 17.664 7.72406 17.6745 7.76514C17.7252 7.92003 17.75 8.08262 17.7487 8.2456C17.7483 8.66969 17.58 9.07608 17.2799 9.37581L14.6771 11.9787C14.6295 12.0299 14.572 12.0709 14.5078 12.0985C14.4435 12.126 14.3733 12.1397 14.3034 12.1388C14.232 12.1398 14.1609 12.1259 14.0951 12.0985C14.0292 12.071 13.9701 12.03 13.9206 11.9787L11.7331 9.83545C11.6831 9.78587 11.6443 9.72596 11.6172 9.66097C11.5902 9.5961 11.5756 9.52681 11.5755 9.45654C11.5755 9.38614 11.5901 9.3158 11.6172 9.25081C11.6442 9.18607 11.6833 9.12707 11.7331 9.07764L14.4102 6.47477C14.6143 6.27094 14.8711 6.12633 15.151 6.0568C15.4309 5.98742 15.7244 5.99564 16 6.08024C16.0414 6.08893 16.0842 6.08746 16.125 6.07633C16.1657 6.06523 16.2032 6.04482 16.2344 6.01644L18.6562 3.59456C18.856 3.39617 19.126 3.28477 19.4076 3.28467Z" fill="#FAFAFA"/>
</svg>
