<svg width="32" height="32" viewBox="0 0 32 32" fill="none" xmlns="http://www.w3.org/2000/svg">
<path d="M16.6243 18.8903C17.8457 18.705 19.0936 18.8116 20.2663 19.2002C20.3206 19.2258 20.3696 19.2624 20.4082 19.3083C20.4469 19.3543 20.4744 19.4091 20.4902 19.4671C20.521 19.5242 20.5391 19.5873 20.541 19.652C20.5429 19.7166 20.5292 19.781 20.502 19.8395C20.2042 20.5381 20.0202 21.2806 19.9577 22.0374C19.6697 23.9894 19.3065 26.4102 16.8105 27.0075H16.5866C16.0127 27.0874 15.4283 26.967 14.9329 26.6663C14.719 27.1711 14.5447 27.692 14.4108 28.2236C14.3581 28.4282 14.2265 28.6039 14.0449 28.7119C13.8632 28.8197 13.6456 28.852 13.4408 28.8005C13.3275 28.7775 13.2198 28.7299 13.127 28.6611C13.0342 28.5924 12.9579 28.5035 12.903 28.402C12.848 28.3003 12.8159 28.1867 12.8092 28.0713C12.8027 27.9562 12.8212 27.8411 12.8639 27.7341C13.6639 24.5344 15.1465 23.2964 16.0319 22.8057C16.9172 22.315 16.0316 21.9951 15.7116 22.0804C14.6577 22.5084 13.791 23.299 13.2689 24.3096C13.2323 24.3666 13.1824 24.4137 13.123 24.4463C13.0634 24.4789 12.9957 24.4958 12.9277 24.4958C12.8599 24.4957 12.7932 24.4788 12.7337 24.4463C12.6741 24.4137 12.6233 24.3668 12.5866 24.3096C12.1832 23.7874 11.9656 23.1452 11.9681 22.4854C11.9978 22.0437 12.1272 21.6144 12.347 21.2301C12.5669 20.8458 12.8718 20.5161 13.2376 20.2666C14.2423 19.5476 15.4028 19.0757 16.6243 18.8903Z" fill="#FAFAFA"/>
<path d="M16.0007 11.4749C16.3388 11.475 16.6673 11.5851 16.9382 11.7874L22.0371 15.488H26.9329C27.3441 15.5016 27.7348 15.6734 28.0228 15.9671C28.3108 16.2611 28.4746 16.6558 28.4798 17.0674V27.2327C28.4797 27.374 28.4235 27.5091 28.3236 27.6091C28.2237 27.709 28.0885 27.7652 27.9473 27.7653H18.8587C20.832 26.4 21.2163 23.883 21.4616 22.251C21.5111 21.6957 21.6256 21.1481 21.8027 20.6195C21.9489 20.3602 22.0358 20.0712 22.0579 19.7744C22.08 19.4777 22.0363 19.18 21.9303 18.902C21.8238 18.6241 21.6567 18.3725 21.4408 18.1676C21.2249 17.963 20.966 17.8088 20.6829 17.7171C19.2676 17.2538 17.7627 17.1311 16.291 17.3591C14.8193 17.587 13.4217 18.1598 12.2129 19.0296C11.6596 19.4249 11.2024 19.9399 10.8757 20.5361C10.5488 21.1327 10.3602 21.7956 10.3249 22.4749C10.3073 23.3939 10.5761 24.2957 11.0931 25.0557C10.8752 25.6122 10.6932 26.1827 10.5488 26.7627C10.4742 27.082 10.4742 27.4148 10.5488 27.7341H4.00065C3.85931 27.7341 3.72304 27.6777 3.62305 27.5778C3.52303 27.4778 3.4668 27.3416 3.4668 27.2002V17.0674C3.47241 16.6467 3.64391 16.2444 3.94336 15.9489C4.24277 15.6537 4.64659 15.4879 5.06706 15.488H9.96289L15.0618 11.7874C15.3329 11.5849 15.6623 11.4749 16.0007 11.4749Z" fill="#FAFAFA"/>
<path d="M10.1764 13.3551L9.43945 13.8877H5.24805L5.61133 9.4515H9.85612L10.1764 13.3551Z" fill="#FAFAFA"/>
<path d="M26.752 13.8877H22.5592L21.8236 13.3551L22.1439 9.4515H26.3887L26.752 13.8877Z" fill="#FAFAFA"/>
<path d="M8.8431 3.2002C8.98078 3.2002 9.11356 3.25328 9.21289 3.34864C9.31216 3.44401 9.37007 3.57438 9.37565 3.71192L9.7168 7.85124H5.74935L6.09049 3.69108C6.10124 3.55716 6.16219 3.43179 6.26107 3.34082C6.35994 3.24987 6.49 3.19977 6.62435 3.2002H8.8431Z" fill="#FAFAFA"/>
<path d="M25.377 3.22233C25.5112 3.22201 25.6402 3.27209 25.7389 3.36296C25.8377 3.45382 25.8987 3.57816 25.9095 3.71192L26.2507 7.85124H22.2832L22.6243 3.71192C22.6352 3.57828 22.6963 3.45381 22.7949 3.36296C22.8938 3.27199 23.0238 3.2219 23.1582 3.22233H25.377Z" fill="#FAFAFA"/>
</svg>
