<svg width="32" height="32" viewBox="0 0 32 32" fill="none" xmlns="http://www.w3.org/2000/svg">
<path d="M21.334 22.6665C20.5976 22.6665 20.0007 23.2635 20.0007 23.9998C20.0007 24.7362 20.5976 25.3332 21.334 25.3332C22.0704 25.3332 22.6673 24.7362 22.6673 23.9998C22.6673 23.2635 22.0704 22.6665 21.334 22.6665Z" fill="#FAFAFA"/>
<path d="M16.0007 23.9998C16.0007 23.2635 16.5976 22.6665 17.334 22.6665C18.0704 22.6665 18.6673 23.2635 18.6673 23.9998C18.6673 24.7362 18.0704 25.3332 17.334 25.3332C16.5976 25.3332 16.0007 24.7362 16.0007 23.9998Z" fill="#FAFAFA"/>
<path fill-rule="evenodd" clip-rule="evenodd" d="M9.00065 2.6665C6.97561 2.6665 5.33398 4.30813 5.33398 6.33317V25.6665C5.33398 27.6915 6.97561 29.3332 9.00065 29.3332H23.0007C25.0257 29.3332 26.6673 27.6915 26.6673 25.6665V6.33317C26.6673 4.30813 25.0257 2.6665 23.0007 2.6665H9.00065ZM7.33398 25.6665V22.3332C7.33398 21.4127 8.08018 20.6665 9.00065 20.6665H23.0007C23.9211 20.6665 24.6673 21.4127 24.6673 22.3332V25.6665C24.6673 26.587 23.9211 27.3332 23.0007 27.3332H9.00065C8.08018 27.3332 7.33398 26.587 7.33398 25.6665Z" fill="#FAFAFA"/>
</svg>
