<svg width="32" height="32" viewBox="0 0 32 32" fill="none" xmlns="http://www.w3.org/2000/svg">
<path fill-rule="evenodd" clip-rule="evenodd" d="M26.666 5.33301C28.1388 5.33301 29.3327 6.52692 29.3327 7.99967V23.9997C29.3327 25.4724 28.1388 26.6663 26.666 26.6663H5.33268L5.06055 26.652C3.71565 26.5157 2.66602 25.3805 2.66602 23.9997V7.99967C2.66602 6.52692 3.85992 5.33301 5.33268 5.33301H26.666ZM11.4316 10.501C11.0544 10.098 10.4208 10.0772 10.0176 10.4541C9.61455 10.8313 9.5938 11.4636 9.9707 11.8669L11.6139 13.6234C10.8563 14.8118 10.3474 16.0409 10.347 17.2536C10.347 20.2173 12.734 22.6208 15.679 22.6208C16.9184 22.6206 18.0575 22.1929 18.9629 21.4788L19.9251 22.5062C20.3024 22.9088 20.9348 22.9299 21.3379 22.5531C21.7408 22.1757 21.762 21.5422 21.3848 21.139L11.4316 10.501ZM16.6217 9.86296C16.1061 9.33366 15.2532 9.33381 14.7376 9.86296C14.397 10.2135 14.051 10.5782 13.7116 10.9515L20.8327 18.6299C20.948 18.1909 21.0111 17.729 21.0111 17.2536C21.0103 14.6664 18.8026 12.1023 16.6217 9.86296Z" fill="#FAFAFA"/>
</svg>
