<svg width="32" height="32" viewBox="0 0 32 32" fill="none" xmlns="http://www.w3.org/2000/svg">
<path fill-rule="evenodd" clip-rule="evenodd" d="M17.7499 15.7662C19.2044 15.8568 20.6269 16.2538 21.9217 16.9329C23.4014 17.7088 24.671 18.8313 25.6236 20.2037C25.8609 20.5462 25.862 21.0017 25.6249 21.3443C24.6726 22.7172 23.4014 23.8404 21.9217 24.6165C20.4418 25.3926 18.7947 25.7999 17.1236 25.8027C14.6419 25.8026 12.9146 25.1561 11.117 23.7792C10.5292 23.3289 9.92608 22.7903 9.2772 22.1712C8.45152 23.0139 7.51384 23.9879 6.39049 25.1113C6.10556 25.3959 5.67725 25.4826 5.30455 25.33C4.93198 25.1772 4.68684 24.8147 4.68345 24.4121L4.63137 17.0983C4.62876 16.6929 4.87203 16.3252 5.24595 16.1686C5.6198 16.0125 6.0517 16.0972 6.3384 16.3834C7.48252 17.5273 8.4382 18.511 9.2733 19.3561C9.86474 18.7897 10.4252 18.2871 10.9764 17.8587C12.7752 16.4611 14.5626 15.7454 17.1223 15.7454H17.1249L17.7499 15.7662ZM18.7993 18.5201C18.0266 18.5203 17.4001 19.1472 17.3996 19.9199C17.3996 20.693 18.0263 21.3195 18.7993 21.3196C19.5725 21.3195 20.1991 20.693 20.1991 19.9199C20.1986 19.1471 19.5722 18.5202 18.7993 18.5201Z" fill="#FAFAFA"/>
<path d="M26.1431 15.3274C26.8486 15.3992 27.3992 15.9949 27.3996 16.7193C27.3996 17.4925 26.773 18.119 25.9999 18.1191C25.2268 18.1189 24.6001 17.4924 24.6001 16.7193C24.6006 15.9466 25.2271 15.3197 25.9999 15.3196L26.1431 15.3274Z" fill="#FAFAFA"/>
<path d="M24.5467 10.5279C25.2524 10.5998 25.8031 11.1952 25.8032 11.9199C25.8032 12.693 25.1766 13.3195 24.4035 13.3196C23.6302 13.3195 23.0038 12.6928 23.0038 11.9199C23.0039 11.147 23.6303 10.5203 24.4035 10.5201L24.5467 10.5279Z" fill="#FAFAFA"/>
<path d="M23.1652 5.71934C23.4355 5.71006 23.6982 5.81173 23.8931 5.99929C24.4164 6.50327 25.0463 6.88416 25.7355 7.11387C26.4245 7.34346 27.1567 7.41662 27.8775 7.32742C28.4249 7.26005 28.9237 7.64863 28.992 8.19591C29.0599 8.74389 28.6702 9.24378 28.1223 9.31179C27.233 9.42179 26.3321 9.35655 25.4699 9.12169L25.1027 9.01101C24.433 8.78779 23.8049 8.46141 23.2368 8.04877C22.8511 8.35507 22.4275 8.6146 21.9751 8.8157C21.2276 9.14785 20.4182 9.31953 19.6001 9.3196C18.7816 9.3196 17.9717 9.1481 17.2238 8.8157C16.7856 8.62094 16.3758 8.37109 15.9999 8.07742C15.624 8.371 15.214 8.62096 14.7759 8.8157C14.0281 9.14807 13.218 9.31956 12.3996 9.3196C11.5815 9.31957 10.7723 9.14785 10.0246 8.8157C9.57172 8.61443 9.14759 8.35544 8.76158 8.04877C8.19383 8.46103 7.56616 8.78791 6.897 9.01101C5.92552 9.33482 4.89376 9.43748 3.87746 9.31179C3.32936 9.24396 2.93984 8.74401 3.00767 8.19591C3.07607 7.64856 3.5747 7.25985 4.12226 7.32742C4.84297 7.41658 5.57521 7.34345 6.26418 7.11387C6.95319 6.88414 7.58351 6.50314 8.10663 5.99929L8.18215 5.93289C8.36673 5.78807 8.59789 5.71115 8.8345 5.71934C9.10473 5.72885 9.36015 5.84825 9.54153 6.04877C9.90244 6.44852 10.3437 6.76881 10.8358 6.98757C11.328 7.2063 11.861 7.31957 12.3996 7.3196C12.9382 7.31956 13.4713 7.20628 13.9634 6.98757C14.4555 6.7688 14.8968 6.44846 15.2577 6.04877L15.3319 5.97455C15.5144 5.81107 15.7524 5.71934 15.9999 5.71934C16.2825 5.71942 16.5525 5.8391 16.742 6.04877C17.103 6.44858 17.544 6.7688 18.0363 6.98757C18.5285 7.20631 19.0614 7.3196 19.6001 7.3196C20.1386 7.31953 20.6719 7.20625 21.1639 6.98757C21.6559 6.76881 22.0974 6.44837 22.4582 6.04877L22.5285 5.97716C22.7026 5.81987 22.9286 5.72761 23.1652 5.71934Z" fill="#FAFAFA"/>
</svg>
