<svg width="32" height="32" viewBox="0 0 32 32" fill="none" xmlns="http://www.w3.org/2000/svg">
<path d="M1.66602 21.9386C1.66616 20.6655 2.29589 19.5491 3.23372 18.643C4.16836 17.7401 5.46285 16.9872 6.9694 16.4008C7.48395 16.2006 8.06453 16.4554 8.26497 16.9699C8.46521 17.4844 8.21037 18.065 7.69596 18.2654C6.34641 18.7906 5.30755 19.4194 4.62305 20.0805C3.94199 20.7385 3.66616 21.3688 3.66602 21.9386C3.66602 22.979 4.63932 24.2487 6.98503 25.3149C9.24045 26.3401 12.4267 26.9998 15.9993 26.9998C19.572 26.9998 22.7582 26.3401 25.0137 25.3149C27.3594 24.2487 28.3327 22.979 28.3327 21.9386C28.3325 21.3688 28.0567 20.7385 27.3757 20.0805C26.7768 19.5021 25.9069 18.9485 24.7949 18.4673L24.3027 18.2654L24.2103 18.2238C23.7586 17.9933 23.5459 17.4526 23.7337 16.9699C23.9217 16.4875 24.4432 16.2343 24.9316 16.3696L25.0293 16.4008L25.584 16.6287C26.8539 17.1778 27.9472 17.853 28.765 18.643C29.7028 19.5491 30.3325 20.6655 30.3327 21.9386C30.3327 24.2454 28.3216 26.0079 25.8418 27.1352C23.2715 28.3036 19.7904 28.9998 15.9993 28.9998C12.2083 28.9998 8.72718 28.3036 6.1569 27.1352C3.67706 26.0079 1.66602 24.2454 1.66602 21.9386Z" fill="#FAFAFA"/>
<path fill-rule="evenodd" clip-rule="evenodd" d="M16.0761 10.3008C15.0053 10.3008 14.1438 10.6162 13.4441 11.1541C12.7526 11.6829 12.2376 12.4143 11.8224 13.2234C11.2207 14.3937 10.8447 15.8794 10.678 17.2402C10.5472 18.3297 11.5068 19.1831 12.6234 19.1831H12.849L13.3019 21.801C13.4083 22.4145 13.7455 22.9728 14.2533 23.3757C14.761 23.7786 15.406 23.9998 16.0729 23.9998C16.7397 23.9998 17.3847 23.7786 17.8925 23.3757C18.4002 22.9728 18.7375 22.4145 18.8439 21.801L19.2983 19.1831H19.5289C20.6454 19.1831 21.6051 18.3297 21.4743 17.2402C21.3075 15.8794 20.9315 14.3937 20.3299 13.2234C19.9147 12.4143 19.3997 11.6844 18.7082 11.1526C18.0085 10.6162 17.1469 10.2993 16.0761 10.2993V10.3008ZM19.5615 5.90155C19.5615 7.97088 18.3109 9.13507 16.0892 9.13507C13.8659 9.13507 12.6152 7.97088 12.6152 5.90155C12.6152 3.83069 13.8659 2.6665 16.0892 2.6665C18.3126 2.6665 19.5615 3.83069 19.5615 5.90155Z" fill="#FAFAFA"/>
</svg>
