<svg width="32" height="32" viewBox="0 0 32 32" fill="none" xmlns="http://www.w3.org/2000/svg">
<path d="M22.4537 25.5997H20.8004C21.7905 25.5997 22.7401 25.2064 23.4402 24.5062C24.1404 23.8061 24.5337 22.8565 24.5337 21.8664V12.533C24.5294 11.6682 24.2251 10.8317 23.6725 10.1663C23.12 9.501 22.3537 9.04811 21.5044 8.88504C21.3819 8.86264 21.2712 8.79812 21.1913 8.70267C21.1114 8.60722 21.0675 8.48683 21.067 8.36237V5.86637C21.067 5.72493 21.1232 5.58927 21.2232 5.48925C21.3232 5.38923 21.4589 5.33304 21.6004 5.33304H22.9337C23.2166 5.33304 23.4879 5.22066 23.6879 5.02062C23.888 4.82058 24.0004 4.54927 24.0004 4.26637C24.0004 3.98348 23.888 3.71217 23.6879 3.51213C23.4879 3.31209 23.2166 3.19971 22.9337 3.19971H9.06702C8.78412 3.19971 8.51281 3.31209 8.31277 3.51213C8.11273 3.71217 8.00035 3.98348 8.00035 4.26637C8.00035 4.54927 8.11273 4.82058 8.31277 5.02062C8.51281 5.22066 8.78412 5.33304 9.06702 5.33304H10.4004C10.5418 5.33304 10.6775 5.38923 10.7775 5.48925C10.8775 5.58927 10.9337 5.72493 10.9337 5.86637V8.36237C10.9332 8.48683 10.8893 8.60722 10.8094 8.70267C10.7295 8.79812 10.6188 8.86264 10.4964 8.88504C9.64703 9.04811 8.88066 9.501 8.32815 10.1663C7.77565 10.8317 7.47127 11.6682 7.46702 12.533V21.8664C7.46702 22.8565 7.86035 23.8061 8.56049 24.5062C9.26062 25.2064 10.2102 25.5997 11.2004 25.5997H9.60035C8.85172 25.5846 8.1215 25.8325 7.53681 26.3003C6.95211 26.768 6.54995 27.426 6.40035 28.1597C6.3857 28.2377 6.38762 28.3179 6.406 28.3951C6.42438 28.4722 6.4588 28.5447 6.50702 28.6077C6.56031 28.6683 6.62596 28.7168 6.69956 28.7499C6.77315 28.783 6.85298 28.8 6.93368 28.7997H25.067C25.1459 28.7985 25.2237 28.7808 25.2953 28.7477C25.367 28.7147 25.4309 28.667 25.483 28.6077C25.5312 28.5447 25.5657 28.4722 25.584 28.3951C25.6024 28.3179 25.6043 28.2377 25.5897 28.1597C25.4421 27.4369 25.0494 26.7873 24.4779 26.3208C23.9065 25.8543 23.1914 25.5996 22.4537 25.5997ZM13.067 5.86637C13.067 5.72493 13.1232 5.58927 13.2232 5.48925C13.3232 5.38923 13.4589 5.33304 13.6004 5.33304H18.4004C18.5418 5.33304 18.6775 5.38923 18.7775 5.48925C18.8775 5.58927 18.9337 5.72493 18.9337 5.86637V8.26637C18.9337 8.40782 18.8775 8.54348 18.7775 8.6435C18.6775 8.74352 18.5418 8.79971 18.4004 8.79971H13.6004C13.4589 8.79971 13.3232 8.74352 13.2232 8.6435C13.1232 8.54348 13.067 8.40782 13.067 8.26637V5.86637ZM16.0004 21.8664C15.0102 21.8664 14.0606 21.473 13.3605 20.7729C12.6604 20.0728 12.267 19.1232 12.267 18.133C12.2543 17.4721 12.4381 16.8222 12.7951 16.2659C13.1521 15.7095 13.6662 15.2716 14.2724 15.0077C14.3094 14.9919 14.3494 14.9837 14.3897 14.9837C14.43 14.9837 14.4699 14.9919 14.507 15.0077C14.5453 15.0214 14.5798 15.044 14.6077 15.0737C14.6355 15.1034 14.6558 15.1393 14.667 15.1784C14.794 15.5128 15.0031 15.8099 15.275 16.0424C15.3063 16.0709 15.3438 16.0916 15.3846 16.1027C15.4254 16.1138 15.4683 16.1151 15.5097 16.1064C15.5509 16.0977 15.5897 16.0798 15.6229 16.0539C15.6562 16.028 15.6831 15.9949 15.7017 15.957C15.9313 15.3787 16.02 14.754 15.9607 14.1345C15.9013 13.5151 15.6956 12.9186 15.3604 12.3944C15.3214 12.344 15.3003 12.2821 15.3003 12.2184C15.3003 12.1547 15.3214 12.0928 15.3604 12.0424C15.3995 11.9951 15.4531 11.9621 15.5129 11.9486C15.5728 11.9351 15.6354 11.9418 15.691 11.9677C16.8812 12.5049 17.8935 13.3701 18.6095 14.4621C19.3255 15.554 19.7155 16.8274 19.7337 18.133C19.7337 19.1232 19.3404 20.0728 18.6402 20.7729C17.9401 21.473 16.9905 21.8664 16.0004 21.8664Z" fill="#FAFAFA"/>
</svg>
