<svg width="32" height="32" viewBox="0 0 32 32" fill="none" xmlns="http://www.w3.org/2000/svg">
<path d="M15.666 20.6667C15.9159 20.6667 16.1548 20.7607 16.3379 20.9271L16.4173 21.0065C16.4173 21.0065 16.4211 21.0112 16.4238 21.0143C16.4299 21.0212 16.4391 21.0306 16.4499 21.043C16.4715 21.0677 16.5023 21.1032 16.541 21.1484C16.6185 21.2391 16.728 21.3693 16.8587 21.5299C17.1193 21.8502 17.4682 22.2981 17.8197 22.8034C18.169 23.3055 18.5345 23.8847 18.8158 24.4648C19.0855 25.0213 19.3327 25.6869 19.3327 26.3333C19.3327 28.3584 17.691 30 15.666 30C13.641 30 11.9993 28.3583 11.9993 26.3333C11.9993 25.6869 12.2465 25.0213 12.5163 24.4648C12.7976 23.8847 13.1631 23.3055 13.5124 22.8034C13.8639 22.2981 14.2128 21.8502 14.4733 21.5299C14.604 21.3693 14.7135 21.2391 14.791 21.1484C14.8297 21.1032 14.8606 21.0677 14.8822 21.043C14.893 21.0306 14.9022 21.0212 14.9082 21.0143C14.911 21.0112 14.9147 21.0065 14.9147 21.0065L14.9941 20.9271C15.1772 20.7607 15.4161 20.6667 15.666 20.6667Z" fill="#FAFAFA"/>
<path fill-rule="evenodd" clip-rule="evenodd" d="M19.9993 16.3333C20.9701 16.3333 21.5981 16.3351 22.0605 16.3971C22.4941 16.4555 22.6302 16.5502 22.7064 16.6263C22.7825 16.7024 22.8771 16.8384 22.9355 17.2721C22.975 17.566 22.9894 18.4634 22.9954 19.3281C22.4859 19.3328 21.933 19.3333 21.3327 19.3333H18.6539C18.3579 19.3333 18.0815 19.1977 17.8727 18.9879C17.3488 18.4615 16.7307 18.0869 15.9473 18.013L15.666 18C14.7484 18 14.0329 18.4169 13.46 18.9886C13.2505 19.1977 12.9742 19.3333 12.6782 19.3333H10.666C10.0655 19.3333 9.51285 19.3328 9.00325 19.3281C9.00915 18.4633 9.02499 17.5659 9.06445 17.2721C9.12275 16.8386 9.21622 16.7025 9.29232 16.6263C9.36843 16.5502 9.50447 16.4555 9.93815 16.3971C10.4006 16.335 11.0284 16.3333 11.9993 16.3333H19.9993Z" fill="#FAFAFA"/>
<path fill-rule="evenodd" clip-rule="evenodd" d="M23.9993 2C26.5135 2 27.7704 2.0002 28.5514 2.78125C29.3325 3.56229 29.3327 4.81918 29.3327 7.33333V11.3333C29.3327 15.1045 29.3324 16.9899 28.1608 18.1615C27.4527 18.8696 26.484 19.1496 24.9954 19.2604C24.9885 18.3689 24.9692 17.3912 24.9173 17.0052C24.8292 16.3497 24.6299 15.7219 24.1204 15.2122C23.6108 14.7027 22.9829 14.5035 22.3275 14.4154C21.716 14.3331 20.9519 14.3333 20.0658 14.3333H11.9329C11.0467 14.3333 10.2827 14.3331 9.67122 14.4154C9.01582 14.5035 8.38784 14.7027 7.87825 15.2122C7.36869 15.7219 7.16954 16.3497 7.08138 17.0052C7.02948 17.3912 7.0103 18.3689 7.00325 19.2604C5.51473 19.1496 4.54602 18.8696 3.83789 18.1615C2.66632 16.9899 2.66602 15.1045 2.66602 11.3333V7.33333C2.66602 4.81917 2.66621 3.56229 3.44727 2.78125C4.22831 2.0002 5.48519 2 7.99935 2H23.9993ZM20.6061 7.54167C20.054 7.54167 19.6064 7.98966 19.6061 8.54167C19.6061 9.09396 20.0538 9.54167 20.6061 9.54167H23.4069C23.9591 9.54157 24.4069 9.0939 24.4069 8.54167C24.4066 7.98972 23.9589 7.54176 23.4069 7.54167H20.6061Z" fill="#FAFAFA"/>
</svg>
