<svg width="32" height="32" viewBox="0 0 32 32" fill="none" xmlns="http://www.w3.org/2000/svg">
<path d="M10.4707 25.3332C10.8467 25.3332 11.1634 25.4613 11.4212 25.7173C11.679 25.9733 11.8067 26.2896 11.804 26.6665C11.8014 27.0434 11.6732 27.3601 11.4199 27.617C11.1666 27.8739 10.8503 28.0016 10.4707 27.9998C10.0929 27.9998 9.77659 27.8717 9.52148 27.6157C9.26637 27.3597 9.13826 27.0434 9.13737 26.6665C9.13648 26.2896 9.2646 25.9733 9.52148 25.7173C9.77837 25.4613 10.0947 25.3332 10.4707 25.3332Z" fill="#FAFAFA"/>
<path d="M15.804 25.3332C16.18 25.3332 16.4968 25.4613 16.7546 25.7173C17.0123 25.9733 17.14 26.2896 17.1374 26.6665C17.1347 27.0434 17.0066 27.3601 16.7533 27.617C16.4999 27.8739 16.1836 28.0016 15.804 27.9998C15.4263 27.9998 15.1099 27.8717 14.8548 27.6157C14.5997 27.3597 14.4716 27.0434 14.4707 26.6665C14.4698 26.2896 14.5979 25.9733 14.8548 25.7173C15.1117 25.4613 15.428 25.3332 15.804 25.3332Z" fill="#FAFAFA"/>
<path d="M21.1374 25.3332C21.5134 25.3332 21.8301 25.4613 22.0879 25.7173C22.3457 25.9733 22.4734 26.2896 22.4707 26.6665C22.468 27.0434 22.3399 27.3601 22.0866 27.617C21.8333 27.8739 21.5169 28.0016 21.1374 27.9998C20.7596 27.9998 20.4433 27.8717 20.1882 27.6157C19.933 27.3597 19.8049 27.0434 19.804 26.6665C19.8031 26.2896 19.9313 25.9733 20.1882 25.7173C20.445 25.4613 20.7614 25.3332 21.1374 25.3332Z" fill="#FAFAFA"/>
<path d="M10.4707 21.3332C10.8467 21.3332 11.1634 21.4613 11.4212 21.7173C11.679 21.9733 11.8067 22.2896 11.804 22.6665C11.8014 23.0434 11.6732 23.3601 11.4199 23.617C11.1666 23.8739 10.8503 24.0016 10.4707 23.9998C10.0929 23.9998 9.77659 23.8717 9.52148 23.6157C9.26637 23.3597 9.13826 23.0434 9.13737 22.6665C9.13648 22.2896 9.2646 21.9733 9.52148 21.7173C9.77837 21.4613 10.0947 21.3332 10.4707 21.3332Z" fill="#FAFAFA"/>
<path d="M15.804 21.3332C16.18 21.3332 16.4968 21.4613 16.7546 21.7173C17.0123 21.9733 17.14 22.2896 17.1374 22.6665C17.1347 23.0434 17.0066 23.3601 16.7533 23.617C16.4999 23.8739 16.1836 24.0016 15.804 23.9998C15.4263 23.9998 15.1099 23.8717 14.8548 23.6157C14.5997 23.3597 14.4716 23.0434 14.4707 22.6665C14.4698 22.2896 14.5979 21.9733 14.8548 21.7173C15.1117 21.4613 15.428 21.3332 15.804 21.3332Z" fill="#FAFAFA"/>
<path d="M21.1374 21.3332C21.5134 21.3332 21.8301 21.4613 22.0879 21.7173C22.3457 21.9733 22.4734 22.2896 22.4707 22.6665C22.468 23.0434 22.3399 23.3601 22.0866 23.617C21.8333 23.8739 21.5169 24.0016 21.1374 23.9998C20.7596 23.9998 20.4433 23.8717 20.1882 23.6157C19.933 23.3597 19.8049 23.0434 19.804 22.6665C19.8031 22.2896 19.9313 21.9733 20.1882 21.7173C20.445 21.4613 20.7614 21.3332 21.1374 21.3332Z" fill="#FAFAFA"/>
<path d="M16.0007 3.99854C16.5527 3.99854 17.0003 4.44655 17.0007 4.99854V6.88265C21.59 7.47011 25.1372 11.3889 25.1374 16.1379V18.6665H6.4707V16.1379C6.47087 11.254 10.2223 7.24845 15.0007 6.84098V4.99984C15.0007 4.44755 15.4484 3.99854 16.0007 3.99854Z" fill="#FAFAFA"/>
</svg>
