<svg width="32" height="32" viewBox="0 0 32 32" fill="none" xmlns="http://www.w3.org/2000/svg">
<path fill-rule="evenodd" clip-rule="evenodd" d="M28.25 16.0002C28.25 16.5497 28.0588 17.08 27.7135 17.5015L27.5573 17.6746L17.6745 27.5575C17.2305 28.0008 16.6287 28.25 16.0013 28.2502C15.3736 28.2502 14.7709 28.001 14.3268 27.5575L4.44531 17.6759C3.57812 16.8087 3.52233 15.4357 4.28255 14.5054L4.44531 14.3257L14.3268 4.44287C14.7726 3.99768 15.3759 3.75146 16.0013 3.75146C16.6288 3.75162 17.2305 4.00079 17.6745 4.44417L27.5573 14.327C28.0007 14.771 28.2498 15.3727 28.25 16.0002ZM21.0833 16.7072C21.4739 16.3167 21.4739 15.6837 21.0833 15.2931C20.6928 14.9027 20.0598 14.9026 19.6693 15.2931L17.0013 17.9611V11.0002C17.0013 10.4479 16.5536 10.0002 16.0013 10.0002C15.4491 10.0002 15.0013 10.4479 15.0013 11.0002V17.9611L12.3333 15.2931C11.9428 14.9027 11.3098 14.9026 10.9193 15.2931C10.5288 15.6836 10.5288 16.3167 10.9193 16.7072L15.2943 21.0822C15.3368 21.1247 15.3834 21.1609 15.431 21.1942C15.4898 21.2352 15.5527 21.2706 15.6198 21.2983C15.6869 21.326 15.7562 21.3458 15.8268 21.3582C15.8836 21.3682 15.9417 21.3752 16.0013 21.3752C16.0618 21.3752 16.1209 21.3685 16.1784 21.3582C16.2485 21.3457 16.3175 21.3259 16.3841 21.2983C16.4229 21.2822 16.4586 21.2604 16.4948 21.2397C16.5704 21.1966 16.6438 21.1467 16.7083 21.0822L21.0833 16.7072Z" fill="#FAFAFA"/>
</svg>
