<svg width="32" height="32" viewBox="0 0 32 32" fill="none" xmlns="http://www.w3.org/2000/svg">
<path d="M16 24.0003C16.7072 24.0003 17.3853 24.2815 17.8854 24.7816C18.3854 25.2817 18.6667 25.9598 18.6667 26.667C18.6667 27.3742 18.3854 28.0523 17.8854 28.5524C17.3853 29.0524 16.7072 29.3337 16 29.3337C15.3811 29.3337 14.7845 29.1183 14.3099 28.7295L14.1146 28.5524C13.6145 28.0523 13.3333 27.3742 13.3333 26.667C13.3333 26.0481 13.5486 25.4515 13.9375 24.9769L14.1146 24.7816C14.6147 24.2815 15.2928 24.0003 16 24.0003Z" fill="#FAFAFA"/>
<path d="M6.66667 13.3337C7.01685 13.3337 7.36397 13.4028 7.6875 13.5368C8.0109 13.6707 8.30455 13.8674 8.55208 14.1149C8.7996 14.3624 8.9962 14.6561 9.13021 14.9795C9.26422 15.3029 9.33333 15.6501 9.33333 16.0003C9.33333 16.3505 9.26422 16.6977 9.13021 17.0212C8.9962 17.3446 8.7996 17.6383 8.55208 17.8857C8.30455 18.1332 8.0109 18.3299 7.6875 18.4639C7.36397 18.5979 7.01685 18.667 6.66667 18.667C6.31648 18.667 5.96937 18.5979 5.64583 18.4639C5.40325 18.3634 5.17752 18.2275 4.97526 18.0615L4.78125 17.8857C4.53373 17.6383 4.33713 17.3446 4.20312 17.0212C4.06911 16.6977 4 16.3505 4 16.0003C4 15.7378 4.03872 15.4772 4.11458 15.2269L4.20312 14.9795C4.30364 14.7369 4.43952 14.5112 4.60547 14.3089L4.78125 14.1149C4.96686 13.9293 5.17824 13.7721 5.40885 13.6488L5.64583 13.5368C5.96937 13.4028 6.31648 13.3337 6.66667 13.3337Z" fill="#FAFAFA"/>
<path d="M16 13.3337C16.7072 13.3337 17.3853 13.6148 17.8854 14.1149C18.3854 14.6151 18.6667 15.2931 18.6667 16.0003C18.6667 16.7075 18.3854 17.3856 17.8854 17.8857C17.3853 18.3858 16.7072 18.667 16 18.667C15.3811 18.667 14.7845 18.4517 14.3099 18.0628L14.1146 17.8857C13.6145 17.3856 13.3333 16.7075 13.3333 16.0003C13.3333 15.3814 13.5486 14.7848 13.9375 14.3102L14.1146 14.1149C14.6147 13.6148 15.2928 13.3337 16 13.3337Z" fill="#FAFAFA"/>
<path d="M25.3333 13.3337C26.0405 13.3337 26.7186 13.6148 27.2188 14.1149C27.7188 14.6151 28 15.2931 28 16.0003C28 16.7075 27.7188 17.3856 27.2188 17.8857C26.7186 18.3858 26.0405 18.667 25.3333 18.667C24.7145 18.667 24.1178 18.4517 23.6432 18.0628L23.4479 17.8857C22.9479 17.3856 22.6667 16.7075 22.6667 16.0003C22.6667 15.3814 22.882 14.7848 23.2708 14.3102L23.4479 14.1149C23.9481 13.6148 24.6261 13.3337 25.3333 13.3337Z" fill="#FAFAFA"/>
<path d="M6.66667 2.66699C7.01685 2.66699 7.36397 2.7361 7.6875 2.87012C8.0109 3.00412 8.30455 3.20071 8.55208 3.44824C8.79962 3.69578 8.9962 3.98943 9.13021 4.31283C9.26422 4.63636 9.33333 4.98347 9.33333 5.33366C9.33333 5.68385 9.26422 6.03096 9.13021 6.35449L9.01823 6.59147C8.89487 6.82209 8.73769 7.03347 8.55208 7.21908C8.30455 7.46661 8.0109 7.66319 7.6875 7.7972L7.4401 7.88574C7.18978 7.9616 6.92918 8.00033 6.66667 8.00033C6.31648 8.00033 5.96937 7.93121 5.64583 7.7972C5.40326 7.69668 5.17751 7.56082 4.97526 7.39486L4.78125 7.21908C4.59564 7.03347 4.43846 6.82209 4.3151 6.59147L4.20312 6.35449C4.06911 6.03096 4 5.68385 4 5.33366C4 5.07115 4.03872 4.81054 4.11458 4.56022L4.20312 4.31283C4.30364 4.07025 4.4395 3.8445 4.60547 3.64225L4.78125 3.44824C4.96686 3.26264 5.17823 3.10545 5.40885 2.9821L5.64583 2.87012C5.96937 2.7361 6.31648 2.66699 6.66667 2.66699Z" fill="#FAFAFA"/>
<path d="M16 2.66699C16.7072 2.66699 17.3853 2.94815 17.8854 3.44824C18.3854 3.94834 18.6667 4.62641 18.6667 5.33366C18.6667 6.04091 18.3854 6.71897 17.8854 7.21908C17.3853 7.71917 16.7072 8.00033 16 8.00033C15.3811 8.00033 14.7845 7.78506 14.3099 7.39616L14.1146 7.21908C13.6145 6.71897 13.3333 6.04091 13.3333 5.33366C13.3333 4.71474 13.5486 4.11811 13.9375 3.64355L14.1146 3.44824C14.6147 2.94815 15.2928 2.66699 16 2.66699Z" fill="#FAFAFA"/>
<path d="M25.3333 2.66699C26.0405 2.66699 26.7186 2.94815 27.2188 3.44824C27.7188 3.94834 28 4.62641 28 5.33366C28 6.04091 27.7188 6.71897 27.2188 7.21908C26.7186 7.71917 26.0405 8.00033 25.3333 8.00033C24.7145 8.00033 24.1178 7.78506 23.6432 7.39616L23.4479 7.21908C22.9479 6.71897 22.6667 6.04091 22.6667 5.33366C22.6667 4.71474 22.882 4.11811 23.2708 3.64355L23.4479 3.44824C23.9481 2.94815 24.6261 2.66699 25.3333 2.66699Z" fill="#FAFAFA"/>
</svg>
