<svg width="32" height="32" viewBox="0 0 32 32" fill="none" xmlns="http://www.w3.org/2000/svg">
<path fill-rule="evenodd" clip-rule="evenodd" d="M14.6363 2.65198C16.2469 2.13006 17.9749 2.08508 19.6103 2.52308L19.7952 2.59339C19.9706 2.68025 20.119 2.81717 20.2183 2.98922C20.3177 3.16148 20.3625 3.35876 20.3498 3.55433L20.3173 3.74834L18.9592 8.81214C19.9305 8.57926 20.9393 8.51154 21.9423 8.61943C23.6256 8.80061 25.2207 9.46595 26.5347 10.5335C27.8486 11.6011 28.8266 13.026 29.3485 14.6364C29.8703 16.2468 29.9154 17.9751 29.4774 19.6103C29.4087 19.8663 29.2409 20.0858 29.0113 20.2184C28.7817 20.3509 28.5083 20.3859 28.2522 20.3173L23.1884 18.9606C23.4209 19.9314 23.4889 20.9399 23.3811 21.9423C23.1999 23.6255 22.5345 25.2208 21.467 26.5348C20.3995 27.8487 18.9746 28.8266 17.3642 29.3486C15.7537 29.8705 14.0255 29.9154 12.3902 29.4775C12.1342 29.4089 11.9148 29.2408 11.7821 29.0114C11.6496 28.7818 11.6147 28.5083 11.6832 28.2522L13.0386 23.1884C12.0681 23.4208 11.0603 23.4889 10.0582 23.3811C8.37494 23.2 6.77974 22.5345 5.46572 21.4671C4.15187 20.3996 3.17397 18.9745 2.65192 17.3642C2.13004 15.7538 2.08514 14.0255 2.52302 12.3903L2.59333 12.2054C2.68017 12.0298 2.81706 11.8816 2.98916 11.7822C3.21885 11.6496 3.49209 11.6146 3.74828 11.6832L8.81208 13.04C8.57947 12.0692 8.5116 11.0607 8.61937 10.0582C8.80051 8.37496 9.46596 6.77982 10.5334 5.46578C11.601 4.15181 13.0258 3.174 14.6363 2.65198ZM15.9996 13.9996C14.8952 13.9998 13.9997 14.8952 13.9996 15.9996C13.9996 17.1041 14.8951 17.9995 15.9996 17.9996C17.1041 17.9996 17.9996 17.1042 17.9996 15.9996C17.9995 14.8952 17.1041 13.9996 15.9996 13.9996Z" fill="#FAFAFA"/>
</svg>
