<svg width="32" height="32" viewBox="0 0 32 32" fill="none" xmlns="http://www.w3.org/2000/svg">
<path d="M14.3955 6.61914C14.5876 6.65752 14.7666 6.75207 14.9072 6.89258C15.0945 7.08001 15.2001 7.33463 15.2002 7.59961V16.8008H24.3994C24.9517 16.8008 25.3994 17.2485 25.3994 17.8008C25.3993 19.2713 25.1096 20.7274 24.5469 22.0859C23.9841 23.4446 23.16 24.6798 22.1201 25.7197C21.0801 26.7597 19.8442 27.5836 18.4854 28.1465C17.2966 28.6388 16.0333 28.9231 14.751 28.9863L14.2002 29C11.23 28.9999 8.38059 27.82 6.28027 25.7197C4.31127 23.7507 3.15202 21.1236 3.01465 18.3555L3 17.8008C3 14.8304 4.17987 11.9803 6.28027 9.87988C8.38059 7.77965 11.23 6.5997 14.2002 6.59961L14.3955 6.61914Z" fill="#FAFAFA"/>
<path d="M17.7998 3C19.2706 3 20.7281 3.28969 22.0869 3.85254C23.4453 4.41532 24.68 5.2406 25.7197 6.28027C26.7596 7.32019 27.5847 8.5554 28.1475 9.91406C28.7102 11.2728 29.0009 12.7296 29.001 14.2002C29.0007 14.752 28.5527 15.1997 28.001 15.2002H17.7998C17.2478 15.2 16.8001 14.7521 16.7998 14.2002V4L16.8057 3.89746C16.8571 3.39361 17.2824 3.00016 17.7998 3Z" fill="#FAFAFA"/>
</svg>
