<svg width="32" height="32" viewBox="0 0 32 32" fill="none" xmlns="http://www.w3.org/2000/svg">
<path fill-rule="evenodd" clip-rule="evenodd" d="M12.9193 13.3994C14.355 13.3996 15.5194 14.564 15.5195 15.9997C15.5194 17.4354 14.355 18.5998 12.9193 18.5999C11.4834 18.5999 10.3192 17.4355 10.319 15.9997C10.3192 14.5639 11.4834 13.3994 12.9193 13.3994ZM12.9193 15.3994C12.588 15.3994 12.3192 15.6685 12.319 15.9997C12.3192 16.3309 12.588 16.5999 12.9193 16.5999C13.2504 16.5998 13.5194 16.3308 13.5195 15.9997C13.5194 15.6686 13.2504 15.3996 12.9193 15.3994Z" fill="#FAFAFA"/>
<path fill-rule="evenodd" clip-rule="evenodd" d="M19.3203 13.3994C20.756 13.3996 21.9204 14.564 21.9206 15.9997C21.9204 17.4354 20.756 18.5998 19.3203 18.5999C17.8845 18.5999 16.7202 17.4355 16.7201 15.9997C16.7202 14.5639 17.8845 13.3994 19.3203 13.3994ZM19.3203 15.3994C18.9891 15.3994 18.7202 15.6685 18.7201 15.9997C18.7202 16.3309 18.9891 16.5999 19.3203 16.5999C19.6514 16.5998 19.9204 16.3308 19.9206 15.9997C19.9204 15.6686 19.6514 15.3996 19.3203 15.3994Z" fill="#FAFAFA"/>
<path fill-rule="evenodd" clip-rule="evenodd" d="M24.7995 3.2002C27.0085 3.20034 28.7995 4.99114 28.7995 7.2002V24.7992C28.7995 27.0082 27.0085 28.799 24.7995 28.7992H7.19922C4.99008 28.7992 3.19922 27.0083 3.19922 24.7992V7.2002C3.19922 4.99105 4.99008 3.2002 7.19922 3.2002H24.7995ZM15.0951 7.16895C13.3134 7.35724 11.5785 8.10485 10.1732 9.40983C9.127 10.3816 8.53272 11.745 8.53255 13.1729V14.1338H7.05339V17.8005H8.53255V18.8265C8.53255 20.2546 9.1268 21.6189 10.1732 22.5908C11.5785 23.8958 13.3134 24.6422 15.0951 24.8304C15.0678 24.7362 15.0534 24.6365 15.0534 24.5335V21.8669C15.0534 21.2778 15.5308 20.8006 16.1198 20.8005C16.7089 20.8005 17.1862 21.2777 17.1862 21.8669V24.5335C17.1862 24.6257 17.1744 24.715 17.1523 24.8005C18.8458 24.5711 20.4846 23.8347 21.8242 22.5908C22.8708 21.6189 23.4661 20.2547 23.4661 18.8265V17.8005H24.9453V14.1338H23.4661V13.1729C23.466 11.7448 22.8706 10.3816 21.8242 9.40983C20.4849 8.16612 18.8468 7.42962 17.1536 7.2002C17.1755 7.28534 17.1862 7.37514 17.1862 7.46712V10.1338C17.186 10.7227 16.7088 11.2002 16.1198 11.2002C15.5309 11.2 15.0536 10.7226 15.0534 10.1338V7.46712C15.0534 7.36398 15.0677 7.26328 15.0951 7.16895Z" fill="#FAFAFA"/>
</svg>
