<svg width="32" height="32" viewBox="0 0 32 32" fill="none" xmlns="http://www.w3.org/2000/svg">
<path fill-rule="evenodd" clip-rule="evenodd" d="M14.7305 3.79932C15.4199 3.79932 16.0814 4.07359 16.569 4.56104C17.0565 5.04851 17.3306 5.71019 17.3307 6.39958V6.99984H18.7305C18.9956 6.99984 19.25 7.10542 19.4375 7.29281L19.5299 7.38525L20.0924 6.82406C20.3338 6.58272 20.6209 6.39092 20.9362 6.26025C21.2515 6.12966 21.5897 6.06237 21.931 6.06234C22.2725 6.06236 22.6116 6.12955 22.9271 6.26025C23.2423 6.39097 23.5296 6.58271 23.7708 6.82406L23.7695 6.82536L25.5065 8.56103L25.6784 8.74984C25.8401 8.9469 25.9723 9.16844 26.0703 9.40478C26.2008 9.71997 26.2682 10.0584 26.2682 10.3996C26.2682 10.7407 26.2008 11.0792 26.0703 11.3944C25.9723 11.6308 25.8401 11.8522 25.6784 12.0493L25.5065 12.2381L24.944 12.7993L25.0378 12.8931C25.2249 13.0804 25.3306 13.3353 25.3307 13.6001V25.6001C25.3305 26.2893 25.0563 26.9512 24.569 27.4386C24.0815 27.926 23.4199 28.2004 22.7305 28.2004H8.33073C7.6414 28.2004 6.97973 27.9259 6.49219 27.4386C6.00492 26.9512 5.73067 26.2893 5.73047 25.6001V9.6001C5.7306 8.91083 6.00486 8.24901 6.49219 7.76156C6.73471 7.51909 7.02016 7.32845 7.33073 7.19906V6.39958C7.33086 5.71019 7.60497 5.04851 8.09245 4.56104C8.58002 4.07359 9.24154 3.79932 9.93099 3.79932H14.7305ZM16.5911 10.8605C16.1612 10.7394 15.7018 10.9191 15.4674 11.2993L11.4258 17.867C11.3166 18.0443 11.2442 18.2421 11.2122 18.4465L11.194 18.6535C11.1881 18.9311 11.2579 19.2066 11.3932 19.4491C11.5287 19.6912 11.7269 19.8932 11.9661 20.0337C12.2057 20.1741 12.4789 20.2485 12.7565 20.2485H13.6693V24.1991C13.6693 24.6462 13.967 25.0393 14.3971 25.1613C14.8275 25.283 15.2863 25.1046 15.5208 24.7238L19.5625 18.1548C19.7079 17.9182 19.7884 17.646 19.7943 17.3683C19.7984 17.1605 19.7608 16.9536 19.6849 16.7616L19.5964 16.5741L19.4831 16.3996C19.4005 16.2894 19.3025 16.1901 19.194 16.1053L19.0234 15.9881L18.8372 15.8957C18.6465 15.8156 18.44 15.7733 18.2318 15.7733H17.319V11.8228C17.3185 11.3758 17.0213 10.9822 16.5911 10.8605ZM9.93099 5.79932C9.77197 5.79932 9.61901 5.86273 9.50651 5.9751C9.3941 6.0875 9.33086 6.24062 9.33073 6.39958V6.99984H15.3307V6.39958C15.3306 6.24062 15.2674 6.0875 15.1549 5.9751C15.0424 5.86273 14.8895 5.79932 14.7305 5.79932H9.93099Z" fill="#FAFAFA"/>
</svg>
