<svg width="32" height="32" viewBox="0 0 32 32" fill="none" xmlns="http://www.w3.org/2000/svg">
<path d="M24.5833 3.75C26.6084 3.75 28.25 5.39162 28.25 7.41667V24.75H27.25C28.25 24.75 28.25 24.7495 28.25 24.75V24.7734C28.2498 24.7836 28.2492 24.7963 28.2487 24.8112C28.2477 24.8412 28.2456 24.8809 28.2422 24.9284C28.2354 25.0232 28.2233 25.1526 28.1979 25.3047C28.148 25.6044 28.0455 26.0196 27.832 26.4466C27.6165 26.8777 27.2773 27.3399 26.75 27.6914C26.2164 28.0471 25.55 28.25 24.75 28.25H10.75V22.25C10.75 21.8522 10.9075 21.4701 11.1888 21.1888C11.4701 20.9075 11.8522 20.75 12.25 20.75H16.3958C16.5603 21.3022 16.86 21.8105 17.2747 22.2253C17.9311 22.8816 18.8217 23.25 19.75 23.25C20.6783 23.25 21.5689 22.8816 22.2253 22.2253C22.8816 21.5689 23.25 20.6783 23.25 19.75C23.25 18.8217 22.8816 17.9311 22.2253 17.2747C21.5689 16.6184 20.6783 16.25 19.75 16.25C18.8217 16.25 17.9311 16.6184 17.2747 17.2747C16.86 17.6895 16.5603 18.1978 16.3958 18.75H12.25C11.3217 18.75 10.4311 19.1184 9.77474 19.7747C9.11836 20.4311 8.75 21.3217 8.75 22.25V28.25H7.25V27.25C7.25 28.25 7.25051 28.25 7.25 28.25H7.22656C7.21636 28.2498 7.20372 28.2492 7.1888 28.2487C7.15875 28.2477 7.11914 28.2456 7.07161 28.2422C6.97676 28.2354 6.84743 28.2233 6.69531 28.1979C6.39557 28.148 5.98042 28.0455 5.55339 27.832C5.12226 27.6165 4.66013 27.2773 4.30859 26.75C3.95289 26.2164 3.75 25.55 3.75 24.75V7.41667C3.75 5.39162 5.39162 3.75 7.41667 3.75H21.25V9.75C21.25 10.1478 21.0924 10.5299 20.8112 10.8112C20.5299 11.0925 20.1478 11.25 19.75 11.25H15.6042C15.4397 10.6978 15.14 10.1895 14.7253 9.77474C14.0689 9.11836 13.1783 8.75 12.25 8.75C11.3217 8.75 10.4311 9.11836 9.77474 9.77474C9.11836 10.4311 8.75 11.3217 8.75 12.25C8.75 13.1783 9.11836 14.0689 9.77474 14.7253C10.4311 15.3816 11.3217 15.75 12.25 15.75C13.1783 15.75 14.0689 15.3816 14.7253 14.7253C15.14 14.3105 15.4397 13.8022 15.6042 13.25H19.75C20.6783 13.25 21.5689 12.8816 22.2253 12.2253C22.8816 11.5689 23.25 10.6782 23.25 9.75V3.75H24.5833Z" fill="#FAFAFA"/>
<path d="M19.75 18.25C20.1478 18.25 20.5299 18.4075 20.8112 18.6888C21.0925 18.9701 21.25 19.3522 21.25 19.75C21.25 20.1478 21.0925 20.5299 20.8112 20.8112C20.5299 21.0925 20.1478 21.25 19.75 21.25C19.3522 21.25 18.9701 21.0925 18.6888 20.8112C18.4075 20.5299 18.25 20.1478 18.25 19.75C18.25 19.3522 18.4075 18.9701 18.6888 18.6888C18.9701 18.4075 19.3522 18.25 19.75 18.25Z" fill="#FAFAFA"/>
<path d="M12.25 10.75C12.6478 10.75 13.0299 10.9075 13.3112 11.1888C13.5925 11.4701 13.75 11.8522 13.75 12.25C13.75 12.6478 13.5925 13.0299 13.3112 13.3112C13.0299 13.5925 12.6478 13.75 12.25 13.75C11.8522 13.75 11.4701 13.5925 11.1888 13.3112C10.9075 13.0299 10.75 12.6478 10.75 12.25C10.75 11.8522 10.9075 11.4701 11.1888 11.1888C11.4701 10.9075 11.8522 10.75 12.25 10.75Z" fill="#FAFAFA"/>
</svg>
