<svg width="32" height="32" viewBox="0 0 32 32" fill="none" xmlns="http://www.w3.org/2000/svg">
<path fill-rule="evenodd" clip-rule="evenodd" d="M23.3997 2.6665C23.952 2.6665 24.3997 3.11422 24.3997 3.6665V16.3175C24.5921 16.2537 24.758 16.1964 24.8958 16.1444C25.0838 16.0734 25.2219 16.0159 25.3086 15.9777C25.3518 15.9587 25.3831 15.9445 25.401 15.936C25.4098 15.9319 25.4166 15.9282 25.4192 15.9269C25.9118 15.6809 26.5111 15.8802 26.7591 16.3722C26.9916 16.8345 26.8319 17.3914 26.4049 17.6639L26.3151 17.7147L26.2942 17.7251C26.2841 17.73 26.2703 17.7369 26.2539 17.7446C26.2205 17.7604 26.1736 17.7811 26.1145 17.8071C25.9958 17.8594 25.8253 17.9315 25.6028 18.0155C25.1946 18.1696 24.6108 18.3627 23.8541 18.561L17.7083 22.9946L23.9843 27.522C24.4319 27.8452 24.5326 28.47 24.2096 28.9178C23.8864 29.3656 23.2616 29.4662 22.8138 29.1431L16 24.2264L9.18486 29.1444C8.73722 29.4673 8.11231 29.3664 7.78903 28.9191C7.46599 28.4712 7.56774 27.8464 8.01559 27.5233L14.2916 22.9946L8.1484 18.5623C7.38981 18.3636 6.80469 18.1698 6.3958 18.0155C6.1734 17.9315 6.00281 17.8594 5.88408 17.8071C5.82494 17.7811 5.77813 17.7604 5.74476 17.7446C5.72827 17.7368 5.71455 17.73 5.70439 17.7251L5.68356 17.7147C5.19052 17.4663 4.99152 16.8654 5.23955 16.3722C5.48773 15.8798 6.08783 15.6812 6.5807 15.9282C6.58327 15.9295 6.58892 15.9319 6.59762 15.936C6.61553 15.9445 6.64684 15.9587 6.69007 15.9777C6.77675 16.0159 6.91468 16.0733 7.10283 16.1444C7.24104 16.1965 7.40721 16.2548 7.60023 16.3188V3.6665C7.60023 3.11422 8.04794 2.6665 8.60023 2.6665C9.15221 2.66686 9.60023 3.11444 9.60023 3.6665V4.31104H22.3997V3.6665C22.3997 3.11422 22.8474 2.6665 23.3997 2.6665ZM16 21.7616L19.3763 19.3254C18.3617 19.419 17.2363 19.4764 16 19.4764C14.7637 19.4764 13.6383 19.4189 12.6237 19.3254L16 21.7616ZM9.60023 16.854C11.1412 17.1838 13.2741 17.4764 16 17.4764C18.7261 17.4764 20.8588 17.1839 22.3997 16.854V12.7446H9.60023V16.854Z" fill="#FAFAFA"/>
</svg>
