<svg width="32" height="32" viewBox="0 0 32 32" fill="none" xmlns="http://www.w3.org/2000/svg">
<path d="M11.5273 12.2998C12.1155 12.2999 12.5924 12.7768 12.5924 13.3649C12.5924 13.953 12.1154 14.43 11.5273 14.43C10.9392 14.43 10.4623 13.953 10.4622 13.3649C10.4622 12.7767 10.9392 12.2998 11.5273 12.2998Z" fill="#FAFAFA"/>
<path d="M20.4714 12.1813C21.0595 12.1814 21.5365 12.6583 21.5365 13.2464C21.5364 13.8345 21.0595 14.3115 20.4714 14.3115C19.8832 14.3115 19.4063 13.8346 19.4062 13.2464C19.4062 12.6582 19.8832 12.1813 20.4714 12.1813Z" fill="#FAFAFA"/>
<path fill-rule="evenodd" clip-rule="evenodd" d="M23.9987 2.66699C25.4715 2.66699 26.6654 3.8609 26.6654 5.33366V26.667L26.651 26.9391C26.5147 28.284 25.3796 29.3337 23.9987 29.3337H7.9987C6.61783 29.3337 5.4827 28.284 5.34635 26.9391L5.33203 26.667V5.33366C5.33203 3.8609 6.52594 2.66699 7.9987 2.66699H23.9987ZM13.5911 23.2165C13.0391 23.2165 12.5915 23.6645 12.5911 24.2165C12.5911 24.7688 13.0389 25.2165 13.5911 25.2165H18.4049C18.9572 25.2165 19.4049 24.7688 19.4049 24.2165C19.4046 23.6645 18.957 23.2165 18.4049 23.2165H13.5911ZM16.9987 7.96126C16.9987 8.51355 16.551 8.96126 15.9987 8.96126C15.4464 8.96126 14.9987 8.51355 14.9987 7.96126V6.40918C11.6232 6.89432 9.02865 9.79667 9.02865 13.3063L9.03776 13.6644C9.20747 17.0117 11.7388 19.735 14.9987 20.2034V18.736C14.9991 18.184 15.4466 17.736 15.9987 17.736C16.5508 17.736 16.9983 18.184 16.9987 18.736V20.2034C20.2583 19.7347 22.79 17.0115 22.9596 13.6644L22.9688 13.3063C22.9688 9.79673 20.3741 6.89306 16.9987 6.40788V7.96126Z" fill="#FAFAFA"/>
</svg>
