<svg width="32" height="32" viewBox="0 0 32 32" fill="none" xmlns="http://www.w3.org/2000/svg">
<path d="M8.33268 9.99984C9.25316 9.99984 9.99935 9.25364 9.99935 8.33317C9.99935 7.4127 9.25316 6.6665 8.33268 6.6665C7.41221 6.6665 6.66602 7.4127 6.66602 8.33317C6.66602 9.25364 7.41221 9.99984 8.33268 9.99984Z" fill="#FAFAFA"/>
<path fill-rule="evenodd" clip-rule="evenodd" d="M6.33268 2.6665C4.30764 2.6665 2.66602 4.30813 2.66602 6.33317V17.6665C2.66602 19.6915 4.30764 21.3332 6.33268 21.3332H10.666V25.6665C10.666 27.6915 12.3076 29.3332 14.3327 29.3332H25.666C27.6911 29.3332 29.3327 27.6915 29.3327 25.6665V14.3332C29.3327 12.3081 27.6911 10.6665 25.666 10.6665H21.3327V6.33317C21.3327 4.30813 19.6911 2.6665 17.666 2.6665H6.33268ZM19.3327 10.6665V6.33317C19.3327 5.4127 18.5865 4.6665 17.666 4.6665H6.33268C5.41221 4.6665 4.66602 5.4127 4.66602 6.33317V14.352L5.96286 13.4874C7.19449 12.6663 8.79903 12.6663 10.0307 13.4874L10.6884 13.9259C10.891 12.0925 12.4453 10.6665 14.3327 10.6665H19.3327ZM10.666 16.3147L8.92126 15.1515C8.36142 14.7783 7.63209 14.7783 7.07226 15.1515L4.66602 16.7557V17.6665C4.66602 18.587 5.41221 19.3332 6.33268 19.3332H10.666V16.3147ZM17.3327 22.7458V17.2538C17.3327 16.4448 18.2434 15.9707 18.9061 16.4346L22.829 19.1806C23.3977 19.5787 23.3977 20.421 22.829 20.8191L18.9061 23.5651C18.2434 24.029 17.3327 23.5549 17.3327 22.7458Z" fill="#FAFAFA"/>
</svg>
