<svg width="24" height="24" viewBox="0 0 24 24" fill="none" xmlns="http://www.w3.org/2000/svg">
<path d="M9.02539 10.0264C8.30411 10.0267 7.60038 10.3954 7.29688 11.1113L6.0332 13.7197H5.18652C3.39182 13.7197 2.00041 15.1173 2 16.9199V18.1514C2.00029 19.2156 2.90143 20.1201 3.96094 20.1201H4.48145C4.74198 21.1985 5.70673 21.9999 6.86035 22C8.01399 21.9997 8.97979 21.1984 9.24023 20.1201H14.123C14.3836 21.1985 15.3482 22 16.502 22C17.6554 21.9996 18.6204 21.1984 18.8809 20.1201H19.8916C20.9508 20.1198 21.8523 19.2154 21.8525 18.1514V16.9199C21.8521 15.1175 20.4605 13.72 18.666 13.7197H16.8193L18.9961 11.5332H21.124L21.1973 11.5293C21.5646 11.4919 21.8522 11.1805 21.8525 10.8018C21.8525 10.4227 21.5648 10.1107 21.1973 10.0732L21.124 10.0693H18.6943C18.5495 10.0694 18.4088 10.1129 18.29 10.1924L18.1797 10.2832L15.8291 12.6445L15.0781 11.0986L15.0488 11.042L14.9785 10.9307C14.6117 10.3916 14.0151 10.0268 13.3564 10.0264H9.02539ZM16.502 18.5547C17.0429 18.5552 17.4813 18.9957 17.4814 19.5391C17.4812 20.0824 17.0428 20.523 16.502 20.5234C15.9607 20.5234 15.5217 20.0827 15.5215 19.5391C15.5217 18.9954 15.9606 18.5547 16.502 18.5547ZM6.86035 18.5547C7.40145 18.555 7.84063 18.9956 7.84082 19.5391C7.84056 20.0825 7.40141 20.5231 6.86035 20.5234C6.31923 20.5233 5.88014 20.0826 5.87988 19.5391C5.88007 18.9955 6.31919 18.5549 6.86035 18.5547ZM13.3564 11.5039C13.4671 11.5044 13.6446 11.5776 13.7754 11.7842L14.7129 13.7197H7.66895L8.62598 11.7451C8.63347 11.7295 8.63911 11.7123 8.64551 11.6963C8.67762 11.6162 8.77987 11.5042 9.02539 11.5039H13.3564ZM17.3701 3.40527C17.0731 3.17153 16.6412 3.19741 16.374 3.47656C16.1078 3.75565 16.099 4.18892 16.3428 4.47754L16.3955 4.5332L16.4863 4.63086C16.5726 4.73355 16.6426 4.84969 16.6934 4.97461C16.7609 5.14116 16.7927 5.32123 16.7871 5.50098C16.7869 5.50851 16.7871 5.5169 16.7871 5.52441C16.7868 5.72456 16.6767 5.90363 16.334 6.32617C16.0594 6.66466 15.5564 7.24337 15.5469 8.0498C15.5348 8.43852 15.6039 8.82635 15.75 9.18652C15.8779 9.50174 16.0628 9.79027 16.2939 10.0381L16.3955 10.1416L16.4531 10.1924C16.75 10.4256 17.1812 10.3996 17.4482 10.1211C17.7153 9.84197 17.7236 9.40805 17.4795 9.11914L17.4268 9.06348L17.3359 8.96484C17.2498 8.86217 17.1796 8.74595 17.1289 8.62109C17.0616 8.45484 17.0296 8.27608 17.0352 8.09668C17.0354 8.08906 17.0352 8.08087 17.0352 8.07324C17.0352 7.87284 17.1454 7.69322 17.4883 7.27051C17.7629 6.932 18.266 6.3527 18.2754 5.5459L18.2764 5.54688C18.2885 5.15819 18.2183 4.77129 18.0723 4.41113C17.9444 4.09575 17.7595 3.80653 17.5283 3.55859L17.4268 3.45508L17.3701 3.40527ZM21.0918 2.15918C20.7948 1.9255 20.3638 1.95056 20.0967 2.22949C19.8303 2.50849 19.8219 2.94176 20.0654 3.23047L20.1182 3.28711L20.209 3.38477C20.2952 3.48744 20.3643 3.60361 20.415 3.72852C20.4825 3.89497 20.5153 4.07426 20.5098 4.25391C20.5095 4.26148 20.5098 4.26976 20.5098 4.27734C20.5096 4.47768 20.3996 4.6572 20.0566 5.08008C19.782 5.41858 19.279 5.9973 19.2695 6.80371C19.2575 7.1923 19.3266 7.5794 19.4727 7.93945C19.6006 8.25482 19.7854 8.54408 20.0166 8.79199L20.1182 8.89453L20.1748 8.94531C20.4717 9.17889 20.9037 9.15366 21.1709 8.875C21.438 8.5958 21.4455 8.16098 21.2012 7.87207L21.1494 7.81738L21.0586 7.71875C20.9724 7.61607 20.9022 7.49989 20.8516 7.375C20.7842 7.20874 20.7523 7.03001 20.7578 6.85059C20.758 6.84306 20.7578 6.8347 20.7578 6.82715C20.7578 6.62678 20.8672 6.44698 21.21 6.02441C21.4845 5.68595 21.9877 5.10685 21.9971 4.2998L21.998 4.30078C22.0102 3.91211 21.9409 3.5252 21.7949 3.16504C21.667 2.84965 21.4822 2.56044 21.251 2.3125L21.1494 2.20801L21.0918 2.15918Z" fill="#FAFAFA"/>
</svg>
