<svg width="32" height="32" viewBox="0 0 32 32" fill="none" xmlns="http://www.w3.org/2000/svg">
<path fill-rule="evenodd" clip-rule="evenodd" d="M6.66602 4.99968C6.66602 2.97463 8.30764 1.33301 10.3327 1.33301H21.666C23.6911 1.33301 25.3327 2.97463 25.3327 4.99967V26.9997C25.3327 29.0247 23.6911 30.6663 21.666 30.6663H10.3327C8.30764 30.6663 6.66602 29.0247 6.66602 26.9997V4.99968ZM12.9993 24.6663C12.4471 24.6663 11.9993 25.1141 11.9993 25.6663C11.9993 26.2186 12.4471 26.6663 12.9993 26.6663H18.9993C19.5516 26.6663 19.9993 26.2186 19.9993 25.6663C19.9993 25.1141 19.5516 24.6663 18.9993 24.6663H12.9993Z" fill="#FAFAFA"/>
</svg>
