<svg width="32" height="32" viewBox="0 0 32 32" fill="none" xmlns="http://www.w3.org/2000/svg">
<path d="M17.3333 24C17.3333 24.7364 16.7364 25.3333 16 25.3333C15.2636 25.3333 14.6667 24.7364 14.6667 24C14.6667 23.2636 15.2636 22.6667 16 22.6667C16.7364 22.6667 17.3333 23.2636 17.3333 24Z" fill="#FAFAFA"/>
<path d="M9.33333 24C9.33333 24.7364 8.73638 25.3333 8 25.3333C7.26362 25.3333 6.66667 24.7364 6.66667 24C6.66667 23.2636 7.26362 22.6667 8 22.6667C8.73638 22.6667 9.33333 23.2636 9.33333 24Z" fill="#FAFAFA"/>
<path d="M13.3333 26.6667C13.3333 27.403 12.7364 28 12 28C11.2636 28 10.6667 27.403 10.6667 26.6667C10.6667 25.9303 11.2636 25.3333 12 25.3333C12.7364 25.3333 13.3333 25.9303 13.3333 26.6667Z" fill="#FAFAFA"/>
<path d="M25.3333 24C25.3333 24.7364 24.7364 25.3333 24 25.3333C23.2636 25.3333 22.6667 24.7364 22.6667 24C22.6667 23.2636 23.2636 22.6667 24 22.6667C24.7364 22.6667 25.3333 23.2636 25.3333 24Z" fill="#FAFAFA"/>
<path d="M21.3333 26.6667C21.3333 27.403 20.7364 28 20 28C19.2636 28 18.6667 27.403 18.6667 26.6667C18.6667 25.9303 19.2636 25.3333 20 25.3333C20.7364 25.3333 21.3333 25.9303 21.3333 26.6667Z" fill="#FAFAFA"/>
<path d="M12.5625 4C7.82071 4 4 7.89314 4 12.6667C4 17.4402 7.82071 21.3333 12.5625 21.3333H21.5C25.1027 21.3333 28 18.3763 28 14.7576C28 11.1388 25.1027 8.18182 21.5 8.18182C20.9823 8.18182 20.478 8.24324 19.9941 8.35943C18.5203 5.76008 15.7488 4 12.5625 4Z" fill="#FAFAFA"/>
</svg>
