<svg width="32" height="32" viewBox="0 0 32 32" fill="none" xmlns="http://www.w3.org/2000/svg">
<path d="M22.0911 23.5C22.6357 23.119 23.3503 23.1295 23.8841 23.4714L23.9961 23.5508L24.1497 23.6615C24.9448 24.2003 26.1157 24.5 27 24.5C27.5522 24.5 27.9998 24.9478 28 25.5C27.9998 26.0522 27.5522 26.5 27 26.5C25.8019 26.5 24.2149 26.1232 23.0208 25.3112C21.9779 26.1009 20.7403 26.5 19.5 26.5C18.2679 26.5 17.0386 26.1061 16 25.3268C14.9614 26.1061 13.7321 26.5 12.5 26.5C11.2593 26.5 10.021 26.1013 8.97786 25.3112C7.78392 26.1228 6.19784 26.5 5 26.5C4.44781 26.5 4.00016 26.0522 4 25.5C4.00015 24.9478 4.44781 24.5 5 24.5C5.94315 24.5 7.21236 24.1592 8.00391 23.5508C8.5826 23.1059 9.42928 23.0889 10.0221 23.5885C10.7451 24.198 11.6235 24.5 12.5 24.5C13.3765 24.5 14.2549 24.198 14.9779 23.5885L15.0911 23.5013C15.6736 23.0943 16.4703 23.1235 17.0221 23.5885C17.7451 24.198 18.6235 24.5 19.5 24.5C20.3765 24.5 21.2549 24.198 21.9779 23.5885L22.0911 23.5Z" fill="#FAFAFA"/>
<path d="M10 11.5C10.5523 11.5 11 11.9477 11 12.5C11 13.0523 10.5523 13.5 10 13.5C9.44772 13.5 9 13.0523 9 12.5C9 11.9477 9.44772 11.5 10 11.5Z" fill="#FAFAFA"/>
<path d="M13 11.5C13.5523 11.5 14 11.9477 14 12.5C14 13.0523 13.5523 13.5 13 13.5C12.4477 13.5 12 13.0523 12 12.5C12 11.9477 12.4477 11.5 13 11.5Z" fill="#FAFAFA"/>
<path d="M16 11.5C16.5523 11.5 17 11.9477 17 12.5C17 13.0523 16.5523 13.5 16 13.5C15.4477 13.5 15 13.0523 15 12.5C15 11.9477 15.4477 11.5 16 11.5Z" fill="#FAFAFA"/>
<path fill-rule="evenodd" clip-rule="evenodd" d="M12.7656 5.5C13.77 5.50001 14.5709 5.5328 15.1445 5.56901C16.1872 5.63488 17.0155 6.36438 17.2943 7.3125C17.4225 7.7486 17.549 8.17408 17.668 8.57422C18.2207 8.5987 18.6816 8.62472 19.0573 8.65234C20.259 8.74091 21.2396 9.58064 21.5469 10.7227C21.7118 11.3357 21.8555 11.9411 21.9883 12.5247C23.1895 12.4941 24.6735 12.4833 26.0651 12.5573C27.1926 12.6175 28.0262 13.615 27.8841 14.7357C27.68 16.3427 27.1489 19.6593 25.9388 22.9531C25.9318 22.972 25.9222 22.9902 25.9128 23.0078C25.9099 23.0131 25.9064 23.0181 25.9036 23.0234C25.9013 23.0279 25.8993 23.0332 25.8971 23.0378C25.2756 22.9017 24.6407 22.6608 24.1497 22.3281L23.9961 22.2174L23.8841 22.138C23.3504 21.7963 22.6356 21.7859 22.0911 22.1667L21.9779 22.2552C21.255 22.8646 20.3764 23.1666 19.5 23.1667C18.6236 23.1667 17.745 22.8645 17.0221 22.2552C16.4704 21.7903 15.6735 21.7612 15.0911 22.168L14.9779 22.2552C14.255 22.8646 13.3764 23.1666 12.5 23.1667C11.6236 23.1667 10.745 22.8645 10.0221 22.2552C9.42936 21.7557 8.58256 21.7728 8.00391 22.2174C7.29228 22.7644 6.19402 23.0924 5.29427 23.1536C4.42834 20.3018 4.14276 17.7748 4.04818 16.4115C3.96646 15.229 4.93117 14.3227 6.04036 14.3424C6.13918 14.3442 6.24436 14.3445 6.35547 14.3464C6.44981 13.4077 6.56351 12.3328 6.70443 11.1497C6.82996 10.0959 7.51359 9.19679 8.48438 8.81901L8.47917 7.98438C8.47178 6.72728 9.41765 5.61795 10.7422 5.54948C11.2753 5.52205 11.9546 5.5 12.7656 5.5ZM10 19C9.44809 19.0003 9.00016 19.4481 9 20C9.00018 20.5519 9.4481 20.9997 10 21H20C20.552 20.9998 20.9998 20.552 21 20C20.9998 19.448 20.552 19.0002 20 19H10ZM14.0586 10.5C11.9197 10.5 10.4166 10.5652 9.44661 10.6302C9.06642 10.656 8.7436 10.9492 8.69141 11.3854C8.5606 12.4836 8.45321 13.4878 8.36328 14.3737C10.9773 14.4041 14.6984 14.423 17.9622 14.3372L18.4583 13.5365C18.4661 13.5238 18.4763 13.5124 18.4844 13.5C18.7246 13.1307 19.0781 12.853 19.4909 12.7083C19.4971 12.7062 19.5029 12.7026 19.5091 12.7005C19.6516 12.6522 19.8007 12.6215 19.9544 12.6068H19.957C19.8518 12.1599 19.7385 11.7029 19.6146 11.2422C19.5223 10.8994 19.2418 10.6715 18.9102 10.6471C17.9554 10.5769 16.3822 10.5 14.0586 10.5ZM12.7656 7.5C11.9903 7.5 11.3454 7.52113 10.8451 7.54688C10.6567 7.55683 10.4776 7.71478 10.4792 7.97266L10.4818 8.57161C10.5174 8.57006 10.5535 8.56924 10.5898 8.56771C10.969 8.55185 11.3893 8.53833 11.8529 8.52734C12.0135 8.52345 12.1792 8.51873 12.3503 8.51562C12.4596 8.51369 12.5712 8.51199 12.6849 8.51042C13.1121 8.5043 13.57 8.5 14.0599 8.5C14.5994 8.5 15.1002 8.5033 15.5638 8.51042C15.5024 8.30275 15.4394 8.09088 15.3763 7.8763C15.3186 7.67992 15.1661 7.57444 15.0182 7.5651C14.4844 7.5314 13.7257 7.50001 12.7656 7.5Z" fill="#FAFAFA"/>
</svg>
