<svg width="32" height="32" viewBox="0 0 32 32" fill="none" xmlns="http://www.w3.org/2000/svg">
<path fill-rule="evenodd" clip-rule="evenodd" d="M13.6126 3.67452C14.9404 2.3305 17.0609 2.3305 18.3887 3.67452C19.7975 5.10118 21.8473 7.36204 23.5501 9.98962C25.2387 12.5953 26.6673 15.6843 26.6673 18.7422C26.6673 24.5996 21.8844 29.3347 16.0007 29.3347C10.1169 29.3347 5.334 24.5996 5.33398 18.7422C5.33398 15.6843 6.76261 12.5953 8.45117 9.98962C10.154 7.36204 12.2038 5.10118 13.6126 3.67452ZM16.002 12.6107C15.4498 12.6107 15.0022 13.0586 15.002 13.6107V14.0808L14.5749 13.6537C14.1845 13.2633 13.5514 13.2637 13.1608 13.6537C12.7704 14.0442 12.7703 14.6773 13.1608 15.0677L15.002 16.9089V17.6211H14.2754L12.4395 15.7865C12.0489 15.3969 11.4156 15.3963 11.0254 15.7865C10.6355 16.1767 10.6359 16.8101 11.0254 17.2006L11.4499 17.625L10.9889 17.6263C10.4373 17.6274 9.99139 18.0761 9.99154 18.6276C9.99225 19.1797 10.4396 19.6267 10.9915 19.6263L11.4525 19.625L11.0254 20.0534C10.6356 20.4437 10.6359 21.077 11.0254 21.4675C11.4158 21.8577 12.0489 21.8576 12.4395 21.4675L14.2845 19.6211H15.002V20.3451L13.1608 22.1862C12.7704 22.5767 12.7705 23.2098 13.1608 23.6003C13.5514 23.9905 14.1845 23.9907 14.5749 23.6003L15.002 23.1719V23.6433C15.002 24.1956 15.4497 24.6433 16.002 24.6433C16.5536 24.6426 17.002 24.1951 17.002 23.6433V23.1745L17.4277 23.6003L17.5033 23.6693C17.896 23.9895 18.4758 23.9663 18.8418 23.6003C19.2068 23.2344 19.2302 22.6555 18.9108 22.2631L18.8418 22.1862L17.002 20.3464V19.6185L17.7116 19.6172L19.5605 21.4675L19.6374 21.5365C20.03 21.8561 20.6087 21.833 20.9746 21.4675C21.3401 21.1013 21.3638 20.5215 21.0436 20.1289L20.9746 20.0534L20.5345 19.6133H21.0254C21.5774 19.6122 22.0248 19.1641 22.0241 18.612C22.0228 18.0604 21.5744 17.613 21.0228 17.6133H20.5605L20.9746 17.2006C21.3644 16.81 21.3647 16.1768 20.9746 15.7865C20.5843 15.3965 19.951 15.3968 19.5605 15.7865L17.7285 17.6172L17.002 17.6185V16.9063L18.8418 15.0677C19.2315 14.6773 19.2316 14.044 18.8418 13.6537C18.4515 13.2634 17.8183 13.2638 17.4277 13.6537L17.002 14.0782V13.6107C17.0017 13.0591 16.5535 12.6114 16.002 12.6107Z" fill="#FAFAFA"/>
</svg>
