<svg width="32" height="32" viewBox="0 0 32 32" fill="none" xmlns="http://www.w3.org/2000/svg">
<path d="M9.00065 4C6.97561 4 5.33398 5.64162 5.33398 7.66667V24.3333C5.33398 26.3584 6.97561 28 9.00065 28H9.66732C11.6924 28 13.334 26.3584 13.334 24.3333V7.66667C13.334 5.64162 11.6924 4 9.66732 4H9.00065Z" fill="#FAFAFA"/>
<path d="M22.334 4C20.3089 4 18.6673 5.64162 18.6673 7.66667V24.3333C18.6673 26.3584 20.3089 28 22.334 28H23.0007C25.0257 28 26.6673 26.3584 26.6673 24.3333V7.66667C26.6673 5.64162 25.0257 4 23.0007 4H22.334Z" fill="#FAFAFA"/>
</svg>
