<svg width="32" height="32" viewBox="0 0 32 32" fill="none" xmlns="http://www.w3.org/2000/svg">
<path d="M8.86068 6.67318C9.05949 6.64962 9.26026 6.6915 9.4336 6.79167C9.60696 6.89192 9.74413 7.04506 9.82292 7.22917L12.2721 12.7018C12.3323 12.8424 12.3571 12.9961 12.3438 13.1484C12.3304 13.3007 12.2803 13.4476 12.1966 13.5755L9.71875 16.5208C9.63086 16.6535 9.57868 16.8074 9.56771 16.9661C9.55677 17.1248 9.58747 17.2837 9.65625 17.4271C10.6151 19.3898 12.6435 21.3941 14.612 22.3437C14.7562 22.4123 14.9163 22.443 15.0755 22.431C15.2347 22.419 15.3885 22.3654 15.5208 22.276L18.4219 19.8073C18.5503 19.7218 18.6992 19.6702 18.8529 19.6562C19.0063 19.6424 19.1605 19.667 19.3021 19.7279L24.7708 22.1771C24.9549 22.2559 25.1081 22.393 25.2083 22.5664C25.3085 22.7397 25.3504 22.9405 25.3268 23.1393C25.1467 24.4855 24.4834 25.7206 23.4609 26.6146C22.4385 27.5085 21.1263 28.001 19.7682 28C15.5863 27.9999 11.5756 26.3386 8.61849 23.3815C5.66139 20.4244 4.00007 16.4137 4 12.2318C3.99896 10.8737 4.49149 9.56146 5.38542 8.53906C6.27945 7.51664 7.51451 6.85331 8.86068 6.67318Z" fill="white"/>
<path d="M23.1432 4C23.5114 4 23.8099 4.29848 23.8099 4.66667V6.80599L25.6055 5.7474C25.9265 5.55815 26.341 5.66929 26.5247 5.99349L27.6771 8.02734C27.856 8.34373 27.7481 8.74507 27.4349 8.92969L25.6198 10L27.4349 11.0703C27.7481 11.2549 27.856 11.6563 27.6771 11.9727L26.5247 14.0065C26.341 14.3307 25.9265 14.4418 25.6055 14.2526L23.8099 13.194V15.3333C23.8099 15.7015 23.5114 16 23.1432 16H20.8568C20.4886 16 20.1901 15.7015 20.1901 15.3333V13.194L18.3945 14.2526C18.0735 14.4418 17.659 14.3307 17.4753 14.0065L16.3229 11.9727C16.144 11.6563 16.2519 11.2549 16.5651 11.0703L18.3802 10L16.5651 8.92969C16.2519 8.74507 16.144 8.34372 16.3229 8.02734L17.4753 5.99349C17.659 5.66928 18.0735 5.55815 18.3945 5.7474L20.1901 6.80599V4.66667C20.1901 4.29848 20.4886 4 20.8568 4H23.1432Z" fill="white"/>
</svg>
