<svg width="32" height="32" viewBox="0 0 32 32" fill="none" xmlns="http://www.w3.org/2000/svg">
<path d="M18.6667 5.66602C19.219 5.66602 19.6667 6.11373 19.6667 6.66602C19.6667 7.2183 19.219 7.66602 18.6667 7.66602H15.6667V10.9993H16.5065C16.939 10.9976 17.3639 11.1162 17.7331 11.3418C18.0577 11.5402 18.3286 11.8144 18.5221 12.14L18.6003 12.2832L18.6055 12.2936L19.1862 13.4824C19.2141 13.5377 19.2571 13.5842 19.3099 13.6165C19.3629 13.6489 19.4249 13.6664 19.487 13.666H22.6667C24.3464 13.666 25.9568 14.3338 27.1445 15.5215C28.3323 16.7092 29 18.3196 29 19.9993V23.9993C29 24.6182 28.754 25.2115 28.3164 25.6491C27.8788 26.0867 27.2855 26.3327 26.6667 26.3327H24C23.3812 26.3327 22.7878 26.0867 22.3503 25.6491C21.9127 25.2115 21.6667 24.6182 21.6667 23.9993V21.3327C21.6667 21.2443 21.6315 21.1595 21.569 21.097C21.5065 21.0345 21.4217 20.9993 21.3333 20.9993H5V22.666C5 23.2183 4.55228 23.666 4 23.666C3.44772 23.666 3 23.2183 3 22.666V11.9993C3 11.4471 3.44772 10.9993 4 10.9993C4.55228 10.9993 5 11.4471 5 11.9993V13.666H9.84635C9.90847 13.6664 9.97043 13.6489 10.0234 13.6165C10.0762 13.5842 10.1193 13.5377 10.1471 13.4824L10.7279 12.2936L10.7331 12.2832C10.9287 11.895 11.2294 11.5685 11.6003 11.3418C11.9694 11.1162 12.3943 10.9976 12.8268 10.9993H13.6667V7.66602H10.6667C10.1144 7.66602 9.66667 7.2183 9.66667 6.66602C9.66667 6.11373 10.1144 5.66602 10.6667 5.66602H18.6667Z" fill="#FAFAFA"/>
</svg>
