<svg width="32" height="32" viewBox="0 0 32 32" fill="none" xmlns="http://www.w3.org/2000/svg">
<path d="M13.3048 9.76107V5.62695H10.4546C9.90227 5.62695 9.45456 5.17924 9.45456 4.62695C9.45456 4.07467 9.90227 3.62695 10.4546 3.62695H18.1538C18.7061 3.62695 19.1538 4.07467 19.1538 4.62695C19.1538 5.17924 18.7061 5.62695 18.1538 5.62695H15.3048V9.76107C15.3048 10.3132 14.8569 10.7608 14.3048 10.7611C13.7525 10.7611 13.3048 10.3134 13.3048 9.76107Z" fill="#FAFAFA"/>
<path d="M20.9395 8.76049C22.4547 8.76049 23.6829 9.99009 23.6829 11.5053V13.5821H27.3327C27.8849 13.5821 28.3326 14.0299 28.3327 14.5821V17.7279C28.3321 18.2798 27.8846 18.7279 27.3327 18.7279H23.6829V20.8048C23.6825 22.3196 22.4544 23.5483 20.9395 23.5483H18.2233V26.2188C18.2232 26.2716 18.2182 26.3245 18.2103 26.3751H24.9993C25.5516 26.3751 25.9993 26.8228 25.9993 27.3751C25.9983 27.9265 25.551 28.3751 24.9993 28.3751H15.5241V17.2371H17.6439L17.4941 17.3842C17.1001 17.7706 17.0998 18.3977 17.4941 18.7839C17.8886 19.1698 18.5293 19.1698 18.9238 18.7839L20.8079 16.9376C21.2023 16.5513 21.2021 15.9256 20.8079 15.5391L18.9238 13.6928C18.5292 13.3064 17.8887 13.3064 17.4941 13.6928C17.0997 14.0792 17.0997 14.7061 17.4941 15.0925L17.6413 15.2371H14.5241C13.972 15.2371 13.5244 15.6851 13.5241 16.2371V28.3751H3.66602C3.11438 28.3751 2.66707 27.9265 2.66602 27.3751C2.66602 26.8228 3.11373 26.3751 3.66602 26.3751H10.8001C10.7922 26.3246 10.7885 26.2715 10.7884 26.2188V23.5483H9.31575C6.1958 23.5483 3.66637 21.0184 3.66602 17.8985V14.4115C3.66602 11.2914 6.19558 8.76049 9.31575 8.76049H20.9395Z" fill="#FAFAFA"/>
</svg>
