<svg width="32" height="32" viewBox="0 0 32 32" fill="none" xmlns="http://www.w3.org/2000/svg">
<path d="M19.293 4.89348C19.6835 4.50295 20.3165 4.50295 20.707 4.89348L23.9076 8.094C24.0946 8.28147 24.2005 8.53616 24.2005 8.80103V15.0002H28C28.5523 15.0002 29 15.448 29 16.0003C28.9999 16.5525 28.5522 17.0003 28 17.0003H24.2005V22.7867L27.1068 25.693C27.497 26.0835 27.4971 26.7166 27.1068 27.107C26.7163 27.4973 26.0832 27.4973 25.6927 27.107L22.4935 23.9078C22.3061 23.7204 22.2007 23.4658 22.2005 23.2008V17.7815L10.5378 24.9091C10.2649 25.0758 9.9525 25.1675 9.63281 25.1734C9.31318 25.1793 8.99757 25.0993 8.71875 24.943C8.44012 24.7866 8.20837 24.5585 8.04688 24.2828C7.9259 24.0761 7.84666 23.848 7.8151 23.6122L7.79948 23.3739V17.0003H4C3.44775 17.0003 3.00006 16.5525 3 16.0003C3 15.448 3.44772 15.0002 4 15.0002H7.79948V8.62525L7.8151 8.38697C7.84673 8.15122 7.92587 7.92302 8.04688 7.7164C8.2084 7.44078 8.44016 7.21257 8.71875 7.05624L8.9349 6.95338C9.15606 6.86552 9.39329 6.82134 9.63281 6.82577L9.87109 6.8466C10.1064 6.88253 10.3333 6.9652 10.5378 7.09009L22.2005 14.2164V9.21509L19.293 6.30754C18.9025 5.91706 18.9026 5.28401 19.293 4.89348Z" fill="#FAFAFA"/>
</svg>
