<svg width="32" height="32" viewBox="0 0 32 32" fill="none" xmlns="http://www.w3.org/2000/svg">
<path fill-rule="evenodd" clip-rule="evenodd" d="M27.5352 7.05729C27.9218 7.12359 28.2412 7.41346 28.3372 7.80469L30.0964 14.9674C30.1153 15.0451 30.125 15.1258 30.125 15.2057V22.3555C30.1246 22.9074 29.6769 23.3553 29.125 23.3555H26.2513C26.0899 23.8767 25.8044 24.3571 25.4115 24.75C24.7763 25.385 23.915 25.7421 23.0169 25.7422C22.1187 25.7422 21.2563 25.3851 20.6211 24.75C20.2282 24.3571 19.9426 23.8767 19.7812 23.3555H10.8854C10.7241 23.8767 10.4385 24.357 10.0456 24.75C9.41051 25.385 8.54908 25.742 7.65104 25.7422C6.75285 25.7422 5.89044 25.385 5.25521 24.75C4.86225 24.357 4.57542 23.8768 4.41406 23.3555H2.875C2.32295 23.3555 1.87539 22.9074 1.875 22.3555V15.5664L1.88021 15.4635C1.9317 14.9596 2.35744 14.5664 2.875 14.5664H19.6289V8.04297C19.6289 7.49068 20.0766 7.04167 20.6289 7.04167H27.3659L27.5352 7.05729ZM7.65104 20.9674C7.28306 20.9674 6.92948 21.1135 6.66927 21.3737C6.40917 21.6339 6.26302 21.9876 6.26302 22.3555C6.26333 22.723 6.40942 23.076 6.66927 23.3359C6.92943 23.5958 7.28328 23.7422 7.65104 23.7422C8.01865 23.742 8.37152 23.5958 8.63151 23.3359C8.89144 23.076 9.03745 22.723 9.03776 22.3555C9.03776 21.9877 8.89141 21.6339 8.63151 21.3737C8.37152 21.1138 8.01866 20.9677 7.65104 20.9674ZM23.0169 20.9674C22.6489 20.9674 22.2954 21.1135 22.0352 21.3737C21.7752 21.6339 21.6289 21.9876 21.6289 22.3555C21.6292 22.723 21.7753 23.076 22.0352 23.3359C22.2953 23.5959 22.6491 23.7422 23.0169 23.7422C23.3846 23.7421 23.7373 23.5958 23.9974 23.3359C24.2573 23.076 24.4033 22.723 24.4036 22.3555C24.4036 21.9876 24.2574 21.6339 23.9974 21.3737C23.7373 21.1137 23.3847 20.9676 23.0169 20.9674ZM3.875 21.3555H4.41406C4.57527 20.8333 4.8618 20.3531 5.25521 19.9596C5.89049 19.3244 6.75262 18.9674 7.65104 18.9674C8.5491 18.9677 9.41051 19.3246 10.0456 19.9596C10.4388 20.353 10.7242 20.8335 10.8854 21.3555H19.6289V16.5664H3.875V21.3555ZM21.6289 19.2682C22.0618 19.0736 22.5333 18.9674 23.0169 18.9674C23.9151 18.9676 24.7763 19.3246 25.4115 19.9596C25.8048 20.3531 26.0914 20.8333 26.2526 21.3555H28.125V15.3268L26.582 9.04297H21.6289V19.2682Z" fill="#FAFAFA"/>
<path d="M3.875 21.3555H4.41406C4.57527 20.8333 4.8618 20.3531 5.25521 19.9596C5.89049 19.3244 6.75262 18.9674 7.65104 18.9674C8.5491 18.9677 9.41051 19.3246 10.0456 19.9596C10.4388 20.353 10.7242 20.8335 10.8854 21.3555H19.6289V16.5664H3.875V21.3555Z" fill="#FAFAFA"/>
<path d="M5.11849 9.99089C4.76487 9.99089 4.42573 10.1314 4.17568 10.3814C3.92563 10.6315 3.78516 10.9706 3.78516 11.3242C3.78516 11.6778 3.92563 12.017 4.17568 12.267C4.42573 12.5171 4.76487 12.6576 5.11849 12.6576H6.71849C6.78921 12.6576 6.85704 12.6295 6.90705 12.5794C6.95706 12.5294 6.98516 12.4616 6.98516 12.3909V10.2576C6.98516 10.1868 6.95706 10.119 6.90705 10.069C6.85704 10.019 6.78921 9.99089 6.71849 9.99089H5.11849Z" fill="#FAFAFA"/>
<path d="M8.31875 9.99089H12.5854C12.5854 9.99089 12.8521 9.99089 12.8521 10.2576V12.3909C12.8521 12.3909 12.8521 12.6576 12.5854 12.6576H8.31875C8.31875 12.6576 8.05208 12.6576 8.05208 12.3909V10.2576C8.05208 10.2576 8.05208 9.99089 8.31875 9.99089Z" fill="#FAFAFA"/>
<path d="M15.7853 12.6576C16.1389 12.6576 16.478 12.5171 16.7281 12.267C16.9781 12.017 17.1186 11.6778 17.1186 11.3242C17.1186 10.9706 16.9781 10.6315 16.7281 10.3814C16.478 10.1314 16.1389 9.99089 15.7853 9.99089H14.1853C14.1146 9.99089 14.0467 10.019 13.9967 10.069C13.9467 10.119 13.9186 10.1868 13.9186 10.2576V12.3909C13.9186 12.4616 13.9467 12.5294 13.9967 12.5794C14.0467 12.6295 14.1146 12.6576 14.1853 12.6576H15.7853Z" fill="#FAFAFA"/>
<path d="M15.7853 8.92448C16.1389 8.92448 16.478 8.784 16.7281 8.53396C16.9781 8.28391 17.1186 7.94477 17.1186 7.59115C17.1186 7.23752 16.9781 6.89839 16.7281 6.64834C16.478 6.39829 16.1389 6.25781 15.7853 6.25781H14.1853C14.1146 6.25781 14.0467 6.28591 13.9967 6.33592C13.9467 6.38593 13.9186 6.45375 13.9186 6.52448V8.65781C13.9186 8.72854 13.9467 8.79636 13.9967 8.84637C14.0467 8.89638 14.1146 8.92448 14.1853 8.92448H15.7853Z" fill="#FAFAFA"/>
<path d="M8.31875 6.25781H12.5854C12.5854 6.25781 12.8521 6.25781 12.8521 6.52448V8.65781C12.8521 8.65781 12.8521 8.92448 12.5854 8.92448H8.31875C8.31875 8.92448 8.05208 8.92448 8.05208 8.65781V6.52448C8.05208 6.52448 8.05208 6.25781 8.31875 6.25781Z" fill="#FAFAFA"/>
<path d="M5.11849 6.25781C4.76487 6.25781 4.42573 6.39829 4.17568 6.64834C3.92563 6.89839 3.78516 7.23752 3.78516 7.59115C3.78516 7.94477 3.92563 8.28391 4.17568 8.53396C4.42573 8.784 4.76487 8.92448 5.11849 8.92448H6.71849C6.78921 8.92448 6.85704 8.89638 6.90705 8.84637C6.95706 8.79636 6.98516 8.72854 6.98516 8.65781V6.52448C6.98516 6.45375 6.95706 6.38593 6.90705 6.33592C6.85704 6.28591 6.78921 6.25781 6.71849 6.25781H5.11849Z" fill="#FAFAFA"/>
<path d="M5.11849 13.724C4.76487 13.724 4.42573 13.8644 4.17568 14.1145C3.92563 14.3645 3.78516 14.7037 3.78516 15.0573C3.78516 15.4109 3.92563 15.7501 4.17568 16.0001C4.42573 16.2501 4.76487 16.3906 5.11849 16.3906H6.71849C6.78921 16.3906 6.85704 16.3625 6.90705 16.3125C6.95706 16.2625 6.98516 16.1947 6.98516 16.124V13.9906C6.98516 13.9199 6.95706 13.8521 6.90705 13.8021C6.85704 13.7521 6.78921 13.724 6.71849 13.724H5.11849Z" fill="#FAFAFA"/>
<path d="M8.31875 13.724H12.5854C12.5854 13.724 12.8521 13.724 12.8521 13.9906V16.124C12.8521 16.124 12.8521 16.3906 12.5854 16.3906H8.31875C8.31875 16.3906 8.05208 16.3906 8.05208 16.124V13.9906C8.05208 13.9906 8.05208 13.724 8.31875 13.724Z" fill="#FAFAFA"/>
<path d="M15.7853 16.3906C16.1389 16.3906 16.478 16.2501 16.7281 16.0001C16.9781 15.7501 17.1186 15.4109 17.1186 15.0573C17.1186 14.7037 16.9781 14.3645 16.7281 14.1145C16.478 13.8644 16.1389 13.724 15.7853 13.724H14.1853C14.1146 13.724 14.0467 13.7521 13.9967 13.8021C13.9467 13.8521 13.9186 13.9199 13.9186 13.9906V16.124C13.9186 16.1947 13.9467 16.2625 13.9967 16.3125C14.0467 16.3625 14.1146 16.3906 14.1853 16.3906H15.7853Z" fill="#FAFAFA"/>
</svg>
