<svg width="32" height="32" viewBox="0 0 32 32" fill="none" xmlns="http://www.w3.org/2000/svg">
<path d="M15.7441 14.7165C15.9981 14.666 16.2614 14.6916 16.5007 14.7907C16.7397 14.8898 16.944 15.0574 17.0879 15.2725C17.2318 15.4878 17.3092 15.7413 17.3092 16.0003C17.3092 16.2593 17.2318 16.5128 17.0879 16.7282C16.944 16.9433 16.7397 17.1109 16.5007 17.21C16.2614 17.3091 15.9981 17.3347 15.7441 17.2842C15.4901 17.2336 15.2567 17.1092 15.0736 16.9261C14.8284 16.6803 14.6908 16.3475 14.6908 16.0003C14.6908 15.6532 14.8284 15.3203 15.0736 15.0745C15.2567 14.8914 15.4901 14.767 15.7441 14.7165Z" fill="#FAFAFA"/>
<path fill-rule="evenodd" clip-rule="evenodd" d="M15.9993 2.66699C23.3631 2.66699 29.3327 8.63653 29.3327 16.0003C29.3327 23.3641 23.3631 29.3337 15.9993 29.3337C8.63555 29.3337 2.66602 23.3641 2.66602 16.0003C2.66602 8.63653 8.63555 2.66699 15.9993 2.66699ZM12.4408 8.00684C12.3036 7.99003 12.1633 8.00577 12.0332 8.05241C10.3365 8.66235 9.11276 9.74437 8.36133 11.2972C8.104 11.8306 8.04114 12.4373 8.18424 13.012C8.32741 13.5868 8.66768 14.0939 9.14518 14.4443C10.2735 15.2757 11.4563 15.8125 12.6673 16.0498C12.6743 16.5305 12.7847 16.9853 12.9746 17.3962C11.841 18.2635 10.4449 18.6953 8.84049 18.7829C8.70244 18.7899 8.56745 18.8292 8.44727 18.8975C8.32728 18.9657 8.22437 19.0612 8.14779 19.1761C8.07135 19.2909 8.0227 19.422 8.00586 19.5589C7.98905 19.6961 8.0048 19.8363 8.05143 19.9665C8.66136 21.6632 9.74339 22.8869 11.2962 23.6383C11.8297 23.8957 12.4363 23.9585 13.0111 23.8154C13.5858 23.6723 14.0929 23.332 14.4434 22.8545C15.2748 21.7246 15.8122 20.542 16.0488 19.3311C16.5297 19.3241 16.9842 19.2138 17.3952 19.0238C18.2629 20.1575 18.6943 21.5545 18.7819 23.1592C18.7889 23.2972 18.8282 23.4322 18.8965 23.5524C18.9648 23.6724 19.0603 23.7753 19.1751 23.8519C19.2899 23.9283 19.421 23.977 19.5579 23.9938C19.6952 24.0106 19.8354 23.9949 19.9655 23.9482C21.6622 23.3383 22.8859 22.2563 23.6374 20.7034C23.8947 20.17 23.9576 19.5633 23.8145 18.9886C23.6713 18.4139 23.331 17.9067 22.8535 17.5563C21.7247 16.7246 20.5416 16.1867 19.3301 15.9495C19.3229 15.4688 19.213 15.014 19.0228 14.6032C20.1564 13.7358 21.5538 13.3054 23.1582 13.2178C23.2963 13.2108 23.4312 13.1715 23.5514 13.1032C23.6714 13.0349 23.7743 12.9394 23.8509 12.8245C23.9274 12.7097 23.976 12.5786 23.9928 12.4417C24.0096 12.3045 23.9939 12.1643 23.9473 12.0342C23.3373 10.3375 22.2553 9.11372 20.7025 8.3623C20.1691 8.105 19.5623 8.04212 18.9876 8.18522C18.4129 8.3284 17.9058 8.66866 17.5553 9.14616C16.7242 10.2757 16.1853 11.4577 15.9486 12.6683C15.468 12.6755 15.0129 12.7855 14.6022 12.9756C13.7352 11.8421 13.3044 10.4455 13.2168 8.84147C13.2098 8.70342 13.1705 8.56843 13.1022 8.44824C13.0339 8.32827 12.9384 8.22533 12.8236 8.14876C12.7088 8.07234 12.5776 8.02366 12.4408 8.00684Z" fill="#FAFAFA"/>
</svg>
