<svg width="32" height="32" viewBox="0 0 32 32" fill="none" xmlns="http://www.w3.org/2000/svg">
<path d="M3.66797 5C4.22025 5 4.66797 5.44772 4.66797 6V26C4.66797 26.5523 4.22025 27 3.66797 27C3.11568 27 2.66797 26.5523 2.66797 26V6C2.66797 5.44772 3.11568 5 3.66797 5Z" fill="#FAFAFA"/>
<path d="M28.3346 5C28.8869 5 29.3346 5.44772 29.3346 6V26C29.3346 26.5523 28.8869 27 28.3346 27C27.7823 27 27.3346 26.5523 27.3346 26V6C27.3346 5.44772 27.7823 5 28.3346 5Z" fill="#FAFAFA"/>
<path fill-rule="evenodd" clip-rule="evenodd" d="M21.9349 8C23.0761 8.00014 24.0012 8.92522 24.0013 10.0664V21.9336C24.0012 23.0748 23.0761 23.9999 21.9349 24H10.0677C8.92653 23.9999 8.00144 23.0748 8.0013 21.9336V10.0664C8.00144 8.92522 8.92653 8.00014 10.0677 8H21.9349ZM20.0013 15.9961C20.001 15.262 19.406 14.667 18.6719 14.6667C17.9375 14.6667 17.3415 15.2618 17.3411 15.9961C17.3411 16.7307 17.9373 17.3268 18.6719 17.3268C19.4062 17.3265 20.0013 16.7305 20.0013 15.9961Z" fill="#FAFAFA"/>
</svg>
