<svg width="32" height="32" viewBox="0 0 32 32" fill="none" xmlns="http://www.w3.org/2000/svg">
<path fill-rule="evenodd" clip-rule="evenodd" d="M2.66602 9.00016C2.66602 6.97512 4.30764 5.3335 6.33268 5.3335H18.9993C21.0244 5.3335 22.666 6.97512 22.666 9.00016V9.97556L25.8749 8.21069C27.4299 7.3554 29.3327 8.48045 29.3327 10.2552V21.7451C29.3327 23.5199 27.4299 24.6449 25.8749 23.7896L22.666 22.0248V23.0002C22.666 25.0252 21.0244 26.6668 18.9993 26.6668H6.33268C4.30764 26.6668 2.66602 25.0252 2.66602 23.0002V9.00016ZM12.666 20.0002C14.8752 20.0002 16.666 18.2093 16.666 16.0002C16.666 13.791 14.8752 12.0002 12.666 12.0002C10.4569 12.0002 8.66602 13.791 8.66602 16.0002C8.66602 18.2093 10.4569 20.0002 12.666 20.0002Z" fill="#FAFAFA"/>
</svg>
