<svg width="32" height="32" viewBox="0 0 32 32" fill="none" xmlns="http://www.w3.org/2000/svg">
<path fill-rule="evenodd" clip-rule="evenodd" d="M28 26.6667L27.9857 26.9389C27.8584 28.1943 26.8609 29.1918 25.6055 29.3191L25.3333 29.3334H6.66667L6.39453 29.3191C5.13913 29.1918 4.1416 28.1943 4.01432 26.9389L4 26.6667V20.2904H28V26.6667ZM11.2161 22.9701C10.9364 22.7314 10.5152 22.7636 10.276 23.043C10.0485 23.3093 10.0704 23.7017 10.3138 23.9454H8.45182C8.08417 23.9459 7.78535 24.2443 7.78516 24.6121C7.78516 24.9799 8.08405 25.2782 8.45182 25.2787H10.2773C10.0709 25.5203 10.0602 25.8821 10.2695 26.1355C10.5042 26.4189 10.9247 26.4585 11.2083 26.224L12.5352 25.1264C12.6867 25.001 12.7757 24.814 12.7773 24.6173C12.7788 24.4208 12.6923 24.2333 12.543 24.1055L11.2161 22.9701ZM21.724 23.043C21.4848 22.7635 21.0636 22.7314 20.7839 22.9701L19.457 24.1055C19.3077 24.2333 19.2212 24.4208 19.2227 24.6173C19.2243 24.814 19.3133 25.001 19.4648 25.1264L20.7917 26.224C21.0753 26.4586 21.4958 26.4189 21.7305 26.1355C21.9398 25.8821 21.9292 25.5204 21.7227 25.2787H23.5482C23.916 25.2783 24.2148 24.98 24.2148 24.6121C24.2146 24.2443 23.9159 23.9458 23.5482 23.9454H21.6862C21.9297 23.7017 21.9516 23.3093 21.724 23.043ZM16 23.1225C15.1072 23.1225 14.3841 23.8469 14.3841 24.7397C14.3844 25.6322 15.1074 26.3555 16 26.3555C16.8926 26.3555 17.6169 25.6322 17.6172 24.7397C17.6172 23.8469 16.8928 23.1225 16 23.1225Z" fill="#FAFAFA"/>
<path fill-rule="evenodd" clip-rule="evenodd" d="M25.3333 2.66675C26.8061 2.66675 28 3.86066 28 5.33341V18.2904H4V5.33341C4 3.86066 5.19391 2.66675 6.66667 2.66675H25.3333ZM15.2487 4.71102C15.0181 4.71118 14.7915 4.77389 14.5938 4.89201L14.4857 4.96623C14.3152 5.10138 14.1857 5.28053 14.1107 5.48185L14.0547 5.69019C14.006 5.96662 14.0581 6.25036 14.1992 6.49227L14.1979 6.49357C14.6321 7.24569 14.8318 8.12298 14.7513 8.84904C14.6335 8.6132 14.4282 8.43224 14.1771 8.34774C13.9107 8.25833 13.618 8.28422 13.3724 8.42065C12.7699 8.75543 12.2704 9.24931 11.9284 9.84774C11.5864 10.4463 11.4147 11.1274 11.4323 11.8165V11.8321C11.4782 12.9642 11.8733 14.0307 12.6901 14.8139C13.5093 15.599 14.6502 15.9999 15.9974 16.0001C17.3596 16.0001 18.4989 15.5714 19.3112 14.78C20.1172 13.9942 20.5141 12.9357 20.5625 11.8347L20.5677 11.5899C20.5615 9.05269 18.7793 6.21479 15.8112 4.84253L15.8099 4.84513C15.6354 4.75966 15.4441 4.71102 15.2487 4.71102Z" fill="#FAFAFA"/>
</svg>
