<svg width="32" height="32" viewBox="0 0 32 32" fill="none" xmlns="http://www.w3.org/2000/svg">
<path fill-rule="evenodd" clip-rule="evenodd" d="M5.00065 6.6665C2.97561 6.6665 1.33398 8.30813 1.33398 10.3332V21.6665C1.33398 23.6915 2.97561 25.3332 5.00065 25.3332H23.0007C25.0257 25.3332 26.6673 23.6915 26.6673 21.6665V21.3332H28.334C29.6226 21.3332 30.6673 20.2885 30.6673 18.9998V12.9998C30.6673 11.7112 29.6227 10.6665 28.334 10.6665H26.6673V10.3332C26.6673 8.30813 25.0257 6.6665 23.0007 6.6665H5.00065ZM26.6673 12.6665V19.3332H28.334C28.5181 19.3332 28.6673 19.1839 28.6673 18.9998V12.9998C28.6673 12.8157 28.5181 12.6665 28.334 12.6665H26.6673ZM8.00065 11.9998C8.55294 11.9998 9.00065 12.4476 9.00065 12.9998V18.9998C9.00065 19.5521 8.55294 19.9998 8.00065 19.9998C7.44837 19.9998 7.00065 19.5521 7.00065 18.9998V12.9998C7.00065 12.4476 7.44837 11.9998 8.00065 11.9998ZM15.0007 12.9998C15.0007 12.4476 14.5529 11.9998 14.0007 11.9998C13.4484 11.9998 13.0007 12.4476 13.0007 12.9998V18.9998C13.0007 19.5521 13.4484 19.9998 14.0007 19.9998C14.5529 19.9998 15.0007 19.5521 15.0007 18.9998V12.9998ZM20.0007 11.9998C20.5529 11.9998 21.0007 12.4476 21.0007 12.9998V18.9998C21.0007 19.5521 20.5529 19.9998 20.0007 19.9998C19.4484 19.9998 19.0007 19.5521 19.0007 18.9998V12.9998C19.0007 12.4476 19.4484 11.9998 20.0007 11.9998Z" fill="#FAFAFA"/>
</svg>
