<svg width="32" height="32" viewBox="0 0 32 32" fill="none" xmlns="http://www.w3.org/2000/svg">
<path fill-rule="evenodd" clip-rule="evenodd" d="M27.4372 7C27.9647 7.00019 28.4869 7.19173 28.8838 7.55599C29.2836 7.92312 29.5271 8.44079 29.5271 9V12.0104C29.5228 12.3974 29.3661 12.7564 29.1104 13.0234C28.8565 13.2883 28.5203 13.4478 28.1729 13.4922L28.1625 13.4935C27.4572 13.5756 26.8251 13.8909 26.3799 14.3581C25.937 14.8232 25.7083 15.4052 25.7133 15.9909V15.9987C25.7137 16.581 25.9451 17.1589 26.3878 17.6198C26.8326 18.0826 27.4615 18.3949 28.1625 18.4766L28.1742 18.4779C28.4782 18.5167 28.7726 18.6432 29.0115 18.8516L29.1104 18.9466L29.2016 19.0508C29.4026 19.3033 29.5232 19.6199 29.5271 19.9583V22.9701C29.5271 23.5292 29.2836 24.0469 28.8838 24.4141C28.4869 24.7783 27.9647 24.9699 27.4372 24.9701H4.55963C4.03206 24.97 3.51004 24.7783 3.11302 24.4141C2.71304 24.0469 2.4698 23.5294 2.46979 22.9701V19.9896C2.47407 19.6025 2.63064 19.2436 2.88645 18.9766L2.98541 18.8815C3.2244 18.6731 3.51986 18.5465 3.82395 18.5078H3.82916C4.52727 18.4232 5.15295 18.1094 5.59479 17.6471C6.03448 17.1867 6.26406 16.6104 6.26406 16.0299C6.26404 15.4495 6.03447 14.8732 5.59479 14.4128C5.15295 13.9505 4.52725 13.638 3.82916 13.5534C3.45132 13.5074 3.08761 13.3243 2.82656 13.0195C2.58712 12.7398 2.45563 12.3782 2.46979 12V9C2.46979 8.44059 2.71303 7.92315 3.11302 7.55599C3.51004 7.19176 4.03204 7.00003 4.55963 7H27.4372ZM12.544 10.651C12.3055 10.6511 12.0776 10.7176 11.8812 10.8333L11.7393 10.9336L10.85 11.694L10.8122 11.7279C10.7024 11.8319 10.6129 11.9517 10.5453 12.0781L10.4854 12.207C10.432 12.3373 10.3984 12.4736 10.3852 12.6107L10.3786 12.7487L10.3852 12.8867C10.3984 13.0238 10.432 13.1601 10.4854 13.2904C10.5568 13.4644 10.6658 13.6296 10.8122 13.7682C10.8432 13.7976 10.8767 13.8251 10.9112 13.8503L13.4945 15.7318L13.1755 15.9883L12.2797 15.3672C12.2472 15.3446 12.213 15.3232 12.1781 15.3047L12.0687 15.2552L11.8956 15.2031C11.7788 15.1768 11.6578 15.1674 11.5375 15.1758L11.3565 15.2018C11.1185 15.2546 10.9112 15.3739 10.751 15.5299L10.7393 15.543L9.52838 16.7643H9.53098C9.40702 16.8845 9.31083 17.0233 9.24583 17.1706C9.16981 17.343 9.13261 17.5275 9.13255 17.7096C9.13255 17.8918 9.16988 18.0763 9.24583 18.2487C9.32193 18.4212 9.43891 18.5852 9.59609 18.7174C9.602 18.7224 9.6083 18.7282 9.61432 18.7331L12.4945 21.0378L12.5128 21.0521C12.7563 21.2377 13.0596 21.3489 13.3838 21.349C13.6977 21.3488 13.9909 21.2427 14.2302 21.0677L14.2315 21.0703L22.0909 15.4466L22.0961 15.4427C22.5526 15.1112 22.8734 14.6298 23.0323 14.1003C23.1712 13.6368 23.1859 13.1399 23.0779 12.6693L23.0245 12.4701C22.9024 12.0748 22.6912 11.707 22.3995 11.4076C22.1064 11.107 21.7379 10.8826 21.324 10.7734L21.2979 10.7669C20.9525 10.6857 20.5942 10.6928 20.2523 10.7865C19.9349 10.8736 19.6473 11.0325 19.4021 11.2422L17.5479 12.6953L13.0948 10.776C12.9258 10.697 12.7386 10.6511 12.544 10.651Z" fill="#FAFAFA"/>
</svg>
