<svg width="32" height="32" viewBox="0 0 32 32" fill="none" xmlns="http://www.w3.org/2000/svg">
<path d="M26.668 5.33301C28.1406 5.33318 29.334 6.52735 29.334 8V24C29.334 25.4727 28.1406 26.6668 26.668 26.667H5.33398L5.0625 26.6523C3.7176 26.516 2.66797 25.3809 2.66797 24V8C2.66797 6.52735 3.86137 5.33318 5.33398 5.33301H26.668ZM16.9834 10.3896C16.372 10.2176 15.7361 10.4512 15.3643 10.9395L15.2881 11.0469L12.5791 15.3193C12.3331 15.7078 12.269 16.1861 12.4014 16.624C12.5341 17.0621 12.857 17.4337 13.2998 17.6133L13.3018 17.6152L13.7754 17.8047L13.4395 19.8496C13.3257 20.5425 13.686 21.2677 14.376 21.5527C15.0826 21.8434 15.8632 21.5595 16.248 20.9395L19.4316 15.8066C19.6921 15.3861 19.7379 14.8657 19.5635 14.4082L19.4873 14.2402C19.2882 13.8606 18.9346 13.5656 18.4951 13.457L17.9697 13.3271L18.1006 12.0566C18.1657 11.4219 17.8404 10.7781 17.2393 10.4863L17.1143 10.4326L16.9834 10.3896ZM9.54492 12.9082C9.10725 12.5716 8.47935 12.6532 8.14258 13.0908L6.37305 15.3906C6.13145 15.7051 6.10181 16.1274 6.2832 16.4688L6.37305 16.6094L8.14258 18.9082C8.47926 19.3457 9.10726 19.4281 9.54492 19.0918C9.98229 18.7551 10.0648 18.1271 9.72852 17.6895L8.42773 16.001L9.72852 14.3105C10.0651 13.8729 9.98253 13.245 9.54492 12.9082ZM24.0322 13.0908C23.6955 12.6533 23.0675 12.5717 22.6299 12.9082C22.1922 13.245 22.1096 13.8729 22.4463 14.3105L23.7471 16.001L22.4463 17.6895C22.11 18.1271 22.1924 18.7551 22.6299 19.0918C23.0675 19.4281 23.6955 19.3457 24.0322 18.9082L25.8018 16.6094L25.8916 16.4688C26.073 16.1274 26.0433 15.7051 25.8018 15.3906L24.0322 13.0908Z" fill="#FAFAFA"/>
</svg>
