<svg width="32" height="32" viewBox="0 0 32 32" fill="none" xmlns="http://www.w3.org/2000/svg">
<g clip-path="url(#clip0_15463_966)">
<path d="M3.15713 22.9913C2.11705 21.636 1.60587 19.9484 1.71908 18.2438C1.83229 16.5392 2.56214 14.934 3.77231 13.7282C10.7903 6.71014 22.2101 6.71014 29.2282 13.7282C30.4383 14.934 31.1682 16.5392 31.2814 18.2438C31.3946 19.9484 30.8834 21.636 29.8433 22.9913C29.5775 23.3311 29.2088 23.5759 28.7924 23.689C28.376 23.8021 27.9341 23.7775 27.5329 23.6188L21.4986 21.3181L21.488 21.3075C21.1808 21.1861 20.9085 20.9905 20.6953 20.7381C20.4822 20.4858 20.3348 20.1846 20.2665 19.8614C20.2585 19.8217 20.2532 19.7828 20.2488 19.743L19.9076 15.7213C17.9003 15.0381 15.0984 15.0505 13.0717 15.7496L12.7508 19.7315C12.7474 19.7704 12.7418 19.8091 12.734 19.8473C12.6689 20.1734 12.5235 20.478 12.311 20.7338C12.0984 20.9895 11.8255 21.1882 11.5169 21.3119L11.5001 21.3181L5.47025 23.6162C5.06891 23.7757 4.6267 23.8011 4.20976 23.6885C3.79281 23.5758 3.42352 23.3312 3.15713 22.9913Z" fill="#FAFAFA"/>
</g>
<defs>
<clipPath id="clip0_15463_966">
<rect width="32" height="32" fill="white"/>
</clipPath>
</defs>
</svg>
