<svg width="32" height="32" viewBox="0 0 32 32" fill="none" xmlns="http://www.w3.org/2000/svg">
<path fill-rule="evenodd" clip-rule="evenodd" d="M19.1522 5.79272L29.1308 22.575C30.5841 25.0191 28.8227 28.1156 25.9792 28.1156H6.02189C3.17834 28.1156 1.41699 25.0191 2.87026 22.575L12.8489 5.79272C14.2702 3.40243 17.7309 3.40242 19.1522 5.79272Z" fill="#FAFAFA"/>
<path d="M14.2828 12.8038C14.5799 12.5211 15.0292 12.3732 15.4859 12.4887L15.6825 12.5551L15.7216 12.5733C17.3306 13.3414 18.6898 14.5441 19.6422 16.0447C20.5263 17.3362 21.0001 18.862 21.0002 20.4249V20.4327C20.9791 23.1483 18.7237 25.0276 16.2385 25.1137L15.9976 25.1163C13.5179 25.086 11.1135 23.2387 11.0172 20.5252L11.0015 20.2752C10.965 19.0324 11.5807 17.8863 12.4885 17.145C12.7982 16.8687 13.2354 16.6683 13.7372 16.7869C14.1888 16.8938 14.4604 17.21 14.5875 17.4509C14.5927 17.4608 14.6015 17.4698 14.607 17.4796C14.724 17.0469 14.7468 16.5557 14.6721 16.0486L14.6318 15.8181C14.5248 15.2839 14.3304 14.7698 14.0562 14.296L14.0575 14.2947C13.7085 13.6988 13.9749 13.0969 14.2828 12.8038Z" fill="#131313"/>
</svg>
