<svg width="32" height="32" viewBox="0 0 32 32" fill="none" xmlns="http://www.w3.org/2000/svg">
<path fill-rule="evenodd" clip-rule="evenodd" d="M22.8121 2.00463C23.2923 1.95848 23.7257 2.2622 23.8628 2.7058L23.9039 2.90502L24.2789 6.80736C24.7904 12.1088 25.923 17.3341 27.6519 22.3718L29.1304 26.6765C29.3093 27.1985 29.0311 27.7665 28.5093 27.946C24.3045 29.3292 7.65819 29.375 3.49175 27.946C2.97021 27.7663 2.69165 27.1984 2.87066 26.6765L4.34722 22.3718C6.07626 17.3338 7.20875 12.1091 7.72027 6.80736L8.09722 2.90502C8.15056 2.356 8.63996 1.95227 9.18902 2.00463C9.18902 2.00463 21.0558 2.17317 22.8121 2.00463ZM16.0015 21.4031C15.4495 21.4031 15.0019 21.8511 15.0015 22.4031V25.364L15.021 25.5652C15.1141 26.021 15.5181 26.364 16.0015 26.364C16.4846 26.3636 16.8889 26.0208 16.982 25.5652L17.0015 25.364V22.4031C17.0011 21.8514 16.5532 21.4035 16.0015 21.4031ZM16.0015 12.5222C15.4492 12.5222 15.0015 12.9699 15.0015 13.5222V16.4831L15.021 16.6843C15.1145 17.1397 15.5185 17.4831 16.0015 17.4831C16.4843 17.4828 16.8887 17.1396 16.982 16.6843L17.0015 16.4831V13.5222C17.0015 12.9702 16.5535 12.5226 16.0015 12.5222ZM16.0015 3.63939C15.4492 3.63939 15.0015 4.08711 15.0015 4.63939V7.60033C15.0018 8.15235 15.4494 8.60033 16.0015 8.60033C16.5533 8.59993 17.0012 8.1521 17.0015 7.60033V4.63939C17.0015 4.08736 16.5535 3.6398 16.0015 3.63939Z" fill="#FAFAFA"/>
</svg>
