<svg width="32" height="32" viewBox="0 0 32 32" fill="none" xmlns="http://www.w3.org/2000/svg">
<path d="M27.8271 11.9178C28.0499 14.9914 28.0617 17.7123 27.837 20.7701L27.7049 22.3319C27.6798 22.5962 27.552 22.8418 27.3498 23.0136L27.2574 23.0827C24.0905 25.2014 21.3306 26.6961 18.0526 27.9533C17.5836 28.1332 17.0902 27.7704 17.0902 27.2531V16.5579C17.0902 16.2679 17.2514 16.0036 17.5046 15.8788L26.7894 11.3023C27.2481 11.0762 27.7838 11.3942 27.8271 11.9178Z" fill="#FAFAFA"/>
<path d="M14.4939 15.8788C14.7469 16.0036 14.9081 16.2678 14.9081 16.5578V27.2516C14.9081 27.769 14.4147 28.1318 13.9457 27.952C11.173 26.8891 8.77052 25.6581 6.17992 24.0201L4.74084 23.0827C4.51794 22.9331 4.36562 22.7014 4.31182 22.4436L4.29477 22.3319C3.93988 18.6073 3.91293 15.4998 4.17359 11.91C4.21157 11.3869 4.74657 11.0709 5.20431 11.2967L14.4939 15.8788Z" fill="#FAFAFA"/>
<path d="M21.521 6.63999C21.7241 6.52903 21.9659 6.52379 22.1727 6.62741C23.2088 7.1467 24.1985 7.68504 25.2237 8.30073C25.7215 8.59967 25.6829 9.34706 25.1633 9.60315L16.3108 13.9659C16.1127 14.0635 15.8827 14.0634 15.6847 13.9658L13.0104 12.6464C12.4705 12.38 12.4551 11.5914 12.9843 11.3029C13.4187 11.0661 13.8868 10.8109 14.3782 10.5425C16.5829 9.33853 19.2642 7.8726 21.521 6.63999Z" fill="#FAFAFA"/>
<path d="M16.0929 4.01458L16.7862 4.25995C17.1629 4.39786 17.5359 4.54234 17.9045 4.69119C18.4753 4.92166 18.5096 5.73279 17.9678 6.02879C16.394 6.88861 14.7772 7.77238 13.3582 8.54726C12.1218 9.2225 11.0345 9.81676 10.2571 10.2413C9.86871 10.4534 9.55635 10.6239 9.34218 10.7409C9.28348 10.7729 9.21314 10.7734 9.15321 10.7439L6.17237 9.2745C5.93839 9.15916 5.91934 8.82226 6.13872 8.6795C9.32105 6.66396 12.2117 5.25692 15.8483 4.03094C15.8805 4.02008 15.9137 4.01185 15.9471 4.00641C15.9799 4.00109 16.0132 3.99712 16.0459 4.00271C16.0621 4.00548 16.0779 4.00951 16.0929 4.01458Z" fill="#FAFAFA"/>
</svg>
