<svg width="32" height="32" viewBox="0 0 32 32" fill="none" xmlns="http://www.w3.org/2000/svg">
<rect x="4" y="4" width="24" height="24" rx="2" fill="#FAFAFA"/>
<path d="M25.3333 26V28H6.66667V26H25.3333ZM26 25.3333V6.66667C26 6.29848 25.7015 6 25.3333 6H6.66667C6.29848 6 6 6.29848 6 6.66667V25.3333C6 25.7015 6.29848 26 6.66667 26V28L6.39453 27.9857C5.04963 27.8493 4 26.7142 4 25.3333V6.66667C4 5.19391 5.19391 4 6.66667 4H25.3333C26.8061 4 28 5.19391 28 6.66667V25.3333C28 26.8061 26.8061 28 25.3333 28V26C25.7015 26 26 25.7015 26 25.3333Z" fill="#FAFAFA"/>
</svg>
