<svg width="32" height="32" viewBox="0 0 32 32" fill="none" xmlns="http://www.w3.org/2000/svg">
<path fill-rule="evenodd" clip-rule="evenodd" d="M10.3333 4C10.8856 4 11.3333 4.44772 11.3333 5V27C11.3333 27.5523 10.8856 28 10.3333 28C9.78105 28 9.33333 27.5523 9.33333 27V5C9.33333 4.44772 9.78105 4 10.3333 4ZM21.6667 6.66667C22.219 6.66667 22.6667 7.11438 22.6667 7.66667V24.3333C22.6667 24.8856 22.219 25.3333 21.6667 25.3333C21.1144 25.3333 20.6667 24.8856 20.6667 24.3333V7.66667C20.6667 7.11438 21.1144 6.66667 21.6667 6.66667ZM16 9.33333C16.5523 9.33333 17 9.78105 17 10.3333V21.6667C17 22.219 16.5523 22.6667 16 22.6667C15.4477 22.6667 15 22.219 15 21.6667V10.3333C15 9.78105 15.4477 9.33333 16 9.33333ZM5 12C5.55228 12 6 12.4477 6 13V19C6 19.5523 5.55228 20 5 20C4.44772 20 4 19.5523 4 19V13C4 12.4477 4.44772 12 5 12ZM27 12C27.5523 12 28 12.4477 28 13V19C28 19.5523 27.5523 20 27 20C26.4477 20 26 19.5523 26 19V13C26 12.4477 26.4477 12 27 12Z" fill="#FAFAFA"/>
</svg>
