<svg width="32" height="32" viewBox="0 0 32 32" fill="none" xmlns="http://www.w3.org/2000/svg">
<path d="M6.66699 20C6.89896 20 7.12334 20.0322 7.33789 20.0879C7.37284 20.097 7.40801 20.1048 7.44238 20.1152C7.47973 20.1266 7.5161 20.1404 7.55273 20.1533C7.59484 20.1682 7.63663 20.1833 7.67773 20.2002C7.71613 20.216 7.75355 20.2335 7.79102 20.251C7.83017 20.2692 7.86913 20.2876 7.90723 20.3076C7.94575 20.3279 7.98313 20.35 8.02051 20.3721C8.05176 20.3905 8.08287 20.409 8.11328 20.4287C8.15536 20.456 8.19593 20.4851 8.23633 20.5146C8.26286 20.534 8.28965 20.5529 8.31543 20.5732C8.35141 20.6016 8.38645 20.631 8.4209 20.6611C8.45041 20.687 8.47947 20.7132 8.50781 20.7402C8.53862 20.7697 8.56828 20.8002 8.59766 20.8311C8.62594 20.8608 8.65376 20.8909 8.68066 20.9219C8.70689 20.9521 8.73197 20.9832 8.75684 21.0146C8.78441 21.0495 8.81107 21.0849 8.83691 21.1211C8.85894 21.152 8.88064 21.183 8.90137 21.2148C8.92592 21.2525 8.94902 21.2911 8.97168 21.3301C8.99123 21.3637 9.0112 21.3971 9.0293 21.4316C9.05036 21.4718 9.06885 21.5133 9.08789 21.5547C9.10353 21.5887 9.11956 21.6225 9.13379 21.6572C9.15114 21.6996 9.16644 21.7427 9.18164 21.7861C9.19492 21.8241 9.20911 21.8617 9.2207 21.9004C9.23052 21.9332 9.23751 21.9667 9.24609 22C9.25908 22.0504 9.27216 22.1009 9.28223 22.1523C9.29137 22.1991 9.29802 22.2464 9.30469 22.2939C9.30959 22.329 9.31581 22.3639 9.31934 22.3994C9.32809 22.4873 9.33301 22.5768 9.33301 22.667V25.333L9.31934 25.6055C9.31106 25.6871 9.29769 25.7674 9.28223 25.8467C9.27303 25.8938 9.26164 25.9401 9.25 25.9863C9.24207 26.0178 9.23365 26.049 9.22461 26.0801C9.21212 26.1229 9.19815 26.1651 9.18359 26.207C9.16991 26.2465 9.15608 26.2857 9.14062 26.3242C9.12664 26.3591 9.11208 26.3936 9.09668 26.4277C9.07832 26.4685 9.0584 26.5082 9.03809 26.5479C9.02156 26.5801 9.00509 26.6121 8.9873 26.6436C8.96439 26.6841 8.93998 26.7235 8.91504 26.7627C8.89594 26.7927 8.87669 26.8224 8.85645 26.8516C8.83305 26.8853 8.80809 26.9177 8.7832 26.9502C8.75808 26.983 8.73362 27.0162 8.70703 27.0479C8.6861 27.0727 8.66342 27.096 8.6416 27.1201C8.58464 27.183 8.52457 27.2426 8.46191 27.2998C8.43467 27.3247 8.40815 27.3503 8.37988 27.374C8.35005 27.3991 8.31901 27.4225 8.28809 27.4463C8.25431 27.4722 8.22057 27.4981 8.18555 27.5225C8.15366 27.5446 8.12077 27.5651 8.08789 27.5859C8.05221 27.6085 8.01629 27.6305 7.97949 27.6514C7.94643 27.6701 7.91283 27.6877 7.87891 27.7051C7.84212 27.7239 7.80533 27.7426 7.76758 27.7598C7.72963 27.777 7.69122 27.7931 7.65234 27.8086C7.61469 27.8236 7.57656 27.8373 7.53809 27.8506C7.5002 27.8637 7.46247 27.8772 7.42383 27.8887C7.38265 27.9008 7.34081 27.9107 7.29883 27.9209C7.25926 27.9305 7.21992 27.9414 7.17969 27.9492C7.1439 27.9562 7.10757 27.9603 7.07129 27.9658C6.93927 27.9859 6.80463 28 6.66699 28H4L3.72754 27.9863C3.68539 27.982 3.64409 27.973 3.60254 27.9668C3.56363 27.961 3.52467 27.9567 3.48633 27.9492C3.44609 27.9414 3.40675 27.9305 3.36719 27.9209C3.32491 27.9106 3.28267 27.901 3.24121 27.8887C3.20487 27.8779 3.16947 27.8648 3.13379 27.8525C3.09137 27.838 3.04923 27.8233 3.00781 27.8066C2.97293 27.7926 2.93843 27.7781 2.9043 27.7627C2.86452 27.7447 2.82582 27.7249 2.78711 27.7051C2.75085 27.6865 2.71496 27.6676 2.67969 27.6475C2.64973 27.6303 2.62004 27.613 2.59082 27.5947C2.55123 27.57 2.5118 27.5453 2.47363 27.5186C2.43971 27.4948 2.40774 27.4686 2.375 27.4434C2.34703 27.4218 2.31809 27.4016 2.29102 27.3789C2.16858 27.2765 2.05544 27.1635 1.95312 27.041C1.93275 27.0166 1.91404 26.9909 1.89453 26.9658C1.86543 26.9283 1.83668 26.8906 1.80957 26.8516C1.78933 26.8224 1.77007 26.7927 1.75098 26.7627C1.72604 26.7235 1.70162 26.6841 1.67871 26.6436C1.66094 26.6121 1.64445 26.58 1.62793 26.5479C1.60762 26.5083 1.58769 26.4684 1.56934 26.4277C1.55394 26.3936 1.53937 26.3591 1.52539 26.3242C1.5088 26.2828 1.49404 26.2407 1.47949 26.1982C1.46738 26.163 1.45499 26.1277 1.44434 26.0918C1.43025 26.0442 1.41869 25.9959 1.40723 25.9473C1.39934 25.9138 1.3904 25.8806 1.38379 25.8467C1.37475 25.8003 1.36891 25.7533 1.3623 25.7061C1.34523 25.5841 1.33301 25.4596 1.33301 25.333V22.667C1.33301 22.537 1.3453 22.4092 1.36328 22.2842C1.37011 22.2367 1.37547 22.1892 1.38477 22.1426C1.39346 22.099 1.4062 22.0565 1.41699 22.0137C1.42654 21.9758 1.43417 21.9376 1.44531 21.9004C1.4569 21.8617 1.47111 21.824 1.48438 21.7861C1.49957 21.7427 1.51488 21.6996 1.53223 21.6572C1.54645 21.6225 1.56249 21.5887 1.57812 21.5547C1.59716 21.5133 1.61566 21.4718 1.63672 21.4316C1.65481 21.3971 1.6748 21.3637 1.69434 21.3301C1.71699 21.2911 1.74011 21.2525 1.76465 21.2148C1.78537 21.183 1.80708 21.152 1.8291 21.1211C1.85493 21.0849 1.88162 21.0495 1.90918 21.0146C1.93404 20.9832 1.95913 20.9521 1.98535 20.9219C2.01225 20.8909 2.04008 20.8608 2.06836 20.8311C2.09772 20.8002 2.1274 20.7697 2.1582 20.7402C2.18771 20.712 2.21825 20.685 2.24902 20.6582C2.28038 20.6308 2.3121 20.604 2.34473 20.5781C2.37386 20.555 2.40349 20.5326 2.43359 20.5107C2.47235 20.4825 2.51146 20.4548 2.55176 20.4287C2.58215 20.409 2.6133 20.3905 2.64453 20.3721C2.68189 20.35 2.71931 20.3279 2.75781 20.3076C2.79743 20.2867 2.83814 20.2679 2.87891 20.249C2.91481 20.2323 2.95056 20.2153 2.9873 20.2002C3.02867 20.1832 3.0709 20.1683 3.11328 20.1533C3.14991 20.1404 3.18629 20.1266 3.22363 20.1152C3.25801 20.1048 3.29318 20.097 3.32812 20.0879C3.54296 20.0321 3.7677 20 4 20H6.66699Z" fill="#FAFAFA"/>
<path d="M17.333 20C17.5642 20 17.788 20.0326 18.002 20.0879C18.0388 20.0974 18.0761 20.1052 18.1123 20.1162C18.1411 20.125 18.1689 20.1368 18.1973 20.1465C18.2482 20.1639 18.2991 20.1808 18.3486 20.2012C18.3818 20.2149 18.4138 20.2311 18.4463 20.2461C18.4894 20.2659 18.5324 20.2856 18.5742 20.3076C18.6127 20.3279 18.6501 20.35 18.6875 20.3721C18.7187 20.3905 18.7499 20.409 18.7803 20.4287C18.8206 20.4548 18.8597 20.4825 18.8984 20.5107C18.9286 20.5326 18.9582 20.555 18.9873 20.5781C19.0199 20.604 19.0516 20.6308 19.083 20.6582C19.1138 20.685 19.1443 20.712 19.1738 20.7402C19.2046 20.7697 19.2343 20.8002 19.2637 20.8311C19.292 20.8608 19.3198 20.8909 19.3467 20.9219C19.3712 20.9502 19.3956 20.9785 19.4189 21.0078C19.4481 21.0444 19.4757 21.082 19.5029 21.1201C19.5252 21.1514 19.5474 21.1826 19.5684 21.2148C19.5929 21.2525 19.616 21.2911 19.6387 21.3301C19.6565 21.3607 19.6738 21.3915 19.6904 21.4229C19.7184 21.4758 19.7441 21.53 19.7686 21.585C19.7776 21.6052 19.7874 21.625 19.7959 21.6455C19.8201 21.7037 19.8413 21.7631 19.8613 21.8232C19.8687 21.8454 19.877 21.8672 19.8838 21.8896C19.8981 21.9368 19.9091 21.985 19.9209 22.0332C19.9305 22.0728 19.9414 22.1121 19.9492 22.1523C19.9577 22.1959 19.9634 22.2399 19.9697 22.2842C19.9752 22.3225 19.9825 22.3606 19.9863 22.3994C19.9951 22.4873 20 22.5768 20 22.667V25.333C20 25.4709 19.986 25.6061 19.9658 25.7383C19.9603 25.7746 19.9562 25.8109 19.9492 25.8467C19.9412 25.8875 19.9307 25.9276 19.9209 25.9678C19.9109 26.0088 19.9006 26.0496 19.8887 26.0898C19.8778 26.1265 19.8649 26.1623 19.8525 26.1982C19.838 26.2407 19.8232 26.2828 19.8066 26.3242C19.7926 26.3591 19.7781 26.3936 19.7627 26.4277C19.7443 26.4685 19.7244 26.5082 19.7041 26.5479C19.6876 26.5799 19.672 26.6123 19.6543 26.6436C19.6328 26.6815 19.6092 26.7181 19.5859 26.7549C19.5654 26.7874 19.5453 26.82 19.5234 26.8516C19.4963 26.8906 19.4676 26.9283 19.4385 26.9658C19.4191 26.9907 19.4001 27.0158 19.3799 27.04C19.2774 27.1628 19.1646 27.2764 19.042 27.3789C19.0196 27.3977 18.9957 27.4146 18.9727 27.4326C18.9337 27.4631 18.8952 27.4942 18.8545 27.5225C18.8222 27.545 18.7882 27.5649 18.7549 27.5859C18.7192 27.6085 18.6833 27.6305 18.6465 27.6514C18.6141 27.6698 18.5811 27.687 18.5479 27.7041C18.5082 27.7244 18.4685 27.7443 18.4277 27.7627C18.3936 27.7781 18.3591 27.7926 18.3242 27.8066C18.2828 27.8232 18.2407 27.838 18.1982 27.8525C18.1623 27.8649 18.1265 27.8778 18.0898 27.8887C18.0496 27.9006 18.0088 27.9109 17.9678 27.9209C17.9276 27.9307 17.8875 27.9412 17.8467 27.9492C17.8109 27.9562 17.7746 27.9603 17.7383 27.9658C17.6061 27.986 17.4709 28 17.333 28H14.667L14.3936 27.9863C14.3488 27.9818 14.3048 27.9726 14.2607 27.9658C14.2245 27.9603 14.1881 27.9562 14.1523 27.9492C14.1115 27.9412 14.0714 27.9307 14.0312 27.9209C13.9902 27.9109 13.9494 27.9006 13.9092 27.8887C13.8725 27.8778 13.8368 27.8649 13.8008 27.8525C13.7584 27.838 13.7162 27.8233 13.6748 27.8066C13.6399 27.7926 13.6054 27.7781 13.5713 27.7627C13.5306 27.7443 13.4908 27.7244 13.4512 27.7041C13.4179 27.687 13.385 27.6698 13.3525 27.6514C13.3158 27.6305 13.2798 27.6085 13.2441 27.5859C13.211 27.565 13.1776 27.5448 13.1455 27.5225C13.1046 27.494 13.0655 27.4633 13.0264 27.4326C13.0035 27.4147 12.9802 27.3975 12.958 27.3789C12.8352 27.2762 12.7217 27.163 12.6191 27.04C12.5991 27.016 12.5808 26.9906 12.5615 26.9658C12.5323 26.9282 12.5028 26.8908 12.4756 26.8516C12.4537 26.82 12.4336 26.7874 12.4131 26.7549C12.3899 26.7182 12.3671 26.6814 12.3457 26.6436C12.3279 26.6121 12.3114 26.5801 12.2949 26.5479C12.2746 26.5083 12.2547 26.4685 12.2363 26.4277C12.2209 26.3936 12.2064 26.3591 12.1924 26.3242C12.1758 26.2828 12.161 26.2407 12.1465 26.1982C12.1341 26.1623 12.1212 26.1265 12.1104 26.0898C12.0985 26.0496 12.0881 26.0088 12.0781 25.9678C12.0683 25.9276 12.0578 25.8875 12.0498 25.8467C12.0428 25.8109 12.0387 25.7745 12.0332 25.7383C12.013 25.6061 12 25.4708 12 25.333V22.667C12 22.5768 12.004 22.4873 12.0127 22.3994C12.0166 22.3606 12.0248 22.3225 12.0303 22.2842C12.0366 22.24 12.0413 22.1958 12.0498 22.1523C12.0577 22.1121 12.0685 22.0728 12.0781 22.0332C12.0873 21.9957 12.0947 21.9578 12.1055 21.9209L12.1201 21.874C12.1254 21.8569 12.132 21.8402 12.1377 21.8232C12.1577 21.7631 12.179 21.7037 12.2031 21.6455C12.2116 21.625 12.2215 21.6052 12.2305 21.585C12.2549 21.53 12.2806 21.4758 12.3086 21.4229C12.3252 21.3913 12.3435 21.3608 12.3613 21.3301C12.384 21.2911 12.4071 21.2525 12.4316 21.2148C12.4525 21.1828 12.4739 21.1512 12.4961 21.1201C12.5233 21.082 12.551 21.0444 12.5801 21.0078C12.6035 20.9783 12.6286 20.9503 12.6533 20.9219C12.6801 20.891 12.7072 20.8606 12.7354 20.8311C12.7647 20.8002 12.7944 20.7697 12.8252 20.7402C12.8547 20.712 12.8852 20.685 12.916 20.6582C12.9474 20.6308 12.9791 20.604 13.0117 20.5781C13.0409 20.555 13.0705 20.5326 13.1006 20.5107C13.1394 20.4825 13.1784 20.4548 13.2188 20.4287C13.2491 20.409 13.2803 20.3905 13.3115 20.3721C13.3489 20.35 13.3863 20.3279 13.4248 20.3076C13.4666 20.2856 13.5096 20.2659 13.5527 20.2461C13.5852 20.2311 13.6172 20.2149 13.6504 20.2012C13.6999 20.1808 13.7508 20.1639 13.8018 20.1465C13.8301 20.1367 13.8579 20.125 13.8867 20.1162C13.923 20.1052 13.9602 20.0974 13.9971 20.0879C14.2113 20.0324 14.4355 20 14.667 20H17.333Z" fill="#FAFAFA"/>
<path d="M28 20C28.232 20 28.4563 20.0322 28.6709 20.0879C28.7059 20.097 28.741 20.1048 28.7754 20.1152C28.8127 20.1266 28.8491 20.1404 28.8857 20.1533C28.9281 20.1683 28.9703 20.1832 29.0117 20.2002C29.0485 20.2153 29.0842 20.2324 29.1201 20.249C29.1609 20.2679 29.2016 20.2867 29.2412 20.3076C29.2797 20.3279 29.3171 20.35 29.3545 20.3721C29.3857 20.3905 29.4169 20.409 29.4473 20.4287C29.4876 20.4548 29.5267 20.4825 29.5654 20.5107C29.5955 20.5326 29.6252 20.555 29.6543 20.5781C29.6869 20.604 29.7186 20.6308 29.75 20.6582C29.7808 20.685 29.8113 20.712 29.8408 20.7402C29.8716 20.7697 29.9013 20.8002 29.9307 20.8311C29.959 20.8608 29.9868 20.8909 30.0137 20.9219C30.0381 20.95 30.0617 20.9787 30.085 21.0078C30.1141 21.0444 30.1417 21.082 30.1689 21.1201C30.1913 21.1514 30.2134 21.1826 30.2344 21.2148C30.2589 21.2525 30.282 21.2911 30.3047 21.3301C30.3226 21.3608 30.3408 21.3913 30.3574 21.4229C30.3802 21.4659 30.4004 21.5103 30.4209 21.5547C30.4365 21.5887 30.4526 21.6225 30.4668 21.6572C30.4842 21.6996 30.4994 21.7427 30.5146 21.7861C30.5279 21.8241 30.5421 21.8617 30.5537 21.9004C30.5649 21.9377 30.5734 21.9757 30.583 22.0137C30.5938 22.0564 30.6056 22.099 30.6143 22.1426C30.6236 22.1892 30.6289 22.2367 30.6357 22.2842C30.6537 22.4093 30.667 22.5369 30.667 22.667V25.333C30.667 25.4596 30.6548 25.5841 30.6377 25.7061C30.6311 25.7533 30.6243 25.8002 30.6152 25.8467C30.6086 25.8805 30.6006 25.9139 30.5928 25.9473C30.5813 25.996 30.5688 26.0442 30.5547 26.0918C30.544 26.1278 30.5316 26.1629 30.5195 26.1982C30.505 26.2407 30.4902 26.2828 30.4736 26.3242C30.4596 26.3591 30.4451 26.3936 30.4297 26.4277C30.4113 26.4685 30.3914 26.5082 30.3711 26.5479C30.3546 26.5801 30.3381 26.6121 30.3203 26.6436C30.2974 26.6841 30.273 26.7235 30.248 26.7627C30.2289 26.7927 30.2097 26.8224 30.1895 26.8516C30.1662 26.8851 30.142 26.9178 30.1172 26.9502C30.0942 26.9803 30.0721 27.011 30.0479 27.04C29.9451 27.1631 29.831 27.2761 29.708 27.3789C29.6809 27.4016 29.652 27.4218 29.624 27.4434C29.5913 27.4686 29.5593 27.4948 29.5254 27.5186C29.4872 27.5453 29.4478 27.57 29.4082 27.5947C29.379 27.613 29.3493 27.6303 29.3193 27.6475C29.2841 27.6676 29.2482 27.6865 29.2119 27.7051C29.1732 27.7249 29.1345 27.7447 29.0947 27.7627C29.0606 27.7781 29.0261 27.7926 28.9912 27.8066C28.9498 27.8233 28.9077 27.838 28.8652 27.8525C28.8295 27.8648 28.7942 27.8779 28.7578 27.8887C28.7163 27.9009 28.6741 27.9106 28.6318 27.9209C28.5923 27.9305 28.5529 27.9414 28.5127 27.9492C28.4782 27.9559 28.4432 27.9604 28.4082 27.9658C28.275 27.9863 28.139 28 28 28H25.333L25.0605 27.9863C25.0158 27.9818 24.9718 27.9726 24.9277 27.9658C24.8915 27.9603 24.8551 27.9562 24.8193 27.9492C24.7791 27.9414 24.7398 27.9305 24.7002 27.9209C24.6582 27.9107 24.6164 27.9009 24.5752 27.8887C24.5366 27.8772 24.4988 27.8637 24.4609 27.8506C24.4225 27.8373 24.3843 27.8236 24.3467 27.8086C24.3078 27.7931 24.2694 27.777 24.2314 27.7598C24.1928 27.7422 24.1548 27.7234 24.1172 27.7041C24.0842 27.6871 24.0517 27.6696 24.0195 27.6514C23.9827 27.6305 23.9468 27.6085 23.9111 27.5859C23.8783 27.5651 23.8454 27.5446 23.8135 27.5225C23.7771 27.4972 23.742 27.4704 23.707 27.4434C23.6775 27.4205 23.6477 27.3981 23.6191 27.374C23.5909 27.3503 23.5643 27.3247 23.5371 27.2998C23.4745 27.2426 23.4143 27.183 23.3574 27.1201C23.3356 27.096 23.3129 27.0727 23.292 27.0479C23.2654 27.0162 23.2409 26.983 23.2158 26.9502C23.1909 26.9177 23.166 26.8852 23.1426 26.8516C23.1223 26.8224 23.1031 26.7927 23.084 26.7627C23.0591 26.7235 23.0346 26.6841 23.0117 26.6436C22.9939 26.6121 22.9775 26.58 22.9609 26.5479C22.9406 26.5083 22.9207 26.4684 22.9023 26.4277C22.887 26.3936 22.8724 26.3591 22.8584 26.3242C22.843 26.2857 22.8291 26.2465 22.8154 26.207C22.8009 26.1651 22.7869 26.1229 22.7744 26.0801C22.7654 26.0491 22.7579 26.0177 22.75 25.9863C22.7383 25.9401 22.726 25.8939 22.7168 25.8467C22.7014 25.7675 22.6889 25.687 22.6807 25.6055L22.667 25.333V22.667C22.667 22.5768 22.6709 22.4873 22.6797 22.3994C22.6836 22.3606 22.6918 22.3225 22.6973 22.2842C22.7036 22.24 22.7083 22.1958 22.7168 22.1523C22.7269 22.1008 22.7409 22.0504 22.7539 22C22.7625 21.9668 22.7685 21.9331 22.7783 21.9004C22.7899 21.8617 22.8041 21.824 22.8174 21.7861C22.8326 21.7427 22.8479 21.6996 22.8652 21.6572C22.8795 21.6225 22.8955 21.5887 22.9111 21.5547C22.9316 21.5101 22.9527 21.466 22.9756 21.4229C22.9922 21.3915 23.0096 21.3607 23.0273 21.3301C23.05 21.2911 23.0731 21.2525 23.0977 21.2148C23.1187 21.1825 23.1417 21.1515 23.1641 21.1201C23.1913 21.082 23.2189 21.0444 23.248 21.0078C23.2711 20.9788 23.2941 20.9499 23.3184 20.9219C23.3452 20.8909 23.3731 20.8608 23.4014 20.8311C23.4307 20.8002 23.4604 20.7697 23.4912 20.7402C23.5209 20.7119 23.552 20.6852 23.583 20.6582C23.6161 20.6293 23.6491 20.6005 23.6836 20.5732C23.7112 20.5515 23.7401 20.5314 23.7686 20.5107C23.8071 20.4827 23.8457 20.4547 23.8857 20.4287C23.9161 20.409 23.9473 20.3905 23.9785 20.3721C24.0159 20.35 24.0533 20.3279 24.0918 20.3076C24.1299 20.2875 24.1689 20.2692 24.208 20.251C24.2455 20.2335 24.2829 20.216 24.3213 20.2002C24.3624 20.1833 24.4042 20.1682 24.4463 20.1533C24.4829 20.1404 24.5193 20.1266 24.5566 20.1152C24.591 20.1048 24.6262 20.097 24.6611 20.0879C24.876 20.0321 25.1007 20 25.333 20H28Z" fill="#FAFAFA"/>
<path d="M17.333 4C17.5642 4 17.788 4.03259 18.002 4.08789C18.0388 4.09742 18.0761 4.10516 18.1123 4.11621C18.1411 4.125 18.1689 4.13675 18.1973 4.14648C18.2482 4.16393 18.2991 4.18078 18.3486 4.20117C18.3818 4.21486 18.4138 4.23112 18.4463 4.24609C18.4894 4.26593 18.5324 4.28558 18.5742 4.30762C18.6127 4.32792 18.6501 4.34996 18.6875 4.37207C18.7187 4.39054 18.7499 4.40902 18.7803 4.42871C18.8206 4.45483 18.8597 4.48254 18.8984 4.51074C18.9286 4.53263 18.9582 4.55502 18.9873 4.57812C19.0199 4.60401 19.0516 4.63085 19.083 4.6582C19.1138 4.68504 19.1443 4.71204 19.1738 4.74023C19.2046 4.76969 19.2343 4.80017 19.2637 4.83105C19.2931 4.86197 19.3217 4.89349 19.3496 4.92578C19.373 4.95289 19.3966 4.97977 19.4189 5.00781C19.4481 5.04438 19.4757 5.08202 19.5029 5.12012C19.5268 5.15348 19.55 5.1872 19.5723 5.22168C19.5954 5.25749 19.6172 5.29409 19.6387 5.33105C19.6563 5.36143 19.674 5.39173 19.6904 5.42285C19.7184 5.47581 19.7441 5.52996 19.7686 5.58496C19.7776 5.60519 19.7874 5.62502 19.7959 5.64551C19.8201 5.70367 19.8413 5.76308 19.8613 5.82324C19.8687 5.84539 19.877 5.86725 19.8838 5.88965C19.8981 5.93681 19.9091 5.98497 19.9209 6.0332C19.9305 6.07276 19.9414 6.11211 19.9492 6.15234C19.9584 6.19908 19.965 6.24637 19.9717 6.29395C19.9766 6.32899 19.9828 6.36395 19.9863 6.39941C19.9951 6.48732 20 6.57677 20 6.66699V9.33301C20 9.47086 19.986 9.60606 19.9658 9.73828C19.9603 9.77456 19.9562 9.8109 19.9492 9.84668C19.9412 9.88754 19.9307 9.9276 19.9209 9.96777C19.9109 10.0088 19.9006 10.0496 19.8887 10.0898C19.8778 10.1265 19.8649 10.1623 19.8525 10.1982C19.838 10.2407 19.8232 10.2828 19.8066 10.3242C19.7926 10.3591 19.7781 10.3936 19.7627 10.4277C19.7443 10.4685 19.7244 10.5082 19.7041 10.5479C19.687 10.5811 19.6698 10.6141 19.6514 10.6465C19.6305 10.6833 19.6085 10.7192 19.5859 10.7549C19.5654 10.7874 19.5453 10.82 19.5234 10.8516C19.4946 10.8931 19.4637 10.9329 19.4326 10.9727C19.415 10.9952 19.3982 11.0181 19.3799 11.04C19.277 11.1633 19.1633 11.277 19.04 11.3799C19.0181 11.3982 18.9952 11.415 18.9727 11.4326C18.9329 11.4637 18.8931 11.4946 18.8516 11.5234C18.82 11.5453 18.7874 11.5654 18.7549 11.5859C18.7192 11.6085 18.6833 11.6305 18.6465 11.6514C18.6141 11.6698 18.5811 11.687 18.5479 11.7041C18.5082 11.7244 18.4685 11.7443 18.4277 11.7627C18.3936 11.7781 18.3591 11.7926 18.3242 11.8066C18.2828 11.8232 18.2407 11.838 18.1982 11.8525C18.1623 11.8649 18.1265 11.8778 18.0898 11.8887C18.0496 11.9006 18.0088 11.9109 17.9678 11.9209C17.9276 11.9307 17.8875 11.9412 17.8467 11.9492C17.8109 11.9562 17.7746 11.9603 17.7383 11.9658C17.6061 11.986 17.4709 12 17.333 12H17V13.667H25.8057C26.1751 13.6671 26.5601 13.7638 26.8896 13.9736L27.0264 14.0713L27.1592 14.1836C27.4553 14.4642 27.6669 14.8636 27.667 15.333V17.333C27.667 17.8852 27.2191 18.3328 26.667 18.333C26.1147 18.333 25.667 17.8853 25.667 17.333V15.667H17V17.333C17 17.8853 16.5523 18.333 16 18.333C15.4477 18.333 15 17.8853 15 17.333V15.667H6.33301V17.333L6.32812 17.4365C6.27648 17.9403 5.85045 18.333 5.33301 18.333C4.81572 18.3328 4.39052 17.9402 4.33887 17.4365L4.33301 17.333V15.333L4.34668 15.1367C4.40462 14.6882 4.65579 14.3173 4.97363 14.0713L5.11035 13.9736C5.43992 13.7638 5.82487 13.6671 6.19434 13.667H15V12H14.667C14.5288 12 14.3933 11.9861 14.2607 11.9658C14.2245 11.9603 14.1881 11.9562 14.1523 11.9492C14.1115 11.9412 14.0714 11.9307 14.0312 11.9209C13.9902 11.9109 13.9494 11.9006 13.9092 11.8887C13.8725 11.8778 13.8368 11.8649 13.8008 11.8525C13.7584 11.838 13.7162 11.8233 13.6748 11.8066C13.6399 11.7926 13.6054 11.7781 13.5713 11.7627C13.5306 11.7443 13.4908 11.7244 13.4512 11.7041C13.4179 11.687 13.385 11.6698 13.3525 11.6514C13.3158 11.6305 13.2798 11.6085 13.2441 11.5859C13.2117 11.5654 13.179 11.5453 13.1475 11.5234C13.106 11.4946 13.0661 11.4637 13.0264 11.4326C13.0039 11.415 12.9809 11.3982 12.959 11.3799C12.8358 11.277 12.722 11.1633 12.6191 11.04C12.6009 11.0181 12.584 10.9951 12.5664 10.9727C12.5353 10.9329 12.5044 10.8931 12.4756 10.8516C12.4537 10.82 12.4336 10.7874 12.4131 10.7549C12.3905 10.7192 12.3685 10.6833 12.3477 10.6465C12.3293 10.6141 12.312 10.5811 12.2949 10.5479C12.2746 10.5083 12.2547 10.4685 12.2363 10.4277C12.2209 10.3936 12.2064 10.3591 12.1924 10.3242C12.1758 10.2828 12.161 10.2407 12.1465 10.1982C12.1341 10.1623 12.1212 10.1265 12.1104 10.0898C12.0985 10.0496 12.0881 10.0088 12.0781 9.96777C12.0683 9.92762 12.0578 9.88753 12.0498 9.84668C12.0428 9.81091 12.0387 9.77455 12.0332 9.73828C12.013 9.60611 12 9.47081 12 9.33301V6.66699C12 6.57681 12.004 6.48729 12.0127 6.39941C12.0162 6.36392 12.0234 6.32902 12.0283 6.29395C12.035 6.24643 12.0407 6.19902 12.0498 6.15234C12.0577 6.11213 12.0685 6.07275 12.0781 6.0332C12.0873 5.99566 12.0947 5.9578 12.1055 5.9209L12.1201 5.87402C12.1254 5.8569 12.132 5.84022 12.1377 5.82324C12.1577 5.7631 12.179 5.70365 12.2031 5.64551C12.2116 5.62503 12.2215 5.60518 12.2305 5.58496C12.2549 5.52998 12.2806 5.4758 12.3086 5.42285C12.325 5.39174 12.3427 5.36142 12.3604 5.33105C12.3818 5.2941 12.4036 5.25748 12.4268 5.22168C12.449 5.1872 12.4723 5.15348 12.4961 5.12012C12.5233 5.08203 12.551 5.04437 12.5801 5.00781C12.6024 4.97977 12.626 4.95288 12.6494 4.92578C12.6773 4.89349 12.7059 4.86196 12.7354 4.83105C12.7647 4.80017 12.7944 4.76969 12.8252 4.74023C12.8547 4.71203 12.8852 4.68504 12.916 4.6582C12.9474 4.63084 12.9791 4.60401 13.0117 4.57812C13.0409 4.55502 13.0705 4.53264 13.1006 4.51074C13.1394 4.48253 13.1784 4.45484 13.2188 4.42871C13.2491 4.40902 13.2803 4.39055 13.3115 4.37207C13.3489 4.34996 13.3863 4.32793 13.4248 4.30762C13.4666 4.28557 13.5096 4.26594 13.5527 4.24609C13.5852 4.23111 13.6172 4.21487 13.6504 4.20117C13.6999 4.18076 13.7508 4.16395 13.8018 4.14648C13.8301 4.13674 13.8579 4.12501 13.8867 4.11621C13.923 4.10515 13.9602 4.09743 13.9971 4.08789C14.2113 4.03243 14.4355 4 14.667 4H17.333Z" fill="#FAFAFA"/>
</svg>
