<svg width="32" height="32" viewBox="0 0 32 32" fill="none" xmlns="http://www.w3.org/2000/svg">
<path d="M17.7818 4.31141C19.2074 4.32844 20.6226 4.60596 21.9563 5.13563C22.0079 5.15609 22.0587 5.17825 22.1099 5.19943C22.1981 5.23592 22.2868 5.2714 22.3743 5.31011C22.42 5.33037 22.4655 5.35308 22.511 5.37391C23.0915 5.63973 23.6492 5.95288 24.179 6.31011C24.215 6.33443 24.2513 6.35831 24.287 6.38302C24.8642 6.78163 25.4075 7.2327 25.9081 7.73328C27.5428 9.36805 28.6563 11.4515 29.1073 13.719C29.3725 15.0521 29.3993 16.4136 29.1985 17.7437C29.1502 18.0634 29.0893 18.3804 29.0149 18.6942C28.8716 19.2987 28.6818 19.894 28.442 20.4729C28.3717 20.6426 28.296 20.8097 28.218 20.9755C27.9313 21.5848 27.5921 22.1711 27.2011 22.7268C26.2843 24.0295 25.1153 25.1244 23.7714 25.952C23.4611 26.1431 23.1421 26.3175 22.817 26.4781C22.7575 26.5075 22.6986 26.5382 22.6386 26.5666C22.1195 26.8121 21.5838 27.0188 21.0357 27.1851C20.7084 27.2844 20.377 27.3664 20.0435 27.4364C19.903 27.4659 19.7621 27.4941 19.6204 27.5184C19.4292 27.5513 19.2373 27.5785 19.0448 27.6018C18.8657 27.6234 18.6861 27.6431 18.5058 27.6565C18.2195 27.6777 17.9324 27.6876 17.6451 27.6877L17.6425 27.689L17.6386 27.6877C16.7836 27.6874 15.9267 27.5941 15.0839 27.4052C12.8283 26.8994 10.7736 25.7362 9.17896 24.0627C8.79819 23.6629 8.81326 23.0309 9.21281 22.65C9.61267 22.2691 10.2459 22.284 10.6269 22.6838C11.9486 24.0708 13.6519 25.0354 15.5214 25.4546C16.2219 25.6117 16.9344 25.688 17.6451 25.6877C17.9824 25.6876 18.3182 25.6693 18.6516 25.6343C19.1692 25.5801 19.6824 25.4839 20.1868 25.3466C20.3909 25.291 20.5935 25.2305 20.7935 25.1617L21.1321 25.038C21.464 24.9098 21.7871 24.7632 22.1008 24.6005C22.2442 24.5262 22.3855 24.4477 22.5253 24.3661C23.7217 23.6675 24.7601 22.7185 25.5644 21.5757C26.6671 20.0088 27.2809 18.1501 27.3274 16.2346C27.3304 16.1095 27.3305 15.9844 27.3287 15.8596C27.3284 15.8405 27.3278 15.8214 27.3274 15.8023C27.297 14.3157 26.9254 12.8576 26.2428 11.5406C26.133 11.3288 26.0151 11.1214 25.8899 10.9182C25.8682 10.883 25.8469 10.8476 25.8248 10.8127C25.4129 10.1629 24.9265 9.56897 24.3795 9.03927C24.0579 8.72802 23.7175 8.43949 23.3586 8.1773C23.2606 8.10561 23.1612 8.03567 23.0605 7.96766C21.9985 7.25132 20.7999 6.74857 19.5318 6.49631C19.4527 6.48056 19.3729 6.46708 19.2935 6.45334C19.2289 6.44215 19.1644 6.43065 19.0995 6.42079C18.6537 6.35291 18.2052 6.31549 17.7571 6.31011C17.5116 6.30717 17.2658 6.31386 17.0201 6.32964C16.7214 6.3488 16.4239 6.38317 16.1282 6.4299C16.0793 6.43763 16.0299 6.44485 15.981 6.45334C15.747 6.49405 15.5151 6.54298 15.2857 6.60047C15.2744 6.60331 15.2632 6.60671 15.2519 6.60959C14.4528 6.81299 13.685 7.11629 12.9667 7.51193C12.8407 7.58136 12.7169 7.65454 12.5943 7.72938C12.4617 7.81032 12.3311 7.89465 12.2024 7.98198C11.915 8.17701 11.6389 8.38768 11.3743 8.61219C11.2324 8.7325 11.0928 8.85581 10.9576 8.98459L10.9211 9.01714C10.4218 9.49777 9.97411 10.0341 9.58521 10.6161C8.84855 11.7186 8.34876 12.9553 8.11125 14.2476L9.53703 12.8231C9.92757 12.4328 10.5606 12.4327 10.9511 12.8231C11.2361 13.1082 11.3101 13.5217 11.179 13.8765C11.1306 14.0086 11.0558 14.1338 10.9498 14.2398L7.66203 17.5263C7.62162 17.5667 7.57689 17.601 7.53183 17.633C7.36805 17.7502 7.16914 17.8218 6.9524 17.8218C6.719 17.8218 6.50666 17.7384 6.33651 17.6044C6.3259 17.596 6.31561 17.5872 6.30526 17.5783C6.27573 17.5531 6.24703 17.5274 6.22063 17.4989L2.95891 14.2372C2.56838 13.8467 2.56838 13.2137 2.95891 12.8231C3.34945 12.4328 3.98251 12.4327 4.37297 12.8231L6.05005 14.5002C6.2804 12.7199 6.91772 11.0091 7.92245 9.50542C8.18779 9.10832 8.47624 8.72929 8.78573 8.37C8.83548 8.27358 8.89937 8.18213 8.98235 8.10308L9.5774 7.53667C9.83895 7.28747 10.112 7.05235 10.3938 6.82964C11.0879 6.28087 11.8443 5.81058 12.6503 5.4299C12.8672 5.32748 13.0875 5.23239 13.3105 5.14344C13.4889 5.07227 13.6684 5.00502 13.8495 4.94292C14.0248 4.88281 14.2012 4.82545 14.3795 4.77365C14.7605 4.66298 15.1467 4.57398 15.5357 4.50282C15.5701 4.49653 15.6042 4.48927 15.6386 4.48329L15.6464 4.48198C16.3512 4.36005 17.066 4.30269 17.7818 4.31141Z" fill="#FAFAFA"/>
<path fill-rule="evenodd" clip-rule="evenodd" d="M17.6386 8.32573C21.877 8.32584 25.3131 11.7644 25.3131 16.0028C25.3121 20.2404 21.8764 23.6772 17.6386 23.6773C14.0309 23.6773 11.0063 21.1857 10.1855 17.8309L12.3639 15.6539C13.5351 14.4826 13.5345 12.5833 12.3639 11.4117C12.1994 11.2472 12.0178 11.1081 11.8287 10.9898C13.236 9.36003 15.3163 8.32573 17.6386 8.32573ZM17.6425 10.3414C17.0902 10.3414 16.6425 10.7904 16.6425 11.3427V16.0015C16.6431 16.5533 17.0906 17.0002 17.6425 17.0002C17.6455 17.0002 17.6486 16.9989 17.6516 16.9989C17.6546 16.999 17.6578 17.0002 17.6607 17.0002H22.3196C22.8714 17.0001 23.319 16.5532 23.3196 16.0015C23.3196 15.4493 22.8718 15.0003 22.3196 15.0002H18.6425V11.3414C18.6422 10.7894 18.1945 10.3415 17.6425 10.3414Z" fill="#FAFAFA"/>
</svg>
