<svg width="32" height="32" viewBox="0 0 32 32" fill="none" xmlns="http://www.w3.org/2000/svg">
<path d="M18.5 4.5C19.0523 4.5 19.5 4.05228 19.5 3.5C19.5 2.94771 19.0523 2.5 18.5 2.5H13.5C12.9477 2.5 12.5 2.94771 12.5 3.5C12.5 4.05228 12.9477 4.5 13.5 4.5H18.5ZM4.75 17C5.30228 17 5.75 16.5523 5.75 16C5.75 15.4477 5.30228 15 4.75 15H3.5C2.94772 15 2.5 15.4477 2.5 16C2.5 16.5523 2.94772 17 3.5 17H4.75ZM28.5 17C29.0523 17 29.5 16.5523 29.5 16C29.5 15.4477 29.0523 15 28.5 15H27.25C26.6977 15 26.25 15.4477 26.25 16C26.25 16.5523 26.6977 17 27.25 17H28.5ZM5.91797 26.082C6.28411 26.4482 6.86374 26.4715 7.25651 26.151L7.33203 26.082L8.58203 24.832L8.65104 24.7565C8.97145 24.3637 8.94817 23.7841 8.58203 23.418C8.21589 23.0518 7.63626 23.0285 7.24349 23.349L7.16797 23.418L5.91797 24.668L5.84896 24.7435C5.52855 25.1363 5.55183 25.7159 5.91797 26.082ZM24.7435 26.151C25.1363 26.4715 25.7159 26.4482 26.082 26.082C26.4726 25.6915 26.4726 25.0585 26.082 24.668L24.832 23.418C24.4415 23.0274 23.8085 23.0274 23.418 23.418C23.0274 23.8085 23.0274 24.4415 23.418 24.832L24.668 26.082L24.7435 26.151ZM15 27.25V28.5C15 29.0523 15.4477 29.5 16 29.5C16.5523 29.5 17 29.0523 17 28.5V27.25C17 26.6977 16.5523 26.25 16 26.25C15.4477 26.25 15 26.6977 15 27.25ZM23.2305 15.4727C23.1413 14.2473 22.7423 13.0615 22.0664 12.0286C21.4166 11.0358 20.533 10.2236 19.5 9.65364V7.25C19.5 6.69771 19.0523 6.25 18.5 6.25H13.5C12.9477 6.25 12.5 6.69771 12.5 7.25V9.65364C11.557 10.1739 10.7373 10.896 10.1068 11.776C9.34561 12.8385 8.88587 14.087 8.77604 15.3893C8.66627 16.6916 8.91057 17.9996 9.48307 19.1745C10.0556 20.3492 10.9354 21.3479 12.0286 22.0638C13.1219 22.7796 14.3884 23.187 15.694 23.2422C16.9999 23.2973 18.2967 22.9976 19.4466 22.3763C20.5963 21.755 21.5571 20.8346 22.2266 19.7122C22.8961 18.5898 23.2496 17.3069 23.25 16L23.2305 15.4727Z" fill="#FAFAFA"/>
</svg>
