<svg width="32" height="32" viewBox="0 0 32 32" fill="none" xmlns="http://www.w3.org/2000/svg">
<path d="M19.9095 12.9572C20.5331 12.9572 21.0644 13.0707 21.5033 13.297C21.9422 13.5234 22.2774 13.8606 22.5085 14.3088C22.7441 14.7522 22.8626 15.3045 22.8626 15.965C22.8626 16.6582 22.753 17.2341 22.5358 17.6916C22.3186 18.1443 21.9904 18.4847 21.5514 18.7111C21.1172 18.9326 20.5698 19.0431 19.9095 19.0431H18.5918V12.9572H19.9095Z" fill="#FAFAFA"/>
<path fill-rule="evenodd" clip-rule="evenodd" d="M25.666 5.3335C27.6911 5.3335 29.3327 6.97512 29.3327 9.00016V23.0002C29.3327 25.0252 27.6911 26.6668 25.666 26.6668H6.33268C4.30764 26.6668 2.66602 25.0252 2.66602 23.0002V9.00016C2.66602 6.97512 4.30764 5.3335 6.33268 5.3335H25.666ZM7.13346 11.3361V20.6655H9.08138V16.7007H13.3092V20.6655H15.2572V11.3361H13.3092V14.9819H9.08138V11.3361H7.13346ZM16.6452 11.3361V20.6655H20.1165C21.1054 20.6655 21.9538 20.4843 22.6608 20.1239C23.3723 19.7588 23.9173 19.2278 24.2962 18.5301C24.6751 17.8323 24.8652 16.9821 24.8652 15.9793C24.8652 15.0092 24.6782 14.1776 24.304 13.4845C23.9297 12.7914 23.3868 12.2592 22.6751 11.8895C21.9681 11.5198 21.1147 11.3361 20.1165 11.3361H16.6452Z" fill="#FAFAFA"/>
</svg>
