<svg width="32" height="32" viewBox="0 0 32 32" fill="none" xmlns="http://www.w3.org/2000/svg">
<path d="M3.50846 20.6835L18.5521 22.2793C18.8064 22.3063 18.9993 22.5208 18.9993 22.7765V29.5129C18.9993 29.8308 18.7065 30.068 18.3955 30.002L2.98633 26.7317C2.21666 26.5682 1.66626 25.8883 1.66602 25.1015V22.3411C1.66607 21.3511 2.52402 20.5791 3.50846 20.6835Z" fill="#FAFAFA"/>
<path d="M28.3405 20.7773C29.3714 20.5721 30.3326 21.3616 30.3327 22.4127V25.1887C30.3327 25.8712 29.916 26.4845 29.2819 26.7369L21.6843 29.7611C21.3559 29.8918 20.9993 29.65 20.9993 29.2966V22.6485C20.9993 22.41 21.1678 22.2047 21.4018 22.1581L28.3405 20.7773Z" fill="#FAFAFA"/>
<path d="M18.9993 20.0691C18.9993 20.3661 18.7419 20.5976 18.4466 20.5663L3.1569 18.9439C2.30946 18.854 1.66626 18.1398 1.66602 17.2877V14.7122C1.66605 13.8598 2.30931 13.1446 3.1569 13.0546L18.4466 11.431C18.7419 11.3997 18.9993 11.6312 18.9993 11.9282V20.0691Z" fill="#FAFAFA"/>
<path d="M28.9915 13.0247C29.7712 13.1799 30.3327 13.8651 30.3327 14.6601V17.3398C30.3327 18.1347 29.7711 18.8186 28.9915 18.9739L21.597 20.446C21.2877 20.5076 20.9993 20.271 20.9993 19.9557V12.0429C20.9993 11.7275 21.2877 11.4909 21.597 11.5525L28.9915 13.0247Z" fill="#FAFAFA"/>
<path d="M18.9993 9.22206C18.9993 9.47777 18.8064 9.69228 18.5521 9.71927L3.50846 11.3163C2.52399 11.4207 1.66604 10.6488 1.66602 9.65877V6.89836C1.66629 6.11157 2.21667 5.43162 2.98633 5.26815L18.3955 1.99661C18.7065 1.93058 18.9993 2.16777 18.9993 2.48571V9.22206Z" fill="#FAFAFA"/>
<path d="M29.2819 5.26294C29.916 5.51536 30.3327 6.12862 30.3327 6.81112V9.58716C30.3327 10.6383 29.3714 11.4278 28.3405 11.2226L21.4017 9.84047C21.1678 9.79388 20.9993 9.58859 20.9993 9.35011V2.70205C20.9993 2.34865 21.356 2.10678 21.6843 2.23753L29.2819 5.26294Z" fill="#FAFAFA"/>
</svg>
