<svg width="32" height="32" viewBox="0 0 32 32" fill="none" xmlns="http://www.w3.org/2000/svg">
<path d="M13.7139 5.04395C13.9886 5.07114 14.2587 5.13996 14.5146 5.24609C14.8554 5.38749 15.165 5.59455 15.4258 5.85547L17.9883 8.41797L18.1123 8.51953C18.2446 8.60764 18.4017 8.65604 18.5635 8.65625H25.0625C26.0488 8.65625 26.994 9.04869 27.6914 9.74609C28.3888 10.4435 28.7812 11.3887 28.7812 12.375V23.25C28.7812 24.2363 28.3888 25.1815 27.6914 25.8789C26.994 26.5763 26.0488 26.9688 25.0625 26.9688H6.9375C5.95123 26.9688 5.006 26.5763 4.30859 25.8789C3.61119 25.1815 3.21875 24.2363 3.21875 23.25V8.75C3.21875 7.76373 3.61119 6.81849 4.30859 6.12109C5.00599 5.42369 5.95123 5.03125 6.9375 5.03125H13.4375L13.7139 5.04395ZM6.9375 7.03125C6.48166 7.03125 6.04498 7.21283 5.72266 7.53516C5.40033 7.85748 5.21875 8.29416 5.21875 8.75V12.7031C5.74475 12.4289 6.33337 12.2812 6.9375 12.2812H25.0625C25.6666 12.2812 26.2553 12.4289 26.7812 12.7031V12.375C26.7812 11.9192 26.5997 11.4825 26.2773 11.1602C25.955 10.8378 25.5183 10.6562 25.0625 10.6562H18.5625C17.8179 10.6556 17.1016 10.3596 16.5742 9.83203L14.0117 7.26953C13.9363 7.194 13.8457 7.13464 13.7471 7.09375C13.6978 7.07336 13.6468 7.05721 13.5947 7.04688L13.4375 7.03125H6.9375Z" fill="#FAFAFA"/>
</svg>
