<svg width="32" height="32" viewBox="0 0 32 32" fill="none" xmlns="http://www.w3.org/2000/svg">
<path d="M11.3553 26.1598H12.9309C13.4829 26.1601 13.9309 26.6077 13.9309 27.1598C13.9301 27.7114 13.4825 28.1596 12.9309 28.1598H7.78111C7.22967 28.1593 6.78182 27.7112 6.78111 27.1598C6.78111 26.6078 7.22924 26.1603 7.78111 26.1598H9.35533V17.859H11.3553V26.1598Z" fill="#FAFAFA"/>
<path d="M24.9478 3.84082C25.5001 3.84082 25.9478 4.28984 25.9478 4.84212C25.9474 5.39411 25.4998 5.84212 24.9478 5.84212H23.3736V17.6689C25.8178 18.1366 27.6652 20.2863 27.6652 22.8669V27.1585C27.6649 27.7104 27.2171 28.1584 26.6652 28.1585C26.1133 28.1584 25.6656 27.7104 25.6652 27.1585V22.8669C25.6652 21.3976 24.7025 20.1522 23.3736 19.7288V27.1598C23.3729 27.7115 22.9253 28.1597 22.3736 28.1598C21.8217 28.1598 21.3742 27.7116 21.3736 27.1598V19.7288C20.0444 20.152 19.0819 21.3975 19.0819 22.8669V27.1585C19.0815 27.7104 18.6338 28.1584 18.0819 28.1585C17.5298 28.1585 17.0822 27.7105 17.0819 27.1585V22.8669C17.0819 20.2861 18.9291 18.1364 21.3736 17.6689V5.84212H19.798C19.2461 5.84194 18.7984 5.394 18.798 4.84212C18.798 4.28995 19.2459 3.841 19.798 3.84082H24.9478Z" fill="#FAFAFA"/>
<path d="M10.3566 3.84082C12.3273 3.84082 14.06 5.14908 14.6014 7.04395L16.0767 12.208C16.8852 15.0398 14.7588 17.859 11.8137 17.859H11.3553V13.4255C11.3553 12.8732 10.9076 12.4255 10.3553 12.4255C9.80353 12.426 9.35533 12.8735 9.35533 13.4255V17.859H8.8996C5.95501 17.8583 3.8295 15.0395 4.63788 12.208L6.11314 7.04395C6.65445 5.14931 8.38626 3.84116 10.3566 3.84082Z" fill="#FAFAFA"/>
</svg>
