<svg width="32" height="32" viewBox="0 0 32 32" fill="none" xmlns="http://www.w3.org/2000/svg">
<path fill-rule="evenodd" clip-rule="evenodd" d="M19.9993 4.90137C20.5516 4.90137 20.9993 5.34908 20.9993 5.90137C20.999 6.45335 20.5514 6.90137 19.9993 6.90137H16.9993V10.6722H22.6673C26.3485 10.6722 29.3327 13.6564 29.3327 17.3376C29.3327 20.5776 27.0205 23.276 23.9564 23.8766V26.0993C23.9564 26.6514 23.5084 27.0989 22.9564 27.0993C22.4041 27.0993 21.9564 26.6516 21.9564 26.0993V24.0029H10.0423V26.0993C10.0423 26.6516 9.5946 27.0993 9.04232 27.0993C8.49003 27.0993 8.04232 26.6516 8.04232 26.0993V23.8766C4.97819 23.276 2.66602 20.5776 2.66602 17.3376C2.66602 13.6564 5.6502 10.6722 9.33138 10.6722H14.9993V6.90137H11.9993C11.4473 6.90137 10.9997 6.45335 10.9993 5.90137C10.9993 5.34908 11.4471 4.90137 11.9993 4.90137H19.9993ZM19.3301 15.0055C18.7779 15.0057 18.3301 15.4534 18.3301 16.0055C18.3304 16.5575 18.7781 17.0054 19.3301 17.0055H19.5358C19.024 17.4154 18.4787 17.6794 18.0202 17.6696C18.0058 17.6693 17.9903 17.6693 17.9759 17.6696C17.2758 17.6845 16.5422 17.3282 16.1556 16.7686C15.3687 15.63 14.0003 14.9922 12.6882 15.0068L12.6895 15.0055C12.6822 15.0054 12.6746 15.007 12.6673 15.0068C12.6605 15.0069 12.6533 15.0067 12.6465 15.0068C11.4177 14.9938 10.1397 15.5522 9.33659 16.5589L9.18034 16.7686C8.86661 17.2228 8.98031 17.8465 9.43424 18.1605C9.86014 18.4547 10.4349 18.3728 10.7637 17.9873L10.8262 17.9053C11.2129 17.3457 11.9465 16.9891 12.6465 17.0042C12.6607 17.0045 12.6752 17.0045 12.6895 17.0042C13.3894 16.989 14.1229 17.3459 14.5098 17.9053C15.2961 19.0435 16.6642 19.6834 17.9759 19.6696C17.9804 19.6697 17.9857 19.6683 17.9902 19.6683C18 19.6682 18.0104 19.6698 18.0202 19.6696L18.0189 19.6683C19.2144 19.6784 20.2691 19.0195 20.9954 18.3896V18.6709C20.996 19.2226 21.4436 19.6707 21.9954 19.6709C22.5472 19.6707 22.9949 19.2226 22.9954 18.6709V16.0055C22.9954 15.9014 22.9755 15.8018 22.946 15.7074C22.9369 15.6783 22.9304 15.6484 22.9186 15.6201C22.9089 15.5969 22.8948 15.576 22.8835 15.5537C22.8369 15.462 22.7791 15.3738 22.7025 15.2972C22.6254 15.2203 22.5369 15.1628 22.4447 15.1162C22.422 15.1047 22.4006 15.0908 22.377 15.0811C22.3367 15.0645 22.295 15.0531 22.2533 15.042C22.2332 15.0366 22.2139 15.0279 22.1934 15.0238C22.1835 15.0218 22.1733 15.0215 22.1634 15.0199C22.1089 15.0106 22.0526 15.0043 21.9954 15.0042L19.3301 15.0055Z" fill="#FAFAFA"/>
</svg>
