<svg width="32" height="32" viewBox="0 0 32 32" fill="none" xmlns="http://www.w3.org/2000/svg">
<path d="M17.1921 16.7635V28.1073C17.1921 28.1263 17.1936 28.1458 17.1947 28.1646L7.32357 22.645C7.04415 22.4885 6.87049 22.1932 6.87044 21.8729V18.4106C7.11406 18.4758 7.377 18.4492 7.60482 18.326L13.9056 14.9146L17.1921 16.7635ZM29.3327 21.0122L27.2103 19.8377C26.7271 19.5703 26.1184 19.7452 25.8509 20.2284C25.5835 20.7115 25.7584 21.3203 26.2415 21.5877L28.515 22.8455L19.1921 28.0044V17.8013L20.3496 18.3846C20.8429 18.6329 21.4451 18.4339 21.6934 17.9406C21.941 17.4475 21.7421 16.8464 21.2493 16.5981L20.3275 16.1346L29.3327 11.1216V21.0122ZM23.6191 17.9106C23.1258 17.6626 22.5249 17.8614 22.2767 18.3547C22.0287 18.8479 22.2275 19.4489 22.7207 19.6971L23.9056 20.2935C24.3989 20.5417 24.9998 20.3427 25.248 19.8494C25.4962 19.3562 25.2973 18.7552 24.804 18.507L23.6191 17.9106ZM11.8457 13.7557L8.16992 15.744V11.6867L11.8457 13.7557ZM6.16992 10.589V15.7101L3.66602 14.2192V9.22835L6.16992 10.589ZM17.1921 6.04085C17.1923 6.5929 17.6399 7.04085 18.1921 7.04085C18.7441 7.04077 19.1918 6.59285 19.1921 6.04085V4.56429L28.1217 9.5057L19.1921 14.4771V14.3898C19.1918 13.8377 18.7442 13.3898 18.1921 13.3898C17.6399 13.3898 17.1923 13.8377 17.1921 14.3898V14.4679L14.959 13.2114V6.22835C14.959 6.04975 14.9094 5.87878 14.8236 5.72966L17.1921 4.40674V6.04085ZM18.1921 8.02262C17.6398 8.02262 17.1921 8.47034 17.1921 9.02262V11.408C17.1922 11.9602 17.6398 12.408 18.1921 12.408C18.7443 12.408 19.192 11.9602 19.1921 11.408V9.02262C19.1921 8.47034 18.7443 8.02262 18.1921 8.02262ZM12.959 12.0864L9.3431 10.0526C9.30301 10.0221 9.2611 9.99273 9.21549 9.96794L9.19857 9.95882L12.8066 7.87679C12.8619 7.84484 12.9123 7.80761 12.959 7.76742V12.0864ZM11.6921 6.21012L7.13867 8.83903L4.7181 7.52393L9.19987 4.96273L11.6921 6.21012Z" fill="#FAFAFA"/>
</svg>
