<svg width="32" height="32" viewBox="0 0 32 32" fill="none" xmlns="http://www.w3.org/2000/svg">
<path d="M10.4673 23.5861C11.6011 23.5929 12.9252 24.0947 14.1978 24.6082C14.4146 24.6957 14.634 24.7852 14.854 24.8751C15.9955 25.3418 17.1833 25.8272 18.4295 26.1798C19.9057 26.5975 21.3911 26.805 22.8475 26.5692C24.2854 26.3361 25.7572 25.6617 27.2069 24.2111C27.5711 23.8467 28.1613 23.846 28.5259 24.2098C28.8904 24.5741 28.8913 25.1654 28.5272 25.5301C26.8125 27.2459 24.9875 28.1132 23.1457 28.4116C21.3224 28.7069 19.5439 28.4357 17.9217 27.9767C16.5651 27.5927 15.2652 27.0604 14.1249 26.5939C13.9109 26.5064 13.7019 26.4214 13.4999 26.34C12.1519 25.796 11.168 25.4562 10.4556 25.452C8.35559 25.4396 6.32401 26.2026 4.74986 27.5939C4.36363 27.9347 3.77467 27.8979 3.43345 27.5119C3.09209 27.1256 3.12795 26.5356 3.51418 26.1942C5.43232 24.4991 7.90801 23.5709 10.4673 23.5861Z" fill="#FAFAFA"/>
<path d="M10.4647 19.0991C11.6607 19.0999 13.0107 19.5941 14.3058 20.1108C14.5732 20.2175 14.8418 20.3278 15.1118 20.4376C16.2158 20.8867 17.3476 21.3468 18.5311 21.6863C19.9911 22.1052 21.4496 22.3129 22.8827 22.0796C24.2975 21.849 25.7546 21.1772 27.2069 19.7241C27.5712 19.3598 28.1614 19.3601 28.5259 19.7241C28.8905 20.0885 28.8916 20.6798 28.5272 21.0444C26.8149 22.7578 25.0073 23.6247 23.1835 23.922C21.378 24.2163 19.6224 23.9413 18.0168 23.4806C16.7269 23.1106 15.4797 22.6032 14.3696 22.1512C14.1101 22.0455 13.8579 21.9423 13.6144 21.8452C12.2657 21.3071 11.2431 20.9665 10.4621 20.9663H10.4556C8.35559 20.9539 6.32401 21.7157 4.74986 23.1069C4.36377 23.448 3.7748 23.4119 3.43345 23.0262C3.09211 22.64 3.12801 22.0498 3.51418 21.7085C5.4317 20.0138 7.90623 19.0845 10.4647 19.0991Z" fill="#FAFAFA"/>
<path d="M27.2069 15.2384C27.5713 14.8739 28.1626 14.8741 28.5272 15.2384C28.8912 15.6027 28.8911 16.193 28.5272 16.5574C25.53 19.5567 22.3124 19.902 19.371 19.3244C18.8651 19.2251 18.536 18.7338 18.6353 18.228C18.7347 17.7224 19.2246 17.3931 19.7303 17.4923C22.2039 17.9781 24.7427 17.7041 27.2069 15.2384Z" fill="#FAFAFA"/>
<path d="M17.3228 3.70718C17.5499 3.47417 17.8963 3.40226 18.1978 3.52488C18.499 3.64758 18.6965 3.94046 18.6965 4.26577V9.67593H20.9881C21.2464 9.67645 21.4994 9.75392 21.7134 9.89858C21.9271 10.0432 22.0931 10.248 22.19 10.4871L22.1913 10.491C22.2863 10.7291 22.3103 10.9897 22.2603 11.241C22.2108 11.4882 22.0909 11.7167 21.9165 11.8986L15.367 18.9754C15.1435 19.2167 14.7945 19.2973 14.4881 19.1772C14.1821 19.0572 13.9805 18.7613 13.9803 18.4324V13.0835H11.2772C11.0189 13.0829 10.7659 13.0055 10.5519 12.8608C10.3916 12.7523 10.2587 12.6096 10.1613 12.4442L10.0741 12.2697C9.9788 12.0313 9.95609 11.7701 10.0064 11.5184C10.0566 11.267 10.1787 11.035 10.3579 10.8517L17.3228 3.70718Z" fill="#FAFAFA"/>
<path d="M10.4673 14.6134C10.9826 14.6167 11.3974 15.0368 11.3944 15.5522C11.3913 16.0676 10.971 16.4836 10.4556 16.4806C8.35558 16.4682 6.32401 17.23 4.74986 18.6212C4.36361 18.9622 3.77471 18.9253 3.43345 18.5392C3.09224 18.153 3.12818 17.5641 3.51418 17.2228C5.43236 15.5275 7.90788 14.5983 10.4673 14.6134Z" fill="#FAFAFA"/>
</svg>
