<svg width="32" height="32" viewBox="0 0 32 32" fill="none" xmlns="http://www.w3.org/2000/svg">
<path d="M30 12.9826C29.9989 12.4887 29.8493 12.0072 29.5715 11.604C29.2938 11.2008 28.9015 10.8956 28.4483 10.7301C28.3593 10.7004 28.2649 10.6914 28.1721 10.7039C28.0793 10.7163 27.9903 10.7498 27.9117 10.802C27.8368 10.8591 27.7758 10.9331 27.7333 11.0183C27.6908 11.1034 27.668 11.1975 27.6667 11.2933V15.8821C27.668 15.9778 27.6908 16.0719 27.7333 16.1571C27.7758 16.2423 27.8368 16.3163 27.9117 16.3733C27.99 16.4263 28.079 16.4603 28.1719 16.4728C28.2649 16.4852 28.3594 16.4758 28.4483 16.4452C28.9033 16.2791 29.297 15.9721 29.5749 15.5665C29.8528 15.1609 30.0013 14.6767 30 14.1808V12.9826Z" fill="#FAFAFA"/>
<path d="M25.9165 5.79374C25.9159 5.49171 25.8406 5.19478 25.6978 4.93076C25.555 4.66673 25.3492 4.44423 25.0999 4.28409C24.1315 3.64908 23.3849 4.17626 21.9265 4.90712C18.307 6.91409 14.2785 8.01817 10.1666 8.13011C10.0848 8.12969 10.0038 8.14693 9.92898 8.18071C9.85411 8.21449 9.787 8.26406 9.73199 8.32619C9.67699 8.38833 9.63532 8.46165 9.60969 8.5414C9.58406 8.62114 9.57504 8.70553 9.58322 8.78908V19.0811C9.60515 20.9117 10.1175 22.7008 11.0642 24.2521C12.0109 25.8034 13.3552 27.057 14.9499 27.8754C15.2284 28.0168 15.5501 28.0388 15.8444 27.9366C16.1387 27.8343 16.3814 27.6162 16.519 27.3302C16.6567 27.0442 16.6782 26.7138 16.5786 26.4116C16.4791 26.1094 16.2667 25.8601 15.9882 25.7187C14.8028 25.1147 13.7992 24.1917 13.0842 23.0481C12.3692 21.9045 11.9697 20.5832 11.9282 19.2248C15.4148 19.5031 18.8092 20.5102 21.9032 22.1842C23.5132 22.963 24.1665 23.3824 25.1232 22.7953C25.3692 22.6304 25.5707 22.4046 25.7094 22.1387C25.848 21.8728 25.9193 21.5753 25.9165 21.2737V5.79374Z" fill="#FAFAFA"/>
<path d="M7.83334 8.78971C7.83448 8.70934 7.81953 8.62959 7.78943 8.5554C7.75933 8.4812 7.71471 8.41414 7.65834 8.35838C7.54875 8.2499 7.40222 8.1897 7.25001 8.19064H6.08334C5.54668 8.18906 5.01501 8.29645 4.5189 8.50663C4.0228 8.71681 3.57204 9.02564 3.19256 9.41536C2.81308 9.80507 2.51237 10.268 2.30771 10.7775C2.10304 11.287 1.99848 11.833 2.00002 12.3841V14.7804C2.00154 15.3321 2.10906 15.8781 2.31641 16.387C2.52376 16.896 2.82687 17.3579 3.20836 17.7464C3.58986 18.1348 4.04224 18.4421 4.53958 18.6507C5.03693 18.8593 5.56947 18.965 6.10668 18.9619H7.27334C7.42198 18.9558 7.56273 18.8916 7.66683 18.7825C7.77092 18.6734 7.83049 18.5275 7.83334 18.3748V8.78971Z" fill="#FAFAFA"/>
</svg>
