<svg width="32" height="32" viewBox="0 0 32 32" fill="none" xmlns="http://www.w3.org/2000/svg">
<path fill-rule="evenodd" clip-rule="evenodd" d="M16.0178 2.66602C17.3499 2.66628 18.628 3.14925 19.57 4.00875L19.7421 4.17442C20.5766 5.01562 21.0426 6.11185 21.0427 7.25182V18.4598C21.918 19.2796 22.5393 20.3009 22.8364 21.4185L22.9421 21.8933C23.1421 23.0075 23.0159 24.1542 22.5722 25.2142C22.1286 26.2742 21.385 27.2047 20.4222 27.9133L19.9968 28.2039C18.8265 28.9392 17.4384 29.3325 16.0178 29.3327C14.7747 29.3327 13.5562 29.0313 12.4872 28.4635L12.0374 28.2039C10.8672 27.4685 9.96916 26.4256 9.462 25.2142L9.2913 24.7543C8.9386 23.6722 8.90464 22.5212 9.19782 21.4185L9.34278 20.9511C9.67538 20.0161 10.2408 19.1641 10.9929 18.4598V7.25182C10.9929 6.03562 11.5219 4.86874 12.4642 4.00875L12.6444 3.85296C13.5662 3.09118 14.7683 2.66602 16.0178 2.66602ZM16.0205 11.9514C15.4459 11.9514 14.98 12.3778 14.98 12.9022V20.3057C14.5699 20.4428 14.192 20.6578 13.8772 20.9449C13.3086 21.4639 12.9872 22.1683 12.9871 22.9022C12.9873 23.6359 13.3086 24.3392 13.8772 24.8582L14.0994 25.0424C14.6391 25.4459 15.3183 25.6692 16.0219 25.6692C16.8256 25.6689 17.5979 25.3772 18.1665 24.8582L18.1651 24.8569C18.733 24.3381 19.0537 23.6354 19.0539 22.9022C19.0538 22.1684 18.7338 21.4639 18.1651 20.9449C17.8501 20.6575 17.4713 20.4429 17.061 20.3057V12.9022C17.061 12.3777 16.5951 11.9514 16.0205 11.9514Z" fill="#FAFAFA"/>
</svg>
