<svg width="32" height="32" viewBox="0 0 32 32" fill="none" xmlns="http://www.w3.org/2000/svg">
<path fill-rule="evenodd" clip-rule="evenodd" d="M9.22608 4L22.7739 4C23.4861 3.99999 24.0806 3.99998 24.5662 4.03965C25.0727 4.08104 25.5483 4.17052 25.998 4.39964C26.6879 4.75118 27.2488 5.31211 27.6004 6.00204C27.8295 6.45172 27.919 6.92726 27.9603 7.43378C28 7.91941 28 8.51387 28 9.22607V17.6667C28 18.219 27.5523 18.6667 27 18.6667C26.4477 18.6667 26 18.219 26 17.6667V9.26667C26 8.50343 25.9992 7.99114 25.967 7.59664C25.9357 7.21381 25.8799 7.03077 25.8183 6.91002C25.6586 6.59641 25.4036 6.34145 25.09 6.18166C24.9692 6.12013 24.7862 6.06429 24.4034 6.03301C24.0089 6.00078 23.4966 6 22.7333 6L9.26667 6C8.50343 6 7.99114 6.00078 7.59664 6.03301C7.21381 6.06429 7.03077 6.12013 6.91002 6.18166C6.59641 6.34145 6.34145 6.59641 6.18166 6.91001C6.12013 7.03076 6.06429 7.21381 6.03301 7.59664C6.00078 7.99114 6 8.50343 6 9.26667L6 22.7333C6 23.4966 6.00078 24.0089 6.03301 24.4034C6.06429 24.7862 6.12013 24.9692 6.18166 25.09C6.34144 25.4036 6.59641 25.6586 6.91001 25.8183C7.03076 25.8799 7.21381 25.9357 7.59664 25.967C7.99114 25.9992 8.50343 26 9.26667 26H17.6667C18.219 26 18.6667 26.4477 18.6667 27C18.6667 27.5523 18.219 28 17.6667 28H9.22606C8.51387 28 7.91941 28 7.43377 27.9603C6.92726 27.919 6.45172 27.8295 6.00204 27.6004C5.31211 27.2488 4.75118 26.6879 4.39964 25.998C4.17052 25.5483 4.08104 25.0727 4.03965 24.5662C3.99997 24.0806 3.99999 23.4861 4 22.7739L4 9.22608C3.99999 8.51388 3.99998 7.91942 4.03965 7.43377C4.08104 6.92726 4.17052 6.45172 4.39964 6.00204C4.75118 5.31211 5.31211 4.75118 6.00204 4.39964C6.45172 4.17052 6.92726 4.08104 7.43378 4.03965C7.91942 3.99997 8.51388 3.99999 9.22608 4Z" fill="#FAFAFA"/>
<path d="M12.2183 13.5956C11.8978 13.2029 11.9211 12.6232 12.2873 12.2571C12.6534 11.891 13.233 11.8677 13.6258 12.1881L13.7013 12.2571L24.6943 23.2938C25.0849 23.6843 25.0849 24.3173 24.6943 24.7078C24.3038 25.0984 23.6708 25.0984 23.2803 24.7078L12.2873 13.6712L12.2183 13.5956Z" fill="#FAFAFA"/>
<path d="M11.9956 12.9654L12.0008 12.8626C12.0523 12.3586 12.4781 11.9655 12.9956 11.9654L20.9943 11.9641C21.3987 11.9641 21.764 12.2077 21.9188 12.5813C22.0735 12.955 21.9873 13.3852 21.7013 13.6712L13.7013 21.6712C13.4154 21.9571 12.9851 22.0433 12.6115 21.8886C12.2378 21.7338 11.9943 21.3686 11.9943 20.9641L11.9956 12.9654Z" fill="#FAFAFA"/>
</svg>
