<svg width="32" height="32" viewBox="0 0 32 32" fill="none" xmlns="http://www.w3.org/2000/svg">
<path fill-rule="evenodd" clip-rule="evenodd" d="M15.9993 29.3334C23.3631 29.3334 29.3327 23.3639 29.3327 16.0001C29.3327 8.63628 23.3631 2.66675 15.9993 2.66675C8.63555 2.66675 2.66602 8.63628 2.66602 16.0001C2.66602 23.3639 8.63555 29.3334 15.9993 29.3334ZM12.9356 21.2693C14.6279 19.577 17.3716 19.577 19.0639 21.2693C19.4544 21.6598 20.0876 21.6598 20.4781 21.2693C20.8686 20.8788 20.8686 20.2456 20.4781 19.8551C18.0048 17.3817 13.9947 17.3818 11.5214 19.8551C11.1309 20.2456 11.1309 20.8788 11.5214 21.2693C11.9119 21.6598 12.5451 21.6598 12.9356 21.2693ZM13.9993 12.6667C13.9993 13.7713 13.2532 14.6667 12.3327 14.6667C11.4122 14.6667 10.666 13.7713 10.666 12.6667C10.666 11.5622 11.4122 10.6667 12.3327 10.6667C13.2532 10.6667 13.9993 11.5622 13.9993 12.6667ZM19.666 14.6667C20.5865 14.6667 21.3327 13.7713 21.3327 12.6667C21.3327 11.5622 20.5865 10.6667 19.666 10.6667C18.7455 10.6667 17.9993 11.5622 17.9993 12.6667C17.9993 13.7713 18.7455 14.6667 19.666 14.6667Z" fill="#FAFAFA"/>
</svg>
