<svg width="32" height="32" viewBox="0 0 32 32" fill="none" xmlns="http://www.w3.org/2000/svg">
<path d="M18.5443 22.5756L16 25.2397L13.4544 22.5769L16 19.9128L18.5443 22.5756Z" fill="#FAFAFA"/>
<path d="M14.6159 18.4649L12.0716 21.129L9.52474 18.4636L12.0703 15.8009L14.6159 18.4649Z" fill="#FAFAFA"/>
<path d="M22.474 18.4649L19.9271 21.129L17.3828 18.4662L19.9284 15.8009L22.474 18.4649Z" fill="#FAFAFA"/>
<path d="M18.5456 14.3542L15.9987 17.0183L13.4531 14.3542L16 11.6902L18.5456 14.3542Z" fill="#FAFAFA"/>
<path fill-rule="evenodd" clip-rule="evenodd" d="M16 2.66675C19.0978 2.66675 21.9367 2.99384 24.0312 3.54175C25.0711 3.81379 25.9844 4.15545 26.6615 4.5743C27.2838 4.95933 27.9999 5.59755 28 6.54435C28 6.67388 27.9845 6.79733 27.9596 6.91545C27.9518 6.97362 27.9429 7.04202 27.9323 7.11987C27.9318 7.12338 27.9302 7.12675 27.9297 7.13029C27.9278 7.14795 27.926 7.16611 27.9232 7.18367C27.9126 7.26146 27.9007 7.34782 27.888 7.44149C27.8219 7.92815 27.7261 8.62436 27.6094 9.46362C27.3758 11.1423 27.0567 13.3946 26.7122 15.6863C26.7011 15.7605 26.6898 15.8347 26.6784 15.9089C26.6287 16.2385 26.5739 16.568 26.5234 16.8972L26.526 16.892C26.5192 16.9367 26.5121 16.9814 26.5052 17.0261C26.2219 18.868 25.9331 20.6731 25.6641 22.1589C25.4973 23.0802 25.3365 23.8909 25.1914 24.5157C25.1191 24.827 25.0478 25.1053 24.9779 25.3334C24.9177 25.5298 24.8301 25.7902 24.7005 25.9936C24.6361 26.095 24.565 26.1952 24.4896 26.2957C24.4651 26.3283 24.4384 26.3595 24.4128 26.392C24.3595 26.4594 24.3046 26.5272 24.2461 26.5938C24.2185 26.6253 24.1902 26.6564 24.1615 26.6876C24.1001 26.7543 24.0355 26.8199 23.9688 26.8855C23.9277 26.9258 23.8855 26.9655 23.8424 27.0053C23.779 27.0639 23.7138 27.1223 23.6458 27.1798C23.5988 27.2196 23.5506 27.259 23.5013 27.2983C23.4384 27.3483 23.3738 27.3977 23.3073 27.4467C23.2523 27.4872 23.1968 27.5281 23.1393 27.5678C23.0591 27.6232 22.9758 27.6768 22.8906 27.7305C22.84 27.7625 22.7894 27.7956 22.737 27.8269C22.6532 27.8769 22.5663 27.9244 22.4779 27.9727C22.4118 28.0088 22.346 28.0471 22.2773 28.0821C22.1278 28.1585 21.972 28.2324 21.8099 28.3035C21.7859 28.314 21.7612 28.323 21.737 28.3334C21.5918 28.3956 21.4417 28.4556 21.2865 28.5131C21.2221 28.5369 21.156 28.5578 21.0898 28.5808C20.9721 28.6217 20.8525 28.6638 20.7292 28.7019C20.646 28.7276 20.561 28.7505 20.4753 28.7748C20.3578 28.8082 20.2383 28.8417 20.1159 28.8725C20.024 28.8956 19.9306 28.9173 19.8359 28.9389C19.7171 28.9659 19.596 28.9912 19.4727 29.0157C19.3675 29.0366 19.2608 29.0566 19.1523 29.0756C19.0236 29.0981 18.8925 29.1183 18.7591 29.1381C18.6571 29.1532 18.554 29.169 18.4492 29.1824C18.3093 29.2003 18.167 29.2157 18.0221 29.2305C17.9064 29.2424 17.7895 29.2559 17.6706 29.2657C17.6541 29.2671 17.6376 29.2696 17.6211 29.2709C17.6055 29.2722 17.5899 29.2736 17.5742 29.2748C17.4354 29.2855 17.2942 29.2904 17.151 29.2983C17.0552 29.3035 16.9585 29.3113 16.8607 29.3152C16.5819 29.3263 16.2951 29.3334 16 29.3334C11.0337 29.3334 8.38872 27.7095 7.29948 25.9936L7.20964 25.8321C7.12746 25.664 7.0673 25.4808 7.02214 25.3334C6.95224 25.1053 6.88088 24.827 6.80859 24.5157C6.66351 23.8909 6.50275 23.0802 6.33594 22.1589C6.0659 20.6675 5.77646 18.8544 5.49219 17.0053C5.48585 16.964 5.47899 16.9229 5.47266 16.8816C5.47 16.8642 5.4675 16.8469 5.46484 16.8295C5.46542 16.8338 5.46552 16.8382 5.46615 16.8425C5.4071 16.4573 5.34564 16.0714 5.28776 15.6863C4.94328 13.3946 4.62418 11.1423 4.39062 9.46362C4.27386 8.62436 4.17809 7.92815 4.11198 7.44149C4.08268 7.22578 4.05762 7.0509 4.04036 6.92326C4.01462 6.80288 4 6.67661 4 6.54435C4.00009 5.59755 4.71616 4.95933 5.33854 4.5743C6.0156 4.15545 6.92892 3.81379 7.96875 3.54175C10.0633 2.99384 12.9022 2.66675 16 2.66675ZM25.6523 9.01571C25.1653 9.21528 24.6189 9.39319 24.0312 9.54696C23.6727 9.64077 23.2917 9.72474 22.8919 9.80477L19.9284 12.9063L17.3828 10.2423L17.2292 10.4024C16.8248 10.4139 16.4148 10.422 16 10.422C15.5848 10.422 15.1743 10.4128 14.7695 10.4011L14.6172 10.2423L14.4727 10.392L12.0703 12.9063L9.10677 9.80477C8.70751 9.72451 8.32691 9.64067 7.96875 9.54696C7.38069 9.39307 6.83366 9.21547 6.34635 9.01571C6.35422 9.07234 6.36302 9.12956 6.37109 9.18758C6.40478 9.42968 6.44079 9.68364 6.47786 9.948L10.6875 14.3529L7.60547 17.5795C7.7197 18.3089 7.83312 19.0237 7.94531 19.7058L10.6888 22.5769L8.86068 24.4871C8.88667 24.5863 8.91083 24.6732 8.93359 24.7475C8.98284 24.9082 9.00819 24.9528 8.9987 24.9376C9.2056 25.2578 9.5634 25.6392 10.1276 26.0053C10.1376 26.0118 10.1475 26.0184 10.1576 26.0248L12.0716 24.0235L14.6172 26.6876L14.0951 27.2319C14.4476 27.2696 14.8214 27.3008 15.2188 27.3165C15.4699 27.3264 15.7302 27.3334 16 27.3334C16.2698 27.3334 16.5301 27.3264 16.7812 27.3165C17.1484 27.3019 17.4955 27.2747 17.8242 27.241C17.8509 27.2383 17.8773 27.2347 17.9036 27.2319L17.3828 26.6876L19.9284 24.0235L21.8411 26.0248C22.4226 25.6529 22.7893 25.2635 23 24.9376C23.0046 24.9251 23.0288 24.8702 23.0664 24.7475C23.0891 24.6736 23.1122 24.587 23.138 24.4884L21.3112 22.5769L23.8568 19.9115L24.0508 19.7097C24.0316 19.8264 24.0153 19.9427 23.9961 20.0574C24.0156 19.9408 24.035 19.8231 24.0547 19.7045L24.0508 19.7097C24.1633 19.0264 24.2788 18.3104 24.3932 17.5795L21.3112 14.3542L25.5208 9.9493C25.558 9.68442 25.5952 9.43012 25.6289 9.18758C25.637 9.12962 25.6445 9.07228 25.6523 9.01571ZM24.6016 16.2384C24.5314 16.688 24.4626 17.1365 24.3932 17.5795C24.4627 17.1356 24.5328 16.6865 24.6016 16.2358V16.2384ZM16 4.66675C13.0218 4.66675 10.3603 4.98314 8.47396 5.47664C7.52365 5.72529 6.82659 6.00514 6.39062 6.27482C6.19791 6.39404 6.09789 6.48615 6.04557 6.54305C6.09771 6.59981 6.19645 6.69377 6.39062 6.81388C6.82665 7.08352 7.5238 7.36338 8.47396 7.61206C10.1923 8.06174 12.554 8.36384 15.2122 8.41414L15.2409 8.41545L16 8.42196C18.9781 8.42196 21.6397 8.10569 23.526 7.61206C24.4762 7.36338 25.1733 7.08352 25.6094 6.81388C25.8022 6.69459 25.8996 6.60006 25.9518 6.54305C25.8994 6.48591 25.8007 6.39319 25.6094 6.27482C25.1734 6.00514 24.4764 5.72529 23.526 5.47664C21.6397 4.98314 18.9782 4.66675 16 4.66675Z" fill="#FAFAFA"/>
</svg>
