<svg width="32" height="32" viewBox="0 0 32 32" fill="none" xmlns="http://www.w3.org/2000/svg">
<path fill-rule="evenodd" clip-rule="evenodd" d="M19.6686 2.66797C20.2206 2.66832 20.6686 3.1159 20.6686 3.66797V5.39844H24.002C25.4747 5.39844 26.6699 6.59365 26.6699 8.06641V26.668L26.6543 26.9395C26.5178 28.2842 25.3827 29.334 24.002 29.334H8.00195C6.52982 29.3336 5.33646 28.1401 5.33594 26.668V8.06641C5.33594 6.59386 6.52949 5.39879 8.00195 5.39844H11.3353V3.66797C11.3353 3.1159 11.7833 2.66832 12.3353 2.66797C12.8876 2.66797 13.3353 3.11568 13.3353 3.66797V5.39844H18.6686V3.66797C18.6686 3.11568 19.1163 2.66797 19.6686 2.66797ZM16.8789 10C16.4237 10.0004 15.9952 10.2025 15.7051 10.5449L15.5898 10.6992L10.6934 18.2168C10.0269 19.2408 10.7628 20.5969 11.9844 20.5977H12.9004L12.5488 23.2129C12.4251 24.136 13.1429 24.9584 14.0742 24.959H14.623C15.0963 24.9589 15.5441 24.7397 15.8359 24.3672L21.2344 17.4707C22.0241 16.4601 21.3042 14.983 20.0215 14.9824H18.5703L18.9551 11.7207C19.0627 10.8055 18.3471 10.0005 17.4258 10H16.8789Z" fill="#FAFAFA"/>
</svg>
