<svg width="32" height="32" viewBox="0 0 32 32" fill="none" xmlns="http://www.w3.org/2000/svg">
<path d="M10.0273 17.0007C10.2154 20.7253 11.4297 23.5723 12.6536 25.5306C12.9259 25.9662 13.1991 26.3574 13.4609 26.7051C8.9251 25.6327 5.47524 21.7526 5.04688 17.0007H10.0273Z" fill="#FAFAFA"/>
<path d="M26.9557 17.0007C26.5273 21.7529 23.0772 25.6329 18.541 26.7051C18.8029 26.3574 19.0766 25.9664 19.349 25.5306C20.5729 23.5723 21.7872 20.7253 21.9753 17.0007H26.9557Z" fill="#FAFAFA"/>
<path d="M19.9733 17.0007C19.7885 20.2826 18.7169 22.7695 17.6536 24.4707C17.0681 25.4076 16.4847 26.107 16.0534 26.5671C16.0361 26.5855 16.0181 26.6028 16.0013 26.6204C15.9845 26.6028 15.9665 26.5855 15.9492 26.5671C15.5179 26.107 14.9345 25.4076 14.349 24.4707C13.2857 22.7695 12.2141 20.2826 12.0293 17.0007H19.9733Z" fill="#FAFAFA"/>
<path d="M13.4616 5.29492C13.1995 5.64281 12.9262 6.03467 12.6536 6.4707C11.4297 8.42908 10.2153 11.2758 10.0273 15.0007H5.04688C5.47506 10.2481 8.92519 6.36705 13.4616 5.29492Z" fill="#FAFAFA"/>
<path d="M16.0534 5.43424C16.4847 5.89433 17.0681 6.59374 17.6536 7.5306C18.7169 9.23187 19.7886 11.7185 19.9733 15.0007H12.0293C12.214 11.7185 13.2857 9.23187 14.349 7.5306C14.9345 6.59374 15.5179 5.89433 15.9492 5.43424C15.9667 5.41559 15.9843 5.39742 16.0013 5.37956C16.0183 5.39742 16.0359 5.41559 16.0534 5.43424Z" fill="#FAFAFA"/>
<path d="M18.5404 5.29492C23.0771 6.36684 26.5275 10.2479 26.9557 15.0007H21.9753C21.7873 11.2758 20.5729 8.42908 19.349 6.4707C19.0763 6.03454 18.8025 5.64288 18.5404 5.29492Z" fill="#FAFAFA"/>
</svg>
