<svg width="32" height="32" viewBox="0 0 32 32" fill="none" xmlns="http://www.w3.org/2000/svg">
<path d="M19.8424 13.7288C20.4448 13.729 21.0233 13.9683 21.4492 14.3942C21.8747 14.8201 22.1145 15.3976 22.1146 15.9997C22.1144 16.602 21.8751 17.1806 21.4492 17.6064C21.0233 18.0323 20.4447 18.2717 19.8424 18.2718C19.2405 18.2717 18.6628 18.0319 18.237 17.6064C17.8111 17.1806 17.5718 16.602 17.5716 15.9997C17.5717 15.3974 17.8111 14.8202 18.237 14.3942C18.6629 13.9683 19.2401 13.729 19.8424 13.7288Z" fill="#FAFAFA"/>
<path fill-rule="evenodd" clip-rule="evenodd" d="M26.668 5.33301C28.1407 5.33301 29.3346 6.52692 29.3346 7.99967V23.9997C29.3346 25.4724 28.1407 26.6663 26.668 26.6663H5.33464L5.0625 26.652C3.7176 26.5157 2.66797 25.3805 2.66797 23.9997V7.99967C2.66797 6.52692 3.86188 5.33301 5.33464 5.33301H26.668ZM6.63672 18.3903C6.08462 18.3905 5.63672 18.8381 5.63672 19.3903C5.63672 19.9425 6.08462 20.3901 6.63672 20.3903H7.62109V21.8721C7.62109 22.4242 8.06899 22.8719 8.62109 22.8721C9.17338 22.8721 9.62109 22.4244 9.62109 21.8721V20.3903H10.6055C11.1578 20.3903 11.6055 19.9426 11.6055 19.3903C11.6055 18.838 11.1578 18.3903 10.6055 18.3903H6.63672ZM19.4727 9.21061C19.1396 9.21167 18.8125 9.30027 18.526 9.46712L18.4062 9.54395C18.0927 9.75978 17.8506 10.0651 17.7135 10.4202L17.4596 11.0752L16.7526 11.4762L16.0456 11.3682L16.0286 11.3669L15.8893 11.3525C15.6105 11.3357 15.331 11.3814 15.0716 11.4854L14.9427 11.5426C14.6064 11.7076 14.3257 11.9684 14.138 12.2926L14.1354 12.2979L13.7852 12.9098C13.5915 13.2394 13.503 13.6211 13.5299 14.0023C13.5571 14.3832 13.6985 14.7479 13.9362 15.0465L13.9401 15.0518L14.3867 15.6051V16.4033L13.9544 16.9541C13.7461 17.2157 13.611 17.5275 13.5625 17.8564L13.5469 17.9984C13.52 18.3791 13.6088 18.7603 13.8021 19.0895L14.1536 19.7028L14.1562 19.708C14.3439 20.0319 14.6242 20.2932 14.9609 20.458C15.2978 20.623 15.6763 20.684 16.0469 20.6338L16.0625 20.6312L16.7669 20.5231L17.4596 20.9215L17.7135 21.5804C17.8508 21.9355 18.0932 22.2412 18.4062 22.4567L18.526 22.5335C18.8122 22.7001 19.1396 22.789 19.4727 22.79H20.2266C20.6072 22.7888 20.9783 22.671 21.2917 22.4554C21.6054 22.2396 21.8472 21.9351 21.9844 21.5804L22.2396 20.9202L22.931 20.5231L23.6354 20.6325L23.6523 20.6338C24.023 20.6839 24.4014 20.6245 24.7383 20.4593C25.0747 20.2946 25.3552 20.0324 25.543 19.708L25.5456 19.7028L25.8945 19.0882L25.8958 19.0895C26.0651 18.8014 26.1545 18.4738 26.1562 18.1416L26.151 17.9984C26.1241 17.6168 25.9815 17.2515 25.7435 16.9528L25.7409 16.9489L25.2943 16.3942V15.596L25.7305 15.0413L25.7292 15.04C25.965 14.7418 26.1071 14.3805 26.1341 14.0023C26.1609 13.6246 26.0731 13.2482 25.8841 12.9215L25.5273 12.2979L25.5247 12.2926C25.3371 11.9685 25.0555 11.7064 24.7187 11.5413C24.3826 11.3771 24.0047 11.3154 23.6341 11.3656L22.9128 11.4762L22.2201 11.0778L21.9674 10.4202C21.8304 10.0657 21.5883 9.75993 21.2747 9.54395C21.0005 9.3553 20.6816 9.2419 20.3516 9.21582L20.2083 9.21061H19.4727ZM8.55859 9.96322C8.00671 9.96343 7.55895 10.4114 7.55859 10.9632V16.2314C7.55895 16.7833 8.00671 17.2312 8.55859 17.2314C9.11044 17.2314 9.55789 16.7844 9.55859 16.2327V10.9645C9.55859 10.4122 9.11088 9.96322 8.55859 9.96322Z" fill="#FAFAFA"/>
</svg>
