<svg width="32" height="32" viewBox="0 0 32 32" fill="none" xmlns="http://www.w3.org/2000/svg">
<path d="M12.6152 26.4498C12.9122 26.4498 13.1653 26.5589 13.3743 26.7779C13.5834 26.9969 13.6881 27.2568 13.6882 27.5579C13.6882 27.8647 13.5827 28.1257 13.373 28.3417C13.1633 28.5578 12.9084 28.6659 12.6087 28.6659C12.3161 28.6658 12.0647 28.5586 11.8548 28.343C11.6448 28.1272 11.5397 27.8648 11.5397 27.5566C11.5397 27.2552 11.6448 26.995 11.8548 26.7766C12.0648 26.5583 12.3184 26.4498 12.6152 26.4498ZM18.1517 26.4498C18.4515 26.4499 18.7053 26.5591 18.9134 26.7779C19.1217 26.9969 19.2259 27.2568 19.2259 27.5579C19.2259 27.8644 19.1214 28.1258 18.9121 28.3417C18.7024 28.5577 18.4473 28.6658 18.1478 28.6659C17.8483 28.6659 17.5936 28.5592 17.3848 28.3443C17.1759 28.1293 17.071 27.8685 17.071 27.5631C17.071 27.2576 17.176 26.995 17.3861 26.7766C17.5961 26.5583 17.8517 26.4498 18.1517 26.4498ZM10.8079 25.1334C10.7813 25.3791 10.6791 25.5948 10.5007 25.7805C10.2906 25.9989 10.0351 26.1086 9.73503 26.1086C9.43515 26.1086 9.18184 25.9984 8.97591 25.7792C8.80269 25.5947 8.70768 25.379 8.68034 25.1334H10.8079ZM16.4668 25.1334C16.4402 25.3792 16.3378 25.5947 16.1595 25.7805C15.9498 25.9989 15.6948 26.1086 15.3952 26.1086C15.1024 26.1086 14.8496 25.9984 14.6374 25.7792C14.4576 25.5934 14.3548 25.3781 14.3275 25.1334H16.4668ZM22.1035 25.1334C22.0765 25.3792 21.9722 25.5947 21.791 25.7805C21.5779 25.9989 21.3224 26.1086 21.0254 26.1086C20.7287 26.1085 20.4757 25.9983 20.2676 25.7792C20.0913 25.5934 19.9897 25.3781 19.9629 25.1334H22.1035ZM7.26758 16.3339C7.26768 18.1748 8.76002 19.6672 10.6009 19.6672C12.4418 19.6672 13.9341 18.1748 13.9342 16.3339V12.3339H16.6009V16.3339C16.601 18.1748 18.0934 19.6672 19.9342 19.6672C21.7751 19.6672 23.2675 18.1748 23.2676 16.3339V12.3339H24.6673C26.6924 12.3339 28.334 13.9755 28.334 16.0006V21.4667C28.3339 23.4917 26.6923 25.1334 24.6673 25.1334H22.1035C22.1082 25.0905 22.1113 25.0466 22.1113 25.0019C22.1113 24.7006 22.0045 24.4398 21.7923 24.2206C21.5801 24.0014 21.3274 23.8912 21.0345 23.8912C20.7349 23.8912 20.4799 24.0009 20.2702 24.2193C20.0605 24.4377 19.9551 24.698 19.9551 24.9993C19.9551 25.0449 19.9581 25.0896 19.9629 25.1334H16.4668C16.4714 25.0905 16.4746 25.0466 16.4746 25.0019C16.4746 24.7006 16.3702 24.4398 16.1621 24.2206C15.9539 24.0015 15.7011 23.8913 15.4043 23.8912C15.1073 23.8912 14.8518 24.0009 14.6387 24.2193C14.4257 24.4377 14.3197 24.698 14.3197 24.9993C14.3197 25.045 14.3226 25.0896 14.3275 25.1334H10.8079C10.8126 25.0904 10.8157 25.0467 10.8158 25.0019C10.8158 24.7006 10.7109 24.4398 10.502 24.2206C10.2929 24.0014 10.0377 23.8912 9.73763 23.8912C9.43786 23.8913 9.18402 23.9987 8.97721 24.2128C8.77038 24.4271 8.66732 24.6873 8.66732 24.9928C8.66732 25.0409 8.67522 25.0874 8.68034 25.1334H6.00065C3.97567 25.1334 2.33408 23.4917 2.33398 21.4667V16.0006C2.33398 13.9755 3.97561 12.3339 6.00065 12.3339H7.26758V16.3339ZM12.5671 21.3339C12.2701 21.3339 12.0167 21.4421 11.8066 21.6581C11.5967 21.8742 11.4915 22.1349 11.4915 22.4394C11.4917 22.7505 11.5969 23.0121 11.8066 23.2245C12.0165 23.437 12.2678 23.5434 12.5605 23.5435C12.8601 23.5435 13.1151 23.4377 13.3249 23.2258C13.5346 23.0139 13.64 22.7533 13.64 22.4446C13.6399 22.1361 13.5351 21.8741 13.3262 21.6581C13.1171 21.4421 12.864 21.3339 12.5671 21.3339ZM18.2116 21.3339C17.9115 21.3339 17.656 21.4421 17.446 21.6581C17.2362 21.8741 17.1309 22.135 17.1309 22.4394C17.131 22.7504 17.2355 23.0121 17.4434 23.2245C17.6516 23.4372 17.9063 23.5435 18.2064 23.5435C18.5064 23.5435 18.762 23.4378 18.972 23.2258C19.1818 23.014 19.2858 22.7531 19.2858 22.4446C19.2857 22.1363 19.1825 21.874 18.9746 21.6581C18.7663 21.4421 18.5116 21.3339 18.2116 21.3339ZM11.9342 16.3339C11.9341 17.0702 11.3372 17.6672 10.6009 17.6672C9.86459 17.6672 9.26768 17.0702 9.26758 16.3339V12.3339H11.9342V16.3339ZM21.2676 16.3339C21.2675 17.0702 20.6706 17.6672 19.9342 17.6672C19.1979 17.6672 18.601 17.0702 18.6009 16.3339V12.3339H21.2676V16.3339ZM8.26758 7.00058C8.81986 7.00058 9.26758 7.44829 9.26758 8.00058V12.3339H7.26758V8.00058C7.26758 7.44829 7.71529 7.00058 8.26758 7.00058ZM15.2676 7.00058C17.1085 7.00058 18.6009 8.49296 18.6009 10.3339V12.3339H16.6009V10.3339C16.6009 9.59753 16.004 9.00058 15.2676 9.00058C14.5312 9.00058 13.9342 9.59753 13.9342 10.3339V12.3339H11.9342V10.3339C11.9342 8.49296 13.4266 7.00058 15.2676 7.00058ZM25.2936 4.62688C25.6841 4.23635 26.3172 4.23635 26.7077 4.62688L29.3743 7.29354C29.7648 7.68408 29.7648 8.31711 29.3743 8.70761L26.7077 11.3743C26.3172 11.7647 25.6841 11.7647 25.2936 11.3743C24.9031 10.9838 24.9032 10.3507 25.2936 9.96021L26.2533 9.00058H24.9342C24.0138 9.00058 23.2676 9.74677 23.2676 10.6672V12.3339H21.2676V10.6672C21.2676 8.6422 22.9092 7.00058 24.9342 7.00058H26.2533L25.2936 6.04094C24.9031 5.65045 24.9032 5.01741 25.2936 4.62688Z" fill="#FAFAFA"/>
</svg>
