<svg width="32" height="32" viewBox="0 0 32 32" fill="none" xmlns="http://www.w3.org/2000/svg">
<path fill-rule="evenodd" clip-rule="evenodd" d="M12.334 2.66602C13.5361 2.6663 14.6895 3.14915 15.5397 4.00846L15.6953 4.17448C16.4484 5.01567 16.8691 6.112 16.8692 7.25195V18.4596C17.6592 19.2795 18.2201 20.3011 18.4883 21.4186L18.5834 21.8932C18.7639 23.0075 18.6498 24.1541 18.2494 25.2142C17.8489 26.2741 17.1782 27.2048 16.3093 27.9134L15.9251 28.2038C14.869 28.9391 13.6161 29.3325 12.334 29.3327C11.2121 29.3327 10.112 29.0313 9.14715 28.4635L8.74155 28.2038C7.68534 27.4685 6.87507 26.4255 6.41734 25.2142L6.26304 24.7546C5.94473 23.6725 5.91384 22.5213 6.1784 21.4186L6.30926 20.9512C6.60945 20.0162 7.12006 19.1639 7.79885 18.4596V7.25195C7.79888 6.03576 8.27582 4.86845 9.12632 4.00846L9.28908 3.85286C10.1211 3.09109 11.2063 2.66602 12.334 2.66602ZM12.3366 11.9512C11.818 11.9512 11.3972 12.3779 11.3972 12.9023V20.306C11.0271 20.4431 10.6858 20.6576 10.4017 20.9447C9.88845 21.4636 9.59841 22.1685 9.59833 22.9023C9.59853 23.6359 9.88868 24.3392 10.4017 24.8581L10.6022 25.0423C11.0893 25.4458 11.703 25.6693 12.3379 25.6693C13.0632 25.6689 13.7604 25.377 14.2735 24.8581L14.2722 24.8568C14.7846 24.338 15.074 23.6355 15.0742 22.9023C15.0742 22.1685 14.7854 21.4636 14.2722 20.9447C13.9879 20.6573 13.6457 20.4431 13.2754 20.306V12.9023C13.2754 12.378 12.8551 11.9513 12.3366 11.9512Z" fill="#FAFAFA"/>
<path fill-rule="evenodd" clip-rule="evenodd" d="M22.5091 10.0775C23.0852 8.92599 24.6626 8.85449 25.3633 9.86263L25.4909 10.0775L27.474 14.0449C28.7652 16.6275 26.8874 19.666 24 19.666C21.1128 19.6659 19.2349 16.6274 20.5261 14.0449L22.5091 10.0775ZM22.3151 14.9395C21.6889 16.1921 22.5995 17.6659 24 17.666C25.4007 17.666 26.3113 16.1922 25.6849 14.9395L24 11.5684L22.3151 14.9395Z" fill="#FAFAFA"/>
</svg>
