<svg width="32" height="32" viewBox="0 0 32 32" fill="none" xmlns="http://www.w3.org/2000/svg">
<path fill-rule="evenodd" clip-rule="evenodd" d="M26.666 5.33203C28.1388 5.33203 29.3327 6.52724 29.3327 8V24C29.3325 25.4726 28.1387 26.6667 26.666 26.6667H5.33268L5.06055 26.6523C3.71575 26.516 2.66618 25.3807 2.66602 24V8C2.66602 6.52746 3.86022 5.33238 5.33268 5.33203H26.666ZM9.74284 23.1849C10.8045 23.7058 11.9977 23.9998 13.2598 24C14.7224 23.9998 16.0917 23.6039 17.2715 22.918L13.3796 17.7305L9.74284 23.1849ZM25.1934 17.3229C24.6413 17.3232 24.1934 17.7708 24.1934 18.3229V21.7969L24.1999 21.8984C24.2513 22.4023 24.676 22.7966 25.1934 22.7969C25.7109 22.7969 26.1367 22.4024 26.1882 21.8984L26.1934 21.7969V18.3229C26.1934 17.7706 25.7456 17.3229 25.1934 17.3229ZM5.32487 17C5.57864 19.0299 6.5916 20.8224 8.07227 22.0859L11.4642 17H5.32487ZM18.8613 21.7057C20.1156 20.4741 20.9654 18.8343 21.1947 17H15.3314L18.8613 21.7057ZM7.74154 10.2109C6.44073 11.4512 5.55913 13.1245 5.32487 15H11.3327L7.74154 10.2109ZM15.2012 15H21.1947C20.9463 13.0116 19.9698 11.2509 18.5384 9.99219L15.2012 15ZM13.2598 8C11.8388 8.00025 10.505 8.37219 9.34831 9.02214L13.2832 14.2695L16.8835 8.86849C15.7953 8.31432 14.5644 8.00015 13.2598 8Z" fill="#FAFAFA"/>
</svg>
