<svg width="32" height="32" viewBox="0 0 32 32" fill="none" xmlns="http://www.w3.org/2000/svg">
<path d="M15.9759 15.2005C16.3598 15.2009 16.6712 15.5119 16.6712 15.8958V16.2201L16.9681 15.9258C17.2398 15.6543 17.6796 15.6542 17.9512 15.9258C18.2223 16.1974 18.2225 16.6374 17.9512 16.9089L16.6712 18.1875V18.6836L17.1764 18.6823L18.4512 17.4089C18.7227 17.1376 19.1626 17.1377 19.4342 17.4089C19.7058 17.6804 19.7057 18.1203 19.4342 18.3919L19.1465 18.6797H19.4681C19.8521 18.6792 20.164 18.991 20.1647 19.375C20.1649 19.7589 19.8533 20.0698 19.4694 20.0703H19.1283L19.4342 20.3776L19.4824 20.4297C19.7053 20.7029 19.6888 21.106 19.4342 21.3607C19.1797 21.6147 18.7776 21.6311 18.5046 21.4089L18.4512 21.3607L17.1647 20.0742H16.6712V20.5807L17.9512 21.8607L17.9993 21.9141C18.2215 22.1871 18.2051 22.5893 17.9512 22.8438C17.6965 23.0984 17.2934 23.1147 17.0202 22.8919L16.9681 22.8438L16.6712 22.5482V22.8737C16.6712 23.2577 16.3598 23.57 15.9759 23.5703C15.5917 23.5703 15.2806 23.2579 15.2806 22.8737V22.5456L14.9824 22.8438C14.7108 23.1152 14.271 23.1152 13.9993 22.8438C13.7282 22.5721 13.728 22.1322 13.9993 21.8607L15.2806 20.5794V20.0768H14.7806L13.498 21.3607C13.2264 21.6318 12.7865 21.632 12.515 21.3607C12.2438 21.0892 12.2439 20.6492 12.515 20.3776L12.8118 20.0794H12.4915C12.1074 20.0799 11.7955 19.7695 11.7949 19.3854C11.7947 19.0015 12.1062 18.6893 12.4902 18.6888L12.8105 18.6875L12.515 18.3919C12.244 18.1203 12.2436 17.6803 12.515 17.4089C12.7864 17.1374 13.2264 17.1378 13.498 17.4089L14.7754 18.6849H15.2806V18.1901L13.9993 16.9089C13.7279 16.6373 13.7281 16.1974 13.9993 15.9258C14.271 15.6542 14.7108 15.6542 14.9824 15.9258L15.2806 16.2227V15.8958C15.2806 15.5117 15.5917 15.2005 15.9759 15.2005Z" fill="#FAFAFA"/>
<path fill-rule="evenodd" clip-rule="evenodd" d="M24.0007 2C25.4734 2 26.6673 3.19391 26.6673 4.66667V27.3333C26.6673 28.8061 25.4734 30 24.0007 30H8.00065C6.61978 30 5.48466 28.9504 5.34831 27.6055L5.33398 27.3333V4.66667C5.33398 3.19391 6.52789 2 8.00065 2H24.0007ZM12.0007 12.6667C10.5279 12.6667 9.33398 13.8606 9.33398 15.3333V23.3333C9.33398 24.8061 10.5279 26 12.0007 26H20.0007C21.4734 26 22.6673 24.8061 22.6673 23.3333V15.3333C22.6673 13.8606 21.4734 12.6667 20.0007 12.6667H12.0007ZM20.0007 8.33333C19.4484 8.33333 19.0007 8.78105 19.0007 9.33333C19.0007 9.88562 19.4484 10.3333 20.0007 10.3333H21.334C21.8863 10.3333 22.334 9.88562 22.334 9.33333C22.334 8.78105 21.8863 8.33333 21.334 8.33333H20.0007ZM9.66732 4.66667C9.66732 5.58714 10.4135 6.33333 11.334 6.33333H20.6673C21.5878 6.33333 22.334 5.58714 22.334 4.66667V4H9.66732V4.66667Z" fill="#FAFAFA"/>
</svg>
