<svg width="32" height="32" viewBox="0 0 32 32" fill="none" xmlns="http://www.w3.org/2000/svg">
<path d="M24.7096 12.241C24.7719 12.263 24.8263 12.3031 24.8646 12.3569C24.903 12.4112 24.9233 12.4767 24.9232 12.5431V18.9871H28.1133C28.482 18.9875 28.5884 19.4925 28.3581 19.7228L21.6914 28.0861C21.6501 28.138 21.5936 28.1757 21.5299 28.1942C21.466 28.2126 21.3974 28.211 21.3346 28.189C21.2718 28.1669 21.218 28.1249 21.1797 28.0705C21.1415 28.0163 21.1209 27.9519 21.1211 27.8856V21.4416H17.931C17.5625 21.4411 17.4553 20.9374 17.6862 20.7059L24.3529 12.3439C24.3941 12.2919 24.4506 12.2544 24.5143 12.2358C24.5782 12.2174 24.6469 12.2191 24.7096 12.241Z" fill="#FAFAFA"/>
<path d="M18.8438 16.6877L16.4661 19.6681C16.1248 20.0628 16.0322 20.501 16.0013 20.6877C15.963 20.9147 15.9635 21.1203 15.9635 21.1864V21.1955C15.9635 21.253 15.9663 21.3109 15.9727 21.3674C14.6353 21.8355 12.9227 22.103 11.0703 22.103C9.01698 22.103 7.13383 21.7736 5.74609 21.2072C5.05277 20.9256 4.45567 20.5736 4.02474 20.1512C3.59069 19.7278 3.29697 19.2025 3.29688 18.5978V15.1994C3.71071 15.4788 4.18691 15.7213 4.70312 15.9325C6.37235 16.6129 8.62255 17.0066 11.0703 17.0067C13.5172 17.0067 15.7682 16.613 17.4375 15.9325C17.9538 15.7223 18.4299 15.4788 18.8438 15.1994V16.6877Z" fill="#FAFAFA"/>
<path d="M18.8438 12.6408C18.843 12.6555 18.8424 12.6703 18.8424 12.6851C18.8424 12.9058 18.7409 13.1797 18.4115 13.5028C18.0765 13.8292 17.5501 14.1597 16.8333 14.452C15.4031 15.0342 13.3673 15.4063 11.0703 15.4064C8.77271 15.4064 6.73639 15.0344 5.30599 14.452C4.5893 14.1597 4.063 13.8291 3.72917 13.5028C3.39962 13.1796 3.2982 12.9058 3.29818 12.6851L3.29688 12.6382V8.49105C3.85571 9.02959 4.57889 9.44311 5.34245 9.75667C6.88911 10.3913 8.91458 10.7476 11.0703 10.7476C13.2258 10.7475 15.2517 10.391 16.7982 9.75537C17.5617 9.44287 18.285 9.03063 18.8438 8.49105V12.6408Z" fill="#FAFAFA"/>
<path d="M11.0703 3.20068C15.0682 3.20068 18.3099 4.53198 18.3099 6.17464C18.3091 7.81704 15.0677 9.1473 11.0703 9.1473C7.07311 9.1472 3.83149 7.81698 3.83073 6.17464C3.83073 4.53203 7.07158 3.20078 11.0703 3.20068Z" fill="#FAFAFA"/>
</svg>
