<svg width="32" height="32" viewBox="0 0 32 32" fill="none" xmlns="http://www.w3.org/2000/svg">
<path fill-rule="evenodd" clip-rule="evenodd" d="M19.987 3C20.5387 3.00068 20.987 3.44814 20.987 4C20.987 4.55186 20.5387 4.99932 19.987 5H16.9935V7.70833H22.6667C23.219 7.70833 23.6667 8.15605 23.6667 8.70833C23.6667 9.26062 23.219 9.70833 22.6667 9.70833H21.6471V12.375H22.6667C23.219 12.375 23.6667 12.8227 23.6667 13.375C23.6667 13.9273 23.219 14.375 22.6667 14.375H21.6471V16.5638C21.6471 17.3001 22.2429 17.897 22.9792 17.8971H27V17.375C27 16.8227 27.4477 16.375 28 16.375C28.5523 16.375 29 16.8227 29 17.375V28.0417C29 28.594 28.5523 29.0417 28 29.0417C27.4477 29.0417 27 28.594 27 28.0417V27.7083H5V28.0417C5 28.594 4.55228 29.0417 4 29.0417C3.44772 29.0417 3 28.594 3 28.0417V17.375C3 16.8227 3.44772 16.375 4 16.375C4.55228 16.375 5 16.8227 5 17.375V17.8971H9.11198C9.84825 17.897 10.444 17.3001 10.444 16.5638V14.375H9.33333C8.78105 14.375 8.33333 13.9273 8.33333 13.375C8.33333 12.8227 8.78105 12.375 9.33333 12.375H10.444V9.70833H9.33333C8.78105 9.70833 8.33333 9.26062 8.33333 8.70833C8.33333 8.15605 8.78105 7.70833 9.33333 7.70833H14.9935V5H12L11.8971 4.99479C11.3933 4.94322 11 4.5175 11 4C11 3.4825 11.3933 3.05678 11.8971 3.00521L12 3H19.987ZM12.444 12.375H19.6471V9.70833H12.444V12.375Z" fill="#FAFAFA"/>
</svg>
