<svg width="32" height="32" viewBox="0 0 32 32" fill="none" xmlns="http://www.w3.org/2000/svg">
<path fill-rule="evenodd" clip-rule="evenodd" d="M6.18449 5.42869C6.8787 4.52775 7.95144 4 9.08853 4H22.9102C24.0473 4 25.12 4.52776 25.8142 5.42869L29.1247 9.72503C29.2595 9.90005 29.3327 10.1148 29.3327 10.3358V11.6696C29.3327 12.9907 28.8088 14.1885 27.9623 15.0782V24.3319C27.9623 26.3577 26.3207 28 24.2956 28H7.70305C5.67801 28 4.03639 26.3577 4.03639 24.3319V15.0782C3.18987 14.1885 2.66602 12.9907 2.66602 11.6696V10.3358C2.66602 10.1148 2.73915 9.90005 2.87401 9.72503L6.18449 5.42869ZM6.03639 16.3737V24.3319C6.03639 25.2527 6.78258 25.9992 7.70305 25.9992H12.2586L12.2586 22.9981C12.2586 20.9466 13.9594 19.33 15.9994 19.33C18.0393 19.33 19.7401 20.9466 19.7401 22.9981L19.7401 25.9992H24.2956C25.2161 25.9992 25.9623 25.2527 25.9623 24.3319V16.3737C25.4182 16.5666 24.8318 16.6716 24.2216 16.6716C22.5473 16.6716 21.0459 15.8782 20.1105 14.6432C19.175 15.8782 17.6736 16.6716 15.9993 16.6716C14.3251 16.6716 12.8237 15.8782 11.8882 14.6432C10.9528 15.8782 9.4514 16.6716 7.77713 16.6716C7.1669 16.6716 6.58047 16.5666 6.03639 16.3737Z" fill="#FAFAFA"/>
</svg>
