<svg width="32" height="32" viewBox="0 0 32 32" fill="none" xmlns="http://www.w3.org/2000/svg">
<path d="M17.5124 2.6876C17.6509 2.65943 17.795 2.65999 17.933 2.6902C18.0708 2.72046 18.2 2.77945 18.3106 2.86208C18.421 2.94489 18.512 3.05029 18.5736 3.16937C18.6349 3.28853 18.6668 3.42128 18.6674 3.55349V5.33343H24.1908C24.4938 5.33343 24.7851 5.52112 24.9994 5.85427C25.2133 6.18738 25.3339 6.63996 25.334 7.11078V11.5001C25.3273 11.4953 25.3212 11.4893 25.3145 11.4845L25.1426 11.3751L25.0528 11.3243C24.9972 11.2929 24.9392 11.2643 24.8809 11.2384C24.3845 11.0176 23.8645 10.8627 23.334 10.7696V7.33343H18.6674V10.9011C18.6547 11.1766 18.6396 11.4494 18.627 11.7189C18.4637 11.8239 18.303 11.9341 18.1491 12.0535L17.7845 12.3582C17.0416 13.0253 16.4639 13.8511 16.0879 14.7683L15.9043 14.6863L15.6713 14.5952C15.1885 14.4355 14.6679 14.4258 14.1791 14.5665L13.9681 14.6368C13.5053 14.8158 13.1052 15.128 12.8184 15.5327C12.7792 15.5879 12.7424 15.6456 12.709 15.7045L12.6582 15.7944L12.5723 15.9662C12.0553 17.1289 11.8828 18.4196 12.0814 19.6798C12.2805 20.9391 12.8406 22.1153 13.6908 23.0626L14.0215 23.4063C14.6223 23.9853 15.3293 24.4415 16.0996 24.7579L16.0189 24.9428C15.7541 25.5401 15.7245 26.2349 15.9681 26.8712V26.8738C16.2094 27.5007 16.6907 28.0039 17.2989 28.2748C17.5186 28.3726 17.7457 28.4533 17.9733 28.5261C17.9717 28.7854 17.9681 29.0447 17.9681 29.3035C17.84 29.335 17.7056 29.3418 17.5749 29.3217L6.14652 27.8517C5.91927 27.8201 5.71114 27.7114 5.56189 27.5483C5.4132 27.3852 5.33192 27.1764 5.33402 26.9623V6.17328C5.33788 5.97357 5.41476 5.77973 5.55017 5.6251C5.68587 5.47063 5.87377 5.36325 6.08272 5.32041L17.5124 2.6876Z" fill="#FAFAFA"/>
<path fill-rule="evenodd" clip-rule="evenodd" d="M21.4786 12.7228C22.3564 12.5844 23.2565 12.704 24.0684 13.0652L24.1582 13.116C24.2418 13.1753 24.3083 13.2585 24.3457 13.3556C24.383 13.4529 24.3891 13.56 24.3666 13.6603L24.334 13.7579L23.2142 16.2722C23.737 16.2312 24.2668 16.2798 24.778 16.4181C25.6354 16.6502 26.4073 17.1256 27.0007 17.7866C27.5941 18.4477 27.9845 19.2671 28.1231 20.1446C28.2614 21.0223 28.1431 21.9227 27.7819 22.7345C27.7253 22.8614 27.6201 22.962 27.4903 23.0118C27.3606 23.0615 27.2162 23.0564 27.0892 23.0001L24.5736 21.8816C24.6144 22.4039 24.5685 22.9334 24.4304 23.4441C24.1982 24.3017 23.7217 25.0746 23.0606 25.6681C22.3994 26.2614 21.58 26.6506 20.7025 26.7892C19.8247 26.9276 18.9246 26.8092 18.1127 26.448C17.9856 26.3915 17.8853 26.2861 17.8353 26.1563C17.7857 26.0268 17.7908 25.8822 17.847 25.7553L18.9642 23.241C18.4424 23.2817 17.9146 23.2344 17.4043 23.0965C16.5465 22.8644 15.7728 22.3879 15.1791 21.7267C14.5857 21.0655 14.1952 20.2461 14.0567 19.3686C13.9183 18.491 14.0381 17.5905 14.3991 16.7787L14.4499 16.6889C14.5091 16.6053 14.5926 16.5402 14.6895 16.5027C14.8194 16.4528 14.9647 16.4565 15.0918 16.5131L17.6062 17.6316C17.5653 17.1094 17.614 16.5811 17.752 16.0704C17.984 15.2127 18.4594 14.4401 19.1205 13.8465C19.7818 13.2528 20.6007 12.8613 21.4786 12.7228ZM21.2533 18.7188C20.681 18.6289 20.1434 19.0203 20.0528 19.5925C19.9626 20.1647 20.3532 20.702 20.9252 20.7931C21.4977 20.8837 22.0361 20.4931 22.127 19.9207C22.2175 19.348 21.8259 18.8095 21.2533 18.7188Z" fill="#FAFAFA"/>
</svg>
