<svg width="32" height="32" viewBox="0 0 32 32" fill="none" xmlns="http://www.w3.org/2000/svg">
<path d="M4.788 10.2857H27.1423C27.479 10.2848 27.8113 10.2096 28.1156 10.0654C28.4199 9.92114 28.6885 9.71148 28.9023 9.45137C29.1117 9.19804 29.264 8.90253 29.3488 8.58499C29.4336 8.26746 29.4489 7.93537 29.3937 7.61137L28.9594 3.31423C28.931 3.03135 28.7982 2.76922 28.5868 2.57902C28.3755 2.38883 28.1009 2.28423 27.8166 2.28566H4.11372C3.82941 2.28423 3.55478 2.38883 3.34346 2.57902C3.13213 2.76922 2.99929 3.03135 2.97086 3.31423L2.53657 7.59994C2.4781 7.92891 2.49246 8.26668 2.57864 8.5895C2.66482 8.91231 2.82072 9.2123 3.03537 9.46835C3.25001 9.7244 3.51818 9.93028 3.82099 10.0715C4.1238 10.2127 4.45389 10.2858 4.788 10.2857ZM10.2851 5.1428C10.2851 4.99125 10.3453 4.8459 10.4525 4.73874C10.5597 4.63158 10.705 4.57137 10.8566 4.57137H21.1423C21.2938 4.57137 21.4392 4.63158 21.5464 4.73874C21.6535 4.8459 21.7137 4.99125 21.7137 5.1428V7.99994H10.2851V5.1428Z" fill="#FAFAFA"/>
<path d="M11.6566 23.6454L11.9766 21.5997V21.3254C11.9776 21.0774 11.9296 20.8316 11.8355 20.6022C11.7414 20.3727 11.6029 20.1641 11.428 19.9883C11.2543 19.8098 11.0463 19.6682 10.8165 19.5719C10.5868 19.4757 10.34 19.4268 10.0909 19.4283H7.45087C6.71973 19.4287 6.00171 19.6224 5.36951 19.9897C4.73732 20.3569 4.21342 20.8848 3.85087 21.5197C2.82037 23.7276 2.28594 26.1345 2.28516 28.5711C2.28516 28.8742 2.40556 29.1649 2.61989 29.3792C2.83422 29.5936 3.12491 29.714 3.42801 29.714C3.73112 29.714 4.02181 29.5936 4.23614 29.3792C4.45046 29.1649 4.57087 28.8742 4.57087 28.5711C4.57167 26.5316 4.99992 24.5149 5.82801 22.6511C5.99423 22.3678 6.23118 22.1324 6.51565 21.9682C6.80012 21.8039 7.12238 21.7163 7.45087 21.714H9.64515L9.1423 25.3825C9.11222 25.5957 9.14297 25.8131 9.23103 26.0096C9.31908 26.2061 9.46085 26.3737 9.64 26.4931C9.81916 26.6126 10.0284 26.679 10.2436 26.6847C10.4589 26.6904 10.6714 26.6352 10.8566 26.5254C11.4129 26.1294 12.0553 25.8709 12.7309 25.7711C12.5812 26.5637 12.2085 27.2972 11.6566 27.8854C11.4747 28.1279 11.3966 28.4327 11.4395 28.7327C11.4824 29.0328 11.6427 29.3035 11.8852 29.4854C12.083 29.6338 12.3236 29.714 12.5709 29.714C12.7483 29.714 12.9233 29.6727 13.082 29.5933C13.2407 29.514 13.3787 29.3988 13.4852 29.2568C15.0509 27.1768 15.3937 25.2797 14.4109 24.194C14.0576 23.8402 13.6073 23.5992 13.117 23.5016C12.6267 23.4039 12.1184 23.454 11.6566 23.6454Z" fill="#FAFAFA"/>
<path d="M28.1489 21.52C27.7864 20.8851 27.2625 20.3572 26.6303 19.99C25.9981 19.6227 25.2801 19.429 24.5489 19.4285H21.9089C21.4058 19.4285 20.9232 19.6284 20.5674 19.9842C20.2117 20.34 20.0118 20.8225 20.0118 21.3257V21.6L20.3318 23.6457C19.8722 23.4521 19.3651 23.4009 18.8761 23.4987C18.3871 23.5965 17.9387 23.8388 17.5889 24.1943C16.6061 25.28 16.9489 27.1771 18.5032 29.2571C18.6097 29.3991 18.7477 29.5143 18.9064 29.5936C19.0651 29.673 19.2401 29.7143 19.4175 29.7143C19.6648 29.7143 19.9054 29.6341 20.1032 29.4857C20.3457 29.3038 20.506 29.0331 20.5489 28.733C20.5917 28.433 20.5136 28.1282 20.3318 27.8857C19.8087 27.2911 19.4606 26.5632 19.3261 25.7828C19.9967 25.888 20.6341 26.1461 21.1889 26.5371C21.3742 26.6469 21.5866 26.7021 21.8019 26.6964C22.0171 26.6907 22.2264 26.6243 22.4055 26.5048C22.5847 26.3854 22.7264 26.2178 22.8145 26.0213C22.9025 25.8248 22.9333 25.6075 22.9032 25.3943L22.3546 21.7143H24.5489C24.8788 21.7166 25.2022 21.8055 25.487 21.9719C25.7717 22.1384 26.0079 22.3766 26.1718 22.6628C27.0003 24.5225 27.4286 26.5355 27.4289 28.5714C27.4289 28.8745 27.5493 29.1652 27.7637 29.3795C27.978 29.5939 28.2687 29.7143 28.5718 29.7143C28.8749 29.7143 29.1656 29.5939 29.3799 29.3795C29.5942 29.1652 29.7146 28.8745 29.7146 28.5714C29.7139 26.1348 29.1794 23.7279 28.1489 21.52Z" fill="#FAFAFA"/>
<path d="M9.26823 17.6455C9.36161 17.8362 9.50624 17.997 9.68589 18.11C9.86554 18.2231 10.0731 18.2838 10.2854 18.2855C10.4604 18.2827 10.6324 18.2397 10.7882 18.1598C11.1051 17.992 11.3836 17.76 11.606 17.4786C11.8283 17.1973 11.9896 16.8727 12.0797 16.5255C12.1965 16.1449 12.2294 15.7434 12.1761 15.3488C12.1229 14.9542 11.9847 14.5759 11.7711 14.2398C11.6928 14.1042 11.605 13.9744 11.5082 13.8513C11.3025 13.577 11.2797 13.5427 11.2797 13.4398C11.2676 13.3911 11.2676 13.34 11.2797 13.2913C11.5482 13.1589 11.7542 12.9265 11.8532 12.644C11.9522 12.3614 11.9363 12.0513 11.8091 11.7803C11.6818 11.5093 11.4533 11.299 11.1726 11.1948C10.8919 11.0905 10.5816 11.1005 10.3082 11.2227C9.88546 11.4312 9.53269 11.7585 9.29316 12.1645C9.05362 12.5705 8.93772 13.0375 8.95966 13.5084C8.98386 14.1431 9.22143 14.7511 9.63394 15.2341C9.63394 15.3141 9.75966 15.3941 9.8168 15.4855C9.85856 15.5826 9.87318 15.6891 9.85909 15.7938C9.845 15.8984 9.80273 15.9973 9.7368 16.0798C9.60199 16.1506 9.48269 16.2476 9.38588 16.3651C9.28907 16.4826 9.21672 16.6182 9.17307 16.7641C9.12942 16.91 9.11535 17.0631 9.13169 17.2144C9.14804 17.3658 9.19445 17.5124 9.26823 17.6455Z" fill="#FAFAFA"/>
<path d="M17.1423 14.2857L16.868 13.9085C16.6623 13.6343 16.6509 13.6 16.6509 13.4971C16.6404 13.4481 16.6404 13.3975 16.6509 13.3485C16.9048 13.2091 17.0963 12.9784 17.1866 12.7031C17.277 12.4278 17.2594 12.1285 17.1374 11.8657C17.0154 11.6029 16.7982 11.3962 16.5297 11.2875C16.2611 11.1787 15.9613 11.1761 15.6909 11.28C15.2652 11.4849 14.91 11.8114 14.6699 12.2183C14.4299 12.6251 14.3159 13.094 14.3423 13.5657C14.361 14.2015 14.5993 14.8113 15.0166 15.2914L15.188 15.5428C15.2339 15.6382 15.2519 15.7447 15.2397 15.8499C15.2276 15.9551 15.1859 16.0547 15.1194 16.1371C14.896 16.2577 14.7191 16.4493 14.6166 16.6816C14.5141 16.9139 14.4919 17.1737 14.5535 17.42C14.6151 17.6663 14.7569 17.8852 14.9567 18.0419C15.1564 18.1987 15.4027 18.2844 15.6566 18.2857C15.8352 18.2822 16.0108 18.2393 16.1709 18.16C16.4878 17.9921 16.7663 17.7602 16.9886 17.4788C17.211 17.1974 17.3723 16.8728 17.4623 16.5257C17.5656 16.1504 17.5906 15.7578 17.5355 15.3724C17.4805 14.987 17.3466 14.6171 17.1423 14.2857Z" fill="#FAFAFA"/>
<path d="M19.9999 17.6455C20.0941 17.8379 20.2405 17.9999 20.4224 18.113C20.6042 18.2262 20.8142 18.286 21.0284 18.2855C21.2035 18.2827 21.3755 18.2397 21.5313 18.1598C21.8546 17.9957 22.1397 17.7654 22.3681 17.4838C22.5965 17.2023 22.7631 16.8757 22.857 16.5255C22.9738 16.1449 23.0068 15.7434 22.9535 15.3488C22.9002 14.9542 22.762 14.5759 22.5484 14.2398C22.4702 14.1042 22.3823 13.9744 22.2856 13.8513C22.0799 13.577 22.057 13.5427 22.057 13.4398C22.0449 13.3911 22.0449 13.34 22.057 13.2913C22.3256 13.1589 22.5315 12.9265 22.6305 12.644C22.7295 12.3614 22.7137 12.0513 22.5864 11.7803C22.4591 11.5093 22.2306 11.299 21.9499 11.1948C21.6693 11.0905 21.3589 11.1005 21.0856 11.2227C20.6628 11.4312 20.31 11.7585 20.0705 12.1645C19.831 12.5705 19.7151 13.0375 19.737 13.5084C19.7612 14.1431 19.9988 14.7511 20.4113 15.2341C20.4684 15.3141 20.537 15.3941 20.5941 15.4855C20.6359 15.5826 20.6505 15.6891 20.6364 15.7938C20.6223 15.8984 20.5801 15.9973 20.5141 16.0798C20.3754 16.1465 20.2516 16.2405 20.1502 16.3562C20.0487 16.472 19.9716 16.607 19.9236 16.7532C19.8756 16.8994 19.8576 17.0538 19.8707 17.2071C19.8838 17.3605 19.9277 17.5096 19.9999 17.6455Z" fill="#FAFAFA"/>
</svg>
