<svg width="32" height="32" viewBox="0 0 32 32" fill="none" xmlns="http://www.w3.org/2000/svg">
<path d="M28.7991 16.1388C28.7244 15.8615 27.0497 9.33346 22.9431 9.33346C21.8177 9.30834 20.7204 9.6867 19.8497 10.4001C19.252 9.98483 18.5935 9.66459 17.8977 9.4508C18.3604 8.69629 18.628 7.83852 18.6764 6.9548C18.7003 6.15396 18.4468 5.36945 17.959 4.73391C17.4712 4.09836 16.7788 3.65076 15.9991 3.4668C15.2176 3.65358 14.5249 4.10525 14.0387 4.74501C13.5526 5.38477 13.303 6.17315 13.3324 6.97613C13.3808 7.85985 13.6484 8.71763 14.1111 9.47213C13.4153 9.68592 12.7568 10.0062 12.1591 10.4215C11.2883 9.70803 10.1911 9.32967 9.06572 9.3548C4.95906 9.33346 3.28439 15.8615 3.19906 16.1388C3.17327 16.2435 3.17985 16.3537 3.21794 16.4546C3.25603 16.5555 3.32383 16.6425 3.41239 16.7041C3.5011 16.7624 3.60492 16.7935 3.71106 16.7935C3.81719 16.7935 3.92101 16.7624 4.00972 16.7041C5.59551 15.7189 7.31184 14.9613 9.10839 14.4535C8.72289 15.5316 8.52799 16.6685 8.53239 17.8135C8.53204 18.9014 8.70856 19.9822 9.05506 21.0135C8.43291 21.2901 7.90212 21.7377 7.52445 22.3042C7.14678 22.8707 6.93776 23.5328 6.92172 24.2135C6.89938 25.0801 7.11533 25.9362 7.54605 26.6886C7.97677 27.4409 8.60573 28.0606 9.36439 28.4801C9.43789 28.5139 9.518 28.5308 9.59887 28.5297C9.67974 28.5286 9.75935 28.5094 9.83189 28.4737C9.90444 28.4379 9.9681 28.3864 10.0182 28.323C10.0684 28.2595 10.1037 28.1857 10.1217 28.1068C10.3951 26.985 10.8261 25.9077 11.4017 24.9068C12.5806 26.3075 14.2026 27.2633 15.9991 27.6161C17.7955 27.2633 19.4175 26.3075 20.5964 24.9068C21.172 25.9077 21.603 26.985 21.8764 28.1068C21.8944 28.1857 21.9297 28.2595 21.9799 28.323C22.03 28.3864 22.0937 28.4379 22.1662 28.4737C22.2388 28.5094 22.3184 28.5286 22.3992 28.5297C22.4801 28.5308 22.5602 28.5139 22.6337 28.4801C23.3823 28.0635 24.0038 27.4516 24.4321 26.7096C24.8603 25.9676 25.0793 25.1234 25.0657 24.2668C25.0497 23.5861 24.8407 22.924 24.463 22.3575C24.0853 21.791 23.5545 21.3434 22.9324 21.0668C23.2789 20.0355 23.4554 18.9547 23.4551 17.8668C23.4591 16.7279 23.2604 15.5974 22.8684 14.5281C24.6608 15.0426 26.3757 15.7961 27.9671 16.7681C28.0568 16.8273 28.1624 16.858 28.2699 16.8561C28.3775 16.8543 28.4819 16.8199 28.5696 16.7577C28.6572 16.6954 28.724 16.608 28.7612 16.5071C28.7983 16.4062 28.8041 16.2964 28.7777 16.1921L28.7991 16.1388ZM10.6657 17.8135C10.6625 16.6289 10.9365 15.4599 11.4657 14.4001L13.2577 15.7441L10.6657 18.3148V17.8135ZM15.9991 11.3175C16.6964 11.3309 17.3827 11.4952 18.0105 11.799C18.6384 12.1028 19.1931 12.539 19.6364 13.0775L16.1591 15.6801C16.1137 15.7165 16.0572 15.7363 15.9991 15.7363C15.9409 15.7363 15.8845 15.7165 15.8391 15.6801L12.3617 13.0775C12.805 12.539 13.3597 12.1028 13.9876 11.799C14.6155 11.4952 15.3017 11.3309 15.9991 11.3175ZM19.9564 22.2935L18.1324 20.5015L19.9564 19.2001C19.9564 19.2001 20.9057 20.1281 21.0231 20.1601C20.7793 20.9219 20.4195 21.6414 19.9564 22.2935ZM16.1591 19.9681C16.1137 20.0045 16.0572 20.0243 15.9991 20.0243C15.9409 20.0243 15.8845 20.0045 15.8391 19.9681L13.1831 18.1335L14.5484 16.7681L14.8791 17.0135C15.2022 17.2558 15.5952 17.3868 15.9991 17.3868C16.4029 17.3868 16.7959 17.2558 17.1191 17.0135L17.4497 16.7681L18.8151 18.1335L16.1591 19.9681ZM12.0417 22.2935C11.5786 21.6414 11.2188 20.9219 10.9751 20.1601C11.0497 20.1601 12.0417 19.2001 12.0417 19.2001L13.8657 20.5015L12.0417 22.2935ZM13.1084 23.5415L15.2417 21.4081C15.5009 21.5345 15.7854 21.6001 16.0737 21.6001C16.362 21.6001 16.6466 21.5345 16.9057 21.4081L19.0391 23.5415C18.2075 24.4368 17.1611 25.105 15.9991 25.4828C14.8734 25.0931 13.8644 24.4253 13.0657 23.5415H13.1084ZM21.3324 18.3148L18.7511 15.7441L20.5431 14.4001C21.0686 15.4608 21.3389 16.6297 21.3324 17.8135V18.3148Z" fill="#FAFAFA"/>
</svg>
