<svg width="32" height="32" viewBox="0 0 32 32" fill="none" xmlns="http://www.w3.org/2000/svg">
<path d="M20.375 3.75C21.8005 3.75 23.1678 4.31621 24.1758 5.32422C25.1838 6.33223 25.75 7.69946 25.75 9.125V18.75H26C26.9283 18.75 27.8189 19.1184 28.4753 19.7747C29.1316 20.4311 29.5 21.3217 29.5 22.25V23.5C29.5 24.0967 29.2631 24.6692 28.8411 25.0911C28.6671 25.2652 28.4664 25.4056 28.25 25.513V27.25C28.25 27.8023 27.8023 28.25 27.25 28.25C26.6977 28.25 26.25 27.8023 26.25 27.25V25.75H23.25V27.25C23.25 27.8023 22.8023 28.25 22.25 28.25C21.6977 28.25 21.25 27.8023 21.25 27.25V25.5117C21.0339 25.4043 20.8327 25.265 20.6589 25.0911C20.2369 24.6692 20 24.0967 20 23.5V22.25C20 21.3217 20.3684 20.4311 21.0247 19.7747C21.6811 19.1184 22.5717 18.75 23.5 18.75H23.75V9.125C23.75 8.22989 23.3947 7.37122 22.7617 6.73828C22.1288 6.10535 21.2701 5.75 20.375 5.75C19.4799 5.75 18.6212 6.10535 17.9883 6.73828C17.3553 7.37122 17 8.22989 17 9.125V22.875C17 24.3005 16.4338 25.6678 15.4258 26.6758C14.4178 27.6838 13.0505 28.25 11.625 28.25C10.1995 28.25 8.83223 27.6838 7.82422 26.6758C6.81621 25.6678 6.25 24.3005 6.25 22.875V13.25H6C5.07174 13.25 4.18112 12.8816 3.52474 12.2253C2.86836 11.5689 2.5 10.6783 2.5 9.75V8.5C2.5 7.90326 2.7369 7.33081 3.15885 6.90885C3.33288 6.73482 3.53366 6.59444 3.75 6.48698V4.75C3.75 4.19772 4.19772 3.75 4.75 3.75C5.30228 3.75 5.75 4.19772 5.75 4.75V6.25H8.75V4.75C8.75 4.19772 9.19772 3.75 9.75 3.75C10.3023 3.75 10.75 4.19772 10.75 4.75V6.48568C10.9666 6.59314 11.167 6.73467 11.3411 6.90885C11.7631 7.33081 12 7.90326 12 8.5V9.75C12 10.6783 11.6316 11.5689 10.9753 12.2253C10.3189 12.8816 9.42826 13.25 8.5 13.25H8.25V22.875C8.25 23.7701 8.60535 24.6288 9.23828 25.2617C9.87122 25.8947 10.7299 26.25 11.625 26.25C12.5201 26.25 13.3788 25.8947 14.0117 25.2617C14.5656 24.7079 14.9064 23.981 14.9831 23.2083L15 22.875V9.125C15 7.69946 15.5662 6.33223 16.5742 5.32422C17.5822 4.31621 18.9495 3.75 20.375 3.75Z" fill="#FAFAFA"/>
</svg>
