<svg width="32" height="32" viewBox="0 0 32 32" fill="none" xmlns="http://www.w3.org/2000/svg">
<path fill-rule="evenodd" clip-rule="evenodd" d="M22.3385 14.5145C24.9496 14.5148 27.1393 16.7042 27.1393 19.3153V22.7827H27.8255C28.2671 22.7829 28.625 23.1418 28.625 23.5835C28.6247 24.0249 28.267 24.3827 27.8255 24.383H26.1862V27.8504C26.1862 28.2921 25.8284 28.651 25.3867 28.6512C24.9449 28.6512 24.5859 28.2922 24.5859 27.8504V24.383H20.0898V27.8504C20.0898 28.292 19.7319 28.6509 19.2904 28.6512C18.8486 28.6512 18.4896 28.2922 18.4896 27.8504V24.383H16.8516C16.4099 24.383 16.0511 24.0251 16.0508 23.5835C16.0508 23.1417 16.4097 22.7827 16.8516 22.7827H17.5365V19.3153C17.5365 16.704 19.7274 14.5145 22.3385 14.5145ZM24.1237 19.3595C23.8113 19.0472 23.3046 19.0472 22.9922 19.3595L22.3385 20.0132L21.6849 19.3595C21.3725 19.0471 20.8658 19.0471 20.5534 19.3595C20.241 19.672 20.241 20.1786 20.5534 20.491L21.5378 21.4754V22.7827H23.138V21.4754L24.1237 20.491C24.4359 20.1787 24.4357 19.672 24.1237 19.3595Z" fill="#FAFAFA"/>
<path fill-rule="evenodd" clip-rule="evenodd" d="M14.5794 3.34912C17.5781 3.34918 20.318 3.85906 22.3281 4.70329C23.3319 5.12491 24.1784 5.64125 24.7826 6.24105C25.3886 6.84294 25.7786 7.56064 25.7786 8.36344V13.9377C24.7807 13.2915 23.5978 12.9143 22.3385 12.9142C19.8986 12.9142 17.7455 14.3309 16.668 16.3752V16.3634C16.668 15.8039 16.2143 15.3506 15.6549 15.3504C15.0953 15.3504 14.6406 15.8038 14.6406 16.3634C14.6408 16.9229 15.0954 17.3765 15.6549 17.3765C15.9176 17.3764 16.1573 17.2762 16.3372 17.1121C16.079 17.8012 15.9375 18.5439 15.9375 19.3153V20.8075C15.4921 20.8308 15.0387 20.8426 14.5794 20.8426C12.055 20.8426 9.89045 21.854 8.34115 22.8869C7.56906 23.4016 6.95752 23.9172 6.54036 24.3022C6.33221 24.4944 6.17235 24.6533 6.06641 24.7632C6.01351 24.818 5.97494 24.8615 5.94922 24.8895L5.92057 24.9194L5.91406 24.9272L5.91276 24.9285C5.7664 25.0951 5.53185 25.1538 5.32422 25.0757C5.1166 24.9976 4.97937 24.7988 4.97917 24.577V16.577C4.97917 16.4355 5.03541 16.2994 5.13542 16.1994C6.32418 15.0106 7.79771 14.1185 9.33984 13.5028C9.69281 13.3623 9.63763 12.8458 9.26302 12.7827L9.07812 12.7515C8.25866 12.5504 7.50281 12.3051 6.82943 12.0223C5.8259 11.6008 4.97901 11.0855 4.375 10.4858C3.76895 9.88404 3.37902 9.16609 3.37891 8.36344V8.36084C3.37964 7.55896 3.76943 6.84237 4.375 6.24105C4.97907 5.64123 5.82561 5.12493 6.82943 4.70329C8.83961 3.85901 11.5806 3.34912 14.5794 3.34912ZM8.97266 17.3634C8.41301 17.3634 7.95834 17.8169 7.95833 18.3765C7.95833 18.9361 8.41301 19.3895 8.97266 19.3895C9.53214 19.3893 9.98568 18.936 9.98568 18.3765C9.98567 17.817 9.53213 17.3637 8.97266 17.3634ZM12.1875 16.0106C11.6281 16.0108 11.1747 16.4642 11.1745 17.0236C11.1745 17.5831 11.628 18.0377 12.1875 18.0379C12.7472 18.0379 13.2005 17.5832 13.2005 17.0236C13.2003 16.4641 12.747 16.0106 12.1875 16.0106ZM14.5794 6.39079C13.217 6.39079 11.9621 6.5557 11.0312 6.8348C10.5695 6.97328 10.1567 7.14832 9.84766 7.36735C9.5524 7.57664 9.24609 7.90603 9.24609 8.36344C9.24627 8.82061 9.55251 9.14899 9.84766 9.35824C10.1568 9.57735 10.5693 9.75357 11.0312 9.89209C11.9621 10.1712 13.217 10.3361 14.5794 10.3361C15.9416 10.3361 17.1955 10.1711 18.1263 9.89209C18.5882 9.75358 19.0008 9.57735 19.3099 9.35824C19.6051 9.149 19.9126 8.82064 19.9128 8.36344C19.9128 7.90603 19.6052 7.57664 19.3099 7.36735C19.0008 7.14833 18.588 6.97327 18.1263 6.8348C17.1955 6.55574 15.9417 6.39083 14.5794 6.39079Z" fill="#FAFAFA"/>
<path d="M3.6237 11.2424C4.35655 11.9699 5.33517 12.5524 6.41667 13.0067C6.67859 13.1167 6.95114 13.2207 7.23307 13.3192C6.2428 13.8662 5.26522 14.5618 4.38151 15.4455C4.08145 15.7455 3.91276 16.1527 3.91276 16.577V17.5353C3.57862 17.108 3.37891 16.61 3.37891 16.0431V10.9832C3.45778 11.0725 3.53997 11.1592 3.6237 11.2424Z" fill="#FAFAFA"/>
</svg>
