<svg width="32" height="32" viewBox="0 0 32 32" fill="none" xmlns="http://www.w3.org/2000/svg">
<path d="M13.668 5.67944C13.9444 5.70638 14.2156 5.77527 14.4736 5.88062C14.8175 6.02107 15.1308 6.22726 15.3955 6.48804L15.3975 6.48706L18.0068 9.05737L18.1357 9.16187C18.2738 9.25229 18.4402 9.30332 18.6123 9.30347H25.2305C26.2252 9.30347 27.1826 9.69213 27.8906 10.3894C28.5991 11.0871 28.9999 12.0367 29 13.03V23.9392C28.9999 24.9326 28.5991 25.8831 27.8906 26.5808C27.1826 27.278 26.2252 27.6667 25.2305 27.6667H6.76953C5.89916 27.6667 5.05779 27.3684 4.38672 26.8269L4.10938 26.5808C3.40094 25.8831 3.00009 24.9326 3 23.9392V9.39429C3.00009 8.4009 3.40093 7.45039 4.10938 6.75269L4.38672 6.50659C5.05779 5.96508 5.89916 5.66675 6.76953 5.66675H13.3896L13.668 5.67944Z" fill="#FAFAFA"/>
<path d="M19 16.3333V16.9843C19.0001 16.3333 18.9996 16.3333 19 16.3333H19.0195C19.0268 16.3334 19.035 16.3343 19.0443 16.3346C19.0634 16.3352 19.0874 16.3353 19.1146 16.3372C19.1684 16.341 19.2387 16.3483 19.3203 16.3619C19.4794 16.3884 19.7071 16.4441 19.9466 16.5638C20.1902 16.6856 20.4649 16.8841 20.6758 17.2005C20.8909 17.5231 21 17.9083 21 18.3333V21.3333V21.3528C20.9999 21.3601 20.999 21.3683 20.9987 21.3776C20.9981 21.3967 20.998 21.4207 20.9961 21.4479C20.9922 21.5017 20.9849 21.572 20.9714 21.6536C20.9448 21.8127 20.8892 22.0404 20.7695 22.2799C20.6477 22.5235 20.4492 22.7982 20.1328 23.0091C19.8102 23.2241 19.425 23.3333 19 23.3333H13V22.3333C13 23.3333 13.0005 23.3333 13 23.3333H12.9805C12.9732 23.3332 12.965 23.3323 12.9557 23.332C12.9366 23.3313 12.9126 23.3313 12.8854 23.3294C12.8316 23.3255 12.7613 23.3182 12.6797 23.3046C12.5206 23.2781 12.2929 23.2225 12.0534 23.1028C11.8098 22.981 11.5351 22.7824 11.3242 22.4661C11.1091 22.1435 11 21.7583 11 21.3333V18.3333H12C11 18.3333 11 18.3338 11 18.3333V18.3138C11.0001 18.3065 11.001 18.2983 11.0013 18.289C11.0019 18.2699 11.002 18.2458 11.0039 18.2187C11.0078 18.1649 11.0151 18.0946 11.0286 18.013C11.0552 17.8538 11.1108 17.6262 11.2305 17.3867C11.3523 17.143 11.5508 16.8684 11.8672 16.6575C12.1898 16.4424 12.575 16.3333 13 16.3333H19ZM13.0026 18.3411C13.0006 18.3529 13.0001 18.3612 13 18.3619V21.3281C13.0026 21.3286 13.0051 21.3302 13.0078 21.3307C13.0196 21.3326 13.0279 21.3332 13.0286 21.3333H18.9948C18.9953 21.3307 18.9969 21.3282 18.9974 21.3255C18.9994 21.3137 18.9999 21.3054 19 21.3046V18.3372C18.9975 18.3367 18.9948 18.3363 18.9922 18.3359C18.9804 18.3339 18.9721 18.3333 18.9714 18.3333H13.0052C13.0047 18.3359 13.0031 18.3384 13.0026 18.3411Z" fill="#131313"/>
<path d="M17 17.3333V15.3333C17 15.068 16.8946 14.8138 16.707 14.6262C16.5195 14.4387 16.2652 14.3333 16 14.3333C15.7348 14.3333 15.4805 14.4387 15.293 14.6262C15.1054 14.8138 15 15.068 15 15.3333V17.3333C15 17.8855 14.5523 18.3333 14 18.3333C13.4477 18.3333 13 17.8855 13 17.3333V15.3333C13 14.5376 13.3163 13.7748 13.8789 13.2122C14.4415 12.6496 15.2044 12.3333 16 12.3333C16.7956 12.3333 17.5585 12.6496 18.1211 13.2122C18.6837 13.7748 19 14.5376 19 15.3333V17.3333C19 17.8855 18.5523 18.3333 18 18.3333C17.4477 18.3333 17 17.8855 17 17.3333Z" fill="#131313"/>
</svg>
