<svg width="32" height="32" viewBox="0 0 32 32" fill="none" xmlns="http://www.w3.org/2000/svg">
<path d="M16.6572 10.5488L16.668 10.667C16.668 10.624 16.6621 10.5818 16.6543 10.541C16.6548 10.5437 16.6567 10.5462 16.6572 10.5488Z" fill="#FAFAFA"/>
<path d="M16.1357 10.0137C16.1769 10.0221 16.2169 10.0351 16.2549 10.0508C16.1767 10.0185 16.0907 10.0001 16.001 10L16.1357 10.0137Z" fill="#FAFAFA"/>
<path fill-rule="evenodd" clip-rule="evenodd" d="M16 2.66602C23.3638 2.66602 29.334 8.6362 29.334 16C29.3339 23.3637 23.3637 29.333 16 29.333C8.63641 29.3328 2.66708 23.3636 2.66699 16C2.66699 8.63631 8.63635 2.66619 16 2.66602ZM14.334 13.667C13.7817 13.667 13.334 14.1147 13.334 14.667C13.3341 15.2192 13.7818 15.667 14.334 15.667H15.001V21.667C15.0011 22.2192 15.4488 22.667 16.001 22.667C16.553 22.6668 17.0008 22.2191 17.001 21.667V14.667C17.001 14.1148 16.5531 13.6672 16.001 13.667H14.334ZM16.002 9.75C15.4957 9.75 15.084 10.1607 15.084 10.667C15.0842 11.1731 15.4958 11.583 16.002 11.583C16.5075 11.5823 16.9178 11.1727 16.918 10.667C16.918 10.1612 16.5076 9.7507 16.002 9.75Z" fill="#FAFAFA"/>
</svg>
