<svg width="32" height="32" viewBox="0 0 32 32" fill="none" xmlns="http://www.w3.org/2000/svg">
<path d="M7.66667 4C5.64162 4 4 5.64162 4 7.66667V9.5621C4 10.5346 4.38631 11.4672 5.07394 12.1548L11.5118 18.5927C11.8244 18.9053 12 19.3292 12 19.7712V28.3333C12 28.6458 12.1461 28.9404 12.3949 29.1295C12.6437 29.3186 12.9665 29.3805 13.2676 29.2969L19.2676 27.6302C19.7005 27.51 20 27.1159 20 26.6667V19.7712C20 19.3292 20.1756 18.9053 20.4882 18.5927L26.9261 12.1548C27.6137 11.4672 28 10.5346 28 9.5621V7.66667C28 5.64162 26.3584 4 24.3333 4H7.66667Z" fill="#FAFAFA"/>
</svg>
