<svg width="32" height="32" viewBox="0 0 32 32" fill="none" xmlns="http://www.w3.org/2000/svg">
<path fill-rule="evenodd" clip-rule="evenodd" d="M18.1543 3.62695C18.7063 3.62723 19.1543 4.07614 19.1543 4.62826C19.1539 5.18007 18.7061 5.62797 18.1543 5.62826H15.3053V8.76107H20.9395C22.4546 8.76107 23.6828 9.9907 23.6829 11.5059V13.5827H27.3327C27.8849 13.5827 28.3325 14.0305 28.3327 14.5827V17.7285C28.3321 18.2803 27.8846 18.7285 27.3327 18.7285H23.6829V20.8053C23.6825 22.3202 22.4544 23.5488 20.9395 23.5488H18.2233V26.2181C18.2233 26.2709 18.2182 26.3225 18.2103 26.373H24.9993C25.5514 26.373 25.999 26.821 25.9993 27.373C25.9993 27.9253 25.5516 28.373 24.9993 28.373H3.66602C3.11373 28.373 2.66602 27.9253 2.66602 27.373C2.66632 26.821 3.11392 26.373 3.66602 26.373H10.8001C10.7923 26.3225 10.7884 26.2708 10.7884 26.2181V23.5488H9.31575C6.1958 23.5488 3.66637 21.019 3.66602 17.8991V14.4121C3.66606 11.292 6.19561 8.76107 9.31575 8.76107H13.3053V5.62826H10.4551C9.90301 5.62826 9.45543 5.18024 9.45508 4.62826C9.45508 4.07597 9.90279 3.62695 10.4551 3.62695H18.1543ZM11.7689 17.6647C11.4721 17.6647 11.2184 17.7734 11.0085 17.9915C10.7985 18.2099 10.6934 18.4702 10.6934 18.7715C10.6934 19.0798 10.7984 19.3422 11.0085 19.5579C11.2184 19.7736 11.4696 19.8821 11.7624 19.8822C12.0619 19.8822 12.317 19.7738 12.5267 19.5579C12.7364 19.3419 12.8418 19.0797 12.8418 18.7728C12.8417 18.4719 12.737 18.2118 12.528 17.9928C12.319 17.7739 12.0658 17.6648 11.7689 17.6647ZM17.304 17.6647C17.0044 17.6648 16.7495 17.7735 16.5397 17.9915C16.3297 18.21 16.2246 18.4725 16.2246 18.778C16.2246 19.0835 16.3295 19.3441 16.5384 19.5592C16.7471 19.7739 17.001 19.882 17.3001 19.8822C17.5996 19.8822 17.8548 19.7737 18.0645 19.5579C18.2742 19.3419 18.3796 19.0797 18.3796 18.7728C18.3795 18.4718 18.2753 18.2118 18.0671 17.9928C17.8588 17.7739 17.604 17.6647 17.304 17.6647ZM8.89128 15.1061C8.5914 15.1062 8.33773 15.2136 8.13086 15.4277C7.92391 15.642 7.82098 15.9022 7.82096 16.2077C7.82096 16.5132 7.92355 16.7762 8.12956 16.9954C8.33551 17.2145 8.58878 17.3236 8.88867 17.3236C9.18867 17.3236 9.44429 17.2151 9.6543 16.9967C9.86424 16.7784 9.96932 16.518 9.9694 16.2168C9.9694 15.9155 9.86456 15.6548 9.6556 15.4355C9.44652 15.2163 9.19131 15.1061 8.89128 15.1061ZM14.5579 15.1061C14.261 15.1061 14.0054 15.2159 13.7923 15.4342C13.5792 15.6527 13.472 15.9128 13.472 16.2142C13.4721 16.5155 13.5788 16.7763 13.791 16.9954C14.0032 17.2145 14.256 17.3236 14.5488 17.3236C14.8484 17.3236 15.1034 17.215 15.3132 16.9967C15.5228 16.7784 15.6269 16.518 15.627 16.2168C15.627 15.9156 15.5238 15.6547 15.3158 15.4355C15.1076 15.2165 14.8546 15.1063 14.5579 15.1061ZM20.1882 15.1061C19.8886 15.1061 19.6336 15.2159 19.4238 15.4342C19.2141 15.6527 19.1087 15.9128 19.1087 16.2142C19.1088 16.5155 19.213 16.7763 19.4212 16.9954C19.6294 17.2145 19.8823 17.3235 20.179 17.3236C20.4759 17.3236 20.7316 17.215 20.9447 16.9967C21.1577 16.7784 21.2636 16.518 21.2637 16.2168C21.2637 15.9155 21.1581 15.6547 20.946 15.4355C20.7338 15.2164 20.4809 15.1062 20.1882 15.1061ZM11.7207 12.5488C11.4238 12.5488 11.1703 12.657 10.9603 12.873C10.7503 13.0891 10.6452 13.3498 10.6452 13.6543C10.6453 13.9655 10.7504 14.2269 10.9603 14.4395C11.1703 14.652 11.4213 14.7584 11.7142 14.7585C12.0138 14.7585 12.2688 14.6527 12.4785 14.4408C12.6882 14.2288 12.7936 13.9681 12.7936 13.6595C12.7935 13.3512 12.6886 13.089 12.4798 12.873C12.2708 12.657 12.0176 12.5489 11.7207 12.5488ZM17.3652 12.5488C17.0652 12.5488 16.8096 12.657 16.5996 12.873C16.3897 13.0891 16.2845 13.3498 16.2845 13.6543C16.2846 13.9654 16.389 14.227 16.597 14.4395C16.8053 14.6521 17.06 14.7585 17.36 14.7585C17.6599 14.7584 17.9144 14.6526 18.1243 14.4408C18.3344 14.2288 18.4395 13.9682 18.4395 13.6595C18.4393 13.3511 18.3351 13.089 18.127 12.873C17.9188 12.6572 17.6651 12.5489 17.3652 12.5488Z" fill="#FAFAFA"/>
</svg>
