<svg width="32" height="32" viewBox="0 0 32 32" fill="none" xmlns="http://www.w3.org/2000/svg">
<path fill-rule="evenodd" clip-rule="evenodd" d="M13.6107 3.67403C14.9384 2.33001 17.059 2.33001 18.3867 3.67403C19.7955 5.10069 21.8454 7.36156 23.5482 9.98914C25.2367 12.5948 26.6654 15.6838 26.6654 18.7417C26.6654 24.5991 21.8825 29.3342 15.9987 29.3342C10.1149 29.3342 5.33204 24.5991 5.33203 18.7417C5.33203 15.6838 6.76065 12.5948 8.44922 9.98914C10.152 7.36156 12.2019 5.10069 13.6107 3.67403ZM11.9987 21.3329C11.6209 21.3329 11.3037 21.4614 11.0482 21.717C10.793 21.9724 10.6655 22.2888 10.6654 22.6662C10.6654 23.0439 10.7928 23.3612 11.0482 23.6167C11.3037 23.8723 11.6209 23.9996 11.9987 23.9996C12.3765 23.9996 12.6937 23.8723 12.9492 23.6167C13.2046 23.3612 13.332 23.0439 13.332 22.6662C13.3319 22.2888 13.2044 21.9724 12.9492 21.717C12.6937 21.4614 12.3765 21.3329 11.9987 21.3329ZM15.9987 21.3329C15.6209 21.3329 15.3037 21.4614 15.0482 21.717C14.793 21.9724 14.6655 22.2888 14.6654 22.6662C14.6654 23.0439 14.7928 23.3612 15.0482 23.6167C15.3037 23.8723 15.6209 23.9996 15.9987 23.9996C16.3765 23.9996 16.6937 23.8723 16.9492 23.6167C17.2046 23.3612 17.332 23.0439 17.332 22.6662C17.3319 22.2888 17.2044 21.9724 16.9492 21.717C16.6937 21.4614 16.3765 21.3329 15.9987 21.3329ZM19.9987 21.3329C19.6209 21.3329 19.3037 21.4614 19.0482 21.717C18.793 21.9724 18.6655 22.2888 18.6654 22.6662C18.6654 23.0439 18.7928 23.3612 19.0482 23.6167C19.3037 23.8723 19.6209 23.9996 19.9987 23.9996C20.3765 23.9996 20.6937 23.8723 20.9492 23.6167C21.2046 23.3612 21.332 23.0439 21.332 22.6662C21.3319 22.2888 21.2044 21.9724 20.9492 21.717C20.6937 21.4614 20.3765 21.3329 19.9987 21.3329ZM9.9987 17.3329C9.62092 17.3329 9.30373 17.4614 9.04818 17.717C8.79301 17.9724 8.66546 18.2888 8.66536 18.6662C8.66536 19.0439 8.79276 19.3612 9.04818 19.6167C9.30373 19.8723 9.62092 19.9996 9.9987 19.9996C10.3765 19.9996 10.6937 19.8723 10.9492 19.6167C11.2046 19.3612 11.332 19.0439 11.332 18.6662C11.3319 18.2888 11.2044 17.9724 10.9492 17.717C10.6937 17.4614 10.3765 17.3329 9.9987 17.3329ZM13.9987 17.3329C13.6209 17.3329 13.3037 17.4614 13.0482 17.717C12.793 17.9724 12.6655 18.2888 12.6654 18.6662C12.6654 19.0439 12.7928 19.3612 13.0482 19.6167C13.3037 19.8723 13.6209 19.9996 13.9987 19.9996C14.3765 19.9996 14.6937 19.8723 14.9492 19.6167C15.2046 19.3612 15.332 19.0439 15.332 18.6662C15.3319 18.2888 15.2044 17.9724 14.9492 17.717C14.6937 17.4614 14.3765 17.3329 13.9987 17.3329ZM17.9987 17.3329C17.6209 17.3329 17.3037 17.4614 17.0482 17.717C16.793 17.9724 16.6655 18.2888 16.6654 18.6662C16.6654 19.0439 16.7928 19.3612 17.0482 19.6167C17.3037 19.8723 17.6209 19.9996 17.9987 19.9996C18.3765 19.9996 18.6937 19.8723 18.9492 19.6167C19.2046 19.3612 19.332 19.0439 19.332 18.6662C19.3319 18.2888 19.2044 17.9724 18.9492 17.717C18.6937 17.4614 18.3765 17.3329 17.9987 17.3329ZM21.9987 17.3329C21.6209 17.3329 21.3037 17.4614 21.0482 17.717C20.793 17.9724 20.6655 18.2888 20.6654 18.6662C20.6654 19.0439 20.7928 19.3612 21.0482 19.6167C21.3037 19.8723 21.6209 19.9996 21.9987 19.9996C22.3765 19.9996 22.6937 19.8723 22.9492 19.6167C23.2046 19.3612 23.332 19.0439 23.332 18.6662C23.3319 18.2888 23.2044 17.9724 22.9492 17.717C22.6937 17.4614 22.3765 17.3329 21.9987 17.3329ZM11.9987 13.3329C11.6209 13.3329 11.3037 13.4614 11.0482 13.717C10.793 13.9724 10.6655 14.2888 10.6654 14.6662C10.6654 15.0439 10.7928 15.3612 11.0482 15.6167C11.3037 15.8723 11.6209 15.9996 11.9987 15.9996C12.3765 15.9996 12.6937 15.8723 12.9492 15.6167C13.2046 15.3612 13.332 15.0439 13.332 14.6662C13.3319 14.2888 13.2044 13.9724 12.9492 13.717C12.6937 13.4614 12.3765 13.3329 11.9987 13.3329ZM15.9987 13.3329C15.6209 13.3329 15.3037 13.4614 15.0482 13.717C14.793 13.9724 14.6655 14.2888 14.6654 14.6662C14.6654 15.0439 14.7928 15.3612 15.0482 15.6167C15.3037 15.8723 15.6209 15.9996 15.9987 15.9996C16.3765 15.9996 16.6937 15.8723 16.9492 15.6167C17.2046 15.3612 17.332 15.0439 17.332 14.6662C17.3319 14.2888 17.2044 13.9724 16.9492 13.717C16.6937 13.4614 16.3765 13.3329 15.9987 13.3329ZM20.2826 13.3329C19.9048 13.3329 19.5876 13.4614 19.332 13.717C19.0767 13.9724 18.9493 14.2887 18.9492 14.6662C18.9492 15.044 19.0765 15.3612 19.332 15.6167C19.5876 15.8723 19.9048 15.9996 20.2826 15.9996C20.66 15.9994 20.9764 15.8721 21.2318 15.6167C21.4873 15.3612 21.6159 15.044 21.6159 14.6662C21.6158 14.2886 21.4872 13.9725 21.2318 13.717C20.9763 13.4616 20.6601 13.333 20.2826 13.3329ZM13.9987 9.33289C13.6209 9.33289 13.3037 9.46144 13.0482 9.717C12.793 9.97239 12.6655 10.2888 12.6654 10.6662C12.6654 11.0439 12.7928 11.3612 13.0482 11.6167C13.3037 11.8723 13.6209 11.9996 13.9987 11.9996C14.3765 11.9996 14.6937 11.8723 14.9492 11.6167C15.2046 11.3612 15.332 11.0439 15.332 10.6662C15.3319 10.2888 15.2044 9.97239 14.9492 9.717C14.6937 9.46144 14.3765 9.33289 13.9987 9.33289ZM17.9987 9.33289C17.6209 9.33289 17.3037 9.46144 17.0482 9.717C16.793 9.97239 16.6655 10.2888 16.6654 10.6662C16.6654 11.0439 16.7928 11.3612 17.0482 11.6167C17.3037 11.8723 17.6209 11.9996 17.9987 11.9996C18.3765 11.9996 18.6937 11.8723 18.9492 11.6167C19.2046 11.3612 19.332 11.0439 19.332 10.6662C19.3319 10.2888 19.2044 9.97239 18.9492 9.717C18.6937 9.46144 18.3765 9.33289 17.9987 9.33289Z" fill="#FAFAFA"/>
</svg>
