<svg width="32" height="32" viewBox="0 0 32 32" fill="none" xmlns="http://www.w3.org/2000/svg">
<path d="M23.4779 17.4465C24.0422 17.3098 24.6294 17.2962 25.1992 17.4074C25.769 17.5186 26.3085 17.7522 26.7799 18.091C27.2516 18.43 27.6451 18.8674 27.9323 19.3722C27.9946 19.5027 28.0314 19.6445 28.0391 19.7889C28.0467 19.9331 28.0246 20.0772 27.9766 20.2134C27.9286 20.3497 27.8546 20.4757 27.7578 20.5832C27.6613 20.6907 27.5444 20.7786 27.4141 20.841L23.819 22.5024L23.4219 22.6925L22.6068 27.1287C22.5955 27.2262 22.5594 27.3196 22.5026 27.3996C22.4458 27.4794 22.3695 27.5444 22.2812 27.5871L20.0938 28.7811C20.0006 28.8281 19.8959 28.8503 19.7917 28.8449C19.6875 28.8394 19.5864 28.8062 19.4987 28.7498C19.4112 28.6935 19.3398 28.6156 19.2917 28.5233C19.2435 28.4307 19.2198 28.3268 19.224 28.2225L19.7578 24.647L19.4974 24.7668L15.6094 26.703C15.3553 26.835 15.0585 26.8624 14.7852 26.7772C14.5119 26.6919 14.2838 26.5014 14.1497 26.2485L12.0482 22.0246C11.9922 21.8985 11.9859 21.7556 12.0299 21.6248C12.0742 21.4939 12.1665 21.3839 12.2878 21.3175L13.8086 20.535C13.9324 20.4619 14.0805 20.4396 14.2201 20.4738C14.3598 20.5081 14.4814 20.5963 14.5573 20.7186L15.9948 22.3553L21.9284 18.2004C22.3844 17.8406 22.9133 17.5831 23.4779 17.4465Z" fill="#FAFAFA"/>
<path d="M20.7253 2.6665C21.2775 2.6665 21.7253 3.11422 21.7253 3.6665V5.33317H23.3919C25.417 5.33317 27.0586 6.97479 27.0586 8.99984V13.6665C27.0586 14.2188 26.6109 14.6665 26.0586 14.6665C25.5063 14.6665 25.0586 14.2188 25.0586 13.6665V13.3332H5.05859V24.3332C5.05859 25.2536 5.80479 25.9998 6.72526 25.9998H10.0586C10.6109 25.9998 11.0586 26.4476 11.0586 26.9998C11.0586 27.5521 10.6109 27.9998 10.0586 27.9998H6.72526C4.70022 27.9998 3.05859 26.3582 3.05859 24.3332V8.99984C3.05859 6.97479 4.70022 5.33317 6.72526 5.33317H8.39193V3.6665C8.39193 3.11422 8.83964 2.6665 9.39193 2.6665C9.94421 2.6665 10.3919 3.11422 10.3919 3.6665V5.33317H19.7253V3.6665C19.7253 3.11422 20.173 2.6665 20.7253 2.6665Z" fill="#FAFAFA"/>
</svg>
