<svg width="32" height="32" viewBox="0 0 32 32" fill="none" xmlns="http://www.w3.org/2000/svg">
<path fill-rule="evenodd" clip-rule="evenodd" d="M25.5404 2.6722C27.6539 2.77928 29.3346 4.52685 29.3346 6.66699V25.3337L29.3294 25.5394C29.2258 27.5848 27.5858 29.2248 25.5404 29.3284L25.3346 29.3337H6.66797L6.46224 29.3284C4.41685 29.2248 2.7768 27.5848 2.67318 25.5394L2.66797 25.3337V6.66699C2.66797 4.52685 4.34871 2.77928 6.46224 2.6722L6.66797 2.66699H25.3346L25.5404 2.6722ZM9.43229 7.57454C8.89911 7.57459 8.38743 7.78737 8.01042 8.16439C7.6336 8.54137 7.42192 9.05324 7.42187 9.58626V20.0967C7.42207 20.6296 7.63356 21.1417 8.01042 21.5186C8.3874 21.8954 8.89927 22.107 9.43229 22.1071H12.4753V23.6331C12.4754 24.0321 12.6333 24.4161 12.9154 24.6982C13.1976 24.9803 13.5814 25.1383 13.9805 25.1383H18.0221C18.4212 25.1383 18.805 24.9803 19.0872 24.6982C19.3693 24.4161 19.5272 24.0321 19.5273 23.6331V22.1071H22.5703C23.1033 22.107 23.6152 21.8954 23.9922 21.5186C24.369 21.1417 24.5805 20.6296 24.5807 20.0967V9.58626C24.5807 9.05324 24.369 8.54137 23.9922 8.16439C23.6152 7.78737 23.1035 7.57459 22.5703 7.57454H20.9167V11.9548C20.916 12.5064 20.4685 12.9535 19.9167 12.9535C19.3646 12.9535 18.917 12.5054 18.9167 11.9535V7.57454H17.043V11.9548C17.0423 12.5064 16.5948 12.9535 16.043 12.9535C15.4909 12.9535 15.0433 12.5054 15.043 11.9535V7.57454H13.2552V11.9548C13.2545 12.5064 12.8071 12.9535 12.2552 12.9535C11.7031 12.9535 11.2556 12.5054 11.2552 11.9535V7.57454H9.43229Z" fill="#FAFAFA"/>
</svg>
