<svg width="32" height="32" viewBox="0 0 32 32" fill="none" xmlns="http://www.w3.org/2000/svg">
<path d="M15.9998 8.00065C17.3778 8.00065 18.5288 6.92649 18.6659 5.58398C18.6784 5.45898 18.5409 5.33398 18.4159 5.33398C18.3484 5.33405 18.2814 5.34677 18.2185 5.37148C18.2102 5.37482 17.3395 5.70898 15.9998 5.70898C14.6601 5.70898 13.7878 5.37565 13.7811 5.37148C13.7101 5.34678 13.6355 5.3341 13.5603 5.33398H13.5578C13.5266 5.33563 13.4961 5.34342 13.4681 5.35688C13.4399 5.37035 13.4147 5.38923 13.3939 5.41246C13.373 5.43568 13.357 5.46279 13.3467 5.49222C13.3364 5.52165 13.3319 5.55284 13.3337 5.58398C13.4733 6.92398 14.6251 8.00065 15.9998 8.00065Z" fill="#FAFAFA"/>
<path d="M27.4644 7.56279L20.9999 5.34626C20.9723 5.3368 20.9428 5.33342 20.9136 5.33635C20.8845 5.33928 20.8564 5.34845 20.8312 5.36321C20.8061 5.37798 20.7846 5.39798 20.7681 5.42179C20.7518 5.4456 20.7409 5.47265 20.7365 5.50102C20.5494 6.59854 19.971 7.59552 19.1041 8.31466C18.2373 9.03381 17.138 9.42842 16.002 9.42842C14.866 9.42842 13.7668 9.03381 12.8999 8.31466C12.033 7.59552 11.4546 6.59854 11.2676 5.50102C11.2632 5.47218 11.2523 5.44466 11.2356 5.42047C11.219 5.39629 11.1971 5.37604 11.1715 5.36121C11.1459 5.34638 11.1172 5.33735 11.0875 5.33476C11.0579 5.33217 11.028 5.3361 11.0001 5.34626L4.53567 7.56279C4.35474 7.62483 4.20256 7.74845 4.10685 7.91114C4.01114 8.07381 3.97825 8.26476 4.01418 8.44921L4.84566 12.7589C4.87766 12.9231 4.96248 13.0731 5.08771 13.1867C5.21293 13.3004 5.372 13.3718 5.54165 13.3906L7.98562 13.6609C8.08539 13.6719 8.17727 13.7193 8.24304 13.7937C8.30879 13.8679 8.34363 13.9638 8.34063 14.062L7.97412 25.8597C7.96927 26.0118 8.0097 26.1619 8.09049 26.2918C8.17129 26.4218 8.28894 26.5258 8.42913 26.5914C8.54565 26.6429 8.67226 26.6688 8.8001 26.6673H23.1999C23.3278 26.6688 23.4544 26.6429 23.5709 26.5914C23.7111 26.5258 23.8287 26.4218 23.9095 26.2918C23.9903 26.1619 24.0308 26.0118 24.0259 25.8597L23.6594 14.062C23.6564 13.9638 23.6912 13.8679 23.7569 13.7937C23.8228 13.7193 23.9146 13.6719 24.0144 13.6609L26.4584 13.3906C26.628 13.3718 26.7871 13.3004 26.9123 13.1867C27.0375 13.0731 27.1224 12.9231 27.1544 12.7589L27.9858 8.44921C28.0217 8.26476 27.9888 8.07381 27.8932 7.91114C27.7975 7.74845 27.6453 7.62483 27.4644 7.56279Z" fill="#FAFAFA"/>
</svg>
