<svg width="32" height="32" viewBox="0 0 32 32" fill="none" xmlns="http://www.w3.org/2000/svg">
<path fill-rule="evenodd" clip-rule="evenodd" d="M10.5591 2.66699C9.84688 2.66698 9.25243 2.66697 8.76678 2.70665C8.26027 2.74803 7.78473 2.83751 7.33505 3.06664C6.64512 3.41817 6.08419 3.9791 5.73265 4.66903C5.50353 5.11871 5.41405 5.59425 5.37266 6.10077C5.33299 6.58639 5.333 7.18083 5.33301 7.89301V25.3174C5.33299 25.9358 5.33297 26.4679 5.3714 26.8878C5.40974 27.3067 5.49746 27.799 5.81216 28.2109C6.22945 28.7572 6.86637 29.0916 7.55295 29.125C8.07074 29.1502 8.52581 28.9429 8.89242 28.7367C9.25989 28.5299 9.69789 28.2278 10.207 27.8767L14.1451 25.1608C15.0857 24.5121 15.3476 24.3505 15.6011 24.288C15.8629 24.2235 16.1365 24.2235 16.3983 24.288C16.6518 24.3505 16.9137 24.5121 17.8543 25.1608L21.7924 27.8767C22.3015 28.2278 22.7395 28.5299 23.1069 28.7367C23.4735 28.9429 23.9286 29.1502 24.4464 29.125C25.133 29.0916 25.7699 28.7572 26.1872 28.2109C26.5019 27.799 26.5896 27.3067 26.628 26.8878C26.6664 26.4679 26.6664 25.9359 26.6663 25.3175V7.89306C26.6664 7.18094 26.6664 6.58637 26.6267 6.10077C26.5853 5.59425 26.4958 5.11871 26.2667 4.66903C25.9152 3.9791 25.3542 3.41817 24.6643 3.06664C24.2146 2.83751 23.7391 2.74803 23.2326 2.70665C22.7469 2.66697 22.1525 2.66698 21.4403 2.66699H10.5591ZM15.9997 8.00033C16.552 8.00033 16.9997 8.44804 16.9997 9.00033V12.3337H20.333C20.8853 12.3337 21.333 12.7814 21.333 13.3337C21.333 13.8859 20.8853 14.3337 20.333 14.3337H16.9997V17.667C16.9997 18.2193 16.552 18.667 15.9997 18.667C15.4474 18.667 14.9997 18.2193 14.9997 17.667V14.3337H11.6663C11.1141 14.3337 10.6663 13.8859 10.6663 13.3337C10.6663 12.7814 11.1141 12.3337 11.6663 12.3337H14.9997V9.00033C14.9997 8.44804 15.4474 8.00033 15.9997 8.00033Z" fill="#FAFAFA"/>
</svg>
