<svg width="32" height="32" viewBox="0 0 32 32" fill="none" xmlns="http://www.w3.org/2000/svg">
<path d="M11.527 24.2095C11.417 24.2438 11.3014 24.27 11.1807 24.2876C11.121 24.2963 11.0593 24.3014 10.9971 24.3058C11.2041 24.2911 11.397 24.2502 11.5752 24.1899C11.5589 24.1955 11.5436 24.2043 11.527 24.2095Z" fill="#FAFAFA"/>
<path d="M14.8486 22.91C14.8279 22.8864 14.8048 22.8645 14.7848 22.8397L14.7666 22.8149C14.7926 22.8482 14.8212 22.8788 14.8486 22.91Z" fill="#FAFAFA"/>
<path d="M17.1533 22.6691L17.1585 22.7629C17.1585 22.6971 17.15 22.6385 17.1338 22.5858C17.1419 22.6121 17.1492 22.6397 17.1533 22.6691Z" fill="#FAFAFA"/>
<path fill-rule="evenodd" clip-rule="evenodd" d="M15.9997 9.6665C15.9997 11.6915 17.6413 13.3332 19.6663 13.3332H26.6663V25.6665C26.6663 27.6915 25.0247 29.3332 22.9997 29.3332H8.99967C6.97463 29.3332 5.33301 27.6915 5.33301 25.6665V6.33317C5.33301 4.30813 6.97463 2.6665 8.99967 2.6665H15.9997V9.6665ZM10.8044 18.7082C9.2533 18.7083 8.15723 19.9522 8.15723 21.6444C8.15737 23.3363 9.2534 24.5792 10.8044 24.5793C11.3781 24.5793 11.8772 24.42 12.277 24.1235C12.676 23.8276 12.9624 23.406 13.1286 22.9035L13.1702 22.7785C13.1928 22.7094 13.1555 22.6344 13.0869 22.6105L12.9606 22.5675L11.9593 22.2251C11.8862 22.2004 11.8072 22.243 11.7874 22.3175L11.751 22.4569C11.6836 22.7137 11.561 22.9045 11.4059 23.0311C11.2518 23.1568 11.0511 23.2316 10.8044 23.2316C10.4627 23.2316 10.1746 23.0861 9.96582 22.8241C9.75358 22.5576 9.61432 22.1571 9.61426 21.6444C9.61426 21.1315 9.75353 20.7299 9.96582 20.4634C10.1746 20.2016 10.4628 20.0572 10.8044 20.0571C11.051 20.0571 11.2519 20.1307 11.4059 20.2563C11.5612 20.383 11.6836 20.5748 11.751 20.8319L11.7874 20.9712C11.8072 21.0457 11.8862 21.0884 11.9593 21.0636L12.9606 20.7212L13.0869 20.6782C13.1556 20.6544 13.1928 20.5794 13.1702 20.5103L13.1286 20.384C12.9623 19.8815 12.676 19.4598 12.277 19.1639C11.8772 18.8674 11.378 18.7082 10.8044 18.7082ZM16.0986 18.7082C15.5256 18.7082 14.9957 18.8769 14.6038 19.1951C14.2078 19.517 13.9632 19.9852 13.9632 20.548C13.9633 21.1454 14.2209 21.5369 14.5973 21.7915C14.9502 22.03 15.4018 22.1436 15.7835 22.2355L16.3096 22.3618C16.4577 22.4 16.5803 22.4377 16.6807 22.4842C16.7733 22.5272 16.8218 22.5682 16.8486 22.604C16.8721 22.6353 16.8929 22.6805 16.8929 22.7629C16.8927 22.9211 16.8269 23.0321 16.7119 23.1131C16.5871 23.2009 16.3907 23.2602 16.1351 23.2603C15.6489 23.2603 15.1855 22.9951 14.8656 22.4959L14.7848 22.3696C14.7417 22.3024 14.6499 22.2877 14.5882 22.3384L14.4723 22.4347L13.6755 23.0923C13.6247 23.1344 13.6126 23.2077 13.6468 23.2642L13.7067 23.3631C14.1695 24.1231 15.1481 24.5793 16.1064 24.5793C17.2608 24.5791 18.3339 23.8866 18.3343 22.6691C18.3343 22.3466 18.2623 22.0738 18.1273 21.8475C17.9928 21.6222 17.8049 21.458 17.5986 21.3345C17.2987 21.1549 16.9382 21.0509 16.6064 20.9725L16.2874 20.9009C15.9231 20.8183 15.6913 20.7624 15.5439 20.6834C15.4775 20.6478 15.446 20.6156 15.4294 20.5897C15.414 20.5655 15.3995 20.5268 15.3994 20.4543C15.3994 20.3408 15.4476 20.2438 15.5505 20.1678C15.659 20.0878 15.8344 20.0285 16.07 20.0285C16.5578 20.0285 16.8656 20.2664 17.1221 20.6639L17.2054 20.7928C17.2494 20.8604 17.3434 20.874 17.4046 20.8215L17.5205 20.7212L18.1989 20.1366L18.2861 20.061C18.3361 20.0177 18.3464 19.9436 18.3109 19.8879L18.2497 19.7915C17.8509 19.1684 17.0701 18.7082 16.0986 18.7082ZM18.6702 18.7876C18.5774 18.7876 18.5131 18.8802 18.5452 18.9673L18.6117 19.147L20.5374 24.3267L20.57 24.4139C20.5896 24.4657 20.6396 24.4998 20.695 24.4998H21.8551C21.9108 24.4996 21.9609 24.4648 21.9801 24.4126L23.9906 18.9673C24.0224 18.8803 23.9569 18.7876 23.8643 18.7876H22.6273C22.5711 18.7876 22.5213 18.8233 22.5023 18.8761L22.4697 18.9647L21.4124 21.9308C21.3703 22.0488 21.2034 22.0486 21.1611 21.9308L20.109 18.966L20.0765 18.8761C20.0575 18.8232 20.0077 18.7877 19.9515 18.7876H18.6702Z" fill="#FAFAFA"/>
<path d="M18.0973 3.3501L25.9827 11.2355C26.0145 11.2673 26.0455 11.2998 26.0752 11.3332H19.6663C18.7459 11.3332 17.9997 10.587 17.9997 9.6665V3.25765C18.033 3.28735 18.0656 3.31836 18.0973 3.3501Z" fill="#FAFAFA"/>
</svg>
