<svg width="32" height="32" viewBox="0 0 32 32" fill="none" xmlns="http://www.w3.org/2000/svg">
<path fill-rule="evenodd" clip-rule="evenodd" d="M11.1999 17.3332C11.551 17.3332 11.8952 17.3317 12.1843 17.3553C12.4889 17.3802 12.8487 17.4393 13.2103 17.6236C13.6492 17.8472 14.0166 18.1877 14.2728 18.6053L14.3757 18.7889L14.4916 19.0598C14.5869 19.3275 14.6252 19.5866 14.6439 19.815C14.6675 20.104 14.666 20.4482 14.666 20.7993V25.867C14.666 26.2182 14.6675 26.5624 14.6439 26.8514C14.619 27.1561 14.5599 27.5158 14.3757 27.8775C14.12 28.3791 13.712 28.7872 13.2103 29.0428C12.8486 29.2271 12.4889 29.2861 12.1843 29.3111C11.8952 29.3347 11.551 29.3332 11.1999 29.3332H6.13218C5.78105 29.3332 5.43685 29.3347 5.1478 29.3111C4.84317 29.2861 4.48338 29.2271 4.12176 29.0428C3.62018 28.7872 3.21202 28.3791 2.9564 27.8775C2.77218 27.5158 2.71309 27.156 2.68817 26.8514C2.66456 26.5624 2.66603 26.2182 2.66603 25.867V20.7993C2.66603 20.4482 2.66455 20.104 2.68817 19.815C2.7131 19.5103 2.77214 19.1505 2.9564 18.7889C3.21204 18.2873 3.62014 17.8792 4.12176 17.6236C4.48339 17.4393 4.84316 17.3803 5.1478 17.3553C5.43685 17.3317 5.78105 17.3332 6.13218 17.3332H11.1999ZM8.66603 21.9999C7.92971 21.9999 7.33274 22.5969 7.3327 23.3332C7.3327 24.0695 7.92969 24.6665 8.66603 24.6665H8.67905C9.41543 24.6665 10.0124 24.0696 10.0124 23.3332C10.0123 22.5968 9.41541 21.9999 8.67905 21.9999H8.66603Z" fill="#FAFAFA"/>
<path d="M18.666 20.6665C19.4024 20.6665 19.9993 21.2635 19.9994 21.9999V27.9999C19.9994 28.7362 19.4024 29.3332 18.666 29.3332C17.9297 29.3331 17.3327 28.7362 17.3327 27.9999V21.9999C17.3328 21.2636 17.9298 20.6666 18.666 20.6665Z" fill="#FAFAFA"/>
<path d="M27.9994 21.3332C28.7357 21.3332 29.3326 21.9302 29.3327 22.6665V27.9999C29.3327 28.7362 28.7357 29.3332 27.9994 29.3332H22.666C21.9297 29.3331 21.3327 28.7362 21.3327 27.9999C21.3328 27.2636 21.9298 26.6666 22.666 26.6665H26.666V22.6665C26.6661 21.9303 27.2631 21.3333 27.9994 21.3332Z" fill="#FAFAFA"/>
<path d="M23.3457 21.9999C24.082 21.9999 24.679 22.5969 24.6791 23.3332C24.6791 24.0696 24.0821 24.6665 23.3457 24.6665H23.3327C22.5964 24.6664 21.9994 24.0695 21.9994 23.3332C21.9994 22.5969 22.5964 21.9999 23.3327 21.9999H23.3457Z" fill="#FAFAFA"/>
<path d="M27.9994 17.3332C28.7357 17.3332 29.3326 17.9302 29.3327 18.6665C29.3327 19.4029 28.7357 19.9999 27.9994 19.9999H21.9994C21.2631 19.9998 20.666 19.4029 20.666 18.6665C20.6661 17.9303 21.2631 17.3333 21.9994 17.3332H27.9994Z" fill="#FAFAFA"/>
<path d="M17.3457 15.9999C18.0821 15.9999 18.679 16.5969 18.6791 17.3332C18.6791 18.0696 18.0821 18.6665 17.3457 18.6665H17.3327C16.5964 18.6664 15.9994 18.0695 15.9994 17.3332C15.9994 16.5969 16.5964 15.9999 17.3327 15.9999H17.3457Z" fill="#FAFAFA"/>
<path d="M8.67905 7.33319C9.41542 7.33319 10.0124 7.93017 10.0124 8.66652C10.0124 9.4029 9.41543 9.99986 8.67905 9.99986H8.66603C7.92968 9.99983 7.3327 9.40288 7.3327 8.66652C7.33273 7.93019 7.9297 7.33322 8.66603 7.33319H8.67905Z" fill="#FAFAFA"/>
<path fill-rule="evenodd" clip-rule="evenodd" d="M11.7142 2.66913C11.8804 2.67182 12.0395 2.67683 12.1843 2.68866C12.4889 2.71358 12.8486 2.77263 13.2103 2.95689C13.6493 3.18058 14.0166 3.52102 14.2728 3.93866L14.3757 4.12225L14.4916 4.39309C14.5869 4.66085 14.6252 4.91994 14.6439 5.14829C14.6675 5.43736 14.666 5.7815 14.666 6.13267V11.2004C14.666 11.5515 14.6675 11.8957 14.6439 12.1848C14.619 12.4894 14.5599 12.8491 14.3757 13.2108C14.12 13.7125 13.712 14.1205 13.2103 14.3762C12.8486 14.5604 12.4889 14.6195 12.1843 14.6444C11.8952 14.668 11.5511 14.6665 11.1999 14.6665H6.13218C5.78101 14.6665 5.43687 14.668 5.1478 14.6444C4.84314 14.6195 4.48342 14.5604 4.12176 14.3762C3.62012 14.1205 3.21203 13.7124 2.9564 13.2108C2.77214 12.8491 2.7131 12.4894 2.68817 12.1848C2.66456 11.8957 2.66603 11.5515 2.66603 11.2004V6.13267C2.66603 5.7815 2.66455 5.43736 2.68817 5.14829C2.7131 4.84363 2.77212 4.48391 2.9564 4.12225C3.21204 3.6206 3.62011 3.21253 4.12176 2.95689C4.48342 2.77261 4.84314 2.71359 5.1478 2.68866C5.43687 2.66504 5.78101 2.66652 6.13218 2.66652H11.1999L11.7142 2.66913ZM6.13218 5.33319C5.73718 5.33319 5.52062 5.33482 5.36525 5.34751C5.35933 5.348 5.35365 5.34832 5.34833 5.34881C5.34784 5.35414 5.34751 5.35982 5.34702 5.36574C5.33433 5.52111 5.3327 5.73767 5.3327 6.13267V11.2004C5.3327 11.5954 5.33433 11.8119 5.34702 11.9673C5.34747 11.9727 5.34788 11.978 5.34833 11.9829C5.35368 11.9834 5.35929 11.985 5.36525 11.9855C5.52062 11.9982 5.73718 11.9999 6.13218 11.9999H11.1999C11.5949 11.9999 11.8114 11.9982 11.9668 11.9855C11.9723 11.9851 11.9775 11.9834 11.9824 11.9829C11.9829 11.978 11.9846 11.9728 11.985 11.9673C11.9977 11.8119 11.9994 11.5954 11.9994 11.2004V6.13267C11.9994 5.73767 11.9977 5.52111 11.985 5.36574C11.9845 5.35978 11.9829 5.35417 11.9824 5.34881C11.9775 5.34836 11.9723 5.34796 11.9668 5.34751C11.889 5.34116 11.7956 5.33764 11.6725 5.33579L11.1999 5.33319H6.13218Z" fill="#FAFAFA"/>
<path fill-rule="evenodd" clip-rule="evenodd" d="M25.8666 2.66652C26.2177 2.66652 26.5619 2.66505 26.8509 2.68866C27.1556 2.71358 27.5153 2.77267 27.877 2.95689C28.3159 3.18056 28.6833 3.52107 28.9395 3.93866L29.0423 4.12225L29.1582 4.39309C29.2535 4.66081 29.2919 4.91996 29.3106 5.14829C29.3342 5.43733 29.3327 5.78153 29.3327 6.13267V11.2004C29.3327 11.5515 29.3342 11.8957 29.3106 12.1848C29.2856 12.4894 29.2266 12.8491 29.0423 13.2108C28.7867 13.7125 28.3786 14.1205 27.877 14.3762C27.5153 14.5604 27.1556 14.6195 26.8509 14.6444C26.5619 14.668 26.2177 14.6665 25.8666 14.6665H20.7988C20.4477 14.6665 20.1035 14.668 19.8145 14.6444C19.5098 14.6195 19.15 14.5604 18.7884 14.3762C18.2868 14.1205 17.8787 13.7124 17.6231 13.2108C17.4389 12.8492 17.3798 12.4894 17.3548 12.1848C17.3312 11.8957 17.3327 11.5515 17.3327 11.2004V6.13267C17.3327 5.78153 17.3312 5.43733 17.3548 5.14829C17.3798 4.84365 17.4388 4.48388 17.6231 4.12225C17.8787 3.62063 18.2868 3.21253 18.7884 2.95689C19.1501 2.77263 19.5098 2.71359 19.8145 2.68866C20.1035 2.66504 20.4477 2.66652 20.7988 2.66652H25.8666ZM23.3327 7.33319C22.5964 7.33325 21.9994 7.93023 21.9994 8.66652C21.9994 9.40286 22.5964 9.99979 23.3327 9.99986H23.3457C24.0821 9.99986 24.6791 9.4029 24.6791 8.66652C24.679 7.93019 24.0821 7.33319 23.3457 7.33319H23.3327Z" fill="#FAFAFA"/>
</svg>
