<svg width="32" height="32" viewBox="0 0 32 32" fill="none" xmlns="http://www.w3.org/2000/svg">
<path d="M25.3311 25.3272L28.5462 26.0224C29.086 26.1391 29.429 26.6713 29.3123 27.2111C29.1955 27.7509 28.6633 28.0939 28.1235 27.9772L22.5204 26.7657C22.2883 26.7155 22.0481 26.7155 21.816 26.7657L16.7764 27.8554C16.2657 27.9658 15.7373 27.9658 15.2266 27.8554L10.1871 26.7657C9.95493 26.7155 9.71476 26.7155 9.48262 26.7657L3.87951 27.9772C3.3397 28.0939 2.80748 27.7509 2.69076 27.2111C2.57405 26.6713 2.91703 26.1391 3.45684 26.0224L6.67194 25.3272C5.12487 22.9382 2.45133 18.6 7.12101 17.4641L15.1349 15.5148C15.7043 15.3763 16.2987 15.3763 16.8681 15.5148L24.882 17.4641C29.5517 18.6 26.8781 22.9382 25.3311 25.3272Z" fill="#FAFAFA"/>
<path d="M12.0013 4.6665V7.99984H8.66797C7.5634 7.99984 6.66797 8.89527 6.66797 9.99984V15.5161L14.6626 13.5714C15.5427 13.3574 16.4612 13.3574 17.3413 13.5714L25.3346 15.5158V9.99984C25.3346 8.89527 24.4392 7.99984 23.3346 7.99984H20.0013V4.6665C20.0013 3.56193 19.1059 2.6665 18.0013 2.6665H14.0013C12.8967 2.6665 12.0013 3.56193 12.0013 4.6665Z" fill="#FAFAFA"/>
</svg>
