<svg width="32" height="32" viewBox="0 0 32 32" fill="none" xmlns="http://www.w3.org/2000/svg">
<path fill-rule="evenodd" clip-rule="evenodd" d="M6.57111 6.57136C11.778 1.36446 20.2209 1.36466 25.4279 6.57136C30.6349 11.7784 30.6349 20.2212 25.4279 25.4281C20.2209 30.6351 11.7781 30.6351 6.57111 25.4281C1.36442 20.2211 1.36422 11.7782 6.57111 6.57136ZM10.3328 19.3331C9.78078 19.3332 9.33299 19.781 9.33283 20.3331C9.33283 20.8853 9.78068 21.3329 10.3328 21.3331H21.6662C22.2184 21.3331 22.6662 20.8854 22.6662 20.3331C22.666 19.7809 22.2183 19.3331 21.6662 19.3331H10.3328ZM12.3328 10.6664C11.4126 10.6666 10.6663 11.5621 10.6662 12.6664C10.6662 13.7709 11.4125 14.6662 12.3328 14.6664C13.2533 14.6664 13.9995 13.771 13.9995 12.6664C13.9994 11.562 13.2532 10.6664 12.3328 10.6664ZM19.6662 10.6664C18.7459 10.6666 17.9996 11.5621 17.9995 12.6664C17.9995 13.7709 18.7458 14.6662 19.6662 14.6664C20.5866 14.6664 21.3328 13.771 21.3328 12.6664C21.3327 11.562 20.5866 10.6664 19.6662 10.6664Z" fill="#FAFAFA"/>
</svg>
