<svg width="16" height="16" viewBox="0 0 16 16" fill="none" xmlns="http://www.w3.org/2000/svg">
<path fill-rule="evenodd" clip-rule="evenodd" d="M7.58787 1.82097C7.92946 1.3355 8.6065 1.16471 9.1345 1.52427C9.77579 1.96098 10.8979 2.81412 11.8641 4.01315C12.8298 5.21158 13.6673 6.79088 13.6673 8.66702C13.6673 11.911 11.1614 14.667 8.00065 14.667C4.83991 14.667 2.33398 11.911 2.33398 8.66702C2.33398 7.31678 2.9201 5.57668 4.06897 4.1852C4.51162 3.64908 5.28073 3.68647 5.72444 4.12732C5.79925 4.20165 5.92156 4.18912 5.97971 4.10648L7.58787 1.82097ZM5.71963 13.0206C4.30398 12.1608 3.33398 10.5311 3.33398 8.66702C3.33398 7.56577 3.82823 6.04743 4.8401 4.82188C4.85698 4.80144 4.87894 4.79024 4.91027 4.7898C4.94457 4.78932 4.98573 4.80303 5.01963 4.83671C5.53077 5.34456 6.38036 5.27483 6.79754 4.68193L8.4057 2.39643C8.43171 2.35946 8.46511 2.34095 8.49392 2.33499C8.5208 2.32943 8.5464 2.33363 8.57163 2.35082C9.1691 2.75768 10.2041 3.54694 11.0854 4.64059C11.9671 5.73483 12.6673 7.09848 12.6673 8.66702C12.6673 10.5311 11.6973 12.1608 10.2817 13.0206C10.4232 12.6688 10.5007 12.2824 10.5007 11.8841C10.5007 10.2363 9.20438 9.09292 8.62613 8.65775C8.25345 8.37729 7.74785 8.37728 7.37517 8.65775C6.79692 9.09292 5.50065 10.2363 5.50065 11.8841C5.50065 12.2824 5.57811 12.6688 5.71963 13.0206ZM8.00065 9.4474C7.9952 9.4474 7.987 9.44885 7.97648 9.45677C7.42187 9.87415 6.50065 10.7543 6.50065 11.8841C6.50065 12.933 7.23232 13.667 8.00065 13.667C8.76898 13.667 9.50065 12.933 9.50065 11.8841C9.50065 10.7543 8.57943 9.87415 8.02482 9.45677C8.0143 9.44885 8.0061 9.4474 8.00065 9.4474Z" fill="#FAFAFA"/>
</svg>
