<svg width="16" height="16" viewBox="0 0 16 16" fill="none" xmlns="http://www.w3.org/2000/svg">
<path d="M3.69694 8.25635C3.97308 8.25635 4.19694 8.48021 4.19694 8.75635V10.3208C4.19676 10.5968 3.97297 10.8208 3.69694 10.8208C3.42091 10.8208 3.19712 10.5968 3.19694 10.3208V8.75635C3.19694 8.48021 3.4208 8.25635 3.69694 8.25635Z" fill="#FAFAFA"/>
<path fill-rule="evenodd" clip-rule="evenodd" d="M7.97298 1.6333C8.24912 1.6333 8.47298 1.85716 8.47298 2.1333C8.47289 2.40937 8.24907 2.6333 7.97298 2.6333H3.17546C2.87797 2.6333 2.63249 2.87878 2.63249 3.17627V6.53499H10.1631C10.4392 6.53499 10.663 6.75896 10.6631 7.03499V12.8234C10.663 13.6731 9.96986 14.3664 9.12012 14.3664H3.17546C2.32573 14.3664 1.63258 13.6731 1.63249 12.8234V7.04736C1.63239 7.0433 1.63184 7.03908 1.63184 7.03499C1.63184 7.03064 1.63237 7.0263 1.63249 7.02197V3.17627C1.63249 2.3265 2.32568 1.6333 3.17546 1.6333H7.97298ZM2.63249 12.8234C2.63258 13.1209 2.87803 13.3664 3.17546 13.3664H9.12012C9.41757 13.3664 9.663 13.1208 9.66308 12.8234V7.53499H2.63249V12.8234Z" fill="#FAFAFA"/>
<path d="M11.654 4.72575H11.6579C11.8469 4.74143 11.9996 4.83508 12.0993 4.93473C12.2085 5.04396 12.3108 5.21685 12.3109 5.43148C12.3108 5.6462 12.2085 5.81964 12.0993 5.92887C11.9995 6.02859 11.8465 6.12168 11.6572 6.13721L11.654 6.13786L11.6025 6.14046L11.5511 6.13786L11.5472 6.13721C11.3583 6.12147 11.2055 6.02852 11.1058 5.92887C10.9965 5.81959 10.8943 5.64612 10.8942 5.43148C10.8943 5.21693 10.9966 5.04401 11.1058 4.93473C11.2054 4.83514 11.3578 4.74163 11.5465 4.72575C11.5649 4.7237 11.5836 4.72314 11.6025 4.72314L11.654 4.72575Z" fill="#FAFAFA"/>
<path d="M3.69694 3.92757C3.97303 3.92757 4.19685 4.1515 4.19694 4.42757V5.47054C4.19694 5.74668 3.97308 5.97054 3.69694 5.97054C3.4208 5.97054 3.19694 5.74668 3.19694 5.47054V4.42757C3.19703 4.1515 3.42085 3.92757 3.69694 3.92757Z" fill="#FAFAFA"/>
<path d="M10.154 3.82666C10.966 3.01457 12.2861 2.99149 13.0661 3.84229C13.2526 4.04584 13.239 4.36209 13.0355 4.54867C12.832 4.73515 12.5157 4.72149 12.3291 4.51807C11.9618 4.11739 11.3004 4.09426 10.861 4.53369C10.6658 4.72885 10.3492 4.72882 10.154 4.53369C9.95873 4.33845 9.95877 4.02193 10.154 3.82666Z" fill="#FAFAFA"/>
<path d="M9.03288 2.67952C10.4316 1.28082 12.7243 1.29102 14.165 2.67171C14.3642 2.86278 14.371 3.17942 14.18 3.37874C13.989 3.578 13.6723 3.58462 13.473 3.39372C12.4106 2.37569 10.74 2.38648 9.73991 3.38656C9.54471 3.58159 9.22811 3.58153 9.03288 3.38656C8.83767 3.19134 8.83777 2.8748 9.03288 2.67952Z" fill="#FAFAFA"/>
</svg>
