<svg width="16" height="16" viewBox="0 0 16 16" fill="none" xmlns="http://www.w3.org/2000/svg">
<path d="M6.75 11.25C7.02614 11.25 7.25 11.4739 7.25 11.75V11.7565C7.24986 12.0325 7.02606 12.2565 6.75 12.2565C6.47394 12.2565 6.25014 12.0325 6.25 11.7565V11.75C6.25 11.4739 6.47386 11.25 6.75 11.25Z" fill="#FAFAFA"/>
<path d="M9.25 11.25C9.52614 11.25 9.75 11.4739 9.75 11.75V11.7565C9.74986 12.0325 9.52606 12.2565 9.25 12.2565C8.97394 12.2565 8.75014 12.0325 8.75 11.7565V11.75C8.75 11.4739 8.97386 11.25 9.25 11.25Z" fill="#FAFAFA"/>
<path d="M6.75 9.375C7.02614 9.375 7.25 9.59886 7.25 9.875V9.88151C7.24986 10.1575 7.02606 10.3815 6.75 10.3815C6.47394 10.3815 6.25014 10.1575 6.25 9.88151V9.875C6.25 9.59886 6.47386 9.375 6.75 9.375Z" fill="#FAFAFA"/>
<path d="M9.25 9.375C9.52614 9.375 9.75 9.59886 9.75 9.875V9.88151C9.74986 10.1575 9.52606 10.3815 9.25 10.3815C8.97394 10.3815 8.75014 10.1575 8.75 9.88151V9.875C8.75 9.59886 8.97386 9.375 9.25 9.375Z" fill="#FAFAFA"/>
<path fill-rule="evenodd" clip-rule="evenodd" d="M8 5C8.46413 5 8.90944 5.18418 9.23763 5.51237C9.56582 5.84056 9.75 6.28587 9.75 6.75C9.75 7.21413 9.56582 7.65944 9.23763 7.98763C8.90944 8.31582 8.46413 8.5 8 8.5C7.53587 8.5 7.09056 8.31582 6.76237 7.98763C6.43418 7.65944 6.25 7.21413 6.25 6.75C6.25 6.28587 6.43418 5.84056 6.76237 5.51237C7.09056 5.18418 7.53587 5 8 5ZM8 6C7.80109 6 7.61005 6.07875 7.4694 6.2194C7.32875 6.36005 7.25 6.55109 7.25 6.75C7.25 6.94891 7.32875 7.13995 7.4694 7.2806C7.61005 7.42125 7.80109 7.5 8 7.5C8.19891 7.5 8.38995 7.42125 8.5306 7.2806C8.67125 7.13995 8.75 6.94891 8.75 6.75C8.75 6.55109 8.67125 6.36005 8.5306 6.2194C8.38995 6.07875 8.19891 6 8 6Z" fill="#FAFAFA"/>
<path fill-rule="evenodd" clip-rule="evenodd" d="M9.875 1.875C10.3391 1.875 10.7844 2.05918 11.1126 2.38737C11.4408 2.71556 11.625 3.16087 11.625 3.625V12.375C11.625 12.8391 11.4408 13.2844 11.1126 13.6126C10.7844 13.9408 10.3391 14.125 9.875 14.125H6.125C5.66087 14.125 5.21556 13.9408 4.88737 13.6126C4.55918 13.2844 4.375 12.8391 4.375 12.375V3.625C4.375 3.16087 4.55918 2.71556 4.88737 2.38737C5.21556 2.05918 5.66087 1.875 6.125 1.875H9.875ZM6.125 2.875C5.92609 2.875 5.73505 2.95375 5.5944 3.0944C5.45375 3.23505 5.375 3.42609 5.375 3.625V12.375C5.375 12.5739 5.45375 12.7649 5.5944 12.9056C5.73505 13.0463 5.92609 13.125 6.125 13.125H9.875C10.0739 13.125 10.2649 13.0463 10.4056 12.9056C10.5463 12.7649 10.625 12.5739 10.625 12.375V3.625C10.625 3.42609 10.5463 3.23505 10.4056 3.0944C10.2649 2.95375 10.0739 2.875 9.875 2.875H8.5V3.625C8.5 3.90114 8.27614 4.125 8 4.125C7.72386 4.125 7.5 3.90114 7.5 3.625V2.875H6.125Z" fill="#FAFAFA"/>
</svg>
