<svg width="16" height="16" viewBox="0 0 16 16" fill="none" xmlns="http://www.w3.org/2000/svg">
<path fill-rule="evenodd" clip-rule="evenodd" d="M7.8737 14.6604L7.7487 14.6383L7.69987 14.6233L2.07617 12.6311C1.86293 12.568 1.67485 12.4385 1.54101 12.26C1.40301 12.076 1.33088 11.8511 1.33463 11.6214L1.33398 4.38374L1.33724 4.30236C1.35161 4.11405 1.41749 3.9327 1.52799 3.77827C1.65283 3.60391 1.82876 3.47282 2.03125 3.40262L2.0306 3.40197L7.6556 1.39156L7.65885 1.39025C7.88013 1.31295 8.12117 1.31295 8.34245 1.39025L8.34505 1.39156L13.9805 3.39676L13.9831 3.39742C14.1833 3.4698 14.3568 3.60209 14.4792 3.77632C14.6015 3.95052 14.6672 4.15853 14.6673 4.37137L14.6673 11.6376C14.671 11.8674 14.5983 12.0923 14.4603 12.2763C14.3277 12.4531 14.1418 12.5817 13.931 12.6455L8.30078 14.624L8.2526 14.6383C8.12833 14.6685 7.99999 14.6756 7.8737 14.6604ZM13.6673 4.37202C13.6673 4.36463 13.6644 4.35724 13.6602 4.35119C13.6559 4.34526 13.6501 4.34068 13.6432 4.33817L8.50065 2.50874L8.50065 9.54064L13.6673 11.3486L13.6673 4.37202ZM7.50065 9.53999L7.50065 2.50939L2.36719 4.34403L2.35872 4.34663C2.3516 4.34906 2.34554 4.35419 2.34115 4.3603C2.33682 4.3664 2.33401 4.37367 2.33398 4.38114L2.33398 11.3486L7.50065 9.53999ZM12.627 12.0439L8.00065 10.4248L3.39388 12.0374L7.99349 13.6663C7.99902 13.6669 8.00425 13.6671 8.00977 13.6663L12.627 12.0439Z" fill="#FAFAFA"/>
</svg>
