<svg width="16" height="16" viewBox="0 0 16 16" fill="none" xmlns="http://www.w3.org/2000/svg">
<g clip-path="url(#clip0_16281_1352)">
<path d="M6.70394 1.81723C6.9647 1.32469 7.34409 0.89067 7.80557 0.699944L7.89902 0.665417L7.97728 0.646082C8.05669 0.633194 8.13869 0.639729 8.21575 0.665417C8.71947 0.83344 9.1327 1.29187 9.41083 1.81723C9.69795 2.35961 9.88316 3.04766 9.88316 3.79123L9.8827 6.61091L14.0719 9.29203L14.0798 9.29709C14.535 9.60057 14.6727 10.0735 14.6069 10.535C14.6007 10.5784 14.5887 10.6212 14.5714 10.6616L14.4388 10.9709C14.236 11.4442 13.7787 11.793 13.2019 11.7107C13.192 11.7093 13.1817 11.7077 13.1719 11.7057L9.77451 11.0105L9.48403 12.4657L10.6206 13.6023C10.7144 13.6961 10.767 13.8233 10.767 13.9559V14.8398C10.767 14.9896 10.6997 15.1315 10.5838 15.2265C10.468 15.3213 10.3159 15.3594 10.169 15.3301L8.05693 14.9074L5.94573 15.3301C5.79892 15.3594 5.64678 15.3213 5.53095 15.2265C5.41511 15.1315 5.34773 14.9896 5.34773 14.8398L5.34773 13.9559L5.3574 13.8578C5.37662 13.7618 5.42381 13.6727 5.49412 13.6023L6.63074 12.4657L6.33934 11.0105L2.94283 11.7057C2.93306 11.7077 2.92279 11.7093 2.91291 11.7107C2.33605 11.793 1.87882 11.4442 1.67593 10.9709L1.65015 10.8954L1.56176 10.5419C1.42733 10.0915 1.58304 9.6446 1.95537 9.35464L2.03501 9.29709L2.04284 9.29203L6.23115 6.61091L6.23162 3.79123C6.23161 3.04766 6.41682 2.3596 6.70394 1.81723ZM8.05693 1.70076C7.91408 1.8043 7.74305 1.99177 7.58782 2.28495C7.37779 2.68169 7.23151 3.20902 7.23151 3.79123L7.23151 6.88483C7.23151 7.05532 7.14447 7.21415 7.00087 7.30605L2.58928 10.1294C2.53295 10.167 2.51991 10.1965 2.517 10.2045C2.51456 10.2112 2.50967 10.2274 2.52115 10.262C2.52517 10.2741 2.5291 10.2865 2.53219 10.2988L2.60815 10.604C2.63769 10.6619 2.6696 10.6916 2.69102 10.7053C2.71086 10.7179 2.73294 10.7248 2.76652 10.721L6.6312 9.93054C6.76149 9.90389 6.89742 9.93021 7.00824 10.0037C7.11896 10.0773 7.19577 10.192 7.22184 10.3223L7.66378 12.532C7.69657 12.6959 7.64527 12.8654 7.52706 12.9836L6.34762 14.1631L6.34716 14.2298L7.95933 13.9076L8.05739 13.8979C8.09023 13.8979 8.12308 13.9011 8.15544 13.9076L9.76669 14.2298L9.76715 14.1631L8.58772 12.9836C8.46951 12.8654 8.4182 12.6959 8.45099 12.532L8.89293 10.3223L8.92194 10.2279C8.95975 10.1373 9.02351 10.0589 9.10654 10.0037C9.21735 9.93021 9.35328 9.90389 9.48357 9.93054L13.3473 10.721C13.3814 10.725 13.4037 10.7181 13.4238 10.7053C13.4483 10.6896 13.4873 10.653 13.52 10.5769L13.6222 10.3384C13.6248 10.2813 13.6164 10.2443 13.6074 10.2215C13.5977 10.1966 13.579 10.1651 13.5255 10.1294L13.525 10.1299L9.1139 7.30605C8.9703 7.21415 8.88327 7.05532 8.88327 6.88483V3.79123C8.88327 3.20902 8.73699 2.68169 8.52695 2.28495C8.37151 1.99136 8.19989 1.80421 8.05693 1.70076Z" fill="#FAFAFA"/>
</g>
<defs>
<clipPath id="clip0_16281_1352">
<rect width="16" height="16" fill="white"/>
</clipPath>
</defs>
</svg>
