<svg width="16" height="16" viewBox="0 0 16 16" fill="none" xmlns="http://www.w3.org/2000/svg">
<path fill-rule="evenodd" clip-rule="evenodd" d="M9.20117 1.5C9.47731 1.5 9.70117 1.72386 9.70117 2V3.10026H10.0117C10.0159 3.10033 10.0209 3.10072 10.0267 3.10091C10.0384 3.1013 10.0534 3.10161 10.071 3.10286C10.1061 3.10538 10.1533 3.11062 10.2083 3.11979C10.3161 3.13775 10.4677 3.17459 10.625 3.25326C10.7842 3.33292 10.959 3.45997 11.0924 3.66016C11.228 3.86362 11.3014 4.11298 11.3014 4.40039V5.5H12.4017C12.6777 5.50014 12.9017 5.72394 12.9017 6C12.9017 6.27606 12.6777 6.49986 12.4017 6.5H11.3014V7.5H12.4017C12.6777 7.50014 12.9017 7.72394 12.9017 8C12.9017 8.27606 12.6777 8.49986 12.4017 8.5H11.3014V9.5H12.4017C12.6777 9.50014 12.9017 9.72394 12.9017 10C12.9017 10.2761 12.6777 10.4999 12.4017 10.5H11.3014V11.6048C11.3014 11.6065 11.3008 11.6086 11.3008 11.6107C11.3007 11.6148 11.301 11.62 11.3008 11.6257C11.3004 11.6374 11.2994 11.653 11.2982 11.6706C11.2957 11.7056 11.291 11.7526 11.2819 11.8073C11.2639 11.915 11.2271 12.0667 11.1484 12.224C11.0688 12.3832 10.9411 12.5579 10.7409 12.6914C10.5375 12.8269 10.2886 12.9004 10.0013 12.9004H9.70117V14C9.70103 14.276 9.47723 14.5 9.20117 14.5C8.92512 14.5 8.70131 14.276 8.70117 14V12.9004H7.30143V14C7.30129 14.276 7.07749 14.5 6.80143 14.5C6.52538 14.5 6.30157 14.276 6.30143 14V12.9004H5.99089C5.9866 12.9003 5.98114 12.8999 5.97526 12.8997C5.96355 12.8993 5.94852 12.8984 5.93099 12.8971C5.89591 12.8946 5.84909 12.89 5.79427 12.8809C5.68655 12.8629 5.53493 12.826 5.3776 12.7474C5.21833 12.6678 5.04372 12.5401 4.91016 12.3398C4.79158 12.1619 4.72036 11.9492 4.70443 11.7064L4.70117 11.6003V10.5H3.60156C3.32542 10.5 3.10156 10.2761 3.10156 10C3.10156 9.72386 3.32542 9.5 3.60156 9.5H4.70117V8.5H3.60156C3.32542 8.5 3.10156 8.27614 3.10156 8C3.10156 7.72386 3.32542 7.5 3.60156 7.5H4.70117V6.5H3.60156C3.32542 6.5 3.10156 6.27614 3.10156 6C3.10156 5.72386 3.32542 5.5 3.60156 5.5H4.70117V4.38997C4.70124 4.38575 4.70162 4.38014 4.70182 4.37435C4.70221 4.36269 4.70254 4.34751 4.70378 4.33008C4.70628 4.29503 4.71159 4.24812 4.7207 4.19336C4.73865 4.08566 4.77556 3.93398 4.85417 3.77669C4.93379 3.61747 5.06089 3.44278 5.26107 3.30924C5.46457 3.17358 5.71381 3.10026 6.0013 3.10026H6.30143V2C6.30143 1.72386 6.52529 1.5 6.80143 1.5C7.07757 1.5 7.30143 1.72386 7.30143 2V3.10026H8.70117V2C8.70117 1.72386 8.92503 1.5 9.20117 1.5ZM6.0013 4.10026C5.88879 4.10026 5.83726 4.12694 5.81576 4.14128C5.79125 4.1577 5.76895 4.18347 5.7487 4.22396C5.72744 4.26653 5.71407 4.31525 5.70703 4.35742C5.70373 4.37725 5.70178 4.39314 5.70117 4.40169V5.98698C5.70128 5.99131 5.70182 5.99564 5.70182 6C5.70182 6.00414 5.70127 6.00825 5.70117 6.01237V7.98698C5.70128 7.99131 5.70182 7.99564 5.70182 8C5.70182 8.00414 5.70127 8.00826 5.70117 8.01237V9.98698C5.70128 9.99131 5.70182 9.99564 5.70182 10C5.70182 10.0041 5.70127 10.0083 5.70117 10.0124V11.6003L5.70573 11.6738C5.7139 11.7362 5.73145 11.769 5.74219 11.7852C5.75861 11.8097 5.78428 11.8326 5.82487 11.8529C5.86747 11.8742 5.91612 11.8875 5.95833 11.8945C5.97826 11.8979 5.99403 11.8991 6.0026 11.8997C6.00666 11.9 6.00911 11.9004 6.00911 11.9004H6.78841C6.79274 11.9003 6.79708 11.8997 6.80143 11.8997C6.80579 11.8997 6.81012 11.9003 6.81445 11.9004H9.18815C9.19248 11.9003 9.19682 11.8997 9.20117 11.8997C9.20553 11.8997 9.20986 11.9003 9.21419 11.9004H10.0013C10.1133 11.9004 10.1646 11.8737 10.1862 11.8594C10.2108 11.843 10.2336 11.8172 10.2539 11.7767C10.2752 11.7342 10.2885 11.6854 10.2956 11.6432C10.2989 11.6235 10.3002 11.6076 10.3008 11.599C10.301 11.5956 10.3014 11.5924 10.3014 11.5924V4.40039C10.3014 4.28818 10.2748 4.23645 10.2604 4.21484C10.244 4.19031 10.2182 4.16807 10.1777 4.14779C10.1352 4.12653 10.0864 4.11318 10.0443 4.10612C10.0244 4.10281 10.0086 4.10088 10 4.10026H6.0013Z" fill="#FAFAFA"/>
</svg>
