<svg width="16" height="16" viewBox="0 0 16 16" fill="none" xmlns="http://www.w3.org/2000/svg">
<path d="M6.0013 10.6664C6.19019 10.6664 6.34878 10.7307 6.47656 10.8585C6.60415 10.9862 6.66792 11.1444 6.66797 11.3331C6.66797 11.5219 6.60427 11.6806 6.47656 11.8084C6.34878 11.9361 6.19019 11.9998 6.0013 11.9998C5.81241 11.9998 5.65382 11.9361 5.52604 11.8084C5.39833 11.6806 5.33464 11.5219 5.33464 11.3331C5.33468 11.1444 5.39846 10.9862 5.52604 10.8585C5.65382 10.7307 5.81241 10.6664 6.0013 10.6664Z" fill="#FAFAFA"/>
<path d="M8.0013 10.6664C8.19019 10.6664 8.34878 10.7307 8.47656 10.8585C8.60415 10.9862 8.66792 11.1444 8.66797 11.3331C8.66797 11.5219 8.60427 11.6806 8.47656 11.8084C8.34878 11.9361 8.19019 11.9998 8.0013 11.9998C7.81241 11.9998 7.65382 11.9361 7.52604 11.8084C7.39833 11.6806 7.33464 11.5219 7.33464 11.3331C7.33468 11.1444 7.39846 10.9862 7.52604 10.8585C7.65382 10.7307 7.81241 10.6664 8.0013 10.6664Z" fill="#FAFAFA"/>
<path d="M10.0013 10.6664C10.1902 10.6664 10.3488 10.7307 10.4766 10.8585C10.6041 10.9862 10.6679 11.1444 10.668 11.3331C10.668 11.5219 10.6043 11.6806 10.4766 11.8084C10.3488 11.9361 10.1902 11.9998 10.0013 11.9998C9.81241 11.9998 9.65382 11.9361 9.52604 11.8084C9.39833 11.6806 9.33464 11.5219 9.33464 11.3331C9.33468 11.1444 9.39846 10.9862 9.52604 10.8585C9.65382 10.7307 9.81241 10.6664 10.0013 10.6664Z" fill="#FAFAFA"/>
<path d="M5.0013 8.66644C5.19019 8.66644 5.34878 8.73072 5.47656 8.8585C5.60415 8.98619 5.66792 9.14442 5.66797 9.33311C5.66797 9.52195 5.60427 9.68061 5.47656 9.80837C5.34878 9.93615 5.19019 9.99978 5.0013 9.99978C4.81241 9.99978 4.65382 9.93615 4.52604 9.80837C4.39833 9.68061 4.33464 9.52195 4.33464 9.33311C4.33468 9.14442 4.39846 8.98619 4.52604 8.8585C4.65382 8.73072 4.81241 8.66644 5.0013 8.66644Z" fill="#FAFAFA"/>
<path d="M7.0013 8.66644C7.19019 8.66644 7.34878 8.73072 7.47656 8.8585C7.60415 8.98619 7.66792 9.14442 7.66797 9.33311C7.66797 9.52195 7.60427 9.68061 7.47656 9.80837C7.34878 9.93615 7.19019 9.99978 7.0013 9.99978C6.81241 9.99978 6.65382 9.93615 6.52604 9.80837C6.39833 9.68061 6.33464 9.52195 6.33464 9.33311C6.33468 9.14442 6.39846 8.98619 6.52604 8.8585C6.65382 8.73072 6.81241 8.66644 7.0013 8.66644Z" fill="#FAFAFA"/>
<path d="M9.0013 8.66644C9.19019 8.66644 9.34878 8.73072 9.47656 8.8585C9.60415 8.98619 9.66792 9.14442 9.66797 9.33311C9.66797 9.52195 9.60427 9.68061 9.47656 9.80837C9.34878 9.93615 9.19019 9.99978 9.0013 9.99978C8.81241 9.99978 8.65382 9.93615 8.52604 9.80837C8.39833 9.68061 8.33464 9.52195 8.33464 9.33311C8.33468 9.14442 8.39846 8.98619 8.52604 8.8585C8.65382 8.73072 8.81241 8.66644 9.0013 8.66644Z" fill="#FAFAFA"/>
<path d="M11.0013 8.66644C11.1902 8.66644 11.3488 8.73072 11.4766 8.8585C11.6041 8.98619 11.6679 9.14442 11.668 9.33311C11.668 9.52195 11.6043 9.68061 11.4766 9.80837C11.3488 9.93615 11.1902 9.99978 11.0013 9.99978C10.8124 9.99978 10.6538 9.93615 10.526 9.80837C10.3983 9.68061 10.3346 9.52195 10.3346 9.33311C10.3347 9.14442 10.3985 8.98619 10.526 8.8585C10.6538 8.73072 10.8124 8.66644 11.0013 8.66644Z" fill="#FAFAFA"/>
<path d="M6.0013 6.66644C6.19019 6.66644 6.34878 6.73072 6.47656 6.8585C6.60415 6.98619 6.66792 7.14442 6.66797 7.33311C6.66797 7.52195 6.60427 7.68061 6.47656 7.80837C6.34878 7.93615 6.19019 7.99978 6.0013 7.99978C5.81241 7.99978 5.65382 7.93615 5.52604 7.80837C5.39833 7.68061 5.33464 7.52195 5.33464 7.33311C5.33468 7.14442 5.39846 6.98619 5.52604 6.8585C5.65382 6.73072 5.81241 6.66644 6.0013 6.66644Z" fill="#FAFAFA"/>
<path d="M8.0013 6.66644C8.19019 6.66644 8.34878 6.73072 8.47656 6.8585C8.60415 6.98619 8.66792 7.14442 8.66797 7.33311C8.66797 7.52195 8.60427 7.68061 8.47656 7.80837C8.34878 7.93615 8.19019 7.99978 8.0013 7.99978C7.81241 7.99978 7.65382 7.93615 7.52604 7.80837C7.39833 7.68061 7.33464 7.52195 7.33464 7.33311C7.33468 7.14442 7.39846 6.98619 7.52604 6.8585C7.65382 6.73072 7.81241 6.66644 8.0013 6.66644Z" fill="#FAFAFA"/>
<path d="M10.1432 6.66644C10.332 6.6665 10.4901 6.73078 10.6178 6.8585C10.7456 6.98623 10.8098 7.14432 10.8099 7.33311C10.8099 7.522 10.7456 7.68059 10.6178 7.80837C10.4901 7.93603 10.332 7.99972 10.1432 7.99978C9.95435 7.99978 9.79574 7.93613 9.66797 7.80837C9.54019 7.68059 9.47656 7.522 9.47656 7.33311C9.47661 7.14436 9.5403 6.98622 9.66797 6.8585C9.79575 6.73072 9.95434 6.66644 10.1432 6.66644Z" fill="#FAFAFA"/>
<path d="M7.0013 4.66644C7.19019 4.66644 7.34878 4.73072 7.47656 4.8585C7.60415 4.98619 7.66792 5.14442 7.66797 5.33311C7.66797 5.52195 7.60427 5.68061 7.47656 5.80837C7.34878 5.93615 7.19019 5.99978 7.0013 5.99978C6.81241 5.99978 6.65382 5.93615 6.52604 5.80837C6.39833 5.68061 6.33464 5.52195 6.33464 5.33311C6.33468 5.14442 6.39846 4.98619 6.52604 4.8585C6.65382 4.73072 6.81241 4.66644 7.0013 4.66644Z" fill="#FAFAFA"/>
<path d="M9.0013 4.66644C9.19019 4.66644 9.34878 4.73072 9.47656 4.8585C9.60415 4.98619 9.66792 5.14442 9.66797 5.33311C9.66797 5.52195 9.60427 5.68061 9.47656 5.80837C9.34878 5.93615 9.19019 5.99978 9.0013 5.99978C8.81241 5.99978 8.65382 5.93615 8.52604 5.80837C8.39833 5.68061 8.33464 5.52195 8.33464 5.33311C8.33468 5.14442 8.39846 4.98619 8.52604 4.8585C8.65382 4.73072 8.81241 4.66644 9.0013 4.66644Z" fill="#FAFAFA"/>
<path fill-rule="evenodd" clip-rule="evenodd" d="M6.80729 1.83702C7.47116 1.165 8.53145 1.16501 9.19531 1.83702C9.89971 2.55034 10.9246 3.68078 11.776 4.99457C12.6203 6.29739 13.3346 7.84188 13.3346 9.37087C13.3346 12.2995 10.9432 14.6671 8.0013 14.6671C5.05942 14.6671 2.66797 12.2995 2.66797 9.37087C2.66797 7.84188 3.38228 6.29739 4.22656 4.99457C5.07796 3.68078 6.1029 2.55034 6.80729 1.83702ZM8.48372 2.54014C8.21132 2.26431 7.79129 2.26431 7.51888 2.54014C6.83936 3.22828 5.8658 4.30429 5.06576 5.53884C4.25873 6.78425 3.66797 8.13021 3.66797 9.37087C3.66797 11.74 5.60444 13.6671 8.0013 13.6671C10.3982 13.6671 12.3346 11.74 12.3346 9.37087C12.3346 8.13021 11.7439 6.78425 10.9368 5.53884C10.1368 4.30429 9.16324 3.22828 8.48372 2.54014Z" fill="#FAFAFA"/>
</svg>
