<svg width="16" height="16" viewBox="0 0 16 16" fill="none" xmlns="http://www.w3.org/2000/svg">
<path fill-rule="evenodd" clip-rule="evenodd" d="M14.0293 4.8486C14.1801 4.80532 14.3427 4.8356 14.4681 4.92998C14.5934 5.02439 14.6672 5.1722 14.6673 5.32906V12.3199C14.6673 12.5313 14.5344 12.7203 14.3353 12.7913L9.14844 14.6377C8.99543 14.692 8.82541 14.6687 8.69271 14.5752C8.56 14.4815 8.48112 14.3288 8.48112 14.1663V6.818C8.48124 6.5951 8.62883 6.39904 8.8431 6.33753L14.0293 4.8486ZM9.48112 7.1943V13.4573L13.6673 11.9671V5.99248L9.48112 7.1943Z" fill="#FAFAFA"/>
<path fill-rule="evenodd" clip-rule="evenodd" d="M1.5332 4.8805C1.65857 4.78612 1.82117 4.75584 1.97201 4.79912L7.1582 6.28805C7.37247 6.34956 7.52006 6.54562 7.52018 6.76852V14.1168C7.52018 14.2793 7.4413 14.432 7.30859 14.5257C7.17589 14.6193 7.00587 14.6426 6.85286 14.5882L1.66602 12.7418C1.46694 12.6708 1.33398 12.4819 1.33398 12.2705V5.27959C1.33407 5.12272 1.40792 4.97492 1.5332 4.8805ZM2.33398 11.9176L6.52018 13.4078V7.14482L2.33398 5.943V11.9176Z" fill="#FAFAFA"/>
<path fill-rule="evenodd" clip-rule="evenodd" d="M8.12305 1.35185L13.832 2.90133C14.0482 2.96004 14.1991 3.1559 14.2012 3.37985C14.203 3.60392 14.0551 3.8019 13.8398 3.86422L8.13607 5.51201C8.04552 5.53815 7.94928 5.53812 7.85872 5.51201L2.14583 3.86487C1.93052 3.80273 1.78287 3.60458 1.78451 3.3805C1.78637 3.15638 1.93733 2.96007 2.15365 2.90133L7.86133 1.35185L7.92643 1.33883C7.99196 1.33013 8.05882 1.33445 8.12305 1.35185ZM4.13867 3.39807L7.99674 4.51071L11.847 3.39873L7.99219 2.35185L4.13867 3.39807Z" fill="#FAFAFA"/>
</svg>
