<svg width="16" height="16" viewBox="0 0 16 16" fill="none" xmlns="http://www.w3.org/2000/svg">
<path d="M13.6829 4.13826C13.8786 3.97744 14.1684 3.988 14.3522 4.17017C14.5358 4.35241 14.5485 4.64179 14.3893 4.83879L14.3548 4.8772L9.6595 9.61418C9.56561 9.70889 9.4374 9.76261 9.30404 9.76261H2.5V13.4996H8.70833L8.94206 13.4937C10.1066 13.4353 11.2127 12.9434 12.0423 12.1064L13.6452 10.4898L13.6829 10.4553C13.8786 10.2943 14.1684 10.3043 14.3522 10.4866C14.5482 10.681 14.5492 10.9975 14.3548 11.1936L12.752 12.8095L12.7526 12.8101C11.7478 13.8239 10.4064 14.4222 8.99219 14.4931L8.70833 14.4996H2C1.72387 14.4996 1.50002 14.2757 1.5 13.9996V9.26261L1.5026 9.21118C1.52828 8.95912 1.74117 8.76261 2 8.76261H3.14714L3.60417 6.23201L3.60612 6.22355L3.64844 6.04972C3.76411 5.64948 3.99699 5.29139 4.31966 5.02433C4.68868 4.719 5.15228 4.55181 5.63086 4.55168H5.91276L6.00065 4.55884C6.20051 4.59428 6.363 4.74918 6.40365 4.95402L6.71549 6.52824L6.73242 6.5966C6.77806 6.75466 6.86953 6.89535 6.99544 6.99959C7.1393 7.11861 7.31919 7.18314 7.50391 7.18319H9.04362L9.0944 7.18579C9.34659 7.2113 9.54357 7.42428 9.54362 7.68319C9.5436 7.94212 9.3466 8.15506 9.0944 8.18058L9.04362 8.18319H7.50391C7.08563 8.1831 6.68048 8.03715 6.35807 7.77043C6.0761 7.53713 5.87252 7.22413 5.77148 6.87459L5.73437 6.72225L5.50391 5.56014C5.30469 5.58446 5.11494 5.66448 4.95768 5.79451C4.7693 5.9504 4.63851 6.16753 4.58854 6.40975L4.16341 8.76261H9.0957L13.6452 4.17277L13.6829 4.13826Z" fill="#FAFAFA"/>
<path d="M5.5013 1.5022C6.23768 1.5022 6.83464 2.09915 6.83464 2.83553C6.83464 3.57191 6.23768 4.16886 5.5013 4.16886C4.76492 4.16886 4.16797 3.57191 4.16797 2.83553C4.16797 2.09915 4.76492 1.5022 5.5013 1.5022Z" fill="#FAFAFA"/>
</svg>
