<svg width="16" height="16" viewBox="0 0 16 16" fill="none" xmlns="http://www.w3.org/2000/svg">
<path fill-rule="evenodd" clip-rule="evenodd" d="M11.1094 8.62256C11.7584 8.62256 12.3809 8.88045 12.8398 9.33936C13.2988 9.7983 13.5566 10.4208 13.5566 11.0698C13.5566 11.5459 13.4172 12.0072 13.1621 12.4006L14.6615 13.8166C14.8618 14.0062 14.8705 14.3223 14.681 14.5229C14.4914 14.7235 14.1753 14.7326 13.9746 14.5431L12.4583 13.1108C12.061 13.3734 11.5928 13.5171 11.1094 13.5171C10.4604 13.5171 9.83785 13.2592 9.37891 12.8003C8.92003 12.3414 8.66214 11.7188 8.66211 11.0698C8.66214 10.4208 8.92 9.7983 9.37891 9.33936C9.83785 8.88041 10.4603 8.62258 11.1094 8.62256ZM11.1094 9.62256C10.7255 9.62258 10.3573 9.77498 10.0859 10.0464C9.81457 10.3178 9.66214 10.686 9.66211 11.0698C9.66214 11.4536 9.8146 11.8219 10.0859 12.0933C10.3573 12.3646 10.7256 12.5171 11.1094 12.5171C11.4932 12.5171 11.8614 12.3647 12.1328 12.0933C12.4042 11.8219 12.5566 11.4536 12.5566 11.0698C12.5566 10.686 12.4042 10.3178 12.1328 10.0464C11.8614 9.77501 11.4932 9.62256 11.1094 9.62256Z" fill="#FAFAFA"/>
<path d="M11.571 1.3335C12.22 1.33354 12.8425 1.59136 13.3014 2.05029C13.7604 2.50924 14.0182 3.13173 14.0182 3.78076V7.35107C14.0182 7.62717 13.7943 7.85103 13.5182 7.85107C13.2421 7.85107 13.0183 7.62719 13.0182 7.35107V3.78076C13.0182 3.39695 12.8658 3.02873 12.5944 2.75732C12.323 2.48593 11.9548 2.33354 11.571 2.3335H3.78125C3.39742 2.33352 3.02922 2.48591 2.75781 2.75732C2.4864 3.02873 2.33401 3.39693 2.33398 3.78076V9.06527L4.73307 6.66618C5.1093 6.30423 5.56486 6.09196 6.05339 6.09196C6.48097 6.09199 6.88322 6.25463 7.22917 6.53792L7.3737 6.66618L7.38021 6.67334L8.67904 7.97152C8.87395 8.16676 8.87407 8.48338 8.67904 8.67855C8.4838 8.87368 8.16659 8.87368 7.97135 8.67855L6.67318 7.38037C6.44976 7.16818 6.23524 7.09199 6.05339 7.09196C5.86955 7.09196 5.6525 7.16939 5.42643 7.38688L2.33398 10.4793V11.5705C2.33403 11.9543 2.48642 12.3225 2.75781 12.5939C3.02922 12.8653 3.39744 13.0177 3.78125 13.0177H7.35156C7.62768 13.0178 7.85156 13.2416 7.85156 13.5177C7.85152 13.7938 7.62766 14.0177 7.35156 14.0177H3.78125C3.13222 14.0177 2.50972 13.7599 2.05078 13.3009C1.59185 12.842 1.33403 12.2195 1.33398 11.5705V3.78076C1.33401 3.13172 1.59183 2.50924 2.05078 2.05029C2.50973 1.59135 3.1322 1.33352 3.78125 1.3335H11.571Z" fill="#FAFAFA"/>
<path d="M10.0391 3.88232C10.3982 3.8824 10.7428 4.02547 10.9967 4.27946C11.2507 4.5335 11.3932 4.87793 11.3932 5.23714C11.3932 5.59636 11.2507 5.94079 10.9967 6.19482C10.7428 6.44881 10.3982 6.59189 10.0391 6.59196C9.67978 6.59196 9.33478 6.44888 9.08073 6.19482C8.82679 5.94079 8.68425 5.59634 8.68425 5.23714C8.68425 4.87795 8.8268 4.53349 9.08073 4.27946C9.33478 4.02541 9.67978 3.88232 10.0391 3.88232Z" fill="#FAFAFA"/>
</svg>
