<svg width="16" height="16" viewBox="0 0 16 16" fill="none" xmlns="http://www.w3.org/2000/svg">
<path d="M7.99998 1.33301C8.10469 1.33301 8.20704 1.36502 8.293 1.4248C8.37893 1.48459 8.44412 1.56951 8.48054 1.66764L10.0414 5.95931L14.3332 7.51986C14.4314 7.55629 14.5163 7.62207 14.5761 7.70801C14.6359 7.79397 14.6679 7.89627 14.6679 8.00098L14.6621 8.0791C14.6502 8.15595 14.6209 8.22955 14.5761 8.29394L14.5266 8.35449C14.473 8.41085 14.4068 8.45479 14.3332 8.4821L10.0388 10.04L8.47859 14.3317L8.44538 14.4027C8.40754 14.4707 8.35485 14.5297 8.2904 14.5745L8.22268 14.6143C8.15284 14.6484 8.07579 14.6663 7.99738 14.6663L7.91989 14.6605C7.86857 14.6526 7.81871 14.6371 7.77207 14.6143L7.70435 14.5745C7.61844 14.5148 7.55324 14.4298 7.51681 14.3317L5.95857 10.04L1.66673 8.47949C1.59316 8.45218 1.52695 8.40825 1.47333 8.35189L1.42385 8.29134C1.36406 8.20538 1.33203 8.10308 1.33203 7.99837C1.33204 7.89367 1.36406 7.79136 1.42385 7.7054C1.46868 7.64095 1.52774 7.5883 1.59575 7.55046L1.66673 7.51725L5.95857 5.95931L7.51942 1.66764C7.55584 1.56951 7.62103 1.48459 7.70695 1.4248C7.79292 1.36502 7.89527 1.33301 7.99998 1.33301ZM6.89821 6.30111C6.80968 6.54452 6.63115 6.74305 6.40136 6.85644L6.29978 6.89941L3.27121 7.99837L6.30043 9.09993L6.40202 9.14355C6.63162 9.25711 6.81051 9.45551 6.89886 9.69889L7.99738 12.7269L9.09915 9.69824L9.14213 9.59668C9.25566 9.36701 9.45409 9.18832 9.69757 9.09993L12.7275 8.00033L9.69952 6.89941C9.45628 6.81096 9.25818 6.63215 9.14473 6.40267L9.10175 6.30111L7.99998 3.27116L6.89821 6.30111Z" fill="#FAFAFA"/>
</svg>
