<svg width="16" height="16" viewBox="0 0 16 16" fill="none" xmlns="http://www.w3.org/2000/svg">
<path fill-rule="evenodd" clip-rule="evenodd" d="M6.82617 4.19824C8.83814 4.30008 10.4382 5.96371 10.4382 8.00098L10.4329 8.19629C10.3309 10.208 8.66787 11.8081 6.63086 11.8083L6.4349 11.8031C4.48791 11.7044 2.92683 10.1433 2.82812 8.19629L2.82292 8.00098C2.82292 5.89815 4.52805 4.19313 6.63086 4.19303L6.82617 4.19824ZM4.84505 10.167C5.33043 10.5675 5.95257 10.8082 6.63086 10.8083C7.30919 10.8082 7.9314 10.5676 8.41667 10.167H4.84505ZM3.86849 8.50033C3.9105 8.73387 3.98087 8.95732 4.07682 9.16699H9.18424C9.28018 8.95731 9.35058 8.73388 9.39258 8.50033H3.86849ZM4.07682 6.83366C3.98083 7.04329 3.91055 7.26681 3.86849 7.50033H9.39258C9.35053 7.2668 9.28022 7.0433 9.18424 6.83366H4.07682ZM6.63086 5.19303C5.9529 5.19307 5.33098 5.43348 4.8457 5.83366H8.41602C7.93085 5.43341 7.30886 5.19311 6.63086 5.19303Z" fill="#FAFAFA"/>
<path d="M12.5977 8.66178C12.8738 8.66178 13.0977 8.88564 13.0977 9.16178V10.8988L13.0951 10.9495C13.0695 11.2017 12.8566 11.3988 12.5977 11.3988C12.3388 11.3987 12.1258 11.2016 12.1003 10.9495L12.0977 10.8988V9.16178C12.0977 8.88572 12.3216 8.6619 12.5977 8.66178Z" fill="#FAFAFA"/>
<path fill-rule="evenodd" clip-rule="evenodd" d="M13.334 2.66699C14.0704 2.66699 14.6673 3.26395 14.6673 4.00033V12.0003C14.6673 12.7367 14.0704 13.3337 13.334 13.3337H2.66732L2.53125 13.3265C1.8588 13.2583 1.33398 12.6908 1.33398 12.0003V4.00033C1.33398 3.26395 1.93094 2.66699 2.66732 2.66699H13.334ZM2.66732 3.66699C2.48322 3.66699 2.33398 3.81623 2.33398 4.00033V12.0003C2.33398 12.1844 2.48322 12.3337 2.66732 12.3337H13.334C13.5181 12.3337 13.6673 12.1844 13.6673 12.0003V4.00033C13.6673 3.81623 13.5181 3.66699 13.334 3.66699H2.66732Z" fill="#FAFAFA"/>
</svg>
