<svg width="16" height="16" viewBox="0 0 16 16" fill="none" xmlns="http://www.w3.org/2000/svg">
<path fill-rule="evenodd" clip-rule="evenodd" d="M8.00065 2.33325C4.87104 2.33325 2.33398 4.8703 2.33398 7.99992C2.33398 11.1295 4.87104 13.6666 8.00065 13.6666C11.1303 13.6666 13.6673 11.1295 13.6673 7.99992C13.6673 4.8703 11.1303 2.33325 8.00065 2.33325ZM1.33398 7.99992C1.33398 4.31802 4.31875 1.33325 8.00065 1.33325C11.6825 1.33325 14.6673 4.31802 14.6673 7.99992C14.6673 11.6818 11.6825 14.6666 8.00065 14.6666C4.31875 14.6666 1.33398 11.6818 1.33398 7.99992ZM5.36359 8.49992C5.44584 9.18844 5.6961 9.81633 6.07141 10.3071C6.53624 10.915 7.21384 11.3333 8.00065 11.3333C8.78927 11.3333 9.4681 10.9131 9.93305 10.303C10.1004 10.0834 10.0581 9.76961 9.83843 9.60224C9.6188 9.43486 9.30506 9.47722 9.13768 9.69685C8.81803 10.1163 8.41135 10.3333 8.00065 10.3333C7.59085 10.3333 7.18512 10.1173 6.86577 9.69966C6.62688 9.38728 6.44809 8.97372 6.37296 8.49992H7.16732C7.44346 8.49992 7.66732 8.27606 7.66732 7.99992C7.66732 7.72378 7.44346 7.49992 7.16732 7.49992H6.37296C6.44809 7.02612 6.62688 6.61256 6.86577 6.30017C7.18512 5.88256 7.59085 5.66658 8.00065 5.66658C8.41135 5.66658 8.81803 5.88354 9.13768 6.30298C9.30506 6.52262 9.6188 6.56498 9.83843 6.3976C10.0581 6.23022 10.1004 5.91649 9.93305 5.69685C9.4681 5.08676 8.78927 4.66658 8.00065 4.66658C7.21384 4.66658 6.53624 5.08487 6.07141 5.69272C5.6961 6.18351 5.44584 6.8114 5.36359 7.49992H5.16732C4.89118 7.49992 4.66732 7.72378 4.66732 7.99992C4.66732 8.27606 4.89118 8.49992 5.16732 8.49992H5.36359Z" fill="#FAFAFA"/>
</svg>
