<svg width="16" height="16" viewBox="0 0 16 16" fill="none" xmlns="http://www.w3.org/2000/svg">
<path fill-rule="evenodd" clip-rule="evenodd" d="M5.50098 12.25C6.00709 12.2502 6.41699 12.6608 6.41699 13.167C6.41682 13.673 6.00698 14.0828 5.50098 14.083C4.99497 14.0828 4.58416 13.673 4.58398 13.167C4.58398 12.6608 4.99486 12.2502 5.50098 12.25Z" fill="#FAFAFA"/>
<path fill-rule="evenodd" clip-rule="evenodd" d="M11.501 12.25C12.0071 12.2502 12.417 12.6608 12.417 13.167C12.4168 13.673 12.007 14.0828 11.501 14.083C10.995 14.0828 10.5842 13.673 10.584 13.167C10.584 12.6608 10.9949 12.2502 11.501 12.25Z" fill="#FAFAFA"/>
<path fill-rule="evenodd" clip-rule="evenodd" d="M2.03027 2C2.93098 2 3.69852 2.65455 3.84082 3.54395L3.91406 4H12.7207C13.4376 4 13.9849 4.64051 13.873 5.34863L13.1729 9.78613C13.0321 10.6772 12.2634 11.333 11.3613 11.333H5.6377C4.73719 11.3329 3.96957 10.6792 3.82715 9.79004L2.85352 3.70215C2.78883 3.29788 2.43969 3 2.03027 3H1.16797C0.891826 3 0.667969 2.77614 0.667969 2.5C0.667969 2.22386 0.891826 2 1.16797 2H2.03027ZM4.81543 9.63184C4.8802 10.0359 5.22847 10.3329 5.6377 10.333H11.3613C11.7714 10.333 12.1206 10.0349 12.1846 9.62988L12.8857 5.19238C12.9015 5.09135 12.823 5 12.7207 5H4.07422L4.81543 9.63184Z" fill="#FAFAFA"/>
</svg>
