<svg width="16" height="16" viewBox="0 0 16 16" fill="none" xmlns="http://www.w3.org/2000/svg">
<path d="M9.49967 3.06641C9.49962 2.86985 9.4393 2.71107 9.36556 2.61263C9.29182 2.51431 9.22779 2.5 9.19954 2.5H6.7998C6.77156 2.5 6.70753 2.51431 6.63379 2.61263C6.56005 2.71107 6.49973 2.86985 6.49967 3.06641V3.60026C6.49973 3.79681 6.56005 3.95559 6.63379 4.05404C6.70753 4.15236 6.77156 4.16667 6.7998 4.16667H9.19954C9.22779 4.16667 9.29182 4.15236 9.36556 4.05404C9.4393 3.95559 9.49962 3.79681 9.49967 3.60026V3.06641ZM10.4997 3.60026C10.4996 3.99244 10.3807 4.36677 10.165 4.6543C9.94923 4.94195 9.61303 5.16667 9.19954 5.16667H6.7998C6.38632 5.16667 6.05012 4.94195 5.83431 4.6543C5.61867 4.36677 5.49973 3.99244 5.49967 3.60026V3.06641C5.49973 2.67422 5.61867 2.29989 5.83431 2.01237C6.05012 1.72472 6.38632 1.5 6.7998 1.5H9.19954C9.61303 1.5 9.94923 1.72472 10.165 2.01237C10.3807 2.29989 10.4996 2.67422 10.4997 3.06641V3.60026Z" fill="#FAFAFA"/>
<path d="M2.83301 13.1113V4.22201C2.83307 3.85372 2.97951 3.50065 3.23991 3.24023L3.34147 3.14779C3.58857 2.9453 3.8994 2.83338 4.22168 2.83333C4.49782 2.83333 4.72168 3.05719 4.72168 3.33333C4.72168 3.60948 4.49782 3.83333 4.22168 3.83333C4.14446 3.83338 4.06952 3.85624 4.00618 3.89844L3.94694 3.94727C3.87406 4.02016 3.83307 4.11895 3.83301 4.22201V13.1113C3.83307 13.2144 3.87411 13.3133 3.94694 13.3861L4.00618 13.4349C4.06955 13.4771 4.1445 13.5 4.22168 13.5H11.7777C11.8807 13.4999 11.9795 13.4589 12.0524 13.3861C12.1253 13.3132 12.1663 13.2144 12.1663 13.1113V4.22201C12.1663 4.14482 12.1434 4.06987 12.1012 4.00651L12.0524 3.94727C11.9978 3.89266 11.9285 3.85612 11.8538 3.84115L11.7777 3.83333L11.7262 3.83073C11.4742 3.80508 11.2777 3.59218 11.2777 3.33333C11.2777 3.05719 11.5015 2.83333 11.7777 2.83333L11.915 2.83984C12.2329 2.87147 12.5316 3.01237 12.7594 3.24023L12.8519 3.3418C13.0543 3.58886 13.1663 3.89968 13.1663 4.22201V13.1113C13.1663 13.4796 13.0198 13.8327 12.7594 14.0931C12.4991 14.3535 12.146 14.4999 11.7777 14.5H4.22168C3.89936 14.4999 3.58854 14.388 3.34147 14.1855L3.23991 14.0931C2.97947 13.8327 2.83307 13.4796 2.83301 13.1113Z" fill="#FAFAFA"/>
</svg>
