<svg width="16" height="16" viewBox="0 0 16 16" fill="none" xmlns="http://www.w3.org/2000/svg">
<path d="M10.9759 2.00391C11.0456 2.00811 11.0995 2.01706 11.1503 2.03385C11.2405 2.06363 11.3234 2.11212 11.3932 2.17643C11.4721 2.24913 11.5277 2.34915 11.6386 2.54883L14.3795 7.48177C14.4846 7.67084 14.5367 7.76577 14.5573 7.86589C14.5754 7.95439 14.5754 8.04561 14.5573 8.13411C14.5367 8.23423 14.4846 8.32916 14.3795 8.51823L11.6386 13.4512L11.5039 13.6849C11.4662 13.744 11.4327 13.7872 11.3932 13.8236L11.3385 13.8691C11.2816 13.9113 11.2179 13.9438 11.1503 13.9661C11.0995 13.9829 11.0456 13.9919 10.9759 13.9961L10.7063 14H5.29488L5.0247 13.9961C4.9898 13.994 4.95889 13.9904 4.9303 13.9857L4.85022 13.9661C4.7601 13.9364 4.67717 13.8879 4.60738 13.8236C4.52853 13.7509 4.47284 13.6508 4.36194 13.4512L1.6217 8.51823C1.54282 8.37623 1.49317 8.2874 1.4648 8.20964L1.44332 8.13411C1.42514 8.04562 1.42514 7.95438 1.44332 7.86589C1.45362 7.8158 1.47175 7.76686 1.50061 7.70703L1.6217 7.48177L4.36194 2.54883C4.47284 2.3492 4.52853 2.24913 4.60738 2.17643C4.67717 2.11212 4.7601 2.06363 4.85022 2.03385C4.9011 2.01705 4.95497 2.00812 5.0247 2.00391L5.29488 2H10.7063L10.9759 2.00391ZM5.25517 3C5.2492 3.01072 5.24301 3.02241 5.23629 3.03451L2.4954 7.96745C2.48899 7.97899 2.48284 7.98979 2.47717 8C2.48284 8.01021 2.48899 8.02101 2.4954 8.03255L5.23629 12.9655C5.24291 12.9774 5.24928 12.9888 5.25517 12.9993C5.26754 12.9994 5.2809 13 5.29488 13H10.7063C10.7199 13 10.7327 12.9994 10.7448 12.9993C10.7507 12.9887 10.7576 12.9775 10.7643 12.9655L13.5052 8.03255C13.5115 8.02114 13.5171 8.01012 13.5227 8C13.5171 7.98988 13.5115 7.97886 13.5052 7.96745L10.7643 3.03451C10.7575 3.02228 10.7508 3.01082 10.7448 3H5.25517Z" fill="#FAFAFA"/>
</svg>
