<svg width="16" height="16" viewBox="0 0 16 16" fill="none" xmlns="http://www.w3.org/2000/svg">
<path fill-rule="evenodd" clip-rule="evenodd" d="M7.97926 0.645997C8.0586 0.633154 8.14055 0.639863 8.21754 0.665528C8.72122 0.833575 9.13474 1.29189 9.41285 1.81722C9.69992 2.35957 9.88486 3.04768 9.88486 3.79118L9.88421 6.61084L14.0737 9.29183L14.0815 9.29704C14.5366 9.60047 14.6746 10.0733 14.6088 10.5347C14.6026 10.5781 14.5903 10.6213 14.573 10.6616L14.4408 10.9709C14.238 11.4441 13.7806 11.7926 13.2039 11.7104C13.1941 11.7091 13.1836 11.7079 13.1739 11.7059L9.77613 11.0106L9.48577 12.4657L10.6225 13.6024C10.7162 13.6961 10.769 13.8233 10.769 13.9559V14.84C10.7689 14.9897 10.7011 15.1312 10.5854 15.2261C10.4696 15.3209 10.3175 15.3596 10.1707 15.3302L8.05869 14.9071L5.94736 15.3302C5.8006 15.3595 5.64842 15.3209 5.53265 15.2261C5.417 15.1312 5.3498 14.9896 5.3497 14.84V13.9559L5.35947 13.8576C5.37871 13.7616 5.42593 13.6726 5.49619 13.6024L6.63225 12.4657L6.34124 11.0106L2.94475 11.7059C2.93503 11.7079 2.92464 11.709 2.91481 11.7104C2.33797 11.7927 1.88073 11.4441 1.67783 10.9709L1.65179 10.8953L1.56324 10.5418C1.42884 10.0915 1.58481 9.64429 1.95712 9.35433L2.03655 9.29704L2.04436 9.29183L6.23317 6.61084V3.79118C6.23317 3.04761 6.4187 2.3596 6.70582 1.81722C6.96657 1.32469 7.34591 0.890764 7.80738 0.700033L7.90048 0.665528L7.97926 0.645997ZM8.05869 1.70068C7.91585 1.80422 7.7445 1.99151 7.58929 2.28467C7.37925 2.6814 7.23317 3.20896 7.23317 3.79118V6.88493C7.2331 7.05535 7.14624 7.21428 7.0027 7.30615L2.59124 10.1291C2.53491 10.1667 2.52188 10.1967 2.51897 10.2046C2.51652 10.2114 2.51149 10.2275 2.52288 10.2619C2.5269 10.274 2.53086 10.2867 2.53395 10.299L2.61012 10.6037C2.63965 10.6616 2.67138 10.6916 2.6928 10.7052C2.71264 10.7179 2.73476 10.7247 2.76832 10.7209L6.63291 9.9305C6.76312 9.90387 6.89908 9.93 7.00986 10.0034C7.12058 10.0769 7.19733 10.1921 7.2234 10.3224L7.66546 12.5321C7.69819 12.6959 7.64684 12.8651 7.52874 12.9832L6.3497 14.1629L6.34905 14.23L7.96103 13.9077L8.05934 13.8979C8.09207 13.898 8.12474 13.9013 8.15699 13.9077L9.76832 14.23L9.76897 14.1629L8.58929 12.9832C8.47129 12.8651 8.41987 12.6958 8.45257 12.5321L8.89462 10.3224L8.92392 10.228C8.96174 10.1374 9.02514 10.0586 9.10817 10.0034C9.21892 9.92994 9.35489 9.90392 9.48512 9.9305L13.3491 10.7209C13.383 10.7249 13.4053 10.7179 13.4252 10.7052C13.4498 10.6896 13.489 10.653 13.5216 10.577L13.6238 10.3381C13.6264 10.2812 13.6183 10.2443 13.6095 10.2215C13.5997 10.1967 13.5809 10.1648 13.5274 10.1291L13.5268 10.1297L9.11598 7.30615C8.97243 7.21428 8.88492 7.05535 8.88486 6.88493V3.79118C8.88486 3.20896 8.73878 2.6814 8.52874 2.28467C8.37332 1.99117 8.20163 1.80412 8.05869 1.70068Z" fill="#FAFAFA"/>
<path d="M2.63291 12.633C2.8824 12.6331 3.0853 12.8353 3.08538 13.0848V14.215C3.08516 14.4644 2.88232 14.6667 2.63291 14.6668C2.38344 14.6668 2.1813 14.4644 2.18108 14.215V13.0848C2.18117 12.8353 2.38336 12.633 2.63291 12.633Z" fill="#FAFAFA"/>
<path d="M13.3673 12.633C13.6168 12.633 13.8197 12.8353 13.8198 13.0848V14.215C13.8195 14.4644 13.6167 14.6668 13.3673 14.6668C13.1178 14.6668 12.9157 14.4644 12.9155 14.215V13.0848C12.9155 12.8353 13.1177 12.633 13.3673 12.633Z" fill="#FAFAFA"/>
<path d="M2.63291 5.15837C2.8824 5.15845 3.0853 5.36069 3.08538 5.61019V6.7404C3.08518 6.98979 2.88233 7.19213 2.63291 7.19222C2.38343 7.1922 2.18129 6.98983 2.18108 6.7404V5.61019C2.18117 5.36065 2.38336 5.15839 2.63291 5.15837Z" fill="#FAFAFA"/>
<path d="M13.3673 5.15837C13.6168 5.15841 13.8197 5.36067 13.8198 5.61019V6.7404C13.8196 6.98982 13.6167 7.19218 13.3673 7.19222C13.1178 7.1922 12.9157 6.98983 12.9155 6.7404V5.61019C12.9155 5.36065 13.1177 5.15839 13.3673 5.15837Z" fill="#FAFAFA"/>
<path d="M2.63291 1.33285C2.88243 1.33293 3.08534 1.53579 3.08538 1.78532V2.91488C3.08538 3.16444 2.88245 3.36726 2.63291 3.36735C2.3833 3.36733 2.18108 3.16448 2.18108 2.91488V1.78532C2.18112 1.53575 2.38333 1.33287 2.63291 1.33285Z" fill="#FAFAFA"/>
<path d="M13.3673 1.33285C13.6168 1.33289 13.8197 1.53576 13.8198 1.78532V2.91488C13.8198 3.16447 13.6169 3.36731 13.3673 3.36735C13.1177 3.36733 12.9155 3.16448 12.9155 2.91488V1.78532C12.9155 1.53575 13.1177 1.33287 13.3673 1.33285Z" fill="#FAFAFA"/>
</svg>
