<svg width="16" height="16" viewBox="0 0 16 16" fill="none" xmlns="http://www.w3.org/2000/svg">
<path d="M6.81583 10.4749C6.97604 10.6712 6.9644 10.9611 6.78133 11.1441C6.59826 11.3272 6.30844 11.3388 6.11206 11.1786L6.0743 11.1441L3.0743 8.14412C2.89123 7.96105 2.87959 7.67124 3.03979 7.47485L3.0743 7.43709L6.0743 4.43709L6.11206 4.40258C6.30844 4.24238 6.59826 4.25402 6.78133 4.43709C6.9644 4.62016 6.97604 4.90997 6.81583 5.10636L6.78133 5.14412L4.13484 7.79061L6.78133 10.4371L6.81583 10.4749Z" fill="#FAFAFA"/>
<path d="M13.1492 7.47485C13.3094 7.67124 13.2977 7.96105 13.1147 8.14412L10.1147 11.1441L10.0769 11.1786C9.88051 11.3388 9.5907 11.3272 9.40763 11.1441C9.22456 10.9611 9.21292 10.6712 9.37312 10.4749L9.40763 10.4371L12.0541 7.79061L9.40763 5.14412C9.21237 4.94886 9.21237 4.63235 9.40763 4.43709C9.60289 4.24183 9.9194 4.24183 10.1147 4.43709L13.1147 7.43709L13.1492 7.47485Z" fill="#FAFAFA"/>
</svg>
