<svg width="16" height="16" viewBox="0 0 16 16" fill="none" xmlns="http://www.w3.org/2000/svg">
<path d="M10.5332 1.5C10.8092 1.50014 11.0331 1.72402 11.0332 2C11.0331 2.27598 10.8092 2.49986 10.5332 2.5H9.0332V3.5H9.36133C10.5006 3.49901 11.6086 3.87214 12.5156 4.56152C13.3661 5.20803 13.9965 6.0994 14.3223 7.11328L14.3828 7.31738L14.3848 7.32227C14.4736 7.65491 14.4258 8.0095 14.2539 8.30762C14.0819 8.60549 13.7991 8.8235 13.4668 8.91309H13.4658L13.4551 8.91699L13.4492 8.91797C13.1325 9.00295 12.7943 8.95895 12.5098 8.7959C12.2275 8.6338 12.0192 8.36727 11.9316 8.05371C11.7695 7.49019 11.4286 6.99401 10.96 6.6416C10.6259 6.39054 10.2394 6.22341 9.83301 6.14746V7.09961H10.2656L10.4209 7.10742C10.7794 7.14302 11.117 7.30161 11.374 7.55859C11.6676 7.85226 11.8329 8.2508 11.833 8.66602V13.4658C11.833 13.7398 11.7239 14.0035 11.5303 14.1973C11.3365 14.391 11.0729 14.499 10.7988 14.499H6.26562C5.99178 14.4989 5.72876 14.3907 5.53516 14.1973C5.34155 14.0035 5.23242 13.7397 5.23242 13.4658V8.66602C5.23258 8.25078 5.39782 7.85226 5.69141 7.55859C5.98506 7.26497 6.38361 7.09978 6.79883 7.09961H7.2334V6.10059H6.13281C5.85704 6.10038 5.63313 5.87633 5.63281 5.60059V4C5.6329 3.72406 5.8569 3.50021 6.13281 3.5H8.0332V2.5H6.5332C6.25711 2.5 6.03329 2.27607 6.0332 2C6.03329 1.72393 6.25711 1.5 6.5332 1.5H10.5332ZM6.79883 8.09961C6.6488 8.09978 6.50454 8.15956 6.39844 8.26562C6.29236 8.37177 6.23258 8.51602 6.23242 8.66602V13.4658C6.23242 13.4744 6.23635 13.4831 6.24219 13.4893C6.24837 13.4954 6.25702 13.4989 6.26562 13.499H10.7988C10.8076 13.499 10.817 13.4955 10.8232 13.4893C10.8292 13.4831 10.833 13.4744 10.833 13.4658V8.66602C10.8329 8.51602 10.7731 8.37176 10.667 8.26562C10.574 8.17277 10.4518 8.11543 10.3223 8.10254L10.2656 8.09961H9.3457C9.3415 8.09974 9.33724 8.10059 9.33301 8.10059C9.32876 8.10058 9.32454 8.09973 9.32031 8.09961H7.74609C7.74189 8.09974 7.73763 8.10058 7.7334 8.10059C7.72915 8.10058 7.72493 8.09973 7.7207 8.09961H6.79883ZM6.63281 5.10059H7.7334C8.00942 5.10073 8.2334 5.32453 8.2334 5.60059V7.09961H8.83301V5.60059C8.83301 5.32487 9.05638 5.10122 9.33203 5.10059C10.1356 5.09953 10.9182 5.35989 11.5605 5.84277C12.2027 6.32557 12.6702 7.00438 12.8926 7.77637L12.8945 7.7832C12.9113 7.84451 12.9526 7.89704 13.0078 7.92871C13.0621 7.9597 13.126 7.96755 13.1865 7.95215L13.2012 7.94922L13.2061 7.94727C13.2826 7.92665 13.3489 7.87644 13.3887 7.80762C13.4274 7.74008 13.4378 7.66017 13.4189 7.58496L13.3701 7.41895C13.107 6.60003 12.5981 5.87969 11.9111 5.35742C11.1782 4.80033 10.282 4.49909 9.36133 4.5H6.63281V5.10059ZM2.33301 5.89941C2.71946 5.89941 3.03296 6.21322 3.0332 6.59961C3.0332 6.98621 2.71961 7.2998 2.33301 7.2998C1.94649 7.2997 1.63281 6.98615 1.63281 6.59961C1.63306 6.21328 1.94665 5.89952 2.33301 5.89941ZM4.33301 5.09961C4.71951 5.09961 5.03304 5.41334 5.0332 5.7998C5.03312 6.18633 4.71955 6.49902 4.33301 6.49902C3.94655 6.49892 3.6329 6.18627 3.63281 5.7998C3.63297 5.4134 3.94659 5.09971 4.33301 5.09961ZM2.33301 3.89941C2.71946 3.89941 3.03296 4.21322 3.0332 4.59961C3.0332 4.98621 2.71961 5.2998 2.33301 5.2998C1.94649 5.2997 1.63281 4.98615 1.63281 4.59961C1.63306 4.21328 1.94665 3.89952 2.33301 3.89941ZM4.33301 2.7002C4.7194 2.7002 5.03287 3.0131 5.0332 3.39941C5.0332 3.78602 4.71961 4.09961 4.33301 4.09961C3.94649 4.09951 3.63281 3.78595 3.63281 3.39941C3.63315 3.01316 3.9467 2.7003 4.33301 2.7002ZM2.33301 1.89941C2.71946 1.89941 3.03296 2.21322 3.0332 2.59961C3.0332 2.98621 2.71961 3.2998 2.33301 3.2998C1.94649 3.2997 1.63281 2.98615 1.63281 2.59961C1.63306 2.21328 1.94665 1.89952 2.33301 1.89941Z" fill="#FAFAFA"/>
</svg>
