<svg width="16" height="16" viewBox="0 0 16 16" fill="none" xmlns="http://www.w3.org/2000/svg">
<path fill-rule="evenodd" clip-rule="evenodd" d="M13.625 3.75C13.9011 3.75 14.125 3.97386 14.125 4.25C14.125 4.52614 13.9011 4.75 13.625 4.75H13.5V12.375C13.5 12.6511 13.2761 12.875 13 12.875C12.7239 12.875 12.5 12.6511 12.5 12.375V11H11.125C10.6609 11 10.2156 10.8158 9.88737 10.4876C9.55918 10.1594 9.375 9.71413 9.375 9.25V7.25H3.5V12.375C3.5 12.6511 3.27614 12.875 3 12.875C2.72386 12.875 2.5 12.6511 2.5 12.375V4.75H2.375C2.09886 4.75 1.875 4.52614 1.875 4.25C1.875 3.97386 2.09886 3.75 2.375 3.75H13.625ZM10.375 9.25C10.375 9.44891 10.4537 9.63995 10.5944 9.7806C10.7351 9.92125 10.9261 10 11.125 10H12.5V7.25H10.375V9.25ZM10.375 6.25H12.5V4.75H10.375V6.25ZM3.5 6.25H9.375V4.75H3.5V6.25Z" fill="#FAFAFA"/>
</svg>
