<svg width="16" height="16" viewBox="0 0 16 16" fill="none" xmlns="http://www.w3.org/2000/svg">
<path d="M9.94274 9.39583C10.0662 9.14889 10.367 9.04843 10.614 9.17188L11.6856 9.70768C11.8562 9.79314 11.9633 9.96864 11.9616 10.1595C11.9598 10.3503 11.8493 10.5238 11.6771 10.6061C10.9456 10.9556 10.151 11.1542 9.34117 11.1901C9.33393 11.1904 9.32628 11.1908 9.31904 11.1908C8.65134 11.1907 8.1517 10.9336 7.75589 10.7357C7.35258 10.534 7.05028 10.3897 6.65302 10.3867C5.98039 10.4178 5.32055 10.5834 4.71292 10.8737C4.46384 10.9926 4.16531 10.887 4.04625 10.638C3.92744 10.389 4.03299 10.0904 4.28193 9.97135C5.01341 9.62189 5.80799 9.42328 6.61787 9.38737L6.64 9.38672C7.30774 9.38672 7.80732 9.64388 8.20315 9.8418C8.60623 10.0433 8.90849 10.1869 9.30537 10.1901C9.59981 10.1766 9.89156 10.1359 10.1778 10.0716L10.1667 10.0664C9.91994 9.94299 9.8197 9.64269 9.94274 9.39583Z" fill="#FAFAFA"/>
<path d="M9.94274 7.2526C10.0663 7.00586 10.3671 6.90539 10.614 7.02865L11.6856 7.56445C11.8562 7.64987 11.9632 7.82551 11.9616 8.01628C11.9598 8.2072 11.8494 8.38057 11.6771 8.46289C10.9456 8.81237 10.1511 9.01097 9.34117 9.04688C9.33392 9.0472 9.32629 9.04752 9.31904 9.04753C8.65134 9.04749 8.1517 8.79035 7.75589 8.59245C7.35268 8.39085 7.05021 8.24651 6.65302 8.24349C5.98039 8.27455 5.32055 8.44017 4.71292 8.73047C4.46376 8.8495 4.16529 8.74395 4.04625 8.49479C3.92762 8.24574 4.03295 7.94709 4.28193 7.82812C5.01341 7.47867 5.80799 7.28006 6.61787 7.24414L6.64 7.24349C7.30763 7.24349 7.80735 7.50066 8.20315 7.69857C8.60623 7.90011 8.90849 8.04365 9.30537 8.04688C9.59984 8.03332 9.89153 7.99268 10.1778 7.92839L10.1667 7.92318C9.92001 7.79966 9.81956 7.49944 9.94274 7.2526Z" fill="#FAFAFA"/>
<path d="M9.94274 5.11003C10.0662 4.8631 10.367 4.76268 10.614 4.88607L11.6856 5.42188C11.8562 5.50734 11.9633 5.68283 11.9616 5.8737C11.9598 6.06462 11.8494 6.238 11.6771 6.32031C10.9456 6.66976 10.1511 6.8684 9.34117 6.9043C9.33393 6.90462 9.32629 6.90494 9.31904 6.90495C8.65134 6.90491 8.1517 6.64778 7.75589 6.44987C7.35262 6.24824 7.05025 6.10394 6.65302 6.10091C5.98039 6.13197 5.32055 6.29759 4.71292 6.58789C4.46378 6.70685 4.16528 6.60134 4.04625 6.35221C3.92744 6.10314 4.03294 5.80458 4.28193 5.68555C5.01341 5.33609 5.80798 5.13748 6.61787 5.10156L6.64 5.10091C7.3077 5.10091 7.80733 5.35808 8.20315 5.55599C8.60623 5.75753 8.90849 5.90108 9.30537 5.9043C9.59982 5.89075 9.89155 5.85009 10.1778 5.78581L10.1667 5.7806C9.91994 5.65713 9.81958 5.35689 9.94274 5.11003Z" fill="#FAFAFA"/>
<path fill-rule="evenodd" clip-rule="evenodd" d="M13.4701 3.00716C14.1425 3.07534 14.6673 3.6429 14.6673 4.33333V4.80143C15.0278 4.8071 15.3196 5.09912 15.3229 5.46159L15.3451 10.5137C15.3483 10.8818 15.0524 11.1828 14.6843 11.1862C14.6786 11.1862 14.673 11.1856 14.6673 11.1855V11.6667C14.6673 12.357 14.1425 12.9247 13.4701 12.9928L13.334 13H2.66735C1.977 13 1.40942 12.4751 1.34117 11.8027L1.33401 11.6667V11.1855C0.973758 11.1798 0.681908 10.8883 0.678414 10.526L0.656278 5.47396C0.652927 5.10582 0.948964 4.80485 1.31709 4.80143C1.32271 4.80138 1.32842 4.80135 1.33401 4.80143V4.33333C1.33401 3.59698 1.93101 3.00005 2.66735 3H13.334L13.4701 3.00716ZM2.66735 4C2.48329 4.00005 2.33401 4.14927 2.33401 4.33333V11.6667C2.3341 11.8507 2.48334 12 2.66735 12H13.334C13.5181 12 13.6673 11.8507 13.6673 11.6667V4.33333C13.6673 4.14924 13.5181 4 13.334 4H2.66735Z" fill="#FAFAFA"/>
</svg>
