<svg width="16" height="16" viewBox="0 0 16 16" fill="none" xmlns="http://www.w3.org/2000/svg">
<path d="M6.79948 7.10026C7.07562 7.10026 7.29948 7.32412 7.29948 7.60026V9.20052C7.29921 9.47643 7.07545 9.70052 6.79948 9.70052C6.5235 9.70052 6.29975 9.47643 6.29948 9.20052V7.60026C6.29948 7.32412 6.52334 7.10026 6.79948 7.10026Z" fill="#FAFAFA"/>
<path d="M9.19922 7.10026C9.47536 7.10026 9.69922 7.32412 9.69922 7.60026V9.20052C9.69895 9.47643 9.47519 9.70052 9.19922 9.70052C8.92324 9.70052 8.69949 9.47643 8.69922 9.20052V7.60026C8.69922 7.32412 8.92308 7.10026 9.19922 7.10026Z" fill="#FAFAFA"/>
<path fill-rule="evenodd" clip-rule="evenodd" d="M7.99935 1.5C8.34408 1.50003 8.67485 1.63709 8.91862 1.88086C9.16234 2.12464 9.29948 2.45541 9.29948 2.80013V3.89974H9.61068C9.61572 3.89982 9.62221 3.90015 9.62956 3.90039C9.64417 3.90088 9.66326 3.90201 9.6862 3.90365C9.73229 3.90694 9.79535 3.91283 9.86914 3.92513C10.0143 3.94933 10.2154 3.99874 10.4225 4.10221C10.6318 4.20685 10.8569 4.37239 11.028 4.62891C11.201 4.88852 11.2994 5.21243 11.2995 5.59961V9.60482C11.2995 9.60662 11.2989 9.609 11.2988 9.61133C11.2987 9.61623 11.299 9.62249 11.2988 9.62956C11.2983 9.64418 11.2972 9.66385 11.2956 9.68685C11.2923 9.73285 11.2857 9.79555 11.2734 9.86914C11.2492 10.0143 11.1999 10.2159 11.0964 10.4232C10.9917 10.6324 10.8268 10.8569 10.5703 11.028C10.3333 11.186 10.0427 11.2807 9.69922 11.2962V12.4004C9.69899 12.6763 9.47522 12.9004 9.19922 12.9004H8.49935V14C8.49921 14.276 8.2754 14.5 7.99935 14.5C7.72329 14.5 7.49949 14.276 7.49935 14V12.9004H6.79948C6.52348 12.9004 6.29971 12.6763 6.29948 12.4004V11.2943C6.25484 11.2907 6.19681 11.2853 6.12956 11.2741C5.98431 11.2499 5.78286 11.2007 5.57552 11.097C5.36627 10.9924 5.14173 10.8275 4.9707 10.571C4.79761 10.3112 4.69922 9.98702 4.69922 9.59961V5.58854C4.69931 5.58355 4.69963 5.57687 4.69987 5.56966C4.70036 5.555 4.70148 5.53538 4.70312 5.51237C4.70642 5.46632 4.71235 5.40362 4.72461 5.33008C4.74883 5.18486 4.79809 4.98327 4.90169 4.77604C5.00636 4.56678 5.17185 4.34225 5.42839 4.17122C5.68805 3.9982 6.0118 3.89976 6.39909 3.89974H6.69922V2.80013C6.69922 2.45535 6.83628 2.12466 7.08008 1.88086C7.32388 1.63706 7.65457 1.5 7.99935 1.5ZM7.29948 11.9004H7.98633C7.99066 11.9003 7.99499 11.8997 7.99935 11.8997C8.0037 11.8997 8.00804 11.9003 8.01237 11.9004H8.69922V11.3001H7.29948V11.9004ZM5.69922 9.59961C5.69922 9.81196 5.75094 9.93851 5.80273 10.0163C5.85662 10.0971 5.9322 10.1572 6.02279 10.2025C6.1153 10.2487 6.21392 10.2745 6.29362 10.2878C6.3323 10.2942 6.36394 10.2974 6.38346 10.2988C6.39295 10.2995 6.39944 10.2994 6.40234 10.2995H9.59896C9.81147 10.2995 9.93787 10.2478 10.0156 10.196C10.0964 10.1421 10.1565 10.0665 10.2018 9.97591C10.248 9.88338 10.2738 9.78473 10.2871 9.70508C10.2935 9.66663 10.2968 9.63538 10.2982 9.61589C10.2987 9.60887 10.2993 9.60309 10.2995 9.59961V6.5H5.69922V9.59961ZM6.39909 4.89974C6.18693 4.89976 6.06083 4.9515 5.98307 5.00326C5.90225 5.05714 5.84156 5.13271 5.79622 5.22331C5.75001 5.31575 5.72425 5.41449 5.71094 5.49414C5.71063 5.49602 5.71058 5.49816 5.71029 5.5H10.293C10.2797 5.34679 10.239 5.24826 10.196 5.18359C10.1421 5.10284 10.0665 5.04205 9.97591 4.99674C9.8833 4.95045 9.78415 4.92475 9.70443 4.91146C9.66587 4.90504 9.63473 4.90244 9.61523 4.90104C9.60591 4.90038 9.59939 4.89984 9.59635 4.89974H6.39909ZM7.99935 2.5C7.91978 2.5 7.84337 2.53163 7.78711 2.58789C7.73085 2.64415 7.69922 2.72057 7.69922 2.80013V3.89974H8.29948V2.80013C8.29948 2.72063 8.26777 2.64414 8.21159 2.58789C8.15536 2.53166 8.07887 2.50003 7.99935 2.5Z" fill="#FAFAFA"/>
</svg>
