<svg width="16" height="16" viewBox="0 0 16 16" fill="none" xmlns="http://www.w3.org/2000/svg">
<path fill-rule="evenodd" clip-rule="evenodd" d="M1.33301 3.83333C1.33301 2.82081 2.15382 2 3.16634 2H12.833C13.8455 2 14.6663 2.82081 14.6663 3.83333V10.8333C14.6663 11.8459 13.8455 12.6667 12.833 12.6667H10.2503C10.2115 12.6667 10.1739 12.6802 10.144 12.705L8.7451 13.8639C8.3114 14.2232 7.68294 14.2214 7.25132 13.8596L5.87462 12.7056C5.84461 12.6805 5.80671 12.6667 5.76755 12.6667H3.16634C2.15382 12.6667 1.33301 11.8459 1.33301 10.8333V3.83333ZM3.16634 3C2.7061 3 2.33301 3.3731 2.33301 3.83333V10.8333C2.33301 11.2936 2.7061 11.6667 3.16634 11.6667H5.76755C6.04164 11.6667 6.30697 11.7632 6.51702 11.9392L7.89372 13.0933C7.95538 13.1449 8.04517 13.1452 8.10712 13.0939L9.50599 11.9349C9.71527 11.7615 9.97852 11.6667 10.2503 11.6667H12.833C13.2932 11.6667 13.6663 11.2936 13.6663 10.8333V3.83333C13.6663 3.3731 13.2932 3 12.833 3H3.16634Z" fill="#FAFAFA"/>
</svg>
