<svg width="16" height="16" viewBox="0 0 16 16" fill="none" xmlns="http://www.w3.org/2000/svg">
<path d="M4 7.83317C4.27614 7.83317 4.5 8.05703 4.5 8.33317V9.86312C4.69395 9.93189 4.83333 10.1156 4.83333 10.3332C4.83333 10.6093 4.60948 10.8332 4.33333 10.8332H3.66667C3.39052 10.8332 3.16667 10.6093 3.16667 10.3332C3.16667 10.1156 3.30605 9.93189 3.5 9.86312V8.33317C3.5 8.05703 3.72386 7.83317 4 7.83317Z" fill="#FAFAFA"/>
<path d="M4.33333 5.1665C4.60948 5.1665 4.83333 5.39036 4.83333 5.6665C4.83333 5.94265 4.60948 6.1665 4.33333 6.1665H3.66667C3.39052 6.1665 3.16667 5.94265 3.16667 5.6665C3.16667 5.39036 3.39052 5.1665 3.66667 5.1665H4.33333Z" fill="#FAFAFA"/>
<path d="M8 7.83317C8.27614 7.83317 8.5 8.05703 8.5 8.33317V9.86312C8.69395 9.93189 8.83333 10.1156 8.83333 10.3332C8.83333 10.6093 8.60948 10.8332 8.33333 10.8332H7.66667C7.39052 10.8332 7.16667 10.6093 7.16667 10.3332C7.16667 10.1156 7.30605 9.93189 7.5 9.86312V8.33317C7.5 8.05703 7.72386 7.83317 8 7.83317Z" fill="#FAFAFA"/>
<path d="M8.33333 5.1665C8.60948 5.1665 8.83333 5.39036 8.83333 5.6665C8.83333 5.94265 8.60948 6.1665 8.33333 6.1665H7.66667C7.39052 6.1665 7.16667 5.94265 7.16667 5.6665C7.16667 5.39036 7.39052 5.1665 7.66667 5.1665H8.33333Z" fill="#FAFAFA"/>
<path d="M12 7.83317C12.2761 7.83317 12.5 8.05703 12.5 8.33317V9.86312C12.694 9.93189 12.8333 10.1156 12.8333 10.3332C12.8333 10.6093 12.6095 10.8332 12.3333 10.8332H11.6667C11.3905 10.8332 11.1667 10.6093 11.1667 10.3332C11.1667 10.1156 11.306 9.93189 11.5 9.86312V8.33317C11.5 8.05703 11.7239 7.83317 12 7.83317Z" fill="#FAFAFA"/>
<path d="M12.3333 5.1665C12.6095 5.1665 12.8333 5.39036 12.8333 5.6665C12.8333 5.94265 12.6095 6.1665 12.3333 6.1665H11.6667C11.3905 6.1665 11.1667 5.94265 11.1667 5.6665C11.1667 5.39036 11.3905 5.1665 11.6667 5.1665H12.3333Z" fill="#FAFAFA"/>
<path fill-rule="evenodd" clip-rule="evenodd" d="M4.66667 1.1665C5.311 1.1665 5.83333 1.68884 5.83333 2.33317V3.1665H6.16667V2.33317C6.16667 1.68884 6.689 1.1665 7.33333 1.1665H8.66667C9.311 1.1665 9.83333 1.68884 9.83333 2.33317V3.1665H10.1667V2.33317C10.1667 1.68884 10.689 1.1665 11.3333 1.1665H12.6667C13.311 1.1665 13.8333 1.68884 13.8333 2.33317V3.27979C14.2273 3.46711 14.5 3.86793 14.5 4.33317V11.6665C14.5 12.1316 14.2271 12.5319 13.8333 12.7192V13.6665C13.8333 14.3108 13.311 14.8332 12.6667 14.8332H11.3333C10.689 14.8332 10.1667 14.3108 10.1667 13.6665V12.8332H9.83333V13.6665C9.83333 14.3108 9.311 14.8332 8.66667 14.8332H7.33333C6.689 14.8332 6.16667 14.3108 6.16667 13.6665V12.8332H5.83333V13.6665C5.83333 14.3108 5.311 14.8332 4.66667 14.8332H3.33333C2.689 14.8332 2.16667 14.3108 2.16667 13.6665V12.7192C2.14796 12.7103 2.12882 12.7024 2.11068 12.6925C1.74691 12.495 1.5 12.1095 1.5 11.6665V4.33317C1.5 3.89013 1.74691 3.50466 2.11068 3.30713C2.1289 3.29723 2.14787 3.28872 2.16667 3.27979V2.33317C2.16667 1.68884 2.689 1.1665 3.33333 1.1665H4.66667ZM3.16667 13.6665C3.16667 13.7586 3.24129 13.8332 3.33333 13.8332H4.66667C4.75871 13.8332 4.83333 13.7586 4.83333 13.6665V12.8332H3.16667V13.6665ZM7.16667 13.6665C7.16667 13.7586 7.24129 13.8332 7.33333 13.8332H8.66667C8.75871 13.8332 8.83333 13.7586 8.83333 13.6665V12.8332H7.16667V13.6665ZM11.1667 13.6665C11.1667 13.7586 11.2413 13.8332 11.3333 13.8332H12.6667C12.7587 13.8332 12.8333 13.7586 12.8333 13.6665V12.8332H11.1667V13.6665ZM2.66667 4.1665C2.57462 4.1665 2.5 4.24112 2.5 4.33317V11.6665C2.5 11.7586 2.57462 11.8332 2.66667 11.8332H5.33333C5.42538 11.8332 5.5 11.7586 5.5 11.6665V4.33317C5.5 4.24112 5.42538 4.1665 5.33333 4.1665H2.66667ZM6.66667 4.1665C6.57462 4.1665 6.5 4.24112 6.5 4.33317V11.6665C6.5 11.7586 6.57462 11.8332 6.66667 11.8332H9.33333C9.42538 11.8332 9.5 11.7586 9.5 11.6665V4.33317C9.5 4.24112 9.42538 4.1665 9.33333 4.1665H6.66667ZM10.6667 4.1665C10.5746 4.1665 10.5 4.24112 10.5 4.33317V11.6665C10.5 11.7586 10.5746 11.8332 10.6667 11.8332H13.3333C13.4254 11.8332 13.5 11.7586 13.5 11.6665V4.33317C13.5 4.24112 13.4254 4.1665 13.3333 4.1665H10.6667ZM3.33333 2.1665C3.24129 2.1665 3.16667 2.24112 3.16667 2.33317V3.1665H4.83333V2.33317C4.83333 2.24112 4.75871 2.1665 4.66667 2.1665H3.33333ZM7.33333 2.1665C7.24129 2.1665 7.16667 2.24112 7.16667 2.33317V3.1665H8.83333V2.33317C8.83333 2.24112 8.75871 2.1665 8.66667 2.1665H7.33333ZM11.3333 2.1665C11.2413 2.1665 11.1667 2.24112 11.1667 2.33317V3.1665H12.8333V2.33317C12.8333 2.24112 12.7587 2.1665 12.6667 2.1665H11.3333Z" fill="#FAFAFA"/>
</svg>
