<svg width="16" height="16" viewBox="0 0 16 16" fill="none" xmlns="http://www.w3.org/2000/svg">
<path fill-rule="evenodd" clip-rule="evenodd" d="M10.8001 10H12.3997C12.8241 10 13.2312 10.1687 13.5312 10.4688C13.8313 10.7688 14 11.1759 14 11.6003V12.3997L13.9922 12.5579C13.9559 12.9243 13.7938 13.2687 13.5312 13.5312L13.4141 13.6374C13.1699 13.8374 12.872 13.961 12.5579 13.9922L12.3997 14H10L5.19987 10H3.60026L3.44206 9.99219C3.12796 9.96104 2.83006 9.83745 2.58594 9.63737L2.46875 9.53125C2.20615 9.26866 2.04414 8.92428 2.00781 8.55794L2 8.39974V7.60026C2 7.22891 2.12926 6.87068 2.36263 6.58594L2.46875 6.46875C2.73135 6.20615 3.07571 6.04414 3.44206 6.00781L3.60026 6H6L10.8001 10ZM3.60026 7C3.44113 7 3.2883 7.06326 3.17578 7.17578C3.06326 7.2883 3 7.44115 3 7.60026V8.39974C3 8.55885 3.06327 8.71171 3.17578 8.82422C3.28832 8.93675 3.44116 9 3.60026 9H5.19987L5.28711 9.00391C5.48971 9.02162 5.6832 9.10069 5.84049 9.23177L10.362 13H12.3997C12.5588 13 12.7117 12.9367 12.8242 12.8242C12.9367 12.7117 13 12.5588 13 12.3997V11.6003C13 11.4412 12.9367 11.2883 12.8242 11.1758C12.7117 11.0633 12.5588 11 12.3997 11H10.8001C10.5662 11 10.3392 10.918 10.1595 10.7682L5.63802 7H3.60026Z" fill="#FAFAFA"/>
<path d="M12.6999 2C12.9759 2 13.1997 2.22397 13.1999 2.5C13.1998 2.77608 12.976 3 12.6999 3H10.707L13.8535 6.14648L13.888 6.18425C14.0482 6.3806 14.0365 6.67044 13.8535 6.85352C13.6704 7.03658 13.3806 7.04822 13.1842 6.88802L13.1465 6.85352L10 3.70703V5.69987C10 5.97597 9.77608 6.1998 9.5 6.19987C9.22393 6.19978 9 5.97596 9 5.69987V2.5C9 2.49411 9.00045 2.48826 9.00065 2.48242C9.00081 2.47786 9.00101 2.47331 9.0013 2.46875C9.00288 2.44343 9.00652 2.41869 9.01172 2.39453C9.03132 2.3037 9.07591 2.21706 9.14648 2.14648C9.19283 2.10016 9.24596 2.06472 9.30273 2.04036C9.31021 2.03715 9.31852 2.03606 9.32617 2.0332C9.34853 2.02489 9.37076 2.01673 9.39388 2.01172C9.41823 2.00645 9.44322 2.00289 9.46875 2.0013C9.47309 2.00103 9.47743 2.00081 9.48177 2.00065C9.48782 2.00043 9.4939 2 9.5 2H12.6999Z" fill="#FAFAFA"/>
</svg>
