<svg width="16" height="16" viewBox="0 0 16 16" fill="none" xmlns="http://www.w3.org/2000/svg">
<path fill-rule="evenodd" clip-rule="evenodd" d="M12.6445 5.98103C12.6961 5.9864 12.747 5.99761 12.7962 6.01358C12.8793 6.03191 12.9587 6.06487 13.0312 6.11058L13.0319 6.10993C13.1217 6.16658 13.1972 6.24272 13.2552 6.33129L13.2558 6.33064L14.319 7.92048L14.3509 7.97582C14.4487 8.17274 14.5 8.38963 14.5 8.60928C14.4999 8.79223 14.4629 8.97263 14.3945 9.14183C14.39 9.15321 14.3857 9.16557 14.3802 9.17829C14.3781 9.18312 14.3747 9.18763 14.3724 9.19262C14.3649 9.20923 14.359 9.22705 14.3509 9.2434C14.3402 9.26483 14.3276 9.28476 14.3144 9.30394C13.6711 10.6664 12.8587 11.9435 11.8939 13.1015C11.8666 13.1341 11.8353 13.1633 11.8008 13.1881C11.5345 13.3782 11.2738 13.4595 11.0358 13.4648L10.9922 14.0481C10.9761 14.2618 10.8253 14.4413 10.6178 14.4947C10.4101 14.5479 10.1911 14.4629 10.0742 14.2831L8.37368 11.6679C8.2584 11.4906 8.26744 11.2598 8.39581 11.0917L10.1888 8.74405C10.319 8.57397 10.5431 8.50549 10.7461 8.57413C10.9491 8.64287 11.0859 8.83376 11.0859 9.04808V9.38402C12.2548 9.43626 12.861 9.23517 13.1588 9.06176C13.3185 8.96873 13.3972 8.87974 13.4329 8.82998C13.4495 8.79463 13.4666 8.75931 13.4831 8.72387C13.4936 8.6866 13.4999 8.64826 13.5 8.60928C13.5 8.5511 13.4872 8.49375 13.4642 8.44066L12.5371 7.05525L11.3828 7.83584C11.1541 7.99009 10.8433 7.93024 10.6888 7.70173C10.5343 7.47308 10.5945 7.16243 10.8229 7.00772L12.1907 6.08324L12.2682 6.04027C12.3625 5.99858 12.465 5.97716 12.5677 5.97712L12.6445 5.98103ZM9.40427 11.4179L10.1419 12.5526C10.2017 12.4367 10.3055 12.3456 10.4349 12.3046C10.6277 12.2437 10.8381 12.3052 10.9681 12.4595L10.9661 12.4569C10.9644 12.455 10.9628 12.4531 10.9616 12.4517L10.9583 12.4478C10.9649 12.4529 10.9748 12.4586 10.9857 12.4621C10.9938 12.4648 11.0088 12.4687 11.0358 12.4641C11.0591 12.4601 11.1035 12.4467 11.1699 12.4062C11.722 11.7379 12.2203 11.0282 12.6621 10.2844C12.1243 10.3924 11.4324 10.4303 10.541 10.3495C10.448 10.3411 10.3631 10.3067 10.2923 10.2551L9.40427 11.4179Z" fill="#FAFAFA"/>
<path fill-rule="evenodd" clip-rule="evenodd" d="M4.93878 6.20433C5.08834 6.22379 5.22273 6.31034 5.30206 6.44131L6.86391 9.02009C6.95728 9.17444 6.96027 9.36747 6.87172 9.52465C6.78311 9.68175 6.61655 9.77915 6.43618 9.7792H5.60219C4.59232 10.8265 4.37328 11.4787 4.34763 11.8033C4.33499 11.9636 4.3678 12.057 4.388 12.0995C4.39477 12.1084 4.40146 12.1173 4.40818 12.1262C4.4219 12.1395 4.4355 12.1534 4.44789 12.1685C4.56988 12.3171 4.73892 12.4187 4.92641 12.4576H6.58331V10.8502C6.58331 10.574 6.80717 10.3502 7.08331 10.3502C7.35931 10.3503 7.58331 10.5741 7.58331 10.8502V12.6985C7.58331 12.7042 7.58286 12.7103 7.58266 12.7161C7.57574 12.9149 7.49215 13.1038 7.34894 13.2421C7.20597 13.3801 7.01438 13.457 6.81508 13.4569L4.87433 13.4576C4.84671 13.4576 4.81888 13.455 4.79164 13.4504C4.3872 13.3823 4.01893 13.18 3.74282 12.8795C3.73959 12.8768 3.73557 12.8751 3.7324 12.8723L3.7337 12.8697L3.73305 12.869L3.73175 12.871L3.73045 12.8703L3.72849 12.8684C3.72729 12.8673 3.72589 12.8663 3.72459 12.8651C3.72166 12.8625 3.71822 12.8592 3.71482 12.856C3.70799 12.8496 3.6999 12.842 3.69138 12.8332C3.67441 12.8158 3.65461 12.7933 3.63279 12.7662C3.60824 12.7356 3.58177 12.6983 3.55467 12.6549C2.65953 11.4659 2.04715 10.0877 1.76756 8.62426C1.76166 8.59339 1.75845 8.56193 1.75844 8.53051C1.75844 8.11998 1.88621 7.81467 2.06703 7.59952L1.60545 7.00772C1.4881 6.85706 1.46696 6.65264 1.55076 6.48103C1.63461 6.30935 1.80891 6.20043 1.99998 6.20043H4.87433L4.93878 6.20433ZM3.17967 7.4003C3.28758 7.53869 3.31496 7.72349 3.25193 7.88728C3.18952 8.04944 3.0475 8.1667 2.87693 8.19847C2.87826 8.19823 2.88084 8.19847 2.88084 8.19847C2.88346 8.19796 2.88611 8.19759 2.888 8.19717C2.89163 8.19636 2.89516 8.19522 2.89516 8.19522C2.89749 8.19458 2.89564 8.19474 2.89125 8.19652C2.8819 8.20033 2.86639 8.2086 2.85024 8.22256C2.83469 8.23607 2.76859 8.29384 2.75974 8.48623C2.92271 9.31321 3.20387 10.1095 3.59243 10.8515C3.83736 10.3129 4.2872 9.67622 5.03839 8.92504L5.11456 8.86319C5.19609 8.80883 5.29247 8.7792 5.3919 8.7792H5.54881L4.59243 7.20043H3.02407L3.17967 7.4003Z" fill="#FAFAFA"/>
<path fill-rule="evenodd" clip-rule="evenodd" d="M8.00519 1.49665C8.63788 1.46728 9.27072 1.53885 9.87954 1.70954L10.1419 1.78962L10.181 1.80459C10.449 1.91894 10.6817 2.10373 10.8535 2.3391C10.9054 2.41027 10.9508 2.48566 10.9902 2.56371L11.8066 2.31306C11.9891 2.25706 12.1878 2.3099 12.3183 2.44913C12.4488 2.58837 12.4888 2.79021 12.4212 2.96866L11.3216 5.87035C11.248 6.06459 11.0612 6.19321 10.8535 6.19327H7.74868C7.55597 6.19327 7.37985 6.08202 7.29685 5.90811C7.21405 5.73419 7.23875 5.52786 7.36 5.37816L7.89907 4.71215C7.2674 3.56725 6.72649 3.01064 6.36847 2.7434C6.17615 2.59987 6.03538 2.53902 5.95961 2.51358C5.94587 2.50897 5.93363 2.50647 5.92381 2.50381C5.88057 2.51602 5.83944 2.53524 5.80206 2.56045C5.74918 2.5962 5.70522 2.64401 5.67315 2.69913L4.74086 4.56371L5.7669 5.03506C6.01753 5.1503 6.12782 5.44706 6.013 5.69782C5.89778 5.9487 5.60049 6.05901 5.34959 5.94392L4.10219 5.371C4.09525 5.36781 4.08814 5.36409 4.08136 5.36058C3.90883 5.27146 3.77609 5.12094 3.70896 4.93871C3.64184 4.75653 3.64527 4.55597 3.71873 4.37621L3.73435 4.3417L4.78774 2.23428C4.79141 2.22696 4.79543 2.21928 4.79946 2.21215C4.90791 2.02006 5.06006 1.85581 5.24282 1.73233C5.41307 1.61737 5.60622 1.54234 5.80857 1.50902C5.81867 1.50676 5.82886 1.50481 5.83917 1.50316C5.84386 1.50249 5.84879 1.50118 5.85349 1.50056C5.85676 1.50013 5.86 1.49962 5.86326 1.49926C5.86756 1.49878 5.87194 1.49897 5.87628 1.4986C5.88566 1.4978 5.89497 1.49693 5.90427 1.49665H8.00519ZM8.03253 2.496C8.0242 2.49642 8.01548 2.49665 8.00714 2.49665H7.57029C7.98552 2.9472 8.45156 3.5976 8.94073 4.53832C9.03241 4.71483 9.01059 4.92932 8.88539 5.08389L8.79685 5.19327H10.5084L11.1237 3.56892L10.8066 3.66657C10.6629 3.71072 10.5065 3.68765 10.3815 3.60407C10.2566 3.52044 10.1761 3.38461 10.1621 3.23493C10.1517 3.12423 10.1111 3.01812 10.0456 2.92829C9.98257 2.84206 9.8979 2.77434 9.80076 2.73038C9.23063 2.54528 8.63137 2.46588 8.03253 2.496Z" fill="#FAFAFA"/>
</svg>
