<svg width="16" height="16" viewBox="0 0 16 16" fill="none" xmlns="http://www.w3.org/2000/svg">
<path fill-rule="evenodd" clip-rule="evenodd" d="M9.51367 5.46973C9.69964 5.22554 10.0178 5.10888 10.3236 5.19499L10.3887 5.21647L10.4512 5.24316C10.7519 5.38899 10.9147 5.71086 10.8822 6.02832L10.8164 6.66374L11.0794 6.72884C11.2992 6.78314 11.476 6.93027 11.5755 7.12012L11.6133 7.2041C11.7006 7.43291 11.6778 7.69299 11.5475 7.90332L9.95573 10.4697C9.76333 10.7799 9.37296 10.9219 9.01953 10.7764C8.67444 10.6338 8.49444 10.2713 8.55143 9.9248L8.7194 8.90267L8.48242 8.80762L8.48177 8.80697C8.26021 8.71719 8.09894 8.53134 8.03255 8.31217C7.96632 8.09314 7.99805 7.85408 8.12109 7.65983L9.47591 5.52376L9.51367 5.46973ZM9.10221 7.97884L9.46484 8.12598C9.68172 8.21358 9.8094 8.44011 9.77148 8.6709L9.72656 8.94043L10.5417 7.62598L10.1549 7.53027C9.91302 7.47046 9.75183 7.24173 9.77734 6.99382L9.78646 6.90007L9.10221 7.97884Z" fill="#FAFAFA"/>
<path d="M5.83203 9.66699C6.10817 9.66699 6.33203 9.89085 6.33203 10.167C6.33203 10.4431 6.10817 10.667 5.83203 10.667H4.4987C4.22256 10.667 3.9987 10.4431 3.9987 10.167C3.9987 9.89085 4.22256 9.66699 4.4987 9.66699H5.83203Z" fill="#FAFAFA"/>
<path d="M5.83203 7.66699C6.10817 7.66699 6.33203 7.89085 6.33203 8.16699C6.33203 8.44313 6.10817 8.66699 5.83203 8.66699H4.4987C4.22256 8.66699 3.9987 8.44313 3.9987 8.16699C3.9987 7.89085 4.22256 7.66699 4.4987 7.66699H5.83203Z" fill="#FAFAFA"/>
<path d="M4.66536 5.33366C5.03355 5.33366 5.33203 5.63214 5.33203 6.00033C5.33203 6.36852 5.03355 6.66699 4.66536 6.66699C4.29717 6.66699 3.9987 6.36852 3.9987 6.00033C3.9987 5.63214 4.29717 5.33366 4.66536 5.33366Z" fill="#FAFAFA"/>
<path fill-rule="evenodd" clip-rule="evenodd" d="M13.332 2.66699C14.0684 2.66699 14.6654 3.26395 14.6654 4.00033V12.0003C14.6654 12.7367 14.0684 13.3337 13.332 13.3337H2.66536L2.5293 13.3265C1.85685 13.2583 1.33203 12.6908 1.33203 12.0003V4.00033C1.33203 3.26395 1.92898 2.66699 2.66536 2.66699H13.332ZM2.66536 3.66699C2.48127 3.66699 2.33203 3.81623 2.33203 4.00033V12.0003C2.33203 12.1844 2.48127 12.3337 2.66536 12.3337H13.332C13.5161 12.3337 13.6654 12.1844 13.6654 12.0003V4.00033C13.6654 3.81623 13.5161 3.66699 13.332 3.66699H2.66536Z" fill="#FAFAFA"/>
</svg>
