<svg width="16" height="16" viewBox="0 0 16 16" fill="none" xmlns="http://www.w3.org/2000/svg">
<path fill-rule="evenodd" clip-rule="evenodd" d="M2 3.16667C2 2.52233 2.52233 2 3.16667 2H4.83333C5.47767 2 6 2.52233 6 3.16667V3.5H10V3.16667C10 2.52233 10.5223 2 11.1667 2H12.8333C13.4777 2 14 2.52233 14 3.16667V4.83333C14 5.47767 13.4777 6 12.8333 6H12.5V6.83333C12.5 7.10948 12.2761 7.33333 12 7.33333C11.7239 7.33333 11.5 7.10948 11.5 6.83333V6H11.1667C10.5223 6 10 5.47767 10 4.83333V4.5H6V4.83333C6 5.47767 5.47767 6 4.83333 6H4.5V10H4.66667C5.311 10 5.83333 10.5223 5.83333 11.1667V11.5H6.83333C7.10948 11.5 7.33333 11.7239 7.33333 12C7.33333 12.2761 7.10948 12.5 6.83333 12.5H5.83333V12.8333C5.83333 13.4777 5.311 14 4.66667 14H3.16667C2.52233 14 2 13.4777 2 12.8333V11.1667C2 10.5223 2.52233 10 3.16667 10H3.5V6H3.16667C2.52233 6 2 5.47767 2 4.83333V3.16667ZM4.83333 5C4.92538 5 5 4.92538 5 4.83333V3.16667C5 3.07462 4.92538 3 4.83333 3H3.16667C3.07462 3 3 3.07462 3 3.16667V4.83333C3 4.92538 3.07462 5 3.16667 5H4.83333ZM3.16667 11C3.07462 11 3 11.0746 3 11.1667V12.8333C3 12.9254 3.07462 13 3.16667 13H4.66667C4.75871 13 4.83333 12.9254 4.83333 12.8333V11.1667C4.83333 11.0746 4.75871 11 4.66667 11H3.16667ZM11.1667 3C11.0746 3 11 3.07462 11 3.16667V4.83333C11 4.92538 11.0746 5 11.1667 5H12.8333C12.9254 5 13 4.92538 13 4.83333V3.16667C13 3.07462 12.9254 3 12.8333 3H11.1667ZM7.69377 8.74821C7.50993 8.10479 8.10479 7.50993 8.74821 7.69377L13.3026 8.99502C14.0384 9.20526 14.1465 10.2033 13.4726 10.5661L11.5834 11.5834L10.5661 13.4726C10.2033 14.1465 9.20526 14.0384 8.99502 13.3026L7.69377 8.74821ZM11.6043 11.5446C11.6043 11.5446 11.6044 11.5445 11.6043 11.5446V11.5446ZM11.5448 11.6042C11.5447 11.6042 11.5449 11.6041 11.5448 11.6042V11.6042ZM8.72801 8.72801L9.85716 12.68L10.7239 11.0705C10.803 10.9235 10.9235 10.803 11.0705 10.7239L12.68 9.85716L8.72801 8.72801Z" fill="#FAFAFA"/>
</svg>
