<svg width="16" height="16" viewBox="0 0 16 16" fill="none" xmlns="http://www.w3.org/2000/svg">
<path fill-rule="evenodd" clip-rule="evenodd" d="M11.3333 2.16699C12.3459 2.16699 13.1667 2.9878 13.1667 4.00033V12.8337H14C14.2761 12.8337 14.5 13.0575 14.5 13.3337C14.5 13.6098 14.2761 13.8337 14 13.8337H2C1.72386 13.8337 1.5 13.6098 1.5 13.3337C1.5 13.0575 1.72386 12.8337 2 12.8337H2.83333V4.00033C2.83333 2.9878 3.65414 2.16699 4.66667 2.16699H11.3333ZM3.83333 12.8337H12.1667V7.16699H10.5V8.80111C10.7988 8.97403 11 9.29691 11 9.66699C11 10.2193 10.5523 10.667 10 10.667C9.44772 10.667 9 10.2193 9 9.66699C9 9.29691 9.20118 8.97403 9.5 8.80111V7.16699H3.83333V12.8337ZM3.83333 6.16699H9.5V5.16699H3.83333V6.16699ZM10.5 6.16699H12.1667V5.16699H10.5V6.16699ZM4.66667 3.16699C4.20643 3.16699 3.83333 3.54009 3.83333 4.00033V4.16699H9.5V3.16699H4.66667ZM10.5 4.16699H12.1667V4.00033C12.1667 3.54009 11.7936 3.16699 11.3333 3.16699H10.5V4.16699Z" fill="#FAFAFA"/>
</svg>
