<svg width="16" height="16" viewBox="0 0 16 16" fill="none" xmlns="http://www.w3.org/2000/svg">
<path fill-rule="evenodd" clip-rule="evenodd" d="M8.00065 2.66634C10.9462 2.66634 13.334 5.05416 13.334 7.99967C13.334 10.9452 10.9462 13.333 8.00065 13.333C5.05513 13.333 2.66732 10.9452 2.66732 7.99967C2.66732 5.05416 5.05513 2.66634 8.00065 2.66634ZM4.46224 10.4997C4.73423 10.8839 5.06673 11.222 5.44661 11.4997H10.5547C10.9346 11.222 11.2671 10.8839 11.5391 10.4997H4.46224ZM3.69661 8.49967C3.73655 8.84718 3.81708 9.18217 3.93424 9.49967H12.0671C12.1842 9.18217 12.2648 8.84718 12.3047 8.49967H3.69661ZM3.93424 6.49967C3.81708 6.81718 3.73655 7.15217 3.69661 7.49967H12.3047C12.2648 7.15217 12.1842 6.81718 12.0671 6.49967H3.93424ZM5.44661 4.49967C5.06673 4.77736 4.73423 5.11541 4.46224 5.49967H11.5391C11.2671 5.11541 10.9346 4.77736 10.5547 4.49967H5.44661Z" fill="#FAFAFA"/>
<path fill-rule="evenodd" clip-rule="evenodd" d="M12.7702 1.33561C13.8269 1.38915 14.6673 2.26294 14.6673 3.33301V12.6663L14.6647 12.7692C14.6129 13.7919 13.7929 14.6119 12.7702 14.6637L12.6673 14.6663H3.33398L3.23112 14.6637C2.20842 14.6119 1.3884 13.7919 1.33659 12.7692L1.33398 12.6663V3.33301C1.33398 2.26294 2.17435 1.38915 3.23112 1.33561L3.33398 1.33301H12.6673L12.7702 1.33561ZM3.33398 2.33301C2.7817 2.33301 2.33398 2.78072 2.33398 3.33301V12.6663C2.33398 13.2186 2.7817 13.6663 3.33398 13.6663H12.6673C13.2196 13.6663 13.6673 13.2186 13.6673 12.6663V3.33301C13.6673 2.78072 13.2196 2.33301 12.6673 2.33301H3.33398Z" fill="#FAFAFA"/>
</svg>
