<svg width="16" height="16" viewBox="0 0 16 16" fill="none" xmlns="http://www.w3.org/2000/svg">
<path d="M8 4.67188C8.27614 4.67188 8.5 4.89573 8.5 5.17188V7.5H10.8291C11.105 7.5002 11.3289 7.72412 11.3291 8C11.3291 8.27602 11.1051 8.4998 10.8291 8.5H8.5V10.8291C8.4998 11.1051 8.27602 11.3291 8 11.3291C7.72412 11.3289 7.5002 11.105 7.5 10.8291V8.5H5.17188C4.89573 8.5 4.67188 8.27614 4.67188 8C4.67204 7.724 4.89583 7.5 5.17188 7.5H7.5V5.17188C7.5 4.89583 7.724 4.67204 8 4.67188Z" fill="#FAFAFA"/>
<path fill-rule="evenodd" clip-rule="evenodd" d="M8 1.33301C11.6817 1.33318 14.6659 4.31828 14.666 8C14.666 11.6818 11.6817 14.6668 8 14.667C4.3181 14.667 1.33301 11.6819 1.33301 8C1.3331 4.31818 4.31816 1.33301 8 1.33301ZM8 2.33398C4.87044 2.33398 2.3331 4.87046 2.33301 8C2.33301 11.1296 4.87039 13.667 8 13.667C11.1295 13.6668 13.666 11.1295 13.666 8C13.6659 4.87057 11.1294 2.33416 8 2.33398Z" fill="#FAFAFA"/>
</svg>
