<svg width="16" height="16" viewBox="0 0 16 16" fill="none" xmlns="http://www.w3.org/2000/svg">
<path d="M6.00068 4.66679C6.27682 4.66679 6.50068 4.89065 6.50068 5.16679C6.50064 5.4429 6.2768 5.66679 6.00068 5.66679H2.66735C2.48334 5.6669 2.33401 5.8161 2.33401 6.00012V12.6668C2.33416 12.8507 2.48343 13 2.66735 13.0001H13.334C13.518 13.0001 13.6672 12.8508 13.6673 12.6668V6.00012C13.6673 5.81603 13.5181 5.66679 13.334 5.66679H10.0007C9.72459 5.66676 9.50072 5.44288 9.50068 5.16679C9.50068 4.89067 9.72456 4.66682 10.0007 4.66679H13.334L13.4701 4.67395C14.1425 4.74213 14.6673 5.30969 14.6673 6.00012V6.46822C15.0278 6.4739 15.3196 6.76591 15.3229 7.12838L15.3451 11.5138C15.3483 11.8818 15.0524 12.183 14.6843 12.1863C14.6787 12.1864 14.6729 12.1858 14.6673 12.1857V12.6668C14.6672 13.3571 14.1424 13.9248 13.4701 13.993L13.334 14.0001H2.66735C1.97709 14 1.40946 13.4751 1.34117 12.8029L1.33401 12.6668V12.1857C0.973846 12.1798 0.681967 11.8884 0.678414 11.5262L0.656278 7.14075C0.652927 6.77265 0.949017 6.4717 1.31709 6.46822C1.32267 6.46817 1.32846 6.46814 1.33401 6.46822V6.00012C1.33401 5.26381 1.93106 4.6669 2.66735 4.66679H6.00068Z" fill="#FAFAFA"/>
<path d="M11.7683 10.7749C12.0444 10.7749 12.2683 10.9987 12.2683 11.2749C12.268 11.5508 12.0443 11.7749 11.7683 11.7749H4.23245C3.95654 11.7748 3.73269 11.5507 3.73245 11.2749C3.73245 10.9988 3.9564 10.775 4.23245 10.7749H11.7683Z" fill="#FAFAFA"/>
<path d="M11.7683 8.83346C12.0444 8.83346 12.2683 9.05732 12.2683 9.33346C12.2681 9.60947 12.0443 9.83346 11.7683 9.83346H4.23245C3.95649 9.83335 3.7326 9.60941 3.73245 9.33346C3.73245 9.05738 3.9564 8.83357 4.23245 8.83346H11.7683Z" fill="#FAFAFA"/>
<path d="M11.7683 6.89205C12.0444 6.89205 12.2683 7.11591 12.2683 7.39205C12.2682 7.66814 12.0444 7.89205 11.7683 7.89205H4.23245C3.95644 7.89195 3.73251 7.66808 3.73245 7.39205C3.73245 7.11598 3.9564 6.89216 4.23245 6.89205H11.7683Z" fill="#FAFAFA"/>
<path d="M9.9805 0.979943C10.1758 0.784681 10.4923 0.784681 10.6875 0.979943L11.6875 1.97994C11.8828 2.17521 11.8828 2.49172 11.6875 2.68697L10.6875 3.68697C10.4923 3.88213 10.1757 3.88219 9.9805 3.68697C9.78527 3.49174 9.78533 3.17521 9.9805 2.97994L10.127 2.83346H9.33401C8.87381 2.8335 8.50068 3.20658 8.50068 3.66679V5.66679C8.50062 5.94288 8.27678 6.16679 8.00068 6.16679C7.72461 6.16675 7.50074 5.94285 7.50068 5.66679V3.66679C7.50068 2.6543 8.32153 1.8335 9.33401 1.83346H10.127L9.9805 1.68697C9.78527 1.49174 9.78533 1.17521 9.9805 0.979943Z" fill="#FAFAFA"/>
</svg>
