<svg width="16" height="16" viewBox="0 0 16 16" fill="none" xmlns="http://www.w3.org/2000/svg">
<path fill-rule="evenodd" clip-rule="evenodd" d="M7.72852 5.33854C7.96734 5.03913 8.37309 4.92177 8.73828 5.05404C9.12846 5.19581 9.37053 5.58567 9.32617 5.99675L9.20833 7.08268L9.80599 7.22396C10.0559 7.2828 10.2669 7.4449 10.3887 7.66667L10.4355 7.76497L10.4694 7.86849C10.5344 8.11291 10.4941 8.3761 10.3542 8.59115L7.9668 12.2578C7.73386 12.6154 7.28151 12.7605 6.88411 12.6048C6.48659 12.4487 6.25345 12.0341 6.32617 11.6133L6.60547 9.99414L6.07682 9.79037C5.82202 9.69224 5.62515 9.48365 5.54232 9.22331C5.45936 8.96236 5.5002 8.67851 5.65104 8.45182L7.68294 5.40104L7.72852 5.33854ZM6.55208 8.90234L7.34831 9.20833C7.57089 9.29406 7.70212 9.52536 7.66146 9.76042L7.39388 11.3047L9.43815 8.16471L8.54948 7.95573C8.30384 7.89796 8.13958 7.66558 8.16667 7.41471L8.28776 6.29557L6.55208 8.90234Z" fill="#FAFAFA"/>
<path fill-rule="evenodd" clip-rule="evenodd" d="M10.099 1.39648C11.0836 1.39681 11.8847 2.17364 11.9277 3.14779H12.6667C13.403 3.14779 14 3.74474 14 4.48112V13.1478C13.9998 13.884 13.4029 14.4811 12.6667 14.4811H3.33333L3.19727 14.474C2.52492 14.4058 2.00016 13.8381 2 13.1478V4.48112C2 3.74474 2.59695 3.14779 3.33333 3.14779H4.07227C4.11529 2.17344 4.91674 1.39648 5.90169 1.39648H10.099ZM3.33333 4.14779C3.14924 4.14779 3 4.29702 3 4.48112V13.1478C3.00018 13.3317 3.14935 13.4811 3.33333 13.4811H12.6667C12.8507 13.4811 12.9998 13.3317 13 13.1478V4.48112C13 4.29702 12.8508 4.14779 12.6667 4.14779H3.33333ZM5.90169 2.39648C5.46919 2.39648 5.11354 2.72611 5.07227 3.14779H10.9277C10.8864 2.72632 10.5312 2.3968 10.099 2.39648H5.90169Z" fill="#FAFAFA"/>
</svg>
