<svg width="16" height="16" viewBox="0 0 16 16" fill="none" xmlns="http://www.w3.org/2000/svg">
<path fill-rule="evenodd" clip-rule="evenodd" d="M8.00003 1.3335C8.27618 1.3335 8.50003 1.55735 8.50003 1.8335V2.68255C11.1093 2.84714 13.3565 4.29057 14.5054 6.36793C14.814 6.92578 14.73 7.52327 14.412 7.96348C14.1018 8.39276 13.5766 8.66885 12.9914 8.66885H3.00865C2.4235 8.66885 1.89824 8.39276 1.5881 7.96348C1.27007 7.52327 1.18612 6.92578 1.49464 6.36793C2.64353 4.29057 4.89075 2.84714 7.50003 2.68255V1.8335C7.50003 1.55735 7.72389 1.3335 8.00003 1.3335ZM8.00003 3.66683C5.5314 3.66683 3.40942 4.97197 2.36973 6.85189C2.26339 7.04416 2.28908 7.22614 2.39869 7.37787C2.5162 7.54053 2.7366 7.66885 3.00865 7.66885H12.9914C13.2635 7.66885 13.4839 7.54053 13.6014 7.37787C13.711 7.22614 13.7367 7.04416 13.6303 6.85189C12.5906 4.97197 10.4687 3.66683 8.00003 3.66683ZM8.00003 9.66683C8.27618 9.66683 8.50003 9.89069 8.50003 10.1668V12.8846C8.50003 13.8689 7.70212 14.6668 6.71784 14.6668C5.86831 14.6668 5.13687 14.0672 4.97026 13.2342L4.84308 12.5982C4.78892 12.3274 4.96453 12.064 5.23531 12.0099C5.50609 11.9557 5.7695 12.1313 5.82366 12.4021L5.95084 13.038C6.02397 13.4037 6.34499 13.6668 6.71784 13.6668C7.14984 13.6668 7.50003 13.3166 7.50003 12.8846V10.1668C7.50003 9.89069 7.72389 9.66683 8.00003 9.66683Z" fill="#FAFAFA"/>
</svg>
