<svg width="16" height="16" viewBox="0 0 16 16" fill="none" xmlns="http://www.w3.org/2000/svg">
<path fill-rule="evenodd" clip-rule="evenodd" d="M7.99992 1.33301C8.27606 1.33303 8.4999 1.55691 8.49988 1.83305L8.49967 4.16638C8.49965 4.44253 8.27577 4.66637 7.99963 4.66634C7.72349 4.66632 7.49965 4.44244 7.49967 4.1663L7.49988 1.83296C7.4999 1.55682 7.72378 1.33298 7.99992 1.33301ZM3.2858 3.28545C3.48108 3.09021 3.79767 3.09024 3.99291 3.28552L5.64268 4.93558C5.83793 5.13085 5.8379 5.44744 5.64262 5.64268C5.44734 5.83793 5.13076 5.8379 4.93551 5.64262L3.28574 3.99256C3.0905 3.79728 3.09052 3.4807 3.2858 3.28545ZM12.714 3.28596C12.9093 3.48122 12.9093 3.7978 12.714 3.99307L11.0641 5.64298C10.8689 5.83824 10.5523 5.83824 10.357 5.64298C10.1618 5.44772 10.1618 5.13114 10.357 4.93587L12.0069 3.28596C12.2022 3.0907 12.5188 3.0907 12.714 3.28596ZM1.33301 8.00014C1.33301 7.724 1.55687 7.50014 1.83301 7.50014H4.16634C4.44248 7.50014 4.66634 7.724 4.66634 8.00014C4.66634 8.27628 4.44248 8.50014 4.16634 8.50014H1.83301C1.55687 8.50014 1.33301 8.27628 1.33301 8.00014ZM11.333 8.00014C11.333 7.724 11.5569 7.50014 11.833 7.50014H14.1663C14.4425 7.50014 14.6663 7.724 14.6663 8.00014C14.6663 8.27628 14.4425 8.50014 14.1663 8.50014H11.833C11.5569 8.50014 11.333 8.27628 11.333 8.00014ZM10.3568 10.3566C10.5521 10.1613 10.8687 10.1613 11.0639 10.3566L12.7139 12.0065C12.9091 12.2017 12.9091 12.5183 12.7139 12.7136C12.5186 12.9088 12.202 12.9088 12.0068 12.7136L10.3568 11.0637C10.1616 10.8684 10.1616 10.5518 10.3568 10.3566ZM5.64298 10.357C5.83824 10.5523 5.83824 10.8689 5.64298 11.0641L3.99307 12.714C3.7978 12.9093 3.48122 12.9093 3.28596 12.714C3.0907 12.5188 3.0907 12.2022 3.28596 12.0069L4.93587 10.357C5.13114 10.1618 5.44772 10.1618 5.64298 10.357ZM7.99988 11.333C8.27602 11.333 8.49988 11.5569 8.49988 11.833V14.1663C8.49988 14.4425 8.27602 14.6663 7.99988 14.6663C7.72374 14.6663 7.49988 14.4425 7.49988 14.1663V11.833C7.49988 11.5569 7.72374 11.333 7.99988 11.333Z" fill="#FAFAFA"/>
</svg>
