<svg width="16" height="16" viewBox="0 0 16 16" fill="none" xmlns="http://www.w3.org/2000/svg">
<path d="M8.66667 12C8.66667 12.3682 8.36819 12.6667 8 12.6667C7.63181 12.6667 7.33333 12.3682 7.33333 12C7.33333 11.6318 7.63181 11.3333 8 11.3333C8.36819 11.3333 8.66667 11.6318 8.66667 12Z" fill="#FAFAFA"/>
<path d="M4.66667 12C4.66667 12.3682 4.36819 12.6667 4 12.6667C3.63181 12.6667 3.33333 12.3682 3.33333 12C3.33333 11.6318 3.63181 11.3333 4 11.3333C4.36819 11.3333 4.66667 11.6318 4.66667 12Z" fill="#FAFAFA"/>
<path d="M6.66667 13.3333C6.66667 13.7015 6.36819 14 6 14C5.63181 14 5.33333 13.7015 5.33333 13.3333C5.33333 12.9651 5.63181 12.6667 6 12.6667C6.36819 12.6667 6.66667 12.9651 6.66667 13.3333Z" fill="#FAFAFA"/>
<path d="M12.6667 12C12.6667 12.3682 12.3682 12.6667 12 12.6667C11.6318 12.6667 11.3333 12.3682 11.3333 12C11.3333 11.6318 11.6318 11.3333 12 11.3333C12.3682 11.3333 12.6667 11.6318 12.6667 12Z" fill="#FAFAFA"/>
<path d="M10.6667 13.3333C10.6667 13.7015 10.3682 14 10 14C9.63181 14 9.33333 13.7015 9.33333 13.3333C9.33333 12.9651 9.63181 12.6667 10 12.6667C10.3682 12.6667 10.6667 12.9651 10.6667 13.3333Z" fill="#FAFAFA"/>
<path fill-rule="evenodd" clip-rule="evenodd" d="M2 6.33333C2 3.94657 3.91035 2 6.28125 2C7.77532 2 9.08795 2.77469 9.85246 3.94258C9.93307 4.06572 10.1096 4.14933 10.2937 4.12312C10.4431 4.10186 10.5954 4.09091 10.75 4.09091C12.5514 4.09091 14 5.56941 14 7.37879C14 9.18816 12.5514 10.6667 10.75 10.6667H6.28125C3.91035 10.6667 2 8.7201 2 6.33333ZM6.28125 3C4.47549 3 3 4.48591 3 6.33333C3 8.18075 4.47549 9.66667 6.28125 9.66667H10.75C11.9862 9.66667 13 8.64882 13 7.37879C13 6.10876 11.9862 5.09091 10.75 5.09091C10.6427 5.09091 10.5374 5.09851 10.4346 5.11314C9.9056 5.18844 9.32972 4.96985 9.01579 4.49028C8.42596 3.58925 7.42001 3 6.28125 3Z" fill="#FAFAFA"/>
</svg>
