<svg width="16" height="16" viewBox="0 0 16 16" fill="none" xmlns="http://www.w3.org/2000/svg">
<path fill-rule="evenodd" clip-rule="evenodd" d="M7.9987 6.16667C9.7476 6.16667 11.1654 7.58443 11.1654 9.33333C11.1654 11.0822 9.7476 12.5 7.9987 12.5C6.2498 12.5 4.83203 11.0822 4.83203 9.33333C4.83203 7.58443 6.2498 6.16667 7.9987 6.16667ZM7.9987 7.16667C6.80208 7.16667 5.83203 8.13672 5.83203 9.33333C5.83203 10.3578 6.54327 11.2149 7.4987 11.4408V9.66667C7.4987 9.39052 7.72256 9.16667 7.9987 9.16667C8.27484 9.16667 8.4987 9.39052 8.4987 9.66667V11.4408C9.45412 11.2149 10.1654 10.3578 10.1654 9.33333C10.1654 8.13672 9.19531 7.16667 7.9987 7.16667Z" fill="#FAFAFA"/>
<path d="M5.9987 3.5C6.27484 3.5 6.4987 3.72386 6.4987 4V4.66667C6.4987 4.94281 6.27484 5.16667 5.9987 5.16667C5.72256 5.16667 5.4987 4.94281 5.4987 4.66667V4C5.4987 3.72386 5.72256 3.5 5.9987 3.5Z" fill="#FAFAFA"/>
<path d="M7.9987 3.5C8.27484 3.5 8.4987 3.72386 8.4987 4V4.66667C8.4987 4.94281 8.27484 5.16667 7.9987 5.16667C7.72256 5.16667 7.4987 4.94281 7.4987 4.66667V4C7.4987 3.72386 7.72256 3.5 7.9987 3.5Z" fill="#FAFAFA"/>
<path d="M9.9987 3.5C10.2748 3.5 10.4987 3.72386 10.4987 4V4.66667C10.4987 4.94281 10.2748 5.16667 9.9987 5.16667C9.72256 5.16667 9.4987 4.94281 9.4987 4.66667V4C9.4987 3.72386 9.72256 3.5 9.9987 3.5Z" fill="#FAFAFA"/>
<path fill-rule="evenodd" clip-rule="evenodd" d="M11.332 1.5C12.3446 1.5 13.1654 2.32081 13.1654 3.33333V12.6667C13.1654 13.6792 12.3446 14.5 11.332 14.5H4.66536C3.65284 14.5 2.83203 13.6792 2.83203 12.6667V3.33333C2.83203 2.32081 3.65284 1.5 4.66536 1.5H11.332ZM4.66536 2.5C4.20513 2.5 3.83203 2.8731 3.83203 3.33333V12.6667C3.83203 13.1269 4.20513 13.5 4.66536 13.5H11.332C11.7923 13.5 12.1654 13.1269 12.1654 12.6667V3.33333C12.1654 2.8731 11.7923 2.5 11.332 2.5H4.66536Z" fill="#FAFAFA"/>
</svg>
