<svg width="16" height="16" viewBox="0 0 16 16" fill="none" xmlns="http://www.w3.org/2000/svg">
<path fill-rule="evenodd" clip-rule="evenodd" d="M8 4.80672C8.5569 4.80672 9.04634 5.01061 9.44076 5.40503C9.83518 5.79945 10.0391 6.28888 10.0391 6.84578C10.0391 7.22864 9.94193 7.5882 9.74544 7.91284C9.61673 8.12545 9.45451 8.30522 9.26302 8.45255L9.56966 10.1427H9.56836C9.6235 10.4187 9.54227 10.6758 9.36849 10.8764C9.20115 11.0695 8.96904 11.1934 8.69271 11.1934H7.30729C7.03096 11.1934 6.79885 11.0695 6.63151 10.8764C6.45774 10.6758 6.3765 10.4187 6.43164 10.1427H6.43034L6.73633 8.45255C6.54502 8.30527 6.38318 8.1253 6.25456 7.91284C6.05807 7.5882 5.96094 7.22864 5.96094 6.84578C5.96094 6.28888 6.16482 5.79945 6.55925 5.40503C6.95366 5.01061 7.4431 4.80672 8 4.80672ZM8 5.80672C7.71042 5.80672 7.47466 5.90368 7.26628 6.11206C7.0579 6.32044 6.96094 6.5562 6.96094 6.84578C6.96094 7.05283 7.01159 7.23192 7.11003 7.39461C7.20825 7.5569 7.33911 7.67808 7.51172 7.7644C7.71034 7.86372 7.81949 8.08234 7.77995 8.30086L7.4375 10.1934H8.5625L8.22005 8.30086C8.18051 8.08234 8.28966 7.86372 8.48828 7.7644C8.66089 7.67808 8.79175 7.5569 8.88997 7.39461C8.98841 7.23192 9.03906 7.05283 9.03906 6.84578C9.03906 6.5562 8.9421 6.32044 8.73372 6.11206C8.52534 5.90368 8.28958 5.80672 8 5.80672Z" fill="#FAFAFA"/>
<path fill-rule="evenodd" clip-rule="evenodd" d="M12.3333 1.61597C13.2538 1.61597 13.9999 2.36223 14 3.28263V8.0131C14 12.2783 9.92267 14.2251 8.49023 14.7774L8.37044 14.8171C8.0876 14.8962 7.7902 14.8767 7.51562 14.7611C6.08852 14.1606 2 12.0849 2 8.0131V3.28263C2.00009 2.36223 2.74625 1.61597 3.66667 1.61597H12.3333ZM3.66667 2.61597C3.29853 2.61597 3.00009 2.91452 3 3.28263V8.0131C3 9.67843 3.82696 10.9675 4.89909 11.9526C5.97945 12.9451 7.24065 13.5609 7.90365 13.8399C7.98116 13.8725 8.05692 13.873 8.13086 13.8445C8.79149 13.5898 10.0409 13.019 11.11 12.0476C12.1643 11.0897 13 9.78705 13 8.0131V3.28263C12.9999 2.91452 12.7015 2.61597 12.3333 2.61597H3.66667Z" fill="#FAFAFA"/>
</svg>
