<svg width="16" height="16" viewBox="0 0 16 16" fill="none" xmlns="http://www.w3.org/2000/svg">
<path fill-rule="evenodd" clip-rule="evenodd" d="M11.1849 7.31136C11.4423 7.04577 11.8692 7.04608 12.127 7.31136C13.1441 8.35846 14.1645 9.55401 14.1647 10.7606C14.1646 12.1551 13.0413 13.286 11.6556 13.286C10.2699 13.2859 9.14665 12.1551 9.14648 10.7606C9.14666 9.56158 10.2011 8.32653 11.1849 7.31136ZM11.6556 8.26774C11.2668 8.68184 10.907 9.10117 10.6315 9.51839C10.2915 10.0334 10.1466 10.4449 10.1465 10.7606C10.1466 11.6088 10.8282 12.2859 11.6556 12.286C12.483 12.286 13.1646 11.6088 13.1647 10.7606C13.1646 10.4355 13.0237 10.0298 12.6921 9.5262C12.4192 9.11186 12.0573 8.69371 11.6556 8.26774Z" fill="#FAFAFA"/>
<path d="M8.19792 11.9318C8.47401 11.9318 8.69783 12.1557 8.69792 12.4318C8.69783 12.7079 8.47401 12.9318 8.19792 12.9318H1.83203C1.55595 12.9318 1.33212 12.7079 1.33203 12.4318C1.33212 12.1557 1.55595 11.9318 1.83203 11.9318H8.19792Z" fill="#FAFAFA"/>
<path d="M8.19792 10.1512C8.47406 10.1512 8.69792 10.3751 8.69792 10.6512C8.69774 10.9272 8.47395 11.1512 8.19792 11.1512H1.83203C1.556 11.1512 1.33221 10.9272 1.33203 10.6512C1.33203 10.3751 1.5559 10.1512 1.83203 10.1512H8.19792Z" fill="#FAFAFA"/>
<path fill-rule="evenodd" clip-rule="evenodd" d="M2.92969 2.21436C3.91386 2.21443 4.76998 2.76176 5.21094 3.56852C5.56049 3.26383 6.01685 3.07836 6.51693 3.07829H7.64193V4.20329C7.6417 5.30195 6.75105 6.19282 5.65234 6.19287H5.51497V8.3706H8.19792C8.47406 8.3706 8.69792 8.59446 8.69792 8.8706C8.69765 9.14652 8.4739 9.3706 8.19792 9.3706H1.83203C1.55606 9.3706 1.33229 9.14652 1.33203 8.8706C1.33203 8.59447 1.5559 8.37061 1.83203 8.3706H4.51497V6.19287H4.14779C2.71284 6.19277 1.54965 5.0295 1.54948 3.59456V2.21436H2.92969ZM2.54948 3.59456C2.54965 4.47726 3.26517 5.19277 4.14779 5.19287H4.52734V5.06787C4.52735 5.05923 4.52788 5.05044 4.52799 5.04183V4.81266C4.52783 3.92996 3.8123 3.21446 2.92969 3.21436H2.54948V3.59456ZM6.51693 4.07829C5.97496 4.07845 5.53515 4.51446 5.528 5.05485V5.19287H5.65234C6.19872 5.19282 6.6417 4.74971 6.64193 4.20329V4.07829H6.51693Z" fill="#FAFAFA"/>
</svg>
