<svg width="16" height="16" viewBox="0 0 16 16" fill="none" xmlns="http://www.w3.org/2000/svg">
<path fill-rule="evenodd" clip-rule="evenodd" d="M4.91895 2.39453C5.10796 2.41331 5.28857 2.47945 5.44499 2.58529C5.63228 2.45838 5.85484 2.38872 6.08431 2.38867H7.3623L7.47494 2.39453C7.73545 2.42049 7.98087 2.53528 8.16764 2.72201C8.19495 2.74932 8.22028 2.77827 8.24447 2.80794C8.24838 2.80645 8.25225 2.80483 8.25619 2.80339L8.28092 2.79492L8.36621 2.76888L8.39551 2.76107L9.79069 2.42253L9.79199 2.42188L9.90592 2.40039C10.4776 2.32041 11.05 2.66199 11.21 3.24284L13.5706 11.8158L13.5719 11.8203L13.5947 11.9251C13.6359 12.1707 13.5959 12.4245 13.4801 12.6471C13.3643 12.8697 13.1794 13.0477 12.9548 13.1549L12.8558 13.1966C12.8477 13.1996 12.8393 13.2025 12.8311 13.2051L12.7458 13.2311C12.7362 13.2341 12.7262 13.2372 12.7165 13.2396L11.3213 13.5781H11.32C10.7503 13.7148 10.1519 13.4181 9.93913 12.8698L9.90202 12.7572L8.50098 7.66862V12.472L8.49577 12.5846C8.46988 12.8452 8.35437 13.0905 8.16764 13.2773C7.98085 13.4641 7.73551 13.5795 7.47494 13.6055L7.3623 13.6107H6.08431C5.85478 13.6106 5.63231 13.541 5.44499 13.4141C5.28854 13.5202 5.10809 13.5867 4.91895 13.6055L4.80632 13.6107H3.52832C3.22635 13.6106 2.93651 13.4909 2.72298 13.2773C2.53623 13.0905 2.4214 12.8452 2.39551 12.5846L2.38965 12.472V3.52734C2.38975 3.22543 2.50949 2.9355 2.72298 2.72201C2.93651 2.50852 3.22638 2.38873 3.52832 2.38867H4.80632L4.91895 2.39453ZM10.4391 10.9408L10.8662 12.4915L10.8766 12.5189C10.9085 12.5799 10.9892 12.6283 11.085 12.6061L12.4619 12.2715L12.5146 12.2559C12.5483 12.2424 12.5766 12.2177 12.5934 12.1855C12.6108 12.1521 12.6148 12.1133 12.6051 12.0768L12.1729 10.5072L10.4391 10.9408ZM3.38965 12.472L3.39225 12.4993C3.39758 12.5259 3.41061 12.5508 3.43001 12.5703C3.45601 12.5963 3.49156 12.6106 3.52832 12.6107H4.80632L4.83366 12.6081C4.86029 12.6027 4.88513 12.5898 4.90462 12.5703C4.93062 12.5443 4.94499 12.5088 4.94499 12.472V5.94466H3.38965V12.472ZM5.94564 12.472L5.94824 12.4993C5.95358 12.526 5.96655 12.5508 5.986 12.5703C6.01199 12.5963 6.04759 12.6106 6.08431 12.6107H7.3623L7.38965 12.6081C7.41616 12.6027 7.4412 12.5897 7.46061 12.5703C7.47998 12.5508 7.49304 12.5259 7.49837 12.4993L7.50098 12.472V11.0553H5.94564V12.472ZM6.08431 3.38867C6.04767 3.38873 6.01198 3.4032 5.986 3.42904C5.96005 3.45499 5.94574 3.49064 5.94564 3.52734V10.0553H7.50098V3.52734C7.50088 3.49068 7.48652 3.45499 7.46061 3.42904C7.44119 3.40965 7.41615 3.39665 7.38965 3.39128L7.3623 3.38867H6.08431ZM9.2041 6.45703L10.1735 9.97656L11.9072 9.54297L10.9385 6.02409L9.2041 6.45703ZM10.0257 3.39453L10.0251 3.39388L8.64941 3.72786L8.59733 3.74349C8.56365 3.75694 8.53535 3.78221 8.51855 3.81445C8.50124 3.84792 8.49717 3.8874 8.50684 3.92383L8.93848 5.49284L10.6729 5.05924L10.2458 3.50846C10.2258 3.43568 10.136 3.36809 10.0257 3.39453ZM3.52832 3.38867C3.4916 3.38873 3.456 3.40309 3.43001 3.42904C3.40406 3.45499 3.38975 3.49064 3.38965 3.52734V4.94466H4.94499V3.52734L4.94238 3.50065C4.93706 3.47391 4.92419 3.4486 4.90462 3.42904C4.88514 3.40963 4.86023 3.39661 4.83366 3.39128L4.80632 3.38867H3.52832Z" fill="#FAFAFA"/>
</svg>
