<svg width="16" height="16" viewBox="0 0 16 16" fill="none" xmlns="http://www.w3.org/2000/svg">
<path d="M8.00033 1.3335C8.7938 1.33351 9.55638 1.64444 10.1195 2.20003C10.6827 2.75585 11.0003 3.51136 11.0003 4.30029V7.56331C11.1303 7.63449 11.2518 7.7231 11.359 7.82894C11.6617 8.12774 11.8337 8.53442 11.8337 8.9598C11.8336 9.13975 11.8003 9.3155 11.7419 9.48193C11.898 9.42454 12.0418 9.33602 12.1611 9.21826C12.379 9.00322 12.5002 8.71274 12.5003 8.41162V6.993H12.167C11.891 6.993 11.6672 6.76899 11.667 6.493C11.667 6.21686 11.8909 5.993 12.167 5.993H13.8337C14.1098 5.99302 14.3337 6.21687 14.3337 6.493C14.3335 6.76898 14.1097 6.99299 13.8337 6.993H13.5003V8.41162C13.5002 8.98238 13.2705 9.52897 12.8636 9.9305C12.4569 10.3318 11.906 10.5561 11.3337 10.5562H10.5003C10.4656 10.5562 10.4315 10.5518 10.3988 10.5451C10.3404 10.5515 10.2816 10.5561 10.2223 10.5562H8.50033V11.2144C9.21808 11.2771 9.9109 11.5218 10.5101 11.9285C11.2523 12.4325 11.8124 13.1595 12.1058 14.0028C12.1963 14.2635 12.0585 14.5488 11.7979 14.6395C11.5372 14.7301 11.252 14.5921 11.1611 14.3315C10.9389 13.693 10.5141 13.1402 9.94824 12.756C9.51558 12.4623 9.01804 12.2791 8.50033 12.2196V14.1668C8.50021 14.4429 8.2764 14.6668 8.00033 14.6668C7.72426 14.6668 7.50044 14.4429 7.50033 14.1668V12.2189C6.98215 12.2779 6.48401 12.4608 6.05111 12.7547C5.48524 13.1389 5.06101 13.6921 4.83952 14.3309C4.74896 14.5916 4.46358 14.7298 4.2028 14.6395C3.94221 14.549 3.8041 14.2641 3.89421 14.0034C4.1868 13.1595 4.74681 12.4321 5.48926 11.9279C6.08875 11.5209 6.78214 11.2766 7.50033 11.2144V10.5562H5.77832C5.71898 10.5562 5.65973 10.5515 5.60124 10.5451C5.56861 10.5518 5.53493 10.5561 5.50033 10.5562H4.66699C4.09459 10.5562 3.54385 10.3318 3.13704 9.9305C2.7301 9.52897 2.50044 8.98239 2.50033 8.41162V6.993H2.16699C1.89094 6.993 1.66715 6.76901 1.66699 6.493C1.66699 6.21686 1.89085 5.993 2.16699 5.993H3.83366C4.10979 5.99302 4.33366 6.21687 4.33366 6.493C4.33351 6.769 4.10969 6.99299 3.83366 6.993H3.50033V8.41162C3.50044 8.71275 3.62165 9.00322 3.83952 9.21826C3.95842 9.33553 4.10145 9.42389 4.25684 9.48128C4.19876 9.31509 4.16704 9.13938 4.16699 8.9598C4.16699 8.5344 4.33828 8.12774 4.64095 7.82894C4.7486 7.72272 4.86972 7.63331 5.00033 7.56201V4.30029C5.00033 3.51134 5.31791 2.75585 5.88119 2.20003C6.44429 1.64443 7.20683 1.3335 8.00033 1.3335ZM5.77832 8.36344C5.6141 8.36344 5.45753 8.42795 5.34342 8.54053C5.22963 8.65287 5.16699 8.80389 5.16699 8.9598C5.16709 9.1156 5.22968 9.26681 5.34342 9.37907C5.4575 9.49145 5.61426 9.55615 5.77832 9.55615H7.9873C7.99163 9.55604 7.99597 9.5555 8.00033 9.5555C8.00468 9.5555 8.00902 9.55604 8.01335 9.55615H10.2223C10.3864 9.55607 10.5432 9.49158 10.6572 9.37907C10.7709 9.26681 10.8336 9.11557 10.8337 8.9598C10.8337 8.80406 10.7708 8.65283 10.6572 8.54053C10.5432 8.42802 10.3864 8.36353 10.2223 8.36344H5.77832ZM8.00033 2.3335C7.4678 2.3335 6.95822 2.5421 6.58366 2.91162C6.20932 3.28097 6.00033 3.78088 6.00033 4.30029V7.36344H10.0003V4.30029C10.0003 3.78088 9.79133 3.28097 9.41699 2.91162C9.04244 2.54209 8.53285 2.33351 8.00033 2.3335Z" fill="#FAFAFA"/>
</svg>
