<svg width="16" height="16" viewBox="0 0 16 16" fill="none" xmlns="http://www.w3.org/2000/svg">
<path d="M12.4017 8.69987C12.6777 8.69994 12.9016 8.92385 12.9017 9.19987C12.9017 9.47597 12.6778 9.6998 12.4017 9.69987H8.5013V14C8.50123 14.2761 8.2774 14.5 8.0013 14.5C7.7252 14.5 7.50137 14.2761 7.5013 14V9.69987H3.60156C3.32542 9.69987 3.10156 9.47601 3.10156 9.19987C3.10165 8.9238 3.32547 8.69987 3.60156 8.69987H12.4017Z" fill="#FAFAFA"/>
<path d="M8.0013 1.5C8.27744 1.5 8.5013 1.72386 8.5013 2V6.30013H12.4017C12.6778 6.3002 12.9017 6.52403 12.9017 6.80013C12.9016 7.07615 12.6777 7.30006 12.4017 7.30013H3.60156C3.32547 7.30013 3.10165 7.0762 3.10156 6.80013C3.10156 6.52399 3.32542 6.30013 3.60156 6.30013H7.5013V2C7.5013 1.72386 7.72516 1.5 8.0013 1.5Z" fill="#FAFAFA"/>
</svg>
