<svg width="16" height="16" viewBox="0 0 16 16" fill="none" xmlns="http://www.w3.org/2000/svg">
<path fill-rule="evenodd" clip-rule="evenodd" d="M6.00134 5.97721C6.24694 5.97721 6.44653 6.18972 6.44665 6.45182V10.1536C6.622 10.2222 6.78405 10.3297 6.91866 10.4733C7.16167 10.7327 7.29812 11.085 7.29821 11.4518C7.29814 11.8185 7.16145 12.1703 6.91866 12.4297C6.6756 12.689 6.34548 12.8351 6.00199 12.8353C5.70128 12.8353 5.41108 12.7238 5.18038 12.5221L5.08532 12.4303C4.84223 12.1709 4.70519 11.8187 4.70511 11.4518C4.70521 11.085 4.84224 10.7327 5.08532 10.4733C5.21988 10.3298 5.38138 10.2222 5.55668 10.1536V6.45182C5.5568 6.18978 5.75582 5.97731 6.00134 5.97721ZM6.00134 11.0182C6.00025 11.0182 5.99917 11.0176 5.99808 11.0176C5.89171 11.0186 5.78963 11.0643 5.71423 11.1445C5.63803 11.2259 5.59519 11.3368 5.59509 11.4518C5.59516 11.5668 5.63807 11.6771 5.71423 11.7585L5.77608 11.8132C5.84234 11.8603 5.92112 11.886 6.00199 11.8861C6.10977 11.8859 6.21297 11.8397 6.2891 11.7585L6.34053 11.6927C6.38459 11.622 6.40884 11.538 6.40889 11.4518C6.40879 11.3368 6.36526 11.2258 6.2891 11.1445C6.21375 11.0643 6.11155 11.0187 6.00524 11.0176C6.004 11.0177 6.00258 11.0182 6.00134 11.0182Z" fill="#FAFAFA"/>
<path fill-rule="evenodd" clip-rule="evenodd" d="M6.00004 1.33398C6.56948 1.33411 7.11618 1.57553 7.51892 2.00521L7.59248 2.08789C7.94924 2.50849 8.14846 3.05697 8.14847 3.62695V9.23112C8.52265 9.64104 8.78837 10.1515 8.9154 10.7103L8.96032 10.9479C9.04579 11.5049 8.9924 12.0781 8.80277 12.6081C8.6131 13.138 8.29507 13.6034 7.8835 13.9577L7.70121 14.1029C7.20093 14.4705 6.60732 14.6672 6.00004 14.6673C5.4687 14.6673 4.94786 14.5163 4.49092 14.2324L4.29886 14.1029C3.79854 13.7352 3.41413 13.2138 3.1973 12.6081L3.12439 12.3783C2.97361 11.8372 2.95935 11.2616 3.08467 10.7103L3.14652 10.4766C3.28871 10.0091 3.53074 9.58325 3.85225 9.23112V3.62695C3.85227 3.01885 4.07828 2.43521 4.48116 2.00521L4.55798 1.92773C4.952 1.54691 5.46596 1.33407 6.00004 1.33398ZM6.00004 2.28385C5.70811 2.28393 5.42639 2.39215 5.20251 2.58789L5.11006 2.67643C4.87403 2.92835 4.74159 3.27068 4.74157 3.62695V9.43229C4.74157 9.56706 4.6877 9.69577 4.59379 9.78581C4.31512 10.0518 4.10777 10.3919 3.99288 10.7695L3.94926 10.9342C3.86112 11.322 3.87121 11.7269 3.97725 12.1074L4.02868 12.2689L4.09118 12.4258C4.24982 12.7849 4.4955 13.094 4.80342 13.3203L4.93819 13.4115C5.25966 13.6113 5.62613 13.7174 6.00004 13.7174C6.42721 13.7173 6.84483 13.5788 7.19665 13.3203L7.32491 13.2181C7.61427 12.9689 7.83801 12.6421 7.97139 12.2695L8.02282 12.1074C8.11375 11.7811 8.13432 11.4369 8.08272 11.1009L8.05147 10.9342C7.96331 10.5465 7.77984 10.1913 7.52217 9.90495L7.40694 9.78646C7.31273 9.6964 7.25915 9.56729 7.25915 9.43229V3.62695C7.25913 3.27075 7.12592 2.92896 6.89001 2.67708C6.65412 2.42549 6.33353 2.28398 6.00004 2.28385Z" fill="#FAFAFA"/>
<path fill-rule="evenodd" clip-rule="evenodd" d="M10.5879 5.03971C10.876 4.46397 11.6647 4.42821 12.015 4.93229L12.0788 5.03971L13.0703 7.02344C13.716 8.31472 12.7771 9.83398 11.3334 9.83398C9.8897 9.83396 8.95078 8.31471 9.59639 7.02344L10.5879 5.03971ZM10.4909 7.4707C10.1778 8.09707 10.6331 8.83396 11.3334 8.83398C12.0337 8.83398 12.489 8.09709 12.1758 7.4707L11.3334 5.78516L10.4909 7.4707Z" fill="#FAFAFA"/>
</svg>
