<svg width="16" height="16" viewBox="0 0 16 16" fill="none" xmlns="http://www.w3.org/2000/svg">
<path d="M10.418 1C11.6151 1.00026 12.5858 2.01011 12.5859 3.25586V9.18945C12.5859 9.76746 12.2726 10.2689 11.8135 10.5215L13.0186 12.6729C13.047 12.7092 13.0701 12.7496 13.0869 12.7939L13.9365 14.3105C14.059 14.5293 13.9875 14.81 13.7773 14.9375C13.5672 15.0648 13.2973 14.9911 13.1748 14.7725L12.417 13.4199H3.5752L2.82227 14.7715C2.70023 14.9905 2.43023 15.0653 2.21973 14.9385C2.00924 14.8115 1.93761 14.5306 2.05957 14.3115L2.9043 12.7939C2.92041 12.7512 2.94273 12.7121 2.96973 12.6768L4.17969 10.5049C3.737 10.2472 3.4375 9.7548 3.4375 9.18945V3.25586C3.43768 2.01007 4.40823 1.00018 5.60547 1H10.418ZM5.05371 10.6963C5.04622 10.7538 5.02868 10.8109 4.99902 10.8643L4.08594 12.5029H11.9033L10.9863 10.8652C10.9563 10.8116 10.9382 10.7542 10.9307 10.6963H5.05371ZM8.10156 7.67773C8.04246 7.69051 7.98098 7.69051 7.92188 7.67773L4.31836 6.89844V9.18945C4.31836 9.51502 4.57286 9.7793 4.88574 9.7793H11.1377C11.4506 9.7793 11.7041 9.51502 11.7041 9.18945V6.89844L8.10156 7.67773ZM6.32227 8.11719C6.56562 8.11719 6.76367 8.32295 6.76367 8.57617C6.76361 8.82935 6.56559 9.03418 6.32227 9.03418H5.53223C5.28891 9.03418 5.09186 8.82935 5.0918 8.57617C5.0918 8.32295 5.28887 8.11719 5.53223 8.11719H6.32227ZM10.4727 8.11719C10.716 8.11719 10.9131 8.32295 10.9131 8.57617C10.913 8.82935 10.716 9.03418 10.4727 9.03418H9.68164C9.43849 9.03397 9.24127 8.82921 9.24121 8.57617C9.24121 8.32308 9.43846 8.1174 9.68164 8.11719H10.4727ZM4.31836 5.96191L8.01172 6.76074L11.7041 5.96191V3.94141H4.31836V5.96191ZM5.60547 1.91699C4.97084 1.91715 4.4444 2.39545 4.33887 3.02441H11.6846C11.579 2.39549 11.0526 1.91722 10.418 1.91699H5.60547Z" fill="#FAFAFA"/>
</svg>
