<svg width="16" height="16" viewBox="0 0 16 16" fill="none" xmlns="http://www.w3.org/2000/svg">
<path fill-rule="evenodd" clip-rule="evenodd" d="M8.00065 2.33325C4.87104 2.33325 2.33398 4.8703 2.33398 7.99992C2.33398 11.1295 4.87104 13.6666 8.00065 13.6666C11.1303 13.6666 13.6673 11.1295 13.6673 7.99992C13.6673 4.8703 11.1303 2.33325 8.00065 2.33325ZM1.33398 7.99992C1.33398 4.31802 4.31875 1.33325 8.00065 1.33325C11.6825 1.33325 14.6673 4.31802 14.6673 7.99992C14.6673 11.6818 11.6825 14.6666 8.00065 14.6666C4.31875 14.6666 1.33398 11.6818 1.33398 7.99992Z" fill="#FAFAFA"/>
<path d="M6.23414 8.08628C7.4993 7.08232 7.68447 6.12012 7.30961 5.53276C7.12761 5.24757 6.8206 5.07434 6.49236 5.06199C6.20337 5.05111 5.90977 5.1652 5.68047 5.41528C5.37947 5.2587 5.06456 5.25192 4.79671 5.36098C4.49249 5.48485 4.26325 5.75264 4.18976 6.08287C4.03841 6.76302 4.5415 7.60386 6.07375 8.11456C6.12856 8.13283 6.18888 8.12219 6.23414 8.08628Z" fill="#FAFAFA"/>
<path d="M9.92631 8.11461C11.4586 7.60391 11.9616 6.76307 11.8103 6.08292C11.7368 5.75269 11.5076 5.4849 11.2033 5.36103C10.9355 5.25197 10.6206 5.25875 10.3196 5.41533C10.0903 5.16525 9.79667 5.05116 9.50768 5.06204C9.17944 5.07439 8.87244 5.24763 8.69043 5.53281C8.31558 6.12018 8.50075 7.08237 9.76593 8.08633C9.81118 8.12224 9.8715 8.13288 9.92631 8.11461Z" fill="#FAFAFA"/>
<path d="M7.9993 12C9.34705 12 10.4613 11.0002 10.6407 9.70178C10.6678 9.50603 10.495 9.35113 10.2982 9.36867C8.75872 9.50587 7.23989 9.50587 5.70041 9.36867C5.50358 9.35113 5.33083 9.50603 5.35788 9.70178C5.53733 11.0002 6.65156 12 7.9993 12Z" fill="#FAFAFA"/>
</svg>
