<svg width="16" height="16" viewBox="0 0 16 16" fill="none" xmlns="http://www.w3.org/2000/svg">
<path fill-rule="evenodd" clip-rule="evenodd" d="M7.9987 5.53809C7.50708 5.53824 7.03513 5.73342 6.6875 6.08105C6.33988 6.42872 6.14464 6.90062 6.14453 7.39225C6.14453 7.87828 6.33632 8.34452 6.67643 8.69108C6.59648 8.75157 6.52026 8.81795 6.44857 8.88965C6.03743 9.30084 5.80608 9.85831 5.80599 10.4398V11.4561C5.80607 11.7321 6.02997 11.956 6.30599 11.9561H6.54167L6.82552 14.2269C6.85681 14.4769 7.06963 14.6649 7.32161 14.665H8.67643C8.92847 14.6649 9.14121 14.477 9.17253 14.2269L9.45638 11.9561H9.69206C9.96815 11.9561 10.192 11.7321 10.1921 11.4561V10.4398C10.192 9.85827 9.96068 9.30085 9.54948 8.88965C9.47786 8.81804 9.40211 8.75151 9.32227 8.69108C9.66238 8.34452 9.85352 7.87828 9.85352 7.39225C9.85341 6.9006 9.65818 6.42873 9.31055 6.08105C8.9628 5.73343 8.49041 5.53809 7.9987 5.53809ZM7.99935 9.24707C8.31561 9.24716 8.61879 9.37306 8.84245 9.59668C9.06611 9.82034 9.19197 10.1235 9.19206 10.4398V10.9561H9.01497C8.79444 10.9561 8.60354 11.0996 8.53841 11.3031L8.51888 11.3942L8.23503 13.665H7.76302L7.47917 11.3942C7.4518 11.1752 7.28564 11.0038 7.07552 10.9645L6.98307 10.9561H6.80599V10.4398C6.80608 10.1235 6.932 9.82033 7.1556 9.59668C7.3793 9.37298 7.683 9.24711 7.99935 9.24707ZM7.9987 6.53809C8.22507 6.53809 8.44268 6.62816 8.60286 6.78809C8.76301 6.94823 8.85341 7.16579 8.85352 7.39225C8.85352 7.61886 8.7631 7.83618 8.60286 7.99642C8.44264 8.1566 8.22526 8.24707 7.9987 8.24707C7.7723 8.24692 7.55463 8.15652 7.39453 7.99642C7.2346 7.83623 7.14453 7.61863 7.14453 7.39225C7.14464 7.16583 7.23445 6.94822 7.39453 6.78809C7.55463 6.62799 7.7723 6.53824 7.9987 6.53809Z" fill="#FAFAFA"/>
<path d="M13.6367 4.92415C13.4308 4.74043 13.1143 4.75805 12.9303 4.96387C12.7465 5.16969 12.7644 5.48623 12.9701 5.67025C13.4498 6.09895 13.666 6.61007 13.666 7.09603C13.666 7.58198 13.4498 8.09311 12.9701 8.52181C12.7645 8.70573 12.7468 9.02172 12.9303 9.22754C13.1143 9.43342 13.4308 9.45117 13.6367 9.26725C14.3069 8.6683 14.666 7.89462 14.666 7.09603C14.666 6.29739 14.307 5.52312 13.6367 4.92415Z" fill="#FAFAFA"/>
<path d="M3.06966 4.96387C2.88572 4.75805 2.56919 4.74035 2.36328 4.92415C1.69298 5.52312 1.33404 6.29739 1.33398 7.09603C1.33405 7.89461 1.69306 8.6683 2.36328 9.26725C2.56919 9.45125 2.88566 9.43345 3.06966 9.22754C3.2533 9.02169 3.23556 8.70574 3.02995 8.52181C2.5502 8.09311 2.33405 7.58198 2.33398 7.09603C2.33404 6.61007 2.5502 6.09895 3.02995 5.67025C3.23568 5.48623 3.2536 5.16972 3.06966 4.96387Z" fill="#FAFAFA"/>
<path d="M11.7962 5.67285C11.5921 5.48694 11.2758 5.50203 11.0898 5.70605C10.9156 5.89734 10.917 6.18723 11.0859 6.37598L11.2083 6.49837C11.3936 6.70019 11.4668 6.90988 11.4668 7.09603C11.4668 7.28222 11.3937 7.49237 11.2083 7.69434L11.0859 7.81673C10.9172 8.00553 10.9156 8.29547 11.0898 8.48665C11.2759 8.69047 11.5922 8.70512 11.7962 8.51921C12.2233 8.12989 12.4668 7.62837 12.4668 7.09603C12.4668 6.56372 12.2233 6.06215 11.7962 5.67285Z" fill="#FAFAFA"/>
<path d="M4.91016 5.70605C4.72416 5.50211 4.40783 5.48697 4.20378 5.67285C3.77677 6.06214 3.53323 6.56376 3.5332 7.09603C3.53323 7.62833 3.77672 8.1299 4.20378 8.51921C4.40775 8.7051 4.7241 8.6904 4.91016 8.48665C5.08444 8.29544 5.08284 8.00553 4.91406 7.81673L4.79167 7.69434C4.60635 7.4924 4.53323 7.2822 4.5332 7.09603C4.53323 6.90991 4.60644 6.70017 4.79167 6.49837L4.91406 6.37598C5.08304 6.18723 5.08442 5.89737 4.91016 5.70605Z" fill="#FAFAFA"/>
<path fill-rule="evenodd" clip-rule="evenodd" d="M4.83268 1.33301C4.55661 1.33301 4.3328 1.55697 4.33268 1.83301C4.33268 2.10915 4.55654 2.33301 4.83268 2.33301H5.33659V2.93327C5.33659 3.35517 5.50158 3.76209 5.79753 4.06283C6.0938 4.36375 6.49751 4.53416 6.91992 4.53418H9.08659C9.50903 4.53418 9.91269 4.36377 10.209 4.06283C10.505 3.76208 10.6699 3.35521 10.6699 2.93327V2.33301H11.166C11.4421 2.33292 11.666 2.1091 11.666 1.83301C11.6659 1.55702 11.442 1.3331 11.166 1.33301H4.83268ZM9.66992 2.93327C9.66992 3.09504 9.60634 3.24896 9.49609 3.361C9.38608 3.47273 9.2387 3.53418 9.08659 3.53418H6.91992C6.76784 3.53416 6.62042 3.47271 6.51042 3.361C6.40022 3.24897 6.33659 3.095 6.33659 2.93327V2.33301H9.66992V2.93327Z" fill="#FAFAFA"/>
</svg>
