<svg width="16" height="16" viewBox="0 0 16 16" fill="none" xmlns="http://www.w3.org/2000/svg">
<path d="M12.1849 9.30901C12.1849 8.26108 11.7012 7.12552 10.8529 5.90667C10.0702 4.78221 9.04479 3.68191 7.99935 2.6163C6.99666 3.63994 5.97375 4.74169 5.18164 5.87607C4.31647 7.11513 3.81448 8.27181 3.81445 9.30901C3.81445 11.6444 5.69401 13.527 7.99935 13.5271V14.5271C5.13578 14.527 2.81445 12.1908 2.81445 9.30901C2.8145 6.62603 5.36935 3.85597 7.52734 1.66969C7.78715 1.4065 8.2121 1.40724 8.472 1.67034C10.7259 3.95197 13.1849 6.61689 13.1849 9.30901L13.1784 9.57789C13.0394 12.3348 10.7735 14.5271 7.99935 14.5271V13.5271C10.3048 13.5271 12.1849 11.6445 12.1849 9.30901Z" fill="#FAFAFA"/>
</svg>
