<svg width="16" height="16" viewBox="0 0 16 16" fill="none" xmlns="http://www.w3.org/2000/svg">
<path d="M4.9987 5.66659C4.9987 4.58918 5.31834 3.58671 5.86719 2.74862C3.79407 3.59094 2.33203 5.62437 2.33203 7.99992C2.33203 11.1295 4.86909 13.6666 7.9987 13.6666V14.6666L7.6556 14.6581C4.24678 14.4853 1.5133 11.7518 1.34049 8.34302L1.33203 7.99992C1.33203 4.31802 4.3168 1.33325 7.9987 1.33325C8.30708 1.33325 8.35816 1.79535 8.0944 1.955L7.86393 2.10474C6.73684 2.8872 5.9987 4.19058 5.9987 5.66659L6.00456 5.88989C6.11702 8.10541 7.89321 9.8816 10.1087 9.99406L10.332 9.99992C11.9064 9.99992 13.2848 9.16008 14.0436 7.90422C14.2033 7.64047 14.6654 7.69154 14.6654 7.99992L14.6569 8.34302C14.4783 11.8654 11.5655 14.6666 7.9987 14.6666V13.6666C10.3743 13.6666 12.4071 12.2041 13.2493 10.1308C12.4113 10.6796 11.4094 10.9999 10.332 10.9999C7.38648 10.9999 4.9987 8.61214 4.9987 5.66659Z" fill="#FAFAFA"/>
<path d="M13.2654 1.53805C13.1582 1.26499 12.7731 1.26499 12.6658 1.53805L12.3789 2.26823C12.3462 2.3516 12.2804 2.41759 12.1974 2.45047L11.4698 2.73845C11.1978 2.84615 11.1978 3.23259 11.4698 3.34028L12.1974 3.62827C12.2804 3.66115 12.3462 3.72713 12.3789 3.8105L12.6658 4.54069C12.7731 4.81375 13.1582 4.81375 13.2654 4.54069L13.5524 3.8105C13.5851 3.72713 13.6508 3.66115 13.7339 3.62827L14.4614 3.34028C14.7335 3.23259 14.7335 2.84615 14.4614 2.73845L13.7339 2.45047C13.6508 2.41759 13.5851 2.3516 13.5524 2.26823L13.2654 1.53805Z" fill="#FAFAFA"/>
<path d="M10.6872 5.41955C10.5799 5.1465 10.1949 5.1465 10.0876 5.41955L9.98296 5.68579C9.95023 5.76915 9.8845 5.83514 9.80143 5.86802L9.53617 5.97302C9.2641 6.08071 9.2641 6.46715 9.53617 6.57485L9.80143 6.67985C9.8845 6.71272 9.95023 6.77872 9.98296 6.86212L10.0876 7.12832C10.1949 7.40139 10.5799 7.40139 10.6872 7.12832L10.7918 6.86212C10.8246 6.77872 10.8903 6.71272 10.9734 6.67985L11.2386 6.57485C11.5107 6.46715 11.5107 6.08071 11.2386 5.97302L10.9734 5.86802C10.8903 5.83514 10.8246 5.76915 10.7918 5.68579L10.6872 5.41955Z" fill="#FAFAFA"/>
</svg>
