<svg width="16" height="16" viewBox="0 0 16 16" fill="none" xmlns="http://www.w3.org/2000/svg">
<path fill-rule="evenodd" clip-rule="evenodd" d="M8.9069 3.89779C9.75166 3.88966 10.5864 4.08202 11.3424 4.45898C11.4767 4.52591 11.5736 4.64996 11.6068 4.79622C11.6399 4.94245 11.6058 5.09594 11.5137 5.21419C11.3728 5.39491 11.2517 5.69282 11.1159 6.1224C10.9906 6.51873 10.8519 7.03141 10.6745 7.49544C10.3133 8.43991 9.68873 9.46743 8.28451 9.5957L8.28516 9.59635C7.51114 9.66801 6.93331 9.2278 6.5918 8.86198C6.52452 8.78991 6.46433 8.71677 6.40951 8.64714C6.29113 8.86052 6.17403 9.10198 6.0612 9.375C5.9557 9.63016 5.66339 9.7513 5.4082 9.64583C5.15308 9.54032 5.03192 9.248 5.13737 8.99284C5.33888 8.50529 5.55715 8.09619 5.78125 7.75326C5.43932 7.24086 5.25417 6.70464 5.29362 6.17318C5.34656 5.46132 5.78876 4.89432 6.4694 4.51302C6.47358 4.51068 6.47818 4.50873 6.48242 4.50651C7.23107 4.11496 8.06208 3.90597 8.9069 3.89779ZM8.91602 4.89779C8.23168 4.90445 7.5587 5.07313 6.95182 5.38932C6.48538 5.65252 6.31264 5.95662 6.29102 6.2474C6.27736 6.43196 6.32243 6.65717 6.45117 6.91862C6.6126 6.75702 6.77096 6.62288 6.92253 6.51237C7.20591 6.30576 7.45915 6.18496 7.65039 6.11458C7.74579 6.07948 7.82546 6.05704 7.88542 6.04297C7.91536 6.03594 7.94065 6.03081 7.96029 6.02734C7.97 6.02563 7.97867 6.02448 7.98568 6.02344C7.98904 6.02294 7.99208 6.0225 7.99479 6.02214C7.99612 6.02196 7.9987 6.02148 7.9987 6.02148H8.00065L8.0013 6.02083C8.0013 6.02083 8.0024 6.02105 8.0599 6.48958L8.0026 6.02083C8.27654 5.98739 8.52558 6.18244 8.55925 6.45638C8.5927 6.72908 8.40015 6.97739 8.12826 7.01302H8.12956C8.13093 7.01283 8.13281 7.01237 8.13281 7.01237C8.13069 7.01275 8.12468 7.01376 8.11393 7.01628C8.09142 7.02156 8.05059 7.03244 7.99544 7.05273C7.88553 7.09319 7.71558 7.17232 7.51172 7.32096C7.36421 7.42854 7.19558 7.57503 7.01758 7.77474C7.02365 7.78465 7.02966 7.79525 7.03646 7.80599C7.10299 7.91114 7.20018 8.0482 7.32292 8.17969C7.58001 8.45503 7.87429 8.63048 8.19336 8.60091C9.00758 8.52643 9.41875 7.97877 9.74023 7.13802C9.90412 6.70941 10.0187 6.27644 10.1628 5.82096C10.2329 5.59921 10.3116 5.36692 10.4089 5.14714C9.93103 4.97781 9.42565 4.89285 8.91602 4.89779Z" fill="#FAFAFA"/>
<path fill-rule="evenodd" clip-rule="evenodd" d="M12.7995 1.5C13.0755 1.50014 13.2995 1.72394 13.2995 2V11.6003C13.2993 11.8762 13.0754 12.1001 12.7995 12.1003H12.4993V13.5H12.7995C13.0755 13.5001 13.2995 13.7239 13.2995 14C13.2995 14.2761 13.0755 14.4999 12.7995 14.5H4.39909C3.94827 14.5 3.51605 14.3207 3.19727 14.002C2.91833 13.723 2.74634 13.3572 2.70768 12.9681L2.69922 12.8001V3.60026C2.69922 3.04331 2.92063 2.50906 3.31445 2.11523C3.70828 1.72141 4.24252 1.5 4.79948 1.5H12.7995ZM4.39909 12.1003C4.21348 12.1003 4.03554 12.1741 3.9043 12.3053C3.78943 12.4203 3.71832 12.5708 3.70247 12.7311L3.69922 12.8001L3.70247 12.8691C3.71837 13.0294 3.78942 13.18 3.9043 13.2949C4.03554 13.4262 4.21348 13.5 4.39909 13.5H11.4993V12.1003H4.39909ZM4.79948 2.5C4.50774 2.5 4.22777 2.61598 4.02148 2.82227C3.81519 3.02856 3.69922 3.30852 3.69922 3.60026V11.2526C3.91728 11.154 4.15514 11.1003 4.39909 11.1003H12.2995V2.5H4.79948Z" fill="#FAFAFA"/>
</svg>
