<svg width="16" height="16" viewBox="0 0 16 16" fill="none" xmlns="http://www.w3.org/2000/svg">
<path fill-rule="evenodd" clip-rule="evenodd" d="M7.66602 9.83362C9.04673 9.83362 10.166 10.9529 10.166 12.3336C10.166 13.7143 9.04671 14.8336 7.66602 14.8336C6.28533 14.8336 5.16605 13.7143 5.16602 12.3336C5.16602 10.9529 6.2853 9.83362 7.66602 9.83362ZM7.66471 10.667C7.51181 10.667 7.38751 10.7908 7.38737 10.9436V11.0739L7.26888 10.956C7.16071 10.8478 6.98579 10.8479 6.8776 10.956C6.76946 11.0642 6.76943 11.2391 6.8776 11.3473L7.38737 11.8577V12.055H7.1862L6.67773 11.5465C6.56953 11.4386 6.39391 11.4384 6.28581 11.5465C6.17783 11.6546 6.17791 11.8303 6.28581 11.9384L6.40365 12.0563H6.27604C6.12314 12.0565 5.99931 12.1808 5.99935 12.3336C5.99955 12.4866 6.12371 12.6105 6.27669 12.6103H6.4043L6.28581 12.7288C6.17794 12.837 6.17784 13.0126 6.28581 13.1207C6.3939 13.2288 6.56954 13.2286 6.67773 13.1207L7.1888 12.609H7.38737V12.8095L6.8776 13.3193C6.76944 13.4275 6.76949 13.603 6.8776 13.7112C6.98579 13.8192 7.16075 13.8193 7.26888 13.7112L7.38737 13.5927V13.7229C7.38737 13.8759 7.51172 14.0003 7.66471 14.0003C7.81748 14 7.94141 13.8758 7.94141 13.7229V13.5934L8.05924 13.7112L8.08008 13.7301C8.18889 13.8188 8.34975 13.8126 8.45117 13.7112C8.55236 13.6099 8.55857 13.4495 8.47005 13.3408L8.45117 13.3193L7.94141 12.8102V12.6084L8.13802 12.6077L8.65039 13.1207L8.67122 13.1396C8.77989 13.2281 8.94027 13.2217 9.04167 13.1207C9.14304 13.0193 9.14991 12.8584 9.0612 12.7496L9.04167 12.7288L8.91992 12.6071H9.05599C9.20888 12.6069 9.33271 12.4826 9.33268 12.3297C9.33239 12.1768 9.20826 12.0528 9.05534 12.053H8.92708L9.04167 11.9384C9.1498 11.8303 9.14982 11.6547 9.04167 11.5465C8.93353 11.4387 8.7585 11.4386 8.65039 11.5465L8.14258 12.0537L7.94141 12.0543V11.8571L8.45117 11.3473C8.55908 11.2392 8.55906 11.0642 8.45117 10.956C8.343 10.8478 8.16743 10.8479 8.05924 10.956L7.94141 11.0732V10.9436C7.94126 10.7909 7.81739 10.6672 7.66471 10.667Z" fill="#FAFAFA"/>
<path fill-rule="evenodd" clip-rule="evenodd" d="M12.6458 2.31344C12.8411 2.11818 13.1576 2.11818 13.3529 2.31344L14.6862 3.64677C14.8814 3.84204 14.8814 4.15855 14.6862 4.3538L13.3529 5.68714C13.1576 5.88235 12.8411 5.88235 12.6458 5.68714C12.4506 5.49189 12.4506 5.17537 12.6458 4.98011L13.1257 4.50029H12.4661C12.0059 4.50029 11.6328 4.87338 11.6328 5.33362V6.16695H12.3327C13.3452 6.16695 14.166 6.98777 14.166 8.00029V10.7334C14.166 11.7459 13.3452 12.5667 12.3327 12.5667H11.3327C11.0566 12.5667 10.8327 12.3428 10.8327 12.0667C10.8328 11.7907 11.0566 11.5667 11.3327 11.5667H12.3327C12.7929 11.5667 13.166 11.1936 13.166 10.7334V8.00029C13.166 7.54005 12.7929 7.16695 12.3327 7.16695H11.6328V8.16695C11.6328 9.0874 10.8866 9.83362 9.96615 9.83362C9.04569 9.83362 8.29952 9.0874 8.29948 8.16695V7.16695H6.96615V8.16695C6.96611 9.0874 6.21993 9.83362 5.29948 9.83362C4.37903 9.83362 3.63285 9.0874 3.63281 8.16695V7.16695H2.99935C2.53911 7.16695 2.16602 7.54005 2.16602 8.00029V10.7334C2.16605 11.1936 2.53913 11.5667 2.99935 11.5667H3.99935C4.2754 11.5667 4.49921 11.7907 4.49935 12.0667C4.49931 12.3428 4.27547 12.5667 3.99935 12.5667H2.99935C1.98685 12.5667 1.16605 11.7459 1.16602 10.7334V8.00029C1.16602 6.98777 1.98683 6.16695 2.99935 6.16695H3.63281V4.00029C3.63281 3.72415 3.85667 3.50029 4.13281 3.50029C4.40895 3.50029 4.63281 3.72415 4.63281 4.00029V6.16695H5.96615V5.16695C5.96615 4.24648 6.71234 3.50029 7.63281 3.50029C8.55329 3.50029 9.29948 4.24648 9.29948 5.16695V6.16695H10.6328V5.33362C10.6328 4.3211 11.4536 3.50029 12.4661 3.50029H13.1257L12.6458 3.02047C12.4506 2.82522 12.4506 2.5087 12.6458 2.31344ZM4.63281 8.16695C4.63285 8.53511 4.93131 8.83362 5.29948 8.83362C5.66765 8.83362 5.96611 8.53511 5.96615 8.16695V7.16695H4.63281V8.16695ZM9.29948 8.16695C9.29952 8.53511 9.59798 8.83362 9.96615 8.83362C10.3343 8.83362 10.6328 8.53511 10.6328 8.16695V7.16695H9.29948V8.16695ZM7.63281 4.50029C7.26462 4.50029 6.96615 4.79876 6.96615 5.16695V6.16695H8.29948V5.16695C8.29948 4.79876 8.001 4.50029 7.63281 4.50029Z" fill="#FAFAFA"/>
</svg>
