<svg width="16" height="16" viewBox="0 0 16 16" fill="none" xmlns="http://www.w3.org/2000/svg">
<path fill-rule="evenodd" clip-rule="evenodd" d="M2 5.66659C2 3.27982 3.91035 1.33325 6.28125 1.33325C7.77532 1.33325 9.08795 2.10795 9.85246 3.27583C9.93307 3.39898 10.1096 3.48258 10.2937 3.45637C10.4431 3.43512 10.5954 3.42416 10.75 3.42416C12.5514 3.42416 14 4.90267 14 6.71204C14 8.52141 12.5514 9.99992 10.75 9.99992H6.28125C3.91035 9.99992 2 8.05335 2 5.66659ZM6.28125 2.33325C4.47549 2.33325 3 3.81917 3 5.66659C3 7.51401 4.47549 8.99992 6.28125 8.99992H10.75C11.9862 8.99992 13 7.98207 13 6.71204C13 5.44201 11.9862 4.42416 10.75 4.42416C10.6427 4.42416 10.5374 4.43176 10.4346 4.44639C9.9056 4.52169 9.32972 4.3031 9.01579 3.82353C8.42596 2.9225 7.42001 2.33325 6.28125 2.33325ZM4.72695 11.3723C4.98155 11.4792 5.10126 11.7723 4.99432 12.0269L4.29432 13.6935C4.18739 13.9481 3.89432 14.0678 3.63972 13.9609C3.38512 13.854 3.26541 13.5609 3.37234 13.3063L4.07234 11.6396C4.17927 11.385 4.47235 11.2653 4.72695 11.3723ZM8.07472 11.372C8.32948 11.4785 8.44965 11.7714 8.34311 12.0262L7.64614 13.6928C7.5396 13.9476 7.24671 14.0677 6.99195 13.9612C6.73718 13.8547 6.61702 13.5618 6.72356 13.307L7.42053 11.6403C7.52707 11.3856 7.81996 11.2654 8.07472 11.372ZM11.4081 11.372C11.6629 11.4785 11.783 11.7714 11.6765 12.0262L10.9795 13.6928C10.873 13.9476 10.5801 14.0677 10.3253 13.9612C10.0706 13.8547 9.9504 13.5618 10.0569 13.307L10.7539 11.6403C10.8604 11.3856 11.1533 11.2654 11.4081 11.372Z" fill="#FAFAFA"/>
</svg>
