<svg width="16" height="16" viewBox="0 0 16 16" fill="none" xmlns="http://www.w3.org/2000/svg">
<path d="M8.46615 10.6993C8.8287 10.6993 9.18356 10.8072 9.48503 11.0086C9.7863 11.2099 10.0214 11.4961 10.1602 11.8308C10.2989 12.1657 10.3349 12.5346 10.2643 12.8901C10.1936 13.2455 10.0192 13.5725 9.76302 13.8289C9.50667 14.0852 9.17978 14.2601 8.82422 14.3308C8.46866 14.4015 8.09991 14.3653 7.76497 14.2267C7.43002 14.0879 7.14349 13.8523 6.94206 13.5509C6.74077 13.2495 6.63281 12.8951 6.63281 12.5326C6.63295 12.2567 6.85687 12.0328 7.13281 12.0326C7.40887 12.0326 7.63268 12.2566 7.63281 12.5326C7.63281 12.6974 7.68199 12.8585 7.77344 12.9955C7.86499 13.1325 7.99555 13.2397 8.14779 13.3028C8.29996 13.3658 8.46738 13.3818 8.62891 13.3497C8.79048 13.3176 8.93883 13.2383 9.05534 13.1218C9.17178 13.0053 9.25169 12.8569 9.28385 12.6954C9.31594 12.5338 9.29937 12.3658 9.23633 12.2136C9.17329 12.0616 9.0665 11.9314 8.92969 11.8399C8.79267 11.7484 8.63092 11.6993 8.46615 11.6993H2.06641C1.79026 11.6993 1.56641 11.4755 1.56641 11.1993C1.56654 10.9233 1.79035 10.6993 2.06641 10.6993H8.46615Z" fill="#FAFAFA"/>
<path fill-rule="evenodd" clip-rule="evenodd" d="M9.93359 4.03264C10.7734 4.03264 11.5787 4.36659 12.1725 4.96038C12.7663 5.55418 13.1002 6.35955 13.1003 7.19931C13.1003 7.87066 12.8857 8.51925 12.4967 9.05608L14.2871 10.8464C14.4821 11.0417 14.4823 11.3583 14.2871 11.5535C14.0919 11.7485 13.7753 11.7484 13.5801 11.5535L11.7897 9.76311C11.253 10.1519 10.6048 10.366 9.93359 10.366C9.09374 10.366 8.28853 10.0321 7.69466 9.43824C7.10088 8.84439 6.76693 8.0391 6.76693 7.19931C6.76699 6.35955 7.10086 5.55418 7.69466 4.96038C8.28851 4.36659 9.0938 4.03264 9.93359 4.03264ZM9.93359 5.03264C9.35902 5.03264 8.80801 5.26116 8.40169 5.66741C7.99542 6.07368 7.76699 6.62476 7.76693 7.19931C7.76693 7.77388 7.99544 8.32489 8.40169 8.73121C8.80802 9.13754 9.35896 9.36597 9.93359 9.36597C10.4624 9.36597 10.9702 9.17177 11.3646 8.82431C11.3866 8.78468 11.413 8.74665 11.4466 8.71298C11.4807 8.67892 11.5191 8.65182 11.5592 8.62965C11.9062 8.23535 12.1003 7.72765 12.1003 7.19931C12.1002 6.62476 11.8718 6.07368 11.4655 5.66741C11.0592 5.26116 10.5082 5.03264 9.93359 5.03264Z" fill="#FAFAFA"/>
<path d="M4.19987 8.5665C4.47601 8.5665 4.69987 8.79035 4.69987 9.0665C4.69974 9.34253 4.47593 9.5665 4.19987 9.5665H2.33333C2.05727 9.5665 1.83346 9.34253 1.83333 9.0665C1.83333 8.79035 2.05719 8.5665 2.33333 8.5665H4.19987Z" fill="#FAFAFA"/>
<path d="M5.26693 6.43303C5.54295 6.43317 5.76693 6.65698 5.76693 6.93303C5.7668 7.20898 5.54287 7.43289 5.26693 7.43303H2.33333C2.05727 7.43303 1.83346 7.20907 1.83333 6.93303C1.83333 6.65689 2.05719 6.43303 2.33333 6.43303H5.26693Z" fill="#FAFAFA"/>
<path d="M3.76497 1.77222C4.09991 1.63354 4.46867 1.59733 4.82422 1.66806C5.1798 1.73881 5.50666 1.91365 5.76302 2.17001C6.01931 2.42637 6.1936 2.75328 6.26432 3.10881C6.33501 3.46438 6.29889 3.83313 6.16016 4.16806C6.02141 4.5029 5.78636 4.78892 5.48503 4.99032C5.18354 5.19177 4.82875 5.29957 4.46615 5.29957H2.06641C1.79026 5.29957 1.56641 5.07571 1.56641 4.79957C1.56642 4.52343 1.79027 4.29957 2.06641 4.29957H4.46615C4.63096 4.29957 4.79265 4.25051 4.92969 4.15894C5.06656 4.0674 5.1733 3.93737 5.23633 3.78525C5.2994 3.63298 5.31601 3.46512 5.28385 3.30347C5.25168 3.14189 5.17184 2.99354 5.05534 2.87704C4.93882 2.76057 4.79049 2.68132 4.62891 2.64918C4.46739 2.61705 4.29996 2.6331 4.14779 2.69605C3.99552 2.75912 3.86501 2.86631 3.77344 3.00334C3.68191 3.14036 3.63282 3.30146 3.63281 3.46623C3.63281 3.74238 3.40895 3.96623 3.13281 3.96623C2.85679 3.96609 2.63281 3.74229 2.63281 3.46623C2.63282 3.10373 2.7407 2.74944 2.94206 2.44801C3.14351 2.14652 3.42998 1.91098 3.76497 1.77222Z" fill="#FAFAFA"/>
</svg>
