<svg width="16" height="16" viewBox="0 0 16 16" fill="none" xmlns="http://www.w3.org/2000/svg">
<path fill-rule="evenodd" clip-rule="evenodd" d="M8.48208 2.53942C8.20967 2.26355 7.78903 2.26355 7.51662 2.53942C6.8371 3.22756 5.8641 4.3035 5.06406 5.53805C4.25692 6.78355 3.66602 8.12962 3.66602 9.37039C3.66602 11.7395 5.60248 13.6667 7.99935 13.6667C10.3962 13.6667 12.3327 11.7395 12.3327 9.37039C12.3327 8.12962 11.7418 6.78355 10.9346 5.53805C10.1346 4.3035 9.1616 3.22756 8.48208 2.53942ZM6.80507 1.83678C7.469 1.16443 8.5297 1.16443 9.19363 1.83678C9.89803 2.55011 10.9224 3.68042 11.7738 4.99421C12.6181 6.29705 13.3327 7.84139 13.3327 9.37039C13.3327 12.2991 10.9412 14.6667 7.99935 14.6667C5.05746 14.6667 2.66602 12.2991 2.66602 9.37039C2.66602 7.84139 3.38057 6.29705 4.22487 4.99421C5.07626 3.68042 6.10067 2.55011 6.80507 1.83678Z" fill="#FAFAFA"/>
<path d="M10.167 10C10.167 9.72386 10.3909 9.5 10.667 9.5C10.9431 9.5 11.167 9.72386 11.167 10C11.167 10.4554 10.9553 11.1596 10.4535 11.7116C9.95632 12.2583 9.1899 12.638 8.13314 12.5228L7.9183 12.4935L7.86817 12.4824C7.6237 12.4158 7.4644 12.1733 7.50684 11.918C7.54939 11.6626 7.77872 11.4845 8.03158 11.5007L8.08236 11.5065L8.2347 11.528C8.9753 11.6109 9.42973 11.351 9.71387 11.0384C10.0452 10.6738 10.167 10.2112 10.167 10Z" fill="#FAFAFA"/>
</svg>
