<svg width="16" height="16" viewBox="0 0 16 16" fill="none" xmlns="http://www.w3.org/2000/svg">
<path fill-rule="evenodd" clip-rule="evenodd" d="M3.33398 2.50033C3.33398 1.4878 4.1548 0.666992 5.16732 0.666992H10.834C11.8465 0.666992 12.6673 1.4878 12.6673 2.50033V13.5003C12.6673 14.5128 11.8465 15.3337 10.834 15.3337H5.16732C4.1548 15.3337 3.33398 14.5128 3.33398 13.5003V2.50033ZM5.16732 1.66699C4.70708 1.66699 4.33398 2.04009 4.33398 2.50033V13.5003C4.33398 13.9606 4.70708 14.3337 5.16732 14.3337H10.834C11.2942 14.3337 11.6673 13.9606 11.6673 13.5003V2.50033C11.6673 2.04009 11.2942 1.66699 10.834 1.66699H5.16732ZM6.00065 12.8337C6.00065 12.5575 6.22451 12.3337 6.50065 12.3337H9.50065C9.77679 12.3337 10.0007 12.5575 10.0007 12.8337C10.0007 13.1098 9.77679 13.3337 9.50065 13.3337H6.50065C6.22451 13.3337 6.00065 13.1098 6.00065 12.8337Z" fill="#FAFAFA"/>
</svg>
