<svg width="16" height="16" viewBox="0 0 16 16" fill="none" xmlns="http://www.w3.org/2000/svg">
<path d="M8 1.875C8.27614 1.875 8.5 2.09886 8.5 2.375V7.5H13.625C13.9011 7.5 14.125 7.72386 14.125 8C14.125 8.27614 13.9011 8.5 13.625 8.5H8.5V13.625C8.5 13.9011 8.27614 14.125 8 14.125C7.72386 14.125 7.5 13.9011 7.5 13.625V8.5H2.375C2.09886 8.5 1.875 8.27614 1.875 8C1.875 7.72386 2.09886 7.5 2.375 7.5H7.5V2.375C7.5 2.09886 7.72386 1.875 8 1.875Z" fill="#FAFAFA"/>
<path d="M11.7565 12.5C12.0325 12.5001 12.2565 12.7239 12.2565 13C12.2565 13.2761 12.0325 13.4999 11.7565 13.5H11.75C11.4739 13.5 11.25 13.2761 11.25 13C11.25 12.7239 11.4739 12.5 11.75 12.5H11.7565Z" fill="#FAFAFA"/>
<path d="M5.5 11.25C5.77614 11.25 6 11.4739 6 11.75C6 12.0261 5.77614 12.25 5.5 12.25H3C2.72386 12.25 2.5 12.0261 2.5 11.75C2.5 11.4739 2.72386 11.25 3 11.25H5.5Z" fill="#FAFAFA"/>
<path d="M11.7565 10C12.0325 10.0001 12.2565 10.2239 12.2565 10.5C12.2565 10.7761 12.0325 10.9999 11.7565 11H11.75C11.4739 11 11.25 10.7761 11.25 10.5C11.25 10.2239 11.4739 10 11.75 10H11.7565Z" fill="#FAFAFA"/>
<path d="M4.25 2.5C4.52614 2.5 4.75 2.72386 4.75 3V3.75H5.5C5.77614 3.75 6 3.97386 6 4.25C6 4.52614 5.77614 4.75 5.5 4.75H4.75V5.5C4.75 5.77614 4.52614 6 4.25 6C3.97386 6 3.75 5.77614 3.75 5.5V4.75H3C2.72386 4.75 2.5 4.52614 2.5 4.25C2.5 3.97386 2.72386 3.75 3 3.75H3.75V3C3.75 2.72386 3.97386 2.5 4.25 2.5Z" fill="#FAFAFA"/>
<path d="M12.334 2.95898C12.5292 2.76372 12.8458 2.76372 13.041 2.95898C13.2363 3.15425 13.2363 3.47075 13.041 3.66602L12.457 4.25L13.041 4.83398C13.2363 5.02925 13.2363 5.34575 13.041 5.54102C12.8458 5.73628 12.5292 5.73628 12.334 5.54102L11.75 4.95703L11.166 5.54102C10.9708 5.73628 10.6542 5.73628 10.459 5.54102C10.2637 5.34575 10.2637 5.02925 10.459 4.83398L11.043 4.25L10.459 3.66602C10.2637 3.47075 10.2637 3.15425 10.459 2.95898C10.6542 2.76372 10.9708 2.76372 11.166 2.95898L11.75 3.54297L12.334 2.95898Z" fill="#FAFAFA"/>
</svg>
