<svg width="16" height="16" viewBox="0 0 16 16" fill="none" xmlns="http://www.w3.org/2000/svg">
<path fill-rule="evenodd" clip-rule="evenodd" d="M6.00977 2.00098C6.03661 2.0015 6.06345 2.00301 6.08984 2.00781C6.10015 2.00968 6.11004 2.01314 6.12012 2.01562C6.13959 2.02045 6.15887 2.02602 6.17773 2.0332C6.18732 2.03686 6.19676 2.04071 6.20605 2.04492C6.2118 2.04752 6.21797 2.04991 6.22363 2.05273L10.0576 3.96973L13.8789 3.01465L13.9346 3.00391C14.0666 2.98657 14.2014 3.02353 14.3076 3.10645C14.4288 3.2012 14.5 3.34614 14.5 3.5V12.5C14.5 12.7294 14.3437 12.9297 14.1211 12.9854L10.1211 13.9854C10.1179 13.9861 10.1145 13.9856 10.1113 13.9863C10.0982 13.9893 10.0848 13.9903 10.0713 13.9922C10.052 13.995 10.033 13.9975 10.0137 13.998C10.0091 13.9982 10.0046 14 10 14C9.99211 14 9.98437 13.9974 9.97656 13.9971C9.95852 13.9962 9.94069 13.995 9.92285 13.9922C9.90658 13.9897 9.89072 13.9865 9.875 13.9824C9.86172 13.979 9.84894 13.9743 9.83594 13.9697C9.82033 13.9643 9.8049 13.9591 9.79004 13.9521C9.78576 13.9502 9.7806 13.9494 9.77637 13.9473L5.94141 12.0293L2.12109 12.9854C1.97181 13.0226 1.81367 12.9882 1.69238 12.8936C1.57118 12.7988 1.5 12.6539 1.5 12.5V3.5L1.50684 3.41504C1.53992 3.2225 1.6843 3.0633 1.87891 3.01465L5.87891 2.01465L5.88867 2.0127C5.90114 2.00986 5.91395 2.00872 5.92676 2.00684L5.96582 2.00098C5.97384 2.00043 5.98221 2.00113 5.99023 2.00098C5.99349 2.00091 5.99673 2 6 2C6.00327 2 6.00651 2.00091 6.00977 2.00098ZM10.5 4.88965V12.8584L13.5 12.1094V4.13965L10.5 4.88965ZM6.5 11.1904L9.5 12.6904V4.80859L6.5 3.30859V11.1904ZM2.5 3.88965V11.8594L5.5 11.1094V3.13965L2.5 3.88965Z" fill="#FAFAFA"/>
</svg>
