<svg width="16" height="16" viewBox="0 0 16 16" fill="none" xmlns="http://www.w3.org/2000/svg">
<path fill-rule="evenodd" clip-rule="evenodd" d="M13.0015 3.60105C13.0015 3.04742 12.4716 2.6477 11.9392 2.79977L7.60444 4.03802C7.24667 4.14022 7 4.46722 7 4.8393V12.5002C7 13.7783 5.79148 14.6668 4.5 14.6668C3.20852 14.6668 2 13.7783 2 12.5002C2 11.2221 3.20852 10.3335 4.5 10.3335C5.04243 10.3335 5.57023 10.4903 6 10.7668V4.8393C6 4.02072 6.54267 3.30132 7.32978 3.07648L11.6646 1.83823C12.8357 1.50369 14.0015 2.38306 14.0015 3.60105V10.5002C14.0015 11.7783 12.7929 12.6668 11.5015 12.6668C10.21 12.6668 9.00146 11.7783 9.00146 10.5002C9.00146 9.22207 10.21 8.33351 11.5015 8.33351C12.0439 8.33351 12.5717 8.49026 13.0015 8.76678V3.60105ZM13.0015 10.5002C13.0015 9.93733 12.4191 9.33351 11.5015 9.33351C10.5838 9.33351 10.0015 9.93733 10.0015 10.5002C10.0015 11.063 10.5838 11.6668 11.5015 11.6668C12.4191 11.6668 13.0015 11.063 13.0015 10.5002ZM6 12.5002C6 11.9373 5.41766 11.3335 4.5 11.3335C3.58234 11.3335 3 11.9373 3 12.5002C3 13.063 3.58234 13.6668 4.5 13.6668C5.41766 13.6668 6 13.063 6 12.5002Z" fill="#FAFAFA"/>
</svg>
