<svg width="16" height="16" viewBox="0 0 16 16" fill="none" xmlns="http://www.w3.org/2000/svg">
<path fill-rule="evenodd" clip-rule="evenodd" d="M9.99967 11.5C9.99967 11.7761 10.2235 12 10.4997 12L14.1663 12C14.4425 12 14.6663 11.7761 14.6663 11.5L14.6663 7.83333C14.6663 7.55719 14.4425 7.33333 14.1663 7.33333C13.8902 7.33333 13.6663 7.55719 13.6663 7.83333L13.6663 10.2862L9.96245 6.58765C9.24634 5.87256 8.08625 5.87298 7.37066 6.58858L6.58893 7.3703C6.26349 7.69574 5.73586 7.69574 5.41042 7.3703L2.18656 4.14645C1.9913 3.95118 1.67472 3.95118 1.47945 4.14645C1.28419 4.34171 1.28419 4.65829 1.47945 4.85355L4.70331 8.07741C5.41927 8.79337 6.58007 8.79337 7.29604 8.07741L8.07776 7.29568C8.40303 6.97041 8.93035 6.97022 9.25585 7.29526L12.9659 11L10.4997 11C10.2235 11 9.99967 11.2239 9.99967 11.5Z" fill="#FAFAFA"/>
</svg>
