<svg width="16" height="16" viewBox="0 0 16 16" fill="none" xmlns="http://www.w3.org/2000/svg">
<path d="M11.5003 1.3335C12.5128 1.3335 13.3337 2.15431 13.3337 3.16683V7.55225C13.3337 7.82839 13.1098 8.05225 12.8337 8.05225C12.5575 8.05225 12.3337 7.82839 12.3337 7.55225V3.16683C12.3337 2.70659 11.9606 2.3335 11.5003 2.3335H4.50033C4.04009 2.3335 3.66699 2.70659 3.66699 3.16683V12.8335C3.66699 13.2937 4.04009 13.6668 4.50033 13.6668H6.83366C7.1098 13.6668 7.33366 13.8907 7.33366 14.1668C7.33366 14.443 7.1098 14.6668 6.83366 14.6668H4.50033C3.4878 14.6668 2.66699 13.846 2.66699 12.8335V3.16683C2.66699 2.15431 3.4878 1.3335 4.50033 1.3335H11.5003Z" fill="#FAFAFA"/>
<path fill-rule="evenodd" clip-rule="evenodd" d="M11.516 9.47998C12.0794 8.91657 12.9929 8.91666 13.5563 9.47998C14.1198 10.0434 14.1198 10.9569 13.5563 11.5203L10.9469 14.1297C10.6031 14.4735 10.1369 14.6668 9.65072 14.6668H8.86947C8.5934 14.6667 8.36947 14.4429 8.36947 14.1668V13.3856C8.36955 12.8995 8.56283 12.4331 8.90658 12.0894L11.516 9.47998ZM12.8493 10.187C12.6763 10.0142 12.3959 10.0141 12.223 10.187L9.61361 12.7964C9.4574 12.9526 9.36955 13.1647 9.36947 13.3856V13.6668H9.65072C9.87172 13.6668 10.0836 13.579 10.2399 13.4227L12.8493 10.8133C13.0222 10.6404 13.0222 10.3599 12.8493 10.187Z" fill="#FAFAFA"/>
<path d="M7.50033 6.66683C7.77647 6.66683 8.00033 6.89069 8.00033 7.16683C8.00033 7.44297 7.77647 7.66683 7.50033 7.66683H5.83366C5.55752 7.66683 5.33366 7.44297 5.33366 7.16683C5.33366 6.89069 5.55752 6.66683 5.83366 6.66683H7.50033Z" fill="#FAFAFA"/>
<path d="M10.167 4.00016C10.4431 4.00016 10.667 4.22402 10.667 4.50016C10.667 4.7763 10.4431 5.00016 10.167 5.00016H5.83366C5.55752 5.00016 5.33366 4.7763 5.33366 4.50016C5.33366 4.22402 5.55752 4.00016 5.83366 4.00016H10.167Z" fill="#FAFAFA"/>
</svg>
