<svg width="16" height="16" viewBox="0 0 16 16" fill="none" xmlns="http://www.w3.org/2000/svg">
<path fill-rule="evenodd" clip-rule="evenodd" d="M11.1868 6.92482C11.2896 6.92173 11.3919 6.94332 11.4869 6.98471L11.4875 6.98341C12.3717 7.35943 13.1138 8.00663 13.606 8.83172C14.0957 9.65257 14.312 10.6072 14.2265 11.5589C14.2097 12.3332 13.8956 13.0714 13.3476 13.6195C12.7937 14.1733 12.0455 14.4897 11.2623 14.5003H11.2558C10.4675 14.5003 9.71101 14.1871 9.15355 13.6299C8.6309 13.1073 8.3229 12.4096 8.28637 11.6748L8.28246 11.5277C8.25599 11.0277 8.36913 10.5299 8.61059 10.0908C8.85725 9.64237 9.22724 9.27383 9.67634 9.02833L9.73103 9.00229C9.86233 8.95004 10.0111 8.95535 10.1392 9.01922C10.2857 9.09234 10.3871 9.2329 10.4107 9.39487C10.4277 9.51169 10.4885 9.61797 10.5806 9.69174C10.6027 9.70936 10.6264 9.72477 10.6509 9.73797C10.74 9.50126 10.7912 9.25137 10.7994 8.99708C10.8113 8.62865 10.7352 8.26252 10.5774 7.92937L10.578 7.92872C10.517 7.8022 10.4947 7.6603 10.5155 7.52117L10.5396 7.41505C10.572 7.31197 10.6287 7.21749 10.7043 7.13901L10.7851 7.06674C10.8712 7.0015 10.9722 6.95661 11.0793 6.93654L11.1868 6.92482ZM11.7323 8.2562C11.7842 8.50949 11.8078 8.76875 11.7994 9.02898C11.7824 9.55632 11.6395 10.0723 11.3834 10.5335C11.3019 10.6802 11.1522 10.7764 10.9849 10.7894C10.6144 10.818 10.2466 10.7045 9.95629 10.4723C9.87045 10.4037 9.79398 10.3253 9.72647 10.2406C9.63394 10.3406 9.55324 10.452 9.48689 10.5726C9.33205 10.8542 9.26031 11.1745 9.28116 11.4951C9.28186 11.5059 9.28245 11.5169 9.28246 11.5277C9.28262 12.0507 9.49078 12.5524 9.86059 12.9222C10.2295 13.291 10.7297 13.4985 11.2512 13.4997C11.7731 13.492 12.2714 13.2815 12.6405 12.9124C13.0102 12.5428 13.2214 12.0433 13.2284 11.5205L13.2304 11.4815C13.2999 10.7359 13.1302 9.98717 12.7467 9.34409C12.4883 8.91112 12.1415 8.54126 11.7323 8.2562Z" fill="#FAFAFA"/>
<path fill-rule="evenodd" clip-rule="evenodd" d="M5.4628 1.73992C6.42732 1.43967 7.4576 1.42148 8.4322 1.68719C9.40678 1.95296 10.2855 2.49164 10.9641 3.23992C11.6427 3.98828 12.0934 4.91525 12.2629 5.91115C12.3092 6.18327 12.1262 6.44157 11.8541 6.48797C11.582 6.53428 11.3237 6.35115 11.2773 6.07911C11.1628 5.40659 10.8893 4.77322 10.4836 4.22951L10.3358 4.42937L10.3352 4.42872C10.2298 4.57074 10.1606 4.73651 10.1327 4.91115C10.1118 5.04219 10.1147 5.17572 10.1412 5.30503L10.1757 5.43263L10.3118 5.84214C10.3988 6.10407 10.2572 6.38771 9.99535 6.47495C9.73334 6.56206 9.45034 6.41988 9.36319 6.15789L9.22712 5.74969L9.19066 5.62794C9.11444 5.34338 9.09851 5.04544 9.14509 4.75359C9.19835 4.41999 9.33175 4.10427 9.53311 3.83302L9.78506 3.49253C9.31441 3.10168 8.7639 2.81422 8.16918 2.65203C7.37853 2.43647 6.54281 2.45146 5.76032 2.695C5.53941 2.76377 5.32513 2.8498 5.1197 2.95216L7.06892 3.6924C7.35741 3.80087 7.59758 4.00826 7.7473 4.27768C7.89715 4.54754 7.94605 4.86242 7.88532 5.16505L7.71866 6.00099C7.67045 6.24236 7.55448 6.46539 7.38467 6.64357C7.23598 6.79951 7.05083 6.91554 6.84691 6.98211L6.75837 7.0075L5.89769 7.22234L5.37751 8.52443C5.21983 8.91871 4.94561 9.25622 4.59236 9.49187L4.58715 9.49513L4.02009 9.86232C4.23403 10.0731 4.47024 10.2624 4.72582 10.4255C5.41686 10.8662 6.22002 11.1008 7.03962 11.1006C7.31548 11.1008 7.53941 11.3241 7.53962 11.5999C7.53963 11.876 7.31565 12.1004 7.03962 12.1006C6.0294 12.1009 5.03981 11.8118 4.18806 11.2686C3.33646 10.7254 2.65743 9.95018 2.23168 9.03419C1.80595 8.11813 1.65122 7.09924 1.78506 6.09799C1.919 5.09665 2.33597 4.15391 2.98754 3.38185C3.63913 2.60978 4.49818 2.04023 5.4628 1.73992ZM4.1197 3.64227C3.98967 3.76237 3.86681 3.89083 3.75186 4.02703C3.22329 4.65338 2.88462 5.41781 2.77595 6.23016C2.66732 7.04246 2.79324 7.8691 3.13858 8.61232C3.21332 8.77312 3.29787 8.92844 3.39118 9.07781L4.04288 8.65594C4.22533 8.53266 4.36668 8.35723 4.44848 8.15268L5.06436 6.61427L5.08975 6.56023C5.15626 6.43866 5.27128 6.34885 5.40746 6.31479L6.51618 6.03745L6.55655 6.02443C6.59569 6.00851 6.63133 5.98426 6.66072 5.95346C6.69984 5.91235 6.72709 5.86068 6.73819 5.80503L6.90486 4.96844C6.91871 4.89875 6.90745 4.82548 6.87295 4.76336C6.83835 4.70118 6.78269 4.65293 6.71605 4.62794L6.7141 4.62729L4.1197 3.64227Z" fill="#FAFAFA"/>
</svg>
