<svg width="16" height="16" viewBox="0 0 16 16" fill="none" xmlns="http://www.w3.org/2000/svg">
<path fill-rule="evenodd" clip-rule="evenodd" d="M6.07161 3.34562C6.57145 3.34564 7.05086 3.54427 7.4043 3.8977C7.75766 4.25114 7.95638 4.73059 7.95638 5.23039C7.95632 5.72852 7.75877 6.2061 7.40755 6.55916C7.49254 6.62271 7.57318 6.69289 7.64909 6.7688C8.06728 7.18714 8.30208 7.75474 8.30208 8.34627V9.38468C8.30185 9.66063 8.07808 9.88468 7.80208 9.88468H7.55143L7.25977 12.2161C7.22831 12.4661 7.0157 12.6542 6.76367 12.6542H5.37891C5.127 12.6541 4.91422 12.466 4.88281 12.2161L4.59115 9.88468H4.34049C4.06459 9.88457 3.84073 9.66056 3.84049 9.38468V8.34627C3.84049 7.75473 4.07593 7.18715 4.49414 6.7688C4.56998 6.69296 4.65079 6.62266 4.73568 6.55916C4.38446 6.2061 4.18691 5.72852 4.18685 5.23039C4.18685 4.73057 4.38553 4.25115 4.73893 3.8977C5.09238 3.54425 5.57176 3.34562 6.07161 3.34562ZM6.07161 7.11515C5.74524 7.11521 5.43196 7.24504 5.20117 7.47583C4.9705 7.70664 4.84049 8.01994 4.84049 8.34627V8.88468H5.03255L5.125 8.89315C5.3352 8.93241 5.50192 9.1038 5.5293 9.32283L5.82031 11.6542H6.32227L6.61393 9.32283L6.63346 9.23169C6.69859 9.02825 6.88951 8.88477 7.11003 8.88468H7.30208V8.34627C7.30208 8.01996 7.17271 7.70664 6.94206 7.47583C6.71128 7.24505 6.39798 7.11521 6.07161 7.11515ZM6.07161 4.34562C5.83697 4.34562 5.61188 4.43882 5.44596 4.60474C5.2801 4.77064 5.18685 4.99579 5.18685 5.23039C5.18691 5.46495 5.2801 5.69017 5.44596 5.85604C5.61187 6.02187 5.83704 6.11515 6.07161 6.11515C6.3062 6.11514 6.53137 6.02189 6.69727 5.85604C6.86313 5.69017 6.95632 5.46495 6.95638 5.23039C6.95638 4.99581 6.8631 4.77064 6.69727 4.60474C6.53136 4.43883 6.30623 4.34564 6.07161 4.34562Z" fill="#FAFAFA"/>
<path fill-rule="evenodd" clip-rule="evenodd" d="M12.832 1.33325C13.8446 1.33325 14.6654 2.15406 14.6654 3.16659V12.8333C14.6654 13.8458 13.8446 14.6666 12.832 14.6666H3.16536C2.15284 14.6666 1.33203 13.8458 1.33203 12.8333V3.16659C1.33203 2.15406 2.15284 1.33325 3.16536 1.33325H12.832ZM3.16536 2.33325C2.70513 2.33325 2.33203 2.70635 2.33203 3.16659V12.8333C2.33203 13.2935 2.70513 13.6666 3.16536 13.6666H12.832C13.2923 13.6666 13.6654 13.2935 13.6654 12.8333V3.16659C13.6654 2.70635 13.2923 2.33325 12.832 2.33325H3.16536Z" fill="#FAFAFA"/>
<path d="M10.7426 5.64054L9.78764 6.78652C9.60671 7.00363 9.7611 7.33325 10.0437 7.33325H11.9537C12.2363 7.33325 12.3907 7.00363 12.2098 6.78652L11.2548 5.64054C11.1215 5.48062 10.8759 5.48062 10.7426 5.64054Z" fill="#FAFAFA"/>
<path d="M10.7426 9.8593L9.78764 8.71331C9.60671 8.4962 9.7611 8.16658 10.0437 8.16658H11.9537C12.2363 8.16658 12.3907 8.4962 12.2098 8.71331L11.2548 9.8593C11.1215 10.0192 10.8759 10.0192 10.7426 9.8593Z" fill="#FAFAFA"/>
</svg>
