<svg width="16" height="16" viewBox="0 0 16 16" fill="none" xmlns="http://www.w3.org/2000/svg">
<path fill-rule="evenodd" clip-rule="evenodd" d="M4.5 2.3335C4.40795 2.3335 4.33333 2.40812 4.33333 2.50016V5.3335H11.6667V3.8335C11.6667 3.74145 11.592 3.66683 11.5 3.66683H8.60948C8.30006 3.66683 8.00331 3.54391 7.78452 3.32512L7.03697 2.57757C6.88069 2.42129 6.66873 2.3335 6.44772 2.3335H4.5ZM12.6667 5.33433C12.6667 5.33405 12.6667 5.33378 12.6667 5.3335V3.8335C12.6667 3.18916 12.1443 2.66683 11.5 2.66683H8.60948C8.56527 2.66683 8.52288 2.64927 8.49163 2.61801L7.74408 1.87047C7.40026 1.52665 6.93395 1.3335 6.44772 1.3335H4.5C3.85567 1.3335 3.33333 1.85583 3.33333 2.50016V5.3335C3.33333 5.33379 3.33334 5.33408 3.33334 5.33438C3.24479 5.33553 3.16233 5.33817 3.08809 5.34424C2.946 5.35585 2.79055 5.38242 2.63701 5.46066C2.41749 5.57251 2.23901 5.75099 2.12716 5.97051C2.04893 6.12405 2.02235 6.27949 2.01074 6.42158C1.99998 6.55337 1.99999 6.71103 2 6.88268L2 11.3871C1.99999 11.7432 1.99999 12.0405 2.01983 12.2833C2.04052 12.5365 2.08526 12.7743 2.19982 12.9991C2.37559 13.3441 2.65606 13.6246 3.00102 13.8003C3.22586 13.9149 3.46363 13.9596 3.71689 13.9803C3.95971 14.0002 4.25693 14.0002 4.61303 14.0002H11.3903C11.7464 14.0002 12.0436 14.0002 12.2864 13.9803C12.5397 13.9596 12.7775 13.9149 13.0023 13.8003C13.3473 13.6246 13.6277 13.3441 13.8035 12.9991C13.9181 12.7743 13.9628 12.5365 13.9835 12.2833C14.0033 12.0405 14.0033 11.7432 14.0033 11.3871V6.88268C14.0033 6.71102 14.0034 6.55337 13.9926 6.42158C13.981 6.27949 13.9544 6.12405 13.8762 5.97051C13.7643 5.75099 13.5858 5.57251 13.3663 5.46066C13.2128 5.38242 13.0573 5.35585 12.9152 5.34424C12.8401 5.3381 12.7565 5.33546 12.6667 5.33433ZM3.08725 6.35331C3.08723 6.35331 3.08754 6.35318 3.08824 6.35295L3.08725 6.35331ZM3.08898 6.35271C3.0949 6.35087 3.11698 6.34521 3.16952 6.34092C3.2556 6.33389 3.37173 6.3335 3.56667 6.3335H12.4367C12.6316 6.3335 12.7477 6.33389 12.8338 6.34092C12.8864 6.34521 12.9084 6.35087 12.9144 6.35271C12.9441 6.36839 12.9684 6.39271 12.9841 6.42247C12.986 6.42839 12.9916 6.45047 12.9959 6.50301C13.0029 6.5891 13.0033 6.70523 13.0033 6.90016V11.3668C13.0033 11.7484 13.0029 12.0046 12.9868 12.2018C12.9712 12.3933 12.9433 12.4848 12.9125 12.5452C12.8326 12.702 12.7051 12.8294 12.5483 12.9093C12.488 12.9401 12.3964 12.968 12.205 12.9837C12.0078 12.9998 11.7516 13.0002 11.37 13.0002H4.63333C4.25172 13.0002 3.99557 12.9998 3.79832 12.9837C3.6069 12.968 3.51538 12.9401 3.45501 12.9093C3.29821 12.8294 3.17072 12.702 3.09083 12.5452C3.06007 12.4848 3.03215 12.3933 3.01651 12.2018C3.00039 12.0046 3 11.7484 3 11.3668V6.90016C3 6.70523 3.00039 6.5891 3.00742 6.50301C3.01172 6.45048 3.01738 6.42839 3.01922 6.42247C3.0349 6.39271 3.05922 6.36839 3.08898 6.35271ZM3.01982 6.42075C3.01983 6.42077 3.01971 6.42112 3.01945 6.42176L3.01982 6.42075ZM12.9835 6.42075C12.9835 6.42072 12.9837 6.42103 12.9839 6.42176L12.9835 6.42075ZM12.9161 6.35331C12.916 6.35331 12.9157 6.35319 12.9151 6.35294L12.9161 6.35331ZM4.66667 8.50016C4.66667 8.22402 4.89053 8.00016 5.16667 8.00016H7.83333C8.10948 8.00016 8.33333 8.22402 8.33333 8.50016C8.33333 8.77631 8.10948 9.00016 7.83333 9.00016H5.16667C4.89053 9.00016 4.66667 8.77631 4.66667 8.50016Z" fill="#FAFAFA"/>
</svg>
