<svg width="16" height="16" viewBox="0 0 16 16" fill="none" xmlns="http://www.w3.org/2000/svg">
<path fill-rule="evenodd" clip-rule="evenodd" d="M10.0007 2.4502C10.2768 2.4502 10.5007 2.67405 10.5007 2.9502C10.5005 3.22619 10.2767 3.4502 10.0007 3.4502H8.50065V5.33561H11.3346L11.5059 5.34017C13.2669 5.4293 14.6673 6.88513 14.6673 8.66829C14.6673 10.2883 13.5112 11.6375 11.9792 11.9378V13.0492C11.9792 13.3252 11.7552 13.549 11.4792 13.5492C11.203 13.5492 10.9792 13.3253 10.9792 13.0492V12.001H5.02214V13.0492C5.02214 13.3253 4.79828 13.5492 4.52214 13.5492C4.24599 13.5492 4.02214 13.3253 4.02214 13.0492V11.9378C2.49007 11.6375 1.33398 10.2883 1.33398 8.66829C1.33398 6.88513 2.73443 5.4293 4.49544 5.34017L4.66667 5.33561H7.50065V3.4502H6.00065C5.72462 3.4502 5.50083 3.22619 5.50065 2.9502C5.50065 2.67405 5.72451 2.4502 6.00065 2.4502H10.0007ZM12.5189 9.33887C12.2667 9.55015 11.9864 9.72749 11.6842 9.86165C11.233 10.0619 10.7444 10.165 10.2507 10.165C9.75684 10.165 9.26837 10.0614 8.81706 9.861C8.52228 9.73014 8.24802 9.55953 8.00065 9.35514C7.75335 9.55946 7.47894 9.73082 7.18424 9.86165C6.73302 10.0619 6.2444 10.165 5.75065 10.165C5.2568 10.165 4.76838 10.0614 4.31706 9.861C4.01473 9.72676 3.73407 9.55034 3.48177 9.33887C3.22344 9.53581 2.94264 9.70142 2.64583 9.83366C3.04905 10.5314 3.8029 11.001 4.66667 11.001H11.3346C12.1983 11.001 12.9516 10.5312 13.3548 9.83366C13.0579 9.70152 12.7772 9.53582 12.5189 9.33887ZM4.66667 6.33561C3.37836 6.33561 2.33398 7.37999 2.33398 8.66829C2.33398 8.73674 2.33732 8.80447 2.3431 8.87142C2.64014 8.72637 2.91437 8.5368 3.15365 8.30631C3.25111 8.21246 3.38299 8.16168 3.51823 8.16634C3.65338 8.17109 3.78104 8.23074 3.87174 8.33105C4.10921 8.59366 4.39905 8.80391 4.72266 8.94759C5.04627 9.09124 5.39664 9.16502 5.75065 9.16504C6.10464 9.16502 6.4551 9.09122 6.77865 8.94759L6.89844 8.8903C7.174 8.75026 7.42238 8.5609 7.63021 8.33105L7.66732 8.29394C7.7585 8.21232 7.87706 8.16638 8.00065 8.16634C8.14193 8.16639 8.27699 8.22626 8.37174 8.33105C8.60924 8.59368 8.89904 8.80392 9.22266 8.94759C9.54624 9.09124 9.89667 9.16502 10.2507 9.16504C10.6046 9.16502 10.9551 9.09122 11.2786 8.94759L11.3984 8.8903C11.674 8.75026 11.9224 8.5609 12.1302 8.33105L12.1654 8.29525C12.2525 8.21655 12.3653 8.17042 12.4837 8.16634C12.6189 8.16177 12.7503 8.21248 12.8477 8.30631C13.0868 8.53673 13.3606 8.7264 13.6576 8.87142C13.6633 8.80445 13.6673 8.73676 13.6673 8.66829C13.6673 7.37999 12.6229 6.33561 11.3346 6.33561H4.66667Z" fill="#FAFAFA"/>
</svg>
