<svg width="16" height="16" viewBox="0 0 16 16" fill="none" xmlns="http://www.w3.org/2000/svg">
<path d="M9.69539 0.603425C9.84671 0.487041 10.0545 0.465885 10.2286 0.555248C10.4025 0.644638 10.5064 0.825514 10.5001 1.01619L10.4903 1.09822L9.57364 5.6809L13.1759 7.03181C13.3321 7.09047 13.4489 7.22353 13.4871 7.38598C13.5251 7.5484 13.4791 7.7191 13.3653 7.84105L6.36531 15.3411C6.21279 15.5043 5.97037 15.5466 5.77156 15.4446C5.57285 15.3425 5.46602 15.1207 5.50984 14.9016L6.42586 10.3183L2.8243 8.96801C2.66809 8.90935 2.55123 8.77629 2.5131 8.61384C2.4751 8.45142 2.52102 8.28072 2.63484 8.15876L9.63484 0.658763L9.69539 0.603425ZM3.87508 8.29418L7.17586 9.53181C7.40525 9.61795 7.53837 9.85792 7.49031 10.0982L6.83536 13.3723L12.1244 7.70499L8.8243 6.46801C8.5949 6.38187 8.46178 6.1419 8.50984 5.9016L9.16414 2.62686L3.87508 8.29418Z" fill="#FAFAFA"/>
</svg>
