<svg width="16" height="16" viewBox="0 0 16 16" fill="none" xmlns="http://www.w3.org/2000/svg">
<path fill-rule="evenodd" clip-rule="evenodd" d="M7.222 5.84733C7.25336 5.85117 7.28359 5.8624 7.3099 5.87988C7.33626 5.89746 7.35805 5.92135 7.3737 5.94889C7.38935 5.97644 7.39879 6.0071 7.40039 6.03874C7.42356 6.46318 7.55125 6.82456 7.81706 7.10254C7.87675 7.07989 7.93951 7.06626 8.00325 7.06283C8.03809 6.73391 8.17044 6.41289 8.39453 6.1084C8.47485 5.999 8.59096 5.92114 8.72266 5.88835C8.85438 5.85555 8.99363 5.86971 9.11588 5.92871C9.47174 6.10093 9.71962 6.38164 9.85937 6.77051C9.87004 6.80027 9.87361 6.83222 9.86979 6.86361C9.86595 6.89496 9.85472 6.92519 9.83724 6.9515C9.81967 6.97786 9.79577 6.99965 9.76823 7.0153C9.74068 7.03095 9.71002 7.04039 9.67838 7.04199C9.25394 7.06517 8.89256 7.19285 8.61458 7.45866C8.63723 7.51835 8.65086 7.58111 8.6543 7.64486C8.98329 7.67998 9.30456 7.812 9.60872 8.03613C9.71812 8.11645 9.79598 8.23256 9.82878 8.36426C9.86157 8.49598 9.84741 8.63523 9.78841 8.75749C9.61619 9.11334 9.33548 9.36122 8.94661 9.50098C8.91685 9.51165 8.8849 9.51521 8.85352 9.51139C8.82216 9.50755 8.79193 9.49632 8.76562 9.47884C8.73926 9.46127 8.71747 9.43738 8.70182 9.40983C8.68617 9.38229 8.67673 9.35163 8.67513 9.31999C8.65196 8.89555 8.52427 8.53416 8.25846 8.25619C8.19877 8.27883 8.13601 8.29246 8.07227 8.2959C8.03743 8.62481 7.90508 8.94583 7.68099 9.25033C7.60067 9.35973 7.48456 9.43758 7.35286 9.47038C7.22114 9.50317 7.08189 9.48901 6.95964 9.43001C6.60378 9.25779 6.3559 8.97708 6.21615 8.58822C6.20548 8.55845 6.20191 8.5265 6.20573 8.49512C6.20957 8.46377 6.2208 8.43353 6.23828 8.40723C6.25585 8.38087 6.27975 8.35908 6.30729 8.34342C6.33483 8.32778 6.3655 8.31834 6.39714 8.31673C6.82158 8.29356 7.18296 8.16588 7.46094 7.90007C7.43829 7.84037 7.42466 7.77762 7.42122 7.71387C7.09223 7.67874 6.77097 7.54672 6.4668 7.32259C6.3574 7.24227 6.27954 7.12616 6.24674 6.99447C6.21395 6.86274 6.22811 6.72349 6.28711 6.60124C6.45933 6.24539 6.74005 5.99751 7.12891 5.85775C7.15867 5.84708 7.19062 5.84351 7.222 5.84733ZM7.97917 7.38509C7.92097 7.39668 7.86748 7.42517 7.82552 7.46712C7.76932 7.52345 7.73763 7.5998 7.73763 7.67936C7.73763 7.75893 7.76932 7.83527 7.82552 7.8916C7.86748 7.93356 7.92097 7.96205 7.97917 7.97363C8.03729 7.9852 8.09757 7.97933 8.15234 7.95671C8.20717 7.934 8.25413 7.89536 8.28711 7.84603C8.32009 7.79668 8.33789 7.73872 8.33789 7.67936C8.33789 7.62001 8.32009 7.56205 8.28711 7.5127C8.25413 7.46336 8.20717 7.42473 8.15234 7.40202C8.09757 7.37939 8.03729 7.37353 7.97917 7.38509Z" fill="#FAFAFA"/>
<path fill-rule="evenodd" clip-rule="evenodd" d="M8.19661 3.87728C10.2086 3.97911 11.8086 5.64274 11.8086 7.68001L11.8034 7.87533C11.7014 9.88703 10.0383 11.4871 8.0013 11.4873L7.80534 11.4821C5.85835 11.3835 4.29727 9.82229 4.19857 7.87533L4.19336 7.68001C4.19336 5.57718 5.89849 3.87216 8.0013 3.87207L8.19661 3.87728ZM8.0013 4.87207C6.45078 4.87216 5.19336 6.12947 5.19336 7.68001C5.19371 9.23026 6.45099 10.4872 8.0013 10.4873C9.55154 10.4871 10.8082 9.23021 10.8086 7.68001C10.8086 6.12952 9.55176 4.87225 8.0013 4.87207Z" fill="#FAFAFA"/>
<path fill-rule="evenodd" clip-rule="evenodd" d="M10.7559 1.84408C12.1648 1.91556 13.2852 3.0808 13.2852 4.50749V13.6351H13.6673L13.7187 13.6377C13.9707 13.6634 14.1673 13.8763 14.1673 14.1351C14.1673 14.3939 13.9707 14.6067 13.7187 14.6325L13.6673 14.6351H13.2852V14.6377H2.71615V14.6351H2.33398C2.05784 14.6351 1.83398 14.4112 1.83398 14.1351C1.83398 13.8589 2.05784 13.6351 2.33398 13.6351H2.71615V4.50749C2.71615 3.03473 3.91005 1.84082 5.38281 1.84082H10.6185L10.7559 1.84408ZM5.38281 2.84082C4.46234 2.84082 3.71615 3.58701 3.71615 4.50749V13.6351H12.2852V4.50749C12.2852 3.58701 11.539 2.84082 10.6185 2.84082H5.38281Z" fill="#FAFAFA"/>
</svg>
