<svg width="16" height="16" viewBox="0 0 16 16" fill="none" xmlns="http://www.w3.org/2000/svg">
<path fill-rule="evenodd" clip-rule="evenodd" d="M10.0765 1.33366C10.0847 1.33379 10.093 1.33336 10.1012 1.33366C10.2556 1.33919 10.4089 1.37261 10.5537 1.43327L13.8428 2.81087C14.0908 2.91478 14.2996 3.09322 14.445 3.31803C14.545 3.47282 14.6114 3.64599 14.6436 3.82585C14.657 3.871 14.6663 3.91826 14.6663 3.96777V14.1676C14.6663 14.4437 14.4425 14.6676 14.1663 14.6676C13.8902 14.6676 13.6664 14.4437 13.6663 14.1676V13.2471C13.5779 13.2383 13.4909 13.2185 13.4085 13.1839L10.555 11.9893V12.8291C10.555 13.1052 10.3312 13.3291 10.055 13.3291C9.77898 13.329 9.55501 13.1052 9.55501 12.8291V11.9899L6.44434 13.2933V14.1683C6.44424 14.4443 6.22033 14.6682 5.94434 14.6683C5.66826 14.6683 5.44444 14.4444 5.44434 14.1683V13.2939L2.33301 11.9906V12.833C2.33301 13.1091 2.10915 13.333 1.83301 13.333C1.55687 13.333 1.33301 13.1091 1.33301 12.833V2.40462C1.33274 2.25719 1.36674 2.11078 1.43327 1.97819L1.48926 1.88118C1.55112 1.7878 1.63029 1.70569 1.72298 1.63965C1.84664 1.55159 1.99113 1.49551 2.14356 1.47819L2.25749 1.47233C2.37176 1.47404 2.48507 1.49761 2.59082 1.54199L2.59017 1.54264L5.83171 2.90007C5.86531 2.91414 5.90024 2.9217 5.93457 2.92285C5.97517 2.9242 6.0166 2.9167 6.05632 2.90007L9.55697 1.43327C9.70149 1.37278 9.85432 1.34064 10.0081 1.33496C10.0236 1.33352 10.0392 1.33302 10.055 1.33301C10.0621 1.33301 10.0695 1.33336 10.0765 1.33366ZM6.44434 3.82129V12.21L9.55501 10.9066V2.5179L6.44434 3.82129ZM10.5837 10.9176L13.6663 12.2074V4.07194C13.6663 3.99475 13.6442 3.92074 13.6051 3.86035C13.5662 3.80028 13.5131 3.75728 13.4561 3.7334L10.5837 2.52962V10.9176ZM2.33301 10.6559C2.333 10.7331 2.35521 10.8071 2.39421 10.8675C2.43311 10.9277 2.48622 10.9705 2.5433 10.9945L5.4183 12.1982V3.81087L2.33301 2.5179V10.6559Z" fill="#FAFAFA"/>
</svg>
