<svg width="16" height="16" viewBox="0 0 16 16" fill="none" xmlns="http://www.w3.org/2000/svg">
<path fill-rule="evenodd" clip-rule="evenodd" d="M8.00065 2.33325C4.87104 2.33325 2.33398 4.8703 2.33398 7.99992C2.33398 11.1295 4.87104 13.6666 8.00065 13.6666C11.1303 13.6666 13.6673 11.1295 13.6673 7.99992C13.6673 4.8703 11.1303 2.33325 8.00065 2.33325ZM1.33398 7.99992C1.33398 4.31802 4.31875 1.33325 8.00065 1.33325C11.6825 1.33325 14.6673 4.31802 14.6673 7.99992C14.6673 11.6818 11.6825 14.6666 8.00065 14.6666C4.31875 14.6666 1.33398 11.6818 1.33398 7.99992ZM8.00065 3.33325C8.27679 3.33325 8.50065 3.55711 8.50065 3.83325V4.54858C9.13953 4.67701 9.63795 5.05123 9.92392 5.56457C10.0583 5.8058 9.9717 6.11031 9.73046 6.2447C9.48923 6.37909 9.18473 6.29247 9.05034 6.05124C8.8795 5.74457 8.53654 5.5 8.00065 5.5C7.5783 5.5 7.28851 5.59695 7.11477 5.73392C6.95943 5.85639 6.84273 6.05235 6.84273 6.40047C6.84273 6.78792 6.97669 6.97223 7.1631 7.10951C7.38316 7.27159 7.68017 7.37198 8.07848 7.50662C8.10558 7.51578 8.13314 7.5251 8.16118 7.5346C8.19663 7.54662 8.23327 7.55887 8.2709 7.57145C8.62961 7.69139 9.07778 7.84125 9.43122 8.10156C9.87037 8.42499 10.1586 8.90661 10.1586 9.6158C10.1586 10.2249 9.93496 10.7292 9.50566 11.0676C9.22004 11.2928 8.87245 11.4217 8.50065 11.4794V12.1666C8.50065 12.4427 8.27679 12.6666 8.00065 12.6666C7.72451 12.6666 7.50065 12.4427 7.50065 12.1666V11.4677C6.86177 11.3393 6.36336 10.965 6.07738 10.4517C5.94299 10.2105 6.0296 9.90595 6.27084 9.77156C6.51207 9.63718 6.81658 9.72379 6.95097 9.96502C7.12181 10.2717 7.46476 10.5163 8.00065 10.5163C8.42301 10.5163 8.7128 10.4193 8.88654 10.2823C9.04187 10.1599 9.15857 9.96391 9.15857 9.6158C9.15857 9.22834 9.02461 9.04403 8.83821 8.90675C8.61814 8.74467 8.32114 8.64428 7.92282 8.50964C7.89572 8.50048 7.86816 8.49117 7.84013 8.48166C7.80468 8.46964 7.76803 8.45739 7.7304 8.44481C7.3717 8.32487 6.92353 8.17501 6.57008 7.9147C6.13093 7.59127 5.84273 7.10965 5.84273 6.40047C5.84273 5.79135 6.06634 5.28709 6.49564 4.94863C6.78126 4.72345 7.12886 4.59455 7.50065 4.53688V3.83325C7.50065 3.55711 7.72451 3.33325 8.00065 3.33325Z" fill="#FAFAFA"/>
</svg>
