<svg width="16" height="16" viewBox="0 0 16 16" fill="none" xmlns="http://www.w3.org/2000/svg">
<path d="M12.3327 3.85164C12.3326 3.73058 12.3055 3.70612 12.3158 3.72144C12.3217 3.73031 12.3223 3.72375 12.293 3.70907C12.2595 3.69236 12.2136 3.67956 12.168 3.67196C12.1477 3.66858 12.1328 3.66716 12.127 3.66675H3.85091C3.72985 3.66679 3.70539 3.69389 3.7207 3.68368C3.72957 3.67771 3.72302 3.67709 3.70833 3.70646C3.69162 3.73989 3.67882 3.78586 3.67122 3.83146C3.66785 3.85177 3.66643 3.86668 3.66602 3.87248V12.1485C3.66606 12.2696 3.69315 12.294 3.68294 12.2787C3.67698 12.2699 3.67636 12.2764 3.70573 12.2911C3.73916 12.3078 3.78512 12.3206 3.83073 12.3282C3.85104 12.3316 3.86595 12.333 3.87174 12.3334H12.1478V13.3334H3.85091L3.80013 13.3308C3.58112 13.3151 2.72982 13.1942 2.66927 12.2559L2.66602 12.1485V3.85164C2.66611 3.83125 2.67607 2.73889 3.74349 2.67L3.85091 2.66675H12.1478C12.1688 2.66684 13.3325 2.67747 13.3327 3.85164V12.1485C13.3326 12.1689 13.3226 13.2613 12.2552 13.3302L12.1478 13.3334V12.3334C12.2688 12.3334 12.2933 12.3063 12.278 12.3165C12.2691 12.3225 12.2757 12.3231 12.2904 12.2937C12.3071 12.2603 12.3199 12.2143 12.3275 12.1687C12.3308 12.1484 12.3323 12.1335 12.3327 12.1277V3.85164Z" fill="#FAFAFA"/>
<path d="M4.52156 4.52156C4.70463 4.33849 4.99445 4.32685 5.19083 4.48706L5.22859 4.52156L6.47859 5.77156L6.5131 5.80932C6.67331 6.00571 6.66166 6.29552 6.47859 6.47859L5.22859 7.72859C5.03333 7.92386 4.71682 7.92386 4.52156 7.72859C4.3263 7.53333 4.3263 7.21682 4.52156 7.02156L5.41805 6.12508L4.52156 5.22859L4.48706 5.19083C4.32685 4.99445 4.33849 4.70463 4.52156 4.52156Z" fill="#FAFAFA"/>
<path d="M9.875 8.125C10.1511 8.125 10.375 8.34886 10.375 8.625C10.375 8.90114 10.1511 9.125 9.875 9.125H7.375C7.09886 9.125 6.875 8.90114 6.875 8.625C6.875 8.34886 7.09886 8.125 7.375 8.125H9.875Z" fill="#FAFAFA"/>
</svg>
