<svg width="16" height="16" viewBox="0 0 16 16" fill="none" xmlns="http://www.w3.org/2000/svg">
<path fill-rule="evenodd" clip-rule="evenodd" d="M9.83398 0.833252C10.3202 0.833252 10.7864 1.02654 11.1302 1.37036C11.474 1.71418 11.6673 2.18036 11.6673 2.66659C11.6673 3.07536 11.5291 3.46869 11.2812 3.78833L12.8001 6.20369C12.9201 6.17916 13.043 6.16659 13.1673 6.16659C13.6535 6.16659 14.1197 6.35988 14.4635 6.70369C14.8074 7.04751 15.0007 7.51369 15.0007 7.99992C15.0007 8.48615 14.8074 8.95233 14.4635 9.29614C14.1197 9.63996 13.6535 9.83325 13.1673 9.83325C12.6811 9.83325 12.2149 9.63996 11.8711 9.29614C11.5273 8.95233 11.334 8.48615 11.334 7.99992C11.334 7.51369 11.5273 7.04751 11.8711 6.70369C11.8837 6.69108 11.8972 6.67944 11.9102 6.66724L10.4733 4.38208C10.2704 4.45774 10.0547 4.49992 9.83398 4.49992C9.60717 4.49992 9.38544 4.456 9.17773 4.37622L7.75521 6.66593C7.76884 6.67876 7.7836 6.69042 7.79688 6.70369C8.14069 7.04751 8.33398 7.51369 8.33398 7.99992C8.33398 8.33715 8.23875 8.66338 8.06706 8.94718L9.44466 10.8762C9.57167 10.8486 9.70197 10.8333 9.83398 10.8333C10.3202 10.8333 10.7864 11.0265 11.1302 11.3704C11.474 11.7142 11.6673 12.1804 11.6673 12.6666C11.6673 13.1528 11.474 13.619 11.1302 13.9628C10.7864 14.3066 10.3202 14.4999 9.83398 14.4999C9.34775 14.4999 8.88158 14.3066 8.53776 13.9628C8.19394 13.619 8.00065 13.1528 8.00065 12.6666C8.00065 12.1804 8.19394 11.7142 8.53776 11.3704C8.54384 11.3643 8.55048 11.3588 8.55664 11.3528L7.32812 9.63338C7.0737 9.76233 6.79124 9.83325 6.50065 9.83325C6.27244 9.83325 6.04929 9.78899 5.8405 9.70825L4.61523 11.5461C4.8625 11.8656 5.00065 12.2583 5.00065 12.6666C5.00065 13.1528 4.80736 13.619 4.46354 13.9628C4.11973 14.3066 3.65355 14.4999 3.16732 14.4999C2.68109 14.4999 2.21491 14.3066 1.87109 13.9628C1.52728 13.619 1.33398 13.1528 1.33398 12.6666C1.33398 12.1804 1.52728 11.7142 1.87109 11.3704C2.21491 11.0265 2.68109 10.8333 3.16732 10.8333C3.38908 10.8333 3.60619 10.8747 3.8099 10.9511L5.04102 9.10539C4.80108 8.78867 4.66732 8.40179 4.66732 7.99992C4.66732 7.51369 4.86061 7.04751 5.20443 6.70369C5.54824 6.35988 6.01442 6.16659 6.50065 6.16659C6.62427 6.16659 6.74654 6.17941 6.86589 6.20369L8.37565 3.77336C8.13501 3.45638 8.00065 3.06908 8.00065 2.66659C8.00065 2.18036 8.19394 1.71418 8.53776 1.37036C8.88158 1.02654 9.34775 0.833252 9.83398 0.833252ZM3.16732 11.8333C2.9463 11.8333 2.73441 11.9211 2.57812 12.0774C2.42184 12.2337 2.33398 12.4456 2.33398 12.6666C2.33398 12.8876 2.42184 13.0995 2.57812 13.2558C2.73441 13.4121 2.9463 13.4999 3.16732 13.4999C3.38833 13.4999 3.60023 13.4121 3.75651 13.2558C3.91279 13.0995 4.00065 12.8876 4.00065 12.6666C4.00065 12.4456 3.91279 12.2337 3.75651 12.0774C3.60023 11.9211 3.38833 11.8333 3.16732 11.8333ZM9.83398 11.8333C9.61297 11.8333 9.40107 11.9211 9.24479 12.0774C9.08851 12.2337 9.00065 12.4456 9.00065 12.6666C9.00065 12.8876 9.08851 13.0995 9.24479 13.2558C9.40107 13.4121 9.61297 13.4999 9.83398 13.4999C10.055 13.4999 10.2669 13.4121 10.4232 13.2558C10.5795 13.0995 10.6673 12.8876 10.6673 12.6666C10.6673 12.4456 10.5795 12.2337 10.4232 12.0774C10.2669 11.9211 10.055 11.8333 9.83398 11.8333ZM6.50065 7.16659C6.27964 7.16659 6.06774 7.25445 5.91146 7.41073C5.75518 7.56701 5.66732 7.7789 5.66732 7.99992C5.66732 8.22093 5.75518 8.43283 5.91146 8.58911C6.06774 8.74539 6.27964 8.83325 6.50065 8.83325C6.72167 8.83325 6.93356 8.74539 7.08984 8.58911C7.24612 8.43283 7.33398 8.22093 7.33398 7.99992C7.33398 7.7789 7.24612 7.56701 7.08984 7.41073C6.93356 7.25445 6.72167 7.16659 6.50065 7.16659ZM13.1673 7.16659C12.9463 7.16659 12.7344 7.25445 12.5781 7.41073C12.4218 7.56701 12.334 7.77891 12.334 7.99992C12.334 8.22093 12.4218 8.43283 12.5781 8.58911C12.7344 8.74539 12.9463 8.83325 13.1673 8.83325C13.3883 8.83325 13.6002 8.74539 13.7565 8.58911C13.9128 8.43283 14.0007 8.22093 14.0007 7.99992C14.0007 7.77891 13.9128 7.56701 13.7565 7.41073C13.6002 7.25445 13.3883 7.16659 13.1673 7.16659ZM9.83398 1.83325C9.61297 1.83325 9.40107 1.92111 9.24479 2.07739C9.08851 2.23367 9.00065 2.44557 9.00065 2.66659C9.00065 2.8876 9.08851 3.0995 9.24479 3.25578C9.40107 3.41206 9.61297 3.49992 9.83398 3.49992C10.055 3.49992 10.2669 3.41206 10.4232 3.25578C10.5795 3.0995 10.6673 2.8876 10.6673 2.66659C10.6673 2.44557 10.5795 2.23367 10.4232 2.07739C10.2669 1.92111 10.055 1.83325 9.83398 1.83325Z" fill="#FAFAFA"/>
</svg>
