<svg width="16" height="16" viewBox="0 0 16 16" fill="none" xmlns="http://www.w3.org/2000/svg">
<path fill-rule="evenodd" clip-rule="evenodd" d="M12.0202 6.47461C12.1564 6.31604 12.3769 6.25891 12.5729 6.33138C12.769 6.40404 12.8997 6.59098 12.8997 6.80013V9.5H13.8021C13.9018 9.50051 13.9999 9.52266 14.0898 9.5638L14.1771 9.61133L14.2565 9.67057C14.3315 9.73538 14.3923 9.81561 14.4342 9.90625C14.4901 10.0271 14.5105 10.1617 14.4928 10.2936C14.4752 10.4255 14.4203 10.5499 14.3346 10.6517L14.3314 10.6556L11.179 14.3262C11.0428 14.4847 10.8217 14.5414 10.6257 14.4687C10.4298 14.396 10.2995 14.209 10.2995 14V11.3001H9.39714C9.26408 11.2995 9.13343 11.2607 9.02148 11.1888C8.90971 11.1169 8.82083 11.0145 8.76497 10.8939C8.70909 10.7731 8.68813 10.6384 8.70573 10.5065L8.72591 10.4095C8.75278 10.3142 8.80039 10.2248 8.86458 10.1484L8.86784 10.1445L12.0202 6.47461ZM10.0521 10.3001H10.7995C11.0756 10.3001 11.2995 10.524 11.2995 10.8001V12.6504L13.1465 10.5H12.3997C12.1238 10.4999 11.8998 10.276 11.8997 10V8.14844L10.0521 10.3001Z" fill="#FAFAFA"/>
<path d="M2.98438 9.88411C3.23259 9.76324 3.5314 9.86639 3.65234 10.1146C4.43729 11.7253 6.08987 12.8332 8 12.8333C8.31028 12.8333 8.61363 12.8043 8.9069 12.7487C9.17817 12.6973 9.44005 12.8752 9.49154 13.1465C9.54299 13.4178 9.36441 13.6797 9.0931 13.7311C8.73874 13.7983 8.37308 13.8333 8 13.8333C5.69295 13.8332 3.69996 12.4935 2.75391 10.5521C2.63304 10.3039 2.73618 10.0051 2.98438 9.88411Z" fill="#FAFAFA"/>
<path d="M3.60026 5.89974C3.87632 5.89974 4.10013 6.12371 4.10026 6.39974C4.10026 6.47925 4.13197 6.55573 4.18815 6.61198C4.24441 6.6682 4.32086 6.69987 4.40039 6.69987C4.67639 6.69994 4.90026 6.92388 4.90039 7.19987C4.90032 7.47591 4.67643 7.6998 4.40039 7.69987C4.05564 7.69987 3.72491 7.56277 3.48112 7.31901C3.2374 7.07522 3.10026 6.74446 3.10026 6.39974C3.10039 6.12371 3.3242 5.89974 3.60026 5.89974Z" fill="#FAFAFA"/>
<path fill-rule="evenodd" clip-rule="evenodd" d="M4.39974 1.5C4.55483 1.5 4.67816 1.56186 4.74089 1.59766C4.81479 1.63985 4.88344 1.69214 4.94336 1.74349C5.06434 1.84718 5.19424 1.98525 5.32487 2.13932C5.58838 2.45013 5.89078 2.87177 6.17643 3.33919C6.46235 3.80706 6.73929 4.33285 6.94596 4.85286C7.14955 5.36511 7.30008 5.9082 7.30013 6.39974C7.30013 7.16887 6.99438 7.90666 6.45052 8.45052C5.90667 8.99438 5.16887 9.30013 4.39974 9.30013C3.63074 9.30006 2.8934 8.99427 2.34961 8.45052C1.80575 7.90666 1.5 7.16887 1.5 6.39974C1.50005 5.90818 1.65058 5.36513 1.85417 4.85286C2.06083 4.33288 2.33715 3.80704 2.62305 3.33919C2.90866 2.87182 3.21111 2.45015 3.47461 2.13932C3.60525 1.98524 3.73579 1.84719 3.85677 1.74349C3.9167 1.69214 3.98533 1.63985 4.05924 1.59766C4.12193 1.56188 4.24478 1.50007 4.39974 1.5ZM4.23763 2.78581C4.01367 3.04996 3.74088 3.42816 3.47656 3.86068C3.2125 4.29279 2.96403 4.76704 2.7832 5.222C2.59938 5.68452 2.50006 6.0914 2.5 6.39974C2.5 6.90365 2.70032 7.38717 3.05664 7.74349C3.41289 8.09971 3.89595 8.30006 4.39974 8.30013C4.90365 8.30013 5.38717 8.09981 5.74349 7.74349C6.09981 7.38717 6.30013 6.90365 6.30013 6.39974C6.30007 6.0914 6.20075 5.68452 6.01693 5.222C5.83611 4.76704 5.58763 4.29279 5.32357 3.86068C5.05927 3.42818 4.78645 3.04996 4.5625 2.78581C4.50205 2.7145 4.44715 2.65499 4.39974 2.60612C4.35239 2.65494 4.29797 2.71464 4.23763 2.78581Z" fill="#FAFAFA"/>
<path d="M7.99935 2.16667C9.952 2.16673 11.6803 3.12678 12.7383 4.59831C12.8995 4.82252 12.8486 5.13503 12.6243 5.29622C12.4002 5.45736 12.0876 5.40639 11.9264 5.18229C11.0483 3.96083 9.61657 3.16673 7.99935 3.16667C7.8481 3.16667 7.69824 3.17331 7.55078 3.18685C7.27586 3.21203 7.03244 3.00994 7.00716 2.73503C6.98191 2.46004 7.18465 2.21666 7.45964 2.19141C7.63741 2.17509 7.81757 2.16667 7.99935 2.16667Z" fill="#FAFAFA"/>
</svg>
