<svg width="16" height="16" viewBox="0 0 16 16" fill="none" xmlns="http://www.w3.org/2000/svg">
<path d="M7.70898 12.0911C7.75668 12.0996 7.80097 12.122 7.83594 12.1556C7.87091 12.1892 7.89516 12.2325 7.9056 12.2799C7.916 12.3273 7.91214 12.3767 7.89453 12.4218C7.87691 12.467 7.84633 12.506 7.80664 12.5338C7.76683 12.5616 7.71912 12.5771 7.67057 12.5781C7.62221 12.579 7.57465 12.5657 7.53385 12.5397C7.49294 12.5135 7.46026 12.4754 7.44075 12.431C7.41484 12.3714 7.41329 12.3039 7.43685 12.2435C7.46049 12.1829 7.50756 12.1343 7.56706 12.108C7.61153 12.0885 7.66117 12.0826 7.70898 12.0911Z" fill="#FAFAFA"/>
<path fill-rule="evenodd" clip-rule="evenodd" d="M7.66602 9.83264C9.04673 9.83264 10.166 10.9519 10.166 12.3326C10.166 13.7133 9.04671 14.8326 7.66602 14.8326C6.28532 14.8326 5.16604 13.7133 5.16602 12.3326C5.16602 10.9519 6.2853 9.83264 7.66602 9.83264ZM7.51497 10.6738C7.17704 10.6646 6.88946 10.7702 6.65234 10.9902C6.57101 11.0658 6.51874 11.1678 6.50456 11.278C6.4904 11.3881 6.51536 11.5 6.57487 11.5937C6.74 11.8549 6.94532 12.0512 7.18555 12.1757C7.16924 12.2253 7.16064 12.2772 7.16016 12.3294C6.86934 12.4492 6.55616 12.4392 6.22591 12.3307C6.20132 12.3225 6.17474 12.3198 6.14909 12.3235C6.12351 12.3273 6.09931 12.3374 6.07812 12.3522C6.0569 12.367 6.03898 12.3867 6.02669 12.4095C6.01448 12.4322 6.00788 12.4579 6.00716 12.4837C5.99806 12.8216 6.10359 13.1092 6.32357 13.3463C6.39919 13.4276 6.50123 13.4799 6.61133 13.4941C6.72134 13.5082 6.83277 13.4832 6.92643 13.4238C7.18783 13.2584 7.38407 13.0528 7.50846 12.8125C7.55819 12.8289 7.61039 12.8374 7.66276 12.8379C7.78265 13.1288 7.77201 13.4424 7.66341 13.7727C7.65528 13.7972 7.65322 13.8234 7.6569 13.8489C7.66063 13.8745 7.67008 13.8993 7.6849 13.9205C7.69969 13.9417 7.71951 13.959 7.74219 13.9713C7.76495 13.9836 7.79057 13.9907 7.81641 13.9915C8.15428 14.0007 8.44195 13.895 8.67904 13.6751C8.76037 13.5995 8.81263 13.4975 8.82682 13.3873C8.84099 13.2772 8.81667 13.1653 8.75716 13.0716C8.59199 12.8103 8.38615 12.6142 8.14583 12.4895C8.16215 12.44 8.17073 12.3881 8.17122 12.3359C8.46216 12.216 8.77572 12.226 9.10612 12.3346C9.13065 12.3427 9.15672 12.3455 9.18229 12.3418C9.20793 12.338 9.23267 12.328 9.25391 12.3131C9.27502 12.2983 9.29245 12.2785 9.30469 12.2558C9.31693 12.233 9.32349 12.2075 9.32422 12.1816C9.33333 11.8437 9.22779 11.5561 9.00781 11.319C8.93223 11.2378 8.83072 11.1854 8.7207 11.1712C8.61054 11.157 8.49872 11.182 8.40495 11.2415C8.14356 11.4069 7.9473 11.6125 7.82292 11.8528C7.7733 11.8365 7.72151 11.8279 7.66927 11.8274C7.54937 11.5365 7.55938 11.2229 7.66797 10.8925C7.67613 10.868 7.67816 10.8419 7.67448 10.8164C7.67075 10.7907 7.66133 10.766 7.64648 10.7448C7.63166 10.7236 7.61194 10.7063 7.58919 10.694C7.56638 10.6817 7.54088 10.6745 7.51497 10.6738Z" fill="#FAFAFA"/>
<path fill-rule="evenodd" clip-rule="evenodd" d="M12.6458 2.31246C12.8411 2.1172 13.1576 2.1172 13.3529 2.31246L14.6862 3.6458C14.8814 3.84106 14.8814 4.15758 14.6862 4.35283L13.3529 5.68616C13.1576 5.88135 12.8411 5.88135 12.6458 5.68616C12.4506 5.49092 12.4506 5.1744 12.6458 4.97913L13.1257 4.49931H12.4661C12.0059 4.49931 11.6328 4.87241 11.6328 5.33264V6.16598H12.3327C13.3452 6.16598 14.166 6.98679 14.166 7.99931V10.7324C14.166 11.7449 13.3452 12.5657 12.3327 12.5657H11.3327C11.0566 12.5657 10.8327 12.3418 10.8327 12.0657C10.8328 11.7897 11.0566 11.5657 11.3327 11.5657H12.3327C12.7929 11.5657 13.166 11.1926 13.166 10.7324V7.99931C13.166 7.53907 12.7929 7.16598 12.3327 7.16598H11.6328V8.16598C11.6328 9.0864 10.8866 9.83264 9.96615 9.83264C9.04571 9.83264 8.29954 9.0864 8.29948 8.16598V7.16598H6.96615V8.16598C6.96608 9.0864 6.21992 9.83264 5.29948 9.83264C4.37904 9.83264 3.63287 9.0864 3.63281 8.16598V7.16598H2.99935C2.53911 7.16598 2.16602 7.53907 2.16602 7.99931V10.7324C2.16608 11.1926 2.53915 11.5657 2.99935 11.5657H3.99935C4.2754 11.5657 4.49921 11.7897 4.49935 12.0657C4.49929 12.3418 4.27545 12.5657 3.99935 12.5657H2.99935C1.98686 12.5657 1.16608 11.7449 1.16602 10.7324V7.99931C1.16602 6.98679 1.98683 6.16598 2.99935 6.16598H3.63281V3.99931C3.63281 3.72317 3.85667 3.49931 4.13281 3.49931C4.40895 3.49931 4.63281 3.72317 4.63281 3.99931V6.16598H5.96615V5.16598C5.96615 4.2455 6.71234 3.49931 7.63281 3.49931C8.55329 3.49931 9.29948 4.2455 9.29948 5.16598V6.16598H10.6328V5.33264C10.6328 4.32012 11.4536 3.49931 12.4661 3.49931H13.1257L12.6458 3.01949C12.4506 2.82425 12.4506 2.50773 12.6458 2.31246ZM4.63281 8.16598C4.63287 8.53412 4.93133 8.83264 5.29948 8.83264C5.66763 8.83264 5.96608 8.53412 5.96615 8.16598V7.16598H4.63281V8.16598ZM9.29948 8.16598C9.29954 8.53412 9.59799 8.83264 9.96615 8.83264C10.3343 8.83264 10.6328 8.53412 10.6328 8.16598V7.16598H9.29948V8.16598ZM7.63281 4.49931C7.26462 4.49931 6.96615 4.79779 6.96615 5.16598V6.16598H8.29948V5.16598C8.29948 4.79779 8.001 4.49931 7.63281 4.49931Z" fill="#FAFAFA"/>
</svg>
