<svg width="16" height="16" viewBox="0 0 16 16" fill="none" xmlns="http://www.w3.org/2000/svg">
<path fill-rule="evenodd" clip-rule="evenodd" d="M8.00065 2.33325C4.87104 2.33325 2.33398 4.8703 2.33398 7.99992C2.33398 11.1295 4.87104 13.6666 8.00065 13.6666C11.1303 13.6666 13.6673 11.1295 13.6673 7.99992C13.6673 4.8703 11.1303 2.33325 8.00065 2.33325ZM1.33398 7.99992C1.33398 4.31802 4.31875 1.33325 8.00065 1.33325C11.6825 1.33325 14.6673 4.31802 14.6673 7.99992C14.6673 11.6818 11.6825 14.6666 8.00065 14.6666C4.31875 14.6666 1.33398 11.6818 1.33398 7.99992ZM8.39108 4.99992C7.64063 4.99992 7.06458 5.58122 7.06458 6.25918C7.06458 6.61687 7.20839 6.95992 7.37555 7.23256C7.44733 7.34965 7.51926 7.44692 7.57669 7.51844H9.48697C9.76312 7.51844 9.98697 7.74229 9.98697 8.01844C9.98697 8.29458 9.76312 8.51844 9.48697 8.51844H7.66493L6.93813 10.3333H9.48697C9.76312 10.3333 9.98697 10.5571 9.98697 10.8333C9.98697 11.1094 9.76312 11.3333 9.48697 11.3333H6.19928C6.03333 11.3333 5.8782 11.2509 5.78519 11.1135C5.69218 10.976 5.67343 10.8014 5.73512 10.6474L6.58772 8.51844H5.83398C5.55784 8.51844 5.33398 8.29458 5.33398 8.01844C5.33398 7.74229 5.55784 7.51844 5.83398 7.51844H6.3898C6.21756 7.18266 6.06458 6.74842 6.06458 6.25918C6.06458 4.99391 7.12403 3.99992 8.39108 3.99992C9.01758 3.99992 9.5898 4.24117 10.0099 4.63649C10.2111 4.82572 10.2207 5.14216 10.0315 5.34327C9.84223 5.54438 9.5258 5.55402 9.32469 5.36479C9.08633 5.14051 8.75786 4.99992 8.39108 4.99992Z" fill="#FAFAFA"/>
</svg>
