<svg width="16" height="16" viewBox="0 0 16 16" fill="none" xmlns="http://www.w3.org/2000/svg">
<path d="M13.5 4.00001V2.50001H12C11.7239 2.50001 11.5 2.27615 11.5 2.00001C11.5 1.72386 11.7239 1.50001 12 1.50001H14L14.0514 1.50261C14.3034 1.52836 14.5 1.74123 14.5 2.00001V4.00001C14.5 4.27615 14.2761 4.50001 14 4.50001C13.7239 4.5 13.5 4.27615 13.5 4.00001Z" fill="#FAFAFA"/>
<path d="M13.5 12C13.5 11.7239 13.7239 11.5 14 11.5C14.2761 11.5 14.5 11.7239 14.5 12V14C14.5 14.2761 14.2761 14.5 14 14.5H12C11.7239 14.5 11.5 14.2761 11.5 14C11.5 13.7239 11.7239 13.5 12 13.5H13.5V12Z" fill="#FAFAFA"/>
<path d="M1.5 4V2L1.5026 1.94857C1.52835 1.69659 1.74122 1.5 2 1.5H4L4.05143 1.5026C4.30341 1.52835 4.5 1.74122 4.5 2C4.5 2.25878 4.30341 2.47165 4.05143 2.4974L4 2.5H2.5V4C2.5 4.27614 2.27614 4.5 2 4.5C1.72386 4.5 1.5 4.27614 1.5 4Z" fill="#FAFAFA"/>
<path d="M1.50001 12C1.50001 11.7239 1.72386 11.5 2.00001 11.5C2.27615 11.5 2.50001 11.7239 2.50001 12V13.5H4.00001L4.05144 13.5026C4.30342 13.5283 4.5 13.7412 4.50001 14C4.50001 14.2588 4.30342 14.4716 4.05144 14.4974L4.00001 14.5H2.00001C1.72386 14.5 1.50001 14.2761 1.50001 14V12Z" fill="#FAFAFA"/>
<path d="M5.01855 8.95602C5.29455 8.9562 5.51855 9.17999 5.51855 9.45602V11.2451C5.51838 11.521 5.29444 11.7449 5.01855 11.7451C4.74252 11.7451 4.51873 11.5211 4.51855 11.2451V9.45602C4.51855 9.17988 4.74241 8.95602 5.01855 8.95602Z" fill="#FAFAFA"/>
<path d="M7.40397 8.95602C7.67996 8.9562 7.90397 9.17999 7.90397 9.45602V11.2451C7.9038 11.521 7.67986 11.7449 7.40397 11.7451H6.80762C6.54872 11.7451 6.33515 11.548 6.30957 11.2959L6.30762 11.2451V9.45602C6.30762 9.17988 6.53148 8.95602 6.80762 8.95602H7.40397Z" fill="#FAFAFA"/>
<path d="M9.19303 8.95602C9.46918 8.95602 9.69303 9.17988 9.69303 9.45602V11.2451C9.69286 11.5211 9.46907 11.7451 9.19303 11.7451C8.917 11.7451 8.69321 11.5211 8.69303 11.2451V9.45602C8.69303 9.17988 8.91689 8.95602 9.19303 8.95602Z" fill="#FAFAFA"/>
<path d="M10.9821 8.95602C11.2581 8.9562 11.4821 9.17999 11.4821 9.45602V11.2451C11.4819 11.521 11.258 11.7449 10.9821 11.7451C10.7061 11.7451 10.4823 11.5211 10.4821 11.2451V9.45602C10.4821 9.17988 10.706 8.95602 10.9821 8.95602Z" fill="#FAFAFA"/>
<path d="M7.40397 4.25485C7.67996 4.25503 7.90397 4.47882 7.90397 4.75485V7.16631H8.69303V4.75485C8.69303 4.47871 8.91689 4.25485 9.19303 4.25485C9.46918 4.25485 9.69303 4.47871 9.69303 4.75485V7.16631H10.4821V4.75485C10.4821 4.47871 10.706 4.25485 10.9821 4.25485C11.2581 4.25503 11.4821 4.47882 11.4821 4.75485V7.16631H13.9639L14.0146 7.16891C14.2668 7.1944 14.4638 7.40741 14.4639 7.66631C14.4639 7.92527 14.2669 8.13821 14.0146 8.1637L13.9639 8.16631H2.03613C1.75999 8.16631 1.53613 7.94245 1.53613 7.66631C1.53622 7.39024 1.76004 7.16631 2.03613 7.16631H4.51855V4.75485C4.51855 4.47871 4.74241 4.25485 5.01855 4.25485C5.29455 4.25503 5.51855 4.47882 5.51855 4.75485V7.16631H6.30762V4.75485C6.30762 4.47871 6.53148 4.25485 6.80762 4.25485H7.40397Z" fill="#FAFAFA"/>
</svg>
