<svg width="16" height="16" viewBox="0 0 16 16" fill="none" xmlns="http://www.w3.org/2000/svg">
<path d="M10.653 12.429C10.929 12.4292 11.153 12.653 11.153 12.929C11.153 13.2051 10.929 13.4289 10.653 13.429C10.3769 13.429 10.153 13.2052 10.153 12.929C10.153 12.6529 10.3769 12.429 10.653 12.429Z" fill="#FAFAFA"/>
<path d="M10.653 9.86393C10.929 9.86411 11.153 10.0879 11.153 10.3639V11.5658C11.153 11.8418 10.929 12.0656 10.653 12.0658C10.3769 12.0658 10.153 11.8419 10.153 11.5658V10.3639C10.153 10.0878 10.3769 9.86393 10.653 9.86393Z" fill="#FAFAFA"/>
<path fill-rule="evenodd" clip-rule="evenodd" d="M10.6217 7.74935C10.8426 7.74935 11.0593 7.80951 11.2487 7.92318C11.436 8.03567 11.5892 8.19696 11.6927 8.38932L14.1406 12.8444C14.2437 13.0321 14.2967 13.244 14.293 13.4583C14.2892 13.6724 14.2295 13.8822 14.1198 14.0664C14.0103 14.2503 13.8546 14.4022 13.6686 14.5078C13.4824 14.6136 13.2717 14.6692 13.0579 14.6693H8.1875C7.97366 14.6692 7.76305 14.6136 7.57682 14.5078C7.39086 14.4022 7.23514 14.2502 7.12565 14.0664C7.01619 13.8823 6.95611 13.672 6.95247 13.4577C6.94882 13.2436 7.00113 13.0321 7.10417 12.8444L9.55013 8.38932C9.65359 8.19694 9.80737 8.03579 9.99479 7.92318C10.1842 7.80949 10.401 7.74938 10.6217 7.74935ZM10.6217 8.74935C10.5821 8.74938 10.5428 8.76035 10.5091 8.7806C10.4756 8.8008 10.4485 8.82975 10.4303 8.86393L10.4264 8.87044L7.98112 13.3255C7.97142 13.3432 7.96376 13.3622 7.95898 13.3815L7.95247 13.4408C7.95315 13.4806 7.96442 13.52 7.98503 13.5547L8.02214 13.6022C8.03644 13.6162 8.05268 13.6286 8.07031 13.6387C8.10556 13.6586 8.14646 13.6692 8.1875 13.6693H13.0579C13.099 13.6692 13.1392 13.6586 13.1745 13.6387C13.21 13.6185 13.2399 13.5892 13.2604 13.5547L13.2845 13.5C13.29 13.4808 13.2926 13.4609 13.293 13.4408C13.2937 13.4008 13.2838 13.3609 13.2643 13.3255L10.8171 8.87044L10.8132 8.86393C10.795 8.82972 10.7674 8.80085 10.7337 8.7806C10.7 8.76043 10.6614 8.74935 10.6217 8.74935Z" fill="#FAFAFA"/>
<path d="M8.0013 1.33398C8.3455 1.33411 8.68064 1.44566 8.95638 1.65169C9.14732 1.79448 9.30215 1.97815 9.41211 2.18685C10.0116 2.3318 10.5854 2.56879 11.112 2.88997C11.3377 2.81918 11.5776 2.79836 11.8145 2.83203C12.1563 2.88087 12.4745 3.03963 12.7188 3.28385C12.9628 3.52819 13.1212 3.84562 13.1699 4.1875C13.2036 4.42424 13.1814 4.6637 13.1107 4.88932C13.4313 5.41563 13.6678 5.98883 13.8125 6.58789C13.9815 6.6767 14.1343 6.79567 14.2624 6.93945C14.4355 7.13401 14.5585 7.36789 14.6204 7.61979L14.6432 7.72852L14.6582 7.83919C14.6844 8.09714 14.6479 8.35878 14.5501 8.60026C14.4384 8.87614 14.2516 9.11558 14.0111 9.29102C13.7881 9.45359 13.4753 9.40428 13.3125 9.18164C13.1498 8.95853 13.1988 8.64579 13.4219 8.48307C13.5117 8.41754 13.5813 8.32768 13.623 8.22461L13.6484 8.14583C13.6685 8.06561 13.6717 7.98132 13.6576 7.89909C13.6385 7.78998 13.5893 7.68704 13.5156 7.60417C13.4418 7.52123 13.3459 7.46056 13.2396 7.42904C13.0606 7.37619 12.9256 7.22804 12.89 7.04492C12.7638 6.39222 12.5074 5.7708 12.1361 5.2194C12.0315 5.06412 12.0218 4.86331 12.112 4.69922C12.1741 4.58616 12.1978 4.45577 12.1797 4.32812C12.1615 4.20049 12.1021 4.08207 12.0111 3.99089C11.9199 3.89972 11.8014 3.84053 11.6738 3.82227C11.5461 3.80408 11.4159 3.82788 11.3027 3.88997C11.1386 3.98015 10.9372 3.97047 10.7819 3.86589C10.2307 3.49404 9.6097 3.23736 8.95703 3.11068C8.77395 3.07515 8.62589 2.93986 8.57292 2.76107C8.53648 2.63794 8.4609 2.52946 8.35807 2.45247C8.25516 2.37558 8.12973 2.33411 8.0013 2.33398C7.8727 2.33398 7.74694 2.3755 7.64388 2.45247C7.54093 2.52943 7.46552 2.63775 7.42904 2.76107C7.37613 2.93988 7.22795 3.07506 7.04492 3.11068C6.39212 3.23734 5.77131 3.494 5.22005 3.86589C5.06483 3.97062 4.86338 3.98001 4.69922 3.88997C4.58619 3.8279 4.45579 3.80415 4.32812 3.82227C4.2004 3.84049 4.08213 3.89966 3.99089 3.99089C3.89964 4.08213 3.84049 4.20038 3.82227 4.32812C3.80412 4.45583 3.82788 4.58617 3.88997 4.69922C3.98003 4.86338 3.97062 5.06482 3.86589 5.22005C3.49397 5.77134 3.23734 6.39208 3.11068 7.04492C3.0751 7.22796 2.93986 7.37609 2.76107 7.42904C2.63775 7.46552 2.52943 7.54093 2.45247 7.64388C2.37546 7.74695 2.33398 7.87266 2.33398 8.0013C2.33409 8.12976 2.37556 8.25514 2.45247 8.35807C2.51023 8.43522 2.58588 8.49705 2.67188 8.53841L2.76107 8.57292L2.82617 8.597C2.97214 8.66335 3.07959 8.79686 3.11068 8.95703C3.23735 9.60973 3.49403 10.2307 3.86589 10.7819C3.97048 10.9372 3.98015 11.1386 3.88997 11.3027C3.82784 11.4159 3.80407 11.546 3.82227 11.6738C3.84052 11.8014 3.89971 11.9199 3.99089 12.0111C4.08207 12.1021 4.20049 12.1615 4.32812 12.1797C4.45575 12.1978 4.58617 12.1741 4.69922 12.112C4.86318 12.022 5.06419 12.031 5.2194 12.1354C5.3767 12.2413 5.5405 12.3387 5.70898 12.4258C5.95403 12.5527 6.05056 12.8544 5.92383 13.0996C5.79708 13.3447 5.49521 13.4409 5.25 13.3145C5.12791 13.2513 5.00865 13.1821 4.89128 13.1107C4.66516 13.1819 4.42484 13.2036 4.1875 13.1699C3.84562 13.1212 3.52819 12.9628 3.28385 12.7187C3.03961 12.4745 2.88086 12.157 2.83203 11.8151C2.79835 11.5783 2.81916 11.3377 2.88997 11.112C2.56878 10.5854 2.3318 10.0116 2.18685 9.41211C1.97814 9.30214 1.79448 9.14733 1.65169 8.95638C1.44565 8.68062 1.3341 8.34553 1.33398 8.0013C1.33398 7.6569 1.44554 7.32147 1.65169 7.04557C1.79461 6.85432 1.97794 6.6992 2.18685 6.58919C2.33186 5.9896 2.56869 5.41593 2.88997 4.88932C2.81931 4.66377 2.7984 4.42411 2.83203 4.1875C2.88076 3.84532 3.03946 3.52825 3.28385 3.28385C3.52824 3.03948 3.84534 2.88075 4.1875 2.83203C4.42408 2.79842 4.6638 2.81932 4.88932 2.88997C5.4159 2.56872 5.98964 2.33185 6.58919 2.18685C6.6992 1.97794 6.85432 1.79461 7.04557 1.65169C7.32145 1.44559 7.65693 1.33398 8.0013 1.33398Z" fill="#FAFAFA"/>
<path fill-rule="evenodd" clip-rule="evenodd" d="M8.00065 3.66406C8.01934 3.66406 8.03783 3.66467 8.05599 3.66667C8.18142 3.66825 8.30697 3.67435 8.43229 3.68685C9.09251 3.75274 9.7289 3.9692 10.2923 4.31966C10.4832 4.43841 10.664 4.57146 10.8333 4.71739C11.1637 5.00217 11.4503 5.336 11.6823 5.70833C11.8283 5.94269 11.7565 6.25111 11.5221 6.39714C11.2879 6.54288 10.9793 6.47176 10.8333 6.23763C10.5633 5.80433 10.1978 5.4383 9.76432 5.16862C9.37872 4.92876 8.94856 4.77021 8.50065 4.70247V6.48503C8.5986 6.51727 8.69358 6.55855 8.78385 6.60937C9.02442 6.74482 9.1093 7.04977 8.97396 7.29036C8.83848 7.53099 8.53359 7.6166 8.29297 7.48112C8.22434 7.44249 8.14852 7.41743 8.07031 7.4082C8.05105 7.40593 8.03171 7.40466 8.01237 7.4043C8.00847 7.40439 8.00457 7.40495 8.00065 7.40495L7.99675 7.4043C7.94299 7.4047 7.88929 7.41228 7.83724 7.42708C7.78038 7.4433 7.72649 7.46806 7.67708 7.5L7.62891 7.5345C7.56736 7.58356 7.5159 7.64441 7.47786 7.71354C7.43999 7.78255 7.41599 7.85868 7.40755 7.93685C7.39916 8.01512 7.40672 8.09456 7.42904 8.16992C7.45134 8.24532 7.48866 8.31577 7.53841 8.37695C7.58802 8.43789 7.64934 8.48878 7.71875 8.52604C7.96192 8.65667 8.05305 8.95987 7.92253 9.20312C7.79187 9.44626 7.48868 9.53744 7.24544 9.4069C7.13465 9.34741 7.03292 9.27353 6.93945 9.1901L5.39323 10.0827C5.67015 10.4299 6.01384 10.7192 6.40495 10.9323C6.64744 11.0644 6.73693 11.3682 6.60482 11.6107C6.4726 11.8529 6.1688 11.9426 5.92643 11.8105C5.34382 11.4931 4.84173 11.0459 4.45898 10.5039C4.39032 10.4067 4.32715 10.3059 4.26693 10.2038C4.25923 10.1926 4.25168 10.1812 4.24479 10.1693C4.23813 10.1577 4.23221 10.1459 4.22656 10.1341C3.9733 9.68565 3.80014 9.19518 3.71875 8.68424C3.61445 8.029 3.66192 7.35799 3.85742 6.72396C4.05297 6.08999 4.39182 5.50934 4.84701 5.02669C5.30226 4.54405 5.86223 4.17171 6.48372 3.93945C6.95887 3.76193 7.46062 3.66953 7.9655 3.66536C7.97711 3.66456 7.98883 3.66406 8.00065 3.66406ZM7.50065 4.70378C7.27389 4.73827 7.05022 4.79553 6.83398 4.8763C6.35582 5.05501 5.92448 5.34155 5.57422 5.71289C5.22407 6.08423 4.96358 6.53116 4.81315 7.01888C4.66276 7.50668 4.62615 8.0226 4.70638 8.52669C4.74408 8.76341 4.80786 8.99432 4.89453 9.21615L6.4388 8.32422C6.4051 8.16173 6.39558 7.99488 6.41341 7.82943C6.43602 7.61971 6.50005 7.41653 6.60156 7.23177C6.7032 7.04705 6.84079 6.88347 7.00586 6.75195C7.15359 6.63424 7.32162 6.54543 7.50065 6.48633V4.70378Z" fill="#FAFAFA"/>
</svg>
