<svg width="16" height="16" viewBox="0 0 16 16" fill="none" xmlns="http://www.w3.org/2000/svg">
<path d="M13.1673 11.8857C13.1673 11.6297 13.0608 11.3368 12.8782 11.0341C12.7094 10.7544 12.4964 10.5024 12.3177 10.3134C12.139 10.5024 11.9265 10.7545 11.7578 11.0341C11.5751 11.3368 11.4687 11.6297 11.4687 11.8857C11.4687 12.4988 11.9005 12.8966 12.3177 12.8968C12.7349 12.8968 13.1673 12.4989 13.1673 11.8857ZM14.1673 11.8857C14.1673 12.9416 13.3907 13.8968 12.3177 13.8968C11.2447 13.8966 10.4687 12.9416 10.4687 11.8857C10.4687 11.3721 10.6734 10.8954 10.9017 10.5172C11.1333 10.1335 11.4159 9.8074 11.6302 9.58493L11.7037 9.51592C12.0595 9.21482 12.5758 9.21499 12.9316 9.51592L13.0058 9.58493L13.1771 9.77048C13.3578 9.97403 13.5606 10.2293 13.7343 10.5172C13.9626 10.8954 14.1673 11.3722 14.1673 11.8857Z" fill="#FAFAFA"/>
<path d="M2.41998 3.53477C2.72983 3.16814 3.20979 3.12093 3.56777 3.22032L4.33079 3.43646C5.25327 3.70252 6.60136 4.108 7.8972 4.55951L8.00852 4.60443C8.51693 4.83547 8.86041 5.38019 8.76504 5.96836L8.73769 6.09466C8.56712 6.72937 7.95588 7.07811 7.36074 7.0211L7.2416 7.00417C5.89297 6.74917 4.52218 6.42829 3.5899 6.19883L2.82102 6.00547C2.46136 5.91315 2.06798 5.63324 1.98313 5.16042L1.97011 5.06276C1.95241 4.8529 1.95961 4.5892 2.03652 4.303C2.11343 4.0168 2.23962 3.78504 2.36009 3.61224L2.41998 3.53477ZM3.19407 4.17865C3.18501 4.18108 3.18105 4.18386 3.18105 4.18386C3.11199 4.28289 3.04287 4.41072 3.00201 4.56276C2.97145 4.67663 2.96125 4.78617 2.9623 4.88438L2.96686 4.97878L2.97532 4.9892C2.98974 5.00354 3.02101 5.02487 3.06972 5.03737L3.83014 5.22813C4.7513 5.45483 6.10275 5.77121 7.4278 6.02175L7.4916 6.02826C7.63622 6.0291 7.74493 5.93662 7.7722 5.83555L7.77871 5.79063C7.78374 5.69808 7.7343 5.5912 7.62701 5.53021L7.56842 5.50417C6.29529 5.06056 4.96617 4.66094 4.05475 4.39805L3.30019 4.18386C3.25174 4.17042 3.21408 4.1733 3.19407 4.17865Z" fill="#FAFAFA"/>
<path d="M6.36643 2.36564C6.77274 1.99951 7.39566 2.01997 7.78375 2.40796L12.2434 6.8676L12.3163 6.94767C12.6327 7.33728 12.6274 7.90565 12.2857 8.28491L12.2076 8.36304C11.5168 8.9838 10.0214 10.2965 8.13662 11.766L7.30589 12.4041C6.6396 12.908 5.72381 12.9664 5.01813 12.4958L4.88011 12.3943C4.57881 12.1528 4.22693 11.8552 3.86188 11.5134L3.49339 11.158C3.12367 10.7882 2.79437 10.4191 2.51682 10.0883L2.25706 9.77124C1.67952 9.05057 1.70975 8.05619 2.24729 7.34546L2.61969 6.85783C2.98962 6.37752 3.35182 5.91982 3.69781 5.49129L3.73167 5.45288C3.90999 5.27289 4.19955 5.25382 4.40094 5.41642C4.61565 5.58991 4.6492 5.90475 4.47581 6.11955L3.77399 7.00171C3.65434 7.15447 3.53362 7.30996 3.41201 7.46785L3.04482 7.94832C2.76361 8.32006 2.76578 8.80782 3.03701 9.14624L3.2831 9.44572C3.54524 9.7581 3.85534 10.1045 4.20107 10.4503L4.54547 10.7836C4.88797 11.1042 5.21942 11.3854 5.50511 11.6143L5.57021 11.6619C5.90397 11.8847 6.35447 11.8702 6.70302 11.6065L7.52203 10.977C9.38211 9.52666 10.8588 8.23073 11.539 7.61955L11.5461 7.61043C11.5472 7.60799 11.548 7.60466 11.5481 7.60067C11.5481 7.59657 11.5474 7.59219 11.5455 7.58765L11.5364 7.57463L7.07672 3.11499C7.06763 3.10594 7.05866 3.10313 7.05068 3.10327C7.04668 3.10335 7.04336 3.10418 7.04091 3.10523L7.0318 3.11239C6.7401 3.43702 6.29174 3.9438 5.74469 4.58765L5.70953 4.62476C5.52677 4.80039 5.23693 4.81259 5.03961 4.64494C4.82927 4.46612 4.80355 4.15026 4.98232 3.93986L5.73167 3.07137C5.95168 2.82009 6.13984 2.609 6.28831 2.44377L6.36643 2.36564Z" fill="#FAFAFA"/>
</svg>
