<svg width="16" height="16" viewBox="0 0 16 16" fill="none" xmlns="http://www.w3.org/2000/svg">
<path d="M4.96549 2.37263C5.20443 2.23496 5.5103 2.31627 5.64844 2.55492L7.57682 5.88956C7.64323 6.0044 7.66124 6.14096 7.62695 6.26911C7.59266 6.39727 7.50877 6.50682 7.39388 6.57315C7.20964 6.67957 7.0564 6.83232 6.94987 7.01651C6.84331 7.20087 6.78733 7.41034 6.78711 7.62328C6.7868 7.89911 6.56291 8.12248 6.28711 8.12263H2.42969C2.29706 8.12263 2.16994 8.06994 2.07617 7.97615C2.0058 7.90573 1.9586 7.8165 1.93945 7.72029L1.92969 7.62263C1.93024 6.55806 2.21123 5.51232 2.74414 4.59073C3.27704 3.66922 4.04318 2.90412 4.96549 2.37263ZM5.04427 3.50935C4.4606 3.9274 3.97134 4.46658 3.61003 5.09138C3.24887 5.71595 3.02572 6.40853 2.95443 7.12263H5.8457C5.89501 6.91087 5.97427 6.70635 6.08398 6.51651C6.19361 6.32686 6.33089 6.15574 6.48958 6.0074L5.04427 3.50935Z" fill="#FAFAFA"/>
<path d="M10.3817 2.5126C10.5299 2.3072 10.8125 2.2435 11.0366 2.37263C11.959 2.90412 12.7251 3.66921 13.258 4.59073C13.7909 5.51232 14.0719 6.55804 14.0725 7.62263C14.0725 7.75522 14.0197 7.88236 13.926 7.97615C13.8322 8.06991 13.7051 8.12263 13.5725 8.12263H9.71568C9.43976 8.12263 9.21599 7.8992 9.21568 7.62328C9.21546 7.41034 9.15883 7.20087 9.05227 7.01651C8.94573 6.83231 8.79252 6.67956 8.60826 6.57315C8.49336 6.50682 8.40948 6.39728 8.37519 6.26911C8.34091 6.14098 8.35893 6.00439 8.42532 5.88956L10.3537 2.55492L10.3817 2.5126ZM9.51191 6.0074C9.67077 6.15582 9.80844 6.3267 9.91816 6.51651C10.0279 6.70636 10.1071 6.91086 10.1564 7.12263H13.0477C12.9764 6.40863 12.7538 5.71588 12.3928 5.09138C12.0314 4.4664 11.5411 3.92745 10.9572 3.50935L9.51191 6.0074Z" fill="#FAFAFA"/>
<path d="M8.65746 8.65656C8.88786 8.55515 9.16207 8.64115 9.29092 8.86359L11.22 12.1982C11.2863 12.313 11.3044 12.4497 11.2701 12.5778C11.2357 12.706 11.1514 12.8155 11.0364 12.8818C10.1132 13.4137 9.06655 13.6936 8.00121 13.6937C6.9359 13.6937 5.88919 13.4137 4.96605 12.8818C4.85103 12.8155 4.76669 12.706 4.73233 12.5778C4.69803 12.4496 4.71607 12.3131 4.78246 12.1982L6.71084 8.86359L6.73884 8.82127C6.88624 8.61694 7.16669 8.55247 7.39053 8.67934C7.57559 8.78422 7.78526 8.83836 7.99795 8.83689H8.00446C8.21717 8.83836 8.42682 8.78424 8.61189 8.67934L8.65746 8.65656ZM8.64444 9.74314C8.43723 9.80486 8.2218 9.83714 8.00381 9.83624L8.00446 9.83689L8.00056 9.83624L7.99795 9.83689C7.78004 9.83775 7.56447 9.80551 7.35733 9.7438L5.91137 12.2438C6.56642 12.5395 7.27868 12.6937 8.00121 12.6937C8.72356 12.6937 9.43548 12.5393 10.0904 12.2438L8.64444 9.74314Z" fill="#FAFAFA"/>
</svg>
