<svg width="16" height="16" viewBox="0 0 16 16" fill="none" xmlns="http://www.w3.org/2000/svg">
<path d="M5.78899 13.8096C5.85217 13.8223 5.92378 13.837 5.94695 13.8413C5.97011 13.8455 6.01434 13.8497 6.04593 13.8518C6.07963 13.8518 6.17861 13.8391 6.26706 13.8223C6.35762 13.8054 6.50294 13.7569 6.58929 13.7147C6.74092 13.6409 6.802 13.5818 8.08668 12.2952C9.09759 11.2849 9.44298 10.9242 9.49142 10.8377C9.52511 10.7745 9.57566 10.6542 9.59882 10.5741C9.62831 10.4749 9.64305 10.3716 9.64305 10.2577C9.64305 10.1649 9.62831 10.0362 9.61146 9.97295C9.59461 9.90967 9.55038 9.79577 9.51248 9.71984C9.46825 9.63125 9.38822 9.52368 9.11865 9.24527L6.05225 12.3142L3.51447 9.77257L4.33582 8.94997L3.84722 8.45853C3.57765 8.19066 3.3502 7.96919 3.33966 7.96919C3.33124 7.96919 3.0743 8.22229 2.76682 8.53235C2.3056 8.99849 2.19398 9.12082 2.13711 9.23472C2.0971 9.31065 2.04866 9.44353 2.0276 9.53001C2.00233 9.64391 1.9939 9.7325 2.00443 9.84639C2.01075 9.93287 2.03602 10.0658 2.05919 10.1417C2.08236 10.2176 2.13922 10.3357 2.18555 10.4053C2.2382 10.4855 2.83421 11.0972 3.82405 12.0864C5.26459 13.5249 5.38884 13.6451 5.52574 13.7126C5.60577 13.7527 5.72581 13.797 5.78899 13.8096Z" fill="#004C94"/>
<path d="M4.58644 6.7142L5.73002 7.85951C6.35973 8.48805 6.87992 9.0027 6.88835 9.0027C6.89888 9.0027 7.12422 8.77702 7.87397 8.00083L7.10106 7.22463C6.67353 6.79857 6.27759 6.4168 6.22073 6.37883C6.16176 6.34087 6.04382 6.28181 5.95748 6.25017C5.8269 6.20377 5.76372 6.19322 5.58892 6.19322C5.41412 6.19322 5.35094 6.20166 5.22036 6.24806C5.13401 6.2797 5.01397 6.33454 4.95711 6.37251C4.89814 6.41258 4.79283 6.50328 4.58644 6.7142Z" fill="#004C94"/>
<path d="M10.001 9.74309C10.0642 9.7684 10.1695 9.79582 10.2327 9.80426C10.2958 9.81269 10.3569 9.82113 10.3695 9.82324C10.3822 9.82324 10.4706 9.8148 10.5696 9.80426C10.7065 9.78738 10.7865 9.76418 10.9171 9.70091C11.0351 9.64185 11.134 9.57224 11.4078 9.30859L9.11645 7.00954L8.12451 8.00087L8.91006 8.7855C9.3418 9.21789 9.73774 9.59966 9.79039 9.63552C9.84304 9.67138 9.93781 9.71989 10.001 9.74309Z" fill="#0092A7"/>
<path d="M11.6648 7.05173L12.1534 7.54106C12.4229 7.81104 12.6504 8.03251 12.6588 8.03251C12.6693 8.03251 12.9284 7.77941 13.2359 7.46935C13.7308 6.96947 13.8045 6.88721 13.8677 6.75643C13.9077 6.67417 13.9561 6.52864 13.9751 6.42951C14.0046 6.28186 14.0067 6.2228 13.9877 6.09203C13.9751 6.00555 13.9435 5.88111 13.9203 5.81783C13.8972 5.75455 13.8487 5.65964 13.815 5.60691C13.7792 5.55418 13.0421 4.8033 12.1765 3.93641C10.7865 2.54854 10.5865 2.35449 10.4685 2.29754C10.3969 2.26169 10.279 2.21739 10.2053 2.20052C10.1337 2.18365 10.0136 2.16888 9.93781 2.16888C9.86199 2.16888 9.74195 2.18365 9.66824 2.20052C9.59663 2.21739 9.47869 2.26169 9.40498 2.29754C9.29125 2.35449 9.11013 2.52745 7.93917 3.69385C7.17468 4.45738 6.57446 5.07328 6.53444 5.13655C6.49443 5.19772 6.43967 5.32006 6.41019 5.40653C6.37017 5.52887 6.35754 5.60902 6.35754 5.75455C6.35754 5.90009 6.37017 5.98024 6.41019 6.10258C6.43967 6.18905 6.49443 6.31139 6.53234 6.37045C6.57235 6.43161 6.66291 6.54129 6.73241 6.61301C6.80402 6.68683 6.8693 6.74589 6.87773 6.74589C6.88826 6.74589 7.57694 6.0625 8.41093 5.22725C9.24492 4.392 9.9357 3.70861 9.94834 3.70861C9.96098 3.70861 10.5359 4.27599 12.4861 6.22913L11.6648 7.05173Z" fill="#0092A7"/>
<path d="M5.22036 9.51937C5.3067 9.56366 5.43938 9.61007 5.5152 9.62483C5.59102 9.63959 5.69211 9.65436 5.74265 9.65436C5.79109 9.65647 5.90061 9.64381 5.98485 9.62694C6.06699 9.61217 6.19335 9.56999 6.26285 9.53413C6.33235 9.50039 6.44186 9.42445 6.50504 9.36751C6.56822 9.31056 6.65247 9.23673 6.75987 9.13971L5.23299 7.60631C4.39268 6.76051 3.70401 6.06447 3.70401 6.05603C3.70401 6.04548 4.27264 5.46967 6.23126 3.50809L7.05261 4.33069L8.04245 3.33935L7.46961 2.76776C6.93889 2.24045 6.88202 2.18983 6.73671 2.12022C6.65036 2.07804 6.53663 2.03375 6.48398 2.0232C6.43133 2.01055 6.3176 2 6.23126 2C6.14491 2 6.01855 2.01476 5.95115 2.03164C5.88587 2.04851 5.77635 2.08859 5.70896 2.12022C5.60366 2.16874 5.39095 2.37333 3.982 3.78018C2.40036 5.35999 2.37299 5.38741 2.29296 5.55404C2.24662 5.64684 2.20029 5.7755 2.18555 5.83878C2.17081 5.90417 2.16659 6.03283 2.17291 6.13407C2.17923 6.25008 2.20029 6.36187 2.23399 6.45045C2.26347 6.52639 2.32455 6.6445 2.37088 6.71411C2.42142 6.78793 2.99427 7.3764 3.76087 8.13994C4.9929 9.37172 5.07083 9.44555 5.22036 9.51937Z" fill="#AA007B"/>
<path d="M7.00839 6.88284L7.49909 7.37218C7.76867 7.64216 7.99612 7.86152 8.00454 7.8573C8.01086 7.85519 8.32888 7.54514 8.71007 7.1697C9.08916 6.79426 9.4514 6.42725 9.51247 6.35765C9.57565 6.28593 9.65358 6.17415 9.68727 6.10665C9.72097 6.04127 9.76309 5.92737 9.77994 5.85354C9.79679 5.78183 9.81153 5.66161 9.81153 5.58567C9.81153 5.50974 9.79679 5.38952 9.77994 5.31569C9.76309 5.24398 9.71886 5.12797 9.68517 5.05837C9.64726 4.98244 9.5567 4.86221 9.29555 4.59223L7.00839 6.88284Z" fill="#AA007B"/>
<path d="M2.4298 6.81984L3.70396 8.10013V8.10224C4.40527 8.80672 4.98022 9.38254 4.98233 9.38254C4.98654 9.38254 4.98865 9.38043 4.98865 9.37832C4.98865 9.3741 4.4137 8.79828 2.4298 6.81984Z" fill="#E88BA9"/>
<path d="M7.10519 6.98833L7.54746 7.43549V7.4376C7.78965 7.68227 7.99394 7.88475 8.00026 7.88475C8.00657 7.88475 8.23403 7.65907 9.00063 6.88287L8.00026 7.87421L7.10519 6.98833Z" fill="#BA4488"/>
<path d="M8.14347 5.73124C7.27157 6.60235 6.99567 6.88709 7.01463 6.90818C7.02516 6.92084 7.04201 6.93349 7.04833 6.93349C7.05464 6.93349 7.04833 6.92084 7.03569 6.90818C7.01463 6.88709 7.24419 6.64453 9.29547 4.58171L8.14347 5.73124Z" fill="#BA4488"/>
<path d="M5.51513 2.22993C5.50881 2.22993 4.80328 2.9323 3.94612 3.79076C3.08896 4.64921 2.39397 5.35158 2.4045 5.35158C2.41292 5.35158 3.11845 4.64921 3.9735 3.79076C4.82645 2.9323 5.52144 2.22993 5.51513 2.22993Z" fill="#BA4488"/>
<path d="M6.23118 3.51656C6.22486 3.51656 6.40598 3.70217 6.63133 3.92786C6.85668 4.15354 7.04622 4.33915 7.05254 4.33915C7.05886 4.33915 7.28631 4.11347 8.05291 3.33727L7.05254 4.32861L6.64818 3.92364C6.42494 3.70006 6.2375 3.51656 6.23118 3.51656Z" fill="#BA4488"/>
<path d="M6.97883 2.26157L7.50534 2.7952C7.79386 3.08628 8.03395 3.32673 8.03606 3.32673C8.04027 3.32673 8.04238 3.32462 8.04238 3.32251C8.04238 3.31854 7.82929 3.10677 7.1161 2.398L6.97883 2.26157Z" fill="#BA4488"/>
<path d="M3.92935 9.36124C3.7019 9.58693 3.51446 9.77465 3.51446 9.77676V9.77887C3.51446 9.78098 3.51867 9.78308 3.52499 9.78308C3.53131 9.78308 3.71875 9.59536 4.34635 8.94994L3.92935 9.36124Z" fill="#3A92A8"/>
<path d="M8.20041 8.08305L8.93752 8.82761C9.34188 9.23469 9.67674 9.57005 9.67885 9.57005C9.68306 9.57005 9.68517 9.56794 9.68517 9.56584C9.68517 9.56186 9.38826 9.26614 8.39354 8.27541L8.20041 8.08305Z" fill="#3A92A8"/>
<path d="M7.87397 8.00923C7.86765 8.00923 7.79815 8.07462 7.71602 8.15688C7.63388 8.23914 7.57702 8.30452 7.58544 8.30452C7.59387 8.30452 7.66547 8.23703 7.7434 8.15688C7.82132 8.07462 7.88029 8.00923 7.87397 8.00923Z" fill="#3A92A8"/>
<path d="M11.6543 7.04954L12.1492 7.55153C12.4209 7.82573 12.6505 8.05142 12.6589 8.05142C12.6694 8.05142 12.6821 8.03876 12.6926 8.0261C12.7031 8.00712 12.6989 8.00501 12.6757 8.01767C12.6526 8.03032 12.5262 7.91853 11.6543 7.04954Z" fill="#3A92A8"/>
<path d="M6.38921 6.50114L7.12633 7.24569C7.53069 7.65277 7.86555 7.98814 7.86765 7.98814C7.87186 7.98814 7.87397 7.98603 7.87397 7.98392C7.87397 7.97995 7.5771 7.68427 6.58255 6.69371L6.38921 6.50114Z" fill="#3A92A8"/>
<path d="M10.6645 2.40925L12.1914 3.94476V3.94265C13.0317 4.78845 13.7203 5.47817 13.7225 5.47817C13.7267 5.47817 13.7288 5.47606 13.7288 5.47395C13.7288 5.46973 13.0401 4.78001 10.6645 2.40925Z" fill="#3A92A8"/>
<path d="M9.20078 2.42191C9.19446 2.42191 8.60687 3.00616 7.89503 3.71908C7.18319 4.43199 6.60613 5.01625 6.61666 5.01625C6.62509 5.01625 7.21267 4.43199 7.92241 3.71908C8.63004 3.00616 9.2071 2.42191 9.20078 2.42191Z" fill="#3A92A8"/>
<path d="M9.94842 3.69799L10.338 4.09452C10.5529 4.31177 10.7298 4.48894 10.7319 4.48894C10.7361 4.48894 10.7382 4.48683 10.7382 4.48472C10.7382 4.48051 10.5613 4.30333 9.94842 3.69799Z" fill="#3A92A8"/>
<path d="M9.29974 13.9089C9.36082 13.9363 9.44717 13.9679 9.49139 13.9785H9.48929C9.53352 13.989 9.64513 13.9974 9.7378 13.9996C9.83047 14.0017 9.95894 13.9932 10.0221 13.9806C10.0853 13.97 10.2096 13.9257 10.2959 13.8835C10.4475 13.8097 10.5128 13.7464 11.9871 12.2742C12.8316 11.4326 13.5624 10.686 13.6129 10.6164C13.6635 10.5468 13.7309 10.4181 13.7624 10.3316C13.813 10.1987 13.8214 10.1397 13.8214 9.95196C13.8235 9.77689 13.813 9.70307 13.7772 9.59339C13.7519 9.51746 13.693 9.39934 13.6466 9.32974C13.594 9.24748 13.1012 8.74127 12.2314 7.87227C11.0056 6.65314 10.8856 6.53713 10.7592 6.47807C10.6834 6.44222 10.5718 6.40425 10.5107 6.38949C10.4517 6.37683 10.3296 6.36628 10.2433 6.36628C10.1569 6.36628 10.0348 6.37683 9.97368 6.38949C9.91471 6.40214 9.79888 6.44854 9.71674 6.49073C9.62618 6.53713 9.50614 6.62783 9.24078 6.88304L12.3072 9.95196L9.76939 12.4936L8.94804 11.671L7.94766 12.6729L8.44258 13.1706C8.71426 13.4427 8.99437 13.7106 9.06387 13.7633C9.13337 13.816 9.24078 13.8814 9.29974 13.9089Z" fill="#E60123"/>
<path d="M6.35128 11.0066C6.39551 11.0825 6.48818 11.2027 6.55557 11.2765C6.62507 11.3483 6.68614 11.4073 6.69457 11.4073C6.70089 11.4073 7.22108 10.8927 8.99226 9.11882L8.00242 8.12748L7.1937 8.93953C6.51556 9.62081 6.37445 9.77268 6.3218 9.87814C6.2881 9.94774 6.24388 10.0659 6.22492 10.1418C6.20597 10.2177 6.19123 10.3401 6.19123 10.416C6.19123 10.4919 6.20807 10.6248 6.23124 10.7113C6.2523 10.7978 6.30706 10.9306 6.35128 11.0066Z" fill="#E60123"/>
<path d="M7.9266 12.6727L8.46364 13.2106C8.75849 13.5058 9.00489 13.7484 9.01121 13.7484C9.01753 13.7484 8.77955 13.506 7.94766 12.6729L8.94804 11.671L9.76939 12.4936L12.3072 9.95196L9.21129 6.8618L12.2861 9.95181L9.76939 12.4723L8.94803 11.6497L7.9266 12.6727Z" fill="#E88BA9"/>
<path d="M13.5813 10.69C13.575 10.69 12.8842 11.3776 12.0439 12.2192C11.2036 13.0608 10.5234 13.7484 10.5339 13.7484C10.5423 13.7484 11.2331 13.0608 12.0713 12.2192C12.9074 11.3776 13.5876 10.69 13.5813 10.69Z" fill="#E88BA9"/>
<path d="M8.0003 8.1063L7.21475 8.89726L6.4313 9.68822L8.0003 8.1274L8.93749 9.05545L8.0003 8.1063Z" fill="#BA4488"/>
<path d="M8.99009 9.1294C8.98377 9.1294 8.46779 9.64194 7.84229 10.2684C7.2168 10.8948 6.71135 11.4074 6.72188 11.4074C6.7303 11.4074 7.24628 10.8948 7.86967 10.2684C8.49096 9.64194 8.99641 9.1294 8.99009 9.1294Z" fill="#EC223C"/>
<path d="M11.0014 6.62998L12.2755 7.91027C12.9768 8.61686 13.5518 9.19268 13.5539 9.19268C13.5581 9.19268 13.5602 9.19057 13.5602 9.18846C13.5602 9.18424 12.9853 8.60842 11.0014 6.62998Z" fill="#EC223C"/>
</svg>
