<svg width="16" height="16" viewBox="0 0 16 16" fill="none" xmlns="http://www.w3.org/2000/svg">
<path fill-rule="evenodd" clip-rule="evenodd" d="M14.668 3.83333C14.668 2.82081 13.8472 2 12.8346 2H3.16797C2.15545 2 1.33464 2.82081 1.33464 3.83333V10.8333C1.33464 11.8459 2.15545 12.6667 3.16797 12.6667H7.87287L11.0937 14.4381C11.2486 14.5233 11.4369 14.5204 11.5891 14.4304C11.7413 14.3404 11.8346 14.1768 11.8346 14V12.6667H12.8346C13.8472 12.6667 14.668 11.8459 14.668 10.8333V3.83333ZM12.8346 3C13.2949 3 13.668 3.3731 13.668 3.83333V10.8333C13.668 11.2936 13.2949 11.6667 12.8346 11.6667H11.3346C11.0585 11.6667 10.8346 11.8905 10.8346 12.1667V13.1544L8.24226 11.7286C8.16844 11.688 8.08555 11.6667 8.0013 11.6667H3.16797C2.70773 11.6667 2.33464 11.2936 2.33464 10.8333V3.83333C2.33464 3.3731 2.70773 3 3.16797 3H12.8346Z" fill="#FAFAFA"/>
</svg>
