<svg width="16" height="16" viewBox="0 0 16 16" fill="none" xmlns="http://www.w3.org/2000/svg">
<path d="M8.75523 1.34429C8.8245 1.3302 8.8965 1.33048 8.96552 1.34559C9.03444 1.36072 9.09902 1.39021 9.15432 1.43153C9.20954 1.47294 9.25499 1.5256 9.28583 1.58517C9.31652 1.6448 9.33242 1.71107 9.3327 1.77723V2.6672H12.0944C12.2459 2.6672 12.3916 2.76105 12.4987 2.92762C12.6057 3.09419 12.666 3.3204 12.666 3.55588V4.83387C12.666 5.00958 12.5746 5.16332 12.4375 5.25249L12.3594 5.22124C12.1509 5.146 11.9363 5.09018 11.7188 5.05327C11.6862 4.98688 11.6661 4.91281 11.666 4.83387V3.6672H9.3327V5.45106C9.07809 5.5894 8.83881 5.75627 8.62177 5.95106C8.51989 6.04259 8.42308 6.13966 8.3327 6.24142V2.46733L3.66604 3.54286V12.994L7.60224 13.5005C7.6036 13.5042 7.60476 13.508 7.60614 13.5116L7.60679 13.5129C7.77364 13.9464 8.10665 14.297 8.52997 14.4856L8.77867 14.5858C8.84615 14.6102 8.91449 14.6319 8.98309 14.6522C8.91901 14.668 8.85186 14.6714 8.78648 14.6613L3.07229 13.9263C2.95861 13.9105 2.8546 13.8563 2.77997 13.7746C2.70557 13.693 2.66493 13.5888 2.66604 13.4817V3.08713C2.66796 2.98721 2.70632 2.89038 2.77411 2.81304C2.84198 2.73578 2.93588 2.6821 3.04039 2.66069L8.75523 1.34429Z" fill="#FAFAFA"/>
<path fill-rule="evenodd" clip-rule="evenodd" d="M9.59898 9.64572C9.7289 9.15441 10.2127 8.8299 10.7259 8.91069C11.273 8.99738 11.6476 9.51215 11.5612 10.0598C11.4743 10.6074 10.9591 10.9815 10.4121 10.8951L10.4115 10.8944C9.86462 10.8072 9.4919 10.293 9.57815 9.74598L9.59898 9.64572ZM10.5671 9.89963L10.5658 9.90093L10.5651 9.90223V9.90353L10.5658 9.90549L10.5671 9.90679H10.5697L10.5716 9.90549L10.5729 9.90483L10.5736 9.90418L10.5729 9.90353L10.5736 9.90288L10.5723 9.90028L10.571 9.89898L10.569 9.89832L10.5671 9.89963Z" fill="#FAFAFA"/>
<path fill-rule="evenodd" clip-rule="evenodd" d="M10.6778 6.03309C11.1942 5.95177 11.7243 6.0219 12.2018 6.23426C12.2173 6.24116 12.2327 6.24927 12.2474 6.2577L12.291 6.28244L12.3308 6.30783C12.4489 6.39156 12.5433 6.51014 12.5977 6.65093L12.5983 6.65223C12.6522 6.79286 12.6614 6.94466 12.6296 7.08648C12.626 7.10238 12.621 7.11917 12.6159 7.13465L12.6003 7.18153C12.5953 7.19658 12.5891 7.21259 12.5827 7.2271L12.334 7.78504C12.3791 7.79477 12.4254 7.80551 12.4701 7.8176C12.9747 7.95426 13.4295 8.23467 13.7787 8.62358C14.1277 9.01258 14.3572 9.49516 14.4388 10.0116C14.5201 10.5279 14.4501 11.0581 14.2377 11.5357L14.2383 11.5363C14.1577 11.7168 14.0072 11.8603 13.8203 11.9322C13.6331 12.0039 13.4254 11.9969 13.2448 11.9166L12.6869 11.6685C12.6772 11.7132 12.6676 11.7589 12.6556 11.8033C12.5189 12.3079 12.2375 12.7629 11.849 13.1119C11.46 13.4608 10.9773 13.6905 10.461 13.772C9.94442 13.8534 9.41452 13.784 8.93687 13.5715C8.75556 13.4907 8.61216 13.34 8.54039 13.1535C8.46879 12.9665 8.47535 12.7591 8.55536 12.5787L8.80276 12.0207C8.75848 12.0111 8.71385 12.0007 8.66994 11.9888C8.22808 11.8692 7.82388 11.6394 7.49612 11.3235L7.3607 11.1822C7.01181 10.7934 6.7809 10.3116 6.69924 9.79481C6.6179 9.27841 6.68815 8.74818 6.90041 8.27072L6.9219 8.22775L6.94664 8.18413L6.97398 8.14181C7.05946 8.02133 7.17988 7.92747 7.31773 7.87424L7.38934 7.8508C7.55677 7.80515 7.73527 7.81903 7.89325 7.88921L8.45119 8.13726C8.46086 8.09258 8.47243 8.04742 8.4844 8.00314C8.62097 7.49855 8.90108 7.04372 9.28974 6.69455C9.67832 6.3459 10.1612 6.11479 10.6778 6.03309ZM10.9564 7.00575L10.8334 7.02072C10.5082 7.07215 10.2034 7.2176 9.9577 7.43804C9.71239 7.65847 9.53537 7.94612 9.44924 8.26421C9.39821 8.45324 9.38011 8.6498 9.3952 8.84364C9.40885 9.01906 9.32915 9.18986 9.18557 9.29155C9.04173 9.3929 8.85418 9.41189 8.69338 9.34038L7.72919 8.91135C7.66334 9.14688 7.64855 9.39596 7.68687 9.63921C7.73831 9.96441 7.88377 10.2685 8.10419 10.5142L8.19013 10.6028C8.39722 10.8025 8.65192 10.9479 8.93036 11.0233C9.11928 11.0744 9.31613 11.0919 9.51044 11.0767C9.6858 11.0632 9.85546 11.1434 9.95705 11.287C10.0586 11.4308 10.0773 11.6177 10.0059 11.7785L9.57684 12.7421C9.81261 12.8082 10.0617 12.8227 10.3054 12.7844C10.6306 12.733 10.935 12.5883 11.1804 12.3684C11.4259 12.1478 11.604 11.8603 11.6901 11.5422C11.7411 11.3536 11.758 11.1567 11.7429 10.9621L11.7422 10.8964C11.7504 10.7453 11.8272 10.6038 11.9525 10.5149C12.0962 10.4134 12.2839 10.3947 12.4447 10.466L13.4082 10.8951C13.4742 10.6595 13.4895 10.4107 13.4512 10.1672C13.3997 9.84147 13.2543 9.53713 13.0339 9.29155C12.8134 9.04608 12.5267 8.8686 12.2084 8.78244L12.209 8.78309C12.0198 8.73197 11.8221 8.71381 11.6276 8.72905C11.4522 8.74255 11.2826 8.6625 11.181 8.51877C11.0795 8.37496 11.0607 8.18808 11.1322 8.02723L11.5606 7.06304C11.3647 7.00832 11.1596 6.98868 10.9564 7.00575Z" fill="#FAFAFA"/>
</svg>
