<svg width="16" height="16" viewBox="0 0 16 16" fill="none" xmlns="http://www.w3.org/2000/svg">
<path d="M4.875 2.5C5.15114 2.5 5.375 2.72386 5.375 3C5.375 3.27614 5.15114 3.5 4.875 3.5C4.67609 3.5 4.48505 3.57875 4.3444 3.7194C4.20375 3.86005 4.125 4.05109 4.125 4.25V6.125C4.125 6.70305 3.97328 7.28048 3.67513 7.72786C3.61022 7.82524 3.53686 7.91638 3.45768 8C3.53686 8.08362 3.61022 8.17476 3.67513 8.27214C3.97328 8.71952 4.125 9.29695 4.125 9.875V11.75C4.125 11.9489 4.20375 12.1399 4.3444 12.2806C4.48505 12.4213 4.67609 12.5 4.875 12.5C5.15114 12.5 5.375 12.7239 5.375 13C5.375 13.2761 5.15114 13.5 4.875 13.5C4.41087 13.5 3.96556 13.3158 3.63737 12.9876C3.30918 12.6594 3.125 12.2141 3.125 11.75V9.875C3.125 9.45879 3.01354 9.08265 2.8431 8.82682C2.67272 8.57126 2.49351 8.5 2.375 8.5C2.09886 8.5 1.875 8.27614 1.875 8C1.875 7.72386 2.09886 7.5 2.375 7.5C2.49351 7.5 2.67272 7.42874 2.8431 7.17318C2.99219 6.94938 3.09609 6.63351 3.11979 6.2793L3.125 6.125V4.25C3.125 3.78587 3.30918 3.34056 3.63737 3.01237C3.96556 2.68418 4.41087 2.5 4.875 2.5Z" fill="#FAFAFA"/>
<path d="M11.125 2.5C11.5891 2.5 12.0344 2.68418 12.3626 3.01237C12.6908 3.34056 12.875 3.78587 12.875 4.25V6.125C12.875 6.54121 12.9865 6.91735 13.1569 7.17318C13.3273 7.42874 13.5065 7.5 13.625 7.5C13.9011 7.5 14.125 7.72386 14.125 8C14.125 8.27614 13.9011 8.5 13.625 8.5C13.5065 8.5 13.3273 8.57126 13.1569 8.82682C12.9865 9.08265 12.875 9.45879 12.875 9.875V11.75C12.875 12.2141 12.6908 12.6594 12.3626 12.9876C12.0344 13.3158 11.5891 13.5 11.125 13.5C10.8489 13.5 10.625 13.2761 10.625 13C10.625 12.7239 10.8489 12.5 11.125 12.5C11.3239 12.5 11.5149 12.4213 11.6556 12.2806C11.7963 12.1399 11.875 11.9489 11.875 11.75V9.875C11.875 9.29695 12.0267 8.71952 12.3249 8.27214C12.3897 8.17489 12.4626 8.08353 12.5417 8C12.4626 7.91647 12.3897 7.82511 12.3249 7.72786C12.064 7.33649 11.9153 6.84557 11.8822 6.3418L11.875 6.125V4.25C11.875 4.05109 11.7963 3.86005 11.6556 3.7194C11.5149 3.57875 11.3239 3.5 11.125 3.5C10.8489 3.5 10.625 3.27614 10.625 3C10.625 2.72386 10.8489 2.5 11.125 2.5Z" fill="#FAFAFA"/>
</svg>
