<svg width="16" height="16" viewBox="0 0 16 16" fill="none" xmlns="http://www.w3.org/2000/svg">
<path fill-rule="evenodd" clip-rule="evenodd" d="M4.66676 4.66683C4.66676 2.82588 6.15915 1.3335 8.0001 1.3335C9.84105 1.3335 11.3334 2.82588 11.3334 4.66683V7.66683C11.3334 9.50778 9.84105 11.0002 8.0001 11.0002C6.15915 11.0002 4.66676 9.50778 4.66676 7.66683V4.66683ZM8.0001 2.3335C6.71143 2.3335 5.66676 3.37817 5.66676 4.66683V7.66683C5.66676 8.95549 6.71143 10.0002 8.0001 10.0002C9.28876 10.0002 10.3334 8.95549 10.3334 7.66683V4.66683C10.3334 3.37817 9.28876 2.3335 8.0001 2.3335ZM3.21596 9.20865C3.469 9.09809 3.76376 9.2136 3.87432 9.46664C4.56918 11.057 6.15559 12.1668 8.0001 12.1668C9.84461 12.1668 11.431 11.057 12.1259 9.46664C12.2364 9.2136 12.5312 9.09809 12.7842 9.20865C13.0373 9.31921 13.1528 9.61397 13.0422 9.86701C12.2573 11.6634 10.5397 12.9606 8.5001 13.1444V14.1668C8.5001 14.443 8.27624 14.6668 8.0001 14.6668C7.72396 14.6668 7.5001 14.443 7.5001 14.1668V13.1444C5.46052 12.9606 3.74285 11.6634 2.95797 9.86701C2.84741 9.61397 2.96291 9.31921 3.21596 9.20865Z" fill="#FAFAFA"/>
</svg>
