<svg width="16" height="16" viewBox="0 0 16 16" fill="none" xmlns="http://www.w3.org/2000/svg">
<path fill-rule="evenodd" clip-rule="evenodd" d="M11.6693 3.3335C12.6831 3.3335 13.5 4.15567 13.5 5.16683V6.46891C13.7761 6.55116 14.0303 6.70099 14.2376 6.90837C14.5658 7.23655 14.75 7.68187 14.75 8.146V10.5633C14.7499 11.576 13.9289 12.396 12.9167 12.396H3.08333C2.0711 12.396 1.2501 11.576 1.25 10.5633V8.146C1.25 7.68187 1.43418 7.23655 1.76237 6.90837C1.96975 6.70099 2.2239 6.55116 2.5 6.46891V5.16683C2.50004 4.15534 3.31788 3.3335 4.33138 3.3335H11.6693ZM13 7.396C12.8011 7.396 12.6101 7.47475 12.4694 7.6154C12.3287 7.75605 12.25 7.94708 12.25 8.146V8.771C12.25 9.04714 12.0261 9.271 11.75 9.271H4.25C3.97386 9.271 3.75 9.04714 3.75 8.771V8.146C3.75 7.94708 3.67125 7.75605 3.5306 7.6154C3.38995 7.47475 3.19891 7.396 3 7.396C2.80109 7.396 2.61005 7.47475 2.4694 7.6154C2.32875 7.75605 2.25 7.94708 2.25 8.146V10.5633C2.2501 11.0232 2.62292 11.396 3.08333 11.396H12.9167C13.3771 11.396 13.7499 11.0232 13.75 10.5633V8.146C13.75 7.94708 13.6713 7.75605 13.5306 7.6154C13.3899 7.47475 13.1989 7.396 13 7.396ZM8.5 8.18766C8.5 8.21611 8.49675 8.24385 8.49219 8.271H11.25V8.146C11.25 7.68187 11.4342 7.23655 11.7624 6.90837C11.9697 6.70099 12.2239 6.55116 12.5 6.46891V5.16683C12.5 4.70528 12.1282 4.3335 11.6693 4.3335H8.5V8.18766ZM4.33138 4.3335C3.87217 4.3335 3.50004 4.70562 3.5 5.16683V6.46891C3.7761 6.55116 4.03025 6.70099 4.23763 6.90837C4.56582 7.23655 4.75 7.68187 4.75 8.146V8.271H7.50781C7.50325 8.24385 7.5 8.21611 7.5 8.18766V4.3335H4.33138Z" fill="#FAFAFA"/>
</svg>
