<svg width="16" height="16" viewBox="0 0 16 16" fill="none" xmlns="http://www.w3.org/2000/svg">
<path d="M11.6758 12.166C11.8088 12.166 11.9368 12.2189 12.0306 12.3132C12.6218 12.9069 13.1771 12.916 13.916 12.916C14.1922 12.916 14.416 13.1399 14.416 13.416C14.416 13.6922 14.1922 13.916 13.916 13.916C13.26 13.916 12.4658 13.9222 11.6764 13.3281C10.9158 13.9075 10.2053 13.916 9.98372 13.916C9.76245 13.916 9.05169 13.9079 8.29102 13.3288C7.53034 13.9079 6.81955 13.916 6.59831 13.916C6.37671 13.916 5.66573 13.9078 4.90495 13.3281C4.11576 13.9219 3.32193 13.916 2.66602 13.916C2.38987 13.916 2.16602 13.6922 2.16602 13.416C2.16602 13.1399 2.38987 12.916 2.66602 12.916C3.4049 12.916 3.96026 12.9069 4.55143 12.3132L4.62826 12.2507C4.70991 12.196 4.80655 12.166 4.90625 12.166C5.03916 12.1661 5.16663 12.219 5.26042 12.3132C5.86996 12.9254 6.45503 12.916 6.59831 12.916C6.74118 12.916 7.32696 12.9257 7.93685 12.3132L8.01302 12.2507C8.09471 12.196 8.19127 12.166 8.29102 12.166C8.42395 12.166 8.55136 12.219 8.64518 12.3132C9.25507 12.9257 9.84082 12.916 9.98372 12.916C10.1269 12.916 10.712 12.9254 11.3216 12.3132L11.3978 12.2507C11.4794 12.196 11.576 12.1661 11.6758 12.166Z" fill="#FAFAFA"/>
<path d="M11.6758 9.49935C11.8088 9.49935 11.9368 9.55224 12.0306 9.64648C12.6218 10.2402 13.1771 10.2493 13.916 10.2493C14.1922 10.2493 14.416 10.4732 14.416 10.7493C14.416 11.0255 14.1922 11.2493 13.916 11.2493C13.26 11.2493 12.4658 11.2555 11.6764 10.6615C10.9158 11.2409 10.2053 11.2493 9.98372 11.2493C9.76245 11.2493 9.05169 11.2412 8.29102 10.6621C7.53034 11.2412 6.81955 11.2493 6.59831 11.2493C6.37671 11.2493 5.66573 11.2412 4.90495 10.6615C4.11576 11.2552 3.32193 11.2493 2.66602 11.2493C2.38987 11.2493 2.16602 11.0255 2.16602 10.7493C2.16602 10.4732 2.38987 10.2493 2.66602 10.2493C3.4049 10.2493 3.96026 10.2402 4.55143 9.64648L4.62826 9.58398C4.70991 9.52937 4.80655 9.49935 4.90625 9.49935C5.03916 9.4994 5.16663 9.55231 5.26042 9.64648C5.86996 10.2587 6.45503 10.2494 6.59831 10.2493C6.74118 10.2493 7.32696 10.2591 7.93685 9.64648L8.01302 9.58398C8.09471 9.52932 8.19127 9.49935 8.29102 9.49935C8.42395 9.49935 8.55136 9.55232 8.64518 9.64648C9.25507 10.2591 9.84082 10.2493 9.98372 10.2493C10.1269 10.2494 10.712 10.2588 11.3216 9.64648L11.3978 9.58398C11.4794 9.5293 11.576 9.49939 11.6758 9.49935Z" fill="#FAFAFA"/>
<path d="M8 2.66602C8.27599 2.66619 8.5 2.88998 8.5 3.16602V3.39974L8.71289 3.1875C8.90816 2.9923 9.22468 2.99226 9.41992 3.1875C9.61498 3.38276 9.61506 3.69933 9.41992 3.89453L8.5 4.8138V5.16992L8.86328 5.16927L9.7793 4.25391C9.97452 4.05877 10.2911 4.0588 10.4863 4.25391C10.6815 4.44914 10.6815 4.76568 10.4863 4.96094L10.2793 5.16732H10.5104C10.7865 5.16696 11.0105 5.39067 11.0111 5.66667C11.0114 5.94281 10.7879 6.16696 10.5117 6.16732H10.2663L10.4863 6.38737L10.5208 6.42513C10.681 6.62149 10.6693 6.91132 10.4863 7.0944C10.3034 7.27718 10.014 7.28877 9.81771 7.12891L9.7793 7.0944L8.85482 6.16927L8.5 6.16992V6.53385L9.41992 7.45378L9.45443 7.49219C9.61423 7.6885 9.60268 7.97786 9.41992 8.16081C9.23687 8.34386 8.94704 8.35546 8.75065 8.19531L8.71289 8.16081L8.5 7.94792V8.18229C8.5 8.45833 8.27599 8.68212 8 8.68229C7.72386 8.68229 7.5 8.45843 7.5 8.18229V7.94661L7.28646 8.16081C7.09123 8.35604 6.7747 8.35597 6.57943 8.16081C6.3843 7.96553 6.38421 7.64899 6.57943 7.45378L7.5 6.5332V6.17122H7.14128L6.2194 7.0944C6.02415 7.28949 5.70759 7.28955 5.51237 7.0944C5.31736 6.89917 5.31732 6.58258 5.51237 6.38737L5.72591 6.17318L5.49544 6.17383C5.2193 6.17419 4.99515 5.95062 4.99479 5.67448C4.99461 5.39849 5.21811 5.17419 5.49414 5.17383L5.72461 5.17318L5.51237 4.96094C5.31734 4.76569 5.31726 4.44911 5.51237 4.25391C5.70756 4.05871 6.02412 4.05885 6.2194 4.25391L7.13672 5.17122H7.5V4.8151L6.57943 3.89453C6.38419 3.6993 6.38425 3.38277 6.57943 3.1875C6.77469 2.99224 7.0912 2.99224 7.28646 3.1875L7.5 3.40104V3.16602C7.5 2.88987 7.72386 2.66602 8 2.66602Z" fill="#FAFAFA"/>
</svg>
