<svg width="24" height="24" viewBox="0 0 24 24" fill="none" xmlns="http://www.w3.org/2000/svg">
<path d="M19 20.5V22H5V20.5H19ZM19.5 20V4C19.5 3.72386 19.2761 3.5 19 3.5H5C4.72386 3.5 4.5 3.72386 4.5 4V20C4.5 20.2761 4.72386 20.5 5 20.5V22L4.7959 21.9893C3.85435 21.8938 3.1062 21.1457 3.01074 20.2041L3 20V4C3 2.89543 3.89543 2 5 2H19C20.1046 2 21 2.89543 21 4V20L20.9893 20.2041C20.8938 21.1457 20.1457 21.8938 19.2041 21.9893L19 22V20.5C19.2761 20.5 19.5 20.2761 19.5 20Z" fill="#FAFAFA"/>
<path d="M6.45861 16.5938V13.7188C6.45861 13.3046 6.7944 12.9688 7.20861 12.9688C7.62282 12.9688 7.95861 13.3046 7.95861 13.7188V16.5938C7.95861 17.008 7.62282 17.3438 7.20861 17.3438C6.7944 17.3438 6.45861 17.008 6.45861 16.5938Z" fill="#FAFAFA"/>
<path d="M9.66173 18.5103V12.7603C9.66173 12.3461 9.99752 12.0103 10.4117 12.0103C10.8259 12.0103 11.1617 12.3461 11.1617 12.7603V18.5103C11.1617 18.9245 10.8259 19.2603 10.4117 19.2603C9.99752 19.2603 9.66174 18.9245 9.66173 18.5103Z" fill="#FAFAFA"/>
<path d="M12.9112 18.5103V12.7603C12.9112 12.3461 13.247 12.0103 13.6612 12.0103C14.0755 12.0103 14.4112 12.3461 14.4112 12.7603V18.5103C14.4112 18.9245 14.0755 19.2603 13.6612 19.2603C13.247 19.2603 12.9112 18.9245 12.9112 18.5103Z" fill="#FAFAFA"/>
<path d="M16.0416 16.5938V13.7188C16.0416 13.3046 16.3774 12.9688 16.7916 12.9688C17.2058 12.9688 17.5416 13.3046 17.5416 13.7188V16.5938C17.5416 17.008 17.2058 17.3438 16.7916 17.3438C16.3774 17.3438 16.0416 17.008 16.0416 16.5938Z" fill="#FAFAFA"/>
<path d="M13.611 8.0651C13.611 7.17562 12.89 6.45404 12.0006 6.45377C11.111 6.45377 10.3893 7.17546 10.3893 8.0651C10.3895 8.95452 11.1111 9.67545 12.0006 9.67545C12.8899 9.67519 13.6107 8.95436 13.611 8.0651ZM15.111 8.0651C15.1107 9.78278 13.7183 11.1752 12.0006 11.1755C10.2827 11.1755 8.88954 9.78295 8.88927 8.0651C8.88927 6.34703 10.2825 4.95377 12.0006 4.95377C13.7184 4.95404 15.111 6.34719 15.111 8.0651Z" fill="#FAFAFA"/>
</svg>
