<svg width="16" height="16" viewBox="0 0 16 16" fill="none" xmlns="http://www.w3.org/2000/svg">
<path fill-rule="evenodd" clip-rule="evenodd" d="M4.61251 1.98438H11.3875C11.7431 1.98437 12.0409 1.98436 12.2844 2.00425C12.5386 2.02502 12.7787 2.07003 13.0061 2.1859C13.354 2.36317 13.6368 2.64602 13.8141 2.99393C13.93 3.22134 13.975 3.46139 13.9957 3.71562C14.0156 3.95909 14.0156 4.25688 14.0156 4.61254V11.3875C14.0156 11.7431 14.0156 12.0409 13.9957 12.2844C13.975 12.5386 13.93 12.7787 13.8141 13.0061C13.6368 13.354 13.354 13.6368 13.0061 13.8141C12.7787 13.93 12.5386 13.975 12.2844 13.9957C12.0409 14.0156 11.7431 14.0156 11.3875 14.0156H4.61254C4.25688 14.0156 3.95909 14.0156 3.71561 13.9957C3.46139 13.975 3.22134 13.93 2.99393 13.8141C2.64602 13.6368 2.36317 13.354 2.1859 13.0061C2.07003 12.7787 2.02502 12.5386 2.00425 12.2844C1.98436 12.0409 1.98437 11.7431 1.98438 11.3875V4.61251C1.98437 4.25687 1.98436 3.95908 2.00425 3.71562C2.02502 3.46139 2.07003 3.22134 2.1859 2.99392C2.36317 2.64602 2.64602 2.36317 2.99392 2.1859C3.22134 2.07003 3.46139 2.02502 3.71561 2.00425C3.95908 1.98436 4.25687 1.98437 4.61251 1.98438ZM3.01563 6.68034V9.31966H12.9844V6.68034H3.01563ZM12.9844 5.64909H3.01563V4.63333C3.01563 4.25146 3.01603 3.99606 3.03208 3.79959C3.04764 3.60914 3.0753 3.51991 3.10475 3.4621C3.18315 3.30824 3.30824 3.18315 3.4621 3.10475C3.51991 3.0753 3.60914 3.04764 3.79959 3.03208C3.99606 3.01603 4.25146 3.01563 4.63333 3.01563H11.3667C11.7485 3.01563 12.0039 3.01603 12.2004 3.03208C12.3909 3.04764 12.4801 3.0753 12.5379 3.10475C12.6918 3.18315 12.8169 3.30824 12.8952 3.4621C12.9247 3.51991 12.9524 3.60914 12.9679 3.79959C12.984 3.99606 12.9844 4.25146 12.9844 4.63333V5.64909ZM12.9844 10.3509H3.01563V11.3667C3.01563 11.7485 3.01603 12.0039 3.03208 12.2004C3.04764 12.3909 3.0753 12.4801 3.10475 12.5379C3.18315 12.6918 3.30824 12.8169 3.4621 12.8952C3.51991 12.9247 3.60914 12.9524 3.79959 12.9679C3.99606 12.984 4.25146 12.9844 4.63333 12.9844H11.3667C11.7485 12.9844 12.0039 12.984 12.2004 12.9679C12.3909 12.9524 12.4801 12.9247 12.5379 12.8952C12.6918 12.8169 12.8169 12.6918 12.8953 12.5379C12.9247 12.4801 12.9524 12.3909 12.9679 12.2004C12.984 12.0039 12.9844 11.7485 12.9844 11.3667V10.3509Z" fill="#FAFAFA"/>
</svg>
