<svg width="16" height="16" viewBox="0 0 16 16" fill="none" xmlns="http://www.w3.org/2000/svg">
<path d="M8.00017 10.333C8.36836 10.333 8.66683 10.6315 8.66683 10.9997C8.66683 11.3679 8.36836 11.6664 8.00017 11.6664C7.63198 11.6664 7.3335 11.3679 7.3335 10.9997C7.3335 10.6315 7.63198 10.333 8.00017 10.333Z" fill="#FAFAFA"/>
<path d="M8.00017 5.99971C8.27628 5.99974 8.50017 6.22359 8.50017 6.49971V9.16638C8.50008 9.44243 8.27623 9.66634 8.00017 9.66638C7.72407 9.66638 7.50025 9.44245 7.50017 9.16638V6.49971C7.50017 6.22357 7.72402 5.99971 8.00017 5.99971Z" fill="#FAFAFA"/>
<path fill-rule="evenodd" clip-rule="evenodd" d="M6.42399 2.83825C7.13462 1.64311 8.86505 1.64311 9.57569 2.83825L14.5653 11.2295C15.2917 12.4516 14.4108 13.9997 12.9891 13.9997H3.01058C1.58899 13.9996 0.708636 12.4515 1.43506 11.2295L6.42399 2.83825ZM8.71631 3.34932C8.3933 2.80607 7.60704 2.80607 7.28402 3.34932L2.29444 11.7406C1.96443 12.296 2.36453 12.9996 3.01058 12.9997H12.9891C13.6353 12.9997 14.0359 12.296 13.7059 11.7406L8.71631 3.34932Z" fill="#FAFAFA"/>
</svg>
