<svg width="16" height="16" viewBox="0 0 16 16" fill="none" xmlns="http://www.w3.org/2000/svg">
<g clip-path="url(#clip0_16214_1105)">
<path fill-rule="evenodd" clip-rule="evenodd" d="M5.01906 0.9375C5.94217 0.937569 6.82786 1.30433 7.48064 1.95703C7.77252 2.24892 8.00697 2.58758 8.17726 2.95508C8.28047 2.8148 8.39507 2.68196 8.51971 2.55729C9.1725 1.9045 10.0581 1.53784 10.9813 1.53776H11.842C12.2851 1.53783 12.7112 1.90956 12.6532 2.42643C12.5655 3.2065 12.2162 3.93886 11.6558 4.49935C11.003 5.15199 10.1173 5.51881 9.19419 5.51888H8.50018V6.35156C9.28889 6.46598 10.0171 6.84783 10.5601 7.43685C11.0225 7.93855 11.3236 8.56199 11.4338 9.22721L12.0659 8.5957C12.2302 8.43199 12.4257 8.30257 12.6401 8.21419C12.8545 8.12587 13.0841 8.08033 13.3159 8.08073C13.5479 8.08114 13.7776 8.12702 13.9917 8.21615C14.2058 8.30528 14.4003 8.43598 14.564 8.60026C14.7276 8.7645 14.8571 8.95947 14.9455 9.17383C15.0339 9.38826 15.0794 9.61833 15.079 9.85026C15.0785 10.082 15.0326 10.3114 14.9435 10.5254C14.8545 10.7392 14.7234 10.9328 14.5594 11.0964L14.5601 11.097L11.6167 14.041C11.293 14.3652 10.9084 14.6222 10.4852 14.7975C10.0621 14.9728 9.60853 15.0628 9.15057 15.0625H4.41945C4.1433 15.0625 3.91945 14.8386 3.91945 14.5625C3.91946 14.2864 4.14331 14.0625 4.41945 14.0625H9.15057C9.47708 14.0628 9.80072 13.9986 10.1024 13.8737C10.4041 13.7487 10.6783 13.5651 10.909 13.334L13.8537 10.3893C13.9249 10.3183 13.9817 10.2341 14.0204 10.1413C14.059 10.0484 14.0788 9.94886 14.079 9.84831C14.0791 9.7477 14.0593 9.64771 14.021 9.55469C13.9827 9.46179 13.9266 9.37718 13.8556 9.30599C13.7847 9.23477 13.7004 9.17798 13.6076 9.13932C13.5147 9.10066 13.4146 9.08091 13.314 9.08073C13.2135 9.08059 13.1139 9.10038 13.021 9.13867C12.9281 9.17697 12.8435 9.23312 12.7723 9.30404L9.93833 12.138C9.62094 12.4554 9.19889 12.6421 8.75343 12.6693C8.72291 12.6716 8.69231 12.6731 8.66163 12.6738C8.65513 12.6739 8.64861 12.6751 8.6421 12.6751H8.62518V12.6738C8.61699 12.6742 8.60872 12.6751 8.60044 12.6751H5.61281C5.33674 12.6751 5.11289 12.4512 5.11281 12.1751C5.11281 11.899 5.33669 11.6752 5.61281 11.6751H8.60044C8.6085 11.6751 8.61655 11.6754 8.62452 11.6758C8.72529 11.6756 8.82483 11.6526 8.91619 11.61C9.00759 11.5674 9.08883 11.5055 9.15382 11.4284C9.21882 11.3513 9.26663 11.2607 9.29314 11.1634C9.31877 11.0692 9.32317 10.9707 9.30812 10.8743C9.27082 10.7069 9.17821 10.5567 9.0438 10.4499C8.90684 10.341 8.73563 10.2834 8.56072 10.2871L8.55551 10.2878H6.09588L5.99106 10.2357L5.40968 9.94792C4.99629 9.74282 4.53245 9.66055 4.07374 9.71094C3.61505 9.76139 3.1801 9.94244 2.82114 10.2324L2.81919 10.2337C2.54037 10.4574 2.31631 10.7419 2.16359 11.0651C2.01083 11.3885 1.93335 11.7426 1.93768 12.1003V12.1751C1.93762 12.4512 1.71377 12.6751 1.43768 12.6751C1.16167 12.675 0.937736 12.4512 0.937676 12.1751V12.1061C0.932476 11.5988 1.04259 11.0968 1.25929 10.638C1.44965 10.2351 1.71812 9.87478 2.04835 9.57747L2.19354 9.45378C2.70112 9.04399 3.3159 8.78813 3.96437 8.7168C4.20715 8.69011 4.45096 8.68903 4.69158 8.71419C4.90747 8.05438 5.31711 7.46997 5.87257 7.04102C6.35017 6.67226 6.91176 6.43704 7.50018 6.35156V4.91862H6.80617C5.88304 4.9185 4.99733 4.55185 4.34458 3.89909C3.7841 3.33852 3.43416 2.60635 3.34653 1.82617C3.28854 1.30938 3.71534 0.937671 4.15838 0.9375H5.01906ZM8.20916 7.32422C7.59077 7.27202 6.97511 7.45341 6.4839 7.83268C6.10483 8.12542 5.82141 8.51974 5.66294 8.96549C5.72716 8.99259 5.791 9.02098 5.85369 9.05208L6.33025 9.28776H8.55031C8.9548 9.28162 9.34936 9.41544 9.66619 9.66732C9.92053 9.86956 10.1105 10.1383 10.2202 10.4408L10.4481 10.2122C10.4725 10.0753 10.4839 9.93618 10.4813 9.79687V9.78906C10.4795 9.16842 10.2451 8.57093 9.82439 8.11458C9.40378 7.65839 8.82747 7.37648 8.20916 7.32422ZM10.9813 2.53776C10.3233 2.53784 9.69199 2.79907 9.22674 3.26432C8.88128 3.60988 8.64867 4.04737 8.55161 4.51888H9.19419C9.85204 4.51881 10.4835 4.25742 10.9487 3.79232C11.2942 3.44679 11.5268 3.00925 11.6239 2.53776H10.9813ZM4.37648 1.9375C4.47353 2.40907 4.7061 2.84647 5.05161 3.19206C5.51683 3.65728 6.14825 3.9185 6.80617 3.91862H7.44874C7.35166 3.44704 7.11917 3.00964 6.77361 2.66406C6.30836 2.19889 5.67696 1.93757 5.01906 1.9375H4.37648Z" fill="#FAFAFA"/>
</g>
<defs>
<clipPath id="clip0_16214_1105">
<rect width="16" height="16" fill="white"/>
</clipPath>
</defs>
</svg>
