<svg width="16" height="16" viewBox="0 0 16 16" fill="none" xmlns="http://www.w3.org/2000/svg">
<path d="M6.5625 11.2858C6.5625 10.7191 6.56152 10.3443 6.52409 10.0664C6.48862 9.80302 6.42885 9.70275 6.36589 9.63997L6.36458 9.63867C6.30183 9.57569 6.20152 9.51596 5.93815 9.48047C5.66022 9.44304 5.28542 9.44206 4.71875 9.44206C4.15209 9.44206 3.77728 9.44304 3.49935 9.48047C3.23598 9.51596 3.13567 9.57569 3.07292 9.63867L3.07162 9.63997C3.00865 9.70275 2.94888 9.80302 2.91341 10.0664C2.87598 10.3443 2.875 10.7191 2.875 11.2858C2.875 11.8524 2.87598 12.2272 2.91341 12.5052C2.94008 12.7032 2.98045 12.8089 3.02539 12.8757L3.07162 12.931L3.07292 12.9329L3.12891 12.9792C3.19593 13.0242 3.3018 13.0645 3.49935 13.0911C3.77728 13.1286 4.15209 13.1296 4.71875 13.1296C5.28542 13.1296 5.66022 13.1286 5.93815 13.0911C6.20142 13.0557 6.30182 12.9959 6.36458 12.9329L6.36589 12.9316L6.41211 12.8757C6.4572 12.8086 6.49744 12.7024 6.52409 12.5046C6.56148 12.2267 6.5625 11.8522 6.5625 11.2858ZM13.125 11.2858C13.125 10.7191 13.124 10.3443 13.0866 10.0664C13.0511 9.80302 12.9913 9.70275 12.9284 9.63997L12.9271 9.63867C12.8643 9.57569 12.764 9.51596 12.5007 9.48047C12.2227 9.44304 11.8479 9.44206 11.2813 9.44206C10.7146 9.44206 10.3398 9.44304 10.0619 9.48047C9.79848 9.51596 9.69817 9.57569 9.63542 9.63867L9.63412 9.63997C9.57115 9.70275 9.51138 9.80302 9.47591 10.0664C9.43848 10.3443 9.4375 10.7191 9.4375 11.2858C9.4375 11.8522 9.43852 12.2267 9.47591 12.5046C9.50256 12.7024 9.54281 12.8086 9.58789 12.8757L9.63412 12.9316L9.63542 12.9329L9.69141 12.9792C9.75843 13.0242 9.8643 13.0645 10.0619 13.0911C10.3398 13.1286 10.7146 13.1296 11.2813 13.1296C11.8479 13.1296 12.2227 13.1286 12.5007 13.0911C12.7639 13.0557 12.8643 12.9959 12.9271 12.9329L12.9284 12.9316L12.9746 12.8757C13.0197 12.8086 13.0599 12.7024 13.0866 12.5046C13.124 12.2267 13.125 11.8522 13.125 11.2858ZM6.5625 4.71875C6.5625 4.15209 6.56152 3.77728 6.52409 3.49935C6.4886 3.23597 6.42887 3.13567 6.36589 3.07292L6.36458 3.07162C6.30183 3.00863 6.20153 2.9489 5.93815 2.91341C5.66022 2.87598 5.28542 2.875 4.71875 2.875C4.15195 2.875 3.77725 2.87602 3.49935 2.91341C3.23581 2.9489 3.13592 3.00893 3.07357 3.07162L3.07162 3.07292C3.00863 3.13567 2.9489 3.23597 2.91341 3.49935C2.87598 3.77728 2.875 4.15209 2.875 4.71875C2.875 5.28555 2.87602 5.66025 2.91341 5.93815C2.94006 6.13599 2.98046 6.24185 3.02539 6.3086L3.07162 6.36393L3.07292 6.36589L3.12891 6.41211C3.19593 6.45715 3.30173 6.49746 3.49935 6.52409C3.77728 6.56152 4.15209 6.5625 4.71875 6.5625C5.28542 6.5625 5.66022 6.56152 5.93815 6.52409C6.20153 6.4886 6.30183 6.42887 6.36458 6.36589L6.36589 6.36458L6.41211 6.3086C6.45715 6.24158 6.49746 6.13577 6.52409 5.93815C6.56152 5.66022 6.5625 5.28542 6.5625 4.71875ZM13.125 4.71875C13.125 4.15209 13.124 3.77728 13.0866 3.49935C13.0511 3.23597 12.9914 3.13567 12.9284 3.07292L12.9271 3.07162C12.8643 3.00863 12.764 2.9489 12.5007 2.91341C12.2227 2.87598 11.8479 2.875 11.2813 2.875C10.7146 2.875 10.3398 2.87598 10.0619 2.91341C9.79847 2.9489 9.69817 3.00863 9.63542 3.07162L9.63412 3.07292C9.57113 3.13567 9.5114 3.23597 9.47591 3.49935C9.43848 3.77728 9.4375 4.15209 9.4375 4.71875C9.4375 5.28542 9.43848 5.66022 9.47591 5.93815C9.50254 6.13577 9.54285 6.24158 9.58789 6.3086L9.63412 6.36458L9.63542 6.36589L9.69141 6.41211C9.75843 6.45715 9.86423 6.49746 10.0619 6.52409C10.3398 6.56152 10.7146 6.5625 11.2813 6.5625C11.8479 6.5625 12.2227 6.56152 12.5007 6.52409C12.764 6.4886 12.8643 6.42887 12.9271 6.36589L12.9284 6.36458L12.9746 6.3086C13.0196 6.24158 13.06 6.13577 13.0866 5.93815C13.124 5.66022 13.125 5.28542 13.125 4.71875ZM7.5625 11.2858C7.5625 11.8239 7.56344 12.2779 7.51498 12.638C7.4646 13.0121 7.35213 13.3585 7.07227 13.638L7.07292 13.6387C6.79325 13.9193 6.44611 14.0316 6.07162 14.082C5.71142 14.1305 5.25709 14.1296 4.71875 14.1296C4.18042 14.1296 3.72608 14.1305 3.36589 14.082C2.99139 14.0316 2.64426 13.9193 2.36458 13.6387L2.36524 13.638C2.08528 13.3587 1.97287 13.0125 1.92253 12.6387C1.87403 12.2785 1.875 11.8241 1.875 11.2858C1.875 10.7475 1.87402 10.2931 1.92253 9.93294C1.97297 9.55839 2.0852 9.21135 2.36589 8.93164C2.64535 8.65183 2.99191 8.53997 3.36589 8.48958C3.72608 8.44108 4.18042 8.44206 4.71875 8.44206C5.25709 8.44206 5.71142 8.44108 6.07162 8.48958C6.44559 8.53997 6.79215 8.65183 7.07162 8.93164L7.16927 9.03971C7.3794 9.29864 7.47084 9.60526 7.51498 9.93294C7.56348 10.2931 7.5625 10.7475 7.5625 11.2858ZM14.125 11.2858C14.125 11.8239 14.1259 12.2779 14.0775 12.638C14.0271 13.0121 13.9146 13.3585 13.6348 13.638L13.6354 13.6387C13.3557 13.9193 13.0086 14.0316 12.6341 14.082C12.2739 14.1305 11.8196 14.1296 11.2813 14.1296C10.7429 14.1296 10.2886 14.1305 9.92839 14.082C9.55389 14.0316 9.20676 13.9193 8.92708 13.6387V13.638C8.64746 13.3586 8.53538 13.0119 8.48503 12.638C8.43656 12.2779 8.4375 11.8239 8.4375 11.2858C8.4375 10.7475 8.43652 10.2931 8.48503 9.93294C8.53547 9.55839 8.6477 9.21135 8.92839 8.93164C9.20785 8.65183 9.55441 8.53997 9.92839 8.48958C10.2886 8.44108 10.7429 8.44206 11.2813 8.44206C11.8196 8.44206 12.2739 8.44108 12.6341 8.48958C13.0081 8.53997 13.3546 8.65183 13.6341 8.93164L13.7318 9.03971C13.9419 9.29864 14.0333 9.60526 14.0775 9.93294C14.126 10.2931 14.125 10.7475 14.125 11.2858ZM7.5625 4.71875C7.5625 5.25709 7.56348 5.71142 7.51498 6.07162C7.46459 6.44556 7.35202 6.79151 7.07227 7.07096L7.07292 7.07162C6.79324 7.35232 6.44614 7.46451 6.07162 7.51498C5.71142 7.56348 5.25709 7.5625 4.71875 7.5625C4.18042 7.5625 3.72608 7.56348 3.36589 7.51498C2.99209 7.46461 2.64594 7.35243 2.36654 7.07292L2.36589 7.07357C2.08483 6.79404 1.97297 6.44618 1.92253 6.07162C1.87405 5.71146 1.875 5.25726 1.875 4.71875C1.875 4.18042 1.87402 3.72608 1.92253 3.36589C1.97289 2.99209 2.08507 2.64594 2.36458 2.36654L2.36393 2.36589C2.64346 2.08483 2.99132 1.97297 3.36589 1.92253C3.72604 1.87405 4.18024 1.875 4.71875 1.875C5.25709 1.875 5.71142 1.87402 6.07162 1.92253C6.44556 1.97291 6.79216 2.08483 7.07162 2.36458L7.16927 2.47266C7.37943 2.73156 7.47083 3.03822 7.51498 3.36589C7.56348 3.72608 7.5625 4.18042 7.5625 4.71875ZM14.125 4.71875C14.125 5.25709 14.126 5.71142 14.0775 6.07162C14.0271 6.44556 13.9145 6.79151 13.6348 7.07096L13.6354 7.07162C13.3557 7.35232 13.0086 7.46451 12.6341 7.51498C12.2739 7.56348 11.8196 7.5625 11.2813 7.5625C10.7429 7.5625 10.2886 7.56348 9.92839 7.51498C9.55386 7.46451 9.20677 7.35232 8.92708 7.07162V7.07096C8.64757 6.79156 8.53539 6.44542 8.48503 6.07162C8.43652 5.71142 8.4375 5.25709 8.4375 4.71875C8.4375 4.18042 8.43652 3.72608 8.48503 3.36589C8.53549 2.99136 8.64769 2.64427 8.92839 2.36458C9.20784 2.08483 9.55444 1.97291 9.92839 1.92253C10.2886 1.87402 10.7429 1.875 11.2813 1.875C11.8196 1.875 12.2739 1.87402 12.6341 1.92253C13.0081 1.97291 13.3547 2.08483 13.6341 2.36458L13.7318 2.47266C13.9419 2.73156 14.0333 3.03822 14.0775 3.36589C14.126 3.72608 14.125 4.18042 14.125 4.71875Z" fill="#FAFAFA"/>
</svg>
