<svg width="16" height="16" viewBox="0 0 16 16" fill="none" xmlns="http://www.w3.org/2000/svg">
<path fill-rule="evenodd" clip-rule="evenodd" d="M3.83301 3C3.37277 3 2.99967 3.3731 2.99967 3.83333V6.83333C2.99967 7.10948 2.77582 7.33333 2.49967 7.33333C2.22353 7.33333 1.99967 7.10948 1.99967 6.83333V3.83333C1.99967 2.82081 2.82048 2 3.83301 2H12.833C13.8455 2 14.6663 2.82081 14.6663 3.83333V8.83333C14.6663 9.84586 13.8455 10.6667 12.833 10.6667H9.83301C9.55686 10.6667 9.33301 10.4428 9.33301 10.1667C9.33301 9.89052 9.55686 9.66667 9.83301 9.66667H12.833C13.2932 9.66667 13.6663 9.29357 13.6663 8.83333V3.83333C13.6663 3.3731 13.2932 3 12.833 3H3.83301ZM8.99967 5.16667C8.99967 4.89052 9.22353 4.66667 9.49967 4.66667H11.4997C11.7758 4.66667 11.9997 4.89052 11.9997 5.16667V7.16667C11.9997 7.44281 11.7758 7.66667 11.4997 7.66667C11.2235 7.66667 10.9997 7.44281 10.9997 7.16667V6.37377L9.68656 7.68689C9.4913 7.88215 9.17472 7.88215 8.97945 7.68689C8.78419 7.49162 8.78419 7.17504 8.97945 6.97978L10.2926 5.66667H9.49967C9.22353 5.66667 8.99967 5.44281 8.99967 5.16667ZM1.33301 10.5C1.33301 9.48748 2.15382 8.66667 3.16634 8.66667H6.16634C7.17886 8.66667 7.99967 9.48748 7.99967 10.5V12.8333C7.99967 13.8459 7.17886 14.6667 6.16634 14.6667H3.16634C2.15382 14.6667 1.33301 13.8459 1.33301 12.8333V10.5ZM3.16634 9.66667C2.7061 9.66667 2.33301 10.0398 2.33301 10.5V12.8333C2.33301 13.2936 2.7061 13.6667 3.16634 13.6667H6.16634C6.62658 13.6667 6.99967 13.2936 6.99967 12.8333V10.5C6.99967 10.0398 6.62658 9.66667 6.16634 9.66667H3.16634Z" fill="#FAFAFA"/>
</svg>
