<svg width="16" height="16" viewBox="0 0 16 16" fill="none" xmlns="http://www.w3.org/2000/svg">
<path d="M13.0007 10.8337C13.2768 10.8337 13.5007 11.0575 13.5007 11.3337C13.5007 11.6098 13.2768 11.8337 13.0007 11.8337H3.00065C2.72451 11.8337 2.50065 11.6098 2.50065 11.3337C2.50065 11.0575 2.72451 10.8337 3.00065 10.8337H13.0007Z" fill="#FAFAFA"/>
<path fill-rule="evenodd" clip-rule="evenodd" d="M3.16732 4.66699C3.16732 5.1949 3.26622 5.6996 3.44531 6.16439C3.81759 6.15502 4.17897 6.10158 4.50391 6.00879C4.86294 5.90626 5.15417 5.76321 5.36328 5.60319L5.43359 5.55827C5.60419 5.46798 5.81501 5.48319 5.972 5.60384C6.18011 5.76389 6.47105 5.90751 6.83008 6.01009C7.18742 6.11218 7.58902 6.16699 8.00065 6.16699C8.41228 6.16699 8.81387 6.11218 9.17122 6.01009C9.53022 5.90752 9.82115 5.76391 10.0293 5.60384L10.0996 5.55892C10.2703 5.46819 10.4814 5.48299 10.6387 5.60384C10.8468 5.76391 11.1377 5.90752 11.4967 6.01009C11.8216 6.1029 12.183 6.15604 12.5553 6.16504C12.7346 5.70004 12.834 5.1952 12.834 4.66699V4.16699H14.6673C14.9435 4.16699 15.1673 4.39085 15.1673 4.66699C15.1673 4.94313 14.9435 5.16699 14.6673 5.16699H13.8092C13.5577 7.78582 11.3521 9.83366 8.66732 9.83366H7.33398C4.64922 9.83366 2.44358 7.78582 2.19206 5.16699H1.33398C1.05784 5.16699 0.833984 4.94313 0.833984 4.66699C0.833984 4.39085 1.05784 4.16699 1.33398 4.16699H3.16732V4.66699ZM10.334 6.59928C10.0683 6.75449 9.76754 6.8798 9.44596 6.97168C8.99258 7.10121 8.49797 7.16699 8.00065 7.16699C7.50333 7.16699 7.00872 7.10121 6.55534 6.97168C6.23357 6.87974 5.93248 6.75462 5.66667 6.59928C5.40084 6.75407 5.10007 6.87858 4.77865 6.97038C4.52095 7.04397 4.24989 7.09637 3.97266 7.12858C4.7309 8.16221 5.95381 8.83366 7.33398 8.83366H8.66732C10.047 8.83366 11.269 8.16227 12.0273 7.12923C11.7503 7.09716 11.4795 7.04524 11.222 6.97168C10.9004 6.8798 10.5997 6.75449 10.334 6.59928Z" fill="#FAFAFA"/>
</svg>
