<svg width="16" height="16" viewBox="0 0 16 16" fill="none" xmlns="http://www.w3.org/2000/svg">
<path fill-rule="evenodd" clip-rule="evenodd" d="M10.0723 2.86368C12.8791 3.42505 13.5572 5.92242 13.5573 7.06159C13.5573 7.61385 13.1096 8.06159 12.5573 8.06159C12.2931 8.0616 12.0569 8.09426 11.8451 8.15144L11.8984 8.24323L12.3112 8.95808C12.4811 8.91527 12.6592 8.89232 12.8424 8.89232C14.0389 8.8925 15.0091 9.86248 15.0091 11.059C15.0091 12.2555 14.0389 13.2255 12.8424 13.2257C11.6459 13.2257 10.6758 12.2556 10.6758 11.059C10.6758 10.4049 10.9662 9.81954 11.4245 9.42227L11.0326 8.74323L10.9609 8.61954C10.8812 8.68844 10.8076 8.76156 10.7396 8.83698C10.3275 9.29396 10.1171 9.85363 10.056 10.1898C9.96949 10.6653 9.55486 11.0108 9.07161 11.0108H6.65885C6.17013 11.0108 5.75302 10.6575 5.67253 10.1755C5.58629 9.65822 5.43399 9.3552 5.32292 9.19636C5.19576 9.01461 5.13997 9.03899 5.27018 9.08243C5.22335 9.06681 5.17802 9.04742 5.13411 9.02513L4.80013 9.60391C5.14973 9.98866 5.36458 10.4982 5.36458 11.059C5.36453 12.2556 4.3945 13.2257 3.19792 13.2257C2.00133 13.2257 1.03131 12.2556 1.03125 11.059C1.03125 9.86237 2.0013 8.89232 3.19792 8.89232C3.4712 8.89232 3.73251 8.94322 3.97331 9.03555L4.27669 8.51016C3.99087 8.36445 3.83114 8.32983 3.70964 8.32982C3.59395 8.32982 3.35908 8.35869 3.05924 8.41381C2.77877 8.46537 2.50472 8.52787 2.34375 8.5681C2.04502 8.64279 1.72839 8.5753 1.48568 8.38581C1.24308 8.19636 1.101 7.90585 1.10091 7.59805V6.79336C1.10096 6.52822 1.20639 6.27382 1.39388 6.08633C1.56672 5.91353 1.77568 5.80036 1.9069 5.73542C2.05926 5.66004 2.22378 5.59392 2.375 5.53881C2.67819 5.42833 2.99456 5.33802 3.19922 5.28685L3.24544 5.27644C4.01955 5.12165 4.94677 5.28856 5.67057 5.47696C6.11297 5.59212 6.54089 5.73463 6.9095 5.87084C7.43499 5.39592 8.04576 5.16235 8.62435 5.08503C8.83262 5.05721 9.03698 5.05003 9.23307 5.05704C9.15648 4.75397 9.04727 4.44858 8.95703 4.23802C8.81085 3.89673 8.86567 3.50226 9.09961 3.21394C9.33357 2.92567 9.7082 2.79091 10.0723 2.86368ZM3.19792 9.89232C2.55358 9.89232 2.03125 10.4147 2.03125 11.059C2.03131 11.7033 2.55362 12.2257 3.19792 12.2257C3.84221 12.2257 4.36453 11.7033 4.36458 11.059C4.36458 10.4147 3.84225 9.89232 3.19792 9.89232ZM12.8424 9.89232C12.1981 9.89232 11.6758 10.4147 11.6758 11.059C11.6758 11.7033 12.1981 12.2257 12.8424 12.2257C13.4866 12.2255 14.0091 11.7032 14.0091 11.059C14.0091 10.4148 13.4866 9.8925 12.8424 9.89232ZM9.8763 3.84414C10.0161 4.17028 10.1997 4.69569 10.2826 5.18464C10.3586 5.63333 10.3496 6.05148 10.1445 6.25691L10.0176 6.20808C9.33795 5.96832 7.99967 5.85523 7.19531 7.06159L6.847 6.91576C5.93429 6.55261 4.37986 6.06923 3.44141 6.25691C3.08397 6.34627 2.31554 6.5789 2.10091 6.79336V7.59805C2.45842 7.50868 3.28066 7.32982 3.70964 7.32982L3.8099 7.33308C4.31367 7.36441 4.8324 7.63107 5.58659 8.13386C5.83797 8.21773 6.37206 8.66307 6.61458 9.77839L6.65885 10.0108H9.07161L9.11458 9.8155C9.37469 8.78943 10.3456 7.06167 12.5573 7.06159C12.5572 6.16782 12.0211 4.27312 9.8763 3.84414Z" fill="#FAFAFA"/>
</svg>
