<svg width="16" height="16" viewBox="0 0 16 16" fill="none" xmlns="http://www.w3.org/2000/svg">
<path d="M11.1036 13.2992C11.9138 12.8101 12.918 12.7698 13.7645 13.1931L14.769 13.6957C15.0158 13.8193 15.1158 14.1194 14.9923 14.3662C14.8688 14.613 14.5686 14.7129 14.3217 14.5895L13.3172 14.0876C12.7774 13.8177 12.1372 13.8434 11.6206 14.1553L11.5633 14.1898C10.714 14.7026 9.64905 14.698 8.80416 14.1781C8.2902 13.8618 7.64454 13.8513 7.12057 14.1507L7.01185 14.2126C6.14126 14.7101 5.07043 14.7016 4.20781 14.1905C3.656 13.8635 2.97121 13.8573 2.41354 14.1742L1.7039 14.5772C1.46389 14.7134 1.1587 14.6296 1.02226 14.3897C0.885873 14.1496 0.970363 13.8445 1.21041 13.708L1.9194 13.305C2.78911 12.8109 3.85702 12.8205 4.71757 13.3304C5.27068 13.6581 5.95753 13.6637 6.51575 13.3448L6.62448 13.2823C7.46598 12.8014 8.50283 12.8186 9.32825 13.3265C9.85432 13.6502 10.5176 13.6529 11.0464 13.3337L11.1036 13.2992Z" fill="#FAFAFA"/>
<path fill-rule="evenodd" clip-rule="evenodd" d="M6.58281 1.97756C6.80108 1.97909 7.01054 2.06395 7.20716 2.14358L13.6408 4.72822C13.8914 4.8291 14.0147 5.11555 13.9161 5.36819C13.8175 5.62093 13.5342 5.74435 13.2833 5.64358L12.491 5.32522L13.7677 10.4437C13.7061 10.4129 13.6429 10.3851 13.5796 10.3591C13.6418 10.3847 13.7037 10.412 13.7645 10.4424L14.769 10.945C15.0158 11.0686 15.1158 11.3687 14.9923 11.6156C14.8688 11.8624 14.5686 11.9623 14.3217 11.8389L13.3172 11.3369C12.7774 11.0671 12.1372 11.0928 11.6206 11.4046L11.5633 11.4392C10.714 11.9519 9.64905 11.9473 8.80416 11.4274C8.2902 11.1111 7.64454 11.1007 7.12057 11.4001L7.01185 11.4619C6.14126 11.9594 5.07043 11.9509 4.20781 11.4398C3.656 11.1129 2.97121 11.1067 2.41354 11.4235L1.7039 11.8265C1.46389 11.9628 1.1587 11.8789 1.02226 11.639C0.885873 11.3989 0.970363 11.0938 1.21041 10.9574L1.9194 10.5544C2.25263 10.365 2.61523 10.2497 2.98385 10.208L2.39401 7.8428L1.84388 8.49579C1.66966 8.7025 1.36143 8.72668 1.15573 8.54983C0.950065 8.37295 0.924899 8.06192 1.09909 7.85517L5.53073 2.5941L5.56588 2.55309C5.70216 2.3904 5.84707 2.2168 6.03919 2.11298C6.20607 2.02281 6.39313 1.97629 6.58281 1.97756ZM6.58021 2.96324C6.55361 2.96319 6.52749 2.96959 6.50403 2.98212C6.50051 2.98459 6.4877 2.99434 6.46172 3.02118C6.41928 3.06505 6.36634 3.12692 6.27552 3.23473L3.1694 6.92158L4.00729 10.2823C4.25327 10.3471 4.49268 10.4465 4.71757 10.5798C5.27068 10.9075 5.95753 10.913 6.51575 10.5941L6.62448 10.5316C6.6684 10.5065 6.71301 10.483 6.75794 10.4606L6.16419 8.24514C5.99561 7.61521 6.37649 6.96937 7.00924 6.81155L8.29179 6.49189C8.91696 6.33607 9.54999 6.71634 9.70586 7.3415L10.562 10.7777C10.7302 10.7391 10.894 10.675 11.0464 10.583L11.1036 10.5485C11.5881 10.256 12.1422 10.1236 12.6902 10.1553L11.3738 4.876L6.90052 3.07913C6.7696 3.02653 6.69362 2.99637 6.63554 2.97756C6.6002 2.96613 6.58449 2.96377 6.58021 2.96324ZM8.53333 7.46194L7.25143 7.7816C7.16122 7.8041 7.10661 7.89621 7.13034 7.98603L7.72148 10.1924C8.27488 10.1469 8.83873 10.2746 9.32825 10.5759C9.3854 10.611 9.44465 10.6414 9.50468 10.669L8.7358 7.58368C8.71354 7.49437 8.62264 7.43967 8.53333 7.46194Z" fill="#FAFAFA"/>
</svg>
