<svg width="16" height="16" viewBox="0 0 16 16" fill="none" xmlns="http://www.w3.org/2000/svg">
<path fill-rule="evenodd" clip-rule="evenodd" d="M10.0007 2.4502C10.2768 2.4502 10.5007 2.67405 10.5007 2.9502C10.5005 3.22619 10.2767 3.4502 10.0007 3.4502H8.50065V5.33561H11.3346L11.5059 5.34017C13.2669 5.4293 14.6673 6.88513 14.6673 8.66829C14.6673 10.2883 13.5112 11.6375 11.9792 11.9378V13.0492C11.9792 13.3252 11.7552 13.549 11.4792 13.5492C11.203 13.5492 10.9792 13.3253 10.9792 13.0492V12.001H5.02214V13.0492C5.02214 13.3253 4.79828 13.5492 4.52214 13.5492C4.24599 13.5492 4.02214 13.3253 4.02214 13.0492V11.9378C2.49007 11.6375 1.33398 10.2883 1.33398 8.66829C1.33398 6.88513 2.73443 5.4293 4.49544 5.34017L4.66667 5.33561H7.50065V3.4502H6.00065C5.72462 3.4502 5.50083 3.22619 5.50065 2.9502C5.50065 2.67405 5.72451 2.4502 6.00065 2.4502H10.0007ZM4.66667 6.33561C3.37836 6.33561 2.33398 7.37999 2.33398 8.66829C2.33398 9.9566 3.37836 11.001 4.66667 11.001H11.3346C12.6229 11.001 13.6673 9.9566 13.6673 8.66829C13.6673 7.37999 12.6229 6.33561 11.3346 6.33561H4.66667Z" fill="#FAFAFA"/>
</svg>
