<svg width="16" height="16" viewBox="0 0 16 16" fill="none" xmlns="http://www.w3.org/2000/svg">
<path d="M5.29004 5.2905C5.48531 5.09536 5.80185 5.09528 5.99707 5.2905C6.19175 5.48576 6.19202 5.80244 5.99707 5.99753C5.46584 6.52881 5.16706 7.24915 5.16699 8.00046C5.16704 8.75184 5.46576 9.47306 5.99707 10.0044C6.19182 10.1996 6.19201 10.5163 5.99707 10.7114C5.80196 10.9065 5.48532 10.9062 5.29004 10.7114C4.6901 10.1115 4.30977 9.33259 4.2002 8.50046H2C1.72392 8.50046 1.5001 8.27651 1.5 8.00046C1.5 7.72432 1.72386 7.50046 2 7.50046H4.2002C4.30977 6.66848 4.69016 5.89042 5.29004 5.2905Z" fill="#FAFAFA"/>
<path d="M10.0029 5.28952C10.1981 5.09449 10.5147 5.09465 10.71 5.28952C11.31 5.88953 11.6903 6.66831 11.7998 7.50046H14C14.2761 7.50046 14.5 7.72432 14.5 8.00046C14.4999 8.27652 14.2761 8.50046 14 8.50046H11.7998C11.6902 9.33242 11.3098 10.1106 10.71 10.7104C10.5147 10.9054 10.1981 10.9056 10.0029 10.7104C9.8082 10.5152 9.80806 10.1985 10.0029 10.0034C10.5342 9.47205 10.833 8.75088 10.833 7.99948C10.8328 7.24829 10.5341 6.52774 10.0029 5.99655C9.80814 5.80137 9.80812 5.48469 10.0029 5.28952Z" fill="#FAFAFA"/>
<path d="M8 6.66745C8.35362 6.66745 8.69331 6.80803 8.94336 7.05808C9.19316 7.30809 9.33398 7.64702 9.33398 8.00046C9.33395 8.35389 9.19318 8.69286 8.94336 8.94284C8.69332 9.19286 8.3536 9.33347 8 9.33347C7.64652 9.33338 7.30758 9.19278 7.05762 8.94284C6.80769 8.69284 6.66703 8.35396 6.66699 8.00046C6.66699 7.64695 6.80771 7.3081 7.05762 7.05808C7.30759 6.80811 7.6465 6.66754 8 6.66745Z" fill="#FAFAFA"/>
</svg>
