<svg width="16" height="16" viewBox="0 0 16 16" fill="none" xmlns="http://www.w3.org/2000/svg">
<path fill-rule="evenodd" clip-rule="evenodd" d="M13.1999 1.89941C13.4759 1.89941 13.6997 2.12339 13.6999 2.39941V7.99902C14.1697 8.19494 14.4999 8.65887 14.5 9.19954C14.4999 9.74012 14.1695 10.2033 13.6999 10.3994V12.3994C13.6999 12.8503 13.5212 13.2831 13.2025 13.6019C12.8837 13.9206 12.4509 14.0999 12 14.0999C11.5492 14.0999 11.1169 13.9205 10.7982 13.6019C10.4795 13.2831 10.3001 12.8503 10.3001 12.3994V11.9997C10.3001 11.7235 10.524 11.4997 10.8001 11.4997C11.0763 11.4997 11.3001 11.7235 11.3001 11.9997V12.3994C11.3001 12.585 11.3739 12.7635 11.5052 12.8949C11.6365 13.026 11.8145 13.0999 12 13.0999C12.1855 13.0999 12.3635 13.026 12.4948 12.8949L12.5417 12.8434C12.6438 12.7188 12.6999 12.5618 12.6999 12.3994V10.3994C12.2302 10.2034 11.8998 9.74016 11.8997 9.19954C11.8998 8.65883 12.2301 8.19491 12.6999 7.99902V2.39941C12.7 2.12339 12.9238 1.89941 13.1999 1.89941ZM13.1999 8.89941C13.0343 8.89941 12.8999 9.03399 12.8997 9.19954C12.8998 9.36515 13.0342 9.49967 13.1999 9.49967C13.3654 9.4996 13.4999 9.36511 13.5 9.19954C13.4999 9.03404 13.3654 8.89948 13.1999 8.89941Z" fill="#FAFAFA"/>
<path d="M8.39974 6.89941C8.7862 6.89941 9.0994 7.21287 9.09961 7.59928C9.09961 7.98588 8.78634 8.29915 8.39974 8.29915C8.0132 8.29908 7.69987 7.98584 7.69987 7.59928C7.70008 7.21291 8.01334 6.89948 8.39974 6.89941Z" fill="#FAFAFA"/>
<path fill-rule="evenodd" clip-rule="evenodd" d="M8 5.09993C8.67656 5.09993 9.38301 5.36931 9.92253 5.79199C10.4601 6.21323 10.8997 6.8445 10.8997 7.59993C10.8996 8.35532 10.4601 8.98669 9.92253 9.40788C9.38302 9.8305 8.6765 10.0999 8 10.0999C6.32381 10.0999 4.89036 9.09502 4.00911 8.29785L3.03646 9.27116C2.91068 9.39666 2.74955 9.48201 2.57487 9.5166C2.40022 9.55123 2.21938 9.53377 2.05534 9.46582C1.89092 9.39765 1.75048 9.28171 1.65169 9.13379C1.55299 8.98587 1.49998 8.81168 1.5 8.63379V6.56608L1.50977 6.43392C1.52915 6.30296 1.57763 6.17712 1.65169 6.06608C1.75048 5.91812 1.89104 5.80224 2.05534 5.73405C2.21956 5.66599 2.40043 5.64807 2.57487 5.68262C2.7058 5.70859 2.82913 5.76336 2.93555 5.84212L3.03581 5.92871L4.00846 6.90137C4.88968 6.10415 6.32362 5.09993 8 5.09993ZM8 6.09993C6.7143 6.09993 5.53555 6.88171 4.72917 7.59993C5.53555 8.31813 6.71438 9.09993 8 9.09993C8.42788 9.09993 8.92167 8.92184 9.30599 8.62077C9.69214 8.31821 9.89964 7.94889 9.89974 7.59993C9.89974 7.25094 9.69215 6.88171 9.30599 6.5791C8.92165 6.27797 8.42793 6.09993 8 6.09993ZM2.5 8.3929L3.29297 7.59993L2.5 6.80697V8.3929Z" fill="#FAFAFA"/>
</svg>
