<svg width="16" height="16" viewBox="0 0 16 16" fill="none" xmlns="http://www.w3.org/2000/svg">
<path fill-rule="evenodd" clip-rule="evenodd" d="M5.51025 5.97728C5.79757 5.97728 6.03049 6.18985 6.03049 6.45206V10.1538C6.23566 10.2224 6.42507 10.3297 6.58256 10.4734C6.86688 10.7329 7.02689 11.0852 7.02693 11.4521C7.02685 11.8187 6.86653 12.17 6.58256 12.4294L6.58324 12.4301C6.29895 12.6896 5.9128 12.8354 5.51093 12.8356C5.15916 12.8356 4.81957 12.7239 4.54971 12.5222L4.43862 12.4301C4.15432 12.1706 3.99434 11.8189 3.99425 11.4521C3.9943 11.0851 4.15427 10.7329 4.43862 10.4734C4.59601 10.3299 4.78493 10.2224 4.99002 10.1538V6.45206C4.99002 6.18985 5.22294 5.97729 5.51025 5.97728ZM5.51025 11.0181C5.5089 11.0181 5.50754 11.0175 5.50619 11.0175C5.3817 11.0185 5.26247 11.0645 5.17427 11.1448C5.08509 11.2262 5.03477 11.3369 5.03472 11.4521C5.03481 11.5671 5.08512 11.6773 5.17427 11.7587L5.24675 11.8131C5.32428 11.8602 5.41632 11.886 5.51093 11.886C5.63698 11.8859 5.75788 11.84 5.84692 11.7587L5.90653 11.6925C5.95805 11.6219 5.9864 11.5382 5.98646 11.4521C5.98641 11.337 5.93605 11.2262 5.84692 11.1448C5.75876 11.0644 5.63947 11.0186 5.51499 11.0175C5.51342 11.0175 5.51183 11.0181 5.51025 11.0181Z" fill="#FAFAFA"/>
<path fill-rule="evenodd" clip-rule="evenodd" d="M5.5089 1.33398C6.17494 1.33411 6.81399 1.57559 7.28502 2.00535L7.37105 2.08819C7.78828 2.50879 8.02132 3.0569 8.02134 3.62689V9.23087C8.459 9.6408 8.76964 10.1514 8.91821 10.7102L8.97105 10.9476C9.07107 11.5047 9.00796 12.0781 8.78612 12.6081C8.56428 13.1381 8.19248 13.6033 7.7111 13.9576L7.4984 14.1029C6.91327 14.4706 6.21921 14.6672 5.5089 14.6673C4.88736 14.6673 4.27812 14.5166 3.74362 14.2327L3.51872 14.1029C2.93358 13.7352 2.48458 13.2138 2.231 12.6081L2.14565 12.3781C1.9693 11.8371 1.95232 11.2616 2.09891 10.7102L2.17139 10.4765C2.33769 10.009 2.62041 9.58301 2.99645 9.23087V3.62689C2.99647 3.01878 3.26092 2.43535 3.7321 2.00535L3.82219 1.92746C4.2831 1.54656 4.88416 1.33398 5.5089 1.33398ZM5.5089 2.28354C5.16731 2.28354 4.83739 2.39185 4.57545 2.58769L4.46775 2.67671C4.19171 2.92863 4.03695 3.27061 4.03693 3.62689V9.4324C4.03693 9.5673 3.97354 9.69596 3.86351 9.78601C3.5376 10.0521 3.29543 10.392 3.16106 10.7696L3.11026 10.934C3.0071 11.3219 3.01873 11.7267 3.14277 12.1074L3.20306 12.2687L3.27622 12.4257C3.46175 12.7849 3.7486 13.0939 4.10873 13.3203L4.26656 13.4118C4.64263 13.6116 5.07148 13.7178 5.5089 13.7178C6.0086 13.7177 6.49686 13.5789 6.90839 13.3203L7.05809 13.2183C7.39658 12.969 7.65807 12.642 7.81406 12.2693L7.87435 12.1074C7.9807 11.7811 8.00447 11.4369 7.94412 11.1009L7.90754 10.934C7.8044 10.5461 7.5899 10.1911 7.28841 9.90471L7.15428 9.78663C7.04393 9.69656 6.98087 9.56751 6.98087 9.4324V3.62689C6.98085 3.27069 6.82527 2.92921 6.54937 2.67733C6.27348 2.42566 5.899 2.28367 5.5089 2.28354Z" fill="#FAFAFA"/>
<path d="M13.5333 7.3435C13.7953 7.36811 14 7.5702 14 7.81581C13.9998 8.0613 13.7952 8.26355 13.5333 8.28811L13.4798 8.29059H9.99323C9.70602 8.29059 9.47318 8.07788 9.47299 7.81581C9.47299 7.5536 9.70591 7.34103 9.99323 7.34103H13.4798L13.5333 7.3435Z" fill="#FAFAFA"/>
<path d="M11.5404 4.61601C11.8027 4.64036 12.0078 4.84252 12.0078 5.08831C12.0077 5.33405 11.8026 5.53628 11.5404 5.56062L11.4876 5.56309H9.99323C9.70597 5.56309 9.47308 5.35045 9.47299 5.08831C9.47299 4.8261 9.70591 4.61353 9.99323 4.61353H11.4876L11.5404 4.61601Z" fill="#FAFAFA"/>
<path d="M13.5333 1.88851C13.7953 1.9131 14 2.11519 14 2.36081C14 2.60644 13.7953 2.80853 13.5333 2.83312L13.4798 2.83559H9.99323C9.70591 2.83559 9.47299 2.62303 9.47299 2.36081C9.47299 2.0986 9.70591 1.88604 9.99323 1.88604H13.4798L13.5333 1.88851Z" fill="#FAFAFA"/>
</svg>
