<svg width="16" height="16" viewBox="0 0 16 16" fill="none" xmlns="http://www.w3.org/2000/svg">
<path fill-rule="evenodd" clip-rule="evenodd" d="M2 2.5C2 2.22386 2.22386 2 2.5 2H3.33333C5.8669 2 7.97455 3.82361 8.41528 6.22984C9.34774 4.88255 10.9041 4 12.6667 4H13.5C13.7761 4 14 4.22386 14 4.5V5.5C14 8.35347 11.6868 10.6667 8.83333 10.6667H8.5V13.5C8.5 13.7761 8.27614 14 8 14C7.72386 14 7.5 13.7761 7.5 13.5V8.5H7.16667C4.3132 8.5 2 6.1868 2 3.33333V2.5ZM7.5 7.5H7.16667C4.86548 7.5 3 5.63452 3 3.33333V3H3.33333C5.63452 3 7.5 4.86548 7.5 7.16667V7.5ZM8.5 9.66667H8.83333C11.1345 9.66667 13 7.80119 13 5.5V5H12.6667C10.3655 5 8.5 6.86548 8.5 9.16667V9.66667Z" fill="#FAFAFA"/>
</svg>
