<svg width="16" height="16" viewBox="0 0 16 16" fill="none" xmlns="http://www.w3.org/2000/svg">
<path d="M7.73438 1.7832C10.7604 1.7832 13.2342 4.25717 13.2344 7.2832C13.2344 7.55935 13.0105 7.7832 12.7344 7.7832C12.4582 7.7832 12.2344 7.55935 12.2344 7.2832C12.2342 4.80946 10.2082 2.7832 7.73438 2.7832C5.2606 2.7832 3.23451 4.80946 3.23438 7.2832C3.23438 9.75706 5.26052 11.7832 7.73438 11.7832H12.0986L11.1807 11.0176C10.9689 10.8408 10.9408 10.5255 11.1172 10.3135C11.294 10.1016 11.6092 10.0733 11.8213 10.25L13.8213 11.916C13.9351 12.011 14.001 12.1525 14.001 12.3008C14.0007 12.4488 13.935 12.5897 13.8213 12.6846L11.8213 14.3516C11.6093 14.528 11.294 14.4988 11.1172 14.2871C10.9405 14.0751 10.9689 13.7598 11.1807 13.583L12.1396 12.7832H7.73438C4.70823 12.7832 2.23438 10.3093 2.23438 7.2832C2.23451 4.25717 4.70831 1.7832 7.73438 1.7832Z" fill="#FAFAFA"/>
<path d="M8.48438 8.16699C9.35963 8.16745 9.97557 9.02544 9.69922 9.85449C9.43182 10.6557 8.47548 10.9837 7.77246 10.5156L7.62402 10.416C7.39438 10.2628 7.33221 9.95237 7.48535 9.72266C7.63856 9.49317 7.94906 9.431 8.17871 9.58398L8.32715 9.68359C8.48162 9.78597 8.69223 9.71396 8.75098 9.53809C8.81196 9.35515 8.67558 9.16745 8.48438 9.16699C7.39055 9.167 5.74535 9.16699 4.90137 9.16699C4.62531 9.16699 4.4015 8.94302 4.40137 8.66699C4.40139 8.39087 4.62524 8.16699 4.90137 8.16699C5.74534 8.16699 7.39055 8.167 8.48438 8.16699Z" fill="#FAFAFA"/>
<path d="M9.19336 5.51562C10.0487 4.75586 11.4012 5.36269 11.4014 6.50684C11.4012 7.23882 10.8077 7.83275 10.0752 7.83301C8.79628 7.833 6.33501 7.83301 4.90137 7.83301C4.62524 7.83301 4.40139 7.60913 4.40137 7.33301C4.4015 7.05698 4.62531 6.83301 4.90137 6.83301C6.33501 6.83301 8.79628 6.833 10.0752 6.83301C10.2549 6.83275 10.4012 6.68713 10.4014 6.50684C10.4012 6.2256 10.0689 6.07636 9.8584 6.2627L9.7334 6.37305C9.52704 6.55647 9.21082 6.53832 9.02734 6.33203C8.84394 6.12564 8.86296 5.80942 9.06934 5.62598L9.19336 5.51562Z" fill="#FAFAFA"/>
<path d="M6.43945 4.15137C7.14251 3.68337 8.09891 4.01122 8.36621 4.8125C8.64256 5.64187 8.02541 6.49969 7.15039 6.5C6.47118 6.49999 5.5957 6.5 4.90137 6.5C4.62524 6.5 4.40139 6.27613 4.40137 6C4.40137 5.72386 4.62522 5.5 4.90137 5.5C5.5957 5.5 6.47119 5.49999 7.15039 5.5C7.34196 5.49968 7.47778 5.31158 7.41699 5.12891C7.3582 4.95316 7.14856 4.88116 6.99414 4.9834L6.8457 5.08301C6.61614 5.23605 6.30566 5.17361 6.15234 4.94434C5.99917 4.71457 6.06125 4.40415 6.29102 4.25098L6.43945 4.15137Z" fill="#FAFAFA"/>
</svg>
