<svg width="16" height="16" viewBox="0 0 16 16" fill="none" xmlns="http://www.w3.org/2000/svg">
<path fill-rule="evenodd" clip-rule="evenodd" d="M7.66602 9.83264C9.04673 9.83264 10.166 10.9519 10.166 12.3326C10.166 13.7133 9.04671 14.8326 7.66602 14.8326C6.28532 14.8326 5.16604 13.7133 5.16602 12.3326C5.16602 10.9519 6.2853 9.83264 7.66602 9.83264ZM7.66471 10.666C7.51172 10.666 7.38737 10.7903 7.38737 10.9433V11.0735L7.26888 10.955C7.16072 10.8469 6.98579 10.8469 6.8776 10.955C6.76949 11.0632 6.76946 11.2382 6.8776 11.3463L7.38737 11.8567V12.054H7.1862L6.67773 11.5455C6.56953 11.4376 6.3939 11.4374 6.28581 11.5455C6.17782 11.6536 6.17794 11.8293 6.28581 11.9375L6.40365 12.0553H6.27604C6.12316 12.0555 5.99934 12.1798 5.99935 12.3326C5.99957 12.4856 6.12373 12.6095 6.27669 12.6093H6.4043L6.28581 12.7278C6.17794 12.836 6.17787 13.0116 6.28581 13.1198C6.39391 13.2278 6.56955 13.2277 6.67773 13.1198L7.1888 12.608H7.38737V12.8086L6.8776 13.319C6.76948 13.4271 6.7695 13.6021 6.8776 13.7102C6.98579 13.8183 7.16074 13.8183 7.26888 13.7102L7.38737 13.5918V13.722C7.38739 13.8749 7.51173 13.9993 7.66471 13.9993C7.81747 13.999 7.94139 13.8748 7.94141 13.722V13.5924L8.05924 13.7102L8.08008 13.7298C8.18888 13.8185 8.34976 13.8116 8.45117 13.7102C8.55232 13.6089 8.55854 13.4485 8.47005 13.3398L8.45117 13.319L7.94141 12.8092V12.6074L8.13802 12.6067L8.65039 13.1198L8.67122 13.1386C8.77989 13.2271 8.94028 13.2208 9.04167 13.1198C9.14304 13.0183 9.14992 12.8575 9.0612 12.7487L9.04167 12.7278L8.91992 12.6061H9.05599C9.20889 12.6059 9.33273 12.4816 9.33268 12.3287C9.33239 12.1758 9.20826 12.0519 9.05534 12.052H8.92708L9.04167 11.9375C9.1498 11.8293 9.14981 11.6537 9.04167 11.5455C8.93354 11.4378 8.75849 11.4377 8.65039 11.5455L8.14258 12.0527L7.94141 12.0533V11.8561L8.45117 11.3463C8.55905 11.2382 8.55906 11.0632 8.45117 10.955C8.343 10.8469 8.16743 10.8469 8.05924 10.955L7.94141 11.0722V10.9433C7.94141 10.7905 7.81748 10.6662 7.66471 10.666Z" fill="#FAFAFA"/>
<path fill-rule="evenodd" clip-rule="evenodd" d="M12.6458 2.31246C12.8411 2.1172 13.1576 2.1172 13.3529 2.31246L14.6862 3.6458C14.8814 3.84106 14.8814 4.15758 14.6862 4.35283L13.3529 5.68616C13.1576 5.88135 12.8411 5.88135 12.6458 5.68616C12.4506 5.49092 12.4506 5.1744 12.6458 4.97913L13.1257 4.49931H12.4661C12.0059 4.49931 11.6328 4.87241 11.6328 5.33264V6.16598H12.3327C13.3452 6.16598 14.166 6.98679 14.166 7.99931V10.7324C14.166 11.7449 13.3452 12.5657 12.3327 12.5657H11.3327C11.0566 12.5657 10.8327 12.3418 10.8327 12.0657C10.8328 11.7897 11.0566 11.5657 11.3327 11.5657H12.3327C12.7929 11.5657 13.166 11.1926 13.166 10.7324V7.99931C13.166 7.53907 12.7929 7.16598 12.3327 7.16598H11.6328V8.16598C11.6328 9.0864 10.8866 9.83264 9.96615 9.83264C9.04571 9.83264 8.29954 9.0864 8.29948 8.16598V7.16598H6.96615V8.16598C6.96608 9.0864 6.21992 9.83264 5.29948 9.83264C4.37904 9.83264 3.63287 9.0864 3.63281 8.16598V7.16598H2.99935C2.53911 7.16598 2.16602 7.53907 2.16602 7.99931V10.7324C2.16608 11.1926 2.53915 11.5657 2.99935 11.5657H3.99935C4.2754 11.5657 4.49921 11.7897 4.49935 12.0657C4.49929 12.3418 4.27545 12.5657 3.99935 12.5657H2.99935C1.98686 12.5657 1.16608 11.7449 1.16602 10.7324V7.99931C1.16602 6.98679 1.98683 6.16598 2.99935 6.16598H3.63281V3.99931C3.63281 3.72317 3.85667 3.49931 4.13281 3.49931C4.40895 3.49931 4.63281 3.72317 4.63281 3.99931V6.16598H5.96615V5.16598C5.96615 4.2455 6.71234 3.49931 7.63281 3.49931C8.55329 3.49931 9.29948 4.2455 9.29948 5.16598V6.16598H10.6328V5.33264C10.6328 4.32012 11.4536 3.49931 12.4661 3.49931H13.1257L12.6458 3.01949C12.4506 2.82425 12.4506 2.50773 12.6458 2.31246ZM4.63281 8.16598C4.63287 8.53412 4.93133 8.83264 5.29948 8.83264C5.66763 8.83264 5.96608 8.53412 5.96615 8.16598V7.16598H4.63281V8.16598ZM9.29948 8.16598C9.29954 8.53412 9.59799 8.83264 9.96615 8.83264C10.3343 8.83264 10.6328 8.53412 10.6328 8.16598V7.16598H9.29948V8.16598ZM7.63281 4.49931C7.26462 4.49931 6.96615 4.79779 6.96615 5.16598V6.16598H8.29948V5.16598C8.29948 4.79779 8.001 4.49931 7.63281 4.49931Z" fill="#FAFAFA"/>
</svg>
