<svg width="16" height="16" viewBox="0 0 16 16" fill="none" xmlns="http://www.w3.org/2000/svg">
<path fill-rule="evenodd" clip-rule="evenodd" d="M14 4.61304V11.387C14 11.7431 14 12.0403 13.9802 12.2831C13.9595 12.5364 13.9147 12.7741 13.8002 12.999C13.6244 13.3439 13.3439 13.6244 12.999 13.8002C12.7741 13.9147 12.5364 13.9595 12.2831 13.9802C12.0403 14 11.7431 14 11.387 14H4.61303C4.25693 14 3.95971 14 3.71689 13.9802C3.46363 13.9595 3.22586 13.9147 3.00102 13.8002C2.65606 13.6244 2.37559 13.3439 2.19982 12.999C2.08526 12.7741 2.04052 12.5364 2.01983 12.2831C1.99999 12.0403 1.99999 11.7431 2 11.387L2 4.61303C1.99999 4.25693 1.99999 3.95971 2.01983 3.71689C2.04052 3.46363 2.08526 3.22586 2.19982 3.00102C2.37559 2.65605 2.65606 2.37559 3.00102 2.19982C3.22586 2.08526 3.46363 2.04052 3.71689 2.01983C3.95971 1.99999 4.25694 1.99999 4.61304 2L11.387 2C11.7431 1.99999 12.0403 1.99999 12.2831 2.01983C12.5364 2.04052 12.7741 2.08526 12.999 2.19982C13.3439 2.37559 13.6244 2.65605 13.8002 3.00102C13.9147 3.22586 13.9595 3.46363 13.9802 3.71689C14 3.95971 14 4.25694 14 4.61304ZM12.9835 3.79832C12.9679 3.6069 12.9399 3.51538 12.9092 3.45501C12.8293 3.29821 12.7018 3.17072 12.545 3.09083C12.4846 3.06007 12.3931 3.03214 12.2017 3.01651C12.0044 3.00039 11.7483 3 11.3667 3L4.63333 3C4.25172 3 3.99557 3.00039 3.79832 3.01651C3.6069 3.03214 3.51538 3.06007 3.45501 3.09083C3.29821 3.17072 3.17072 3.29821 3.09083 3.45501C3.06007 3.51538 3.03215 3.6069 3.01651 3.79832C3.00039 3.99557 3 4.25171 3 4.63333L3 7.5L13 7.5L13 4.63333C13 4.25171 12.9996 3.99557 12.9835 3.79832ZM13 8.5L3 8.5L3 11.3667C3 11.7483 3.00039 12.0044 3.01651 12.2017C3.03215 12.3931 3.06007 12.4846 3.09083 12.545C3.17072 12.7018 3.29821 12.8293 3.45501 12.9092C3.51538 12.9399 3.6069 12.9679 3.79832 12.9835C3.99557 12.9996 4.25171 13 4.63333 13H11.3667C11.7483 13 12.0044 12.9996 12.2017 12.9835C12.3931 12.9679 12.4846 12.9399 12.545 12.9092C12.7018 12.8293 12.8293 12.7018 12.9092 12.545C12.9399 12.4846 12.9679 12.3931 12.9835 12.2017C12.9996 12.0044 13 11.7483 13 11.3667V8.5Z" fill="#FAFAFA"/>
<path fill-rule="evenodd" clip-rule="evenodd" d="M14.0156 4.61251V11.3875C14.0156 11.7431 14.0156 12.0409 13.9957 12.2844C13.975 12.5386 13.93 12.7787 13.8141 13.0061C13.6368 13.354 13.354 13.6368 13.0061 13.8141C12.7787 13.93 12.5386 13.975 12.2844 13.9957C12.0409 14.0156 11.7431 14.0156 11.3875 14.0156H4.61253C4.25688 14.0156 3.95909 14.0156 3.71561 13.9957C3.46139 13.975 3.22133 13.93 2.99392 13.8141C2.64602 13.6368 2.36317 13.354 2.1859 13.0061C2.07003 12.7787 2.02502 12.5386 2.00425 12.2844C1.98436 12.0409 1.98437 11.7431 1.98438 11.3875L1.98438 4.61254C1.98437 4.25688 1.98436 3.95909 2.00425 3.71561C2.02503 3.46139 2.07003 3.22134 2.1859 2.99393C2.36317 2.64602 2.64602 2.36317 2.99392 2.1859C3.22134 2.07003 3.46139 2.02502 3.71562 2.00425C3.95908 1.98436 4.25687 1.98437 4.61251 1.98438L11.3875 1.98438C11.7431 1.98437 12.0409 1.98436 12.2844 2.00425C12.5386 2.02502 12.7787 2.07003 13.0061 2.1859C13.354 2.36317 13.6368 2.64602 13.8141 2.99392C13.93 3.22134 13.975 3.46139 13.9957 3.71562C14.0156 3.95908 14.0156 4.25687 14.0156 4.61251ZM9.31966 3.01563L6.68034 3.01563L6.68034 12.9844H9.31966L9.31966 3.01563ZM10.3509 12.9844V3.01563H11.3667C11.7485 3.01563 12.0039 3.01603 12.2004 3.03208C12.3909 3.04764 12.4801 3.0753 12.5379 3.10475C12.6918 3.18315 12.8169 3.30824 12.8952 3.4621C12.9247 3.51991 12.9524 3.60914 12.9679 3.79959C12.984 3.99606 12.9844 4.25146 12.9844 4.63333V11.3667C12.9844 11.7485 12.984 12.0039 12.9679 12.2004C12.9524 12.3909 12.9247 12.4801 12.8952 12.5379C12.8169 12.6918 12.6918 12.8169 12.5379 12.8952C12.4801 12.9247 12.3909 12.9524 12.2004 12.9679C12.0039 12.984 11.7485 12.9844 11.3667 12.9844H10.3509ZM5.64909 12.9844L5.64909 3.01563H4.63333C4.25146 3.01563 3.99606 3.01603 3.79959 3.03208C3.60914 3.04764 3.51991 3.0753 3.4621 3.10475C3.30824 3.18315 3.18315 3.30824 3.10475 3.4621C3.0753 3.51991 3.04764 3.60914 3.03208 3.79959C3.01603 3.99606 3.01563 4.25146 3.01563 4.63333L3.01563 11.3667C3.01563 11.7485 3.01603 12.0039 3.03208 12.2004C3.04764 12.3909 3.0753 12.4801 3.10475 12.5379C3.18315 12.6918 3.30824 12.8169 3.4621 12.8953C3.51991 12.9247 3.60914 12.9524 3.79959 12.9679C3.99606 12.984 4.25146 12.9844 4.63333 12.9844H5.64909Z" fill="#FAFAFA"/>
</svg>
