<svg width="16" height="16" viewBox="0 0 16 16" fill="none" xmlns="http://www.w3.org/2000/svg">
<path d="M7.75586 10.8704C7.83065 10.7638 7.99845 10.8165 7.9987 10.9465V12.7043C7.9987 12.778 8.05852 12.8378 8.13216 12.8378H8.82487C8.93266 12.838 8.99557 12.9598 8.93359 13.0481L7.375 15.2681C7.30014 15.3747 7.13281 15.3216 7.13281 15.1913V13.4335C7.13265 13.36 7.07284 13.3008 6.99935 13.3007H6.30664C6.19869 13.3007 6.13524 13.1788 6.19727 13.0904L7.75586 10.8704Z" fill="#FAFAFA"/>
<path d="M4.07227 11.6399C4.1792 11.3853 4.47262 11.2654 4.72721 11.3723C4.98159 11.4793 5.10093 11.7721 4.99414 12.0266L4.29427 13.6933C4.18737 13.9478 3.89453 14.0676 3.63997 13.9609C3.38544 13.854 3.26561 13.5611 3.3724 13.3066L4.07227 11.6399Z" fill="#FAFAFA"/>
<path d="M10.7539 11.6405C10.8604 11.3858 11.1534 11.2651 11.4082 11.3717C11.6629 11.4782 11.7829 11.7712 11.6764 12.026L10.9798 13.6926C10.8733 13.9473 10.5802 14.0678 10.3255 13.9615C10.0708 13.855 9.9503 13.5619 10.0566 13.3072L10.7539 11.6405Z" fill="#FAFAFA"/>
<path fill-rule="evenodd" clip-rule="evenodd" d="M6.28125 1.33325C7.77531 1.33325 9.0877 2.10809 9.85221 3.27596C9.93281 3.39908 10.1095 3.48246 10.2936 3.4563C10.4429 3.43505 10.5954 3.4244 10.75 3.4244C12.5514 3.4244 14 4.90278 14 6.71216C13.9999 8.52148 12.5513 9.99992 10.75 9.99992H6.28125C3.91035 9.99992 2 8.05335 2 5.66659C2 3.27982 3.91035 1.33325 6.28125 1.33325ZM6.28125 2.33325C4.47549 2.33325 3 3.81917 3 5.66659C3 7.51401 4.47549 8.99992 6.28125 8.99992H10.75C11.9862 8.99992 12.9999 7.98213 13 6.71216C13 5.44213 11.9862 4.4244 10.75 4.4244C10.6428 4.4244 10.5376 4.43192 10.4349 4.44653C9.90585 4.52183 9.32956 4.30306 9.01562 3.82349C8.42579 2.92252 7.41997 2.33325 6.28125 2.33325Z" fill="#FAFAFA"/>
</svg>
