<svg width="16" height="16" viewBox="0 0 16 16" fill="none" xmlns="http://www.w3.org/2000/svg">
<path fill-rule="evenodd" clip-rule="evenodd" d="M9.13856 2.1665C9.47008 2.1665 9.78793 2.29884 10.0224 2.53326C10.2567 2.76766 10.3886 3.08559 10.3886 3.41705V3.85487C10.8109 3.90981 11.2117 4.07649 11.5295 4.34532C11.9255 4.68043 12.1653 5.1514 12.1654 5.66043V13.4165C12.1651 13.6464 11.9786 13.8332 11.7487 13.8332C11.5188 13.8332 11.3323 13.6464 11.332 13.4165V5.66043C11.332 5.42165 11.2202 5.17544 10.9913 4.98172C10.7602 4.78617 10.434 4.66705 10.082 4.66705H5.91536C5.56343 4.66705 5.23719 4.78617 5.00608 4.98172C4.77722 5.17544 4.66539 5.42165 4.66536 5.66043V13.4165C4.66507 13.6464 4.47864 13.8332 4.2487 13.8332C4.01876 13.8332 3.83232 13.6464 3.83203 13.4165V5.66043C3.83206 5.1514 4.07188 4.68043 4.46788 4.34532C4.7298 4.12374 5.04832 3.97166 5.38856 3.89393V3.41705C5.38856 3.08559 5.52044 2.76766 5.75477 2.53326C5.98919 2.29884 6.30704 2.1665 6.63856 2.1665H9.13856ZM6.63856 3.00038C6.52806 3.00038 6.42211 3.04431 6.34397 3.12245C6.26591 3.20058 6.2219 3.3066 6.2219 3.41705V3.83371H9.55523V3.41705C9.55523 3.3066 9.51122 3.20058 9.43316 3.12245C9.37463 3.06392 9.30046 3.02457 9.22049 3.00852L9.13856 3.00038H6.63856Z" fill="#FAFAFA"/>
<path fill-rule="evenodd" clip-rule="evenodd" d="M7.94336 6.61041C8.71507 6.61047 9.34069 7.23442 9.34093 8.00418C9.34093 8.33505 9.22478 8.63853 9.03168 8.87766C9.1849 8.96802 9.3274 9.07822 9.4554 9.20589L9.52865 9.28293C9.88366 9.67419 10.082 10.1844 10.082 10.7147V11.4531C10.0818 11.6788 9.89814 11.8621 9.67188 11.8621H9.29319L9.09136 13.474C9.06559 13.6785 8.89109 13.8325 8.68446 13.8326H7.2028C6.99619 13.8325 6.82166 13.6785 6.7959 13.474L6.59408 11.8621H6.21539C5.98904 11.8621 5.80546 11.6788 5.80523 11.4531V10.7147C5.80523 10.1491 6.03043 9.6059 6.43132 9.20589L6.50836 9.13319C6.61566 9.03628 6.73192 8.95028 6.85503 8.87766C6.66208 8.63855 6.54579 8.33498 6.54579 8.00418C6.54603 7.23449 7.17175 6.61058 7.94336 6.61041ZM7.9439 9.39958C7.638 9.39958 7.34242 9.50516 7.10786 9.69689L7.01128 9.78423C6.76417 10.0308 6.62554 10.366 6.62554 10.7147V11.044H6.95595L7.0319 11.0511C7.20403 11.0833 7.34029 11.2231 7.36285 11.4021L7.56521 13.0145H8.32259L8.52441 11.4021L8.54069 11.3283C8.59414 11.1618 8.75042 11.044 8.93132 11.044H9.26172V10.7147C9.26172 10.4096 9.15544 10.1148 8.96333 9.88081L8.87543 9.78423C8.62834 9.53787 8.29327 9.39967 7.9439 9.39958ZM7.94336 7.42855C7.62472 7.42872 7.36634 7.68634 7.3661 8.00418C7.3661 8.32221 7.62458 8.58072 7.94336 8.58089C8.26224 8.58083 8.52116 8.32228 8.52116 8.00418C8.52092 7.68627 8.26209 7.42861 7.94336 7.42855Z" fill="#FAFAFA"/>
<path d="M12.626 10.7299C12.7224 10.537 12.9483 10.4516 13.1457 10.5264L13.1848 10.5432L14.0181 10.9599C14.2239 11.0628 14.3075 11.3129 14.2048 11.5187C14.1083 11.7116 13.8824 11.797 13.685 11.7222L13.6459 11.7053L12.8126 11.2887L12.7752 11.2675C12.5969 11.1545 12.5297 10.9228 12.626 10.7299Z" fill="#FAFAFA"/>
<path d="M2.81261 10.5432C3.01839 10.4405 3.26854 10.5241 3.37142 10.7299C3.47416 10.9357 3.39054 11.1858 3.18479 11.2887L2.35145 11.7053C2.14567 11.8081 1.89552 11.7245 1.79264 11.5187C1.6899 11.3129 1.77352 11.0628 1.97928 10.9599L2.81261 10.5432Z" fill="#FAFAFA"/>
<path d="M2.9987 7.99929C3.22882 7.99929 3.41536 8.18584 3.41536 8.41596C3.41536 8.64608 3.22882 8.83263 2.9987 8.83263H1.7487C1.51858 8.83263 1.33203 8.64608 1.33203 8.41596C1.33203 8.18584 1.51858 7.99929 1.7487 7.99929H2.9987Z" fill="#FAFAFA"/>
<path d="M14.2487 7.99929C14.4788 7.99929 14.6654 8.18584 14.6654 8.41596C14.6654 8.64608 14.4788 8.83263 14.2487 8.83263H12.9987C12.7686 8.83263 12.582 8.64608 12.582 8.41596C12.582 8.18584 12.7686 7.99929 12.9987 7.99929H14.2487Z" fill="#FAFAFA"/>
<path d="M1.79264 5.31321C1.8891 5.12029 2.11495 5.03496 2.31239 5.10975L2.35145 5.12657L3.18479 5.54324C3.39054 5.64612 3.47416 5.89627 3.37142 6.10205C3.27496 6.29497 3.04911 6.38029 2.85167 6.3055L2.81261 6.28868L1.97928 5.87202L1.94184 5.85086C1.76359 5.73783 1.69634 5.50609 1.79264 5.31321Z" fill="#FAFAFA"/>
<path d="M13.6459 5.12657C13.8517 5.02383 14.1019 5.10745 14.2048 5.31321C14.3075 5.51899 14.2239 5.76914 14.0181 5.87202L13.1848 6.28868C12.979 6.39143 12.7289 6.3078 12.626 6.10205C12.5232 5.89627 12.6069 5.64612 12.8126 5.54324L13.6459 5.12657Z" fill="#FAFAFA"/>
</svg>
