<svg width="16" height="16" viewBox="0 0 16 16" fill="none" xmlns="http://www.w3.org/2000/svg">
<path fill-rule="evenodd" clip-rule="evenodd" d="M9.25 3.125C9.52614 3.125 9.75 3.34886 9.75 3.625C9.75 3.90114 9.52614 4.125 9.25 4.125H8.5V5H8.86393L8.94206 5.0026C9.12352 5.01532 9.29969 5.0719 9.45508 5.16797C9.63253 5.27774 9.77577 5.43515 9.86914 5.62174L10.7747 7.43034C10.7851 7.45106 10.8013 7.46893 10.821 7.48112C10.8407 7.49332 10.8635 7.49999 10.8867 7.5H11.25V6.75C11.25 6.47386 11.4739 6.25 11.75 6.25H13C13.2984 6.25 13.5846 6.36845 13.7956 6.57943C14.0066 6.79041 14.125 7.07663 14.125 7.375V11.125C14.125 11.2727 14.0956 11.4189 14.0391 11.5553C13.9825 11.6918 13.9 11.8161 13.7956 11.9206C13.6911 12.025 13.5668 12.1075 13.4303 12.1641C13.2939 12.2206 13.1477 12.25 13 12.25H11.75C11.4739 12.25 11.25 12.0261 11.25 11.75V11H10.375V11.75C10.375 12.0484 10.2566 12.3346 10.0456 12.5456C9.8346 12.7566 9.54837 12.875 9.25 12.875H7.08464C6.89947 12.875 6.71666 12.8295 6.55339 12.7422C6.43101 12.6767 6.32253 12.5889 6.23242 12.4844L6.14844 12.3743L5.23242 11H4.91667C4.27233 11 3.75 10.4777 3.75 9.83333V9.10677C3.70987 9.11715 3.66838 9.125 3.625 9.125H2.875V10.5C2.875 10.7761 2.65114 11 2.375 11C2.09886 11 1.875 10.7761 1.875 10.5V6.75C1.875 6.47386 2.09886 6.25 2.375 6.25C2.65114 6.25 2.875 6.47386 2.875 6.75V8.125H3.625C3.66832 8.125 3.70991 8.13222 3.75 8.14258V7.41667C3.75 6.77233 4.27233 6.25 4.91667 6.25H5.29297L6.39648 5.14648L6.47266 5.08398C6.55419 5.02963 6.65056 5 6.75 5H7.5V4.125H6.75C6.47386 4.125 6.25 3.90114 6.25 3.625C6.25 3.34886 6.47386 3.125 6.75 3.125H9.25ZM5.85352 7.10352C5.75975 7.19728 5.63261 7.25 5.5 7.25H4.91667C4.82462 7.25 4.75 7.32462 4.75 7.41667V9.83333C4.75 9.92538 4.82462 10 4.91667 10H5.5C5.66718 10 5.82328 10.0836 5.91602 10.2227L6.98047 11.8197C6.99186 11.8366 7.00736 11.8504 7.02539 11.86C7.04344 11.8697 7.06352 11.875 7.08398 11.875H9.25C9.28315 11.875 9.3151 11.862 9.33854 11.8385C9.36198 11.8151 9.375 11.7832 9.375 11.75V10.5C9.375 10.2239 9.59886 10 9.875 10H11.75C12.0261 10 12.25 10.2239 12.25 10.5V11.25H13C13.0164 11.25 13.0324 11.2465 13.0475 11.2402C13.0627 11.234 13.0769 11.2252 13.0885 11.2135C13.1002 11.2019 13.109 11.1877 13.1152 11.1725C13.1215 11.1574 13.125 11.1414 13.125 11.125V7.375C13.125 7.34185 13.112 7.3099 13.0885 7.28646C13.0651 7.26302 13.0332 7.25 13 7.25H12.25V8C12.25 8.27614 12.0261 8.5 11.75 8.5H10.8861C10.6773 8.49989 10.4725 8.44181 10.2949 8.33203C10.1173 8.22215 9.97357 8.06445 9.88021 7.8776L8.97526 6.06966C8.96489 6.04894 8.94875 6.03107 8.92904 6.01888C8.9192 6.0128 8.9088 6.0077 8.89779 6.00456L8.86328 6H6.95703L5.85352 7.10352Z" fill="#FAFAFA"/>
</svg>
