<svg width="16" height="16" viewBox="0 0 16 16" fill="none" xmlns="http://www.w3.org/2000/svg">
<path d="M15.5 8C15.7761 8 16 8.22386 16 8.5C16 8.77614 15.7761 9 15.5 9H12.5C12.2239 9 12 8.77614 12 8.5C12 8.22386 12.2239 8 12.5 8H15.5Z" fill="#FAFAFA"/>
<path d="M9.74942 6.33325C9.74942 4.6764 8.40628 3.33325 6.74942 3.33325C5.09257 3.33325 3.74942 4.6764 3.74942 6.33325C3.74942 7.99011 5.09257 9.33325 6.74942 9.33325V10.3333C4.54029 10.3333 2.74942 8.54239 2.74942 6.33325C2.74942 4.12411 4.54029 2.33325 6.74942 2.33325C8.95856 2.33325 10.7494 4.12411 10.7494 6.33325C10.7494 8.54239 8.95856 10.3333 6.74942 10.3333V9.33325C8.40628 9.33325 9.74942 7.99011 9.74942 6.33325Z" fill="#FAFAFA"/>
<path d="M6.74942 9.49992C9.08252 9.49992 11.0142 10.8439 12.3738 12.8658L12.504 13.0637L12.5294 13.108C12.6438 13.3341 12.5703 13.6149 12.3523 13.7545C12.1343 13.894 11.849 13.843 11.6915 13.6444L11.6615 13.6028L11.4233 13.248C10.2036 11.5192 8.59161 10.4999 6.74942 10.4999C4.78455 10.4999 3.08174 11.6596 1.83732 13.6028C1.68843 13.8353 1.37909 13.9033 1.14656 13.7545C0.914062 13.6056 0.846074 13.2963 0.994867 13.0637C2.35996 10.932 4.34101 9.49992 6.74942 9.49992Z" fill="#FAFAFA"/>
</svg>
