<svg width="16" height="16" viewBox="0 0 16 16" fill="none" xmlns="http://www.w3.org/2000/svg">
<path fill-rule="evenodd" clip-rule="evenodd" d="M13.7927 7.49965L11.9796 5.68656C11.7843 5.4913 11.7843 5.17472 11.9796 4.97946C12.1748 4.78419 12.4914 4.78419 12.6867 4.97945L14.8819 7.17471L14.5312 7.52548L14.8819 7.17471C15.3375 7.63032 15.3375 8.36901 14.8819 8.82462L12.6867 11.0199C12.4914 11.2152 12.1748 11.2152 11.9796 11.0199C11.7843 10.8246 11.7843 10.5081 11.9796 10.3128L13.7927 8.49965L2.20687 8.49965L4.01999 10.3128C4.21526 10.5081 4.21526 10.8246 4.01999 11.0199C3.82473 11.2152 3.50815 11.2152 3.31289 11.0199L1.11762 8.82462C0.662014 8.36901 0.662012 7.63032 1.11763 7.1747L3.31289 4.97945C3.50815 4.78419 3.82473 4.78419 4.01999 4.97945C4.21526 5.17472 4.21526 5.4913 4.01999 5.68656L2.20689 7.49965L13.7927 7.49965Z" fill="#FAFAFA"/>
</svg>
