<svg width="16" height="16" viewBox="0 0 16 16" fill="none" xmlns="http://www.w3.org/2000/svg">
<path d="M11.4993 1.33398C12.5114 1.33451 13.3327 2.15514 13.3327 3.16732V7.63867C13.3327 7.91447 13.1084 8.13814 12.8327 8.13867C12.5566 8.13867 12.3327 7.9148 12.3327 7.63867V3.16732C12.3327 2.70742 11.9591 2.33451 11.4993 2.33398H4.50195C4.04173 2.33398 3.66864 2.70709 3.66862 3.16732V12.834C3.66864 13.2942 4.04173 13.6673 4.50195 13.6673H8.26302C8.53885 13.6677 8.763 13.8914 8.76302 14.1673C8.763 14.4432 8.53885 14.667 8.26302 14.6673H4.50195C3.48944 14.6673 2.66799 13.8465 2.66797 12.834V3.16732C2.66799 2.15481 3.48944 1.33398 4.50195 1.33398H11.4993Z" fill="#FAFAFA"/>
<path d="M12.1777 11.5111C12.5457 11.5112 12.8443 11.8097 12.8444 12.1777C12.8444 12.5458 12.5458 12.8442 12.1777 12.8444C11.8095 12.8444 11.5111 12.5459 11.5111 12.1777C11.5112 11.8096 11.8096 11.5111 12.1777 11.5111Z" fill="#FAFAFA"/>
<path fill-rule="evenodd" clip-rule="evenodd" d="M12.8444 8.48828C13.1204 8.48846 13.3444 8.71226 13.3444 8.98828C13.3444 9.26431 13.1204 9.4881 12.8444 9.48828H12.6771V9.73893C13.8123 9.97036 14.6672 10.9742 14.6673 12.1777L14.6641 12.306C14.5972 13.621 13.5093 14.6671 12.1777 14.6673L12.0495 14.6641C10.7767 14.5996 9.75608 13.5788 9.69141 12.306L9.68815 12.1777C9.6883 10.9745 10.5422 9.96997 11.6771 9.73828V9.48828H11.5111C11.2349 9.48828 11.0111 9.26442 11.0111 8.98828C11.0111 8.71215 11.2349 8.48828 11.5111 8.48828H12.8444ZM12.1777 10.6882C11.3553 10.6882 10.6883 11.3553 10.6882 12.1777C10.6882 13.0002 11.3552 13.6673 12.1777 13.6673C13 13.6671 13.6672 13.0001 13.6673 12.1777C13.6671 11.3555 13 10.6884 12.1777 10.6882Z" fill="#FAFAFA"/>
<path d="M5.00521 10.3333C5.2812 10.3335 5.50521 10.5573 5.50521 10.8333V12.1667C5.50505 12.4426 5.28111 12.6665 5.00521 12.6667C4.72916 12.6667 4.50536 12.4427 4.50521 12.1667V10.8333C4.50521 10.5572 4.72907 10.3333 5.00521 10.3333Z" fill="#FAFAFA"/>
<path d="M7.04036 10.3333C7.31636 10.3335 7.54036 10.5573 7.54036 10.8333V12.1667C7.54021 12.4426 7.31626 12.6665 7.04036 12.6667C6.76432 12.6667 6.54052 12.4427 6.54036 12.1667V10.8333C6.54036 10.5572 6.76422 10.3333 7.04036 10.3333Z" fill="#FAFAFA"/>
<path d="M11.3385 6.66797C11.6145 6.66814 11.8385 6.892 11.8385 7.16797C11.8385 7.444 11.6145 7.66779 11.3385 7.66797H4.67187C4.39573 7.66797 4.17187 7.44411 4.17187 7.16797C4.17196 6.8919 4.39578 6.66797 4.67187 6.66797H11.3385Z" fill="#FAFAFA"/>
<path fill-rule="evenodd" clip-rule="evenodd" d="M11.2051 3.09049C11.5545 3.09067 11.8383 3.37451 11.8385 3.72396V5.54622C11.8385 5.8959 11.5547 6.17951 11.2051 6.17969H6.90104C6.89682 6.1798 6.89227 6.18031 6.88802 6.18034C6.88388 6.18034 6.87913 6.17981 6.875 6.17969H4.80534C4.45567 6.17969 4.17205 5.8965 4.17187 5.54687V3.72461C4.17196 3.3749 4.45561 3.09049 4.80534 3.09049H11.2051ZM5.17187 5.17969H6.38802V4.09049H5.17187V5.17969ZM7.38802 5.17969H8.60807V4.09049H7.38802V5.17969ZM9.60807 5.17969H10.8385V4.09049H9.60807V5.17969Z" fill="#FAFAFA"/>
</svg>
