<svg width="16" height="16" viewBox="0 0 16 16" fill="none" xmlns="http://www.w3.org/2000/svg">
<path d="M11.7937 11.7692C12.23 11.7692 12.6486 11.9426 12.9571 12.251L13.2351 12.529L13.282 12.5719C13.3966 12.6659 13.5412 12.7177 13.6908 12.7178C13.7838 12.7178 13.8751 12.6977 13.9584 12.6598C14.2097 12.5456 14.5061 12.6568 14.6205 12.9079C14.7348 13.1592 14.6238 13.4557 14.3725 13.57C14.1607 13.6663 13.9283 13.7178 13.6908 13.7178C13.2547 13.7177 12.8358 13.5446 12.5274 13.236L12.2501 12.9587C12.1291 12.8377 11.9647 12.7692 11.7937 12.7692C11.6227 12.7692 11.4582 12.8371 11.3373 12.958L11.0593 13.236C10.7508 13.5445 10.3322 13.7178 9.89591 13.7178C9.51428 13.7177 9.14623 13.5851 8.85359 13.3454L8.73315 13.236L8.45516 12.958C8.33416 12.8371 8.16979 12.7692 7.99878 12.7692C7.82776 12.7692 7.66338 12.837 7.5424 12.958L7.2644 13.236C6.95596 13.5444 6.53783 13.7177 6.10164 13.7178C5.71988 13.7177 5.35139 13.5852 5.05867 13.3454L4.93823 13.236L4.66023 12.958C4.53924 12.8371 4.37486 12.7692 4.20385 12.7692C4.03285 12.7692 3.86845 12.837 3.74747 12.958L3.46948 13.2354C3.16101 13.5438 2.743 13.7177 2.30672 13.7178C2.06946 13.7178 1.83709 13.6665 1.62508 13.57C1.37387 13.4555 1.26265 13.1592 1.37703 12.9079C1.49144 12.6568 1.78794 12.5457 2.03914 12.6598C2.12217 12.6976 2.21358 12.7178 2.30672 12.7178C2.47766 12.7177 2.64151 12.6498 2.76245 12.529L3.04044 12.251C3.34892 11.9425 3.76758 11.7692 4.20385 11.7692C4.64011 11.7692 5.05876 11.9426 5.36727 12.251L5.64526 12.529C5.76624 12.6499 5.93064 12.7177 6.10164 12.7178C6.27257 12.7177 6.43644 12.6499 6.55737 12.529L6.83536 12.251C7.14385 11.9425 7.5625 11.7692 7.99878 11.7692C8.43504 11.7692 8.85368 11.9426 9.16219 12.251L9.44018 12.529C9.56107 12.6498 9.72502 12.7177 9.89591 12.7178C10.067 12.7178 10.2313 12.6499 10.3523 12.529L10.6303 12.251L10.7507 12.1416C11.0435 11.9017 11.412 11.7692 11.7937 11.7692Z" fill="#FAFAFA"/>
<path fill-rule="evenodd" clip-rule="evenodd" d="M11.7937 2.28223C12.0698 2.28223 12.2937 2.50608 12.2937 2.78223V3.23079H12.7423C13.2804 3.23079 13.7168 3.6674 13.7169 4.2054V8.96973C14.2633 9.11849 14.6654 9.61708 14.6654 10.2106C14.6654 10.3412 14.6458 10.4711 14.6068 10.5954L14.5613 10.7178L14.2188 11.5179C14.11 11.7716 13.8157 11.8889 13.5619 11.7803C13.3083 11.6715 13.191 11.3778 13.2996 11.124L13.642 10.3239C13.6572 10.2884 13.6654 10.2495 13.6654 10.2106C13.6654 10.052 13.5369 9.92353 13.3783 9.9235H2.61922C2.46067 9.92353 2.33213 10.0521 2.33211 10.2106C2.33214 10.2494 2.34026 10.2882 2.35555 10.3239L2.698 11.124C2.80661 11.3778 2.68933 11.6715 2.43563 11.7803C2.18193 11.8889 1.88824 11.7715 1.77938 11.5179L1.43628 10.7178C1.36765 10.5576 1.33214 10.3848 1.33211 10.2106C1.33213 9.49977 1.90838 8.92353 2.61922 8.9235H2.75529V7.05176C2.75529 6.77562 2.97914 6.55176 3.25529 6.55176H3.94083V4.67936C3.94099 4.40335 4.16479 4.17936 4.44083 4.17936H6.81258C7.08863 4.17936 7.31242 4.40335 7.31258 4.67936V6.55176H7.99878C8.27492 6.55176 8.49878 6.77562 8.49878 7.05176V8.9235H9.87052V4.2054C9.87061 3.66737 10.3071 3.23079 10.8451 3.23079H11.2937V2.78223C11.2937 2.50608 11.5176 2.28223 11.7937 2.28223ZM3.75529 8.9235H5.12703V7.55176H3.75529V8.9235ZM6.12703 8.9235H7.49878V7.55176H6.12703V8.9235ZM10.8705 8.9235H12.7169V6.60254H10.8705V8.9235ZM4.94083 6.55111H6.31258V5.17936H4.94083V6.55111ZM10.8705 5.60254H12.7169V4.23079H10.8705V5.60254Z" fill="#FAFAFA"/>
</svg>
