<svg width="16" height="16" viewBox="0 0 16 16" fill="none" xmlns="http://www.w3.org/2000/svg">
<path d="M9.38346 4.16919C9.63544 4.19494 9.83203 4.40781 9.83203 4.66658C9.83203 4.92536 9.63544 5.13823 9.38346 5.16398L9.33203 5.16658H6.66536C6.38922 5.16658 6.16536 4.94273 6.16536 4.66658C6.16536 4.39044 6.38922 4.16659 6.66536 4.16659H9.33203L9.38346 4.16919Z" fill="#FAFAFA"/>
<path fill-rule="evenodd" clip-rule="evenodd" d="M12.7682 1.33586C13.825 1.38939 14.6654 2.26318 14.6654 3.33325V12.6666L14.6628 12.7694C14.6109 13.7921 13.7909 14.6122 12.7682 14.664L12.6654 14.6666H3.33203L3.22917 14.664C2.20647 14.6122 1.38645 13.7921 1.33464 12.7694L1.33203 12.6666V3.33325C1.33203 2.26318 2.1724 1.38939 3.22917 1.33586L3.33203 1.33325H12.6654L12.7682 1.33586ZM3.33203 2.33325C2.77975 2.33325 2.33203 2.78097 2.33203 3.33325V12.6666C2.33203 13.2189 2.77975 13.6666 3.33203 13.6666H4.16536V7.70369C4.16536 7.45272 4.27805 7.22573 4.45508 7.06828L4.52344 7.01294C4.68714 6.89362 4.88497 6.83325 5.08203 6.83325H10.9154C11.1406 6.83325 11.3665 6.91259 11.5417 7.06828L11.5423 7.06763C11.7196 7.22512 11.832 7.45263 11.832 7.70369V13.6666H12.6654C13.2176 13.6666 13.6654 13.2189 13.6654 12.6666V3.33325C13.6654 2.78097 13.2176 2.33325 12.6654 2.33325H3.33203ZM5.16536 13.6666H7.4987V7.83325H5.16536V13.6666ZM8.4987 13.6666H10.832V7.83325H8.4987V13.6666Z" fill="#FAFAFA"/>
</svg>
