<svg width="16" height="16" viewBox="0 0 16 16" fill="none" xmlns="http://www.w3.org/2000/svg">
<path fill-rule="evenodd" clip-rule="evenodd" d="M7.75162 1.39993C7.90687 1.31076 8.09794 1.3114 8.25259 1.40161L12.2526 3.73494C12.4062 3.82454 12.5007 3.989 12.5007 4.16683C12.5007 4.34466 12.4062 4.50911 12.2526 4.59872L8.50065 6.78735V11.5002C8.50065 11.7763 8.27679 12.0002 8.00065 12.0002C7.72451 12.0002 7.50065 11.7763 7.50065 11.5002V6.50964C7.50054 6.50363 7.50054 6.49762 7.50065 6.49162V1.8335C7.50065 1.65446 7.59637 1.48909 7.75162 1.39993ZM8.50065 5.62964L11.0083 4.16683L8.50065 2.70401V5.62964ZM6.49589 9.23214C6.53389 9.50566 6.34297 9.75819 6.06945 9.79619C4.89628 9.95916 3.9196 10.2627 3.25193 10.6353C2.55523 11.0241 2.33398 11.4018 2.33398 11.6665C2.33398 11.8325 2.41485 12.0393 2.66457 12.2787C2.91561 12.5193 3.30533 12.759 3.82801 12.9709C4.8708 13.3937 6.34581 13.6665 8.00065 13.6665C9.65549 13.6665 11.1305 13.3937 12.1733 12.9709C12.696 12.759 13.0857 12.5193 13.3367 12.2787C13.5865 12.0393 13.6673 11.8325 13.6673 11.6665C13.6673 11.4018 13.4461 11.0241 12.7494 10.6353C12.0817 10.2627 11.105 9.95916 9.93185 9.79619C9.65833 9.75819 9.46741 9.50566 9.50541 9.23214C9.5434 8.95863 9.79593 8.7677 10.0695 8.8057C11.3204 8.97948 12.427 9.31026 13.2367 9.76206C14.0173 10.1977 14.6673 10.8344 14.6673 11.6665C14.6673 12.191 14.4031 12.6418 14.0287 13.0006C13.6556 13.3582 13.1423 13.6572 12.549 13.8977C11.3599 14.3797 9.75156 14.6665 8.00065 14.6665C6.24974 14.6665 4.64142 14.3797 3.45231 13.8977C2.85904 13.6572 2.34567 13.3582 1.97261 13.0006C1.59824 12.6418 1.33398 12.191 1.33398 11.6665C1.33398 10.8344 1.98403 10.1977 2.76464 9.76206C3.57427 9.31026 4.68093 8.97948 5.93185 8.8057C6.20537 8.7677 6.4579 8.95863 6.49589 9.23214Z" fill="#FAFAFA"/>
</svg>
