<svg width="16" height="16" viewBox="0 0 16 16" fill="none" xmlns="http://www.w3.org/2000/svg">
<path fill-rule="evenodd" clip-rule="evenodd" d="M3.903 3.33333C4.12064 2.56383 4.82813 2 5.66732 2H10.334C11.1732 2 11.8807 2.56383 12.0983 3.33333H12.834C13.8465 3.33333 14.6673 4.15414 14.6673 5.16667V10.8333C14.6673 11.8459 13.8465 12.6667 12.834 12.6667H12.0983C11.8807 13.4362 11.1732 14 10.334 14H5.66732C4.82813 14 4.12064 13.4362 3.90299 12.6667H3.16732C2.1548 12.6667 1.33398 11.8459 1.33398 10.8333V5.16667C1.33398 4.15414 2.1548 3.33333 3.16732 3.33333H3.903ZM3.83398 4.33333H3.16732C2.70708 4.33333 2.33398 4.70643 2.33398 5.16667V10.8333C2.33398 11.2936 2.70708 11.6667 3.16732 11.6667H3.83398V4.33333ZM12.1673 11.6667H12.834C13.2942 11.6667 13.6673 11.2936 13.6673 10.8333V5.16667C13.6673 4.70643 13.2942 4.33333 12.834 4.33333H12.1673V11.6667ZM5.66732 3C5.20708 3 4.83398 3.3731 4.83398 3.83333V12.1667C4.83398 12.6269 5.20708 13 5.66732 13H10.334C10.7942 13 11.1673 12.6269 11.1673 12.1667V3.83333C11.1673 3.3731 10.7942 3 10.334 3H5.66732Z" fill="#FAFAFA"/>
</svg>
