<svg width="16" height="16" viewBox="0 0 16 16" fill="none" xmlns="http://www.w3.org/2000/svg">
<path d="M10.1217 8.73193C10.3608 8.59419 10.6666 8.67595 10.8047 8.91488L11.153 9.51774C11.2673 9.71588 11.3281 9.94133 11.3281 10.1701C11.328 10.3987 11.2673 10.6238 11.153 10.8218C11.0386 11.0198 10.8738 11.1846 10.6758 11.299C10.5024 11.399 10.3077 11.4578 10.1087 11.4709L10.0234 11.4735H9.19922C9.34897 11.6694 9.33459 11.9511 9.1556 12.1304C8.96043 12.3253 8.64379 12.3252 8.44857 12.1304L7.64453 11.327C7.62372 11.3062 7.60556 11.2832 7.58919 11.2599C7.58694 11.2567 7.58423 11.2534 7.58203 11.2502C7.5723 11.2356 7.5653 11.2193 7.55729 11.2039C7.55041 11.1908 7.54219 11.178 7.53646 11.1642C7.53205 11.1535 7.52966 11.1419 7.52604 11.131C7.5095 11.0814 7.49873 11.0286 7.4987 10.9735C7.49872 10.9216 7.50811 10.8721 7.52279 10.825C7.52689 10.8118 7.52993 10.7982 7.53516 10.7853L7.53776 10.7788C7.54278 10.767 7.55011 10.7563 7.55599 10.745C7.57903 10.7003 7.60717 10.6574 7.64453 10.62L8.44857 9.81592C8.64385 9.62088 8.96041 9.62073 9.1556 9.81592C9.33483 9.99553 9.34923 10.2775 9.19857 10.4735H10.0241C10.0772 10.4734 10.1298 10.459 10.1758 10.4325C10.2217 10.4059 10.2605 10.3677 10.2871 10.3218C10.3137 10.2757 10.3281 10.2226 10.3281 10.1694L10.3255 10.1297C10.3221 10.1037 10.3147 10.0778 10.3047 10.0535L10.2871 10.0177L9.9388 9.41488C9.80082 9.17581 9.88273 8.87005 10.1217 8.73193Z" fill="#FAFAFA"/>
<path d="M6.33008 7.4611C6.34698 7.46221 6.36401 7.46476 6.38086 7.46761C6.39548 7.47009 6.41022 7.47297 6.42448 7.47673C6.4429 7.48159 6.46177 7.48656 6.47982 7.49365C6.48425 7.49538 6.48912 7.497 6.49349 7.49886C6.51012 7.50598 6.52685 7.51452 6.54297 7.5236C6.5478 7.52636 6.55258 7.52985 6.55729 7.53271C6.56353 7.5365 6.57011 7.54037 6.57617 7.54443C6.59574 7.55757 6.61438 7.57203 6.63151 7.5874C6.64535 7.59985 6.65748 7.61442 6.66992 7.62842C6.67838 7.63792 6.68768 7.64699 6.69531 7.65706C6.7084 7.67434 6.7196 7.69329 6.73047 7.7124C6.73521 7.7207 6.74122 7.72859 6.74544 7.73714C6.75061 7.74768 6.75398 7.75934 6.75846 7.77034C6.76606 7.78895 6.774 7.80762 6.7793 7.82699L6.7806 7.82959L7.07487 8.9279C7.14585 9.19431 6.98767 9.46834 6.72135 9.53988C6.48163 9.60411 6.23595 9.48205 6.13672 9.26318L5.71549 10.0132L5.71289 10.0177C5.68631 10.0639 5.67188 10.1162 5.67188 10.1694C5.67196 10.2226 5.68632 10.2751 5.71289 10.3211C5.7395 10.367 5.77765 10.4059 5.82357 10.4325C5.86967 10.4589 5.92274 10.4735 5.97591 10.4735H6.79362C7.06961 10.4736 7.29362 10.6974 7.29362 10.9735C7.29326 11.2492 7.06939 11.4733 6.79362 11.4735H5.97591C5.74734 11.4735 5.52227 11.4131 5.32422 11.299C5.12612 11.1847 4.96152 11.0197 4.84701 10.8218C4.73255 10.6237 4.67199 10.3982 4.67188 10.1694C4.67188 9.94074 4.73208 9.71583 4.84635 9.51774L5.27995 8.74626C5.02972 8.78716 4.78414 8.63287 4.7168 8.38297C4.64534 8.11629 4.80366 7.84187 5.07031 7.77034L6.16016 7.47803C6.16179 7.47757 6.16373 7.47717 6.16536 7.47673L6.16862 7.47607L6.21875 7.46566C6.22383 7.46488 6.22931 7.46501 6.23438 7.46435C6.25178 7.46213 6.26949 7.46083 6.28711 7.46045C6.30144 7.46014 6.31592 7.46019 6.33008 7.4611Z" fill="#FAFAFA"/>
<path d="M7.9987 5.36019C8.22764 5.36029 8.45349 5.42072 8.65169 5.53532C8.825 5.63566 8.97266 5.77493 9.08333 5.94092L9.12891 6.01383L9.13021 6.01579L9.54948 6.75342C9.64682 6.5306 9.89538 6.40605 10.1374 6.47087C10.4038 6.54248 10.5621 6.81699 10.4909 7.0835L10.1966 8.18115C10.1884 8.21193 10.1767 8.24134 10.1634 8.26904C10.121 8.35772 10.0528 8.43543 9.96094 8.48779C9.86368 8.5431 9.75543 8.55985 9.65234 8.54704C9.63813 8.54526 9.62361 8.54292 9.60938 8.53988C9.59549 8.5369 9.58129 8.53424 9.56771 8.53011L8.48633 8.2404C8.21979 8.16886 8.06151 7.89501 8.13281 7.62842C8.1994 7.38046 8.44139 7.226 8.68945 7.26318L8.26237 6.51253L8.24023 6.47933C8.21618 6.44788 8.18549 6.42123 8.15104 6.4012C8.10499 6.37458 8.05189 6.36029 7.9987 6.36019C7.94553 6.36023 7.89307 6.37465 7.84701 6.4012C7.80083 6.4279 7.76231 6.46632 7.73568 6.51253L7.73503 6.51318L7.45182 7.00342C7.31376 7.24222 7.00783 7.32393 6.76888 7.18636C6.52982 7.04815 6.44772 6.74183 6.58594 6.50277L6.86979 6.01253C6.98408 5.81448 7.14839 5.64978 7.34635 5.53532C7.54457 5.4208 7.76978 5.36023 7.9987 5.36019Z" fill="#FAFAFA"/>
<path fill-rule="evenodd" clip-rule="evenodd" d="M6.16602 1.3335C6.4421 1.3335 6.66593 1.55743 6.66602 1.8335V2.69938L9.33268 2.70199V1.8361C9.33268 1.56001 9.55661 1.33619 9.83268 1.3361C10.1088 1.33619 10.3327 1.56001 10.3327 1.8361V2.70199L11.9993 2.69938C12.7356 2.69947 13.3326 3.29646 13.3327 4.03271V13.3335L13.3255 13.4696C13.2573 14.1419 12.6896 14.6667 11.9993 14.6668H3.99935C3.26313 14.6667 2.66615 14.0697 2.66602 13.3335V4.03271C2.6661 3.29646 3.2631 2.69947 3.99935 2.69938H5.66602V1.8335C5.6661 1.55743 5.88993 1.3335 6.16602 1.3335ZM3.99935 3.69938C3.81538 3.69947 3.6661 3.84875 3.66602 4.03271V13.3335C3.66615 13.5174 3.81541 13.6667 3.99935 13.6668H11.9993C12.1833 13.6667 12.3326 13.5174 12.3327 13.3335V4.03271C12.3326 3.84875 12.1833 3.69947 11.9993 3.69938H3.99935Z" fill="#FAFAFA"/>
</svg>
