<svg width="16" height="16" viewBox="0 0 16 16" fill="none" xmlns="http://www.w3.org/2000/svg">
<path fill-rule="evenodd" clip-rule="evenodd" d="M6.17187 1.95671L6.30534 1.97233C6.65439 2.0178 7.24846 2.14246 7.73698 2.59863C8.22489 3.05438 8.52792 3.76113 8.50521 4.80697C8.65707 4.71665 8.82248 4.62195 9 4.53223C9.54413 4.25723 10.2209 4.00879 10.9909 4.00684C10.9928 4.0068 10.9948 4.00687 10.9967 4.00684L11 4.00619C11.9052 3.99177 12.7804 4.33289 13.4355 4.95671C14.093 5.58281 14.476 6.44333 14.5 7.34993C14.5001 7.35422 14.5 7.35867 14.5 7.36296C14.5 8.71347 14.026 10.6099 13.3314 12.1644C12.9828 12.9445 12.5657 13.6693 12.1003 14.2074C11.6488 14.7292 11.0715 15.1663 10.3997 15.1663C9.90698 15.1663 9.43187 14.9592 9.06966 14.8135C8.66898 14.6523 8.34061 14.5329 8 14.5329C7.65939 14.5329 7.33102 14.6523 6.93034 14.8135C6.56813 14.9592 6.09301 15.1663 5.60026 15.1663C4.92845 15.1663 4.35116 14.7292 3.89974 14.2074C3.43426 13.6693 3.01719 12.9445 2.66862 12.1644C1.97404 10.6099 1.5 8.71347 1.5 7.36296V7.35059C1.52223 6.44329 1.90462 5.58201 2.5625 4.9554C3.21806 4.33117 4.0943 3.99086 5 4.00684H5.0013C5.0043 4.00689 5.00742 4.00612 5.01042 4.00619L5.00977 4.00684C5.77949 4.00893 6.45602 4.25731 7 4.53223C7.18134 4.62388 7.35004 4.72072 7.50456 4.81283C7.53001 3.95782 7.283 3.54171 7.05339 3.32715C6.82834 3.117 6.54679 3.0258 6.30143 2.98145L6.07096 2.9502L6.02018 2.94238C5.7718 2.89107 5.59777 2.65967 5.6237 2.40267C5.6498 2.14557 5.8668 1.95384 6.12044 1.9541L6.17187 1.95671ZM4.98958 5.00619C4.34361 4.99289 3.7191 5.23523 3.2526 5.67936C2.78616 6.12355 2.51569 6.7336 2.5 7.37533C2.50297 8.54683 2.92835 10.2953 3.58138 11.7568C3.90774 12.4872 4.27807 13.1159 4.65625 13.5531C5.04855 14.0065 5.37208 14.1663 5.60026 14.1663C5.85734 14.1663 6.13221 14.0567 6.55729 13.8857C6.94403 13.7302 7.44074 13.5329 8 13.5329C8.55925 13.5329 9.05597 13.7302 9.44271 13.8857C9.86779 14.0567 10.1427 14.1663 10.3997 14.1663C10.6279 14.1663 10.9515 14.0065 11.3437 13.5531C11.7219 13.1159 12.0923 12.4872 12.4186 11.7568C13.0715 10.2956 13.4969 8.54747 13.5 7.37598L13.4941 7.25619C13.4486 6.65912 13.1832 6.09761 12.7461 5.68132C12.2796 5.23717 11.6551 4.99417 11.0091 5.00619H11C10.4418 5.00619 9.92186 5.18693 9.45117 5.4248C9.21667 5.54332 8.99973 5.67285 8.79883 5.79785C8.60748 5.91691 8.40738 6.04692 8.24349 6.13835C8.09216 6.22269 7.90784 6.22269 7.75651 6.13835C7.59261 6.04692 7.39252 5.91691 7.20117 5.79785C7.00027 5.67285 6.78333 5.54332 6.54883 5.4248C6.13703 5.21669 5.68751 5.05248 5.20768 5.01465L5 5.00619C4.99656 5.00619 4.99302 5.00626 4.98958 5.00619Z" fill="#FAFAFA"/>
<path d="M10.1888 2.97298C10.1884 3.249 10.0786 3.51348 9.88346 3.70866C9.68825 3.90383 9.42383 4.01368 9.14779 4.014H8.62695V3.49316C8.62731 3.21718 8.73716 2.95266 8.93229 2.75749C9.12754 2.56224 9.3925 2.45244 9.66862 2.45215H10.1888V2.97298Z" fill="#FAFAFA"/>
</svg>
