<svg width="16" height="16" viewBox="0 0 16 16" fill="none" xmlns="http://www.w3.org/2000/svg">
<path d="M10.8574 7.32394C10.8574 5.74598 9.57823 4.4668 8.00028 4.4668V8.43346H10.8574V7.32394Z" fill="#316EFF"/>
<path d="M10.3337 10V7.33333C10.3337 6.04467 9.28899 5 8.00033 5C6.71166 5 5.66699 6.04467 5.66699 7.33333V10C5.66699 11.2887 6.71166 12.3333 8.00033 12.3333V13.3333C6.21681 13.3333 4.76068 11.9326 4.67155 10.1712L4.66699 10V7.33333C4.66699 5.49238 6.15938 4 8.00033 4C9.84127 4 11.3337 5.49238 11.3337 7.33333V10L11.3291 10.1712C11.24 11.9326 9.78384 13.3333 8.00033 13.3333V12.3333C9.28899 12.3333 10.3337 11.2887 10.3337 10Z" fill="#FAFAFA"/>
<path d="M10.8577 7.93359V8.93359H5.14355V7.93359H10.8577Z" fill="#FAFAFA"/>
<path d="M7.93229 7.52083C7.61857 7.48887 7.36902 7.23956 7.33724 6.92578L7.33398 6.85807V6.23112C7.33398 5.86293 7.63246 5.56445 8.00065 5.56445C8.36884 5.56445 8.66732 5.86293 8.66732 6.23112V6.85807L8.66406 6.92578C8.63001 7.26204 8.34589 7.52474 8.00065 7.52474L7.93229 7.52083Z" fill="#FAFAFA"/>
<path d="M12.4392 4.00016V3.63069L13.5962 2.74113C13.7268 2.64073 13.8217 2.54702 13.8809 2.46C13.9417 2.37165 13.972 2.27392 13.972 2.16683C13.972 2.06241 13.9409 1.9754 13.8786 1.90579C13.8164 1.83617 13.7109 1.80137 13.5621 1.80137C13.3935 1.80137 13.2728 1.84354 13.1999 1.92787C13.1271 2.01221 13.0906 2.12131 13.0906 2.25518H12.5121C12.5121 2.06241 12.5524 1.89708 12.6328 1.7592C12.7148 1.62131 12.834 1.51623 12.9904 1.44394C13.1468 1.37031 13.3373 1.3335 13.5621 1.3335C13.7686 1.3335 13.9485 1.36496 14.1018 1.42787C14.2567 1.49079 14.3759 1.58115 14.4594 1.69896C14.5444 1.81676 14.587 1.96 14.587 2.12868C14.587 2.27058 14.5573 2.39641 14.4981 2.50619C14.4389 2.61596 14.3577 2.71703 14.2544 2.8094C14.1527 2.90043 14.0365 2.99347 13.906 3.08852L13.2842 3.54836H14.6667V4.00016H12.4392Z" fill="#316EFF"/>
<path d="M10 4.00016L10.845 2.87165L11.1092 2.73711L11.5806 2.04032H12.2252L11.4394 3.09454L11.198 3.22506L10.6445 4.00016H10ZM11.6512 4.00016L11.0932 3.22506L10.8769 3.10056L10.0752 2.04032H10.7197L11.198 2.7351L11.444 2.86964L12.298 4.00016H11.6512Z" fill="#316EFF"/>
</svg>
