<svg width="16" height="16" viewBox="0 0 16 16" fill="none" xmlns="http://www.w3.org/2000/svg">
<path fill-rule="evenodd" clip-rule="evenodd" d="M8.7168 4.83602C8.96878 4.86177 9.16536 5.07464 9.16536 5.33341V10.3334C9.16536 10.6096 8.94151 10.8334 8.66536 10.8334H7.16536V11.3334C7.16533 11.4974 7.08462 11.6508 6.94987 11.7442C6.81512 11.8375 6.64305 11.8591 6.48958 11.8015L3.82292 10.8015C3.62792 10.7283 3.49875 10.5417 3.4987 10.3334V5.33341C3.4987 5.29604 3.50329 5.25973 3.51107 5.22469C3.51705 5.19794 3.52496 5.1718 3.53516 5.14657C3.53818 5.13906 3.54155 5.13175 3.54492 5.12443C3.56777 5.07493 3.59883 5.02954 3.63672 4.98966C3.64222 4.98387 3.64787 4.97826 3.65365 4.97274C3.67247 4.95473 3.69243 4.93769 3.71419 4.92261L3.71549 4.92131C3.72015 4.9181 3.72505 4.91524 3.72982 4.91219C3.74929 4.89975 3.76964 4.88917 3.79036 4.87964C3.79794 4.87615 3.80537 4.87233 3.81315 4.86922C3.83774 4.85938 3.86301 4.85159 3.88867 4.84578C3.90214 4.84276 3.91583 4.84054 3.92969 4.83862C3.93318 4.83813 3.9366 4.83709 3.9401 4.83667C3.95658 4.83475 3.97331 4.8337 3.99023 4.83341H8.66536L8.7168 4.83602ZM4.4987 9.98641L6.16536 10.6114V6.67977L4.4987 6.05477V9.98641ZM6.84115 5.86532L6.91081 5.89787C7.06629 5.98545 7.16536 6.15104 7.16536 6.33341V9.83342H8.16536V5.83341H6.75586L6.84115 5.86532Z" fill="#FAFAFA"/>
<path d="M11.6654 9.33342C12.2176 9.33342 12.6654 9.78113 12.6654 10.3334C12.6654 10.8857 12.2176 11.3334 11.6654 11.3334C11.1131 11.3334 10.6654 10.8857 10.6654 10.3334C10.6654 9.78113 11.1131 9.33342 11.6654 9.33342Z" fill="#FAFAFA"/>
<path d="M11.6654 6.66675C12.2176 6.66675 12.6654 7.11446 12.6654 7.66675C12.6654 8.21903 12.2176 8.66675 11.6654 8.66675C11.1131 8.66675 10.6654 8.21903 10.6654 7.66675C10.6654 7.11446 11.1131 6.66675 11.6654 6.66675Z" fill="#FAFAFA"/>
<path fill-rule="evenodd" clip-rule="evenodd" d="M13.332 2.66675C14.0684 2.66675 14.6654 3.2637 14.6654 4.00008V12.0001C14.6654 12.7365 14.0684 13.3334 13.332 13.3334H2.66536L2.5293 13.3263C1.85685 13.2581 1.33203 12.6905 1.33203 12.0001V4.00008C1.33203 3.2637 1.92898 2.66675 2.66536 2.66675H13.332ZM2.66536 3.66675C2.48127 3.66675 2.33203 3.81599 2.33203 4.00008V12.0001C2.33203 12.1842 2.48127 12.3334 2.66536 12.3334H13.332C13.5161 12.3334 13.6654 12.1842 13.6654 12.0001V4.00008C13.6654 3.81599 13.5161 3.66675 13.332 3.66675H2.66536Z" fill="#FAFAFA"/>
</svg>
