<svg width="16" height="16" viewBox="0 0 16 16" fill="none" xmlns="http://www.w3.org/2000/svg">
<path fill-rule="evenodd" clip-rule="evenodd" d="M5.16667 1.33325C5.44281 1.33325 5.66667 1.55711 5.66667 1.83325V2.66659H10.3333V1.83325C10.3333 1.55711 10.5572 1.33325 10.8333 1.33325C11.1095 1.33325 11.3333 1.55711 11.3333 1.83325V2.66659H12.1667C13.1792 2.66659 14 3.4874 14 4.49992V7.49992C14 7.77606 13.7761 7.99992 13.5 7.99992C13.2239 7.99992 13 7.77606 13 7.49992V6.66658H3V12.1666C3 12.6268 3.3731 12.9999 3.83333 12.9999H7.5C7.77614 12.9999 8 13.2238 8 13.4999C8 13.7761 7.77614 13.9999 7.5 13.9999H3.83333C2.82081 13.9999 2 13.1791 2 12.1666V4.49992C2 3.4874 2.82081 2.66659 3.83333 2.66659H4.66667V1.83325C4.66667 1.55711 4.89052 1.33325 5.16667 1.33325ZM3 5.66658H13V4.49992C13 4.03968 12.6269 3.66659 12.1667 3.66659H3.83333C3.3731 3.66659 3 4.03968 3 4.49992V5.66658ZM11.8333 9.33325C12.1095 9.33325 12.3333 9.55711 12.3333 9.83325V11.4999H14C14.2761 11.4999 14.5 11.7238 14.5 11.9999C14.5 12.2761 14.2761 12.4999 14 12.4999H12.3333V14.1666C12.3333 14.4427 12.1095 14.6666 11.8333 14.6666C11.5572 14.6666 11.3333 14.4427 11.3333 14.1666V12.4999H9.66667C9.39052 12.4999 9.16667 12.2761 9.16667 11.9999C9.16667 11.7238 9.39052 11.4999 9.66667 11.4999H11.3333V9.83325C11.3333 9.55711 11.5572 9.33325 11.8333 9.33325Z" fill="#FAFAFA"/>
</svg>
