<svg width="16" height="16" viewBox="0 0 16 16" fill="none" xmlns="http://www.w3.org/2000/svg">
<path d="M10.0005 13.4999C10.2766 13.4999 10.5005 13.7238 10.5005 13.9999C10.5005 14.2761 10.2766 14.4999 10.0005 14.4999H6.00045C5.72431 14.4999 5.50045 14.2761 5.50045 13.9999C5.50045 13.7238 5.72431 13.4999 6.00045 13.4999H10.0005Z" fill="#FAFAFA"/>
<path d="M11.0792 1.23106C11.2185 1.01282 11.4987 0.939163 11.7251 1.05333L11.7693 1.07872L11.962 1.20632C12.8509 1.81619 13.5852 2.62511 14.1059 3.56895L14.214 3.77338L14.2348 3.8196C14.3266 4.05599 14.2261 4.32777 13.9952 4.44526C13.7647 4.56261 13.486 4.48424 13.3488 4.27143L13.3227 4.22651L13.2303 4.05203C12.7848 3.24455 12.1567 2.55228 11.3963 2.03054L11.2316 1.92117L11.1899 1.89187C10.991 1.73468 10.9399 1.44935 11.0792 1.23106Z" fill="#FAFAFA"/>
<path d="M4.23157 1.07872C4.46435 0.930189 4.77313 0.998297 4.92168 1.23106C5.07018 1.4638 5.002 1.77259 4.76933 1.92117C3.87903 2.48924 3.15656 3.28528 2.67754 4.22651C2.5523 4.47259 2.25176 4.57046 2.00566 4.44526C1.75958 4.32002 1.66171 4.01948 1.78691 3.77338C2.34685 2.67313 3.19084 1.74278 4.23157 1.07872Z" fill="#FAFAFA"/>
<path d="M12.0001 6.99994C12.0001 5.93917 11.5789 4.92194 10.8289 4.17182C10.0788 3.42167 9.06099 2.99994 8.00013 2.99994C6.93935 3.00001 5.92209 3.42173 5.172 4.17182C4.42194 4.92195 4.00013 5.93914 4.00013 6.99994C4.00013 9.17596 3.52668 10.5304 3.08997 11.3443L3.00338 11.4999H12.9982C12.5394 10.7072 12.0001 9.32122 12.0001 6.99994ZM13.0001 6.99994C13.0001 8.88596 13.3816 10.0493 13.7221 10.7343L13.8641 10.9993L13.9227 11.1171C13.9726 11.2378 13.9987 11.3678 13.9988 11.4993C13.9989 11.6744 13.9527 11.8468 13.8654 11.9986C13.778 12.1504 13.6522 12.2766 13.5008 12.3645C13.3493 12.4525 13.1773 12.4993 13.0021 12.4999H2.99752C2.82253 12.4989 2.65064 12.452 2.49948 12.3639C2.34829 12.2757 2.2226 12.1492 2.13555 11.9973C2.04857 11.8456 2.00315 11.6735 2.00338 11.4986C2.00365 11.3236 2.04998 11.1515 2.1375 10.9999L2.27943 10.735C2.61956 10.0498 3.00013 8.88586 3.00013 6.99994C3.00013 5.67386 3.52729 4.40182 4.46497 3.46414C5.40258 2.52664 6.67423 2.00001 8.00013 1.99994C9.32615 1.99994 10.5983 2.52653 11.5359 3.46414C12.4736 4.40182 13.0001 5.67386 13.0001 6.99994Z" fill="#FAFAFA"/>
</svg>
