<svg width="16" height="16" viewBox="0 0 16 16" fill="none" xmlns="http://www.w3.org/2000/svg">
<path fill-rule="evenodd" clip-rule="evenodd" d="M1.99935 3.83333C1.99935 2.82081 2.82016 2 3.83268 2H8.16602C9.17854 2 9.99935 2.82081 9.99935 3.83333V4.83333H12.166C13.1785 4.83333 13.9993 5.65414 13.9993 6.66667V12.3333H14.8327C15.1088 12.3333 15.3327 12.5572 15.3327 12.8333C15.3327 13.1095 15.1088 13.3333 14.8327 13.3333H1.16602C0.889873 13.3333 0.666016 13.1095 0.666016 12.8333C0.666016 12.5572 0.889873 12.3333 1.16602 12.3333H1.99935V3.83333ZM2.99935 12.3333H8.99935V3.83333C8.99935 3.3731 8.62625 3 8.16602 3H3.83268C3.37245 3 2.99935 3.3731 2.99935 3.83333V12.3333ZM9.99935 12.3333H12.9993V6.66667C12.9993 6.20643 12.6263 5.83333 12.166 5.83333H9.99935V12.3333ZM4.66602 5.83333C4.66602 5.55719 4.88987 5.33333 5.16602 5.33333H6.83268C7.10882 5.33333 7.33268 5.55719 7.33268 5.83333C7.33268 6.10948 7.10882 6.33333 6.83268 6.33333H5.16602C4.88987 6.33333 4.66602 6.10948 4.66602 5.83333ZM4.66602 8.5C4.66602 8.22386 4.88987 8 5.16602 8H6.83268C7.10882 8 7.33268 8.22386 7.33268 8.5C7.33268 8.77614 7.10882 9 6.83268 9H5.16602C4.88987 9 4.66602 8.77614 4.66602 8.5Z" fill="#FAFAFA"/>
</svg>
