<svg width="16" height="16" viewBox="0 0 16 16" fill="none" xmlns="http://www.w3.org/2000/svg">
<path fill-rule="evenodd" clip-rule="evenodd" d="M3.89713 3.0026C2.84037 3.05614 2 3.92993 2 5V11L2.0026 11.1029C2.05442 12.1256 2.87444 12.9456 3.89713 12.9974L4 13H12L12.1029 12.9974C13.1256 12.9456 13.9456 12.1256 13.9974 11.1029L14 11V5C14 3.92993 13.1596 3.05614 12.1029 3.0026L12 3H4L3.89713 3.0026ZM12 4C12.5523 4 13 4.44772 13 5V11C13 11.5523 12.5523 12 12 12H10.5V4H12ZM9.5 12H4C3.44771 12 3 11.5523 3 11V5C3 4.44772 3.44771 4 4 4H9.5V12Z" fill="#FAFAFA"/>
</svg>
