<svg width="16" height="16" viewBox="0 0 16 16" fill="none" xmlns="http://www.w3.org/2000/svg">
<path fill-rule="evenodd" clip-rule="evenodd" d="M5.5 3.75C5.79837 3.75 6.08459 3.86845 6.29557 4.07943C6.50655 4.29041 6.625 4.57663 6.625 4.875V7.5H9.375V4.875C9.375 4.57663 9.49345 4.29041 9.70443 4.07943C9.91541 3.86845 10.2016 3.75 10.5 3.75H11.125C11.4234 3.75 11.7096 3.86845 11.9206 4.07943C12.1316 4.29041 12.25 4.57663 12.25 4.875V5H13C13.2984 5 13.5846 5.11845 13.7956 5.32943C14.0066 5.54041 14.125 5.82663 14.125 6.125V7.5H14.25C14.5261 7.5 14.75 7.72386 14.75 8C14.75 8.27614 14.5261 8.5 14.25 8.5H14.125V9.875C14.125 10.1734 14.0066 10.4596 13.7956 10.6706C13.5846 10.8816 13.2984 11 13 11H12.25V11.125C12.25 11.4234 12.1316 11.7096 11.9206 11.9206C11.7096 12.1316 11.4234 12.25 11.125 12.25H10.5C10.2016 12.25 9.91541 12.1316 9.70443 11.9206C9.49345 11.7096 9.375 11.4234 9.375 11.125V8.5H6.625V11.125C6.625 11.4234 6.50655 11.7096 6.29557 11.9206C6.08459 12.1316 5.79837 12.25 5.5 12.25H4.875C4.57663 12.25 4.29041 12.1316 4.07943 11.9206C3.86845 11.7096 3.75 11.4234 3.75 11.125V11H3C2.70163 11 2.41541 10.8816 2.20443 10.6706C1.99345 10.4596 1.875 10.1734 1.875 9.875V8.5H1.75C1.47386 8.5 1.25 8.27614 1.25 8C1.25 7.72386 1.47386 7.5 1.75 7.5H1.875V6.125C1.875 5.82663 1.99345 5.54041 2.20443 5.32943C2.41541 5.11845 2.70163 5 3 5H3.75V4.875C3.75 4.57663 3.86845 4.29041 4.07943 4.07943C4.29041 3.86845 4.57663 3.75 4.875 3.75H5.5ZM4.875 4.75C4.84185 4.75 4.8099 4.76302 4.78646 4.78646C4.76302 4.8099 4.75 4.84185 4.75 4.875V11.125C4.75 11.1582 4.76302 11.1901 4.78646 11.2135C4.8099 11.237 4.84185 11.25 4.875 11.25H5.5C5.53315 11.25 5.5651 11.237 5.58854 11.2135C5.61198 11.1901 5.625 11.1582 5.625 11.125V4.875C5.625 4.84185 5.61198 4.8099 5.58854 4.78646C5.5651 4.76302 5.53315 4.75 5.5 4.75H4.875ZM10.5 4.75C10.4668 4.75 10.4349 4.76302 10.4115 4.78646C10.388 4.8099 10.375 4.84185 10.375 4.875V11.125C10.375 11.1582 10.388 11.1901 10.4115 11.2135C10.4349 11.237 10.4668 11.25 10.5 11.25H11.125C11.1582 11.25 11.1901 11.237 11.2135 11.2135C11.237 11.1901 11.25 11.1582 11.25 11.125V4.875C11.25 4.84185 11.237 4.8099 11.2135 4.78646C11.1901 4.76302 11.1582 4.75 11.125 4.75H10.5ZM3 6C2.96685 6 2.9349 6.01302 2.91146 6.03646C2.88802 6.0599 2.875 6.09185 2.875 6.125V9.875C2.875 9.90815 2.88802 9.9401 2.91146 9.96354C2.9349 9.98698 2.96685 10 3 10H3.75V6H3ZM12.25 10H13C13.0332 10 13.0651 9.98698 13.0885 9.96354C13.112 9.9401 13.125 9.90815 13.125 9.875V6.125C13.125 6.09185 13.112 6.0599 13.0885 6.03646C13.0651 6.01302 13.0332 6 13 6H12.25V10Z" fill="#FAFAFA"/>
</svg>
