<svg width="16" height="16" viewBox="0 0 16 16" fill="none" xmlns="http://www.w3.org/2000/svg">
<path d="M7.64681 5.45931C7.84207 5.26405 8.15858 5.26405 8.35384 5.45931L10.5413 7.64681C10.5736 7.67907 10.5985 7.71579 10.6201 7.75358C10.6305 7.77168 10.6413 7.78949 10.6494 7.80892C10.6632 7.84225 10.6731 7.87672 10.6794 7.91178C10.6845 7.94056 10.6878 7.97007 10.6878 8.00033C10.6878 8.03036 10.6844 8.05964 10.6794 8.08822C10.6731 8.1233 10.6632 8.15772 10.6494 8.19108C10.6436 8.20516 10.6356 8.21805 10.6286 8.23145C10.6057 8.27508 10.578 8.31716 10.5413 8.35384L8.35384 10.5413C8.15858 10.7366 7.84207 10.7366 7.64681 10.5413C7.45155 10.3461 7.45155 10.0296 7.64681 9.83431L8.98079 8.50033H5.50033C5.22418 8.50033 5.00033 8.27647 5.00033 8.00033C5.00033 7.72418 5.22418 7.50033 5.50033 7.50033H8.98079L7.64681 6.16634C7.45155 5.97108 7.45155 5.65457 7.64681 5.45931Z" fill="#FAFAFA"/>
<path fill-rule="evenodd" clip-rule="evenodd" d="M8.00033 1.87598C8.27511 1.87598 8.54024 1.9716 8.75098 2.14421L8.83756 2.22233L13.779 7.16374C14.0006 7.38573 14.1252 7.6866 14.1253 8.00033C14.1253 8.31417 14.0007 8.6155 13.779 8.83757L8.83822 13.7783C8.40462 14.2119 7.71808 14.2398 7.25293 13.8597L7.16309 13.7783L2.22168 8.83757C1.99908 8.61467 1.87598 8.313 1.87598 8.00033C1.87606 7.68659 2.00064 7.38573 2.22233 7.16374L7.16374 2.22233C7.38573 2.00064 7.68659 1.87606 8.00033 1.87598ZM8.00033 2.87598C7.95156 2.87606 7.90462 2.89554 7.87012 2.93001L2.93001 7.87012C2.89554 7.90462 2.87606 7.95156 2.87598 8.00033C2.87598 8.05013 2.8953 8.09683 2.92871 8.13053L7.87077 13.0719C7.94204 13.1434 8.05806 13.1437 8.13053 13.0713L13.0713 8.13053C13.1057 8.09598 13.1253 8.04911 13.1253 8.00033C13.1252 7.95156 13.1058 7.90462 13.0713 7.87012L8.13053 2.93001C8.09601 2.89577 8.04897 2.87598 8.00033 2.87598Z" fill="#FAFAFA"/>
</svg>
