<svg width="16" height="16" viewBox="0 0 16 16" fill="none" xmlns="http://www.w3.org/2000/svg">
<path fill-rule="evenodd" clip-rule="evenodd" d="M4.91374 5.08341C4.91374 5.14906 4.92638 5.21417 4.9515 5.27482C4.97662 5.33548 5.01379 5.3905 5.06022 5.43693C5.10665 5.48336 5.16167 5.52053 5.22233 5.54565C5.28298 5.57077 5.34809 5.58341 5.41374 5.58341C5.47938 5.58341 5.54449 5.57077 5.60514 5.54565C5.66581 5.52053 5.72082 5.48336 5.76725 5.43693C5.81368 5.3905 5.85085 5.33548 5.87598 5.27482C5.90109 5.21417 5.91374 5.14906 5.91374 5.08341H6.8278L6.89551 5.08667C7.23175 5.12074 7.49447 5.40485 7.49447 5.75008V10.7501L7.49056 10.8184C7.45632 11.1545 7.17225 11.4167 6.82715 11.4167H3.99967L3.93131 11.4135C3.6177 11.3816 3.3682 11.1321 3.33626 10.8184L3.33301 10.7501V5.75008C3.33301 5.38189 3.63148 5.08341 3.99967 5.08341H4.91374ZM4.33301 10.4167H6.49447V6.08341H4.33301V10.4167Z" fill="#FAFAFA"/>
<path fill-rule="evenodd" clip-rule="evenodd" d="M10.0804 5.08341C10.0804 5.14906 10.0931 5.21417 10.1182 5.27482C10.1433 5.33548 10.1805 5.3905 10.2269 5.43693C10.2733 5.48336 10.3283 5.52053 10.389 5.54565C10.4496 5.57077 10.5148 5.58341 10.5804 5.58341C10.646 5.58341 10.7112 5.57077 10.7718 5.54565C10.8325 5.52053 10.8875 5.48336 10.9339 5.43693C10.9803 5.3905 11.0175 5.33548 11.0426 5.27482C11.0678 5.21417 11.0804 5.14906 11.0804 5.08341H11.9945L12.0622 5.08667C12.3984 5.12074 12.6611 5.40485 12.6611 5.75008V8.71558L12.6572 8.78394C12.623 9.11997 12.3389 9.38218 11.9938 9.38224H9.16634L9.09798 9.37899C8.78436 9.34705 8.53486 9.09755 8.50293 8.78394L8.49967 8.71558V5.75008C8.49967 5.38189 8.79815 5.08341 9.16634 5.08341H10.0804ZM9.49967 8.38224H11.6611V6.08341H9.49967V8.38224Z" fill="#FAFAFA"/>
<path d="M5.41374 4.58341C5.54634 4.58341 5.67348 4.63613 5.76725 4.7299C5.86102 4.82367 5.91374 4.95081 5.91374 5.08341H4.91374C4.91374 4.95081 4.96645 4.82367 5.06022 4.7299C5.15399 4.63613 5.28113 4.58341 5.41374 4.58341Z" fill="#FAFAFA"/>
<path d="M10.5804 4.58341C10.713 4.58341 10.8402 4.63613 10.9339 4.7299C11.0277 4.82367 11.0804 4.95081 11.0804 5.08341H10.0804C10.0804 4.95081 10.1331 4.82367 10.2269 4.7299C10.3207 4.63613 10.4478 4.58341 10.5804 4.58341Z" fill="#FAFAFA"/>
<path fill-rule="evenodd" clip-rule="evenodd" d="M12.833 2.66675C13.8455 2.66675 14.6663 3.48756 14.6663 4.50008V11.5001C14.6663 12.5126 13.8455 13.3334 12.833 13.3334H3.16634C2.15382 13.3334 1.33301 12.5126 1.33301 11.5001V4.50008C1.33301 3.48756 2.15382 2.66675 3.16634 2.66675H12.833ZM3.16634 3.66675C2.7061 3.66675 2.33301 4.03984 2.33301 4.50008V11.5001C2.33301 11.9603 2.7061 12.3334 3.16634 12.3334H12.833C13.2932 12.3334 13.6663 11.9603 13.6663 11.5001V4.50008C13.6663 4.03984 13.2932 3.66675 12.833 3.66675H3.16634Z" fill="#FAFAFA"/>
</svg>
