<svg width="16" height="16" viewBox="0 0 16 16" fill="none" xmlns="http://www.w3.org/2000/svg">
<path d="M1.33398 14.6666L2.27121 11.2427C1.69287 10.2405 1.38898 9.10436 1.38954 7.93936C1.39121 4.29714 4.3551 1.33325 7.99676 1.33325C9.76398 1.33381 11.4229 2.02214 12.6707 3.27103C13.9179 4.51992 14.6045 6.17992 14.604 7.94547C14.6023 11.5883 11.6384 14.5521 7.99676 14.5521C6.89121 14.5516 5.80176 14.2744 4.83676 13.7477L1.33398 14.6666ZM4.99898 12.5516C5.9301 13.1044 6.81898 13.4355 7.99454 13.436C11.0212 13.436 13.4868 10.9727 13.4884 7.94436C13.4895 4.90992 11.0357 2.44992 7.99898 2.44881C4.9701 2.44881 2.50621 4.91214 2.5051 7.93992C2.50454 9.17603 2.86676 10.1016 3.4751 11.0699L2.9201 13.0966L4.99898 12.5516ZM11.3251 9.51603C11.284 9.44714 11.174 9.40603 11.0084 9.32325C10.8434 9.24047 10.0318 8.84103 9.88009 8.78603C9.72898 8.73103 9.61898 8.70325 9.50843 8.86881C9.39843 9.03381 9.08176 9.40603 8.98565 9.51603C8.88954 9.62603 8.79287 9.63992 8.62787 9.55714C8.46287 9.47436 7.93065 9.30047 7.30009 8.7377C6.80954 8.29992 6.47787 7.75936 6.38176 7.59381C6.28565 7.42881 6.37176 7.33936 6.45398 7.25714C6.52843 7.18325 6.61898 7.06436 6.70176 6.9677C6.78565 6.87214 6.81287 6.80325 6.86843 6.6927C6.92343 6.5827 6.89621 6.48603 6.85454 6.40325C6.81287 6.32103 6.48287 5.50825 6.34565 5.1777C6.21121 4.85603 6.0751 4.89936 5.97398 4.89436L5.65732 4.88881C5.54732 4.88881 5.36843 4.92992 5.21732 5.09547C5.06621 5.26103 4.63954 5.65992 4.63954 6.4727C4.63954 7.28547 5.23121 8.07047 5.31343 8.18047C5.39621 8.29047 6.47732 9.95825 8.13343 10.6733C8.52732 10.8433 8.83509 10.9449 9.07454 11.021C9.47009 11.1466 9.8301 11.1288 10.1145 11.0866C10.4318 11.0394 11.0912 10.6871 11.229 10.3016C11.3668 9.91547 11.3668 9.58492 11.3251 9.51603Z" fill="#FAFAFA"/>
</svg>
