<svg width="16" height="16" viewBox="0 0 16 16" fill="none" xmlns="http://www.w3.org/2000/svg">
<path fill-rule="evenodd" clip-rule="evenodd" d="M5.57161 3.34562C6.07145 3.34564 6.55086 3.54427 6.9043 3.8977C7.25766 4.25114 7.45638 4.73059 7.45638 5.23039C7.45632 5.72852 7.25877 6.2061 6.90755 6.55916C6.99254 6.62271 7.07318 6.69289 7.14909 6.7688C7.56728 7.18714 7.80208 7.75474 7.80208 8.34627V9.38468C7.80185 9.66063 7.57808 9.88468 7.30208 9.88468H7.05143L6.75977 12.2161C6.72831 12.4661 6.5157 12.6542 6.26367 12.6542H4.87891C4.627 12.6541 4.41422 12.466 4.38281 12.2161L4.09115 9.88468H3.84049C3.56459 9.88457 3.34073 9.66056 3.34049 9.38468V8.34627C3.34049 7.75473 3.57593 7.18715 3.99414 6.7688C4.06998 6.69296 4.15079 6.62266 4.23568 6.55916C3.88446 6.2061 3.68691 5.72852 3.68685 5.23039C3.68685 4.73057 3.88553 4.25115 4.23893 3.8977C4.59238 3.54425 5.07176 3.34562 5.57161 3.34562ZM5.57161 7.11515C5.24524 7.11521 4.93196 7.24504 4.70117 7.47583C4.4705 7.70664 4.34049 8.01994 4.34049 8.34627V8.88468H4.53255L4.625 8.89315C4.8352 8.93241 5.00192 9.1038 5.0293 9.32283L5.32031 11.6542H5.82227L6.11393 9.32283L6.13346 9.23169C6.19859 9.02825 6.38951 8.88477 6.61003 8.88468H6.80208V8.34627C6.80208 8.01996 6.67271 7.70664 6.44206 7.47583C6.21128 7.24505 5.89798 7.11521 5.57161 7.11515ZM5.57161 4.34562C5.33697 4.34562 5.11188 4.43882 4.94596 4.60474C4.7801 4.77064 4.68685 4.99579 4.68685 5.23039C4.68691 5.46495 4.7801 5.69017 4.94596 5.85604C5.11187 6.02187 5.33704 6.11515 5.57161 6.11515C5.8062 6.11514 6.03137 6.02189 6.19727 5.85604C6.36313 5.69017 6.45632 5.46495 6.45638 5.23039C6.45638 4.99581 6.3631 4.77064 6.19727 4.60474C6.03136 4.43883 5.80623 4.34564 5.57161 4.34562Z" fill="#FAFAFA"/>
<path d="M11.7663 8.67895C11.9719 8.47386 12.3054 8.47393 12.5111 8.67895C12.7165 8.88409 12.7166 9.21673 12.5111 9.42179L11.1068 10.8222C11.0081 10.9206 10.8739 10.9765 10.7344 10.9765C10.6298 10.9764 10.5284 10.9449 10.4427 10.8879L10.3626 10.8222L8.95833 9.42179L8.92187 9.38208C8.75325 9.17581 8.76565 8.87125 8.95833 8.67895C9.15112 8.48675 9.45598 8.47491 9.66276 8.64315L9.70312 8.67895L10.7344 9.70825L11.7663 8.67895Z" fill="#FAFAFA"/>
<path d="M10.7344 5.02336C10.874 5.02339 11.0081 5.07919 11.1068 5.17765L12.5111 6.57804L12.5475 6.61776C12.716 6.82406 12.7038 7.12866 12.5111 7.32088C12.3183 7.51296 12.0127 7.52538 11.806 7.35734L11.7663 7.32088L10.7344 6.29158L9.70312 7.32088C9.49759 7.52579 9.16395 7.52566 8.95833 7.32088C8.75274 7.11579 8.75281 6.78317 8.95833 6.57804L10.3626 5.17765L10.4427 5.1119C10.5285 5.05485 10.6298 5.02342 10.7344 5.02336Z" fill="#FAFAFA"/>
<path fill-rule="evenodd" clip-rule="evenodd" d="M12.832 1.33325C13.8446 1.33325 14.6654 2.15406 14.6654 3.16659V12.8333C14.6654 13.8458 13.8446 14.6666 12.832 14.6666H3.16536C2.15284 14.6666 1.33203 13.8458 1.33203 12.8333V3.16659C1.33203 2.15406 2.15284 1.33325 3.16536 1.33325H12.832ZM3.16536 2.33325C2.70513 2.33325 2.33203 2.70635 2.33203 3.16659V12.8333C2.33203 13.2935 2.70513 13.6666 3.16536 13.6666H12.832C13.2923 13.6666 13.6654 13.2935 13.6654 12.8333V3.16659C13.6654 2.70635 13.2923 2.33325 12.832 2.33325H3.16536Z" fill="#FAFAFA"/>
</svg>
