<svg width="16" height="16" viewBox="0 0 16 16" fill="none" xmlns="http://www.w3.org/2000/svg">
<path d="M7.49519 9.85489C7.49519 9.58772 7.72091 9.37113 7.99913 9.37101C8.27745 9.37101 8.50307 9.58765 8.50307 9.85489V13.6988H10.5752L10.6264 13.7013C10.8805 13.7261 11.0791 13.9322 11.0792 14.1827C11.0792 14.4333 10.8806 14.6393 10.6264 14.6641L10.5752 14.6666H5.42367C5.14535 14.6666 4.91973 14.4499 4.91973 14.1827C4.91985 13.9156 5.14543 13.6988 5.42367 13.6988H7.49519V9.85489Z" fill="#FAFAFA"/>
<path d="M12.8287 4.11555C13.1071 4.11555 13.3327 4.33219 13.3327 4.59943C13.3327 4.86667 13.1071 5.08331 12.8287 5.08331H3.16995C2.89164 5.08331 2.66602 4.86667 2.66602 4.59943C2.66602 4.33219 2.89164 4.11555 3.16995 4.11555H12.8287Z" fill="#FAFAFA"/>
<path d="M12.3248 2.30101H3.67389V5.21751C3.67389 6.31903 4.12977 7.37591 4.94095 8.15481C5.75211 8.93357 6.85205 9.37101 7.99913 9.37101L8.21392 9.36576C9.28287 9.31482 10.2973 8.88487 11.0577 8.15481C11.8689 7.37591 12.3248 6.31903 12.3248 5.21751V2.30101ZM13.3261 5.47142C13.2608 6.73724 12.7081 7.93862 11.7703 8.83904C10.8327 9.73927 9.58189 10.2695 8.26378 10.3323L7.99935 10.3386C6.58496 10.3386 5.22852 9.79929 4.22835 8.83904C3.22816 7.87866 2.66602 6.5757 2.66602 5.21751V1.81713L2.66864 1.76736C2.69459 1.5235 2.90914 1.33325 3.16995 1.33325H12.8287L12.8806 1.33577C13.1345 1.36069 13.3327 1.5667 13.3327 1.81713V5.21751L13.3261 5.47142Z" fill="#FAFAFA"/>
</svg>
