<svg width="16" height="16" viewBox="0 0 16 16" fill="none" xmlns="http://www.w3.org/2000/svg">
<path d="M2.65365 12.8631C3.0402 12.8631 3.35345 13.1765 3.35352 13.563C3.35343 13.9495 3.04019 14.2629 2.65365 14.2629V13.8631L2.65299 13.8625L2.65365 14.2629C2.26715 14.2628 1.95321 13.9495 1.95312 13.563C1.9532 13.1765 2.26714 12.8632 2.65365 12.8631Z" fill="#FAFAFA"/>
<path d="M4.72526 12.8664C5.07818 12.9022 5.35345 13.2007 5.35352 13.563C5.35343 13.9495 5.0402 14.2629 4.65365 14.2629C4.26716 14.2628 3.95386 13.9495 3.95378 13.563C3.95385 13.1765 4.26715 12.8632 4.65365 12.8631L4.72526 12.8664Z" fill="#FAFAFA"/>
<path d="M6.72591 12.8664C7.07883 12.9022 7.3541 13.2007 7.35417 13.563C7.35408 13.9495 7.04085 14.2629 6.6543 14.2629C6.2678 14.2628 5.95451 13.9495 5.95443 13.563C5.9545 13.1765 6.26779 12.8632 6.6543 12.8631L6.72591 12.8664Z" fill="#FAFAFA"/>
<path d="M3.92513 10.8664C4.27805 10.9022 4.55332 11.2006 4.55339 11.563C4.5533 11.9495 4.24007 12.2629 3.85352 12.2629C3.46703 12.2628 3.15373 11.9495 3.15365 11.563C3.15372 11.1765 3.46702 10.8632 3.85352 10.8631L3.92513 10.8664Z" fill="#FAFAFA"/>
<path d="M5.92513 10.8664C6.27805 10.9022 6.55332 11.2006 6.55339 11.563C6.5533 11.9495 6.24007 12.2629 5.85352 12.2629C5.46703 12.2628 5.15373 11.9495 5.15365 11.563C5.15372 11.1765 5.46702 10.8632 5.85352 10.8631L5.92513 10.8664Z" fill="#FAFAFA"/>
<path fill-rule="evenodd" clip-rule="evenodd" d="M10.6816 1.5897C11.0026 1.46392 11.3605 1.4706 11.6764 1.60858C11.9924 1.74657 12.2407 2.00441 12.3665 2.32538L14.4102 7.53957C14.5359 7.86042 14.5291 8.21794 14.3913 8.53371C14.2533 8.84961 13.9954 9.09793 13.6745 9.22382L8.46029 11.2681C8.20361 11.3685 7.91424 11.242 7.81315 10.9855L7.40885 9.96014L6.38737 10.3618C6.26401 10.4102 6.12604 10.4076 6.00456 10.3547C5.883 10.3016 5.78734 10.2021 5.73893 10.0786L5.33724 9.05454L4.3138 9.45819C4.19034 9.50676 4.05261 9.50468 3.93099 9.45168C3.80933 9.39863 3.71379 9.29921 3.66536 9.17564L2.49805 6.19387C2.37222 5.87289 2.37894 5.51503 2.51693 5.19908C2.65493 4.88316 2.91277 4.63481 3.23372 4.50897L10.6816 1.5897ZM11.276 2.5246C11.2033 2.49292 11.1208 2.49177 11.0469 2.52069L3.59896 5.43996C3.52491 5.46899 3.46545 5.52659 3.43359 5.59947C3.4018 5.67232 3.40005 5.7546 3.42904 5.82863L4.41341 8.34426L5.4375 7.94126L5.5319 7.91457C5.62848 7.89721 5.72902 7.90864 5.82031 7.94842C5.94181 8.00146 6.03749 8.10041 6.08594 8.22382L6.48698 9.2479L7.50846 8.84751L7.55729 8.83124C7.80111 8.76307 8.06213 8.88879 8.1569 9.12941L8.5599 10.1542L13.3092 8.29283C13.3832 8.26381 13.4428 8.20675 13.4746 8.13397C13.5064 8.06102 13.5082 7.9782 13.4792 7.90415L11.4355 2.69061C11.4065 2.61659 11.3489 2.55645 11.276 2.5246Z" fill="#FAFAFA"/>
</svg>
