<svg width="16" height="16" viewBox="0 0 16 16" fill="none" xmlns="http://www.w3.org/2000/svg">
<path d="M9.31803 11.0243C9.59418 11.0243 9.81803 11.2481 9.81803 11.5243C9.81786 11.8002 9.59407 12.0243 9.31803 12.0243H6.68197C6.40593 12.0243 6.18214 11.8002 6.18197 11.5243C6.18197 11.2481 6.40582 11.0243 6.68197 11.0243H9.31803Z" fill="#FAFAFA"/>
<path d="M9.75814 4.23193C10.0343 4.23193 10.2581 4.45579 10.2581 4.73193V6.70784C10.258 6.98384 10.0342 7.20784 9.75814 7.20784C9.4821 7.20784 9.25831 6.98384 9.25814 6.70784V4.73193C9.25814 4.45579 9.482 4.23193 9.75814 4.23193Z" fill="#FAFAFA"/>
<path fill-rule="evenodd" clip-rule="evenodd" d="M12.2425 1.33415C12.2529 1.33449 12.2659 1.33503 12.2809 1.3361C12.311 1.33826 12.3511 1.34203 12.3975 1.34977C12.4879 1.36488 12.6161 1.39642 12.7503 1.4637C12.8866 1.53199 13.0379 1.64205 13.154 1.81657C13.272 1.9941 13.3336 2.20821 13.3337 2.44938V13.5607C13.3336 13.5646 13.3332 13.5692 13.333 13.5744C13.3327 13.5848 13.3321 13.5977 13.3311 13.6128C13.3289 13.6429 13.3251 13.683 13.3174 13.7293C13.3023 13.8197 13.271 13.948 13.2041 14.0822C13.1361 14.2184 13.0261 14.3701 12.8519 14.4865C12.6745 14.605 12.4603 14.6668 12.2191 14.6668H3.77181C3.76791 14.6668 3.76328 14.6663 3.75814 14.6662C3.74779 14.6658 3.73476 14.6653 3.71973 14.6642C3.68962 14.6621 3.64956 14.6583 3.60319 14.6506C3.51274 14.6354 3.38457 14.6039 3.25033 14.5366C3.11409 14.4683 2.96274 14.3583 2.84668 14.1838C2.72862 14.0062 2.66703 13.7921 2.66699 13.5509V2.43962C2.66706 2.43572 2.66747 2.43108 2.66764 2.42594C2.66799 2.41557 2.66852 2.40262 2.6696 2.38753C2.67174 2.35743 2.67556 2.31737 2.68327 2.271C2.69832 2.18059 2.72964 2.05229 2.79655 1.91813C2.86451 1.78197 2.97459 1.63023 3.14876 1.51383C3.32617 1.39537 3.54034 1.3335 3.78158 1.3335H12.2288C12.2327 1.33356 12.2374 1.33398 12.2425 1.33415ZM3.66699 13.5509C3.66701 13.586 3.67125 13.6072 3.67415 13.6173C3.6756 13.6224 3.67728 13.6254 3.67806 13.6271C3.67868 13.6285 3.67936 13.6297 3.67936 13.6297C3.67936 13.6297 3.67983 13.6312 3.68197 13.633C3.68449 13.6351 3.68967 13.6384 3.69824 13.6427C3.71764 13.6525 3.74312 13.6601 3.7679 13.6642C3.77893 13.6661 3.78711 13.6666 3.79069 13.6668H12.2191C12.2538 13.6668 12.2743 13.6625 12.2842 13.6597C12.2891 13.6583 12.2923 13.6572 12.2939 13.6564C12.2953 13.6558 12.2965 13.6551 12.2965 13.6551C12.2965 13.6551 12.2974 13.6546 12.2992 13.6525C12.3013 13.65 12.3051 13.6445 12.3096 13.6356C12.3194 13.6159 12.3269 13.5903 12.3311 13.5653C12.3329 13.5541 12.3334 13.5455 12.3337 13.5418V10.2619H3.66699V13.5509ZM3.71647 2.34066C3.71159 2.34206 3.70836 2.34316 3.70671 2.34391C3.70536 2.34453 3.7041 2.34521 3.7041 2.34521C3.7041 2.34521 3.70324 2.34574 3.7015 2.34782C3.69938 2.35037 3.69553 2.35582 3.69108 2.36475C3.6813 2.3844 3.67377 2.41007 3.6696 2.43506C3.66773 2.44627 3.66726 2.45483 3.66699 2.4585V9.26188H7.50033V2.3335H3.78158C3.74687 2.3335 3.72638 2.33783 3.71647 2.34066ZM8.50033 9.26188H12.3337V2.44938C12.3336 2.41429 12.3294 2.39317 12.3265 2.38298C12.3251 2.37795 12.3234 2.37492 12.3226 2.37321C12.322 2.37185 12.3213 2.37061 12.3213 2.37061C12.3213 2.37061 12.3208 2.36913 12.3187 2.36735C12.3162 2.36526 12.311 2.36189 12.3024 2.35758C12.283 2.34786 12.2575 2.34024 12.2327 2.3361C12.2217 2.33426 12.2135 2.33376 12.21 2.3335H8.50033V9.26188Z" fill="#FAFAFA"/>
<path d="M9.75814 4.23193C10.0343 4.23193 10.2581 4.45579 10.2581 4.73193V6.70784C10.258 6.98384 10.0342 7.20784 9.75814 7.20784C9.4821 7.20784 9.25831 6.98384 9.25814 6.70784V4.73193C9.25814 4.45579 9.482 4.23193 9.75814 4.23193Z" fill="#FAFAFA"/>
<path d="M6.22384 4.23193C6.49998 4.23193 6.72384 4.45579 6.72384 4.73193V6.70784C6.72366 6.98384 6.49987 7.20784 6.22384 7.20784C5.9478 7.20784 5.72401 6.98384 5.72384 6.70784V4.73193C5.72384 4.45579 5.9477 4.23193 6.22384 4.23193Z" fill="#FAFAFA"/>
<path d="M6.22384 4.23193C6.49998 4.23193 6.72384 4.45579 6.72384 4.73193V6.70784C6.72366 6.98384 6.49987 7.20784 6.22384 7.20784C5.9478 7.20784 5.72401 6.98384 5.72384 6.70784V4.73193C5.72384 4.45579 5.9477 4.23193 6.22384 4.23193Z" fill="#FAFAFA"/>
</svg>
