<svg width="16" height="16" viewBox="0 0 16 16" fill="none" xmlns="http://www.w3.org/2000/svg">
<path d="M10.834 9.5C11.1101 9.5 11.334 9.72386 11.334 10C11.334 10.2761 11.1101 10.5 10.834 10.5H6.16732C5.89118 10.5 5.66732 10.2761 5.66732 10C5.66732 9.72386 5.89118 9.5 6.16732 9.5H10.834Z" fill="#FAFAFA"/>
<path d="M11.5007 7.5C11.7768 7.5 12.0007 7.72386 12.0007 8C12.0007 8.27614 11.7768 8.5 11.5007 8.5H6.83398C6.55784 8.5 6.33398 8.27614 6.33398 8C6.33398 7.72386 6.55784 7.5 6.83398 7.5H11.5007Z" fill="#FAFAFA"/>
<path d="M12.1673 5.5C12.4435 5.5 12.6673 5.72386 12.6673 6C12.6673 6.27614 12.4435 6.5 12.1673 6.5H7.50065C7.22451 6.5 7.00065 6.27614 7.00065 6C7.00065 5.72386 7.22451 5.5 7.50065 5.5H12.1673Z" fill="#FAFAFA"/>
<path fill-rule="evenodd" clip-rule="evenodd" d="M12.793 3.5C13.9857 3.50001 14.8609 4.6209 14.5716 5.77799L13.2383 11.1113C13.0342 11.9275 12.3009 12.5 11.4596 12.5H3.16732C3.13561 12.5 3.10423 12.4964 3.07292 12.4948C3.03456 12.4975 2.99596 12.5 2.95703 12.5C2.06066 12.5 1.33402 11.7733 1.33398 10.877V5.33333C1.33398 4.32081 2.1548 3.5 3.16732 3.5H12.793ZM6.875 4.5C6.49262 4.50001 6.15915 4.76054 6.06641 5.13151L5.9056 5.77279C5.90518 5.77447 5.90537 5.77631 5.90495 5.77799L4.74023 10.4382L4.73307 10.4648C4.60182 10.9907 4.99964 11.5 5.54167 11.5H11.4596C11.842 11.5 12.1755 11.2395 12.2682 10.8685L13.6016 5.53516C13.7328 5.00932 13.335 4.50001 12.793 4.5H6.875ZM3.16732 4.5C2.70708 4.5 2.33398 4.8731 2.33398 5.33333V10.6667C2.33398 11.0889 2.64816 11.4361 3.05534 11.4909C3.29861 11.4521 3.50061 11.273 3.56185 11.028L4.87435 5.77799L4.9349 5.53255C5.0643 5.00758 4.66748 4.50001 4.1263 4.5H3.16732Z" fill="#FAFAFA"/>
</svg>
