<svg width="16" height="16" viewBox="0 0 16 16" fill="none" xmlns="http://www.w3.org/2000/svg">
<path fill-rule="evenodd" clip-rule="evenodd" d="M10.1654 0.666748C10.4415 0.666748 10.6654 0.890606 10.6654 1.16675V1.83341C10.6654 2.10956 10.4415 2.33341 10.1654 2.33341C9.88922 2.33341 9.66537 2.10956 9.66537 1.83341V1.16675C9.66537 0.890606 9.88922 0.666748 10.1654 0.666748ZM14.2902 2.37529C14.4854 2.57055 14.4854 2.88714 14.2902 3.0824L13.8188 3.5538C13.6235 3.74907 13.3069 3.74907 13.1116 3.5538C12.9164 3.35854 12.9164 3.04196 13.1116 2.8467L13.583 2.37529C13.7783 2.18003 14.0949 2.18003 14.2902 2.37529ZM6.04098 2.3753C6.23624 2.18003 6.55282 2.18003 6.74809 2.3753L7.21949 2.8467C7.41475 3.04196 7.41475 3.35855 7.21949 3.55381C7.02423 3.74907 6.70764 3.74907 6.51238 3.55381L6.04098 3.0824C5.84572 2.88714 5.84572 2.57056 6.04098 2.3753ZM6.99221 5.52064C6.65488 5.44174 6.30362 5.40008 5.94314 5.40008C3.39396 5.40008 1.33203 7.47704 1.33203 10.0334C1.33203 12.5898 3.39396 14.6667 5.94314 14.6667H11.082C13.0636 14.6667 14.6654 13.0524 14.6654 11.0667C14.6654 9.77565 13.9887 8.64293 12.9718 8.00762C13.1789 7.57851 13.295 7.09694 13.295 6.58897C13.295 4.79352 11.8466 3.33341 10.0543 3.33341C8.63519 3.33341 7.43207 4.24858 6.99221 5.52064ZM7.93511 5.85366C8.66864 6.20717 9.29384 6.74939 9.74918 7.41702C9.83587 7.54412 10.0263 7.62049 10.2081 7.57469C10.4883 7.5041 10.7812 7.46675 11.082 7.46675C11.4195 7.46675 11.7467 7.51376 12.0571 7.60176C12.2093 7.29753 12.295 6.95378 12.295 6.58897C12.295 5.34072 11.2892 4.33341 10.0543 4.33341C9.07427 4.33341 8.23828 4.96778 7.93511 5.85366ZM5.94314 6.40008C3.95132 6.40008 2.33203 8.02424 2.33203 10.0334C2.33203 12.0426 3.95132 13.6667 5.94314 13.6667H11.082C12.5062 13.6667 13.6654 12.5052 13.6654 11.0667C13.6654 9.98612 13.0105 9.05995 12.0791 8.66733C11.7729 8.53827 11.4364 8.46675 11.082 8.46675C10.8642 8.46675 10.6534 8.49376 10.4524 8.5444C9.89699 8.6843 9.2647 8.48144 8.92303 7.98047C8.49953 7.35952 7.88985 6.87823 7.17672 6.61745C6.79245 6.47693 6.37726 6.40008 5.94314 6.40008ZM14.332 6.50008C14.332 6.22394 14.5559 6.00008 14.832 6.00008H15.4987C15.7748 6.00008 15.9987 6.22394 15.9987 6.50008C15.9987 6.77622 15.7748 7.00008 15.4987 7.00008H14.832C14.5559 7.00008 14.332 6.77622 14.332 6.50008Z" fill="#FAFAFA"/>
</svg>
