<svg width="16" height="16" viewBox="0 0 16 16" fill="none" xmlns="http://www.w3.org/2000/svg">
<path d="M9.69141 9.5C9.8244 9.5 9.95239 9.55289 10.0462 9.64714C10.6378 10.2413 11.4608 10.25 11.651 10.25C11.9271 10.2501 12.151 10.4739 12.151 10.75C12.151 11.0261 11.9271 11.2499 11.651 11.25C11.4697 11.25 10.5316 11.2565 9.69661 10.6582C8.93412 11.2412 8.2213 11.25 7.99935 11.25C7.77868 11.25 7.07095 11.242 6.3125 10.6673C6.02958 10.8957 5.75649 11.0454 5.46615 11.1341C5.07561 11.2535 4.69203 11.25 4.33333 11.25C4.05719 11.25 3.83333 11.0261 3.83333 10.75C3.83333 10.4739 4.05719 10.25 4.33333 10.25C4.72126 10.25 4.95104 10.2465 5.17383 10.1784C5.37996 10.1154 5.61851 9.98259 5.95247 9.64714L6.02865 9.58464C6.11032 9.52996 6.2069 9.50001 6.30664 9.5C6.43955 9.5 6.56699 9.55299 6.66081 9.64714C7.27067 10.2597 7.85647 10.25 7.99935 10.25C8.1425 10.25 8.72758 10.2595 9.33724 9.64714L9.41341 9.58464C9.49506 9.52994 9.59168 9.50005 9.69141 9.5Z" fill="#FAFAFA"/>
<path d="M9.69141 6.83333C9.8244 6.83333 9.95239 6.88622 10.0462 6.98047C10.6378 7.57462 11.4608 7.58333 11.651 7.58333C11.9271 7.58345 12.151 7.80726 12.151 8.08333C12.151 8.35941 11.9271 8.58322 11.651 8.58333C11.4697 8.58333 10.5316 8.58983 9.69661 7.99154C8.93412 8.57456 8.2213 8.58333 7.99935 8.58333C7.77868 8.58333 7.07095 8.57537 6.3125 8.00065C6.02958 8.22902 5.75649 8.37869 5.46615 8.46745C5.07561 8.58683 4.69203 8.58333 4.33333 8.58333C4.05719 8.58333 3.83333 8.35948 3.83333 8.08333C3.83333 7.80719 4.05719 7.58333 4.33333 7.58333C4.72126 7.58333 4.95104 7.5798 5.17383 7.51172C5.37996 7.4487 5.61851 7.31592 5.95247 6.98047L6.02865 6.91797C6.11032 6.86329 6.2069 6.83335 6.30664 6.83333C6.43955 6.83333 6.56699 6.88633 6.66081 6.98047C7.27067 7.59305 7.85647 7.58333 7.99935 7.58333C8.1425 7.58334 8.72758 7.59282 9.33724 6.98047L9.41341 6.91797C9.49506 6.86327 9.59168 6.83339 9.69141 6.83333Z" fill="#FAFAFA"/>
<path fill-rule="evenodd" clip-rule="evenodd" d="M10.099 1.39648C11.0836 1.39681 11.8847 2.17364 11.9277 3.14779H12.6667C13.403 3.14779 14 3.74474 14 4.48112V13.1478C13.9998 13.884 13.4029 14.4811 12.6667 14.4811H3.33333L3.19727 14.474C2.52492 14.4058 2.00016 13.8381 2 13.1478V4.48112C2 3.74474 2.59695 3.14779 3.33333 3.14779H4.07227C4.11529 2.17344 4.91674 1.39648 5.90169 1.39648H10.099ZM3.33333 4.14779C3.14924 4.14779 3 4.29702 3 4.48112V13.1478C3.00018 13.3317 3.14935 13.4811 3.33333 13.4811H12.6667C12.8507 13.4811 12.9998 13.3317 13 13.1478V4.48112C13 4.29702 12.8508 4.14779 12.6667 4.14779H3.33333ZM5.90169 2.39648C5.46919 2.39648 5.11354 2.72611 5.07227 3.14779H10.9277C10.8864 2.72632 10.5312 2.3968 10.099 2.39648H5.90169Z" fill="#FAFAFA"/>
</svg>
