<svg width="16" height="16" viewBox="0 0 16 16" fill="none" xmlns="http://www.w3.org/2000/svg">
<path fill-rule="evenodd" clip-rule="evenodd" d="M7.9987 1.1665C8.27484 1.1665 8.4987 1.39036 8.4987 1.6665V2.17171C9.97641 2.25745 11.1492 3.47541 11.1641 4.97119L11.3685 7.83317H11.9987C12.0907 7.83317 12.1654 7.75855 12.1654 7.6665V7.33317C12.1654 7.05703 12.3892 6.83317 12.6654 6.83317C12.9415 6.83317 13.1654 7.05703 13.1654 7.33317V7.6665C13.1654 8.31084 12.643 8.83317 11.9987 8.83317H11.4401L11.7975 13.8332H12.6654C12.9415 13.8332 13.1654 14.057 13.1654 14.3332C13.1654 14.6093 12.9415 14.8332 12.6654 14.8332H3.33203C3.05589 14.8332 2.83203 14.6093 2.83203 14.3332C2.83203 14.057 3.05589 13.8332 3.33203 13.8332H4.19987L4.55664 8.83317H3.9987C3.35437 8.83317 2.83203 8.31084 2.83203 7.6665V7.33317C2.83203 7.05703 3.05589 6.83317 3.33203 6.83317C3.60817 6.83317 3.83203 7.05703 3.83203 7.33317V7.6665C3.83203 7.75855 3.90665 7.83317 3.9987 7.83317H4.62826L4.83268 4.97119C4.8475 3.47541 6.02094 2.25745 7.4987 2.17171V1.6665C7.4987 1.39036 7.72256 1.1665 7.9987 1.1665ZM5.20247 13.8332H6.4987V12.6665C6.4987 12.0222 7.02103 11.4998 7.66536 11.4998H8.33203C8.97636 11.4998 9.4987 12.0222 9.4987 12.6665V13.8332H10.7949L10.4382 8.83317H5.55924L5.20247 13.8332ZM7.66536 12.4998C7.57332 12.4998 7.4987 12.5745 7.4987 12.6665V13.8332H8.4987V12.6665C8.4987 12.5745 8.42408 12.4998 8.33203 12.4998H7.66536ZM5.63086 7.83317H7.4987V7.33317C7.4987 7.05703 7.72256 6.83317 7.9987 6.83317C8.27484 6.83317 8.4987 7.05703 8.4987 7.33317V7.83317H10.3665L10.224 5.83317H5.77344L5.63086 7.83317ZM7.66536 3.1665C6.70905 3.1665 5.92474 3.8988 5.84049 4.83317H10.1569C10.0727 3.8988 9.28834 3.1665 8.33203 3.1665H7.66536Z" fill="#FAFAFA"/>
</svg>
