<svg width="16" height="16" viewBox="0 0 16 16" fill="none" xmlns="http://www.w3.org/2000/svg">
<path d="M3.66602 3.99984C3.85011 3.99984 3.99935 4.14908 3.99935 4.33317C3.99935 4.51727 3.85011 4.6665 3.66602 4.6665H2.99935C2.81525 4.6665 2.66602 4.51727 2.66602 4.33317C2.66602 4.14908 2.81525 3.99984 2.99935 3.99984H3.66602Z" fill="#FAFAFA"/>
<path fill-rule="evenodd" clip-rule="evenodd" d="M3.66602 2.6665C4.4024 2.6665 4.99935 3.26346 4.99935 3.99984H6.33268C7.06906 3.99984 7.66602 4.59679 7.66602 5.33317V5.99984C7.66602 7.61245 6.52081 8.95724 4.99935 9.26611V11.9998C4.99935 12.6903 4.47453 13.2578 3.80208 13.326L3.66602 13.3332H2.99935L2.86328 13.326C2.19083 13.2578 1.66602 12.6903 1.66602 11.9998V3.99984C1.66602 3.26346 2.26297 2.6665 2.99935 2.6665H3.66602ZM2.99935 3.33317C2.63116 3.33317 2.33268 3.63165 2.33268 3.99984V11.9998C2.33268 12.368 2.63116 12.6665 2.99935 12.6665H3.66602C4.03421 12.6665 4.33268 12.368 4.33268 11.9998V3.99984C4.33268 3.63165 4.03421 3.33317 3.66602 3.33317H2.99935ZM4.99935 8.58252C6.1495 8.28649 6.99935 7.2424 6.99935 5.99984V5.33317C6.99935 4.96498 6.70087 4.6665 6.33268 4.6665H4.99935V8.58252Z" fill="#FAFAFA"/>
<path d="M12.9993 3.99984C13.1834 3.99984 13.3327 4.14908 13.3327 4.33317C13.3327 4.51727 13.1834 4.6665 12.9993 4.6665H12.3327C12.1486 4.6665 11.9993 4.51727 11.9993 4.33317C11.9993 4.14908 12.1486 3.99984 12.3327 3.99984H12.9993Z" fill="#FAFAFA"/>
<path fill-rule="evenodd" clip-rule="evenodd" d="M12.9993 2.6665C13.7357 2.6665 14.3327 3.26346 14.3327 3.99984V11.9998C14.3327 12.6903 13.8079 13.2578 13.1354 13.326L12.9993 13.3332H12.3327L12.1966 13.326C11.5242 13.2578 10.9993 12.6903 10.9993 11.9998V9.26611C9.47789 8.95724 8.33268 7.61245 8.33268 5.99984V5.33317C8.33268 4.59679 8.92964 3.99984 9.66602 3.99984H10.9993C10.9993 3.26346 11.5963 2.6665 12.3327 2.6665H12.9993ZM12.3327 3.33317C11.9645 3.33317 11.666 3.63165 11.666 3.99984V11.9998C11.666 12.368 11.9645 12.6665 12.3327 12.6665H12.9993C13.3675 12.6665 13.666 12.368 13.666 11.9998V3.99984C13.666 3.63165 13.3675 3.33317 12.9993 3.33317H12.3327ZM9.66602 4.6665C9.29783 4.6665 8.99935 4.96498 8.99935 5.33317V5.99984C8.99935 7.2424 9.84919 8.28649 10.9993 8.58252V4.6665H9.66602Z" fill="#FAFAFA"/>
</svg>
