<svg width="16" height="16" viewBox="0 0 16 16" fill="none" xmlns="http://www.w3.org/2000/svg">
<path d="M5.14355 8.65719C5.14355 7.07923 6.42274 5.80005 8.0007 5.80005V9.76672H5.14355V8.65719Z" fill="#316EFF"/>
<path d="M10.3337 11.3333V8.66658C10.3337 7.37792 9.28899 6.33325 8.00033 6.33325C6.71166 6.33325 5.66699 7.37792 5.66699 8.66658V11.3333C5.66699 12.6219 6.71166 13.6666 8.00033 13.6666V14.6666C6.21681 14.6666 4.76068 13.2658 4.67155 11.5045L4.66699 11.3333V8.66658C4.66699 6.82564 6.15938 5.33325 8.00033 5.33325C9.84127 5.33325 11.3337 6.82564 11.3337 8.66658V11.3333L11.3291 11.5045C11.24 13.2658 9.78384 14.6666 8.00033 14.6666V13.6666C9.28899 13.6666 10.3337 12.6219 10.3337 11.3333Z" fill="#FAFAFA"/>
<path d="M10.8577 9.2666V10.2666H5.14355V9.2666H10.8577Z" fill="#FAFAFA"/>
<path d="M7.93229 8.85384C7.61857 8.82188 7.36902 8.57256 7.33724 8.25879L7.33398 8.19108V7.56413C7.33398 7.19594 7.63246 6.89746 8.00065 6.89746C8.36884 6.89746 8.66732 7.19594 8.66732 7.56413V8.19108L8.66406 8.25879C8.63001 8.59505 8.34589 8.85775 8.00065 8.85775L7.93229 8.85384Z" fill="#FAFAFA"/>
<path d="M9.2693 3.74358C9.36403 3.87392 9.35056 4.04971 9.24586 4.16416L9.19573 4.20908L8.19573 4.93629C8.07886 5.02126 7.92067 5.02126 7.8038 4.93629L6.8038 4.20908C6.65494 4.10082 6.62202 3.89246 6.73023 3.74358C6.83851 3.5947 7.04685 3.56174 7.19573 3.67001L7.66643 4.01246L7.66643 1.22796L7.15927 1.50465L7.09742 1.53134C6.9492 1.57687 6.78464 1.51321 6.70745 1.37184C6.63034 1.23047 6.66591 1.05781 6.78427 0.957775L6.84026 0.919364L7.84026 0.374442C7.93975 0.320173 8.05978 0.320173 8.15927 0.374442L9.15927 0.919364L9.21526 0.957775C9.33363 1.05781 9.36919 1.23047 9.29208 1.37184C9.20389 1.53335 9.00183 1.59278 8.84026 1.50465L8.3331 1.22796L8.3331 4.01246L8.8038 3.67001L8.86174 3.63616C9.00293 3.57174 9.17448 3.6132 9.2693 3.74358Z" fill="#316EFF"/>
</svg>
