<svg width="16" height="16" viewBox="0 0 16 16" fill="none" xmlns="http://www.w3.org/2000/svg">
<path fill-rule="evenodd" clip-rule="evenodd" d="M8.00047 1.33325C8.24985 1.33346 8.45156 1.53598 8.45164 1.7854V2.31372L13.8423 4.43872C14.0732 4.53326 14.1838 4.79756 14.0893 5.02856C13.9947 5.25907 13.7312 5.36973 13.5005 5.27563L12.9233 5.0481V6.34465L13.7602 6.47843C14.0054 6.52318 14.1686 6.75863 14.1245 7.00383C14.0799 7.24932 13.8436 7.41355 13.5981 7.36906L12.9233 7.26066V8.62264L13.5942 8.51619C13.8396 8.47178 14.0749 8.63505 14.1196 8.88045C14.1641 9.12592 14.0008 9.36118 13.7553 9.40584L12.9233 9.53768V10.9407L13.5005 10.7141C13.7313 10.6199 13.9948 10.7304 14.0893 10.9612C14.1838 11.1922 14.0732 11.4565 13.8423 11.551L8.45164 13.675V14.2141C8.45164 14.4636 8.2499 14.666 8.00047 14.6663C7.75085 14.6663 7.54832 14.4637 7.54832 14.2141V13.675L2.15769 11.551C1.92671 11.4565 1.81612 11.1922 1.91062 10.9612C2.00525 10.7306 2.26873 10.62 2.49949 10.7141L3.05027 10.9299V9.53573L2.22703 9.40584C1.98164 9.36112 1.81829 9.12588 1.86277 8.88045C1.90743 8.63509 2.1428 8.47188 2.38816 8.51619L3.05027 8.62069V7.26457L2.39304 7.36906C2.14755 7.41355 1.91229 7.24932 1.86765 7.00383C1.82342 6.75848 1.98655 6.52305 2.23191 6.47843L3.05027 6.34758V5.05884L2.49949 5.27563C2.26864 5.36984 2.00518 5.25928 1.91062 5.02856C1.81612 4.79756 1.92671 4.53326 2.15769 4.43872L7.54832 2.31372V1.7854C7.54839 1.53585 7.7509 1.33325 8.00047 1.33325ZM8.45164 10.2506V12.7004L10.0581 12.0676V9.99373L8.45164 10.2506ZM5.94187 12.0676L7.54832 12.6995V10.2506L5.94187 9.99471V12.0676ZM3.95359 11.2854L5.03855 11.7122V9.85213L3.95359 9.67928V11.2854ZM10.9614 9.85018V11.7122L12.02 11.2952V9.68123L10.9614 9.85018ZM5.94187 6.80558V9.07869L7.54832 9.33358V6.5507L5.94187 6.80558ZM8.45164 9.33358L10.0581 9.07772V6.80461L8.45164 6.54875V9.33358ZM3.95359 7.12101V8.76327L5.03855 8.93514V6.94914L3.95359 7.12101ZM10.9614 8.93416L12.02 8.76522V7.11711L10.9614 6.94914V8.93416ZM3.95359 4.70337V6.20402L5.03855 6.03215V4.27563L3.95359 4.70337ZM10.9614 6.03215L12.02 6.20109V4.69263L10.9614 4.27661V6.03215ZM5.94187 3.92114V5.88859L7.54832 5.71704V3.28833L5.94187 3.92114ZM8.45164 5.71509L10.0581 5.88761V3.92114L8.45164 3.28931V5.71509Z" fill="#FAFAFA"/>
</svg>
