<svg width="16" height="16" viewBox="0 0 16 16" fill="none" xmlns="http://www.w3.org/2000/svg">
<path d="M10.5169 8.95231C10.9012 8.95231 11.2121 9.26378 11.2122 9.64762C11.2122 10.0318 10.9011 10.3436 10.5169 10.3436C10.1331 10.3434 9.82161 10.0319 9.82161 9.64762C9.82176 9.26369 10.133 8.95245 10.5169 8.95231Z" fill="#FAFAFA"/>
<path d="M6.68229 5.86182C7.03299 5.89736 7.30652 6.19379 7.30664 6.55387C7.30647 6.93788 6.99535 7.24984 6.61133 7.24984C6.2274 7.24971 5.91619 6.93779 5.91602 6.55387C5.91615 6.16993 6.22737 5.85869 6.61133 5.85856L6.68229 5.86182Z" fill="#FAFAFA"/>
<path fill-rule="evenodd" clip-rule="evenodd" d="M8.0013 1.6333C8.14946 1.63335 8.2898 1.69926 8.38477 1.81299L8.38607 1.81429C8.38607 1.81429 8.38762 1.81628 8.38867 1.81755C8.39091 1.82024 8.39431 1.82429 8.39844 1.82926C8.4069 1.83948 8.41962 1.85417 8.43555 1.87354C8.46763 1.91255 8.51433 1.97018 8.57357 2.04346C8.69206 2.19004 8.86098 2.40121 9.06315 2.66195C9.46743 3.18333 10.0072 3.90499 10.5482 4.70231C11.088 5.49783 11.6353 6.37872 12.0495 7.21794C12.4551 8.03976 12.7682 8.88894 12.7682 9.6001C12.7682 10.6029 12.4507 11.5723 11.8737 12.3768C11.8713 12.3803 11.869 12.3838 11.8665 12.3872C11.7181 12.5931 11.5535 12.7888 11.3717 12.9705C10.4779 13.8644 9.26546 14.3663 8.0013 14.3664C6.73707 14.3664 5.52415 13.8645 4.63021 12.9705C3.7364 12.0767 3.23444 10.8642 3.23438 9.6001C3.23438 8.88898 3.54689 8.03972 3.95247 7.21794C4.36665 6.37877 4.91403 5.49779 5.45378 4.70231C5.99478 3.90499 6.53517 3.18333 6.93945 2.66195C7.14165 2.40119 7.31056 2.19002 7.42904 2.04346C7.4883 1.97014 7.53497 1.91255 7.56706 1.87354C7.58303 1.85411 7.59571 1.83947 7.60417 1.82926C7.60837 1.82419 7.61169 1.82024 7.61393 1.81755C7.61506 1.8162 7.61654 1.81429 7.61654 1.81429L7.61719 1.81299C7.71219 1.69922 7.85308 1.6333 8.0013 1.6333ZM8.0013 11.8696C7.10853 11.8696 6.22346 12.0171 5.38151 12.3045C6.08356 12.9845 7.02237 13.3664 8.0013 13.3664C8.98027 13.3663 9.91908 12.9846 10.6211 12.3045C9.77912 12.0171 8.894 11.8696 8.0013 11.8696ZM7.72982 3.27523C7.33408 3.7856 6.80691 4.4888 6.28125 5.26351C5.75437 6.04002 5.2354 6.879 4.84961 7.66064C4.45529 8.45961 4.23438 9.13303 4.23438 9.6001C4.23442 10.2639 4.41072 10.9092 4.73568 11.4751C5.7306 11.093 6.78581 10.889 7.85286 10.8716C7.85875 10.8502 7.86326 10.8285 7.86849 10.8071C7.81307 10.7018 7.72813 10.5964 7.60677 10.4836C7.43395 10.323 7.22898 10.1816 6.98307 10.0037C6.54952 9.69021 5.90367 9.22 5.84896 8.39893C5.83069 8.12346 6.03898 7.88538 6.31445 7.86702C6.58985 7.84879 6.82793 8.05713 6.84635 8.33252C6.8657 8.62268 7.07959 8.83926 7.56901 9.1932C7.6574 9.25712 7.7548 9.3272 7.85547 9.40153C7.81933 9.20453 7.77531 9.00176 7.72852 8.7915C7.54687 7.97525 7.31014 6.97016 7.89062 5.99984C8.03249 5.76315 8.33932 5.68561 8.57617 5.82731C8.81287 5.96899 8.88998 6.276 8.7487 6.51286C8.44523 7.02011 8.48931 7.54696 8.63607 8.25895C8.71016 8.21005 8.78259 8.16361 8.84831 8.12093C9.03098 8.00229 9.18143 7.89935 9.29622 7.79346C9.41054 7.68796 9.45098 7.61357 9.46354 7.56624C9.53379 7.29926 9.80723 7.13935 10.0742 7.20947C10.3412 7.27971 10.501 7.5532 10.431 7.82015C10.3503 8.12658 10.1585 8.3582 9.97396 8.52848C9.78951 8.69863 9.57288 8.84238 9.39258 8.95947C9.19691 9.08654 9.04866 9.17979 8.93359 9.27393C8.90014 9.30131 8.87632 9.3237 8.85938 9.34098C8.93424 9.78662 8.97384 10.271 8.89258 10.7791C8.892 10.8244 8.88674 10.8687 8.87435 10.9113C9.69276 10.9901 10.4975 11.1799 11.2663 11.4751C11.5913 10.9092 11.7682 10.264 11.7682 9.6001C11.7682 9.13306 11.5473 8.45955 11.153 7.66064C10.7672 6.87899 10.2476 6.04003 9.7207 5.26351C9.19511 4.48891 8.66849 3.78556 8.27279 3.27523C8.17365 3.14737 8.08103 3.03286 8.00065 2.93148C7.92036 3.03275 7.8288 3.14757 7.72982 3.27523Z" fill="#FAFAFA"/>
</svg>
