<svg width="16" height="16" viewBox="0 0 16 16" fill="none" xmlns="http://www.w3.org/2000/svg">
<path fill-rule="evenodd" clip-rule="evenodd" d="M6.21289 6.32878C7.13595 6.32892 7.88411 7.07753 7.88411 8.00065C7.8838 8.92349 7.13576 9.67173 6.21289 9.67187C5.28987 9.67187 4.54133 8.92357 4.54102 8.00065C4.54102 7.07745 5.28968 6.32878 6.21289 6.32878ZM6.21289 7.32878C5.84197 7.32878 5.54102 7.62973 5.54102 8.00065C5.54133 8.37131 5.84218 8.67187 6.21289 8.67187C6.58347 8.67173 6.8838 8.37121 6.88411 8.00065C6.88411 7.62983 6.58368 7.32892 6.21289 7.32878Z" fill="#FAFAFA"/>
<path fill-rule="evenodd" clip-rule="evenodd" d="M13.0449 2.80859C13.9402 2.80869 14.6659 3.53505 14.666 4.43034V11.5703C14.6658 12.4655 13.94 13.1913 13.0449 13.1914H12.9928V13.722C12.9927 13.998 12.7689 14.222 12.4928 14.222C12.2168 14.222 11.993 13.998 11.9928 13.722V13.1914H4.00586V13.722C4.00568 13.998 3.78189 14.222 3.50586 14.222C3.22983 14.222 3.00604 13.998 3.00586 13.722V13.1914H2.95312C2.05797 13.1913 1.33229 12.4654 1.33203 11.5703V4.43034C1.33213 3.53508 2.05786 2.80869 2.95312 2.80859H13.0449ZM7.98958 10.5977C7.48373 10.9445 6.8719 11.1484 6.21224 11.1484C5.55253 11.1484 4.94021 10.9451 4.43424 10.5983H2.33203V11.5703C2.33229 11.9131 2.61024 12.1913 2.95312 12.1914H10.179V10.5983H7.99935C7.99609 10.5983 7.99283 10.5977 7.98958 10.5977ZM11.179 12.1914H13.0449C13.3878 12.1913 13.6658 11.9131 13.666 11.5703V4.43034C13.6659 4.08738 13.3879 3.80934 13.0449 3.80924H11.179V12.1914ZM6.21224 5.85221C5.02585 5.85221 4.0638 6.81427 4.0638 8.00065C4.06414 9.18676 5.02606 10.1484 6.21224 10.1484C7.39828 10.1483 8.35969 9.18667 8.36003 8.00065C8.36003 6.81436 7.39849 5.85237 6.21224 5.85221ZM2.33203 9.59831H3.5C3.22332 9.12992 3.06392 8.58401 3.0638 8.00065C3.0638 7.41698 3.22315 6.87034 3.5 6.40169H2.33203V9.59831ZM8.92383 6.40169C9.20064 6.87035 9.36003 7.41697 9.36003 8.00065C9.35991 8.58402 9.20047 9.12991 8.92383 9.59831H10.179V6.40169H8.92383ZM2.95312 3.80924C2.61015 3.80934 2.33213 4.08736 2.33203 4.43034V5.40169H4.43424C4.9402 5.05483 5.55255 4.85221 6.21224 4.85221C6.87156 4.85227 7.48324 5.05513 7.98893 5.40169H10.179V3.80924H2.95312Z" fill="#FAFAFA"/>
</svg>
