<svg width="16" height="16" viewBox="0 0 16 16" fill="none" xmlns="http://www.w3.org/2000/svg">
<path d="M7.83906 3.68033C8.1152 3.68034 8.33906 3.90419 8.33906 4.18033C8.33906 4.45647 8.1152 4.68033 7.83906 4.68033H7.21667L7.17761 4.68359C7.13896 4.68955 7.102 4.70421 7.06953 4.72656C7.02634 4.75631 6.99275 4.79809 6.97383 4.847L6.64636 5.6927C6.60468 5.80009 6.52714 5.88975 6.42695 5.94661L5.3013 6.58593C5.20368 6.64134 5.09001 6.66206 4.97904 6.64518L4.08906 6.50911C4.03783 6.50218 3.98572 6.51112 3.93932 6.53385C3.89287 6.55661 3.85392 6.59258 3.828 6.63736L3.52526 7.16731L3.52201 7.17317C3.49537 7.21861 3.48313 7.27105 3.48685 7.32356C3.49052 7.37529 3.50966 7.42462 3.54154 7.46549L4.11185 8.17317C4.18351 8.26206 4.22253 8.37279 4.22253 8.48697V9.76497C4.22253 9.87692 4.18488 9.98615 4.11576 10.0742L3.56042 10.7812L3.55846 10.7845C3.52563 10.8257 3.50558 10.8758 3.50182 10.9284C3.49904 10.9677 3.50555 11.0072 3.52005 11.0436L3.53763 11.0794L3.54024 11.0846L3.84362 11.6146L3.8651 11.6465C3.88905 11.6766 3.91951 11.701 3.9543 11.7181C4.00075 11.7409 4.05335 11.7498 4.10469 11.7428L4.99401 11.6068C5.10603 11.5897 5.22066 11.6115 5.31888 11.668L6.42956 12.3066C6.52863 12.3636 6.60507 12.4533 6.64636 12.5599L6.97383 13.4043C6.99279 13.4533 7.02629 13.4963 7.06953 13.526C7.11292 13.5558 7.1643 13.5715 7.21667 13.5716H7.85274C7.90511 13.5715 7.95649 13.5558 7.99987 13.526C8.04311 13.4963 8.07662 13.454 8.09557 13.4049L8.42305 12.5599L8.46016 12.4831C8.50375 12.4104 8.56556 12.3494 8.63984 12.3066L9.75052 11.668L9.82734 11.6322C9.90617 11.6031 9.99145 11.594 10.0754 11.6068L10.9647 11.7428L11.0038 11.7448C11.0422 11.7442 11.0804 11.7351 11.1151 11.7181C11.1615 11.6953 11.2 11.6592 11.2258 11.6146L11.5292 11.0846L11.5318 11.0794C11.5585 11.034 11.5713 10.9812 11.5676 10.9284C11.5638 10.8757 11.5437 10.8256 11.5109 10.7845L10.9426 10.0788C10.8709 9.98988 10.8313 9.87916 10.8313 9.76497V8.94075C10.8314 8.66481 11.0553 8.44088 11.3313 8.44075C11.6073 8.44075 11.8311 8.66472 11.8313 8.94075V9.58788L12.2915 10.1588L12.2935 10.1615C12.4523 10.3609 12.5469 10.6039 12.565 10.8581L12.5682 10.9531C12.5671 11.1729 12.5075 11.3889 12.3964 11.5801L12.397 11.5807L12.093 12.1133L12.0917 12.1159C11.9664 12.3323 11.7796 12.5066 11.5552 12.6165C11.3307 12.7265 11.0783 12.7673 10.8306 12.7337L10.8221 12.7324L10.0969 12.6217L9.29089 13.0853L9.02787 13.7643C8.93646 14.0011 8.77616 14.2056 8.56693 14.3496C8.3579 14.4933 8.10997 14.5708 7.85599 14.5716H7.21341C6.95943 14.5708 6.7115 14.4933 6.50247 14.3496C6.29324 14.2056 6.13229 14.0018 6.04089 13.765L5.77787 13.0853L4.97188 12.6217L4.24727 12.7324L4.2388 12.7337C3.99115 12.7673 3.73871 12.7265 3.51419 12.6165C3.28977 12.5065 3.10295 12.3322 2.97774 12.1159L2.97643 12.1133L2.67565 11.5853L2.675 11.5859C2.54589 11.3662 2.48645 11.1123 2.50443 10.8581C2.52243 10.6038 2.61712 10.3608 2.77591 10.1615L3.22253 9.59179V8.66341L2.76289 8.09309L2.76094 8.09114C2.60202 7.89171 2.50746 7.64825 2.48945 7.39387C2.47164 7.14151 2.53026 6.88982 2.65742 6.67122L2.96146 6.13867L2.96276 6.13671C3.08797 5.92038 3.27477 5.74608 3.49922 5.63606C3.69573 5.53977 3.91339 5.49651 4.13073 5.50976L4.22383 5.51887L4.23164 5.51952L4.95755 5.6302L5.77852 5.16406L6.04089 4.48697C6.13234 4.25011 6.29331 4.04628 6.50247 3.90234C6.71166 3.75838 6.95952 3.68113 7.21341 3.68033H7.83906ZM7.52721 7.10416C7.92704 7.10419 8.31782 7.22318 8.65026 7.44531C8.98266 7.66744 9.24203 7.98285 9.39505 8.35221C9.54803 8.72153 9.5882 9.1281 9.51029 9.52018C9.43228 9.91237 9.23965 10.2732 8.9569 10.556C8.67422 10.8386 8.31379 11.0307 7.92175 11.1087C7.52957 11.1867 7.12255 11.1472 6.75313 10.9941C6.3838 10.8411 6.06834 10.5817 5.84622 10.2493C5.62412 9.91694 5.50513 9.52609 5.50508 9.1263C5.50508 8.59012 5.71841 8.07576 6.09753 7.69661C6.47668 7.31746 6.99101 7.10416 7.52721 7.10416ZM6.50508 9.1263C6.50513 9.32829 6.56537 9.52603 6.67761 9.694C6.78987 9.86191 6.94934 9.993 7.13594 10.0703C7.32264 10.1476 7.52823 10.1677 7.72643 10.1282C7.92465 10.0888 8.10698 9.99119 8.24987 9.8483C8.39259 9.70547 8.48976 9.52354 8.52917 9.32551C8.56859 9.12732 8.54855 8.92171 8.47122 8.73502C8.39392 8.54839 8.26285 8.38896 8.09492 8.27669C7.92693 8.16444 7.72926 8.10419 7.52721 8.10416C7.25623 8.10416 6.99618 8.21202 6.80456 8.40364C6.61297 8.59525 6.50508 8.85534 6.50508 9.1263Z" fill="#FAFAFA"/>
<path d="M12.513 4.7946C12.513 4.65366 12.4508 4.4293 12.3073 4.13314C12.1694 3.84879 11.9805 3.54609 11.7838 3.26335C11.6424 3.06 11.4995 2.87263 11.3756 2.71517C11.2518 2.87261 11.1089 3.06004 10.9674 3.26335C10.7708 3.54607 10.5818 3.84882 10.444 4.13314C10.3004 4.42926 10.2383 4.65367 10.2383 4.7946C10.2384 5.42261 10.7476 5.93191 11.3756 5.93197C12.0037 5.93197 12.5128 5.42264 12.513 4.7946ZM13.513 4.7946C13.5128 5.97493 12.556 6.93197 11.3756 6.93197C10.1953 6.93191 9.23843 5.97489 9.23826 4.7946C9.23826 4.42393 9.38089 4.03392 9.54425 3.69694C9.71338 3.34811 9.93383 2.99806 10.1465 2.69238C10.3603 2.38505 10.5729 2.11222 10.7317 1.91699C10.8113 1.81927 10.878 1.74027 10.9251 1.68522C10.9486 1.65769 10.9674 1.63571 10.9804 1.62077C10.987 1.61329 10.9925 1.60728 10.9961 1.60319C10.9977 1.6013 10.999 1.59974 11 1.59863L11.0397 1.55892C11.1312 1.47574 11.2507 1.42874 11.3756 1.42871C11.5184 1.42871 11.6544 1.48994 11.7493 1.59668L11.7558 1.60319C11.7594 1.60726 11.7643 1.61333 11.7708 1.62077C11.7839 1.63571 11.8026 1.65767 11.8262 1.68522C11.8732 1.74028 11.94 1.81921 12.0195 1.91699C12.1783 2.11223 12.391 2.385 12.6048 2.69238C12.8175 2.99808 13.0379 3.34808 13.207 3.69694C13.3704 4.03393 13.513 4.4239 13.513 4.7946Z" fill="#FAFAFA"/>
</svg>
