<svg width="16" height="16" viewBox="0 0 16 16" fill="none" xmlns="http://www.w3.org/2000/svg">
<path fill-rule="evenodd" clip-rule="evenodd" d="M8 1.3335C8.23009 1.33354 8.41667 1.52007 8.41667 1.75016V3.8335H10.0833V2.5835C10.0833 2.35338 10.2699 2.16683 10.5 2.16683C10.7301 2.16687 10.9167 2.3534 10.9167 2.5835V3.8335H11.6589L11.7507 3.8387C11.8418 3.84894 11.931 3.87417 12.0143 3.91357C12.1253 3.9661 12.2234 4.04273 12.3014 4.13753C12.3795 4.23234 12.4359 4.34338 12.4661 4.4624C12.4963 4.5814 12.4999 4.70583 12.4766 4.82633L12.4759 4.82829L11.8757 7.82829C11.819 8.11166 11.6662 8.36706 11.4427 8.55029C11.2192 8.73351 10.9387 8.8335 10.6497 8.8335H10.1823L11.2161 13.6584C11.2421 13.7799 11.2411 13.906 11.2122 14.0269C11.1834 14.1476 11.1275 14.2603 11.0495 14.3569C10.9714 14.4536 10.8725 14.5319 10.7604 14.5854C10.6483 14.639 10.5253 14.6667 10.401 14.6668H5.59896C5.47473 14.6668 5.35169 14.639 5.23959 14.5854C5.12747 14.5319 5.02864 14.4536 4.95052 14.3569C4.87248 14.2603 4.81663 14.1476 4.78776 14.0269C4.75888 13.906 4.75788 13.7799 4.78386 13.6584L5.81771 8.8335H5.35026C5.06208 8.83372 4.78259 8.73437 4.55925 8.55225C4.33585 8.37001 4.18201 8.11597 4.12435 7.8335V7.83219L3.52409 4.83284L3.51107 4.7417C3.50285 4.64977 3.51026 4.55696 3.53255 4.46696C3.56225 4.3471 3.61781 4.23509 3.69597 4.13949C3.77416 4.04387 3.87277 3.96649 3.98438 3.91357C4.09598 3.86068 4.2183 3.83351 4.3418 3.8335H5.08334V2.5835C5.08334 2.35338 5.26988 2.16683 5.5 2.16683C5.73009 2.16687 5.91667 2.3534 5.91667 2.5835V3.8335H7.58334V1.75016C7.58334 1.52004 7.76988 1.3335 8 1.3335ZM5.59831 13.8328L5.59896 13.8335H10.401L10.4017 13.8328L9.32943 8.8335H6.67058L5.59831 13.8328ZM4.94141 7.66813C4.96084 7.76175 5.01183 7.84595 5.08594 7.90641C5.16038 7.9671 5.25356 8.00024 5.34961 8.00016H5.91667V6.3335H4.67448L4.94141 7.66813ZM10.0833 8.00016H10.6497C10.746 8.00015 10.8396 7.96676 10.9141 7.90576C10.9885 7.84469 11.0397 7.75933 11.0586 7.66488L11.3249 6.3335H10.0833V8.00016ZM6.75 8.00016H9.25V6.3335H6.75V8.00016ZM4.34115 4.66813L4.50781 5.50016H11.4915L11.6582 4.66748L4.34115 4.66683V4.66813Z" fill="#FAFAFA"/>
</svg>
