<svg width="16" height="16" viewBox="0 0 16 16" fill="none" xmlns="http://www.w3.org/2000/svg">
<path fill-rule="evenodd" clip-rule="evenodd" d="M5.28004 1.33301H10.7206C11.0767 1.333 11.374 1.333 11.6168 1.35283C11.87 1.37353 12.1078 1.41827 12.3326 1.53283C12.6776 1.7086 12.9581 1.98906 13.1338 2.33403C13.2484 2.55887 13.2931 2.79664 13.3138 3.04989C13.3337 3.29271 13.3337 3.58994 13.3337 3.94604V12.6582C13.3337 12.9674 13.3337 13.2335 13.3145 13.4434C13.2953 13.6529 13.2514 13.899 13.0941 14.105C12.8854 14.3781 12.567 14.5453 12.2237 14.562C11.9648 14.5746 11.7373 14.471 11.554 14.3678C11.3702 14.2645 11.1512 14.1134 10.8966 13.9378L8.92763 12.5799C8.45732 12.2555 8.32638 12.1747 8.19964 12.1435C8.06873 12.1113 7.93195 12.1113 7.80104 12.1435C7.67429 12.1747 7.54335 12.2555 7.07304 12.5799L5.10395 13.9379C4.84941 14.1134 4.63042 14.2645 4.4467 14.3678C4.26339 14.471 4.03586 14.5746 3.77697 14.562C3.43367 14.5453 3.11521 14.3781 2.90657 14.105C2.74922 13.899 2.70536 13.6529 2.68619 13.4434C2.66697 13.2335 2.66698 12.9674 2.66699 12.6582L2.66699 3.94605C2.66699 3.58995 2.66698 3.29272 2.68682 3.04989C2.70751 2.79664 2.75225 2.55887 2.86681 2.33403C3.04258 1.98906 3.32305 1.7086 3.66801 1.53283C3.89285 1.41827 4.13062 1.37353 4.38388 1.35283C4.6267 1.333 4.92393 1.333 5.28004 1.33301ZM4.46531 2.34951C4.2739 2.36515 4.18238 2.39307 4.122 2.42384C3.9652 2.50373 3.83772 2.63121 3.75782 2.78802C3.72706 2.84839 3.69914 2.93991 3.6835 3.13133C3.66738 3.32858 3.66699 3.58472 3.66699 3.96634V12.635C3.66699 12.974 3.6675 13.1935 3.68202 13.3523C3.69115 13.452 3.70379 13.4942 3.70776 13.5059C3.73521 13.5376 3.7736 13.5578 3.81523 13.5624C3.82719 13.559 3.8691 13.5454 3.95637 13.4963C4.09527 13.4182 4.27628 13.2939 4.55537 13.1015L6.50531 11.7567C6.52774 11.7412 6.54986 11.7259 6.57171 11.7108C6.94274 11.4545 7.23376 11.2534 7.56188 11.1725C7.84988 11.1016 8.15079 11.1016 8.4388 11.1725C8.76691 11.2534 9.05793 11.4545 9.42896 11.7108C9.45081 11.7259 9.47294 11.7412 9.49537 11.7567L11.4453 13.1015C11.7244 13.2939 11.9054 13.4182 12.0443 13.4963C12.1316 13.5454 12.1735 13.559 12.1854 13.5624C12.2271 13.5577 12.2654 13.5376 12.2929 13.5059C12.2969 13.4942 12.3095 13.452 12.3186 13.3522C12.3332 13.1935 12.3337 12.974 12.3337 12.635V3.96634C12.3337 3.58472 12.3333 3.32858 12.3172 3.13133C12.3015 2.93991 12.2736 2.84839 12.2428 2.78802C12.1629 2.63121 12.0355 2.50373 11.8787 2.42384C11.8183 2.39307 11.7268 2.36515 11.5353 2.34951C11.3381 2.3334 11.0819 2.33301 10.7003 2.33301H5.30033C4.91871 2.33301 4.66256 2.3334 4.46531 2.34951ZM8.00033 3.99968C8.27647 3.99968 8.50033 4.22353 8.50033 4.49968V6.16634H10.167C10.4431 6.16634 10.667 6.3902 10.667 6.66634C10.667 6.94248 10.4431 7.16634 10.167 7.16634H8.50033V8.83301C8.50033 9.10915 8.27647 9.33301 8.00033 9.33301C7.72418 9.33301 7.50033 9.10915 7.50033 8.83301V7.16634H5.83366C5.55752 7.16634 5.33366 6.94248 5.33366 6.66634C5.33366 6.3902 5.55752 6.16634 5.83366 6.16634H7.50033V4.49968C7.50033 4.22353 7.72418 3.99968 8.00033 3.99968Z" fill="#FAFAFA"/>
</svg>
