<svg width="16" height="16" viewBox="0 0 16 16" fill="none" xmlns="http://www.w3.org/2000/svg">
<path fill-rule="evenodd" clip-rule="evenodd" d="M7.99805 1.8374C8.37672 1.83743 8.70395 2.01039 8.9655 2.24821C9.22491 2.48419 9.44542 2.8054 9.63086 3.17008C9.95996 3.81739 10.2127 4.6709 10.3665 5.63102C11.3373 5.78462 12.1925 6.03729 12.8385 6.36735C13.2023 6.55323 13.5218 6.77439 13.7559 7.03467C13.992 7.29733 14.1608 7.62397 14.1608 8.00016C14.1607 8.39899 13.975 8.74104 13.7174 9.01318C13.4621 9.28288 13.1136 9.50993 12.7174 9.69938C12.4684 9.81834 12.1699 9.71329 12.0508 9.46435C11.9316 9.21524 12.0373 8.91618 12.2865 8.79704C12.6171 8.63887 12.8485 8.47603 12.9909 8.32568C13.1307 8.17802 13.1607 8.06993 13.1608 8.00016C13.1608 7.93916 13.1357 7.84044 13.0124 7.70329C12.8869 7.56377 12.6813 7.40983 12.3841 7.25798C11.9146 7.0181 11.2699 6.81192 10.4993 6.66878C10.5124 6.8101 10.5239 6.95155 10.5319 7.09326L10.5469 7.4598L10.5456 7.51123C10.5267 7.76385 10.3192 7.96584 10.0605 7.97282C9.8019 7.97967 9.58387 7.78912 9.55143 7.53792L9.54753 7.48649L9.5332 7.1499C9.52124 6.93868 9.50233 6.72796 9.47852 6.51774C9.12105 6.47959 8.7623 6.45521 8.403 6.44548L7.99935 6.44027C7.99609 6.44027 7.99284 6.44032 7.98958 6.44027C7.49896 6.43168 7.00831 6.45193 6.52018 6.50016C6.46362 6.99718 6.43553 7.49716 6.43815 7.99756V8.00277C6.43572 8.46821 6.45909 8.93334 6.50781 9.396L6.51562 9.4624C6.83392 9.49768 7.15372 9.51991 7.47396 9.52816H8.40365L8.15755 9.24951L8.12565 9.20915C7.97789 9.00339 8.00681 8.7153 8.20052 8.54378C8.39441 8.37234 8.68425 8.37851 8.87044 8.55029L8.90625 8.58675L9.91602 9.72868L9.97135 9.8042C10.0652 9.96159 10.0654 10.1593 9.97135 10.3166L9.91602 10.3914L8.90625 11.5334C8.72335 11.7401 8.40734 11.7597 8.20052 11.577C7.99368 11.3941 7.97473 11.0781 8.15755 10.8713L8.46094 10.5282H7.46094L7.44792 10.5275C7.1855 10.5207 6.92349 10.5046 6.66211 10.4813C6.80445 11.2617 7.01021 11.9135 7.25065 12.3869C7.57383 13.023 7.86061 13.1628 7.99805 13.1629C8.06776 13.1629 8.17595 13.1326 8.32357 12.993C8.47394 12.8506 8.63738 12.6187 8.79557 12.2879L9.24609 12.5041L9.69727 12.7196C9.50782 13.1156 9.28075 13.4636 9.01107 13.7189C8.73888 13.9765 8.39696 14.1629 7.99805 14.1629C7.2453 14.1628 6.70762 13.5249 6.35938 12.8394C6.02899 12.1889 5.77882 11.327 5.6263 10.3498C4.64834 10.1964 3.78665 9.94353 3.13672 9.61149C2.77291 9.4256 2.45344 9.20446 2.2194 8.94417C1.98323 8.68151 1.81446 8.35487 1.81445 7.97868C1.81452 7.60006 1.98746 7.2734 2.22526 7.01188C2.46128 6.75235 2.7823 6.53136 3.14714 6.34587C3.79999 6.01394 4.6626 5.75911 5.63281 5.60563C5.78681 4.64563 6.03814 3.79995 6.36523 3.15967C6.55109 2.79593 6.77234 2.47637 7.03255 2.24235C7.29518 2.00621 7.62192 1.83746 7.99805 1.8374ZM5.50065 6.64404C4.72869 6.78712 4.07667 6.99492 3.60026 7.23714C3.3008 7.3894 3.09242 7.54413 2.96484 7.68441C2.8393 7.82247 2.81451 7.9202 2.81445 7.97868C2.81446 8.03968 2.83963 8.13844 2.96289 8.27555C3.08837 8.4151 3.29454 8.56898 3.5918 8.72087C4.06546 8.96284 4.71719 9.17073 5.49674 9.31396C5.45673 8.87639 5.43585 8.43714 5.43815 7.99756C5.43595 7.5455 5.45811 7.09386 5.50065 6.64404ZM7.99805 2.8374C7.93703 2.83745 7.83821 2.86263 7.70117 2.98584C7.56165 3.11133 7.40771 3.31755 7.25586 3.61475C7.01755 4.08127 6.81232 4.72059 6.66927 5.48454C7.11072 5.44902 7.55364 5.4335 7.99675 5.44092C7.99992 5.44097 8.00398 5.44021 8.00716 5.44027L8.00651 5.44092C8.43665 5.44009 8.86652 5.45786 9.29492 5.49495L9.32747 5.49821C9.18453 4.7374 8.97913 4.09436 8.73958 3.62321C8.58734 3.32381 8.43258 3.11535 8.29232 2.98779C8.15423 2.86228 8.05648 2.83743 7.99805 2.8374Z" fill="#FAFAFA"/>
<path d="M8.79557 12.2879C8.91478 12.0391 9.21325 11.9339 9.46224 12.0529C9.71126 12.1721 9.81639 12.4705 9.69727 12.7196L8.79557 12.2879Z" fill="#FAFAFA"/>
</svg>
