<svg width="16" height="16" viewBox="0 0 16 16" fill="none" xmlns="http://www.w3.org/2000/svg">
<path fill-rule="evenodd" clip-rule="evenodd" d="M8.07345 3.01716C8.02746 2.99428 7.97384 2.99428 7.92785 3.01716L2.42841 5.75359C2.30251 5.81624 2.30251 6.00061 2.42841 6.06325L7.92785 8.79968C7.97384 8.82257 8.02746 8.82257 8.07345 8.79968L13.5729 6.06325C13.6988 6.00061 13.6988 5.81624 13.5729 5.75359L8.07345 3.01716ZM7.48237 2.12187C7.80894 1.95938 8.19236 1.95938 8.51893 2.12187L14.0184 4.8583C14.8836 5.28884 14.8836 6.52801 14.0184 6.95855L11.9253 8L14.0184 9.04146C14.8836 9.47199 14.8836 10.7112 14.0184 11.1417L8.51893 13.8781C8.19236 14.0406 7.80894 14.0406 7.48237 13.8781L1.98293 11.1417C1.11767 10.7112 1.11767 9.47199 1.98293 9.04145L4.07595 8L1.98293 6.95855C1.11767 6.52801 1.11767 5.28884 1.98292 4.8583L7.48237 2.12187ZM5.19833 8.55848L2.42841 9.93675C2.30251 9.99939 2.30251 10.1838 2.42841 10.2464L7.92786 12.9828C7.97384 13.0057 8.02746 13.0057 8.07345 12.9828L13.5729 10.2464C13.6988 10.1838 13.6988 9.99939 13.5729 9.93675L10.803 8.55848L8.51893 9.69498C8.19236 9.85747 7.80894 9.85747 7.48237 9.69498L5.19833 8.55848Z" fill="#FAFAFA"/>
</svg>
