<svg width="16" height="16" viewBox="0 0 16 16" fill="none" xmlns="http://www.w3.org/2000/svg">
<path fill-rule="evenodd" clip-rule="evenodd" d="M10.9089 4.55778C11.0232 4.30653 11.3196 4.19554 11.571 4.30973L14.3737 5.58317L14.3757 5.58382C14.385 5.5881 14.3939 5.59327 14.403 5.59814C14.4105 5.60216 14.4179 5.60617 14.4251 5.61051C14.4294 5.61306 14.434 5.61499 14.4382 5.61768C14.4434 5.62104 14.448 5.6252 14.4531 5.62874C14.4572 5.63158 14.4609 5.63491 14.4648 5.63786C14.5143 5.67464 14.5562 5.71911 14.5885 5.77002C14.5911 5.77404 14.5933 5.7783 14.5957 5.78239C14.6262 5.83357 14.6474 5.88973 14.6582 5.94906C14.6588 5.95253 14.6596 5.95598 14.6602 5.95947C14.6643 5.98536 14.6673 6.01159 14.6673 6.03825V11.6444C14.6673 11.8404 14.5528 12.0183 14.3743 12.0994L8.20768 14.9028C8.20438 14.9043 8.20059 14.9047 8.19727 14.9061C8.19485 14.9071 8.19253 14.9083 8.1901 14.9093C8.06836 14.9593 7.93224 14.9594 7.81055 14.9093C7.80812 14.9083 7.80579 14.9071 7.80339 14.9061C7.80025 14.9047 7.79673 14.9042 7.79362 14.9028L1.62695 12.0994C1.44855 12.0183 1.33401 11.8404 1.33398 11.6444V6.03825C1.33398 6.01699 1.33525 5.99589 1.33789 5.9751L1.34115 5.95557C1.34151 5.95338 1.34205 5.95123 1.34245 5.94906C1.35318 5.8898 1.37451 5.83352 1.40495 5.78239C1.40744 5.7782 1.41014 5.77414 1.41276 5.77002C1.44421 5.72055 1.48424 5.67666 1.5319 5.64046C1.5388 5.63524 1.54552 5.62973 1.55273 5.62484C1.55621 5.62247 1.5596 5.61996 1.56315 5.61768C1.56594 5.61588 1.5688 5.6142 1.57161 5.61247C1.58295 5.6055 1.59473 5.59907 1.60677 5.59294C1.61197 5.59029 1.61712 5.58758 1.6224 5.58512C1.62389 5.58443 1.62545 5.58386 1.62695 5.58317L4.43034 4.30973C4.6817 4.19558 4.9782 4.30646 5.09245 4.55778C5.20669 4.80918 5.09515 5.10565 4.84375 5.21989L3.04232 6.03825L8.00065 8.2915L12.9577 6.03825L11.1569 5.21989C10.9056 5.10558 10.7946 4.80911 10.9089 4.55778ZM2.33398 11.3221L7.50065 13.6698V9.16325L2.33398 6.81429V11.3221ZM8.50065 9.16325V13.6698L13.6673 11.3221V6.81429L8.50065 9.16325Z" fill="#FAFAFA"/>
<path d="M8.00065 1.05322C8.0309 1.05322 8.06042 1.05653 8.08919 1.06169C8.09221 1.06223 8.0953 1.06239 8.09831 1.06299C8.11147 1.0656 8.12395 1.07043 8.13672 1.07406C8.15504 1.07925 8.17366 1.08366 8.19141 1.09098C8.22534 1.10501 8.25676 1.12356 8.28646 1.14437C8.30995 1.16084 8.33318 1.17873 8.35417 1.19971L9.98503 2.83057C10.1801 3.02578 10.1801 3.34236 9.98503 3.5376C9.78981 3.73282 9.47327 3.73273 9.27799 3.5376L8.50065 2.76025V6.03825C8.50065 6.31439 8.27679 6.53825 8.00065 6.53825C7.72451 6.53825 7.50065 6.31439 7.50065 6.03825V2.76025L6.72331 3.5376C6.52808 3.7327 6.21151 3.7327 6.01628 3.5376C5.82118 3.34237 5.82118 3.0258 6.01628 2.83057L7.64714 1.19971C7.6795 1.16737 7.71599 1.14189 7.75391 1.12028C7.77098 1.11052 7.78773 1.10001 7.80599 1.09229L7.8125 1.08968C7.83281 1.08147 7.85398 1.07624 7.875 1.0708C7.88373 1.06853 7.89213 1.06479 7.90104 1.06299C7.90471 1.06225 7.90842 1.06169 7.91211 1.06104C7.94085 1.0559 7.97044 1.05322 8.00065 1.05322Z" fill="#FAFAFA"/>
</svg>
