<svg width="16" height="16" viewBox="0 0 16 16" fill="none" xmlns="http://www.w3.org/2000/svg">
<path fill-rule="evenodd" clip-rule="evenodd" d="M8.00002 4.83344C8.67105 4.83344 9.30933 5.11368 9.77606 5.60363C10.242 6.09285 10.5 6.75183 10.5 7.4337V9.50011H10.6667C10.9428 9.50011 11.1666 9.72402 11.1667 10.0001C11.1667 10.2763 10.9428 10.5001 10.6667 10.5001H9.83335V12.0001C9.83335 12.2763 9.6095 12.5001 9.33335 12.5001C9.05722 12.5001 8.83335 12.2762 8.83335 12.0001V10.5001H7.16669V12.0001C7.16669 12.2763 6.94283 12.5001 6.66669 12.5001C6.39055 12.5001 6.16669 12.2762 6.16669 12.0001V10.5001H5.33335C5.05722 10.5001 4.83335 10.2762 4.83335 10.0001C4.83341 9.72403 5.05726 9.50012 5.33335 9.50011H5.50002V7.4337C5.50005 6.75184 5.75805 6.09286 6.22398 5.60363C6.69071 5.11367 7.32899 4.83345 8.00002 4.83344ZM8.00002 5.83344C7.61039 5.83345 7.23131 5.99566 6.94794 6.29308C6.66378 6.59145 6.50005 7.00174 6.50002 7.4337V9.50011H7.50002V8.87381L6.97984 8.35363C6.78464 8.15836 6.7846 7.84184 6.97984 7.64659C7.17508 7.4514 7.49162 7.45141 7.68687 7.64659L8.00002 7.95975L8.31317 7.64659C8.50842 7.4514 8.82495 7.45141 9.0202 7.64659C9.21545 7.84184 9.21542 8.15836 9.0202 8.35363L8.50002 8.87381V9.50011H9.50002V7.4337C9.49999 7.00175 9.33626 6.59146 9.0521 6.29308C8.76872 5.99567 8.38964 5.83344 8.00002 5.83344Z" fill="#FAFAFA"/>
<path fill-rule="evenodd" clip-rule="evenodd" d="M7.50393 1.46886C7.82854 1.37761 8.17282 1.37752 8.49742 1.46886C8.70646 1.52778 8.88633 1.63018 9.06382 1.75467C9.23272 1.87316 9.42519 2.03061 9.65367 2.21756L13.0345 4.98448C13.0488 4.99615 13.0636 5.00696 13.0775 5.01834C13.3232 5.21909 13.5165 5.3778 13.6595 5.57823C13.7854 5.75478 13.8787 5.95298 13.9356 6.16222C14.0001 6.39985 14.0002 6.6496 14 6.96691V11.8985C14 12.2542 14.0003 12.5511 13.9805 12.7937C13.9598 13.047 13.9147 13.2851 13.8002 13.5099C13.6244 13.8547 13.3442 14.1355 12.9994 14.3113C12.7746 14.4258 12.5364 14.4703 12.2832 14.491C12.0404 14.5108 11.7428 14.5105 11.3867 14.5105H4.6133C4.25722 14.5105 3.95963 14.5108 3.71682 14.491C3.4637 14.4703 3.22605 14.4258 3.00132 14.3113C2.65643 14.1356 2.37632 13.8547 2.20054 13.5099C2.08602 13.2851 2.04024 13.0469 2.01955 12.7937C1.99976 12.5511 2.00001 12.2542 2.00002 11.8985V6.96691C1.99981 6.64962 1.99992 6.39983 2.06447 6.16222C2.1214 5.9529 2.21521 5.75484 2.34117 5.57823C2.48419 5.37779 2.67748 5.21911 2.9232 5.01834C2.93711 5.00698 2.95192 4.99614 2.96617 4.98448L6.34703 2.21756C6.57542 2.03068 6.76802 1.87313 6.93687 1.75467C7.11442 1.63017 7.29477 1.52772 7.50393 1.46886ZM8.22593 2.43175C8.07847 2.3903 7.92222 2.39032 7.77476 2.43175C7.71628 2.44821 7.64084 2.48205 7.51109 2.57303C7.37613 2.6677 7.21206 2.80153 6.96617 3.00271L3.59898 5.75792C3.29095 6.00995 3.21113 6.08125 3.15562 6.15896C3.09845 6.23912 3.0552 6.32894 3.02932 6.42394C3.00425 6.51619 3.00002 6.62375 3.00002 7.02225V11.8777C3.00002 12.2592 3.00083 12.5158 3.01695 12.713C3.03256 12.9038 3.0605 12.9951 3.09117 13.0554C3.17104 13.2122 3.29836 13.3401 3.4551 13.42C3.51547 13.4508 3.60747 13.4786 3.79885 13.4943C3.99605 13.5103 4.25278 13.5105 4.63414 13.5105H11.3672C11.7486 13.5105 12.0053 13.5104 12.2025 13.4943C12.3933 13.4786 12.4846 13.4507 12.5449 13.42C12.7017 13.3401 12.8296 13.2122 12.9095 13.0554C12.9402 12.9951 12.9682 12.9036 12.9837 12.713C12.9999 12.5158 13 12.2592 13 11.8777V7.02225C13 6.62372 12.9958 6.5162 12.9707 6.42394C12.9448 6.32896 12.9022 6.23912 12.8451 6.15896C12.7896 6.08118 12.7099 6.01008 12.4017 5.75792L9.03453 3.00271C8.78852 2.80144 8.6246 2.66772 8.4896 2.57303C8.35988 2.48205 8.28442 2.44825 8.22593 2.43175Z" fill="#FAFAFA"/>
</svg>
