<svg width="16" height="16" viewBox="0 0 16 16" fill="none" xmlns="http://www.w3.org/2000/svg">
<path fill-rule="evenodd" clip-rule="evenodd" d="M7.9987 1.3335C8.27484 1.3335 8.4987 1.55735 8.4987 1.8335V4.45972L9.31181 3.64661C9.50707 3.45135 9.82366 3.45135 10.0189 3.64661C10.2142 3.84187 10.2142 4.15845 10.0189 4.35372L8.35225 6.02038C8.15699 6.21564 7.84041 6.21564 7.64514 6.02038L5.97848 4.35372C5.78322 4.15845 5.78322 3.84187 5.97848 3.64661C6.17374 3.45135 6.49032 3.45135 6.68559 3.64661L7.4987 4.45972V1.8335C7.4987 1.55735 7.72256 1.3335 7.9987 1.3335ZM2.89172 6.38158C3.06922 6.17004 3.3846 6.14245 3.59613 6.31995L4.36218 6.96274C4.57372 7.14024 4.60131 7.45562 4.42381 7.66715C4.24631 7.87869 3.93093 7.90628 3.71939 7.72878L2.95335 7.08599C2.74181 6.90849 2.71422 6.59312 2.89172 6.38158ZM13.1061 6.38158C13.2836 6.59312 13.256 6.9085 13.0445 7.086L12.2784 7.72879C12.0669 7.90629 11.7515 7.8787 11.574 7.66716C11.3965 7.45562 11.4241 7.14024 11.6356 6.96274L12.4017 6.31995C12.6132 6.14245 12.9286 6.17005 13.1061 6.38158ZM7.9987 8.3335C6.71003 8.3335 5.66536 9.37817 5.66536 10.6668V10.8335C5.66536 11.1096 5.44151 11.3335 5.16536 11.3335C4.88922 11.3335 4.66536 11.1096 4.66536 10.8335V10.6668C4.66536 8.82588 6.15775 7.3335 7.9987 7.3335C9.83965 7.3335 11.332 8.82588 11.332 10.6668V10.8335C11.332 11.1096 11.1082 11.3335 10.832 11.3335C10.5559 11.3335 10.332 11.1096 10.332 10.8335V10.6668C10.332 9.37817 9.28736 8.3335 7.9987 8.3335ZM1.33203 10.8335C1.33203 10.5574 1.55589 10.3335 1.83203 10.3335H2.83203C3.10817 10.3335 3.33203 10.5574 3.33203 10.8335C3.33203 11.1096 3.10817 11.3335 2.83203 11.3335H1.83203C1.55589 11.3335 1.33203 11.1096 1.33203 10.8335ZM12.6654 10.8335C12.6654 10.5574 12.8892 10.3335 13.1654 10.3335H14.1654C14.4415 10.3335 14.6654 10.5574 14.6654 10.8335C14.6654 11.1096 14.4415 11.3335 14.1654 11.3335H13.1654C12.8892 11.3335 12.6654 11.1096 12.6654 10.8335ZM1.33464 13.5002C1.33464 13.224 1.55849 13.0002 1.83464 13.0002H14.168C14.4441 13.0002 14.668 13.224 14.668 13.5002C14.668 13.7763 14.4441 14.0002 14.168 14.0002H1.83464C1.55849 14.0002 1.33464 13.7763 1.33464 13.5002Z" fill="#FAFAFA"/>
</svg>
