<svg width="16" height="16" viewBox="0 0 16 16" fill="none" xmlns="http://www.w3.org/2000/svg">
<path fill-rule="evenodd" clip-rule="evenodd" d="M7.66602 3.1426L4.64051 5.32097C4.3285 5.54562 3.95376 5.66649 3.56929 5.66649H2.49935C2.03911 5.66649 1.66602 6.03958 1.66602 6.49982V9.49982C1.66602 9.96006 2.03911 10.3332 2.49935 10.3332H3.56929C3.95376 10.3332 4.3285 10.454 4.64051 10.6787L7.66602 12.857V3.1426ZM7.34576 2.14095C7.897 1.74406 8.66602 2.13798 8.66602 2.81723V13.1824C8.66602 13.8617 7.897 14.2556 7.34576 13.8587L4.05621 11.4902C3.91438 11.3881 3.74405 11.3332 3.56929 11.3332H2.49935C1.48683 11.3332 0.666016 10.5123 0.666016 9.49982V6.49982C0.666016 5.4873 1.48683 4.66649 2.49935 4.66649H3.56929C3.74405 4.66649 3.91438 4.61155 4.05621 4.50943L7.34576 2.14095ZM12.666 5.33315C12.9422 5.33315 13.166 5.55701 13.166 5.83315V7.49982H14.8327C15.1088 7.49982 15.3327 7.72368 15.3327 7.99982C15.3327 8.27596 15.1088 8.49982 14.8327 8.49982H13.166V10.1665C13.166 10.4426 12.9422 10.6665 12.666 10.6665C12.3899 10.6665 12.166 10.4426 12.166 10.1665V8.49982H10.4993C10.2232 8.49982 9.99935 8.27596 9.99935 7.99982C9.99935 7.72368 10.2232 7.49982 10.4993 7.49982H12.166V5.83315C12.166 5.55701 12.3899 5.33315 12.666 5.33315Z" fill="#FAFAFA"/>
</svg>
