<svg width="16" height="16" viewBox="0 0 16 16" fill="none" xmlns="http://www.w3.org/2000/svg">
<path fill-rule="evenodd" clip-rule="evenodd" d="M11.8991 2.33008C12.1845 2.33008 12.4158 2.56101 12.416 2.84635V4.67773H12.9596C13.9015 4.67773 14.6654 5.44158 14.6654 6.38346V11.9648C14.6652 12.9066 13.9014 13.6699 12.9596 13.6699H3.03776C2.09598 13.6699 1.33219 12.9066 1.33203 11.9648V6.38346C1.33203 5.44158 2.09588 4.67773 3.03776 4.67773H3.57227V2.84635C3.57244 2.56101 3.80381 2.33008 4.08919 2.33008C4.37443 2.33025 4.60594 2.56112 4.60612 2.84635V4.67773H11.3822V2.84635C11.3823 2.56101 11.6137 2.33008 11.8991 2.33008ZM3.03776 5.60807C2.60963 5.60807 2.26237 5.95534 2.26237 6.38346V11.9648C2.26253 12.3928 2.60973 12.7396 3.03776 12.7396H12.9596C13.3877 12.7396 13.7349 12.3928 13.735 11.9648V6.38346C13.735 5.95534 13.3878 5.60807 12.9596 5.60807H3.03776Z" fill="#FAFAFA"/>
<path d="M10.3884 11.6664C9.82611 11.6664 9.39037 11.5374 9.08121 11.2794C8.77206 11.0213 8.61748 10.6306 8.61748 10.1072H9.54495C9.54495 10.3482 9.61798 10.5369 9.76404 10.6732C9.91253 10.8071 10.1194 10.8741 10.3848 10.8741C10.6258 10.8741 10.8084 10.8168 10.9325 10.7024C11.0591 10.588 11.1224 10.4079 11.1224 10.162C11.1224 9.92346 11.0445 9.75062 10.8887 9.64351C10.7329 9.5364 10.5333 9.48285 10.2898 9.48285H9.99408V8.72334H10.3191C10.5381 8.72334 10.7146 8.66736 10.8485 8.55538C10.9824 8.44096 11.0493 8.29125 11.0493 8.10625C11.0493 7.91637 10.9897 7.7764 10.8704 7.68633C10.7536 7.59626 10.5905 7.55123 10.3811 7.55123C10.1547 7.55123 9.97947 7.60965 9.85532 7.7265C9.73361 7.84091 9.67275 8.00036 9.67275 8.20484H8.74528C8.74528 7.87377 8.81709 7.60235 8.96072 7.39056C9.10677 7.17634 9.30274 7.0169 9.5486 6.91222C9.79447 6.80755 10.0708 6.75521 10.3775 6.75521C10.6647 6.75521 10.9301 6.80024 11.1735 6.89031C11.4169 6.97795 11.6117 7.11549 11.7577 7.30293C11.9062 7.48793 11.9805 7.7265 11.9805 8.01861C11.9805 8.31316 11.9062 8.54686 11.7577 8.71969C11.6117 8.89009 11.4133 9.01059 11.1625 9.08119C11.4352 9.13718 11.6616 9.25889 11.8417 9.44633C12.0219 9.63134 12.1119 9.89425 12.1119 10.235C12.1119 10.5442 12.0413 10.8059 11.9001 11.0201C11.7614 11.2319 11.563 11.3926 11.305 11.5021C11.0493 11.6116 10.7438 11.6664 10.3884 11.6664Z" fill="#FAFAFA"/>
<path d="M3.57227 11.6045L5.33957 6.68959H6.41675L8.18771 11.6045H7.11783L6.76729 10.5236H4.99268L4.63119 11.6045H3.57227ZM5.23733 9.67283H6.51534L5.87634 7.7047L5.23733 9.67283Z" fill="#FAFAFA"/>
</svg>
