<svg width="16" height="16" viewBox="0 0 16 16" fill="none" xmlns="http://www.w3.org/2000/svg">
<path fill-rule="evenodd" clip-rule="evenodd" d="M9.49935 3.43408C9.98258 3.4341 10.3748 3.82568 10.375 4.30908V5.31038H13.3841C13.6867 5.3105 13.9649 5.46657 14.1237 5.71729L14.1842 5.82992L15.304 8.34945L15.3366 8.43473C15.3648 8.52161 15.3796 8.61285 15.3796 8.70492V10.4393C15.3796 10.9227 14.9871 11.3147 14.5039 11.3149H13.429C13.2138 12.038 12.5449 12.5653 11.752 12.5656C10.9588 12.5656 10.2897 12.038 10.0742 11.3149H7.17318C6.9579 12.038 6.28913 12.5655 5.49609 12.5656C4.70273 12.5656 4.03357 12.0377 3.81836 11.3143H2.74349C2.26031 11.3141 1.86851 10.9227 1.86849 10.4393V7.37419C1.86858 7.09812 2.0924 6.87419 2.36849 6.87419C2.64443 6.87436 2.8684 7.09823 2.86849 7.37419V10.3143H3.81836C4.03387 9.59122 4.70308 9.06364 5.49609 9.06364C6.28922 9.06375 6.95798 9.59161 7.17318 10.3149H9.375V4.43408H1.11719C0.841099 4.43408 0.617275 4.21015 0.617188 3.93408C0.617188 3.65794 0.841045 3.43408 1.11719 3.43408H9.49935ZM5.49609 10.0636C5.0813 10.0636 4.74479 10.4001 4.74479 10.8149C4.74492 11.2296 5.08138 11.5656 5.49609 11.5656C5.91072 11.5655 6.24662 11.2296 6.24675 10.8149C6.24675 10.4002 5.9108 10.0638 5.49609 10.0636ZM11.752 10.0636C11.3372 10.0636 11.0007 10.4001 11.0007 10.8149C11.0008 11.2296 11.3372 11.5656 11.752 11.5656C12.1664 11.5653 12.5025 11.2295 12.5026 10.8149C12.5026 10.4003 12.1665 10.0639 11.752 10.0636ZM10.375 9.73486C10.6957 9.32676 11.1928 9.06364 11.752 9.06364C12.545 9.06389 13.2139 9.59166 13.429 10.3149H14.3796V8.73226L13.3034 6.31038H10.375V9.73486Z" fill="#FAFAFA"/>
<path d="M4.24479 5.31038C4.52093 5.31038 4.74479 5.53424 4.74479 5.81038C4.74479 6.08653 4.52093 6.31038 4.24479 6.31038H1.74284C1.4667 6.31038 1.24284 6.08653 1.24284 5.81038C1.24284 5.53424 1.4667 5.31038 1.74284 5.31038H4.24479Z" fill="#FAFAFA"/>
</svg>
