<svg width="16" height="16" viewBox="0 0 16 16" fill="none" xmlns="http://www.w3.org/2000/svg">
<path d="M1.5 11.9693V4.69718C1.5 4.20043 1.70043 3.72511 2.05469 3.37622C2.40868 3.02764 2.88742 2.83325 3.38477 2.83325H6.69466L6.83398 2.83976C6.97224 2.85324 7.10793 2.88733 7.23698 2.94002C7.40899 3.01028 7.56552 3.11359 7.69792 3.24406L7.69857 3.24341L9.00326 4.52856L9.06771 4.58065C9.13678 4.62594 9.21984 4.65154 9.30599 4.65161H12.6152C13.1126 4.65161 13.5913 4.84594 13.9453 5.19458C14.2995 5.54343 14.5 6.01821 14.5 6.51489V11.9693C14.5 12.4661 14.2996 12.9414 13.9453 13.2903C13.5913 13.6389 13.1126 13.8333 12.6152 13.8333H3.38477C2.88742 13.8333 2.40868 13.6389 2.05469 13.2903C1.70043 12.9414 1.5 12.4661 1.5 11.9693ZM7.5 11.0605V9.74211H6.15365C5.8776 9.742 5.65365 9.51818 5.65365 9.24211C5.65377 8.96614 5.87767 8.74221 6.15365 8.74211H7.5V7.4244C7.5 7.14826 7.72386 6.9244 8 6.9244C8.27614 6.9244 8.5 7.14826 8.5 7.4244V8.74211H9.84635L9.89714 8.74471C10.1493 8.77023 10.3462 8.98327 10.3464 9.24211C10.3464 9.50103 10.1493 9.71395 9.89714 9.7395L9.84635 9.74211H8.5V11.0605C8.5 11.3366 8.27614 11.5605 8 11.5605C7.72386 11.5605 7.5 11.3366 7.5 11.0605ZM2.5 11.9693C2.5 12.1959 2.59147 12.4148 2.75651 12.5774C2.92184 12.7402 3.14771 12.8333 3.38477 12.8333H12.6152C12.8523 12.8333 13.0782 12.7402 13.2435 12.5774C13.4085 12.4148 13.5 12.1959 13.5 11.9693V6.51489C13.5 6.28839 13.4085 6.06935 13.2435 5.90682C13.0782 5.74411 12.8522 5.65161 12.6152 5.65161H9.30469C8.97694 5.6513 8.65911 5.53873 8.4056 5.3339L8.30143 5.2408L6.99675 3.9563V3.95565C6.9579 3.91737 6.91111 3.88698 6.85938 3.8658C6.83343 3.85521 6.80618 3.84712 6.77865 3.84172L6.69466 3.83325H3.38477C3.14771 3.83325 2.92184 3.92629 2.75651 4.08911C2.59147 4.25168 2.5 4.47064 2.5 4.69718V11.9693Z" fill="#FAFAFA"/>
</svg>
