<svg width="16" height="16" viewBox="0 0 16 16" fill="none" xmlns="http://www.w3.org/2000/svg">
<path d="M5.94206 10.2522C6.05345 9.99959 6.34892 9.88501 6.60156 9.99632C6.85415 10.1077 6.96875 10.4032 6.85742 10.6558L5.96094 12.689L6.58984 12.4416C6.84671 12.3406 7.13707 12.4674 7.23828 12.7242C7.33928 12.981 7.21321 13.2715 6.95638 13.3726L5.19596 14.066L5.14779 14.0823C5.13157 14.0868 5.11527 14.0905 5.09896 14.0933C5.08103 14.0965 5.06284 14.0954 5.04492 14.0966C5.03103 14.0975 5.01726 14.1001 5.00326 14.0998C4.98302 14.0994 4.96323 14.0962 4.94336 14.0933C4.89897 14.087 4.85423 14.0771 4.8112 14.0582C4.784 14.0462 4.75891 14.0312 4.73503 14.0152C4.73252 14.0135 4.72969 14.0124 4.72721 14.0106C4.71691 14.0035 4.70821 13.9944 4.69857 13.9866C4.68247 13.9735 4.66616 13.9607 4.65169 13.9455C4.63526 13.9283 4.62111 13.9094 4.60742 13.8902C4.60278 13.8837 4.5968 13.8781 4.59245 13.8713C4.58961 13.8669 4.58733 13.8621 4.58464 13.8577C4.57072 13.8344 4.55779 13.8101 4.54753 13.7841L3.85417 12.0237C3.75326 11.7669 3.8801 11.4765 4.13672 11.3752C4.39355 11.2743 4.68399 11.401 4.78516 11.6578L5.03841 12.3017L5.94206 10.2522Z" fill="#FAFAFA"/>
<path d="M9.39779 9.99632C9.65044 9.88498 9.9459 9.99957 10.0573 10.2522L10.9596 12.301L11.2142 11.6578C11.3153 11.401 11.6058 11.2744 11.8626 11.3752C12.1194 11.4764 12.2461 11.7668 12.1452 12.0237L11.4518 13.7841C11.4192 13.8667 11.3658 13.9342 11.3014 13.9866C11.2917 13.9945 11.2826 14.0034 11.2721 14.0106C11.2697 14.0124 11.2668 14.0135 11.2643 14.0152C11.2405 14.0311 11.2153 14.0462 11.1882 14.0582C11.1587 14.0711 11.1286 14.0805 11.0983 14.0875C11.0966 14.0879 11.0948 14.0884 11.0931 14.0888C11.0835 14.0909 11.0735 14.0905 11.0638 14.092C11.0414 14.0956 11.019 14.0994 10.9961 14.0998C10.9799 14.1001 10.964 14.0978 10.9479 14.0966C10.9161 14.0941 10.8839 14.0911 10.8522 14.0823L10.8034 14.066L9.04362 13.3726C8.78697 13.2714 8.66026 12.9809 8.76107 12.7242C8.86221 12.4674 9.15271 12.3408 9.40951 12.4416L10.0378 12.689L9.14193 10.6558C9.03063 10.4033 9.14537 10.1078 9.39779 9.99632Z" fill="#FAFAFA"/>
<path d="M2 4.62067C2.27614 4.62067 2.5 4.84453 2.5 5.12067V10.454C2.49983 10.73 2.27604 10.954 2 10.954C1.72396 10.954 1.50017 10.73 1.5 10.454V5.12067C1.5 4.84453 1.72386 4.62067 2 4.62067Z" fill="#FAFAFA"/>
<path d="M14 4.62067C14.2761 4.62067 14.5 4.84453 14.5 5.12067V10.454C14.4998 10.73 14.276 10.954 14 10.954C13.724 10.954 13.5002 10.73 13.5 10.454V5.12067C13.5 4.84453 13.7239 4.62067 14 4.62067Z" fill="#FAFAFA"/>
<path d="M3.78451 8.08942C4.09507 8.11585 4.33975 8.37609 4.33984 8.69359C4.33979 9.0109 4.09583 9.27062 3.78516 9.2971C3.76822 9.29884 3.75112 9.30036 3.73372 9.30036C3.73198 9.30036 3.7296 9.29973 3.72786 9.29971C3.41629 9.29675 3.16105 9.05936 3.13021 8.75544L3.12695 8.69359L3.13021 8.63174C3.15939 8.3439 3.38974 8.11552 3.67839 8.08942C3.69633 8.08747 3.71461 8.08682 3.73307 8.08682L3.78451 8.08942Z" fill="#FAFAFA"/>
<path d="M5.86654 8.08682C6.20146 8.08682 6.47321 8.35853 6.47331 8.69359C6.47325 9.01112 6.22896 9.27093 5.91797 9.2971C5.90103 9.29884 5.88393 9.30036 5.86654 9.30036C5.55231 9.30036 5.29406 9.06127 5.26302 8.75544L5.25977 8.69359L5.26302 8.63174C5.29223 8.34368 5.5229 8.11524 5.81185 8.08942C5.82979 8.08747 5.84808 8.08682 5.86654 8.08682Z" fill="#FAFAFA"/>
<path d="M8 8.08682C8.3348 8.08682 8.60667 8.35843 8.60677 8.69359C8.60672 9.0112 8.36231 9.27093 8.05143 9.2971C8.0345 9.29884 8.01739 9.30036 8 9.30036C7.6857 9.30036 7.42752 9.06123 7.39648 8.75544L7.39323 8.69359L7.39648 8.63174C7.42569 8.34371 7.6563 8.11524 7.94531 8.08942C7.96325 8.08747 7.98154 8.08682 8 8.08682Z" fill="#FAFAFA"/>
<path d="M10.1335 8.08682C10.4683 8.08682 10.7401 8.35843 10.7402 8.69359C10.7402 9.01121 10.4958 9.27093 10.1849 9.2971C10.168 9.29884 10.1509 9.30036 10.1335 9.30036C9.81917 9.30036 9.56098 9.06123 9.52995 8.75544L9.52669 8.69359L9.52995 8.63174C9.55915 8.34371 9.78977 8.11524 10.0788 8.08942C10.0967 8.08747 10.115 8.08682 10.1335 8.08682Z" fill="#FAFAFA"/>
<path d="M12.2669 8.08682C12.6017 8.08682 12.8736 8.35843 12.8737 8.69359C12.8736 9.01121 12.6292 9.27093 12.3184 9.2971C12.3014 9.29884 12.2843 9.30036 12.2669 9.30036C11.9526 9.30036 11.6944 9.06123 11.6634 8.75544L11.6602 8.69359L11.6634 8.63174C11.6926 8.34371 11.9232 8.11524 12.2122 8.08942C12.2302 8.08747 12.2485 8.08682 12.2669 8.08682Z" fill="#FAFAFA"/>
<path d="M3.73307 5.95401C4.06813 5.95401 4.33984 6.22572 4.33984 6.56078C4.33963 6.87806 4.09569 7.13784 3.78516 7.16429C3.76824 7.16603 3.7511 7.16754 3.73372 7.16755L3.73307 7.1669C3.71459 7.1669 3.69635 7.16625 3.67839 7.16429C3.38981 7.13815 3.15953 6.91022 3.13021 6.62262L3.12695 6.56078L3.13021 6.49893C3.15929 6.21127 3.38928 5.98234 3.67773 5.95596H3.68164L3.73307 5.95401Z" fill="#FAFAFA"/>
<path d="M5.92839 5.95661C6.23441 5.9876 6.47331 6.24659 6.47331 6.56078C6.4731 6.87828 6.22881 7.13814 5.91797 7.16429C5.90105 7.16603 5.88391 7.16754 5.86654 7.16755L5.8151 7.16494L5.81185 7.16429C5.52297 7.13844 5.29237 6.91043 5.26302 6.62262L5.25977 6.56078L5.26302 6.49893C5.29215 6.21084 5.52279 5.98178 5.81185 5.95596C5.82979 5.95401 5.84808 5.95401 5.86654 5.95401L5.92839 5.95661Z" fill="#FAFAFA"/>
<path d="M8.06185 5.95661C8.36777 5.98759 8.60677 6.24651 8.60677 6.56078C8.60656 6.87836 8.36216 7.13815 8.05143 7.16429C8.03451 7.16603 8.01738 7.16754 8 7.16755L7.94857 7.16494L7.94531 7.16429C7.65638 7.13844 7.42583 6.9104 7.39648 6.62262L7.39323 6.56078L7.39648 6.49893C7.42561 6.21088 7.65619 5.98178 7.94531 5.95596C7.96325 5.95401 7.98155 5.95401 8 5.95401L8.06185 5.95661Z" fill="#FAFAFA"/>
<path d="M10.1953 5.95661C10.5012 5.98759 10.7402 6.24651 10.7402 6.56078C10.74 6.87837 10.4956 7.13815 10.1849 7.16429C10.168 7.16603 10.1508 7.16754 10.1335 7.16755L10.082 7.16494L10.0788 7.16429C9.78984 7.13844 9.55929 6.9104 9.52995 6.62262L9.52669 6.56078L9.52995 6.49893C9.55907 6.21088 9.78966 5.98178 10.0788 5.95596C10.0967 5.95401 10.115 5.95401 10.1335 5.95401L10.1953 5.95661Z" fill="#FAFAFA"/>
<path d="M12.3288 5.95661C12.6347 5.98759 12.8737 6.24651 12.8737 6.56078C12.8735 6.87837 12.6291 7.13815 12.3184 7.16429C12.3014 7.16603 12.2843 7.16754 12.2669 7.16755L12.2155 7.16494L12.2122 7.16429C11.9233 7.13844 11.6928 6.9104 11.6634 6.62262L11.6602 6.56078L11.6634 6.49893C11.6925 6.21087 11.9231 5.98178 12.2122 5.95596C12.2302 5.95401 12.2485 5.95401 12.2669 5.95401L12.3288 5.95661Z" fill="#FAFAFA"/>
<path d="M9.6263 2.19033C9.7424 1.93999 10.0393 1.831 10.2897 1.94684C10.5403 2.06295 10.6493 2.36036 10.5332 2.61091L9.52018 4.79776C9.40396 5.04801 9.10653 5.15724 8.85612 5.04124C8.60575 4.92518 8.49682 4.62763 8.61263 4.37718L9.6263 2.19033Z" fill="#FAFAFA"/>
<path d="M5.70964 1.94684C5.96018 1.83074 6.25759 1.93979 6.3737 2.19033L7.38672 4.37718C7.50272 4.6277 7.39373 4.92516 7.14323 5.04124C6.89294 5.15684 6.59596 5.04782 6.47982 4.79776L5.46615 2.61091C5.35008 2.36045 5.45929 2.06304 5.70964 1.94684Z" fill="#FAFAFA"/>
</svg>
