<svg width="16" height="16" viewBox="0 0 16 16" fill="none" xmlns="http://www.w3.org/2000/svg">
<path fill-rule="evenodd" clip-rule="evenodd" d="M8.00065 2.33325C4.87104 2.33325 2.33398 4.8703 2.33398 7.99992C2.33398 11.1295 4.87104 13.6666 8.00065 13.6666C11.1303 13.6666 13.6673 11.1295 13.6673 7.99992C13.6673 4.8703 11.1303 2.33325 8.00065 2.33325ZM1.33398 7.99992C1.33398 4.31802 4.31875 1.33325 8.00065 1.33325C11.6825 1.33325 14.6673 4.31802 14.6673 7.99992C14.6673 11.6818 11.6825 14.6666 8.00065 14.6666C4.31875 14.6666 1.33398 11.6818 1.33398 7.99992ZM5.33807 4.95696C5.54588 4.77512 5.86176 4.79618 6.04361 5.004L8.00065 7.24062L9.9577 5.004C10.1395 4.79618 10.4554 4.77512 10.6632 4.95696C10.8711 5.1388 10.8921 5.45469 10.7103 5.6625L8.5192 8.16658H9.50065C9.77679 8.16658 10.0007 8.39044 10.0007 8.66658C10.0007 8.94273 9.77679 9.16658 9.50065 9.16658H8.50065V11.4999C8.50065 11.7761 8.27679 11.9999 8.00065 11.9999C7.72451 11.9999 7.50065 11.7761 7.50065 11.4999V9.16658H6.50065C6.22451 9.16658 6.00065 8.94273 6.00065 8.66658C6.00065 8.39044 6.22451 8.16658 6.50065 8.16658H7.4821L5.29103 5.6625C5.10919 5.45469 5.13025 5.1388 5.33807 4.95696Z" fill="#FAFAFA"/>
</svg>
