<svg width="16" height="16" viewBox="0 0 16 16" fill="none" xmlns="http://www.w3.org/2000/svg">
<path d="M9.62146 1.43022C9.80122 1.22087 10.117 1.19657 10.3265 1.37618C10.5359 1.55586 10.56 1.87167 10.3806 2.08126L6.8643 6.18282L11.1592 7.61446C11.3235 7.66931 11.4475 7.80594 11.4873 7.97449C11.527 8.14298 11.4769 8.32011 11.3545 8.44259L6.91834 12.8781L7.49125 13.5025C7.85128 13.8952 7.62783 14.5307 7.10128 14.6119L4.88969 14.9524C4.44746 15.0204 4.06469 14.642 4.12797 14.1991L4.46847 11.8176C4.54804 11.2606 5.23916 11.0463 5.61951 11.4608L6.24255 12.1399L10.0752 8.30782L5.84281 6.89701C5.68489 6.84437 5.56369 6.71629 5.51925 6.55587C5.47483 6.39544 5.51313 6.22327 5.62146 6.09688L9.62146 1.43022Z" fill="#FAFAFA"/>
</svg>
