<svg width="16" height="16" viewBox="0 0 16 16" fill="none" xmlns="http://www.w3.org/2000/svg">
<path fill-rule="evenodd" clip-rule="evenodd" d="M10.834 1.56641C11.1101 1.56641 11.334 1.79026 11.334 2.06641C11.3339 2.34246 11.1101 2.56641 10.834 2.56641H8.50846V3.99935H13.6673V3.83268C13.6673 3.6911 13.7155 3.57242 13.8118 3.47656C13.9082 3.38079 14.028 3.33268 14.1706 3.33268C14.3129 3.33274 14.431 3.38086 14.5254 3.47656C14.6198 3.57245 14.6673 3.69102 14.6673 3.83268V8.16602C14.6673 8.30764 14.6192 8.42638 14.5228 8.52213C14.4265 8.61803 14.3066 8.66602 14.1641 8.66602C14.0218 8.66596 13.9036 8.61791 13.8092 8.52213C13.7148 8.42637 13.6673 8.30768 13.6673 8.16602V7.99935H12.6172C12.6394 8.1104 12.6533 8.21869 12.6589 8.32422C12.6644 8.42978 12.6673 8.54378 12.6673 8.66602C12.6673 9.96601 12.2148 11.069 11.3092 11.9746C10.4037 12.8802 9.30065 13.3327 8.00065 13.3327H2.33398V13.4993C2.33398 13.641 2.28584 13.7597 2.18945 13.8555C2.09312 13.9514 1.97329 13.9993 1.83073 13.9993C1.68845 13.9993 1.57028 13.9512 1.47591 13.8555C1.38147 13.7597 1.33398 13.641 1.33398 13.4993V9.16602C1.33398 9.02443 1.38219 8.90577 1.47852 8.8099C1.57485 8.71413 1.69468 8.66602 1.83724 8.66602C1.97956 8.66607 2.09767 8.7142 2.19206 8.8099C2.2865 8.9058 2.33398 9.02435 2.33398 9.16602V9.33268H3.38411C3.36189 9.22163 3.34802 9.11334 3.34245 9.00781C3.33688 8.90225 3.33398 8.78825 3.33398 8.66602C3.33398 7.36602 3.78649 6.26299 4.69206 5.35742C5.48106 4.56842 6.42004 4.12369 7.50846 4.02214V2.56641H5.16732C4.89124 2.56641 4.66742 2.34246 4.66732 2.06641C4.66732 1.79026 4.89118 1.56641 5.16732 1.56641H10.834ZM2.33398 12.3327H5.11719C4.79499 12.0771 4.5062 11.7796 4.25065 11.4408C3.99515 11.1019 3.78965 10.7326 3.63411 10.3327H2.33398V12.3327ZM8.00391 4.99935C6.99058 4.99941 6.12546 5.35669 5.40885 6.07096C4.69227 6.78527 4.33398 7.64938 4.33398 8.66276C4.33404 9.67609 4.69132 10.5412 5.4056 11.2578C6.11991 11.9744 6.98402 12.3327 7.9974 12.3327C9.01072 12.3326 9.87584 11.9753 10.5924 11.2611C11.309 10.5468 11.6673 9.68265 11.6673 8.66927C11.6673 7.65594 11.31 6.79083 10.5957 6.07422C9.88139 5.35763 9.01728 4.99935 8.00391 4.99935ZM10.8841 4.99935C11.2063 5.2549 11.4951 5.5524 11.7507 5.89128C12.0061 6.23012 12.2116 6.59943 12.3672 6.99935H13.6673V4.99935H10.8841Z" fill="#FAFAFA"/>
<path d="M7.06405 7.97603C6.91758 7.97603 6.79184 7.92287 6.68683 7.81656C6.58182 7.71025 6.52931 7.57923 6.52931 7.42351C6.52931 7.27124 6.58182 7.14109 6.68683 7.03305C6.79184 6.92502 6.91859 6.871 7.06708 6.871C7.21556 6.871 7.34207 6.92502 7.44661 7.03305C7.55115 7.14109 7.60342 7.27227 7.60342 7.42661C7.60342 7.58095 7.55098 7.71111 7.4461 7.81708C7.34123 7.92305 7.21388 7.97603 7.06405 7.97603ZM8.48129 9.25845C8.33482 9.25845 8.20851 9.20364 8.10237 9.09402C7.99622 8.9844 7.94314 8.85425 7.94314 8.70356C7.94314 8.55288 7.99642 8.42293 8.10297 8.31372C8.20952 8.20451 8.33703 8.14991 8.48552 8.14991C8.634 8.14991 8.76031 8.20472 8.86444 8.31433C8.96858 8.42396 9.02065 8.55411 9.02065 8.7048C9.02065 8.85548 8.96821 8.98543 8.86334 9.09464C8.75847 9.20385 8.63112 9.25845 8.48129 9.25845ZM7.08818 10.5374C6.94171 10.5374 6.81597 10.4834 6.71096 10.3755C6.60595 10.2676 6.55344 10.1366 6.55344 9.98247C6.55344 9.83178 6.60595 9.70184 6.71096 9.59263C6.81597 9.48343 6.94272 9.42882 7.0912 9.42882C7.23968 9.42882 7.36619 9.48357 7.47073 9.59306C7.57527 9.70256 7.62754 9.83257 7.62754 9.9831C7.62754 10.1365 7.5751 10.2673 7.47023 10.3753C7.36536 10.4833 7.23801 10.5374 7.08818 10.5374ZM9.88668 7.97603C9.73666 7.97603 9.60958 7.92287 9.50544 7.81656C9.4013 7.71025 9.34923 7.57923 9.34923 7.42351C9.34923 7.27124 9.40174 7.14109 9.50675 7.03305C9.61176 6.92502 9.73928 6.871 9.8893 6.871C10.0393 6.871 10.1664 6.92502 10.2705 7.03305C10.3747 7.14109 10.4267 7.27227 10.4267 7.42661C10.4267 7.58095 10.3742 7.71111 10.2692 7.81708C10.1642 7.92305 10.0367 7.97603 9.88668 7.97603ZM9.85723 10.5374C9.70741 10.5374 9.58026 10.4836 9.47578 10.376C9.37131 10.2685 9.31907 10.1383 9.31907 9.98557C9.31907 9.83282 9.37158 9.70184 9.4766 9.59263C9.58161 9.48343 9.70912 9.42882 9.85914 9.42882C10.0092 9.42882 10.1362 9.48357 10.2404 9.59306C10.3445 9.70256 10.3966 9.83257 10.3966 9.9831C10.3966 10.1365 10.3441 10.2673 10.2393 10.3753C10.1344 10.4833 10.0071 10.5374 9.85723 10.5374ZM5.65122 9.25845C5.5012 9.25845 5.37469 9.20364 5.27169 9.09402C5.16869 8.9844 5.11719 8.85321 5.11719 8.70045C5.11719 8.5477 5.16893 8.41775 5.27241 8.31062C5.37588 8.20348 5.50263 8.14991 5.65264 8.14991C5.80266 8.14991 5.92994 8.20472 6.03448 8.31433C6.13902 8.42396 6.19129 8.55411 6.19129 8.7048C6.19129 8.85548 6.13879 8.98543 6.03377 9.09464C5.92876 9.20385 5.80125 9.25845 5.65122 9.25845Z" fill="#FAFAFA"/>
</svg>
