<svg width="16" height="16" viewBox="0 0 16 16" fill="none" xmlns="http://www.w3.org/2000/svg">
<path fill-rule="evenodd" clip-rule="evenodd" d="M13.0607 3.57765C11.818 2.53671 10.0676 2 8 2C5.93239 2 4.18196 2.53671 2.93934 3.57765C1.68606 4.62751 0.999996 6.14885 0.999996 8C0.999996 9.85115 1.68606 11.3725 2.93934 12.4223C4.18196 13.4633 5.93239 14 8 14C9.12885 14 10.3803 13.8917 11.4891 13.3854C11.504 13.3942 11.5194 13.4031 11.5355 13.4123C11.7215 13.5187 11.9867 13.653 12.3045 13.7638C12.9322 13.9826 13.8263 14.1296 14.7149 13.7067C14.8505 13.6421 14.9499 13.52 14.9857 13.3741C15.0214 13.2282 14.9896 13.0739 14.8991 12.954C13.9374 11.6794 14.2229 10.9003 14.2349 10.8676C14.235 10.8673 14.2358 10.8651 14.2387 10.8583L14.2441 10.8454L14.2521 10.8266C14.3028 10.7045 14.486 10.2542 14.6575 9.71693C14.8238 9.19558 15 8.52995 15 8C15 6.14885 14.3139 4.62751 13.0607 3.57765ZM11.8179 12.4098C11.6634 12.2961 11.4576 12.2808 11.288 12.3704C10.337 12.8727 9.17474 13 8 13C6.09538 13 4.59581 12.5055 3.58149 11.6558C2.57782 10.815 2 9.58635 2 8C2 6.41365 2.57782 5.18499 3.58149 4.34423C4.59581 3.49454 6.09538 3 8 3C9.90461 3 11.4042 3.49454 12.4185 4.34423C13.4222 5.18499 14 6.41365 14 8C14 8.36126 13.8693 8.89748 13.7048 9.41294C13.5454 9.91248 13.3739 10.3339 13.3286 10.443C13.3284 10.4435 13.3279 10.4445 13.3272 10.4462C13.3225 10.4573 13.3069 10.4936 13.296 10.5234C13.1916 10.8083 12.9843 11.707 13.7081 12.9656C13.3344 13.0059 12.9634 12.9345 12.6337 12.8195C12.3875 12.7337 12.1789 12.6284 12.0322 12.5444C11.9592 12.5026 11.9027 12.4669 11.8658 12.4425C11.8474 12.4303 11.8339 12.421 11.8258 12.4154L11.8179 12.4098ZM11.8172 12.4093L11.8176 12.4096L11.8178 12.4097C11.8173 12.4094 11.817 12.4091 11.8169 12.4091L11.8172 12.4093Z" fill="#FAFAFA"/>
<path fill-rule="evenodd" clip-rule="evenodd" d="M5 7.33301C5.3681 7.33305 5.6669 7.63191 5.66699 8C5.66699 8.36816 5.36815 8.66695 5 8.66699C4.63181 8.66699 4.33301 8.36819 4.33301 8C4.3331 7.63188 4.63186 7.33301 5 7.33301ZM5.23535 8.23535C5.17504 8.2956 5.09199 8.33301 5 8.33301C4.90801 8.33299 4.82495 8.29563 4.76465 8.23535L4.72363 8.18652C4.78343 8.27545 4.88489 8.33301 5 8.33301C5.11508 8.33298 5.21656 8.27544 5.27637 8.18652L5.23535 8.23535Z" fill="#FAFAFA"/>
<path fill-rule="evenodd" clip-rule="evenodd" d="M8 7.33301C8.3681 7.33305 8.6669 7.63191 8.66699 8C8.66699 8.36816 8.36815 8.66695 8 8.66699C7.63181 8.66699 7.33301 8.36819 7.33301 8C7.3331 7.63188 7.63186 7.33301 8 7.33301ZM8.23535 8.23535C8.17504 8.2956 8.09199 8.33301 8 8.33301C7.90801 8.33299 7.82495 8.29563 7.76465 8.23535L7.72363 8.18652C7.78343 8.27545 7.88489 8.33301 8 8.33301C8.11508 8.33298 8.21656 8.27544 8.27637 8.18652L8.23535 8.23535Z" fill="#FAFAFA"/>
<path fill-rule="evenodd" clip-rule="evenodd" d="M11 7.33301C11.3681 7.33305 11.6669 7.63191 11.667 8C11.667 8.36816 11.3682 8.66695 11 8.66699C10.6318 8.66699 10.333 8.36819 10.333 8C10.3331 7.63188 10.6319 7.33301 11 7.33301ZM11.2354 8.23535C11.175 8.2956 11.092 8.33301 11 8.33301C10.908 8.33299 10.8249 8.29563 10.7646 8.23535L10.7236 8.18652C10.7834 8.27545 10.8849 8.33301 11 8.33301C11.1151 8.33298 11.2166 8.27544 11.2764 8.18652L11.2354 8.23535Z" fill="#FAFAFA"/>
</svg>
