<svg width="16" height="16" viewBox="0 0 16 16" fill="none" xmlns="http://www.w3.org/2000/svg">
<path d="M8.26758 2.07225C9.05831 1.77023 9.91958 1.70296 10.7474 1.87954C11.5753 2.05619 12.335 2.46854 12.9336 3.06704L12.9961 3.14386C13.0503 3.2253 13.0801 3.32194 13.0801 3.42121C13.08 3.52049 13.0504 3.61714 12.9961 3.69855L12.9329 3.77472L11.0794 5.62759C11.5582 5.76957 12.012 5.99226 12.4193 6.28969C13.1029 6.78897 13.6269 7.47615 13.929 8.26691C14.231 9.05758 14.2983 9.91897 14.1217 10.7467C13.9451 11.5745 13.5327 12.3343 12.9342 12.9329C12.8405 13.0266 12.7126 13.0794 12.5801 13.0794C12.4478 13.0793 12.3209 13.0264 12.2272 12.9329L10.3737 11.0794C10.2317 11.5578 10.0088 12.0115 9.71159 12.4186C9.21233 13.1021 8.52509 13.6263 7.73438 13.9284C6.94366 14.2304 6.08237 14.2976 5.25456 14.1211C4.42673 13.9444 3.667 13.532 3.06836 12.9336C2.97476 12.8399 2.92202 12.7124 2.92188 12.5801C2.92187 12.4476 2.97482 12.3203 3.06836 12.2265L3.81771 11.4759C3.90073 11.5117 4.00605 11.5606 4.14519 11.6302C4.3062 11.7107 4.52208 11.8198 4.78581 11.9219L4.1556 12.5521C4.54287 12.8388 4.98791 13.0419 5.46289 13.1432C6.10197 13.2796 6.76716 13.2279 7.37761 12.9948C7.98794 12.7616 8.51758 12.3563 8.903 11.8288C9.01119 11.6806 9.10526 11.5236 9.1875 11.3613C9.56273 11.0847 9.7937 10.6454 9.79818 10.1686L9.79558 10.0618C9.78731 9.92833 9.76079 9.79827 9.71875 9.67446C9.763 9.63535 9.81399 9.60319 9.8711 9.58136C10.0552 9.51117 10.2636 9.55595 10.403 9.69529L12.5534 11.8457C12.8399 11.4586 13.0425 11.0131 13.1439 10.5384C13.2802 9.89935 13.2286 9.2341 12.9954 8.62368C12.7623 8.01332 12.357 7.48371 11.8294 7.09829C11.3016 6.71282 10.6734 6.48818 10.0208 6.4518C9.90911 6.44554 9.80633 6.40076 9.72461 6.33071C9.77106 6.18819 9.79673 6.03753 9.79818 5.88279L9.79558 5.77602C9.79046 5.69357 9.77799 5.6124 9.75977 5.53318L11.8464 3.44725C11.4592 3.16076 11.0138 2.95872 10.5391 2.8574C9.89993 2.72103 9.23485 2.77266 8.62435 3.00584C8.14894 3.18747 7.72316 3.47424 7.37565 3.84113C6.77406 3.78131 6.17083 4.09067 5.88477 4.66274C5.85961 4.71317 5.83738 4.76536 5.81836 4.81704C5.77839 4.79986 5.73336 4.77928 5.68164 4.75519C5.82362 4.33788 6.02777 3.94165 6.29037 3.58201C6.78961 2.89846 7.47688 2.37436 8.26758 2.07225Z" fill="#FAFAFA"/>
<path d="M6.7793 9.39581C6.90279 9.14884 7.20354 9.04839 7.45052 9.17186L8.52214 9.70766C8.69282 9.79313 8.79989 9.96859 8.79818 10.1595C8.79632 10.3503 8.6859 10.5238 8.51368 10.6061C7.78218 10.9555 6.98758 11.1542 6.17774 11.1901C6.1705 11.1904 6.16284 11.1907 6.1556 11.1907C5.94923 11.1907 5.75948 11.1635 5.58334 11.1237L5.58269 11.125C5.57212 11.1226 5.56182 11.1193 5.55144 11.1165C5.1721 11.026 4.85851 10.8687 4.59245 10.7357C4.18914 10.534 3.88685 10.3897 3.48959 10.3867C2.81696 10.4178 2.15711 10.5834 1.54948 10.8737C1.3004 10.9925 1.00186 10.887 0.882816 10.638C0.763957 10.3889 0.86955 10.0904 1.11849 9.97134C1.84997 9.62187 2.64455 9.42326 3.45443 9.38735L3.47657 9.3867C4.14432 9.3867 4.64388 9.64386 5.03972 9.84178C5.4428 10.0433 5.74505 10.1869 6.14193 10.1901C6.43637 10.1765 6.72813 10.1359 7.01433 10.0716L7.00326 10.0664C6.7565 9.94298 6.65627 9.64268 6.7793 9.39581Z" fill="#FAFAFA"/>
<path d="M6.7793 7.25259C6.90281 7.0058 7.20364 6.90535 7.45052 7.02863L8.52214 7.56443C8.69273 7.64986 8.79979 7.82547 8.79818 8.01626C8.7964 8.20719 8.68597 8.38056 8.51368 8.46287C8.19891 8.61324 7.87205 8.73389 7.53776 8.82746C7.51584 8.83394 7.49409 8.84107 7.47201 8.84699L7.47071 8.84634C7.04916 8.9591 6.61584 9.02744 6.17774 9.04686C6.17049 9.04718 6.16285 9.0475 6.1556 9.04751C5.48791 9.04747 4.98826 8.79033 4.59245 8.59243C4.18924 8.39083 3.88678 8.24649 3.48959 8.24347C2.81695 8.27453 2.15712 8.44015 1.54948 8.73045C1.30032 8.84948 1.00186 8.74393 0.882816 8.49477C0.764149 8.24571 0.869504 7.94708 1.11849 7.82811C1.84998 7.47865 2.64455 7.28004 3.45443 7.24412L3.47657 7.24347C4.1442 7.24347 4.64391 7.50064 5.03972 7.69855C5.44279 7.90009 5.74506 8.04363 6.14193 8.04686C6.4364 8.03331 6.72809 7.99266 7.01433 7.92837L7.00326 7.92316C6.75656 7.79965 6.65612 7.49943 6.7793 7.25259Z" fill="#FAFAFA"/>
<path d="M6.7793 5.11001C6.90277 4.86306 7.20356 4.76265 7.45052 4.88605L8.52214 5.42186C8.69282 5.50733 8.79989 5.68278 8.79818 5.87368C8.7964 6.0646 8.68596 6.23798 8.51368 6.32029C7.78216 6.66974 6.98761 6.86838 6.17774 6.90428C6.17049 6.9046 6.16285 6.90493 6.1556 6.90493C5.48791 6.90489 4.98826 6.64776 4.59245 6.44985C4.18918 6.24822 3.88682 6.10392 3.48959 6.10089C2.81696 6.13195 2.15711 6.29757 1.54948 6.58787C1.30034 6.70681 1.00184 6.60132 0.882816 6.35219C0.763979 6.10312 0.869506 5.80458 1.11849 5.68553C1.84998 5.33607 2.64455 5.13747 3.45443 5.10154L3.47657 5.10089C4.14427 5.10089 4.64389 5.35806 5.03972 5.55597C5.44279 5.75751 5.74506 5.90106 6.14193 5.90428C6.43638 5.89073 6.72812 5.85007 7.01433 5.78579L7.00326 5.78058C6.7565 5.65712 6.65616 5.35687 6.7793 5.11001Z" fill="#FAFAFA"/>
<path d="M3.42123 2.92121C3.55384 2.9212 3.68097 2.97457 3.77474 3.06834L5.25391 4.54751C4.84874 4.35184 4.24348 4.10089 3.47657 4.10089L3.44727 4.10154L3.42513 4.1022C3.42021 4.10234 3.41508 4.10263 3.41016 4.10285C3.00948 4.12062 2.61199 4.1722 2.22201 4.25714C2.43446 3.81846 2.71975 3.41577 3.06771 3.06769L3.14454 3.00519C3.2259 2.95105 3.32206 2.92128 3.42123 2.92121Z" fill="#FAFAFA"/>
</svg>
