<svg width="16" height="16" viewBox="0 0 16 16" fill="none" xmlns="http://www.w3.org/2000/svg">
<path fill-rule="evenodd" clip-rule="evenodd" d="M5.18646 2.97994C5.38172 3.1752 5.38172 3.49179 5.18646 3.68705L3.37335 5.50016H10.8329C12.5818 5.50016 13.9996 6.91793 13.9996 8.66683V12.8335C13.9996 13.1096 13.7757 13.3335 13.4996 13.3335C13.2234 13.3335 12.9996 13.1096 12.9996 12.8335V8.66683C12.9996 7.47021 12.0295 6.50016 10.8329 6.50016H3.37335L5.18646 8.31328C5.38172 8.50854 5.38172 8.82512 5.18646 9.02038C4.9912 9.21564 4.67462 9.21564 4.47935 9.02038L2.28409 6.82512C1.82848 6.36951 1.82848 5.63082 2.28409 5.17521L4.47935 2.97994C4.67462 2.78468 4.9912 2.78468 5.18646 2.97994Z" fill="#FAFAFA"/>
</svg>
