<svg width="16" height="16" viewBox="0 0 16 16" fill="none" xmlns="http://www.w3.org/2000/svg">
<path fill-rule="evenodd" clip-rule="evenodd" d="M11.6191 8.23779C11.9713 8.15253 12.3378 8.14433 12.6934 8.2137C13.049 8.28314 13.3861 8.42862 13.6803 8.64014C13.9377 8.82518 14.1578 9.05695 14.3288 9.32308L14.3991 9.43896L14.4154 9.47087C14.4746 9.59497 14.5096 9.72999 14.5169 9.868C14.5243 10.0061 14.5041 10.1439 14.4583 10.2736C14.4124 10.404 14.3411 10.5238 14.2487 10.6265L14.248 10.6258C14.1558 10.7285 14.0448 10.8125 13.9206 10.8719L13.9147 10.8745L12.1543 11.6883L11.793 13.6551L11.7923 13.6545C11.7733 13.7749 11.7277 13.89 11.6569 13.9897L11.6562 13.9891C11.5838 14.091 11.4883 14.1735 11.3776 14.2313L11.3783 14.2326L10.2845 14.8296C10.2798 14.8321 10.2749 14.835 10.2702 14.8374C10.1459 14.9001 10.0069 14.9293 9.86784 14.922C9.72888 14.9148 9.59424 14.871 9.47721 14.7957C9.36022 14.7205 9.26481 14.6159 9.20052 14.4923C9.13641 14.369 9.10522 14.2309 9.11068 14.092L9.11589 14.0379L9.24089 13.1935L8.02539 13.7996L8.02474 13.799C7.78251 13.9222 7.50188 13.9469 7.24219 13.866C6.97968 13.7842 6.75966 13.6019 6.63086 13.3589C6.62886 13.3551 6.62691 13.351 6.625 13.3472L5.57487 11.2352C5.5717 11.2288 5.56865 11.2222 5.56576 11.2157C5.48678 11.0379 5.47744 10.8368 5.53971 10.6525L5.56576 10.5848C5.63458 10.4304 5.75283 10.302 5.90234 10.2202C5.90593 10.2183 5.90978 10.2162 5.91341 10.2144L6.67383 9.82308C6.82076 9.7436 6.98912 9.71336 7.15365 9.73714L7.22786 9.75212L7.30013 9.7736C7.44685 9.82526 7.57438 9.92032 7.66667 10.0457L8.07552 10.5112L10.6758 8.69092C10.9551 8.47564 11.2762 8.32085 11.6191 8.23779ZM12.502 9.19482C12.2878 9.15304 12.0669 9.15784 11.8548 9.20915C11.6426 9.26054 11.4436 9.35775 11.2721 9.493C11.2647 9.49884 11.2571 9.50452 11.2493 9.50993L8.28255 11.5874C8.07379 11.7336 7.7887 11.6994 7.62044 11.508L6.98633 10.7866L6.57357 10.9989L7.51562 12.8914C7.52095 12.9007 7.52944 12.9077 7.53971 12.911C7.55043 12.9143 7.56232 12.9135 7.57227 12.9084L7.57943 12.9045L9.52409 11.9364L9.53646 11.9298L9.66667 11.87C9.83341 11.7928 10.0293 11.8133 10.1764 11.9233C10.3236 12.0335 10.3988 12.2155 10.3717 12.3973L10.1693 13.7528L10.8242 13.3947L11.2174 11.256L11.2318 11.1981C11.2728 11.066 11.3671 10.9558 11.4935 10.8953L11.6921 10.8003L11.6979 10.7977L13.4883 9.96956C13.4944 9.96665 13.5009 9.96261 13.5052 9.95784C13.5094 9.95312 13.5129 9.9473 13.515 9.94157C13.5173 9.93506 13.5185 9.92756 13.5182 9.92139C13.5181 9.91858 13.5163 9.91577 13.5156 9.91292C13.4089 9.73226 13.267 9.57464 13.0964 9.45199C12.9191 9.32459 12.7163 9.23667 12.502 9.19482Z" fill="#FAFAFA"/>
<path fill-rule="evenodd" clip-rule="evenodd" d="M10.3607 1.3335C10.6368 1.3335 10.8607 1.55735 10.8607 1.8335V2.66683H11.694C12.7065 2.66683 13.5273 3.48764 13.5273 4.50016V6.8335C13.5273 7.10964 13.3035 7.3335 13.0273 7.3335C12.7512 7.3335 12.5273 7.10964 12.5273 6.8335V6.66683H2.52734V12.1668C2.52734 12.6271 2.90044 13.0002 3.36068 13.0002H5.02734C5.30349 13.0002 5.52734 13.224 5.52734 13.5002C5.52734 13.7763 5.30349 14.0002 5.02734 14.0002H3.36068C2.34816 14.0002 1.52734 13.1794 1.52734 12.1668V4.50016C1.52734 3.48764 2.34816 2.66683 3.36068 2.66683H4.19401V1.8335C4.19401 1.55735 4.41787 1.3335 4.69401 1.3335C4.97015 1.3335 5.19401 1.55735 5.19401 1.8335V2.66683H9.86068V1.8335C9.86068 1.55735 10.0845 1.3335 10.3607 1.3335ZM3.36068 3.66683C2.90044 3.66683 2.52734 4.03993 2.52734 4.50016V5.66683H12.5273V4.50016C12.5273 4.03993 12.1542 3.66683 11.694 3.66683H3.36068Z" fill="#FAFAFA"/>
</svg>
