<svg width="16" height="16" viewBox="0 0 16 16" fill="none" xmlns="http://www.w3.org/2000/svg">
<path d="M5.764 12.105C5.70899 12.1222 5.6512 12.1352 5.59082 12.144C5.561 12.1484 5.53012 12.1509 5.49902 12.1532C5.60254 12.1458 5.69898 12.1253 5.78809 12.0952C5.77992 12.098 5.77229 12.1024 5.764 12.105Z" fill="#FAFAFA"/>
<path d="M7.4248 11.4552C7.41442 11.4434 7.40289 11.4325 7.3929 11.4201L7.38379 11.4077C7.39681 11.4244 7.41109 11.4397 7.4248 11.4552Z" fill="#FAFAFA"/>
<path d="M8.57715 11.3348L8.57975 11.3817C8.57975 11.3488 8.57551 11.3195 8.56738 11.2931C8.57144 11.3063 8.57509 11.3201 8.57715 11.3348Z" fill="#FAFAFA"/>
<path fill-rule="evenodd" clip-rule="evenodd" d="M8.00033 4.8335C8.00033 5.84602 8.82114 6.66683 9.83366 6.66683H13.3337V12.8335C13.3337 13.846 12.5128 14.6668 11.5003 14.6668H4.50033C3.4878 14.6668 2.66699 13.846 2.66699 12.8335V3.16683C2.66699 2.15431 3.4878 1.3335 4.50033 1.3335H8.00033V4.8335ZM5.40267 9.35433C4.62714 9.35438 4.0791 9.97636 4.0791 10.8224C4.07917 11.6684 4.62719 12.2898 5.40267 12.2899C5.68952 12.2899 5.93908 12.2103 6.139 12.062C6.33849 11.914 6.48168 11.7033 6.56478 11.452L6.58561 11.3895C6.59691 11.3549 6.57824 11.3174 6.54395 11.3055L6.48079 11.284L5.98014 11.1128C5.94361 11.1004 5.9041 11.1217 5.89421 11.159L5.87598 11.2287C5.84231 11.3571 5.78099 11.4525 5.70345 11.5158C5.62641 11.5786 5.52605 11.616 5.40267 11.616C5.23181 11.616 5.0878 11.5433 4.9834 11.4123C4.87728 11.2791 4.80765 11.0788 4.80762 10.8224C4.80762 10.566 4.87725 10.3652 4.9834 10.2319C5.08779 10.1011 5.2319 10.0288 5.40267 10.0288C5.52601 10.0288 5.62642 10.0656 5.70345 10.1284C5.78107 10.1917 5.84231 10.2876 5.87598 10.4162L5.89421 10.4858C5.9041 10.5231 5.94361 10.5444 5.98014 10.5321L6.48079 10.3608L6.54395 10.3394C6.57828 10.3275 6.59689 10.2899 6.58561 10.2554L6.56478 10.1922C6.48166 9.94098 6.3385 9.73014 6.139 9.58219C5.93909 9.43396 5.6895 9.35433 5.40267 9.35433ZM8.0498 9.35433C7.7633 9.35434 7.49832 9.43867 7.30241 9.59782C7.10441 9.75876 6.9821 9.99283 6.9821 10.2743C6.98213 10.5729 7.11095 10.7687 7.29915 10.896C7.47558 11.0152 7.70136 11.072 7.89225 11.118L8.15527 11.1812C8.22935 11.2003 8.29064 11.2191 8.34082 11.2423C8.38715 11.2638 8.41138 11.2843 8.4248 11.3022C8.43652 11.3179 8.44694 11.3405 8.44694 11.3817C8.44686 11.4608 8.41392 11.5163 8.35645 11.5568C8.29406 11.6007 8.19586 11.6303 8.06803 11.6304C7.82494 11.6304 7.59326 11.4978 7.43327 11.2482L7.3929 11.1851C7.37136 11.1514 7.32543 11.1441 7.2946 11.1694L7.23665 11.2176L6.83822 11.5464C6.81286 11.5675 6.80681 11.6041 6.82389 11.6323L6.85384 11.6818C7.08523 12.0618 7.57453 12.2899 8.05371 12.2899C8.63087 12.2898 9.16746 11.9435 9.16764 11.3348C9.16764 11.1735 9.13165 11.0372 9.06413 10.924C8.99688 10.8114 8.90293 10.7292 8.7998 10.6675C8.64983 10.5777 8.46959 10.5257 8.30371 10.4865L8.14421 10.4507C7.96206 10.4094 7.84613 10.3815 7.77246 10.342C7.73924 10.3241 7.72347 10.3081 7.71517 10.2951C7.70748 10.283 7.70021 10.2637 7.7002 10.2274C7.7002 10.1706 7.72429 10.1221 7.77572 10.0841C7.82996 10.0441 7.91769 10.0145 8.03548 10.0145C8.27937 10.0145 8.43329 10.1334 8.56152 10.3322L8.60319 10.3966C8.62518 10.4304 8.67221 10.4372 8.7028 10.411L8.76074 10.3608L9.09994 10.0685L9.14355 10.0308C9.16856 10.0091 9.17371 9.97206 9.15592 9.94417L9.12533 9.896C8.92593 9.58445 8.53552 9.35433 8.0498 9.35433ZM9.33561 9.39404C9.2892 9.39405 9.25702 9.44035 9.27311 9.48389L9.30632 9.57373L10.2692 12.1636L10.2855 12.2072C10.2953 12.2331 10.3203 12.2502 10.348 12.2502H10.9281C10.9559 12.2501 10.9809 12.2327 10.9906 12.2065L11.9958 9.48389C12.0117 9.44039 11.9789 9.39404 11.9326 9.39404H11.3141C11.286 9.39404 11.2612 9.41187 11.2516 9.43831L11.2354 9.48258L10.7067 10.9657C10.6856 11.0246 10.6022 11.0245 10.5811 10.9657L10.055 9.48324L10.0387 9.43831C10.0293 9.41183 10.0044 9.39408 9.97624 9.39404H9.33561Z" fill="#FAFAFA"/>
<path d="M9.04915 1.67529L12.9919 5.618C13.0077 5.63387 13.0232 5.65016 13.0381 5.66683H9.83366C9.37342 5.66683 9.00033 5.29373 9.00033 4.8335V1.62907C9.01699 1.64392 9.03328 1.65942 9.04915 1.67529Z" fill="#FAFAFA"/>
</svg>
