<svg width="16" height="16" viewBox="0 0 16 16" fill="none" xmlns="http://www.w3.org/2000/svg">
<path d="M7.99935 1.13623C9.14441 1.13636 10.243 1.59216 11.0527 2.40186C11.8622 3.21162 12.3171 4.31021 12.3171 5.45524V9.62191H12.6654C12.9415 9.62191 13.1654 9.84577 13.1654 10.1219C13.1651 10.3978 12.9413 10.6219 12.6654 10.6219H10.6198V14.3634C10.6198 14.6396 10.3959 14.8634 10.1198 14.8634C9.8437 14.8634 9.61979 14.6395 9.61979 14.3634V10.6219H8.4987V7.78337L9.625 6.65706C9.82009 6.46191 9.81991 6.1453 9.625 5.95003C9.42976 5.75479 9.11324 5.75483 8.91797 5.95003L7.9987 6.8693L7.07943 5.95003C6.88416 5.75477 6.56766 5.75477 6.3724 5.95003C6.1773 6.14531 6.17719 6.46186 6.3724 6.65706L7.4987 7.78337V10.6219H6.3776V14.3634C6.3776 14.6395 6.15369 14.8634 5.8776 14.8634C5.60146 14.8634 5.3776 14.6396 5.3776 14.3634V10.6219H3.33203C3.05605 10.6219 2.83229 10.3978 2.83203 10.1219C2.83203 9.84577 3.05589 9.62191 3.33203 9.62191H3.68099V5.45524C3.68099 4.31007 4.13625 3.21166 4.94596 2.40186C5.75576 1.59214 6.85418 1.13623 7.99935 1.13623Z" fill="#FAFAFA"/>
</svg>
