<svg width="16" height="16" viewBox="0 0 16 16" fill="none" xmlns="http://www.w3.org/2000/svg">
<path d="M10.333 1.5C10.609 1.50018 10.833 1.72397 10.833 2C10.833 2.27603 10.609 2.49982 10.333 2.5H7.83301V4.19141C8.34429 4.24068 8.83464 4.36422 9.29199 4.55176L9.54785 4.66406L9.59277 4.68848C9.80916 4.81984 9.89501 5.09643 9.78418 5.33008C9.67306 5.56382 9.40371 5.67194 9.16504 5.58691L9.11816 5.56738L8.91309 5.47656C8.42644 5.27695 7.89296 5.16703 7.33301 5.16699C5.03193 5.16699 3.16619 7.03197 3.16602 9.33301C3.16602 11.6342 5.03182 13.5 7.33301 13.5C9.27097 13.4999 10.9011 12.1761 11.3662 10.3828L11.3818 10.334C11.4699 10.0965 11.7251 9.95957 11.9756 10.0244C12.2427 10.0938 12.4031 10.3666 12.334 10.6338L12.2764 10.8408C11.6313 12.9586 9.66251 14.4999 7.33301 14.5C4.47954 14.5 2.16602 12.1865 2.16602 9.33301C2.16618 6.64825 4.21409 4.44175 6.83301 4.19043V2.5H3.99902C3.72303 2.49982 3.49902 2.27603 3.49902 2C3.49902 1.72397 3.72303 1.50018 3.99902 1.5H10.333ZM7.33301 7.33301C8.43732 7.33318 9.33283 8.2287 9.33301 9.33301C9.33301 10.4375 8.43743 11.3328 7.33301 11.333C6.22844 11.333 5.33301 10.4376 5.33301 9.33301C5.33318 8.22859 6.22855 7.33301 7.33301 7.33301ZM7.33301 8.33301C6.78083 8.33301 6.33318 8.78087 6.33301 9.33301C6.33301 9.88529 6.78072 10.333 7.33301 10.333C7.88514 10.3328 8.33301 9.88518 8.33301 9.33301C8.33283 8.78098 7.88503 8.33318 7.33301 8.33301ZM12.0811 4.83984C12.2691 4.87102 12.4258 5.00843 12.4795 5.19629L13.1465 7.5293C13.1592 7.57397 13.166 7.62053 13.166 7.66699V8.66699C13.1658 8.94299 12.942 9.16699 12.666 9.16699H10.666C10.39 9.16699 10.1662 8.94299 10.166 8.66699V7.66699C10.166 7.62053 10.1728 7.57397 10.1855 7.5293L10.8525 5.19629L10.8809 5.11816C10.9626 4.94628 11.1378 4.83301 11.333 4.83301H11.999L12.0811 4.83984Z" fill="#FAFAFA"/>
</svg>
