<svg width="16" height="16" viewBox="0 0 16 16" fill="none" xmlns="http://www.w3.org/2000/svg">
<path fill-rule="evenodd" clip-rule="evenodd" d="M12 2C13.1046 2 14 2.89543 14 4V12C14 13.1046 13.1046 14 12 14H4C2.89543 14 2 13.1046 2 12V4C2 2.89543 2.89543 2 4 2H12ZM7.41113 5.47949C7.21598 5.28434 6.89939 5.28456 6.7041 5.47949L5.00879 7.1748C4.55318 7.63042 4.55318 8.36958 5.00879 8.8252L6.7041 10.5205C6.89939 10.7154 7.21598 10.7157 7.41113 10.5205C7.60629 10.3254 7.60607 10.0088 7.41113 9.81348L6.09766 8.5H10.5576C10.8336 8.49983 11.0576 8.27603 11.0576 8C11.0576 7.72397 10.8336 7.50017 10.5576 7.5H6.09766L7.41113 6.18652C7.60607 5.99124 7.60629 5.67465 7.41113 5.47949Z" fill="#FAFAFA"/>
</svg>
