<svg width="16" height="16" viewBox="0 0 16 16" fill="none" xmlns="http://www.w3.org/2000/svg">
<rect x="2" y="2" width="12" height="12" rx="2" fill="#FAFAFA"/>
<path d="M12.6667 13V14H3.33333V13H12.6667ZM13 12.6667V3.33333C13 3.14924 12.8508 3 12.6667 3H3.33333C3.14924 3 3 3.14924 3 3.33333V12.6667C3 12.8508 3.14924 13 3.33333 13V14L3.19727 13.9928C2.52482 13.9247 2 13.3571 2 12.6667V3.33333C2 2.59695 2.59695 2 3.33333 2H12.6667C13.403 2 14 2.59695 14 3.33333V12.6667C14 13.403 13.403 14 12.6667 14V13C12.8508 13 13 12.8508 13 12.6667Z" fill="#FAFAFA"/>
<path d="M10.6537 5.63988C10.8361 5.46367 11.1259 5.45108 11.3236 5.6184C11.5213 5.78568 11.5569 6.07346 11.4135 6.28246L11.3822 6.32283L7.71557 10.6562C7.62527 10.7629 7.49455 10.8268 7.3549 10.8326C7.23262 10.8377 7.1131 10.7982 7.01896 10.7219L6.98055 10.6868L4.98055 8.68676L4.94604 8.649C4.78584 8.45261 4.79748 8.1628 4.98055 7.97973C5.16362 7.79666 5.45343 7.78502 5.64982 7.94522L5.68758 7.97973L7.30346 9.59561L10.6192 5.67699L10.6537 5.63988Z" fill="black"/>
</svg>
