<svg width="16" height="16" viewBox="0 0 16 16" fill="none" xmlns="http://www.w3.org/2000/svg">
<path d="M10.1113 0.9375C10.7195 0.937597 11.303 1.17933 11.7331 1.60938C12.0714 1.94782 12.2926 2.38137 12.3717 2.84701C12.9389 2.90647 13.4719 3.15878 13.8789 3.56576C14.3476 4.03458 14.6113 4.67037 14.6113 5.33333C14.6113 5.46587 14.5585 5.5931 14.4648 5.68685C14.3712 5.78054 14.2438 5.83325 14.1113 5.83333H10.1113C9.83519 5.83333 9.61133 5.60948 9.61133 5.33333C9.61133 4.67029 9.87491 4.0346 10.3438 3.56576C10.6334 3.27612 10.9869 3.06449 11.3711 2.94531C11.3175 2.70924 11.1999 2.49033 11.026 2.31641C10.7835 2.0739 10.4543 1.9376 10.1113 1.9375H9.78841C9.61881 1.93694 9.45045 1.96992 9.29362 2.03451C9.13668 2.09919 8.99375 2.19445 8.8737 2.31445C8.75364 2.43452 8.65847 2.5774 8.59375 2.73438C8.53807 2.86947 8.50685 3.01321 8.49935 3.15885C8.50005 3.18293 8.50137 3.207 8.5013 3.23112V14.6875H9.22005C9.49619 14.6875 9.72005 14.9114 9.72005 15.1875C9.72005 15.4636 9.49619 15.6875 9.22005 15.6875H6.778C6.50185 15.6875 6.278 15.4636 6.278 15.1875C6.278 14.9114 6.50186 14.6875 6.778 14.6875H7.49675V3.23112C7.49668 3.20679 7.49669 3.18248 7.4974 3.1582C7.48982 3.01279 7.45988 2.86925 7.4043 2.73438C7.33958 2.57735 7.24444 2.43455 7.12435 2.31445C7.00426 2.19437 6.86144 2.09922 6.70443 2.03451C6.54752 1.96985 6.37934 1.93694 6.20964 1.9375H5.88672C5.54363 1.93751 5.21462 2.07382 4.97201 2.31641C4.79806 2.49036 4.68055 2.70916 4.62695 2.94531C5.01119 3.06451 5.36457 3.27603 5.6543 3.56576C6.12314 4.0346 6.38672 4.67029 6.38672 5.33333C6.38672 5.60948 6.16286 5.83333 5.88672 5.83333H1.88672C1.75411 5.83333 1.62697 5.78062 1.5332 5.68685C1.43943 5.59308 1.38672 5.46594 1.38672 5.33333C1.38672 4.67029 1.6503 4.0346 2.11914 3.56576C2.52619 3.1587 3.05899 2.90641 3.6263 2.84701C3.70548 2.3813 3.92651 1.94784 4.26497 1.60938C4.69512 1.17925 5.27842 0.937511 5.88672 0.9375L6.20768 0.938151C6.50872 0.937339 6.80694 0.99534 7.08529 1.11003C7.36425 1.22501 7.61802 1.39407 7.83138 1.60742C7.89077 1.66681 7.94639 1.7296 7.9987 1.79492C8.05105 1.72954 8.10723 1.66686 8.16667 1.60742C8.38 1.39414 8.63386 1.22498 8.91276 1.11003C9.19103 0.995416 9.48943 0.937339 9.79037 0.938151L10.1113 0.9375Z" fill="#FAFAFA"/>
</svg>
