<svg width="16" height="16" viewBox="0 0 16 16" fill="none" xmlns="http://www.w3.org/2000/svg">
<path d="M8 1.33301C11.6817 1.33318 14.6659 4.31828 14.666 8C14.666 11.6818 11.6817 14.6668 8 14.667C4.3181 14.667 1.33301 11.6819 1.33301 8C1.3331 4.31818 4.31816 1.33301 8 1.33301ZM8 4.67188C7.724 4.67204 7.5 4.89583 7.5 5.17188V7.5H5.17188C4.89583 7.5 4.67204 7.724 4.67188 8C4.67188 8.27614 4.89573 8.5 5.17188 8.5H7.5V10.8291C7.5002 11.105 7.72412 11.3289 8 11.3291C8.27602 11.3291 8.4998 11.1051 8.5 10.8291V8.5H10.8291C11.1051 8.4998 11.3291 8.27602 11.3291 8C11.3289 7.72412 11.105 7.5002 10.8291 7.5H8.5V5.17188C8.5 4.89573 8.27614 4.67188 8 4.67188Z" fill="#FAFAFA"/>
</svg>
