<svg width="16" height="16" viewBox="0 0 16 16" fill="none" xmlns="http://www.w3.org/2000/svg">
<path fill-rule="evenodd" clip-rule="evenodd" d="M9.11467 1.33325C9.4398 1.33325 9.75153 1.46266 9.98145 1.69253C10.2113 1.92241 10.3407 2.23421 10.3407 2.55931V3.10638H12.8355C12.839 3.10646 12.8432 3.10687 12.8475 3.10701C12.8566 3.1073 12.868 3.10735 12.8808 3.10827C12.9064 3.1101 12.94 3.11376 12.9788 3.1202C13.0544 3.13284 13.1631 3.15934 13.2771 3.2163C13.3931 3.27435 13.5245 3.36885 13.6251 3.51967C13.7276 3.67362 13.7796 3.85784 13.7796 4.05984V13.7225C13.7795 13.726 13.7791 13.7301 13.779 13.7345C13.7786 13.7436 13.778 13.755 13.7771 13.7678C13.7752 13.7934 13.7722 13.827 13.7658 13.8658C13.7531 13.9414 13.7266 14.0501 13.6697 14.1641C13.6116 14.2801 13.5171 14.4115 13.3663 14.5121C13.2124 14.6147 13.0281 14.6665 12.8261 14.6666H3.16341C3.16001 14.6665 3.15581 14.6661 3.15148 14.666C3.14245 14.6657 3.13094 14.665 3.11819 14.6641C3.09257 14.6622 3.05845 14.6592 3.01958 14.6528C2.94393 14.6401 2.83522 14.6136 2.72123 14.5567C2.60532 14.4987 2.47445 14.4039 2.37389 14.2533C2.27126 14.0993 2.21879 13.9152 2.21875 13.7131V4.05042C2.21881 4.04699 2.21985 4.04284 2.22001 4.03848C2.22031 4.02944 2.22036 4.01797 2.22126 4.00519C2.2231 3.97954 2.22671 3.94551 2.2332 3.90658C2.24583 3.83087 2.27227 3.72231 2.3293 3.60823C2.38734 3.49223 2.48184 3.36148 2.63267 3.26089C2.78666 3.15826 2.97074 3.10638 3.17284 3.10638H5.6576V2.55931C5.65766 2.23421 5.78699 1.92241 6.01688 1.69253C6.2468 1.46266 6.55853 1.33325 6.88366 1.33325H9.11467ZM3.18414 13.7012L3.18477 13.7018H12.8148V4.07115H3.18414V13.7012ZM6.88366 2.29802C6.81441 2.29802 6.74799 2.3257 6.699 2.37464C6.65004 2.4236 6.62242 2.49008 6.62237 2.55931V3.10638H9.37596V2.55931C9.37591 2.49008 9.34829 2.4236 9.29934 2.37464C9.25034 2.3257 9.18393 2.29802 9.11467 2.29802H6.88366Z" fill="#FAFAFA"/>
<path fill-rule="evenodd" clip-rule="evenodd" d="M3.18414 13.7012L3.18477 13.7018H12.8148V4.07115H3.18414V13.7012ZM6.83781 5.05538C6.46783 4.93259 6.07279 4.90206 5.68838 4.96682C5.30406 5.03163 4.94117 5.18938 4.63192 5.42659C4.32506 5.662 4.07997 5.96876 3.91776 6.31975C3.69287 6.78684 3.61542 7.31184 3.69542 7.82405C3.77518 8.33398 4.00777 8.80848 4.36183 9.18389L7.64555 12.7402C7.73681 12.839 7.86527 12.8953 7.99979 12.8953C8.13437 12.8953 8.26275 12.8391 8.35404 12.7402L11.6308 9.18829C11.9879 8.81215 12.2222 8.33583 12.3023 7.82342C12.3823 7.31113 12.3039 6.78617 12.0787 6.31912C11.9164 5.96871 11.6717 5.66225 11.3652 5.42722C11.056 5.19029 10.6934 5.03215 10.3093 4.96745C9.9251 4.90279 9.53032 4.93326 9.16053 5.05601C8.7912 5.17864 8.45733 5.38982 8.18822 5.67092L7.99917 5.86626L7.81011 5.67029C7.54102 5.38924 7.20709 5.17803 6.83781 5.05538Z" fill="#FAFAFA"/>
<path fill-rule="evenodd" clip-rule="evenodd" d="M6.53381 5.97052C6.31335 5.89738 6.0776 5.87917 5.84855 5.91776C5.61957 5.95641 5.40344 6.05091 5.21919 6.19224C5.05801 6.31589 4.92575 6.47276 4.8304 6.65138L4.78706 6.73806C4.64702 7.02884 4.59852 7.35569 4.64825 7.67456C4.69188 7.9537 4.80938 8.2159 4.98679 8.43394L5.06656 8.52438L5.07096 8.52941L7.99917 11.7013L10.9261 8.52878L10.9311 8.52376C11.1534 8.28966 11.299 7.99345 11.3488 7.67456C11.3986 7.35571 11.3502 7.02876 11.21 6.73806L11.2063 6.7299C11.1096 6.51892 10.9627 6.3341 10.7785 6.19287C10.5943 6.05172 10.378 5.95759 10.1492 5.91902C9.92024 5.88051 9.68484 5.89865 9.46453 5.97178C9.24429 6.04492 9.0452 6.17089 8.88479 6.33859L8.88353 6.33985L8.34713 6.89634C8.25623 6.99073 8.13084 7.04455 7.99979 7.04458C7.86891 7.04452 7.74332 6.99118 7.65245 6.89697L7.11543 6.33985L7.11417 6.33796C6.95368 6.17011 6.75421 6.04372 6.53381 5.97052ZM8.39299 7.46792C8.16016 7.33867 7.86663 7.42232 7.73725 7.65509L7.09847 8.80514C7.01558 8.95447 7.01756 9.13653 7.10412 9.28376C7.19077 9.43102 7.34907 9.52174 7.51992 9.52181H7.65811L7.41754 9.95457C7.28829 10.1874 7.37256 10.4816 7.60535 10.6109C7.83819 10.7402 8.13172 10.6559 8.26108 10.4231L8.89986 9.27308C8.98268 9.12371 8.98022 8.94166 8.89358 8.79447C8.80688 8.64726 8.64863 8.55704 8.47778 8.55704H8.3396L8.58016 8.12365C8.70954 7.8908 8.62581 7.59733 8.39299 7.46792Z" fill="#FAFAFA"/>
</svg>
