<svg width="16" height="16" viewBox="0 0 16 16" fill="none" xmlns="http://www.w3.org/2000/svg">
<path d="M7.1933 2.01021C7.96724 2.06191 8.71593 2.30858 9.36973 2.72766C10.0235 3.14676 10.5617 3.72483 10.9342 4.408C11.3066 5.09116 11.5012 5.85768 11.5006 6.63651C11.5022 7.5195 11.252 8.38445 10.7799 9.12935L10.6894 9.26737C10.2233 9.94775 9.58337 10.4912 8.83587 10.8403L8.68548 10.9073C7.97838 11.2072 7.20787 11.3249 6.44395 11.2498L6.28054 11.2309C5.40898 11.1136 4.58873 10.7483 3.91725 10.1782C3.39783 9.73949 2.98211 9.19188 2.6985 8.57531L2.58522 8.30709C2.33989 7.67154 2.23776 6.99057 2.28444 6.31295L2.31374 6.02323C2.40305 5.34756 2.63903 4.7009 3.00449 4.12935L3.16921 3.88912C3.57113 3.33992 4.08809 2.88751 4.68223 2.56295L4.94134 2.43209C5.64469 2.10359 6.4193 1.95853 7.1933 2.01021ZM7.12624 3.00761C6.52091 2.96724 5.91495 3.08064 5.36452 3.33768C4.81396 3.59482 4.336 3.98746 3.97585 4.47961C3.61567 4.97181 3.38475 5.5479 3.30462 6.15409C3.2245 6.76029 3.29815 7.37711 3.51817 7.94706C3.71064 8.44562 4.00989 8.89406 4.39317 9.26151L4.56244 9.41451L4.56439 9.41581L4.76686 9.57597C5.25133 9.93109 5.81756 10.1597 6.414 10.24C7.09541 10.3317 7.78894 10.2259 8.4127 9.93469C9.03658 9.64331 9.5653 9.17817 9.93548 8.5942C10.3057 8.01017 10.5018 7.33145 10.5006 6.63847V6.63586L10.4941 6.4067C10.4611 5.87459 10.3116 5.35545 10.0559 4.88651C9.76372 4.35059 9.34201 3.89766 8.83001 3.56946C8.318 3.24126 7.73173 3.04803 7.12624 3.00761Z" fill="#FAFAFA"/>
<path d="M7.99928 6.55856C7.99761 6.71602 7.96489 6.87135 7.90323 7.01444C7.84158 7.15754 7.75238 7.2852 7.64143 7.38912C7.4589 7.55256 7.22718 7.64024 6.98887 7.63604C6.85716 7.63608 6.72676 7.60806 6.60533 7.55364C6.4839 7.49922 6.37389 7.41949 6.28174 7.31914C6.18959 7.21878 6.11715 7.09981 6.06869 6.9692C6.02023 6.83859 5.99671 6.69898 5.99951 6.55856C6.03446 6.30236 6.15474 6.06815 6.33835 5.89878C6.52196 5.7294 6.75662 5.63619 6.9994 5.63619C7.24217 5.63619 7.47683 5.7294 7.66044 5.89878C7.84405 6.06815 7.96433 6.30236 7.99928 6.55856Z" fill="#FAFAFA"/>
<path d="M8.90157 10.1334L8.99402 10.1419C9.08465 10.1589 9.16975 10.2007 9.23881 10.2636C9.48807 10.4906 9.68065 10.7837 9.81043 11.1093C9.94033 11.4354 10.0067 11.7928 10.007 12.1516V13.9999C10.007 14.2761 9.78314 14.4999 9.50704 14.4999H4.25574C3.9796 14.4999 3.75574 14.2761 3.75574 13.9999V12.1523C3.75575 11.7924 3.82208 11.4341 3.953 11.1074C4.08383 10.7809 4.27892 10.4878 4.53048 10.2617L4.60405 10.207C4.68202 10.1594 4.77193 10.1334 4.86446 10.1334L6.96533 10.5382L8.90157 10.1334Z" fill="#FAFAFA"/>
<path d="M12.7179 8.50711C12.985 8.50711 13.2413 8.61378 13.4302 8.80333C13.619 8.99299 13.7251 9.25062 13.7251 9.51883C13.7251 9.78698 13.619 10.044 13.4302 10.2337C13.2789 10.3856 13.0842 10.483 12.8755 10.5162C12.6819 10.9215 12.3796 11.4221 11.9321 11.7988C11.4292 12.222 10.8133 12.3866 10.3599 12.4524C10.1284 12.486 9.92567 12.496 9.77978 12.4973C9.70657 12.498 9.64612 12.4964 9.60334 12.4947C9.58225 12.4939 9.56511 12.4929 9.55256 12.4921C9.54634 12.4918 9.5409 12.4918 9.53694 12.4915C9.535 12.4913 9.5331 12.491 9.53173 12.4908H9.52912C9.52912 12.4908 9.52858 12.4905 9.56884 11.9921L9.60855 11.4941C9.60855 11.4941 9.61154 11.494 9.61376 11.4941C9.6197 11.4944 9.62999 11.4948 9.64371 11.4954C9.67174 11.4965 9.71494 11.4978 9.77001 11.4973C9.88127 11.4963 10.0386 11.4887 10.2166 11.4628C10.583 11.4096 10.9881 11.2864 11.2882 11.0338C11.5639 10.8018 11.7786 10.4735 11.9373 10.1568C11.7918 9.97733 11.7108 9.75239 11.7108 9.51883C11.7108 9.25062 11.8168 8.99299 12.0057 8.80333C12.1945 8.61373 12.4509 8.50715 12.7179 8.50711Z" fill="#FAFAFA"/>
</svg>
