<svg width="16" height="16" viewBox="0 0 16 16" fill="none" xmlns="http://www.w3.org/2000/svg">
<rect x="2" y="2" width="12" height="12" rx="2" fill="#FAFAFA"/>
<path d="M12.6667 13V14H3.33333V13H12.6667ZM13 12.6667V3.33333C13 3.14924 12.8508 3 12.6667 3H3.33333C3.14924 3 3 3.14924 3 3.33333V12.6667C3 12.8508 3.14924 13 3.33333 13V14L3.19727 13.9928C2.52482 13.9247 2 13.3571 2 12.6667V3.33333C2 2.59695 2.59695 2 3.33333 2H12.6667C13.403 2 14 2.59695 14 3.33333V12.6667C14 13.403 13.403 14 12.6667 14V13C12.8508 13 13 12.8508 13 12.6667Z" fill="#FAFAFA"/>
<path d="M8.0003 4.67188C8.27644 4.67188 8.5003 4.89573 8.5003 5.17188V7.5003H10.8287C11.1049 7.5003 11.3287 7.72416 11.3287 8.0003C11.3287 8.27644 11.1049 8.5003 10.8287 8.5003H8.5003V10.8287C8.5003 11.1049 8.27644 11.3287 8.0003 11.3287C7.72416 11.3287 7.5003 11.1049 7.5003 10.8287V8.5003H5.17188C4.89573 8.5003 4.67188 8.27644 4.67188 8.0003C4.67188 7.72416 4.89573 7.5003 5.17188 7.5003H7.5003V5.17188C7.5003 4.89573 7.72416 4.67188 8.0003 4.67188Z" fill="black"/>
</svg>
