<svg width="16" height="16" viewBox="0 0 16 16" fill="none" xmlns="http://www.w3.org/2000/svg">
<path d="M2.35463 4.17244C2.16026 3.97685 1.84359 3.9758 1.6476 4.16984C1.45181 4.36419 1.45089 4.68082 1.645 4.87687L6.34031 9.61385C6.4342 9.70858 6.5624 9.76229 6.69578 9.76229H13.4998V13.4993H7.29148L7.05776 13.4934C5.89319 13.435 4.78709 12.943 3.9575 12.106L2.35463 10.4895L2.31687 10.455C2.12124 10.2942 1.83139 10.3042 1.6476 10.4862C1.45167 10.6806 1.4508 10.9972 1.645 11.1933L3.24786 12.8092L3.24721 12.8098C4.25197 13.8235 5.59342 14.4218 7.00763 14.4928L7.29148 14.4993H13.9998C14.276 14.4993 14.4998 14.2754 14.4998 13.9993V9.26229L14.4972 9.21086C14.4714 8.95899 14.2585 8.76229 13.9998 8.76229H11.8338V7.55916C11.8337 7.42232 11.7774 7.29083 11.6782 7.19653C11.5914 7.11416 11.4782 7.066 11.3598 7.05981H11.3104L11.3117 7.05916H11.2895C11.2679 7.05842 11.2366 7.05634 11.2016 7.0507C11.1203 7.03755 11.0712 7.01417 11.0532 6.99927C10.9095 6.88021 10.8101 6.71367 10.7733 6.52791L10.4614 4.95369L10.4367 4.86906C10.3629 4.68025 10.1791 4.55135 9.97052 4.55135H9.68862L9.50958 4.55916C9.09546 4.59551 8.7002 4.75699 8.37742 5.02401C8.05484 5.29098 7.8219 5.6493 7.70619 6.0494L7.66388 6.22323L7.66192 6.23169L7.20489 8.76229H6.90411L2.35463 4.17244Z" fill="#FAFAFA"/>
<path d="M9.33315 1.55396C8.59677 1.55396 7.99981 2.15091 7.99981 2.88729C7.99981 3.62367 8.59677 4.22062 9.33315 4.22062C10.0695 4.22062 10.6665 3.62367 10.6665 2.88729C10.6665 2.15091 10.0695 1.55396 9.33315 1.55396Z" fill="#FAFAFA"/>
</svg>
