<svg width="16" height="16" viewBox="0 0 16 16" fill="none" xmlns="http://www.w3.org/2000/svg">
<path fill-rule="evenodd" clip-rule="evenodd" d="M12.834 1.83325C13.5704 1.83325 14.1673 2.43021 14.1673 3.16659V12.8333C14.1673 13.5696 13.5704 14.1666 12.834 14.1666H3.16732C2.43094 14.1666 1.83398 13.5696 1.83398 12.8333V3.16659C1.83398 2.43021 2.43094 1.83325 3.16732 1.83325H12.834ZM7.37435 4.16659C7.29779 4.16658 7.21034 4.16628 7.13477 4.17244C7.07368 4.17744 6.99602 4.18773 6.91276 4.21737L6.82812 4.25382C6.71477 4.31158 6.61709 4.39537 6.54297 4.49731L6.47721 4.60474C6.41887 4.71924 6.40185 4.82995 6.39518 4.91138C6.389 4.98699 6.38932 5.07501 6.38932 5.15161V6.38859H5.15234C5.07574 6.38859 4.98772 6.38827 4.91211 6.39445C4.85109 6.39945 4.77386 6.41045 4.69076 6.44002L4.60547 6.47648C4.49233 6.53419 4.395 6.61758 4.32096 6.71932L4.25456 6.82739C4.19623 6.94196 4.17983 7.05263 4.17318 7.13403C4.16701 7.20961 4.16732 7.29706 4.16732 7.37362V8.62622C4.16732 8.70278 4.16701 8.79023 4.17318 8.8658C4.17983 8.9472 4.19623 9.05788 4.25456 9.17244C4.33149 9.32344 4.45451 9.44636 4.60547 9.52336C4.71997 9.5817 4.83069 9.59872 4.91211 9.60539C4.98772 9.61156 5.07574 9.61125 5.15234 9.61125H6.38932V10.8482C6.38932 10.9248 6.389 11.0128 6.39518 11.0885C6.40185 11.1699 6.41887 11.2806 6.47721 11.3951C6.55421 11.5461 6.67713 11.6691 6.82812 11.746C6.94269 11.8043 7.05336 11.8207 7.13477 11.8274C7.21034 11.8336 7.29779 11.8333 7.37435 11.8333H8.62695C8.70351 11.8333 8.79096 11.8336 8.86654 11.8274C8.94794 11.8207 9.05861 11.8043 9.17318 11.746C9.32417 11.6691 9.44709 11.5461 9.52409 11.3951C9.58243 11.2806 9.59945 11.1699 9.60612 11.0885C9.6123 11.0128 9.61198 10.9248 9.61198 10.8482V9.61125H10.849C10.9256 9.61125 11.0136 9.61156 11.0892 9.60539C11.1706 9.59872 11.2813 9.5817 11.3958 9.52336C11.5468 9.44636 11.6698 9.32344 11.7467 9.17244C11.8051 9.05788 11.8215 8.9472 11.8281 8.8658C11.8343 8.79023 11.834 8.70278 11.834 8.62622V7.37362C11.834 7.29706 11.8343 7.20961 11.8281 7.13403C11.8231 7.07295 11.8128 6.99529 11.7832 6.91203L11.7467 6.82739L11.6803 6.71932C11.6309 6.65142 11.5712 6.59162 11.5033 6.54224L11.3958 6.47648L11.3105 6.44002C11.2274 6.41045 11.1502 6.39945 11.0892 6.39445C11.0136 6.38827 10.9256 6.38859 10.849 6.38859H9.61198V5.15161C9.61198 5.07501 9.6123 4.98699 9.60612 4.91138C9.60112 4.85035 9.59012 4.77313 9.56055 4.69002L9.52409 4.60474L9.45833 4.49731C9.40895 4.42939 9.34915 4.36964 9.28125 4.32023L9.17318 4.25382L9.08854 4.21737C9.00528 4.18773 8.92762 4.17744 8.86654 4.17244C8.79096 4.16628 8.70351 4.16658 8.62695 4.16659H7.37435Z" fill="#FAFAFA"/>
</svg>
