<svg width="16" height="16" viewBox="0 0 16 16" fill="none" xmlns="http://www.w3.org/2000/svg">
<path fill-rule="evenodd" clip-rule="evenodd" d="M7.25505 6.86592C7.61531 5.54973 7.97727 4.22639 8.27256 2.89228C8.33709 2.60086 8.26696 2.24397 7.92494 2.11732C7.86605 2.09551 7.79928 2.07414 7.72365 2.05394C7.64802 2.03375 7.57951 2.01898 7.51755 2.00852C7.15781 1.94778 6.91805 2.22192 6.82769 2.50644C6.41253 3.81405 6.06094 5.14579 5.71125 6.47034L5.7062 6.48942C5.72537 6.48913 5.74457 6.489 5.76382 6.489C6.3305 6.489 6.82981 6.62841 7.25505 6.86592ZM8.71131 8.86089C8.71131 8.56978 8.94809 8.33381 9.24018 8.33381H11.8845C12.1766 8.33381 12.4134 8.56978 12.4134 8.86089C12.4134 9.152 12.1766 9.38798 11.8845 9.38798H9.24018C8.94809 9.38798 8.71131 9.152 8.71131 8.86089ZM10.0335 10.4422C9.74139 10.4422 9.50462 10.6781 9.50462 10.9692C9.50462 11.2604 9.74139 11.4963 10.0335 11.4963H12.6778C12.9699 11.4963 13.2067 11.2604 13.2067 10.9692C13.2067 10.6781 12.9699 10.4422 12.6778 10.4422H10.0335ZM10.8268 12.5505C10.5347 12.5505 10.2979 12.7865 10.2979 13.0776C10.2979 13.3687 10.5347 13.6047 10.8268 13.6047H13.4711C13.7632 13.6047 14 13.3687 14 13.0776C14 12.7865 13.7632 12.5505 13.4711 12.5505H10.8268ZM5.76393 7.14786C4.16555 7.14786 2.95024 8.34079 2.55933 9.80111C2.3251 10.6762 2.09283 11.7085 2.00511 12.627C1.94615 13.2443 2.40488 13.7533 2.99294 13.8218C3.26856 13.8539 3.61375 13.89 4.00003 13.9213C3.54926 12.9548 3.51948 11.9298 3.57645 11.4499C3.60219 11.2331 3.79941 11.0781 4.01696 11.1038C4.23452 11.1295 4.39001 11.326 4.36425 11.5428C4.31025 11.9977 4.36314 13.0999 4.93646 13.9802C5.21946 13.9926 5.51084 14 5.80256 14C6.09347 14 6.39849 13.9926 6.70476 13.9803C6.40362 13.5514 6.22307 13.086 6.11401 12.6875C6.0245 12.3604 5.97992 12.0669 5.95757 11.8546C5.94636 11.7482 5.94068 11.6613 5.93777 11.5998C5.93631 11.5691 5.93557 11.5446 5.93518 11.5271C5.93499 11.5184 5.93489 11.5114 5.93481 11.5062L5.93475 11.4999V11.4966C5.93475 11.2783 6.11266 11.101 6.33172 11.101C6.55044 11.101 6.72806 11.2777 6.72806 11.4957L6.72808 11.4976L6.72824 11.5075L6.72827 11.5094C6.72853 11.5207 6.72906 11.5387 6.7302 11.5627C6.73247 11.6107 6.7371 11.6823 6.74654 11.7722C6.76553 11.9524 6.80358 12.2025 6.87934 12.4794C7.01505 12.9754 7.26192 13.5226 7.70326 13.9253C7.92758 13.9099 8.14431 13.8933 8.34769 13.8765C9.28395 13.7993 9.65696 12.6776 9.00388 12.0388L8.71142 11.7527C8.42451 11.4721 8.26683 11.0857 8.27574 10.6851L8.29078 10.0079C8.32289 8.56325 7.34244 7.14786 5.76393 7.14786Z" fill="#FAFAFA"/>
</svg>
