<svg width="16" height="16" viewBox="0 0 16 16" fill="none" xmlns="http://www.w3.org/2000/svg">
<path d="M9.83457 8.41652V8.54152C9.83457 8.90617 9.6894 9.25567 9.43158 9.51353C9.17371 9.77139 8.82424 9.91652 8.45957 9.91652H8.33457V9.79152C8.33462 9.42692 8.47975 9.07734 8.73757 8.81952C8.99541 8.56171 9.34495 8.41654 9.70957 8.41652H9.83457Z" fill="#FAFAFA"/>
<path d="M5.95957 7.16652L6.09564 7.17303C6.4103 7.20431 6.706 7.344 6.93158 7.56952C7.18939 7.82734 7.33452 8.17692 7.33457 8.54152V8.66652H7.20957C6.84492 8.6665 6.49541 8.52137 6.23757 8.26353C5.97978 8.00568 5.83457 7.65614 5.83457 7.29152V7.16652H5.95957Z" fill="#FAFAFA"/>
<path fill-rule="evenodd" clip-rule="evenodd" d="M7.55462 1.18866C7.73835 1.14154 7.93079 1.14154 8.11452 1.18866C8.32609 1.24292 8.50931 1.3756 8.68092 1.50051C8.69556 1.51116 8.71006 1.52193 8.72454 1.53241L14.2975 5.56496C14.5164 5.72344 14.5668 6.03112 14.4101 6.25246C14.2533 6.47381 13.9488 6.52479 13.7298 6.36639L13.0377 5.86639V11.2433C13.0377 11.5943 13.0381 11.8874 13.0188 12.1268C12.9986 12.3765 12.9548 12.6115 12.843 12.8332C12.6715 13.1732 12.3976 13.4496 12.0611 13.6229C11.8418 13.7358 11.6096 13.7802 11.3626 13.8006C11.1258 13.8202 10.836 13.8202 10.4889 13.8202H5.18093C4.83362 13.8202 4.54343 13.8202 4.30658 13.8006C4.05951 13.7802 3.82735 13.7358 3.60801 13.6229C3.27151 13.4496 2.99759 13.1732 2.82611 12.8332C2.71434 12.6115 2.67116 12.3765 2.65098 12.1268C2.63164 11.8874 2.63144 11.5943 2.63145 11.2433V5.86639L1.94004 6.36639C1.72098 6.52489 1.41588 6.47385 1.25905 6.25246C1.10242 6.03114 1.15283 5.72345 1.37168 5.56496L6.9446 1.53241C6.9591 1.52192 6.97421 1.51117 6.98887 1.50051C7.16039 1.37567 7.34319 1.2429 7.55462 1.18866ZM5.40098 6.16652C5.08832 6.1667 4.83481 6.42028 4.83457 6.73293V7.29152C4.83457 7.92135 5.08456 8.52582 5.52988 8.97121C5.97527 9.41659 6.57971 9.6665 7.20957 9.66652H7.33783C7.33564 9.70799 7.33457 9.74979 7.33457 9.79152V12.8338H8.33457V10.9165H8.45957C9.08946 10.9165 9.69386 10.6666 10.1393 10.2212C10.5568 9.80367 10.8028 9.24632 10.832 8.65936L10.8346 8.54152V7.98293C10.8343 7.67026 10.5809 7.41666 10.2682 7.41652H9.70957C9.17813 7.41654 8.66489 7.59471 8.24994 7.91782C8.14226 7.52212 7.93426 7.15683 7.63926 6.86184C7.19387 6.41652 6.5894 6.16652 5.95957 6.16652H5.40098Z" fill="#FAFAFA"/>
</svg>
