<svg width="16" height="16" viewBox="0 0 16 16" fill="none" xmlns="http://www.w3.org/2000/svg">
<path d="M10.5275 1.33398C11.5078 1.33415 12.3028 2.12856 12.3028 3.10848V7.96314C12.2345 7.93283 12.1641 7.9065 12.091 7.88689L11.8823 7.83963C11.3935 7.74605 10.8884 7.77742 10.4141 7.931C9.87183 8.10666 9.39057 8.43504 9.03029 8.87811C8.8491 9.10106 8.70219 9.34842 8.59341 9.61097C8.40474 9.61752 8.21831 9.66117 8.04495 9.73952L7.91698 9.80506C7.66537 9.95039 7.46662 10.1657 7.3414 10.4188L7.30547 10.502L7.27143 10.5909L7.23991 10.6866C7.09212 11.2385 7.10845 11.8211 7.28404 12.3628C7.45979 12.9047 7.7884 13.3853 8.23155 13.7454C8.45461 13.9265 8.70204 14.0733 8.96473 14.1821C8.96539 14.2012 8.96708 14.2203 8.96851 14.2394H3.75181C2.77137 14.2394 1.97656 13.4449 1.97656 12.4649V3.10848C1.97656 2.12845 2.77137 1.33398 3.75181 1.33398H10.5275ZM3.91635 10.0451C3.6491 10.0453 3.43219 10.2619 3.43219 10.5291V11.8196C3.43227 12.0868 3.64915 12.3034 3.91635 12.3036C4.1837 12.3036 4.40044 12.0869 4.40051 11.8196V10.5291C4.40051 10.2618 4.18375 10.0451 3.91635 10.0451ZM5.88703 10.0451C5.61977 10.0453 5.40288 10.2619 5.40287 10.5291V11.8196C5.40295 12.0868 5.61981 12.3034 5.88703 12.3036C6.15438 12.3036 6.37112 12.0869 6.37119 11.8196V10.5291C6.37119 10.2618 6.15443 10.0451 5.88703 10.0451ZM3.91635 6.49678C3.64915 6.49695 3.43227 6.71363 3.43219 6.98074C3.43219 7.24791 3.6491 7.46452 3.91635 7.46469H10.3718C10.6392 7.46469 10.856 7.24802 10.856 6.98074C10.8559 6.71352 10.6392 6.49678 10.3718 6.49678H3.91635ZM4.04559 3.03475C3.70707 3.03492 3.43226 3.30949 3.43219 3.64789V5.41167C3.43235 5.74999 3.70713 6.02463 4.04559 6.0248H10.2426C10.5812 6.0248 10.8558 5.75009 10.856 5.41167V3.64789C10.8559 3.30939 10.5812 3.03475 10.2426 3.03475H4.04559ZM5.57813 5.0569H4.40051V4.00266H5.57813V5.0569ZM7.72848 5.0569H6.54645V4.00266H7.72848V5.0569ZM9.88766 5.0569H8.6968V4.00266H9.88766V5.0569Z" fill="#FAFAFA"/>
<path d="M10.7122 8.85164C11.0774 8.73337 11.4693 8.72275 11.8401 8.82202C11.964 8.85526 12.0696 8.93657 12.1338 9.04762C12.198 9.15875 12.2156 9.29103 12.1824 9.41499L12.0298 9.98339C12.1022 9.98322 12.1749 9.98631 12.2473 9.9941C12.6289 10.0352 12.9908 10.1857 13.2887 10.4276C13.5866 10.6696 13.8078 10.9928 13.9261 11.3577C14.0444 11.7228 14.0551 12.1144 13.9557 12.4851C13.9225 12.6089 13.8411 12.7146 13.73 12.7787C13.6189 12.8429 13.4865 12.8604 13.3625 12.8272L12.7932 12.6748C12.7934 12.7471 12.7909 12.8198 12.7832 12.8922C12.7421 13.2736 12.5915 13.6354 12.3494 13.9332C12.1074 14.2309 11.784 14.452 11.4189 14.5702C11.0538 14.6885 10.6619 14.6991 10.2911 14.5999C10.1672 14.5666 10.0615 14.4853 9.99735 14.3743C9.93317 14.2631 9.91562 14.1308 9.94881 14.0069L10.1007 13.4379C10.0286 13.438 9.95607 13.4355 9.88388 13.4278C9.50225 13.3867 9.14033 13.2362 8.84243 12.9942C8.5446 12.7523 8.3234 12.4291 8.20508 12.0641C8.08676 11.6991 8.07614 11.3074 8.17545 10.9368L8.20949 10.8479C8.25151 10.763 8.31782 10.6913 8.40114 10.6432C8.5123 10.579 8.64468 10.5615 8.76867 10.5946L9.33731 10.7465C9.33716 10.6744 9.34025 10.6019 9.34802 10.5297C9.38912 10.1483 9.53972 9.7865 9.78175 9.48872C10.0238 9.19102 10.3472 8.96992 10.7122 8.85164ZM11.0659 10.9047C10.6202 10.9047 10.259 11.2658 10.259 11.7113C10.2591 12.1566 10.6203 12.5178 11.0659 12.5178C11.5113 12.5177 11.8727 12.1565 11.8728 11.7113C11.8728 11.2659 11.5114 10.9048 11.0659 10.9047Z" fill="#FAFAFA"/>
</svg>
