<svg width="16" height="16" viewBox="0 0 16 16" fill="none" xmlns="http://www.w3.org/2000/svg">
<path d="M8 0.931641C8.96394 0.931765 9.67842 1.3485 10.2845 1.90625C10.5825 2.18051 10.8608 2.49512 11.1315 2.8138C11.4087 3.14011 11.672 3.46334 11.9668 3.79492L12.2617 4.12695L11.9668 4.45898C11.672 4.79068 11.4088 5.11368 11.1315 5.4401C10.8607 5.7589 10.5826 6.07332 10.2845 6.34766C9.67842 6.90541 8.96395 7.32149 8 7.32161C7.03604 7.32161 6.32159 6.90532 5.7155 6.34766C5.41747 6.0734 5.13863 5.75882 4.86784 5.4401C4.59066 5.11386 4.32787 4.7905 4.0332 4.45898L3.73698 4.12695L4.0332 3.79492C4.32801 3.46326 4.59055 3.14018 4.86784 2.8138C5.13872 2.49497 5.41736 2.18061 5.7155 1.90625C6.32164 1.34848 7.03591 0.931641 8 0.931641ZM7.99935 2.72852C7.62855 2.72852 7.27263 2.87585 7.01042 3.13802C6.74823 3.4002 6.60095 3.75617 6.60091 4.12695C6.60096 4.49762 6.74838 4.85308 7.01042 5.11523C7.27264 5.37746 7.62851 5.52474 7.99935 5.52474C8.37012 5.52469 8.72545 5.37741 8.98763 5.11523C9.24976 4.85307 9.39709 4.49769 9.39714 4.12695C9.39709 3.75617 9.24981 3.4002 8.98763 3.13802C8.72547 2.87598 8.37002 2.72857 7.99935 2.72852Z" fill="#FAFAFA"/>
<path d="M7.33268 11.8719C7.33283 11.5038 7.63125 11.2052 7.99935 11.2052C8.36745 11.2052 8.66587 11.5038 8.66602 11.8719V11.8784C8.66602 12.2466 8.36754 12.5451 7.99935 12.5451C7.63116 12.5451 7.33268 12.2466 7.33268 11.8784V11.8719Z" fill="#FAFAFA"/>
<path d="M10.2223 10.0556C10.2225 9.68753 10.5209 9.38893 10.889 9.38893C11.2571 9.38893 11.5555 9.68753 11.5557 10.0556V10.0621C11.5557 10.4303 11.2572 10.7288 10.889 10.7288C10.5208 10.7288 10.2223 10.4303 10.2223 10.0621V10.0556Z" fill="#FAFAFA"/>
<path d="M4.44303 10.0556C4.44318 9.68753 4.7416 9.38893 5.1097 9.38893C5.4778 9.38893 5.77622 9.68753 5.77637 10.0556V10.0621C5.77637 10.4303 5.47789 10.7288 5.1097 10.7288C4.74151 10.7288 4.44303 10.4303 4.44303 10.0621V10.0556Z" fill="#FAFAFA"/>
<path d="M1.55273 8.23902C1.55288 7.87096 1.8513 7.57235 2.2194 7.57235C2.5875 7.57235 2.88592 7.87096 2.88607 8.23902V8.24553C2.88607 8.61372 2.58759 8.9122 2.2194 8.9122C1.85121 8.9122 1.55273 8.61372 1.55273 8.24553L1.55273 8.23902Z" fill="#FAFAFA"/>
<path d="M7.33268 8.91499C7.33283 8.54693 7.63125 8.24832 7.99935 8.24832C8.36745 8.24832 8.66587 8.54693 8.66602 8.91499V8.9215C8.66602 9.28969 8.36754 9.58817 7.99935 9.58817C7.63116 9.58817 7.33268 9.28969 7.33268 8.9215V8.91499Z" fill="#FAFAFA"/>
<path d="M13.1126 8.23902C13.1128 7.87096 13.4112 7.57235 13.7793 7.57235C14.1474 7.57235 14.4458 7.87096 14.446 8.23902V8.24553C14.446 8.61372 14.1475 8.9122 13.7793 8.9122C13.4111 8.9122 13.1126 8.61372 13.1126 8.24553V8.23902Z" fill="#FAFAFA"/>
<path d="M10.166 13.568C10.4422 13.568 10.666 13.7919 10.666 14.068C10.666 14.3442 10.4422 14.568 10.166 14.568H5.83268C5.55654 14.568 5.33268 14.3442 5.33268 14.068C5.33268 13.7919 5.55654 13.568 5.83268 13.568H10.166Z" fill="#FAFAFA"/>
</svg>
