<svg width="16" height="16" viewBox="0 0 16 16" fill="none" xmlns="http://www.w3.org/2000/svg">
<path d="M12 12V13H4V12H12ZM13 11V5C13 4.44772 12.5523 4 12 4H4C3.44772 4 3 4.44772 3 5V11C3 11.5523 3.44772 12 4 12V13L3.89714 12.9974C2.87444 12.9456 2.05442 12.1256 2.0026 11.1029L2 11V5C2 3.92993 2.84037 3.05614 3.89714 3.0026L4 3H12L12.1029 3.0026C13.1596 3.05614 14 3.92993 14 5V11L13.9974 11.1029C13.9456 12.1256 13.1256 12.9456 12.1029 12.9974L12 13V12C12.5523 12 13 11.5523 13 11Z" fill="#FAFAFA"/>
<path d="M3.66667 5.33333C3.66667 4.96514 3.96514 4.66667 4.33333 4.66667H5.66667C6.03486 4.66667 6.33333 4.96514 6.33333 5.33333V10.6667C6.33333 11.0349 6.03486 11.3333 5.66667 11.3333H4.33333C3.96514 11.3333 3.66667 11.0349 3.66667 10.6667V5.33333Z" fill="#FAFAFA"/>
</svg>
