<svg width="16" height="16" viewBox="0 0 16 16" fill="none" xmlns="http://www.w3.org/2000/svg">
<path d="M4.18818 10.1879C3.9802 10.2566 3.80173 10.3253 3.66602 10.3812V14.1668C3.66602 14.443 3.44216 14.6668 3.16602 14.6668C2.88987 14.6668 2.66602 14.443 2.66602 14.1668V2.93292C2.66602 2.49284 2.91803 2.06619 3.35928 1.88937C3.88384 1.67916 4.89607 1.3335 5.92792 1.3335C6.7337 1.3335 7.51648 1.72139 8.16909 2.04478L8.22119 2.07059C8.9423 2.42761 9.52318 2.70387 10.0708 2.70387C10.6306 2.70387 11.2092 2.57493 11.6842 2.42703C12.4314 2.1944 13.3327 2.71312 13.3327 3.59161V9.64148C13.3327 10.0816 13.0807 10.5082 12.6394 10.685C12.1149 10.8952 11.1026 11.2409 10.0708 11.2409C9.265 11.2409 8.48222 10.853 7.8296 10.5296L7.7775 10.5038C7.05639 10.1468 6.47552 9.87053 5.92792 9.87053C5.31562 9.87053 4.68231 10.0247 4.18818 10.1879Z" fill="#FAFAFA"/>
</svg>
