<svg width="16" height="16" viewBox="0 0 16 16" fill="none" xmlns="http://www.w3.org/2000/svg">
<path d="M5.24294 14.125H3.17588C3.00494 14.125 2.83602 14.086 2.68239 14.0111C2.52879 13.9361 2.39434 13.8268 2.28917 13.6921C2.184 13.5573 2.11038 13.4003 2.07497 13.2331C2.03957 13.0658 2.04319 12.8924 2.08474 12.7266L2.39138 11.5H5.63617L5.24294 14.125Z" fill="#FAFAFA"/>
<path d="M9.77745 14.125H6.25466L6.64854 11.5H9.51508L9.77745 14.125Z" fill="#FAFAFA"/>
<path d="M13.9174 12.7266C13.959 12.8924 13.9619 13.0658 13.9265 13.2331C13.8911 13.4003 13.8181 13.5573 13.713 13.6921C13.6078 13.8268 13.4728 13.9361 13.3191 14.0111C13.2039 14.0673 13.08 14.1034 12.9532 14.1178L12.8256 14.125H10.782L10.5196 11.5H13.6108L13.9174 12.7266Z" fill="#FAFAFA"/>
<path d="M5.78656 10.5H2.64138L3.02224 8.97656C3.08318 8.73337 3.2237 8.51755 3.42133 8.36328C3.619 8.20902 3.86264 8.12504 4.11338 8.125H6.14268L5.78656 10.5Z" fill="#FAFAFA"/>
<path d="M9.41482 10.5H6.79828L7.1544 8.125H9.17784L9.41482 10.5Z" fill="#FAFAFA"/>
<path d="M11.9819 8.12891C12.1992 8.14704 12.4072 8.22834 12.5802 8.36328C12.7779 8.51757 12.919 8.7333 12.9799 8.97656L13.3608 10.5H10.42L10.1824 8.125H11.8881L11.9819 8.12891Z" fill="#FAFAFA"/>
<path d="M8.00075 5.625C8.2769 5.625 8.50075 5.84886 8.50075 6.125V6.75C8.50075 7.02614 8.2769 7.25 8.00075 7.25C7.72466 7.24994 7.50075 7.02611 7.50075 6.75V6.125C7.50075 5.84889 7.72466 5.62506 8.00075 5.625Z" fill="#FAFAFA"/>
<path d="M10.8972 4.64648C11.0925 4.45124 11.409 4.45128 11.6043 4.64648L12.0463 5.08854C12.2414 5.28382 12.2415 5.60037 12.0463 5.79557C11.8511 5.99072 11.5346 5.99063 11.3393 5.79557L10.8972 5.35352C10.702 5.15827 10.702 4.84173 10.8972 4.64648Z" fill="#FAFAFA"/>
<path d="M4.39724 4.64648C4.59248 4.45124 4.909 4.45128 5.10427 4.64648C5.29953 4.84175 5.29953 5.15825 5.10427 5.35352L4.66677 5.79102C4.4715 5.98622 4.15498 5.98626 3.95974 5.79102C3.76455 5.59577 3.76455 5.27923 3.95974 5.08398L4.39724 4.64648Z" fill="#FAFAFA"/>
<path d="M10.5008 1.25C10.7769 1.25 11.0008 1.47386 11.0008 1.75C11.0008 2.54565 10.6845 3.30848 10.1218 3.87109C9.55924 4.43367 8.79638 4.75 8.00075 4.75C7.20514 4.74997 6.44224 4.43368 5.87966 3.87109C5.31709 3.30849 5.00075 2.54562 5.00075 1.75C5.00075 1.47389 5.22466 1.25006 5.50075 1.25H10.5008Z" fill="#FAFAFA"/>
<path d="M3.62575 1.875C3.9019 1.875 4.12575 2.09886 4.12575 2.375C4.12575 2.65114 3.9019 2.875 3.62575 2.875H3.00075C2.72466 2.87494 2.50075 2.65111 2.50075 2.375C2.50075 2.09889 2.72466 1.87506 3.00075 1.875H3.62575Z" fill="#FAFAFA"/>
<path d="M13.0008 1.875C13.2769 1.875 13.5008 2.09886 13.5008 2.375C13.5008 2.65114 13.2769 2.875 13.0008 2.875H12.3758C12.0997 2.87494 11.8758 2.65111 11.8758 2.375C11.8758 2.09889 12.0997 1.87506 12.3758 1.875H13.0008Z" fill="#FAFAFA"/>
</svg>
