<svg width="16" height="16" viewBox="0 0 16 16" fill="none" xmlns="http://www.w3.org/2000/svg">
<path d="M12.6636 12.6639L14.2711 13.0114C14.541 13.0698 14.7125 13.3359 14.6542 13.6058C14.5958 13.8757 14.3297 14.0472 14.0598 13.9889L11.2582 13.3831C11.1422 13.358 11.0221 13.358 10.906 13.3831L8.38625 13.9279C8.1309 13.9831 7.8667 13.9831 7.61136 13.9279L5.09158 13.3831C4.97551 13.358 4.85542 13.358 4.73936 13.3831L1.9378 13.9889C1.6679 14.0472 1.40179 13.8757 1.34343 13.6058C1.28507 13.3359 1.45656 13.0698 1.72647 13.0114L3.33402 12.6639C2.56048 11.4693 1.22371 9.30023 3.55855 8.73229L7.56549 7.75763C7.85021 7.68837 8.14739 7.68837 8.43211 7.75763L12.4391 8.73229C14.7739 9.30023 13.4371 11.4693 12.6636 12.6639Z" fill="#FAFAFA"/>
<path d="M5.9987 2.3335V4.00016H4.33203C3.77975 4.00016 3.33203 4.44788 3.33203 5.00016V7.75828L7.32935 6.78596C7.76938 6.67893 8.22865 6.67893 8.66867 6.78596L12.6654 7.75813V5.00016C12.6654 4.44788 12.2176 4.00016 11.6654 4.00016H9.9987V2.3335C9.9987 1.78121 9.55098 1.3335 8.9987 1.3335H6.9987C6.44641 1.3335 5.9987 1.78121 5.9987 2.3335Z" fill="#FAFAFA"/>
</svg>
