<svg width="16" height="16" viewBox="0 0 16 16" fill="none" xmlns="http://www.w3.org/2000/svg">
<path d="M12.6673 10.1668C14.048 10.1668 15.1673 11.2861 15.1673 12.6668C15.1673 14.0475 14.048 15.1668 12.6673 15.1668C11.2866 15.1668 10.1673 14.0475 10.1673 12.6668C10.1673 11.2861 11.2866 10.1668 12.6673 10.1668Z" fill="#FAFAFA"/>
<path d="M7.95703 2.8335C8.9633 2.8335 9.74989 2.83333 10.3314 2.88102C10.6237 2.905 10.8868 2.94207 11.1126 3.00602C11.338 3.06985 11.5578 3.16899 11.7337 3.33545C12.1918 3.76907 12.3945 4.40769 12.2708 5.0262C12.2234 5.26358 12.1015 5.47096 11.9544 5.65316C11.807 5.83581 11.6135 6.01879 11.3887 6.20719C10.9415 6.58186 10.2992 7.03575 9.47786 7.6167L6.76758 9.53337C5.93072 10.1253 5.32928 10.5515 4.92122 10.8934C4.71852 11.0633 4.58128 11.1984 4.49219 11.3088C4.40276 11.4195 4.38216 11.4806 4.3776 11.5034C4.32136 11.7846 4.41343 12.0752 4.62174 12.2723C4.63863 12.2883 4.69116 12.3266 4.82812 12.3654C4.96456 12.404 5.15463 12.4349 5.41797 12.4565C5.94858 12.5001 6.68583 12.5002 7.71094 12.5002H8.33398C8.61013 12.5002 8.83398 12.724 8.83398 13.0002C8.83398 13.2763 8.61013 13.5002 8.33398 13.5002H7.71094C6.70467 13.5002 5.91807 13.5003 5.33659 13.4526C5.04425 13.4287 4.7812 13.3916 4.55534 13.3276C4.32995 13.2638 4.11016 13.1647 3.93424 12.9982C3.4762 12.5646 3.27348 11.926 3.39714 11.3075C3.44461 11.0701 3.56648 10.8627 3.71354 10.6805C3.86101 10.4978 4.05446 10.3149 4.2793 10.1265C4.72646 9.75179 5.36876 9.29791 6.1901 8.71696L8.90039 6.80029C9.73725 6.20837 10.3387 5.78219 10.7467 5.44027C10.9494 5.2704 11.0867 5.13525 11.1758 5.0249C11.2652 4.91414 11.2858 4.85303 11.2904 4.83024C11.3466 4.54902 11.2545 4.25848 11.0462 4.06136C11.0293 4.04538 10.9768 4.00705 10.8398 3.96826C10.7034 3.92967 10.5133 3.89873 10.25 3.87712C9.71939 3.8336 8.98213 3.8335 7.95703 3.8335H7.66732C7.39117 3.8335 7.16732 3.60964 7.16732 3.3335C7.16732 3.05735 7.39117 2.8335 7.66732 2.8335H7.95703Z" fill="#FAFAFA"/>
<path d="M3.33398 0.833496C4.7147 0.833496 5.83398 1.95278 5.83398 3.3335C5.83398 4.71421 4.7147 5.8335 3.33398 5.8335C1.95327 5.8335 0.833984 4.71421 0.833984 3.3335C0.833984 1.95278 1.95327 0.833496 3.33398 0.833496Z" fill="#FAFAFA"/>
</svg>
