<svg width="16" height="16" viewBox="0 0 16 16" fill="none" xmlns="http://www.w3.org/2000/svg">
<path d="M7.75586 10.8701C7.83066 10.7639 7.99857 10.8165 7.99902 10.9463V12.7041C7.99902 12.7776 8.05835 12.8377 8.13184 12.8379H8.8252C8.93272 12.8383 8.99531 12.9597 8.93359 13.0479L7.375 15.2686C7.30007 15.3748 7.13288 15.3215 7.13281 15.1914V13.4336C7.13265 13.3601 7.07252 13.3008 6.99902 13.3008H6.30664C6.1988 13.3008 6.13557 13.1792 6.19727 13.0908L7.75586 10.8701Z" fill="#FAFAFA"/>
<path d="M4.07227 11.6396C4.17927 11.3852 4.47301 11.2652 4.72754 11.3721C4.98172 11.4791 5.10075 11.772 4.99414 12.0264L4.29395 13.6934C4.18698 13.9478 3.89414 14.0677 3.63965 13.9609C3.38535 13.854 3.26546 13.5611 3.37207 13.3066L4.07227 11.6396Z" fill="#FAFAFA"/>
<path d="M10.7539 11.6406C10.8604 11.3859 11.1534 11.2655 11.4082 11.3721C11.6628 11.4786 11.7832 11.7717 11.6768 12.0264L10.9795 13.6924C10.873 13.9471 10.5799 14.0683 10.3252 13.9619C10.0707 13.8554 9.95057 13.5622 10.0566 13.3076L10.7539 11.6406Z" fill="#FAFAFA"/>
<path d="M6.28125 1.33301C7.77531 1.33301 9.08803 2.10849 9.85254 3.27637C9.93327 3.39925 10.1101 3.48219 10.2939 3.45605C10.4432 3.43483 10.5955 3.4248 10.75 3.4248C12.5513 3.4248 13.9999 4.90265 14 6.71191C13.9999 8.52123 12.5513 10 10.75 10H6.28125C3.91049 10 2.00022 8.05357 2 5.66699C2 3.28023 3.91035 1.33301 6.28125 1.33301Z" fill="#FAFAFA"/>
</svg>
