<svg width="16" height="16" viewBox="0 0 16 16" fill="none" xmlns="http://www.w3.org/2000/svg">
<path d="M14.25 13.75C14.5261 13.75 14.75 13.9739 14.75 14.25C14.75 14.5261 14.5261 14.75 14.25 14.75H1.75C1.47386 14.75 1.25 14.5261 1.25 14.25C1.25 13.9739 1.47386 13.75 1.75 13.75H14.25Z" fill="#FAFAFA"/>
<path d="M4.475 11.375L3 11.125L1.75 8.62496L2.4375 8.28121C2.61197 8.19329 2.80463 8.14749 3 8.14749C3.19537 8.14749 3.38803 8.19329 3.5625 8.28121L3.66875 8.34371C3.84322 8.43162 4.03588 8.47742 4.23125 8.47742C4.42662 8.47742 4.61928 8.43162 4.79375 8.34371L5.5 7.99996L3.625 4.24996L4.1875 3.96871C4.39542 3.86642 4.62768 3.82394 4.85835 3.84602C5.08901 3.86809 5.309 3.95384 5.49375 4.09371L8.00625 5.96871C8.19164 6.10978 8.41277 6.19623 8.64468 6.21832C8.87659 6.24041 9.11006 6.19724 9.31875 6.09371L11.9375 4.80621C12.2721 4.63751 12.6577 4.59963 13.0188 4.69996L13.625 4.87496C13.7503 4.90974 13.8662 4.972 13.9644 5.05721C14.0626 5.14242 14.1405 5.24843 14.1926 5.36754C14.2447 5.48666 14.2696 5.61588 14.2654 5.74582C14.2613 5.87575 14.2283 6.00313 14.1687 6.11871L13.9313 6.59371C13.7875 6.88121 13.5562 7.11871 13.2625 7.26871L5.2375 11.25C5.00153 11.3668 4.73467 11.4062 4.475 11.3625V11.375Z" fill="#FAFAFA"/>
</svg>
