<svg width="16" height="16" viewBox="0 0 16 16" fill="none" xmlns="http://www.w3.org/2000/svg">
<path fill-rule="evenodd" clip-rule="evenodd" d="M3.43674 3.4562V6.5362V9.38819C3.43674 9.95219 3.73674 10.4482 4.18074 10.7042L2.97674 12.8682C2.94474 12.9082 2.92074 12.9522 2.90074 13.0002L2.06074 14.5122C1.93674 14.7322 2.00874 15.0122 2.22074 15.1402C2.43274 15.2682 2.70074 15.1922 2.82474 14.9722L3.57674 13.6202H12.4167L13.1727 14.9722C13.2967 15.1922 13.5647 15.2642 13.7767 15.1362C13.9887 15.0082 14.0567 14.7282 13.9367 14.5082L13.0927 13.0002C13.0727 12.9482 13.0487 12.9002 13.0127 12.8602L11.8127 10.7162C12.2727 10.4642 12.5847 9.96019 12.5847 9.38419V6.54419C12.5847 6.54419 12.5847 6.52819 12.5847 6.5202V3.4562C12.5847 2.2082 11.6127 1.2002 10.4167 1.2002H5.60474C4.40874 1.2002 3.43674 2.2122 3.43674 3.4562ZM10.9287 10.8962H5.05674C5.04874 10.9522 5.03274 11.0122 5.00074 11.0642L4.08874 12.7042H11.9047L10.9887 11.0682C10.9567 11.0162 10.9407 10.9562 10.9327 10.9002L10.9287 10.8962ZM11.7047 4.1402H4.32074V6.16019L8.01274 6.96019L11.7047 6.16019V4.1402ZM5.09274 8.7762C5.09274 8.5242 5.28874 8.3162 5.53274 8.3162H6.32474C6.56874 8.3162 6.76474 8.5202 6.76474 8.7762C6.76474 9.0322 6.56874 9.23619 6.32474 9.23619H5.53274C5.28874 9.23619 5.09274 9.0322 5.09274 8.7762ZM9.68474 8.3162C9.44074 8.3162 9.24474 8.5202 9.24474 8.7762C9.24474 9.0322 9.44074 9.23619 9.68474 9.23619H10.4767C10.7207 9.23619 10.9167 9.0322 10.9167 8.7762C10.9167 8.5202 10.7207 8.3162 10.4767 8.3162H9.68474Z" fill="#FAFAFA"/>
</svg>
