<svg width="16" height="16" viewBox="0 0 16 16" fill="none" xmlns="http://www.w3.org/2000/svg">
<path fill-rule="evenodd" clip-rule="evenodd" d="M12.7702 1.33561C13.8269 1.38915 14.6673 2.26294 14.6673 3.33301V12.6663L14.6647 12.7692C14.6129 13.7919 13.7929 14.6119 12.7702 14.6637L12.6673 14.6663H3.33398L3.23112 14.6637C2.20842 14.6119 1.3884 13.7919 1.33659 12.7692L1.33398 12.6663V3.33301C1.33398 2.26294 2.17435 1.38915 3.23112 1.33561L3.33398 1.33301H12.6673L12.7702 1.33561ZM5.32096 12.6104C6.10852 13.0691 7.02355 13.333 8.00065 13.333C8.97735 13.333 9.8917 13.0687 10.679 12.6104L8 8.8597L5.32096 12.6104ZM11.4928 12.0283C12.5018 11.1529 13.1791 9.9062 13.3099 8.49967H8.972L11.4928 12.0283ZM2.69141 8.49967C2.82219 9.90603 3.49901 11.1529 4.50781 12.0283L7.0293 8.49967H2.69141ZM8.972 7.49967H13.3099C13.1791 6.093 12.502 4.8458 11.4928 3.97038L8.972 7.49967ZM4.50781 3.97038C3.49883 4.84578 2.8222 6.09317 2.69141 7.49967H7.0293L4.50781 3.97038ZM8.00065 2.66634C7.02367 2.66634 6.10845 2.92974 5.32096 3.38835L8 7.139L10.679 3.38835C9.89176 2.93009 8.97723 2.66634 8.00065 2.66634Z" fill="#FAFAFA"/>
</svg>
