<svg width="16" height="16" viewBox="0 0 16 16" fill="none" xmlns="http://www.w3.org/2000/svg">
<path fill-rule="evenodd" clip-rule="evenodd" d="M0.666016 5.16683C0.666016 4.15431 1.48683 3.3335 2.49935 3.3335H11.4993C12.5119 3.3335 13.3327 4.15431 13.3327 5.16683V5.3335H14.166C14.8103 5.3335 15.3327 5.85583 15.3327 6.50016V9.50016C15.3327 10.1445 14.8103 10.6668 14.166 10.6668H13.3327V10.8335C13.3327 11.846 12.5119 12.6668 11.4993 12.6668H2.49935C1.48683 12.6668 0.666016 11.846 0.666016 10.8335V5.16683ZM13.3327 9.66683H14.166C14.2581 9.66683 14.3327 9.59221 14.3327 9.50016V6.50016C14.3327 6.40812 14.2581 6.3335 14.166 6.3335H13.3327V9.66683Z" fill="#FAFAFA"/>
</svg>
