<svg width="16" height="16" viewBox="0 0 16 16" fill="none" xmlns="http://www.w3.org/2000/svg">
<path d="M9.87695 13.6668C10.1531 13.6668 10.377 13.8907 10.377 14.1668C10.377 14.443 10.1531 14.6668 9.87695 14.6668H4.54362C4.26748 14.6668 4.04362 14.443 4.04362 14.1668C4.04362 13.8907 4.26748 13.6668 4.54362 13.6668H6.70573V8.9012C6.60846 8.88316 6.51503 8.83811 6.4401 8.76318L5.71029 8.03337V10.467C5.71012 10.743 5.48633 10.967 5.21029 10.967C4.93426 10.9669 4.71045 10.743 4.71029 10.467V9.73389H3.50977C3.1565 9.73378 2.81867 9.59291 2.57031 9.34456C2.32212 9.09632 2.18367 8.76066 2.18359 8.41162V6.76709C2.18359 6.41797 2.32208 6.0818 2.57031 5.8335C2.81866 5.58523 3.15656 5.44493 3.50977 5.44482H4.71029V4.7111C4.71042 4.43508 4.93424 4.21112 5.21029 4.2111C5.48635 4.2111 5.71015 4.43507 5.71029 4.7111V6.61214L6.70573 7.60758V1.8335C6.70573 1.5574 6.93115 1.33357 7.20964 1.3335C7.48819 1.3335 7.71419 1.55735 7.71419 1.8335V4.78532L8.49609 4.00407C8.55631 3.94385 8.6287 3.90386 8.70508 3.88037V3.28076C8.70522 2.79021 9.05402 2.36695 9.53906 2.26839L10.6491 2.04313C11.107 1.95046 11.5719 2.17108 11.7858 2.58284L13.7005 6.2736C13.95 6.75439 13.7816 7.3397 13.3242 7.62191L12.3841 8.12907C12.3677 8.13772 12.3466 8.13167 12.3379 8.1154L11.584 6.70654C11.4534 6.46287 11.1478 6.37038 10.9017 6.49951C10.6558 6.62897 10.5617 6.93151 10.6921 7.17529L11.446 8.58415C11.7179 9.09195 12.3568 9.28201 12.8665 9.00732L13.0495 8.90837V11.4455C13.0494 12.0161 12.5819 12.4787 12.0059 12.4787H9.74805C9.17224 12.4784 8.70512 12.016 8.70508 11.4455V5.21566L7.71419 6.20654V13.6668H9.87695Z" fill="#FAFAFA"/>
</svg>
