<svg width="16" height="16" viewBox="0 0 16 16" fill="none" xmlns="http://www.w3.org/2000/svg">
<path d="M7.99609 12.1104C8.07453 12.1104 8.15232 12.1278 8.22331 12.1612C8.29425 12.1945 8.35688 12.2434 8.4069 12.3038C8.58007 12.5602 8.81031 12.7728 9.07943 12.9255C9.34868 13.0782 9.64992 13.167 9.95898 13.184C10.2648 13.1678 10.5629 13.0809 10.8294 12.9301C11.0959 12.7792 11.3235 12.568 11.4948 12.3142C11.5477 12.2575 11.6119 12.2123 11.6829 12.1814C11.754 12.1505 11.8307 12.1345 11.9082 12.1345C11.9857 12.1345 12.0624 12.1505 12.1335 12.1814C12.2045 12.2122 12.2687 12.2575 12.3216 12.3142C12.4937 12.5706 12.7231 12.7839 12.9915 12.9366C13.2599 13.0892 13.5602 13.1774 13.8685 13.1944C14.0098 13.1944 14.1455 13.2507 14.2454 13.3506C14.3454 13.4506 14.4017 13.5862 14.4017 13.7276C14.4017 13.8689 14.3453 14.0045 14.2454 14.1045C14.1455 14.2045 14.0098 14.2607 13.8685 14.2608C13.212 14.2615 12.577 14.0247 12.0814 13.5941C12.0331 13.5553 11.9728 13.5342 11.9108 13.5342C11.8488 13.5342 11.7885 13.5552 11.7402 13.5941C11.2454 14.0241 10.6119 14.2614 9.95638 14.2614C9.30081 14.2614 8.6674 14.0241 8.17253 13.5941C8.12418 13.5552 8.0634 13.5342 8.0013 13.5342C7.93931 13.5343 7.87901 13.5552 7.83073 13.5941C7.335 14.0245 6.70075 14.2614 6.04427 14.2614C5.38778 14.2614 4.75355 14.0245 4.25781 13.5941C4.21038 13.5556 4.15092 13.5349 4.08984 13.5349C4.0288 13.5349 3.96933 13.5557 3.92187 13.5941C3.42579 14.0238 2.79109 14.2605 2.13477 14.2608C1.99336 14.2608 1.8578 14.2045 1.75781 14.1045C1.65788 14.0045 1.60156 13.869 1.60156 13.7276C1.6016 13.5862 1.65782 13.4506 1.75781 13.3506C1.8578 13.2506 1.99336 13.1944 2.13477 13.1944C2.44337 13.1746 2.74305 13.0826 3.00977 12.9262C3.2764 12.7697 3.50283 12.553 3.67057 12.2933C3.72341 12.2367 3.78771 12.1914 3.85872 12.1605C3.92976 12.1297 4.00654 12.1137 4.08398 12.1137C4.16152 12.1137 4.23879 12.1296 4.3099 12.1605C4.38085 12.1914 4.44459 12.2368 4.4974 12.2933C4.66948 12.5497 4.89897 12.7624 5.16732 12.9151C5.43571 13.0678 5.73594 13.1559 6.04427 13.1729C6.3508 13.1567 6.6493 13.0698 6.91667 12.919C7.18401 12.7682 7.41288 12.5577 7.58529 12.3038C7.63533 12.2434 7.69855 12.1945 7.76953 12.1612C7.84041 12.1279 7.91778 12.1104 7.99609 12.1104Z" fill="#FAFAFA"/>
<path fill-rule="evenodd" clip-rule="evenodd" d="M8.91927 1.75427C9.01199 1.75081 9.10396 1.77184 9.1862 1.81482C9.26846 1.85783 9.33794 1.92156 9.38802 1.99972C9.43483 2.08079 9.45963 2.17303 9.45963 2.26664C9.45959 2.36017 9.43479 2.45192 9.38802 2.53292C9.33178 2.64295 9.28371 2.75701 9.24414 2.87407C9.22468 2.93592 9.22783 3.00322 9.25325 3.06287C9.27866 3.12243 9.32483 3.17079 9.38281 3.19959C10.5134 3.73291 12.6684 5.20497 12.8125 8.65011C12.8123 8.68947 12.8209 8.72883 12.8385 8.76404C12.8561 8.79919 12.8818 8.82981 12.9134 8.85323C13.558 9.32575 13.9955 10.0285 14.1348 10.8155C14.1466 10.9016 14.1339 10.9894 14.0983 11.0687C14.0627 11.1481 14.0059 11.2163 13.9336 11.2647C13.8613 11.3131 13.7764 11.3401 13.6895 11.3428C13.6026 11.3455 13.5165 11.3234 13.4414 11.2797L12.1458 10.501C12.1009 10.4708 12.0476 10.4548 11.9935 10.4548C11.9394 10.4548 11.8866 10.4708 11.8418 10.501L10.7747 11.3226C10.6937 11.3848 10.5943 11.4183 10.4922 11.4183C10.4031 11.4192 10.3156 11.393 10.2415 11.3435C10.1608 11.2947 10.098 11.2212 10.0625 11.1338C10.0269 11.0464 10.0204 10.9498 10.0443 10.8584C10.1694 10.2431 10.4567 9.67197 10.8763 9.2048C10.9148 9.15731 10.9362 9.09794 10.9362 9.03683C10.9361 8.97573 10.9148 8.91631 10.8763 8.86886C9.77765 7.34362 8.37489 6.61806 6.71094 6.73539C6.67395 6.73725 6.63792 6.74742 6.60482 6.76404C6.57175 6.78066 6.54245 6.80386 6.51888 6.8324C6.49529 6.86101 6.47748 6.89436 6.46745 6.93006C6.45748 6.96561 6.45511 7.00287 6.46029 7.03943C6.50497 7.36946 6.5926 7.69258 6.72135 7.99972C6.76489 8.09475 6.77973 8.20047 6.76367 8.30375C6.74755 8.40712 6.70132 8.50377 6.63086 8.5811C6.56657 8.6561 6.48275 8.71177 6.38867 8.74191C6.29449 8.77204 6.19364 8.77546 6.09766 8.75167C5.43744 8.56063 4.86067 8.15276 4.46029 7.59412C4.42312 7.54446 4.36954 7.5091 4.30924 7.49451C4.24894 7.47997 4.1853 7.48746 4.12956 7.51469C3.67214 7.74875 3.23046 8.01231 2.80729 8.30375C2.65383 8.4075 2.46901 8.45496 2.28451 8.43852C2.09994 8.42201 1.92629 8.34262 1.79362 8.21326C1.68847 8.12074 1.62391 7.99034 1.61393 7.85063C1.60396 7.71098 1.64937 7.57302 1.74023 7.46651L2.56706 6.39946C2.42241 5.83865 2.50277 5.2436 2.79102 4.74125C3.32445 3.84073 4.19335 3.18812 5.20703 2.92745C5.30723 2.89694 5.3962 2.83765 5.46289 2.75688C5.93223 2.18091 6.78601 1.80227 8.91927 1.75427ZM4.9401 4.75688C4.83415 4.75694 4.7325 4.79917 4.65755 4.87407C4.58254 4.94908 4.54036 5.05118 4.54036 5.15727C4.54042 5.26328 4.58259 5.36486 4.65755 5.43982C4.73251 5.51478 4.8341 5.55695 4.9401 5.55701C5.04619 5.55701 5.14829 5.51484 5.22331 5.43982C5.2982 5.36487 5.34044 5.26323 5.34049 5.15727C5.34049 5.05118 5.29832 4.94908 5.22331 4.87407C5.14829 4.79905 5.04619 4.75688 4.9401 4.75688Z" fill="#FAFAFA"/>
</svg>
