<svg width="16" height="16" viewBox="0 0 16 16" fill="none" xmlns="http://www.w3.org/2000/svg">
<path d="M7.93064 9.72493C8.37037 9.94195 8.77253 10.2301 9.11814 10.5798C9.5287 10.9952 9.85307 11.4887 10.0719 12.0303C10.2906 12.5719 10.4003 13.1525 10.3935 13.7367C10.39 14.01 10.167 14.2305 9.89353 14.2308H2.05889C1.78536 14.2307 1.56243 14.0101 1.55889 13.7367C1.55209 13.1525 1.66174 12.572 1.88051 12.0303C2.09938 11.4886 2.42363 10.9953 2.83428 10.5798C3.17982 10.2302 3.58149 9.94193 4.02113 9.72493C4.11038 10.0837 4.29556 10.4151 4.56345 10.6781C4.94033 11.0478 5.44825 11.2548 5.97621 11.2549C6.5041 11.2548 7.01149 11.0477 7.38832 10.6781C7.65626 10.4151 7.84137 10.0837 7.93064 9.72493Z" fill="#FAFAFA"/>
<path d="M13.9391 1.76855C14.2152 1.76864 14.4391 1.99377 14.4391 2.26986V3.87012C14.4389 4.42674 14.2175 4.96088 13.8239 5.35449C13.5503 5.62792 13.2089 5.81785 12.8395 5.90853V13.7308C12.8391 14.0066 12.6153 14.2307 12.3395 14.2308C12.0637 14.2306 11.8398 14.0065 11.8395 13.7308V5.90853C11.4699 5.81781 11.128 5.62795 10.8545 5.35449C10.4609 4.96089 10.2395 4.42671 10.2392 3.87012V2.26986C10.2392 1.99381 10.4632 1.76872 10.7392 1.76855C11.0153 1.76864 11.2392 1.99377 11.2392 2.26986V3.87012C11.2395 4.1615 11.3555 4.44139 11.5615 4.64746C11.6434 4.72933 11.7382 4.79554 11.8395 4.84733V2.26986C11.8395 1.99381 12.0635 1.76872 12.3395 1.76855C12.6156 1.76864 12.8395 1.99377 12.8395 2.26986V4.84798C12.9408 4.7962 13.0348 4.72936 13.1168 4.64746C13.3229 4.44139 13.4389 4.16153 13.4391 3.87012V2.26986C13.4391 1.99386 13.6632 1.76879 13.9391 1.76855Z" fill="#FAFAFA"/>
<path d="M5.97621 9.26725C6.31497 9.26727 6.65175 9.30781 6.98012 9.38444C6.94834 9.60317 6.84718 9.80737 6.6878 9.96387C6.49793 10.1501 6.24215 10.2548 5.97621 10.2549C5.71021 10.2548 5.45388 10.1501 5.26397 9.96387C5.10468 9.80739 5.00342 9.60311 4.97165 9.38444C5.30024 9.30772 5.63721 9.26725 5.97621 9.26725Z" fill="#FAFAFA"/>
<path d="M7.12465 3.29069C7.506 3.2908 7.87434 3.43214 8.15785 3.68717C8.4058 3.91053 8.57402 4.2081 8.63897 4.53288L8.66045 4.67415L8.80173 6.04069C9.00158 6.14064 9.197 6.25216 9.38571 6.37467C9.61679 6.52515 9.68231 6.83468 9.5322 7.06608C9.44443 7.2011 9.30226 7.27783 9.15329 7.29004C9.30004 7.57986 9.49165 7.84796 9.72295 8.08236C9.73096 8.09049 9.73963 8.09976 9.74704 8.1084C9.83748 8.21396 9.90414 8.33849 9.9417 8.47233C9.97921 8.6063 9.98695 8.74779 9.96449 8.88509C9.94192 9.02228 9.88976 9.15364 9.8115 9.26855C9.7331 9.38354 9.63028 9.48055 9.51071 9.55176L9.5042 9.55501L9.42282 9.60254C9.1837 9.74004 8.87775 9.65709 8.73988 9.41829C8.60221 9.17894 8.68479 8.87304 8.92413 8.73535L8.95017 8.71973C8.42632 8.16561 8.06587 7.47947 7.9059 6.73796C7.29764 6.50486 6.64638 6.39077 5.98858 6.40723C5.98052 6.40742 5.97191 6.40742 5.96384 6.40723C5.30157 6.39074 4.64601 6.50614 4.03415 6.74251C3.87394 7.48298 3.51511 8.16824 2.99183 8.72168C3.00848 8.73113 3.02628 8.74179 3.04457 8.75163C3.28733 8.88255 3.37897 9.18569 3.24834 9.42871C3.11756 9.67132 2.8142 9.76198 2.57126 9.63184C2.52293 9.60585 2.4747 9.57922 2.42999 9.55241L2.43064 9.55176C2.31175 9.48068 2.20923 9.38428 2.13116 9.26986C2.05286 9.15488 2.00007 9.02365 1.97751 8.88639C1.95505 8.74904 1.96341 8.60765 2.00095 8.47363C2.0386 8.33967 2.10499 8.2153 2.19561 8.1097L2.21905 8.08431C2.45164 7.84863 2.64286 7.57849 2.79001 7.28678C2.6457 7.27126 2.50873 7.19519 2.42347 7.06413C2.2734 6.83247 2.33906 6.52228 2.57061 6.37207C2.75693 6.25133 2.94898 6.14075 3.14613 6.04199L3.29131 4.67285C3.33154 4.29389 3.5107 3.94217 3.79392 3.68717C4.07736 3.43215 4.44584 3.29079 4.82712 3.29069H7.12465Z" fill="#FAFAFA"/>
<path d="M6.19952 7.33431C6.64435 7.34442 7.08285 7.43056 7.49834 7.58691C7.47864 7.69287 7.44927 7.79707 7.4085 7.89681C7.33134 8.0854 7.219 8.25678 7.07777 8.39941C6.93651 8.54199 6.76879 8.65389 6.58558 8.72819C6.40244 8.8024 6.20647 8.83798 6.01006 8.83236C6.00265 8.83215 5.99403 8.83215 5.98663 8.83236C5.79039 8.83783 5.59471 8.80242 5.41176 8.72819C5.22854 8.65378 5.06077 8.54147 4.91957 8.39876C4.77849 8.25612 4.66588 8.08533 4.58884 7.89681C4.54811 7.79706 4.51808 7.69281 4.49834 7.58691C4.91393 7.43047 5.35292 7.34446 5.79782 7.33431H6.19952Z" fill="#FAFAFA"/>
</svg>
