<svg width="16" height="16" viewBox="0 0 16 16" fill="none" xmlns="http://www.w3.org/2000/svg">
<path d="M6.48104 7.04118C6.73303 7.06663 6.92992 7.27919 6.93026 7.53792C6.93053 7.81398 6.70693 8.03816 6.43091 8.03857L6.24341 8.04508C5.87038 8.07045 5.5064 8.17027 5.17375 8.33805L5.01033 8.42725C4.63503 8.64929 4.31949 8.95552 4.08846 9.31917L3.99471 9.47868C3.7589 9.91244 3.64617 10.4009 3.66854 10.8921L3.68351 11.075C3.73217 11.5011 3.88208 11.9111 4.12231 12.271L4.22974 12.4214C4.49306 12.7633 4.83555 13.0401 5.22974 13.228C5.68018 13.4427 6.18154 13.5331 6.68026 13.4891L6.8658 13.4663C7.29676 13.399 7.7065 13.2324 8.06046 12.9787L8.2076 12.8654C8.54195 12.5899 8.80661 12.2398 8.97843 11.8439C9.0885 11.5909 9.3828 11.4749 9.63599 11.5848C9.88898 11.6949 10.0056 11.9892 9.89575 12.2424C9.66057 12.7843 9.29908 13.2616 8.84367 13.6369L8.64315 13.7918C8.16135 14.1371 7.60466 14.3633 7.0201 14.4546L6.76815 14.4852C6.09197 14.5448 5.41148 14.4227 4.7994 14.131C4.26374 13.8757 3.79761 13.4982 3.43807 13.0314L3.29028 12.8263C2.96194 12.3344 2.7568 11.7731 2.69002 11.189L2.66984 10.9377C2.63915 10.2638 2.79372 9.59435 3.11645 9.00081L3.24471 8.78271C3.56049 8.28575 3.99086 7.86853 4.50122 7.56657L4.72388 7.44482C5.2514 7.17885 5.83631 7.03917 6.43026 7.03857L6.48104 7.04118Z" fill="#FAFAFA"/>
<path d="M9.35669 6.46696C10.0725 6.46704 10.692 6.96506 10.8456 7.66423L11.3196 9.82113C11.8586 9.84791 12.4755 9.95746 12.97 10.4071C13.6368 11.0134 13.9166 12.0676 13.9166 13.672C13.9166 14.0271 13.6284 14.3152 13.2734 14.3153C12.9183 14.3151 12.6308 14.0271 12.6308 13.672C12.6308 12.1282 12.341 11.5738 12.1047 11.3589C11.8658 11.1416 11.5136 11.0985 10.8007 11.0985H9.33325C8.50459 11.0985 7.8326 10.4265 7.8326 9.59782V7.99105C7.8327 7.1493 8.51495 6.4671 9.35669 6.46696Z" fill="#FAFAFA"/>
<path d="M9.10734 1.3335C10.4939 1.33356 11.274 2.11355 11.274 3.50016C11.274 4.88677 10.4939 5.66677 9.10734 5.66683C7.72068 5.66683 6.94067 4.88682 6.94067 3.50016C6.94067 2.1135 7.72067 1.3335 9.10734 1.3335Z" fill="#FAFAFA"/>
</svg>
