<svg width="16" height="16" viewBox="0 0 16 16" fill="none" xmlns="http://www.w3.org/2000/svg">
<path fill-rule="evenodd" clip-rule="evenodd" d="M9.40169 12.0033C9.44608 12.0078 9.48922 12.0165 9.5306 12.0293C9.53388 12.0303 9.53711 12.0315 9.54036 12.0326C9.55622 12.0377 9.57193 12.0432 9.58724 12.0495C9.59569 12.053 9.60371 12.0574 9.61198 12.0612C9.62364 12.0666 9.63519 12.0721 9.64648 12.0781C9.65138 12.0807 9.65598 12.0839 9.66081 12.0866C9.67364 12.0939 9.68629 12.1013 9.69857 12.1094C9.70537 12.1138 9.71212 12.1183 9.71875 12.123C9.73026 12.1312 9.74165 12.1396 9.7526 12.1484C9.75619 12.1513 9.7595 12.1546 9.76302 12.1576C9.77489 12.1676 9.78639 12.178 9.79753 12.1888C9.80193 12.1931 9.80626 12.1974 9.81055 12.2018C9.83497 12.2269 9.85734 12.2539 9.8776 12.2826C9.8823 12.2892 9.88682 12.2959 9.89128 12.3027C9.90872 12.3294 9.92396 12.3575 9.9375 12.3867C9.95123 12.4163 9.96333 12.4468 9.97266 12.4785C9.98146 12.5085 9.98764 12.5394 9.99219 12.571C9.99669 12.6023 10 12.6341 10 12.6667V14C10 14.3682 9.70152 14.6667 9.33333 14.6667H6.66667C6.29848 14.6667 6 14.3682 6 14V12.6667C6 12.2985 6.29848 12 6.66667 12H9.33333L9.40169 12.0033ZM8 12.8333C7.72386 12.8333 7.5 13.0572 7.5 13.3333C7.5 13.6095 7.72386 13.8333 8 13.8333C8.27614 13.8333 8.5 13.6095 8.5 13.3333C8.5 13.0572 8.27614 12.8333 8 12.8333Z" fill="#FAFAFA"/>
<path d="M5.58594 11.3991C5.22773 11.7048 5 12.1588 5 12.6667V14.002H1.99935C1.91167 14.0018 1.82525 13.9781 1.74935 13.9342C1.67357 13.8903 1.61081 13.8272 1.56706 13.7513C1.52325 13.6753 1.49998 13.589 1.5 13.5013C1.50007 13.4137 1.5233 13.3278 1.56706 13.252C2.23428 12.0984 3.1553 11.1746 4.23568 10.5319L5.58594 11.3991Z" fill="#FAFAFA"/>
<path d="M11.763 10.5319C12.8436 11.1746 13.765 12.0983 14.4323 13.252C14.4761 13.3277 14.4992 13.4138 14.4993 13.5013C14.4995 13.5891 14.4761 13.6759 14.4323 13.752C14.3884 13.8278 14.3253 13.8911 14.2493 13.9349C14.1734 13.9787 14.0871 14.002 13.9993 14.002H11V12.6667C11 12.1587 10.7718 11.7048 10.4134 11.3991L11.763 10.5319Z" fill="#FAFAFA"/>
<path d="M5.69271 9.86328C6.36744 10.2672 7.15643 10.4999 8 10.5C8.84109 10.5 9.62799 10.2682 10.3014 9.86654C10.4411 9.91217 10.5786 9.96312 10.7148 10.0169L9.39258 10.8678C9.25816 10.9542 9.1012 11 8.94141 11H7.05859C6.8988 11 6.74184 10.9542 6.60742 10.8678L5.28385 10.0169C5.42027 9.96303 5.55809 9.91223 5.69792 9.86654C5.69616 9.86549 5.69447 9.86433 5.69271 9.86328Z" fill="#FAFAFA"/>
<path d="M8 2.5C9.933 2.5 11.5007 4.067 11.5007 6C11.5007 7.933 9.933 9.5 8 9.5C6.06715 9.49982 4.50065 7.93289 4.50065 6C4.50065 4.06711 6.06715 2.50018 8 2.5Z" fill="#FAFAFA"/>
</svg>
