<svg width="16" height="16" viewBox="0 0 16 16" fill="none" xmlns="http://www.w3.org/2000/svg">
<path d="M8.41732 10.167C7.93205 10.5676 7.30984 10.8082 6.63151 10.8083C5.95322 10.8082 5.33108 10.5675 4.8457 10.167H8.41732Z" fill="#FAFAFA"/>
<path d="M9.39323 8.50033C9.35123 8.73388 9.28083 8.95731 9.1849 9.16699H4.07747C3.98152 8.95732 3.91115 8.73387 3.86914 8.50033H9.39323Z" fill="#FAFAFA"/>
<path d="M9.1849 6.83366C9.28087 7.0433 9.35118 7.2668 9.39323 7.50033H3.86914C3.9112 7.26681 3.98148 7.04329 4.07747 6.83366H9.1849Z" fill="#FAFAFA"/>
<path d="M6.63151 5.19303C7.30951 5.19311 7.9315 5.43341 8.41667 5.83366H4.84635C5.33163 5.43348 5.95355 5.19307 6.63151 5.19303Z" fill="#FAFAFA"/>
<path fill-rule="evenodd" clip-rule="evenodd" d="M13.334 2.66699C14.0704 2.66699 14.6673 3.26395 14.6673 4.00033V12.0003C14.6673 12.7367 14.0704 13.3337 13.334 13.3337H2.66732L2.53125 13.3265C1.8588 13.2583 1.33398 12.6908 1.33398 12.0003V4.00033C1.33398 3.26395 1.93094 2.66699 2.66732 2.66699H13.334ZM6.63151 4.19303C4.5287 4.19313 2.82357 5.89815 2.82357 8.00098L2.82878 8.19629C2.92748 10.1433 4.48856 11.7044 6.43555 11.8031L6.63151 11.8083C8.66852 11.8081 10.3316 10.208 10.4336 8.19629L10.4388 8.00098C10.4388 5.96371 8.83879 4.30008 6.82682 4.19824L6.63151 4.19303ZM12.597 8.66178C12.321 8.6619 12.097 8.88572 12.097 9.16178V10.8988L12.0996 10.9495C12.1252 11.2016 12.3382 11.3987 12.597 11.3988C12.8559 11.3988 13.0688 11.2017 13.0944 10.9495L13.097 10.8988V9.16178C13.097 8.88564 12.8731 8.66178 12.597 8.66178Z" fill="#FAFAFA"/>
</svg>
