<svg width="16" height="16" viewBox="0 0 16 16" fill="none" xmlns="http://www.w3.org/2000/svg">
<path fill-rule="evenodd" clip-rule="evenodd" d="M13.0013 1.5C14.0138 1.5 14.8346 2.32081 14.8346 3.33333V14.3333C14.8346 14.6095 14.6108 14.8333 14.3346 14.8333C14.0585 14.8333 13.8346 14.6095 13.8346 14.3333V13H2.66732L2.16797 12.9961V14.3333C2.16797 14.6095 1.94411 14.8333 1.66797 14.8333C1.39183 14.8333 1.16797 14.6095 1.16797 14.3333V3.33333C1.16797 2.32081 1.98878 1.5 3.0013 1.5H13.0013ZM7.87435 5.68555C7.73009 5.63548 7.56885 5.68674 7.48372 5.80924L5.79036 8.25C5.73434 8.33081 5.71938 8.43157 5.75 8.52409C5.78066 8.61665 5.8535 8.69101 5.94792 8.72591L6.70833 9.00651L6.41667 10.6257C6.38983 10.7752 6.47598 10.9223 6.62305 10.9779C6.77016 11.0332 6.93775 10.9819 7.02409 10.8548L9.01367 7.92122C9.07285 7.8339 9.08399 7.72431 9.04362 7.6276C9.00321 7.53088 8.91621 7.45876 8.81055 7.4349L7.95443 7.24154L8.0918 6.02148C8.10832 5.87495 8.01866 5.73583 7.87435 5.68555ZM10.668 9.83333C10.3918 9.83333 10.168 10.0572 10.168 10.3333C10.168 10.6095 10.3918 10.8333 10.668 10.8333H12.0013C12.2774 10.8333 12.5013 10.6095 12.5013 10.3333C12.5013 10.0572 12.2774 9.83333 12.0013 9.83333H10.668ZM10.668 7.83333C10.3918 7.83333 10.168 8.05719 10.168 8.33333C10.168 8.60948 10.3918 8.83333 10.668 8.83333H12.0013C12.2774 8.83333 12.5013 8.60948 12.5013 8.33333C12.5013 8.05719 12.2774 7.83333 12.0013 7.83333H10.668ZM4.33464 5.83333C3.96645 5.83333 3.66797 6.13181 3.66797 6.5C3.66797 6.86819 3.96645 7.16667 4.33464 7.16667C4.70283 7.16667 5.0013 6.86819 5.0013 6.5C5.0013 6.13181 4.70283 5.83333 4.33464 5.83333ZM10.668 5.83333C10.3918 5.83333 10.168 6.05719 10.168 6.33333C10.168 6.60948 10.3918 6.83333 10.668 6.83333H12.0013C12.2774 6.83333 12.5013 6.60948 12.5013 6.33333C12.5013 6.05719 12.2774 5.83333 12.0013 5.83333H10.668ZM3.0013 2.5C2.54106 2.5 2.16797 2.8731 2.16797 3.33333V3.66667H13.8346V3.33333C13.8346 2.8731 13.4615 2.5 13.0013 2.5H3.0013Z" fill="#FAFAFA"/>
</svg>
