<svg width="16" height="16" viewBox="0 0 16 16" fill="none" xmlns="http://www.w3.org/2000/svg">
<path d="M13.6667 4.16667C14.1269 4.16667 14.5 4.53976 14.5 5V8C14.5 8.27614 14.2761 8.5 14 8.5C13.7239 8.5 13.5 8.27614 13.5 8V5.16667H5.16667V13.5H13.5V12.5C13.5 12.2239 13.7239 12 14 12C14.2761 12 14.5 12.2239 14.5 12.5V13.6667C14.5 14.1269 14.1269 14.5 13.6667 14.5H5C4.53976 14.5 4.16667 14.1269 4.16667 13.6667V5C4.16667 4.53976 4.53976 4.16667 5 4.16667H13.6667Z" fill="#FAFAFA"/>
<path d="M11 1.5C11.4602 1.5 11.8333 1.8731 11.8333 2.33333V3.16667H5C3.98748 3.16667 3.16667 3.98748 3.16667 5V11.8333H2.33333C1.8731 11.8333 1.5 11.4602 1.5 11V2.33333C1.5 1.8731 1.8731 1.5 2.33333 1.5H11Z" fill="#FAFAFA"/>
<path d="M9.92122 6.50846C9.9251 6.50915 9.92908 6.50964 9.93294 6.51042C9.94185 6.51222 9.95026 6.51595 9.95898 6.51823C9.98112 6.52398 10.0034 6.52958 10.0247 6.53841C10.0583 6.55233 10.0898 6.56997 10.1191 6.5905C10.1428 6.60704 10.1657 6.62538 10.1868 6.64648L11.1868 7.64648C11.3821 7.84174 11.3821 8.15825 11.1868 8.35352C10.9916 8.54877 10.6751 8.54878 10.4798 8.35352L10.3333 8.20703V9C10.3333 9.46022 10.7065 9.8333 11.1667 9.83333H11.9596L11.8132 9.68685C11.6179 9.49159 11.6179 9.17506 11.8132 8.97982C12.0084 8.78461 12.3249 8.78462 12.5202 8.97982L13.5202 9.97982C13.7154 10.1751 13.7154 10.4916 13.5202 10.6868L12.5202 11.6868C12.3249 11.8821 12.0084 11.8821 11.8132 11.6868C11.6179 11.4916 11.6179 11.1751 11.8132 10.9798L11.9596 10.8333H11.1667C10.6407 10.8333 10.1676 10.6107 9.83333 10.2559C9.49901 10.6107 9.02599 10.8333 8.5 10.8333H7.70703L7.85352 10.9798C8.04877 11.1751 8.04875 11.4916 7.85352 11.6868C7.65825 11.8821 7.34174 11.8821 7.14648 11.6868L6.14648 10.6868C5.95128 10.4916 5.95125 10.1751 6.14648 9.97982L7.14648 8.97982C7.34173 8.78461 7.65826 8.78462 7.85352 8.97982C8.04877 9.17507 8.04875 9.49158 7.85352 9.68685L7.70703 9.83333H8.5C8.96022 9.83332 9.33333 9.46023 9.33333 9V8.20703L9.18685 8.35352C8.99159 8.54877 8.67508 8.54878 8.47982 8.35352C8.28461 8.15825 8.28458 7.84173 8.47982 7.64648L9.47982 6.64648C9.51221 6.61409 9.54928 6.58935 9.58724 6.56771C9.60535 6.55738 9.62315 6.54645 9.64258 6.53841C9.66394 6.52959 9.68617 6.52396 9.70833 6.51823C9.71707 6.51597 9.72546 6.51221 9.73438 6.51042C9.73804 6.50968 9.74177 6.50912 9.74544 6.50846C9.77399 6.5034 9.80333 6.5 9.83333 6.5C9.86334 6.5 9.89267 6.50339 9.92122 6.50846Z" fill="#FAFAFA"/>
</svg>
