<svg width="16" height="16" viewBox="0 0 16 16" fill="none" xmlns="http://www.w3.org/2000/svg">
<path fill-rule="evenodd" clip-rule="evenodd" d="M11.0013 2.00716C11.2221 2.03919 11.4149 2.1804 11.5104 2.38672L13.5618 6.82031C13.7535 7.23448 13.482 7.70461 13.0462 7.76172L12.957 7.76693H9.09831C9.09889 7.77684 9.09961 7.78681 9.09961 7.79688V11.2513L9.08984 11.4401C9.0439 11.8777 8.83933 12.2851 8.51497 12.5918C8.19158 12.8975 7.77178 13.0822 7.32943 13.1237L7.13867 13.1328H4.61393L4.60937 13.2083C4.57074 13.5528 4.40029 13.8669 4.13997 14.0983C3.84434 14.3611 3.45425 14.5 3.05859 14.5H2C1.72387 14.5 1.50002 14.2761 1.5 14V11.1764L1.5026 11.125C1.52835 10.873 1.74122 10.6764 2 10.6764H3.05859C3.45425 10.6764 3.84434 10.8153 4.13997 11.0781C4.43751 11.3426 4.61784 11.7153 4.61784 12.1178V12.1328H7.13867L7.23633 12.1283C7.46278 12.107 7.67201 12.0128 7.82812 11.8652C7.98334 11.7185 8.07459 11.5303 8.09505 11.3353L8.09961 11.2513V7.79688C8.09961 7.78681 8.10032 7.77684 8.10091 7.76693H4.36979L4.2806 7.76172C3.84494 7.70454 3.57346 7.23442 3.76497 6.82031L5.81641 2.38672C5.91181 2.18061 6.10437 2.03941 6.32487 2.00716L6.42122 2H10.9056L11.0013 2.00716Z" fill="#FAFAFA"/>
</svg>
