<svg width="16" height="16" viewBox="0 0 16 16" fill="none" xmlns="http://www.w3.org/2000/svg">
<path fill-rule="evenodd" clip-rule="evenodd" d="M6.47656 2.50115C6.47665 1.68065 7.30167 1.11655 8.06641 1.41391L13.5905 3.5617L13.6725 3.59751C14.0743 3.79035 14.3338 4.19806 14.334 4.64894V13.5265C14.334 14.1709 13.8117 14.6932 13.1673 14.6932H2.50065C1.85632 14.6932 1.33398 14.1709 1.33398 13.5265V8.04217C1.33415 7.51083 1.69336 7.04671 2.20768 6.91326L6.47656 5.80649V2.50115ZM3.89128 11.1932C3.61516 11.1932 3.39132 11.4171 3.39128 11.6932C3.39128 11.9694 3.61513 12.1932 3.89128 12.1932H5.26302L5.3138 12.1906C5.56594 12.165 5.76302 11.9521 5.76302 11.6932C5.76298 11.4344 5.56591 11.2214 5.3138 11.1958L5.26302 11.1932H3.89128ZM9.37695 9.69321C9.10084 9.69321 8.877 9.91711 8.87695 10.1932V11.5265C8.87695 11.8027 9.10081 12.0265 9.37695 12.0265C9.6531 12.0265 9.87695 11.8027 9.87695 11.5265V10.1932C9.8769 9.91711 9.65307 9.69321 9.37695 9.69321ZM11.4336 9.69321C11.1576 9.69339 10.9336 9.91722 10.9336 10.1932V11.5265C10.9336 11.8027 11.1581 12.0265 11.4342 12.0265C11.7102 12.0264 11.9336 11.8026 11.9336 11.5265V10.1932C11.9335 9.91711 11.7097 9.69321 11.4336 9.69321ZM3.89128 9.19321C3.61516 9.19321 3.39132 9.41711 3.39128 9.69321C3.39128 9.96935 3.61513 10.1932 3.89128 10.1932H5.26302L5.3138 10.1906C5.56594 10.165 5.76302 9.9521 5.76302 9.69321C5.76298 9.43436 5.56591 9.22141 5.3138 9.19582L5.26302 9.19321H3.89128ZM9.37695 5.69321C9.10084 5.69321 8.877 5.91711 8.87695 6.19321V7.52654C8.87695 7.80269 9.10081 8.02654 9.37695 8.02654C9.6531 8.02654 9.87695 7.80269 9.87695 7.52654V6.19321C9.8769 5.91711 9.65307 5.69321 9.37695 5.69321ZM11.4336 5.69321C11.1576 5.69339 10.9336 5.91722 10.9336 6.19321V7.52654C10.9336 7.80269 11.1581 8.02654 11.4342 8.02654C11.7102 8.02637 11.9336 7.80258 11.9336 7.52654V6.19321C11.9335 5.91711 11.7097 5.69321 11.4336 5.69321Z" fill="#FAFAFA"/>
</svg>
