<svg width="16" height="16" viewBox="0 0 16 16" fill="none" xmlns="http://www.w3.org/2000/svg">
<path d="M8.13216 7.01237H8.13086L8.13346 7.01172L8.13216 7.01237Z" fill="#FAFAFA"/>
<path fill-rule="evenodd" clip-rule="evenodd" d="M12.7995 1.5C13.0755 1.50014 13.2995 1.72394 13.2995 2V11.6003C13.2993 11.8762 13.0754 12.1001 12.7995 12.1003H12.4993V13.5H12.7995C13.0755 13.5001 13.2994 13.724 13.2995 14C13.2994 14.276 13.0754 14.4999 12.7995 14.5H4.39909C3.94831 14.5 3.51604 14.3207 3.19727 14.002C2.91837 13.723 2.74638 13.3572 2.70768 12.9681L2.69922 12.8001V3.60026C2.69922 3.04331 2.92063 2.50906 3.31445 2.11523C3.70828 1.72141 4.24252 1.5 4.79948 1.5H12.7995ZM4.39909 12.1003C4.21348 12.1003 4.03554 12.1741 3.9043 12.3053C3.7731 12.4366 3.69922 12.6145 3.69922 12.8001L3.70247 12.8691C3.7184 13.0293 3.78946 13.1801 3.9043 13.2949C4.03553 13.4261 4.21352 13.5 4.39909 13.5H11.4993V12.1003H4.39909ZM5.78125 7.7526C5.55696 8.09568 5.33834 8.505 5.13672 8.99284C5.03147 9.24788 5.1533 9.54028 5.4082 9.64583C5.66335 9.75113 5.95576 9.62948 6.0612 9.37435C6.17387 9.10176 6.29129 8.86091 6.40951 8.64779C6.32042 8.53435 6.24696 8.4283 6.19141 8.3405C6.14629 8.26918 6.1108 8.20877 6.08659 8.16471C6.08285 8.15791 6.07941 8.1512 6.07617 8.14518C5.96784 8.01651 5.86965 7.88503 5.78125 7.7526ZM8.90625 3.89779C8.06152 3.90603 7.23033 4.11498 6.48177 4.50651L6.4694 4.51302C5.78894 4.8943 5.34658 5.46145 5.29362 6.17318C5.25426 6.70444 5.43941 7.24046 5.78125 7.7526C6.16386 7.16736 6.56308 6.77446 6.92253 6.51237C7.20576 6.30587 7.45854 6.18433 7.64974 6.11393C7.74496 6.07889 7.82484 6.0564 7.88477 6.04232C7.91457 6.03533 7.94003 6.0308 7.95964 6.02734C7.96933 6.02563 7.97801 6.02384 7.98503 6.02279C7.98848 6.02227 7.99201 6.02186 7.99479 6.02148L7.9987 6.02083H8.0013C8.0013 6.02083 8.00499 6.04338 8.04948 6.4056L8.0013 6.02083C8.27517 5.98724 8.52529 6.182 8.55925 6.45573C8.59287 6.72982 8.39779 6.97875 8.1237 7.01237L8.12435 7.01302H8.12695L8.12891 7.01237H8.13086C8.12755 7.01301 8.12137 7.01438 8.11328 7.01628C8.09069 7.0216 8.05025 7.03257 7.99544 7.05273C7.88555 7.09319 7.71552 7.17173 7.51172 7.32031C7.20151 7.54651 6.79876 7.94603 6.40951 8.64779C6.46409 8.71728 6.52412 8.79016 6.59115 8.86198C6.93263 9.22779 7.51117 9.66794 8.28516 9.59635L8.28451 9.5957C9.68841 9.46739 10.3127 8.43976 10.6738 7.49544C10.8512 7.03153 10.9906 6.51868 11.1159 6.1224C11.2516 5.69323 11.3723 5.39494 11.513 5.21419C11.6051 5.09601 11.6398 4.94237 11.6068 4.79622C11.5736 4.65 11.476 4.5259 11.3418 4.45898C10.5858 4.08214 9.75093 3.88961 8.90625 3.89779Z" fill="#FAFAFA"/>
</svg>
