<svg width="16" height="16" viewBox="0 0 16 16" fill="none" xmlns="http://www.w3.org/2000/svg">
<path d="M3.89974 14.5H2.52344C2.51973 14.4999 2.5152 14.4995 2.51042 14.4993C2.50066 14.499 2.4885 14.4984 2.47461 14.4974C2.44678 14.4954 2.41026 14.4921 2.36784 14.485C2.28509 14.4712 2.16698 14.4422 2.04297 14.3802C1.91704 14.3172 1.77583 14.2149 1.66732 14.0521C1.57055 13.9068 1.51494 13.7364 1.5026 13.5482L1.5 13.4668V9.72331C1.50007 9.71963 1.50049 9.715 1.50065 9.71029C1.50098 9.70056 1.50162 9.68829 1.5026 9.67448C1.5046 9.64666 1.50792 9.61005 1.51497 9.56771C1.52877 9.48498 1.55719 9.36676 1.61914 9.24284C1.68214 9.11689 1.78511 8.97573 1.94792 8.86719C2.11383 8.75666 2.31254 8.69989 2.5332 8.69987H3.89974V14.5Z" fill="#FAFAFA"/>
<path fill-rule="evenodd" clip-rule="evenodd" d="M8 1.5C8.9813 1.5 9.92265 1.8901 10.6165 2.58398C11.3103 3.27782 11.6998 4.21871 11.6999 5.19987C11.6999 5.33248 11.6472 5.45962 11.5534 5.55339C11.4596 5.64711 11.3324 5.69987 11.1999 5.69987H10.5V6.39974C10.5 6.67588 10.2761 6.89974 10 6.89974C9.72386 6.89974 9.5 6.67588 9.5 6.39974V5.69987H8.5V8.69987H11.0996V14.5H4.89974V8.69987H7.5V5.69987H4.80013C4.66752 5.69987 4.54038 5.64715 4.44661 5.55339C4.35289 5.45962 4.30013 5.33245 4.30013 5.19987C4.30016 4.21862 4.69026 3.27784 5.38411 2.58398C6.07797 1.89013 7.01875 1.50003 8 1.5ZM7.19987 10.3001C6.92379 10.3002 6.69987 10.524 6.69987 10.8001C6.69996 11.0762 6.92384 11.3001 7.19987 11.3001H8.80013C9.0761 11.3 9.30004 11.0761 9.30013 10.8001C9.30013 10.5241 9.07615 10.3003 8.80013 10.3001H7.19987Z" fill="#FAFAFA"/>
<path d="M13.4896 8.70052C13.4993 8.70085 13.5115 8.70148 13.5254 8.70247C13.5532 8.70447 13.5897 8.70778 13.6322 8.71484C13.7149 8.72863 13.8331 8.75704 13.957 8.81901C14.083 8.88199 14.2241 8.98498 14.3327 9.14779C14.4432 9.31367 14.5 9.51244 14.5 9.73307V13.4759C14.4999 13.4796 14.4995 13.4842 14.4993 13.4889C14.499 13.4987 14.4984 13.5114 14.4974 13.5254C14.4954 13.5532 14.4921 13.5898 14.485 13.6322C14.4712 13.7149 14.4428 13.8331 14.3809 13.957C14.3179 14.083 14.2149 14.2241 14.0521 14.3327C13.8862 14.4432 13.6875 14.5 13.4668 14.5H12.0996V8.69987H13.4766C13.4803 8.69993 13.4848 8.70036 13.4896 8.70052Z" fill="#FAFAFA"/>
</svg>
