<svg width="16" height="16" viewBox="0 0 16 16" fill="none" xmlns="http://www.w3.org/2000/svg">
<path d="M6.55859 9.73356H4.14583V13.5493C4.14583 13.8255 3.92198 14.0493 3.64583 14.0493C3.36969 14.0493 3.14583 13.8255 3.14583 13.5493V9.73356H2.44401C2.44244 9.73355 2.44066 9.73294 2.4388 9.73291C2.43488 9.73285 2.43031 9.73308 2.42513 9.73291C2.41475 9.73256 2.40181 9.73203 2.38672 9.73096C2.35657 9.7288 2.31663 9.72438 2.27018 9.71663C2.17964 9.70154 2.05108 9.67055 1.91667 9.60335C1.78032 9.53516 1.62872 9.42496 1.51237 9.25049C1.40877 9.09509 1.34815 8.91143 1.33464 8.70622L1.33203 8.61637V4.90674C1.33209 4.90286 1.33251 4.89818 1.33268 4.89307C1.33303 4.88272 1.33357 4.86969 1.33464 4.85466C1.33679 4.82455 1.34059 4.78449 1.34831 4.73812C1.35641 4.68953 1.36893 4.6298 1.38932 4.56429L6.55859 9.73356Z" fill="#FAFAFA"/>
<path d="M13.9062 9.68148C13.7955 9.71508 13.6761 9.73355 13.5488 9.73356H12.9154V13.5493C12.9154 13.8255 12.6915 14.0493 12.4154 14.0493C12.1392 14.0493 11.9154 13.8255 11.9154 13.5493V9.73356H11.6608C11.6443 9.70993 11.6259 9.68694 11.6048 9.66585L5.73893 3.79997H8.02539L13.9062 9.68148Z" fill="#FAFAFA"/>
<path d="M3.64583 1.94971C3.92198 1.94971 4.14583 2.17356 4.14583 2.44971V3.79997H4.32487C5.28647 4.76158 6.44649 5.92217 7.60677 7.08252C8.52294 7.99874 9.43936 8.91513 10.2578 9.73356H7.97266L2.08984 3.85075C2.20087 3.81697 2.32094 3.79998 2.44857 3.79997H3.14583V2.44971C3.14583 2.17356 3.36969 1.94971 3.64583 1.94971Z" fill="#FAFAFA"/>
<path d="M12.4154 1.94971C12.6915 1.94971 12.9154 2.17356 12.9154 2.44971V3.79997H13.5586C13.5625 3.80003 13.5671 3.80045 13.5723 3.80062C13.5826 3.80096 13.5956 3.80149 13.6107 3.80257C13.6408 3.80472 13.6808 3.80851 13.7272 3.81624C13.8178 3.83134 13.9463 3.86233 14.0807 3.92952C14.2171 3.99773 14.3687 4.10848 14.485 4.28304C14.6034 4.46067 14.6653 4.67503 14.6654 4.9165V8.62679C14.6653 8.63063 14.6649 8.63546 14.6647 8.64046C14.6644 8.65081 14.6638 8.66391 14.6628 8.67887C14.6606 8.70899 14.6568 8.74909 14.6491 8.79541C14.641 8.84381 14.6277 8.90281 14.6074 8.96794L9.43945 3.79997H11.9154V2.44971C11.9154 2.17356 12.1392 1.94971 12.4154 1.94971Z" fill="#FAFAFA"/>
</svg>
