<svg width="16" height="16" viewBox="0 0 16 16" fill="none" xmlns="http://www.w3.org/2000/svg">
<path fill-rule="evenodd" clip-rule="evenodd" d="M14.667 8C14.667 11.6818 11.6818 14.6669 8 14.667C4.3181 14.667 1.33301 11.6819 1.33301 8C1.3331 4.31818 4.31816 1.33301 8 1.33301C11.6818 1.3331 14.6669 4.31823 14.667 8Z" fill="#FAFAFA"/>
<path fill-rule="evenodd" clip-rule="evenodd" d="M8.91068 11.0201C9.10594 10.8248 9.10594 10.5082 8.91068 10.313L6.71542 8.11769C6.65033 8.0526 6.65033 7.94707 6.71542 7.88199L8.91068 5.68672C9.10594 5.49146 9.10594 5.17488 8.91068 4.97962C8.71542 4.78436 8.39884 4.78436 8.20358 4.97962L6.00831 7.17488C5.5527 7.63049 5.5527 8.36918 6.00831 8.82479L8.20358 11.0201C8.39884 11.2153 8.71542 11.2153 8.91068 11.0201Z" fill="#131313"/>
</svg>
