<svg width="16" height="16" viewBox="0 0 16 16" fill="none" xmlns="http://www.w3.org/2000/svg">
<path fill-rule="evenodd" clip-rule="evenodd" d="M3.90234 2.72129C4.19593 2.03156 5.21157 2.05461 5.45703 2.7903L6.32812 5.40293C6.50789 5.94244 6.1064 6.49978 5.53776 6.49994H5.16667V7.89577C6.06674 8.19195 7.01604 8.69098 7.88021 9.51035C8.08664 9.41518 8.29334 9.33127 8.5 9.2584V7.58262L8.30013 7.73301C8.07934 7.89837 7.76594 7.85394 7.60026 7.6334C7.43476 7.41265 7.4794 7.09929 7.69987 6.93353L8.5 6.33327V4.99994C8.5 4.7239 8.72401 4.50011 9 4.49994C9.27603 4.50007 9.5 4.72388 9.5 4.99994V5.58327L10.1667 5.08327C10.4444 4.87506 10.8201 4.86199 11.11 5.04421L11.1667 5.08327L13.6335 6.93353C13.854 7.09926 13.8986 7.41261 13.7331 7.6334C13.5673 7.85387 13.254 7.89845 13.0332 7.73301L12.8333 7.58262V9.02468C13.3648 9.13824 13.8276 9.28934 14.1927 9.44199C14.4474 9.54851 14.568 9.84158 14.4616 10.0963C14.355 10.3509 14.062 10.471 13.8073 10.3645C12.4088 9.77979 9.45848 9.25298 6.97917 11.2363C5.20019 12.6594 3.07897 13.0123 2 13.0123C1.7239 13.0123 1.50007 12.7884 1.5 12.5123C1.50015 12.2363 1.72395 12.0123 2 12.0123C2.92097 12.0123 4.79987 11.699 6.35417 10.4557C6.55198 10.2974 6.7526 10.1536 6.95443 10.0221C5.16827 8.49589 3.0246 8.42912 2.04948 8.52663C1.77493 8.55383 1.53012 8.35327 1.5026 8.07871C1.47531 7.80414 1.67596 7.55941 1.95052 7.53184C2.4583 7.48108 3.25379 7.46767 4.16667 7.63926V6.49994H3.79557C3.22707 6.49965 2.82553 5.94235 3.00521 5.40293L3.8763 2.7903L3.90234 2.72129ZM10.6667 7.49994C10.3907 7.50011 10.1667 7.7239 10.1667 7.99994V8.8808C10.5082 8.84336 10.8428 8.82967 11.1667 8.83457V7.99994C11.1667 7.72387 10.9427 7.50007 10.6667 7.49994Z" fill="#FAFAFA"/>
</svg>
