<svg width="16" height="16" viewBox="0 0 16 16" fill="none" xmlns="http://www.w3.org/2000/svg">
<path fill-rule="evenodd" clip-rule="evenodd" d="M6.16604 4.66679C6.35059 4.66679 6.50002 4.81688 6.49938 5.00143L6.49417 6.56002C6.49343 6.74355 6.34438 6.89201 6.16083 6.89205H4.23245C3.95643 6.89214 3.73254 7.11604 3.73245 7.39205C3.73247 7.66812 3.95639 7.89196 4.23245 7.89205H11.7683C12.0444 7.89205 12.2682 7.66818 12.2683 7.39205C12.2682 7.11598 12.0443 6.89205 11.7683 6.89205H9.83401C9.64994 6.89205 9.50069 6.74279 9.50068 6.55872C9.50064 6.03919 9.50066 5.51966 9.50068 5.00012C9.50068 4.81605 9.64994 4.66682 9.83401 4.66679H13.334L13.4701 4.67395C14.1425 4.74212 14.6673 5.30977 14.6673 6.00012V6.46822C15.0277 6.47389 15.3195 6.76599 15.3229 7.12838L15.3451 11.5138C15.3483 11.8819 15.0524 12.183 14.6843 12.1863C14.6787 12.1864 14.6729 12.1858 14.6673 12.1857V12.6668C14.6672 13.3571 14.1425 13.9248 13.4701 13.993L13.334 14.0001H2.66734C1.97706 14 1.40943 13.4752 1.34117 12.8029L1.33401 12.6668V12.1857C0.973818 12.1798 0.681925 11.8884 0.678412 11.5262L0.656277 7.14075C0.653014 6.77272 0.949065 6.47169 1.31708 6.46822C1.32267 6.46817 1.32845 6.46814 1.33401 6.46822V6.00012C1.3341 5.26388 1.93111 4.66689 2.66734 4.66679H6.16604ZM4.23245 10.7749C3.95643 10.775 3.73254 10.9989 3.73245 11.2749C3.73264 11.5508 3.9565 11.7748 4.23245 11.7749H11.7683C12.0443 11.7749 12.2681 11.5508 12.2683 11.2749C12.2682 10.9988 12.0443 10.7749 11.7683 10.7749H4.23245ZM4.23245 8.83346C3.95643 8.83355 3.73254 9.05745 3.73245 9.33346C3.73256 9.60946 3.95645 9.83337 4.23245 9.83346H11.7683C12.0443 9.83346 12.2681 9.60951 12.2683 9.33346C12.2682 9.05739 12.0443 8.83346 11.7683 8.83346H4.23245Z" fill="#FAFAFA"/>
<path d="M9.98049 0.979943C10.1758 0.784681 10.4923 0.784681 10.6875 0.979943L11.6875 1.97994C11.8827 2.17521 11.8828 2.49172 11.6875 2.68697L10.6875 3.68697C10.4923 3.88207 10.1757 3.88215 9.98049 3.68697C9.78528 3.49176 9.78538 3.17522 9.98049 2.97994L10.127 2.83346H9.33401C8.87382 2.83352 8.50068 3.20659 8.50068 3.66679V6.33346C8.50058 6.60951 8.27676 6.83346 8.00068 6.83346C7.72465 6.8334 7.50078 6.60948 7.50068 6.33346V3.66679C7.50068 2.65431 8.32154 1.83352 9.33401 1.83346H10.127L9.98049 1.68697C9.78528 1.49176 9.78538 1.17522 9.98049 0.979943Z" fill="#FAFAFA"/>
</svg>
