<svg width="16" height="16" viewBox="0 0 16 16" fill="none" xmlns="http://www.w3.org/2000/svg">
<path fill-rule="evenodd" clip-rule="evenodd" d="M5.33333 2.16699C6.34586 2.16699 7.16667 2.9878 7.16667 4.00033V12.0003C7.16667 13.0128 6.34586 13.8337 5.33333 13.8337H3.33333C2.32081 13.8337 1.5 13.0128 1.5 12.0003V4.00033C1.5 2.9878 2.32081 2.16699 3.33333 2.16699H5.33333ZM3.66667 8.16699C3.39052 8.16699 3.16667 8.39085 3.16667 8.66699C3.16667 8.94313 3.39052 9.16699 3.66667 9.16699H5C5.27614 9.16699 5.5 8.94313 5.5 8.66699C5.5 8.39085 5.27614 8.16699 5 8.16699H3.66667ZM3.66667 6.16699C3.39052 6.16699 3.16667 6.39085 3.16667 6.66699C3.16667 6.94313 3.39052 7.16699 3.66667 7.16699H5C5.27614 7.16699 5.5 6.94313 5.5 6.66699C5.5 6.39085 5.27614 6.16699 5 6.16699H3.66667ZM3.66667 4.16699C3.39052 4.16699 3.16667 4.39085 3.16667 4.66699C3.16667 4.94313 3.39052 5.16699 3.66667 5.16699H5C5.27614 5.16699 5.5 4.94313 5.5 4.66699C5.5 4.39085 5.27614 4.16699 5 4.16699H3.66667Z" fill="#FAFAFA"/>
<path fill-rule="evenodd" clip-rule="evenodd" d="M12.6667 2.16699C13.6792 2.16699 14.5 2.9878 14.5 4.00033V12.0003C14.5 13.0128 13.6792 13.8337 12.6667 13.8337H10.6667C9.65415 13.8337 8.83333 13.0128 8.83333 12.0003V4.00033C8.83333 2.9878 9.65415 2.16699 10.6667 2.16699H12.6667ZM11 8.16699C10.7239 8.16699 10.5 8.39085 10.5 8.66699C10.5 8.94313 10.7239 9.16699 11 9.16699H12.3333C12.6095 9.16699 12.8333 8.94313 12.8333 8.66699C12.8333 8.39085 12.6095 8.16699 12.3333 8.16699H11ZM11 6.16699C10.7239 6.16699 10.5 6.39085 10.5 6.66699C10.5 6.94313 10.7239 7.16699 11 7.16699H12.3333C12.6095 7.16699 12.8333 6.94313 12.8333 6.66699C12.8333 6.39085 12.6095 6.16699 12.3333 6.16699H11ZM11 4.16699C10.7239 4.16699 10.5 4.39085 10.5 4.66699C10.5 4.94313 10.7239 5.16699 11 5.16699H12.3333C12.6095 5.16699 12.8333 4.94313 12.8333 4.66699C12.8333 4.39085 12.6095 4.16699 12.3333 4.16699H11Z" fill="#FAFAFA"/>
</svg>
