<svg width="16" height="16" viewBox="0 0 16 16" fill="none" xmlns="http://www.w3.org/2000/svg">
<path fill-rule="evenodd" clip-rule="evenodd" d="M13.6667 4.16667C14.1269 4.16667 14.5 4.53976 14.5 5V13.6667C14.5 14.1269 14.1269 14.5 13.6667 14.5H5C4.53976 14.5 4.16667 14.1269 4.16667 13.6667V5C4.16667 4.53976 4.53976 4.16667 5 4.16667H13.6667ZM5.8737 13.5H7.1263L7.29297 13.3333L6.66667 12.707L5.8737 13.5ZM8.70703 13.3333L8.8737 13.5H9.79297L9.95964 13.3333L9.33333 12.707L8.70703 13.3333ZM11.3737 13.3333L11.5404 13.5H12.793L12 12.707L11.3737 13.3333ZM5.16667 11.5404V12.793L5.95964 12L5.33333 11.3737L5.16667 11.5404ZM12.707 12L13.5 12.793V11.5404L13.3333 11.3737L12.707 12ZM7.3737 12L8 12.6263L8.6263 12L8 11.3737L7.3737 12ZM10.0404 12L10.6667 12.6263L11.293 12L10.6667 11.3737L10.0404 12ZM6.04036 10.6667L6.66667 11.293L7.29297 10.6667L6.66667 10.0404L6.04036 10.6667ZM8.70703 10.6667L9.33333 11.293L9.95964 10.6667L9.33333 10.0404L8.70703 10.6667ZM11.3737 10.6667L12 11.293L12.6263 10.6667L12 10.0404L11.3737 10.6667ZM5.16667 8.8737V9.79297L5.33333 9.95964L5.95964 9.33333L5.33333 8.70703L5.16667 8.8737ZM7.3737 9.33333L8 9.95964L8.6263 9.33333L8 8.70703L7.3737 9.33333ZM10.0404 9.33333L10.6667 9.95964L11.293 9.33333L10.6667 8.70703L10.0404 9.33333ZM12.707 9.33333L13.3333 9.95964L13.5 9.79297V8.8737L13.3333 8.70703L12.707 9.33333ZM6.04036 8L6.66667 8.6263L7.29297 8L6.66667 7.3737L6.04036 8ZM8.70703 8L9.33333 8.6263L9.95964 8L9.33333 7.3737L8.70703 8ZM11.3737 8L12 8.6263L12.6263 8L12 7.3737L11.3737 8ZM5.16667 7.1263L5.33333 7.29297L5.95964 6.66667L5.16667 5.8737V7.1263ZM7.3737 6.66667L8 7.29297L8.6263 6.66667L8 6.04036L7.3737 6.66667ZM10.0404 6.66667L10.6667 7.29297L11.293 6.66667L10.6667 6.04036L10.0404 6.66667ZM12.707 6.66667L13.3333 7.29297L13.5 7.1263V5.8737L12.707 6.66667ZM6.66667 5.95964L7.29297 5.33333L7.1263 5.16667H5.8737L6.66667 5.95964ZM8.70703 5.33333L9.33333 5.95964L9.95964 5.33333L9.79297 5.16667H8.8737L8.70703 5.33333ZM11.3737 5.33333L12 5.95964L12.793 5.16667H11.5404L11.3737 5.33333Z" fill="#FAFAFA"/>
<path d="M11 1.5C11.4602 1.5 11.8333 1.8731 11.8333 2.33333V3.16667H5C3.98748 3.16667 3.16667 3.98748 3.16667 5V11.8333H2.33333C1.8731 11.8333 1.5 11.4602 1.5 11V2.33333C1.5 1.8731 1.8731 1.5 2.33333 1.5H11Z" fill="#FAFAFA"/>
</svg>
