<svg width="16" height="16" viewBox="0 0 16 16" fill="none" xmlns="http://www.w3.org/2000/svg">
<path d="M4.81905 10.9492C4.98697 10.7303 5.30112 10.6885 5.52022 10.8561C5.73895 11.0241 5.78089 11.3383 5.61332 11.5573L5.27347 12.0007L5.27282 12C5.21646 12.0741 5.19182 12.1664 5.20186 12.2565C5.21183 12.3447 5.25535 12.4277 5.32491 12.4883L5.43168 12.5859C5.53308 12.6887 5.6184 12.8075 5.68298 12.9375C5.76899 13.1109 5.81703 13.3013 5.8236 13.4948C5.83012 13.6883 5.79489 13.8811 5.72074 14.0599C5.64652 14.2387 5.53485 14.3996 5.39392 14.5319C5.19262 14.7206 4.87582 14.7108 4.68689 14.5098C4.49809 14.3084 4.50843 13.9916 4.70967 13.8027C4.74788 13.7668 4.7774 13.7234 4.79691 13.6764C4.81639 13.6294 4.82592 13.579 4.82425 13.5286C4.82254 13.4784 4.80984 13.428 4.78715 13.3822C4.76444 13.3365 4.73136 13.2951 4.69079 13.2617L4.68623 13.2578C4.41902 13.0331 4.24723 12.7146 4.20837 12.3672C4.16958 12.0196 4.26719 11.671 4.4792 11.3932L4.81905 10.9492Z" fill="#FAFAFA"/>
<path d="M7.91084 10.9492C8.07878 10.7303 8.39292 10.6885 8.61202 10.8561C8.83082 11.0241 8.87225 11.3383 8.70446 11.5573L8.36462 11.9993L8.36527 12C8.30877 12.0741 8.28359 12.1662 8.29366 12.2565C8.30386 12.3467 8.34887 12.4319 8.42126 12.4928C8.56754 12.6163 8.68798 12.7695 8.77217 12.9421L8.82816 13.0742C8.87716 13.2089 8.90526 13.3511 8.91019 13.4948L8.90759 13.6387C8.89732 13.7816 8.86418 13.9227 8.80993 14.056C8.7376 14.2336 8.62828 14.3942 8.49027 14.5273C8.29159 14.7187 7.97552 14.7127 7.78389 14.5143C7.59236 14.3156 7.59764 13.9989 7.79626 13.8073C7.83429 13.7706 7.86402 13.7268 7.8835 13.679C7.9029 13.6313 7.91254 13.5797 7.91084 13.5286C7.90904 13.4776 7.89619 13.4271 7.87373 13.3809C7.85121 13.3347 7.81805 13.2922 7.77738 13.2578L7.77803 13.2572C7.51099 13.0324 7.33901 12.7145 7.30017 12.3672C7.26139 12.0196 7.35892 11.6711 7.571 11.3932L7.91084 10.9492Z" fill="#FAFAFA"/>
<path d="M10.7884 10.9492C10.9564 10.7303 11.2705 10.6885 11.4896 10.8561C11.7084 11.0241 11.7498 11.3383 11.5821 11.5573L11.2422 11.9993L11.2429 12C11.1864 12.0741 11.1612 12.1662 11.1713 12.2565C11.1815 12.3467 11.2265 12.4319 11.2989 12.4928C11.4451 12.6163 11.5656 12.7695 11.6498 12.9421L11.7058 13.0742C11.7548 13.2089 11.7829 13.3511 11.7878 13.4948L11.7852 13.6387C11.7749 13.7816 11.7418 13.9227 11.6875 14.056C11.6152 14.2336 11.5059 14.3942 11.3679 14.5273C11.1692 14.7187 10.8531 14.7127 10.6615 14.5143C10.47 14.3156 10.4752 13.9989 10.6739 13.8073C10.7119 13.7706 10.7416 13.7268 10.7611 13.679C10.7805 13.6313 10.7901 13.5797 10.7884 13.5286C10.7866 13.4776 10.7738 13.4271 10.7513 13.3809C10.7288 13.3347 10.6957 13.2922 10.655 13.2578L10.6556 13.2572C10.3886 13.0324 10.2166 12.7145 10.1778 12.3672C10.139 12.0196 10.2365 11.6711 10.4486 11.3932L10.7884 10.9492Z" fill="#FAFAFA"/>
<path fill-rule="evenodd" clip-rule="evenodd" d="M14.2806 5.54297L14.3516 5.61133C14.5575 5.85467 14.6697 6.16383 14.6674 6.48242V8.42253C14.6673 8.77304 14.5277 9.10954 14.28 9.35742C14.0321 9.60523 13.6956 9.74471 13.3451 9.74479H2.65629C2.30582 9.74473 1.9693 9.60524 1.72139 9.35742C1.47359 9.1095 1.33405 8.77301 1.33402 8.42253V6.49349C1.33167 6.17472 1.44371 5.86513 1.64978 5.62174L1.6654 5.60547C1.67497 5.59518 1.6856 5.58563 1.696 5.57617L1.71944 5.55404L4.50524 3.33138H11.4968L14.2806 5.54297ZM11.7038 6.88672C11.3386 6.88681 11.0381 7.16448 11.002 7.52018L10.9981 7.59245L11.002 7.66471C11.0383 8.02021 11.3387 8.29743 11.7038 8.29753L11.7754 8.29362C12.1311 8.25748 12.4094 7.95759 12.4095 7.59245C12.4095 7.22718 12.1312 6.92615 11.7754 6.88997L11.7038 6.88672ZM4.30082 7.08919C4.02487 7.08929 3.80099 7.31326 3.80082 7.58919C3.80082 7.86527 4.02476 8.08909 4.30082 8.08919H5.53389C5.8099 8.08904 6.03389 7.86524 6.03389 7.58919C6.03371 7.3133 5.80979 7.08935 5.53389 7.08919H4.30082ZM7.17907 7.08919C6.90312 7.08929 6.67925 7.31326 6.67907 7.58919C6.67907 7.86527 6.90301 8.08909 7.17907 8.08919H8.41215C8.68801 8.08886 8.91215 7.86513 8.91215 7.58919C8.91197 7.3134 8.6879 7.08952 8.41215 7.08919H7.17907Z" fill="#FAFAFA"/>
<path d="M11.0606 1.33203C11.2078 1.33203 11.3274 1.45112 11.3275 1.59831V2.0651C11.3275 2.21238 11.2079 2.33203 11.0606 2.33203H4.94079C4.79352 2.33203 4.67386 2.21238 4.67386 2.0651V1.85156C4.67362 1.84506 4.67191 1.83859 4.67191 1.83203C4.67191 1.82532 4.67361 1.81849 4.67386 1.81185V1.59831C4.67397 1.45112 4.79358 1.33203 4.94079 1.33203H11.0606Z" fill="#FAFAFA"/>
</svg>
