<svg width="16" height="16" viewBox="0 0 16 16" fill="none" xmlns="http://www.w3.org/2000/svg">
<path d="M12.5007 0.666504C12.2245 0.666504 12.0007 0.890362 12.0007 1.1665C12.0007 1.44265 12.2245 1.6665 12.5007 1.6665H13.8117L12.106 3.85953C11.9887 4.01027 11.9676 4.21463 12.0515 4.38618C12.1354 4.55773 12.3097 4.6665 12.5007 4.6665H14.834C15.1101 4.6665 15.334 4.44265 15.334 4.1665C15.334 3.89036 15.1101 3.6665 14.834 3.6665H13.523L15.2287 1.47347C15.3459 1.32273 15.367 1.11838 15.2831 0.946828C15.1992 0.77528 15.025 0.666504 14.834 0.666504H12.5007Z" fill="#FAFAFA"/>
<path fill-rule="evenodd" clip-rule="evenodd" d="M10.2621 1.72652C10.5114 1.8164 10.6673 2.05916 10.6673 2.32414V4.6665C10.6673 5.40288 11.2643 5.99984 12.0007 5.99984H13.8727C14.164 5.99984 14.4249 6.18819 14.4914 6.47173C14.6064 6.96244 14.6673 7.47403 14.6673 7.99984C14.6673 11.6817 11.6826 14.6665 8.00065 14.6665C4.31875 14.6665 1.33398 11.6817 1.33398 7.99984C1.33398 4.31794 4.31875 1.33317 8.00065 1.33317C8.79452 1.33317 9.55599 1.47193 10.2621 1.72652ZM8.50065 5.33317C8.50065 5.05703 8.27679 4.83317 8.00065 4.83317C7.72451 4.83317 7.50065 5.05703 7.50065 5.33317V7.99984C7.50065 8.13245 7.55333 8.25962 7.6471 8.35339L9.31376 10.0201C9.50903 10.2153 9.82561 10.2153 10.0209 10.0201C10.2161 9.82479 10.2161 9.50821 10.0209 9.31295L8.50065 7.79273V5.33317Z" fill="#FAFAFA"/>
</svg>
