<svg width="16" height="16" viewBox="0 0 16 16" fill="none" xmlns="http://www.w3.org/2000/svg">
<path fill-rule="evenodd" clip-rule="evenodd" d="M8.66667 4.5C8.66667 4.22386 8.89052 4 9.16667 4H12.8333C13.8459 4 14.6667 4.82081 14.6667 5.83333V12.8333C14.6667 13.8459 13.8459 14.6667 12.8333 14.6667H5.83333C4.82081 14.6667 4 13.8459 4 12.8333V9.16667C4 8.89052 4.22386 8.66667 4.5 8.66667C4.77614 8.66667 5 8.89052 5 9.16667V12.8333C5 13.2936 5.3731 13.6667 5.83333 13.6667H12.8333C13.2936 13.6667 13.6667 13.2936 13.6667 12.8333V5.83333C13.6667 5.3731 13.2936 5 12.8333 5H9.16667C8.89052 5 8.66667 4.77614 8.66667 4.5Z" fill="#FAFAFA"/>
<path d="M7.08325 6.37171C7.24346 6.56809 7.23182 6.85791 7.04875 7.04098C6.86568 7.22405 6.57587 7.23569 6.37948 7.07548L6.34172 7.04098L1.34172 2.04098C1.14646 1.84572 1.14646 1.52921 1.34172 1.33395C1.53698 1.13868 1.85349 1.13868 2.04875 1.33395L7.04875 6.33395L7.08325 6.37171Z" fill="#FAFAFA"/>
<path d="M7.19458 6.68681L7.19198 6.73824C7.16624 6.99021 6.95333 7.18677 6.69458 7.18681L2.69523 7.18746C2.49302 7.18746 2.31039 7.06569 2.23299 6.87887C2.15563 6.69204 2.19873 6.47693 2.34172 6.33395L6.34172 2.33395C6.48471 2.19096 6.69982 2.14786 6.88664 2.22522C7.07346 2.30262 7.19523 2.48525 7.19523 2.68746L7.19458 6.68681Z" fill="#FAFAFA"/>
</svg>
