<svg width="16" height="16" viewBox="0 0 16 16" fill="none" xmlns="http://www.w3.org/2000/svg">
<path d="M11.5007 9.33333C12.6051 9.33342 13.5007 10.2288 13.5007 11.3333C13.5007 11.9248 13.2421 12.4542 12.834 12.8203C13.5167 13.1902 13.8733 13.7993 13.9831 14.2018C14.0557 14.4682 13.8985 14.743 13.6322 14.8158C13.3618 14.8892 11.9705 14.8334 11.5007 14.8333C11.0305 14.8334 9.63921 14.8893 9.36914 14.8158C9.10292 14.743 8.94568 14.4681 9.01823 14.2018C9.12799 13.7994 9.48438 13.1903 10.1667 12.8203C9.75888 12.4542 9.50065 11.9245 9.50065 11.3333C9.50065 10.2289 10.3962 9.33348 11.5007 9.33333Z" fill="#FAFAFA"/>
<path fill-rule="evenodd" clip-rule="evenodd" d="M11.5007 2C12.5132 2 13.334 2.82081 13.334 3.83333V8.95963C12.8269 8.56742 12.1912 8.33339 11.5007 8.33333C9.84401 8.33348 8.50065 9.67647 8.50065 11.3333C8.50065 11.8004 8.60945 12.2408 8.79948 12.6335C8.4419 13.0205 8.21104 13.4479 8.08984 13.8177L8.05338 13.9388C8.04787 13.959 8.045 13.9798 8.04036 14H1.83398C1.55784 14 1.33398 13.7761 1.33398 13.5C1.33398 13.2239 1.55784 13 1.83398 13H2.66732V3.83333C2.66732 2.82081 3.48813 2 4.50065 2H11.5007ZM5.83398 10C5.55784 10 5.33398 10.2239 5.33398 10.5C5.33398 10.7761 5.55784 11 5.83398 11H6.83398C7.11013 11 7.33398 10.7761 7.33398 10.5C7.33398 10.2239 7.11013 10 6.83398 10H5.83398ZM5.83398 7.33333C5.55784 7.33333 5.33398 7.55719 5.33398 7.83333C5.33398 8.10948 5.55784 8.33333 5.83398 8.33333H6.83398C7.11013 8.33333 7.33398 8.10948 7.33398 7.83333C7.33398 7.55719 7.11013 7.33333 6.83398 7.33333H5.83398ZM9.16732 7.33333C8.89118 7.33333 8.66732 7.55719 8.66732 7.83333C8.66732 8.10948 8.89118 8.33333 9.16732 8.33333H10.1673C10.4435 8.33333 10.6673 8.10948 10.6673 7.83333C10.6673 7.55719 10.4435 7.33333 10.1673 7.33333H9.16732ZM5.83398 4.66667C5.55784 4.66667 5.33398 4.89052 5.33398 5.16667C5.33398 5.44281 5.55784 5.66667 5.83398 5.66667H6.83398C7.11013 5.66667 7.33398 5.44281 7.33398 5.16667C7.33398 4.89052 7.11013 4.66667 6.83398 4.66667H5.83398ZM9.16732 4.66667C8.89118 4.66667 8.66732 4.89052 8.66732 5.16667C8.66732 5.44281 8.89118 5.66667 9.16732 5.66667H10.1673C10.4435 5.66667 10.6673 5.44281 10.6673 5.16667C10.6673 4.89052 10.4435 4.66667 10.1673 4.66667H9.16732Z" fill="#FAFAFA"/>
</svg>
