<svg width="16" height="16" viewBox="0 0 16 16" fill="none" xmlns="http://www.w3.org/2000/svg">
<path d="M4 12V13H12V12H4ZM3 11V5C3 4.44772 3.44771 4 4 4H12C12.5523 4 13 4.44772 13 5V11C13 11.5523 12.5523 12 12 12V13L12.1029 12.9974C13.1256 12.9456 13.9456 12.1256 13.9974 11.1029L14 11V5C14 3.92993 13.1596 3.05614 12.1029 3.0026L12 3H4L3.89713 3.0026C2.84037 3.05614 2 3.92993 2 5V11L2.0026 11.1029C2.05442 12.1256 2.87444 12.9456 3.89713 12.9974L4 13V12C3.44771 12 3 11.5523 3 11Z" fill="#FAFAFA"/>
<path d="M12.3333 5.33333C12.3333 4.96514 12.0349 4.66667 11.6667 4.66667H10.3333C9.96514 4.66667 9.66667 4.96514 9.66667 5.33333V10.6667C9.66667 11.0349 9.96514 11.3333 10.3333 11.3333H11.6667C12.0349 11.3333 12.3333 11.0349 12.3333 10.6667V5.33333Z" fill="#FAFAFA"/>
</svg>
