<svg width="16" height="16" viewBox="0 0 16 16" fill="none" xmlns="http://www.w3.org/2000/svg">
<path d="M8.28974 6.39054C8.59792 6.33147 8.91143 6.32599 9.21878 6.37101C9.18322 6.5269 9.1558 6.6836 9.13349 6.83065C9.09074 7.11252 9.05985 7.37567 9.0163 7.63664C9.015 7.64446 9.01307 7.65225 9.01174 7.66007C8.99849 7.73902 8.98393 7.81789 8.96747 7.89705C8.8231 8.59116 8.59657 8.98941 8.1107 9.12752C7.95832 9.17063 7.77608 9.11293 7.56969 8.94002C7.48856 8.87197 7.41872 8.7974 7.36526 8.73429C7.45503 8.59265 7.5411 8.48233 7.61852 8.39836C7.74028 8.26635 7.84443 8.19161 7.90758 8.15291C7.93889 8.13376 7.96134 8.12295 7.97138 8.11841C7.97353 8.11744 7.97659 8.1158 7.97659 8.1158L7.96747 8.11906L7.96422 8.11971L7.96292 8.12036L7.96161 8.11971C8.22577 8.03464 8.38198 7.75217 8.30992 7.48755C8.23755 7.22314 7.9648 7.07739 7.70055 7.16203L7.8275 7.62752C7.70479 7.17731 7.69924 7.16203 7.69924 7.16203L7.69664 7.16268L7.69273 7.16398C7.69019 7.16485 7.68727 7.16619 7.68427 7.16724C7.67797 7.16946 7.67032 7.17257 7.66214 7.1757C7.64557 7.18204 7.62456 7.18978 7.60094 7.20044C7.55347 7.22188 7.49261 7.25351 7.4219 7.29679C7.2797 7.38389 7.09903 7.51959 6.90758 7.72713C6.85055 7.78896 6.79392 7.8575 6.73635 7.93156C6.68956 7.8268 6.66626 7.73119 6.66083 7.6477C6.6484 7.45332 6.72465 7.2298 7.00198 6.98885C7.38569 6.68367 7.8273 6.4793 8.28974 6.39054Z" fill="#FAFAFA"/>
<path fill-rule="evenodd" clip-rule="evenodd" d="M13.4701 3.34041C14.1425 3.40858 14.6673 3.97623 14.6673 4.66659V5.13468C15.0277 5.14035 15.3195 5.43245 15.3229 5.79484L15.3451 10.1803C15.3483 10.5484 15.0524 10.8494 14.6843 10.8528C14.6786 10.8528 14.6729 10.8522 14.6673 10.8521V11.3333C14.6673 12.0236 14.1425 12.5913 13.4701 12.6594L13.334 12.6666H2.66734C1.97703 12.6665 1.40942 12.1416 1.34117 11.4693L1.33401 11.3333V10.8521C0.973781 10.8463 0.681906 10.5549 0.678412 10.1926L0.656277 5.80721C0.653014 5.43916 0.949041 5.13812 1.31708 5.13468C1.32269 5.13463 1.32844 5.1346 1.33401 5.13468V4.66659C1.3341 3.93033 1.93108 3.33333 2.66734 3.33325H13.334L13.4701 3.34041ZM10.03 5.52075C9.42531 5.32152 8.77915 5.27966 8.14651 5.40096C7.95302 5.4381 7.76335 5.4923 7.5775 5.55851H7.5762C7.574 5.5593 7.57189 5.56033 7.56969 5.56112C7.49361 5.5884 7.41823 5.61767 7.34378 5.64966C7.32895 5.656 7.31426 5.66267 7.29951 5.66919C7.23305 5.6987 7.16721 5.72974 7.10224 5.76294C7.08728 5.77054 7.0722 5.77793 7.05732 5.78573C6.99579 5.81814 6.93505 5.85227 6.87503 5.88794C6.85973 5.89699 6.844 5.90537 6.8288 5.91463C6.82474 5.91711 6.82049 5.9193 6.81643 5.92179C6.67189 6.01095 6.53203 6.10974 6.39781 6.21737L6.38349 6.22909C6.34628 6.26117 6.31077 6.29453 6.27607 6.32804L6.21422 6.38859C6.19957 6.40378 6.18539 6.41936 6.17125 6.43481C6.15982 6.44731 6.14848 6.45991 6.1374 6.47257C6.11269 6.5008 6.08939 6.52947 6.06643 6.55851C5.79004 6.90815 5.64209 7.31634 5.6706 7.75773C5.69795 8.17858 5.88409 8.57002 6.17385 8.92244C6.05368 9.21411 5.94456 9.55154 5.85484 9.94067C5.79201 10.2137 5.95805 10.4777 6.22464 10.5299C6.49135 10.5816 6.75868 10.4019 6.82164 10.1288C6.85403 9.98833 6.88981 9.85747 6.92646 9.7356C7.21795 9.97719 7.72252 10.2714 8.33857 10.0969C9.42424 9.78877 9.77743 8.83639 9.93818 8.06372C10.0181 7.67926 10.0659 7.25822 10.114 6.94132C10.1672 6.59011 10.2222 6.35945 10.2949 6.21997C10.3632 6.08875 10.373 5.93604 10.3223 5.802C10.3214 5.79958 10.32 5.79725 10.319 5.79484C10.3134 5.7807 10.3077 5.76656 10.3008 5.75317L10.2741 5.70825C10.2164 5.62075 10.1311 5.55413 10.03 5.52075ZM4.23245 9.44132C3.95641 9.44142 3.73249 9.66527 3.73245 9.94132C3.73262 10.2173 3.95649 10.4412 4.23245 10.4413H4.66734C4.94349 10.4413 5.16734 10.2175 5.16734 9.94132C5.16731 9.66521 4.94346 9.44133 4.66734 9.44132H4.23245ZM10.6673 9.44132C10.3912 9.44132 10.1674 9.66521 10.1673 9.94132C10.1673 10.2175 10.3912 10.4413 10.6673 10.4413H12.1016C12.3776 10.4413 12.6014 10.2173 12.6016 9.94132C12.6016 9.66521 12.3777 9.44132 12.1016 9.44132H10.6673ZM4.23245 7.49992C3.95641 7.50001 3.73249 7.72386 3.73245 7.99992C3.73254 8.27593 3.95644 8.49983 4.23245 8.49992H4.46747C4.74356 8.49985 4.96747 8.27602 4.96747 7.99992C4.96744 7.72385 4.74353 7.49999 4.46747 7.49992H4.23245ZM11.364 7.49992C11.0879 7.49993 10.864 7.72382 10.864 7.99992C10.864 8.27605 11.0878 8.4999 11.364 8.49992H12.1016C12.3777 8.49992 12.6015 8.27599 12.6016 7.99992C12.6016 7.72381 12.3777 7.49992 12.1016 7.49992H11.364ZM4.23245 5.55851C3.95641 5.5586 3.73249 5.78246 3.73245 6.05851C3.73245 6.3346 3.95638 6.55842 4.23245 6.55851H4.83401C5.11015 6.55851 5.33401 6.33465 5.33401 6.05851C5.33397 5.7824 5.11013 5.55851 4.83401 5.55851H4.23245ZM11.7377 5.55851C11.4615 5.55853 11.2377 5.78241 11.2377 6.05851C11.2377 6.33465 11.4615 6.5585 11.7377 6.55851H12.1016C12.3777 6.55851 12.6016 6.33465 12.6016 6.05851C12.6016 5.7824 12.3777 5.55851 12.1016 5.55851H11.7377Z" fill="#FAFAFA"/>
</svg>
