<svg width="16" height="16" viewBox="0 0 16 16" fill="none" xmlns="http://www.w3.org/2000/svg">
<path fill-rule="evenodd" clip-rule="evenodd" d="M2.66699 3.16683C2.66699 2.15431 3.4878 1.3335 4.50033 1.3335H11.5003C12.5128 1.3335 13.3337 2.15431 13.3337 3.16683V7.4883C12.7353 7.17645 12.0551 7.00016 11.3337 7.00016C8.94043 7.00016 7.00033 8.94026 7.00033 11.3335C7.00033 12.6738 7.60881 13.872 8.56461 14.6668H4.50033C3.4878 14.6668 2.66699 13.846 2.66699 12.8335V3.16683ZM4.66699 3.8335C4.66699 3.55735 4.89085 3.3335 5.16699 3.3335H9.50033C9.77647 3.3335 10.0003 3.55735 10.0003 3.8335C10.0003 4.10964 9.77647 4.3335 9.50033 4.3335H5.16699C4.89085 4.3335 4.66699 4.10964 4.66699 3.8335ZM4.66699 6.50016C4.66699 6.22402 4.89085 6.00016 5.16699 6.00016H6.83366C7.1098 6.00016 7.33366 6.22402 7.33366 6.50016C7.33366 6.77631 7.1098 7.00016 6.83366 7.00016H5.16699C4.89085 7.00016 4.66699 6.77631 4.66699 6.50016Z" fill="#FAFAFA"/>
<path fill-rule="evenodd" clip-rule="evenodd" d="M11.3356 8.99626C10.0459 8.99626 9.00033 10.0418 9.00033 11.3315C9.00033 12.6213 10.0459 13.6668 11.3356 13.6668C12.6254 13.6668 13.6709 12.6213 13.6709 11.3315C13.6709 10.0418 12.6254 8.99626 11.3356 8.99626ZM12.6006 10.2443C12.4288 10.1475 12.2104 10.174 12.0661 10.3133L12.0563 10.3231L12.0433 10.3368C12.0409 10.3393 12.0383 10.3424 12.036 10.3452L12.0348 10.3465L10.9977 11.5705L10.6071 11.1799L10.598 11.172L10.5843 11.159L10.5726 11.1493L10.5029 11.1024C10.3562 11.0227 10.1747 11.0304 10.0348 11.1252L9.96842 11.1799C9.80335 11.345 9.79309 11.6064 9.93783 11.784L9.93993 11.7866C9.94242 11.7897 9.945 11.7929 9.94759 11.7957L9.96061 11.8094L9.96275 11.8118L9.96842 11.8179L10.7152 12.5646L10.7295 12.5776C10.7334 12.5812 10.7378 12.5847 10.7419 12.5881C10.8274 12.6573 10.9353 12.6928 11.0446 12.6883C11.1704 12.683 11.2886 12.625 11.3701 12.5288L12.7236 10.9292C12.7261 10.9263 12.7285 10.9231 12.7308 10.9201L12.7425 10.9051C12.7456 10.9011 12.7488 10.8969 12.7516 10.8927C12.8649 10.7274 12.8544 10.5083 12.7308 10.355L12.6709 10.2931L12.6006 10.2443Z" fill="#FAFAFA"/>
<path fill-rule="evenodd" clip-rule="evenodd" d="M11.3356 7.99626C13.1776 7.99626 14.6709 9.48952 14.6709 11.3315C14.6709 13.1736 13.1776 14.6668 11.3356 14.6668C9.49358 14.6668 8.00033 13.1736 8.00033 11.3315C8.00033 9.48952 9.49358 7.99626 11.3356 7.99626ZM9.00033 11.3315C9.00033 10.0418 10.0459 8.99626 11.3356 8.99626C12.6254 8.99626 13.6709 10.0418 13.6709 11.3315C13.6709 12.6213 12.6254 13.6668 11.3356 13.6668C10.0459 13.6668 9.00033 12.6213 9.00033 11.3315Z" fill="#FAFAFA"/>
</svg>
