<svg width="16" height="16" viewBox="0 0 16 16" fill="none" xmlns="http://www.w3.org/2000/svg">
<path fill-rule="evenodd" clip-rule="evenodd" d="M10.099 1.39648C11.0834 1.39681 11.8844 2.17329 11.9277 3.14714H12.6667C13.403 3.14714 14 3.74474 14 4.48112V13.1478C13.9998 13.884 13.4029 14.4811 12.6667 14.4811H3.33333C2.59695 14.4811 2 13.8835 2 13.1471V4.48047C2.00018 3.74424 2.59706 3.14714 3.33333 3.14714H4.07227C4.11562 2.17309 4.91696 1.39648 5.90169 1.39648H10.099ZM9.69141 9.5C9.59168 9.50005 9.49506 9.52994 9.41341 9.58464L9.33724 9.64714C8.72758 10.2595 8.1425 10.25 7.99935 10.25C7.85647 10.25 7.27067 10.2597 6.66081 9.64714C6.56699 9.55299 6.43955 9.5 6.30664 9.5C6.2069 9.50001 6.11032 9.52996 6.02865 9.58464L5.95247 9.64714C5.61851 9.98259 5.37996 10.1154 5.17383 10.1784C4.95104 10.2465 4.72126 10.25 4.33333 10.25C4.05719 10.25 3.83333 10.4739 3.83333 10.75C3.83333 11.0261 4.05719 11.25 4.33333 11.25C4.69203 11.25 5.07561 11.2535 5.46615 11.1341C5.75649 11.0454 6.02958 10.8957 6.3125 10.6673C7.07095 11.242 7.77868 11.25 7.99935 11.25C8.2213 11.25 8.93412 11.2412 9.69661 10.6582C10.5316 11.2565 11.4697 11.25 11.651 11.25C11.9271 11.2499 12.151 11.0261 12.151 10.75C12.151 10.4739 11.9271 10.2501 11.651 10.25C11.4608 10.25 10.6378 10.2413 10.0462 9.64714C9.95239 9.55289 9.8244 9.5 9.69141 9.5ZM9.69141 6.83333C9.59168 6.83339 9.49506 6.86327 9.41341 6.91797L9.33724 6.98047C8.72758 7.59282 8.1425 7.58334 7.99935 7.58333C7.85647 7.58333 7.27067 7.59305 6.66081 6.98047C6.56699 6.88633 6.43955 6.83333 6.30664 6.83333C6.2069 6.83335 6.11032 6.86329 6.02865 6.91797L5.95247 6.98047C5.61851 7.31592 5.37996 7.4487 5.17383 7.51172C4.95104 7.5798 4.72126 7.58333 4.33333 7.58333C4.05719 7.58333 3.83333 7.80719 3.83333 8.08333C3.83333 8.35948 4.05719 8.58333 4.33333 8.58333C4.69203 8.58333 5.07561 8.58683 5.46615 8.46745C5.75649 8.37869 6.02958 8.22902 6.3125 8.00065C7.07095 8.57537 7.77868 8.58333 7.99935 8.58333C8.2213 8.58333 8.93412 8.57456 9.69661 7.99154C10.5316 8.58983 11.4697 8.58333 11.651 8.58333C11.9271 8.58322 12.151 8.35941 12.151 8.08333C12.151 7.80726 11.9271 7.58345 11.651 7.58333C11.4608 7.58333 10.6378 7.57462 10.0462 6.98047C9.95239 6.88622 9.8244 6.83333 9.69141 6.83333Z" fill="#FAFAFA"/>
</svg>
