<svg width="16" height="16" viewBox="0 0 16 16" fill="none" xmlns="http://www.w3.org/2000/svg">
<path d="M12.0543 2H3.94703C3.59093 1.99999 3.29369 1.99999 3.05087 2.01983C2.79762 2.04052 2.55984 2.08526 2.335 2.19982C1.99004 2.37559 1.70957 2.65605 1.53381 3.00102C1.41924 3.22586 1.3745 3.46363 1.35381 3.71689C1.33397 3.95971 1.33398 4.25694 1.33398 4.61304V9.38696C1.33398 9.74306 1.33397 10.0403 1.35381 10.2831C1.3745 10.5364 1.41924 10.7741 1.53381 10.999C1.70957 11.3439 1.99004 11.6244 2.335 11.8002C2.55984 11.9147 2.79762 11.9595 3.05087 11.9802C3.29368 12 3.5909 12 3.94699 12H4.16732C4.44346 12 4.66732 11.7761 4.66732 11.5C4.66732 11.2239 4.44346 11 4.16732 11H3.96732C3.5857 11 3.32956 10.9996 3.1323 10.9835C2.94089 10.9679 2.84937 10.9399 2.78899 10.9092C2.63219 10.8293 2.50471 10.7018 2.42481 10.545C2.39405 10.4846 2.36613 10.3931 2.35049 10.2017C2.33437 10.0044 2.33398 9.74829 2.33398 9.36667V4.63333C2.33398 4.25172 2.33437 3.99557 2.35049 3.79832C2.36613 3.6069 2.39405 3.51538 2.42481 3.45501C2.50471 3.29821 2.63219 3.17072 2.78899 3.09083C2.84937 3.06007 2.94089 3.03215 3.1323 3.01651C3.32956 3.00039 3.5857 3 3.96732 3H12.034C12.4156 3 12.6717 3.00039 12.869 3.01651C13.0604 3.03215 13.1519 3.06007 13.2123 3.09083C13.3691 3.17072 13.4966 3.29821 13.5765 3.45501C13.6073 3.51538 13.6352 3.6069 13.6508 3.79832C13.6669 3.99557 13.6673 4.25172 13.6673 4.63333V9.36667C13.6673 9.74829 13.6669 10.0044 13.6508 10.2017C13.6352 10.3931 13.6073 10.4846 13.5765 10.545C13.4966 10.7018 13.3691 10.8293 13.2123 10.9092C13.1519 10.9399 13.0604 10.9679 12.869 10.9835C12.6717 10.9996 12.4156 11 12.034 11H11.834C11.5578 11 11.334 11.2239 11.334 11.5C11.334 11.7761 11.5578 12 11.834 12H12.0543C12.4104 12 12.7076 12 12.9504 11.9802C13.2037 11.9595 13.4415 11.9147 13.6663 11.8002C14.0113 11.6244 14.2917 11.3439 14.4675 10.999C14.5821 10.7741 14.6268 10.5364 14.6475 10.2831C14.6673 10.0403 14.6673 9.74307 14.6673 9.38697V4.61303C14.6673 4.25694 14.6673 3.95971 14.6475 3.71689C14.6268 3.46363 14.5821 3.22586 14.4675 3.00102C14.2917 2.65605 14.0113 2.37559 13.6663 2.19982C13.4415 2.08526 13.2037 2.04052 12.9504 2.01983C12.7076 1.99999 12.4104 1.99999 12.0543 2Z" fill="#FAFAFA"/>
<path d="M8.00065 9.5C8.1567 9.5 8.3038 9.57285 8.39837 9.69698L11.065 13.197C11.1802 13.3482 11.1997 13.5516 11.1154 13.7219C11.031 13.8922 10.8574 14 10.6673 14H5.33399C5.14392 14 4.97029 13.8922 4.88593 13.7219C4.80157 13.5516 4.82108 13.3482 4.93627 13.197L7.60294 9.69698C7.69751 9.57285 7.84461 9.5 8.00065 9.5Z" fill="#FAFAFA"/>
</svg>
