<svg width="16" height="16" viewBox="0 0 16 16" fill="none" xmlns="http://www.w3.org/2000/svg">
<path d="M13.4541 2C13.5987 2 13.7376 2.05744 13.8398 2.15918C13.9421 2.26099 14 2.39899 14 2.54297V9.91797C13.9999 10.0617 13.9428 10.2 13.8408 10.3018L10.2803 13.8408C10.1781 13.9424 10.04 13.9999 9.89551 14H2.5459C2.40129 14 2.26244 13.9426 2.16016 13.8408C2.05786 13.739 2 13.601 2 13.457V2.54297C2 2.39899 2.05786 2.26099 2.16016 2.15918C2.26244 2.05744 2.40129 2 2.5459 2H13.4541ZM9.83301 9.33301C9.55712 9.33318 9.33318 9.55712 9.33301 9.83301V12.126C9.33301 12.5714 9.87154 12.7944 10.1865 12.4795L12.4795 10.1865C12.7944 9.87154 12.5714 9.33301 12.126 9.33301H9.83301Z" fill="#FAFAFA"/>
</svg>
