<svg width="16" height="16" viewBox="0 0 16 16" fill="none" xmlns="http://www.w3.org/2000/svg">
<path fill-rule="evenodd" clip-rule="evenodd" d="M14.2105 7.80658C14.4448 7.80658 14.646 7.95277 14.7401 8.16299C14.7437 8.17892 14.7462 8.19522 14.7485 8.21116C14.7805 8.29035 14.7982 8.37813 14.7982 8.46963V12.8854C14.7982 12.8877 14.7976 12.896 14.7974 12.8983V12.9264C14.7973 13.2695 14.5346 13.5485 14.2105 13.5485H2.05256C1.72843 13.5485 1.46567 13.2695 1.46561 12.9264V12.8983C1.46541 12.896 1.46484 12.8877 1.46484 12.8854V8.46963C1.46486 8.37813 1.48248 8.29035 1.51452 8.21116C1.51683 8.19522 1.51937 8.17892 1.52293 8.16299C1.61702 7.95277 1.8182 7.80658 2.05256 7.80658H14.2105ZM5.5185 9.86839C5.5185 9.64011 5.34297 9.45502 5.1265 9.45498H3.03563C2.81923 9.45509 2.64364 9.64016 2.64364 9.86839V10.9577C2.64364 11.1859 2.81923 11.371 3.03563 11.3711H3.348C3.45967 11.6841 3.74562 11.9073 4.08145 11.9073C4.41712 11.9072 4.70251 11.684 4.81414 11.3711H5.1265C5.34297 11.3711 5.5185 11.186 5.5185 10.9577V9.86839ZM9.56932 9.86839C9.56932 9.64011 9.39379 9.45502 9.17733 9.45498H7.08646C6.87005 9.45509 6.69447 9.64016 6.69447 9.86839V10.9577C6.69447 11.1859 6.87006 11.371 7.08646 11.3711H7.39883C7.51049 11.6841 7.79645 11.9073 8.13228 11.9073C8.46794 11.9072 8.75334 11.684 8.86496 11.3711H9.17733C9.39379 11.3711 9.56932 11.186 9.56932 10.9577V9.86839ZM13.6201 9.86839C13.6201 9.64011 13.4446 9.45502 13.2282 9.45498H11.1373C10.9209 9.45509 10.7453 9.64016 10.7453 9.86839V10.9577C10.7453 11.1859 10.9209 11.371 11.1373 11.3711H11.4496C11.5613 11.6841 11.8473 11.9073 12.1831 11.9073C12.5188 11.9072 12.8042 11.684 12.9158 11.3711H13.2282C13.4446 11.3711 13.6201 11.186 13.6201 10.9577V9.86839Z" fill="#FAFAFA"/>
<path d="M14.1076 6.81535L13.9896 6.56396L12.6498 3.7817L12.643 3.76644L12.6368 3.75199C12.5248 3.48569 12.3487 3.26526 12.134 3.11302C11.9462 2.98 11.7344 2.90297 11.518 2.88585L11.4247 2.88184H4.8383L4.74506 2.88585C4.5286 2.90297 4.31679 2.98 4.12906 3.11302C3.91432 3.26526 3.73825 3.48569 3.62618 3.75199L3.62007 3.76644L3.61319 3.7817L2.27604 6.56396L2.15805 6.81535H14.1076Z" fill="#FAFAFA"/>
</svg>
