<svg width="16" height="16" viewBox="0 0 16 16" fill="none" xmlns="http://www.w3.org/2000/svg">
<path d="M7.89974 6.29948H6.5V4.89974H7.89974V6.29948Z" fill="#FAFAFA"/>
<path fill-rule="evenodd" clip-rule="evenodd" d="M11.6003 1.5C11.945 1.50003 12.2758 1.63707 12.5195 1.88086C12.7633 2.12467 12.9004 2.45544 12.9004 2.80013V6.49089L13.7812 6.93164C13.9971 7.03965 14.1792 7.20561 14.306 7.41081C14.4329 7.61624 14.5001 7.85298 14.5 8.0944V10.3053C14.5001 10.5468 14.4329 10.7835 14.306 10.9889C14.1792 11.1942 13.9979 11.3607 13.7819 11.4688L12.9004 11.9089V13.1999C12.9004 13.5445 12.7633 13.8753 12.5195 14.1191C12.2757 14.3629 11.9449 14.5 11.6003 14.5H3.60026C3.25551 14.5 2.92481 14.363 2.68099 14.1191C2.43719 13.8753 2.30013 13.5446 2.30013 13.1999V7.19987C2.1449 7.13517 2.00208 7.04046 1.88086 6.91927C1.63716 6.67554 1.50006 6.34466 1.5 6V4.40039C1.5 4.05567 1.63713 3.72491 1.88086 3.48112C2.00213 3.35985 2.14482 3.26459 2.30013 3.19987V2.80013C2.30013 2.45535 2.4372 2.12465 2.68099 1.88086C2.92479 1.63706 3.25549 1.5 3.60026 1.5H11.6003ZM10 9.5C9.72386 9.5 9.5 9.72386 9.5 10V10.3001H8.10026V10C8.10026 9.72386 7.8764 9.5 7.60026 9.5C7.32412 9.5 7.10026 9.72386 7.10026 10V10.3001H5.69987V10C5.69987 9.72386 5.47601 9.5 5.19987 9.5C4.92373 9.5 4.69987 9.72386 4.69987 10V10.3001H4.39974C4.1236 10.3001 3.89974 10.524 3.89974 10.8001V12.4004C3.89997 12.6763 4.12374 12.9004 4.39974 12.9004H10.7995C11.0755 12.9004 11.2993 12.6763 11.2995 12.4004V10.8001C11.2995 10.524 11.0756 10.3001 10.7995 10.3001H10.5V10C10.5 9.72386 10.2761 9.5 10 9.5ZM10.3997 6.10026C10.0133 6.10033 9.69994 6.41362 9.69987 6.80013C9.7 7.18658 10.0133 7.49993 10.3997 7.5C10.7862 7.5 11.0995 7.18663 11.0996 6.80013C11.0995 6.43775 10.8243 6.13937 10.4714 6.10352L10.3997 6.10026ZM6.39974 3.89974C5.90297 3.89988 5.50027 4.30274 5.5 4.79948V6.39974C5.5 6.89671 5.90281 7.29934 6.39974 7.29948H8C8.49705 7.29948 8.89974 6.8968 8.89974 6.39974V4.79948C8.89947 4.30265 8.49688 3.89974 8 3.89974H6.39974ZM4.39974 4.30013C4.1236 4.30013 3.89974 4.52399 3.89974 4.80013V6C3.89983 6.27607 4.12365 6.5 4.39974 6.5C4.67583 6.5 4.89965 6.27607 4.89974 6V4.80013C4.89974 4.52399 4.67588 4.30013 4.39974 4.30013ZM10.3997 3.69987C10.0133 3.69994 9.70003 4.01331 9.69987 4.39974C9.69987 4.78631 10.0132 5.09954 10.3997 5.09961C10.7863 5.09961 11.0996 4.78635 11.0996 4.39974C11.0995 4.01326 10.7862 3.69987 10.3997 3.69987Z" fill="#FAFAFA"/>
</svg>
