<svg width="16" height="16" viewBox="0 0 16 16" fill="none" xmlns="http://www.w3.org/2000/svg">
<path d="M7.76693 9.82487C7.8971 9.69486 8.10816 9.69478 8.23828 9.82487L9.92708 11.5137C9.9895 11.5762 10.0247 11.661 10.0247 11.7493V12.8281C10.0247 12.9164 9.98946 13.0013 9.92708 13.0638C9.86466 13.1261 9.77961 13.1614 9.69141 13.1615H6.30794C6.124 13.1613 5.9747 13.0121 5.97461 12.8281V11.7552C5.97461 11.6669 6.00987 11.582 6.07227 11.5195L7.76693 9.82487Z" fill="#FAFAFA"/>
<path d="M9.69141 3.44466C9.87543 3.44466 10.0246 3.594 10.0247 3.77799V4.18424C10.0247 4.27265 9.9896 4.35741 9.92708 4.41992L8.23242 6.11458C8.10223 6.2446 7.89119 6.24471 7.76107 6.11458L6.07227 4.42578C6.00999 4.3633 5.97461 4.27833 5.97461 4.1901V3.77799C5.97467 3.68974 6.0099 3.60476 6.07227 3.54232C6.13465 3.47993 6.21973 3.4448 6.30794 3.44466H9.69141Z" fill="#FAFAFA"/>
<path fill-rule="evenodd" clip-rule="evenodd" d="M12.4727 1.11133C12.7486 1.11162 12.9727 1.33537 12.9727 1.61133C12.9727 1.88729 12.7486 2.11104 12.4727 2.11133H11.694V4.27669C11.6939 4.74815 11.5066 5.20053 11.1732 5.53385L8.70638 8L11.1725 10.4661C11.5059 10.7994 11.6938 11.2519 11.694 11.7233V13.8893H12.4727C12.7486 13.8896 12.9727 14.1134 12.9727 14.3893C12.9725 14.6652 12.7485 14.889 12.4727 14.8893H3.52799C3.25192 14.8893 3.02746 14.6654 3.02734 14.3893C3.02734 14.1132 3.25185 13.8893 3.52799 13.8893H4.30534V11.7233C4.3055 11.2519 4.49281 10.7994 4.82617 10.4661L7.29232 8L4.82617 5.53385C4.53443 5.24218 4.35426 4.85943 4.3138 4.45247L4.30534 4.27669V2.11133H3.52799C3.25185 2.11133 3.02734 1.88747 3.02734 1.61133C3.02734 1.33519 3.25185 1.11133 3.52799 1.11133H12.4727ZM5.5332 11.1738C5.3875 11.3195 5.3055 11.5173 5.30534 11.7233V13.8893H10.694V11.7233C10.6938 11.5172 10.6119 11.3195 10.4661 11.1738L7.99935 8.70703L5.5332 11.1738ZM5.30534 4.27669L5.30924 4.35352C5.32695 4.53153 5.4056 4.69923 5.5332 4.82682L7.99935 7.29297L10.4661 4.82682C10.5938 4.69923 10.6724 4.53154 10.6901 4.35352L10.694 4.27669V2.11133H5.30534V4.27669Z" fill="#FAFAFA"/>
</svg>
