<svg width="16" height="16" viewBox="0 0 16 16" fill="none" xmlns="http://www.w3.org/2000/svg">
<path d="M4.66602 12.8333C4.94216 12.8333 5.16602 13.0571 5.16602 13.3333V13.9999C5.16597 14.2761 4.94213 14.4999 4.66602 14.4999C4.3899 14.4999 4.16606 14.2761 4.16602 13.9999V13.3333C4.16602 13.0571 4.38987 12.8333 4.66602 12.8333Z" fill="#FAFAFA"/>
<path d="M6.66602 12.8333C6.94216 12.8333 7.16602 13.0571 7.16602 13.3333V13.9999C7.16597 14.2761 6.94213 14.4999 6.66602 14.4999C6.3899 14.4999 6.16606 14.2761 6.16602 13.9999V13.3333C6.16602 13.0571 6.38987 12.8333 6.66602 12.8333Z" fill="#FAFAFA"/>
<path d="M8.66602 12.8333C8.94216 12.8333 9.16602 13.0571 9.16602 13.3333V13.9999C9.16597 14.2761 8.94213 14.4999 8.66602 14.4999C8.3899 14.4999 8.16606 14.2761 8.16602 13.9999V13.3333C8.16602 13.0571 8.38987 12.8333 8.66602 12.8333Z" fill="#FAFAFA"/>
<path d="M10.666 12.8333C10.9422 12.8333 11.166 13.0571 11.166 13.3333V13.9999C11.166 14.2761 10.9421 14.4999 10.666 14.4999C10.3899 14.4999 10.1661 14.2761 10.166 13.9999V13.3333C10.166 13.0571 10.3899 12.8333 10.666 12.8333Z" fill="#FAFAFA"/>
<path d="M3.63281 7.49995C3.63287 8.42037 4.37904 9.16662 5.29948 9.16662C6.21992 9.16662 6.96609 8.42037 6.96615 7.49995V5.49995H8.29948V7.49995C8.29954 8.42037 9.04571 9.16662 9.96615 9.16662C10.8866 9.16662 11.6328 8.42037 11.6328 7.49995V5.49995H12.3327C13.3452 5.49995 14.166 6.32077 14.166 7.33328V10.0664C14.166 11.0788 13.3452 11.8997 12.3327 11.8997H2.99935C1.98686 11.8997 1.16608 11.0788 1.16602 10.0664V7.33328C1.16603 6.32077 1.98684 5.49995 2.99935 5.49995H3.63281V7.49995Z" fill="#FAFAFA"/>
<path d="M5.96615 7.49995C5.96609 7.86809 5.66763 8.16662 5.29948 8.16662C4.93133 8.16662 4.63287 7.86809 4.63281 7.49995V5.49995H5.96615V7.49995Z" fill="#FAFAFA"/>
<path d="M10.6328 7.49995C10.6328 7.86809 10.3343 8.16662 9.96615 8.16662C9.59799 8.16662 9.29954 7.86809 9.29948 7.49995V5.49995H10.6328V7.49995Z" fill="#FAFAFA"/>
<path d="M4.13281 2.83328C4.40895 2.83328 4.6328 3.05715 4.63281 3.33328V5.49995H3.63281V3.33328C3.63283 3.05715 3.85668 2.83328 4.13281 2.83328Z" fill="#FAFAFA"/>
<path d="M7.63281 2.83328C8.55328 2.83328 9.29947 3.57949 9.29948 4.49995V5.49995H8.29948V4.49995C8.29946 4.13177 8.00099 3.83328 7.63281 3.83328C7.26463 3.83328 6.96616 4.13177 6.96615 4.49995V5.49995H5.96615V4.49995C5.96616 3.57949 6.71235 2.83328 7.63281 2.83328Z" fill="#FAFAFA"/>
<path d="M12.6458 1.64643C12.8411 1.45119 13.1576 1.45119 13.3529 1.64643L14.6862 2.97977C14.8814 3.17503 14.8814 3.49155 14.6862 3.6868L13.3529 5.02013C13.1576 5.21532 12.8411 5.21532 12.6458 5.02013C12.4506 4.82489 12.4506 4.50836 12.6458 4.3131L13.1257 3.83328H12.4661C12.0059 3.83328 11.6328 4.20639 11.6328 4.66662V5.49995H10.6328V4.66662C10.6328 3.65411 11.4536 2.83328 12.4661 2.83328H13.1257L12.6458 2.35346C12.4506 2.15822 12.4506 1.8417 12.6458 1.64643Z" fill="#FAFAFA"/>
</svg>
