<svg width="16" height="16" viewBox="0 0 16 16" fill="none" xmlns="http://www.w3.org/2000/svg">
<path d="M4.07292 7.42255C4.31647 7.25694 4.64817 7.32032 4.8138 7.56383C4.97943 7.80739 4.91607 8.13911 4.67253 8.30471C4.12902 8.67443 3.62304 9.37771 3.25195 10.3587C2.93488 11.1971 2.72907 12.206 2.67839 13.3034H8.51628C8.49723 12.9761 8.46429 12.6428 8.42969 12.2969C8.38104 11.9134 8.23126 11.2705 8.02409 10.6101C7.81396 9.94037 7.56342 9.31307 7.33398 8.94599C7.17811 8.69621 7.25424 8.36766 7.50391 8.21161C7.75358 8.05566 8.08215 8.13129 8.23828 8.38089C8.54213 8.86705 8.82515 9.60024 9.04167 10.2904C9.25997 10.9862 9.43007 11.7 9.48893 12.1706L9.49023 12.1836L9.49154 12.196C9.54407 12.7212 9.5996 13.2772 9.59961 13.8373C9.59945 14.1316 9.36081 14.3704 9.06641 14.3705H2.13281C1.83842 14.3704 1.59977 14.1316 1.59961 13.8373C1.59962 12.421 1.83515 11.0891 2.25391 9.9818C2.66941 8.88324 3.28327 7.95951 4.07292 7.42255Z" fill="#FAFAFA"/>
<path d="M5.54622 9.30341C7.19513 9.30341 7.35851 12.4337 7.35937 12.4505H3.78646C3.78704 12.4337 3.89737 9.30346 5.54622 9.30341Z" fill="#FAFAFA"/>
<path d="M8.53711 5.64846C8.81866 5.5624 9.11691 5.72047 9.20312 6.00198C9.28936 6.28362 9.1306 6.58177 8.84896 6.66799L6.23568 7.46812C5.95411 7.55427 5.65598 7.3961 5.56966 7.11461C5.48348 6.83296 5.6422 6.53415 5.92383 6.44794L8.53711 5.64846Z" fill="#FAFAFA"/>
<path d="M10.9863 1.67711C11.5728 1.67712 12.1594 1.78355 12.6393 1.99677C13.6526 2.31675 14.3996 3.17031 14.3997 4.13023C14.3997 5.09023 13.706 5.9438 12.6393 6.37047C12.1594 6.58371 11.5729 6.69012 10.9863 6.69013H10.6126C10.4529 6.68999 10.3463 6.58366 10.293 6.42385C10.1863 5.73054 10.1328 4.98359 10.1328 4.18362C10.1328 3.38368 10.1863 2.63667 10.293 1.94339C10.2932 1.7837 10.4529 1.67725 10.6126 1.67711H10.9863Z" fill="#FAFAFA"/>
<path d="M8.53711 3.62177C8.81861 3.53574 9.11687 3.69387 9.20312 3.97529C9.28936 4.25693 9.1306 4.55573 8.84896 4.64195L6.23568 5.44143C5.95407 5.52764 5.65594 5.36948 5.56966 5.08792C5.48349 4.80629 5.6422 4.50811 5.92383 4.4219L8.53711 3.62177Z" fill="#FAFAFA"/>
<path d="M8.53711 1.64846C8.81866 1.5624 9.11691 1.72047 9.20312 2.00198C9.28936 2.28362 9.1306 2.58177 8.84896 2.66799L6.23568 3.46813C5.95412 3.55429 5.65598 3.39609 5.56966 3.11461C5.48349 2.83297 5.6422 2.53416 5.92383 2.44794L8.53711 1.64846Z" fill="#FAFAFA"/>
</svg>
