<svg width="16" height="16" viewBox="0 0 16 16" fill="none" xmlns="http://www.w3.org/2000/svg">
<path fill-rule="evenodd" clip-rule="evenodd" d="M7.09831 8.06722C7.24962 7.92322 7.47868 7.84808 7.71159 7.90706L7.8112 7.94027L7.83138 7.94938C8.6932 8.36078 9.42154 9.00475 9.93294 9.80746L10.0195 9.93962C10.4414 10.6052 10.6666 11.3766 10.6667 12.1655V12.1694C10.6554 13.6146 9.45478 14.6171 8.1276 14.6629L7.99935 14.6642C6.67327 14.648 5.39212 13.6602 5.34245 12.215L5.33398 12.0828C5.3147 11.4243 5.64122 10.8152 6.12435 10.4207C6.28517 10.2767 6.50946 10.1748 6.76497 10.2352C6.99494 10.2897 7.13378 10.4508 7.19857 10.5737L7.25846 10.6694C7.34728 10.4075 7.36782 10.1022 7.32161 9.78857L7.29948 9.66162C7.24066 9.36782 7.13386 9.08492 6.98307 8.82438L6.98372 8.82373C6.80717 8.52215 6.94132 8.21669 7.09831 8.06722Z" fill="#FAFAFA"/>
<path fill-rule="evenodd" clip-rule="evenodd" d="M13 1.3335C13.275 1.3335 13.5105 1.43134 13.7064 1.62712C13.9021 1.82301 14 2.0585 14 2.3335V3.3335C14 3.6085 13.9021 3.84411 13.7064 4.03988C13.5105 4.23572 13.275 4.3335 13 4.3335H12.0501L11.5501 5.68376C11.4732 5.87527 11.3488 6.03115 11.1777 6.15186C11.0067 6.27271 10.8142 6.33345 10.6003 6.3335H5.31641C5.09984 6.33344 4.9041 6.26867 4.72917 6.13949C4.55423 6.01041 4.4332 5.84189 4.36654 5.63363L3.94987 4.3335H3C2.725 4.3335 2.4894 4.23578 2.29362 4.03988C2.09773 3.84411 2 3.6085 2 3.3335V2.3335C2 2.05854 2.09779 1.82299 2.29362 1.62712C2.4894 1.43134 2.725 1.3335 3 1.3335H13ZM5.31641 5.3335H10.6836L10.9831 4.3335H5.01693L5.31641 5.3335Z" fill="#FAFAFA"/>
</svg>
