<svg width="16" height="16" viewBox="0 0 16 16" fill="none" xmlns="http://www.w3.org/2000/svg">
<path fill-rule="evenodd" clip-rule="evenodd" d="M8.45897 6.95594C8.29897 6.84394 8.13097 6.75594 7.96297 6.69194C7.78297 6.61994 7.56697 6.58394 7.31497 6.58394C7.04297 6.58394 6.81097 6.64394 6.60697 6.75994C6.39897 6.87994 6.23897 7.03994 6.11897 7.24794C6.00297 7.44794 5.94297 7.67994 5.94297 7.95194C5.94297 8.31994 6.05497 8.60794 6.26297 8.83194C6.48297 9.04794 6.75097 9.15994 7.09097 9.15994C7.43097 9.15994 7.67897 9.07994 7.89097 8.93194C8.11097 8.77994 8.30297 8.58794 8.46297 8.35194V6.95594H8.45897Z" fill="#FAFAFA"/>
<path fill-rule="evenodd" clip-rule="evenodd" d="M7.86722 1.19995C4.18322 1.19995 1.19922 4.18395 1.19922 7.86795C1.19922 11.552 4.18322 14.536 7.86722 14.536C11.5512 14.536 14.5352 11.552 14.5352 7.86795C14.5352 4.18395 11.5472 1.19995 7.86722 1.19995ZM9.86722 11.7H5.19922C4.92322 11.7 4.69922 11.476 4.69922 11.2C4.69922 10.924 4.92322 10.7 5.19922 10.7H9.86722C10.1432 10.7 10.3672 10.924 10.3672 11.2C10.3672 11.476 10.1432 11.7 9.86722 11.7ZM9.86722 5.03195H9.39922V9.61195C9.39922 9.73595 9.35122 9.84395 9.27122 9.93195H9.26722L9.26322 9.93995C9.17122 10.028 9.05522 10.064 8.93122 10.064C8.80722 10.064 8.70322 10.024 8.61122 9.94795L8.59922 9.93995L8.59122 9.93195C8.51122 9.84395 8.46322 9.73995 8.46322 9.61595C8.33122 9.71195 8.18722 9.79595 8.03522 9.86395C7.74722 9.99995 7.43122 10.068 7.08722 10.068C6.70322 10.068 6.35122 9.98395 6.03122 9.80795C5.71922 9.63195 5.46722 9.38795 5.27922 9.07195C5.09522 8.73995 5.00722 8.36795 5.00722 7.94795C5.00722 7.51195 5.10322 7.11595 5.30322 6.76795C5.50722 6.42395 5.78322 6.15195 6.13122 5.95995C6.48722 5.76395 6.88322 5.66795 7.31522 5.66795C7.59122 5.66795 7.84722 5.70395 8.08322 5.77595C8.21122 5.81195 8.33922 5.85595 8.46322 5.90795V5.02395H7.86722C7.59122 5.02395 7.36722 4.79995 7.36722 4.52395C7.36722 4.24795 7.59122 4.02395 7.86722 4.02395H8.46322V3.44395C8.46322 3.31995 8.50722 3.20395 8.60322 3.11595H8.60722L8.61122 3.10795C8.70322 3.03195 8.81122 2.99195 8.93122 2.99195C9.05122 2.99195 9.17122 3.03195 9.26322 3.11595C9.35522 3.20395 9.40322 3.31995 9.40322 3.44395V4.02395H9.87122C10.1472 4.02395 10.3712 4.24795 10.3712 4.52395C10.3712 4.79995 10.1472 5.02395 9.87122 5.02395L9.86722 5.03195Z" fill="#FAFAFA"/>
</svg>
