<svg width="16" height="16" viewBox="0 0 16 16" fill="none" xmlns="http://www.w3.org/2000/svg">
<path d="M11.0104 8.49967C10.6423 8.49972 10.3437 8.79818 10.3437 9.16634C10.3437 9.5345 10.6423 9.83296 11.0104 9.83301C11.3786 9.83301 11.6771 9.53453 11.6771 9.16634C11.6771 8.79815 11.3786 8.49967 11.0104 8.49967Z" fill="#FAFAFA"/>
<path d="M4.84115 6.99967C4.7491 6.99967 4.67448 7.07429 4.67448 7.16634V8.49967C4.67448 8.59172 4.7491 8.66634 4.84115 8.66634H6.84115C6.93319 8.66634 7.00781 8.59172 7.00781 8.49967V7.16634C7.00781 7.07429 6.93319 6.99967 6.84115 6.99967H4.84115Z" fill="#FAFAFA"/>
<path fill-rule="evenodd" clip-rule="evenodd" d="M5.33398 1.33301C5.97832 1.33301 6.50065 1.85534 6.50065 2.49967V3.99967H13.334L13.4701 4.00684C14.1425 4.07501 14.6673 4.64257 14.6673 5.33301V12.6663C14.6673 13.3568 14.1425 13.9243 13.4701 13.9925L13.334 13.9997H2.66732C1.97688 13.9997 1.40932 13.4749 1.34115 12.8024L1.33398 12.6663V5.33301C1.33398 4.59663 1.93094 3.99967 2.66732 3.99967H3.50065V2.49967C3.50065 1.85534 4.02299 1.33301 4.66732 1.33301H5.33398ZM4.50065 2.49967C4.50065 2.40763 4.57527 2.33301 4.66732 2.33301H5.33398C5.42603 2.33301 5.50065 2.40763 5.50065 2.49967V3.99967H4.50065V2.49967ZM4.20964 11.167C4.14779 11.099 4.03931 11.02 3.89128 11.0049C3.87487 11.0029 3.8581 11.0016 3.84115 11.0016C3.82438 11.0016 3.8079 11.003 3.79167 11.0049C3.64333 11.0199 3.53455 11.0989 3.47266 11.167C3.41001 11.2359 3.35619 11.3341 3.34375 11.4508L3.34115 11.5016L3.34375 11.5524C3.35622 11.6689 3.41011 11.7667 3.47266 11.8356C3.53455 11.9037 3.64338 11.9826 3.79167 11.9977C3.80768 11.9996 3.82462 12.0016 3.84115 12.0016C3.85812 12.0016 3.87484 11.9997 3.89128 11.9977C4.03931 11.9825 4.1478 11.9036 4.20964 11.8356C4.28111 11.7569 4.34109 11.6407 4.34115 11.5016C4.34115 11.3624 4.2812 11.2457 4.20964 11.167ZM6.20964 11.167C6.14779 11.099 6.03931 11.02 5.89128 11.0049C5.87487 11.0029 5.8581 11.0016 5.84115 11.0016C5.82438 11.0016 5.8079 11.003 5.79167 11.0049C5.64333 11.0199 5.53455 11.0989 5.47266 11.167C5.41001 11.2359 5.35619 11.3341 5.34375 11.4508L5.34115 11.5016L5.34375 11.5524C5.35622 11.6689 5.41011 11.7667 5.47266 11.8356C5.53455 11.9037 5.64338 11.9826 5.79167 11.9977C5.80768 11.9996 5.82462 12.0016 5.84115 12.0016C5.85812 12.0016 5.87485 11.9997 5.89128 11.9977C6.03931 11.9825 6.1478 11.9036 6.20964 11.8356C6.28111 11.7569 6.34109 11.6407 6.34115 11.5016C6.34115 11.3624 6.2812 11.2457 6.20964 11.167ZM8.20963 11.167C8.14779 11.099 8.03931 11.02 7.89128 11.0049C7.87487 11.0029 7.8581 11.0016 7.84115 11.0016C7.82438 11.0016 7.8079 11.003 7.79167 11.0049C7.64333 11.0199 7.53455 11.0989 7.47266 11.167C7.41001 11.2359 7.35619 11.3341 7.34375 11.4508L7.34115 11.5016L7.34375 11.5524C7.35622 11.6689 7.41011 11.7667 7.47266 11.8356C7.53455 11.9037 7.64338 11.9826 7.79167 11.9977C7.80792 11.9996 7.82436 12.0016 7.84115 12.0016C7.85812 12.0016 7.87484 11.9997 7.89128 11.9977C8.03931 11.9825 8.1478 11.9036 8.20963 11.8356C8.28111 11.7569 8.34109 11.6407 8.34115 11.5016C8.34115 11.3624 8.2812 11.2457 8.20963 11.167ZM12.6771 9.16634C12.6771 8.24587 11.9309 7.49967 11.0104 7.49967C10.09 7.49972 9.34375 8.24589 9.34375 9.16634C9.34375 10.0868 10.09 10.833 11.0104 10.833C11.9309 10.833 12.6771 10.0868 12.6771 9.16634ZM8.00781 7.16634C8.00781 6.52201 7.48548 5.99967 6.84115 5.99967H4.84115C4.19681 5.99967 3.67448 6.52201 3.67448 7.16634V8.49967C3.67448 9.14401 4.19681 9.66634 4.84115 9.66634H6.84115C7.48548 9.66634 8.00781 9.14401 8.00781 8.49967V7.16634Z" fill="#FAFAFA"/>
</svg>
