<svg width="16" height="16" viewBox="0 0 16 16" fill="none" xmlns="http://www.w3.org/2000/svg">
<path fill-rule="evenodd" clip-rule="evenodd" d="M7.36719 1.8999C7.71191 1.8999 8.04267 2.03704 8.28646 2.28076C8.5302 2.5245 8.66725 2.85534 8.66732 3.20003V3.50016H9.36719C9.49974 3.50016 9.62695 3.55296 9.7207 3.64665L9.76693 3.69287L10.0482 3.41227C10.1688 3.2916 10.3124 3.1957 10.4701 3.13037C10.6277 3.06507 10.7968 3.03143 10.9674 3.03141C11.1382 3.03142 11.3078 3.06502 11.4655 3.13037C11.6231 3.19573 11.7667 3.2916 11.8874 3.41227L11.8867 3.41292L12.7552 4.28076L12.8411 4.37516C12.922 4.4737 12.9881 4.58447 13.0371 4.70264C13.1024 4.86023 13.136 5.02947 13.1361 5.20003C13.136 5.37061 13.1024 5.53983 13.0371 5.69743C12.9881 5.81563 12.922 5.92635 12.8411 6.0249L12.7552 6.1193L12.474 6.3999L12.5208 6.44678C12.6144 6.54046 12.6673 6.66789 12.6673 6.80029V12.8003C12.6672 13.1449 12.5301 13.4759 12.2865 13.7196C12.0427 13.9632 11.7119 14.1004 11.3672 14.1004H4.16732C3.82265 14.1004 3.49182 13.9632 3.24805 13.7196C3.00441 13.4759 2.86729 13.1449 2.86719 12.8003V4.80029C2.86725 4.45566 3.00438 4.12475 3.24805 3.88102C3.36931 3.75979 3.51203 3.66447 3.66732 3.59977V3.20003C3.66738 2.85534 3.80444 2.5245 4.04818 2.28076C4.29196 2.03704 4.62272 1.8999 4.96745 1.8999H7.36719ZM8.29753 5.4305C8.08257 5.36995 7.85286 5.45978 7.73568 5.6499L5.71484 8.93376C5.66025 9.02238 5.62403 9.12131 5.60807 9.22347L5.59896 9.32699C5.59602 9.46581 5.6309 9.60353 5.69857 9.72477C5.76631 9.84586 5.86539 9.94684 5.98503 10.0171C6.10481 10.0873 6.24138 10.1245 6.38021 10.1245H6.83659V12.0998C6.83659 12.3234 6.98544 12.5199 7.20052 12.5809C7.41568 12.6418 7.64512 12.5525 7.76237 12.3621L9.7832 9.07764C9.85589 8.95934 9.89617 8.82323 9.89909 8.68441C9.90116 8.58049 9.88237 8.47704 9.8444 8.38102L9.80013 8.28727L9.74349 8.20003C9.70218 8.14493 9.65322 8.09531 9.59896 8.0529L9.51367 7.9943L9.42057 7.94808C9.32522 7.90806 9.22194 7.88692 9.11784 7.88688H8.66146V5.91162C8.66121 5.68815 8.5126 5.49137 8.29753 5.4305ZM4.96745 2.8999C4.88794 2.8999 4.81146 2.93161 4.75521 2.98779C4.69901 3.044 4.66738 3.12056 4.66732 3.20003V3.50016H7.66732V3.20003C7.66725 3.12056 7.63563 3.044 7.57943 2.98779C7.52318 2.93161 7.44669 2.8999 7.36719 2.8999H4.96745Z" fill="#FAFAFA"/>
</svg>
