<svg width="16" height="16" viewBox="0 0 16 16" fill="none" xmlns="http://www.w3.org/2000/svg">
<path d="M5.86784 7.33317C6.23573 7.33317 6.5345 7.63146 6.5345 7.99984C6.53446 8.36812 6.2357 8.6665 5.86784 8.6665C5.49987 8.66636 5.20187 8.36782 5.20182 7.99984C5.20182 7.63176 5.49984 7.33331 5.86784 7.33317Z" fill="#FAFAFA"/>
<path d="M8.0013 7.33317C8.36914 7.33317 8.66797 7.63146 8.66797 7.99984C8.66792 8.36812 8.36911 8.6665 8.0013 8.6665C7.63324 8.66642 7.33468 8.36785 7.33464 7.99984C7.33464 7.63173 7.63321 7.33325 8.0013 7.33317Z" fill="#FAFAFA"/>
<path d="M10.1348 7.33317C10.5026 7.33317 10.8014 7.63146 10.8014 7.99984C10.8014 8.36812 10.5026 8.6665 10.1348 8.6665C9.76665 8.66649 9.46815 8.36789 9.4681 7.99984C9.4681 7.63169 9.76662 7.33318 10.1348 7.33317Z" fill="#FAFAFA"/>
<path fill-rule="evenodd" clip-rule="evenodd" d="M12.4017 1.6001C13.5062 1.60017 14.4017 2.49557 14.4017 3.6001V12.3996C14.4017 13.5041 13.5062 14.3995 12.4017 14.3996H3.60156C2.49699 14.3996 1.60156 13.5042 1.60156 12.3996V3.6001C1.60156 2.49553 2.49699 1.6001 3.60156 1.6001H12.4017ZM4.80143 5.86637C4.21239 5.86644 3.73503 6.34437 3.73503 6.93343V9.06624C3.73503 9.65532 4.21239 10.1332 4.80143 10.1333H11.2018C11.7908 10.1332 12.2682 9.65528 12.2682 9.06624V6.93343C12.2682 6.34441 11.7908 5.86651 11.2018 5.86637H4.80143Z" fill="#FAFAFA"/>
</svg>
