<svg width="16" height="16" viewBox="0 0 16 16" fill="none" xmlns="http://www.w3.org/2000/svg">
<path fill-rule="evenodd" clip-rule="evenodd" d="M12.6667 1.14453C13.403 1.14453 14 1.74148 14 2.47786V13.1445C14 13.8809 13.403 14.4779 12.6667 14.4779H3.33333C2.59695 14.4779 2 13.8809 2 13.1445V2.47786C2 1.74149 2.59695 1.14453 3.33333 1.14453H12.6667ZM8 5.20573C6.07931 5.20585 4.52228 6.76287 4.52214 8.68359C4.52214 10.6044 6.07922 12.162 8 12.1621C9.92088 12.1621 11.4785 10.6045 11.4785 8.68359C11.4784 6.7628 9.9208 5.20573 8 5.20573ZM9.3444 3.08398C8.97621 3.08398 8.67773 3.38246 8.67773 3.75065C8.67773 4.11884 8.97621 4.41732 9.3444 4.41732C9.71259 4.41732 10.0111 4.11884 10.0111 3.75065C10.0111 3.38246 9.71259 3.08398 9.3444 3.08398ZM11.403 3.08398C11.0348 3.08398 10.7363 3.38246 10.7363 3.75065C10.7363 4.11884 11.0348 4.41732 11.403 4.41732C11.7712 4.41732 12.0697 4.11884 12.0697 3.75065C12.0697 3.38246 11.7712 3.08398 11.403 3.08398Z" fill="#FAFAFA"/>
<path d="M6.01107 8.68359C6.01107 8.40745 6.23493 8.18359 6.51107 8.18359C6.78721 8.18359 7.01107 8.40745 7.01107 8.68359C7.01107 9.22977 7.45378 9.67245 8 9.67253C8.27611 9.67253 8.49995 9.89642 8.5 10.1725C8.5 10.4487 8.27614 10.6725 8 10.6725C6.90152 10.6725 6.01107 9.78207 6.01107 8.68359Z" fill="#FAFAFA"/>
</svg>
