<svg width="16" height="16" viewBox="0 0 16 16" fill="none" xmlns="http://www.w3.org/2000/svg">
<path fill-rule="evenodd" clip-rule="evenodd" d="M12.6673 2C13.7719 2 14.6673 2.89543 14.6673 4V9.33333L14.6647 9.4362C14.6129 10.4589 13.7929 11.2789 12.7702 11.3307L12.6673 11.3333H9.16732V12.8333H10.0007C10.2768 12.8333 10.5007 13.0572 10.5007 13.3333C10.5007 13.6095 10.2768 13.8333 10.0007 13.8333H6.00065C5.72451 13.8333 5.50065 13.6095 5.50065 13.3333C5.50065 13.0572 5.72451 12.8333 6.00065 12.8333H6.83398V11.3333H3.33398L3.23112 11.3307C2.20842 11.2789 1.3884 10.4589 1.33659 9.4362L1.33398 9.33333V4C1.33398 2.89543 2.22941 2 3.33398 2H12.6673Z" fill="#FAFAFA"/>
</svg>
