<svg width="16" height="16" viewBox="0 0 16 16" fill="none" xmlns="http://www.w3.org/2000/svg">
<path fill-rule="evenodd" clip-rule="evenodd" d="M13.4701 3.34066C14.1425 3.40883 14.6673 3.9764 14.6673 4.66683V5.13493C15.0278 5.1406 15.3196 5.43261 15.3229 5.79508L15.3451 10.1805C15.3483 10.5486 15.0524 10.8497 14.6843 10.853C14.6786 10.8531 14.6729 10.8525 14.6673 10.8524V11.3335C14.6673 12.0239 14.1425 12.5915 13.4701 12.6597L13.334 12.6668H2.66735C1.97703 12.6668 1.40942 12.1419 1.34117 11.4696L1.33401 11.3335V10.8524C0.973784 10.8466 0.681907 10.5552 0.678414 10.1929L0.656278 5.80745C0.652927 5.43934 0.948991 5.13837 1.31709 5.13493C1.32269 5.13488 1.32844 5.13484 1.33401 5.13493V4.66683C1.33401 3.9305 1.93103 3.33357 2.66735 3.3335H13.334L13.4701 3.34066ZM5.68753 6.97998C5.49227 6.78474 5.17576 6.78473 4.9805 6.97998L3.9805 7.97998C3.78525 8.17524 3.78525 8.49175 3.9805 8.68701C4.17576 8.88226 4.49227 8.88226 4.68753 8.68701L4.83401 8.54053V8.66683C4.83401 9.67934 5.65484 10.5001 6.66735 10.5002H9.00068C9.27681 10.5001 9.50068 10.2763 9.50068 10.0002C9.50068 9.72403 9.27681 9.50018 9.00068 9.50016H6.66735C6.20712 9.50015 5.83401 9.12706 5.83401 8.66683V8.54053L5.9805 8.68701C6.17576 8.88226 6.49227 8.88226 6.68753 8.68701C6.88277 8.49175 6.88277 8.17524 6.68753 7.97998L5.68753 6.97998ZM7.00068 5.50016C6.72455 5.50018 6.50068 5.72403 6.50068 6.00016C6.50068 6.2763 6.72455 6.50015 7.00068 6.50016H9.33401C9.79424 6.50018 10.1673 6.87327 10.1673 7.3335V7.79313L10.0209 7.64665C9.8256 7.4514 9.50909 7.4514 9.31383 7.64665C9.11859 7.84191 9.11859 8.15842 9.31383 8.35368L10.3138 9.35368C10.5091 9.54892 10.8256 9.54892 11.0209 9.35368L12.0209 8.35368C12.2161 8.15842 12.2161 7.84191 12.0209 7.64665C11.8256 7.4514 11.5091 7.4514 11.3138 7.64665L11.1673 7.79313V7.3335C11.1673 6.32098 10.3465 5.50018 9.33401 5.50016H7.00068Z" fill="#FAFAFA"/>
</svg>
