<svg width="16" height="16" viewBox="0 0 16 16" fill="none" xmlns="http://www.w3.org/2000/svg">
<path fill-rule="evenodd" clip-rule="evenodd" d="M11.3209 2.46387C13.0275 2.46391 14.2701 3.5679 14.2701 5.13053C14.27 6.59171 13.1714 7.71665 11.401 8.06869C11.1771 8.11133 10.9053 8.21296 10.8678 8.42611C10.8619 8.51636 10.874 8.60715 10.9042 8.69238C10.9345 8.77764 10.9821 8.8558 11.0436 8.9222C11.2569 9.0182 11.4917 9.10876 11.7317 9.20475C12.921 9.67407 14.3984 10.2557 14.4518 11.5036C14.4518 13.7596 11.5982 13.2209 11.5982 11.7542C11.5983 11.6128 11.6545 11.4773 11.7545 11.3773C11.8545 11.2773 11.99 11.221 12.1314 11.221C12.2729 11.221 12.4084 11.2773 12.5084 11.3773C12.6084 11.4773 12.6646 11.6128 12.6646 11.7542C12.6966 11.8609 13.3847 12.3036 13.3847 11.5036C13.3846 10.981 12.233 10.5276 11.3958 10.1969L10.8619 9.9834C10.67 9.99943 10.4993 10.0638 10.3287 10.4476C10.6473 10.6633 10.8933 10.9701 11.0351 11.3278C11.1768 11.6854 11.2079 12.0775 11.1236 12.4528C11.0247 12.7869 10.8163 13.0784 10.5318 13.2796C10.2474 13.4808 9.90321 13.5801 9.55527 13.5622C9.4139 13.5621 9.27829 13.5059 9.17832 13.4059C9.07837 13.3059 9.02207 13.1704 9.02207 13.029C9.02208 12.8876 9.07836 12.752 9.17832 12.652C9.27829 12.552 9.4139 12.4958 9.55527 12.4958C9.66858 12.5106 9.78365 12.4856 9.88079 12.4255C9.97798 12.3652 10.052 12.2732 10.0891 12.165C10.1134 11.9644 10.0716 11.7613 9.97064 11.5863C9.86965 11.4112 9.71441 11.2737 9.52858 11.1943C9.2599 11.0387 9.02657 10.8289 8.84303 10.5785C8.65948 10.3279 8.52958 10.0418 8.46217 9.73861C8.08768 9.53839 7.67063 9.43007 7.24603 9.4235C6.96146 9.58628 6.66741 9.73248 6.36582 9.861C5.82193 10.1063 5.34741 10.3198 5.18743 10.693C4.95816 11.2316 5.00616 11.6581 5.33131 11.9248C5.44719 12.022 5.5875 12.0862 5.73691 12.1097C5.88633 12.1332 6.03951 12.1152 6.17962 12.0583C6.28093 11.9889 6.40318 11.8873 6.30723 11.7327C6.19959 11.685 6.11079 11.6031 6.05462 11.4997C5.99841 11.396 5.97779 11.2763 5.99668 11.1598C6.01558 11.0434 6.07266 10.9364 6.15879 10.8558C6.24486 10.7753 6.35525 10.7257 6.47259 10.7145C6.6816 10.7437 6.87753 10.8339 7.03509 10.9743C7.19267 11.1148 7.30512 11.2992 7.35801 11.5036C7.75267 12.8209 5.95529 13.8451 4.63796 12.7464C4.29397 12.4458 4.06247 12.0371 3.98105 11.5876C3.89967 11.138 3.97328 10.674 4.19004 10.2718C4.51004 9.51448 5.25149 9.18363 5.90749 8.8903L6.16855 8.77311C6.1902 8.50001 6.13705 8.22602 6.01491 7.98079C5.89277 7.73564 5.70616 7.52841 5.47519 7.38119C4.69134 7.11451 4.06746 6.54355 3.23561 6.67676C2.61161 6.77809 2.65944 7.49845 2.65944 7.57845C2.68616 7.8878 2.94757 8.4209 3.40618 8.4209C3.86475 8.42089 3.95024 8.27701 3.90228 8.05306C3.86904 7.91515 3.89207 7.76979 3.96608 7.64876C4.04009 7.52775 4.15891 7.44113 4.29681 7.40788C4.43464 7.37466 4.58013 7.39712 4.70111 7.47103C4.82213 7.54504 4.90875 7.6645 4.94199 7.80241C5.11797 8.52773 4.73413 9.48793 3.40618 9.48796C2.92955 9.47312 2.47676 9.27601 2.14056 8.93783C1.80435 8.59964 1.61027 8.14567 1.59824 7.66895C1.52753 7.19976 1.64486 6.7216 1.92441 6.33822C2.20398 5.95491 2.62345 5.69688 3.09173 5.62077C4.57956 5.37563 5.51832 6.49571 6.2916 6.44238C6.43146 6.34865 6.56189 6.24114 6.68092 6.12207L7.99798 4.37272C8.63798 3.54607 9.6143 2.46387 11.3209 2.46387ZM9.18483 7.111C9.10125 7.111 9.01854 7.13059 8.94394 7.16829C8.86947 7.20599 8.80465 7.26059 8.75514 7.3278C8.70561 7.39508 8.67266 7.47328 8.65879 7.55566C8.64493 7.63805 8.65094 7.72262 8.67572 7.80241C8.70949 7.91105 8.77682 8.00642 8.86842 8.07389C8.96005 8.14135 9.07105 8.17741 9.18483 8.17741C9.29861 8.1774 9.40961 8.14136 9.50124 8.07389C9.59285 8.00642 9.66017 7.91105 9.69394 7.80241C9.71872 7.72263 9.72473 7.63805 9.71087 7.55566C9.697 7.47329 9.66404 7.39507 9.61452 7.3278C9.56495 7.2605 9.49966 7.206 9.42507 7.16829C9.35053 7.13066 9.26833 7.11101 9.18483 7.111ZM7.74342 6.11035C7.63759 6.09064 7.52806 6.10387 7.42962 6.14746C7.33115 6.19109 7.24786 6.26346 7.19134 6.35514C7.13486 6.4468 7.10731 6.5536 7.11257 6.66113C7.11905 6.79332 7.17462 6.91843 7.26816 7.01204C7.36182 7.1057 7.48744 7.16118 7.61973 7.16764C7.72715 7.17284 7.83349 7.14527 7.92507 7.08887C8.01673 7.03236 8.08976 6.94968 8.1334 6.85124C8.17701 6.75281 8.18955 6.64328 8.16986 6.53744C8.15015 6.43164 8.09877 6.33427 8.02272 6.25814C7.94661 6.18203 7.84923 6.1301 7.74342 6.11035Z" fill="#FAFAFA"/>
</svg>
