<svg width="16" height="16" viewBox="0 0 16 16" fill="none" xmlns="http://www.w3.org/2000/svg">
<path fill-rule="evenodd" clip-rule="evenodd" d="M10.099 1.39648C11.0834 1.39681 11.8844 2.17329 11.9277 3.14714H12.6667C13.403 3.14714 14 3.74474 14 4.48112V13.1478C13.9998 13.884 13.4029 14.4811 12.6667 14.4811H3.33333C2.59695 14.4811 2 13.8835 2 13.1471V4.48047C2.00018 3.74424 2.59706 3.14714 3.33333 3.14714H4.07227C4.11562 2.17309 4.91696 1.39648 5.90169 1.39648H10.099ZM8.00521 5.66667C7.72907 5.66667 7.50521 5.89052 7.50521 6.16667V6.53516L7.29167 6.32161C7.0964 6.12635 6.7799 6.12635 6.58464 6.32161C6.38946 6.51688 6.3894 6.83341 6.58464 7.02865L7.50521 7.94922V8.30534H7.14193L6.22461 7.38802C6.02933 7.19297 5.71277 7.19283 5.51758 7.38802C5.32247 7.58322 5.32255 7.8998 5.51758 8.09505L5.72982 8.30729L5.36589 8.30794C5.08985 8.3083 4.86635 8.5326 4.86654 8.80859C4.86697 9.08468 5.09109 9.3083 5.36719 9.30794L5.73112 9.30729L5.51758 9.52148C5.32253 9.71669 5.32257 10.0333 5.51758 10.2285C5.71281 10.4235 6.0294 10.4236 6.22461 10.2285L7.14648 9.30534H7.50521V9.66732L6.58464 10.5879C6.38942 10.7831 6.3895 11.0996 6.58464 11.2949C6.77992 11.49 7.09648 11.4901 7.29167 11.2949L7.50521 11.0807V11.4495C7.50521 11.7257 7.72907 11.9495 8.00521 11.9495C8.28114 11.9493 8.50521 11.7255 8.50521 11.4495V11.082L8.7181 11.2949L8.75586 11.3294C8.95224 11.4895 9.24213 11.4779 9.42513 11.2949C9.60784 11.112 9.61931 10.8226 9.45964 10.6263L9.42513 10.5879L8.50521 9.66797V9.30404L8.86003 9.30339L9.78451 10.2285L9.82292 10.263C10.0192 10.4228 10.3086 10.4113 10.4915 10.2285C10.6745 10.0455 10.6861 9.7556 10.526 9.55925L10.4915 9.52148L10.2715 9.30143H10.6501C10.9262 9.30107 11.1497 9.07686 11.1494 8.80078C11.1489 8.52479 10.9248 8.30107 10.6488 8.30143H10.2845L10.4915 8.09505C10.6867 7.89983 10.6866 7.58327 10.4915 7.38802C10.2963 7.19292 9.97973 7.19288 9.78451 7.38802L8.86849 8.30339L8.50521 8.30404V7.94792L9.42513 7.02865C9.62022 6.83348 9.62006 6.51688 9.42513 6.32161C9.22989 6.12637 8.91337 6.12642 8.7181 6.32161L8.50521 6.53385V6.16667C8.50521 5.89068 8.28114 5.66691 8.00521 5.66667Z" fill="#FAFAFA"/>
</svg>
