<svg width="16" height="16" viewBox="0 0 16 16" fill="none" xmlns="http://www.w3.org/2000/svg">
<path d="M11.3848 12.3757C11.5178 12.3757 11.6458 12.4285 11.7396 12.5228C12.3308 13.1165 12.8861 13.1257 13.625 13.1257C13.9011 13.1257 14.125 13.3495 14.125 13.6257C14.125 13.9018 13.9011 14.1257 13.625 14.1257C12.9689 14.1257 12.1747 14.1318 11.3854 13.5378C10.6248 14.1172 9.91424 14.1256 9.69271 14.1257C9.47143 14.1257 8.76067 14.1175 8 13.5384C7.23933 14.1175 6.52854 14.1257 6.30729 14.1257C6.08569 14.1256 5.37472 14.1175 4.61393 13.5378C3.82475 14.1315 3.03091 14.1257 2.375 14.1257C2.09886 14.1257 1.875 13.9018 1.875 13.6257C1.875 13.3495 2.09886 13.1257 2.375 13.1257C3.11389 13.1257 3.66924 13.1165 4.26042 12.5228L4.33724 12.4603C4.4189 12.4057 4.51554 12.3757 4.61523 12.3757C4.74814 12.3757 4.87562 12.4286 4.9694 12.5228C5.57894 13.135 6.16402 13.1257 6.30729 13.1257C6.45017 13.1257 7.03594 13.1354 7.64583 12.5228L7.72201 12.4603C7.80369 12.4056 7.90025 12.3757 8 12.3757C8.13293 12.3757 8.26035 12.4286 8.35417 12.5228C8.96406 13.1354 9.5498 13.1257 9.69271 13.1257C9.83592 13.1257 10.421 13.1351 11.0306 12.5228L11.1068 12.4603C11.1884 12.4056 11.285 12.3757 11.3848 12.3757Z" fill="#FAFAFA"/>
<path d="M4.30924 10.1628C4.50563 10.0026 4.79545 10.0142 4.97852 10.1973C5.20515 10.4239 5.3624 10.5354 5.4987 10.6035C5.74552 10.727 5.84535 11.0272 5.72201 11.2741C5.59847 11.5209 5.29833 11.6214 5.05143 11.498C4.90351 11.4241 4.76304 11.3307 4.61914 11.2161C3.82821 11.807 3.03264 11.8008 2.375 11.8008C2.09894 11.8008 1.87513 11.5768 1.875 11.3008C1.875 11.0246 2.09886 10.8008 2.375 10.8008C3.11752 10.8008 3.67698 10.7917 4.27148 10.1973L4.30924 10.1628Z" fill="#FAFAFA"/>
<path d="M11.0215 10.1973C11.2167 10.0021 11.5333 10.0022 11.7285 10.1973C12.3229 10.7916 12.8826 10.8008 13.625 10.8008C13.901 10.8009 14.125 11.0247 14.125 11.3008C14.1249 11.5768 13.901 11.8006 13.625 11.8008C12.9673 11.8008 12.1718 11.8066 11.3809 11.2155C11.2369 11.3302 11.0965 11.424 10.9486 11.498C10.7017 11.6213 10.4015 11.5209 10.278 11.2741C10.1547 11.0271 10.2551 10.727 10.502 10.6035C10.6381 10.5353 10.7951 10.4236 11.0215 10.1973Z" fill="#FAFAFA"/>
<path d="M8.00195 8.56185L8.0026 8.56445L8.00195 8.56641L8 8.56706L7.9974 8.56641L7.99675 8.56445L7.9974 8.56185L8 8.5612L8.00195 8.56185Z" fill="#FAFAFA"/>
<path fill-rule="evenodd" clip-rule="evenodd" d="M8.00065 0.822266C8.48253 0.822457 8.94504 1.01474 9.28581 1.35547C9.62641 1.6963 9.81828 2.15877 9.81836 2.64062V6.89323C10.1036 7.20185 10.3078 7.57871 10.4076 7.98958C10.5257 8.47685 10.4933 8.98927 10.3145 9.45768C10.1355 9.92616 9.81798 10.3301 9.40495 10.6146C8.99201 10.8988 8.50195 11.0513 8.00065 11.0514C7.49923 11.0514 7.00878 10.8988 6.5957 10.6146C6.18264 10.3302 5.86523 9.92612 5.6862 9.45768C5.50734 8.98921 5.47488 8.4769 5.5931 7.98958C5.6929 7.57859 5.89693 7.20191 6.18229 6.89323V2.64062C6.18237 2.15862 6.37403 1.69633 6.71484 1.35547C7.05578 1.0146 7.51854 0.822266 8.00065 0.822266ZM8 4.80078C7.72398 4.80093 7.5 5.02473 7.5 5.30078V7.62565C7.50002 7.64805 7.50169 7.67044 7.50456 7.69206C7.42697 7.73609 7.35453 7.79065 7.29036 7.85482C7.1024 8.04291 6.99675 8.29853 6.99675 8.56445C6.99688 8.83013 7.1026 9.08547 7.29036 9.27344C7.47835 9.46126 7.73426 9.56694 8 9.56706C8.26576 9.56694 8.521 9.4613 8.70898 9.27344C8.89698 9.08544 9.00247 8.83031 9.0026 8.56445C9.0026 8.29856 8.89691 8.0429 8.70898 7.85482C8.6448 7.7907 8.57233 7.73607 8.49479 7.69206C8.49767 7.6704 8.49998 7.64809 8.5 7.62565V5.30078C8.5 5.02473 8.27601 4.80093 8 4.80078Z" fill="#FAFAFA"/>
</svg>
