<svg width="16" height="16" viewBox="0 0 16 16" fill="none" xmlns="http://www.w3.org/2000/svg">
<path fill-rule="evenodd" clip-rule="evenodd" d="M11.5003 1.3335C12.5128 1.3335 13.3337 2.15431 13.3337 3.16683V7.48844C12.7353 7.17659 12.0551 7.00016 11.3337 7.00016C8.94043 7.00016 7.00033 8.94026 7.00033 11.3335C7.00033 12.6738 7.60898 13.872 8.56478 14.6668H4.50033C3.4878 14.6668 2.66699 13.846 2.66699 12.8335V3.16683C2.66699 2.15431 3.4878 1.3335 4.50033 1.3335H11.5003ZM5.16699 6.00016C4.89085 6.00016 4.66699 6.22402 4.66699 6.50016C4.66699 6.7763 4.89085 7.00016 5.16699 7.00016H6.83366C7.1098 7.00016 7.33366 6.7763 7.33366 6.50016C7.33366 6.22402 7.1098 6.00016 6.83366 6.00016H5.16699ZM5.16699 3.3335C4.89085 3.3335 4.66699 3.55735 4.66699 3.8335C4.66699 4.10964 4.89085 4.3335 5.16699 4.3335H9.50033C9.77647 4.3335 10.0003 4.10964 10.0003 3.8335C10.0003 3.55735 9.77647 3.3335 9.50033 3.3335H5.16699Z" fill="#FAFAFA"/>
<path fill-rule="evenodd" clip-rule="evenodd" d="M11.3356 7.99626C13.1776 7.99626 14.6709 9.48951 14.6709 11.3315C14.6709 13.1736 13.1776 14.6668 11.3356 14.6668C9.49358 14.6668 8.00033 13.1736 8.00033 11.3315C8.00033 9.48951 9.49358 7.99626 11.3356 7.99626ZM11.3356 12.1297C11.0595 12.1297 10.8356 12.3536 10.8356 12.6297C10.8358 12.9057 11.0596 13.1297 11.3356 13.1297C11.6116 13.1297 11.8354 12.9057 11.8356 12.6297C11.8356 12.3536 11.6118 12.1297 11.3356 12.1297ZM11.3356 9.5223C11.0595 9.5223 10.8356 9.74616 10.8356 10.0223V11.3354C10.8356 11.6116 11.0595 11.8354 11.3356 11.8354C11.6118 11.8354 11.8356 11.6116 11.8356 11.3354V10.0223C11.8356 9.74616 11.6118 9.5223 11.3356 9.5223Z" fill="#FAFAFA"/>
</svg>
