<svg width="16" height="16" viewBox="0 0 16 16" fill="none" xmlns="http://www.w3.org/2000/svg">
<path d="M4.66683 4.66683C4.66683 2.82588 6.15921 1.3335 8.00016 1.3335C9.84111 1.3335 11.3335 2.82588 11.3335 4.66683V7.66683C11.3335 9.50778 9.84111 11.0002 8.00016 11.0002C6.15921 11.0002 4.66683 9.50778 4.66683 7.66683V4.66683Z" fill="#FAFAFA"/>
<path d="M3.87432 9.46661C3.76376 9.21356 3.469 9.09806 3.21596 9.20862C2.96291 9.31918 2.84741 9.61394 2.95797 9.86698C3.74285 11.6634 5.46052 12.9606 7.5001 13.1444V14.1668C7.5001 14.4429 7.72396 14.6668 8.0001 14.6668C8.27624 14.6668 8.5001 14.4429 8.5001 14.1668V13.1444C10.5397 12.9606 12.2573 11.6634 13.0422 9.86698C13.1528 9.61394 13.0373 9.31918 12.7842 9.20862C12.5312 9.09806 12.2364 9.21356 12.1259 9.46661C11.431 11.057 9.84461 12.1668 8.0001 12.1668C6.15559 12.1668 4.56918 11.057 3.87432 9.46661Z" fill="#FAFAFA"/>
</svg>
