<svg width="16" height="16" viewBox="0 0 16 16" fill="none" xmlns="http://www.w3.org/2000/svg">
<path d="M11.7864 1.34115C12.4049 1.37175 12.9922 1.63054 13.4322 2.07031C13.9014 2.53929 14.1652 3.17533 14.1653 3.83854C14.1653 4.50173 13.9013 5.13777 13.4322 5.60677C13.3661 5.67281 13.2962 5.73458 13.2239 5.79232C13.4294 5.92158 13.6209 6.07634 13.7929 6.25521C14.3535 6.83846 14.6652 7.62552 14.6653 8.44206V10.0039C14.6652 10.2801 14.4415 10.5038 14.1653 10.5039H13.6086L13.1607 14.2279C13.1305 14.4791 12.9171 14.6691 12.664 14.6693H10.662C10.4087 14.6693 10.1948 14.4792 10.1646 14.2279L9.71735 10.5039H9.16071C8.88433 10.5039 8.66007 10.2801 8.66005 10.0039V8.44206C8.66014 7.62557 8.97186 6.83845 9.53245 6.25521C9.70433 6.07644 9.89541 5.92089 10.1008 5.79167C10.0288 5.73413 9.95959 5.67255 9.89378 5.60677C9.42454 5.13775 9.16071 4.50183 9.16071 3.83854C9.16075 3.1753 9.42456 2.5393 9.89378 2.07031C10.363 1.6014 10.9991 1.33792 11.6627 1.33789L11.7864 1.34115Z" fill="#FAFAFA"/>
<path d="M4.79091 1.33919C5.40938 1.36982 5.99614 1.62867 6.4361 2.06836C6.90532 2.53734 7.16913 3.17335 7.16917 3.83659C7.16917 4.49986 6.90531 5.1358 6.4361 5.60482C6.33657 5.70429 6.229 5.7939 6.11578 5.87435C6.21405 5.96212 6.3061 6.0594 6.39183 6.16536C6.78629 6.65311 7.04533 7.31535 7.26031 8.02539C7.2627 8.03326 7.26549 8.0415 7.26748 8.04948L7.98102 10.9089C8.01828 11.0582 7.98468 11.2172 7.88987 11.3385C7.79509 11.4597 7.64923 11.5305 7.49534 11.5306H6.50966L6.10276 14.2207C6.06566 14.4651 5.85524 14.6463 5.60797 14.6465H3.71995C3.47264 14.6464 3.26225 14.4651 3.22516 14.2207L2.81761 11.5306H1.83258C1.6786 11.5306 1.53289 11.4598 1.43805 11.3385C1.34321 11.2172 1.30966 11.0582 1.3469 10.9089L2.06045 8.04753L2.06696 8.02344C2.28197 7.3133 2.54147 6.65138 2.9361 6.16406C3.02237 6.05756 3.11517 5.9598 3.21409 5.87174C3.10234 5.79202 2.99604 5.70313 2.89768 5.60482C2.42854 5.13581 2.16461 4.4998 2.16461 3.83659C2.16466 3.17336 2.42848 2.53734 2.89768 2.06836C3.36694 1.59934 4.00358 1.33594 4.66722 1.33594L4.79091 1.33919Z" fill="#FAFAFA"/>
</svg>
