<svg width="16" height="16" viewBox="0 0 16 16" fill="none" xmlns="http://www.w3.org/2000/svg">
<path d="M10.0005 13.4999C10.2766 13.4999 10.5005 13.7238 10.5005 13.9999C10.5005 14.2761 10.2766 14.4999 10.0005 14.4999H6.00045C5.72431 14.4999 5.50045 14.2761 5.50045 13.9999C5.50045 13.7238 5.72431 13.4999 6.00045 13.4999H10.0005Z" fill="#FAFAFA"/>
<path d="M11.0792 1.23106C11.2185 1.01282 11.4987 0.939163 11.7251 1.05333L11.7693 1.07872L11.962 1.20632C12.8509 1.81619 13.5852 2.62511 14.1059 3.56895L14.214 3.77338L14.2348 3.8196C14.3266 4.05599 14.2261 4.32777 13.9952 4.44526C13.7647 4.56261 13.486 4.48424 13.3488 4.27143L13.3227 4.22651L13.2303 4.05203C12.7848 3.24455 12.1567 2.55228 11.3963 2.03054L11.2316 1.92117L11.1899 1.89187C10.991 1.73468 10.9399 1.44935 11.0792 1.23106Z" fill="#FAFAFA"/>
<path d="M4.23157 1.07872C4.46435 0.930189 4.77313 0.998297 4.92168 1.23106C5.07018 1.4638 5.002 1.77259 4.76933 1.92117C3.87903 2.48924 3.15656 3.28528 2.67754 4.22651C2.5523 4.47259 2.25176 4.57046 2.00566 4.44526C1.75958 4.32002 1.66171 4.01948 1.78691 3.77338C2.34685 2.67313 3.19084 1.74278 4.23157 1.07872Z" fill="#FAFAFA"/>
<path d="M3.50038 6.99994C3.50038 5.80647 3.97448 4.66188 4.8184 3.81796C5.66231 2.97405 6.8069 2.49994 8.00038 2.49994C9.19385 2.49994 10.3384 2.97405 11.1824 3.81796C12.0263 4.66188 12.5004 5.80647 12.5004 6.99994C12.5004 9.23869 13.0191 10.5374 13.4316 11.2499C13.4754 11.3258 13.4985 11.4119 13.4986 11.4995C13.4987 11.5871 13.4757 11.6732 13.4321 11.7492C13.3884 11.8251 13.3255 11.8883 13.2498 11.9323C13.174 11.9763 13.088 11.9996 13.0004 11.9999H3.00038C2.91286 11.9994 2.82702 11.9759 2.75143 11.9318C2.67584 11.8877 2.61315 11.8246 2.56962 11.7486C2.52609 11.6727 2.50325 11.5867 2.50338 11.4992C2.50352 11.4117 2.52662 11.3257 2.57038 11.2499C2.98225 10.5374 3.50038 9.23807 3.50038 6.99994Z" fill="#FAFAFA"/>
</svg>
