<svg width="16" height="16" viewBox="0 0 16 16" fill="none" xmlns="http://www.w3.org/2000/svg">
<path d="M7.16699 2.66675C6.52266 2.66675 6.00033 3.18908 6.00033 3.83341V4.16675H3.23674C3.03894 3.67811 2.55989 3.33341 2.00033 3.33341C1.26395 3.33341 0.666992 3.93037 0.666992 4.66675C0.666992 5.40313 1.26395 6.00008 2.00033 6.00008C2.55989 6.00008 3.03894 5.65539 3.23674 5.16675H4.49988C3.20836 6.13696 2.33261 7.63074 2.18811 9.33342H1.83366C1.18933 9.33342 0.666992 9.85575 0.666992 10.5001V12.1667C0.666992 12.8111 1.18933 13.3334 1.83366 13.3334H3.50033C4.14466 13.3334 4.66699 12.8111 4.66699 12.1667V10.5001C4.66699 9.85575 4.14466 9.33342 3.50033 9.33342H3.19254C3.37136 7.5937 4.47307 6.12685 6.00033 5.43178V5.50008C6.00033 6.14441 6.52266 6.66675 7.16699 6.66675H8.83366C9.47799 6.66675 10.0003 6.14441 10.0003 5.50008V5.43178C11.5276 6.12685 12.6293 7.5937 12.8081 9.33342H12.5003C11.856 9.33342 11.3337 9.85575 11.3337 10.5001V12.1667C11.3337 12.8111 11.856 13.3334 12.5003 13.3334H14.167C14.8113 13.3334 15.3337 12.8111 15.3337 12.1667V10.5001C15.3337 9.85575 14.8113 9.33342 14.167 9.33342H13.8125C13.668 7.63074 12.7923 6.13696 11.5008 5.16675H12.7639C12.9617 5.65539 13.4408 6.00008 14.0003 6.00008C14.7367 6.00008 15.3337 5.40313 15.3337 4.66675C15.3337 3.93037 14.7367 3.33341 14.0003 3.33341C13.4408 3.33341 12.9617 3.67811 12.7639 4.16675H10.0003V3.83341C10.0003 3.18908 9.47799 2.66675 8.83366 2.66675H7.16699Z" fill="#FAFAFA"/>
</svg>
