<svg width="16" height="16" viewBox="0 0 16 16" fill="none" xmlns="http://www.w3.org/2000/svg">
<path fill-rule="evenodd" clip-rule="evenodd" d="M9.57943 4.09686C9.8021 3.93356 10.1147 3.98162 10.278 4.20428C10.4412 4.42694 10.3932 4.73956 10.1706 4.90285L5.81576 8.09621C5.93494 8.33611 6 8.60196 6 8.87485C5.99996 9.33893 5.81578 9.78433 5.48763 10.1125C5.15945 10.4406 4.71409 10.6249 4.25 10.6249C3.78591 10.6249 3.34055 10.4406 3.01237 10.1125C2.80503 9.90514 2.65517 9.6509 2.57292 9.37485H1.75C1.47391 9.37485 1.25008 9.15092 1.25 8.87485C1.25 8.59871 1.47386 8.37485 1.75 8.37485H2.57292C2.65514 8.09873 2.805 7.84462 3.01237 7.63722C3.34056 7.30903 3.78587 7.12485 4.25 7.12485C4.56067 7.12485 4.86198 7.20884 5.1263 7.36183L9.57943 4.09686Z" fill="#FAFAFA"/>
<path fill-rule="evenodd" clip-rule="evenodd" d="M11.75 7.12485C12.2141 7.12485 12.6594 7.30903 12.9876 7.63722C13.195 7.84462 13.3449 8.09873 13.4271 8.37485H14.25C14.5261 8.37485 14.75 8.59871 14.75 8.87485C14.7499 9.15092 14.5261 9.37485 14.25 9.37485H13.4271C13.3448 9.6509 13.195 9.90514 12.9876 10.1125C12.6594 10.4406 12.2141 10.6249 11.75 10.6249C11.2859 10.6249 10.8406 10.4406 10.5124 10.1125C10.1842 9.78433 10 9.33893 10 8.87485C10 8.41076 10.1842 7.9654 10.5124 7.63722C10.8406 7.30903 11.2859 7.12485 11.75 7.12485Z" fill="#FAFAFA"/>
</svg>
