<svg width="16" height="16" viewBox="0 0 16 16" fill="none" xmlns="http://www.w3.org/2000/svg">
<path d="M3.85266 5.41626C4.53532 3.8011 6.13429 2.66675 7.99935 2.66675C10.381 2.66675 12.3306 4.51703 12.489 6.85856C14.0921 7.05849 15.3327 8.42608 15.3327 10.0834C15.3327 11.8783 13.8776 13.3334 12.0827 13.3334H8.49935V9.04052L9.31246 9.85364C9.50772 10.0489 9.82431 10.0489 10.0196 9.85364C10.2148 9.65837 10.2148 9.34179 10.0196 9.14653L8.3529 7.47986C8.15764 7.2846 7.84106 7.2846 7.6458 7.47986L5.97913 9.14653C5.78387 9.34179 5.78387 9.65837 5.97913 9.85364C6.17439 10.0489 6.49097 10.0489 6.68624 9.85364L7.49935 9.04052V13.3334H4.66602C2.45688 13.3334 0.666016 11.5426 0.666016 9.33342C0.666016 7.4028 2.03336 5.79225 3.85266 5.41626Z" fill="#FAFAFA"/>
</svg>
