<svg width="16" height="16" viewBox="0 0 16 16" fill="none" xmlns="http://www.w3.org/2000/svg">
<path fill-rule="evenodd" clip-rule="evenodd" d="M7.9987 1.33325C11.6806 1.33325 14.6654 4.31802 14.6654 7.99992C14.6654 11.6818 11.6806 14.6666 7.9987 14.6666C4.3168 14.6666 1.33203 11.6818 1.33203 7.99992C1.33203 4.31802 4.3168 1.33325 7.9987 1.33325ZM9.13477 3.54289C8.92501 3.44986 8.67886 3.51167 8.53776 3.69263L5.27083 7.88273C5.17312 8.0081 5.14121 8.17307 5.18424 8.32609C5.22735 8.47886 5.34041 8.60209 5.48893 8.65812L7.11198 9.2701L6.57552 11.8997C6.52871 12.129 6.64715 12.3605 6.86068 12.4563C7.07436 12.5519 7.32619 12.4864 7.46615 12.2987L10.7331 7.91789C10.821 7.79983 10.8524 7.64852 10.819 7.50513C10.7855 7.36183 10.6903 7.24067 10.5592 7.17375L9.02083 6.38859L9.42448 4.08586C9.46391 3.85988 9.34442 3.636 9.13477 3.54289Z" fill="#FAFAFA"/>
</svg>
