<svg width="16" height="16" viewBox="0 0 16 16" fill="none" xmlns="http://www.w3.org/2000/svg">
<path d="M7.7124 1.53585C7.90073 1.48805 8.09802 1.48805 8.28636 1.53585C8.50322 1.59088 8.69063 1.72584 8.86654 1.85253L8.91136 1.88474L14.6238 5.97434C14.8483 6.13509 14.9 6.44742 14.7393 6.67195C14.5785 6.89648 14.2662 6.94819 14.0416 6.78745L13.3327 6.2799V11.7337C13.3327 12.0898 13.3327 12.3871 13.3129 12.6299C13.2922 12.8831 13.2474 13.1209 13.1329 13.3457C12.9571 13.6907 12.6766 13.9712 12.3317 14.1469C12.1068 14.2615 11.8691 14.3062 11.6158 14.3269C11.373 14.3468 11.0758 14.3468 10.7197 14.3468H5.27907C4.92297 14.3468 4.62574 14.3468 4.38292 14.3269C4.12967 14.3062 3.8919 14.2615 3.66705 14.1469C3.32209 13.9712 3.04163 13.6907 2.86586 13.3457C2.7513 13.1209 2.70655 12.8831 2.68586 12.6299C2.66602 12.3871 2.66603 12.0898 2.66604 11.7337L2.66604 6.27992L1.95711 6.78745C1.73258 6.94819 1.42025 6.89648 1.2595 6.67195C1.09875 6.44742 1.15046 6.13509 1.375 5.97434L7.0874 1.88474L7.13222 1.85253C7.30813 1.72584 7.49554 1.59088 7.7124 1.53585Z" fill="#FAFAFA"/>
</svg>
