<svg width="16" height="16" viewBox="0 0 16 16" fill="none" xmlns="http://www.w3.org/2000/svg">
<path d="M9.3138 8.66815C9.35525 8.66728 9.39649 8.67635 9.43359 8.69484C9.47076 8.71343 9.50311 8.74116 9.52734 8.77492L10.9674 10.6786C10.9953 10.7164 11.0325 10.7464 11.0755 10.7652C11.1186 10.7839 11.1662 10.7907 11.2129 10.7853L12.5885 10.62C12.7642 10.5946 12.9439 10.6169 13.1081 10.6844C13.2721 10.752 13.4152 10.8625 13.5221 11.0041C13.6615 11.1934 13.7304 11.4256 13.7168 11.6603C13.7032 11.895 13.6076 12.1174 13.4473 12.2892C13.3494 12.4052 13.2281 12.4993 13.0911 12.5646C12.9541 12.6299 12.8041 12.6652 12.6523 12.6681H6.96224C6.9111 12.6673 6.86091 12.6516 6.81836 12.6232C6.77587 12.5949 6.74243 12.5548 6.722 12.508L5.85807 10.5724C5.84101 10.5366 5.83203 10.4969 5.83203 10.4572C5.83207 10.4176 5.84105 10.3784 5.85807 10.3426C5.87514 10.3069 5.90022 10.2755 5.93164 10.2515C5.96312 10.2274 6.00008 10.2111 6.03906 10.204L6.85026 10.0386C6.90729 10.028 6.96634 10.0367 7.01823 10.0627C7.07014 10.0887 7.1123 10.1311 7.13802 10.1831L7.50586 10.9188C7.52829 10.9632 7.56261 11.0005 7.60482 11.0269C7.64714 11.0532 7.69625 11.0674 7.74609 11.0679H8.8125C8.85708 11.0678 8.90099 11.0567 8.9401 11.0353C8.97921 11.0139 9.01237 10.983 9.03646 10.9455C9.05746 10.9071 9.06836 10.8636 9.06836 10.8198C9.06831 10.7761 9.05742 10.7332 9.03646 10.6948L8.30078 9.0412C8.27983 9.00281 8.26889 8.95992 8.26888 8.9162C8.26888 8.8724 8.27977 8.82898 8.30078 8.79055C8.32486 8.75311 8.35809 8.72208 8.39713 8.7007C8.43622 8.67935 8.4802 8.66822 8.52474 8.66815H9.3138Z" fill="#FAFAFA"/>
<path d="M2.16536 11.6252C2.44151 11.6252 2.66536 11.849 2.66536 12.1252C2.66524 12.4012 2.44143 12.6252 2.16536 12.6252H1.83203C1.55597 12.6252 1.33216 12.4012 1.33203 12.1252C1.33203 11.849 1.55589 11.6252 1.83203 11.6252H2.16536Z" fill="#FAFAFA"/>
<path d="M3.66536 11.6252C3.94151 11.6252 4.16536 11.849 4.16536 12.1252C4.16524 12.4012 3.94143 12.6252 3.66536 12.6252H3.33203C3.05597 12.6252 2.83216 12.4012 2.83203 12.1252C2.83203 11.849 3.05589 11.6252 3.33203 11.6252H3.66536Z" fill="#FAFAFA"/>
<path d="M5.16536 11.6252C5.44151 11.6252 5.66536 11.849 5.66536 12.1252C5.66524 12.4012 5.44143 12.6252 5.16536 12.6252H4.83203C4.55597 12.6252 4.33216 12.4012 4.33203 12.1252C4.33203 11.849 4.55589 11.6252 4.83203 11.6252H5.16536Z" fill="#FAFAFA"/>
<path d="M7.18945 3.33482C7.24101 3.32695 7.29377 3.33451 7.34115 3.3563C7.3884 3.37807 7.42818 3.41308 7.45573 3.45721C7.47674 3.49565 7.48828 3.53906 7.48828 3.58286C7.48826 3.62661 7.47671 3.66947 7.45573 3.70786L6.72005 5.36151C6.69911 5.39986 6.68819 5.44282 6.68815 5.48651C6.68815 5.53031 6.69905 5.57373 6.72005 5.61216C6.74414 5.64968 6.7773 5.68059 6.81641 5.702C6.85552 5.72342 6.89941 5.73448 6.94401 5.73456H7.97852C8.02836 5.73405 8.07747 5.71988 8.11979 5.69354C8.16202 5.66722 8.1963 5.62988 8.21875 5.58547L8.58659 4.84914C8.61235 4.7971 8.65444 4.75467 8.70638 4.7287C8.75837 4.70271 8.81787 4.69459 8.875 4.70526L9.68555 4.87062C9.72453 4.87775 9.76148 4.89407 9.79297 4.91815C9.8244 4.94221 9.84947 4.97358 9.86654 5.0093C9.88357 5.04506 9.89255 5.08426 9.89258 5.12388C9.89258 5.1635 9.88355 5.20268 9.86654 5.23846L9.0026 7.17466C8.98216 7.22151 8.94877 7.26153 8.90625 7.28989C8.86378 7.31821 8.81405 7.33391 8.76302 7.33482H3.05599C2.90514 7.33112 2.75649 7.29527 2.62044 7.23C2.4845 7.16473 2.36415 7.07118 2.26693 6.95591C2.10733 6.78336 2.01266 6.56041 2 6.3257C1.98739 6.0911 2.05723 5.85941 2.19727 5.67075C2.3047 5.52823 2.44874 5.41737 2.61393 5.34979C2.77914 5.28221 2.95953 5.26028 3.13607 5.28664L4.51172 5.452C4.55838 5.45741 4.60601 5.45055 4.64909 5.43182C4.69217 5.41309 4.72929 5.38304 4.75716 5.34523L6.18685 3.44159C6.21105 3.40787 6.24283 3.38009 6.27995 3.36151C6.31703 3.34297 6.35829 3.334 6.39974 3.33482H7.18945Z" fill="#FAFAFA"/>
<path d="M10.832 6.12518C11.1082 6.12518 11.332 6.34904 11.332 6.62518C11.3319 6.90122 11.1081 7.12518 10.832 7.12518H10.4987C10.2226 7.12518 9.99882 6.90122 9.9987 6.62518C9.9987 6.34904 10.2226 6.12518 10.4987 6.12518H10.832Z" fill="#FAFAFA"/>
<path d="M12.4987 6.12518C12.7748 6.12518 12.9987 6.34904 12.9987 6.62518C12.9986 6.90122 12.7748 7.12518 12.4987 7.12518H12.1654C11.8893 7.12518 11.6655 6.90122 11.6654 6.62518C11.6654 6.34904 11.8892 6.12518 12.1654 6.12518H12.4987Z" fill="#FAFAFA"/>
<path d="M14.1654 6.12518C14.4415 6.12518 14.6654 6.34904 14.6654 6.62518C14.6652 6.90122 14.4414 7.12518 14.1654 7.12518H13.832C13.556 7.12518 13.3322 6.90122 13.332 6.62518C13.332 6.34904 13.5559 6.12518 13.832 6.12518H14.1654Z" fill="#FAFAFA"/>
</svg>
