<svg width="16" height="16" viewBox="0 0 16 16" fill="none" xmlns="http://www.w3.org/2000/svg">
<path fill-rule="evenodd" clip-rule="evenodd" d="M11.6673 7.66683C12.7719 7.66683 13.6673 8.56226 13.6673 9.66683V9.77881C14.0615 9.96605 14.334 10.3681 14.334 10.8335V12.5002C14.334 13.1445 13.8117 13.6668 13.1673 13.6668H10.1673C9.52303 13.6668 9.00068 13.1445 9.00068 12.5002V10.8335C9.00068 10.3681 9.27319 9.96605 9.66735 9.77881V9.66683C9.66735 8.56227 10.5628 7.66684 11.6673 7.66683ZM11.6673 8.66683C11.1151 8.66684 10.6673 9.11455 10.6673 9.66683H12.6673C12.6673 9.11454 12.2196 8.66683 11.6673 8.66683Z" fill="#FAFAFA"/>
<path fill-rule="evenodd" clip-rule="evenodd" d="M13.4701 2.34066C14.1425 2.40883 14.6673 2.9764 14.6673 3.66683V4.13493C15.0278 4.1406 15.3196 4.43262 15.3229 4.79508L15.3451 9.1805C15.3472 9.41704 15.2252 9.62498 15.0404 9.74495C14.9312 9.55776 14.7948 9.38839 14.6367 9.24235C14.4305 7.78658 13.1801 6.66683 11.6673 6.66683C10.1547 6.6669 8.90418 7.78661 8.69794 9.24235C8.27019 9.63772 8.00068 10.2036 8.00068 10.8335V11.6668H2.66735C1.97706 11.6667 1.40942 11.1419 1.34117 10.4696L1.33401 10.3335V9.85238C0.973809 9.84655 0.681907 9.55514 0.678414 9.19287L0.656278 4.80745C0.652927 4.43936 0.949017 4.1384 1.31709 4.13493C1.32267 4.13488 1.32846 4.13484 1.33401 4.13493V3.66683C1.33401 2.93052 1.93106 2.3336 2.66735 2.3335H13.334L13.4701 2.34066ZM4.23245 8.44157C3.95639 8.44166 3.73245 8.66548 3.73245 8.94157C3.73263 9.2175 3.95649 9.44148 4.23245 9.44157H7.24156C7.51771 9.44157 7.74156 9.21771 7.74156 8.94157C7.74156 8.66543 7.51771 8.44157 7.24156 8.44157H4.23245ZM4.23245 6.50016C3.95639 6.50025 3.73245 6.72408 3.73245 7.00016C3.73254 7.27617 3.95644 7.50007 4.23245 7.50016H8.33401C8.61016 7.50016 8.83401 7.2763 8.83401 7.00016C8.83401 6.72402 8.61016 6.50016 8.33401 6.50016H4.23245ZM4.23245 4.55876C3.95639 4.55885 3.73245 4.78267 3.73245 5.05876C3.73245 5.33484 3.95639 5.55866 4.23245 5.55876H11.7683C12.0444 5.55876 12.2683 5.3349 12.2683 5.05876C12.2683 4.78261 12.0444 4.55876 11.7683 4.55876H4.23245Z" fill="#FAFAFA"/>
</svg>
