<svg width="16" height="16" viewBox="0 0 16 16" fill="none" xmlns="http://www.w3.org/2000/svg">
<path d="M4.16667 2.94461C4.16667 2.05482 4.88799 1.3335 5.77778 1.3335C6.69532 1.3335 7.50684 1.78745 8 2.48301C8.49316 1.78745 9.30468 1.3335 10.2222 1.3335C11.112 1.3335 11.8333 2.05481 11.8333 2.94461C11.8333 3.59801 11.6031 4.19764 11.2194 4.66683H12.5833C13.3657 4.66683 14 5.30109 14 6.0835C14 6.8659 13.3657 7.50016 12.5833 7.50016H8.5V4.66683H9.11111C10.0623 4.66683 10.8333 3.89576 10.8333 2.94461C10.8333 2.6071 10.5597 2.3335 10.2222 2.3335C9.27106 2.3335 8.5 3.10456 8.5 4.05572V4.66683H7.5V4.05572C7.5 3.10456 6.72893 2.3335 5.77778 2.3335C5.44027 2.3335 5.16667 2.6071 5.16667 2.94461C5.16667 3.89576 5.93773 4.66683 6.88889 4.66683H7.5V7.50016H3.41667C2.63426 7.50016 2 6.8659 2 6.0835C2 5.30109 2.63426 4.66683 3.41667 4.66683H4.7806C4.39687 4.19764 4.16667 3.59801 4.16667 2.94461Z" fill="#FAFAFA"/>
<path d="M8.5 8.50016H13.3333V12.1668C13.3333 13.1794 12.5125 14.0002 11.5 14.0002H8.5V8.50016Z" fill="#FAFAFA"/>
<path d="M7.5 8.50016H2.66667V12.1668C2.66667 13.1794 3.48748 14.0002 4.5 14.0002H7.5V8.50016Z" fill="#FAFAFA"/>
</svg>
