<svg width="16" height="16" viewBox="0 0 16 16" fill="none" xmlns="http://www.w3.org/2000/svg">
<path d="M7.87305 7.35775C8.00004 7.3325 8.13168 7.34531 8.2513 7.39486C8.37083 7.44439 8.473 7.52819 8.54492 7.63574C8.61686 7.74341 8.65559 7.87018 8.6556 7.99967C8.6556 8.12918 8.61687 8.25593 8.54492 8.36361C8.473 8.47117 8.37084 8.55495 8.2513 8.60449C8.13168 8.65404 8.00004 8.66685 7.87305 8.6416C7.74604 8.61633 7.62933 8.55413 7.53776 8.46256C7.41517 8.33967 7.34635 8.17326 7.34635 7.99967C7.34636 7.82609 7.41516 7.65967 7.53776 7.53678C7.62933 7.44521 7.74604 7.38301 7.87305 7.35775Z" fill="#FAFAFA"/>
<path fill-rule="evenodd" clip-rule="evenodd" d="M8.00065 1.33301C11.6825 1.33301 14.6673 4.31778 14.6673 7.99967C14.6673 11.6816 11.6825 14.6663 8.00065 14.6663C4.31875 14.6663 1.33398 11.6816 1.33398 7.99967C1.33398 4.31778 4.31875 1.33301 8.00065 1.33301ZM6.22135 4.00293C6.15275 3.99453 6.08264 4.0024 6.01758 4.02572C5.16923 4.33069 4.55736 4.8717 4.18164 5.64811C4.05297 5.91483 4.02155 6.21817 4.0931 6.50553C4.16468 6.7929 4.33481 7.04646 4.57357 7.22168C5.13775 7.63735 5.72914 7.90575 6.33464 8.02441C6.33813 8.26474 6.39334 8.49218 6.48828 8.69759C5.92149 9.13126 5.22341 9.34714 4.42122 9.39095C4.3522 9.39445 4.2847 9.4141 4.22461 9.44824C4.16461 9.48238 4.11316 9.53013 4.07487 9.58756C4.03665 9.64497 4.01233 9.71053 4.00391 9.77897C3.9955 9.84757 4.00338 9.91769 4.02669 9.98275C4.33166 10.8311 4.87267 11.443 5.64909 11.8187C5.91581 11.9474 6.21915 11.9788 6.50651 11.9072C6.79388 11.8356 7.04744 11.6655 7.22266 11.4268C7.63836 10.8618 7.90709 10.2705 8.02539 9.66504C8.26582 9.66154 8.49309 9.60641 8.69857 9.51139C9.13244 10.0782 9.34811 10.7767 9.39193 11.5791C9.39542 11.6481 9.41508 11.7156 9.44922 11.7757C9.48335 11.8357 9.5311 11.8872 9.58854 11.9255C9.64595 11.9637 9.7115 11.988 9.77995 11.9964C9.84855 12.0048 9.91866 11.997 9.98372 11.9736C10.8321 11.6687 11.4439 11.1277 11.8197 10.3512C11.9483 10.0845 11.9798 9.78117 11.9082 9.49381C11.8366 9.20646 11.6665 8.95288 11.4277 8.77767C10.8633 8.36183 10.2718 8.09286 9.66601 7.97428C9.66242 7.73389 9.60746 7.50654 9.51237 7.30111C10.0792 6.8674 10.7779 6.65222 11.5801 6.6084C11.6491 6.6049 11.7166 6.58525 11.7767 6.55111C11.8367 6.51697 11.8881 6.46922 11.9264 6.41178C11.9647 6.35437 11.989 6.28883 11.9974 6.22038C12.0058 6.15177 11.9979 6.08166 11.9746 6.0166C11.6696 5.16826 11.1286 4.55637 10.3522 4.18066C10.0855 4.05201 9.78214 4.02057 9.49479 4.09212C9.20743 4.16371 8.95386 4.33384 8.77865 4.57259C8.36305 5.13738 8.09361 5.72836 7.97526 6.33366C7.73496 6.33725 7.50745 6.39229 7.30208 6.4873C6.8686 5.92057 6.65317 5.22227 6.60937 4.42025C6.60587 4.35122 6.58623 4.28372 6.55208 4.22363C6.51795 4.16365 6.47019 4.11218 6.41276 4.07389C6.35536 4.03568 6.2898 4.01134 6.22135 4.00293Z" fill="#FAFAFA"/>
</svg>
