<svg width="16" height="16" viewBox="0 0 16 16" fill="none" xmlns="http://www.w3.org/2000/svg">
<path fill-rule="evenodd" clip-rule="evenodd" d="M9.37175 2.33561C10.4284 2.38931 11.2689 3.26305 11.2689 4.33301V5.10905H12.3138V3.50228C12.3138 3.22614 12.5377 3.00228 12.8138 3.00228C13.0898 3.00245 13.3138 3.22624 13.3138 3.50228V5.60905C13.3136 5.88493 13.0897 6.10887 12.8138 6.10905H11.2689V7.51921H13.4805C13.7565 7.51938 13.9805 7.74317 13.9805 8.01921C13.9805 8.29524 13.7565 8.51903 13.4805 8.51921H11.2689V9.93001H12.8138C13.0898 9.93019 13.3138 10.154 13.3138 10.43V12.5368C13.3136 12.8127 13.0897 13.0366 12.8138 13.0368C12.5378 13.0368 12.314 12.8128 12.3138 12.5368V10.93H11.2689V11.6663C11.2689 12.7363 10.4284 13.61 9.37175 13.6637L9.26888 13.6663H4.60221C3.53215 13.6663 2.65836 12.826 2.60482 11.7692L2.60156 11.6663V4.33301C2.60156 3.22844 3.49764 2.33301 4.60221 2.33301H9.26888L9.37175 2.33561ZM7.47591 5.35189C7.33168 5.30171 7.16985 5.35316 7.08464 5.47559L5.39128 7.91634C5.3354 7.99704 5.32044 8.09805 5.35091 8.19043C5.38154 8.28291 5.45454 8.35731 5.54883 8.39225L6.30924 8.67285L6.01758 10.292C5.99076 10.4415 6.07746 10.5887 6.22461 10.6442C6.37173 10.6995 6.53938 10.6482 6.62565 10.5212L8.61523 7.58756C8.67416 7.50034 8.68543 7.39048 8.64518 7.29394C8.60477 7.1974 8.51759 7.12516 8.41211 7.10124L7.55534 6.90788L7.69336 5.68783C7.70972 5.54145 7.62004 5.40218 7.47591 5.35189Z" fill="#FAFAFA"/>
</svg>
