<svg width="16" height="16" viewBox="0 0 16 16" fill="none" xmlns="http://www.w3.org/2000/svg">
<path d="M1.75 3.125C2.21413 3.125 2.65944 3.30918 2.98763 3.63737C3.31582 3.96556 3.5 4.41087 3.5 4.875V10.5C3.5 10.6989 3.57875 10.8899 3.7194 11.0306C3.86005 11.1713 4.05109 11.25 4.25 11.25H14.25C14.5261 11.25 14.75 11.4739 14.75 11.75C14.75 12.0261 14.5261 12.25 14.25 12.25H13.3294C13.4397 12.4824 13.5 12.7378 13.5 13C13.5 13.4641 13.3158 13.9094 12.9876 14.2376C12.6594 14.5658 12.2141 14.75 11.75 14.75C11.2859 14.75 10.8406 14.5658 10.5124 14.2376C10.1842 13.9094 10 13.4641 10 13C10 12.7379 10.0603 12.4824 10.1706 12.25H7.70443C7.8147 12.4824 7.875 12.7379 7.875 13C7.875 13.4641 7.69082 13.9094 7.36263 14.2376C7.03444 14.5658 6.58913 14.75 6.125 14.75C5.66087 14.75 5.21556 14.5658 4.88737 14.2376C4.55918 13.9094 4.375 13.4641 4.375 13C4.375 12.7378 4.4353 12.4824 4.54557 12.25H4.25C3.78587 12.25 3.34056 12.0658 3.01237 11.7376C2.68418 11.4094 2.5 10.9641 2.5 10.5V4.875C2.5 4.67609 2.42125 4.48505 2.2806 4.3444C2.13995 4.20375 1.94891 4.125 1.75 4.125C1.47386 4.125 1.25 3.90114 1.25 3.625C1.25 3.34886 1.47386 3.125 1.75 3.125Z" fill="#FAFAFA"/>
<path fill-rule="evenodd" clip-rule="evenodd" d="M9.875 1.25C10.3391 1.25 10.7844 1.43418 11.1126 1.76237C11.4408 2.09056 11.625 2.53587 11.625 3V3.75H13.0098C13.0137 3.75006 13.0183 3.75048 13.0234 3.75065C13.0339 3.751 13.0472 3.75151 13.0625 3.7526C13.0928 3.75477 13.1329 3.75849 13.1797 3.76628C13.271 3.78149 13.4004 3.81321 13.5358 3.88086C13.6732 3.94958 13.8262 4.06057 13.9434 4.23633C14.0626 4.41522 14.125 4.63126 14.125 4.875V8.63477C14.1249 8.63866 14.1245 8.64329 14.1243 8.64844C14.124 8.65891 14.1235 8.67222 14.1224 8.6875C14.1202 8.71783 14.1165 8.75794 14.1087 8.80469C14.0935 8.89597 14.0618 9.02542 13.9941 9.16081C13.9254 9.29825 13.8144 9.45119 13.6387 9.56836C13.4598 9.68762 13.2437 9.75 13 9.75H6.11523C6.11134 9.74994 6.10671 9.74952 6.10156 9.74935C6.09109 9.749 6.07778 9.74849 6.0625 9.7474C6.03217 9.74523 5.99206 9.74151 5.94531 9.73372C5.85403 9.71851 5.72458 9.68679 5.58919 9.61914C5.45175 9.55042 5.29881 9.43943 5.18164 9.26367C5.06238 9.08478 5 8.86874 5 8.625V4.86523C5.00006 4.86134 5.00048 4.85671 5.00065 4.85156C5.001 4.84109 5.00151 4.82778 5.0026 4.8125C5.00477 4.78217 5.00849 4.74206 5.01628 4.69531C5.03149 4.60403 5.06321 4.47458 5.13086 4.33919C5.19958 4.20175 5.31057 4.04881 5.48633 3.93164C5.66522 3.81238 5.88126 3.75 6.125 3.75H7.5V3C7.5 2.53587 7.68418 2.09056 8.01237 1.76237C8.34056 1.43418 8.78587 1.25 9.25 1.25H9.875ZM6.05599 4.75781C6.04551 4.76082 6.04102 4.76367 6.04102 4.76367C6.04102 4.76367 6.0347 4.76728 6.02539 4.78581C6.01504 4.80652 6.00757 4.83359 6.00326 4.85938C6.00135 4.87081 6.00029 4.87952 6 4.88346V8.625C6 8.66121 6.00468 8.68304 6.00781 8.69401C6.01082 8.70449 6.01367 8.70898 6.01367 8.70898C6.01367 8.70898 6.01728 8.71531 6.03581 8.72461C6.05652 8.73497 6.08359 8.74243 6.10938 8.74675C6.12081 8.74865 6.12952 8.74971 6.13346 8.75H7.5V4.75H6.125C6.08879 4.75 6.06696 4.75468 6.05599 4.75781ZM11.625 8.75H13C13.0362 8.75 13.058 8.74532 13.069 8.74219C13.0795 8.73918 13.084 8.73633 13.084 8.73633C13.084 8.73633 13.0903 8.73272 13.0996 8.71419C13.11 8.69348 13.1174 8.66641 13.1217 8.64062C13.1237 8.62919 13.1247 8.62048 13.125 8.61654V4.875C13.125 4.83879 13.1203 4.81696 13.1172 4.80599C13.1142 4.79551 13.1113 4.79102 13.1113 4.79102C13.1113 4.79102 13.1077 4.78469 13.0892 4.77539C13.0685 4.76504 13.0414 4.75757 13.0156 4.75326C13.0042 4.75135 12.9955 4.75029 12.9915 4.75H11.625V8.75ZM9.25 2.25C9.05109 2.25 8.86005 2.32875 8.7194 2.4694C8.57875 2.61005 8.5 2.80109 8.5 3V3.75H10.625V3C10.625 2.80109 10.5463 2.61005 10.4056 2.4694C10.2649 2.32875 10.0739 2.25 9.875 2.25H9.25Z" fill="#FAFAFA"/>
</svg>
