<svg width="16" height="16" viewBox="0 0 16 16" fill="none" xmlns="http://www.w3.org/2000/svg">
<path d="M11.1036 12.989C11.9138 12.4999 12.918 12.4596 13.7644 12.8828L14.769 13.3854C15.0158 13.509 15.1157 13.8091 14.9923 14.056C14.8688 14.3029 14.5687 14.4028 14.3217 14.2793L13.3172 13.7774C12.7775 13.5075 12.1372 13.5332 11.6206 13.8451L11.5633 13.8796C10.714 14.3924 9.64908 14.3878 8.80416 13.8679C8.29022 13.5516 7.64452 13.5411 7.12056 13.8405L7.01184 13.9024C6.14121 14.3999 5.07046 14.3915 4.2078 13.8802C3.65602 13.5533 2.97119 13.5471 2.41353 13.864L1.7039 14.267C1.46383 14.4033 1.15865 14.3195 1.02226 14.0795C0.885888 13.8394 0.970339 13.5342 1.21041 13.3978L1.91939 12.9948C2.78909 12.5007 3.85704 12.5103 4.71757 13.0202C5.2707 13.348 5.95748 13.3535 6.51575 13.0345L6.62447 12.972C7.46596 12.4912 8.50285 12.5083 9.32825 13.0163C9.85434 13.3401 10.5175 13.3428 11.0463 13.0235L11.1036 12.989Z" fill="#FAFAFA"/>
<path fill-rule="evenodd" clip-rule="evenodd" d="M6.5828 1.66799C6.80111 1.66953 7.01051 1.75437 7.20715 1.83401L13.6401 4.41799C13.8909 4.51882 14.0147 4.8059 13.9161 5.05862C13.8174 5.31104 13.534 5.43402 13.2833 5.33336L12.491 5.015L13.7098 9.90237C13.7281 9.91102 13.7463 9.91998 13.7644 9.92906L14.769 10.4317C15.0158 10.5552 15.1158 10.8553 14.9923 11.1022C14.8687 11.349 14.5686 11.4489 14.3217 11.3255L13.3172 10.8236C12.7774 10.5537 12.1372 10.5794 11.6206 10.8913L11.5633 10.9258C10.714 11.4385 9.649 11.434 8.80416 10.9141C8.29019 10.5978 7.64454 10.5873 7.12056 10.8867L7.01184 10.9486C6.14126 11.446 5.07039 11.4376 4.2078 10.9265C3.65599 10.5995 2.9712 10.5933 2.41353 10.9102L1.7039 11.3132C1.46392 11.4493 1.15867 11.3655 1.02226 11.1257C0.885896 10.8857 0.970472 10.5805 1.21041 10.444L1.91939 10.041C2.23775 9.86015 2.58279 9.7466 2.93437 9.70055L2.394 7.53258L1.84387 8.18557C1.66968 8.39216 1.36139 8.4163 1.15572 8.23961C0.950233 8.06275 0.925076 7.75166 1.09908 7.54495L5.53072 2.28453L5.56523 2.24286C5.70148 2.08021 5.84713 1.90726 6.03918 1.80341C6.20606 1.71324 6.39312 1.66672 6.5828 1.66799ZM9.09843 7.3594C9.00932 7.00231 8.64762 6.78482 8.29049 6.87372L6.99687 7.19664C6.63965 7.28574 6.42214 7.64736 6.51119 8.00458L6.97148 9.85224C7.73948 9.55082 8.61311 9.62242 9.32825 10.0625C9.48324 10.1579 9.65054 10.2241 9.82239 10.2637L9.09843 7.3594Z" fill="#FAFAFA"/>
</svg>
