<svg width="16" height="16" viewBox="0 0 16 16" fill="none" xmlns="http://www.w3.org/2000/svg">
<path d="M6.83398 2.84009C6.97223 2.85356 7.10827 2.88701 7.2373 2.9397C7.40925 3.00995 7.56589 3.11396 7.69824 3.24438L9.00293 4.52856L9.06738 4.58032C9.13637 4.62556 9.21963 4.65147 9.30566 4.65161H12.6152C13.1126 4.65161 13.5913 4.84594 13.9453 5.19458C14.2995 5.54343 14.5 6.01821 14.5 6.51489V11.969C14.5 12.4657 14.2996 12.9414 13.9453 13.2903C13.5913 13.6389 13.1126 13.8333 12.6152 13.8333H3.38477C2.94958 13.8333 2.52889 13.6841 2.19336 13.4133L2.05469 13.2903C1.70043 12.9414 1.5 12.4657 1.5 11.969V4.69751C1.5 4.20076 1.70043 3.72511 2.05469 3.37622L2.19336 3.25317C2.52889 2.98242 2.94958 2.83325 3.38477 2.83325H6.69434L6.83398 2.84009Z" fill="#FAFAFA"/>
<path d="M7.34635 10.9693V9.65161H6C5.72392 9.65161 5.5001 9.42767 5.5 9.15161C5.5 8.87547 5.72386 8.65161 6 8.65161H7.34635V7.33325C7.34635 7.05711 7.57021 6.83325 7.84635 6.83325C8.1224 6.83336 8.34635 7.05718 8.34635 7.33325V8.65161H9.69206L9.74349 8.65422C9.99558 8.67986 10.1921 8.89276 10.1921 9.15161C10.192 9.4104 9.99554 9.62339 9.74349 9.64901L9.69206 9.65161H8.34635V10.9693C8.34635 11.2454 8.1224 11.4692 7.84635 11.4693C7.57021 11.4693 7.34635 11.2455 7.34635 10.9693Z" fill="#131313"/>
</svg>
