<svg width="16" height="16" viewBox="0 0 16 16" fill="none" xmlns="http://www.w3.org/2000/svg">
<path d="M5.53125 7.51009C5.56667 7.51009 5.6012 7.52294 5.6276 7.54655L8.47526 10.3734C8.48814 10.3858 8.49886 10.4005 8.50586 10.417C8.51283 10.4334 8.51627 10.4512 8.51628 10.4691C8.51628 10.4869 8.51282 10.5047 8.50586 10.5212C8.49886 10.5376 8.48813 10.5524 8.47526 10.5648L8.10221 10.9385C8.02785 11.0135 7.93927 11.073 7.8418 11.1136C7.74431 11.1542 7.63946 11.1748 7.53385 11.1748C7.42837 11.1748 7.32394 11.1542 7.22656 11.1136C7.1291 11.073 7.04051 11.0134 6.96615 10.9385L6.49675 10.4691C6.48447 10.4558 6.46962 10.4452 6.45312 10.4378C6.43672 10.4305 6.41898 10.427 6.40104 10.4268C6.38028 10.4237 6.3588 10.4258 6.33919 10.4333C6.31966 10.4407 6.3025 10.4531 6.28906 10.4691L2.51302 14.2451C2.46346 14.2951 2.40416 14.3346 2.33919 14.3617C2.27421 14.3887 2.20451 14.4027 2.13411 14.4027C2.06371 14.4027 1.99403 14.3887 1.92904 14.3617C1.86405 14.3346 1.80478 14.2951 1.75521 14.2451C1.70527 14.1956 1.66573 14.1362 1.63867 14.0713C1.61165 14.0064 1.59766 13.9365 1.59766 13.8662C1.59769 13.7959 1.61162 13.7261 1.63867 13.6611C1.66571 13.5963 1.70536 13.5375 1.75521 13.488L5.53125 9.71191C5.54393 9.70002 5.55425 9.68553 5.5612 9.6696C5.56815 9.65354 5.57161 9.63566 5.57161 9.61816C5.57158 9.60076 5.56811 9.58335 5.5612 9.56738C5.55425 9.55141 5.54395 9.53699 5.53125 9.52506L5.06185 9.05566C4.98695 8.98133 4.9273 8.89266 4.88672 8.79525C4.84619 8.69789 4.82555 8.59341 4.82552 8.48796C4.82552 8.38235 4.84611 8.2775 4.88672 8.18001C4.92733 8.08254 4.98688 7.99396 5.06185 7.9196L5.43555 7.54655C5.4619 7.52298 5.4959 7.51013 5.53125 7.51009Z" fill="#FAFAFA"/>
<path d="M13.8678 1.59668C13.9382 1.5967 14.008 1.61064 14.0729 1.6377C14.1378 1.66473 14.1966 1.70438 14.2461 1.75423C14.2961 1.80381 14.3362 1.86307 14.3633 1.92806C14.3903 1.99302 14.4043 2.06278 14.4043 2.13314C14.4043 2.20351 14.3903 2.27325 14.3633 2.33822C14.3362 2.40321 14.2961 2.46246 14.2461 2.51204L11.0039 5.75423C10.9912 5.7662 10.9809 5.78115 10.974 5.7972C10.9671 5.8132 10.9635 5.83056 10.9635 5.84798C10.9636 5.8654 10.967 5.88277 10.974 5.89876C10.9809 5.91475 10.9912 5.92915 11.0039 5.94108L11.4733 6.41569C11.5481 6.48958 11.6073 6.57781 11.6478 6.6748C11.6883 6.77174 11.7089 6.87574 11.709 6.98079C11.709 7.08596 11.6883 7.19039 11.6478 7.28743C11.6073 7.38444 11.5481 7.47265 11.4733 7.54655L9.21159 9.80762C9.18484 9.83062 9.15114 9.84422 9.11589 9.84538C9.08232 9.84349 9.0499 9.82991 9.02474 9.80762L6.19271 6.97559C6.16963 6.9501 6.15691 6.91688 6.1569 6.88249C6.1569 6.8481 6.16965 6.81488 6.19271 6.78939L8.46484 4.52767C8.61772 4.3813 8.82156 4.2998 9.0332 4.2998C9.24473 4.29985 9.44809 4.38141 9.60091 4.52767L10.0599 4.99707C10.0722 5.01027 10.0871 5.021 10.1035 5.02832C10.1199 5.03559 10.1376 5.03979 10.1556 5.04004C10.1729 5.03971 10.1901 5.03567 10.2057 5.02832C10.2213 5.02099 10.2349 5.0101 10.2461 4.99707L13.4889 1.75423C13.5385 1.70427 13.5978 1.66476 13.6628 1.6377C13.7277 1.61066 13.7975 1.59668 13.8678 1.59668Z" fill="#FAFAFA"/>
</svg>
