<svg width="16" height="16" viewBox="0 0 16 16" fill="none" xmlns="http://www.w3.org/2000/svg">
<path fill-rule="evenodd" clip-rule="evenodd" d="M11.1673 7.257C12.4728 7.25713 13.5677 8.35184 13.5677 9.65739V11.3911H13.9108C14.1316 11.3912 14.3105 11.5707 14.3105 11.7915C14.3104 12.0122 14.1315 12.1911 13.9108 12.1912H13.0911V13.925C13.0911 14.1458 12.9122 14.3253 12.6914 14.3254C12.4705 14.3254 12.291 14.1459 12.291 13.925V12.1912H10.043V13.925C10.043 14.1458 9.86399 14.3252 9.64323 14.3254C9.42232 14.3254 9.24284 14.1459 9.24284 13.925V12.1912H8.42383C8.20301 12.1912 8.02357 12.0123 8.02344 11.7915C8.02344 11.5706 8.20292 11.3911 8.42383 11.3911H8.76628V9.65739C8.7663 8.35176 9.86173 7.257 11.1673 7.257ZM12.0599 9.67953C11.9037 9.52333 11.6504 9.52337 11.4941 9.67953L11.1673 10.0063L10.8405 9.67953C10.6843 9.52332 10.431 9.52333 10.2747 9.67953C10.1185 9.83574 10.1185 10.0891 10.2747 10.2453L10.7669 10.7375V11.3911H11.5671V10.7375L12.0599 10.2453C12.216 10.0891 12.2159 9.83573 12.0599 9.67953Z" fill="#FAFAFA"/>
<path fill-rule="evenodd" clip-rule="evenodd" d="M7.28776 1.67432C8.78707 1.67435 10.157 1.92928 11.1621 2.3514C11.664 2.56221 12.0873 2.82038 12.3893 3.12028C12.6924 3.42122 12.8874 3.78008 12.8874 4.18148V6.96859C12.3884 6.64549 11.7969 6.45692 11.1673 6.45687C9.94734 6.45687 8.87078 7.1652 8.33203 8.18734V8.18148C8.33203 7.90171 8.10521 7.67508 7.82552 7.67497C7.54568 7.67497 7.31836 7.90164 7.31836 8.18148C7.31844 8.4612 7.54573 8.68799 7.82552 8.68799C7.95685 8.68794 8.07669 8.63786 8.16667 8.55583C8.03755 8.90035 7.9668 9.2717 7.9668 9.65739V10.4035C7.74411 10.4152 7.51738 10.4211 7.28776 10.4211C6.02557 10.4211 4.94327 10.9268 4.16862 11.4432C3.78258 11.7006 3.4768 11.9584 3.26823 12.1509C3.16415 12.247 3.08422 12.3264 3.03125 12.3813C3.0048 12.4088 2.98552 12.4305 2.97266 12.4445L2.95833 12.4595L2.95508 12.4634L2.95443 12.464C2.88124 12.5473 2.76397 12.5766 2.66016 12.5376C2.55635 12.4985 2.48773 12.3992 2.48763 12.2882V8.28825C2.48763 8.21753 2.51575 8.14947 2.56576 8.09945C3.16013 7.50506 3.8969 7.05899 4.66797 6.75114C4.84445 6.68092 4.81686 6.42267 4.62956 6.39111L4.53711 6.37549C4.12738 6.27493 3.74945 6.15231 3.41276 6.01091C2.911 5.80014 2.48755 5.54249 2.18555 5.24268C1.88252 4.94178 1.68756 4.5828 1.6875 4.18148V4.18018C1.68787 3.77924 1.88276 3.42094 2.18555 3.12028C2.48758 2.82037 2.91085 2.56222 3.41276 2.3514C4.41785 1.92926 5.78836 1.67432 7.28776 1.67432ZM4.48438 8.68148C4.20455 8.68148 3.97722 8.90821 3.97721 9.18799C3.97721 9.46783 4.20455 9.6945 4.48438 9.6945C4.76411 9.69439 4.99089 9.46776 4.99089 9.18799C4.99088 8.90827 4.76411 8.68158 4.48438 8.68148ZM6.0918 8.00505C5.8121 8.00514 5.58538 8.23185 5.58529 8.51156C5.58529 8.79129 5.81204 9.01863 6.0918 9.01872C6.37163 9.01872 6.59831 8.79134 6.59831 8.51156C6.59821 8.2318 6.37157 8.00505 6.0918 8.00505ZM7.28776 3.19515C6.60655 3.19515 5.9791 3.27761 5.51367 3.41716C5.28278 3.4864 5.0764 3.57391 4.92188 3.68343C4.77425 3.78808 4.62109 3.95277 4.62109 4.18148C4.62118 4.41006 4.7743 4.57425 4.92188 4.67887C5.07643 4.78843 5.28269 4.87654 5.51367 4.9458C5.9791 5.08535 6.60655 5.16781 7.28776 5.16781C7.96887 5.16779 8.59582 5.08533 9.0612 4.9458C9.29216 4.87654 9.49844 4.78843 9.653 4.67887C9.80058 4.57425 9.95434 4.41008 9.95443 4.18148C9.95443 3.95277 9.80062 3.78808 9.653 3.68343C9.49847 3.57392 9.29207 3.48639 9.0612 3.41716C8.59582 3.27763 7.96889 3.19517 7.28776 3.19515Z" fill="#FAFAFA"/>
<path d="M1.8099 5.62093C2.17632 5.98473 2.66563 6.27597 3.20638 6.50309C3.33734 6.55809 3.47362 6.61008 3.61458 6.65934C3.11945 6.93288 2.63066 7.28066 2.1888 7.72249C2.03877 7.87252 1.95443 8.07609 1.95443 8.28825V8.76742C1.78735 8.55376 1.6875 8.30474 1.6875 8.02132V5.49137C1.72694 5.53601 1.76803 5.57936 1.8099 5.62093Z" fill="#FAFAFA"/>
</svg>
