<svg width="16" height="16" viewBox="0 0 16 16" fill="none" xmlns="http://www.w3.org/2000/svg">
<path fill-rule="evenodd" clip-rule="evenodd" d="M4.49935 1.3335C3.48683 1.3335 2.66602 2.15431 2.66602 3.16683V12.8335C2.66602 13.846 3.48683 14.6668 4.49935 14.6668H11.4993C12.5119 14.6668 13.3327 13.846 13.3327 12.8335V3.16683C13.3327 2.15431 12.5119 1.3335 11.4993 1.3335H4.49935ZM3.66602 3.16683C3.66602 2.70659 4.03911 2.3335 4.49935 2.3335H11.4993C11.9596 2.3335 12.3327 2.70659 12.3327 3.16683V12.8335C12.3327 13.2937 11.9596 13.6668 11.4993 13.6668H8.66602V9.16683C8.66602 8.15431 7.8452 7.3335 6.83268 7.3335H3.66602V3.16683Z" fill="#FAFAFA"/>
</svg>
