<svg width="16" height="16" viewBox="0 0 16 16" fill="none" xmlns="http://www.w3.org/2000/svg">
<path fill-rule="evenodd" clip-rule="evenodd" d="M9.07812 1.8125C9.35415 1.81264 9.57812 2.0371 9.57812 2.31315C9.57795 2.58906 9.35404 2.81301 9.07812 2.81315H7.65365V4.37956H10.4707C11.2283 4.37956 11.8424 4.99437 11.8424 5.75195V6.79036H13.6673C13.9434 6.79036 14.1672 7.01429 14.1673 7.29036V8.86328C14.1671 9.1392 13.9433 9.36328 13.6673 9.36328H11.8424V10.4017C11.8422 11.1591 11.2282 11.7734 10.4707 11.7734H9.11263V13.1081C9.11263 13.1345 9.11006 13.1603 9.10612 13.1855H12.5007C12.7767 13.1855 13.0005 13.4095 13.0007 13.6855C13.0007 13.9617 12.7768 14.1855 12.5007 14.1855H1.83398C1.55784 14.1855 1.33398 13.9617 1.33398 13.6855C1.33414 13.4095 1.55794 13.1855 1.83398 13.1855H5.40104C5.39711 13.1603 5.39518 13.1344 5.39518 13.1081V11.7734H4.65885C3.09888 11.7734 1.83416 10.5085 1.83398 8.94857V7.20508C1.834 5.64501 3.09878 4.37956 4.65885 4.37956H6.65365V2.81315H5.22852C4.95248 2.81315 4.72869 2.58914 4.72852 2.31315C4.72852 2.03701 4.95237 1.8125 5.22852 1.8125H9.07812ZM8.59505 8.47201C8.05314 8.11132 7.33541 8.20567 6.9043 8.67643L6.82161 8.77669C6.71912 8.91296 6.52808 8.94537 6.38607 8.85091L6.10156 8.66146L6.05794 8.63542C5.83691 8.51885 5.5584 8.58582 5.41667 8.79818C5.27491 9.01091 5.32054 9.29463 5.51367 9.45378L5.55404 9.48307L5.83724 9.67253C6.41554 10.0581 7.1943 9.92447 7.61133 9.36849L7.6543 9.32227C7.76139 9.22603 7.92324 9.21175 8.04753 9.29427L8.33203 9.48307C8.55884 9.6341 8.86497 9.57297 9.01628 9.34635C9.16735 9.11948 9.10634 8.81271 8.87956 8.66146L8.59505 8.47201ZM8.59505 6.38607C8.05304 6.02516 7.33545 6.11951 6.9043 6.5905L6.82161 6.6901C6.71914 6.82647 6.52812 6.85883 6.38607 6.76432L6.10156 6.57487C5.87477 6.42406 5.5679 6.48504 5.41667 6.71159C5.26546 6.9384 5.32739 7.24512 5.55404 7.39648L5.83724 7.58659C6.41555 7.97216 7.19431 7.83791 7.61133 7.2819L7.6543 7.23568C7.76139 7.13951 7.92328 7.12519 8.04753 7.20768L8.33203 7.39648C8.55889 7.54761 8.86498 7.4865 9.01628 7.25977C9.16737 7.03286 9.10641 6.7261 8.87956 6.57487L8.59505 6.38607Z" fill="#FAFAFA"/>
</svg>
