<svg width="16" height="16" viewBox="0 0 16 16" fill="none" xmlns="http://www.w3.org/2000/svg">
<path fill-rule="evenodd" clip-rule="evenodd" d="M9.99349 1.5C10.2693 1.50034 10.4935 1.72407 10.4935 2C10.4935 2.27593 10.2693 2.49966 9.99349 2.5H8.49675V3.85417H11.3333C11.6095 3.85417 11.8333 4.07802 11.8333 4.35417C11.8333 4.63031 11.6095 4.85417 11.3333 4.85417H10.8236V6.1875H11.3333C11.6095 6.1875 11.8333 6.41136 11.8333 6.6875C11.8333 6.96364 11.6095 7.1875 11.3333 7.1875H10.8236V8.2819C10.8236 8.65006 11.1214 8.94852 11.4896 8.94857H13.5V8.6875C13.5 8.41136 13.7239 8.1875 14 8.1875C14.2761 8.1875 14.5 8.41136 14.5 8.6875V14.0208C14.5 14.297 14.2761 14.5208 14 14.5208C13.7239 14.5208 13.5 14.297 13.5 14.0208V13.8542H2.5V14.0208C2.5 14.297 2.27614 14.5208 2 14.5208C1.72386 14.5208 1.5 14.297 1.5 14.0208V8.6875C1.5 8.41136 1.72386 8.1875 2 8.1875C2.27614 8.1875 2.5 8.41136 2.5 8.6875V8.94857H4.55599C4.92413 8.94851 5.22201 8.65005 5.22201 8.2819V7.1875H4.66667C4.39052 7.1875 4.16667 6.96364 4.16667 6.6875C4.16667 6.41136 4.39052 6.1875 4.66667 6.1875H5.22201V4.85417H4.66667C4.39052 4.85417 4.16667 4.63031 4.16667 4.35417C4.16667 4.07802 4.39052 3.85417 4.66667 3.85417H7.49675V2.5H6L5.94857 2.4974C5.69663 2.47161 5.5 2.25875 5.5 2C5.5 1.74125 5.69663 1.52839 5.94857 1.5026L6 1.5H9.99349ZM6.22201 6.1875H9.82357V4.85417H6.22201V6.1875Z" fill="#FAFAFA"/>
</svg>
