<svg width="16" height="16" viewBox="0 0 16 16" fill="none" xmlns="http://www.w3.org/2000/svg">
<path d="M8.75523 1.34429C8.8245 1.3302 8.8965 1.33048 8.96551 1.34559C9.03443 1.36072 9.09902 1.39022 9.15432 1.43153C9.2095 1.47293 9.25501 1.52563 9.28583 1.58517C9.31646 1.64476 9.33241 1.71113 9.3327 1.77723V2.6672H12.0944C12.2459 2.6672 12.3916 2.76105 12.4987 2.92762C12.6057 3.09418 12.666 3.32047 12.666 3.55588V5.75054C12.6627 5.74811 12.6596 5.74512 12.6563 5.74273L12.5703 5.68804L12.5254 5.66265C12.4976 5.64694 12.4686 5.63266 12.4395 5.61968C12.1913 5.50927 11.9313 5.43183 11.666 5.3853V3.6672H9.3327V5.45106C9.32637 5.58877 9.31882 5.72521 9.31252 5.85991C9.23085 5.91245 9.15053 5.96754 9.07359 6.02723L8.8913 6.17957C8.51985 6.51315 8.23099 6.92606 8.04299 7.38465L7.95119 7.34364L7.83465 7.29806C7.59328 7.21826 7.33296 7.2134 7.08856 7.28374L6.98309 7.3189C6.75168 7.40839 6.55162 7.56448 6.40822 7.76681C6.38865 7.79446 6.37021 7.82327 6.35354 7.85275L6.32814 7.89767L6.28518 7.98361C6.02667 8.56496 5.94042 9.21029 6.03973 9.84038C6.13926 10.47 6.41931 11.0581 6.84442 11.5318L7.00979 11.7037C7.31018 11.9932 7.66368 12.2213 8.04885 12.3794L8.00848 12.4719C7.87609 12.7706 7.86128 13.1179 7.98309 13.4361V13.4374C8.10373 13.7508 8.34436 14.0025 8.64846 14.1379C8.75834 14.1868 8.87189 14.2271 8.9857 14.2636C8.9849 14.3932 8.98309 14.5228 8.98309 14.6522C8.91903 14.668 8.85183 14.6714 8.78648 14.6613L3.07229 13.9263C2.95866 13.9105 2.85459 13.8562 2.77997 13.7746C2.70562 13.6931 2.66499 13.5887 2.66604 13.4817V3.08713C2.66796 2.98727 2.7064 2.89035 2.77411 2.81304C2.84196 2.7358 2.93591 2.68211 3.04038 2.66069L8.75523 1.34429Z" fill="#FAFAFA"/>
<path fill-rule="evenodd" clip-rule="evenodd" d="M10.7383 6.36187C11.1772 6.29267 11.6273 6.35248 12.0332 6.53309L12.0781 6.55848C12.1199 6.58813 12.1532 6.62976 12.1719 6.67827C12.1905 6.72696 12.1936 6.78049 12.1823 6.83062L12.166 6.87944L11.6061 8.13661C11.8675 8.11609 12.1324 8.1404 12.388 8.20952C12.8167 8.3256 13.2027 8.56331 13.4994 8.89377C13.7961 9.22436 13.9913 9.63403 14.0606 10.0728C14.1297 10.5116 14.0706 10.9618 13.89 11.3677C13.8617 11.4312 13.8091 11.4815 13.7442 11.5064C13.6793 11.5312 13.6071 11.5287 13.5436 11.5005L12.2858 10.9413C12.3062 11.2024 12.2833 11.4672 12.2142 11.7225C12.0981 12.1513 11.8599 12.5378 11.5293 12.8345C11.1987 13.1312 10.789 13.3258 10.3503 13.3951C9.91136 13.4643 9.46133 13.4051 9.05536 13.2245C8.99185 13.1962 8.94167 13.1435 8.91669 13.0787C8.89188 13.0139 8.89444 12.9416 8.92255 12.8781L9.48114 11.621C9.22024 11.6413 8.95634 11.6177 8.70119 11.5487C8.27227 11.4327 7.88542 11.1944 7.58856 10.8638C7.29186 10.5332 7.09665 10.1235 7.02736 9.68478C6.95818 9.24598 7.01808 8.79574 7.19859 8.38986L7.22398 8.34494C7.25358 8.30316 7.29532 8.27058 7.34377 8.25184C7.40875 8.22689 7.48135 8.22876 7.54494 8.25705L8.8021 8.81629C8.78166 8.55521 8.80601 8.29103 8.87502 8.03569C8.99103 7.60683 9.2287 7.22054 9.55926 6.92372C9.88994 6.62688 10.2994 6.43112 10.7383 6.36187ZM10.6257 9.35991C10.3395 9.31494 10.0707 9.51062 10.0254 9.79676C9.9803 10.0828 10.1756 10.3515 10.4616 10.397C10.7479 10.4423 11.0171 10.247 11.0625 9.96082C11.1078 9.67451 10.912 9.40524 10.6257 9.35991Z" fill="#FAFAFA"/>
</svg>
