<svg width="16" height="16" viewBox="0 0 16 16" fill="none" xmlns="http://www.w3.org/2000/svg">
<path d="M12.4818 12.1426C12.6276 12.1428 12.768 12.2007 12.8714 12.3045L13.1505 12.5835C13.4771 12.9104 13.9206 13.0941 14.3829 13.0941C14.723 13.094 15.0524 12.9936 15.3333 12.8105V13.8093C15.3333 14.0723 15.1201 14.2855 14.8571 14.2855H2.47619C2.2132 14.2855 2 14.0723 2 13.8093V12.7946C2.28592 12.9882 2.6251 13.095 2.97563 13.095C3.43791 13.0949 3.88134 12.9106 4.20796 12.5835L4.48698 12.3045C4.59059 12.2007 4.73067 12.1426 4.87668 12.1426C5.02265 12.1427 5.16373 12.2007 5.2673 12.3045L5.54539 12.5835C5.87201 12.9105 6.31548 13.0949 6.77771 13.095C7.24014 13.0949 7.68432 12.9107 8.01097 12.5835L8.28907 12.3045C8.39261 12.2007 8.53283 12.1427 8.67876 12.1426C8.82473 12.1427 8.96582 12.2007 9.06938 12.3045L9.34747 12.5835C9.67417 12.9106 10.1183 13.095 10.5807 13.095C11.043 13.0948 11.4865 12.9106 11.813 12.5835L12.0911 12.3045C12.1948 12.2006 12.3357 12.1426 12.4818 12.1426ZM14.1429 9.52732C14.8068 9.56682 15.3333 10.1166 15.3333 10.7903C15.3332 10.9617 15.2986 11.1313 15.231 11.2889L15.217 11.3186C15.1593 11.3634 15.1037 11.4114 15.0515 11.4637L14.7725 11.7427C14.6694 11.8457 14.5291 11.9035 14.3829 11.9036C14.2733 11.9036 14.1669 11.8707 14.0769 11.8106L13.9922 11.7418L13.7141 11.4627C13.3875 11.1357 12.944 10.9514 12.4818 10.9512C12.0193 10.9512 11.5752 11.1356 11.2485 11.4627L10.9704 11.7418C10.867 11.8453 10.7265 11.9034 10.5807 11.9036C10.4347 11.9036 10.2937 11.8455 10.1901 11.7418L9.91202 11.4627C9.58537 11.1355 9.14117 10.9513 8.67876 10.9512C8.21653 10.9514 7.77303 11.1358 7.44643 11.4627L7.16834 11.7418C7.06479 11.8454 6.92361 11.9035 6.77771 11.9036C6.63182 11.9036 6.49159 11.8454 6.38802 11.7418L6.10993 11.4627C5.78329 11.1355 5.3391 10.9513 4.87668 10.9512C4.41442 10.9513 3.971 11.1358 3.64434 11.4627L3.36532 11.7418C3.26179 11.8454 3.12148 11.9035 2.97563 11.9036C2.82981 11.9036 2.68968 11.8456 2.58594 11.7418L2.30785 11.4627C2.2441 11.3989 2.17426 11.3424 2.10231 11.2898V11.2889C2.0348 11.1313 2.00005 10.9617 2 10.7903C2 10.0909 2.56734 9.5236 3.26674 9.5236H3.42857V8.09503C3.42857 7.83204 3.64177 7.61884 3.90476 7.61884H5.33333C5.59632 7.61884 5.80952 7.83204 5.80952 8.09503V9.5236H6.7619V8.09503C6.7619 7.83204 6.9751 7.61884 7.23809 7.61884H8.66667C8.92966 7.61884 9.14286 7.83204 9.14286 8.09503V9.5236H10.8095V6.90455H14.1429V9.52732ZM7 4.2855C7.26299 4.2855 7.47619 4.4987 7.47619 4.7617V6.19027C7.47619 6.45326 7.26299 6.66646 7 6.66646H5.57143C5.30844 6.66646 5.09524 6.45326 5.09524 6.19027V4.7617C5.09524 4.4987 5.30844 4.2855 5.57143 4.2855H7ZM12.4762 2.85693C12.8707 2.85693 13.1905 3.17673 13.1905 3.57122V4.2855C13.7165 4.2855 14.1429 4.7119 14.1429 5.23789V5.71408H10.8095V5.23789C10.8095 4.7119 11.2359 4.2855 11.7619 4.2855V3.57122C11.7619 3.17673 12.0817 2.85693 12.4762 2.85693Z" fill="#FAFAFA"/>
</svg>
