<svg width="16" height="16" viewBox="0 0 16 16" fill="none" xmlns="http://www.w3.org/2000/svg">
<path fill-rule="evenodd" clip-rule="evenodd" d="M8 1.33301C11.6818 1.33301 14.6669 4.31818 14.667 8C14.667 11.6819 11.6819 14.667 8 14.667C4.31818 14.6669 1.33301 11.6818 1.33301 8C1.3331 4.31823 4.31823 1.3331 8 1.33301ZM8.8252 7.75098C8.36958 7.29537 7.63042 7.29536 7.1748 7.75098L4.97949 9.94629C4.78456 10.1415 4.78456 10.4581 4.97949 10.6533C5.17475 10.8486 5.49224 10.8486 5.6875 10.6533L7.88184 8.45801C7.94692 8.39292 8.05308 8.39292 8.11816 8.45801L10.3135 10.6533C10.5087 10.8485 10.8253 10.8486 11.0205 10.6533C11.2157 10.4581 11.2157 10.1415 11.0205 9.94629L8.8252 7.75098ZM8.8252 5.08398C8.36957 4.6285 7.63037 4.62842 7.1748 5.08398L4.97949 7.2793C4.78445 7.47443 4.78466 7.79106 4.97949 7.98633C5.17475 8.18159 5.49224 8.18159 5.6875 7.98633L7.88184 5.79102C7.94688 5.72597 8.05307 5.72606 8.11816 5.79102L10.3135 7.98633C10.5087 8.18159 10.8252 8.18159 11.0205 7.98633C11.2155 7.79105 11.2157 7.47448 11.0205 7.2793L8.8252 5.08398Z" fill="#FAFAFA"/>
</svg>
