<svg width="16" height="16" viewBox="0 0 16 16" fill="none" xmlns="http://www.w3.org/2000/svg">
<path fill-rule="evenodd" clip-rule="evenodd" d="M3.11849 1.00195C3.25115 1.00195 3.37888 1.05525 3.47266 1.14909L7.18945 4.86849L7.39388 4.66927L7.4694 4.60807C7.55023 4.55508 7.64545 4.52673 7.74349 4.52669H10.056C10.3321 4.52669 10.556 4.75055 10.556 5.02669V7.54688H14.1673C14.4434 7.54693 14.6673 7.77077 14.6673 8.04688V12.4049C14.6673 12.4297 14.6643 12.4541 14.6608 12.4779C14.6637 12.5192 14.668 12.5614 14.668 12.6035V12.9089C14.6675 14.0623 13.7317 14.9979 12.5781 14.998H5.47982C4.32609 14.998 3.39048 14.0625 3.38997 12.9089V12.6035C3.39008 11.618 4.18897 10.8191 5.17448 10.819H5.80469V6.78841C5.80469 6.68313 5.83802 6.58007 5.89974 6.49479L6.5306 5.6237L2.91146 2.0026H2.33398V7.29492H3.58333L3.70117 7.06445L3.73698 7.00456C3.8297 6.87227 3.98207 6.79167 4.14648 6.79167H4.66016C4.81455 6.79167 4.96062 6.8631 5.05534 6.98503C5.14986 7.10691 5.18268 7.2659 5.14453 7.41536L4.3737 10.4355C4.33437 10.5892 4.22447 10.7157 4.07747 10.7754C3.93051 10.835 3.76354 10.821 3.62826 10.7383L1.57292 9.47982C1.42462 9.38899 1.3341 9.22727 1.33398 9.05339V1.5026C1.33398 1.22646 1.55784 1.00195 1.83398 1.00195H3.11849ZM5.54167 11.9622C4.9786 11.9623 4.52231 12.4094 4.52214 12.9609C4.52241 13.5124 4.97866 13.9602 5.54167 13.9603C6.10473 13.9603 6.56093 13.5125 6.5612 12.9609C6.56102 12.4093 6.10479 11.9623 5.54167 11.9622ZM9.02865 11.9622C8.46558 11.9623 8.00929 12.4094 8.00911 12.9609C8.00939 13.5124 8.46564 13.9602 9.02865 13.9603C9.59171 13.9602 10.0486 13.5125 10.0488 12.9609C10.0486 12.4093 9.59177 11.9623 9.02865 11.9622ZM12.515 11.9622C11.9522 11.9626 11.4963 12.4096 11.4961 12.9609C11.4964 13.5122 11.9522 13.9599 12.515 13.9603C13.0781 13.9603 13.5355 13.5125 13.5358 12.9609C13.5356 12.4093 13.0781 11.9622 12.515 11.9622Z" fill="#FAFAFA"/>
</svg>
