<svg width="16" height="16" viewBox="0 0 16 16" fill="none" xmlns="http://www.w3.org/2000/svg">
<path fill-rule="evenodd" clip-rule="evenodd" d="M8.26529 4.77992C8.87055 4.97194 9.40761 5.33508 9.81108 5.8254L9.85216 5.88718C9.88675 5.95195 9.90217 6.02609 9.89496 6.10025C9.8877 6.17448 9.85836 6.24446 9.81183 6.30136L9.75959 6.35346L8.2408 7.60236C8.58796 7.74314 8.91052 7.94249 9.19304 8.19417C9.66714 8.61657 10.0087 9.16748 10.1769 9.7798C10.3449 10.3921 10.3325 11.0402 10.1406 11.6454C9.94856 12.2506 9.58538 12.7877 9.09511 13.1912C9.01831 13.2543 8.91921 13.2847 8.82026 13.275C8.7213 13.2654 8.63024 13.2164 8.56705 13.1397L7.31786 11.6213C7.1771 11.9682 6.97788 12.2908 6.72635 12.5731C6.30395 13.0472 5.753 13.3888 5.14071 13.5569C4.52842 13.725 3.88036 13.7126 3.27514 13.5207C2.66991 13.3287 2.13281 12.9655 1.72935 12.4752C1.66618 12.3984 1.6359 12.2993 1.64547 12.2003C1.6551 12.1014 1.70409 12.0103 1.78084 11.9471L3.29884 10.6977C2.95203 10.5569 2.62966 10.3579 2.34739 10.1064C1.8733 9.68405 1.53171 9.13308 1.36357 8.52079C1.1955 7.90853 1.20792 7.26043 1.39984 6.65522C1.59184 6.05001 1.95506 5.51289 2.44532 5.10943L2.5071 5.06835C2.57189 5.03372 2.64598 5.01835 2.72017 5.02556C2.81918 5.03518 2.91018 5.0841 2.97338 5.16092L4.22256 6.67931C4.36332 6.33237 4.56256 6.00984 4.81408 5.72747C5.23647 5.25337 5.78742 4.91178 6.39972 4.74366C7.01204 4.57557 7.66003 4.58795 8.26529 4.77992ZM6.20635 8.53971C5.86935 8.29888 5.40081 8.37681 5.15991 8.71376C4.91902 9.05077 4.99699 9.51929 5.33396 9.76021C5.67099 10.0011 6.1395 9.92318 6.38041 9.58615C6.62125 9.24913 6.54336 8.78059 6.20635 8.53971Z" fill="#FAFAFA"/>
<path d="M11.2077 8.39532C10.9809 8.24397 10.9195 7.93737 11.0707 7.71052C11.222 7.48383 11.5287 7.42305 11.7555 7.57421L12.0397 7.76325C12.1819 7.85791 12.3732 7.82526 12.4757 7.68866L12.558 7.58899C12.9604 7.14936 13.6126 7.03769 14.1385 7.31829L14.2491 7.38452L14.5333 7.57356L14.5738 7.60378C14.7671 7.76293 14.8121 8.0462 14.6703 8.259C14.5189 8.4857 14.2123 8.54707 13.9855 8.39597L13.7012 8.20628C13.5769 8.12364 13.4149 8.13815 13.3077 8.23457L13.2653 8.28087C12.8483 8.83678 12.0702 8.9703 11.4919 8.58501L11.2077 8.39532Z" fill="#FAFAFA"/>
<path d="M11.1672 5.94599C10.9739 5.78683 10.9289 5.50355 11.0707 5.29077C11.2125 5.07833 11.4907 5.01133 11.7118 5.12809L11.7555 5.15381L12.0397 5.3435C12.1819 5.43806 12.3732 5.40548 12.4757 5.26891L12.558 5.16924C12.9892 4.6982 13.7071 4.6037 14.2491 4.96477L14.5333 5.15381C14.7601 5.30504 14.8213 5.6117 14.6703 5.83861C14.519 6.06554 14.2124 6.12685 13.9855 5.97557L13.7012 5.78653C13.5769 5.70388 13.4149 5.7184 13.3077 5.81482L13.2653 5.86111C12.8483 6.41713 12.0696 6.55083 11.4912 6.16526L11.2077 5.97557L11.1672 5.94599Z" fill="#FAFAFA"/>
<path d="M11.2077 3.55582C10.9809 3.40448 10.9195 3.09787 11.0707 2.87102C11.222 2.64435 11.5287 2.58302 11.7555 2.73406L12.0397 2.92374C12.1819 3.01831 12.3732 2.98573 12.4757 2.84915L12.558 2.74949C12.9892 2.27844 13.7071 2.18395 14.2491 2.54501L14.5333 2.73406C14.7601 2.88529 14.8213 3.19195 14.6703 3.41886C14.519 3.64578 14.2124 3.7071 13.9855 3.55582L13.7012 3.36677C13.5769 3.28413 13.4149 3.29865 13.3077 3.39507L13.2653 3.44136C12.8483 3.99738 12.0696 4.13108 11.4912 3.7455L11.2077 3.55582Z" fill="#FAFAFA"/>
</svg>
