<svg width="16" height="16" viewBox="0 0 16 16" fill="none" xmlns="http://www.w3.org/2000/svg">
<path d="M7.64514 1.48287C7.84041 1.28761 8.15699 1.28761 8.35225 1.48287L10.0189 3.14954C10.2142 3.3448 10.2142 3.66138 10.0189 3.85665C9.82366 4.05191 9.50707 4.05191 9.31181 3.85665L8.4987 3.04353V5.49976C8.4987 5.7759 8.27484 5.99976 7.9987 5.99976C7.72256 5.99976 7.4987 5.7759 7.4987 5.49976V3.04353L6.68558 3.85665C6.49032 4.05191 6.17374 4.05191 5.97848 3.85665C5.78322 3.66138 5.78322 3.3448 5.97848 3.14954L7.64514 1.48287Z" fill="#FAFAFA"/>
<path d="M1.33464 13.4998C1.33464 13.2236 1.55849 12.9998 1.83464 12.9998H14.168C14.4441 12.9998 14.668 13.2236 14.668 13.4998C14.668 13.7759 14.4441 13.9998 14.168 13.9998H1.83464C1.55849 13.9998 1.33464 13.7759 1.33464 13.4998Z" fill="#FAFAFA"/>
<path d="M1.83203 10.3331C1.55589 10.3331 1.33203 10.5569 1.33203 10.8331C1.33203 11.1092 1.55589 11.3331 1.83203 11.3331H2.83203C3.10817 11.3331 3.33203 11.1092 3.33203 10.8331C3.33203 10.5569 3.10817 10.3331 2.83203 10.3331H1.83203Z" fill="#FAFAFA"/>
<path d="M13.1654 10.3331C12.8892 10.3331 12.6654 10.5569 12.6654 10.8331C12.6654 11.1092 12.8892 11.3331 13.1654 11.3331H14.1654C14.4415 11.3331 14.6654 11.1092 14.6654 10.8331C14.6654 10.5569 14.4415 10.3331 14.1654 10.3331H13.1654Z" fill="#FAFAFA"/>
<path d="M10.832 11.3331C11.1082 11.3331 11.332 11.1092 11.332 10.8331V10.6664C11.332 8.82547 9.83965 7.33309 7.9987 7.33309C6.15775 7.33309 4.66536 8.82547 4.66536 10.6664V10.8331C4.66536 11.1092 4.88922 11.3331 5.16536 11.3331C6.46039 11.3331 8.13347 11.3331 10.832 11.3331Z" fill="#FAFAFA"/>
<path fill-rule="evenodd" clip-rule="evenodd" d="M11.574 7.66675C11.3965 7.45521 11.4241 7.13984 11.6356 6.96234L12.4017 6.31955C12.6132 6.14205 12.9286 6.16964 13.1061 6.38118C13.2836 6.59271 13.256 6.90809 13.0445 7.08559L12.2784 7.72838C12.0669 7.90588 11.7515 7.87829 11.574 7.66675Z" fill="#FAFAFA"/>
<path fill-rule="evenodd" clip-rule="evenodd" d="M2.89172 6.38117C3.06922 6.16963 3.3846 6.14204 3.59613 6.31954L4.36218 6.96233C4.57372 7.13983 4.60131 7.45521 4.42381 7.66675C4.24631 7.87828 3.93093 7.90588 3.71939 7.72838L2.95335 7.08559C2.74181 6.90809 2.71422 6.59271 2.89172 6.38117Z" fill="#FAFAFA"/>
</svg>
