<svg width="16" height="16" viewBox="0 0 16 16" fill="none" xmlns="http://www.w3.org/2000/svg">
<path fill-rule="evenodd" clip-rule="evenodd" d="M8.75718 1.34381C8.8265 1.32972 8.89841 1.32998 8.96747 1.34512C9.03646 1.36026 9.10093 1.38968 9.15627 1.43105C9.21153 1.47251 9.25696 1.52507 9.28778 1.5847C9.31846 1.64435 9.3344 1.71057 9.33466 1.77676V2.66673H12.0964C12.2479 2.66673 12.3935 2.76045 12.5007 2.92715C12.6077 3.09376 12.668 3.31991 12.668 3.5554V4.8334C12.6678 5.10936 12.444 5.3334 12.168 5.3334C11.892 5.33335 11.6682 5.10933 11.668 4.8334V3.66673H9.33466V12.3334H11.668V11.1667C11.668 10.8906 11.8919 10.6668 12.168 10.6667C12.4441 10.6667 12.668 10.8906 12.668 11.1667V12.4447C12.6679 12.6802 12.6077 12.9065 12.5007 13.073C12.3935 13.2394 12.2478 13.3334 12.0964 13.3334H9.33466V14.2279C9.33458 14.2914 9.31952 14.3546 9.29104 14.4122C9.26241 14.4697 9.22044 14.5215 9.16864 14.5626C9.11682 14.6036 9.05569 14.6341 8.99025 14.6511C8.92467 14.668 8.85552 14.6712 8.78843 14.6609L3.07424 13.9258C2.96056 13.9101 2.85657 13.8558 2.78192 13.7742C2.70748 13.6926 2.66693 13.5883 2.66799 13.4812V3.08665C2.66986 2.98671 2.7083 2.88994 2.77606 2.81256C2.84393 2.73527 2.93781 2.68164 3.04234 2.66022L8.75718 1.34381ZM6.66799 7.3334C6.29984 7.33345 6.00132 7.63191 6.00132 8.00006C6.00154 8.36804 6.29997 8.66668 6.66799 8.66673C7.03605 8.66673 7.33444 8.36807 7.33466 8.00006C7.33466 7.63187 7.03618 7.3334 6.66799 7.3334Z" fill="#FAFAFA"/>
<path d="M11.7793 6.44668C11.9624 6.26364 12.2522 6.25193 12.4486 6.41217L12.4863 6.44668L13.6862 7.64655L13.7207 7.68431C13.8702 7.86759 13.8702 8.13252 13.7207 8.31582L13.6862 8.35358L12.4863 9.55345C12.2911 9.74854 11.9745 9.74859 11.7793 9.55345C11.5842 9.35823 11.5842 9.04167 11.7793 8.84642L12.1257 8.50006H10.5879C10.3119 8.50003 10.088 8.27608 10.0879 8.00006C10.088 7.724 10.3118 7.5001 10.5879 7.50006H12.1257L11.7793 7.15371L11.7448 7.11595C11.5846 6.91961 11.5964 6.62977 11.7793 6.44668Z" fill="#FAFAFA"/>
</svg>
