<svg width="16" height="16" viewBox="0 0 16 16" fill="none" xmlns="http://www.w3.org/2000/svg">
<path d="M8.82246 3.46919C9.10172 4.14031 9.56089 4.93549 10.3127 5.68729C11.0643 6.4389 11.8591 6.89762 12.5301 7.17687L7.59915 12.1079C7.21462 12.4924 7.0221 12.6846 6.81009 12.85C6.55984 13.0452 6.28926 13.2129 6.00279 13.3494C5.75994 13.4651 5.50143 13.551 4.98522 13.7231L2.26321 14.6306C2.0092 14.7153 1.72923 14.6487 1.5399 14.4594C1.35063 14.27 1.28467 13.9901 1.36933 13.7361L2.27623 11.0141C2.44831 10.4979 2.53484 10.2394 2.65058 9.99653C2.78709 9.71018 2.95417 9.43942 3.14928 9.18924C3.31472 8.97718 3.50737 8.78498 3.89212 8.40018L8.82246 3.46919Z" fill="#FAFAFA"/>
<path d="M10.1903 2.10135C11.2141 1.07754 12.8742 1.07754 13.898 2.10135C14.9216 3.1251 14.9215 4.78461 13.898 5.80838L13.3062 6.40018C13.2819 6.39215 13.2575 6.38343 13.2326 6.37479C12.6078 6.15804 11.7884 5.74958 11.0191 4.98026C10.2497 4.21092 9.84127 3.39148 9.62454 2.76672C9.61581 2.74162 9.60728 2.71693 9.59915 2.6925L10.1903 2.10135Z" fill="#FAFAFA"/>
</svg>
