<svg width="16" height="16" viewBox="0 0 16 16" fill="none" xmlns="http://www.w3.org/2000/svg">
<path fill-rule="evenodd" clip-rule="evenodd" d="M10.0007 2.4502C10.2768 2.4502 10.5007 2.67405 10.5007 2.9502C10.5007 3.22634 10.2768 3.4502 10.0007 3.4502H8.50065V5.33626H11.3346C13.1752 5.33626 14.6673 6.82836 14.6673 8.66895C14.6672 10.2889 13.5112 11.6382 11.9792 11.9385V13.0498C11.979 13.3257 11.7551 13.5496 11.4792 13.5498C11.2031 13.5498 10.9793 13.3258 10.9792 13.0498V12.0016H5.02214V13.0498C5.02196 13.3258 4.79817 13.5498 4.52214 13.5498C4.2461 13.5498 4.02231 13.3258 4.02214 13.0498V11.9385C2.49014 11.6382 1.33414 10.2889 1.33398 8.66895C1.33398 6.82836 2.82608 5.33626 4.66667 5.33626H7.50065V3.4502H6.00065C5.72451 3.4502 5.50065 3.22634 5.50065 2.9502C5.50065 2.67405 5.72451 2.4502 6.00065 2.4502H10.0007ZM10.5677 7.2666C10.3469 7.1012 10.0328 7.14617 9.86719 7.36686C9.70188 7.5876 9.74639 7.90103 9.9668 8.06673L10.0996 8.16634H6.16862L6.30143 8.06673C6.52183 7.90103 6.56635 7.5876 6.40104 7.36686C6.2354 7.14617 5.92137 7.1012 5.70052 7.2666L4.36719 8.2666C4.35827 8.27329 4.34948 8.28028 4.34115 8.28744C4.33793 8.2902 4.33453 8.29304 4.33138 8.2959C4.32686 8.29999 4.32269 8.30469 4.31836 8.30892C4.31522 8.31199 4.31166 8.31489 4.30859 8.31803C4.29978 8.32709 4.29186 8.33709 4.28385 8.34668C4.27839 8.35324 4.27276 8.35996 4.26758 8.36686C4.26548 8.36966 4.26311 8.3725 4.26107 8.37533C4.25553 8.38304 4.25054 8.39137 4.24544 8.39941C4.23916 8.40934 4.2334 8.41973 4.22786 8.43001C4.22262 8.43974 4.2168 8.44936 4.21224 8.45931C4.2082 8.46817 4.20469 8.47752 4.20117 8.48665C4.19561 8.5011 4.19104 8.51607 4.18685 8.53092C4.1848 8.53822 4.1827 8.54571 4.18099 8.55306C4.17812 8.56544 4.17512 8.57811 4.17318 8.59082C4.17276 8.59356 4.17226 8.59654 4.17187 8.59928C4.1703 8.61101 4.16936 8.62312 4.16862 8.63509C4.16837 8.63913 4.16812 8.64342 4.16797 8.64746C4.16774 8.65364 4.16733 8.6601 4.16732 8.66634C4.16732 8.67258 4.16773 8.67904 4.16797 8.68522C4.16812 8.68948 4.16836 8.69398 4.16862 8.69824C4.16935 8.70977 4.17038 8.72144 4.17187 8.73275C4.17231 8.73595 4.17331 8.73932 4.17383 8.74251C4.17539 8.75272 4.17687 8.76312 4.17904 8.77311C4.18194 8.78651 4.18671 8.79963 4.19076 8.81283C4.19355 8.82195 4.19655 8.8312 4.19987 8.84017C4.2035 8.84993 4.20674 8.86 4.21094 8.86947C4.22585 8.90299 4.24403 8.93586 4.26693 8.96647C4.29157 8.99933 4.3205 9.02745 4.35091 9.05241C4.35646 9.05696 4.36205 9.06173 4.36784 9.06608L5.70052 10.0661C5.92141 10.2317 6.23536 10.1873 6.40104 9.96647C6.56638 9.74565 6.5214 9.43224 6.30078 9.2666L6.16732 9.16634H10.1009L9.96745 9.2666C9.74682 9.43224 9.70185 9.74565 9.86719 9.96647C10.0329 10.1873 10.3468 10.2317 10.5677 10.0661L11.9004 9.06608C11.9062 9.06173 11.9118 9.05696 11.9173 9.05241C11.9477 9.02745 11.9767 8.99933 12.0013 8.96647C12.0289 8.92954 12.0484 8.88897 12.0645 8.84798C12.069 8.83636 12.0738 8.82472 12.0775 8.81283C12.0832 8.79419 12.087 8.77518 12.0905 8.75619C12.0929 8.74305 12.095 8.72976 12.0964 8.71647C12.098 8.69979 12.099 8.68304 12.099 8.66634C12.099 8.64922 12.0981 8.63201 12.0964 8.61491C12.0946 8.59832 12.0919 8.58177 12.0885 8.56543C12.0859 8.55282 12.083 8.54012 12.0794 8.52767C12.0742 8.50958 12.0678 8.49174 12.0605 8.47428C12.0539 8.45831 12.0469 8.44219 12.0384 8.42676C12.0348 8.42009 12.0313 8.41309 12.0273 8.40658C12.0191 8.39314 12.0103 8.37972 12.0007 8.36686C11.9944 8.35859 11.9877 8.35055 11.9811 8.34277C11.9775 8.33849 11.9739 8.33392 11.9701 8.32975L11.9681 8.32715L11.9401 8.29915C11.9389 8.29806 11.9374 8.297 11.9362 8.2959C11.933 8.29304 11.9296 8.2902 11.9264 8.28744C11.9182 8.28039 11.9098 8.27319 11.901 8.2666L10.5677 7.2666Z" fill="#FAFAFA"/>
</svg>
