<svg width="16" height="16" viewBox="0 0 16 16" fill="none" xmlns="http://www.w3.org/2000/svg">
<path d="M14.4007 11.3C14.2673 12 13.7007 12.5333 13.0007 12.6333C11.9007 12.8 10.0673 13 8.00065 13C5.96732 13 4.13398 12.8 3.00065 12.6333C2.30065 12.5333 1.73398 12 1.60065 11.3C1.46732 10.5333 1.33398 9.4 1.33398 8C1.33398 6.6 1.46732 5.46667 1.60065 4.7C1.73398 4 2.30065 3.46667 3.00065 3.36667C4.10065 3.2 5.93398 3 8.00065 3C10.0673 3 11.8673 3.2 13.0007 3.36667C13.7007 3.46667 14.2673 4 14.4007 4.7C14.534 5.46667 14.7006 6.6 14.7006 8C14.6673 9.4 14.534 10.5333 14.4007 11.3Z" fill="#FF3D00"/>
<path d="M6.66602 10.3334V5.66675L10.666 8.00008L6.66602 10.3334Z" fill="#FAFAFA"/>
</svg>
