<svg width="16" height="16" viewBox="0 0 16 16" fill="none" xmlns="http://www.w3.org/2000/svg">
<path d="M2.61906 2.85926C2.81431 2.66422 3.13089 2.66415 3.32609 2.85926L13.5605 13.0936C13.7555 13.2888 13.7555 13.6054 13.5605 13.8007C13.3652 13.9959 13.048 13.9959 12.8528 13.8007L10.2402 11.188L6.36515 15.341C6.21265 15.5042 5.97012 15.5465 5.7714 15.4445C5.57279 15.3425 5.46598 15.1206 5.50969 14.9016L6.4257 10.3182L2.82414 8.96799C2.66803 8.90934 2.55112 8.77615 2.51294 8.61382C2.47496 8.45148 2.52098 8.28069 2.63469 8.15874L4.84367 5.7909L2.61906 3.5663C2.42388 3.37103 2.42383 3.0545 2.61906 2.85926Z" fill="#FAFAFA"/>
<path d="M9.69523 0.603404C9.84654 0.48705 10.0543 0.465892 10.2284 0.555227C10.4023 0.644635 10.5062 0.82553 10.4999 1.01616L10.4902 1.0982L9.57349 5.68088L13.1757 7.03179C13.3319 7.09047 13.4488 7.22354 13.4869 7.38596C13.5248 7.54831 13.4789 7.71913 13.3652 7.84103L11.5208 9.81695L6.12362 4.41981L9.63469 0.658743L9.69523 0.603404Z" fill="#FAFAFA"/>
</svg>
