<svg width="16" height="16" viewBox="0 0 16 16" fill="none" xmlns="http://www.w3.org/2000/svg">
<path d="M11.0443 11.7227C11.0823 11.89 11.0315 12.0654 10.9102 12.1868L8.3542 14.7422C8.26047 14.8359 8.13322 14.8886 8.00068 14.8887C7.8682 14.8886 7.74087 14.8358 7.64717 14.7422L5.09183 12.1868C4.97039 12.0654 4.9197 11.8901 4.95771 11.7227L6.4473 5.16667H9.55342L11.0443 11.7227Z" fill="#FAFAFA"/>
<path d="M9.13284 1.75846C9.26906 1.77505 9.4019 1.81617 9.52412 1.88021C9.68695 1.96559 9.82696 2.0891 9.93167 2.24023C10.0364 2.39144 10.103 2.56616 10.1257 2.7487C10.1483 2.93108 10.1263 3.11631 10.0619 3.28841L9.73245 4.16667H6.26891L5.94013 3.28841C5.87563 3.11626 5.8537 2.93114 5.87633 2.7487C5.89902 2.56614 5.96558 2.39145 6.07034 2.24023C6.1751 2.0891 6.31501 1.96556 6.47789 1.88021C6.64078 1.79489 6.82201 1.75008 7.00589 1.75H8.99612L9.13284 1.75846Z" fill="#FAFAFA"/>
</svg>
