<svg width="16" height="16" viewBox="0 0 16 16" fill="none" xmlns="http://www.w3.org/2000/svg">
<path d="M3.7998 10.083C4.23815 10.083 4.51753 10.0844 4.72168 10.1025C4.77192 10.107 4.81061 10.1152 4.84082 10.1201C4.84192 10.1373 4.84583 10.1566 4.84668 10.1787C4.85013 10.2689 4.84961 10.3756 4.84961 10.5195V12.8135C4.84961 12.9574 4.85012 13.0641 4.84668 13.1543C4.84584 13.1763 4.84192 13.1958 4.84082 13.2129C4.81059 13.2178 4.77198 13.227 4.72168 13.2314C4.51753 13.2495 4.23815 13.25 3.7998 13.25C3.36176 13.25 3.08301 13.2495 2.87891 13.2314C2.82824 13.227 2.78913 13.2179 2.75879 13.2129C2.75769 13.1958 2.75475 13.1763 2.75391 13.1543C2.75046 13.0641 2.75 12.9574 2.75 12.8135V10.5195C2.75 10.3756 2.75045 10.269 2.75391 10.1787C2.75475 10.1566 2.75769 10.1373 2.75879 10.1201C2.78913 10.1151 2.82827 10.107 2.87891 10.1025C3.08301 10.0845 3.36172 10.083 3.7998 10.083ZM8 7.41699C8.43892 7.41699 8.71648 7.41783 8.91895 7.43652C8.96982 7.44123 9.00839 7.44994 9.03809 7.45508C9.03999 7.47972 9.04556 7.50914 9.04688 7.54492C9.05038 7.64033 9.0498 7.75277 9.0498 7.90234V12.7637C9.0498 12.9134 9.05038 13.0266 9.04688 13.1221C9.04557 13.1574 9.03997 13.1865 9.03809 13.2109C9.00837 13.2161 8.9699 13.2258 8.91895 13.2305C8.71648 13.2492 8.43892 13.25 8 13.25C7.5611 13.25 7.28352 13.2492 7.08105 13.2305C7.02955 13.2257 6.99076 13.2161 6.96094 13.2109C6.95906 13.1865 6.9554 13.1573 6.9541 13.1221C6.95059 13.0266 6.9502 12.9134 6.9502 12.7637V7.90234C6.9502 7.75277 6.95059 7.64033 6.9541 7.54492C6.95542 7.50919 6.95904 7.4797 6.96094 7.45508C6.99075 7.44989 7.02963 7.44128 7.08105 7.43652C7.28352 7.41783 7.5611 7.41699 8 7.41699ZM12.2002 2.75C12.6389 2.75 12.9154 2.75065 13.1172 2.76953C13.1686 2.77435 13.2077 2.78286 13.2373 2.78809C13.2396 2.81547 13.2446 2.84897 13.2461 2.89062C13.2496 2.98803 13.25 3.10303 13.25 3.25488V12.7451C13.25 12.897 13.2496 13.012 13.2461 13.1094C13.2446 13.1505 13.2395 13.1837 13.2373 13.2109C13.2077 13.2162 13.1687 13.2256 13.1172 13.2305C12.9154 13.2493 12.6389 13.25 12.2002 13.25C11.7611 13.25 11.4841 13.2494 11.2822 13.2305C11.2299 13.2256 11.1909 13.2153 11.1611 13.21C11.1589 13.1829 11.1548 13.15 11.1533 13.1094C11.1498 13.012 11.1504 12.897 11.1504 12.7451V3.25488C11.1504 3.10303 11.1498 2.98803 11.1533 2.89062C11.1548 2.84951 11.1589 2.81625 11.1611 2.78906C11.1909 2.78376 11.23 2.77443 11.2822 2.76953C11.4841 2.75062 11.7611 2.75 12.2002 2.75Z" fill="#FAFAFA" stroke="#FAFAFA" stroke-width="1.5"/>
</svg>
