<svg width="16" height="16" viewBox="0 0 16 16" fill="none" xmlns="http://www.w3.org/2000/svg">
<path d="M3.28418 3.28516C5.88763 0.681928 10.1095 0.68192 12.7129 3.28516C15.3163 5.88859 15.3162 10.1104 12.7129 12.7139C10.1094 15.3174 5.88766 15.3174 3.28418 12.7139C0.680878 10.1104 0.680746 5.88858 3.28418 3.28516ZM6.26562 4.93359V11.0674H7.31348V8.76562H8.57617C8.96786 8.76556 9.32188 8.69632 9.6377 8.55664C9.95665 8.41385 10.2092 8.20232 10.3945 7.92285C10.5828 7.64038 10.6767 7.28919 10.6768 6.87012C10.6767 6.43901 10.5826 6.0804 10.3945 5.79492C10.2093 5.50944 9.95654 5.29514 9.6377 5.15234C9.32188 5.00658 8.96787 4.93366 8.57617 4.93359H6.26562ZM8.48438 5.79004C8.8124 5.79007 9.08142 5.87852 9.29102 6.05469C9.50051 6.23089 9.60545 6.50265 9.60547 6.87012C9.60543 7.21637 9.5006 7.47811 9.29102 7.6543C9.08449 7.8273 8.81532 7.91403 8.48438 7.91406H7.31348V5.79004H8.48438Z" fill="#FAFAFA"/>
</svg>
