<svg width="16" height="16" viewBox="0 0 16 16" fill="none" xmlns="http://www.w3.org/2000/svg">
<path fill-rule="evenodd" clip-rule="evenodd" d="M7.9987 1.33333C6.36536 1.33333 5.04536 1.58666 4.11203 2.06666C3.16536 2.55333 2.5787 3.29999 2.5787 4.25999V6.56666H1.76536C1.52536 6.56666 1.33203 6.75999 1.33203 6.99999C1.33203 7.23999 1.52536 7.43333 1.76536 7.43333H2.58536V11.2333C2.58536 11.88 2.8387 12.4933 3.2987 12.9533C3.38536 13.04 3.4787 13.12 3.5787 13.1933V14.22C3.5787 14.46 3.77203 14.6533 4.01203 14.6533C4.25203 14.6533 4.44536 14.46 4.44536 14.22V13.5933C4.62536 13.64 4.8187 13.66 5.00536 13.66H10.992C11.1787 13.66 11.372 13.64 11.552 13.5933V14.22C11.552 14.46 11.7454 14.6533 11.9854 14.6533C12.2254 14.6533 12.4187 14.46 12.4187 14.22V13.1933C12.5187 13.12 12.6187 13.04 12.7054 12.9467C13.1587 12.4933 13.4187 11.8733 13.4187 11.2267V7.42666H14.2254C14.4654 7.42666 14.6587 7.23333 14.6587 6.99333C14.6587 6.75333 14.4654 6.55999 14.2254 6.55999H13.4187V4.25333C13.4187 3.29333 12.832 2.54666 11.8854 2.05999C10.952 1.57999 9.63203 1.32666 7.9987 1.32666V1.33333ZM12.5454 6.94666V5.19999H3.45203V8.81333H12.5454V7.06666C12.5454 7.06666 12.5454 7.02666 12.5454 7.00666C12.5454 6.98666 12.5454 6.96666 12.5454 6.94666ZM5.50536 10.8067C5.26536 10.8067 5.07203 11 5.07203 11.24C5.07203 11.48 5.26536 11.6733 5.50536 11.6733H6.00536C6.24536 11.6733 6.4387 11.48 6.4387 11.24C6.4387 11 6.24536 10.8067 6.00536 10.8067H5.50536ZM9.55203 11.24C9.55203 11 9.74536 10.8067 9.98536 10.8067H10.4854C10.7254 10.8067 10.9187 11 10.9187 11.24C10.9187 11.48 10.7254 11.6733 10.4854 11.6733H9.98536C9.74536 11.6733 9.55203 11.48 9.55203 11.24Z" fill="#FAFAFA"/>
</svg>
