<svg width="16" height="16" viewBox="0 0 16 16" fill="none" xmlns="http://www.w3.org/2000/svg">
<path fill-rule="evenodd" clip-rule="evenodd" d="M7.9987 8.8335C8.64303 8.8335 9.16536 9.35583 9.16536 10.0002C9.16536 10.6445 8.64303 11.1668 7.9987 11.1668C7.35437 11.1668 6.83203 10.6445 6.83203 10.0002C6.83203 9.35583 7.35437 8.8335 7.9987 8.8335ZM7.9987 9.8335C7.90665 9.8335 7.83203 9.90811 7.83203 10.0002C7.83203 10.0922 7.90665 10.1668 7.9987 10.1668C8.09074 10.1668 8.16536 10.0922 8.16536 10.0002C8.16536 9.90811 8.09074 9.8335 7.9987 9.8335Z" fill="#FAFAFA"/>
<path d="M5.66536 8.3335C6.03355 8.3335 6.33203 8.63197 6.33203 9.00016C6.33203 9.36835 6.03355 9.66683 5.66536 9.66683C5.29717 9.66683 4.9987 9.36835 4.9987 9.00016C4.9987 8.63197 5.29717 8.3335 5.66536 8.3335Z" fill="#FAFAFA"/>
<path d="M10.332 8.3335C10.7002 8.3335 10.9987 8.63197 10.9987 9.00016C10.9987 9.36835 10.7002 9.66683 10.332 9.66683C9.96384 9.66683 9.66536 9.36835 9.66536 9.00016C9.66536 8.63197 9.96384 8.3335 10.332 8.3335Z" fill="#FAFAFA"/>
<path fill-rule="evenodd" clip-rule="evenodd" d="M6.4987 5.50016C7.14303 5.50016 7.66536 6.0225 7.66536 6.66683C7.66536 7.31116 7.14303 7.8335 6.4987 7.8335C5.85437 7.8335 5.33203 7.31116 5.33203 6.66683C5.33203 6.0225 5.85437 5.50016 6.4987 5.50016ZM6.4987 6.50016C6.40665 6.50016 6.33203 6.57478 6.33203 6.66683C6.33203 6.75888 6.40665 6.8335 6.4987 6.8335C6.59074 6.8335 6.66536 6.75888 6.66536 6.66683C6.66536 6.57478 6.59074 6.50016 6.4987 6.50016Z" fill="#FAFAFA"/>
<path fill-rule="evenodd" clip-rule="evenodd" d="M9.4987 5.50016C10.143 5.50016 10.6654 6.0225 10.6654 6.66683C10.6654 7.31116 10.143 7.8335 9.4987 7.8335C8.85437 7.8335 8.33203 7.31116 8.33203 6.66683C8.33203 6.0225 8.85437 5.50016 9.4987 5.50016ZM9.4987 6.50016C9.40665 6.50016 9.33203 6.57478 9.33203 6.66683C9.33203 6.75888 9.40665 6.8335 9.4987 6.8335C9.59074 6.8335 9.66536 6.75888 9.66536 6.66683C9.66536 6.57478 9.59074 6.50016 9.4987 6.50016Z" fill="#FAFAFA"/>
<path fill-rule="evenodd" clip-rule="evenodd" d="M12.6654 1.3335C13.7699 1.3335 14.6654 2.22893 14.6654 3.3335V12.6668C14.6654 13.7714 13.7699 14.6668 12.6654 14.6668H3.33203C2.22746 14.6668 1.33203 13.7714 1.33203 12.6668V3.3335C1.33203 2.22893 2.22746 1.3335 3.33203 1.3335H12.6654ZM7.9987 3.3335C6.76102 3.3335 5.57374 3.82486 4.69857 4.70003C3.8234 5.5752 3.33203 6.76249 3.33203 8.00016C3.33203 9.23784 3.8234 10.4251 4.69857 11.3003C5.57374 12.1755 6.76102 12.6668 7.9987 12.6668C9.23637 12.6668 10.4237 12.1755 11.2988 11.3003C12.174 10.4251 12.6654 9.23784 12.6654 8.00016C12.6654 6.76249 12.174 5.5752 11.2988 4.70003C10.4237 3.82486 9.23637 3.3335 7.9987 3.3335Z" fill="#FAFAFA"/>
</svg>
