<svg width="16" height="16" viewBox="0 0 16 16" fill="none" xmlns="http://www.w3.org/2000/svg">
<path d="M13.7187 13.6387C13.9707 13.6644 14.1673 13.8773 14.1673 14.1361C14.1673 14.3948 13.9707 14.6077 13.7187 14.6335L13.6673 14.6361H2.33398C2.05784 14.6361 1.83398 14.4122 1.83398 14.1361C1.83398 13.8599 2.05784 13.6361 2.33398 13.6361H13.6673L13.7187 13.6387Z" fill="#FAFAFA"/>
<path fill-rule="evenodd" clip-rule="evenodd" d="M10.6185 1.8418C12.0911 1.84197 13.2858 3.03581 13.2858 4.50846V14.6387H2.71615V4.50846C2.71615 3.0357 3.9107 1.8418 5.38346 1.8418H10.6185ZM7.99805 5.18099C7.72198 5.18108 7.49805 5.4049 7.49805 5.68099V5.93359C7.35519 5.92512 7.20922 5.97622 7.10352 6.08854C6.92647 6.27724 6.92438 6.56726 7.09049 6.75846L7.12565 6.79557L7.49805 7.14453V7.82682L6.89193 7.48177L6.77148 6.98698C6.70624 6.72049 6.43424 6.55725 6.16471 6.62305C6.01752 6.65917 5.90247 6.75765 5.83789 6.88151L5.61263 6.7526C5.37281 6.61602 5.06523 6.69869 4.92578 6.93685C4.7865 7.17512 4.86774 7.4791 5.10742 7.61589L5.33333 7.74479C5.25692 7.86197 5.22822 8.00905 5.27018 8.153C5.34717 8.41639 5.62611 8.56707 5.89258 8.48958L6.38672 8.34505L6.98763 8.6875L6.38672 9.0306L5.89193 8.88607C5.62561 8.80881 5.3472 8.95946 5.27018 9.22266C5.22818 9.36663 5.2569 9.51431 5.33333 9.63151L5.10742 9.75977C4.86774 9.89645 4.78607 10.2005 4.92513 10.4388C5.06452 10.677 5.37216 10.7595 5.61198 10.623L5.83789 10.4941C5.90246 10.6181 6.01745 10.7165 6.16471 10.7526C6.43426 10.8184 6.70564 10.6552 6.77083 10.3887L6.89193 9.89388L7.49805 9.54818V10.1927L7.12565 10.5423C6.92471 10.7313 6.91478 11.0475 7.10352 11.2487C7.20925 11.3611 7.35511 11.4115 7.49805 11.403V11.6947C7.49805 11.9707 7.72198 12.1946 7.99805 12.1947C8.27381 12.1942 8.49805 11.9705 8.49805 11.6947V11.403C8.64078 11.4112 8.78639 11.361 8.89193 11.2487C9.08047 11.0475 9.07057 10.7313 8.86979 10.5423L8.49805 10.1934V9.54818L9.06966 9.87435L9.19075 10.3698C9.25602 10.6363 9.52801 10.7989 9.79753 10.7331C9.94477 10.6969 10.0592 10.5986 10.1237 10.4746L10.3835 10.623C10.6233 10.7595 10.9309 10.677 11.0703 10.4388C11.2095 10.2006 11.1283 9.89654 10.8887 9.75977L10.6283 9.61133C10.7047 9.49414 10.734 9.34708 10.6921 9.20312C10.6197 8.9564 10.3701 8.80849 10.1198 8.85482L10.0703 8.86654L9.57487 9.01107L9.00716 8.6875L9.57422 8.36458L10.0697 8.50911C10.3361 8.58654 10.615 8.43582 10.6921 8.17253C10.7341 8.02852 10.7047 7.88153 10.6283 7.76432L10.8887 7.61589C11.1282 7.47904 11.2095 7.17503 11.0703 6.93685C10.9309 6.69872 10.6233 6.61613 10.3835 6.7526L10.123 6.90104C10.0585 6.77731 9.94453 6.67875 9.79753 6.64258C9.5448 6.58094 9.28953 6.72038 9.20508 6.95768L9.19075 7.00651L9.06966 7.50195L8.49805 7.82747V7.14388L8.86979 6.79557C9.07069 6.60664 9.08051 6.28978 8.89193 6.08854C8.78642 5.97637 8.64067 5.92537 8.49805 5.93359V5.68099C8.49805 5.40512 8.27381 5.18143 7.99805 5.18099Z" fill="#FAFAFA"/>
</svg>
