<svg width="16" height="16" viewBox="0 0 16 16" fill="none" xmlns="http://www.w3.org/2000/svg">
<path fill-rule="evenodd" clip-rule="evenodd" d="M10.5326 1.5C10.8087 1.5 11.0326 1.72386 11.0326 2C11.0325 2.27607 10.8086 2.5 10.5326 2.5H9.03255V3.5L9.36068 3.50065C10.5001 3.4996 11.6085 3.87168 12.5156 4.5612C13.3661 5.20772 13.9959 6.09937 14.3216 7.11328L14.3828 7.31771L14.3841 7.32227C14.473 7.65491 14.4258 8.00917 14.2539 8.30729C14.0818 8.60543 13.7987 8.82386 13.4661 8.91341L13.4655 8.91276L13.4544 8.91667L13.4486 8.91797C13.1319 9.00295 12.7943 8.95927 12.5098 8.79622C12.2272 8.63414 12.0193 8.36715 11.9316 8.05339C11.7695 7.48986 11.4283 6.99434 10.9596 6.64193C10.6256 6.39075 10.2392 6.22376 9.83268 6.14779V7.10026H10.2656L10.4206 7.10807C10.7792 7.14369 11.1166 7.30216 11.3737 7.55925C11.6672 7.85297 11.8326 8.25145 11.8327 8.66667V13.4668C11.8326 13.7407 11.7236 14.0043 11.5299 14.1979C11.3362 14.3915 11.0728 14.5 10.7988 14.5H6.26562C5.99175 14.5 5.72882 14.3913 5.53516 14.1979C5.34144 14.0042 5.23255 13.7406 5.23242 13.4668V8.66667C5.23249 8.25138 5.39782 7.85297 5.69141 7.55925C5.98516 7.26548 6.38343 7.10033 6.79883 7.10026H7.23307V6.10026H6.13281C5.85681 6.10026 5.63304 5.87621 5.63281 5.60026V4C5.63281 3.72386 5.85667 3.5 6.13281 3.5H8.03255V2.5H6.53255C6.25646 2.5 6.03264 2.27607 6.03255 2C6.03255 1.72386 6.25641 1.5 6.53255 1.5H10.5326ZM6.63281 5.10026H7.73307C8.0091 5.1004 8.23307 5.3242 8.23307 5.60026V7.10026H8.83268V5.60026C8.83268 5.32442 9.0562 5.10069 9.33203 5.10026C10.1357 5.09921 10.9182 5.35948 11.5605 5.84245C12.2028 6.32536 12.6703 7.00448 12.8926 7.77669L12.8945 7.7832C12.9113 7.84451 12.952 7.89672 13.0072 7.92839C13.0615 7.9595 13.1256 7.9679 13.1862 7.95247L13.2005 7.94922L13.2057 7.94727C13.2823 7.92665 13.3482 7.87676 13.388 7.80794C13.427 7.74026 13.4376 7.66006 13.4186 7.58464L13.3698 7.41927C13.1067 6.60016 12.5979 5.87979 11.9108 5.35742C11.1779 4.80028 10.282 4.49909 9.36133 4.5H6.63281V5.10026Z" fill="#FAFAFA"/>
<path d="M2.33268 5.89974C2.71919 5.89974 3.03239 6.21314 3.03255 6.59961C3.03255 6.98621 2.71928 7.29948 2.33268 7.29948C1.94614 7.29941 1.63281 6.98617 1.63281 6.59961C1.63297 6.21319 1.94624 5.89981 2.33268 5.89974Z" fill="#FAFAFA"/>
<path d="M4.33268 5.09961C4.71919 5.09961 5.03239 5.41301 5.03255 5.79948C5.03255 6.18608 4.71928 6.49935 4.33268 6.49935C3.94614 6.49928 3.63281 6.18604 3.63281 5.79948C3.63297 5.41306 3.94624 5.09968 4.33268 5.09961Z" fill="#FAFAFA"/>
<path d="M2.33268 3.89974C2.71919 3.89974 3.03239 4.21314 3.03255 4.59961C3.03255 4.98621 2.71928 5.29948 2.33268 5.29948C1.94614 5.29941 1.63281 4.98617 1.63281 4.59961C1.63297 4.21319 1.94624 3.89981 2.33268 3.89974Z" fill="#FAFAFA"/>
<path d="M4.33268 2.69987C4.71924 2.69987 5.03248 3.0132 5.03255 3.39974C5.03255 3.78634 4.71928 4.09961 4.33268 4.09961C3.94614 4.09954 3.63281 3.7863 3.63281 3.39974C3.63288 3.01324 3.94618 2.69994 4.33268 2.69987Z" fill="#FAFAFA"/>
<path d="M2.33268 1.89974C2.71919 1.89974 3.03239 2.21314 3.03255 2.59961C3.03255 2.98621 2.71928 3.29948 2.33268 3.29948C1.94614 3.29941 1.63281 2.98617 1.63281 2.59961C1.63297 2.21319 1.94624 1.89981 2.33268 1.89974Z" fill="#FAFAFA"/>
</svg>
