<svg width="16" height="16" viewBox="0 0 16 16" fill="none" xmlns="http://www.w3.org/2000/svg">
<path fill-rule="evenodd" clip-rule="evenodd" d="M11.332 2.1665C12.3446 2.1665 13.1654 2.98732 13.1654 3.99984V11.9998C13.1654 13.0124 12.3446 13.8332 11.332 13.8332H4.66536C3.65284 13.8332 2.83203 13.0124 2.83203 11.9998V3.99984C2.83203 2.98732 3.65284 2.1665 4.66536 2.1665H11.332ZM5.9987 10.1665C5.72256 10.1665 5.4987 10.3904 5.4987 10.6665V11.3332C5.4987 11.6093 5.72256 11.8332 5.9987 11.8332C6.27484 11.8332 6.4987 11.6093 6.4987 11.3332V10.6665C6.4987 10.3904 6.27484 10.1665 5.9987 10.1665ZM7.9987 10.1665C7.72256 10.1665 7.4987 10.3904 7.4987 10.6665V11.3332C7.4987 11.6093 7.72256 11.8332 7.9987 11.8332C8.27484 11.8332 8.4987 11.6093 8.4987 11.3332V10.6665C8.4987 10.3904 8.27484 10.1665 7.9987 10.1665ZM9.9987 10.1665C9.72256 10.1665 9.4987 10.3904 9.4987 10.6665V11.3332C9.4987 11.6093 9.72256 11.8332 9.9987 11.8332C10.2748 11.8332 10.4987 11.6093 10.4987 11.3332V10.6665C10.4987 10.3904 10.2748 10.1665 9.9987 10.1665ZM5.9987 4.33317C5.44641 4.33317 4.9987 4.78089 4.9987 5.33317V7.99984L5.00391 8.10205C5.0551 8.60632 5.48092 8.99984 5.9987 8.99984H9.9987C10.551 8.99984 10.9987 8.55212 10.9987 7.99984V5.33317C10.9987 4.78089 10.551 4.33317 9.9987 4.33317H5.9987Z" fill="#FAFAFA"/>
</svg>
