<svg width="16" height="16" viewBox="0 0 16 16" fill="none" xmlns="http://www.w3.org/2000/svg">
<path fill-rule="evenodd" clip-rule="evenodd" d="M10.9154 7.16657C11.9099 7.16657 12.864 7.56141 13.5673 8.26466C14.2124 8.90975 14.5968 9.76596 14.6561 10.6708C14.6566 10.6757 14.657 10.6805 14.6572 10.6854C14.662 10.7622 14.6654 10.8392 14.6654 10.9166C14.6654 11.9111 14.2705 12.8652 13.5673 13.5685C12.864 14.2717 11.9099 14.6665 10.9154 14.6665C9.92083 14.6665 8.96672 14.2717 8.26347 13.5685C7.90748 13.2125 7.63096 12.792 7.44425 12.3347C7.44142 12.3284 7.43916 12.3218 7.43665 12.3152C7.25961 11.8746 7.16538 11.4005 7.16538 10.9166C7.16538 9.92201 7.56022 8.96792 8.26347 8.26466C8.68219 7.84593 9.19026 7.53772 9.74242 7.35591C9.75982 7.34914 9.77714 7.34287 9.79504 7.33855C10.1545 7.22606 10.5318 7.16657 10.9154 7.16657ZM10.9154 7.9999C10.8151 7.9999 10.7153 8.0049 10.6164 8.01509L11.1655 8.75022L11.2344 8.85168C11.298 8.95652 11.346 9.07048 11.3765 9.18968C11.4172 9.34866 11.4263 9.51441 11.4031 9.67687C11.3799 9.83929 11.325 9.99575 11.2414 10.1369C11.1579 10.2781 11.0471 10.4014 10.9159 10.4999L10.0826 11.1249V11.3332C10.0826 11.6646 9.95062 11.9826 9.71638 12.217C9.48207 12.4513 9.16393 12.5831 8.83259 12.5832H8.52334C8.62105 12.7234 8.73072 12.8562 8.8532 12.9787C9.40018 13.5257 10.1418 13.8332 10.9154 13.8332C11.3609 13.8332 11.7954 13.7302 12.1887 13.5392L11.9239 12.5013L11.9234 12.4997C11.8543 12.2238 11.8812 11.9324 11.9999 11.6739C12.1187 11.4155 12.3222 11.205 12.5766 11.0777L13.7962 10.4641C13.701 9.85823 13.4167 9.29353 12.9775 8.85439C12.4306 8.30742 11.6889 7.9999 10.9154 7.9999ZM12.9504 11.8226L12.9493 11.8231C12.8646 11.8656 12.7968 11.9356 12.7573 12.0217C12.7177 12.1078 12.7088 12.2049 12.7318 12.2968L12.9195 13.0335C12.9388 13.0153 12.9587 12.9976 12.9775 12.9787C13.4093 12.547 13.6909 11.9937 13.7908 11.3994L12.9504 11.8226ZM9.7473 8.24458C9.41703 8.38905 9.11306 8.59454 8.8532 8.85439C8.30624 9.40137 7.99871 10.143 7.99871 10.9166C7.99871 11.2014 8.04079 11.4818 8.12078 11.7499H8.83259C8.94291 11.7498 9.04916 11.7058 9.12718 11.6278C9.20515 11.5497 9.24924 11.4436 9.24925 11.3332V10.9166C9.24927 10.7854 9.31091 10.6621 9.41581 10.5834L10.4157 9.83312C10.4594 9.80032 10.4964 9.75913 10.5242 9.71214C10.552 9.66518 10.5702 9.61314 10.5779 9.55914C10.5857 9.50501 10.5828 9.44935 10.5692 9.39638C10.5557 9.34354 10.532 9.29357 10.4993 9.2499L10.4987 9.24936L9.7473 8.24458Z" fill="#FAFAFA"/>
<path d="M9.29157 1.33542C9.50154 1.35689 9.66538 1.53428 9.66538 1.74992C9.66531 1.96551 9.50152 2.14296 9.29157 2.16441L9.24871 2.16658H3.49515C3.18716 2.15983 2.88649 2.26149 2.64608 2.45413C2.40743 2.64544 2.24266 2.9142 2.18113 3.21367C2.15196 3.39115 2.16185 3.57292 2.20934 3.74644C2.25734 3.92178 2.34318 4.08449 2.46054 4.22333C2.57785 4.36208 2.72379 4.47398 2.8886 4.55047C3.0535 4.62697 3.23362 4.66662 3.41539 4.66658H8.83205C9.05303 4.66658 9.26496 4.75447 9.42124 4.91072C9.57747 5.06699 9.66538 5.27893 9.66538 5.49991V6.51227C7.74448 7.05731 6.33639 8.82165 6.33639 10.9166C6.33639 11.6671 6.51798 12.3749 6.83824 12.9999H3.41539C2.8629 12.9999 2.33309 12.7802 1.94242 12.3895C1.55175 11.9988 1.33207 11.4691 1.33207 10.9166V3.4296C1.33137 3.30924 1.34066 3.18868 1.36082 3.06936L1.36299 3.05688C1.46185 2.5628 1.73158 2.11934 2.12471 1.80417C2.51556 1.49089 3.00374 1.32492 3.50437 1.33379L9.24871 1.33325L9.29157 1.33542Z" fill="#FAFAFA"/>
<path d="M8.41538 2.99991C8.6455 2.99991 8.83205 3.18646 8.83205 3.41658C8.83205 3.6467 8.6455 3.83325 8.41538 3.83325H3.41539C3.18529 3.83323 2.99873 3.64669 2.99873 3.41658C2.99873 3.18647 3.18529 2.99993 3.41539 2.99991H8.41538Z" fill="#FAFAFA"/>
</svg>
