<svg width="16" height="16" viewBox="0 0 16 16" fill="none" xmlns="http://www.w3.org/2000/svg">
<path d="M7.34576 2.14095C7.897 1.74406 8.66602 2.13798 8.66602 2.81723V13.1824C8.66602 13.8617 7.897 14.2556 7.34576 13.8587L4.05621 11.4902C3.91438 11.3881 3.74405 11.3332 3.56929 11.3332H2.49935C1.48683 11.3332 0.666016 10.5123 0.666016 9.49982V6.49982C0.666016 5.4873 1.48683 4.66649 2.49935 4.66649H3.56929C3.74405 4.66649 3.91438 4.61155 4.05621 4.50943L7.34576 2.14095Z" fill="#FAFAFA"/>
<path d="M13.166 5.83317C13.166 5.55703 12.9422 5.33317 12.666 5.33317C12.3899 5.33317 12.166 5.55703 12.166 5.83317V7.49984H10.4993C10.2232 7.49984 9.99935 7.7237 9.99935 7.99984C9.99935 8.27598 10.2232 8.49984 10.4993 8.49984H12.166V10.1665C12.166 10.4426 12.3899 10.6665 12.666 10.6665C12.9422 10.6665 13.166 10.4426 13.166 10.1665V8.49984H14.8327C15.1088 8.49984 15.3327 8.27598 15.3327 7.99984C15.3327 7.7237 15.1088 7.49984 14.8327 7.49984H13.166V5.83317Z" fill="#FAFAFA"/>
</svg>
