<svg width="16" height="16" viewBox="0 0 16 16" fill="none" xmlns="http://www.w3.org/2000/svg">
<path fill-rule="evenodd" clip-rule="evenodd" d="M10.0723 2.86367C12.879 3.42502 13.5572 5.92235 13.5573 7.06158C13.5573 7.61384 13.1096 8.06158 12.5573 8.06158C12.2931 8.06159 12.0569 8.09426 11.8451 8.15143L11.8984 8.24322L12.3112 8.95807C12.4811 8.91527 12.6593 8.89231 12.8424 8.89231C14.0389 8.89249 15.009 9.86252 15.0091 11.059C15.0091 12.2554 14.0389 13.2255 12.8424 13.2256C11.6459 13.2256 10.6758 12.2555 10.6758 11.059C10.6758 10.405 10.9663 9.81951 11.4245 9.42226L11.0326 8.74322L10.9609 8.61953C10.8812 8.68841 10.8076 8.76158 10.7396 8.83697C10.3275 9.2939 10.1172 9.85361 10.056 10.1898C9.96949 10.6653 9.55486 11.0108 9.07161 11.0108H6.65885C6.17013 11.0108 5.75302 10.6575 5.67253 10.1755C5.58629 9.65828 5.43398 9.35518 5.32292 9.19635C5.29123 9.15107 5.26388 9.11866 5.24284 9.09609L5.20117 9.05637C5.2238 9.06594 5.24681 9.07462 5.27018 9.08242C5.20313 9.06005 5.1852 9.04307 5.20117 9.05637C5.17846 9.04678 5.1561 9.03628 5.13411 9.02512L4.80013 9.6039C5.1497 9.98862 5.36455 10.4982 5.36458 11.059C5.36453 12.2555 4.3945 13.2256 3.19792 13.2256C2.00133 13.2256 1.03131 12.2555 1.03125 11.059C1.03131 9.86242 2.00134 8.89231 3.19792 8.89231C3.47119 8.89231 3.73252 8.94322 3.97331 9.03554L4.27669 8.51015C3.9909 8.36446 3.83113 8.32982 3.70964 8.32981C3.59396 8.32981 3.35907 8.35868 3.05924 8.4138C2.77878 8.46535 2.50473 8.52786 2.34375 8.56809C2.04502 8.64278 1.72839 8.57529 1.48568 8.3858C1.24311 8.19635 1.101 7.90582 1.10091 7.59804V6.79335C1.10099 6.52825 1.20642 6.27378 1.39388 6.08632C1.56671 5.91355 1.77569 5.80034 1.9069 5.73541C2.05925 5.66003 2.22379 5.5939 2.375 5.5388C2.67817 5.42832 2.99457 5.338 3.19922 5.28684L3.24544 5.27643C4.01954 5.12165 4.94678 5.28855 5.67057 5.47695C6.11296 5.59211 6.5409 5.73463 6.9095 5.87083C7.43498 5.39595 8.04578 5.16234 8.62435 5.08502C8.83261 5.0572 9.03699 5.05002 9.23307 5.05703C9.15648 4.754 9.04726 4.44855 8.95703 4.23801C8.8109 3.89675 8.86569 3.50222 9.09961 3.21393C9.33357 2.92571 9.70824 2.79092 10.0723 2.86367ZM3.19792 9.89231C2.55362 9.89231 2.03131 10.4147 2.03125 11.059C2.03131 11.7033 2.55362 12.2256 3.19792 12.2256C3.84221 12.2256 4.36453 11.7033 4.36458 11.059C4.36452 10.4147 3.84221 9.89231 3.19792 9.89231ZM12.8424 9.89231C12.1982 9.89231 11.6758 10.4147 11.6758 11.059C11.6758 11.7033 12.1981 12.2256 12.8424 12.2256C13.4866 12.2255 14.0091 11.7032 14.0091 11.059C14.009 10.4148 13.4866 9.89249 12.8424 9.89231Z" fill="#FAFAFA"/>
</svg>
