<svg width="16" height="16" viewBox="0 0 16 16" fill="none" xmlns="http://www.w3.org/2000/svg">
<path d="M6.17188 1.95671L6.30534 1.97233C6.65439 2.0178 7.24846 2.14246 7.73698 2.59863C8.22489 3.05438 8.52792 3.76113 8.50521 4.80697C8.65702 4.71668 8.82255 4.62257 9 4.53288C9.54414 4.25787 10.2209 4.00944 10.9909 4.00749H11C11.9052 3.99307 12.7804 4.33349 13.4355 4.95736C14.093 5.58349 14.4761 6.44399 14.5 7.35059C14.5001 7.35482 14.5 7.35938 14.5 7.36361C14.4999 8.71414 14.0259 10.6106 13.3314 12.165C12.9828 12.9451 12.5657 13.67 12.1003 14.208C11.6489 14.7297 11.0715 15.167 10.3997 15.167C9.90704 15.1669 9.43186 14.9598 9.06966 14.8141C8.66896 14.6529 8.34062 14.5335 8 14.5335C7.65938 14.5335 7.33104 14.6529 6.93034 14.8141C6.56814 14.9598 6.09296 15.1669 5.60026 15.167C4.92853 15.167 4.35114 14.7297 3.89974 14.208C3.43428 13.67 3.01719 12.9451 2.66862 12.165C1.97406 10.6106 1.50008 8.71414 1.5 7.36361V7.35124C1.52218 6.44396 1.90468 5.58269 2.5625 4.95606C3.21807 4.33177 4.09426 3.99151 5 4.00749H5.0013C5.0043 4.00754 5.00742 4.00677 5.01042 4.00684L5.00977 4.00749C5.77952 4.00958 6.45601 4.25795 7 4.53288C7.18138 4.62455 7.35002 4.72135 7.50456 4.81348C7.53016 3.95803 7.28306 3.54176 7.05339 3.32715C6.82834 3.117 6.54679 3.0258 6.30143 2.98145L6.07096 2.9502L6.02018 2.94238C5.7718 2.89107 5.59777 2.65967 5.6237 2.40267C5.6498 2.14557 5.8668 1.95384 6.12044 1.9541L6.17188 1.95671Z" fill="#FAFAFA"/>
<path d="M10.1888 2.97298C10.1884 3.249 10.0786 3.51348 9.88346 3.70866C9.68825 3.90383 9.42383 4.01368 9.14779 4.014H8.62695V3.49316C8.62731 3.21718 8.73716 2.95266 8.93229 2.75749C9.12754 2.56224 9.3925 2.45244 9.66862 2.45215H10.1888V2.97298Z" fill="#FAFAFA"/>
</svg>
