<svg width="16" height="16" viewBox="0 0 16 16" fill="none" xmlns="http://www.w3.org/2000/svg">
<path d="M11.2158 13.6583C11.2417 13.7797 11.2403 13.9059 11.2115 14.0266C11.1826 14.1473 11.1272 14.2605 11.0492 14.357C10.9712 14.4534 10.8719 14.532 10.7601 14.5854C10.6763 14.6253 10.5855 14.6511 10.4937 14.6614L10.4009 14.6668H5.5984C5.47462 14.6666 5.35095 14.6388 5.23924 14.5854C5.12755 14.5319 5.02795 14.4534 4.95007 14.357C4.87228 14.2606 4.81667 14.1472 4.78785 14.0266C4.75908 13.906 4.75765 13.7801 4.78351 13.6588L5.63801 9.67117H10.3613L11.2158 13.6583Z" fill="#FAFAFA"/>
<path fill-rule="evenodd" clip-rule="evenodd" d="M11.8755 7.82872C11.8188 8.1119 11.6654 8.36716 11.442 8.55029C11.2467 8.71017 11.0072 8.80697 10.7574 8.82861L10.6494 8.8335H10.1817L10.1828 8.83784H5.8165L5.81758 8.8335H5.34992C5.06212 8.83345 4.78195 8.73383 4.5589 8.55192C4.33594 8.36976 4.18196 8.11571 4.12433 7.8336L4.12379 7.83198L3.74022 5.91357H12.2586L11.8755 7.82872ZM4.94031 7.66705C4.95951 7.76079 5.0117 7.84566 5.0857 7.9063C5.15983 7.9667 5.25378 7.99997 5.34938 8.00016H5.91416V6.3335H4.67392L4.94031 7.66705ZM10.0841 8.00016H10.6499C10.7457 8.00006 10.8394 7.96628 10.9136 7.90576C10.9879 7.84479 11.0395 7.75966 11.0585 7.66542L11.3249 6.3335H10.0841V8.00016Z" fill="#FAFAFA"/>
<path d="M8.00074 1.3335C8.23075 1.33363 8.41741 1.52012 8.41741 1.75016V3.8335H10.0841V2.5835C10.0841 2.35338 10.2706 2.16683 10.5007 2.16683C10.7308 2.16696 10.9174 2.35346 10.9174 2.5835V3.8335H11.6585L11.7502 3.83892C11.841 3.84913 11.9309 3.87466 12.0139 3.91379C12.1245 3.96619 12.2229 4.04288 12.3009 4.13732C12.3788 4.23206 12.4356 4.34337 12.4658 4.46229C12.496 4.5813 12.4995 4.70581 12.4761 4.82633L12.4756 4.8285L12.4251 5.08024H3.57366L3.52375 4.83176L3.52429 4.83122C3.50017 4.71077 3.50238 4.58588 3.53189 4.46663C3.56154 4.34708 3.61785 4.23492 3.69573 4.13949C3.77369 4.04418 3.87317 3.96668 3.98436 3.91379C4.09552 3.86116 4.21836 3.83368 4.34135 3.8335H5.08408V2.5835C5.08408 2.35338 5.27063 2.16683 5.50074 2.16683C5.73075 2.16696 5.91741 2.35346 5.91741 2.5835V3.8335H7.58408V1.75016C7.58408 1.52004 7.77063 1.3335 8.00074 1.3335Z" fill="#FAFAFA"/>
</svg>
