<svg width="16" height="16" viewBox="0 0 16 16" fill="none" xmlns="http://www.w3.org/2000/svg">
<path d="M4.43034 3.33659C4.52974 3.32481 4.63013 3.34575 4.7168 3.39583C4.80348 3.44596 4.87207 3.52253 4.91146 3.61458L6.13607 6.35091C6.16617 6.42119 6.17855 6.49806 6.17188 6.57422C6.1652 6.65035 6.14015 6.72381 6.09831 6.78776L4.85938 8.26042C4.81543 8.32673 4.78934 8.40371 4.78386 8.48307C4.77838 8.56241 4.79374 8.64184 4.82813 8.71354C5.30754 9.69488 6.32175 10.697 7.30599 11.1719C7.3781 11.2061 7.45816 11.2215 7.53776 11.2155C7.61735 11.2095 7.69427 11.1827 7.76042 11.138L9.21094 9.90365C9.27517 9.86091 9.3496 9.83511 9.42643 9.82812C9.50316 9.8212 9.58026 9.83352 9.65104 9.86393L12.3854 11.0885C12.4775 11.1279 12.554 11.1965 12.6042 11.2832C12.6543 11.3699 12.6752 11.4703 12.6634 11.5697C12.5733 12.2427 12.2417 12.8603 11.7305 13.3073C11.2193 13.7543 10.5632 14.0005 9.88412 14C7.79313 14 5.7878 13.1693 4.30925 11.6908C2.83069 10.2122 2.00003 8.20687 2 6.11589C1.99948 5.43684 2.24574 4.78073 2.69271 4.26953C3.13972 3.75832 3.75725 3.42666 4.43034 3.33659Z" fill="white"/>
<path d="M11.5716 2C11.7557 2 11.9049 2.14924 11.9049 2.33333V3.40299L12.8027 2.8737C12.9632 2.77908 13.1705 2.83464 13.2624 2.99674L13.8385 4.01367C13.928 4.17186 13.874 4.37253 13.7174 4.46484L12.8099 5L13.7174 5.53516C13.874 5.62747 13.928 5.82814 13.8385 5.98633L13.2624 7.00325C13.1705 7.16535 12.9632 7.22092 12.8027 7.1263L11.9049 6.597V7.66667C11.9049 7.85076 11.7557 8 11.5716 8H10.4284C10.2443 8 10.0951 7.85076 10.0951 7.66667V6.597L9.19727 7.1263C9.03676 7.22092 8.82949 7.16536 8.73763 7.00325L8.16146 5.98633C8.072 5.82814 8.12597 5.62747 8.28255 5.53516L9.1901 5L8.28255 4.46484C8.12597 4.37253 8.072 4.17186 8.16146 4.01367L8.73763 2.99674C8.82949 2.83464 9.03676 2.77908 9.19727 2.8737L10.0951 3.40299V2.33333C10.0951 2.14924 10.2443 2 10.4284 2H11.5716Z" fill="white"/>
</svg>
