<svg width="16" height="16" viewBox="0 0 16 16" fill="none" xmlns="http://www.w3.org/2000/svg">
<path d="M7.58464 11.056C7.73786 10.8263 8.0483 10.7642 8.278 10.9173C8.50774 11.0705 8.5698 11.381 8.41667 11.6107L8.21224 11.9173C8.10011 12.0856 8.13905 12.3123 8.30078 12.4336C8.8869 12.8733 9.02755 13.6943 8.62109 14.304L8.41667 14.6107C8.26354 14.8405 7.95304 14.9025 7.72331 14.7493C7.49351 14.5962 7.4315 14.2857 7.58464 14.056L7.78906 13.7493C7.90112 13.5812 7.86214 13.355 7.70052 13.2337C7.11419 12.794 6.97368 11.9724 7.38021 11.3626L7.58464 11.056Z" fill="#FAFAFA"/>
<path d="M3.88672 11.11C4.01019 10.8631 4.31033 10.7627 4.55729 10.8861C4.80428 11.0096 4.90474 11.3103 4.78125 11.5573L4.65885 11.8021C4.62921 11.8614 4.64061 11.933 4.6875 11.9798C5.03868 12.331 5.12569 12.8676 4.90365 13.3118L4.78125 13.5573C4.65772 13.8042 4.35698 13.904 4.11003 13.7806C3.86321 13.657 3.76333 13.3569 3.88672 13.11L4.00911 12.8646C4.03866 12.8054 4.0273 12.7337 3.98047 12.6868C3.62922 12.3356 3.54218 11.7991 3.76432 11.3548L3.88672 11.11Z" fill="#FAFAFA"/>
<path d="M11.2201 11.11C11.3435 10.8631 11.6437 10.7627 11.8906 10.8861C12.1376 11.0096 12.2381 11.3103 12.1146 11.5573L11.9915 11.8021C11.962 11.8614 11.974 11.933 12.0208 11.9798C12.372 12.331 12.459 12.8676 12.237 13.3118L12.1146 13.5573C11.9911 13.8042 11.6903 13.904 11.4434 13.7806C11.1965 13.657 11.0966 13.3569 11.2201 13.11L11.3424 12.8646C11.372 12.8054 11.3606 12.7337 11.3138 12.6868C10.9625 12.3356 10.8755 11.7991 11.0977 11.3548L11.2201 11.11Z" fill="#FAFAFA"/>
<path d="M10.0007 8.16667C10.486 8.16667 10.8 8.16753 11.0312 8.19857C11.248 8.22775 11.3161 8.27509 11.3542 8.31315C11.3922 8.35122 11.4396 8.4192 11.4688 8.63607C11.4885 8.78299 11.4957 9.23169 11.4987 9.66406C11.2439 9.66639 10.9675 9.66667 10.6673 9.66667H5.33398C5.03374 9.66667 4.7574 9.6664 4.5026 9.66406C4.50555 9.23164 4.51347 8.78293 4.5332 8.63607C4.56235 8.4193 4.60908 8.35123 4.64714 8.31315C4.68519 8.27509 4.75321 8.22777 4.97005 8.19857C5.20129 8.1675 5.51518 8.16667 6.00065 8.16667H10.0007Z" fill="#FAFAFA"/>
<path fill-rule="evenodd" clip-rule="evenodd" d="M12.0007 1C13.2577 1 13.8862 1.0001 14.2767 1.39062C14.6672 1.78115 14.6673 2.40959 14.6673 3.66667V5.66667C14.6673 7.55227 14.6672 8.49493 14.0814 9.08073C13.7273 9.43478 13.243 9.5748 12.4987 9.63021C12.4952 9.18446 12.4856 8.69558 12.4596 8.5026C12.4156 8.17487 12.316 7.86094 12.0612 7.60612C11.8064 7.35137 11.4924 7.25176 11.1647 7.20768C10.859 7.16656 10.4769 7.16667 10.0339 7.16667H5.96745C5.52432 7.16667 5.14235 7.16656 4.83659 7.20768C4.50889 7.25176 4.1949 7.35136 3.9401 7.60612C3.68532 7.86094 3.58575 8.17487 3.54167 8.5026C3.51572 8.69558 3.50613 9.18446 3.5026 9.63021C2.75834 9.5748 2.27399 9.43477 1.91992 9.08073C1.33414 8.49493 1.33398 7.55227 1.33398 5.66667V3.66667C1.33398 2.40959 1.33408 1.78114 1.72461 1.39062C2.11513 1.0001 2.74357 1 4.00065 1H12.0007ZM10.3037 3.77114C10.0276 3.77114 9.80375 3.995 9.80375 4.27114C9.80375 4.54728 10.0276 4.77114 10.3037 4.77114L11.7043 4.77114C11.9805 4.77114 12.2043 4.54728 12.2043 4.27114C12.2043 3.995 11.9805 3.77114 11.7043 3.77114H10.3037Z" fill="#FAFAFA"/>
</svg>
