<svg width="16" height="16" viewBox="0 0 16 16" fill="none" xmlns="http://www.w3.org/2000/svg">
<path fill-rule="evenodd" clip-rule="evenodd" d="M1.33301 4.50008C1.33301 3.48756 2.15382 2.66675 3.16634 2.66675H12.833C13.8455 2.66675 14.6663 3.48756 14.6663 4.50008V5.50008C14.6663 5.77622 14.4425 6.00008 14.1663 6.00008C13.8902 6.00008 13.6663 5.77622 13.6663 5.50008V4.50008C13.6663 4.03984 13.2932 3.66675 12.833 3.66675H3.16634C2.7061 3.66675 2.33301 4.03984 2.33301 4.50008V11.5001C2.33301 11.9603 2.7061 12.3334 3.16634 12.3334H6.83301C7.10915 12.3334 7.33301 12.5573 7.33301 12.8334C7.33301 13.1096 7.10915 13.3334 6.83301 13.3334H3.16634C2.15382 13.3334 1.33301 12.5126 1.33301 11.5001V4.50008ZM11.9997 7.33341C12.2758 7.33341 12.4997 7.55727 12.4997 7.83341C12.4997 8.75618 12.7042 9.30648 13.032 9.63437C13.3599 9.96227 13.9102 10.1667 14.833 10.1667C15.1091 10.1667 15.333 10.3906 15.333 10.6667C15.333 10.9429 15.1091 11.1667 14.833 11.1667C13.9102 11.1667 13.3599 11.3712 13.032 11.6991C12.7042 12.027 12.4997 12.5773 12.4997 13.5001C12.4997 13.7762 12.2758 14.0001 11.9997 14.0001C11.7235 14.0001 11.4997 13.7762 11.4997 13.5001C11.4997 12.5773 11.2952 12.027 10.9673 11.6991C10.6394 11.3712 10.0891 11.1667 9.16634 11.1667C8.8902 11.1667 8.66634 10.9429 8.66634 10.6667C8.66634 10.3906 8.8902 10.1667 9.16634 10.1667C10.0891 10.1667 10.6394 9.96227 10.9673 9.63437C11.2952 9.30648 11.4997 8.75618 11.4997 7.83341C11.4997 7.55727 11.7235 7.33341 11.9997 7.33341Z" fill="#FAFAFA"/>
<path d="M4.66634 5.33341C4.66634 5.7016 4.36786 6.00008 3.99967 6.00008C3.63148 6.00008 3.33301 5.7016 3.33301 5.33341C3.33301 4.96522 3.63148 4.66675 3.99967 4.66675C4.36786 4.66675 4.66634 4.96522 4.66634 5.33341Z" fill="#FAFAFA"/>
<path d="M6.66634 5.33341C6.66634 5.7016 6.36786 6.00008 5.99967 6.00008C5.63148 6.00008 5.33301 5.7016 5.33301 5.33341C5.33301 4.96522 5.63148 4.66675 5.99967 4.66675C6.36786 4.66675 6.66634 4.96522 6.66634 5.33341Z" fill="#FAFAFA"/>
<path d="M7.99967 6.00008C8.36786 6.00008 8.66634 5.7016 8.66634 5.33341C8.66634 4.96522 8.36786 4.66675 7.99967 4.66675C7.63148 4.66675 7.33301 4.96522 7.33301 5.33341C7.33301 5.7016 7.63148 6.00008 7.99967 6.00008Z" fill="#FAFAFA"/>
</svg>
