<svg width="16" height="16" viewBox="0 0 16 16" fill="none" xmlns="http://www.w3.org/2000/svg">
<path fill-rule="evenodd" clip-rule="evenodd" d="M7.69377 8.74821C7.50993 8.10479 8.10479 7.50993 8.74821 7.69377L13.3026 8.99501C14.0384 9.20526 14.1465 10.2033 13.4726 10.5661L11.5834 11.5834L10.5661 13.4726C10.2033 14.1465 9.20526 14.0384 8.99501 13.3026L7.69377 8.74821ZM8.72801 8.72801L9.85716 12.68L10.7239 11.0705C10.803 10.9235 10.9235 10.803 11.0705 10.7239L12.68 9.85716L8.72801 8.72801Z" fill="#FAFAFA"/>
<path d="M3.16667 2C2.52233 2 2 2.52233 2 3.16667V4.83333C2 5.47767 2.52233 6 3.16667 6H3.5V10H3.16667C2.52233 10 2 10.5223 2 11.1667V12.8333C2 13.4777 2.52233 14 3.16667 14H4.66667C5.311 14 5.83333 13.4777 5.83333 12.8333V12.5H6.83333C7.10948 12.5 7.33333 12.2761 7.33333 12C7.33333 11.7239 7.10948 11.5 6.83333 11.5H5.83333V11.1667C5.83333 10.5223 5.311 10 4.66667 10H4.5V6H4.83333C5.47767 6 6 5.47767 6 4.83333V4.5H10V4.83333C10 5.47767 10.5223 6 11.1667 6H11.5V6.83333C11.5 7.10948 11.7239 7.33333 12 7.33333C12.2761 7.33333 12.5 7.10948 12.5 6.83333V6H12.8333C13.4777 6 14 5.47767 14 4.83333V3.16667C14 2.52233 13.4777 2 12.8333 2H11.1667C10.5223 2 10 2.52233 10 3.16667V3.5H6V3.16667C6 2.52233 5.47767 2 4.83333 2H3.16667Z" fill="#FAFAFA"/>
</svg>
