<svg width="16" height="16" viewBox="0 0 16 16" fill="none" xmlns="http://www.w3.org/2000/svg">
<g clip-path="url(#clip0_16220_969)">
<path d="M7.77672 0.869026C7.91794 0.808354 8.07844 0.808047 8.22008 0.867724L8.28909 0.902229L8.55667 1.06955C9.76562 1.8661 10.677 3.02744 11.1537 4.37684C11.2376 4.37127 11.322 4.36757 11.4063 4.36772H14.6068C14.9194 4.368 15.173 4.62217 15.1732 4.93478V6.28439L15.1647 6.55327C15.1221 7.17753 14.9225 7.78344 14.5834 8.31564C14.3045 8.75315 13.9383 9.1275 13.5111 9.41981C13.8088 9.89891 13.972 10.4525 13.9746 11.0227V11.9126C13.9745 12.2254 13.7203 12.4789 13.4076 12.4791H10.6641C10.2385 12.4812 9.82062 12.3982 9.43362 12.2401V14.6457C9.43362 14.9218 9.20963 15.1456 8.93362 15.1457C8.65748 15.1457 8.43362 14.9219 8.43362 14.6457V10.2193L8.43492 10.218V10.0044L11.1224 8.41525C11.3279 8.2934 11.3948 8.03015 11.2715 7.82736C11.148 7.62459 10.881 7.55876 10.6752 7.68022L8.43492 9.00444V5.76225C8.43485 5.52565 8.24006 5.33326 8.00003 5.33322C7.75999 5.33326 7.56521 5.52565 7.56513 5.76225V9.44129L5.37372 7.71278C5.18627 7.56499 4.91175 7.59513 4.76175 7.77983C4.61186 7.96464 4.64269 8.23486 4.83011 8.3827L7.56513 10.5396V11.5891C7.53541 11.6178 7.50627 11.6474 7.47529 11.675C6.88897 12.197 6.12505 12.4823 5.33596 12.4784L2.6055 12.4791C2.29264 12.4791 2.03861 12.2255 2.03844 11.9126V11.0227C2.04111 10.4526 2.20369 9.89884 2.50133 9.41981C2.07419 9.12751 1.70856 8.75309 1.42971 8.31564C1.04203 7.70731 0.837121 7.00292 0.839871 6.28439V4.93478C0.840077 4.62209 1.09357 4.36788 1.40628 4.36772H4.59378C4.68801 4.36677 4.78241 4.36998 4.87633 4.37619C5.3796 2.93506 6.37957 1.7066 7.70836 0.904833L7.77672 0.869026Z" fill="#FAFAFA"/>
</g>
<defs>
<clipPath id="clip0_16220_969">
<rect width="16" height="16" fill="white"/>
</clipPath>
</defs>
</svg>
