<svg width="16" height="16" viewBox="0 0 16 16" fill="none" xmlns="http://www.w3.org/2000/svg">
<path fill-rule="evenodd" clip-rule="evenodd" d="M1.33398 7.99992C1.33398 4.31802 4.31875 1.33325 8.00065 1.33325C11.6825 1.33325 14.6673 4.31802 14.6673 7.99992C14.6673 11.6818 11.6825 14.6666 8.00065 14.6666C4.31875 14.6666 1.33398 11.6818 1.33398 7.99992ZM8.50065 3.83325C8.50065 3.55711 8.27679 3.33325 8.00065 3.33325C7.72451 3.33325 7.50065 3.55711 7.50065 3.83325V4.53688C7.12886 4.59455 6.78126 4.72345 6.49564 4.94863C6.06634 5.28709 5.84273 5.79135 5.84273 6.40047C5.84273 7.10965 6.13093 7.59127 6.57008 7.9147C6.92352 8.17501 7.37169 8.32487 7.7304 8.44481C7.76803 8.45739 7.80468 8.46964 7.84013 8.48166L7.92281 8.50964C8.32113 8.64428 8.61814 8.74467 8.83821 8.90675C9.02461 9.04403 9.15857 9.22834 9.15857 9.6158C9.15857 9.96391 9.04187 10.1599 8.88654 10.2823C8.7128 10.4193 8.42301 10.5163 8.00065 10.5163C7.46476 10.5163 7.1218 10.2717 6.95097 9.96502C6.81658 9.72379 6.51207 9.63718 6.27084 9.77156C6.0296 9.90595 5.94299 10.2105 6.07738 10.4517C6.36336 10.965 6.86177 11.3393 7.50065 11.4677V12.1666C7.50065 12.4427 7.72451 12.6666 8.00065 12.6666C8.27679 12.6666 8.50065 12.4427 8.50065 12.1666V11.4794C8.87245 11.4217 9.22004 11.2928 9.50566 11.0676C9.93496 10.7292 10.1586 10.2249 10.1586 9.6158C10.1586 8.90661 9.87037 8.42499 9.43122 8.10156C9.07778 7.84125 8.62961 7.6914 8.27091 7.57145C8.23327 7.55887 8.19663 7.54662 8.16118 7.5346L8.07849 7.50662C7.68017 7.37198 7.38316 7.27159 7.1631 7.10951C6.97669 6.97223 6.84273 6.78792 6.84273 6.40047C6.84273 6.05235 6.95943 5.85639 7.11477 5.73392C7.2885 5.59695 7.5783 5.5 8.00065 5.5C8.53654 5.5 8.8795 5.74457 9.05034 6.05124C9.18473 6.29247 9.48923 6.37909 9.73047 6.2447C9.9717 6.11031 10.0583 5.8058 9.92392 5.56457C9.63795 5.05123 9.13953 4.67701 8.50065 4.54858V3.83325Z" fill="#FAFAFA"/>
</svg>
