<svg width="16" height="16" viewBox="0 0 16 16" fill="none" xmlns="http://www.w3.org/2000/svg">
<path fill-rule="evenodd" clip-rule="evenodd" d="M11.0671 1.3335C11.3456 1.3335 11.6101 1.44728 11.8027 1.64535C11.9949 1.84285 12.1003 2.10799 12.1003 2.38167V2.97803H13.2005C13.4767 2.97803 13.7005 3.20188 13.7005 3.47803C13.7005 3.75413 13.4766 3.97803 13.2005 3.97803H12.901V8.18506H13.2005C13.4766 8.18506 13.7004 8.40904 13.7005 8.68506C13.7005 8.9612 13.4767 9.18506 13.2005 9.18506H12.901V13.6668H13.2005C13.4767 13.6668 13.7005 13.8907 13.7005 14.1668C13.7005 14.443 13.4767 14.6668 13.2005 14.6668H2.80078C2.52464 14.6668 2.30078 14.443 2.30078 14.1668C2.30078 13.8907 2.52464 13.6668 2.80078 13.6668H3.10091V9.18506H2.80078C2.52464 9.18506 2.30078 8.9612 2.30078 8.68506C2.30093 8.40904 2.52473 8.18506 2.80078 8.18506H3.10091V3.97803H2.80078C2.52467 3.97803 2.30083 3.75413 2.30078 3.47803C2.30078 3.20188 2.52464 2.97803 2.80078 2.97803H8.70052V2.38167C8.70052 2.10804 8.80599 1.84283 8.99805 1.64535C9.1907 1.44731 9.45526 1.33353 9.73372 1.3335H11.0671ZM8.0013 11.924C7.82086 11.924 7.66513 11.987 7.53385 12.1121C7.40262 12.2373 7.3366 12.3895 7.33659 12.5692C7.33659 12.7488 7.40097 12.901 7.5293 13.0249C7.65756 13.1487 7.81325 13.2104 7.99609 13.2104C8.179 13.2104 8.33617 13.1489 8.46745 13.0256C8.59869 12.9022 8.66466 12.7507 8.66471 12.5711C8.66471 12.3914 8.5989 12.2386 8.4681 12.1128C8.33732 11.9871 8.18174 11.924 8.0013 11.924ZM6.4707 10.2326C6.28587 10.2326 6.12873 10.2956 5.99935 10.4207C5.86996 10.5459 5.80534 10.6973 5.80534 10.8752C5.80534 11.053 5.86996 11.2051 5.99935 11.3309C6.12869 11.4565 6.28454 11.519 6.4668 11.519C6.65321 11.519 6.8102 11.4565 6.9375 11.3309C7.06477 11.2052 7.12819 11.0544 7.12825 10.8791C7.12825 10.6997 7.06502 10.547 6.93815 10.4214C6.81128 10.2958 6.65548 10.2326 6.4707 10.2326ZM9.53255 10.2039C9.3523 10.2039 9.19624 10.2663 9.0651 10.3914C8.93396 10.5166 8.86849 10.6687 8.86849 10.8465C8.86855 11.0242 8.93385 11.1759 9.06445 11.3016C9.19525 11.4274 9.35142 11.4904 9.5319 11.4904C9.7164 11.4903 9.87344 11.4273 10.0026 11.3016C10.1317 11.1759 10.196 11.0251 10.196 10.8498C10.1959 10.6704 10.1313 10.5177 10.002 10.3921C9.87263 10.2667 9.71615 10.204 9.53255 10.2039ZM8.0013 8.53532C7.82086 8.53534 7.66513 8.59812 7.53385 8.72282C7.40263 8.84752 7.33659 8.99881 7.33659 9.17659C7.33665 9.35432 7.40248 9.50673 7.5332 9.63428C7.664 9.76189 7.81952 9.82568 8 9.82568C8.18043 9.82566 8.33617 9.76204 8.46745 9.63493C8.59867 9.50782 8.66471 9.35654 8.66471 9.18115C8.66466 9.00184 8.5988 8.84966 8.4681 8.72412C8.3373 8.59852 8.18177 8.53532 8.0013 8.53532ZM9.53255 6.88753C9.35228 6.88753 9.19625 6.94966 9.0651 7.07438C8.93396 7.19911 8.86849 7.35174 8.86849 7.53141C8.86855 7.71086 8.9339 7.86343 9.06445 7.98909C9.1952 8.11483 9.35229 8.17785 9.53516 8.1779C9.71812 8.1779 9.87444 8.11552 10.0033 7.9904C10.132 7.86528 10.196 7.71277 10.196 7.53337C10.1959 7.35397 10.1313 7.20128 10.002 7.07568C9.87263 6.95024 9.71616 6.88757 9.53255 6.88753ZM6.4707 6.85107C6.28587 6.85107 6.12874 6.91387 5.99935 7.03857C5.86998 7.16328 5.80536 7.31532 5.80534 7.49495C5.80534 7.67463 5.86996 7.82752 5.99935 7.95329C6.12871 8.07897 6.28449 8.14209 6.4668 8.14209C6.6533 8.14209 6.81017 8.07931 6.9375 7.95459C7.06478 7.82989 7.12825 7.67784 7.12825 7.49821C7.12825 7.31854 7.06507 7.16565 6.93815 7.03988C6.81129 6.9142 6.65544 6.85112 6.4707 6.85107ZM8.0013 5.16032C7.82086 5.16034 7.66513 5.22396 7.53385 5.35107C7.40262 5.47819 7.33659 5.62946 7.33659 5.80485C7.33665 5.98417 7.40249 6.13634 7.5332 6.26188C7.664 6.38749 7.81952 6.45068 8 6.45068C8.18043 6.45066 8.33617 6.38789 8.46745 6.26318C8.59867 6.13848 8.66471 5.98719 8.66471 5.80941C8.66465 5.63169 8.59882 5.47927 8.4681 5.35173C8.3373 5.22411 8.18177 5.16032 8.0013 5.16032Z" fill="#FAFAFA"/>
</svg>
