<svg width="16" height="16" viewBox="0 0 16 16" fill="none" xmlns="http://www.w3.org/2000/svg">
<path d="M6.49544 10.4167H4.33398V6.08341H6.49544V10.4167Z" fill="#FAFAFA"/>
<path d="M11.6621 8.38224H9.50065V6.08341H11.6621V8.38224Z" fill="#FAFAFA"/>
<path fill-rule="evenodd" clip-rule="evenodd" d="M12.834 2.66675C13.8465 2.66675 14.6673 3.48756 14.6673 4.50008V11.5001C14.6673 12.5126 13.8465 13.3334 12.834 13.3334H3.16732C2.1548 13.3334 1.33398 12.5126 1.33398 11.5001V4.50008C1.33398 3.48756 2.1548 2.66675 3.16732 2.66675H12.834ZM4.00065 5.08341C3.63246 5.08341 3.33398 5.38189 3.33398 5.75008V10.7501L3.33724 10.8184C3.36917 11.1321 3.61867 11.3816 3.93229 11.4135L4.00065 11.4167H6.82812C7.17323 11.4167 7.4573 11.1545 7.49154 10.8184L7.49544 10.7501V5.75008C7.49544 5.40485 7.23273 5.12074 6.89648 5.08667L6.82878 5.08341H5.91471C5.91471 5.14906 5.90207 5.21417 5.87695 5.27482C5.85183 5.33548 5.81466 5.3905 5.76823 5.43693C5.7218 5.48336 5.66678 5.52053 5.60612 5.54565C5.54547 5.57077 5.48036 5.58341 5.41471 5.58341C5.34907 5.58341 5.28396 5.57077 5.22331 5.54565C5.16264 5.52053 5.10763 5.48336 5.0612 5.43693C5.01477 5.3905 4.9776 5.33548 4.95247 5.27482C4.92736 5.21417 4.91471 5.14906 4.91471 5.08341H4.00065ZM9.16732 5.08341C8.79913 5.08341 8.50065 5.38189 8.50065 5.75008V8.71558L8.50391 8.78394C8.53584 9.09755 8.78534 9.34705 9.09896 9.37899L9.16732 9.38224H11.9948C12.3398 9.38218 12.624 9.11997 12.6582 8.78394L12.6621 8.71558V5.75008C12.6621 5.40485 12.3994 5.12074 12.0632 5.08667L11.9954 5.08341H11.0814C11.0814 5.14906 11.0687 5.21417 11.0436 5.27482C11.0185 5.33548 10.9813 5.3905 10.9349 5.43693C10.8885 5.48336 10.8334 5.52053 10.7728 5.54565C10.7121 5.57077 10.647 5.58341 10.5814 5.58341C10.5157 5.58341 10.4506 5.57077 10.39 5.54565C10.3293 5.52053 10.2743 5.48336 10.2279 5.43693C10.1814 5.3905 10.1443 5.33548 10.1191 5.27482C10.094 5.21417 10.0814 5.14906 10.0814 5.08341H9.16732ZM5.41471 4.58341C5.2821 4.58341 5.15497 4.63613 5.0612 4.7299C4.96743 4.82367 4.91471 4.95081 4.91471 5.08341H5.91471C5.91471 4.95081 5.862 4.82367 5.76823 4.7299C5.67446 4.63613 5.54732 4.58341 5.41471 4.58341ZM10.5814 4.58341C10.4488 4.58341 10.3216 4.63613 10.2279 4.7299C10.1341 4.82367 10.0814 4.95081 10.0814 5.08341H11.0814C11.0814 4.95081 11.0287 4.82367 10.9349 4.7299C10.8411 4.63613 10.714 4.58341 10.5814 4.58341Z" fill="#FAFAFA"/>
</svg>
