<svg width="16" height="16" viewBox="0 0 16 16" fill="none" xmlns="http://www.w3.org/2000/svg">
<path fill-rule="evenodd" clip-rule="evenodd" d="M13.6667 4.16667C14.1269 4.16667 14.5 4.53976 14.5 5V13.6667C14.5 14.1269 14.1269 14.5 13.6667 14.5H5C4.53976 14.5 4.16667 14.1269 4.16667 13.6667V5C4.16667 4.53976 4.53976 4.16667 5 4.16667H13.6667ZM5.8737 13.5H8.45964L8.6263 13.3333L7.33333 12.0404L5.8737 13.5ZM10.0404 13.3333L10.207 13.5H12.793L11.3333 12.0404L10.0404 13.3333ZM5.16667 10.207V12.793L6.6263 11.3333L5.33333 10.0404L5.16667 10.207ZM12.0404 11.3333L13.5 12.793V10.207L13.3333 10.0404L12.0404 11.3333ZM8.04036 11.3333L9.33333 12.6263L10.6263 11.3333L9.33333 10.0404L8.04036 11.3333ZM6.04036 9.33333L7.33333 10.6263L8.6263 9.33333L7.33333 8.04036L6.04036 9.33333ZM10.0404 9.33333L11.3333 10.6263L12.6263 9.33333L11.3333 8.04036L10.0404 9.33333ZM5.16667 8.45964L5.33333 8.6263L6.6263 7.33333L5.16667 5.8737V8.45964ZM8.04036 7.33333L9.33333 8.6263L10.6263 7.33333L9.33333 6.04036L8.04036 7.33333ZM12.0404 7.33333L13.3333 8.6263L13.5 8.45964V5.8737L12.0404 7.33333ZM7.33333 6.6263L8.6263 5.33333L8.45964 5.16667H5.8737L7.33333 6.6263ZM10.0404 5.33333L11.3333 6.6263L12.793 5.16667H10.207L10.0404 5.33333Z" fill="#FAFAFA"/>
<path d="M11 1.5C11.4602 1.5 11.8333 1.8731 11.8333 2.33333V3.16667H5C3.98748 3.16667 3.16667 3.98748 3.16667 5V11.8333H2.33333C1.8731 11.8333 1.5 11.4602 1.5 11V2.33333C1.5 1.8731 1.8731 1.5 2.33333 1.5H11Z" fill="#FAFAFA"/>
</svg>
