<svg width="16" height="16" viewBox="0 0 16 16" fill="none" xmlns="http://www.w3.org/2000/svg">
<path fill-rule="evenodd" clip-rule="evenodd" d="M12.0986 8.12891C13.973 8.22387 15.4639 9.77391 15.4639 11.6719L15.459 11.8535C15.364 13.7277 13.8147 15.2185 11.917 15.2188L11.7334 15.2139C9.91977 15.1216 8.46591 13.6672 8.37402 11.8535L8.36914 11.6719C8.36914 9.71272 9.95784 8.12402 11.917 8.12402L12.0986 8.12891ZM11.6836 9.99512C11.4075 9.99512 11.1836 10.219 11.1836 10.4951V11.8379C11.1837 11.9703 11.2356 12.0977 11.3291 12.1914L12.1836 12.9902C12.3789 13.1853 12.6954 13.1854 12.8906 12.9902C13.0856 12.795 13.0856 12.4784 12.8906 12.2832L12.1836 11.6309V10.4951C12.1836 10.2191 11.9596 9.99529 11.6836 9.99512Z" fill="#FAFAFA"/>
<path d="M10.833 1.33301C11.1091 1.33301 11.333 1.55784 11.333 1.83398V2.66699H12.167C13.1793 2.66717 13.9999 3.48766 14 4.5V6.83398C13.9997 7.1099 13.776 7.33398 13.5 7.33398C13.224 7.33398 13.0003 7.1099 13 6.83398V6.66699H3V12.167C3.00009 12.627 3.37297 12.9998 3.83301 13H7.5C7.77609 13 7.99991 13.2239 8 13.5C8 13.7761 7.77614 14 7.5 14H3.83301C2.82069 13.9998 2.00009 13.1793 2 12.167V4.5C2.00009 3.48766 2.82069 2.66717 3.83301 2.66699H4.66699V1.83398C4.66699 1.55784 4.89085 1.33301 5.16699 1.33301C5.44299 1.33318 5.66699 1.55795 5.66699 1.83398V2.66699H10.333V1.83398C10.333 1.55795 10.557 1.33318 10.833 1.33301Z" fill="#FAFAFA"/>
</svg>
