<svg width="16" height="16" viewBox="0 0 16 16" fill="none" xmlns="http://www.w3.org/2000/svg">
<path fill-rule="evenodd" clip-rule="evenodd" d="M3.83333 3C3.3731 3 3 3.3731 3 3.83333V4.16667C3 4.44281 2.77614 4.66667 2.5 4.66667C2.22386 4.66667 2 4.44281 2 4.16667V3.83333C2 2.82081 2.82081 2 3.83333 2H4.16667C4.44281 2 4.66667 2.22386 4.66667 2.5C4.66667 2.77614 4.44281 3 4.16667 3H3.83333ZM6.33333 2.5C6.33333 2.22386 6.55719 2 6.83333 2H9.16667C9.44281 2 9.66667 2.22386 9.66667 2.5C9.66667 2.77614 9.44281 3 9.16667 3H6.83333C6.55719 3 6.33333 2.77614 6.33333 2.5ZM11.3333 2.5C11.3333 2.22386 11.5572 2 11.8333 2H12.1667C13.1792 2 14 2.82081 14 3.83333V4.16667C14 4.44281 13.7761 4.66667 13.5 4.66667C13.2239 4.66667 13 4.44281 13 4.16667V3.83333C13 3.3731 12.6269 3 12.1667 3H11.8333C11.5572 3 11.3333 2.77614 11.3333 2.5ZM2.5 6.33333C2.77614 6.33333 3 6.55719 3 6.83333V9.16667C3 9.44281 2.77614 9.66667 2.5 9.66667C2.22386 9.66667 2 9.44281 2 9.16667V6.83333C2 6.55719 2.22386 6.33333 2.5 6.33333ZM13.5 6.33333C13.7761 6.33333 14 6.55719 14 6.83333V9.16667C14 9.44281 13.7761 9.66667 13.5 9.66667C13.2239 9.66667 13 9.44281 13 9.16667V6.83333C13 6.55719 13.2239 6.33333 13.5 6.33333ZM2.5 11.3333C2.77614 11.3333 3 11.5572 3 11.8333V12.1667C3 12.6269 3.3731 13 3.83333 13H4.16667C4.44281 13 4.66667 13.2239 4.66667 13.5C4.66667 13.7761 4.44281 14 4.16667 14H3.83333C2.82081 14 2 13.1792 2 12.1667V11.8333C2 11.5572 2.22386 11.3333 2.5 11.3333Z" fill="#FAFAFA"/>
<path d="M8.41374 8.09701C8.68988 8.09701 8.91374 8.32086 8.91374 8.59701V9.11458H9.41374C9.68988 9.11458 9.91374 9.33844 9.91374 9.61458C9.91374 9.89073 9.68988 10.1146 9.41374 10.1146H8.91374V10.597C8.91374 10.8731 8.68988 11.097 8.41374 11.097C8.13759 11.097 7.91374 10.8731 7.91374 10.597V10.1146H7.41374C7.13759 10.1146 6.91374 9.89073 6.91374 9.61458C6.91374 9.33844 7.13759 9.11458 7.41374 9.11458H7.91374V8.59701C7.91374 8.32086 8.13759 8.09701 8.41374 8.09701Z" fill="#FAFAFA"/>
<path fill-rule="evenodd" clip-rule="evenodd" d="M8.60449 5.90169C10.5597 6.00073 12.1149 7.61782 12.1149 9.59766L12.1084 9.8112C12.0707 10.4726 11.8587 11.0872 11.5186 11.6107L12.9215 12.9336L12.9567 12.9707C13.1227 13.1623 13.12 13.4522 12.9424 13.6406C12.7648 13.8289 12.4754 13.8489 12.2744 13.6947L12.2354 13.6615L10.8643 12.3685C10.8348 12.3945 10.806 12.4215 10.7757 12.4466L10.6533 12.5436C10.0317 13.0167 9.25582 13.2981 8.41439 13.2982L8.22363 13.293C6.33168 13.197 4.81441 11.6797 4.71842 9.78776L4.71387 9.59766C4.71387 7.55401 6.37074 5.89648 8.41439 5.89648L8.60449 5.90169ZM8.41439 6.89714C6.92302 6.89714 5.71387 8.10629 5.71387 9.59766C5.71413 11.0888 6.92318 12.2982 8.41439 12.2982C9.07016 12.2981 9.66919 12.0652 10.137 11.6771C10.7358 11.1803 11.1148 10.4334 11.1149 9.59766C11.1149 8.10634 9.90568 6.89722 8.41439 6.89714Z" fill="#FAFAFA"/>
</svg>
