<svg width="16" height="16" viewBox="0 0 16 16" fill="none" xmlns="http://www.w3.org/2000/svg">
<path fill-rule="evenodd" clip-rule="evenodd" d="M14.2171 2.02577C14.4791 1.93845 14.7626 2.08026 14.85 2.34217C14.9373 2.60414 14.7955 2.88766 14.5335 2.97498L9.45738 4.66704H11.042C12.0586 4.66704 13.0334 5.07126 13.7523 5.79009C14.4712 6.50896 14.8753 7.48374 14.8753 8.50037V12.5004C14.8753 12.7765 14.6515 13.0004 14.3753 13.0004H13.1227C13.0857 13.0452 13.0464 13.0885 13.0049 13.1299C12.6611 13.4737 12.1949 13.667 11.7087 13.667C11.2225 13.667 10.7562 13.4737 10.4125 13.1299C10.371 13.0885 10.3316 13.0452 10.2946 13.0004H5.12274C5.08572 13.0452 5.04638 13.0885 5.0049 13.1299C4.66109 13.4737 4.1949 13.667 3.70868 13.667C3.22249 13.667 2.75624 13.4737 2.41246 13.1299C2.0687 12.7861 1.87535 12.3199 1.87535 11.8337V8.50037C1.87538 8.2243 2.09928 8.00044 2.37535 8.00037H3.87535V6.52772L2.53355 6.97498C2.2716 7.06225 1.98805 6.92052 1.90074 6.65858C1.81349 6.39666 1.95526 6.11311 2.21714 6.02577L14.2171 2.02577ZM3.70868 11.0004C3.48771 11.0004 3.27574 11.0883 3.11949 11.2445C2.96324 11.4008 2.87537 11.6127 2.87535 11.8337C2.87535 12.0547 2.96327 12.2666 3.11949 12.4229C3.27574 12.5792 3.48771 12.667 3.70868 12.667C3.92968 12.667 4.14159 12.5792 4.29787 12.4229C4.45415 12.2666 4.54201 12.0547 4.54201 11.8337C4.54199 11.6127 4.45414 11.4008 4.29787 11.2445C4.1416 11.0883 3.92965 11.0004 3.70868 11.0004ZM11.7087 11.0004C11.4877 11.0004 11.2757 11.0883 11.1195 11.2445C10.9632 11.4008 10.8754 11.6127 10.8753 11.8337C10.8753 12.0547 10.9633 12.2666 11.1195 12.4229C11.2757 12.5792 11.4877 12.667 11.7087 12.667C11.9297 12.667 12.1416 12.5792 12.2979 12.4229C12.4542 12.2666 12.542 12.0547 12.542 11.8337C12.542 11.6127 12.4541 11.4008 12.2979 11.2445C12.1416 11.0883 11.9296 11.0004 11.7087 11.0004ZM2.87535 10.2022C3.13115 10.0715 3.41604 10.0004 3.70868 10.0004C4.19486 10.0004 4.6611 10.1937 5.0049 10.5375C5.3487 10.8813 5.54199 11.3475 5.54201 11.8337C5.54201 11.8896 5.53859 11.9452 5.53355 12.0004H7.87535V9.00037H2.87535V10.2022ZM8.87535 12.0004H9.88381C9.87877 11.9452 9.87535 11.8896 9.87535 11.8337C9.87537 11.3475 10.0687 10.8813 10.4125 10.5375C10.7562 10.1937 11.2225 10.0004 11.7087 10.0004C12.1949 10.0004 12.6611 10.1937 13.0049 10.5375C13.3487 10.8813 13.542 11.3475 13.542 11.8337C13.542 11.8896 13.5386 11.9452 13.5335 12.0004H13.8753V9.00037H11.3753C11.1546 9.00032 10.9597 8.85564 10.8962 8.64425L10.003 5.66704H8.87535V12.0004ZM4.87535 6.19439V8.00037H7.87535V5.19439L4.87535 6.19439ZM11.7477 8.00037H13.8304C13.729 7.43474 13.4572 6.90906 13.0453 6.49712C12.5152 5.96705 11.7967 5.66842 11.0472 5.66704L11.7477 8.00037Z" fill="#FAFAFA"/>
</svg>
