<svg width="16" height="16" viewBox="0 0 16 16" fill="none" xmlns="http://www.w3.org/2000/svg">
<path fill-rule="evenodd" clip-rule="evenodd" d="M3.83301 3C3.37277 3 2.99967 3.3731 2.99967 3.83333V6.83333C2.99967 7.10948 2.77582 7.33333 2.49967 7.33333C2.22353 7.33333 1.99967 7.10948 1.99967 6.83333V3.83333C1.99967 2.82081 2.82048 2 3.83301 2H12.833C13.8455 2 14.6663 2.82081 14.6663 3.83333V8.83333C14.6663 9.84586 13.8455 10.6667 12.833 10.6667H9.83301C9.55686 10.6667 9.33301 10.4428 9.33301 10.1667C9.33301 9.89052 9.55686 9.66667 9.83301 9.66667H12.833C13.2932 9.66667 13.6663 9.29357 13.6663 8.83333V3.83333C13.6663 3.3731 13.2932 3 12.833 3H3.83301ZM11.6866 4.97978C11.8818 5.17504 11.8818 5.49162 11.6866 5.68689L10.3734 7H11.1663C11.4425 7 11.6663 7.22386 11.6663 7.5C11.6663 7.77614 11.4425 8 11.1663 8H9.16634C8.8902 8 8.66634 7.77614 8.66634 7.5V5.5C8.66634 5.22386 8.8902 5 9.16634 5C9.44248 5 9.66634 5.22386 9.66634 5.5V6.29289L10.9795 4.97978C11.1747 4.78452 11.4913 4.78452 11.6866 4.97978ZM1.33301 10.5C1.33301 9.48748 2.15382 8.66667 3.16634 8.66667H6.16634C7.17886 8.66667 7.99967 9.48748 7.99967 10.5V12.8333C7.99967 13.8459 7.17886 14.6667 6.16634 14.6667H3.16634C2.15382 14.6667 1.33301 13.8459 1.33301 12.8333V10.5ZM3.16634 9.66667C2.7061 9.66667 2.33301 10.0398 2.33301 10.5V12.8333C2.33301 13.2936 2.7061 13.6667 3.16634 13.6667H6.16634C6.62658 13.6667 6.99967 13.2936 6.99967 12.8333V10.5C6.99967 10.0398 6.62658 9.66667 6.16634 9.66667H3.16634Z" fill="#FAFAFA"/>
</svg>
