<svg width="16" height="16" viewBox="0 0 16 16" fill="none" xmlns="http://www.w3.org/2000/svg">
<path d="M6.6263 8.86654C6.79198 8.64567 7.10527 8.60131 7.32617 8.76693C7.54709 8.93261 7.59212 9.24588 7.42643 9.4668L6.17839 11.1302C6.01916 11.3425 5.72208 11.3933 5.5013 11.2461L4.7513 10.7461C4.52168 10.5929 4.45949 10.2824 4.61263 10.0527C4.76581 9.82317 5.0763 9.76107 5.30599 9.91406L5.66276 10.1517L6.6263 8.86654Z" fill="#FAFAFA"/>
<path d="M10.8717 9.4987C11.1479 9.4987 11.3717 9.72256 11.3717 9.9987C11.3717 10.2748 11.1478 10.4987 10.8717 10.4987H9.20508C8.92912 10.4985 8.70517 10.2747 8.70508 9.9987C8.70508 9.72265 8.92906 9.49885 9.20508 9.4987H10.8717Z" fill="#FAFAFA"/>
<path d="M6.6263 4.86849C6.79196 4.64762 7.10526 4.60265 7.32617 4.76823C7.54707 4.9339 7.59206 5.24719 7.42643 5.4681L6.17839 7.13216C6.01913 7.34415 5.72198 7.3951 5.5013 7.24805L4.7513 6.74805C4.52158 6.5949 4.45956 6.28444 4.61263 6.05469C4.76581 5.82492 5.07623 5.76284 5.30599 5.91602L5.66276 6.15365L6.6263 4.86849Z" fill="#FAFAFA"/>
<path d="M10.8717 5.5C11.1479 5.5 11.3717 5.72386 11.3717 6C11.3717 6.27614 11.1479 6.5 10.8717 6.5H9.20508C8.92904 6.49988 8.70508 6.27607 8.70508 6C8.70508 5.72394 8.92904 5.50012 9.20508 5.5H10.8717Z" fill="#FAFAFA"/>
<path fill-rule="evenodd" clip-rule="evenodd" d="M12.1667 2C13.1792 2 14 2.82081 14 3.83333V12.1667C14 13.1792 13.1792 14 12.1667 14H3.83333C2.82081 14 2 13.1792 2 12.1667V3.83333C2 2.82081 2.82081 2 3.83333 2H12.1667ZM3.83333 3C3.3731 3 3 3.3731 3 3.83333V12.1667C3 12.6269 3.3731 13 3.83333 13H12.1667C12.6269 13 13 12.6269 13 12.1667V3.83333C13 3.3731 12.6269 3 12.1667 3H3.83333Z" fill="#FAFAFA"/>
</svg>
