<svg width="16" height="16" viewBox="0 0 16 16" fill="none" xmlns="http://www.w3.org/2000/svg">
<path fill-rule="evenodd" clip-rule="evenodd" d="M3.77257 3.77209C3.96784 3.57682 4.28442 3.57682 4.47968 3.77209L8.00021 7.29271L11.5386 3.75436C11.7338 3.55909 12.0504 3.55909 12.2457 3.75436C12.4409 3.94962 12.4409 4.2662 12.2457 4.46146L8.70731 7.99982L12.2404 11.5329C12.4356 11.7281 12.4356 12.0447 12.2404 12.24C12.0451 12.4352 11.7285 12.4352 11.5333 12.24L8.00021 8.70692L4.46488 12.2422C4.26962 12.4375 3.95304 12.4375 3.75777 12.2422C3.56251 12.047 3.56251 11.7304 3.75777 11.5351L7.2931 7.99982L3.77257 4.47919C3.57731 4.28393 3.57731 3.96735 3.77257 3.77209Z" fill="#FAFAFA"/>
</svg>
