<svg width="16" height="16" viewBox="0 0 16 16" fill="none" xmlns="http://www.w3.org/2000/svg">
<path fill-rule="evenodd" clip-rule="evenodd" d="M5.47978 2.14645C5.67505 1.95118 5.99163 1.95118 6.18689 2.14645L8.52022 4.47978C8.71549 4.67504 8.71549 4.99162 8.52022 5.18689C8.32496 5.38215 8.00838 5.38215 7.81312 5.18689L6.33334 3.70711V9.33333H13.5C13.7761 9.33333 14 9.55719 14 9.83333C14 10.1095 13.7761 10.3333 13.5 10.3333H6.05452L2.86997 13.8363C2.68422 14.0407 2.368 14.0557 2.16367 13.87C1.95934 13.6842 1.94428 13.368 2.13003 13.1637L5.33334 9.64003V3.70711L3.85356 5.18689C3.65829 5.38215 3.34171 5.38215 3.14645 5.18689C2.95119 4.99162 2.95119 4.67504 3.14645 4.47978L5.47978 2.14645Z" fill="#FAFAFA"/>
</svg>
