<svg width="16" height="16" viewBox="0 0 16 16" fill="none" xmlns="http://www.w3.org/2000/svg">
<path fill-rule="evenodd" clip-rule="evenodd" d="M5.86724 3.6665C5.59326 3.6665 5.33678 3.80118 5.18123 4.02673L2.76744 7.52673C2.57101 7.81155 2.57101 8.18813 2.76744 8.47295L5.18123 11.9729C5.33678 12.1985 5.59326 12.3332 5.86724 12.3332H12.8338C13.294 12.3332 13.6671 11.9601 13.6671 11.4998V4.49984C13.6671 4.0396 13.294 3.6665 12.8338 3.6665H5.86724ZM4.35802 3.45899C4.70023 2.96279 5.26448 2.6665 5.86724 2.6665H12.8338C13.8463 2.6665 14.6671 3.48732 14.6671 4.49984V11.4998C14.6671 12.5124 13.8463 13.3332 12.8338 13.3332H5.86724C5.26448 13.3332 4.70023 13.0369 4.35802 12.5407L1.94423 9.04068C1.51208 8.41407 1.51208 7.58561 1.94423 6.95899L2.35583 7.24286L1.94423 6.95899L4.35802 3.45899ZM7.14578 6.31295C7.34104 6.11769 7.65763 6.11769 7.85289 6.31295L8.83378 7.29384L9.81467 6.31295C10.0099 6.11769 10.3265 6.11769 10.5218 6.31295C10.717 6.50821 10.717 6.8248 10.5218 7.02006L9.54089 8.00095L10.5207 8.98073C10.7159 9.17599 10.7159 9.49257 10.5207 9.68784C10.3254 9.8831 10.0088 9.8831 9.81356 9.68784L8.83378 8.70806L7.854 9.68784C7.65874 9.8831 7.34216 9.8831 7.14689 9.68784C6.95163 9.49257 6.95163 9.17599 7.14689 8.98073L8.12667 8.00095L7.14578 7.02006C6.95052 6.8248 6.95052 6.50821 7.14578 6.31295Z" fill="#FAFAFA"/>
</svg>
