<svg width="16" height="16" viewBox="0 0 16 16" fill="none" xmlns="http://www.w3.org/2000/svg">
<path fill-rule="evenodd" clip-rule="evenodd" d="M1.33301 3.83301C1.33301 3.55687 1.55687 3.33301 1.83301 3.33301H14.1663C14.4425 3.33301 14.6663 3.55687 14.6663 3.83301C14.6663 4.10915 14.4425 4.33301 14.1663 4.33301H1.83301C1.55687 4.33301 1.33301 4.10915 1.33301 3.83301ZM1.33301 7.99967C1.33301 7.72353 1.55687 7.49967 1.83301 7.49967H14.1663C14.4425 7.49967 14.6663 7.72353 14.6663 7.99967C14.6663 8.27582 14.4425 8.49967 14.1663 8.49967H1.83301C1.55687 8.49967 1.33301 8.27582 1.33301 7.99967ZM1.33301 12.1663C1.33301 11.8902 1.55687 11.6663 1.83301 11.6663H7.66634C7.94248 11.6663 8.16634 11.8902 8.16634 12.1663C8.16634 12.4425 7.94248 12.6663 7.66634 12.6663H1.83301C1.55687 12.6663 1.33301 12.4425 1.33301 12.1663Z" fill="#FAFAFA"/>
</svg>
