<svg width="16" height="16" viewBox="0 0 16 16" fill="none" xmlns="http://www.w3.org/2000/svg">
<path fill-rule="evenodd" clip-rule="evenodd" d="M11.2575 9.98193C11.611 9.98202 11.9502 10.1226 12.2002 10.3726C12.4501 10.6226 12.5908 10.9617 12.5908 11.3153C12.5908 11.6688 12.4501 12.0079 12.2002 12.258C11.9502 12.5079 11.611 12.6485 11.2575 12.6486C10.9039 12.6486 10.5648 12.5079 10.3148 12.258C10.0647 12.0079 9.92415 11.6689 9.92415 11.3153C9.92415 10.9616 10.0647 10.6226 10.3148 10.3726C10.5648 10.1226 10.9039 9.98193 11.2575 9.98193ZM11.2575 10.9819C11.1692 10.9819 11.0843 11.0172 11.0218 11.0796C10.9593 11.1421 10.9242 11.2269 10.9242 11.3153C10.9242 11.4037 10.9593 11.4884 11.0218 11.5509C11.0843 11.6134 11.1692 11.6486 11.2575 11.6486C11.3458 11.6485 11.4307 11.6134 11.4932 11.5509C11.5556 11.4884 11.5908 11.4036 11.5908 11.3153C11.5908 11.2269 11.5556 11.1421 11.4932 11.0796C11.4307 11.0172 11.3458 10.982 11.2575 10.9819Z" fill="#FAFAFA"/>
<path fill-rule="evenodd" clip-rule="evenodd" d="M11.5381 7.58415C11.6874 7.59592 11.8324 7.64089 11.9619 7.71631L12.0251 7.75667L12.0856 7.80159C12.2218 7.91131 12.327 8.05521 12.3903 8.21891L12.54 8.60628L12.9613 8.84847L13.376 8.78597L13.3844 8.78467L13.458 8.77751C13.6298 8.76708 13.802 8.80104 13.9574 8.87712C14.1352 8.96419 14.2828 9.10246 14.3818 9.2736L14.3831 9.2762L14.5791 9.6193C14.681 9.79285 14.7288 9.99354 14.7145 10.1948C14.7003 10.3946 14.6256 10.5855 14.501 10.743L14.5016 10.7437L14.2451 11.0698V11.5562L14.5075 11.8823L14.5094 11.8843C14.6351 12.0419 14.7101 12.2343 14.7243 12.4357C14.7384 12.6347 14.6922 12.8333 14.5921 13.006L14.3936 13.355L14.3923 13.3569C14.2932 13.5283 14.1448 13.6658 13.9671 13.7528C13.7893 13.8399 13.5899 13.8724 13.3942 13.8459L13.3864 13.8452L12.9723 13.7814L12.5498 14.0249L12.4007 14.4116C12.3283 14.599 12.2006 14.7606 12.0348 14.8745L12.0342 14.8739C11.869 14.9874 11.6736 15.049 11.473 15.0496H11.0518C10.8507 15.049 10.6547 14.9877 10.4893 14.8739C10.3241 14.7602 10.1965 14.5996 10.124 14.4123L9.97428 14.0243L9.55176 13.7814L9.13769 13.8452L9.12988 13.8459C8.93412 13.8724 8.7342 13.8406 8.55631 13.7534C8.3788 13.6663 8.23137 13.5278 8.13249 13.3569L8.13118 13.355L7.93197 13.0067L7.93262 13.006C7.83254 12.8333 7.7857 12.6348 7.7998 12.4357L7.80827 12.3608C7.83388 12.1871 7.9046 12.0224 8.01465 11.8843L8.26921 11.5601V11.0737L8.00684 10.7482L8.00488 10.7463C7.87919 10.5885 7.80427 10.3961 7.79004 10.1948C7.77582 9.99364 7.82254 9.79258 7.9248 9.61865L8.12077 9.2762L8.12207 9.2736C8.22114 9.10245 8.36898 8.96415 8.54655 8.87712C8.70204 8.80094 8.87462 8.76702 9.04655 8.77751L9.12012 8.78467L9.12793 8.78597L9.54394 8.84912L9.97428 8.60498L10.124 8.21891C10.1964 8.0316 10.3239 7.87049 10.4893 7.75667C10.6548 7.6428 10.8509 7.58149 11.0518 7.58089H11.4626L11.5381 7.58415ZM10.8428 9.13232C10.8011 9.2398 10.7236 9.32997 10.6234 9.38688L9.88704 9.80485C9.78947 9.86023 9.67569 9.88093 9.56478 9.86409L8.98665 9.77555L8.79004 10.1206L8.78743 10.1245L9.15853 10.5835C9.23013 10.6723 9.26918 10.7832 9.26921 10.8973V11.7332C9.26921 11.8451 9.23143 11.9538 9.16243 12.0418L8.79915 12.5047L8.79785 12.506L8.80046 12.5106L8.99642 12.8543L9.57454 12.7671L9.65853 12.7612C9.7426 12.7627 9.82575 12.7853 9.89941 12.8276L10.626 13.2456L10.6956 13.2944C10.7608 13.3485 10.8118 13.4184 10.8428 13.4982L11.0557 14.0496H11.4684L11.682 13.4989L11.7191 13.422C11.7627 13.3493 11.8245 13.2883 11.8988 13.2456L12.6253 12.8276L12.7015 12.7918C12.7803 12.7628 12.8657 12.7543 12.9495 12.7671L13.527 12.8543L13.7243 12.5106L13.7269 12.5067L13.3558 12.047C13.2842 11.9582 13.2451 11.8473 13.2451 11.7332V10.8973C13.2451 10.7854 13.2828 10.6767 13.3519 10.5887L13.7152 10.1258L13.7165 10.1245L13.7145 10.1206L13.5173 9.77555L12.9398 9.86409C12.8278 9.88113 12.7131 9.85935 12.6149 9.8029L11.889 9.38493C11.79 9.32795 11.7128 9.23886 11.6715 9.13232L11.458 8.58089H11.0563L10.8428 9.13232Z" fill="#FAFAFA"/>
<path fill-rule="evenodd" clip-rule="evenodd" d="M12.5472 2.23844C12.6928 2.26832 12.8023 2.39715 12.8024 2.5516V6.17855C12.8024 6.33315 12.693 6.46246 12.5472 6.49235L12.4827 6.49886H6.72233L6.65788 6.50537C6.61493 6.51418 6.57545 6.53205 6.54069 6.55615C6.52935 6.57087 6.51776 6.58512 6.50488 6.59847C6.49762 6.60602 6.48982 6.61287 6.4821 6.61995C6.47256 6.62868 6.46365 6.63802 6.45345 6.646C6.42146 6.69576 6.4027 6.7549 6.40267 6.81852V12.5789L6.39616 12.6434C6.36627 12.7891 6.23696 12.8986 6.08236 12.8986H2.4554C2.30096 12.8985 2.17213 12.789 2.14225 12.6434L2.13574 12.5789V2.5516C2.13591 2.37511 2.27892 2.2321 2.4554 2.23193H12.4827L12.5472 2.23844ZM3.13574 11.8986H5.40267V10.1981H4.5459C4.26976 10.1981 4.0459 9.97422 4.0459 9.69808C4.0459 9.42194 4.26976 9.19808 4.5459 9.19808H5.40267V6.81852C5.40267 6.79645 5.40485 6.77458 5.40592 6.75277H4.5459C4.26976 6.75277 4.0459 6.52891 4.0459 6.25277C4.0459 5.97662 4.26976 5.75277 4.5459 5.75277H5.64616V4.65251C5.64616 4.37636 5.87002 4.15251 6.14616 4.15251C6.42215 4.15268 6.64616 4.37647 6.64616 4.65251V5.50277C6.6714 5.50133 6.69673 5.49886 6.72233 5.49886H9.10254V4.65251C9.10254 4.37636 9.3264 4.15251 9.60254 4.15251C9.87868 4.15251 10.1025 4.37636 10.1025 4.65251V5.49886H11.8024V3.23193H3.13574V11.8986Z" fill="#FAFAFA"/>
</svg>
