<svg width="16" height="16" viewBox="0 0 16 16" fill="none" xmlns="http://www.w3.org/2000/svg">
<path d="M7.49967 14V2C7.49967 1.72386 7.72353 1.5 7.99967 1.5C8.27582 1.5 8.49967 1.72386 8.49967 2V14C8.49967 14.2761 8.27582 14.5 7.99967 14.5C7.72353 14.5 7.49967 14.2761 7.49967 14Z" fill="#FAFAFA"/>
<path d="M2.83301 11.5V4.5C2.83301 4.09199 2.95944 3.68332 3.20801 3.36654C3.45886 3.04685 3.82847 2.83335 4.24837 2.83333H5.99967L6.05111 2.83594C6.30309 2.86169 6.49967 3.07456 6.49967 3.33333C6.49967 3.59211 6.30309 3.80498 6.05111 3.83073L5.99967 3.83333H4.24837C4.18275 3.83335 4.08693 3.86589 3.99447 3.98372C3.89969 4.10452 3.83301 4.28919 3.83301 4.5V11.5C3.83301 11.7108 3.89969 11.8955 3.99447 12.0163C4.08693 12.1341 4.18275 12.1666 4.24837 12.1667H5.99967L6.05111 12.1693C6.30309 12.195 6.49967 12.4079 6.49967 12.6667C6.49967 12.9254 6.30309 13.1383 6.05111 13.1641L5.99967 13.1667H4.24837C3.82847 13.1666 3.45886 12.9531 3.20801 12.6335C2.95944 12.3167 2.83301 11.908 2.83301 11.5Z" fill="#FAFAFA"/>
<path d="M13.1663 11.5V4.5C13.1663 4.09199 13.0399 3.68332 12.7913 3.36654C12.5405 3.04685 12.1709 2.83335 11.751 2.83333H9.99967L9.94824 2.83594C9.69626 2.86169 9.49967 3.07456 9.49967 3.33333C9.49967 3.59211 9.69626 3.80498 9.94824 3.83073L9.99967 3.83333H11.751C11.8166 3.83335 11.9124 3.86589 12.0049 3.98372C12.0997 4.10452 12.1663 4.28919 12.1663 4.5V11.5C12.1663 11.7108 12.0997 11.8955 12.0049 12.0163C11.9124 12.1341 11.8166 12.1666 11.751 12.1667H9.99967L9.94824 12.1693C9.69626 12.195 9.49967 12.4079 9.49967 12.6667C9.49967 12.9254 9.69626 13.1383 9.94824 13.1641L9.99967 13.1667H11.751C12.1709 13.1666 12.5405 12.9531 12.7913 12.6335C13.0399 12.3167 13.1663 11.908 13.1663 11.5Z" fill="#FAFAFA"/>
</svg>
