<svg width="16" height="16" viewBox="0 0 16 16" fill="none" xmlns="http://www.w3.org/2000/svg">
<path fill-rule="evenodd" clip-rule="evenodd" d="M7.39499 1.1868C7.57414 1.14216 7.7618 1.14216 7.94095 1.1868C8.14723 1.23821 8.3255 1.36428 8.49283 1.48261C8.50711 1.49271 8.52132 1.50276 8.53546 1.5127L13.9692 5.33275C14.1828 5.4829 14.2319 5.77464 14.079 5.98438C13.9261 6.19411 13.629 6.24241 13.4155 6.09226L12.7411 5.61817V10.7125C12.7411 11.0451 12.7411 11.3228 12.7223 11.5496C12.7026 11.7862 12.66 12.0083 12.551 12.2183C12.3838 12.5405 12.1171 12.8025 11.7889 12.9667C11.5751 13.0737 11.3489 13.1155 11.108 13.1348C10.877 13.1533 10.5943 13.1533 10.2556 13.1533H5.08037C4.74164 13.1533 4.45891 13.1533 4.22794 13.1348C3.98704 13.1155 3.76087 13.0737 3.547 12.9667C3.21886 12.8025 2.95208 12.5405 2.78488 12.2183C2.67591 12.0083 2.63335 11.7862 2.61367 11.5496C2.5948 11.3228 2.5948 11.0451 2.59481 10.7125L2.59481 5.61818L1.92047 6.09226C1.70689 6.24241 1.4098 6.19411 1.25689 5.98438C1.10399 5.77464 1.15317 5.4829 1.36675 5.33275L6.80048 1.5127C6.81462 1.50276 6.82882 1.49271 6.84311 1.48261C7.01044 1.36428 7.18871 1.23821 7.39499 1.1868ZM3.54603 4.94945V10.6936C3.54603 11.05 3.5464 11.2893 3.56173 11.4735C3.5766 11.6523 3.60316 11.7378 3.63242 11.7942C3.70842 11.9407 3.82969 12.0598 3.97884 12.1344C4.03627 12.1631 4.12332 12.1892 4.3054 12.2038C4.49303 12.2189 4.73668 12.2192 5.09968 12.2192H10.2362C10.5992 12.2192 10.8429 12.2189 11.0305 12.2038C11.2126 12.1892 11.2997 12.1631 11.3571 12.1344C11.5062 12.0598 11.6275 11.9407 11.7035 11.7942C11.7328 11.7378 11.7593 11.6523 11.7742 11.4735C11.7895 11.2893 11.7899 11.05 11.7899 10.6936V4.94944L7.98174 2.27221C7.87029 2.19386 7.80587 2.14889 7.75536 2.11829C7.72436 2.09951 7.71013 2.09346 7.70626 2.09202C7.68112 2.08587 7.65482 2.08587 7.62968 2.09202C7.62581 2.09346 7.61157 2.09951 7.58057 2.11829C7.53006 2.14889 7.46565 2.19386 7.3542 2.27221L3.54603 4.94945ZM7.63081 2.09164C7.63079 2.09166 7.63032 2.09184 7.62968 2.09202L7.63081 2.09164ZM7.70513 2.09164C7.70512 2.09162 7.70556 2.09176 7.70626 2.09202L7.70513 2.09164Z" fill="#FAFAFA"/>
</svg>
