<svg width="16" height="16" viewBox="0 0 16 16" fill="none" xmlns="http://www.w3.org/2000/svg">
<path d="M6.43815 12.3551C6.77987 12.3551 7.05664 12.6264 7.05664 12.9612C7.05648 13.2958 6.77977 13.5673 6.43815 13.5673C6.09651 13.5673 5.81983 13.2958 5.81966 12.9612C5.81966 12.6264 6.09641 12.3551 6.43815 12.3551Z" fill="#FAFAFA"/>
<path d="M9.02865 12.3551C9.37039 12.3551 9.64779 12.6264 9.64779 12.9612C9.64762 13.2958 9.37028 13.5673 9.02865 13.5673C8.68706 13.5672 8.41032 13.2958 8.41016 12.9612C8.41016 12.6265 8.68696 12.3551 9.02865 12.3551Z" fill="#FAFAFA"/>
<path d="M11.6191 12.3551C11.9609 12.3551 12.2383 12.6264 12.2383 12.9612C12.2381 13.2958 11.9608 13.5673 11.6191 13.5673C11.2776 13.5672 11.0008 13.2957 11.0007 12.9612C11.0007 12.6265 11.2775 12.3552 11.6191 12.3551Z" fill="#FAFAFA"/>
<path fill-rule="evenodd" clip-rule="evenodd" d="M3.11849 1.0022C3.25115 1.0022 3.37888 1.05485 3.47266 1.14868L7.18945 4.86808L7.39388 4.66886L7.4694 4.60767C7.55023 4.55467 7.64545 4.52632 7.74349 4.52629H10.056C10.3321 4.52629 10.556 4.75014 10.556 5.02629V7.54647H14.1673C14.4434 7.54653 14.6673 7.77036 14.6673 8.04647V12.4045C14.6673 12.4294 14.6643 12.4536 14.6608 12.4775C14.6637 12.5189 14.668 12.5609 14.668 12.6031V12.9084C14.6676 14.0621 13.7318 14.9974 12.5781 14.9976H5.47982C4.32598 14.9976 3.3903 14.0622 3.38997 12.9084V12.6031C3.39008 11.6176 4.18897 10.8187 5.17448 10.8186H5.80469V6.788C5.80469 6.68263 5.83792 6.57971 5.89974 6.49438L6.5306 5.62329L2.91146 2.0022H2.33398V7.29451H3.58333L3.70117 7.06405L3.73698 7.00415C3.8297 6.87186 3.98207 6.79126 4.14648 6.79126H4.66016C4.81455 6.79126 4.96062 6.86269 5.05534 6.98462C5.14998 7.10653 5.1827 7.26541 5.14453 7.41496L4.3737 10.4351C4.33444 10.589 4.22457 10.7152 4.07747 10.775C3.93043 10.8346 3.7636 10.8207 3.62826 10.7379L1.57292 9.47941C1.42453 9.38853 1.33398 9.22699 1.33398 9.05298V1.5022C1.33398 1.22605 1.55784 1.0022 1.83398 1.0022H3.11849ZM5.17448 11.8186C4.74126 11.8187 4.39008 12.1699 4.38997 12.6031V12.9084C4.3903 13.5099 4.87827 13.9976 5.47982 13.9976H12.5781C13.1795 13.9974 13.6676 13.5098 13.668 12.9084V12.6031C13.6679 12.1699 13.316 11.8188 12.8828 11.8186H5.17448ZM7.56706 5.89803L6.80469 6.95011V10.8186H12.8828C13.1646 10.8187 13.4303 10.8852 13.6673 11.0015V8.54647H10.056C9.77995 8.54639 9.55605 8.32251 9.55599 8.04647V5.52629H7.94727L7.56706 5.89803ZM2.33398 8.77238L3.57227 9.53084L3.88802 8.29451H2.33398V8.77238Z" fill="#FAFAFA"/>
</svg>
