<svg width="16" height="16" viewBox="0 0 16 16" fill="none" xmlns="http://www.w3.org/2000/svg">
<path d="M5.44336 5.61605C5.44336 5.29148 5.50729 4.96994 5.63151 4.67008C5.75571 4.37031 5.93787 4.09809 6.16732 3.86865L7.97787 2.05745C8.20734 1.82794 8.4801 1.64586 8.77995 1.52165C9.0798 1.39743 9.40134 1.3335 9.72591 1.3335C10.0504 1.33351 10.3721 1.39744 10.6719 1.52165C10.9716 1.64585 11.2439 1.82801 11.4733 2.05745L13.9414 4.52555C14.1708 4.75497 14.353 5.02724 14.4772 5.32699C14.6014 5.62681 14.6653 5.94842 14.6654 6.27295C14.6654 6.59752 14.6014 6.91906 14.4772 7.21891C14.353 7.51876 14.1709 7.79152 13.9414 8.021L12.1302 9.83154C11.9008 10.061 11.6285 10.2432 11.3288 10.3674C11.0289 10.4916 10.7074 10.5555 10.3828 10.5555C10.0583 10.5555 9.73668 10.4916 9.43685 10.3674C9.20122 10.2697 8.98264 10.1362 8.78841 9.97217L4.64258 14.1187C4.33183 14.4294 3.92146 14.6212 3.48372 14.6597L3.46289 14.661L3.3431 14.6662L3.33138 14.6668H2.51693C2.22674 14.6667 1.94668 14.5602 1.72982 14.3674C1.51297 14.1745 1.37452 13.9088 1.34049 13.6206L1.33854 13.6063L1.33789 13.592L1.33268 13.5112L1.33203 13.4963V12.6785C1.33214 12.2394 1.48686 11.814 1.76888 11.4774L1.77604 11.4696L1.7832 11.4611L1.86458 11.3719L1.88021 11.3563L2.16341 11.0724L2.3099 10.9259H3.38737V9.5555H4.75781V8.47803L6.02604 7.2098C5.86228 7.01575 5.72903 6.79735 5.63151 6.56201C5.5073 6.26218 5.44337 5.94059 5.44336 5.61605ZM6.44336 5.61605C6.44337 5.80925 6.4814 6.0007 6.55534 6.1792C6.62929 6.35767 6.73773 6.51982 6.87435 6.65641L7.43425 7.21631L5.75781 8.89209V10.5555H4.38737V11.9259H2.72461L2.58724 12.0633L2.5319 12.1232C2.4026 12.2792 2.33212 12.4758 2.33203 12.6785V13.4631L2.33464 13.5093C2.3411 13.552 2.36215 13.5912 2.39453 13.62C2.42841 13.65 2.47227 13.6668 2.51758 13.6668H3.31055L3.4069 13.6616C3.60663 13.6416 3.79344 13.5537 3.93555 13.4116L8.78255 8.56462L9.34245 9.12451L9.44987 9.22152C9.56143 9.31304 9.68587 9.38808 9.81966 9.44352C9.99816 9.51747 10.1896 9.55549 10.3828 9.5555C10.576 9.5555 10.7674 9.51747 10.946 9.44352C11.1245 9.36958 11.2866 9.26113 11.4232 9.12451L13.2344 7.31331L13.3314 7.20654C13.423 7.09489 13.4979 6.97004 13.5534 6.8361C13.6273 6.6576 13.6654 6.46616 13.6654 6.27295C13.6653 6.07976 13.6273 5.88828 13.5534 5.7098C13.4794 5.53133 13.371 5.36917 13.2344 5.23258L10.7663 2.76449C10.6297 2.62787 10.4675 2.51943 10.2891 2.44548C10.1106 2.37154 9.9191 2.33351 9.72591 2.3335C9.5327 2.3335 9.34126 2.37154 9.16276 2.44548C8.98429 2.51941 8.82215 2.62789 8.68555 2.76449L6.87435 4.57568C6.73774 4.71229 6.62928 4.87441 6.55534 5.0529C6.48139 5.23141 6.44336 5.42282 6.44336 5.61605Z" fill="#FAFAFA"/>
<path d="M11.6417 4.87957C11.6417 5.17863 11.3983 5.42106 11.098 5.42106C10.7977 5.42106 10.5543 5.17863 10.5543 4.87957C10.5543 4.58051 10.7977 4.33808 11.098 4.33808C11.3983 4.33808 11.6417 4.58051 11.6417 4.87957Z" fill="#FAFAFA"/>
</svg>
