<svg width="16" height="16" viewBox="0 0 16 16" fill="none" xmlns="http://www.w3.org/2000/svg">
<path fill-rule="evenodd" clip-rule="evenodd" d="M3.09316 2.71436C3.44025 2.2639 3.97673 2 4.54541 2H11.4559C12.0246 2 12.561 2.2639 12.9081 2.71436L14.5634 4.86262C14.6308 4.95008 14.6673 5.05738 14.6673 5.16779V5.83474C14.6673 6.49522 14.4054 7.0941 13.9821 7.53892V12.1667C13.9821 13.1792 13.1613 14 12.1488 14H3.8525C2.83998 14 2.01917 13.1792 2.01917 12.1667V7.53892C1.59589 7.0941 1.33398 6.49522 1.33398 5.83474V5.16779C1.33398 5.05738 1.37053 4.95008 1.43792 4.86262L3.09316 2.71436ZM3.01917 8.18667V12.1667C3.01917 12.6269 3.39227 13 3.8525 13H6.13028L6.13028 11.4992C6.13029 10.4737 6.98048 9.66526 8.00065 9.66526C9.02083 9.66526 9.87102 10.4737 9.87102 11.4992L9.87101 13H12.1488C12.609 13 12.9821 12.6269 12.9821 12.1667V8.18667C12.7101 8.2831 12.4169 8.33558 12.1118 8.33558C11.2745 8.33558 10.5239 7.93888 10.0562 7.32144C9.58851 7.93888 8.83787 8.33558 8.00065 8.33558C7.16343 8.33558 6.4128 7.93888 5.9451 7.32144C5.47739 7.93888 4.72676 8.33558 3.88954 8.33558C3.58442 8.33558 3.29121 8.2831 3.01917 8.18667ZM6.4451 5.83474C6.4451 6.651 7.12874 7.33558 8.00065 7.33558C8.87256 7.33558 9.55621 6.651 9.55621 5.83474V5.66779H6.4451V5.83474ZM5.4451 5.66779V5.83474C5.4451 6.651 4.76145 7.33558 3.88954 7.33558C3.48685 7.33558 3.12255 7.18864 2.84761 6.94911C2.5295 6.67196 2.33398 6.27426 2.33398 5.83474V5.66779H5.4451ZM13.1509 4.66779L12.116 3.32471C11.9582 3.11995 11.7144 3 11.4559 3H4.54541C4.28692 3 4.04307 3.11995 3.8853 3.32471L2.85044 4.66779H13.1509ZM13.6673 5.66779H10.5562V5.83474C10.5562 6.651 11.2399 7.33558 12.1118 7.33558C12.5145 7.33558 12.8787 7.18864 13.1537 6.94911C13.4718 6.67196 13.6673 6.27426 13.6673 5.83474V5.66779ZM8.87101 13L8.87102 11.4992C8.87102 11.0512 8.49414 10.6653 8.00065 10.6653C7.50716 10.6653 7.13029 11.0512 7.13028 11.4992L7.13028 13H8.87101Z" fill="#FAFAFA"/>
</svg>
