<svg width="16" height="16" viewBox="0 0 16 16" fill="none" xmlns="http://www.w3.org/2000/svg">
<path fill-rule="evenodd" clip-rule="evenodd" d="M2.19914 2.52359C2.39438 2.3285 2.71095 2.32846 2.90617 2.52359L13.8013 13.4188L13.8352 13.4565C13.9955 13.6529 13.9845 13.9433 13.8013 14.1264C13.6182 14.3094 13.3284 14.3205 13.1321 14.1603L13.0943 14.1264L11.6705 12.7026C10.7197 13.8178 9.312 14.5267 7.73755 14.5268C4.87409 14.5267 2.55217 12.1903 2.552 9.30874C2.55213 7.93279 3.22545 6.5344 4.17179 5.20327L2.19914 3.23062C2.00396 3.03535 2.0039 2.71882 2.19914 2.52359ZM4.88859 5.92072C4.04276 7.14261 3.55278 8.28423 3.55265 9.30874C3.55282 11.644 5.43231 13.5267 7.73755 13.5268C7.75144 13.5268 7.76536 13.5257 7.77921 13.5255V8.8107L4.88859 5.92072Z" fill="#FAFAFA"/>
<path d="M7.26554 1.66942C7.52534 1.40668 7.95042 1.40724 8.2102 1.67007C10.4639 3.95151 12.9228 6.61687 12.9231 9.30874L12.9166 9.57762C12.8957 9.99135 12.8253 10.3921 12.7141 10.7749L7.77921 5.83934V2.65835C7.76546 2.64431 7.75131 2.63006 7.73755 2.61603C7.21909 3.14532 6.69505 3.69573 6.20044 4.26056L5.49211 3.55223C6.07373 2.8912 6.68384 2.25874 7.26554 1.66942Z" fill="#FAFAFA"/>
</svg>
