<svg width="16" height="16" viewBox="0 0 16 16" fill="none" xmlns="http://www.w3.org/2000/svg">
<path d="M1.75673 12.5C2.03275 12.5001 2.25673 12.7239 2.25673 13C2.25673 13.2761 2.03275 13.4999 1.75673 13.5H1.75022C1.47418 13.4999 1.25022 13.2761 1.25022 13C1.25022 12.7239 1.47418 12.5001 1.75022 12.5H1.75673Z" fill="#FAFAFA"/>
<path d="M1.25868 10.4082C1.30934 10.1369 1.5707 9.95805 1.84201 10.0085C2.56154 10.1425 3.22354 10.4916 3.7411 11.0091C4.25867 11.5267 4.60768 12.1886 4.74175 12.9082C4.7923 13.1796 4.61335 13.4409 4.34201 13.4915C4.0707 13.5419 3.80934 13.3631 3.75868 13.0918C3.66161 12.5707 3.4089 12.091 3.03407 11.7161C2.65925 11.3414 2.17951 11.0886 1.65842 10.9915C1.38721 10.9408 1.20817 10.6795 1.25868 10.4082Z" fill="#FAFAFA"/>
<path d="M1.80295 7.5026C3.19625 7.65046 4.49708 8.27165 5.48785 9.26237C6.47862 10.2531 7.09974 11.5539 7.24761 12.9473C7.27672 13.2218 7.07754 13.4683 6.80295 13.4974C6.52846 13.5264 6.28195 13.3272 6.25282 13.0527C6.12908 11.8869 5.60982 10.7984 4.78081 9.9694C3.95182 9.14045 2.86328 8.62112 1.69748 8.4974C1.42302 8.46815 1.22373 8.22176 1.25282 7.94727C1.28195 7.67275 1.52846 7.47362 1.80295 7.5026Z" fill="#FAFAFA"/>
<path d="M13.0002 2.5C13.4643 2.5 13.9097 2.68425 14.2378 3.01237C14.566 3.34056 14.7502 3.78587 14.7502 4.25V11.75C14.7502 12.2141 14.566 12.6594 14.2378 12.9876C13.9097 13.3158 13.4643 13.5 13.0002 13.5H9.25022C8.97418 13.4999 8.75022 13.2761 8.75022 13C8.75022 12.7239 8.97418 12.5001 9.25022 12.5H13.0002C13.1991 12.5 13.3902 12.4212 13.5308 12.2806C13.6715 12.1399 13.7502 11.9489 13.7502 11.75V4.25C13.7502 4.05109 13.6715 3.86005 13.5308 3.7194C13.3902 3.57882 13.1991 3.5 13.0002 3.5H3.00022C2.80138 3.50006 2.61022 3.5788 2.46962 3.7194C2.32903 3.86004 2.25022 4.05114 2.25022 4.25V5.5C2.25022 5.77614 2.02636 6 1.75022 6C1.47418 5.99988 1.25022 5.77607 1.25022 5.5V4.25C1.25022 3.78592 1.43447 3.34055 1.76259 3.01237C2.09072 2.68423 2.53617 2.50006 3.00022 2.5H13.0002Z" fill="#FAFAFA"/>
</svg>
