<svg width="16" height="16" viewBox="0 0 16 16" fill="none" xmlns="http://www.w3.org/2000/svg">
<path d="M11.4932 9.4637C11.7693 9.4637 11.9932 9.68756 11.9932 9.9637C11.9932 10.2398 11.7693 10.4637 11.4932 10.4637H8.56608C8.29003 10.4636 8.06608 10.2398 8.06608 9.9637C8.06608 9.68763 8.29003 9.46381 8.56608 9.4637H11.4932Z" fill="#FAFAFA"/>
<path fill-rule="evenodd" clip-rule="evenodd" d="M8.3304 1.34196C9.97809 1.42374 11.5418 2.11391 12.7139 3.28597C13.9641 4.53621 14.6663 6.23205 14.6663 8.00016L14.6579 8.33089C14.5761 9.97858 13.8859 11.5423 12.7139 12.7144L12.4743 12.9422C11.2513 14.0496 9.65729 14.6668 7.99967 14.6668L7.66894 14.6584C6.13109 14.582 4.66644 13.9757 3.52506 12.9422L3.28548 12.7144C2.11342 11.5423 1.42325 9.97858 1.34147 8.33089L1.33301 8.00016C1.33301 6.23205 2.03524 4.53621 3.28548 3.28597C4.53572 2.03573 6.23156 1.3335 7.99967 1.3335L8.3304 1.34196ZM4.3623 12.3439C5.37812 13.1945 6.66423 13.6668 7.99967 13.6668C9.50257 13.6668 10.9441 13.07 12.0068 12.0073C13.0695 10.9446 13.6663 9.50306 13.6663 8.00016C13.6663 6.66486 13.1945 5.37856 12.3441 4.36279L4.3623 12.3439ZM6.03613 4.07308C5.75999 4.07308 5.53613 4.29694 5.53613 4.57308V5.53662H4.57259C4.29645 5.53662 4.07259 5.76048 4.07259 6.03662C4.07259 6.31276 4.29645 6.53662 4.57259 6.53662H5.53613V7.50016C5.53613 7.7763 5.75999 8.00016 6.03613 8.00016C6.31227 8.00016 6.53613 7.7763 6.53613 7.50016V6.53662H7.49967C7.77582 6.53662 7.99967 6.31276 7.99967 6.03662C7.99967 5.76048 7.77582 5.53662 7.49967 5.53662H6.53613V4.57308C6.53613 4.29694 6.31227 4.07308 6.03613 4.07308Z" fill="#FAFAFA"/>
</svg>
