<svg width="16" height="16" viewBox="0 0 16 16" fill="none" xmlns="http://www.w3.org/2000/svg">
<path fill-rule="evenodd" clip-rule="evenodd" d="M8.69661 1.33325C9.35166 1.33325 9.9254 1.77299 10.0957 2.40552L13.1276 13.6666H14.1673L14.2187 13.6692C14.4707 13.6949 14.6673 13.9078 14.6673 14.1666C14.6673 14.4254 14.4707 14.6382 14.2187 14.664L14.1673 14.6666H1.83398C1.55784 14.6666 1.33398 14.4427 1.33398 14.1666C1.33398 13.8904 1.55784 13.6666 1.83398 13.6666H2.8737L5.9056 2.40552C6.07588 1.77303 6.6497 1.33332 7.30469 1.33325H8.69661ZM4.66276 10.8717L3.91016 13.6666H12.0918L11.3392 10.8717H4.66276ZM4.93164 9.87166H11.0703L10.0625 6.12817H5.93945L4.93164 9.87166ZM7.30469 2.33325C7.10189 2.33332 6.92451 2.46947 6.87174 2.66528L6.20898 5.12817H9.79297L9.13021 2.66528C9.07745 2.46938 8.8995 2.33325 8.69661 2.33325H7.30469Z" fill="#FAFAFA"/>
</svg>
