<svg width="24" height="24" viewBox="0 0 24 24" fill="none" xmlns="http://www.w3.org/2000/svg">
<path fill-rule="evenodd" clip-rule="evenodd" d="M12 9C13.1935 9 14.3377 9.47446 15.1816 10.3184L15.3359 10.4795C16.0834 11.305 16.5 12.3811 16.5 13.5C16.5 15.421 13.8119 19.0756 12.5908 20.6377C12.5208 20.7275 12.4314 20.8007 12.3291 20.8506C12.2267 20.9006 12.1139 20.9258 12 20.9258C11.8861 20.9258 11.7733 20.9006 11.6709 20.8506C11.5686 20.8007 11.4792 20.7275 11.4092 20.6377C10.1881 19.0766 7.5 15.421 7.5 13.5C7.5 12.3811 7.91658 11.305 8.66406 10.4795L8.81836 10.3184C9.66227 9.47446 10.8065 9 12 9ZM12.0049 12.25C11.4846 12.25 11.0561 12.6455 11.0049 13.1523L11 13.2549L11.0049 13.3574C11.0565 13.8638 11.4848 14.2598 12.0049 14.2598L12.1074 14.2539C12.6139 14.2025 13.0095 13.7748 13.0098 13.2549C13.0098 12.7 12.5597 12.25 12.0049 12.25Z" fill="#FAFAFA"/>
<path fill-rule="evenodd" clip-rule="evenodd" d="M6 1.5C7.27965 1.5 8.49356 2.05074 9.37891 3.00879C10.2624 3.96502 10.75 5.25036 10.75 6.5791V7.12109C10.8235 7.1067 10.8975 7.09482 10.9717 7.08301C9.6291 7.29815 8.37808 7.92975 7.4043 8.90332C6.1982 10.1094 5.51531 11.7411 5.50098 13.4453C5.50165 13.3981 5.50248 13.3509 5.50391 13.3037C5.48223 13.3234 5.45996 13.3429 5.43555 13.3604C5.09849 13.6009 4.63032 13.5225 4.38965 13.1855C3.81487 12.3807 3.04384 11.2516 2.41406 10.0889C1.80273 8.96013 1.25 7.66937 1.25 6.5791C1.25002 5.25036 1.73758 3.96502 2.62109 3.00879C3.50644 2.05074 4.72035 1.5 6 1.5ZM5.99121 4.875C5.45866 4.875 4.98242 5.29857 4.98242 5.875C4.98242 6.45144 5.45866 6.875 5.99121 6.875C6.52376 6.875 7 6.45144 7 5.875C7 5.29857 6.52376 4.875 5.99121 4.875Z" fill="#FAFAFA"/>
<path fill-rule="evenodd" clip-rule="evenodd" d="M18 1.5C19.2797 1.5 20.4936 2.05074 21.3789 3.00879C22.2624 3.96502 22.75 5.25036 22.75 6.5791C22.75 7.66937 22.1973 8.96013 21.5859 10.0889C20.9562 11.2516 20.1851 12.3807 19.6104 13.1855C19.3697 13.5225 18.9015 13.6009 18.5645 13.3604C18.5398 13.3428 18.517 13.3236 18.4951 13.3037C18.4453 11.651 17.7693 10.076 16.5967 8.90332C15.6254 7.93207 14.3779 7.30166 13.0391 7.08496C13.1096 7.09631 13.1801 7.1074 13.25 7.12109V6.5791C13.25 5.25036 13.7376 3.96502 14.6211 3.00879C15.5064 2.05074 16.7203 1.5 18 1.5ZM18.0088 5.25C17.4763 5.25005 17 5.6736 17 6.25C17 6.8264 17.4763 7.24995 18.0088 7.25C18.5413 7.25 19.0176 6.82644 19.0176 6.25C19.0176 5.67356 18.5413 5.25 18.0088 5.25Z" fill="#FAFAFA"/>
</svg>
