<svg width="24" height="24" viewBox="0 0 24 24" fill="none" xmlns="http://www.w3.org/2000/svg">
<path fill-rule="evenodd" clip-rule="evenodd" d="M18.25 3C19.7688 3 21 4.23122 21 5.75V18.25C21 19.7688 19.7688 21 18.25 21H5.75C4.23122 21 3 19.7688 3 18.25V5.75C3 4.23122 4.23122 3 5.75 3H18.25ZM10.9893 13.1504C10.6579 12.902 10.188 12.9685 9.93945 13.2998L8.49414 15.2275L7.95898 14.8711C7.61445 14.6416 7.14872 14.7348 6.91895 15.0791C6.68928 15.4237 6.78254 15.8893 7.12695 16.1191L8.25195 16.8691C8.5831 17.0899 9.02874 17.0136 9.26758 16.6953L11.1396 14.2002C11.3882 13.8688 11.3206 13.3989 10.9893 13.1504ZM13.8076 14.248C13.3936 14.2483 13.0576 14.584 13.0576 14.998C13.0578 15.412 13.3937 15.7478 13.8076 15.748H16.3076C16.7217 15.748 17.0574 15.4121 17.0576 14.998C17.0576 14.5838 16.7218 14.2481 16.3076 14.248H13.8076ZM10.9893 7.15234C10.6579 6.90397 10.1879 6.97142 9.93945 7.30273L8.49414 9.23047L7.95898 8.87402C7.61434 8.64426 7.14871 8.73738 6.91895 9.08203C6.68939 9.42665 6.78239 9.89236 7.12695 10.1221L8.25195 10.8721C8.58295 11.0926 9.02869 11.0162 9.26758 10.6982L11.1396 8.20215C11.3881 7.8708 11.3206 7.40086 10.9893 7.15234ZM13.8076 8.25C13.3936 8.25018 13.0576 8.58591 13.0576 9C13.0577 9.41406 13.3936 9.74982 13.8076 9.75H16.3076C16.7218 9.74999 17.0576 9.41417 17.0576 9C17.0576 8.5858 16.7218 8.25001 16.3076 8.25H13.8076Z" fill="#FAFAFA"/>
</svg>
