<svg width="24" height="24" viewBox="0 0 24 24" fill="none" xmlns="http://www.w3.org/2000/svg">
<path d="M21 17.5005C21 16.6721 20.3284 16.0005 19.5 16.0005H4.50098V14.5005L14 14.5005C14.8284 14.5005 15.5 13.8289 15.5 13.0005V11.0005C15.5 10.1721 14.8284 9.50049 14 9.50049L4.50098 9.50049V8.00049H8.5C9.32843 8.00049 10 7.32892 10 6.50049V4.50049C10 3.67206 9.32843 3.00049 8.5 3.00049H4.50098V1.75049C4.50098 1.33627 4.16519 1.00049 3.75098 1.00049C3.33676 1.00049 3.00098 1.33627 3.00098 1.75049V22.2505C3.00098 22.6647 3.33676 23.0005 3.75098 23.0005C4.16519 23.0005 4.50098 22.6647 4.50098 22.2505V21.0005H19.5C20.3284 21.0005 21 20.3289 21 19.5005V17.5005Z" fill="#FAFAFA"/>
</svg>
