<svg width="24" height="24" viewBox="0 0 24 24" fill="none" xmlns="http://www.w3.org/2000/svg">
<path d="M8.92871 2.9375C9.34277 2.9375 9.67846 3.2735 9.67871 3.6875V7.82324C9.96681 7.97158 10.2401 8.14509 10.4941 8.3418C10.8215 8.59531 10.8811 9.0661 10.6279 9.39355C10.3743 9.72103 9.90365 9.78098 9.57617 9.52734C8.93868 9.03374 8.13894 8.74023 7.26953 8.74023C6.81203 8.74029 6.37347 8.82236 5.96777 8.97168C5.93851 8.98585 5.90819 8.99749 5.87695 9.00781C4.48501 9.56187 3.50051 10.9204 3.5 12.5098C3.5 14.0661 4.44322 15.4028 5.78906 15.9785C5.86718 15.994 5.93949 16.0248 6.00684 16.0625C6.4017 16.203 6.8265 16.2802 7.26953 16.2803C8.1391 16.2803 8.93862 15.9869 9.57617 15.4932C9.90347 15.24 10.3743 15.3 10.6279 15.627C10.8814 15.9543 10.8213 16.425 10.4941 16.6787C10.2401 16.8754 9.96679 17.0489 9.67871 17.1973V20.3115C9.67855 20.7256 9.34282 21.0615 8.92871 21.0615C8.5146 21.0615 8.17888 20.7256 8.17871 20.3115V17.7012C7.8832 17.7526 7.57952 17.7803 7.26953 17.7803C6.97065 17.7802 6.67788 17.7539 6.39258 17.7061V20.3115C6.39241 20.7256 6.05669 21.0615 5.64258 21.0615C5.22847 21.0615 4.89274 20.7256 4.89258 20.3115V17.2129C3.17698 16.3436 2 14.5645 2 12.5098C2.00048 10.4554 3.17711 8.67653 4.89258 7.80762V3.6875C4.89283 3.2735 5.22852 2.9375 5.64258 2.9375C6.05664 2.9375 6.39233 3.2735 6.39258 3.6875V7.31445C6.67782 7.26664 6.97071 7.24026 7.26953 7.24023C7.5794 7.24023 7.88331 7.26692 8.17871 7.31836V3.6875C8.17896 3.2735 8.51465 2.9375 8.92871 2.9375Z" fill="#FAFAFA"/>
<path d="M6.39941 9.84766C6.95748 9.66171 7.56059 9.65669 8.12207 9.83203C8.55589 9.96759 8.94779 10.207 9.2666 10.5254H12.4629V14.4902H9.2666C8.94778 14.8087 8.55595 15.048 8.12207 15.1836C7.56041 15.359 6.95764 15.3531 6.39941 15.167C5.84134 14.9809 5.3557 14.6237 5.01172 14.1465C4.66805 13.6693 4.48245 13.0959 4.48242 12.5078C4.48259 11.9197 4.66782 11.3453 5.01172 10.8682C5.35574 10.3912 5.84147 10.0336 6.39941 9.84766Z" fill="#FAFAFA"/>
<path d="M19.2041 9.71777C20.7482 9.71786 21.9999 10.9696 22 12.5137C22 14.0578 20.7482 15.3095 19.2041 15.3096H14.9756C14.4233 15.3096 13.9756 14.8619 13.9756 14.3096V10.7178C13.9756 10.1655 14.4233 9.71777 14.9756 9.71777H19.2041Z" fill="#FAFAFA"/>
</svg>
