<svg width="24" height="24" viewBox="0 0 24 24" fill="none" xmlns="http://www.w3.org/2000/svg">
<path d="M5.5293 14.9043C5.52948 15.3184 5.8652 15.6543 6.2793 15.6543C6.6934 15.6543 7.02911 15.3184 7.0293 14.9043V10.7422H8.4043V13.5166C8.4043 13.9308 8.74008 14.2666 9.1543 14.2666C9.56851 14.2666 9.9043 13.9308 9.9043 13.5166V10.7422H11.2793V14.9043C11.2795 15.3184 11.6152 15.6543 12.0293 15.6543C12.4434 15.6543 12.7791 15.3184 12.7793 14.9043V10.7422H14.1543V13.5166C14.1543 13.9308 14.4901 14.2666 14.9043 14.2666C15.3185 14.2666 15.6543 13.9308 15.6543 13.5166V10.7422H17.0293V14.9043C17.0295 15.3184 17.3652 15.6543 17.7793 15.6543C18.1934 15.6543 18.5291 15.3184 18.5293 14.9043V10.7422H19.875C20.496 10.7422 21 11.3822 21 12.1709V19.3135C21 20.1022 20.496 20.7422 19.875 20.7422H4C3.73478 20.7422 3.48051 20.6104 3.29297 20.376C3.10544 20.1416 3 19.8237 3 19.4922V12.1709C3.00002 11.3822 3.50401 10.7422 4.125 10.7422H5.5293V14.9043Z" fill="#FAFAFA"/>
<path d="M20.6543 2.50781C21.0685 2.50781 21.4043 2.8436 21.4043 3.25781V7.14062C21.404 7.55463 21.0684 7.89062 20.6543 7.89062C20.2402 7.89062 19.9045 7.55463 19.9043 7.14062V5.94922H4.1543V7.14062C4.15405 7.55463 3.81836 7.89062 3.4043 7.89062C2.99024 7.89062 2.65454 7.55463 2.6543 7.14062V3.25781C2.6543 2.8436 2.99008 2.50781 3.4043 2.50781C3.81851 2.50781 4.1543 2.8436 4.1543 3.25781V4.44922H19.9043V3.25781C19.9043 2.8436 20.2401 2.50781 20.6543 2.50781Z" fill="#FAFAFA"/>
</svg>
