<svg width="24" height="24" viewBox="0 0 24 24" fill="none" xmlns="http://www.w3.org/2000/svg">
<path d="M5.76163 15.9864C6.10739 15.8134 6.52815 15.9541 6.70109 16.2998C7.03813 16.9738 7.12982 17.5547 6.99698 18.086C6.88628 18.5282 6.62677 18.8664 6.46769 19.0733C6.45054 19.0955 6.43433 19.1166 6.41984 19.1358C6.24276 19.3705 6.21314 19.451 6.21085 19.5313C6.20834 19.621 6.24292 19.8701 6.63468 20.3926C6.86659 20.702 6.80434 21.1412 6.49503 21.3731C6.18572 21.6049 5.74644 21.5418 5.51456 21.2325C5.04639 20.6079 4.79569 20.0452 4.81144 19.4912C4.82751 18.9281 5.12013 18.5328 5.30167 18.292L5.3212 18.2666C5.5169 18.0073 5.60128 17.8951 5.63859 17.7461C5.66683 17.6332 5.6867 17.4009 5.44913 16.9258C5.27622 16.5801 5.41597 16.1593 5.76163 15.9864Z" fill="#FAFAFA"/>
<path d="M9.80655 15.9864C10.1523 15.8134 10.573 15.9541 10.746 16.2998C11.0831 16.9738 11.1748 17.5547 11.0419 18.086C10.9312 18.5282 10.6717 18.8664 10.5126 19.0733C10.4955 19.0955 10.4792 19.1166 10.4648 19.1358C10.2877 19.3705 10.2581 19.451 10.2558 19.5313C10.2533 19.621 10.2886 19.8699 10.6806 20.3926C10.9124 20.702 10.8492 21.1412 10.54 21.3731C10.2307 21.6047 9.79233 21.5416 9.56046 21.2325C9.09217 20.6078 8.84061 20.0452 8.85636 19.4912C8.87243 18.9281 9.16504 18.5328 9.34659 18.292L9.3671 18.2666C9.56285 18.0072 9.6472 17.8952 9.68448 17.7461C9.71273 17.6332 9.73167 17.4009 9.49405 16.9258C9.32116 16.5802 9.46101 16.1593 9.80655 15.9864Z" fill="#FAFAFA"/>
<path d="M13.8525 15.9864C14.1982 15.8136 14.618 15.9542 14.7909 16.2998C15.128 16.9739 15.2207 17.5546 15.0878 18.086C14.9771 18.5283 14.7166 18.8664 14.5575 19.0733C14.5404 19.0955 14.5241 19.1166 14.5097 19.1358C14.3327 19.3704 14.3029 19.451 14.3007 19.5313C14.2982 19.621 14.3335 19.8699 14.7255 20.3926C14.9574 20.702 14.8941 21.1412 14.5849 21.3731C14.2755 21.6046 13.8372 21.5417 13.6054 21.2325C13.1371 20.6078 12.8855 20.0452 12.9013 19.4912C12.9173 18.9281 13.211 18.5328 13.3925 18.292L13.412 18.2666C13.6078 18.0072 13.6921 17.8952 13.7294 17.7461C13.7576 17.6332 13.7767 17.4009 13.539 16.9258C13.366 16.5801 13.5067 16.1592 13.8525 15.9864Z" fill="#FAFAFA"/>
<path d="M17.8974 15.9864C18.2431 15.8135 18.6639 15.9541 18.8368 16.2998C19.1738 16.9737 19.2656 17.5547 19.1327 18.086C19.0497 18.4177 18.8826 18.6906 18.7372 18.8936L18.5556 19.1358C18.3784 19.3707 18.3479 19.451 18.3456 19.5313C18.3431 19.621 18.3785 19.87 18.7704 20.3926C19.0023 20.7019 18.94 21.1411 18.6308 21.3731C18.3214 21.605 17.8822 21.5418 17.6503 21.2325C17.182 20.6078 16.9304 20.0452 16.9462 19.4912C16.9622 18.9281 17.2559 18.5328 17.4374 18.292L17.4569 18.2666C17.6526 18.0072 17.737 17.8952 17.7743 17.7461C17.8026 17.6332 17.8216 17.4009 17.5839 16.9258C17.411 16.5801 17.5516 16.1592 17.8974 15.9864Z" fill="#FAFAFA"/>
<path d="M10.8163 3.54984C11.4206 3.54509 11.9584 4.0021 12.0507 4.59965V4.60355C12.3108 6.35904 12.7092 8.09147 13.2421 9.78422C13.8298 11.4394 14.6404 13.0071 15.6513 14.4434C15.78 14.6265 15.7963 14.8658 15.6933 15.0645C15.5901 15.2632 15.3849 15.3886 15.161 15.3887H3.12687C2.90297 15.3886 2.69779 15.2632 2.59464 15.0645C2.49163 14.8658 2.50785 14.6265 2.63663 14.4434C3.64762 13.0071 4.45814 11.4394 5.04581 9.78422C5.57869 8.09142 5.97715 6.35909 6.23722 4.60355V4.59965C6.32951 4.00207 6.8673 3.54505 7.47159 3.54984H10.8163Z" fill="#FAFAFA"/>
<path d="M17.6191 6.15043C18.0871 6.15041 18.6352 6.45132 18.7304 7.06742L18.7314 7.07133C18.9265 8.38904 19.2251 9.68936 19.6249 10.96C20.0644 12.1973 20.671 13.3697 21.4267 14.4434C21.5553 14.6264 21.5716 14.8658 21.4687 15.0645C21.3655 15.2633 21.1595 15.3887 20.9355 15.3887H16.8573C17.05 14.8441 16.9711 14.2328 16.6327 13.752C15.6887 12.4107 14.9304 10.9474 14.3798 9.40238C14.2151 8.8778 14.0635 8.34933 13.9257 7.81742C13.97 7.56951 14.0108 7.32057 14.0478 7.07133L14.0487 7.06742C14.1396 6.4788 14.662 6.15048 15.1474 6.15043H17.6191Z" fill="#FAFAFA"/>
</svg>
