<svg width="24" height="24" viewBox="0 0 24 24" fill="none" xmlns="http://www.w3.org/2000/svg">
<rect x="2" y="2" width="20" height="20" rx="10" fill="#FAFAFA"/>
<path d="M8.46978 8.47016C8.76268 8.17727 9.23755 8.17727 9.53044 8.47016L12.0001 10.9398L14.4698 8.47016C14.7627 8.17727 15.2375 8.17727 15.5304 8.47016C15.8233 8.76305 15.8233 9.23793 15.5304 9.53082L13.0608 12.0005L15.5304 14.4702C15.8233 14.7631 15.8233 15.2379 15.5304 15.5308C15.2375 15.8237 14.7627 15.8237 14.4698 15.5308L12.0001 13.0611L9.53044 15.5308C9.23755 15.8237 8.76268 15.8237 8.46978 15.5308C8.17689 15.2379 8.17689 14.7631 8.46978 14.4702L10.9395 12.0005L8.46978 9.53082C8.17689 9.23793 8.17689 8.76305 8.46978 8.47016Z" fill="#131313"/>
</svg>
