<svg width="24" height="24" viewBox="0 0 24 24" fill="none" xmlns="http://www.w3.org/2000/svg">
<path fill-rule="evenodd" clip-rule="evenodd" d="M19.75 21C19.75 21.4142 19.4142 21.75 19 21.75H5C4.58579 21.75 4.25 21.4142 4.25 21V14.25H19.75V21ZM5.75 20.25H7.75V15.75H5.75V20.25ZM9.25 20.25H11.25V15.75H9.25V20.25ZM12.75 20.25H14.75V15.75H12.75V20.25ZM16.25 20.25H18.25V15.75H16.25V20.25Z" fill="#FAFAFA"/>
<path d="M12 2.25C16.2802 2.25 19.75 5.71979 19.75 10V12.75H4.25V10C4.25 5.71979 7.71979 2.25 12 2.25Z" fill="#FAFAFA"/>
</svg>
