<svg width="24" height="24" viewBox="0 0 24 24" fill="none" xmlns="http://www.w3.org/2000/svg">
<path d="M12.001 1.7041C13.7186 1.7043 15.3665 2.388 16.5811 3.60254C17.7952 4.81718 18.4775 6.46507 18.4775 8.18262V14.4326H19C19.4142 14.4326 19.75 14.7684 19.75 15.1826C19.7496 15.5965 19.414 15.9326 19 15.9326H15.9316V21.5449C15.9316 21.9591 15.5959 22.2949 15.1816 22.2949C14.7675 22.2948 14.4316 21.9591 14.4316 21.5449V15.9326H12.75V11.6748L14.4395 9.98535C14.7321 9.69262 14.7318 9.21771 14.4395 8.9248C14.1466 8.63194 13.6718 8.632 13.3789 8.9248L12 10.3037L10.6211 8.9248C10.3282 8.63191 9.85344 8.63191 9.56055 8.9248C9.2679 9.21772 9.26774 9.69254 9.56055 9.98535L11.25 11.6748V15.9326H9.56836V21.5449C9.56836 21.9591 9.23249 22.2948 8.81836 22.2949C8.40415 22.2949 8.06836 21.9591 8.06836 21.5449V15.9326H5C4.58603 15.9326 4.2504 15.5965 4.25 15.1826C4.25 14.7684 4.58579 14.4326 5 14.4326H5.52344V8.18262C5.52344 6.46485 6.20633 4.81724 7.4209 3.60254C8.6356 2.38797 10.2832 1.7041 12.001 1.7041Z" fill="#FAFAFA"/>
</svg>
