<svg width="24" height="24" viewBox="0 0 24 24" fill="none" xmlns="http://www.w3.org/2000/svg">
<path d="M19.6904 20.5H21.25L21.3271 20.5039C21.7051 20.5425 22 20.8618 22 21.25C22 21.6382 21.7051 21.9575 21.3271 21.9961L21.25 22H2.75C2.33579 22 2 21.6642 2 21.25C2 20.8358 2.33579 20.5 2.75 20.5H4.30957L5.43848 16.3076H18.5225C18.535 16.3076 18.5481 16.3053 18.5605 16.3047L19.6904 20.5Z" fill="#FAFAFA"/>
<path d="M18.1582 14.8076H5.8418L7.35352 9.19238H16.6465L18.1582 14.8076Z" fill="#FAFAFA"/>
<path d="M13.0439 2C14.0264 2.0001 14.8871 2.65972 15.1426 3.6084L16.2422 7.69238H7.75781L8.85742 3.6084C9.11285 2.65977 9.97369 2.0002 10.9561 2H13.0439Z" fill="#FAFAFA"/>
</svg>
