<svg width="24" height="24" viewBox="0 0 24 24" fill="none" xmlns="http://www.w3.org/2000/svg">
<path fill-rule="evenodd" clip-rule="evenodd" d="M4.67676 1.50293C4.87575 1.50293 5.06734 1.58288 5.20801 1.72363L10.7832 7.30273L11.0898 7.00391L11.2031 6.91211C11.3244 6.83262 11.4672 6.79009 11.6143 6.79004H15.083C15.4972 6.79004 15.833 7.12583 15.833 7.54004V11.3203H21.25C21.6641 11.3204 22 11.6562 22 12.0703V18.6074C22 18.6445 21.9955 18.6812 21.9902 18.7168C21.9946 18.7788 22.001 18.8422 22.001 18.9053V19.3633C22.0002 21.0935 20.5966 22.4968 18.8662 22.4971H8.21875C6.48816 22.4971 5.08474 21.0937 5.08398 19.3633V18.9053C5.08415 17.427 6.28248 16.2287 7.76074 16.2285H8.70605V10.1826C8.70605 10.0247 8.75605 9.87011 8.84863 9.74219L9.79492 8.43555L4.36621 3.00391H3.5V10.9424H5.37402L5.55078 10.5967L5.60449 10.5068C5.74357 10.3084 5.97213 10.1875 6.21875 10.1875H6.98926C7.22085 10.1875 7.43995 10.2946 7.58203 10.4775C7.72382 10.6604 7.77304 10.8988 7.71582 11.123L6.55957 15.6533C6.50058 15.8839 6.33573 16.0735 6.11523 16.1631C5.89478 16.2524 5.64433 16.2316 5.44141 16.1074L2.3584 14.2197C2.13596 14.0835 2.00017 13.8409 2 13.5801V2.25391C2 1.83969 2.33579 1.50293 2.75 1.50293H4.67676ZM8.31152 17.9434C7.46692 17.9435 6.7825 18.6141 6.78223 19.4414C6.78263 20.2686 7.46701 20.9403 8.31152 20.9404C9.15612 20.9404 9.84041 20.2687 9.84082 19.4414C9.84055 18.614 9.15621 17.9434 8.31152 17.9434ZM13.542 17.9434C12.6974 17.9435 12.013 18.6141 12.0127 19.4414C12.0131 20.2686 12.6975 20.9403 13.542 20.9404C14.3866 20.9404 15.0719 20.2687 15.0723 19.4414C15.072 18.614 14.3867 17.9434 13.542 17.9434ZM18.7715 17.9434C17.9273 17.944 17.2434 18.6144 17.2432 19.4414C17.2436 20.2683 17.9274 20.9398 18.7715 20.9404C19.6161 20.9404 20.3023 20.2687 20.3027 19.4414C20.3025 18.614 19.6162 17.9434 18.7715 17.9434Z" fill="#FAFAFA"/>
</svg>
