<svg width="24" height="24" viewBox="0 0 24 24" fill="none" xmlns="http://www.w3.org/2000/svg">
<path d="M13.7414 2.62162C12.7284 1.79279 11.2716 1.79279 10.2586 2.62162L4.0086 7.73525C3.37022 8.25756 3 9.03882 3 9.86364V18.9159C3 20.4347 4.23122 21.6659 5.75 21.6659H8V15.416C8 13.8972 9.23122 12.666 10.75 12.666H13.25C14.7688 12.666 16 13.8972 16 15.416V21.6659H18.25C19.7688 21.6659 21 20.4347 21 18.9159V9.86364C21 9.03882 20.6298 8.25756 19.9914 7.73525L13.7414 2.62162Z" fill="#FAFAFA"/>
<path d="M14.5 21.6659V15.416C14.5 14.7257 13.9404 14.166 13.25 14.166H10.75C10.0596 14.166 9.5 14.7257 9.5 15.416V21.6659H14.5Z" fill="#FAFAFA"/>
</svg>
