<svg width="24" height="24" viewBox="0 0 24 24" fill="none" xmlns="http://www.w3.org/2000/svg">
<path d="M12.4961 2.0127C13.2392 2.04958 13.971 2.16853 14.6787 2.36523L14.9805 2.45508C14.4111 2.63291 13.8588 2.86146 13.3301 3.1377C12.439 3.60334 11.6147 4.20469 10.8906 4.92871C10.7804 5.03896 10.6729 5.15184 10.5684 5.2666C10.1438 5.7328 9.76654 6.23555 9.44043 6.7666C9.14659 7.24514 8.89359 7.74717 8.68457 8.2666C8.48905 8.75252 8.33223 9.25436 8.21484 9.7666C8.10231 10.2578 8.02655 10.7594 7.98926 11.2666C7.97139 11.5097 7.96192 11.7546 7.96191 12L7.97461 12.4961C7.97909 12.5863 7.98529 12.6767 7.99219 12.7666C8.11534 14.3695 8.62219 15.9122 9.46094 17.2666C9.5413 17.3964 9.62453 17.5252 9.71094 17.6514C9.97839 18.042 10.2751 18.4145 10.5986 18.7666C10.6936 18.8699 10.791 18.9717 10.8906 19.0713L10.9004 19.0811L11.25 19.4131C11.5455 19.6806 11.8553 19.9296 12.1777 20.1582C12.6057 20.4616 13.0559 20.7304 13.5234 20.9619C13.9765 21.1863 14.4468 21.3759 14.9287 21.5293C14.9456 21.5347 14.9626 21.5396 14.9795 21.5449C14.0235 21.8433 13.0199 22 12 22L11.5039 21.9873C9.19712 21.8728 7.00015 20.9633 5.28809 19.4131L4.92871 19.0713C4.82903 18.9716 4.73172 18.87 4.63672 18.7666C4.20856 18.3007 3.82821 17.7981 3.49902 17.2666C2.66018 15.9121 2.15344 14.3696 2.03027 12.7666C2.02336 12.6766 2.01718 12.5864 2.0127 12.4961L2 12C2 11.7545 2.00947 11.5098 2.02734 11.2666C2.06462 10.7593 2.14037 10.2579 2.25293 9.7666C2.37031 9.25426 2.52711 8.75261 2.72266 8.2666C2.93169 7.74708 3.18463 7.24522 3.47852 6.7666C3.80466 6.23545 4.18179 5.73288 4.60645 5.2666C4.71103 5.15177 4.81839 5.03903 4.92871 4.92871C6.80407 3.05335 9.34784 2 12 2L12.4961 2.0127Z" fill="#FAFAFA"/>
<path d="M19.5977 5.50195C19.9391 5.90119 20.2491 6.32299 20.5215 6.7666C20.5964 6.88853 20.6688 7.01186 20.7383 7.13672L17.4326 20.3926C17.391 20.4195 17.3506 20.4483 17.3086 20.4746H17.3066C16.837 20.4383 16.3739 20.362 15.9209 20.25L19.5977 5.50195Z" fill="#FAFAFA"/>
<path d="M17.3086 3.52539C17.6727 3.75338 18.0224 4.00616 18.3564 4.28125L14.4971 19.7607C14.0241 19.5496 13.5704 19.2953 13.1416 19L16.9932 3.55469C17.0979 3.54268 17.2032 3.53351 17.3086 3.52539C17.2203 3.47012 17.1299 3.41863 17.04 3.36621L17.041 3.36328C17.131 3.41577 17.2202 3.47005 17.3086 3.52539Z" fill="#FAFAFA"/>
<path d="M21.7471 9.7666C21.8596 10.2579 21.9354 10.7593 21.9727 11.2666C21.9905 11.5098 22 11.7545 22 12L21.9873 12.4961C21.9828 12.5864 21.9766 12.6766 21.9697 12.7666C21.9307 13.274 21.8535 13.7754 21.7393 14.2666C21.62 14.7791 21.4612 15.2807 21.2637 15.7666C21.0524 16.2863 20.7973 16.7882 20.501 17.2666C20.1793 17.7859 19.8078 18.2765 19.3916 18.7334L21.6875 9.52637C21.7079 9.60628 21.7286 9.68613 21.7471 9.7666Z" fill="#FAFAFA"/>
<path d="M11.8652 17.9199C11.6621 17.7107 11.4682 17.4936 11.2891 17.2666C11.0726 16.9922 10.8763 16.7042 10.6963 16.4072L13.3848 5.62793L13.6162 4.69531C14.1663 4.36819 14.7511 4.10477 15.3594 3.90918L11.8652 17.9199Z" fill="#FAFAFA"/>
<path d="M9.72656 14.0967C9.61592 13.6619 9.53688 13.2173 9.49609 12.7666C9.47315 12.5129 9.46191 12.2568 9.46191 12C9.46193 11.7544 9.47215 11.5094 9.49316 11.2666C9.53726 10.7573 9.62773 10.2552 9.76074 9.7666C9.90149 9.24973 10.0903 8.74719 10.3252 8.2666C10.5837 7.73763 10.8982 7.23448 11.2637 6.7666C11.3943 6.59939 11.5321 6.43715 11.6758 6.2793L9.72656 14.0967Z" fill="#FAFAFA"/>
</svg>
