<svg width="24" height="24" viewBox="0 0 24 24" fill="none" xmlns="http://www.w3.org/2000/svg">
<path d="M11.249 12.001H11.2861C11.293 12.0013 11.2998 12.0034 11.3066 12.0039L11.3262 12.0049C11.3354 12.0058 11.3444 12.0085 11.3535 12.0098C11.3861 12.0143 11.4183 12.0204 11.4502 12.0293C11.4621 12.0326 11.4737 12.0362 11.4854 12.04C11.517 12.0505 11.5478 12.0633 11.5781 12.0781C11.5909 12.0844 11.6029 12.0917 11.6152 12.0986C11.6413 12.1133 11.6669 12.1285 11.6914 12.1465C11.7043 12.1559 11.7163 12.1665 11.7285 12.1768C11.7456 12.191 11.7643 12.2037 11.7803 12.2197C11.7873 12.2268 11.7921 12.2359 11.7988 12.2432C11.8046 12.2495 11.8098 12.2562 11.8154 12.2627C11.8394 12.2904 11.8616 12.3185 11.8809 12.3486C11.8878 12.3596 11.893 12.3715 11.8994 12.3828C11.9155 12.4111 11.9313 12.439 11.9434 12.4688C11.948 12.4802 11.951 12.4922 11.9551 12.5039C11.9665 12.5368 11.9766 12.5696 11.9834 12.6035C11.985 12.6115 11.985 12.6198 11.9863 12.6279C11.9925 12.665 11.9965 12.7018 11.9971 12.7393C11.9971 12.7432 11.999 12.7471 11.999 12.751L12 18.75C12 19.0533 11.8173 19.3272 11.5371 19.4434C11.2569 19.5594 10.9342 19.4947 10.7197 19.2803L8.25 16.8105L4.28027 20.7803C3.9874 21.0731 3.51262 21.0731 3.21973 20.7803C2.92683 20.4874 2.92683 20.0126 3.21973 19.7197L7.18945 15.75L4.71973 13.2803C4.50525 13.0658 4.4406 12.7431 4.55664 12.4629C4.67275 12.1827 4.94669 12 5.25 12L11.249 12.001ZM19.5 3C19.8978 3.00003 20.2793 3.15818 20.5605 3.43945C20.8418 3.72075 21 4.1022 21 4.5V16.5C21 16.8978 20.8418 17.2792 20.5605 17.5605C20.2793 17.8418 19.8978 18 19.5 18H15C14.5858 18 14.25 17.6642 14.25 17.25C14.25 16.8358 14.5858 16.5 15 16.5H19.5V4.5H7.5V9C7.5 9.41418 7.16416 9.74994 6.75 9.75C6.33579 9.75 6 9.41421 6 9V4.5C6 4.10217 6.15815 3.72076 6.43945 3.43945C6.72075 3.15818 7.1022 3 7.5 3H19.5Z" fill="#FAFAFA"/>
</svg>
