<svg width="24" height="24" viewBox="0 0 24 24" fill="none" xmlns="http://www.w3.org/2000/svg">
<path d="M13.2342 5.20403C13.6531 6.21071 14.3418 7.40348 15.4695 8.53118C16.597 9.6586 17.7891 10.3467 18.7957 10.7656L11.3992 18.162C10.8224 18.7388 10.5336 19.0272 10.2156 19.2753C9.84024 19.5681 9.43438 19.8195 9.00468 20.0243C8.6404 20.1979 8.25263 20.3268 7.47831 20.5849L3.3953 21.9462C3.01429 22.0731 2.59433 21.9733 2.31034 21.6894C2.02643 21.4053 1.92749 20.9854 2.05448 20.6044L3.41484 16.5214C3.67296 15.7471 3.80275 15.3593 3.97636 14.995C4.18112 14.5655 4.43174 14.1594 4.72441 13.7841C4.97257 13.466 5.26154 13.1777 5.83866 12.6005L13.2342 5.20403Z" fill="#FAFAFA"/>
<path d="M15.2859 3.15227C16.8216 1.61656 19.3118 1.61656 20.8475 3.15227C22.3828 4.68789 22.3828 7.17716 20.8475 8.71282L19.9598 9.60051C19.9234 9.58847 19.8868 9.57538 19.8494 9.56243C18.9122 9.2373 17.6831 8.62461 16.5291 7.47063C15.3751 6.31662 14.7624 5.08747 14.4373 4.15032C14.4242 4.11268 14.4114 4.07564 14.3992 4.03899L15.2859 3.15227Z" fill="#FAFAFA"/>
</svg>
