<svg width="16" height="16" viewBox="0 0 16 16" fill="none" xmlns="http://www.w3.org/2000/svg">
<path fill-rule="evenodd" clip-rule="evenodd" d="M7.99935 2.1665C9.54643 2.1665 11.0303 2.78089 12.1243 3.87484C13.2183 4.9688 13.8327 6.45275 13.8327 7.99984V11.9998C13.8327 13.0124 13.0119 13.8332 11.9993 13.8332H3.99935C2.98683 13.8332 2.16602 13.0124 2.16602 11.9998V7.99984C2.16602 6.45275 2.78038 4.96881 3.87435 3.87484C4.96832 2.78087 6.45226 2.1665 7.99935 2.1665ZM7.99935 3.1665C6.71749 3.1665 5.48782 3.67543 4.58138 4.58187C3.67494 5.48831 3.16602 6.71798 3.16602 7.99984V8.97249L12.8105 12.1873C12.8244 12.127 12.8327 12.0644 12.8327 11.9998V7.99984C12.8327 6.71797 12.3237 5.48831 11.4173 4.58187C10.5108 3.67544 9.28119 3.1665 7.99935 3.1665Z" fill="#FAFAFA"/>
</svg>
