<svg width="16" height="16" viewBox="0 0 16 16" fill="none" xmlns="http://www.w3.org/2000/svg">
<path d="M13.332 2.66699C14.0684 2.66699 14.666 3.26362 14.666 4V12C14.666 12.7364 14.0684 13.333 13.332 13.333H2.66602L2.5293 13.3262C1.857 13.2578 1.33203 12.6903 1.33203 12V4C1.33203 3.26362 1.92964 2.66699 2.66602 2.66699H13.332ZM4.13184 9.50098C3.76383 9.50107 3.46502 9.79901 3.46484 10.167C3.46517 10.5348 3.76392 10.8339 4.13184 10.834C4.49982 10.834 4.7985 10.5349 4.79883 10.167C4.79865 9.79895 4.49992 9.50098 4.13184 9.50098ZM9.53906 9.75C9.26292 9.75 9.03906 9.97386 9.03906 10.25V10.2568C9.03947 10.5326 9.26317 10.7568 9.53906 10.7568L9.54004 10.7559L9.54102 10.7568C9.81676 10.7567 10.0406 10.5325 10.041 10.2568V10.25C10.041 9.97397 9.81701 9.75018 9.54102 9.75H9.53906ZM7.74902 9.16699C7.47288 9.16699 7.24902 9.39085 7.24902 9.66699V9.67285C7.24925 9.9488 7.47302 10.1729 7.74902 10.1729C8.02502 10.1729 8.24879 9.9488 8.24902 9.67285V9.66699C8.24902 9.39085 8.02517 9.16699 7.74902 9.16699ZM11.3311 9.16699C11.0549 9.16699 10.8311 9.39085 10.8311 9.66699V9.67285C10.8313 9.9488 11.0551 10.1729 11.3311 10.1729C11.6069 10.1727 11.8308 9.94869 11.8311 9.67285V9.66699C11.8311 9.39096 11.607 9.16717 11.3311 9.16699ZM9.53809 6.70801C9.22968 6.7087 8.93398 6.83173 8.71582 7.0498C8.52441 7.24125 8.40639 7.4927 8.37988 7.75977L8.37402 7.875C8.37407 8.18436 8.49707 8.48144 8.71582 8.7002C8.9339 8.91814 9.22984 9.04024 9.53809 9.04102L9.53906 9.04199L9.54004 9.04102L9.54102 9.04199L9.54199 9.04102C9.85032 9.04024 10.1462 8.91825 10.3643 8.7002C10.583 8.48144 10.706 8.18436 10.7061 7.875L10.7002 7.75977C10.6737 7.4927 10.5557 7.24125 10.3643 7.0498C10.1459 6.83147 9.84973 6.70852 9.54102 6.70801H9.53809ZM4.13184 5.16699C3.85569 5.16699 3.63184 5.39085 3.63184 5.66699V8.33301C3.63201 8.609 3.8558 8.83301 4.13184 8.83301C4.40787 8.83301 4.63166 8.609 4.63184 8.33301V5.66699C4.63184 5.39085 4.40798 5.16699 4.13184 5.16699ZM7.16602 7.375C6.88987 7.375 6.66602 7.59886 6.66602 7.875V7.88184C6.66642 8.15763 6.89012 8.38184 7.16602 8.38184C7.44176 8.38166 7.66561 8.15753 7.66602 7.88184V7.875C7.66602 7.59897 7.44201 7.37518 7.16602 7.375ZM11.9141 7.375C11.6379 7.375 11.4141 7.59886 11.4141 7.875V7.88184C11.4145 8.15763 11.6382 8.38184 11.9141 8.38184C12.19 8.38184 12.4137 8.15763 12.4141 7.88184V7.875C12.4141 7.59886 12.1902 7.375 11.9141 7.375ZM7.74902 5.58301C7.47299 5.58301 7.2492 5.80701 7.24902 6.08301V6.08984C7.24925 6.36579 7.47302 6.58984 7.74902 6.58984C8.02502 6.58984 8.2488 6.36579 8.24902 6.08984V6.08301C8.24885 5.80702 8.02506 5.58301 7.74902 5.58301ZM11.3311 5.58301C11.055 5.58301 10.8312 5.80702 10.8311 6.08301V6.08984C10.8313 6.36579 11.0551 6.58984 11.3311 6.58984C11.6069 6.58967 11.8308 6.36568 11.8311 6.08984V6.08301C11.8309 5.80712 11.6069 5.58318 11.3311 5.58301ZM9.53906 5C9.26292 5 9.03906 5.22386 9.03906 5.5V5.50684C9.03947 5.78263 9.26317 6.00684 9.53906 6.00684L9.54004 6.00586L9.54102 6.00684C9.81676 6.00666 10.0406 5.78253 10.041 5.50684V5.5C10.041 5.22397 9.81701 5.00018 9.54102 5H9.53906Z" fill="#FAFAFA"/>
</svg>
