<svg width="16" height="16" viewBox="0 0 16 16" fill="none" xmlns="http://www.w3.org/2000/svg">
<path fill-rule="evenodd" clip-rule="evenodd" d="M13.332 2.6665C14.0684 2.6665 14.6654 3.26346 14.6654 3.99984V11.9998C14.6654 12.7362 14.0684 13.3332 13.332 13.3332H2.66536L2.5293 13.326C1.85685 13.2578 1.33203 12.6903 1.33203 11.9998V3.99984C1.33203 3.26346 1.92898 2.6665 2.66536 2.6665H13.332ZM2.66536 3.6665C2.48127 3.6665 2.33203 3.81574 2.33203 3.99984V11.9998C2.33203 12.1839 2.48127 12.3332 2.66536 12.3332H13.332C13.5161 12.3332 13.6654 12.1839 13.6654 11.9998V3.99984C13.6654 3.81574 13.5161 3.6665 13.332 3.6665H2.66536Z" fill="#FAFAFA"/>
<path fill-rule="evenodd" clip-rule="evenodd" d="M2.66536 3.6665C2.48127 3.6665 2.33203 3.81574 2.33203 3.99984V11.9998C2.33203 12.1839 2.48127 12.3332 2.66536 12.3332H13.332C13.5161 12.3332 13.6654 12.1839 13.6654 11.9998V3.99984C13.6654 3.81574 13.5161 3.6665 13.332 3.6665H2.66536ZM6.71094 10.3716C6.71094 10.0955 6.48695 9.87173 6.21094 9.87158H6.20898C5.93286 9.87161 5.70898 10.0955 5.70898 10.3716V10.3781C5.70921 10.654 5.93301 10.8781 6.20898 10.8781H6.21094C6.48681 10.8779 6.71071 10.6539 6.71094 10.3781V10.3716ZM12.6504 10.3781C12.6504 10.102 12.4265 9.87818 12.1504 9.87809H10.5801C10.3039 9.87809 10.0801 10.102 10.0801 10.3781C10.0801 10.6542 10.3039 10.8781 10.5801 10.8781H12.1504C12.4265 10.878 12.6504 10.6542 12.6504 10.3781ZM4.91927 9.78825C4.91927 9.5122 4.69529 9.2884 4.41927 9.28825C4.14313 9.28825 3.91927 9.51211 3.91927 9.78825V9.79476C3.9195 10.0707 4.14327 10.2948 4.41927 10.2948C4.69515 10.2946 4.91904 10.0706 4.91927 9.79476V9.78825ZM8.50065 9.78825C8.50065 9.51211 8.27679 9.28825 8.00065 9.28825C7.72453 9.28828 7.50065 9.51212 7.50065 9.78825V9.79476C7.50088 10.0707 7.72467 10.2947 8.00065 10.2948C8.27665 10.2948 8.50042 10.0707 8.50065 9.79476V9.78825ZM7.03385 7.17171C6.81552 6.9534 6.51964 6.83043 6.21094 6.82992H6.20833C5.89982 6.83053 5.6043 6.95355 5.38607 7.17171C5.19466 7.36315 5.07664 7.6143 5.05013 7.88135L5.04427 7.99658C5.04431 8.30594 5.16731 8.6027 5.38607 8.82145C5.60414 9.03941 5.89944 9.16246 6.20768 9.16325H6.21159C6.52002 9.16256 6.81569 9.03956 7.03385 8.82145C7.25261 8.6027 7.37561 8.30594 7.37565 7.99658L7.36979 7.88135C7.34329 7.61429 7.22526 7.36316 7.03385 7.17171ZM4.33594 7.99658C4.33594 7.72053 4.11195 7.49673 3.83594 7.49658C3.5598 7.49658 3.33594 7.72044 3.33594 7.99658V8.00309C3.33617 8.27904 3.55994 8.50309 3.83594 8.50309C4.11181 8.50294 4.33571 8.27895 4.33594 8.00309V7.99658ZM9.08398 7.99658C9.08398 7.72044 8.86013 7.49658 8.58398 7.49658C8.30786 7.49661 8.08398 7.72046 8.08398 7.99658V8.00309C8.08421 8.27902 8.30801 8.50307 8.58398 8.50309C8.85999 8.50309 9.08376 8.27904 9.08398 8.00309V7.99658ZM11.8652 5.62158C11.8652 5.34549 11.6413 5.12167 11.3652 5.12158C11.0892 5.12167 10.8652 5.34549 10.8652 5.62158V5.90674H10.5801C10.304 5.90674 10.0802 6.13067 10.0801 6.40674C10.0801 6.68288 10.3039 6.90674 10.5801 6.90674H10.8652V7.19189C10.8652 7.46798 11.0892 7.69181 11.3652 7.69189C11.6413 7.69181 11.8652 7.46798 11.8652 7.19189V6.90674H12.1504C12.4265 6.90665 12.6504 6.68282 12.6504 6.40674C12.6503 6.13072 12.4264 5.90683 12.1504 5.90674H11.8652V5.62158ZM4.91927 6.20492C4.91927 5.92886 4.69529 5.70506 4.41927 5.70492C4.14313 5.70492 3.91927 5.92877 3.91927 6.20492V6.21143C3.9195 6.48737 4.14327 6.71143 4.41927 6.71143C4.69515 6.71128 4.91904 6.48728 4.91927 6.21143V6.20492ZM8.50065 6.20492C8.50065 5.92877 8.27679 5.70492 8.00065 5.70492C7.72453 5.70494 7.50065 5.92879 7.50065 6.20492V6.21143C7.50088 6.48736 7.72467 6.7114 8.00065 6.71143C8.27665 6.71143 8.50042 6.48737 8.50065 6.21143V6.20492ZM6.71094 5.62158C6.71094 5.34553 6.48695 5.12173 6.21094 5.12158H6.20898C5.93286 5.12161 5.70898 5.34546 5.70898 5.62158V5.62809C5.70921 5.90402 5.93301 6.12807 6.20898 6.12809H6.21094C6.48681 6.12794 6.71071 5.90395 6.71094 5.62809V5.62158Z" fill="#FAFAFA"/>
</svg>
