<svg width="16" height="16" viewBox="0 0 16 16" fill="none" xmlns="http://www.w3.org/2000/svg">
<path fill-rule="evenodd" clip-rule="evenodd" d="M3.83333 2C2.82081 2 2 2.82081 2 3.83333V12.1667C2 13.1792 2.82081 14 3.83333 14H9.05552C9.04534 13.9901 9.03521 13.9801 9.02513 13.97C7.65829 12.6031 7.65829 10.3871 9.02513 9.02022C10.392 7.65339 12.608 7.65339 13.9749 9.02022C13.9833 9.02865 13.9917 9.03711 14 9.0456V3.83333C14 2.82081 13.1792 2 12.1667 2H3.83333ZM7.3264 4.76816C7.54732 4.93385 7.59209 5.24725 7.4264 5.46816L6.17865 7.13184C6.01943 7.34413 5.72209 7.39506 5.5013 7.24786L4.7513 6.74786C4.52153 6.59468 4.45944 6.28425 4.61262 6.05449C4.7658 5.82472 5.07623 5.76263 5.306 5.91581L5.66244 6.15344L6.6264 4.86816C6.79209 4.64725 7.10549 4.60248 7.3264 4.76816ZM8.7053 6C8.7053 5.72386 8.92916 5.5 9.2053 5.5H10.872C11.1481 5.5 11.372 5.72386 11.372 6C11.372 6.27614 11.1481 6.5 10.872 6.5H9.2053C8.92916 6.5 8.7053 6.27614 8.7053 6ZM7.3264 8.76891C7.54732 8.9346 7.59209 9.248 7.4264 9.46891L6.17865 11.1326C6.01943 11.3449 5.72209 11.3958 5.5013 11.2486L4.7513 10.7486C4.52153 10.5954 4.45944 10.285 4.61262 10.0552C4.7658 9.82547 5.07623 9.76339 5.306 9.91656L5.66244 10.1542L6.6264 8.86891C6.79209 8.648 7.10549 8.60323 7.3264 8.76891Z" fill="#FAFAFA"/>
<path fill-rule="evenodd" clip-rule="evenodd" d="M12.5607 10.4344C11.9749 9.84865 11.0251 9.84865 10.4393 10.4344C9.85355 11.0202 9.85355 11.97 10.4393 12.5558C11.0251 13.1415 11.9749 13.1415 12.5607 12.5558C13.1464 11.97 13.1464 11.0202 12.5607 10.4344ZM9.73223 9.72733C10.7085 8.75102 12.2915 8.75102 13.2678 9.72733C14.123 10.5826 14.2291 11.9033 13.586 12.8739L14.5202 13.8082C14.7155 14.0035 14.7155 14.3201 14.5202 14.5153C14.325 14.7106 14.0084 14.7106 13.8131 14.5153L12.8789 13.5811C11.9082 14.2242 10.5875 14.1181 9.73223 13.2629C8.75592 12.2865 8.75592 10.7036 9.73223 9.72733Z" fill="#FAFAFA"/>
</svg>
