<svg width="16" height="16" viewBox="0 0 16 16" fill="none" xmlns="http://www.w3.org/2000/svg">
<path d="M13.6663 8.00016C13.6663 6.49727 13.0695 5.05571 12.0068 3.993C10.9441 2.9303 9.50257 2.3335 7.99967 2.3335C6.49678 2.3335 5.05522 2.9303 3.99251 3.993C2.92981 5.05571 2.33301 6.49727 2.33301 8.00016C2.33301 9.50306 2.92981 10.9446 3.99251 12.0073C5.05522 13.07 6.49678 13.6668 7.99967 13.6668V14.6668L7.66894 14.6584C6.13109 14.582 4.66644 13.9757 3.52506 12.9422L3.28548 12.7144C2.11342 11.5423 1.42325 9.97858 1.34147 8.33089L1.33301 8.00016C1.33301 6.23205 2.03524 4.53621 3.28548 3.28597C4.53572 2.03573 6.23156 1.3335 7.99967 1.3335L8.3304 1.34196C9.97809 1.42374 11.5418 2.11391 12.7139 3.28597C13.9641 4.53621 14.6663 6.23205 14.6663 8.00016L14.6579 8.33089C14.5761 9.97858 13.8859 11.5423 12.7139 12.7144L12.4743 12.9422C11.2513 14.0496 9.65729 14.6668 7.99967 14.6668V13.6668C9.50257 13.6668 10.9441 13.07 12.0068 12.0073C13.0695 10.9446 13.6663 9.50306 13.6663 8.00016Z" fill="#FAFAFA"/>
<path d="M7.99967 11.0369C7.99967 11.4051 8.30054 11.7097 8.66278 11.6438C9.39864 11.5099 10.0824 11.1551 10.6186 10.6188C11.3132 9.92424 11.7034 8.98219 11.7034 7.99991C11.7034 7.01763 11.3132 6.07558 10.6186 5.381C10.0824 4.84477 9.39864 4.48995 8.66278 4.35603C8.30054 4.29011 7.99967 4.59468 7.99967 4.96287V11.0369Z" fill="#FAFAFA"/>
</svg>
