<svg width="16" height="16" viewBox="0 0 16 16" fill="none" xmlns="http://www.w3.org/2000/svg">
<path d="M7.9992 12.6668C8.27527 12.6669 8.4992 12.8907 8.4992 13.1668V14.5002C8.4992 14.7763 8.27527 15.0001 7.9992 15.0002C7.72306 15.0002 7.4992 14.7763 7.4992 14.5002V13.1668C7.4992 12.8907 7.72306 12.6668 7.9992 12.6668Z" fill="#FAFAFA"/>
<path fill-rule="evenodd" clip-rule="evenodd" d="M7.9992 1.3335C9.53621 1.33353 11.0165 1.90557 12.1125 2.93311C13.2096 3.96169 13.8325 5.36406 13.8325 6.8335V12.8335C13.8325 12.8509 13.831 12.868 13.8293 12.8849L14.6997 13.8276C14.8869 14.0305 14.8744 14.3467 14.6717 14.534C14.4689 14.7213 14.1527 14.7087 13.9653 14.506L10.1138 10.3335H8.4992V11.1668C8.4992 11.4429 8.27527 11.6667 7.9992 11.6668C7.72306 11.6668 7.4992 11.443 7.4992 11.1668V10.3335H5.88461L2.03305 14.506C1.84576 14.7088 1.52954 14.7212 1.32667 14.534C1.12389 14.3467 1.11142 14.0305 1.29868 13.8276L2.16847 12.8849C2.16674 12.868 2.16586 12.8509 2.16586 12.8335V6.8335C2.16586 5.36401 2.78875 3.9617 3.88592 2.93311C4.98198 1.90559 6.46218 1.3335 7.9992 1.3335ZM7.9992 5.00016C7.4993 5.00016 7.02779 5.18249 6.6867 5.4943C6.34719 5.80477 6.16586 6.21572 6.16586 6.63363V9.3335H9.83253V6.63363C9.83253 6.21577 9.65115 5.80477 9.3117 5.4943C8.97065 5.18249 8.49908 5.0002 7.9992 5.00016Z" fill="#FAFAFA"/>
</svg>
