<svg width="16" height="16" viewBox="0 0 16 16" fill="none" xmlns="http://www.w3.org/2000/svg">
<path fill-rule="evenodd" clip-rule="evenodd" d="M14.2172 2.02573C14.4791 1.93851 14.7627 2.08022 14.85 2.34213C14.9371 2.60396 14.7954 2.8876 14.5336 2.97495L9.45742 4.667H11.0421C12.0586 4.66707 13.0335 5.07122 13.7523 5.79005C14.4711 6.50891 14.8754 7.4838 14.8754 8.50034V12.5003C14.8752 12.7763 14.6513 13.0002 14.3754 13.0003H13.1221C13.0852 13.0451 13.0463 13.0885 13.0049 13.1299C12.6612 13.4736 12.1949 13.6669 11.7087 13.667C11.2226 13.667 10.7563 13.4735 10.4125 13.1299C10.3712 13.0886 10.3322 13.045 10.2953 13.0003H5.12213C5.08519 13.0451 5.04631 13.0885 5.00494 13.1299C4.66119 13.4736 4.19485 13.6669 3.70872 13.667C3.22261 13.667 2.75628 13.4735 2.41249 13.1299C2.11166 12.8291 1.92555 12.4343 1.88385 12.0147L1.87538 11.8337V8.50034C1.87538 8.2242 2.09924 8.00034 2.37538 8.00034H3.87538V6.52768L2.53359 6.97495C2.27172 7.06223 1.98822 6.92031 1.90078 6.65854C1.81345 6.39657 1.95521 6.11305 2.21718 6.02573L14.2172 2.02573ZM3.70872 11.0003C3.4877 11.0003 3.27581 11.0882 3.11953 11.2445C2.96325 11.4008 2.87538 11.6127 2.87538 11.8337C2.87546 12.0546 2.96331 12.2666 3.11953 12.4229C3.27578 12.579 3.48783 12.667 3.70872 12.667C3.92964 12.6669 4.14169 12.5791 4.29791 12.4229C4.45413 12.2666 4.54198 12.0546 4.54205 11.8337C4.54205 11.6128 4.45402 11.4007 4.29791 11.2445C4.14169 11.0883 3.92964 11.0004 3.70872 11.0003ZM11.7087 11.0003C11.4877 11.0003 11.2758 11.0882 11.1195 11.2445C10.9632 11.4008 10.8754 11.6127 10.8754 11.8337C10.8755 12.0546 10.9633 12.2666 11.1195 12.4229C11.2758 12.579 11.4878 12.667 11.7087 12.667C11.9296 12.6669 12.1417 12.5791 12.2979 12.4229C12.4541 12.2666 12.542 12.0546 12.5421 11.8337C12.5421 11.6128 12.454 11.4007 12.2979 11.2445C12.1417 11.0883 11.9296 11.0004 11.7087 11.0003ZM4.87538 6.19435V8.00034H7.87538V5.19435L4.87538 6.19435ZM11.7478 8.00034H13.8305C13.729 7.43479 13.4571 6.909 13.0453 6.49708C12.5152 5.96702 11.7967 5.66845 11.0473 5.667L11.7478 8.00034Z" fill="#FAFAFA"/>
</svg>
