<svg width="16" height="16" viewBox="0 0 16 16" fill="none" xmlns="http://www.w3.org/2000/svg">
<path fill-rule="evenodd" clip-rule="evenodd" d="M4.50033 1.33325C3.4878 1.33325 2.66699 2.15406 2.66699 3.16659V12.8333C2.66699 13.8458 3.4878 14.6666 4.50033 14.6666H11.5003C12.5128 14.6666 13.3337 13.8458 13.3337 12.8333V3.16659C13.3337 2.15406 12.5128 1.33325 11.5003 1.33325H4.50033ZM3.66699 12.6666V12.8333C3.66699 13.2935 4.04009 13.6666 4.50033 13.6666H11.5003C11.9606 13.6666 12.3337 13.2935 12.3337 12.8333V11.4667C12.0836 11.5945 11.8004 11.6666 11.5003 11.6666H4.66699C4.11471 11.6666 3.66699 12.1143 3.66699 12.6666ZM5.83366 4.16659C5.55752 4.16659 5.33366 4.39044 5.33366 4.66658C5.33366 4.94273 5.55752 5.16658 5.83366 5.16658H10.167C10.4431 5.16658 10.667 4.94273 10.667 4.66658C10.667 4.39044 10.4431 4.16659 10.167 4.16659H5.83366ZM5.33366 7.33325C5.33366 7.05711 5.55752 6.83325 5.83366 6.83325H8.16699C8.44313 6.83325 8.66699 7.05711 8.66699 7.33325C8.66699 7.60939 8.44313 7.83325 8.16699 7.83325H5.83366C5.55752 7.83325 5.33366 7.60939 5.33366 7.33325Z" fill="#FAFAFA"/>
</svg>
