<svg width="16" height="16" viewBox="0 0 16 16" fill="none" xmlns="http://www.w3.org/2000/svg">
<path fill-rule="evenodd" clip-rule="evenodd" d="M11.3842 1.82959C12.1602 1.82962 12.8311 2.04838 13.2995 2.58089C13.7477 3.09027 13.9088 3.77475 13.9402 4.48258C13.9647 5.03476 13.9972 5.59831 14.0306 6.17204C14.1169 7.65371 14.207 9.8083 14.1563 11.2931C14.1568 11.3202 14.157 11.3474 14.157 11.3745C14.1569 12.1733 13.9337 12.8951 13.4187 13.4175C12.9021 13.9413 12.1848 14.1701 11.39 14.1701C10.5954 14.17 9.87847 13.9412 9.36203 13.4175C8.84797 12.8961 8.62463 12.176 8.62375 11.3791C8.5813 10.3918 8.60234 9.17693 8.64653 8.02555C9.06745 8.1252 9.50565 8.32302 9.96945 8.63298C10.2318 8.80835 10.587 8.7378 10.7624 8.47542C10.9376 8.21309 10.8671 7.85848 10.6049 7.68311C9.89775 7.21047 9.17858 6.91633 8.44015 6.83089C8.28467 6.79365 8.13975 6.77751 8.00396 6.77751C7.87502 6.77751 7.7378 6.79171 7.5912 6.82503C6.8352 6.90275 6.09945 7.1998 5.37635 7.68311C5.11418 7.85848 5.04361 8.21312 5.2188 8.47542C5.39417 8.7378 5.7494 8.80835 6.01177 8.63298C6.48275 8.31821 6.92732 8.11912 7.35422 8.021C7.39874 9.1791 7.41965 10.4018 7.37635 11.3927C7.37293 12.1843 7.14921 12.8991 6.63807 13.4175C6.12158 13.9412 5.40477 14.1701 4.61008 14.1701C3.81539 14.1701 3.09857 13.9412 2.58208 13.4175C2.06702 12.8951 1.84384 12.1733 1.8438 11.3745C1.8438 11.3439 1.84379 11.3132 1.84445 11.2827C1.79451 9.79821 1.88403 7.65028 1.9701 6.17204C2.00351 5.59831 2.03613 5.03476 2.0606 4.48258C2.09196 3.77478 2.25316 3.09026 2.70122 2.58089C3.16972 2.04833 3.84106 1.82959 4.61724 1.82959C5.39331 1.82963 6.06415 2.04839 6.5326 2.58089C6.90288 3.00179 7.07687 3.5423 7.14393 4.1167C7.42493 4.06294 7.71178 4.03467 8.00396 4.03467C8.29372 4.03467 8.57804 4.06249 8.85682 4.1154C8.92399 3.5415 9.0982 3.00147 9.46815 2.58089C9.93665 2.04833 10.608 1.82959 11.3842 1.82959ZM4.61008 9.95003C4.50206 9.95003 4.40265 9.95564 4.31125 9.96696C3.95873 10.0107 3.72516 10.1324 3.57297 10.2801C3.38166 10.4658 3.22986 10.7798 3.21619 11.299L3.21554 11.3101C3.21509 11.3312 3.21489 11.3528 3.21489 11.3745C3.21493 11.9261 3.36628 12.2595 3.55864 12.4546C3.74966 12.6482 4.0732 12.799 4.61008 12.799C5.14695 12.799 5.4705 12.6482 5.66151 12.4546C5.85387 12.2595 6.00522 11.9261 6.00526 11.3745C6.00526 10.8229 5.85386 10.4896 5.66151 10.2944C5.47051 10.1007 5.14708 9.95003 4.61008 9.95003ZM11.2247 9.95459C10.7856 9.98243 10.5097 10.1216 10.3392 10.2944C10.1469 10.4896 9.99549 10.823 9.99549 11.3745C9.99549 11.3821 9.99574 11.3898 9.99549 11.3973C9.99964 11.9352 10.1489 12.2622 10.3386 12.4546C10.5296 12.6482 10.8532 12.7989 11.39 12.799C11.9271 12.799 12.2511 12.6482 12.4421 12.4546C12.6344 12.2595 12.7852 11.926 12.7852 11.3745C12.7852 10.8231 12.6344 10.4896 12.4421 10.2944C12.2511 10.1007 11.9271 9.95003 11.39 9.95003C11.3325 9.95004 11.2773 9.95126 11.2247 9.95459Z" fill="#FAFAFA"/>
</svg>
