<svg width="16" height="16" viewBox="0 0 16 16" fill="none" xmlns="http://www.w3.org/2000/svg">
<path fill-rule="evenodd" clip-rule="evenodd" d="M13.0752 10.8678C12.88 10.6725 12.5634 10.6725 12.3681 10.8678L10.555 12.6809V5.22135C10.555 3.47245 9.13725 2.05469 7.38835 2.05469H3.22168C2.94554 2.05469 2.72168 2.27855 2.72168 2.55469C2.72168 2.83083 2.94554 3.05469 3.22168 3.05469H7.38835C8.58496 3.05469 9.55501 4.02474 9.55501 5.22135V12.6809L7.7419 10.8678C7.54664 10.6725 7.23005 10.6725 7.03479 10.8678C6.83953 11.0631 6.83953 11.3796 7.03479 11.5749L9.23005 13.7702C9.68567 14.2258 10.4244 14.2258 10.88 13.7702L13.0752 11.5749C13.2705 11.3796 13.2705 11.0631 13.0752 10.8678Z" fill="#FAFAFA"/>
</svg>
