<svg width="16" height="16" viewBox="0 0 16 16" fill="none" xmlns="http://www.w3.org/2000/svg">
<path fill-rule="evenodd" clip-rule="evenodd" d="M14.1663 2.6665C14.4425 2.6665 14.6663 2.89036 14.6663 3.1665V12.8332C14.6663 13.1093 14.4425 13.3332 14.1663 13.3332C13.8902 13.3332 13.6663 13.1093 13.6663 12.8332V3.1665C13.6663 2.89036 13.8902 2.6665 14.1663 2.6665ZM8.47945 4.81295C8.67472 4.61769 8.9913 4.61769 9.18656 4.81295L11.5485 7.17487C12.0041 7.63048 12.0041 8.36917 11.5485 8.82478L9.18656 11.1867C8.9913 11.382 8.67472 11.382 8.47945 11.1867C8.28419 10.9915 8.28419 10.6749 8.47945 10.4796L10.4592 8.49983H1.83301C1.55687 8.49983 1.33301 8.27597 1.33301 7.99983C1.33301 7.72368 1.55687 7.49983 1.83301 7.49983H10.4592L8.47945 5.52006C8.28419 5.3248 8.28419 5.00821 8.47945 4.81295Z" fill="#FAFAFA"/>
</svg>
