<svg width="16" height="16" viewBox="0 0 16 16" fill="none" xmlns="http://www.w3.org/2000/svg">
<path fill-rule="evenodd" clip-rule="evenodd" d="M7.99967 2.3335C4.87006 2.3335 2.33301 4.87055 2.33301 8.00016C2.33301 11.1298 4.87006 13.6668 7.99967 13.6668C11.1293 13.6668 13.6663 11.1298 13.6663 8.00016C13.6663 4.87055 11.1293 2.3335 7.99967 2.3335ZM1.33301 8.00016C1.33301 4.31826 4.31778 1.3335 7.99967 1.3335C11.6816 1.3335 14.6663 4.31826 14.6663 8.00016C14.6663 11.6821 11.6816 14.6668 7.99967 14.6668C4.31778 14.6668 1.33301 11.6821 1.33301 8.00016ZM8.49967 6.37394L9.81279 7.68705C10.008 7.88231 10.3246 7.88231 10.5199 7.68705C10.7152 7.49179 10.7152 7.1752 10.5199 6.97994L8.82463 5.28468C8.36902 4.82907 7.63033 4.82907 7.17472 5.28468L5.47945 6.97994C5.28419 7.1752 5.28419 7.49179 5.47945 7.68705C5.67472 7.88231 5.9913 7.88231 6.18656 7.68705L7.49967 6.37394V10.8335C7.49967 11.1096 7.72353 11.3335 7.99967 11.3335C8.27582 11.3335 8.49967 11.1096 8.49967 10.8335V6.37394Z" fill="#FAFAFA"/>
</svg>
