<svg width="16" height="16" viewBox="0 0 16 16" fill="none" xmlns="http://www.w3.org/2000/svg">
<path d="M11.915 2.83984C12.2329 2.87147 12.5319 3.01237 12.7598 3.24023L12.8525 3.3418C13.0548 3.58877 13.1669 3.89953 13.167 4.22168V13.1113C13.1669 13.4795 13.0201 13.8324 12.7598 14.0928C12.4995 14.3531 12.1465 14.4999 11.7783 14.5H4.22168C3.89949 14.4999 3.58877 14.3879 3.3418 14.1855L3.24023 14.0928C2.9799 13.8324 2.83309 13.4795 2.83301 13.1113V4.22168C2.83313 3.85351 2.97993 3.50058 3.24023 3.24023L3.3418 3.14746C3.58879 2.9451 3.89957 2.83314 4.22168 2.83301C4.49774 2.83301 4.72155 3.05698 4.72168 3.33301C4.72168 3.60915 4.49782 3.83301 4.22168 3.83301C4.14466 3.83312 4.07004 3.85638 4.00684 3.89844L3.94727 3.94727C3.87448 4.02009 3.83313 4.11874 3.83301 4.22168V13.1113C3.83309 13.2143 3.87454 13.313 3.94727 13.3857L4.00684 13.4346C4.07008 13.4767 4.14466 13.4999 4.22168 13.5H11.7783C11.8812 13.4999 11.9799 13.4585 12.0527 13.3857C12.1255 13.3129 12.1669 13.2143 12.167 13.1113V4.22168C12.1669 4.14469 12.1436 4.07008 12.1016 4.00684L12.0527 3.94727C11.9982 3.89271 11.9291 3.85582 11.8545 3.84082L11.7783 3.83301L11.7266 3.83105C11.4745 3.80541 11.2783 3.59186 11.2783 3.33301C11.2785 3.05698 11.5023 2.83301 11.7783 2.83301L11.915 2.83984Z" fill="#FAFAFA"/>
<path d="M9.60938 7.02051C9.78188 6.8052 10.097 6.77013 10.3125 6.94238C10.528 7.11481 10.5629 7.42988 10.3906 7.64551L7.72363 10.9795C7.58492 11.1526 7.3515 11.211 7.15137 11.1328L7.06836 11.0908L5.73535 10.2568L5.69238 10.2275C5.4927 10.0721 5.43912 9.78765 5.57617 9.56836C5.71327 9.34918 5.99253 9.27241 6.21973 9.38379L6.26465 9.40918L7.21973 10.0068L9.60938 7.02051Z" fill="#FAFAFA"/>
<path fill-rule="evenodd" clip-rule="evenodd" d="M9.2002 1.5C9.61353 1.50012 9.94928 1.72512 10.165 2.0127C10.3807 2.30021 10.4999 2.67425 10.5 3.06641V3.60059C10.4999 3.99265 10.3806 4.36685 10.165 4.6543C9.94928 4.9418 9.61346 5.16687 9.2002 5.16699H6.7998C6.38654 5.16687 6.05072 4.9418 5.83496 4.6543C5.61938 4.36685 5.50012 3.99265 5.5 3.60059V3.06641C5.50005 2.67425 5.61934 2.30021 5.83496 2.0127C6.05072 1.72512 6.38647 1.50012 6.7998 1.5H9.2002ZM6.7998 2.5C6.7714 2.50011 6.70723 2.51441 6.63379 2.6123C6.56005 2.71075 6.50005 2.86985 6.5 3.06641V3.60059C6.50012 3.79674 6.56021 3.95529 6.63379 4.05371C6.70725 4.15166 6.7714 4.16688 6.7998 4.16699H9.2002C9.2286 4.16688 9.29275 4.15166 9.36621 4.05371C9.43979 3.95529 9.49988 3.79674 9.5 3.60059V3.06641C9.49995 2.86985 9.43995 2.71075 9.36621 2.6123C9.29277 2.51441 9.2286 2.50011 9.2002 2.5H6.7998Z" fill="#FAFAFA"/>
</svg>
