<svg width="16" height="16" viewBox="0 0 16 16" fill="none" xmlns="http://www.w3.org/2000/svg">
<path fill-rule="evenodd" clip-rule="evenodd" d="M6.70236 1.96564C6.90273 1.57669 7.30416 1.33325 7.74031 1.33325C8.86381 1.33325 9.72845 2.33573 9.55487 3.44901L9.26109 5.33325H12.1723C13.7029 5.33325 14.8741 6.69621 14.6439 8.20936L14.0859 11.876C13.9 13.0974 12.8498 13.9999 11.6143 13.9999H2.49967C1.85534 13.9999 1.33301 13.4776 1.33301 12.8333V7.83325C1.33301 7.18892 1.85534 6.66659 2.49967 6.66659H4.28066L6.70236 1.96564ZM3.99967 7.66659H2.49967C2.40763 7.66659 2.33301 7.7412 2.33301 7.83325V12.8333C2.33301 12.9253 2.40763 12.9999 2.49967 12.9999H3.99967V7.66659ZM4.99967 12.9999H11.6143C12.3556 12.9999 12.9857 12.4584 13.0973 11.7256L13.6552 8.05892C13.7934 7.15103 13.0906 6.33325 12.1723 6.33325H8.67709C8.53103 6.33325 8.39227 6.26939 8.29728 6.15843C8.20229 6.04748 8.16056 5.90054 8.18306 5.75623L8.56681 3.29496C8.64534 2.79125 8.25335 2.33325 7.74031 2.33325C7.67722 2.33325 7.61961 2.36872 7.59134 2.42359L4.99967 7.45447V12.9999Z" fill="#FAFAFA"/>
</svg>
