<svg width="16" height="16" viewBox="0 0 16 16" fill="none" xmlns="http://www.w3.org/2000/svg">
<path d="M10 13.5C10.2761 13.5 10.5 13.7239 10.5 14C10.5 14.2761 10.2761 14.5 10 14.5H6C5.72386 14.5 5.5 14.2761 5.5 14C5.5 13.7239 5.72386 13.5 6 13.5H10Z" fill="#FAFAFA"/>
<path fill-rule="evenodd" clip-rule="evenodd" d="M8 1.5C9.32575 1.50009 10.5976 2.02654 11.5352 2.96387C12.4728 3.90155 13 5.17392 13 6.5C13 8.54755 13.448 10.1727 13.7959 10.8721L13.8633 10.999L13.8643 11L13.9219 11.1172C13.9718 11.2378 13.9979 11.3677 13.998 11.499C13.9982 11.6742 13.9525 11.8472 13.8652 11.999C13.7779 12.1508 13.6514 12.2763 13.5 12.3643C13.3486 12.4522 13.177 12.4993 13.002 12.5H2.99707C2.82213 12.4989 2.65016 12.4524 2.49902 12.3643C2.34784 12.2761 2.22182 12.1489 2.13477 11.9971C2.04799 11.8455 2.00276 11.6737 2.00293 11.499C2.0032 11.324 2.04925 11.1515 2.13672 11L2.20508 10.8721C2.55253 10.1724 3 8.54678 3 6.5C3 5.17392 3.52716 3.90155 4.46484 2.96387C5.40242 2.02657 6.67426 1.50007 8 1.5ZM8 2.5C6.9393 2.50007 5.92195 2.92189 5.17188 3.67188C4.42181 4.42201 4 5.43919 4 6.5C4 8.64913 3.53686 10.4484 3.0918 11.335L3.00293 11.5H12.998C12.5275 10.6866 12 8.79281 12 6.5C12 5.43923 11.5781 4.422 10.8281 3.67188C10.0781 2.92191 9.06067 2.50009 8 2.5Z" fill="#FAFAFA"/>
</svg>
