<svg width="16" height="16" viewBox="0 0 16 16" fill="none" xmlns="http://www.w3.org/2000/svg">
<path d="M7.52405 8.00065C7.52864 8.00087 7.53314 8.00225 7.53772 8.0026L7.55074 8.00326C7.5569 8.00388 7.56288 8.00566 7.56897 8.00651C7.5905 8.00952 7.61171 8.01372 7.63278 8.01953C7.64275 8.02229 7.65235 8.02594 7.66207 8.0293C7.68021 8.03554 7.698 8.0424 7.71546 8.05078C7.72618 8.05595 7.73642 8.06182 7.74671 8.06771C7.7629 8.07697 7.77894 8.08644 7.79423 8.09766C7.80333 8.10433 7.81166 8.11188 7.82028 8.11914C7.83115 8.12831 7.84324 8.13624 7.85348 8.14648C7.85741 8.15042 7.86012 8.15548 7.86389 8.15951C7.87085 8.16694 7.87693 8.17509 7.88343 8.18294C7.89666 8.19891 7.90959 8.21465 7.92054 8.23177C7.92529 8.23921 7.92854 8.24751 7.93291 8.25521C7.9436 8.27409 7.95416 8.29266 7.9622 8.3125C7.9653 8.32012 7.96729 8.32814 7.97001 8.33594C7.97766 8.35785 7.98439 8.37976 7.98889 8.40234C7.98996 8.40769 7.98995 8.41321 7.99085 8.41862C7.99494 8.44331 7.99763 8.46788 7.99801 8.49284C7.99805 8.49544 7.99931 8.49804 7.99931 8.50065L7.99996 12.5C7.99996 12.7761 7.77606 12.9999 7.49996 13C7.22386 13 7.00001 12.7761 6.99996 12.5L6.99931 9.70703L2.85348 13.8535C2.65822 14.0488 2.34171 14.0488 2.14645 13.8535C1.95118 13.6583 1.95118 13.3417 2.14645 13.1465L6.29293 9H3.49996L3.44853 8.9974C3.19654 8.97165 2.99996 8.75877 2.99996 8.5C3.00001 8.22388 3.22386 8 3.49996 8L7.52405 8.00065Z" fill="#FAFAFA"/>
<path d="M13 2C13.2652 2.00001 13.5195 2.10544 13.707 2.29297C13.8945 2.4805 14 2.7348 14 3V11C14 11.2652 13.8945 11.5195 13.707 11.707C13.5195 11.8946 13.2652 12 13 12H9.99996C9.72382 12 9.49996 11.7761 9.49996 11.5C9.49996 11.2239 9.72382 11 9.99996 11H13V3H4.99996V6C4.99996 6.27613 4.77608 6.49997 4.49996 6.5C4.22382 6.5 3.99996 6.27614 3.99996 6V3C3.99996 2.73478 4.10539 2.4805 4.29293 2.29297C4.48046 2.10545 4.73476 2 4.99996 2H13Z" fill="#FAFAFA"/>
</svg>
