<svg width="16" height="16" viewBox="0 0 16 16" fill="none" xmlns="http://www.w3.org/2000/svg">
<path fill-rule="evenodd" clip-rule="evenodd" d="M5.94524 3.45706C5.69846 3.01263 5.16959 2.8763 4.76326 3.12023C4.34483 3.37142 4.18752 3.94477 4.44025 4.39992L6.50075 8.11078C6.59358 8.27796 6.58293 8.48345 6.4733 8.64014C6.36368 8.79682 6.17428 8.87726 5.98541 8.84735L5.16955 8.71815C4.712 8.64569 4.25413 8.97153 4.17764 9.49374L4.09961 10.0264L7.55443 12.2922C8.94088 13.2015 10.6941 13.2369 12.1129 12.3852C14.23 11.1143 14.9693 8.28247 13.7359 6.06111L13.1077 4.92978C12.6712 4.14376 11.7223 3.89041 10.9875 4.33154L8.01339 6.11693C7.89718 6.18669 7.75764 6.20628 7.62671 6.17123C7.49579 6.13617 7.38471 6.04946 7.31891 5.93097L5.94524 3.45706ZM4.24857 2.26285C5.15626 1.71795 6.30763 2.04975 6.81951 2.97162L7.94211 4.99337L10.4728 3.47417C11.709 2.73206 13.2804 3.18089 13.9819 4.44433L13.5723 4.67177L13.9819 4.44433L14.6101 5.57566C16.0968 8.25302 15.2219 11.6852 12.6276 13.2425C10.8792 14.2922 8.71284 14.2478 7.00601 13.1284L3.28445 10.6877C3.12177 10.581 3.03574 10.3896 3.06394 10.1971L3.1882 9.34881C3.3308 8.37527 4.17021 7.65843 5.13449 7.71017L3.56599 4.88537C3.06006 3.97422 3.35298 2.80049 4.24857 2.26285ZM1.688 4.61134C1.94577 4.71039 2.07444 4.99964 1.97539 5.25741C1.56419 6.32754 1.56419 7.2661 1.97539 8.33623C2.07444 8.594 1.94577 8.88325 1.688 8.9823C1.43023 9.08135 1.14098 8.95268 1.04193 8.69491C0.542013 7.39389 0.542013 6.19975 1.04193 4.89873C1.14098 4.64096 1.43023 4.51229 1.688 4.61134Z" fill="#FAFAFA"/>
</svg>
