<svg width="16" height="16" viewBox="0 0 16 16" fill="none" xmlns="http://www.w3.org/2000/svg">
<path d="M4.86068 5.58628C5.11291 5.61179 5.3099 5.82472 5.3099 6.08368C5.30974 6.3425 5.11281 6.55558 4.86068 6.58107L4.8099 6.58368H4.80339C4.52742 6.58359 4.30355 6.35963 4.30339 6.08368C4.30339 5.80759 4.52732 5.58377 4.80339 5.58368H4.8099L4.86068 5.58628Z" fill="#FAFAFA"/>
<path fill-rule="evenodd" clip-rule="evenodd" d="M4.52734 2.38902C4.83712 2.41153 5.13973 2.49449 5.41732 2.63381L11.4837 5.67027L11.582 5.72561C11.8034 5.86535 11.9712 6.07793 12.0547 6.32847C12.1382 6.57905 12.1317 6.8501 12.0384 7.09475L11.9928 7.19761L11.8411 7.50035H13.3535L13.498 7.50946C13.6415 7.52792 13.7805 7.57401 13.9076 7.64488C14.077 7.73943 14.2196 7.87564 14.3216 8.04071C14.4235 8.20575 14.4815 8.39445 14.4902 8.58824C14.4989 8.78181 14.4583 8.97477 14.3717 9.14813L13.0716 11.7477C12.9838 11.923 12.8521 12.0738 12.6895 12.1833C12.5267 12.2928 12.3381 12.3587 12.1426 12.374C11.947 12.3893 11.7501 12.354 11.5723 12.2712C11.3944 12.1883 11.2404 12.0604 11.1263 11.9007L10.252 10.6781L10.0085 11.1657C9.94157 11.2994 9.84863 11.4193 9.73568 11.5173C9.62276 11.6151 9.49134 11.6901 9.34961 11.7373C9.20783 11.7845 9.0579 11.8033 8.90885 11.7927C8.79705 11.7847 8.68698 11.7603 8.58268 11.7204L8.47982 11.6748L6.30664 10.5869L5.60938 11.9919L5.60807 11.9945C5.45898 12.2903 5.22993 12.5392 4.94727 12.7119C4.66568 12.8839 4.34164 12.9733 4.01172 12.9717L2.10938 12.9724V13.7497C2.10938 14.0258 1.88544 14.2496 1.60938 14.2497C1.33323 14.2497 1.10938 14.0258 1.10938 13.7497V11.1944C1.10947 10.9183 1.33329 10.6944 1.60938 10.6944C1.88538 10.6944 2.10928 10.9184 2.10938 11.1944V11.9724H4.01497L4.12305 11.9658C4.22992 11.9516 4.3331 11.915 4.42578 11.8584C4.54942 11.7829 4.64962 11.674 4.71484 11.5446L5.41211 10.139L2.41276 8.63837C1.85412 8.35697 1.42982 7.86537 1.23242 7.27183C1.03518 6.67841 1.08064 6.03082 1.35938 5.47105L2.24089 3.6898L2.24154 3.68719C2.3808 3.40969 2.57378 3.16181 2.80859 2.95868C3.04348 2.75557 3.31661 2.60076 3.61133 2.50295C3.90611 2.40519 4.21759 2.36656 4.52734 2.38902ZM10.7578 9.66571L11.9401 11.3194L11.9642 11.3454C11.9734 11.353 11.9839 11.3592 11.9948 11.3643C12.0163 11.3743 12.0402 11.379 12.0638 11.3773C12.0875 11.3754 12.1111 11.3671 12.1309 11.3539C12.1506 11.3406 12.167 11.3217 12.1777 11.3005L13.4766 8.70152L13.4883 8.66831C13.4907 8.6569 13.492 8.64491 13.4915 8.63316C13.4905 8.60956 13.4831 8.58621 13.4707 8.5661C13.4583 8.54609 13.4411 8.52942 13.4206 8.51792C13.4102 8.51214 13.3988 8.50785 13.3874 8.5049L13.3529 8.50035H11.3411L10.7578 9.66571ZM4.45508 3.38641C4.27626 3.37344 4.09661 3.39573 3.92643 3.45217C3.75628 3.50863 3.5985 3.59793 3.46289 3.71519C3.32736 3.83245 3.21579 3.97558 3.13542 4.13576L2.25521 5.91571L2.25456 5.91701C2.09371 6.24015 2.0671 6.61419 2.18099 6.95673C2.2948 7.29881 2.53956 7.58196 2.86133 7.74449L8.92773 10.7809L8.95312 10.7907C8.96178 10.7931 8.97082 10.7946 8.97982 10.7953C8.99794 10.7966 9.01661 10.7938 9.03385 10.7881C9.051 10.7824 9.06704 10.7732 9.08073 10.7614C9.09443 10.7495 9.10578 10.7347 9.11393 10.7184L11.0983 6.75035C11.1145 6.71759 11.1176 6.67959 11.1061 6.64488C11.0974 6.61866 11.0808 6.59584 11.0592 6.57912L11.0365 6.5648L4.9694 3.52769C4.80914 3.44725 4.63392 3.39941 4.45508 3.38641Z" fill="#FAFAFA"/>
</svg>
