<svg width="16" height="16" viewBox="0 0 16 16" fill="none" xmlns="http://www.w3.org/2000/svg">
<path fill-rule="evenodd" clip-rule="evenodd" d="M4.49967 2.33325C4.03944 2.33325 3.66634 2.70635 3.66634 3.16659V7.23554L7.74259 8.55757C7.90969 8.61176 8.08965 8.61176 8.25676 8.55757L12.333 7.23554V3.16659C12.333 2.70635 11.9599 2.33325 11.4997 2.33325H4.49967ZM13.333 6.92852V3.16659C13.333 2.15406 12.5122 1.33325 11.4997 1.33325H4.49967C3.48715 1.33325 2.66634 2.15406 2.66634 3.16659V6.92852C1.97939 6.82722 1.33301 7.35907 1.33301 8.08365V12.1666C1.33301 13.1791 2.15382 13.9999 3.16634 13.9999H12.833C13.8455 13.9999 14.6663 13.1791 14.6663 12.1666V8.08365C14.6663 7.35907 14.02 6.82722 13.333 6.92852ZM5.99967 5.16659C5.99967 4.89044 6.22353 4.66659 6.49967 4.66659H9.49967C9.77582 4.66659 9.99967 4.89044 9.99967 5.16659C9.99967 5.44273 9.77582 5.66659 9.49967 5.66659H6.49967C6.22353 5.66659 5.99967 5.44273 5.99967 5.16659ZM2.55109 7.92512C2.44342 7.8902 2.33301 7.97046 2.33301 8.08365V12.1666C2.33301 12.6268 2.7061 12.9999 3.16634 12.9999H12.833C13.2932 12.9999 13.6663 12.6268 13.6663 12.1666V8.08365C13.6663 7.97046 13.5559 7.8902 13.4483 7.92512L8.56527 9.50879C8.19763 9.62802 7.80172 9.62802 7.43408 9.50879L2.55109 7.92512Z" fill="#FAFAFA"/>
</svg>
