<svg width="16" height="16" viewBox="0 0 16 16" fill="none" xmlns="http://www.w3.org/2000/svg">
<path d="M7.53418 11.001C7.90196 11.0013 8.201 11.2992 8.20117 11.667C8.20091 12.0347 7.90191 12.3336 7.53418 12.334C7.16615 12.334 6.86745 12.035 6.86719 11.667C6.86736 11.299 7.1661 11.001 7.53418 11.001Z" fill="#FAFAFA"/>
<path d="M7.5 6.667C7.77592 6.66726 8 6.89102 8 7.167V9.83399C7.99956 10.1096 7.77565 10.3337 7.5 10.334C7.22435 10.3337 7.00141 10.1096 7.00098 9.83399V7.167C7.00098 6.89102 7.22408 6.66726 7.5 6.667Z" fill="#FAFAFA"/>
<path fill-rule="evenodd" clip-rule="evenodd" d="M10.4551 2.167C11.1188 2.16699 11.6685 2.16558 12.1025 2.22559C12.5525 2.28781 12.952 2.42434 13.2705 2.75196C13.587 3.07757 13.7168 3.48257 13.7764 3.93848C13.8342 4.38142 13.833 4.94318 13.833 5.62696V9.00782C13.833 9.69828 13.8335 10.4134 13.7783 11.0107C13.7506 11.3102 13.7075 11.5989 13.6367 11.8506C13.5682 12.0942 13.4602 12.3545 13.2705 12.5498C13.0514 12.7751 12.8433 12.9795 12.4541 13.0684C12.3085 13.1016 12.135 13.1167 11.9248 13.125C11.8632 13.631 11.7518 14.0273 11.5439 14.2275L11.4561 14.3047C11.0562 14.6183 10.4538 14.6604 9.40527 14.666L8.88867 14.667H5.77832L5.26074 14.666C4.21245 14.6604 3.6107 14.6183 3.21094 14.3047L3.12207 14.2275C2.7581 13.8763 2.68461 12.923 2.66992 11.833H2.66699C2.39085 11.833 2.16699 11.6092 2.16699 11.333C2.16715 11.0917 2.33794 10.8905 2.56543 10.8438L2.66699 10.833V9.83301L2.56543 9.82325C2.33781 9.77645 2.16699 9.57448 2.16699 9.33301C2.16715 9.09171 2.33794 8.89055 2.56543 8.84375L2.66699 8.83301V7.83301L2.56543 7.82325C2.33781 7.77645 2.16699 7.57448 2.16699 7.33301C2.16717 7.05702 2.39096 6.83301 2.66699 6.83301C2.66765 5.61385 2.68244 4.95015 3.04199 4.52442L3.12207 4.43848C3.3745 4.19535 3.71253 4.08747 4.21289 4.03907C4.22192 3.865 4.23587 3.71755 4.2627 3.59082C4.34593 3.19809 4.53586 2.98427 4.76172 2.75196C5.08014 2.42448 5.47894 2.28783 5.92871 2.22559C6.3628 2.16556 6.91328 2.167 7.57715 2.167H10.4551ZM5.19824 5.00391V5.01075H4.7334C4.52243 5.01743 4.34863 5.02752 4.19922 5.04688C3.88298 5.08786 3.82693 5.1489 3.81641 5.15918C3.8108 5.16425 3.75395 5.20422 3.71387 5.49121C3.68011 5.73339 3.67072 6.0459 3.66797 6.49707L3.66699 6.83301H4L4.05176 6.83594C4.30348 6.86183 4.49983 7.07449 4.5 7.33301C4.5 7.59169 4.3036 7.80518 4.05176 7.83106L4 7.83301H3.66699V8.83301H4L4.05176 8.83594C4.30348 8.86183 4.49983 9.07449 4.5 9.33301C4.5 9.59169 4.3036 9.80518 4.05176 9.83106L4 9.83301H3.66699V10.833H4L4.05176 10.8359C4.30348 10.8618 4.49983 11.0745 4.5 11.333C4.5 11.5917 4.3036 11.8052 4.05176 11.8311L4 11.833H3.67285C3.67814 12.219 3.68845 12.5709 3.71875 12.8779C3.74408 13.1344 3.77845 13.3217 3.81641 13.4482C3.8279 13.4865 3.8396 13.5125 3.84668 13.5293C3.88802 13.5534 3.98227 13.592 4.19922 13.6201C4.54361 13.6647 5.01779 13.667 5.77832 13.667H8.88867C9.64922 13.667 10.1234 13.6647 10.4678 13.6201C10.6837 13.5921 10.7778 13.5534 10.8193 13.5293C10.8264 13.5125 10.839 13.4867 10.8506 13.4482C10.8885 13.3217 10.9229 13.1344 10.9482 12.8779C10.9993 12.3604 11 11.7156 11 10.9941V6.99707C11 6.26171 10.9972 5.81412 10.9521 5.49121C10.9125 5.20706 10.8571 5.1649 10.8506 5.15918C10.8401 5.14889 10.7837 5.08786 10.4678 5.04688C10.1234 5.00227 9.64922 5 8.88867 5H5.77832C5.56334 5 5.37096 5.00264 5.19824 5.00391ZM7.57715 3.167C6.88447 3.167 6.41606 3.16752 6.06641 3.21582C5.7329 3.26194 5.5815 3.34246 5.47852 3.44825C5.28318 3.64916 5.26238 3.69334 5.24023 3.79785C5.22868 3.85245 5.2209 3.91768 5.21484 4.00098C5.23005 4.00088 5.24535 4.00106 5.26074 4.00098L5.77832 4H8.88867L9.40527 4.00098C10.5338 4.00698 11.1453 4.05482 11.5439 4.43848C11.9995 4.87741 12 5.58433 12 6.99707V10.9941L11.999 11.5205C11.998 11.7244 11.9942 11.9254 11.9893 12.1201C12.0949 12.1139 12.1706 12.1066 12.2314 12.0928C12.3171 12.0732 12.3517 12.0604 12.5537 11.8525C12.5747 11.8306 12.6251 11.7566 12.6748 11.5801C12.7225 11.4106 12.7582 11.1889 12.7832 10.9189C12.8333 10.3771 12.833 9.71251 12.833 9.00782V5.62696C12.833 4.91554 12.8326 4.43049 12.7852 4.06739C12.7394 3.71752 12.6586 3.55611 12.5537 3.44825C12.4508 3.34242 12.2992 3.26198 11.9658 3.21582C11.6162 3.16751 11.1477 3.167 10.4551 3.167H7.57715Z" fill="#FAFAFA"/>
</svg>
