<svg width="16" height="16" viewBox="0 0 16 16" fill="none" xmlns="http://www.w3.org/2000/svg">
<path fill-rule="evenodd" clip-rule="evenodd" d="M1.99812 8C1.99812 7.72386 2.22198 7.5 2.49812 7.5L7.50015 7.5L7.50015 2.49797C7.50015 2.22183 7.72401 1.99797 8.00015 1.99797C8.2763 1.99797 8.50015 2.22183 8.50015 2.49797V7.5H13.5022C13.7783 7.5 14.0022 7.72386 14.0022 8C14.0022 8.27614 13.7783 8.5 13.5022 8.5H8.50015V13.502C8.50015 13.7782 8.2763 14.002 8.00015 14.002C7.72401 14.002 7.50015 13.7782 7.50015 13.502L7.50015 8.5L2.49812 8.5C2.22198 8.5 1.99812 8.27614 1.99812 8Z" fill="#FAFAFA"/>
</svg>
