<svg width="16" height="16" viewBox="0 0 16 16" fill="none" xmlns="http://www.w3.org/2000/svg">
<path fill-rule="evenodd" clip-rule="evenodd" d="M8.19857 7.3431C8.65633 7.38861 9.08658 7.59114 9.41471 7.91927C9.78979 8.29434 10.0007 8.8029 10.0007 9.33333L9.99088 9.53125C9.94538 9.98901 9.74285 10.4193 9.41471 10.7474L9.26823 10.8802C8.91232 11.1719 8.46484 11.3333 8.00065 11.3333C7.53646 11.3333 7.08899 11.1719 6.73307 10.8802L6.58659 10.7474C6.25846 10.4193 6.05592 9.98901 6.01042 9.53125L6.00065 9.33333C6.00065 8.86915 6.16211 8.42167 6.45378 8.06576L6.58659 7.91927C6.96166 7.5442 7.47022 7.33333 8.00065 7.33333L8.19857 7.3431ZM8.00065 8.33333C7.73543 8.33333 7.48116 8.43877 7.29362 8.6263C7.10608 8.81384 7.00065 9.06812 7.00065 9.33333C7.00065 9.59855 7.10608 9.85283 7.29362 10.0404C7.48116 10.2279 7.73543 10.3333 8.00065 10.3333C8.26587 10.3333 8.52015 10.2279 8.70768 10.0404C8.89522 9.85283 9.00065 9.59855 9.00065 9.33333C9.00065 9.06812 8.89522 8.81384 8.70768 8.6263C8.52015 8.43877 8.26587 8.33333 8.00065 8.33333Z" fill="#FAFAFA"/>
<path fill-rule="evenodd" clip-rule="evenodd" d="M8.00065 1.5C9.01731 1.5 9.99205 1.90416 10.7109 2.62305C11.3109 3.22301 11.6906 4.00132 11.8001 4.83333H12.6673L12.7187 4.83594C12.9707 4.86169 13.1673 5.07456 13.1673 5.33333C13.1673 5.59211 12.9707 5.80498 12.7187 5.83073L12.6673 5.83333H11.834V7.5H12.0007C12.3101 7.5 12.6067 7.623 12.8255 7.8418C13.0443 8.06059 13.1673 8.35725 13.1673 8.66667V10C13.1673 10.3094 13.0443 10.6061 12.8255 10.8249C12.6067 11.0437 12.3101 11.1667 12.0007 11.1667H11.834V13.5H12.6673C12.9435 13.5 13.1673 13.7239 13.1673 14C13.1673 14.2761 12.9435 14.5 12.6673 14.5H3.33398C3.05784 14.5 2.83398 14.2761 2.83398 14C2.83398 13.7239 3.05784 13.5 3.33398 13.5H4.16732V11.1667H4.00065C3.69123 11.1667 3.39457 11.0437 3.17578 10.8249C2.95699 10.6061 2.83398 10.3094 2.83398 10V8.66667C2.83398 8.35725 2.95699 8.06059 3.17578 7.8418C3.39457 7.623 3.69123 7.5 4.00065 7.5H4.16732V5.83333H3.33398C3.05784 5.83333 2.83398 5.60948 2.83398 5.33333C2.83398 5.05719 3.05784 4.83333 3.33398 4.83333H4.20117C4.31073 4.00132 4.6904 3.22301 5.29036 2.62305C6.00925 1.90416 6.98399 1.5 8.00065 1.5ZM5.16732 5.83333V8C5.16732 8.27614 4.94346 8.5 4.66732 8.5H4.00065C3.95645 8.5 3.91407 8.51757 3.88281 8.54883C3.85156 8.58008 3.83398 8.62246 3.83398 8.66667V10C3.83398 10.0442 3.85156 10.0866 3.88281 10.1178C3.91407 10.1491 3.95645 10.1667 4.00065 10.1667H4.66732C4.94346 10.1667 5.16732 10.3905 5.16732 10.6667V13.5H10.834V10.6667C10.834 10.3905 11.0578 10.1667 11.334 10.1667H12.0007C12.0449 10.1667 12.0872 10.1491 12.1185 10.1178C12.1497 10.0866 12.1673 10.0442 12.1673 10V8.66667C12.1673 8.62246 12.1497 8.58008 12.1185 8.54883C12.0872 8.51757 12.0449 8.5 12.0007 8.5H11.334C11.0578 8.5 10.834 8.27614 10.834 8V5.83333H5.16732ZM8.00065 2.5C7.2492 2.5 6.52875 2.79873 5.9974 3.33008C5.58544 3.74203 5.31374 4.26773 5.21224 4.83333H10.7891C10.6876 4.26773 10.4159 3.74203 10.0039 3.33008C9.47255 2.79873 8.7521 2.5 8.00065 2.5Z" fill="#FAFAFA"/>
</svg>
