<svg width="16" height="16" viewBox="0 0 16 16" fill="none" xmlns="http://www.w3.org/2000/svg">
<path fill-rule="evenodd" clip-rule="evenodd" d="M8.71557 3.40744C8.39255 2.86419 7.60602 2.86419 7.28301 3.40744L2.29369 11.7986C1.9634 12.354 2.36371 13.0578 3.00997 13.0578H12.9886C13.6349 13.0578 14.0352 12.354 13.7049 11.7986L8.71557 3.40744ZM9.5751 2.89636L14.5644 11.2875C15.2911 12.5096 14.4104 14.0578 12.9886 14.0578H3.00997C1.58819 14.0578 0.707518 12.5096 1.43415 11.2875L6.42347 2.89636C7.1341 1.70121 8.86447 1.70121 9.5751 2.89636Z" fill="#FAFAFA"/>
<path d="M7.1414 6.40191C7.28997 6.26053 7.51458 6.18658 7.74296 6.24435L7.84127 6.27756L7.8608 6.28667C8.6653 6.67071 9.34491 7.27203 9.82108 8.02235C10.2631 8.66812 10.5001 9.43099 10.5001 10.2125V10.2164C10.4895 11.5741 9.36187 12.5138 8.11926 12.5569L7.99882 12.5582C6.75894 12.543 5.55676 11.6194 5.50858 10.2626L5.50077 10.1376C5.48251 9.51619 5.79036 8.94314 6.24426 8.57248C6.39912 8.43434 6.61768 8.33415 6.86861 8.39344C7.09442 8.44691 7.23019 8.605 7.29374 8.72547H7.29439C7.29701 8.73041 7.30076 8.7349 7.30351 8.7398C7.36202 8.52346 7.37341 8.27786 7.33606 8.0243L7.31588 7.90907C7.26242 7.64194 7.16522 7.38491 7.02811 7.148L7.02877 7.14735C6.85426 6.84938 6.98745 6.54844 7.1414 6.40191ZM8.32499 7.87391V7.87586L8.35038 8.10894C8.38943 8.6635 8.27942 9.28478 7.88033 9.78146L7.87968 9.78211C7.82123 9.85454 7.74779 9.91351 7.66483 9.95464C7.58379 9.99478 7.49519 10.0167 7.40507 10.0204L7.40572 10.021C7.40356 10.0211 7.40137 10.0203 7.39921 10.0204L7.39856 10.021L7.39791 10.0204C7.30573 10.0234 7.21412 10.007 7.12903 9.97157H7.12838C7.04678 9.93744 6.97362 9.88608 6.91223 9.82183L6.91158 9.82313C6.84397 9.7537 6.75945 9.66795 6.6733 9.56792C6.56848 9.71836 6.50781 9.88764 6.50077 10.0543L6.50403 10.163L6.50663 10.2033C6.52018 10.9426 7.19401 11.5482 8.01119 11.5582L8.16288 11.5529C8.91196 11.4933 9.49261 10.9274 9.50012 10.2125L9.49166 9.99566C9.45879 9.56268 9.32806 9.14235 9.10884 8.76584L8.99231 8.58159C8.98859 8.57619 8.98474 8.57021 8.98124 8.56467C8.79413 8.26844 8.56631 8.00161 8.30611 7.7704L8.32499 7.87391Z" fill="#FAFAFA"/>
</svg>
