<svg width="16" height="16" viewBox="0 0 16 16" fill="none" xmlns="http://www.w3.org/2000/svg">
<path d="M6.20443 13.0448C6.48057 13.0448 6.70443 13.2686 6.70443 13.5448V14.0265C6.70425 14.3025 6.48046 14.5265 6.20443 14.5265C5.92839 14.5265 5.7046 14.3025 5.70443 14.0265V13.5448C5.70443 13.2686 5.92828 13.0448 6.20443 13.0448Z" fill="#FAFAFA"/>
<path d="M4.49349 12.3169C4.72759 12.1707 5.0366 12.2418 5.18294 12.4757C5.32912 12.7098 5.25738 13.0182 5.02344 13.1646L4.59505 13.4328C4.3609 13.579 4.05258 13.5074 3.90625 13.2733C3.76012 13.0391 3.83103 12.7308 4.0651 12.5845L4.49349 12.3169Z" fill="#FAFAFA"/>
<path d="M7.10742 12.4445C7.24156 12.2032 7.54575 12.1164 7.78711 12.2505L8.26953 12.5181C8.5106 12.6522 8.59741 12.9565 8.46354 13.1978C8.3295 13.439 8.02517 13.5262 7.78385 13.3924L7.30143 13.1242C7.06014 12.9901 6.97336 12.6858 7.10742 12.4445Z" fill="#FAFAFA"/>
<path d="M8.02604 2.00895C8.30216 2.00898 8.52604 2.23282 8.52604 2.50895V9.58057C8.52596 9.98509 8.36293 10.3791 8.05794 10.6841L6.50456 12.2375C6.30933 12.4326 5.99277 12.4326 5.79753 12.2375C5.60229 12.0422 5.60234 11.7257 5.79753 11.5304L7.35091 9.97705C7.47432 9.85364 7.52596 9.71155 7.52604 9.58057V2.50895C7.52604 2.23281 7.7499 2.00895 8.02604 2.00895Z" fill="#FAFAFA"/>
<path d="M3.83919 10.6229C3.97339 10.3817 4.2776 10.2948 4.51888 10.4289L5.0013 10.6965C5.24239 10.8305 5.32903 11.1349 5.19531 11.3761C5.06125 11.6174 4.75697 11.7047 4.51562 11.5708L4.0332 11.3026C3.7919 11.1684 3.70511 10.8642 3.83919 10.6229Z" fill="#FAFAFA"/>
<path fill-rule="evenodd" clip-rule="evenodd" d="M5.45508 1.47314C6.15961 1.4733 6.75836 2.07199 6.75846 2.77653V3.41976C6.75841 3.71963 6.649 3.99961 6.47005 4.22314C6.64896 4.44666 6.75842 4.72669 6.75846 5.02653V5.66976C6.75837 5.96944 6.64883 6.24905 6.47005 6.47249C6.64914 6.69608 6.75841 6.97652 6.75846 7.27653V7.91976C6.75825 8.62422 6.15954 9.22299 5.45508 9.22314H2.77604C2.07154 9.22304 1.47287 8.62425 1.47266 7.91976V7.27653C1.47271 6.97665 1.58149 6.69603 1.76042 6.47249C1.5818 6.2491 1.47275 5.96931 1.47266 5.66976V5.02653C1.4727 4.72683 1.58168 4.44661 1.76042 4.22314C1.58163 3.99966 1.47271 3.7195 1.47266 3.41976V2.77653C1.47276 2.07196 2.07147 1.47325 2.77604 1.47314H5.45508ZM2.77604 6.97314C2.62375 6.97327 2.47279 7.1242 2.47266 7.27653V7.91976C2.47291 8.072 2.6238 8.22302 2.77604 8.22314H5.45508C5.60729 8.22296 5.75821 8.07197 5.75846 7.91976V7.27653C5.75833 7.12423 5.60734 6.97333 5.45508 6.97314H2.77604ZM2.77604 4.72314C2.62374 4.72327 2.47278 4.87423 2.47266 5.02653V5.66976C2.4729 5.822 2.6238 5.97302 2.77604 5.97314H5.45508C5.60729 5.97296 5.75822 5.82197 5.75846 5.66976V5.02653C5.75834 4.87426 5.60735 4.72333 5.45508 4.72314H2.77604ZM2.77604 2.47314C2.62374 2.47327 2.47278 2.62423 2.47266 2.77653V3.41976C2.4728 3.57205 2.62375 3.72302 2.77604 3.72314H5.45508C5.60734 3.72296 5.75832 3.57202 5.75846 3.41976V2.77653C5.75834 2.62426 5.60735 2.47333 5.45508 2.47314H2.77604Z" fill="#FAFAFA"/>
<path fill-rule="evenodd" clip-rule="evenodd" d="M13.2227 1.47314C13.9272 1.4733 14.5259 2.07199 14.526 2.77653V3.41976C14.526 3.71944 14.4164 3.99905 14.2376 4.22249C14.4167 4.44608 14.526 4.72652 14.526 5.02653V5.66976C14.526 5.96944 14.4164 6.24905 14.2376 6.47249C14.4167 6.69608 14.526 6.97652 14.526 7.27653V7.91976C14.5258 8.62423 13.9271 9.22299 13.2227 9.22314H10.5436C9.8391 9.22304 9.24043 8.62426 9.24023 7.91976V7.27653C9.24028 6.97665 9.34906 6.69603 9.528 6.47249C9.34938 6.2491 9.24032 5.96931 9.24023 5.66976V5.02653C9.24028 4.72665 9.34906 4.44603 9.528 4.22249C9.34938 3.9991 9.24032 3.71931 9.24023 3.41976V2.77653C9.24034 2.07196 9.83905 1.47325 10.5436 1.47314H13.2227ZM10.5436 6.97314C10.3913 6.97327 10.2404 7.12423 10.2402 7.27653V7.91976C10.2405 8.07201 10.3914 8.22302 10.5436 8.22314H13.2227C13.3749 8.22296 13.5258 8.07198 13.526 7.91976V7.27653C13.5259 7.12426 13.3749 6.97333 13.2227 6.97314H10.5436ZM10.5436 4.72314C10.3913 4.72327 10.2404 4.87423 10.2402 5.02653V5.66976C10.2405 5.822 10.3914 5.97302 10.5436 5.97314H13.2227C13.3749 5.97296 13.5258 5.82197 13.526 5.66976V5.02653C13.5259 4.87426 13.3749 4.72333 13.2227 4.72314H10.5436ZM10.5436 2.47314C10.3913 2.47327 10.2404 2.62423 10.2402 2.77653V3.41976C10.2405 3.572 10.3914 3.72302 10.5436 3.72314H13.2227C13.3749 3.72296 13.5258 3.57197 13.526 3.41976V2.77653C13.5259 2.62426 13.3749 2.47333 13.2227 2.47314H10.5436Z" fill="#FAFAFA"/>
</svg>
