<svg width="48" height="48" viewBox="0 0 48 48" fill="none" xmlns="http://www.w3.org/2000/svg">
<path fill-rule="evenodd" clip-rule="evenodd" d="M16.6719 7.18359C17.2383 7.24004 17.7792 7.43878 18.248 7.75586C18.8101 7.37485 19.4773 7.16615 20.166 7.16602H24L24.3379 7.18359C25.1197 7.26128 25.8555 7.60576 26.416 8.16602C26.4979 8.24787 26.574 8.3349 26.6465 8.42383C26.6588 8.41914 26.6712 8.41471 26.6836 8.41016L26.7578 8.38477L27.0137 8.30664L27.1016 8.2832L31.2871 7.26758L31.291 7.26562L31.6328 7.20117C33.3478 6.96123 35.0652 7.98598 35.5449 9.72852L42.627 35.4473L42.6309 35.4609L42.6992 35.7754C42.8227 36.5122 42.7028 37.2735 42.3555 37.9414C42.0079 38.6092 41.4535 39.1431 40.7793 39.4648L40.4824 39.5898C40.4579 39.5988 40.4331 39.6075 40.4082 39.6152L40.1523 39.6934C40.1233 39.7023 40.094 39.7116 40.0645 39.7188L35.8789 40.7344H35.875C34.1657 41.1449 32.3711 40.2543 31.7324 38.6094L31.6211 38.2715L27.416 23V37.416L27.4004 37.7539C27.3227 38.5359 26.9765 39.2714 26.416 39.832C25.8554 40.3926 25.12 40.7387 24.3379 40.8164L24 40.832H20.166C19.4771 40.8319 18.8102 40.6234 18.248 40.2422C17.7791 40.5601 17.2387 40.7599 16.6719 40.8164L16.334 40.832H12.5C11.5942 40.8319 10.7246 40.4725 10.084 39.832C9.52359 39.2715 9.17926 38.5358 9.10156 37.7539L9.08203 37.416V10.582C9.08233 9.67628 9.4435 8.8065 10.084 8.16602C10.7245 7.52588 11.5944 7.16619 12.5 7.16602H16.334L16.6719 7.18359ZM33.2305 32.8223L34.5137 37.4746L34.5449 37.5566C34.6409 37.7397 34.8824 37.8854 35.1699 37.8184L39.3008 36.8145L39.459 36.7676C39.56 36.7273 39.6449 36.6533 39.6953 36.5566C39.7474 36.4564 39.7593 36.3397 39.7305 36.2305L38.4336 31.5215L33.2305 32.8223ZM12.084 37.416L12.0918 37.498C12.1078 37.5779 12.1467 37.6525 12.2051 37.7109C12.283 37.7888 12.3898 37.8319 12.5 37.832H16.334L16.416 37.8242C16.4956 37.808 16.5707 37.7692 16.6289 37.7109C16.7066 37.6329 16.75 37.5262 16.75 37.416V17.834H12.084V37.416ZM19.75 37.416L19.7578 37.498C19.7738 37.5778 19.8129 37.6525 19.8711 37.7109C19.9491 37.7889 20.0557 37.8319 20.166 37.832H24L24.082 37.8242C24.1619 37.8081 24.2364 37.7694 24.2949 37.7109C24.3533 37.6525 24.3922 37.5779 24.4082 37.498L24.416 37.416V33.166H19.75V37.416ZM31.9922 10.1836L31.9902 10.1816L27.8633 11.1836L27.707 11.2305C27.6056 11.2707 27.5212 11.3464 27.4707 11.4434C27.4186 11.5439 27.4065 11.6621 27.4355 11.7715L28.7305 16.4785L33.9316 15.1797L32.6523 10.5254C32.5923 10.307 32.3231 10.1043 31.9922 10.1836ZM20.166 10.166C20.0559 10.1662 19.9491 10.2093 19.8711 10.2871C19.7932 10.365 19.7503 10.4719 19.75 10.582V14.9414H24.416V10.582C24.4157 10.4719 24.3728 10.365 24.2949 10.2871C24.2365 10.2289 24.1617 10.1898 24.082 10.1738L24 10.166H20.166Z" fill="#FAFAFA"/>
</svg>
