<svg width="48" height="48" viewBox="0 0 48 48" fill="none" xmlns="http://www.w3.org/2000/svg">
<path fill-rule="evenodd" clip-rule="evenodd" d="M22.5469 32.0233C22.6246 32.0255 22.7011 32.047 22.7695 32.0839C22.8379 32.1207 22.8969 32.1726 22.9414 32.2362C22.986 32.2999 23.0161 32.3741 23.0273 32.4511C23.0383 32.5277 23.0303 32.6061 23.0059 32.6796C22.6801 33.6707 22.6501 34.6115 23.0098 35.4843C23.1668 35.4857 23.3236 35.5112 23.4727 35.5604C23.8458 34.8395 24.4328 34.2227 25.2168 33.7264C25.4981 33.5479 25.8336 33.473 26.1641 33.5155C26.4946 33.5581 26.8004 33.7148 27.0273 33.9589C27.6872 34.6701 28.0039 35.5331 27.9766 36.5468C27.9744 36.6245 27.9529 36.701 27.916 36.7694C27.8792 36.8378 27.8272 36.8967 27.7637 36.9413C27.7 36.9859 27.6258 37.016 27.5488 37.0272C27.4721 37.0383 27.3939 37.0302 27.3203 37.0057C26.3291 36.68 25.3884 36.6499 24.5156 37.0097C24.5141 37.1664 24.4885 37.3217 24.4395 37.4706C25.1604 37.8445 25.7779 38.4328 26.2734 39.2167C26.452 39.498 26.5269 39.8335 26.4844 40.1639C26.4418 40.4944 26.285 40.8003 26.041 41.0272C25.3298 41.6871 24.4667 42.0037 23.4531 41.9764C23.3755 41.9743 23.2989 41.9527 23.2305 41.9159C23.1622 41.8791 23.1031 41.827 23.0586 41.7636C23.014 41.6999 22.9839 41.6257 22.9727 41.5487C22.9616 41.472 22.9696 41.3938 22.9941 41.3202C23.3199 40.329 23.35 39.3883 22.9902 38.5155C22.8331 38.5141 22.6765 38.4886 22.5273 38.4393C22.1543 39.1602 21.5671 39.7771 20.7832 40.2733C20.502 40.4518 20.1663 40.5267 19.8359 40.4843C19.5055 40.4417 19.1995 40.2848 18.9727 40.0409C18.3127 39.3297 17.9962 38.4666 18.0234 37.453C18.0256 37.3753 18.0472 37.2988 18.084 37.2304C18.1208 37.162 18.1727 37.1031 18.2363 37.0585C18.3 37.0139 18.3742 36.9837 18.4512 36.9725C18.5278 36.9615 18.6062 36.9696 18.6797 36.994C19.6707 37.3197 20.6117 37.3498 21.4844 36.9901C21.4858 36.8331 21.5114 36.6763 21.5605 36.5272C20.8397 36.1534 20.222 35.5667 19.7266 34.7831C19.5481 34.5019 19.4732 34.1662 19.5156 33.8358C19.5582 33.5053 19.715 33.1995 19.959 32.9725C20.6703 32.3125 21.5331 31.996 22.5469 32.0233ZM23.1289 36.2753C22.9855 36.2498 22.8366 36.2656 22.7031 36.3241C22.5245 36.4028 22.3854 36.5505 22.3145 36.7323C22.2436 36.9139 22.2464 37.1161 22.3242 37.2948C22.3827 37.4282 22.4807 37.5426 22.6035 37.621C22.7262 37.6992 22.8701 37.7392 23.0156 37.7362C23.1611 37.7331 23.3026 37.6867 23.4219 37.6034C23.5411 37.52 23.6326 37.403 23.6855 37.2675C23.7385 37.1319 23.75 36.9838 23.7188 36.8417C23.6874 36.6995 23.6148 36.5695 23.5098 36.4686C23.4048 36.3679 23.2722 36.3008 23.1289 36.2753Z" fill="#FAFAFA"/>
<path d="M10.9004 24.4999C10.9006 27.2612 13.1391 29.4999 15.9004 29.4999C18.6617 29.4999 20.9002 27.2612 20.9004 24.4999V18.4999H24.9004V24.4999C24.9006 27.2612 27.1391 29.4999 29.9004 29.4999C32.6617 29.4999 34.9002 27.2612 34.9004 24.4999V18.4999H37C40.0376 18.4999 42.5 20.9623 42.5 23.9999V32.1991C42.4998 35.2365 40.0375 37.6991 37 37.6991H30.4668C30.4881 37.4689 30.5 37.2357 30.5 36.9999C30.5 32.8578 27.1421 29.4999 23 29.4999C18.8579 29.4999 15.5 32.8578 15.5 36.9999C15.5 37.2357 15.5119 37.4689 15.5332 37.6991H9C5.96254 37.6991 3.50018 35.2365 3.5 32.1991V23.9999C3.5 20.9623 5.96244 18.4999 9 18.4999H10.9004V24.4999Z" fill="#FAFAFA"/>
<path d="M17.9004 24.4999C17.9002 25.6043 17.0049 26.4999 15.9004 26.4999C14.7959 26.4999 13.9006 25.6043 13.9004 24.4999V18.4999H17.9004V24.4999Z" fill="#FAFAFA"/>
<path d="M31.9004 24.4999C31.9002 25.6043 31.0049 26.4999 29.9004 26.4999C28.7959 26.4999 27.9006 25.6043 27.9004 24.4999V18.4999H31.9004V24.4999Z" fill="#FAFAFA"/>
<path d="M12.4004 10.4999C13.2288 10.4999 13.9004 11.1715 13.9004 11.9999V18.4999H10.9004V11.9999C10.9004 11.1715 11.572 10.4999 12.4004 10.4999Z" fill="#FAFAFA"/>
<path d="M22.9004 10.4999C25.6618 10.4999 27.9004 12.7385 27.9004 15.4999V18.4999H24.9004V15.4999C24.9004 14.3953 24.005 13.4999 22.9004 13.4999C21.7958 13.4999 20.9004 14.3953 20.9004 15.4999V18.4999H17.9004V15.4999C17.9004 12.7385 20.139 10.4999 22.9004 10.4999Z" fill="#FAFAFA"/>
<path d="M37.9395 6.93934C38.5252 6.35355 39.4748 6.35355 40.0605 6.93934L44.0605 10.9393C44.6462 11.5251 44.6463 12.4747 44.0605 13.0604L40.0605 17.0604C39.4748 17.646 38.5252 17.646 37.9395 17.0604C37.3537 16.4747 37.3538 15.5251 37.9395 14.9393L39.3789 13.4999H37.4004C36.0197 13.4999 34.9004 14.6192 34.9004 15.9999V18.4999H31.9004V15.9999C31.9004 12.9623 34.3628 10.4999 37.4004 10.4999H39.3789L37.9395 9.06043C37.3537 8.4747 37.3538 7.52514 37.9395 6.93934Z" fill="#FAFAFA"/>
</svg>
