<svg width="48" height="48" viewBox="0 0 48 48" fill="none" xmlns="http://www.w3.org/2000/svg">
<path fill-rule="evenodd" clip-rule="evenodd" d="M20.418 5.51229C22.4096 3.4959 25.5904 3.49591 27.582 5.51229C29.6952 7.65227 32.77 11.0436 35.3242 14.9849C37.857 18.8933 40 23.527 40 28.1138C39.9997 36.8996 32.8255 44.0025 24 44.0025C15.1745 44.0025 8.0003 36.8996 8 28.1138C8 23.527 10.143 18.8933 12.6758 14.9849C15.23 11.0436 18.3048 7.65227 20.418 5.51229ZM30.0605 21.2017C29.4748 20.616 28.5252 20.616 27.9395 21.2017L17.9395 31.2017C17.3538 31.7875 17.3537 32.7371 17.9395 33.3228C18.5252 33.9083 19.4748 33.9084 20.0605 33.3228L30.0605 23.3228C30.6463 22.7371 30.6461 21.7875 30.0605 21.2017ZM28 28.7623C26.6193 28.7623 25.5 29.8816 25.5 31.2623C25.5001 32.6429 26.6194 33.7623 28 33.7623C29.3806 33.7623 30.4999 32.6429 30.5 31.2623C30.5 29.8816 29.3807 28.7623 28 28.7623ZM20 20.7623C18.6193 20.7623 17.5 21.8816 17.5 23.2623C17.5001 24.6429 18.6194 25.7623 20 25.7623C21.3806 25.7623 22.4999 24.6429 22.5 23.2623C22.5 21.8816 21.3807 20.7623 20 20.7623Z" fill="#FAFAFA"/>
</svg>
