<svg width="48" height="48" viewBox="0 0 48 48" fill="none" xmlns="http://www.w3.org/2000/svg">
<path fill-rule="evenodd" clip-rule="evenodd" d="M10 7.50049C10 4.46292 12.4624 2.00049 15.5 2.00049H32.5C35.5376 2.00049 38 4.46292 38 7.50049V40.5005C38 43.5381 35.5376 46.0005 32.5 46.0005H15.5C12.4624 46.0005 10 43.5381 10 40.5005V7.50049ZM19.5 37.0005C18.6716 37.0005 18 37.6721 18 38.5005C18 39.3289 18.6716 40.0005 19.5 40.0005H28.5C29.3284 40.0005 30 39.3289 30 38.5005C30 37.6721 29.3284 37.0005 28.5 37.0005H19.5Z" fill="#FAFAFA"/>
</svg>
