<svg width="48" height="48" viewBox="0 0 48 48" fill="none" xmlns="http://www.w3.org/2000/svg">
<path d="M29.6309 41C30.4593 41 31.1309 41.6716 31.1309 42.5C31.1309 43.3284 30.4593 44 29.6309 44H13.6309C12.8024 44 12.1309 43.3284 12.1309 42.5C12.1309 41.6716 12.8024 41 13.6309 41H20.1172V26.7031C19.8254 26.649 19.5451 26.5139 19.3203 26.2891L17.1309 24.0996V31.4004C17.1304 32.2284 16.459 32.9004 15.6309 32.9004C14.8028 32.9003 14.1314 32.2284 14.1309 31.4004V29.2012H10.5293C9.4695 29.2008 8.45601 28.7783 7.71094 28.0332C6.96636 27.2885 6.55101 26.2815 6.55078 25.2344V20.3008C6.55078 19.2534 6.96625 18.2449 7.71094 17.5C8.45598 16.7552 9.46969 16.3343 10.5293 16.334H14.1309V14.1328C14.1313 13.3048 14.8027 12.6329 15.6309 12.6328C16.459 12.6328 17.1305 13.3047 17.1309 14.1328V19.8359L20.1172 22.8223V5.5C20.1172 4.6717 20.7934 4.00021 21.6289 4C22.4646 4 23.1426 4.67157 23.1426 5.5V14.3555L25.4883 12.0117C25.6689 11.8311 25.8861 11.7111 26.1152 11.6406V9.8418C26.1157 8.37014 27.1621 7.10037 28.6172 6.80469L31.9473 6.12891C33.3211 5.8509 34.7158 6.51275 35.3574 7.74805L41.1016 18.8203C41.85 20.2627 41.3449 22.0186 39.9727 22.8652L37.1523 24.3867C37.1032 24.4127 37.0399 24.3945 37.0137 24.3457L34.752 20.1191C34.3601 19.3881 33.4434 19.1106 32.7051 19.498C31.9675 19.8864 31.6852 20.7941 32.0762 21.5254L34.3379 25.752C35.1538 27.2754 37.0705 27.8455 38.5996 27.0215L39.1484 26.7246V34.3359C39.1483 36.0479 37.7456 37.4355 36.0176 37.4355H29.2441C27.5167 37.4349 26.1154 36.0475 26.1152 34.3359V15.6465L23.1426 18.6191V41H29.6309Z" fill="#FAFAFA"/>
</svg>
