<svg width="48" height="48" viewBox="0 0 48 48" fill="none" xmlns="http://www.w3.org/2000/svg">
<path d="M9.85742 9.85645C17.6677 2.04644 30.3322 2.04667 38.1426 9.85645C45.953 17.6668 45.9528 30.3311 38.1426 38.1416C30.3321 45.9521 17.6679 45.9521 9.85742 38.1416C2.04756 30.3311 2.04714 17.6667 9.85742 9.85645ZM18.8008 14.7998V33.2021H21.9453V26.2979H25.7324C26.9079 26.2978 27.9703 26.0881 28.918 25.6689C29.8746 25.2406 30.6317 24.6068 31.1875 23.7686C31.7523 22.9211 32.0351 21.8677 32.0352 20.6104C32.0351 19.3166 31.7523 18.2404 31.1875 17.3838C30.6317 16.5273 29.8746 15.8844 28.918 15.4561C27.9703 15.0187 26.9079 14.7999 25.7324 14.7998H18.8008ZM25.459 17.3701C26.443 17.3703 27.2502 17.6346 27.8789 18.1631C28.5073 18.6917 28.8222 19.5081 28.8223 20.6104C28.8222 21.6489 28.5074 22.4334 27.8789 22.9619C27.2593 23.4813 26.4521 23.7411 25.459 23.7412H21.9453V17.3701H25.459Z" fill="#FAFAFA"/>
</svg>
