<svg width="48" height="48" viewBox="0 0 48 48" fill="none" xmlns="http://www.w3.org/2000/svg">
<path d="M27.9453 26.0047C28.0697 26.0021 28.1934 26.0293 28.3047 26.0848C28.4162 26.1405 28.5132 26.2237 28.5859 26.325L32.9062 32.0359C32.9898 32.1493 33.1013 32.2395 33.2305 32.2957C33.3597 32.3519 33.5026 32.3725 33.6426 32.3563L37.7695 31.8602C38.2966 31.7841 38.8356 31.8509 39.3281 32.0535C39.8204 32.2562 40.2495 32.5877 40.5703 33.0125C40.9884 33.5804 41.1952 34.2772 41.1543 34.9813C41.1134 35.6852 40.8267 36.3523 40.3457 36.868C40.0522 37.2159 39.6882 37.4983 39.2773 37.6942C38.8662 37.8901 38.4163 37.9959 37.9609 38.0047H20.8906C20.7372 38.0022 20.5866 37.955 20.459 37.8699C20.3315 37.7848 20.2312 37.6647 20.1699 37.5242L17.5781 31.7176C17.5269 31.6101 17.5 31.4909 17.5 31.3719C17.5001 31.2531 17.5271 31.1354 17.5781 31.0281C17.6293 30.921 17.7046 30.8269 17.7988 30.7547C17.8933 30.6825 18.0042 30.6335 18.1211 30.6121L20.5547 30.116C20.7258 30.0843 20.9029 30.1105 21.0586 30.1883C21.2143 30.2663 21.3408 30.3935 21.418 30.5496L22.5215 32.7566C22.5888 32.8899 22.6917 33.0019 22.8184 33.0809C22.9453 33.1599 23.0926 33.2024 23.2422 33.2039H26.4414C26.5751 33.2037 26.7069 33.1704 26.8242 33.1063C26.9415 33.042 27.041 32.9493 27.1133 32.8367C27.1763 32.7214 27.209 32.5912 27.209 32.4598C27.2088 32.3287 27.1762 32.1998 27.1133 32.0848L24.9062 27.1238C24.8434 27.0087 24.8106 26.88 24.8105 26.7488C24.8105 26.6174 24.8432 26.4872 24.9062 26.3719C24.9785 26.2596 25.0782 26.1665 25.1953 26.1024C25.3126 26.0383 25.4445 26.0049 25.5781 26.0047H27.9453Z" fill="#FAFAFA"/>
<path d="M6.5 34.8758C7.32843 34.8758 8 35.5474 8 36.3758C7.99963 37.2039 7.3282 37.8758 6.5 37.8758H5.5C4.6718 37.8758 4.00037 37.2039 4 36.3758C4 35.5474 4.67157 34.8758 5.5 34.8758H6.5Z" fill="#FAFAFA"/>
<path d="M11 34.8758C11.8284 34.8758 12.5 35.5474 12.5 36.3758C12.4996 37.2039 11.8282 37.8758 11 37.8758H10C9.1718 37.8758 8.50037 37.2039 8.5 36.3758C8.5 35.5474 9.17157 34.8758 10 34.8758H11Z" fill="#FAFAFA"/>
<path d="M15.5 34.8758C16.3284 34.8758 17 35.5474 17 36.3758C16.9996 37.2039 16.3282 37.8758 15.5 37.8758H14.5C13.6718 37.8758 13.0004 37.2039 13 36.3758C13 35.5474 13.6716 34.8758 14.5 34.8758H15.5Z" fill="#FAFAFA"/>
<path d="M21.5723 10.0047C21.7269 9.98109 21.8852 10.0038 22.0273 10.0691C22.1691 10.1344 22.2885 10.2395 22.3711 10.3719C22.4341 10.4872 22.4688 10.6174 22.4688 10.7488C22.4687 10.8801 22.434 11.0087 22.3711 11.1238L20.1641 16.0848C20.1012 16.1998 20.0685 16.3287 20.0684 16.4598C20.0684 16.5912 20.101 16.7214 20.1641 16.8367C20.2363 16.9493 20.3358 17.042 20.4531 17.1063C20.5705 17.1705 20.7021 17.2037 20.8359 17.2039H23.9395C24.089 17.2024 24.2363 17.1599 24.3633 17.0809C24.49 17.0019 24.5928 16.8899 24.6602 16.7566L25.7637 14.5477C25.8409 14.3915 25.9672 14.2642 26.123 14.1863C26.279 14.1084 26.4575 14.084 26.6289 14.116L29.0605 14.6121C29.1775 14.6335 29.2884 14.6825 29.3828 14.7547C29.4771 14.8269 29.5523 14.921 29.6035 15.0281C29.6546 15.1354 29.6816 15.253 29.6816 15.3719C29.6816 15.4907 29.6546 15.6083 29.6035 15.7156L27.0117 21.5242C26.9504 21.6648 26.8502 21.7848 26.7227 21.8699C26.5953 21.9549 26.446 22.002 26.293 22.0047H9.17188C8.71932 21.9936 8.27339 21.886 7.86523 21.6902C7.4574 21.4944 7.09636 21.2138 6.80469 20.868C6.32588 20.3503 6.04189 19.6815 6.00391 18.9774C5.96608 18.2735 6.17559 17.5785 6.5957 17.0125C6.91801 16.5849 7.35013 16.2524 7.8457 16.0496C8.34131 15.8469 8.8825 15.7811 9.41211 15.8602L13.5391 16.3563C13.679 16.3725 13.8219 16.3519 13.9512 16.2957C14.0804 16.2395 14.1918 16.1494 14.2754 16.0359L18.5645 10.325C18.6371 10.2238 18.7324 10.1405 18.8438 10.0848C18.955 10.0292 19.0788 10.0022 19.2031 10.0047H21.5723Z" fill="#FAFAFA"/>
<path d="M32.5 18.3758C33.3284 18.3758 34 19.0474 34 19.8758C33.9996 20.7039 33.3282 21.3758 32.5 21.3758H31.5C30.6718 21.3758 30.0004 20.7039 30 19.8758C30 19.0474 30.6716 18.3758 31.5 18.3758H32.5Z" fill="#FAFAFA"/>
<path d="M37.5 18.3758C38.3284 18.3758 39 19.0474 39 19.8758C38.9996 20.7039 38.3282 21.3758 37.5 21.3758H36.5C35.6718 21.3758 35.0004 20.7039 35 19.8758C35 19.0474 35.6716 18.3758 36.5 18.3758H37.5Z" fill="#FAFAFA"/>
<path d="M42.5 18.3758C43.3284 18.3758 44 19.0474 44 19.8758C43.9996 20.7039 43.3282 21.3758 42.5 21.3758H41.5C40.6718 21.3758 40.0004 20.7039 40 19.8758C40 19.0474 40.6716 18.3758 41.5 18.3758H42.5Z" fill="#FAFAFA"/>
</svg>
