<svg width="48" height="48" viewBox="0 0 48 48" fill="none" xmlns="http://www.w3.org/2000/svg">
<path d="M34.0001 23C34.0001 24.3692 33.725 25.6741 33.2269 26.8625L15.3477 8.98327C17.0791 6.00349 20.3056 4 24.0001 4C29.523 4 34.0001 8.47715 34.0001 14V23Z" fill="#FAFAFA"/>
<path d="M7.06066 4.93934C6.47487 4.35355 5.52513 4.35355 4.93934 4.93934C4.35355 5.52513 4.35355 6.47487 4.93934 7.06066L14 16.1213V23C14 28.5228 18.4772 33 24 33C25.961 33 27.7923 32.4343 29.3368 31.4581L31.8575 33.9789C29.6439 35.5664 26.9321 36.4999 23.9998 36.4999C18.4663 36.4999 13.707 33.1704 11.6225 28.3993C11.2908 27.6402 10.4065 27.2937 9.64738 27.6254C8.88825 27.957 8.54173 28.8413 8.87341 29.6004C11.2281 34.9897 16.3811 38.8812 22.4998 39.4326V42.4999C22.4998 43.3283 23.1714 43.9999 23.9998 43.9999C24.8282 43.9999 25.4998 43.3283 25.4998 42.4999V39.4326C28.6797 39.1458 31.6007 37.9562 34.0022 36.1235L40.9393 43.0607C41.5251 43.6464 42.4749 43.6464 43.0607 43.0607C43.6464 42.4749 43.6464 41.5251 43.0607 40.9393L7.06066 4.93934Z" fill="#FAFAFA"/>
</svg>
