<svg width="48" height="48" viewBox="0 0 48 48" fill="none" xmlns="http://www.w3.org/2000/svg">
<path d="M19.1071 21.0219C19.693 20.4375 20.6428 20.4367 21.2282 21.0219C21.8129 21.6073 21.8125 22.5574 21.2282 23.143L18.4528 25.9165L22.0817 29.5454L24.8571 26.7719C25.443 26.1875 26.3928 26.1867 26.9782 26.7719C27.5629 27.3573 27.5625 28.3074 26.9782 28.893L24.2028 31.6665L25.0602 32.5239C25.341 32.8051 25.4997 33.187 25.4997 33.5844C25.4994 33.9817 25.3411 34.364 25.0602 34.645L22.1852 37.52C21.4251 38.3004 20.5168 38.9247 19.5153 39.354C18.5063 39.7862 17.4196 40.0129 16.322 40.0219C15.2242 40.0307 14.1348 39.8206 13.1188 39.4048C12.5692 39.1797 12.0472 38.8943 11.5602 38.559L7.81024 42.311C7.22478 42.8964 6.27499 42.8958 5.68915 42.311C5.10371 41.7252 5.10353 40.7756 5.68915 40.1899L9.43915 36.438C9.10442 35.9516 8.82024 35.4303 8.5954 34.8813C8.17939 33.8653 7.96943 32.776 7.97821 31.6782C7.98712 30.5801 8.21564 29.4942 8.64813 28.4848C9.08068 27.4756 9.70885 26.5611 10.4977 25.7973L13.3552 22.9399C13.941 22.3544 14.8925 22.3542 15.4782 22.9399L16.3317 23.7954L19.1071 21.0219Z" fill="#FAFAFA"/>
<path d="M40.1891 5.68991C40.7749 5.10472 41.7246 5.10461 42.3102 5.68991C42.8951 6.27559 42.8953 7.22542 42.3102 7.811L38.5583 11.561C38.8934 12.0479 39.1789 12.57 39.404 13.1196C39.8198 14.1355 40.03 15.2251 40.0212 16.3227C40.0122 17.4203 39.7854 18.5071 39.3532 19.5161C38.9239 20.5176 38.2977 21.4238 37.5173 22.184L37.5192 22.186L34.6442 25.061C34.3633 25.3418 33.9808 25.5 33.5837 25.5005C33.1863 25.5005 32.8043 25.3417 32.5231 25.061L22.9391 15.479C22.3534 14.8932 22.3535 13.9417 22.9391 13.3559L25.8141 10.4809C26.5744 9.70036 27.4824 9.07817 28.4841 8.64889C29.4934 8.21647 30.5794 7.98788 31.6774 7.97897C32.7751 7.97026 33.8647 8.18021 34.8806 8.59616C35.4294 8.82101 35.9509 9.10521 36.4372 9.43991L40.1891 5.68991Z" fill="#FAFAFA"/>
<path d="M13.3981 6.90866C13.984 6.32337 14.9356 6.32303 15.5212 6.90866C16.1055 7.49419 16.1056 8.44425 15.5212 9.02975L13.0095 11.5415L15.5212 14.0532C16.1064 14.6389 16.1064 15.5906 15.5212 16.1762C14.9357 16.7612 13.9858 16.7608 13.4001 16.1762L10.8864 13.6626L8.37469 16.1762C7.78924 16.7611 6.8393 16.7607 6.2536 16.1762C5.66781 15.5904 5.66781 14.639 6.2536 14.0532L8.76532 11.5415L6.2536 9.02975C5.66852 8.4441 5.66852 7.49431 6.2536 6.90866C6.83942 6.32325 7.79099 6.323 8.37665 6.90866L10.8864 9.41842L13.3981 6.90866Z" fill="#FAFAFA"/>
</svg>
