<svg width="48" height="48" viewBox="0 0 48 48" fill="none" xmlns="http://www.w3.org/2000/svg">
<path d="M26 8.45218C26 6.41444 23.6929 5.23268 22.0392 6.42335L12.1706 13.5288C11.7451 13.8351 11.2341 14 10.7098 14H7.5C4.46243 14 2 16.4624 2 19.5V28.5C2 31.5375 4.46243 34 7.5 34H10.7098C11.2341 34 11.7451 34.1648 12.1706 34.4711L22.0392 41.5766C23.6929 42.7672 26 41.5855 26 39.5477V8.45218Z" fill="#FAFAFA"/>
<path d="M37.4349 8.44325C38.0207 7.85746 38.9705 7.85746 39.5563 8.44325C43.5358 12.4228 45.9999 17.9249 45.9999 23.9996C45.9999 30.0743 43.5358 35.5764 39.5563 39.5559C38.9705 40.1417 38.0207 40.1417 37.4349 39.5559C36.8492 38.9702 36.8492 38.0204 37.4349 37.4346C40.8749 33.9947 42.9999 29.2467 42.9999 23.9996C42.9999 18.7525 40.8749 14.0045 37.4349 10.5646C36.8492 9.97878 36.8492 9.02903 37.4349 8.44325Z" fill="#FAFAFA"/>
<path d="M32.8387 15.162C32.253 14.5762 31.3032 14.5762 30.7174 15.162C30.1316 15.7478 30.1316 16.6975 30.7174 17.2833C32.4382 19.0041 33.4999 21.3771 33.4999 24.0008C33.4999 26.6246 32.4382 28.9975 30.7174 30.7183C30.1316 31.3041 30.1316 32.2539 30.7174 32.8397C31.3032 33.4255 32.253 33.4255 32.8387 32.8397C35.0991 30.5793 36.4999 27.4522 36.4999 24.0008C36.4999 20.5495 35.0991 17.4224 32.8387 15.162Z" fill="#FAFAFA"/>
</svg>
