<svg width="48" height="48" viewBox="0 0 48 48" fill="none" xmlns="http://www.w3.org/2000/svg">
<path d="M18 24.5C18.8284 24.5 19.5 25.1716 19.5 26V28C19.5 28.8284 18.8284 29.5 18 29.5C17.1716 29.5 16.5 28.8284 16.5 28V26C16.5 25.1716 17.1716 24.5 18 24.5Z" fill="#FAFAFA"/>
<path d="M30 24.5C30.8284 24.5 31.5 25.1716 31.5 26V28C31.5 28.8284 30.8284 29.5 30 29.5C29.1716 29.5 28.5 28.8284 28.5 28V26C28.5 25.1716 29.1716 24.5 30 24.5Z" fill="#FAFAFA"/>
<path d="M24 16.5C24.8284 16.5 25.5 17.1716 25.5 18V20C25.5 20.8284 24.8284 21.5 24 21.5C23.1716 21.5 22.5 20.8284 22.5 20V18C22.5 17.1716 23.1716 16.5 24 16.5Z" fill="#FAFAFA"/>
<path fill-rule="evenodd" clip-rule="evenodd" d="M38 4C41.3137 4 44 6.68629 44 10V38C44 41.3137 41.3137 44 38 44H10C6.68629 44 4 41.3137 4 38V10C4 6.68629 6.68629 4 10 4H38ZM24 10C20.287 10 16.7251 11.4741 14.0996 14.0996C11.4741 16.7251 10 20.287 10 24C10 27.713 11.4741 31.2749 14.0996 33.9004C16.7251 36.5259 20.287 38 24 38C27.713 38 31.2749 36.5259 33.9004 33.9004C36.5259 31.2749 38 27.713 38 24C38 20.287 36.5259 16.7251 33.9004 14.0996C31.2749 11.4741 27.713 10 24 10Z" fill="#FAFAFA"/>
</svg>
