<svg width="48" height="48" viewBox="0 0 48 48" fill="none" xmlns="http://www.w3.org/2000/svg">
<path fill-rule="evenodd" clip-rule="evenodd" d="M23.9995 3C27.0128 3 29.358 3.1483 31.1013 3.33017C34.1567 3.64892 36.2197 6.14928 36.3583 9.05507C36.5025 12.0785 36.6574 16.964 36.6574 24C36.6574 31.036 36.5025 35.9215 36.3583 38.9449C36.2197 41.8507 34.1567 44.3511 31.1013 44.6699C29.358 44.8517 27.0128 45 23.9995 45C20.9863 45 18.6411 44.8517 16.8978 44.6699C13.8424 44.3511 11.7794 41.8507 11.6408 38.9449C11.4966 35.9215 11.3417 31.036 11.3417 24C11.3417 16.964 11.4966 12.0785 11.6408 9.05507C11.7794 6.14928 13.8424 3.64891 16.8978 3.33016C18.6411 3.1483 20.9863 3 23.9995 3ZM27.75 11.8667C27.75 9.8048 26.0708 8.13333 23.9995 8.13333C21.9283 8.13333 20.2491 9.8048 20.2491 11.8667C20.2491 13.9285 21.9283 15.6 23.9995 15.6C26.0708 15.6 27.75 13.9285 27.75 11.8667ZM27.75 24C27.75 21.9382 26.0708 20.2667 23.9995 20.2667C21.9283 20.2667 20.2491 21.9382 20.2491 24C20.2491 26.0618 21.9283 27.7333 23.9995 27.7333C26.0708 27.7333 27.75 26.0618 27.75 24ZM23.9995 32.4C26.0708 32.4 27.75 34.0715 27.75 36.1333C27.75 38.1952 26.0708 39.8667 23.9995 39.8667C21.9283 39.8667 20.2491 38.1952 20.2491 36.1333C20.2491 34.0715 21.9283 32.4 23.9995 32.4ZM38.7001 8.9447C38.7745 10.5054 38.8514 12.5488 38.909 15.113C39.2018 15.1049 39.4554 15.095 39.6743 15.0841C40.6159 15.0374 41.4318 14.4982 41.8366 13.6487C42.1973 12.8915 42.6498 11.7975 42.9371 10.5734C43.301 9.02306 42.0308 7.77497 40.562 7.72571C39.9633 7.70563 39.2767 7.68736 38.5458 7.67669C38.6278 8.09264 38.6797 8.5165 38.7001 8.9447ZM39.0018 24.0003C39.0018 25.1366 38.9978 26.2174 38.9904 27.244C39.2491 27.2363 39.4759 27.2273 39.6743 27.2174C40.6159 27.1707 41.4318 26.6315 41.8366 25.782C42.1973 25.0248 42.6498 23.9308 42.9371 22.7067C43.301 21.1564 42.0308 19.9083 40.562 19.8591C40.0842 19.843 39.5503 19.8282 38.9827 19.8174C38.9949 21.1182 39.0018 22.5116 39.0018 24.0003ZM38.6781 39.3854C38.6875 39.2759 38.6948 39.166 38.7001 39.0558C38.7834 37.3093 38.8698 34.9585 38.9287 31.9497C39.5164 31.9606 40.0691 31.9758 40.562 31.9924C42.0308 32.0416 43.301 33.2897 42.9371 34.84C42.6498 36.0642 42.1973 37.1581 41.8366 37.9153C41.4318 38.7649 40.6159 39.3041 39.6743 39.3507C39.3998 39.3643 39.0707 39.3766 38.6781 39.3854ZM9.29982 39.0558C9.21653 37.3093 9.13014 34.9585 9.07124 31.9497C8.48347 31.9606 7.93095 31.9759 7.43807 31.9924C5.96928 32.0416 4.69901 33.2897 5.06292 34.84C5.35026 36.0642 5.8027 37.1581 6.16344 37.9153C6.56819 38.7649 7.38411 39.3041 8.32571 39.3507C8.60018 39.3643 8.92923 39.3766 9.32181 39.3854C9.31241 39.2759 9.30508 39.166 9.29982 39.0558ZM9.01726 19.8174C9.00499 21.1182 8.9981 22.5116 8.9981 24.0003C8.9981 25.1366 9.00211 26.2174 9.00947 27.244C8.75081 27.2363 8.52401 27.2273 8.32571 27.2174C7.38411 27.1707 6.56819 26.6315 6.16344 25.782C5.8027 25.0248 5.35026 23.9308 5.06292 22.7067C4.69901 21.1564 5.96928 19.9083 7.43807 19.8591C7.91584 19.843 8.44962 19.8282 9.01726 19.8174ZM9.29982 8.9447C9.32024 8.51649 9.37216 8.09264 9.45409 7.67669C8.72323 7.68737 8.03668 7.70563 7.43807 7.72571C5.96928 7.77497 4.69901 9.02306 5.06292 10.5734C5.35026 11.7975 5.8027 12.8915 6.16344 13.6487C6.56819 14.4982 7.38411 15.0374 8.32571 15.0841C8.54457 15.095 8.79813 15.1049 9.09093 15.113C9.14847 12.5488 9.22539 10.5054 9.29982 8.9447Z" fill="#FAFAFA"/>
</svg>
