<svg width="48" height="48" viewBox="0 0 48 48" fill="none" xmlns="http://www.w3.org/2000/svg">
<path d="M24.4004 21.0371H24.3965L24.4043 21.0352L24.4004 21.0371Z" fill="#FAFAFA"/>
<path fill-rule="evenodd" clip-rule="evenodd" d="M38.4023 4.5C39.2304 4.50042 39.9023 5.17183 39.9023 6V34.8008C39.9019 35.6286 39.2302 36.3004 38.4023 36.3008H37.502V40.5H38.4023C39.2303 40.5004 39.9021 41.172 39.9023 42C39.9021 42.8279 39.2303 43.4996 38.4023 43.5H13.2012C11.8488 43.4999 10.552 42.9621 9.5957 42.0059C8.75903 41.1691 8.24305 40.0715 8.12695 38.9043L8.10156 38.4004V10.8008C8.10156 9.12992 8.76579 7.52718 9.94727 6.3457C11.1287 5.16422 12.7315 4.5 14.4023 4.5H38.4023ZM13.2012 36.3008C12.6444 36.3009 12.1105 36.5223 11.7168 36.916C11.3232 37.3098 11.1016 37.8436 11.1016 38.4004L11.1113 38.6074C11.1591 39.088 11.3723 39.5402 11.7168 39.8848C12.1105 40.2783 12.6445 40.4999 13.2012 40.5H34.502V36.3008H13.2012ZM17.3477 23.2578C16.6748 24.2871 16.0189 25.515 15.4141 26.9785C15.0983 27.7436 15.4638 28.6208 16.2285 28.9375C16.994 29.2534 17.8712 28.8884 18.1875 28.123C18.5255 27.3053 18.8778 26.5827 19.2324 25.9434C18.9652 25.6031 18.7448 25.2849 18.5781 25.0215C18.4428 24.8076 18.3363 24.6263 18.2637 24.4941C18.2525 24.4737 18.2421 24.4536 18.2324 24.4355C17.9074 24.0495 17.6128 23.6551 17.3477 23.2578ZM26.7227 11.6934C24.1885 11.7181 21.6949 12.3449 19.4492 13.5195L19.4121 13.5391C17.3707 14.6829 16.0436 16.3844 15.8848 18.5195C15.7667 20.1133 16.3221 21.7214 17.3477 23.2578C18.4955 21.5021 19.6932 20.3234 20.7715 19.5371C21.6212 18.9176 22.3795 18.553 22.9531 18.3418C23.2388 18.2367 23.4784 18.1692 23.6582 18.127C23.7476 18.106 23.824 18.0924 23.8828 18.082C23.9119 18.0769 23.9379 18.0715 23.959 18.0684C23.9693 18.0668 23.9799 18.0656 23.9883 18.0645L24 18.0625H24.0078C24.0078 18.0625 24.0189 18.1301 24.1523 19.2168L24.0078 18.0625C24.8294 17.9617 25.5798 18.546 25.6816 19.3672C25.7825 20.1895 25.1973 20.9362 24.375 21.0371L24.377 21.0391H24.3848L24.3906 21.0371H24.3965C24.3866 21.039 24.368 21.0431 24.3438 21.0488C24.276 21.0648 24.1547 21.0977 23.9902 21.1582C23.6606 21.2796 23.1505 21.5152 22.5391 21.9609C21.6084 22.6395 20.4002 23.8381 19.2324 25.9434C19.3962 26.1519 19.5763 26.3705 19.7773 26.5859C20.8018 27.6834 22.5374 29.0038 24.8594 28.7891L24.8574 28.7871C29.0691 28.4022 30.9419 25.3193 32.0254 22.4863C32.5576 21.0946 32.9757 19.556 33.3516 18.3672C33.7587 17.0797 34.1209 16.1848 34.543 15.6426C34.8193 15.288 34.9233 14.8271 34.8242 14.3887C34.7246 13.95 34.4319 13.5777 34.0293 13.377C31.7613 12.2464 29.2567 11.6688 26.7227 11.6934Z" fill="#FAFAFA"/>
</svg>
