<svg width="48" height="48" viewBox="0 0 48 48" fill="none" xmlns="http://www.w3.org/2000/svg">
<path d="M29.7617 20.5938C30.6652 20.5939 31.533 20.9529 32.1719 21.5918C32.8101 22.2306 33.1698 23.097 33.1699 24C33.1697 24.9034 32.8107 25.7713 32.1719 26.4102C31.533 27.0489 30.6651 27.408 29.7617 27.4082C28.8588 27.408 27.9923 27.0483 27.3535 26.4102C26.7147 25.7713 26.3557 24.9034 26.3555 24C26.3556 23.0965 26.7147 22.2307 27.3535 21.5918C27.9924 20.9529 28.8582 20.594 29.7617 20.5938Z" fill="#FAFAFA"/>
<path fill-rule="evenodd" clip-rule="evenodd" d="M40 8C42.2091 8 44 9.79086 44 12V36C44 38.2091 42.2091 40 40 40H8L7.5918 39.9785C5.57445 39.774 4 38.0713 4 36V12C4 9.79086 5.79086 8 8 8H40ZM9.95312 27.5859C9.12497 27.5863 8.45312 28.2577 8.45312 29.0859C8.45312 29.9142 9.12497 30.5856 9.95312 30.5859H11.4297V32.8086C11.4297 33.6368 12.1015 34.3083 12.9297 34.3086C13.7581 34.3086 14.4297 33.637 14.4297 32.8086V30.5859H15.9062C16.7347 30.5859 17.4062 29.9144 17.4062 29.0859C17.4062 28.2575 16.7347 27.5859 15.9062 27.5859H9.95312ZM29.207 13.8164C28.7074 13.818 28.2168 13.9509 27.7871 14.2012L27.6074 14.3164C27.1371 14.6402 26.774 15.0981 26.5684 15.6309L26.1875 16.6133L25.127 17.2148L24.0664 17.0527L24.041 17.0508L23.832 17.0293C23.4138 17.004 22.9945 17.0726 22.6055 17.2285L22.4121 17.3145C21.9076 17.5619 21.4866 17.9531 21.2051 18.4395L21.2012 18.4473L20.6758 19.3652C20.3853 19.8596 20.2525 20.4321 20.293 21.0039C20.3337 21.5753 20.5458 22.1224 20.9023 22.5703L20.9082 22.5781L21.5781 23.4082V24.6055L20.9297 25.4316C20.6173 25.8241 20.4145 26.2917 20.3418 26.7852L20.3184 26.998C20.2781 27.5691 20.4113 28.141 20.7012 28.6348L21.2285 29.5547L21.2324 29.5625C21.5139 30.0483 21.9344 30.4402 22.4395 30.6875C22.9447 30.9349 23.5125 31.0265 24.0684 30.9512L24.0918 30.9473L25.1484 30.7852L26.1875 31.3828L26.5684 32.3711C26.7742 32.9038 27.1378 33.3623 27.6074 33.6855L27.7871 33.8008C28.2164 34.0506 28.7075 34.184 29.207 34.1855H30.3379C30.9089 34.1837 31.4655 34.0069 31.9355 33.6836C32.4062 33.3599 32.7688 32.9032 32.9746 32.3711L33.3574 31.3809L34.3945 30.7852L35.4512 30.9492L35.4766 30.9512C36.0326 31.0263 36.6001 30.9372 37.1055 30.6895C37.6101 30.4423 38.0308 30.0491 38.3125 29.5625L38.3164 29.5547L38.8398 28.6328L38.8418 28.6348C39.0957 28.2026 39.2298 27.7112 39.2324 27.2129L39.2246 26.998C39.1843 26.4257 38.9703 25.8777 38.6133 25.4297L38.6094 25.4238L37.9395 24.5918V23.3945L38.5938 22.5625L38.5918 22.5605C38.9456 22.1132 39.1587 21.5712 39.1992 21.0039C39.2394 20.4374 39.1077 19.8727 38.8242 19.3828L38.2891 18.4473L38.2852 18.4395C38.0038 17.9533 37.5813 17.56 37.0762 17.3125C36.572 17.0661 36.0051 16.9736 35.4492 17.0488L34.3672 17.2148L33.3281 16.6172L32.9492 15.6309C32.7437 15.099 32.3805 14.6404 31.9102 14.3164C31.4988 14.0334 31.0204 13.8633 30.5254 13.8242L30.3105 13.8164H29.207ZM12.8359 14.9453C12.0081 14.9456 11.3365 15.6175 11.3359 16.4453V24.3477C11.3365 25.1754 12.0081 25.8473 12.8359 25.8477C13.6637 25.8477 14.3349 25.1771 14.3359 24.3496V16.4473C14.3359 15.6188 13.6644 14.9453 12.8359 14.9453Z" fill="#FAFAFA"/>
</svg>
