<svg width="48" height="48" viewBox="0 0 48 48" fill="none" xmlns="http://www.w3.org/2000/svg">
<path d="M31.959 37.2852C32.1662 37.2853 32.3634 37.3281 32.543 37.4043C32.722 37.4802 32.884 37.5892 33.0195 37.7246C33.1553 37.8603 33.2658 38.0218 33.3418 38.2012C33.3989 38.3359 33.4358 38.4813 33.4512 38.6328C33.4563 38.6829 33.459 38.7337 33.459 38.7852C33.459 39.0485 33.385 39.2927 33.2656 39.5078C33.0099 39.9694 32.5237 40.2846 31.959 40.2852C31.9069 40.2852 31.8554 40.2825 31.8047 40.2773C31.0486 40.2003 30.459 39.5616 30.459 38.7852C30.4592 38.2671 30.7215 37.8103 31.1211 37.541C31.3603 37.3795 31.6487 37.2852 31.959 37.2852Z" fill="#FAFAFA"/>
<path d="M32.1113 29.5977C32.1231 29.5989 32.1348 29.6001 32.1465 29.6016C32.8846 29.6953 33.4586 30.3264 33.459 31.0898V34.6953C33.459 34.7681 33.4515 34.8401 33.4414 34.9102C33.4144 35.0977 33.3495 35.2713 33.2598 35.4297C33.0023 35.885 32.519 36.1948 31.959 36.1953L31.8047 36.1875C31.7731 36.1843 31.742 36.179 31.7109 36.1738C31.6586 36.165 31.605 36.1469 31.5547 36.1328C31.5143 36.1214 31.4744 36.1104 31.4355 36.0957C31.3892 36.0784 31.3448 36.0587 31.3008 36.0371C31.268 36.0208 31.2365 36.003 31.2051 35.9844C31.1583 35.957 31.1117 35.9306 31.0684 35.8984C31.0484 35.8835 31.0309 35.8655 31.0117 35.8496C30.677 35.5745 30.4591 35.1624 30.459 34.6953V31.0898C30.4592 30.5718 30.7215 30.115 31.1211 29.8457C31.3603 29.6842 31.6487 29.5898 31.959 29.5898L32.1113 29.5977Z" fill="#FAFAFA"/>
<path fill-rule="evenodd" clip-rule="evenodd" d="M32.1133 23.2539C32.1957 23.2595 32.2778 23.2681 32.3594 23.2793C32.8482 23.3461 33.3203 23.512 33.7461 23.7676C33.7961 23.7966 33.843 23.8298 33.8906 23.8613C34.3864 24.1922 34.7948 24.6397 35.0781 25.166L42.4219 38.5312C42.5763 38.8126 42.6925 39.1123 42.7695 39.4219C42.8467 39.7316 42.8844 40.0514 42.8789 40.373C42.8772 40.4696 42.8686 40.5663 42.8594 40.6621C42.8562 40.6948 42.8517 40.7272 42.8477 40.7598C42.8413 40.8114 42.8347 40.8628 42.8262 40.9141C42.8211 40.9446 42.8183 40.9755 42.8125 41.0059C42.811 41.0106 42.8141 41.0012 42.8125 41.0059C42.7312 41.4194 42.5766 41.8322 42.3594 42.1973C42.031 42.7487 41.5634 43.2047 41.0059 43.5215C40.4472 43.8387 39.815 44.0056 39.1738 44.0059H24.5625C23.921 44.0056 23.2892 43.8388 22.7305 43.5215C22.1726 43.2046 21.7054 42.7487 21.377 42.1973C21.0487 41.6451 20.8683 41.014 20.8574 40.3711C20.8466 39.7291 21.0035 39.0943 21.3125 38.5312L21.7559 37.7246L22.2754 36.7734L28.6504 25.166C28.8058 24.8771 28.9978 24.6104 29.2227 24.375C29.4459 24.142 29.7054 23.9352 29.9844 23.7676C30.0555 23.7249 30.1276 23.6841 30.2012 23.6465C30.2742 23.6092 30.3487 23.5752 30.4238 23.543C30.8778 23.3481 31.3683 23.2462 31.8652 23.2461C31.9481 23.2461 32.0309 23.2483 32.1133 23.2539ZM31.8652 26.2461C31.7465 26.2462 31.6283 26.2794 31.5273 26.3398C31.4417 26.3916 31.3735 26.4653 31.3203 26.5488C31.3113 26.563 31.2989 26.575 31.291 26.5898L31.2793 26.6094L23.9434 39.9746C23.9144 40.0275 23.8913 40.0847 23.877 40.1426L23.8574 40.3203C23.8594 40.4396 23.8935 40.5582 23.9551 40.6621L24.0664 40.8047C24.1092 40.8466 24.1581 40.884 24.2109 40.9141C24.3167 40.974 24.4394 41.0056 24.5625 41.0059H39.1738C39.2967 41.0056 39.4178 40.9738 39.5234 40.9141C39.6297 40.8535 39.7197 40.7655 39.7812 40.6621L39.8535 40.498C39.8698 40.4408 39.8778 40.3803 39.8789 40.3203C39.8809 40.2007 39.8512 40.0807 39.793 39.9746L32.4512 26.6094L32.4395 26.5898C32.3849 26.4875 32.3021 26.4005 32.2012 26.3398C32.1505 26.3096 32.0957 26.2874 32.0391 26.2715C31.9828 26.2557 31.9245 26.2461 31.8652 26.2461Z" fill="#FAFAFA"/>
<path d="M20.8066 27.5742C21.0019 27.7459 21.2135 27.8989 21.4355 28.0371C21.5338 28.1006 21.6329 28.1632 21.7363 28.2188C21.7944 28.2499 21.854 28.276 21.9141 28.2988C22.3532 28.5066 22.8193 28.6447 23.2969 28.7109L20.6719 33.3164C18.9317 32.6945 17.4178 31.5994 16.2832 30.1855L20.8066 27.5742Z" fill="#FAFAFA"/>
<path d="M22.502 19.4531C21.693 19.7112 20.9649 20.1821 20.3965 20.8184C19.7537 21.5381 19.344 22.4372 19.2227 23.3945C19.1553 23.927 19.1823 24.4633 19.293 24.9824L14.7812 27.5879C14.348 26.4754 14.1094 25.2658 14.1094 24C14.1094 19.046 17.7497 14.941 22.502 14.2188V19.4531Z" fill="#FAFAFA"/>
<path d="M24 22.1602C25.1019 22.1602 25.9961 23.0544 25.9961 24.1562C25.9961 25.2581 25.1019 26.1504 24 26.1504C22.8981 26.1504 22.0059 25.2581 22.0059 24.1562C22.0059 23.0544 22.8981 22.1602 24 22.1602Z" fill="#FAFAFA"/>
<path d="M25.502 14.2188C28.8719 14.7316 31.6796 16.9481 33.0293 19.959C31.2451 19.6054 29.3226 20.0565 27.8906 21.3145C27.8854 21.3067 27.8803 21.2987 27.875 21.291C27.5523 20.8226 27.1497 20.4194 26.6895 20.0957C26.591 19.9937 26.4814 19.8993 26.3516 19.8262C26.0808 19.6738 25.7957 19.5498 25.502 19.4531V14.2188Z" fill="#FAFAFA"/>
<path d="M24.0039 4C25.0363 4.00038 26.042 4.33521 26.8691 4.95312C27.4418 5.38137 27.9065 5.93272 28.2363 6.55859C30.0347 6.99343 31.7563 7.70451 33.3359 8.66797C34.013 8.45566 34.733 8.39315 35.4434 8.49414C36.4688 8.64063 37.4236 9.11713 38.1562 9.84961C38.8884 10.5824 39.3636 11.5352 39.5098 12.5605C39.6107 13.2705 39.5441 13.9893 39.332 14.666C40.2939 16.2447 41.0035 17.9648 41.4375 19.7617C41.9443 20.0281 42.403 20.3852 42.7871 20.8164C43.3063 21.3999 43.6753 22.102 43.8613 22.8574L43.9297 23.1836L43.9746 23.5156C44.0533 24.2892 43.9435 25.0746 43.6504 25.7988C43.3152 26.6263 42.7546 27.3448 42.0332 27.8711C41.6143 28.2254 40.6889 28.4436 40.2787 28.5084L36.7969 22.4609C36.5937 20.7541 36.0609 19.15 35.2578 17.7148C35.2304 17.5109 35.1627 17.309 35.0469 17.123C34.3509 16.0063 33.491 15.0046 32.5 14.1504C31.9922 13.7127 31.4495 13.3132 30.877 12.957C29.1868 11.9058 27.2774 11.2563 25.2969 11.0586C24.9209 11.0211 24.5442 11.0028 24.168 10.998C24.1135 10.9921 24.058 10.9902 24.002 10.9902C23.9665 10.9902 23.9313 10.9917 23.8965 10.9941C22.3819 11.0066 20.8765 11.2839 19.4512 11.8164C17.5868 12.5131 15.9067 13.6304 14.541 15.0781C13.1756 16.5259 12.1589 18.2683 11.5723 20.1699C10.9858 22.0718 10.8435 24.0853 11.1562 26.0508C11.4004 27.5834 11.9201 29.0551 12.6797 30.4004C12.6965 30.4357 12.7145 30.4714 12.7344 30.5059C12.7549 30.5415 12.7778 30.5761 12.8008 30.6094C12.9813 30.9157 13.1711 31.2182 13.377 31.5098C14.5251 33.1355 16.0316 34.4773 17.7793 35.4297C17.9712 35.5343 18.1762 35.5898 18.3809 35.6055C18.6394 35.7309 18.904 35.8448 19.1719 35.9531L18.5098 37.1172C18.105 37.8275 17.8637 38.5683 17.7656 39.3066C17.3825 40.0349 16.4824 40.3191 15.75 39.9414C15.3838 39.7521 15.0259 39.5443 14.6738 39.3301C13.9955 39.5437 13.2745 39.609 12.5625 39.5078C11.5369 39.3617 10.5845 38.8866 9.85156 38.1543C9.11904 37.4216 8.64255 36.4689 8.49609 35.4434C8.3952 34.733 8.45754 34.011 8.66992 33.334C7.70649 31.7543 6.99536 30.0327 6.56055 28.2344C5.93455 27.9045 5.38339 27.4399 4.95508 26.8672C4.33717 26.04 4.00229 25.0344 4.00195 24.002C4.00211 22.969 4.33678 21.9623 4.95508 21.1348C5.38379 20.5612 5.93398 20.0955 6.56055 19.7656C6.99559 17.9671 7.7062 16.2456 8.66992 14.666C8.45808 13.9896 8.39523 13.2702 8.49609 12.5605C8.64239 11.5343 9.11856 10.5826 9.85156 9.84961C10.5847 9.11671 11.5362 8.64028 12.5625 8.49414C13.2721 8.39333 13.9915 8.45606 14.668 8.66797C16.2476 7.70431 17.969 6.99357 19.7676 6.55859C20.0976 5.9321 20.5631 5.38175 21.1367 4.95312C21.9643 4.33498 22.9709 4 24.0039 4Z" fill="#FAFAFA"/>
</svg>
