<svg width="48" height="48" viewBox="0 0 48 48" fill="none" xmlns="http://www.w3.org/2000/svg">
<path fill-rule="evenodd" clip-rule="evenodd" d="M24.002 5.62695C23.1776 5.62695 22.3822 5.91381 21.75 6.43164L21.4902 6.66602L6.66602 21.4902C6.00099 22.1562 5.62719 23.0588 5.62695 24C5.62695 24.9415 6.00073 25.8455 6.66602 26.5117L21.4883 41.334C22.7891 42.6348 24.8487 42.7185 26.2441 41.5781L26.5137 41.334L41.3379 26.5117C42.0057 25.843 42.375 24.938 42.375 24C42.3748 23.0588 42.001 22.1562 41.3359 21.4902L26.5117 6.66602C25.8457 6.00094 24.9432 5.62719 24.002 5.62695ZM22.9414 16.377C23.5272 15.7912 24.4767 15.7912 25.0625 16.377C25.6482 16.9627 25.6482 17.9123 25.0625 18.498L21.0605 22.5H31.502C32.3304 22.5 33.002 23.1716 33.002 24C33.0018 24.8283 32.3303 25.5 31.502 25.5H21.0605L25.0625 29.502C25.6482 30.0877 25.6482 31.0373 25.0625 31.623C24.4767 32.2087 23.5272 32.2087 22.9414 31.623L16.3789 25.0605C16.3152 24.9968 16.2608 24.9269 16.2109 24.8555C16.1494 24.7672 16.0964 24.673 16.0547 24.5723C16.0131 24.4716 15.9836 24.3676 15.9648 24.2617C15.9498 24.1766 15.9395 24.0894 15.9395 24C15.9395 23.9093 15.9494 23.8206 15.9648 23.7344C15.9837 23.6292 16.0133 23.5257 16.0547 23.4258C16.0789 23.3675 16.1115 23.314 16.1426 23.2598C16.2074 23.1464 16.2822 23.0362 16.3789 22.9395L22.9414 16.377Z" fill="#FAFAFA"/>
</svg>
