<svg width="48" height="48" viewBox="0 0 48 48" fill="none" xmlns="http://www.w3.org/2000/svg">
<path fill-rule="evenodd" clip-rule="evenodd" d="M24.0002 28.0001C30.3301 28.0001 34.846 28.0869 37.549 28.1603L38.0139 28.1954C40.2896 28.4873 42.0001 30.4367 42.0002 32.7579V37.2443C41.9997 39.7196 40.053 41.7706 37.551 41.84C36.5105 41.8682 35.1991 41.8955 33.6213 41.922C33.6138 41.9225 33.6054 41.9256 33.5979 41.9259C33.5842 41.9264 33.5704 41.9218 33.5568 41.922C31.0456 41.9638 27.8598 42.0001 24.0002 42.0001C19.2815 42.0001 15.7136 41.9518 13.174 41.8966L10.9729 41.84C9.72879 41.8029 8.47324 41.348 7.55099 40.5001H7.50021V40.4494C6.80025 39.7852 6.29963 38.8904 6.16036 37.7716V37.7658C6.05042 36.8465 5.99621 35.9201 6.00021 34.9943C6.00045 33.9155 6.06472 32.9974 6.16036 32.2287L6.24435 31.756C6.4493 30.8547 6.90212 30.1187 7.50021 29.5509V29.2951H7.79513C8.68847 28.5804 9.83452 28.1942 10.9729 28.1603L13.174 28.1037C15.7136 28.0485 19.2815 28.0001 24.0002 28.0001ZM34.9846 31.0978C34.9535 32.1712 34.9279 33.4667 34.9279 35.0001V35.004C34.9258 35.8973 34.9338 36.7907 34.9514 37.6837L34.9885 38.8986C35.9391 38.8795 36.7655 38.861 37.467 38.8419L37.6252 38.8283C38.4008 38.7293 38.9997 38.068 39.0002 37.2443V32.7579C39.0001 31.8779 38.3176 31.1819 37.467 31.1583C36.7645 31.1393 35.9369 31.1167 34.9846 31.0978Z" fill="#FAFAFA"/>
<path d="M27.8108 6.8849C28.1216 6.19154 28.9137 5.83257 29.6506 6.07631C30.3879 6.32071 30.808 7.08217 30.6428 7.82435L30.6037 7.97279C29.8212 10.3336 30.1581 12.7795 32.2092 15.1662L32.6955 15.7638C35 18.7784 35.44 22.0893 34.3889 25.2579C34.128 26.0441 33.2786 26.4699 32.4924 26.2091C31.7065 25.948 31.2805 25.0987 31.5412 24.3126C32.275 22.1 32.024 19.8132 30.299 17.5685L29.9338 17.1212C27.2086 13.9502 26.6359 10.4066 27.7561 7.02748L27.8108 6.8849Z" fill="#FAFAFA"/>
<path d="M34.0959 6.8849C34.4068 6.19154 35.1989 5.83257 35.9358 6.07631C36.673 6.32071 37.0931 7.08217 36.9279 7.82435L36.8889 7.97279C36.1064 10.3336 36.4432 12.7795 38.4943 15.1662L38.9807 15.7638C41.2852 18.7784 41.7251 22.0893 40.674 25.2579C40.4131 26.0441 39.5638 26.4699 38.7775 26.2091C37.9917 25.948 37.5657 25.0987 37.8264 24.3126L37.9592 23.8693C38.5195 21.7953 38.1942 19.6636 36.5842 17.5685L36.219 17.1212C33.4937 13.9502 32.921 10.4066 34.0412 7.02748L34.0959 6.8849Z" fill="#FAFAFA"/>
</svg>
