<svg width="48" height="48" viewBox="0 0 48 48" fill="none" xmlns="http://www.w3.org/2000/svg">
<path d="M21.5996 20.7997C21.8118 20.7997 22.016 20.884 22.166 21.034C22.316 21.1841 22.4004 21.3883 22.4004 21.6005V33.9989C22.4019 34.5321 22.2242 35.051 21.8965 35.4715C21.5687 35.892 21.1091 36.1904 20.5918 36.3192C20.4202 36.3655 20.2692 36.4684 20.1621 36.6102C20.0549 36.7522 19.9974 36.9265 20 37.1044V41.6005C19.9998 42.0245 19.8311 42.4315 19.5312 42.7313C19.2312 43.0311 18.8245 43.2001 18.4004 43.2001C17.9763 43.2001 17.5695 43.0311 17.2695 42.7313C16.9697 42.4315 16.801 42.0245 16.8008 41.6005V37.1044C16.8033 36.9265 16.7459 36.7522 16.6387 36.6102C16.5316 36.4684 16.3806 36.3655 16.209 36.3192C15.6916 36.1904 15.232 35.892 14.9043 35.4715C14.5765 35.051 14.3989 34.5321 14.4004 33.9989V21.6005C14.4004 21.3883 14.4848 21.1841 14.6348 21.034C14.7848 20.884 14.989 20.7997 15.2012 20.7997H21.5996Z" fill="#FAFAFA"/>
<path d="M9.60156 10.3993C9.81328 10.3995 10.0162 10.484 10.166 10.6337C10.316 10.7837 10.4004 10.9879 10.4004 11.2001V27.9989C10.4004 29.2719 9.89432 30.4932 8.99414 31.3934C8.09417 32.2933 6.87422 32.7995 5.60156 32.7997C5.3894 32.7997 5.18518 32.7153 5.03516 32.5653C4.88513 32.4153 4.80078 32.2111 4.80078 31.9989V15.2001C4.80078 13.927 5.30686 12.7057 6.20703 11.8055C7.10719 10.9055 8.32861 10.3993 9.60156 10.3993Z" fill="#FAFAFA"/>
<path d="M28.8008 4.79967C29.0125 4.79984 29.2154 4.88441 29.3652 5.03405C29.5153 5.18408 29.5996 5.38828 29.5996 5.60046V21.6005C29.5995 21.8124 29.5151 22.015 29.3652 22.1649C29.2154 22.3148 29.0127 22.3991 28.8008 22.3993C27.8102 22.4297 26.827 22.2152 25.9395 21.7743C25.0519 21.3333 24.2871 20.6797 23.7129 19.8719C23.5642 19.6631 23.3668 19.4928 23.1387 19.3758C22.9104 19.2589 22.6569 19.1987 22.4004 19.2001H12.8008C12.6944 19.2001 12.5884 19.1788 12.4902 19.1376C12.3921 19.0964 12.303 19.0358 12.2285 18.9598C12.1541 18.8839 12.0959 18.793 12.0566 18.6942C12.0175 18.5955 11.9979 18.4899 12 18.3837V10.3837C11.9969 10.1985 12.0587 10.0173 12.1758 9.87389C12.2929 9.73043 12.4586 9.63445 12.6406 9.60046L23.3125 7.32702C23.6454 7.25784 23.9481 7.08542 24.1758 6.83288C24.7545 6.18093 25.4675 5.66017 26.2656 5.30944C27.0637 4.95872 27.9291 4.78511 28.8008 4.79967Z" fill="#FAFAFA"/>
<path d="M33.5996 4.79967C34.236 4.79978 34.8469 5.0528 35.2969 5.5028C35.7467 5.95284 36 6.56376 36 7.20007V19.9989C36 20.6352 35.7466 21.2461 35.2969 21.6962C34.8469 22.1462 34.236 22.3992 33.5996 22.3993H32C31.7878 22.3993 31.5836 22.3149 31.4336 22.1649C31.2839 22.0151 31.1995 21.8122 31.1992 21.6005V5.60046C31.1992 5.38831 31.2836 5.18407 31.4336 5.03405C31.5836 4.88402 31.7878 4.79967 32 4.79967H33.5996Z" fill="#FAFAFA"/>
<path d="M38.998 17.0399C39.3514 16.9245 39.7341 16.9352 40.0801 17.0712L42.4805 18.6708H42.5605C42.7564 18.7758 42.9277 18.9214 43.0645 19.0965C43.2013 19.2719 43.3011 19.4746 43.3555 19.6903C43.4098 19.906 43.4182 20.1312 43.3809 20.3505C43.3433 20.5699 43.2597 20.7801 43.1367 20.9657C43.0138 21.1511 42.8533 21.3086 42.666 21.4286C42.4787 21.5485 42.2687 21.6289 42.0488 21.663C41.8288 21.697 41.6037 21.6855 41.3887 21.6278C41.1738 21.5701 40.9741 21.4666 40.8008 21.327L38.4004 19.7274C38.129 19.4729 37.9552 19.1316 37.9082 18.7626C37.8613 18.3936 37.9438 18.0203 38.1426 17.7059C38.3415 17.3915 38.6444 17.1556 38.998 17.0399Z" fill="#FAFAFA"/>
<path d="M41.5996 11.9989C42.0237 11.9989 42.4305 12.168 42.7305 12.4676C43.0305 12.7677 43.1992 13.1761 43.1992 13.6005C43.199 14.0245 43.0304 14.4314 42.7305 14.7313C42.4304 15.0311 42.0238 15.2001 41.5996 15.2001H39.1992C38.7751 15.2 38.3683 15.0312 38.0684 14.7313C37.7685 14.4314 37.5998 14.0245 37.5996 13.6005C37.5996 13.1761 37.7683 12.7677 38.0684 12.4676C38.3683 12.1679 38.7752 11.999 39.1992 11.9989H41.5996Z" fill="#FAFAFA"/>
<path d="M41.8672 5.72936C42.2535 5.82661 42.5903 6.06538 42.8105 6.39733C43.0306 6.72946 43.1194 7.1325 43.0586 7.52624C42.9975 7.92019 42.7909 8.27811 42.4805 8.52819L40.0801 10.1278C39.7289 10.316 39.32 10.3676 38.9336 10.2704C38.5471 10.173 38.2104 9.93459 37.9902 9.60241C37.7701 9.27022 37.6832 8.86731 37.7441 8.4735C37.8052 8.07963 38.01 7.72162 38.3203 7.47155L40.7207 5.87194C41.0718 5.68363 41.4808 5.63232 41.8672 5.72936Z" fill="#FAFAFA"/>
</svg>
