<svg width="48" height="48" viewBox="0 0 48 48" fill="none" xmlns="http://www.w3.org/2000/svg">
<path fill-rule="evenodd" clip-rule="evenodd" d="M17.6963 36.9414L17.6578 36.8196C17.6726 36.859 17.6854 36.8997 17.6963 36.9414Z" fill="white"/>
<path fill-rule="evenodd" clip-rule="evenodd" d="M17.6963 36.9414L17.6578 36.8196C17.6726 36.859 17.6854 36.8997 17.6963 36.9414Z" fill="white"/>
<path d="M17.6963 36.9414L17.6578 36.8196C17.2296 35.4414 17.0059 33.9935 17.0059 32.5221C17.0061 28.7105 18.5078 25.0575 21.1761 22.365C23.8442 19.6728 27.4602 18.1612 31.2295 18.161C31.9552 18.161 32.6753 18.2171 33.3841 18.3268L33.5042 18.3459C33.6406 18.3619 33.7815 18.3594 33.9238 18.3359C34.741 18.2013 35.2944 17.4304 35.1602 16.6133C35.1023 16.262 35.0321 15.9139 34.95 15.5693C34.2163 12.4923 32.5268 9.70513 30.0996 7.62499C27.1668 5.11188 23.3806 3.82054 19.5234 4.01952C15.6661 4.21852 12.0317 5.89345 9.37305 8.6953C6.71527 11.4968 5.23507 15.2126 5.23829 19.0742L5.25001 19.5098C5.36899 21.7138 6.36066 24.2834 7.6211 26.7715C8.99321 29.4798 10.8007 32.3098 12.5586 34.8359C13.106 35.6226 13.6501 36.3831 14.1777 37.1035C14.4339 37.4532 14.6864 37.7942 14.9332 38.1242L15.0508 38.2812C15.5479 38.9439 16.4877 39.0772 17.1504 38.5801C17.6502 38.2049 17.8389 37.4875 17.6963 36.9414Z" fill="white"/>
<path fill-rule="evenodd" clip-rule="evenodd" d="M31.3965 21.2754C34.4097 21.2755 37.299 22.473 39.4297 24.6035C41.5605 26.7344 42.7578 29.6251 42.7578 32.6387C42.7576 35.6519 41.5604 38.5411 39.4297 40.6719C37.2989 42.8026 34.4098 43.9998 31.3965 44C28.383 44 25.4922 42.8027 23.3613 40.6719C21.2309 38.5412 20.0334 35.6517 20.0332 32.6387C20.0332 29.6251 21.2305 26.7344 23.3613 24.6035C25.4922 22.4726 28.3829 21.2754 31.3965 21.2754ZM31.3965 27.2109C32.2243 27.2115 32.8962 27.8831 32.8965 28.7109V31.1367H35.3184C36.1463 31.1372 36.8182 31.8087 36.8184 32.6367C36.8184 33.4648 36.1463 34.1362 35.3184 34.1367H32.8965V36.5586C32.8965 37.3867 32.2245 38.0581 31.3965 38.0586C30.5681 38.0586 29.8965 37.387 29.8965 36.5586V34.1367H27.4707C26.6423 34.1367 25.9707 33.4651 25.9707 32.6367C25.9708 31.8084 26.6424 31.1367 27.4707 31.1367H29.8965V28.7109C29.8968 27.8828 30.5683 27.2109 31.3965 27.2109Z" fill="white"/>
</svg>
