<svg width="48" height="48" viewBox="0 0 48 48" fill="none" xmlns="http://www.w3.org/2000/svg">
<path fill-rule="evenodd" clip-rule="evenodd" d="M38.3086 4.00781C41.4789 4.16843 44 6.78979 44 10V38L43.9922 38.3086C43.8368 41.3767 41.3767 43.8368 38.3086 43.9922L38 44H10L9.69141 43.9922C6.62332 43.8368 4.16325 41.3767 4.00781 38.3086L4 38V10C4 6.78979 6.52111 4.16843 9.69141 4.00781L10 4H38L38.3086 4.00781ZM12.8008 31.1094C11.9724 31.1094 11.3008 31.7809 11.3008 32.6094C11.301 33.4376 11.9725 34.1094 12.8008 34.1094H18.8008C19.629 34.1094 20.3005 33.4376 20.3008 32.6094C20.3008 31.7809 19.6292 31.1094 18.8008 31.1094H12.8008ZM29.1973 31.1094C28.3688 31.1094 27.6973 31.7809 27.6973 32.6094C27.6975 33.4376 28.369 34.1094 29.1973 34.1094H35.1973C36.0255 34.1094 36.697 33.4376 36.6973 32.6094C36.6973 31.7809 36.0257 31.1094 35.1973 31.1094H29.1973ZM24 13.8906C23.1717 13.8906 22.5003 14.5624 22.5 15.3906V21.3906C22.5 22.2191 23.1716 22.8906 24 22.8906C24.828 22.8901 25.5 22.2187 25.5 21.3906V15.3906C25.4997 14.5627 24.8278 13.8912 24 13.8906Z" fill="#FAFAFA"/>
</svg>
