<svg width="48" height="48" viewBox="0 0 48 48" fill="none" xmlns="http://www.w3.org/2000/svg">
<path d="M15.7249 42.375H9.52375C9.0109 42.3749 8.50416 42.2581 8.04328 42.0332C7.58247 41.8082 7.17911 41.4804 6.86359 41.0762C6.54808 40.6718 6.32724 40.201 6.22101 39.6992C6.1148 39.1974 6.12568 38.6773 6.25031 38.1797L7.17023 34.5H16.9046L15.7249 42.375Z" fill="#FAFAFA"/>
<path d="M29.3284 42.375H18.7601L19.9417 34.5H28.5413L29.3284 42.375Z" fill="#FAFAFA"/>
<path d="M41.7484 38.1797C41.873 38.6773 41.8819 39.1973 41.7757 39.6992C41.6695 40.2008 41.4504 40.6719 41.1351 41.0762C40.8195 41.4805 40.4144 41.8082 39.9534 42.0332C39.6077 42.2018 39.2362 42.3102 38.8558 42.3535L38.473 42.375H32.3421L31.555 34.5H40.8284L41.7484 38.1797Z" fill="#FAFAFA"/>
<path d="M17.3558 31.5H7.92023L9.06281 26.9297C9.24564 26.2001 9.6672 25.5527 10.2601 25.0898C10.8531 24.6271 11.584 24.3751 12.3362 24.375H18.4241L17.3558 31.5Z" fill="#FAFAFA"/>
<path d="M28.2405 31.5H20.3909L21.4593 24.375H27.5296L28.2405 31.5Z" fill="#FAFAFA"/>
<path d="M35.9417 24.3867C36.5936 24.4411 37.2177 24.685 37.7366 25.0898C38.3297 25.5527 38.753 26.1999 38.9359 26.9297L40.0784 31.5H31.2562L30.5433 24.375H35.6605L35.9417 24.3867Z" fill="#FAFAFA"/>
<path d="M23.9984 16.875C24.8268 16.875 25.4984 17.5466 25.4984 18.375V20.25C25.4984 21.0784 24.8268 21.75 23.9984 21.75C23.1701 21.7498 22.4984 21.0783 22.4984 20.25V18.375C22.4984 17.5467 23.1701 16.8752 23.9984 16.875Z" fill="#FAFAFA"/>
<path d="M32.6878 13.9395C33.2735 13.3537 34.2231 13.3538 34.8089 13.9395L36.1351 15.2656C36.7203 15.8515 36.7207 16.8011 36.1351 17.3867C35.5495 17.9722 34.5998 17.9719 34.014 17.3867L32.6878 16.0605C32.1022 15.4748 32.1022 14.5252 32.6878 13.9395Z" fill="#FAFAFA"/>
<path d="M13.1878 13.9395C13.7735 13.3537 14.7231 13.3538 15.3089 13.9395C15.8947 14.5252 15.8947 15.4748 15.3089 16.0605L13.9964 17.373C13.4106 17.9587 12.461 17.9588 11.8753 17.373C11.2897 16.7873 11.2897 15.8377 11.8753 15.252L13.1878 13.9395Z" fill="#FAFAFA"/>
<path d="M31.4984 3.75C32.3268 3.75 32.9984 4.42157 32.9984 5.25C32.9984 7.63695 32.0495 9.92545 30.3616 11.6133C28.6738 13.301 26.3852 14.25 23.9984 14.25C21.6115 14.2499 19.3228 13.301 17.6351 11.6133C15.9473 9.92547 14.9984 7.63687 14.9984 5.25C14.9984 4.42168 15.6701 3.75018 16.4984 3.75H31.4984Z" fill="#FAFAFA"/>
<path d="M10.8734 5.625C11.7018 5.625 12.3734 6.29657 12.3734 7.125C12.3734 7.95343 11.7018 8.625 10.8734 8.625H8.99836C8.17008 8.62482 7.49836 7.95332 7.49836 7.125C7.49836 6.29668 8.17008 5.62518 8.99836 5.625H10.8734Z" fill="#FAFAFA"/>
<path d="M38.9984 5.625C39.8268 5.625 40.4984 6.29657 40.4984 7.125C40.4984 7.95343 39.8268 8.625 38.9984 8.625H37.1234C36.2951 8.62482 35.6234 7.95332 35.6234 7.125C35.6234 6.29668 36.2951 5.62518 37.1234 5.625H38.9984Z" fill="#FAFAFA"/>
</svg>
