<svg width="48" height="48" viewBox="0 0 48 48" fill="none" xmlns="http://www.w3.org/2000/svg">
<path d="M11.5 6C8.46243 6 6 8.46243 6 11.5V14.3431C6 15.8018 6.57946 17.2008 7.61091 18.2322L17.2678 27.8891C17.7366 28.3579 18 28.9938 18 29.6569V42.5C18 42.9687 18.2191 43.4105 18.5923 43.6942C18.9655 43.9778 19.4498 44.0707 19.9015 43.9453L28.9015 41.4453C29.5507 41.2649 30 40.6738 30 40V29.6569C30 28.9938 30.2634 28.3579 30.7322 27.8891L40.3891 18.2322C41.4205 17.2008 42 15.8018 42 14.3431V11.5C42 8.46243 39.5376 6 36.5 6H11.5Z" fill="#FAFAFA"/>
</svg>
