<svg width="48" height="48" viewBox="0 0 48 48" fill="none" xmlns="http://www.w3.org/2000/svg">
<path d="M33.5661 20.7739C33.8746 20.7648 34.1815 20.8293 34.4665 20.9536L34.4685 20.9497C37.1207 22.0779 39.3474 24.0193 40.8239 26.4946C42.2927 28.9571 42.9419 31.8213 42.6853 34.6763C42.6349 36.9989 41.6924 39.2137 40.0485 40.8579C38.3871 42.5194 36.1422 43.4685 33.7927 43.5005H33.7732C31.4084 43.5005 29.1391 42.5609 27.4665 40.8892C25.8982 39.3212 24.9746 37.2284 24.865 35.0239L24.8532 34.5825C24.7738 33.0826 25.1132 31.5892 25.8376 30.272C26.5777 28.9267 27.6875 27.8209 29.0349 27.0845L29.1989 27.0063C29.5929 26.8498 30.0392 26.8653 30.4236 27.0571C30.8626 27.2766 31.1673 27.6983 31.238 28.1841C31.289 28.5348 31.471 28.8534 31.7478 29.0747C31.8139 29.1276 31.8851 29.1738 31.9587 29.2134C32.2257 28.5034 32.3793 27.7534 32.404 26.9907C32.4397 25.8855 32.2113 24.787 31.738 23.7876L31.74 23.7856C31.5567 23.406 31.4899 22.9806 31.5525 22.563L31.6247 22.2446C31.7219 21.9354 31.8918 21.6519 32.1189 21.4165L32.3611 21.1997C32.6195 21.0041 32.9224 20.8692 33.2439 20.8091L33.5661 20.7739Z" fill="#FAFAFA"/>
<path fill-rule="evenodd" clip-rule="evenodd" d="M16.3923 5.21924C19.2858 4.31858 22.3768 4.26394 25.3005 5.06104C28.2241 5.85839 30.8604 7.47447 32.8962 9.71924C34.9319 11.9643 36.2842 14.7453 36.7927 17.7329C36.9314 18.5492 36.3822 19.3241 35.5661 19.4634C35.5107 19.4728 35.455 19.4777 35.4001 19.481C35.3734 19.4842 35.3472 19.4928 35.32 19.4946C35.3072 19.4973 35.2666 19.5054 35.1911 19.5259C35.0436 19.566 34.8561 19.6248 34.6032 19.7036C34.1257 19.8525 33.4715 20.0576 32.7907 20.1958C32.1256 20.3308 31.3054 20.4305 30.5095 20.2935C29.665 20.1479 28.7662 19.7131 28.2126 18.7446C27.9909 18.3566 27.8496 17.8998 27.7732 17.6274C27.7302 17.4744 27.6981 17.3384 27.6755 17.2407L27.6482 17.1216L27.5759 16.8833C27.3472 16.0296 27.2994 15.1358 27.4392 14.2603C27.5989 13.2594 27.9991 12.3123 28.6032 11.4985L29.3591 10.4771C27.9472 9.30456 26.2955 8.44215 24.5114 7.95557C22.1396 7.3089 19.6323 7.35393 17.2849 8.08447C16.6222 8.29077 15.9792 8.54894 15.363 8.85596L21.2107 11.0767C22.076 11.4022 22.7967 12.0243 23.2458 12.8325C23.6953 13.642 23.842 14.5868 23.6599 15.4946L23.1599 18.0024C23.0153 18.7264 22.6672 19.3957 22.1579 19.9302C21.712 20.3978 21.1562 20.746 20.5446 20.9458L20.279 21.022L17.697 21.6665L16.1364 25.5728C15.6635 26.7554 14.8405 27.7681 13.781 28.4751L13.7653 28.4849L12.0642 29.5864C12.706 30.2189 13.4147 30.7868 14.1814 31.2759C16.2544 32.5979 18.664 33.3019 21.1228 33.3013C21.9502 33.3019 22.6221 33.9718 22.6228 34.7993C22.6228 35.6273 21.9507 36.3006 21.1228 36.3013C18.0922 36.3021 15.1233 35.4347 12.5681 33.8052C10.0133 32.1756 7.97619 29.85 6.69894 27.1021C5.42174 24.3539 4.95755 21.2972 5.3591 18.2935C5.76091 15.2895 7.01182 12.4612 8.96652 10.145C10.9213 7.8289 13.4985 6.12013 16.3923 5.21924ZM31.0114 13.2876L31.0095 13.2856C30.6933 13.7117 30.4857 14.209 30.4021 14.7329C30.3794 14.875 30.394 15.2473 30.4568 15.7271C30.4841 15.936 30.5145 16.1261 30.5388 16.2642C30.5474 16.3133 30.554 16.3558 30.5603 16.3892L30.8591 17.2876C30.8846 17.3 30.9332 17.3236 31.0193 17.3384C31.2755 17.3823 31.6681 17.3609 32.1931 17.2544C32.64 17.1637 33.0915 17.0294 33.5271 16.895C33.0977 15.3787 32.3978 13.9519 31.4548 12.688L31.0114 13.2876Z" fill="#FAFAFA"/>
<path d="M31.0114 13.2876L31.0095 13.2856C30.6933 13.7117 30.4857 14.209 30.4021 14.7329C30.3794 14.875 30.394 15.2473 30.4568 15.7271C30.4841 15.936 30.5145 16.1261 30.5388 16.2642C30.5474 16.3133 30.554 16.3558 30.5603 16.3892L30.8591 17.2876C30.8846 17.3 30.9332 17.3236 31.0193 17.3384C31.2755 17.3823 31.6681 17.3609 32.1931 17.2544C32.64 17.1637 33.0915 17.0294 33.5271 16.895C33.0977 15.3787 32.3978 13.9519 31.4548 12.688L31.0114 13.2876Z" fill="#FAFAFA"/>
</svg>
