<svg width="48" height="48" viewBox="0 0 48 48" fill="none" xmlns="http://www.w3.org/2000/svg">
<path d="M40.9121 14.7729C40.2944 14.2218 39.3447 14.2746 38.793 14.8921C38.2414 15.5095 38.2952 16.4592 38.9121 17.0112C40.3514 18.2973 40.9998 19.8307 41 21.2886C40.9998 22.7464 40.3514 24.2798 38.9121 25.5659C38.2956 26.1177 38.2424 27.0656 38.793 27.6831C39.3449 28.3008 40.2944 28.354 40.9121 27.8022C42.9228 26.0054 43.9998 23.6843 44 21.2886C43.9998 18.8927 42.923 16.5698 40.9121 14.7729Z" fill="#FAFAFA"/>
<path d="M9.21094 14.8921C8.65911 14.2746 7.70951 14.2215 7.0918 14.7729C5.08091 16.5698 4.00408 18.8927 4.00391 21.2886C4.0041 23.6843 5.08113 26.0054 7.0918 27.8022C7.70953 28.3542 8.65894 28.3008 9.21094 27.6831C9.76184 27.0656 9.70863 26.1177 9.0918 25.5659C7.65256 24.2798 7.0041 22.7464 7.00391 21.2886C7.00408 19.8307 7.65254 18.2973 9.0918 17.0112C9.70899 16.4592 9.76274 15.5096 9.21094 14.8921Z" fill="#FAFAFA"/>
<path d="M35.3906 17.019C34.7784 16.4613 33.8295 16.5066 33.2715 17.1187C32.7488 17.6925 32.753 18.5622 33.2598 19.1284L33.627 19.4956C34.1828 20.1011 34.4023 20.7301 34.4023 21.2886C34.4023 21.8472 34.1831 22.4776 33.627 23.0835L33.2598 23.4507C32.7536 24.0171 32.7487 24.8869 33.2715 25.4604C33.8296 26.0719 34.7786 26.1159 35.3906 25.5581C36.672 24.3902 37.4023 22.8856 37.4023 21.2886C37.4023 19.6917 36.6718 18.187 35.3906 17.019Z" fill="#FAFAFA"/>
<path d="M14.7324 17.1187C14.1744 16.5068 13.2254 16.4614 12.6133 17.019C11.3323 18.1869 10.6016 19.6918 10.6016 21.2886C10.6016 22.8855 11.3321 24.3902 12.6133 25.5581C13.2252 26.1158 14.1743 26.0717 14.7324 25.4604C15.2553 24.8868 15.2505 24.0171 14.7441 23.4507L14.377 23.0835C13.821 22.4777 13.6016 21.8471 13.6016 21.2886C13.6016 20.7302 13.8213 20.101 14.377 19.4956L14.7441 19.1284C15.2511 18.5622 15.2552 17.6926 14.7324 17.1187Z" fill="#FAFAFA"/>
<path fill-rule="evenodd" clip-rule="evenodd" d="M14.5 3.99951C13.6718 3.99951 13.0004 4.67139 13 5.49951C13 6.32794 13.6716 6.99951 14.5 6.99951H16.0117V8.80029C16.0117 10.066 16.5067 11.2868 17.3945 12.189C18.2833 13.0917 19.4945 13.603 20.7617 13.603H27.2617C28.529 13.603 29.74 13.0918 30.6289 12.189C31.5169 11.2867 32.0117 10.0661 32.0117 8.80029V6.99951H33.5C34.3282 6.99925 35 6.32778 35 5.49951C34.9996 4.67156 34.328 3.99978 33.5 3.99951H14.5Z" fill="#FAFAFA"/>
<path fill-rule="evenodd" clip-rule="evenodd" d="M23.998 16.6147C22.5232 16.6152 21.1074 17.2007 20.0645 18.2437C19.0216 19.2867 18.4359 20.7023 18.4355 22.1772C18.4355 23.6353 19.0109 25.0341 20.0312 26.0737C19.7914 26.2552 19.5627 26.4543 19.3477 26.6694C18.1142 27.903 17.4202 29.5754 17.4199 31.3198V34.3687C17.4202 35.1967 18.0919 35.8684 18.9199 35.8687H19.627L20.4785 42.6812C20.5724 43.4313 21.2109 43.9951 21.9668 43.9956H26.0312C26.7874 43.9953 27.4256 43.4314 27.5195 42.6812L28.3711 35.8687H29.0781C29.9064 35.8687 30.5779 35.1969 30.5781 34.3687V31.3198C30.5779 29.5753 29.884 27.903 28.6504 26.6694C28.4355 26.4546 28.2083 26.255 27.9688 26.0737C28.9891 25.0341 29.5625 23.6353 29.5625 22.1772C29.5622 20.7023 28.9765 19.2867 27.9336 18.2437C26.8903 17.2008 25.4732 16.6147 23.998 16.6147Z" fill="#FAFAFA"/>
</svg>
