<svg width="48" height="48" viewBox="0 0 48 48" fill="none" xmlns="http://www.w3.org/2000/svg">
<path d="M15.0572 3.3125C17.6939 3.31271 20.2238 4.36027 22.0884 6.22461C23.143 7.27927 23.9362 8.54661 24.4263 9.92578C24.8394 9.23985 25.3372 8.60097 25.9126 8.02539C27.7772 6.16079 30.307 5.11352 32.9439 5.11328H35.5259C36.5961 5.1135 37.5999 6.00609 37.4634 7.22266C37.213 9.45107 36.2148 11.5434 34.6138 13.1445C32.7493 15.0087 30.2192 16.0564 27.5826 16.0566H25.5005V19.0547C27.8665 19.3981 30.0513 20.5436 31.6802 22.3105C33.0674 23.8156 33.9687 25.6861 34.2994 27.6816L36.1958 25.7891L36.1978 25.7871C36.6907 25.296 37.2772 24.9077 37.9204 24.6426C38.5635 24.3776 39.2523 24.241 39.9478 24.2422C40.6436 24.2434 41.3328 24.3811 41.9751 24.6484C42.6175 24.9158 43.2008 25.3079 43.6919 25.8008C44.1829 26.2935 44.5714 26.8784 44.8365 27.5215C45.1016 28.1648 45.2381 28.855 45.2369 29.5508C45.2355 30.246 45.0977 30.9343 44.8306 31.5762C44.5636 32.2176 44.1701 32.7984 43.6783 33.2891L43.6802 33.291L34.8501 42.123C33.8791 43.0956 32.7253 43.8666 31.4556 44.3926C30.1863 44.9183 28.8256 45.1885 27.4517 45.1875H13.2583C12.4299 45.1875 11.7583 44.5159 11.7583 43.6875C11.7584 42.8591 12.4299 42.1875 13.2583 42.1875H27.4517C28.4312 42.1884 29.4022 41.9959 30.3072 41.6211C31.2123 41.2462 32.035 40.6953 32.7271 40.002L41.5611 31.168C41.7747 30.955 41.9452 30.7023 42.0611 30.4238C42.177 30.1453 42.2363 29.8466 42.2369 29.5449C42.2374 29.2431 42.178 28.9431 42.063 28.6641C41.948 28.3854 41.7798 28.1315 41.5669 27.918C41.354 27.7043 41.1012 27.534 40.8228 27.418C40.5442 27.302 40.2437 27.2427 39.9419 27.2422C39.6404 27.2418 39.3418 27.3011 39.063 27.416C38.7842 27.5309 38.5306 27.6994 38.3169 27.9121L34.0767 32.1504L34.0708 32.1777L33.774 32.4531L29.815 36.4141C28.8628 37.3662 27.5967 37.9263 26.2603 38.0078C26.1687 38.0149 26.0769 38.0194 25.9849 38.0215C25.9654 38.0217 25.9458 38.0254 25.9263 38.0254H25.8755V38.0215C25.851 38.0227 25.8262 38.0254 25.8013 38.0254H16.8384C16.0102 38.0253 15.3387 37.3535 15.3384 36.5254C15.3384 35.697 16.0101 35.0255 16.8384 35.0254H25.8013C25.8255 35.0254 25.8497 35.0262 25.8736 35.0273C26.1759 35.0269 26.4745 34.9577 26.7486 34.8301C27.0228 34.7023 27.2665 34.5164 27.4615 34.2852C27.6565 34.0539 27.7999 33.7821 27.8794 33.4902C27.9563 33.2076 27.9695 32.9122 27.9244 32.623C27.8125 32.1208 27.5346 31.6702 27.1314 31.3496C26.7205 31.023 26.2069 30.8502 25.6822 30.8613L25.6665 30.8633H18.2876L17.9732 30.707L16.229 29.8438C14.9889 29.2285 13.5974 28.9816 12.2212 29.1328C10.8451 29.2842 9.5403 29.8273 8.46342 30.6973L8.45756 30.7012C7.6211 31.3723 6.94893 32.2257 6.49076 33.1953C6.03249 34.1654 5.80005 35.2279 5.81303 36.3008V36.5254C5.81285 37.3536 5.1413 38.0253 4.31303 38.0254C3.485 38.0251 2.81321 37.3535 2.81303 36.5254V36.3184C2.79743 34.7965 3.12776 33.2903 3.77787 31.9141C4.34894 30.7053 5.15436 29.6243 6.14506 28.7324L6.58061 28.3613C8.10336 27.132 9.94771 26.3644 11.8931 26.1504C12.6214 26.0703 13.3529 26.0671 14.0747 26.1426C14.7225 24.1631 15.9514 22.4099 17.6177 21.123C19.0505 20.0167 20.7351 19.3111 22.5005 19.0547V14.2559H20.4185C17.7817 14.2555 15.2518 13.2083 13.3872 11.3438C11.7862 9.74242 10.7878 7.65055 10.5376 5.42188C10.4012 4.20554 11.4051 3.31301 12.4751 3.3125H15.0572Z" fill="#FAFAFA"/>
</svg>
