<svg width="48" height="48" viewBox="0 0 48 48" fill="none" xmlns="http://www.w3.org/2000/svg">
<path d="M43.2005 24.2082C43.0885 23.7922 40.5765 14.0002 34.4165 14.0002C32.7285 13.9625 31.0826 14.53 29.7765 15.6002C28.8799 14.9772 27.8922 14.4969 26.8485 14.1762C27.5425 13.0444 27.9439 11.7578 28.0165 10.4322C28.0523 9.23094 27.6722 8.05418 26.9405 7.10086C26.2087 6.14754 25.1702 5.47615 24.0005 5.2002C22.8283 5.48037 21.7892 6.15787 21.06 7.11751C20.3308 8.07716 19.9564 9.25973 20.0005 10.4642C20.0732 11.7898 20.4746 13.0764 21.1685 14.2082C20.1249 14.5289 19.1372 15.0092 18.2405 15.6322C16.9345 14.562 15.2886 13.9945 13.6005 14.0322C7.44054 14.0002 4.92854 23.7922 4.80054 24.2082C4.76186 24.3653 4.77173 24.5305 4.82886 24.6819C4.88599 24.8333 4.98769 24.9638 5.12054 25.0562C5.2536 25.1436 5.40933 25.1902 5.56854 25.1902C5.72774 25.1902 5.88347 25.1436 6.01654 25.0562C8.39522 23.5783 10.9697 22.4419 13.6645 21.6802C13.0863 23.2973 12.7939 25.0028 12.8005 26.7202C12.8 28.3521 13.0648 29.9733 13.5845 31.5202C12.6513 31.9351 11.8551 32.6065 11.2886 33.4563C10.7221 34.306 10.4086 35.2992 10.3845 36.3202C10.351 37.6201 10.6749 38.9044 11.321 40.0329C11.9671 41.1614 12.9105 42.0909 14.0485 42.7202C14.1588 42.7708 14.279 42.7962 14.4003 42.7945C14.5216 42.7929 14.641 42.7642 14.7498 42.7105C14.8586 42.6569 14.9541 42.5796 15.0293 42.4844C15.1045 42.3892 15.1575 42.2785 15.1845 42.1602C15.5946 40.4776 16.2411 38.8615 17.1045 37.3602C18.8729 39.4612 21.3059 40.895 24.0005 41.4242C26.6952 40.895 29.1282 39.4612 30.8965 37.3602C31.76 38.8615 32.4064 40.4776 32.8165 42.1602C32.8435 42.2785 32.8966 42.3892 32.9718 42.4844C33.047 42.5796 33.1425 42.6569 33.2513 42.7105C33.3601 42.7642 33.4795 42.7929 33.6008 42.7945C33.7221 42.7962 33.8423 42.7708 33.9525 42.7202C35.0754 42.0952 36.0076 41.1773 36.65 40.0644C37.2924 38.9514 37.6209 37.6851 37.6005 36.4002C37.5765 35.3792 37.263 34.386 36.6964 33.5363C36.1299 32.6865 35.3337 32.0151 34.4005 31.6002C34.9203 30.0533 35.1851 28.4321 35.1845 26.8002C35.1906 25.0919 34.8926 23.3961 34.3045 21.7922C36.9931 22.5639 39.5655 23.6941 41.9525 25.1522C42.0872 25.241 42.2456 25.287 42.4069 25.2842C42.5681 25.2814 42.7248 25.2299 42.8563 25.1365C42.9878 25.0431 43.088 24.912 43.1437 24.7607C43.1994 24.6093 43.2081 24.4446 43.1685 24.2882L43.2005 24.2082ZM16.0005 26.7202C15.9958 24.9433 16.4067 23.1899 17.2005 21.6002L19.8885 23.6162L16.0005 27.4722V26.7202ZM24.0005 16.9762C25.0466 16.9964 26.0759 17.2428 27.0177 17.6985C27.9596 18.1542 28.7915 18.8084 29.4565 19.6162L24.2405 23.5202C24.1724 23.5747 24.0878 23.6044 24.0005 23.6044C23.9133 23.6044 23.8286 23.5747 23.7605 23.5202L18.5445 19.6162C19.2095 18.8084 20.0415 18.1542 20.9833 17.6985C21.9251 17.2428 22.9545 16.9964 24.0005 16.9762ZM29.9365 33.4402L27.2005 30.7522L29.9365 28.8002C29.9365 28.8002 31.3605 30.1922 31.5365 30.2402C31.1709 31.3828 30.6313 32.4622 29.9365 33.4402ZM24.2405 29.9522C24.1724 30.0067 24.0878 30.0364 24.0005 30.0364C23.9133 30.0364 23.8286 30.0067 23.7605 29.9522L19.7765 27.2002L21.8245 25.1522L22.3205 25.5202C22.8052 25.8837 23.3947 26.0802 24.0005 26.0802C24.6064 26.0802 25.1959 25.8837 25.6805 25.5202L26.1765 25.1522L28.2245 27.2002L24.2405 29.9522ZM18.0645 33.4402C17.3698 32.4622 16.8301 31.3828 16.4645 30.2402C16.5765 30.2402 18.0645 28.8002 18.0645 28.8002L20.8005 30.7522L18.0645 33.4402ZM19.6645 35.3122L22.8645 32.1122C23.2533 32.3017 23.6801 32.4002 24.1125 32.4002C24.545 32.4002 24.9718 32.3017 25.3605 32.1122L28.5605 35.3122C27.3131 36.6551 25.7436 37.6574 24.0005 38.2242C22.312 37.6396 20.7985 36.6379 19.6005 35.3122H19.6645ZM32.0005 27.4722L28.1285 23.6162L30.8165 21.6002C31.6048 23.1913 32.0103 24.9446 32.0005 26.7202V27.4722Z" fill="#FAFAFA"/>
</svg>
