<svg width="48" height="48" viewBox="0 0 48 48" fill="none" xmlns="http://www.w3.org/2000/svg">
<path fill-rule="evenodd" clip-rule="evenodd" d="M24 5.625C28.8734 5.625 33.5462 7.56183 36.9922 11.0078C40.4382 14.4538 42.375 19.1266 42.375 24L42.3516 24.9121C42.126 29.4534 40.2226 33.7618 36.9922 36.9922C33.7618 40.2226 29.4534 42.126 24.9121 42.3516L24 42.375C19.1266 42.375 14.4538 40.4382 11.0078 36.9922C7.56183 33.5462 5.625 28.8734 5.625 24C5.625 19.1266 7.56183 14.4538 11.0078 11.0078C14.4538 7.56183 19.1266 5.625 24 5.625ZM31.0605 16.9395C30.6218 16.5007 29.9577 16.377 29.3906 16.6289L15.3906 22.8516C14.8059 23.1115 14.4508 23.7141 14.5059 24.3516C14.5612 24.9894 15.0156 25.5225 15.6367 25.6777L20.9844 27.0137L22.3223 32.3633C22.4775 32.9844 23.0106 33.4388 23.6484 33.4941C24.286 33.5492 24.8885 33.1941 25.1484 32.6094L31.3711 18.6094C31.623 18.0423 31.4993 17.3782 31.0605 16.9395Z" fill="#FAFAFA"/>
</svg>
