<svg width="48" height="48" viewBox="0 0 48 48" fill="none" xmlns="http://www.w3.org/2000/svg">
<path d="M15.0391 25.502C15.3211 31.0889 17.1426 35.3594 18.9785 38.2969C19.3869 38.9503 19.7967 39.5371 20.1895 40.0586C13.3857 38.4501 8.21091 32.6299 7.56836 25.502H15.0391Z" fill="#FAFAFA"/>
<path d="M40.2871 26.625C39.2307 33.2353 34.2531 38.5355 27.8105 40.0586C28.2033 39.5371 28.6131 38.9503 29.0215 38.2969C30.7323 35.5595 32.4292 31.6643 32.8809 26.625H40.2871Z" fill="#FAFAFA"/>
<path d="M25.9688 25.502C26.2111 25.6652 26.4493 25.8028 26.6758 25.916L27.2246 26.1582C27.7562 26.3659 28.2349 26.4756 28.5918 26.5352C28.8532 26.5787 29.0751 26.5987 29.2246 26.6094L29.4551 26.6211C29.4339 26.6204 29.4171 26.6196 29.4082 26.6191H29.4023C29.4068 26.6194 29.4237 26.6202 29.4434 26.6211C29.465 26.6221 29.5018 26.6243 29.5469 26.625H29.8672C29.4287 30.9959 27.9497 34.3531 26.4785 36.707C25.6002 38.1123 24.7251 39.1615 24.0781 39.8516C24.0522 39.8792 24.0251 39.9052 24 39.9316C23.9749 39.9052 23.9478 39.8792 23.9219 39.8516C23.2749 39.1615 22.3998 38.1123 21.5215 36.707C19.9267 34.1553 18.3202 30.4249 18.043 25.502H25.9688Z" fill="#FAFAFA"/>
<path fill-rule="evenodd" clip-rule="evenodd" d="M35.25 3.75C36.6424 3.75 37.9783 4.30254 38.9629 5.28711C39.9475 6.27167 40.5 7.60761 40.5 9V11.25H40.9043C40.916 11.2502 40.9299 11.2514 40.9453 11.252C40.9767 11.253 41.0167 11.2545 41.0625 11.2578C41.1535 11.2643 41.2738 11.2755 41.4141 11.2988C41.6879 11.3445 42.0763 11.4396 42.4824 11.6426C42.8947 11.8487 43.3536 12.1817 43.7051 12.709C44.0629 13.2456 44.25 13.8938 44.25 14.625V20.2793C44.2498 20.291 44.2486 20.3049 44.248 20.3203C44.247 20.3517 44.2455 20.3917 44.2422 20.4375C44.2357 20.5285 44.2245 20.6488 44.2012 20.7891C44.1555 21.0629 44.0604 21.4513 43.8574 21.8574C43.6513 22.2697 43.3183 22.7286 42.791 23.0801C42.2544 23.4379 41.6062 23.625 40.875 23.625H29.5957C29.584 23.6248 29.5701 23.6236 29.5547 23.623C29.5233 23.622 29.4833 23.6205 29.4375 23.6172C29.3465 23.6107 29.2262 23.5995 29.0859 23.5762C28.8121 23.5305 28.4237 23.4354 28.0176 23.2324C27.6053 23.0263 27.1464 22.6933 26.7949 22.166C26.4371 21.6294 26.25 20.9812 26.25 20.25V14.5957C26.2502 14.584 26.2514 14.5701 26.252 14.5547C26.253 14.5233 26.2545 14.4833 26.2578 14.4375C26.2643 14.3465 26.2755 14.2262 26.2988 14.0859C26.3445 13.8121 26.4396 13.4237 26.6426 13.0176C26.8487 12.6053 27.1817 12.1464 27.709 11.7949C28.2456 11.4371 28.8938 11.25 29.625 11.25H30V9C30 7.60761 30.5525 6.27168 31.5371 5.28711C32.5217 4.30254 33.8576 3.75 35.25 3.75ZM35.25 6.75C34.6533 6.75 34.0802 6.98625 33.6582 7.4082C33.2362 7.83016 33 8.40326 33 9V11.25H37.5V9C37.5 8.40326 37.2638 7.83016 36.8418 7.4082C36.4198 6.98625 35.8467 6.75 35.25 6.75Z" fill="#FAFAFA"/>
<path d="M20.1914 7.94336C19.7983 8.46519 19.3873 9.05298 18.9785 9.70703C17.1426 12.6446 15.321 16.9147 15.0391 22.502H7.56836C8.21063 15.3732 13.3868 9.55155 20.1914 7.94336Z" fill="#FAFAFA"/>
<path d="M24.0781 8.15234C24.4635 8.56343 24.9241 9.10623 25.4238 9.77148C24.8353 10.2847 24.4139 10.8559 24.1152 11.3828L23.959 11.6758C23.5864 12.4213 23.4193 13.1157 23.3398 13.5918C23.2963 13.8535 23.2763 14.075 23.2656 14.2246C23.2606 14.2947 23.2577 14.3561 23.2559 14.4023C23.2556 14.4068 23.2548 14.4237 23.2539 14.4434C23.2529 14.465 23.2507 14.5018 23.25 14.5469V20.25C23.25 21.017 23.3732 21.7783 23.6328 22.502H18.043C18.32 17.5788 19.9266 13.8488 21.5215 11.2969C22.3998 9.89159 23.2749 8.84247 23.9219 8.15234C23.9481 8.12436 23.9745 8.0971 24 8.07031C24.0255 8.0971 24.0519 8.12436 24.0781 8.15234Z" fill="#FAFAFA"/>
</svg>
