<svg width="48" height="48" viewBox="0 0 48 48" fill="none" xmlns="http://www.w3.org/2000/svg">
<path d="M17.1187 7.43972C17.2569 7.3706 17.369 7.25851 17.4381 7.12028L18.3594 5.27766C18.6227 4.7512 19.374 4.7512 19.6372 5.27766L20.5585 7.12028C20.6276 7.25851 20.7397 7.3706 20.8779 7.43972L22.7206 8.36103C23.247 8.62426 23.247 9.37555 22.7206 9.63878L20.8779 10.5601C20.7397 10.6292 20.6276 10.7413 20.5585 10.8795L19.6372 12.7222C19.374 13.2486 18.6227 13.2486 18.3594 12.7222L17.4381 10.8795C17.369 10.7413 17.2569 10.6292 17.1187 10.5601L15.2761 9.63878C14.7496 9.37555 14.7496 8.62426 15.2761 8.36103L17.1187 7.43972Z" fill="#FAFAFA"/>
<path d="M8.36683 14.8156C8.56036 14.7189 8.71728 14.562 8.81404 14.3684L10.1039 11.7888C10.4724 11.0517 11.5242 11.0517 11.8927 11.7888L13.1826 14.3684C13.2793 14.562 13.4363 14.7189 13.6298 14.8156L16.2095 16.1055C16.9465 16.474 16.9465 17.5258 16.2095 17.8943L13.6298 19.1842C13.4363 19.2809 13.2793 19.4379 13.1826 19.6314L11.8927 22.2111C11.5242 22.9481 10.4724 22.9481 10.1039 22.2111L8.81404 19.6314C8.71728 19.4379 8.56036 19.2809 8.36683 19.1842L5.78716 17.8943C5.05011 17.5258 5.05011 16.474 5.78716 16.1055L8.36683 14.8156Z" fill="#FAFAFA"/>
<path d="M35.8847 7.73441C37.6769 6.16629 40.3779 6.25622 42.0618 7.94008C43.7456 9.62394 43.8355 12.325 42.2674 14.1171L26.6217 31.9979C25.5354 27.7821 22.2198 24.4664 18.0039 23.3801L35.8847 7.73441Z" fill="#FAFAFA"/>
<path d="M6 35C6 30.0294 10.0294 26 15 26C15.2207 26 15.4398 26.008 15.657 26.0237C20.1048 26.3454 23.6546 29.8952 23.9763 34.343C23.992 34.5602 24 34.7793 24 35C24 39.9706 19.9706 44 15 44H7.5C6.67157 44 6 43.3284 6 42.5V35Z" fill="#FAFAFA"/>
</svg>
