<svg width="48" height="48" viewBox="0 0 48 48" fill="none" xmlns="http://www.w3.org/2000/svg">
<path d="M23.5508 19.584C25.1339 18.8278 26.9087 18.5678 28.6426 18.8359C30.3766 19.1042 31.9908 19.8884 33.2715 21.0879C34.5519 22.2873 35.4411 23.8461 35.8223 25.5586C36.2032 27.2708 36.0589 29.0585 35.4082 30.6875L42.8633 38.1445C43.0196 38.2883 43.1131 38.4872 43.125 38.6992C43.1369 38.911 43.0667 39.119 42.9277 39.2793L39.1992 43.0078C39.0466 43.161 38.8393 43.2475 38.623 43.248C38.4121 43.245 38.2101 43.1585 38.0625 43.0078L30.6074 35.5527C28.9781 36.2037 27.1892 36.348 25.4766 35.9668C23.7643 35.5856 22.207 34.6962 21.0078 33.416C19.8084 32.1353 19.0222 30.5211 18.7539 28.7871C18.4858 27.0534 18.7477 25.2783 19.5039 23.6953C19.5599 23.5809 19.6432 23.4814 19.7461 23.4062C19.8492 23.3311 19.9695 23.282 20.0957 23.2637C20.222 23.2404 20.3522 23.2483 20.4746 23.2871C20.5974 23.3262 20.7089 23.396 20.7988 23.4883L24.4961 27.248C24.667 27.4196 24.8702 27.5555 25.0938 27.6484C25.3173 27.7413 25.5567 27.789 25.7988 27.7891C26.0412 27.7891 26.2821 27.7414 26.5059 27.6484C26.7294 27.5555 26.9327 27.4196 27.1035 27.248C27.2747 27.0785 27.4111 26.8767 27.5039 26.6543C27.5967 26.4319 27.6445 26.1922 27.6445 25.9512C27.6444 25.7105 27.5965 25.4721 27.5039 25.25C27.4112 25.0277 27.2747 24.8258 27.1035 24.6562L23.3281 20.8809C23.2421 20.7868 23.1774 20.6742 23.1387 20.5527C23.1 20.4312 23.0876 20.3023 23.1035 20.1758C23.1261 20.0489 23.1781 19.929 23.2559 19.8262C23.3336 19.7234 23.4348 19.6402 23.5508 19.584Z" fill="#FAFAFA"/>
<path d="M10.5918 26.3379C10.7253 26.338 10.8574 26.3717 10.9746 26.4355C11.0916 26.4994 11.1913 26.5912 11.2637 26.7031C12.4957 28.5911 14.9922 32.6721 14.9922 34.4961C14.9922 35.6629 14.5281 36.7823 13.7031 37.6074C12.8781 38.4325 11.7586 38.8964 10.5918 38.8965C9.42498 38.8965 8.3056 38.4324 7.48047 37.6074C6.65533 36.7823 6.19143 35.663 6.19141 34.4961C6.19141 32.6721 8.68792 28.5911 9.91992 26.7031C9.9924 26.5913 10.0919 26.4993 10.209 26.4355C10.3263 26.3717 10.4582 26.3379 10.5918 26.3379Z" fill="#FAFAFA"/>
<path d="M18.2871 5.55273C18.7115 5.55273 19.1179 5.72143 19.418 6.02148C19.718 6.32154 19.8867 6.72803 19.8867 7.15234V13.8398C19.8867 14.2642 19.718 14.6706 19.418 14.9707C19.1179 15.2707 18.7114 15.4395 18.2871 15.4395H15.584V19.7285C15.5862 19.9583 15.5409 20.186 15.4531 20.3984C15.3651 20.6112 15.2346 20.8055 15.0703 20.9668C14.9061 21.1279 14.7102 21.2538 14.4961 21.3379C14.2822 21.4218 14.0539 21.4614 13.8242 21.4551H7.42383C6.96553 21.4551 6.52523 21.2733 6.20117 20.9492C5.87752 20.6253 5.69545 20.1864 5.69531 19.7285V8.99219C5.69531 8.07984 6.058 7.20372 6.70312 6.55859C7.34806 5.91398 8.22291 5.55288 9.13477 5.55273H18.2871Z" fill="#FAFAFA"/>
<path d="M35.3906 7.29688C35.8149 7.29688 36.2234 7.46368 36.5234 7.76367C36.8235 8.06373 36.9922 8.47214 36.9922 8.89648V12.0957C36.9922 12.5197 36.823 12.9266 36.5234 13.2266C36.2234 13.5266 35.815 13.6953 35.3906 13.6953H22.2871V7.29688H35.3906Z" fill="#FAFAFA"/>
</svg>
