<svg width="48" height="48" viewBox="0 0 48 48" fill="none" xmlns="http://www.w3.org/2000/svg">
<path d="M21.7754 28.0039C21.8608 28.0144 21.943 28.0442 22.0146 28.0918C22.0865 28.1397 22.1458 28.2052 22.1885 28.2803C22.231 28.3552 22.2573 28.4384 22.2617 28.5244C22.3208 29.6067 22.6304 30.5372 23.2627 31.2734C23.469 31.1852 23.6951 31.1354 23.9316 31.127C24.0549 30.2969 24.4042 29.4861 24.9717 28.7148C25.1908 28.4163 25.5089 28.2037 25.8682 28.1143C26.2273 28.0249 26.6061 28.0658 26.9395 28.2266C27.9101 28.6963 28.5875 29.4609 28.9688 30.5215C28.9977 30.6026 29.0065 30.6899 28.9961 30.7754C28.9856 30.8608 28.9558 30.943 28.9082 31.0146C28.8603 31.0865 28.7948 31.1458 28.7197 31.1885C28.6448 31.231 28.5616 31.2573 28.4756 31.2617C27.3925 31.3209 26.4601 31.6295 25.7236 32.2627C25.8121 32.4693 25.8616 32.6947 25.8701 32.9316C26.7014 33.0551 27.5139 33.4034 28.2852 33.9717C28.5837 34.1908 28.7963 34.5089 28.8857 34.8682C28.9751 35.2273 28.9342 35.6061 28.7734 35.9395C28.3037 36.9101 27.5391 37.5875 26.4785 37.9688C26.3974 37.9977 26.3101 38.0065 26.2246 37.9961C26.1392 37.9856 26.057 37.9558 25.9854 37.9082C25.9135 37.8603 25.8542 37.7948 25.8115 37.7197C25.769 37.6448 25.7427 37.5616 25.7383 37.4756C25.6791 36.392 25.3692 35.4603 24.7354 34.7236C24.5288 34.8118 24.3032 34.8619 24.0664 34.8701C23.9435 35.701 23.5964 36.5132 23.0283 37.2852C22.8092 37.5837 22.4911 37.7963 22.1318 37.8857C21.7727 37.9751 21.3939 37.9342 21.0605 37.7734C20.0899 37.3037 19.4125 36.5391 19.0312 35.4785C19.0023 35.3974 18.9935 35.3101 19.0039 35.2246C19.0144 35.1392 19.0442 35.057 19.0918 34.9854C19.1397 34.9135 19.2051 34.8542 19.2803 34.8115C19.3552 34.769 19.4384 34.7427 19.5244 34.7383C20.6072 34.6792 21.537 34.3682 22.2734 33.7354C22.1855 33.529 22.1352 33.3029 22.127 33.0664C21.2967 32.9425 20.4852 32.5959 19.7148 32.0283C19.4163 31.8092 19.2037 31.4911 19.1143 31.1318C19.0249 30.7727 19.0658 30.3939 19.2266 30.0605C19.6963 29.0899 20.4609 28.4125 21.5215 28.0312C21.6026 28.0023 21.6899 27.9935 21.7754 28.0039Z" fill="#FAFAFA"/>
<path d="M21.7754 10.0039C21.8608 10.0144 21.943 10.0442 22.0146 10.0918C22.0865 10.1397 22.1458 10.2052 22.1885 10.2803C22.231 10.3552 22.2573 10.4384 22.2617 10.5244C22.3208 11.6067 22.6304 12.5372 23.2627 13.2734C23.469 13.1852 23.6951 13.1354 23.9316 13.127C24.0549 12.2969 24.4042 11.4861 24.9717 10.7148C25.1908 10.4163 25.5089 10.2037 25.8682 10.1143C26.2273 10.0249 26.6061 10.0658 26.9395 10.2266C27.9101 10.6963 28.5875 11.4609 28.9688 12.5215C28.9977 12.6026 29.0065 12.6899 28.9961 12.7754C28.9856 12.8608 28.9558 12.943 28.9082 13.0146C28.8603 13.0865 28.7948 13.1458 28.7197 13.1885C28.6448 13.231 28.5616 13.2573 28.4756 13.2617C27.3925 13.3209 26.4601 13.6295 25.7236 14.2627C25.8121 14.4693 25.8616 14.6947 25.8701 14.9316C26.7014 15.0551 27.5139 15.4034 28.2852 15.9717C28.5837 16.1908 28.7963 16.5089 28.8857 16.8682C28.9751 17.2273 28.9342 17.6061 28.7734 17.9395C28.3037 18.9101 27.5391 19.5875 26.4785 19.9688C26.3974 19.9977 26.3101 20.0065 26.2246 19.9961C26.1392 19.9856 26.057 19.9558 25.9854 19.9082C25.9135 19.8603 25.8542 19.7948 25.8115 19.7197C25.769 19.6448 25.7427 19.5616 25.7383 19.4756C25.6791 18.392 25.3692 17.4603 24.7354 16.7236C24.5288 16.8118 24.3032 16.8619 24.0664 16.8701C23.9435 17.701 23.5964 18.5132 23.0283 19.2852C22.8092 19.5837 22.4911 19.7963 22.1318 19.8857C21.7727 19.9751 21.3939 19.9342 21.0605 19.7734C20.0899 19.3037 19.4125 18.5391 19.0312 17.4785C19.0023 17.3974 18.9935 17.3101 19.0039 17.2246C19.0144 17.1392 19.0442 17.057 19.0918 16.9854C19.1397 16.9135 19.2051 16.8542 19.2803 16.8115C19.3552 16.769 19.4384 16.7427 19.5244 16.7383C20.6072 16.6792 21.537 16.3682 22.2734 15.7354C22.1855 15.529 22.1352 15.3029 22.127 15.0664C21.2967 14.9425 20.4852 14.5959 19.7148 14.0283C19.4163 13.8092 19.2037 13.4911 19.1143 13.1318C19.0249 12.7727 19.0658 12.3939 19.2266 12.0605C19.6963 11.0899 20.4609 10.4125 21.5215 10.0312C21.6026 10.0023 21.6899 9.99348 21.7754 10.0039Z" fill="#FAFAFA"/>
<path fill-rule="evenodd" clip-rule="evenodd" d="M34 4C36.2091 4 38 5.79086 38 8V40L37.9785 40.4082C37.7876 42.2913 36.2913 43.7876 34.4082 43.9785L34 44H14L13.5918 43.9785C11.7087 43.7876 10.2124 42.2913 10.0215 40.4082L10 40V8C10 5.79086 11.7909 4 14 4H34ZM24 25.5C19.8579 25.5 16.5 28.8579 16.5 33C16.5 37.1421 19.8579 40.5 24 40.5C28.1421 40.5 31.5 37.1421 31.5 33C31.5 28.8579 28.1421 25.5 24 25.5ZM24 7.5C19.8579 7.5 16.5 10.8579 16.5 15C16.5 19.1421 19.8579 22.5 24 22.5C28.1421 22.5 31.5 19.1421 31.5 15C31.5 10.8579 28.1421 7.5 24 7.5Z" fill="#FAFAFA"/>
</svg>
