<svg width="48" height="48" viewBox="0 0 48 48" fill="none" xmlns="http://www.w3.org/2000/svg">
<path d="M24 4C24.8284 4 25.5 4.67157 25.5 5.5V13.3787L27.9393 10.9393C28.5251 10.3536 29.4749 10.3536 30.0607 10.9393C30.6464 11.5251 30.6464 12.4749 30.0607 13.0607L25.0607 18.0607C24.4749 18.6464 23.5251 18.6464 22.9393 18.0607L17.9393 13.0607C17.3536 12.4749 17.3536 11.5251 17.9393 10.9393C18.5251 10.3536 19.4749 10.3536 20.0607 10.9393L22.5 13.3787V5.5C22.5 4.67157 23.1716 4 24 4Z" fill="#FAFAFA"/>
<path d="M4.00781 40.5C4.00781 39.6716 4.67939 39 5.50781 39H42.5078C43.3362 39 44.0078 39.6716 44.0078 40.5C44.0078 41.3284 43.3362 42 42.5078 42H5.50781C4.67939 42 4.00781 41.3284 4.00781 40.5Z" fill="#FAFAFA"/>
<path d="M5.5 31C4.67157 31 4 31.6716 4 32.5C4 33.3284 4.67157 34 5.5 34H8.5C9.32843 34 10 33.3284 10 32.5C10 31.6716 9.32843 31 8.5 31H5.5Z" fill="#FAFAFA"/>
<path d="M39.5 31C38.6716 31 38 31.6716 38 32.5C38 33.3284 38.6716 34 39.5 34H42.5C43.3284 34 44 33.3284 44 32.5C44 31.6716 43.3284 31 42.5 31H39.5Z" fill="#FAFAFA"/>
<path d="M34.7298 23.001C34.1973 22.3664 34.2801 21.4202 34.9147 20.8877L37.2128 18.9594C37.8474 18.4269 38.7936 18.5097 39.3261 19.1443C39.8586 19.7789 39.7758 20.725 39.1412 21.2575L36.8431 23.1859C36.2084 23.7184 35.2623 23.6356 34.7298 23.001Z" fill="#FAFAFA"/>
<path d="M10.7897 18.9594C10.1551 18.4269 9.20895 18.5096 8.67644 19.1442C8.14394 19.7789 8.22672 20.725 8.86133 21.2575L11.1595 23.1859C11.7941 23.7184 12.7402 23.6356 13.2727 23.001C13.8052 22.3664 13.7224 21.4202 13.0878 20.8877L10.7897 18.9594Z" fill="#FAFAFA"/>
<path d="M32.5 34C33.3284 34 34 33.3284 34 32.5V32C34 26.4772 29.5228 22 24 22C18.4772 22 14 26.4772 14 32V32.5C14 33.3284 14.6716 34 15.5 34C18.8503 34 29.1497 34 32.5 34Z" fill="#FAFAFA"/>
</svg>
