<svg width="48" height="48" viewBox="0 0 48 48" fill="none" xmlns="http://www.w3.org/2000/svg">
<path d="M17.7953 15.1672V22.5992H16V15.1672H17.7953Z" fill="#FAFAFA"/>
<path d="M23.4688 21.3506H20.9584L20.4915 22.5986H18.5928L21.2489 15.1667H23.2097L25.8137 22.5986H23.8942L23.4688 21.3506ZM22.9912 19.8804L22.2132 17.4741L21.4558 19.8804H22.9912Z" fill="#FAFAFA"/>
<path d="M34 22.7325L32.3503 23L31.7693 22.2871C31.1568 22.6435 30.5972 22.7662 29.9533 22.7662C28.5115 22.7662 27.6085 22.1644 27.0688 21.5404C26.405 20.7831 26.0938 19.7689 26.0938 18.8551C26.0938 17.808 26.5085 16.8053 27.1623 16.1253C27.8576 15.4009 28.8434 15 29.9012 15C30.887 15 31.9241 15.368 32.6508 16.1138C33.2418 16.7263 33.7194 17.696 33.7194 18.9103C33.7194 19.4231 33.6466 19.8792 33.4396 20.4036C33.284 20.7938 33.097 21.1058 32.8064 21.4178L34 22.7325ZM31.0434 19.4009L31.5209 19.9582C31.7386 19.624 31.8429 19.2231 31.8429 18.8666C31.8429 18.4098 31.6252 17.8524 31.2825 17.4853C30.9092 17.0844 30.3489 16.8728 29.9027 16.8728C29.4045 16.8728 28.8963 17.0844 28.5329 17.4853C28.1803 17.8755 27.9726 18.432 27.9726 18.9786C27.9726 19.5252 28.201 20.0257 28.4915 20.327C28.8234 20.6728 29.3524 20.895 29.892 20.895C30.1097 20.895 30.286 20.8613 30.4524 20.8168L29.3524 19.6355L31.0434 19.4009Z" fill="#FAFAFA"/>
<path fill-rule="evenodd" clip-rule="evenodd" d="M38 4C41.3137 4 44 6.68629 44 10V38C44 41.3137 41.3137 44 38 44H10C6.68629 44 4 41.3137 4 38V10C4 6.68629 6.68629 4 10 4H38ZM16 32C14.8954 32 14 32.8954 14 34C14 35.1046 14.8954 36 16 36C17.1046 36 18 35.1046 18 34C18 32.8954 17.1046 32 16 32ZM24 32C22.8954 32 22 32.8954 22 34C22 35.1046 22.8954 36 24 36C25.1046 36 26 35.1046 26 34C26 32.8954 25.1046 32 24 32ZM32 32C30.8954 32 30 32.8954 30 34C30 35.1046 30.8954 36 32 36C33.1046 36 34 35.1046 34 34C34 32.8954 33.1046 32 32 32ZM14 10C11.7909 10 10 11.7909 10 14V24C10 26.2091 11.7909 28 14 28H34C36.2091 28 38 26.2091 38 24V14C38 11.7909 36.2091 10 34 10H14Z" fill="#FAFAFA"/>
</svg>
