<svg width="48" height="48" viewBox="0 0 48 48" fill="none" xmlns="http://www.w3.org/2000/svg">
<path fill-rule="evenodd" clip-rule="evenodd" d="M22.5098 4.54055C23.484 4.26642 24.5161 4.26645 25.4903 4.54055C26.1179 4.71722 26.6567 5.02239 27.1895 5.39602C27.6967 5.75175 28.2746 6.225 28.961 6.78664L39.1036 15.0835C39.1466 15.1188 39.1885 15.1546 39.2305 15.189C39.9678 15.7914 40.5495 16.2653 40.9786 16.8667C41.3564 17.3965 41.6359 17.9908 41.8067 18.6187C42.0005 19.3317 42.0007 20.0806 42.0001 21.0327V35.8277C42.0001 36.8955 42.001 37.7869 41.9415 38.5152C41.8794 39.2749 41.7441 39.9891 41.4005 40.6636C40.8733 41.6978 40.0323 42.5387 38.9981 43.0659C38.3236 43.4096 37.6094 43.5449 36.8497 43.607C36.1212 43.6665 35.2285 43.6656 34.1602 43.6655H13.8399C12.7717 43.6656 11.8789 43.6665 11.1505 43.607C10.391 43.5449 9.67823 43.4094 9.00397 43.0659C7.96935 42.5387 7.12697 41.6981 6.59967 40.6636C6.25604 39.9891 6.12269 39.2748 6.06061 38.5152C6.0011 37.7867 6.00004 36.894 6.00006 35.8257V21.0327C5.99944 20.0807 5.99963 19.3316 6.19342 18.6187C6.36419 17.9907 6.64369 17.3965 7.02155 16.8667C7.45066 16.2651 8.03225 15.7915 8.76959 15.189L19.0391 6.78664C19.7256 6.22495 20.3034 5.75179 20.8106 5.39602C21.3433 5.0224 21.8823 4.71727 22.5098 4.54055ZM23.9981 16.2573C23.7454 16.2576 23.4941 16.3021 23.2579 16.3882L23.0255 16.4898C22.7241 16.6419 22.4606 16.8629 22.2598 17.1343L22.2442 17.1558C21.5291 18.1596 20.1678 20.1092 18.9805 22.1655C18.3873 23.193 17.8206 24.278 17.3985 25.3023C16.9951 26.2813 16.6612 27.3509 16.6544 28.3218C16.6344 29.2954 16.8106 30.264 17.1739 31.1675C17.5374 32.0712 18.0809 32.8927 18.7696 33.5816C19.4583 34.2702 20.2801 34.8137 21.1837 35.1773C22.0677 35.5327 23.0145 35.708 23.9669 35.6968C23.9765 35.697 23.9883 35.6949 23.9981 35.6948C24.0081 35.6947 24.0193 35.6968 24.0294 35.6968L24.0274 35.6948C24.981 35.7067 25.9293 35.5331 26.8145 35.1773C27.718 34.8139 28.5398 34.2701 29.2286 33.5816C29.9171 32.8929 30.4588 32.0709 30.8223 31.1675C31.1858 30.2638 31.3618 29.2956 31.3419 28.3218C31.335 27.3514 31.0043 26.2818 30.6016 25.3023C30.1806 24.2781 29.6159 23.1951 29.0235 22.1675C27.837 20.1096 26.4752 18.1585 25.7501 17.1499L25.7364 17.1343C25.5856 16.9306 25.4018 16.7537 25.1915 16.6148L24.9727 16.4898L24.7403 16.3882C24.5036 16.3019 24.2513 16.2573 23.9981 16.2573Z" fill="#FAFAFA"/>
</svg>
