<svg width="48" height="48" viewBox="0 0 48 48" fill="none" xmlns="http://www.w3.org/2000/svg">
<path fill-rule="evenodd" clip-rule="evenodd" d="M30.2168 8.59051C38.6371 10.2746 40.6716 17.7666 40.6719 21.1843C40.6718 22.841 39.3287 24.1843 37.6719 24.1843C36.8794 24.1843 36.1706 24.2823 35.5352 24.4538L35.6953 24.7292L36.9336 26.8737C37.4433 26.7453 37.9778 26.6764 38.5273 26.6764C42.1166 26.677 45.0272 29.5871 45.0273 33.1765C45.0272 36.7658 42.1166 39.6759 38.5273 39.6765C34.9376 39.6765 32.0275 36.7662 32.0273 33.1765C32.0274 31.2144 32.8988 29.458 34.2734 28.2663L33.0977 26.2292L32.8828 25.8581C32.6435 26.0647 32.4228 26.2842 32.2188 26.5104C30.9826 27.8812 30.3515 29.5603 30.168 30.569C29.9085 31.9953 28.6646 33.0319 27.2148 33.0319H19.9766C18.5104 33.0319 17.2591 31.9721 17.0176 30.5261C16.7589 28.9744 16.3019 28.0651 15.9688 27.5886C15.8737 27.4527 15.7916 27.3555 15.7285 27.2878L15.6035 27.1686C15.6714 27.1973 15.7404 27.2234 15.8105 27.2468C15.6094 27.1797 15.5556 27.1287 15.6035 27.1686C15.5354 27.1398 15.4683 27.1084 15.4023 27.0749L14.4004 28.8112C15.4491 29.9654 16.0937 31.4942 16.0938 33.1765C16.0936 36.7662 13.1835 39.6765 9.59375 39.6765C6.004 39.6765 3.09392 36.7662 3.09375 33.1765C3.09394 29.5868 6.00402 26.6764 9.59375 26.6764C10.4136 26.6764 11.1976 26.8292 11.9199 27.1061L12.8301 25.53C11.9727 25.0929 11.4934 24.989 11.1289 24.9889C10.7819 24.9889 10.0772 25.0756 9.17773 25.2409C8.33634 25.3956 7.51419 25.5831 7.03125 25.7038C6.13507 25.9278 5.18517 25.7254 4.45703 25.1569C3.72934 24.5886 3.303 23.717 3.30273 22.7936V20.3796C3.30298 19.5843 3.61925 18.8209 4.18164 18.2585C4.70012 17.7402 5.32708 17.4005 5.7207 17.2057C6.17774 16.9796 6.67137 16.7812 7.125 16.6159C8.03452 16.2845 8.98371 16.0135 9.59766 15.86L9.73633 15.8288C12.0586 15.3645 14.8404 15.8652 17.0117 16.4304C18.3389 16.7758 19.6227 17.2034 20.7285 17.612C22.3049 16.1874 24.1373 15.4865 25.873 15.2546C26.4978 15.1711 27.111 15.1496 27.6992 15.1706C27.4694 14.2615 27.1418 13.3452 26.8711 12.7136C26.4327 11.6898 26.5971 10.5062 27.2988 9.64129C28.0007 8.77665 29.1247 8.37226 30.2168 8.59051ZM9.59375 29.6764C7.66087 29.6764 6.09394 31.2436 6.09375 33.1765C6.09392 35.1093 7.66086 36.6765 9.59375 36.6765C11.5266 36.6765 13.0936 35.1093 13.0938 33.1765C13.0936 31.2436 11.5266 29.6764 9.59375 29.6764ZM38.5273 29.6764C36.5945 29.6764 35.0275 31.2436 35.0273 33.1765C35.0275 35.1093 36.5944 36.6765 38.5273 36.6765C40.4598 36.6759 42.0272 35.109 42.0273 33.1765C42.0272 31.2439 40.4598 29.677 38.5273 29.6764Z" fill="#FAFAFA"/>
</svg>
