<svg width="48" height="48" viewBox="0 0 48 48" fill="none" xmlns="http://www.w3.org/2000/svg">
<path fill-rule="evenodd" clip-rule="evenodd" d="M44 40.0657C43.9998 40.0786 43.9986 40.0948 43.998 40.1125C43.9968 40.1482 43.996 40.1938 43.9922 40.2473C43.9845 40.3544 43.9693 40.4975 43.9414 40.6653C43.8865 40.9948 43.7734 41.4583 43.5332 41.9387C43.29 42.4249 42.9014 42.9576 42.291 43.3645C41.6713 43.7775 40.912 44.0012 40.0332 44.0012H7.93555C7.92256 44.001 7.90657 43.9999 7.88867 43.9993C7.85298 43.9981 7.80761 43.9953 7.75391 43.9915C7.64658 43.9838 7.50225 43.9707 7.33398 43.9426C7.00453 43.8877 6.5426 43.7745 6.0625 43.5344C5.57621 43.2913 5.04371 42.9027 4.63672 42.2922C4.22365 41.6725 4.00005 40.9133 4 40.0344V31.6672H44V40.0657ZM28.9336 33.6008C28.1966 33.6008 27.5853 34.1326 27.459 34.8333H20.541C20.4148 34.1329 19.803 33.6013 19.0664 33.6008C18.238 33.6008 17.5664 34.2724 17.5664 35.1008C17.5665 35.8256 17.8544 36.5218 18.3672 37.0344L18.3691 37.0325C18.8815 37.5443 19.5749 37.833 20.2988 37.8333H27.6992C28.4232 37.833 29.1184 37.5449 29.6309 37.0325L29.6328 37.0344C30.1457 36.5217 30.4335 35.8253 30.4336 35.1008C30.4336 34.2728 29.7615 33.6014 28.9336 33.6008Z" fill="#FAFAFA"/>
<path fill-rule="evenodd" clip-rule="evenodd" d="M44 28.6672H4V19.3333H44V28.6672ZM28.9336 21.2668C28.1966 21.2668 27.5853 21.7987 27.459 22.4993H20.541C20.4148 21.799 19.803 21.2673 19.0664 21.2668C18.238 21.2668 17.5664 21.9384 17.5664 22.7668C17.5665 23.4916 17.8544 24.1878 18.3672 24.7004L18.3691 24.6985C18.8815 25.2104 19.5749 25.499 20.2988 25.4993H27.6992C28.4232 25.499 29.1184 25.2109 29.6309 24.6985L29.6328 24.7004C30.1457 24.1877 30.4335 23.4913 30.4336 22.7668C30.4336 21.9388 29.7615 21.2674 28.9336 21.2668Z" fill="#FAFAFA"/>
<path fill-rule="evenodd" clip-rule="evenodd" d="M40.1113 4.00122C40.147 4.00242 40.1924 4.00325 40.2461 4.00708C40.3534 4.01475 40.4977 4.02981 40.666 4.05786C40.9955 4.11282 41.4574 4.22602 41.9375 4.46606C42.4238 4.70921 42.9563 5.0978 43.3633 5.70825C43.7763 6.32803 44 7.08715 44 7.96606V16.3333H4V7.93481C4.00021 7.92183 4.00136 7.90584 4.00195 7.88794C4.00315 7.85226 4.00398 7.80685 4.00781 7.75317C4.01548 7.64584 4.03054 7.50156 4.05859 7.33325C4.11355 7.0038 4.22675 6.54186 4.4668 6.06177C4.70995 5.5755 5.09853 5.04296 5.70898 4.63599C6.32877 4.22296 7.08788 3.99927 7.9668 3.99927H40.0645C40.0774 3.99948 40.0934 4.00062 40.1113 4.00122ZM28.9336 8.93286C28.1967 8.93286 27.5854 9.46475 27.459 10.1653H20.541C20.4148 9.46497 19.803 8.93333 19.0664 8.93286C18.238 8.93286 17.5664 9.60443 17.5664 10.4329C17.5664 11.1578 17.8546 11.8539 18.3672 12.3665C18.8795 12.8782 19.5747 13.165 20.2988 13.1653H27.6992C28.4234 13.165 29.1185 12.8767 29.6309 12.3645L29.6328 12.3665C30.1454 11.8538 30.4336 11.1575 30.4336 10.4329C30.4336 9.60479 29.7615 8.93343 28.9336 8.93286Z" fill="#FAFAFA"/>
</svg>
