<svg width="48" height="48" viewBox="0 0 48 48" fill="none" xmlns="http://www.w3.org/2000/svg">
<path d="M39 40C39.8284 40 40.5 40.6716 40.5 41.5C40.5 42.3284 39.8284 43 39 43H9C8.17157 43 7.5 42.3284 7.5 41.5C7.5 40.6716 8.17157 40 9 40H39Z" fill="#FAFAFA"/>
<path d="M12 35C12.8284 35 13.5 35.6716 13.5 36.5V37C13.5 37.8284 12.8284 38.5 12 38.5C11.1716 38.5 10.5 37.8284 10.5 37V36.5C10.5 35.6716 11.1716 35 12 35Z" fill="#FAFAFA"/>
<path d="M18 32C18.8284 32 19.5 32.6716 19.5 33.5V37C19.5 37.8284 18.8284 38.5 18 38.5C17.1716 38.5 16.5 37.8284 16.5 37V33.5C16.5 32.6716 17.1716 32 18 32Z" fill="#FAFAFA"/>
<path d="M24 35C24.8284 35 25.5 35.6716 25.5 36.5V37C25.5 37.8284 24.8284 38.5 24 38.5C23.1716 38.5 22.5 37.8284 22.5 37V36.5C22.5 35.6716 23.1716 35 24 35Z" fill="#FAFAFA"/>
<path d="M30 32C30.8284 32 31.5 32.6716 31.5 33.5V37C31.5 37.8284 30.8284 38.5 30 38.5C29.1716 38.5 28.5 37.8284 28.5 37V33.5C28.5 32.6716 29.1716 32 30 32Z" fill="#FAFAFA"/>
<path d="M36 35C36.8284 35 37.5 35.6716 37.5 36.5V37C37.5 37.8284 36.8284 38.5 36 38.5C35.1716 38.5 34.5 37.8284 34.5 37V36.5C34.5 35.6716 35.1716 35 36 35Z" fill="#FAFAFA"/>
<path d="M9.5 12.5V14C9.5 14.2816 9.51291 14.5609 9.53125 14.8379C9.53969 14.9646 9.54638 15.0911 9.55859 15.2168C9.56675 15.3012 9.58002 15.3848 9.58984 15.4688C9.60292 15.5798 9.61489 15.6907 9.63086 15.8008C9.64663 15.9101 9.66502 16.0186 9.68359 16.127C9.69923 16.2177 9.71484 16.3083 9.73242 16.3984C9.75712 16.5255 9.78399 16.6517 9.8125 16.7773C9.82394 16.8276 9.83561 16.8777 9.84766 16.9277C9.87977 17.0615 9.9148 17.1941 9.95117 17.3262C9.96578 17.3791 9.98082 17.4318 9.99609 17.4844C10.0373 17.6267 10.0808 17.768 10.127 17.9082C10.1355 17.9342 10.1436 17.9604 10.1523 17.9863C11.8167 22.9348 16.4906 26.5 22 26.5H26C32.098 26.5 37.1714 22.1325 38.2734 16.3555C38.2825 16.3081 38.2903 16.2605 38.2988 16.2129C38.3235 16.0749 38.3471 15.9364 38.3672 15.7969C38.383 15.6879 38.3972 15.5786 38.4102 15.4688C38.42 15.3849 38.4313 15.3011 38.4395 15.2168C38.4517 15.0911 38.4603 14.9647 38.4688 14.8379C38.4871 14.5609 38.5 14.2816 38.5 14V12.5H44C44.8284 12.5 45.5 13.1716 45.5 14C45.5 14.8284 44.8284 15.5 44 15.5H41.4258C40.6712 23.3565 34.0543 29.5 26 29.5H22C13.9457 29.5 7.32878 23.3565 6.57422 15.5H4C3.17157 15.5 2.5 14.8284 2.5 14C2.5 13.1716 3.17157 12.5 4 12.5H9.5Z" fill="#FAFAFA"/>
<path d="M16.2988 16.6738C16.8106 16.403 17.4431 16.4486 17.9141 16.8105C18.5384 17.2907 19.4112 17.7216 20.4883 18.0293C21.5603 18.3356 22.7651 18.5 24 18.5C25.2349 18.5 26.4397 18.3356 27.5117 18.0293C28.5887 17.7216 29.4615 17.2907 30.0859 16.8105L30.2969 16.6758C30.809 16.4036 31.4423 16.448 31.9141 16.8105C32.5385 17.2907 33.4113 17.7216 34.4883 18.0293C34.5217 18.0389 34.5561 18.0454 34.5898 18.0547C33.0683 21.2725 29.7957 23.5 26 23.5H22C18.2025 23.5 14.9269 21.2711 13.4062 18.0508C13.4406 18.0413 13.4757 18.0351 13.5098 18.0254C14.5869 17.7178 15.4605 17.2887 16.0879 16.8086L16.2988 16.6738Z" fill="#FAFAFA"/>
</svg>
