<svg width="48" height="48" viewBox="0 0 48 48" fill="none" xmlns="http://www.w3.org/2000/svg">
<path d="M36.2812 34.3945C36.6604 34.3968 37.031 34.512 37.3457 34.7246C37.6601 34.9371 37.9054 35.2381 38.0508 35.5898C38.2698 36.119 38.6036 36.5933 39.0273 36.9766C39.4512 37.3599 39.9554 37.6436 40.502 37.8066C40.7446 37.8793 40.9714 37.9997 41.168 38.1602C41.3644 38.3206 41.528 38.5184 41.6484 38.7422C41.7689 38.9659 41.8429 39.2118 41.8691 39.4648C41.8711 39.484 41.8697 39.5043 41.8711 39.5234C41.8721 39.5365 41.8743 39.5494 41.875 39.5625C41.8781 39.6199 41.877 39.6771 41.875 39.7344C41.8747 39.7422 41.8773 39.75 41.877 39.7578C41.8765 39.7668 41.8736 39.7761 41.873 39.7852C41.8701 39.8329 41.8658 39.8803 41.8594 39.9277C41.8567 39.9473 41.8548 39.9669 41.8516 39.9863C41.8385 40.0645 41.8233 40.1425 41.8008 40.2188C41.7285 40.4628 41.6088 40.691 41.4492 40.8887C41.2896 41.0864 41.0919 41.2498 40.8691 41.3711C40.6464 41.4923 40.4024 41.5694 40.1504 41.5957C40.0652 41.6046 39.9798 41.6041 39.8945 41.6016C39.8821 41.6012 39.8698 41.6002 39.8574 41.5996C39.7031 41.592 39.5491 41.5699 39.4004 41.5254C38.7438 41.3291 38.1212 41.0419 37.543 40.6816C37.5301 40.6736 37.5168 40.6663 37.5039 40.6582C37.2713 40.5114 37.0462 40.353 36.8301 40.1816C36.8032 40.1604 36.7766 40.1388 36.75 40.1172C36.6477 40.0338 36.5473 39.9481 36.4492 39.8594L36.2695 39.6973C36.0228 39.9389 35.7604 40.1621 35.4863 40.3691C35.4634 40.3865 35.4411 40.4047 35.418 40.4219C35.3024 40.5073 35.1843 40.5889 35.0645 40.668C35.0373 40.6859 35.0098 40.7031 34.9824 40.7207C34.8491 40.8063 34.7143 40.8892 34.5762 40.9668C34.5648 40.9732 34.5544 40.9819 34.543 40.9883C34.5035 41.0102 34.4616 41.0276 34.4219 41.0488C34.3258 41.1001 34.229 41.1499 34.1309 41.1973C34.0615 41.2308 33.992 41.2635 33.9219 41.2949C33.8329 41.3347 33.7428 41.3716 33.6523 41.4082C33.3485 41.5314 33.0382 41.6339 32.7227 41.7188C32.6764 41.7312 32.6304 41.7443 32.584 41.7559C32.4776 41.7824 32.3711 41.8079 32.2637 41.8301C32.2196 41.8391 32.175 41.8452 32.1309 41.8535C31.7782 41.9201 31.422 41.9637 31.0625 41.9824C31.0111 41.9851 30.9597 41.9886 30.9082 41.9902C30.797 41.9939 30.6858 41.9952 30.5742 41.9941C30.5306 41.9937 30.487 41.9913 30.4434 41.9902C30.3408 41.9876 30.2374 41.989 30.1348 41.9824C30.0371 41.9888 29.9394 41.9875 29.8418 41.9902C29.7929 41.9916 29.7442 41.9937 29.6953 41.9941C29.5838 41.9952 29.4726 41.9938 29.3613 41.9902C29.3046 41.9884 29.248 41.9854 29.1914 41.9824C29.0942 41.9772 28.9972 41.9716 28.9004 41.9629C28.8391 41.9574 28.778 41.9503 28.7168 41.9434C28.5077 41.9197 28.3001 41.8877 28.0938 41.8477C28.0697 41.843 28.0455 41.8389 28.0215 41.834C27.8984 41.8089 27.7761 41.7808 27.6543 41.75C27.6335 41.7447 27.6126 41.7398 27.5918 41.7344C26.9436 41.5649 26.3142 41.3191 25.7227 40.9902C25.4733 40.8509 25.2348 40.6941 25.002 40.5293C24.9859 40.518 24.9691 40.5076 24.9531 40.4961C24.8535 40.4244 24.7564 40.3496 24.6602 40.2734C24.6216 40.243 24.583 40.2128 24.5449 40.1816C24.4742 40.1236 24.4028 40.0664 24.334 40.0059C24.2202 39.9061 24.1083 39.8036 24 39.6973C23.7865 39.9067 23.5605 40.1016 23.3262 40.2852C23.2834 40.3187 23.2407 40.3521 23.1973 40.3848C23.1222 40.4411 23.0456 40.4951 22.9688 40.5488C22.9092 40.5904 22.8497 40.6319 22.7891 40.6719C22.7323 40.7092 22.6748 40.7453 22.6172 40.7812C22.5841 40.8019 22.5529 40.8256 22.5195 40.8457L22.2754 40.9883C22.2144 41.0222 22.1496 41.0497 22.0879 41.082C22.0197 41.1176 21.952 41.1539 21.8828 41.1875C21.8039 41.2259 21.7245 41.2631 21.6445 41.2988C21.5588 41.3371 21.4719 41.3729 21.3848 41.4082C21.3184 41.4351 21.2526 41.4632 21.1855 41.4883C21.1816 41.4898 21.1778 41.4927 21.1738 41.4941C21.0378 41.5448 20.9 41.5898 20.7617 41.6328C20.6776 41.6591 20.5927 41.6816 20.5078 41.7051C20.4298 41.7266 20.352 41.7485 20.2734 41.7676C20.1891 41.7881 20.1045 41.8064 20.0195 41.8242C19.9545 41.8378 19.8895 41.8513 19.8242 41.8633C19.4838 41.9258 19.1397 41.9644 18.793 41.9824C18.7409 41.9851 18.6889 41.9886 18.6367 41.9902C18.5255 41.9938 18.4143 41.9952 18.3027 41.9941C18.2578 41.9937 18.2129 41.9914 18.168 41.9902C18.0672 41.9876 17.9661 41.9889 17.8652 41.9824C17.7652 41.9889 17.6644 41.9875 17.5645 41.9902C17.5175 41.9915 17.4707 41.9937 17.4238 41.9941C17.3123 41.9952 17.2011 41.9938 17.0898 41.9902C17.0331 41.9884 16.9765 41.9855 16.9199 41.9824C16.8221 41.9772 16.7244 41.9717 16.627 41.9629C16.5682 41.9576 16.5098 41.95 16.4512 41.9434C16.2415 41.9197 16.0331 41.8897 15.8262 41.8496C15.8013 41.8448 15.7767 41.839 15.752 41.834C15.6288 41.8089 15.5066 41.7808 15.3848 41.75C15.3633 41.7446 15.3417 41.74 15.3203 41.7344C14.9455 41.6362 14.5789 41.5095 14.2207 41.3574C14.1941 41.3461 14.1671 41.3358 14.1406 41.3242C14.0275 41.2748 13.9157 41.2227 13.8047 41.168C13.7773 41.1544 13.7499 41.1408 13.7227 41.127C13.6334 41.0816 13.5428 41.039 13.4551 40.9902C13.2186 40.8584 12.9911 40.7114 12.7695 40.5566C12.7304 40.5294 12.691 40.5026 12.6523 40.4746C12.5703 40.4151 12.4899 40.3536 12.4102 40.291C12.3642 40.2551 12.3186 40.2186 12.2734 40.1816C12.2027 40.1236 12.1313 40.0663 12.0625 40.0059C11.9711 39.9258 11.8828 39.8422 11.7949 39.7578C11.7735 39.7372 11.7497 39.7182 11.7285 39.6973C10.8449 40.5478 9.77211 41.175 8.59961 41.5254C8.41738 41.5798 8.22848 41.6046 8.03906 41.6035C7.97613 41.6032 7.91243 41.6023 7.84961 41.5957C7.59791 41.5693 7.35342 41.4942 7.13086 41.373C6.90815 41.2518 6.71239 41.0863 6.55273 40.8887C6.39306 40.6909 6.27344 40.4629 6.20117 40.2188C6.12914 39.975 6.10484 39.7197 6.13086 39.4668C6.15701 39.2134 6.23293 38.9662 6.35352 38.7422C6.47405 38.5185 6.63758 38.3205 6.83398 38.1602C6.95836 38.0587 7.09553 37.9755 7.24023 37.9082C7.32444 37.869 7.41065 37.8334 7.5 37.8066C7.63636 37.7659 7.76996 37.7175 7.90039 37.6621C8.29232 37.4955 8.6548 37.264 8.97266 36.9766C8.99383 36.9574 9.01248 36.9356 9.0332 36.916C9.19285 36.7651 9.33755 36.6009 9.46875 36.4258C9.66124 36.1687 9.82536 35.8906 9.94922 35.5918C10.0946 35.2395 10.3414 34.9373 10.6562 34.7246C10.9709 34.5122 11.3417 34.3967 11.7207 34.3945C12.0995 34.3925 12.4702 34.5042 12.7871 34.7129C13.1044 34.9219 13.3544 35.2198 13.5039 35.5703C13.6758 35.9738 13.9086 36.3446 14.1914 36.6719C14.4783 37.0034 14.8161 37.2904 15.1953 37.5195C16.5993 38.3677 19.1305 38.3677 20.5371 37.5195C21.196 37.1212 21.732 36.5498 22.0879 35.8691L22.2285 35.5703C22.3775 35.2221 22.6246 34.9253 22.9395 34.7168C23.2543 34.5084 23.623 34.3965 24 34.3965L24.2812 34.418C24.5586 34.459 24.8245 34.5606 25.0605 34.7168C25.3754 34.9253 25.6225 35.2221 25.7715 35.5703C26.1186 36.3848 26.7114 37.0644 27.4648 37.5195C27.6403 37.6255 27.8328 37.7194 28.0391 37.7988C28.1639 37.8469 28.2943 37.8874 28.4277 37.9258C28.8371 38.0435 29.2824 38.116 29.7363 38.1426C29.8687 38.1503 30.0017 38.1562 30.1348 38.1562C30.7235 38.1563 31.3115 38.0775 31.8398 37.9258C31.9739 37.8872 32.1051 37.8472 32.2305 37.7988C32.4367 37.7194 32.6293 37.6255 32.8047 37.5195C33.1327 37.3214 33.4274 37.077 33.6875 36.8008C34.0243 36.4427 34.3009 36.0288 34.4961 35.5703C34.6456 35.2198 34.8956 34.9219 35.2129 34.7129C35.4508 34.5562 35.7188 34.4539 35.998 34.4141L36.2812 34.3945Z" fill="#FAFAFA"/>
<path d="M27.8574 6C35.7075 6.00013 40.4437 11.6186 41.8633 14.4707C41.9529 14.6505 42 14.8497 42 15.0508V34.9238C41.8123 34.8411 41.6166 34.7698 41.416 34.7129C41.3269 34.6863 41.2447 34.6388 41.1758 34.5762C41.107 34.5136 41.0528 34.4359 41.0176 34.3496C40.6293 33.4109 39.9743 32.6076 39.1348 32.041C38.2952 31.4745 37.3079 31.1696 36.2969 31.1641C35.2857 31.1586 34.2949 31.4523 33.4492 32.0098C32.6035 32.5672 31.9413 33.3642 31.543 34.2988C31.4627 34.4862 31.3243 34.6429 31.1504 34.748C31.1415 34.7527 31.0512 34.8003 30.8555 34.8457C30.3816 34.9534 29.8899 34.9534 29.416 34.8457C29.2154 34.7992 29.1243 34.7506 29.1191 34.748C28.9447 34.6434 28.8074 34.4862 28.7266 34.2988C28.3299 33.369 27.6702 32.5763 26.8301 32.0195C25.99 31.4628 25.0061 31.166 24 31.166C22.9939 31.166 22.01 31.4628 21.1699 32.0195C20.3298 32.5763 19.6701 33.369 19.2734 34.2988C19.1926 34.4862 19.0553 34.6434 18.8809 34.748C18.7869 34.7935 18.6864 34.826 18.584 34.8457C18.1101 34.9534 17.6184 34.9534 17.1445 34.8457C16.9488 34.8003 16.8585 34.7527 16.8496 34.748C16.6753 34.6422 16.5368 34.4833 16.457 34.2949C16.0587 33.3608 15.3961 32.565 14.5508 32.0078C13.7051 31.4504 12.7143 31.1566 11.7031 31.1621C10.6919 31.1676 9.70488 31.4724 8.86523 32.0391C8.02558 32.6057 7.37066 33.4087 6.98242 34.3477C6.94694 34.4339 6.89311 34.5116 6.82422 34.5742C6.75537 34.6368 6.67286 34.6822 6.58398 34.709C6.38345 34.7684 6.18768 34.8411 6 34.9238V30.1758C6.00042 29.8976 6.09032 29.6272 6.25586 29.4043C6.42165 29.1812 6.65442 29.0167 6.91992 28.9375C8.26992 28.5341 9.41508 27.4978 9.95508 26.1895C10.0518 25.9542 10.2157 25.7534 10.4258 25.6113C10.6359 25.4692 10.8835 25.392 11.1367 25.3906C11.3897 25.3894 11.6382 25.4638 11.8496 25.6035C12.0607 25.7432 12.227 25.942 12.3262 26.1758C13.1465 28.0996 15.3686 29.2715 17.5723 29.2715C22.1361 29.2711 25.2852 25.8473 25.2852 22.8066C25.285 20.3737 24.6715 18.1626 23.5273 16.8828C22.9771 16.27 22.3044 15.8642 21.4688 15.7168C20.6152 15.5671 19.4934 15.6684 18.0488 16.25C17.8376 16.3348 17.6078 16.3618 17.3828 16.3281C17.1573 16.2942 16.9433 16.2003 16.7656 16.0566C16.5883 15.913 16.4523 15.7237 16.3711 15.5098C16.29 15.2957 16.2674 15.0639 16.3047 14.8379C16.8063 11.8125 19.8606 6 27.8574 6Z" fill="#FAFAFA"/>
</svg>
