<svg width="48" height="48" viewBox="0 0 48 48" fill="none" xmlns="http://www.w3.org/2000/svg">
<path fill-rule="evenodd" clip-rule="evenodd" d="M29.5 2.5C30.9587 2.5 32.3572 3.07988 33.3887 4.11133C34.4201 5.14278 35 6.54131 35 8C35 9.22632 34.5852 10.4063 33.8418 11.3652L38.3984 18.6113C38.7583 18.5377 39.1272 18.5 39.5 18.5C40.9587 18.5 42.3572 19.0799 43.3887 20.1113C44.4201 21.1428 45 22.5413 45 24C45 25.4587 44.4201 26.8572 43.3887 27.8887C42.3572 28.9201 40.9587 29.5 39.5 29.5C38.0413 29.5 36.6428 28.9201 35.6113 27.8887C34.5799 26.8572 34 25.4587 34 24C34 22.5413 34.5799 21.1428 35.6113 20.1113C35.6492 20.0735 35.6897 20.0386 35.7285 20.002L31.418 13.1465C30.8093 13.3735 30.1622 13.5 29.5 13.5C28.8196 13.5 28.1544 13.3682 27.5312 13.1289L23.2637 19.998C23.3046 20.0365 23.3489 20.0715 23.3887 20.1113C24.4201 21.1428 25 22.5413 25 24C25 25.0117 24.7143 25.9904 24.1992 26.8418L28.332 32.6289C28.7131 32.546 29.104 32.5 29.5 32.5C30.9587 32.5 32.3572 33.0799 33.3887 34.1113C34.4201 35.1428 35 36.5413 35 38C35 39.4587 34.4201 40.8572 33.3887 41.8887C32.3572 42.9201 30.9587 43.5 29.5 43.5C28.0413 43.5 26.6428 42.9201 25.6113 41.8887C24.5799 40.8572 24 39.4587 24 38C24 36.5413 24.5799 35.1428 25.6113 34.1113C25.6296 34.0931 25.6495 34.0766 25.668 34.0586L21.9824 28.9004C21.2192 29.2872 20.3718 29.5 19.5 29.5C18.8154 29.5 18.1459 29.3672 17.5195 29.125L13.8438 34.6387C14.5855 35.597 15 36.7751 15 38C15 39.4587 14.4201 40.8572 13.3887 41.8887C12.3572 42.9201 10.9587 43.5 9.5 43.5C8.04131 43.5 6.64278 42.9201 5.61133 41.8887C4.57988 40.8572 4 39.4587 4 38C4 36.5413 4.57988 35.1428 5.61133 34.1113C6.64278 33.0799 8.04131 32.5 9.5 32.5C10.1653 32.5 10.8166 32.6245 11.4277 32.8535L15.1211 27.3164C14.4013 26.3663 14 25.2056 14 24C14 22.5413 14.5799 21.1428 15.6113 20.1113C16.6428 19.0799 18.0413 18.5 19.5 18.5C19.8709 18.5 20.2377 18.5385 20.5957 18.6113L25.125 11.3203C24.4031 10.3694 24 9.20748 24 8C24 6.54131 24.5799 5.14278 25.6113 4.11133C26.6428 3.07988 28.0413 2.5 29.5 2.5ZM29.5 35.5C28.837 35.5 28.2013 35.7636 27.7324 36.2324C27.2636 36.7013 27 37.337 27 38C27 38.663 27.2636 39.2987 27.7324 39.7676C28.2013 40.2364 28.837 40.5 29.5 40.5C30.163 40.5 30.7987 40.2364 31.2676 39.7676C31.7364 39.2987 32 38.663 32 38C32 37.337 31.7364 36.7013 31.2676 36.2324C30.7987 35.7636 30.163 35.5 29.5 35.5ZM39.5 21.5C38.837 21.5 38.2013 21.7636 37.7324 22.2324C37.2636 22.7013 37 23.337 37 24C37 24.663 37.2636 25.2987 37.7324 25.7676C38.2013 26.2364 38.837 26.5 39.5 26.5C40.163 26.5 40.7987 26.2364 41.2676 25.7676C41.7364 25.2987 42 24.663 42 24C42 23.337 41.7364 22.7013 41.2676 22.2324C40.7987 21.7636 40.163 21.5 39.5 21.5Z" fill="#FAFAFA"/>
</svg>
