<svg width="48" height="48" viewBox="0 0 48 48" fill="none" xmlns="http://www.w3.org/2000/svg">
<path fill-rule="evenodd" clip-rule="evenodd" d="M41 12.5C42.3807 12.5 43.5 13.6193 43.5 15V41C43.5 42.3807 42.3807 43.5 41 43.5H15C13.6193 43.5 12.5 42.3807 12.5 41V15C12.5 13.6193 13.6193 12.5 15 12.5H41ZM17.6211 40.5H21.3789L21.8789 40L20 38.1211L17.6211 40.5ZM26.1211 40L26.6211 40.5H29.3789L29.8789 40L28 38.1211L26.1211 40ZM34.1211 40L34.6211 40.5H38.3789L36 38.1211L34.1211 40ZM15.5 34.6211V38.3789L17.8789 36L16 34.1211L15.5 34.6211ZM38.1211 36L40.5 38.3789V34.6211L40 34.1211L38.1211 36ZM22.1211 36L24 37.8789L25.8789 36L24 34.1211L22.1211 36ZM30.1211 36L32 37.8789L33.8789 36L32 34.1211L30.1211 36ZM18.1211 32L20 33.8789L21.8789 32L20 30.1211L18.1211 32ZM26.1211 32L28 33.8789L29.8789 32L28 30.1211L26.1211 32ZM34.1211 32L36 33.8789L37.8789 32L36 30.1211L34.1211 32ZM15.5 26.6211V29.3789L16 29.8789L17.8789 28L16 26.1211L15.5 26.6211ZM22.1211 28L24 29.8789L25.8789 28L24 26.1211L22.1211 28ZM30.1211 28L32 29.8789L33.8789 28L32 26.1211L30.1211 28ZM38.1211 28L40 29.8789L40.5 29.3789V26.6211L40 26.1211L38.1211 28ZM18.1211 24L20 25.8789L21.8789 24L20 22.1211L18.1211 24ZM26.1211 24L28 25.8789L29.8789 24L28 22.1211L26.1211 24ZM34.1211 24L36 25.8789L37.8789 24L36 22.1211L34.1211 24ZM15.5 21.3789L16 21.8789L17.8789 20L15.5 17.6211V21.3789ZM22.1211 20L24 21.8789L25.8789 20L24 18.1211L22.1211 20ZM30.1211 20L32 21.8789L33.8789 20L32 18.1211L30.1211 20ZM38.1211 20L40 21.8789L40.5 21.3789V17.6211L38.1211 20ZM20 17.8789L21.8789 16L21.3789 15.5H17.6211L20 17.8789ZM26.1211 16L28 17.8789L29.8789 16L29.3789 15.5H26.6211L26.1211 16ZM34.1211 16L36 17.8789L38.3789 15.5H34.6211L34.1211 16Z" fill="#FAFAFA"/>
<path d="M33 4.5C34.3807 4.5 35.5 5.61929 35.5 7V9.5H15C11.9624 9.5 9.5 11.9624 9.5 15V35.5H7C5.61929 35.5 4.5 34.3807 4.5 33V7C4.5 5.61929 5.61929 4.5 7 4.5H33Z" fill="#FAFAFA"/>
</svg>
