<svg width="48" height="48" viewBox="0 0 48 48" fill="none" xmlns="http://www.w3.org/2000/svg">
<path d="M36.999 3.99902C39.7604 3.99902 42 6.23858 42 9V23.1914C41.9998 35.9869 29.7678 41.8286 25.4707 43.4854L25.1104 43.6025C24.2621 43.8396 23.3704 43.782 22.5469 43.4356C18.2657 41.634 6.00016 35.4069 6 23.1914V9C6 6.23858 8.23955 3.99902 11.001 3.99902H36.999Z" fill="#FAFAFA"/>
<path d="M24 28.5007C25.1046 28.5007 26 29.3962 26 30.5007C26 31.6053 25.1046 32.5007 24 32.5007C22.8954 32.5007 22 31.6053 22 30.5007C22 29.3962 22.8954 28.5007 24 28.5007Z" fill="#131313"/>
<path d="M24 15.4988C24.8284 15.4988 25.5 16.1723 25.5 17.0007V25.0007C25.4995 25.8287 24.8281 26.5007 24 26.5007C23.1719 26.5007 22.5005 25.8287 22.5 25.0007V17.0007C22.5 16.1723 23.1716 15.4988 24 15.4988Z" fill="#131313"/>
</svg>
