<svg width="48" height="48" viewBox="0 0 48 48" fill="none" xmlns="http://www.w3.org/2000/svg">
<path fill-rule="evenodd" clip-rule="evenodd" d="M38.3086 4.00781C41.4789 4.16843 44 6.78979 44 10V38L43.9922 38.3086C43.8368 41.3767 41.3767 43.8368 38.3086 43.9922L38 44H10L9.69141 43.9922C6.62332 43.8368 4.16325 41.3767 4.00781 38.3086L4 38V10C4 6.78979 6.52111 4.16843 9.69141 4.00781L10 4H38L38.3086 4.00781ZM24 8C15.1634 8 8 15.1634 8 24C8 32.8366 15.1634 40 24 40C32.8366 40 40 32.8366 40 24C40 15.1634 32.8366 8 24 8Z" fill="#FAFAFA"/>
<path d="M14.0864 27.8525C16.6511 27.7125 18.8341 26.9413 20.5138 25.3351C20.3766 24.9738 20.2962 24.5934 20.2755 24.2075C18.2872 23.9954 16.3461 23.199 14.5079 21.8445C13.8465 21.3591 13.3759 20.6576 13.1777 19.8616C12.9795 19.0656 13.0662 18.2253 13.4227 17.4865C14.4634 15.3359 16.1587 13.8384 18.5087 12.9938C18.6889 12.9292 18.8817 12.9077 19.0717 12.931C19.2617 12.9543 19.4436 13.0217 19.6029 13.1279C19.7622 13.2341 19.8944 13.3761 19.989 13.5425C20.0835 13.7089 20.1378 13.8952 20.1475 14.0864C20.2875 16.6511 21.0587 18.8341 22.6649 20.5138C23.0265 20.3765 23.4072 20.2961 23.7934 20.2755C24.0038 18.2877 24.8012 16.348 26.1555 14.5079C26.6408 13.8465 27.3424 13.3759 28.1384 13.1777C28.9344 12.9795 29.7747 13.0662 30.5135 13.4227C32.6641 14.4633 34.1616 16.1587 35.0062 18.5087C35.0708 18.6889 35.0923 18.8817 35.069 19.0717C35.0457 19.2617 34.9783 19.4436 34.8721 19.6029C34.7659 19.7622 34.6239 19.8944 34.4575 19.989C34.2911 20.0835 34.1048 20.1378 33.9136 20.1475C31.3489 20.2876 29.1659 21.0587 27.4862 22.6649C27.6234 23.0262 27.7038 23.4066 27.7245 23.7925C29.7128 24.0046 31.6539 24.801 33.4921 26.1555C34.1535 26.6409 34.6241 27.3424 34.8223 28.1384C35.0205 28.9344 34.9338 29.7747 34.5773 30.5135C33.5366 32.6641 31.8413 34.1616 29.4914 35.0062C29.3111 35.0708 29.1183 35.0923 28.9283 35.069C28.7383 35.0457 28.5564 34.9783 28.3971 34.8721C28.2378 34.7659 28.1056 34.6239 28.011 34.4575C27.9165 34.2911 27.8622 34.1048 27.8525 33.9136C27.7125 31.3489 26.9413 29.1659 25.3351 27.4862C24.9735 27.6235 24.5928 27.7039 24.2065 27.7245C23.9962 29.7123 23.1987 31.652 21.8445 33.4921C21.3591 34.1535 20.6576 34.6241 19.8616 34.8223C19.0656 35.0205 18.2253 34.9338 17.4865 34.5773C15.3359 33.5366 13.8384 31.8413 12.9938 29.4914C12.9292 29.3112 12.9077 29.1183 12.931 28.9283C12.9543 28.7383 13.0217 28.5564 13.1279 28.3971C13.2341 28.2378 13.3761 28.1056 13.5425 28.0111C13.7089 27.9165 13.8952 27.8622 14.0864 27.8525ZM22.7177 25.2823C22.9713 25.5359 23.2944 25.7087 23.6462 25.7786C23.998 25.8486 24.3626 25.8127 24.694 25.6754C25.0254 25.5382 25.3086 25.3057 25.5078 25.0075C25.7071 24.7093 25.8135 24.3587 25.8135 24C25.8135 23.6413 25.7071 23.2907 25.5078 22.9925C25.3086 22.6943 25.0254 22.4618 24.694 22.3246C24.3626 22.1873 23.998 22.1514 23.6462 22.2214C23.2944 22.2914 22.9713 22.4641 22.7177 22.7177C22.3781 23.0581 22.1874 23.5192 22.1874 24C22.1874 24.4808 22.3781 24.942 22.7177 25.2823Z" fill="#FAFAFA"/>
</svg>
