<svg width="48" height="48" viewBox="0 0 48 48" fill="none" xmlns="http://www.w3.org/2000/svg">
<path d="M32.6829 25.5518C33.9627 24.5564 35.7584 24.5697 37.0227 25.585L44.0754 31.249C44.9025 31.9132 45.3839 32.9168 45.384 33.9775V43.5107C45.3836 45.4433 43.8167 47.0107 41.884 47.0107H39.5305C38.7024 47.0107 38.031 46.3388 38.0305 45.5107V41.417C38.0301 41.1415 37.806 40.9174 37.5305 40.917H31.8625C31.5868 40.9171 31.363 41.1413 31.3625 41.417V45.5107C31.3621 46.3387 30.6906 47.0107 29.8625 47.0107H27.5246C25.5919 47.0107 24.0251 45.4433 24.0246 43.5107V33.9971C24.0247 32.9172 24.524 31.8984 25.3762 31.2354L32.6829 25.5518Z" fill="#FAFAFA"/>
<path d="M18.4309 1.04102C18.7887 1.04102 19.142 1.12549 19.4602 1.28906C19.7785 1.45271 20.0528 1.69135 20.261 1.98242L26.3 10.4355L26.302 10.4395C26.5416 10.7728 26.6858 11.1669 26.718 11.5762C26.7503 11.9872 26.6697 12.3997 26.4836 12.7676C26.2976 13.1353 26.0134 13.4447 25.6633 13.6621C25.3129 13.8796 24.9078 13.9965 24.4954 14H24.4211L29.3352 20.5508C29.8318 21.2133 29.6985 22.1533 29.0364 22.6504C28.3737 23.1475 27.4319 23.0123 26.9348 22.3496L21.1223 14.5996C20.8718 14.2656 20.7186 13.8689 20.6809 13.4531C20.6434 13.037 20.7225 12.6179 20.9094 12.2441C21.0962 11.8706 21.3824 11.5556 21.7375 11.3359C22.0929 11.1163 22.5034 11 22.9211 11H23.0149L18.4309 4.58008L13.8469 11H13.9211C14.339 11 14.7493 11.1163 15.1047 11.3359C15.46 11.5556 15.746 11.8706 15.9329 12.2441C16.1197 12.6179 16.1989 13.037 16.1614 13.4531C16.1237 13.8687 15.9721 14.2657 15.7219 14.5996L9.42113 23H10.9211C11.339 23 11.7493 23.1163 12.1047 23.3359C12.46 23.5556 12.746 23.8706 12.9329 24.2441C13.1197 24.6179 13.1989 25.037 13.1614 25.4531C13.1237 25.8687 12.9721 26.2657 12.7219 26.5996L6.42113 35H18.4211C18.5248 35 18.6261 35.0112 18.7239 35.0312C18.9192 35.0713 19.1014 35.1479 19.261 35.2559C19.4205 35.3638 19.5575 35.5024 19.6653 35.6621C19.8268 35.9014 19.9211 36.1896 19.9211 36.5V45.5C19.9211 46.3284 19.2496 47 18.4211 47C17.5928 46.9999 16.9211 46.3284 16.9211 45.5V38H4.92113C4.50337 38 4.09293 37.8837 3.73754 37.6641C3.38242 37.4444 3.09616 37.1293 2.90941 36.7559C2.72273 36.3824 2.64353 35.9647 2.6809 35.5488C2.71842 35.1327 2.87159 34.7347 3.12231 34.4004L9.42113 26H7.92113C7.50337 26 7.09293 25.8837 6.73754 25.6641C6.38242 25.4444 6.09616 25.1293 5.90941 24.7559C5.72273 24.3824 5.64353 23.9647 5.6809 23.5488C5.71842 23.1327 5.87159 22.7347 6.12231 22.4004L12.4211 14H12.3664C11.9541 13.9965 11.5508 13.8795 11.2004 13.6621C10.8502 13.4447 10.5663 13.1353 10.3801 12.7676C10.194 12.3997 10.1115 11.9871 10.1438 11.5762C10.1761 11.1667 10.3201 10.7729 10.5598 10.4395L16.6008 1.98242C16.8089 1.69152 17.0836 1.45269 17.4016 1.28906C17.7197 1.12549 18.0732 1.04109 18.4309 1.04102Z" fill="#FAFAFA"/>
</svg>
