<svg width="48" height="48" viewBox="0 0 48 48" fill="none" xmlns="http://www.w3.org/2000/svg">
<path d="M16.5 12.75C16.9973 12.75 17.4745 12.9472 17.8262 13.2988C18.1778 13.6505 18.375 14.1277 18.375 14.625V22.5H29.625V14.625C29.625 14.1277 29.8222 13.6505 30.1738 13.2988C30.5255 12.9472 31.0027 12.75 31.5 12.75H33.375C33.8723 12.75 34.3495 12.9472 34.7012 13.2988C35.0528 13.6505 35.25 14.1277 35.25 14.625V33.375C35.25 33.8723 35.0528 34.3495 34.7012 34.7012L34.5625 34.8262C34.229 35.0991 33.8097 35.25 33.375 35.25H31.5C31.0653 35.25 30.646 35.0991 30.3125 34.8262L30.1738 34.7012C29.8222 34.3495 29.625 33.8723 29.625 33.375V25.5H18.375V33.375C18.375 33.8723 18.1778 34.3495 17.8262 34.7012L17.6875 34.8262C17.354 35.0991 16.9347 35.25 16.5 35.25H14.625C14.1903 35.25 13.771 35.0991 13.4375 34.8262L13.2988 34.7012C12.9472 34.3495 12.75 33.8723 12.75 33.375V14.625C12.75 14.1277 12.9472 13.6505 13.2988 13.2988C13.6505 12.9472 14.1277 12.75 14.625 12.75H16.5Z" fill="#FAFAFA"/>
<path d="M10 31.5H9C8.56526 31.5 8.14601 31.3491 7.8125 31.0762L7.67383 30.9512C7.3222 30.5995 7.125 30.1223 7.125 29.625V25.5H5.25C4.42157 25.5 3.75 24.8284 3.75 24C3.75 23.1716 4.42157 22.5 5.25 22.5H7.125V18.375C7.125 17.8777 7.3222 17.4005 7.67383 17.0488C8.02546 16.6972 8.50272 16.5 9 16.5H10V31.5Z" fill="#FAFAFA"/>
<path d="M39 16.5C39.4973 16.5 39.9745 16.6972 40.3262 17.0488C40.6778 17.4005 40.875 17.8777 40.875 18.375V22.5H42.75C43.5784 22.5 44.25 23.1716 44.25 24C44.25 24.8284 43.5784 25.5 42.75 25.5H40.875V29.625C40.875 30.1223 40.6778 30.5995 40.3262 30.9512L40.1875 31.0762C39.854 31.3491 39.4347 31.5 39 31.5H38V16.5H39Z" fill="#FAFAFA"/>
</svg>
