<svg width="48" height="48" viewBox="0 0 48 48" fill="none" xmlns="http://www.w3.org/2000/svg">
<path d="M13.238 36.8701C13.4866 36.8841 13.7291 36.9552 13.9451 37.0791C14.1608 37.2029 14.3447 37.3757 14.4822 37.583C14.9513 38.2851 15.5773 38.8688 16.3103 39.2881C17.0433 39.7073 17.8638 39.9506 18.7068 39.999C19.6385 39.9422 20.5477 39.6897 21.3747 39.2568C22.202 38.8239 22.9278 38.2206 23.5056 37.4873C23.6709 37.275 23.8874 37.1076 24.1345 37.001C24.3815 36.8945 24.6519 36.8526 24.9197 36.8779C25.1875 36.9034 25.4452 36.9963 25.6677 37.1475C25.8903 37.2988 26.0728 37.5034 26.1951 37.7432C26.5502 38.4108 27.0765 38.9716 27.7204 39.3682C28.3644 39.7647 29.103 39.9824 29.8591 39.999C30.7 39.9766 31.5225 39.7494 32.2556 39.3369C32.9889 38.9242 33.6106 38.3392 34.0662 37.6318C34.2111 37.4075 34.4098 37.2226 34.6443 37.0947C34.879 36.9669 35.1427 36.8995 35.4099 36.8994C35.6772 36.8994 35.9408 36.9669 36.1755 37.0947C36.4102 37.2225 36.6086 37.4074 36.7537 37.6318C36.7697 37.6478 38.4983 40.335 41.0583 39.999C41.466 39.9477 41.8782 40.0557 42.2087 40.2998C42.5393 40.544 42.7629 40.9067 42.8337 41.3115C42.8803 41.7192 42.7684 42.1304 42.5212 42.458C42.2741 42.7851 41.9101 43.0042 41.5056 43.0713C40.4548 43.1942 39.3901 43.0815 38.3884 42.7412C37.3867 42.4009 36.473 41.8421 35.7146 41.1045C35.6817 41.0696 35.6414 41.0414 35.5974 41.0225C35.5536 41.0036 35.5065 40.9932 35.4587 40.9932C35.4108 40.9932 35.3621 41.0035 35.3181 41.0225C35.2744 41.0414 35.2356 41.0698 35.2029 41.1045C33.7424 42.44 31.8381 43.1865 29.8591 43.2002C28.9286 43.2 28.0056 43.0161 27.1462 42.6592C26.2871 42.3023 25.5061 41.7791 24.8494 41.1201C24.7807 41.0538 24.6889 41.0166 24.5935 41.0166C24.4982 41.0168 24.4061 41.0538 24.3376 41.1201C22.7675 42.4288 20.7973 43.1629 18.7537 43.2002C16.7219 43.1714 14.7771 42.3703 13.3142 40.96C13.2411 40.9029 13.1511 40.8721 13.0583 40.8721C12.9656 40.8721 12.8756 40.9029 12.8025 40.96C11.3062 42.3085 9.39041 43.0999 7.37865 43.2002C7.09673 43.2234 6.81292 43.2234 6.531 43.2002C6.10706 43.1451 5.72172 42.9235 5.46068 42.585C5.19963 42.2459 5.08325 41.8159 5.13842 41.3916C5.19363 40.9674 5.41473 40.5823 5.75365 40.3213C6.09272 40.0602 6.52267 39.9439 6.94701 39.999C9.57944 40.3791 11.8814 37.4911 11.9216 37.4404C12.0815 37.2496 12.2849 37.0979 12.5134 36.999C12.7417 36.9003 12.9898 36.8562 13.238 36.8701Z" fill="#FAFAFA"/>
<path fill-rule="evenodd" clip-rule="evenodd" d="M20.0173 15.0068C20.2252 15.0068 20.425 15.0904 20.572 15.2373C20.719 15.3843 20.8025 15.5841 20.8025 15.792V20.4951C20.8021 20.5519 20.8127 20.6092 20.8357 20.6611C20.8587 20.7131 20.8929 20.76 20.9353 20.7978C20.9775 20.8355 21.0278 20.8629 21.0818 20.8799C21.1359 20.8969 21.1934 20.9023 21.2497 20.8955H26.7068C26.8098 20.8912 26.9069 20.8468 26.9783 20.7725C27.0497 20.6979 27.0897 20.5984 27.0896 20.4951V15.792C27.0896 15.5841 27.173 15.3843 27.3201 15.2373C27.4671 15.0905 27.667 15.0068 27.8747 15.0068H31.074C31.2819 15.0068 31.4816 15.0903 31.6287 15.2373C31.7756 15.3843 31.8572 15.5841 31.8572 15.792V20.6396C31.8571 20.7428 31.8972 20.8425 31.9685 20.917C32.0401 20.9916 32.1386 21.0359 32.2419 21.04H34.3533C34.8505 21.0318 35.3382 21.1821 35.7439 21.4697C36.1496 21.7574 36.4524 22.1677 36.6091 22.6396L38.4978 28.9287C38.5249 29.0085 38.5775 29.0773 38.6462 29.126C38.7152 29.1747 38.7981 29.2013 38.8826 29.2002H40.8025C41.0749 29.2014 41.3446 29.2595 41.5935 29.3701C41.8423 29.4808 42.0664 29.6414 42.2497 29.8428C42.4331 30.0443 42.573 30.2818 42.6599 30.54C42.7468 30.7984 42.778 31.0732 42.7537 31.3447C42.5393 33.5444 41.6378 35.6213 40.1775 37.2803C40.1062 37.3475 40.0118 37.3857 39.9138 37.3857C39.8158 37.3857 39.7214 37.3476 39.6501 37.2803C39.2944 37.0162 38.9769 36.7036 38.7068 36.3525C38.3521 35.7855 37.858 35.3178 37.2732 34.9932C36.6883 34.6685 36.03 34.4962 35.3611 34.4951C34.684 34.4826 34.0159 34.6517 33.4255 34.9834C32.8349 35.3153 32.3432 35.7986 32.0017 36.3838C31.7815 36.7507 31.4795 37.0616 31.1189 37.292C30.758 37.5224 30.3474 37.6665 29.9216 37.7119C29.5981 37.7155 29.2789 37.6319 28.9978 37.4717C28.717 37.3114 28.4837 37.0798 28.322 36.7998C28.0215 36.1156 27.5324 35.5308 26.9119 35.1143C26.2914 34.6978 25.5651 34.4672 24.8181 34.4482C24.1987 34.4555 23.589 34.603 23.0349 34.8799C22.4808 35.1569 21.9964 35.5566 21.6189 36.0478C21.273 36.4927 20.8394 36.8628 20.3474 37.1377C19.8555 37.4124 19.3137 37.5861 18.7537 37.6475C18.3135 37.5971 17.8883 37.4564 17.5056 37.2334C17.1229 37.0103 16.7898 36.7107 16.529 36.3525C16.1743 35.7856 15.6821 35.3178 15.0974 34.9932C14.5125 34.6685 13.8542 34.4962 13.1853 34.4951C12.5998 34.5027 12.0234 34.6396 11.4958 34.8936C10.968 35.1478 10.5017 35.5145 10.1306 35.9678C9.62185 36.5591 9.00821 37.0518 8.32201 37.4228C8.24286 37.4622 8.15283 37.4752 8.06615 37.458C7.97928 37.4406 7.89962 37.394 7.84154 37.3271C6.33655 35.6464 5.41205 33.5266 5.20287 31.2803C5.1689 31.0038 5.19258 30.7221 5.27514 30.4561C5.3577 30.1901 5.49696 29.944 5.68139 29.7353C5.86573 29.5271 6.09191 29.3595 6.34545 29.2451C6.5994 29.1306 6.87545 29.0715 7.15404 29.0713H9.07397C9.15838 29.0723 9.24137 29.0478 9.31029 28.999C9.37928 28.9502 9.43168 28.8799 9.45873 28.7998L11.3298 22.4951C11.4937 22.0247 11.8015 21.6179 12.2087 21.3311C12.6161 21.0442 13.1031 20.8913 13.6013 20.8955H15.6501C15.7533 20.8913 15.8501 20.8469 15.9216 20.7725C15.9932 20.6979 16.035 20.5985 16.0349 20.4951V15.792C16.0349 15.5841 16.1164 15.3843 16.2634 15.2373C16.4104 15.0903 16.6102 15.0068 16.8181 15.0068H20.0173ZM14.4021 23.999C14.3239 24.0123 14.2518 24.051 14.197 24.1084C14.1423 24.166 14.1067 24.2404 14.0974 24.3193L12.8025 28.624C12.7854 28.6823 12.7805 28.7438 12.7908 28.8037C12.801 28.8636 12.8256 28.9204 12.8611 28.9697C12.8965 29.019 12.9424 29.0601 12.9958 29.0889C13.0493 29.1176 13.109 29.1333 13.1697 29.1357H34.8826C34.9444 29.1356 35.005 29.1204 35.0603 29.0928C35.1158 29.065 35.1656 29.0253 35.2029 28.9756C35.2308 28.9213 35.2439 28.8608 35.2439 28.7998C35.2439 28.7388 35.2308 28.6783 35.2029 28.624L33.9704 24.2881C33.9494 24.2064 33.902 24.1331 33.8357 24.0811C33.7692 24.029 33.6858 23.9999 33.6013 23.999H14.4021Z" fill="#FAFAFA"/>
<path d="M24.7537 4.7998C25.178 4.7998 25.5864 4.9685 25.8865 5.26855C26.1861 5.56847 26.3532 5.97546 26.3533 6.39941C26.3327 7.41415 25.9201 8.38245 25.2009 9.09863C24.4818 9.81456 23.5124 10.2229 22.4978 10.2393C22.0737 10.2393 21.6669 10.4082 21.3669 10.708C21.0671 11.0078 20.8984 11.4149 20.8982 11.8389C20.8982 12.2632 20.7295 12.6716 20.4294 12.9717C20.1295 13.2715 19.7226 13.4403 19.2986 13.4404C18.8901 13.4543 18.4917 13.3105 18.1853 13.04C17.8788 12.7693 17.6867 12.3907 17.6501 11.9834C17.6501 10.7245 18.1446 9.51592 19.0271 8.61816C19.91 7.72025 21.1117 7.20556 22.3708 7.18457C22.5783 7.18438 22.7768 7.1007 22.9236 6.9541C23.0706 6.80707 23.154 6.60734 23.154 6.39941C23.1541 5.97523 23.3229 5.56852 23.6228 5.26855C23.9227 4.96861 24.3295 4.79993 24.7537 4.7998Z" fill="#FAFAFA"/>
<path d="M34.1775 4.7998C34.6018 4.7998 35.0102 4.9685 35.3103 5.26855C35.6099 5.56847 35.777 5.97546 35.7771 6.39941C35.7564 7.41673 35.3413 8.38596 34.6189 9.10254C33.8963 9.81914 32.9236 10.227 31.906 10.2393C31.4819 10.2393 31.0751 10.4083 30.7751 10.708C30.4753 11.0078 30.3066 11.4149 30.3064 11.8389C30.3064 12.2632 30.1377 12.6716 29.8376 12.9717C29.5378 13.2715 29.1308 13.4402 28.7068 13.4404C28.301 13.4502 27.9063 13.3043 27.6033 13.0342C27.3002 12.7638 27.1104 12.3879 27.074 11.9834C27.0739 10.7245 27.5684 9.51592 28.4509 8.61816C29.3339 7.72025 30.5355 7.20556 31.7947 7.18457C32.0021 7.18438 32.2006 7.1007 32.3474 6.9541C32.4944 6.80707 32.5779 6.60734 32.5779 6.39941C32.578 5.97523 32.7467 5.56852 33.0466 5.26855C33.3466 4.96861 33.7533 4.79993 34.1775 4.7998Z" fill="#FAFAFA"/>
</svg>
