<svg width="48" height="48" viewBox="0 0 48 48" fill="none" xmlns="http://www.w3.org/2000/svg">
<path fill-rule="evenodd" clip-rule="evenodd" d="M29.1816 4.00049C30.1552 4.00054 31.1201 4.19233 32.0195 4.56494C32.9188 4.93756 33.7356 5.48404 34.4238 6.17236L41.8281 13.5767C42.5164 14.2649 43.0629 15.0817 43.4355 15.981C43.8082 16.8804 44 17.8453 44 18.8188C44 19.7925 43.8082 20.7572 43.4355 21.6567C43.0629 22.5563 42.5167 23.3745 41.8281 24.063L36.3945 29.4946C35.7062 30.183 34.8895 30.7295 33.9902 31.102C33.0907 31.4747 32.126 31.6665 31.1523 31.6665C30.1787 31.6665 29.2139 31.4747 28.3145 31.102C27.6076 30.8091 26.9518 30.4086 26.3691 29.9165L13.9316 42.356C12.9994 43.2881 11.7683 43.8636 10.4551 43.979L10.3926 43.9829L10.0332 43.9985L9.99805 44.0005H7.55469C6.68413 44.0002 5.84396 43.6805 5.19336 43.1021C4.54281 42.5236 4.12748 41.7263 4.02539 40.8618L4.01953 40.8188L4.01758 40.7759L4.00195 40.5337L4 40.4888V38.0356C4.00032 36.7183 4.46448 35.4419 5.31055 34.4321L5.33203 34.4087L5.35352 34.3833L5.59766 34.1157L5.64453 34.0688L6.49414 33.2173L6.93359 32.7778H10.166V28.6665H14.2773V25.4341L18.082 21.6294C17.5907 21.0472 17.191 20.3921 16.8984 19.686C16.5258 18.7865 16.334 17.8218 16.334 16.8481C16.334 15.8744 16.5258 14.9098 16.8984 14.0103C17.271 13.1109 17.8175 12.2943 18.5059 11.606L23.9375 6.17236C24.6259 5.48382 25.4442 4.93759 26.3438 4.56494C27.2433 4.19229 28.2079 4.00049 29.1816 4.00049ZM33.6191 10.6841C31.5455 10.6842 29.8652 12.359 29.8652 14.4243C29.8655 16.4894 31.5456 18.1625 33.6191 18.1626C35.6929 18.1626 37.3747 16.4895 37.375 14.4243C37.375 12.3589 35.6931 10.6841 33.6191 10.6841Z" fill="#FAFAFA"/>
</svg>
