<svg width="48" height="48" viewBox="0 0 48 48" fill="none" xmlns="http://www.w3.org/2000/svg">
<path d="M21.0859 38.8926C21.0836 41.2407 19.1801 43.1442 16.832 43.1445H9.16602C6.81778 43.1444 4.91443 41.2408 4.91211 38.8926L4.91016 37.082H21.0879L21.0859 38.8926Z" fill="#FAFAFA"/>
<path d="M40.1231 32.6641C41.7998 32.8348 43.1074 34.2509 43.1074 35.9727C43.1071 37.2108 42.4205 38.3395 41.3379 38.9121L41.1152 39.0195L38.543 40.1445H41.6074C42.4358 40.1445 43.1074 40.8161 43.1074 41.6445C43.107 42.4726 42.4356 43.1445 41.6074 43.1445H36.6094C35.7812 43.1445 35.1098 42.4726 35.1094 41.6445V40.5801C35.1094 39.2397 35.9029 38.0259 37.1309 37.4883L39.9121 36.2715C40.0307 36.2196 40.107 36.1015 40.1074 35.9727C40.1074 35.8374 40.0255 35.7212 39.9082 35.6719L39.7813 35.6465H38.4844C38.3236 35.6465 38.1829 35.7492 38.1309 35.8965C37.8545 36.6767 36.9973 37.0859 36.2168 36.8105C35.4359 36.5346 35.0272 35.6774 35.3027 34.8965C35.7653 33.5878 37.0129 32.6465 38.4844 32.6465H39.7813L40.1231 32.6641Z" fill="#FAFAFA"/>
<path fill-rule="evenodd" clip-rule="evenodd" d="M29.4629 20.2891C32.5731 20.2893 35.0954 22.8114 35.0957 25.9219V31.8359C35.0952 34.9461 32.5729 37.4665 29.4629 37.4668H28.2754C25.1651 37.4668 22.6431 34.9462 22.6426 31.8359V25.9219C22.6428 22.8114 25.1649 20.2891 28.2754 20.2891H29.4629ZM28.2754 23.2891C26.8217 23.2891 25.6428 24.4683 25.6426 25.9219V31.8359C25.6431 33.2892 26.8218 34.4668 28.2754 34.4668H29.4629C30.9162 34.4665 32.0952 33.2891 32.0957 31.8359V25.9219C32.0954 24.4683 30.9164 23.2893 29.4629 23.2891H28.2754Z" fill="#FAFAFA"/>
<path d="M21.0898 34.082H4.90625L4.90039 26.877H21.0957L21.0898 34.082Z" fill="#FAFAFA"/>
<path fill-rule="evenodd" clip-rule="evenodd" d="M15.4727 4.85547C16.3006 4.85576 16.9723 5.52756 16.9727 6.35547C16.9727 7.18371 16.3008 7.85517 15.4727 7.85547H14.4961V9.80469H15.5176C16.9696 9.80506 18.167 10.8817 18.3633 12.2793H20.3457V11.3047C20.346 10.4765 21.0174 9.80469 21.8457 9.80469C22.674 9.80469 23.3454 10.4765 23.3457 11.3047V16.2539C23.3454 17.0821 22.674 17.7539 21.8457 17.7539C21.0175 17.7539 20.346 17.0821 20.3457 16.2539V15.2793H18.3906L18.3867 17.6465C20.0383 18.9302 21.1014 20.9357 21.0996 23.1895V23.877H4.89844V23.1895C4.8966 20.9362 5.95852 18.9302 7.60938 17.6465L7.60352 12.6855C7.60192 11.0954 8.89037 9.80497 10.4805 9.80469H11.4961V7.85547H10.5234C9.69501 7.85547 9.02344 7.1839 9.02344 6.35547C9.02384 5.52738 9.69526 4.85547 10.5234 4.85547H15.4727ZM10.6074 16.2949C11.029 16.2158 11.4636 16.1738 11.9082 16.1738H14.0898C14.5337 16.1739 14.9677 16.216 15.3887 16.2949L15.3945 12.8047H13.0352C13.0222 12.805 13.0092 12.8066 12.9961 12.8066C12.983 12.8066 12.97 12.805 12.957 12.8047H10.6035L10.6074 16.2949Z" fill="#FAFAFA"/>
</svg>
