<svg width="48" height="48" viewBox="0 0 48 48" fill="none" xmlns="http://www.w3.org/2000/svg">
<path d="M23.2002 5.34961C32.2784 5.34988 39.7002 12.7723 39.7002 21.8506C39.6999 22.6786 39.0282 23.3503 38.2002 23.3506C37.3719 23.3506 36.7005 22.6788 36.7002 21.8506C36.7002 14.4292 30.6215 8.35085 23.2002 8.35059C15.7786 8.35059 9.7002 14.429 9.7002 21.8506C9.70046 29.2719 15.7788 35.3506 23.2002 35.3506H36.2979L33.54 33.0527C32.9038 32.5225 32.8178 31.5768 33.3477 30.9404C33.8779 30.3041 34.8235 30.2179 35.46 30.748L41.46 35.748C41.8018 36.033 42 36.4553 42 36.9004C41.9999 37.3454 41.8018 37.7678 41.46 38.0527L35.46 43.0527C34.8236 43.5826 33.8779 43.4964 33.3477 42.8604C32.8176 42.224 32.9039 41.2784 33.54 40.748L36.417 38.3506H23.2002C14.1219 38.3506 6.69948 30.9288 6.69922 21.8506C6.69922 12.7722 14.1218 5.34961 23.2002 5.34961Z" fill="#FAFAFA"/>
<path d="M22.918 13.9141C23.2902 13.5113 23.909 13.5113 24.2812 13.9141C25.8536 15.617 29.5996 20.0193 29.5996 23.3057C29.5995 24.8689 28.9669 26.3683 27.8418 27.4736C26.7166 28.5789 25.1908 29.2002 23.5996 29.2002C22.0085 29.2002 20.4826 28.5789 19.3574 27.4736C18.2323 26.3683 17.5997 24.8689 17.5996 23.3057C17.5996 20.0193 21.3456 15.617 22.918 13.9141Z" fill="#FAFAFA"/>
</svg>
