<svg width="48" height="48" viewBox="0 0 48 48" fill="none" xmlns="http://www.w3.org/2000/svg">
<path fill-rule="evenodd" clip-rule="evenodd" d="M19.3809 20.0996C21.5344 20.0998 23.281 21.8465 23.2812 24C23.281 26.1536 21.5345 27.9002 19.3809 27.9004C17.2271 27.9004 15.4807 26.1537 15.4805 24C15.4807 21.8464 17.2271 20.0996 19.3809 20.0996ZM19.3809 23.0996C18.884 23.0996 18.4807 23.5032 18.4805 24C18.4807 24.4969 18.8839 24.9004 19.3809 24.9004C19.8776 24.9002 20.281 24.4967 20.2812 24C20.281 23.5033 19.8776 23.0998 19.3809 23.0996Z" fill="#FAFAFA"/>
<path fill-rule="evenodd" clip-rule="evenodd" d="M28.9824 20.0996C31.1359 20.0998 32.8825 21.8465 32.8828 24C32.8826 26.1536 31.136 27.9002 28.9824 27.9004C26.8287 27.9004 25.0822 26.1537 25.082 24C25.0823 21.8464 26.8287 20.0996 28.9824 20.0996ZM28.9824 23.0996C28.4856 23.0996 28.0823 23.5032 28.082 24C28.0822 24.4968 28.4855 24.9004 28.9824 24.9004C29.4791 24.9002 29.8826 24.4967 29.8828 24C29.8825 23.5033 29.4791 23.0998 28.9824 23.0996Z" fill="#FAFAFA"/>
<path fill-rule="evenodd" clip-rule="evenodd" d="M37.2012 4.80078C40.5148 4.80099 43.2012 7.4872 43.2012 10.8008V37.1992C43.2012 40.5128 40.5148 43.199 37.2012 43.1992H10.8008C7.48707 43.1992 4.80078 40.513 4.80078 37.1992V10.8008C4.80078 7.48707 7.48707 4.80078 10.8008 4.80078H37.2012ZM22.6445 10.7539C19.972 11.0363 17.3698 12.1578 15.2617 14.1152C13.6925 15.5728 12.801 17.618 12.8008 19.7598V21.2012H10.582V26.7012H12.8008V28.2402C12.8008 30.3823 13.6922 32.4288 15.2617 33.8867C17.3697 35.8442 19.9721 36.9637 22.6445 37.2461C22.6036 37.1048 22.5821 36.9552 22.582 36.8008V32.8008C22.582 31.9172 23.2982 31.2014 24.1816 31.2012C25.0653 31.2012 25.7812 31.9171 25.7812 32.8008V36.8008C25.7812 36.9391 25.7635 37.073 25.7305 37.2012C28.2706 36.8572 30.7288 35.7525 32.7383 33.8867C34.3082 32.4288 35.2012 30.3826 35.2012 28.2402V26.7012H37.4199V21.2012H35.2012V19.7598C35.2009 17.6177 34.3079 15.5729 32.7383 14.1152C30.7293 12.2497 28.2722 11.1449 25.7324 10.8008C25.7652 10.9285 25.7812 11.0632 25.7812 11.2012V15.2012C25.7809 16.0845 25.0651 16.8008 24.1816 16.8008C23.2984 16.8006 22.5824 16.0844 22.582 15.2012V11.2012C22.582 11.0465 22.6036 10.8954 22.6445 10.7539Z" fill="#FAFAFA"/>
</svg>
