<svg width="48" height="48" viewBox="0 0 48 48" fill="none" xmlns="http://www.w3.org/2000/svg">
<path d="M18.1572 11.9917C16.703 11.9917 15.2833 12.73 14.6719 14.1675L12.127 19.3989H10.4199C6.8034 19.399 4 22.2023 4 25.8188V28.2876C4.00005 30.4226 5.81613 32.2378 7.95117 32.2378H9C9.52489 34.4011 11.4692 36.0093 13.7939 36.0093C16.1188 36.0091 18.0631 34.401 18.5879 32.2378H28.4258C28.9507 34.401 30.8941 36.0092 33.2188 36.0093C35.5434 36.0091 37.4879 34.4011 38.0127 32.2378H40.0498C42.1846 32.2375 43.9999 30.4225 44 28.2876V25.8188C44 22.2024 41.1965 19.3991 37.5801 19.3989H32.9102L30.3525 14.1421L30.291 14.0278L30.1504 13.8062C29.411 12.7236 28.2083 11.9917 26.8799 11.9917H18.1572ZM33.2188 29.0962C34.3094 29.0964 35.1942 29.9801 35.1943 31.0708C35.1943 32.1616 34.3095 33.0462 33.2188 33.0464C32.128 33.0463 31.2441 32.1616 31.2441 31.0708C31.2443 29.9801 32.128 29.0963 33.2188 29.0962ZM13.7939 29.0962C14.8847 29.0964 15.7694 29.9801 15.7695 31.0708C15.7695 32.1616 14.8848 33.0461 13.7939 33.0464C12.7031 33.0464 11.8184 32.1617 11.8184 31.0708C11.8185 29.9801 12.7032 29.0962 13.7939 29.0962ZM26.8799 14.9546C27.1028 14.9546 27.463 15.1005 27.7275 15.5171L29.6152 19.3989H15.4219L17.3486 15.438C17.3641 15.4061 17.3784 15.3732 17.3916 15.3403C17.456 15.1794 17.6604 14.9546 18.1572 14.9546H26.8799Z" fill="#FAFAFA"/>
</svg>
