<svg width="48" height="48" viewBox="0 0 48 48" fill="none" xmlns="http://www.w3.org/2000/svg">
<path fill-rule="evenodd" clip-rule="evenodd" d="M12 33.1924C12 39.8198 17.3726 45.1924 24 45.1924C30.6274 45.1924 36 39.8198 36 33.1924V23.1924C36 16.565 30.6274 11.1924 24 11.1924C17.3726 11.1924 12 16.565 12 23.1924V33.1924ZM25.5 35.6924C25.5 36.5208 24.8284 37.1924 24 37.1924C23.1716 37.1924 22.5 36.5208 22.5 35.6924V30.6924C22.5 29.864 23.1716 29.1924 24 29.1924C24.8284 29.1924 25.5 29.864 25.5 30.6924V35.6924Z" fill="#FAFAFA"/>
<path fill-rule="evenodd" clip-rule="evenodd" d="M16.7519 7.52443C17.2115 8.21373 18.1428 8.39999 18.832 7.94046L22.6132 5.41966C23.453 4.85983 24.547 4.85983 25.3867 5.41966L29.1679 7.94046C29.8572 8.39999 30.7885 8.21373 31.2481 7.52443C31.7076 6.83514 31.5213 5.90384 30.8321 5.44431L27.0508 2.92351C25.2034 1.69188 22.7966 1.69188 20.9491 2.92351L17.1679 5.44431C16.4787 5.90384 16.2924 6.83514 16.7519 7.52443Z" fill="#FAFAFA"/>
</svg>
