<svg width="48" height="48" viewBox="0 0 48 48" fill="none" xmlns="http://www.w3.org/2000/svg">
<path fill-rule="evenodd" clip-rule="evenodd" d="M6 22C6 13.1634 13.1634 6 22 6C30.8366 6 38 13.1634 38 22C38 25.8775 36.6191 29.4348 34.3248 32.2035L41.0615 38.9402C41.6473 39.526 41.6473 40.4757 41.0615 41.0615C40.4757 41.6473 39.526 41.6473 38.9402 41.0615L32.2035 34.3248C29.4348 36.6191 25.8775 38 22 38C13.1634 38 6 30.8366 6 22ZM23.5 15.5C23.5 14.6716 22.8284 14 22 14C21.1716 14 20.5 14.6716 20.5 15.5V20.5H15.5C14.6716 20.5 14 21.1716 14 22C14 22.8284 14.6716 23.5 15.5 23.5H20.5V28.5C20.5 29.3284 21.1716 30 22 30C22.8284 30 23.5 29.3284 23.5 28.5V23.5H28.5C29.3284 23.5 30 22.8284 30 22C30 21.1716 29.3284 20.5 28.5 20.5H23.5V15.5Z" fill="#FAFAFA"/>
</svg>
