<svg width="48" height="48" viewBox="0 0 48 48" fill="none" xmlns="http://www.w3.org/2000/svg">
<path fill-rule="evenodd" clip-rule="evenodd" d="M4 24C4 12.9543 12.9543 4 24 4C35.0457 4 44 12.9543 44 24C44 35.0457 35.0457 44 24 44C12.9543 44 4 35.0457 4 24ZM25.5 11.5C25.5 10.6716 24.8284 10 24 10C23.1716 10 22.5 10.6716 22.5 11.5V13.6109C21.3846 13.7839 20.3418 14.1706 19.485 14.8461C18.1971 15.8615 17.5262 17.3743 17.5262 19.2016C17.5262 21.3292 18.3908 22.7741 19.7083 23.7444C20.7686 24.5253 22.1131 24.9748 23.1892 25.3347C23.3021 25.3724 23.4121 25.4092 23.5184 25.4452L23.7665 25.5292C24.9614 25.9331 25.8525 26.2343 26.5127 26.7205C27.0719 27.1324 27.4738 27.6853 27.4738 28.8476C27.4738 29.892 27.1237 30.4799 26.6577 30.8473C26.1364 31.2582 25.2671 31.549 24 31.549C22.3923 31.549 21.3635 30.8153 20.8509 29.8953C20.4478 29.1716 19.5343 28.9118 18.8106 29.3149C18.0869 29.7181 17.827 30.6316 18.2302 31.3553C19.0881 32.8953 20.5834 34.018 22.5 34.4033V36.5C22.5 37.3284 23.1716 38 24 38C24.8284 38 25.5 37.3284 25.5 36.5V34.4384C26.6154 34.2654 27.6582 33.8787 28.515 33.2031C29.8029 32.1878 30.4738 30.675 30.4738 28.8476C30.4738 26.7201 29.6092 25.2752 28.2917 24.3049C27.2314 23.524 25.8869 23.0744 24.8108 22.7146C24.6979 22.6769 24.5879 22.6401 24.4816 22.604L24.2335 22.5201C23.0386 22.1162 22.1475 21.815 21.4873 21.3288C20.9281 20.9169 20.5262 20.364 20.5262 19.2016C20.5262 18.1573 20.8763 17.5694 21.3423 17.202C21.8636 16.7911 22.7329 16.5003 24 16.5003C25.6077 16.5003 26.6365 17.234 27.1491 18.154C27.5522 18.8777 28.4657 19.1375 29.1894 18.7343C29.9131 18.3312 30.173 17.4177 29.7698 16.694C28.9119 15.1539 27.4166 14.0313 25.5 13.646V11.5Z" fill="#FAFAFA"/>
</svg>
