<svg width="48" height="48" viewBox="0 0 48 48" fill="none" xmlns="http://www.w3.org/2000/svg">
<path fill-rule="evenodd" clip-rule="evenodd" d="M28.4532 4.50802C29.1828 4.58198 29.751 5.1791 29.7911 5.91818L37.2227 4.5256L37.3887 4.50412C37.7735 4.47547 38.1568 4.59699 38.4571 4.84592C38.8004 5.13085 39 5.55406 39.0001 6.00021V12.0002C39.0001 12.4464 38.8004 12.8695 38.4571 13.1545C38.1138 13.4391 37.6611 13.557 37.2227 13.4748L29.8008 12.0822V12.3322C30.5293 12.7648 31.1996 13.2959 31.7911 13.9143C32.6543 14.8168 33.3351 15.8862 33.7989 17.0569C34.2625 18.2272 34.5019 19.4793 34.502 20.7424V42.0002C34.502 42.8282 33.8298 43.4995 33.002 43.5002H17.334C16.5056 43.5002 15.834 42.8286 15.834 42.0002V20.7209L15.8458 20.2463C15.963 17.8728 16.9176 15.6103 18.5508 13.9065C19.1446 13.2871 19.8128 12.7598 20.5333 12.3322V10.7756H15.0176L10.7149 16.7072L10.6172 16.8283C10.1109 17.3949 9.24764 17.497 8.6192 17.0412C7.94923 16.5549 7.79956 15.6179 8.28521 14.9475L13.0372 8.39474L13.1504 8.25607C13.4324 7.95138 13.8315 7.77563 14.252 7.7756H20.5333V6.00021L20.5411 5.84592C20.6183 5.09014 21.2571 4.50046 22.0333 4.50021H28.3008L28.4532 4.50802ZM31.0001 8.74435V9.25412L36.0001 10.1916V7.80685L31.0001 8.74435Z" fill="#FAFAFA"/>
<path d="M27.5 20.5C28.3284 20.5 29 21.1716 29 22C29 22.8284 28.3284 23.5 27.5 23.5H23.5C22.6716 23.5 22 22.8284 22 22C22 21.1716 22.6716 20.5 23.5 20.5H27.5Z" fill="#131313"/>
</svg>
