<svg width="48" height="48" viewBox="0 0 48 48" fill="none" xmlns="http://www.w3.org/2000/svg">
<path fill-rule="evenodd" clip-rule="evenodd" d="M4 13.5C4 10.4624 6.46243 8 9.5 8H26.5C29.5376 8 32 10.4624 32 13.5V17.5738L38.9348 14.1064C41.2619 12.9429 44 14.6351 44 17.2369V30.7648C44 33.3666 41.2619 35.0589 38.9348 33.8953L32 30.4279V34.5C32 37.5376 29.5376 40 26.5 40H9.5C6.46244 40 4 37.5376 4 34.5V13.5ZM32 27.0738L40.2764 31.212C40.6088 31.3782 41 31.1365 41 30.7648V17.2369C41 16.8652 40.6088 16.6235 40.2764 16.7897L32 20.9279V27.0738Z" fill="#FAFAFA"/>
</svg>
