<svg width="48" height="48" viewBox="0 0 48 48" fill="none" xmlns="http://www.w3.org/2000/svg">
<path d="M22.752 33.1685C23.2116 32.4793 24.1429 32.2931 24.832 32.7524C25.5213 33.212 25.7074 34.1434 25.248 34.8325L24.6348 35.7524C24.2984 36.2572 24.4152 36.9373 24.9004 37.3013C26.6587 38.6205 27.0807 41.0835 25.8613 42.9126L25.248 43.8325C24.7887 44.5219 23.8572 44.7081 23.168 44.2485C22.4786 43.7891 22.2926 42.8577 22.752 42.1685L23.3652 41.2485C23.7014 40.7441 23.5845 40.0655 23.0996 39.7017C21.3406 38.3825 20.9191 35.9178 22.1387 34.0884L22.752 33.1685Z" fill="#FAFAFA"/>
<path d="M11.6582 33.3306C12.0286 32.5898 12.929 32.2887 13.6699 32.6587C14.4109 33.0293 14.7123 33.9314 14.3418 34.6724L13.9746 35.4067C13.8857 35.5847 13.9199 35.7993 14.0605 35.9399C15.1141 36.9936 15.3751 38.6033 14.709 39.936L14.3418 40.6724C13.9712 41.4131 13.069 41.7126 12.3281 41.3423C11.5877 40.9715 11.288 40.0711 11.6582 39.3306L12.0254 38.5942C12.114 38.4165 12.0799 38.2015 11.9395 38.061C10.8857 37.0072 10.6246 35.3977 11.291 34.0649L11.6582 33.3306Z" fill="#FAFAFA"/>
<path d="M33.6582 33.3306C34.0285 32.5897 34.929 32.2887 35.6699 32.6587C36.4109 33.0293 36.7124 33.9314 36.3418 34.6724L35.9727 35.4067C35.8841 35.5847 35.9201 35.7994 36.0605 35.9399C37.1141 36.9936 37.3751 38.6034 36.709 39.936L36.3418 40.6724C35.9713 41.4132 35.069 41.7126 34.3281 41.3423C33.5877 40.9715 33.2879 40.0711 33.6582 39.3306L34.0254 38.5942C34.114 38.4165 34.0799 38.2015 33.9395 38.061C32.8857 37.0072 32.6246 35.3977 33.291 34.0649L33.6582 33.3306Z" fill="#FAFAFA"/>
<path d="M30 24.5005C31.4562 24.5005 32.3981 24.5031 33.0918 24.5962C33.7421 24.6837 33.9463 24.8258 34.0605 24.9399C34.1747 25.0541 34.3167 25.2581 34.4043 25.9087C34.4635 26.3494 34.4851 27.6956 34.4941 28.9927C33.7298 28.9997 32.9005 29.0005 32 29.0005H16C15.0993 29.0005 14.2703 28.9997 13.5059 28.9927C13.5147 27.6954 13.5385 26.3493 13.5977 25.9087C13.6851 25.2584 13.8253 25.0542 13.9395 24.9399C14.0536 24.8257 14.2577 24.6838 14.9082 24.5962C15.6019 24.503 16.5436 24.5005 18 24.5005H30Z" fill="#FAFAFA"/>
<path fill-rule="evenodd" clip-rule="evenodd" d="M36 3.00049C39.7712 3.00049 41.6565 3.00078 42.8281 4.17236C43.9997 5.34392 44 7.22926 44 11.0005V17.0005C44 22.6573 43.9996 25.4853 42.2422 27.2427C41.18 28.3048 39.7269 28.7249 37.4941 28.8911C37.4837 27.5539 37.4547 26.0872 37.377 25.5083C37.2447 24.5251 36.9459 23.5833 36.1816 22.8188C35.4172 22.0546 34.4754 21.7558 33.4922 21.6235C32.575 21.5002 31.4289 21.5005 30.0996 21.5005H17.9004C16.571 21.5005 15.4251 21.5002 14.5078 21.6235C13.5247 21.7558 12.5827 22.0546 11.8184 22.8188C11.054 23.5833 10.7553 24.5251 10.623 25.5083C10.5452 26.0872 10.5164 27.5539 10.5059 28.8911C8.27306 28.7249 6.82 28.3048 5.75781 27.2427C4.00045 25.4853 4 22.6573 4 17.0005V11.0005C4 7.22925 4.0003 5.34392 5.17188 4.17236C6.34344 3.00078 8.22876 3.00049 12 3.00049H36ZM30.9093 11.3139C30.0809 11.3139 29.4093 11.9855 29.4093 12.8139C29.4093 13.6423 30.0809 14.3139 30.9093 14.3139L35.1111 14.3139C35.9395 14.3139 36.6111 13.6423 36.6111 12.8139C36.6111 11.9855 35.9395 11.3139 35.1111 11.3139H30.9093Z" fill="#FAFAFA"/>
</svg>
