<svg width="48" height="48" viewBox="0 0 48 48" fill="none" xmlns="http://www.w3.org/2000/svg">
<path fill-rule="evenodd" clip-rule="evenodd" d="M32.9805 3.32617C34.9129 3.3267 36.4802 4.89373 36.4805 6.82617V23.3223L41.4531 28.5625L41.4727 28.584L44.2207 31.5996C44.778 32.212 44.7333 33.1611 44.1211 33.7188C43.5089 34.2758 42.5597 34.2326 42.002 33.6211L41.8652 33.4707V41.1738C41.8646 43.1061 40.2976 44.6735 38.3652 44.6738H33.4434C33.4217 44.6738 33.4003 44.6708 33.3789 44.6699C33.3582 44.6708 33.3374 44.6738 33.3164 44.6738C32.4883 44.6738 31.8169 44.0019 31.8164 43.1738V34.834C31.8164 34.5922 31.644 34.3902 31.416 34.3438L31.3164 34.334H25.4336C25.1575 34.334 24.9336 34.5578 24.9336 34.834V43.1738C24.9331 44.0019 24.2617 44.6738 23.4336 44.6738C23.3981 44.6738 23.363 44.6704 23.3281 44.668C23.294 44.6703 23.2594 44.6738 23.2246 44.6738H18.3848C18.373 44.6738 18.3613 44.672 18.3496 44.6719H6.88867C4.95567 44.6719 3.38867 43.1049 3.38867 41.1719V18.291C3.38909 16.3584 4.95593 14.791 6.88867 14.791H12.1426V6.82617C12.1428 4.8934 13.7097 3.32617 15.6426 3.32617H32.9805ZM6.88867 17.791C6.61279 17.791 6.38909 18.0152 6.38867 18.291V41.1719C6.38867 41.448 6.61253 41.6719 6.88867 41.6719H14.9238C14.9006 41.509 14.8848 41.3431 14.8848 41.1738V32.8477L14.7051 33.0312C14.1227 33.6193 13.1728 33.6247 12.584 33.043C11.9951 32.4607 11.9904 31.511 12.5723 30.9219L15.4883 27.9707V18.291C15.4879 18.0153 15.2641 17.7911 14.9883 17.791H6.88867ZM15.6426 6.32617C15.3666 6.32617 15.1428 6.55025 15.1426 6.82617V14.7988C17.0036 14.8797 18.4879 16.4102 18.4883 18.291V24.9375L25.9102 17.4316C27.2998 16.0262 29.5768 16.0491 30.9375 17.4824L33.4805 20.1602V6.82617C33.4802 6.55058 33.256 6.3267 32.9805 6.32617H15.6426Z" fill="#FAFAFA"/>
</svg>
