<svg width="48" height="48" viewBox="0 0 48 48" fill="none" xmlns="http://www.w3.org/2000/svg">
<path fill-rule="evenodd" clip-rule="evenodd" d="M30.5418 6C32.9418 6.78691 35.1681 8.00793 37.1033 9.59961L37.1258 16.3496C37.2623 16.5595 37.3913 16.7718 37.5106 16.9893L43.6375 20.3906C44.1204 22.7712 44.1203 25.221 43.6375 27.6016L37.5125 30.9961C37.3876 31.2116 37.2585 31.4249 37.1278 31.6348L37.0975 38.3848C35.1653 39.9813 32.941 41.208 30.5418 42L24.3963 38.6455H23.6268L17.4617 42C15.0619 41.2131 12.8354 39.992 10.9002 38.4004L10.8768 31.6504C10.7402 31.4404 10.6113 31.2282 10.492 31.0107L4.36213 27.6074C3.87928 25.2268 3.8793 22.7771 4.36213 20.3965L10.4862 17.0029C10.6111 16.7874 10.7402 16.5732 10.8709 16.3633L10.9022 9.61328C12.8357 8.017 15.0614 6.79095 17.4617 6L23.617 9.35449H24.3865L30.5418 6ZM23.9998 18C20.6861 18 17.9998 20.6863 17.9998 24C17.9998 27.3137 20.6861 30 23.9998 30C27.3134 29.9999 29.9998 27.3136 29.9998 24C29.9998 20.6864 27.3134 18.0001 23.9998 18Z" fill="#FAFAFA"/>
</svg>
