<svg width="48" height="48" viewBox="0 0 48 48" fill="none" xmlns="http://www.w3.org/2000/svg">
<path fill-rule="evenodd" clip-rule="evenodd" d="M30.001 7.35059C30.829 7.35111 31.501 8.02249 31.501 8.85059C31.501 9.67869 30.829 10.3501 30.001 10.3506H25.501V16.0078H34.0029C39.5243 16.0083 43.999 20.4854 43.999 26.0068C43.9986 30.8662 40.532 34.9143 35.9365 35.8154V39.1494C35.936 39.9767 35.2637 40.6484 34.4365 40.6494C33.6084 40.6494 32.9371 39.9774 32.9365 39.1494V36.0059H15.0654V39.1494C15.0649 39.9771 14.3931 40.6489 13.5654 40.6494C12.7373 40.6494 12.066 39.9774 12.0654 39.1494V35.8154C7.46945 34.9147 4.00046 30.8666 4 26.0068C4 20.4851 8.47726 16.0078 13.999 16.0078H22.501V10.3506H18.001C17.1725 10.3506 16.501 9.67901 16.501 8.85059C16.501 8.02216 17.1725 7.35059 18.001 7.35059H30.001ZM19.9199 28.2715C19.4751 28.2718 19.095 28.4366 18.7803 28.7637C18.4657 29.0911 18.3087 29.481 18.3086 29.9326C18.3086 30.395 18.4652 30.7896 18.7803 31.1133C19.095 31.4364 19.4723 31.5994 19.9111 31.5996C20.3599 31.5996 20.7423 31.4363 21.0566 31.1133C21.371 30.7894 21.531 30.3954 21.5312 29.9355C21.5312 29.4841 21.3731 29.0921 21.0596 28.7637C20.7461 28.4356 20.3651 28.2715 19.9199 28.2715ZM28.2256 28.2715C27.7757 28.2715 27.3921 28.4363 27.0771 28.7637C26.7626 29.091 26.6057 29.4838 26.6055 29.9414C26.6055 30.3992 26.7614 30.7908 27.0742 31.1133C27.3876 31.4356 27.7705 31.5996 28.2197 31.5996C28.6685 31.5995 29.0509 31.4366 29.3652 31.1133C29.6796 30.7894 29.8367 30.3954 29.8369 29.9355C29.8368 29.4841 29.6805 29.0921 29.3682 28.7637C29.056 28.4359 28.675 28.2717 28.2256 28.2715ZM15.6045 24.4336C15.1551 24.4338 14.775 24.5961 14.4648 24.917C14.1547 25.2381 13.9993 25.6282 13.999 26.0859C13.999 26.5442 14.1529 26.9407 14.4619 27.2695C14.7707 27.5978 15.152 27.7616 15.6016 27.7617C16.051 27.7615 16.4353 27.5967 16.75 27.2695C17.0643 26.9422 17.2216 26.5519 17.2217 26.1006C17.2217 25.6486 17.0636 25.2576 16.75 24.9287C16.4365 24.6002 16.0543 24.4336 15.6045 24.4336ZM24.1035 24.4336C23.6585 24.4338 23.2745 24.5984 22.9551 24.9258C22.6355 25.2534 22.4775 25.6457 22.4775 26.0977C22.4778 26.5491 22.6369 26.941 22.9551 27.2695C23.2731 27.5975 23.6531 27.7616 24.0918 27.7617C24.5406 27.7615 24.923 27.5965 25.2373 27.2695C25.5515 26.9421 25.7089 26.5522 25.709 26.1006C25.709 25.6486 25.5525 25.2575 25.2402 24.9287C24.928 24.6003 24.5485 24.4337 24.1035 24.4336ZM32.5498 24.4336C32.1008 24.4336 31.7187 24.5988 31.4043 24.9258C31.0897 25.2534 30.9297 25.6456 30.9297 26.0977C30.93 26.5491 31.0863 26.941 31.3984 27.2695C31.7104 27.5979 32.0905 27.7613 32.5352 27.7617C32.9804 27.7617 33.364 27.5968 33.6836 27.2695C34.0031 26.942 34.1639 26.5524 34.1641 26.1006C34.1641 25.6486 34.0049 25.2576 33.6865 24.9287C33.3681 24.5999 32.9891 24.4336 32.5498 24.4336ZM19.8496 20.5986C19.4042 20.5986 19.0221 20.7609 18.707 21.085C18.3924 21.409 18.2354 21.8003 18.2354 22.2568C18.2355 22.7233 18.3927 23.1159 18.707 23.4346C19.0217 23.7531 19.3992 23.9117 19.8379 23.9121C20.2873 23.9121 20.6717 23.7554 20.9863 23.4375C21.3007 23.1198 21.4578 22.7282 21.458 22.2656C21.4578 21.803 21.2997 21.4089 20.9863 21.085C20.673 20.7614 20.2944 20.5989 19.8496 20.5986ZM28.3164 20.5986C27.8666 20.5986 27.4829 20.7612 27.168 21.085C26.8532 21.409 26.6934 21.8002 26.6934 22.2568C26.6935 22.7231 26.8506 23.116 27.1621 23.4346C27.4745 23.7535 27.8575 23.9121 28.3076 23.9121C28.7574 23.9121 29.1411 23.7551 29.4561 23.4375C29.7704 23.1199 29.9275 22.7279 29.9277 22.2656C29.9275 21.8032 29.7709 21.4088 29.459 21.085C29.1469 20.7614 28.7658 20.5989 28.3164 20.5986Z" fill="#FAFAFA"/>
</svg>
