<svg width="48" height="48" viewBox="0 0 48 48" fill="none" xmlns="http://www.w3.org/2000/svg">
<path d="M23.0468 26.6133C24.768 25.129 27.1617 25.1286 28.8828 26.6133L32.9629 30.3359V28.6133L32.9746 28.4082C33.0708 27.4675 33.8187 26.7184 34.7597 26.6231L34.9629 26.6133H39.6464C40.7505 26.6136 41.646 27.5092 41.6464 28.6133V37.8301L44.123 40.2383C44.7499 40.7794 44.82 41.7284 44.2793 42.3555C43.738 42.982 42.791 43.0506 42.164 42.5098L26.9218 28.8848C26.3267 28.372 25.6009 28.3717 25.0058 28.8848L9.96285 42.3555C9.3361 42.8961 8.38896 42.8271 7.84762 42.2012C7.30686 41.574 7.37504 40.6251 8.00191 40.084L23.0468 26.6133Z" fill="#FAFAFA"/>
<path fill-rule="evenodd" clip-rule="evenodd" d="M15.6171 5.08399C16.9339 4.87639 18.284 5.05584 19.5019 5.59767L19.6367 5.67384C19.7621 5.76278 19.8618 5.88763 19.9179 6.03321C19.974 6.17934 19.9831 6.33977 19.9492 6.49024L19.9004 6.63673L18.2207 10.4082C19.0048 10.3467 19.7995 10.4196 20.5664 10.627C21.8524 10.9752 23.0102 11.6883 23.9004 12.6797C24.7906 13.6715 25.3761 14.9004 25.5839 16.2168C25.7914 17.5334 25.614 18.8838 25.0722 20.1016C24.9873 20.2921 24.8295 20.4428 24.6347 20.5176C24.4401 20.5922 24.2236 20.5846 24.0332 20.5L20.2597 18.8223C20.321 19.6058 20.2521 20.3998 20.0449 21.166C19.6967 22.4525 18.9819 23.6116 17.9902 24.502C16.9984 25.3921 15.7695 25.9758 14.4531 26.1836C13.1363 26.3913 11.7863 26.2138 10.5683 25.6719C10.3777 25.587 10.2272 25.4291 10.1523 25.2344C10.0778 25.0399 10.0854 24.8232 10.1699 24.6328L11.8457 20.8613C11.0629 20.9224 10.2713 20.8514 9.50582 20.6445C8.21897 20.2965 7.05851 19.5818 6.16793 18.5899C5.27776 17.598 4.69214 16.3691 4.48434 15.0527C4.27678 13.7362 4.45638 12.3857 4.99801 11.168L5.07418 11.0332C5.16303 10.9078 5.28814 10.8101 5.43355 10.7539C5.62848 10.6791 5.84629 10.6847 6.03707 10.7695L9.80855 12.4473C9.74723 11.6639 9.82021 10.8716 10.0273 10.1055C10.3754 8.81882 11.0883 7.66005 12.08 6.76954C13.0721 5.87903 14.3003 5.29176 15.6171 5.08399ZM15.2793 14.0781C14.4209 13.9432 13.6144 14.5302 13.4785 15.3887C13.343 16.2471 13.929 17.0529 14.7871 17.1895C15.646 17.3254 16.4536 16.7397 16.5898 15.8809C16.7256 15.0219 16.1382 14.2141 15.2793 14.0781Z" fill="#FAFAFA"/>
</svg>
