<svg width="48" height="48" viewBox="0 0 48 48" fill="none" xmlns="http://www.w3.org/2000/svg">
<path fill-rule="evenodd" clip-rule="evenodd" d="M26.1154 4C24.8834 4 23.8846 4.99492 23.8846 6.22222V20.6667C23.8846 21.2803 23.3852 21.7778 22.7692 21.7778C22.1532 21.7778 21.6538 21.2803 21.6538 20.6667V8.44444C21.6538 7.21715 20.6551 6.22222 19.4231 6.22222C18.1911 6.22222 17.1923 7.21715 17.1923 8.44444V22.8889C17.1923 23.5025 16.6929 24 16.0769 24C15.4609 24 14.9615 23.5025 14.9615 22.8889V12.8889C14.9615 11.6616 13.9628 10.6667 12.7308 10.6667C11.4987 10.6667 10.5 11.6616 10.5 12.8889V29.5556C10.5 37.533 16.9919 44 25 44C33.0081 44 39.5 37.533 39.5 29.5556V16.2222C38.4823 16.2222 37.5315 16.4927 36.7123 16.9648C35.0425 17.927 33.9231 19.7228 33.9231 21.7778V24.6832C33.9231 25.396 33.4874 26.037 32.8231 26.3017C30.1192 27.3791 28.3462 29.9879 28.3462 32.8889C28.3462 33.5025 27.8468 34 27.2308 34C26.6148 34 26.1154 33.5025 26.1154 32.8889C26.1154 29.1884 28.3122 25.85 31.6923 24.365V21.7778C31.6923 19.1334 33.0176 16.7984 35.0385 15.3943V8.44444C35.0385 7.21715 34.0397 6.22222 32.8077 6.22222C31.5757 6.22222 30.5769 7.21715 30.5769 8.44444V20.6667C30.5769 21.2803 30.0775 21.7778 29.4615 21.7778C28.8455 21.7778 28.3462 21.2803 28.3462 20.6667V6.22222C28.3462 4.99492 27.3474 4 26.1154 4Z" fill="#FAFAFA"/>
</svg>
