<svg width="48" height="48" viewBox="0 0 48 48" fill="none" xmlns="http://www.w3.org/2000/svg">
<path d="M36.875 5.625C39.9126 5.625 42.375 8.08743 42.375 11.125V37.125H40.875C42.375 37.125 42.375 37.1242 42.375 37.125V37.1602C42.3748 37.1755 42.3738 37.1944 42.373 37.2168C42.3715 37.2619 42.3684 37.3213 42.3633 37.3926C42.3531 37.5349 42.3349 37.7289 42.2969 37.957C42.2219 38.4067 42.0682 39.0294 41.748 39.6699C41.4247 40.3166 40.9159 41.0098 40.125 41.5371C39.3247 42.0707 38.325 42.375 37.125 42.375H16.125V33.375C16.125 32.7783 16.3612 32.2052 16.7832 31.7832C17.2052 31.3612 17.7783 31.125 18.375 31.125H24.5938C24.8405 31.9533 25.29 32.7158 25.9121 33.3379C26.8967 34.3225 28.2326 34.875 29.625 34.875C31.0174 34.875 32.3533 34.3225 33.3379 33.3379C34.3225 32.3533 34.875 31.0174 34.875 29.625C34.875 28.2326 34.3225 26.8967 33.3379 25.9121C32.3533 24.9275 31.0174 24.375 29.625 24.375C28.2326 24.375 26.8967 24.9275 25.9121 25.9121C25.29 26.5342 24.8405 27.2967 24.5938 28.125H18.375C16.9826 28.125 15.6467 28.6775 14.6621 29.6621C13.6775 30.6467 13.125 31.9826 13.125 33.375V42.375H10.875V40.875C10.875 42.375 10.8758 42.375 10.875 42.375H10.8398C10.8245 42.3748 10.8056 42.3738 10.7832 42.373C10.7381 42.3715 10.6787 42.3684 10.6074 42.3633C10.4651 42.3531 10.2711 42.3349 10.043 42.2969C9.59335 42.2219 8.97062 42.0682 8.33008 41.748C7.68338 41.4247 6.99019 40.9159 6.46289 40.125C5.92933 39.3247 5.625 38.325 5.625 37.125V11.125C5.625 8.08743 8.08743 5.625 11.125 5.625H31.875V14.625C31.875 15.2217 31.6386 15.7949 31.2168 16.2168C30.7948 16.6388 30.2217 16.875 29.625 16.875H23.4062C23.1595 16.0467 22.71 15.2842 22.0879 14.6621C21.1033 13.6775 19.7674 13.125 18.375 13.125C16.9826 13.125 15.6467 13.6775 14.6621 14.6621C13.6775 15.6467 13.125 16.9826 13.125 18.375C13.125 19.7674 13.6775 21.1033 14.6621 22.0879C15.6467 23.0725 16.9826 23.625 18.375 23.625C19.7674 23.625 21.1033 23.0725 22.0879 22.0879C22.71 21.4658 23.1595 20.7033 23.4062 19.875H29.625C31.0174 19.875 32.3533 19.3225 33.3379 18.3379C34.3223 17.3533 34.875 16.0173 34.875 14.625V5.625H36.875Z" fill="#FAFAFA"/>
<path d="M29.625 27.375C30.2217 27.375 30.7948 27.6112 31.2168 28.0332C31.6388 28.4552 31.875 29.0283 31.875 29.625C31.875 30.2217 31.6388 30.7948 31.2168 31.2168C30.7948 31.6388 30.2217 31.875 29.625 31.875C29.0283 31.875 28.4552 31.6388 28.0332 31.2168C27.6112 30.7948 27.375 30.2217 27.375 29.625C27.375 29.0283 27.6112 28.4552 28.0332 28.0332C28.4552 27.6112 29.0283 27.375 29.625 27.375Z" fill="#FAFAFA"/>
<path d="M18.375 16.125C18.9717 16.125 19.5448 16.3612 19.9668 16.7832C20.3888 17.2052 20.625 17.7783 20.625 18.375C20.625 18.9717 20.3888 19.5448 19.9668 19.9668C19.5448 20.3888 18.9717 20.625 18.375 20.625C17.7783 20.625 17.2052 20.3888 16.7832 19.9668C16.3612 19.5448 16.125 18.9717 16.125 18.375C16.125 17.7783 16.3612 17.2052 16.7832 16.7832C17.2052 16.3612 17.7783 16.125 18.375 16.125Z" fill="#FAFAFA"/>
</svg>
