<svg width="48" height="48" viewBox="0 0 48 48" fill="none" xmlns="http://www.w3.org/2000/svg">
<path fill-rule="evenodd" clip-rule="evenodd" d="M22.5469 32.0233C22.6246 32.0255 22.7011 32.047 22.7695 32.0839C22.8378 32.1207 22.8969 32.1727 22.9414 32.2362C22.986 32.2999 23.0142 32.3741 23.0254 32.4511C23.0364 32.5278 23.0303 32.606 23.0059 32.6796C22.6801 33.6708 22.65 34.6114 23.0098 35.4843C23.1665 35.4858 23.3218 35.5113 23.4707 35.5604C23.8439 34.8394 24.4326 34.2228 25.2168 33.7264C25.4981 33.5479 25.8336 33.473 26.1641 33.5155C26.4941 33.5581 26.7986 33.7153 27.0254 33.9589C27.6854 34.6702 28.002 35.533 27.9746 36.5468C27.9724 36.6244 27.9528 36.701 27.916 36.7694C27.8793 36.8376 27.8271 36.8968 27.7637 36.9413C27.7 36.9859 27.6258 37.016 27.5488 37.0272C27.4721 37.0384 27.3939 37.0302 27.3203 37.0057C26.3291 36.68 25.3884 36.6499 24.5156 37.0097C24.5142 37.1663 24.4884 37.3218 24.4395 37.4706C25.1605 37.8445 25.7779 38.4327 26.2734 39.2167C26.452 39.498 26.525 39.8335 26.4824 40.1639C26.4399 40.4944 26.2831 40.8003 26.0391 41.0272C25.3278 41.6869 24.4648 42.0039 23.4512 41.9764C23.3737 41.9742 23.2968 41.9527 23.2285 41.9159C23.1604 41.8791 23.101 41.827 23.0566 41.7636C23.0121 41.6999 22.9838 41.6256 22.9727 41.5487C22.9616 41.4721 22.9678 41.3937 22.9922 41.3202C23.318 40.329 23.35 39.3883 22.9902 38.5155C22.8331 38.5141 22.6765 38.4886 22.5273 38.4393C22.1542 39.1604 21.5655 39.777 20.7812 40.2733C20.5003 40.4516 20.166 40.5265 19.8359 40.4843C19.5056 40.4417 19.1995 40.2847 18.9727 40.0409C18.3127 39.3297 17.9961 38.4667 18.0234 37.453C18.0256 37.3755 18.0454 37.2986 18.082 37.2304C18.1189 37.1619 18.1726 37.1031 18.2363 37.0585C18.2999 37.014 18.3725 36.9838 18.4492 36.9725C18.5262 36.9613 18.6059 36.9695 18.6797 36.994C19.6704 37.3195 20.61 37.3496 21.4824 36.9901C21.4839 36.8335 21.5097 36.678 21.5586 36.5292C20.8379 36.1554 20.222 35.5666 19.7266 34.7831C19.548 34.5018 19.4732 34.1662 19.5156 33.8358C19.5582 33.5053 19.715 33.1995 19.959 32.9725C20.6703 32.3126 21.533 31.9959 22.5469 32.0233ZM23.1289 36.2753C22.9855 36.2498 22.8366 36.2675 22.7031 36.3261C22.5246 36.4048 22.3834 36.5506 22.3125 36.7323C22.2418 36.9138 22.2464 37.1162 22.3242 37.2948C22.3827 37.4282 22.4807 37.5426 22.6035 37.621C22.7259 37.699 22.8686 37.739 23.0137 37.7362C23.1593 37.7332 23.3024 37.6868 23.4219 37.6034C23.541 37.52 23.6327 37.4029 23.6855 37.2675C23.7384 37.1319 23.75 36.9838 23.7188 36.8417C23.6874 36.6996 23.6147 36.5695 23.5098 36.4686C23.4049 36.368 23.272 36.3009 23.1289 36.2753Z" fill="#FAFAFA"/>
<path d="M10.9004 24.4999C10.9008 27.261 13.1392 29.4999 15.9004 29.4999C18.6616 29.4999 20.9 27.261 20.9004 24.4999V18.4999H24.9004V24.4999C24.9008 27.261 27.1392 29.4999 29.9004 29.4999C32.6616 29.4999 34.9 27.261 34.9004 24.4999V18.4999H37C40.0376 18.4999 42.5 20.9623 42.5 23.9999V32.1991C42.4996 35.2363 40.0373 37.6991 37 37.6991H30.4668C30.4881 37.4689 30.5 37.2356 30.5 36.9999C30.5 32.8578 27.1421 29.4999 23 29.4999C18.8579 29.4999 15.5 32.8578 15.5 36.9999C15.5 37.2356 15.5119 37.4689 15.5332 37.6991H9C5.96268 37.6991 3.50039 35.2363 3.5 32.1991V23.9999C3.5 20.9623 5.96244 18.4999 9 18.4999H10.9004V24.4999Z" fill="#FAFAFA"/>
<path d="M17.9004 24.4999C17.9 25.6041 17.0047 26.4999 15.9004 26.4999C14.7961 26.4999 13.9008 25.6041 13.9004 24.4999V18.4999H17.9004V24.4999Z" fill="#FAFAFA"/>
<path d="M31.9004 24.4999C31.9 25.6041 31.0047 26.4999 29.9004 26.4999C28.7961 26.4999 27.9008 25.6041 27.9004 24.4999V18.4999H31.9004V24.4999Z" fill="#FAFAFA"/>
<path d="M12.4004 10.4999C13.2288 10.4999 13.9004 11.1715 13.9004 11.9999V18.4999H10.9004V11.9999C10.9004 11.1715 11.572 10.4999 12.4004 10.4999Z" fill="#FAFAFA"/>
<path d="M22.9004 10.4999C25.6618 10.4999 27.9004 12.7385 27.9004 15.4999V18.4999H24.9004V15.4999C24.9004 14.3953 24.005 13.4999 22.9004 13.4999C21.7958 13.4999 20.9004 14.3953 20.9004 15.4999V18.4999H17.9004V15.4999C17.9004 12.7385 20.139 10.4999 22.9004 10.4999Z" fill="#FAFAFA"/>
<path d="M37.9395 6.93934C38.5252 6.35355 39.4748 6.35355 40.0605 6.93934L44.0605 10.9393C44.646 11.5252 44.6462 12.4748 44.0605 13.0604L40.0605 17.0604C39.4749 17.6457 38.5251 17.6457 37.9395 17.0604C37.3538 16.4748 37.354 15.5252 37.9395 14.9393L39.3789 13.4999H37.4004C36.0197 13.4999 34.9004 14.6192 34.9004 15.9999V18.4999H31.9004V15.9999C31.9004 12.9623 34.3628 10.4999 37.4004 10.4999H39.3789L37.9395 9.06043C37.3538 8.47477 37.354 7.52516 37.9395 6.93934Z" fill="#FAFAFA"/>
</svg>
