<svg width="48" height="48" viewBox="0 0 48 48" fill="none" xmlns="http://www.w3.org/2000/svg">
<path d="M27.8164 33.8633L24 37.8594L20.1816 33.8652L24 29.8691L27.8164 33.8633Z" fill="#FAFAFA"/>
<path d="M21.9238 27.6973L18.1074 31.6934L14.2871 27.6953L18.1055 23.7012L21.9238 27.6973Z" fill="#FAFAFA"/>
<path d="M33.7109 27.6973L29.8906 31.6934L26.0742 27.6992L29.8926 23.7012L33.7109 27.6973Z" fill="#FAFAFA"/>
<path d="M27.8184 21.5312L23.998 25.5273L20.1797 21.5312L24 17.5352L27.8184 21.5312Z" fill="#FAFAFA"/>
<path fill-rule="evenodd" clip-rule="evenodd" d="M24 4C28.6466 4 32.905 4.49064 36.0469 5.3125C37.6066 5.72056 38.9766 6.23305 39.9922 6.86133C40.9258 7.43888 41.9999 8.3962 42 9.81641C42 10.0107 41.9767 10.1959 41.9395 10.373C41.9277 10.4603 41.9143 10.5629 41.8984 10.6797C41.8977 10.6849 41.8953 10.69 41.8945 10.6953C41.8917 10.7218 41.889 10.749 41.8848 10.7754C41.8689 10.8921 41.8511 11.0216 41.832 11.1621C41.7329 11.8921 41.5892 12.9364 41.4141 14.1953C41.0637 16.7133 40.5851 20.0918 40.0684 23.5293C40.0516 23.6406 40.0347 23.7519 40.0176 23.8633C39.943 24.3576 39.8609 24.8519 39.7852 25.3457L39.7891 25.3379C39.7787 25.405 39.7681 25.472 39.7578 25.5391C39.3329 28.3019 38.8996 31.0095 38.4961 33.2383C38.2459 34.6202 38.0047 35.8362 37.7871 36.7734C37.6787 37.2403 37.5716 37.6578 37.4668 38C37.3765 38.2946 37.2451 38.6852 37.0508 38.9902C36.9542 39.1424 36.8475 39.2926 36.7344 39.4434C36.6976 39.4923 36.6576 39.5392 36.6191 39.5879C36.5392 39.689 36.4569 39.7906 36.3691 39.8906C36.3278 39.9378 36.2853 39.9844 36.2422 40.0312C36.1501 40.1313 36.0533 40.2297 35.9531 40.3281C35.8916 40.3886 35.8283 40.4481 35.7637 40.5078C35.6686 40.5958 35.5707 40.6833 35.4688 40.7695C35.3981 40.8293 35.3259 40.8884 35.252 40.9473C35.1576 41.0224 35.0607 41.0964 34.9609 41.1699C34.8785 41.2307 34.7952 41.292 34.709 41.3516C34.5886 41.4347 34.4638 41.5151 34.3359 41.5957C34.26 41.6436 34.1841 41.6933 34.1055 41.7402C33.9798 41.8153 33.8494 41.8865 33.7168 41.959C33.6177 42.0131 33.519 42.0705 33.416 42.123C33.1916 42.2376 32.958 42.3485 32.7148 42.4551C32.6789 42.4708 32.6418 42.4844 32.6055 42.5C32.3877 42.5933 32.1626 42.6833 31.9297 42.7695C31.8331 42.8053 31.734 42.8366 31.6348 42.8711C31.4582 42.9325 31.2788 42.9956 31.0938 43.0527C30.969 43.0913 30.8415 43.1256 30.7129 43.1621C30.5366 43.2122 30.3575 43.2625 30.1738 43.3086C30.036 43.3432 29.896 43.3759 29.7539 43.4082C29.5756 43.4488 29.394 43.4867 29.209 43.5234C29.0512 43.5548 28.8912 43.5848 28.7285 43.6133C28.5354 43.6471 28.3388 43.6774 28.1387 43.707C27.9856 43.7297 27.831 43.7533 27.6738 43.7734C27.464 43.8003 27.2505 43.8235 27.0332 43.8457C26.8597 43.8634 26.6842 43.8838 26.5059 43.8984C26.4812 43.9005 26.4564 43.9043 26.4316 43.9062C26.4082 43.9081 26.3848 43.9103 26.3613 43.9121C26.1531 43.9281 25.9413 43.9356 25.7266 43.9473C25.5828 43.9551 25.4378 43.9668 25.291 43.9727C24.8728 43.9894 24.4426 44 24 44C16.5506 44 12.5831 41.5642 10.9492 38.9902L10.8145 38.748C10.6912 38.4959 10.6009 38.2211 10.5332 38C10.4284 37.6578 10.3213 37.2403 10.2129 36.7734C9.99526 35.8362 9.75413 34.6202 9.50391 33.2383C9.09885 31.0012 8.66469 28.2815 8.23828 25.5078C8.22878 25.4459 8.21848 25.3842 8.20898 25.3223C8.20499 25.2962 8.20125 25.2702 8.19727 25.2441C8.19813 25.2506 8.19827 25.2572 8.19922 25.2637C8.11066 24.6859 8.01847 24.1069 7.93164 23.5293C7.41492 20.0918 6.93627 16.7133 6.58594 14.1953C6.41079 12.9364 6.26713 11.8921 6.16797 11.1621C6.12402 10.8385 6.08644 10.5762 6.06055 10.3848C6.02193 10.2042 6 10.0148 6 9.81641C6.00013 8.3962 7.07424 7.43888 8.00781 6.86133C9.0234 6.23305 10.3934 5.72056 11.9531 5.3125C15.095 4.49064 19.3534 4 24 4ZM38.4785 13.5234C37.748 13.8228 36.9283 14.0897 36.0469 14.3203C35.509 14.461 34.9375 14.587 34.3379 14.707L29.8926 19.3594L26.0742 15.3633L25.8438 15.6035C25.2373 15.6207 24.6222 15.6328 24 15.6328C23.3771 15.6328 22.7614 15.619 22.1543 15.6016L21.9258 15.3633L21.709 15.5879L18.1055 19.3594L13.6602 14.707C13.0613 14.5867 12.4904 14.4609 11.9531 14.3203C11.071 14.0895 10.2505 13.8231 9.51953 13.5234C9.53133 13.6084 9.54453 13.6942 9.55664 13.7812C9.60717 14.1444 9.66118 14.5253 9.7168 14.9219L16.0312 21.5293L11.4082 26.3691C11.5795 27.4632 11.7497 28.5354 11.918 29.5586L16.0332 33.8652L13.291 36.7305C13.33 36.8793 13.3662 37.0096 13.4004 37.1211C13.4743 37.3622 13.5123 37.4291 13.498 37.4062C13.8084 37.8866 14.3451 38.4587 15.1914 39.0078C15.2063 39.0175 15.2212 39.0274 15.2363 39.0371L18.1074 36.0352L21.9258 40.0312L21.1426 40.8477C21.6714 40.9043 22.2321 40.9511 22.8281 40.9746C23.2049 40.9895 23.5953 41 24 41C24.4048 41 24.7952 40.9895 25.1719 40.9746C25.7226 40.9528 26.2432 40.9119 26.7363 40.8613C26.7763 40.8573 26.8159 40.8519 26.8555 40.8477L26.0742 40.0312L29.8926 36.0352L32.7617 39.0371C33.634 38.4793 34.184 37.8951 34.5 37.4062C34.5069 37.3875 34.5432 37.3051 34.5996 37.1211C34.6336 37.0102 34.6683 36.8803 34.707 36.7324L31.9668 33.8652L35.7852 29.8672L36.0762 29.5645C36.0474 29.7395 36.023 29.9139 35.9941 30.0859C36.0234 29.9111 36.0526 29.7346 36.082 29.5566L36.0762 29.5645C36.2449 28.5394 36.4181 27.4654 36.5898 26.3691L31.9668 21.5312L38.2812 14.9238C38.337 14.5265 38.3927 14.1451 38.4434 13.7812C38.4555 13.6943 38.4667 13.6083 38.4785 13.5234ZM36.9023 24.3574C36.7971 25.0318 36.6939 25.7046 36.5898 26.3691C36.6941 25.7033 36.7992 25.0296 36.9023 24.3535V24.3574ZM24 7C19.5327 7 15.5405 7.47459 12.7109 8.21484C11.2855 8.58782 10.2399 9.00758 9.58594 9.41211C9.29686 9.59094 9.14683 9.7291 9.06836 9.81445C9.14657 9.8996 9.29468 10.0405 9.58594 10.2207C10.24 10.6252 11.2857 11.045 12.7109 11.418C15.2885 12.0925 18.831 12.5456 22.8184 12.6211L22.8613 12.623L24 12.6328C28.4672 12.6328 32.4595 12.1584 35.2891 11.418C36.7143 11.045 37.76 10.6252 38.4141 10.2207C38.7033 10.0418 38.8495 9.89997 38.9277 9.81445C38.8491 9.72874 38.7011 9.58966 38.4141 9.41211C37.7601 9.00758 36.7145 8.58782 35.2891 8.21484C32.4595 7.47459 28.4673 7 24 7Z" fill="#FAFAFA"/>
</svg>
