<svg width="48" height="48" viewBox="0 0 48 48" fill="none" xmlns="http://www.w3.org/2000/svg">
<path fill-rule="evenodd" clip-rule="evenodd" d="M33.1973 4C34.0328 4 34.8263 4.34136 35.4043 4.93555C35.9807 5.52805 36.2969 6.32347 36.2969 7.14453V8.93359H39.5977C40.4261 8.93359 41.0977 9.60517 41.0977 10.4336C41.0975 11.2619 40.426 11.9336 39.5977 11.9336H38.6992V24.5547H39.5977C40.4258 24.5547 41.0972 25.2266 41.0977 26.0547C41.0977 26.8831 40.4261 27.5547 39.5977 27.5547H38.6992V41H39.5977C40.4261 41 41.0977 41.6716 41.0977 42.5C41.0977 43.3284 40.4261 44 39.5977 44H8.39844C7.57001 44 6.89844 43.3284 6.89844 42.5C6.89844 41.6716 7.57001 41 8.39844 41H9.29883V27.5547H8.39844C7.57001 27.5547 6.89844 26.8831 6.89844 26.0547C6.89889 25.2266 7.57029 24.5547 8.39844 24.5547H9.29883V11.9336H8.39844C7.57009 11.9336 6.89857 11.2619 6.89844 10.4336C6.89844 9.60517 7.57001 8.93359 8.39844 8.93359H26.0977V7.14453C26.0977 6.32363 26.4141 5.52801 26.9902 4.93555C27.5682 4.34144 28.3619 4.00011 29.1973 4H33.1973ZM25.6426 15.6738C24.9973 15.4919 24.3085 15.761 23.957 16.332L17.8945 26.1836C17.7306 26.4498 17.622 26.7459 17.5742 27.0527L17.5469 27.3633C17.5381 27.7801 17.6424 28.1927 17.8457 28.5566C18.049 28.9201 18.3459 29.2228 18.7051 29.4336C19.0644 29.6442 19.4741 29.7559 19.8906 29.7559H21.2598V35.6816C21.2598 36.3525 21.7062 36.942 22.3516 37.125C22.997 37.3076 23.6854 37.0399 24.0371 36.4688L30.0996 26.6152C30.318 26.2601 30.4385 25.8523 30.4473 25.4355C30.4536 25.1234 30.3972 24.8138 30.2832 24.5254L30.1504 24.2441L29.9805 23.9824C29.8564 23.8168 29.7099 23.6684 29.5469 23.541L29.291 23.3652L29.0117 23.2266C28.7255 23.1064 28.416 23.0431 28.1035 23.043H26.7344V17.1172C26.7341 16.4463 26.2881 15.8565 25.6426 15.6738Z" fill="#FAFAFA"/>
</svg>
