<svg width="48" height="48" viewBox="0 0 48 48" fill="none" xmlns="http://www.w3.org/2000/svg">
<path d="M9.5 8C6.46243 8 4 10.4624 4 13.5V26.3054C4.60636 25.9799 5.3189 25.5836 6.12285 25.1364C6.48354 24.9358 6.86263 24.725 7.25878 24.5057C8.87517 23.611 10.7366 22.5982 12.6617 21.6464C14.5836 20.6962 16.5944 19.794 18.5115 19.1268C20.4081 18.4668 22.315 18 24 18C25.685 18 27.5919 18.4668 29.4885 19.1268C31.4056 19.794 33.4164 20.6962 35.3383 21.6464C37.2634 22.5982 39.1248 23.611 40.7412 24.5057C41.1373 24.7249 41.5163 24.9357 41.8769 25.1362C42.6809 25.5834 43.3936 25.9799 44 26.3054V13.5C44 10.4624 41.5376 8 38.5 8H9.5Z" fill="#FAFAFA"/>
<path d="M44 29.6849L43.3169 29.3354C42.5384 28.9372 41.5222 28.372 40.3783 27.7357C40.026 27.5397 39.6617 27.337 39.2884 27.1304C37.6827 26.2416 35.87 25.2559 34.0087 24.3357C32.1443 23.4139 30.2565 22.5706 28.5025 21.9602C27.0725 21.4626 25.797 21.1434 24.7321 21.0382C24.6526 21.1512 24.5651 21.2776 24.4715 21.4159C24.0442 22.0475 23.5024 22.9097 23.0259 23.8513C22.5433 24.8051 22.1629 25.7724 22.0067 26.6255C21.8476 27.495 21.9574 28.0331 22.1677 28.351C22.2759 28.5145 22.5999 28.7686 23.6644 28.847C24.5142 28.9097 25.4918 28.842 26.6074 28.7648C26.8452 28.7484 27.0892 28.7315 27.3396 28.7153C28.6576 28.6303 30.1963 28.5624 31.5018 28.8853C32.1792 29.0529 32.8752 29.3431 33.467 29.8562C34.0762 30.3845 34.4968 31.082 34.7059 31.9245C35.0659 33.3759 34.7886 34.6397 34.0539 35.6714C33.376 36.6234 32.3785 37.2787 31.4717 37.7671C30.8427 38.1058 30.1302 38.4264 29.4972 38.7112C29.2327 38.8302 28.9818 38.9431 28.7569 39.0483C27.9549 39.4236 27.4294 39.724 27.1245 40H38.5C41.5376 40 44 37.5376 44 34.5V29.6849Z" fill="#FAFAFA"/>
<path d="M23.3822 40C23.762 39.3724 24.3007 38.578 24.9393 37.9393C25.6465 37.2321 26.6389 36.7273 27.4853 36.3312C27.7992 36.1842 28.0995 36.0493 28.3898 35.9189C28.9727 35.657 29.5158 35.413 30.0492 35.1258C30.8333 34.7035 31.3376 34.3141 31.6102 33.9313C31.826 33.6282 31.948 33.267 31.7941 32.6469C31.7245 32.366 31.6149 32.221 31.5016 32.1228C31.3709 32.0094 31.152 31.8892 30.7815 31.7976C29.9912 31.6021 28.9017 31.6208 27.5327 31.7091C27.3247 31.7225 27.1096 31.7377 26.8895 31.7531C25.7739 31.8315 24.5298 31.9189 23.4439 31.8389C22.1774 31.7456 20.5853 31.3962 19.6657 30.0062C18.8482 28.7705 18.8295 27.3219 19.0558 26.0854C19.2851 24.8325 19.8039 23.5743 20.3491 22.4969C20.5196 22.1599 20.6961 21.8339 20.8726 21.5237C20.4327 21.6486 19.9737 21.7945 19.4975 21.9602C17.7435 22.5706 15.8557 23.4139 13.9913 24.3357C12.13 25.2559 10.3173 26.2416 8.71163 27.1304C8.33898 27.3367 7.97521 27.539 7.62352 27.7347L7.62173 27.7356C6.47787 28.3719 5.46155 28.9372 4.68311 29.3354L4 29.6849V34.5C4 37.5376 6.46243 40 9.5 40H23.3822Z" fill="#FAFAFA"/>
</svg>
