<svg width="48" height="48" viewBox="0 0 48 48" fill="none" xmlns="http://www.w3.org/2000/svg">
<path d="M15.699 35.3786C17.3997 35.3888 19.3858 36.1416 21.2947 36.9118C21.62 37.0431 21.949 37.1773 22.2791 37.3122C23.9913 38.0122 25.773 38.7403 27.6424 39.2693C29.8566 39.8958 32.0847 40.207 34.2693 39.8532C36.4261 39.5037 38.6339 38.4921 40.8084 36.3161C41.3546 35.7696 42.2399 35.7686 42.7869 36.3142C43.3336 36.8606 43.335 37.7476 42.7888 38.2947C40.2168 40.8683 37.4792 42.1694 34.7166 42.6169C31.9816 43.0599 29.3139 42.6531 26.8806 41.9646C24.8456 41.3886 22.8958 40.5901 21.1853 39.8904C20.8644 39.7591 20.551 39.6317 20.2478 39.5095C18.2259 38.6935 16.7501 38.1839 15.6814 38.1775C12.5314 38.1589 9.48407 39.3034 7.12283 41.3904C6.5435 41.9016 5.66006 41.8463 5.14822 41.2673C4.63619 40.6879 4.68996 39.8029 5.26932 39.2907C8.14653 36.7481 11.8601 35.3559 15.699 35.3786Z" fill="#FAFAFA"/>
<path d="M15.6951 28.6482C17.4891 28.6494 19.5141 29.3906 21.4568 30.1657C21.8578 30.3257 22.2607 30.4912 22.6658 30.656C24.3218 31.3296 26.0194 32.0197 27.7947 32.529C29.9847 33.1573 32.1725 33.4689 34.3221 33.1189C36.4443 32.7729 38.63 31.7653 40.8084 29.5857C41.3548 29.0392 42.2401 29.0397 42.7869 29.5857C43.3338 30.1322 43.3354 31.0193 42.7888 31.5661C40.2204 34.1362 37.509 35.4366 34.7732 35.8825C32.065 36.324 29.4316 35.9114 27.0232 35.2204C25.0883 34.6654 23.2176 33.9044 21.5525 33.2263C21.1632 33.0678 20.7848 32.913 20.4197 32.7673C18.3966 31.9602 16.8627 31.4492 15.6912 31.4489H15.6814C12.5314 31.4304 9.48407 32.5731 7.12283 34.6599C6.54371 35.1715 5.66024 35.1173 5.14822 34.5388C4.63622 33.9595 4.69007 33.0742 5.26932 32.5622C8.1456 30.0201 11.8574 28.6262 15.6951 28.6482Z" fill="#FAFAFA"/>
<path d="M40.8084 22.8571C41.3549 22.3103 42.242 22.3106 42.7888 22.8571C43.3348 23.4036 43.3347 24.289 42.7888 24.8357C38.293 29.3345 33.4667 29.8525 29.0545 28.9861C28.2958 28.8371 27.802 28.1002 27.951 27.3415C28.1001 26.5831 28.835 26.0891 29.5935 26.238C33.3039 26.9666 37.1121 26.5557 40.8084 22.8571Z" fill="#FAFAFA"/>
<path d="M25.9822 5.56027C26.3228 5.21076 26.8425 5.1029 27.2947 5.28684C27.7466 5.47088 28.0428 5.9102 28.0428 6.39817V14.5134H31.4803C31.8676 14.5142 32.2472 14.6304 32.5681 14.8474C32.8887 15.0642 33.1377 15.3715 33.283 15.7302L33.2849 15.7361C33.4276 16.0931 33.4635 16.484 33.3885 16.8611C33.3142 17.2319 33.1344 17.5746 32.8728 17.8474L23.0486 28.4626C22.7132 28.8246 22.1899 28.9454 21.7303 28.7654C21.2711 28.5853 20.9688 28.1414 20.9685 27.6482V19.6247H16.9138C16.5264 19.6239 16.1469 19.5077 15.826 19.2907C15.5855 19.128 15.3862 18.9138 15.24 18.6657L15.1092 18.404C14.9662 18.0465 14.9322 17.6546 15.0076 17.2771C15.0829 16.9 15.2661 16.552 15.5349 16.2771L25.9822 5.56027Z" fill="#FAFAFA"/>
<path d="M15.699 21.9196C16.472 21.9245 17.0942 22.5548 17.0896 23.3279C17.085 24.101 16.4546 24.7249 15.6814 24.7204C12.5314 24.7018 9.48406 25.8444 7.12283 27.9314C6.54346 28.4429 5.66011 28.3875 5.14822 27.8083C4.6364 27.2291 4.69031 26.3457 5.26932 25.8337C8.14659 23.2908 11.8599 21.8969 15.699 21.9196Z" fill="#FAFAFA"/>
</svg>
