<svg width="48" height="48" viewBox="0 0 48 48" fill="none" xmlns="http://www.w3.org/2000/svg">
<path fill-rule="evenodd" clip-rule="evenodd" d="M9.35352 3.00586C9.7515 3.00586 10.1347 3.16576 10.416 3.44727L21.5664 14.6055L22.1797 14.0078L22.4062 13.8242C22.6487 13.6652 22.9344 13.5802 23.2285 13.5801H30.166C30.9944 13.5801 31.666 14.2517 31.666 15.0801V22.6406H42.5C43.3283 22.6408 44 23.3123 44 24.1406V37.2148C43.9999 37.289 43.9909 37.3623 43.9805 37.4336C43.9891 37.5577 44.0019 37.6843 44.002 37.8105V38.7266C44.0005 42.187 41.1931 44.9936 37.7324 44.9941H16.4375C12.9763 44.9941 10.1695 42.1874 10.168 38.7266V37.8105C10.1683 34.854 12.565 32.4574 15.5215 32.457H17.4121V20.3652C17.4121 20.0494 17.5121 19.7402 17.6973 19.4844L19.5898 16.8711L8.73242 6.00781H7V21.8848H10.748L11.1016 21.1934L11.209 21.0137C11.4871 20.6168 11.9443 20.375 12.4375 20.375H13.9785C14.4417 20.375 14.8799 20.5893 15.1641 20.9551C15.4476 21.3207 15.5461 21.7977 15.4316 22.2461L13.1191 31.3066C13.0012 31.7677 12.6715 32.1471 12.2305 32.3262C11.7896 32.5049 11.2887 32.4631 10.8828 32.2148L4.7168 28.4395C4.27191 28.167 4.00034 27.6818 4 27.1602V4.50781C4 3.67939 4.67157 3.00586 5.5 3.00586H9.35352ZM16.623 35.8867C14.9338 35.887 13.565 37.2281 13.5645 38.8828C13.5653 40.5373 14.934 41.8806 16.623 41.8809C18.3122 41.8808 19.6808 40.5374 19.6816 38.8828C19.6811 37.228 18.3124 35.8868 16.623 35.8867ZM27.084 35.8867C25.3948 35.887 24.0259 37.2281 24.0254 38.8828C24.0262 40.5373 25.395 41.8806 27.084 41.8809C28.7732 41.8807 30.1437 40.5374 30.1445 38.8828C30.144 37.228 28.7733 35.8868 27.084 35.8867ZM37.543 35.8867C35.8546 35.8879 34.4869 37.2287 34.4863 38.8828C34.4871 40.5367 35.8547 41.8796 37.543 41.8809C39.2323 41.8809 40.6047 40.5374 40.6055 38.8828C40.6049 37.228 39.2324 35.8867 37.543 35.8867Z" fill="#FAFAFA"/>
</svg>
