<svg width="48" height="48" viewBox="0 0 48 48" fill="none" xmlns="http://www.w3.org/2000/svg">
<path fill-rule="evenodd" clip-rule="evenodd" d="M20.418 5.51154C22.4096 3.4955 25.5904 3.4955 27.582 5.51154C29.6952 7.65152 32.77 11.0428 35.3242 14.9842C37.8571 18.8927 40 23.5261 40 28.1131C40 36.8991 32.8256 44.0018 24 44.0018C15.1744 44.0018 8.00002 36.8991 8 28.1131C8 23.5261 10.1429 18.8927 12.6758 14.9842C15.23 11.0428 18.3048 7.65152 20.418 5.51154ZM24.002 18.9158C23.1737 18.9158 22.5023 19.5877 22.502 20.4158V21.1209L21.8613 20.4803C21.2758 19.8948 20.3261 19.8953 19.7402 20.4803C19.1547 21.0661 19.1545 22.0157 19.7402 22.6014L22.502 25.3631V26.4315H21.4121L18.6582 23.6795C18.0723 23.0951 17.1224 23.0942 16.5371 23.6795C15.9522 24.2649 15.9529 25.2148 16.5371 25.8006L17.1738 26.4373L16.4824 26.4393C15.655 26.4409 14.9861 27.1139 14.9863 27.9412C14.9874 28.7693 15.6583 29.4398 16.4863 29.4393L17.1777 29.4373L16.5371 30.0799C15.9524 30.6653 15.9529 31.6153 16.5371 32.201C17.1227 32.7864 18.0724 32.7861 18.6582 32.201L21.4258 29.4315H22.502V30.5174L19.7402 33.2791C19.1546 33.8648 19.1548 34.8144 19.7402 35.4002C20.3261 35.9855 21.2757 35.9858 21.8613 35.4002L22.502 34.7576V35.4647C22.502 36.2931 23.1735 36.9647 24.002 36.9647C24.8295 36.9636 25.502 36.2924 25.502 35.4647V34.7615L26.1406 35.4002L26.2539 35.5037C26.8431 35.9839 27.7127 35.9493 28.2617 35.4002C28.8092 34.8513 28.8443 33.983 28.3652 33.3943L28.2617 33.2791L25.502 30.5193V29.4276L26.5664 29.4256L29.3398 32.201L29.4551 32.3045C30.044 32.7839 30.9121 32.7492 31.4609 32.201C32.0091 31.6517 32.0448 30.782 31.5645 30.1932L31.4609 30.0799L30.8008 29.4197H31.5371C32.3651 29.4181 33.0362 28.7459 33.0352 27.9178C33.0332 27.0904 32.3607 26.4192 31.5332 26.4197H30.8398L31.4609 25.8006C32.0456 25.2148 32.0461 24.265 31.4609 23.6795C30.8755 23.0945 29.9256 23.0949 29.3398 23.6795L26.5918 26.4256L25.502 26.4276V25.3592L28.2617 22.6014C28.8463 22.0158 28.8464 21.0658 28.2617 20.4803C27.6763 19.8948 26.7265 19.8955 26.1406 20.4803L25.502 21.117V20.4158C25.5016 19.5883 24.8293 18.9169 24.002 18.9158Z" fill="#FAFAFA"/>
</svg>
