<svg width="48" height="48" viewBox="0 0 48 48" fill="none" xmlns="http://www.w3.org/2000/svg">
<path fill-rule="evenodd" clip-rule="evenodd" d="M29.2891 2.8125C29.9556 2.81271 30.6166 2.94424 31.2324 3.19922C31.8483 3.4545 32.4094 3.82938 32.8809 4.30078C33.3524 4.77243 33.7272 5.3331 33.9824 5.94922C34.2377 6.56559 34.3691 7.2274 34.3691 7.89453V9.97461H38.3242C39.1523 9.97488 39.824 10.6466 39.8242 11.4746C39.8242 12.3029 39.1524 12.9743 38.3242 12.9746H36.4434L36.7383 15.3438L37.168 15.3613C38.6543 15.4727 40.0928 15.9663 41.3379 16.7988C42.7607 17.7506 43.8704 19.104 44.5254 20.6855C45.1803 22.2675 45.3513 24.0101 45.0176 25.6895C44.6837 27.3684 43.8602 28.9119 42.6504 30.123L42.6426 30.1289C41.5814 31.1775 40.275 31.9286 38.8555 32.3262L39.7773 39.7148L39.7812 39.7559L39.7852 39.7988C39.7966 39.9696 39.7968 40.1416 39.7891 40.3125L39.7656 40.791C39.6564 41.8987 39.1682 42.9418 38.3789 43.7402C37.4766 44.6525 36.2499 45.173 34.9668 45.1875H16.6328C15.3403 45.1875 14.0997 44.6734 13.1855 43.7598C12.2946 42.8687 11.789 41.6675 11.7637 40.4102L11.7598 40.4121C11.7461 40.2081 11.7461 40.0028 11.7598 39.7988L11.7637 39.7559L11.7695 39.7129L13.2598 27.8691L4.86914 20.8672C4.51398 20.4977 4.31254 20.0025 4.3125 19.4844C4.31263 18.1585 5.58278 17.2014 6.85742 17.5664L14.2891 19.6953L15.1367 12.9746H13.2559C12.4278 12.9741 11.7559 12.3027 11.7559 11.4746C11.7561 10.6467 12.428 9.97509 13.2559 9.97461H17.1387V7.89453C17.1382 6.56963 17.6557 5.29684 18.5801 4.34766C19.5041 3.39915 20.7622 2.84741 22.0859 2.8125H29.2891ZM26.3867 20.793C25.9969 20.2812 25.23 20.2816 24.8398 20.793C24.5078 21.229 24.1617 21.697 23.8184 22.1855C22.954 23.4157 22.1235 24.7336 21.5176 25.9707C20.8866 27.2592 20.6134 28.2363 20.6133 28.8496C20.614 31.5828 22.8523 33.8005 25.6133 33.8008C28.3738 33.8001 30.6125 31.5825 30.6133 28.8496C30.6132 28.2362 30.34 27.2593 29.709 25.9707C29.103 24.7333 28.2709 23.416 27.4062 22.1855C27.063 21.6971 26.7186 21.2288 26.3867 20.793ZM38.4766 29.2969C39.2388 29.0169 39.9407 28.5798 40.5273 28.002C41.3182 27.2102 41.858 26.2011 42.0762 25.1035C42.2941 24.0062 42.1818 22.8677 41.7539 21.834C41.3258 20.8002 40.5999 19.9152 39.6699 19.293C38.9041 18.7809 38.0256 18.4672 37.1152 18.3711L38.4766 29.2969ZM21.9629 5.82617C21.4961 5.88422 21.0596 6.10167 20.7285 6.44141C20.3505 6.82996 20.1387 7.35044 20.1387 7.89258V9.97461H31.3691V7.89453C31.3691 7.62141 31.3154 7.35001 31.2109 7.09766C31.1065 6.8454 30.9528 6.61502 30.7598 6.42188C30.567 6.22921 30.3376 6.07521 30.0859 5.9707C29.8339 5.86631 29.5618 5.8127 29.2891 5.8125H22.166L21.9629 5.82617Z" fill="#FAFAFA"/>
</svg>
