<svg width="48" height="48" viewBox="0 0 48 48" fill="none" xmlns="http://www.w3.org/2000/svg">
<path fill-rule="evenodd" clip-rule="evenodd" d="M40.4083 10.0215C42.4256 10.226 44.0001 11.9287 44.0001 14V15.4043C45.0813 15.4213 45.9568 16.2974 45.9669 17.3848L46.0333 30.541C46.0431 31.6453 45.1552 32.5485 44.0509 32.5586C44.034 32.5587 44.0169 32.5569 44.0001 32.5566V34C43.9998 36.0711 42.4255 37.774 40.4083 37.9785L40.0001 38H8.00008C5.92914 37.9998 4.2263 36.4252 4.02157 34.4082L4.00008 34V32.5566C2.9194 32.5392 2.04377 31.665 2.03329 30.5781L1.96688 17.4219C1.95683 16.3175 2.84502 15.4146 3.9493 15.4043C3.96611 15.4041 3.98337 15.404 4.00008 15.4043V14C4.00008 11.791 5.79114 10.0002 8.00008 10H40.0001L40.4083 10.0215ZM17.0606 20.9395C16.4749 20.3537 15.5253 20.3537 14.9395 20.9395L11.9395 23.9395C11.3538 24.5252 11.3538 25.4748 11.9395 26.0605C12.5253 26.6463 13.4749 26.6463 14.0606 26.0605L14.5001 25.6211V26C14.5001 29.0375 16.9626 31.5 20.0001 31.5H27.0001C27.8285 31.5 28.5001 30.8284 28.5001 30C28.5001 29.1716 27.8285 28.5 27.0001 28.5H20.0001C18.6194 28.5 17.5001 27.3807 17.5001 26V25.6211L17.9395 26.0605C18.5253 26.6463 19.4749 26.6463 20.0606 26.0605C20.6464 25.4748 20.6464 24.5252 20.0606 23.9395L17.0606 20.9395ZM21.0001 16.5C20.1717 16.5 19.5001 17.1716 19.5001 18C19.5001 18.8284 20.1717 19.5 21.0001 19.5H28.0001C29.3808 19.5 30.5001 20.6193 30.5001 22V23.3789L30.0606 22.9395C29.4749 22.3537 28.5253 22.3537 27.9395 22.9395C27.3538 23.5252 27.3538 24.4748 27.9395 25.0605L30.9395 28.0605C31.5253 28.6463 32.4749 28.6463 33.0606 28.0605L36.0606 25.0605C36.6464 24.4748 36.6464 23.5252 36.0606 22.9395C35.4749 22.3537 34.5253 22.3537 33.9395 22.9395L33.5001 23.3789V22C33.5001 18.9625 31.0376 16.5 28.0001 16.5H21.0001Z" fill="#FAFAFA"/>
</svg>
