<svg width="48" height="48" viewBox="0 0 48 48" fill="none" xmlns="http://www.w3.org/2000/svg">
<path fill-rule="evenodd" clip-rule="evenodd" d="M15.4707 4C17.2736 4.00067 19.0042 4.72493 20.2793 6.01367L20.5117 6.26367C21.6411 7.52539 22.2734 9.16922 22.2735 10.8789V27.6914C23.458 28.921 24.299 30.453 24.7012 32.1289L24.8438 32.8418C25.1144 34.5128 24.9443 36.2325 24.3438 37.8223C23.7432 39.412 22.7367 40.8082 21.4336 41.8711L20.8574 42.3066C19.2734 43.4094 17.3936 43.9995 15.4707 44C13.788 44 12.1366 43.5488 10.6895 42.6973L10.0821 42.3066C8.49782 41.2037 7.28236 39.6392 6.59573 37.8223L6.36331 37.1328C5.88585 35.5098 5.83951 33.7829 6.23635 32.1289L6.43362 31.4277C6.88391 30.0254 7.6499 28.7477 8.66799 27.6914V10.8789C8.66805 9.05462 9.3825 7.30366 10.6582 6.01367L10.9024 5.78125C12.1503 4.63858 13.7792 4.00001 15.4707 4ZM15.4746 17.9277C14.6967 17.9278 14.0645 18.5689 14.0645 19.3555V30.4609C13.5097 30.6665 12.9982 30.9877 12.5723 31.418C11.8024 32.1964 11.3673 33.2547 11.3672 34.3555C11.3678 35.4555 11.803 36.511 12.5723 37.2891L12.8731 37.5645C13.6036 38.1694 14.5244 38.5058 15.4766 38.5059C16.5639 38.505 17.6095 38.0669 18.3789 37.2891L18.377 37.2871C19.1454 36.5092 19.5795 35.4548 19.5801 34.3555C19.58 33.2548 19.1468 32.1964 18.377 31.418C17.9509 30.9872 17.4378 30.6667 16.8828 30.4609V19.3555C16.8828 18.5693 16.252 17.9284 15.4746 17.9277Z" fill="#FAFAFA"/>
<path d="M35.9082 6.07812C36.334 5.64192 36.9822 5.50692 37.5469 5.73633C38.1117 5.96633 38.4823 6.51516 38.4824 7.125V14.3574H41.334C41.6623 14.3582 41.9857 14.4339 42.2793 14.5742L42.5625 14.7363L42.8184 14.9375C42.9784 15.0843 43.1162 15.2543 43.2266 15.4414L43.3711 15.7344L43.3731 15.7402C43.534 16.1428 43.5753 16.5844 43.4903 17.0098C43.4078 17.4214 43.2067 17.7974 42.9199 18.1016L42.9239 18.1055L33.6992 28.0664C33.28 28.5191 32.6253 28.6684 32.0508 28.4434C31.4764 28.2181 31.0977 27.6639 31.0977 27.0469V19.9004H27.668C27.3399 19.8997 27.0164 19.8259 26.7227 19.6855L26.4395 19.5234C26.0769 19.2784 25.795 18.9299 25.6309 18.5234L25.6289 18.5195C25.4679 18.1168 25.4266 17.6754 25.5117 17.25C25.597 16.824 25.8046 16.4321 26.1074 16.123L35.9082 6.07812Z" fill="#FAFAFA"/>
</svg>
