<svg width="48" height="48" viewBox="0 0 48 48" fill="none" xmlns="http://www.w3.org/2000/svg">
<path d="M17.291 36.3145C17.126 36.366 16.9526 36.4052 16.7715 36.4316C16.682 36.4447 16.5894 36.4523 16.4961 36.459C16.8066 36.4369 17.096 36.3755 17.3633 36.2852C17.3388 36.2935 17.3159 36.3067 17.291 36.3145Z" fill="#FAFAFA"/>
<path d="M22.2734 34.3652C22.2423 34.3298 22.2077 34.297 22.1777 34.2598L22.1504 34.2227C22.1895 34.2726 22.2323 34.3185 22.2734 34.3652Z" fill="#FAFAFA"/>
<path d="M25.7305 34.0039L25.7383 34.1445C25.7383 34.0459 25.7256 33.9579 25.7012 33.8789C25.7133 33.9184 25.7243 33.9597 25.7305 34.0039Z" fill="#FAFAFA"/>
<path fill-rule="evenodd" clip-rule="evenodd" d="M24 14.5C24 17.5376 26.4624 20 29.5 20H40V38.5C40 41.5376 37.5376 44 34.5 44H13.5C10.4624 44 8 41.5376 8 38.5V9.5C8 6.46243 10.4624 4 13.5 4H24V14.5ZM16.207 28.0625C13.8804 28.0627 12.2363 29.9286 12.2363 32.4668C12.2365 35.0048 13.8806 36.869 16.207 36.8691C17.0676 36.8691 17.8163 36.6303 18.416 36.1855C19.0145 35.7416 19.4441 35.1093 19.6934 34.3555L19.7559 34.168C19.7898 34.0644 19.7337 33.9518 19.6309 33.916L19.4414 33.8516L17.9395 33.3379C17.8298 33.3008 17.7113 33.3647 17.6816 33.4766L17.627 33.6855C17.526 34.0707 17.342 34.357 17.1094 34.5469C16.8782 34.7354 16.5772 34.8477 16.207 34.8477C15.6945 34.8476 15.2624 34.6293 14.9492 34.2363C14.6309 33.8367 14.422 33.2358 14.4219 32.4668C14.4219 31.6975 14.6308 31.095 14.9492 30.6953C15.2624 30.3027 15.6947 30.086 16.207 30.0859C16.5771 30.0859 16.8783 30.1963 17.1094 30.3848C17.3422 30.5747 17.526 30.8624 17.627 31.248L17.6816 31.457C17.7113 31.5688 17.8298 31.6328 17.9395 31.5957L19.4414 31.082L19.6309 31.0176C19.7339 30.9819 19.7897 30.8693 19.7559 30.7656L19.6934 30.5762C19.444 29.8225 19.0145 29.1899 18.416 28.7461C17.8163 28.3014 17.0675 28.0625 16.207 28.0625ZM24.1484 28.0625C23.2889 28.0625 22.494 28.3155 21.9062 28.793C21.3123 29.2758 20.9453 29.978 20.9453 30.8223C20.9454 31.7183 21.3319 32.3056 21.8965 32.6875C22.4258 33.0452 23.1031 33.2156 23.6758 33.3535L24.4648 33.543C24.6871 33.6003 24.8709 33.6569 25.0215 33.7266C25.1605 33.791 25.2332 33.8525 25.2734 33.9062C25.3086 33.9531 25.3398 34.0209 25.3398 34.1445C25.3396 34.3819 25.2408 34.5485 25.0684 34.6699C24.8812 34.8015 24.5866 34.8906 24.2031 34.8906C23.4738 34.8906 22.7788 34.4929 22.2988 33.7441L22.1777 33.5547C22.1131 33.4538 21.9753 33.4318 21.8828 33.5078L21.709 33.6523L20.5137 34.6387C20.4376 34.7019 20.4194 34.8118 20.4707 34.8965L20.5605 35.0449C21.2547 36.1849 22.7226 36.8691 24.1602 36.8691C25.8916 36.8688 27.5014 35.8301 27.502 34.0039C27.502 33.5201 27.394 33.111 27.1914 32.7715C26.9897 32.4336 26.7078 32.1873 26.3984 32.002C25.9485 31.7325 25.4078 31.5766 24.9102 31.459L24.4316 31.3516C23.8852 31.2276 23.5374 31.1439 23.3164 31.0254C23.2167 30.9719 23.1694 30.9237 23.1445 30.8848C23.1215 30.8485 23.0997 30.7905 23.0996 30.6816C23.0996 30.5114 23.1719 30.3659 23.3262 30.252C23.4889 30.1319 23.7521 30.043 24.1055 30.043C24.8371 30.043 25.2989 30.3998 25.6836 30.9961L25.8086 31.1895C25.8746 31.2908 26.0156 31.3112 26.1074 31.2324L26.2812 31.082L27.2988 30.2051L27.4297 30.0918C27.5047 30.0269 27.5201 29.9157 27.4668 29.832L27.375 29.6875C26.7768 28.7529 25.6056 28.0625 24.1484 28.0625ZM28.0059 28.1816C27.8666 28.1817 27.7701 28.3206 27.8184 28.4512L27.918 28.7207L30.8066 36.4902L30.8555 36.6211C30.8849 36.6987 30.9599 36.75 31.043 36.75H32.7832C32.8667 36.7497 32.9418 36.6975 32.9707 36.6191L35.9863 28.4512C36.0341 28.3207 35.9358 28.1816 35.7969 28.1816H33.9414C33.8571 28.1816 33.7825 28.2351 33.7539 28.3145L33.7051 28.4473L32.1191 32.8965C32.056 33.0734 31.8055 33.0731 31.7422 32.8965L30.1641 28.4492L30.1152 28.3145C30.0868 28.235 30.0121 28.1817 29.9277 28.1816H28.0059Z" fill="#FAFAFA"/>
<path d="M27.1465 5.02539L38.9746 16.8535C39.0222 16.9011 39.0687 16.95 39.1133 17H29.5C28.1193 17 27 15.8807 27 14.5V4.88672C27.05 4.93127 27.0989 4.97778 27.1465 5.02539Z" fill="#FAFAFA"/>
</svg>
