<svg width="48" height="48" viewBox="0 0 48 48" fill="none" xmlns="http://www.w3.org/2000/svg">
<path d="M26.977 37.6798C27.1185 37.681 27.2582 37.7174 27.3813 37.7872C27.5045 37.8572 27.6085 37.9591 27.6821 38.0802C27.7519 38.2014 27.7894 38.3387 27.7895 38.4786C27.7895 38.6189 27.7522 38.7575 27.6821 38.879C26.8789 40.312 25.7885 41.5643 24.4809 42.5587C24.3444 42.6656 24.1758 42.7224 24.0024 42.7189C23.8291 42.72 23.6599 42.6636 23.5219 42.5587C22.226 41.5611 21.1478 40.3089 20.354 38.879C20.2838 38.7574 20.2465 38.619 20.2465 38.4786C20.2467 38.3386 20.2841 38.2015 20.354 38.0802C20.4275 37.9591 20.5315 37.8572 20.6548 37.7872C20.7775 37.7177 20.916 37.6811 21.0571 37.6798H26.977Z" fill="#FAFAFA"/>
<path d="M28.768 31.2794C28.8766 31.2814 28.9852 31.3058 29.0844 31.3497C29.1832 31.3936 29.2719 31.4567 29.3462 31.5353C29.4206 31.6142 29.4799 31.7071 29.518 31.8087C29.5561 31.9103 29.573 32.0187 29.5688 32.1271C29.5154 32.9774 29.3982 33.8238 29.2173 34.6564C29.1832 34.8336 29.0877 34.9936 28.9477 35.1075C28.8074 35.2215 28.6304 35.2824 28.4497 35.2794H19.5532C19.3722 35.2826 19.1957 35.2217 19.0551 35.1075C18.9149 34.9936 18.8197 34.8338 18.7856 34.6564C18.5939 33.8246 18.4648 32.9782 18.4008 32.1271C18.3996 31.9089 18.48 31.6979 18.6255 31.5353C18.6991 31.456 18.7883 31.3917 18.8872 31.3478C18.986 31.3039 19.0935 31.2808 19.2016 31.2794H28.768Z" fill="#FAFAFA"/>
<path d="M32.3286 19.4142C32.3818 19.4142 32.4348 19.4286 32.4809 19.4552L41.3286 27.0704C43.2006 28.6544 43.2011 30.0319 43.0571 31.0079C42.7917 31.6894 42.3376 32.2816 41.7485 32.7149C41.1593 33.1483 40.4587 33.4049 39.729 33.4552C39.4202 33.4796 39.11 33.4796 38.8012 33.4552C37.98 33.4779 37.1663 33.2963 36.4321 32.9278C35.6981 32.5595 35.0667 32.0156 34.5942 31.3439C33.3462 29.3919 31.0248 25.9035 30.4008 24.9435C30.3548 24.8749 30.3305 24.7936 30.3305 24.711C30.3306 24.6285 30.3548 24.5471 30.4008 24.4786C31.4466 23.0979 32.0086 21.4118 32.0005 19.6798C32.0078 19.6307 32.0286 19.5841 32.059 19.545C32.0899 19.5058 32.1319 19.4741 32.1782 19.4552C32.224 19.4289 32.2758 19.4143 32.3286 19.4142Z" fill="#FAFAFA"/>
<path d="M15.6743 19.3673C15.7273 19.3674 15.7788 19.3819 15.8247 19.4083C15.8778 19.4307 15.9242 19.4674 15.9555 19.5157C15.9869 19.5642 16.0037 19.622 16.0024 19.6798C16.0518 21.3936 16.6573 23.0446 17.729 24.3829C17.775 24.4515 17.7992 24.5328 17.7993 24.6153C17.7993 24.698 17.7751 24.7792 17.729 24.8478C17.1046 25.8722 14.7854 29.3604 13.5376 31.2481C13.0652 31.9198 12.4335 32.4637 11.6997 32.8321C10.9654 33.2007 10.1498 33.3822 9.32858 33.3595C9.02001 33.3838 8.70941 33.3839 8.40084 33.3595C7.67126 33.309 6.97043 33.0526 6.38131 32.6192C5.79223 32.1859 5.33809 31.5937 5.07272 30.9122C4.76872 30.0322 4.85028 28.6724 6.67428 27.0724L15.5219 19.4083C15.5681 19.3816 15.6209 19.3673 15.6743 19.3673Z" fill="#FAFAFA"/>
<path d="M24.0005 14.0802C25.213 14.0798 26.3932 14.4738 27.3618 15.2032C28.3305 15.9329 29.0352 16.9593 29.3696 18.1251C29.7037 19.2905 29.6497 20.5323 29.2153 21.6642C28.7806 22.7964 27.99 23.758 26.9614 24.4005C27.7919 25.4199 28.4554 26.5642 28.9282 27.7911C28.9871 27.9048 29.018 28.0322 29.018 28.1603C29.0179 28.2881 28.987 28.4139 28.9282 28.5274C28.8566 28.6358 28.7594 28.7258 28.645 28.7872C28.5309 28.8483 28.4033 28.8792 28.2739 28.879H19.7602C19.6315 28.8772 19.5044 28.8444 19.3911 28.7833C19.2779 28.7221 19.18 28.6341 19.1079 28.5274C19.0359 28.4208 18.9916 28.2979 18.977 28.17C18.9625 28.0418 18.9794 27.9115 19.0258 27.7911C19.4986 26.5643 20.1622 25.4198 20.9926 24.4005C19.9722 23.749 19.1901 22.7838 18.7641 21.6505C18.3382 20.5171 18.2926 19.2758 18.6313 18.1134C18.9702 16.9509 19.6767 15.9284 20.645 15.2013C21.6129 14.4747 22.7901 14.0815 24.0005 14.0802Z" fill="#FAFAFA"/>
<path d="M31.2016 5.2794C31.6259 5.2794 32.0325 5.44825 32.3325 5.74815C32.6324 6.04809 32.8011 6.45484 32.8012 6.87901C32.8012 7.30336 32.6325 7.71176 32.3325 8.01182C32.0325 8.31142 31.6256 8.47862 31.2016 8.47862C29.7045 8.48019 28.2551 9.00727 27.1059 9.9669C27.6002 10.5491 27.9013 11.2707 27.9692 12.0314C27.9774 12.103 27.9651 12.1753 27.934 12.2403C27.903 12.3053 27.8542 12.3599 27.7934 12.3985C27.7328 12.4336 27.6642 12.4531 27.5942 12.4532C27.524 12.4532 27.4538 12.4336 27.393 12.3985C26.3343 11.8931 25.1756 11.6311 24.0024 11.631C22.8288 11.631 21.6689 11.8929 20.6098 12.3985C20.549 12.4336 20.4789 12.4532 20.4087 12.4532C20.3388 12.4531 20.27 12.4335 20.2094 12.3985C20.1488 12.3599 20.0998 12.3052 20.0688 12.2403C20.0378 12.1753 20.0255 12.1029 20.0337 12.0314C20.1015 11.2707 20.4026 10.5491 20.8969 9.9669C19.7478 9.00739 18.2983 8.48019 16.8012 8.47862C16.3773 8.47851 15.9703 8.31145 15.6704 8.01182C15.3703 7.71176 15.2016 7.30336 15.2016 6.87901C15.2018 6.45484 15.3704 6.04809 15.6704 5.74815C15.9703 5.44822 16.3771 5.2795 16.8012 5.2794C18.1594 5.27311 19.5035 5.55594 20.7446 6.10752C21.9857 6.65913 23.097 7.4663 24.0024 8.47862C24.9077 7.46672 26.0176 6.65898 27.2583 6.10752C28.4994 5.5559 29.8434 5.27311 31.2016 5.2794Z" fill="#FAFAFA"/>
</svg>
