<svg width="48" height="48" viewBox="0 0 48 48" fill="none" xmlns="http://www.w3.org/2000/svg">
<path d="M25.501 5.5C25.501 4.67157 24.8294 4 24.001 4C23.1726 4 22.501 4.67157 22.501 5.5V8.04717C14.6732 8.54098 7.93154 12.8713 4.4849 19.1033C3.55933 20.7769 3.81119 22.5693 4.76528 23.89C5.69568 25.1778 7.27149 26.0061 9.02692 26.0061H38.9752C40.7307 26.0061 42.3065 25.1778 43.2369 23.89C44.191 22.5693 44.4428 20.7769 43.5173 19.1033C40.0706 12.8712 33.3289 8.54091 25.501 8.04715V5.5Z" fill="#FAFAFA"/>
<path d="M25.5013 30.5C25.5013 29.6716 24.8297 29 24.0013 29C23.1728 29 22.5013 29.6716 22.5013 30.5V38.6534C22.5013 39.9494 21.4507 41 20.1547 41C19.0361 41 18.0731 40.2105 17.8537 39.1136L17.4721 37.2058C17.3097 36.3935 16.5194 35.8667 15.7071 36.0291C14.8948 36.1916 14.3679 36.9818 14.5304 37.7942L14.912 39.702C15.4118 42.2011 17.6061 44 20.1547 44C23.1075 44 25.5013 41.6063 25.5013 38.6534V30.5Z" fill="#FAFAFA"/>
</svg>
