<svg width="48" height="48" viewBox="0 0 48 48" fill="none" xmlns="http://www.w3.org/2000/svg">
<path fill-rule="evenodd" clip-rule="evenodd" d="M24 3.5C24.8284 3.5 25.5 4.17157 25.5 5V6.51562C29.9331 6.77284 33.4516 10.4267 33.4961 14.9141L34.1094 23.5H36C36.2761 23.5 36.5 23.2761 36.5 23V22C36.5 21.1716 37.1716 20.5 38 20.5C38.8284 20.5 39.5 21.1716 39.5 22V23C39.5 24.933 37.933 26.5 36 26.5H34.3242L35.3965 41.5H38C38.8284 41.5 39.5 42.1716 39.5 43C39.5 43.8284 38.8284 44.5 38 44.5H10C9.17157 44.5 8.5 43.8284 8.5 43C8.5 42.1716 9.17157 41.5 10 41.5H12.6035L13.6738 26.5H12C10.067 26.5 8.5 24.933 8.5 23V22C8.5 21.1716 9.17157 20.5 10 20.5C10.8284 20.5 11.5 21.1716 11.5 22V23C11.5 23.2761 11.7239 23.5 12 23.5H13.8887L14.502 14.9141C14.5464 10.4267 18.0667 6.77283 22.5 6.51562V5C22.5 4.17157 23.1716 3.5 24 3.5ZM23 35.5C21.8954 35.5 21 36.3954 21 37.5V41.5H27V37.5C27 36.3954 26.1046 35.5 25 35.5H23ZM16.8965 23.5H22.5V22C22.5 21.1716 23.1716 20.5 24 20.5C24.8284 20.5 25.5 21.1716 25.5 22V23.5H31.1035L30.6758 17.5H17.3242L16.8965 23.5Z" fill="#FAFAFA"/>
</svg>
