<svg width="48" height="48" viewBox="0 0 48 48" fill="none" xmlns="http://www.w3.org/2000/svg">
<path fill-rule="evenodd" clip-rule="evenodd" d="M31.793 12H35.9042C37.709 12 39.3989 12.8855 40.4262 14.3693L43.0221 18.1189C43.6588 19.0387 44 20.1308 44 21.2495V28.5714C44 31.0778 42.3014 33.1874 39.9926 33.8121C39.8298 37.257 36.9852 40 33.5 40C30.0784 40 27.2743 37.3562 27.0189 34H20.9811C20.7257 37.3562 17.9216 40 14.5 40C11.0784 40 8.27423 37.3562 8.01895 34C8.01263 34 8.00632 34 8 34C5.79086 34 4 32.2091 4 30V13.5C4 10.4624 6.46243 8 9.5 8H26.5C29.0176 8 31.14 9.6915 31.793 12ZM32 15H35.9042C36.7246 15 37.4927 15.4025 37.9597 16.077L40.5555 19.8265C40.8449 20.2446 41 20.741 41 21.2495V28.5714C41 29.609 40.3493 30.4947 39.4337 30.8425C38.4177 28.5776 36.1431 27 33.5 27C32.9837 27 32.4815 27.0602 32 27.1739V15ZM11.7886 31.2867C11.644 31.7126 11.4295 32.1063 11.159 32.4541C11.0557 32.7843 11 33.1357 11 33.5C11 35.433 12.567 37 14.5 37C16.433 37 18 35.433 18 33.5C18 31.567 16.433 30 14.5 30C13.4066 30 12.4304 30.5013 11.7886 31.2867ZM33.5 30C35.433 30 37 31.567 37 33.5C37 35.433 35.433 37 33.5 37C31.567 37 30 35.433 30 33.5C30 31.567 31.567 30 33.5 30Z" fill="#FAFAFA"/>
</svg>
