<svg width="48" height="48" viewBox="0 0 48 48" fill="none" xmlns="http://www.w3.org/2000/svg">
<path fill-rule="evenodd" clip-rule="evenodd" d="M22.5003 9.5C22.5003 7.567 24.0673 6 26.0003 6H35.9277C37.7148 6 39.3905 6.86826 40.421 8.32824L43.5975 12.8282C44.9397 14.7297 44.9397 17.2703 43.5975 19.1718L40.421 23.6718C39.3905 25.1317 37.7148 26 35.9277 26H26.0003C25.8306 26 25.6636 25.9879 25.5003 25.9646V40.5C25.5003 41.3284 24.8288 42 24.0003 42C23.1719 42 22.5003 41.3284 22.5003 40.5V34H12.073C10.2859 34 8.61021 33.1317 7.57963 31.6718L4.40316 27.1718C3.06093 25.2703 3.06093 22.7297 4.40316 20.8282L7.57963 16.3282C8.61021 14.8683 10.2859 14 12.073 14H22.0003C22.1701 14 22.337 14.0121 22.5003 14.0354V9.5ZM26.0003 9C25.7242 9 25.5003 9.22386 25.5003 9.5V22.5C25.5003 22.7761 25.7242 23 26.0003 23H35.9277C36.74 23 37.5017 22.6053 37.9701 21.9417L41.1466 17.4417C41.7567 16.5774 41.7567 15.4226 41.1466 14.5583L37.9701 10.0583C37.5017 9.39466 36.74 9 35.9277 9H26.0003Z" fill="#FAFAFA"/>
</svg>
