<svg width="48" height="48" viewBox="0 0 48 48" fill="none" xmlns="http://www.w3.org/2000/svg">
<path fill-rule="evenodd" clip-rule="evenodd" d="M31.3652 6.50001C33.3567 6.50001 35.0064 6.49571 36.3086 6.67579C37.6583 6.8625 38.8551 7.27312 39.8105 8.25587C40.7602 9.2328 41.1513 10.4465 41.3301 11.8145C41.5038 13.1434 41.5 14.8291 41.5 16.8809V27.0234C41.5 29.0952 41.5016 31.2409 41.3359 33.0332C41.2528 33.9319 41.1226 34.7974 40.9102 35.5527C40.7045 36.2839 40.3803 37.0642 39.8105 37.6504C39.1532 38.3265 38.5294 38.9386 37.3613 39.2051C36.9251 39.3045 36.4066 39.3529 35.7773 39.3779C35.5929 40.8945 35.2559 42.0823 34.6328 42.6826C33.266 43.9995 31.0665 44 26.667 44H17.333C12.9334 44 10.734 43.9995 9.36719 42.6826C8.27456 41.6298 8.05861 38.7705 8.01465 35.5H8C7.17157 35.5 6.5 34.8284 6.5 34C6.5 33.1716 7.17157 32.5 8 32.5V29.5C7.17157 29.5 6.5 28.8284 6.5 28C6.5 27.1716 7.17157 26.5 8 26.5V23.5C7.17157 23.5 6.5 22.8284 6.5 22C6.5 21.1716 7.17157 20.5 8 20.5C8.00205 16.5873 8.05439 14.5823 9.36719 13.3174C10.1235 12.5887 11.1347 12.2635 12.6328 12.1182C12.6599 11.5954 12.7066 11.154 12.7871 10.7734C13.0367 9.59452 13.6074 8.95303 14.2852 8.25587C15.2406 7.27327 16.4375 6.86248 17.7871 6.67579C19.0893 6.49576 20.7391 6.50001 22.7305 6.50001H31.3652ZM22.7305 9.50001C20.6523 9.50001 19.2482 9.5035 18.1992 9.64845C17.1982 9.78688 16.7445 10.0281 16.4355 10.3457C15.8489 10.9491 15.7872 11.0803 15.7207 11.3945C15.686 11.5586 15.6617 11.7535 15.6436 12.0039C16.1677 12.0005 16.7297 12 17.333 12H26.667C31.0665 12 33.266 12.0005 34.6328 13.3174C35.9996 14.6343 36 16.7534 36 20.9922V32.9824C36 34.1357 35.9982 35.282 35.9707 36.3662C36.2865 36.3476 36.5131 36.3208 36.6953 36.2793C36.9519 36.2208 37.0544 36.1817 37.6602 35.5586C37.7227 35.4942 37.8737 35.2725 38.0234 34.7402C38.1664 34.2317 38.2747 33.5679 38.3496 32.7578C38.5 31.1319 38.5 29.138 38.5 27.0234V16.8809C38.5 14.7466 38.4979 13.2924 38.3555 12.2031C38.2182 11.1529 37.9748 10.6694 37.6602 10.3457C37.3512 10.0281 36.8972 9.78689 35.8965 9.64845C34.8476 9.50351 33.4432 9.50001 31.3652 9.50001H22.7305Z" fill="#FAFAFA"/>
<path d="M22.6006 33.001C23.7049 33.0012 24.6006 33.8966 24.6006 35.001C24.6006 36.1054 23.7049 37.0007 22.6006 37.001C21.496 37.001 20.6006 36.1055 20.6006 35.001C20.6006 33.8964 21.496 33.001 22.6006 33.001Z" fill="#131313"/>
<path d="M22.499 20C23.3274 20 23.999 20.6716 23.999 21.5V29.5C23.999 30.3284 23.3274 31 22.499 31C21.6708 30.9997 21 30.3283 21 29.5V21.5C21 20.6717 21.6708 20.0003 22.499 20Z" fill="#131313"/>
</svg>
