<svg width="48" height="48" viewBox="0 0 48 48" fill="none" xmlns="http://www.w3.org/2000/svg">
<path fill-rule="evenodd" clip-rule="evenodd" d="M6.84766 26.7949C7.04223 26.8761 7.25625 26.9237 7.48242 26.9238H22.502V44H11.1934C8.79343 43.9998 6.8479 42.0543 6.84766 39.6543V26.7949ZM16.8867 31.0391C16.0583 31.0391 15.3867 31.7106 15.3867 32.5391V35.3848C15.3871 36.2129 16.0585 36.8848 16.8867 36.8848C17.7145 36.8842 18.3863 36.2125 18.3867 35.3848V32.5391C18.3867 31.711 17.7147 31.0396 16.8867 31.0391Z" fill="#FAFAFA"/>
<path fill-rule="evenodd" clip-rule="evenodd" d="M41.1562 39.6543C41.156 42.0544 39.2088 44 36.8086 44H25.502V26.9238H40.5215C40.7478 26.9236 40.9615 26.8744 41.1562 26.793V39.6543ZM31.1172 31.0391C30.2888 31.0391 29.6172 31.7106 29.6172 32.5391V35.3848C29.6176 36.2129 30.289 36.8848 31.1172 36.8848C31.9449 36.8842 32.6168 36.2125 32.6172 35.3848V32.5391C32.6172 31.711 31.9452 31.0396 31.1172 31.0391Z" fill="#FAFAFA"/>
<path d="M41.1562 24.0527C40.9617 23.9716 40.7476 23.9241 40.5215 23.9238H7.48242C7.25651 23.9239 7.04206 23.9699 6.84766 24.0508V16.832C7.04224 16.9131 7.25624 16.9608 7.48242 16.9609H40.5215C40.7479 16.9607 40.9615 16.9114 41.1562 16.8301V24.0527Z" fill="#FAFAFA"/>
<path d="M36.8086 4C39.2088 4 41.156 5.94561 41.1562 8.3457V14.0898C40.9617 14.0086 40.7476 13.9612 40.5215 13.9609H7.48242C7.25652 13.961 7.04205 14.0069 6.84766 14.0879V8.3457C6.8479 5.94574 8.79342 4.00024 11.1934 4H36.8086Z" fill="#FAFAFA"/>
</svg>
