<svg width="48" height="48" viewBox="0 0 48 48" fill="none" xmlns="http://www.w3.org/2000/svg">
<path d="M5.85156 27.416C6.87316 27.4165 7.70117 28.2439 7.70117 29.2656V29.3652C7.70135 29.5805 7.87653 29.7559 8.0918 29.7559H9.63086C9.83881 29.7559 10.0129 29.9144 10.0352 30.1211C10.3119 32.7228 11.2288 35.0356 12.7871 37.0547C13.9614 38.576 15.353 39.7919 16.9609 40.7031C17.3475 40.9222 17.198 41.6284 16.7539 41.6289H8.0918C7.87653 41.6289 7.70135 41.8024 7.70117 42.0176V42.1172C7.70117 43.1389 6.87316 43.9682 5.85156 43.9688C4.82951 43.9688 4 43.1392 4 42.1172V29.2656C4 28.2436 4.82951 27.416 5.85156 27.416Z" fill="#FAFAFA"/>
<path fill-rule="evenodd" clip-rule="evenodd" d="M23.9941 17.6289C27.033 17.6289 29.6092 18.6848 31.7227 20.7949C33.8358 22.905 34.8945 25.479 34.8945 28.5176C34.8943 31.556 33.8384 34.1329 31.7285 36.2461C29.6187 38.359 27.0441 39.4158 24.0059 39.416C20.9677 39.416 18.3906 38.3612 16.2773 36.252C14.1641 34.1421 13.1057 31.5657 13.1055 28.5273C13.1055 25.4889 14.1618 22.9121 16.2715 20.7988C18.3814 18.6856 20.9557 17.6291 23.9941 17.6289ZM23.4941 22.0098C23.4097 22.0279 23.3321 22.0716 23.2754 22.1367C23.2186 22.202 23.184 22.2848 23.1777 22.3711C23.1715 22.457 23.1939 22.5427 23.2402 22.6152C23.6926 23.3456 23.9464 24.1824 23.9746 25.041C24.0027 25.8998 23.8041 26.7513 23.4004 27.5098C22.9136 27.164 22.5325 26.6901 22.2988 26.1406C22.28 26.0875 22.2497 26.039 22.2109 25.998C22.1718 25.957 22.1228 25.9239 22.0703 25.9023C22.018 25.8806 21.9609 25.8692 21.9043 25.8711C21.8478 25.8731 21.7928 25.8888 21.7422 25.9141C20.9743 26.2597 20.3246 26.8224 19.873 27.5332C19.4215 28.2441 19.1876 29.072 19.2012 29.9141C19.2013 31.1868 19.7074 32.4066 20.6074 33.3066C21.5074 34.2066 22.7272 34.7127 24 34.7129C25.273 34.7129 26.4944 34.2068 27.3945 33.3066C28.2944 32.4066 28.8006 31.1867 28.8008 29.9141C28.7801 28.2594 28.2943 26.6426 27.4004 25.25C26.5066 23.8578 25.2396 22.7448 23.7441 22.0371C23.6658 22.0011 23.5784 21.9918 23.4941 22.0098Z" fill="#FAFAFA"/>
<path d="M42.1504 13.0332C43.172 13.0337 44 13.8611 44 14.8828V27.7344C44 28.7561 43.172 29.5854 42.1504 29.5859C41.1283 29.5859 40.2988 28.7564 40.2988 27.7344V27.457C40.2984 27.3399 40.2031 27.2461 40.0859 27.2461H38.4141C38.208 27.246 38.0362 27.0874 38.0117 26.8828C37.704 24.307 36.7711 22.0094 35.2129 19.9902C34.0229 18.4484 32.6167 17.2117 30.9961 16.2812C30.6134 16.0615 30.7639 15.3732 31.2051 15.373H39.9082C40.1235 15.373 40.2987 15.1976 40.2988 14.9824V14.8828C40.2988 13.8608 41.1283 13.0332 42.1504 13.0332Z" fill="#FAFAFA"/>
<path d="M32.5 4.69922C33.3284 4.69922 34 5.37274 34 6.20117C33.9995 7.02915 33.3281 7.70117 32.5 7.70117H25.5234V12.8027C25.5234 13.6308 24.8514 14.3022 24.0234 14.3027C23.195 14.3027 22.5234 13.6312 22.5234 12.8027V7.70117H15.5C14.6719 7.70117 14.0005 7.02915 14 6.20117C14 5.37274 14.6716 4.69922 15.5 4.69922H32.5Z" fill="#FAFAFA"/>
</svg>
