<svg width="48" height="48" viewBox="0 0 48 48" fill="none" xmlns="http://www.w3.org/2000/svg">
<path d="M37.4162 41.666C38.2447 41.666 38.9162 42.3376 38.9162 43.166V43.1855C38.916 44.0138 38.2445 44.6855 37.4162 44.6855C36.5885 44.6849 35.9164 44.0134 35.9162 43.1855V43.166C35.9162 42.338 36.5883 41.6667 37.4162 41.666Z" fill="#FAFAFA"/>
<path d="M37.4162 30.166C38.2447 30.166 38.9162 30.8376 38.9162 31.666V37.416C38.9162 38.2444 38.2447 38.916 37.4162 38.916C36.5883 38.9154 35.9162 38.244 35.9162 37.416V31.666C35.9162 30.838 36.5883 30.1667 37.4162 30.166Z" fill="#FAFAFA"/>
<path d="M24.0002 11C31.5834 11 37.7578 15.263 42.5373 23.2285C42.8218 23.7032 42.8218 24.2967 42.5373 24.7715C42.3697 25.0512 42.198 25.3298 42.0236 25.6055L40.7561 24.8027L40.344 24.541L42.0236 25.6055C41.5806 26.3049 40.6532 26.5129 39.9533 26.0703C39.2547 25.6273 39.0466 24.7015 39.4885 24.002C35.1631 17.1676 29.9958 14 24.0002 14C18.0054 14.0004 12.837 17.1667 8.51193 24C12.837 30.8333 18.0054 33.9996 24.0002 34H24.008C25.811 34.0091 27.603 33.6997 29.299 33.0879L29.8069 34.5L30.3166 35.9102C28.2916 36.6406 26.1529 37.008 24.0002 36.998H23.9944L23.9924 37C16.4132 36.9966 10.2407 32.7342 5.4631 24.7715C5.17897 24.297 5.17897 23.703 5.4631 23.2285C10.2424 15.2631 16.4174 11.0004 24.0002 11Z" fill="#FAFAFA"/>
<path d="M29.299 33.0879C30.078 32.8072 30.9377 33.2115 31.219 33.9902C31.5001 34.7695 31.0959 35.629 30.3166 35.9102L29.299 33.0879Z" fill="#FAFAFA"/>
<path d="M24.0002 18.248C25.5252 18.2481 26.9882 18.8534 28.0666 19.9316C29.1452 21.0102 29.7502 22.4747 29.7502 24C29.75 25.5251 29.145 26.988 28.0666 28.0664C26.9881 29.1448 25.5254 29.7499 24.0002 29.75C22.4751 29.75 21.0123 29.1447 19.9338 28.0664C18.8554 26.988 18.2484 25.5251 18.2483 24C18.2483 22.4747 18.8552 21.0102 19.9338 19.9316C21.0123 18.8536 22.4753 18.248 24.0002 18.248Z" fill="#FAFAFA"/>
</svg>
