<svg width="48" height="48" viewBox="0 0 48 48" fill="none" xmlns="http://www.w3.org/2000/svg">
<path d="M37.0645 18.3613C37.1579 18.3942 37.2395 18.4544 37.2969 18.5352C37.3545 18.6165 37.3849 18.7148 37.3848 18.8145V28.4805H42.1699C42.723 28.481 42.8826 29.2385 42.5371 29.584L32.5371 42.1289C32.4752 42.2067 32.3904 42.2634 32.2949 42.291C32.199 42.3187 32.0961 42.3163 32.002 42.2832C31.9078 42.2501 31.827 42.1871 31.7695 42.1055C31.7123 42.0241 31.6813 41.9276 31.6816 41.8281V32.1621H26.8965C26.3438 32.1614 26.1829 31.4058 26.5293 31.0586L36.5293 18.5156C36.5912 18.4377 36.6759 18.3813 36.7715 18.3535C36.8672 18.3258 36.9703 18.3284 37.0645 18.3613Z" fill="#FAFAFA"/>
<path d="M28.2656 25.0312L24.6992 29.502C24.1872 30.094 24.0484 30.7512 24.002 31.0312C23.9445 31.3718 23.9453 31.6802 23.9453 31.7793V31.793C23.9453 31.8792 23.9494 31.9662 23.959 32.0508C21.9529 32.753 19.3841 33.1542 16.6055 33.1543C13.5255 33.1543 10.7007 32.6601 8.61914 31.8105C7.57916 31.3881 6.6835 30.8602 6.03711 30.2266C5.38603 29.5915 4.94545 28.8035 4.94531 27.8965V22.7988C5.56607 23.218 6.28036 23.5817 7.05469 23.8984C9.55852 24.9191 12.9338 25.5097 16.6055 25.5098C20.2759 25.5098 23.6523 24.9192 26.1562 23.8984C26.9306 23.5832 27.6448 23.218 28.2656 22.7988V25.0312Z" fill="#FAFAFA"/>
<path d="M28.2656 18.9609C28.2645 18.983 28.2636 19.0052 28.2637 19.0273C28.2636 19.3585 28.1114 19.7692 27.6172 20.2539C27.1148 20.7435 26.3252 21.2393 25.25 21.6777C23.1047 22.551 20.0509 23.1093 16.6055 23.1094C13.1591 23.1094 10.1046 22.5513 7.95898 21.6777C6.88394 21.2394 6.0945 20.7435 5.59375 20.2539C5.09944 19.7692 4.94729 19.3585 4.94727 19.0273L4.94531 18.957V12.7363C5.78356 13.5441 6.86834 14.1644 8.01367 14.6348C10.3337 15.5868 13.3719 16.1211 16.6055 16.1211C19.8387 16.121 22.8775 15.5863 25.1973 14.6328C26.3425 14.1641 27.4275 13.5457 28.2656 12.7363V18.9609Z" fill="#FAFAFA"/>
<path d="M16.6055 4.80078C22.6023 4.80078 27.4648 6.79772 27.4648 9.26172C27.4637 11.7253 22.6016 13.7207 16.6055 13.7207C10.6097 13.7206 5.74724 11.7252 5.74609 9.26172C5.74609 6.79781 10.6074 4.80092 16.6055 4.80078Z" fill="#FAFAFA"/>
</svg>
