<svg width="48" height="48" viewBox="0 0 48 48" fill="none" xmlns="http://www.w3.org/2000/svg">
<path d="M24.0156 14.5996C24.8434 14.6003 25.5156 15.2716 25.5156 16.0996V17.2012L26.1543 16.5645C26.7401 15.9789 27.6897 15.9787 28.2754 16.5645C28.8602 17.1503 28.8607 18.1001 28.2754 18.6855L25.5156 21.4434V22.5117L26.6055 22.5098L29.3535 19.7637C29.9392 19.1783 30.8889 19.1784 31.4746 19.7637C32.0599 20.3494 32.06 21.2991 31.4746 21.8848L30.8535 22.5039H31.9473C32.7749 22.5034 33.4476 23.1743 33.4492 24.002C33.4501 24.8299 32.779 25.5023 31.9512 25.5039H30.8145L31.4746 26.1641L31.5781 26.2773C32.0584 26.8664 32.0235 27.736 31.4746 28.2852C30.9258 28.8334 30.0577 28.8679 29.4688 28.3887L29.3535 28.2852L26.5801 25.5098L25.5156 25.5117V26.6035L28.2754 29.3633L28.3789 29.4785C28.8579 30.0674 28.8235 30.9356 28.2754 31.4844C27.7264 32.0334 26.8567 32.068 26.2676 31.5879L26.1543 31.4844L25.5156 30.8457V31.9492C25.5151 32.7767 24.8431 33.4485 24.0156 33.4492C23.1875 33.4492 22.5162 32.7772 22.5156 31.9492V30.8418L21.875 31.4844C21.2894 32.0699 20.3397 32.0695 19.7539 31.4844C19.1685 30.8986 19.1683 29.9489 19.7539 29.3633L22.5156 26.6016V25.5156H21.4395L18.6738 28.2852C18.0882 28.8703 17.1384 28.8702 16.5527 28.2852C15.9677 27.6995 15.9676 26.7497 16.5527 26.1641L17.1934 25.5215L16.1016 25.5234C15.2733 25.5245 14.6009 24.8536 14.5996 24.0254C14.5991 23.1974 15.2696 22.5245 16.0977 22.5234L17.1895 22.5215L16.5527 21.8848C15.9676 21.299 15.9674 20.3493 16.5527 19.7637C17.1383 19.1781 18.088 19.1785 18.6738 19.7637L21.4258 22.5156H22.5156V21.4473L19.7539 18.6855C19.1682 18.0998 19.1684 17.1503 19.7539 16.5645C20.3397 15.9787 21.2892 15.9787 21.875 16.5645L22.5156 17.2051V16.0996C22.5156 15.2712 23.1872 14.5996 24.0156 14.5996Z" fill="#FAFAFA"/>
<path fill-rule="evenodd" clip-rule="evenodd" d="M38.3086 4.00781C41.4789 4.16843 44 6.78979 44 10V38L43.9922 38.3086C43.8368 41.3767 41.3767 43.8368 38.3086 43.9922L38 44H10L9.69141 43.9922C6.62332 43.8368 4.16325 41.3767 4.00781 38.3086L4 38V10C4 6.78979 6.52111 4.16843 9.69141 4.00781L10 4H38L38.3086 4.00781ZM24 8C15.1634 8 8 15.1634 8 24C8 32.8366 15.1634 40 24 40C32.8366 40 40 32.8366 40 24C40 15.1634 32.8366 8 24 8Z" fill="#FAFAFA"/>
</svg>
