<svg width="48" height="48" viewBox="0 0 48 48" fill="none" xmlns="http://www.w3.org/2000/svg">
<path fill-rule="evenodd" clip-rule="evenodd" d="M25.3789 20.8681C24.8989 20.5321 24.3949 20.268 23.8909 20.076C23.3509 19.8601 22.7029 19.7521 21.9469 19.7521C21.1309 19.7521 20.4349 19.9321 19.8229 20.2801C19.1989 20.6401 18.7189 21.1201 18.3589 21.7441C18.0109 22.3441 17.8309 23.0401 17.8309 23.8561C17.8309 24.9601 18.1669 25.8241 18.7909 26.496C19.4509 27.1441 20.2549 27.4801 21.2749 27.4801C22.2949 27.4801 23.0389 27.2401 23.6749 26.7961C24.3349 26.3401 24.9109 25.764 25.3909 25.056V20.8681H25.3789Z" fill="#FAFAFA"/>
<path fill-rule="evenodd" clip-rule="evenodd" d="M23.6036 3.6001C12.5516 3.6001 3.59961 12.5521 3.59961 23.6041C3.59961 34.6561 12.5516 43.6081 23.6036 43.6081C34.6556 43.6081 43.6076 34.6561 43.6076 23.6041C43.6076 12.5521 34.6436 3.6001 23.6036 3.6001ZM29.6036 35.1001H15.5996C14.7716 35.1001 14.0996 34.4281 14.0996 33.6001C14.0996 32.7721 14.7716 32.1001 15.5996 32.1001H29.6036C30.4316 32.1001 31.1036 32.7721 31.1036 33.6001C31.1036 34.4281 30.4316 35.1001 29.6036 35.1001ZM29.6036 15.0961H28.1996V28.8361C28.1996 29.2081 28.0556 29.5321 27.8156 29.7961H27.8036L27.7916 29.8201C27.5156 30.0841 27.1676 30.1921 26.7956 30.1921C26.4236 30.1921 26.1116 30.0721 25.8356 29.8441L25.7996 29.8201L25.7756 29.7961C25.5356 29.5321 25.3916 29.2201 25.3916 28.8481C24.9956 29.1361 24.5636 29.3881 24.1076 29.5921C23.2436 30.0001 22.2956 30.2041 21.2636 30.2041C20.1116 30.2041 19.0556 29.9521 18.0956 29.4241C17.1596 28.8961 16.4036 28.1641 15.8396 27.2161C15.2876 26.2201 15.0236 25.1041 15.0236 23.8441C15.0236 22.5361 15.3116 21.3481 15.9116 20.3041C16.5236 19.2721 17.3516 18.4561 18.3956 17.8801C19.4636 17.2921 20.6516 17.0041 21.9476 17.0041C22.7756 17.0041 23.5436 17.1121 24.2516 17.3281C24.6356 17.4361 25.0196 17.5681 25.3916 17.7241V15.0721H23.6036C22.7756 15.0721 22.1036 14.4001 22.1036 13.5721C22.1036 12.7441 22.7756 12.0721 23.6036 12.0721H25.3916V10.3321C25.3916 9.9601 25.5236 9.6121 25.8116 9.3481H25.8236L25.8356 9.3241C26.1116 9.0961 26.4356 8.9761 26.7956 8.9761C27.1556 8.9761 27.5156 9.0961 27.7916 9.3481C28.0676 9.6121 28.2116 9.9601 28.2116 10.3321V12.0721H29.6156C30.4436 12.0721 31.1156 12.7441 31.1156 13.5721C31.1156 14.4001 30.4436 15.0721 29.6156 15.0721L29.6036 15.0961Z" fill="#FAFAFA"/>
</svg>
