<svg width="48" height="48" viewBox="0 0 48 48" fill="none" xmlns="http://www.w3.org/2000/svg">
<path d="M31.334 23.8281C35.8307 23.8287 39.4782 27.4739 39.4785 31.9707C39.4785 33.677 38.9497 35.2598 38.0527 36.5684L43.1152 41.6289C43.7004 42.2146 43.7004 43.1663 43.1152 43.752C42.5296 44.3375 41.578 44.3372 40.9922 43.752L35.9316 38.6895C34.6233 39.5864 33.0401 40.115 31.334 40.1152C26.837 40.1147 23.1914 36.4678 23.1914 31.9707C23.1918 27.4739 26.8372 23.8286 31.334 23.8281Z" fill="#FAFAFA"/>
<path d="M30.9453 3.80859C31.7737 3.80859 32.4453 4.48017 32.4453 5.30859V7.80859H34.9453C37.9829 7.80859 40.4453 10.271 40.4453 13.3086V20.3086C40.4453 21.137 39.7737 21.8086 38.9453 21.8086C38.117 21.8085 37.4453 21.1369 37.4453 20.3086V19.8086H7.44531V36.3086C7.44531 37.6892 8.56471 38.8085 9.94531 38.8086H20.9453C21.7737 38.8086 22.4453 39.4802 22.4453 40.3086C22.4453 41.137 21.7737 41.8086 20.9453 41.8086H9.94531C6.90786 41.8085 4.44531 39.3461 4.44531 36.3086V13.3086C4.44531 10.2711 6.90786 7.80873 9.94531 7.80859H12.4453V5.30859C12.4453 4.48025 13.117 3.80873 13.9453 3.80859C14.7737 3.80859 15.4453 4.48017 15.4453 5.30859V7.80859H29.4453V5.30859C29.4453 4.48025 30.117 3.80873 30.9453 3.80859Z" fill="#FAFAFA"/>
</svg>
