<svg width="48" height="48" viewBox="0 0 48 48" fill="none" xmlns="http://www.w3.org/2000/svg">
<g clip-path="url(#clip0_15463_972)">
<path d="M4.73472 34.4869C3.17459 32.454 2.40783 29.9226 2.57764 27.3657C2.74746 24.8087 3.84223 22.401 5.6575 20.5923C16.1845 10.0652 33.3142 10.0652 43.8413 20.5923C45.6565 22.401 46.7513 24.8087 46.9211 27.3657C47.0909 29.9226 46.3242 32.454 44.764 34.4869C44.3652 34.9967 43.8122 35.3638 43.1876 35.5334C42.563 35.7031 41.9002 35.6662 41.2983 35.4282L32.2469 31.9771L32.231 31.9612C31.7702 31.7791 31.3617 31.4857 31.042 31.1072C30.7223 30.7287 30.5013 30.2769 30.3987 29.7922C30.3868 29.7325 30.3788 29.6742 30.3722 29.6145L29.8604 23.582C26.8495 22.5571 22.6466 22.5757 19.6065 23.6244L19.1252 29.5973C19.1202 29.6556 19.1118 29.7136 19.1 29.7709C19.0023 30.26 18.7842 30.717 18.4655 31.1006C18.1467 31.4842 17.7373 31.7823 17.2744 31.9678L17.2492 31.9771L8.2044 35.4243C7.60239 35.6636 6.93908 35.7016 6.31366 35.5327C5.68823 35.3637 5.13431 34.9968 4.73472 34.4869Z" fill="#FAFAFA"/>
</g>
<defs>
<clipPath id="clip0_15463_972">
<rect width="48" height="48" fill="white"/>
</clipPath>
</defs>
</svg>
