<svg width="48" height="48" viewBox="0 0 48 48" fill="none" xmlns="http://www.w3.org/2000/svg">
<path d="M13.8391 6C12.7708 5.99998 11.8791 5.99996 11.1507 6.05948C10.3909 6.12156 9.67758 6.25578 9.00305 6.59947C7.96816 7.12677 7.12677 7.96816 6.59947 9.00305C6.25578 9.67758 6.12156 10.3909 6.05948 11.1507C5.99996 11.8791 5.99998 12.7708 6 13.8391V16L42 16V13.8391C42 12.7708 42 11.8791 41.9405 11.1507C41.8784 10.3909 41.7442 9.67758 41.4005 9.00305C40.8732 7.96816 40.0318 7.12677 38.9969 6.59947C38.3224 6.25578 37.6091 6.12156 36.8493 6.05948C36.1209 5.99996 35.2292 5.99998 34.1609 6H13.8391Z" fill="#FAFAFA"/>
<path d="M6 29V19L42 19V29L6 29Z" fill="#FAFAFA"/>
<path d="M6 32V34.1609C5.99998 35.2292 5.99996 36.1209 6.05948 36.8493C6.12156 37.6091 6.25578 38.3224 6.59947 38.9969C7.12677 40.0318 7.96816 40.8732 9.00305 41.4005C9.67758 41.7442 10.3909 41.8784 11.1507 41.9405C11.8791 42 12.7708 42 13.8391 42H34.1609C35.2292 42 36.1209 42 36.8493 41.9405C37.6091 41.8784 38.3224 41.7442 38.9969 41.4005C40.0318 40.8732 40.8732 40.0318 41.4005 38.9969C41.7442 38.3224 41.8784 37.6091 41.9405 36.8493C42 36.1209 42 35.2292 42 34.1609V32L6 32Z" fill="#FAFAFA"/>
</svg>
