<svg width="48" height="48" viewBox="0 0 48 48" fill="none" xmlns="http://www.w3.org/2000/svg">
<path d="M30.416 20C31.2438 20.0007 31.916 20.672 31.916 21.5V22.6016L32.5547 21.9648C33.1405 21.3793 34.0901 21.3791 34.6758 21.9648C35.2606 22.5506 35.2611 23.5005 34.6758 24.0859L31.916 26.8438V27.9121L33.0059 27.9102L35.7539 25.1641C36.3396 24.5787 37.2893 24.5787 37.875 25.1641C38.4603 25.7498 38.4604 26.6995 37.875 27.2852L37.2539 27.9043H38.3477C39.1753 27.9038 39.848 28.5747 39.8496 29.4023C39.8505 30.2303 39.1794 30.9027 38.3516 30.9043H37.2148L37.875 31.5645L37.9785 31.6777C38.4588 32.2668 38.4239 33.1364 37.875 33.6855C37.3262 34.2338 36.4581 34.2683 35.8691 33.7891L35.7539 33.6855L32.9805 30.9102L31.916 30.9121V32.0039L34.6758 34.7637L34.7793 34.8789C35.2583 35.4678 35.2239 36.336 34.6758 36.8848C34.1268 37.4338 33.2571 37.4684 32.668 36.9883L32.5547 36.8848L31.916 36.2461V37.3496C31.9155 38.1771 31.2435 38.8489 30.416 38.8496C29.5879 38.8496 28.9165 38.1776 28.916 37.3496V36.2422L28.2754 36.8848C27.6898 37.4703 26.7401 37.4699 26.1543 36.8848C25.5689 36.2989 25.5686 35.3493 26.1543 34.7637L28.916 32.002V30.916H27.8398L25.0742 33.6855C24.4886 34.2707 23.5388 34.2706 22.9531 33.6855C22.3681 33.0999 22.368 32.1501 22.9531 31.5645L23.5938 30.9219L22.502 30.9238C21.6737 30.9249 21.0013 30.254 21 29.4258C20.9994 28.5978 21.6699 27.9249 22.498 27.9238L23.5898 27.9219L22.9531 27.2852C22.368 26.6994 22.3678 25.7497 22.9531 25.1641C23.5387 24.5785 24.4884 24.5789 25.0742 25.1641L27.8262 27.916H28.916V26.8477L26.1543 24.0859C25.5686 23.5002 25.5688 22.5506 26.1543 21.9648C26.7401 21.3791 27.6896 21.3791 28.2754 21.9648L28.916 22.6055V21.5C28.916 20.6716 29.5876 20 30.416 20Z" fill="#FAFAFA"/>
<path fill-rule="evenodd" clip-rule="evenodd" d="M28 4C28.8922 4 29.7684 4.22974 30.5488 4.66016L38.0488 8.42383L38.1172 8.46094C38.915 8.9155 39.5788 9.57374 40.041 10.3672C40.503 11.1608 40.7484 12.0641 40.75 12.9824V22.3926C40.7499 23.0378 40.6261 23.6642 40.4023 24.248C40.2209 23.9181 39.9943 23.6059 39.7148 23.3262L39.7129 23.3242L39.4023 23.043C38.8745 22.6127 38.2635 22.335 37.6289 22.207C37.4743 21.4454 37.1049 20.7194 36.5156 20.1289L36.5137 20.127L36.2031 19.8457C35.4483 19.2298 34.5256 18.9251 33.6035 18.9277C32.8517 17.9978 31.7045 17.4015 30.418 17.4004C29.1285 17.4004 27.9782 17.997 27.2266 18.9277C26.1734 18.9247 25.12 19.3234 24.3164 20.127C23.7255 20.7181 23.3518 21.4447 23.1973 22.207C22.4344 22.3612 21.7072 22.7342 21.1152 23.3262C20.3104 24.1314 19.9114 25.1875 19.916 26.2422C18.9903 26.9952 18.3995 28.1432 18.4004 29.4277C18.4024 30.7091 18.9936 31.8528 19.916 32.6035C19.9107 33.6343 20.292 34.6648 21.0586 35.4629L19.2969 36.3457L19.2949 36.3438C18.5153 36.7729 17.6408 37.002 16.75 37.002C15.858 37.002 14.9815 36.774 14.2012 36.3438L6.70117 32.5801C6.67736 32.5681 6.65399 32.5542 6.63086 32.541C5.10859 31.6704 4.12863 30.1032 4.01172 28.3691L4 28.0195V18.6113L4.01172 18.2617C4.12836 16.529 5.10795 14.9604 6.62891 14.0879L6.70312 14.0488L25.4531 4.6582C26.2332 4.22832 27.1084 4 28 4ZM7 28.0195L7.01953 28.3125C7.10908 28.9751 7.49893 29.5712 8.09375 29.9219L15.25 33.5137V22.4043L7 18.6543V28.0195Z" fill="#FAFAFA"/>
</svg>
