<svg width="48" height="48" viewBox="0 0 48 48" fill="none" xmlns="http://www.w3.org/2000/svg">
<path d="M22.0392 6.42335C23.6929 5.23268 26 6.41444 26 8.45218V39.5477C26 41.5855 23.6929 42.7672 22.0392 41.5766L12.1706 34.4711C11.7451 34.1648 11.2341 34 10.7098 34H7.5C4.46243 34 2 31.5375 2 28.5V19.5C2 16.4624 4.46243 14 7.5 14H10.7098C11.2341 14 11.7451 13.8351 12.1706 13.5288L22.0392 6.42335Z" fill="#FAFAFA"/>
<path d="M32.8389 15.162C32.2531 14.5762 31.3033 14.5762 30.7175 15.162C30.1318 15.7478 30.1318 16.6975 30.7175 17.2833C32.4383 19.0041 33.5 21.3771 33.5 24.0008C33.5 26.6246 32.4383 28.9975 30.7175 30.7183C30.1318 31.3041 30.1318 32.2539 30.7175 32.8397C31.3033 33.4255 32.2531 33.4255 32.8389 32.8397C35.0993 30.5793 36.5 27.4522 36.5 24.0008C36.5 20.5495 35.0993 17.4224 32.8389 15.162Z" fill="#FAFAFA"/>
</svg>
