<svg width="48" height="48" viewBox="0 0 48 48" fill="none" xmlns="http://www.w3.org/2000/svg">
<path fill-rule="evenodd" clip-rule="evenodd" d="M42.375 24C42.375 24.8243 42.0881 25.6198 41.5703 26.252L41.3359 26.5117L26.5117 41.3359C25.8457 42.001 24.9431 42.3748 24.002 42.375C23.0604 42.375 22.1564 42.0012 21.4902 41.3359L6.66797 26.5137C5.36718 25.2129 5.2835 23.1533 6.42383 21.7578L6.66797 21.4883L21.4902 6.66406C22.1589 5.99627 23.0639 5.62695 24.002 5.62695C24.9432 5.62719 25.8457 6.00094 26.5117 6.66602L41.3359 21.4902C42.001 22.1562 42.3748 23.0588 42.375 24ZM31.625 25.0605C32.2108 24.4748 32.2108 23.5252 31.625 22.9395C31.0392 22.3538 30.0897 22.3537 29.5039 22.9395L25.502 26.9414V16.5C25.502 15.6716 24.8304 15 24.002 15C23.1736 15.0001 22.502 15.6716 22.502 16.5V26.9414L18.5 22.9395C17.9142 22.3538 16.9647 22.3537 16.3789 22.9395C15.7933 23.5252 15.7933 24.4748 16.3789 25.0605L22.9414 31.623C23.0051 31.6868 23.0751 31.7412 23.1465 31.791C23.2347 31.8526 23.329 31.9056 23.4297 31.9473C23.5303 31.9888 23.6344 32.0184 23.7402 32.0371C23.8253 32.0521 23.9126 32.0625 24.002 32.0625C24.0926 32.0625 24.1813 32.0525 24.2676 32.0371C24.3727 32.0183 24.4762 31.9887 24.5762 31.9473C24.6344 31.9231 24.6879 31.8904 24.7422 31.8594C24.8555 31.7946 24.9657 31.7198 25.0625 31.623L31.625 25.0605Z" fill="#FAFAFA"/>
</svg>
