<svg width="48" height="48" viewBox="0 0 48 48" fill="none" xmlns="http://www.w3.org/2000/svg">
<path d="M19.1641 15.5391H15.5156V12.2715H19.1641V15.5391Z" fill="#FAFAFA"/>
<path d="M25.8262 15.5391H22.1641V12.2715H25.8262V15.5391Z" fill="#FAFAFA"/>
<path d="M32.5156 15.5391H28.8262V12.2715H32.5156V15.5391Z" fill="#FAFAFA"/>
<path fill-rule="evenodd" clip-rule="evenodd" d="M34.498 4C37.5342 4.00158 39.998 6.46347 39.998 9.5V23.7734C39.5527 23.5677 39.0559 23.4515 38.5332 23.4512H34.5332C32.6002 23.4512 31.0333 25.0182 31.0332 26.9512C31.0334 27.5267 31.1737 28.07 31.4199 28.5488C28.8004 30.2329 27.0649 33.1734 27.0645 36.5195V36.5703L27.0742 36.9551L27.0762 36.9805V37.0059C27.221 39.8494 28.6201 42.3607 30.7305 44H13.5059C10.4683 44 8.00396 41.5375 8.00391 38.5V9.5C8.00397 6.46249 10.4683 4 13.5059 4H34.498ZM14.0156 31C13.1877 31.0005 12.5157 31.672 12.5156 32.5V36.5C12.5159 37.3279 13.1878 37.9995 14.0156 38C14.843 37.9989 15.5153 37.3275 15.5156 36.5V32.5C15.5156 31.6723 14.8431 31.0011 14.0156 31ZM20.1211 31C19.2931 31.0005 18.6212 31.6719 18.6211 32.5V36.5C18.6214 37.3279 19.2932 37.9995 20.1211 38C20.9485 37.9989 21.6208 37.3275 21.6211 36.5V32.5C21.621 31.6723 20.9486 31.0011 20.1211 31ZM14.0156 20.002C13.1878 20.0025 12.5159 20.6741 12.5156 21.502C12.5157 22.33 13.1877 23.0014 14.0156 23.002H34.0156C34.8431 23.0009 35.5156 22.3297 35.5156 21.502C35.5153 20.6744 34.843 20.003 34.0156 20.002H14.0156ZM14.416 9.27148C13.3673 9.27201 12.5159 10.1231 12.5156 11.1719V16.6387C12.5162 17.6872 13.3674 18.5385 14.416 18.5391H33.6152C34.6634 18.538 35.5151 17.6869 35.5156 16.6387V11.1719C35.5154 10.1234 34.6635 9.27254 33.6152 9.27148H14.416Z" fill="#FAFAFA"/>
<path fill-rule="evenodd" clip-rule="evenodd" d="M39.5332 25.8008C40.3611 25.8013 41.0331 26.4727 41.0332 27.3008C41.0327 28.1285 40.3609 28.8003 39.5332 28.8008H39.0312V29.2129C42.4371 29.9072 45.0015 32.9207 45.002 36.5312L44.9922 36.916C44.7917 40.8611 41.528 43.9992 37.5332 44L37.1484 43.9902C33.33 43.7967 30.2682 40.7343 30.0742 36.916L30.0645 36.5312C30.0649 32.9215 32.6267 29.9082 36.0312 29.2129V28.8008H35.5332C34.7051 28.8008 34.0337 28.1288 34.0332 27.3008C34.0333 26.4724 34.7048 25.8008 35.5332 25.8008H39.5332ZM37.5332 34.0312C36.1528 34.0312 35.0337 35.151 35.0332 36.5312C35.0332 37.912 36.1525 39.0312 37.5332 39.0312C38.9135 39.0307 40.0332 37.9116 40.0332 36.5312C40.0327 35.1513 38.9131 34.0318 37.5332 34.0312Z" fill="#FAFAFA"/>
</svg>
