<svg width="48" height="48" viewBox="0 0 48 48" fill="none" xmlns="http://www.w3.org/2000/svg">
<path fill-rule="evenodd" clip-rule="evenodd" d="M13.8391 6L34.1609 6C35.2292 5.99998 36.1209 5.99996 36.8493 6.05948C37.6091 6.12156 38.3224 6.25578 38.9969 6.59947C40.0318 7.12677 40.8732 7.96816 41.4005 9.00305C41.7442 9.67758 41.8784 10.3909 41.9405 11.1507C42 11.8791 42 12.7708 42 13.8391V26.5C42 27.3284 41.3284 28 40.5 28C39.6716 28 39 27.3284 39 26.5V13.9C39 12.7551 38.9988 11.9867 38.9505 11.395C38.9036 10.8207 38.8198 10.5461 38.7275 10.365C38.4878 9.89462 38.1054 9.51217 37.635 9.27249C37.4539 9.1802 37.1793 9.09644 36.605 9.04952C36.0133 9.00117 35.2449 9 34.1 9L13.9 9C12.7551 9 11.9867 9.00117 11.395 9.04952C10.8207 9.09643 10.5461 9.1802 10.365 9.27248C9.89462 9.51217 9.51217 9.89462 9.27249 10.365C9.1802 10.5461 9.09644 10.8207 9.04952 11.395C9.00117 11.9867 9 12.7551 9 13.9L9 34.1C9 35.2449 9.00117 36.0133 9.04952 36.605C9.09643 37.1793 9.1802 37.4539 9.27248 37.635C9.51217 38.1054 9.89462 38.4878 10.365 38.7275C10.5461 38.8198 10.8207 38.9036 11.395 38.9505C11.9867 38.9988 12.7551 39 13.9 39H26.5C27.3284 39 28 39.6716 28 40.5C28 41.3284 27.3284 42 26.5 42H13.8391C12.7708 42 11.8791 42 11.1507 41.9405C10.3909 41.8784 9.67758 41.7442 9.00306 41.4005C7.96816 40.8732 7.12677 40.0318 6.59947 38.9969C6.25578 38.3224 6.12156 37.6091 6.05948 36.8493C5.99996 36.1209 5.99998 35.2292 6 34.1609L6 13.8391C5.99998 12.7708 5.99996 11.8791 6.05948 11.1507C6.12156 10.3909 6.25578 9.67758 6.59947 9.00305C7.12677 7.96816 7.96816 7.12677 9.00305 6.59947C9.67758 6.25578 10.3909 6.12156 11.1507 6.05948C11.8791 5.99996 12.7708 5.99998 13.8391 6Z" fill="#FAFAFA"/>
<path d="M36.1443 34.0533C36.6249 34.6425 36.59 35.5119 36.0408 36.0611C35.4916 36.6103 34.6221 36.6453 34.033 36.1646L33.9197 36.0611L17.4302 19.5061C16.8444 18.9203 16.8444 17.9708 17.4302 17.385C18.016 16.7992 18.9655 16.7992 19.5513 17.385L36.0408 33.94L36.1443 34.0533Z" fill="#FAFAFA"/>
<path d="M36.4783 34.9986L36.4705 35.1529C36.3933 35.9088 35.7545 36.4985 34.9783 36.4986L22.9802 36.5006C22.3736 36.5006 21.8257 36.1353 21.5935 35.5748C21.3614 35.0143 21.4907 34.369 21.9197 33.94L33.9197 21.94C34.3486 21.5111 34.994 21.3818 35.5545 21.6139C36.1149 21.8461 36.4802 22.3939 36.4802 23.0006L36.4783 34.9986Z" fill="#FAFAFA"/>
</svg>
