<svg width="48" height="48" viewBox="0 0 48 48" fill="none" xmlns="http://www.w3.org/2000/svg">
<path d="M22.7756 26.8683V38.4875L17.8205 36.2414C17.0662 35.899 16.1766 36.2332 15.8342 36.9875C15.4926 37.7414 15.8268 38.6293 16.5803 38.9718L23.6565 42.1847C23.6639 42.1881 23.6724 42.1893 23.6799 42.1925C23.6922 42.1979 23.7046 42.2032 23.717 42.2082C23.7955 42.2397 23.8756 42.2646 23.9573 42.2824C24.06 42.3046 24.1662 42.3195 24.2756 42.3195L24.2776 42.3175H24.2873C24.3869 42.3168 24.4843 42.3075 24.5784 42.2882C24.6696 42.2695 24.7586 42.2402 24.8459 42.2043C24.8532 42.2013 24.8602 42.1976 24.8674 42.1945C24.8768 42.1905 24.8874 42.189 24.8967 42.1847L43.3557 33.7922C43.3597 33.7905 43.3634 33.788 43.3674 33.7863L43.3967 33.7746C43.4708 33.7409 43.5413 33.7016 43.6077 33.6574C43.6173 33.651 43.6256 33.6425 43.635 33.6359C43.698 33.5918 43.7559 33.5421 43.8108 33.4894C43.8281 33.4728 43.8451 33.456 43.8616 33.4386C43.9803 33.3133 44.0792 33.1707 44.1487 33.0129C44.159 32.9894 44.1669 32.9647 44.176 32.9406C44.1991 32.8797 44.2176 32.817 44.2327 32.7531C44.2401 32.7214 44.2487 32.6898 44.2541 32.6574C44.2573 32.6387 44.2595 32.6197 44.262 32.6007C44.2699 32.5381 44.2756 32.4742 44.2756 32.4093V16.6125L22.7756 26.8683Z" fill="#FAFAFA"/>
<path d="M18.1682 27.4543C17.7539 26.737 16.8367 26.4913 16.1194 26.9054L7.6018 31.8214L8.45531 28.6359C8.66939 27.8359 8.19477 27.0124 7.39476 26.798C6.59535 26.5844 5.77369 27.0595 5.55883 27.8586L3.76781 34.5422C3.72419 34.7051 3.71634 34.8691 3.7268 35.0285C3.72877 35.0596 3.72674 35.0911 3.7307 35.1222C3.74488 35.2318 3.77159 35.3381 3.80883 35.4406C3.83838 35.5221 3.87339 35.6031 3.9182 35.6808C3.99439 35.8128 4.09358 35.9238 4.19945 36.0226C4.23414 36.055 4.26703 36.0892 4.30492 36.1183C4.33674 36.1428 4.37105 36.1631 4.40453 36.1847C4.53278 36.2677 4.67288 36.3383 4.82836 36.38L11.512 38.1711C12.3116 38.3849 13.1332 37.9099 13.3479 37.1105C13.5623 36.3103 13.0875 35.4871 12.2873 35.2726L9.1057 34.4191L17.6194 29.5031C18.3368 29.0889 18.5823 28.1717 18.1682 27.4543Z" fill="#FAFAFA"/>
<path d="M24.8967 5.81559C24.5023 5.63634 24.0489 5.63634 23.6545 5.81559L5.15453 14.2257L5.09594 14.255C5.05978 14.2734 5.0245 14.2928 4.99047 14.3136C4.98156 14.3191 4.97194 14.3236 4.96312 14.3293C4.95296 14.3358 4.9438 14.344 4.93383 14.3507C4.91218 14.3654 4.89202 14.382 4.87133 14.3976C4.72812 14.5062 4.60842 14.6378 4.5139 14.7863C4.50605 14.7986 4.49795 14.8109 4.49047 14.8234C4.39896 14.9769 4.33524 15.1455 4.30297 15.3234C4.30107 15.3338 4.29879 15.3442 4.29711 15.3547C4.28473 15.4323 4.27562 15.5111 4.27562 15.591V21.425C4.27609 22.253 4.94749 22.925 5.77562 22.925C6.60376 22.925 7.27515 22.253 7.27562 21.425V17.9191L21.2541 24.2726L42.844 13.9718L24.8967 5.81559Z" fill="#FAFAFA"/>
</svg>
