<svg width="48" height="48" viewBox="0 0 48 48" fill="none" xmlns="http://www.w3.org/2000/svg">
<path d="M12.5 15C13.8807 15 15 13.8807 15 12.5C15 11.1193 13.8807 10 12.5 10C11.1193 10 10 11.1193 10 12.5C10 13.8807 11.1193 15 12.5 15Z" fill="#FAFAFA"/>
<path fill-rule="evenodd" clip-rule="evenodd" d="M9.5 4C6.46243 4 4 6.46243 4 9.5V26.5C4 29.5376 6.46243 32 9.5 32H16V38.5C16 41.5376 18.4624 44 21.5 44H38.5C41.5376 44 44 41.5376 44 38.5V21.5C44 18.4624 41.5376 16 38.5 16H32V9.5C32 6.46243 29.5376 4 26.5 4H9.5ZM29 16V9.5C29 8.11929 27.8807 7 26.5 7H9.5C8.11929 7 7 8.11929 7 9.5V21.5282L8.94526 20.2313C10.7927 18.9997 13.1995 18.9997 15.047 20.2313L16.0335 20.8891C16.3375 18.139 18.6689 16 21.5 16H29ZM16 24.4722L13.3829 22.7275C12.5431 22.1677 11.4491 22.1677 10.6094 22.7275L7 25.1337V26.5C7 27.8807 8.11929 29 9.5 29H16V24.4722ZM26 34.119V25.881C26 24.6674 27.366 23.9562 28.3602 24.6521L34.2445 28.7712C35.0976 29.3683 35.0976 30.6317 34.2445 31.2288L28.3602 35.3479C27.366 36.0438 26 35.3326 26 34.119Z" fill="#FAFAFA"/>
</svg>
