<svg width="48" height="48" viewBox="0 0 48 48" fill="none" xmlns="http://www.w3.org/2000/svg">
<path d="M31.5 15.5C31.5 14.6716 30.8284 14 30 14C29.1716 14 28.5 14.6716 28.5 15.5C28.5 20.3516 27.4282 23.5025 25.4654 25.4654C23.5025 27.4282 20.3516 28.5 15.5 28.5C14.6716 28.5 14 29.1716 14 30C14 30.8284 14.6716 31.5 15.5 31.5C20.3516 31.5 23.5025 32.5718 25.4654 34.5346C27.4282 36.4975 28.5 39.6484 28.5 44.5C28.5 45.3284 29.1716 46 30 46C30.8284 46 31.5 45.3284 31.5 44.5C31.5 39.6484 32.5718 36.4975 34.5346 34.5346C36.4975 32.5718 39.6484 31.5 44.5 31.5C45.3284 31.5 46 30.8284 46 30C46 29.1716 45.3284 28.5 44.5 28.5C39.6484 28.5 36.4975 27.4282 34.5346 25.4654C32.5718 23.5025 31.5 20.3516 31.5 15.5Z" fill="#FAFAFA"/>
<path d="M14.5 3.5C14.5 2.67157 13.8284 2 13 2C12.1716 2 11.5 2.67157 11.5 3.5C11.5 6.61551 10.8102 8.51642 9.6633 9.6633C8.51642 10.8102 6.61551 11.5 3.5 11.5C2.67157 11.5 2 12.1716 2 13C2 13.8284 2.67157 14.5 3.5 14.5C6.61551 14.5 8.51642 15.1898 9.6633 16.3367C10.8102 17.4836 11.5 19.3845 11.5 22.5C11.5 23.3284 12.1716 24 13 24C13.8284 24 14.5 23.3284 14.5 22.5C14.5 19.3845 15.1898 17.4836 16.3367 16.3367C17.4836 15.1898 19.3845 14.5 22.5 14.5C23.3284 14.5 24 13.8284 24 13C24 12.1716 23.3284 11.5 22.5 11.5C19.3845 11.5 17.4836 10.8102 16.3367 9.6633C15.1898 8.51642 14.5 6.61551 14.5 3.5Z" fill="#FAFAFA"/>
</svg>
