<svg width="48" height="48" viewBox="0 0 48 48" fill="none" xmlns="http://www.w3.org/2000/svg">
<path d="M25.7891 25.145V42.1606C25.7891 42.1892 25.7914 42.2184 25.793 42.2466L10.9863 33.9673C10.5672 33.7325 10.3067 33.2895 10.3066 32.8091V27.6157C10.6721 27.7135 11.0665 27.6736 11.4082 27.4888L20.8594 22.3716L25.7891 25.145ZM44 31.5181L40.8164 29.7563C40.0916 29.3552 39.1785 29.6175 38.7773 30.3423C38.3762 31.0671 38.6385 31.9802 39.3633 32.3813L42.7734 34.2681L28.7891 42.0063V26.7017L30.5254 27.5767C31.2654 27.9491 32.1686 27.6507 32.541 26.9106C32.9125 26.1711 32.6141 25.2694 31.875 24.897L30.4922 24.2017L44 16.6821V31.5181ZM35.4297 26.8657C34.6897 26.4936 33.7884 26.7918 33.416 27.5317C33.044 28.2717 33.3422 29.1731 34.082 29.5454L35.8594 30.4399C36.5993 30.8123 37.5006 30.5138 37.873 29.7739C38.2452 29.034 37.9469 28.1326 37.207 27.7603L35.4297 26.8657ZM17.7695 20.6333L12.2559 23.6157V17.5298L17.7695 20.6333ZM9.25586 15.8833V23.5649L5.5 21.3286V13.8423L9.25586 15.8833ZM25.7891 9.06104C25.7895 9.8891 26.4609 10.561 27.2891 10.561C28.1171 10.5609 28.7886 9.88903 28.7891 9.06104V6.84619L42.1836 14.2583L28.7891 21.7153V21.5845C28.7887 20.7563 28.1173 20.0845 27.2891 20.0845C26.4609 20.0845 25.7894 20.7563 25.7891 21.5845V21.7017L22.4395 19.8169V9.34229C22.4395 9.07439 22.3651 8.81793 22.2363 8.59424L25.7891 6.60986V9.06104ZM27.2891 12.0337C26.4606 12.0337 25.7891 12.7053 25.7891 13.5337V17.1118C25.7892 17.9401 26.4607 18.6118 27.2891 18.6118C28.1174 18.6118 28.7889 17.9401 28.7891 17.1118V13.5337C28.7891 12.7053 28.1175 12.0337 27.2891 12.0337ZM19.4395 18.1294L14.0156 15.0786C13.9555 15.0329 13.8926 14.9889 13.8242 14.9517L13.7988 14.938L19.2109 11.8149C19.2938 11.767 19.3694 11.7112 19.4395 11.6509V18.1294ZM17.5391 9.31494L10.709 13.2583L7.07812 11.2856L13.8008 7.44385L17.5391 9.31494Z" fill="#FAFAFA"/>
</svg>
