<svg width="48" height="48" viewBox="0 0 48 48" fill="none" xmlns="http://www.w3.org/2000/svg">
<path d="M40.3281 31.377C41.1135 31.1161 41.9627 31.5409 42.2246 32.3262C42.4859 33.1117 42.0607 33.9625 41.2754 34.2246L16.0762 42.623C15.2907 42.8849 14.4402 42.4609 14.1777 41.6758C13.9158 40.8899 14.3411 40.0394 15.127 39.7773L40.3281 31.377Z" fill="#FAFAFA"/>
<path fill-rule="evenodd" clip-rule="evenodd" d="M13.1992 16.9004C15.5066 16.9004 17.72 17.8177 19.3516 19.4492C20.9827 21.0805 21.9002 23.2927 21.9004 25.5996C21.9003 26.6704 21.5383 27.836 21.0781 28.918C20.6054 30.0291 19.9659 31.1947 19.2852 32.3086C17.9226 34.538 16.3179 36.6755 15.3262 37.9434C15.0738 38.2664 14.7514 38.5273 14.3828 38.707C14.0135 38.8872 13.6087 38.9824 13.1992 38.9824C12.7899 38.9823 12.3848 38.8892 12.0156 38.709C11.6477 38.5294 11.3243 38.2678 11.0723 37.9453C10.0809 36.6771 8.47803 34.5381 7.11523 32.3086C6.43445 31.1948 5.795 30.029 5.32227 28.918C4.86203 27.8361 4.50011 26.6705 4.5 25.5996C4.50021 23.2926 5.41759 21.0805 7.04883 19.4492C8.6802 17.8178 10.8921 16.9006 13.1992 16.9004ZM13.1992 23.5C12.0397 23.5002 11.0998 24.4402 11.0996 25.5996C11.0996 26.7592 12.0396 27.699 13.1992 27.6992C14.359 27.6992 15.2988 26.7594 15.2988 25.5996C15.2986 24.44 14.3589 23.5 13.1992 23.5Z" fill="#FAFAFA"/>
<path fill-rule="evenodd" clip-rule="evenodd" d="M36 9.69922C37.9892 9.69922 39.8962 10.492 41.3027 11.8984C42.7088 13.3049 43.5 15.2123 43.5 17.2012C43.4998 18.1801 43.1527 19.3109 42.7363 20.3574C42.3031 21.4462 41.721 22.6223 41.1094 23.75C39.8841 26.0089 38.4816 28.1862 37.752 29.2871C37.5606 29.5756 37.2991 29.8143 36.9922 29.9785L36.9902 29.9766C36.6852 30.1398 36.3449 30.2266 36 30.2266C35.6549 30.2264 35.3149 30.1401 35.0098 29.9766C34.7027 29.8124 34.4414 29.5757 34.25 29.2871C33.5205 28.1871 32.1182 26.0121 30.8926 23.7539C30.2804 22.626 29.6972 21.4491 29.2637 20.3594C28.847 19.312 28.5002 18.1814 28.5 17.2012C28.5 15.2123 29.2912 13.3049 30.6973 11.8984C32.1038 10.492 34.0108 9.69922 36 9.69922ZM36 15.0996C34.8407 15.0998 33.9009 16.0399 33.9004 17.1992C33.9004 18.3589 34.8404 19.2986 36 19.2988C37.1598 19.2988 38.0996 18.359 38.0996 17.1992C38.0991 16.0398 37.1595 15.0996 36 15.0996Z" fill="#FAFAFA"/>
<path d="M25.1543 24.7773C25.5322 24.0403 26.4347 23.7492 27.1719 24.127L30.6719 25.9199C31.4085 26.298 31.6999 27.2025 31.3223 27.9395C30.9443 28.6761 30.0397 28.9673 29.3027 28.5898L25.8047 26.7949C25.0675 26.4171 24.7765 25.5145 25.1543 24.7773Z" fill="#FAFAFA"/>
<path fill-rule="evenodd" clip-rule="evenodd" d="M19.1992 4.90039C21.1883 4.90039 23.0954 5.69122 24.502 7.09766C25.9083 8.50415 26.6992 10.4113 26.6992 12.4004C26.6992 12.485 26.692 12.5709 26.6777 12.6543C26.267 15.0535 25.3765 17.3467 24.0605 19.3945C23.7911 19.8128 23.3315 20.0705 22.834 20.082C22.3362 20.0933 21.8645 19.8571 21.5762 19.4512C20.5464 18.0001 17.4101 15.0996 13.3828 15.0996C12.7136 15.0992 12.1255 14.6552 11.9414 14.0117C11.7952 13.5 11.7131 12.9715 11.6992 12.4395C11.6989 12.4266 11.6992 12.4132 11.6992 12.4004C11.6992 10.4115 12.4903 8.50413 13.8965 7.09766C15.3029 5.69124 17.2103 4.90051 19.1992 4.90039ZM19.1992 10.3008C18.0399 10.3012 17.0998 11.241 17.0996 12.4004C17.1001 13.5595 18.0401 14.4996 19.1992 14.5C20.3587 14.5 21.2983 13.5597 21.2988 12.4004C21.2986 11.3132 20.4728 10.4181 19.4141 10.3105L19.1992 10.3008Z" fill="#FAFAFA"/>
</svg>
