<svg width="48" height="48" viewBox="0 0 48 48" fill="none" xmlns="http://www.w3.org/2000/svg">
<path fill-rule="evenodd" clip-rule="evenodd" d="M22.8143 10.5586C23.3113 10.5549 23.7989 10.7024 24.2107 10.9805C24.6226 11.259 24.943 11.6564 25.1248 12.1191L25.4627 12.9648C25.2136 13.7697 25.035 14.6658 25.035 15.5977L25.0467 16.082C25.2946 20.9633 29.2622 24.8606 34.1717 25.002L34.1502 28.0547V28.5742L35.9959 30.8633C36.3053 31.2522 36.49 31.7269 36.5252 32.2227C36.5467 32.5316 36.5019 32.8384 36.41 33.1309C36.3921 33.1886 36.3774 33.2483 36.3553 33.3047C36.3438 33.3333 36.3268 33.3605 36.3143 33.3887C36.2789 33.4696 36.2452 33.5537 36.201 33.6309H36.1971L36.1932 33.6426L35.2088 35.3652C34.9646 35.787 34.5995 36.1272 34.1619 36.3418C33.7242 36.5562 33.2309 36.6356 32.7479 36.5703L29.8436 36.1289L26.2518 38.1953L25.1932 40.9258C25.0147 41.3876 24.7008 41.7875 24.2928 42.0684C23.885 42.3484 23.4008 42.4983 22.9061 42.5H20.8397C20.3447 42.4984 19.8589 42.3484 19.451 42.0684C19.0432 41.7875 18.7291 41.3874 18.5506 40.9258L17.492 38.1953L16.2147 37.459L16.2127 37.4609L14.7088 36.5938L13.9002 36.1289L10.9998 36.582C10.5086 36.6557 10.0053 36.5783 9.5584 36.3613C9.11192 36.1437 8.73933 35.7953 8.49395 35.3633L7.49395 33.6484C7.25095 33.2262 7.13885 32.7399 7.17168 32.2539C7.20481 31.7674 7.38331 31.2999 7.68145 30.9141L9.11114 29.125L9.51543 28.6113L9.52129 24.4766L7.68536 22.1953C7.37495 21.8103 7.18781 21.3389 7.14825 20.8457C7.10928 20.352 7.22036 19.8556 7.46661 19.4258L8.48614 17.6484C8.67088 17.3294 8.92457 17.0562 9.22637 16.8496C9.33428 16.7749 9.44868 16.7074 9.56817 16.6504C10.0155 16.4375 10.5184 16.365 11.0076 16.4414L13.8553 16.8828L16.9217 15.1406L17.4881 14.8145L18.2889 12.7617L18.5506 12.0879C18.5536 12.0801 18.5591 12.073 18.5623 12.0664C18.7479 11.6202 19.0595 11.2365 19.4607 10.9668C19.8655 10.6949 20.3442 10.5475 20.8318 10.5469L22.8143 10.5586ZM21.8357 22.3184C19.1823 22.3191 17.0311 24.4714 17.0311 27.125C17.0316 29.7782 19.1826 31.9289 21.8357 31.9297C24.4895 31.9297 26.6419 29.7786 26.6424 27.125C26.6424 24.4709 24.4898 22.3184 21.8357 22.3184Z" fill="#FAFAFA"/>
<path d="M34.4471 5.5C34.8217 5.5 35.1803 5.64129 35.4549 5.89062L35.5877 6.02344C35.5984 6.03561 35.6132 6.05396 35.6326 6.07617C35.6717 6.12097 35.7281 6.187 35.7986 6.26953C35.9398 6.43466 36.1401 6.6716 36.3787 6.96484C36.8552 7.5505 37.4931 8.36896 38.1346 9.29102C38.7725 10.2081 39.4338 11.2582 39.9412 12.3047C40.4313 13.3157 40.8592 14.4856 40.8592 15.5977C40.8587 18.9791 38.2413 21.7475 34.9217 21.9902C34.9132 21.9909 34.9048 21.9916 34.8963 21.9922C34.748 22.0024 34.598 22.0098 34.4471 22.0098C34.284 22.0097 34.1227 22.0003 33.9627 21.9883C33.8001 21.9761 33.6392 21.9596 33.4803 21.9355C33.458 21.9322 33.436 21.9274 33.4139 21.9238C33.2322 21.8944 33.053 21.8589 32.8768 21.8145C32.8223 21.8007 32.7686 21.7846 32.7147 21.7695C32.665 21.7556 32.6154 21.7417 32.5662 21.7266C32.3855 21.6711 32.2085 21.6077 32.035 21.5371C32.0241 21.5327 32.0126 21.5299 32.0018 21.5254C31.6971 21.3995 31.4076 21.2455 31.1287 21.0762C31.0529 21.0301 30.9759 20.9865 30.9022 20.9375C30.8333 20.8917 30.7679 20.8413 30.701 20.793C30.6013 20.7209 30.5013 20.6498 30.4061 20.5723C30.3369 20.516 30.2716 20.4555 30.2049 20.3965C30.1223 20.3234 30.0394 20.251 29.9607 20.1738C29.8943 20.1086 29.8329 20.0387 29.7693 19.9707C29.6938 19.8899 29.6161 19.8112 29.5447 19.7266C29.4834 19.6539 29.427 19.5774 29.3689 19.502C29.3045 19.4183 29.2398 19.3349 29.1795 19.248C29.1229 19.1665 29.0703 19.0823 29.0174 18.998C28.9617 18.9093 28.9067 18.8201 28.8553 18.7285C28.7743 18.5843 28.6966 18.438 28.6268 18.2871C28.6195 18.2715 28.6124 18.2559 28.6053 18.2402C28.5299 18.0739 28.4614 17.904 28.4002 17.7305C28.3911 17.7047 28.3836 17.6783 28.3748 17.6523C28.3202 17.4909 28.2702 17.3271 28.2283 17.1602C28.2137 17.1019 28.2003 17.0433 28.1873 16.9844C28.1533 16.8301 28.1241 16.6739 28.1014 16.5156C28.0945 16.4676 28.0877 16.4195 28.0818 16.3711C28.0762 16.3244 28.0708 16.2775 28.0662 16.2305C28.0547 16.1135 28.0459 15.9957 28.0408 15.877C28.0368 15.7843 28.035 15.6913 28.035 15.5977C28.035 14.4857 28.4629 13.3156 28.9529 12.3047C29.4603 11.2583 30.1217 10.208 30.7596 9.29102C31.4009 8.36914 32.039 7.55051 32.5154 6.96484C32.7538 6.67181 32.9543 6.43468 33.0955 6.26953C33.166 6.18708 33.2224 6.121 33.2615 6.07617C33.281 6.05389 33.2976 6.03569 33.3084 6.02344C33.3133 6.01791 33.3172 6.01307 33.3201 6.00977L33.4393 5.89062C33.7137 5.6412 34.0725 5.50019 34.4471 5.5Z" fill="#FAFAFA"/>
</svg>
