<svg width="48" height="48" viewBox="0 0 48 48" fill="none" xmlns="http://www.w3.org/2000/svg">
<path d="M27.3047 34.5293C28.1167 34.367 28.9075 34.8932 29.0703 35.7051L30.2695 41.7051C30.3577 42.1457 30.2438 42.6037 29.959 42.9512C29.6741 43.2985 29.2481 43.5 28.7988 43.5H19.1992C18.7498 43.5 18.324 43.2987 18.0391 42.9512C17.7542 42.6036 17.6404 42.1457 17.7285 41.7051L18.9277 35.7051C19.0905 34.8932 19.8813 34.3669 20.6934 34.5293C21.5056 34.6918 22.0315 35.4827 21.8691 36.2949L21.0293 40.5H26.9688L26.1289 36.2949C25.9665 35.4827 26.4926 34.6919 27.3047 34.5293Z" fill="#FAFAFA"/>
<path d="M24 35.1016L23.8457 35.0938C23.8292 35.0921 23.8132 35.0862 23.7969 35.084C23.8639 35.0934 23.9315 35.1016 24 35.1016Z" fill="#FAFAFA"/>
<path d="M23.1172 34.8066C23.0554 34.7613 22.9935 34.7162 22.9395 34.6621L22.9258 34.6465C22.9844 34.7066 23.0504 34.7576 23.1172 34.8066Z" fill="#FAFAFA"/>
<path d="M25.5 15.3945C26.8349 15.568 28.1418 16.0085 29.2129 16.916C30.7329 18.2043 31.5 20.1878 31.5 22.8008C31.4998 24.2615 31.033 25.7405 30.4258 27.0684C29.8116 28.4111 29.0071 29.7007 28.2246 30.8066C27.4394 31.9165 26.657 32.871 26.0723 33.5469C25.7793 33.8855 25.5331 34.1577 25.3594 34.3457C25.2728 34.4393 25.2026 34.5136 25.1543 34.5645C25.1307 34.5893 25.1109 34.6093 25.0977 34.623C25.0915 34.6294 25.0858 34.6348 25.082 34.6387L25.0781 34.6445L25.0762 34.6465C25.0726 34.6501 25.068 34.6527 25.0645 34.6562C25.3331 34.3854 25.4996 34.013 25.5 33.6016V15.3945Z" fill="#FAFAFA"/>
<path d="M22.5 33.6016C22.5004 34.0081 22.6629 34.3764 22.9258 34.6465L22.9219 34.6445L22.918 34.6387C22.9142 34.6348 22.9085 34.6294 22.9023 34.623C22.8891 34.6093 22.8693 34.5893 22.8457 34.5645C22.7974 34.5136 22.7272 34.4393 22.6406 34.3457C22.4669 34.1577 22.2207 33.8855 21.9277 33.5469C21.343 32.871 20.5606 31.9165 19.7754 30.8066C18.9929 29.7007 18.1884 28.4111 17.5742 27.0684C16.967 25.7405 16.5002 24.2615 16.5 22.8008C16.5 20.1888 17.2677 18.2064 18.7871 16.918C19.8582 16.0103 21.165 15.5685 22.5 15.3945V33.6016Z" fill="#FAFAFA"/>
<path d="M6.81445 18.9102C7.87319 19.0177 8.69902 19.9129 8.69922 21C8.69896 22.1595 7.75928 23.0996 6.59961 23.0996C5.44014 23.0994 4.50026 22.1594 4.5 21C4.50021 19.8405 5.44013 18.9006 6.59961 18.9004L6.81445 18.9102Z" fill="#FAFAFA"/>
<path d="M12.8145 18.9102C13.8732 19.0177 14.699 19.9129 14.6992 21C14.699 22.1595 13.7593 23.0996 12.5996 23.0996C11.4401 23.0994 10.5003 22.1594 10.5 21C10.5002 19.8405 11.4401 18.9006 12.5996 18.9004L12.8145 18.9102Z" fill="#FAFAFA"/>
<path d="M35.6152 18.9102C36.6739 19.0177 37.4998 19.9129 37.5 21C37.4997 22.1596 36.56 23.0996 35.4004 23.0996C34.2409 23.0994 33.301 22.1594 33.3008 21C33.301 19.8405 34.2409 18.9006 35.4004 18.9004L35.6152 18.9102Z" fill="#FAFAFA"/>
<path d="M41.6152 18.9102C42.6739 19.0177 43.4998 19.9129 43.5 21C43.4997 22.1596 42.56 23.0996 41.4004 23.0996C40.2409 23.0994 39.301 22.1594 39.3008 21C39.301 19.8405 40.2409 18.9006 41.4004 18.9004L41.6152 18.9102Z" fill="#FAFAFA"/>
<path d="M16.4141 11.7109C17.4728 11.8185 18.2986 12.7137 18.2988 13.8008C18.2983 14.9601 17.3587 15.9004 16.1992 15.9004C15.0399 15.9002 14.1001 14.96 14.0996 13.8008C14.0998 12.6413 15.0397 11.7014 16.1992 11.7012L16.4141 11.7109Z" fill="#FAFAFA"/>
<path d="M32.0137 11.7109C33.0724 11.8185 33.8982 12.7137 33.8984 13.8008C33.8979 14.9602 32.9583 15.9004 31.7988 15.9004C30.6396 15.9002 29.6997 14.96 29.6992 13.8008C29.6994 12.6413 30.6394 11.7014 31.7988 11.7012L32.0137 11.7109Z" fill="#FAFAFA"/>
<path d="M24 11.6992C24.8284 11.6992 25.5 12.3727 25.5 13.2012V15.3945C25.0002 15.3296 24.4968 15.3008 24 15.3008C23.5032 15.3008 22.9997 15.3294 22.5 15.3945V13.2012C22.5 12.3727 23.1716 11.6992 24 11.6992Z" fill="#FAFAFA"/>
<path d="M10.4141 6.91016C11.4728 7.01772 12.2986 7.91289 12.2988 9C12.2986 10.1596 11.3589 11.0996 10.1992 11.0996C9.03976 11.0994 8.09987 10.1594 8.09961 9C8.09982 7.84051 9.03973 6.9006 10.1992 6.90039L10.4141 6.91016Z" fill="#FAFAFA"/>
<path d="M37.8008 6.90039C38.9604 6.90039 39.9002 7.84035 39.9004 9C39.9001 10.1596 38.9604 11.0996 37.8008 11.0996V9.90039L37.7988 9.89844L37.8008 11.0996C36.6414 11.0994 35.6995 10.1595 35.6992 9C35.6994 7.84048 36.6413 6.9006 37.8008 6.90039Z" fill="#FAFAFA"/>
<path d="M24 4.5C25.1596 4.5 26.0994 5.43997 26.0996 6.59961C26.0996 7.75944 25.1598 8.69922 24 8.69922C22.8404 8.69901 21.9004 7.75931 21.9004 6.59961C21.9006 5.4401 22.8405 4.50021 24 4.5Z" fill="#FAFAFA"/>
</svg>
