<svg width="48" height="48" viewBox="0 0 48 48" fill="none" xmlns="http://www.w3.org/2000/svg">
<path d="M41.999 35.001C41.999 33.3441 40.6559 32.001 38.999 32.001H9.00098V29.001L27.999 29.001C29.6559 29.001 30.999 27.6578 30.999 26.001V22.001C30.999 20.3441 29.6559 19.001 27.999 19.001L9.00098 19.001V16.001H16.999C18.6559 16.001 19.999 14.6578 19.999 13.001V9.00098C19.999 7.34412 18.6559 6.00098 16.999 6.00098H9.00098V3.50098C9.00098 2.67255 8.3294 2.00098 7.50098 2.00098C6.67255 2.00098 6.00098 2.67255 6.00098 3.50098V44.501C6.00098 45.3294 6.67255 46.001 7.50098 46.001C8.3294 46.001 9.00098 45.3294 9.00098 44.501V42.001H38.999C40.6559 42.001 41.999 40.6578 41.999 39.001V35.001Z" fill="#FAFAFA"/>
</svg>
