<svg width="48" height="48" viewBox="0 0 48 48" fill="none" xmlns="http://www.w3.org/2000/svg">
<path fill-rule="evenodd" clip-rule="evenodd" d="M41.268 12.3018C41.6828 12.3017 42.0924 12.3975 42.4653 12.5791C42.7454 12.7157 42.9999 12.8989 43.2173 13.1201L43.4223 13.3525L43.6001 13.6084C43.7078 13.7846 43.7945 13.9731 43.8598 14.1689L43.9419 14.4697L43.9887 14.7764C44.0179 15.0853 43.9945 15.3979 43.9184 15.7002L43.3012 18.165C43.1537 18.756 42.8125 19.2802 42.3325 19.6553C41.912 19.9836 41.4059 20.1817 40.8774 20.2256L40.6509 20.2354H39.2719L41.9985 33.8643C42.1606 34.676 41.6341 35.4668 40.8227 35.6299C40.011 35.7919 39.2201 35.2655 39.0571 34.4541L38.3344 30.8447L24.0708 21.5869L9.64109 30.8604L8.91648 34.4932C8.75355 35.3049 7.96285 35.8313 7.15086 35.6689C6.33945 35.5058 5.81288 34.7151 5.97507 33.9033L8.70945 20.2354H7.35007C6.74077 20.2352 6.14859 20.0304 5.66843 19.6553C5.18869 19.2802 4.84717 18.7558 4.69968 18.165L4.0825 15.7002L4.0239 15.3955C3.98283 15.0881 3.99478 14.7747 4.05906 14.4697L4.14109 14.1689C4.23913 13.8751 4.38719 13.598 4.57859 13.3525L4.78367 13.1201C5.00089 12.8989 5.25565 12.7157 5.53562 12.5791L5.82078 12.458C6.11266 12.3547 6.42177 12.3037 6.73289 12.3037L41.268 12.3018ZM11.768 20.2354L10.4594 26.7686L20.6255 20.2354H11.768ZM27.4966 20.2354L37.5122 26.7354L36.2134 20.2354H27.4966Z" fill="#FAFAFA"/>
</svg>
