<svg width="48" height="48" viewBox="0 0 48 48" fill="none" xmlns="http://www.w3.org/2000/svg">
<path fill-rule="evenodd" clip-rule="evenodd" d="M42.375 24.0005C42.375 24.8248 42.0881 25.6202 41.5703 26.2524L41.3359 26.5122L26.5117 41.3364C25.8457 42.0015 24.9431 42.3753 24.002 42.3755C23.0604 42.3755 22.1564 42.0017 21.4902 41.3364L6.66797 26.5142C5.36718 25.2134 5.2835 23.1537 6.42383 21.7583L6.66797 21.4888L21.4902 6.66455C22.1589 5.99676 23.0639 5.62744 24.002 5.62744C24.9432 5.62768 25.8457 6.00142 26.5117 6.6665L41.3359 21.4907C42.001 22.1567 42.3748 23.0593 42.375 24.0005ZM31.625 25.061C32.2108 24.4752 32.2108 23.5257 31.625 22.9399C31.0392 22.3543 30.0897 22.3542 29.5039 22.9399L25.502 26.9419V16.5005C25.502 15.6721 24.8304 15.0005 24.002 15.0005C23.1736 15.0006 22.502 15.6721 22.502 16.5005V26.9419L18.5 22.9399C17.9142 22.3543 16.9647 22.3542 16.3789 22.9399C15.7933 23.5257 15.7933 24.4753 16.3789 25.061L22.9414 31.6235C23.0051 31.6873 23.0751 31.7416 23.1465 31.7915C23.2347 31.8531 23.329 31.9061 23.4297 31.9478C23.5303 31.9893 23.6344 32.0189 23.7402 32.0376C23.8253 32.0526 23.9126 32.063 24.002 32.063C24.0926 32.063 24.1813 32.053 24.2676 32.0376C24.3727 32.0188 24.4762 31.9892 24.5762 31.9478C24.6344 31.9236 24.6879 31.8909 24.7422 31.8599C24.8555 31.7951 24.9657 31.7203 25.0625 31.6235L31.625 25.061Z" fill="#FAFAFA"/>
</svg>
