<svg width="48" height="48" viewBox="0 0 48 48" fill="none" xmlns="http://www.w3.org/2000/svg">
<path fill-rule="evenodd" clip-rule="evenodd" d="M30 7.35156C30.8284 7.35156 31.5 8.02314 31.5 8.85156C31.4995 9.67954 30.8281 10.3516 30 10.3516H25.5V16.0078H34.002L34.5156 16.0215C39.7987 16.2889 44 20.6564 44 26.0059C44 30.866 40.5317 34.9136 35.9355 35.8145V39.1484C35.9355 39.9765 35.2635 40.6479 34.4355 40.6484C33.6071 40.6484 32.9355 39.9769 32.9355 39.1484V36.0039H15.0645V39.1484C15.0645 39.9769 14.3929 40.6484 13.5645 40.6484C12.736 40.6484 12.0645 39.9769 12.0645 39.1484V35.8145C7.46826 34.9136 4 30.866 4 26.0059C4 20.6564 8.20134 16.2889 13.4844 16.0215L13.998 16.0078H22.5V10.3516H18C17.1719 10.3516 16.5005 9.67954 16.5 8.85156C16.5 8.02314 17.1716 7.35156 18 7.35156H30ZM37.5547 26.0176C36.7982 26.6514 35.9573 27.1835 35.0508 27.5859C33.6971 28.1868 32.2311 28.496 30.75 28.4961C29.2686 28.496 27.8031 28.1851 26.4492 27.584C25.5649 27.1914 24.7421 26.6796 24 26.0664C23.2581 26.6794 22.4349 27.1934 21.5508 27.5859C20.1971 28.1868 18.7312 28.496 17.25 28.4961C15.7685 28.496 14.3032 28.1851 12.9492 27.584C12.0422 27.1813 11.2003 26.652 10.4434 26.0176C9.46655 26.7622 8.3842 27.3599 7.23047 27.791C8.01971 30.7911 10.7502 33.0039 13.998 33.0039H34.002C37.2497 33.0039 39.9782 30.7909 40.7676 27.791C39.6139 27.36 38.5312 26.7623 37.5547 26.0176Z" fill="#FAFAFA"/>
</svg>
