<svg width="48" height="48" viewBox="0 0 48 48" fill="none" xmlns="http://www.w3.org/2000/svg">
<path d="M23.6992 18.8984H19.5V14.6992H23.6992V18.8984Z" fill="#FAFAFA"/>
<path fill-rule="evenodd" clip-rule="evenodd" d="M34.8008 4.5C35.8349 4.5001 36.8273 4.91122 37.5586 5.64258C38.2898 6.374 38.7012 7.36632 38.7012 8.40039V19.4727L41.3438 20.7949C41.9914 21.119 42.5376 21.6168 42.918 22.2324C43.2988 22.8487 43.5002 23.5589 43.5 24.2832V30.916C43.5003 31.6404 43.2987 32.3504 42.918 32.9668C42.5375 33.5827 41.9937 34.0821 41.3457 34.4062L38.7012 35.7266V39.5996C38.7012 40.6336 38.2898 41.626 37.5586 42.3574C36.8272 43.0888 35.8348 43.4999 34.8008 43.5H10.8008C9.76654 43.5 8.77442 43.0889 8.04297 42.3574C7.31157 41.626 6.90039 40.6339 6.90039 39.5996V21.5996C6.4347 21.4055 6.00625 21.1214 5.64258 20.7578C4.91147 20.0266 4.50019 19.034 4.5 18V13.2012C4.5 12.167 4.9114 11.1747 5.64258 10.4434C6.00637 10.0796 6.43447 9.79377 6.90039 9.59961V8.40039C6.90039 7.36605 7.31159 6.37396 8.04297 5.64258C8.77436 4.91118 9.76646 4.5 10.8008 4.5H34.8008ZM30 28.5C29.1716 28.5 28.5 29.1716 28.5 30V30.9004H24.3008V30C24.3008 29.1716 23.6292 28.5 22.8008 28.5C21.9724 28.5 21.3008 29.1716 21.3008 30V30.9004H17.0996V30C17.0996 29.1716 16.428 28.5 15.5996 28.5C14.7712 28.5 14.0996 29.1716 14.0996 30V30.9004H13.1992C12.3708 30.9004 11.6992 31.572 11.6992 32.4004V37.2012C11.6999 38.029 12.3712 38.7012 13.1992 38.7012H32.3984C33.2264 38.7012 33.8978 38.029 33.8984 37.2012V32.4004C33.8984 31.572 33.2269 30.9004 32.3984 30.9004H31.5V30C31.5 29.1716 30.8284 28.5 30 28.5ZM31.1992 18.3008C30.0398 18.301 29.0998 19.2409 29.0996 20.4004C29.1 21.5598 30.0399 22.4998 31.1992 22.5C32.3587 22.5 33.2984 21.5599 33.2988 20.4004C33.2986 19.3133 32.4728 18.4181 31.4141 18.3105L31.1992 18.3008ZM19.1992 11.6992C17.7089 11.6996 16.5008 12.9082 16.5 14.3984V19.1992C16.5 20.6901 17.7084 21.898 19.1992 21.8984H24C25.4911 21.8984 26.6992 20.6904 26.6992 19.1992V14.3984C26.6984 12.908 25.4906 11.6992 24 11.6992H19.1992ZM13.1992 12.9004C12.3708 12.9004 11.6992 13.572 11.6992 14.4004V18C11.6995 18.8282 12.371 19.5 13.1992 19.5C14.0275 19.5 14.699 18.8282 14.6992 18V14.4004C14.6992 13.572 14.0276 12.9004 13.1992 12.9004ZM31.1992 11.0996C30.0399 11.0998 29.1001 12.0399 29.0996 13.1992C29.0996 14.3589 30.0396 15.2986 31.1992 15.2988C32.359 15.2988 33.2988 14.359 33.2988 13.1992C33.2984 12.0398 32.3587 11.0996 31.1992 11.0996Z" fill="#FAFAFA"/>
</svg>
