<svg width="48" height="48" viewBox="0 0 48 48" fill="none" xmlns="http://www.w3.org/2000/svg">
<path fill-rule="evenodd" clip-rule="evenodd" d="M29.625 5.625C31.0174 5.625 32.3533 6.17754 33.3379 7.16211C34.3225 8.14668 34.875 9.48261 34.875 10.875V37.125C34.875 38.5174 34.3225 39.8533 33.3379 40.8379C32.3533 41.8225 31.0174 42.375 29.625 42.375H18.375C16.9826 42.375 15.6467 41.8225 14.6621 40.8379C13.6775 39.8533 13.125 38.5174 13.125 37.125V10.875C13.125 9.48261 13.6775 8.14668 14.6621 7.16211C15.6467 6.17754 16.9826 5.625 18.375 5.625H29.625ZM20.25 33.75C19.4216 33.75 18.75 34.4216 18.75 35.25V35.2695C18.7504 36.0976 19.4218 36.7695 20.25 36.7695C21.0782 36.7695 21.7496 36.0976 21.75 35.2695V35.25C21.75 34.4216 21.0784 33.75 20.25 33.75ZM27.75 33.75C26.9216 33.75 26.25 34.4216 26.25 35.25V35.2695C26.2504 36.0976 26.9218 36.7695 27.75 36.7695C28.5782 36.7695 29.2496 36.0976 29.25 35.2695V35.25C29.25 34.4216 28.5784 33.75 27.75 33.75ZM20.25 28.125C19.4216 28.125 18.75 28.7966 18.75 29.625V29.6445C18.7504 30.4726 19.4218 31.1445 20.25 31.1445C21.0782 31.1445 21.7496 30.4726 21.75 29.6445V29.625C21.75 28.7966 21.0784 28.125 20.25 28.125ZM27.75 28.125C26.9216 28.125 26.25 28.7966 26.25 29.625V29.6445C26.2504 30.4726 26.9218 31.1445 27.75 31.1445C28.5782 31.1445 29.2496 30.4726 29.25 29.6445V29.625C29.25 28.7966 28.5784 28.125 27.75 28.125ZM24 16.5C23.0054 16.5 22.0509 16.8944 21.3477 17.5977C20.6444 18.3009 20.25 19.2554 20.25 20.25C20.25 21.2446 20.6444 22.1991 21.3477 22.9023C22.0509 23.6056 23.0054 24 24 24C24.9946 24 25.9491 23.6056 26.6523 22.9023C27.3556 22.1991 27.75 21.2446 27.75 20.25C27.75 19.2554 27.3556 18.3009 26.6523 17.5977C25.9491 16.8944 24.9946 16.5 24 16.5ZM22.5 8.625V10.875C22.5 11.7034 23.1716 12.375 24 12.375C24.8284 12.375 25.5 11.7034 25.5 10.875V8.625H22.5Z" fill="#FAFAFA"/>
</svg>
