<svg width="48" height="48" viewBox="0 0 48 48" fill="none" xmlns="http://www.w3.org/2000/svg">
<path d="M14.4552 32.8457C14.959 32.189 15.9014 32.0636 16.5587 32.5664C17.2149 33.0703 17.3407 34.0128 16.838 34.6699L15.8185 36L15.8165 35.998C15.6474 36.2205 15.5735 36.4973 15.6036 36.7676C15.6335 37.0321 15.7641 37.2811 15.9728 37.4629L16.2931 37.7559C16.5973 38.0643 16.8533 38.4206 17.047 38.8105C17.305 39.3306 17.4491 39.9019 17.4689 40.4824C17.4884 41.063 17.3827 41.6414 17.1603 42.1777C16.9376 42.7142 16.6026 43.1969 16.1798 43.5938C15.5759 44.1599 14.6255 44.1305 14.0587 43.5273C13.4923 42.9233 13.5233 41.973 14.1271 41.4062C14.2417 41.2986 14.3302 41.1682 14.3888 41.0273C14.4472 40.8862 14.4758 40.7349 14.4708 40.584C14.4657 40.4331 14.4276 40.282 14.3595 40.1445C14.2914 40.0077 14.1921 39.8832 14.0704 39.7832L14.0567 39.7715C13.2551 39.0972 12.7397 38.1419 12.6232 37.0996C12.5068 36.0567 12.7996 35.0111 13.4357 34.1777L14.4552 32.8457Z" fill="#FAFAFA"/>
<path d="M23.7306 32.8457C24.2344 32.1889 25.1768 32.0635 25.8341 32.5664C26.4905 33.0705 26.6148 34.0128 26.1114 34.6699L25.0919 35.9961L25.0939 35.998C24.9244 36.2204 24.8488 36.4967 24.879 36.7676C24.9096 37.0383 25.0446 37.2937 25.2618 37.4766C25.7007 37.8469 26.062 38.3065 26.3146 38.8242L26.4825 39.2207C26.6295 39.6249 26.7138 40.0512 26.7286 40.4824L26.7208 40.9141C26.69 41.3428 26.5906 41.7661 26.4278 42.166C26.2108 42.6989 25.8829 43.1807 25.4689 43.5801C24.8728 44.154 23.9246 44.1361 23.3497 43.541C22.7751 42.9448 22.791 41.9949 23.3868 41.4199C23.5009 41.3098 23.5901 41.1783 23.6485 41.0352C23.7067 40.8921 23.7357 40.7372 23.7306 40.584C23.7252 40.4308 23.6866 40.2792 23.6192 40.1406C23.5517 40.0023 23.4522 39.8747 23.3302 39.7715L23.3321 39.7695C22.531 39.0953 22.0151 38.1414 21.8985 37.0996C21.7822 36.057 22.0748 35.0113 22.711 34.1777L23.7306 32.8457Z" fill="#FAFAFA"/>
<path d="M32.3634 32.8457C32.8672 32.189 33.8096 32.0635 34.4669 32.5664C35.1233 33.0705 35.2476 34.0128 34.7442 34.6699L33.7247 35.9961L33.7267 35.998C33.5572 36.2204 33.4816 36.4966 33.5118 36.7676C33.5425 37.0383 33.6775 37.2937 33.8946 37.4766C34.3335 37.8469 34.6948 38.3065 34.9474 38.8242L35.1153 39.2207C35.2623 39.6249 35.3466 40.0512 35.3614 40.4824L35.3536 40.9141C35.3228 41.3428 35.2234 41.7661 35.0607 42.166C34.8436 42.6989 34.5157 43.1807 34.1017 43.5801C33.5056 44.154 32.5574 44.1361 31.9825 43.541C31.4079 42.9448 31.4238 41.9949 32.0196 41.4199C32.1337 41.3098 32.2229 41.1783 32.2814 41.0352C32.3395 40.8921 32.3685 40.7372 32.3634 40.584C32.358 40.4308 32.3194 40.2792 32.2521 40.1406C32.1845 40.0023 32.085 39.8747 31.963 39.7715L31.965 39.7695C31.1638 39.0953 30.6479 38.1414 30.5314 37.0996C30.415 36.057 30.7076 35.0113 31.3439 34.1777L32.3634 32.8457Z" fill="#FAFAFA"/>
<path fill-rule="evenodd" clip-rule="evenodd" d="M42.84 16.627L43.0528 16.832C43.6706 17.5621 44.007 18.4895 44.0001 19.4453V25.2656C44 26.3172 43.5812 27.3267 42.838 28.0703C42.0943 28.8137 41.0847 29.2322 40.0333 29.2324H7.96691C6.9155 29.2322 5.90596 28.8138 5.16222 28.0703C4.41883 27.3265 4.00021 26.3171 4.00011 25.2656V19.4785C3.99307 18.5222 4.32917 17.5934 4.94737 16.8633L4.99425 16.8145C5.02297 16.7836 5.05485 16.7549 5.08605 16.7266L5.15636 16.6602L13.5138 9.99219H34.4884L42.84 16.627ZM35.1095 20.6582C34.0138 20.6585 33.1124 21.4915 33.004 22.5586L32.9923 22.7754L33.004 22.9922C33.113 24.0587 34.0143 24.8903 35.1095 24.8906L35.3243 24.8789C36.3913 24.7705 37.2262 23.8708 37.2267 22.7754C37.2266 21.6796 36.3916 20.7765 35.3243 20.668L35.1095 20.6582ZM12.9005 21.2656C12.0726 21.2659 11.401 21.9378 11.4005 22.7656C11.4005 23.5939 12.0723 24.2653 12.9005 24.2656H16.5997C17.4277 24.2652 18.0997 23.5938 18.0997 22.7656C18.0992 21.9379 17.4274 21.2661 16.5997 21.2656H12.9005ZM21.5353 21.2656C20.7074 21.2659 20.0358 21.9378 20.0353 22.7656C20.0353 23.5939 20.7071 24.2653 21.5353 24.2656H25.2345C26.0621 24.2646 26.7345 23.5934 26.7345 22.7656C26.734 21.9383 26.0617 21.2666 25.2345 21.2656H21.5353Z" fill="#FAFAFA"/>
<path d="M33.1798 3.99414C33.6214 3.99414 33.9803 4.3514 33.9806 4.79297V6.19336C33.9806 6.63519 33.6216 6.99414 33.1798 6.99414H14.8204C14.3786 6.99414 14.0196 6.63519 14.0196 6.19336V5.55273C14.0189 5.53324 14.0138 5.51382 14.0138 5.49414C14.0138 5.47401 14.0189 5.45353 14.0196 5.43359V4.79297C14.0199 4.3514 14.3788 3.99414 14.8204 3.99414H33.1798Z" fill="#FAFAFA"/>
</svg>
