<svg width="48" height="48" viewBox="0 0 48 48" fill="none" xmlns="http://www.w3.org/2000/svg">
<path fill-rule="evenodd" clip-rule="evenodd" d="M12 3.29395C9.79086 3.29395 8 5.08481 8 7.29394V15.1121C7.99994 18.8963 9.4371 22.549 12.0391 25.378C13.8432 27.3394 16.1203 28.8104 18.644 29.6766C20.5669 30.3367 22.1176 31.9962 22.1176 34.0292V36.834C22.1176 38.3934 20.8535 39.6576 19.2941 39.6576H18.2888C17.2846 39.6576 16.4706 40.4716 16.4706 41.4758C16.4706 42.4799 17.2846 43.2939 18.2888 43.2939H29.7112C30.7154 43.2939 31.5294 42.4799 31.5294 41.4758C31.5294 40.4716 30.7154 39.6576 29.7112 39.6576H28.7059C27.1465 39.6576 25.8824 38.3934 25.8824 36.8341V34.0292C25.8824 31.9962 27.4331 30.3367 29.356 29.6766C31.8797 28.8104 34.1568 27.3394 35.9609 25.378C38.5629 22.549 40.0001 18.8963 40 15.1121V7.29395C40 5.08481 38.2091 3.29395 36 3.29395H12Z" fill="#FAFAFA"/>
<path d="M36.2362 13.2939H11.7656V15.1121C11.7656 18.2465 13.0547 21.2525 15.3493 23.4688C17.6438 25.6852 20.7559 26.9303 24.0009 26.9303C27.2459 26.9303 30.358 25.6852 32.6526 23.4688C34.9471 21.2525 36.2362 18.2465 36.2362 15.1121V13.2939Z" fill="#131313"/>
</svg>
