<svg width="48" height="48" viewBox="0 0 48 48" fill="none" xmlns="http://www.w3.org/2000/svg">
<path fill-rule="evenodd" clip-rule="evenodd" d="M24 26.5C25.933 26.5 27.5 28.067 27.5 30C27.5 31.933 25.933 33.5 24 33.5C22.067 33.5 20.5 31.933 20.5 30C20.5 28.067 22.067 26.5 24 26.5ZM24 29.5C23.7239 29.5 23.5 29.7239 23.5 30C23.5 30.2761 23.7239 30.5 24 30.5C24.2761 30.5 24.5 30.2761 24.5 30C24.5 29.7239 24.2761 29.5 24 29.5Z" fill="#FAFAFA"/>
<path d="M17 25C18.1046 25 19 25.8954 19 27C19 28.1046 18.1046 29 17 29C15.8954 29 15 28.1046 15 27C15 25.8954 15.8954 25 17 25Z" fill="#FAFAFA"/>
<path d="M31 25C32.1046 25 33 25.8954 33 27C33 28.1046 32.1046 29 31 29C29.8954 29 29 28.1046 29 27C29 25.8954 29.8954 25 31 25Z" fill="#FAFAFA"/>
<path fill-rule="evenodd" clip-rule="evenodd" d="M19.5 16.5C21.433 16.5 23 18.067 23 20C23 21.933 21.433 23.5 19.5 23.5C17.567 23.5 16 21.933 16 20C16 18.067 17.567 16.5 19.5 16.5ZM19.5 19.5C19.2239 19.5 19 19.7239 19 20C19 20.2761 19.2239 20.5 19.5 20.5C19.7761 20.5 20 20.2761 20 20C20 19.7239 19.7761 19.5 19.5 19.5Z" fill="#FAFAFA"/>
<path fill-rule="evenodd" clip-rule="evenodd" d="M28.5 16.5C30.433 16.5 32 18.067 32 20C32 21.933 30.433 23.5 28.5 23.5C26.567 23.5 25 21.933 25 20C25 18.067 26.567 16.5 28.5 16.5ZM28.5 19.5C28.2239 19.5 28 19.7239 28 20C28 20.2761 28.2239 20.5 28.5 20.5C28.7761 20.5 29 20.2761 29 20C29 19.7239 28.7761 19.5 28.5 19.5Z" fill="#FAFAFA"/>
<path fill-rule="evenodd" clip-rule="evenodd" d="M38 4C41.3137 4 44 6.68629 44 10V38C44 41.3137 41.3137 44 38 44H10C6.68629 44 4 41.3137 4 38V10C4 6.68629 6.68629 4 10 4H38ZM24 10C20.287 10 16.7251 11.4741 14.0996 14.0996C11.4741 16.7251 10 20.287 10 24C10 27.713 11.4741 31.2749 14.0996 33.9004C16.7251 36.5259 20.287 38 24 38C27.713 38 31.2749 36.5259 33.9004 33.9004C36.5259 31.2749 38 27.713 38 24C38 20.287 36.5259 16.7251 33.9004 14.0996C31.2749 11.4741 27.713 10 24 10Z" fill="#FAFAFA"/>
</svg>
