<svg width="48" height="48" viewBox="0 0 48 48" fill="none" xmlns="http://www.w3.org/2000/svg">
<path fill-rule="evenodd" clip-rule="evenodd" d="M16.4023 17.2012C16.7206 17.2012 17.0269 17.3277 17.252 17.5527C17.4766 17.7777 17.6035 18.0824 17.6035 18.4004C17.6035 18.7184 17.4766 19.0231 17.252 19.248C17.0269 19.4731 16.7206 19.5996 16.4023 19.5996H16.0039V23.2012H18.0352L15.459 28.3359C15.2437 28.814 15.1491 29.3382 15.1836 29.8613C15.2182 30.3847 15.3816 30.8922 15.6582 31.3379C15.9347 31.7834 16.3161 32.1546 16.7695 32.418C17.2231 32.6814 17.7356 32.8284 18.2598 32.8477H18.4023L17.7305 36.8809C17.6297 37.5508 17.7454 38.2352 18.0586 38.8359C18.372 39.4368 18.8674 39.9237 19.4746 40.2246C19.8914 40.4145 20.3447 40.5118 20.8027 40.5117C21.2464 40.5084 21.6851 40.4141 22.0898 40.2324C22.4945 40.0508 22.8571 39.7862 23.1543 39.457L32.0996 29.2324C32.4322 28.8559 32.6675 28.4039 32.7871 27.916C32.9066 27.4279 32.9062 26.9174 32.7852 26.4297C32.664 25.9417 32.426 25.4889 32.0918 25.1133C31.7577 24.738 31.3374 24.4486 30.8672 24.2715L31.2031 23.584V19.5996H30.8027C30.4846 19.5995 30.18 19.473 29.9551 19.248C29.7302 19.023 29.6035 18.7185 29.6035 18.4004C29.6035 18.0822 29.7302 17.7778 29.9551 17.5527C30.18 17.3278 30.4846 17.2013 30.8027 17.2012H40.8027C41.121 17.2012 41.4273 17.3277 41.6523 17.5527C41.8769 17.7777 42.0039 18.0825 42.0039 18.4004C42.0039 18.7183 41.8769 19.0231 41.6523 19.248C41.4273 19.4731 41.121 19.5996 40.8027 19.5996H40.4023V23.2012C41.0389 23.2012 41.6495 23.4542 42.0996 23.9043C42.5494 24.3542 42.8025 24.9635 42.8027 25.5996V40.8008C42.8026 41.4372 42.5496 42.048 42.0996 42.498C41.6496 42.9478 41.0386 43.2012 40.4023 43.2012H7.60352C6.96717 43.2012 6.3563 42.9479 5.90625 42.498C5.45624 42.048 5.20322 41.4372 5.20312 40.8008V25.5996C5.20334 24.9636 5.45659 24.3542 5.90625 23.9043C6.35634 23.4542 6.967 23.2012 7.60352 23.2012V19.5996H7.20312C6.88487 19.5996 6.58051 19.4731 6.35547 19.248C6.13044 19.023 6.00391 18.7186 6.00391 18.4004C6.00392 18.0821 6.13044 17.7778 6.35547 17.5527C6.58051 17.3277 6.88488 17.2012 7.20312 17.2012H16.4023ZM10.0039 23.2012H13.6035V19.5996H10.0039V23.2012ZM33.6035 23.2012H38.0039V19.5996H33.6035V23.2012Z" fill="#FAFAFA"/>
<path d="M28.4824 21.3613C28.6045 21.3622 28.7256 21.3932 28.832 21.4531C28.9382 21.5131 29.0279 21.5993 29.0918 21.7031C29.1555 21.8068 29.1916 21.9253 29.1973 22.0469C29.2028 22.1689 29.1773 22.291 29.123 22.4004L27.0742 26.4648H29.7461C29.884 26.4622 30.0202 26.5004 30.1367 26.5742C30.2534 26.6482 30.3459 26.7548 30.4023 26.8809C30.4497 26.9972 30.465 27.124 30.4453 27.248C30.4256 27.372 30.3721 27.4881 30.291 27.584L21.3477 37.8086C21.2795 37.8848 21.195 37.9449 21.1016 37.9863C21.0546 38.007 21.005 38.0229 20.9551 38.0332L20.6504 38.0645C20.5996 38.0644 20.5479 38.0601 20.498 38.0488C20.359 37.9795 20.2456 37.8663 20.1738 37.7285C20.1024 37.591 20.0768 37.4346 20.0996 37.2812L21.2031 30.4492H18.2266C18.1033 30.4487 17.9816 30.4177 17.873 30.3594C17.7645 30.3009 17.6718 30.2159 17.6035 30.1133C17.5486 30.0041 17.5195 29.882 17.5195 29.7598C17.5196 29.6377 17.5487 29.5173 17.6035 29.4082L21.4434 21.7598C21.5038 21.6421 21.5949 21.5429 21.707 21.4727C21.8194 21.4024 21.9495 21.3642 22.082 21.3613H28.4824Z" fill="#FAFAFA"/>
<path d="M16.4043 12.5762C16.7223 12.5763 17.027 12.703 17.252 12.9277C17.477 13.1528 17.6035 13.4591 17.6035 13.7773C17.6033 14.0953 17.4768 14.4002 17.252 14.625C17.027 14.8498 16.7223 14.9765 16.4043 14.9766H7.20312C6.88518 14.9764 6.58032 14.8498 6.35547 14.625C6.13064 14.4002 6.00415 14.0953 6.00391 13.7773C6.00391 13.4591 6.13043 13.1528 6.35547 12.9277C6.58032 12.703 6.8852 12.5764 7.20312 12.5762H16.4043Z" fill="#FAFAFA"/>
<path d="M40.8027 12.5762C41.121 12.5762 41.4273 12.7027 41.6523 12.9277C41.8773 13.1528 42.0039 13.4591 42.0039 13.7773C42.0037 14.0952 41.8771 14.4002 41.6523 14.625C41.4273 14.85 41.121 14.9766 40.8027 14.9766H30.8027C30.4848 14.9764 30.1799 14.8498 29.9551 14.625C29.7303 14.4002 29.6038 14.0953 29.6035 13.7773C29.6035 13.4591 29.73 13.1528 29.9551 12.9277C30.1799 12.703 30.4848 12.5764 30.8027 12.5762H40.8027Z" fill="#FAFAFA"/>
<path d="M11.6035 5.56836C11.9218 5.56836 12.2281 5.69488 12.4531 5.91992C12.6777 6.14474 12.8045 6.44978 12.8047 6.76758V8H16.4043C16.7222 8.0001 17.027 8.12685 17.252 8.35156C17.477 8.57661 17.6035 8.88291 17.6035 9.20117C17.6033 9.51914 17.4768 9.82398 17.252 10.0488C17.027 10.2736 16.7223 10.4003 16.4043 10.4004H7.20312C6.88515 10.4002 6.58033 10.2737 6.35547 10.0488C6.13062 9.82398 6.00412 9.51914 6.00391 9.20117C6.00391 8.88291 6.13043 8.57661 6.35547 8.35156C6.58031 8.12682 6.88523 8.00021 7.20312 8H10.4043V6.76758C10.4045 6.4496 10.531 6.14478 10.7559 5.91992C10.9808 5.69509 11.2855 5.56846 11.6035 5.56836Z" fill="#FAFAFA"/>
<path d="M35.8105 5.56836C36.1288 5.56836 36.4351 5.69488 36.6602 5.91992C36.885 6.14477 37.0115 6.44965 37.0117 6.76758V8H40.8027C41.121 8 41.4273 8.12652 41.6523 8.35156C41.8774 8.5766 42.0039 8.88292 42.0039 9.20117C42.0037 9.51905 41.8771 9.82399 41.6523 10.0488C41.4273 10.2739 41.121 10.4004 40.8027 10.4004H30.8027C30.4848 10.4002 30.1799 10.2737 29.9551 10.0488C29.7302 9.82398 29.6037 9.51914 29.6035 9.20117C29.6035 8.88291 29.73 8.57661 29.9551 8.35156C30.1799 8.12682 30.4848 8.00021 30.8027 8H34.6113V6.76758C34.6115 6.44964 34.7381 6.14477 34.9629 5.91992C35.1877 5.69511 35.4926 5.56862 35.8105 5.56836Z" fill="#FAFAFA"/>
</svg>
