<svg width="48" height="48" viewBox="0 0 48 48" fill="none" xmlns="http://www.w3.org/2000/svg">
<path d="M22.9961 31.9999C23.4541 32.0007 23.8257 32.3719 23.8262 32.83V33.2186L24.1797 32.8671C24.5043 32.5426 25.0309 32.5426 25.3555 32.8671C25.6791 33.1915 25.6792 33.7165 25.3555 34.0409L23.8262 35.5702V36.162L24.4297 36.16L25.9531 34.6386C26.2774 34.315 26.8025 34.3151 27.127 34.6386C27.4514 34.9631 27.4514 35.4898 27.127 35.8143L26.7832 36.1581H27.168C27.6267 36.1576 27.9991 36.5295 28 36.9882C28.0001 37.4468 27.6286 37.8196 27.1699 37.8202H26.7617L27.127 38.1854L27.1855 38.2479C27.4517 38.5743 27.4311 39.0569 27.127 39.3612C26.8228 39.6642 26.3416 39.6833 26.0156 39.4179L25.9531 39.3612L24.416 37.8222L23.8262 37.8241V38.4296L25.3555 39.9569L25.4121 40.0214C25.6776 40.3476 25.659 40.8286 25.3555 41.1327C25.0512 41.4369 24.5686 41.4574 24.2422 41.1913L24.1797 41.1327L23.8262 40.7792V41.1679C23.8262 41.6263 23.4544 41.9991 22.9961 41.9999C22.5371 41.9999 22.1641 41.6268 22.1641 41.1679V40.7772L21.8086 41.1327C21.4842 41.457 20.9593 41.4568 20.6348 41.1327C20.3104 40.8081 20.3103 40.2814 20.6348 39.9569L22.1641 38.4276V37.8261H21.5684L20.0352 39.3612C19.7106 39.6849 19.1837 39.6854 18.8594 39.3612C18.5355 39.0369 18.5358 38.5099 18.8594 38.1854L19.2148 37.83H18.832C18.3731 37.8305 18.0006 37.4588 18 36.9999C17.9999 36.5413 18.3714 36.1685 18.8301 36.1679H19.2129L18.8594 35.8143C18.5357 35.4898 18.5354 34.9629 18.8594 34.6386C19.1837 34.3143 19.7105 34.3148 20.0352 34.6386L21.5605 36.1639H22.1641V35.5722L20.6348 34.0409C20.3103 33.7164 20.3103 33.1916 20.6348 32.8671C20.9593 32.5427 21.4841 32.5426 21.8086 32.8671L22.1641 33.2206V32.83C22.1645 32.3714 22.5374 31.9999 22.9961 31.9999Z" fill="#FAFAFA"/>
<path d="M10.9004 24.4999C10.9008 27.261 13.1392 29.4999 15.9004 29.4999C18.6616 29.4999 20.9 27.261 20.9004 24.4999V18.4999H24.9004V24.4999C24.9008 27.261 27.1392 29.4999 29.9004 29.4999C32.6616 29.4999 34.9 27.261 34.9004 24.4999V18.4999H37C40.0376 18.4999 42.5 20.9623 42.5 23.9999V32.1991C42.4996 35.2363 40.0373 37.6991 37 37.6991H30.4668C30.4881 37.4689 30.5 37.2356 30.5 36.9999C30.5 32.8578 27.1421 29.4999 23 29.4999C18.8579 29.4999 15.5 32.8578 15.5 36.9999C15.5 37.2356 15.5119 37.4689 15.5332 37.6991H9C5.96268 37.6991 3.50039 35.2363 3.5 32.1991V23.9999C3.5 20.9623 5.96244 18.4999 9 18.4999H10.9004V24.4999Z" fill="#FAFAFA"/>
<path d="M17.9004 24.4999C17.9 25.6041 17.0047 26.4999 15.9004 26.4999C14.7961 26.4999 13.9008 25.6041 13.9004 24.4999V18.4999H17.9004V24.4999Z" fill="#FAFAFA"/>
<path d="M31.9004 24.4999C31.9 25.6041 31.0047 26.4999 29.9004 26.4999C28.7961 26.4999 27.9008 25.6041 27.9004 24.4999V18.4999H31.9004V24.4999Z" fill="#FAFAFA"/>
<path d="M12.4004 10.4999C13.2288 10.4999 13.9004 11.1715 13.9004 11.9999V18.4999H10.9004V11.9999C10.9004 11.1715 11.572 10.4999 12.4004 10.4999Z" fill="#FAFAFA"/>
<path d="M22.9004 10.4999C25.6618 10.4999 27.9004 12.7385 27.9004 15.4999V18.4999H24.9004V15.4999C24.9004 14.3953 24.005 13.4999 22.9004 13.4999C21.7958 13.4999 20.9004 14.3953 20.9004 15.4999V18.4999H17.9004V15.4999C17.9004 12.7385 20.139 10.4999 22.9004 10.4999Z" fill="#FAFAFA"/>
<path d="M37.9395 6.93934C38.5252 6.35355 39.4748 6.35355 40.0605 6.93934L44.0605 10.9393C44.646 11.5252 44.6462 12.4748 44.0605 13.0604L40.0605 17.0604C39.4749 17.6457 38.5251 17.6457 37.9395 17.0604C37.3538 16.4748 37.354 15.5252 37.9395 14.9393L39.3789 13.4999H37.4004C36.0197 13.4999 34.9004 14.6192 34.9004 15.9999V18.4999H31.9004V15.9999C31.9004 12.9623 34.3628 10.4999 37.4004 10.4999H39.3789L37.9395 9.06043C37.3538 8.47477 37.354 7.52516 37.9395 6.93934Z" fill="#FAFAFA"/>
</svg>
