<svg width="48" height="48" viewBox="0 0 48 48" fill="none" xmlns="http://www.w3.org/2000/svg">
<path fill-rule="evenodd" clip-rule="evenodd" d="M29.3291 22.7256C29.3916 22.7257 29.4821 22.7505 29.5781 22.8574C29.6766 22.9676 29.7627 23.1502 29.7627 23.3818V29.8447C29.7625 30.0762 29.6767 30.2592 29.5781 30.3691C29.4824 30.4753 29.3915 30.5009 29.3291 30.501H19.667C19.6047 30.5005 19.5159 30.4744 19.4209 30.3691C19.3223 30.2592 19.2366 30.0763 19.2363 29.8447V23.3818C19.2363 23.1502 19.3224 22.9676 19.4209 22.8574C19.5162 22.7515 19.6046 22.726 19.667 22.7256H29.3291ZM24.501 24.7383C24.004 24.7383 23.5254 24.9349 23.1738 25.2861C22.823 25.6372 22.6266 26.1141 22.626 26.6104C22.626 27.1073 22.8226 27.5859 23.1738 27.9375C23.5255 28.2891 24.0037 28.4854 24.501 28.4854C24.9977 28.4851 25.4738 28.2887 25.8252 27.9375C26.1765 27.5859 26.376 27.1074 26.376 26.6104C26.3754 26.1141 26.176 25.6372 25.8252 25.2861C25.4739 24.9354 24.9974 24.7385 24.501 24.7383Z" fill="#FAFAFA"/>
<path d="M24.501 15.2197C25.3165 15.2202 26.0743 15.5137 26.6104 15.999L26.7949 16.1865C27.2018 16.6356 27.4069 17.1763 27.4072 17.71V19.7256H21.5918V17.71C21.5922 17.1005 21.8582 16.48 22.3887 15.999L22.6025 15.8262C23.1176 15.445 23.7875 15.2198 24.501 15.2197Z" fill="#FAFAFA"/>
<path fill-rule="evenodd" clip-rule="evenodd" d="M36.999 4.42383C39.7604 4.42383 42 6.66338 42 9.4248V23.6162C41.9994 36.4108 29.768 42.2503 25.4707 43.9072L25.1104 44.0273C24.2622 44.2643 23.3702 44.2067 22.5469 43.8604C18.2658 42.0589 6.00065 35.8312 6 23.6162V9.4248C6 6.66338 8.23955 4.42383 11.001 4.42383H36.999ZM24.501 12.2197C23.1699 12.2198 21.8626 12.6361 20.8096 13.418L20.376 13.7754C19.2549 14.7909 18.5922 16.2034 18.5918 17.71V19.9014C17.1517 20.3993 16.2363 21.8705 16.2363 23.3818V29.8447C16.2368 31.7043 17.6227 33.5001 19.667 33.501H29.3291C31.374 33.5007 32.7622 31.7046 32.7627 29.8447V23.3818C32.7627 21.8706 31.8471 20.3994 30.4072 19.9014V17.71C30.4069 16.3921 29.8987 15.1476 29.0215 14.1768L28.623 13.7754C27.5069 12.7647 26.0216 12.2202 24.501 12.2197Z" fill="#FAFAFA"/>
</svg>
