<svg width="48" height="48" viewBox="0 0 48 48" fill="none" xmlns="http://www.w3.org/2000/svg">
<path fill-rule="evenodd" clip-rule="evenodd" d="M22.0937 5.69922C23.1279 5.69922 24.1202 6.11063 24.8516 6.8418C25.5828 7.57302 25.9939 8.56553 25.9941 9.59961V10.5H28.0937C28.4914 10.5 28.873 10.6584 29.1543 10.9395L29.293 11.0781L30.1367 10.2363C30.4987 9.87432 30.9294 9.58662 31.4023 9.39062C31.8753 9.19473 32.3826 9.0938 32.8945 9.09375C33.4067 9.09378 33.9155 9.19457 34.3887 9.39062C34.8615 9.5867 35.2924 9.87431 35.6543 10.2363L35.6523 10.2383L38.2578 12.8418L38.5156 13.125C38.7582 13.4206 38.9565 13.7529 39.1035 14.1074C39.2993 14.5802 39.4003 15.0879 39.4004 15.5996C39.4003 16.1113 39.2992 16.619 39.1035 17.0918C38.9565 17.4464 38.7582 17.7786 38.5156 18.0742L38.2578 18.3574L37.4141 19.1992L37.5547 19.3398C37.8353 19.6209 37.9939 20.0032 37.9941 20.4004V38.4004C37.9938 39.4342 37.5825 40.4271 36.8516 41.1582C36.1202 41.8892 35.1278 42.3008 34.0937 42.3008H12.4941C11.4602 42.3008 10.4676 41.8891 9.73633 41.1582C9.00543 40.4271 8.59405 39.4342 8.59375 38.4004V14.4004C8.59394 13.3665 9.00534 12.3738 9.73633 11.6426C10.1001 11.2789 10.5283 10.9929 10.9941 10.7988V9.59961C10.9943 8.56553 11.4055 7.57302 12.1367 6.8418C12.8681 6.11063 13.8604 5.69922 14.8945 5.69922H22.0937ZM30.0762 21.7363C29.4905 21.151 28.5408 21.1511 27.9551 21.7363L23.998 25.6934L20.041 21.7363C19.4553 21.151 18.5056 21.1511 17.9199 21.7363C17.3343 22.322 17.3345 23.2716 17.9199 23.8574L21.877 27.8145L17.9199 31.7715C17.3343 32.3571 17.3345 33.3068 17.9199 33.8926C18.5058 34.4773 19.4556 34.478 20.041 33.8926L23.998 29.9355L27.9551 33.8926C28.541 34.4773 29.4908 34.478 30.0762 33.8926C30.6612 33.3071 30.6607 32.3572 30.0762 31.7715L26.1191 27.8145L30.0762 23.8574C30.6612 23.272 30.6607 22.3221 30.0762 21.7363ZM14.8945 8.69922C14.656 8.69922 14.4266 8.79434 14.2578 8.96289C14.0892 9.1315 13.9943 9.36118 13.9941 9.59961V10.5H22.9941V9.59961C22.9939 9.36118 22.8991 9.1315 22.7305 8.96289C22.5617 8.79434 22.3323 8.69922 22.0937 8.69922H14.8945Z" fill="#FAFAFA"/>
</svg>
