<svg width="48" height="48" viewBox="0 0 48 48" fill="none" xmlns="http://www.w3.org/2000/svg">
<path fill-rule="evenodd" clip-rule="evenodd" d="M30.2305 4.00146C30.2413 4.00164 30.2522 4.0015 30.263 4.00135C30.2769 4.00116 30.2908 4.00097 30.3047 4.00146C30.7677 4.01805 31.2275 4.11832 31.6621 4.30029L41.5293 8.43311C42.2735 8.74482 42.8999 9.28016 43.3359 9.95459C43.636 10.419 43.8351 10.9385 43.9316 11.478C43.9719 11.6135 44 11.7553 44 11.9038V42.5034C43.9999 43.3317 43.3284 44.0034 42.5 44.0034C41.6717 44.0034 41.0001 43.3317 41 42.5034V39.7417C40.7348 39.7155 40.4737 39.656 40.2266 39.5522L31.666 35.9683V38.4878C31.666 39.3162 30.9944 39.9878 30.166 39.9878C29.3379 39.9874 28.666 39.316 28.666 38.4878V35.9702L19.334 39.8804V42.5054C19.3337 43.3333 18.662 44.005 17.834 44.0054C17.0057 44.0054 16.3343 43.3335 16.334 42.5054V39.8823L7 35.9722V38.4995C7 39.3279 6.32843 39.9995 5.5 39.9995C4.67158 39.9995 4 39.3279 4 38.4995V7.21436C3.9992 6.77207 4.1012 6.33282 4.30079 5.93506L4.46875 5.64404C4.65435 5.36388 4.89184 5.11756 5.16993 4.91943C5.5409 4.65526 5.97437 4.48703 6.43165 4.43506L6.77344 4.41748C7.11626 4.42262 7.45617 4.49332 7.77344 4.62646L17.4961 8.70068C17.5969 8.74291 17.7017 8.76559 17.8047 8.76904C17.9265 8.77308 18.0508 8.75059 18.1699 8.70068L28.6719 4.30029C29.1054 4.11882 29.5639 4.0224 30.0254 4.00537C30.0716 4.00105 30.1186 3.99953 30.166 3.99951C30.1847 3.99951 30.2119 4.00067 30.2305 4.00146ZM41 36.6226L31.752 32.7534V7.58936L40.3691 11.2007C40.5402 11.2723 40.6997 11.4013 40.8164 11.5815C40.9335 11.7627 40.9999 11.9847 41 12.2163V36.6226ZM7.1836 32.603C7.0666 32.4218 6.99997 32.1998 7 31.9683V7.5542L16.2559 11.4331V36.5952L7.63086 32.9839C7.45964 32.9121 7.30031 32.7836 7.1836 32.603Z" fill="#FAFAFA"/>
</svg>
