<svg width="48" height="48" viewBox="0 0 48 48" fill="none" xmlns="http://www.w3.org/2000/svg">
<path d="M39.112 27.1984C39.3219 27.1962 39.5304 27.2354 39.7252 27.3136C39.9202 27.392 40.0985 27.5085 40.2487 27.6554C40.3987 27.8023 40.5177 27.978 40.6002 28.171C40.6827 28.3642 40.7268 28.5724 40.7291 28.7824C40.7314 28.9926 40.6923 29.2025 40.6139 29.3976C40.5355 29.5925 40.4191 29.771 40.2721 29.921L36.0807 34.1593C35.9859 34.2606 35.9178 34.3848 35.8815 34.5187C35.8453 34.6525 35.841 34.7937 35.8717 34.9289C36.4302 36.9945 37.3817 38.9331 38.6725 40.6398C38.8505 40.8787 38.9576 41.1633 38.9831 41.4601C39.0084 41.7565 38.9515 42.0541 38.817 42.3195C38.6841 42.5833 38.4805 42.8067 38.2291 42.9621C37.978 43.1172 37.6884 43.1993 37.3932 43.2003H32.4811C32.2689 43.2003 32.0647 43.116 31.9147 42.966C31.7647 42.8159 31.6803 42.6117 31.6803 42.3996V37.6007C31.6803 37.2825 31.5538 36.9762 31.3288 36.7511C31.1039 36.5264 30.799 36.3997 30.4811 36.3996C30.1628 36.3996 29.8565 36.5261 29.6315 36.7511C29.4065 36.9762 29.2799 37.2825 29.2799 37.6007V42.3996C29.2799 42.6117 29.1956 42.8159 29.0456 42.966C28.8957 43.1156 28.6929 43.2002 28.4811 43.2003H25.1374C24.9252 43.2003 24.721 43.1159 24.5709 42.966C24.4209 42.8159 24.3366 42.6117 24.3366 42.3996V37.6007C24.3366 37.2825 24.2101 36.9762 23.985 36.7511C23.7602 36.5264 23.4552 36.3998 23.1373 36.3996C22.8191 36.3996 22.5128 36.5261 22.2877 36.7511C22.0627 36.9762 21.9362 37.2825 21.9362 37.6007V42.3996C21.9362 42.6117 21.8518 42.8159 21.7018 42.966C21.552 43.1156 21.3491 43.2001 21.1373 43.2003H18.0807C17.8685 43.2003 17.6643 43.116 17.5143 42.966C17.3644 42.8159 17.2799 42.6116 17.2799 42.3996V37.6007C17.2799 37.2825 17.1534 36.9762 16.9284 36.7511C16.7034 36.5265 16.3986 36.3996 16.0807 36.3996C15.7624 36.3996 15.4561 36.5261 15.2311 36.7511C15.0062 36.9761 14.8815 37.2826 14.8815 37.6007V42.3996C14.8815 42.6116 14.7969 42.816 14.6471 42.966C14.4971 43.116 14.2928 43.2003 14.0807 43.2003H8.88149C8.58461 43.2003 8.2923 43.118 8.03969 42.9621C7.78697 42.8059 7.58274 42.5813 7.44985 42.3156C7.31696 42.0498 7.26106 41.7521 7.28774 41.4562C7.31446 41.1603 7.42201 40.8774 7.60024 40.6398C9.83495 37.6371 11.0821 34.0146 11.1686 30.2726C11.2014 29.6587 11.4683 29.0801 11.9147 28.6574C12.3613 28.2346 12.954 27.9983 13.569 27.9992H32.7682C33.2952 27.9888 33.8108 28.1603 34.2272 28.4835C34.6434 28.8067 34.9366 29.2636 35.0573 29.7765C35.0779 29.8443 35.1146 29.9061 35.1647 29.9562C35.2148 30.0063 35.2766 30.043 35.3444 30.0636C35.4123 30.082 35.4839 30.0812 35.5514 30.0617C35.6192 30.0419 35.6816 30.0044 35.7291 29.9523L37.985 27.6808C38.1321 27.5306 38.3073 27.4098 38.5006 27.3273C38.6939 27.2449 38.9019 27.2006 39.112 27.1984Z" fill="#FAFAFA"/>
<path d="M35.8405 5.04018C36.3135 4.79213 36.8657 4.74253 37.3756 4.90151C37.8854 5.06054 38.311 5.41502 38.5592 5.88784C38.8073 6.36073 38.8586 6.91313 38.6999 7.42299C38.5408 7.93309 38.1847 8.3603 37.7116 8.60854L23.7916 15.9992C23.6757 16.0429 23.5723 16.1146 23.4889 16.2062C23.4055 16.298 23.3437 16.4088 23.3112 16.5285C23.2871 16.6404 23.2874 16.7559 23.3092 16.8683C23.3312 16.9811 23.3754 17.0897 23.4401 17.1847C24.991 19.1339 26.9525 20.717 29.1842 21.8234C29.4461 21.9576 29.6654 22.1622 29.819 22.4132C29.9724 22.6642 30.0552 22.953 30.0553 23.2472C30.0553 23.5417 29.9726 23.8319 29.819 24.0832C29.6654 24.3341 29.4461 24.5388 29.1842 24.673L25.6002 26.3683C25.4955 26.4191 25.3807 26.4464 25.2643 26.4484H15.8073C15.699 26.4488 15.5918 26.4259 15.4928 26.382C15.3935 26.3378 15.3035 26.2735 15.2311 26.1925C15.1522 26.1168 15.0921 26.0234 15.0534 25.921C15.0147 25.8189 14.9995 25.7096 15.0084 25.6007C15.0681 24.3636 14.9874 23.1225 14.7682 21.9035C14.7455 21.7793 14.6924 21.662 14.6159 21.5617C14.5393 21.4615 14.4405 21.3798 14.3268 21.3253C14.213 21.2708 14.0877 21.2442 13.9616 21.2472C13.8352 21.2503 13.7114 21.2847 13.6002 21.3449L12.7995 21.7609C12.5336 21.905 12.2383 21.9856 11.9362 21.9992L11.8873 21.9679C11.4429 21.9665 11.0109 21.818 10.6608 21.5441C10.3106 21.2701 10.062 20.8855 9.95376 20.4542C9.84574 20.0232 9.88399 19.5679 10.0631 19.1613C10.2424 18.7545 10.5528 18.4193 10.944 18.2082L12.5436 17.3761C12.6866 17.2974 12.8034 17.1778 12.8776 17.0324C12.9517 16.8869 12.9799 16.7217 12.9596 16.5597C12.9243 16.2371 12.989 15.9117 13.1432 15.6261C13.2975 15.3403 13.5355 15.1076 13.8248 14.9601L18.8795 12.4796C19.1499 12.3462 19.4527 12.2924 19.7526 12.3234C20.0527 12.3545 20.3395 12.4692 20.5768 12.6554C20.7049 12.7399 20.855 12.7863 21.0084 12.7863C21.1619 12.7862 21.3121 12.74 21.4401 12.6554L35.8405 5.04018Z" fill="#FAFAFA"/>
</svg>
