<svg width="48" height="48" viewBox="0 0 48 48" fill="none" xmlns="http://www.w3.org/2000/svg">
<path d="M5.25 9.375C6.64239 9.375 7.97832 9.92754 8.96289 10.9121C9.94746 11.8967 10.5 13.2326 10.5 14.625V31.5C10.5 32.0967 10.7362 32.6698 11.1582 33.0918C11.5802 33.5138 12.1533 33.75 12.75 33.75H42.75C43.5784 33.75 44.25 34.4216 44.25 35.25C44.25 36.0784 43.5784 36.75 42.75 36.75H39.9883C40.3191 37.4473 40.5 38.2135 40.5 39C40.5 40.3924 39.9475 41.7283 38.9629 42.7129C37.9783 43.6975 36.6424 44.25 35.25 44.25C33.8576 44.25 32.5217 43.6975 31.5371 42.7129C30.5525 41.7283 30 40.3924 30 39C30 38.2135 30.1809 37.4473 30.5117 36.75H23.1133C23.4441 37.4473 23.625 38.2135 23.625 39C23.625 40.3924 23.0725 41.7283 22.0879 42.7129C21.1033 43.6975 19.7674 44.25 18.375 44.25C16.9826 44.25 15.6467 43.6975 14.6621 42.7129C13.6775 41.7283 13.125 40.3924 13.125 39C13.125 38.2135 13.3059 37.4473 13.6367 36.75H12.75C11.3576 36.75 10.0217 36.1975 9.03711 35.2129C8.05254 34.2283 7.5 32.8924 7.5 31.5V14.625C7.5 14.0283 7.26375 13.4552 6.8418 13.0332C6.41984 12.6112 5.84674 12.375 5.25 12.375C4.42157 12.375 3.75 11.7034 3.75 10.875C3.75 10.0466 4.42157 9.375 5.25 9.375Z" fill="#FAFAFA"/>
<path fill-rule="evenodd" clip-rule="evenodd" d="M29.625 3.75C31.0174 3.75 32.3533 4.30254 33.3379 5.28711C34.3225 6.27168 34.875 7.60761 34.875 9V11.25H39.0293C39.041 11.2502 39.0549 11.2514 39.0703 11.252C39.1017 11.253 39.1417 11.2545 39.1875 11.2578C39.2785 11.2643 39.3988 11.2755 39.5391 11.2988C39.8129 11.3445 40.2013 11.4396 40.6074 11.6426C41.0197 11.8487 41.4786 12.1817 41.8301 12.709C42.1879 13.2456 42.375 13.8938 42.375 14.625V25.9043C42.3748 25.916 42.3736 25.9299 42.373 25.9453C42.372 25.9767 42.3705 26.0167 42.3672 26.0625C42.3607 26.1535 42.3495 26.2738 42.3262 26.4141C42.2805 26.6879 42.1854 27.0763 41.9824 27.4824C41.7763 27.8947 41.4433 28.3536 40.916 28.7051C40.3794 29.0629 39.7312 29.25 39 29.25H18.3457C18.334 29.2498 18.3201 29.2486 18.3047 29.248C18.2733 29.247 18.2333 29.2455 18.1875 29.2422C18.0965 29.2357 17.9762 29.2245 17.8359 29.2012C17.5621 29.1555 17.1737 29.0604 16.7676 28.8574C16.3553 28.6513 15.8964 28.3183 15.5449 27.791C15.1871 27.2544 15 26.6062 15 25.875V14.5957C15.0002 14.584 15.0014 14.5701 15.002 14.5547C15.003 14.5233 15.0045 14.4833 15.0078 14.4375C15.0143 14.3465 15.0255 14.2262 15.0488 14.0859C15.0945 13.8121 15.1896 13.4237 15.3926 13.0176C15.5987 12.6053 15.9317 12.1464 16.459 11.7949C16.9956 11.4371 17.6438 11.25 18.375 11.25H22.5V9C22.5 7.60761 23.0525 6.27168 24.0371 5.28711C25.0217 4.30254 26.3576 3.75 27.75 3.75H29.625ZM18.168 14.2734C18.1365 14.2825 18.123 14.291 18.123 14.291C18.123 14.291 18.1041 14.3018 18.0762 14.3574C18.0451 14.4196 18.0227 14.5008 18.0098 14.5781C18.004 14.6124 18.0009 14.6386 18 14.6504V25.875C18 25.9836 18.014 26.0491 18.0234 26.082C18.0325 26.1135 18.041 26.127 18.041 26.127C18.041 26.127 18.0518 26.1459 18.1074 26.1738C18.1696 26.2049 18.2508 26.2273 18.3281 26.2402C18.3624 26.246 18.3886 26.2491 18.4004 26.25H22.5V14.25H18.375C18.2664 14.25 18.2009 14.264 18.168 14.2734ZM34.875 26.25H39C39.1086 26.25 39.1741 26.236 39.207 26.2266C39.2385 26.2175 39.252 26.209 39.252 26.209C39.252 26.209 39.2709 26.1982 39.2988 26.1426C39.3299 26.0804 39.3523 25.9992 39.3652 25.9219C39.371 25.8876 39.3741 25.8614 39.375 25.8496V14.625C39.375 14.5164 39.361 14.4509 39.3516 14.418C39.3425 14.3865 39.334 14.373 39.334 14.373C39.334 14.373 39.3232 14.3541 39.2676 14.3262C39.2054 14.2951 39.1242 14.2727 39.0469 14.2598C39.0126 14.254 38.9864 14.2509 38.9746 14.25H34.875V26.25ZM27.75 6.75C27.1533 6.75 26.5802 6.98625 26.1582 7.4082C25.7362 7.83016 25.5 8.40326 25.5 9V11.25H31.875V9C31.875 8.40326 31.6388 7.83016 31.2168 7.4082C30.7948 6.98625 30.2217 6.75 29.625 6.75H27.75Z" fill="#FAFAFA"/>
</svg>
