<svg width="48" height="48" viewBox="0 0 48 48" fill="none" xmlns="http://www.w3.org/2000/svg">
<path fill-rule="evenodd" clip-rule="evenodd" d="M17.6008 8C15.7925 8 14.0997 8.88886 13.0731 10.3775L5.8317 20.8775C4.53526 22.7573 4.53527 25.2427 5.83171 27.1225L13.0731 37.6225C14.0997 39.1111 15.7925 40 17.6008 40H38.5004C41.5379 40 44.0004 37.5376 44.0004 34.5V13.5C44.0004 10.4624 41.5379 8 38.5004 8H17.6008ZM21.4364 18.9393C22.0222 18.3536 22.9719 18.3536 23.5577 18.9393L26.5004 21.882L29.443 18.9393C30.0288 18.3536 30.9786 18.3536 31.5644 18.9393C32.1501 19.5251 32.1501 20.4749 31.5644 21.0607L28.6217 24.0033L31.561 26.9427C32.1468 27.5285 32.1468 28.4782 31.561 29.064C30.9752 29.6498 30.0255 29.6498 29.4397 29.064L26.5004 26.1247L23.561 29.064C22.9752 29.6498 22.0255 29.6498 21.4397 29.064C20.8539 28.4782 20.8539 27.5285 21.4397 26.9427L24.379 24.0033L21.4364 21.0607C20.8506 20.4749 20.8506 19.5251 21.4364 18.9393Z" fill="#FAFAFA"/>
</svg>
