<svg width="48" height="48" viewBox="0 0 48 48" fill="none" xmlns="http://www.w3.org/2000/svg">
<path fill-rule="evenodd" clip-rule="evenodd" d="M33.375 2.8125C35.1845 2.8125 36.5459 2.87816 37.5508 2.96387C39.6855 3.14549 41.2333 4.81263 41.3701 6.89551C41.4096 7.50063 41.4375 8.20814 41.4375 9C41.4375 9.79186 41.4096 10.4984 41.3701 11.1035C41.2333 13.1866 39.6848 14.8538 37.5498 15.0352C36.8444 15.0953 35.9633 15.144 34.875 15.1689V18.9102C36.1178 19.1686 37.3075 19.4402 38.4238 19.7295L38.7041 19.8086C41.5616 20.6869 43.3123 23.3873 43.3125 26.2656V42.1875H43.6875C44.5159 42.1875 45.1875 42.8591 45.1875 43.6875C45.1875 44.5159 44.5159 45.1875 43.6875 45.1875H4.3125C3.48407 45.1875 2.8125 44.5159 2.8125 43.6875C2.8125 42.8591 3.48407 42.1875 4.3125 42.1875H4.6875V22.123C4.68779 18.72 7.45695 15.8984 10.9375 16.0547C17.1605 16.3358 25.0398 17.1185 31.875 18.333V15.1689C30.7862 15.1443 29.9048 15.0963 29.1992 15.0361C27.0645 14.8545 25.5167 13.1874 25.3799 11.1045C25.3503 10.6508 25.327 10.1391 25.3174 9.57812L25.3125 9C25.312 8.29862 25.3339 7.59739 25.3789 6.89746L25.3799 6.89551C25.5166 4.81267 27.0646 3.14652 29.1992 2.96484C30.2041 2.87913 31.5655 2.8125 33.375 2.8125ZM8 42H16V34H8V42ZM20 42H28V34H20V42ZM32 42H40V34H32V42ZM33.375 5.8125C32.0713 5.8125 31.0281 5.84793 30.2051 5.89844L29.4541 5.95312C28.8517 6.00429 28.4164 6.43378 28.373 7.0918C28.3322 7.72666 28.312 8.36284 28.3125 8.99902L28.3174 9.52637C28.3261 10.0373 28.3464 10.5001 28.373 10.9082L28.3857 11.0283C28.4655 11.5788 28.8347 11.9465 29.3428 12.0322L29.4541 12.0469L30.2051 12.1016C31.0281 12.1521 32.0713 12.1875 33.375 12.1875C35.113 12.1875 36.3883 12.1243 37.2959 12.0469L37.4072 12.0322C37.9514 11.9404 38.3364 11.525 38.377 10.9082L38.4209 10.0215C38.4316 9.70269 38.4375 9.36154 38.4375 9C38.4375 8.63846 38.4316 8.29731 38.4209 7.97852L38.377 7.0918C38.3364 6.47496 37.9514 6.05955 37.4072 5.96777L37.2959 5.95312C36.3883 5.87571 35.113 5.8125 33.375 5.8125Z" fill="#FAFAFA"/>
</svg>
