<svg width="48" height="48" viewBox="0 0 48 48" fill="none" xmlns="http://www.w3.org/2000/svg">
<path fill-rule="evenodd" clip-rule="evenodd" d="M7.5 10C4.46243 10 2 12.4624 2 15.5V32.5C2 35.5376 4.46243 38 7.5 38H34.5C37.5376 38 40 35.5376 40 32.5V32H42.5C44.433 32 46 30.433 46 28.5V19.5C46 17.567 44.433 16 42.5 16H40V15.5C40 12.4624 37.5376 10 34.5 10H7.5ZM40 19V29H42.5C42.7761 29 43 28.7761 43 28.5V19.5C43 19.2239 42.7761 19 42.5 19H40ZM14.4393 18.4393C15.0251 17.8536 15.9749 17.8536 16.5607 18.4393L20 21.8787L23.4393 18.4393C24.0251 17.8536 24.9749 17.8536 25.5607 18.4393C26.1464 19.0251 26.1464 19.9749 25.5607 20.5607L22.1213 24L25.5607 27.4393C26.1464 28.0251 26.1464 28.9749 25.5607 29.5607C24.9749 30.1464 24.0251 30.1464 23.4393 29.5607L20 26.1213L16.5607 29.5607C15.9749 30.1464 15.0251 30.1464 14.4393 29.5607C13.8536 28.9749 13.8536 28.0251 14.4393 27.4393L17.8787 24L14.4393 20.5607C13.8536 19.9749 13.8536 19.0251 14.4393 18.4393Z" fill="#FAFAFA"/>
</svg>
