<svg width="48" height="48" viewBox="0 0 48 48" fill="none" xmlns="http://www.w3.org/2000/svg">
<path d="M23.334 12.7559C23.7529 12.5488 24.2451 12.5489 24.6641 12.7559L34.7539 17.7441C35.2792 18.0039 35.6066 18.547 35.5898 19.1328C35.5728 19.7186 35.2152 20.2417 34.6758 20.4707L25.5 24.3594V34.7715C25.5 35.3049 25.2165 35.7995 24.7559 36.0684C24.2952 36.337 23.726 36.3405 23.2617 36.0781L13.1719 30.375C12.7013 30.1088 12.4102 29.609 12.4102 29.0684V19.0898C12.4103 18.5195 12.7348 17.997 13.2461 17.7441L23.334 12.7559Z" fill="#FAFAFA"/>
<path fill-rule="evenodd" clip-rule="evenodd" d="M24 6C24.3333 6 24.6607 6.08099 24.9492 6.23438L41.0547 14.7969C41.3421 14.9498 41.5802 15.1693 41.7461 15.4336C41.912 15.698 42.0001 15.9975 42 16.3027V31.6992L41.9844 31.9258C41.952 32.1512 41.8706 32.3701 41.7461 32.5684L41.6094 32.7578C41.4589 32.9379 41.2699 33.0886 41.0547 33.2031L24.9492 41.7656C24.6607 41.919 24.3333 42 24 42C23.7499 42 23.503 41.9547 23.2734 41.8672L23.0508 41.7656L6.94531 33.2031C6.7296 33.0884 6.54123 32.9365 6.39063 32.7559L6.25391 32.5664C6.08801 32.302 5.99987 32.0025 6 31.6973V16.3047C5.99983 15.9994 6.08797 15.7 6.25391 15.4355C6.41977 15.1712 6.65785 14.9498 6.94531 14.7969L23.0508 6.23438C23.3393 6.08099 23.6667 6 24 6ZM9 17.1016V30.8965L24 38.873L39 30.8965V17.1016L24 9.125L9 17.1016Z" fill="#FAFAFA"/>
</svg>
