<svg width="48" height="48" viewBox="0 0 48 48" fill="none" xmlns="http://www.w3.org/2000/svg">
<path fill-rule="evenodd" clip-rule="evenodd" d="M24 4C35.0457 4 44 12.9543 44 24C44 35.0457 35.0457 44 24 44C12.9543 44 4 35.0457 4 24C4 12.9543 12.9543 4 24 4ZM27.4082 10.6289C26.7789 10.3498 26.0405 10.5353 25.6172 11.0781L15.8164 23.6484C15.5233 24.0245 15.4275 24.5195 15.5566 24.9785C15.686 25.4368 16.0251 25.8065 16.4707 25.9746L21.3398 27.8105L19.7305 35.6992C19.59 36.3872 19.9454 37.0818 20.5859 37.3691C21.227 37.656 21.9825 37.4595 22.4023 36.8965L32.2031 23.7539C32.4671 23.3997 32.5612 22.9458 32.4609 22.5156C32.3604 22.0857 32.0748 21.7223 31.6816 21.5215L27.0664 19.166L28.2773 12.2578C28.3956 11.5799 28.0372 10.9082 27.4082 10.6289Z" fill="#FAFAFA"/>
</svg>
