<svg width="48" height="48" viewBox="0 0 48 48" fill="none" xmlns="http://www.w3.org/2000/svg">
<path fill-rule="evenodd" clip-rule="evenodd" d="M22.0004 6C22.8288 6 23.5004 6.67157 23.5004 7.5C23.5004 8.32843 22.8288 9 22.0004 9C21.4351 9.00013 20.8232 9.26724 20.3246 9.86523C19.8192 10.4718 19.5004 11.3462 19.5004 12.3008V14H33.6293C35.7982 14.0005 37.4448 15.954 37.0785 18.0918L36.4144 21.9668C36.1916 23.2659 35.6652 24.4968 34.8461 25.4297C34.3029 26.0483 33.6272 26.5263 32.8656 26.7852L31.3012 40.875H33.3754C34.2038 40.875 34.8754 41.5466 34.8754 42.375C34.8754 43.2034 34.2038 43.875 33.3754 43.875H14.6254C13.7971 43.8748 13.1254 43.2033 13.1254 42.375C13.1254 41.5467 13.7971 40.8752 14.6254 40.875H16.6996L15.1332 26.7852C14.3726 26.526 13.6974 26.0477 13.1547 25.4297C12.3356 24.4968 11.8091 23.2658 11.5863 21.9668L10.9223 18.0918C10.556 15.9541 12.2028 14.0007 14.3715 14H16.5004V12.3008C16.5004 10.7095 17.0252 9.13903 18.0199 7.94531C19.0212 6.74388 20.4446 6.00013 22.0004 6ZM14.3715 17C14.0623 17.0007 13.8274 17.2791 13.8793 17.584L14.5434 21.459C14.6914 22.3228 15.0228 23.0117 15.4086 23.4512C15.7868 23.8817 16.1421 23.9998 16.391 24H31.6098C31.8586 23.9999 32.2139 23.8818 32.5922 23.4512C32.978 23.0118 33.3093 22.3229 33.4574 21.459L34.1215 17.584C34.1734 17.279 33.9386 17.0005 33.6293 17H14.3715Z" fill="#FAFAFA"/>
</svg>
