<svg width="48" height="48" viewBox="0 0 48 48" fill="none" xmlns="http://www.w3.org/2000/svg">
<path d="M25.25 30.5C23.7942 31.7018 21.9276 32.4236 19.8926 32.4238C17.8577 32.4237 15.9913 31.7016 14.5352 30.5H25.25Z" fill="#FAFAFA"/>
<path d="M28.1777 25.5C28.0517 26.2007 27.8405 26.871 27.5527 27.5H12.2305C11.9426 26.871 11.7315 26.2006 11.6055 25.5H28.1777Z" fill="#FAFAFA"/>
<path d="M27.5527 20.5C27.8407 21.1289 28.0516 21.7994 28.1777 22.5H11.6055C11.7317 21.7995 11.9425 21.1289 12.2305 20.5H27.5527Z" fill="#FAFAFA"/>
<path d="M19.8926 15.5781C21.9266 15.5784 23.7926 16.2992 25.248 17.5H14.5371C15.9929 16.2995 17.8587 15.5782 19.8926 15.5781Z" fill="#FAFAFA"/>
<path fill-rule="evenodd" clip-rule="evenodd" d="M40 8C42.2091 8 44 9.79086 44 12V36C44 38.2091 42.2091 40 40 40H8L7.5918 39.9785C5.57445 39.774 4 38.0713 4 36V12C4 9.79086 5.79086 8 8 8H40ZM19.8926 12.5781C13.5841 12.5784 8.46875 17.6935 8.46875 24.002L8.48438 24.5879C8.78049 30.4288 13.4637 35.1123 19.3047 35.4082L19.8926 35.4238C26.0036 35.4233 30.9928 30.623 31.2988 24.5879L31.3145 24.002C31.3145 17.8901 26.5144 12.8993 20.4785 12.5938L19.8926 12.5781ZM37.7891 25.9844C36.9609 25.9847 36.2891 26.6562 36.2891 27.4844V32.6953L36.2969 32.8477C36.3736 33.6039 37.0126 34.195 37.7891 34.1953C38.5658 34.1953 39.2045 33.6041 39.2812 32.8477L39.2891 32.6953V27.4844C39.2891 26.6559 38.6175 25.9844 37.7891 25.9844Z" fill="#FAFAFA"/>
</svg>
