<svg width="48" height="48" viewBox="0 0 48 48" fill="none" xmlns="http://www.w3.org/2000/svg">
<path fill-rule="evenodd" clip-rule="evenodd" d="M11.1255 10.9856C11.1255 10.3308 11.2606 9.68255 11.523 9.07767C11.7853 8.47279 12.1699 7.92319 12.6548 7.46024C13.1396 6.99729 13.7151 6.63005 14.3486 6.3795C14.982 6.12896 15.661 6 16.3466 6C17.0323 6 17.7112 6.12896 18.3446 6.3795C18.9781 6.63005 19.5537 6.99729 20.0385 7.46024C20.5233 7.92319 20.9079 8.47279 21.1703 9.07767C21.4327 9.68255 21.5677 10.3308 21.5677 10.9856C21.5677 12.3078 21.0176 13.5759 20.0385 14.5109C19.0593 15.4459 17.7313 15.9711 16.3466 15.9711C14.9619 15.9711 13.6339 15.4459 12.6548 14.5109C11.6756 13.5759 11.1255 12.3078 11.1255 10.9856ZM26.2566 10.9856C26.2566 9.66331 26.8067 8.39521 27.7858 7.46024C28.765 6.52526 30.093 6 31.4777 6C32.8624 6 34.1904 6.52526 35.1696 7.46024C36.1487 8.39521 36.6988 9.66331 36.6988 10.9856C36.6988 12.3078 36.1487 13.5759 35.1696 14.5109C34.1904 15.4459 32.8624 15.9711 31.4777 15.9711C30.093 15.9711 28.765 15.4459 27.7858 14.5109C26.8067 13.5759 26.2566 12.3078 26.2566 10.9856ZM22.8234 34.7293L21.6582 37.413L21.6321 37.4794C21.0094 39.0671 21.2268 40.7063 22.1469 41.9884C21.9903 42 21.8373 42 21.6825 42C20.5468 42 19.6024 41.4586 19.0337 40.3741L16.9553 35.8602L14.1187 33.6929L13.9291 35.3172C13.9291 36.0396 13.5517 36.5826 13.1726 36.9447L9.01239 41.0966C8.44541 41.638 7.68886 41.819 6.9323 41.819C6.17575 41.819 5.41919 41.6396 4.85047 41.0966C3.71651 40.0137 3.71651 38.3895 4.85047 37.3051L8.25584 33.8723C8.6002 28.6177 9.52024 24.4144 10.9029 19.2445C11.0925 18.341 11.849 17.6186 12.7952 17.2582C13.7396 17.0772 14.8753 17.2582 15.4422 17.9806L19.1537 21.347C18.9071 22.301 18.9734 23.3044 19.3435 24.2214C19.7137 25.1383 20.3699 25.9245 21.2234 26.4737L19.792 27.0101C18.8476 27.3705 17.5223 27.1911 16.7658 26.4687L15.9988 25.8808L15.0648 28.2523L21.3051 31.8861C21.6842 32.2481 21.8738 32.4275 22.0617 32.9705L22.8252 34.7309L22.8234 34.7293ZM26.6949 31.8861L32.9352 28.2523L32.0012 25.8808L31.2342 26.4687C30.4777 27.1911 29.1524 27.3705 28.208 27.0101L22.9121 25.0239C21.399 24.3014 20.832 22.8566 21.399 21.4117C22.1556 19.9669 23.6687 19.4255 25.1818 19.9669L28.775 21.4117L32.5578 17.9806C33.1247 17.2582 34.2604 17.0772 35.2048 17.2582C36.151 17.6186 36.9075 18.341 37.0971 19.2445C38.4798 24.4144 39.4015 28.6177 39.7442 33.8723L43.1495 37.3051C44.2835 38.3879 44.2835 40.0121 43.1495 41.0966C42.5808 41.638 41.826 41.819 41.0677 41.819C40.3129 41.819 39.5546 41.6396 38.9876 41.0966L34.8274 36.9447C34.4483 36.5826 34.0709 36.0396 34.0709 35.3172L33.8813 33.6929L31.0447 35.8602L28.9646 40.3741C28.3958 41.4586 27.4515 42 26.3158 42C25.9383 42 25.5592 42 25.1818 41.819C23.6687 41.0966 23.1 39.6517 23.6687 38.2069L25.9383 32.9705C26.1262 32.4275 26.3158 32.2481 26.6949 31.8861Z" fill="#FAFAFA"/>
</svg>
