<svg width="48" height="48" viewBox="0 0 48 48" fill="none" xmlns="http://www.w3.org/2000/svg">
<path d="M17.8125 26.377H13.8027L17.8125 20.6445V26.377Z" fill="#FAFAFA"/>
<path fill-rule="evenodd" clip-rule="evenodd" d="M38.5 8C41.5376 8 44 10.4624 44 13.5V34.5C44 37.5376 41.5376 40 38.5 40H9.5C6.46243 40 4 37.5376 4 34.5V13.5C4 10.4624 6.46243 8 9.5 8H38.5ZM17.7578 16.8906L11.127 26.2988V28.7988H17.7461V31.4766H20.6797V28.7988H22.623V26.377H20.6797V16.8906H17.7578ZM24.623 16.5254V31.4766H27.7441V23.8223L33.375 31.4766H36.9531L31.0215 23.5781L36.5742 16.5254H33.1309L27.7441 23.6562V16.5254H24.623Z" fill="#FAFAFA"/>
</svg>
