<svg width="48" height="48" viewBox="0 0 48 48" fill="none" xmlns="http://www.w3.org/2000/svg">
<path d="M24 36C25.0608 36 26.0779 36.4218 26.8281 37.1719C27.5782 37.9221 28 38.9392 28 40C28 41.0608 27.5782 42.0779 26.8281 42.8281C26.0779 43.5782 25.0608 44 24 44C23.0717 44 22.1767 43.677 21.4648 43.0938L21.1719 42.8281C20.4217 42.0779 20 41.0608 20 40C20 39.0717 20.3229 38.1767 20.9062 37.4648L21.1719 37.1719C21.9221 36.4218 22.9392 36 24 36Z" fill="#FAFAFA"/>
<path d="M10 20C10.5253 20 11.046 20.1037 11.5312 20.3047C12.0163 20.5056 12.4568 20.8006 12.8281 21.1719C13.1994 21.5431 13.4943 21.9836 13.6953 22.4688C13.8963 22.9539 14 23.4747 14 24C14 24.5253 13.8963 25.0461 13.6953 25.5312C13.4943 26.0164 13.1994 26.4569 12.8281 26.8281C12.4568 27.1994 12.0164 27.4944 11.5312 27.6953C11.046 27.8964 10.5253 28 10 28C9.47472 28 8.95405 27.8964 8.46875 27.6953C8.10488 27.5446 7.76627 27.3408 7.46289 27.0918L7.17188 26.8281C6.80059 26.4569 6.50569 26.0164 6.30469 25.5312C6.10367 25.0461 6 24.5253 6 24C6 23.6062 6.05808 23.2153 6.17188 22.8398L6.30469 22.4688C6.45545 22.1049 6.65927 21.7663 6.9082 21.4629L7.17188 21.1719C7.45028 20.8935 7.76735 20.6577 8.11328 20.4727L8.46875 20.3047C8.95405 20.1037 9.47472 20 10 20Z" fill="#FAFAFA"/>
<path d="M24 20C25.0608 20 26.0779 20.4217 26.8281 21.1719C27.5782 21.9221 28 22.9392 28 24C28 25.0608 27.5782 26.0779 26.8281 26.8281C26.0779 27.5782 25.0608 28 24 28C23.0717 28 22.1767 27.677 21.4648 27.0938L21.1719 26.8281C20.4217 26.0779 20 25.0608 20 24C20 23.0717 20.3229 22.1767 20.9062 21.4648L21.1719 21.1719C21.9221 20.4217 22.9392 20 24 20Z" fill="#FAFAFA"/>
<path d="M38 20C39.0608 20 40.0779 20.4217 40.8281 21.1719C41.5782 21.9221 42 22.9392 42 24C42 25.0608 41.5782 26.0779 40.8281 26.8281C40.0779 27.5782 39.0608 28 38 28C37.0717 28 36.1767 27.677 35.4648 27.0938L35.1719 26.8281C34.4218 26.0779 34 25.0608 34 24C34 23.0717 34.323 22.1767 34.9062 21.4648L35.1719 21.1719C35.9221 20.4217 36.9392 20 38 20Z" fill="#FAFAFA"/>
<path d="M10 4C10.5253 4 11.046 4.10367 11.5312 4.30469C12.0163 4.50569 12.4568 4.80057 12.8281 5.17188C13.1994 5.54318 13.4943 5.98365 13.6953 6.46875C13.8963 6.95405 14 7.47472 14 8C14 8.52528 13.8963 9.04595 13.6953 9.53125L13.5273 9.88672C13.3423 10.2326 13.1065 10.5497 12.8281 10.8281C12.4568 11.1994 12.0163 11.4943 11.5312 11.6953L11.1602 11.8281C10.7847 11.9419 10.3938 12 10 12C9.47472 12 8.95405 11.8963 8.46875 11.6953C8.10489 11.5445 7.76627 11.3407 7.46289 11.0918L7.17188 10.8281C6.89346 10.5497 6.65769 10.2326 6.47266 9.88672L6.30469 9.53125C6.10367 9.04595 6 8.52528 6 8C6 7.60623 6.05808 7.21533 6.17188 6.83984L6.30469 6.46875C6.45546 6.10489 6.65925 5.76627 6.9082 5.46289L7.17188 5.17188C7.45029 4.89346 7.76735 4.65769 8.11328 4.47266L8.46875 4.30469C8.95405 4.10367 9.47472 4 10 4Z" fill="#FAFAFA"/>
<path d="M24 4C25.0608 4 26.0779 4.42173 26.8281 5.17188C27.5782 5.92203 28 6.93913 28 8C28 9.06087 27.5782 10.078 26.8281 10.8281C26.0779 11.5783 25.0608 12 24 12C23.0717 12 22.1767 11.6771 21.4648 11.0938L21.1719 10.8281C20.4217 10.078 20 9.06087 20 8C20 7.07162 20.3229 6.17667 20.9062 5.46484L21.1719 5.17188C21.9221 4.42173 22.9392 4 24 4Z" fill="#FAFAFA"/>
<path d="M38 4C39.0608 4 40.0779 4.42173 40.8281 5.17188C41.5782 5.92203 42 6.93913 42 8C42 9.06087 41.5782 10.078 40.8281 10.8281C40.0779 11.5783 39.0608 12 38 12C37.0717 12 36.1767 11.6771 35.4648 11.0938L35.1719 10.8281C34.4218 10.078 34 9.06087 34 8C34 7.07162 34.323 6.17667 34.9062 5.46484L35.1719 5.17188C35.9221 4.42173 36.9392 4 38 4Z" fill="#FAFAFA"/>
</svg>
