<svg width="48" height="48" viewBox="0 0 48 48" fill="none" xmlns="http://www.w3.org/2000/svg">
<g clip-path="url(#clip0_11422_1905)">
<path d="M20.2503 7C26.8777 7 32.2503 12.3726 32.2503 19C32.2503 23.5114 29.7596 27.4387 26.0794 29.4883C30.7002 31.108 34.5809 34.6113 37.5139 39.1914C37.8093 39.653 37.8297 40.2399 37.5667 40.7207C37.3035 41.2014 36.7983 41.5 36.2503 41.5H4.25026C3.7023 41.4999 3.197 41.2013 2.93386 40.7207C2.67092 40.24 2.69133 39.653 2.98659 39.1914L3.37722 38.5977C6.26089 34.3089 10.0034 31.0383 14.4221 29.4893C10.7416 27.4397 8.25026 23.5117 8.25026 19C8.25026 12.3727 13.623 7.00018 20.2503 7Z" fill="#FAFAFA"/>
<path d="M42.0003 19.5C42.8287 19.5 43.5003 20.1716 43.5003 21V24H46.5003C47.3287 24 48.0003 24.6716 48.0003 25.5C48.0003 26.3284 47.3287 27 46.5003 27H43.5003V30C43.5003 30.8284 42.8287 31.5 42.0003 31.5C41.172 31.4998 40.5003 30.8283 40.5003 30V27H37.5003C36.672 26.9998 36.0003 26.3283 36.0003 25.5C36.0003 24.6717 36.672 24.0002 37.5003 24H40.5003V21C40.5003 20.1717 41.172 19.5002 42.0003 19.5Z" fill="#FAFAFA"/>
</g>
<defs>
<clipPath id="clip0_11422_1905">
<rect width="48" height="48" fill="white"/>
</clipPath>
</defs>
</svg>
