<svg width="48" height="48" viewBox="0 0 48 48" fill="none" xmlns="http://www.w3.org/2000/svg">
<path d="M27.6191 29.7744C27.7239 29.7745 27.8277 29.7953 27.9238 29.8369C28.02 29.8786 28.106 29.9402 28.1777 30.0166L31.4102 33.2314C31.5577 33.3836 31.6405 33.5879 31.6406 33.7998C31.6406 34.0118 31.5578 34.2159 31.4102 34.3682L27.5059 38.2725C27.1965 38.5776 26.8106 38.7932 26.3887 38.8975C25.9665 39.0016 25.5235 38.9906 25.1074 38.8643C25.0371 38.8463 24.9625 38.8468 24.8926 38.8662C24.8226 38.8858 24.758 38.9238 24.707 38.9756L21.0898 42.5928C20.7902 42.8903 20.3851 43.0575 19.9629 43.0576C19.5402 43.0576 19.1338 42.8908 18.834 42.5928C18.684 42.444 18.5656 42.2663 18.4844 42.0713C18.4032 41.8764 18.3613 41.6672 18.3613 41.4561C18.3613 41.2449 18.4032 41.0358 18.4844 40.8408C18.5656 40.6458 18.684 40.4681 18.834 40.3193L22.4512 36.7041C22.5017 36.6524 22.5378 36.5869 22.5547 36.5166C22.5714 36.4464 22.5685 36.3725 22.5469 36.3037C22.4235 35.89 22.4137 35.4512 22.5176 35.0322C22.6217 34.6131 22.836 34.229 23.1387 33.9209L27.0586 30.0166C27.1304 29.9401 27.2181 29.8786 27.3145 29.8369C27.4105 29.7954 27.5145 29.7744 27.6191 29.7744Z" fill="#FAFAFA"/>
<path d="M18.4824 26.0752C18.6913 26.0753 18.8917 26.1576 19.041 26.3037L22.2422 29.5049C22.3892 29.6569 22.4724 29.8598 22.4727 30.0713C22.4727 30.2831 22.3895 30.4875 22.2422 30.6396L21.0586 31.8232C20.7506 32.1316 20.3639 32.351 19.9414 32.458C19.519 32.565 19.0757 32.5571 18.6582 32.4326C18.5893 32.409 18.5142 32.4059 18.4434 32.4229C18.3728 32.4399 18.3084 32.4762 18.2578 32.5283L8.17773 42.6084C7.87188 42.8702 7.47849 43.0065 7.07617 42.9912C6.67356 42.9757 6.29079 42.8093 6.00586 42.5244C5.72091 42.2395 5.55462 41.8568 5.53906 41.4541C5.52364 41.0517 5.65998 40.6585 5.92188 40.3525L16.0332 30.2725C16.0859 30.2255 16.1235 30.1632 16.1406 30.0947C16.1577 30.0263 16.1532 29.9539 16.1289 29.8877C16.0045 29.4702 15.9965 29.0268 16.1035 28.6045C16.2106 28.182 16.4299 27.7953 16.7383 27.4873L17.9219 26.3037C18.0714 26.1573 18.2731 26.0752 18.4824 26.0752Z" fill="#FAFAFA"/>
<path d="M41.4336 18.3838C41.8563 18.3838 42.2627 18.5506 42.5625 18.8486C42.7122 18.9971 42.8309 19.1736 42.9121 19.3682C42.9933 19.5629 43.0351 19.7724 43.0352 19.9834C43.0352 20.1945 42.9932 20.4038 42.9121 20.5986C42.8309 20.7936 42.7125 20.9714 42.5625 21.1201L39.4746 24.1592C39.4253 24.2084 39.39 24.2712 39.373 24.3389C39.3562 24.4065 39.3586 24.4773 39.3789 24.5439C39.5037 24.9604 39.5143 25.4031 39.4102 25.8252C39.306 26.2471 39.0911 26.6338 38.7871 26.9443L34.8672 30.8486C34.7954 30.9251 34.7076 30.9847 34.6113 31.0264C34.515 31.0681 34.4116 31.0908 34.3066 31.0908C34.2017 31.0908 34.0982 31.068 34.002 31.0264C33.9057 30.9847 33.8179 30.9251 33.7461 30.8486L30.5469 27.6475C30.3996 27.4955 30.3167 27.2927 30.3164 27.0811C30.3164 26.8691 30.3994 26.6649 30.5469 26.5127L34.4668 22.6084C34.7713 22.2999 35.1542 22.0808 35.5742 21.9736C35.9941 21.8666 36.4347 21.8762 36.8496 22.001C36.9185 22.0245 36.9937 22.0277 37.0645 22.0107C37.1353 21.9937 37.1993 21.9556 37.25 21.9033L40.3066 18.8486C40.6062 18.5509 41.0112 18.384 41.4336 18.3838Z" fill="#FAFAFA"/>
<path d="M14.7383 16.9287C14.9518 16.9267 15.1584 17.0057 15.3145 17.1514L18.5137 20.3525C18.5901 20.4242 18.6517 20.5103 18.6934 20.6064C18.7349 20.7025 18.7557 20.8065 18.7559 20.9111C18.7559 21.0161 18.7351 21.1215 18.6934 21.2178C18.6517 21.3138 18.59 21.4 18.5137 21.4717L14.6113 25.376C14.3074 25.6904 13.9201 25.9131 13.4961 26.0205C13.0724 26.1277 12.6277 26.1151 12.2109 25.9834C12.1444 25.9631 12.0733 25.9627 12.0059 25.9795C11.9384 25.9964 11.8754 26.0299 11.8262 26.0791L7.68164 30.2236C7.38195 30.5214 6.97719 30.6884 6.55469 30.6885C6.13199 30.6885 5.72556 30.5216 5.42578 30.2236C5.27622 30.0752 5.1573 29.8986 5.07617 29.7041C4.99505 29.5094 4.95324 29.2998 4.95312 29.0889C4.95312 28.8779 4.99516 28.6684 5.07617 28.4736C5.15733 28.2788 5.27599 28.1008 5.42578 27.9521L9.49023 23.8232C9.54199 23.7724 9.57994 23.7094 9.59961 23.6396C9.61922 23.5696 9.61944 23.4953 9.60156 23.4248C9.47936 23.0033 9.47614 22.5552 9.5918 22.1318C9.70749 21.7086 9.93835 21.3252 10.2578 21.0244L14.1777 17.1514C14.328 17.0065 14.5296 16.9275 14.7383 16.9287Z" fill="#FAFAFA"/>
<path d="M24.7695 19.8682C24.9789 19.8682 25.1805 19.9501 25.3301 20.0967L28.5312 23.2959C28.674 23.4473 28.752 23.6484 28.752 23.8564C28.7519 24.0645 28.6741 24.2656 28.5312 24.417L25.1387 27.8076C25.0645 27.8824 24.9761 27.9428 24.8789 27.9834C24.7814 28.024 24.6759 28.0439 24.5703 28.0439C24.465 28.0439 24.3609 28.0238 24.2637 27.9834C24.1662 27.9428 24.0763 27.8826 24.002 27.8076L20.707 24.5596C20.5624 24.4095 20.4814 24.2094 20.4824 24.001C20.4883 23.7984 20.5686 23.6041 20.707 23.4561L24.2109 20.0967C24.3603 19.9503 24.5605 19.8684 24.7695 19.8682Z" fill="#FAFAFA"/>
<path d="M41.4766 5.39355C41.6966 5.38506 41.916 5.42271 42.1211 5.50293C42.3264 5.58337 42.514 5.70638 42.6699 5.8623C42.8255 6.01806 42.947 6.20419 43.0273 6.40918C43.1077 6.61424 43.1451 6.83365 43.1367 7.05371C43.1282 7.27406 43.0746 7.49193 42.9785 7.69043C42.8825 7.88866 42.7454 8.06473 42.5781 8.20801L33.0586 17.7275C33.0118 17.7817 32.9796 17.8474 32.9629 17.917C32.9463 17.9864 32.9459 18.0586 32.9629 18.1279C33.0898 18.5413 33.1021 18.9816 32.998 19.4014C32.8938 19.8213 32.6768 20.2065 32.3711 20.5127L31.2988 21.6006C31.1466 21.748 30.9423 21.8311 30.7305 21.8311C30.5186 21.8309 30.3142 21.7481 30.1621 21.6006L26.9316 18.3682C26.7868 18.2179 26.7058 18.0164 26.707 17.8076C26.7082 17.5947 26.7886 17.3891 26.9316 17.2314L28.0195 16.1592C28.3256 15.8538 28.7093 15.6384 29.1289 15.5342C29.5486 15.43 29.9889 15.4406 30.4023 15.5674C30.4729 15.5871 30.5486 15.5871 30.6191 15.5674C30.6894 15.5476 30.7529 15.5093 30.8027 15.4561L40.3223 5.95215C40.4657 5.78466 40.6433 5.6478 40.8418 5.55176C41.0401 5.45589 41.2564 5.40206 41.4766 5.39355Z" fill="#FAFAFA"/>
<path d="M29.1133 4.92676C29.536 4.92676 29.9424 5.09363 30.2422 5.3916C30.3922 5.54034 30.5106 5.71811 30.5918 5.91309C30.673 6.108 30.7148 6.31718 30.7148 6.52832C30.7148 6.73944 30.673 6.94867 30.5918 7.14355C30.5107 7.33815 30.3918 7.51455 30.2422 7.66309L26.6094 11.2959C26.5642 11.3411 26.5324 11.3983 26.5156 11.46C26.499 11.5213 26.4979 11.5859 26.5137 11.6475C26.5898 11.8798 26.6269 12.1237 26.625 12.3682C26.6244 13.0043 26.3719 13.6139 25.9219 14.0635L22.0176 17.9678C21.9462 18.0446 21.86 18.1061 21.7637 18.1475C21.6672 18.1888 21.562 18.2093 21.457 18.208C21.35 18.2094 21.2434 18.1886 21.1445 18.1475C21.0458 18.1062 20.9571 18.0448 20.8828 17.9678L17.6016 14.7529C17.5266 14.6786 17.4683 14.5887 17.4277 14.4912C17.3872 14.3939 17.3653 14.29 17.3652 14.1846C17.3652 14.079 17.3871 13.9735 17.4277 13.876C17.4683 13.7789 17.5269 13.6904 17.6016 13.6162L21.6172 9.71191C21.9234 9.40616 22.3085 9.18925 22.7285 9.08496C23.1483 8.98089 23.5885 8.99322 24.002 9.12012C24.064 9.13315 24.1283 9.13094 24.1895 9.11426C24.2505 9.09761 24.3068 9.06699 24.3535 9.02441L27.9863 5.3916C28.2859 5.09401 28.691 4.92691 29.1133 4.92676Z" fill="#FAFAFA"/>
</svg>
