<svg width="48" height="48" viewBox="0 0 48 48" fill="none" xmlns="http://www.w3.org/2000/svg">
<path d="M10 30C10.3247 30 10.6401 30.0393 10.9424 30.1123C10.9508 30.1143 10.9593 30.1161 10.9678 30.1182C11.0724 30.1442 11.1752 30.1749 11.2764 30.209C11.298 30.2162 11.3194 30.2238 11.3408 30.2314C11.3733 30.243 11.4054 30.2552 11.4375 30.2676C11.4619 30.277 11.4865 30.286 11.5107 30.2959C11.6659 30.3593 11.8162 30.4321 11.9609 30.5137C11.9767 30.5226 11.9922 30.5319 12.0078 30.541C12.0429 30.5614 12.0779 30.5821 12.1123 30.6035C12.1327 30.6162 12.1527 30.6295 12.1729 30.6426C12.2071 30.6648 12.2409 30.6877 12.2744 30.7109C12.2848 30.7181 12.2953 30.7251 12.3057 30.7324C12.3445 30.7599 12.3831 30.7876 12.4209 30.8164C12.4357 30.8276 12.4502 30.8391 12.4648 30.8506C12.5471 30.9151 12.6272 30.9821 12.7041 31.0527C12.8401 31.1775 12.9673 31.3117 13.085 31.4541C13.1446 31.5263 13.2004 31.6015 13.2549 31.6777C13.2725 31.7024 13.2905 31.7269 13.3076 31.752C13.3199 31.77 13.3317 31.7884 13.3438 31.8066C13.3655 31.8397 13.3874 31.8725 13.4082 31.9062C13.4203 31.9259 13.4316 31.946 13.4434 31.9658C13.4648 32.0021 13.4865 32.0382 13.5068 32.0752C13.5179 32.0952 13.5284 32.1155 13.5391 32.1357C13.5559 32.1676 13.5719 32.2 13.5879 32.2324C13.6023 32.2615 13.6162 32.2908 13.6299 32.3203C13.6426 32.3478 13.6549 32.3755 13.667 32.4033C13.6773 32.427 13.6874 32.4507 13.6973 32.4746C13.7385 32.5743 13.7764 32.6757 13.8096 32.7793C13.8154 32.7974 13.8206 32.8157 13.8262 32.834C13.8378 32.8722 13.8489 32.9106 13.8594 32.9492C13.8674 32.9787 13.8755 33.0083 13.8828 33.0381C13.8891 33.0637 13.8946 33.0895 13.9004 33.1152C13.908 33.149 13.9161 33.1827 13.9229 33.2168C13.9279 33.2421 13.932 33.2675 13.9365 33.293C13.9442 33.3361 13.9517 33.3793 13.958 33.4229C13.9593 33.4319 13.9597 33.4411 13.9609 33.4502C13.9857 33.63 14 33.8134 14 34V38C14 38.3066 13.9638 38.6048 13.8984 38.8916C13.8942 38.9102 13.8902 38.9288 13.8857 38.9473C13.7666 39.4377 13.5567 39.8919 13.2754 40.293C13.2656 40.3069 13.2561 40.3211 13.2461 40.335C13.1877 40.416 13.1267 40.4949 13.0625 40.5713C13.0552 40.5799 13.0474 40.5881 13.04 40.5967C12.904 40.7558 12.7558 40.904 12.5967 41.04C12.5881 41.0474 12.5799 41.0552 12.5713 41.0625C12.4949 41.1267 12.416 41.1877 12.335 41.2461C12.3211 41.2561 12.3069 41.2656 12.293 41.2754C12.0275 41.4616 11.739 41.6165 11.4316 41.7344C11.4255 41.7367 11.4193 41.7389 11.4131 41.7412C11.312 41.7794 11.2092 41.8137 11.1045 41.8438C11.0938 41.8468 11.083 41.8496 11.0723 41.8525C11.0308 41.8641 10.9893 41.8755 10.9473 41.8857C10.9288 41.8902 10.9102 41.8942 10.8916 41.8984C10.6048 41.9638 10.3066 42 10 42H6L5.79395 41.9951C5.55907 41.9832 5.3299 41.9492 5.10742 41.8984C5.08885 41.8942 5.07023 41.8902 5.05176 41.8857C5.00976 41.8755 4.96822 41.8641 4.92676 41.8525C4.91602 41.8496 4.90523 41.8468 4.89453 41.8438C4.78979 41.8137 4.68696 41.7794 4.58594 41.7412C4.57977 41.7389 4.57354 41.7367 4.56738 41.7344C4.26008 41.6164 3.97145 41.4616 3.70605 41.2754C3.69208 41.2656 3.67791 41.2561 3.66406 41.2461C3.58303 41.1877 3.50406 41.1267 3.42773 41.0625C3.41909 41.0552 3.41093 41.0474 3.40234 41.04C3.24324 40.904 3.09501 40.7558 2.95898 40.5967C2.95164 40.5881 2.94379 40.5799 2.93652 40.5713C2.87238 40.4949 2.81132 40.416 2.75293 40.335C2.74296 40.3211 2.73343 40.3069 2.72363 40.293C2.44246 39.8919 2.23237 39.4376 2.11328 38.9473C2.1088 38.9288 2.10481 38.9102 2.10059 38.8916C2.03529 38.6048 2 38.3065 2 38V34C2 33.8134 2.01337 33.63 2.03809 33.4502C2.03933 33.4411 2.03971 33.4319 2.04102 33.4229C2.04732 33.3792 2.05578 33.3361 2.06348 33.293C2.068 33.2676 2.07117 33.242 2.07617 33.2168C2.08294 33.1827 2.09101 33.149 2.09863 33.1152C2.10445 33.0895 2.1099 33.0637 2.11621 33.0381C2.12356 33.0083 2.13163 32.9787 2.13965 32.9492C2.15015 32.9106 2.16123 32.8722 2.17285 32.834C2.1784 32.8157 2.18365 32.7974 2.18945 32.7793C2.22261 32.6757 2.26058 32.5743 2.30176 32.4746C2.31162 32.4507 2.32172 32.427 2.33203 32.4033C2.34416 32.3755 2.3564 32.3478 2.36914 32.3203C2.38281 32.2908 2.39678 32.2615 2.41113 32.2324C2.42713 32.2 2.44312 32.1676 2.45996 32.1357C2.47064 32.1155 2.48118 32.0952 2.49219 32.0752C2.51252 32.0382 2.53421 32.0021 2.55566 31.9658C2.56741 31.946 2.57874 31.9259 2.59082 31.9062C2.61157 31.8726 2.63356 31.8397 2.65527 31.8066C2.66728 31.7884 2.67911 31.77 2.69141 31.752C2.7085 31.7269 2.7265 31.7024 2.74414 31.6777C2.79864 31.6015 2.85447 31.5262 2.91406 31.4541C3.03169 31.3118 3.15897 31.1775 3.29492 31.0527C3.3718 30.9821 3.45194 30.9151 3.53418 30.8506C3.54878 30.8391 3.56336 30.8277 3.57812 30.8164C3.61592 30.7876 3.65453 30.7599 3.69336 30.7324C3.70044 30.7274 3.70773 30.7227 3.71484 30.7178L3.76367 30.6836C3.78432 30.6696 3.80526 30.6561 3.82617 30.6426C3.84632 30.6295 3.86633 30.6162 3.88672 30.6035C3.92114 30.5821 3.9561 30.5614 3.99121 30.541C4.00684 30.5319 4.02232 30.5226 4.03809 30.5137C4.1828 30.4321 4.33311 30.3593 4.48828 30.2959C4.49572 30.2929 4.50328 30.2901 4.51074 30.2871L4.625 30.2432C4.63602 30.2391 4.64714 30.2354 4.6582 30.2314C4.67962 30.2238 4.70107 30.2162 4.72266 30.209C4.82384 30.1749 4.92663 30.1442 5.03125 30.1182C5.03967 30.1161 5.0482 30.1143 5.05664 30.1123C5.35916 30.0392 5.67501 30 6 30H10Z" fill="#FAFAFA"/>
<path d="M26 30C26.3247 30 26.6401 30.0393 26.9424 30.1123C26.9508 30.1143 26.9593 30.1161 26.9678 30.1182C27.0724 30.1442 27.1752 30.1749 27.2764 30.209C27.298 30.2162 27.3194 30.2238 27.3408 30.2314C27.3733 30.243 27.4054 30.2552 27.4375 30.2676C27.462 30.277 27.4865 30.286 27.5107 30.2959C27.6659 30.3593 27.8162 30.4321 27.9609 30.5137C27.9767 30.5226 27.9922 30.5319 28.0078 30.541C28.0429 30.5614 28.0779 30.5821 28.1123 30.6035C28.1327 30.6162 28.1527 30.6295 28.1729 30.6426C28.2071 30.6648 28.2409 30.6877 28.2744 30.7109C28.2848 30.7181 28.2953 30.7251 28.3057 30.7324C28.3445 30.7599 28.3831 30.7876 28.4209 30.8164C28.4357 30.8276 28.4502 30.8391 28.4648 30.8506C28.5471 30.9151 28.6272 30.9821 28.7041 31.0527C28.8401 31.1775 28.9673 31.3117 29.085 31.4541C29.1446 31.5263 29.2004 31.6015 29.2549 31.6777C29.2725 31.7024 29.2905 31.7269 29.3076 31.752C29.3199 31.77 29.3317 31.7884 29.3438 31.8066C29.3655 31.8397 29.3874 31.8725 29.4082 31.9062C29.4203 31.9259 29.4316 31.946 29.4434 31.9658C29.4648 32.0021 29.4865 32.0382 29.5068 32.0752C29.5179 32.0952 29.5284 32.1155 29.5391 32.1357C29.5559 32.1676 29.5719 32.2 29.5879 32.2324C29.6023 32.2615 29.6162 32.2908 29.6299 32.3203C29.6426 32.3478 29.6549 32.3755 29.667 32.4033C29.6773 32.427 29.6874 32.4507 29.6973 32.4746C29.7385 32.5743 29.7764 32.6757 29.8096 32.7793C29.8154 32.7974 29.8206 32.8157 29.8262 32.834C29.8378 32.8722 29.8489 32.9106 29.8594 32.9492C29.8674 32.9787 29.8755 33.0083 29.8828 33.0381C29.8891 33.0637 29.8946 33.0895 29.9004 33.1152C29.908 33.149 29.9161 33.1827 29.9229 33.2168C29.9279 33.2421 29.932 33.2675 29.9365 33.293C29.9442 33.3361 29.9517 33.3793 29.958 33.4229C29.9593 33.4319 29.9597 33.4411 29.9609 33.4502C29.9857 33.63 30 33.8134 30 34V38C30 38.3066 29.9638 38.6048 29.8984 38.8916C29.8942 38.9102 29.8902 38.9288 29.8857 38.9473C29.7666 39.4377 29.5567 39.8919 29.2754 40.293C29.2656 40.3069 29.2561 40.3211 29.2461 40.335C29.1877 40.416 29.1267 40.4949 29.0625 40.5713C29.0552 40.5799 29.0474 40.5881 29.04 40.5967C28.904 40.7558 28.7558 40.904 28.5967 41.04C28.5881 41.0474 28.5799 41.0552 28.5713 41.0625C28.4949 41.1267 28.416 41.1877 28.335 41.2461C28.3211 41.2561 28.3069 41.2656 28.293 41.2754C28.0275 41.4616 27.739 41.6165 27.4316 41.7344C27.4255 41.7367 27.4193 41.7389 27.4131 41.7412C27.312 41.7794 27.2092 41.8137 27.1045 41.8438C27.0938 41.8468 27.083 41.8496 27.0723 41.8525C27.0308 41.8641 26.9893 41.8755 26.9473 41.8857C26.9288 41.8902 26.9102 41.8942 26.8916 41.8984C26.6048 41.9638 26.3066 42 26 42H22L21.7939 41.9951C21.5591 41.9832 21.3299 41.9492 21.1074 41.8984C21.0888 41.8942 21.0702 41.8902 21.0518 41.8857C21.0098 41.8755 20.9682 41.8641 20.9268 41.8525C20.916 41.8496 20.9052 41.8468 20.8945 41.8438C20.7898 41.8137 20.687 41.7794 20.5859 41.7412C20.5798 41.7389 20.5735 41.7367 20.5674 41.7344C20.2601 41.6164 19.9714 41.4616 19.7061 41.2754C19.6921 41.2656 19.6779 41.2561 19.6641 41.2461C19.583 41.1877 19.5041 41.1267 19.4277 41.0625C19.4191 41.0552 19.4109 41.0474 19.4023 41.04C19.2432 40.904 19.095 40.7558 18.959 40.5967C18.9516 40.5881 18.9438 40.5799 18.9365 40.5713C18.8724 40.4949 18.8113 40.416 18.7529 40.335C18.743 40.3211 18.7334 40.3069 18.7236 40.293C18.4425 39.8919 18.2324 39.4376 18.1133 38.9473C18.1088 38.9288 18.1048 38.9102 18.1006 38.8916C18.0353 38.6048 18 38.3065 18 38V34C18 33.8134 18.0134 33.63 18.0381 33.4502C18.0393 33.4411 18.0397 33.4319 18.041 33.4229C18.0473 33.3792 18.0558 33.3361 18.0635 33.293C18.068 33.2676 18.0712 33.242 18.0762 33.2168C18.0829 33.1827 18.091 33.149 18.0986 33.1152C18.1045 33.0895 18.1099 33.0637 18.1162 33.0381C18.1236 33.0083 18.1316 32.9787 18.1396 32.9492C18.1501 32.9106 18.1612 32.8722 18.1729 32.834C18.1784 32.8157 18.1837 32.7974 18.1895 32.7793C18.2226 32.6757 18.2606 32.5743 18.3018 32.4746C18.3116 32.4507 18.3217 32.427 18.332 32.4033C18.3442 32.3755 18.3564 32.3478 18.3691 32.3203C18.3828 32.2908 18.3968 32.2615 18.4111 32.2324C18.4271 32.2 18.4431 32.1676 18.46 32.1357C18.4706 32.1155 18.4812 32.0952 18.4922 32.0752C18.5125 32.0382 18.5342 32.0021 18.5557 31.9658C18.5674 31.946 18.5787 31.9259 18.5908 31.9062C18.6116 31.8726 18.6336 31.8397 18.6553 31.8066C18.6673 31.7884 18.6791 31.77 18.6914 31.752C18.7085 31.7269 18.7265 31.7024 18.7441 31.6777C18.7986 31.6015 18.8545 31.5262 18.9141 31.4541C19.0317 31.3118 19.159 31.1775 19.2949 31.0527C19.3718 30.9821 19.4519 30.9151 19.5342 30.8506C19.5488 30.8391 19.5634 30.8277 19.5781 30.8164C19.6159 30.7876 19.6545 30.7599 19.6934 30.7324C19.7004 30.7274 19.7077 30.7227 19.7148 30.7178L19.7637 30.6836C19.7843 30.6696 19.8053 30.6561 19.8262 30.6426C19.8463 30.6295 19.8663 30.6162 19.8867 30.6035C19.9211 30.5821 19.9561 30.5614 19.9912 30.541C20.0068 30.5319 20.0223 30.5226 20.0381 30.5137C20.1828 30.4321 20.3331 30.3593 20.4883 30.2959C20.4957 30.2929 20.5033 30.2901 20.5107 30.2871L20.625 30.2432C20.636 30.2391 20.6471 30.2354 20.6582 30.2314C20.6796 30.2238 20.7011 30.2162 20.7227 30.209C20.8238 30.1749 20.9266 30.1442 21.0312 30.1182C21.0397 30.1161 21.0482 30.1143 21.0566 30.1123C21.3592 30.0392 21.675 30 22 30H26Z" fill="#FAFAFA"/>
<path d="M42 30C42.3247 30 42.6401 30.0393 42.9424 30.1123C42.9508 30.1143 42.9594 30.1161 42.9678 30.1182C43.0724 30.1442 43.1752 30.1749 43.2764 30.209C43.298 30.2162 43.3194 30.2238 43.3408 30.2314C43.3733 30.243 43.4054 30.2552 43.4375 30.2676C43.4619 30.277 43.4865 30.286 43.5107 30.2959C43.666 30.3593 43.8162 30.4321 43.9609 30.5137C43.9767 30.5226 43.9922 30.5319 44.0078 30.541C44.0429 30.5614 44.0779 30.5821 44.1123 30.6035C44.1327 30.6162 44.1527 30.6295 44.1729 30.6426C44.2071 30.6648 44.2409 30.6877 44.2744 30.7109C44.2848 30.7181 44.2953 30.7251 44.3057 30.7324C44.3445 30.7599 44.3831 30.7876 44.4209 30.8164C44.4357 30.8276 44.4502 30.8391 44.4648 30.8506C44.5471 30.9151 44.6272 30.9821 44.7041 31.0527C44.8401 31.1775 44.9673 31.3117 45.085 31.4541C45.1446 31.5263 45.2004 31.6015 45.2549 31.6777C45.2725 31.7024 45.2905 31.7269 45.3076 31.752C45.3199 31.77 45.3317 31.7884 45.3438 31.8066C45.3655 31.8397 45.3874 31.8725 45.4082 31.9062C45.4203 31.9259 45.4316 31.946 45.4434 31.9658C45.4648 32.0021 45.4865 32.0382 45.5068 32.0752C45.5178 32.0952 45.5284 32.1155 45.5391 32.1357C45.5559 32.1676 45.5719 32.2 45.5879 32.2324C45.6023 32.2615 45.6162 32.2908 45.6299 32.3203C45.6426 32.3478 45.6549 32.3755 45.667 32.4033C45.6773 32.427 45.6874 32.4507 45.6973 32.4746C45.7385 32.5743 45.7764 32.6757 45.8096 32.7793C45.8154 32.7974 45.8206 32.8157 45.8262 32.834C45.8378 32.8722 45.8489 32.9106 45.8594 32.9492C45.8674 32.9787 45.8755 33.0083 45.8828 33.0381C45.8891 33.0637 45.8946 33.0895 45.9004 33.1152C45.908 33.149 45.9161 33.1827 45.9229 33.2168C45.9279 33.2421 45.932 33.2675 45.9365 33.293C45.9442 33.3361 45.9517 33.3793 45.958 33.4229C45.9593 33.4319 45.9597 33.4411 45.9609 33.4502C45.9857 33.63 46 33.8134 46 34V38C46 38.3066 45.9638 38.6048 45.8984 38.8916C45.8942 38.9102 45.8902 38.9288 45.8857 38.9473C45.7666 39.4377 45.5567 39.8919 45.2754 40.293C45.2656 40.3069 45.2561 40.3211 45.2461 40.335C45.1877 40.416 45.1267 40.4949 45.0625 40.5713C45.0552 40.5799 45.0474 40.5881 45.04 40.5967C44.904 40.7558 44.7558 40.904 44.5967 41.04C44.5881 41.0474 44.5799 41.0552 44.5713 41.0625C44.4949 41.1267 44.416 41.1877 44.335 41.2461C44.3211 41.2561 44.3069 41.2656 44.293 41.2754C44.0275 41.4616 43.739 41.6165 43.4316 41.7344C43.4255 41.7367 43.4193 41.7389 43.4131 41.7412C43.312 41.7794 43.2092 41.8137 43.1045 41.8438C43.0938 41.8468 43.083 41.8496 43.0723 41.8525C43.0308 41.8641 42.9893 41.8755 42.9473 41.8857C42.9288 41.8902 42.9102 41.8942 42.8916 41.8984C42.6048 41.9638 42.3066 42 42 42H38L37.7939 41.9951C37.5591 41.9832 37.3299 41.9492 37.1074 41.8984C37.0888 41.8942 37.0702 41.8902 37.0518 41.8857C37.0098 41.8755 36.9682 41.8641 36.9268 41.8525C36.916 41.8496 36.9052 41.8468 36.8945 41.8438C36.7898 41.8137 36.687 41.7794 36.5859 41.7412C36.5798 41.7389 36.5735 41.7367 36.5674 41.7344C36.2601 41.6164 35.9714 41.4616 35.7061 41.2754C35.6921 41.2656 35.6779 41.2561 35.6641 41.2461C35.583 41.1877 35.5041 41.1267 35.4277 41.0625C35.4191 41.0552 35.4109 41.0474 35.4023 41.04C35.2432 40.904 35.095 40.7558 34.959 40.5967C34.9516 40.5881 34.9438 40.5799 34.9365 40.5713C34.8724 40.4949 34.8113 40.416 34.7529 40.335C34.743 40.3211 34.7334 40.3069 34.7236 40.293C34.4425 39.8919 34.2324 39.4376 34.1133 38.9473C34.1088 38.9288 34.1048 38.9102 34.1006 38.8916C34.0353 38.6048 34 38.3065 34 38V34C34 33.8134 34.0134 33.63 34.0381 33.4502C34.0393 33.4411 34.0397 33.4319 34.041 33.4229C34.0473 33.3792 34.0558 33.3361 34.0635 33.293C34.068 33.2676 34.0712 33.242 34.0762 33.2168C34.0829 33.1827 34.091 33.149 34.0986 33.1152C34.1045 33.0895 34.1099 33.0637 34.1162 33.0381C34.1236 33.0083 34.1316 32.9787 34.1396 32.9492C34.1501 32.9106 34.1612 32.8722 34.1729 32.834C34.1784 32.8157 34.1837 32.7974 34.1895 32.7793C34.2226 32.6757 34.2606 32.5743 34.3018 32.4746C34.3116 32.4507 34.3217 32.427 34.332 32.4033C34.3442 32.3755 34.3564 32.3478 34.3691 32.3203C34.3828 32.2908 34.3968 32.2615 34.4111 32.2324C34.4271 32.2 34.4431 32.1676 34.46 32.1357C34.4706 32.1155 34.4812 32.0952 34.4922 32.0752C34.5125 32.0382 34.5342 32.0021 34.5557 31.9658C34.5674 31.946 34.5787 31.9259 34.5908 31.9062C34.6116 31.8726 34.6336 31.8397 34.6553 31.8066C34.6673 31.7884 34.6791 31.77 34.6914 31.752C34.7085 31.7269 34.7265 31.7024 34.7441 31.6777C34.7986 31.6015 34.8545 31.5262 34.9141 31.4541C35.0317 31.3118 35.159 31.1775 35.2949 31.0527C35.3718 30.9821 35.4519 30.9151 35.5342 30.8506C35.5488 30.8391 35.5634 30.8277 35.5781 30.8164C35.6159 30.7876 35.6545 30.7599 35.6934 30.7324C35.7004 30.7274 35.7077 30.7227 35.7148 30.7178L35.7637 30.6836C35.7843 30.6696 35.8053 30.6561 35.8262 30.6426C35.8463 30.6295 35.8663 30.6162 35.8867 30.6035C35.9211 30.5821 35.9561 30.5614 35.9912 30.541C36.0068 30.5319 36.0223 30.5226 36.0381 30.5137C36.1828 30.4321 36.3331 30.3593 36.4883 30.2959C36.4957 30.2929 36.5033 30.2901 36.5107 30.2871L36.625 30.2432C36.636 30.2391 36.6471 30.2354 36.6582 30.2314C36.6796 30.2238 36.7011 30.2162 36.7227 30.209C36.8238 30.1749 36.9266 30.1442 37.0312 30.1182C37.0397 30.1161 37.0482 30.1143 37.0566 30.1123C37.3592 30.0392 37.675 30 38 30H42Z" fill="#FAFAFA"/>
<path d="M26 6C26.3247 6 26.6401 6.0393 26.9424 6.1123C26.9508 6.11434 26.9593 6.11607 26.9678 6.11816C27.0724 6.14416 27.1752 6.17493 27.2764 6.20898C27.298 6.21625 27.3194 6.22383 27.3408 6.23145C27.3733 6.243 27.4054 6.25522 27.4375 6.26758C27.462 6.277 27.4865 6.28602 27.5107 6.2959C27.6659 6.35927 27.8162 6.43208 27.9609 6.51367C27.9767 6.52255 27.9922 6.53193 28.0078 6.54102C28.0429 6.56144 28.0779 6.58206 28.1123 6.60352C28.1327 6.61622 28.1527 6.62952 28.1729 6.64258C28.2071 6.6648 28.2409 6.6877 28.2744 6.71094C28.2848 6.71814 28.2953 6.72513 28.3057 6.73242C28.3445 6.75988 28.3831 6.78761 28.4209 6.81641C28.4357 6.82765 28.4502 6.83914 28.4648 6.85059C28.5471 6.91506 28.6272 6.98214 28.7041 7.05273C28.8401 7.17752 28.9673 7.31175 29.085 7.4541C29.1446 7.52625 29.2004 7.60146 29.2549 7.67773C29.2725 7.70242 29.2905 7.72685 29.3076 7.75195C29.3199 7.77001 29.3317 7.78837 29.3438 7.80664C29.3655 7.83967 29.3874 7.87255 29.4082 7.90625C29.4203 7.92588 29.4316 7.94597 29.4434 7.96582C29.4648 8.00207 29.4865 8.03822 29.5068 8.0752C29.5179 8.09522 29.5284 8.11551 29.5391 8.13574C29.5559 8.16765 29.5719 8.20001 29.5879 8.23242C29.6023 8.26152 29.6162 8.29082 29.6299 8.32031C29.6426 8.34779 29.6549 8.3755 29.667 8.40332C29.6773 8.42698 29.6874 8.45072 29.6973 8.47461C29.7385 8.57432 29.7764 8.67572 29.8096 8.7793C29.8154 8.79743 29.8206 8.81574 29.8262 8.83398C29.8378 8.87217 29.8489 8.91056 29.8594 8.94922C29.8674 8.97875 29.8755 9.00829 29.8828 9.03809C29.8891 9.06366 29.8946 9.08947 29.9004 9.11523C29.908 9.149 29.9161 9.18271 29.9229 9.2168C29.9279 9.24207 29.932 9.26753 29.9365 9.29297C29.9442 9.33607 29.9517 9.37929 29.958 9.42285C29.9593 9.43192 29.9597 9.44111 29.9609 9.4502C29.9857 9.63 30 9.8134 30 10V14C30 14.3066 29.9638 14.6048 29.8984 14.8916C29.8942 14.9102 29.8902 14.9288 29.8857 14.9473C29.7666 15.4377 29.5567 15.8919 29.2754 16.293C29.2656 16.3069 29.2561 16.3211 29.2461 16.335C29.1877 16.416 29.1267 16.4949 29.0625 16.5713C29.0552 16.5799 29.0474 16.5881 29.04 16.5967C28.904 16.7558 28.7558 16.904 28.5967 17.04C28.5881 17.0474 28.5799 17.0552 28.5713 17.0625C28.4949 17.1267 28.416 17.1877 28.335 17.2461C28.3211 17.2561 28.3069 17.2656 28.293 17.2754C28.0275 17.4616 27.739 17.6165 27.4316 17.7344C27.4255 17.7367 27.4193 17.7389 27.4131 17.7412C27.312 17.7794 27.2092 17.8137 27.1045 17.8438C27.0938 17.8468 27.083 17.8496 27.0723 17.8525C27.0308 17.8641 26.9893 17.8755 26.9473 17.8857C26.9288 17.8902 26.9102 17.8942 26.8916 17.8984C26.6048 17.9638 26.3066 18 26 18H25.5V20.5H38.709C39.2632 20.5002 39.8396 20.6462 40.334 20.9609L40.5391 21.1074L40.7383 21.2754C41.1828 21.6965 41.5 22.2955 41.5 23V26C41.5 26.8284 40.8284 27.5 40 27.5C39.1716 27.5 38.5 26.8284 38.5 26V23.5H25.5V26C25.5 26.8284 24.8284 27.5 24 27.5C23.1716 27.5 22.5 26.8284 22.5 26V23.5H9.5V26L9.49219 26.1543C9.41494 26.9102 8.77633 27.5 8 27.5C7.22367 27.5 6.58506 26.9102 6.50781 26.1543L6.5 26V23L6.51953 22.7051C6.60644 22.0323 6.98413 21.4765 7.46094 21.1074L7.66602 20.9609C8.16037 20.6462 8.73682 20.5002 9.29102 20.5H22.5V18H22C21.6931 18 21.3945 17.9639 21.1074 17.8984C21.0888 17.8942 21.0702 17.8902 21.0518 17.8857C21.0098 17.8755 20.9682 17.8641 20.9268 17.8525C20.916 17.8496 20.9052 17.8468 20.8945 17.8438C20.7898 17.8137 20.687 17.7794 20.5859 17.7412C20.5798 17.7389 20.5735 17.7367 20.5674 17.7344C20.2601 17.6164 19.9714 17.4616 19.7061 17.2754C19.6921 17.2656 19.6779 17.2561 19.6641 17.2461C19.583 17.1877 19.5041 17.1267 19.4277 17.0625C19.4191 17.0552 19.4109 17.0474 19.4023 17.04C19.2432 16.904 19.095 16.7558 18.959 16.5967C18.9516 16.5881 18.9438 16.5799 18.9365 16.5713C18.8724 16.4949 18.8113 16.416 18.7529 16.335C18.743 16.3211 18.7334 16.3069 18.7236 16.293C18.4425 15.8919 18.2324 15.4376 18.1133 14.9473C18.1088 14.9288 18.1048 14.9102 18.1006 14.8916C18.0353 14.6048 18 14.3065 18 14V10C18 9.81345 18.0134 9.62996 18.0381 9.4502C18.0393 9.44111 18.0397 9.43191 18.041 9.42285C18.0473 9.37924 18.0558 9.33611 18.0635 9.29297C18.068 9.26759 18.0712 9.242 18.0762 9.2168C18.0829 9.18272 18.091 9.14899 18.0986 9.11523C18.1045 9.08947 18.1099 9.06366 18.1162 9.03809C18.1236 9.0083 18.1316 8.97874 18.1396 8.94922C18.1501 8.91057 18.1612 8.87216 18.1729 8.83398C18.1784 8.81574 18.1837 8.79743 18.1895 8.7793C18.2226 8.67574 18.2606 8.5743 18.3018 8.47461C18.3116 8.45072 18.3217 8.42697 18.332 8.40332C18.3442 8.37551 18.3564 8.34779 18.3691 8.32031C18.3828 8.29082 18.3968 8.26152 18.4111 8.23242C18.4271 8.20002 18.4431 8.16764 18.46 8.13574C18.4706 8.11551 18.4812 8.09522 18.4922 8.0752C18.5125 8.03823 18.5342 8.00206 18.5557 7.96582C18.5674 7.94597 18.5787 7.92588 18.5908 7.90625C18.6116 7.87255 18.6336 7.83967 18.6553 7.80664C18.6673 7.78837 18.6791 7.77001 18.6914 7.75195C18.7085 7.72686 18.7265 7.70242 18.7441 7.67773C18.7986 7.60147 18.8545 7.52625 18.9141 7.4541C19.0317 7.31175 19.159 7.17752 19.2949 7.05273C19.3718 6.98213 19.4519 6.91507 19.5342 6.85059C19.5488 6.83914 19.5634 6.82765 19.5781 6.81641C19.6159 6.78761 19.6545 6.75988 19.6934 6.73242C19.7004 6.72742 19.7077 6.72273 19.7148 6.71777L19.7637 6.68359C19.7843 6.66965 19.8053 6.65615 19.8262 6.64258C19.8463 6.62952 19.8663 6.61622 19.8867 6.60352C19.9211 6.58205 19.9561 6.56145 19.9912 6.54102C20.0068 6.53192 20.0223 6.52256 20.0381 6.51367C20.1828 6.43206 20.3331 6.35929 20.4883 6.2959C20.4957 6.29286 20.5033 6.2901 20.5107 6.28711L20.625 6.24316C20.636 6.23913 20.6471 6.23538 20.6582 6.23145C20.6796 6.22382 20.7011 6.21625 20.7227 6.20898C20.8238 6.17491 20.9266 6.14419 21.0312 6.11816C21.0397 6.11607 21.0482 6.11435 21.0566 6.1123C21.3592 6.03916 21.675 6 22 6H26Z" fill="#FAFAFA"/>
</svg>
