<svg width="48" height="48" viewBox="0 0 48 48" fill="none" xmlns="http://www.w3.org/2000/svg">
<path d="M20.5513 8H27.4487L28.3587 18H19.6413L20.5513 8ZM19.2773 22H28.7226L29.6326 32H25.8199V36H29.4597C30.4648 36 31.2796 36.8954 31.2796 38C31.2796 39.1046 30.4648 40 29.4597 40H18.5402C17.5352 40 16.7203 39.1046 16.7203 38C16.7203 36.8954 17.5352 36 18.5402 36H22.1801V32H18.3673L19.2773 22ZM32.3807 22L33.2906 32H39.2692C40.9919 32 42.2839 30.268 41.9461 28.4116L40.7792 22H32.3807ZM31.1067 8L32.0167 18H40.0512L38.8164 11.2155C38.4762 9.34584 36.9823 8 35.2474 8H31.1067ZM16.8933 8H12.7526C11.0176 8 9.52373 9.34584 9.18346 11.2155L7.94877 18H15.9833L16.8933 8ZM15.6193 22H7.2208L6.05394 28.4116C5.71611 30.268 7.00811 32 8.73078 32H14.7094L15.6193 22Z" fill="#FAFAFA"/>
</svg>
