<svg width="48" height="48" viewBox="0 0 48 48" fill="none" xmlns="http://www.w3.org/2000/svg">
<path fill-rule="evenodd" clip-rule="evenodd" d="M13.5 4C10.4624 4 8 6.46243 8 9.5V38.5C8 41.5376 10.4624 44 13.5 44H34.5C37.5376 44 40 41.5376 40 38.5V9.5C40 6.46243 37.5376 4 34.5 4H13.5ZM11 38V38.5C11 39.8807 12.1193 41 13.5 41H34.5C35.8807 41 37 39.8807 37 38.5V34.4003C36.2499 34.7837 35.4002 35 34.5 35H14C12.3431 35 11 36.3431 11 38ZM17.5 12.5C16.6716 12.5 16 13.1716 16 14C16 14.8284 16.6716 15.5 17.5 15.5H30.5C31.3284 15.5 32 14.8284 32 14C32 13.1716 31.3284 12.5 30.5 12.5H17.5ZM16 22C16 21.1716 16.6716 20.5 17.5 20.5H24.5C25.3284 20.5 26 21.1716 26 22C26 22.8284 25.3284 23.5 24.5 23.5H17.5C16.6716 23.5 16 22.8284 16 22Z" fill="#FAFAFA"/>
</svg>
