<svg width="40" height="40" viewBox="0 0 40 40" fill="none" xmlns="http://www.w3.org/2000/svg">
<path d="M7.60094 36.4164C7.83427 36.6498 8.15094 36.7664 8.4676 36.7664C8.80094 36.7664 9.1176 36.6331 9.3676 36.3831L12.1509 33.5331C12.6343 33.0331 12.6343 32.2498 12.1343 31.7664C11.6343 31.2998 10.8509 31.2998 10.3676 31.7998L7.58427 34.6498C7.10094 35.1498 7.10094 35.9331 7.60094 36.4164Z" fill="#FAFAFA"/>
<path d="M19.5769 36.7664C19.5816 36.7664 19.5843 36.7664 19.5843 36.7664H19.5676L19.5769 36.7664Z" fill="#FAFAFA"/>
<path fill-rule="evenodd" clip-rule="evenodd" d="M19.3509 36.7498C19.4092 36.7643 19.5439 36.7662 19.5769 36.7664C19.8901 36.7642 20.1866 36.6477 20.4176 36.4331L25.1843 31.9998C26.1176 31.1498 26.6509 29.9164 26.6509 28.6498V25.8664C34.3176 21.7498 37.4009 15.1498 36.6509 4.59978C36.6176 3.98311 36.1176 3.49978 35.5009 3.44978C24.9509 2.68311 18.3509 5.78311 14.2509 13.4331H11.4676C10.1843 13.4331 8.9676 13.9664 8.10094 14.8998L3.6676 19.6664C3.38427 19.9498 3.2676 20.3498 3.35094 20.7498C3.43427 21.1498 3.68427 21.4831 4.05094 21.6498C4.05094 21.6498 4.06078 21.6545 4.07401 21.6609C4.48861 21.8592 10.2511 24.6166 12.8676 27.2331C15.4718 29.8534 18.2486 35.629 18.4407 36.0285C18.4465 36.0406 18.4509 36.0498 18.4509 36.0498C18.6343 36.4164 18.9676 36.6664 19.3509 36.7498ZM25.834 17.4997C27.6749 17.4997 29.1673 16.0074 29.1673 14.1664C29.1673 12.3255 27.6749 10.8331 25.834 10.8331C23.993 10.8331 22.5007 12.3255 22.5007 14.1664C22.5007 16.0074 23.993 17.4997 25.834 17.4997Z" fill="#FAFAFA"/>
<path d="M2.05094 34.5164C2.28427 34.7498 2.60094 34.8664 2.9176 34.8664C3.25094 34.8664 3.5676 34.7331 3.8176 34.4831L8.45094 29.7164C8.93427 29.2164 8.93427 28.4331 8.43427 27.9498C7.93427 27.4831 7.15094 27.4831 6.6676 27.9831L2.03427 32.7498C1.55094 33.2498 1.55094 34.0331 2.05094 34.5164Z" fill="#FAFAFA"/>
</svg>
