<svg width="40" height="40" viewBox="0 0 40 40" fill="none" xmlns="http://www.w3.org/2000/svg">
<path d="M21.2513 35.7575C21.251 36.4474 20.6913 37.0073 20.0013 37.0075C19.3113 37.0073 18.7516 36.4474 18.7513 35.7575V30.8486C19.1629 30.8869 19.5797 30.9089 20.0013 30.9089C20.4229 30.9089 20.8397 30.8869 21.2513 30.8486V35.7575ZM20.0013 4.24219C27.3652 4.24219 33.3346 10.2117 33.3346 17.5755C33.3346 24.5177 28.0289 30.2184 21.2513 30.8486V22.9417L24.5212 19.6719C25.0092 19.1838 25.009 18.3925 24.5212 17.9043C24.033 17.4163 23.2417 17.4162 22.7536 17.9043L20.0013 20.6566L17.249 17.9043C16.7609 17.4162 15.9696 17.4161 15.4814 17.9043C14.9934 18.3925 14.9934 19.1838 15.4814 19.6719L18.7513 22.9417V30.8486C11.9737 30.2184 6.66797 24.5177 6.66797 17.5755C6.66797 10.2117 12.6375 4.24219 20.0013 4.24219Z" fill="#FAFAFA"/>
</svg>
