<svg width="40" height="40" viewBox="0 0 40 40" fill="none" xmlns="http://www.w3.org/2000/svg">
<path fill-rule="evenodd" clip-rule="evenodd" d="M20.7318 3.75163C20.7611 3.75261 20.7984 3.75337 20.8424 3.75651C20.9304 3.76279 21.0482 3.77589 21.1859 3.79883C21.4551 3.84373 21.8328 3.936 22.2259 4.13249C22.624 4.33153 23.0606 4.64925 23.3945 5.14974C23.7337 5.65848 23.917 6.28159 23.917 7.00033V15.0635C23.916 15.0929 23.9136 15.1316 23.9105 15.1758C23.9042 15.2635 23.8926 15.3805 23.8698 15.5176C23.8249 15.7869 23.7328 16.1659 23.5361 16.5592C23.337 16.9575 23.0182 17.3939 22.5173 17.7279C22.0087 18.0669 21.3867 18.2502 20.6683 18.2503H15.8066V19.7493H25.4176V15.6673C25.4176 14.977 25.9773 14.4173 26.6676 14.4173H29.0781L30.1393 10.9652C30.3425 10.3057 31.0422 9.93552 31.7018 10.1383C32.3616 10.3413 32.7315 11.0411 32.5286 11.7008L31.6937 14.4173H32.0013C32.6915 14.4175 33.2513 14.9771 33.2513 15.6673V19.7493H33.3343C33.623 19.7472 33.9082 19.8029 34.1742 19.9105L34.4411 20.0391L34.6852 20.2018C34.9191 20.3808 35.1152 20.6063 35.2614 20.8643L35.2712 20.8789C35.4535 21.212 35.5478 21.5864 35.5479 21.9661C35.5479 22.2848 35.477 22.5977 35.3477 22.8874L34.5257 25.4948C34.5041 25.5635 34.4774 25.631 34.4443 25.695C34.2545 26.0609 33.9675 26.3685 33.6159 26.5837C33.2644 26.7987 32.8609 26.9131 32.4489 26.9157H30.7139L33.1895 34.6175C33.4003 35.2746 33.0392 35.9802 32.3822 36.1914C31.7253 36.402 31.0213 36.0391 30.8099 35.3825L28.0885 26.9157H11.9118L9.19043 35.3825C8.97897 36.0392 8.27511 36.4024 7.61816 36.1914C6.96113 35.9802 6.60003 35.2746 6.81087 34.6175L9.28646 26.9157H7.61491C7.2019 26.9244 6.79326 26.8215 6.4349 26.6146C6.06038 26.3982 5.75636 26.0775 5.55762 25.6934C5.53503 25.6496 5.51467 25.6043 5.4974 25.5583L4.49642 22.8923C4.36563 22.6012 4.29297 22.2866 4.29297 21.9661C4.29306 21.5864 4.38891 21.212 4.57129 20.8789L4.57292 20.8805C4.79346 20.4763 5.13428 20.1505 5.54948 19.9512L5.70736 19.8828C6.0365 19.7556 6.39156 19.7103 6.74251 19.7493H13.3066V18.2503H8.64193C8.63121 18.2502 8.61758 18.2492 8.60286 18.2487C8.57358 18.2477 8.53602 18.2453 8.49219 18.2422C8.40447 18.2359 8.28747 18.2243 8.15039 18.2015C7.88103 18.1566 7.50212 18.0645 7.10872 17.8678C6.71044 17.6687 6.27405 17.3499 5.9401 16.849C5.60113 16.3403 5.41764 15.7185 5.41764 15V6.97428C5.41782 6.96357 5.41878 6.94994 5.41927 6.93522C5.42026 6.90594 5.42102 6.86837 5.42415 6.82454C5.43043 6.73681 5.44364 6.6199 5.46647 6.48275C5.51137 6.21338 5.60343 5.83447 5.80013 5.44108C5.99922 5.04295 6.31678 4.60633 6.81738 4.27246C7.32613 3.9333 7.94924 3.75 8.66797 3.75H20.6943C20.7049 3.75017 20.7174 3.75115 20.7318 3.75163ZM8.66797 6.25C8.3867 6.25 8.25786 6.3167 8.2041 6.35254C8.14272 6.39359 8.08717 6.45786 8.03646 6.55924C7.98318 6.6658 7.9499 6.78731 7.93229 6.8929C7.92398 6.94276 7.91918 6.98212 7.91764 7.00358V15C7.91764 15.2805 7.98427 15.4082 8.02018 15.4622C8.06124 15.5238 8.12518 15.5807 8.22689 15.6315C8.33346 15.6848 8.45494 15.7181 8.56055 15.7357C8.6104 15.744 8.64977 15.7472 8.67122 15.7487C8.68139 15.7494 8.6875 15.7503 8.6875 15.7503H20.6683C20.9488 15.7502 21.0767 15.6836 21.1305 15.6478C21.1921 15.6067 21.2489 15.5428 21.2998 15.4411C21.3531 15.3346 21.3864 15.213 21.404 15.1074C21.4119 15.0599 21.4153 15.022 21.417 15V14.9919C21.4175 14.9846 21.4186 14.9805 21.4186 14.9805L21.417 14.9854V7.00033C21.417 6.71906 21.3503 6.59021 21.3145 6.53646C21.2735 6.47535 21.2101 6.41935 21.1094 6.36881C21.0028 6.31551 20.8797 6.28225 20.7741 6.26465C20.7248 6.25645 20.6865 6.25155 20.665 6.25H8.66797Z" fill="#FAFAFA"/>
</svg>
