<svg width="40" height="40" viewBox="0 0 40 40" fill="none" xmlns="http://www.w3.org/2000/svg">
<path d="M27.6139 29.375C28.2946 28.8988 29.1878 28.9119 29.8551 29.3392L29.9951 29.4385L30.1872 29.5768C31.1811 30.2504 32.6446 30.625 33.75 30.625C34.4402 30.625 34.9998 31.1848 35 31.875C34.9998 32.5652 34.4402 33.125 33.75 33.125C32.2523 33.125 30.2686 32.654 28.776 31.639C27.4724 32.6261 25.9254 33.125 24.375 33.125C22.8349 33.125 21.2982 32.6326 20 31.6585C18.7018 32.6326 17.1651 33.125 15.625 33.125C14.0742 33.125 12.5262 32.6266 11.2223 31.639C9.72991 32.6534 7.7473 33.125 6.25 33.125C5.55977 33.125 5.0002 32.5652 5 31.875C5.00019 31.1848 5.55976 30.625 6.25 30.625C7.42893 30.625 9.01544 30.199 10.0049 29.4385C10.7282 28.8824 11.7866 28.8611 12.5277 29.4857C13.4314 30.2475 14.5294 30.625 15.625 30.625C16.7206 30.625 17.8186 30.2475 18.7223 29.4857L18.8639 29.3766C19.5919 28.8679 20.5879 28.9043 21.2777 29.4857C22.1814 30.2475 23.2794 30.625 24.375 30.625C25.4706 30.625 26.5686 30.2475 27.4723 29.4857L27.6139 29.375Z" fill="#FAFAFA"/>
<path d="M12.5 14.375C13.1904 14.375 13.75 14.9346 13.75 15.625C13.75 16.3154 13.1904 16.875 12.5 16.875C11.8096 16.875 11.25 16.3154 11.25 15.625C11.25 14.9346 11.8096 14.375 12.5 14.375Z" fill="#FAFAFA"/>
<path d="M16.25 14.375C16.9404 14.375 17.5 14.9346 17.5 15.625C17.5 16.3154 16.9404 16.875 16.25 16.875C15.5596 16.875 15 16.3154 15 15.625C15 14.9346 15.5596 14.375 16.25 14.375Z" fill="#FAFAFA"/>
<path d="M20 14.375C20.6904 14.375 21.25 14.9346 21.25 15.625C21.25 16.3154 20.6904 16.875 20 16.875C19.3096 16.875 18.75 16.3154 18.75 15.625C18.75 14.9346 19.3096 14.375 20 14.375Z" fill="#FAFAFA"/>
<path fill-rule="evenodd" clip-rule="evenodd" d="M15.957 6.875C17.2125 6.87501 18.2137 6.916 18.9307 6.96126C20.2341 7.0436 21.2694 7.95548 21.6178 9.14062C21.7781 9.68575 21.9363 10.2176 22.085 10.7178C22.7758 10.7484 23.352 10.7809 23.8216 10.8154C25.3237 10.9261 26.5495 11.9758 26.9336 13.4033C27.1397 14.1697 27.3194 14.9264 27.4854 15.6559C28.9869 15.6176 30.8418 15.6041 32.5814 15.6966C33.9908 15.7719 35.0328 17.0188 34.8551 18.4196C34.6 20.4284 33.9361 24.5742 32.4235 28.6914C32.4148 28.715 32.4028 28.7377 32.3909 28.7598C32.3874 28.7664 32.383 28.7726 32.3796 28.7793C32.3767 28.7849 32.3741 28.7915 32.3714 28.7972C31.5945 28.6271 30.8009 28.326 30.1872 27.9102L29.9951 27.7718L29.8551 27.6725C29.188 27.2453 28.2946 27.2324 27.6139 27.7083L27.4723 27.819C26.5688 28.5807 25.4705 28.9582 24.375 28.9583C23.2795 28.9583 22.1813 28.5806 21.2777 27.819C20.588 27.2379 19.5919 27.2015 18.8639 27.71L18.7223 27.819C17.8188 28.5807 16.7205 28.9582 15.625 28.9583C14.5295 28.9583 13.4313 28.5806 12.5277 27.819C11.7867 27.1946 10.7282 27.216 10.0049 27.7718C9.11535 28.4555 7.74252 28.8656 6.61784 28.9421C5.53542 25.3773 5.17845 22.2184 5.06022 20.5143C4.95808 19.0362 6.16396 17.9034 7.55046 17.9281C7.67398 17.9303 7.80545 17.9306 7.94434 17.9329C8.06227 16.7596 8.20439 15.4159 8.38053 13.9372C8.53745 12.6198 9.39199 11.496 10.6055 11.0238L10.599 9.98047C10.5897 8.4091 11.7721 7.02243 13.4277 6.93685C14.0941 6.90256 14.9432 6.875 15.957 6.875ZM12.5 23.75C11.8101 23.7504 11.2502 24.3101 11.25 25C11.2502 25.6899 11.8101 26.2496 12.5 26.25H25C25.69 26.2498 26.2498 25.69 26.25 25C26.2498 24.31 25.69 23.7502 25 23.75H12.5ZM17.5732 13.125C14.8996 13.125 13.0208 13.2065 11.8083 13.2878C11.333 13.32 10.9295 13.6865 10.8643 14.2318C10.7007 15.6045 10.5665 16.8597 10.4541 17.9671C13.7216 18.0051 18.373 18.0287 22.4528 17.9215L23.0729 16.9206C23.0827 16.9048 23.0954 16.8905 23.1055 16.875C23.4058 16.4134 23.8476 16.0662 24.3636 15.8854C24.3714 15.8827 24.3786 15.8783 24.3864 15.8757C24.5645 15.8152 24.7509 15.7768 24.943 15.7585H24.9463C24.8148 15.1999 24.6731 14.6286 24.5182 14.0527C24.4028 13.6243 24.0523 13.3394 23.6377 13.3089C22.4443 13.2212 20.4777 13.125 17.5732 13.125ZM15.957 9.375C14.9879 9.375 14.1818 9.40141 13.5563 9.43359C13.3208 9.44604 13.097 9.64347 13.099 9.96582L13.1022 10.7145C13.1467 10.7126 13.1918 10.7115 13.2373 10.7096C13.7112 10.6898 14.2366 10.6729 14.8161 10.6592C15.0168 10.6543 15.224 10.6484 15.4378 10.6445C15.5746 10.6421 15.714 10.64 15.8561 10.638C16.3901 10.6304 16.9625 10.625 17.5749 10.625C18.2492 10.625 18.8753 10.6291 19.4548 10.638C19.378 10.3784 19.2992 10.1136 19.2204 9.84538C19.1482 9.5999 18.9576 9.46805 18.7728 9.45638C18.1055 9.41425 17.1571 9.37501 15.957 9.375Z" fill="#FAFAFA"/>
</svg>
