<svg width="40" height="40" viewBox="0 0 40 40" fill="none" xmlns="http://www.w3.org/2000/svg">
<path fill-rule="evenodd" clip-rule="evenodd" d="M28.332 11.8389V11.6663C28.332 7.06397 24.6011 3.33301 19.9987 3.33301C15.3963 3.33301 11.6654 7.06397 11.6654 11.6663V11.8389C10.1779 12.2596 8.99781 13.4125 8.53907 14.8836L5.40123 13.8163C4.74765 13.5939 4.0376 13.9436 3.81528 14.5971C3.59297 15.2507 3.94259 15.9608 4.59617 16.1831L8.33203 17.4538V21.6663H4.58203C3.89168 21.6663 3.33203 22.226 3.33203 22.9163C3.33203 23.6067 3.89168 24.1663 4.58203 24.1663H8.33203V24.9997C8.33203 25.9833 8.45377 26.9386 8.68301 27.8511C8.63744 27.8611 8.59197 27.8738 8.54677 27.8891L4.59617 29.2329C3.94259 29.4552 3.59297 30.1653 3.81528 30.8189C4.0376 31.4725 4.74765 31.8221 5.40123 31.5998L9.35184 30.256C9.41761 30.2336 9.4803 30.2063 9.53965 30.1746C11.2711 33.6673 14.7006 36.169 18.7487 36.6002V22.9163C18.7487 22.226 19.3083 21.6663 19.9987 21.6663C20.6891 21.6663 21.2487 22.226 21.2487 22.9163V36.6002C25.2969 36.169 28.7265 33.6672 30.4579 30.1743C30.5173 30.2061 30.5802 30.2335 30.6461 30.256L34.5961 31.5997C35.2497 31.8221 35.9598 31.4725 36.1821 30.8189C36.4044 30.1654 36.0549 29.4553 35.4013 29.2329L31.4513 27.8892C31.4059 27.8737 31.3602 27.861 31.3144 27.851C31.5436 26.9385 31.6654 25.9833 31.6654 24.9997V24.1663H35.416C36.1063 24.1663 36.666 23.6067 36.666 22.9163C36.666 22.226 36.1063 21.6663 35.416 21.6663H31.6654V17.454L35.4013 16.1831C36.0549 15.9607 36.4044 15.2507 36.1821 14.5971C35.9598 13.9435 35.2497 13.5939 34.5961 13.8163L31.4584 14.8837C30.9997 13.4125 29.8196 12.2596 28.332 11.8389ZM19.9987 5.83301C16.777 5.83301 14.1654 8.44468 14.1654 11.6663H25.832C25.832 8.44468 23.2204 5.83301 19.9987 5.83301Z" fill="#FAFAFA"/>
</svg>
