<svg width="40" height="40" viewBox="0 0 40 40" fill="none" xmlns="http://www.w3.org/2000/svg">
<path d="M32.5144 27.9282L33.7661 31.159C34.1667 32.1953 33.4008 33.3104 32.2882 33.3107H29.4252V35.3892C29.4245 36.0783 28.864 36.6375 28.1736 36.6375C27.4834 36.6373 26.9244 36.0782 26.9236 35.3892V33.3107H12.9327V35.4429C12.9323 36.1323 12.3717 36.6912 11.6811 36.6912C10.9907 36.691 10.4315 36.1322 10.4311 35.4429V33.3107H8.255C7.15517 33.3105 6.38935 32.2184 6.76574 31.1867L8.37219 26.784L8.36731 26.758C8.3663 26.751 8.36506 26.7437 8.36405 26.7368L12.7439 14.87H27.3549L27.3582 14.8683L32.5144 27.9282Z" fill="#FAFAFA"/>
<path d="M8.44218 5.19059C8.98142 5.19069 9.51623 5.29707 10.0144 5.50309C10.5128 5.70921 10.966 6.01098 11.3474 6.39176C11.7289 6.77261 12.0313 7.22557 12.2377 7.72314C12.4442 8.22079 12.5502 8.75514 12.5502 9.29378C12.5501 9.83219 12.4441 10.3654 12.2377 10.8628C12.0314 11.3602 11.7286 11.8118 11.3474 12.1925C10.966 12.5734 10.5128 12.8767 10.0144 13.0828C9.78995 13.1757 9.55735 13.2444 9.32108 13.2961C9.73066 13.5698 10.0441 13.9369 10.2667 14.3475L6.03169 25.8254C4.46917 25.5121 3.2972 24.124 3.36405 22.466C3.48639 19.438 3.86523 16.8052 4.13391 15.2427C4.33806 14.055 5.22948 13.1031 6.38163 12.8354C6.07494 12.6574 5.78884 12.4441 5.5369 12.1925C5.15572 11.8118 4.85296 11.3602 4.6466 10.8628C4.44026 10.3654 4.3342 9.83219 4.3341 9.29378C4.3341 8.75513 4.44018 8.2208 4.6466 7.72314C4.85308 7.22554 5.15545 6.77263 5.5369 6.39176C5.91831 6.011 6.37163 5.70921 6.86991 5.50309C7.36809 5.2971 7.90297 5.19069 8.44218 5.19059Z" fill="#FAFAFA"/>
<path d="M31.5753 5.19873C32.1146 5.19883 32.6494 5.30521 33.1476 5.51123C33.6459 5.71734 34.0992 6.01912 34.4806 6.3999C34.862 6.78075 35.1644 7.2337 35.3709 7.73128C35.5773 8.22893 35.6834 8.76328 35.6834 9.30192C35.6833 9.84033 35.5772 10.3735 35.3709 10.8709C35.1645 11.3683 34.8618 11.8199 34.4806 12.2007C34.2404 12.4405 33.9684 12.6444 33.6782 12.8175C34.8287 13.0866 35.7204 14.0337 35.9243 15.2199C36.193 16.7824 36.5702 19.4154 36.6925 22.4432C36.7549 23.9907 35.7385 25.3016 34.3325 25.7244L29.8126 14.2775C30.0239 13.9009 30.3117 13.5604 30.6834 13.3009C30.4516 13.2495 30.2233 13.182 30.003 13.091C29.5047 12.8848 29.0515 12.5815 28.67 12.2007C28.2889 11.8199 27.9861 11.3683 27.7797 10.8709C27.5734 10.3735 27.4673 9.84033 27.4672 9.30192C27.4672 8.76327 27.5733 8.22894 27.7797 7.73128C27.9862 7.23368 28.2886 6.78076 28.67 6.3999C29.0515 6.01913 29.5048 5.71735 30.003 5.51123C30.5012 5.30523 31.0361 5.19883 31.5753 5.19873Z" fill="#FAFAFA"/>
<path d="M20.0144 3.35791C20.5533 3.35808 21.0872 3.4646 21.5851 3.67041C22.0835 3.87655 22.5366 4.17985 22.9181 4.56071C23.2993 4.94141 23.6019 5.39313 23.8084 5.89046C24.0148 6.38797 24.1208 6.9226 24.1209 7.4611C24.1208 7.99958 24.0148 8.53425 23.8084 9.03174C23.6166 9.4936 23.3382 9.91243 22.9946 10.2752C23.1646 10.3404 23.3333 10.4103 23.4991 10.4868C24.4812 10.9397 25.363 11.5823 26.0984 12.3716H13.9272C14.6629 11.5819 15.5456 10.9399 16.5281 10.4868C16.6935 10.4106 16.8614 10.3402 17.031 10.2752C16.6875 9.91244 16.4089 9.49355 16.2172 9.03174C16.0109 8.53425 15.9048 7.99957 15.9047 7.4611C15.9048 6.9226 16.0108 6.38797 16.2172 5.89046C16.4236 5.39315 16.7264 4.94141 17.1075 4.56071C17.489 4.17985 17.9422 3.87657 18.4405 3.67041C18.939 3.46431 19.475 3.35791 20.0144 3.35791Z" fill="#FAFAFA"/>
</svg>
