<svg width="40" height="40" viewBox="0 0 40 40" fill="none" xmlns="http://www.w3.org/2000/svg">
<path fill-rule="evenodd" clip-rule="evenodd" d="M3.33398 19.9999C3.33398 10.7952 10.7959 3.33325 20.0007 3.33325C29.2054 3.33325 36.6673 10.7952 36.6673 19.9999C36.6673 29.2047 29.2054 36.6666 20.0007 36.6666C10.7959 36.6666 3.33398 29.2047 3.33398 19.9999ZM21.2507 9.58325C21.2507 8.8929 20.691 8.33325 20.0007 8.33325C19.3103 8.33325 18.7507 8.8929 18.7507 9.58325V11.3423C17.8212 11.4865 16.9522 11.8087 16.2381 12.3717C15.1649 13.2178 14.6059 14.4785 14.6059 16.0013C14.6059 17.7742 15.3263 18.9783 16.4242 19.7869C17.3078 20.4377 18.4283 20.8123 19.325 21.1121C19.4191 21.1436 19.5107 21.1742 19.5993 21.2043L19.8061 21.2742C20.8018 21.6108 21.5444 21.8618 22.0945 22.267C22.5606 22.6102 22.8955 23.071 22.8955 24.0396C22.8955 24.9099 22.6037 25.3998 22.2154 25.706C21.781 26.0484 21.0565 26.2908 20.0007 26.2908C18.6609 26.2908 17.8035 25.6793 17.3764 24.9127C17.0405 24.3096 16.2792 24.0931 15.6761 24.429C15.073 24.765 14.8565 25.5263 15.1925 26.1294C15.9074 27.4127 17.1535 28.3483 18.7507 28.6693V30.4166C18.7507 31.1069 19.3103 31.6666 20.0007 31.6666C20.691 31.6666 21.2507 31.1069 21.2507 30.4166V28.6986C22.1801 28.5544 23.0491 28.2322 23.7632 27.6692C24.8364 26.8231 25.3955 25.5624 25.3955 24.0396C25.3955 22.2667 24.675 21.0626 23.5771 20.254C22.6935 19.6032 21.5731 19.2286 20.6763 18.9288C20.5822 18.8973 20.4906 18.8667 20.402 18.8366L20.1953 18.7667C19.1995 18.4301 18.4569 18.1791 17.9068 17.7739C17.4408 17.4307 17.1059 16.9699 17.1059 16.0013C17.1059 15.131 17.3976 14.6411 17.7859 14.3349C18.2203 13.9925 18.9448 13.7501 20.0007 13.7501C21.3404 13.7501 22.1978 14.3616 22.6249 15.1282C22.9608 15.7313 23.7221 15.9478 24.3252 15.6119C24.9283 15.2759 25.1448 14.5146 24.8088 13.9115C24.0939 12.6282 22.8479 11.6926 21.2507 11.3716V9.58325Z" fill="#FAFAFA"/>
</svg>
