<svg width="40" height="40" viewBox="0 0 40 40" fill="none" xmlns="http://www.w3.org/2000/svg">
<path d="M26.1113 20.0166C29.8583 20.0173 32.8981 23.0547 32.8984 26.8018C32.8984 28.2237 32.4575 29.5433 31.71 30.6338L35.9287 34.8506C36.4162 35.3387 36.4163 36.1321 35.9287 36.6201C35.4407 37.1079 34.6473 37.1077 34.1592 36.6201L29.9424 32.4014C28.8522 33.1488 27.5329 33.5886 26.1113 33.5889C22.3638 33.5886 19.3252 30.5494 19.3252 26.8018C19.3256 23.0544 22.364 20.0169 26.1113 20.0166Z" fill="#FAFAFA"/>
<path d="M25.7871 3.33301C26.4774 3.3331 27.0371 3.89368 27.0371 4.58398V6.66699H29.1201C31.6514 6.66699 33.704 8.71877 33.7041 11.25V17.084C33.7038 17.774 33.1441 18.3337 32.4541 18.334C31.7639 18.334 31.2044 17.7741 31.2041 17.084V16.667H6.2041V30.417C6.20419 31.5675 7.13657 32.5 8.28711 32.5H17.4541C18.1442 32.5003 18.704 33.0599 18.7041 33.75C18.7041 34.4402 18.1442 34.9997 17.4541 35H8.28711C5.75586 35 3.70321 32.9482 3.70312 30.417V11.25C3.70321 8.71877 5.75586 6.66699 8.28711 6.66699H10.3701V4.58398C10.3701 3.89368 10.9298 3.3331 11.6201 3.33301C12.3105 3.33301 12.8701 3.89363 12.8701 4.58398V6.66699H24.5371V4.58398C24.5371 3.89363 25.0968 3.33301 25.7871 3.33301Z" fill="#FAFAFA"/>
</svg>
