<svg width="40" height="40" viewBox="0 0 40 40" fill="none" xmlns="http://www.w3.org/2000/svg">
<path d="M23.1803 28.2193L20 31.5494L16.818 28.2209L20 24.8909L23.1803 28.2193Z" fill="#FAFAFA"/>
<path d="M18.2699 23.081L15.0895 26.4111L11.9059 23.0793L15.0879 19.7509L18.2699 23.081Z" fill="#FAFAFA"/>
<path d="M28.0924 23.081L24.9089 26.4111L21.7285 23.0826L24.9105 19.7509L28.0924 23.081Z" fill="#FAFAFA"/>
<path d="M23.182 17.9426L19.9984 21.2727L16.8164 17.9426L20 14.6125L23.182 17.9426Z" fill="#FAFAFA"/>
<path fill-rule="evenodd" clip-rule="evenodd" d="M20 3.33325C23.8722 3.33325 27.4209 3.74212 30.0391 4.427C31.3389 4.76705 32.4805 5.19413 33.3268 5.71769C34.1048 6.19898 34.9999 6.99675 35 8.18026C35 8.34217 34.9806 8.49648 34.9495 8.64412C34.9397 8.71684 34.9286 8.80234 34.9154 8.89966C34.9148 8.90404 34.9127 8.90825 34.9121 8.91268C34.9097 8.93476 34.9075 8.95745 34.904 8.97941C34.8908 9.07664 34.8759 9.18459 34.86 9.30168C34.7774 9.91 34.6577 10.7803 34.5117 11.8293C34.2198 13.9277 33.8209 16.7431 33.3903 19.6077C33.3764 19.7004 33.3622 19.7932 33.348 19.886C33.2858 20.298 33.2174 20.7098 33.1543 21.1213L33.1576 21.1148C33.1489 21.1707 33.1401 21.2266 33.1315 21.2825C32.7774 23.5849 32.4164 25.8412 32.0801 27.6985C31.8716 28.8501 31.6706 29.8634 31.4893 30.6444C31.3989 31.0335 31.3097 31.3814 31.2223 31.6666C31.1471 31.9121 31.0376 32.2376 30.8757 32.4918C30.7952 32.6186 30.7063 32.7438 30.612 32.8694C30.5814 32.9102 30.548 32.9492 30.5159 32.9898C30.4493 33.0741 30.3807 33.1588 30.3076 33.2421C30.2732 33.2814 30.2377 33.3203 30.2018 33.3593C30.1251 33.4427 30.0444 33.5246 29.9609 33.6067C29.9097 33.657 29.8569 33.7066 29.8031 33.7564C29.7238 33.8297 29.6422 33.9026 29.5573 33.9745C29.4984 34.0243 29.4382 34.0736 29.3766 34.1226C29.298 34.1852 29.2172 34.2469 29.1341 34.3082C29.0654 34.3588 28.996 34.4099 28.9242 34.4596C28.8238 34.5288 28.7198 34.5958 28.6133 34.663C28.55 34.7029 28.4868 34.7443 28.4212 34.7834C28.3165 34.846 28.2078 34.9054 28.0973 34.9657C28.0148 35.0108 27.9325 35.0586 27.8467 35.1025C27.6597 35.198 27.465 35.2903 27.2624 35.3792C27.2324 35.3923 27.2015 35.4036 27.1712 35.4166C26.9897 35.4943 26.8022 35.5693 26.6081 35.6412C26.5276 35.671 26.445 35.6971 26.3623 35.7258C26.2151 35.777 26.0657 35.8295 25.9115 35.8772C25.8075 35.9093 25.7013 35.9379 25.5941 35.9683C25.4472 36.0101 25.2979 36.052 25.1449 36.0904C25.03 36.1193 24.9133 36.1465 24.7949 36.1734C24.6463 36.2072 24.495 36.2388 24.3408 36.2694C24.2094 36.2956 24.076 36.3206 23.9404 36.3443C23.7795 36.3725 23.6156 36.3978 23.4489 36.4224C23.3214 36.4413 23.1925 36.461 23.0615 36.4778C22.8867 36.5002 22.7087 36.5195 22.5277 36.538C22.3831 36.5528 22.2368 36.5697 22.0882 36.5819C22.0677 36.5836 22.047 36.5868 22.0264 36.5885C22.0069 36.59 21.9873 36.5918 21.9678 36.5933C21.7943 36.6067 21.6178 36.6129 21.4388 36.6226C21.319 36.6292 21.1981 36.6389 21.0758 36.6438C20.7273 36.6577 20.3688 36.6666 20 36.6666C13.7921 36.6666 10.4859 34.6368 9.12435 32.4918L9.01204 32.29C8.90933 32.0798 8.83412 31.8508 8.77767 31.6666C8.6903 31.3814 8.6011 31.0335 8.51074 30.6444C8.32938 29.8634 8.12844 28.8501 7.91992 27.6985C7.58237 25.8342 7.22058 23.5678 6.86523 21.2564C6.85731 21.2049 6.84873 21.1534 6.84082 21.1018C6.83749 21.0801 6.83438 21.0584 6.83105 21.0367C6.83177 21.0421 6.83189 21.0476 6.83268 21.053C6.75888 20.5715 6.68206 20.089 6.6097 19.6077C6.1791 16.7431 5.78022 13.9277 5.48828 11.8293C5.34232 10.7803 5.22261 9.91 5.13997 9.30168C5.10335 9.03204 5.07203 8.81345 5.05046 8.65389C5.01827 8.50342 5 8.34559 5 8.18026C5.00011 6.99675 5.8952 6.19898 6.67318 5.71769C7.5195 5.19413 8.66115 4.76705 9.96094 4.427C12.5791 3.74212 16.1278 3.33325 20 3.33325ZM32.0654 11.2694C31.4566 11.5189 30.7736 11.7413 30.0391 11.9335C29.5909 12.0508 29.1146 12.1557 28.6149 12.2558L24.9105 16.1327L21.7285 12.8027L21.5365 13.0028C21.031 13.0172 20.5185 13.0273 20 13.0273C19.4809 13.0273 18.9678 13.0158 18.4619 13.0012L18.2715 12.8027L18.0908 12.9898L15.0879 16.1327L11.3835 12.2558C10.8844 12.1555 10.4086 12.0507 9.96094 11.9335C9.22586 11.7412 8.54208 11.5192 7.93294 11.2694C7.94277 11.3402 7.95378 11.4118 7.96387 11.4843C8.00597 11.7869 8.05098 12.1044 8.09733 12.4348L13.3594 17.941L9.50684 21.9742C9.64962 22.8859 9.7914 23.7795 9.93164 24.6321L13.361 28.2209L11.0758 30.6086C11.1083 30.7327 11.1385 30.8413 11.167 30.9342C11.2286 31.1351 11.2602 31.1908 11.2484 31.1718C11.507 31.5721 11.9542 32.0488 12.6595 32.5064C12.672 32.5145 12.6843 32.5228 12.6969 32.5308L15.0895 30.0292L18.2715 33.3593L17.6188 34.0396C18.0595 34.0868 18.5268 34.1258 19.0234 34.1454C19.3374 34.1578 19.6627 34.1666 20 34.1666C20.3373 34.1666 20.6626 34.1579 20.9766 34.1454C21.4355 34.1272 21.8694 34.0931 22.2803 34.051C22.3136 34.0476 22.3466 34.0432 22.3796 34.0396L21.7285 33.3593L24.9105 30.0292L27.3014 32.5308C28.0283 32.066 28.4866 31.5792 28.75 31.1718C28.7557 31.1561 28.786 31.0875 28.833 30.9342C28.8613 30.8418 28.8902 30.7335 28.9225 30.6103L26.639 28.2209L29.821 24.8892L30.0635 24.637C30.0395 24.7829 30.0191 24.9282 29.9951 25.0715C30.0195 24.9258 30.0438 24.7787 30.0684 24.6305L30.0635 24.637C30.2041 23.7828 30.3485 22.8878 30.4915 21.9742L26.639 17.9426L31.901 12.4364C31.9475 12.1053 31.994 11.7875 32.0361 11.4843C32.0462 11.4118 32.0556 11.3402 32.0654 11.2694ZM30.752 20.2978C30.6643 20.8598 30.5783 21.4204 30.4915 21.9742C30.5784 21.4194 30.666 20.8579 30.752 20.2945V20.2978ZM20 5.83325C16.2773 5.83325 12.9504 6.22875 10.5924 6.84562C9.40456 7.15643 8.53324 7.50624 7.98828 7.84334C7.74739 7.99237 7.62236 8.1075 7.55697 8.17863C7.62214 8.24958 7.74557 8.36703 7.98828 8.51717C8.53332 8.85422 9.40475 9.20405 10.5924 9.51489C12.7404 10.077 15.6925 10.4546 19.0153 10.5175L19.0511 10.5191L20 10.5273C23.7227 10.5273 27.0496 10.1319 29.4076 9.51489C30.5953 9.20405 31.4667 8.85422 32.0117 8.51717C32.2528 8.36806 32.3746 8.2499 32.4398 8.17863C32.3742 8.10721 32.2509 7.9913 32.0117 7.84334C31.4668 7.50624 30.5954 7.15643 29.4076 6.84562C27.0496 6.22875 23.7227 5.83325 20 5.83325Z" fill="#FAFAFA"/>
</svg>
