<svg width="40" height="40" viewBox="0 0 40 40" fill="none" xmlns="http://www.w3.org/2000/svg">
<path d="M32.25 5C33.7688 5 35 6.23122 35 7.75V32.25C35 33.7688 33.7688 35 32.25 35H7.75C6.23122 35 5 33.7688 5 32.25V7.75C5 6.23122 6.23122 5 7.75 5H32.25ZM26.9951 12.167C24.9639 12.1675 23.4651 13.2248 22.2861 14.6543C21.1257 16.0614 20.2029 17.9163 19.3291 19.666C18.4344 21.4576 17.5879 23.1446 16.5576 24.3936C15.546 25.6198 14.4319 26.3338 13.0059 26.334H12.917C12.5028 26.334 12.167 26.6698 12.167 27.084C12.1673 27.4979 12.503 27.834 12.917 27.834H13.0059C15.0367 27.8338 16.536 26.7768 17.7148 25.3477C18.8753 23.9408 19.7972 22.0856 20.6709 20.3359C21.5656 18.5443 22.4121 16.8577 23.4424 15.6084C24.4542 14.3815 25.5687 13.6674 26.9951 13.667H27.084L27.1602 13.6631C27.5382 13.6246 27.8338 13.3051 27.834 12.917C27.834 12.5287 27.5383 12.2094 27.1602 12.1709L27.084 12.167H26.9951Z" fill="#FAFAFA"/>
</svg>
