<svg width="40" height="40" viewBox="0 0 40 40" fill="none" xmlns="http://www.w3.org/2000/svg">
<path fill-rule="evenodd" clip-rule="evenodd" d="M25.5385 3.43631C23.9675 3.19083 22.5333 3.37947 21.3266 4.03838C20.1122 4.6973 19.1871 5.79549 18.5695 7.2632C18.001 8.60945 17.8357 9.9247 18.1044 11.1624C18.3085 12.1185 18.7633 12.9919 19.4429 13.7723C19.6212 13.979 19.6729 14.2632 19.5566 14.5113C19.4171 14.811 19.2801 15.1133 19.1432 15.4183C19.0953 15.5287 19.0777 15.6498 19.0923 15.7693C19.1068 15.8887 19.1529 16.0021 19.2259 16.0978C19.9649 17.0978 20.4558 18.2736 20.6393 19.5165C20.6884 19.8524 20.9675 20.1185 21.3085 20.1185H21.7427C22.8021 20.1185 23.9494 20.4364 24.9985 20.9816C25.3473 21.1625 25.7892 21.0333 25.9468 20.6715C26.376 19.6963 26.7767 18.7088 27.1483 17.7102C27.1972 17.5867 27.2808 17.4799 27.389 17.4029C27.4972 17.3259 27.6254 17.2818 27.7582 17.2761C28.7918 17.2167 29.7349 16.9325 30.5618 16.4131C31.6341 15.7413 32.461 14.7025 33.0269 13.3588C33.6212 11.9505 33.7737 10.5784 33.4559 9.29679C33.138 8.01255 32.3628 6.88335 31.2078 5.93761C31.1297 5.87342 31.0377 5.82844 30.9391 5.80628C30.8405 5.78412 30.7381 5.78541 30.64 5.81004C30.542 5.83467 30.4512 5.88196 30.3747 5.94809C30.2983 6.01423 30.2385 6.09737 30.2 6.19084C30.1746 6.25303 30.1488 6.31504 30.1225 6.37689C29.9132 6.87301 29.7091 7.39756 29.5204 7.88077C29.3809 8.23477 29.2517 8.56811 29.1328 8.85235C28.8305 9.58878 28.5566 10.1573 28.2465 10.5604C27.9494 10.948 27.6548 11.1443 27.3086 11.2064C26.9365 11.2684 26.399 11.2012 25.5902 10.8265C24.7737 10.4492 24.3783 10.0978 24.1949 9.7955C24.0269 9.51901 23.9881 9.20118 24.0863 8.75157C24.1897 8.27612 24.4377 7.71798 24.7814 7.00996L25.0036 6.55777C25.3709 5.82898 25.7131 5.0878 26.0295 4.33554C26.0695 4.24496 26.0881 4.1464 26.084 4.04746C26.0798 3.94853 26.053 3.85187 26.0056 3.76496C25.9581 3.67805 25.8913 3.60321 25.8103 3.54623C25.7293 3.48924 25.6364 3.45164 25.5385 3.43631ZM17.0295 22.5449L16.6832 23.3459H21.7427C23.1328 23.3459 25.9158 24.7413 25.9158 27.5216C25.9158 30.3046 23.1173 36.6664 20.1587 36.6664C17.1199 36.6664 11.4248 36.1031 8.29559 35.6328C7.15347 35.4622 6.38086 34.4803 6.38086 33.3253V26.855C6.38099 26.381 6.5115 25.9161 6.75812 25.5113L11.7245 17.3562C11.953 16.9806 12.2906 16.6836 12.6923 16.5049C13.094 16.3262 13.5407 16.2744 13.9726 16.3562C14.6086 16.4773 15.2093 16.7398 15.7302 17.1243C16.2511 17.5087 16.6789 18.0054 16.9821 18.5774C17.2852 19.1495 17.4559 19.7824 17.4816 20.4293C17.5072 21.0762 17.3872 21.7206 17.1302 22.3149L17.0295 22.5449Z" fill="#FAFAFA"/>
</svg>
