<svg width="40" height="40" viewBox="0 0 40 40" fill="none" xmlns="http://www.w3.org/2000/svg">
<path fill-rule="evenodd" clip-rule="evenodd" d="M16.7651 6.40597C19.1611 2.45799 24.9147 2.27951 27.5594 6.0711L29.0098 8.15031L31.0107 7.17886C31.5761 6.90448 32.2548 6.99975 32.7193 7.41865C33.1836 7.83755 33.3382 8.49389 33.1081 9.07061L30.2981 16.1169C30.0136 16.8306 29.2269 17.2186 28.4742 17.0164L20.94 14.9917C20.3285 14.8274 19.8841 14.3088 19.8233 13.6888C19.7626 13.0688 20.0982 12.4764 20.6666 12.2005L22.3421 11.3871L20.9714 9.27316C20.6444 8.76886 19.917 8.71237 19.5135 9.15989L16.7718 12.2002C16.2494 12.7795 15.3643 12.8731 14.7284 12.4163C14.0926 11.9595 13.9149 11.1023 14.3183 10.4376L16.7651 6.40597ZM12.2458 14.4645C13.0173 14.3499 13.7525 14.8253 13.9506 15.5667L15.9331 22.99C16.094 23.5925 15.8592 24.23 15.3431 24.5917C14.827 24.9534 14.137 24.964 13.6097 24.6183L12.055 23.5993L10.8771 25.8226C10.5961 26.353 10.9099 27.0001 11.5062 27.1198L15.5568 27.9326C16.3286 28.0873 16.8536 28.7938 16.7689 29.5633C16.6842 30.3326 16.0175 30.9124 15.2299 30.9016L10.453 30.8354C5.77525 30.7706 2.7411 25.9639 4.76069 21.8177L5.86817 19.5441L4.01143 18.3271C3.48699 17.9833 3.23158 17.3581 3.36859 16.7535C3.50561 16.1489 4.00684 15.6892 4.63018 15.5966L12.2458 14.4645ZM20.518 30.1879C20.0312 29.589 20.0826 28.7256 20.6372 28.1864L26.1888 22.7877C26.6394 22.3496 27.3187 22.2307 27.8957 22.489C28.4725 22.7473 28.8267 23.3291 28.7856 23.9507L28.665 25.7831L31.2137 25.6738C31.8216 25.6477 32.235 25.057 32.0423 24.4898L30.7333 20.6368C30.4839 19.9026 30.8442 19.1026 31.5646 18.79C32.2851 18.4774 33.1296 18.7548 33.5138 19.4304L35.8439 23.5282C38.1257 27.5409 35.406 32.5261 30.7418 32.8805L28.1841 33.0751L28.0398 35.2636C27.999 35.8817 27.5755 36.4115 26.9742 36.5973C26.3728 36.783 25.717 36.5862 25.3236 36.1022L20.518 30.1879Z" fill="#FAFAFA"/>
</svg>
