<svg width="40" height="40" viewBox="0 0 40 40" fill="none" xmlns="http://www.w3.org/2000/svg">
<path fill-rule="evenodd" clip-rule="evenodd" d="M17.4825 13.8015C16.6391 13.6042 15.761 13.5001 14.8598 13.5001C8.48685 13.5001 3.33203 18.6925 3.33203 25.0834C3.33203 31.4743 8.48685 36.6667 14.8598 36.6667H27.707C32.6609 36.6667 36.6654 32.6309 36.6654 27.6667C36.6654 24.439 34.9737 21.6072 32.4315 20.0189C32.9492 18.9462 33.2394 17.7422 33.2394 16.4723C33.2394 11.9837 29.6185 8.33341 25.1376 8.33341C21.5899 8.33341 18.5821 10.6213 17.4825 13.8015ZM19.8397 14.634C21.6735 15.5178 23.2366 16.8734 24.3749 18.5424C24.5916 18.8602 25.0677 19.0511 25.5223 18.9366C26.2228 18.7601 26.9549 18.6667 27.707 18.6667C28.5508 18.6667 29.3687 18.7843 30.1446 19.0043C30.5251 18.2437 30.7394 17.3843 30.7394 16.4723C30.7394 13.3517 28.2251 10.8334 25.1376 10.8334C22.6876 10.8334 20.5977 12.4193 19.8397 14.634Z" fill="#FAFAFA"/>
<path fill-rule="evenodd" clip-rule="evenodd" d="M25.4154 1.66675C26.1057 1.66675 26.6654 2.22639 26.6654 2.91675V4.58341C26.6654 5.27377 26.1057 5.83341 25.4154 5.83341C24.725 5.83341 24.1654 5.27377 24.1654 4.58341V2.91675C24.1654 2.22639 24.725 1.66675 25.4154 1.66675ZM35.7273 5.93811C36.2155 6.42626 36.2155 7.21772 35.7273 7.70588L34.5488 8.88439C34.0607 9.37254 33.2692 9.37254 32.7811 8.88439C32.2929 8.39623 32.2929 7.60477 32.7811 7.11662L33.9596 5.93811C34.4477 5.44995 35.2392 5.44995 35.7273 5.93811ZM15.1044 5.93812C15.5926 5.44996 16.384 5.44996 16.8722 5.93812L18.0507 7.11663C18.5388 7.60478 18.5388 8.39624 18.0507 8.8844C17.5625 9.37255 16.7711 9.37255 16.2829 8.8844L15.1044 7.70588C14.6162 7.21773 14.6162 6.42627 15.1044 5.93812ZM35.832 16.2501C35.832 15.5597 36.3917 15.0001 37.082 15.0001H38.7487C39.4391 15.0001 39.9987 15.5597 39.9987 16.2501C39.9987 16.9404 39.4391 17.5001 38.7487 17.5001H37.082C36.3917 17.5001 35.832 16.9404 35.832 16.2501Z" fill="#FAFAFA"/>
</svg>
