<svg width="40" height="40" viewBox="0 0 40 40" fill="none" xmlns="http://www.w3.org/2000/svg">
<path d="M29.091 7C29.4587 7 29.7901 7.20299 29.9309 7.51432C30.0715 7.8257 29.9939 8.1842 29.7339 8.42253L20.6421 16.7559C20.2872 17.0808 19.7129 17.0809 19.3579 16.7559L10.2662 8.42253C10.0063 8.18422 9.92859 7.82565 10.0692 7.51432C10.2099 7.20302 10.5415 7.00005 10.9091 7H29.091Z" fill="#FAFAFA"/>
<path d="M19.3579 23.5775C19.7129 23.2524 20.2872 23.2524 20.6421 23.5775L29.7339 31.9108C29.9938 32.1491 30.0716 32.5077 29.9309 32.819C29.7901 33.1303 29.4586 33.3333 29.091 33.3333H10.9091C10.5415 33.3333 10.2099 33.1303 10.0692 32.819C9.92853 32.5077 10.0063 32.1491 10.2662 31.9108L19.3579 23.5775Z" fill="#FAFAFA"/>
</svg>
