<svg width="40" height="40" viewBox="0 0 40 40" fill="none" xmlns="http://www.w3.org/2000/svg">
<path d="M35 6.58333V9.75C35 15.8712 30.0516 20.8333 23.9473 20.8333H22.3684V25.75H30.2631V33.5C30.2631 35.2489 28.8494 36.6667 27.1052 36.6667H14.4737C12.7296 36.6667 11.3158 35.2489 11.3158 33.5V25.75H19.2105V17.6667C19.2105 11.5455 24.1591 6.58333 30.2631 6.58333H35ZM10.5263 5C14.5189 5 18.05 6.98132 20.1951 10.017C18.5862 12.1422 17.6316 14.7926 17.6316 17.6667V19.25H16.8421C10.3019 19.25 5 13.9334 5 7.375V5H10.5263Z" fill="#FAFAFA"/>
</svg>
