<svg width="40" height="40" viewBox="0 0 40 40" fill="none" xmlns="http://www.w3.org/2000/svg">
<path fill-rule="evenodd" clip-rule="evenodd" d="M6.24935 8.3335C3.71804 8.3335 1.66602 10.3855 1.66602 12.9168V27.0835C1.66602 29.6148 3.71804 31.6668 6.24935 31.6668H28.7493C31.2807 31.6668 33.3327 29.6148 33.3327 27.0835V26.6668H35.416C37.0268 26.6668 38.3327 25.361 38.3327 23.7502V16.2502C38.3327 14.6393 37.0268 13.3335 35.416 13.3335H33.3327V12.9168C33.3327 10.3855 31.2807 8.3335 28.7493 8.3335H6.24935ZM33.3327 15.8335V24.1668H35.416C35.6461 24.1668 35.8327 23.9803 35.8327 23.7502V16.2502C35.8327 16.02 35.6461 15.8335 35.416 15.8335H33.3327ZM9.99935 15.0002C10.6897 15.0002 11.2493 15.5598 11.2493 16.2502V23.7502C11.2493 24.4405 10.6897 25.0002 9.99935 25.0002C9.30899 25.0002 8.74935 24.4405 8.74935 23.7502V16.2502C8.74935 15.5598 9.30899 15.0002 9.99935 15.0002Z" fill="#FAFAFA"/>
</svg>
