<svg width="40" height="40" viewBox="0 0 40 40" fill="none" xmlns="http://www.w3.org/2000/svg">
<path d="M22.9997 5H16.9997C15.8951 5 14.9997 6.19391 14.9997 7.66667V9C14.9997 10.4727 15.8951 11.6667 16.9997 11.6667H22.9997C24.1042 11.6667 24.9997 10.4727 24.9997 9V7.66667C24.9997 6.19391 24.1042 5 22.9997 5Z" fill="#FAFAFA"/>
<path d="M12.4997 8.33333V9.00065C12.4998 10.2254 12.8689 11.4309 13.5853 12.3861C14.3024 13.3421 15.4845 14.1667 17 14.1667H22.9993C24.5149 14.1667 25.697 13.3421 26.4141 12.3861C27.1305 11.4309 27.4995 10.2254 27.4997 9.00065V8.33333H29.4447C30.0338 8.33348 30.5988 8.56777 31.0153 8.98438C31.4318 9.401 31.6662 9.96584 31.6663 10.555V32.7783C31.6662 33.3675 31.4318 33.9324 31.0153 34.349C30.5988 34.7655 30.0338 34.9999 29.4447 35H10.5547C9.96551 34.9999 9.40068 34.7655 8.98405 34.349C8.56744 33.9324 8.33315 33.3675 8.33301 32.7783V10.555C8.33315 9.96583 8.56744 9.401 8.98405 8.98438C9.40068 8.56777 9.96551 8.33348 10.5547 8.33333H12.4997Z" fill="#FAFAFA"/>
<path d="M24.9997 8.33333V9L24.9899 9.27246C24.8876 10.6172 24.0353 11.6667 22.9997 11.6667H16.9997L16.7949 11.6536C15.8537 11.5261 15.105 10.5275 15.0094 9.27246L14.9997 9V8.33333H24.9997Z" fill="#FAFAFA"/>
<path d="M23.75 21.8916H21.25H16.25C15.5596 21.8916 15 22.4512 15 23.1416C15 23.832 15.5596 24.3916 16.25 24.3916H18.75H23.75C24.4404 24.3916 25 23.832 25 23.1416C25 22.4512 24.4404 21.8916 23.75 21.8916Z" fill="#131313"/>
</svg>
