<svg width="40" height="40" viewBox="0 0 40 40" fill="none" xmlns="http://www.w3.org/2000/svg">
<path d="M5.98403 12.8574H33.9269C34.3478 12.8564 34.7632 12.7624 35.1435 12.5821C35.5238 12.4018 35.8596 12.1397 36.1269 11.8146C36.3886 11.4979 36.579 11.1285 36.685 10.7316C36.791 10.3347 36.8102 9.91958 36.7412 9.51458L36.1983 4.14315C36.1628 3.78955 35.9967 3.46189 35.7326 3.22414C35.4684 2.9864 35.1251 2.85566 34.7697 2.85744H5.14117C4.78579 2.85566 4.4425 2.9864 4.17835 3.22414C3.91419 3.46189 3.74813 3.78955 3.7126 4.14315L3.16974 9.5003C3.09665 9.9115 3.1146 10.3337 3.22233 10.7372C3.33005 11.1407 3.52492 11.5157 3.79323 11.8358C4.06154 12.1559 4.39675 12.4132 4.77526 12.5897C5.15377 12.7662 5.56638 12.8576 5.98403 12.8574ZM12.8555 6.42887C12.8555 6.23943 12.9307 6.05775 13.0647 5.92379C13.1986 5.78984 13.3803 5.71458 13.5697 5.71458H26.4269C26.6163 5.71458 26.798 5.78984 26.932 5.92379C27.0659 6.05775 27.1412 6.23943 27.1412 6.42887V10.0003H12.8555V6.42887Z" fill="#FAFAFA"/>
<path d="M14.5698 29.5571L14.9698 27V26.6571C14.971 26.3471 14.911 26.0399 14.7934 25.7531C14.6757 25.4663 14.5026 25.2055 14.284 24.9857C14.0669 24.7626 13.8069 24.5856 13.5197 24.4653C13.2325 24.345 12.924 24.2839 12.6126 24.2857H9.31261C8.39869 24.2863 7.50116 24.5284 6.71091 24.9874C5.92067 25.4465 5.26579 26.1063 4.81261 26.9C3.52448 29.6599 2.85645 32.6685 2.85547 35.7143C2.85547 36.0931 3.00598 36.4565 3.27389 36.7244C3.5418 36.9923 3.90516 37.1428 4.28404 37.1428C4.66292 37.1428 5.02628 36.9923 5.29419 36.7244C5.5621 36.4565 5.71261 36.0931 5.71261 35.7143C5.71361 33.1649 6.24892 30.644 7.28404 28.3143C7.49181 27.9601 7.78799 27.6659 8.14359 27.4606C8.49918 27.2552 8.902 27.1457 9.31261 27.1428H12.0555L11.4269 31.7285C11.3893 31.995 11.4277 32.2667 11.5378 32.5124C11.6479 32.758 11.8251 32.9675 12.049 33.1168C12.273 33.2661 12.5345 33.3491 12.8036 33.3562C13.0726 33.3633 13.3382 33.2943 13.5698 33.1571C14.2652 32.6621 15.0681 32.3389 15.9126 32.2143C15.7255 33.205 15.2596 34.1218 14.5698 34.8571C14.3424 35.1602 14.2448 35.5412 14.2984 35.9163C14.352 36.2914 14.5524 36.6298 14.8555 36.8571C15.1027 37.0426 15.4035 37.1428 15.7126 37.1428C15.9344 37.1428 16.1531 37.0912 16.3515 36.992C16.5499 36.8928 16.7224 36.7488 16.8555 36.5714C18.8126 33.9714 19.2412 31.6 18.0126 30.2428C17.571 29.8006 17.0082 29.4994 16.3953 29.3773C15.7824 29.2553 15.1471 29.3178 14.5698 29.5571Z" fill="#FAFAFA"/>
<path d="M35.1852 26.9003C34.732 26.1067 34.0771 25.4469 33.2869 24.9878C32.4966 24.5287 31.5991 24.2866 30.6852 24.2861H27.3852C26.7562 24.2861 26.1531 24.5359 25.7083 24.9806C25.2636 25.4254 25.0138 26.0285 25.0138 26.6575V27.0003L25.4138 29.5575C24.8393 29.3155 24.2054 29.2515 23.5942 29.3738C22.9829 29.496 22.4224 29.7989 21.9852 30.2432C20.7566 31.6003 21.1852 33.9718 23.128 36.5718C23.2611 36.7492 23.4337 36.8932 23.632 36.9924C23.8304 37.0916 24.0491 37.1432 24.2709 37.1432C24.58 37.1432 24.8808 37.0429 25.128 36.8575C25.4311 36.6301 25.6315 36.2917 25.6851 35.9167C25.7387 35.5416 25.6411 35.1606 25.4138 34.8575C24.7599 34.1143 24.3248 33.2044 24.1566 32.2289C24.9949 32.3603 25.7916 32.683 26.4852 33.1718C26.7167 33.309 26.9823 33.378 27.2514 33.3709C27.5204 33.3637 27.782 33.2807 28.0059 33.1314C28.2298 32.9821 28.4071 32.7726 28.5171 32.527C28.6272 32.2814 28.6656 32.0097 28.628 31.7432L27.9423 27.1432H30.6852C31.0975 27.1462 31.5018 27.2572 31.8577 27.4653C32.2137 27.6733 32.5089 27.9711 32.7138 28.3289C33.7493 30.6535 34.2847 33.1698 34.2852 35.7146C34.2852 36.0935 34.4357 36.4569 34.7036 36.7248C34.9715 36.9927 35.3349 37.1432 35.7137 37.1432C36.0926 37.1432 36.456 36.9927 36.7239 36.7248C36.9918 36.4569 37.1423 36.0935 37.1423 35.7146C37.1413 32.6689 36.4733 29.6603 35.1852 26.9003Z" fill="#FAFAFA"/>
<path d="M11.5843 22.0573C11.701 22.2956 11.8818 22.4966 12.1064 22.6379C12.3309 22.7792 12.5904 22.8552 12.8557 22.8573C13.0745 22.8538 13.2896 22.8 13.4843 22.7002C13.8805 22.4904 14.2286 22.2004 14.5065 21.8487C14.7844 21.497 14.9861 21.0912 15.0986 20.6573C15.2446 20.1815 15.2858 19.6797 15.2192 19.1864C15.1526 18.6932 14.9799 18.2202 14.7129 17.8002C14.615 17.6306 14.5052 17.4683 14.3843 17.3144C14.1272 16.9716 14.0986 16.9287 14.0986 16.8002C14.0835 16.7392 14.0835 16.6754 14.0986 16.6144C14.4343 16.4491 14.6917 16.1585 14.8155 15.8053C14.9392 15.4521 14.9194 15.0645 14.7603 14.7257C14.6013 14.3869 14.3156 14.1241 13.9648 13.9938C13.6139 13.8635 13.226 13.876 12.8843 14.0287C12.3558 14.2894 11.9149 14.6985 11.6155 15.206C11.316 15.7135 11.1712 16.2973 11.1986 16.8859C11.2289 17.6793 11.5258 18.4393 12.0415 19.043C12.0415 19.143 12.1986 19.243 12.27 19.3573C12.3222 19.4786 12.3405 19.6117 12.3229 19.7426C12.3053 19.8734 12.2524 19.997 12.17 20.1002C12.0015 20.1886 11.8524 20.3098 11.7314 20.4567C11.6104 20.6036 11.5199 20.7732 11.4654 20.9555C11.4108 21.1378 11.3932 21.3292 11.4136 21.5184C11.4341 21.7076 11.4921 21.8908 11.5843 22.0573Z" fill="#FAFAFA"/>
<path d="M21.4269 17.8575L21.084 17.386C20.8269 17.0432 20.8126 17.0003 20.8126 16.8718C20.7995 16.8105 20.7995 16.7473 20.8126 16.686C21.13 16.5117 21.3694 16.2233 21.4823 15.8792C21.5952 15.5351 21.5732 15.161 21.4208 14.8325C21.2683 14.504 20.9968 14.2456 20.6611 14.1097C20.3254 13.9738 19.9507 13.9704 19.6126 14.1003C19.0806 14.3565 18.6365 14.7647 18.3364 15.2732C18.0364 15.7818 17.8938 16.3679 17.9269 16.9575C17.9503 17.7523 18.2481 18.5145 18.7697 19.1146L18.984 19.4289C19.0414 19.5482 19.0638 19.6812 19.0487 19.8127C19.0335 19.9442 18.9814 20.0687 18.8983 20.1718C18.619 20.3225 18.3979 20.562 18.2698 20.8523C18.1417 21.1427 18.1139 21.4675 18.1909 21.7754C18.2679 22.0833 18.4452 22.3568 18.6949 22.5527C18.9445 22.7487 19.2524 22.8559 19.5697 22.8575C19.793 22.8531 20.0125 22.7995 20.2126 22.7003C20.6087 22.4905 20.9569 22.2006 21.2348 21.8488C21.5127 21.4971 21.7144 21.0914 21.8269 20.6575C21.9561 20.1883 21.9872 19.6976 21.9184 19.2158C21.8496 18.7341 21.6823 18.2717 21.4269 17.8575Z" fill="#FAFAFA"/>
<path d="M24.9988 22.0573C25.1167 22.2977 25.2997 22.5002 25.527 22.6417C25.7543 22.7831 26.0168 22.8578 26.2846 22.8573C26.5034 22.8538 26.7184 22.8 26.9131 22.7002C27.3173 22.495 27.6737 22.2071 27.9592 21.8552C28.2447 21.5032 28.4529 21.0951 28.5703 20.6573C28.7163 20.1815 28.7575 19.6797 28.6909 19.1864C28.6243 18.6932 28.4516 18.2202 28.1846 17.8002C28.0867 17.6306 27.9769 17.4683 27.856 17.3144C27.5988 16.9716 27.5703 16.9287 27.5703 16.8002C27.5551 16.7392 27.5551 16.6754 27.5703 16.6144C27.906 16.4491 28.1634 16.1585 28.2872 15.8053C28.4109 15.4521 28.3911 15.0645 28.232 14.7257C28.0729 14.3869 27.7873 14.1241 27.4364 13.9938C27.0856 13.8635 26.6977 13.876 26.356 14.0287C25.8275 14.2894 25.3866 14.6985 25.0871 15.206C24.7877 15.7135 24.6429 16.2973 24.6703 16.8859C24.7005 17.6793 24.9975 18.4393 25.5131 19.043C25.5846 19.143 25.6703 19.243 25.7417 19.3573C25.7939 19.4786 25.8122 19.6117 25.7946 19.7426C25.7769 19.8734 25.7241 19.997 25.6417 20.1002C25.4683 20.1835 25.3136 20.301 25.1867 20.4457C25.0599 20.5903 24.9635 20.7591 24.9035 20.9418C24.8435 21.1246 24.821 21.3176 24.8374 21.5093C24.8537 21.701 24.9087 21.8874 24.9988 22.0573Z" fill="#FAFAFA"/>
</svg>
