<svg width="40" height="40" viewBox="0 0 40 40" fill="none" xmlns="http://www.w3.org/2000/svg">
<path d="M29.6335 27.0827H35.4163C36.1066 27.0827 36.6662 27.6424 36.6663 28.3327C36.6664 29.023 36.1067 29.5827 35.4163 29.5827H31.2773L32.7617 34.9717C32.9447 35.6371 32.5559 36.3365 31.8942 36.5326C31.2327 36.7283 30.548 36.3478 30.3643 35.6829L28.6829 29.5827H11.3148L9.63672 35.6829C9.45306 36.3481 8.76682 36.7286 8.10514 36.5326C7.44357 36.3363 7.05625 35.637 7.23926 34.9717L8.72363 29.5827L4.58301 29.5843C3.89282 29.5843 3.33325 29.0245 3.33301 28.3343C3.33299 27.644 3.89265 27.0843 4.58301 27.0843L10.3008 27.0827C10.3562 27.0807 10.4121 27.0769 10.4684 27.0827H29.5407C29.5717 27.0797 29.6027 27.0833 29.6335 27.0827Z" fill="#FAFAFA"/>
<path fill-rule="evenodd" clip-rule="evenodd" d="M27.4997 12.0827C28.7151 12.0827 29.8807 12.5661 30.7402 13.4255C31.5997 14.2849 32.0829 15.4506 32.083 16.666C32.083 17.8815 31.5997 19.047 30.7402 19.9066C29.8807 20.7661 28.7152 21.2493 27.4997 21.2493H27.0146C26.8761 22.0225 26.5299 22.7508 25.999 23.3359C25.2899 24.1174 24.3006 24.5827 23.2402 24.5827H16.7591C15.6988 24.5827 14.7095 24.1174 14.0003 23.3359C13.2952 22.5587 12.9165 21.5281 12.9163 20.4762V14.0472C12.9164 13.5635 13.0899 13.0767 13.4307 12.7012L13.5658 12.5661C13.8986 12.2659 14.3376 12.0828 14.8141 12.0827H27.4997ZM15.4163 20.4762C15.4165 20.9391 15.5842 21.3622 15.8509 21.6562C16.1141 21.9464 16.4444 22.0827 16.7591 22.0827H23.2402C23.555 22.0827 23.8852 21.9464 24.1484 21.6562C24.4151 21.3622 24.5828 20.9391 24.583 20.4762V14.5827H15.4163V20.4762ZM27.083 18.7493H27.4997C28.0521 18.7493 28.5819 18.5297 28.9727 18.139C29.3632 17.7483 29.583 17.2185 29.583 16.666C29.5829 16.1136 29.3633 15.5836 28.9727 15.193C28.5819 14.8024 28.052 14.5827 27.4997 14.5827H27.083V18.7493Z" fill="#FAFAFA"/>
<path d="M18.0775 5.01074C18.7678 5.01074 19.3275 5.57039 19.3275 6.26074V8.2041C19.3275 8.89446 18.7678 9.4541 18.0775 9.4541C17.3871 9.4541 16.8275 8.89446 16.8275 8.2041V6.26074C16.8275 5.57039 17.3871 5.01074 18.0775 5.01074Z" fill="#FAFAFA"/>
<path d="M21.9235 5.01074C22.6135 5.01118 23.1735 5.57066 23.1735 6.26074V8.2041C23.1735 8.89419 22.6135 9.45366 21.9235 9.4541C21.2331 9.4541 20.6735 8.89446 20.6735 8.2041V6.26074C20.6735 5.57039 21.2331 5.01074 21.9235 5.01074Z" fill="#FAFAFA"/>
</svg>
