<svg width="40" height="40" viewBox="0 0 40 40" fill="none" xmlns="http://www.w3.org/2000/svg">
<path d="M18.1468 23.3363C18.218 23.345 18.2865 23.3698 18.3462 23.4095C18.4061 23.4494 18.4555 23.504 18.491 23.5666C18.5265 23.629 18.5484 23.6983 18.5521 23.77C18.6013 24.6719 18.8593 25.4473 19.3862 26.0609C19.5582 25.9874 19.7466 25.9459 19.9437 25.9388C20.0464 25.2471 20.3375 24.5714 20.8104 23.9287C20.9929 23.6799 21.258 23.5028 21.5575 23.4282C21.8567 23.3538 22.1724 23.3878 22.4502 23.5218C23.259 23.9132 23.8236 24.5504 24.1413 25.4342C24.1654 25.5018 24.1728 25.5746 24.1641 25.6458C24.1553 25.717 24.1305 25.7855 24.0908 25.8452C24.0509 25.9051 23.9964 25.9545 23.9338 25.9901C23.8713 26.0255 23.802 26.0474 23.7303 26.0511C22.8278 26.1004 22.0508 26.3576 21.437 26.8853C21.5108 27.0574 21.552 27.2453 21.5591 27.4427C22.2518 27.5456 22.9289 27.8359 23.5716 28.3094C23.8204 28.492 23.9975 28.757 24.0721 29.0565C24.1466 29.3558 24.1125 29.6714 23.9785 29.9492C23.5871 30.7581 22.9499 31.3226 22.0661 31.6403C21.9985 31.6644 21.9257 31.6718 21.8545 31.6631C21.7833 31.6543 21.7148 31.6295 21.6551 31.5898C21.5952 31.5499 21.5458 31.4954 21.5103 31.4328C21.4748 31.3704 21.4529 31.301 21.4492 31.2293C21.3999 30.3263 21.1416 29.5499 20.6134 28.936C20.4413 29.0095 20.2533 29.0512 20.056 29.0581C19.9535 29.7505 19.6643 30.4274 19.1909 31.0706C19.0084 31.3194 18.7433 31.4966 18.4438 31.5711C18.1446 31.6456 17.8289 31.6115 17.5511 31.4775C16.7423 31.0861 16.1777 30.4489 15.86 29.5651C15.8359 29.4975 15.8286 29.4247 15.8372 29.3535C15.846 29.2824 15.8708 29.2138 15.9105 29.1541C15.9504 29.0942 16.0049 29.0449 16.0675 29.0093C16.13 28.9738 16.1993 28.952 16.271 28.9482C17.1733 28.899 17.9482 28.6398 18.5618 28.1125C18.4885 27.9405 18.4466 27.7521 18.4398 27.555C17.7479 27.4518 17.0716 27.1629 16.4297 26.6899C16.1809 26.5074 16.0038 26.2423 15.9292 25.9429C15.8547 25.6436 15.8888 25.3279 16.0228 25.0501C16.4142 24.2413 17.0514 23.6767 17.9352 23.359C18.0028 23.3349 18.0756 23.3276 18.1468 23.3363Z" fill="#FAFAFA"/>
<path d="M18.1468 8.33626C18.218 8.34502 18.2865 8.36983 18.3462 8.4095C18.4061 8.44945 18.4555 8.50397 18.491 8.56657C18.5265 8.62899 18.5484 8.69833 18.5521 8.77002C18.6013 9.67193 18.8593 10.4473 19.3862 11.0609C19.5582 10.9874 19.7466 10.9459 19.9437 10.9388C20.0464 10.2471 20.3375 9.5714 20.8104 8.92871C20.9929 8.67994 21.258 8.50278 21.5575 8.42822C21.8567 8.35376 22.1724 8.38782 22.4502 8.52181C23.259 8.91324 23.8236 9.55041 24.1413 10.4342C24.1654 10.5018 24.1728 10.5746 24.1641 10.6458C24.1553 10.717 24.1305 10.7855 24.0908 10.8452C24.0509 10.9051 23.9964 10.9545 23.9338 10.9901C23.8713 11.0255 23.802 11.0474 23.7303 11.0511C22.8278 11.1004 22.0508 11.3576 21.437 11.8853C21.5108 12.0574 21.552 12.2453 21.5591 12.4427C22.2518 12.5456 22.9289 12.8359 23.5716 13.3094C23.8204 13.492 23.9975 13.757 24.0721 14.0565C24.1466 14.3558 24.1125 14.6714 23.9785 14.9492C23.5871 15.7581 22.9499 16.3226 22.0661 16.6403C21.9985 16.6644 21.9257 16.6718 21.8545 16.6631C21.7833 16.6543 21.7148 16.6295 21.6551 16.5898C21.5952 16.5499 21.5458 16.4954 21.5103 16.4328C21.4748 16.3704 21.4529 16.301 21.4492 16.2293C21.3999 15.3263 21.1416 14.5499 20.6134 13.936C20.4413 14.0095 20.2533 14.0512 20.056 14.0581C19.9535 14.7505 19.6643 15.4274 19.1909 16.0706C19.0084 16.3194 18.7433 16.4966 18.4438 16.5711C18.1446 16.6456 17.8289 16.6115 17.5511 16.4775C16.7423 16.0861 16.1777 15.4489 15.86 14.5651C15.8359 14.4975 15.8286 14.4247 15.8372 14.3535C15.846 14.2824 15.8708 14.2138 15.9105 14.1541C15.9504 14.0942 16.0049 14.0449 16.0675 14.0093C16.13 13.9738 16.1993 13.952 16.271 13.9482C17.1733 13.899 17.9482 13.6398 18.5618 13.1125C18.4885 12.9405 18.4466 12.7521 18.4398 12.555C17.7479 12.4518 17.0716 12.1629 16.4297 11.6899C16.1809 11.5074 16.0038 11.2423 15.9292 10.9429C15.8547 10.6436 15.8888 10.3279 16.0228 10.0501C16.4142 9.24128 17.0514 8.67674 17.9352 8.35905C18.0028 8.33492 18.0756 8.32757 18.1468 8.33626Z" fill="#FAFAFA"/>
<path fill-rule="evenodd" clip-rule="evenodd" d="M28.334 3.33301C30.1749 3.33301 31.6673 4.82539 31.6673 6.66634V33.333L31.6494 33.6732C31.4903 35.2424 30.2434 36.4893 28.6742 36.6484L28.334 36.6663H11.6673L11.3271 36.6484C9.7579 36.4893 8.51098 35.2424 8.35189 33.6732L8.33398 33.333V6.66634C8.33398 4.82539 9.82637 3.33301 11.6673 3.33301H28.334ZM20.0007 21.2497C16.5489 21.2497 13.7507 24.0479 13.7507 27.4997C13.7507 30.9515 16.5489 33.7497 20.0007 33.7497C23.4524 33.7497 26.2507 30.9515 26.2507 27.4997C26.2507 24.0479 23.4524 21.2497 20.0007 21.2497ZM20.0007 6.24967C16.5489 6.24967 13.7507 9.04789 13.7507 12.4997C13.7507 15.9515 16.5489 18.7497 20.0007 18.7497C23.4524 18.7497 26.2507 15.9515 26.2507 12.4997C26.2507 9.04789 23.4524 6.24967 20.0007 6.24967Z" fill="#FAFAFA"/>
</svg>
