<svg width="40" height="40" viewBox="0 0 40 40" fill="none" xmlns="http://www.w3.org/2000/svg">
<path d="M4.375 35.625H35.625" stroke="#FAFAFA" stroke-width="2.5" stroke-linecap="round" stroke-linejoin="round"/>
<path d="M7.14062 18.0781L4.375 15.3125L7.5 8.28125L9.21875 9.14063C10.0781 9.57812 10.625 10.4531 10.625 11.4063C10.625 12.3594 11.1719 13.2344 12.0312 13.6719L13.75 14.5312L18.4375 5.15625L20.0781 5.98438C20.5341 6.21147 20.9276 6.54657 21.2244 6.96051C21.5213 7.37445 21.7124 7.85468 21.7812 8.35938L22.9062 16.7969C22.9751 17.3016 23.1662 17.7818 23.4631 18.1957C23.7599 18.6097 24.1534 18.9448 24.6094 19.1719L31.4844 22.6094C32.1406 22.9531 32.7031 23.4688 33.0625 24.1094L34 25.7188C34.7656 27.0938 33.9062 28.8125 32.3438 29L30.5 29.2344C29.7656 29.3281 29.0156 29.2031 28.3594 28.8594L7.95312 18.6719C7.65199 18.5192 7.3776 18.3186 7.14062 18.0781Z" fill="#FAFAFA"/>
</svg>
