<svg width="40" height="40" viewBox="0 0 40 40" fill="none" xmlns="http://www.w3.org/2000/svg">
<path fill-rule="evenodd" clip-rule="evenodd" d="M20.4759 3.76139C22.8445 3.87891 25.0915 4.87273 26.7764 6.55762C28.2763 8.05753 29.2255 10.0033 29.4993 12.0833H31.6673L31.7959 12.0898C32.4258 12.1542 32.9173 12.6864 32.9173 13.3333C32.9173 13.9803 32.4258 14.5125 31.7959 14.5768L31.6673 14.5833H29.584V18.75H30.0007C30.7742 18.75 31.5158 19.0575 32.0628 19.6045C32.6098 20.1515 32.9173 20.8931 32.9173 21.6667V25L32.9027 25.2881C32.8364 25.9558 32.5415 26.5835 32.0628 27.0622C31.5158 27.6092 30.7742 27.9167 30.0007 27.9167H29.584V33.75H31.6673C32.3577 33.75 32.9173 34.3096 32.9173 35C32.9173 35.6904 32.3577 36.25 31.6673 36.25H8.33398C7.64363 36.25 7.08398 35.6904 7.08398 35C7.08398 34.3096 7.64363 33.75 8.33398 33.75H10.4173V27.9167H10.0007C9.2271 27.9167 8.48546 27.6092 7.93848 27.0622C7.45983 26.5835 7.1649 25.9558 7.09863 25.2881L7.08398 25V21.6667C7.08398 20.8931 7.3915 20.1515 7.93848 19.6045C8.48546 19.0575 9.2271 18.75 10.0007 18.75H10.4173V14.5833H8.33398C7.64363 14.5833 7.08398 14.0237 7.08398 13.3333C7.08398 12.643 7.64363 12.0833 8.33398 12.0833H10.502C10.7758 10.0033 11.725 8.05753 13.2249 6.55762C15.0222 4.76039 17.459 3.75 20.0007 3.75L20.4759 3.76139ZM20.0023 18.3333C18.6762 18.3333 17.4032 18.8605 16.4655 19.7982C15.5281 20.7358 15.0023 22.0074 15.0023 23.3333C15.0023 24.6592 15.5281 25.9308 16.4655 26.8685C17.4032 27.8062 18.6762 28.3333 20.0023 28.3333C21.3281 28.3331 22.5999 27.806 23.5374 26.8685C24.4749 25.9308 25.0023 24.6592 25.0023 23.3333C25.0023 22.0074 24.4749 20.7358 23.5374 19.7982C22.5999 18.8607 21.3281 18.3335 20.0023 18.3333Z" fill="#FAFAFA"/>
<path d="M16.666 23.3333C16.666 24.2174 17.0172 25.0652 17.6423 25.6904C18.2674 26.3155 19.1153 26.6667 19.9993 26.6667C20.8834 26.6667 21.7312 26.3155 22.3564 25.6904C22.9815 25.0652 23.3327 24.2174 23.3327 23.3333C23.3327 22.4493 22.9815 21.6014 22.3564 20.9763C21.7312 20.3512 20.8834 20 19.9993 20C19.1153 20 18.2674 20.3512 17.6423 20.9763C17.0172 21.6014 16.666 22.4493 16.666 23.3333Z" fill="#FAFAFA"/>
</svg>
