<svg width="32" height="32" viewBox="0 0 32 32" fill="none" xmlns="http://www.w3.org/2000/svg">
<path d="M30.4142 10.1705L21.8292 1.58546C21.6435 1.39969 21.423 1.25233 21.1803 1.1518C20.9376 1.05126 20.6775 0.999512 20.4148 0.999512C20.1521 0.999512 19.892 1.05126 19.6493 1.1518C19.4067 1.25233 19.1862 1.39969 19.0004 1.58546L15.4454 5.14046L8.19544 7.86046C7.866 7.98304 7.57469 8.19028 7.35085 8.4613C7.12701 8.73232 6.97856 9.05754 6.92044 9.40421L4.32419 24.9792C4.30678 25.0836 4.32298 25.1909 4.37044 25.2855C4.4179 25.3802 4.49417 25.4573 4.58828 25.5058C4.68238 25.5543 4.78946 25.5717 4.89408 25.5555C4.9987 25.5392 5.09547 25.4902 5.17044 25.4155L12.2954 18.2905C12.0697 17.8208 11.971 17.3002 12.0092 16.7805C12.0557 16.1411 12.3057 15.5335 12.7227 15.0466C13.1397 14.5597 13.7017 14.2191 14.3263 14.0749C14.9509 13.9307 15.6052 13.9903 16.1935 14.245C16.7817 14.4998 17.2729 14.9363 17.595 15.4905C17.9172 16.0447 18.0533 16.6876 17.9834 17.3248C17.9136 17.962 17.6415 18.5601 17.207 19.0314C16.7725 19.5027 16.1984 19.8225 15.5689 19.9438C14.9395 20.0651 14.2877 19.9816 13.7092 19.7055L6.58419 26.8305C6.50943 26.9054 6.4604 27.0022 6.44416 27.1068C6.42792 27.2114 6.4453 27.3185 6.49382 27.4126C6.54233 27.5067 6.61946 27.583 6.7141 27.6305C6.80874 27.6779 6.916 27.6941 7.02044 27.6767L22.5967 25.0805C22.9428 25.0228 23.2676 24.8751 23.5386 24.6522C23.8096 24.4292 24.0171 24.139 24.1404 23.8105L26.8617 16.5517L30.4142 13.0005C30.6 12.8147 30.7473 12.5942 30.8479 12.3516C30.9484 12.1089 31.0001 11.8488 31.0001 11.5861C31.0001 11.3234 30.9484 11.0633 30.8479 10.8206C30.7473 10.5779 30.6 10.3574 30.4142 10.1717V10.1705ZM26.0004 14.5855L17.4154 6.00046L20.4154 3.00046L29.0004 11.5855L26.0004 14.5855Z" fill="#FAFAFA"/>
</svg>
