<svg width="40" height="40" viewBox="0 0 40 40" fill="none" xmlns="http://www.w3.org/2000/svg">
<path d="M11.0304 30.7253C11.2375 30.7369 11.4396 30.7962 11.6196 30.8994C11.7994 31.0026 11.9526 31.1466 12.0672 31.3193C12.4581 31.9044 12.9798 32.3909 13.5906 32.7402C14.2014 33.0896 14.8852 33.2924 15.5877 33.3327C16.3641 33.2853 17.1218 33.0749 17.811 32.7142C18.5003 32.3534 19.1052 31.8507 19.5867 31.2396C19.7244 31.0626 19.9049 30.9232 20.1108 30.8343C20.3166 30.7455 20.542 30.7106 20.7651 30.7318C20.9883 30.753 21.203 30.8304 21.3885 30.9564C21.574 31.0825 21.726 31.253 21.8279 31.4528C22.1239 32.0092 22.5625 32.4765 23.0991 32.807C23.6357 33.1374 24.2512 33.3189 24.8813 33.3327C25.582 33.314 26.2675 33.1247 26.8784 32.7809C27.4894 32.437 28.0075 31.9495 28.3872 31.36C28.5079 31.173 28.6735 31.019 28.8689 30.9124C29.0645 30.8059 29.2843 30.7497 29.507 30.7497C29.7297 30.7497 29.9493 30.8059 30.145 30.9124C30.3405 31.0189 30.5059 31.173 30.6267 31.36C30.6401 31.3734 32.0806 33.6127 34.214 33.3327C34.5537 33.2899 34.8972 33.3799 35.1726 33.5833C35.4481 33.7868 35.6344 34.0891 35.6935 34.4264C35.7323 34.7662 35.639 35.1089 35.4331 35.3818C35.2271 35.6544 34.9238 35.837 34.5867 35.8929C33.7111 35.9953 32.8238 35.9014 31.989 35.6178C31.1543 35.3342 30.3929 34.8685 29.7609 34.2539C29.7334 34.2249 29.6999 34.2014 29.6632 34.1855C29.6267 34.1698 29.5874 34.1612 29.5476 34.1611C29.5077 34.1611 29.4671 34.1697 29.4305 34.1855C29.394 34.2014 29.3617 34.225 29.3344 34.2539C28.1174 35.3668 26.5304 35.9889 24.8813 36.0003C24.1058 36.0002 23.3367 35.8469 22.6206 35.5495C21.9046 35.252 21.2538 34.8161 20.7065 34.2669C20.6493 34.2117 20.5728 34.1807 20.4933 34.1807C20.4139 34.1808 20.3371 34.2117 20.2801 34.2669C18.9716 35.3575 17.3298 35.9693 15.6267 36.0003C13.9336 35.9764 12.3129 35.3088 11.0939 34.1335C11.033 34.0859 10.9579 34.0602 10.8806 34.0602C10.8034 34.0602 10.7284 34.0859 10.6674 34.1335C9.42057 35.2572 7.82404 35.9167 6.14758 36.0003C5.91264 36.0197 5.67613 36.0196 5.4412 36.0003C5.08792 35.9544 4.7668 35.7697 4.54927 35.4876C4.33173 35.2051 4.23474 34.8468 4.28071 34.4932C4.32672 34.1397 4.51097 33.8187 4.79341 33.6012C5.07596 33.3837 5.43425 33.2867 5.78788 33.3327C7.98157 33.6494 9.8999 31.2428 9.93338 31.2005C10.0667 31.0415 10.2361 30.9151 10.4265 30.8327C10.6167 30.7504 10.8235 30.7137 11.0304 30.7253Z" fill="#FAFAFA"/>
<path fill-rule="evenodd" clip-rule="evenodd" d="M16.6798 12.5059C16.853 12.5059 17.0195 12.5755 17.142 12.6979C17.2646 12.8204 17.3341 12.9869 17.3341 13.1602V17.0794C17.3338 17.1268 17.3426 17.1745 17.3618 17.2178C17.381 17.2611 17.4095 17.3002 17.4448 17.3317C17.48 17.3631 17.5219 17.3859 17.5668 17.4001C17.612 17.4142 17.6598 17.4187 17.7068 17.4131H22.2543C22.3402 17.4095 22.4211 17.3725 22.4806 17.3105C22.5401 17.2484 22.5734 17.1655 22.5734 17.0794V13.1602C22.5734 12.9869 22.6429 12.8204 22.7654 12.6979C22.8879 12.5756 23.0545 12.5059 23.2277 12.5059H25.8937C26.0669 12.5059 26.2334 12.5754 26.3559 12.6979C26.4784 12.8204 26.5463 12.9869 26.5463 13.1602V17.1999C26.5463 17.2858 26.5797 17.3689 26.6391 17.431C26.6988 17.4931 26.7809 17.5301 26.867 17.5335H28.6264C29.0408 17.5266 29.4472 17.6519 29.7853 17.8916C30.1233 18.1314 30.3757 18.4732 30.5063 18.8665L32.0802 24.1074C32.1028 24.1739 32.1466 24.2312 32.2039 24.2718C32.2613 24.3124 32.3305 24.3345 32.4008 24.3337H34.0008C34.2278 24.3347 34.4525 24.3831 34.6599 24.4753C34.8673 24.5675 35.054 24.7013 35.2068 24.8691C35.3596 25.0371 35.4762 25.235 35.5486 25.4502C35.621 25.6655 35.6471 25.8945 35.6267 26.1208C35.4481 27.9538 34.6969 29.6846 33.4799 31.0671C33.4205 31.1231 33.3419 31.1549 33.2602 31.1549C33.1785 31.1549 33.0999 31.1231 33.0405 31.0671C32.744 30.847 32.4795 30.5865 32.2543 30.2939C31.9587 29.8214 31.547 29.4316 31.0597 29.1611C30.5723 28.8906 30.0237 28.747 29.4663 28.7461C28.902 28.7357 28.3453 28.8766 27.8533 29.153C27.3611 29.4296 26.9513 29.8324 26.6668 30.32C26.4833 30.6257 26.2316 30.8848 25.9311 31.0768C25.6303 31.2689 25.2882 31.3889 24.9334 31.4268C24.6638 31.4297 24.3978 31.3601 24.1635 31.2266C23.9295 31.093 23.7351 30.9 23.6004 30.6667C23.3499 30.0965 22.9423 29.6091 22.4252 29.262C21.9082 28.915 21.303 28.7228 20.6805 28.707C20.1643 28.7131 19.6562 28.836 19.1944 29.0667C18.7327 29.2976 18.3291 29.6307 18.0144 30.04C17.7262 30.4108 17.3648 30.7192 16.9549 30.9482C16.545 31.1772 16.0935 31.322 15.6267 31.373C15.26 31.3311 14.9057 31.2139 14.5867 31.028C14.2677 30.8421 13.9902 30.5924 13.7729 30.2939C13.4773 29.8215 13.0671 29.4316 12.5799 29.1611C12.0925 28.8906 11.5439 28.747 10.9864 28.7461C10.4986 28.7525 10.0182 28.8665 9.57857 29.0781C9.13874 29.29 8.75012 29.5956 8.44087 29.9733C8.0169 30.4661 7.50554 30.8767 6.93371 31.1859C6.86775 31.2186 6.79272 31.2295 6.72049 31.2152C6.6481 31.2007 6.58172 31.1619 6.53332 31.1061C5.27915 29.7055 4.50874 27.939 4.33442 26.0671C4.30611 25.8366 4.32585 25.6019 4.39465 25.3802C4.46345 25.1586 4.5795 24.9535 4.73319 24.7796C4.88681 24.6061 5.07529 24.4664 5.28657 24.3711C5.4982 24.2756 5.72824 24.2264 5.9604 24.2262H7.56034C7.63068 24.2271 7.69984 24.2066 7.75728 24.166C7.81477 24.1253 7.85843 24.0668 7.88097 24L9.44022 18.7461C9.57682 18.3541 9.83326 18.0151 10.1726 17.776C10.5121 17.537 10.9179 17.4096 11.3331 17.4131H13.0405C13.1265 17.4096 13.2071 17.3726 13.2667 17.3105C13.3264 17.2484 13.3612 17.1656 13.3611 17.0794V13.1602C13.3611 12.9869 13.429 12.8204 13.5515 12.6979C13.6741 12.5754 13.8405 12.5059 14.0138 12.5059H16.6798ZM12.0004 19.9993C11.9353 20.0104 11.8752 20.0427 11.8295 20.0905C11.7839 20.1385 11.7543 20.2005 11.7465 20.2663L10.6674 23.8535C10.6532 23.9021 10.6491 23.9533 10.6577 24.0033C10.6662 24.0532 10.6867 24.1005 10.7163 24.1416C10.7458 24.1827 10.784 24.2169 10.8286 24.2409C10.8731 24.2649 10.9229 24.2779 10.9734 24.2799H29.0675C29.119 24.2799 29.1695 24.2672 29.2156 24.2441C29.2619 24.221 29.3034 24.1879 29.3344 24.1465C29.3577 24.1013 29.3686 24.0509 29.3686 24C29.3686 23.9491 29.3577 23.8987 29.3344 23.8535L28.3074 20.2402C28.2898 20.1722 28.2504 20.1111 28.1951 20.0677C28.1397 20.0243 28.0702 20 27.9998 19.9993H12.0004Z" fill="#FAFAFA"/>
<path d="M20.6267 4C20.9804 4 21.3207 4.14058 21.5708 4.39062C21.8204 4.64055 21.9597 4.97971 21.9597 5.33301C21.9426 6.17862 21.5988 6.98554 20.9995 7.58236C20.4002 8.17897 19.5924 8.51925 18.7469 8.53288C18.3935 8.53295 18.0544 8.67368 17.8045 8.9235C17.5546 9.17337 17.4141 9.51255 17.4139 9.86589C17.4139 10.2195 17.2733 10.5598 17.0232 10.8099C16.7733 11.0597 16.4342 11.2004 16.0808 11.2005C15.7405 11.2121 15.4084 11.0922 15.1531 10.8669C14.8977 10.6412 14.7376 10.3258 14.7071 9.98633C14.7071 8.93724 15.1192 7.9301 15.8546 7.18197C16.5904 6.43371 17.5918 6.00479 18.6411 5.9873C18.814 5.98715 18.9793 5.91741 19.1017 5.79525C19.2242 5.67272 19.2937 5.50628 19.2937 5.33301C19.2938 4.97952 19.4344 4.64059 19.6844 4.39062C19.9343 4.14067 20.2733 4.00011 20.6267 4Z" fill="#FAFAFA"/>
<path d="M28.4799 4C28.8336 4 29.1739 4.14058 29.4239 4.39062C29.6736 4.64055 29.8129 4.97972 29.8129 5.33301C29.7957 6.18077 29.4498 6.98846 28.8478 7.58561C28.2456 8.18278 27.435 8.52266 26.587 8.53288C26.2336 8.53288 25.8947 8.67371 25.6446 8.9235C25.3948 9.17337 25.2542 9.51255 25.254 9.86589C25.254 10.2195 25.1134 10.5598 24.8634 10.8099C24.6135 11.0597 24.2743 11.2003 23.921 11.2005C23.5829 11.2086 23.2539 11.0871 23.0014 10.862C22.7489 10.6367 22.5907 10.3234 22.5603 9.98633C22.5603 8.93724 22.9724 7.9301 23.7078 7.18197C24.4436 6.43371 25.445 6.00479 26.4943 5.9873C26.6671 5.98715 26.8325 5.91741 26.9549 5.79525C27.0774 5.67272 27.1469 5.50628 27.1469 5.33301C27.147 4.97952 27.2876 4.64059 27.5375 4.39062C27.7875 4.14067 28.1265 4.00011 28.4799 4Z" fill="#FAFAFA"/>
</svg>
