<svg width="40" height="40" viewBox="0 0 40 40" fill="none" xmlns="http://www.w3.org/2000/svg">
<path d="M25.3134 29.8631C25.4281 30.0391 25.4932 30.2429 25.5017 30.4528C25.5103 30.6628 25.462 30.8711 25.362 31.0559C25.2619 31.2407 25.1139 31.3949 24.9334 31.5025C24.753 31.61 24.5468 31.6668 24.3368 31.6668H2.83192C2.62188 31.6668 2.41575 31.61 2.2353 31.5025C2.05485 31.3949 1.90679 31.2407 1.80675 31.0559C1.70672 30.8711 1.65843 30.6628 1.66698 30.4528C1.67554 30.2429 1.74062 30.0391 1.85536 29.8631C3.49672 27.3357 5.91101 25.4069 8.73796 24.3646C7.17516 23.3238 5.98867 21.8075 5.35394 20.0399C4.71921 18.2724 4.66994 16.3474 5.21342 14.5496C5.7569 12.7519 6.86427 11.1768 8.37178 10.0574C9.87929 8.93791 11.7069 8.3335 13.5844 8.3335C15.4618 8.3335 17.2894 8.93791 18.7969 10.0574C20.3044 11.1768 21.4118 12.7519 21.9553 14.5496C22.4988 16.3474 22.4495 18.2724 21.8148 20.0399C21.18 21.8075 19.9935 23.3238 18.4307 24.3646C21.2577 25.4069 23.672 27.3357 25.3134 29.8631ZM38.1268 29.8413C36.485 27.3245 34.0761 25.404 31.2573 24.3646C33.1023 23.1214 34.4043 21.2215 34.8984 19.0518C35.3924 16.882 35.0414 14.6054 33.9168 12.6855C32.7921 10.7655 30.9784 9.34641 28.8447 8.71707C26.711 8.08774 24.4177 8.29545 22.4318 9.29794C22.3558 9.33717 22.2894 9.39261 22.2373 9.46036C22.1851 9.5281 22.1485 9.60649 22.13 9.68996C22.1115 9.77343 22.1116 9.85995 22.1302 9.94339C22.1489 10.0268 22.1856 10.1052 22.2379 10.1728C23.7147 12.0156 24.5628 14.283 24.658 16.6429C24.7532 19.0028 24.0905 21.3312 22.767 23.2871C22.6814 23.4149 22.6498 23.5713 22.6791 23.7223C22.7083 23.8734 22.7959 24.0067 22.923 24.0934C24.6486 25.2982 26.1258 26.8245 27.2738 28.5888C27.7368 29.2981 27.9259 30.1517 27.8058 30.9903C27.7923 31.0737 27.797 31.159 27.8198 31.2404C27.8425 31.3218 27.8826 31.3973 27.9374 31.4617C27.9921 31.526 28.0602 31.5777 28.1369 31.6131C28.2136 31.6485 28.297 31.6669 28.3815 31.6668H37.1706C37.4274 31.6669 37.677 31.5822 37.8807 31.4259C38.0844 31.2695 38.2309 31.0503 38.2973 30.8022C38.3379 30.639 38.3436 30.4691 38.3142 30.3036C38.2849 30.138 38.221 29.9805 38.1268 29.8413Z" fill="#FAFAFA"/>
</svg>
