<svg width="40" height="40" viewBox="0 0 40 40" fill="none" xmlns="http://www.w3.org/2000/svg">
<path d="M31.9725 6.39231C32.2387 6.31628 32.5037 6.51614 32.5037 6.79295V21.9167C31.4292 21.2254 30.1097 20.8335 28.7537 20.8335C25.525 20.8335 22.5037 23.0549 22.5037 26.2502C22.5037 29.4455 25.525 31.6669 28.7537 31.6669C31.9824 31.6669 35.0037 29.4455 35.0037 26.2502V6.79295C35.0037 4.85525 33.1491 3.45624 31.2859 3.98846L17.1156 8.03628C15.8633 8.39398 15 9.53848 15 10.8408V26.9167C13.9256 26.2254 12.6061 25.8335 11.25 25.8335C8.02129 25.8335 5 28.0549 5 31.2502C5 34.4455 8.02129 36.6669 11.25 36.6669C14.4787 36.6669 17.5 34.4455 17.5 31.2502V10.8408C17.5 10.6547 17.6233 10.4912 17.8022 10.4401L31.9725 6.39231Z" fill="#FAFAFA"/>
</svg>
