<svg width="40" height="40" viewBox="0 0 40 40" fill="none" xmlns="http://www.w3.org/2000/svg">
<path d="M36.0815 34.3793C35.9718 34.5693 35.814 34.7271 35.6239 34.8369C35.4338 34.9466 35.2182 35.0043 34.9987 35.0043H4.99872C4.77941 35.004 4.56401 34.9461 4.37417 34.8363C4.18432 34.7265 4.02671 34.5687 3.91715 34.3787C3.80759 34.1887 3.74994 33.9732 3.75 33.7539C3.75006 33.5346 3.80781 33.3192 3.91747 33.1293C6.29716 29.0152 9.96434 26.0652 14.244 24.6667C12.1271 23.4065 10.4824 21.4862 9.56245 19.2008C8.64251 16.9154 8.49823 14.3911 9.15175 12.0157C9.80527 9.64036 11.2205 7.54518 13.18 6.05195C15.1395 4.55871 17.5351 3.75 19.9987 3.75C22.4624 3.75 24.8579 4.55871 26.8174 6.05195C28.777 7.54518 30.1922 9.64036 30.8457 12.0157C31.4992 14.3911 31.3549 16.9154 30.435 19.2008C29.5151 21.4862 27.8703 23.4065 25.7534 24.6667C30.0331 26.0652 33.7003 29.0152 36.08 33.1293C36.1899 33.3191 36.2479 33.5346 36.2482 33.754C36.2485 33.9735 36.191 34.1891 36.0815 34.3793Z" fill="#FAFAFA"/>
</svg>
