<svg width="40" height="40" viewBox="0 0 40 40" fill="none" xmlns="http://www.w3.org/2000/svg">
<path d="M32.5007 27.0837C33.191 27.0837 33.7506 27.6433 33.7507 28.3337C33.7507 29.024 33.191 29.5837 32.5007 29.5837H7.50065C6.8103 29.5837 6.25065 29.024 6.25065 28.3337C6.25067 27.6433 6.81031 27.0837 7.50065 27.0837H32.5007Z" fill="#FAFAFA"/>
<path d="M7.91732 10.417V11.667C7.91732 11.8181 7.92067 11.9684 7.92708 12.1178C7.93061 12.2006 7.93791 12.283 7.94336 12.3652C7.9504 12.4709 7.95597 12.5763 7.96615 12.681C7.97294 12.7513 7.984 12.821 7.99219 12.891C8.00308 12.9835 8.01306 13.0759 8.02637 13.1676C8.03951 13.2587 8.05483 13.3492 8.07031 13.4395C8.08334 13.5151 8.09635 13.5906 8.111 13.6657C8.13158 13.7716 8.15398 13.8767 8.17773 13.9814C8.18727 14.0233 8.19699 14.0651 8.20703 14.1068C8.23379 14.2182 8.26298 14.3288 8.29329 14.4388C8.30546 14.4829 8.318 14.5268 8.33073 14.5706C8.36511 14.6893 8.40134 14.807 8.43978 14.9238C8.44692 14.9455 8.45366 14.9673 8.46094 14.9889C9.84787 19.1126 13.7428 22.0837 18.334 22.0837H21.6673C26.749 22.0837 30.9768 18.4441 31.8952 13.6299C31.9028 13.5904 31.9092 13.5507 31.9163 13.5111C31.9369 13.396 31.9566 13.2807 31.9733 13.1644C31.9865 13.0736 31.9983 12.9825 32.0091 12.891C32.0173 12.8211 32.0267 12.7513 32.0335 12.681C32.0437 12.5762 32.0509 12.4709 32.0579 12.3652C32.0634 12.283 32.0707 12.2006 32.0742 12.1178C32.0806 11.9684 32.084 11.8181 32.084 11.667V10.417H36.6673C37.3577 10.417 37.9173 10.9766 37.9173 11.667C37.9173 12.3573 37.3577 12.917 36.6673 12.917H34.5221C33.8933 19.4641 28.3792 24.5837 21.6673 24.5837H18.334C11.6221 24.5837 6.10797 19.4641 5.47917 12.917H3.33398C2.64363 12.917 2.08398 12.3573 2.08398 11.667C2.08398 10.9766 2.64363 10.417 3.33398 10.417H7.91732Z" fill="#FAFAFA"/>
<path d="M13.583 13.8952C14.0095 13.6695 14.5365 13.7075 14.929 14.0091C15.4493 14.4092 16.1767 14.7683 17.0742 15.0247C17.9676 15.28 18.9716 15.417 20.0007 15.417C21.0297 15.417 22.0337 15.28 22.9271 15.0247C23.8246 14.7683 24.5519 14.4093 25.0723 14.0091L25.248 13.8968C25.6748 13.67 26.2025 13.707 26.5957 14.0091C27.1161 14.4093 27.8434 14.7683 28.7409 15.0247C28.7688 15.0327 28.7974 15.0382 28.8255 15.0459C27.5575 17.7274 24.8304 19.5837 21.6673 19.5837H18.334C15.1694 19.5837 12.4397 17.7262 11.1725 15.0426C11.2011 15.0348 11.2304 15.0296 11.2588 15.0215C12.1564 14.7652 12.8844 14.4075 13.4072 14.0075L13.583 13.8952Z" fill="#FAFAFA"/>
</svg>
