<svg width="40" height="40" viewBox="0 0 40 40" fill="none" xmlns="http://www.w3.org/2000/svg">
<path fill-rule="evenodd" clip-rule="evenodd" d="M32.1875 30.9375C32.1875 32.0978 31.727 33.2111 30.9066 34.0316C30.0861 34.852 28.9728 35.3125 27.8125 35.3125H12.1875C11.0272 35.3125 9.9139 34.852 9.09342 34.0316C8.27295 33.2111 7.8125 32.0978 7.8125 30.9375V18.125H32.1875V30.9375ZM13.6458 20.3125C12.9555 20.3125 12.3958 20.8721 12.3958 21.5625V26.25C12.3958 26.9404 12.9555 27.5 13.6458 27.5C14.3362 27.5 14.8958 26.9404 14.8958 26.25V21.5625C14.8958 20.8721 14.3362 20.3125 13.6458 20.3125Z" fill="#FAFAFA"/>
<path fill-rule="evenodd" clip-rule="evenodd" d="M27.8125 4.6875C28.9728 4.6875 30.0861 5.14795 30.9066 5.96842C31.727 6.7889 32.1875 7.90218 32.1875 9.0625V15.625H7.8125V9.26595C7.8125 6.73446 9.8603 4.68782 12.391 4.6875H27.8125ZM13.6458 9.375C12.9555 9.375 12.3958 9.93464 12.3958 10.625V12.1875C12.3958 12.8779 12.9555 13.4375 13.6458 13.4375C14.3362 13.4375 14.8958 12.8779 14.8958 12.1875V10.625C14.8958 9.93464 14.3362 9.375 13.6458 9.375Z" fill="#FAFAFA"/>
</svg>
