<svg width="40" height="40" viewBox="0 0 40 40" fill="none" xmlns="http://www.w3.org/2000/svg">
<path d="M5.49794 6.31019C5.9861 5.82221 6.77742 5.82212 7.26552 6.31019L34.5035 33.5481L34.5881 33.6425C34.9889 34.1335 34.9611 34.8579 34.5035 35.3157C34.0458 35.7734 33.3213 35.8025 32.8303 35.402L32.7359 35.3157L29.1763 31.7562C26.7996 34.5448 23.281 36.3183 19.344 36.3183C12.1849 36.3183 6.38204 30.4774 6.38173 23.2731C6.38173 19.8329 8.06398 16.3372 10.4296 13.0094L5.49794 8.07777C5.00981 7.58961 5.00979 6.79834 5.49794 6.31019Z" fill="#FAFAFA"/>
<path d="M18.164 4.17478C18.8133 3.51704 19.8742 3.51749 20.524 4.17478C26.1589 9.87896 32.3062 16.5426 32.3062 23.2731C32.3062 24.545 32.1211 25.773 31.7837 26.9352L13.7304 8.88181C15.1844 7.22917 16.7096 5.64822 18.164 4.17478Z" fill="#FAFAFA"/>
</svg>
