<svg width="40" height="40" viewBox="0 0 40 40" fill="none" xmlns="http://www.w3.org/2000/svg">
<path d="M22.8662 5.36622C23.3238 4.90868 24.0484 4.87979 24.5394 5.27996L24.6338 5.36622L32.5 13.2324V8.25034C32.5 7.56009 33.0598 7.00051 33.75 7.00034C34.4402 7.00054 35 7.56011 35 8.25034V16.25C35 16.2642 34.9972 16.2783 34.9968 16.2923C34.9964 16.3038 34.9958 16.3151 34.9951 16.3265C34.9913 16.3905 34.9822 16.4527 34.9691 16.5137C34.9201 16.7407 34.8102 16.9574 34.6338 17.1338C34.5176 17.25 34.384 17.3382 34.2415 17.3991C34.2213 17.4078 34.1989 17.411 34.1781 17.4186C34.1243 17.4383 34.0708 17.457 34.0153 17.4691C33.9538 17.4824 33.891 17.4912 33.8265 17.4951C33.8151 17.4958 33.8038 17.4964 33.7923 17.4968C33.7783 17.4972 33.7642 17.5 33.75 17.5H25.7503C25.06 17.5 24.5004 16.9403 24.5003 16.25C24.5005 15.5598 25.0601 15 25.7503 15H30.7324L22.8662 7.1338L22.78 7.0394C22.3798 6.54844 22.4087 5.82377 22.8662 5.36622Z" fill="#FAFAFA"/>
<path d="M35 29.0001V31.0001C35 32.0609 34.5785 33.0783 33.8284 33.8285C33.0783 34.5786 32.0608 35.0001 31 35.0001H25L13 25.0001H9C7.93913 25.0001 6.92172 24.5786 6.17157 23.8285C5.42143 23.0783 5 22.0609 5 21.0001V19.0001C5 17.9393 5.42143 16.9218 6.17157 16.1716C6.92172 15.4215 7.93913 15.0001 9 15.0001H15L27 25.0001H31C32.0608 25.0001 33.0783 25.4215 33.8284 26.1717C34.5785 26.9218 35 27.9393 35 29.0001Z" fill="#FAFAFA"/>
</svg>
