<svg width="40" height="40" viewBox="0 0 40 40" fill="none" xmlns="http://www.w3.org/2000/svg">
<path d="M14.83 12.6393V18.8326H13.334V12.6393H14.83Z" fill="#FAFAFA"/>
<path d="M19.558 17.7922H17.4659L17.0769 18.8322H15.4946L17.708 12.6389H19.3421L21.5121 18.8322H19.9125L19.558 17.7922ZM19.16 16.567L18.5116 14.5618L17.8805 16.567H19.16Z" fill="#FAFAFA"/>
<path d="M28.334 18.9437L26.9593 19.1667L26.4751 18.5726C25.9647 18.8696 25.4984 18.9718 24.9618 18.9718C23.7602 18.9718 23.0077 18.4704 22.558 17.9504C22.0048 17.3192 21.7454 16.4741 21.7454 15.7126C21.7454 14.84 22.091 14.0044 22.6359 13.4378C23.2153 12.8341 24.0368 12.5 24.9183 12.5C25.7398 12.5 26.6041 12.8066 27.2097 13.4282C27.7022 13.9386 28.1002 14.7467 28.1002 15.7586C28.1002 16.1859 28.0395 16.566 27.867 17.003C27.7373 17.3282 27.5815 17.5882 27.3394 17.8482L28.334 18.9437ZM25.8701 16.1674L26.2681 16.6319C26.4495 16.3533 26.5364 16.0192 26.5364 15.7222C26.5364 15.3415 26.355 14.877 26.0694 14.5711C25.7583 14.237 25.2914 14.0607 24.9196 14.0607C24.5044 14.0607 24.0809 14.237 23.7781 14.5711C23.4842 14.8962 23.3111 15.36 23.3111 15.8155C23.3111 16.271 23.5015 16.6881 23.7436 16.9392C24.0202 17.2273 24.4609 17.4125 24.9107 17.4125C25.0921 17.4125 25.239 17.3844 25.3776 17.3474L24.4609 16.3629L25.8701 16.1674Z" fill="#FAFAFA"/>
<path fill-rule="evenodd" clip-rule="evenodd" d="M31.6673 3.33325C34.4287 3.33325 36.6673 5.57183 36.6673 8.33325V31.6666C36.6673 34.428 34.4287 36.6666 31.6673 36.6666H8.33398C5.57256 36.6666 3.33398 34.428 3.33398 31.6666V8.33325C3.33398 5.57183 5.57256 3.33325 8.33398 3.33325H31.6673ZM13.334 26.6666C12.4135 26.6666 11.6673 27.4128 11.6673 28.3333C11.6673 29.2537 12.4135 29.9999 13.334 29.9999C14.2545 29.9999 15.0007 29.2537 15.0007 28.3333C15.0007 27.4128 14.2545 26.6666 13.334 26.6666ZM20.0007 26.6666C19.0802 26.6666 18.334 27.4128 18.334 28.3333C18.334 29.2537 19.0802 29.9999 20.0007 29.9999C20.9211 29.9999 21.6673 29.2537 21.6673 28.3333C21.6673 27.4128 20.9211 26.6666 20.0007 26.6666ZM26.6673 26.6666C25.7468 26.6666 25.0007 27.4128 25.0007 28.3333C25.0007 29.2537 25.7468 29.9999 26.6673 29.9999C27.5878 29.9999 28.334 29.2537 28.334 28.3333C28.334 27.4128 27.5878 26.6666 26.6673 26.6666ZM11.6673 8.33325C9.82637 8.33325 8.33398 9.82564 8.33398 11.6666V19.9999C8.33398 21.8409 9.82637 23.3333 11.6673 23.3333H28.334C30.1749 23.3333 31.6673 21.8409 31.6673 19.9999V11.6666C31.6673 9.82564 30.1749 8.33325 28.334 8.33325H11.6673Z" fill="#FAFAFA"/>
</svg>
