<svg width="40" height="40" viewBox="0 0 40 40" fill="none" xmlns="http://www.w3.org/2000/svg">
<path fill-rule="evenodd" clip-rule="evenodd" d="M36.6673 34.0706C36.6671 34.0798 36.6661 34.0911 36.6657 34.1031C36.6649 34.1278 36.6633 34.159 36.6608 34.1943C36.6557 34.2649 36.6462 34.3583 36.6283 34.4661C36.5932 34.6762 36.5214 34.9757 36.3646 35.2896C36.2048 35.6089 35.9447 35.9671 35.5329 36.2418C35.1127 36.5218 34.6081 36.6666 34.0469 36.6666H5.93001C5.92058 36.6664 5.9097 36.6654 5.89746 36.665C5.87269 36.6641 5.84186 36.6626 5.80631 36.6601C5.73565 36.655 5.64252 36.6455 5.53451 36.6275C5.32443 36.5925 5.02507 36.5207 4.71094 36.3638C4.39161 36.2042 4.03362 35.944 3.75879 35.5321C3.47876 35.1121 3.33409 34.6072 3.33398 34.0461V21.2499H36.6673V34.0706ZM9.73535 23.7499C9.04526 23.7499 8.48577 24.3099 8.48535 24.9999V34.1666H14.3317V24.9999C14.3313 24.3099 13.7718 23.7499 13.0817 23.7499H9.73535ZM16.3841 23.7499C15.694 23.7499 15.1345 24.3099 15.1341 24.9999V34.1666H20.9805V24.9999C20.98 24.3102 20.4202 23.7504 19.7305 23.7499H16.3841ZM27.0335 24.4107C26.6705 23.7708 25.8559 23.5454 25.2155 23.9078L22.4583 25.4703C21.8181 25.8331 21.5931 26.6461 21.9554 27.2867L25.3815 33.3398C25.7444 33.98 26.559 34.2067 27.1995 33.8443L29.9567 32.2818C30.5969 31.9191 30.8231 31.1059 30.4613 30.4654L27.0335 24.4107Z" fill="#FAFAFA"/>
<path d="M34.1038 3.33488C34.1286 3.33571 34.1594 3.33722 34.195 3.33976C34.2657 3.34482 34.3588 3.35431 34.4668 3.37231C34.6769 3.40737 34.9762 3.47904 35.2904 3.63599C35.6097 3.79572 35.9677 4.05574 36.2425 4.46769C36.5225 4.88781 36.6673 5.39256 36.6673 5.95369V18.7499H31.6868V12.9101C31.6865 12.2205 31.1263 11.661 30.4368 11.6601H27.9352C27.2451 11.6601 26.6856 12.22 26.6852 12.9101V18.7499H25.8193V9.58325C25.8193 8.93633 25.3278 8.40416 24.6979 8.33976L24.5693 8.33325H20.4352C19.7449 8.33325 19.1852 8.8929 19.1852 9.58325V18.7499H3.33398V5.92928C3.33414 5.92 3.33519 5.90873 3.33561 5.89673C3.33643 5.87209 3.33798 5.84089 3.34049 5.80558C3.34554 5.73503 3.3551 5.64158 3.37305 5.53377C3.40807 5.32375 3.47992 5.02425 3.63672 4.71021C3.7964 4.39084 4.05654 4.0329 4.46842 3.75806C4.88863 3.47792 5.3931 3.33325 5.95443 3.33325H34.0713C34.0807 3.33341 34.0916 3.33447 34.1038 3.33488Z" fill="#FAFAFA"/>
</svg>
