<svg width="40" height="40" viewBox="0 0 40 40" fill="none" xmlns="http://www.w3.org/2000/svg">
<path d="M4.87695 22.8467C5.72829 22.8471 6.41829 23.5366 6.41829 24.388V24.471C6.41844 24.6504 6.56442 24.7965 6.74381 24.7965H8.02637C8.19966 24.7965 8.3447 24.9287 8.36328 25.1009C8.59389 27.269 9.35797 29.1964 10.6566 30.8789C11.6351 32.1466 12.7948 33.1599 14.1348 33.9193C14.4569 34.1018 14.3323 34.6903 13.9622 34.6908H6.74381C6.56442 34.6908 6.41844 34.8353 6.41829 35.0146V35.0977C6.41829 35.9491 5.72829 36.6402 4.87695 36.6406C4.02524 36.6406 3.33398 35.9494 3.33398 35.0977V24.388C3.33398 23.5363 4.02524 22.8467 4.87695 22.8467Z" fill="#FAFAFA"/>
<path fill-rule="evenodd" clip-rule="evenodd" d="M19.9958 14.6908C22.5281 14.6908 24.675 15.5707 26.4362 17.3291C28.1971 19.0875 29.0794 21.2325 29.0794 23.7646C29.0792 26.2966 28.1993 28.4441 26.4411 30.2051C24.6829 31.9659 22.5374 32.8465 20.0055 32.8467C17.4737 32.8467 15.3261 31.9676 13.5651 30.21C11.8041 28.4517 10.9221 26.3048 10.9219 23.7728C10.9219 21.2407 11.8021 19.0935 13.5602 17.3324C15.3185 15.5714 17.4638 14.6909 19.9958 14.6908ZM19.5791 18.3415C19.5087 18.3566 19.4441 18.393 19.3968 18.4473C19.3495 18.5016 19.3207 18.5707 19.3154 18.6426C19.3103 18.7141 19.3289 18.7856 19.3675 18.846C19.7445 19.4547 19.956 20.152 19.9795 20.8675C20.0029 21.5831 19.8374 22.2927 19.501 22.9248C19.0953 22.6367 18.7778 22.2417 18.583 21.7839C18.5673 21.7396 18.5421 21.6991 18.5098 21.665C18.4771 21.6308 18.4363 21.6032 18.3926 21.5853C18.349 21.5671 18.3014 21.5576 18.2542 21.5592C18.2071 21.5609 18.1613 21.574 18.1191 21.5951C17.4792 21.883 16.9378 22.352 16.5615 22.9443C16.1852 23.5367 15.9903 24.2267 16.0016 24.9284C16.0018 25.989 16.4235 27.0055 17.1735 27.7555C17.9235 28.5055 18.94 28.9272 20.0007 28.9274C21.0615 28.9274 22.0793 28.5057 22.8294 27.7555C23.5793 27.0055 24.0012 25.9889 24.0013 24.9284C23.984 23.5495 23.5792 22.2021 22.8343 21.0417C22.0894 19.8815 21.0336 18.954 19.7874 18.3643C19.7222 18.3343 19.6493 18.3265 19.5791 18.3415Z" fill="#FAFAFA"/>
<path d="M35.126 10.861C35.9773 10.8614 36.6673 11.5509 36.6673 12.4023V23.112C36.6673 23.9634 35.9773 24.6545 35.126 24.6549C34.2743 24.6549 33.583 23.9637 33.583 23.112V22.8809C33.5826 22.7833 33.5033 22.7051 33.4056 22.7051H32.0124C31.8407 22.705 31.6974 22.5728 31.6771 22.4023C31.4207 20.2558 30.6432 18.3411 29.3447 16.6585C28.353 15.3737 27.1813 14.3431 25.8307 13.5677C25.5119 13.3846 25.6372 12.811 26.0049 12.8109H33.2575C33.4369 12.8109 33.5829 12.6647 33.583 12.4854V12.4023C33.583 11.5506 34.2743 10.861 35.126 10.861Z" fill="#FAFAFA"/>
<path d="M27.084 3.91602C27.7743 3.91602 28.334 4.47729 28.334 5.16764C28.3335 5.85763 27.7741 6.41764 27.084 6.41764H21.2702V10.6689C21.2702 11.359 20.7102 11.9185 20.0202 11.9189C19.3298 11.9189 18.7702 11.3593 18.7702 10.6689V6.41764H12.9173C12.2272 6.41764 11.6678 5.85763 11.6673 5.16764C11.6673 4.47729 12.227 3.91602 12.9173 3.91602H27.084Z" fill="#FAFAFA"/>
</svg>
