<svg width="40" height="40" viewBox="0 0 40 40" fill="none" xmlns="http://www.w3.org/2000/svg">
<path d="M19.6816 18.3949C19.9991 18.3317 20.3282 18.3638 20.6273 18.4876C20.9261 18.6115 21.1815 18.821 21.3613 19.0898C21.5412 19.359 21.638 19.6759 21.638 19.9997C21.638 20.3234 21.5412 20.6403 21.3613 20.9095C21.1815 21.1784 20.9261 21.3879 20.6273 21.5117C20.3282 21.6356 19.9991 21.6676 19.6816 21.6045C19.3641 21.5413 19.0723 21.3858 18.8434 21.1569C18.5369 20.8497 18.3649 20.4336 18.3649 19.9997C18.3649 19.5657 18.5369 19.1497 18.8434 18.8424C19.0724 18.6135 19.3641 18.458 19.6816 18.3949Z" fill="#FAFAFA"/>
<path fill-rule="evenodd" clip-rule="evenodd" d="M20.0007 3.33301C29.2054 3.33301 36.6673 10.7949 36.6673 19.9997C36.6673 29.2044 29.2054 36.6663 20.0007 36.6663C10.7959 36.6663 3.33398 29.2044 3.33398 19.9997C3.33398 10.7949 10.7959 3.33301 20.0007 3.33301ZM15.5524 10.0078C15.3809 9.9868 15.2056 10.0065 15.043 10.0648C12.9221 10.8272 11.3924 12.1797 10.4531 14.1208C10.1315 14.7876 10.0529 15.5459 10.2318 16.2643C10.4107 16.9827 10.8361 17.6166 11.4329 18.0547C12.8434 19.0939 14.3219 19.7649 15.8356 20.0615C15.8444 20.6623 15.9824 21.2309 16.2197 21.7445C14.8028 22.8286 13.0575 23.3683 11.0521 23.4779C10.8795 23.4866 10.7108 23.5357 10.5605 23.6211C10.4106 23.7064 10.2819 23.8258 10.1862 23.9694C10.0907 24.1129 10.0298 24.2768 10.0088 24.4479C9.98778 24.6194 10.0075 24.7947 10.0658 24.9574C10.8282 27.0783 12.1807 28.6079 14.1217 29.5472C14.7885 29.8689 15.5469 29.9474 16.2653 29.7686C16.9837 29.5896 17.6176 29.1643 18.0557 28.5674C19.0949 27.155 19.7668 25.6768 20.0625 24.1631C20.6636 24.1543 21.2317 24.0165 21.7454 23.779C22.8301 25.1961 23.3693 26.9423 23.4788 28.9482C23.4876 29.1208 23.5367 29.2895 23.6221 29.4398C23.7074 29.5898 23.8268 29.7184 23.9704 29.8141C24.1139 29.9097 24.2778 29.9705 24.4489 29.9915C24.6204 30.0125 24.7957 29.9929 24.9583 29.9346C27.0792 29.1721 28.6089 27.8196 29.5482 25.8786C29.8698 25.2118 29.9484 24.4534 29.7695 23.735C29.5905 23.0166 29.1652 22.3827 28.5684 21.9447C27.1573 20.9051 25.6785 20.2326 24.1641 19.9362C24.1551 19.3352 24.0177 18.7668 23.7799 18.2533C25.1969 17.169 26.9437 16.631 28.9492 16.5215C29.1218 16.5127 29.2905 16.4636 29.4408 16.3783C29.5908 16.2929 29.7194 16.1735 29.8151 16.0299C29.9107 15.8864 29.9715 15.7226 29.9925 15.5514C30.0135 15.3799 29.9938 15.2046 29.9355 15.042C29.1731 12.9211 27.8206 11.3914 25.8796 10.4521C25.2128 10.1305 24.4544 10.0519 23.736 10.2308C23.0176 10.4098 22.3837 10.8351 21.9456 11.432C20.9067 12.8439 20.2331 14.3214 19.9372 15.8346C19.3364 15.8436 18.7676 15.9812 18.2542 16.2188C17.1705 14.8019 16.6319 13.0562 16.5225 11.0511C16.5137 10.8785 16.4646 10.7098 16.3792 10.5596C16.2939 10.4096 16.1745 10.2809 16.0309 10.1852C15.8874 10.0897 15.7235 10.0288 15.5524 10.0078Z" fill="#FAFAFA"/>
</svg>
