<svg width="40" height="40" viewBox="0 0 40 40" fill="none" xmlns="http://www.w3.org/2000/svg">
<path fill-rule="evenodd" clip-rule="evenodd" d="M3.33398 19.9999C3.33398 10.7952 10.7959 3.33325 20.0007 3.33325C29.2054 3.33325 36.6673 10.7952 36.6673 19.9999C36.6673 29.2047 29.2054 36.6666 20.0007 36.6666C10.7959 36.6666 3.33398 29.2047 3.33398 19.9999ZM15.834 17.4999C17.2147 17.4999 18.334 16.3806 18.334 14.9999C18.334 13.6192 17.2147 12.4999 15.834 12.4999C14.4533 12.4999 13.334 13.6192 13.334 14.9999C13.334 16.3806 14.4533 17.4999 15.834 17.4999ZM26.6673 14.9999C26.6673 16.3806 25.548 17.4999 24.1673 17.4999C22.7866 17.4999 21.6673 16.3806 21.6673 14.9999C21.6673 13.6192 22.7866 12.4999 24.1673 12.4999C25.548 12.4999 26.6673 13.6192 26.6673 14.9999ZM10.4173 19.9999C10.4173 19.3096 9.85767 18.7499 9.16732 18.7499C8.47696 18.7499 7.91732 19.3096 7.91732 19.9999C7.91732 26.6734 13.3272 32.0833 20.0007 32.0833C26.6741 32.0833 32.084 26.6734 32.084 19.9999C32.084 19.3096 31.5243 18.7499 30.834 18.7499C30.1436 18.7499 29.584 19.3096 29.584 19.9999C29.584 25.2926 25.2934 29.5833 20.0007 29.5833C14.7079 29.5833 10.4173 25.2926 10.4173 19.9999Z" fill="#FAFAFA"/>
</svg>
