<svg width="40" height="40" viewBox="0 0 40 40" fill="none" xmlns="http://www.w3.org/2000/svg">
<path fill-rule="evenodd" clip-rule="evenodd" d="M20.0016 4.68945C19.3147 4.68945 18.6518 4.9285 18.125 5.36003L17.9085 5.55534L5.55501 17.9089C5.00082 18.4638 4.68933 19.216 4.68913 20.0003C4.68913 20.7849 5.00061 21.5383 5.55501 22.0934L17.9069 34.4453C18.9909 35.5293 20.7072 35.599 21.8701 34.6488L22.0947 34.4453L34.4482 22.0934C35.0047 21.5362 35.3125 20.782 35.3125 20.0003C35.3123 19.216 35.0008 18.4638 34.4466 17.9089L22.0931 5.55534C21.5381 5.00111 20.786 4.68965 20.0016 4.68945ZM19.1178 13.6478C19.606 13.1596 20.3973 13.1596 20.8854 13.6478C21.3735 14.1359 21.3735 14.9272 20.8854 15.4154L17.5505 18.7503H26.2516C26.942 18.7503 27.5016 19.31 27.5016 20.0003C27.5015 20.6906 26.9419 21.2503 26.2516 21.2503H17.5505L20.8854 24.5853C21.3735 25.0734 21.3735 25.8647 20.8854 26.3529C20.3973 26.8409 19.606 26.8409 19.1178 26.3529L13.6491 20.8841C13.596 20.831 13.5507 20.7727 13.5091 20.7132C13.4578 20.6397 13.4136 20.5611 13.3789 20.4772C13.3443 20.3933 13.3196 20.3066 13.304 20.2184C13.2915 20.1475 13.2829 20.0748 13.2829 20.0003C13.2829 19.9248 13.2912 19.8508 13.304 19.779C13.3197 19.6913 13.3444 19.6051 13.3789 19.5218C13.3991 19.4733 13.4263 19.4287 13.4521 19.3835C13.5061 19.289 13.5685 19.1972 13.6491 19.1165L19.1178 13.6478Z" fill="#FAFAFA"/>
</svg>
