<svg width="40" height="40" viewBox="0 0 40 40" fill="none" xmlns="http://www.w3.org/2000/svg">
<path fill-rule="evenodd" clip-rule="evenodd" d="M20 3.33301C29.2045 3.33318 36.6659 10.7954 36.666 20C36.666 29.2046 29.2046 36.6668 20 36.667C10.7953 36.667 3.33301 29.2047 3.33301 20C3.3331 10.7953 10.7953 3.33301 20 3.33301ZM17.916 17.083C17.2257 17.083 16.6661 17.6428 16.666 18.333C16.666 19.0234 17.2257 19.583 17.916 19.583H18.749V27.083C18.749 27.7733 19.3088 28.3328 19.999 28.333C20.6894 28.333 21.249 27.7734 21.249 27.083V18.333C21.2489 17.6428 20.6893 17.083 19.999 17.083H17.916ZM20 12.083C19.3097 12.083 18.7501 12.6428 18.75 13.333C18.75 14.0234 19.3096 14.583 20 14.583C20.6901 14.5827 21.25 14.0232 21.25 13.333C21.2499 12.6429 20.6901 12.0833 20 12.083Z" fill="#FAFAFA"/>
</svg>
