<svg width="40" height="40" viewBox="0 0 40 40" fill="none" xmlns="http://www.w3.org/2000/svg">
<path d="M14.6657 18.3332C15.5854 18.3332 16.3324 19.0789 16.3324 19.9998C16.3322 20.9205 15.5853 21.6665 14.6657 21.6665C13.7458 21.6661 13.0008 20.9198 13.0007 19.9998C13.0007 19.0797 13.7457 18.3335 14.6657 18.3332Z" fill="#FAFAFA"/>
<path d="M19.9993 18.3332C20.9189 18.3332 21.666 19.0789 21.666 19.9998C21.6659 20.9205 20.9189 21.6665 19.9993 21.6665C19.0792 21.6663 18.3328 20.9199 18.3327 19.9998C18.3327 19.0796 19.0791 18.3334 19.9993 18.3332Z" fill="#FAFAFA"/>
<path d="M25.333 18.3332C26.2526 18.3332 26.9997 19.0789 26.9997 19.9998C26.9996 20.9205 26.2525 21.6665 25.333 21.6665C24.4127 21.6665 23.6665 20.92 23.6663 19.9998C23.6663 19.0795 24.4126 18.3332 25.333 18.3332Z" fill="#FAFAFA"/>
<path fill-rule="evenodd" clip-rule="evenodd" d="M31.0003 4.00049C33.7616 4.00066 36.0003 6.23917 36.0003 9.00049V30.9992C36.0003 33.7605 33.7616 35.999 31.0003 35.9992H9C6.23857 35.9992 4 33.7607 4 30.9992V9.00049C4 6.23906 6.23857 4.00049 9 4.00049H31.0003ZM11.9997 14.6662C10.5271 14.6664 9.33366 15.8612 9.33366 17.3338V22.6659C9.33366 24.1385 10.5271 25.3333 11.9997 25.3335H28.0007C29.4732 25.3331 30.6667 24.1384 30.6667 22.6659V17.3338C30.6667 15.8613 29.4732 14.6665 28.0007 14.6662H11.9997Z" fill="#FAFAFA"/>
</svg>
