<svg width="40" height="40" viewBox="0 0 40 40" fill="none" xmlns="http://www.w3.org/2000/svg">
<path fill-rule="evenodd" clip-rule="evenodd" d="M3.33398 11.2498C3.33398 8.71853 5.38601 6.6665 7.91732 6.6665H32.084C34.6153 6.6665 36.6673 8.71853 36.6673 11.2498V28.7498C36.6673 31.2811 34.6153 33.3332 32.084 33.3332H7.91732C5.38601 33.3332 3.33398 31.2811 3.33398 28.7498V11.2498ZM5.83398 11.2498C5.83398 10.0992 6.76672 9.1665 7.91732 9.1665H11.8092L10.6426 14.9998H5.83398V11.2498ZM34.1673 14.9998V11.2498C34.1673 10.0992 33.2346 9.1665 32.084 9.1665H29.7266L28.2683 14.9998H34.1673ZM25.6913 14.9998L27.1497 9.1665H21.8587L20.6921 14.9998H25.6913ZM18.1426 14.9998L19.3092 9.1665H14.3587L13.1921 14.9998H18.1426Z" fill="#FAFAFA"/>
</svg>
