<svg width="40" height="40" viewBox="0 0 40 40" fill="none" xmlns="http://www.w3.org/2000/svg">
<path d="M28.0395 34.1449C28.1043 34.4484 28.1007 34.764 28.0287 35.0659C27.9565 35.3675 27.818 35.6506 27.6231 35.8919C27.4281 36.1327 27.1798 36.3292 26.9002 36.4629C26.6908 36.5626 26.4636 36.6269 26.2342 36.6528L26.0023 36.6663H13.996C13.6865 36.6657 13.3774 36.5962 13.0981 36.4629C12.8189 36.329 12.5699 36.1327 12.3752 35.8919C12.1807 35.6507 12.0417 35.3672 11.9696 35.0659C11.8977 34.7643 11.8941 34.4495 11.9588 34.1463L14.095 24.1772H25.9033L28.0395 34.1449Z" fill="#FAFAFA"/>
<path fill-rule="evenodd" clip-rule="evenodd" d="M29.6888 19.5711C29.5471 20.279 29.1634 20.9172 28.6051 21.375C28.1167 21.7747 27.5181 22.0167 26.8934 22.0708L26.6235 22.083H25.4543L25.457 22.0939H14.5412L14.544 22.083H13.3748C12.6553 22.0829 11.9549 21.8338 11.3973 21.3791C10.8398 20.9237 10.4549 20.2885 10.3108 19.5833L10.3095 19.5792L9.35055 14.7832H30.6464L29.6888 19.5711ZM12.3508 19.1669C12.3988 19.4012 12.5292 19.6134 12.7143 19.765C12.8996 19.916 13.1344 19.9992 13.3734 19.9997H14.7854V15.833H11.6848L12.3508 19.1669ZM25.2102 19.9997H26.6249C26.8643 19.9994 27.0985 19.915 27.284 19.7637C27.4698 19.6112 27.5988 19.3984 27.6462 19.1628L28.3121 15.833H25.2102V19.9997Z" fill="#FAFAFA"/>
<path d="M20.0019 3.33301C20.5769 3.33333 21.0435 3.79958 21.0435 4.37467V9.58301H25.2102V6.45801C25.2102 5.88271 25.6766 5.41634 26.2519 5.41634C26.8269 5.41666 27.2935 5.88291 27.2935 6.45801V9.58301H29.1463L29.3755 9.59657C29.6024 9.62208 29.8272 9.68592 30.0347 9.78375C30.3113 9.91473 30.5574 10.1065 30.7522 10.3426C30.9471 10.5794 31.0889 10.8577 31.1645 11.155C31.24 11.4525 31.2487 11.7638 31.1903 12.0651L31.1889 12.0705L31.0628 12.6999H8.93415L8.80937 12.0787L8.81072 12.0773C8.75043 11.7762 8.75596 11.464 8.82971 11.1659C8.90386 10.867 9.04462 10.5866 9.23933 10.348C9.43423 10.1097 9.68293 9.91596 9.9609 9.78375C10.2388 9.65218 10.5459 9.58348 10.8534 9.58301H12.7102V6.45801C12.7102 5.88271 13.1766 5.41634 13.7519 5.41634C14.3269 5.41666 14.7935 5.88291 14.7935 6.45801V9.58301H18.9602V4.37467C18.9602 3.79938 19.4266 3.33301 20.0019 3.33301Z" fill="#FAFAFA"/>
</svg>
