<svg width="40" height="40" viewBox="0 0 40 40" fill="none" xmlns="http://www.w3.org/2000/svg">
<path d="M26.666 28.3335C25.7455 28.3335 24.9993 29.0797 24.9993 30.0002C24.9993 30.9206 25.7455 31.6668 26.666 31.6668C27.5865 31.6668 28.3327 30.9206 28.3327 30.0002C28.3327 29.0797 27.5865 28.3335 26.666 28.3335Z" fill="#FAFAFA"/>
<path d="M19.9993 30.0002C19.9993 29.0797 20.7455 28.3335 21.666 28.3335C22.5865 28.3335 23.3327 29.0797 23.3327 30.0002C23.3327 30.9206 22.5865 31.6668 21.666 31.6668C20.7455 31.6668 19.9993 30.9206 19.9993 30.0002Z" fill="#FAFAFA"/>
<path fill-rule="evenodd" clip-rule="evenodd" d="M11.2493 3.3335C8.71804 3.3335 6.66602 5.38552 6.66602 7.91683V32.0835C6.66602 34.6148 8.71804 36.6668 11.2493 36.6668H28.7493C31.2807 36.6668 33.3327 34.6148 33.3327 32.0835V7.91683C33.3327 5.38552 31.2807 3.3335 28.7493 3.3335H11.2493ZM9.16602 32.0835V27.9168C9.16602 26.7662 10.0988 25.8335 11.2493 25.8335H28.7493C29.8999 25.8335 30.8327 26.7662 30.8327 27.9168V32.0835C30.8327 33.2341 29.8999 34.1668 28.7493 34.1668H11.2493C10.0988 34.1668 9.16602 33.2341 9.16602 32.0835Z" fill="#FAFAFA"/>
</svg>
