<svg width="40" height="40" viewBox="0 0 40 40" fill="none" xmlns="http://www.w3.org/2000/svg">
<path d="M23.6657 11.334C23.6657 11.334 23.9989 11.3334 23.9993 11.666V28.3327C23.9993 28.3327 23.999 28.6663 23.6657 28.6663H16.3333C16.3333 28.6663 15.9997 28.666 15.9997 28.3327V11.666C15.9999 11.6493 16.0088 11.334 16.3333 11.334H23.6657Z" fill="#FAFAFA"/>
<path fill-rule="evenodd" clip-rule="evenodd" d="M24.6667 4C25.0202 4 25.359 4.14068 25.6091 4.39062C25.859 4.6406 25.9996 4.9795 25.9997 5.33301V6.33398C25.9998 6.42193 26.0353 6.50605 26.0973 6.56836C26.1598 6.63087 26.2449 6.66602 26.3333 6.66602H26.667C27.1973 6.6661 27.7064 6.87696 28.0814 7.25195C28.4564 7.62695 28.6672 8.13603 28.6673 8.66634V11.0003C28.6674 11.0886 28.7025 11.1739 28.765 11.2363C28.8273 11.2983 28.9115 11.3338 28.9993 11.334H30.666C31.0196 11.334 31.36 11.4746 31.61 11.7246C31.8597 11.9746 32.0007 12.3137 32.0007 12.667C32.0006 13.0203 31.8598 13.3594 31.61 13.6094C31.36 13.8594 31.0196 14 30.666 14H28.9993C28.9113 14.0002 28.8273 14.0355 28.765 14.0977C28.7025 14.1602 28.6673 14.2453 28.6673 14.3337V15.6667C28.6673 15.7551 28.7025 15.8402 28.765 15.9027C28.8273 15.9647 28.9114 16.0002 28.9993 16.0003H30.666C31.0196 16.0003 31.36 16.1409 31.61 16.391C31.8598 16.641 32.0007 16.9799 32.0007 17.3333C32.0007 17.6867 31.8598 18.0257 31.61 18.2757C31.36 18.5258 31.0196 18.6663 30.666 18.6663H28.9993C28.9114 18.6665 28.8273 18.7019 28.765 18.764C28.7025 18.8265 28.6673 18.9116 28.6673 19V21.0003C28.6674 21.0886 28.7025 21.1739 28.765 21.2363C28.8273 21.2983 28.9115 21.3338 28.9993 21.334H30.666C31.0196 21.334 31.36 21.4746 31.61 21.7246C31.8597 21.9746 32.0007 22.3137 32.0007 22.667C32.0006 23.0203 31.8598 23.3594 31.61 23.6094C31.36 23.8594 31.0196 24 30.666 24H28.9993C28.9113 24.0002 28.8273 24.0355 28.765 24.0977C28.7025 24.1602 28.6673 24.2453 28.6673 24.3337V25.6667C28.6673 25.7551 28.7025 25.8402 28.765 25.9027C28.8273 25.9647 28.9114 26.0002 28.9993 26.0003H30.666C31.0196 26.0003 31.36 26.1409 31.61 26.3909C31.8598 26.641 32.0007 26.9799 32.0007 27.3333C32.0007 27.6867 31.8598 28.0257 31.61 28.2757C31.36 28.5258 31.0196 28.6663 30.666 28.6663H28.9993C28.9114 28.6665 28.8273 28.7019 28.765 28.764C28.7025 28.8265 28.6673 28.9116 28.6673 29V31.334C28.6671 31.8639 28.4559 32.3719 28.0814 32.7467C27.7064 33.1217 27.1973 33.3326 26.667 33.3327H26.3333C26.245 33.3327 26.1598 33.3679 26.0973 33.4303C26.0349 33.4928 25.9998 33.5781 25.9997 33.6663V34.6673C25.9995 35.0207 25.8589 35.3598 25.6091 35.6097C25.359 35.8595 25.0201 36.0003 24.6667 36.0003C24.3132 36.0003 23.9743 35.8595 23.7243 35.6097C23.4744 35.3598 23.3338 35.0207 23.3337 34.6673V33.6663C23.3336 33.5781 23.2984 33.4928 23.236 33.4303C23.1735 33.3679 23.0883 33.3327 23 33.3327H21.667C21.5787 33.3327 21.4935 33.368 21.431 33.4303C21.3686 33.4928 21.3334 33.5781 21.3333 33.6663V34.6673C21.3332 35.0207 21.1926 35.3598 20.9427 35.6097C20.6928 35.8596 20.3538 36.0002 20.0003 36.0003C19.6469 36.0003 19.3079 35.8594 19.0579 35.6097C18.808 35.3598 18.6675 35.0207 18.6673 34.6673V33.6663C18.6672 33.5781 18.6321 33.4928 18.5697 33.4303C18.5072 33.3679 18.4219 33.3328 18.3337 33.3327H17.0007C16.9125 33.3327 16.8271 33.3681 16.7646 33.4303C16.7022 33.4928 16.6671 33.5781 16.667 33.6663V34.6673C16.6668 35.0207 16.5263 35.3598 16.2764 35.6097C16.0265 35.8596 15.6874 36.0002 15.334 36.0003C14.9804 36.0003 14.64 35.8597 14.39 35.6097C14.1402 35.3598 13.9995 35.0206 13.9993 34.6673V33.6663C13.9993 33.5781 13.9641 33.4928 13.9017 33.4303C13.8394 33.3684 13.7552 33.3329 13.6673 33.3327H13.3337C12.8032 33.3327 12.2943 33.1218 11.9193 32.7467C11.5446 32.3719 11.3335 31.864 11.3333 31.334V29C11.3333 28.9116 11.2982 28.8265 11.2357 28.764C11.1732 28.7016 11.088 28.6663 10.9997 28.6663H9.33301C8.9795 28.6663 8.6406 28.5257 8.39063 28.2757C8.14068 28.0257 8 27.6869 8 27.3333C8 26.9798 8.14068 26.641 8.39063 26.3909C8.6406 26.141 8.9795 26.0004 9.33301 26.0003H10.9997C11.088 26.0003 11.1732 25.9651 11.2357 25.9027C11.2982 25.8402 11.3333 25.7551 11.3333 25.6667V24.3337C11.3333 24.2453 11.2982 24.1602 11.2357 24.0977C11.1732 24.0351 11.0881 24 10.9997 24H9.33301C8.9795 23.9999 8.6406 23.8593 8.39063 23.6094C8.14065 23.3594 8.00009 23.0205 8 22.667C8 22.3135 8.14078 21.9746 8.39063 21.7246C8.6406 21.4746 8.9795 21.3341 9.33301 21.334H10.9997C11.0879 21.334 11.1732 21.2986 11.2357 21.2363C11.2981 21.1739 11.3332 21.0886 11.3333 21.0003V19C11.3333 18.9116 11.2982 18.8265 11.2357 18.764C11.1732 18.7016 11.088 18.6663 10.9997 18.6663H9.33301C8.9795 18.6663 8.6406 18.5257 8.39063 18.2757C8.14068 18.0257 8 17.6869 8 17.3333C8 16.9798 8.14068 16.641 8.39063 16.391C8.6406 16.141 8.9795 16.0004 9.33301 16.0003H10.9997C11.088 16.0003 11.1732 15.9651 11.2357 15.9027C11.2982 15.8402 11.3333 15.7551 11.3333 15.6667V14.3337C11.3333 14.2453 11.2982 14.1602 11.2357 14.0977C11.1732 14.0351 11.0881 14 10.9997 14H9.33301C8.9795 13.9999 8.6406 13.8593 8.39063 13.6094C8.14065 13.3594 8.00009 13.0205 8 12.667C8 12.3135 8.14078 11.9746 8.39063 11.7246C8.6406 11.4746 8.9795 11.3341 9.33301 11.334H10.9997C11.0879 11.334 11.1732 11.2986 11.2357 11.2363C11.2981 11.1739 11.3332 11.0886 11.3333 11.0003V8.66634C11.3334 8.13603 11.5443 7.62695 11.9193 7.25195C12.2943 6.87708 12.8034 6.66602 13.3337 6.66602H13.6673C13.7555 6.66584 13.8393 6.63072 13.9017 6.56836C13.9641 6.506 13.9992 6.42215 13.9993 6.33398V5.33301C13.9994 4.97966 14.1402 4.64057 14.39 4.39062C14.64 4.14058 14.9804 4 15.334 4C15.6874 4.00017 16.0265 4.14073 16.2764 4.39062C16.5262 4.64058 16.6669 4.97958 16.667 5.33301V6.33398C16.6672 6.42208 16.7024 6.50602 16.7646 6.56836C16.8272 6.63087 16.9122 6.66602 17.0007 6.66602H18.3337C18.4219 6.66593 18.5072 6.63079 18.5697 6.56836C18.6316 6.50606 18.6671 6.42185 18.6673 6.33398V5.33301C18.6674 4.9795 18.808 4.6406 19.0579 4.39062C19.308 4.14078 19.6469 4 20.0003 4C20.3538 4.00009 20.6927 4.14065 20.9427 4.39062C21.1927 4.6406 21.3332 4.9795 21.3333 5.33301V6.33398C21.3335 6.422 21.3688 6.50603 21.431 6.56836C21.4935 6.63087 21.5786 6.66602 21.667 6.66602H23C23.0884 6.66602 23.1735 6.63087 23.236 6.56836C23.2981 6.50605 23.3335 6.42192 23.3337 6.33398V5.33301C23.3337 4.9795 23.4743 4.6406 23.7243 4.39062C23.9743 4.14068 24.3131 4 24.6667 4ZM14.6667 9.33366C14.4899 9.33366 14.3197 9.40395 14.1947 9.52897C14.0701 9.6538 13.9995 9.823 13.9993 9.99935V29.9993C13.9993 30.176 14.0698 30.3464 14.1947 30.4714C14.3197 30.5964 14.4899 30.6667 14.6667 30.6667H25.334C25.5105 30.6665 25.6795 30.5961 25.8044 30.4714C25.9294 30.3463 25.9997 30.1762 25.9997 29.9993V9.99935C25.9995 9.82277 25.9292 9.65384 25.8044 9.52897C25.6795 9.4041 25.5106 9.33383 25.334 9.33366H14.6667Z" fill="#FAFAFA"/>
</svg>
