<svg width="40" height="40" viewBox="0 0 40 40" fill="none" xmlns="http://www.w3.org/2000/svg">
<path fill-rule="evenodd" clip-rule="evenodd" d="M20 2.34375C21.5208 2.34378 22.979 2.94814 24.0544 4.02344C24.9005 4.8696 25.4531 5.95325 25.651 7.11751C27.0693 7.26602 28.4013 7.89676 29.4189 8.91439C30.591 10.0865 31.25 11.6757 31.25 13.3333C31.25 13.6649 31.1182 13.9827 30.8838 14.2171C30.6494 14.4515 30.3315 14.5833 30 14.5833H20C19.3096 14.5833 18.75 14.0237 18.75 13.3333C18.75 11.6757 19.409 10.0865 20.5811 8.91439C21.3054 8.19008 22.1888 7.66127 23.1494 7.36328C23.0154 6.7729 22.7217 6.22589 22.2868 5.79102C21.6803 5.18455 20.8577 4.84378 20 4.84375H12.526C12.1018 4.84236 11.6813 4.92462 11.2891 5.08626C10.8965 5.24805 10.5395 5.48593 10.2393 5.78613C9.93903 6.08636 9.70118 6.44338 9.53939 6.83594C9.37761 7.22847 9.29539 7.64998 9.29688 8.07454V36.7188H10.8122L10.9408 36.7253C11.5709 36.7894 12.0622 37.3217 12.0622 37.9688C12.0622 38.6158 11.5709 39.1481 10.9408 39.2122L10.8122 39.2188H5C4.30964 39.2188 3.75 38.6591 3.75 37.9688C3.75001 37.2784 4.30965 36.7188 5 36.7188H6.79688V8.0778C6.79486 7.3252 6.94145 6.57965 7.22819 5.88379C7.51565 5.18634 7.93826 4.55197 8.47168 4.01855C9.00508 3.48517 9.63949 3.06252 10.3369 2.77507C11.0328 2.48835 11.7783 2.34335 12.5309 2.34538L20 2.34375Z" fill="#FAFAFA"/>
</svg>
