<svg width="40" height="40" viewBox="0 0 40 40" fill="none" xmlns="http://www.w3.org/2000/svg">
<path fill-rule="evenodd" clip-rule="evenodd" d="M35.3223 6.28743C35.9919 6.12025 36.6702 6.52768 36.8376 7.19727C37.0048 7.86688 36.5974 8.54516 35.9278 8.71256L21.25 12.3812V18.75H27.8467C27.8624 18.7503 27.8828 18.7508 27.907 18.7516C27.9558 18.7533 28.0218 18.7573 28.1023 18.763C28.2635 18.7745 28.4867 18.7957 28.75 18.8395C29.2712 18.9264 29.9855 19.1034 30.7146 19.4678C31.4488 19.8349 32.2218 20.4054 32.8077 21.2842C33.3988 22.1709 33.75 23.2969 33.75 24.6875V30.9717C33.7498 30.9874 33.7492 31.0076 33.7484 31.0319C33.7468 31.0808 33.7428 31.1467 33.737 31.2272C33.7255 31.3885 33.7044 31.6116 33.6605 31.875C33.5737 32.3962 33.3967 33.1104 33.0323 33.8395C32.6652 34.5737 32.0947 35.3467 31.2159 35.9326C30.3292 36.5237 29.2031 36.875 27.8125 36.875H12.1534C12.1377 36.8747 12.1173 36.8742 12.0931 36.8734C12.0442 36.8717 11.9783 36.8677 11.8978 36.862C11.7366 36.8505 11.5133 36.8293 11.2501 36.7855C10.7289 36.6986 10.0145 36.5216 9.28553 36.1572C8.55135 35.7901 7.77829 35.2196 7.19243 34.3408C6.60135 33.4542 6.25005 32.3281 6.25005 30.9375V24.6533C6.25031 24.6376 6.25087 24.6174 6.25168 24.5931C6.25331 24.5442 6.25733 24.4783 6.26307 24.3978C6.27459 24.2365 6.29569 24.0134 6.33957 23.75C6.42643 23.2289 6.60341 22.5146 6.96782 21.7855C7.33492 21.0513 7.90546 20.2783 8.78423 19.6924C9.67086 19.1013 10.797 18.75 12.1876 18.75H18.7501V13.0062L4.67779 16.5251C4.00823 16.6921 3.32987 16.2848 3.16249 15.6152C2.99535 14.9457 3.40282 14.2674 4.07232 14.0999L35.3223 6.28743ZM12.1876 21.25C11.2345 21.25 10.6026 21.4847 10.1709 21.7725C9.73173 22.0653 9.42294 22.4647 9.20415 22.902C8.98301 23.3443 8.86664 23.8027 8.80702 24.1602C8.77772 24.336 8.76334 24.4803 8.75656 24.5752C8.75321 24.6221 8.75071 24.6565 8.75005 24.6761V26.5625H14.0626V21.25H12.1876ZM16.5626 26.5625H23.4375V21.25H16.5626V26.5625ZM25.9375 26.5625H31.25V24.6875C31.25 23.7344 31.0154 23.1026 30.7276 22.6709C30.4347 22.2317 30.0354 21.9229 29.598 21.7041C29.1558 21.483 28.6974 21.3666 28.3399 21.307C28.1641 21.2777 28.0198 21.2633 27.9249 21.2565C27.878 21.2532 27.8436 21.2507 27.8239 21.25H25.9375V26.5625Z" fill="#FAFAFA"/>
<path d="M16.8913 4.6875C17.5814 4.68785 18.1413 5.24736 18.1413 5.9375C18.1413 6.62764 17.5814 7.18715 16.8913 7.1875H16.8751C16.1848 7.18739 15.6251 6.62779 15.6251 5.9375C15.6251 5.24721 16.1848 4.68761 16.8751 4.6875H16.8913Z" fill="#FAFAFA"/>
<path d="M23.1413 3.125C23.8314 3.12535 24.3913 3.68486 24.3913 4.375C24.3913 5.06514 23.8314 5.62465 23.1413 5.625H23.125C22.4347 5.62497 21.875 5.06534 21.875 4.375C21.875 3.68466 22.4347 3.12503 23.125 3.125H23.1413Z" fill="#FAFAFA"/>
</svg>
