<svg width="40" height="40" viewBox="0 0 40 40" fill="none" xmlns="http://www.w3.org/2000/svg">
<path d="M24.047 27.7621C24.4924 27.8328 24.8729 28.1417 25.0285 28.5759L27.6668 35.944C27.8034 36.3264 27.7458 36.7528 27.5122 37.085C27.2784 37.417 26.8961 37.6151 26.4901 37.6156H13.5099C13.1037 37.6156 12.722 37.4168 12.4878 37.085C12.2538 36.7527 12.1965 36.3267 12.3332 35.944L14.965 28.5775C15.1428 28.0807 15.6141 27.7477 16.1418 27.7474H23.8517L24.047 27.7621Z" fill="#FAFAFA"/>
<path fill-rule="evenodd" clip-rule="evenodd" d="M21.5731 2.67904C23.1039 2.25882 24.7246 2.28864 26.2378 2.76856C27.7507 3.24857 29.0931 4.15692 30.1017 5.38249L30.2043 5.53712C30.2906 5.69881 30.3295 5.88419 30.3117 6.06934C30.2935 6.25482 30.2195 6.43005 30.1033 6.57227L29.9731 6.70248L26.1759 9.82585C27.0438 10.1778 27.8508 10.6762 28.5571 11.3053C29.742 12.3612 30.5962 13.7381 31.0164 15.2686C31.4365 16.7993 31.4052 18.4202 30.9253 19.9333C30.4452 21.4461 29.5369 22.7887 28.3113 23.7972C28.1194 23.9549 27.8718 24.0312 27.6245 24.0072C27.3772 23.983 27.1493 23.8605 26.9914 23.6686L23.868 19.8731C23.5161 20.7402 23.0188 21.5469 22.3901 22.2526C21.3341 23.4377 19.956 24.2917 18.4253 24.7119C16.8948 25.1319 15.275 25.1006 13.7622 24.6208C12.2491 24.1408 10.9069 23.2325 9.89826 22.0068C9.74035 21.8149 9.66437 21.5674 9.6883 21.32C9.71245 21.0728 9.83507 20.8448 10.0268 20.6869L13.8208 17.5635C12.954 17.2116 12.1484 16.7141 11.4429 16.0856C10.2576 15.0297 9.40388 13.6515 8.98355 12.1208C8.56355 10.5904 8.59342 8.97045 9.07307 7.45769C9.55299 5.9449 10.4616 4.60236 11.687 3.59376L11.8416 3.48959C12.0034 3.40318 12.1886 3.36594 12.3738 3.38379C12.6214 3.40786 12.849 3.53029 13.007 3.72234L16.1304 7.51791C16.4822 6.65055 16.981 5.84428 17.6099 5.13835C18.6657 3.95329 20.0425 3.09938 21.5731 2.67904ZM21.0897 12.168C20.2472 11.5664 19.0762 11.762 18.4741 12.6042C17.872 13.4466 18.0666 14.6174 18.9087 15.2197C19.7513 15.822 20.9236 15.6277 21.5259 14.7852C22.1278 13.9426 21.9321 12.7702 21.0897 12.168Z" fill="#FAFAFA"/>
</svg>
