<svg width="40" height="40" viewBox="0 0 40 40" fill="none" xmlns="http://www.w3.org/2000/svg">
<path d="M14 32.0002C14.1768 32.0002 14.347 32.0705 14.472 32.1955C14.5968 32.3205 14.6673 32.4909 14.6673 32.6675V34.6662C14.6673 35.0198 14.5267 35.3602 14.2767 35.6102C14.0266 35.8602 13.6863 36.0008 13.3327 36.0008H5.33301C4.97968 36.0007 4.64056 35.8599 4.39062 35.6102C4.14058 35.3602 4 35.0198 4 34.6662V32.6675C4 32.4907 4.07033 32.3205 4.19531 32.1955C4.32034 32.0705 4.49051 32.0002 4.66732 32.0002H14Z" fill="#FAFAFA"/>
<path d="M27.3333 32.0002C27.5101 32.0002 27.6803 32.0705 27.8053 32.1955C27.9301 32.3205 28.0007 32.4909 28.0007 32.6675V34.6662C28.0007 35.0198 27.8601 35.3602 27.61 35.6102C27.36 35.8602 27.0196 36.0008 26.666 36.0008H18.6663C18.313 36.0007 17.9739 35.8599 17.724 35.6102C17.4739 35.3602 17.3333 35.0198 17.3333 34.6662V32.6675C17.3333 32.4907 17.4037 32.3205 17.5286 32.1955C17.6537 32.0705 17.8238 32.0002 18.0007 32.0002H27.3333Z" fill="#FAFAFA"/>
<path d="M14 24.3342C14 24.3342 14.6672 24.3336 14.6673 24.9998V29.3342C14.6671 29.3587 14.6539 29.9998 14 29.9998H4.66732C4.66732 29.9998 4.00049 30.0001 4 29.3342V24.9998C4.00008 24.9853 4.00809 24.3342 4.66732 24.3342H14Z" fill="#FAFAFA"/>
<path d="M27.3333 24.3342C27.3333 24.3342 28.0005 24.3336 28.0007 24.9998V29.3342C28.0004 29.3587 27.9872 29.9998 27.3333 29.9998H18.0007C18.0007 29.9998 17.3338 30.0001 17.3333 29.3342V24.9998C17.3334 24.9853 17.3414 24.3342 18.0007 24.3342H27.3333Z" fill="#FAFAFA"/>
<path d="M16.6676 8.00603C16.7541 8.0061 16.84 8.02339 16.9199 8.05649C16.9998 8.08956 17.072 8.13868 17.1331 8.19972C17.1944 8.261 17.2432 8.33449 17.2764 8.41456C17.3095 8.49459 17.3268 8.58023 17.3268 8.66684C17.3268 8.75348 17.3095 8.83908 17.2764 8.91912C17.2432 8.99918 17.1944 9.07268 17.1331 9.13396L15.8001 10.467C15.739 10.528 15.6667 10.5771 15.5869 10.6102C15.5068 10.6434 15.4197 10.6607 15.333 10.6607C15.1584 10.6604 14.9911 10.5904 14.8675 10.467C14.8062 10.4057 14.7575 10.3322 14.7243 10.2521C14.6912 10.1722 14.6738 10.0864 14.6738 9.99985C14.6739 9.91326 14.6911 9.82757 14.7243 9.74757C14.7575 9.66751 14.8062 9.594 14.8675 9.53273L16.2005 8.19972C16.2618 8.13853 16.3354 8.08962 16.4154 8.05649C16.4952 8.02356 16.5813 8.00603 16.6676 8.00603Z" fill="#FAFAFA"/>
<path fill-rule="evenodd" clip-rule="evenodd" d="M15.0856 4.06886C16.5025 3.85136 17.9508 4.14944 19.1676 4.90708C20.3842 5.66468 21.2897 6.83255 21.7197 8.19972C21.7624 8.33544 21.8474 8.4543 21.9622 8.53826C22.0773 8.62218 22.2169 8.66763 22.3594 8.66684H27.999C28.8745 8.66684 29.7423 8.83962 30.5511 9.17465C31.3598 9.50968 32.0952 10.001 32.7142 10.62C33.3329 11.2388 33.8246 11.973 34.1595 12.7814C34.4945 13.5903 34.6657 14.458 34.6657 15.3335V22.6675C34.6636 22.7711 34.6877 22.8743 34.734 22.967C34.7804 23.0595 34.8486 23.1393 34.9326 23.1997C35.3802 23.5354 35.7113 24.0037 35.8783 24.5376C36.0451 25.0717 36.0405 25.6457 35.8636 26.1766C35.6866 26.7076 35.346 27.1693 34.8919 27.4966C34.4379 27.8238 33.8923 27.9995 33.3327 27.9995C32.7731 27.9994 32.2274 27.8238 31.7734 27.4966C31.3196 27.1694 30.9803 26.7074 30.8034 26.1766C30.6264 25.6457 30.6202 25.0718 30.7871 24.5376C30.954 24.0036 31.2851 23.5354 31.7327 23.1997C31.8171 23.1392 31.8865 23.0598 31.9329 22.967C31.9793 22.8743 32.0017 22.7711 31.9997 22.6675V15.3335C31.9997 14.2726 31.5779 13.2549 30.8278 12.5047C30.0777 11.7548 29.0597 11.3329 27.999 11.3329H22.3594C22.2169 11.3321 22.0773 11.3775 21.9622 11.4614C21.8473 11.5454 21.7624 11.6642 21.7197 11.8C21.2897 13.1675 20.3846 14.3366 19.1676 15.0942C17.9508 15.8519 16.5024 16.1483 15.0856 15.9308C13.6688 15.7133 12.3766 14.9955 11.443 13.9077C10.5095 12.8199 9.99609 11.4334 9.99609 9.99985C9.99615 8.56643 10.5095 7.17975 11.443 6.09197C12.3766 5.00438 13.6689 4.28638 15.0856 4.06886ZM17.2747 6.92042C16.6658 6.66832 15.9957 6.60142 15.3493 6.72999C14.7027 6.85861 14.1081 7.1769 13.6419 7.64308C13.176 8.10919 12.859 8.70401 12.7305 9.35043C12.602 9.99685 12.6687 10.667 12.9209 11.2759C13.1732 11.8848 13.6001 12.4055 14.1481 12.7717C14.6962 13.1378 15.3411 13.3332 16.0003 13.3332C16.4377 13.3331 16.8706 13.2466 17.2747 13.0793C17.6792 12.9118 18.0476 12.6661 18.3571 12.3566C18.6664 12.0472 18.9123 11.6801 19.0798 11.2759C19.2473 10.8715 19.3337 10.4376 19.3337 9.99985C19.3336 9.34066 19.1367 8.69573 18.7705 8.14764C18.4043 7.59983 17.8835 7.1726 17.2747 6.92042Z" fill="#FAFAFA"/>
<path d="M9.33366 15.6672C10.7479 15.6673 12.1047 16.2281 13.1048 17.228C14.105 18.2282 14.6673 19.5863 14.6673 21.0008V21.6665C14.6673 21.8433 14.597 22.0135 14.472 22.1385C14.347 22.2635 14.1768 22.3338 14 22.3338H4.66732C4.49061 22.3338 4.32032 22.2634 4.19531 22.1385C4.07029 22.0135 4 21.8433 4 21.6665V21.0008C4 19.5863 4.56231 18.2282 5.5625 17.228C6.56264 16.2282 7.91945 15.6672 9.33366 15.6672Z" fill="#FAFAFA"/>
<path d="M22.667 15.6672C24.0812 15.6673 25.4381 16.2281 26.4382 17.228C27.4383 18.2282 28.0007 19.5863 28.0007 21.0008V21.6665C28.0007 21.8433 27.9303 22.0135 27.8053 22.1385C27.6803 22.2635 27.5101 22.3338 27.3333 22.3338H18.0007C17.8239 22.3338 17.6536 22.2634 17.5286 22.1385C17.4036 22.0135 17.3333 21.8433 17.3333 21.6665V21.0008C17.3333 19.5863 17.8956 18.2282 18.8958 17.228C19.896 16.2282 21.2528 15.6672 22.667 15.6672Z" fill="#FAFAFA"/>
</svg>
