<svg width="40" height="40" viewBox="0 0 40 40" fill="none" xmlns="http://www.w3.org/2000/svg">
<path d="M21.6901 16.522C22.3398 16.522 22.9641 16.7804 23.4235 17.2397C23.8825 17.699 24.141 18.3222 24.1413 18.9715C24.1413 19.6212 23.8828 20.2455 23.4235 20.7049C22.964 21.1644 22.3399 21.4227 21.6901 21.4227C21.0407 21.4226 20.4177 21.164 19.9583 20.7049C19.499 20.2455 19.2406 19.6212 19.2406 18.9715C19.2408 18.322 19.4991 17.699 19.9583 17.2397C20.4177 16.7805 21.0406 16.5221 21.6901 16.522Z" fill="#FAFAFA"/>
<path fill-rule="evenodd" clip-rule="evenodd" d="M28.6318 10.8416C28.7261 10.8573 28.8334 10.8854 28.9248 10.9312C29.0112 10.9744 29.0595 11.0201 29.0892 11.0646C29.1137 11.1015 29.1721 11.2067 29.1722 11.4569V26.4797C29.1709 26.4979 29.1681 26.5319 29.1608 26.5757C29.1451 26.6699 29.1154 26.7773 29.0697 26.8687C29.0265 26.9548 28.9806 27.0034 28.9362 27.033C28.899 27.0577 28.7938 27.116 28.5439 27.116H13.5212C13.5028 27.1147 13.4687 27.1119 13.4251 27.1047C13.3311 27.089 13.225 27.059 13.1338 27.0135C13.0473 26.9703 12.9975 26.9245 12.9678 26.88C12.943 26.8427 12.8848 26.7371 12.8848 26.4878V24.3328H13.6904C14.3807 24.3327 14.9404 23.7731 14.9404 23.0828C14.9401 22.3928 14.3805 21.833 13.6904 21.8328H12.8848V16.1118H13.6904C14.3805 16.1117 14.9401 15.5518 14.9404 14.8618C14.9404 14.1715 14.3807 13.6119 13.6904 13.6118H12.8848V11.465C12.8861 11.4467 12.8905 11.4125 12.8978 11.369C12.9135 11.2751 12.9419 11.1688 12.9873 11.0776C13.0306 10.9911 13.0763 10.9413 13.1208 10.9116C13.1577 10.887 13.2631 10.8287 13.513 10.8286H28.5358C28.554 10.8299 28.5878 10.8343 28.6318 10.8416ZM21.6901 14.022C20.3775 14.0221 19.1189 14.5441 18.1908 15.4722C17.2627 16.4003 16.7408 17.659 16.7406 18.9715C16.7406 20.2842 17.2626 21.5442 18.1908 22.4725C19.1189 23.4005 20.3776 23.9226 21.6901 23.9227C23.0029 23.9227 24.2628 23.4008 25.1911 22.4725C26.1193 21.5442 26.6413 20.2842 26.6413 18.9715C26.641 17.6592 26.119 16.4002 25.1911 15.4722C24.2628 14.544 23.0028 14.022 21.6901 14.022Z" fill="#FAFAFA"/>
<path fill-rule="evenodd" clip-rule="evenodd" d="M33.4268 3.33512C33.4565 3.33612 33.4943 3.33681 33.5391 3.34001C33.6285 3.34639 33.7487 3.35895 33.889 3.38232C34.1635 3.42812 34.5485 3.52244 34.9486 3.72249C35.3538 3.92511 35.7976 4.24894 36.1367 4.75765C36.4809 5.27412 36.6673 5.90677 36.6673 6.63916V31.3315C36.6671 31.3424 36.6662 31.3557 36.6657 31.3706C36.6647 31.4003 36.664 31.4382 36.6608 31.4829C36.6544 31.5723 36.6419 31.6926 36.6185 31.8328C36.5727 32.1074 36.4784 32.4923 36.2783 32.8924C36.0757 33.2976 35.7519 33.7414 35.2432 34.0806C34.7267 34.4248 34.0941 34.6112 33.3617 34.6112H32.556V35.4168C32.5559 36.1071 31.9963 36.6668 31.306 36.6668C30.6157 36.6668 30.056 36.1071 30.056 35.4168V34.6112H9.94531V35.4168C9.94525 36.1071 9.38563 36.6668 8.69531 36.6668C8.00499 36.6668 7.44537 36.1071 7.44531 35.4168V34.6112H6.61361C6.60279 34.611 6.58946 34.61 6.57454 34.6095C6.54482 34.6085 6.50697 34.6078 6.46224 34.6047C6.3728 34.5983 6.25255 34.5857 6.1123 34.5623C5.83776 34.5165 5.45282 34.4222 5.05273 34.2222C4.64753 34.0195 4.20371 33.6957 3.86458 33.187C3.52045 32.6706 3.33398 32.0379 3.33398 31.3055V6.61312C3.33416 6.6023 3.33511 6.58897 3.33561 6.57406C3.33661 6.54433 3.3373 6.50648 3.34049 6.46175C3.34688 6.37231 3.35944 6.25207 3.38281 6.11182C3.4286 5.83727 3.52293 5.45234 3.72298 5.05225C3.9256 4.64703 4.24942 4.20324 4.75814 3.8641C5.27461 3.51993 5.90725 3.3335 6.63965 3.3335H33.3877C33.3985 3.33367 33.4118 3.33463 33.4268 3.33512ZM13.513 8.32861C12.825 8.32871 12.2256 8.50395 11.734 8.83154C11.2502 9.15412 10.9425 9.57636 10.751 9.95947C10.5621 10.3374 10.4733 10.701 10.4303 10.9588C10.4084 11.0904 10.3973 11.2032 10.3913 11.2876C10.3883 11.33 10.3873 11.3666 10.3864 11.395C10.3859 11.4091 10.3849 11.4221 10.3848 11.4325V13.6118H9.5791C8.88875 13.6118 8.3291 14.1715 8.3291 14.8618C8.32943 15.5519 8.88895 16.1118 9.5791 16.1118H10.3848V21.8328H9.5791C8.88895 21.8328 8.32943 22.3928 8.3291 23.0828C8.3291 23.7732 8.88875 24.3328 9.5791 24.3328H10.3848V26.4878C10.3848 27.1758 10.5602 27.7752 10.8877 28.2668C11.2103 28.7506 11.6325 29.0583 12.0156 29.2498C12.3937 29.4388 12.7571 29.5275 13.015 29.5705C13.1467 29.5924 13.2593 29.6035 13.3438 29.6095C13.3863 29.6126 13.4227 29.6151 13.4512 29.616H28.5439C29.2321 29.616 29.8313 29.4407 30.3229 29.1131C30.8065 28.7907 31.1144 28.3698 31.306 27.9868C31.4949 27.6089 31.5836 27.2454 31.6266 26.9875C31.6486 26.8556 31.6596 26.7416 31.6657 26.6571C31.6687 26.6152 31.6712 26.5795 31.6722 26.5513V26.4894V11.4569C31.6721 10.7688 31.4969 10.1694 31.1693 9.6779C30.8468 9.19416 30.426 8.8864 30.043 8.69482C29.665 8.50583 29.3016 8.41722 29.0436 8.37419C28.9117 8.35219 28.7978 8.34117 28.7132 8.33512C28.6713 8.33214 28.6357 8.33119 28.6074 8.33024C28.5934 8.32977 28.5804 8.32878 28.57 8.32861H28.5456C28.5456 8.32861 28.5441 8.37023 28.5439 8.95687L28.5456 8.32861H13.513Z" fill="#FAFAFA"/>
</svg>
