<svg width="40" height="40" viewBox="0 0 40 40" fill="none" xmlns="http://www.w3.org/2000/svg">
<path d="M20 29.9997C20.884 29.9997 21.7316 30.3512 22.3568 30.9762C22.9818 31.6014 23.3333 32.449 23.3333 33.333C23.3333 34.217 22.9818 35.0646 22.3568 35.6898C21.7316 36.3148 20.884 36.6663 20 36.6663C19.2264 36.6663 18.4806 36.3972 17.8874 35.9111L17.6432 35.6898C17.0181 35.0646 16.6667 34.217 16.6667 33.333C16.6667 32.5594 16.9358 31.8136 17.4219 31.2204L17.6432 30.9762C18.2684 30.3512 19.116 29.9997 20 29.9997Z" fill="#FAFAFA"/>
<path d="M8.33333 16.6663C8.77107 16.6663 9.20496 16.7527 9.60938 16.9202C10.0136 17.0877 10.3807 17.3335 10.6901 17.6429C10.9995 17.9523 11.2453 18.3194 11.4128 18.7236C11.5803 19.1279 11.6667 19.5619 11.6667 19.9997C11.6667 20.4375 11.5803 20.8714 11.4128 21.2757C11.2453 21.68 10.9995 22.0471 10.6901 22.3564C10.3807 22.6658 10.0136 22.9117 9.60938 23.0791C9.20496 23.2467 8.77107 23.333 8.33333 23.333C7.8956 23.333 7.46171 23.2467 7.05729 23.0791C6.75407 22.9535 6.47189 22.7836 6.21908 22.5762L5.97656 22.3564C5.66716 22.0471 5.42141 21.68 5.25391 21.2757C5.08639 20.8714 5 20.4375 5 19.9997C5 19.6715 5.0484 19.3457 5.14323 19.0329L5.25391 18.7236C5.37954 18.4204 5.54939 18.1382 5.75684 17.8854L5.97656 17.6429C6.20857 17.4109 6.4728 17.2144 6.76107 17.0602L7.05729 16.9202C7.46171 16.7527 7.8956 16.6663 8.33333 16.6663Z" fill="#FAFAFA"/>
<path d="M20 16.6663C20.884 16.6663 21.7316 17.0178 22.3568 17.6429C22.9818 18.2681 23.3333 19.1157 23.3333 19.9997C23.3333 20.8837 22.9818 21.7313 22.3568 22.3564C21.7316 22.9815 20.884 23.333 20 23.333C19.2264 23.333 18.4806 23.0639 17.8874 22.5778L17.6432 22.3564C17.0181 21.7313 16.6667 20.8837 16.6667 19.9997C16.6667 19.2261 16.9358 18.4803 17.4219 17.887L17.6432 17.6429C18.2684 17.0178 19.116 16.6663 20 16.6663Z" fill="#FAFAFA"/>
<path d="M31.6667 16.6663C32.5507 16.6663 33.3983 17.0178 34.0234 17.6429C34.6485 18.2681 35 19.1157 35 19.9997C35 20.8837 34.6485 21.7313 34.0234 22.3564C33.3983 22.9815 32.5507 23.333 31.6667 23.333C30.8931 23.333 30.1473 23.0639 29.554 22.5778L29.3099 22.3564C28.6849 21.7313 28.3333 20.8837 28.3333 19.9997C28.3333 19.2261 28.6025 18.4803 29.0885 17.887L29.3099 17.6429C29.9351 17.0178 30.7827 16.6663 31.6667 16.6663Z" fill="#FAFAFA"/>
<path d="M8.33333 3.33301C8.77107 3.33301 9.20496 3.4194 9.60938 3.58691C10.0136 3.75442 10.3807 4.00015 10.6901 4.30957C10.9995 4.61899 11.2453 4.98605 11.4128 5.3903C11.5803 5.79471 11.6667 6.22861 11.6667 6.66634C11.6667 7.10407 11.5803 7.53797 11.4128 7.94238L11.2728 8.23861C11.1186 8.52688 10.9221 8.7911 10.6901 9.02311C10.3807 9.33253 10.0136 9.57826 9.60938 9.74577L9.30013 9.85645C8.98723 9.95127 8.66147 9.99967 8.33333 9.99967C7.8956 9.99967 7.46171 9.91328 7.05729 9.74577C6.75407 9.62012 6.47189 9.4503 6.21908 9.24284L5.97656 9.02311C5.74455 8.7911 5.54807 8.52688 5.39388 8.23861L5.25391 7.94238C5.08639 7.53797 5 7.10407 5 6.66634C5 6.3382 5.0484 6.01245 5.14323 5.69954L5.25391 5.3903C5.37955 5.08708 5.54938 4.8049 5.75684 4.55208L5.97656 4.30957C6.20857 4.07756 6.47279 3.88108 6.76107 3.72689L7.05729 3.58691C7.46171 3.4194 7.8956 3.33301 8.33333 3.33301Z" fill="#FAFAFA"/>
<path d="M20 3.33301C20.884 3.33301 21.7316 3.68445 22.3568 4.30957C22.9818 4.9347 23.3333 5.78228 23.3333 6.66634C23.3333 7.5504 22.9818 8.39799 22.3568 9.02311C21.7316 9.64823 20.884 9.99967 20 9.99967C19.2264 9.99967 18.4806 9.73059 17.8874 9.24447L17.6432 9.02311C17.0181 8.39799 16.6667 7.5504 16.6667 6.66634C16.6667 5.89269 16.9358 5.1469 17.4219 4.55371L17.6432 4.30957C18.2684 3.68445 19.116 3.33301 20 3.33301Z" fill="#FAFAFA"/>
<path d="M31.6667 3.33301C32.5507 3.33301 33.3983 3.68445 34.0234 4.30957C34.6485 4.9347 35 5.78228 35 6.66634C35 7.5504 34.6485 8.39799 34.0234 9.02311C33.3983 9.64823 32.5507 9.99967 31.6667 9.99967C30.8931 9.99967 30.1473 9.73059 29.554 9.24447L29.3099 9.02311C28.6849 8.39799 28.3333 7.5504 28.3333 6.66634C28.3333 5.89269 28.6025 5.1469 29.0885 4.55371L29.3099 4.30957C29.9351 3.68445 30.7827 3.33301 31.6667 3.33301Z" fill="#FAFAFA"/>
</svg>
