<svg width="40" height="40" viewBox="0 0 40 40" fill="none" xmlns="http://www.w3.org/2000/svg">
<path d="M15.9701 12.9499H12.9297V10.2269H15.9701V12.9499Z" fill="#FAFAFA"/>
<path d="M21.5218 12.9499H18.4701V10.2269H21.5218V12.9499Z" fill="#FAFAFA"/>
<path d="M27.0964 12.9499H24.0218V10.2269H27.0964V12.9499Z" fill="#FAFAFA"/>
<path fill-rule="evenodd" clip-rule="evenodd" d="M28.7484 3.33398C31.2785 3.3353 33.3317 5.38687 33.3317 7.91732V19.8118C32.9606 19.6404 32.5466 19.5435 32.111 19.5433H28.7777C27.1669 19.5433 25.8611 20.8492 25.861 22.46C25.8611 22.9395 25.9781 23.3923 26.1833 23.7913C24.0003 25.1947 22.5541 27.6451 22.5537 30.4336V30.4759L22.5618 30.7965L22.5635 30.8177V30.8389C22.6841 33.2085 23.8501 35.3012 25.6087 36.6673H11.2549C8.7236 36.6673 6.66996 34.6153 6.66992 32.084V7.91732C6.66998 5.38606 8.72361 3.33398 11.2549 3.33398H28.7484ZM11.6797 25.834C10.9897 25.8344 10.4297 26.3939 10.4297 27.084V30.4173C10.4299 31.1072 10.9899 31.6669 11.6797 31.6673C12.3692 31.6664 12.9295 31.1069 12.9297 30.4173V27.084C12.9296 26.3942 12.3693 25.8349 11.6797 25.834ZM16.7676 25.834C16.0776 25.8344 15.5176 26.3939 15.5176 27.084V30.4173C15.5178 31.1072 16.0777 31.6669 16.7676 31.6673C17.457 31.6664 18.0173 31.1069 18.0176 30.4173V27.084C18.0175 26.3942 17.4572 25.8349 16.7676 25.834ZM11.6797 16.6689C10.9899 16.6694 10.4299 17.2291 10.4297 17.9189C10.4297 18.609 10.9897 19.1685 11.6797 19.1689H28.3464C29.0359 19.1681 29.5963 18.6087 29.5964 17.9189C29.5961 17.2294 29.0358 16.6698 28.3464 16.6689H11.6797ZM12.0133 7.72689C11.1394 7.72733 10.4299 8.43656 10.4297 9.31055V13.8662C10.4301 14.74 11.1395 15.4494 12.0133 15.4499H28.0127C28.8861 15.449 29.5959 14.7397 29.5964 13.8662V9.31055C29.5961 8.43683 28.8863 7.72777 28.0127 7.72689H12.0133Z" fill="#FAFAFA"/>
<path fill-rule="evenodd" clip-rule="evenodd" d="M32.9443 21.5013C33.6343 21.5017 34.1943 22.0613 34.1943 22.7513C34.194 23.4411 33.6341 24.0009 32.9443 24.0013H32.526V24.3447C35.3642 24.9233 37.5012 27.4345 37.5016 30.4434L37.4935 30.764C37.3265 34.0516 34.6066 36.6667 31.2777 36.6673L30.957 36.6592C27.775 36.4979 25.2235 33.9459 25.0618 30.764L25.0537 30.4434C25.0541 27.4352 27.1889 24.9241 30.026 24.3447V24.0013H29.611C28.9209 24.0013 28.3614 23.4413 28.361 22.7513C28.3611 22.061 28.9207 21.5013 29.611 21.5013H32.9443ZM31.2777 28.36C30.1274 28.36 29.1948 29.2932 29.1943 30.4434C29.1943 31.594 30.1271 32.5267 31.2777 32.5267C32.4279 32.5263 33.361 31.5937 33.361 30.4434C33.3606 29.2934 32.4276 28.3605 31.2777 28.36Z" fill="#FAFAFA"/>
</svg>
