<svg width="40" height="40" viewBox="0 0 40 40" fill="none" xmlns="http://www.w3.org/2000/svg">
<path fill-rule="evenodd" clip-rule="evenodd" d="M28.332 3.75C30.8633 3.75 32.9154 5.80203 32.9154 8.33333V31.6667C32.9154 34.198 30.8633 36.25 28.332 36.25H11.6654C9.13406 36.25 7.08203 34.198 7.08203 31.6667V8.33333C7.08203 5.80203 9.13406 3.75 11.6654 3.75H28.332ZM19.9987 29.5833C19.3083 29.5833 18.7487 30.143 18.7487 30.8333C18.7487 31.5237 19.3083 32.0833 19.9987 32.0833C20.6891 32.0833 21.2487 31.5237 21.2487 30.8333C21.2487 30.143 20.6891 29.5833 19.9987 29.5833ZM12.1813 21.25C12.7807 25.0282 16.0518 27.9167 19.9987 27.9167C23.9456 27.9167 27.2167 25.0282 27.8161 21.25H12.1813ZM19.9987 12.0833C16.0518 12.0833 12.7807 14.9718 12.1813 18.75H27.8161C27.2167 14.9718 23.9456 12.0833 19.9987 12.0833ZM19.9987 7.91667C19.3083 7.91667 18.7487 8.47631 18.7487 9.16667C18.7487 9.85702 19.3083 10.4167 19.9987 10.4167C20.6891 10.4167 21.2487 9.85702 21.2487 9.16667C21.2487 8.47631 20.6891 7.91667 19.9987 7.91667Z" fill="#FAFAFA"/>
</svg>
