<svg width="40" height="40" viewBox="0 0 40 40" fill="none" xmlns="http://www.w3.org/2000/svg">
<path d="M14.1227 25.8773V35.0391H11.5316C10.6424 35.0391 9.89742 35.0383 9.28874 34.9886C8.65336 34.9367 8.05373 34.8241 7.48535 34.5345C6.61559 34.0913 5.90866 33.3844 5.4655 32.5146C5.17592 31.9463 5.06333 31.3466 5.01139 30.7113C4.96166 30.1026 4.96092 29.3575 4.96094 28.4684V25.8773H14.1227Z" fill="#FAFAFA"/>
<path d="M23.2992 35.0391H16.7008V25.8773H23.2992V35.0391Z" fill="#FAFAFA"/>
<path d="M35.0391 28.4684C35.0391 29.3576 35.0383 30.1026 34.9886 30.7113C34.9367 31.3466 34.8241 31.9463 34.5345 32.5146C34.0913 33.3844 33.3844 34.0913 32.5146 34.5345C31.9463 34.8241 31.3466 34.9367 30.7113 34.9886C30.1026 35.0383 29.3576 35.0391 28.4684 35.0391H25.8773V25.8773H35.0391V28.4684Z" fill="#FAFAFA"/>
<path d="M35.0391 23.3268L25.8773 23.3236V16.7008H35.0391V23.3268Z" fill="#FAFAFA"/>
<path d="M23.2992 23.3203L16.7008 23.3122V16.7008H23.2992V23.3203Z" fill="#FAFAFA"/>
<path d="M14.1227 16.7008V23.3089L4.96094 23.304V16.7008H14.1227Z" fill="#FAFAFA"/>
<path d="M28.4684 4.96094C29.3575 4.96092 30.1026 4.96166 30.7113 5.01139C31.3466 5.06333 31.9463 5.17592 32.5146 5.4655C33.3844 5.90866 34.0913 6.61559 34.5345 7.48535C34.8241 8.05373 34.9367 8.65336 34.9886 9.28874C35.0383 9.89742 35.0391 10.6424 35.0391 11.5316V14.1227H25.8773V4.96094H28.4684Z" fill="#FAFAFA"/>
<path d="M14.1227 14.1227H4.96094V11.5316C4.96092 10.6425 4.96166 9.8974 5.01139 9.28874C5.06333 8.65336 5.17592 8.05374 5.4655 7.48535C5.90866 6.61559 6.61559 5.90866 7.48535 5.4655C8.05374 5.17592 8.65336 5.06333 9.28874 5.01139C9.8974 4.96166 10.6425 4.96092 11.5316 4.96094H14.1227V14.1227Z" fill="#FAFAFA"/>
<path d="M23.2992 14.1227H16.7008V4.96094H23.2992V14.1227Z" fill="#FAFAFA"/>
</svg>
