<svg width="40" height="40" viewBox="0 0 40 40" fill="none" xmlns="http://www.w3.org/2000/svg">
<path d="M34.1667 10.4167C35.3173 10.4167 36.25 11.3494 36.25 12.5V13.75C36.25 14.4404 35.6904 15 35 15C34.3096 15 33.75 14.4404 33.75 13.75V12.9167H12.9167V33.75H33.75C33.75 33.0596 34.3096 32.5 35 32.5C35.6904 32.5 36.25 33.0596 36.25 33.75V34.1667C36.25 35.3173 35.3173 36.25 34.1667 36.25H12.5C11.3494 36.25 10.4167 35.3173 10.4167 34.1667V12.5C10.4167 11.3494 11.3494 10.4167 12.5 10.4167H34.1667Z" fill="#FAFAFA"/>
<path d="M19.5361 26.263C20.1535 25.9544 20.9055 26.2056 21.2142 26.8229C21.5218 27.4401 21.2712 28.1908 20.6543 28.4993L20.6266 28.5124C21.3421 28.6731 22.0715 28.7747 22.8076 28.8086C23.7998 28.8005 24.5555 28.4417 25.5632 27.9378C26.5527 27.443 27.8017 26.8001 29.471 26.8001L29.5264 26.8018C31.551 26.8915 33.5375 27.3881 35.3662 28.2617C35.9885 28.5594 36.2525 29.3058 35.9554 29.9284C35.6578 30.5509 34.9114 30.8147 34.2887 30.5176C32.7697 29.7918 31.12 29.3778 29.4385 29.3001C28.4453 29.3077 27.6896 29.6684 26.6813 30.1725C25.6918 30.6673 24.4427 31.3101 22.7734 31.3102C22.7553 31.3102 22.7362 31.3094 22.7181 31.3086C20.6935 31.2189 18.707 30.7222 16.8783 29.8486C16.4477 29.6429 16.1716 29.2092 16.167 28.7321C16.1627 28.2549 16.4304 27.8162 16.8571 27.6025L19.5361 26.263Z" fill="#FAFAFA"/>
<path d="M27.5 3.75C28.6506 3.75 29.5833 4.68274 29.5833 5.83333V7.91667H12.5C9.9687 7.91667 7.91667 9.96869 7.91667 12.5V29.5833H5.83333C4.68274 29.5833 3.75 28.6506 3.75 27.5V5.83333C3.75 4.68274 4.68274 3.75 5.83333 3.75H27.5Z" fill="#FAFAFA"/>
<path d="M19.5361 20.9049C20.1533 20.5968 20.9054 20.8479 21.2142 21.4648C21.5221 22.0819 21.271 22.8325 20.6543 23.1413L20.6266 23.1543C21.3422 23.315 22.0714 23.4166 22.8076 23.4505C23.7998 23.4425 24.5555 23.0836 25.5632 22.5798C26.5527 22.085 27.802 21.4421 29.471 21.4421L29.5264 21.4437C31.5511 21.5335 33.5375 22.03 35.3662 22.9036C35.9887 23.2011 36.252 23.9477 35.9554 24.5703C35.6578 25.1932 34.9116 25.4571 34.2887 25.1595C32.7697 24.4338 31.1201 24.0197 29.4385 23.9421C28.4455 23.9496 27.6893 24.3105 26.6813 24.8145C25.6918 25.3092 24.4427 25.952 22.7734 25.9521C22.7553 25.9521 22.7362 25.9513 22.7181 25.9505C20.6933 25.8608 18.7071 25.3643 16.8783 24.4906C16.4475 24.2848 16.1714 23.8513 16.167 23.374C16.163 22.8971 16.4306 22.458 16.8571 22.2445L19.5361 20.9049Z" fill="#FAFAFA"/>
<path d="M19.5361 15.5485C20.1535 15.2401 20.9055 15.4911 21.2142 16.1084C21.522 16.7255 21.2712 17.4762 20.6543 17.7848L20.6266 17.7979C21.3422 17.9586 22.0715 18.0602 22.8076 18.0941C23.7998 18.086 24.5555 17.7271 25.5632 17.2233C26.5527 16.7285 27.8018 16.0856 29.471 16.0856L29.5264 16.0872C31.5511 16.177 33.5375 16.6736 35.3662 17.5472C35.9886 17.8448 36.2524 18.5912 35.9554 19.2139C35.6579 19.8367 34.9116 20.1004 34.2887 19.8031C32.7697 19.0773 31.12 18.6633 29.4385 18.5856C28.4454 18.5932 27.6895 18.9539 26.6813 19.458C25.6918 19.9528 24.4427 20.5956 22.7734 20.5957C22.7553 20.5957 22.7362 20.5949 22.7181 20.5941C20.6934 20.5043 18.707 20.0077 16.8783 19.1341C16.4475 18.9283 16.1715 18.4949 16.167 18.0176C16.1627 17.5404 16.4304 17.1017 16.8571 16.888L19.5361 15.5485Z" fill="#FAFAFA"/>
</svg>
