<svg width="40" height="40" viewBox="0 0 40 40" fill="none" xmlns="http://www.w3.org/2000/svg">
<path d="M10.3154 7.69629C11.2745 7.76304 12.206 8.06182 13.0273 8.56934C13.9658 9.14942 14.7252 9.98007 15.2188 10.9668L18.3311 17.1914H22.3506C23.9268 17.1914 25.4382 17.818 26.5527 18.9326C27.6671 20.0472 28.2939 21.5587 28.2939 23.1348V26.7002C28.2937 27.6457 27.9176 28.5531 27.249 29.2217C26.5804 29.89 25.6739 30.2665 24.7285 30.2666H22.1934C21.9825 31.0809 21.563 31.8344 20.958 32.4395C20.0664 33.3309 18.8565 33.832 17.5957 33.832C16.3351 33.8319 15.1259 33.3308 14.2344 32.4395C13.6294 31.8344 13.2099 31.0809 12.999 30.2666H4.52148C3.86538 30.2666 3.33263 29.7341 3.33203 29.0781V18.3799C3.33205 17.7234 3.86502 17.1914 4.52148 17.1914H15.6719L13.0928 12.0293C12.7967 11.4376 12.3411 10.9398 11.7783 10.5918C11.2854 10.2872 10.726 10.1084 10.1504 10.0684L9.90234 10.0596H4.52148C3.8654 10.0596 3.33266 9.52703 3.33203 8.87109C3.33203 8.21462 3.86501 7.68164 4.52148 7.68164H9.9043L10.3154 7.69629ZM17.5957 26.7002C16.9654 26.7003 16.3608 26.9508 15.915 27.3965C15.4694 27.8423 15.2188 28.4478 15.2188 29.0781L15.2314 29.3135C15.2858 29.8571 15.5254 30.3691 15.915 30.7588C16.3607 31.2043 16.9656 31.455 17.5957 31.4551C18.226 31.4551 18.8315 31.2044 19.2773 30.7588C19.7229 30.3132 19.9733 29.7082 19.9736 29.0781C19.9736 28.4478 19.7229 27.8423 19.2773 27.3965C18.8315 26.9507 18.2262 26.7002 17.5957 26.7002ZM35.4766 17.1914C36.1328 17.1916 36.666 17.7236 36.666 18.3799C36.6656 19.0359 36.1326 19.5682 35.4766 19.5684H31.9111C31.2549 19.5684 30.7231 19.036 30.7227 18.3799C30.7227 17.7234 31.2547 17.1914 31.9111 17.1914H35.4766ZM31.5029 9.97461C31.967 9.51056 32.7194 9.51076 33.1836 9.97461C33.6474 10.4388 33.6476 11.1912 33.1836 11.6553L30.6621 14.1768C30.198 14.6404 29.4455 14.6405 28.9814 14.1768C28.5176 13.7126 28.5176 12.9592 28.9814 12.4951L31.5029 9.97461ZM24.7793 6.49219C25.4354 6.49247 25.9676 7.02553 25.9678 7.68164V11.248C25.9673 11.904 25.4353 12.4362 24.7793 12.4365C24.1231 12.4365 23.5913 11.9041 23.5908 11.248V7.68164C23.591 7.02535 24.123 6.49219 24.7793 6.49219Z" fill="#FAFAFA"/>
</svg>
