<svg width="40" height="40" viewBox="0 0 40 40" fill="none" xmlns="http://www.w3.org/2000/svg">
<path d="M14.0625 23.1363V35.1269C13.7604 35.0369 13.4666 34.9173 13.1885 34.7639L6.93848 31.6275C6.91863 31.6176 6.89916 31.606 6.87988 31.595C5.61132 30.8695 4.79469 29.5635 4.69727 28.1184L4.6875 27.8271V19.9869L4.69727 19.6956C4.71761 19.3933 4.76939 19.0963 4.85026 18.8101L14.0625 23.1363Z" fill="#FAFAFA"/>
<path d="M35.1693 14.2024C35.2625 14.5579 35.3119 14.9257 35.3125 15.2961V23.1379C35.3122 24.6956 34.4738 26.132 33.1217 26.9075C33.1016 26.919 33.0806 26.9296 33.0599 26.94L17.4349 34.7655L17.4333 34.7639C17.1561 34.9165 16.8633 35.0353 16.5625 35.1252V23.1282L35.1693 14.2024Z" fill="#FAFAFA"/>
<path d="M24.6875 7.81079C25.431 7.81079 26.1611 8.00224 26.8115 8.36092L33.0615 11.4973L33.1185 11.5282C33.3845 11.6798 33.6325 11.8583 33.859 12.0605L15.3076 20.9602L6.20931 16.6861C6.41454 16.5106 6.63907 16.3546 6.87826 16.2174L6.9401 16.1848L22.5651 8.35929C23.2152 8.00106 23.9445 7.81079 24.6875 7.81079Z" fill="#FAFAFA"/>
</svg>
