<svg width="40" height="40" viewBox="0 0 40 40" fill="none" xmlns="http://www.w3.org/2000/svg">
<path fill-rule="evenodd" clip-rule="evenodd" d="M16.2617 14.0687C15.5714 14.0687 15.0117 14.6283 15.0117 15.3187V17.0635C15.0118 17.7538 15.5714 18.3135 16.2617 18.3135C16.952 18.3135 17.5117 17.7538 17.5117 17.0635V15.3187C17.5117 14.6283 16.9521 14.0687 16.2617 14.0687ZM23.7357 14.0687C23.0453 14.0687 22.4857 14.6283 22.4857 15.3187V17.0635C22.4857 17.7538 23.0454 18.3135 23.7357 18.3135C24.426 18.3135 24.9856 17.7538 24.9857 17.0635V15.3187C24.9857 14.6283 24.426 14.0687 23.7357 14.0687Z" fill="#FAFAFA"/>
<path fill-rule="evenodd" clip-rule="evenodd" d="M31.9225 3.33952C34.5644 3.47336 36.6654 5.65783 36.6654 8.33301V31.6663L36.6589 31.9235C36.5293 34.4802 34.4793 36.5303 31.9225 36.6598L31.6654 36.6663H8.33203L8.07487 36.6598C5.51813 36.5303 3.46807 34.4802 3.33854 31.9235L3.33203 31.6663V8.33301C3.33203 5.65783 5.43296 3.47337 8.07487 3.33952L8.33203 3.33301H31.6654L31.9225 3.33952ZM13.3613 9.91667C12.7929 9.91671 12.2445 10.1145 11.8086 10.4717L11.6296 10.6344C6.45721 15.8072 6.45696 24.1939 11.6296 29.3665C12.0888 29.8254 12.712 30.0843 13.3613 30.0843H26.6361C27.2855 30.0843 27.9102 29.8256 28.3695 29.3665C33.5419 24.194 33.5415 15.8072 28.3695 10.6344C27.9101 10.175 27.2857 9.91667 26.6361 9.91667H13.3613Z" fill="#FAFAFA"/>
<path fill-rule="evenodd" clip-rule="evenodd" d="M19.9987 19.1745C22.1902 19.1745 23.9668 20.9511 23.9668 23.1426V25.1803C23.9667 25.8706 23.407 26.4302 22.7168 26.4303H17.2806C16.5903 26.4303 16.0307 25.8706 16.0306 25.1803V23.1426C16.0306 20.9511 17.8072 19.1745 19.9987 19.1745ZM19.9987 21.6745C19.1879 21.6745 18.5306 22.3318 18.5306 23.1426V23.9303H21.4668V23.1426C21.4668 22.3318 20.8095 21.6745 19.9987 21.6745Z" fill="#FAFAFA"/>
</svg>
