<svg width="40" height="40" viewBox="0 0 40 40" fill="none" xmlns="http://www.w3.org/2000/svg">
<path fill-rule="evenodd" clip-rule="evenodd" d="M23.7523 8.58545C24.9603 8.5855 25.941 9.56443 25.9414 10.7729V13.2762H33.4642C34.2208 13.2765 34.9162 13.6667 35.3132 14.2935L35.4645 14.575L38.264 20.8739L38.3454 21.0871C38.4158 21.3043 38.4528 21.5324 38.4528 21.7625V26.0985C38.4528 27.3071 37.4716 28.2871 36.2637 28.2876H33.5765C33.0384 30.0952 31.3661 31.4136 29.3838 31.4142C27.401 31.4142 25.728 30.0953 25.1895 28.2876H17.9368C17.3986 30.0954 15.7267 31.414 13.7441 31.4142C11.7607 31.4142 10.0878 30.0946 9.5498 28.286H6.86263C5.65468 28.2855 4.67519 27.3069 4.67513 26.0985V17.9653H10.6159C12.2267 17.9653 13.5326 16.426 13.5326 14.5262C13.5326 12.6264 12.2267 11.0871 10.6159 11.0871L2.79688 11.0854C2.10665 11.0854 1.54709 10.5256 1.54688 9.83545C1.54688 9.14509 2.10652 8.58545 2.79688 8.58545H23.7523ZM13.7441 25.1593C12.7072 25.1593 11.8659 26.0006 11.8659 27.0376C11.8662 28.0743 12.7074 28.9142 13.7441 28.9142C14.7807 28.9139 15.6204 28.0742 15.6208 27.0376C15.6208 26.0007 14.7809 25.1597 13.7441 25.1593ZM29.3838 25.1593C28.3468 25.1593 27.5055 26.0006 27.5055 27.0376C27.5059 28.0743 28.347 28.9142 29.3838 28.9142C30.42 28.9135 31.2601 28.074 31.2604 27.0376C31.2604 26.001 30.4202 25.1601 29.3838 25.1593ZM25.9414 24.3374C26.7431 23.3172 27.9859 22.6593 29.3838 22.6593C31.3663 22.66 33.0386 23.9794 33.5765 25.7876H35.9528V21.8309L33.2624 15.7762H25.9414V24.3374Z" fill="#FAFAFA"/>
<path d="M10.6159 13.2762C11.3062 13.2762 11.8659 13.8358 11.8659 14.5262C11.8659 15.2166 11.3062 15.7762 10.6159 15.7762H4.361C3.67065 15.7762 3.111 15.2166 3.111 14.5262C3.111 13.8358 3.67065 13.2762 4.361 13.2762H10.6159Z" fill="#FAFAFA"/>
</svg>
