<svg width="40" height="40" viewBox="0 0 40 40" fill="none" xmlns="http://www.w3.org/2000/svg">
<path fill-rule="evenodd" clip-rule="evenodd" d="M18.7507 13.8769C17.5591 14.1203 16.4546 14.7081 15.5817 15.581C14.4096 16.7531 13.7507 18.3424 13.7507 19.9999C13.7507 21.6574 14.4096 23.2468 15.5817 24.4189C16.4545 25.2917 17.5592 25.8778 18.7507 26.1213V32.9166H6.66732C4.13601 32.9166 2.08398 30.8646 2.08398 28.3333V11.6666C2.08398 9.13528 4.13601 7.08325 6.66732 7.08325H18.7507V13.8769ZM6.25065 13.7499C5.5603 13.7499 5.00065 14.3096 5.00065 14.9999C5.00065 15.6903 5.5603 16.2499 6.25065 16.2499H6.66732C7.81795 16.2501 8.75065 17.183 8.75065 18.3333V21.6666C8.75065 22.8169 7.81792 23.7497 6.66732 23.7499H6.25065C5.5603 23.7499 5.00065 24.3096 5.00065 24.9999C5.00065 25.6903 5.5603 26.2499 6.25065 26.2499H6.66732C9.1983 26.2497 11.2507 24.1979 11.2507 21.6666V18.3333C11.2507 15.8019 9.19827 13.7501 6.66732 13.7499H6.25065Z" fill="#FAFAFA"/>
<path fill-rule="evenodd" clip-rule="evenodd" d="M33.334 7.08325C35.8653 7.08325 37.9173 9.13528 37.9173 11.6666V28.3333C37.9173 30.8646 35.8653 32.9166 33.334 32.9166H21.2507V26.1213C22.4421 25.8778 23.5468 25.2917 24.4196 24.4189C25.5917 23.2468 26.2507 21.6575 26.2507 19.9999C26.2507 18.3424 25.5916 16.7531 24.4196 15.581C23.5467 14.708 22.4422 14.1203 21.2507 13.8769V7.08325H33.334ZM33.334 13.7499C30.803 13.7501 28.7507 15.8019 28.7507 18.3333V21.6666C28.7507 24.1979 30.803 26.2497 33.334 26.2499H33.7507C34.441 26.2499 35.0006 25.6903 35.0006 24.9999C35.0006 24.3096 34.441 23.7499 33.7507 23.7499H33.334C32.1834 23.7497 31.2507 22.8169 31.2507 21.6666V18.3333C31.2507 17.183 32.1833 16.2501 33.334 16.2499H33.7507C34.441 16.2499 35.0006 15.6903 35.0006 14.9999C35.0006 14.3096 34.441 13.7499 33.7507 13.7499H33.334Z" fill="#FAFAFA"/>
<path d="M18.7507 23.5302C18.229 23.3454 17.7481 23.0501 17.3493 22.6513C16.646 21.948 16.2507 20.9944 16.2507 19.9999C16.2507 19.0054 16.646 18.0518 17.3493 17.3486C17.7482 16.9496 18.2288 16.6528 18.7507 16.468V23.5302Z" fill="#FAFAFA"/>
<path d="M21.2507 16.468C21.7725 16.6528 22.2531 16.9496 22.652 17.3486C23.3553 18.0519 23.7507 19.0055 23.7507 19.9999C23.7507 20.9944 23.3553 21.948 22.652 22.6513C22.2532 23.0501 21.7723 23.3454 21.2507 23.5302V16.468Z" fill="#FAFAFA"/>
</svg>
