<svg width="40" height="40" viewBox="0 0 40 40" fill="none" xmlns="http://www.w3.org/2000/svg">
<path fill-rule="evenodd" clip-rule="evenodd" d="M25.0007 3.75C25.691 3.75 26.2507 4.30964 26.2507 5C26.2507 5.69036 25.691 6.25 25.0007 6.25H21.2507V10H26.6673L27.1816 10.013C32.4655 10.2807 36.6673 14.6496 36.6673 20V21.6667C36.6673 26.0513 33.8444 29.7737 29.9176 31.123V34.2497C29.9176 34.94 29.358 35.4997 28.6676 35.4997C27.9773 35.4997 27.4176 34.94 27.4176 34.2497V31.6341C27.3391 31.6399 27.2607 31.6496 27.1816 31.6536L26.6673 31.6667H13.334C13.0643 31.6667 12.7975 31.6518 12.5332 31.6309V34.2497C12.5332 34.94 11.9736 35.4997 11.2832 35.4997C10.5928 35.4997 10.0332 34.94 10.0332 34.2497V31.1068C6.28673 29.7969 3.55682 26.3223 3.34701 22.181L3.33398 21.6667V20C3.33398 14.4772 7.81114 10 13.334 10H18.7507V6.25H15.0007C14.3103 6.25 13.7507 5.69036 13.7507 5C13.7507 4.30964 14.3103 3.75 15.0007 3.75H25.0007ZM14.1673 15.8333C13.477 15.8333 12.9173 16.393 12.9173 17.0833C12.9173 17.7737 13.477 18.3333 14.1673 18.3333H24.3268C24.8167 18.3335 25.3004 18.5367 25.6663 18.9209C26.0345 19.3075 26.2507 19.845 26.2507 20.4167C26.2507 20.988 26.034 21.5243 25.6663 21.9108C25.3004 22.2951 24.8168 22.4998 24.3268 22.5H20.3424C20.4981 22.0601 20.4031 21.5516 20.0511 21.1995C19.563 20.7114 18.7717 20.7114 18.2835 21.1995L16.6169 22.8662C16.3824 23.1006 16.2507 23.4185 16.2507 23.75C16.2507 24.0815 16.3824 24.3994 16.6169 24.6338L18.2835 26.3005C18.7717 26.7886 19.563 26.7886 20.0511 26.3005C20.4031 25.9484 20.4981 25.4399 20.3424 25H24.3268C25.5202 24.9998 26.6519 24.5016 27.4762 23.6361C28.2988 22.7724 28.7507 21.6131 28.7507 20.4167C28.7507 19.2202 28.2988 18.061 27.4762 17.1973C26.6519 16.3318 25.5202 15.8335 24.3268 15.8333H14.1673Z" fill="#FAFAFA"/>
</svg>
