<svg width="40" height="40" viewBox="0 0 40 40" fill="none" xmlns="http://www.w3.org/2000/svg">
<path fill-rule="evenodd" clip-rule="evenodd" d="M20 2.9165C23.4256 2.91651 26.7118 4.27668 29.1341 6.69906C31.5564 9.12139 32.9166 12.4075 32.9166 15.8332C32.9166 18.0916 32.321 20.287 31.2239 22.2166L35.9782 28.1981C36.2484 28.5381 36.3232 28.9942 36.1751 29.4025C36.0269 29.8105 35.6774 30.1124 35.2523 30.2L31.206 31.0317L29.528 36.2189C29.3775 36.683 28.9692 37.0175 28.4847 37.075C28.0003 37.1322 27.5268 36.9018 27.2721 36.4858L22.3958 28.522C21.6111 28.6701 20.8098 28.7498 20 28.7498C19.1896 28.7498 18.3877 28.6703 17.6025 28.522L12.7278 36.4858C12.4731 36.9018 11.9996 37.1322 11.5153 37.075C11.0308 37.0175 10.6225 36.683 10.472 36.2189L8.79229 31.0317L4.7477 30.2C4.32256 30.1124 3.97305 29.8105 3.82485 29.4025C3.67672 28.9943 3.75157 28.5381 4.02179 28.1981L8.77439 22.2166C7.67761 20.2872 7.08331 18.0914 7.08331 15.8332C7.08331 12.4075 8.44351 9.1214 10.8659 6.69906C13.2882 4.27671 16.5743 2.9165 20 2.9165ZM7.24281 28.1606L10.0114 28.7303L10.1709 28.7759C10.5366 28.9037 10.8258 29.1956 10.9472 29.5701L12.0133 32.8628L15.1188 27.7896C13.5426 27.1463 12.0929 26.1943 10.8659 24.9673C10.6626 24.7641 10.4696 24.5523 10.2816 24.3374L7.24281 28.1606ZM29.7168 24.3374C29.5289 24.5521 29.3371 24.7643 29.1341 24.9673C27.9067 26.1947 26.4563 27.1463 24.8795 27.7896L27.985 32.8628L29.0527 29.5701L29.1146 29.4155C29.2818 29.0663 29.6033 28.8099 29.9886 28.7303L32.7555 28.1606L29.7168 24.3374ZM20.0016 9.99984C19.8604 9.99984 19.7206 10.0393 19.5996 10.1121C19.4788 10.1851 19.3791 10.2901 19.3131 10.4149L17.6953 13.5968H14.9398C14.7884 13.5932 14.6389 13.6351 14.5117 13.7173C14.3844 13.7998 14.2839 13.9191 14.2252 14.0591C14.1666 14.1991 14.1524 14.3547 14.1829 14.5034C14.2135 14.6515 14.2877 14.7871 14.3961 14.8924L16.9271 17.3859L15.5257 20.6069C15.464 20.7544 15.4492 20.9183 15.485 21.0741C15.5209 21.23 15.6058 21.3706 15.7259 21.4761C15.8459 21.5816 15.9966 21.6477 16.1556 21.6632C16.3143 21.6785 16.475 21.644 16.6129 21.564L20 19.6564L23.3886 21.564C23.5267 21.6439 23.6872 21.6788 23.846 21.6632C24.0049 21.6476 24.1558 21.5816 24.2757 21.4761C24.3954 21.3706 24.4791 21.2297 24.515 21.0741C24.5509 20.9184 24.5376 20.7543 24.4759 20.6069L23.0745 17.3859L25.6038 14.8989C25.7126 14.7934 25.7882 14.6567 25.8187 14.5083C25.8492 14.3597 25.8333 14.2039 25.7747 14.064C25.7161 13.9243 25.6168 13.8046 25.4899 13.7222C25.3629 13.6398 25.2131 13.5983 25.0618 13.6017H22.3063L20.6885 10.4149C20.6225 10.2899 20.5229 10.1852 20.402 10.1121C20.2812 10.0393 20.1427 10 20.0016 9.99984Z" fill="#FAFAFA"/>
</svg>
