<svg width="40" height="40" viewBox="0 0 40 40" fill="none" xmlns="http://www.w3.org/2000/svg">
<path fill-rule="evenodd" clip-rule="evenodd" d="M25.333 4C26.0403 4 26.7193 4.28115 27.2194 4.78125C27.7191 5.28116 28.0005 5.95916 28.0007 6.66602V14.6673C28.0005 15.3742 27.7191 16.0522 27.2194 16.5521C26.7193 17.0522 26.0403 17.3333 25.333 17.3333H19.6673C19.579 17.3333 19.4938 17.3686 19.4313 17.431C19.3688 17.4935 19.3337 17.5786 19.3337 17.667V19C19.3337 19.0884 19.3688 19.1735 19.4313 19.236C19.4938 19.2983 19.5791 19.3337 19.6673 19.3337H34C34.5304 19.3337 35.0393 19.5445 35.4144 19.9196C35.7893 20.2946 36.0003 20.8037 36.0003 21.334V23.3327C36.0003 23.5094 35.9299 23.6797 35.805 23.8047C35.68 23.9297 35.5098 24 35.333 24H7.33333C7.15652 24 6.98635 24.0703 6.86133 24.1953C6.73651 24.3203 6.66602 24.4907 6.66602 24.6673V34.6673C6.66584 35.0207 6.52529 35.3598 6.27539 35.6097C6.02539 35.8594 5.6864 36.0003 5.33301 36.0003C4.97958 36.0002 4.64058 35.8596 4.39062 35.6097C4.14073 35.3598 4.00017 35.0207 4 34.6673V21.334C4 20.8036 4.21097 20.2947 4.58594 19.9196C4.96101 19.5445 5.46989 19.3337 6.00033 19.3337H16.334C16.4219 19.3335 16.506 19.2981 16.5684 19.236C16.6309 19.1735 16.666 19.0884 16.666 19V17.667C16.666 17.5786 16.6309 17.4935 16.5684 17.431C16.506 17.3688 16.422 17.3335 16.334 17.3333H10.6667C9.95942 17.3333 9.28037 17.0522 8.78027 16.5521C8.28063 16.0522 8.00082 15.3741 8.00065 14.6673V6.66602C8.00082 5.95924 8.28063 5.28115 8.78027 4.78125C9.28037 4.28115 9.95942 4 10.6667 4H25.333ZM10.6667 14.6673H25.333V6.66602H10.6667V14.6673Z" fill="#FAFAFA"/>
<path d="M35.333 31.9997C35.5098 31.9997 35.68 32.07 35.805 32.195C35.9299 32.32 36.0003 32.4903 36.0003 32.667V34C36.0003 34.5304 35.7894 35.0393 35.4144 35.4144C35.0394 35.7894 34.5303 36.0002 34 36.0003H27.3333C26.803 36.0003 26.294 35.7894 25.9189 35.4144C25.5439 35.0393 25.333 34.5304 25.333 34V32.667C25.333 32.4902 25.4033 32.32 25.5283 32.195C25.6533 32.0701 25.8236 31.9997 26.0003 31.9997H35.333Z" fill="#FAFAFA"/>
<path d="M35.333 26.0003C35.333 26.0003 35.9999 26.0001 36.0003 26.666V29.3337C36.0002 29.3497 35.9915 29.9993 35.333 29.9993H26.0003C26.0003 29.9993 25.3332 30 25.333 29.3337V26.666C25.3332 26.6423 25.3459 26.0003 26.0003 26.0003H35.333Z" fill="#FAFAFA"/>
</svg>
