<svg width="40" height="40" viewBox="0 0 40 40" fill="none" xmlns="http://www.w3.org/2000/svg">
<path d="M9.60142 26.6441C10.1777 26.3558 10.8789 26.5903 11.1672 27.1666C11.7289 28.2898 11.8817 29.258 11.6603 30.1435C11.4758 30.8806 11.0433 31.4441 10.7782 31.789C10.7496 31.826 10.7226 31.8611 10.6984 31.8931C10.4033 32.2844 10.3539 32.4185 10.3501 32.5523C10.3459 32.7018 10.4036 33.1169 11.0565 33.9879C11.443 34.5035 11.3393 35.2354 10.8237 35.622C10.3082 36.0083 9.57609 35.9031 9.18963 35.3876C8.40935 34.3467 7.99151 33.4088 8.01776 32.4856C8.04454 31.5471 8.53225 30.8882 8.83482 30.4869L8.86737 30.4446C9.19354 30.0123 9.33417 29.8254 9.39634 29.577C9.44342 29.3888 9.47654 29.0016 9.08059 28.2099C8.7924 27.6337 9.02531 26.9323 9.60142 26.6441Z" fill="#FAFAFA"/>
<path d="M16.343 26.6441C16.9192 26.3558 17.6204 26.5903 17.9087 27.1666C18.4705 28.2899 18.6233 29.2579 18.4019 30.1435C18.2174 30.8805 17.7848 31.4442 17.5197 31.789C17.4912 31.826 17.464 31.8611 17.44 31.8931C17.1449 32.2843 17.0955 32.4185 17.0917 32.5523C17.0875 32.7018 17.1464 33.1166 17.7997 33.9879C18.186 34.5034 18.0807 35.2355 17.5653 35.622C17.0498 36.008 16.3192 35.9029 15.9328 35.3876C15.1523 34.3465 14.733 33.4089 14.7593 32.4856C14.7861 31.5471 15.2738 30.8882 15.5764 30.4869L15.6105 30.4446C15.9368 30.0121 16.0774 29.8255 16.1395 29.577C16.1866 29.3888 16.2181 29.0017 15.8221 28.2099C15.534 27.6338 15.767 26.9324 16.343 26.6441Z" fill="#FAFAFA"/>
<path d="M23.0861 26.6441C23.6623 26.3562 24.3621 26.5905 24.6502 27.1666C25.212 28.29 25.3665 29.2579 25.145 30.1435C24.9606 30.8807 24.5264 31.4441 24.2612 31.789C24.2328 31.8259 24.2055 31.8612 24.1815 31.8931C23.8865 32.2841 23.8369 32.4185 23.8332 32.5523C23.829 32.7018 23.8879 33.1167 24.5412 33.9879C24.9277 34.5035 24.8223 35.2354 24.3068 35.622C23.7913 36.0079 23.0607 35.9029 22.6743 35.3876C21.8938 34.3465 21.4746 33.4089 21.5008 32.4856C21.5276 31.547 22.017 30.8882 22.3195 30.4869L22.3521 30.4446C22.6784 30.0121 22.8189 29.8255 22.881 29.577C22.9281 29.3888 22.9598 29.0017 22.5637 28.2099C22.2754 27.6336 22.5099 26.9322 23.0861 26.6441Z" fill="#FAFAFA"/>
<path d="M29.8277 26.6441C30.4039 26.356 31.1052 26.5904 31.3934 27.1666C31.955 28.2897 32.108 29.258 31.8866 30.1435C31.7482 30.6964 31.4697 31.1511 31.2274 31.4895L30.9247 31.8931C30.6293 32.2846 30.5785 32.4185 30.5747 32.5523C30.5705 32.7018 30.6295 33.1168 31.2827 33.9879C31.6692 34.5034 31.5653 35.2354 31.05 35.622C30.5344 36.0085 29.8024 35.9032 29.4159 35.3876C28.6354 34.3466 28.2161 33.4089 28.2424 32.4856C28.2691 31.547 28.7585 30.8882 29.0611 30.4869L29.0936 30.4446C29.4198 30.0122 29.5604 29.8254 29.6226 29.577C29.6696 29.3888 29.7013 29.0017 29.3052 28.2099C29.0171 27.6336 29.2514 26.9322 29.8277 26.6441Z" fill="#FAFAFA"/>
<path d="M18.0259 5.91657C19.033 5.90864 19.9294 6.67032 20.0832 7.66624V7.67275C20.5167 10.5986 21.1808 13.4859 22.0689 16.3072C23.0483 19.0658 24.3993 21.6786 26.0842 24.0725C26.2987 24.3776 26.3258 24.7765 26.1542 25.1076C25.9823 25.4388 25.6402 25.6478 25.2671 25.648H5.21014C4.83698 25.6478 4.49501 25.4388 4.3231 25.1076C4.15141 24.7765 4.17845 24.3777 4.39309 24.0725C6.07806 21.6787 7.42894 19.0659 8.40838 16.3072C9.29652 13.4859 9.96061 10.5986 10.3941 7.67275V7.66624C10.5479 6.67027 11.4442 5.90857 12.4514 5.91657H18.0259Z" fill="#FAFAFA"/>
<path d="M29.3638 10.2509C30.1438 10.2508 31.0573 10.7524 31.216 11.7792L31.2176 11.7857C31.5429 13.9819 32.0405 16.1491 32.7069 18.2668C33.4394 20.329 34.4503 22.283 35.7098 24.0725C35.9242 24.3776 35.9514 24.7765 35.7798 25.1076C35.6078 25.439 35.2645 25.648 34.8911 25.648H28.0943C28.4153 24.7403 28.2839 23.7215 27.7199 22.9201C26.1465 20.6847 24.8827 18.2458 23.965 15.6708C23.6905 14.7965 23.4378 13.9157 23.2082 13.0292C23.282 12.616 23.3501 12.2011 23.4116 11.7857L23.4133 11.7792C23.5647 10.7982 24.4353 10.251 25.2443 10.2509H29.3638Z" fill="#FAFAFA"/>
</svg>
