<svg width="40" height="40" viewBox="0 0 40 40" fill="none" xmlns="http://www.w3.org/2000/svg">
<path d="M38.75 20C39.4404 20 40 20.5596 40 21.25C40 21.9404 39.4404 22.5 38.75 22.5H31.25C30.5596 22.5 30 21.9404 30 21.25C30 20.5596 30.5596 20 31.25 20H38.75Z" fill="#FAFAFA"/>
<path d="M16.8746 25.8333C22.3975 25.8333 26.8746 21.3561 26.8746 15.8333C26.8746 10.3104 22.3975 5.83325 16.8746 5.83325C11.3518 5.83325 6.87464 10.3104 6.87464 15.8333C6.87464 21.3561 11.3518 25.8333 16.8746 25.8333Z" fill="#FAFAFA"/>
<path d="M16.8746 23.7499C22.8957 23.7499 27.8483 27.3301 31.261 32.6594C31.5072 33.0441 31.5242 33.5332 31.305 33.9338C31.0857 34.3344 30.6647 34.5833 30.208 34.5833H3.5413C3.08456 34.5833 2.66363 34.3344 2.4443 33.9338C2.22509 33.5332 2.2421 33.0441 2.48824 32.6594L2.81377 32.1646C6.2126 27.1097 11.0419 23.7499 16.8746 23.7499Z" fill="#FAFAFA"/>
</svg>
