<svg width="40" height="40" viewBox="0 0 40 40" fill="none" xmlns="http://www.w3.org/2000/svg">
<path d="M3.33203 10.0001C3.33203 8.15913 4.82442 6.66675 6.66536 6.66675H33.332C35.173 6.66675 36.6654 8.15913 36.6654 10.0001V30.0001C36.6654 31.841 35.173 33.3334 33.332 33.3334H6.66537C4.82442 33.3334 3.33203 31.841 3.33203 30.0001V10.0001Z" fill="#FAFAFA"/>
<path d="M8.33203 14.5069C8.33205 13.9332 8.89875 13.5317 9.44043 13.7208L16.6279 16.2289C16.9621 16.3457 17.1859 16.6611 17.1862 17.0151V29.629C17.1857 30.2112 16.6031 30.6142 16.0583 30.4086L8.87077 27.6954C8.54658 27.5729 8.33203 27.2624 8.33203 26.9158V14.5069Z" fill="#131313"/>
<path d="M29.1654 23.3334C30.5461 23.3334 31.6654 24.4527 31.6654 25.8334C31.6654 27.2141 30.5461 28.3334 29.1654 28.3334C27.7847 28.3334 26.6654 27.2141 26.6654 25.8334C26.6654 24.4527 27.7847 23.3334 29.1654 23.3334Z" fill="#131313"/>
<path d="M21.6654 13.3334C22.1256 13.3334 22.4987 13.7065 22.4987 14.1667V26.7009C22.4985 27.161 22.1255 27.5343 21.6654 27.5343H19.3477C18.8875 27.5343 18.5145 27.161 18.5143 26.7009V16.1589C18.5143 15.8054 18.2911 15.4903 17.9577 15.3728L16.7663 14.9529C15.8819 14.6418 16.1055 13.3334 17.043 13.3334H21.6654Z" fill="#131313"/>
<path d="M29.1654 16.6667C30.5461 16.6667 31.6654 17.786 31.6654 19.1667C31.6654 20.5475 30.5461 21.6667 29.1654 21.6667C27.7847 21.6667 26.6654 20.5475 26.6654 19.1667C26.6654 17.786 27.7847 16.6667 29.1654 16.6667Z" fill="#131313"/>
</svg>
