<svg width="40" height="40" viewBox="0 0 40 40" fill="none" xmlns="http://www.w3.org/2000/svg">
<path d="M3.33398 20.0002C3.33398 10.7954 10.7959 3.3335 20.0007 3.3335C29.2054 3.3335 36.6673 10.7954 36.6673 20.0002C36.6673 29.2049 29.2054 36.6668 20.0007 36.6668C10.7959 36.6668 3.33398 29.2049 3.33398 20.0002Z" fill="#FAFAFA"/>
<path fill-rule="evenodd" clip-rule="evenodd" d="M11.667 17.0835C11.667 16.752 11.7987 16.434 12.0331 16.1996C12.2675 15.9652 12.5855 15.8335 12.917 15.8335H27.0837C27.4152 15.8335 27.7331 15.9652 27.9675 16.1996C28.202 16.434 28.3337 16.752 28.3337 17.0835C28.3337 17.415 28.202 17.733 27.9675 17.9674C27.7331 18.2018 27.4152 18.3335 27.0837 18.3335H12.917C12.5855 18.3335 12.2675 18.2018 12.0331 17.9674C11.7987 17.733 11.667 17.415 11.667 17.0835Z" fill="#131313"/>
<path fill-rule="evenodd" clip-rule="evenodd" d="M11.667 22.9165C11.667 22.585 11.7987 22.267 12.0331 22.0326C12.2675 21.7982 12.5855 21.6665 12.917 21.6665H27.0837C27.4152 21.6665 27.7331 21.7982 27.9675 22.0326C28.202 22.267 28.3337 22.585 28.3337 22.9165C28.3337 23.248 28.202 23.566 27.9675 23.8004C27.7331 24.0348 27.4152 24.1665 27.0837 24.1665H12.917C12.5855 24.1665 12.2675 24.0348 12.0331 23.8004C11.7987 23.566 11.667 23.248 11.667 22.9165Z" fill="#131313"/>
</svg>
