<svg width="40" height="40" viewBox="0 0 40 40" fill="none" xmlns="http://www.w3.org/2000/svg">
<path d="M19.9997 20.0002C21.3258 20.0002 22.5971 20.5273 23.5348 21.465C24.4725 22.4027 24.9997 23.6741 24.9997 25.0002C24.9997 26.3262 24.4725 27.5976 23.5348 28.5353C22.5971 29.473 21.3258 30.0002 19.9997 30.0002C18.6736 30.0002 17.4022 29.473 16.4645 28.5353C15.5268 27.5976 14.9997 26.3262 14.9997 25.0002C14.9997 23.6741 15.5268 22.4027 16.4645 21.465C17.4022 20.5273 18.6736 20.0002 19.9997 20.0002Z" fill="#FAFAFA"/>
<path d="M15.6442 15.591C16.2739 15.6556 16.7656 16.1877 16.7656 16.8345C16.7652 17.4809 16.2737 18.0134 15.6442 18.078L15.5156 18.0845H12.516C11.8259 18.0845 11.2664 17.5245 11.266 16.8345C11.266 16.1441 11.8256 15.5845 12.516 15.5845H15.5156L15.6442 15.591Z" fill="#FAFAFA"/>
<path fill-rule="evenodd" clip-rule="evenodd" d="M33.613 5.28825C34.2427 5.35282 34.7344 5.88495 34.7344 6.53174V12.5164C34.734 13.2063 34.1743 13.7662 33.4844 13.7664H33.2337V21.5692C33.2153 25.0669 31.8137 28.4171 29.334 30.884C27.0092 33.1965 23.9137 34.5574 20.654 34.7186L19.9997 34.7349C16.5024 34.7348 13.1467 33.3501 10.667 30.884C8.18723 28.4171 6.78408 25.0669 6.76562 21.5692V13.7664H6.53125C5.84114 13.7664 5.28165 13.2065 5.28125 12.5164V6.53174L5.28776 6.40316C5.35213 5.77321 5.88431 5.28174 6.53125 5.28174H33.4844L33.613 5.28825ZM9.26562 21.5562L9.2819 22.0868C9.42652 24.7301 10.544 27.2357 12.4297 29.1115C14.441 31.1118 17.163 32.2348 19.9997 32.2349L20.5303 32.2218C23.1744 32.0911 25.6856 30.9873 27.5713 29.1115C29.5812 27.1121 30.7172 24.3974 30.7337 21.5627V13.7664H9.26562V21.5562Z" fill="#FAFAFA"/>
</svg>
