<svg width="40" height="40" viewBox="0 0 40 40" fill="none" xmlns="http://www.w3.org/2000/svg">
<path fill-rule="evenodd" clip-rule="evenodd" d="M6.66699 7.91683C6.66699 5.38552 8.71902 3.3335 11.2503 3.3335H28.7503C31.2816 3.3335 33.3337 5.38552 33.3337 7.91683V18.7205C31.8378 17.9409 30.1372 17.5002 28.3337 17.5002C22.3506 17.5002 17.5003 22.3504 17.5003 28.3335C17.5003 31.6842 19.0215 34.6797 21.411 36.6668H11.2503C8.71902 36.6668 6.66699 34.6148 6.66699 32.0835V7.91683ZM11.667 9.5835C11.667 8.89314 12.2266 8.3335 12.917 8.3335H23.7503C24.4407 8.3335 25.0003 8.89314 25.0003 9.5835C25.0003 10.2739 24.4407 10.8335 23.7503 10.8335H12.917C12.2266 10.8335 11.667 10.2739 11.667 9.5835ZM11.667 16.2502C11.667 15.5598 12.2266 15.0002 12.917 15.0002H17.0837C17.774 15.0002 18.3337 15.5598 18.3337 16.2502C18.3337 16.9405 17.774 17.5002 17.0837 17.5002H12.917C12.2266 17.5002 11.667 16.9405 11.667 16.2502Z" fill="#FAFAFA"/>
<path fill-rule="evenodd" clip-rule="evenodd" d="M36.6768 28.3286C36.6768 23.7235 32.9436 19.9904 28.3385 19.9904C23.7335 19.9904 20.0003 23.7235 20.0003 28.3286C20.0003 32.9337 23.7335 36.6668 28.3385 36.6668C32.9436 36.6668 36.6768 32.9337 36.6768 28.3286ZM28.3385 22.4904C25.1142 22.4904 22.5003 25.1043 22.5003 28.3286C22.5003 31.553 25.1142 34.1668 28.3385 34.1668C31.5629 34.1668 34.1768 31.553 34.1768 28.3286C34.1768 25.1043 31.5629 22.4904 28.3385 22.4904Z" fill="#FAFAFA"/>
<path fill-rule="evenodd" clip-rule="evenodd" d="M28.3385 22.4904C25.1142 22.4904 22.5003 25.1043 22.5003 28.3286C22.5003 31.553 25.1142 34.1668 28.3385 34.1668C31.5629 34.1668 34.1768 31.553 34.1768 28.3286C34.1768 25.1043 31.5629 22.4904 28.3385 22.4904ZM31.501 25.6105C31.0715 25.3684 30.5256 25.4346 30.1647 25.783L30.1403 25.8075L30.1077 25.8416C30.1007 25.8492 30.0932 25.8582 30.0866 25.866L27.4938 28.9259L26.5173 27.9494L26.4945 27.9298L26.4603 27.8973L26.431 27.8729L26.2568 27.7557C25.8899 27.5566 25.4362 27.5757 25.0866 27.8127L24.9206 27.9494C24.5079 28.3622 24.4822 29.0158 24.8441 29.4598L24.8493 29.4663C24.8556 29.474 24.862 29.482 24.8685 29.4891L24.901 29.5233L24.9064 29.5292C24.911 29.5343 24.9157 29.5396 24.9206 29.5444L26.7874 31.4113L26.8232 31.4438C26.833 31.4527 26.8439 31.4616 26.8542 31.4699C27.0681 31.6431 27.3378 31.7318 27.611 31.7205C27.9256 31.7073 28.2211 31.5622 28.4248 31.3218L31.8086 27.3228C31.8147 27.3155 31.8207 27.3075 31.8265 27.3L31.8558 27.2625C31.8635 27.2526 31.8715 27.2419 31.8786 27.2316C32.1618 26.8183 32.1356 26.2704 31.8265 25.8872L31.6768 25.7326L31.501 25.6105Z" fill="#FAFAFA"/>
</svg>
