<svg width="40" height="40" viewBox="0 0 40 40" fill="none" xmlns="http://www.w3.org/2000/svg">
<path d="M6.25 8.33325C5.55964 8.33325 5 8.8929 5 9.58325C5 10.2736 5.55964 10.8333 6.25 10.8333H33.75C34.4404 10.8333 35 10.2736 35 9.58325C35 8.8929 34.4404 8.33325 33.75 8.33325H6.25Z" fill="#FAFAFA"/>
<path d="M29.4514 16.9409C29.2396 16.5174 28.8068 16.2499 28.3333 16.2499C27.8599 16.2499 27.427 16.5174 27.2153 16.9409L24.9016 21.5682L20.2743 23.8819C19.8508 24.0936 19.5833 24.5265 19.5833 24.9999C19.5833 25.4734 19.8508 25.9062 20.2743 26.118L24.9016 28.4316L27.2153 33.0589C27.427 33.4824 27.8599 33.7499 28.3333 33.7499C28.8068 33.7499 29.2396 33.4824 29.4514 33.0589L31.765 28.4316L36.3924 26.118C36.8158 25.9062 37.0833 25.4734 37.0833 24.9999C37.0833 24.5265 36.8158 24.0936 36.3924 23.8819L31.765 21.5682L29.4514 16.9409Z" fill="#FAFAFA"/>
<path d="M6.25 18.7499C5.55964 18.7499 5 19.3096 5 19.9999C5 20.6903 5.55964 21.2499 6.25 21.2499H15.4167C16.107 21.2499 16.6667 20.6903 16.6667 19.9999C16.6667 19.3096 16.107 18.7499 15.4167 18.7499H6.25Z" fill="#FAFAFA"/>
<path d="M6.25 29.1666C5.55964 29.1666 5 29.7262 5 30.4166C5 31.1069 5.55964 31.6666 6.25 31.6666H12.0833C12.7737 31.6666 13.3333 31.1069 13.3333 30.4166C13.3333 29.7262 12.7737 29.1666 12.0833 29.1666H6.25Z" fill="#FAFAFA"/>
</svg>
