<svg width="40" height="40" viewBox="0 0 40 40" fill="none" xmlns="http://www.w3.org/2000/svg">
<path fill-rule="evenodd" clip-rule="evenodd" d="M33.334 6.66504C35.1749 6.66504 36.6673 8.15905 36.6673 10V30C36.6671 31.8408 35.1748 33.3333 33.334 33.3333H6.66732L6.32715 33.3154C4.64615 33.145 3.33419 31.7259 3.33398 30V10C3.33398 8.15932 4.82674 6.66548 6.66732 6.66504H33.334ZM12.18 28.9811C13.5071 29.6323 14.9986 29.9997 16.5762 30C18.4045 29.9998 20.1161 29.5048 21.5908 28.6475L16.7259 22.1631L12.18 28.9811ZM31.4932 21.6536C30.8031 21.6539 30.2432 22.2135 30.2432 22.9036V27.2461L30.2513 27.373C30.3156 28.0028 30.8465 28.4958 31.4932 28.4961C32.1401 28.4961 32.6723 28.003 32.7367 27.373L32.7432 27.2461V22.9036C32.7432 22.2133 32.1835 21.6536 31.4932 21.6536ZM6.65755 21.25C6.97476 23.7873 8.24096 26.0281 10.0918 27.6074L14.3317 21.25H6.65755ZM23.5781 27.1322C25.146 25.5926 26.2082 23.5429 26.4948 21.25H19.1657L23.5781 27.1322ZM9.67839 12.7637C8.05237 14.314 6.95037 16.4057 6.65755 18.75H14.1673L9.67839 12.7637ZM19.0029 18.75H26.4948C26.1844 16.2645 24.9637 14.0636 23.1745 12.4902L19.0029 18.75ZM16.5762 10C14.8 10.0003 13.1327 10.4652 11.6868 11.2777L16.6055 17.8369L21.1058 11.0856C19.7456 10.3929 18.207 10.0002 16.5762 10Z" fill="#FAFAFA"/>
</svg>
