<svg width="40" height="40" viewBox="0 0 40 40" fill="none" xmlns="http://www.w3.org/2000/svg">
<path fill-rule="evenodd" clip-rule="evenodd" d="M13.0762 11.6668C13.4444 11.6668 13.7371 11.9672 13.7826 12.3325C13.9271 13.4912 14.4456 13.9428 14.821 14.3182C15.4515 14.9487 16.5412 16.0033 17.2169 16.6554C17.4325 16.8639 17.2842 17.23 16.9841 17.23H10.5518C9.86185 17.2303 9.30204 17.79 9.30182 18.48C9.30188 19.1701 9.86175 19.7297 10.5518 19.73H29.3913C30.0817 19.73 30.6413 19.1703 30.6413 18.48C30.6411 17.7898 30.0816 17.23 29.3913 17.23H23.1495C22.8269 17.2292 22.6779 16.7946 22.9167 16.5773C23.6936 15.8708 24.3944 15.0476 25.1238 14.3182C25.4993 13.9427 26.0164 13.4912 26.1605 12.3325C26.206 11.9672 26.4988 11.6669 26.8669 11.6668H33.3057L33.6459 11.6847C35.3269 11.8552 36.6389 13.2743 36.6391 15.0002V16.1704C37.54 16.1846 38.2694 16.9148 38.2781 17.8208L38.3334 28.7843C38.3415 29.7045 37.6016 30.4573 36.6814 30.4657C36.6674 30.4657 36.653 30.4643 36.6391 30.464V31.6668C36.6388 33.3927 35.3269 34.8118 33.6459 34.9823L33.3057 35.0002H6.63906C4.91342 34.9999 3.49428 33.6877 3.32363 32.007L3.30573 31.6668V30.464C2.40531 30.4494 1.67552 29.7208 1.66673 28.8153L1.61139 17.8517C1.60324 16.9317 2.34343 16.1792 3.26341 16.1704C3.27733 16.1703 3.29188 16.1702 3.30573 16.1704V15.0002C3.30595 13.1596 4.79853 11.6672 6.63906 11.6668H13.0762ZM10.5518 26.937C9.86185 26.9373 9.30204 27.497 9.30182 28.187C9.30232 28.8768 9.86202 29.4367 10.5518 29.437H29.3913C30.0814 29.437 30.6408 28.8769 30.6413 28.187C30.6411 27.4968 30.0816 26.937 29.3913 26.937H10.5518ZM10.5518 22.0835C9.86185 22.0838 9.30204 22.6435 9.30182 23.3335C9.3021 24.0234 9.86189 24.5832 10.5518 24.5835H29.3913C30.0815 24.5835 30.6411 24.0236 30.6413 23.3335C30.6411 22.6433 30.0816 22.0835 29.3913 22.0835H10.5518Z" fill="#FAFAFA"/>
<path d="M16.6667 4.5835C19.198 4.5835 21.2501 6.63552 21.2501 9.16683V11.1493L21.6163 10.783C22.1044 10.2949 22.8957 10.2949 23.3839 10.783C23.872 11.2712 23.872 12.0625 23.3839 12.5506L20.8839 15.0506C20.8028 15.1316 20.7102 15.1934 20.6153 15.2476C20.57 15.2734 20.5256 15.3007 20.477 15.3208C20.4235 15.3429 20.368 15.3569 20.3126 15.3713C20.2907 15.3769 20.2698 15.3863 20.2475 15.3908C20.2383 15.3926 20.229 15.394 20.2198 15.3957C20.1484 15.4084 20.0751 15.4168 20.0001 15.4168C19.925 15.4168 19.8518 15.4084 19.7803 15.3957C19.7706 15.3939 19.7608 15.3928 19.751 15.3908C19.7287 15.3863 19.7078 15.3769 19.6859 15.3713C19.6305 15.3569 19.5749 15.3429 19.5216 15.3208C19.4377 15.286 19.359 15.242 19.2855 15.1906C19.2264 15.1492 19.1691 15.1034 19.1163 15.0506L16.6163 12.5506C16.1282 12.0625 16.1282 11.2712 16.6163 10.783C17.1044 10.2949 17.8957 10.2949 18.3839 10.783L18.7501 11.1493V9.16683C18.7501 8.01624 17.8173 7.0835 16.6667 7.0835H13.3334C12.6431 7.08346 12.0834 6.52383 12.0834 5.8335C12.0834 5.14316 12.6431 4.58353 13.3334 4.5835H16.6667Z" fill="#FAFAFA"/>
</svg>
