<svg width="40" height="40" viewBox="0 0 40 40" fill="none" xmlns="http://www.w3.org/2000/svg">
<path fill-rule="evenodd" clip-rule="evenodd" d="M22.0492 2.9873C22.7395 2.9873 23.2992 3.54695 23.2992 4.2373V5.72331H35.7633L35.8903 5.72982C36.5204 5.79405 37.0133 6.32626 37.0133 6.97331C37.0133 7.62036 36.5204 8.15257 35.8903 8.2168L35.7633 8.22331H23.2992V9.83626H24.7998C25.3388 9.83626 25.8169 10.1824 25.9863 10.694L27.1029 14.0713C27.8216 14.2062 28.5261 14.4166 29.2041 14.6995C30.4758 15.2304 31.6303 16.0082 32.6009 16.9863C33.5713 17.9645 34.3392 19.1254 34.86 20.401C35.3798 21.6743 35.6439 23.0379 35.6364 24.4131V25.6696C35.6387 26.4386 35.4884 27.2015 35.1953 27.9124C34.902 28.6234 34.4713 29.2712 33.9274 29.8151C33.3836 30.3587 32.7372 30.7898 32.0264 31.083C31.4324 31.3279 30.8023 31.47 30.1628 31.5094V34.5124H31.6488C32.0429 34.5124 32.4214 34.3548 32.7002 34.0762C32.979 33.7973 33.1364 33.4191 33.1364 33.0247C33.1364 32.3344 33.696 31.7747 34.3864 31.7747C35.0767 31.7748 35.6364 32.3344 35.6364 33.0247C35.6364 34.0819 35.2168 35.0961 34.4694 35.8438C33.7217 36.5914 32.7061 37.0124 31.6488 37.0124H17.9508C17.2607 37.0124 16.7013 36.4524 16.7008 35.7624C16.7008 35.072 17.2605 34.5124 17.9508 34.5124H20.7992V31.2327C20.6595 31.1872 20.5204 31.1392 20.3841 31.083C19.673 30.7898 19.0254 30.3589 18.4814 29.8151C17.9376 29.2713 17.5068 28.6234 17.2135 27.9124C16.9205 27.2016 16.7702 26.4385 16.7725 25.6696V22.8962L3.77767 17.7367C3.77439 17.7354 3.77117 17.7331 3.7679 17.7318C3.74081 17.7207 3.71588 17.7055 3.68978 17.6927C3.65104 17.6737 3.61362 17.6535 3.57747 17.6309C3.55019 17.6138 3.52354 17.5963 3.49772 17.5771C3.46155 17.5504 3.42805 17.5211 3.39518 17.4909C3.37621 17.4734 3.35608 17.4574 3.33822 17.4388C3.28943 17.388 3.24423 17.3341 3.20475 17.276C3.1956 17.2626 3.18897 17.2476 3.18034 17.2337C3.15112 17.1869 3.12344 17.1393 3.10059 17.0889C3.08862 17.0625 3.0798 17.0348 3.06966 17.0075C3.05304 16.9628 3.03881 16.9174 3.02734 16.8708C3.01921 16.8374 3.00996 16.8042 3.00456 16.7699C3.00327 16.7618 3.00243 16.7536 3.0013 16.7454C2.99364 16.6895 2.98829 16.6326 2.98828 16.5745V11.0863C2.98828 10.3959 3.54793 9.83626 4.23828 9.83626C4.92864 9.83626 5.48828 10.3959 5.48828 11.0863V13.8923H17.0557L18.1266 10.6891L18.2048 10.5068C18.4177 10.0998 18.8414 9.83646 19.3115 9.83626H20.7992V8.22331H8.35124C7.66088 8.22331 7.10124 7.66366 7.10124 6.97331C7.10124 6.28295 7.66088 5.72331 8.35124 5.72331H20.7992V4.2373C20.7992 3.54695 21.3588 2.9873 22.0492 2.9873ZM23.2992 34.5124H27.6628V31.5225H23.2992V34.5124ZM24.6745 22.0482C24.6747 22.4446 24.8311 22.8266 25.1107 23.1077C25.3905 23.3888 25.772 23.5484 26.1686 23.5505H33.0941C33.0173 22.7943 32.8339 22.0513 32.5456 21.3451C32.1493 20.3746 31.565 19.4916 30.8268 18.7474C30.0881 18.0029 29.2084 17.4115 28.2406 17.0075C27.5609 16.7238 26.8465 16.5366 26.1182 16.4492H24.6745V22.0482ZM19.6924 13.8923H24.4108L23.8965 12.3363H20.2132L19.6924 13.8923Z" fill="#FAFAFA"/>
</svg>
