<svg width="40" height="40" viewBox="0 0 40 40" fill="none" xmlns="http://www.w3.org/2000/svg">
<path d="M22.1468 19.4156C22.1468 17.7547 20.7998 16.408 19.139 16.4078C17.478 16.4078 16.1312 17.7546 16.1312 19.4156C16.1313 21.0764 17.4781 22.4234 19.139 22.4234V24.9234L18.8558 24.9153C16.0394 24.7728 13.7805 22.515 13.6377 19.6988L13.6312 19.4156C13.6312 16.3739 16.0973 13.9078 19.139 13.9078L19.4222 13.9143C22.3321 14.0619 24.6468 16.469 24.6468 19.4156L24.6386 19.6988C24.4911 22.6086 22.0854 24.9232 19.139 24.9234V22.4234C20.7997 22.4232 22.1466 21.0763 22.1468 19.4156Z" fill="#FAFAFA"/>
<path d="M34.168 14.1524C34.168 12.4916 32.821 11.1448 31.1602 11.1446C29.4993 11.1446 28.1524 12.4915 28.1524 14.1524C28.1526 15.8132 29.4994 17.1603 31.1602 17.1603V19.6602L30.877 19.6521C28.0607 19.5096 25.8017 17.2519 25.6589 14.4356L25.6524 14.1524C25.6524 11.1108 28.1185 8.64463 31.1602 8.64463L31.4434 8.65114C34.3533 8.7987 36.668 11.2058 36.668 14.1524L36.6599 14.4356C36.5123 17.3454 34.1066 19.6601 31.1602 19.6602V17.1603C32.8209 17.1601 34.1678 15.8131 34.168 14.1524Z" fill="#FAFAFA"/>
<path d="M34.5804 31.1594C34.5804 34.2011 32.1147 36.6668 29.073 36.6668C26.0313 36.6668 23.5655 34.2011 23.5655 31.1594C23.5655 28.1177 26.0313 25.6519 29.073 25.6519C32.1147 25.6519 34.5804 28.1177 34.5804 31.1594Z" fill="#FAFAFA"/>
<path d="M11.8496 31.1116C11.8496 29.4508 10.5026 28.104 8.8418 28.1038C7.18083 28.1038 5.83398 29.4507 5.83398 31.1116C5.83418 32.7725 7.18094 34.1195 8.8418 34.1195V36.6195L8.55859 36.6113C5.74227 36.4688 3.48331 34.2111 3.34049 31.3948L3.33398 31.1116C3.33398 28.07 5.80011 25.6038 8.8418 25.6038L9.125 25.6103C12.0349 25.7579 14.3496 28.1651 14.3496 31.1116L14.3415 31.3948C14.1939 34.3046 11.7882 36.6193 8.8418 36.6195V34.1195C10.5025 34.1193 11.8494 32.7723 11.8496 31.1116Z" fill="#FAFAFA"/>
<path d="M18.9811 8.84095C18.9811 11.8826 16.5154 14.3484 13.4737 14.3484C10.432 14.3484 7.96623 11.8826 7.96623 8.84095C7.96623 5.79927 10.432 3.3335 13.4737 3.3335C16.5154 3.3335 18.9811 5.79927 18.9811 8.84095Z" fill="#FAFAFA"/>
<path d="M18.9036 15.5492L16.6675 16.6672L15.0007 13.3335L17.2367 12.2155L18.9036 15.5492Z" fill="#FAFAFA"/>
<path d="M26.3695 15.1249L27.472 17.3686L24.0238 19.123L22.9213 16.8792L26.3695 15.1249Z" fill="#FAFAFA"/>
<path d="M28.1953 26.6523L26.443 28.4354L20.6384 22.5289L22.3907 20.7459L28.1953 26.6523Z" fill="#FAFAFA"/>
<path d="M10.7241 28.7965L9.03 26.9581L15.4031 20.8774L17.0972 22.7158L10.7241 28.7965Z" fill="#FAFAFA"/>
</svg>
