<svg width="40" height="40" viewBox="0 0 40 40" fill="none" xmlns="http://www.w3.org/2000/svg">
<path d="M5.18518 28.6927C5.53499 28.643 5.89045 28.7346 6.17314 28.9466C7.13992 29.7102 7.99259 30.608 8.70569 31.6126C9.41623 30.6098 10.2657 29.7127 11.2268 28.9466C11.5097 28.7346 11.8649 28.6428 12.2148 28.6927C12.5649 28.7427 12.8815 28.9306 13.0937 29.2135C13.3055 29.4963 13.3959 29.8517 13.346 30.2015C13.296 30.5516 13.1097 30.8682 12.8268 31.0804C11.5275 32.0827 10.5453 33.4391 9.99963 34.9867C9.95442 35.1673 9.87167 35.3363 9.75712 35.4831C9.64229 35.6301 9.49695 35.7518 9.33232 35.8395H9.39905C9.19656 35.9563 8.96713 36.0185 8.73336 36.0186C8.49931 36.0186 8.26873 35.9565 8.06604 35.8395C7.90401 35.7504 7.76179 35.6283 7.64937 35.4814C7.53715 35.3347 7.45708 35.1661 7.41337 34.9867C6.86005 33.4397 5.87392 32.084 4.5732 31.0804C4.2903 30.8682 4.10238 30.5516 4.05237 30.2015C4.00244 29.8516 4.09433 29.4963 4.30627 29.2135C4.51845 28.9306 4.83511 28.7427 5.18518 28.6927Z" fill="#FAFAFA"/>
<path d="M15.8395 28.6927C16.0126 28.6681 16.1893 28.6786 16.3587 28.722C16.5281 28.7655 16.6875 28.8417 16.8274 28.9466C17.7883 29.7125 18.6365 30.61 19.347 31.6126C20.0602 30.6078 20.9141 29.7104 21.8811 28.9466H21.8665C22.1494 28.7344 22.506 28.6427 22.8561 28.6927C23.2061 28.7428 23.5212 28.9307 23.7334 29.2135C23.9455 29.4964 24.0372 29.8515 23.9873 30.2015C23.9373 30.5515 23.7509 30.8682 23.4681 31.0804C22.1671 32.0841 21.1813 33.4395 20.6279 34.9867C20.5842 35.1663 20.5027 35.3346 20.3903 35.4814C20.2778 35.6284 20.1357 35.7504 19.9736 35.8395C19.7807 35.9422 19.5654 35.9958 19.347 35.9958C19.1285 35.9957 18.9132 35.9422 18.7203 35.8395C18.5558 35.7518 18.4119 35.63 18.2972 35.4831C18.1825 35.3363 18.0999 35.1674 18.0546 34.9867C17.5043 33.4417 16.5228 32.0864 15.2275 31.0804C14.9446 30.8682 14.7567 30.5516 14.7067 30.2015C14.6567 29.8516 14.7486 29.4963 14.9606 29.2135C15.1727 28.9306 15.4894 28.7427 15.8395 28.6927Z" fill="#FAFAFA"/>
<path d="M33.4388 33.5739C33.4709 33.8711 33.4427 34.1721 33.3541 34.4577C33.2655 34.7431 33.1191 35.0073 32.9244 35.234C32.7294 35.461 32.4889 35.6454 32.2197 35.776C31.9506 35.9066 31.6575 35.9813 31.3587 35.9941C31.0601 36.0069 30.7621 35.9578 30.483 35.8509C30.2037 35.7438 29.948 35.5802 29.7343 35.3708C29.5208 35.1614 29.3522 34.9104 29.2395 34.6335C29.1268 34.3564 29.0733 34.0585 29.08 33.7594V31.5736L33.4388 33.5739Z" fill="#FAFAFA"/>
<path d="M28.3688 15.0111C28.6875 15.0398 28.9957 15.1433 29.2656 15.3154C29.5353 15.4874 29.7594 15.7223 29.9199 15.999C33.3315 22.4091 33.3326 22.4929 33.4257 22.9456V26.7331L29.1061 24.3063V22.8529L27.7731 20.5596L26.3603 22.2523C26.1298 22.5405 25.8185 22.7542 25.4668 22.8659C25.3334 22.9192 25.1604 22.6666 27.747 24.9199C29.7884 26.9016 32.2421 28.4081 34.9329 29.3324C35.2812 29.4137 35.584 29.6308 35.7727 29.9346C35.9613 30.2383 36.0217 30.6053 35.9404 30.9534C35.859 31.3016 35.6419 31.603 35.3382 31.7917C35.0344 31.9804 34.6676 32.0406 34.3193 31.9593C31.1848 30.9611 28.3266 29.2445 25.9729 26.9463C24.8317 25.84 23.5804 24.8533 22.2392 24.0003L20.6132 24.5863C20.3215 24.693 20.0087 24.7297 19.7002 24.6937C19.3915 24.6576 19.0952 24.5491 18.8359 24.3779C18.5768 24.2069 18.3604 23.9783 18.206 23.709C18.0516 23.4396 17.9638 23.1369 17.9472 22.8268C17.0243 22.7569 16.0955 22.8103 15.1868 22.9863C14.8588 23.0376 14.5231 22.9642 14.2461 22.7812C13.969 22.5983 13.7695 22.3185 13.6878 21.9967C13.6062 21.675 13.6488 21.3342 13.805 21.0413C13.9611 20.7488 14.2202 20.5246 14.5325 20.4131C16.426 20.0025 18.3861 20.0026 20.2796 20.4131L23.7073 19.2656L26.6663 15.7061C26.8737 15.4624 27.1367 15.2721 27.4329 15.151C27.7291 15.03 28.0501 14.9824 28.3688 15.0111Z" fill="#FAFAFA"/>
<path d="M8.08069 17.0244C8.17966 17.0244 8.27739 17.0462 8.36715 17.0879C8.45697 17.1297 8.53769 17.1912 8.60152 17.2669C9.08297 17.8688 11.4672 20.9464 11.4677 22.6657C11.482 23.5793 11.1325 24.4612 10.4977 25.1185C9.86291 25.7757 8.99426 26.1556 8.08069 26.1732C7.16966 26.1522 6.3037 25.7718 5.67183 25.1152C5.03992 24.4583 4.69235 23.5771 4.70666 22.6657C4.70717 20.9456 7.09475 17.867 7.56148 17.2669C7.62531 17.1912 7.70441 17.1297 7.79423 17.0879C7.88399 17.0462 7.98171 17.0244 8.08069 17.0244Z" fill="#FAFAFA"/>
<path d="M28.8131 10.986C28.8131 11.8701 28.4617 12.7177 27.8365 13.3428C27.2114 13.9679 26.3638 14.3193 25.4798 14.3193C24.5958 14.3193 23.7481 13.9678 23.123 13.3428C22.498 12.7177 22.1464 11.8699 22.1464 10.986V10.3203H28.8131V10.986Z" fill="#FAFAFA"/>
<path d="M25.4798 4.00684C26.1853 4.00686 26.8725 4.23096 27.4427 4.64648C28.0129 5.06215 28.4376 5.64786 28.6536 6.31966H32.4801C32.8336 6.31978 33.1725 6.46036 33.4225 6.71029C33.6724 6.96022 33.813 7.29923 33.8131 7.65267C33.8131 8.00629 33.6725 8.34663 33.4225 8.59668C33.1726 8.84641 32.8334 8.98719 32.4801 8.9873H19.0524C18.6991 8.98714 18.3599 8.84643 18.11 8.59668C17.8599 8.34663 17.7194 8.00629 17.7194 7.65267C17.7195 7.29926 17.8601 6.96021 18.11 6.71029C18.3599 6.46039 18.699 6.31983 19.0524 6.31966H22.3059C22.522 5.64788 22.9466 5.06214 23.5169 4.64648C24.0871 4.23101 24.7743 4.00684 25.4798 4.00684Z" fill="#FAFAFA"/>
</svg>
