<svg width="40" height="40" viewBox="0 0 40 40" fill="none" xmlns="http://www.w3.org/2000/svg">
<path fill-rule="evenodd" clip-rule="evenodd" d="M29.1664 19.1668C31.9278 19.1668 34.1664 21.4054 34.1664 24.1668V24.4468C35.1518 24.9149 35.8331 25.92 35.8331 27.0835V31.2502C35.8331 32.861 34.5272 34.1668 32.9164 34.1668H25.4164C23.8056 34.1668 22.4997 32.861 22.4997 31.2502V27.0835C22.4997 25.92 23.181 24.9149 24.1664 24.4468V24.1668C24.1664 21.4054 26.405 19.1669 29.1664 19.1668ZM29.1664 21.6668C27.7857 21.6669 26.6664 22.7861 26.6664 24.1668H31.6664C31.6664 22.7861 30.5471 21.6668 29.1664 21.6668Z" fill="#FAFAFA"/>
<path fill-rule="evenodd" clip-rule="evenodd" d="M33.6732 5.8514C35.3544 6.02184 36.6664 7.44075 36.6664 9.16683V10.3371C37.5674 10.3513 38.297 11.0813 38.3054 11.9875L38.3607 22.951C38.366 23.5424 38.061 24.0622 37.599 24.3621C37.326 23.8942 36.985 23.4707 36.5899 23.1056C36.0743 19.4662 32.9482 16.6668 29.1664 16.6668C25.3848 16.667 22.2585 19.4663 21.7429 23.1056C20.6735 24.0941 19.9997 25.5087 19.9997 27.0835V29.1668H6.66641C4.94069 29.1666 3.52159 27.8544 3.35098 26.1737L3.33308 25.8335V24.6307C2.43257 24.6161 1.70281 23.8876 1.69408 22.9819L1.63874 12.0184C1.63037 11.0981 2.37059 10.3458 3.29076 10.3371C3.30472 10.3369 3.31919 10.3369 3.33308 10.3371V9.16683C3.33308 7.32604 4.82569 5.83376 6.66641 5.8335H33.3331L33.6732 5.8514ZM10.5792 21.1037C9.88901 21.1039 9.32917 21.6635 9.32917 22.3537C9.32961 23.0435 9.88928 23.6034 10.5792 23.6037H18.102C18.7923 23.6037 19.352 23.044 19.352 22.3537C19.352 21.6633 18.7923 21.1037 18.102 21.1037H10.5792ZM10.5792 16.2502C9.88901 16.2504 9.32917 16.8099 9.32917 17.5002C9.32939 18.1902 9.88915 18.7499 10.5792 18.7502H20.8331C21.5234 18.7502 22.0831 18.1905 22.0831 17.5002C22.0831 16.8098 21.5234 16.2502 20.8331 16.2502H10.5792ZM10.5792 11.3966C9.88901 11.3969 9.32917 11.9564 9.32917 12.6466C9.32917 13.3369 9.88901 13.8964 10.5792 13.8966H29.4187C30.109 13.8966 30.6687 13.337 30.6687 12.6466C30.6687 11.9563 30.109 11.3966 29.4187 11.3966H10.5792Z" fill="#FAFAFA"/>
</svg>
