<svg width="40" height="40" viewBox="0 0 40 40" fill="none" xmlns="http://www.w3.org/2000/svg">
<path d="M12.4961 17.6178C13.148 17.3923 13.86 17.7377 14.0863 18.3893C14.3124 19.0415 13.9669 19.7549 13.3148 19.9811C13.1319 20.0445 12.7512 20.2 12.4782 20.3213C11.9346 20.5629 11.4115 20.8529 11.0882 21.1139C11.0617 21.1353 11.0334 21.155 11.0052 21.1742C10.4662 21.5407 9.93857 22.0338 9.4362 22.652C7.44643 25.1007 6.03255 29.3026 5.82617 34.2406H21.0866C21.0371 33.0588 20.9195 31.9142 20.7383 30.8226C20.6404 30.2329 20.5244 29.6577 20.3916 29.1022C20.3243 28.8205 20.2509 28.544 20.1751 28.2721C19.9898 27.6072 20.3794 26.9179 21.0443 26.7324C21.7092 26.5471 22.3985 26.9351 22.584 27.5999C22.6682 27.9023 22.7472 28.2097 22.8216 28.5212C22.9683 29.1349 23.0969 29.7667 23.2041 30.4124C23.4717 32.024 23.6143 33.7301 23.6143 35.4906C23.6142 36.1806 23.0542 36.7402 22.3643 36.7406H4.54688C3.85657 36.7406 3.29695 36.1809 3.29688 35.4906C3.29688 29.6601 4.86115 24.3194 7.49609 21.0765C8.1164 20.3131 8.80623 19.6522 9.56315 19.1315C10.1272 18.6869 10.8542 18.3065 11.4626 18.0361C11.7595 17.9042 12.215 17.7153 12.4961 17.6178Z" fill="#FAFAFA"/>
<path d="M25.0413 7.21891V5.72803C25.0413 5.03767 25.6009 4.47803 26.2913 4.47803C26.9816 4.47803 27.5413 5.03767 27.5413 5.72803V7.21891C27.5413 7.90927 26.9816 8.46891 26.2913 8.46891C25.6009 8.46891 25.0413 7.90927 25.0413 7.21891Z" fill="#FAFAFA"/>
<path d="M31.833 7.46575C32.3211 6.97769 33.1124 6.97763 33.6005 7.46575C34.0886 7.95388 34.0886 8.7452 33.6005 9.23333L32.5459 10.288C32.0577 10.776 31.2664 10.776 30.7783 10.288C30.2902 9.7999 30.2902 9.00861 30.7783 8.52044L31.833 7.46575Z" fill="#FAFAFA"/>
<path d="M35.3378 13.5249C36.0281 13.5249 36.5878 14.0846 36.5878 14.7749C36.5878 15.4653 36.0281 16.0249 35.3378 16.0249H33.8469C33.1565 16.0249 32.5969 15.4653 32.5969 14.7749C32.5969 14.0846 33.1565 13.5249 33.8469 13.5249H35.3378Z" fill="#FAFAFA"/>
<path d="M30.7783 19.0687C31.2664 18.5805 32.0577 18.5805 32.5459 19.0687L33.6005 20.1234C34.0885 20.6116 34.0886 21.4029 33.6005 21.891C33.1124 22.3791 32.3211 22.3789 31.833 21.891L30.7783 20.8363C30.2901 20.3481 30.2901 19.5569 30.7783 19.0687Z" fill="#FAFAFA"/>
<path d="M25.0413 23.6283V22.1375C25.0413 21.4471 25.6009 20.8875 26.2913 20.8875C26.9816 20.8875 27.5413 21.4471 27.5413 22.1375V23.6283C27.5413 24.3187 26.9816 24.8783 26.2913 24.8783C25.6009 24.8783 25.0413 24.3187 25.0413 23.6283Z" fill="#FAFAFA"/>
<path d="M20.2299 19.0687C20.7181 18.5806 21.5093 18.5806 21.9975 19.0687C22.4855 19.5568 22.4855 20.3481 21.9975 20.8363L20.9428 21.891C20.4546 22.379 19.6633 22.379 19.1752 21.891C18.6871 21.4028 18.6871 20.6115 19.1752 20.1234L20.2299 19.0687Z" fill="#FAFAFA"/>
<path d="M18.9283 13.5249C19.6186 13.5249 20.1783 14.0846 20.1783 14.7749C20.1783 15.4653 19.6186 16.0249 18.9283 16.0249H17.4374C16.747 16.0249 16.1874 15.4653 16.1874 14.7749C16.1874 14.0846 16.747 13.5249 17.4374 13.5249H18.9283Z" fill="#FAFAFA"/>
<path d="M19.1752 7.46575C19.6634 6.9776 20.4546 6.9776 20.9428 7.46575L21.9975 8.52044C22.4854 9.00861 22.4856 9.79993 21.9975 10.288C21.5094 10.7761 20.7181 10.776 20.2299 10.288L19.1752 9.23333C18.687 8.74518 18.687 7.95391 19.1752 7.46575Z" fill="#FAFAFA"/>
<path d="M28.2287 14.7756C28.2287 14.2617 28.0241 13.7686 27.6607 13.4052C27.2975 13.042 26.8055 12.8373 26.2919 12.8371C25.7779 12.8371 25.2848 13.0418 24.9214 13.4052C24.558 13.7686 24.3534 14.2617 24.3534 14.7756C24.3536 15.2892 24.5583 15.7812 24.9214 16.1444C25.2848 16.5078 25.7779 16.7125 26.2919 16.7125C26.8056 16.7123 27.2974 16.5077 27.6607 16.1444C28.0239 15.7812 28.2285 15.2893 28.2287 14.7756ZM30.7287 14.7756C30.7285 15.9523 30.262 17.0815 29.4299 17.9136C28.5978 18.7457 27.4686 19.2123 26.2919 19.2125C25.1152 19.2125 23.986 18.7454 23.1538 17.9136C22.3218 17.0815 21.8536 15.9523 21.8534 14.7756C21.8534 13.5986 22.3216 12.4698 23.1538 11.6376C23.9861 10.8053 25.1149 10.3371 26.2919 10.3371C27.4686 10.3373 28.5978 10.8055 29.4299 11.6376C30.2617 12.4698 30.7287 13.599 30.7287 14.7756Z" fill="#FAFAFA"/>
<path fill-rule="evenodd" clip-rule="evenodd" d="M13.4542 23.5378C13.4603 23.5379 13.4666 23.5378 13.4731 23.5377L13.4542 23.5378ZM13.4356 23.5377C13.43 23.5376 13.4128 23.5375 13.407 23.5378C13.4168 23.5373 13.4264 23.5375 13.4356 23.5377ZM13.3682 23.5383C13.3578 23.5384 13.3488 23.5385 13.3411 23.5387C13.3342 23.5388 13.3285 23.5391 13.324 23.5394L13.3411 23.5387L13.3682 23.5383Z" fill="#FAFAFA"/>
<path d="M28.2287 14.7756C28.2287 14.2617 28.0241 13.7686 27.6607 13.4052C27.2975 13.042 26.8055 12.8373 26.2919 12.8371C25.7779 12.8371 25.2848 13.0418 24.9214 13.4052C24.558 13.7686 24.3534 14.2617 24.3534 14.7756C24.3536 15.2892 24.5583 15.7812 24.9214 16.1444C25.2848 16.5078 25.7779 16.7125 26.2919 16.7125C26.8056 16.7123 27.2974 16.5077 27.6607 16.1444C28.0239 15.7812 28.2285 15.2893 28.2287 14.7756Z" fill="#FAFAFA"/>
<path d="M13.4731 23.5377L13.4542 23.5378L13.4356 23.5377C13.43 23.5376 13.4128 23.5375 13.407 23.5378L13.3682 23.5383L13.3411 23.5387L13.324 23.5394C13.1873 23.5504 13.0685 23.5794 13.0115 23.5948C12.8726 23.6323 12.7201 23.6881 12.5785 23.7461C12.3342 23.8463 11.9819 24.0144 11.6801 24.2393C10.8095 24.8314 10.1941 25.8009 9.79858 26.8467C9.39545 27.9129 9.1769 29.1712 9.17683 30.4909C9.17683 31.1813 9.73648 31.7409 10.4268 31.7409H16.4831C17.1735 31.7409 17.7331 31.1813 17.7331 30.4909C17.7331 29.1711 17.5146 27.9129 17.1114 26.8467C16.7158 25.8008 16.099 24.8346 15.2283 24.2426C14.9266 24.018 14.5754 23.8462 14.3315 23.7461C14.1898 23.6881 14.0375 23.6323 13.8985 23.5948C13.8414 23.5794 13.7227 23.5504 13.586 23.5394C13.5762 23.5387 13.5611 23.5385 13.5413 23.5383L13.503 23.5378C13.4927 23.5373 13.4827 23.5375 13.4731 23.5377Z" fill="#FAFAFA"/>
</svg>
