<svg width="40" height="40" viewBox="0 0 40 40" fill="none" xmlns="http://www.w3.org/2000/svg">
<path d="M37.5 15V27.5C37.5 27.8315 37.3683 28.1495 37.1339 28.3839C36.8995 28.6183 36.5815 28.75 36.25 28.75H31.25V33.75C31.25 34.0815 31.1183 34.3995 30.8839 34.6339C30.6495 34.8683 30.3315 35 30 35H10C9.66848 35 9.35054 34.8683 9.11612 34.6339C8.8817 34.3995 8.75 34.0815 8.75 33.75V28.75H3.75C3.41848 28.75 3.10054 28.6183 2.86612 28.3839C2.6317 28.1495 2.5 27.8315 2.5 27.5V15C2.5 12.9328 4.275 11.25 6.45781 11.25H8.75V6.25C8.75 5.91848 8.8817 5.60054 9.11612 5.36612C9.35054 5.1317 9.66848 5 10 5H30C30.3315 5 30.6495 5.1317 30.8839 5.36612C31.1183 5.60054 31.25 5.91848 31.25 6.25V11.25H33.5422C35.725 11.25 37.5 12.9328 37.5 15ZM11.25 11.25H28.75V7.5H11.25V11.25ZM28.75 25H11.25V32.5H28.75V25ZM31.25 18.125C31.25 17.7542 31.14 17.3916 30.934 17.0833C30.728 16.775 30.4351 16.5346 30.0925 16.3927C29.7499 16.2508 29.3729 16.2137 29.0092 16.286C28.6455 16.3584 28.3114 16.537 28.0492 16.7992C27.787 17.0614 27.6084 17.3955 27.536 17.7592C27.4637 18.1229 27.5008 18.4999 27.6427 18.8425C27.7846 19.1851 28.025 19.478 28.3333 19.684C28.6416 19.89 29.0042 20 29.375 20C29.8723 20 30.3492 19.8025 30.7008 19.4508C31.0525 19.0992 31.25 18.6223 31.25 18.125Z" fill="#FAFAFA"/>
</svg>
