<svg width="40" height="40" viewBox="0 0 40 40" fill="none" xmlns="http://www.w3.org/2000/svg">
<path d="M13.2917 18.334C12.75 18.334 12.2604 18.1725 11.8229 17.8494C11.3854 17.5267 11.0833 17.1048 10.9167 16.584L9.875 13.334H7.5C6.8125 13.334 6.22402 13.0892 5.73458 12.5994C5.24486 12.11 5 11.5215 5 10.834V8.33398C5 7.64648 5.24486 7.05788 5.73458 6.56815C6.22402 6.07871 6.8125 5.83398 7.5 5.83398H32.5C33.1875 5.83398 33.7761 6.07871 34.2658 6.56815C34.7552 7.05788 35 7.64648 35 8.33398V10.834C35 11.5215 34.7552 12.11 34.2658 12.5994C33.7761 13.0892 33.1875 13.334 32.5 13.334H30.125L28.875 16.709C28.6825 17.1882 28.3723 17.5787 27.9442 17.8807C27.5164 18.1829 27.035 18.334 26.5 18.334H13.2917ZM12.5417 13.334L13.2917 15.834H26.7083L27.4583 13.334H12.5417Z" fill="#FAFAFA"/>
<path d="M15.4167 33.5423C15.4167 30.6666 16.4185 29.1612 17.2933 27.849C18.0851 26.6612 18.75 25.6666 18.75 23.5423C18.75 22.852 19.3096 22.2923 20 22.2923C20.6904 22.2923 21.25 22.852 21.25 23.5423C21.25 26.418 20.2482 27.9234 19.3734 29.2357C18.5815 30.4234 17.9167 31.418 17.9167 33.5423C17.9167 34.2327 17.357 34.7923 16.6667 34.7923C15.9763 34.7923 15.4167 34.2327 15.4167 33.5423Z" fill="#FAFAFA"/>
<path d="M23.75 33.5423C23.75 30.6666 24.7518 29.1612 25.6266 27.849C26.4185 26.6612 27.0833 25.6666 27.0833 23.5423C27.0833 22.852 27.643 22.2923 28.3333 22.2923C29.0237 22.2923 29.5833 22.852 29.5833 23.5423C29.5833 26.418 28.5815 27.9234 27.7067 29.2357C26.9149 30.4234 26.25 31.418 26.25 33.5423C26.25 34.2327 25.6904 34.7923 25 34.7923C24.3096 34.7923 23.75 34.2327 23.75 33.5423Z" fill="#FAFAFA"/>
<path d="M7.08333 33.5423C7.08333 30.6666 8.08512 29.1612 8.95996 27.849C9.75179 26.6612 10.4167 25.6666 10.4167 23.5423C10.4167 22.852 10.9763 22.2923 11.6667 22.2923C12.357 22.2923 12.9167 22.852 12.9167 23.5423C12.9167 26.418 11.9149 27.9234 11.04 29.2357C10.2482 30.4234 9.58333 31.418 9.58333 33.5423C9.58333 34.2327 9.02369 34.7923 8.33333 34.7923C7.64298 34.7923 7.08333 34.2327 7.08333 33.5423Z" fill="#FAFAFA"/>
</svg>
