<svg width="40" height="40" viewBox="0 0 40 40" fill="none" xmlns="http://www.w3.org/2000/svg">
<path d="M3.5709 9.8401C3.46826 10.1996 3.41419 10.572 3.38258 10.959C3.33298 11.566 3.33299 12.3091 3.33301 13.1993V26.8008C3.33299 27.691 3.33298 28.4342 3.38258 29.0412C3.43431 29.6743 3.54616 30.2688 3.83256 30.8309C4.27198 31.6933 4.97314 32.3944 5.83555 32.8339C6.39766 33.1203 6.99209 33.2321 7.62523 33.2838C8.2322 33.3334 8.97517 33.3334 9.86528 33.3334H30.1338C31.0239 33.3334 31.7671 33.3334 32.3741 33.2838C33.0073 33.2321 33.6017 33.1203 34.1638 32.8339C35.0262 32.3944 35.7274 31.6933 36.1668 30.8309C36.4532 30.2688 36.565 29.6743 36.6168 29.0412C36.6664 28.4342 36.6664 27.6911 36.6663 26.8008V13.1993C36.6664 12.3091 36.6664 11.566 36.6168 10.959C36.5852 10.572 36.5311 10.1996 36.4285 9.8401L22.902 20.9072C21.2137 22.2886 18.7857 22.2886 17.0973 20.9072L3.5709 9.8401Z" fill="#FAFAFA"/>
<path d="M35.0386 7.74706C34.7718 7.52187 34.4785 7.32666 34.1638 7.1663C33.6017 6.8799 33.0073 6.76805 32.3741 6.71632C31.7671 6.66672 31.024 6.66673 30.1338 6.66675H9.86562C8.97538 6.66673 8.23227 6.66672 7.62523 6.71632C6.99209 6.76805 6.39766 6.8799 5.83555 7.1663C5.52084 7.32666 5.22759 7.52187 4.96071 7.74706L18.6804 18.9723C19.4479 19.6002 20.5515 19.6002 21.3189 18.9723L35.0386 7.74706Z" fill="#FAFAFA"/>
</svg>
