<svg width="40" height="40" viewBox="0 0 40 40" fill="none" xmlns="http://www.w3.org/2000/svg">
<path d="M12.5928 26.0127C13.6152 26.0129 14.445 26.8409 14.4453 27.8633C14.4452 28.8858 13.6153 29.7156 12.5928 29.7158C11.5701 29.7158 10.7403 28.886 10.7402 27.8633C10.7405 26.8408 11.5702 26.0127 12.5928 26.0127Z" fill="#FAFAFA"/>
<path d="M20 26.0127C21.0225 26.0128 21.8523 26.8408 21.8525 27.8633C21.8525 28.8859 21.0226 29.7157 20 29.7158C18.9773 29.7158 18.1475 28.886 18.1475 27.8633C18.1477 26.8408 18.9774 26.0127 20 26.0127Z" fill="#FAFAFA"/>
<path d="M12.5928 20C13.6154 20.0002 14.4453 20.8299 14.4453 21.8525C14.445 22.8749 13.6152 23.7049 12.5928 23.7051C11.5702 23.7051 10.7405 22.875 10.7402 21.8525C10.7402 20.8298 11.57 20 12.5928 20Z" fill="#FAFAFA"/>
<path d="M20 20C21.0227 20.0001 21.8525 20.8298 21.8525 21.8525C21.8523 22.875 21.0225 23.705 20 23.7051C18.9774 23.7051 18.1477 22.875 18.1475 21.8525C18.1475 20.8298 18.9773 20 20 20Z" fill="#FAFAFA"/>
<path d="M27.4072 20C28.43 20 29.2598 20.8298 29.2598 21.8525C29.2595 22.875 28.4298 23.7051 27.4072 23.7051C26.3847 23.7051 25.555 22.875 25.5547 21.8525C25.5547 20.8298 26.3845 20 27.4072 20Z" fill="#FAFAFA"/>
<path fill-rule="evenodd" clip-rule="evenodd" d="M27.083 3.33301C27.7734 3.33301 28.333 3.89363 28.333 4.58398V6.66699H30.417C32.9481 6.66717 34.9999 8.71888 35 11.25V30.417C34.9999 32.9481 32.9481 34.9998 30.417 35H9.58301C7.05191 34.9998 5.00009 32.9481 5 30.417V11.25C5.00009 8.71888 7.05191 6.66717 9.58301 6.66699H11.667V4.58398C11.667 3.89363 12.2266 3.33301 12.917 3.33301C13.6072 3.33318 14.167 3.89374 14.167 4.58398V6.66699H25.833V4.58398C25.833 3.89374 26.3928 3.33318 27.083 3.33301ZM7.5 30.417C7.50009 31.5674 8.43262 32.4998 9.58301 32.5H30.417C31.5674 32.4998 32.4999 31.5674 32.5 30.417V17.5H7.5V30.417Z" fill="#FAFAFA"/>
</svg>
