<svg width="40" height="40" viewBox="0 0 40 40" fill="none" xmlns="http://www.w3.org/2000/svg">
<path fill-rule="evenodd" clip-rule="evenodd" d="M28.5141 3.00578C29.1144 2.9481 29.6562 3.32775 29.8276 3.88225L29.8789 4.13127L30.3476 9.0092C30.9871 15.636 32.4028 22.1676 34.5639 28.4648L36.4121 33.8456C36.6356 34.4981 36.2879 35.2082 35.6357 35.4325C30.3797 37.1615 9.57177 37.2188 4.36371 35.4325C3.71178 35.2079 3.36359 34.498 3.58734 33.8456L5.43305 28.4648C7.59435 22.1673 9.00995 15.6364 9.64936 9.0092L10.1205 4.13127C10.1872 3.445 10.799 2.94033 11.4853 3.00578C11.4853 3.00578 26.3188 3.21647 28.5141 3.00578ZM20.0009 27.2538C19.3109 27.2538 18.7515 27.8139 18.7509 28.5038V32.205L18.7753 32.4565C18.8917 33.0263 19.3967 33.455 20.0009 33.455C20.6047 33.4546 21.1102 33.026 21.2265 32.4565L21.2509 32.205V28.5038C21.2504 27.8142 20.6905 27.2543 20.0009 27.2538ZM20.0009 16.1528C19.3106 16.1528 18.7509 16.7124 18.7509 17.4028V21.1039L18.7753 21.3554C18.8922 21.9247 19.3971 22.3539 20.0009 22.3539C20.6045 22.3535 21.1099 21.9245 21.2265 21.3554L21.2509 21.1039V17.4028C21.2509 16.7127 20.6908 16.1533 20.0009 16.1528ZM20.0009 5.04924C19.3106 5.04924 18.7509 5.60889 18.7509 6.29924V10.0004C18.7513 10.6904 19.3108 11.2504 20.0009 11.2504C20.6906 11.2499 21.2505 10.6901 21.2509 10.0004V6.29924C21.2509 5.6092 20.6908 5.04974 20.0009 5.04924Z" fill="#FAFAFA"/>
</svg>
