<svg width="40" height="40" viewBox="0 0 40 40" fill="none" xmlns="http://www.w3.org/2000/svg">
<path d="M18.75 25.8773V35H11.5332C10.643 35 9.89904 35.0008 9.29199 34.9512C8.65911 34.8995 8.06516 34.7865 7.50326 34.5003C6.64085 34.0609 5.93909 33.3592 5.49968 32.4967C5.21349 31.9348 5.10055 31.3409 5.04883 30.708C4.99923 30.101 4.99998 29.3571 5 28.4668V25.8773H18.75Z" fill="#FAFAFA"/>
<path d="M35 28.4668C35 29.357 35.0008 30.101 34.9512 30.708C34.8995 31.3409 34.7865 31.9348 34.5003 32.4967C34.0609 33.3592 33.3592 34.0609 32.4967 34.5003C31.9349 34.7865 31.3409 34.8995 30.708 34.9512C30.101 35.0008 29.357 35 28.4668 35H21.25V25.8773H35V28.4668Z" fill="#FAFAFA"/>
<path d="M35 23.2992H21.25V16.7008H35V23.2992Z" fill="#FAFAFA"/>
<path d="M18.75 16.7008V23.2992H5V16.7008H18.75Z" fill="#FAFAFA"/>
<path d="M28.4668 5C29.3571 4.99998 30.101 4.99923 30.708 5.04883C31.3409 5.10055 31.9348 5.21349 32.4967 5.49968C33.3592 5.93909 34.0609 6.64085 34.5003 7.50326C34.7865 8.06516 34.8995 8.65911 34.9512 9.29199C35.0008 9.89904 35 10.643 35 11.5332V14.1227H21.25V5H28.4668Z" fill="#FAFAFA"/>
<path d="M18.75 14.1227H5V11.5332C4.99998 10.643 4.99923 9.89905 5.04883 9.29199C5.10055 8.65911 5.21349 8.06516 5.49968 7.50326C5.9391 6.64085 6.64085 5.9391 7.50326 5.49968C8.06516 5.21349 8.65911 5.10055 9.29199 5.04883C9.89905 4.99923 10.643 4.99998 11.5332 5H18.75V14.1227Z" fill="#FAFAFA"/>
</svg>
