<svg width="40" height="40" viewBox="0 0 40 40" fill="none" xmlns="http://www.w3.org/2000/svg">
<path d="M9.74935 36.25H6.30859C6.29932 36.2498 6.28799 36.2488 6.27604 36.2484C6.25166 36.2476 6.22125 36.246 6.18652 36.2435C6.11694 36.2385 6.02564 36.2302 5.9196 36.2126C5.71273 36.1781 5.41745 36.1055 5.10742 35.9505C4.79261 35.793 4.43958 35.5371 4.16829 35.1302C3.92637 34.7671 3.78734 34.341 3.75651 33.8704L3.75 33.667V24.3083C3.75018 24.2991 3.75124 24.2875 3.75163 24.2757C3.75245 24.2514 3.75404 24.2207 3.75651 24.1862C3.7615 24.1167 3.7698 24.0251 3.78743 23.9193C3.82193 23.7125 3.89297 23.4169 4.04785 23.1071C4.20534 22.7922 4.46276 22.4393 4.86979 22.168C5.28458 21.8916 5.78136 21.7497 6.33301 21.7497H9.74935V36.25Z" fill="#FAFAFA"/>
<path fill-rule="evenodd" clip-rule="evenodd" d="M20 3.75C22.4533 3.75 24.8066 4.72525 26.5413 6.45996C28.2757 8.19455 29.2496 10.5468 29.2497 12.9997C29.2497 13.3312 29.1179 13.649 28.8835 13.8835C28.6491 14.1178 28.3311 14.2497 27.9997 14.2497H26.25V15.9993C26.25 16.6897 25.6904 17.2493 25 17.2493C24.3096 17.2493 23.75 16.6897 23.75 15.9993V14.2497H21.25V21.7497H27.749V36.25H12.2493V21.7497H18.75V14.2497H12.0003C11.6688 14.2497 11.351 14.1179 11.1165 13.8835C10.8822 13.6491 10.7503 13.3311 10.7503 12.9997C10.7504 10.5465 11.7257 8.1946 13.4603 6.45996C15.1949 4.72533 17.5469 3.75009 20 3.75ZM17.9997 25.7503C17.3095 25.7505 16.7497 26.3101 16.7497 27.0003C16.7499 27.6904 17.3096 28.2501 17.9997 28.2503H22.0003C22.6902 28.25 23.2501 27.6903 23.2503 27.0003C23.2503 26.3102 22.6904 25.7507 22.0003 25.7503H17.9997Z" fill="#FAFAFA"/>
<path d="M33.724 21.7513C33.7483 21.7521 33.7788 21.7537 33.8135 21.7562C33.8831 21.7612 33.9744 21.7694 34.0804 21.7871C34.2872 21.8216 34.5826 21.8926 34.8926 22.0475C35.2075 22.205 35.5603 22.4625 35.8317 22.8695C36.108 23.2842 36.2499 23.7811 36.25 24.3327V33.6898C36.2499 33.699 36.2488 33.7105 36.2484 33.7223C36.2476 33.7467 36.246 33.7786 36.2435 33.8135C36.2385 33.883 36.2302 33.9746 36.2126 34.0804C36.1781 34.2872 36.107 34.5827 35.9521 34.8926C35.7947 35.2075 35.5372 35.5603 35.1302 35.8317C34.7154 36.108 34.2187 36.2499 33.667 36.25H30.249V21.7497H33.6914C33.7007 21.7498 33.712 21.7509 33.724 21.7513Z" fill="#FAFAFA"/>
</svg>
