<svg width="40" height="40" viewBox="0 0 40 40" fill="none" xmlns="http://www.w3.org/2000/svg">
<rect x="5" y="5" width="30" height="30" rx="2" fill="#FAFAFA"/>
<path d="M31.6667 32.5V35H8.33333V32.5H31.6667ZM32.5 31.6667V8.33333C32.5 7.8731 32.1269 7.5 31.6667 7.5H8.33333C7.8731 7.5 7.5 7.8731 7.5 8.33333V31.6667C7.5 32.1269 7.8731 32.5 8.33333 32.5V35L7.99316 34.9821C6.31204 34.8117 5 33.3928 5 31.6667V8.33333C5 6.49238 6.49238 5 8.33333 5H31.6667C33.5076 5 35 6.49238 35 8.33333V31.6667C35 33.5076 33.5076 35 31.6667 35V32.5C32.1269 32.5 32.5 32.1269 32.5 31.6667Z" fill="#FAFAFA"/>
<path d="M20.0008 11.6797C20.6911 11.6797 21.2508 12.2393 21.2508 12.9297V18.7508H27.0718C27.7622 18.7508 28.3218 19.3104 28.3218 20.0008C28.3218 20.6911 27.7622 21.2508 27.0718 21.2508H21.2508V27.0718C21.2508 27.7622 20.6911 28.3218 20.0008 28.3218C19.3104 28.3218 18.7508 27.7622 18.7508 27.0718V21.2508H12.9297C12.2393 21.2508 11.6797 20.6911 11.6797 20.0008C11.6797 19.3104 12.2393 18.7508 12.9297 18.7508H18.7508V12.9297C18.7508 12.2393 19.3104 11.6797 20.0008 11.6797Z" fill="black"/>
</svg>
