<svg width="40" height="40" viewBox="0 0 40 40" fill="none" xmlns="http://www.w3.org/2000/svg">
<path fill-rule="evenodd" clip-rule="evenodd" d="M20.3125 12.1878C22.3777 12.1878 24.0622 13.8727 24.0625 15.9378V29.6878C24.0625 31.54 22.7068 33.0815 20.9375 33.3808V34.0628C20.9375 34.7532 20.3779 35.3128 19.6875 35.3128C18.9971 35.3128 18.4375 34.7532 18.4375 34.0628V33.4378H9.6875V34.0628C9.6875 34.7532 9.12786 35.3128 8.4375 35.3128C7.74714 35.3128 7.1875 34.7532 7.1875 34.0628V33.2181C5.73437 32.7009 4.6875 31.3146 4.6875 29.6878V15.9378C4.68777 13.8727 6.37231 12.1878 8.4375 12.1878H20.3125ZM8.50423 27.8079C7.94563 27.8079 7.4793 28.2039 7.37142 28.7308L7.34863 28.9635L7.37142 29.1963C7.47926 29.7232 7.94559 30.1191 8.50423 30.1191C9.10585 30.1191 9.5929 29.6318 9.5931 29.0303C9.59302 29.008 9.58794 28.9854 9.58659 28.9635C9.58798 28.9416 9.59306 28.919 9.5931 28.8968C9.59283 28.2953 9.1058 27.808 8.50423 27.8079ZM15.1709 27.8079C14.6123 27.8079 14.146 28.2039 14.0381 28.7308L14.0153 28.9635L14.0381 29.1963C14.1459 29.7232 14.6123 30.1191 15.1709 30.1191C15.7725 30.1191 16.2596 29.6318 16.2598 29.0303C16.2597 29.008 16.2546 28.9854 16.2533 28.9635C16.2546 28.9416 16.2597 28.919 16.2598 28.8968C16.2595 28.2953 15.7725 27.808 15.1709 27.8079ZM20.1709 27.8079C19.6125 27.8079 19.146 28.2037 19.0381 28.7308L19.0153 28.9635L19.0381 29.1963C19.1459 29.7234 19.6124 30.1191 20.1709 30.1191C20.7725 30.1191 21.2596 29.6318 21.2598 29.0303C21.2597 29.008 21.2546 28.9854 21.2533 28.9635C21.2546 28.9416 21.2597 28.919 21.2598 28.8968C21.2595 28.2953 20.7725 27.808 20.1709 27.8079ZM11.8376 23.9114C11.2784 23.9114 10.8126 24.3078 10.7048 24.8343L10.682 25.067L10.7048 25.2998C10.8125 25.8266 11.2786 26.2226 11.8376 26.2226C12.4393 26.2226 12.9264 25.7355 12.9264 25.1338C12.9264 25.1115 12.9213 25.089 12.9199 25.067C12.9213 25.045 12.9264 25.0226 12.9264 25.0003C12.9262 24.3988 12.4391 23.9115 11.8376 23.9114ZM18.5042 23.9114C17.9451 23.9114 17.4793 24.3078 17.3714 24.8343L17.3486 25.067L17.3714 25.2998C17.4791 25.8266 17.9452 26.2226 18.5042 26.2226C19.1059 26.2226 19.593 25.7355 19.5931 25.1338C19.593 25.1115 19.5879 25.089 19.5866 25.067C19.588 25.045 19.5931 25.0226 19.5931 25.0003C19.5928 24.3988 19.1058 23.9115 18.5042 23.9114ZM8.91113 20.5993C8.35267 20.5993 7.88635 20.9954 7.77832 21.5221L7.75553 21.7549L7.77832 21.9876C7.88607 22.5147 8.35241 22.9105 8.91113 22.9105C9.51283 22.9104 9.99993 22.4233 10 21.8216C9.99987 21.7994 9.99481 21.7767 9.99349 21.7549C9.99492 21.733 10 21.7103 10 21.6881C9.99951 21.0868 9.51257 20.5993 8.91113 20.5993ZM15.1709 20.5781C14.6123 20.5781 14.146 20.974 14.0381 21.501L14.0153 21.7337L14.0381 21.9664C14.1458 22.4935 14.6122 22.8893 15.1709 22.8893C15.7726 22.8893 16.2597 22.4021 16.2598 21.8004C16.2597 21.7781 16.2546 21.7557 16.2533 21.7337C16.2546 21.7117 16.2598 21.6893 16.2598 21.667C16.2595 21.0655 15.7725 20.5781 15.1709 20.5781ZM20.1709 20.5781C19.6125 20.5781 19.146 20.9739 19.0381 21.501L19.0153 21.7337L19.0381 21.9664C19.1459 22.4937 19.6124 22.8893 20.1709 22.8893C20.7726 22.8893 21.2597 22.4021 21.2598 21.8004C21.2597 21.7781 21.2546 21.7557 21.2533 21.7337C21.2546 21.7117 21.2598 21.6893 21.2598 21.667C21.2595 21.0655 20.7725 20.5781 20.1709 20.5781ZM12.1875 15.9378C11.4973 15.9378 10.9378 16.4977 10.9375 17.1878C10.9375 17.8782 11.4971 18.4378 12.1875 18.4378H16.5625C17.2529 18.4378 17.8125 17.8782 17.8125 17.1878C17.8122 16.4977 17.2527 15.9378 16.5625 15.9378H12.1875Z" fill="#FAFAFA"/>
<path d="M30.0456 12.1015C30.0494 12.1019 30.0532 12.1027 30.057 12.1032C30.5233 12.1427 30.8991 12.3725 31.1442 12.6175C31.4133 12.8866 31.6666 13.3134 31.6667 13.8447C31.6666 14.376 31.4133 14.8028 31.1442 15.0719C30.8988 15.3172 30.5224 15.5454 30.0553 15.5846C30.052 15.585 30.0489 15.5875 30.0456 15.5879L29.917 15.5944L29.7884 15.5879C29.7845 15.5875 29.7809 15.585 29.777 15.5846C29.311 15.5451 28.9348 15.3183 28.6898 15.0735C28.4207 14.8045 28.1674 14.3763 28.1673 13.8447C28.1674 13.3133 28.4208 12.8865 28.6898 12.6175C28.9345 12.3728 29.3099 12.1432 29.7754 12.1032C29.8219 12.0979 29.8691 12.095 29.917 12.095L30.0456 12.1015Z" fill="#FAFAFA"/>
<path d="M26.4079 9.83592C28.3737 7.87026 31.5727 7.81224 33.4635 9.87498C33.9295 10.3837 33.8952 11.1745 33.387 11.6409C32.8783 12.1072 32.086 12.0729 31.6195 11.5644C30.7603 10.6278 29.2094 10.5697 28.1755 11.6035C27.6874 12.0914 26.896 12.0913 26.4079 11.6035C25.9199 11.1154 25.9199 10.324 26.4079 9.83592Z" fill="#FAFAFA"/>
<path d="M8.92741 5.2949C9.28262 4.70347 10.0512 4.51055 10.6429 4.86521C11.2347 5.2203 11.4258 5.9888 11.071 6.58071C10.9808 6.73095 10.9685 6.82456 10.9684 6.8753C10.9684 6.92585 10.9807 7.01929 11.071 7.1699C11.3553 7.64378 11.5314 8.17616 11.5316 8.7503C11.5316 9.3245 11.3552 9.85677 11.071 10.3307C10.7159 10.9224 9.94894 11.115 9.3571 10.7604C8.76546 10.4052 8.57255 9.63673 8.92741 9.0449C9.01772 8.89424 9.03158 8.80086 9.03158 8.7503C9.03146 8.69955 9.01759 8.60601 8.92741 8.45571C8.64326 7.98186 8.46842 7.44936 8.46842 6.8753C8.46856 6.3013 8.6432 5.76869 8.92741 5.2949Z" fill="#FAFAFA"/>
<path d="M13.3024 5.2949C13.6576 4.70347 14.4262 4.51055 15.0179 4.86521C15.6097 5.2203 15.8008 5.9888 15.446 6.58071C15.3558 6.73095 15.3435 6.82456 15.3434 6.8753C15.3434 6.92585 15.3557 7.01929 15.446 7.1699C15.7303 7.64378 15.9064 8.17616 15.9066 8.7503C15.9066 9.3245 15.7302 9.85677 15.446 10.3307C15.0909 10.9224 14.3239 11.115 13.7321 10.7604C13.1405 10.4052 12.9476 9.63673 13.3024 9.0449C13.3927 8.89424 13.4066 8.80086 13.4066 8.7503C13.4065 8.69955 13.3926 8.60601 13.3024 8.45571C13.0183 7.98186 12.8434 7.44936 12.8434 6.8753C12.8436 6.3013 13.0182 5.76869 13.3024 5.2949Z" fill="#FAFAFA"/>
<path d="M17.6774 5.2949C18.0326 4.70347 18.8012 4.51055 19.3929 4.86521C19.9847 5.2203 20.1758 5.9888 19.821 6.58071C19.7308 6.73095 19.7185 6.82456 19.7184 6.8753C19.7184 6.92585 19.7307 7.01929 19.821 7.1699C20.1053 7.64378 20.2814 8.17616 20.2816 8.7503C20.2816 9.3245 20.1052 9.85677 19.821 10.3307C19.4659 10.9224 18.6989 11.115 18.1071 10.7604C17.5155 10.4052 17.3226 9.63673 17.6774 9.0449C17.7677 8.89424 17.7816 8.80086 17.7816 8.7503C17.7815 8.69955 17.7676 8.60601 17.6774 8.45571C17.3933 7.98186 17.2184 7.44936 17.2184 6.8753C17.2186 6.3013 17.3932 5.76869 17.6774 5.2949Z" fill="#FAFAFA"/>
<path d="M23.7207 7.21059C27.0938 3.83801 32.6209 3.86375 36.0938 7.19106C36.592 7.66858 36.6084 8.46018 36.1312 8.95864C35.6535 9.4568 34.8636 9.47357 34.3652 8.99607C31.8383 6.57469 27.865 6.60194 25.4883 8.97817C25.0002 9.46611 24.2088 9.46611 23.7207 8.97817C23.2329 8.49005 23.2328 7.69868 23.7207 7.21059Z" fill="#FAFAFA"/>
</svg>
