<svg width="40" height="40" viewBox="0 0 40 40" fill="none" xmlns="http://www.w3.org/2000/svg">
<path d="M17.5 5H28.4674C29.3576 4.99998 30.1007 4.99997 30.7078 5.04957C31.3409 5.1013 31.9354 5.21315 32.4975 5.49956C33.3599 5.93897 34.061 6.64014 34.5004 7.50255C34.7869 8.06465 34.8987 8.65908 34.9504 9.29222C35 9.89927 35 10.6423 35 11.5326V15H17.5V5Z" fill="#FAFAFA"/>
<path d="M15 5H11.5326C10.6424 4.99998 9.89926 4.99997 9.29222 5.04957C8.65908 5.1013 8.06465 5.21315 7.50255 5.49956C6.64014 5.93898 5.93898 6.64014 5.49956 7.50255C5.21315 8.06465 5.1013 8.65908 5.04957 9.29222C4.99997 9.89926 4.99998 10.6423 5 11.5326V15H15V5Z" fill="#FAFAFA"/>
<path d="M5 17.5V28.4674C4.99998 29.3576 4.99997 30.1007 5.04957 30.7078C5.1013 31.3409 5.21315 31.9354 5.49956 32.4975C5.93897 33.3599 6.64014 34.061 7.50255 34.5004C8.06465 34.7869 8.65908 34.8987 9.29222 34.9504C9.89927 35 10.6423 35 11.5326 35H15V17.5H5Z" fill="#FAFAFA"/>
<path d="M17.5 35H28.4674C29.3577 35 30.1007 35 30.7078 34.9504C31.3409 34.8987 31.9354 34.7869 32.4975 34.5004C33.3599 34.061 34.061 33.3599 34.5004 32.4975C34.7869 31.9354 34.8987 31.3409 34.9504 30.7078C35 30.1007 35 29.3577 35 28.4674V17.5H17.5V35Z" fill="#FAFAFA"/>
</svg>
