<svg width="40" height="40" viewBox="0 0 40 40" fill="none" xmlns="http://www.w3.org/2000/svg">
<path d="M3.33203 30.4168C4.02239 30.4168 4.58203 30.9765 4.58203 31.6668V35.4168H8.33203L8.46061 35.4233C9.09056 35.4877 9.58203 36.0199 9.58203 36.6668C9.58203 37.3138 9.09056 37.846 8.46061 37.9103L8.33203 37.9168H3.33203C2.64168 37.9168 2.08203 37.3572 2.08203 36.6668V31.6668C2.08203 30.9765 2.64168 30.4168 3.33203 30.4168Z" fill="#FAFAFA"/>
<path d="M36.6654 30.4168C37.3557 30.4168 37.9154 30.9765 37.9154 31.6668V36.6668C37.9154 37.3572 37.3557 37.9168 36.6654 37.9168H31.6654C30.975 37.9168 30.4154 37.3572 30.4154 36.6668C30.4154 35.9765 30.975 35.4168 31.6654 35.4168H35.4154V31.6668C35.4154 30.9765 35.975 30.4168 36.6654 30.4168Z" fill="#FAFAFA"/>
<path fill-rule="evenodd" clip-rule="evenodd" d="M19.4339 8.88525C19.7888 8.70567 20.2086 8.70567 20.5635 8.88525C23.5477 10.3956 26.2347 13.1082 27.6989 16.216C28.0355 16.9313 27.8777 17.6848 27.4613 18.2082C27.0753 18.6931 26.4854 18.9718 25.8581 18.9927C27.1101 20.4989 28.1004 21.9935 29.3232 24.1327C30.0881 25.4706 29.1087 26.8451 27.8714 27.0656C26.4278 27.3232 23.7152 27.7546 21.2487 27.8778V30.0002C21.2487 30.6905 20.6891 31.2502 19.9987 31.2502C19.3083 31.2502 18.7487 30.6905 18.7487 30.0002V27.8794C16.2822 27.7562 13.5696 27.3232 12.126 27.0656C10.8888 26.8451 9.90931 25.4707 10.6742 24.1327C11.8968 21.9939 12.886 20.4986 14.1377 18.9927C13.511 18.9714 12.9217 18.6926 12.5361 18.2082C12.1197 17.6849 11.9619 16.9312 12.2985 16.216L12.5882 15.6382C14.1007 12.7738 16.6361 10.3013 19.4339 8.88525Z" fill="#FAFAFA"/>
<path d="M8.46061 2.09001C9.09056 2.15438 9.58203 2.68655 9.58203 3.3335C9.58203 3.98044 9.09056 4.51262 8.46061 4.57699L8.33203 4.5835H4.58203V8.3335C4.58203 9.02385 4.02239 9.5835 3.33203 9.5835C2.64168 9.5835 2.08203 9.02385 2.08203 8.3335V3.3335L2.08854 3.20492C2.15291 2.57497 2.68509 2.0835 3.33203 2.0835H8.33203L8.46061 2.09001Z" fill="#FAFAFA"/>
<path d="M36.7939 2.09001C37.4239 2.15438 37.9154 2.68655 37.9154 3.3335V8.3335C37.9154 9.02385 37.3557 9.5835 36.6654 9.5835C35.975 9.5835 35.4154 9.02385 35.4154 8.3335V4.5835H31.6654C30.975 4.5835 30.4154 4.02385 30.4154 3.3335C30.4154 2.64314 30.975 2.0835 31.6654 2.0835H36.6654L36.7939 2.09001Z" fill="#FAFAFA"/>
</svg>
