<svg width="40" height="40" viewBox="0 0 40 40" fill="none" xmlns="http://www.w3.org/2000/svg">
<circle cx="10.032" cy="10.032" r="10.032" transform="matrix(-1 0 0 1 23.9131 9.96777)" fill="#131313"/>
<path fill-rule="evenodd" clip-rule="evenodd" d="M38.333 19.9997C38.333 13.5564 33.1097 8.33301 26.6663 8.33301H13.333C6.88968 8.33301 1.66634 13.5564 1.66634 19.9997C1.66634 26.443 6.88968 31.6663 13.333 31.6663H26.6663C33.1097 31.6663 38.333 26.443 38.333 19.9997ZM19.3747 19.9997C19.3747 16.663 16.6697 13.958 13.333 13.958C9.99628 13.958 7.29134 16.663 7.29134 19.9997C7.29134 23.3364 9.99628 26.0413 13.333 26.0413C16.6697 26.0413 19.3747 23.3364 19.3747 19.9997Z" fill="#FAFAFA"/>
</svg>
