<svg width="40" height="40" viewBox="0 0 40 40" fill="none" xmlns="http://www.w3.org/2000/svg">
<path fill-rule="evenodd" clip-rule="evenodd" d="M28.7493 3.3335C31.2807 3.3335 33.3327 5.38552 33.3327 7.91683V32.0835C33.3327 34.6148 31.2807 36.6668 28.7493 36.6668H11.2493C8.71804 36.6668 6.66602 34.6148 6.66602 32.0835V7.91683C6.66602 5.38552 8.71804 3.3335 11.2493 3.3335H28.7493ZM11.2493 5.8335C10.0988 5.8335 9.16602 6.76624 9.16602 7.91683V32.0835C9.16602 33.2341 10.0988 34.1668 11.2493 34.1668H28.7493C29.8999 34.1668 30.8327 33.2341 30.8327 32.0835V7.91683C30.8327 6.76624 29.8999 5.8335 28.7493 5.8335H11.2493Z" fill="#FAFAFA"/>
<path fill-rule="evenodd" clip-rule="evenodd" d="M11.2493 5.8335C10.0988 5.8335 9.16602 6.76624 9.16602 7.91683V32.0835C9.16602 33.2341 10.0988 34.1668 11.2493 34.1668H28.7493C29.8999 34.1668 30.8327 33.2341 30.8327 32.0835V7.91683C30.8327 6.76624 29.8999 5.8335 28.7493 5.8335H11.2493ZM21.7637 30.731C21.7636 29.7569 20.9734 28.9666 19.9993 28.9666C19.0862 28.9667 18.3352 29.661 18.2448 30.5503L18.235 30.731L18.2448 30.9116C18.3355 31.8006 19.0864 32.4935 19.9993 32.4937C20.9734 32.4937 21.7634 31.7049 21.7637 30.731ZM23.5931 8.75016C23.5931 8.05981 23.0335 7.50016 22.3431 7.50016H17.6556C16.9652 7.50016 16.4056 8.05981 16.4056 8.75016C16.4056 9.44052 16.9652 10.0002 17.6556 10.0002H22.3431C23.0335 10.0002 23.5931 9.44052 23.5931 8.75016Z" fill="#FAFAFA"/>
</svg>
