<svg width="40" height="40" viewBox="0 0 40 40" fill="none" xmlns="http://www.w3.org/2000/svg">
<path fill-rule="evenodd" clip-rule="evenodd" d="M22.7886 3.33325C23.6014 3.33325 24.3808 3.65677 24.9556 4.23144C25.5303 4.80615 25.8536 5.58564 25.8538 6.39839V7.76608H32.0908C32.0994 7.76627 32.1099 7.76729 32.1207 7.76765C32.1433 7.76838 32.172 7.76851 32.2039 7.77079C32.2678 7.77538 32.3521 7.78452 32.4488 7.80062C32.6381 7.83222 32.9098 7.89847 33.1947 8.04087C33.4847 8.18601 33.8132 8.42225 34.0646 8.7993C34.321 9.18417 34.4509 9.64473 34.4509 10.1497V34.3065C34.4507 34.3151 34.4497 34.3255 34.4493 34.3363C34.4486 34.3591 34.4469 34.3875 34.4446 34.4196C34.44 34.4835 34.4325 34.5676 34.4164 34.6645C34.3848 34.8537 34.3186 35.1253 34.1761 35.4104C34.0311 35.7004 33.7948 36.0288 33.4177 36.2803C33.0329 36.5369 32.5723 36.6665 32.0673 36.6666H7.91049C7.90197 36.6664 7.89147 36.6654 7.88065 36.665C7.85807 36.6643 7.8293 36.6626 7.79743 36.6603C7.73337 36.6557 7.64807 36.6482 7.5509 36.632C7.36177 36.6005 7.09 36.5341 6.80503 36.3918C6.51525 36.2468 6.18808 36.0099 5.93668 35.6334C5.6801 35.2485 5.54894 34.788 5.54883 34.2829V10.1262C5.54897 10.1176 5.55158 10.1072 5.55197 10.0963C5.55272 10.0737 5.55286 10.045 5.55511 10.0131C5.55969 9.94897 5.56874 9.8639 5.58494 9.76658C5.61652 9.57729 5.68262 9.30591 5.82519 9.02071C5.9703 8.7307 6.20654 8.40381 6.58362 8.15236C6.9686 7.89578 7.42881 7.76608 7.93404 7.76608H14.146V6.39839C14.1461 5.58564 14.4694 4.80614 15.0441 4.23144C15.6189 3.65677 16.3983 3.33325 17.2111 3.33325H22.7886ZM7.96231 34.2531L7.96388 34.2547H32.039V10.178H7.96231V34.2531ZM17.2111 5.74516C17.038 5.74516 16.8719 5.81438 16.7494 5.93673C16.6271 6.05912 16.558 6.22532 16.5579 6.39839V7.76608H23.4419V6.39839C23.4417 6.22532 23.3727 6.05912 23.2503 5.93673C23.1278 5.81438 22.9618 5.74516 22.7886 5.74516H17.2111Z" fill="#FAFAFA"/>
<path fill-rule="evenodd" clip-rule="evenodd" d="M7.96231 34.2531L7.96388 34.2547H32.039V10.178H7.96231V34.2531ZM17.0965 12.6386C16.1715 12.3316 15.1839 12.2553 14.2229 12.4172C13.2621 12.5792 12.3549 12.9736 11.5817 13.5666C10.8146 14.1551 10.2019 14.922 9.79636 15.7995C9.23413 16.9672 9.0405 18.2797 9.24049 19.5602C9.43991 20.8351 10.0214 22.0213 10.9065 22.9598L19.1158 31.8506C19.344 32.0977 19.6651 32.2383 20.0014 32.2385C20.3379 32.2384 20.6588 32.0978 20.8871 31.8506L29.0791 22.9708C29.9718 22.0305 30.5574 20.8397 30.7577 19.5587C30.9577 18.278 30.7616 16.9656 30.1987 15.7979C29.793 14.9219 29.1812 14.1557 28.4149 13.5682C27.642 12.9758 26.7355 12.5805 25.7753 12.4187C24.8147 12.2571 23.8277 12.3333 22.9033 12.6401C21.9799 12.9467 21.1453 13.4747 20.4725 14.1774L19.9999 14.6658L19.5272 14.1758C18.8545 13.4732 18.0197 12.9452 17.0965 12.6386Z" fill="#FAFAFA"/>
<path fill-rule="evenodd" clip-rule="evenodd" d="M16.3365 14.9264C15.7853 14.7436 15.196 14.6981 14.6233 14.7945C14.0509 14.8911 13.5106 15.1274 13.0499 15.4807C12.647 15.7899 12.3163 16.182 12.0779 16.6286L11.9696 16.8453C11.6195 17.5722 11.4982 18.3893 11.6226 19.1865C11.7316 19.8844 12.0254 20.5399 12.4689 21.085L12.6684 21.3111L12.6793 21.3236L19.9999 29.2534L27.3172 21.3221L27.3298 21.3095C27.8853 20.7243 28.2494 19.9838 28.374 19.1865C28.4985 18.3894 28.3774 17.572 28.027 16.8453L28.0176 16.8249C27.776 16.2974 27.4086 15.8354 26.9482 15.4823C26.4878 15.1294 25.9469 14.8941 25.3748 14.7977C24.8025 14.7014 24.2141 14.7467 23.6633 14.9296C23.1127 15.1124 22.6149 15.4274 22.2139 15.8466L22.2108 15.8497L20.8698 17.241C20.6425 17.477 20.329 17.6115 20.0014 17.6116C19.6742 17.6114 19.3603 17.4781 19.1331 17.2426L17.7905 15.8497L17.7874 15.845C17.3861 15.4254 16.8875 15.1094 16.3365 14.9264ZM20.9844 18.6699C20.4023 18.3468 19.6685 18.5559 19.3451 19.1378L17.7481 22.013C17.5409 22.3863 17.5458 22.8414 17.7623 23.2095C17.9789 23.5777 18.3746 23.8045 18.8018 23.8046H19.1472L18.5458 24.8865C18.2227 25.4687 18.4334 26.2041 19.0153 26.5275C19.5974 26.8505 20.3313 26.6398 20.6547 26.058L22.2516 23.1828C22.4586 22.8094 22.4525 22.3543 22.2359 21.9863C22.0192 21.6183 21.6235 21.3927 21.1964 21.3927H20.8509L21.4524 20.3093C21.7758 19.7271 21.5665 18.9934 20.9844 18.6699Z" fill="#FAFAFA"/>
</svg>
