<svg width="40" height="40" viewBox="0 0 40 40" fill="none" xmlns="http://www.w3.org/2000/svg">
<path fill-rule="evenodd" clip-rule="evenodd" d="M22.1873 19.7078C24.0055 19.821 25.7837 20.3173 27.4022 21.1661C29.2517 22.136 30.8388 23.5392 32.0294 25.2546C32.3262 25.6827 32.3275 26.2522 32.0311 26.6804C30.8407 28.3964 29.2517 29.8004 27.4022 30.7706C25.5522 31.7407 23.4934 32.2499 21.4044 32.2533C18.3024 32.2533 16.1433 31.4451 13.8963 29.724C13.1615 29.1611 12.4076 28.4879 11.5965 27.714C10.5644 28.7674 9.3923 29.9849 7.98811 31.3891C7.63195 31.7448 7.09656 31.8532 6.63068 31.6625C6.16497 31.4715 5.85855 31.0183 5.85432 30.5151L5.78921 21.3728C5.78595 20.8661 6.09004 20.4065 6.55744 20.2107C7.02475 20.0157 7.56462 20.1215 7.923 20.4793C9.35315 21.9091 10.5478 23.1388 11.5916 24.1951C12.3309 23.4872 13.0315 22.8588 13.7205 22.3233C15.969 20.5764 18.2032 19.6818 21.4028 19.6817H21.4061L22.1873 19.7078ZM23.4992 23.1502C22.5332 23.1503 21.7501 23.934 21.7495 24.8998C21.7495 25.8662 22.5328 26.6493 23.4992 26.6495C24.4656 26.6494 25.2488 25.8663 25.2488 24.8998C25.2483 23.9339 24.4652 23.1502 23.4992 23.1502Z" fill="#FAFAFA"/>
<path d="M32.6789 19.1593C33.5608 19.249 34.249 19.9937 34.2495 20.8992C34.2495 21.8656 33.4662 22.6488 32.4998 22.6489C31.5335 22.6487 30.7502 21.8656 30.7502 20.8992C30.7507 19.9333 31.5338 19.1497 32.4998 19.1495L32.6789 19.1593Z" fill="#FAFAFA"/>
<path d="M30.6834 13.1599C31.5655 13.2497 32.2539 13.994 32.2541 14.8998C32.254 15.8662 31.4708 16.6494 30.5044 16.6495C29.5377 16.6493 28.7547 15.866 28.7547 14.8998C28.7549 13.9338 29.5378 13.1503 30.5044 13.1502L30.6834 13.1599Z" fill="#FAFAFA"/>
<path d="M28.9565 7.14918C29.2944 7.13758 29.6228 7.26466 29.8664 7.49911C30.5205 8.12909 31.3079 8.6052 32.1694 8.89234C33.0306 9.17932 33.9459 9.27078 34.8468 9.15927C35.5311 9.07506 36.1546 9.56079 36.2401 10.2449C36.3248 10.9299 35.8377 11.5547 35.1528 11.6397C34.0413 11.7772 32.9151 11.6957 31.8374 11.4021L31.3784 11.2638C30.5412 10.9847 29.7562 10.5768 29.0461 10.061C28.5639 10.4438 28.0344 10.7682 27.4689 11.0196C26.5344 11.4348 25.5227 11.6494 24.5002 11.6495C23.4771 11.6495 22.4647 11.4351 21.5298 11.0196C20.9819 10.7762 20.4697 10.4639 19.9998 10.0968C19.5301 10.4637 19.0175 10.7762 18.4699 11.0196C17.5351 11.4351 16.5225 11.6495 15.4995 11.6495C14.4768 11.6495 13.4653 11.4348 12.5308 11.0196C11.9647 10.768 11.4345 10.4443 10.952 10.061C10.2423 10.5763 9.45771 10.9849 8.62124 11.2638C7.4069 11.6685 6.1172 11.7968 4.84683 11.6397C4.1617 11.5549 3.6748 10.93 3.75959 10.2449C3.84509 9.56069 4.46837 9.07481 5.15282 9.15927C6.05371 9.27073 6.96901 9.17932 7.83023 8.89234C8.69149 8.60518 9.47939 8.12893 10.1333 7.49911L10.2277 7.41611C10.4584 7.23508 10.7474 7.13894 11.0431 7.14918C11.3809 7.16106 11.7002 7.31031 11.9269 7.56096C12.378 8.06065 12.9296 8.46101 13.5447 8.73447C14.16 9.00788 14.8263 9.14946 15.4995 9.14951C16.1727 9.14946 16.8391 9.00785 17.4543 8.73447C18.0694 8.461 18.621 8.06057 19.0721 7.56096L19.1649 7.46819C19.393 7.26384 19.6905 7.14918 19.9998 7.14918C20.3531 7.14928 20.6907 7.29887 20.9276 7.56096C21.3787 8.06072 21.93 8.461 22.5454 8.73447C23.1606 9.00788 23.8268 9.14951 24.5002 9.14951C25.1733 9.14941 25.8399 9.00782 26.4549 8.73447C27.0699 8.46101 27.6218 8.06046 28.0727 7.56096L28.1606 7.47145C28.3782 7.27484 28.6608 7.15951 28.9565 7.14918Z" fill="#FAFAFA"/>
</svg>
