<svg width="40" height="40" viewBox="0 0 40 40" fill="none" xmlns="http://www.w3.org/2000/svg">
<path fill-rule="evenodd" clip-rule="evenodd" d="M18.8214 3.63263C19.4723 2.98187 20.5274 2.98179 21.1782 3.63263L27.9621 10.4165L30.1089 8.26967C30.0942 8.21462 30.0806 8.1594 30.0698 8.10365C29.917 7.31556 30.1463 6.46792 30.7567 5.85756C31.1839 5.43044 31.7271 5.1898 32.285 5.13653C32.4441 5.12134 32.6044 5.12132 32.7635 5.13653C33.3213 5.18988 33.8646 5.43042 34.2918 5.85756C35.268 6.83378 35.2679 8.41638 34.2918 9.39272C33.8646 9.8199 33.3213 10.0604 32.7635 10.1137C32.6044 10.129 32.4441 10.1289 32.285 10.1137C32.2054 10.1061 32.1261 10.0948 32.0474 10.0796C31.9898 10.0684 31.9333 10.0525 31.8765 10.0372L29.7296 12.1841L36.367 18.8214C37.0175 19.4723 37.0177 20.5274 36.367 21.1782L29.6564 27.8888L31.7283 29.9608C32.5621 29.7385 33.4881 29.9529 34.1421 30.6069C35.1178 31.5833 35.1182 33.1659 34.1421 34.1421C33.166 35.1182 31.5833 35.1178 30.6069 34.1421C29.953 33.4882 29.7371 32.562 29.9591 31.7283L27.8872 29.6564L21.1782 36.367C20.5274 37.0177 19.4723 37.0175 18.8214 36.367L12.1841 29.7296L10.187 31.7267C10.4102 32.5609 10.1984 33.4875 9.5441 34.1421C8.56779 35.1184 6.98362 35.1184 6.00731 34.1421C5.03135 33.1659 5.03151 31.5832 6.00731 30.6069C6.66079 29.9534 7.58623 29.7378 8.41942 29.9591L10.4165 27.9621L3.63264 21.1782C2.9818 20.5274 2.98186 19.4723 3.63264 18.8214L10.3433 12.1108L8.26968 10.0372C8.21386 10.0521 8.15859 10.0686 8.10204 10.0796C7.31436 10.2318 6.46756 10.0027 5.85757 9.39272C4.88142 8.41642 4.88137 6.83383 5.85757 5.85756C6.83384 4.8813 8.41641 4.88139 9.39273 5.85756C10.0028 6.46759 10.2319 7.3143 10.0796 8.10203C10.0686 8.15857 10.0521 8.21384 10.0373 8.26967L12.1108 10.3432L18.8214 3.63263ZM19.9998 11.1343C18.0024 11.1343 16.1582 11.7938 14.6759 12.9083L16.0089 14.2414C16.4971 14.7295 16.4971 15.5208 16.0089 16.0089C15.5208 16.4969 14.7295 16.497 14.2414 16.0089L12.9084 14.6759C11.7937 16.1583 11.1343 18.0023 11.1343 19.9998C11.1343 22.0351 11.8218 23.9087 12.9751 25.4051L14.3911 23.9907C14.8793 23.5025 15.6705 23.5025 16.1587 23.9907C16.6468 24.4789 16.6468 25.2701 16.1587 25.7583L14.7622 27.1515C16.2298 28.228 18.0403 28.8653 19.9998 28.8654C21.9967 28.8653 23.8384 28.2037 25.3205 27.0897L23.9891 25.7583C23.5009 25.2701 23.5009 24.4772 23.9891 23.9891C24.477 23.5012 25.2685 23.5017 25.7567 23.9891L27.0897 25.3221C28.2041 23.8398 28.8653 21.9971 28.8654 19.9998C28.8654 18.0401 28.228 16.2298 27.1515 14.7622L25.908 16.0089C25.4199 16.4971 24.627 16.4971 24.1388 16.0089C23.6514 15.5207 23.651 14.7293 24.1388 14.2414L25.4051 12.9734C23.9089 11.8206 22.0348 11.1343 19.9998 11.1343Z" fill="#FAFAFA"/>
</svg>
