<svg width="40" height="40" viewBox="0 0 40 40" fill="none" xmlns="http://www.w3.org/2000/svg">
<path d="M34.1663 20.0002C34.1663 16.2429 32.6743 12.639 30.0176 9.98226C27.3608 7.32549 23.7569 5.8335 19.9997 5.8335C16.2424 5.8335 12.6385 7.32549 9.98177 9.98226C7.32501 12.639 5.83301 16.2429 5.83301 20.0002C5.83301 23.7574 7.32501 27.3613 9.98177 30.0181C12.6385 32.6748 16.2424 34.1668 19.9997 34.1668V36.6668L19.1729 36.6457C15.3282 36.4548 11.6666 34.939 8.81315 32.3553L8.21419 31.7856C5.28403 28.8555 3.55862 24.9462 3.35417 20.827L3.33301 20.0002C3.33301 15.5799 5.08859 11.3403 8.21419 8.21468C11.3398 5.08907 15.5794 3.3335 19.9997 3.3335L20.8265 3.35465C24.9457 3.55911 28.855 5.28452 31.7852 8.21468C34.9108 11.3403 36.6663 15.5799 36.6663 20.0002L36.6452 20.827C36.4407 24.9462 34.7153 28.8555 31.7852 31.7856L31.1862 32.3553C28.1288 35.1237 24.1437 36.6668 19.9997 36.6668V34.1668C23.7569 34.1668 27.3608 32.6748 30.0176 30.0181C32.6743 27.3613 34.1663 23.7574 34.1663 20.0002Z" fill="#FAFAFA"/>
<path d="M19.9997 27.5921C19.9997 28.5126 20.7518 29.274 21.6574 29.1092C23.4971 28.7744 25.2064 27.8874 26.547 26.5468C28.2834 24.8104 29.2589 22.4552 29.2589 19.9995C29.2589 17.5438 28.2834 15.1887 26.547 13.4522C25.2064 12.1117 23.4971 11.2246 21.6574 10.8898C20.7518 10.725 19.9997 11.4865 19.9997 12.4069V27.5921Z" fill="#FAFAFA"/>
</svg>
