<svg width="40" height="40" viewBox="0 0 40 40" fill="none" xmlns="http://www.w3.org/2000/svg">
<path d="M11.666 32.0832C12.3564 32.0832 12.916 32.6429 12.916 33.3332V34.9999C12.9159 35.6901 12.3563 36.2499 11.666 36.2499C10.9757 36.2499 10.4161 35.6901 10.416 34.9999V33.3332C10.416 32.6429 10.9757 32.0832 11.666 32.0832Z" fill="#FAFAFA"/>
<path d="M16.666 32.0832C17.3564 32.0832 17.916 32.6429 17.916 33.3332V34.9999C17.9159 35.6901 17.3563 36.2499 16.666 36.2499C15.9757 36.2499 15.4161 35.6901 15.416 34.9999V33.3332C15.416 32.6429 15.9757 32.0832 16.666 32.0832Z" fill="#FAFAFA"/>
<path d="M21.666 32.0832C22.3564 32.0832 22.916 32.6429 22.916 33.3332V34.9999C22.9159 35.6901 22.3563 36.2499 21.666 36.2499C20.9757 36.2499 20.4161 35.6901 20.416 34.9999V33.3332C20.416 32.6429 20.9757 32.0832 21.666 32.0832Z" fill="#FAFAFA"/>
<path d="M26.666 32.0832C27.3564 32.0832 27.916 32.6429 27.916 33.3332V34.9999C27.9159 35.6901 27.3563 36.2499 26.666 36.2499C25.9757 36.2499 25.4161 35.6901 25.416 34.9999V33.3332C25.416 32.6429 25.9757 32.0832 26.666 32.0832Z" fill="#FAFAFA"/>
<path d="M9.08301 18.7499C9.08316 21.0509 10.9486 22.9165 13.2497 22.9165C15.5508 22.9165 17.4162 21.0509 17.4163 18.7499V13.7499H20.7497V18.7499C20.7498 21.0509 22.6152 22.9165 24.9163 22.9165C27.2174 22.9165 29.0829 21.0509 29.083 18.7499V13.7499H30.8327C33.364 13.7499 35.416 15.8019 35.416 18.3332V25.1659C35.4159 27.6971 33.3639 29.7492 30.8327 29.7492H7.49935C4.96814 29.7492 2.91617 27.6971 2.91602 25.1659V18.3332C2.91605 15.8019 4.96807 13.7499 7.49935 13.7499H9.08301V18.7499Z" fill="#FAFAFA"/>
<path d="M14.9163 18.7499C14.9162 19.6702 14.1701 20.4165 13.2497 20.4165C12.3293 20.4165 11.5832 19.6702 11.583 18.7499V13.7499H14.9163V18.7499Z" fill="#FAFAFA"/>
<path d="M26.583 18.7499C26.5829 19.6702 25.8367 20.4165 24.9163 20.4165C23.996 20.4165 23.2498 19.6702 23.2497 18.7499V13.7499H26.583V18.7499Z" fill="#FAFAFA"/>
<path d="M10.333 7.08321C11.0233 7.08321 11.583 7.64288 11.583 8.33321V13.7499H9.08301V8.33321C9.08304 7.64288 9.64267 7.08321 10.333 7.08321Z" fill="#FAFAFA"/>
<path d="M19.083 7.08321C21.3842 7.08321 23.2496 8.94872 23.2497 11.2499V13.7499H20.7497V11.2499C20.7496 10.3294 20.0035 9.58321 19.083 9.58321C18.1626 9.58321 17.4164 10.3294 17.4163 11.2499V13.7499H14.9163V11.2499C14.9164 8.94872 16.7818 7.08321 19.083 7.08321Z" fill="#FAFAFA"/>
<path d="M31.6156 4.11608C32.1037 3.62797 32.895 3.62797 33.3831 4.11608L36.7165 7.44942C37.2045 7.93757 37.2045 8.72888 36.7165 9.21699L33.3831 12.5503C32.895 13.0383 32.1037 13.0383 31.6156 12.5503C31.1275 12.0622 31.1276 11.2709 31.6156 10.7828L32.8151 9.58321H31.1663C30.0158 9.58321 29.083 10.516 29.083 11.6665V13.7499H26.583V11.6665C26.583 9.13526 28.6351 7.08321 31.1663 7.08321H32.8151L31.6156 5.88366C31.1275 5.39555 31.1276 4.60424 31.6156 4.11608Z" fill="#FAFAFA"/>
</svg>
