<svg width="40" height="40" viewBox="0 0 40 40" fill="none" xmlns="http://www.w3.org/2000/svg">
<path fill-rule="evenodd" clip-rule="evenodd" d="M25.0007 6.12598C25.691 6.12598 26.2507 6.68562 26.2507 7.37598C26.2502 8.06596 25.6907 8.62598 25.0007 8.62598H21.2507V13.3395H28.3356C32.9371 13.3395 36.6673 17.0697 36.6673 21.6712C36.6673 25.7213 33.7771 29.0943 29.9469 29.8451V32.6234C29.9469 33.3135 29.3869 33.8729 28.6969 33.8734C28.0066 33.8734 27.4469 33.3137 27.4469 32.6234V30.0029H12.5544V32.6234C12.5544 33.3137 11.9947 33.8734 11.3044 33.8734C10.614 33.8734 10.0544 33.3137 10.0544 32.6234V29.8451C6.2242 29.0943 3.33398 25.7213 3.33398 21.6712C3.33398 17.0697 7.06422 13.3395 11.6657 13.3395H18.7507V8.62598H15.0007C14.3106 8.62598 13.7511 8.06596 13.7507 7.37598C13.7507 6.68562 14.3103 6.12598 15.0007 6.12598H25.0007ZM24.1641 18.7562C23.4739 18.7564 22.9141 19.316 22.9141 20.0062C22.9144 20.6961 23.4741 21.256 24.1641 21.2562H24.4212C23.7815 21.7685 23.0999 22.0985 22.5267 22.0863C22.5087 22.0859 22.4893 22.0859 22.4714 22.0863C21.5963 22.1049 20.6792 21.6596 20.196 20.96C19.2124 19.5368 17.5019 18.7396 15.8617 18.7578L15.8633 18.7562C15.8542 18.756 15.8447 18.758 15.8356 18.7578C15.8271 18.7579 15.8181 18.7576 15.8096 18.7578C14.2736 18.7415 12.6761 19.4396 11.6722 20.6979L11.4769 20.96C11.0847 21.5277 11.2269 22.3074 11.7943 22.6999C12.3266 23.0676 13.0451 22.9653 13.4561 22.4834L13.5342 22.3809C14.0177 21.6814 14.9345 21.2357 15.8096 21.2546C15.8274 21.2549 15.8455 21.2549 15.8633 21.2546C16.7382 21.2356 17.655 21.6816 18.1387 22.3809C19.1216 23.8037 20.8317 24.6035 22.4714 24.5863C22.477 24.5864 22.4836 24.5846 22.4893 24.5846C22.5014 24.5845 22.5145 24.5865 22.5267 24.5863L22.5251 24.5846C24.0195 24.5973 25.3379 23.7736 26.2458 22.9863V23.3379C26.2464 24.0276 26.806 24.5877 27.4958 24.5879C28.1855 24.5876 28.7451 24.0275 28.7458 23.3379V20.0062C28.7458 19.876 28.7209 19.7515 28.6839 19.6335C28.6726 19.5971 28.6644 19.5598 28.6497 19.5244C28.6376 19.4954 28.62 19.4693 28.6058 19.4414C28.5476 19.3268 28.4753 19.2165 28.3796 19.1208C28.2833 19.0246 28.1725 18.9527 28.0573 18.8945C28.029 18.8802 28.0022 18.8628 27.9727 18.8506C27.9223 18.8298 27.8702 18.8156 27.818 18.8018C27.793 18.7951 27.7688 18.7841 27.7432 18.779C27.7308 18.7765 27.7181 18.7762 27.7057 18.7741C27.6375 18.7625 27.5672 18.7546 27.4958 18.7546L24.1641 18.7562Z" fill="#FAFAFA"/>
</svg>
