<svg width="40" height="40" viewBox="0 0 40 40" fill="none" xmlns="http://www.w3.org/2000/svg">
<path fill-rule="evenodd" clip-rule="evenodd" d="M24.9995 3.75C25.6895 3.75044 26.2495 4.30992 26.2495 5C26.2495 5.69008 25.6895 6.24956 24.9995 6.25H21.2495V10H26.6646L27.1797 10.0122C32.4635 10.2799 36.6646 14.6496 36.6646 20V21.6675C36.6642 26.0515 33.8426 29.7735 29.9165 31.123V34.2505C29.9161 34.9402 29.3562 35.5 28.6665 35.5005C27.9764 35.5005 27.4169 34.9405 27.4165 34.2505V31.6333C27.338 31.6391 27.2587 31.6488 27.1797 31.6528L26.6646 31.6675H13.332C13.0624 31.6675 12.7955 31.6518 12.5312 31.6309V34.2505C12.5308 34.9405 11.9713 35.5005 11.2812 35.5005C10.5912 35.5005 10.0317 34.9405 10.0312 34.2505V31.106C6.28491 29.796 3.55404 26.3214 3.34424 22.1802L3.33203 21.6675V20C3.33203 14.4772 7.80918 10 13.332 10H18.7495V6.25H14.9995C14.3092 6.25 13.7495 5.69036 13.7495 5C13.7495 4.30964 14.3092 3.75 14.9995 3.75H24.9995ZM20.2266 15.5835C19.7465 15.5835 19.3576 15.9726 19.3574 16.4526V16.8604L18.9839 16.4893C18.6445 16.1509 18.0952 16.1509 17.7559 16.4893C17.4164 16.8288 17.4163 17.3802 17.7559 17.7197L19.3574 19.3213V19.9414H18.7251L17.1284 18.3447C16.7891 18.0062 16.2398 18.0062 15.9004 18.3447C15.5615 18.6842 15.5614 19.2358 15.9004 19.5752L16.269 19.9438H15.8687C15.3888 19.9445 14.9995 20.3357 14.9995 20.8154C15.0006 21.2953 15.3912 21.6852 15.8711 21.6846L16.2715 21.6821L15.9004 22.0557C15.5613 22.395 15.5616 22.9442 15.9004 23.2837C16.2399 23.6226 16.789 23.6228 17.1284 23.2837L18.7324 21.6797H19.3574V22.3096L17.7559 23.9087C17.4164 24.2482 17.4165 24.7996 17.7559 25.1392C18.0953 25.4779 18.6445 25.478 18.9839 25.1392L19.3574 24.7656V25.1758C19.3576 25.6558 19.7465 26.0449 20.2266 26.0449C20.7059 26.0441 21.0955 25.6553 21.0957 25.1758V24.7681L21.4668 25.1392L21.5303 25.2002C21.8717 25.4784 22.3766 25.4573 22.6948 25.1392C23.0126 24.821 23.0337 24.316 22.7559 23.9746L22.6948 23.9087L21.0957 22.3096V21.6772L21.7109 21.6748L23.3198 23.2837L23.3857 23.3447C23.727 23.6226 24.2296 23.6012 24.5479 23.2837C24.866 22.9653 24.8875 22.4606 24.6089 22.1191L24.5479 22.0557L24.167 21.6724H24.5918C25.072 21.6717 25.4616 21.281 25.4609 20.8008C25.4596 20.3215 25.0712 19.9315 24.5918 19.9316H24.189L24.5479 19.5752C24.8872 19.2357 24.8872 18.6842 24.5479 18.3447C24.2084 18.0064 23.6591 18.0061 23.3198 18.3447L21.7256 19.9365H21.0957V19.3188L22.6948 17.7197C23.0338 17.3802 23.0339 16.8287 22.6948 16.4893C22.3557 16.1507 21.8063 16.1513 21.4668 16.4893L21.0957 16.8604V16.4526C21.0955 15.9731 20.7059 15.5844 20.2266 15.5835Z" fill="#FAFAFA"/>
</svg>
