<svg width="40" height="40" viewBox="0 0 40 40" fill="none" xmlns="http://www.w3.org/2000/svg">
<path fill-rule="evenodd" clip-rule="evenodd" d="M31.9245 3.33952C34.5664 3.47336 36.6673 5.65783 36.6673 8.33301V31.6663L36.6608 31.9235C36.5313 34.4802 34.4812 36.5303 31.9245 36.6598L31.6673 36.6663H8.33398L8.07682 36.6598C5.52008 36.5303 3.47003 34.4802 3.34049 31.9235L3.33398 31.6663V8.33301C3.33398 5.65783 5.43491 3.47337 8.07682 3.33952L8.33398 3.33301H31.6673L31.9245 3.33952ZM13.3014 31.5264C15.2703 32.6731 17.5579 33.333 20.0007 33.333C22.4424 33.333 24.7283 32.6723 26.6966 31.5264L19.999 22.1497L13.3014 31.5264ZM28.7311 30.0713C31.2536 27.8828 32.9468 24.766 33.2738 21.2497H22.429L28.7311 30.0713ZM6.72754 21.2497C7.05449 24.7656 8.74655 27.8828 11.2686 30.0713L17.5723 21.2497H6.72754ZM22.429 18.7497H33.2738C32.9467 15.233 31.2541 12.115 28.7311 9.92643L22.429 18.7497ZM11.2686 9.92643C8.7461 12.1149 7.05453 15.2334 6.72754 18.7497H17.5723L11.2686 9.92643ZM20.0007 6.66634C17.5582 6.66634 15.2702 7.32484 13.3014 8.47135L19.999 17.848L26.6966 8.47135C24.7284 7.32571 22.4421 6.66634 20.0007 6.66634Z" fill="#FAFAFA"/>
</svg>
