<svg width="40" height="40" viewBox="0 0 40 40" fill="none" xmlns="http://www.w3.org/2000/svg">
<path d="M28.0671 32H26.0004C27.2381 32 28.4251 31.5083 29.3003 30.6332C30.1754 29.758 30.6671 28.571 30.6671 27.3333V15.6667C30.6618 14.5856 30.2813 13.54 29.5907 12.7083C28.9 11.8766 27.9421 11.3105 26.8804 11.1067C26.7274 11.0787 26.589 10.998 26.4891 10.8787C26.3893 10.7594 26.3343 10.6089 26.3338 10.4533V7.33333C26.3338 7.15652 26.404 6.98695 26.529 6.86193C26.6541 6.7369 26.8236 6.66667 27.0004 6.66667H28.6671C29.0207 6.66667 29.3599 6.52619 29.6099 6.27614C29.86 6.02609 30.0004 5.68696 30.0004 5.33333C30.0004 4.97971 29.86 4.64057 29.6099 4.39052C29.3599 4.14048 29.0207 4 28.6671 4H11.3338C10.9801 4 10.641 4.14048 10.391 4.39052C10.1409 4.64057 10.0004 4.97971 10.0004 5.33333C10.0004 5.68696 10.1409 6.02609 10.391 6.27614C10.641 6.52619 10.9801 6.66667 11.3338 6.66667H13.0004C13.1772 6.66667 13.3468 6.7369 13.4718 6.86193C13.5969 6.98695 13.6671 7.15652 13.6671 7.33333V10.4533C13.6665 10.6089 13.6116 10.7594 13.5117 10.8787C13.4119 10.998 13.2735 11.0787 13.1204 11.1067C12.0588 11.3105 11.1008 11.8766 10.4102 12.7083C9.71956 13.54 9.33909 14.5856 9.33377 15.6667V27.3333C9.33377 28.571 9.82544 29.758 10.7006 30.6332C11.5758 31.5083 12.7628 32 14.0004 32H12.0004C11.0647 31.9811 10.1519 32.291 9.42101 32.8757C8.69013 33.4604 8.18744 34.2829 8.00044 35.2C7.98212 35.2975 7.98453 35.3977 8.0075 35.4942C8.03047 35.5907 8.07349 35.6812 8.13377 35.76C8.20039 35.8358 8.28245 35.8964 8.37444 35.9378C8.46644 35.9792 8.56623 36.0004 8.6671 36H31.3338C31.4324 35.9985 31.5296 35.9764 31.6192 35.935C31.7087 35.8937 31.7886 35.8341 31.8538 35.76C31.914 35.6812 31.9571 35.5907 31.98 35.4942C32.003 35.3977 32.0054 35.2975 31.9871 35.2C31.8027 34.2965 31.3118 33.4845 30.5974 32.9014C29.8831 32.3182 28.9892 31.9998 28.0671 32ZM16.3338 7.33333C16.3338 7.15652 16.404 6.98695 16.529 6.86193C16.6541 6.7369 16.8236 6.66667 17.0004 6.66667H23.0004C23.1773 6.66667 23.3468 6.7369 23.4718 6.86193C23.5969 6.98695 23.6671 7.15652 23.6671 7.33333V10.3333C23.6671 10.5101 23.5969 10.6797 23.4718 10.8047C23.3468 10.9298 23.1773 11 23.0004 11H17.0004C16.8236 11 16.6541 10.9298 16.529 10.8047C16.404 10.6797 16.3338 10.5101 16.3338 10.3333V7.33333ZM20.0004 27.3333C18.7628 27.3333 17.5758 26.8417 16.7006 25.9665C15.8254 25.0913 15.3338 23.9043 15.3338 22.6667C15.3179 21.8405 15.5476 21.0282 15.9939 20.3327C16.4401 19.6372 17.0828 19.0899 17.8404 18.76C17.8868 18.7402 17.9367 18.73 17.9871 18.73C18.0375 18.73 18.0874 18.7402 18.1338 18.76C18.1817 18.7771 18.2248 18.8054 18.2596 18.8425C18.2943 18.8796 18.3198 18.9244 18.3338 18.9733C18.4925 19.3914 18.7539 19.7627 19.0938 20.0533C19.1328 20.089 19.1798 20.1148 19.2308 20.1287C19.2818 20.1426 19.3354 20.1442 19.3871 20.1333C19.4387 20.1225 19.4871 20.1001 19.5287 20.0677C19.5702 20.0354 19.6039 19.994 19.6271 19.9467C19.9141 19.2237 20.025 18.4428 19.9509 17.6685C19.8767 16.8942 19.6195 16.1487 19.2004 15.4933C19.1518 15.4303 19.1254 15.3529 19.1254 15.2733C19.1254 15.1937 19.1518 15.1164 19.2004 15.0533C19.2493 14.9943 19.3164 14.9531 19.3912 14.9362C19.466 14.9193 19.5443 14.9277 19.6138 14.96C21.1014 15.6315 22.3669 16.713 23.2619 18.078C24.1569 19.4429 24.6444 21.0346 24.6671 22.6667C24.6671 23.9043 24.1754 25.0913 23.3003 25.9665C22.4251 26.8417 21.2381 27.3333 20.0004 27.3333Z" fill="#FAFAFA"/>
</svg>
