<svg width="40" height="40" viewBox="0 0 40 40" fill="none" xmlns="http://www.w3.org/2000/svg">
<path fill-rule="evenodd" clip-rule="evenodd" d="M3.33301 20.0002C3.33301 10.7954 10.7949 3.3335 19.9997 3.3335C29.2044 3.3335 36.6663 10.7954 36.6663 20.0002C36.6663 29.2049 29.2044 36.6668 19.9997 36.6668C10.7949 36.6668 3.33301 29.2049 3.33301 20.0002ZM14.583 28.3335C13.8927 28.3335 13.333 27.7739 13.333 27.0835C13.333 26.3931 13.8927 25.8335 14.583 25.8335H25.4163C26.1067 25.8335 26.6663 26.3931 26.6663 27.0835C26.6663 27.7739 26.1067 28.3335 25.4163 28.3335H14.583ZM24.6336 19.634L20.8836 23.384C20.3954 23.8722 19.6039 23.8722 19.1158 23.384L15.3658 19.634C14.8776 19.1459 14.8776 18.3544 15.3658 17.8663C15.8539 17.3781 16.6454 17.3781 17.1336 17.8663L18.7497 19.4824V12.9168C18.7497 12.2265 19.3093 11.6668 19.9997 11.6668C20.69 11.6668 21.2497 12.2265 21.2497 12.9168V19.4824L22.8658 17.8663C23.3539 17.3781 24.1454 17.3781 24.6336 17.8663C25.1217 18.3544 25.1217 19.1459 24.6336 19.634Z" fill="#FAFAFA"/>
</svg>
