<svg width="40" height="40" viewBox="0 0 40 40" fill="none" xmlns="http://www.w3.org/2000/svg">
<path d="M29.5571 7.16493C30.1495 6.94012 30.8268 7.19632 31.1163 7.77528C31.4246 8.39262 31.1753 9.14306 30.558 9.45172L28.3608 10.5487C28.28 10.5898 28.215 10.6576 28.1752 10.7392C28.1355 10.8211 28.1231 10.9152 28.141 11.0045L28.9435 15.0214C28.9448 15.0285 28.9472 15.0354 28.9483 15.0425L30.0226 20.4153C31.6716 20.4214 33.2521 21.0799 34.4187 22.2463C35.5905 23.4181 36.2495 25.0081 36.2498 26.6653C36.2498 27.9012 35.8832 29.1109 35.1967 30.1386C34.5102 31.1659 33.5338 31.9669 32.3923 32.44C31.2505 32.9129 29.9929 33.0374 28.7807 32.7964C27.5686 32.5553 26.4548 31.9596 25.5808 31.0858C24.707 30.212 24.1115 29.098 23.8702 27.886C23.6292 26.6738 23.7522 25.4161 24.225 24.2743C24.6981 23.1325 25.5005 22.1566 26.5281 21.4699C26.8584 21.2493 27.2089 21.0649 27.5714 20.9117L26.8487 17.2951L15.8217 24.3996C16.1003 25.1152 16.2496 25.8825 16.2498 26.6653C16.2498 27.9012 15.8832 29.1109 15.1967 30.1386C14.5102 31.1659 13.5338 31.9669 12.3924 32.44C11.2505 32.9129 9.99285 33.0374 8.7807 32.7964C7.56858 32.5553 6.45482 31.9596 5.58083 31.0858C4.70699 30.212 4.11148 29.098 3.87022 27.886C3.62919 26.6738 3.75215 25.4161 4.22503 24.2743C4.69811 23.1325 5.50046 22.1566 6.52809 21.4699C7.55576 20.7835 8.7639 20.4153 9.99977 20.4153C11.657 20.4154 13.2468 21.0746 14.4187 22.2463C14.4354 22.263 14.4511 22.2815 14.4675 22.2984L17.4965 20.3453L16.4076 14.914C16.3878 14.8193 16.335 14.7335 16.2595 14.6731C16.1836 14.6126 16.088 14.58 15.991 14.5819H13.3331C12.6428 14.5819 12.0831 14.0223 12.0831 13.3319C12.0837 12.6421 12.6431 12.0819 13.3331 12.0819H15.9666C16.6398 12.0743 17.2958 12.3007 17.822 12.7216C18.2879 13.0944 18.6265 13.6004 18.7953 14.1685L18.8572 14.4159L18.8588 14.4192L19.754 18.8902L26.3214 14.6584L25.6899 11.496C25.5642 10.8703 25.6469 10.2194 25.9259 9.6454C26.2051 9.07145 26.6663 8.60484 27.2361 8.31728L29.4399 7.21539L29.5571 7.16493Z" fill="#FAFAFA"/>
</svg>
