<svg width="40" height="40" viewBox="0 0 40 40" fill="none" xmlns="http://www.w3.org/2000/svg">
<path fill-rule="evenodd" clip-rule="evenodd" d="M3.33301 9.58333C3.33301 7.05203 5.38504 5 7.91634 5H32.083C34.6143 5 36.6663 7.05203 36.6663 9.58333V27.0833C36.6663 29.6146 34.6143 31.6667 32.083 31.6667H25.6262C25.5292 31.6667 25.4351 31.7006 25.3604 31.7625L21.8632 34.6598C20.779 35.5581 19.2078 35.5535 18.1288 34.649L14.687 31.764C14.612 31.7011 14.5173 31.6667 14.4194 31.6667H7.91634C5.38504 31.6667 3.33301 29.6146 3.33301 27.0833V9.58333ZM10.833 18.3333C10.833 19.2538 11.5792 20 12.4997 20C13.4201 20 14.1663 19.2538 14.1663 18.3333C14.1663 17.4129 13.4201 16.6667 12.4997 16.6667C11.5792 16.6667 10.833 17.4129 10.833 18.3333ZM18.333 18.3333C18.333 19.2538 19.0792 20 19.9997 20C20.9201 20 21.6663 19.2538 21.6663 18.3333C21.6663 17.4129 20.9201 16.6667 19.9997 16.6667C19.0792 16.6667 18.333 17.4129 18.333 18.3333ZM27.4997 20C26.5792 20 25.833 19.2538 25.833 18.3333C25.833 17.4129 26.5792 16.6667 27.4997 16.6667C28.4201 16.6667 29.1663 17.4129 29.1663 18.3333C29.1663 19.2538 28.4201 20 27.4997 20Z" fill="#FAFAFA"/>
</svg>
