<svg width="40" height="40" viewBox="0 0 40 40" fill="none" xmlns="http://www.w3.org/2000/svg">
<path d="M9.5 24.083C10.5746 24.083 11.3306 24.0841 11.9023 24.1348C12.4741 24.1854 12.7553 24.2792 12.9287 24.3936C13.0601 24.4802 13.1318 24.5732 13.1826 24.8223C13.2462 25.1344 13.25 25.5692 13.25 26.2998V32.0342C13.25 32.7647 13.2463 33.1996 13.1826 33.5117C13.1318 33.7603 13.0599 33.8529 12.9287 33.9395C12.7553 34.0538 12.4741 34.1476 11.9023 34.1982C11.3306 34.2489 10.5746 34.25 9.5 34.25C8.42543 34.25 7.6694 34.2489 7.09766 34.1982C6.52586 34.1476 6.24473 34.0538 6.07129 33.9395C5.94008 33.8529 5.86816 33.7603 5.81738 33.5117C5.75373 33.1996 5.75 32.7647 5.75 32.0342V26.2998C5.75 25.5692 5.75376 25.1344 5.81738 24.8223C5.86818 24.5732 5.93991 24.4802 6.07129 24.3936C6.24473 24.2792 6.52586 24.1854 7.09766 24.1348C7.6694 24.0841 8.42545 24.083 9.5 24.083ZM20 17.417C21.0753 17.417 21.8303 17.4171 22.4004 17.4697C22.969 17.5222 23.2457 17.6197 23.417 17.7373C23.5494 17.8283 23.628 17.9314 23.6816 18.2051C23.7467 18.5375 23.75 18.9981 23.75 19.7568V31.9102C23.75 32.6686 23.7467 33.1285 23.6816 33.4609C23.628 33.735 23.5495 33.8387 23.417 33.9297C23.2457 34.0473 22.9689 34.1438 22.4004 34.1963C21.8303 34.2489 21.0753 34.25 20 34.25C18.925 34.25 18.1706 34.2489 17.6006 34.1963C17.0323 34.1438 16.7554 34.0472 16.584 33.9297C16.4514 33.8386 16.372 33.735 16.3184 33.4609C16.2533 33.1285 16.25 32.6686 16.25 31.9102V19.7568C16.25 18.9981 16.2533 18.5375 16.3184 18.2051C16.372 17.9312 16.4514 17.8283 16.584 17.7373C16.7554 17.6197 17.0321 17.5222 17.6006 17.4697C18.1706 17.4171 18.925 17.417 20 17.417ZM30.5 5.75C31.5752 5.75 32.329 5.75039 32.8984 5.80371C33.4659 5.85689 33.7414 5.95532 33.9121 6.07422C34.0453 6.16703 34.127 6.27431 34.1816 6.55762C34.2472 6.89763 34.25 7.36744 34.25 8.13672V31.8633C34.25 32.6326 34.2472 33.1024 34.1816 33.4424C34.127 33.7257 34.0453 33.833 33.9121 33.9258C33.7414 34.0447 33.4659 34.1431 32.8984 34.1963C32.329 34.2496 31.5752 34.25 30.5 34.25C29.4248 34.25 28.671 34.2496 28.1016 34.1963C27.5341 34.1431 27.2586 34.0447 27.0879 33.9258C26.9547 33.833 26.873 33.7257 26.8184 33.4424C26.7528 33.1024 26.75 32.6326 26.75 31.8633V8.13672C26.75 7.36744 26.7528 6.89763 26.8184 6.55762C26.873 6.27432 26.9547 6.16703 27.0879 6.07422C27.2586 5.95533 27.5341 5.85688 28.1016 5.80371C28.671 5.75039 29.4248 5.75 30.5 5.75Z" fill="#FAFAFA" stroke="#FAFAFA" stroke-width="1.5"/>
</svg>
