<svg width="40" height="40" viewBox="0 0 40 40" fill="none" xmlns="http://www.w3.org/2000/svg">
<path fill-rule="evenodd" clip-rule="evenodd" d="M25.2474 3.49121C27.7085 3.49204 29.7109 5.43323 29.8193 7.86784H31.6667C33.5076 7.86784 35 9.36185 35 11.2028V32.8695C34.9996 34.71 33.5073 36.2028 31.6667 36.2028H8.33333C6.49238 36.2028 5 34.7088 5 32.8678V11.2012C5.00044 9.3606 6.49266 7.86784 8.33333 7.86784H10.1807C10.289 5.43271 12.2924 3.49121 14.7542 3.49121H25.2474ZM28.8802 29.0902C28.3989 28.6371 27.6476 28.6371 27.1663 29.0902C25.7396 30.4335 24.3607 30.4167 24.012 30.4167C23.6636 30.4167 22.2832 30.434 20.8561 29.0902C20.4352 28.6943 19.8085 28.6438 19.3359 28.9404L19.1439 29.0902C17.7168 30.434 16.3363 30.4167 15.988 30.4167C15.6392 30.4167 14.2603 30.4334 12.8337 29.0902C12.4127 28.6939 11.7845 28.6435 11.3118 28.9404L11.1198 29.0902C9.96412 30.1784 8.85988 30.3703 7.5 30.4053V32.8695C7.50001 32.8826 7.50263 32.8956 7.50326 32.9085C8.86629 32.879 10.4199 32.7014 11.9727 31.6097C13.7865 32.9022 15.4723 32.9167 15.988 32.9167C16.503 32.9167 18.1871 32.9017 20 31.6113C21.8129 32.9017 23.4969 32.9167 24.012 32.9167C24.5275 32.9167 26.2122 32.9014 28.0257 31.6097C29.5783 32.7017 31.132 32.879 32.4951 32.9085C32.4958 32.8956 32.5 32.8826 32.5 32.8695V30.4053C31.1401 30.3703 30.0359 30.1784 28.8802 29.0902ZM19.4596 13.3724C19.0229 13.2564 18.5926 13.4049 18.3089 13.6882C18.0148 13.9822 17.7638 14.5829 18.0941 15.1758C18.3767 15.6882 18.5762 16.2467 18.6865 16.8245L18.7288 17.0752C18.8153 17.6917 18.7763 18.2919 18.61 18.807L18.4977 18.6198C18.3762 18.378 18.1151 18.0596 17.6839 17.9525C17.2052 17.834 16.7841 18.0355 16.4827 18.3187C15.5772 19.0948 14.9655 20.2932 15.0016 21.5885L15.0179 21.849C15.1114 24.6916 17.5125 26.6344 19.9984 26.6667L20.2393 26.6634C22.7276 26.5732 24.9788 24.601 25 21.7578V21.7513C25 20.1992 24.5783 18.6808 23.7874 17.3714L23.6247 17.111C22.6659 15.5322 21.2998 14.2663 19.6842 13.457L19.6468 13.4391L19.4596 13.3724Z" fill="#FAFAFA"/>
</svg>
