<svg width="40" height="40" viewBox="0 0 40 40" fill="none" xmlns="http://www.w3.org/2000/svg">
<path fill-rule="evenodd" clip-rule="evenodd" d="M29.9993 2.5C31.8403 2.5 33.3327 3.99238 33.3327 5.83333V34.1667C33.3327 36.0076 31.8403 37.5 29.9993 37.5H9.99935C8.27326 37.5 6.85436 36.188 6.68392 34.5068L6.66602 34.1667V5.83333C6.66602 3.99238 8.1584 2.5 9.99935 2.5H29.9993ZM11.666 28.75V29.1667C11.666 31.0076 13.1584 32.5 14.9993 32.5H24.9993C26.8403 32.5 28.3327 31.0076 28.3327 29.1667V28.75H11.666ZM11.666 26.25H28.3327V22.0833H11.666V26.25ZM14.9993 15.8333C13.1584 15.8333 11.666 17.3257 11.666 19.1667V19.5833H28.3327V19.1667C28.3327 17.3257 26.8403 15.8333 24.9993 15.8333H14.9993ZM24.9993 10.4167C24.309 10.4167 23.7493 10.9763 23.7493 11.6667C23.7493 12.357 24.309 12.9167 24.9993 12.9167H26.666C27.3564 12.9167 27.916 12.357 27.916 11.6667C27.916 10.9763 27.3564 10.4167 26.666 10.4167H24.9993ZM12.0827 5.83333C12.0827 6.98393 13.0154 7.91667 14.166 7.91667H25.8327C26.9833 7.91667 27.916 6.98393 27.916 5.83333V5H12.0827V5.83333Z" fill="#FAFAFA"/>
</svg>
