<svg width="40" height="40" viewBox="0 0 40 40" fill="none" xmlns="http://www.w3.org/2000/svg">
<path fill-rule="evenodd" clip-rule="evenodd" d="M31.9225 3.33976C34.5644 3.47361 36.6654 5.65808 36.6654 8.33325V31.6666L36.6589 31.9237C36.5293 34.4805 34.4793 36.5305 31.9225 36.6601L31.6654 36.6666H8.33203L8.07487 36.6601C5.51813 36.5305 3.46807 34.4805 3.33854 31.9237L3.33203 31.6666V8.33325C3.33203 5.65808 5.43296 3.47361 8.07487 3.33976L8.33203 3.33325H31.6654L31.9225 3.33976ZM21.2487 18.1689C21.2484 18.8589 20.6889 19.4189 19.9987 19.4189C19.3085 19.4189 18.749 18.8589 18.7487 18.1689V8.39998C12.8932 9.02373 8.33203 13.9789 8.33203 19.9999C8.33203 26.4432 13.5554 31.6666 19.9987 31.6666C26.442 31.6666 31.6654 26.4432 31.6654 19.9999C31.6654 13.9789 27.1042 9.02373 21.2487 8.39998V18.1689Z" fill="#FAFAFA"/>
</svg>
