<svg width="40" height="40" viewBox="0 0 40 40" fill="none" xmlns="http://www.w3.org/2000/svg">
<path fill-rule="evenodd" clip-rule="evenodd" d="M11.2493 3.3335C8.71804 3.3335 6.66602 5.38552 6.66602 7.91683V32.0835C6.66602 34.6148 8.71804 36.6668 11.2493 36.6668H28.7493C31.2807 36.6668 33.3327 34.6148 33.3327 32.0835V7.91683C33.3327 5.38552 31.2807 3.3335 28.7493 3.3335H11.2493ZM9.16602 7.91683C9.16602 6.76624 10.0988 5.8335 11.2493 5.8335H28.7493C29.8999 5.8335 30.8327 6.76624 30.8327 7.91683V32.0835C30.8327 33.2341 29.8999 34.1668 28.7493 34.1668H21.666V22.9168C21.666 20.3855 19.614 18.3335 17.0827 18.3335H9.16602V7.91683Z" fill="#FAFAFA"/>
</svg>
