<svg width="40" height="40" viewBox="0 0 40 40" fill="none" xmlns="http://www.w3.org/2000/svg">
<path d="M34.7839 14.8972C35.0624 18.7393 35.0772 22.1404 34.7963 25.9626L34.6312 27.9149C34.5997 28.2452 34.44 28.5523 34.1872 28.7671L34.0718 28.8534C30.1131 31.5017 26.6632 33.3701 22.5657 34.9417C21.9795 35.1665 21.3627 34.713 21.3627 34.0664V20.6974C21.3627 20.3348 21.5643 20.0046 21.8807 19.8486L33.4868 14.1278C34.0601 13.8453 34.7298 14.2428 34.7839 14.8972Z" fill="#FAFAFA"/>
<path d="M18.1173 19.8485C18.4337 20.0045 18.6351 20.3347 18.6351 20.6972V34.0646C18.6351 34.7112 18.0184 35.1647 17.4321 34.94C13.9663 33.6113 10.9631 32.0726 7.72489 30.0251L5.92605 28.8534C5.64742 28.6664 5.45702 28.3767 5.38977 28.0545L5.36846 27.9149C4.92485 23.2591 4.89117 19.3748 5.21699 14.8874C5.26446 14.2336 5.93321 13.8386 6.50539 14.1208L18.1173 19.8485Z" fill="#FAFAFA"/>
<path d="M26.9012 8.29999C27.1552 8.16129 27.4574 8.15474 27.7158 8.28427C29.011 8.93337 30.2481 9.60631 31.5296 10.3759C32.1518 10.7496 32.1037 11.6838 31.4541 12.0039L20.3885 17.4574C20.1409 17.5794 19.8534 17.5793 19.6059 17.4572L16.263 15.808C15.5881 15.4751 15.5688 14.4892 16.2303 14.1287C16.7734 13.8326 17.3586 13.5136 17.9728 13.1782C20.7287 11.6732 24.0802 9.84074 26.9012 8.29999Z" fill="#FAFAFA"/>
<path d="M20.1161 5.01822L20.9827 5.32493C21.4536 5.49733 21.9199 5.67793 22.3807 5.86399C23.0941 6.15208 23.137 7.16598 22.4598 7.53598C20.4925 8.61076 18.4715 9.71547 16.6978 10.6841C15.1522 11.5281 13.7931 12.2709 12.8213 12.8017C12.3359 13.0668 11.9454 13.2799 11.6777 13.4261C11.6043 13.4662 11.5164 13.4668 11.4415 13.4299L7.71546 11.5931C7.42299 11.449 7.39917 11.0278 7.6734 10.8494C11.6513 8.32995 15.2646 6.57115 19.8103 5.03867C19.8506 5.0251 19.8921 5.01481 19.9339 5.00801C19.9748 5.00136 20.0165 4.9964 20.0573 5.00339C20.0776 5.00685 20.0974 5.01189 20.1161 5.01822Z" fill="#FAFAFA"/>
</svg>
