<svg width="40" height="40" viewBox="0 0 40 40" fill="none" xmlns="http://www.w3.org/2000/svg">
<path fill-rule="evenodd" clip-rule="evenodd" d="M30.8333 9.16685H25V6.66685H31.9048C32.2836 6.66685 32.647 6.90098 32.915 7.31772C33.1829 7.73446 33.3333 8.29971 33.3333 8.88907V31.1113C33.3333 31.7006 33.1829 32.266 32.915 32.6827C32.647 33.0994 32.2836 33.3335 31.9048 33.3335H25V30.8335H30.8333V9.16685Z" fill="#FAFAFA"/>
<path fill-rule="evenodd" clip-rule="evenodd" d="M23.5587 3.35898C23.7319 3.32372 23.9114 3.32508 24.0841 3.36288C24.2569 3.40077 24.4191 3.47398 24.5577 3.57773C24.6961 3.68146 24.8077 3.81318 24.8848 3.96249C24.9618 4.11177 25.0023 4.27532 25.003 4.44101V35.5699C25.003 35.729 24.965 35.8865 24.8936 36.0309C24.822 36.1752 24.7177 36.303 24.588 36.4059C24.4581 36.5089 24.3058 36.585 24.1417 36.6275C23.9776 36.6698 23.8057 36.6777 23.6378 36.6519L9.35163 34.8141C9.06722 34.7746 8.80782 34.6404 8.62116 34.4361C8.43443 34.2317 8.33295 33.9713 8.336 33.7027V7.71738C8.34057 7.46707 8.43567 7.22551 8.60554 7.03183C8.77549 6.83813 9.01055 6.7034 9.27253 6.64999L23.5587 3.35898ZM18.3311 18.3336C17.4106 18.3336 16.6641 19.0801 16.6641 20.0006C16.6643 20.9209 17.4108 21.6666 18.3311 21.6666C19.2513 21.6664 19.997 20.9208 19.9971 20.0006C19.9971 19.0802 19.2514 18.3338 18.3311 18.3336Z" fill="#FAFAFA"/>
</svg>
