<svg width="40" height="40" viewBox="0 0 40 40" fill="none" xmlns="http://www.w3.org/2000/svg">
<path d="M29.091 23.6663C29.4587 23.6663 29.7901 23.8693 29.9309 24.1807C30.0715 24.492 29.9939 24.8505 29.7339 25.0889L20.6421 33.4222C20.2872 33.7472 19.7129 33.7472 19.3579 33.4222L10.2662 25.0889C10.0063 24.8505 9.92859 24.492 10.0692 24.1807C10.2099 23.8694 10.5415 23.6664 10.9091 23.6663H29.091Z" fill="#FAFAFA"/>
<path d="M19.3579 7.2438C19.7129 6.9187 20.2872 6.91876 20.6421 7.2438L29.7339 15.5771C29.9938 15.8155 30.0716 16.174 29.9309 16.4853C29.7901 16.7966 29.4586 16.9997 29.091 16.9997H10.9091C10.5415 16.9996 10.2099 16.7966 10.0692 16.4853C9.92853 16.174 10.0063 15.8155 10.2662 15.5771L19.3579 7.2438Z" fill="#FAFAFA"/>
</svg>
