<svg width="40" height="40" viewBox="0 0 40 40" fill="none" xmlns="http://www.w3.org/2000/svg">
<path fill-rule="evenodd" clip-rule="evenodd" d="M25.1927 3.33464C25.2017 3.33478 25.2108 3.33466 25.2198 3.33454C25.2314 3.33438 25.243 3.33422 25.2546 3.33464C25.6404 3.34845 26.0236 3.43202 26.3857 3.58366L34.6084 7.02767C35.2285 7.28744 35.7506 7.73355 36.1139 8.29557C36.364 8.68255 36.5299 9.11546 36.6104 9.5651C36.6439 9.678 36.6673 9.79615 36.6673 9.91992V35.4196C36.6672 36.1099 36.1076 36.6696 35.4173 36.6696C34.727 36.6696 34.1674 36.1099 34.1673 35.4196V33.1182C33.9463 33.0963 33.7287 33.0467 33.5228 32.9603L26.389 29.9736V32.0732C26.389 32.7636 25.8294 33.3232 25.139 33.3232C24.4489 33.3229 23.889 32.7634 23.889 32.0732V29.9753L16.1123 33.2337V35.4212C16.1121 36.1112 15.5523 36.6709 14.8623 36.6712C14.1721 36.6712 13.6126 36.1114 13.6123 35.4212V33.2354L5.83399 29.9769V32.083C5.83399 32.7734 5.27434 33.333 4.58399 33.333C3.89363 33.333 3.33399 32.7734 3.33399 32.083V6.01204C3.33332 5.64347 3.41832 5.27743 3.58464 4.94596L3.72461 4.70345C3.87927 4.46998 4.07718 4.26471 4.30892 4.09961C4.61807 3.87946 4.97929 3.73927 5.36036 3.69596L5.64519 3.68132C5.93087 3.68559 6.21413 3.74452 6.47852 3.85547L14.5807 7.25065C14.6647 7.28584 14.7521 7.30474 14.8379 7.30762C14.9394 7.31098 15.043 7.29224 15.1423 7.25065L23.8939 3.58366C24.2552 3.43243 24.6373 3.35208 25.0218 3.33789C25.0604 3.33429 25.0995 3.33303 25.139 3.33301C25.1545 3.33301 25.1772 3.33397 25.1927 3.33464ZM34.1673 30.5189L26.4606 27.2946V6.32454L33.6416 9.33398C33.7841 9.39369 33.9171 9.5012 34.0143 9.65137C34.1119 9.80234 34.1673 9.98737 34.1673 10.1803V30.5189ZM5.98698 27.1693C5.88949 27.0183 5.83396 26.8333 5.83399 26.6403V6.29525L13.5472 9.52767V30.4961L6.3597 27.4867C6.21702 27.4269 6.08424 27.3197 5.98698 27.1693Z" fill="#FAFAFA"/>
</svg>
