<svg width="40" height="40" viewBox="0 0 40 40" fill="none" xmlns="http://www.w3.org/2000/svg">
<path d="M19.584 25.8333C19.8963 25.8333 20.195 25.9509 20.4238 26.1589L20.5231 26.2581C20.5231 26.2581 20.5278 26.264 20.5312 26.2679C20.5388 26.2765 20.5503 26.2882 20.5638 26.3037C20.5908 26.3347 20.6294 26.379 20.6777 26.4355C20.7746 26.5489 20.9115 26.7116 21.0749 26.9124C21.4005 27.3127 21.8367 27.8727 22.276 28.5042C22.7127 29.1319 23.1695 29.8558 23.5212 30.5811C23.8584 31.2766 24.1673 32.1086 24.1673 32.9167C24.1673 35.4479 22.1153 37.5 19.584 37.5C17.0527 37.5 15.0007 35.4479 15.0007 32.9167C15.0007 32.1086 15.3096 31.2766 15.6468 30.5811C15.9984 29.8558 16.4553 29.1319 16.8919 28.5042C17.3313 27.8727 17.7674 27.3127 18.0931 26.9124C18.2565 26.7116 18.3933 26.5489 18.4902 26.4355C18.5386 26.379 18.5772 26.3347 18.6042 26.3037C18.6177 26.2882 18.6292 26.2765 18.6367 26.2679C18.6402 26.264 18.6449 26.2581 18.6449 26.2581L18.7441 26.1589C18.973 25.9509 19.2716 25.8333 19.584 25.8333Z" fill="#FAFAFA"/>
<path fill-rule="evenodd" clip-rule="evenodd" d="M25.0007 20.4167C26.2141 20.4167 26.999 20.4188 27.5771 20.4964C28.119 20.5694 28.2892 20.6877 28.3844 20.7829C28.4796 20.878 28.5979 21.048 28.6709 21.5902C28.7202 21.9575 28.7383 23.0792 28.7458 24.1602C28.1088 24.166 27.4177 24.1667 26.6673 24.1667H23.202C22.906 24.1667 22.6286 24.0322 22.4239 23.8184C21.7517 23.1167 20.9558 22.6124 19.9355 22.5163L19.584 22.5C18.3929 22.5 17.4741 23.062 16.7446 23.819C16.5392 24.0321 16.2619 24.1667 15.9659 24.1667H13.334C12.5834 24.1667 11.8925 24.166 11.2555 24.1602C11.2629 23.0791 11.2827 21.9573 11.332 21.5902C11.4049 21.0482 11.5217 20.8781 11.6169 20.7829C11.712 20.6877 11.882 20.5694 12.4242 20.4964C13.0022 20.4188 13.787 20.4167 15.0007 20.4167H25.0007Z" fill="#FAFAFA"/>
<path fill-rule="evenodd" clip-rule="evenodd" d="M30.0007 2.5C33.1433 2.5 34.7144 2.50025 35.6908 3.47656C36.6671 4.45286 36.6673 6.02398 36.6673 9.16667V14.1667C36.6673 18.8807 36.667 21.2373 35.2025 22.7018C34.3174 23.5869 33.1064 23.937 31.2458 24.0755C31.2371 22.9611 31.2129 21.7389 31.1481 21.2565C31.0379 20.4372 30.7889 19.6523 30.152 19.0153C29.515 18.3784 28.7301 18.1294 27.9108 18.0192C27.1465 17.9164 26.1914 17.9167 25.0837 17.9167H14.9176C13.8098 17.9167 12.8549 17.9164 12.0905 18.0192C11.2712 18.1294 10.4863 18.3784 9.84928 19.0153C9.21233 19.6523 8.96339 20.4372 8.85319 21.2565C8.78832 21.7389 8.76434 22.9611 8.75553 24.0755C6.89487 23.937 5.68399 23.5869 4.79883 22.7018C3.33436 21.2373 3.33398 18.8807 3.33398 14.1667V9.16667C3.33398 6.02397 3.33423 4.45286 4.31055 3.47656C5.28685 2.50025 6.85795 2.5 10.0007 2.5H30.0007ZM25.7591 9.42708C25.069 9.42708 24.5095 9.98708 24.5091 10.6771C24.5091 11.3674 25.0688 11.9271 25.7591 11.9271H29.2601C29.9503 11.927 30.5101 11.3674 30.5101 10.6771C30.5097 9.98715 29.9501 9.4272 29.2601 9.42708H25.7591Z" fill="#FAFAFA"/>
</svg>
