<svg width="40" height="40" viewBox="0 0 40 40" fill="none" xmlns="http://www.w3.org/2000/svg">
<path d="M35.9245 12.8166L28.8489 5.74221C28.6136 5.5069 28.3343 5.32025 28.0269 5.1929C27.7196 5.06555 27.3901 5 27.0574 5C26.7247 5 26.3952 5.06555 26.0878 5.1929C25.7804 5.32025 25.5011 5.5069 25.2659 5.74221L5.74257 25.2665C5.50631 25.5009 5.319 25.7799 5.19152 26.0874C5.06405 26.3948 4.99895 26.7245 5.00001 27.0573V34.1333C5.00001 34.8052 5.26691 35.4496 5.74198 35.9247C6.21705 36.3998 6.86139 36.6667 7.53325 36.6667H34.1322C34.4682 36.6667 34.7903 36.5332 35.0279 36.2957C35.2654 36.0581 35.3988 35.7359 35.3988 35.4C35.3988 35.064 35.2654 34.7419 35.0279 34.5043C34.7903 34.2668 34.4682 34.1333 34.1322 34.1333H18.1918L35.9245 16.3998C36.1598 16.1645 36.3464 15.8852 36.4738 15.5778C36.6011 15.2704 36.6667 14.9409 36.6667 14.6082C36.6667 14.2755 36.6011 13.946 36.4738 13.6386C36.3464 13.3312 36.1598 13.0519 35.9245 12.8166ZM30.3324 18.409L23.2583 11.333L27.0582 7.53298L34.1322 14.609L30.3324 18.409Z" fill="#FAFAFA"/>
</svg>
