<svg width="40" height="40" viewBox="0 0 40 40" fill="none" xmlns="http://www.w3.org/2000/svg">
<path d="M13.7943 25.9393L9.49902 20.4168L14.1182 14.4761L18.4134 20.0002L13.7943 25.9393Z" fill="#FAFAFA"/>
<path d="M24.2939 12.4399L21.2487 16.356V8.52393L24.2939 12.4399Z" fill="#FAFAFA"/>
<path d="M18.7487 16.356L15.7018 12.4399L18.7487 8.52393V16.356Z" fill="#FAFAFA"/>
<path d="M14.1182 10.4038L17.6745 5.8335H10.5635L14.1182 10.4038Z" fill="#FAFAFA"/>
<path d="M12.5345 12.4399L9.16536 8.10726V16.7726L12.5345 12.4399Z" fill="#FAFAFA"/>
<path d="M25.8776 10.4038L29.4339 5.8335H22.3229L25.8776 10.4038Z" fill="#FAFAFA"/>
<path d="M27.4613 12.4399L30.832 16.7726V8.10726L27.4613 12.4399Z" fill="#FAFAFA"/>
<path d="M26.2015 25.9393L21.5824 20.0002L25.8776 14.4761L30.4967 20.4168L26.2015 25.9393Z" fill="#FAFAFA"/>
<path d="M24.6178 27.9754L21.2487 32.3081V23.6427L24.6178 27.9754Z" fill="#FAFAFA"/>
<path d="M18.7487 32.3081L15.3779 27.9754L18.7487 23.6427V32.3081Z" fill="#FAFAFA"/>
<path d="M12.2106 27.9754L9.16536 24.0594V31.8914L12.2106 27.9754Z" fill="#FAFAFA"/>
<path d="M26.2015 30.0116L22.9799 34.155L29.4323 34.1647L26.2015 30.0116Z" fill="#FAFAFA"/>
<path d="M27.7852 27.9754L30.832 31.8914V24.0594L27.7852 27.9754Z" fill="#FAFAFA"/>
<path d="M30.749 3.3335C32.1755 3.33367 33.3319 4.49002 33.332 5.9165V34.0838C33.332 34.0995 33.3308 34.115 33.3295 34.1306C33.3285 34.1426 33.3275 34.1548 33.3271 34.1668H35.4154C36.1057 34.1668 36.6654 34.7265 36.6654 35.4168C36.6654 36.1072 36.1057 36.6668 35.4154 36.6668H4.58203C3.89168 36.6668 3.33203 36.1072 3.33203 35.4168C3.33203 34.7265 3.89168 34.1668 4.58203 34.1668H6.67025C6.66986 34.1548 6.66888 34.1427 6.6679 34.1306C6.66663 34.115 6.66537 34.0995 6.66536 34.0838V5.9165C6.66554 4.49003 7.8219 3.33367 9.24837 3.3335H30.749ZM30.832 32.7671V31.8914V24.0594V16.7726V8.10726V7.23161C30.832 6.45945 30.2061 5.8335 29.4339 5.8335H22.3229H17.6745H10.5635C9.79132 5.8335 9.16536 6.45945 9.16536 7.23161V8.10726V16.7726V24.0594V31.8914V32.7126C9.16536 33.4981 9.80155 34.1353 10.5871 34.1365L13.7943 30.0116L17.0106 34.1461L22.9799 34.155L29.4323 34.1647C30.205 34.1659 30.832 33.5398 30.832 32.7671Z" fill="#FAFAFA"/>
</svg>
