<svg width="40" height="40" viewBox="0 0 40 40" fill="none" xmlns="http://www.w3.org/2000/svg">
<path fill-rule="evenodd" clip-rule="evenodd" d="M9.63262 13.5405C11.3393 9.50262 15.3367 6.66675 19.9993 6.66675C25.9536 6.66675 30.8275 11.2924 31.2234 17.1463C35.2313 17.6461 38.3327 21.0651 38.3327 25.2084C38.3327 29.6957 34.695 33.3334 30.2077 33.3334H11.666C6.14317 33.3334 1.66602 28.8563 1.66602 23.3334C1.66602 18.5069 5.08438 14.4805 9.63262 13.5405ZM18.7493 14.5834C18.7493 13.8931 19.309 13.3334 19.9993 13.3334C20.6897 13.3334 21.2493 13.8931 21.2493 14.5834V24.0656L23.2821 22.0329C23.7703 21.5447 24.5617 21.5447 25.0499 22.0329C25.5381 22.521 25.5381 23.3125 25.0499 23.8006L20.8832 27.9673C20.3951 28.4555 19.6036 28.4555 19.1155 27.9673L14.9488 23.8006C14.4606 23.3125 14.4606 22.521 14.9488 22.0329C15.437 21.5447 16.2284 21.5447 16.7166 22.0329L18.7493 24.0656V14.5834Z" fill="#FAFAFA"/>
</svg>
