<svg width="40" height="40" viewBox="0 0 40 40" fill="none" xmlns="http://www.w3.org/2000/svg">
<path d="M24.6875 4.375C29.1069 4.375 31.3165 4.37511 32.6895 5.74805C34.0624 7.12099 34.0625 9.3306 34.0625 13.75V26.25C34.0625 30.6694 34.0624 32.879 32.6895 34.252C31.3165 35.6249 29.1069 35.625 24.6875 35.625H15.3125C10.8931 35.625 8.68349 35.6249 7.31055 34.252C6.12231 33.0637 5.96389 31.2488 5.94238 27.917H4.375C3.68481 27.917 3.12526 27.3571 3.125 26.667C3.125 25.9766 3.68464 25.417 4.375 25.417H5.9375V21.25H4.375C3.68464 21.25 3.125 20.6904 3.125 20C3.125 19.3096 3.68464 18.75 4.375 18.75H5.9375V14.584H4.375C3.68481 14.584 3.12526 14.0241 3.125 13.334C3.125 12.6436 3.68464 12.084 4.375 12.084H5.94238C5.96386 8.75154 6.12219 6.9364 7.31055 5.74805C8.68348 4.37511 10.8931 4.375 15.3125 4.375H24.6875Z" fill="#FAFAFA"/>
</svg>
