<svg width="40" height="40" viewBox="0 0 40 40" fill="none" xmlns="http://www.w3.org/2000/svg">
<path d="M37.5 16.2283C37.4987 15.6109 37.3116 15.009 36.9644 14.505C36.6172 14.001 36.1268 13.6195 35.5604 13.4127C35.4491 13.3755 35.3312 13.3643 35.2151 13.3798C35.0991 13.3954 34.9879 13.4373 34.8896 13.5025C34.796 13.5738 34.7197 13.6663 34.6666 13.7728C34.6135 13.8793 34.585 13.9969 34.5833 14.1166V19.8526C34.585 19.9723 34.6135 20.0899 34.6666 20.1964C34.7197 20.3029 34.796 20.3954 34.8896 20.4667C34.9874 20.5329 35.0987 20.5754 35.2149 20.591C35.3311 20.6066 35.4493 20.5948 35.5604 20.5565C36.1292 20.3489 36.6212 19.9651 36.9686 19.4581C37.316 18.9511 37.5017 18.3459 37.5 17.7259V16.2283Z" fill="#FAFAFA"/>
<path d="M32.3957 7.24218C32.3948 6.86464 32.3008 6.49348 32.1222 6.16344C31.9437 5.83341 31.6865 5.55529 31.3748 5.35512C30.1644 4.56135 29.2311 5.22033 27.4082 6.13391C22.8838 8.64261 17.8481 10.0227 12.7082 10.1626C12.606 10.1621 12.5048 10.1837 12.4112 10.2259C12.3176 10.2681 12.2338 10.3301 12.165 10.4077C12.0962 10.4854 12.0442 10.5771 12.0121 10.6767C11.9801 10.7764 11.9688 10.8819 11.979 10.9864V23.8513C12.0064 26.1396 12.6469 28.376 13.8303 30.3151C15.0136 32.2542 16.6941 33.8212 18.6873 34.8442C19.0354 35.021 19.4377 35.0485 19.8055 34.9207C20.1733 34.7929 20.4767 34.5203 20.6488 34.1628C20.8209 33.8053 20.8477 33.3923 20.7233 33.0145C20.5988 32.6367 20.3334 32.3252 19.9853 32.1484C18.5035 31.3934 17.2489 30.2396 16.3552 28.8101C15.4615 27.3807 14.9621 25.729 14.9103 24.0311C19.2685 24.3789 23.5116 25.6377 27.379 27.7303C29.3915 28.7038 30.2082 29.228 31.404 28.4941C31.7114 28.288 31.9634 28.0058 32.1367 27.6734C32.31 27.341 32.3991 26.9691 32.3957 26.5921V7.24218Z" fill="#FAFAFA"/>
<path d="M9.79168 10.9871C9.7931 10.8867 9.77441 10.787 9.73679 10.6942C9.69916 10.6015 9.64339 10.5177 9.57293 10.448C9.43594 10.3124 9.25277 10.2371 9.06251 10.2383H7.60418C6.93335 10.2363 6.26876 10.3706 5.64863 10.6333C5.02849 10.896 4.46505 11.2821 3.9907 11.7692C3.51635 12.2563 3.14046 12.835 2.88463 13.4718C2.62881 14.1087 2.4981 14.7912 2.50002 15.4801V18.4755C2.50193 19.1651 2.63633 19.8476 2.89552 20.4838C3.1547 21.12 3.53359 21.6974 4.01045 22.183C4.48732 22.6685 5.0528 23.0527 5.67448 23.3134C6.29616 23.5741 6.96184 23.7063 7.63335 23.7024H9.09168C9.27747 23.6948 9.45342 23.6145 9.58353 23.4781C9.71365 23.3417 9.78811 23.1594 9.79168 22.9685V10.9871Z" fill="#FAFAFA"/>
</svg>
