<svg width="40" height="40" viewBox="0 0 40 40" fill="none" xmlns="http://www.w3.org/2000/svg">
<path fill-rule="evenodd" clip-rule="evenodd" d="M25.0007 6.12598C25.691 6.12598 26.2507 6.68562 26.2507 7.37598C26.2507 8.06633 25.691 8.62598 25.0007 8.62598H21.2507V13.3411H28.3356C32.9371 13.3411 36.6673 17.0714 36.6673 21.6729C36.6669 25.7226 33.7769 29.0961 29.9469 29.8467V32.625C29.9465 33.3147 29.3867 33.8746 28.6969 33.875C28.0069 33.875 27.4474 33.315 27.4469 32.625V30.0046H12.5544V32.625C12.5539 33.315 11.9944 33.875 11.3044 33.875C10.6143 33.875 10.0548 33.315 10.0544 32.625V29.8467C6.22438 29.0961 3.33437 25.7226 3.33398 21.6729C3.33398 17.0714 7.06422 13.3411 11.6657 13.3411H18.7507V8.62598H15.0007C14.3103 8.62598 13.7507 8.06633 13.7507 7.37598C13.7507 6.68562 14.3103 6.12598 15.0007 6.12598H25.0007ZM26.4183 18.167C25.8662 17.7535 25.0811 17.8659 24.667 18.4176C24.2537 18.9695 24.365 19.7531 24.916 20.1673L25.248 20.4163H15.4206L15.7526 20.1673C16.3036 19.7531 16.4149 18.9695 16.0016 18.4176C15.5875 17.8659 14.8025 17.7535 14.2503 18.167L10.917 20.667C10.8947 20.6837 10.8727 20.7012 10.8519 20.7191C10.8439 20.726 10.8354 20.7331 10.8275 20.7402C10.8162 20.7505 10.8058 20.7622 10.7949 20.7728C10.7871 20.7805 10.7782 20.7877 10.7705 20.7956C10.7485 20.8182 10.7287 20.8432 10.7087 20.8672C10.695 20.8836 10.6809 20.9004 10.668 20.9176C10.6627 20.9246 10.6568 20.9317 10.6517 20.9388C10.6378 20.9581 10.6254 20.9789 10.6126 20.999C10.5969 21.0238 10.5825 21.0498 10.5687 21.0755C10.5556 21.0998 10.541 21.1239 10.5296 21.1488C10.5195 21.1709 10.5108 21.1943 10.502 21.2171C10.488 21.2532 10.4766 21.2907 10.4661 21.3278C10.461 21.346 10.4558 21.3648 10.4515 21.3831C10.4443 21.4141 10.4368 21.4458 10.432 21.4775C10.4309 21.4844 10.4297 21.4918 10.4287 21.4987C10.4248 21.528 10.4224 21.5583 10.4206 21.5882C10.42 21.5983 10.4193 21.609 10.4189 21.6191C10.4184 21.6346 10.4173 21.6507 10.4173 21.6663C10.4173 21.6819 10.4184 21.6981 10.4189 21.7135C10.4193 21.7242 10.4199 21.7354 10.4206 21.7461C10.4224 21.7749 10.425 21.8041 10.4287 21.8324C10.4298 21.8404 10.4323 21.8488 10.4336 21.8568C10.4375 21.8823 10.4412 21.9083 10.4466 21.9333C10.4539 21.9668 10.4658 21.9996 10.4759 22.0326C10.4829 22.0554 10.4904 22.0785 10.4987 22.1009C10.5078 22.1253 10.5159 22.1505 10.5264 22.1742C10.5637 22.258 10.6091 22.3401 10.6663 22.4167C10.728 22.4988 10.8003 22.5691 10.8763 22.6315C10.8902 22.6429 10.9041 22.6548 10.9186 22.6657L14.2503 25.1657C14.8025 25.5797 15.5874 25.4687 16.0016 24.9167C16.415 24.3646 16.3025 23.5811 15.751 23.167L15.4173 22.9163H25.2513L24.9176 23.167C24.3661 23.5811 24.2536 24.3646 24.667 24.9167C25.0812 25.4687 25.8661 25.5797 26.4183 25.1657L29.75 22.6657C29.7645 22.6548 29.7784 22.6429 29.7923 22.6315C29.8683 22.5691 29.9407 22.4988 30.0023 22.4167C30.0713 22.3243 30.1201 22.2229 30.1602 22.1204C30.1715 22.0914 30.1836 22.0623 30.1927 22.0326C30.2069 21.986 30.2166 21.9384 30.2253 21.891C30.2313 21.8581 30.2365 21.8249 30.2399 21.7917C30.244 21.75 30.2465 21.7081 30.2464 21.6663C30.2464 21.6235 30.2443 21.5805 30.2399 21.5378C30.2355 21.4963 30.2289 21.4549 30.2204 21.4141C30.2139 21.3825 30.2066 21.3508 30.1976 21.3197C30.1845 21.2744 30.1686 21.2298 30.1504 21.1862C30.1337 21.1463 30.1162 21.106 30.0951 21.0674C30.0859 21.0507 30.0773 21.0332 30.0674 21.0169C30.0469 20.9833 30.0247 20.9498 30.0007 20.9176C29.9851 20.897 29.9684 20.8769 29.9518 20.8574C29.9427 20.8467 29.9337 20.8353 29.9242 20.8249L29.9193 20.8184L29.8493 20.7484C29.8463 20.7456 29.8426 20.743 29.8395 20.7402C29.8316 20.7331 29.8231 20.726 29.8151 20.7191C29.7946 20.7015 29.7736 20.6835 29.7516 20.667L26.4183 18.167Z" fill="#FAFAFA"/>
</svg>
