<svg width="40" height="40" viewBox="0 0 40 40" fill="none" xmlns="http://www.w3.org/2000/svg">
<path d="M4.375 7.8125C5.53532 7.8125 6.6486 8.27295 7.46908 9.09342C8.28955 9.9139 8.75 11.0272 8.75 12.1875V26.25C8.75 26.7473 8.94687 27.2249 9.2985 27.5765C9.65013 27.9281 10.1277 28.125 10.625 28.125H35.625C36.3154 28.125 36.875 28.6846 36.875 29.375C36.875 30.0654 36.3154 30.625 35.625 30.625H33.3236C33.5993 31.2061 33.75 31.8446 33.75 32.5C33.75 33.6603 33.2895 34.7736 32.4691 35.5941C31.6486 36.4145 30.5353 36.875 29.375 36.875C28.2147 36.875 27.1014 36.4145 26.2809 35.5941C25.4605 34.7736 25 33.6603 25 32.5C25 31.8446 25.1507 31.2061 25.4264 30.625H19.2611C19.5368 31.2061 19.6875 31.8446 19.6875 32.5C19.6875 33.6603 19.227 34.7736 18.4066 35.5941C17.5861 36.4145 16.4728 36.875 15.3125 36.875C14.1522 36.875 13.0389 36.4145 12.2184 35.5941C11.398 34.7736 10.9375 33.6603 10.9375 32.5C10.9375 31.8446 11.0882 31.2061 11.3639 30.625H10.625C9.46468 30.625 8.3514 30.1645 7.53092 29.3441C6.71045 28.5236 6.25 27.4103 6.25 26.25V12.1875C6.25 11.6902 6.05313 11.2126 5.7015 10.861C5.34987 10.5094 4.87228 10.3125 4.375 10.3125C3.68464 10.3125 3.125 9.75286 3.125 9.0625C3.125 8.37214 3.68464 7.8125 4.375 7.8125Z" fill="#FAFAFA"/>
<path fill-rule="evenodd" clip-rule="evenodd" d="M24.6875 3.125C25.8478 3.125 26.9611 3.58545 27.7816 4.40592C28.602 5.2264 29.0625 6.33968 29.0625 7.5V9.375H32.5244C32.5342 9.37516 32.5457 9.3762 32.5586 9.37663C32.5848 9.3775 32.6181 9.37878 32.6562 9.38151C32.7321 9.38693 32.8323 9.39623 32.9492 9.41569C33.1774 9.45372 33.501 9.53302 33.8395 9.70215C34.1831 9.87395 34.5655 10.1514 34.8584 10.5908C35.1565 11.038 35.3125 11.5781 35.3125 12.1875V21.5869C35.3123 21.5967 35.3113 21.6082 35.3109 21.6211C35.31 21.6473 35.3087 21.6806 35.306 21.7188C35.3006 21.7946 35.2913 21.8948 35.2718 22.0117C35.2338 22.2399 35.1545 22.5635 34.9854 22.902C34.8136 23.2456 34.5361 23.628 34.0967 23.9209C33.6495 24.219 33.1094 24.375 32.5 24.375H15.2881C15.2783 24.3748 15.2668 24.3738 15.2539 24.3734C15.2277 24.3725 15.1944 24.3712 15.1562 24.3685C15.0804 24.3631 14.9802 24.3538 14.8633 24.3343C14.6351 24.2963 14.3115 24.217 13.973 24.0479C13.6294 23.8761 13.247 23.5986 12.9541 23.1592C12.656 22.712 12.5 22.1719 12.5 21.5625V12.1631C12.5002 12.1533 12.5012 12.1418 12.5016 12.1289C12.5025 12.1027 12.5038 12.0694 12.5065 12.0312C12.5119 11.9554 12.5212 11.8552 12.5407 11.7383C12.5787 11.5101 12.658 11.1865 12.8271 10.848C12.9989 10.5044 13.2764 10.122 13.7158 9.8291C14.163 9.53095 14.7031 9.375 15.3125 9.375H18.75V7.5C18.75 6.33968 19.2105 5.2264 20.0309 4.40592C20.8514 3.58545 21.9647 3.125 23.125 3.125H24.6875ZM15.14 11.8945C15.1138 11.902 15.1025 11.9092 15.1025 11.9092C15.1025 11.9092 15.0867 11.9182 15.0635 11.9645C15.0376 12.0163 15.0189 12.084 15.0081 12.1484C15.0034 12.177 15.0007 12.1988 15 12.2087V21.5625C15 21.653 15.0117 21.7076 15.0195 21.735C15.027 21.7612 15.0342 21.7725 15.0342 21.7725C15.0342 21.7725 15.0432 21.7883 15.0895 21.8115C15.1413 21.8374 15.209 21.8561 15.2734 21.8669C15.302 21.8716 15.3238 21.8743 15.3337 21.875H18.75V11.875H15.3125C15.222 11.875 15.1674 11.8867 15.14 11.8945ZM29.0625 21.875H32.5C32.5905 21.875 32.6451 21.8633 32.6725 21.8555C32.6987 21.848 32.71 21.8408 32.71 21.8408C32.71 21.8408 32.7258 21.8318 32.749 21.7855C32.7749 21.7337 32.7936 21.666 32.8044 21.6016C32.8091 21.573 32.8118 21.5512 32.8125 21.5413V12.1875C32.8125 12.097 32.8008 12.0424 32.793 12.015C32.7855 11.9888 32.7783 11.9775 32.7783 11.9775C32.7783 11.9775 32.7693 11.9617 32.723 11.9385C32.6712 11.9126 32.6035 11.8939 32.5391 11.8831C32.5105 11.8784 32.4887 11.8757 32.4788 11.875H29.0625V21.875ZM23.125 5.625C22.6277 5.625 22.1501 5.82187 21.7985 6.1735C21.4469 6.52513 21.25 7.00272 21.25 7.5V9.375H26.5625V7.5C26.5625 7.00272 26.3656 6.52513 26.014 6.1735C25.6624 5.82187 25.1848 5.625 24.6875 5.625H23.125Z" fill="#FAFAFA"/>
</svg>
