<svg width="40" height="40" viewBox="0 0 40 40" fill="none" xmlns="http://www.w3.org/2000/svg">
<path fill-rule="evenodd" clip-rule="evenodd" d="M13.6686 14.3337C13.9338 14.3337 14.1891 14.4391 14.3766 14.6266C14.5639 14.8141 14.6696 15.068 14.6696 15.333C14.6696 15.598 14.5638 15.8519 14.3766 16.0394C14.1891 16.2269 13.9338 16.3324 13.6686 16.3324H13.3366V19.3337H15.0293L12.8825 23.6126C12.703 24.011 12.6242 24.4478 12.653 24.8838C12.6819 25.32 12.818 25.7428 13.0485 26.1143C13.2789 26.4855 13.5967 26.7949 13.9746 27.0143C14.3526 27.2338 14.7797 27.3563 15.2165 27.3724H15.3353L14.7754 30.7334C14.6914 31.2917 14.7878 31.862 15.0488 32.3626C15.31 32.8634 15.7228 33.2691 16.2288 33.5199C16.5762 33.6781 16.9539 33.7592 17.3356 33.7591C17.7053 33.7564 18.0709 33.6777 18.4082 33.5264C18.7454 33.375 19.0475 33.1545 19.2952 32.8802L26.7497 24.3597C27.0268 24.0459 27.2229 23.6693 27.3226 23.2627C27.4222 22.8559 27.4218 22.4305 27.321 22.0241C27.22 21.6175 27.0216 21.2401 26.7432 20.9271C26.4648 20.6143 26.1145 20.3732 25.7227 20.2256L26.0026 19.6527V16.3324H25.6689C25.4038 16.3323 25.15 16.2268 24.9626 16.0394C24.7751 15.8519 24.6696 15.5981 24.6696 15.333C24.6696 15.0679 24.7751 14.8141 24.9626 14.6266C25.15 14.4392 25.4038 14.3337 25.6689 14.3337H34.0023C34.2675 14.3337 34.5227 14.4391 34.7103 14.6266C34.8974 14.8141 35.0032 15.0681 35.0033 15.333C35.0033 15.5979 34.8974 15.8519 34.7103 16.0394C34.5227 16.2269 34.2675 16.3324 34.0023 16.3324H33.6686V19.3337C34.1991 19.3337 34.7079 19.5445 35.083 19.9196C35.4578 20.2945 35.6688 20.8022 35.6689 21.3324V34C35.6689 34.5303 35.458 35.0394 35.083 35.4144C34.708 35.7892 34.1988 36.0003 33.6686 36.0003H6.33626C5.80597 36.0003 5.29692 35.7893 4.92188 35.4144C4.54687 35.0394 4.33601 34.5303 4.33594 34V21.3324C4.33612 20.8023 4.54716 20.2945 4.92188 19.9196C5.29695 19.5445 5.80583 19.3337 6.33626 19.3337V16.3324H6.0026C5.73739 16.3324 5.48376 16.2269 5.29622 16.0394C5.1087 15.8519 5.00326 15.5982 5.00326 15.333C5.00327 15.0678 5.1087 14.8142 5.29622 14.6266C5.48376 14.4391 5.7374 14.3337 6.0026 14.3337H13.6686ZM8.33659 19.3337H11.3363V16.3324H8.33659V19.3337ZM28.0029 19.3337H31.6699V16.3324H28.0029V19.3337Z" fill="#FAFAFA"/>
<path d="M23.7354 17.8005C23.8371 17.8012 23.938 17.827 24.0267 17.877C24.1152 17.9269 24.1899 17.9988 24.2432 18.0853C24.2963 18.1717 24.3263 18.2704 24.3311 18.3717C24.3357 18.4734 24.3144 18.5752 24.2692 18.6663L22.5618 22.0534H24.7884C24.9034 22.0512 25.0168 22.083 25.1139 22.1445C25.2111 22.2062 25.2882 22.295 25.3353 22.4001C25.3747 22.497 25.3875 22.6027 25.3711 22.7061C25.3546 22.8094 25.3101 22.9061 25.2425 22.986L17.7897 31.5065C17.7329 31.57 17.6625 31.6201 17.5846 31.6546C17.5455 31.6719 17.5042 31.6851 17.4626 31.6937L17.2087 31.7197C17.1663 31.7197 17.1232 31.7161 17.0817 31.7067C16.9658 31.6489 16.8713 31.5546 16.8115 31.4398C16.752 31.3252 16.7307 31.1948 16.7497 31.0671L17.6693 25.3737H15.1888C15.0861 25.3733 14.9847 25.3475 14.8942 25.2988C14.8038 25.2501 14.7265 25.1792 14.6696 25.0938C14.6239 25.0027 14.5996 24.901 14.5996 24.7992C14.5997 24.6975 14.6239 24.5971 14.6696 24.5062L17.8695 18.1325C17.9199 18.0344 17.9958 17.9518 18.0892 17.8932C18.1829 17.8347 18.2913 17.8028 18.4017 17.8005H23.7354Z" fill="#FAFAFA"/>
<path d="M13.6702 10.4795C13.9352 10.4796 14.1892 10.5852 14.3766 10.7725C14.5642 10.96 14.6696 11.2153 14.6696 11.4805C14.6694 11.7454 14.564 11.9995 14.3766 12.1868C14.1892 12.3742 13.9352 12.4797 13.6702 12.4798H6.0026C5.73765 12.4796 5.4836 12.3742 5.29622 12.1868C5.10887 11.9995 5.00346 11.7454 5.00326 11.4805C5.00326 11.2153 5.10869 10.96 5.29622 10.7725C5.4836 10.5851 5.73767 10.4797 6.0026 10.4795H13.6702Z" fill="#FAFAFA"/>
<path d="M34.0023 10.4795C34.2675 10.4795 34.5227 10.5849 34.7103 10.7725C34.8978 10.96 35.0033 11.2153 35.0033 11.4805C35.003 11.7454 34.8976 11.9995 34.7103 12.1868C34.5227 12.3744 34.2675 12.4798 34.0023 12.4798H25.6689C25.404 12.4796 25.1499 12.3742 24.9626 12.1868C24.7752 11.9995 24.6698 11.7454 24.6696 11.4805C24.6696 11.2153 24.775 10.96 24.9626 10.7725C25.1499 10.5851 25.404 10.4797 25.6689 10.4795H34.0023Z" fill="#FAFAFA"/>
<path d="M9.6696 4.63965C9.93481 4.63965 10.1901 4.74508 10.3776 4.93262C10.5648 5.11997 10.6704 5.37417 10.6706 5.639V6.66602H13.6702C13.9352 6.6661 14.1892 6.77172 14.3766 6.95898C14.5642 7.14652 14.6696 7.40178 14.6696 7.66699C14.6694 7.93196 14.564 8.186 14.3766 8.37337C14.1892 8.56072 13.9353 8.66625 13.6702 8.66634H6.0026C5.73763 8.66617 5.48361 8.56075 5.29622 8.37337C5.10885 8.186 5.00343 7.93196 5.00326 7.66699C5.00326 7.40178 5.10869 7.14652 5.29622 6.95898C5.48359 6.77169 5.73769 6.66619 6.0026 6.66602H8.67025V5.639C8.67042 5.37402 8.77583 5.12 8.96322 4.93262C9.15066 4.74526 9.40457 4.63973 9.6696 4.63965Z" fill="#FAFAFA"/>
<path d="M29.8421 4.63965C30.1073 4.63965 30.3626 4.74508 30.5501 4.93262C30.7375 5.11999 30.8429 5.37406 30.8431 5.639V6.66602H34.0023C34.2675 6.66602 34.5227 6.77145 34.7103 6.95898C34.8978 7.14652 35.0033 7.40178 35.0033 7.66699C35.0031 7.93189 34.8976 8.18601 34.7103 8.37337C34.5227 8.56091 34.2675 8.66634 34.0023 8.66634H25.6689C25.404 8.66617 25.1499 8.56075 24.9626 8.37337C24.7752 8.186 24.6698 7.93196 24.6696 7.66699C24.6696 7.40178 24.775 7.14652 24.9626 6.95898C25.1499 6.77169 25.404 6.66619 25.6689 6.66602H28.8428V5.639C28.8429 5.37405 28.9484 5.11999 29.1357 4.93262C29.3231 4.74527 29.5772 4.63986 29.8421 4.63965Z" fill="#FAFAFA"/>
</svg>
