<svg width="32" height="32" viewBox="0 0 32 32" fill="none" xmlns="http://www.w3.org/2000/svg">
<path d="M18.293 4.29298C18.659 3.92694 19.2388 3.90383 19.6315 4.22397L19.707 4.29298L26 10.5859V6.60027C26 6.04807 26.4478 5.60041 27 5.60027C27.5522 5.60044 28 6.04809 28 6.60027V13C28 13.0114 27.9978 13.0226 27.9974 13.0339C27.9971 13.043 27.9967 13.0521 27.9961 13.0612C27.993 13.1124 27.9858 13.1622 27.9753 13.2109C27.9361 13.3926 27.8482 13.5659 27.707 13.707C27.6141 13.8 27.5072 13.8705 27.3932 13.9193C27.377 13.9262 27.3591 13.9288 27.3425 13.9349C27.2994 13.9507 27.2567 13.9656 27.2122 13.9753C27.1631 13.9859 27.1128 13.993 27.0612 13.9961C27.0521 13.9967 27.043 13.9971 27.0339 13.9974C27.0226 13.9978 27.0114 14 27 14H20.6003C20.048 14 19.6003 13.5522 19.6003 13C19.6004 12.4478 20.0481 12 20.6003 12H24.5859L18.293 5.70704L18.224 5.63152C17.9038 5.23875 17.9269 4.65902 18.293 4.29298Z" fill="#FAFAFA"/>
<path d="M28 23.2001V24.8001C28 25.6487 27.6628 26.4627 27.0627 27.0628C26.4626 27.6629 25.6486 28.0001 24.8 28.0001H20L10.4 20.0001H7.2C6.35131 20.0001 5.53738 19.6629 4.93726 19.0628C4.33714 18.4627 4 17.6487 4 16.8001V15.2001C4 14.3514 4.33714 13.5374 4.93726 12.9373C5.53738 12.3372 6.35131 12.0001 7.2 12.0001H12L21.6 20.0001H24.8C25.6486 20.0001 26.4626 20.3372 27.0627 20.9373C27.6628 21.5374 28 22.3514 28 23.2001Z" fill="#FAFAFA"/>
</svg>
