<svg width="32" height="32" viewBox="0 0 32 32" fill="none" xmlns="http://www.w3.org/2000/svg">
<path d="M18.4 4H13.6C12.7164 4 12 4.95513 12 6.13333V7.2C12 8.3782 12.7164 9.33333 13.6 9.33333H18.4C19.2836 9.33333 20 8.3782 20 7.2V6.13333C20 4.95513 19.2836 4 18.4 4Z" fill="#FAFAFA"/>
<path d="M10 6.66699V7.2002C10.0001 8.18002 10.295 9.14503 10.8682 9.90918C11.4419 10.674 12.3882 11.333 13.6006 11.333H18.3994C19.6118 11.333 20.5581 10.674 21.1318 9.90918C21.705 9.14503 21.9999 8.18002 22 7.2002V6.66699H23.5557C24.0271 6.66702 24.4792 6.85414 24.8125 7.1875C25.1458 7.52088 25.333 7.97288 25.333 8.44434V26.2227C25.3329 26.694 25.1457 27.1463 24.8125 27.4795C24.4792 27.8127 24.027 28 23.5557 28H8.44434C7.97295 28 7.52086 27.8127 7.1875 27.4795C6.85422 27.1463 6.66711 26.694 6.66699 26.2227V8.44434C6.66702 7.97287 6.85414 7.52088 7.1875 7.1875C7.52088 6.85414 7.97287 6.66702 8.44434 6.66699H10Z" fill="#FAFAFA"/>
<path d="M20 6.66699V7.2L19.9922 7.41797C19.9103 8.4938 19.2285 9.33333 18.4 9.33333H13.6L13.4365 9.32324C12.6835 9.2212 12.0842 8.42202 12.0078 7.41797L12 7.2V6.66699H20Z" fill="#FAFAFA"/>
<path d="M16 14.5127C16.5521 14.5127 16.9998 14.9606 17 15.5127V17.5127H19C19.5521 17.5127 19.9998 17.9606 20 18.5127C20 19.065 19.5523 19.5127 19 19.5127H17V21.5127C17 22.065 16.5523 22.5127 16 22.5127C15.4477 22.5127 15 22.065 15 21.5127V19.5127H13C12.4477 19.5127 12 19.065 12 18.5127C12.0002 17.9606 12.4479 17.5127 13 17.5127H15V15.5127C15.0002 14.9606 15.4479 14.5127 16 14.5127Z" fill="#131313"/>
</svg>
