<svg width="32" height="32" viewBox="0 0 32 32" fill="none" xmlns="http://www.w3.org/2000/svg">
<path fill-rule="evenodd" clip-rule="evenodd" d="M25.6523 1.88021C26.1565 1.93153 26.5508 2.35731 26.5508 2.875C26.5508 3.39269 26.1565 3.81847 25.6523 3.86979L25.5508 3.875H21.7747V4.13932C21.7581 5.33017 21.2782 6.46763 20.4362 7.3099C19.5938 8.15227 18.4555 8.63315 17.2643 8.64974H17V24.3503L17.0182 24.7214C17.0546 25.0897 17.1456 25.4511 17.2878 25.7943C17.4774 26.2522 17.755 26.669 18.1055 27.0195C18.456 27.3701 18.8727 27.6488 19.3307 27.8385C19.7885 28.0281 20.2793 28.125 20.7747 28.125L21.1484 28.1068C22.0124 28.0209 22.8246 27.6388 23.444 27.0195C24.152 26.3116 24.5495 25.3515 24.5495 24.3503V24.2135H21.9622C21.4103 24.2135 20.9629 23.7653 20.9622 23.2135V21.9635C20.9622 21.3616 21.0817 20.7643 21.3125 20.2083C21.5433 19.6527 21.8812 19.1474 22.3073 18.7227C22.7338 18.2977 23.2414 17.9607 23.7982 17.7318C24.3538 17.5034 24.9488 17.3877 25.5495 17.3893L25.5534 17.388L25.5521 17.3893C26.7646 17.3899 27.9277 17.8704 28.7852 18.7279C29.6429 19.5858 30.125 20.7504 30.125 21.9635V23.2135C30.1244 23.7652 29.6768 24.2134 29.125 24.2135H26.5495V24.3503C26.5495 25.8819 25.9411 27.3506 24.8581 28.4336C23.8427 29.4489 22.4886 30.0477 21.0612 30.1185L20.7747 30.125C20.0165 30.125 19.2656 29.9763 18.5651 29.6862C17.8644 29.396 17.2277 28.9699 16.6914 28.4336C16.4343 28.1764 16.2034 27.8957 16 27.5964C15.7974 27.8942 15.5669 28.1752 15.3086 28.4336C14.2257 29.5164 12.7566 30.1248 11.2253 30.125C9.69388 30.1249 8.22486 29.5164 7.14193 28.4336C6.1267 27.4183 5.52786 26.064 5.45703 24.6367L5.45052 24.3503V24.2135H2.875C2.32311 24.2135 1.87563 23.7653 1.875 23.2135V21.9635C1.875 20.7503 2.35707 19.5858 3.21484 18.7279C4.07282 17.8699 5.23716 17.388 6.45052 17.388L6.67708 17.3932C7.80771 17.4494 8.88061 17.9236 9.6849 18.7279C10.5427 19.5858 11.0247 20.7503 11.0247 21.9635V23.2135C11.0241 23.7653 10.5766 24.2135 10.0247 24.2135H7.45052V24.3503L7.46875 24.724C7.55467 25.5879 7.93676 26.4002 8.55599 27.0195C9.26385 27.7272 10.2243 28.1249 11.2253 28.125C12.2262 28.1248 13.1867 27.7272 13.8945 27.0195C14.5137 26.4003 14.8959 25.5878 14.9818 24.724L15 24.3503V8.64974H14.7357C13.5309 8.63272 12.3809 8.14071 11.5365 7.28125C10.6922 6.42169 10.2209 5.26347 10.2253 4.05859V3.875H6.45052C5.89824 3.875 5.45052 3.42728 5.45052 2.875C5.45052 2.32272 5.89824 1.875 6.45052 1.875H25.5508L25.6523 1.88021Z" fill="#FAFAFA"/>
<path d="M6.66667 12.3333C7.21895 12.3333 7.66667 12.781 7.66667 13.3333V14.6667C7.66667 15.219 7.21895 15.6667 6.66667 15.6667C6.11438 15.6667 5.66667 15.219 5.66667 14.6667V13.3333C5.66667 12.781 6.11438 12.3333 6.66667 12.3333Z" fill="#FAFAFA"/>
<path d="M25.3333 12.3333C25.8856 12.3333 26.3333 12.781 26.3333 13.3333V14.6667C26.3333 15.219 25.8856 15.6667 25.3333 15.6667C24.781 15.6667 24.3333 15.219 24.3333 14.6667V13.3333C24.3333 12.781 24.781 12.3333 25.3333 12.3333Z" fill="#FAFAFA"/>
</svg>
