<svg width="32" height="32" viewBox="0 0 32 32" fill="none" xmlns="http://www.w3.org/2000/svg">
<path fill-rule="evenodd" clip-rule="evenodd" d="M25.599 11.734C25.8816 11.7341 26.1529 11.8455 26.3529 12.0452C26.5529 12.2453 26.6654 12.5176 26.6654 12.8005C26.6653 13.0832 26.5528 13.3544 26.3529 13.5544C26.1529 13.7543 25.8817 13.8668 25.599 13.8669H25.375C25.2478 13.8674 25.1248 13.9127 25.0273 13.9945C24.9299 14.0763 24.8636 14.1895 24.8411 14.3148L23.1667 25.2484C23.158 25.2913 23.1595 25.3362 23.1706 25.3786C23.1817 25.4208 23.202 25.46 23.2305 25.4932C23.2916 25.5579 23.3759 25.5963 23.4648 25.5999C23.7477 25.5999 24.02 25.7124 24.2201 25.9124C24.4199 26.1124 24.5324 26.3837 24.5326 26.6663V27.734C24.5324 28.0167 24.4199 28.2881 24.2201 28.488C24.02 28.688 23.7477 28.8005 23.4648 28.8005H8.53255C8.24965 28.8005 7.97738 28.688 7.77734 28.488C7.5775 28.2881 7.46502 28.0167 7.46484 27.734V26.6663C7.46495 26.3837 7.57752 26.1124 7.77734 25.9124C7.97738 25.7124 8.24965 25.5999 8.53255 25.5999C8.62152 25.5963 8.70577 25.5579 8.76693 25.4932C8.79539 25.46 8.81573 25.4208 8.82682 25.3786C8.83789 25.3362 8.83942 25.2913 8.83073 25.2484L7.15625 14.3148C7.13379 14.1895 7.0675 14.0763 6.97005 13.9945C6.87262 13.9127 6.74961 13.8674 6.6224 13.8669H6.39844C6.11566 13.8668 5.8445 13.7543 5.64453 13.5544C5.44458 13.3544 5.33213 13.0832 5.33203 12.8005C5.33203 12.5176 5.44449 12.2453 5.64453 12.0452C5.84448 11.8455 6.11579 11.7341 6.39844 11.734H25.599ZM9.86589 13.8669C9.78915 13.8655 9.71198 13.8811 9.64193 13.9124C9.5721 13.9438 9.50961 13.9899 9.45964 14.0479C9.40858 14.1075 9.37102 14.1782 9.34896 14.2536C9.32704 14.3288 9.32122 14.4078 9.33203 14.4854L10.9753 25.152C10.9977 25.2772 11.0628 25.3905 11.1602 25.4723C11.2575 25.5541 11.3806 25.5994 11.5078 25.5999H13.2995C13.3527 25.5992 13.4055 25.5822 13.4492 25.5518C13.4927 25.5214 13.5265 25.4789 13.5456 25.4294C13.5658 25.3808 13.5699 25.3271 13.5586 25.2757C13.5472 25.2243 13.5207 25.1771 13.4818 25.1416C13.099 24.7948 12.7928 24.3715 12.5833 23.8994C12.374 23.4275 12.2659 22.917 12.2656 22.4007C12.2638 21.7434 12.4549 21.099 12.8151 20.5492C13.1752 19.9996 13.6886 19.5678 14.2917 19.307C14.3268 19.2914 14.3652 19.2836 14.4036 19.2835C14.4421 19.2835 14.4804 19.2915 14.5156 19.307C14.5832 19.3403 14.6367 19.3974 14.6654 19.4671C14.7852 19.8112 14.9953 20.1172 15.2734 20.3525C15.3036 20.3825 15.3418 20.4038 15.3828 20.415C15.4237 20.4261 15.4668 20.4269 15.5078 20.4163C15.5496 20.4093 15.5889 20.3915 15.6224 20.3656C15.6559 20.3395 15.6834 20.3055 15.7005 20.2666C15.9432 19.6738 16.037 19.0304 15.974 18.3929C15.9107 17.7551 15.6918 17.1416 15.3372 16.6077C15.3043 16.561 15.2865 16.5048 15.2865 16.4476C15.2866 16.3905 15.3043 16.3341 15.3372 16.2874C15.3714 16.2405 15.4215 16.2074 15.4779 16.1937C15.5346 16.18 15.5951 16.1869 15.6471 16.2132C16.8491 16.7446 17.8735 17.6101 18.5977 18.7067C19.3219 19.8035 19.7152 21.0865 19.7318 22.4007C19.7315 22.917 19.6234 23.4275 19.4141 23.8994C19.2046 24.3715 18.8984 24.7948 18.5156 25.1416C18.4767 25.1771 18.4502 25.2243 18.4388 25.2757C18.4275 25.3271 18.4316 25.3808 18.4518 25.4294C18.4709 25.4789 18.5047 25.5214 18.5482 25.5518C18.5919 25.5822 18.6447 25.5992 18.6979 25.5999H20.4896C20.6168 25.5994 20.7399 25.5541 20.8372 25.4723C20.9346 25.3905 20.9997 25.2772 21.0221 25.152L22.6654 14.4854C22.6762 14.4078 22.6704 14.3288 22.6484 14.2536C22.6264 14.1782 22.5888 14.1075 22.5378 14.0479C22.4878 13.9899 22.4253 13.9438 22.3555 13.9124C22.2854 13.8811 22.2082 13.8655 22.1315 13.8669H9.86589Z" fill="#FAFAFA"/>
<path fill-rule="evenodd" clip-rule="evenodd" d="M15.9987 3.2002C16.8474 3.2002 17.6616 3.53758 18.2617 4.1377C18.8618 4.7378 19.1992 5.55207 19.1992 6.40072C19.1885 6.5955 19.156 6.78853 19.1029 6.97624C19.0931 7.0236 19.0976 7.07288 19.1146 7.11816C19.1316 7.16336 19.1607 7.20357 19.1992 7.23275L21.6628 9.18457C21.7487 9.25352 21.812 9.3469 21.8424 9.4528C21.8729 9.55868 21.8696 9.67168 21.8333 9.77572C21.7971 9.87971 21.7289 9.96945 21.6393 10.0335C21.5497 10.0976 21.4422 10.1332 21.332 10.1338H10.6654C10.5553 10.1331 10.4476 10.0976 10.3581 10.0335C10.2688 9.9695 10.2015 9.87949 10.1654 9.77572C10.1291 9.67166 10.1258 9.55871 10.1562 9.4528C10.1866 9.34712 10.2489 9.25346 10.3346 9.18457L12.7995 7.23275C12.8324 7.19991 12.8559 7.15806 12.8672 7.11296C12.8784 7.06797 12.8768 7.02058 12.8633 6.97624C12.821 6.78733 12.7997 6.59431 12.7995 6.40072C12.7995 5.55222 13.1358 4.73777 13.7357 4.1377C14.3357 3.53765 15.1501 3.20028 15.9987 3.2002ZM15.9987 5.33301C15.716 5.33309 15.4447 5.44569 15.2448 5.64551C15.0448 5.84555 14.9323 6.11782 14.9323 6.40072C14.944 6.52027 14.9686 6.63829 15.0065 6.75228C15.0259 6.80477 15.0611 6.85013 15.1068 6.88249C15.1525 6.91485 15.207 6.93242 15.263 6.93327H16.7344C16.7905 6.93397 16.8461 6.91737 16.8919 6.88509C16.9379 6.85254 16.9728 6.80563 16.9909 6.75228C17.0288 6.63828 17.0534 6.52027 17.0651 6.40072C17.0651 6.11787 16.9539 5.84554 16.7539 5.64551C16.5539 5.44547 16.2816 5.33301 15.9987 5.33301Z" fill="#FAFAFA"/>
</svg>
