<svg width="32" height="32" viewBox="0 0 32 32" fill="none" xmlns="http://www.w3.org/2000/svg">
<path d="M2.66699 15.9998C2.66699 8.63604 8.63653 2.6665 16.0003 2.6665C23.3641 2.6665 29.3337 8.63604 29.3337 15.9998C29.3337 23.3636 23.3641 29.3332 16.0003 29.3332C8.63653 29.3332 2.66699 23.3636 2.66699 15.9998Z" fill="#FAFAFA"/>
<path fill-rule="evenodd" clip-rule="evenodd" d="M15 11.333C14.4477 11.333 14 11.7807 14 12.333C14 12.8853 13.5523 13.333 13 13.333C12.4477 13.333 12 12.8853 12 12.333C12 10.6762 13.3431 9.33301 15 9.33301H16.6116C18.483 9.33301 20 10.8501 20 12.7214C20 13.8544 19.4338 14.9123 18.4911 15.5408L17.7422 16.0401C17.2785 16.3492 17 16.8696 17 17.4268V17.6663C17 18.2186 16.5523 18.6663 16 18.6663C15.4477 18.6663 15 18.2186 15 17.6663V17.4268C15 16.2009 15.6127 15.056 16.6328 14.376L17.3817 13.8767C17.768 13.6192 18 13.1857 18 12.7214C18 11.9546 17.3784 11.333 16.6116 11.333H15Z" fill="black"/>
<path d="M14.6667 21.333C14.6667 20.5966 15.2636 19.9997 16 19.9997C16.7364 19.9997 17.3333 20.5966 17.3333 21.333C17.3333 22.0694 16.7364 22.6663 16 22.6663C15.2636 22.6663 14.6667 22.0694 14.6667 21.333Z" fill="black"/>
</svg>
