<svg width="32" height="32" viewBox="0 0 32 32" fill="none" xmlns="http://www.w3.org/2000/svg">
<path fill-rule="evenodd" clip-rule="evenodd" d="M25.5404 2.67196C27.6539 2.77903 29.3346 4.52661 29.3346 6.66675V25.3334L29.3294 25.5391C29.2258 27.5845 27.5858 29.2246 25.5404 29.3282L25.3346 29.3334H6.66797L6.46224 29.3282C4.41685 29.2246 2.7768 27.5845 2.67318 25.5391L2.66797 25.3334V6.66675C2.66797 4.52661 4.34871 2.77903 6.46224 2.67196L6.66797 2.66675H25.3346L25.5404 2.67196ZM6.66797 4.66675C5.5634 4.66675 4.66797 5.56218 4.66797 6.66675V25.3334C4.66797 26.438 5.5634 27.3334 6.66797 27.3334H25.3346C26.4392 27.3334 27.3346 26.438 27.3346 25.3334V6.66675C27.3346 5.56218 26.4392 4.66675 25.3346 4.66675H6.66797Z" fill="#FAFAFA"/>
<path d="M23.2935 12.2931C23.6839 11.9026 24.317 11.9027 24.7075 12.2931C25.098 12.6836 25.098 13.3166 24.7075 13.7071L22.7075 15.7071C22.317 16.0976 21.684 16.0976 21.2935 15.7071L19.2935 13.7071L19.2245 13.6316C18.9042 13.2388 18.9274 12.6591 19.2935 12.2931C19.6595 11.927 20.2392 11.9038 20.632 12.224L20.7075 12.2931L22.0005 13.586L23.2935 12.2931Z" fill="#FAFAFA"/>
<path d="M21.369 7.22405C21.7617 6.90369 22.3414 6.92704 22.7075 7.29306L24.7075 9.29306L24.7765 9.36858C25.0969 9.76134 25.0736 10.341 24.7075 10.7071C24.3414 11.0733 23.7618 11.0965 23.369 10.7761L23.2935 10.7071L22.0005 9.41415L20.7075 10.7071C20.317 11.0976 19.684 11.0976 19.2935 10.7071C18.9031 10.3166 18.903 9.68354 19.2935 9.29306L21.2935 7.29306L21.369 7.22405Z" fill="#FAFAFA"/>
<path d="M11.0752 15.7435C11.5795 15.7942 11.973 16.2206 11.9736 16.7383C11.9736 17.2902 11.5268 17.7378 10.9749 17.7383L10.7861 17.7448C10.4099 17.7712 10.0423 17.8759 9.70667 18.0521L9.5426 18.1458C9.16433 18.3789 8.84597 18.701 8.61552 19.0846L8.52177 19.2526C8.28759 19.7108 8.18184 20.2276 8.21708 20.7435L8.23661 20.9349C8.29767 21.381 8.46408 21.8067 8.72099 22.1745L8.83687 22.3281C9.11688 22.6754 9.47536 22.9497 9.88115 23.1276C10.3449 23.3308 10.8553 23.4008 11.3551 23.3307L11.5413 23.2982C11.9718 23.2069 12.376 23.0117 12.7197 22.7279L12.8629 22.6016C13.1856 22.2955 13.4328 21.9142 13.5817 21.4883C13.7639 20.9674 14.3353 20.692 14.8564 20.8737C15.3772 21.056 15.6513 21.6261 15.4697 22.1471C15.216 22.8732 14.794 23.5273 14.2392 24.0534L13.9931 24.2708C13.4012 24.7595 12.702 25.097 11.9554 25.2552L11.6324 25.3112C10.7653 25.4328 9.88178 25.3112 9.07906 24.9596C8.37672 24.6519 7.75973 24.1789 7.27958 23.5833L7.08297 23.3216C6.64292 22.6922 6.36019 21.966 6.25614 21.207L6.22229 20.8802C6.1623 20.0032 6.34079 19.1245 6.74052 18.3424L6.90068 18.056C7.29467 17.3997 7.83998 16.8452 8.49312 16.4427L8.77828 16.2799C9.45436 15.9253 10.2075 15.7388 10.9736 15.7383L11.0752 15.7435Z" fill="#FAFAFA"/>
<path d="M14.4163 15.1328C15.1882 15.1331 15.8561 15.6959 16.0218 16.4857L16.5335 18.9232C17.1148 18.9535 17.7803 19.0768 18.3134 19.5846C19.0325 20.2697 19.3343 21.461 19.3343 23.2734C19.3342 23.6745 19.0232 23.9999 18.6403 24C18.2574 23.9998 17.9476 23.6745 17.9476 23.2734C17.9475 21.5295 17.6346 20.903 17.3798 20.6602C17.1222 20.4147 16.7424 20.3659 15.9736 20.3659H14.3903C13.4967 20.3657 12.7719 19.6066 12.7718 18.6706V16.8555C12.7719 15.9045 13.5084 15.133 14.4163 15.1328Z" fill="#FAFAFA"/>
<path d="M13.8499 9.33333C15.2398 9.33338 16.3668 10.5142 16.3668 11.9701C16.3665 13.4257 15.2396 14.6054 13.8499 14.6055C12.4605 14.6051 11.3346 13.4255 11.3343 11.9701C11.3343 10.5144 12.4603 9.3337 13.8499 9.33333Z" fill="#FAFAFA"/>
</svg>
