<svg width="32" height="32" viewBox="0 0 32 32" fill="none" xmlns="http://www.w3.org/2000/svg">
<path fill-rule="evenodd" clip-rule="evenodd" d="M22.9997 2.6665C25.0247 2.6665 26.6663 4.30813 26.6663 6.33317V15.104C26.6663 15.6563 26.2186 16.104 25.6663 16.104H24.9906C23.5245 16.104 22.1229 16.7081 21.1156 17.7733L16.1247 23.0506C15.1883 24.0408 14.6664 25.3518 14.6663 26.7147V28.3332C14.6663 28.8855 14.2186 29.3332 13.6663 29.3332H8.99967C6.97463 29.3332 5.33301 27.6915 5.33301 25.6665V6.33317C5.33301 4.30812 6.97463 2.6665 8.99967 2.6665H22.9997ZM11.6663 13.3332C11.1141 13.3332 10.6663 13.7809 10.6663 14.3332C10.6663 14.8855 11.1141 15.3332 11.6663 15.3332H14.9997C15.552 15.3332 15.9997 14.8855 15.9997 14.3332C15.9997 13.7809 15.552 13.3332 14.9997 13.3332H11.6663ZM11.6663 7.99984C11.1141 7.99984 10.6663 8.44755 10.6663 8.99984C10.6663 9.55212 11.1141 9.99984 11.6663 9.99984H20.333C20.8853 9.99984 21.333 9.55212 21.333 8.99984C21.333 8.44755 20.8853 7.99984 20.333 7.99984H11.6663Z" fill="#FAFAFA"/>
<path fill-rule="evenodd" clip-rule="evenodd" d="M23.0309 18.9595C24.1577 17.8327 25.9847 17.8328 27.1117 18.9595C28.2386 20.0864 28.2386 21.9133 27.1117 23.0402L21.8929 28.259C21.2053 28.9466 20.2729 29.3331 19.3005 29.3332H17.738C17.1858 29.333 16.738 28.8853 16.738 28.3332V26.7707C16.7381 25.7984 17.1247 24.8657 17.8122 24.1782L23.0309 18.9595ZM25.6976 20.3735C25.3517 20.0279 24.7908 20.0278 24.445 20.3735L19.2262 25.5923C18.9138 25.9047 18.7381 26.3289 18.738 26.7707V27.3332H19.3005C19.7425 27.3331 20.1663 27.1574 20.4788 26.8449L25.6976 21.6261C26.0434 21.2803 26.0434 20.7194 25.6976 20.3735Z" fill="#FAFAFA"/>
<path d="M26.6663 15.104C26.6663 15.6563 26.2186 16.104 25.6663 16.104H26.6663V15.104Z" fill="#FAFAFA"/>
<path d="M14.6663 28.3332C14.6663 28.8855 14.2186 29.3332 13.6663 29.3332H14.6663V28.3332Z" fill="#FAFAFA"/>
</svg>
