<svg width="32" height="32" viewBox="0 0 32 32" fill="none" xmlns="http://www.w3.org/2000/svg">
<path d="M3 7.68612C3.00005 6.79054 3.36302 5.93568 4.0026 5.30851C4.64159 4.68195 5.50438 4.33325 6.39974 4.33325H11.0781C11.6399 4.32931 12.1948 4.46268 12.6927 4.72257C13.19 4.98228 13.6156 5.3612 13.9297 5.82544L14.9023 7.2369L14.9089 7.24601L15.0104 7.38013C15.1215 7.50792 15.2575 7.61518 15.4115 7.69653C15.6166 7.80489 15.8469 7.86316 16.082 7.8632H23.1966C24.092 7.8632 24.9548 8.2119 25.5938 8.83846C26.2332 9.46564 26.5964 10.3206 26.5964 11.2161V12.7161C26.7638 12.7667 26.9274 12.8302 27.0859 12.9062C27.5511 13.1291 27.96 13.4539 28.2799 13.858C28.5999 14.2623 28.8221 14.7352 28.9284 15.2395C29.0346 15.7439 29.0219 16.2657 28.8906 16.7642L27.043 23.8215C26.8515 24.5489 26.4185 25.1899 25.8177 25.6431C25.2191 26.0947 24.4871 26.3354 23.737 26.332L6.39974 26.3333C5.50438 26.3333 4.64159 25.9846 4.0026 25.358C3.36303 24.7308 3.00003 23.876 3 22.9804V7.68612ZM5 22.2135L9.74219 14.3463C10.0216 13.8285 10.4325 13.3926 10.9336 13.082C11.4538 12.7596 12.052 12.5828 12.6641 12.5689H24.5964V11.2161C24.5964 10.8637 24.4531 10.5208 24.1927 10.2655C23.9317 10.0099 23.5738 9.8632 23.1966 9.8632H16.082C15.5227 9.86311 14.9709 9.72597 14.4766 9.46476C13.9853 9.20508 13.5648 8.82965 13.2539 8.36971L12.2826 6.95955L12.276 6.94914C12.1493 6.7606 11.9745 6.60439 11.7669 6.49601C11.6112 6.41471 11.4412 6.36231 11.2656 6.34237L11.0885 6.33325H6.39974C6.02228 6.33325 5.66337 6.48094 5.40234 6.7369C5.14233 6.99211 5.00005 7.33399 5 7.68612V22.2135Z" fill="#FAFAFA"/>
</svg>
