<svg width="32" height="32" viewBox="0 0 32 32" fill="none" xmlns="http://www.w3.org/2000/svg">
<path fill-rule="evenodd" clip-rule="evenodd" d="M15.999 2.66602C23.3628 2.66602 29.333 8.6362 29.333 16C29.3329 23.3637 23.3628 29.333 15.999 29.333C8.63543 29.3328 2.6661 23.3636 2.66602 16C2.66602 8.63631 8.63538 2.66619 15.999 2.66602ZM15.999 19.334C15.2628 19.3342 14.666 19.9307 14.666 20.667C14.6661 21.4032 15.2628 21.9998 15.999 22C16.7353 22 17.3329 21.4033 17.333 20.667C17.333 19.9306 16.7354 19.334 15.999 19.334ZM16 10.666C15.4477 10.666 15 11.1137 15 11.666V16.999C15 17.5513 15.4477 17.999 16 17.999C16.5523 17.999 17 17.5513 17 16.999V11.666C17 11.1137 16.5523 10.666 16 10.666Z" fill="#FAFAFA"/>
<path d="M15.999 19.334C16.7354 19.334 17.333 19.9306 17.333 20.667C17.3329 21.4033 16.7353 22 15.999 22C15.2628 21.9998 14.6661 21.4032 14.666 20.667C14.666 19.9307 15.2628 19.3342 15.999 19.334Z" fill="#131313"/>
<path d="M16 10.666C16.5523 10.666 17 11.1137 17 11.666V16.999C17 17.5513 16.5523 17.999 16 17.999C15.4477 17.999 15 17.5513 15 16.999V11.666C15 11.1137 15.4477 10.666 16 10.666Z" fill="#131313"/>
</svg>
