<svg width="32" height="32" viewBox="0 0 32 32" fill="none" xmlns="http://www.w3.org/2000/svg">
<path d="M2.66602 7.99992C2.66602 6.52716 3.85992 5.33325 5.33268 5.33325H26.666C28.1388 5.33325 29.3327 6.52716 29.3327 7.99992V23.9999C29.3327 25.4727 28.1388 26.6666 26.666 26.6666H5.33268C3.85992 26.6666 2.66602 25.4727 2.66602 23.9999V7.99992Z" fill="#FAFAFA"/>
<path d="M11.6175 9.64009C11.888 9.39087 12.2809 9.26905 12.678 9.36722L12.848 9.4227L12.8809 9.43742C14.6315 10.2464 16.1177 11.5159 17.1645 13.1082L17.3422 13.3686C18.2038 14.6844 18.667 16.2151 18.667 17.7855V17.7923C18.6439 20.6571 16.2037 22.5753 13.5872 22.6632L13.3338 22.6666C10.704 22.6355 8.08655 20.7195 8.0149 17.8308C7.89844 16.5372 8.49064 15.335 9.40002 14.5291L9.58755 14.3706C9.89286 14.1029 10.2867 13.9405 10.716 14.0389C11.1097 14.1291 11.3631 14.4032 11.4881 14.6333C11.579 14.7991 11.7019 14.9526 11.8566 15.1213C12.1584 14.5117 12.2357 13.7626 12.1198 13.0029L12.0737 12.7458C11.95 12.147 11.7244 11.5684 11.4048 11.0339C11.0648 10.4715 11.3339 9.90157 11.6175 9.64009Z" fill="#131313"/>
<path d="M25.3327 15.3333C25.3327 16.4378 24.4373 17.3333 23.3327 17.3333C22.2281 17.3333 21.3327 16.4378 21.3327 15.3333C21.3327 14.2287 22.2281 13.3333 23.3327 13.3333C24.4373 13.3333 25.3327 14.2287 25.3327 15.3333Z" fill="#131313"/>
<path d="M25.3327 20.6666C25.3327 21.7712 24.4373 22.6666 23.3327 22.6666C22.2281 22.6666 21.3327 21.7712 21.3327 20.6666C21.3327 19.562 22.2281 18.6666 23.3327 18.6666C24.4373 18.6666 25.3327 19.562 25.3327 20.6666Z" fill="#131313"/>
</svg>
