<svg width="32" height="32" viewBox="0 0 32 32" fill="none" xmlns="http://www.w3.org/2000/svg">
<path d="M26 4C27.1046 4 28 4.89543 28 6V26C28 27.1046 27.1046 28 26 28H6C4.89543 28 4 27.1046 4 26V6C4 4.89543 4.89543 4 6 4H26ZM15.7236 9.60938C15.1716 9.60958 14.7238 10.0573 14.7236 10.6094V19.5283L12.0977 16.9023C11.7072 16.512 11.0741 16.512 10.6836 16.9023C10.2931 17.2928 10.2932 17.9259 10.6836 18.3164L14.0742 21.707C14.9854 22.6183 16.4628 22.6183 17.374 21.707L20.7646 18.3164C21.1549 17.9259 21.1551 17.2928 20.7646 16.9023C20.3742 16.5119 19.7411 16.5121 19.3506 16.9023L16.7236 19.5283V10.6094C16.7235 10.0572 16.2758 9.60938 15.7236 9.60938Z" fill="#FAFAFA"/>
</svg>
