<svg width="32" height="32" viewBox="0 0 32 32" fill="none" xmlns="http://www.w3.org/2000/svg">
<path d="M16.0007 23.6363L22.8407 27.8426C23.0182 27.9503 23.2236 28.003 23.431 27.994C23.6384 27.9851 23.8385 27.9148 24.006 27.7921C24.1735 27.6694 24.3009 27.4999 24.372 27.3048C24.4432 27.1098 24.4549 26.898 24.4057 26.6963L22.5457 18.8476L28.6332 13.5976C28.7884 13.4613 28.9003 13.2825 28.9551 13.0834C29.0099 12.8842 29.0051 12.6734 28.9415 12.4769C28.8778 12.2804 28.7579 12.1069 28.5968 11.9777C28.4356 11.8485 28.2401 11.7694 28.0345 11.7501L20.0457 11.1001L16.9682 3.65007C16.8898 3.45787 16.7558 3.29339 16.5835 3.17761C16.4112 3.06183 16.2083 3 16.0007 3C15.7931 3 15.5902 3.06183 15.4179 3.17761C15.2456 3.29339 15.1117 3.45787 15.0332 3.65007L11.9557 11.1001L3.96696 11.7501C3.75991 11.7683 3.56282 11.847 3.40029 11.9766C3.23777 12.1061 3.11702 12.2807 3.05314 12.4785C2.98926 12.6763 2.98508 12.8885 3.04111 13.0886C3.09715 13.2888 3.21092 13.468 3.36821 13.6038L9.45571 18.8538L7.59571 26.6963C7.54653 26.898 7.55826 27.1098 7.6294 27.3048C7.70054 27.4999 7.82791 27.6694 7.9954 27.7921C8.16289 27.9148 8.36298 27.9851 8.5704 27.994C8.77782 28.003 8.98324 27.9503 9.16071 27.8426L16.0007 23.6363Z" fill="#FAFAFA"/>
</svg>
