<svg width="32" height="32" viewBox="0 0 32 32" fill="none" xmlns="http://www.w3.org/2000/svg">
<path d="M4.6 21.6005V18.4C4.6 17.8477 5.04771 17.4 5.6 17.4C6.15228 17.4 6.6 17.8477 6.6 18.4V21.6005C6.59972 22.1526 6.15211 22.6005 5.6 22.6005C5.04789 22.6005 4.60028 22.1526 4.6 21.6005Z" fill="#FAFAFA"/>
<path d="M4.6 26.4003V24.8C4.6 24.2477 5.04771 23.8 5.6 23.8C6.15228 23.8 6.6 24.2477 6.6 24.8V26.4003C6.60007 26.5593 6.66335 26.7123 6.77578 26.8247C6.88823 26.9371 7.04118 27.0005 7.20026 27.0005H8.80052C9.35257 27.0008 9.80052 27.4484 9.80052 28.0005C9.80024 28.5524 9.35239 29.0002 8.80052 29.0005H7.20026C6.51088 29.0005 5.84933 28.7263 5.36172 28.2388C4.87417 27.7512 4.60007 27.0897 4.6 26.4003Z" fill="#FAFAFA"/>
<path d="M15.2005 27C15.7526 27.0003 16.2005 27.4479 16.2005 28C16.2005 28.5521 15.7526 28.9997 15.2005 29H12C11.4477 29 11 28.5523 11 28C11 27.4477 11.4477 27 12 27H15.2005Z" fill="#FAFAFA"/>
<path d="M24.0006 9.40065C25.114 9.40082 26.1819 9.84278 26.9694 10.6298C27.36 11.0203 27.3598 11.6546 26.9694 12.0452C26.5789 12.4353 25.9458 12.4354 25.5553 12.0452C25.1429 11.6329 24.5838 11.4008 24.0006 11.4007C23.4173 11.4007 22.8572 11.6327 22.4446 12.0452C22.0542 12.4353 21.421 12.4353 21.0306 12.0452C20.6401 11.6546 20.64 11.0203 21.0306 10.6298C21.8182 9.84261 22.887 9.40065 24.0006 9.40065Z" fill="#FAFAFA"/>
<path d="M24.0005 6.19974C25.2641 6.19982 26.5111 6.49121 27.6438 7.05131C28.1385 7.29623 28.3416 7.89622 28.0969 8.39115C27.8521 8.88611 27.252 9.08885 26.757 8.84427C25.9 8.42049 24.9566 8.19982 24.0005 8.19974C23.0443 8.19974 22.0999 8.42041 21.2427 8.84427C20.7479 9.08863 20.149 8.88578 19.9042 8.39115C19.6594 7.89609 19.8622 7.29611 20.3573 7.05131C21.49 6.49127 22.737 6.19974 24.0005 6.19974Z" fill="#FAFAFA"/>
<path fill-rule="evenodd" clip-rule="evenodd" d="M26.3997 14.2005C27.8357 14.2005 29 15.3649 29 16.8008V26.401C28.9995 27.8365 27.8353 29 26.3997 29H21.6003C20.1647 29 19.0005 27.8365 19 26.401V16.8008C19 15.3649 20.1643 14.2005 21.6003 14.2005H26.3997ZM24 23.3997C23.2271 23.3999 22.6006 24.0266 22.6003 24.7995C22.6003 25.5726 23.2269 26.1991 24 26.1992C24.7732 26.1992 25.3997 25.5727 25.3997 24.7995C25.3994 24.0266 24.773 23.3997 24 23.3997Z" fill="#FAFAFA"/>
<path fill-rule="evenodd" clip-rule="evenodd" d="M16.8021 9.61198C16.9282 10.1186 16.9986 10.6386 17.0013 11.1628L16.9896 11.5794C16.9248 12.6927 16.5787 13.7715 15.9844 14.7148C15.3899 15.6581 14.5662 16.4364 13.5898 16.9753C12.6136 17.5139 11.516 17.7967 10.401 17.7969C9.28609 17.7969 8.18848 17.5138 7.21224 16.9753C6.23591 16.4365 5.41094 15.6581 4.81641 14.7148C4.22209 13.7715 3.87726 12.6924 3.8125 11.5794C3.77393 10.9158 3.83544 10.2525 3.99349 9.61198H16.8021ZM10.3997 10.6003C9.62674 10.6004 9.00014 11.227 9 12C9.00018 12.773 9.62677 13.3996 10.3997 13.3997C11.1728 13.3997 11.7993 12.7731 11.7995 12C11.7993 11.2753 11.2488 10.6785 10.543 10.6068L10.3997 10.6003Z" fill="#FAFAFA"/>
<path d="M16.2669 3C16.6734 3.00007 17.0628 3.16193 17.3503 3.44922C17.6374 3.7366 17.7995 4.12716 17.7995 4.53385V7.61198H3V4.53385C3 4.12719 3.16166 3.73678 3.44922 3.44922C3.73678 3.16166 4.12719 3 4.53385 3H16.2669Z" fill="#FAFAFA"/>
</svg>
