<svg width="32" height="32" viewBox="0 0 32 32" fill="none" xmlns="http://www.w3.org/2000/svg">
<path d="M23.2728 6C23.5669 6 23.8321 6.16239 23.9447 6.41146C24.0572 6.66056 23.9951 6.94736 23.7871 7.13802L16.5137 13.8047C16.2297 14.0647 15.7703 14.0647 15.4864 13.8047L8.21292 7.13802C8.00503 6.94737 7.94287 6.66052 8.05537 6.41146C8.16795 6.16242 8.43317 6.00004 8.72724 6H23.2728Z" fill="#FAFAFA"/>
<path d="M15.4864 18.862C15.7703 18.6019 16.2297 18.6019 16.5137 18.862L23.7871 25.5286C23.9951 25.7193 24.0572 26.0061 23.9447 26.2552C23.8321 26.5042 23.5669 26.6667 23.2728 26.6667H8.72724C8.43317 26.6666 8.16795 26.5042 8.05537 26.2552C7.94283 26.0062 8.00504 25.7193 8.21292 25.5286L15.4864 18.862Z" fill="#FAFAFA"/>
</svg>
