<svg width="32" height="32" viewBox="0 0 32 32" fill="none" xmlns="http://www.w3.org/2000/svg">
<path fill-rule="evenodd" clip-rule="evenodd" d="M14.724 7.83984C15.1751 7.82135 15.6264 7.89138 16.0495 8.04948C16.4787 8.21002 16.8717 8.45564 17.2031 8.77214C17.5347 9.08882 17.7991 9.47029 17.9792 9.89193C18.159 10.3132 18.2517 10.7672 18.2513 11.2253V12.6133H18.388C18.9128 12.6124 19.431 12.734 19.901 12.9674C20.3128 13.1721 20.6784 13.4579 20.9753 13.8073L21.099 13.9609L21.1003 13.9635L23.7943 17.5638L29.4961 19.8477C29.8755 19.9997 30.125 20.3673 30.125 20.776V26.7383C30.1247 27.2903 29.6771 27.7383 29.125 27.7383H25.1979C25.167 27.8381 25.1326 27.937 25.0924 28.0339C24.9222 28.4448 24.6725 28.8183 24.3581 29.1328C24.0436 29.4473 23.6699 29.697 23.2591 29.8672C22.8485 30.0372 22.4079 30.1248 21.9635 30.125C21.5189 30.125 21.0775 30.0372 20.6667 29.8672C20.2559 29.697 19.8821 29.4471 19.5677 29.1328C19.2533 28.8184 19.0035 28.4446 18.8333 28.0339C18.7932 27.937 18.7574 27.8381 18.7266 27.7383H12.0729C11.9116 28.2596 11.6261 28.7398 11.2331 29.1328C10.5981 29.7678 9.73654 30.1247 8.83854 30.125C7.94035 30.125 7.07794 29.7678 6.44271 29.1328C6.04969 28.7398 5.76291 28.2597 5.60156 27.7383H2.875C2.32293 27.7383 1.87535 27.2903 1.875 26.7383V19.5755C1.875 19.5267 1.87864 19.478 1.88542 19.431C1.88694 19.4205 1.88878 19.4101 1.89062 19.3997C1.89431 19.3789 1.90129 19.3589 1.90625 19.3385C1.916 19.2986 1.92697 19.2594 1.94141 19.2214C1.95014 19.1983 1.9597 19.1758 1.97005 19.1536C1.98595 19.1195 2.00388 19.0867 2.02344 19.0547C2.03384 19.0377 2.04332 19.0202 2.05469 19.0039C2.08694 18.9576 2.12178 18.9128 2.16146 18.8724C2.17224 18.8614 2.18534 18.8529 2.19661 18.8424C2.23095 18.8106 2.26718 18.7808 2.30599 18.7539C2.31658 18.7466 2.32766 18.74 2.33854 18.7331C2.37669 18.7087 2.41658 18.6871 2.45833 18.668C2.47846 18.6587 2.49871 18.6499 2.51953 18.6419C2.53298 18.6368 2.54614 18.6309 2.5599 18.6263L5.83724 17.5365L8.51172 13.9635L8.51693 13.957C8.83441 13.5405 9.24453 13.2031 9.71354 12.9701C10.1826 12.7371 10.6989 12.6146 11.2227 12.6133H11.4258V11.2253C11.4256 10.3421 11.7706 9.49339 12.3867 8.86068C12.9979 8.23341 13.8284 7.86831 14.7031 7.83984H14.7057C14.7116 7.83952 14.7181 7.83739 14.724 7.83724V7.83984ZM8.83854 25.3503C8.47065 25.3503 8.11692 25.4977 7.85677 25.7578C7.7591 25.8556 7.67725 25.9662 7.61328 26.0859C7.50744 26.285 7.45052 26.5088 7.45052 26.7383C7.45075 27.1059 7.59685 27.4588 7.85677 27.7188C8.11693 27.9787 8.47078 28.125 8.83854 28.125C9.20611 28.1247 9.55908 27.9787 9.81901 27.7188C10.0789 27.4588 10.225 27.1059 10.2253 26.7383C10.2253 26.5088 10.167 26.285 10.0612 26.0859C9.99748 25.9664 9.91649 25.8555 9.81901 25.7578C9.55896 25.4978 9.2063 25.3504 8.83854 25.3503ZM21.9635 25.3503C21.911 25.3503 21.858 25.3535 21.806 25.3594C21.4958 25.395 21.2047 25.5349 20.9818 25.7578C20.8194 25.9204 20.7013 26.1189 20.6354 26.3346C20.5958 26.4652 20.5755 26.6015 20.5755 26.7383C20.5756 26.92 20.6115 27.1003 20.681 27.2682C20.7507 27.4363 20.8531 27.5901 20.9818 27.7188C21.1105 27.8474 21.2642 27.9499 21.4323 28.0195C21.6004 28.089 21.7816 28.125 21.9635 28.125C22.1452 28.1248 22.3256 28.089 22.4935 28.0195C22.6617 27.9498 22.8153 27.8475 22.944 27.7188C23.0728 27.59 23.1751 27.4365 23.2448 27.2682C23.3143 27.1003 23.3501 26.9201 23.3503 26.7383C23.3503 26.6016 23.3299 26.4651 23.2904 26.3346C23.2248 26.1188 23.1063 25.9204 22.944 25.7578C22.8035 25.6173 22.6355 25.5108 22.4531 25.4414C22.4132 25.4263 22.373 25.4124 22.332 25.401C22.2627 25.3818 22.1918 25.3676 22.1198 25.3594C22.068 25.3535 22.0159 25.3503 21.9635 25.3503ZM11.0664 14.6224C10.9056 14.6413 10.7486 14.688 10.6029 14.7604C10.4089 14.8568 10.2394 14.997 10.1081 15.1693L7.55859 18.5755H22.0534L19.5013 15.1654C19.3717 14.9935 19.2032 14.8536 19.0104 14.7578C18.8178 14.6623 18.6056 14.6128 18.3906 14.6133H11.2279L11.0664 14.6224Z" fill="#FAFAFA"/>
<path d="M9.04297 4.26823C9.43349 3.8777 10.0665 3.8777 10.457 4.26823L12.1445 5.95573C12.5349 6.34627 12.535 6.97932 12.1445 7.36979C11.754 7.7601 11.121 7.7601 10.7305 7.36979L9.04297 5.68229C8.6525 5.29182 8.65261 4.65877 9.04297 4.26823Z" fill="#FAFAFA"/>
<path d="M19.168 4.26823C19.5585 3.8777 20.1915 3.8777 20.582 4.26823C20.9724 4.65877 20.9725 5.29182 20.582 5.68229L18.8945 7.36979C18.504 7.7601 17.871 7.7601 17.4805 7.36979C17.09 6.97932 17.0901 6.34627 17.4805 5.95573L19.168 4.26823Z" fill="#FAFAFA"/>
<path d="M14.8125 1.875C15.3648 1.875 15.8125 2.32272 15.8125 2.875V5.26302C15.8122 5.81507 15.3646 6.26302 14.8125 6.26302C14.2604 6.26302 13.8128 5.81507 13.8125 5.26302V2.875C13.8125 2.32272 14.2602 1.875 14.8125 1.875Z" fill="#FAFAFA"/>
</svg>
