<svg width="32" height="32" viewBox="0 0 32 32" fill="none" xmlns="http://www.w3.org/2000/svg">
<path fill-rule="evenodd" clip-rule="evenodd" d="M14.9996 6.33333C14.9996 5.04467 16.0442 4 17.3329 4H23.9512C25.1425 4 26.2597 4.57884 26.9467 5.55216L29.0644 8.55216C29.9592 9.81983 29.9592 11.5135 29.0644 12.7812L26.9467 15.7812C26.2597 16.7545 25.1425 17.3333 23.9512 17.3333H17.3329C17.2197 17.3333 17.1084 17.3253 16.9996 17.3097V27C16.9996 27.5523 16.5519 28 15.9996 28C15.4473 28 14.9996 27.5523 14.9996 27V22.6667H8.04799C6.8566 22.6667 5.73949 22.0878 5.05244 21.1145L2.93479 18.1145C2.03997 16.8468 2.03997 15.1532 2.93479 13.8855L5.05244 10.8855C5.73949 9.91217 6.8566 9.33333 8.04799 9.33333H14.6662C14.7794 9.33333 14.8907 9.34139 14.9996 9.35696V6.33333ZM17.3329 6C17.1488 6 16.9996 6.14924 16.9996 6.33333V15C16.9996 15.1841 17.1488 15.3333 17.3329 15.3333H23.9512C24.4927 15.3333 25.0005 15.0702 25.3128 14.6278L27.4304 11.6278C27.8372 11.0516 27.8372 10.2817 27.4304 9.70553L25.3128 6.70553C25.0005 6.26311 24.4927 6 23.9512 6H17.3329Z" fill="#FAFAFA"/>
</svg>
