<svg width="24" height="24" viewBox="0 0 24 24" fill="none" xmlns="http://www.w3.org/2000/svg">
<path fill-rule="evenodd" clip-rule="evenodd" d="M18.4502 2C19.3061 2.00011 19.9999 2.69392 20 3.5498V20.4502C20 20.4669 19.9976 20.4834 19.9971 20.5H21.25C21.6642 20.5 22 20.8358 22 21.25C22 21.6642 21.6642 22 21.25 22H2.75C2.33579 22 2 21.6642 2 21.25C2 20.8358 2.33579 20.5 2.75 20.5H4.00293C4.0024 20.4834 4 20.4669 4 20.4502V3.5498C4.00011 2.69392 4.69392 2.00011 5.5498 2H18.4502ZM5.5498 3.5C5.52235 3.50011 5.5001 3.52235 5.5 3.5498V20.4502C5.5001 20.4777 5.52235 20.4999 5.5498 20.5H7V5.75586C7.00001 5.34137 7.33597 5.0049 7.75098 5.00488H16.249C16.6632 5.0049 17 5.34051 17 5.75586V20.5H18.4502C18.4777 20.4999 18.4999 20.4777 18.5 20.4502V3.5498C18.4999 3.52235 18.4777 3.50011 18.4502 3.5H5.5498ZM8.5 14.252V20.5H11.25V14.252H8.5ZM12.75 14.252V20.5H15.5V14.252H12.75ZM8.5 12.752H11.25V6.50488H8.5V12.752ZM12.75 12.752H15.5V6.50488H12.75V12.752Z" fill="#FAFAFA"/>
</svg>
