<svg width="24" height="24" viewBox="0 0 24 24" fill="none" xmlns="http://www.w3.org/2000/svg">
<path d="M18.0241 4.0613C18.5131 4.10995 18.9727 4.32673 19.3232 4.67728L19.4654 4.83353C19.7769 5.21364 19.9491 5.69182 19.9492 6.1877V19.8636C19.9491 20.4302 19.7238 20.9734 19.3232 21.374C18.9226 21.7746 18.3794 21.9999 17.8128 22H6.18818C5.69229 21.9999 5.21411 21.8277 4.83401 21.5162L4.67776 21.374C4.27708 20.9734 4.05185 20.4301 4.05176 19.8636V6.1877C4.05185 5.62111 4.27715 5.07792 4.67776 4.67728L4.83401 4.53506C5.21416 4.22353 5.69236 4.05136 6.18818 4.05128C6.61301 4.05128 6.95741 4.39568 6.95741 4.82051C6.95741 5.24535 6.61301 5.58974 6.18818 5.58974C6.06938 5.58981 5.95409 5.62499 5.85665 5.6899L5.7655 5.76502C5.65338 5.87716 5.59031 6.02915 5.59022 6.1877V19.8636C5.59031 20.0222 5.65346 20.1742 5.7655 20.2863L5.85665 20.3614C5.95413 20.4263 6.06944 20.4615 6.18818 20.4615H17.8128C17.9713 20.4615 18.1234 20.3984 18.2355 20.2863C18.3475 20.1742 18.4106 20.0221 18.4107 19.8636V6.1877C18.4107 6.06896 18.3755 5.95365 18.3106 5.85617L18.2355 5.76502C18.1515 5.68101 18.0449 5.6248 17.93 5.60176L17.8128 5.58974L17.7336 5.58574C17.3458 5.54628 17.0435 5.21875 17.0435 4.82051C17.0435 4.39568 17.3879 4.05128 17.8128 4.05128L18.0241 4.0613Z" fill="#FAFAFA"/>
<path d="M14.4764 10.4936C14.7418 10.1619 15.2264 10.1081 15.5582 10.3734C15.8899 10.6388 15.9438 11.1234 15.6784 11.4551L11.5758 16.5833C11.3624 16.85 11.0034 16.94 10.6954 16.8197L10.5672 16.7546L8.5159 15.4726L8.4508 15.4275C8.14315 15.1884 8.06053 14.7504 8.27151 14.4129C8.48251 14.0754 8.91242 13.9576 9.26209 14.1294L9.33121 14.1685L10.8006 15.0869L14.4764 10.4936Z" fill="#FAFAFA"/>
<path fill-rule="evenodd" clip-rule="evenodd" d="M13.8464 2C14.4826 2 14.9998 2.34572 15.3318 2.78826C15.6636 3.23061 15.8465 3.8065 15.8466 4.40986V5.23117C15.8465 5.83452 15.6636 6.41042 15.3318 6.85276C14.9998 7.2953 14.4826 7.64103 13.8464 7.64103H10.1545C9.51839 7.64103 9.00116 7.2953 8.66915 6.85276C8.33739 6.41042 8.1544 5.83453 8.15432 5.23117V4.40986C8.1544 3.8065 8.33739 3.23061 8.66915 2.78826C9.00116 2.34572 9.51839 2 10.1545 2H13.8464ZM10.1545 3.53846C10.1111 3.53846 10.0126 3.56048 9.89911 3.71174C9.78567 3.86319 9.69287 4.10747 9.69278 4.40986V5.23117C9.69287 5.53355 9.78566 5.77783 9.89911 5.92929C10.0126 6.08055 10.1111 6.10256 10.1545 6.10256H13.8464C13.8899 6.10256 13.9884 6.08055 14.1018 5.92929C14.2153 5.77783 14.3081 5.53355 14.3082 5.23117V4.40986C14.3081 4.10747 14.2153 3.86319 14.1018 3.71174C13.9884 3.56048 13.8899 3.53846 13.8464 3.53846H10.1545Z" fill="#FAFAFA"/>
</svg>
