<svg width="24" height="24" viewBox="0 0 24 24" fill="none" xmlns="http://www.w3.org/2000/svg">
<path fill-rule="evenodd" clip-rule="evenodd" d="M12 7.20996C12.8354 7.20996 13.5695 7.51579 14.1611 8.10742C14.7528 8.69905 15.0586 9.4332 15.0586 10.2686C15.0586 10.8428 14.9129 11.3822 14.6182 11.8691C14.4251 12.1881 14.1818 12.4577 13.8945 12.6787L14.3545 15.2139H14.3525C14.4353 15.6279 14.3134 16.0136 14.0527 16.3145C13.8017 16.6041 13.4536 16.79 13.0391 16.79H10.9609C10.5464 16.79 10.1983 16.6041 9.94727 16.3145C9.6866 16.0136 9.56475 15.6279 9.64746 15.2139H9.64551L10.1045 12.6787C9.81753 12.4578 9.57477 12.1878 9.38184 11.8691C9.0871 11.3822 8.94141 10.8428 8.94141 10.2686C8.94141 9.4332 9.24724 8.69905 9.83887 8.10742C10.4305 7.51579 11.1646 7.20996 12 7.20996ZM12 8.70996C11.5656 8.70996 11.212 8.8554 10.8994 9.16797C10.5868 9.48054 10.4414 9.83419 10.4414 10.2686C10.4414 10.5791 10.5174 10.8478 10.665 11.0918C10.8124 11.3352 11.0087 11.517 11.2676 11.6465C11.5655 11.7955 11.7292 12.1234 11.6699 12.4512L11.1562 15.29H12.8438L12.3301 12.4512C12.2708 12.1234 12.4345 11.7955 12.7324 11.6465C12.9913 11.517 13.1876 11.3352 13.335 11.0918C13.4826 10.8478 13.5586 10.5791 13.5586 10.2686C13.5586 9.83418 13.4132 9.48054 13.1006 9.16797C12.788 8.8554 12.4344 8.70996 12 8.70996Z" fill="#FAFAFA"/>
<path fill-rule="evenodd" clip-rule="evenodd" d="M18.5 2.42383C19.8806 2.42383 20.9999 3.54323 21 4.92383V12.0195C21 18.4173 14.884 21.3376 12.7354 22.166L12.5557 22.2256C12.1314 22.3442 11.6853 22.3149 11.2734 22.1416C9.13278 21.2408 3 18.1273 3 12.0195V4.92383C3.00013 3.54323 4.11937 2.42383 5.5 2.42383H18.5ZM5.5 3.92383C4.9478 3.92383 4.50013 4.37166 4.5 4.92383V12.0195C4.5 14.5175 5.74044 16.4511 7.34863 17.9287C8.96917 19.4176 10.861 20.3413 11.8555 20.7598C11.9717 20.8086 12.0854 20.8094 12.1963 20.7666C13.1872 20.3845 15.0613 19.5284 16.665 18.0713C18.2464 16.6344 19.5 14.6805 19.5 12.0195V4.92383C19.4999 4.37166 19.0522 3.92383 18.5 3.92383H5.5Z" fill="#FAFAFA"/>
</svg>
