<svg width="24" height="24" viewBox="0 0 24 24" fill="none" xmlns="http://www.w3.org/2000/svg">
<path d="M14.25 6V3C14.25 2.58579 14.5858 2.25 15 2.25C15.4142 2.25 15.75 2.58579 15.75 3V6L15.7559 6.12402C15.7844 6.41001 15.9112 6.67878 16.1162 6.88379C16.3506 7.11821 16.6685 7.25 17 7.25H20C20.4142 7.25 20.75 7.58579 20.75 8C20.75 8.41421 20.4142 8.75 20 8.75H17C16.2707 8.75 15.5714 8.46006 15.0557 7.94434C14.6043 7.49301 14.3261 6.90113 14.2637 6.27148L14.25 6Z" fill="#FAFAFA"/>
<path d="M9.25 13.5V4.5C9.25 3.28579 10.2858 2.25 11.5 2.25H16C16.1989 2.25 16.3896 2.32907 16.5303 2.46973L20.5303 6.46973L20.624 6.58398C20.7056 6.70628 20.75 6.85085 20.75 7V13.5C20.75 14.7142 19.7142 15.75 18.5 15.75H11.5C10.2858 15.75 9.25 14.7142 9.25 13.5ZM10.75 13.5C10.75 13.8858 11.1142 14.25 11.5 14.25H18.5C18.8858 14.25 19.25 13.8858 19.25 13.5V7.31055L15.6895 3.75H11.5C11.1142 3.75 10.75 4.11421 10.75 4.5V13.5Z" fill="#FAFAFA"/>
<path d="M6.25 16.7998V8C6.25 7.58579 6.58579 7.25 7 7.25C7.41421 7.25 7.75 7.58579 7.75 8V16.7998C7.74997 16.7869 7.7475 16.8123 7.7832 16.8779C7.81775 16.9413 7.87136 17.01 7.93066 17.0693C7.98997 17.1286 8.05873 17.1822 8.12207 17.2168C8.18766 17.2525 8.21309 17.25 8.2002 17.25H15C15.4142 17.25 15.75 17.5858 15.75 18C15.75 18.4142 15.4142 18.75 15 18.75H8.2002C7.60091 18.75 7.1188 18.3786 6.87012 18.1299C6.62143 17.8812 6.25 17.3991 6.25 16.7998Z" fill="#FAFAFA"/>
<path d="M3.25 19.7998V11C3.25 10.5858 3.58579 10.25 4 10.25C4.41421 10.25 4.75 10.5858 4.75 11V19.7998C4.74997 19.7869 4.7475 19.8123 4.7832 19.8779C4.81775 19.9413 4.87136 20.01 4.93066 20.0693C4.98997 20.1286 5.05873 20.1822 5.12207 20.2168C5.18766 20.2525 5.21309 20.25 5.2002 20.25H12C12.4142 20.25 12.75 20.5858 12.75 21C12.75 21.4142 12.4142 21.75 12 21.75H5.2002C4.60091 21.75 4.1188 21.3786 3.87012 21.1299C3.62143 20.8812 3.25 20.3991 3.25 19.7998Z" fill="#FAFAFA"/>
</svg>
