<svg width="24" height="24" viewBox="0 0 24 24" fill="none" xmlns="http://www.w3.org/2000/svg">
<path d="M7.3125 7.5C7.72671 7.5 8.0625 7.83579 8.0625 8.25C8.0625 8.66421 7.72671 9 7.3125 9H4.5C4.45027 9 4.40235 9.01952 4.36719 9.05469C4.33202 9.08985 4.3125 9.13777 4.3125 9.1875V11.0625C4.3125 11.1122 4.33202 11.1601 4.36719 11.1953C4.40235 11.2305 4.45027 11.25 4.5 11.25H6.375C6.82255 11.25 7.25189 11.4277 7.56836 11.7441C7.88483 12.0606 8.0625 12.4899 8.0625 12.9375V14.8125C8.0625 15.2601 7.88483 15.6894 7.56836 16.0059C7.25189 16.3223 6.82255 16.5 6.375 16.5H3.5625C3.14829 16.5 2.8125 16.1642 2.8125 15.75C2.8125 15.3358 3.14829 15 3.5625 15H6.375C6.42473 15 6.47265 14.9805 6.50781 14.9453C6.54298 14.9101 6.5625 14.8622 6.5625 14.8125V12.9375C6.5625 12.8878 6.54298 12.8399 6.50781 12.8047C6.47265 12.7695 6.42473 12.75 6.375 12.75H4.5C4.05245 12.75 3.62311 12.5723 3.30664 12.2559C2.99017 11.9394 2.8125 11.5101 2.8125 11.0625V9.1875C2.8125 8.73995 2.99017 8.31061 3.30664 7.99414C3.62311 7.67767 4.05245 7.5 4.5 7.5H7.3125Z" fill="#FAFAFA"/>
<path fill-rule="evenodd" clip-rule="evenodd" d="M13.875 7.5C14.2892 7.5 14.625 7.83579 14.625 8.25V15.75C14.625 16.1642 14.2892 16.5 13.875 16.5H10.125C9.71079 16.5 9.375 16.1642 9.375 15.75V8.25C9.375 7.83579 9.71079 7.5 10.125 7.5H13.875ZM10.875 15H13.125V9H10.875V15Z" fill="#FAFAFA"/>
<path d="M20.4375 7.5C20.8517 7.5 21.1875 7.83579 21.1875 8.25C21.1875 8.66421 20.8517 9 20.4375 9H17.625C17.5753 9 17.5274 9.01952 17.4922 9.05469C17.457 9.08985 17.4375 9.13777 17.4375 9.1875V11.0625C17.4375 11.1122 17.457 11.1601 17.4922 11.1953C17.5274 11.2305 17.5753 11.25 17.625 11.25H19.5C19.9476 11.25 20.3769 11.4277 20.6934 11.7441C21.0098 12.0606 21.1875 12.4899 21.1875 12.9375V14.8125C21.1875 15.2601 21.0098 15.6894 20.6934 16.0059C20.3769 16.3223 19.9476 16.5 19.5 16.5H16.6875C16.2733 16.5 15.9375 16.1642 15.9375 15.75C15.9375 15.3358 16.2733 15 16.6875 15H19.5C19.5497 15 19.5976 14.9805 19.6328 14.9453C19.668 14.9101 19.6875 14.8622 19.6875 14.8125V12.9375C19.6875 12.8878 19.668 12.8399 19.6328 12.8047C19.5976 12.7695 19.5497 12.75 19.5 12.75H17.625C17.1774 12.75 16.7481 12.5723 16.4316 12.2559C16.1152 11.9394 15.9375 11.5101 15.9375 11.0625V9.1875C15.9375 8.73995 16.1152 8.31061 16.4316 7.99414C16.7481 7.67767 17.1774 7.5 17.625 7.5H20.4375Z" fill="#FAFAFA"/>
</svg>
