<svg width="24" height="24" viewBox="0 0 24 24" fill="none" xmlns="http://www.w3.org/2000/svg">
<path fill-rule="evenodd" clip-rule="evenodd" d="M14.8125 2.625C17.4641 2.625 18.7895 2.62546 19.6133 3.44922C20.4371 4.27298 20.4375 5.59836 20.4375 8.25V15.75C20.4375 18.4016 20.4371 19.727 19.6133 20.5508L19.4531 20.6963C18.619 21.375 17.2983 21.375 14.8125 21.375H9.1875C6.70165 21.375 5.38101 21.375 4.54688 20.6963L4.38672 20.5508C3.67376 19.8378 3.57842 18.7491 3.56543 16.75H2.625C2.21079 16.75 1.875 16.4142 1.875 16C1.875 15.5858 2.21079 15.25 2.625 15.25H3.5625V12.75H2.625C2.21079 12.75 1.875 12.4142 1.875 12C1.875 11.5858 2.21079 11.25 2.625 11.25H3.5625V8.75H2.625C2.21079 8.75 1.875 8.41421 1.875 8C1.875 7.58579 2.21079 7.25 2.625 7.25H3.56543C3.5774 5.39521 3.65988 4.32383 4.24121 3.60938L4.38672 3.44922C5.21048 2.62546 6.53585 2.625 9.1875 2.625H14.8125ZM9.1875 4.125C7.81957 4.125 6.94442 4.12849 6.30176 4.21484C5.70221 4.29545 5.53399 4.42304 5.44727 4.50977C5.36054 4.59649 5.23295 4.76471 5.15234 5.36426C5.08917 5.83443 5.07098 6.42904 5.06543 7.25H5.625L5.70215 7.25391C6.08012 7.29253 6.375 7.61183 6.375 8C6.375 8.38817 6.08012 8.70747 5.70215 8.74609L5.625 8.75H5.0625V11.25H5.625L5.70215 11.2539C6.08012 11.2925 6.375 11.6118 6.375 12C6.375 12.3882 6.08012 12.7075 5.70215 12.7461L5.625 12.75H5.0625V15.25H5.625L5.70215 15.2539C6.08012 15.2925 6.375 15.6118 6.375 16C6.375 16.3882 6.08012 16.7075 5.70215 16.7461L5.625 16.75H5.06543C5.07098 17.571 5.08917 18.1656 5.15234 18.6357C5.23295 19.2353 5.36052 19.4035 5.44727 19.4902C5.534 19.577 5.70222 19.7045 6.30176 19.7852C6.94442 19.8715 7.81956 19.875 9.1875 19.875H14.8125C16.1804 19.875 17.0556 19.8715 17.6982 19.7852C18.2978 19.7045 18.466 19.577 18.5527 19.4902C18.6395 19.4035 18.767 19.2353 18.8477 18.6357C18.934 17.9931 18.9375 17.1179 18.9375 15.75V8.25C18.9375 6.88206 18.934 6.00692 18.8477 5.36426C18.767 4.76472 18.6395 4.5965 18.5527 4.50977C18.466 4.42302 18.2978 4.29545 17.6982 4.21484C17.0556 4.12849 16.1804 4.125 14.8125 4.125H9.1875Z" fill="#FAFAFA"/>
</svg>
