<svg width="24" height="24" viewBox="0 0 24 24" fill="none" xmlns="http://www.w3.org/2000/svg">
<path fill-rule="evenodd" clip-rule="evenodd" d="M8.89746 7.52051C9.12448 7.30446 9.46794 7.19168 9.81738 7.28027L9.9668 7.33008L9.99707 7.34375C11.2899 7.96088 12.3823 8.92672 13.1494 10.1309L13.2793 10.3291C13.9121 11.3275 14.25 12.4845 14.25 13.668V13.6738C14.233 15.8416 12.4322 17.3453 10.4414 17.4141L10.249 17.416C8.25981 17.3917 6.33818 15.9101 6.26367 13.7422L6.25098 13.5439C6.22201 12.556 6.71174 11.6425 7.43652 11.0508C7.67781 10.8347 8.01408 10.6817 8.39746 10.7725C8.74251 10.8542 8.95071 11.0959 9.04785 11.2803L9.1377 11.4238C9.27092 11.0309 9.30173 10.573 9.23242 10.1025L9.19922 9.91211C9.11099 9.47136 8.95081 9.0471 8.72461 8.65625L8.72559 8.65527C8.46057 8.2028 8.66192 7.74471 8.89746 7.52051ZM10.6699 9.61816L10.7158 9.87695V9.87988L10.7568 10.2539C10.8195 11.1439 10.6427 12.1364 10.0068 12.9277L10.0059 12.9287C9.91656 13.0394 9.80454 13.1295 9.67773 13.1924C9.55376 13.2538 9.41816 13.2874 9.28027 13.293L9.28125 13.2939C9.27801 13.2941 9.27472 13.2929 9.27148 13.293L9.27051 13.2939L9.26953 13.293C9.12865 13.2976 8.98845 13.273 8.8584 13.2188C8.73345 13.1665 8.62027 13.0877 8.52637 12.9893C8.40166 12.8612 8.24407 12.7035 8.08887 12.5166C7.88231 12.7857 7.76389 13.0995 7.75098 13.4082L7.75684 13.5938L7.75977 13.6543C7.78263 14.8953 8.91171 15.8993 10.2666 15.916L10.5195 15.9082C11.7644 15.8088 12.7375 14.8669 12.75 13.668L12.7363 13.3096C12.6821 12.5968 12.4663 11.9049 12.1055 11.2852L11.9131 10.9814L11.8975 10.957C11.5574 10.4186 11.1358 9.93831 10.6504 9.53223C10.6566 9.5609 10.6642 9.58939 10.6699 9.61816Z" fill="#FAFAFA"/>
<path d="M17.5 14C18.3284 14 19 14.6716 19 15.5C19 16.3284 18.3284 17 17.5 17C16.6716 17 16 16.3284 16 15.5C16 14.6716 16.6716 14 17.5 14Z" fill="#FAFAFA"/>
<path d="M17.5 10C18.3284 10 19 10.6716 19 11.5C19 12.3284 18.3284 13 17.5 13C16.6716 13 16 12.3284 16 11.5C16 10.6716 16.6716 10 17.5 10Z" fill="#FAFAFA"/>
<path fill-rule="evenodd" clip-rule="evenodd" d="M20.2041 4.01074C21.2128 4.113 22 4.96435 22 6V18C22 19.0357 21.2128 19.887 20.2041 19.9893L20 20H4L3.7959 19.9893C2.78722 19.887 2 19.0357 2 18V6C2 4.96435 2.78722 4.113 3.7959 4.01074L4 4H20L20.2041 4.01074ZM4 5.5C3.72386 5.5 3.5 5.72386 3.5 6V18C3.5 18.2761 3.72386 18.5 4 18.5H20C20.2761 18.5 20.5 18.2761 20.5 18V6C20.5 5.72386 20.2761 5.5 20 5.5H4Z" fill="#FAFAFA"/>
</svg>
