<svg width="24" height="24" viewBox="0 0 24 24" fill="none" xmlns="http://www.w3.org/2000/svg">
<path d="M16.2852 10.9859C16.2852 8.61898 14.3664 6.7002 11.9994 6.7002V12.6502H16.2852V10.9859Z" fill="#316EFF"/>
<path d="M15.5 15V11C15.5 9.067 13.933 7.5 12 7.5C10.067 7.5 8.5 9.067 8.5 11V15C8.5 16.933 10.067 18.5 12 18.5V20C9.32472 20 7.14053 17.8989 7.00684 15.2568L7 15V11C7 8.23858 9.23858 6 12 6C14.7614 6 17 8.23858 17 11V15L16.9932 15.2568C16.8595 17.8989 14.6753 20 12 20V18.5C13.933 18.5 15.5 16.933 15.5 15Z" fill="#FAFAFA"/>
<path d="M16.2861 11.9004V13.4004H7.71484V11.9004H16.2861Z" fill="#FAFAFA"/>
<path d="M11.8975 11.2808C11.4269 11.2328 11.0525 10.8588 11.0049 10.3882L11 10.2866V9.34619C11 8.79391 11.4477 8.34619 12 8.34619C12.5523 8.34619 13 8.79391 13 9.34619V10.2866L12.9951 10.3882C12.944 10.8926 12.5179 11.2866 12 11.2866L11.8975 11.2808Z" fill="#FAFAFA"/>
<path d="M18.6589 6V5.44578L20.3943 4.11145C20.5902 3.96084 20.7326 3.82028 20.8214 3.68976C20.9125 3.55723 20.958 3.41064 20.958 3.25C20.958 3.09337 20.9113 2.96285 20.818 2.85843C20.7246 2.75402 20.5663 2.70181 20.3431 2.70181C20.0903 2.70181 19.9092 2.76506 19.7999 2.89157C19.6906 3.01807 19.6359 3.18173 19.6359 3.38253H18.7682C18.7682 3.09337 18.8285 2.84538 18.9492 2.63855C19.0722 2.43173 19.251 2.2741 19.4856 2.16566C19.7202 2.05522 20.006 2 20.3431 2C20.6528 2 20.9227 2.04719 21.1528 2.14157C21.3851 2.23594 21.5639 2.37149 21.6891 2.54819C21.8167 2.7249 21.8804 2.93976 21.8804 3.19277C21.8804 3.40562 21.836 3.59438 21.7472 3.75904C21.6584 3.92369 21.5365 4.0753 21.3816 4.21386C21.2291 4.3504 21.0548 4.48996 20.859 4.63253L19.9263 5.32229H22V6H18.6589Z" fill="#316EFF"/>
<path d="M15 6L16.2674 4.30723L16.6637 4.10542L17.3709 3.06024H18.3377L17.1591 4.64157L16.797 4.83735L15.9668 6H15ZM17.4768 6L16.6398 4.83735L16.3153 4.6506L15.1127 3.06024H16.0796L16.797 4.10241L17.1659 4.30422L18.447 6H17.4768Z" fill="#316EFF"/>
</svg>
