<svg width="24" height="24" viewBox="0 0 24 24" fill="none" xmlns="http://www.w3.org/2000/svg">
<path d="M3.7373 20.9961C3.57677 20.9802 3.4246 20.9172 3.2998 20.8154L3.23926 20.7617C3.10514 20.6282 3.02258 20.4528 3.00391 20.2666L3 20.1855V3.81445C3 3.59853 3.08587 3.39098 3.23926 3.23828C3.37352 3.10466 3.55 3.02242 3.7373 3.00391L3.81836 3H20.1816L20.2627 3.00391C20.45 3.02242 20.6265 3.10466 20.7607 3.23828C20.9141 3.39098 21 3.59853 21 3.81445V14.877L20.9961 14.958C20.9774 15.144 20.8946 15.3187 20.7607 15.4521L15.4209 20.7617L15.3613 20.8154C15.2365 20.9172 15.0844 20.9802 14.9238 20.9961L14.8438 21H3.81836L3.7373 20.9961ZM4.5 19.5H14.5625L19.5 14.5898V4.5H4.5V19.5Z" fill="#FAFAFA"/>
<path d="M13.25 20V16C13.25 14.4812 14.4812 13.25 16 13.25H20L20.0771 13.2539C20.4551 13.2925 20.75 13.6118 20.75 14C20.75 14.3882 20.4551 14.7075 20.0771 14.7461L20 14.75H16C15.3096 14.75 14.75 15.3096 14.75 16V20C14.75 20.4142 14.4142 20.75 14 20.75C13.5858 20.75 13.25 20.4142 13.25 20Z" fill="#FAFAFA"/>
</svg>
