<svg width="24" height="24" viewBox="0 0 24 24" fill="none" xmlns="http://www.w3.org/2000/svg">
<path fill-rule="evenodd" clip-rule="evenodd" d="M11 3C13.1217 3 15.1569 3.84248 16.6572 5.34277C18.1575 6.84306 19 8.87827 19 11C19 12.8728 18.342 14.6768 17.1562 16.1064C17.1618 16.1107 17.1684 16.1137 17.1738 16.1182L17.2305 16.1699L21.5303 20.4697L21.582 20.5264C21.8225 20.821 21.8049 21.2556 21.5303 21.5303C21.2556 21.8049 20.821 21.8225 20.5264 21.582L20.4697 21.5303L16.1699 17.2305L16.1182 17.1738C16.1137 17.1684 16.1107 17.1618 16.1064 17.1562C14.6769 18.3421 12.8728 19 11 19C9.011 19 7.09835 18.2593 5.63086 16.9307L5.34277 16.6572C3.84248 15.1569 3 13.1217 3 11C3 9.011 3.74069 7.09835 5.06934 5.63086L5.34277 5.34277C6.84306 3.84248 8.87827 3 11 3ZM11 4.5C9.27609 4.5 7.62231 5.18433 6.40332 6.40332C5.26051 7.54613 4.5875 9.07116 4.50781 10.6777L4.5 11C4.5 12.7239 5.18433 14.3777 6.40332 15.5967C7.62231 16.8157 9.27609 17.5 11 17.5C12.7239 17.5 14.3777 16.8157 15.5967 15.5967C16.7395 14.4539 17.4125 12.9288 17.4922 11.3223L17.5 11C17.5 9.27609 16.8157 7.62231 15.5967 6.40332C14.4539 5.26051 12.9288 4.5875 11.3223 4.50781L11 4.5Z" fill="#FAFAFA"/>
</svg>
