<svg width="24" height="24" viewBox="0 0 24 24" fill="none" xmlns="http://www.w3.org/2000/svg">
<path d="M10.125 12.3452C10.7463 12.3452 11.2499 13.271 11.25 14.4136C11.25 15.5563 10.7464 16.4829 10.125 16.4829C9.50367 16.4828 9 15.5562 9 14.4136C9.00011 13.2711 9.50374 12.3454 10.125 12.3452Z" fill="#FAFAFA"/>
<path d="M13.875 12.3452C14.4963 12.3452 14.9999 13.271 15 14.4136C15 15.5563 14.4964 16.4829 13.875 16.4829C13.2537 16.4828 12.75 15.5562 12.75 14.4136C12.7501 13.2711 13.2537 12.3454 13.875 12.3452Z" fill="#FAFAFA"/>
<path fill-rule="evenodd" clip-rule="evenodd" d="M7.77051 6.06396C8.547 6.05461 9.28958 6.23374 9.9375 6.39697C10.7197 6.59402 11.364 6.76708 12 6.76708C12.6364 6.76708 13.2812 6.59515 14.0625 6.39892C14.8027 6.21303 15.6658 6.00679 16.5615 6.08056L16.8916 6.11572C18.5173 6.33082 19.7519 7.12125 20.5645 8.42431C21.4035 9.76995 21.75 11.5925 21.75 13.7241C21.75 15.6321 20.9338 17.8387 19.8594 19.5532C19.3178 20.4173 18.6878 21.1925 18.0225 21.7612C17.3734 22.3161 16.6011 22.7495 15.7871 22.7495C14.5325 22.7494 13.806 22.4474 13.2275 22.1489C12.6713 21.8619 12.4555 21.7153 12 21.7153C11.5445 21.7153 11.3287 21.8619 10.7725 22.1489C10.194 22.4474 9.4674 22.7494 8.21289 22.7495C7.39893 22.7495 6.62653 22.3161 5.97754 21.7612C5.3123 21.1925 4.68217 20.4172 4.14062 19.5532C3.06614 17.8388 2.25 15.6321 2.25 13.7241C2.25001 11.5804 2.63628 9.75939 3.49316 8.41747C4.37261 7.04037 5.71068 6.22926 7.43555 6.08056L7.77051 6.06396ZM7.56348 7.57372L7.56445 7.5747C6.28944 7.68461 5.37738 8.25328 4.75684 9.22509C4.11383 10.2322 3.75001 11.7303 3.75 13.7241C3.75 15.2641 4.43365 17.1951 5.41211 18.7563C5.89711 19.5302 6.43265 20.1774 6.95215 20.6216C7.48789 21.0796 7.92061 21.2495 8.21289 21.2495C9.17039 21.2494 9.66115 21.0346 10.085 20.8159C10.5311 20.5857 11.1029 20.2153 12 20.2153C12.8972 20.2153 13.469 20.5857 13.915 20.8159C14.3387 21.0346 14.8294 21.2494 15.7871 21.2495C16.0795 21.2495 16.5122 21.0795 17.0479 20.6216C17.5674 20.1774 18.1029 19.5302 18.5879 18.7563C19.5663 17.1951 20.25 15.2641 20.25 13.7241C20.25 11.718 19.9167 10.2217 19.291 9.21826C18.7302 8.31899 17.9014 7.75912 16.6865 7.60107L16.4385 7.57568C15.822 7.5249 15.1845 7.66296 14.4277 7.85302C13.7123 8.0327 12.8634 8.26708 12 8.26708C11.136 8.26708 10.2862 8.03116 9.57129 7.85107C8.81465 7.66046 8.17823 7.52115 7.56348 7.57372Z" fill="#FAFAFA"/>
<path d="M16.0938 2.00146C16.1493 1.99681 16.2055 2.00327 16.2578 2.02099C16.3102 2.03882 16.3585 2.06714 16.3975 2.104C16.4363 2.14075 16.4655 2.18536 16.4834 2.23388C16.5013 2.28257 16.5066 2.33519 16.5 2.38622C16.3822 3.33513 15.9181 4.21975 15.1836 4.89501C14.1993 5.79979 13.0437 6.05803 12.4268 6.13525C12.3705 6.14273 12.3129 6.13852 12.2588 6.12255C12.2045 6.10656 12.1544 6.07976 12.1133 6.04345C12.0723 6.00731 12.0412 5.96261 12.0215 5.91357C12.0018 5.86441 11.9943 5.81143 12 5.75927C12.1113 4.78971 12.5851 3.88547 13.3408 3.20165C14.372 2.25343 15.4974 2.04245 16.0938 2.00146Z" fill="#FAFAFA"/>
</svg>
