<svg width="32" height="32" viewBox="0 0 32 32" fill="none" xmlns="http://www.w3.org/2000/svg">
<path fill-rule="evenodd" clip-rule="evenodd" d="M4.39827 5.04815C4.78876 4.65798 5.42189 4.6579 5.81233 5.04815L27.6027 26.8385L27.6704 26.914C27.9911 27.3068 27.9689 27.8876 27.6027 28.2539C27.2365 28.6197 26.6568 28.642 26.2642 28.3216L26.1886 28.2539L23.341 25.4062C21.4394 27.6365 18.624 29.0544 15.4751 29.0547C9.74817 29.0543 5.10434 24.3816 5.104 18.6185C5.10427 15.8666 6.4509 13.0698 8.34358 10.4075L4.39827 6.46221C4.00793 6.07167 4.00781 5.43861 4.39827 5.04815ZM9.77718 11.8424C8.08551 14.2862 7.10556 16.5694 7.1053 18.6185C7.10564 23.289 10.8646 27.0543 15.4751 27.0547C15.5029 27.0546 15.5307 27.0523 15.5584 27.0521V17.6224L9.77718 11.8424Z" fill="#FAFAFA"/>
<path d="M14.5311 3.33981C15.0507 2.81434 15.9008 2.81546 16.4204 3.34112C20.9279 7.904 25.8457 13.2347 25.8462 18.6185L25.8332 19.1562C25.7914 19.9837 25.6507 20.7852 25.4282 21.5508L15.5584 11.6797V5.31768C15.5309 5.28961 15.5026 5.26109 15.4751 5.23304C14.4382 6.29162 13.3901 7.39244 12.4009 8.52211L10.9842 7.10544C12.1475 5.78337 13.3677 4.51846 14.5311 3.33981Z" fill="#FAFAFA"/>
</svg>
