<svg width="32" height="32" viewBox="0 0 32 32" fill="none" xmlns="http://www.w3.org/2000/svg">
<g clip-path="url(#clip0_15463_949)">
<path d="M29.7333 23.1182C29.4776 23.3939 29.1485 23.5932 28.7831 23.6909C28.3715 23.8009 27.9358 23.7749 27.5393 23.62L21.4975 21.3164L21.4828 21.3108L21.2609 21.2049C21.0455 21.0862 20.8527 20.9286 20.6938 20.7391C20.5351 20.5499 20.4132 20.3333 20.3338 20.101L20.2684 19.8625C20.2602 19.8235 20.2543 19.7835 20.2509 19.7438L19.9056 15.7249C17.9005 15.0415 15.0781 15.0579 13.0693 15.7534L12.7471 19.7346L12.7305 19.8506C12.665 20.1768 12.5191 20.4816 12.3061 20.7372C12.1462 20.929 11.9526 21.0888 11.7352 21.2086L11.5115 21.3145L11.4968 21.32L5.47808 23.6135C5.07704 23.7744 4.63324 23.8015 4.21578 23.6899C3.79838 23.5784 3.42798 23.3351 3.16065 22.9957L3.15144 22.9847C2.11539 21.6285 1.6075 19.9412 1.72157 18.2384C1.83572 16.536 2.56473 14.9335 3.772 13.7278C7.14757 10.3523 11.7252 8.45502 16.499 8.45493C21.1237 8.45493 25.5654 10.2347 28.9074 13.4148L29.2269 13.7269C30.4345 14.9327 31.1633 16.5366 31.2773 18.2393C31.3913 19.9418 30.8832 21.6278 29.8475 22.9838L29.8374 22.9957L29.7333 23.1182ZM27.2382 14.5942C24.3031 11.9367 20.4772 10.4547 16.499 10.4547C12.2557 10.4548 8.18579 12.1406 5.18529 15.1411L5.02693 15.3069C4.2568 16.1488 3.79425 17.2298 3.71768 18.3728C3.6364 19.5872 3.99722 20.7893 4.73322 21.7583L4.74888 21.7518L10.7639 19.4584L11.0843 15.479C11.0873 15.4422 11.092 15.4048 11.099 15.3686C11.165 15.0291 11.3183 14.7128 11.5437 14.4506C11.7693 14.1883 12.0602 13.9893 12.3862 13.8733L12.3917 13.8715C14.8255 13.0217 18.1309 13.0009 20.5732 13.8402L20.5805 13.842C20.9051 13.9563 21.1942 14.1533 21.4202 14.4129L21.5767 14.6173C21.719 14.8311 21.819 15.0719 21.8704 15.3253L21.887 15.4376L22.235 19.4574L28.251 21.7518L28.2666 21.7583C29.0023 20.7894 29.3634 19.587 29.2822 18.3728C29.2005 17.1537 28.6783 16.0054 27.8136 15.1421L27.2382 14.5942Z" fill="#FAFAFA"/>
</g>
<defs>
<clipPath id="clip0_15463_949">
<rect width="32" height="32" fill="white"/>
</clipPath>
</defs>
</svg>
