<svg width="32" height="32" viewBox="0 0 32 32" fill="none" xmlns="http://www.w3.org/2000/svg">
<path d="M24.3708 18.618C24.3707 16.5222 23.4034 14.251 21.7067 11.8133C20.1414 9.56442 18.0906 7.36382 15.9997 5.23261C13.9943 7.27989 11.9485 9.48338 10.3643 11.7521C8.63392 14.2303 7.62993 16.5436 7.62988 18.618C7.62988 23.2889 11.389 27.0539 15.9997 27.0542V29.0542C10.2725 29.0539 5.62988 24.3815 5.62988 18.618C5.62997 13.2521 10.7397 7.71195 15.0557 3.33938C15.5753 2.813 16.4252 2.81448 16.945 3.34068C21.4528 7.90393 26.3707 13.2338 26.3708 18.618L26.3577 19.1558C26.0797 24.6696 21.5479 29.0542 15.9997 29.0542V27.0542C20.6106 27.0542 24.3708 23.2891 24.3708 18.618Z" fill="#FAFAFA"/>
</svg>
