<svg width="32" height="32" viewBox="0 0 32 32" fill="none" xmlns="http://www.w3.org/2000/svg">
<path fill-rule="evenodd" clip-rule="evenodd" d="M28.4343 4.05153C28.9582 3.8769 29.5252 4.16053 29.6999 4.68434C29.8746 5.20829 29.591 5.77532 29.0671 5.94997L18.9148 9.33408H22.084C24.1173 9.33408 26.0668 10.1425 27.5046 11.5802C28.9423 13.0179 29.7507 14.9675 29.7507 17.0007V25.0007C29.7507 25.553 29.303 26.0007 28.7507 26.0007H26.2455C26.1714 26.0905 26.0928 26.1769 26.0098 26.2599C25.3222 26.9475 24.3898 27.3341 23.4174 27.3341C22.445 27.334 21.5125 26.9474 20.8249 26.2599C20.742 26.1769 20.6633 26.0905 20.5892 26.0007H10.2455C10.1714 26.0905 10.0928 26.1769 10.0098 26.2599C9.32218 26.9475 8.3898 27.3341 7.41736 27.3341C6.44498 27.334 5.51249 26.9474 4.82491 26.2599C4.1374 25.5722 3.75069 24.6398 3.75069 23.6674V17.0007C3.75077 16.4486 4.19856 16.0009 4.75069 16.0007H7.75069V13.0554L5.0671 13.95C4.5432 14.1245 3.9761 13.841 3.80147 13.3172C3.62698 12.7933 3.91052 12.2262 4.43429 12.0515L28.4343 4.05153ZM7.41736 22.0007C6.97542 22.0008 6.55148 22.1765 6.23897 22.489C5.92648 22.8016 5.75073 23.2255 5.75069 23.6674C5.75069 24.1094 5.92653 24.5333 6.23897 24.8458C6.55148 25.1583 6.97542 25.334 7.41736 25.3341C7.85936 25.3341 8.28319 25.1583 8.59574 24.8458C8.90831 24.5332 9.08403 24.1094 9.08403 23.6674C9.08399 23.2254 8.90827 22.8016 8.59574 22.489C8.2832 22.1766 7.8593 22.0007 7.41736 22.0007ZM23.4174 22.0007C22.9754 22.0008 22.5515 22.1765 22.239 22.489C21.9265 22.8016 21.7507 23.2255 21.7507 23.6674C21.7507 24.1094 21.9265 24.5333 22.239 24.8458C22.5515 25.1583 22.9754 25.334 23.4174 25.3341C23.8594 25.3341 24.2832 25.1583 24.5957 24.8458C24.9083 24.5332 25.084 24.1094 25.084 23.6674C25.084 23.2254 24.9083 22.8016 24.5957 22.489C24.2832 22.1766 23.8593 22.0007 23.4174 22.0007ZM5.75069 20.4044C6.2623 20.1429 6.83207 20.0008 7.41736 20.0007C8.38973 20.0007 9.32219 20.3875 10.0098 21.075C10.6974 21.7626 11.084 22.695 11.084 23.6674C11.084 23.7792 11.0772 23.8904 11.0671 24.0007H15.7507V18.0007H5.75069V20.4044ZM17.7507 24.0007H19.7676C19.7575 23.8904 19.7507 23.7792 19.7507 23.6674C19.7507 22.695 20.1373 21.7626 20.8249 21.075C21.5125 20.3874 22.445 20.0008 23.4174 20.0007C24.3897 20.0007 25.3222 20.3875 26.0098 21.075C26.6974 21.7626 27.084 22.695 27.084 23.6674C27.084 23.7792 27.0772 23.8904 27.0671 24.0007H27.7507V18.0007H22.7507C22.3093 18.0006 21.9193 17.7113 21.7924 17.2885L20.0059 11.3341H17.7507V24.0007ZM9.75069 12.3888V16.0007H15.7507V10.3888L9.75069 12.3888ZM23.4955 16.0007H27.6608C27.458 14.8695 26.9144 13.8181 26.0905 12.9942C25.0303 11.9341 23.5935 11.3368 22.0944 11.3341L23.4955 16.0007Z" fill="#FAFAFA"/>
</svg>
