<svg width="32" height="32" viewBox="0 0 32 32" fill="none" xmlns="http://www.w3.org/2000/svg">
<path fill-rule="evenodd" clip-rule="evenodd" d="M11.9997 1.33301C12.552 1.33301 12.9997 1.78072 12.9997 2.33301V4.33301C12.9997 4.88529 12.552 5.33301 11.9997 5.33301C11.4474 5.33301 10.9997 4.88529 10.9997 4.33301V2.33301C10.9997 1.78072 11.4474 1.33301 11.9997 1.33301ZM3.6259 3.6259C4.01643 3.23538 4.64959 3.23538 5.04011 3.6259L7.04011 5.6259C7.43064 6.01643 7.43064 6.64959 7.04011 7.04011C6.64959 7.43064 6.01643 7.43064 5.6259 7.04011L3.6259 5.04011C3.23538 4.64959 3.23538 4.01643 3.6259 3.6259ZM16.7403 4.51152C18.1722 3.0796 20.4938 3.07959 21.9257 4.51152L27.4878 10.0736C28.9198 11.5055 28.9198 13.8271 27.4878 15.2591L24.3734 18.3734C23.9829 18.764 23.3498 18.764 22.9592 18.3734C22.5687 17.9829 22.5687 17.3498 22.9592 16.9592L26.0736 13.8449C26.7245 13.194 26.7245 12.1387 26.0736 11.4878L20.5115 5.92573C19.8606 5.27486 18.8054 5.27486 18.1545 5.92573L15.0401 9.04011C14.6496 9.43064 14.0164 9.43064 13.6259 9.04011C13.2354 8.64959 13.2354 8.01643 13.6259 7.6259L16.7403 4.51152ZM1.33301 11.9997C1.33301 11.4474 1.78072 10.9997 2.33301 10.9997H4.33301C4.88529 10.9997 5.33301 11.4474 5.33301 11.9997C5.33301 12.552 4.88529 12.9997 4.33301 12.9997H2.33301C1.78072 12.9997 1.33301 12.552 1.33301 11.9997ZM9.04011 13.6259C9.43064 14.0164 9.43064 14.6496 9.04011 15.0401L5.92573 18.1545C5.27486 18.8054 5.27486 19.8606 5.92573 20.5115L11.4878 26.0736C12.1387 26.7245 13.194 26.7245 13.8449 26.0736L16.9592 22.9592C17.3498 22.5687 17.9829 22.5687 18.3734 22.9592C18.764 23.3498 18.764 23.9829 18.3734 24.3734L15.2591 27.4878C13.8271 28.9198 11.5055 28.9198 10.0736 27.4878L4.51152 21.9257C3.0796 20.4938 3.0796 18.1722 4.51152 16.7403L7.6259 13.6259C8.01643 13.2354 8.64959 13.2354 9.04011 13.6259ZM26.6663 19.9997C26.6663 19.4474 27.1141 18.9997 27.6663 18.9997H29.6663C30.2186 18.9997 30.6663 19.4474 30.6663 19.9997C30.6663 20.552 30.2186 20.9997 29.6663 20.9997H27.6663C27.1141 20.9997 26.6663 20.552 26.6663 19.9997ZM24.9592 24.9592C25.3498 24.5687 25.9829 24.5687 26.3734 24.9592L28.3734 26.9592C28.764 27.3498 28.764 27.9829 28.3734 28.3734C27.9829 28.764 27.3498 28.764 26.9592 28.3734L24.9592 26.3734C24.5687 25.9829 24.5687 25.3498 24.9592 24.9592ZM19.9997 26.6663C20.552 26.6663 20.9997 27.1141 20.9997 27.6663V29.6663C20.9997 30.2186 20.552 30.6663 19.9997 30.6663C19.4474 30.6663 18.9997 30.2186 18.9997 29.6663V27.6663C18.9997 27.1141 19.4474 26.6663 19.9997 26.6663Z" fill="#FAFAFA"/>
</svg>
