<svg width="32" height="32" viewBox="0 0 32 32" fill="none" xmlns="http://www.w3.org/2000/svg">
<path fill-rule="evenodd" clip-rule="evenodd" d="M20.1943 1.16265C21.1525 1.21032 22.052 1.63835 22.6953 2.35015C23.1158 2.81556 23.4021 3.37873 23.5381 3.98003C24.0013 4.05202 24.4519 4.20288 24.8672 4.4312C25.5799 4.82325 26.1587 5.42076 26.5273 6.14605C26.8957 6.87115 27.0381 7.69071 26.9355 8.49761C26.8741 8.97982 26.7254 9.44477 26.502 9.87065C26.9128 10.3486 27.2229 10.9099 27.4043 11.521C27.6772 12.4414 27.6483 13.4267 27.3223 14.3296C27.0028 15.2136 26.4124 15.972 25.6387 16.5035L27.6348 18.608L27.6475 18.6226L29.4795 20.6324C29.8513 21.0406 29.8212 21.6736 29.4131 22.0455C29.0049 22.4172 28.3719 22.388 28 21.98L27.9092 21.8804V27.0152C27.9091 28.3036 26.8645 29.3488 25.5762 29.3492H4.5918C3.30316 29.3492 2.25786 28.3038 2.25781 27.0152V11.7613C2.25791 10.4727 3.30319 9.42827 4.5918 9.42827H9.99121C11.2798 9.42833 12.3241 10.4727 12.3242 11.7613V16.191L17.2725 11.1871C18.1989 10.2502 19.7169 10.2658 20.624 11.2212L24.2734 15.066C24.3327 14.9957 24.4003 14.9302 24.4805 14.8765C24.9226 14.5813 25.2593 14.151 25.4404 13.65C25.6214 13.1488 25.6376 12.6022 25.4863 12.0914C25.3348 11.5806 25.0237 11.1316 24.5996 10.8111C24.3773 10.6433 24.234 10.389 24.2061 10.1119C24.1782 9.83488 24.2679 9.55787 24.4521 9.34917C24.7249 9.04031 24.8989 8.65507 24.9512 8.24565C25.0033 7.83591 24.9321 7.41819 24.7451 7.05034C24.5582 6.68301 24.2645 6.38142 23.9043 6.18315C23.5435 5.98477 23.1303 5.89959 22.7207 5.93901C22.4319 5.96667 22.1455 5.86673 21.9355 5.66655C21.7255 5.46597 21.6126 5.18322 21.627 4.89312L21.6279 4.85796C21.6491 4.42863 21.4984 4.00815 21.2109 3.68999C20.9235 3.37234 20.5225 3.1811 20.0957 3.15972C19.6685 3.13847 19.2494 3.28883 18.9316 3.57671C18.6139 3.86486 18.4218 4.26834 18.4004 4.6978L18.3984 4.72417C18.3839 5.01408 18.2444 5.28376 18.0156 5.46245C17.7869 5.64075 17.4916 5.71191 17.207 5.65581C16.8036 5.57606 16.3844 5.61939 16.0059 5.78081C15.6273 5.94241 15.3046 6.21468 15.082 6.56206C14.8596 6.90953 14.7466 7.3172 14.7578 7.73003C14.7692 8.14291 14.9054 8.54291 15.1465 8.87749C15.469 9.32553 15.3659 9.95216 14.918 10.275C14.4701 10.5965 13.846 10.4938 13.5234 10.0464C13.0479 9.38632 12.7801 8.59811 12.7578 7.78472C12.7356 6.97118 12.9596 6.16825 13.3984 5.48296C13.8374 4.79796 14.4726 4.26025 15.2207 3.94097C15.6571 3.75482 16.1213 3.64911 16.5898 3.62358C16.7854 3.04268 17.1259 2.51524 17.5879 2.09624C18.2987 1.45178 19.2362 1.11503 20.1943 1.16265ZM4.5918 11.4283C4.40776 11.4283 4.25791 11.5773 4.25781 11.7613V27.0152C4.25786 27.1992 4.40773 27.3492 4.5918 27.3492H9.94824C9.93264 27.2402 9.92188 27.1285 9.92188 27.0152V21.4644L9.80273 21.5875C9.41451 21.9797 8.7813 21.9831 8.38867 21.5953C7.996 21.207 7.99273 20.5739 8.38086 20.1812L10.3242 18.2134V11.7613C10.3241 11.5773 10.1752 11.4283 9.99121 11.4283H4.5918ZM19.1738 12.5972C19.0442 12.4612 18.8265 12.4597 18.6943 12.5933L12.3242 19.0347V27.3492H15.3076V22.7886C15.3078 21.5003 16.3523 20.4559 17.6406 20.4556H20.1904C21.4787 20.456 22.5232 21.5004 22.5234 22.7886V27.3492H25.5762C25.7599 27.3488 25.9091 27.199 25.9092 27.0152V19.6939L19.1738 12.5972ZM17.6406 22.4556C17.4569 22.4559 17.3078 22.6049 17.3076 22.7886V27.3492H20.5234V22.7886C20.5232 22.6049 20.3741 22.456 20.1904 22.4556H17.6406Z" fill="#FAFAFA"/>
</svg>
