<svg width="32" height="32" viewBox="0 0 32 32" fill="none" xmlns="http://www.w3.org/2000/svg">
<path d="M12.3726 25.8828C12.9247 25.8828 13.3723 26.3307 13.3726 26.8828V28C13.3723 28.5521 12.9247 29 12.3726 29H7.35041C6.79826 29 6.35062 28.5521 6.35041 28V26.8828C6.35062 26.3307 6.79826 25.8828 7.35041 25.8828C7.90237 25.8831 8.35021 26.3309 8.35041 26.8828V27H11.3726V26.8828C11.3728 26.3308 11.8206 25.883 12.3726 25.8828Z" fill="#FAFAFA"/>
<path d="M15.8218 3C16.0816 3 16.3318 3.10165 16.5184 3.28255L28.6968 15.0951C28.989 15.3785 29.0801 15.8114 28.9272 16.1888C28.7742 16.5662 28.4073 16.8138 28.0002 16.8138H25.5548V28C25.5548 28.2663 25.4482 28.5219 25.2593 28.7096C25.0704 28.897 24.8144 29.0017 24.5483 29L19.064 28.9648C19.0024 28.9644 18.9426 28.9563 18.8843 28.9453C18.8786 28.9443 18.8729 28.9439 18.8673 28.9427C18.8401 28.9371 18.8143 28.9271 18.7879 28.9193C18.626 28.8713 18.4797 28.7882 18.3634 28.6719L18.3595 28.668C18.3463 28.6546 18.3368 28.6378 18.3244 28.6237C18.1686 28.4474 18.0705 28.2186 18.0705 27.9648V18.9531H17.3869C16.8348 18.9529 16.3869 18.5052 16.3869 17.9531C16.3869 17.401 16.8348 16.9534 17.3869 16.9531H19.0705C19.6226 16.9533 20.0705 17.401 20.0705 17.9531V26.9701L23.5548 26.9935V15.8138C23.5548 15.2617 24.0028 14.8141 24.5548 14.8138H25.5327L15.7814 5.35286L15.0327 6.10286C14.6423 6.49282 14.009 6.49292 13.6186 6.10286C13.2283 5.71238 13.2283 5.07799 13.6186 4.6875L15.0132 3.29297C15.2006 3.1055 15.4564 3.00008 15.7215 3H15.8218Z" fill="#FAFAFA"/>
<path d="M7.35041 21.418C7.90244 21.4182 8.35033 21.8659 8.35041 22.418V23.5352C8.3502 24.0871 7.90236 24.5349 7.35041 24.5352C6.79826 24.5352 6.35062 24.0873 6.35041 23.5352V22.418C6.3505 21.8658 6.79818 21.418 7.35041 21.418Z" fill="#FAFAFA"/>
<path d="M12.3726 21.418C12.9248 21.418 13.3725 21.8658 13.3726 22.418V23.5352C13.3723 24.0873 12.9247 24.5352 12.3726 24.5352C11.8206 24.535 11.3728 24.0871 11.3726 23.5352V22.418C11.3726 21.8659 11.8205 21.4182 12.3726 21.418Z" fill="#FAFAFA"/>
<path d="M13.4884 16.9531C14.0407 16.9532 14.4884 17.4009 14.4884 17.9531C14.4884 18.5053 14.0406 18.953 13.4884 18.9531H13.3726V19.0703C13.3723 19.6224 12.9247 20.0703 12.3726 20.0703C11.8206 20.0701 11.3728 19.6223 11.3726 19.0703V17.9531C11.3726 17.401 11.8204 16.9533 12.3726 16.9531H13.4884Z" fill="#FAFAFA"/>
<path d="M4.94937 13.3594C5.32926 12.9587 5.96263 12.9419 6.36343 13.3216C6.76371 13.7016 6.7797 14.3338 6.39989 14.7344L6.32437 14.8138H7.34911C7.90138 14.8138 8.34908 15.2615 8.34911 15.8138V18.8034C8.34898 19.3556 7.90132 19.8034 7.34911 19.8034C6.7973 19.8029 6.34924 19.3553 6.34911 18.8034V16.8138H4.00015C3.60073 16.8136 3.23865 16.5753 3.08088 16.2083C2.92329 15.8414 3.0002 15.4149 3.27489 15.125L4.94937 13.3594Z" fill="#FAFAFA"/>
<path d="M8.31526 9.99089C8.70573 9.60041 9.34009 9.60051 9.73062 9.99089C10.1207 10.3813 10.1207 11.0145 9.73062 11.4049L8.33479 12.8008C7.94431 13.1904 7.31102 13.1907 6.92073 12.8008C6.5305 12.4104 6.53071 11.7759 6.92073 11.3854L8.31526 9.99089Z" fill="#FAFAFA"/>
<path d="M11.6655 6.64193C12.0561 6.25176 12.6905 6.25155 13.0809 6.64193C13.4709 7.03226 13.4706 7.66552 13.0809 8.05599L11.6851 9.45182C11.2946 9.84193 10.6614 9.84193 10.271 9.45182C9.88049 9.0613 9.88047 8.42697 10.271 8.03646L11.6655 6.64193Z" fill="#FAFAFA"/>
</svg>
