<svg width="32" height="32" viewBox="0 0 32 32" fill="none" xmlns="http://www.w3.org/2000/svg">
<path fill-rule="evenodd" clip-rule="evenodd" d="M15.9993 27.3332C22.2586 27.3332 27.3327 22.2591 27.3327 15.9998C27.3327 9.74061 22.2586 4.6665 15.9993 4.6665C9.74012 4.6665 4.66601 9.74061 4.66601 15.9998C4.66601 22.2591 9.74012 27.3332 15.9993 27.3332ZM29.3327 15.9998C29.3327 23.3636 23.3631 29.3332 15.9993 29.3332C8.63555 29.3332 2.66602 23.3636 2.66602 15.9998C2.66602 8.63604 8.63555 2.6665 15.9993 2.6665C23.3631 2.6665 29.3327 8.63604 29.3327 15.9998Z" fill="#FAFAFA"/>
<path fill-rule="evenodd" clip-rule="evenodd" d="M22.0398 10.6927C21.6493 10.3022 21.0161 10.3022 20.6256 10.6927L16.235 15.0833C16.1049 15.2134 15.8938 15.2134 15.7636 15.0833L11.3731 10.6927C10.9826 10.3022 10.3494 10.3022 9.95891 10.6927C9.56838 11.0833 9.56838 11.7164 9.95891 12.1069L14.3494 16.4975C15.2607 17.4087 16.738 17.4087 17.6493 16.4975L22.0398 12.1069C22.4303 11.7164 22.4303 11.0833 22.0398 10.6927ZM22.0398 16.0261C21.6493 15.6355 21.0161 15.6355 20.6256 16.0261L16.235 20.4166C16.1049 20.5468 15.8938 20.5468 15.7636 20.4166L11.3731 16.0261C10.9826 15.6355 10.3494 15.6355 9.95891 16.0261C9.56838 16.4166 9.56838 17.0498 9.95891 17.4403L14.3494 21.8308C15.2607 22.742 16.738 22.742 17.6493 21.8308L22.0398 17.4403C22.4303 17.0497 22.4303 16.4166 22.0398 16.0261Z" fill="#FAFAFA"/>
</svg>
