<svg width="32" height="32" viewBox="0 0 32 32" fill="none" xmlns="http://www.w3.org/2000/svg">
<path fill-rule="evenodd" clip-rule="evenodd" d="M5.33301 3.6665C5.33301 3.11422 5.78072 2.6665 6.33301 2.6665H25.6663C26.2186 2.6665 26.6663 3.11422 26.6663 3.6665C26.6663 4.21879 26.2186 4.6665 25.6663 4.6665H6.33301C5.78072 4.6665 5.33301 4.21879 5.33301 3.6665ZM9.6259 15.0403C9.23538 14.6498 9.23538 14.0166 9.6259 13.6261L14.3497 8.90221C15.261 7.99098 16.7383 7.99098 17.6496 8.9022L22.3734 13.6261C22.764 14.0166 22.764 14.6497 22.3735 15.0403C21.9829 15.4308 21.3498 15.4308 20.9592 15.0403L16.9997 11.0807V28.3332C16.9997 28.8855 16.5519 29.3332 15.9997 29.3332C15.4474 29.3332 14.9997 28.8855 14.9997 28.3332V11.0807L11.0401 15.0403C10.6496 15.4308 10.0164 15.4308 9.6259 15.0403Z" fill="#FAFAFA"/>
</svg>
