<svg width="32" height="32" viewBox="0 0 32 32" fill="none" xmlns="http://www.w3.org/2000/svg">
<path d="M1.66797 6.6665V2.6665L1.67318 2.56364C1.72467 2.05968 2.15041 1.6665 2.66797 1.6665H6.66797L6.77083 1.67171C7.27479 1.72321 7.66797 2.14895 7.66797 2.6665C7.66797 3.18406 7.27479 3.6098 6.77083 3.6613L6.66797 3.6665H3.66797V6.6665C3.66797 7.21879 3.22025 7.6665 2.66797 7.6665C2.11568 7.6665 1.66797 7.21879 1.66797 6.6665Z" fill="#FAFAFA"/>
<path d="M19.3346 15.9998C19.3346 14.1588 17.8423 12.6665 16.0013 12.6665C14.1603 12.6665 12.668 14.1588 12.668 15.9998C12.668 17.8408 14.1603 19.3332 16.0013 19.3332V21.3332L15.7266 21.3267C12.9997 21.1883 10.8128 19.0015 10.6745 16.2746L10.668 15.9998C10.668 13.0543 13.0557 10.6665 16.0013 10.6665L16.276 10.673C19.0939 10.816 21.3346 13.1464 21.3346 15.9998L21.3281 16.2746C21.1852 19.0925 18.8547 21.3332 16.0013 21.3332V19.3332C17.8423 19.3332 19.3346 17.8408 19.3346 15.9998Z" fill="#FAFAFA"/>
<path d="M16.0013 5.6665C19.2718 5.6665 21.9707 7.02692 24.2526 8.90348C26.5172 10.7659 28.4292 13.1861 30.1263 15.3892C30.346 15.6744 30.394 16.0525 30.2604 16.3787L30.1914 16.5155C28.7379 18.9324 26.7014 21.3661 24.2917 23.2056C21.8845 25.0429 19.0419 26.3332 16.0013 26.3332C12.9607 26.3332 10.1181 25.0429 7.71094 23.2056C5.30116 21.3661 3.2647 18.9325 1.8112 16.5155C1.59906 16.1627 1.6251 15.7153 1.8763 15.3892C3.57341 13.1861 5.48536 10.7659 7.75 8.90348C10.0319 7.02692 12.7308 5.6665 16.0013 5.6665ZM16.0013 7.6665C13.3335 7.6665 11.0684 8.76282 9.01953 10.4478C7.12402 12.0066 5.46427 14.0259 3.88411 16.061C5.19461 18.0995 6.93241 20.0951 8.92448 21.6157C11.1074 23.2819 13.5334 24.3332 16.0013 24.3332C18.4692 24.3332 20.8953 23.2819 23.0781 21.6157C25.07 20.0952 26.8067 18.0993 28.1172 16.061C26.5372 14.0261 24.8784 12.0065 22.9831 10.4478C20.9342 8.76282 18.6691 7.6665 16.0013 7.6665Z" fill="#FAFAFA"/>
<path d="M28.3346 6.6665V3.6665H25.3346C24.7823 3.6665 24.3346 3.21879 24.3346 2.6665C24.3346 2.11422 24.7823 1.6665 25.3346 1.6665H29.3346L29.4375 1.67171C29.9415 1.72321 30.3346 2.14895 30.3346 2.6665V6.6665C30.3346 7.21879 29.8869 7.6665 29.3346 7.6665C28.7823 7.6665 28.3346 7.21879 28.3346 6.6665Z" fill="#FAFAFA"/>
<path d="M1.66797 25.3332C1.66797 24.7809 2.11568 24.3332 2.66797 24.3332C3.22025 24.3332 3.66797 24.7809 3.66797 25.3332V28.3332H6.66797L6.77083 28.3384C7.27479 28.3899 7.66797 28.8156 7.66797 29.3332C7.66797 29.8507 7.27479 30.2765 6.77083 30.328L6.66797 30.3332H2.66797C2.11568 30.3332 1.66797 29.8855 1.66797 29.3332V25.3332Z" fill="#FAFAFA"/>
<path d="M28.3346 25.3332C28.3346 24.7809 28.7823 24.3332 29.3346 24.3332C29.8869 24.3332 30.3346 24.7809 30.3346 25.3332V29.3332C30.3346 29.8855 29.8869 30.3332 29.3346 30.3332H25.3346C24.7823 30.3332 24.3346 29.8855 24.3346 29.3332C24.3346 28.7809 24.7823 28.3332 25.3346 28.3332H28.3346V25.3332Z" fill="#FAFAFA"/>
</svg>
