<svg width="32" height="32" viewBox="0 0 32 32" fill="none" xmlns="http://www.w3.org/2000/svg">
<path d="M13.2526 17.7331C13.584 17.2913 14.2105 17.2026 14.6523 17.5339C15.0942 17.8652 15.1842 18.4918 14.8529 18.9336L12.3568 22.2604C12.0383 22.6849 11.4442 22.7866 11.0026 22.4922L9.5026 21.4922C9.04336 21.1858 8.91898 20.5649 9.22526 20.1055C9.53162 19.6463 10.1526 19.5221 10.612 19.8281L11.3255 20.3034L13.2526 17.7331Z" fill="#FAFAFA"/>
<path d="M21.7435 18.9974C22.2958 18.9974 22.7435 19.4451 22.7435 19.9974C22.7433 20.5495 22.2957 20.9974 21.7435 20.9974H18.4102C17.8582 20.9971 17.4103 20.5493 17.4102 19.9974C17.4102 19.4453 17.8581 18.9977 18.4102 18.9974H21.7435Z" fill="#FAFAFA"/>
<path d="M13.2526 9.73698C13.5839 9.29523 14.2105 9.2053 14.6523 9.53646C15.0941 9.8678 15.1841 10.4944 14.8529 10.9362L12.3568 14.2643C12.0383 14.6883 11.444 14.7902 11.0026 14.4961L9.5026 13.4961C9.04316 13.1898 8.91913 12.5689 9.22526 12.1094C9.53161 11.6498 10.1525 11.5257 10.612 11.832L11.3255 12.3073L13.2526 9.73698Z" fill="#FAFAFA"/>
<path d="M21.7435 11C22.2958 11 22.7435 11.4477 22.7435 12C22.7435 12.5523 22.2958 13 21.7435 13H18.4102C17.8581 12.9998 17.4102 12.5521 17.4102 12C17.4102 11.4479 17.8581 11.0002 18.4102 11H21.7435Z" fill="#FAFAFA"/>
<path fill-rule="evenodd" clip-rule="evenodd" d="M24.3333 4C26.3584 4 28 5.64162 28 7.66667V24.3333C28 26.3584 26.3584 28 24.3333 28H7.66667C5.64162 28 4 26.3584 4 24.3333V7.66667C4 5.64162 5.64162 4 7.66667 4H24.3333ZM7.66667 6C6.74619 6 6 6.74619 6 7.66667V24.3333C6 25.2538 6.74619 26 7.66667 26H24.3333C25.2538 26 26 25.2538 26 24.3333V7.66667C26 6.74619 25.2538 6 24.3333 6H7.66667Z" fill="#FAFAFA"/>
</svg>
