<svg width="32" height="32" viewBox="0 0 32 32" fill="none" xmlns="http://www.w3.org/2000/svg">
<path d="M16.0013 16.3333C16.5536 16.3333 17.0013 16.781 17.0013 17.3333V19.3333C17.0013 19.8856 16.5536 20.3333 16.0013 20.3333C15.449 20.3333 15.0013 19.8856 15.0013 19.3333V17.3333C15.0013 16.781 15.449 16.3333 16.0013 16.3333Z" fill="#FAFAFA"/>
<path fill-rule="evenodd" clip-rule="evenodd" d="M16.2461 3.00521C17.4688 3.06283 18.6372 3.55165 19.5195 4.39193C20.4621 5.28969 21.0013 6.51825 21.0013 7.8099V10.6667H22.224C23.0488 10.6668 23.8399 10.9909 24.4232 11.5677C25.0066 12.1447 25.3346 12.9275 25.3346 13.7435V20.9232C25.3346 21.7392 25.0066 22.5219 24.4232 23.099C23.8399 23.6758 23.0488 23.9999 22.224 24H17.0013V27H25.3346C25.8869 27 26.3346 27.4477 26.3346 28C26.3346 28.5523 25.8869 29 25.3346 29H6.66797C6.11568 29 5.66797 28.5523 5.66797 28C5.66797 27.4477 6.11568 27 6.66797 27H15.0013V24H9.77865C8.95378 23.9999 8.16275 23.6758 7.57943 23.099C6.996 22.5219 6.668 21.7392 6.66797 20.9232V13.7435C6.668 12.9275 6.996 12.1447 7.57943 11.5677C8.16275 10.9909 8.95378 10.6668 9.77865 10.6667H11.0013V7.8099C11.0013 6.51825 11.5405 5.28969 12.4831 4.39193C13.4241 3.49573 14.6905 3 16.0013 3L16.2461 3.00521ZM9.77865 12.6667C9.47713 12.6668 9.19228 12.7854 8.98568 12.9896C8.77973 13.1933 8.668 13.4651 8.66797 13.7435V20.9232L8.67318 21.0273C8.69742 21.2685 8.80553 21.4989 8.98568 21.6771C9.19228 21.8813 9.47713 21.9999 9.77865 22H22.224C22.5255 21.9999 22.8103 21.8813 23.0169 21.6771C23.2229 21.4734 23.3346 21.2016 23.3346 20.9232V13.7435C23.3346 13.4651 23.2229 13.1933 23.0169 12.9896C22.8361 12.8108 22.5953 12.6974 22.3359 12.6719L22.224 12.6667H9.77865ZM16.0013 5C15.1903 5 14.4213 5.30719 13.862 5.83984C13.3045 6.37089 13.0013 7.08105 13.0013 7.8099V10.6667H19.0013V7.8099C19.0013 7.08105 18.6981 6.37089 18.1406 5.83984C17.6513 5.37384 17.0013 5.08047 16.3034 5.01432L16.0013 5Z" fill="#FAFAFA"/>
</svg>
