<svg width="32" height="32" viewBox="0 0 32 32" fill="none" xmlns="http://www.w3.org/2000/svg">
<path fill-rule="evenodd" clip-rule="evenodd" d="M6.18438 5.42873C6.87855 4.52779 7.95152 4 9.08887 4H22.9098C24.0472 4 25.1201 4.52779 25.8143 5.42873L29.1248 9.72523C29.2596 9.90015 29.3327 10.1148 29.3327 10.3356V11.6695C29.3327 12.9904 28.8089 14.1882 27.9623 15.0778V24.3333C27.9623 26.3584 26.3207 28 24.2956 28H7.70305C5.67801 28 4.03639 26.3584 4.03639 24.3333V15.0778C3.18982 14.1882 2.66602 12.9904 2.66602 11.6695V10.3356C2.66602 10.1148 2.73911 9.90015 2.87388 9.72523L6.18438 5.42873ZM6.03639 16.3733V24.3333C6.03639 25.2538 6.78258 26 7.70305 26H12.2586L12.2586 22.9983C12.2586 20.9474 13.959 19.3305 15.9994 19.3305C18.0397 19.3305 19.7401 20.9474 19.7401 22.9983L19.7401 26H24.2956C25.2161 26 25.9623 25.2538 25.9623 24.3333V16.3733C25.4182 16.5662 24.8318 16.6712 24.2216 16.6712C22.5471 16.6712 21.0459 15.8778 20.1105 14.6429C19.1751 15.8778 17.6738 16.6712 15.9993 16.6712C14.3249 16.6712 12.8236 15.8778 11.8882 14.6429C10.9528 15.8778 9.45157 16.6712 7.77713 16.6712C7.16689 16.6712 6.58047 16.5662 6.03639 16.3733ZM12.8882 11.6695C12.8882 13.302 14.2555 14.6712 15.9993 14.6712C17.7432 14.6712 19.1105 13.302 19.1105 11.6695V11.3356H12.8882V11.6695ZM10.8882 11.3356V11.6695C10.8882 13.302 9.52095 14.6712 7.77713 14.6712C6.97175 14.6712 6.24315 14.3773 5.69327 13.8982C5.05704 13.3439 4.66602 12.5485 4.66602 11.6695V11.3356H10.8882ZM26.2998 9.33558L24.2301 6.64942C23.9145 6.23991 23.4268 6 22.9098 6H9.08887C8.57189 6 8.08418 6.23991 7.76864 6.64942L5.69894 9.33558H26.2998ZM27.3327 11.3356H21.1105V11.6695C21.1105 13.302 22.4778 14.6712 24.2216 14.6712C25.027 14.6712 25.7555 14.3773 26.3054 13.8982C26.9417 13.3439 27.3327 12.5485 27.3327 11.6695V11.3356ZM17.7401 26L17.7401 22.9983C17.7401 22.1025 16.9863 21.3305 15.9994 21.3305C15.0124 21.3305 14.2586 22.1025 14.2586 22.9983L14.2586 26H17.7401Z" fill="#FAFAFA"/>
</svg>
