<svg width="32" height="32" viewBox="0 0 32 32" fill="none" xmlns="http://www.w3.org/2000/svg">
<path fill-rule="evenodd" clip-rule="evenodd" d="M9.33301 4C9.88529 4 10.333 4.44772 10.333 5V24.5858L12.6259 22.2929C13.0164 21.9024 13.6496 21.9024 14.0401 22.2929C14.4306 22.6834 14.4306 23.3166 14.0401 23.7071L10.0401 27.7071C9.64959 28.0976 9.01643 28.0976 8.6259 27.7071L4.6259 23.7071C4.23538 23.3166 4.23538 22.6834 4.6259 22.2929C5.01643 21.9024 5.64959 21.9024 6.04011 22.2929L8.33301 24.5858V5C8.33301 4.44772 8.78072 4 9.33301 4ZM18.6663 5C18.6663 4.44772 19.1141 4 19.6663 4H26.9997C27.3891 4 27.743 4.22602 27.9069 4.57925C28.0707 4.93249 28.0146 5.3487 27.7631 5.64594L21.8224 12.6667H26.9997C27.552 12.6667 27.9997 13.1144 27.9997 13.6667C27.9997 14.219 27.552 14.6667 26.9997 14.6667H19.6663C19.277 14.6667 18.923 14.4406 18.7592 14.0874C18.5953 13.7342 18.6514 13.318 18.903 13.0207L24.8436 6H19.6663C19.1141 6 18.6663 5.55228 18.6663 5ZM23.3337 17.3333C23.717 17.3336 24.0665 17.553 24.2334 17.8982L28.4222 26.5648C28.6625 27.0621 28.4543 27.66 27.957 27.9004C27.4597 28.1407 26.8618 27.9324 26.6215 27.4352L25.2834 24.6667H21.3729L20.0297 27.4364C19.7887 27.9333 19.1904 28.1408 18.6935 27.8998C18.1966 27.6588 17.9891 27.0606 18.2301 26.5636L22.4332 17.897C22.6005 17.552 22.9503 17.3331 23.3337 17.3333ZM22.3428 22.6667H24.3167L23.3315 20.6281L22.3428 22.6667Z" fill="#FAFAFA"/>
</svg>
