<svg width="32" height="32" viewBox="0 0 32 32" fill="none" xmlns="http://www.w3.org/2000/svg">
<path fill-rule="evenodd" clip-rule="evenodd" d="M9.33333 4C9.88562 4 10.3333 4.44772 10.3333 5V6.76018C12.8015 7.228 14.6667 9.39536 14.6667 12C14.6667 14.6046 12.8015 16.772 10.3333 17.2398V27C10.3333 27.5523 9.88562 28 9.33333 28C8.78105 28 8.33333 27.5523 8.33333 27V17.2398C5.86521 16.772 4 14.6046 4 12C4 9.39536 5.86521 7.228 8.33333 6.76018V5C8.33333 4.44772 8.78105 4 9.33333 4ZM22.6667 4C23.219 4 23.6667 4.44772 23.6667 5V17.4268C26.1348 17.8947 28 20.062 28 22.6667C28 25.6131 25.6131 28 22.6667 28C19.7202 28 17.3333 25.6131 17.3333 22.6667C17.3333 20.062 19.1985 17.8947 21.6667 17.4268V5C21.6667 4.44772 22.1144 4 22.6667 4ZM9.33333 8.66667C7.49145 8.66667 6 10.1581 6 12C6 13.8419 7.49145 15.3333 9.33333 15.3333C11.1752 15.3333 12.6667 13.8419 12.6667 12C12.6667 10.1581 11.1752 8.66667 9.33333 8.66667ZM22.6667 19.3333C20.8248 19.3333 19.3333 20.8248 19.3333 22.6667C19.3333 24.5085 20.8248 26 22.6667 26C24.5085 26 26 24.5085 26 22.6667C26 20.8248 24.5085 19.3333 22.6667 19.3333Z" fill="#FAFAFA"/>
</svg>
