<svg width="32" height="32" viewBox="0 0 32 32" fill="none" xmlns="http://www.w3.org/2000/svg">
<path d="M16 19.001C16.7363 19.0011 17.333 19.5977 17.333 20.334C17.3329 21.0702 16.7363 21.6669 16 21.667C15.2637 21.667 14.6671 21.0703 14.667 20.334C14.667 19.5976 15.2636 19.001 16 19.001Z" fill="#FAFAFA"/>
<path d="M16 10.333C16.5522 10.3331 17 10.7818 17 11.334V16.667C16.9996 17.2189 16.552 17.6669 16 17.667C15.4479 17.667 15.0004 17.219 15 16.667V11.334C15 10.7817 15.4477 10.333 16 10.333Z" fill="#FAFAFA"/>
<path fill-rule="evenodd" clip-rule="evenodd" d="M24.667 2.66602C26.5078 2.66619 28 4.15916 28 6V15.4609C27.9999 23.9912 19.8453 27.8847 16.9805 28.9893L16.7412 29.0684C16.1755 29.2265 15.5804 29.1881 15.0312 28.957C12.1772 27.756 4.00011 23.6046 4 15.4609V6C4 4.15916 5.49221 2.66619 7.33301 2.66602H24.667ZM7.33301 4.66602C6.59678 4.66619 6 5.26373 6 6V15.4609C6.00005 18.7915 7.65359 21.3697 9.79785 23.3398C11.9586 25.3251 14.4817 26.5563 15.8076 27.1143C15.9626 27.1793 16.1139 27.18 16.2617 27.123C17.583 26.6136 20.0815 25.4721 22.2197 23.5293C24.3282 21.6135 25.9999 19.0088 26 15.4609V6C26 5.26373 25.4032 4.66619 24.667 4.66602H7.33301Z" fill="#FAFAFA"/>
</svg>
