<svg width="32" height="32" viewBox="0 0 32 32" fill="none" xmlns="http://www.w3.org/2000/svg">
<path fill-rule="evenodd" clip-rule="evenodd" d="M5.81815 2.54329C5.82641 2.54358 5.83464 2.54411 5.84289 2.5446C5.89489 2.54765 5.94567 2.55473 5.99524 2.56543C6.03963 2.575 6.08244 2.59014 6.12544 2.60579C6.1421 2.61188 6.16 2.61449 6.17623 2.62142C6.29017 2.66993 6.39698 2.74094 6.49003 2.83366L10.0773 6.40918C10.468 6.79902 10.4695 7.43217 10.0799 7.82324C9.69021 8.2142 9.05704 8.21511 8.66581 7.82585L6.783 5.94954V13.8037L15.5864 5.00033H13.3338C12.7815 5.00033 12.3338 4.55261 12.3338 4.00033C12.3338 3.44804 12.7815 3.00033 13.3338 3.00033H25.3338L25.7088 3.01986C27.5575 3.2078 29.0004 4.76864 29.0004 6.66699V18.667C29.0004 19.2192 28.5526 19.6669 28.0004 19.667C27.4482 19.667 27.0004 19.2193 27.0004 18.667V16.4144L18.1984 25.2165H26.0499L24.1749 23.335C23.7854 22.9438 23.7866 22.3107 24.1775 21.9209C24.5687 21.5312 25.2018 21.5325 25.5916 21.9235L29.1671 25.5107C29.2485 25.5925 29.3086 25.687 29.3559 25.7855C29.3634 25.801 29.374 25.8151 29.3807 25.8311C29.3985 25.8737 29.4094 25.9182 29.421 25.9626C29.4261 25.9818 29.434 26.0002 29.4379 26.0199C29.4397 26.0285 29.4404 26.0372 29.4418 26.0459C29.4499 26.0927 29.4535 26.1404 29.4549 26.1891C29.4554 26.2087 29.4555 26.2281 29.4549 26.2477C29.4535 26.2924 29.4502 26.3362 29.4432 26.3792C29.4104 26.5784 29.3192 26.7699 29.1658 26.9235L25.5903 30.499C25.1998 30.8892 24.5666 30.8893 24.1762 30.499C23.786 30.1086 23.7861 29.4754 24.1762 29.085L26.0434 27.2165H8.44966C6.42483 27.2162 4.783 25.5747 4.783 23.5498V5.95605L2.91581 7.82454C2.52539 8.21469 1.89221 8.21462 1.50175 7.82454C1.11131 7.43411 1.11148 6.80103 1.50175 6.41048L5.06946 2.84147C5.07569 2.83512 5.08258 2.82943 5.08899 2.82324L5.15279 2.76595C5.16442 2.75648 5.1773 2.74878 5.18925 2.73991C5.21362 2.72182 5.23876 2.70498 5.26477 2.68913C5.29287 2.67201 5.32139 2.65635 5.35071 2.64225C5.37783 2.62918 5.40562 2.61772 5.43404 2.6071C5.46784 2.59449 5.50217 2.58467 5.5369 2.57585C5.57031 2.56735 5.60381 2.55875 5.63847 2.55371C5.64503 2.55275 5.65142 2.55063 5.658 2.5498C5.69895 2.54468 5.74066 2.54201 5.783 2.54199C5.79462 2.54199 5.80662 2.5429 5.81815 2.54329ZM6.783 23.2985V23.5498C6.783 24.4701 7.52939 25.2162 8.44966 25.2165H8.70357L27.0004 6.9196V6.66699C27.0004 5.80419 26.3446 5.09498 25.5044 5.00944L25.3338 5.00033H25.0812L6.783 23.2985ZM11.5317 25.2165H15.3702L27.0004 13.5863V9.74772L11.5317 25.2165ZM6.783 16.6318V20.4704L22.253 5.00033H18.4145L6.783 16.6318Z" fill="#FAFAFA"/>
</svg>
