<svg width="32" height="32" viewBox="0 0 32 32" fill="none" xmlns="http://www.w3.org/2000/svg">
<path d="M21.7129 14.6479C21.7129 11.492 19.1545 8.93359 15.9986 8.93359V16.8669H21.7129V14.6479Z" fill="#316EFF"/>
<path d="M20.6663 20V14.6667C20.6663 12.0893 18.577 10 15.9997 10C13.4223 10 11.333 12.0893 11.333 14.6667V20C11.333 22.5773 13.4223 24.6667 15.9997 24.6667V26.6667C12.4326 26.6667 9.52038 23.8652 9.34212 20.3424L9.33301 20V14.6667C9.33301 10.9848 12.3178 8 15.9997 8C19.6816 8 22.6663 10.9848 22.6663 14.6667V20L22.6572 20.3424C22.479 23.8652 19.5667 26.6667 15.9997 26.6667V24.6667C18.577 24.6667 20.6663 22.5773 20.6663 20Z" fill="#FAFAFA"/>
<path d="M21.7145 15.8667V17.8667H10.2861V15.8667H21.7145Z" fill="#FAFAFA"/>
<path d="M15.8626 15.0412C15.2352 14.9773 14.7361 14.4786 14.6725 13.8511L14.666 13.7157V12.4618C14.666 11.7254 15.263 11.1284 15.9993 11.1284C16.7357 11.1284 17.3327 11.7254 17.3327 12.4618V13.7157L17.3262 13.8511C17.2581 14.5236 16.6898 15.049 15.9993 15.049L15.8626 15.0412Z" fill="#FAFAFA"/>
<path d="M24.8785 7.99984V7.26088L27.1925 5.48177C27.4536 5.28096 27.6434 5.09355 27.7618 4.91952C27.8833 4.74281 27.944 4.54736 27.944 4.33317C27.944 4.12434 27.8818 3.95031 27.7573 3.81108C27.6328 3.67186 27.4217 3.60225 27.1241 3.60225C26.7871 3.60225 26.5456 3.68658 26.3999 3.85526C26.2541 4.02393 26.1812 4.24214 26.1812 4.50988H25.0242C25.0242 4.12434 25.1047 3.79368 25.2657 3.51791C25.4296 3.24214 25.668 3.03197 25.9808 2.88739C26.2936 2.74013 26.6747 2.6665 27.1241 2.6665C27.5371 2.6665 27.897 2.72942 28.2037 2.85526C28.5134 2.9811 28.7518 3.16182 28.9188 3.39743C29.0889 3.63304 29.1739 3.91952 29.1739 4.25687C29.1739 4.54067 29.1147 4.79234 28.9963 5.01189C28.8778 5.23143 28.7154 5.43357 28.5089 5.61831C28.3054 5.80037 28.0731 5.98645 27.8119 6.17654L26.5684 7.09622H29.3333V7.99984H24.8785Z" fill="#316EFF"/>
<path d="M20 7.99984L21.6899 5.74281L22.2183 5.47373L23.1612 4.08016H24.4503L22.8788 6.18859L22.396 6.44964L21.2891 7.99984H20ZM23.3024 7.99984L22.1864 6.44964L21.7537 6.20064L20.1503 4.08016H21.4394L22.396 5.46972L22.8879 5.73879L24.5961 7.99984H23.3024Z" fill="#316EFF"/>
</svg>
