<svg width="32" height="32" viewBox="0 0 32 32" fill="none" xmlns="http://www.w3.org/2000/svg">
<path fill-rule="evenodd" clip-rule="evenodd" d="M2.66602 8.33333C2.66602 5.9401 4.60612 4 6.99935 4H10.3327V8H14.3327C14.885 8 15.3327 8.44772 15.3327 9C15.3327 9.55229 14.885 10 14.3327 10H10.3327V20.3333C10.3327 20.8856 9.88497 21.3333 9.33268 21.3333H6.99935C5.71068 21.3333 4.66602 22.378 4.66602 23.6667C4.66602 24.9553 5.71068 26 6.99935 26H24.3327C25.2532 26 25.9993 25.2538 25.9993 24.3333V17C25.9993 16.4477 26.4471 16 26.9993 16C27.5516 16 27.9993 16.4477 27.9993 17V24.3333C27.9993 26.3584 26.3577 28 24.3327 28H6.99935C4.60611 28 2.66602 26.0599 2.66602 23.6667V8.33333ZM4.66602 20.0145C5.33955 19.5833 6.14025 19.3333 6.99935 19.3333H8.33268V6H6.99935C5.71068 6 4.66602 7.04467 4.66602 8.33333V20.0145ZM22.666 6C20.8146 6 19.3327 7.48145 19.3327 9.28571C19.3327 10.6526 20.1678 11.8318 21.171 12.7413C21.6591 13.1837 22.1514 13.5291 22.5231 13.764C22.5732 13.7957 22.621 13.8252 22.666 13.8526C22.711 13.8252 22.7588 13.7957 22.8089 13.764C23.1807 13.5291 23.673 13.1837 24.161 12.7413C25.1643 11.8318 25.9993 10.6526 25.9993 9.28571C25.9993 7.48145 24.5174 6 22.666 6ZM22.666 15C22.2227 15.8964 22.2224 15.8962 22.2221 15.8961L22.2196 15.8948L22.2149 15.8925L22.2008 15.8854L22.1546 15.8616C22.1161 15.8414 22.0624 15.8128 21.9956 15.7759C21.8623 15.7021 21.6762 15.5946 21.4548 15.4548C21.014 15.1762 20.423 14.7627 19.8277 14.223C18.6643 13.1682 17.3327 11.4903 17.3327 9.28571C17.3327 6.35611 19.7309 4 22.666 4C25.6011 4 27.9993 6.35611 27.9993 9.28571C27.9993 11.4903 26.6678 13.1682 25.5043 14.223C24.9091 14.7627 24.318 15.1762 23.8773 15.4548C23.6559 15.5946 23.4697 15.7021 23.3364 15.7759C23.2697 15.8128 23.2159 15.8414 23.1774 15.8616L23.1312 15.8854L23.1171 15.8925L23.1124 15.8948L23.1106 15.8957C23.1103 15.8959 23.1093 15.8964 22.666 15ZM22.666 15L23.1093 15.8964C22.8299 16.0345 22.5015 16.0342 22.2221 15.8961L22.666 15Z" fill="#FAFAFA"/>
</svg>
