<svg width="32" height="32" viewBox="0 0 32 32" fill="none" xmlns="http://www.w3.org/2000/svg">
<path d="M3.51248 25C4.06452 25.0003 4.51248 25.4479 4.51248 26C4.51248 26.5521 4.06452 26.9997 3.51248 27H3.49946C2.94737 26.9998 2.49946 26.5521 2.49946 26C2.49946 25.4479 2.94737 25.0002 3.49946 25H3.51248Z" fill="#FAFAFA"/>
<path d="M2.51638 20.8164C2.6177 20.2739 3.14042 19.9161 3.68305 20.0169C5.12211 20.285 6.4461 20.9832 7.48123 22.0182C8.51637 23.0534 9.21438 24.3773 9.48253 25.8164C9.58362 26.3592 9.22573 26.8817 8.68305 26.9831C8.14042 27.0839 7.6177 26.7261 7.51638 26.1836C7.32225 25.1413 6.81683 24.182 6.06716 23.4323C5.31751 22.6827 4.35805 22.1772 3.31586 21.9831C2.77345 21.8815 2.41537 21.359 2.51638 20.8164Z" fill="#FAFAFA"/>
<path d="M3.60492 15.0052C6.39153 15.3009 8.99318 16.5433 10.9747 18.5247C12.9563 20.5063 14.1985 23.1078 14.4942 25.8945C14.5525 26.4437 14.1541 26.9365 13.6049 26.9948C13.0559 27.0528 12.5629 26.6545 12.5047 26.1055C12.2572 23.7738 11.2187 21.5968 9.56065 19.9388C7.90266 18.2809 5.72558 17.2422 3.39399 16.9948C2.84506 16.9363 2.44648 16.4435 2.50466 15.8945C2.56293 15.3455 3.05594 14.9472 3.60492 15.0052Z" fill="#FAFAFA"/>
<path d="M25.9995 5C26.9276 5 27.8184 5.3685 28.4747 6.02474C29.1311 6.68112 29.4995 7.57174 29.4995 8.5V23.5C29.4995 24.4283 29.1311 25.3189 28.4747 25.9753C27.8184 26.6315 26.9276 27 25.9995 27H18.4995C17.9474 26.9998 17.4995 26.5521 17.4995 26C17.4995 25.4479 17.9474 25.0002 18.4995 25H25.9995C26.3972 25 26.7794 24.8424 27.0607 24.5612C27.342 24.2799 27.4995 23.8978 27.4995 23.5V8.5C27.4995 8.10218 27.342 7.72011 27.0607 7.4388C26.7794 7.15764 26.3972 7 25.9995 7H5.99946C5.60179 7.00012 5.21946 7.1576 4.93826 7.4388C4.65709 7.72009 4.49946 8.10228 4.49946 8.5V11C4.49946 11.5523 4.05174 12 3.49946 12C2.94737 11.9998 2.49946 11.5521 2.49946 11V8.5C2.49946 7.57185 2.86796 6.6811 3.52419 6.02474C4.18047 5.36847 5.07136 5.00012 5.99946 5H25.9995Z" fill="#FAFAFA"/>
</svg>
