<svg width="32" height="32" viewBox="0 0 32 32" fill="none" xmlns="http://www.w3.org/2000/svg">
<path d="M7.33398 8.00016C7.70217 8.00016 8.00065 8.29864 8.00065 8.66683C8.00065 9.03502 7.70217 9.3335 7.33398 9.3335H6.00065C5.63246 9.3335 5.33398 9.03502 5.33398 8.66683C5.33398 8.29864 5.63246 8.00016 6.00065 8.00016H7.33398Z" fill="#FAFAFA"/>
<path fill-rule="evenodd" clip-rule="evenodd" d="M7.33398 5.3335C8.80674 5.3335 10.0007 6.5274 10.0007 8.00016H12.6673C14.1401 8.00016 15.334 9.19407 15.334 10.6668V12.0002C15.334 15.2254 13.0436 17.915 10.0007 18.5327V24.0002C10.0007 25.381 8.95102 26.5162 7.60612 26.6525L7.33398 26.6668H6.00065L5.72852 26.6525C4.38361 26.5162 3.33398 25.381 3.33398 24.0002V8.00016C3.33398 6.5274 4.52789 5.3335 6.00065 5.3335H7.33398ZM6.00065 6.66683C5.26427 6.66683 4.66732 7.26378 4.66732 8.00016V24.0002C4.66732 24.7365 5.26427 25.3335 6.00065 25.3335H7.33398C8.07036 25.3335 8.66732 24.7365 8.66732 24.0002V8.00016C8.66732 7.26378 8.07036 6.66683 7.33398 6.66683H6.00065ZM10.0007 17.1655C12.301 16.5735 14.0007 14.4853 14.0007 12.0002V10.6668C14.0007 9.93045 13.4037 9.3335 12.6673 9.3335H10.0007V17.1655Z" fill="#FAFAFA"/>
<path d="M26.0007 8.00016C26.3688 8.00016 26.6673 8.29864 26.6673 8.66683C26.6673 9.03502 26.3688 9.3335 26.0007 9.3335H24.6673C24.2991 9.3335 24.0007 9.03502 24.0007 8.66683C24.0007 8.29864 24.2991 8.00016 24.6673 8.00016H26.0007Z" fill="#FAFAFA"/>
<path fill-rule="evenodd" clip-rule="evenodd" d="M26.0007 5.3335C27.4734 5.3335 28.6673 6.5274 28.6673 8.00016V24.0002C28.6673 25.381 27.6177 26.5162 26.2728 26.6525L26.0007 26.6668H24.6673L24.3952 26.6525C23.0503 26.5162 22.0007 25.381 22.0007 24.0002V18.5327C18.9577 17.915 16.6673 15.2254 16.6673 12.0002V10.6668C16.6673 9.19407 17.8612 8.00016 19.334 8.00016H22.0007C22.0007 6.5274 23.1946 5.3335 24.6673 5.3335H26.0007ZM24.6673 6.66683C23.9309 6.66683 23.334 7.26378 23.334 8.00016V24.0002C23.334 24.7365 23.9309 25.3335 24.6673 25.3335H26.0007C26.737 25.3335 27.334 24.7365 27.334 24.0002V8.00016C27.334 7.26378 26.737 6.66683 26.0007 6.66683H24.6673ZM19.334 9.3335C18.5976 9.3335 18.0007 9.93045 18.0007 10.6668V12.0002C18.0007 14.4853 19.7003 16.5735 22.0007 17.1655V9.3335H19.334Z" fill="#FAFAFA"/>
</svg>
