<svg width="32" height="32" viewBox="0 0 32 32" fill="none" xmlns="http://www.w3.org/2000/svg">
<path fill-rule="evenodd" clip-rule="evenodd" d="M14.724 7.83992C15.1751 7.82142 15.6264 7.89146 16.0495 8.04955C16.4787 8.2101 16.8717 8.45572 17.2031 8.77221C17.5347 9.0889 17.7991 9.47036 17.9792 9.892C18.159 10.3133 18.2517 10.7672 18.2513 11.2253V12.6121H18.388C18.9128 12.6112 19.4311 12.7328 19.901 12.9662C20.3128 13.1708 20.6784 13.4568 20.9753 13.8061L21.099 13.9597L21.1003 13.9623L23.7943 17.5626L29.4961 19.8464C29.8754 19.9983 30.1248 20.3663 30.125 20.7748V26.7371C30.125 27.2893 29.6773 27.7371 29.125 27.7371H25.1979C25.167 27.8372 25.1327 27.9367 25.0924 28.0339C24.9222 28.4448 24.6725 28.8184 24.3581 29.1329C24.0436 29.4473 23.6699 29.697 23.2591 29.8673C22.8485 30.0373 22.4079 30.1249 21.9635 30.1251C21.5189 30.1251 21.0775 30.0373 20.6667 29.8673C20.2559 29.6971 19.8821 29.4472 19.5677 29.1329C19.2534 28.8185 19.0035 28.4446 18.8333 28.0339C18.7931 27.9367 18.7575 27.8372 18.7266 27.7371H12.0729C11.9117 28.2588 11.6264 28.7396 11.2331 29.1329C10.5981 29.7679 9.73654 30.1248 8.83854 30.1251C7.94037 30.1251 7.07794 29.7678 6.44271 29.1329C6.04941 28.7395 5.76284 28.2589 5.60156 27.7371H2.875C2.32272 27.7371 1.875 27.2893 1.875 26.7371V19.5743C1.87503 19.5257 1.87868 19.4778 1.88542 19.4311C1.88694 19.4206 1.88878 19.4102 1.89062 19.3998C1.89447 19.378 1.90231 19.3573 1.90755 19.336C1.91718 19.297 1.92731 19.2586 1.94141 19.2214C1.95014 19.1984 1.9597 19.1759 1.97005 19.1537C1.98594 19.1196 2.00388 19.0868 2.02344 19.0548C2.03384 19.0378 2.04332 19.0203 2.05469 19.004C2.08694 18.9576 2.12178 18.9128 2.16146 18.8725C2.17224 18.8615 2.18534 18.853 2.19661 18.8425C2.23095 18.8107 2.26718 18.7809 2.30599 18.754C2.31658 18.7466 2.32766 18.7401 2.33854 18.7332C2.37765 18.7082 2.41805 18.685 2.46094 18.6654C2.4772 18.658 2.4937 18.6512 2.51042 18.6446C2.5268 18.6382 2.54305 18.6307 2.5599 18.6251L5.83724 17.5352L8.51172 13.9623L8.51693 13.9558C8.83443 13.5394 9.24456 13.2018 9.71354 12.9688C10.1825 12.7359 10.699 12.6134 11.2227 12.6121H11.4258V11.2253C11.4255 10.3422 11.7706 9.49348 12.3867 8.86075C12.9979 8.23346 13.8283 7.86839 14.7031 7.83992H14.7057C14.7116 7.83959 14.7181 7.83747 14.724 7.83731V7.83992ZM8.83854 25.3503C8.74676 25.3503 8.65517 25.3587 8.56641 25.3764C8.29963 25.4299 8.05208 25.5614 7.85677 25.7566C7.63389 25.9795 7.49492 26.2707 7.45964 26.5808C7.45372 26.6328 7.45052 26.6856 7.45052 26.7384C7.45077 27.1059 7.59686 27.4588 7.85677 27.7188C8.11693 27.9787 8.4708 28.1251 8.83854 28.1251C9.20611 28.1248 9.55908 27.9788 9.81901 27.7188C10.0789 27.4588 10.225 27.106 10.2253 26.7384C10.2253 26.6005 10.2034 26.4644 10.1641 26.3347C10.1509 26.2914 10.1358 26.2489 10.1185 26.2071C10.0997 26.1617 10.0782 26.1175 10.0547 26.0743C9.9918 25.959 9.91345 25.8511 9.81901 25.7566C9.77808 25.7157 9.73405 25.6785 9.6888 25.6433C9.64853 25.612 9.60702 25.5826 9.5638 25.5561C9.34727 25.4228 9.09657 25.3506 8.83854 25.3503ZM21.9635 25.3503C21.8539 25.3503 21.7443 25.3639 21.638 25.3894C21.5836 25.4026 21.5302 25.4192 21.4779 25.4389C21.4627 25.4445 21.4473 25.4496 21.4323 25.4558C21.422 25.4601 21.4112 25.4643 21.401 25.4688C21.2463 25.5376 21.1038 25.6346 20.9818 25.7566C20.7589 25.9795 20.6199 26.2707 20.5846 26.5808C20.5787 26.6329 20.5755 26.6857 20.5755 26.7384C20.5756 26.9201 20.6115 27.1004 20.681 27.2683C20.7507 27.4364 20.8531 27.5902 20.9818 27.7188C21.1105 27.8474 21.2642 27.95 21.4323 28.0196C21.6004 28.0891 21.7816 28.1251 21.9635 28.1251C22.1452 28.1249 22.3256 28.0891 22.4935 28.0196C22.6617 27.9499 22.8153 27.8476 22.944 27.7188C23.0728 27.59 23.1751 27.4365 23.2448 27.2683C23.3143 27.1004 23.3501 26.9201 23.3503 26.7384C23.3503 26.5564 23.3143 26.3752 23.2448 26.2071C23.1757 26.0404 23.074 25.8867 22.944 25.7566C22.8037 25.6163 22.6353 25.5107 22.4531 25.4415C22.2966 25.3822 22.1311 25.3505 21.9635 25.3503ZM3.875 25.7371H5.60156C5.62868 25.6494 5.65991 25.5631 5.69401 25.4779C5.70343 25.4544 5.71272 25.4309 5.72266 25.4076C5.75945 25.3214 5.79989 25.2367 5.84375 25.1537C5.85274 25.1367 5.86181 25.1198 5.87109 25.1029C5.91249 25.0277 5.95809 24.9549 6.00521 24.8829C6.01688 24.8651 6.02835 24.8471 6.04036 24.8295C6.09184 24.754 6.14541 24.6796 6.20312 24.6082C6.21838 24.5893 6.23562 24.572 6.2513 24.5535C6.31247 24.481 6.37515 24.4088 6.44271 24.3412C6.52177 24.2622 6.6044 24.1875 6.6901 24.1173C6.86244 23.976 7.04743 23.8527 7.24219 23.7488C7.72861 23.489 8.27581 23.3491 8.83724 23.349C9.73546 23.349 10.5978 23.7062 11.2331 24.3412C11.389 24.4971 11.5262 24.6685 11.6471 24.849C11.6536 24.8586 11.6603 24.868 11.6667 24.8777C11.7148 24.9511 11.7599 25.0262 11.8021 25.1029C11.8115 25.12 11.8216 25.1365 11.8307 25.1537C11.8744 25.2366 11.9138 25.3215 11.9505 25.4076C11.9605 25.4309 11.9697 25.4544 11.9792 25.4779C12.0133 25.5632 12.0457 25.6492 12.0729 25.7371H18.7266C18.7534 25.6501 18.7853 25.565 18.819 25.4805C18.8242 25.4677 18.828 25.4543 18.8333 25.4415C18.8379 25.4306 18.843 25.4198 18.8477 25.4089C18.8847 25.322 18.9245 25.2361 18.9688 25.1524C18.9758 25.1392 18.9837 25.1265 18.9909 25.1134C19.0311 25.0398 19.0742 24.9678 19.1198 24.8972C19.1345 24.8746 19.1489 24.8518 19.1641 24.8295C19.2141 24.756 19.267 24.6843 19.3229 24.6147C19.3397 24.5938 19.3577 24.5739 19.375 24.5535C19.4363 24.4807 19.4999 24.409 19.5677 24.3412C19.6111 24.2979 19.6577 24.2583 19.7031 24.2175C19.9051 24.0364 20.1257 23.8778 20.3646 23.7501L20.6667 23.6082C21.0736 23.4395 21.5132 23.3491 21.9622 23.349C22.8605 23.349 23.7228 23.7062 24.3581 24.3412C24.4307 24.4138 24.4987 24.4908 24.5638 24.5691C24.5727 24.5798 24.5811 24.5909 24.5898 24.6016C24.653 24.6795 24.7125 24.7598 24.7682 24.8425C24.7772 24.8558 24.7855 24.8695 24.7943 24.8829C24.8433 24.958 24.8895 25.0348 24.9323 25.1134C24.9397 25.1268 24.9472 25.1402 24.9544 25.1537C24.9956 25.2318 25.0341 25.3111 25.069 25.392C25.0762 25.4085 25.0855 25.4248 25.0924 25.4415C25.1005 25.461 25.1056 25.4817 25.1133 25.5014C25.1437 25.5791 25.1732 25.6572 25.1979 25.7371H28.125V21.4506L25.9362 20.5743H3.875V25.7371ZM11.0664 14.6212C10.9056 14.64 10.7486 14.6869 10.6029 14.7592C10.4089 14.8555 10.2394 14.9959 10.1081 15.168L7.55859 18.5743H22.0534L19.5013 15.1641C19.3717 14.9924 19.2031 14.8523 19.0104 14.7566C18.8179 14.6611 18.6055 14.6116 18.3906 14.6121H11.2279L11.0664 14.6212ZM14.7773 9.83731C14.4159 9.84678 14.0714 9.99767 13.819 10.2566C13.567 10.5156 13.4258 10.8627 13.4258 11.224V12.6121H16.2513V11.224C16.2515 11.0363 16.2131 10.8498 16.1393 10.6772C16.0656 10.5045 15.9573 10.3485 15.8216 10.2188C15.6859 10.0892 15.5247 9.98771 15.349 9.92195C15.1734 9.85636 14.9854 9.82731 14.7982 9.83601C14.7915 9.83633 14.784 9.8371 14.7773 9.83731Z" fill="#FAFAFA"/>
<path d="M9.04297 4.2683C9.43349 3.87778 10.0665 3.87778 10.457 4.2683L12.1445 5.9558C12.5348 6.34635 12.535 6.97943 12.1445 7.36987C11.7541 7.7601 11.1209 7.76005 10.7305 7.36987L9.04297 5.68237C8.65251 5.29191 8.65265 4.65885 9.04297 4.2683Z" fill="#FAFAFA"/>
<path d="M19.168 4.2683C19.5585 3.87778 20.1915 3.87778 20.582 4.2683C20.9723 4.65885 20.9725 5.29194 20.582 5.68237L18.8945 7.36987C18.5041 7.7601 17.8709 7.76005 17.4805 7.36987C17.09 6.97941 17.0901 6.34635 17.4805 5.9558L19.168 4.2683Z" fill="#FAFAFA"/>
<path d="M13.8125 5.26302V2.875C13.8125 2.32272 14.2602 1.875 14.8125 1.875C15.3648 1.875 15.8125 2.32272 15.8125 2.875V5.26302C15.8122 5.81507 15.3646 6.26302 14.8125 6.26302C14.2604 6.26302 13.8128 5.81507 13.8125 5.26302Z" fill="#FAFAFA"/>
</svg>
