<svg width="32" height="32" viewBox="0 0 32 32" fill="none" xmlns="http://www.w3.org/2000/svg">
<path fill-rule="evenodd" clip-rule="evenodd" d="M16.0003 4.6665C9.7411 4.6665 4.66699 9.74061 4.66699 15.9998C4.66699 22.2591 9.7411 27.3332 16.0003 27.3332C22.2596 27.3332 27.3337 22.2591 27.3337 15.9998C27.3337 9.74061 22.2596 4.6665 16.0003 4.6665ZM2.66699 15.9998C2.66699 8.63604 8.63653 2.6665 16.0003 2.6665C23.3641 2.6665 29.3337 8.63604 29.3337 15.9998C29.3337 23.3636 23.3641 29.3332 16.0003 29.3332C8.63653 29.3332 2.66699 23.3636 2.66699 15.9998Z" fill="#FAFAFA"/>
<path fill-rule="evenodd" clip-rule="evenodd" d="M9.95989 21.3072C10.3504 21.6977 10.9836 21.6977 11.3741 21.3072L15.7646 16.9167C15.8948 16.7865 16.1059 16.7865 16.236 16.9167L20.6266 21.3072C21.0171 21.6977 21.6502 21.6977 22.0408 21.3072C22.4313 20.9167 22.4313 20.2835 22.0408 19.893L17.6502 15.5025C16.739 14.5912 15.2616 14.5912 14.3504 15.5025L9.95989 19.893C9.56936 20.2835 9.56936 20.9167 9.95989 21.3072ZM9.95989 15.9739C10.3504 16.3644 10.9836 16.3644 11.3741 15.9739L15.7646 11.5833C15.8948 11.4532 16.1059 11.4532 16.236 11.5833L20.6266 15.9739C21.0171 16.3644 21.6502 16.3644 22.0408 15.9739C22.4313 15.5833 22.4313 14.9502 22.0408 14.5597L17.6502 10.1691C16.739 9.25791 15.2616 9.25791 14.3504 10.1691L9.95989 14.5597C9.56936 14.9502 9.56936 15.5833 9.95989 15.9739Z" fill="#FAFAFA"/>
</svg>
