<svg width="32" height="32" viewBox="0 0 32 32" fill="none" xmlns="http://www.w3.org/2000/svg">
<path d="M3 8.6862C3.00005 7.79063 3.36302 6.93577 4.0026 6.3086C4.64159 5.68204 5.50438 5.33334 6.39974 5.33334H11.0781C11.6399 5.3294 12.1948 5.46276 12.6927 5.72266C13.19 5.98237 13.6156 6.36128 13.9297 6.82552L14.9023 8.23698L14.9089 8.2461L15.0104 8.38021C15.1215 8.50801 15.2575 8.61527 15.4115 8.69662C15.6165 8.80498 15.8469 8.86325 16.082 8.86328H23.1966C24.092 8.86328 24.9548 9.21198 25.5937 9.83855C26.2332 10.4657 26.5964 11.3207 26.5964 12.2161V13.7161C26.7638 13.7667 26.9274 13.8303 27.0859 13.9063C27.5511 14.1292 27.96 14.454 28.2799 14.8581C28.5999 15.2624 28.8221 15.7353 28.9284 16.2396C29.0346 16.744 29.0219 17.2658 28.8906 17.7643L27.043 24.8216C26.8515 25.549 26.4185 26.19 25.8177 26.6432C25.2191 27.0948 24.4871 27.3355 23.737 27.332L6.39974 27.3333C5.50438 27.3333 4.64159 26.9846 4.0026 26.3581C3.36303 25.7309 3.00003 24.8761 3 23.9805V8.6862ZM9.68359 19.7409C9.42592 20.2294 8.82052 20.4165 8.33203 20.1589C7.84417 19.9012 7.65706 19.2968 7.91406 18.8086L9.68359 19.7409ZM5 23.9805C5.00003 24.3326 5.14234 24.6745 5.40234 24.9297C5.66337 25.1856 6.02228 25.3333 6.39974 25.3333H23.7435L23.9779 25.3151C24.2093 25.2786 24.4279 25.1867 24.6133 25.0469C24.8598 24.861 25.0321 24.6026 25.1081 24.3151L26.957 17.2565L26.987 17.1055C27.0083 16.955 27.0028 16.8019 26.9714 16.6523C26.9294 16.4529 26.8415 16.2637 26.7122 16.1003C26.5827 15.9366 26.4147 15.8023 26.2214 15.7096C26.028 15.6171 25.8145 15.5686 25.5977 15.569H12.7096L12.5182 15.5859C12.3291 15.6156 12.1484 15.6825 11.987 15.7826C11.7721 15.9158 11.6001 16.1014 11.4883 16.319L11.4831 16.3294L9.68359 19.7409L7.91406 18.8086L9.71484 15.3958C9.99438 14.8561 10.4164 14.4026 10.9336 14.082C11.4537 13.7597 12.052 13.5829 12.6641 13.569H24.5964V12.2161C24.5964 11.8637 24.4531 11.5209 24.1927 11.2656C23.9317 11.01 23.5738 10.8633 23.1966 10.8633H16.082C15.5227 10.8632 14.9709 10.7261 14.4766 10.4648C13.9853 10.2052 13.5648 9.82973 13.2539 9.3698L12.2826 7.95964L12.276 7.94922C12.1493 7.76068 11.9745 7.60448 11.7669 7.4961C11.6112 7.4148 11.4412 7.3624 11.2656 7.34245L11.0885 7.33334H6.39974C6.02228 7.33334 5.66337 7.48103 5.40234 7.73698C5.14233 7.99219 5.00005 8.33407 5 8.6862V23.9805Z" fill="#FAFAFA"/>
</svg>
