<svg width="32" height="32" viewBox="0 0 32 32" fill="none" xmlns="http://www.w3.org/2000/svg">
<path fill-rule="evenodd" clip-rule="evenodd" d="M4.12799 7.72832C3.90219 5.60737 5.66304 4 7.62948 4H10.0049C11.6315 4 13.0636 5.07159 13.5226 6.63206L14.1822 8.87486C14.5604 10.1605 14.191 11.5497 13.2243 12.4778C12.7015 12.9796 12.6209 13.6953 12.941 14.1903C14.2002 16.1375 15.8627 17.8 17.8099 19.0592C18.3049 19.3793 19.0206 19.2987 19.5224 18.776C20.4505 17.8092 21.8397 17.4398 23.1254 17.818L25.3682 18.4776C26.9286 18.9366 28.0002 20.3687 28.0002 21.9953V24.3333C28.0002 26.3239 26.3597 28.0845 24.2287 27.8485C21.1054 27.5026 18.0754 26.5582 15.3077 24.9525C11.8865 22.9675 9.0327 20.1137 7.04776 16.6925C5.45283 13.9434 4.46297 10.875 4.12799 7.72832ZM7.62948 6C6.68177 6 6.03405 6.73976 6.11675 7.5166C6.42251 10.3887 7.32603 13.1867 8.77769 15.6888C10.5879 18.8089 13.1913 21.4123 16.3114 23.2225C18.8223 24.6793 21.5823 25.5432 24.4489 25.8606C25.2455 25.9488 26.0002 25.2883 26.0002 24.3333V21.9953C26.0002 21.256 25.5131 20.605 24.8038 20.3964L22.561 19.7367C21.9916 19.5692 21.3762 19.7328 20.9652 20.161C19.8955 21.2752 18.1342 21.6507 16.7238 20.7386C14.5391 19.3258 12.6744 17.4611 11.2616 15.2764C10.3495 13.866 10.725 12.1047 11.8392 11.035C12.2674 10.624 12.431 10.0086 12.2635 9.43919L11.6039 7.19639C11.3952 6.48709 10.7443 6 10.0049 6H7.62948ZM20.0002 5C20.0002 4.44772 20.4479 4 21.0002 4H27.0002C27.5525 4 28.0002 4.44772 28.0002 5V11C28.0002 11.5523 27.5525 12 27.0002 12C26.4479 12 26.0002 11.5523 26.0002 11V7.41421L20.374 13.0404C19.9835 13.431 19.3503 13.431 18.9598 13.0404C18.5693 12.6499 18.5693 12.0168 18.9598 11.6262L24.586 6H21.0002C20.4479 6 20.0002 5.55228 20.0002 5Z" fill="#FAFAFA"/>
</svg>
