<svg width="32" height="32" viewBox="0 0 32 32" fill="none" xmlns="http://www.w3.org/2000/svg">
<path fill-rule="evenodd" clip-rule="evenodd" d="M17.7311 8.34513C17.8533 8.35511 18.0086 8.37571 18.1751 8.43498L18.3444 8.50789L18.5605 8.64071C18.6963 8.73952 18.8159 8.85903 18.9147 8.99487L19.0462 9.20972L19.1191 9.38029C19.1783 9.5465 19.2003 9.70095 19.2103 9.823C19.2226 9.97422 19.222 10.1503 19.222 10.3035V12.7774H21.696C21.8492 12.7774 22.0252 12.7768 22.1764 12.7891C22.2985 12.7991 22.4529 12.8211 22.6191 12.8803L22.7897 12.9532L23.0046 13.0847C23.1404 13.1835 23.2599 13.3031 23.3587 13.4389L23.4915 13.655L23.5645 13.8243C23.6237 13.9908 23.6443 14.1461 23.6543 14.2683C23.6666 14.4195 23.666 14.5944 23.666 14.7475V17.2527C23.666 17.4058 23.6666 17.5807 23.6543 17.7319C23.641 17.8947 23.6082 18.116 23.4915 18.3451C23.3377 18.6471 23.0916 18.893 22.7897 19.047C22.5607 19.1636 22.3393 19.1977 22.1764 19.211C22.0252 19.2234 21.8492 19.2227 21.696 19.2227H19.222V21.6967C19.222 21.8499 19.2226 22.0259 19.2103 22.1772C19.1969 22.34 19.1629 22.5614 19.0462 22.7904C18.8922 23.0924 18.6464 23.3384 18.3444 23.4923C18.1153 23.6089 17.8939 23.6417 17.7311 23.655C17.58 23.6674 17.4051 23.6667 17.252 23.6667H14.7467C14.5936 23.6667 14.4187 23.6674 14.2676 23.655C14.1048 23.6417 13.8834 23.6089 13.6543 23.4923C13.3523 23.3384 13.1065 23.0924 12.9525 22.7904C12.8358 22.5614 12.8018 22.34 12.7884 22.1772C12.7761 22.0259 12.7767 21.8499 12.7767 21.6967V19.2227H10.3027C10.1495 19.2227 9.97349 19.2234 9.82227 19.211C9.65942 19.1977 9.43799 19.1636 9.20898 19.047C8.90706 18.893 8.66103 18.6471 8.50716 18.3451C8.39051 18.116 8.3577 17.8947 8.3444 17.7319C8.33207 17.5807 8.33268 17.4058 8.33268 17.2527V14.7475C8.33268 14.5944 8.33207 14.4195 8.3444 14.2683C8.3577 14.1055 8.39051 13.8842 8.50716 13.655L8.63997 13.4389C8.78804 13.2354 8.98271 13.0686 9.20898 12.9532L9.37956 12.8803C9.54577 12.8211 9.70022 12.7991 9.82227 12.7891C9.97349 12.7768 10.1495 12.7774 10.3027 12.7774H12.7767V10.3035C12.7767 10.1503 12.7761 9.97423 12.7884 9.823C12.8018 9.66015 12.8358 9.43873 12.9525 9.20972L13.084 8.99487C13.2322 8.79098 13.4276 8.62341 13.6543 8.50789L13.8236 8.43498C13.9901 8.37571 14.1454 8.35511 14.2676 8.34513C14.4187 8.3328 14.5936 8.33341 14.7467 8.33341H17.252C17.4051 8.33341 17.58 8.3328 17.7311 8.34513ZM14.7767 12.8087C14.7767 12.9618 14.7773 13.1368 14.765 13.2878C14.7517 13.4507 14.719 13.6719 14.6022 13.9011C14.4482 14.2032 14.2025 14.449 13.9004 14.6029C13.6712 14.7197 13.45 14.7524 13.2871 14.7657C13.1361 14.778 12.961 14.7774 12.8079 14.7774H10.3327V17.2227H12.8079C12.961 17.2227 13.1361 17.2221 13.2871 17.2345C13.4094 17.2445 13.5645 17.2649 13.7311 17.3243L13.9004 17.3972L14.1152 17.53C14.2511 17.6289 14.3706 17.7483 14.4694 17.8842L14.6022 18.099L14.6751 18.2683C14.7345 18.4349 14.755 18.5901 14.765 18.7123C14.7773 18.8634 14.7767 19.0384 14.7767 19.1915V21.6667H17.222V19.1915C17.222 19.0384 17.2214 18.8634 17.2337 18.7123C17.247 18.5494 17.2797 18.3282 17.3965 18.099C17.5504 17.7969 17.7962 17.5512 18.0983 17.3972C18.3275 17.2804 18.5487 17.2478 18.7116 17.2345C18.8626 17.2221 19.0377 17.2227 19.1908 17.2227H21.666V14.7774H19.1908C19.0377 14.7774 18.8626 14.778 18.7116 14.7657C18.5487 14.7524 18.3275 14.7197 18.0983 14.6029C17.7962 14.449 17.5504 14.2032 17.3965 13.9011C17.2797 13.6719 17.247 13.4507 17.2337 13.2878C17.2214 13.1368 17.222 12.9618 17.222 12.8087V10.3334H14.7767V12.8087Z" fill="#FAFAFA"/>
<path fill-rule="evenodd" clip-rule="evenodd" d="M15.9993 2.66675C23.3631 2.66675 29.3327 8.63628 29.3327 16.0001C29.3327 23.3639 23.3631 29.3334 15.9993 29.3334C8.63555 29.3334 2.66602 23.3639 2.66602 16.0001C2.66602 8.63628 8.63555 2.66675 15.9993 2.66675ZM15.9993 4.66675C9.74012 4.66675 4.66602 9.74085 4.66602 16.0001C4.66602 22.2593 9.74012 27.3334 15.9993 27.3334C22.2586 27.3334 27.3327 22.2593 27.3327 16.0001C27.3327 9.74085 22.2586 4.66675 15.9993 4.66675Z" fill="#FAFAFA"/>
</svg>
