<svg width="32" height="32" viewBox="0 0 32 32" fill="none" xmlns="http://www.w3.org/2000/svg">
<path d="M16.1025 13.6719C16.6065 13.7234 17 14.1494 17 14.667C16.9998 15.1843 16.6063 15.6097 16.1025 15.6611L16 15.667H12C11.4479 15.667 11.0003 15.2191 11 14.667C11 14.1147 11.4477 13.667 12 13.667H16L16.1025 13.6719Z" fill="#FAFAFA"/>
<path d="M20.1025 9.67188C20.6065 9.72337 21 10.1494 21 10.667C20.9998 11.1843 20.6063 11.6097 20.1025 11.6611L20 11.667H12C11.4479 11.667 11.0003 11.2191 11 10.667C11 10.1147 11.4477 9.66699 12 9.66699H20L20.1025 9.67188Z" fill="#FAFAFA"/>
<path fill-rule="evenodd" clip-rule="evenodd" d="M19.75 3.5C23.2855 3.5 25.053 3.50028 26.1514 4.59863C27.2497 5.69698 27.25 7.46448 27.25 11V21C27.25 24.5355 27.2497 26.303 26.1514 27.4014L25.9375 27.5947C24.8253 28.4997 23.0644 28.5 19.75 28.5H12.25C8.93553 28.5 7.17468 28.4997 6.0625 27.5947L5.84863 27.4014C4.89798 26.4507 4.77024 24.9987 4.75293 22.333H3.5C2.94772 22.333 2.5 21.8853 2.5 21.333C2.50018 20.7809 2.94782 20.333 3.5 20.333H4.75V17H3.5C2.94772 17 2.5 16.5523 2.5 16C2.5 15.4477 2.94772 15 3.5 15H4.75V11.667H3.5C2.94782 11.667 2.50018 11.2191 2.5 10.667C2.5 10.1147 2.94772 9.66699 3.5 9.66699H4.75391C4.76986 7.19374 4.88013 5.76515 5.65527 4.8125L5.84863 4.59863C6.94698 3.50028 8.71446 3.5 12.25 3.5H19.75ZM12.25 5.5C10.4261 5.5 9.25922 5.50498 8.40234 5.62012C7.60298 5.72759 7.37833 5.89706 7.2627 6.0127C7.14706 6.12833 6.97759 6.35298 6.87012 7.15234C6.78587 7.7793 6.76131 8.5722 6.75391 9.66699H7.5L7.60254 9.67188C8.1065 9.72337 8.5 10.1494 8.5 10.667C8.49984 11.1844 8.10639 11.6096 7.60254 11.6611L7.5 11.667H6.75V15H7.5L7.60254 15.0049C8.1065 15.0564 8.5 15.4824 8.5 16C8.5 16.5176 8.1065 16.9436 7.60254 16.9951L7.5 17H6.75V20.333H7.5L7.60254 20.3389C8.10639 20.3904 8.49984 20.8156 8.5 21.333C8.5 21.8506 8.1065 22.2766 7.60254 22.3281L7.5 22.333H6.75391C6.76131 23.4278 6.78587 24.2207 6.87012 24.8477C6.97759 25.647 7.14704 25.8716 7.2627 25.9873C7.37833 26.1029 7.60299 26.2724 8.40234 26.3799C9.25922 26.495 10.4261 26.5 12.25 26.5H19.75C21.5739 26.5 22.7408 26.495 23.5977 26.3799C24.397 26.2724 24.6216 26.103 24.7373 25.9873C24.853 25.8716 25.0224 25.647 25.1299 24.8477C25.245 23.9908 25.25 22.8239 25.25 21V11C25.25 9.17609 25.245 8.00922 25.1299 7.15234C25.0224 6.35299 24.8529 6.12833 24.7373 6.0127C24.6216 5.89704 24.397 5.72759 23.5977 5.62012C22.7408 5.50497 21.5739 5.5 19.75 5.5H12.25Z" fill="#FAFAFA"/>
</svg>
