<svg width="32" height="32" viewBox="0 0 32 32" fill="none" xmlns="http://www.w3.org/2000/svg">
<path d="M14.5435 3.08301C15.2109 2.91743 15.9166 3.0238 16.5057 3.37859C17.0938 3.73277 17.5177 4.30514 17.6841 4.97104C18.289 7.37004 19.0088 8.99898 19.7869 10.1742C20.4614 11.1926 21.2001 11.9012 22.0018 12.4841L22.3494 12.7275L22.3716 12.7419C25.671 15.0891 27.9861 18.573 28.8742 22.5231C28.9697 22.8307 29.0112 23.1531 28.9888 23.4749C28.964 23.8285 28.8664 24.1732 28.7036 24.488C28.5406 24.8029 28.3141 25.0812 28.0395 25.3057C27.7651 25.53 27.4481 25.6968 27.1073 25.794C26.7662 25.8911 26.4081 25.9169 26.0565 25.8708C25.7049 25.8246 25.3661 25.7075 25.0617 25.5257C24.7572 25.3439 24.493 25.1012 24.2856 24.8135C24.0831 24.5324 23.9401 24.2134 23.8625 23.876L23.8612 23.8773C23.562 22.6663 23.097 21.5052 22.4862 20.4229L21.0981 22.5062C20.4213 23.5207 19.5047 24.3536 18.4289 24.9281C17.3533 25.5024 16.152 25.8008 14.9328 25.7992L11.4757 25.8005L9.03824 28.238C9.02997 28.2462 9.02077 28.2547 9.0122 28.2627C8.51953 28.7216 7.86768 28.971 7.19449 28.9593C6.52108 28.9474 5.87786 28.6751 5.40153 28.1989C4.9252 27.7226 4.65173 27.0795 4.63981 26.4059C4.62794 25.7324 4.87848 25.0798 5.33772 24.5869C5.34563 24.5785 5.35427 24.5704 5.36246 24.5622L8.56168 21.3617C9.04871 20.8743 9.70989 20.6006 10.3989 20.5999H11.9653L11.3481 19.208L6.39502 20.8591C6.07157 20.9707 5.72865 21.0178 5.3872 20.9958C5.04582 20.9736 4.71175 20.8838 4.40543 20.7315C4.099 20.579 3.82574 20.3668 3.60205 20.1078C3.37839 19.8487 3.2082 19.5477 3.10205 19.2223L3.10335 19.221C2.9967 18.8991 2.95324 18.5594 2.97705 18.221C3.00109 17.8799 3.09235 17.5464 3.24528 17.2406C3.39822 16.9349 3.61058 16.6623 3.86897 16.4385C4.12743 16.2147 4.42732 16.0435 4.75179 15.9359L6.08121 15.4893C6.60456 15.3135 7.17211 15.595 7.34814 16.1182C7.52403 16.6416 7.24135 17.2091 6.71793 17.3851L5.3846 17.833L5.38199 17.8343C5.30713 17.8592 5.23721 17.8986 5.17757 17.9502C5.1181 18.0017 5.0696 18.0648 5.03434 18.1351C4.99905 18.2057 4.97739 18.283 4.97184 18.3617C4.96909 18.4008 4.97085 18.4401 4.97574 18.4788L5.00179 18.5947L5.00439 18.6012C5.02822 18.6743 5.06616 18.7423 5.11637 18.8005C5.16642 18.8584 5.22756 18.9056 5.29606 18.9398C5.36482 18.974 5.44079 18.9947 5.51741 18.9997C5.59368 19.0045 5.67042 18.9946 5.74267 18.9697L5.75309 18.9658L11.5773 17.0244L11.7622 16.9815C12.1941 16.9241 12.6249 17.1557 12.8078 17.5674L14.4185 21.1937C14.5557 21.5027 14.5269 21.8606 14.3429 22.1442C14.1586 22.4278 13.8426 22.5998 13.5044 22.5999H10.4015L10.283 22.6117C10.168 22.6348 10.0612 22.6915 9.97705 22.7757L6.80127 25.9515L6.73095 26.0427C6.67014 26.1402 6.63776 26.2542 6.63981 26.3708C6.64262 26.5259 6.70594 26.6737 6.81559 26.7835C6.92552 26.8934 7.07423 26.9566 7.22965 26.9593C7.38485 26.9619 7.53531 26.9049 7.64892 26.7992L10.3547 24.0921L10.507 23.9684C10.67 23.8598 10.8628 23.8005 11.0617 23.8005H14.9354C15.825 23.8017 16.7014 23.5827 17.4862 23.1637C18.2711 22.7446 18.9402 22.137 19.4341 21.3968L21.675 18.0374L21.7479 17.9398C21.9327 17.7247 22.2027 17.597 22.4901 17.5921C22.8183 17.5867 23.1283 17.7432 23.3195 18.0101C24.4812 19.632 25.3241 21.46 25.8026 23.3968C25.8046 23.4051 25.8072 23.4145 25.8091 23.4229C25.8267 23.5026 25.8603 23.578 25.908 23.6442C25.9558 23.7104 26.0164 23.7664 26.0864 23.8083C26.1567 23.8502 26.2358 23.8771 26.3169 23.8877C26.3979 23.8983 26.4805 23.8932 26.5591 23.8708C26.6377 23.8484 26.7106 23.8092 26.7739 23.7575C26.8372 23.7057 26.89 23.6413 26.9276 23.5687C26.965 23.4963 26.9869 23.4169 26.9927 23.3356C26.9984 23.2541 26.9872 23.1719 26.9601 23.0947C26.947 23.0575 26.9362 23.0187 26.9276 22.9802C26.1508 19.5036 24.1154 16.4371 21.2127 14.3721C20.1101 13.6282 19.0563 12.6937 18.119 11.2783C17.1827 9.86431 16.3882 8.01034 15.7453 5.46062L15.744 5.45671C15.706 5.304 15.6092 5.17203 15.4744 5.09083C15.3397 5.00974 15.1778 4.98538 15.0252 5.02312C14.8725 5.06104 14.7406 5.15915 14.6593 5.29395C14.5986 5.39504 14.5693 5.51116 14.5747 5.62729L14.5916 5.74317L14.6007 5.78093C15.1874 8.61281 16.4591 11.2579 18.3052 13.4841C18.5802 13.8157 18.6126 14.2865 18.3846 14.652L16.1333 18.2575C15.9377 18.5706 15.585 18.7501 15.2166 18.7249C14.8484 18.6996 14.5239 18.4733 14.3729 18.1364L13.3065 15.7588C13.2457 15.6233 13.1364 15.5153 13.0005 15.4554C12.8647 15.3956 12.7117 15.3881 12.5708 15.4346C12.0465 15.6081 11.48 15.3235 11.3065 14.7992C11.1331 14.275 11.4177 13.7097 11.9419 13.5361C12.5529 13.3339 13.2174 13.3654 13.8065 13.6247C14.3955 13.884 14.8672 14.3526 15.1307 14.9398L15.4302 15.6065L16.313 14.1924C14.5027 11.8378 13.2463 9.10163 12.6424 6.18718C12.4902 5.53107 12.5978 4.83929 12.9458 4.2614C13.3007 3.67226 13.8759 3.24874 14.5435 3.08301Z" fill="#FAFAFA"/>
<path fill-rule="evenodd" clip-rule="evenodd" d="M6.02783 3.0713C6.40619 2.91964 6.83922 3.01297 7.12158 3.30697L12.6047 9.02442L12.602 9.02572C12.7396 9.16455 12.8481 9.32848 12.9172 9.5101L12.977 9.71452L13.0057 9.92546C13.0179 10.1373 12.9821 10.3506 12.8989 10.5479C12.788 10.8108 12.5986 11.0337 12.3573 11.1859C12.1292 11.3295 11.8643 11.4003 11.5955 11.3968V11.3994H10.6007V15.2002C10.6005 15.6082 10.3516 15.975 9.97314 16.1273C9.59432 16.2796 9.16067 16.1863 8.87809 15.8916L3.39632 10.1742L3.39892 10.1716C3.21376 9.98428 3.08187 9.75112 3.02522 9.49317C2.96485 9.21784 2.98944 8.9301 3.09554 8.66895C3.20173 8.40799 3.38505 8.18471 3.62028 8.02963C3.85025 7.87823 4.11996 7.79895 4.39502 7.80046L5.40022 7.79916V3.99968C5.40033 3.59151 5.64909 3.22355 6.02783 3.0713ZM7.40022 8.79916C7.40022 9.35138 6.95242 9.79906 6.40022 9.79916H5.80647L8.60074 12.7119V10.3994C8.60102 9.84737 9.04863 9.39942 9.60074 9.39942H10.1932L7.40022 6.48666V8.79916Z" fill="#FAFAFA"/>
<path fill-rule="evenodd" clip-rule="evenodd" d="M24.8 5.79525C25.2997 5.79525 25.7953 5.8931 26.257 6.08432C26.7186 6.27555 27.1381 6.55654 27.4914 6.90984C27.8446 7.26313 28.1257 7.68267 28.3169 8.14421C28.5079 8.60551 28.6059 9.10068 28.606 9.59994C28.6059 10.0994 28.508 10.5955 28.3169 11.057C28.1257 11.5184 27.8446 11.9381 27.4914 12.2913C27.1381 12.6446 26.7185 12.9257 26.257 13.1169C25.7954 13.308 25.2996 13.4059 24.8 13.4059C24.3006 13.4058 23.8056 13.3079 23.3442 13.1169C22.8827 12.9257 22.4631 12.6445 22.1099 12.2913C21.7566 11.9381 21.4756 11.5184 21.2843 11.057C21.0932 10.5955 20.9954 10.0994 20.9953 9.59994C20.9954 9.10068 21.0934 8.60552 21.2843 8.14421C21.4755 7.68267 21.7567 7.26313 22.1099 6.90984C22.4632 6.55654 22.8826 6.27555 23.3442 6.08432C23.8057 5.89319 24.3005 5.79534 24.8 5.79525ZM24.8 7.79525C24.5631 7.79534 24.3287 7.84263 24.1099 7.93327C23.891 8.024 23.6915 8.15635 23.5239 8.3239C23.3565 8.49145 23.224 8.69099 23.1333 8.90984C23.0428 9.12851 22.9954 9.36328 22.9953 9.59994C22.9954 9.8368 23.0427 10.0725 23.1333 10.2913C23.224 10.5101 23.3565 10.7098 23.5239 10.8773C23.6915 11.0447 23.891 11.1772 24.1099 11.2679C24.3286 11.3585 24.5632 11.4058 24.8 11.4059C25.037 11.4059 25.2724 11.3586 25.4914 11.2679C25.7102 11.1772 25.9098 11.0447 26.0773 10.8773C26.2448 10.7098 26.3772 10.5101 26.4679 10.2913C26.5586 10.0725 26.6059 9.8368 26.606 9.59994C26.6059 9.36328 26.5584 9.12851 26.4679 8.90984C26.3773 8.69099 26.2448 8.49145 26.0773 8.3239C25.9098 8.15635 25.7103 8.024 25.4914 7.93327C25.2723 7.84255 25.037 7.79525 24.8 7.79525Z" fill="#FAFAFA"/>
</svg>
