<svg width="32" height="32" viewBox="0 0 32 32" fill="none" xmlns="http://www.w3.org/2000/svg">
<path fill-rule="evenodd" clip-rule="evenodd" d="M15.9979 3.33325C11.2108 3.33325 7.33008 7.21398 7.33008 12.0011C7.33008 14.8007 8.65628 17.2902 10.7188 18.8765C11.0922 19.1637 11.4894 19.421 11.907 19.645H20.0888C20.5064 19.421 20.9037 19.1637 21.277 18.8765C23.3396 17.2902 24.6658 14.8007 24.6658 12.0011C24.6658 7.21398 20.785 3.33325 15.9979 3.33325ZM19.3328 21.645H12.663V22.9999C12.663 23.184 12.8123 23.3333 12.9963 23.3333H18.9995C19.1836 23.3333 19.3328 23.184 19.3328 22.9999V21.645ZM10.663 21.241C10.2575 21.0064 9.86889 20.7459 9.49955 20.4619C6.96595 18.5133 5.33008 15.448 5.33008 12.0011C5.33008 6.10941 10.1062 1.33325 15.9979 1.33325C21.8896 1.33325 26.6658 6.10941 26.6658 12.0011C26.6658 15.448 25.0299 18.5133 22.4963 20.4619C22.127 20.7459 21.7384 21.0064 21.3328 21.241V22.9999C21.3328 24.2886 20.2882 25.3333 18.9995 25.3333H12.9963C11.7077 25.3333 10.663 24.2886 10.663 22.9999V21.241ZM11.9991 28.3333C11.9991 27.781 12.4468 27.3333 12.9991 27.3333H18.9991C19.5514 27.3333 19.9991 27.781 19.9991 28.3333C19.9991 28.8855 19.5514 29.3333 18.9991 29.3333H12.9991C12.4468 29.3333 11.9991 28.8855 11.9991 28.3333Z" fill="#FAFAFA"/>
</svg>
