<svg width="32" height="32" viewBox="0 0 32 32" fill="none" xmlns="http://www.w3.org/2000/svg">
<path fill-rule="evenodd" clip-rule="evenodd" d="M15.3345 3.30578C15.7118 2.97064 16.2797 2.96875 16.6587 3.30187L15.9986 4.05317L16.66 3.30317L16.6639 3.30708C16.666 3.30887 16.6688 3.31093 16.6718 3.31359C16.6783 3.31948 16.6869 3.32845 16.6978 3.33833C16.7196 3.35813 16.7505 3.38525 16.7876 3.42036C16.8626 3.49109 16.9674 3.59259 17.091 3.71984C17.3372 3.9733 17.6661 4.33702 17.9973 4.77713C18.6191 5.60348 19.3674 6.85796 19.3957 8.23937L19.4061 8.59875C19.3919 9.4337 19.0937 10.2434 18.5546 10.8904C18.1381 11.39 17.5989 11.7617 16.9986 11.9829V21.5987C18.6981 21.3791 20.2893 20.6073 21.5142 19.3826C22.7947 18.1021 23.5847 16.4217 23.7616 14.6352C23.1765 14.4124 22.6511 14.0462 22.2434 13.5571C21.6443 12.8382 21.3447 11.9188 21.3996 10.9868L21.4074 10.725C21.4941 9.42406 22.207 8.24271 22.7994 7.45291C23.1299 7.01225 23.4587 6.64779 23.7043 6.39302C23.8277 6.26505 23.9317 6.16209 24.0064 6.09093C24.0437 6.05545 24.0745 6.02755 24.0962 6.0076C24.1069 5.99777 24.1158 5.99001 24.1223 5.98416L24.1327 5.97375C24.1357 5.97678 24.1691 6.01074 24.509 6.39302L24.1353 5.97244C24.5126 5.63731 25.0805 5.63542 25.4595 5.96854L24.7994 6.71984L25.4608 5.96984L25.4647 5.97375C25.4668 5.97554 25.4696 5.9776 25.4725 5.98026C25.4791 5.98615 25.4877 5.99511 25.4986 6.005C25.5203 6.02479 25.5512 6.05192 25.5884 6.08703C25.6633 6.15775 25.7682 6.25925 25.8918 6.38651C26.138 6.63996 26.4669 7.00369 26.7981 7.4438C27.4199 8.27015 28.1682 9.52463 28.1965 10.906L28.2069 11.2654C28.1927 12.1004 27.8945 12.9101 27.3554 13.5571C26.9309 14.0664 26.3786 14.442 25.7642 14.6612C25.5764 16.9694 24.5779 19.1471 22.9283 20.7967C21.3277 22.397 19.2301 23.3843 16.9986 23.6131V26.9998H19.9986C20.5509 26.9998 20.9986 27.4475 20.9986 27.9998C20.9986 28.5521 20.5509 28.9998 19.9986 28.9998H11.9986C11.4463 28.9998 10.9986 28.5521 10.9986 27.9998C10.9986 27.4475 11.4463 26.9998 11.9986 26.9998H14.9986V23.6131C12.7671 23.3842 10.6693 22.397 9.0689 20.7967C7.41975 19.1474 6.42088 16.9702 6.23296 14.6625C5.61884 14.4432 5.06747 14.0661 4.64312 13.5571C4.04408 12.8382 3.74449 11.9188 3.79937 10.9868L3.80718 10.725C3.89381 9.42406 4.60676 8.24271 5.19911 7.45291C5.52962 7.01225 5.8584 6.64779 6.10405 6.39302C6.22746 6.26505 6.33143 6.16209 6.40614 6.09093C6.44339 6.05545 6.47426 6.02755 6.49598 6.0076C6.50669 5.99777 6.51555 5.99001 6.52202 5.98416L6.53244 5.97375C6.53543 5.97678 6.56886 6.01074 6.90874 6.39302L6.53504 5.97244C6.91234 5.63731 7.48022 5.63542 7.85926 5.96854L7.19911 6.71984L7.86056 5.96984L7.86447 5.97375C7.8665 5.97554 7.86931 5.9776 7.87228 5.98026C7.87886 5.98615 7.88746 5.99511 7.89832 6.005C7.92009 6.02479 7.95097 6.05192 7.98817 6.08703C8.06308 6.15775 8.16796 6.25925 8.29155 6.38651C8.53771 6.63996 8.8666 7.00369 9.1978 7.4438C9.81963 8.27015 10.5679 9.52463 10.5962 10.906L10.6067 11.2654C10.5924 12.1004 10.2943 12.9101 9.7551 13.5571C9.34717 14.0465 8.82108 14.4124 8.23556 14.6352C8.41247 16.4218 9.20372 18.1021 10.4843 19.3826C11.709 20.6071 13.2995 21.379 14.9986 21.5987V11.9829C14.3982 11.7617 13.8591 11.39 13.4426 10.8904C12.8436 10.1716 12.544 9.25218 12.5988 8.3201L12.6067 8.05838C12.6933 6.7574 13.4062 5.57604 13.9986 4.78625C14.3291 4.34558 14.6579 3.98112 14.9035 3.72635C15.0269 3.59838 15.1309 3.49542 15.2056 3.42427C15.2429 3.38879 15.2737 3.36088 15.2955 3.34093C15.3062 3.3311 15.315 3.32335 15.3215 3.3175L15.3319 3.30708C15.3349 3.31012 15.3683 3.34407 15.7082 3.72635L15.3345 3.30578ZM7.20041 8.15474C7.07182 8.30306 6.9359 8.47139 6.79937 8.65343C6.23116 9.41105 5.79937 10.2568 5.79937 10.9868C5.79936 11.0136 5.79763 11.0407 5.79546 11.0675C5.76009 11.5051 5.8985 11.9398 6.17957 12.2771C6.43897 12.5881 6.80162 12.792 7.19911 12.8566C7.59654 12.792 7.9593 12.5881 8.21864 12.2771C8.49968 11.9399 8.63811 11.5051 8.60275 11.0675C8.60058 11.0407 8.59885 11.0136 8.59885 10.9868C8.59885 10.2454 8.16609 9.3991 7.60015 8.64692C7.46467 8.4669 7.32808 8.30132 7.20041 8.15474ZM24.8007 8.15474C24.6721 8.30306 24.5362 8.47139 24.3996 8.65343C23.8314 9.41105 23.3996 10.2568 23.3996 10.9868C23.3996 11.0136 23.3979 11.0407 23.3957 11.0675C23.3603 11.5051 23.4988 11.9398 23.7798 12.2771C24.0392 12.5881 24.4019 12.792 24.7994 12.8566C25.1968 12.792 25.5596 12.5881 25.8189 12.2771C26.0999 11.9399 26.2384 11.5051 26.203 11.0675C26.2008 11.0407 26.1991 11.0136 26.1991 10.9868C26.1991 10.2454 25.7663 9.3991 25.2004 8.64692C25.0649 8.4669 24.9283 8.30132 24.8007 8.15474ZM15.9999 5.48807C15.8713 5.6364 15.7354 5.80472 15.5988 5.98677C15.0306 6.74438 14.5988 7.59013 14.5988 8.3201C14.5988 8.34695 14.5971 8.37407 14.5949 8.40083C14.5596 8.83844 14.698 9.27318 14.9791 9.61047C15.2385 9.92138 15.6011 10.1254 15.9986 10.1899C16.396 10.1253 16.7588 9.9214 17.0181 9.61047C17.2992 9.27319 17.4376 8.83842 17.4022 8.40083C17.4001 8.37407 17.3983 8.34695 17.3983 8.3201C17.3983 7.57874 16.9656 6.73244 16.3996 5.98026C16.2642 5.80023 16.1276 5.63466 15.9999 5.48807Z" fill="#FAFAFA"/>
</svg>
