<svg width="32" height="32" viewBox="0 0 32 32" fill="none" xmlns="http://www.w3.org/2000/svg">
<path fill-rule="evenodd" clip-rule="evenodd" d="M16 2.66675C19.0978 2.66675 21.9367 2.99384 24.0312 3.54175C25.0711 3.81379 25.9844 4.15545 26.6615 4.5743C27.2838 4.95933 27.9999 5.59755 28 6.54435C28 6.67671 27.9841 6.8028 27.9583 6.92326C27.9411 7.05089 27.9173 7.22588 27.888 7.44149C27.8219 7.92815 27.7261 8.62436 27.6094 9.46362C27.3758 11.1423 27.0567 13.3946 26.7122 15.6863C26.6558 16.0619 26.594 16.4381 26.5365 16.8139C26.5329 16.8441 26.5284 16.8739 26.5221 16.9037C26.3633 17.9391 26.2048 18.9652 26.0456 19.9311C26.0443 19.9372 26.043 19.9432 26.0417 19.9493C25.9122 20.7343 25.787 21.4801 25.6641 22.1589C25.4973 23.0802 25.3365 23.8909 25.1914 24.5157C25.1191 24.827 25.0478 25.1053 24.9779 25.3334C24.9177 25.5298 24.8301 25.7902 24.7005 25.9936C23.6113 27.7095 20.9663 29.3334 16 29.3334C11.0337 29.3334 8.38872 27.7095 7.29948 25.9936L7.20964 25.8321C7.12746 25.664 7.0673 25.4808 7.02214 25.3334C6.95224 25.1053 6.88088 24.827 6.80859 24.5157C6.66351 23.8909 6.50275 23.0802 6.33594 22.1589C6.05988 20.6343 5.76284 18.7735 5.47266 16.8816C5.47023 16.8686 5.46805 16.8556 5.46615 16.8425C5.4071 16.4573 5.34564 16.0714 5.28776 15.6863C4.94328 13.3946 4.62418 11.1423 4.39062 9.46362C4.27386 8.62436 4.17809 7.92815 4.11198 7.44149C4.08268 7.22578 4.05762 7.0509 4.04036 6.92326C4.01462 6.80288 4 6.67661 4 6.54435C4.00009 5.59755 4.71616 4.95933 5.33854 4.5743C6.0156 4.15545 6.92892 3.81379 7.96875 3.54175C10.0633 2.99384 12.9022 2.66675 16 2.66675ZM10.1576 26.0261C10.9792 26.5514 12.2327 27.0324 14.0951 27.2319L14.6172 26.6876L12.0716 24.0235L10.1576 26.0261ZM17.3815 26.6876L17.9023 27.2319C19.7659 27.0325 21.0193 26.5504 21.8411 26.0248L19.9271 24.0222L17.3815 26.6876ZM13.4544 22.5756L16 25.2397L18.5443 22.5756L15.9987 19.9115L13.4544 22.5756ZM8.0026 20.0574C8.10589 20.6739 8.20657 21.2603 8.30469 21.8022C8.46932 22.7114 8.62232 23.4847 8.75651 24.0626C8.79384 24.2234 8.82846 24.3654 8.86068 24.4884L10.6888 22.5769L8.14193 19.9115L8.0026 20.0574ZM21.3099 22.5756L23.138 24.4884C23.1703 24.3653 23.2061 24.2235 23.2435 24.0626C23.3777 23.4847 23.5307 22.7114 23.6953 21.8022C23.7935 21.26 23.8927 20.673 23.9961 20.0561L23.8581 19.9115L21.3099 22.5756ZM9.52604 18.4649L12.0716 21.129L14.6159 18.4649L12.0703 15.8009L9.52604 18.4649ZM17.3815 18.4649L19.9271 21.1277L22.474 18.4649L19.9284 15.8009L17.3815 18.4649ZM6.47786 9.948C6.69722 11.512 6.9722 13.4374 7.26562 15.3894C7.30803 15.6715 7.35282 15.9537 7.39583 16.2358L8.14323 17.017L10.6875 14.3529L6.47786 9.948ZM13.4531 14.3529L16 17.017L18.5456 14.3542L16 11.6902L13.4531 14.3529ZM21.3125 14.3542L23.8568 17.017L24.6016 16.2371C24.6447 15.9545 24.6919 15.6721 24.7344 15.3894C25.0277 13.438 25.3015 11.5131 25.5208 9.9493L21.3125 14.3542ZM12.0703 12.9063L14.4727 10.392C12.4879 10.3217 10.6527 10.1155 9.10677 9.80477L12.0703 12.9063ZM22.8919 9.80477C21.346 10.1154 19.5108 10.3217 17.526 10.392L19.9284 12.9063L22.8919 9.80477ZM16 4.66675C13.0218 4.66675 10.3603 4.98314 8.47396 5.47664C7.52365 5.72529 6.82659 6.00514 6.39062 6.27482C6.19791 6.39404 6.09789 6.48615 6.04557 6.54305C6.09771 6.59981 6.19645 6.69377 6.39062 6.81388C6.82665 7.08352 7.5238 7.36338 8.47396 7.61206C10.3603 8.10569 13.0219 8.42196 16 8.42196C18.9781 8.42196 21.6397 8.10569 23.526 7.61206C24.4762 7.36338 25.1733 7.08352 25.6094 6.81388C25.8022 6.69459 25.8996 6.60006 25.9518 6.54305C25.8994 6.48591 25.8007 6.39319 25.6094 6.27482C25.1734 6.00514 24.4764 5.72529 23.526 5.47664C21.6397 4.98314 18.9782 4.66675 16 4.66675Z" fill="#FAFAFA"/>
</svg>
