<svg width="32" height="32" viewBox="0 0 32 32" fill="none" xmlns="http://www.w3.org/2000/svg">
<path fill-rule="evenodd" clip-rule="evenodd" d="M17.473 5.95415L28.3336 16.0003L17.473 26.0464V21.3336C17.473 20.4022 16.7072 19.6619 15.7909 19.6698C10.4165 19.716 7.25924 20.3138 5.18354 21.5385C4.40391 21.9985 3.79523 22.538 3.28982 23.131C3.58663 19.739 4.34023 17.352 5.69889 15.7056C7.48291 13.5438 10.5208 12.423 15.8167 12.3387C16.7097 12.3245 17.473 11.6021 17.473 10.6669L17.473 5.95415ZM15.473 10.3451V5.95415C15.473 4.20965 17.5504 3.30136 18.8311 4.48595L29.6917 14.5321C30.5476 15.3238 30.5476 16.6768 29.6917 17.4685L18.8311 27.5146C17.5504 28.6992 15.473 27.7909 15.473 26.0464V21.6734C10.3682 21.7414 7.75538 22.3432 6.19989 23.261C4.67816 24.1589 4.05019 25.415 3.06531 27.385L3.03407 27.4475C2.82667 27.8623 2.36127 28.0801 1.9099 27.9735C1.45852 27.867 1.13965 27.464 1.13965 27.0003C1.13965 21.4253 1.84699 17.2311 4.15631 14.4326C6.46295 11.6375 10.1563 10.471 15.473 10.3451Z" fill="#FAFAFA"/>
</svg>
