<svg width="32" height="32" viewBox="0 0 32 32" fill="none" xmlns="http://www.w3.org/2000/svg">
<path d="M13.0013 20.4233C13.0013 20.9756 12.5537 21.4246 12.0013 21.4246C11.4509 21.4221 11.0013 20.9741 11.0013 20.4233C11.0019 19.8716 11.4493 19.4248 12.0013 19.4246C12.5534 19.4247 13.0008 19.8715 13.0013 20.4233Z" fill="#FAFAFA"/>
<path d="M13.0013 24.3062C13.0011 24.8583 12.5536 25.3061 12.0013 25.3062C11.451 25.3037 11.0015 24.8568 11.0013 24.3062C11.0015 23.7541 11.4491 23.3063 12.0013 23.3062C12.5536 23.3062 13.0011 23.7541 13.0013 24.3062Z" fill="#FAFAFA"/>
<path d="M14.043 12.2163C13.9777 12.857 13.4365 13.3569 12.7786 13.3569C12.0768 13.3569 11.5079 12.7879 11.5078 12.0861C11.5078 11.4282 12.0077 10.887 12.6484 10.8218L12.7786 10.8153L12.9089 10.8218C13.5495 10.887 14.0495 11.4282 14.0495 12.0861L14.043 12.2163Z" fill="#FAFAFA"/>
<path d="M17.2448 12.0848C17.2448 13.2336 16.8512 14.3489 16.1289 15.2424C15.7818 15.6715 15.1521 15.7374 14.7227 15.3908C14.2933 15.0436 14.2259 14.414 14.5729 13.9845C15.0074 13.447 15.2448 12.7759 15.2448 12.0848C15.2447 11.3938 15.0073 10.7238 14.5729 10.1864C14.2257 9.75689 14.2932 9.12735 14.7227 8.78011C15.1521 8.43327 15.7818 8.49922 16.1289 8.92855C16.851 9.82186 17.2447 10.9362 17.2448 12.0848Z" fill="#FAFAFA"/>
<path d="M17.0013 20.4233C17.0013 20.9756 16.5537 21.4246 16.0013 21.4246C15.4509 21.4221 15.0013 20.9741 15.0013 20.4233C15.0019 19.8716 15.4493 19.4248 16.0013 19.4246C16.5534 19.4247 17.0008 19.8715 17.0013 20.4233Z" fill="#FAFAFA"/>
<path d="M17.0013 24.3062C17.0011 24.8583 16.5536 25.3061 16.0013 25.3062C15.451 25.3037 15.0015 24.8568 15.0013 24.3062C15.0015 23.7541 15.4491 23.3063 16.0013 23.3062C16.5536 23.3062 17.0011 23.7541 17.0013 24.3062Z" fill="#FAFAFA"/>
<path d="M20.4948 12.0861C20.4948 13.8923 19.8753 15.6439 18.7396 17.0483C18.3923 17.4777 17.7628 17.544 17.3333 17.1968C16.9039 16.8495 16.8377 16.22 17.1849 15.7905C18.0326 14.7421 18.4948 13.4344 18.4948 12.0861C18.4948 10.7378 18.0326 9.43013 17.1849 8.38167C16.8376 7.95225 16.9039 7.32271 17.3333 6.97542C17.7628 6.62819 18.3923 6.69444 18.7396 7.12386C19.8753 8.52829 20.4948 10.2799 20.4948 12.0861Z" fill="#FAFAFA"/>
<path d="M21.0013 20.4233C21.0013 20.9756 20.5537 21.4246 20.0013 21.4246C19.4509 21.4221 19.0013 20.9741 19.0013 20.4233C19.0019 19.8716 19.4493 19.4248 20.0013 19.4246C20.5534 19.4247 21.0008 19.8715 21.0013 20.4233Z" fill="#FAFAFA"/>
<path d="M21.0013 24.3062C21.0011 24.8583 20.5536 25.3061 20.0013 25.3062C19.451 25.3037 19.0015 24.8568 19.0013 24.3062C19.0015 23.7541 19.4491 23.3063 20.0013 23.3062C20.5536 23.3062 21.0011 23.7541 21.0013 24.3062Z" fill="#FAFAFA"/>
<path fill-rule="evenodd" clip-rule="evenodd" d="M25.3346 26.1382C25.3346 27.9401 23.8075 29.3306 22.0365 29.3309H9.96745C8.19616 29.3309 6.66797 27.9404 6.66797 26.1382V5.86214C6.66802 4.05997 8.19617 2.66943 9.96745 2.66943L22.0365 2.66943C23.8074 2.66977 25.3346 4.0602 25.3346 5.86214V26.1382ZM23.3346 5.86214C23.3346 5.25326 22.7935 4.66976 22.0365 4.66943L9.96745 4.66943C9.21005 4.66943 8.66802 5.25309 8.66797 5.86214V26.1382C8.66797 26.7472 9.21001 27.3309 9.96745 27.3309H22.0365C22.7935 27.3306 23.3346 26.7471 23.3346 26.1382V5.86214Z" fill="#FAFAFA"/>
</svg>
