<svg width="32" height="32" viewBox="0 0 32 32" fill="none" xmlns="http://www.w3.org/2000/svg">
<path fill-rule="evenodd" clip-rule="evenodd" d="M25.5404 2.67196C27.6539 2.77903 29.3346 4.52661 29.3346 6.66675V25.3334L29.3294 25.5391C29.2258 27.5845 27.5858 29.2246 25.5404 29.3282L25.3346 29.3334H6.66797L6.46224 29.3282C4.41685 29.2246 2.7768 27.5845 2.67318 25.5391L2.66797 25.3334V6.66675C2.66797 4.52661 4.34871 2.77903 6.46224 2.67196L6.66797 2.66675H25.3346L25.5404 2.67196ZM6.66797 4.66675C5.5634 4.66675 4.66797 5.56218 4.66797 6.66675V25.3334C4.66797 26.438 5.5634 27.3334 6.66797 27.3334H25.3346C26.4392 27.3334 27.3346 26.438 27.3346 25.3334V6.66675C27.3346 5.56218 26.4392 4.66675 25.3346 4.66675H6.66797Z" fill="#FAFAFA"/>
<path d="M11.0752 15.7448C11.5797 15.7955 11.9733 16.2216 11.9736 16.7396C11.9733 17.2912 11.5266 17.7391 10.9749 17.7396L10.7861 17.7461C10.4099 17.7725 10.0423 17.8772 9.7067 18.0534L9.54263 18.1471C9.16447 18.3803 8.84591 18.7024 8.61555 19.0859L8.5218 19.2539C8.28774 19.7121 8.18175 20.2289 8.21711 20.7448L8.23664 20.9362C8.2978 21.3823 8.46397 21.808 8.72102 22.1758L8.8369 22.3294C9.11702 22.6767 9.47524 22.951 9.88117 23.1289C10.345 23.3321 10.8553 23.4021 11.3551 23.332L11.5413 23.2995C11.9716 23.2082 12.3761 23.0127 12.7197 22.7292L12.8629 22.6029C13.1855 22.297 13.4327 21.9152 13.5817 21.4896C13.7639 20.9682 14.3351 20.6929 14.8564 20.875C15.3774 21.0573 15.6516 21.6273 15.4697 22.1484C15.216 22.8743 14.7939 23.5287 14.2392 24.0547L13.9932 24.2721C13.4013 24.7606 12.7019 25.0983 11.9554 25.2565L11.6325 25.3125C10.7653 25.4341 9.88179 25.3125 9.07909 24.9609C8.3766 24.6532 7.75987 24.1802 7.27961 23.5846L7.083 23.3229C6.6428 22.6935 6.36032 21.9673 6.25617 21.2083L6.22232 20.8815C6.16221 20.0045 6.34095 19.1258 6.74055 18.3437L6.90071 18.0573C7.29462 17.4011 7.84013 16.8465 8.49315 16.444L8.77831 16.2812C9.45443 15.9266 10.2075 15.74 10.9736 15.7396L11.0752 15.7448Z" fill="#FAFAFA"/>
<path fill-rule="evenodd" clip-rule="evenodd" d="M14.1116 10.0247C15.7146 10.0248 16.9945 11.3365 16.9945 12.9297C16.9944 14.1723 16.2149 15.2397 15.1116 15.651V17.6445H16.6221C17.2238 17.6446 17.7991 17.8857 18.221 18.3125L18.3695 18.4805C18.6967 18.8846 18.8773 19.3907 18.8773 19.9141V23.724C18.8767 24.2757 18.4291 24.7238 17.8773 24.724C17.3255 24.7237 16.8778 24.2756 16.8773 23.724V19.9141C16.8773 19.8579 16.8605 19.8044 16.8317 19.7604L16.7978 19.7187C16.7491 19.6697 16.6857 19.6446 16.6221 19.6445H14.1116C13.5599 19.6443 13.1122 19.1962 13.1116 18.6445V15.651C12.009 15.2394 11.2289 14.1719 11.2288 12.9297C11.2288 11.3367 12.5089 10.0251 14.1116 10.0247ZM14.1116 12.0247C13.6354 12.0251 13.2288 12.4192 13.2288 12.9297C13.2289 13.4401 13.6354 13.8343 14.1116 13.8346C14.5881 13.8346 14.9944 13.4403 14.9945 12.9297C14.9945 12.419 14.5881 12.0248 14.1116 12.0247Z" fill="#FAFAFA"/>
<path d="M23.2933 12.2931C23.6838 11.9026 24.3169 11.9027 24.7074 12.2931C25.0979 12.6836 25.0979 13.3166 24.7074 13.7071L22.7074 15.7071C22.3169 16.0976 21.6839 16.0976 21.2933 15.7071L19.2933 13.7071L19.2243 13.6316C18.9041 13.2388 18.9273 12.6591 19.2933 12.2931C19.6594 11.927 20.2391 11.9038 20.6319 12.224L20.7074 12.2931L22.0004 13.586L23.2933 12.2931Z" fill="#FAFAFA"/>
<path d="M21.3689 7.22405C21.7616 6.90369 22.3413 6.92704 22.7074 7.29306L24.7074 9.29306L24.7764 9.36858C25.0968 9.76134 25.0735 10.341 24.7074 10.7071C24.3413 11.0733 23.7616 11.0965 23.3689 10.7761L23.2933 10.7071L22.0004 9.41415L20.7074 10.7071C20.3169 11.0976 19.6839 11.0976 19.2933 10.7071C18.9029 10.3166 18.9029 9.68354 19.2933 9.29306L21.2933 7.29306L21.3689 7.22405Z" fill="#FAFAFA"/>
</svg>
