<svg width="32" height="32" viewBox="0 0 32 32" fill="none" xmlns="http://www.w3.org/2000/svg">
<path fill-rule="evenodd" clip-rule="evenodd" d="M6.53888 7.74521C5.45292 8.90749 4.66699 10.7131 4.66699 13.25C4.66699 16.7348 7.18492 19.915 10.0864 22.3199C11.5105 23.5003 12.9681 24.4442 14.1265 25.0899C14.706 25.4129 15.2008 25.6559 15.5703 25.8148C15.7561 25.8947 15.899 25.9485 15.9983 25.9804C15.999 25.9806 15.9996 25.9808 16.0003 25.981C16.001 25.9808 16.0017 25.9806 16.0024 25.9804C16.1017 25.9485 16.2446 25.8947 16.4303 25.8148C16.7998 25.6559 17.2947 25.4129 17.8741 25.0899C19.0326 24.4442 20.4902 23.5003 21.9143 22.3199C24.8157 19.915 27.3337 16.7348 27.3337 13.25C27.3337 10.7131 26.5477 8.90749 25.4618 7.74521C24.3712 6.57806 22.9253 6 21.4818 6C19.9741 6 18.7681 6.4533 17.9364 6.90847C17.5208 7.13596 17.2025 7.3619 16.9926 7.52673C16.8879 7.60896 16.8109 7.67541 16.7629 7.71842C16.739 7.7399 16.7223 7.75546 16.7132 7.76413L16.7055 7.77156L16.7067 7.77035L16.7076 7.76947M16.7053 7.77177L16.7055 7.77156C16.7049 7.77212 16.7048 7.77221 16.7052 7.77183L16.7053 7.77177ZM15.2926 7.76897L15.2931 7.76947L15.2936 7.76999L15.294 7.77035L15.294 7.77044C15.2939 7.77029 15.2938 7.77014 15.2936 7.76999C15.2933 7.76965 15.2929 7.76931 15.2926 7.76897ZM15.2952 7.77156L15.2874 7.76413C15.2783 7.75546 15.2617 7.7399 15.2377 7.71842C15.1898 7.67541 15.1127 7.60896 15.008 7.52673C14.7981 7.3619 14.4799 7.13596 14.0642 6.90847C13.2325 6.4533 12.0266 6 10.5188 6C9.07532 6 7.6294 6.57806 6.53888 7.74521M15.2954 7.77173C15.4827 7.95792 15.7361 8.0625 16.0003 8.0625C16.2645 8.0625 16.518 7.95794 16.7053 7.77177M5.07751 6.37979C6.55643 4.79694 8.53644 4 10.5188 4C12.437 4 13.9718 4.57795 15.0244 5.15403C15.4156 5.36812 15.7423 5.58306 16.0003 5.77041C16.2583 5.58306 16.5851 5.36812 16.9762 5.15403C18.0288 4.57795 19.5636 4 21.4818 4C23.4642 4 25.4442 4.79694 26.9231 6.37979C28.4066 7.96751 29.3337 10.2869 29.3337 13.25C29.3337 17.6715 26.1988 21.3663 23.1906 23.8597C21.6598 25.1286 20.0983 26.1398 18.8479 26.8368C18.2229 27.1852 17.6659 27.4606 17.2204 27.6521C16.9986 27.7475 16.7933 27.827 16.614 27.8845C16.4685 27.9313 16.2341 28 16.0003 28C15.7665 28 15.5322 27.9313 15.3866 27.8845C15.2074 27.827 15.002 27.7475 14.7802 27.6521C14.3348 27.4606 13.7777 27.1852 13.1528 26.8368C11.9024 26.1398 10.3408 25.1286 8.81008 23.8597C5.80184 21.3663 2.66699 17.6715 2.66699 13.25C2.66699 10.2869 3.59403 7.96751 5.07751 6.37979Z" fill="#FAFAFA"/>
</svg>
