<svg width="32" height="32" viewBox="0 0 32 32" fill="none" xmlns="http://www.w3.org/2000/svg">
<path d="M5.60026 14.3488C6.28961 14.3489 6.95129 14.6232 7.4388 15.1105C7.92612 15.598 8.20039 16.2598 8.20052 16.9491V18.5767H8.20443C8.54121 18.5094 8.88853 18.5134 9.22396 18.5871C9.55966 18.661 9.87731 18.8037 10.1549 19.0064C10.4186 19.199 10.6403 19.4426 10.8099 19.7212L12.0273 21.5871H12.0247C12.6612 22.5375 13.0019 23.6553 13 24.7993V27.9999C13 28.5519 12.552 28.9995 12 28.9999C11.4477 28.9999 11 28.5521 11 27.9999V24.798C11.0016 24.0479 10.7782 23.3136 10.3594 22.6913L10.3516 22.6795L9.13542 20.8124C9.12619 20.7982 9.11657 20.784 9.10807 20.7694C9.07454 20.7117 9.02916 20.6603 8.97526 20.621C8.92146 20.5818 8.85927 20.5546 8.79427 20.5402C8.72925 20.526 8.66164 20.5246 8.59635 20.5376C8.53101 20.5507 8.46867 20.5776 8.41406 20.6157C8.40882 20.6194 8.40248 20.6239 8.39714 20.6275C8.30244 20.6913 8.23319 20.7865 8.20052 20.8957V21.0767C8.20052 21.1051 8.19763 21.1335 8.19531 21.1613C8.2029 21.1899 8.21395 21.2176 8.22656 21.2446L9.63542 23.5923C9.91934 24.0657 9.76603 24.6791 9.29297 24.9634C8.81943 25.2475 8.20475 25.0944 7.92057 24.621L6.48047 22.2212C6.46763 22.1998 6.45652 22.1771 6.44531 22.1548C6.22318 21.7123 6.14032 21.2167 6.20052 20.7303V16.9491C6.20039 16.7902 6.13698 16.637 6.02474 16.5246C5.9123 16.4123 5.75918 16.3489 5.60026 16.3488C5.44125 16.3488 5.28828 16.4122 5.17578 16.5246C5.06338 16.637 5.00013 16.7901 5 16.9491V22.4595L5.01562 22.7824C5.08253 23.5302 5.37016 24.2441 5.84505 24.8319L7.96615 27.3566C8.32085 27.7794 8.26613 28.4103 7.84375 28.7655C7.42106 29.1207 6.79026 29.0655 6.4349 28.6431L4.30078 26.104C4.2969 26.0994 4.29286 26.0944 4.28906 26.0897C3.46035 25.0641 3.00541 23.7859 3 22.4673V16.9491C3.00013 16.2597 3.27424 15.598 3.76172 15.1105C4.24929 14.6231 4.91081 14.3488 5.60026 14.3488Z" fill="#FAFAFA"/>
<path d="M26.3997 14.3488C27.0891 14.3489 27.7508 14.6232 28.2383 15.1105C28.7256 15.598 28.9999 16.2598 29 16.9491V22.4673C28.9946 23.7859 28.5396 25.0641 27.7109 26.0897C27.707 26.0946 27.702 26.0993 27.6979 26.104L25.5651 28.6431C25.2099 29.0657 24.579 29.1205 24.1562 28.7655C23.7338 28.4102 23.6789 27.7794 24.0339 27.3566L26.1562 24.828C26.6967 24.1576 26.9956 23.3244 27 22.4634V16.9491C26.9999 16.7902 26.9365 16.637 26.8242 16.5246C26.7118 16.4123 26.5587 16.3489 26.3997 16.3488C26.2407 16.3488 26.0878 16.4122 25.9753 16.5246C25.8629 16.637 25.7996 16.7901 25.7995 16.9491V20.742C25.8569 21.2247 25.775 21.7159 25.5547 22.1548C25.5435 22.1772 25.5311 22.1998 25.5182 22.2212L24.0794 24.621C23.7953 25.0945 23.1806 25.2475 22.707 24.9634C22.2337 24.6793 22.0795 24.0658 22.3633 23.5923L23.7747 21.2381C23.7866 21.2119 23.7962 21.1849 23.8034 21.1574C23.8013 21.1309 23.7995 21.1037 23.7995 21.0767V20.8996C23.7673 20.7885 23.6978 20.6921 23.6016 20.6275C23.5962 20.6239 23.5912 20.6194 23.5859 20.6157C23.5313 20.5774 23.4691 20.5507 23.4036 20.5376C23.3383 20.5245 23.2709 20.526 23.2057 20.5402C23.1407 20.5545 23.0786 20.5817 23.0247 20.621C22.9708 20.6604 22.9255 20.7116 22.8919 20.7694C22.8834 20.784 22.8738 20.7981 22.8646 20.8124L21.6484 22.6795L21.6406 22.6913C21.2217 23.3136 20.9984 24.0478 21 24.798V27.9999C21 28.5521 20.5523 28.9999 20 28.9999C19.4477 28.9998 19 28.5521 19 27.9999V24.7993C18.9981 23.651 19.3394 22.5281 19.9805 21.5754L21.1888 19.7212C21.3585 19.4423 21.5811 19.1991 21.8451 19.0064C22.1226 18.8038 22.4392 18.661 22.7747 18.5871C23.1105 18.5132 23.4585 18.5093 23.7956 18.5767H23.7995V16.9491C23.7996 16.2597 24.0737 15.598 24.5612 15.1105C25.0488 14.6231 25.7103 14.3488 26.3997 14.3488Z" fill="#FAFAFA"/>
<path d="M17.4987 10.841C18.0507 10.8413 18.4987 11.2889 18.4987 11.841C18.4986 12.4196 18.2366 13.0512 17.763 13.5038C17.2481 13.9957 16.495 14.2647 15.6133 14.0858C15.0721 13.9758 14.7221 13.4473 14.832 12.9061C14.9421 12.3651 15.4706 12.0162 16.0117 12.1262C16.1414 12.1524 16.2206 12.1399 16.263 12.1275C16.3071 12.1145 16.3462 12.0909 16.3815 12.0571C16.4192 12.021 16.4517 11.9729 16.474 11.9217C16.4977 11.8671 16.4987 11.8353 16.4987 11.841C16.4987 11.2887 16.9464 10.841 17.4987 10.841Z" fill="#FAFAFA"/>
<path fill-rule="evenodd" clip-rule="evenodd" d="M15.0586 4.14179C15.5741 3.6113 16.4267 3.61188 16.9427 4.14179C19.1241 6.38179 21.3333 8.94589 21.3333 11.5337L21.3268 11.8098C21.1836 14.6452 18.8532 16.9009 16 16.9009L15.7253 16.8931C12.9986 16.7538 10.8118 14.5536 10.6732 11.8098L10.6667 11.5337C10.6667 8.96131 12.9509 6.31093 15.0586 4.14179ZM16 6.05064C15.1465 6.95385 14.3481 7.87347 13.737 8.79283C12.9949 9.90919 12.6667 10.8199 12.6667 11.5337C12.6672 13.4048 14.1713 14.9009 16 14.9009C17.8287 14.9009 19.3328 13.4048 19.3333 11.5337C19.3333 10.801 19.013 9.90459 18.2891 8.81236C17.6839 7.89954 16.8826 6.98081 16 6.05064Z" fill="#FAFAFA"/>
</svg>
