<svg width="32" height="32" viewBox="0 0 32 32" fill="none" xmlns="http://www.w3.org/2000/svg">
<path fill-rule="evenodd" clip-rule="evenodd" d="M9.99935 17.3332C12.5767 17.3332 14.666 19.4225 14.666 21.9998C14.666 24.5772 12.5767 26.6665 9.99935 26.6665C7.42202 26.6665 5.33268 24.5772 5.33268 21.9998C5.33268 19.4225 7.42202 17.3332 9.99935 17.3332ZM9.99935 19.3332C8.52659 19.3332 7.33268 20.5271 7.33268 21.9998C7.33268 23.4726 8.52659 24.6665 9.99935 24.6665C11.4721 24.6665 12.666 23.4726 12.666 21.9998C12.666 20.5271 11.4721 19.3332 9.99935 19.3332Z" fill="#FAFAFA"/>
<path fill-rule="evenodd" clip-rule="evenodd" d="M21.9993 17.3332C24.5767 17.3332 26.666 19.4225 26.666 21.9998C26.666 24.5772 24.5767 26.6665 21.9993 26.6665C19.422 26.6665 17.3327 24.5772 17.3327 21.9998C17.3327 19.4225 19.422 17.3332 21.9993 17.3332ZM21.9993 19.3332C20.5266 19.3332 19.3327 20.5271 19.3327 21.9998C19.3327 23.4726 20.5266 24.6665 21.9993 24.6665C23.4721 24.6665 24.666 23.4726 24.666 21.9998C24.666 20.5271 23.4721 19.3332 21.9993 19.3332Z" fill="#FAFAFA"/>
<path fill-rule="evenodd" clip-rule="evenodd" d="M9.99935 5.33317C12.5767 5.33317 14.666 7.42251 14.666 9.99984C14.666 12.5772 12.5767 14.6665 9.99935 14.6665C7.42202 14.6665 5.33268 12.5772 5.33268 9.99984C5.33268 7.42251 7.42202 5.33317 9.99935 5.33317ZM9.99935 7.33317C8.52659 7.33317 7.33268 8.52708 7.33268 9.99984C7.33268 11.4726 8.52659 12.6665 9.99935 12.6665C11.4721 12.6665 12.666 11.4726 12.666 9.99984C12.666 8.52708 11.4721 7.33317 9.99935 7.33317Z" fill="#FAFAFA"/>
<path fill-rule="evenodd" clip-rule="evenodd" d="M21.9993 5.33317C24.5767 5.33317 26.666 7.42251 26.666 9.99984C26.666 12.5772 24.5767 14.6665 21.9993 14.6665C19.422 14.6665 17.3327 12.5772 17.3327 9.99984C17.3327 7.42251 19.422 5.33317 21.9993 5.33317ZM21.9993 7.33317C20.5266 7.33317 19.3327 8.52708 19.3327 9.99984C19.3327 11.4726 20.5266 12.6665 21.9993 12.6665C23.4721 12.6665 24.666 11.4726 24.666 9.99984C24.666 8.52708 23.4721 7.33317 21.9993 7.33317Z" fill="#FAFAFA"/>
<path fill-rule="evenodd" clip-rule="evenodd" d="M26.666 2.6665C28.1388 2.6665 29.3327 3.86041 29.3327 5.33317V26.6665C29.3327 28.1393 28.1388 29.3332 26.666 29.3332H5.33268L5.06055 29.3188C3.71565 29.1825 2.66602 28.0474 2.66602 26.6665V5.33317C2.66602 3.86041 3.85992 2.6665 5.33268 2.6665H26.666ZM5.33268 4.6665C4.96449 4.6665 4.66602 4.96498 4.66602 5.33317V26.6665C4.66602 27.0347 4.96449 27.3332 5.33268 27.3332H26.666C27.0342 27.3332 27.3327 27.0347 27.3327 26.6665V5.33317C27.3327 4.96498 27.0342 4.6665 26.666 4.6665H5.33268Z" fill="#FAFAFA"/>
</svg>
