<svg width="32" height="32" viewBox="0 0 32 32" fill="none" xmlns="http://www.w3.org/2000/svg">
<path d="M26.1537 5.33325L26.3243 5.34757C26.7116 5.41434 27.0313 5.70525 27.1263 6.09757L28.9714 13.72C29.0436 14.018 28.9761 14.3331 28.7865 14.5741C28.5969 14.8151 28.3067 14.9556 28 14.9556H27.0013L26.5144 17.8554H28C28.5523 17.8554 29 18.3031 29 18.8554C29 19.4077 28.5523 19.8554 28 19.8554H26.181L25.2943 25.164C25.2138 25.6461 24.7961 25.9999 24.3073 25.9999H7.69274C7.19783 25.9999 6.77668 25.6378 6.70316 25.1484L5.90758 19.8554H4.00003C3.44775 19.8554 3.00003 19.4077 3.00003 18.8554C3.00008 18.3031 3.44778 17.8554 4.00003 17.8554H5.56383L5.01696 14.9556H4.00003C3.67402 14.9556 3.3682 14.7968 3.18102 14.5299C2.99397 14.2629 2.94879 13.9209 3.05993 13.6145L5.82946 5.99211L5.89326 5.85018C6.06708 5.53476 6.40139 5.33325 6.76956 5.33325H26.1537ZM7.75133 18.6705L7.75785 18.7069L8.55342 23.9999H23.461L24.3464 18.6913L24.3477 18.69L24.9727 14.9556H7.05212L7.75133 18.6705ZM23.3477 12.9556H26.7292L25.3672 7.33325H22.6667L23.3477 12.9556ZM17.1276 12.9556H21.3334L20.6524 7.33325H17.8086L17.1276 12.9556ZM11.7331 12.9556H15.1146L15.7943 7.33325H13.0951L11.7331 12.9556ZM5.42712 12.9556H9.67451L11.0365 7.33325H7.47008L5.42712 12.9556Z" fill="#FAFAFA"/>
</svg>
