<svg width="32" height="32" viewBox="0 0 32 32" fill="none" xmlns="http://www.w3.org/2000/svg">
<path fill-rule="evenodd" clip-rule="evenodd" d="M17.4375 9.67179C17.9415 9.72329 18.3346 10.149 18.3346 10.6666V20.6666C18.3346 21.2189 17.8869 21.6666 17.3346 21.6666H14.3346V22.6666C14.3346 22.9945 14.1732 23.3014 13.9036 23.4882C13.6341 23.6748 13.29 23.7179 12.9831 23.6028L7.64974 21.6028C7.25975 21.4563 7.0014 21.0832 7.0013 20.6666V10.6666C7.0013 10.5918 7.01049 10.5192 7.02604 10.4491C7.038 10.3956 7.05382 10.3434 7.07422 10.2929C7.08027 10.2779 7.087 10.2632 7.09375 10.2486C7.13945 10.1496 7.20156 10.0588 7.27734 9.97909C7.28835 9.96749 7.29965 9.95628 7.3112 9.94523C7.34886 9.90922 7.38877 9.87514 7.43229 9.84497L7.4349 9.84237C7.44421 9.83595 7.454 9.83024 7.46354 9.82414C7.50249 9.79926 7.54319 9.77809 7.58464 9.75903C7.59979 9.75206 7.61465 9.74442 7.63021 9.7382C7.67938 9.71851 7.72993 9.70295 7.78125 9.69133C7.80819 9.68527 7.83557 9.68083 7.86328 9.677C7.87027 9.67602 7.87711 9.67393 7.88411 9.6731C7.91706 9.66925 7.95053 9.66715 7.98437 9.66659H17.3346L17.4375 9.67179ZM9.0013 19.9726L12.3346 21.2226V13.3593L9.0013 12.1093V19.9726ZM13.6862 11.7304L13.8255 11.7955C14.1365 11.9707 14.3346 12.3018 14.3346 12.6666V19.6666H16.3346V11.6666H13.5156L13.6862 11.7304Z" fill="#FAFAFA"/>
<path d="M23.3346 18.6666C24.4392 18.6666 25.3346 19.562 25.3346 20.6666C25.3346 21.7712 24.4392 22.6666 23.3346 22.6666C22.2301 22.6666 21.3346 21.7712 21.3346 20.6666C21.3346 19.562 22.2301 18.6666 23.3346 18.6666Z" fill="#FAFAFA"/>
<path d="M23.3346 13.3333C24.4392 13.3333 25.3346 14.2287 25.3346 15.3333C25.3346 16.4378 24.4392 17.3333 23.3346 17.3333C22.2301 17.3333 21.3346 16.4378 21.3346 15.3333C21.3346 14.2287 22.2301 13.3333 23.3346 13.3333Z" fill="#FAFAFA"/>
<path fill-rule="evenodd" clip-rule="evenodd" d="M26.668 5.33325C28.1407 5.33325 29.3346 6.52716 29.3346 7.99992V23.9999C29.3346 25.4727 28.1407 26.6666 26.668 26.6666H5.33464L5.0625 26.6523C3.7176 26.5159 2.66797 25.3808 2.66797 23.9999V7.99992C2.66797 6.52716 3.86188 5.33325 5.33464 5.33325H26.668ZM5.33464 7.33325C4.96645 7.33325 4.66797 7.63173 4.66797 7.99992V23.9999C4.66797 24.3681 4.96645 24.6666 5.33464 24.6666H26.668C27.0362 24.6666 27.3346 24.3681 27.3346 23.9999V7.99992C27.3346 7.63173 27.0362 7.33325 26.668 7.33325H5.33464Z" fill="#FAFAFA"/>
</svg>
