<svg width="32" height="32" viewBox="0 0 32 32" fill="none" xmlns="http://www.w3.org/2000/svg">
<path d="M18.9997 8V4C18.9997 3.44772 19.4474 3 19.9997 3C20.552 3 20.9997 3.44772 20.9997 4V8L21.0075 8.16536C21.0455 8.54668 21.2146 8.90504 21.488 9.17839C21.8005 9.49095 22.2243 9.66667 22.6663 9.66667H26.6663C27.2186 9.66667 27.6663 10.1144 27.6663 10.6667C27.6663 11.219 27.2186 11.6667 26.6663 11.6667H22.6663C21.6939 11.6667 20.7615 11.2801 20.0739 10.5924C19.4721 9.99067 19.1012 9.20151 19.0179 8.36198L18.9997 8Z" fill="#FAFAFA"/>
<path d="M12.333 18V6C12.333 4.38105 13.7141 3 15.333 3H21.333C21.5982 3 21.8525 3.10543 22.04 3.29297L27.3734 8.6263L27.4984 8.77865C27.6071 8.94171 27.6663 9.13446 27.6663 9.33333V18C27.6663 19.619 26.2853 21 24.6663 21H15.333C13.7141 21 12.333 19.619 12.333 18ZM14.333 18C14.333 18.5144 14.8186 19 15.333 19H24.6663C25.1807 19 25.6663 18.5144 25.6663 18V9.7474L20.9189 5H15.333C14.8186 5 14.333 5.48562 14.333 6V18Z" fill="#FAFAFA"/>
<path d="M8.33301 22.3997V10.6667C8.33301 10.1144 8.78072 9.66667 9.33301 9.66667C9.88529 9.66667 10.333 10.1144 10.333 10.6667V22.3997C10.333 22.3825 10.3297 22.4165 10.3773 22.5039C10.4233 22.5884 10.4948 22.68 10.5739 22.7591C10.653 22.8382 10.7446 22.9097 10.8291 22.9557C10.9165 23.0033 10.9505 23 10.9333 23H19.9997C20.552 23 20.9997 23.4477 20.9997 24C20.9997 24.5523 20.552 25 19.9997 25H10.9333C10.1342 25 9.49141 24.5048 9.15983 24.1732C8.82825 23.8416 8.33301 23.1988 8.33301 22.3997Z" fill="#FAFAFA"/>
<path d="M4.33301 26.3997V14.6667C4.33301 14.1144 4.78072 13.6667 5.33301 13.6667C5.88529 13.6667 6.33301 14.1144 6.33301 14.6667V26.3997C6.33297 26.3825 6.32967 26.4165 6.37728 26.5039C6.42335 26.5884 6.49482 26.68 6.57389 26.7591C6.65297 26.8382 6.74465 26.9097 6.8291 26.9557C6.91655 27.0033 6.95046 27 6.93327 27H15.9997C16.552 27 16.9997 27.4477 16.9997 28C16.9997 28.5523 16.552 29 15.9997 29H6.93327C6.13423 29 5.49141 28.5048 5.15983 28.1732C4.82825 27.8416 4.33301 27.1988 4.33301 26.3997Z" fill="#FAFAFA"/>
</svg>
