<svg width="32" height="32" viewBox="0 0 32 32" fill="none" xmlns="http://www.w3.org/2000/svg">
<path d="M13.5 16.4604C14.3284 16.4604 14.9998 17.6948 15 19.2182C15 20.7419 14.3285 21.9773 13.5 21.9773C12.6716 21.9771 12 20.7417 12 19.2182C12.0002 17.6949 12.6717 16.4606 13.5 16.4604Z" fill="#FAFAFA"/>
<path d="M18.5 16.4604C19.3284 16.4604 19.9998 17.6948 20 19.2182C20 20.7419 19.3285 21.9773 18.5 21.9773C17.6716 21.9771 17 20.7417 17 19.2182C17.0002 17.6949 17.6717 16.4606 18.5 16.4604Z" fill="#FAFAFA"/>
<path fill-rule="evenodd" clip-rule="evenodd" d="M10.3607 8.08536C11.396 8.07289 12.3861 8.31174 13.25 8.52937C14.2929 8.7921 15.152 9.02286 16 9.02286C16.8486 9.02286 17.7082 8.79362 18.75 8.53197C19.7369 8.28412 20.8878 8.00914 22.082 8.1075L22.5221 8.15437C24.6897 8.44117 26.3359 9.49509 27.4193 11.2325C28.5381 13.0267 29 15.4568 29 18.2989C29 20.8429 27.9118 23.7851 26.4792 26.071C25.7571 27.2231 24.917 28.2567 24.0299 29.015C23.1646 29.7549 22.1349 30.3328 21.0495 30.3328C19.3767 30.3327 18.408 29.93 17.6367 29.532C16.8951 29.1493 16.6074 28.9538 16 28.9538C15.3926 28.9538 15.105 29.1493 14.3633 29.532C13.592 29.93 12.6232 30.3327 10.9505 30.3328C9.86524 30.3328 8.83537 29.7548 7.97005 29.015C7.08307 28.2567 6.24289 27.2231 5.52083 26.071C4.08819 23.7851 3 20.8429 3 18.2989C3.00001 15.4406 3.51504 13.0126 4.65755 11.2234C5.83015 9.38724 7.61424 8.30576 9.91406 8.1075L10.3607 8.08536ZM10.0846 10.0984L10.0859 10.0997C8.38592 10.2462 7.16985 11.0045 6.34245 12.3002C5.48511 13.643 5.00001 15.6404 5 18.2989C5 20.3522 5.91153 22.9269 7.21615 25.0085C7.86281 26.0403 8.57687 26.9033 9.26953 27.4955C9.98385 28.1062 10.5608 28.3328 10.9505 28.3328C12.2272 28.3327 12.8815 28.0462 13.4466 27.7546C14.0414 27.4477 14.8039 26.9538 16 26.9538C17.1963 26.9538 17.9586 27.4477 18.5534 27.7546C19.1183 28.0462 19.7725 28.3327 21.0495 28.3328C21.4394 28.3328 22.0162 28.106 22.7305 27.4955C23.4231 26.9033 24.1372 26.0403 24.7839 25.0085C26.0884 22.9269 27 20.3523 27 18.2989C27 15.624 26.5556 13.629 25.7214 12.2911C24.9736 11.0921 23.8685 10.3456 22.2487 10.1348L21.918 10.101C21.096 10.0333 20.246 10.2174 19.237 10.4708C18.2831 10.7103 17.1512 11.0229 16 11.0229C14.848 11.0229 13.7149 10.7083 12.7617 10.4682C11.7529 10.214 10.9043 10.0283 10.0846 10.0984Z" fill="#FAFAFA"/>
<path d="M21.4583 2.66869C21.5324 2.66249 21.6073 2.67111 21.6771 2.69474C21.747 2.71851 21.8113 2.75627 21.8633 2.80541C21.915 2.85442 21.954 2.91389 21.9779 2.97859C22.0017 3.04351 22.0089 3.11367 22 3.18171C21.8429 4.44692 21.2242 5.62641 20.2448 6.52677C18.9324 7.73313 17.3916 8.07745 16.569 8.18041C16.494 8.19039 16.4173 8.18478 16.3451 8.16349C16.2727 8.14216 16.2058 8.10643 16.151 8.05802C16.0964 8.00983 16.0549 7.95023 16.0286 7.88484C16.0024 7.81929 15.9923 7.74866 16 7.67911C16.1484 6.38636 16.7801 5.1807 17.7878 4.26895C19.1627 3.00465 20.6632 2.72334 21.4583 2.66869Z" fill="#FAFAFA"/>
</svg>
