<svg width="32" height="32" viewBox="0 0 32 32" fill="none" xmlns="http://www.w3.org/2000/svg">
<path fill-rule="evenodd" clip-rule="evenodd" d="M22.568 6.134C20.7401 5.72542 18.5984 6.21392 16.7137 8.13038C16.5257 8.32154 16.2688 8.4292 16.0007 8.4292C15.7326 8.4292 15.4757 8.32154 15.2877 8.13038C13.4029 6.21392 11.2613 5.72542 9.43333 6.134C7.58031 6.54818 5.95424 7.90425 5.16766 9.87037C3.66287 13.6318 5.15219 20.252 16.0007 26.5158C26.8492 20.252 28.3385 13.6317 26.8337 9.87036C26.0471 7.90423 24.421 6.54817 22.568 6.134ZM28.6906 9.12747C30.7823 14.356 28.1169 22.006 16.4906 28.5384C16.1864 28.7093 15.8151 28.7093 15.5109 28.5384C3.88454 22.006 1.21903 14.356 3.31075 9.12749C4.33362 6.57072 6.47724 4.74539 8.99706 4.18216C11.2883 3.67003 13.8142 4.21726 16.0007 6.06583C18.1872 4.21726 20.713 3.67003 23.0043 4.18216C25.5241 4.74538 27.6677 6.5707 28.6906 9.12747ZM14.0203 11.0001C14.3919 11.0074 14.7289 11.2203 14.8951 11.5527L18.0429 17.8482L19.3245 15.518C19.5002 15.1985 19.836 15 20.2007 15H23.0007C23.553 15 24.0007 15.4477 24.0007 16C24.0007 16.5522 23.553 17 23.0007 17H20.792L18.8769 20.4819C18.6978 20.8076 18.3527 21.007 17.9811 20.9998C17.6094 20.9925 17.2725 20.7796 17.1063 20.4472L13.9585 14.1517L12.6769 16.4819C12.5011 16.8014 12.1654 17 11.8007 17H9.00068C8.44839 17 8.00068 16.5522 8.00068 16C8.00068 15.4477 8.44839 15 9.00068 15H11.2094L13.1245 11.518C13.3036 11.1923 13.6486 10.9929 14.0203 11.0001Z" fill="#FAFAFA"/>
</svg>
