<svg width="32" height="32" viewBox="0 0 32 32" fill="none" xmlns="http://www.w3.org/2000/svg">
<path fill-rule="evenodd" clip-rule="evenodd" d="M16 2C19.713 2 23.2742 3.47475 25.8997 6.10026C28.5252 8.72577 30 12.287 30 16C30 19.713 28.5252 23.2742 25.8997 25.8997L25.3958 26.3776C22.8277 28.703 19.481 30 16 30C12.519 30 9.17233 28.703 6.60417 26.3776L6.10026 25.8997C3.47475 23.2742 2 19.713 2 16C2 12.287 3.47475 8.72577 6.10026 6.10026C8.72577 3.47475 12.287 2 16 2ZM17.6667 23.1393C17.1245 23.266 16.5659 23.3333 16 23.3333C15.4342 23.3333 14.8756 23.2659 14.3333 23.1393V27.8815C14.8825 27.9585 15.4391 28 16 28C16.5609 28 17.1175 27.9585 17.6667 27.8815V23.1393ZM4.57682 19.6667C5.15464 21.4672 6.15242 23.1238 7.51432 24.4857C8.87613 25.8475 10.533 26.844 12.3333 27.4219V22.3477C11.887 22.0898 11.465 21.7865 11.0781 21.4362L10.8151 21.1849C10.3584 20.7282 9.96999 20.2164 9.65234 19.6667H4.57682ZM22.3477 19.6667C22.03 20.2164 21.6416 20.7282 21.1849 21.1849C20.7282 21.6416 20.2164 22.03 19.6667 22.3477V27.4219C21.467 26.844 23.1239 25.8475 24.4857 24.4857C25.8476 23.1238 26.8454 21.4672 27.4232 19.6667H22.3477ZM16 10.6667C14.5855 10.6667 13.2294 11.229 12.2292 12.2292C11.229 13.2294 10.6667 14.5855 10.6667 16C10.6667 17.4145 11.229 18.7706 12.2292 19.7708C13.2294 20.771 14.5855 21.3333 16 21.3333C17.4145 21.3333 18.7706 20.771 19.7708 19.7708C20.771 18.7706 21.3333 17.4145 21.3333 16C21.3333 14.5855 20.771 13.2294 19.7708 12.2292C18.7706 11.229 17.4145 10.6667 16 10.6667ZM4.11849 14.3333C4.04149 14.8825 4 15.4391 4 16C4 16.5609 4.04149 17.1175 4.11849 17.6667H8.86068C8.734 17.1245 8.66667 16.5659 8.66667 16C8.66667 15.4343 8.73282 14.8755 8.85938 14.3333H4.11849ZM23.1393 14.3333C23.266 14.8755 23.3333 15.4341 23.3333 16C23.3333 16.5659 23.266 17.1245 23.1393 17.6667H27.8815C27.9585 17.1175 28 16.5609 28 16C28 15.4391 27.9585 14.8825 27.8815 14.3333H23.1393ZM12.3333 4.57682C10.5328 5.15464 8.87623 6.15242 7.51432 7.51432C6.15242 8.87623 5.15464 10.5328 4.57682 12.3333H9.65234C9.91016 11.887 10.2135 11.465 10.5638 11.0781L10.8151 10.8151C11.272 10.3582 11.7834 9.96875 12.3333 9.65104V4.57682ZM19.6667 9.65104C20.2166 9.96875 20.728 10.3582 21.1849 10.8151C21.6416 11.2718 22.03 11.7836 22.3477 12.3333H27.4232C26.8454 10.5328 25.8476 8.87623 24.4857 7.51432C23.1238 6.15242 21.4672 5.15464 19.6667 4.57682V9.65104ZM16 4C15.4391 4 14.8824 4.0402 14.3333 4.11719V8.85938C14.8754 8.73274 15.4342 8.66667 16 8.66667C16.5658 8.66667 17.1246 8.73274 17.6667 8.85938V4.11719C17.1176 4.0402 16.5609 4 16 4Z" fill="#FAFAFA"/>
</svg>
