<svg width="24" height="24" viewBox="0 0 24 24" fill="none" xmlns="http://www.w3.org/2000/svg">
<path d="M11.9997 2C6.36738 2 2 6.12739 2 11.6997C2 14.6147 3.19497 17.1346 5.13991 18.8745C5.30241 19.0195 5.40241 19.2245 5.40741 19.4445L5.4624 21.2245C5.46641 21.3554 5.50252 21.4834 5.56757 21.5972C5.63262 21.7109 5.7246 21.8069 5.83545 21.8768C5.9463 21.9467 6.07261 21.9882 6.20328 21.9978C6.33396 22.0075 6.46499 21.9848 6.58487 21.932L8.56982 21.057C8.73731 20.982 8.92731 20.9695 9.1048 21.017C10.0173 21.267 10.9873 21.402 11.9997 21.402C17.6321 21.402 21.9995 17.2746 21.9995 11.7022C21.9995 6.12989 17.6321 2 11.9997 2Z" fill="url(#paint0_radial_11376_980)"/>
<path d="M5.99348 14.5371L8.9309 9.87722C9.0414 9.70178 9.18708 9.55115 9.35873 9.43485C9.53038 9.31855 9.72428 9.2391 9.92818 9.20151C10.1321 9.16392 10.3416 9.16902 10.5434 9.21648C10.7452 9.26393 10.935 9.35272 11.1008 9.47723L13.4383 11.2297C13.5426 11.3078 13.6696 11.3498 13.7999 11.3494C13.9303 11.3489 14.0569 11.306 14.1608 11.2272L17.3157 8.83225C17.7357 8.51226 18.2856 9.01724 18.0057 9.46473L15.0657 14.1221C14.9552 14.2975 14.8096 14.4482 14.6379 14.5645C14.4663 14.6808 14.2724 14.7602 14.0685 14.7978C13.8645 14.8354 13.6551 14.8303 13.4532 14.7828C13.2514 14.7354 13.0616 14.6466 12.8958 14.5221L10.5584 12.7696C10.454 12.6915 10.3271 12.6495 10.1967 12.65C10.0663 12.6504 9.93968 12.6933 9.83588 12.7721L6.68096 15.1671C6.26097 15.4871 5.71099 14.9846 5.99348 14.5371Z" fill="#FAFAFA"/>
<defs>
<radialGradient id="paint0_radial_11376_980" cx="0" cy="0" r="1" gradientUnits="userSpaceOnUse" gradientTransform="translate(5.34991 21.9995) scale(21.9994 21.9994)">
<stop stop-color="#0099FF"/>
<stop offset="0.6" stop-color="#A033FF"/>
<stop offset="0.9" stop-color="#FF5280"/>
<stop offset="1" stop-color="#FF7061"/>
</radialGradient>
</defs>
</svg>
