<svg width="24" height="24" viewBox="0 0 24 24" fill="none" xmlns="http://www.w3.org/2000/svg">
<path d="M3 2.25C3.41421 2.25 3.75 2.58579 3.75 3V20.25H21C21.4142 20.25 21.75 20.5858 21.75 21C21.75 21.4142 21.4142 21.75 21 21.75H3C2.58579 21.75 2.25 21.4142 2.25 21V3C2.25 2.58579 2.58579 2.25 3 2.25Z" fill="#FAFAFA"/>
<path d="M7 13C7.39949 13 7.7143 13.0006 7.9668 13.0176C7.98945 13.0191 8.01153 13.0216 8.0332 13.0234C8.0641 13.026 8.09408 13.028 8.12305 13.0312C8.23142 13.0433 8.32667 13.0597 8.41113 13.083L8.44922 13.0947C8.45555 13.0967 8.46156 13.0995 8.46777 13.1016C8.50185 13.1129 8.53391 13.1256 8.56445 13.1396C8.57568 13.1448 8.58687 13.1497 8.59766 13.1553C8.63671 13.1754 8.6732 13.1978 8.70703 13.2236L8.80371 13.3145C8.99972 13.5428 9 13.8964 9 14.5254V17.4746C9 17.7707 8.99798 18.0056 8.97754 18.1953C8.97464 18.2223 8.97155 18.2483 8.96777 18.2734C8.96481 18.2931 8.96255 18.3124 8.95898 18.3311C8.94193 18.4204 8.91649 18.4972 8.88184 18.5654C8.87616 18.5766 8.86953 18.587 8.86328 18.5977C8.84834 18.6232 8.83193 18.647 8.81348 18.6699C8.80751 18.6773 8.80226 18.6852 8.7959 18.6924C8.76949 18.7221 8.74078 18.7506 8.70703 18.7764L8.58789 18.8506C8.50767 18.8906 8.41525 18.918 8.30762 18.9395C8.2861 18.9437 8.264 18.9475 8.24121 18.9512C8.20064 18.9577 8.15817 18.9639 8.11328 18.9688C8.09853 18.9703 8.0836 18.9722 8.06836 18.9736C8.02843 18.9774 7.9868 18.9797 7.94336 18.9824C7.8401 18.9889 7.72673 18.9939 7.60156 18.9961C7.4255 18.9992 7.22634 19 7 19C6.62284 19 6.3212 18.9987 6.07617 18.9844C6.06463 18.9837 6.05328 18.9822 6.04199 18.9814C5.97188 18.9769 5.90674 18.9704 5.8457 18.9629C5.82056 18.9598 5.79618 18.9568 5.77246 18.9531C5.72428 18.9457 5.67941 18.936 5.63672 18.9258C5.61016 18.9195 5.58418 18.9147 5.55957 18.9072C5.55292 18.9052 5.54656 18.9025 5.54004 18.9004C5.49443 18.8856 5.45155 18.8703 5.41211 18.8506L5.29297 18.7764C5.25904 18.7505 5.22964 18.7223 5.20312 18.6924C5.19678 18.6852 5.1915 18.6773 5.18555 18.6699C5.16714 18.647 5.15064 18.6232 5.13574 18.5977C5.12951 18.587 5.12285 18.5766 5.11719 18.5654C5.08262 18.4973 5.05706 18.4203 5.04004 18.3311C5.03648 18.3124 5.03421 18.2931 5.03125 18.2734C5.02747 18.2483 5.02438 18.2223 5.02148 18.1953C5.00105 18.0056 5 17.7706 5 17.4746V14.5254C5 13.8064 5.00015 13.447 5.29297 13.2236C5.58587 13.0002 6.05719 13 7 13Z" fill="#FAFAFA"/>
<path d="M12.5 10C12.8908 10 13.2005 10.0008 13.4502 10.0166C13.4828 10.0187 13.5143 10.0208 13.5449 10.0234C13.571 10.0257 13.5964 10.0276 13.6211 10.0303C13.738 10.0431 13.8393 10.0628 13.9287 10.0889C13.9444 10.0935 13.9596 10.0984 13.9746 10.1035C14.0061 10.1142 14.036 10.1256 14.0645 10.1387C14.076 10.1439 14.0876 10.1486 14.0986 10.1543C14.1373 10.1742 14.1735 10.1963 14.207 10.2217L14.3037 10.3125C14.4998 10.5395 14.5 10.8912 14.5 11.5166V17.4834C14.5 17.7753 14.4985 18.0075 14.4785 18.1953C14.4754 18.2244 14.4719 18.2523 14.4678 18.2793C14.4651 18.2969 14.4631 18.3143 14.46 18.3311C14.4423 18.4247 14.4151 18.5046 14.3779 18.5752C14.3749 18.5809 14.3713 18.5862 14.3682 18.5918C14.352 18.6203 14.3339 18.6466 14.3135 18.6719C14.3075 18.6793 14.3023 18.6872 14.2959 18.6943C14.2695 18.7239 14.2408 18.7527 14.207 18.7783L14.0879 18.8516C14.0472 18.8717 14.0033 18.8883 13.9561 18.9033C13.9428 18.9076 13.9289 18.9102 13.915 18.9141C13.878 18.9244 13.8393 18.9344 13.7979 18.9424C13.7823 18.9454 13.7663 18.9475 13.75 18.9502C13.7124 18.9564 13.6732 18.9621 13.6318 18.9668C13.6013 18.9703 13.5698 18.9738 13.5371 18.9766C13.5096 18.9789 13.4813 18.9806 13.4521 18.9824C13.3466 18.9892 13.2303 18.9938 13.1016 18.9961C12.9255 18.9992 12.7263 19 12.5 19C12.1198 19 11.8164 18.9989 11.5703 18.9844C11.5661 18.9841 11.5618 18.9837 11.5576 18.9834C11.4762 18.9784 11.4014 18.9708 11.332 18.9619C11.313 18.9595 11.2945 18.9568 11.2764 18.9541C11.2293 18.9469 11.1854 18.9374 11.1436 18.9277C11.1143 18.921 11.0855 18.9164 11.0586 18.9082C11.0522 18.9063 11.0463 18.9034 11.04 18.9014C10.9944 18.8866 10.9516 18.8712 10.9121 18.8516L10.793 18.7783C10.7591 18.7526 10.7296 18.724 10.7031 18.6943C10.6968 18.6872 10.6915 18.6793 10.6855 18.6719C10.6651 18.6466 10.647 18.6203 10.6309 18.5918C10.6277 18.5862 10.6241 18.5809 10.6211 18.5752C10.584 18.5047 10.5577 18.4246 10.54 18.3311C10.5368 18.3142 10.5339 18.297 10.5312 18.2793C10.5272 18.2524 10.5246 18.2243 10.5215 18.1953C10.5015 18.0075 10.5 17.7753 10.5 17.4834V11.5166C10.5 10.8017 10.5001 10.4438 10.793 10.2217C11.0859 9.99974 11.5575 10 12.5 10Z" fill="#FAFAFA"/>
<path d="M18 4C18.3995 4 18.7143 4.00011 18.9668 4.01758C18.9894 4.01914 19.0115 4.02158 19.0332 4.02344C19.0634 4.02603 19.0927 4.02803 19.1211 4.03125C19.1581 4.03545 19.1935 4.04147 19.2275 4.04688C19.2619 4.05234 19.2947 4.05858 19.3262 4.06543C19.3638 4.07358 19.3997 4.08143 19.4336 4.0918C19.4457 4.0955 19.4571 4.10049 19.4688 4.10449C19.5059 4.11725 19.5403 4.13233 19.5732 4.14844C19.5801 4.15179 19.5871 4.1547 19.5938 4.1582C19.6341 4.17938 19.6722 4.20219 19.707 4.22949L19.8037 4.32324C19.9997 4.55797 20 4.92169 20 5.56836V17.4316C20 17.7356 19.9979 17.9769 19.9775 18.1719C19.9746 18.2005 19.9717 18.2282 19.9678 18.2549C19.965 18.2739 19.9623 18.2925 19.959 18.3105C19.9419 18.4032 19.9168 18.4831 19.8818 18.5537C19.8765 18.5645 19.8701 18.5746 19.8643 18.585C19.8487 18.6125 19.8319 18.6385 19.8125 18.6631C19.8073 18.6696 19.8023 18.6763 19.7969 18.6826C19.7702 18.7136 19.7412 18.7437 19.707 18.7705L19.5879 18.8457C19.5487 18.8659 19.5062 18.8822 19.4609 18.8975C19.4315 18.9073 19.4005 18.9148 19.3682 18.9229C19.3515 18.927 19.3348 18.9318 19.3174 18.9355C19.2811 18.9432 19.2432 18.9502 19.2031 18.9561C19.1853 18.9587 19.1671 18.9615 19.1484 18.9639C19.1074 18.969 19.0646 18.9738 19.0195 18.9775C19.0032 18.9789 18.9866 18.9793 18.9697 18.9805C18.8511 18.9888 18.7188 18.9938 18.5703 18.9961C18.402 18.9988 18.2131 19 18 19C17.6229 19 17.3212 18.9991 17.0762 18.9844C17.066 18.9838 17.0559 18.9831 17.0459 18.9824C16.9698 18.9774 16.8995 18.9695 16.834 18.9609C16.8164 18.9586 16.7991 18.9567 16.7822 18.9541C16.7214 18.9447 16.6655 18.9327 16.6133 18.9189C16.5997 18.9154 16.5863 18.9121 16.5732 18.9082C16.5589 18.9039 16.545 18.8993 16.5312 18.8945C16.4889 18.8799 16.449 18.8647 16.4121 18.8457L16.293 18.7705C16.2586 18.7435 16.2289 18.7138 16.2021 18.6826C16.1968 18.6764 16.1925 18.6695 16.1875 18.6631C16.168 18.6384 16.1504 18.6127 16.1348 18.585C16.1289 18.5746 16.1225 18.5645 16.1172 18.5537C16.0823 18.4831 16.0571 18.4031 16.04 18.3105C16.0367 18.2925 16.0341 18.2739 16.0312 18.2549C16.0273 18.2282 16.0245 18.2005 16.0215 18.1719C16.0011 17.9769 16 17.7355 16 17.4316V5.56836C16 4.82907 16.0001 4.45916 16.293 4.22949C16.5859 3.99993 17.0573 4 18 4Z" fill="#FAFAFA"/>
</svg>
