<svg width="24" height="24" viewBox="0 0 24 24" fill="none" xmlns="http://www.w3.org/2000/svg">
<path d="M10.2008 13.1043C10.1491 13.1042 10.0995 13.1242 10.0622 13.16C10.0249 13.1958 10.0029 13.2446 10.0008 13.2963V15.2963C10.0008 15.6145 10.1273 15.9197 10.3523 16.1448C10.5773 16.3698 10.8826 16.4963 11.2008 16.4963V20.4963C11.2008 20.7084 11.2851 20.9119 11.4351 21.0619C11.5852 21.212 11.7887 21.2963 12.0008 21.2963C12.213 21.2963 12.4165 21.212 12.5665 21.0619C12.7165 20.9119 12.8008 20.7084 12.8008 20.4963V16.4963C13.1191 16.4963 13.4243 16.3698 13.6494 16.1448C13.8744 15.9197 14.0008 15.6145 14.0008 15.2963V13.2963C13.9988 13.2446 13.9768 13.1958 13.9395 13.16C13.9022 13.1242 13.8525 13.1042 13.8008 13.1043H10.2008Z" fill="#FAFAFA"/>
<path d="M16.2008 5.60026V6.70426C16.2029 6.7559 16.2249 6.80474 16.2622 6.84053C16.2994 6.87633 16.3491 6.8963 16.4008 6.89626H19.2008C19.5191 6.89626 19.8243 6.76983 20.0494 6.54478C20.2744 6.31974 20.4008 6.01452 20.4008 5.69626C20.4008 5.378 20.2744 5.07277 20.0494 4.84773C19.8243 4.62268 19.5191 4.49626 19.2008 4.49626H16.3128C16.2819 4.49685 16.2515 4.50434 16.2238 4.51818C16.1961 4.53202 16.1719 4.55186 16.1528 4.57626C16.1191 4.62535 16.1049 4.68523 16.1128 4.74426C16.1733 5.02553 16.2028 5.31257 16.2008 5.60026Z" fill="#FAFAFA"/>
<path d="M7.80083 5.60026C7.80281 5.33129 7.83229 5.06322 7.88883 4.80026C7.89642 4.77112 7.89674 4.74056 7.88976 4.71127C7.88279 4.68198 7.86873 4.65485 7.84883 4.63226C7.83065 4.60887 7.80769 4.58963 7.78147 4.57583C7.75526 4.56204 7.7264 4.554 7.69683 4.55226H4.80083C4.48257 4.55226 4.17735 4.67868 3.9523 4.90373C3.72726 5.12877 3.60083 5.434 3.60083 5.75226C3.60083 6.07052 3.72726 6.37574 3.9523 6.60078C4.17735 6.82583 4.48257 6.95226 4.80083 6.95226H7.60083C7.65252 6.9523 7.70221 6.93233 7.7395 6.89653C7.77678 6.86074 7.79876 6.8119 7.80083 6.76026V5.60026Z" fill="#FAFAFA"/>
<path d="M20.0408 16.6323C19.8645 16.5165 19.6495 16.475 19.4427 16.517C19.236 16.559 19.0541 16.6809 18.9368 16.8563L18.0008 18.2563L17.2888 17.1923C17.1906 17.0471 17.0583 16.9282 16.9035 16.846C16.7487 16.7638 16.5761 16.7208 16.4008 16.7208C16.2256 16.7208 16.0529 16.7638 15.8981 16.846C15.7433 16.9282 15.611 17.0471 15.5128 17.1923L14.1368 19.2563C14.0714 19.3432 14.0245 19.4426 13.9988 19.5483C13.9731 19.654 13.9692 19.7639 13.9875 19.8711C14.0057 19.9784 14.0456 20.0808 14.1047 20.1721C14.1639 20.2634 14.241 20.3417 14.3315 20.4022C14.4219 20.4626 14.5237 20.504 14.6307 20.5238C14.7377 20.5436 14.8476 20.5413 14.9537 20.5172C15.0598 20.4931 15.1598 20.4475 15.2477 20.3834C15.3356 20.3193 15.4095 20.2379 15.4648 20.1443L16.4008 18.7443L17.1128 19.8083C17.211 19.9535 17.3433 20.0724 17.4981 20.1545C17.6529 20.2367 17.8256 20.2797 18.0008 20.2797C18.1761 20.2797 18.3487 20.2367 18.5035 20.1545C18.6583 20.0724 18.7906 19.9535 18.8888 19.8083L20.2648 17.7443C20.3234 17.6566 20.3641 17.5583 20.3845 17.4549C20.405 17.3515 20.4048 17.245 20.384 17.1417C20.3632 17.0384 20.3221 16.9402 20.2633 16.8527C20.2044 16.7653 20.1288 16.6904 20.0408 16.6323Z" fill="#FAFAFA"/>
<path d="M8.48883 17.1923C8.39064 17.0471 8.25834 16.9282 8.10353 16.846C7.94872 16.7638 7.77611 16.7208 7.60083 16.7208C7.42555 16.7208 7.25294 16.7638 7.09813 16.846C6.94332 16.9282 6.81102 17.0471 6.71283 17.1923L6.00083 18.2563L5.06483 16.8563C5.00947 16.7626 4.93558 16.6812 4.84769 16.6171C4.7598 16.553 4.65976 16.5075 4.55368 16.4833C4.4476 16.4592 4.33771 16.4569 4.23073 16.4767C4.12375 16.4965 4.02193 16.5379 3.93149 16.5984C3.84105 16.6588 3.7639 16.7371 3.70475 16.8284C3.6456 16.9197 3.60569 17.0221 3.58747 17.1294C3.56925 17.2367 3.5731 17.3465 3.59878 17.4522C3.62446 17.5579 3.67144 17.6573 3.73683 17.7443L5.11283 19.8083C5.21102 19.9535 5.34332 20.0724 5.49813 20.1545C5.65294 20.2367 5.82555 20.2797 6.00083 20.2797C6.17611 20.2797 6.34872 20.2367 6.50353 20.1545C6.65834 20.0724 6.79064 19.9535 6.88883 19.8083L7.60083 18.7443L8.53683 20.1443C8.5922 20.2379 8.66608 20.3193 8.75397 20.3834C8.84186 20.4475 8.9419 20.4931 9.04798 20.5172C9.15406 20.5413 9.26395 20.5436 9.37093 20.5238C9.47791 20.504 9.57974 20.4626 9.67017 20.4022C9.76061 20.3417 9.83776 20.2634 9.89692 20.1721C9.95607 20.0808 9.99597 19.9784 10.0142 19.8711C10.0324 19.7639 10.0286 19.654 10.0029 19.5483C9.9772 19.4426 9.93023 19.3432 9.86483 19.2563L8.48883 17.1923Z" fill="#FAFAFA"/>
<path fill-rule="evenodd" clip-rule="evenodd" d="M12.001 2.70383C12.3884 2.69535 12.7738 2.76384 13.1348 2.905C13.4958 3.04624 13.8256 3.25783 14.1045 3.52707C14.3834 3.79631 14.6059 4.11853 14.7598 4.47433C14.9136 4.8301 14.9958 5.21274 15.001 5.60031V11.696C15.001 11.7497 14.9805 11.8018 14.9434 11.8405C14.9061 11.8793 14.8545 11.902 14.8008 11.904L9.20117 11.9362C9.14741 11.9342 9.09589 11.9116 9.05859 11.8728C9.02137 11.834 9.00094 11.782 9.00098 11.7282V5.60031C9.00616 5.21274 9.08834 4.8301 9.24219 4.47433C9.39608 4.11853 9.61855 3.79631 9.89746 3.52707C10.1764 3.25783 10.5062 3.04624 10.8672 2.905C11.2281 2.76384 11.6135 2.69535 12.001 2.70383ZM10.8008 8.24972C10.3867 8.24972 10.051 8.58572 10.0508 8.99972C10.0508 9.41394 10.3866 9.74972 10.8008 9.74972H13.2012C13.6152 9.74951 13.9512 9.41381 13.9512 8.99972C13.9509 8.58585 13.6151 8.24994 13.2012 8.24972H10.8008ZM10.8008 5.85031C10.3866 5.85031 10.0508 6.1861 10.0508 6.60031C10.0508 7.01451 10.3866 7.35031 10.8008 7.35031H13.2012C13.6152 7.3501 13.9512 7.01438 13.9512 6.60031C13.9512 6.18623 13.6152 5.85052 13.2012 5.85031H10.8008Z" fill="#FAFAFA"/>
</svg>
