<svg width="24" height="24" viewBox="0 0 24 24" fill="none" xmlns="http://www.w3.org/2000/svg">
<path d="M18.7081 20.833C19.1223 20.833 19.4581 21.1688 19.4581 21.583V21.5928C19.458 22.0069 19.1223 22.3428 18.7081 22.3428C18.2942 22.3424 17.9582 22.0067 17.9581 21.5928V21.583C17.9581 21.169 18.2942 20.8333 18.7081 20.833Z" fill="#FAFAFA"/>
<path d="M18.7081 15.083C19.1223 15.083 19.4581 15.4188 19.4581 15.833V18.708C19.4581 19.1222 19.1223 19.458 18.7081 19.458C18.2942 19.4577 17.9581 19.122 17.9581 18.708V15.833C17.9581 15.419 18.2942 15.0833 18.7081 15.083Z" fill="#FAFAFA"/>
<path d="M12.0001 5.5C15.7917 5.5 18.8789 7.63149 21.2687 11.6143C21.4109 11.8516 21.4109 12.1484 21.2687 12.3857C21.1848 12.5256 21.099 12.6649 21.0118 12.8027L20.378 12.4014L20.172 12.2705L21.0118 12.8027C20.7903 13.1525 20.3266 13.2565 19.9767 13.0352C19.6273 12.8136 19.5233 12.3508 19.7442 12.001C17.5815 8.58379 14.9979 7 12.0001 7C9.00268 7.00021 6.41848 8.58334 4.25596 12C6.41848 15.4167 9.00268 16.9998 12.0001 17H12.004C12.9055 17.0045 13.8015 16.8498 14.6495 16.5439L14.9034 17.25L15.1583 17.9551C14.1458 18.3203 13.0765 18.504 12.0001 18.499H11.9972L11.9962 18.5C8.20659 18.4983 5.12037 16.3671 2.73155 12.3857C2.58948 12.1485 2.58948 11.8515 2.73155 11.6143C5.12119 7.63153 8.20871 5.50022 12.0001 5.5Z" fill="#FAFAFA"/>
<path d="M14.6495 16.5439C15.039 16.4036 15.4689 16.6057 15.6095 16.9951C15.7501 17.3847 15.5479 17.8145 15.1583 17.9551L14.6495 16.5439Z" fill="#FAFAFA"/>
<path d="M12.0001 9.12402C12.7626 9.12407 13.4941 9.42672 14.0333 9.96582C14.5726 10.5051 14.8751 11.2373 14.8751 12C14.875 12.7626 14.5725 13.494 14.0333 14.0332C13.4941 14.5724 12.7627 14.875 12.0001 14.875C11.2376 14.875 10.5062 14.5723 9.9669 14.0332C9.42769 13.494 9.12421 12.7626 9.12413 12C9.12413 11.2373 9.42761 10.5051 9.9669 9.96582C10.5062 9.42679 11.2376 9.12402 12.0001 9.12402Z" fill="#FAFAFA"/>
</svg>
