<svg width="24" height="24" viewBox="0 0 24 24" fill="none" xmlns="http://www.w3.org/2000/svg">
<path d="M11.3878 13.4344V19.244L8.91027 18.1209C8.53311 17.9498 8.08831 18.1168 7.91711 18.494C7.7463 18.8709 7.91341 19.3149 8.29016 19.4862L11.8282 21.0926C11.832 21.0943 11.8362 21.0949 11.84 21.0965C11.8461 21.0992 11.8523 21.1018 11.8585 21.1043C11.8977 21.1201 11.9378 21.1325 11.9786 21.1414C12.03 21.1526 12.0831 21.16 12.1378 21.16L12.1388 21.159H12.1437C12.1935 21.1586 12.2421 21.154 12.2892 21.1444C12.3348 21.135 12.3793 21.1203 12.423 21.1024C12.4266 21.1009 12.4301 21.099 12.4337 21.0975C12.4384 21.0955 12.4437 21.0947 12.4484 21.0926L21.6779 16.8963C21.6799 16.8955 21.6817 16.8943 21.6837 16.8934L21.6984 16.8875C21.7354 16.8707 21.7707 16.851 21.8038 16.8289C21.8086 16.8257 21.8128 16.8215 21.8175 16.8182C21.849 16.7961 21.8779 16.7713 21.9054 16.745C21.914 16.7367 21.9225 16.7283 21.9308 16.7196C21.9902 16.6569 22.0396 16.5856 22.0743 16.5067C22.0795 16.4949 22.0834 16.4826 22.088 16.4705C22.0996 16.4401 22.1088 16.4088 22.1163 16.3768C22.12 16.361 22.1244 16.3451 22.1271 16.3289C22.1286 16.3196 22.1298 16.3101 22.131 16.3006C22.135 16.2693 22.1378 16.2373 22.1378 16.2049V8.30648L11.3878 13.4344Z" fill="#FAFAFA"/>
<path d="M9.0841 13.7274C8.87696 13.3688 8.41836 13.2459 8.05969 13.453L3.8009 15.911L4.22766 14.3182C4.33469 13.9182 4.09739 13.5064 3.69738 13.3993C3.29768 13.2925 2.88685 13.53 2.77941 13.9295L1.88391 17.2713C1.86209 17.3528 1.85817 17.4348 1.8634 17.5145C1.86439 17.53 1.86337 17.5458 1.86535 17.5614C1.87244 17.6161 1.88579 17.6693 1.90441 17.7205C1.91919 17.7613 1.93669 17.8018 1.9591 17.8407C1.9972 17.9066 2.04679 17.9621 2.09973 18.0116C2.11707 18.0277 2.13351 18.0448 2.15246 18.0594C2.16837 18.0716 2.18553 18.0818 2.20226 18.0926C2.26639 18.1341 2.33644 18.1694 2.41418 18.1903L5.75598 19.0858C6.15582 19.1927 6.56659 18.9552 6.67394 18.5555C6.78115 18.1554 6.54376 17.7438 6.14367 17.6366L4.55285 17.2098L8.80969 14.7518C9.16839 14.5447 9.29116 14.0861 9.0841 13.7274Z" fill="#FAFAFA"/>
<path d="M12.4484 2.90804C12.2512 2.81841 12.0245 2.81841 11.8273 2.90804L2.57726 7.11312L2.54797 7.12777C2.52989 7.13695 2.51225 7.14663 2.49523 7.15706C2.49078 7.1598 2.48597 7.16204 2.48156 7.16488C2.47648 7.16815 2.4719 7.17223 2.46691 7.17562C2.45609 7.18295 2.44601 7.19123 2.43566 7.19905C2.36406 7.25333 2.30421 7.31916 2.25695 7.39339C2.25303 7.39956 2.24897 7.40567 2.24523 7.41195C2.19948 7.4887 2.16762 7.57298 2.15148 7.66195C2.15053 7.66714 2.14939 7.67235 2.14855 7.67757C2.14237 7.71637 2.13781 7.75577 2.13781 7.79573V10.7127C2.13805 11.1267 2.47374 11.4627 2.88781 11.4627C3.30188 11.4627 3.63758 11.1267 3.63781 10.7127V8.9598L10.6271 12.1366L21.422 6.98616L12.4484 2.90804Z" fill="#FAFAFA"/>
</svg>
