<svg width="24" height="24" viewBox="0 0 24 24" fill="none" xmlns="http://www.w3.org/2000/svg">
<path fill-rule="evenodd" clip-rule="evenodd" d="M19.1543 2.00391C20.7394 2.08421 22 3.39489 22 5V19L21.9961 19.1543C21.9184 20.6883 20.6883 21.9184 19.1543 21.9961L19 22H5L4.8457 21.9961C3.31166 21.9184 2.08163 20.6883 2.00391 19.1543L2 19V5C2 3.39489 3.26055 2.08421 4.8457 2.00391L5 2H19L19.1543 2.00391ZM6.40039 15.5547C5.98618 15.5547 5.65039 15.8905 5.65039 16.3047C5.65052 16.7188 5.98626 17.0547 6.40039 17.0547H9.40039C9.81452 17.0547 10.1503 16.7188 10.1504 16.3047C10.1504 15.8905 9.8146 15.5547 9.40039 15.5547H6.40039ZM14.5986 15.5547C14.1844 15.5547 13.8486 15.8905 13.8486 16.3047C13.8488 16.7188 14.1845 17.0547 14.5986 17.0547H17.5986C18.0128 17.0547 18.3485 16.7188 18.3486 16.3047C18.3486 15.8905 18.0128 15.5547 17.5986 15.5547H14.5986ZM12 6.94531C11.5859 6.94531 11.2501 7.28121 11.25 7.69531V10.6953C11.25 11.1095 11.5858 11.4453 12 11.4453C12.414 11.445 12.75 11.1094 12.75 10.6953V7.69531C12.7499 7.28137 12.4139 6.94558 12 6.94531Z" fill="#FAFAFA"/>
</svg>
