<svg width="24" height="24" viewBox="0 0 24 24" fill="none" xmlns="http://www.w3.org/2000/svg">
<path fill-rule="evenodd" clip-rule="evenodd" d="M20.634 6.15088C20.8414 6.15083 21.0462 6.19873 21.2327 6.28955C21.3727 6.35784 21.5 6.44946 21.6086 6.56006L21.7112 6.67627L21.8 6.8042C21.8539 6.89228 21.8972 6.98654 21.9299 7.08447L21.9709 7.23486L21.9944 7.38818C22.009 7.54264 21.9973 7.69893 21.9592 7.8501L21.6506 9.08252C21.5768 9.378 21.4062 9.64012 21.1662 9.82764C20.956 9.99181 20.7029 10.0908 20.4387 10.1128L20.3254 10.1177H19.636L20.9993 16.9321C21.0803 17.338 20.8171 17.7334 20.4114 17.8149C20.0055 17.896 19.6101 17.6328 19.5286 17.2271L19.1672 15.4224L12.0354 10.7935L4.82054 15.4302L4.45824 17.2466C4.37678 17.6525 3.98143 17.9157 3.57543 17.8345C3.16973 17.7529 2.90644 17.3575 2.98754 16.9517L4.35472 10.1177H3.67504C3.37039 10.1176 3.07429 10.0152 2.83422 9.82764C2.59434 9.64011 2.42359 9.37792 2.34984 9.08252L2.04125 7.8501L2.01195 7.69775C1.99141 7.54406 1.99739 7.38733 2.02953 7.23486L2.07054 7.08447C2.11957 6.93755 2.1936 6.79901 2.28929 6.67627L2.39183 6.56006C2.50044 6.44945 2.62782 6.35787 2.76781 6.28955L2.91039 6.229C3.05633 6.17736 3.21088 6.15187 3.36644 6.15186L20.634 6.15088ZM5.88402 10.1177L5.22972 13.3843L10.3127 10.1177H5.88402ZM13.7483 10.1177L18.7561 13.3677L18.1067 10.1177H13.7483Z" fill="#FAFAFA"/>
</svg>
