<svg width="24" height="24" viewBox="0 0 24 24" fill="none" xmlns="http://www.w3.org/2000/svg">
<path d="M2 18.25C2.41421 18.25 2.75 18.5858 2.75 19V21.25H5L5.07715 21.2539C5.45512 21.2925 5.75 21.6118 5.75 22C5.75 22.3882 5.45512 22.7075 5.07715 22.7461L5 22.75H2C1.58579 22.75 1.25 22.4142 1.25 22V19C1.25 18.5858 1.58579 18.25 2 18.25Z" fill="#FAFAFA"/>
<path d="M22 18.25C22.4142 18.25 22.75 18.5858 22.75 19V22C22.75 22.4142 22.4142 22.75 22 22.75H19C18.5858 22.75 18.25 22.4142 18.25 22C18.25 21.5858 18.5858 21.25 19 21.25H21.25V19C21.25 18.5858 21.5858 18.25 22 18.25Z" fill="#FAFAFA"/>
<path fill-rule="evenodd" clip-rule="evenodd" d="M11.6611 5.33105C11.8741 5.2233 12.1259 5.2233 12.3389 5.33105C14.1294 6.23728 15.7416 7.86483 16.6201 9.72949C16.8221 10.1587 16.7274 10.6108 16.4775 10.9248C16.246 11.2157 15.892 11.383 15.5156 11.3955C16.2669 12.2992 16.861 13.196 17.5947 14.4795C18.0536 15.2823 17.466 16.107 16.7236 16.2393C15.8575 16.3938 14.2299 16.6526 12.75 16.7266V18C12.75 18.4142 12.4142 18.75 12 18.75C11.5858 18.75 11.25 18.4142 11.25 18V16.7275C9.77008 16.6536 8.14256 16.3938 7.27637 16.2393C6.53406 16.107 5.94637 15.2823 6.40527 14.4795C7.13885 13.1962 7.73235 12.2991 8.4834 11.3955C8.10738 11.3827 7.75382 11.2155 7.52246 10.9248C7.27263 10.6108 7.1779 10.1587 7.37988 9.72949L7.55371 9.38281C8.4612 7.6642 9.98244 6.18069 11.6611 5.33105Z" fill="#FAFAFA"/>
<path d="M5.07715 1.25391C5.45512 1.29253 5.75 1.61183 5.75 2C5.75 2.38817 5.45512 2.70747 5.07715 2.74609L5 2.75H2.75V5C2.75 5.41421 2.41421 5.75 2 5.75C1.58579 5.75 1.25 5.41421 1.25 5V2L1.25391 1.92285C1.29253 1.54488 1.61183 1.25 2 1.25H5L5.07715 1.25391Z" fill="#FAFAFA"/>
<path d="M22.0771 1.25391C22.4551 1.29253 22.75 1.61183 22.75 2V5C22.75 5.41421 22.4142 5.75 22 5.75C21.5858 5.75 21.25 5.41421 21.25 5V2.75H19C18.5858 2.75 18.25 2.41421 18.25 2C18.25 1.58579 18.5858 1.25 19 1.25H22L22.0771 1.25391Z" fill="#FAFAFA"/>
</svg>
