<svg width="24" height="24" viewBox="0 0 24 24" fill="none" xmlns="http://www.w3.org/2000/svg">
<path d="M3.99756 16.7656C5.23565 16.7662 6.2401 17.7699 6.24023 19.0083C6.23985 20.2464 5.23571 21.2518 3.99756 21.2524C2.75898 21.2524 1.7538 20.2467 1.75342 19.0083C1.75355 17.7696 2.75893 16.7656 3.99756 16.7656Z" fill="#FAFAFA"/>
<path d="M15.4087 18.2627C15.7866 18.3013 16.0824 18.6202 16.0825 19.0083C16.0823 19.3962 15.7865 19.7168 15.4087 19.7554L15.3325 19.7583H9.33252C8.91858 19.7582 8.58278 19.4222 8.58252 19.0083C8.58265 18.5943 8.9185 18.2584 9.33252 18.2583H15.3325L15.4087 18.2627Z" fill="#FAFAFA"/>
<path d="M3.99756 9.75928C5.23581 9.75988 6.24023 10.7636 6.24023 12.002C6.23976 13.2399 5.23563 14.244 3.99756 14.2446C2.75908 14.2446 1.75389 13.2403 1.75342 12.002C1.75342 10.7632 2.75879 9.75928 3.99756 9.75928Z" fill="#FAFAFA"/>
<path d="M21.5757 11.2549C21.9539 11.2932 22.2494 11.6122 22.2495 12.0005C22.2495 12.3889 21.954 12.7093 21.5757 12.7476L21.4995 12.7505H9.33252C8.91842 12.7504 8.58252 12.4146 8.58252 12.0005C8.58265 11.5865 8.9185 11.2506 9.33252 11.2505H21.4995L21.5757 11.2549Z" fill="#FAFAFA"/>
<path d="M3.99316 2.75C5.2317 2.75021 6.23584 3.75545 6.23584 4.99414C6.23559 6.2327 5.23171 7.23661 3.99316 7.23682C2.75455 7.23682 1.74928 6.23286 1.74902 4.99414C1.74902 3.75532 2.75445 2.75 3.99316 2.75Z" fill="#FAFAFA"/>
<path d="M21.5757 4.24854C21.954 4.28684 22.2495 4.60574 22.2495 4.99414C22.2491 5.38221 21.9537 5.70147 21.5757 5.73975L21.4995 5.74414H9.33252C8.91866 5.74401 8.58292 5.40794 8.58252 4.99414C8.58252 4.58001 8.91842 4.24427 9.33252 4.24414H21.4995L21.5757 4.24854Z" fill="#FAFAFA"/>
</svg>
