<svg width="24" height="24" viewBox="0 0 24 24" fill="none" xmlns="http://www.w3.org/2000/svg">
<path fill-rule="evenodd" clip-rule="evenodd" d="M13.6162 2.71875C14.0302 2.71901 14.3662 3.05568 14.3662 3.46973C14.3659 3.88355 14.03 4.21946 13.6162 4.21973H11.4795V6.57031H15.7051C16.8415 6.57031 17.7627 7.49153 17.7627 8.62793V10.1855H20.5C20.9142 10.1855 21.2499 10.5214 21.25 10.9355V13.2949C21.2496 13.7088 20.914 14.0449 20.5 14.0449H17.7627V15.6025C17.7623 16.7387 16.8413 17.6602 15.7051 17.6602H13.668V19.6621C13.668 19.702 13.6642 19.7411 13.6582 19.7793H18.75C19.1642 19.7793 19.5 20.1151 19.5 20.5293C19.4997 20.9433 19.1641 21.2793 18.75 21.2793H2.75C2.33595 21.2793 2.00026 20.9433 2 20.5293C2 20.1151 2.33579 19.7793 2.75 19.7793H8.10059C8.09459 19.7411 8.0918 19.702 8.0918 19.6621V17.6602H6.9873C4.64734 17.6602 2.75026 15.7628 2.75 13.4229V10.8076C2.75 8.46749 4.64718 6.57031 6.9873 6.57031H9.97949V4.21973H7.8418C7.42775 4.21973 7.09206 3.88372 7.0918 3.46973C7.0918 3.05551 7.42758 2.71875 7.8418 2.71875H13.6162ZM7.72852 9.61523C7.31446 9.61523 6.97878 9.95027 6.97852 10.3643V13.8643C6.97852 14.2785 7.3143 14.6152 7.72852 14.6152C8.14257 14.6152 8.47825 14.2792 8.47852 13.8652V10.3652C8.47852 9.95102 8.14273 9.61523 7.72852 9.61523ZM10.7285 9.61523C10.3145 9.61523 9.97878 9.95027 9.97852 10.3643V13.8643C9.97852 14.2785 10.3143 14.6152 10.7285 14.6152C11.1426 14.6152 11.4783 14.2792 11.4785 13.8652V10.3652C11.4785 9.95102 11.1427 9.61523 10.7285 9.61523ZM13.7285 9.61523C13.3145 9.61523 12.9788 9.95027 12.9785 10.3643V13.8643C12.9785 14.2785 13.3143 14.6152 13.7285 14.6152C14.1426 14.6152 14.4783 14.2792 14.4785 13.8652V10.3652C14.4785 9.95102 14.1427 9.61523 13.7285 9.61523Z" fill="#FAFAFA"/>
</svg>
