<svg width="24" height="24" viewBox="0 0 24 24" fill="none" xmlns="http://www.w3.org/2000/svg">
<path d="M6.64453 6.46484C7.02157 6.29361 7.46632 6.45994 7.6377 6.83691C7.80875 7.21393 7.64162 7.65878 7.26465 7.83008L4.5625 9.05762L11.25 12.0957V22.1543L2.43945 18.1494C2.17199 18.0278 2.00023 17.7606 2 17.4668V9.05762C2 9.02589 2.00194 8.99393 2.00586 8.96289L2.01074 8.93359C2.01127 8.93048 2.01211 8.92693 2.0127 8.92383C2.02877 8.83508 2.0609 8.75043 2.10645 8.67383C2.11012 8.66766 2.11431 8.66134 2.11816 8.65527C2.16528 8.58115 2.22549 8.5152 2.29688 8.46094C2.30714 8.45315 2.31739 8.44481 2.32812 8.4375C2.33327 8.434 2.33851 8.43015 2.34375 8.42676C2.34786 8.42411 2.35229 8.4215 2.35645 8.41895C2.37339 8.40854 2.39118 8.39882 2.40918 8.38965C2.41692 8.3857 2.42478 8.38159 2.43262 8.37793C2.4348 8.37691 2.43725 8.37599 2.43945 8.375L6.64453 6.46484Z" fill="#FAFAFA"/>
<path d="M16.3623 6.83691C16.5338 6.46003 16.9785 6.29355 17.3555 6.46484L21.5596 8.375L21.5625 8.37598C21.5764 8.38237 21.5899 8.39018 21.6035 8.39746C21.6147 8.40344 21.626 8.40954 21.6367 8.41602C21.643 8.41978 21.6501 8.42278 21.6562 8.42676C21.664 8.43178 21.6712 8.4381 21.6787 8.44336C21.6847 8.44758 21.6904 8.45267 21.6963 8.45703C21.7704 8.51217 21.8333 8.57899 21.8818 8.65527C21.8856 8.66121 21.889 8.66781 21.8926 8.67383C21.9382 8.7505 21.9702 8.83498 21.9863 8.92383C21.9873 8.92888 21.9884 8.93437 21.9893 8.93945C21.9954 8.97812 22 9.01779 22 9.05762V17.4668C21.9998 17.7606 21.828 18.0278 21.5605 18.1494L12.75 22.1543V12.0957L19.4355 9.05762L16.7344 7.83008C16.3576 7.65867 16.1913 7.21383 16.3623 6.83691Z" fill="#FAFAFA"/>
<path d="M12.1328 1.59277C12.1373 1.59358 12.142 1.59383 12.1465 1.59473C12.1662 1.59865 12.185 1.6059 12.2041 1.61133C12.2315 1.6191 12.2596 1.62575 12.2861 1.63672C12.337 1.65775 12.3842 1.68562 12.4287 1.7168C12.4639 1.74145 12.4989 1.76841 12.5303 1.7998L14.9766 4.24609C15.2689 4.53894 15.2691 5.01387 14.9766 5.30664C14.6838 5.59914 14.2089 5.59902 13.916 5.30664L12.75 4.14062V9.05762C12.7497 9.47161 12.4141 9.80762 12 9.80762C11.5859 9.80762 11.2503 9.47161 11.25 9.05762V4.14062L10.084 5.30664C9.7912 5.59896 9.31622 5.59896 9.02344 5.30664C8.73087 5.01388 8.73103 4.53896 9.02344 4.24609L11.4697 1.7998C11.5182 1.75137 11.5731 1.71305 11.6299 1.68066C11.6554 1.66606 11.6807 1.65025 11.708 1.63867L11.7178 1.63477C11.7482 1.62246 11.78 1.61459 11.8115 1.60645C11.8246 1.60305 11.8373 1.59744 11.8506 1.59473C11.8561 1.59362 11.8617 1.59278 11.8672 1.5918C11.9103 1.58409 11.9547 1.5791 12 1.5791C12.0454 1.5791 12.0897 1.58505 12.1328 1.59277Z" fill="#FAFAFA"/>
</svg>
