<svg width="24" height="24" viewBox="0 0 24 24" fill="none" xmlns="http://www.w3.org/2000/svg">
<path fill-rule="evenodd" clip-rule="evenodd" d="M3.74277 11.4038C4.12278 11.4038 4.43085 11.7118 4.43085 12.0918C4.43085 12.7252 4.94429 13.2386 5.57765 13.2386H20.2567C20.6367 13.2386 20.9448 13.5467 20.9448 13.9267C20.9448 14.3067 20.6367 14.6148 20.2567 14.6148H18.6153C18.6383 14.7235 18.6511 14.8371 18.6512 14.9552V18.0355C18.6511 18.1413 18.6401 18.2436 18.6216 18.3419C19.5409 18.4415 20.2567 19.2193 20.2567 20.1651C20.2567 21.1785 19.4352 22 18.4218 22C17.4084 22 16.5869 21.1785 16.5869 20.1651C16.5869 19.9675 16.6187 19.7773 16.6765 19.5989C16.5088 19.5586 16.3425 19.4903 16.1837 19.3892L12.9172 17.3098L9.65058 19.3892C9.49151 19.4905 9.32489 19.5587 9.15691 19.5989C9.2148 19.7773 9.2474 19.9674 9.2474 20.1651C9.2474 21.1785 8.4259 22 7.41252 22C6.39915 22 5.57765 21.1785 5.57765 20.1651C5.57765 19.2196 6.29291 18.4419 7.21183 18.3419C7.19332 18.2436 7.18319 18.1413 7.18316 18.0355V14.9552C7.1832 14.8371 7.19605 14.7235 7.219 14.6148H5.57765C4.18425 14.6148 3.05469 13.4852 3.05469 12.0918C3.05469 11.7118 3.36275 11.4038 3.74277 11.4038ZM7.41252 19.7064C7.15918 19.7064 6.9538 19.9118 6.9538 20.1651C6.9538 20.4185 7.15918 20.6238 7.41252 20.6238C7.66587 20.6238 7.87124 20.4185 7.87124 20.1651C7.87124 19.9118 7.66587 19.7064 7.41252 19.7064ZM18.4218 19.7064C18.1685 19.7064 17.9631 19.9118 17.9631 20.1651C17.9631 20.4185 18.1685 20.6238 18.4218 20.6238C18.6751 20.6238 18.8805 20.4185 18.8805 20.1651C18.8805 19.9118 18.6751 19.7064 18.4218 19.7064ZM8.91143 14.7617C8.75893 14.6652 8.55967 14.7747 8.55932 14.9552V18.0355C8.55958 18.2161 8.75889 18.3256 8.91143 18.229L11.6351 16.4954L8.91143 14.7617ZM17.275 14.9552C17.2746 14.7747 17.0754 14.6652 16.9229 14.7617L14.1984 16.4954L16.9229 18.229C17.0754 18.3256 17.2747 18.2161 17.275 18.0355V14.9552ZM11.2427 14.6148L12.9172 15.6801L14.5917 14.6148H11.2427Z" fill="#FAFAFA"/>
<path fill-rule="evenodd" clip-rule="evenodd" d="M16.2707 2C16.7608 2.00021 17.1584 2.39016 17.1585 2.87085V4.06513H17.2356C18.3971 4.06526 19.3392 4.98861 19.3392 6.12758V11.0776C19.339 11.5076 18.9831 11.856 18.5445 11.8562H7.28889C6.85053 11.8558 6.49528 11.5075 6.49509 11.0776V6.12758C6.49509 4.98853 7.43714 4.06513 8.59875 4.06513H8.6749V2.87085C8.67504 2.39003 9.0733 2 9.56367 2H16.2707ZM10.3198 10.4818H15.5145V9.79376H10.3198V10.4818ZM16.2321 6.45012C15.8938 6.45019 15.6193 6.72402 15.6193 7.06204C15.6194 7.40004 15.8938 7.67389 16.2321 7.67397C16.5705 7.67397 16.8449 7.40009 16.8449 7.06204C16.8449 6.72398 16.5705 6.45012 16.2321 6.45012ZM10.077 4.06513H15.7564V3.37526H10.077V4.06513Z" fill="#FAFAFA"/>
</svg>
