<svg width="24" height="24" viewBox="0 0 24 24" fill="none" xmlns="http://www.w3.org/2000/svg">
<path d="M12.0186 4.00098C14.6294 4.001 17.0219 4.31848 18.7861 4.84961C19.6634 5.11372 20.4282 5.44368 20.9902 5.84375C21.5317 6.22925 22.037 6.79389 22.0371 7.54883C22.037 8.30398 21.5318 8.86936 20.9902 9.25488C20.4281 9.65497 19.6634 9.9849 18.7861 10.249C17.2024 10.7258 15.1122 11.0276 12.8125 11.085L12.8213 15.6123L17.834 19.6484C18.1578 19.9092 18.2118 20.3864 17.9541 20.7139C17.696 21.0411 17.2233 21.0957 16.8994 20.835L12.0684 16.9443L7.14941 20.8389C6.82333 21.0965 6.35193 21.0384 6.09668 20.709C5.84147 20.3794 5.89955 19.9026 6.22559 19.6445L11.3213 15.6084L11.3125 11.0869C8.97822 11.0352 6.85485 10.7318 5.25098 10.249C4.37379 9.98494 3.60895 9.6549 3.04688 9.25488C2.50525 8.86936 2.00011 8.30402 2 7.54883C2.00014 6.79374 2.50532 6.22926 3.04688 5.84375C3.60896 5.44367 4.37369 5.11373 5.25098 4.84961C7.01521 4.31853 9.4078 4.00098 12.0186 4.00098Z" fill="#FAFAFA"/>
</svg>
