<svg width="24" height="24" viewBox="0 0 24 24" fill="none" xmlns="http://www.w3.org/2000/svg">
<path fill-rule="evenodd" clip-rule="evenodd" d="M7.84574 7C8.06665 7 8.24224 7.1802 8.26957 7.39941C8.35626 8.09462 8.66735 8.36556 8.89262 8.59082C9.27092 8.96912 9.9247 9.60191 10.3301 9.99316C10.4595 10.1183 10.3705 10.3379 10.1905 10.3379H6.33109C5.91711 10.3381 5.58123 10.6739 5.58109 11.0879C5.58113 11.502 5.91705 11.8377 6.33109 11.8379H17.6348C18.049 11.8379 18.3848 11.5021 18.3848 11.0879C18.3847 10.6738 18.0489 10.3379 17.6348 10.3379H13.8897C13.6961 10.3374 13.6067 10.0767 13.75 9.94629C14.2162 9.52236 14.6366 9.02846 15.0743 8.59082C15.2996 8.36551 15.6098 8.09463 15.6963 7.39941C15.7236 7.18022 15.8993 7.00004 16.1202 7H19.9834L20.1875 7.01074C21.1961 7.113 21.9833 7.96446 21.9834 9V9.70215C22.524 9.71065 22.9616 10.1488 22.9668 10.6924L23 17.2705C23.0049 17.8226 22.561 18.2743 22.0088 18.2793C22.0004 18.2793 21.9918 18.2785 21.9834 18.2783V19C21.9833 20.0355 21.1961 20.887 20.1875 20.9893L19.9834 21H3.98344C2.94805 20.9998 2.09657 20.2125 1.99418 19.2041L1.98344 19V18.2783C1.44319 18.2695 1.00531 17.8324 1.00004 17.2891L0.966837 10.7109C0.961944 10.1589 1.40606 9.70739 1.95805 9.70215C1.9664 9.70207 1.97513 9.70202 1.98344 9.70215V9C1.98357 7.89566 2.87912 7.0002 3.98344 7H7.84574ZM6.33109 16.1621C5.91711 16.1623 5.58123 16.4981 5.58109 16.9121C5.58139 17.326 5.91721 17.6619 6.33109 17.6621H17.6348C18.0488 17.6621 18.3845 17.3261 18.3848 16.9121C18.3847 16.498 18.0489 16.1621 17.6348 16.1621H6.33109ZM6.33109 13.25C5.91711 13.2502 5.58123 13.586 5.58109 14C5.58126 14.414 5.91713 14.7498 6.33109 14.75H17.6348C18.0489 14.75 18.3846 14.4141 18.3848 14C18.3847 13.5859 18.0489 13.25 17.6348 13.25H6.33109Z" fill="#FAFAFA"/>
<path d="M10 2.75C11.5188 2.75 12.75 3.98122 12.75 5.5V6.68945L12.9698 6.46973C13.2627 6.17684 13.7374 6.17685 14.0303 6.46973C14.3232 6.76262 14.3232 7.23738 14.0303 7.53027L12.5303 9.03027C12.4817 9.07888 12.4261 9.11597 12.3692 9.14844C12.342 9.16394 12.3153 9.18032 12.2862 9.19238C12.2541 9.20562 12.2208 9.21406 12.1875 9.22266C12.1744 9.22605 12.1619 9.23168 12.1485 9.23438C12.143 9.23549 12.1374 9.23632 12.1319 9.2373C12.089 9.24491 12.0451 9.25 12 9.25C11.955 9.25 11.9111 9.24492 11.8682 9.2373C11.8624 9.23626 11.8565 9.23556 11.8506 9.23438C11.8372 9.23167 11.8247 9.22607 11.8116 9.22266C11.7783 9.21402 11.745 9.20565 11.7129 9.19238C11.6626 9.1715 11.6154 9.14508 11.5713 9.11426C11.5358 9.08943 11.5014 9.06196 11.4698 9.03027L9.96977 7.53027C9.6769 7.23739 9.6769 6.76261 9.96977 6.46973C10.2627 6.17684 10.7374 6.17685 11.0303 6.46973L11.25 6.68945V5.5C11.25 4.80964 10.6904 4.25 10 4.25H8.00004C7.58584 4.24998 7.25004 3.9142 7.25004 3.5C7.25004 3.0858 7.58584 2.75002 8.00004 2.75H10Z" fill="#FAFAFA"/>
</svg>
