<svg width="24" height="24" viewBox="0 0 24 24" fill="none" xmlns="http://www.w3.org/2000/svg">
<path d="M20.8703 8.93832C21.0375 11.2436 21.0463 13.2842 20.8778 15.5776L20.7787 16.7489C20.7598 16.9471 20.664 17.1314 20.5123 17.2602L20.4431 17.312C18.0679 18.901 15.9979 20.0221 13.5394 20.965C13.1877 21.0999 12.8176 20.8278 12.8176 20.4398V12.4184C12.8176 12.2009 12.9386 12.0027 13.1284 11.9091L20.0921 8.4767C20.4361 8.30715 20.8379 8.54566 20.8703 8.93832Z" fill="#FAFAFA"/>
<path d="M10.8704 11.9091C11.0602 12.0027 11.1811 12.2008 11.1811 12.4183V20.4387C11.1811 20.8267 10.811 21.0988 10.4593 20.964C8.37977 20.1668 6.57789 19.2436 4.63494 18.0151L3.55563 17.312C3.38845 17.1998 3.27421 17.026 3.23386 16.8327L3.22108 16.7489C2.95491 13.9555 2.9347 11.6249 3.13019 8.93247C3.15868 8.54019 3.55992 8.30315 3.90324 8.47249L10.8704 11.9091Z" fill="#FAFAFA"/>
<path d="M16.1407 4.97999C16.2931 4.89677 16.4744 4.89284 16.6295 4.97056C17.4066 5.36002 18.1488 5.76378 18.9178 6.22555C19.2911 6.44976 19.2622 7.0103 18.8725 7.20237L12.2331 10.4744C12.0846 10.5476 11.912 10.5476 11.7636 10.4743L9.75782 9.48481C9.35289 9.28503 9.3413 8.69355 9.73819 8.4772C10.0641 8.29957 10.4151 8.10815 10.7837 7.90689C12.4372 7.0039 14.4481 5.90445 16.1407 4.97999Z" fill="#FAFAFA"/>
<path d="M12.0697 3.01093L12.5896 3.19496C12.8722 3.2984 13.1519 3.40676 13.4284 3.51839C13.8565 3.69125 13.8822 4.29959 13.4759 4.52159C12.2955 5.16646 11.0829 5.82928 10.0187 6.41045C9.09133 6.91687 8.27588 7.36257 7.69279 7.68099C7.40153 7.84005 7.16726 7.96794 7.00664 8.05566C6.96261 8.07969 6.90985 8.08008 6.86491 8.05792L4.62928 6.95588C4.45379 6.86937 4.4395 6.6167 4.60404 6.50962C6.99079 4.99797 9.15878 3.94269 11.8862 3.0232C11.9103 3.01506 11.9352 3.00889 11.9603 3.00481C11.9849 3.00082 12.0099 2.99784 12.0344 3.00203C12.0465 3.00411 12.0584 3.00714 12.0697 3.01093Z" fill="#FAFAFA"/>
</svg>
