<svg width="24" height="24" viewBox="0 0 24 24" fill="none" xmlns="http://www.w3.org/2000/svg">
<path fill-rule="evenodd" clip-rule="evenodd" d="M5.5 4C6.60457 4 7.5 4.89543 7.5 6H9.5C10.6046 6 11.5 6.89543 11.5 8V9C11.5 11.4189 9.78219 13.4361 7.5 13.8994V18C7.5 19.1046 6.60457 20 5.5 20H4.5C3.39543 20 2.5 19.1046 2.5 18V6C2.5 4.89543 3.39543 4 4.5 4H5.5ZM7.5 12.874C9.22523 12.43 10.5 10.8638 10.5 9V8C10.5 7.44772 10.0523 7 9.5 7H7.5V12.874ZM4.5 6C4.22386 6 4 6.22386 4 6.5C4 6.77614 4.22386 7 4.5 7H5.5C5.77614 7 6 6.77614 6 6.5C6 6.22386 5.77614 6 5.5 6H4.5Z" fill="#FAFAFA"/>
<path fill-rule="evenodd" clip-rule="evenodd" d="M19.5 4C20.6046 4 21.5 4.89543 21.5 6V18C21.5 19.1046 20.6046 20 19.5 20H18.5C17.3954 20 16.5 19.1046 16.5 18V13.8994C14.2178 13.4361 12.5 11.4189 12.5 9V8C12.5 6.89543 13.3954 6 14.5 6H16.5C16.5 4.89543 17.3954 4 18.5 4H19.5ZM14.5 7C13.9477 7 13.5 7.44772 13.5 8V9C13.5 10.8638 14.7748 12.43 16.5 12.874V7H14.5ZM18.5 6C18.2239 6 18 6.22386 18 6.5C18 6.77614 18.2239 7 18.5 7H19.5C19.7761 7 20 6.77614 20 6.5C20 6.22386 19.7761 6 19.5 6H18.5Z" fill="#FAFAFA"/>
</svg>
