<svg width="24" height="24" viewBox="0 0 24 24" fill="none" xmlns="http://www.w3.org/2000/svg">
<path d="M6.19043 4.68262C6.76574 4.72273 7.32468 4.90162 7.81738 5.20605C8.38037 5.55408 8.83571 6.05259 9.13184 6.64453L10.999 10.3799H13.4111C14.3569 10.3799 15.2639 10.7561 15.9326 11.4248C16.6009 12.0934 16.9765 13 16.9766 13.9453V16.085C16.9764 16.6521 16.7515 17.1965 16.3506 17.5977C15.9495 17.9987 15.4051 18.2245 14.8379 18.2246H13.3164C13.1899 18.7132 12.9382 19.1653 12.5752 19.5283C12.0403 20.0631 11.315 20.3642 10.5586 20.3643C9.8021 20.3643 9.07599 20.0632 8.54102 19.5283C8.17811 19.1653 7.92632 18.7131 7.7998 18.2246H2.71289C2.31936 18.2244 2.00036 17.9052 2 17.5117V11.0928C2.00002 10.699 2.31915 10.38 2.71289 10.3799H9.4043L7.85645 7.28223C7.6788 6.92724 7.405 6.62868 7.06738 6.41992C6.77166 6.23721 6.43612 6.13047 6.09082 6.10645L5.94238 6.10059H2.71289C2.31944 6.10042 2.00048 5.78107 2 5.3877C2 4.99391 2.31914 4.67399 2.71289 4.67383H5.94336L6.19043 4.68262ZM10.5586 16.085C10.1803 16.085 9.8173 16.2355 9.5498 16.5029C9.28245 16.7704 9.13184 17.1335 9.13184 17.5117L9.13965 17.6523C9.1722 17.9786 9.3159 18.2866 9.5498 18.5205C9.81726 18.7877 10.1805 18.9375 10.5586 18.9375C10.9365 18.9374 11.299 18.7875 11.5664 18.5205C11.8337 18.2532 11.9842 17.8898 11.9844 17.5117C11.9844 17.1335 11.8338 16.7704 11.5664 16.5029C11.299 16.2357 10.9367 16.085 10.5586 16.085ZM21.2871 10.3799C21.6807 10.3802 22 10.6991 22 11.0928C21.9998 11.4863 21.6806 11.8054 21.2871 11.8057H19.1475C18.7537 11.8057 18.4338 11.4864 18.4336 11.0928C18.4336 10.6989 18.7536 10.3799 19.1475 10.3799H21.2871ZM18.9023 6.0498C19.1808 5.77135 19.6316 5.77149 19.9102 6.0498C20.1887 6.32832 20.1887 6.7791 19.9102 7.05762L18.3975 8.57031C18.1189 8.84869 17.6681 8.84878 17.3896 8.57031C17.1114 8.29182 17.1113 7.84096 17.3896 7.5625L18.9023 6.0498ZM14.8682 3.95996C15.2618 3.96013 15.5809 4.28016 15.5811 4.67383V6.81348C15.5808 7.20704 15.2618 7.5262 14.8682 7.52637C14.4744 7.52637 14.1555 7.20715 14.1553 6.81348V4.67383C14.1554 4.28006 14.4744 3.95996 14.8682 3.95996Z" fill="#FAFAFA"/>
</svg>
