<svg width="24" height="24" viewBox="0 0 24 24" fill="none" xmlns="http://www.w3.org/2000/svg">
<path fill-rule="evenodd" clip-rule="evenodd" d="M11.9998 2C13.4271 2 14.538 2.07062 15.3638 2.15722C16.811 2.30901 17.7883 3.49966 17.8539 4.88337C17.9222 6.32311 17.9956 8.64951 17.9956 12C17.9956 15.3505 17.9222 17.6769 17.8539 19.1166C17.7883 20.5004 16.811 21.691 15.3638 21.8428C14.538 21.9294 13.4271 22 11.9998 22C10.5725 22 9.46156 21.9294 8.63578 21.8428C7.18853 21.691 6.2113 20.5004 6.14566 19.1166C6.07735 17.6769 6.00398 15.3505 6.00398 12C6.00398 8.64951 6.07735 6.32311 6.14566 4.88337C6.2113 3.49966 7.18853 2.309 8.63578 2.15722C9.46156 2.07062 10.5725 2 11.9998 2ZM13.7763 6.22222C13.7763 5.24038 12.9809 4.44444 11.9998 4.44444C11.0187 4.44444 10.2232 5.24038 10.2232 6.22222C10.2232 7.20404 11.0187 8 11.9998 8C12.9809 8 13.7763 7.20404 13.7763 6.22222ZM13.7763 12C13.7763 11.0182 12.9809 10.2222 11.9998 10.2222C11.0187 10.2222 10.2232 11.0182 10.2232 12C10.2232 12.9818 11.0187 13.7778 11.9998 13.7778C12.9809 13.7778 13.7763 12.9818 13.7763 12ZM11.9998 16C12.9809 16 13.7763 16.796 13.7763 17.7778C13.7763 18.7596 12.9809 19.5556 11.9998 19.5556C11.0187 19.5556 10.2232 18.7596 10.2232 17.7778C10.2232 16.796 11.0187 16 11.9998 16ZM18.9632 4.83081C18.9985 5.57401 19.0349 6.54707 19.0621 7.76809C19.2008 7.76422 19.321 7.75951 19.4247 7.75431C19.8707 7.73209 20.2572 7.47533 20.4489 7.0708C20.6198 6.71022 20.8341 6.18929 20.9702 5.60638C21.1426 4.86812 20.5409 4.2738 19.8451 4.25034C19.5616 4.24078 19.2363 4.23208 18.8901 4.227C18.9289 4.42507 18.9536 4.62691 18.9632 4.83081ZM19.1061 12.0001C19.1061 12.5412 19.1042 13.0559 19.1007 13.5448C19.2233 13.5411 19.3307 13.5368 19.4247 13.5321C19.8707 13.5099 20.2572 13.2531 20.4489 12.8486C20.6198 12.488 20.8341 11.9671 20.9702 11.3841C21.1426 10.6459 20.5409 10.0516 19.8451 10.0281C19.6188 10.0205 19.3659 10.0134 19.097 10.0083C19.1029 10.6277 19.1061 11.2912 19.1061 12.0001ZM18.9528 19.3264C18.9572 19.2742 18.9607 19.2219 18.9632 19.1694C19.0027 18.3378 19.0436 17.2183 19.0715 15.7856C19.3499 15.7908 19.6117 15.798 19.8451 15.8059C20.5409 15.8293 21.1426 16.4237 20.9702 17.1619C20.8341 17.7448 20.6198 18.2658 20.4489 18.6264C20.2572 19.0309 19.8707 19.2876 19.4247 19.3099C19.2946 19.3164 19.1388 19.3222 18.9528 19.3264ZM5.03675 19.1694C4.9973 18.3378 4.95638 17.2183 4.92848 15.7856C4.65006 15.7908 4.38835 15.798 4.15488 15.8059C3.45913 15.8293 2.85742 16.4237 3.02981 17.1619C3.16591 17.7448 3.38023 18.2658 3.5511 18.6264C3.74283 19.0309 4.12931 19.2876 4.57533 19.3099C4.70535 19.3164 4.86121 19.3222 5.04717 19.3264C5.04272 19.2742 5.03925 19.2219 5.03675 19.1694ZM4.90291 10.0083C4.8971 10.6277 4.89384 11.2912 4.89384 12.0001C4.89384 12.5412 4.89574 13.0559 4.89922 13.5448C4.7767 13.5411 4.66927 13.5368 4.57533 13.5321C4.12931 13.5099 3.74283 13.2531 3.5511 12.8486C3.38023 12.488 3.16591 11.9671 3.02981 11.3841C2.85742 10.6459 3.45913 10.0516 4.15488 10.0281C4.38119 10.0205 4.63403 10.0134 4.90291 10.0083ZM5.03675 4.83081C5.04643 4.6269 5.07102 4.42507 5.10983 4.227C4.76363 4.23208 4.43843 4.24078 4.15488 4.25034C3.45913 4.2738 2.85742 4.86812 3.02981 5.60638C3.16591 6.18929 3.38023 6.71022 3.5511 7.0708C3.74283 7.47533 4.12931 7.73209 4.57533 7.75431C4.679 7.75951 4.79912 7.76422 4.93781 7.76809C4.96507 6.54707 5.0015 5.57401 5.03675 4.83081Z" fill="#FAFAFA"/>
</svg>
