<svg width="24" height="24" viewBox="0 0 24 24" fill="none" xmlns="http://www.w3.org/2000/svg">
<path d="M22.0771 6.74609C22.4551 6.70747 22.75 6.38817 22.75 6C22.75 5.61183 22.4551 5.29253 22.0771 5.25391L22 5.25H2C1.58579 5.25 1.25 5.58579 1.25 6C1.25 6.41421 1.58579 6.75 2 6.75H22L22.0771 6.74609Z" fill="#FAFAFA"/>
<path d="M12 16C16.0803 16 19.4473 12.9453 19.9385 8.99805C20.0067 8.45 19.5523 8.00002 19 8H5C4.44772 8 3.99332 8.44999 4.06152 8.99805C4.55275 12.9453 7.91971 16 12 16Z" fill="#FAFAFA"/>
<path d="M3.4082 18.127C3.6466 18.4334 4.07539 18.5045 4.39746 18.3027L4.46094 18.2588L5.96094 17.0918L6.01855 17.042C6.29349 16.7795 6.33015 16.3456 6.0918 16.0391C5.85333 15.7329 5.4245 15.6625 5.10254 15.8643L5.03906 15.9082L3.53906 17.0742L3.48145 17.125C3.20657 17.3875 3.16982 17.8205 3.4082 18.127Z" fill="#FAFAFA"/>
<path d="M19.4902 18.4395C19.7942 18.7208 20.2694 18.7023 20.5508 18.3984C20.8318 18.0946 20.8133 17.6202 20.5098 17.3389L19.0098 15.9492C18.7059 15.6679 18.2306 15.6864 17.9492 15.9902C17.6679 16.2942 17.6863 16.7694 17.9902 17.0508L19.4902 18.4395Z" fill="#FAFAFA"/>
<path d="M11.7568 20.75C12.1709 20.7499 12.5068 20.4141 12.5068 20V18.2227C12.5068 17.8085 12.1709 17.4728 11.7568 17.4727C11.3426 17.4727 11.0068 17.8084 11.0068 18.2227V20C11.0068 20.4142 11.3426 20.75 11.7568 20.75Z" fill="#FAFAFA"/>
</svg>
