<svg width="24" height="24" viewBox="0 0 24 24" fill="none" xmlns="http://www.w3.org/2000/svg">
<path d="M16.6773 10.9609C16.4012 10.9609 16.1773 11.1848 16.1773 11.4609V13.1985C16.1773 13.4747 15.9535 13.6985 15.6773 13.6985H13.1467C12.8706 13.6985 12.6467 13.9224 12.6467 14.1985V15.4775C12.6467 15.7536 12.4229 15.9775 12.1467 15.9775H10.2076C9.93147 15.9775 9.70761 16.2013 9.70761 16.4775V17.7564C9.70761 18.0326 9.48376 18.2564 9.20761 18.2564H7.26851C6.99237 18.2564 6.76851 18.4803 6.76851 18.7564V20.494C6.76851 20.7702 6.99237 20.994 7.26851 20.994H19.208C19.4841 20.994 19.708 20.7702 19.708 20.494V11.4609C19.708 11.1848 19.4841 10.9609 19.208 10.9609H16.6773Z" fill="#FAFAFA"/>
<path fill-rule="evenodd" clip-rule="evenodd" d="M7.05829 3.38341C7.55433 2.93815 8.16865 2.64501 8.82707 2.54113C9.48542 2.43733 10.1602 2.52643 10.7691 2.79734L10.8366 2.83616C10.8994 2.88067 10.9489 2.94299 10.9769 3.01588C11.0049 3.08894 11.0101 3.16865 10.9931 3.24389L10.9687 3.31724L10.129 5.20332C10.521 5.17254 10.9177 5.20817 11.3011 5.31186C11.9444 5.48594 12.5237 5.84268 12.969 6.33858C13.4142 6.83459 13.7068 7.44929 13.8106 8.10766C13.9144 8.76599 13.8254 9.44079 13.5544 10.0497C13.5119 10.145 13.4333 10.2201 13.3359 10.2575C13.2385 10.2949 13.1299 10.2917 13.0345 10.2493L11.1488 9.41019C11.1794 9.80194 11.1441 10.1983 11.0405 10.5814C10.8664 11.2248 10.5092 11.8043 10.0132 12.2496C9.51721 12.6947 8.903 12.987 8.24471 13.0909C7.58631 13.1947 6.91167 13.1057 6.30268 12.8347C6.20734 12.7923 6.13232 12.7136 6.09486 12.6162C6.0575 12.5188 6.06075 12.4101 6.10312 12.3148L6.94157 10.4293C6.54995 10.46 6.15395 10.4243 5.77097 10.3208C5.12754 10.1468 4.54811 9.78944 4.10282 9.29347C3.65771 8.79754 3.36476 8.18353 3.26085 7.5253C3.15704 6.86701 3.24622 6.19217 3.51706 5.58327L3.55557 5.51512C3.60009 5.45229 3.66268 5.40352 3.7356 5.37545C3.83308 5.33801 3.94156 5.34125 4.03696 5.38371L5.92273 6.22277C5.89202 5.83093 5.92797 5.43445 6.03158 5.05125C6.20562 4.40791 6.56239 3.82867 7.05829 3.38341ZM8.65849 7.03802C8.22911 6.97027 7.82605 7.2636 7.75804 7.69297C7.69009 8.12241 7.98299 8.52562 8.41238 8.59372C8.84193 8.66171 9.24576 8.36862 9.31374 7.93907C9.38162 7.5096 9.08797 7.106 8.65849 7.03802Z" fill="#FAFAFA"/>
</svg>
