<svg width="24" height="24" viewBox="0 0 24 24" fill="none" xmlns="http://www.w3.org/2000/svg">
<path d="M19.167 20.2139L20.2754 21.2949L20.2529 21.3096C19.6114 21.7475 18.8362 22.0038 18.001 22.0039C17.2113 22.0039 16.4747 21.7749 15.8545 21.3799L18.1006 19.1475L19.167 20.2139Z" fill="#FAFAFA"/>
<path d="M9.58203 7.76953H7.75781V6.13574H9.58203V7.76953Z" fill="#FAFAFA"/>
<path d="M12.9131 7.76953H11.082V6.13574H12.9131V7.76953Z" fill="#FAFAFA"/>
<path d="M16.2578 7.76953H14.4131V6.13574H16.2578V7.76953Z" fill="#FAFAFA"/>
<path fill-rule="evenodd" clip-rule="evenodd" d="M17.249 2C18.7671 2.00079 19.9989 3.2318 19.999 4.75V12.8799C19.3798 12.6383 18.7057 12.504 18.001 12.5039C14.9635 12.5039 12.5011 14.9664 12.501 18.0039C12.5012 19.5784 13.1641 20.9974 14.2246 22H6.75293C5.23421 22 4.00205 20.7687 4.00195 19.25V4.75C4.00206 3.23131 5.23421 2 6.75293 2H17.249ZM7.00781 15.5C6.59389 15.5003 6.25792 15.836 6.25781 16.25V18.25C6.25803 18.6639 6.59396 18.9997 7.00781 19C7.42145 18.9995 7.7576 18.6637 7.75781 18.25V16.25C7.75771 15.8362 7.42151 15.5005 7.00781 15.5ZM10.0605 15.5C9.6466 15.5002 9.31065 15.836 9.31055 16.25V18.25C9.31076 18.6639 9.64666 18.9998 10.0605 19C10.4742 18.9995 10.8103 18.6637 10.8105 18.25V16.25C10.8104 15.8362 10.4742 15.5005 10.0605 15.5ZM7.00781 10.001C6.59397 10.0012 6.25804 10.3371 6.25781 10.751C6.25791 11.1649 6.59388 11.5007 7.00781 11.501H17.0078C17.4215 11.5004 17.7577 11.1648 17.7578 10.751C17.7576 10.3373 17.4214 10.0015 17.0078 10.001H7.00781ZM7.20801 4.63574C6.68369 4.63601 6.25802 5.06161 6.25781 5.58594V8.31934C6.25815 8.84356 6.68377 9.26927 7.20801 9.26953H16.8076C17.3316 9.269 17.7575 8.84339 17.7578 8.31934V5.58594C17.7576 5.06177 17.3317 4.63627 16.8076 4.63574H7.20801Z" fill="#FAFAFA"/>
<path d="M15.79 16.8369L17.0332 18.0801L14.7617 20.3516C14.2827 19.6922 14 18.8811 14 18.0039C14 17.1815 14.2481 16.4169 14.6738 15.7812L15.79 16.8369Z" fill="#FAFAFA"/>
<path d="M21.377 15.8574C21.772 16.4775 22.001 17.2142 22.001 18.0039C22.0009 18.8209 21.7555 19.5807 21.335 20.2139L20.2217 19.1465L19.1611 18.0859L21.377 15.8574Z" fill="#FAFAFA"/>
<path d="M18.001 14.0039C18.8779 14.004 19.6893 14.286 20.3486 14.7646L18.0947 17.0186L16.8574 15.7812L15.79 14.6699C16.4235 14.2492 17.1837 14.0039 18.001 14.0039Z" fill="#FAFAFA"/>
</svg>
