<svg width="24" height="24" viewBox="0 0 24 24" fill="none" xmlns="http://www.w3.org/2000/svg">
<path d="M7.35742 9.79622C7.74335 9.64636 8.178 9.83813 8.32812 10.224C8.47801 10.61 8.28638 11.0446 7.90039 11.1947C7.77736 11.2425 7.62163 11.3077 7.50684 11.3587C7.18073 11.5037 6.86682 11.6777 6.67285 11.8343C6.65696 11.8471 6.63994 11.859 6.62305 11.8704C6.29967 12.0904 5.98304 12.3863 5.68164 12.7572C4.48781 14.2263 3.63949 16.7476 3.51562 19.7103H12.6719C12.6422 19.0013 12.5716 18.3144 12.4629 17.6595C12.4042 17.306 12.3345 16.9613 12.2549 16.6283C12.2145 16.4592 12.1705 16.2924 12.125 16.1292L12.124 16.1224C12.0095 15.6981 11.8028 15.1114 11.5059 14.4847C11.4605 14.389 11.4359 14.3232 11.4209 14.2855C11.4113 14.2615 11.4038 14.2423 11.3809 14.1986C11.1883 13.832 11.3289 13.3786 11.6953 13.1859C12.0618 12.9932 12.5151 13.1341 12.708 13.5003C12.7605 13.6001 12.79 13.6685 12.8145 13.7298C12.8334 13.7774 12.8409 13.7969 12.8623 13.8421C13.1951 14.5445 13.4315 15.2132 13.5703 15.7259C13.6208 15.9072 13.6682 16.0919 13.7129 16.2786C13.8009 16.6468 13.8781 17.0261 13.9424 17.4134C14.1029 18.3803 14.1885 19.4041 14.1885 20.4603C14.1884 20.8743 13.8525 21.2101 13.4385 21.2103H2.74805C2.3339 21.2102 1.99808 20.8744 1.99805 20.4603C1.99809 16.9621 2.93664 13.7575 4.51758 11.8118C4.88975 11.3539 5.30369 10.9572 5.75781 10.6449C6.0962 10.3781 6.53245 10.1498 6.89746 9.98763C7.03186 9.9279 7.21009 9.85349 7.35742 9.79622Z" fill="#FAFAFA"/>
<path fill-rule="evenodd" clip-rule="evenodd" d="M8.17188 13.2904C8.25379 13.297 8.32517 13.3143 8.35938 13.3236C8.44268 13.3461 8.53427 13.3796 8.61914 13.4144C8.76551 13.4744 8.97638 13.5776 9.15723 13.7122L9.1582 13.7103C9.68041 14.0656 10.0498 14.6473 10.2871 15.2747C10.5289 15.9143 10.6601 16.6696 10.6602 17.4613C10.6599 17.8752 10.3241 18.2111 9.91016 18.2113H6.27637C5.86232 18.2113 5.52663 17.8753 5.52637 17.4613C5.52641 16.6695 5.65762 15.9144 5.89941 15.2747C6.13674 14.6472 6.506 14.0655 7.02832 13.7103V13.7122C7.20941 13.5773 7.4208 13.4745 7.56738 13.4144C7.65229 13.3796 7.74382 13.3461 7.82715 13.3236C7.86143 13.3143 7.9327 13.2969 8.01465 13.2904C8.02386 13.2896 8.04122 13.2898 8.06445 13.2894H8.12207C8.14528 13.2898 8.16266 13.2896 8.17188 13.2904ZM8.09277 14.8216C8.00671 14.86 7.94261 14.8977 7.92188 14.9144C7.90599 14.9272 7.88895 14.939 7.87207 14.9505C7.69565 15.0705 7.47768 15.3425 7.30273 15.805C7.20293 16.069 7.12636 16.3756 7.0791 16.7113H9.1084C9.06115 16.3756 8.98358 16.069 8.88379 15.805C8.70896 15.3428 8.4908 15.0706 8.31445 14.9505C8.29784 14.9392 8.28128 14.927 8.26562 14.9144C8.24501 14.8977 8.17938 14.8602 8.09277 14.8216ZM8.81641 14.2308C8.80768 14.2644 8.79827 14.2978 8.78516 14.3294C8.79892 14.2964 8.80944 14.2618 8.81836 14.2269L8.81641 14.2308ZM7.39648 14.3158C7.38573 14.2883 7.37664 14.2597 7.36914 14.2308L7.36719 14.2279C7.37488 14.2578 7.38524 14.2872 7.39648 14.3158Z" fill="#FAFAFA"/>
<path d="M13.1006 9.78743C14.0916 9.77075 15.1156 10.0122 16.249 10.516C17.2383 10.9556 18.0435 11.1277 18.7627 11.1156C18.9072 11.1131 19.0506 11.1007 19.1934 11.0833C19.0389 10.882 18.9879 10.6085 19.0869 10.3548C19.2377 9.9693 19.673 9.7786 20.0586 9.92904L21.5254 10.5033C21.8012 10.6112 21.9874 10.8714 22.001 11.1673C22.0145 11.4631 21.8526 11.7397 21.5879 11.8724C20.6892 12.3229 19.782 12.5987 18.7881 12.6156C17.797 12.6323 16.7731 12.3908 15.6396 11.887C14.6503 11.4474 13.845 11.2754 13.126 11.2874C12.4099 11.2996 11.7236 11.4954 10.9717 11.8724C10.6015 12.0575 10.1504 11.9075 9.96484 11.5374C9.7796 11.1674 9.92994 10.7173 10.2998 10.5316C11.1991 10.0806 12.1065 9.8043 13.1006 9.78743Z" fill="#FAFAFA"/>
<path d="M13.1006 6.28939C14.0916 6.27264 15.1156 6.51416 16.249 7.0179C17.2382 7.45751 18.0435 7.62965 18.7627 7.61751C18.9072 7.61506 19.0506 7.60267 19.1934 7.58529C19.0389 7.38395 18.988 7.11036 19.0869 6.85677C19.2377 6.47113 19.6729 6.28131 20.0586 6.43197L21.5254 7.00521C21.8012 7.11314 21.9873 7.37343 22.001 7.66927C22.0143 7.96492 21.8525 8.24069 21.5879 8.37337C20.6891 8.82398 19.7821 9.10065 18.7881 9.11751C17.797 9.13426 16.7731 8.8927 15.6396 8.389C14.6503 7.94931 13.8451 7.77725 13.126 7.78939C12.4098 7.8016 11.7236 7.99751 10.9717 8.37435C10.6015 8.55937 10.1503 8.40938 9.96484 8.03939C9.77945 7.66925 9.92985 7.21824 10.2998 7.03255C11.199 6.58196 12.1067 6.30632 13.1006 6.28939Z" fill="#FAFAFA"/>
<path d="M13.1006 2.79036C14.0915 2.77362 15.1156 3.0152 16.249 3.51888C17.2383 3.95851 18.0435 4.13058 18.7627 4.11849C18.9072 4.11605 19.0505 4.10365 19.1934 4.08626C19.039 3.88484 18.9878 3.61133 19.0869 3.35775C19.2377 2.97223 19.673 2.78244 20.0586 2.93294L21.5254 3.50618C21.8009 3.61402 21.987 3.87375 22.001 4.16927C22.0146 4.46501 21.8534 4.74142 21.5889 4.87435C20.6899 5.32537 19.7823 5.60168 18.7881 5.61849C17.797 5.63517 16.773 5.39366 15.6396 4.88997C14.6504 4.45036 13.845 4.27822 13.126 4.29036C12.4098 4.30258 11.7236 4.49848 10.9717 4.87533C10.6015 5.06055 10.1503 4.91053 9.96484 4.54036C9.77967 4.17021 9.9298 3.71909 10.2998 3.53353C11.199 3.08294 12.1067 2.80729 13.1006 2.79036Z" fill="#FAFAFA"/>
<path d="M8.09277 14.8216C8.00671 14.86 7.94261 14.8977 7.92188 14.9144C7.90599 14.9272 7.88895 14.939 7.87207 14.9505C7.69565 15.0705 7.47768 15.3425 7.30273 15.805C7.20293 16.069 7.12636 16.3756 7.0791 16.7113H9.1084C9.06115 16.3756 8.98358 16.069 8.88379 15.805C8.70896 15.3428 8.4908 15.0706 8.31445 14.9505C8.29784 14.9392 8.28128 14.927 8.26562 14.9144C8.24501 14.8977 8.17938 14.8602 8.09277 14.8216Z" fill="#FAFAFA"/>
</svg>
