<svg width="24" height="24" viewBox="0 0 24 24" fill="none" xmlns="http://www.w3.org/2000/svg">
<path fill-rule="evenodd" clip-rule="evenodd" d="M12.0001 1.25C12.4143 1.25 12.7501 1.58579 12.7501 2V3.81934C13.2948 3.95461 13.7987 4.23319 14.2022 4.63672C14.7859 5.22055 15.1143 6.01231 15.1143 6.83789C15.1143 6.94273 15.1082 7.04699 15.0977 7.15039C15.1213 7.19106 15.1422 7.23423 15.1583 7.28027L17.5802 14.2188H18.7891L18.8653 14.2227C19.2435 14.2611 19.5391 14.5804 19.5391 14.9688C19.5391 15.3571 19.2435 15.6764 18.8653 15.7148L18.7891 15.7188H18.1036L20.2091 21.752C20.3454 22.1427 20.1386 22.5702 19.7481 22.707C19.357 22.8435 18.9286 22.6372 18.7921 22.2461L16.5137 15.7188H12.7501V16.5898C12.75 17.004 12.4142 17.3398 12.0001 17.3398C11.5859 17.3398 11.2502 17.004 11.2501 16.5898V15.7188H7.4864L5.20808 22.2461C5.07159 22.6372 4.64407 22.8435 4.253 22.707C3.86201 22.5705 3.65563 22.143 3.79206 21.752L5.89753 15.7188H5.21296C4.79875 15.7188 4.46296 15.383 4.46296 14.9688C4.46296 14.5545 4.79875 14.2188 5.21296 14.2188H6.42097L8.84187 7.28027C8.85814 7.23366 8.87842 7.18953 8.90242 7.14844C8.89212 7.04571 8.88777 6.94205 8.88777 6.83789C8.88777 6.01231 9.2152 5.22055 9.7989 4.63672C10.2021 4.23348 10.7058 3.9557 11.2501 3.82031V2C11.2501 1.58579 11.5859 1.25 12.0001 1.25ZM14.1876 9.05176C13.6052 9.62712 12.8202 9.95104 12.001 9.95117C11.1815 9.95117 10.3952 9.62754 9.81257 9.05176L8.00984 14.2188H11.2501V13.3477C11.2501 12.9334 11.5859 12.5977 12.0001 12.5977C12.4143 12.5977 12.7501 12.9334 12.7501 13.3477V14.2188H15.9903L14.1876 9.05176Z" fill="#FAFAFA"/>
</svg>
