<svg width="24" height="24" viewBox="0 0 24 24" fill="none" xmlns="http://www.w3.org/2000/svg">
<path fill-rule="evenodd" clip-rule="evenodd" d="M17 2.25C18.5188 2.25 19.75 3.48122 19.75 5V19C19.75 20.5188 18.5188 21.75 17 21.75H7C5.48122 21.75 4.25 20.5188 4.25 19V5C4.25 3.48122 5.48122 2.25 7 2.25H17ZM12 17.75C11.5858 17.75 11.25 18.0858 11.25 18.5C11.25 18.9142 11.5858 19.25 12 19.25C12.4142 19.25 12.75 18.9142 12.75 18.5C12.75 18.0858 12.4142 17.75 12 17.75ZM7.30957 12.75C7.6692 15.0169 9.63189 16.75 12 16.75C14.3681 16.75 16.3308 15.0169 16.6904 12.75H7.30957ZM12 7.25C9.63189 7.25 7.6692 8.98306 7.30957 11.25H16.6904C16.3308 8.98306 14.3681 7.25 12 7.25ZM12 4.75C11.5858 4.75 11.25 5.08579 11.25 5.5C11.25 5.91421 11.5858 6.25 12 6.25C12.4142 6.25 12.75 5.91421 12.75 5.5C12.75 5.08579 12.4142 4.75 12 4.75Z" fill="#FAFAFA"/>
</svg>
