<svg width="24" height="24" viewBox="0 0 24 24" fill="none" xmlns="http://www.w3.org/2000/svg">
<path fill-rule="evenodd" clip-rule="evenodd" d="M9.50977 15.95C10.1105 16.0097 10.6758 16.2753 11.1064 16.7059C11.5987 17.1981 11.8749 17.8662 11.875 18.5623C11.875 19.2584 11.5986 19.9265 11.1064 20.4187C10.6142 20.911 9.94619 21.1873 9.25 21.1873C8.55381 21.1873 7.88584 20.911 7.39355 20.4187C6.90136 19.9265 6.625 19.2584 6.625 18.5623C6.62508 17.8662 6.90134 17.1981 7.39355 16.7059C7.88582 16.2137 8.55387 15.9373 9.25 15.9373L9.50977 15.95ZM9.25 17.4373C8.9517 17.4373 8.66507 17.5555 8.4541 17.7664C8.24319 17.9773 8.12508 18.264 8.125 18.5623C8.125 18.8606 8.24321 19.1472 8.4541 19.3582C8.66508 19.5692 8.95163 19.6873 9.25 19.6873C9.54837 19.6873 9.83492 19.5692 10.0459 19.3582C10.2568 19.1472 10.375 18.8606 10.375 18.5623C10.3749 18.264 10.2568 17.9773 10.0459 17.7664C9.86135 17.5819 9.61874 17.4688 9.36133 17.4432L9.25 17.4373Z" fill="#FAFAFA"/>
<path fill-rule="evenodd" clip-rule="evenodd" d="M18.8848 15.95C19.4855 16.0097 20.0508 16.2753 20.4814 16.7059C20.9737 17.1981 21.2499 17.8662 21.25 18.5623C21.25 19.2584 20.9736 19.9265 20.4814 20.4187C19.9892 20.911 19.3212 21.1873 18.625 21.1873C17.9288 21.1873 17.2608 20.911 16.7686 20.4187C16.2764 19.9265 16 19.2584 16 18.5623C16.0001 17.8662 16.2763 17.1981 16.7686 16.7059C17.2608 16.2137 17.9289 15.9373 18.625 15.9373L18.8848 15.95ZM18.625 17.4373C18.3267 17.4373 18.0401 17.5555 17.8291 17.7664C17.6182 17.9773 17.5001 18.264 17.5 18.5623C17.5 18.8606 17.6182 19.1472 17.8291 19.3582C18.0401 19.5692 18.3266 19.6873 18.625 19.6873C18.9234 19.6873 19.2099 19.5692 19.4209 19.3582C19.6318 19.1472 19.75 18.8606 19.75 18.5623C19.7499 18.264 19.6318 17.9773 19.4209 17.7664C19.2364 17.5819 18.9937 17.4688 18.7363 17.4432L18.625 17.4373Z" fill="#FAFAFA"/>
<path fill-rule="evenodd" clip-rule="evenodd" d="M14.9551 3.61211C15.4863 3.11845 16.2485 2.86291 17.0615 3.09941C17.9569 3.35994 18.7961 3.81746 19.5205 4.5418C20.628 5.64934 21.2499 7.15228 21.25 8.71855C21.25 8.83437 21.245 8.95024 21.2383 9.06523C21.2448 9.105 21.25 9.14569 21.25 9.1873C21.25 9.27485 21.2317 9.35822 21.2041 9.43633C21.0448 10.7382 20.4575 11.9582 19.5205 12.8953C18.4129 14.0029 16.9101 14.6248 15.3438 14.6248H12.8359C11.4978 14.625 10.193 14.2041 9.10742 13.4217C8.02203 12.6393 7.21017 11.5348 6.78711 10.2654L5.42773 6.1873H3.625C3.21084 6.1873 2.87508 5.85145 2.875 5.4373C2.87518 5.02325 3.2109 4.6873 3.625 4.6873H5.96875C6.29147 4.6873 6.57849 4.89391 6.68066 5.2L7.75879 8.4373H14.125V5.5623C14.1251 4.80876 14.436 4.09468 14.9551 3.61211ZM16.6426 4.53984C16.3953 4.46793 16.1684 4.5326 15.9766 4.71074C15.7728 4.90018 15.6251 5.21166 15.625 5.5623V8.4373H19.7393C19.671 7.37162 19.2186 6.36299 18.459 5.60332C17.9297 5.07413 17.319 4.73671 16.6426 4.53984Z" fill="#FAFAFA"/>
</svg>
