<svg width="24" height="24" viewBox="0 0 24 24" fill="none" xmlns="http://www.w3.org/2000/svg">
<path fill-rule="evenodd" clip-rule="evenodd" d="M14.75 1.25C15.4793 1.25 16.1786 1.53994 16.6943 2.05566C17.2101 2.57139 17.5 3.27066 17.5 4C17.5 4.61316 17.2926 5.20316 16.9209 5.68262L19.1992 9.30566C19.3791 9.26886 19.5636 9.25 19.75 9.25C20.4793 9.25 21.1786 9.53994 21.6943 10.0557C22.2101 10.5714 22.5 11.2707 22.5 12C22.5 12.7293 22.2101 13.4286 21.6943 13.9443C21.1786 14.4601 20.4793 14.75 19.75 14.75C19.0207 14.75 18.3214 14.4601 17.8057 13.9443C17.2899 13.4286 17 12.7293 17 12C17 11.2707 17.2899 10.5714 17.8057 10.0557C17.8246 10.0367 17.8448 10.0193 17.8643 10.001L15.709 6.57324C15.4047 6.68673 15.0811 6.75 14.75 6.75C14.4098 6.75 14.0772 6.68412 13.7656 6.56445L11.6318 9.99902C11.6523 10.0183 11.6744 10.0358 11.6943 10.0557C12.2101 10.5714 12.5 11.2707 12.5 12C12.5 12.5059 12.3571 12.9952 12.0996 13.4209L14.166 16.3145C14.3565 16.273 14.552 16.25 14.75 16.25C15.4793 16.25 16.1786 16.5399 16.6943 17.0557C17.2101 17.5714 17.5 18.2707 17.5 19C17.5 19.7293 17.2101 20.4286 16.6943 20.9443C16.1786 21.4601 15.4793 21.75 14.75 21.75C14.0207 21.75 13.3214 21.4601 12.8057 20.9443C12.2899 20.4286 12 19.7293 12 19C12 18.2707 12.2899 17.5714 12.8057 17.0557C12.8148 17.0465 12.8247 17.0383 12.834 17.0293L10.9912 14.4502C10.6096 14.6436 10.1859 14.75 9.75 14.75C9.40768 14.75 9.07297 14.6836 8.75977 14.5625L6.92188 17.3193C7.29277 17.7985 7.5 18.3876 7.5 19C7.5 19.7293 7.21006 20.4286 6.69434 20.9443C6.17861 21.4601 5.47935 21.75 4.75 21.75C4.02065 21.75 3.32139 21.4601 2.80566 20.9443C2.28994 20.4286 2 19.7293 2 19C2 18.2707 2.28994 17.5714 2.80566 17.0557C3.32139 16.5399 4.02065 16.25 4.75 16.25C5.08264 16.25 5.4083 16.3122 5.71387 16.4268L7.56055 13.6582C7.20064 13.1831 7 12.6028 7 12C7 11.2707 7.28994 10.5714 7.80566 10.0557C8.32139 9.53994 9.02066 9.25 9.75 9.25C9.93544 9.25 10.1188 9.26923 10.2979 9.30566L12.5625 5.66016C12.2015 5.18469 12 4.60374 12 4C12 3.27066 12.2899 2.57139 12.8057 2.05566C13.3214 1.53994 14.0207 1.25 14.75 1.25ZM14.75 17.75C14.4185 17.75 14.1006 17.8818 13.8662 18.1162C13.6318 18.3506 13.5 18.6685 13.5 19C13.5 19.3315 13.6318 19.6494 13.8662 19.8838C14.1006 20.1182 14.4185 20.25 14.75 20.25C15.0815 20.25 15.3994 20.1182 15.6338 19.8838C15.8682 19.6494 16 19.3315 16 19C16 18.6685 15.8682 18.3506 15.6338 18.1162C15.3994 17.8818 15.0815 17.75 14.75 17.75ZM19.75 10.75C19.4185 10.75 19.1006 10.8818 18.8662 11.1162C18.6318 11.3506 18.5 11.6685 18.5 12C18.5 12.3315 18.6318 12.6494 18.8662 12.8838C19.1006 13.1182 19.4185 13.25 19.75 13.25C20.0815 13.25 20.3994 13.1182 20.6338 12.8838C20.8682 12.6494 21 12.3315 21 12C21 11.6685 20.8682 11.3506 20.6338 11.1162C20.3994 10.8818 20.0815 10.75 19.75 10.75Z" fill="#FAFAFA"/>
</svg>
