<svg width="24" height="24" viewBox="0 0 24 24" fill="none" xmlns="http://www.w3.org/2000/svg">
<path fill-rule="evenodd" clip-rule="evenodd" d="M2 12C2 17.5228 6.47775 22.0004 12.0005 22.0005C17.5233 22.0005 22.001 17.5228 22.001 12C22.0008 6.47726 17.5233 1.99951 12.0005 1.99951C6.47783 1.99964 2.00013 6.47735 2 12Z" fill="#FAFAFA"/>
<path fill-rule="evenodd" clip-rule="evenodd" d="M10.1347 16.5303C9.84182 16.2374 9.84182 15.7626 10.1347 15.4697L13.4276 12.1768C13.5252 12.0791 13.5252 11.9209 13.4276 11.8232L10.1347 8.53033C9.84182 8.23744 9.84182 7.76256 10.1347 7.46967C10.4276 7.17678 10.9025 7.17678 11.1954 7.46967L14.4883 10.7626C15.1717 11.446 15.1717 12.554 14.4883 13.2374L11.1954 16.5303C10.9025 16.8232 10.4276 16.8232 10.1347 16.5303Z" fill="#131313"/>
</svg>
