<svg width="24" height="24" viewBox="0 0 24 24" fill="none" xmlns="http://www.w3.org/2000/svg">
<path fill-rule="evenodd" clip-rule="evenodd" d="M15.1084 4.29525C19.3186 5.13729 20.3358 8.88329 20.3359 10.5921C20.3359 11.4205 19.6643 12.0921 18.8359 12.0921C18.4397 12.0921 18.0853 12.1411 17.7676 12.2269L17.8477 12.3646L18.4668 13.4369C18.7217 13.3727 18.9889 13.3382 19.2637 13.3382C21.0583 13.3385 22.5136 14.7935 22.5137 16.5882C22.5136 18.3829 21.0583 19.838 19.2637 19.8382C17.4688 19.8382 16.0138 18.3831 16.0137 16.5882C16.0137 15.6072 16.4494 14.729 17.1367 14.1331L16.5488 13.1146L16.4414 12.929C16.3218 13.0324 16.2114 13.1421 16.1094 13.2552C15.4913 13.9406 15.1758 14.7802 15.084 15.2845C14.9542 15.9977 14.3323 16.516 13.6074 16.516H9.98828C9.2552 16.5159 8.62953 15.9861 8.50879 15.263C8.37943 14.4872 8.15097 14.0325 7.98438 13.7943C7.93685 13.7264 7.89582 13.6777 7.86426 13.6439L7.80176 13.5843C7.83571 13.5987 7.87022 13.6117 7.90527 13.6234C7.8047 13.5898 7.77781 13.5644 7.80176 13.5843C7.7677 13.5699 7.73415 13.5542 7.70117 13.5374L7.2002 14.4056C7.72456 14.9827 8.04683 15.7471 8.04688 16.5882C8.04679 18.3831 6.59175 19.8382 4.79688 19.8382C3.002 19.8382 1.54696 18.3831 1.54688 16.5882C1.54697 14.7934 3.00201 13.3382 4.79688 13.3382C5.20678 13.3382 5.59879 13.4146 5.95996 13.5531L6.41504 12.765C5.98635 12.5464 5.7467 12.4945 5.56445 12.4945C5.39093 12.4945 5.0386 12.5378 4.58887 12.6205C4.16817 12.6978 3.75709 12.7915 3.51562 12.8519C3.06753 12.9639 2.59258 12.8627 2.22852 12.5785C1.86467 12.2943 1.6515 11.8585 1.65137 11.3968V10.1898C1.65149 9.79213 1.80963 9.41043 2.09082 9.12924C2.35006 8.87009 2.66354 8.70027 2.86035 8.60287C3.08887 8.48981 3.33569 8.39061 3.5625 8.30795C4.01726 8.14224 4.49186 8.00676 4.79883 7.93002L4.86816 7.9144C6.02931 7.68223 7.42018 7.93258 8.50586 8.21518C9.16944 8.38792 9.81135 8.6017 10.3643 8.806C11.1525 8.09368 12.0687 7.74326 12.9365 7.62729C13.2489 7.58555 13.5555 7.57479 13.8496 7.58529C13.7347 7.13076 13.5709 6.67258 13.4355 6.35678C13.2163 5.84488 13.2985 5.25308 13.6494 4.82065C14.0004 4.38832 14.5624 4.18613 15.1084 4.29525ZM4.79688 14.8382C3.83044 14.8382 3.04697 15.6218 3.04688 16.5882C3.04696 17.5547 3.83043 18.3382 4.79688 18.3382C5.76332 18.3382 6.54679 17.5547 6.54688 16.5882C6.54678 15.6218 5.76331 14.8382 4.79688 14.8382ZM19.2637 14.8382C18.2972 14.8382 17.5138 15.6218 17.5137 16.5882C17.5138 17.5547 18.2972 18.3382 19.2637 18.3382C20.2299 18.338 21.0136 17.5545 21.0137 16.5882C21.0136 15.622 20.2299 14.8385 19.2637 14.8382Z" fill="#FAFAFA"/>
</svg>
