<svg width="24" height="24" viewBox="0 0 24 24" fill="none" xmlns="http://www.w3.org/2000/svg">
<path d="M11.5996 2.6748C16.1387 2.6748 19.8495 6.3857 19.8496 10.9248C19.8496 11.339 19.5138 11.6748 19.0996 11.6748C18.6854 11.6748 18.3496 11.339 18.3496 10.9248C18.3495 7.21413 15.3103 4.1748 11.5996 4.1748C7.8889 4.1748 4.84974 7.21413 4.84961 10.9248C4.84961 14.6356 7.88882 17.6748 11.5996 17.6748H18.1475L16.7695 16.5264C16.4515 16.2612 16.4088 15.7879 16.6738 15.4697C16.939 15.1517 17.4123 15.1089 17.7305 15.374L20.7305 17.874C20.9013 18.0165 21 18.2277 21 18.4502C20.9999 18.6726 20.9013 18.8839 20.7305 19.0264L17.7305 21.5264C17.4124 21.7913 16.939 21.7485 16.6738 21.4307C16.4087 21.1126 16.4516 20.6392 16.7695 20.374L18.209 19.1748H11.5996C7.0604 19.1748 3.34961 15.464 3.34961 10.9248C3.34974 6.3857 7.06048 2.6748 11.5996 2.6748Z" fill="#FAFAFA"/>
<path d="M11.127 7.32617C11.4881 6.913 12.1115 6.913 12.4727 7.32617C13.357 8.338 14.7995 10.21 14.7998 11.6523C14.7998 12.434 14.4835 13.1846 13.9209 13.7373C13.3583 14.2898 12.5953 14.6006 11.7998 14.6006C11.0043 14.6006 10.2413 14.2898 9.67871 13.7373C9.1161 13.1846 8.7998 12.434 8.7998 11.6523C8.80006 10.21 10.2426 8.338 11.127 7.32617Z" fill="#FAFAFA"/>
</svg>
