<svg width="24" height="24" viewBox="0 0 24 24" fill="none" xmlns="http://www.w3.org/2000/svg">
<path d="M11.9902 18.1656C12.1079 18.1656 12.2246 18.1917 12.3311 18.2418C12.4375 18.2918 12.5314 18.3651 12.6064 18.4556C12.8662 18.8402 13.2116 19.1593 13.6152 19.3882C14.0191 19.6173 14.471 19.7505 14.9346 19.7759C15.3933 19.7517 15.8405 19.6213 16.2402 19.3951C16.64 19.1688 16.9814 18.8521 17.2383 18.4713C17.3176 18.3863 17.4139 18.3184 17.5205 18.272C17.6271 18.2257 17.7422 18.2017 17.8584 18.2017C17.9746 18.2017 18.0897 18.2258 18.1963 18.272C18.3029 18.3184 18.3992 18.3863 18.4785 18.4713C18.7367 18.8558 19.0808 19.1758 19.4834 19.4049C19.8859 19.6338 20.3365 19.7661 20.7988 19.7916C21.0109 19.7917 21.2143 19.876 21.3643 20.0259C21.5142 20.1759 21.5986 20.3793 21.5986 20.5914C21.5986 20.8034 21.5141 21.0068 21.3643 21.1568C21.2143 21.3067 21.0109 21.3911 20.7988 21.3912C19.8141 21.3922 18.8615 21.037 18.1182 20.3912C18.0457 20.3329 17.9553 20.3013 17.8623 20.3013C17.7693 20.3014 17.6789 20.3329 17.6064 20.3912C16.8642 21.0361 15.914 21.3921 14.9307 21.3922C13.9473 21.3922 12.9972 21.0361 12.2549 20.3912C12.1824 20.3327 12.0912 20.3013 11.998 20.3013C11.9051 20.3014 11.8146 20.3328 11.7422 20.3912C10.9986 21.0367 10.0472 21.3921 9.0625 21.3922C8.07777 21.3922 7.12642 21.0367 6.38281 20.3912C6.31166 20.3335 6.22247 20.3024 6.13086 20.3023C6.0393 20.3023 5.95009 20.3336 5.87891 20.3912C5.13478 21.0358 4.18272 21.3907 3.19824 21.3912C2.98614 21.3911 2.7828 21.3068 2.63281 21.1568C2.48291 21.0068 2.39844 20.8035 2.39844 20.5914C2.39849 20.3793 2.48283 20.1759 2.63281 20.0259C2.7828 19.876 2.98614 19.7916 3.19824 19.7916C3.66115 19.762 4.11067 19.6239 4.51074 19.3892C4.91069 19.1545 5.25034 18.8295 5.50195 18.44C5.58121 18.3551 5.67766 18.2871 5.78418 18.2408C5.89073 18.1945 6.0059 18.1705 6.12207 18.1705C6.23837 18.1705 6.35428 18.1944 6.46094 18.2408C6.56737 18.2871 6.66298 18.3551 6.74219 18.44C7.00032 18.8245 7.34455 19.1436 7.74707 19.3726C8.14966 19.6017 8.60001 19.7339 9.0625 19.7593C9.52229 19.7351 9.97004 19.6047 10.3711 19.3785C10.7721 19.1523 11.1154 18.8365 11.374 18.4556C11.4491 18.365 11.5439 18.2918 11.6504 18.2418C11.7567 18.1918 11.8728 18.1656 11.9902 18.1656Z" fill="#FAFAFA"/>
<path fill-rule="evenodd" clip-rule="evenodd" d="M13.375 2.63141C13.5141 2.62622 13.652 2.65775 13.7754 2.72223C13.8988 2.78674 14.003 2.88234 14.0781 2.99958C14.1483 3.12119 14.1855 3.25954 14.1855 3.39997C14.1855 3.54026 14.1483 3.67788 14.0781 3.79938C13.9938 3.96442 13.9217 4.13551 13.8623 4.3111C13.8331 4.40388 13.8378 4.50483 13.876 4.5943C13.9141 4.68364 13.9833 4.75618 14.0703 4.79938C15.7663 5.59936 18.9987 7.80745 19.2148 12.9752C19.2145 13.0342 19.2275 13.0932 19.2539 13.1461C19.2803 13.1988 19.3189 13.2447 19.3662 13.2799C20.333 13.9886 20.9893 15.0428 21.1982 16.2232C21.216 16.3524 21.197 16.4841 21.1436 16.6031C21.0901 16.7221 21.0049 16.8245 20.8965 16.897C20.788 16.9696 20.6607 17.0102 20.5303 17.0142C20.4 17.0182 20.2708 16.9851 20.1582 16.9195L18.2148 15.7515C18.1475 15.7061 18.0676 15.6822 17.9863 15.6822C17.9052 15.6822 17.8261 15.7063 17.7588 15.7515L16.1582 16.984C16.0367 17.0771 15.8875 17.1275 15.7344 17.1275C15.6007 17.1289 15.4695 17.0895 15.3584 17.0152C15.2372 16.9421 15.1432 16.8318 15.0898 16.7007C15.0365 16.5696 15.0267 16.4247 15.0625 16.2877C15.2502 15.3646 15.6811 14.508 16.3105 13.8072C16.3682 13.736 16.4004 13.6469 16.4004 13.5552C16.4003 13.4636 16.3683 13.3745 16.3105 13.3033C14.6626 11.0154 12.5584 9.9271 10.0625 10.1031C10.007 10.1059 9.95297 10.1211 9.90332 10.1461C9.85371 10.171 9.80976 10.2058 9.77441 10.2486C9.73903 10.2915 9.71231 10.3415 9.69727 10.3951C9.68232 10.4484 9.67876 10.5043 9.68652 10.5591C9.75355 11.0542 9.88499 11.5389 10.0781 11.9996C10.1434 12.1421 10.1657 12.3007 10.1416 12.4556C10.1174 12.6107 10.0481 12.7557 9.94238 12.8716C9.84595 12.9842 9.72021 13.0677 9.5791 13.1129C9.43783 13.1581 9.28655 13.1632 9.14258 13.1275C8.15225 12.8409 7.2871 12.2291 6.68652 11.3912C6.63077 11.3167 6.5504 11.2636 6.45996 11.2418C6.36951 11.22 6.27404 11.2312 6.19043 11.272C5.50431 11.6231 4.84179 12.0185 4.20703 12.4556C3.97684 12.6112 3.69961 12.6824 3.42285 12.6578C3.14601 12.633 2.88553 12.5139 2.68652 12.3199C2.52879 12.1811 2.43196 11.9855 2.41699 11.7759C2.40204 11.5665 2.47015 11.3595 2.60645 11.1998L3.84668 9.59919C3.62971 8.75797 3.75026 7.8654 4.18262 7.11188C4.98277 5.76109 6.28611 4.78218 7.80664 4.39118C7.95694 4.3454 8.09039 4.25648 8.19043 4.13532C8.89444 3.27136 10.1751 2.70341 13.375 2.63141ZM7.40625 7.13532C7.24731 7.13541 7.09485 7.19876 6.98242 7.3111C6.8699 7.42362 6.80664 7.57677 6.80664 7.7359C6.80673 7.89492 6.86998 8.04729 6.98242 8.15973C7.09487 8.27218 7.24724 8.33543 7.40625 8.33551C7.56538 8.33551 7.71853 8.27225 7.83105 8.15973C7.9434 8.0473 8.00675 7.89484 8.00684 7.7359C8.00684 7.57677 7.94358 7.42362 7.83105 7.3111C7.71853 7.19858 7.56538 7.13532 7.40625 7.13532Z" fill="#FAFAFA"/>
</svg>
