<svg width="24" height="24" viewBox="0 0 24 24" fill="none" xmlns="http://www.w3.org/2000/svg">
<path d="M19 3C20.1046 3 21 3.89543 21 5V19C21 20.1046 20.1046 21 19 21H5C3.89543 21 3 20.1046 3 19V5C3 3.89543 3.89543 3 5 3H19ZM13.5303 8.21973C13.2374 7.92691 12.7626 7.92686 12.4697 8.21973C12.1769 8.5126 12.1769 8.9874 12.4697 9.28027L14.4395 11.25H7.75C7.33586 11.2501 7 11.5858 7 12C7 12.4142 7.33586 12.7499 7.75 12.75H14.4395L12.4697 14.7197C12.1769 15.0126 12.1769 15.4874 12.4697 15.7803C12.7626 16.0731 13.2374 16.0731 13.5303 15.7803L16.0732 13.2373C16.7567 12.5539 16.7567 11.4461 16.0732 10.7627L13.5303 8.21973Z" fill="#FAFAFA"/>
</svg>
