<svg width="24" height="24" viewBox="0 0 24 24" fill="none" xmlns="http://www.w3.org/2000/svg">
<path d="M11.6001 2.6748C16.1392 2.67494 19.8501 6.38616 19.8501 10.9253C19.85 11.3393 19.5141 11.6752 19.1001 11.6753C18.686 11.6753 18.3502 11.3394 18.3501 10.9253C18.3501 7.21459 15.3108 4.17543 11.6001 4.17529C7.88931 4.17529 4.8501 7.21451 4.8501 10.9253C4.85023 14.636 7.88939 17.6753 11.6001 17.6753H18.1489L16.77 16.5264C16.4519 16.2613 16.4089 15.7884 16.6738 15.4702C16.939 15.152 17.4118 15.1089 17.73 15.374L20.73 17.874C20.9009 18.0165 21 18.2277 21 18.4502C20.9999 18.6727 20.9009 18.8839 20.73 19.0264L17.73 21.5264C17.4118 21.7913 16.939 21.7482 16.6738 21.4302C16.4088 21.112 16.452 20.6392 16.77 20.374L18.2085 19.1753H11.6001C7.06097 19.1753 3.34974 15.4644 3.34961 10.9253C3.34961 6.38608 7.06088 2.6748 11.6001 2.6748Z" fill="#FAFAFA"/>
<path fill-rule="evenodd" clip-rule="evenodd" d="M13.2002 6.70019C13.6144 6.70019 13.9502 7.03598 13.9502 7.45019C13.9501 7.8643 13.6143 8.20019 13.2002 8.20019H12.4502V9.75H13.6143C15.208 9.75003 16.5 11.042 16.5 12.6357V13.75C16.5 14.0261 16.2761 14.25 16 14.25H13.8521L13.8008 14.2476C13.5655 14.2237 13.3785 14.0365 13.3545 13.8013L13.3521 13.75V13.1499C13.352 12.8911 13.155 12.6784 12.9028 12.6528L12.8521 12.6499H8.75V12.75C8.75 13.1642 8.41421 13.5 8 13.5C7.58579 13.5 7.25 13.1642 7.25 12.75V9.75C7.25 9.33579 7.58579 9 8 9C8.41421 9 8.75 9.33579 8.75 9.75H10.9502V8.20019H10.2002C9.78606 8.20019 9.45033 7.8643 9.4502 7.45019C9.4502 7.03598 9.78598 6.70019 10.2002 6.70019H13.2002Z" fill="#FAFAFA"/>
</svg>
