<svg width="24" height="24" viewBox="0 0 24 24" fill="none" xmlns="http://www.w3.org/2000/svg">
<path d="M20.6416 12.1201C20.6416 14.641 18.8646 16.7939 16.4365 17.292L16.1992 17.335C16.2009 17.3567 16.2013 17.3786 16.2012 17.4004V18.4043C17.8506 18.5595 19.3612 19.188 20.6348 20.0791C20.8042 20.2025 20.9186 20.388 20.9531 20.5947C20.9876 20.8014 20.9395 21.0129 20.8193 21.1846C20.6991 21.3563 20.5166 21.4744 20.3105 21.5127C20.1045 21.551 19.8917 21.5067 19.7178 21.3896C18.4666 20.5144 16.9862 19.9658 15.4014 19.9658C13.7862 19.9659 12.2604 20.4641 11.1221 21.3633C10.9556 21.4946 10.7438 21.5551 10.5332 21.5303C10.4289 21.518 10.328 21.4849 10.2363 21.4336C10.1448 21.3824 10.064 21.3137 9.99902 21.2314C9.93396 21.149 9.88502 21.0542 9.85645 20.9531C9.82788 20.852 9.81974 20.7459 9.83203 20.6416C9.85688 20.431 9.96446 20.2388 10.1309 20.1074C11.3821 19.1186 12.9552 18.542 14.6016 18.4004V17.4004C14.6015 17.3786 14.6018 17.3566 14.6035 17.335C12.0549 16.9332 10.1611 14.7224 10.1611 12.1201C12.7699 12.1201 14.9845 14.0894 15.3789 16.6006C15.3938 16.6001 15.4089 16.6001 15.4238 16.6006C15.8174 14.0894 18.0336 12.1201 20.6416 12.1201Z" fill="#FAFAFA"/>
<path d="M15.9619 6.46973C16.6098 6.46993 17.1758 7.03669 17.1758 7.68457V11.9434C16.4862 12.3867 15.8839 12.9545 15.4014 13.6172C14.2174 11.99 12.2995 10.9199 10.1611 10.9199C9.84317 10.92 9.53839 11.0467 9.31348 11.2715C9.08844 11.4965 8.96193 11.8019 8.96191 12.1201C8.96189 13.1528 9.2082 14.1706 9.68066 15.0889C10.1532 16.0072 10.8384 16.8 11.6787 17.4004H3.81641C3.16841 17.4004 2.60156 16.8327 2.60156 16.1855V7.68457C2.60156 7.03657 3.16841 6.46973 3.81641 6.46973H15.9619Z" fill="#FAFAFA"/>
<path d="M9.08984 5.26953H3.83691L5.37988 3.03516C5.53993 2.71363 5.94336 2.47168 6.3457 2.47168H9.08984V5.26953Z" fill="#FAFAFA"/>
<path d="M13.5117 2.47168C13.9133 2.47168 14.2369 2.71359 14.4785 3.03516L15.9668 5.26953H10.6875V2.47168H13.5117Z" fill="#FAFAFA"/>
</svg>
