<svg width="24" height="24" viewBox="0 0 24 24" fill="none" xmlns="http://www.w3.org/2000/svg">
<path d="M11.8086 11.0371C11.9991 10.9992 12.1965 11.0185 12.376 11.0928C12.5553 11.1671 12.7085 11.2928 12.8164 11.4541C12.9243 11.6156 12.9824 11.8058 12.9824 12C12.9824 12.1943 12.9243 12.3844 12.8164 12.5459C12.7085 12.7072 12.5553 12.8329 12.376 12.9072C12.1965 12.9816 11.9991 13.0008 11.8086 12.9629C11.6181 12.925 11.443 12.8317 11.3057 12.6943C11.1218 12.51 11.0186 12.2604 11.0186 12C11.0186 11.7396 11.1218 11.49 11.3057 11.3057C11.443 11.1683 11.6181 11.075 11.8086 11.0371Z" fill="#FAFAFA"/>
<path fill-rule="evenodd" clip-rule="evenodd" d="M12 2C17.5228 2 22 6.47715 22 12C22 17.5228 17.5228 22 12 22C6.47715 22 2 17.5228 2 12C2 6.47715 6.47715 2 12 2ZM9.33105 6.00488C9.22815 5.99228 9.12298 6.00408 9.02539 6.03906C7.75287 6.49652 6.83506 7.30804 6.27148 8.47266C6.07849 8.87273 6.03135 9.32775 6.13867 9.75879C6.24605 10.1898 6.50125 10.5702 6.85938 10.833C7.70565 11.4565 8.59273 11.8591 9.50098 12.0371C9.50622 12.3976 9.58903 12.7388 9.73145 13.0469C8.88127 13.6974 7.83413 14.0212 6.63086 14.0869C6.52732 14.0922 6.42608 14.1216 6.33594 14.1729C6.24594 14.2241 6.16876 14.2957 6.11133 14.3818C6.054 14.4679 6.01751 14.5663 6.00488 14.6689C5.99227 14.7718 6.00409 14.877 6.03906 14.9746C6.49651 16.2471 7.30803 17.1649 8.47266 17.7285C8.87274 17.9215 9.32774 17.9687 9.75879 17.8613C10.1898 17.7539 10.5702 17.4988 10.833 17.1406C11.4566 16.2932 11.8597 15.4063 12.0371 14.498C12.3978 14.4928 12.7387 14.4101 13.0469 14.2676C13.6977 15.1179 14.0212 16.1656 14.0869 17.3691C14.0922 17.4727 14.1216 17.5739 14.1729 17.6641C14.2241 17.7541 14.2957 17.8312 14.3818 17.8887C14.4679 17.946 14.5663 17.9825 14.6689 17.9951C14.7719 18.0077 14.877 17.9959 14.9746 17.9609C16.2472 17.5035 17.1649 16.692 17.7285 15.5273C17.9215 15.1273 17.9687 14.6722 17.8613 14.2412C17.7539 13.8102 17.4987 13.4298 17.1406 13.167C16.294 12.5432 15.4067 12.1398 14.498 11.9619C14.4927 11.6013 14.4102 11.2603 14.2676 10.9521C15.1178 10.3016 16.1658 9.97881 17.3691 9.91309C17.4727 9.90784 17.5739 9.87837 17.6641 9.82715C17.7541 9.77594 17.8312 9.70432 17.8887 9.61816C17.946 9.53205 17.9825 9.43374 17.9951 9.33105C18.0077 9.22815 17.9959 9.12298 17.9609 9.02539C17.5035 7.75288 16.692 6.83504 15.5273 6.27148C15.1273 6.07851 14.6722 6.03134 14.2412 6.13867C13.8102 6.24606 13.4298 6.50125 13.167 6.85938C12.5436 7.70656 12.1394 8.59303 11.9619 9.50098C11.6015 9.50637 11.2602 9.58892 10.9521 9.73145C10.3019 8.88135 9.97878 7.83389 9.91309 6.63086C9.90784 6.52732 9.87837 6.42607 9.82715 6.33594C9.77594 6.24596 9.70431 6.16876 9.61816 6.11133C9.53206 6.05401 9.43372 6.0175 9.33105 6.00488Z" fill="#FAFAFA"/>
</svg>
