<svg width="24" height="24" viewBox="0 0 24 24" fill="none" xmlns="http://www.w3.org/2000/svg">
<path d="M11.25 15.5264V21H6.91992C6.38578 21 5.93943 21.0005 5.5752 20.9707C5.19547 20.9397 4.83909 20.8719 4.50195 20.7002C3.98451 20.4365 3.56346 20.0155 3.29981 19.498C3.12809 19.1609 3.06033 18.8045 3.0293 18.4248C2.99954 18.0606 2.99999 17.6142 3 17.0801V15.5264H11.25Z" fill="#FAFAFA"/>
<path d="M21 17.0801C21 17.6142 21.0005 18.0606 20.9707 18.4248C20.9397 18.8045 20.8719 19.1609 20.7002 19.498C20.4365 20.0155 20.0155 20.4365 19.498 20.7002C19.1609 20.8719 18.8045 20.9397 18.4248 20.9707C18.0606 21.0005 17.6142 21 17.0801 21H12.75V15.5264H21V17.0801Z" fill="#FAFAFA"/>
<path d="M21 13.9795H12.75V10.0205H21V13.9795Z" fill="#FAFAFA"/>
<path d="M11.25 10.0205V13.9795H3V10.0205H11.25Z" fill="#FAFAFA"/>
<path d="M17.0801 3C17.6142 2.99999 18.0606 2.99954 18.4248 3.0293C18.8045 3.06033 19.1609 3.1281 19.498 3.29981C20.0155 3.56346 20.4365 3.98451 20.7002 4.50195C20.8719 4.83909 20.9397 5.19547 20.9707 5.5752C21.0005 5.93943 21 6.38578 21 6.91992V8.47363H12.75V3H17.0801Z" fill="#FAFAFA"/>
<path d="M11.25 8.47363H3V6.91992C2.99999 6.38577 2.99954 5.93943 3.0293 5.5752C3.06033 5.19547 3.12809 4.8391 3.29981 4.50195C3.56346 3.98451 3.98451 3.56346 4.50195 3.29981C4.8391 3.12809 5.19547 3.06033 5.5752 3.0293C5.93943 2.99954 6.38577 2.99999 6.91992 3H11.25V8.47363Z" fill="#FAFAFA"/>
</svg>
