<svg width="24" height="24" viewBox="0 0 24 24" fill="none" xmlns="http://www.w3.org/2000/svg">
<path d="M12 10.1819V14.0546H17.3818C17.1455 15.3001 16.4363 16.3547 15.3727 17.0637L18.6181 19.5819C20.509 17.8365 21.5999 15.2729 21.5999 12.2274C21.5999 11.5184 21.5363 10.8365 21.4181 10.182L12 10.1819Z" fill="#4285F4"/>
<path d="M6.39714 13.9033L5.66517 14.4636L3.07422 16.4818C4.71967 19.7454 8.09215 22 12.0012 22C14.7011 22 16.9647 21.1091 18.6193 19.5818L15.3739 17.0636C14.483 17.6636 13.3466 18.0273 12.0012 18.0273C9.40122 18.0273 7.19219 16.2728 6.40123 13.9091L6.39714 13.9033Z" fill="#34A853"/>
<path d="M3.07265 7.51807C2.39087 8.86347 2 10.3817 2 11.9998C2 13.618 2.39087 15.1362 3.07265 16.4816C3.07265 16.4906 6.39998 13.8998 6.39998 13.8998C6.19998 13.2998 6.08177 12.6634 6.08177 11.9997C6.08177 11.336 6.19998 10.6997 6.39998 10.0997L3.07265 7.51807Z" fill="#FBBC05"/>
<path d="M12.0014 5.98182C13.4742 5.98182 14.7832 6.49089 15.8287 7.47272L18.6923 4.60912C16.9559 2.99097 14.7015 2 12.0014 2C8.09235 2 4.71967 4.24545 3.07422 7.51819L6.40145 10.1C7.19231 7.73635 9.40143 5.98182 12.0014 5.98182Z" fill="#EA4335"/>
</svg>
