<svg width="24" height="24" viewBox="0 0 24 24" fill="none" xmlns="http://www.w3.org/2000/svg">
<path fill-rule="evenodd" clip-rule="evenodd" d="M6 1.64697C4.89543 1.64697 4 2.5424 4 3.64697V7.55606C3.99997 9.44814 4.71855 11.2745 6.01956 12.689C6.9216 13.6697 8.06017 14.4052 9.322 14.8383C10.2835 15.1683 11.0588 15.9981 11.0588 17.0146V18.417C11.0588 19.1967 10.4268 19.8288 9.64706 19.8288H9.14438C8.64231 19.8288 8.23529 20.2358 8.23529 20.7379C8.23529 21.24 8.64231 21.647 9.14438 21.647H14.8556C15.3577 21.647 15.7647 21.24 15.7647 20.7379C15.7647 20.2358 15.3577 19.8288 14.8556 19.8288H14.3529C13.5732 19.8288 12.9412 19.1967 12.9412 18.417V17.0146C12.9412 15.9981 13.7165 15.1683 14.678 14.8383C15.9398 14.4052 17.0784 13.6697 17.9804 12.689C19.2815 11.2745 20 9.44814 20 7.55606V3.64697C20 2.5424 19.1046 1.64697 18 1.64697H6Z" fill="#FAFAFA"/>
<path d="M18.1181 6.64697H5.88281V7.55606C5.88281 9.12325 6.52735 10.6263 7.67463 11.7344C8.82191 12.8426 10.378 13.4652 12.0005 13.4652C13.623 13.4652 15.179 12.8426 16.3263 11.7344C17.4736 10.6263 18.1181 9.12325 18.1181 7.55606V6.64697Z" fill="#131313"/>
</svg>
