<svg width="24" height="24" viewBox="0 0 24 24" fill="none" xmlns="http://www.w3.org/2000/svg">
<path d="M20.0608 11.7617L9.56083 23.0117C9.44956 23.1305 9.30269 23.2098 9.14237 23.2377C8.98205 23.2657 8.817 23.2407 8.67211 23.1667C8.52722 23.0926 8.41035 22.9734 8.33915 22.827C8.26795 22.6807 8.24627 22.5152 8.27739 22.3555L9.65177 15.4808L4.24896 13.452C4.13292 13.4086 4.02945 13.3372 3.94778 13.244C3.86611 13.1508 3.80878 13.0389 3.78093 12.9182C3.75307 12.7975 3.75555 12.6718 3.78814 12.5522C3.82073 12.4327 3.88243 12.3231 3.96771 12.2333L14.4677 0.983274C14.579 0.864526 14.7259 0.785191 14.8862 0.75724C15.0465 0.729289 15.2115 0.75424 15.3564 0.828326C15.5013 0.902412 15.6182 1.02161 15.6894 1.16794C15.7606 1.31428 15.7823 1.47979 15.7511 1.63952L14.373 8.52171L19.7758 10.5476C19.891 10.5913 19.9937 10.6627 20.0747 10.7555C20.1557 10.8483 20.2127 10.9596 20.2405 11.0796C20.2683 11.1996 20.2661 11.3246 20.2341 11.4436C20.2021 11.5626 20.1413 11.6718 20.0571 11.7617H20.0608Z" fill="#FAFAFA"/>
</svg>
