<svg width="24" height="24" viewBox="0 0 24 24" fill="none" xmlns="http://www.w3.org/2000/svg">
<path d="M17.7342 4.29906C18.0897 4.16417 18.4961 4.31789 18.6698 4.66527C18.8547 5.03567 18.7052 5.48593 18.3348 5.67113L17.0165 6.32933C16.968 6.35398 16.929 6.39468 16.9051 6.44359C16.8813 6.49274 16.8739 6.54923 16.8846 6.60277L17.3661 9.01292C17.3669 9.01718 17.3683 9.02136 17.369 9.02562L18.0135 12.2493C19.0029 12.2529 19.9513 12.6481 20.6512 13.3479C21.3543 14.051 21.7497 15.005 21.7499 15.9993C21.7499 16.7408 21.5299 17.4666 21.118 18.0832C20.7061 18.6996 20.1203 19.1802 19.4354 19.4641C18.7503 19.7479 17.9957 19.8225 17.2684 19.678C16.5411 19.5333 15.8729 19.1759 15.3485 18.6516C14.8242 18.1273 14.4669 17.4589 14.3221 16.7317C14.1775 16.0044 14.2513 15.2498 14.535 14.5647C14.8189 13.8796 15.3003 13.2941 15.9169 12.8821C16.1151 12.7497 16.3253 12.639 16.5428 12.5471L16.1092 10.3772L9.49303 14.6399C9.66016 15.0692 9.74978 15.5296 9.74986 15.9993C9.74986 16.7408 9.52994 17.4666 9.11803 18.0832C8.70613 18.6996 8.12027 19.1802 7.43541 19.4641C6.75033 19.7479 5.99571 19.8225 5.26842 19.678C4.54115 19.5333 3.87289 19.1759 3.3485 18.6516C2.82419 18.1273 2.46689 17.4589 2.32213 16.7317C2.17752 16.0044 2.25129 15.2498 2.53502 14.5647C2.81887 13.8796 3.30027 13.2941 3.91686 12.8821C4.53346 12.4702 5.25834 12.2493 5.99986 12.2493C6.99421 12.2493 7.94806 12.6448 8.65123 13.3479C8.66123 13.3579 8.67065 13.369 8.68053 13.3791L10.4979 12.2073L9.84459 8.94847C9.8327 8.8917 9.80103 8.84021 9.75572 8.80394C9.71018 8.76769 9.6528 8.74813 9.59459 8.74925H7.99986C7.58566 8.74925 7.24988 8.41345 7.24986 7.99925C7.25022 7.58534 7.58587 7.24925 7.99986 7.24925H9.57994C9.98389 7.24466 10.3775 7.38052 10.6932 7.63304C10.9728 7.85674 11.1759 8.16033 11.2772 8.5012L11.3143 8.64964L11.3153 8.6516L11.8524 11.3342L15.7928 8.79515L15.4139 6.89769C15.3385 6.5223 15.3882 6.13171 15.5555 5.78734C15.723 5.44297 15.9998 5.163 16.3417 4.99046L17.6639 4.32933L17.7342 4.29906Z" fill="#FAFAFA"/>
</svg>
