<svg width="24" height="24" viewBox="0 0 24 24" fill="none" xmlns="http://www.w3.org/2000/svg">
<path d="M16.8728 12.5205C18.3046 12.4486 20.0012 12.8882 20.3933 14.0479C20.4208 14.1038 20.4353 14.1662 20.4353 14.2285C20.4353 14.2907 20.4208 14.3524 20.3933 14.4082C20.3605 14.4626 20.3146 14.5086 20.2605 14.542C20.2064 14.5753 20.1442 14.5957 20.0808 14.6006C18.3702 14.6029 16.7071 15.1647 15.3455 16.2002H16.6014C16.7071 16.2004 16.8087 16.2426 16.8836 16.3174C16.9585 16.3924 17.0008 16.4946 17.0008 16.6006V19.4238C17.0008 19.9562 16.7893 20.4672 16.4129 20.8438C16.0364 21.2202 15.5254 21.4325 14.993 21.4326H10.993C10.4606 21.4326 9.94954 21.2201 9.57303 20.8438C9.19664 20.4672 8.98514 19.9562 8.98514 19.4238V17.8242C9.33849 18.0545 9.7466 18.1875 10.1678 18.21C10.589 18.2324 11.0097 18.1436 11.3855 17.9521C11.7012 18.1163 12.0496 18.2087 12.4051 18.2217C12.7606 18.2346 13.1154 18.1681 13.4422 18.0273C13.7691 17.8864 14.0618 17.6747 14.2967 17.4072C14.5315 17.1397 14.7041 16.8228 14.8015 16.4805C14.9114 16.1343 14.9389 15.7668 14.8816 15.4082C15.1354 15.1811 15.3385 14.9023 15.4764 14.5908C15.6142 14.2792 15.6841 13.9413 15.6814 13.6006C15.6796 13.3055 15.6252 13.0125 15.5213 12.7363C15.9615 12.6107 16.4154 12.5383 16.8728 12.5205Z" fill="#FAFAFA"/>
<path fill-rule="evenodd" clip-rule="evenodd" d="M8.80155 2.95215C8.98001 2.9522 9.15718 2.98737 9.32206 3.05566C9.48691 3.12401 9.63727 3.22439 9.76346 3.35059C9.88958 3.4768 9.9901 3.62715 10.0584 3.79199C10.1266 3.95685 10.1619 4.13409 10.1619 4.3125C10.1692 4.37865 10.1692 4.44556 10.1619 4.51172C10.3389 4.39536 10.5413 4.32146 10.7517 4.29688C10.9621 4.27241 11.1758 4.29764 11.3748 4.37012C11.5739 4.44277 11.7539 4.5615 11.8992 4.71582C12.0445 4.87019 12.1521 5.05659 12.2127 5.25977C12.2732 5.46296 12.285 5.67797 12.2478 5.88672C12.2107 6.09535 12.1257 6.29313 11.9988 6.46289C11.8719 6.6326 11.706 6.77052 11.5164 6.86523C11.327 6.95971 11.1177 7.00826 10.906 7.00781C11.0317 7.11952 11.1369 7.25289 11.2176 7.40039C11.3558 7.65539 11.4097 7.9479 11.3709 8.23535C11.3321 8.52281 11.2026 8.79076 11.0017 9C11.0497 9.19197 11.1137 9.39262 11.1697 9.60059C11.3297 10.1764 11.4976 10.7283 11.5935 11.2002C11.8632 11.2623 12.1049 11.4127 12.2801 11.627C12.455 11.8411 12.5541 12.1073 12.5613 12.3838C12.5684 12.4449 12.5684 12.5073 12.5613 12.5684C12.7591 12.4486 12.9864 12.3843 13.2176 12.3838H13.2898C13.6975 11.512 14.2803 10.7327 15.0017 10.0957C14.9131 9.8393 14.9045 9.56214 14.9773 9.30078C15.0502 9.03928 15.2013 8.80547 15.4099 8.63184C15.1732 8.6219 14.9418 8.55362 14.7381 8.43262C14.4561 8.23435 14.259 7.93598 14.1883 7.59863C14.1177 7.26116 14.1784 6.90903 14.3572 6.61426C14.5361 6.31958 14.8202 6.10294 15.1521 6.00977C15.484 5.91674 15.8393 5.95378 16.1453 6.1123C16.1374 6.04325 16.1375 5.97335 16.1453 5.9043C16.1453 5.54362 16.2887 5.19743 16.5437 4.94238C16.7988 4.68746 17.1451 4.54395 17.5057 4.54395C17.8662 4.54407 18.2126 4.68745 18.4676 4.94238C18.7224 5.1974 18.866 5.54375 18.866 5.9043C18.8699 5.9735 18.87 6.0431 18.866 6.1123C19.078 5.97636 19.3262 5.90631 19.5779 5.91211C19.7585 5.90363 19.9395 5.93164 20.1092 5.99414C20.2787 6.05668 20.4343 6.15276 20.5662 6.27637C20.6981 6.40014 20.8044 6.54947 20.8777 6.71484C20.951 6.88034 20.9909 7.05926 20.9939 7.24023C20.992 7.59471 20.8519 7.9348 20.6043 8.18848C20.3567 8.44201 20.02 8.59007 19.6658 8.60059C19.8193 8.72979 19.9425 8.89188 20.0262 9.07422C20.1098 9.25666 20.1524 9.45555 20.1502 9.65625C20.1479 9.85696 20.1012 10.0548 20.0135 10.2354C19.9257 10.4159 19.7988 10.5753 19.6424 10.7012C19.486 10.8269 19.3033 10.9169 19.1082 10.9639C18.913 11.0108 18.709 11.0136 18.5125 10.9727C18.316 10.9317 18.1307 10.8475 17.9705 10.7266C17.8103 10.6056 17.6789 10.4502 17.5857 10.2725C17.507 10.4257 17.3976 10.5614 17.2654 10.6719C17.0878 10.8246 16.8725 10.9281 16.6424 10.9717C16.4124 11.0151 16.1748 10.9971 15.9539 10.9199C15.2923 11.5019 14.7676 12.2235 14.4178 13.0322C14.4438 13.0889 14.4648 13.1479 14.4812 13.208V13.6006C14.4869 13.8266 14.4309 14.0501 14.3182 14.2461C14.2053 14.4421 14.0399 14.6032 13.8416 14.7119C13.6782 14.7954 13.4967 14.8392 13.3133 14.8398C13.4308 14.9407 13.5288 15.0634 13.6014 15.2002C13.6392 15.2573 13.6609 15.3241 13.6639 15.3926C13.6667 15.4609 13.6508 15.5289 13.618 15.5889C13.5851 15.6488 13.5364 15.699 13.4773 15.7334C13.4183 15.7677 13.3503 15.7853 13.282 15.7842V16.2725C13.2762 16.4089 13.249 16.5437 13.2019 16.6719V16.7998L12.074 16.2881H10.8494L10.7937 16.2402L10.7459 16.1924L10.7058 16.1445L10.658 16.0879V15.9844C10.5938 16.1064 10.5099 16.2175 10.4099 16.3125L10.3611 16.3525V16.3926H9.32206V16.3525C9.30443 16.3374 9.29063 16.3175 9.28202 16.2959V16.1357C9.16967 15.8927 9.13935 15.6198 9.19706 15.3584C9.25484 15.097 9.3971 14.8615 9.60135 14.6885H9.10526L9.03397 14.6484C8.85854 14.5425 8.71182 14.3932 8.60917 14.2158C8.57788 14.1652 8.55179 14.1111 8.53007 14.0557C8.47263 13.9078 8.44186 13.7505 8.4412 13.5918C8.44108 13.3666 8.50265 13.1456 8.61796 12.9521V12.7998L8.71366 12.3838C8.72662 12.3805 8.74076 12.3804 8.7537 12.3838L8.80155 12.3438H9.63358C9.81591 12.3597 9.99172 12.4209 10.1453 12.5205C10.1418 12.4592 10.1418 12.3972 10.1453 12.3359C10.1471 12.0415 10.2557 11.7575 10.45 11.5361C10.337 10.995 10.1921 10.4609 10.0174 9.93652C9.9694 9.75262 9.91399 9.57612 9.866 9.4082C9.64875 9.38099 9.4403 9.30228 9.25956 9.17871C9.07879 9.05496 8.93005 8.88905 8.82596 8.69629C8.74476 8.84788 8.63566 8.98314 8.50565 9.0957C8.37283 9.22718 8.2141 9.33094 8.03983 9.39844C7.86546 9.46588 7.6778 9.49611 7.491 9.48828C7.30437 9.48034 7.12086 9.43432 6.95292 9.35254C6.78483 9.27062 6.6358 9.15397 6.51444 9.01172C6.39307 8.86938 6.3022 8.7034 6.24784 8.52441C6.19354 8.34548 6.17632 8.1574 6.19803 7.97168C6.21978 7.78587 6.27961 7.60597 6.37382 7.44434C6.468 7.2829 6.59506 7.14262 6.74589 7.03223C6.51078 7.02632 6.28112 6.95688 6.08182 6.83203C5.90937 6.75384 5.75447 6.64056 5.6287 6.49902C5.50291 6.35742 5.40869 6.19028 5.35135 6.00977C5.29406 5.82925 5.27562 5.63842 5.29667 5.4502C5.31777 5.26207 5.37769 5.08031 5.47342 4.91699C5.5692 4.75368 5.69845 4.61224 5.85233 4.50195C6.00615 4.39179 6.18167 4.31455 6.36698 4.27637C6.5524 4.23828 6.74458 4.23972 6.92948 4.28027C7.11419 4.32085 7.28887 4.39964 7.4412 4.51172C7.43759 4.44537 7.43758 4.37884 7.4412 4.3125C7.4412 4.13404 7.47647 3.95688 7.54471 3.79199C7.61302 3.62713 7.71348 3.4768 7.83964 3.35059C7.96586 3.22442 8.11616 3.12397 8.28104 3.05566C8.44593 2.98742 8.62309 2.95215 8.80155 2.95215ZM11.4256 13.4561C11.2675 13.4561 11.1127 13.5031 10.9812 13.5908C10.8497 13.6787 10.7469 13.8041 10.6863 13.9502C10.6258 14.0963 10.6105 14.257 10.6414 14.4121C10.6723 14.5673 10.7483 14.7104 10.8601 14.8223C10.9719 14.9338 11.1144 15.0102 11.2693 15.041C11.4244 15.0718 11.5862 15.0556 11.7322 14.9951C11.878 14.9345 12.0029 14.8315 12.0906 14.7002C12.1783 14.5687 12.2254 14.4139 12.2254 14.2559C12.2253 14.0439 12.1408 13.8404 11.991 13.6904C11.8411 13.5406 11.6375 13.4562 11.4256 13.4561ZM17.3738 7C17.2187 7.03085 17.0755 7.10698 16.9637 7.21875C16.852 7.33054 16.7758 7.47295 16.7449 7.62793C16.7141 7.78302 16.7303 7.94374 16.7908 8.08984C16.8513 8.23585 16.9534 8.36135 17.0848 8.44922C17.2163 8.537 17.372 8.58398 17.5301 8.58398C17.7419 8.58375 17.9457 8.49943 18.0955 8.34961C18.2452 8.19963 18.3299 7.99614 18.3299 7.78418C18.3299 7.62614 18.2828 7.4713 18.1951 7.33984C18.1073 7.20839 17.9818 7.10549 17.8357 7.04492C17.6897 6.98447 17.5288 6.96929 17.3738 7ZM8.6453 5.61523C8.49043 5.64607 8.34788 5.72244 8.23612 5.83398C8.12426 5.94584 8.04825 6.08899 8.01737 6.24414C7.98652 6.39923 8.00183 6.55995 8.06229 6.70605C8.12285 6.85217 8.2257 6.97755 8.35721 7.06543C8.48868 7.15316 8.6435 7.20019 8.80155 7.2002C9.01351 7.20008 9.21706 7.11566 9.36698 6.96582C9.51682 6.81587 9.60129 6.61238 9.60135 6.40039C9.60135 6.24231 9.55434 6.08754 9.46659 5.95605C9.37884 5.82473 9.25404 5.72172 9.10819 5.66113C8.96214 5.60063 8.80036 5.58447 8.6453 5.61523Z" fill="#FAFAFA"/>
<path d="M5.52128 10.7441C6.58314 10.6999 7.64045 10.9141 8.60135 11.3682C8.11773 11.5721 7.70944 11.9218 7.43339 12.3682C7.15311 12.8311 7.03741 13.3752 7.10526 13.9121C5.98938 13.4006 4.83315 12.9805 3.64921 12.6562L2.95389 12.4404C2.89476 12.4223 2.84015 12.3897 2.79569 12.3467C2.75129 12.3036 2.71708 12.2509 2.69706 12.1924C2.67674 12.1328 2.67119 12.0692 2.67948 12.0068C2.68781 11.9444 2.71064 11.8842 2.74589 11.832C3.09725 11.4543 3.52924 11.1599 4.00956 10.9717C4.4899 10.7835 5.00682 10.7057 5.52128 10.7441Z" fill="#FAFAFA"/>
</svg>
