<svg width="24" height="24" viewBox="0 0 24 24" fill="none" xmlns="http://www.w3.org/2000/svg">
<path d="M7.8495 17.6898C8.69986 17.6949 9.69292 18.0713 10.6474 18.4564C10.81 18.522 10.9745 18.5891 11.1395 18.6566C11.9957 19.0066 12.8865 19.3706 13.8212 19.6351C14.9283 19.9484 16.0423 20.104 17.1347 19.9271C18.213 19.7523 19.3169 19.2465 20.4042 18.1586C20.6773 17.8853 21.12 17.8848 21.3934 18.1576C21.6668 18.4308 21.6675 18.8743 21.3944 19.1478C20.1084 20.4347 18.7396 21.0852 17.3583 21.3089C15.9908 21.5304 14.657 21.327 13.4403 20.9828C12.4228 20.6948 11.4479 20.2956 10.5927 19.9457C10.4322 19.88 10.2755 19.8163 10.1239 19.7552C9.11297 19.3472 8.37506 19.0924 7.84071 19.0892C6.26572 19.0799 4.74203 19.6522 3.56142 20.6957C3.27175 20.9513 2.83003 20.9236 2.57411 20.6341C2.31809 20.3445 2.34498 19.9019 2.63466 19.6459C4.07327 18.3745 5.93003 17.6784 7.8495 17.6898Z" fill="#FAFAFA"/>
<path d="M7.84755 14.3246C8.74455 14.3252 9.75705 14.6958 10.7284 15.0834C10.9289 15.1634 11.1303 15.2461 11.3329 15.3285C12.1609 15.6653 13.0097 16.0103 13.8974 16.265C14.9924 16.5791 16.0863 16.735 17.161 16.5599C18.2221 16.387 19.315 15.8832 20.4042 14.7933C20.6774 14.5201 21.1201 14.5203 21.3934 14.7933C21.6669 15.0666 21.6677 15.5101 21.3944 15.7836C20.1102 17.0686 18.7545 17.7188 17.3866 17.9418C16.0325 18.1625 14.7158 17.9562 13.5116 17.6107C12.5442 17.3332 11.6088 16.9527 10.7763 16.6136C10.5816 16.5344 10.3924 16.457 10.2099 16.3841C9.19832 15.9806 8.43134 15.7251 7.8456 15.725H7.84071C6.26572 15.7157 4.74203 16.287 3.56142 17.3304C3.27185 17.5862 2.83012 17.5592 2.57411 17.2699C2.31811 16.9802 2.34503 16.5376 2.63466 16.2816C4.0728 15.0106 5.92869 14.3136 7.84755 14.3246Z" fill="#FAFAFA"/>
<path d="M20.4042 11.4291C20.6775 11.1557 21.121 11.1558 21.3944 11.4291C21.6674 11.7023 21.6674 12.145 21.3944 12.4183C19.1465 14.6678 16.7333 14.9267 14.5272 14.4935C14.1479 14.419 13.901 14.0506 13.9755 13.6713C14.0501 13.292 14.4175 13.045 14.7968 13.1195C16.652 13.4838 18.556 13.2783 20.4042 11.4291Z" fill="#FAFAFA"/>
<path d="M12.9911 2.78063C13.1614 2.60587 13.4213 2.55194 13.6474 2.64391C13.8733 2.73593 14.0214 2.95559 14.0214 3.19957V7.25719H15.7401C15.9338 7.25758 16.1236 7.31568 16.2841 7.42418C16.4444 7.53261 16.5689 7.68626 16.6415 7.86559L16.6425 7.86852C16.7138 8.04704 16.7318 8.24251 16.6942 8.43102C16.6571 8.61642 16.5672 8.7878 16.4364 8.92418L11.5243 14.2318C11.3566 14.4128 11.0949 14.4732 10.8651 14.3832C10.6356 14.2931 10.4844 14.0712 10.4843 13.8246V9.81285H8.45692C8.26318 9.81245 8.07345 9.75436 7.91298 9.64586C7.79273 9.56448 7.69308 9.45741 7.62001 9.33336L7.55458 9.2025C7.48312 9.02375 7.46609 8.82779 7.5038 8.63902C7.54147 8.45051 7.63305 8.2765 7.76747 8.13902L12.9911 2.78063Z" fill="#FAFAFA"/>
<path d="M7.8495 10.9603C8.23598 10.9627 8.54709 11.2779 8.54482 11.6644C8.54252 12.051 8.22731 12.3629 7.84071 12.3607C6.26571 12.3514 4.74203 12.9227 3.56142 13.9662C3.27173 14.2219 2.83005 14.1942 2.57411 13.9046C2.3182 13.615 2.34516 13.1733 2.63466 12.9173C4.0733 11.6459 5.92993 10.949 7.8495 10.9603Z" fill="#FAFAFA"/>
</svg>
