<svg width="24" height="24" viewBox="0 0 24 24" fill="none" xmlns="http://www.w3.org/2000/svg">
<path fill-rule="evenodd" clip-rule="evenodd" d="M13.6162 2.71875C14.0302 2.71896 14.3662 3.05564 14.3662 3.46973C14.3659 3.88359 14.0301 4.21952 13.6162 4.21973H11.4795V6.56934H15.7051C16.8415 6.56934 17.7626 7.49156 17.7627 8.62793V10.1855H20.5C20.9141 10.1855 21.2499 10.5214 21.25 10.9355V13.2949C21.2496 13.7088 20.914 14.0449 20.5 14.0449H17.7627V15.6025C17.7623 16.7387 16.8413 17.6602 15.7051 17.6602H13.668V19.6621C13.668 19.7017 13.6641 19.7404 13.6582 19.7783H18.75C19.1641 19.7783 19.4998 20.1143 19.5 20.5283C19.5 20.9425 19.1642 21.2783 18.75 21.2783H2.75C2.33579 21.2783 2 20.9425 2 20.5283C2.00023 20.1143 2.33593 19.7783 2.75 19.7783H8.10059C8.09469 19.7404 8.0918 19.7017 8.0918 19.6621V17.6602H6.9873C4.64734 17.6602 2.75026 15.7628 2.75 13.4229V10.8076C2.75003 8.46751 4.64719 6.56934 6.9873 6.56934H9.97949V4.21973H7.8418C7.42775 4.21973 7.09206 3.88372 7.0918 3.46973C7.0918 3.05551 7.42758 2.71875 7.8418 2.71875H13.6162ZM12.8916 12.708C12.0787 12.167 11.0021 12.3085 10.3555 13.0146L10.2314 13.165C10.0777 13.3694 9.79114 13.4181 9.57812 13.2764L9.15137 12.9922L9.08594 12.9531C8.75438 12.7783 8.33663 12.8787 8.12402 13.1973C7.91139 13.5164 7.97984 13.9419 8.26953 14.1807L8.33008 14.2246L8.75488 14.5088C9.62233 15.0871 10.7905 14.8867 11.416 14.0527L11.4805 13.9834C11.6411 13.839 11.8839 13.8176 12.0703 13.9414L12.4971 14.2246C12.8373 14.4512 13.2965 14.3595 13.5234 14.0195C13.75 13.6792 13.6585 13.2191 13.3184 12.9922L12.8916 12.708ZM12.8916 9.5791C12.0786 9.03774 11.0022 9.17926 10.3555 9.88574L10.2314 10.0352C10.0777 10.2397 9.7912 10.2882 9.57812 10.1465L9.15137 9.8623C8.81118 9.63608 8.35088 9.72755 8.12402 10.0674C7.89721 10.4076 7.99011 10.8677 8.33008 11.0947L8.75488 11.3799C9.62235 11.9582 10.7905 11.7569 11.416 10.9229L11.4805 10.8535C11.6411 10.7093 11.8839 10.6878 12.0703 10.8115L12.4971 11.0947C12.8374 11.3214 13.2965 11.2298 13.5234 10.8896C13.7501 10.5493 13.6586 10.0892 13.3184 9.8623L12.8916 9.5791Z" fill="#FAFAFA"/>
</svg>
