<svg width="24" height="24" viewBox="0 0 24 24" fill="none" xmlns="http://www.w3.org/2000/svg">
<path fill-rule="evenodd" clip-rule="evenodd" d="M13.3047 5C13.3007 5.00517 13.2967 5.01033 13.2927 5.01549L13.3047 5Z" fill="#FAFAFA"/>
<path fill-rule="evenodd" clip-rule="evenodd" d="M8.00826 18.4354C8.01707 18.4431 8.02593 18.4508 8.03479 18.4584L8.00826 18.4354ZM11.1904 17.7529C11.189 17.7563 11.1874 17.7595 11.1858 17.7628L11.1904 17.7529ZM11.0007 18.1016C10.9956 18.1093 10.9902 18.117 10.9849 18.1246L11.0007 18.1016Z" fill="#FAFAFA"/>
<path d="M22 7C22 5.89544 21.1046 5 20 5H18.8623C19.0396 5.24033 19.192 5.49818 19.3154 5.76465C19.4241 5.99942 19.5141 6.24529 19.5879 6.5H20C20.2761 6.5 20.5 6.72386 20.5 7V17C20.5 17.2761 20.2761 17.5 20 17.5H16.4111L12.8262 17.5186C12.7159 18.0336 12.5133 18.5471 12.208 19H20C21.1046 19 22 18.1046 22 17V7Z" fill="#FAFAFA"/>
<path d="M12.9258 5.55078L13.1572 5.19629C13.2001 5.1354 13.2462 5.07572 13.2927 5.01549L13.3047 5H4C2.89543 5 2 5.89544 2 7V17C2 18.1046 2.89543 19 4 19H6.49805C6.16273 18.5585 5.91888 18.0461 5.7959 17.5H4C3.72386 17.5 3.5 17.2761 3.5 17V7C3.5 6.72386 3.72386 6.5 4 6.5H12.4463C12.5878 6.16757 12.7464 5.84731 12.9258 5.55078Z" fill="#FAFAFA"/>
<path fill-rule="evenodd" clip-rule="evenodd" d="M10.3545 15.1035C10.6125 15.1185 10.8923 15.2098 11.1045 15.4648C11.2989 15.6988 11.3856 16.0111 11.418 16.3545C11.4628 16.832 11.3811 17.324 11.1904 17.7529C11.189 17.7563 11.1874 17.7595 11.1858 17.7628C11.1844 17.7657 11.1871 17.7599 11.1858 17.7628C11.1347 17.8753 11.0669 17.9995 11.0007 18.1016C10.994 18.112 10.992 18.1144 10.9849 18.1246L10.9746 18.1397C10.9566 18.166 10.938 18.1932 10.9189 18.2188C10.9055 18.2368 10.8919 18.2548 10.8779 18.2725C10.8494 18.3084 10.8197 18.3431 10.7891 18.377C10.7609 18.4081 10.7321 18.4385 10.7021 18.4678C10.6858 18.4837 10.6692 18.4993 10.6523 18.5147C10.6281 18.5368 10.6026 18.5575 10.5771 18.5782L10.5664 18.5869C10.5416 18.6071 10.5151 18.6286 10.4893 18.6475C10.4524 18.6744 10.4148 18.7004 10.376 18.7246C10.3628 18.7328 10.3493 18.7406 10.3358 18.7485C10.3333 18.75 10.3384 18.747 10.3358 18.7485C10.2919 18.774 10.2397 18.8032 10.1934 18.8252C10.1834 18.8299 10.1733 18.8344 10.1632 18.8389C10.1602 18.8402 10.1661 18.8375 10.1632 18.8389C10.1125 18.8614 10.0515 18.8853 9.99805 18.9033C9.98285 18.9084 9.96756 18.9132 9.95215 18.918C9.89213 18.9364 9.83089 18.9534 9.76758 18.9658L9.66211 18.9834C9.65106 18.9849 9.63994 18.9856 9.62882 18.9864C9.6207 18.9869 9.61258 18.9875 9.60449 18.9883C9.58746 18.99 9.57045 18.9911 9.55343 18.9922L9.53809 18.9932C9.49565 18.996 9.45344 18.9972 9.41113 18.9971C9.38898 18.997 9.3639 18.997 9.3418 18.9961C9.30125 18.9945 9.26098 18.9915 9.2207 18.9873L9.20522 18.9857C9.18952 18.9842 9.17384 18.9826 9.1582 18.9805C9.11589 18.9747 9.07409 18.9666 9.03223 18.958L9.00909 18.9535C8.9943 18.9507 8.97951 18.9479 8.96484 18.9443C8.94072 18.9385 8.91687 18.9315 8.89305 18.9245L8.87402 18.9189C8.86331 18.9158 8.85254 18.9129 8.84176 18.91C8.82082 18.9043 8.79987 18.8986 8.7793 18.8916C8.73675 18.877 8.69501 18.8601 8.65332 18.8428C8.64656 18.84 8.63972 18.8373 8.63288 18.8347C8.62336 18.831 8.61383 18.8274 8.60449 18.8232C8.5485 18.7984 8.49351 18.7708 8.43945 18.7412C8.42223 18.7318 8.4055 18.7215 8.38874 18.7112L8.36426 18.6963L8.35449 18.6904C8.32956 18.6755 8.30461 18.6606 8.28027 18.6445C8.24502 18.6213 8.21085 18.5965 8.17676 18.5713L8.15815 18.5579C8.14863 18.5511 8.13911 18.5443 8.12988 18.5371C8.09927 18.5133 8.06432 18.4838 8.03479 18.4584C8.01453 18.4409 7.99427 18.4235 7.97461 18.4053C7.95428 18.3865 7.93479 18.3668 7.91527 18.347L7.90234 18.334C7.88112 18.3126 7.86031 18.2908 7.83984 18.2686C7.81361 18.2401 7.78763 18.2114 7.7627 18.1816C7.75219 18.1691 7.74208 18.1562 7.73197 18.1433L7.7207 18.1289C7.69045 18.0907 7.66084 18.0519 7.63281 18.0117C7.62885 18.006 7.62505 18.0002 7.62125 17.9945L7.61328 17.9824C7.58505 17.9407 7.55792 17.8982 7.53223 17.8545C7.52842 17.848 7.52481 17.8414 7.5212 17.8349L7.51367 17.8213C7.42622 17.6672 7.35271 17.503 7.30078 17.3291L7.24609 17.1064C7.18826 16.8087 7.18699 16.5218 7.28418 16.2627C7.3859 15.9921 7.57264 15.8077 7.78223 15.6846C7.98017 15.5684 8.20527 15.5025 8.40918 15.4551C8.55531 15.4211 8.71923 15.3902 8.87598 15.3613L8.91772 15.3537C8.96264 15.3454 9.00704 15.3373 9.0498 15.3291C9.18633 15.303 9.31026 15.2728 9.44238 15.2402C9.51383 15.2226 9.58894 15.2041 9.66895 15.1856C9.87147 15.1387 10.1171 15.0898 10.3545 15.1035Z" fill="#FAFAFA"/>
<path fill-rule="evenodd" clip-rule="evenodd" d="M13.8252 12.6182C14.004 12.6283 14.1802 12.665 14.332 12.7002C14.4128 12.7189 14.4876 12.7371 14.5596 12.7549L14.5983 12.7645C14.7155 12.7935 14.8274 12.8212 14.9502 12.8447C14.9666 12.8479 14.9833 12.8508 15.0002 12.8537C15.0144 12.8562 15.0287 12.8587 15.043 12.8613L15.127 12.877C15.2827 12.9056 15.4458 12.936 15.5908 12.9697C15.7947 13.0172 16.0198 13.084 16.2178 13.2002C16.2703 13.231 16.3214 13.2658 16.3701 13.3047C16.4186 13.3434 16.465 13.3861 16.5078 13.4336C16.5937 13.5289 16.6659 13.6429 16.7168 13.7783C16.7533 13.8756 16.7762 13.9768 16.7871 14.0811C16.798 14.1851 16.7972 14.2922 16.7871 14.4014C16.7804 14.4741 16.7693 14.5477 16.7549 14.6221C16.7416 14.6906 16.7252 14.758 16.7061 14.8242C16.6869 14.8906 16.6652 14.9558 16.6406 15.0195C16.5667 15.2108 16.4692 15.3899 16.3525 15.5527C16.3137 15.607 16.2724 15.6594 16.2295 15.71C16.058 15.9121 15.8556 16.0837 15.6338 16.2158C15.5783 16.2489 15.5216 16.2796 15.4639 16.3076C15.3485 16.3635 15.2287 16.4084 15.1064 16.4424C14.9228 16.4935 14.7331 16.519 14.542 16.5147L14.3379 16.499L14.2324 16.4814C14.1652 16.4683 14.0997 16.4516 14.0361 16.4316C13.0863 16.1333 12.5541 15.1027 12.5703 14.0869L12.583 13.8701C12.6154 13.5267 12.7012 13.2145 12.8955 12.9805C13.1077 12.7255 13.3884 12.6332 13.6465 12.6182C13.7058 12.6148 13.7656 12.6148 13.8252 12.6182Z" fill="#FAFAFA"/>
<path fill-rule="evenodd" clip-rule="evenodd" d="M16.1328 5.00391C16.3363 5.01867 16.5288 5.0636 16.709 5.13477C16.8891 5.20596 17.0571 5.30323 17.2109 5.42383C17.5185 5.66487 17.7703 5.99777 17.9541 6.39453C17.9768 6.44361 17.9987 6.49372 18.0195 6.54493C18.0612 6.64753 18.0991 6.75437 18.1328 6.86524C18.1835 7.03176 18.2247 7.20749 18.2568 7.39161C18.2995 7.63652 18.3257 7.8965 18.334 8.16993C18.3465 8.58059 18.3191 9.02173 18.249 9.48828L18.1934 9.82129C18.1755 9.91676 18.1566 10.0109 18.1357 10.1035C18.0732 10.3814 17.9962 10.6454 17.9004 10.8897C17.7726 11.2154 17.6111 11.506 17.4053 11.7481L17.3076 11.8555C17.2765 11.8877 17.2445 11.9185 17.2119 11.9482C17.0814 12.0674 16.9397 12.1669 16.7871 12.2461C16.4819 12.4044 16.1331 12.4831 15.7441 12.4814C15.5981 12.4809 15.4463 12.4685 15.2891 12.4453C14.4959 12.3279 13.8765 11.9706 13.5273 11.3164C13.2375 10.7727 13.1699 10.0885 13.25 9.31153L13.293 8.97364C13.4155 8.15951 13.6812 7.31291 14.0469 6.61621L14.209 6.32813C14.4337 5.95683 14.7023 5.62077 15.0127 5.37989C15.2865 5.16753 15.6126 5.01489 15.9756 5.00098C16.0273 4.99898 16.0797 5.00008 16.1328 5.00391Z" fill="#FAFAFA"/>
<path fill-rule="evenodd" clip-rule="evenodd" d="M7.86328 7.48926C8.28966 7.4554 8.67104 7.62007 8.9834 7.86231C9.29352 8.10293 9.562 8.43898 9.78711 8.81055C10.2375 9.5541 10.566 10.5276 10.7061 11.458C10.8438 12.375 10.8049 13.1805 10.4736 13.8018C10.1244 14.4564 9.50366 14.8133 8.70996 14.9307C7.81648 15.0626 7.10148 14.8282 6.59473 14.2324C6.18334 13.7485 5.94923 13.0701 5.80664 12.3057L5.75098 11.9727C5.57595 10.8068 5.66798 9.80171 5.98047 9.03321L6.0459 8.88282C6.41392 8.08958 7.05269 7.55385 7.86328 7.48926Z" fill="#FAFAFA"/>
</svg>
