<svg width="24" height="24" viewBox="0 0 24 24" fill="none" xmlns="http://www.w3.org/2000/svg">
<path fill-rule="evenodd" clip-rule="evenodd" d="M10 13C10.9665 13 11.75 13.7835 11.75 14.75C11.75 15.7165 10.9665 16.5 10 16.5C9.0335 16.5 8.25 15.7165 8.25 14.75C8.25 13.7835 9.0335 13 10 13ZM10 14.5C9.86193 14.5 9.75 14.6119 9.75 14.75C9.75 14.8881 9.86193 15 10 15C10.1381 15 10.25 14.8881 10.25 14.75C10.25 14.6119 10.1381 14.5 10 14.5Z" fill="#FAFAFA"/>
<path fill-rule="evenodd" clip-rule="evenodd" d="M14 13C14.9665 13 15.75 13.7835 15.75 14.75C15.75 15.7165 14.9665 16.5 14 16.5C13.0335 16.5 12.25 15.7165 12.25 14.75C12.25 13.7835 13.0335 13 14 13ZM14 14.5C13.8619 14.5 13.75 14.6119 13.75 14.75C13.75 14.8881 13.8619 15 14 15C14.1381 15 14.25 14.8881 14.25 14.75C14.25 14.6119 14.1381 14.5 14 14.5Z" fill="#FAFAFA"/>
<path fill-rule="evenodd" clip-rule="evenodd" d="M8 9.25C8.9665 9.25 9.75 10.0335 9.75 11C9.75 11.9665 8.9665 12.75 8 12.75C7.0335 12.75 6.25 11.9665 6.25 11C6.25 10.0335 7.0335 9.25 8 9.25ZM8 10.75C7.86193 10.75 7.75 10.8619 7.75 11C7.75 11.1381 7.86193 11.25 8 11.25C8.13807 11.25 8.25 11.1381 8.25 11C8.25 10.8619 8.13807 10.75 8 10.75Z" fill="#FAFAFA"/>
<path fill-rule="evenodd" clip-rule="evenodd" d="M12 9.25C12.9665 9.25 13.75 10.0335 13.75 11C13.75 11.9665 12.9665 12.75 12 12.75C11.0335 12.75 10.25 11.9665 10.25 11C10.25 10.0335 11.0335 9.25 12 9.25ZM12 10.75C11.8619 10.75 11.75 10.8619 11.75 11C11.75 11.1381 11.8619 11.25 12 11.25C12.1381 11.25 12.25 11.1381 12.25 11C12.25 10.8619 12.1381 10.75 12 10.75Z" fill="#FAFAFA"/>
<path fill-rule="evenodd" clip-rule="evenodd" d="M16 9.25C16.9665 9.25 17.75 10.0335 17.75 11C17.75 11.9665 16.9665 12.75 16 12.75C15.0335 12.75 14.25 11.9665 14.25 11C14.25 10.0335 15.0335 9.25 16 9.25ZM16 10.75C15.8619 10.75 15.75 10.8619 15.75 11C15.75 11.1381 15.8619 11.25 16 11.25C16.1381 11.25 16.25 11.1381 16.25 11C16.25 10.8619 16.1381 10.75 16 10.75Z" fill="#FAFAFA"/>
<path d="M10 7C10.5523 7 11 7.44772 11 8C11 8.55228 10.5523 9 10 9C9.44772 9 9 8.55228 9 8C9 7.44772 9.44772 7 10 7Z" fill="#FAFAFA"/>
<path d="M14 7C14.5523 7 15 7.44772 15 8C15 8.55228 14.5523 9 14 9C13.4477 9 13 8.55228 13 8C13 7.44772 13.4477 7 14 7Z" fill="#FAFAFA"/>
<path fill-rule="evenodd" clip-rule="evenodd" d="M19.1543 2.00391C20.7394 2.08421 22 3.39489 22 5V19L21.9961 19.1543C21.9184 20.6883 20.6883 21.9184 19.1543 21.9961L19 22H5L4.8457 21.9961C3.31166 21.9184 2.08163 20.6883 2.00391 19.1543L2 19V5C2 3.39489 3.26055 2.08421 4.8457 2.00391L5 2H19L19.1543 2.00391ZM8.3584 4.75C6.44439 4.75012 4.82794 6.17189 4.58398 8.07031L4.27539 10.4697C3.67715 15.1264 7.30505 19.2499 12 19.25C16.6951 19.25 20.3229 15.1265 19.7246 10.4697L19.416 8.07031C19.172 6.17183 17.5557 4.75 15.6416 4.75H8.3584Z" fill="#FAFAFA"/>
</svg>
