<svg width="24" height="24" viewBox="0 0 24 24" fill="none" xmlns="http://www.w3.org/2000/svg">
<path d="M13.4885 18.8399C13.5592 18.8405 13.6291 18.8587 13.6907 18.8936C13.7523 18.9286 13.8043 18.9795 13.841 19.0401C13.8759 19.1007 13.8947 19.1694 13.8948 19.2393C13.8948 19.3095 13.8761 19.3787 13.841 19.4395C13.4395 20.156 12.8943 20.7822 12.2405 21.2793C12.1722 21.3328 12.0879 21.3612 12.0012 21.3594C11.9146 21.36 11.8299 21.3318 11.761 21.2793C11.113 20.7805 10.5739 20.1545 10.177 19.4395C10.1419 19.3787 10.1233 19.3095 10.1233 19.2393C10.1233 19.1693 10.142 19.1007 10.177 19.0401C10.2138 18.9795 10.2658 18.9286 10.3274 18.8936C10.3888 18.8588 10.458 18.8405 10.5285 18.8399H13.4885Z" fill="#FAFAFA"/>
<path d="M14.384 15.6397C14.4383 15.6407 14.4926 15.6529 14.5422 15.6749C14.5916 15.6968 14.636 15.7284 14.6731 15.7676C14.7103 15.8071 14.74 15.8535 14.759 15.9043C14.778 15.9551 14.7865 16.0093 14.7844 16.0635C14.7577 16.4887 14.6991 16.9119 14.6086 17.3282C14.5916 17.4168 14.5438 17.4968 14.4739 17.5538C14.4037 17.6108 14.3152 17.6412 14.2248 17.6397H9.77659C9.6861 17.6413 9.59783 17.6108 9.52757 17.5538C9.45745 17.4968 9.40985 17.4169 9.39281 17.3282C9.29697 16.9123 9.2324 16.4891 9.20042 16.0635C9.19979 15.9544 9.24001 15.8489 9.31273 15.7676C9.34953 15.728 9.39416 15.6958 9.44359 15.6739C9.493 15.652 9.54677 15.6404 9.60081 15.6397H14.384Z" fill="#FAFAFA"/>
<path d="M16.1643 9.70708C16.1909 9.70708 16.2174 9.71431 16.2405 9.72759L20.6643 13.5352C21.6003 14.3272 21.6005 15.016 21.5285 15.504C21.3958 15.8447 21.1688 16.1408 20.8743 16.3575C20.5796 16.5741 20.2293 16.7024 19.8645 16.7276C19.7101 16.7398 19.555 16.7398 19.4006 16.7276C18.99 16.7389 18.5832 16.6482 18.216 16.4639C17.8491 16.2797 17.5333 16.0078 17.2971 15.6719C16.6731 14.6959 15.5124 12.9517 15.2004 12.4717C15.1774 12.4374 15.1653 12.3968 15.1653 12.3555C15.1653 12.3143 15.1774 12.2736 15.2004 12.2393C15.7233 11.5489 16.0043 10.7059 16.0002 9.8399C16.0039 9.81537 16.0143 9.79206 16.0295 9.77251C16.045 9.75288 16.066 9.73703 16.0891 9.72759C16.112 9.71445 16.1379 9.70714 16.1643 9.70708Z" fill="#FAFAFA"/>
<path d="M7.83714 9.68365C7.86363 9.68372 7.88938 9.69093 7.91234 9.70415C7.93888 9.71535 7.96208 9.73371 7.97777 9.75786C7.99346 9.78212 8.00187 9.81101 8.0012 9.8399C8.02591 10.6968 8.32866 11.5223 8.86448 12.1915C8.88751 12.2257 8.89962 12.2664 8.89964 12.3077C8.89964 12.349 8.88753 12.3896 8.86448 12.4239C8.55231 12.9361 7.3927 14.6802 6.76878 15.6241C6.5326 15.9599 6.21675 16.2318 5.84984 16.4161C5.4827 16.6003 5.07491 16.6911 4.66429 16.6797C4.51001 16.6919 4.3547 16.6919 4.20042 16.6797C3.83563 16.6545 3.48522 16.5263 3.19066 16.3096C2.89612 16.0929 2.66904 15.7968 2.53636 15.4561C2.38436 15.0161 2.42514 14.3362 3.33714 13.5362L7.76097 9.70415C7.78407 9.69082 7.81047 9.68365 7.83714 9.68365Z" fill="#FAFAFA"/>
<path d="M12.0002 7.04009C12.6065 7.0399 13.1966 7.23692 13.6809 7.60161C14.1652 7.96646 14.5176 8.47966 14.6848 9.06255C14.8518 9.64524 14.8248 10.2662 14.6076 10.8321C14.3903 11.3982 13.995 11.879 13.4807 12.2002C13.8959 12.7099 14.2277 13.2821 14.4641 13.8956C14.4936 13.9524 14.509 14.0161 14.509 14.0801C14.509 14.1441 14.4935 14.2069 14.4641 14.2637C14.4283 14.3179 14.3797 14.3629 14.3225 14.3936C14.2654 14.4241 14.2016 14.4396 14.1369 14.4395H9.88011C9.81576 14.4386 9.75219 14.4222 9.69554 14.3917C9.63893 14.361 9.59 14.317 9.55394 14.2637C9.51795 14.2104 9.49578 14.149 9.48851 14.085C9.48123 14.0209 9.48969 13.9557 9.51292 13.8956C9.74931 13.2821 10.0811 12.7099 10.4963 12.2002C9.9861 11.8745 9.59507 11.3919 9.38206 10.8252C9.1691 10.2586 9.14631 9.63789 9.31566 9.05669C9.48508 8.47543 9.83835 7.96419 10.3225 7.60064C10.8065 7.23734 11.3951 7.04077 12.0002 7.04009Z" fill="#FAFAFA"/>
<path d="M15.6008 2.6397C15.8129 2.6397 16.0162 2.72412 16.1662 2.87407C16.3162 3.02405 16.4006 3.22742 16.4006 3.4395C16.4006 3.65168 16.3163 3.85588 16.1662 4.00591C16.0162 4.15571 15.8128 4.23931 15.6008 4.23931C14.8522 4.24009 14.1275 4.50363 13.553 4.98345C13.8001 5.27453 13.9507 5.63534 13.9846 6.01568C13.9887 6.05148 13.9826 6.08765 13.967 6.12017C13.9515 6.15266 13.9271 6.17997 13.8967 6.19927C13.8664 6.21678 13.8321 6.22656 13.7971 6.22661C13.762 6.22661 13.7269 6.21682 13.6965 6.19927C13.1671 5.94657 12.5878 5.81554 12.0012 5.81548C11.4144 5.81548 10.8345 5.94646 10.3049 6.19927C10.2745 6.21682 10.2394 6.22661 10.2043 6.22661C10.1694 6.22653 10.135 6.21674 10.1047 6.19927C10.0744 6.17997 10.0499 6.15261 10.0344 6.12017C10.0189 6.08767 10.0127 6.05145 10.0168 6.01568C10.0508 5.63533 10.2013 5.27453 10.4485 4.98345C9.87391 4.50369 9.14915 4.24009 8.40062 4.23931C8.18864 4.23926 7.98515 4.15573 7.83519 4.00591C7.68516 3.85588 7.60081 3.65168 7.60081 3.4395C7.60088 3.22742 7.68522 3.02405 7.83519 2.87407C7.98517 2.72411 8.18853 2.63975 8.40062 2.6397C9.0797 2.63655 9.75174 2.77797 10.3723 3.05376C10.9929 3.32956 11.5485 3.73315 12.0012 4.23931C12.4538 3.73336 13.0088 3.32949 13.6291 3.05376C14.2497 2.77795 14.9217 2.63655 15.6008 2.6397Z" fill="#FAFAFA"/>
</svg>
