<svg width="24" height="24" viewBox="0 0 24 24" fill="none" xmlns="http://www.w3.org/2000/svg">
<path fill-rule="evenodd" clip-rule="evenodd" d="M15.1484 2.09473C16.6251 2.09522 17.8266 3.25994 17.8916 4.7207H19C20.1046 4.7207 21 5.61711 21 6.72168V19.7217C20.9997 20.826 20.1044 21.7217 19 21.7217H5C3.89543 21.7217 3 20.8253 3 19.7207V6.7207C3.00026 5.61636 3.89559 4.7207 5 4.7207H6.1084C6.17343 3.25963 7.37543 2.09473 8.85254 2.09473H15.1484ZM9.50781 14.8018C9.24135 14.8019 9.01371 14.8998 8.8252 15.0957C8.63654 15.2919 8.54199 15.5262 8.54199 15.7969C8.5421 16.0736 8.63665 16.3092 8.8252 16.5029C9.01381 16.6966 9.23989 16.793 9.50293 16.793C9.77206 16.793 10.0011 16.696 10.1895 16.502C10.3776 16.308 10.4716 16.0733 10.4717 15.7979C10.4717 15.5275 10.3782 15.2934 10.1904 15.0967C10.0026 14.9 9.77457 14.8018 9.50781 14.8018ZM14.4814 14.8018C14.2121 14.8018 13.9825 14.8997 13.7939 15.0957C13.6053 15.2919 13.5108 15.5274 13.5107 15.8018C13.5107 16.0762 13.6043 16.3107 13.792 16.5039C13.9797 16.6971 14.2084 16.793 14.4775 16.793C14.7467 16.793 14.9756 16.696 15.1641 16.502C15.3523 16.308 15.4462 16.0733 15.4463 15.7979C15.4463 15.5274 15.3531 15.2934 15.166 15.0967C14.979 14.9001 14.7507 14.8019 14.4814 14.8018ZM6.92383 12.5039C6.65442 12.5039 6.42706 12.6006 6.24121 12.793C6.05532 12.9854 5.96193 13.2188 5.96191 13.4932C5.96191 13.7675 6.05431 14.0033 6.23926 14.2002C6.42421 14.397 6.65157 14.496 6.9209 14.4961C7.19042 14.4961 7.41974 14.3974 7.6084 14.2012C7.79705 14.005 7.8916 13.7717 7.8916 13.501C7.89159 13.2303 7.79717 12.9967 7.60938 12.7998C7.42158 12.6029 7.19329 12.5039 6.92383 12.5039ZM12.0137 12.5039C11.7469 12.5039 11.5176 12.6026 11.3262 12.7988C11.1348 12.995 11.0391 13.2283 11.0391 13.499C11.0391 13.7696 11.1345 14.0033 11.3252 14.2002C11.5159 14.397 11.7428 14.4961 12.0059 14.4961C12.2749 14.496 12.504 14.3973 12.6924 14.2012C12.8806 14.005 12.9746 13.7715 12.9746 13.501C12.9746 13.2304 12.8812 12.9967 12.6943 12.7998C12.5074 12.603 12.2802 12.504 12.0137 12.5039ZM17.0703 12.5039C16.8014 12.504 16.5731 12.6027 16.3848 12.7988C16.1964 12.995 16.1016 13.2283 16.1016 13.499C16.1016 13.7696 16.1958 14.0033 16.3828 14.2002C16.5699 14.397 16.7968 14.4961 17.0635 14.4961C17.3301 14.496 17.5587 14.3972 17.75 14.2012C17.9414 14.005 18.0381 13.7717 18.0381 13.501C18.0381 13.2304 17.9424 12.9967 17.752 12.7998C17.5613 12.6029 17.3335 12.5039 17.0703 12.5039ZM9.46484 10.207C9.19813 10.2071 8.97086 10.304 8.78223 10.498C8.59357 10.6921 8.49902 10.9257 8.49902 11.1992C8.49904 11.4789 8.59359 11.7143 8.78223 11.9053C8.97084 12.0961 9.19692 12.1914 9.45996 12.1914C9.72883 12.1913 9.95724 12.0964 10.1455 11.9062C10.3338 11.716 10.4286 11.4822 10.4287 11.2051C10.4287 10.9278 10.3343 10.6921 10.1465 10.498C9.95867 10.304 9.73159 10.207 9.46484 10.207ZM14.5352 10.207C14.2656 10.207 14.0363 10.304 13.8477 10.498C13.6592 10.6921 13.5645 10.9258 13.5645 11.1992C13.5645 11.4789 13.6586 11.7143 13.8457 11.9053C14.0327 12.0962 14.2609 12.1914 14.5303 12.1914C14.7998 12.1914 15.0291 12.0966 15.2178 11.9062C15.4063 11.716 15.5009 11.4822 15.501 11.2051C15.501 10.9278 15.4068 10.6921 15.2197 10.498C15.0326 10.304 14.8047 10.207 14.5352 10.207Z" fill="#FAFAFA"/>
</svg>
