<svg width="24" height="24" viewBox="0 0 24 24" fill="none" xmlns="http://www.w3.org/2000/svg">
<path d="M3.10955 17.2158C3.31943 17.186 3.53271 17.241 3.70232 17.3682C4.28239 17.8263 4.79399 18.365 5.22185 18.9678C5.64817 18.3661 6.15788 17.8278 6.73455 17.3682C6.90424 17.2409 7.11736 17.1858 7.32732 17.2158C7.53736 17.2458 7.72736 17.3586 7.85466 17.5283C7.98174 17.698 8.036 17.9112 8.00603 18.1211C7.97602 18.3311 7.86425 18.5211 7.69451 18.6484C6.91494 19.2498 6.32563 20.0636 5.99822 20.9922C5.97109 21.1006 5.92144 21.202 5.85271 21.29C5.78381 21.3782 5.69661 21.4513 5.59783 21.5039H5.63787C5.51637 21.574 5.37872 21.6113 5.23845 21.6113C5.09802 21.6113 4.95968 21.5741 4.83806 21.5039C4.74084 21.4504 4.65551 21.3772 4.58806 21.2891C4.52073 21.201 4.47268 21.0999 4.44646 20.9922C4.11447 20.064 3.52279 19.2506 2.74236 18.6484C2.57262 18.5211 2.45986 18.3311 2.42986 18.1211C2.3999 17.9112 2.45503 17.698 2.5822 17.5283C2.70951 17.3586 2.89951 17.2458 3.10955 17.2158Z" fill="#FAFAFA"/>
<path d="M9.50212 17.2158C9.60597 17.201 9.71203 17.2074 9.81365 17.2334C9.91528 17.2595 10.011 17.3052 10.0949 17.3682C10.6714 17.8277 11.1804 18.3662 11.6066 18.9678C12.0345 18.3648 12.5469 17.8264 13.1271 17.3682H13.1183C13.2881 17.2409 13.502 17.1858 13.7121 17.2158C13.9221 17.2458 14.1112 17.3586 14.2385 17.5283C14.3657 17.698 14.4208 17.9111 14.3908 18.1211C14.3608 18.3311 14.249 18.5211 14.0793 18.6484C13.2987 19.2506 12.7072 20.0639 12.3752 20.9922C12.3489 21.1 12.3 21.201 12.2326 21.2891C12.1651 21.3772 12.0799 21.4504 11.9826 21.5039C11.8669 21.5655 11.7377 21.5977 11.6066 21.5977C11.4755 21.5976 11.3463 21.5655 11.2306 21.5039C11.1319 21.4513 11.0456 21.3782 10.9767 21.29C10.9079 21.2019 10.8584 21.1006 10.8312 20.9922C10.501 20.0652 9.91209 19.252 9.13494 18.6484C8.9652 18.5211 8.85244 18.3311 8.82244 18.1211C8.79248 17.9112 8.84761 17.698 8.97478 17.5283C9.10208 17.3586 9.29208 17.2458 9.50212 17.2158Z" fill="#FAFAFA"/>
<path d="M20.0617 20.1445C20.081 20.3229 20.0641 20.5035 20.0109 20.6748C19.9577 20.846 19.8699 21.0046 19.7531 21.1406C19.6361 21.2768 19.4917 21.3874 19.3302 21.4658C19.1688 21.5442 18.993 21.589 18.8136 21.5967C18.6345 21.6043 18.4557 21.5749 18.2883 21.5107C18.1206 21.4465 17.9672 21.3483 17.839 21.2227C17.7109 21.0971 17.6098 20.9465 17.5422 20.7803C17.4745 20.614 17.4424 20.4353 17.4465 20.2559V18.9443L20.0617 20.1445Z" fill="#FAFAFA"/>
<path d="M17.0197 9.00684C17.211 9.02408 17.3959 9.0862 17.5578 9.18945C17.7196 9.29265 17.8541 9.4336 17.9504 9.59961C19.9973 13.4456 19.998 13.4959 20.0539 13.7676V16.04L17.4621 14.584V13.7119L16.6623 12.3359L15.8146 13.3516C15.6763 13.5245 15.4895 13.6527 15.2785 13.7197C15.1985 13.7517 15.0947 13.6001 16.6467 14.9521C17.8715 16.1412 19.3437 17.045 20.9582 17.5996C21.1672 17.6484 21.3488 17.7787 21.4621 17.9609C21.5752 18.1432 21.6114 18.3634 21.5627 18.5723C21.5138 18.7811 21.3836 18.962 21.2013 19.0752C21.0191 19.1884 20.799 19.2246 20.59 19.1758C18.7093 18.5768 16.9944 17.5469 15.5822 16.168C14.8975 15.5042 14.1467 14.9122 13.342 14.4004L12.3664 14.752C12.1913 14.816 12.0037 14.838 11.8185 14.8164C11.6333 14.7948 11.4556 14.7297 11.3 14.627C11.1445 14.5243 11.0147 14.3872 10.922 14.2256C10.8294 14.0639 10.7767 13.8823 10.7668 13.6963C10.213 13.6544 9.65573 13.6864 9.11052 13.792C8.91369 13.8227 8.71231 13.7787 8.54607 13.6689C8.37985 13.5592 8.26013 13.3913 8.21111 13.1982C8.16215 13.0052 8.18771 12.8007 8.28142 12.625C8.37511 12.4495 8.53054 12.3149 8.71794 12.248C9.85404 12.0017 11.0301 12.0017 12.1662 12.248L14.2228 11.5596L15.9982 9.42383C16.1227 9.27763 16.2805 9.16345 16.4582 9.09082C16.6359 9.01822 16.8285 8.98963 17.0197 9.00684Z" fill="#FAFAFA"/>
<path d="M4.84685 10.2148C4.90623 10.2148 4.96487 10.2279 5.01873 10.2529C5.07262 10.278 5.12105 10.3149 5.15935 10.3604C5.44822 10.7215 6.87877 12.568 6.87908 13.5996C6.88765 14.1478 6.67791 14.6769 6.29705 15.0713C5.91618 15.4656 5.39499 15.6936 4.84685 15.7041C4.30024 15.6915 3.78066 15.4633 3.40154 15.0693C3.02239 14.6752 2.81385 14.1464 2.82244 13.5996C2.82274 12.5676 4.25529 10.7204 4.53533 10.3604C4.57363 10.3149 4.62108 10.278 4.67498 10.2529C4.72883 10.2279 4.78746 10.2148 4.84685 10.2148Z" fill="#FAFAFA"/>
<path d="M17.2863 6.5918C17.2863 7.12223 17.0754 7.63079 16.7004 8.00586C16.3253 8.38091 15.8167 8.5918 15.2863 8.5918C14.7559 8.59175 14.2473 8.38089 13.8722 8.00586C13.4973 7.6308 13.2863 7.12216 13.2863 6.5918V6.19238H17.2863V6.5918Z" fill="#FAFAFA"/>
<path d="M15.2863 2.4043C15.7096 2.40431 16.1219 2.53877 16.464 2.78809C16.8062 3.03748 17.061 3.38891 17.1906 3.79199H19.4865C19.6986 3.79206 19.902 3.87641 20.0519 4.02637C20.2019 4.17632 20.2862 4.37973 20.2863 4.5918C20.2863 4.80397 20.202 5.00817 20.0519 5.1582C19.902 5.30804 19.6985 5.39251 19.4865 5.39258H11.4299C11.2179 5.39248 11.0144 5.30805 10.8644 5.1582C10.7144 5.00817 10.6301 4.80397 10.6301 4.5918C10.6301 4.37975 10.7145 4.17632 10.8644 4.02637C11.0144 3.87643 11.2178 3.79209 11.4299 3.79199H13.382C13.5116 3.38892 13.7664 3.03748 14.1086 2.78809C14.4507 2.5388 14.863 2.4043 15.2863 2.4043Z" fill="#FAFAFA"/>
</svg>
