<svg width="24" height="24" viewBox="0 0 24 24" fill="none" xmlns="http://www.w3.org/2000/svg">
<path d="M13.9668 3.09644C15.1584 2.87941 16.3877 3.03068 17.4912 3.53003L17.5723 3.573C17.7536 3.6836 17.8813 3.86706 17.9199 4.07886C17.9583 4.29047 17.904 4.50728 17.7734 4.67456L17.7129 4.74292L14.4443 8.01148L14.4199 8.04956C14.4144 8.06333 14.4112 8.0784 14.4111 8.09351C14.4113 8.12419 14.4229 8.15456 14.4443 8.17652L15.8232 9.55542L15.8613 9.57984C15.8753 9.58553 15.8908 9.58863 15.9062 9.58863C15.9368 9.58853 15.9663 9.57665 15.9883 9.55542L19.2568 6.28687L19.3252 6.22632C19.4926 6.09565 19.7091 6.04132 19.9209 6.07984C20.1631 6.12399 20.3682 6.28427 20.4697 6.50855C20.9689 7.61194 21.1203 8.84149 20.9033 10.033C20.6861 11.2245 20.1113 12.323 19.2549 13.1794C18.3984 14.0358 17.3008 14.6107 16.1094 14.8279C15.0913 15.0134 14.0454 14.9292 13.0742 14.5896L7.4248 20.241C6.9388 20.7268 6.27902 20.9997 5.5918 20.9998C4.99046 20.9998 4.41036 20.7906 3.94922 20.4128L3.75879 20.241C3.27286 19.755 3.00013 19.0952 3 18.408C3.00002 17.7207 3.27292 17.061 3.75879 16.575L9.40918 10.9246C9.06997 9.95382 8.98656 8.90794 9.17188 7.89038C9.38904 6.69892 9.96401 5.60131 10.8203 4.74488C11.6769 3.88833 12.7751 3.31359 13.9668 3.09644Z" fill="#FAFAFA"/>
</svg>
