<svg width="24" height="24" viewBox="0 0 24 24" fill="none" xmlns="http://www.w3.org/2000/svg">
<path d="M17.6074 13.085C18.0307 12.9825 18.471 12.9723 18.8984 13.0557C19.3258 13.1391 19.7304 13.3143 20.084 13.5684C20.4377 13.8226 20.7329 14.1507 20.9482 14.5293C20.995 14.6272 21.0225 14.7335 21.0283 14.8418C21.0341 14.95 21.0175 15.058 20.9814 15.1602C20.9455 15.2624 20.8899 15.3569 20.8174 15.4375C20.745 15.5181 20.6573 15.5841 20.5596 15.6309L17.8633 16.877L17.5654 17.0195L16.9541 20.3467C16.9456 20.4198 16.9186 20.4898 16.876 20.5498C16.8334 20.6097 16.7761 20.6584 16.71 20.6904L15.0693 21.5859C14.9995 21.6212 14.9209 21.6379 14.8428 21.6338C14.7647 21.6297 14.6888 21.6048 14.623 21.5625C14.5574 21.5202 14.5039 21.4618 14.4678 21.3926C14.4317 21.3232 14.4139 21.2452 14.417 21.167L14.8174 18.4854L14.6221 18.5752L11.7061 20.0273C11.5155 20.1264 11.2929 20.1469 11.0879 20.083C10.883 20.0191 10.7119 19.8762 10.6113 19.6865L9.03516 16.5186C8.99314 16.424 8.98844 16.3168 9.02148 16.2188C9.05469 16.1205 9.12388 16.038 9.21484 15.9883L10.3555 15.4014C10.4483 15.3466 10.5594 15.3299 10.6641 15.3555C10.7689 15.3812 10.8601 15.4474 10.917 15.5391L11.9951 16.7666L16.4453 13.6504C16.7873 13.3806 17.184 13.1875 17.6074 13.085Z" fill="#FAFAFA"/>
<path d="M15.543 2C15.9572 2 16.293 2.33579 16.293 2.75V4H17.543C19.0618 4 20.293 5.23122 20.293 6.75V10.25C20.293 10.6642 19.9572 11 19.543 11C19.1288 11 18.793 10.6642 18.793 10.25V10H3.79297V18.25C3.79297 18.9404 4.35261 19.5 5.04297 19.5H7.54297C7.95718 19.5 8.29297 19.8358 8.29297 20.25C8.29297 20.6642 7.95718 21 7.54297 21H5.04297C3.52419 21 2.29297 19.7688 2.29297 18.25V6.75C2.29297 5.23122 3.52419 4 5.04297 4H6.29297V2.75C6.29297 2.33579 6.62876 2 7.04297 2C7.45718 2 7.79297 2.33579 7.79297 2.75V4H14.793V2.75C14.793 2.33579 15.1288 2 15.543 2Z" fill="#FAFAFA"/>
</svg>
