<svg width="24" height="24" viewBox="0 0 24 24" fill="none" xmlns="http://www.w3.org/2000/svg">
<path fill-rule="evenodd" clip-rule="evenodd" d="M15.0107 15.2959C15.113 14.2872 15.9643 13.5 17 13.5H19L19.2041 13.5107C20.1457 13.6062 20.8938 14.3543 20.9893 15.2959L21 15.5V17.5L20.9893 17.7041C20.8938 18.6457 20.1457 19.3938 19.2041 19.4893L19 19.5H17C15.9643 19.5 15.113 18.7128 15.0107 17.7041L15 17.5V15.5L15.0107 15.2959Z" fill="#FAFAFA"/>
<path fill-rule="evenodd" clip-rule="evenodd" d="M15.0107 6.2959C15.113 5.28722 15.9643 4.5 17 4.5H19L19.2041 4.51074C20.1457 4.6062 20.8938 5.35435 20.9893 6.2959L21 6.5V8.5L20.9893 8.7041C20.8938 9.64565 20.1457 10.3938 19.2041 10.4893L19 10.5H17C15.9643 10.5 15.113 9.71278 15.0107 8.7041L15 8.5V6.5L15.0107 6.2959Z" fill="#FAFAFA"/>
<path fill-rule="evenodd" clip-rule="evenodd" d="M3.01074 6.2959C3.113 5.28722 3.96435 4.5 5 4.5H7L7.2041 4.51074C8.14565 4.6062 8.8938 5.35435 8.98926 6.2959L9 6.5V6.75H10.75H12.25H13C13.4142 6.75 13.75 7.08579 13.75 7.5C13.75 7.91421 13.4142 8.25 13 8.25H12.25V15.75H13L13.0771 15.7539C13.4551 15.7925 13.75 16.1118 13.75 16.5C13.75 16.8882 13.4551 17.2075 13.0771 17.2461L13 17.25H12L11.8525 17.2402C11.5161 17.1968 11.2382 17.0079 11.0537 16.7695L10.9805 16.667C10.8231 16.4198 10.7501 16.1316 10.75 15.8545V8.25H9V8.5L8.98926 8.7041C8.8938 9.64565 8.14565 10.3938 7.2041 10.4893L7 10.5H5C3.96435 10.5 3.113 9.71278 3.01074 8.7041L3 8.5V6.5L3.01074 6.2959Z" fill="#FAFAFA"/>
</svg>
