<svg width="24" height="24" viewBox="0 0 24 24" fill="none" xmlns="http://www.w3.org/2000/svg">
<path fill-rule="evenodd" clip-rule="evenodd" d="M12 4.25C17.9371 4.25 22.75 9.06294 22.75 15V17.3809C22.75 18.137 22.137 18.75 21.3809 18.75H2.61914C1.86304 18.75 1.25 18.137 1.25 17.3809V15C1.25 9.06294 6.06294 4.25 12 4.25ZM16.8857 8.85645C16.5306 8.64358 16.0695 8.75919 15.8564 9.11426L13.2402 13.4727C12.8467 13.3272 12.4281 13.25 12 13.25C10.9893 13.25 10.03 13.6793 9.33105 14.4248C8.78751 15.0048 8.44644 15.7319 8.3135 16.5036C8.24318 16.9118 8.58579 17.25 9 17.25C9.41421 17.25 9.73868 16.9084 9.84585 16.5083C9.95061 16.1172 10.1423 15.7526 10.4258 15.4502C10.8521 14.9955 11.4195 14.75 12 14.75C12.5805 14.75 13.148 14.9955 13.5742 15.4502C13.8577 15.7526 14.0494 16.1172 14.1541 16.5083C14.2613 16.9084 14.5858 17.25 15 17.25C15.4142 17.25 15.7568 16.9118 15.6864 16.5036C15.5533 15.7318 15.2117 15.0048 14.668 14.4248C14.6177 14.3712 14.5655 14.3198 14.5127 14.2695L17.1436 9.88574C17.3564 9.5306 17.2408 9.0695 16.8857 8.85645ZM5 13.25C4.58579 13.25 4.25 13.5858 4.25 14C4.25 14.4142 4.58579 14.75 5 14.75H6C6.41421 14.75 6.75 14.4142 6.75 14C6.75 13.5858 6.41421 13.25 6 13.25H5ZM18 13.25C17.5858 13.25 17.25 13.5858 17.25 14C17.25 14.4142 17.5858 14.75 18 14.75H19C19.4142 14.75 19.75 14.4142 19.75 14C19.75 13.5858 19.4142 13.25 19 13.25H18ZM12 8.25C11.5858 8.25 11.25 8.58579 11.25 9V10C11.25 10.4142 11.5858 10.75 12 10.75C12.4142 10.75 12.75 10.4142 12.75 10V9C12.75 8.58579 12.4142 8.25 12 8.25Z" fill="#FAFAFA"/>
</svg>
