<svg width="24" height="24" viewBox="0 0 24 24" fill="none" xmlns="http://www.w3.org/2000/svg">
<path fill-rule="evenodd" clip-rule="evenodd" d="M14.8117 2.8125C15.2259 2.8125 15.5617 3.14829 15.5617 3.5625C15.5617 3.97671 15.2259 4.3125 14.8117 4.3125H14.6242V9.93945C15.5355 10.3509 16.3402 10.9717 16.9699 11.7549C17.7124 12.6784 18.1828 13.7908 18.3283 14.9668C18.4737 16.1428 18.2883 17.3365 17.7932 18.4131C17.2979 19.4897 16.5122 20.4075 15.5246 21.0625C15.4018 21.1439 15.257 21.1875 15.1096 21.1875H8.88984C8.7426 21.1875 8.59853 21.1438 8.47577 21.0625C7.48759 20.4078 6.70095 19.4908 6.20527 18.4141C5.70964 17.3373 5.52386 16.1432 5.66913 14.9668C5.81449 13.7903 6.28566 12.6768 7.02851 11.7529C7.65821 10.9699 8.46298 10.3498 9.37421 9.93848V4.3125H9.18671C8.77259 4.31239 8.43671 3.97665 8.43671 3.5625C8.43671 3.14835 8.77259 2.81261 9.18671 2.8125H14.8117ZM10.8742 10.4434C10.8742 10.7613 10.674 11.0455 10.3742 11.1514C9.51942 11.4531 8.7655 11.987 8.19745 12.6934C7.8653 13.1064 7.60666 13.5698 7.42499 14.0625H16.5725C16.391 13.5705 16.1326 13.1079 15.801 12.6953C15.2331 11.9891 14.4787 11.4541 13.6242 11.1523C13.3248 11.0463 13.1242 10.763 13.1242 10.4453V4.3125H10.8742V10.4434Z" fill="#FAFAFA"/>
</svg>
