<svg width="24" height="24" viewBox="0 0 24 24" fill="none" xmlns="http://www.w3.org/2000/svg">
<path fill-rule="evenodd" clip-rule="evenodd" d="M19.1543 2.00391C20.7394 2.08421 22 3.39489 22 5V19L21.9961 19.1543C21.9184 20.6883 20.6883 21.9184 19.1543 21.9961L19 22H5L4.8457 21.9961C3.31166 21.9184 2.08163 20.6883 2.00391 19.1543L2 19V5C2 3.39489 3.26055 2.08421 4.8457 2.00391L5 2H19L19.1543 2.00391ZM9.49902 6C8.94674 6 8.49902 6.44772 8.49902 7V17C8.49902 17.5521 8.94599 17.9997 9.49805 18H14.501C15.0533 18 15.502 17.5523 15.502 17V7C15.502 6.44788 15.054 6.00026 14.502 6H9.49902Z" fill="#FAFAFA"/>
<path d="M13.4224 9.42268C13.4224 10.2081 12.7857 10.8448 12.0002 10.8448C11.2148 10.8448 10.5781 10.2081 10.5781 9.42268C10.5781 8.63726 11.2148 8.00056 12.0002 8.00056C12.7857 8.00056 13.4224 8.63726 13.4224 9.42268Z" fill="#FAFAFA"/>
</svg>
