<svg width="24" height="24" viewBox="0 0 24 24" fill="none" xmlns="http://www.w3.org/2000/svg">
<path fill-rule="evenodd" clip-rule="evenodd" d="M13.3124 11.8247C14.4033 11.8926 15.4702 12.1904 16.4413 12.6997C17.551 13.2816 18.5033 14.1235 19.2177 15.1528C19.3957 15.4096 19.3965 15.7513 19.2186 16.0083C18.5044 17.0379 17.551 17.8803 16.4413 18.4624C15.3313 19.0444 14.0961 19.35 12.8427 19.352C10.9814 19.352 9.68597 18.8671 8.33779 17.8344C7.89688 17.4967 7.44456 17.0928 6.9579 16.6284C6.33864 17.2604 5.63538 17.9909 4.79286 18.8335C4.57917 19.0469 4.25793 19.1119 3.97841 18.9975C3.69898 18.8829 3.51513 18.611 3.51259 18.309L3.47353 12.8237C3.47157 12.5197 3.65403 12.2439 3.93447 12.1264C4.21485 12.0094 4.53877 12.0729 4.7538 12.2876C5.61189 13.1455 6.32865 13.8833 6.95497 14.517C7.39855 14.0923 7.81887 13.7153 8.23232 13.394C9.58137 12.3458 10.9219 11.8091 12.8417 11.809H12.8436L13.3124 11.8247ZM14.0995 13.8901C13.5199 13.8902 13.05 14.3604 13.0497 14.9399C13.0497 15.5197 13.5197 15.9896 14.0995 15.9897C14.6794 15.9897 15.1493 15.5198 15.1493 14.9399C15.149 14.3603 14.6791 13.8901 14.0995 13.8901Z" fill="#FAFAFA"/>
<path d="M19.6073 11.4956C20.1365 11.5494 20.5494 11.9962 20.5497 12.5395C20.5497 13.1194 20.0797 13.5893 19.4999 13.5893C18.9201 13.5892 18.4501 13.1193 18.4501 12.5395C18.4504 11.96 18.9203 11.4898 19.4999 11.4897L19.6073 11.4956Z" fill="#FAFAFA"/>
<path d="M18.4101 7.89595C18.9393 7.94982 19.3523 8.39639 19.3524 8.9399C19.3524 9.51974 18.8825 9.98965 18.3026 9.9897C17.7226 9.9896 17.2528 9.51958 17.2528 8.9399C17.2529 8.36027 17.7227 7.8902 18.3026 7.89009L18.4101 7.89595Z" fill="#FAFAFA"/>
<path d="M17.3739 4.28951C17.5767 4.28255 17.7737 4.3588 17.9198 4.49947C18.3123 4.87745 18.7848 5.16312 19.3017 5.33541C19.8184 5.50759 20.3676 5.56247 20.9081 5.49556C21.3187 5.44504 21.6928 5.73647 21.744 6.14693C21.7949 6.55792 21.5026 6.93284 21.0917 6.98384C20.4248 7.06635 19.749 7.01742 19.1024 6.84127L18.827 6.75826C18.3247 6.59084 17.8537 6.34606 17.4276 6.03658C17.1384 6.2663 16.8207 6.46095 16.4813 6.61177C15.9207 6.86088 15.3136 6.98965 14.7001 6.9897C14.0862 6.9897 13.4788 6.86107 12.9179 6.61177C12.5892 6.4657 12.2818 6.27832 11.9999 6.05806C11.718 6.27825 11.4105 6.46572 11.0819 6.61177C10.5211 6.86105 9.91349 6.98967 9.2997 6.9897C8.68609 6.98968 8.07921 6.86089 7.51845 6.61177C7.17879 6.46082 6.86069 6.26658 6.57118 6.03658C6.14537 6.34577 5.67462 6.59093 5.17275 6.75826C4.44414 7.00111 3.67032 7.07811 2.9081 6.98384C2.49702 6.93297 2.20488 6.55801 2.25575 6.14693C2.30705 5.73642 2.68102 5.44489 3.09169 5.49556C3.63223 5.56244 4.18141 5.50759 4.69814 5.33541C5.21489 5.16311 5.68763 4.87736 6.07997 4.49947L6.13661 4.44966C6.27505 4.34105 6.44842 4.28336 6.62587 4.28951C6.82855 4.29664 7.02011 4.38618 7.15615 4.53658C7.42683 4.83639 7.75775 5.07661 8.12685 5.24068C8.49598 5.40473 8.89576 5.48968 9.2997 5.4897C9.70364 5.48967 10.1035 5.40471 10.4726 5.24068C10.8416 5.0766 11.1726 4.83634 11.4433 4.53658L11.4989 4.48091C11.6358 4.3583 11.8143 4.28951 11.9999 4.28951C12.2119 4.28957 12.4144 4.37932 12.5565 4.53658C12.8272 4.83643 13.158 5.0766 13.5272 5.24068C13.8964 5.40473 14.2961 5.4897 14.7001 5.4897C15.104 5.48965 15.5039 5.40469 15.8729 5.24068C16.2419 5.0766 16.5731 4.83627 16.8436 4.53658L16.8964 4.48287C17.0269 4.36491 17.1965 4.29571 17.3739 4.28951Z" fill="#FAFAFA"/>
</svg>
