<svg width="24" height="24" viewBox="0 0 24 24" fill="none" xmlns="http://www.w3.org/2000/svg">
<path fill-rule="evenodd" clip-rule="evenodd" d="M19.3125 18.5625C19.3125 19.2587 19.0362 19.9267 18.5439 20.4189C18.0517 20.9112 17.3837 21.1875 16.6875 21.1875H7.3125C6.61631 21.1875 5.94834 20.9112 5.45605 20.4189C4.96377 19.9267 4.6875 19.2587 4.6875 18.5625V10.875H19.3125V18.5625ZM8.1875 12.1875C7.77329 12.1875 7.4375 12.5233 7.4375 12.9375V15.75C7.4375 16.1642 7.77329 16.5 8.1875 16.5C8.60171 16.5 8.9375 16.1642 8.9375 15.75V12.9375C8.9375 12.5233 8.60171 12.1875 8.1875 12.1875Z" fill="#FAFAFA"/>
<path fill-rule="evenodd" clip-rule="evenodd" d="M16.6875 2.8125C17.3837 2.8125 18.0517 3.08877 18.5439 3.58105C19.0362 4.07334 19.3125 4.74131 19.3125 5.4375V9.375H4.6875V5.55957C4.6875 4.04068 5.91618 2.81269 7.43457 2.8125H16.6875ZM8.1875 5.625C7.77329 5.625 7.4375 5.96079 7.4375 6.375V7.3125C7.4375 7.72671 7.77329 8.0625 8.1875 8.0625C8.60171 8.0625 8.9375 7.72671 8.9375 7.3125V6.375C8.9375 5.96079 8.60171 5.625 8.1875 5.625Z" fill="#FAFAFA"/>
</svg>
