<svg width="24" height="24" viewBox="0 0 24 24" fill="none" xmlns="http://www.w3.org/2000/svg">
<path d="M19.7998 16.5947C20.214 16.5947 20.5498 16.9305 20.5498 17.3447V18.6006C20.5497 19.2766 20.2815 19.9253 19.8037 20.4033C19.3255 20.8813 18.6762 21.1504 18 21.1504C17.3238 21.1503 16.6754 20.8813 16.1973 20.4033C15.7193 19.9253 15.4503 19.2767 15.4502 18.6006V18C15.4504 17.5859 15.7861 17.25 16.2002 17.25C16.6143 17.25 16.95 17.5859 16.9502 18V18.6006C16.9503 18.8788 17.061 19.1459 17.2578 19.3428L17.335 19.4121C17.5218 19.5651 17.7565 19.6503 18 19.6504C18.2782 19.6504 18.5452 19.5395 18.7422 19.3428C18.939 19.1459 19.0497 18.8788 19.0498 18.6006V17.3447C19.0498 16.9306 19.3858 16.5949 19.7998 16.5947Z" fill="#FAFAFA"/>
<path d="M19.7998 11.8496C20.8765 11.8497 21.7498 12.7231 21.75 13.7998C21.7499 14.8766 20.8766 15.7499 19.7998 15.75C18.7229 15.75 17.8497 14.8766 17.8496 13.7998C17.8498 12.7231 18.723 11.8496 19.7998 11.8496Z" fill="#FAFAFA"/>
<path fill-rule="evenodd" clip-rule="evenodd" d="M12 7.65039C13.0148 7.65041 14.0745 8.05446 14.8838 8.68848C15.6901 9.32033 16.3496 10.2672 16.3496 11.4004C16.3495 12.5335 15.6901 13.4805 14.8838 14.1123C14.0745 14.7462 13.0148 15.1504 12 15.1504C9.48509 15.1504 7.33448 13.6422 6.0127 12.4463L4.55469 13.9062C4.366 14.0946 4.12441 14.2225 3.8623 14.2744C3.60023 14.3264 3.32914 14.3002 3.08301 14.1982C2.83633 14.0959 2.6257 13.9222 2.47754 13.7002C2.32953 13.4783 2.24988 13.2171 2.25 12.9502V9.84863L2.26465 9.65039C2.29379 9.45399 2.3664 9.26514 2.47754 9.09863C2.62574 8.87679 2.83661 8.70282 3.08301 8.60059C3.32927 8.49857 3.60073 8.47165 3.8623 8.52344C4.05864 8.56237 4.24372 8.64462 4.40332 8.7627L4.55371 8.89258L6.0127 10.3516C7.33457 9.15582 9.48576 7.65039 12 7.65039ZM12.5996 10.3496C12.02 10.3497 11.5501 10.8199 11.5498 11.3994C11.5498 11.9792 12.0198 12.4491 12.5996 12.4492C13.1795 12.4492 13.6494 11.9793 13.6494 11.3994C13.6491 10.8198 13.1793 10.3496 12.5996 10.3496Z" fill="#FAFAFA"/>
<path d="M19.7998 2.84961C20.2139 2.84961 20.5496 3.18558 20.5498 3.59961V9.99316C20.5498 10.4074 20.214 10.7432 19.7998 10.7432C19.3856 10.7432 19.0498 10.4074 19.0498 9.99316V3.59961C19.05 3.18558 19.3857 2.84961 19.7998 2.84961Z" fill="#FAFAFA"/>
</svg>
