<svg width="24" height="24" viewBox="0 0 24 24" fill="none" xmlns="http://www.w3.org/2000/svg">
<path fill-rule="evenodd" clip-rule="evenodd" d="M6.46973 16.4697C6.76262 16.1768 7.23738 16.1768 7.53027 16.4697C7.82317 16.7626 7.82317 17.2374 7.53027 17.5303L6.53027 18.5303L6.52832 18.5312C6.5454 18.567 6.56392 18.602 6.5791 18.6387C6.69221 18.9117 6.75 19.2045 6.75 19.5C6.75 19.7955 6.69221 20.0883 6.5791 20.3613C6.46606 20.6342 6.29976 20.8819 6.09082 21.0908C5.88205 21.2996 5.63441 21.466 5.36133 21.5791C5.08831 21.6922 4.79547 21.75 4.5 21.75C4.20453 21.75 3.91169 21.6922 3.63867 21.5791C3.36559 21.466 3.11795 21.2996 2.90918 21.0908C2.70024 20.8819 2.53394 20.6342 2.4209 20.3613C2.30779 20.0883 2.25 19.7955 2.25 19.5C2.25 19.2045 2.30779 18.9117 2.4209 18.6387C2.53394 18.3658 2.70024 18.1181 2.90918 17.9092C3.11795 17.7004 3.36559 17.534 3.63867 17.4209C3.91169 17.3078 4.20453 17.25 4.5 17.25C4.79547 17.25 5.08831 17.3078 5.36133 17.4209C5.39758 17.4359 5.43245 17.4538 5.46777 17.4707L5.46973 17.4697L6.46973 16.4697ZM4.5 18.75C4.40152 18.75 4.30384 18.769 4.21289 18.8066C4.12216 18.8442 4.03942 18.9 3.96973 18.9697C3.90015 19.0393 3.84435 19.1219 3.80664 19.2129C3.76899 19.3038 3.75 19.4015 3.75 19.5C3.75 19.5985 3.76899 19.6962 3.80664 19.7871C3.84435 19.8781 3.90015 19.9607 3.96973 20.0303C4.03942 20.1 4.12216 20.1548 4.21289 20.1924C4.30384 20.2301 4.40152 20.25 4.5 20.25C4.59848 20.25 4.69616 20.231 4.78711 20.1934C4.87784 20.1558 4.96058 20.1 5.03027 20.0303C5.09985 19.9607 5.15565 19.8782 5.19336 19.7871C5.23101 19.6962 5.25 19.5985 5.25 19.5C5.25 19.4015 5.23101 19.3038 5.19336 19.2129C5.15565 19.1218 5.09985 19.0393 5.03027 18.9697C4.96058 18.9 4.87784 18.8452 4.78711 18.8076C4.69616 18.7699 4.59848 18.75 4.5 18.75Z" fill="#FAFAFA"/>
<path fill-rule="evenodd" clip-rule="evenodd" d="M16.4697 16.4697C16.7626 16.1768 17.2374 16.1768 17.5303 16.4697L18.5322 17.4717C18.832 17.3286 19.1615 17.25 19.5 17.25C20.0968 17.25 20.6689 17.4874 21.0908 17.9092C21.5126 18.3311 21.75 18.9032 21.75 19.5C21.75 20.0968 21.5126 20.6689 21.0908 21.0908C20.6689 21.5126 20.0968 21.75 19.5 21.75C18.9032 21.75 18.3311 21.5126 17.9092 21.0908C17.4874 20.6689 17.25 20.0968 17.25 19.5C17.25 19.1615 17.3286 18.832 17.4717 18.5322L16.4697 17.5303C16.1768 17.2374 16.1768 16.7626 16.4697 16.4697ZM19.5 18.75C19.3012 18.75 19.1105 18.8291 18.9697 18.9697C18.8291 19.1105 18.75 19.3012 18.75 19.5C18.75 19.6988 18.8291 19.8895 18.9697 20.0303C19.1105 20.1709 19.3012 20.25 19.5 20.25C19.6988 20.25 19.8895 20.1709 20.0303 20.0303C20.1709 19.8895 20.25 19.6988 20.25 19.5C20.25 19.3012 20.1709 19.1105 20.0303 18.9697C19.8895 18.8291 19.6988 18.75 19.5 18.75Z" fill="#FAFAFA"/>
<path fill-rule="evenodd" clip-rule="evenodd" d="M12 7.5C13.6567 7.50013 15 8.84323 15 10.5C15 11.3871 14.6121 12.1812 14 12.7305C15.0241 13.2853 15.5589 14.1989 15.7236 14.8027C15.8325 15.2022 15.5967 15.6146 15.1973 15.7236C14.7922 15.8339 12.7049 15.75 12 15.75C11.295 15.75 9.20788 15.8339 8.80273 15.7236C8.40329 15.6146 8.16749 15.2022 8.27637 14.8027C8.44102 14.1991 8.9755 13.2854 9.99902 12.7305C9.38729 12.1812 9 11.3868 9 10.5C9 8.84322 10.3432 7.50012 12 7.5Z" fill="#FAFAFA"/>
<path fill-rule="evenodd" clip-rule="evenodd" d="M4.5 2.25C4.79547 2.25 5.08834 2.30782 5.36133 2.4209C5.63427 2.53397 5.88193 2.70029 6.09082 2.90918C6.29972 3.11807 6.46603 3.36573 6.5791 3.63867C6.69217 3.91165 6.75 4.20453 6.75 4.5C6.75 4.79547 6.69217 5.08835 6.5791 5.36133C6.56403 5.39771 6.54526 5.43232 6.52832 5.46777L7.53027 6.46973C7.82317 6.76262 7.82317 7.23738 7.53027 7.53027C7.23738 7.82317 6.76262 7.82317 6.46973 7.53027L5.46777 6.52832C5.43232 6.54526 5.39771 6.56403 5.36133 6.5791C5.08835 6.69217 4.79547 6.75 4.5 6.75C4.20453 6.75 3.91165 6.69217 3.63867 6.5791C3.36573 6.46603 3.11807 6.29972 2.90918 6.09082C2.70029 5.88193 2.53397 5.63427 2.4209 5.36133C2.30782 5.08834 2.25 4.79547 2.25 4.5C2.25 4.20453 2.30782 3.91166 2.4209 3.63867C2.53397 3.36573 2.70029 3.11807 2.90918 2.90918C3.11807 2.70029 3.36573 2.53397 3.63867 2.4209C3.91166 2.30782 4.20453 2.25 4.5 2.25ZM4.5 3.75C4.40154 3.75 4.30386 3.76897 4.21289 3.80664C4.12191 3.84433 4.03937 3.90008 3.96973 3.96973C3.90008 4.03937 3.84433 4.12191 3.80664 4.21289C3.76897 4.30386 3.75 4.40154 3.75 4.5C3.75 4.59846 3.76897 4.69614 3.80664 4.78711C3.84433 4.87809 3.90008 4.96063 3.96973 5.03027C4.03937 5.09992 4.12191 5.15567 4.21289 5.19336C4.30386 5.23103 4.40154 5.25 4.5 5.25C4.59846 5.25 4.69614 5.23103 4.78711 5.19336C4.87809 5.15567 4.96063 5.09992 5.03027 5.03027C5.09992 4.96063 5.15567 4.87809 5.19336 4.78711C5.23103 4.69614 5.25 4.59846 5.25 4.5C5.25 4.40154 5.23103 4.30386 5.19336 4.21289C5.15567 4.12191 5.09992 4.03937 5.03027 3.96973C4.96063 3.90008 4.87809 3.84433 4.78711 3.80664C4.69614 3.76897 4.59846 3.75 4.5 3.75Z" fill="#FAFAFA"/>
<path fill-rule="evenodd" clip-rule="evenodd" d="M19.5 2.25C20.0967 2.25 20.6689 2.48726 21.0908 2.90918C21.5127 3.3311 21.75 3.90322 21.75 4.5C21.75 5.09678 21.5127 5.6689 21.0908 6.09082C20.6689 6.51275 20.0967 6.75 19.5 6.75C19.1611 6.75 18.8313 6.6708 18.5312 6.52734L18.5303 6.53027L17.5303 7.53027C17.2374 7.82317 16.7626 7.82317 16.4697 7.53027C16.1768 7.23738 16.1768 6.76262 16.4697 6.46973L17.4697 5.46973L17.4717 5.4668C17.3288 5.16727 17.25 4.83822 17.25 4.5C17.25 3.90322 17.4873 3.3311 17.9092 2.90918C18.3311 2.48726 18.9033 2.25 19.5 2.25ZM19.5 3.75C19.3011 3.75 19.1104 3.82906 18.9697 3.96973C18.8291 4.11042 18.75 4.30114 18.75 4.5C18.75 4.69886 18.8291 4.88958 18.9697 5.03027C19.1104 5.17094 19.3011 5.25 19.5 5.25C19.6989 5.25 19.8896 5.17094 20.0303 5.03027C20.1709 4.88958 20.25 4.69886 20.25 4.5C20.25 4.30114 20.1709 4.11042 20.0303 3.96973C19.8896 3.82906 19.6989 3.75 19.5 3.75Z" fill="#FAFAFA"/>
</svg>
