<svg width="24" height="24" viewBox="0 0 24 24" fill="none" xmlns="http://www.w3.org/2000/svg">
<path d="M8.64648 9.22461C9.08758 9.22465 9.44531 9.58233 9.44531 10.0234C9.44527 10.4645 9.08756 10.8222 8.64648 10.8223C8.20537 10.8223 7.8477 10.4645 7.84766 10.0234C7.84766 9.5823 8.20535 9.22461 8.64648 9.22461Z" fill="#FAFAFA"/>
<path d="M15.3545 9.13574C15.7956 9.13579 16.1533 9.49346 16.1533 9.93457C16.1533 10.3756 15.7956 10.7334 15.3545 10.7334C14.9134 10.7334 14.5557 10.3757 14.5557 9.93457C14.5557 9.49343 14.9134 9.13574 15.3545 9.13574Z" fill="#FAFAFA"/>
<path fill-rule="evenodd" clip-rule="evenodd" d="M18 2C19.1046 2 20 2.89543 20 4V20L19.9893 20.2041C19.887 21.2128 19.0357 22 18 22H6C4.96435 22 4.113 21.2128 4.01074 20.2041L4 20V4C4 2.89543 4.89543 2 6 2H18ZM10.1943 17.4121C9.78028 17.4121 9.4446 17.7481 9.44434 18.1621C9.44434 18.5763 9.78012 18.9121 10.1943 18.9121H13.8047C14.2189 18.9121 14.5547 18.5763 14.5547 18.1621C14.5544 17.7481 14.2187 17.4121 13.8047 17.4121H10.1943ZM12.75 5.9707C12.75 6.38492 12.4142 6.7207 12 6.7207C11.5858 6.7207 11.25 6.38492 11.25 5.9707V4.80664C8.71841 5.1705 6.77246 7.34726 6.77246 9.97949L6.7793 10.248C6.90658 12.7585 8.80511 14.801 11.25 15.1523V14.0518C11.2503 13.6378 11.5859 13.3018 12 13.3018C12.4141 13.3018 12.7497 13.6378 12.75 14.0518V15.1523C15.1947 14.8008 17.0934 12.7583 17.2207 10.248L17.2275 9.97949C17.2275 7.3473 15.2815 5.16955 12.75 4.80566V5.9707Z" fill="#FAFAFA"/>
</svg>
