<svg width="24" height="24" viewBox="0 0 24 24" fill="none" xmlns="http://www.w3.org/2000/svg">
<path d="M2 6C2 4.89543 2.89543 4 4 4H20C21.1046 4 22 4.89543 22 6V18C22 19.1046 21.1046 20 20 20H4C2.89543 20 2 19.1046 2 18V6Z" fill="#FAFAFA"/>
<path d="M17.5 14C18.3284 14 19 14.6716 19 15.5C19 16.3284 18.3284 17 17.5 17C16.6716 17 16 16.3284 16 15.5C16 14.6716 16.6716 14 17.5 14Z" fill="#131313"/>
<path d="M17.5 10C18.3284 10 19 10.6716 19 11.5C19 12.3284 18.3284 13 17.5 13C16.6716 13 16 12.3284 16 11.5C16 10.6716 16.6716 10 17.5 10Z" fill="#131313"/>
<path fill-rule="evenodd" clip-rule="evenodd" d="M14.2599 7C14.6685 7.00017 15 7.3315 15.0001 7.74023V9.06836C15.0006 9.26472 14.9227 9.45348 14.7833 9.5918L12.2276 12.1465C12.4504 12.8292 12.4696 13.5623 12.2833 14.2559C11.5439 17.0082 8.10343 17.9277 6.08993 15.9111C5.86226 15.6834 5.66532 15.4271 5.50399 15.1484C4.0763 12.6821 5.85289 9.59544 8.70224 9.5918H8.70712C9.09643 9.59122 9.48338 9.65203 9.8536 9.77246L10.296 9.3291C10.3654 9.25988 10.4597 9.22166 10.5577 9.22168H11.2979V8.48047C11.2982 8.27631 11.4639 8.11055 11.6681 8.11035H12.4083V7.37012C12.4083 7.1657 12.575 7 12.7794 7H14.2599ZM7.78134 13.4785C7.37281 13.4787 7.04136 13.8102 7.0411 14.2188C7.0411 14.3487 7.07574 14.4773 7.14071 14.5898C7.42575 15.083 8.13795 15.0831 8.42294 14.5898C8.70789 14.0962 8.35124 13.4785 7.78134 13.4785Z" fill="#131313"/>
</svg>
