<svg width="24" height="24" viewBox="0 0 24 24" fill="none" xmlns="http://www.w3.org/2000/svg">
<path fill-rule="evenodd" clip-rule="evenodd" d="M13.875 4.6875C14.2892 4.6875 14.625 5.02329 14.625 5.4375C14.625 5.85171 14.2892 6.1875 13.875 6.1875H12.75V7.5H13.2959L13.4131 7.50391C13.6853 7.52298 13.9495 7.60786 14.1826 7.75195C14.4488 7.91661 14.6637 8.15272 14.8037 8.43262L16.1621 11.1455C16.1777 11.1766 16.2019 11.2034 16.2314 11.2217C16.261 11.24 16.2953 11.25 16.3301 11.25H16.875V10.125C16.875 9.71079 17.2108 9.375 17.625 9.375H19.5C19.9476 9.375 20.3769 9.55267 20.6934 9.86914C21.0098 10.1856 21.1875 10.6149 21.1875 11.0625V16.6875C21.1875 16.9091 21.1434 17.1283 21.0586 17.333C20.9738 17.5377 20.8501 17.7242 20.6934 17.8809C20.5367 18.0376 20.3502 18.1613 20.1455 18.2461C19.9408 18.3309 19.7216 18.375 19.5 18.375H17.625C17.2108 18.375 16.875 18.0392 16.875 17.625V16.5H15.5625V17.625C15.5625 18.0726 15.3848 18.5019 15.0684 18.8184C14.7519 19.1348 14.3226 19.3125 13.875 19.3125H10.627C10.3492 19.3125 10.075 19.2443 9.83008 19.1133C9.64652 19.0151 9.4838 18.8833 9.34863 18.7266L9.22266 18.5615L7.84863 16.5H7.375C6.4085 16.5 5.625 15.7165 5.625 14.75V13.6602C5.5648 13.6757 5.50257 13.6875 5.4375 13.6875H4.3125V15.75C4.3125 16.1642 3.97671 16.5 3.5625 16.5C3.14829 16.5 2.8125 16.1642 2.8125 15.75V10.125C2.8125 9.71079 3.14829 9.375 3.5625 9.375C3.97671 9.375 4.3125 9.71079 4.3125 10.125V12.1875H5.4375C5.50248 12.1875 5.56487 12.1983 5.625 12.2139V11.125C5.625 10.1585 6.4085 9.375 7.375 9.375H7.93945L9.59473 7.71973L9.70898 7.62598C9.83128 7.54445 9.97585 7.5 10.125 7.5H11.25V6.1875H10.125C9.71079 6.1875 9.375 5.85171 9.375 5.4375C9.375 5.02329 9.71079 4.6875 10.125 4.6875H13.875Z" fill="#FAFAFA"/>
</svg>
