<svg width="24" height="24" viewBox="0 0 24 24" fill="none" xmlns="http://www.w3.org/2000/svg">
<path d="M11.9678 11.0781C12.055 11.0608 12.1454 11.0696 12.2275 11.1035C12.3098 11.1376 12.3802 11.1955 12.4297 11.2695C12.4792 11.3436 12.5059 11.4305 12.5059 11.5195C12.5059 11.6086 12.4792 11.6955 12.4297 11.7695C12.3802 11.8435 12.3098 11.9015 12.2275 11.9355C12.1454 11.9695 12.055 11.9783 11.9678 11.9609C11.8805 11.9436 11.8002 11.9008 11.7373 11.8379C11.653 11.7534 11.6055 11.6389 11.6055 11.5195C11.6055 11.4002 11.653 11.2857 11.7373 11.2012C11.8002 11.1382 11.8805 11.0955 11.9678 11.0781Z" fill="#FAFAFA"/>
<path fill-rule="evenodd" clip-rule="evenodd" d="M12.001 7.30859C14.3267 7.30886 16.2119 9.19476 16.2119 11.5205C16.2114 13.8458 14.3263 15.7312 12.001 15.7314C9.67552 15.7313 7.78959 13.8459 7.78906 11.5205C7.78906 9.19469 9.67519 7.30873 12.001 7.30859ZM10.832 8.77148C10.785 8.76576 10.737 8.77111 10.6924 8.78711C10.1091 8.99675 9.68803 9.36857 9.42969 9.90234C9.34119 10.0857 9.31995 10.2946 9.36914 10.4922C9.41833 10.6897 9.53512 10.8639 9.69922 10.9844C10.1555 11.3206 10.6374 11.5186 11.1309 11.5713C11.136 11.6669 11.1565 11.761 11.1904 11.8506C10.7735 12.2493 10.2314 12.4408 9.59473 12.4756C9.54727 12.478 9.50128 12.4922 9.45996 12.5156C9.41864 12.5391 9.3828 12.5718 9.35645 12.6113C9.33022 12.6508 9.31338 12.6961 9.30762 12.7432C9.30189 12.7902 9.30724 12.8382 9.32324 12.8828C9.53288 13.4661 9.9047 13.8872 10.4385 14.1455C10.6219 14.234 10.8307 14.2552 11.0283 14.2061C11.2259 14.1569 11.4 14.0401 11.5205 13.876C11.8566 13.4192 12.0552 12.9377 12.1074 12.4443C12.203 12.4392 12.2972 12.4187 12.3867 12.3848C12.7854 12.8017 12.977 13.3438 13.0117 13.9805C13.0141 14.0279 13.0283 14.0739 13.0518 14.1152C13.0752 14.1566 13.1079 14.1924 13.1475 14.2188C13.1869 14.245 13.2323 14.2618 13.2793 14.2676C13.3264 14.2733 13.3743 14.268 13.4189 14.252C14.0022 14.0423 14.4233 13.6705 14.6816 13.1367C14.7701 12.9533 14.7914 12.7445 14.7422 12.5469C14.693 12.3493 14.5762 12.1752 14.4121 12.0547C13.9559 11.7185 13.474 11.5205 12.9805 11.4678C12.9753 11.3721 12.9549 11.278 12.9209 11.1885C13.3379 10.7898 13.8799 10.5982 14.5166 10.5635C14.5641 10.5611 14.6101 10.5469 14.6514 10.5234C14.6927 10.5 14.7285 10.4673 14.7549 10.4277C14.7811 10.3883 14.7979 10.3429 14.8037 10.2959C14.8094 10.2488 14.8041 10.2009 14.7881 10.1562C14.5784 9.57296 14.2066 9.15189 13.6729 8.89355C13.4895 8.80506 13.2806 8.78382 13.083 8.83301C12.8855 8.8822 12.7113 8.99899 12.5908 9.16309C12.2547 9.61983 12.0562 10.1014 12.0039 10.5947C11.9083 10.5999 11.8141 10.6203 11.7246 10.6543C11.3259 10.2373 11.1344 9.69526 11.0996 9.05859C11.0972 9.01114 11.083 8.96514 11.0596 8.92383C11.0361 8.88251 11.0034 8.84667 10.9639 8.82031C10.9244 8.79409 10.8791 8.77725 10.832 8.77148Z" fill="#FAFAFA"/>
<path fill-rule="evenodd" clip-rule="evenodd" d="M16.1328 2.7666C18.2462 2.87383 19.9268 4.62168 19.9268 6.76172V20.4531H20.5L20.5771 20.457C20.9551 20.4957 21.25 20.815 21.25 21.2031C21.25 21.5913 20.9551 21.9106 20.5771 21.9492L20.5 21.9531H19.9268V21.957H4.07324V21.9531H3.5C3.08579 21.9531 2.75 21.6173 2.75 21.2031C2.75 20.7889 3.08579 20.4531 3.5 20.4531H4.07324V6.76172C4.07324 4.55258 5.8641 2.76172 8.07324 2.76172H15.9268L16.1328 2.7666ZM12.001 5.80859C8.84676 5.80873 6.28906 8.36626 6.28906 11.5205L6.29688 11.8135C6.44493 14.7339 8.78655 17.0757 11.707 17.2236L12.001 17.2314C15.0565 17.2312 17.5511 14.831 17.7041 11.8135L17.7119 11.5205C17.7119 8.4646 15.3119 5.96916 12.2939 5.81641L12.001 5.80859Z" fill="#FAFAFA"/>
</svg>
