<svg width="24" height="24" viewBox="0 0 24 24" fill="none" xmlns="http://www.w3.org/2000/svg">
<path fill-rule="evenodd" clip-rule="evenodd" d="M11.25 17.7676H7.50488C7.22886 17.7676 7.00508 17.5426 7.00488 17.2666V5.53027C7.00488 5.25413 7.22874 5.03027 7.50488 5.03027H11.25V17.7676ZM9.58398 10.3252C9.02601 10.3254 8.58862 10.7543 8.53613 11.2773L8.53125 11.3838L8.53613 11.4893C8.58847 12.0124 9.02589 12.4412 9.58398 12.4414L9.58301 11.8242L9.58398 11.8252V12.4414C10.1791 12.4411 10.6355 11.9534 10.6357 11.3838C10.6357 10.814 10.1792 10.3255 9.58398 10.3252Z" fill="#FAFAFA"/>
<path fill-rule="evenodd" clip-rule="evenodd" d="M16.5049 5.03027C16.7808 5.03054 17.0049 5.25429 17.0049 5.53027V17.2666C17.0047 17.5424 16.7807 17.7673 16.5049 17.7676H12.75V5.03027H16.5049ZM14.417 10.3252C13.859 10.3254 13.4226 10.7543 13.3701 11.2773L13.3652 11.3838L13.3701 11.4893C13.4225 12.0124 13.8589 12.4412 14.417 12.4414C15.0121 12.4411 15.4685 11.9534 15.4688 11.3838C15.4688 10.814 15.0122 10.3255 14.417 10.3252Z" fill="#FAFAFA"/>
<path fill-rule="evenodd" clip-rule="evenodd" d="M18.042 2C19.1378 2.00018 20 2.90268 20 3.9834V18.7832C20 19.6005 19.5064 20.315 18.792 20.6152V21.25C18.792 21.6642 18.4562 22 18.042 22C17.6278 22 17.292 21.6642 17.292 21.25V20.7666H6.70898V21.25C6.70895 21.664 6.37295 21.9997 5.95898 22C5.54479 22 5.20902 21.6642 5.20898 21.25V20.6152C4.49411 20.3152 4 19.6008 4 18.7832V3.9834C4 2.90269 4.8622 2.00018 5.95801 2H18.042ZM11.25 3.53027H7.50488C6.40031 3.53027 5.50488 4.4257 5.50488 5.53027V17.2666C5.50507 18.3021 6.2922 19.1546 7.30078 19.2568L7.50488 19.2676H16.5049L16.709 19.2568C17.7174 19.1544 18.5047 18.302 18.5049 17.2666V5.53027C18.5049 4.42587 17.6092 3.53054 16.5049 3.53027H12.75V3.50098H11.25V3.53027Z" fill="#FAFAFA"/>
</svg>
