<svg width="24" height="24" viewBox="0 0 24 24" fill="none" xmlns="http://www.w3.org/2000/svg">
<path d="M12 5.05957C16.3003 5.05961 19.984 8.87444 21.6025 10.834C21.8581 11.1526 22 11.5669 22 11.9961C22 12.4252 21.858 12.8387 21.6025 13.1572C19.9841 15.1167 16.3004 18.9326 12 18.9326C7.69955 18.9326 4.01591 15.1167 2.39746 13.1572C2.14195 12.8387 2.00005 12.4252 2 11.9961C2 11.5669 2.14184 11.1526 2.39746 10.834C4.016 8.87441 7.6997 5.05957 12 5.05957ZM12 8.91309C10.2976 8.91322 8.9181 10.2927 8.91797 11.9951C8.91797 13.6976 10.2975 15.078 12 15.0781C13.7026 15.0781 15.083 13.6977 15.083 11.9951C15.0829 10.2927 13.7025 8.91309 12 8.91309Z" fill="#FAFAFA"/>
</svg>
