<svg width="24" height="24" viewBox="0 0 24 24" fill="none" xmlns="http://www.w3.org/2000/svg">
<path d="M18 18V19.5H6V18H18ZM19.5 16.5V7.5C19.5 6.67157 18.8284 6 18 6H6C5.17157 6 4.5 6.67157 4.5 7.5V16.5C4.5 17.3284 5.17157 18 6 18V19.5L5.8457 19.4961C4.31166 19.4184 3.08163 18.1883 3.00391 16.6543L3 16.5V7.5C3 5.89489 4.26055 4.58421 5.8457 4.50391L6 4.5H18L18.1543 4.50391C19.7394 4.58421 21 5.89489 21 7.5V16.5L20.9961 16.6543C20.9184 18.1883 19.6883 19.4184 18.1543 19.4961L18 19.5V18C18.8284 18 19.5 17.3284 19.5 16.5Z" fill="#FAFAFA"/>
<path d="M5.5 8C5.5 7.44772 5.94772 7 6.5 7H8.5C9.05228 7 9.5 7.44772 9.5 8V16C9.5 16.5523 9.05228 17 8.5 17H6.5C5.94772 17 5.5 16.5523 5.5 16V8Z" fill="#FAFAFA"/>
<path d="M15.2889 7.9589C15.5616 7.64789 16.035 7.61637 16.3465 7.88858C16.6581 8.16124 16.6902 8.63545 16.4178 8.94718L13.7459 11.9989L16.4178 15.0517C16.6904 15.3633 16.6579 15.8375 16.3465 16.1103C16.0349 16.3828 15.5616 16.3513 15.2889 16.04L12.1854 12.4931C11.9383 12.2104 11.9381 11.7884 12.1854 11.5058L15.2889 7.9589Z" fill="#FAFAFA"/>
</svg>
