<svg width="24" height="24" viewBox="0 0 24 24" fill="none" xmlns="http://www.w3.org/2000/svg">
<path fill-rule="evenodd" clip-rule="evenodd" d="M12 2.00023C9.55 2.00023 7.57 2.38023 6.17 3.10023C4.75 3.83023 3.87 4.95023 3.87 6.39023V9.85023H2.65C2.29 9.85023 2 10.1402 2 10.5002C2 10.8602 2.29 11.1502 2.65 11.1502H3.88V16.8502C3.88 17.8202 4.26 18.7402 4.95 19.4302C5.08 19.5602 5.22 19.6802 5.37 19.7902V21.3302C5.37 21.6902 5.66 21.9802 6.02 21.9802C6.38 21.9802 6.67 21.6902 6.67 21.3302V20.3902C6.94 20.4602 7.23 20.4902 7.51 20.4902H16.49C16.77 20.4902 17.06 20.4602 17.33 20.3902V21.3302C17.33 21.6902 17.62 21.9802 17.98 21.9802C18.34 21.9802 18.63 21.6902 18.63 21.3302V19.7902C18.78 19.6802 18.93 19.5602 19.06 19.4202C19.74 18.7402 20.13 17.8102 20.13 16.8402V11.1402H21.34C21.7 11.1402 21.99 10.8502 21.99 10.4902C21.99 10.1302 21.7 9.84023 21.34 9.84023H20.13V6.38023C20.13 4.94023 19.25 3.82023 17.83 3.09023C16.43 2.37023 14.45 1.99023 12 1.99023V2.00023ZM18.82 10.4202V7.80023H5.18V13.2202H18.82V10.6002C18.82 10.6002 18.82 10.5402 18.82 10.5102C18.82 10.4802 18.82 10.4502 18.82 10.4202ZM8.26 16.2102C7.9 16.2102 7.61 16.5002 7.61 16.8602C7.61 17.2202 7.9 17.5102 8.26 17.5102H9.01C9.37 17.5102 9.66 17.2202 9.66 16.8602C9.66 16.5002 9.37 16.2102 9.01 16.2102H8.26ZM14.33 16.8602C14.33 16.5002 14.62 16.2102 14.98 16.2102H15.73C16.09 16.2102 16.38 16.5002 16.38 16.8602C16.38 17.2202 16.09 17.5102 15.73 17.5102H14.98C14.62 17.5102 14.33 17.2202 14.33 16.8602Z" fill="#FAFAFA"/>
</svg>
