<svg width="24" height="24" viewBox="0 0 24 24" fill="none" xmlns="http://www.w3.org/2000/svg">
<path d="M16.0801 2C16.6142 1.99999 17.0606 1.99954 17.4248 2.0293C17.8045 2.06033 18.1609 2.12809 18.498 2.29981C19.0155 2.56346 19.4365 2.98451 19.7002 3.50195C19.8719 3.8391 19.9397 4.19546 19.9707 4.5752C20.0005 4.9394 20 5.38583 20 5.91992V18.9883C20 19.4519 20.0005 19.8512 19.9717 20.166C19.9429 20.4801 19.8766 20.8494 19.6406 21.1582C19.3277 21.5678 18.8498 21.8187 18.335 21.8438C17.9467 21.8626 17.605 21.7074 17.3301 21.5527C17.0545 21.3977 16.7265 21.1705 16.3447 20.9072L13.3906 18.8701C12.6854 18.3838 12.4889 18.2626 12.2988 18.2158C12.1025 18.1675 11.8975 18.1675 11.7012 18.2158C11.5111 18.2626 11.3146 18.3838 10.6094 18.8701L7.65528 20.9072C7.27353 21.1705 6.94548 21.3977 6.66992 21.5527C6.39499 21.7074 6.05335 21.8626 5.66504 21.8438C5.15017 21.8187 4.67235 21.5678 4.35938 21.1582C4.12344 20.8494 4.0571 20.4801 4.02832 20.166C3.99951 19.8512 3.99999 19.4519 4 18.9883V5.91992C3.99999 5.38579 3.99954 4.93942 4.0293 4.5752C4.06033 4.19547 4.12809 3.8391 4.29981 3.50195C4.56346 2.98451 4.98451 2.56346 5.50196 2.29981C5.8391 2.12809 6.19547 2.06033 6.5752 2.0293C6.93943 1.99954 7.38577 1.99999 7.91992 2H16.0801Z" fill="#FAFAFA"/>
</svg>
