<svg width="24" height="24" viewBox="0 0 24 24" fill="none" xmlns="http://www.w3.org/2000/svg">
<path d="M14.8154 20.5C15.2296 20.5 15.5654 20.8358 15.5654 21.25C15.5654 21.6642 15.2296 22 14.8154 22H6.81543C6.40122 22 6.06543 21.6642 6.06543 21.25C6.06543 20.8358 6.40122 20.5 6.81543 20.5H10.0586V13.3516C9.91269 13.3245 9.77255 13.2569 9.66016 13.1445L8.56543 12.0498V15.7002C8.56518 16.1142 8.22949 16.4502 7.81543 16.4502C7.40139 16.4502 7.06568 16.1142 7.06543 15.7002V14.6006H5.26465C4.73475 14.6004 4.22801 14.3891 3.85547 14.0166C3.48318 13.6442 3.27551 13.1407 3.27539 12.6172V10.1504C3.27539 9.62672 3.48313 9.12246 3.85547 8.75C4.22799 8.3776 4.73485 8.16716 5.26465 8.16699H7.06543V7.06641C7.06563 6.65238 7.40136 6.31643 7.81543 6.31641C8.22952 6.31641 8.56523 6.65236 8.56543 7.06641V9.91797L10.0586 11.4111V2.75C10.0586 2.33585 10.3967 2.00011 10.8145 2C11.2323 2 11.5713 2.33579 11.5713 2.75V7.17773L12.7441 6.00586C12.8345 5.91553 12.9431 5.85554 13.0576 5.82031V4.9209C13.0578 4.18507 13.581 3.55019 14.3086 3.40234L15.9736 3.06445C16.6606 2.92545 17.3579 3.25638 17.6787 3.87402L20.5508 9.41016C20.925 10.1313 20.6724 11.0093 19.9863 11.4326L18.5762 12.1934C18.5516 12.2063 18.5199 12.1973 18.5068 12.1729L17.376 10.0596C17.18 9.69406 16.7217 9.55532 16.3525 9.74902C15.9838 9.94322 15.8426 10.397 16.0381 10.7627L17.1689 12.876C17.5769 13.6377 18.5352 13.9228 19.2998 13.5107L19.5742 13.3623V17.168C19.5742 18.024 18.8728 18.7178 18.0088 18.7178H14.6221C13.7584 18.7174 13.0577 18.0237 13.0576 17.168V7.82324L11.5713 9.30957V20.5H14.8154Z" fill="#FAFAFA"/>
</svg>
