<svg width="24" height="24" viewBox="0 0 24 24" fill="none" xmlns="http://www.w3.org/2000/svg">
<path fill-rule="evenodd" clip-rule="evenodd" d="M9.2505 2C10.1521 2.00021 11.0171 2.36235 11.6548 3.00684L11.7715 3.13135C12.3363 3.76224 12.6518 4.58449 12.6519 5.43945V13.8452C13.2444 14.4601 13.6651 15.2263 13.8662 16.0645L13.9375 16.4204C14.0729 17.2561 13.9874 18.1161 13.687 18.9111C13.3867 19.7061 12.8836 20.4041 12.2319 20.9355L11.9439 21.1533C11.1517 21.7048 10.2121 21.9998 9.2505 22C8.40906 22 7.58398 21.774 6.86037 21.3481L6.55617 21.1533C5.76401 20.6018 5.15631 19.8197 4.813 18.9111L4.69728 18.5664C4.45855 17.7549 4.43538 16.8914 4.6338 16.0645L4.73195 15.7139C4.95709 15.0126 5.34005 14.3734 5.84913 13.8452V5.43945C5.84916 4.52731 6.20687 3.65183 6.84474 3.00684L6.96681 2.89014C7.59079 2.3188 8.40472 2.00001 9.2505 2ZM9.25246 8.96387C8.8635 8.96389 8.54787 9.28394 8.54787 9.67725V15.23C8.2703 15.3328 8.01431 15.4937 7.80128 15.709C7.41633 16.0982 7.19881 16.6269 7.19874 17.1772C7.19889 17.7274 7.41651 18.2549 7.80128 18.644L7.95167 18.7822C8.31701 19.0849 8.77721 19.2524 9.25343 19.2524C9.7974 19.2521 10.3203 19.0332 10.7051 18.644L10.7041 18.6431C11.0884 18.254 11.3055 17.7271 11.3057 17.1772C11.3056 16.6269 11.089 16.0982 10.7041 15.709C10.4909 15.4935 10.2343 15.3328 9.95656 15.23V9.67725C9.95656 9.28399 9.64136 8.96396 9.25246 8.96387Z" fill="#FAFAFA"/>
<path fill-rule="evenodd" clip-rule="evenodd" d="M16.8818 7.55859C17.3139 6.69498 18.497 6.64136 19.0225 7.39746L19.1182 7.55859L20.6055 10.5342C21.5739 12.4711 20.1656 14.75 18 14.75C15.8346 14.7499 14.4262 12.471 15.3945 10.5342L16.8818 7.55859ZM16.7363 11.2051C16.2667 12.1446 16.9496 13.2499 18 13.25C19.0505 13.25 19.7335 12.1447 19.2637 11.2051L18 8.67676L16.7363 11.2051Z" fill="#FAFAFA"/>
</svg>
