<svg width="24" height="24" viewBox="0 0 24 24" fill="none" xmlns="http://www.w3.org/2000/svg">
<path d="M6.90625 15.7392C7.0502 15.3509 7.48177 15.153 7.87012 15.2968C8.38161 15.4863 9.13137 16.1608 9.06152 17.3202L9.06055 17.329C9.05468 17.4102 9.04442 17.4884 9.0293 17.5634C9.01528 17.6329 8.99593 17.6993 8.97559 17.7636C8.84251 18.1839 8.5917 18.4916 8.43848 18.6874C8.2037 18.9875 8.1374 19.099 8.12402 19.2226C8.11116 19.4389 8.15589 19.588 8.22266 19.7109C8.29795 19.8494 8.41487 19.981 8.58594 20.1435C8.88606 20.4288 8.89753 20.9038 8.6123 21.204C8.3271 21.5039 7.85297 21.5162 7.55273 21.2314C7.12889 20.8287 6.55845 20.1922 6.62695 19.121L6.62793 19.1044C6.68277 18.4639 7.05965 18.0156 7.25684 17.7636C7.49315 17.4616 7.55508 17.3498 7.56445 17.2206C7.57485 17.0164 7.51741 16.8923 7.46387 16.8173C7.39722 16.7241 7.32916 16.6959 7.34863 16.703C6.96053 16.559 6.76252 16.1274 6.90625 15.7392Z" fill="#FAFAFA"/>
<path d="M10.5938 15.7392C10.7377 15.3509 11.1693 15.153 11.5576 15.2968C12.0692 15.4864 12.8235 16.1637 12.7393 17.329L12.7383 17.328C12.6962 17.9777 12.3213 18.4307 12.123 18.6855C11.8834 18.9934 11.8275 19.0969 11.8203 19.2148V19.2265C11.8037 19.4439 11.8475 19.5928 11.9131 19.7157C11.987 19.8541 12.1014 19.9856 12.2705 20.1503C12.567 20.4394 12.5731 20.9142 12.2842 21.2109C11.9952 21.5073 11.5203 21.5134 11.2236 21.2245C10.8164 20.8278 10.2466 20.191 10.3242 19.123C10.3639 18.4722 10.7432 18.0167 10.9395 17.7646C11.1762 17.4603 11.2347 17.3533 11.2422 17.2294L11.2432 17.2206C11.2582 17.0126 11.2007 16.8881 11.1484 16.8144C11.0833 16.7226 11.0163 16.6953 11.0371 16.703C10.6487 16.5592 10.4499 16.1276 10.5938 15.7392Z" fill="#FAFAFA"/>
<path d="M14.2812 15.7392C14.4252 15.3509 14.8568 15.153 15.2451 15.2968C15.7566 15.4863 16.5064 16.1608 16.4365 17.3202L16.4355 17.329C16.4297 17.4102 16.4194 17.4884 16.4043 17.5634C16.3903 17.6329 16.3709 17.6993 16.3506 17.7636C16.2175 18.1839 15.9667 18.4916 15.8135 18.6874C15.5787 18.9875 15.5124 19.099 15.499 19.2226C15.4862 19.4387 15.5308 19.5885 15.5977 19.7128C15.6732 19.853 15.7891 19.9857 15.958 20.1503C16.2546 20.4394 16.2607 20.9142 15.9717 21.2109C15.6826 21.5074 15.2078 21.5135 14.9111 21.2245C14.5021 20.826 13.9336 20.1902 14.002 19.121L14.0029 19.1044C14.0578 18.4639 14.4347 18.0156 14.6318 17.7636C14.8682 17.4616 14.9301 17.3498 14.9395 17.2206C14.9499 17.0164 14.8924 16.8923 14.8389 16.8173C14.7722 16.7241 14.7042 16.6959 14.7236 16.703C14.3355 16.559 14.1375 16.1274 14.2812 15.7392Z" fill="#FAFAFA"/>
<path d="M5.4502 10.2499C5.45032 11.6305 6.56956 12.7499 7.9502 12.7499C9.33083 12.7499 10.4501 11.6305 10.4502 10.2499V8.24992H12.4502V10.2499C12.4503 11.6305 13.5696 12.7499 14.9502 12.7499C16.3308 12.7499 17.4501 11.6305 17.4502 10.2499V8.24992H18.5C20.0188 8.24992 21.25 9.48116 21.25 10.9999V15.0995C21.2499 16.6182 20.0187 17.8495 18.5 17.8495H17.873C17.8958 17.7357 17.9157 17.6177 17.9268 17.495L17.9277 17.4863L17.9268 17.4853C17.9281 17.4693 17.9305 17.4526 17.9316 17.4364C17.9323 17.4278 17.934 17.4188 17.9346 17.4101C18.0505 15.4818 16.7879 14.2692 15.7676 13.8905C14.822 13.5404 13.7898 13.866 13.2041 14.6249C12.848 14.2747 12.4478 14.027 12.0801 13.8905C11.1344 13.5404 10.1023 13.8661 9.5166 14.6249C9.16094 14.2754 8.76156 14.0275 8.39258 13.8905C7.22822 13.4594 5.9332 14.0527 5.50098 15.2177L5.5 15.2187C5.23671 15.9301 5.3586 16.6883 5.75684 17.2704C5.65166 17.4286 5.53814 17.6234 5.43555 17.8495H4.5C2.9813 17.8495 1.75013 16.6182 1.75 15.0995V10.9999C1.75002 9.48116 2.98123 8.24992 4.5 8.24992H5.4502V10.2499Z" fill="#FAFAFA"/>
<path d="M8.9502 10.2499C8.95007 10.8021 8.5024 11.2499 7.9502 11.2499C7.39799 11.2499 6.95032 10.8021 6.9502 10.2499V8.24992H8.9502V10.2499Z" fill="#FAFAFA"/>
<path d="M15.9502 10.2499C15.9501 10.8021 15.5024 11.2499 14.9502 11.2499C14.398 11.2499 13.9503 10.8021 13.9502 10.2499V8.24992H15.9502V10.2499Z" fill="#FAFAFA"/>
<path d="M6.2002 4.24992C6.6144 4.24992 6.95017 4.58573 6.9502 4.99992V8.24992H5.4502V4.99992C5.45022 4.58573 5.786 4.24992 6.2002 4.24992Z" fill="#FAFAFA"/>
<path d="M11.4502 4.24992C12.8309 4.24992 13.9502 5.36923 13.9502 6.74992V8.24992H12.4502V6.74992C12.4502 6.19766 12.0025 5.74992 11.4502 5.74992C10.8979 5.74992 10.4502 6.19766 10.4502 6.74992V8.24992H8.9502V6.74992C8.95022 5.36923 10.0695 4.24992 11.4502 4.24992Z" fill="#FAFAFA"/>
<path d="M18.9697 2.46965C19.2626 2.17678 19.7374 2.17678 20.0303 2.46965L22.0303 4.46965C22.323 4.76255 22.3231 5.23734 22.0303 5.5302L20.0303 7.5302C19.7374 7.82293 19.2626 7.82293 18.9697 7.5302C18.6769 7.23734 18.677 6.76255 18.9697 6.46965L19.6895 5.74992H18.7002C18.0099 5.74992 17.4502 6.30959 17.4502 6.99992V8.24992H15.9502V6.99992C15.9502 5.48116 17.1814 4.24992 18.7002 4.24992H19.6895L18.9697 3.5302C18.6769 3.23734 18.677 2.76255 18.9697 2.46965Z" fill="#FAFAFA"/>
</svg>
