<svg width="24" height="24" viewBox="0 0 24 24" fill="none" xmlns="http://www.w3.org/2000/svg">
<path d="M16.8403 19.1999H15.6003C16.3429 19.1999 17.0551 18.9049 17.5802 18.3798C18.1053 17.8547 18.4003 17.1425 18.4003 16.3999V9.3999C18.3971 8.75128 18.1688 8.12389 17.7544 7.62488C17.34 7.12587 16.7653 6.78621 16.1283 6.6639C16.0364 6.6471 15.9534 6.59871 15.8935 6.52712C15.8336 6.45553 15.8006 6.36525 15.8003 6.2719V4.3999C15.8003 4.29382 15.8424 4.19207 15.9174 4.11706C15.9924 4.04205 16.0942 3.9999 16.2003 3.9999H17.2003C17.4124 3.9999 17.6159 3.91562 17.7659 3.76559C17.916 3.61556 18.0003 3.41208 18.0003 3.1999C18.0003 2.98773 17.916 2.78425 17.7659 2.63422C17.6159 2.48419 17.4124 2.3999 17.2003 2.3999H6.80026C6.58809 2.3999 6.38461 2.48419 6.23458 2.63422C6.08455 2.78425 6.00026 2.98773 6.00026 3.1999C6.00026 3.41208 6.08455 3.61556 6.23458 3.76559C6.38461 3.91562 6.58809 3.9999 6.80026 3.9999H7.80026C7.90635 3.9999 8.00809 4.04205 8.08311 4.11706C8.15812 4.19207 8.20026 4.29382 8.20026 4.3999V6.2719C8.19992 6.36525 8.16694 6.45553 8.10704 6.52712C8.04714 6.59871 7.96408 6.6471 7.87226 6.6639C7.23527 6.78621 6.6605 7.12587 6.24612 7.62488C5.83173 8.12389 5.60345 8.75128 5.60026 9.3999V16.3999C5.60026 17.1425 5.89526 17.8547 6.42036 18.3798C6.94547 18.9049 7.65766 19.1999 8.40026 19.1999H7.20026C6.63879 19.1886 6.09113 19.3745 5.6526 19.7253C5.21408 20.0761 4.91247 20.5696 4.80026 21.1199C4.78927 21.1784 4.79072 21.2385 4.8045 21.2964C4.81828 21.3543 4.8441 21.4086 4.88026 21.4559C4.92023 21.5014 4.96947 21.5377 5.02467 21.5626C5.07986 21.5874 5.13974 21.6001 5.20026 21.5999H18.8003C18.8594 21.599 18.9178 21.5857 18.9715 21.5609C19.0252 21.5361 19.0732 21.5003 19.1123 21.4559C19.1484 21.4086 19.1742 21.3543 19.188 21.2964C19.2018 21.2385 19.2033 21.1784 19.1923 21.1199C19.0816 20.5778 18.7871 20.0906 18.3585 19.7407C17.9299 19.3908 17.3935 19.1998 16.8403 19.1999ZM9.80026 4.3999C9.80026 4.29382 9.84241 4.19207 9.91742 4.11706C9.99243 4.04205 10.0942 3.9999 10.2003 3.9999H13.8003C13.9064 3.9999 14.0081 4.04205 14.0831 4.11706C14.1581 4.19207 14.2003 4.29382 14.2003 4.3999V6.1999C14.2003 6.30599 14.1581 6.40773 14.0831 6.48275C14.0081 6.55776 13.9064 6.5999 13.8003 6.5999H10.2003C10.0942 6.5999 9.99243 6.55776 9.91742 6.48275C9.84241 6.40773 9.80026 6.30599 9.80026 6.1999V4.3999ZM12.0003 16.3999C11.2577 16.3999 10.5455 16.1049 10.0204 15.5798C9.49526 15.0547 9.20026 14.3425 9.20026 13.5999C9.19073 13.1042 9.32857 12.6168 9.59632 12.1995C9.86407 11.7822 10.2497 11.4538 10.7043 11.2559C10.7321 11.244 10.762 11.2379 10.7923 11.2379C10.8225 11.2379 10.8524 11.244 10.8803 11.2559C10.909 11.2662 10.9349 11.2831 10.9557 11.3054C10.9766 11.3277 10.9919 11.3546 11.0003 11.3839C11.0955 11.6347 11.2523 11.8576 11.4563 12.0319C11.4797 12.0533 11.5079 12.0688 11.5385 12.0771C11.5691 12.0855 11.6012 12.0864 11.6323 12.0799C11.6632 12.0734 11.6922 12.0599 11.7172 12.0405C11.7421 12.0211 11.7623 11.9963 11.7763 11.9679C11.9484 11.5341 12.015 11.0656 11.9705 10.601C11.926 10.1364 11.7717 9.68911 11.5203 9.2959C11.4911 9.25809 11.4752 9.21167 11.4752 9.1639C11.4752 9.11613 11.4911 9.06971 11.5203 9.0319C11.5496 8.99646 11.5898 8.97173 11.6347 8.9616C11.6796 8.95147 11.7266 8.9565 11.7683 8.9759C12.6609 9.37879 13.4202 10.0277 13.9572 10.8467C14.4941 11.6656 14.7866 12.6207 14.8003 13.5999C14.8003 14.3425 14.5053 15.0547 13.9802 15.5798C13.4551 16.1049 12.7429 16.3999 12.0003 16.3999Z" fill="#FAFAFA"/>
</svg>
