<svg width="24" height="24" viewBox="0 0 24 24" fill="none" xmlns="http://www.w3.org/2000/svg">
<path d="M15.7913 2C17.2617 2.00026 18.4542 3.19186 18.4542 4.66174V11.9437C18.3518 11.8983 18.2461 11.8588 18.1364 11.8294L17.8234 11.7585C17.0902 11.6181 16.3325 11.6652 15.6211 11.8955C14.8077 12.159 14.0859 12.6516 13.5454 13.3162C13.2737 13.6506 13.0533 14.0217 12.8901 14.4155C12.6071 14.4253 12.3275 14.4908 12.0674 14.6083L11.8755 14.7066C11.4981 14.9246 11.1999 15.2476 11.0121 15.6273L10.9582 15.752L10.9071 15.8853L10.8599 16.029C10.6382 16.8568 10.6627 17.7307 10.9261 18.5433C11.1897 19.356 11.6826 20.077 12.3473 20.6171C12.6819 20.8888 13.0531 21.109 13.4471 21.2721C13.4481 21.3009 13.4506 21.3295 13.4528 21.3581H5.62772C4.15706 21.3581 2.96484 20.1664 2.96484 18.6964V4.66174C2.96484 3.1917 4.15706 2 5.62772 2H15.7913ZM5.87453 15.0667C5.47366 15.067 5.14829 15.3919 5.14829 15.7927V17.7285C5.1484 18.1292 5.47373 18.4542 5.87453 18.4544C6.27555 18.4544 6.60066 18.1293 6.60077 17.7285V15.7927C6.60077 15.3918 6.27562 15.0667 5.87453 15.0667ZM8.83055 15.0667C8.42965 15.067 8.10431 15.3919 8.10431 15.7927V17.7285C8.10442 18.1292 8.42972 18.4542 8.83055 18.4544C9.23157 18.4544 9.55668 18.1293 9.55679 17.7285V15.7927C9.55679 15.3918 9.23164 15.0667 8.83055 15.0667ZM5.87453 9.7442C5.47373 9.74445 5.14841 10.0695 5.14829 10.4701C5.14829 10.8709 5.47366 11.1958 5.87453 11.1961H15.5577C15.9588 11.1961 16.284 10.871 16.284 10.4701C16.2838 10.0693 15.9587 9.7442 15.5577 9.7442H5.87453ZM6.06838 4.55115C5.56061 4.55141 5.14839 4.96326 5.14829 5.47085V8.11653C5.14852 8.62401 5.56069 9.03597 6.06838 9.03623H15.3639C15.8718 9.03623 16.2837 8.62416 16.284 8.11653V5.47085C16.2839 4.9631 15.8719 4.55115 15.3639 4.55115H6.06838ZM8.3672 7.58437H6.60077V6.00301H8.3672V7.58437ZM11.5927 7.58437H9.81968V6.00301H11.5927V7.58437ZM14.8315 7.58437H13.0452V6.00301H14.8315V7.58437Z" fill="#FAFAFA"/>
<path d="M16.0684 13.2765C16.6161 13.0991 17.2039 13.0832 17.7601 13.2321C17.946 13.2819 18.1045 13.4039 18.2007 13.5704C18.297 13.7371 18.3234 13.9356 18.2736 14.1215L18.0447 14.9741C18.1532 14.9739 18.2623 14.9785 18.371 14.9902C18.9434 15.0518 19.4863 15.2776 19.9331 15.6405C20.3799 16.0034 20.7117 16.4882 20.8891 17.0356C21.0666 17.5832 21.0826 18.1707 20.9336 18.7266C20.8837 18.9124 20.7617 19.0709 20.5951 19.1671C20.4283 19.2633 20.2297 19.2897 20.0438 19.2399L19.1899 19.0112C19.1901 19.1197 19.1864 19.2287 19.1747 19.3373C19.1131 19.9095 18.8872 20.4521 18.5241 20.8988C18.1611 21.3453 17.6761 21.677 17.1284 21.8544C16.5807 22.0317 15.9928 22.0477 15.4367 21.8988C15.2509 21.8489 15.0923 21.727 14.996 21.5604C14.8998 21.3937 14.8734 21.1953 14.9232 21.0093L15.1511 20.1558C15.0429 20.156 14.9341 20.1523 14.8258 20.1407C14.2534 20.0791 13.7105 19.8533 13.2636 19.4904C12.8169 19.1274 12.4851 18.6427 12.3076 18.0952C12.1301 17.5477 12.1142 16.9602 12.2632 16.4042L12.3142 16.2709C12.3773 16.1435 12.4767 16.036 12.6017 15.9638C12.7684 15.8675 12.967 15.8412 13.153 15.891L14.006 16.1188C14.0057 16.0106 14.0104 15.9019 14.022 15.7936C14.0837 15.2214 14.3096 14.6788 14.6726 14.2321C15.0357 13.7855 15.5207 13.4539 16.0684 13.2765ZM16.5989 16.356C15.9304 16.356 15.3885 16.8977 15.3885 17.5659C15.3887 18.2339 15.9305 18.7758 16.5989 18.7758C17.267 18.7755 17.809 18.2338 17.8093 17.5659C17.8093 16.8979 17.2671 16.3563 16.5989 16.356Z" fill="#FAFAFA"/>
</svg>
