<svg width="24" height="24" viewBox="0 0 24 24" fill="none" xmlns="http://www.w3.org/2000/svg">
<path fill-rule="evenodd" clip-rule="evenodd" d="M12 22C17.5228 22 22 17.5228 22 12C22 6.47715 17.5228 2 12 2C6.47715 2 2 6.47715 2 12C2 17.5228 6.47715 22 12 22ZM9.70221 15.9519C10.9714 14.6827 13.0292 14.6827 14.2984 15.9519C14.5913 16.2448 15.0662 16.2448 15.3591 15.9519C15.6519 15.659 15.6519 15.1841 15.3591 14.8912C13.5041 13.0363 10.4965 13.0363 8.64154 14.8912C8.34865 15.1841 8.34865 15.659 8.64154 15.9519C8.93444 16.2448 9.40931 16.2448 9.70221 15.9519ZM10.5 9.5C10.5 10.3284 9.94036 11 9.25 11C8.55964 11 8 10.3284 8 9.5C8 8.67157 8.55964 8 9.25 8C9.94036 8 10.5 8.67157 10.5 9.5ZM14.75 11C15.4404 11 16 10.3284 16 9.5C16 8.67157 15.4404 8 14.75 8C14.0596 8 13.5 8.67157 13.5 9.5C13.5 10.3284 14.0596 11 14.75 11Z" fill="#FAFAFA"/>
</svg>
