<svg width="24" height="24" viewBox="0 0 24 24" fill="none" xmlns="http://www.w3.org/2000/svg">
<path d="M15.2354 20.2812H16C16.4142 20.2812 16.75 20.617 16.75 21.0312C16.75 21.4455 16.4142 21.7812 16 21.7812H8C7.58579 21.7812 7.25 21.4455 7.25 21.0312C7.25 20.617 7.58579 20.2812 8 20.2812H8.83301V13.7812H15.2354V20.2812ZM21 2.28125C21.4142 2.28125 21.75 2.61704 21.75 3.03125V10.0312C21.75 10.4455 21.4142 10.7812 21 10.7812C20.5858 10.7812 20.25 10.4455 20.25 10.0312V9.63965H15.3418C15.3118 9.63965 15.2841 9.65069 15.2646 9.66895C15.2465 9.68606 15.2373 9.70804 15.2354 9.72949V12.2812H8.83301V9.72949C8.83105 9.70804 8.82192 9.68605 8.80371 9.66895C8.78426 9.65071 8.75653 9.63961 8.72656 9.63965H3.75V10.0312C3.75 10.4455 3.41421 10.7812 3 10.7812C2.58579 10.7812 2.25 10.4455 2.25 10.0312V3.03125C2.25 2.61704 2.58579 2.28125 3 2.28125C3.41421 2.28125 3.75 2.61704 3.75 3.03125V3.28125H20.25V3.03125C20.25 2.61704 20.5858 2.28125 21 2.28125Z" fill="#FAFAFA"/>
</svg>
