<svg width="24" height="24" viewBox="0 0 24 24" fill="none" xmlns="http://www.w3.org/2000/svg">
<path d="M8.25 18.5C8.94036 18.5 9.5 19.0596 9.5 19.75C9.5 20.4404 8.94036 21 8.25 21C7.55964 21 7 20.4404 7 19.75C7 19.0596 7.55964 18.5 8.25 18.5Z" fill="#FAFAFA"/>
<path d="M17.25 18.5C17.9404 18.5 18.5 19.0596 18.5 19.75C18.5 20.4404 17.9404 21 17.25 21C16.5596 21 16 20.4404 16 19.75C16 19.0596 16.5596 18.5 17.25 18.5Z" fill="#FAFAFA"/>
<path d="M3.04492 3C4.39578 3.00017 5.54627 3.98152 5.75977 5.31543L5.86914 6H19.0801C20.1551 6.00021 20.9759 6.9606 20.8086 8.02246L19.7578 14.6787C19.5468 16.0154 18.3942 17 17.041 17H8.45508C7.10422 16.9998 5.95373 16.0185 5.74023 14.6846L4.2793 5.55273C4.18229 4.94645 3.65889 4.50017 3.04492 4.5H1.75C1.33579 4.5 1 4.16421 1 3.75C1 3.33579 1.33579 3 1.75 3H3.04492Z" fill="#FAFAFA"/>
</svg>
