<svg width="24" height="24" viewBox="0 0 24 24" fill="none" xmlns="http://www.w3.org/2000/svg">
<path fill-rule="evenodd" clip-rule="evenodd" d="M16.6631 12.9336C17.6366 12.9336 18.5703 13.3204 19.2588 14.0088C19.9471 14.6972 20.3339 15.631 20.334 16.6045C20.3339 17.3186 20.1248 18.0105 19.7422 18.6006L21.9912 20.7246C22.2916 21.0091 22.3047 21.4833 22.0205 21.7842C21.7362 22.0851 21.2621 22.0985 20.9609 21.8145L18.6865 19.665C18.0905 20.0591 17.3883 20.2754 16.6631 20.2754C15.6896 20.2754 14.7558 19.8885 14.0674 19.2002C13.3791 18.5118 12.9923 17.578 12.9922 16.6045C12.9922 15.631 13.379 14.6972 14.0674 14.0088C14.7558 13.3204 15.6895 12.9336 16.6631 12.9336ZM16.6631 14.4336C16.0873 14.4336 15.535 14.6622 15.1279 15.0693C14.7209 15.4764 14.4922 16.0288 14.4922 16.6045C14.4923 17.1801 14.7209 17.7326 15.1279 18.1396C15.535 18.5467 16.0874 18.7754 16.6631 18.7754C17.2388 18.7754 17.7911 18.5467 18.1982 18.1396C18.6053 17.7326 18.8339 17.1802 18.834 16.6045C18.8339 16.0288 18.6053 15.4764 18.1982 15.0693C17.7911 14.6623 17.2388 14.4336 16.6631 14.4336Z" fill="#FAFAFA"/>
<path d="M17.3555 2C18.329 2.00007 19.2628 2.3868 19.9512 3.0752C20.6396 3.76361 21.0263 4.69736 21.0264 5.6709V11.0264C21.0263 11.4405 20.6905 11.7763 20.2764 11.7764C19.8622 11.7764 19.5264 11.4405 19.5264 11.0264V5.6709C19.5263 5.09518 19.2977 4.54285 18.8906 4.13574C18.4835 3.72865 17.9312 3.50007 17.3555 3.5H5.6709C5.09515 3.50004 4.54286 3.72863 4.13574 4.13574C3.72863 4.54286 3.50004 5.09515 3.5 5.6709V13.5977L7.09863 9.99902C7.66297 9.4561 8.34632 9.1377 9.0791 9.1377C9.72045 9.13776 10.3239 9.38171 10.8428 9.80664L11.0596 9.99902L11.0693 10.0098L13.0176 11.957C13.1718 12.1115 13.2508 12.3263 13.2344 12.5439C13.2178 12.7616 13.1074 12.9613 12.9316 13.0908C11.5911 14.0786 11.1933 15.2385 11.1787 16.4189C11.1634 17.664 11.5716 18.9132 11.9092 20.0625C12.0257 20.4598 11.7977 20.8765 11.4004 20.9932C11.3086 21.0201 11.2159 21.0262 11.126 21.0186C11.0933 21.0229 11.0602 21.0264 11.0264 21.0264H5.6709C4.69736 21.0263 3.76361 20.6396 3.0752 19.9512C2.3868 19.2628 2.00007 18.329 2 17.3555V5.6709C2.00004 4.69733 2.38678 3.76362 3.0752 3.0752C3.76362 2.38678 4.69733 2.00004 5.6709 2H17.3555Z" fill="#FAFAFA"/>
<path d="M15.0566 5.82324C15.5956 5.82324 16.1131 6.03787 16.4941 6.41895C16.875 6.79998 17.0889 7.31671 17.0889 7.85547C17.0889 8.39422 16.875 8.91095 16.4941 9.29199C16.1131 9.67307 15.5956 9.8877 15.0566 9.8877C14.5178 9.88762 14.0011 9.673 13.6201 9.29199C13.2391 8.91093 13.0254 8.39432 13.0254 7.85547C13.0254 7.31662 13.2391 6.8 13.6201 6.41895C14.0011 6.03793 14.5178 5.82332 15.0566 5.82324Z" fill="#FAFAFA"/>
</svg>
