<svg width="24" height="24" viewBox="0 0 24 24" fill="none" xmlns="http://www.w3.org/2000/svg">
<path d="M15 20.25C15.4142 20.25 15.75 20.5858 15.75 21C15.75 21.4142 15.4142 21.75 15 21.75H9C8.58579 21.75 8.25 21.4142 8.25 21C8.25 20.5858 8.58579 20.25 9 20.25H15Z" fill="#FAFAFA"/>
<path d="M11.999 3C13.7891 3 15.5066 3.71081 16.7725 4.97656C18.0383 6.24243 18.749 7.95979 18.749 9.75C18.749 13.1081 19.5277 15.8062 20.1465 16.875C20.2121 16.9887 20.2469 17.1177 20.2471 17.249C20.2472 17.3805 20.212 17.5101 20.1465 17.624C20.081 17.7378 19.9866 17.8325 19.873 17.8984C19.7595 17.9643 19.6303 17.9995 19.499 18H4.49902C4.36788 17.9991 4.23926 17.9635 4.12598 17.8975C4.0127 17.8313 3.91877 17.7368 3.85352 17.623C3.78825 17.5092 3.75373 17.3802 3.75391 17.249C3.75411 17.1178 3.78885 16.9887 3.85449 16.875C4.4723 15.8062 5.24902 13.1071 5.24902 9.75C5.24902 7.95979 5.96069 6.24243 7.22656 4.97656C8.49232 3.71097 10.2091 3.0001 11.999 3Z" fill="#FAFAFA"/>
</svg>
