<svg width="24" height="24" viewBox="0 0 24 24" fill="none" xmlns="http://www.w3.org/2000/svg">
<path fill-rule="evenodd" clip-rule="evenodd" d="M20.2032 5.01074C21.2118 5.113 21.9989 5.96446 21.9991 7V7.70215C22.5396 7.71065 22.9773 8.14879 22.9825 8.69238L23.0157 15.2705C23.0206 15.8227 22.5766 16.2743 22.0245 16.2793C22.016 16.2794 22.0075 16.2785 21.9991 16.2783V17C21.9989 18.0355 21.2118 18.887 20.2032 18.9893L19.9991 19H3.99906C2.96355 18.9999 2.11217 18.2126 2.00981 17.2041L1.99906 17V16.2783C1.45868 16.2697 1.02091 15.8325 1.01567 15.2891L0.982462 8.71094C0.977568 8.15884 1.42157 7.70727 1.97367 7.70215C1.98211 7.70207 1.99068 7.70202 1.99906 7.70215V7C1.9992 5.89558 2.89463 5.00007 3.99906 5H19.9991L20.2032 5.01074ZM6.34672 14.1621C5.93263 14.1622 5.59685 14.498 5.59672 14.9121C5.59698 15.3261 5.93271 15.6621 6.34672 15.6621H17.6504C18.0645 15.6621 18.4002 15.3261 18.4004 14.9121C18.4003 14.498 18.0646 14.1621 17.6504 14.1621H6.34672ZM6.34672 11.25C5.93263 11.25 5.59685 11.5859 5.59672 12C5.59685 12.4141 5.93263 12.75 6.34672 12.75H17.6504C18.0646 12.75 18.4003 12.4141 18.4004 12C18.4003 11.5859 18.0646 11.25 17.6504 11.25H6.34672ZM6.34672 8.33789C5.93263 8.33793 5.59685 8.67382 5.59672 9.08789C5.59672 9.50208 5.93254 9.83785 6.34672 9.83789H17.6504C18.0646 9.83789 18.4004 9.5021 18.4004 9.08789C18.4003 8.67379 18.0646 8.33789 17.6504 8.33789H6.34672Z" fill="#FAFAFA"/>
</svg>
