<svg width="24" height="24" viewBox="0 0 24 24" fill="none" xmlns="http://www.w3.org/2000/svg">
<path d="M8.4375 13.8818V21.0762C8.25622 21.0222 8.07998 20.9504 7.91309 20.8584L4.16309 18.9766C4.15118 18.9706 4.1395 18.9636 4.12793 18.957C3.36679 18.5217 2.87681 17.7381 2.81836 16.8711L2.8125 16.6963V11.9922L2.81836 11.8174C2.83057 11.6361 2.86163 11.4578 2.91016 11.2861L8.4375 13.8818Z" fill="#FAFAFA"/>
<path d="M21.1016 8.52148C21.1575 8.73477 21.1871 8.95548 21.1875 9.17773V13.8828C21.1873 14.8174 20.6843 15.6793 19.873 16.1445C19.861 16.1514 19.8484 16.1578 19.8359 16.1641L10.4609 20.8594L10.46 20.8584C10.2936 20.95 10.118 21.0212 9.9375 21.0752V13.877L21.1016 8.52148Z" fill="#FAFAFA"/>
<path d="M14.8125 4.68652C15.2586 4.68652 15.6967 4.80139 16.0869 5.0166L19.8369 6.89844L19.8711 6.91699C20.0307 7.00792 20.1795 7.11502 20.3154 7.23633L9.18457 12.5762L3.72559 10.0117C3.84873 9.9064 3.98344 9.81279 4.12695 9.73047L4.16406 9.71094L13.5391 5.01562C13.9291 4.80068 14.3667 4.68652 14.8125 4.68652Z" fill="#FAFAFA"/>
</svg>
