<svg width="24" height="24" viewBox="0 0 24 24" fill="none" xmlns="http://www.w3.org/2000/svg">
<path fill-rule="evenodd" clip-rule="evenodd" d="M20.6514 5.29248C20.9414 5.3422 21.1809 5.5596 21.2529 5.85303L22.5723 11.2251C22.5865 11.2834 22.5938 11.3438 22.5938 11.4038V16.7661C22.5935 17.18 22.2577 17.516 21.8438 17.5161H19.6885C19.5675 17.907 19.3533 18.2673 19.0586 18.562C18.5822 19.0382 17.9363 19.306 17.2627 19.3062C16.589 19.3062 15.9423 19.0383 15.4658 18.562C15.1712 18.2673 14.957 17.907 14.8359 17.5161H8.16406C8.04305 17.907 7.82891 18.2673 7.53418 18.562C7.05788 19.0382 6.41181 19.306 5.73828 19.3062C5.06464 19.3062 4.41783 19.0382 3.94141 18.562C3.64668 18.2673 3.43156 17.9071 3.31055 17.5161H2.15625C1.74222 17.5161 1.40654 17.1801 1.40625 16.7661V11.6743L1.41016 11.5972C1.44878 11.2192 1.76808 10.9243 2.15625 10.9243H14.7217V6.03174C14.7217 5.61752 15.0575 5.28076 15.4717 5.28076H20.5244L20.6514 5.29248ZM5.73828 15.7251C5.46229 15.7251 5.19711 15.8346 5.00195 16.0298C4.80687 16.2249 4.69727 16.4902 4.69727 16.7661C4.6975 17.0417 4.80707 17.3065 5.00195 17.5015C5.19707 17.6964 5.46246 17.8062 5.73828 17.8062C6.01399 17.806 6.27864 17.6964 6.47363 17.5015C6.66858 17.3065 6.77809 17.0418 6.77832 16.7661C6.77832 16.4903 6.66856 16.2249 6.47363 16.0298C6.27864 15.8348 6.014 15.7253 5.73828 15.7251ZM17.2627 15.7251C16.9867 15.7251 16.7215 15.8346 16.5264 16.0298C16.3314 16.2249 16.2217 16.4902 16.2217 16.7661C16.2219 17.0417 16.3315 17.3065 16.5264 17.5015C16.7215 17.6965 16.9868 17.8062 17.2627 17.8062C17.5384 17.806 17.803 17.6964 17.998 17.5015C18.193 17.3065 18.3025 17.0418 18.3027 16.7661C18.3027 16.4902 18.193 16.2249 17.998 16.0298C17.803 15.8348 17.5385 15.7252 17.2627 15.7251ZM2.90625 16.0161H3.31055C3.43145 15.6245 3.64635 15.2643 3.94141 14.9692C4.41787 14.4928 5.06447 14.2251 5.73828 14.2251C6.41182 14.2253 7.05788 14.493 7.53418 14.9692C7.82908 15.2643 8.04318 15.6246 8.16406 16.0161H14.7217V12.4243H2.90625V16.0161ZM16.2217 14.4507C16.5463 14.3047 16.9 14.2251 17.2627 14.2251C17.9363 14.2252 18.5822 14.4929 19.0586 14.9692C19.3536 15.2643 19.5686 15.6245 19.6895 16.0161H21.0938V11.4946L19.9365 6.78174H16.2217V14.4507Z" fill="#FAFAFA"/>
<path d="M2.90625 16.0161H3.31055C3.43145 15.6245 3.64635 15.2643 3.94141 14.9692C4.41787 14.4928 5.06447 14.2251 5.73828 14.2251C6.41182 14.2253 7.05788 14.493 7.53418 14.9692C7.82908 15.2643 8.04318 15.6246 8.16406 16.0161H14.7217V12.4243H2.90625V16.0161Z" fill="#FAFAFA"/>
<path d="M3.83984 7.49365C3.57463 7.49365 3.32027 7.59901 3.13274 7.78655C2.9452 7.97408 2.83984 8.22844 2.83984 8.49365C2.83984 8.75887 2.9452 9.01322 3.13274 9.20076C3.32027 9.3883 3.57463 9.49365 3.83984 9.49365H5.03984C5.09289 9.49365 5.14376 9.47258 5.18127 9.43507C5.21877 9.39757 5.23984 9.3467 5.23984 9.29365V7.69365C5.23984 7.64061 5.21877 7.58974 5.18127 7.55223C5.14376 7.51472 5.09289 7.49365 5.03984 7.49365H3.83984Z" fill="#FAFAFA"/>
<path d="M6.23906 7.49365H9.43906C9.43906 7.49365 9.63906 7.49365 9.63906 7.69365V9.29365C9.63906 9.29365 9.63906 9.49365 9.43906 9.49365H6.23906C6.23906 9.49365 6.03906 9.49365 6.03906 9.29365V7.69365C6.03906 7.69365 6.03906 7.49365 6.23906 7.49365Z" fill="#FAFAFA"/>
<path d="M11.8414 9.49365C12.1066 9.49365 12.361 9.3883 12.5485 9.20076C12.7361 9.01322 12.8414 8.75887 12.8414 8.49365C12.8414 8.22844 12.7361 7.97408 12.5485 7.78655C12.361 7.59901 12.1066 7.49365 11.8414 7.49365H10.6414C10.5884 7.49365 10.5375 7.51472 10.5 7.55223C10.4625 7.58974 10.4414 7.64061 10.4414 7.69365V9.29365C10.4414 9.3467 10.4625 9.39757 10.5 9.43507C10.5375 9.47258 10.5884 9.49365 10.6414 9.49365H11.8414Z" fill="#FAFAFA"/>
<path d="M11.8414 6.69385C12.1066 6.69385 12.361 6.58849 12.5485 6.40095C12.7361 6.21342 12.8414 5.95906 12.8414 5.69385C12.8414 5.42863 12.7361 5.17428 12.5485 4.98674C12.361 4.7992 12.1066 4.69385 11.8414 4.69385H10.6414C10.5884 4.69385 10.5375 4.71492 10.5 4.75243C10.4625 4.78993 10.4414 4.8408 10.4414 4.89385V6.49385C10.4414 6.54689 10.4625 6.59776 10.5 6.63527C10.5375 6.67278 10.5884 6.69385 10.6414 6.69385H11.8414Z" fill="#FAFAFA"/>
<path d="M6.23906 4.69385H9.43906C9.43906 4.69385 9.63906 4.69385 9.63906 4.89385V6.49385C9.63906 6.49385 9.63906 6.69385 9.43906 6.69385H6.23906C6.23906 6.69385 6.03906 6.69385 6.03906 6.49385V4.89385C6.03906 4.89385 6.03906 4.69385 6.23906 4.69385Z" fill="#FAFAFA"/>
<path d="M3.83984 4.69385C3.57463 4.69385 3.32027 4.7992 3.13274 4.98674C2.9452 5.17428 2.83984 5.42863 2.83984 5.69385C2.83984 5.95906 2.9452 6.21342 3.13274 6.40095C3.32027 6.58849 3.57463 6.69385 3.83984 6.69385H5.03984C5.09289 6.69385 5.14376 6.67278 5.18127 6.63527C5.21877 6.59776 5.23984 6.54689 5.23984 6.49385V4.89385C5.23984 4.8408 5.21877 4.78993 5.18127 4.75243C5.14376 4.71492 5.09289 4.69385 5.03984 4.69385H3.83984Z" fill="#FAFAFA"/>
<path d="M3.83984 10.2935C3.57463 10.2935 3.32027 10.3988 3.13274 10.5864C2.9452 10.7739 2.83984 11.0282 2.83984 11.2935C2.83984 11.5587 2.9452 11.813 3.13274 12.0006C3.32027 12.1881 3.57463 12.2935 3.83984 12.2935H5.03984C5.09289 12.2935 5.14376 12.2724 5.18127 12.2349C5.21877 12.1974 5.23984 12.1465 5.23984 12.0935V10.4935C5.23984 10.4404 5.21877 10.3895 5.18127 10.352C5.14376 10.3145 5.09289 10.2935 5.03984 10.2935H3.83984Z" fill="#FAFAFA"/>
<path d="M6.23906 10.2935H9.43906C9.43906 10.2935 9.63906 10.2935 9.63906 10.4935V12.0935C9.63906 12.0935 9.63906 12.2935 9.43906 12.2935H6.23906C6.23906 12.2935 6.03906 12.2935 6.03906 12.0935V10.4935C6.03906 10.4935 6.03906 10.2935 6.23906 10.2935Z" fill="#FAFAFA"/>
<path d="M11.8414 12.2935C12.1066 12.2935 12.361 12.1881 12.5485 12.0006C12.7361 11.813 12.8414 11.5587 12.8414 11.2935C12.8414 11.0282 12.7361 10.7739 12.5485 10.5864C12.361 10.3988 12.1066 10.2935 11.8414 10.2935H10.6414C10.5884 10.2935 10.5375 10.3145 10.5 10.352C10.4625 10.3895 10.4414 10.4404 10.4414 10.4935V12.0935C10.4414 12.1465 10.4625 12.1974 10.5 12.2349C10.5375 12.2724 10.5884 12.2935 10.6414 12.2935H11.8414Z" fill="#FAFAFA"/>
</svg>
