<svg width="24" height="24" viewBox="0 0 24 24" fill="none" xmlns="http://www.w3.org/2000/svg">
<path fill-rule="evenodd" clip-rule="evenodd" d="M19.0625 2C20.1326 2 21 2.86745 21 3.9375C21 5.00755 20.1326 5.875 19.0625 5.875H4.9375C3.86745 5.875 3 5.00755 3 3.9375C3 2.86745 3.86745 2 4.9375 2H19.0625ZM5.95996 2.9375C5.43788 2.93783 4.959 3.3559 4.95898 3.9375C4.95898 4.51913 5.43789 4.93717 5.95996 4.9375C6.48206 4.93717 6.95898 4.51912 6.95898 3.9375C6.95897 3.35591 6.48206 2.93783 5.95996 2.9375ZM13.1729 3.1875C12.7586 3.1875 12.4229 3.52329 12.4229 3.9375C12.4229 4.35164 12.7587 4.6875 13.1729 4.6875H14.5479C14.962 4.68743 15.2978 4.3516 15.2979 3.9375C15.2979 3.52333 14.962 3.18757 14.5479 3.1875H13.1729ZM16.8984 3.1875C16.4842 3.1875 16.1484 3.52329 16.1484 3.9375C16.1485 4.35164 16.4843 4.6875 16.8984 4.6875H18.2734C18.6874 4.68723 19.0234 4.35148 19.0234 3.9375C19.0234 3.52345 18.6874 3.18777 18.2734 3.1875H16.8984Z" fill="#FAFAFA"/>
<path fill-rule="evenodd" clip-rule="evenodd" d="M19.0625 7.375C20.1326 7.375 21 8.24245 21 9.3125C21 10.3826 20.1326 11.25 19.0625 11.25H4.9375C3.86745 11.25 3 10.3826 3 9.3125C3 8.24245 3.86745 7.375 4.9375 7.375H19.0625ZM5.95996 8.3125C5.43788 8.31283 4.959 8.7309 4.95898 9.3125C4.95898 9.89413 5.43789 10.3122 5.95996 10.3125C6.48206 10.3122 6.95898 9.89412 6.95898 9.3125C6.95897 8.73091 6.48206 8.31283 5.95996 8.3125ZM13.1729 8.5625C12.7586 8.5625 12.4229 8.89829 12.4229 9.3125C12.4229 9.72664 12.7587 10.0625 13.1729 10.0625H14.5479C14.962 10.0624 15.2978 9.7266 15.2979 9.3125C15.2979 8.89833 14.962 8.56257 14.5479 8.5625H13.1729ZM16.8984 8.5625C16.4842 8.5625 16.1484 8.89829 16.1484 9.3125C16.1485 9.72664 16.4843 10.0625 16.8984 10.0625H18.2734C18.6874 10.0622 19.0234 9.72648 19.0234 9.3125C19.0234 8.89845 18.6874 8.56277 18.2734 8.5625H16.8984Z" fill="#FAFAFA"/>
<path fill-rule="evenodd" clip-rule="evenodd" d="M19.0625 12.75C20.1326 12.75 21 13.6174 21 14.6875C21 15.7576 20.1326 16.625 19.0625 16.625H4.9375C3.86745 16.625 3 15.7576 3 14.6875C3 13.6174 3.86745 12.75 4.9375 12.75H19.0625ZM5.95996 13.6875C5.43788 13.6878 4.959 14.1059 4.95898 14.6875C4.95898 15.2691 5.43789 15.6872 5.95996 15.6875C6.48206 15.6872 6.95898 15.2691 6.95898 14.6875C6.95897 14.1059 6.48206 13.6878 5.95996 13.6875ZM13.1729 13.9375C12.7586 13.9375 12.4229 14.2733 12.4229 14.6875C12.4229 15.1016 12.7587 15.4375 13.1729 15.4375H14.5479C14.962 15.4374 15.2978 15.1016 15.2979 14.6875C15.2979 14.2733 14.962 13.9376 14.5479 13.9375H13.1729ZM16.8984 13.9375C16.4842 13.9375 16.1484 14.2733 16.1484 14.6875C16.1485 15.1016 16.4843 15.4375 16.8984 15.4375H18.2734C18.6874 15.4372 19.0234 15.1015 19.0234 14.6875C19.0234 14.2735 18.6874 13.9378 18.2734 13.9375H16.8984Z" fill="#FAFAFA"/>
<path fill-rule="evenodd" clip-rule="evenodd" d="M19.0625 18.125C20.1326 18.125 21 18.9924 21 20.0625C21 21.1326 20.1326 22 19.0625 22H4.9375C3.86745 22 3 21.1326 3 20.0625C3 18.9924 3.86745 18.125 4.9375 18.125H19.0625ZM5.95996 19.0625C5.43788 19.0628 4.959 19.4809 4.95898 20.0625C4.95898 20.6441 5.43789 21.0622 5.95996 21.0625C6.48206 21.0622 6.95898 20.6441 6.95898 20.0625C6.95897 19.4809 6.48206 19.0628 5.95996 19.0625ZM13.1729 19.3125C12.7586 19.3125 12.4229 19.6483 12.4229 20.0625C12.4229 20.4766 12.7587 20.8125 13.1729 20.8125H14.5479C14.962 20.8124 15.2978 20.4766 15.2979 20.0625C15.2979 19.6483 14.962 19.3126 14.5479 19.3125H13.1729ZM16.8984 19.3125C16.4842 19.3125 16.1484 19.6483 16.1484 20.0625C16.1485 20.4766 16.4843 20.8125 16.8984 20.8125H18.2734C18.6874 20.8122 19.0234 20.4765 19.0234 20.0625C19.0234 19.6485 18.6874 19.3128 18.2734 19.3125H16.8984Z" fill="#FAFAFA"/>
</svg>
