<svg width="24" height="24" viewBox="0 0 24 24" fill="none" xmlns="http://www.w3.org/2000/svg">
<path d="M2 18.25C2.41421 18.25 2.75 18.5858 2.75 19V21.25H5L5.07715 21.2539C5.45512 21.2925 5.75 21.6118 5.75 22C5.75 22.3882 5.45512 22.7075 5.07715 22.7461L5 22.75H2C1.58579 22.75 1.25 22.4142 1.25 22V19C1.25 18.5858 1.58579 18.25 2 18.25Z" fill="#FAFAFA"/>
<path d="M22 18.25C22.4142 18.25 22.75 18.5858 22.75 19V22C22.75 22.4142 22.4142 22.75 22 22.75H19C18.5858 22.75 18.25 22.4142 18.25 22C18.25 21.5858 18.5858 21.25 19 21.25H21.25V19C21.25 18.5858 21.5858 18.25 22 18.25Z" fill="#FAFAFA"/>
<path fill-rule="evenodd" clip-rule="evenodd" d="M12 7C14.7614 7 17 9.23858 17 12C17 14.7614 14.7614 17 12 17C9.23858 17 7 14.7614 7 12C7 9.23858 9.23858 7 12 7Z" fill="#FAFAFA"/>
<path d="M5.07715 1.25391C5.45512 1.29253 5.75 1.61183 5.75 2C5.75 2.38817 5.45512 2.70747 5.07715 2.74609L5 2.75H2.75V5C2.75 5.41421 2.41421 5.75 2 5.75C1.58579 5.75 1.25 5.41421 1.25 5V2L1.25391 1.92285C1.29253 1.54488 1.61183 1.25 2 1.25H5L5.07715 1.25391Z" fill="#FAFAFA"/>
<path d="M22.0771 1.25391C22.4551 1.29253 22.75 1.61183 22.75 2V5C22.75 5.41421 22.4142 5.75 22 5.75C21.5858 5.75 21.25 5.41421 21.25 5V2.75H19C18.5858 2.75 18.25 2.41421 18.25 2C18.25 1.58579 18.5858 1.25 19 1.25H22L22.0771 1.25391Z" fill="#FAFAFA"/>
</svg>
