<svg width="24" height="24" viewBox="0 0 24 24" fill="none" xmlns="http://www.w3.org/2000/svg">
<path fill-rule="evenodd" clip-rule="evenodd" d="M15 2.25C15.4142 2.25 15.75 2.58579 15.75 3C15.75 3.41421 15.4142 3.75 15 3.75H12.75V6H16L16.3086 6.00781C19.4789 6.16843 22 8.78979 22 12V13C22 15.6308 20.3062 17.8642 17.9502 18.6738V20.5498C17.9502 20.964 17.6144 21.2998 17.2002 21.2998C16.786 21.2998 16.4502 20.964 16.4502 20.5498V18.9805C16.4031 18.984 16.356 18.9898 16.3086 18.9922L16 19H8C7.8382 19 7.6781 18.9911 7.51953 18.9785V20.5498C7.51953 20.964 7.18374 21.2998 6.76953 21.2998C6.35532 21.2998 6.01953 20.964 6.01953 20.5498V18.6641C3.77165 17.8781 2.1337 15.7934 2.00781 13.3086L2 13V12C2 8.68629 4.68629 6 8 6H11.25V3.75H9C8.58579 3.75 8.25 3.41421 8.25 3C8.25 2.58579 8.58579 2.25 9 2.25H15ZM8.5 9.5C8.08579 9.5 7.75 9.83579 7.75 10.25C7.75 10.6642 8.08579 11 8.5 11H14.5957C14.8896 11.0001 15.1798 11.122 15.3994 11.3525C15.6203 11.5845 15.75 11.907 15.75 12.25C15.75 12.5928 15.62 12.9146 15.3994 13.1465C15.1798 13.377 14.8897 13.4999 14.5957 13.5H12.2051C12.2985 13.236 12.2415 12.9309 12.0303 12.7197C11.7374 12.4268 11.2626 12.4268 10.9697 12.7197L9.96973 13.7197C9.82907 13.8604 9.75 14.0511 9.75 14.25C9.75 14.4489 9.82907 14.6396 9.96973 14.7803L10.9697 15.7803C11.2626 16.0732 11.7374 16.0732 12.0303 15.7803C12.2415 15.5691 12.2985 15.264 12.2051 15H14.5957C15.3117 14.9999 15.9907 14.701 16.4854 14.1816C16.9789 13.6634 17.25 12.9679 17.25 12.25C17.25 11.5321 16.9789 10.8366 16.4854 10.3184C15.9907 9.79907 15.3118 9.50013 14.5957 9.5H8.5Z" fill="#FAFAFA"/>
</svg>
