<svg width="24" height="24" viewBox="0 0 24 24" fill="none" xmlns="http://www.w3.org/2000/svg">
<path fill-rule="evenodd" clip-rule="evenodd" d="M15 2.25C15.4142 2.25 15.75 2.58579 15.75 3C15.75 3.41421 15.4142 3.75 15 3.75H12.75V6H16L16.3086 6.00781C19.4789 6.16843 22 8.78979 22 12V13C22 15.6308 20.3062 17.8642 17.9502 18.6738V20.5498C17.9502 20.964 17.6144 21.2998 17.2002 21.2998C16.786 21.2998 16.4502 20.964 16.4502 20.5498V18.9805C16.4031 18.984 16.356 18.9898 16.3086 18.9922L16 19H8C7.8382 19 7.6781 18.9911 7.51953 18.9785V20.5498C7.51953 20.964 7.18374 21.2998 6.76953 21.2998C6.35532 21.2998 6.01953 20.964 6.01953 20.5498V18.6641C3.77165 17.8781 2.1337 15.7934 2.00781 13.3086L2 13V12C2 8.68629 4.68629 6 8 6H11.25V3.75H9C8.58579 3.75 8.25 3.41421 8.25 3C8.25 2.58579 8.58579 2.25 9 2.25H15ZM11.6465 9.50488C11.6046 9.51401 11.5663 9.53608 11.5381 9.56836C11.5099 9.60093 11.4924 9.64258 11.4893 9.68555C11.4862 9.72845 11.4973 9.77138 11.5205 9.80762C11.7466 10.1728 11.8726 10.5913 11.8867 11.0205C11.9007 11.4497 11.8023 11.8758 11.6006 12.2549C11.3571 12.082 11.1657 11.8451 11.0488 11.5703C11.0394 11.5437 11.0243 11.5195 11.0049 11.499C10.9853 11.4785 10.9618 11.4619 10.9355 11.4512C10.9093 11.4402 10.8809 11.4346 10.8525 11.4355C10.8242 11.4366 10.7959 11.4443 10.7705 11.457C10.3868 11.6299 10.0616 11.9114 9.83594 12.2666C9.61037 12.6219 9.49323 13.0362 9.5 13.457C9.50018 14.0932 9.75337 14.7034 10.2031 15.1533C10.6531 15.6033 11.264 15.8564 11.9004 15.8564C12.5367 15.8564 13.1476 15.6032 13.5977 15.1533C14.0473 14.7034 14.2996 14.0931 14.2998 13.457C14.2894 12.6298 14.0475 11.8213 13.6006 11.125C13.1537 10.4289 12.5201 9.87245 11.7725 9.51855C11.7332 9.50051 11.6887 9.4958 11.6465 9.50488ZM6.53027 10.9697C6.23739 10.6769 5.76261 10.6769 5.46973 10.9697L4.46973 11.9697C4.33403 12.1054 4.25002 12.2929 4.25 12.5C4.25001 12.6348 4.28831 12.7598 4.35059 12.8691C4.38352 12.9271 4.42179 12.9823 4.46973 13.0303L5.46973 14.0303C5.76261 14.3231 6.23739 14.3231 6.53027 14.0303C6.74144 13.8191 6.79845 13.5139 6.70508 13.25H7.5C7.91419 13.25 8.24997 12.9142 8.25 12.5C8.24997 12.0858 7.91419 11.75 7.5 11.75H6.70508C6.79847 11.4861 6.74146 11.1809 6.53027 10.9697ZM17.8301 10.9697C17.5372 10.677 17.0624 10.6769 16.7695 10.9697L15.7695 11.9697C15.6339 12.1054 15.5498 12.293 15.5498 12.5C15.5498 12.6349 15.589 12.7597 15.6514 12.8691C15.6842 12.9269 15.7217 12.9824 15.7695 13.0303L16.7695 14.0303C17.0624 14.3231 17.5372 14.323 17.8301 14.0303C18.0413 13.8191 18.0983 13.514 18.0049 13.25H18.7998C19.214 13.25 19.5498 12.9142 19.5498 12.5C19.5498 12.0858 19.214 11.75 18.7998 11.75H18.0049C18.0983 11.486 18.0413 11.181 17.8301 10.9697Z" fill="#FAFAFA"/>
</svg>
