<svg width="24" height="24" viewBox="0 0 24 24" fill="none" xmlns="http://www.w3.org/2000/svg">
<path d="M3.53195 6.25879C3.24039 5.96539 2.76538 5.96382 2.4714 6.25488C2.17771 6.54641 2.17633 7.02135 2.46749 7.31543L9.51046 14.4209C9.6513 14.563 9.8436 14.6436 10.0437 14.6436H20.2497V20.249H10.9372L10.5866 20.2402C8.83979 20.1526 7.18064 19.4147 5.93624 18.1592L3.53195 15.7344L3.47531 15.6826C3.18186 15.4414 2.74709 15.4564 2.4714 15.7295C2.17751 16.021 2.1762 16.4959 2.46749 16.79L4.87179 19.2139L4.87081 19.2148C6.37795 20.7354 8.39013 21.6329 10.5114 21.7393L10.9372 21.749H20.9997C21.4139 21.749 21.7497 21.4132 21.7497 20.999V13.8936L21.7458 13.8164C21.707 13.4386 21.3878 13.1436 20.9997 13.1436H17.7507V11.3389C17.7505 11.1336 17.6661 10.9364 17.5173 10.7949C17.3871 10.6714 17.2173 10.5991 17.0398 10.5898H16.9655L16.9675 10.5889H16.9343C16.9018 10.5878 16.8549 10.5846 16.8025 10.5762C16.6805 10.5564 16.6068 10.5214 16.5798 10.499C16.3642 10.3204 16.2151 10.0706 16.1599 9.79199L15.6921 7.43066L15.655 7.30371C15.5443 7.02049 15.2687 6.82715 14.9558 6.82715H14.5329L14.2644 6.83887C13.6432 6.89339 13.0503 7.13561 12.5661 7.53613C12.0823 7.93659 11.7328 8.47407 11.5593 9.07422L11.4958 9.33496L11.4929 9.34766L10.8073 13.1436H10.3562L3.53195 6.25879Z" fill="#FAFAFA"/>
<path d="M13.9997 2.33105C12.8952 2.33105 11.9997 3.22649 11.9997 4.33105C11.9997 5.43562 12.8952 6.33105 13.9997 6.33105C15.1043 6.33105 15.9997 5.43562 15.9997 4.33105C15.9997 3.22649 15.1043 2.33105 13.9997 2.33105Z" fill="#FAFAFA"/>
</svg>
