<svg width="24" height="24" viewBox="0 0 24 24" fill="none" xmlns="http://www.w3.org/2000/svg">
<path fill-rule="evenodd" clip-rule="evenodd" d="M21.043 7.27314C21.2692 7.20822 21.5131 7.25364 21.7012 7.39521C21.8891 7.53684 21.9999 7.75854 22 7.99384V18.4802C22 18.7972 21.8006 19.0807 21.502 19.1872L13.7217 21.9567C13.4922 22.0383 13.2371 22.0034 13.0381 21.863C12.839 21.7224 12.7207 21.4934 12.7207 21.2497V10.2272C12.7209 9.89289 12.9423 9.5988 13.2637 9.50654L21.043 7.27314ZM14.2207 10.7917V20.1862L20.5 17.9509V8.98896L14.2207 10.7917Z" fill="#FAFAFA"/>
<path fill-rule="evenodd" clip-rule="evenodd" d="M2.29883 7.32099C2.48688 7.17942 2.73077 7.13401 2.95703 7.19892L10.7363 9.43232C11.0577 9.52458 11.2791 9.81867 11.2793 10.153V21.1755C11.2793 21.4192 11.161 21.6482 10.9619 21.7888C10.7629 21.9291 10.5078 21.9641 10.2783 21.8825L2.49805 19.113C2.19944 19.0065 2 18.723 2 18.406V7.91962C2.00013 7.68432 2.11091 7.46262 2.29883 7.32099ZM3.5 17.8767L9.7793 20.112V10.7175L3.5 8.91474V17.8767Z" fill="#FAFAFA"/>
<path fill-rule="evenodd" clip-rule="evenodd" d="M12.1836 2.02802L20.7471 4.35224C21.0713 4.4403 21.2977 4.73409 21.3008 5.07001C21.3035 5.40612 21.0816 5.7031 20.7588 5.79658L12.2031 8.26826C12.0673 8.30747 11.9229 8.30742 11.7871 8.26826L3.21777 5.79755C2.89481 5.70434 2.67332 5.40712 2.67578 5.07099C2.67858 4.73482 2.90502 4.44035 3.22949 4.35224L11.791 2.02802L11.8887 2.00849C11.987 1.99544 12.0873 2.00191 12.1836 2.02802ZM6.20703 5.09736L11.9941 6.7663L17.7695 5.09833L11.9873 3.52802L6.20703 5.09736Z" fill="#FAFAFA"/>
<path d="M14.2207 10.7917V20.1862L20.5 17.9509V8.98896L14.2207 10.7917Z" fill="#FAFAFA"/>
<path d="M3.5 17.8767L9.7793 20.112V10.7175L3.5 8.91474V17.8767Z" fill="#FAFAFA"/>
<path d="M6.20703 5.09736L11.9941 6.7663L17.7695 5.09833L11.9873 3.52802L6.20703 5.09736Z" fill="#FAFAFA"/>
</svg>
