<svg width="24" height="24" viewBox="0 0 24 24" fill="none" xmlns="http://www.w3.org/2000/svg">
<path fill-rule="evenodd" clip-rule="evenodd" d="M10.0598 3.84378C11.4974 1.47499 14.9496 1.3679 16.5364 3.64286L17.4067 4.89038L18.6072 4.30751C18.9464 4.14289 19.3537 4.20004 19.6324 4.45138C19.9109 4.70272 20.0037 5.09653 19.8657 5.44256L18.1796 9.67033C18.0089 10.0986 17.5369 10.3314 17.0853 10.21L12.5648 8.99521C12.1979 8.89662 11.9312 8.58547 11.8948 8.21346C11.8583 7.84146 12.0597 7.48604 12.4007 7.32048L13.406 6.83248L12.5836 5.56409C12.3874 5.26151 11.951 5.22762 11.7089 5.49613L10.0639 7.32034C9.75044 7.66791 9.21933 7.72406 8.83782 7.44997C8.45632 7.17589 8.34973 6.66158 8.59179 6.26273L10.0598 3.84378ZM7.34829 8.67891C7.81115 8.61012 8.2523 8.89535 8.37112 9.34024L9.56067 13.7942C9.6572 14.1557 9.5163 14.5382 9.20663 14.7552C8.89696 14.9722 8.483 14.9786 8.16658 14.7712L7.23378 14.1598L6.52701 15.4937C6.35841 15.812 6.54674 16.2003 6.90449 16.2721L9.33486 16.7597C9.79792 16.8526 10.113 17.2765 10.0621 17.7382C10.0113 18.1998 9.61128 18.5476 9.13871 18.5411L6.27259 18.5014C3.46593 18.4625 1.64544 15.5786 2.8572 13.0908L3.52168 11.7267L2.40764 10.9964C2.09297 10.7902 1.93973 10.4151 2.02194 10.0523C2.10415 9.68952 2.40488 9.41374 2.77889 9.35815L7.34829 8.67891ZM12.3116 18.113C12.0195 17.7536 12.0503 17.2356 12.3831 16.9121L15.7141 13.6728C15.9844 13.4099 16.392 13.3386 16.7382 13.4936C17.0843 13.6486 17.2968 13.9976 17.2722 14.3706L17.1998 15.4701L18.729 15.4045C19.0937 15.3888 19.3418 15.0344 19.2262 14.6941L18.4408 12.3823C18.2912 11.9418 18.5073 11.4618 18.9396 11.2742C19.3718 11.0866 19.8785 11.2531 20.109 11.6585L21.5071 14.1171C22.8762 16.5248 21.2444 19.5159 18.4459 19.7285L16.9112 19.8453L16.8246 21.1583C16.8002 21.5292 16.5461 21.8471 16.1853 21.9586C15.8244 22.07 15.431 21.9519 15.195 21.6615L12.3116 18.113Z" fill="#FAFAFA"/>
</svg>
