<svg width="24" height="24" viewBox="0 0 24 24" fill="none" xmlns="http://www.w3.org/2000/svg">
<path fill-rule="evenodd" clip-rule="evenodd" d="M20 3.99902C21.1046 3.99902 22 4.89543 22 6V18C21.9999 19.1045 21.1045 20 20 20H4L3.7959 19.9893C2.7873 19.887 2.00012 19.0355 2 18V6C2 4.89559 2.89565 3.99929 4 3.99902H20ZM7.30762 17.3887C8.10386 17.7794 8.99877 17.9998 9.94531 18C11.0423 17.9999 12.0693 17.7029 12.9541 17.1885L10.0352 13.2979L7.30762 17.3887ZM18.8955 12.9922C18.4814 12.9924 18.1455 13.3281 18.1455 13.7422V16.3477L18.1504 16.4238C18.189 16.8017 18.5075 17.0975 18.8955 17.0977C19.2837 17.0977 19.603 16.8018 19.6416 16.4238L19.6455 16.3477V13.7422C19.6455 13.328 19.3097 12.9922 18.8955 12.9922ZM3.99414 12.75C4.18447 14.2724 4.94419 15.6168 6.05469 16.5645L8.59863 12.75H3.99414ZM14.1465 16.2793C15.0872 15.3556 15.7245 14.1257 15.8965 12.75H11.499L14.1465 16.2793ZM5.80664 7.6582C4.83103 8.58843 4.16983 9.8434 3.99414 11.25H8.5L5.80664 7.6582ZM11.4014 11.25H15.8965C15.7102 9.7587 14.9778 8.43818 13.9043 7.49414L11.4014 11.25ZM9.94531 6C8.87962 6.00019 7.87923 6.27914 7.01172 6.7666L9.96289 10.7021L12.6631 6.65137C11.847 6.23574 10.9238 6.00011 9.94531 6Z" fill="#FAFAFA"/>
</svg>
