<svg width="24" height="24" viewBox="0 0 24 24" fill="none" xmlns="http://www.w3.org/2000/svg">
<path d="M14.001 8.50391C14.1069 8.50396 14.2083 8.5463 14.2832 8.62109C14.3582 8.69611 14.4004 8.79821 14.4004 8.9043V12.1045C14.4003 12.5286 14.2324 12.9354 13.9326 13.2354C13.6326 13.5354 13.2251 13.7041 12.8008 13.7041H12.6006C12.5476 13.7042 12.4964 13.7252 12.459 13.7627C12.4216 13.8002 12.4004 13.8513 12.4004 13.9043V18.5039C12.4004 18.7161 12.316 18.9193 12.166 19.0693C12.016 19.2194 11.8128 19.3037 11.6006 19.3037C11.3885 19.3037 11.1851 19.2193 11.0352 19.0693C10.8852 18.9193 10.8008 18.716 10.8008 18.5039V13.9043C10.8008 13.8513 10.7797 13.8002 10.7422 13.7627C10.7047 13.7252 10.6536 13.7041 10.6006 13.7041H10.4004C9.97619 13.704 9.5695 13.5353 9.26953 13.2354C8.96957 12.9354 8.80089 12.5287 8.80078 12.1045V8.9043C8.80078 8.79821 8.84295 8.69611 8.91797 8.62109C8.99297 8.54614 9.09513 8.50391 9.20117 8.50391H14.001Z" fill="#FAFAFA"/>
<path d="M8.20117 6.50391C8.25394 6.50401 8.30441 6.52526 8.3418 6.5625C8.3793 6.60001 8.40039 6.65106 8.40039 6.7041V7.04004C8.40092 7.07206 8.39336 7.10377 8.37793 7.13184C8.3625 7.15986 8.3398 7.18351 8.3125 7.2002C8.09733 7.34376 7.91986 7.53762 7.7959 7.76465C7.67203 7.99163 7.605 8.24536 7.60059 8.50391V12.1045C7.60273 12.7475 7.8273 13.3702 8.23535 13.8672C8.64347 14.3641 9.2105 14.7049 9.84082 14.832C9.88588 14.8427 9.9261 14.8682 9.95508 14.9043C9.98407 14.9405 10.0004 14.9858 10.001 15.0322V15.9043C10.0009 15.9573 9.97984 16.0084 9.94238 16.0459C9.90489 16.0833 9.85378 16.1045 9.80078 16.1045H4.00098C3.68281 16.1045 3.37737 15.9778 3.15234 15.7529C2.92735 15.5279 2.80084 15.2225 2.80078 14.9043V7.7041C2.80078 7.38584 2.9273 7.08051 3.15234 6.85547C3.37738 6.63048 3.68276 6.50391 4.00098 6.50391H8.20117Z" fill="#FAFAFA"/>
<path d="M18.4014 6.50391C18.7196 6.50396 19.025 6.63047 19.25 6.85547C19.475 7.0805 19.6016 7.38589 19.6016 7.7041V8.7041C19.6016 8.75714 19.6227 8.8082 19.6602 8.8457C19.6975 8.88293 19.748 8.90419 19.8008 8.9043H20.001C20.3192 8.9043 20.6246 9.03082 20.8496 9.25586C21.0746 9.48089 21.2012 9.78628 21.2012 10.1045V12.5039C21.2012 12.8222 21.0747 13.1275 20.8496 13.3525C20.6246 13.5776 20.3192 13.7041 20.001 13.7041H19.8008C19.748 13.7042 19.6976 13.7254 19.6602 13.7627C19.6227 13.8002 19.6016 13.8513 19.6016 13.9043V14.9043C19.6015 15.2225 19.475 15.5279 19.25 15.7529C19.025 15.9779 18.7196 16.1044 18.4014 16.1045H13.4014C13.3484 16.1045 13.2973 16.0833 13.2598 16.0459C13.2223 16.0084 13.2012 15.9573 13.2012 15.9043V15.0322C13.2017 14.9858 13.2181 14.9405 13.2471 14.9043C13.276 14.8682 13.3163 14.8427 13.3613 14.832C13.9916 14.7049 14.5587 14.3641 14.9668 13.8672C15.3748 13.3702 15.5994 12.7475 15.6016 12.1045V8.50391C15.601 8.24116 15.5353 7.98254 15.4111 7.75098C15.287 7.51947 15.1081 7.3216 14.8896 7.17578C14.8623 7.15908 14.8397 7.13548 14.8242 7.10742C14.8088 7.0794 14.8003 7.04759 14.8008 7.01562V6.7041C14.8008 6.65111 14.8219 6.6 14.8594 6.5625C14.8968 6.52504 14.948 6.50396 15.001 6.50391H18.4014Z" fill="#FAFAFA"/>
<path d="M10 4.7041C10.1591 4.7041 10.3123 4.76736 10.4248 4.87988C10.5372 4.9923 10.6005 5.14477 10.6006 5.30371V7.10449C10.6005 7.15726 10.5792 7.20773 10.542 7.24512C10.5045 7.28262 10.4534 7.30371 10.4004 7.30371H9.60059C9.54754 7.30371 9.49649 7.28262 9.45898 7.24512C9.42169 7.20772 9.40049 7.1573 9.40039 7.10449V5.30371C9.40049 5.14472 9.46374 4.99231 9.57617 4.87988C9.6886 4.76745 9.84101 4.7042 10 4.7041Z" fill="#FAFAFA"/>
<path d="M13.2002 4.7041C13.3593 4.7041 13.5125 4.76736 13.625 4.87988C13.7374 4.9923 13.8007 5.14477 13.8008 5.30371V7.10449C13.8007 7.15726 13.7794 7.20773 13.7422 7.24512C13.7047 7.28262 13.6536 7.30371 13.6006 7.30371H12.8008C12.7477 7.30371 12.6967 7.28262 12.6592 7.24512C12.6219 7.20772 12.6007 7.1573 12.6006 7.10449V5.30371C12.6007 5.14472 12.6639 4.99231 12.7764 4.87988C12.8888 4.76745 13.0412 4.7042 13.2002 4.7041Z" fill="#FAFAFA"/>
</svg>
