<svg width="24" height="24" viewBox="0 0 24 24" fill="none" xmlns="http://www.w3.org/2000/svg">
<path fill-rule="evenodd" clip-rule="evenodd" d="M8.20117 8.60059C8.3603 8.60059 8.51345 8.66385 8.62598 8.77637C8.73832 8.88886 8.80175 9.04121 8.80176 9.2002C8.80176 9.35918 8.73831 9.51153 8.62598 9.62402C8.51345 9.73655 8.3603 9.7998 8.20117 9.7998H8.00195V11.6006H9.01758L7.72949 14.168C7.62183 14.407 7.57453 14.6691 7.5918 14.9307C7.60912 15.1924 7.69081 15.4461 7.8291 15.6689C7.96736 15.8917 8.15804 16.0773 8.38477 16.209C8.61157 16.3407 8.86779 16.4142 9.12988 16.4238H9.20117L8.86523 18.4404C8.81485 18.7754 8.8727 19.1176 9.0293 19.418C9.18598 19.7184 9.43369 19.9619 9.7373 20.1123C9.94572 20.2073 10.1723 20.2559 10.4014 20.2559C10.6232 20.2542 10.8425 20.207 11.0449 20.1162C11.2472 20.0254 11.4285 19.8931 11.5771 19.7285L16.0498 14.6162C16.2161 14.428 16.3338 14.202 16.3936 13.958C16.4533 13.7139 16.4531 13.4587 16.3926 13.2148C16.332 12.9709 16.213 12.7445 16.0459 12.5566C15.8789 12.369 15.6687 12.2243 15.4336 12.1357L15.6016 11.792V9.7998H15.4014C15.2423 9.79975 15.09 9.7365 14.9775 9.62402C14.8651 9.51151 14.8018 9.35927 14.8018 9.2002C14.8018 9.04111 14.8651 8.88888 14.9775 8.77637C15.09 8.66389 15.2423 8.60064 15.4014 8.60059H20.4014C20.5605 8.60059 20.7136 8.66385 20.8262 8.77637C20.9385 8.88885 21.0019 9.04125 21.002 9.2002C21.002 9.35914 20.9384 9.51154 20.8262 9.62402C20.7136 9.73655 20.5605 9.7998 20.4014 9.7998H20.2012V11.6006C20.5194 11.6006 20.8248 11.7271 21.0498 11.9521C21.2747 12.1771 21.4013 12.4817 21.4014 12.7998V20.4004C21.4013 20.7186 21.2748 21.024 21.0498 21.249C20.8248 21.4739 20.5193 21.6006 20.2012 21.6006H3.80176C3.48358 21.6006 3.17815 21.474 2.95312 21.249C2.72812 21.024 2.60161 20.7186 2.60156 20.4004V12.7998C2.60167 12.4818 2.72829 12.1771 2.95312 11.9521C3.17817 11.7271 3.4835 11.6006 3.80176 11.6006V9.7998H3.60156C3.44243 9.7998 3.29026 9.73655 3.17773 9.62402C3.06522 9.5115 3.00195 9.35932 3.00195 9.2002C3.00196 9.04107 3.06522 8.88888 3.17773 8.77637C3.29026 8.66385 3.44244 8.60059 3.60156 8.60059H8.20117ZM5.00195 11.6006H6.80176V9.7998H5.00195V11.6006ZM16.8018 11.6006H19.002V9.7998H16.8018V11.6006Z" fill="#FAFAFA"/>
<path d="M14.2412 10.6807C14.3023 10.6811 14.3628 10.6966 14.416 10.7266C14.4691 10.7565 14.5139 10.7996 14.5459 10.8516C14.5778 10.9034 14.5958 10.9626 14.5986 11.0234C14.6014 11.0844 14.5887 11.1455 14.5615 11.2002L13.5371 13.2324H14.873C14.942 13.2311 15.0101 13.2502 15.0684 13.2871C15.1267 13.3241 15.1729 13.3774 15.2012 13.4404C15.2248 13.4986 15.2325 13.562 15.2227 13.624C15.2128 13.686 15.186 13.7441 15.1455 13.792L10.6738 18.9043C10.6398 18.9424 10.5975 18.9725 10.5508 18.9932C10.5273 19.0035 10.5025 19.0115 10.4775 19.0166L10.3252 19.0322C10.2998 19.0322 10.2739 19.0301 10.249 19.0244C10.1795 18.9897 10.1228 18.9332 10.0869 18.8643C10.0512 18.7955 10.0384 18.7173 10.0498 18.6406L10.6016 15.2246H9.11328C9.05164 15.2244 8.99082 15.2089 8.93652 15.1797C8.88226 15.1505 8.83592 15.1079 8.80176 15.0566C8.77432 15.002 8.75977 14.941 8.75977 14.8799C8.75981 14.8189 8.77436 14.7586 8.80176 14.7041L10.7217 10.8799C10.7519 10.821 10.7975 10.7715 10.8535 10.7363C10.9097 10.7012 10.9748 10.6821 11.041 10.6807H14.2412Z" fill="#FAFAFA"/>
<path d="M8.20215 6.28809C8.36113 6.28814 8.51352 6.35149 8.62598 6.46387C8.7385 6.57639 8.80176 6.72954 8.80176 6.88867C8.80164 7.04763 8.73839 7.20009 8.62598 7.3125C8.51351 7.42489 8.36114 7.48823 8.20215 7.48828H3.60156C3.44259 7.48818 3.29016 7.42491 3.17773 7.3125C3.06532 7.20009 3.00208 7.04763 3.00195 6.88867C3.00195 6.72954 3.06521 6.57639 3.17773 6.46387C3.29016 6.35148 3.4426 6.28819 3.60156 6.28809H8.20215Z" fill="#FAFAFA"/>
<path d="M20.4014 6.28809C20.5605 6.28809 20.7136 6.35135 20.8262 6.46387C20.9387 6.57639 21.002 6.72956 21.002 6.88867C21.0018 7.04761 20.9385 7.20009 20.8262 7.3125C20.7136 7.42502 20.5605 7.48828 20.4014 7.48828H15.4014C15.2424 7.48818 15.09 7.42491 14.9775 7.3125C14.8651 7.20009 14.8019 7.04763 14.8018 6.88867C14.8018 6.72954 14.865 6.57639 14.9775 6.46387C15.09 6.35148 15.2424 6.28819 15.4014 6.28809H20.4014Z" fill="#FAFAFA"/>
<path d="M5.80176 2.78418C5.96089 2.78418 6.11404 2.84744 6.22656 2.95996C6.33887 3.07237 6.40224 3.22489 6.40234 3.38379V4H8.20215C8.36112 4.00005 8.51352 4.06342 8.62598 4.17578C8.7385 4.2883 8.80176 4.44146 8.80176 4.60059C8.80165 4.75957 8.7384 4.91199 8.62598 5.02441C8.51351 5.13682 8.36116 5.20014 8.20215 5.2002H3.60156C3.44258 5.20009 3.29016 5.13684 3.17773 5.02441C3.06531 4.91199 3.00206 4.75957 3.00195 4.60059C3.00195 4.44146 3.06521 4.2883 3.17773 4.17578C3.29016 4.06341 3.44262 4.0001 3.60156 4H5.20215V3.38379C5.20225 3.2248 5.2655 3.07239 5.37793 2.95996C5.4904 2.84755 5.64274 2.78423 5.80176 2.78418Z" fill="#FAFAFA"/>
<path d="M17.9053 2.78418C18.0644 2.78418 18.2176 2.84744 18.3301 2.95996C18.4425 3.07239 18.5058 3.22482 18.5059 3.38379V4H20.4014C20.5605 4 20.7136 4.06326 20.8262 4.17578C20.9387 4.2883 21.002 4.44146 21.002 4.60059C21.0018 4.75953 20.9385 4.912 20.8262 5.02441C20.7136 5.13694 20.5605 5.2002 20.4014 5.2002H15.4014C15.2424 5.20009 15.09 5.13684 14.9775 5.02441C14.8651 4.91199 14.8019 4.75957 14.8018 4.60059C14.8018 4.44146 14.865 4.2883 14.9775 4.17578C15.09 4.06341 15.2424 4.0001 15.4014 4H17.3057V3.38379C17.3058 3.22482 17.369 3.07239 17.4814 2.95996C17.5939 2.84755 17.7463 2.78431 17.9053 2.78418Z" fill="#FAFAFA"/>
</svg>
