<svg width="24" height="24" viewBox="0 0 24 24" fill="none" xmlns="http://www.w3.org/2000/svg">
<path fill-rule="evenodd" clip-rule="evenodd" d="M21.3157 11.7094C21.6672 11.7094 21.969 11.9287 22.1101 12.244C22.1155 12.2679 22.1193 12.2923 22.1228 12.3162C22.1708 12.435 22.1972 12.5667 22.1973 12.704V19.3277C22.1973 19.3311 22.1964 19.3435 22.1961 19.3469V19.3891C22.196 19.9037 21.8019 20.3223 21.3157 20.3223H3.07884C2.59265 20.3223 2.19851 19.9037 2.19841 19.3891V19.3469C2.19812 19.3435 2.19727 19.3311 2.19727 19.3277V12.704C2.19729 12.5667 2.22371 12.435 2.27178 12.3162C2.27525 12.2923 2.27905 12.2679 2.28439 12.244C2.42553 11.9287 2.7273 11.7094 3.07884 11.7094H21.3157ZM8.27774 14.8021C8.27774 14.4597 8.01445 14.182 7.68976 14.182H4.55345C4.22885 14.1822 3.96546 14.4597 3.96546 14.8021V16.4361C3.96546 16.7784 4.22885 17.056 4.55345 17.0562H5.022C5.1895 17.5257 5.61844 17.8605 6.12218 17.8605C6.62567 17.8602 7.05377 17.5255 7.22121 17.0562H7.68976C8.01445 17.0561 8.27774 16.7785 8.27774 16.4361V14.8021ZM14.354 14.8021C14.354 14.4597 14.0907 14.182 13.766 14.182H10.6297C10.3051 14.1822 10.0417 14.4597 10.0417 14.8021V16.4361C10.0417 16.7784 10.3051 17.056 10.6297 17.0562H11.0982C11.2657 17.5257 11.6947 17.8605 12.1984 17.8605C12.7019 17.8602 13.13 17.5255 13.2974 17.0562H13.766C14.0907 17.0561 14.354 16.7785 14.354 16.4361V14.8021ZM20.4302 14.8021C20.4302 14.4597 20.1669 14.182 19.8422 14.182H16.7059C16.3813 14.1822 16.1179 14.4597 16.1179 14.8021V16.4361C16.1179 16.7784 16.3813 17.056 16.7059 17.0562H17.1745C17.342 17.5257 17.7709 17.8605 18.2747 17.8605C18.7781 17.8602 19.2062 17.5255 19.3737 17.0562H19.8422C20.1669 17.0561 20.4302 16.7785 20.4302 16.4361V14.8021Z" fill="#FAFAFA"/>
<path d="M21.1614 10.2225L20.9844 9.84544L18.9748 5.67205L18.9644 5.64918L18.9553 5.6275C18.7872 5.22804 18.523 4.89739 18.2009 4.66904C17.9194 4.46951 17.6016 4.35397 17.2769 4.32829L17.1371 4.32227H7.25745L7.11759 4.32829C6.7929 4.35397 6.47518 4.46951 6.1936 4.66904C5.87149 4.89739 5.60737 5.22804 5.43927 5.6275L5.4301 5.64918L5.41978 5.67205L3.41406 9.84544L3.23707 10.2225H21.1614Z" fill="#FAFAFA"/>
</svg>
