<svg width="24" height="24" viewBox="0 0 24 24" fill="none" xmlns="http://www.w3.org/2000/svg">
<path d="M13.8096 14.8872C13.862 14.8872 13.9138 14.8976 13.9619 14.9185C14.01 14.9393 14.053 14.9701 14.0889 15.0083L15.7051 16.6157C15.7788 16.6918 15.8203 16.7939 15.8203 16.8999C15.8203 17.0059 15.7789 17.108 15.7051 17.1841L13.7529 19.1362C13.5982 19.2888 13.4053 19.3966 13.1943 19.4487C12.9833 19.5008 12.7617 19.4953 12.5537 19.4321C12.5186 19.4232 12.4812 19.4234 12.4463 19.4331C12.4113 19.4429 12.379 19.4619 12.3535 19.4878L10.5449 21.2964C10.3951 21.4451 10.1926 21.5288 9.98145 21.5288C9.7701 21.5288 9.56688 21.4454 9.41699 21.2964C9.34201 21.222 9.2828 21.1331 9.24219 21.0356C9.20159 20.9382 9.18066 20.8336 9.18066 20.728C9.18067 20.6224 9.20158 20.5179 9.24219 20.4204C9.2828 20.3229 9.34201 20.234 9.41699 20.1597L11.2256 18.3521C11.2509 18.3262 11.2689 18.2935 11.2773 18.2583C11.2857 18.2232 11.2843 18.1863 11.2734 18.1519C11.2118 17.945 11.2068 17.7256 11.2588 17.5161C11.3108 17.3065 11.418 17.1145 11.5693 16.9604L13.5293 15.0083C13.5652 14.97 13.6091 14.9393 13.6572 14.9185C13.7053 14.8977 13.7572 14.8872 13.8096 14.8872Z" fill="#FAFAFA"/>
<path d="M9.24121 13.0376C9.34566 13.0377 9.44584 13.0788 9.52051 13.1519L11.1211 14.7524C11.1946 14.8284 11.2362 14.9299 11.2363 15.0356C11.2363 15.1416 11.1948 15.2437 11.1211 15.3198L10.5293 15.9116C10.3753 16.0658 10.182 16.1755 9.9707 16.229C9.75952 16.2825 9.53787 16.2785 9.3291 16.2163C9.29464 16.2045 9.25709 16.2029 9.22168 16.2114C9.1864 16.22 9.15418 16.2381 9.12891 16.2642L4.08887 21.3042C3.93594 21.4351 3.73924 21.5033 3.53809 21.4956C3.33678 21.4878 3.1454 21.4046 3.00293 21.2622C2.86045 21.1197 2.77731 20.9284 2.76953 20.7271C2.76182 20.5258 2.82999 20.3292 2.96094 20.1763L8.0166 15.1362C8.04293 15.1127 8.06175 15.0816 8.07031 15.0474C8.07886 15.0131 8.07662 14.977 8.06445 14.9438C8.00226 14.7351 7.99827 14.5134 8.05176 14.3022C8.10528 14.091 8.21494 13.8976 8.36914 13.7437L8.96094 13.1519C9.0357 13.0786 9.13656 13.0376 9.24121 13.0376Z" fill="#FAFAFA"/>
<path d="M20.7168 9.19189C20.9281 9.19189 21.1314 9.27532 21.2812 9.42432C21.3561 9.49857 21.4155 9.5868 21.4561 9.68408C21.4966 9.78146 21.5175 9.88621 21.5176 9.9917C21.5176 10.0972 21.4966 10.2019 21.4561 10.2993C21.4154 10.3968 21.3562 10.4857 21.2812 10.5601L19.7373 12.0796C19.7126 12.1042 19.695 12.1356 19.6865 12.1694C19.6781 12.2032 19.6793 12.2387 19.6895 12.272C19.7519 12.4802 19.7571 12.7015 19.7051 12.9126C19.653 13.1236 19.5456 13.3169 19.3936 13.4722L17.4336 15.4243C17.3977 15.4626 17.3538 15.4923 17.3057 15.5132C17.2575 15.534 17.2058 15.5454 17.1533 15.5454C17.1009 15.5454 17.0491 15.534 17.001 15.5132C16.9528 15.4923 16.909 15.4626 16.873 15.4243L15.2734 13.8237C15.1998 13.7477 15.1583 13.6463 15.1582 13.5405C15.1582 13.4345 15.1997 13.3325 15.2734 13.2563L17.2334 11.3042C17.3857 11.1499 17.5771 11.0404 17.7871 10.9868C17.997 10.9333 18.2173 10.9381 18.4248 11.0005C18.4592 11.0123 18.4968 11.0138 18.5322 11.0054C18.5676 10.9969 18.5996 10.9778 18.625 10.9517L20.1533 9.42432C20.3031 9.27543 20.5056 9.19202 20.7168 9.19189Z" fill="#FAFAFA"/>
<path d="M7.36914 8.46436C7.47589 8.46333 7.57919 8.50285 7.65723 8.57568L9.25684 10.1763C9.29504 10.2121 9.32583 10.2552 9.34668 10.3032C9.36747 10.3512 9.37787 10.4032 9.37793 10.4556C9.37793 10.508 9.36753 10.5607 9.34668 10.6089C9.32584 10.6569 9.29502 10.7 9.25684 10.7358L7.30566 12.688C7.15369 12.8452 6.96003 12.9566 6.74805 13.0103C6.5362 13.0639 6.31384 13.0575 6.10547 12.9917C6.07221 12.9815 6.03667 12.9814 6.00293 12.9897C5.96918 12.9982 5.93769 13.015 5.91309 13.0396L3.84082 15.1118C3.69097 15.2607 3.4886 15.3442 3.27734 15.3442C3.066 15.3442 2.86278 15.2608 2.71289 15.1118C2.63811 15.0376 2.57865 14.9493 2.53809 14.8521C2.49753 14.7547 2.47662 14.6499 2.47656 14.5444C2.47656 14.439 2.49758 14.3342 2.53809 14.2368C2.57867 14.1394 2.638 14.0504 2.71289 13.9761L4.74512 11.9116C4.771 11.8862 4.78997 11.8547 4.7998 11.8198C4.80961 11.7848 4.80972 11.7476 4.80078 11.7124C4.73968 11.5016 4.73807 11.2776 4.7959 11.0659C4.85374 10.8543 4.96918 10.6626 5.12891 10.5122L7.08887 8.57568C7.164 8.50326 7.26479 8.46374 7.36914 8.46436Z" fill="#FAFAFA"/>
<path d="M12.3848 9.93408C12.4895 9.93408 12.5903 9.97505 12.665 10.0483L14.2656 11.6479C14.337 11.7237 14.376 11.8242 14.376 11.9282C14.3759 12.0323 14.337 12.1328 14.2656 12.2085L12.5693 13.9038C12.5322 13.9412 12.4881 13.9714 12.4395 13.9917C12.3907 14.012 12.338 14.022 12.2852 14.022C12.2325 14.022 12.1804 14.0119 12.1318 13.9917C12.0831 13.9714 12.0382 13.9413 12.001 13.9038L10.3535 12.2798C10.2812 12.2047 10.2407 12.1047 10.2412 12.0005C10.2442 11.8992 10.2843 11.802 10.3535 11.728L12.1055 10.0483C12.1801 9.97515 12.2802 9.9342 12.3848 9.93408Z" fill="#FAFAFA"/>
<path d="M20.7383 2.69678C20.8483 2.69253 20.958 2.71136 21.0605 2.75146C21.1632 2.79168 21.257 2.85319 21.335 2.93115C21.4128 3.00903 21.4735 3.1021 21.5137 3.20459C21.5538 3.30712 21.5726 3.41682 21.5684 3.52686C21.5641 3.63703 21.5373 3.74596 21.4893 3.84521C21.4412 3.94433 21.3727 4.03237 21.2891 4.104L16.5293 8.86377C16.5059 8.89085 16.4898 8.9237 16.4814 8.9585C16.4732 8.9932 16.4729 9.02932 16.4814 9.06396C16.5449 9.27067 16.5511 9.49082 16.499 9.70068C16.4469 9.91067 16.3384 10.1032 16.1855 10.2563L15.6494 10.8003C15.5733 10.874 15.4712 10.9155 15.3652 10.9155C15.2593 10.9155 15.1571 10.874 15.0811 10.8003L13.4658 9.18408C13.3934 9.10894 13.3529 9.00818 13.3535 8.90381C13.3541 8.79737 13.3943 8.69457 13.4658 8.61572L14.0098 8.07959C14.1628 7.92692 14.3547 7.81921 14.5645 7.76709C14.7743 7.71498 14.9945 7.72032 15.2012 7.78369C15.2364 7.79356 15.2743 7.79357 15.3096 7.78369C15.3447 7.7738 15.3764 7.75467 15.4014 7.72803L20.1611 2.97607C20.2329 2.89233 20.3216 2.8239 20.4209 2.77588C20.5201 2.72794 20.6282 2.70103 20.7383 2.69678Z" fill="#FAFAFA"/>
<path d="M14.5566 2.46338C14.768 2.46338 14.9712 2.54682 15.1211 2.6958C15.1961 2.77017 15.2553 2.85906 15.2959 2.95654C15.3365 3.054 15.3574 3.15859 15.3574 3.26416C15.3574 3.36972 15.3365 3.47434 15.2959 3.57178C15.2553 3.66907 15.1959 3.75727 15.1211 3.83154L13.3047 5.64795C13.2821 5.67057 13.2662 5.69916 13.2578 5.72998C13.2495 5.76067 13.2489 5.79293 13.2568 5.82373C13.2949 5.9399 13.3135 6.06184 13.3125 6.18408C13.3122 6.50214 13.1859 6.80694 12.9609 7.03174L11.0088 8.98389C10.9731 9.02228 10.93 9.05307 10.8818 9.07373C10.8336 9.0944 10.781 9.10464 10.7285 9.104C10.675 9.10472 10.6217 9.09432 10.5723 9.07373C10.5229 9.05312 10.4785 9.02239 10.4414 8.98389L8.80078 7.37646C8.76329 7.33928 8.73417 7.29435 8.71387 7.24561C8.6936 7.19695 8.68265 7.14499 8.68262 7.09229C8.68262 7.03948 8.69356 6.98673 8.71387 6.93799C8.73415 6.88943 8.76344 6.84518 8.80078 6.80811L10.8086 4.85596C10.9617 4.70308 11.1543 4.59463 11.3643 4.54248C11.5741 4.49044 11.7943 4.49661 12.001 4.56006C12.032 4.56658 12.0641 4.56547 12.0947 4.55713C12.1252 4.5488 12.1534 4.53349 12.1768 4.51221L13.9932 2.6958C14.143 2.54701 14.3455 2.46346 14.5566 2.46338Z" fill="#FAFAFA"/>
</svg>
