<svg width="24" height="24" viewBox="0 0 24 24" fill="none" xmlns="http://www.w3.org/2000/svg">
<path fill-rule="evenodd" clip-rule="evenodd" d="M14.8125 2.8125C15.5087 2.8125 16.1767 3.08877 16.6689 3.58105C17.1612 4.07334 17.4375 4.74131 17.4375 5.4375V18.5625C17.4375 19.2587 17.1612 19.9267 16.6689 20.4189C16.1767 20.9112 15.5087 21.1875 14.8125 21.1875H9.1875C8.49131 21.1875 7.82334 20.9112 7.33105 20.4189C6.83877 19.9267 6.5625 19.2587 6.5625 18.5625V5.4375C6.5625 4.74131 6.83877 4.07334 7.33105 3.58105C7.82334 3.08877 8.49131 2.8125 9.1875 2.8125H14.8125ZM10.125 16.875C9.71079 16.875 9.375 17.2108 9.375 17.625V17.6348C9.37521 18.0488 9.71092 18.3848 10.125 18.3848C10.5391 18.3848 10.8748 18.0488 10.875 17.6348V17.625C10.875 17.2108 10.5392 16.875 10.125 16.875ZM13.875 16.875C13.4608 16.875 13.125 17.2108 13.125 17.625V17.6348C13.1252 18.0488 13.4609 18.3848 13.875 18.3848C14.2891 18.3848 14.6248 18.0488 14.625 17.6348V17.625C14.625 17.2108 14.2892 16.875 13.875 16.875ZM10.125 14.0625C9.71079 14.0625 9.375 14.3983 9.375 14.8125V14.8223C9.37521 15.2363 9.71092 15.5723 10.125 15.5723C10.5391 15.5723 10.8748 15.2363 10.875 14.8223V14.8125C10.875 14.3983 10.5392 14.0625 10.125 14.0625ZM13.875 14.0625C13.4608 14.0625 13.125 14.3983 13.125 14.8125V14.8223C13.1252 15.2363 13.4609 15.5723 13.875 15.5723C14.2891 15.5723 14.6248 15.2363 14.625 14.8223V14.8125C14.625 14.3983 14.2892 14.0625 13.875 14.0625ZM12 8.25C11.5027 8.25 11.0255 8.4472 10.6738 8.79883C10.3222 9.15046 10.125 9.62772 10.125 10.125C10.125 10.6223 10.3222 11.0995 10.6738 11.4512C11.0255 11.8028 11.5027 12 12 12C12.4973 12 12.9745 11.8028 13.3262 11.4512C13.6778 11.0995 13.875 10.6223 13.875 10.125C13.875 9.62772 13.6778 9.15046 13.3262 8.79883C12.9745 8.4472 12.4973 8.25 12 8.25ZM11.25 4.3125V5.4375C11.25 5.85171 11.5858 6.1875 12 6.1875C12.4142 6.1875 12.75 5.85171 12.75 5.4375V4.3125H11.25Z" fill="#FAFAFA"/>
</svg>
