<svg width="24" height="24" viewBox="0 0 24 24" fill="none" xmlns="http://www.w3.org/2000/svg">
<path fill-rule="evenodd" clip-rule="evenodd" d="M6.79492 3.58352C7.2595 3.61728 7.71356 3.74179 8.12988 3.95071L17.2295 8.5054L17.377 8.58841C17.7089 8.79799 17.9606 9.11703 18.0859 9.4927C18.2111 9.86854 18.2015 10.2752 18.0615 10.6421L17.9932 10.7964L17.7656 11.2505H20.0342L20.251 11.2642C20.466 11.2919 20.6748 11.3611 20.8652 11.4673C21.1192 11.6091 21.3334 11.8136 21.4863 12.0611C21.6391 12.3086 21.7262 12.5918 21.7393 12.8824C21.7522 13.1727 21.6914 13.4622 21.5615 13.7222L19.6113 17.6216C19.4796 17.8846 19.2821 18.1106 19.0381 18.2749C18.794 18.4392 18.5111 18.538 18.2178 18.5611C17.9244 18.584 17.629 18.531 17.3623 18.4068C17.0956 18.2824 16.8645 18.0905 16.6934 17.8511L15.3818 16.0171L15.0166 16.7486C14.9163 16.9491 14.7769 17.129 14.6074 17.2759C14.438 17.4226 14.2409 17.5352 14.0283 17.606C13.8157 17.6767 13.5907 17.7049 13.3672 17.689C13.1996 17.677 13.0343 17.6404 12.8779 17.5806L12.7236 17.5122L9.46387 15.8804L8.41797 17.9878L8.41602 17.9917C8.19242 18.4353 7.84865 18.8088 7.4248 19.0679C7.00248 19.3258 6.51628 19.4599 6.02148 19.4575L3.16797 19.4585V20.6255C3.16762 21.0393 2.83185 21.3754 2.41797 21.3755C2.00397 21.3755 1.66832 21.0394 1.66797 20.6255V16.7925C1.66797 16.3783 2.00376 16.0425 2.41797 16.0425C2.83207 16.0426 3.16797 16.3784 3.16797 16.7925V17.9585H6.02637L6.18848 17.9488C6.34868 17.9274 6.50362 17.8725 6.64258 17.7876C6.82788 17.6743 6.97837 17.5109 7.07617 17.3169L8.12207 15.2085L3.62305 12.9575C2.78523 12.5355 2.14863 11.7979 1.85254 10.9077C1.55673 10.0176 1.62487 9.04619 2.04297 8.20657L3.36523 5.5347L3.36621 5.53079C3.57511 5.11452 3.86456 4.74272 4.2168 4.43802C4.56913 4.13335 4.97882 3.90113 5.4209 3.75442C5.86306 3.60779 6.3303 3.54984 6.79492 3.58352ZM16.1406 14.4986L17.9141 16.979L17.9502 17.0181C17.9638 17.0294 17.9799 17.0388 17.9961 17.0464C18.0283 17.0614 18.0642 17.0686 18.0996 17.0659C18.1352 17.0632 18.1705 17.0507 18.2002 17.0308C18.2298 17.0108 18.2544 16.9826 18.2705 16.9507L20.2188 13.0523L20.2363 13.0025C20.24 12.9854 20.2419 12.9674 20.2412 12.9497C20.2396 12.9144 20.2285 12.8793 20.21 12.8491C20.1914 12.8193 20.1654 12.7941 20.1348 12.7769C20.1193 12.7683 20.102 12.7618 20.085 12.7574L20.0332 12.7505H17.0156L16.1406 14.4986ZM7.20898 8.37552C6.79488 8.37565 6.45898 8.71138 6.45898 9.12552C6.45923 9.53944 6.79504 9.87538 7.20898 9.87552H7.21875L7.29492 9.87161C7.67312 9.83337 7.96852 9.51374 7.96875 9.12552C7.96875 8.73708 7.67327 8.41768 7.29492 8.37942L7.21875 8.37552H7.20898Z" fill="#FAFAFA"/>
</svg>
