<svg width="24" height="24" viewBox="0 0 24 24" fill="none" xmlns="http://www.w3.org/2000/svg">
<path fill-rule="evenodd" clip-rule="evenodd" d="M12.3979 7.17037C13.3058 7.4584 14.1114 8.00311 14.7166 8.73859L14.7782 8.83126C14.8301 8.92842 14.8532 9.03962 14.8424 9.15087C14.8316 9.26221 14.7875 9.36718 14.7178 9.45253L14.6394 9.53068L12.3612 11.404C12.8819 11.6152 13.3658 11.9142 13.7896 12.2917C14.5007 12.9253 15.0131 13.7517 15.2653 14.6702C15.5174 15.5886 15.4988 16.5607 15.2109 17.4685C14.9228 18.3763 14.3781 19.1821 13.6427 19.7872C13.5275 19.8819 13.3788 19.9275 13.2304 19.913C13.0819 19.8986 12.9454 19.8251 12.8506 19.71L10.9768 17.4324C10.7656 17.9528 10.4668 18.4366 10.0895 18.8602C9.45592 19.5713 8.6295 20.0837 7.71107 20.3359C6.79263 20.588 5.82055 20.5694 4.91271 20.2815C4.00487 19.9935 3.19922 19.4487 2.59402 18.7133C2.49927 18.5981 2.45385 18.4494 2.46821 18.301C2.48264 18.1526 2.55614 18.016 2.67126 17.9212L4.94825 16.047C4.42804 15.8359 3.94449 15.5373 3.52109 15.1601C2.80995 14.5266 2.29756 13.7001 2.04536 12.7817C1.79325 11.8633 1.81188 10.8911 2.09976 9.98332C2.38776 9.0755 2.93259 8.26983 3.66798 7.66463L3.76065 7.60301C3.85783 7.55107 3.96897 7.52802 4.08026 7.53882C4.22877 7.55326 4.36527 7.62665 4.46007 7.74187L6.33385 10.0195C6.54497 9.49904 6.84384 9.01525 7.22113 8.5917C7.85471 7.88054 8.68112 7.36817 9.59958 7.11597C10.5181 6.86384 11.4901 6.88242 12.3979 7.17037ZM9.30953 12.81C8.80403 12.4488 8.10122 12.5657 7.73986 13.0711C7.37853 13.5766 7.49548 14.2794 8.00094 14.6408C8.50649 15.0022 9.20926 14.8853 9.57061 14.3797C9.93188 13.8742 9.81505 13.1714 9.30953 12.81Z" fill="#FAFAFA"/>
<path d="M16.8115 12.5935C16.4714 12.3664 16.3792 11.9065 16.6061 11.5663C16.8331 11.2262 17.293 11.1351 17.6333 11.3618L18.0596 11.6454C18.2728 11.7874 18.5598 11.7384 18.7135 11.5335L18.837 11.384C19.4407 10.7245 20.419 10.557 21.2077 10.9779L21.3736 11.0773L21.7999 11.3608L21.8607 11.4062C22.1507 11.6449 22.2182 12.0698 22.0054 12.389C21.7784 12.729 21.3184 12.8211 20.9782 12.5944L20.5519 12.3099C20.3653 12.1859 20.1223 12.2077 19.9616 12.3523L19.8979 12.4218C19.2725 13.2557 18.1052 13.4559 17.2378 12.878L16.8115 12.5935Z" fill="#FAFAFA"/>
<path d="M16.7508 8.91948C16.4609 8.68074 16.3933 8.25581 16.6061 7.93664C16.8188 7.61798 17.2361 7.51748 17.5677 7.69262L17.6333 7.7312L18.0596 8.01573C18.2728 8.15758 18.5599 8.10871 18.7135 7.90385L18.837 7.75435C19.4838 7.04778 20.5606 6.90604 21.3736 7.44764L21.7999 7.7312C22.1402 7.95806 22.232 8.41805 22.0054 8.7584C21.7785 9.09879 21.3186 9.19077 20.9782 8.96384L20.5519 8.68028C20.3653 8.55631 20.1223 8.57809 19.9616 8.72272L19.8979 8.79216C19.2724 9.62618 18.1043 9.82673 17.2369 9.24837L16.8115 8.96384L16.7508 8.91948Z" fill="#FAFAFA"/>
<path d="M16.8115 5.33421C16.4714 5.10721 16.3792 4.64729 16.6061 4.30701C16.833 3.96702 17.293 3.87501 17.6333 4.10157L18.0596 4.3861C18.2728 4.52795 18.5599 4.47908 18.7135 4.27422L18.837 4.12472C19.4838 3.41815 20.5606 3.27641 21.3736 3.81801L21.7999 4.10157C22.1402 4.32843 22.232 4.78842 22.0054 5.12877C21.7785 5.46916 21.3186 5.56114 20.9782 5.33421L20.5519 5.05065C20.3653 4.92668 20.1223 4.94846 19.9616 5.09309L19.8979 5.16253C19.2724 5.99656 18.1043 6.1971 17.2369 5.61874L16.8115 5.33421Z" fill="#FAFAFA"/>
</svg>
