<svg width="24" height="24" viewBox="0 0 24 24" fill="none" xmlns="http://www.w3.org/2000/svg">
<path d="M11.2199 16.6683C11.3363 16.5077 11.5739 16.5077 11.6903 16.6683C12.045 17.1575 12.4238 17.735 12.6729 18.2538C12.8801 18.6856 12.9579 18.9899 12.958 19.1601C12.958 19.9983 12.2849 20.6786 11.4551 20.6786C10.6254 20.6784 9.95312 19.9982 9.95312 19.1601C9.95327 18.9898 10.031 18.6857 10.2383 18.2538C10.4873 17.7351 10.8654 17.1576 11.2199 16.6683Z" fill="#FAFAFA"/>
<path d="M5.4502 12.2499C5.45027 13.6306 6.56953 14.7499 7.9502 14.7499C9.33086 14.7499 10.4501 13.6306 10.4502 12.2499V9.24992H12.4502V12.2499C12.4503 13.6306 13.5695 14.7499 14.9502 14.7499C16.3309 14.7499 17.4501 13.6306 17.4502 12.2499V9.24992H18.5C20.0188 9.24992 21.25 10.4812 21.25 11.9999V16.0995C21.2499 17.6183 20.0187 18.8495 18.5 18.8495H14.7393C14.6799 18.3622 14.4954 17.8766 14.2949 17.4589C14.0414 16.9307 13.7123 16.4034 13.3975 15.9462C13.0806 15.4861 12.7652 15.0777 12.5303 14.7861C12.4125 14.6398 12.314 14.5209 12.2441 14.4384C12.2094 14.3973 12.1816 14.3652 12.1621 14.3427C12.1524 14.3314 12.1441 14.3226 12.1387 14.3163C12.1364 14.3138 12.1328 14.3095 12.1328 14.3095L12.0615 14.2372C11.8965 14.0857 11.6804 13.9999 11.4551 13.9999C11.2299 14 11.0146 14.0858 10.8496 14.2372L10.7783 14.3095C10.7783 14.3095 10.7748 14.3136 10.7725 14.3163C10.767 14.3226 10.7588 14.3314 10.749 14.3427C10.7296 14.3652 10.7017 14.3973 10.667 14.4384C10.5971 14.521 10.4977 14.6397 10.3799 14.7861C10.145 15.0777 9.83049 15.4862 9.51367 15.9462C9.19887 16.4034 8.86972 16.9307 8.61621 17.4589C8.41573 17.8766 8.23126 18.3622 8.17188 18.8495H4.5C2.98126 18.8495 1.75007 17.6183 1.75 16.0995V11.9999C1.75002 10.4812 2.98123 9.24992 4.5 9.24992H5.4502V12.2499Z" fill="#FAFAFA"/>
<path d="M8.9502 12.2499C8.95012 12.8021 8.50243 13.2499 7.9502 13.2499C7.39796 13.2499 6.95027 12.8021 6.9502 12.2499V9.24992H8.9502V12.2499Z" fill="#FAFAFA"/>
<path d="M15.9502 12.2499C15.9501 12.8021 15.5024 13.2499 14.9502 13.2499C14.398 13.2499 13.9503 12.8021 13.9502 12.2499V9.24992H15.9502V12.2499Z" fill="#FAFAFA"/>
<path d="M6.2002 5.24992C6.6144 5.24992 6.95017 5.58573 6.9502 5.99992V9.24992H5.4502V5.99992C5.45022 5.58573 5.786 5.24992 6.2002 5.24992Z" fill="#FAFAFA"/>
<path d="M11.4502 5.24992C12.8309 5.24992 13.9502 6.36923 13.9502 7.74992V9.24992H12.4502V7.74992C12.4502 7.19766 12.0025 6.74992 11.4502 6.74992C10.8979 6.74992 10.4502 7.19766 10.4502 7.74992V9.24992H8.9502V7.74992C8.95022 6.36923 10.0695 5.24992 11.4502 5.24992Z" fill="#FAFAFA"/>
<path d="M18.9697 3.46965C19.2626 3.17678 19.7374 3.17678 20.0303 3.46965L22.0303 5.46965C22.3231 5.76254 22.3231 6.23733 22.0303 6.5302L20.0303 8.5302C19.7374 8.823 19.2626 8.823 18.9697 8.5302C18.6769 8.23733 18.6769 7.76254 18.9697 7.46965L19.6895 6.74992H18.7002C18.0099 6.74992 17.4502 7.30959 17.4502 7.99992V9.24992H15.9502V7.99992C15.9502 6.48116 17.1814 5.24992 18.7002 5.24992H19.6895L18.9697 4.5302C18.6769 4.23733 18.6769 3.76254 18.9697 3.46965Z" fill="#FAFAFA"/>
</svg>
