<svg width="24" height="24" viewBox="0 0 24 24" fill="none" xmlns="http://www.w3.org/2000/svg">
<path fill-rule="evenodd" clip-rule="evenodd" d="M5.04004 7.4502C5.45425 7.4502 5.79004 7.78598 5.79004 8.2002V8.53027C6.30733 8.46481 6.74177 8.29164 7.19531 7.83301L7.31055 7.73828C7.43339 7.65563 7.57922 7.61035 7.72949 7.61035C7.92976 7.61045 8.12189 7.69058 8.2627 7.83301C9.00692 8.58565 9.71374 8.57034 9.86426 8.57031C10.0141 8.57031 10.722 8.5863 11.4668 7.83301L11.5811 7.73828C11.7039 7.65552 11.8496 7.61036 12 7.61035C12.2003 7.61035 12.3923 7.69057 12.5332 7.83301C13.278 8.5863 13.9859 8.57031 14.1357 8.57031C14.2861 8.57033 14.993 8.58573 15.7373 7.83301L15.8516 7.73828C16.1347 7.54701 16.5214 7.5696 16.7812 7.81055C17.2792 8.27214 17.7313 8.4532 18.21 8.52441V8.2002C18.21 7.786 18.5458 7.45023 18.96 7.4502H20.96C21.3742 7.4502 21.71 7.78598 21.71 8.2002C21.7098 8.6143 21.3741 8.9502 20.96 8.9502H19.71V10.4404C19.7098 11.2405 19.2693 12.0618 18.5312 12.4502L18.5322 12.4512L12.3721 15.9717C12.1416 16.1032 11.8584 16.1032 11.6279 15.9717L5.46777 12.4512C5.45294 12.4427 5.43805 12.4333 5.42383 12.4238C4.7904 12.0014 4.29022 11.3104 4.29004 10.4404V8.9502H3.04004C2.62591 8.9502 2.29017 8.6143 2.29004 8.2002C2.29004 7.78598 2.62583 7.4502 3.04004 7.4502H5.04004ZM16.2871 9.33398C15.3137 10.0559 14.4124 10.0703 14.1357 10.0703C13.861 10.0703 12.9674 10.0568 12 9.34668C11.0326 10.0567 10.139 10.0703 9.86426 10.0703C9.58899 10.0703 8.69515 10.0566 7.72754 9.3457C7.07631 9.81701 6.41984 9.98169 5.79004 10.0391V10.4404C5.79022 10.6878 5.92796 10.9535 6.24805 11.1699L12 14.4561L17.7881 11.1494L17.8242 11.1289C18.0238 11.0291 18.2098 10.7468 18.21 10.4404V10.0342C17.6056 9.97208 16.9582 9.80171 16.2871 9.33398Z" fill="#FAFAFA"/>
<path d="M17.6396 2.26172C18.7061 2.37058 19.5623 3.19864 19.7207 4.25H21C21.4142 4.25 21.75 4.58579 21.75 5C21.75 5.41421 21.4142 5.75 21 5.75H19C18.5858 5.75 18.25 5.41421 18.25 5V4.59961C18.2498 4.16313 17.9122 3.79882 17.4863 3.75488L17.4004 3.75H6.59961C6.13413 3.75021 5.75021 4.13413 5.75 4.59961V5C5.75 5.41421 5.41421 5.75 5 5.75H3C2.58579 5.75 2.25 5.41421 2.25 5C2.25 4.58579 2.58579 4.25 3 4.25H4.2793C4.44937 3.12108 5.42462 2.25019 6.59961 2.25H17.4004L17.6396 2.26172Z" fill="#FAFAFA"/>
<path d="M16.2871 9.33398C15.3137 10.0559 14.4124 10.0703 14.1357 10.0703C13.861 10.0703 12.9674 10.0568 12 9.34668C11.0326 10.0567 10.139 10.0703 9.86426 10.0703C9.58899 10.0703 8.69515 10.0566 7.72754 9.3457C7.07631 9.81701 6.41984 9.98169 5.79004 10.0391V10.4404C5.79022 10.6878 5.92796 10.9535 6.24805 11.1699L12 14.4561L17.7881 11.1494L17.8242 11.1289C18.0238 11.0291 18.2098 10.7468 18.21 10.4404V10.0342C17.6056 9.97208 16.9582 9.80171 16.2871 9.33398Z" fill="#FAFAFA"/>
<path d="M11.9902 18.8086C11.8697 19.0188 11.7575 19.2307 11.6748 19.4209C11.6274 19.5301 11.5933 19.6226 11.5723 19.6963C11.5516 19.7686 11.5498 19.8008 11.5498 19.8008C11.5504 20.0263 11.7745 20.25 12 20.25C12.2254 20.2499 12.4496 20.0262 12.4502 19.8008C12.4494 19.8066 12.4345 19.7037 12.3262 19.458C12.2385 19.2594 12.1181 19.0338 11.9902 18.8086Z" fill="#FAFAFA"/>
<path fill-rule="evenodd" clip-rule="evenodd" d="M12.0078 16.6504C12.2527 16.6531 12.481 16.7753 12.6191 16.9775L12.6201 16.9785L12.6211 16.9805L12.624 16.9844C12.6267 16.9883 12.6311 16.994 12.6357 17.001C12.6453 17.0152 12.6586 17.0366 12.6758 17.0625C12.7104 17.1146 12.76 17.1894 12.8184 17.2803C12.935 17.4617 13.0915 17.7123 13.249 17.9854C13.4053 18.2562 13.5704 18.5628 13.6982 18.8525C13.8114 19.1092 13.9502 19.4682 13.9502 19.8008C13.9497 20.8546 13.0539 21.7499 12 21.75C10.9461 21.75 10.0503 20.8546 10.0498 19.8008C10.0498 19.4565 10.1814 19.0947 10.2998 18.8223C10.4291 18.5249 10.5953 18.2181 10.7529 17.9502C10.912 17.6797 11.0708 17.4343 11.1885 17.2578C11.2473 17.1695 11.297 17.0974 11.332 17.0469C11.3494 17.0218 11.3633 17.0012 11.373 16.9873C11.3777 16.9807 11.382 16.9755 11.3848 16.9717C11.386 16.97 11.3877 16.9668 11.3877 16.9668L11.3887 16.9648C11.5311 16.7654 11.7628 16.6478 12.0078 16.6504ZM11.6748 19.4209C11.7575 19.2307 11.8697 19.0188 11.9902 18.8086C12.1181 19.0338 12.2385 19.2594 12.3262 19.458C12.4345 19.7037 12.4494 19.8066 12.4502 19.8008C12.4496 20.0262 12.2254 20.2499 12 20.25C11.7745 20.25 11.5504 20.0263 11.5498 19.8008C11.5498 19.8008 11.5516 19.7686 11.5723 19.6963C11.5933 19.6226 11.6274 19.5301 11.6748 19.4209Z" fill="#FAFAFA"/>
</svg>
