<svg width="24" height="24" viewBox="0 0 24 24" fill="none" xmlns="http://www.w3.org/2000/svg">
<path d="M17.9189 12.0752L17.917 12.0811C17.7766 12.4579 17.5246 12.7842 17.1943 13.0147C16.865 13.2443 16.4731 13.3663 16.0713 13.3652H11.75V19H15.6309C15.94 18.1266 16.7707 17.5 17.75 17.5C18.9926 17.5 20 18.5074 20 19.75C20 20.9927 18.9926 22 17.75 22C16.7707 22 15.94 21.3734 15.6309 20.5H11.0195C11.013 20.5002 11.0065 20.501 11 20.501C10.9935 20.501 10.987 20.5002 10.9805 20.5H7.36914C7.06001 21.3734 6.22933 22 5.25 22C4.00736 22 3 20.9927 3 19.75C3.00001 18.5074 4.00736 17.5 5.25 17.5C6.22933 17.5 7.06001 18.1266 7.36914 19H10.25V13.3652L5.36133 13.3662C5.14294 13.3666 4.92767 13.3146 4.73438 13.2139C4.54026 13.1127 4.37403 12.9656 4.24902 12.7871C4.12405 12.6086 4.04332 12.4028 4.01367 12.1875C3.98409 11.9725 4.00569 11.753 4.07715 11.5479L4.08301 11.5342L4.5459 10.2861H18.5693L17.9189 12.0752Z" fill="#FAFAFA"/>
<path d="M19.6465 2.00001C19.8096 1.99936 19.9713 2.02817 20.123 2.08497L20.2734 2.15235L20.415 2.23732C20.505 2.29932 20.5868 2.37255 20.6592 2.45411L20.7607 2.58302L20.8457 2.72364C20.8964 2.82023 20.9356 2.92261 20.9619 3.02833L20.9912 3.18946L21.002 3.35255C21.0027 3.51435 20.9739 3.67533 20.918 3.82814L19.1152 8.78614H5.10156L7.13086 3.31153C7.26515 2.93528 7.50982 2.60694 7.83398 2.37208C8.16223 2.13441 8.55626 2.00395 8.96191 2.00001H19.6465Z" fill="#FAFAFA"/>
</svg>
