<svg width="24" height="24" viewBox="0 0 24 24" fill="none" xmlns="http://www.w3.org/2000/svg">
<path d="M10.9346 7.22461C11.931 7.23703 13.2287 7.26548 14.6895 7.27051C14.9374 7.27136 15.1848 7.29172 15.4268 7.33203C16.2135 7.46341 16.6779 8.28858 16.3818 9.0293L15.7158 10.6934C15.6192 10.9344 15.3593 11.0669 15.1074 11.0039C13.7228 10.6578 12.2944 10.5461 10.8818 10.6699L10.21 8.79395C10.07 8.40437 9.64069 8.20124 9.25098 8.34082C8.86126 8.48054 8.65848 8.91005 8.79785 9.2998L9.36914 10.8955C9.21017 10.9289 9.05148 10.9644 8.89355 11.0039C8.64175 11.0668 8.3817 10.9344 8.28516 10.6934L7.62012 9.0293C7.32409 8.2885 7.78822 7.46322 8.5752 7.33203L9 7.26074C9.25279 7.21861 9.89483 7.21165 10.9346 7.22461Z" fill="#FAFAFA"/>
<path fill-rule="evenodd" clip-rule="evenodd" d="M18 2.25C19.5188 2.25 20.75 3.48122 20.75 5V19C20.75 20.5188 19.5188 21.75 18 21.75H6C4.48122 21.75 3.25 20.5188 3.25 19V5C3.25 3.48122 4.48122 2.25 6 2.25H18ZM8 16.25C7.58597 16.2501 7.25023 16.586 7.25 17C7.25 17.4142 7.58583 17.7499 8 17.75H16C16.4142 17.75 16.75 17.4142 16.75 17C16.7498 16.586 16.4141 16.25 16 16.25H8ZM10.9531 5.72461C9.98173 5.7125 9.17236 5.71152 8.75391 5.78125L8.32812 5.85254C6.5968 6.14133 5.57591 7.95614 6.22754 9.58594L6.89258 11.25C7.26762 12.1876 8.27802 12.704 9.25781 12.459C11.0587 12.0088 12.9433 12.0088 14.7441 12.459C15.7239 12.7038 16.7334 12.1874 17.1084 11.25L17.7744 9.58594C18.4261 7.95605 17.4044 6.14114 15.6729 5.85254C15.3487 5.79854 15.0213 5.77165 14.6953 5.77051C13.2425 5.76551 11.9678 5.73726 10.9531 5.72461Z" fill="#FAFAFA"/>
</svg>
