<svg width="24" height="24" viewBox="0 0 24 24" fill="none" xmlns="http://www.w3.org/2000/svg">
<path fill-rule="evenodd" clip-rule="evenodd" d="M11.0469 2.84961C11.564 2.84961 12.0601 3.05532 12.4258 3.4209C12.7914 3.78651 12.997 4.28276 12.9971 4.7998V5.25H14.0469C14.2457 5.25 14.4365 5.32919 14.5771 5.46973L14.6465 5.53906L15.0684 5.11816C15.2494 4.93716 15.4647 4.79331 15.7012 4.69531C15.9377 4.59736 16.1913 4.5469 16.4473 4.54688C16.7034 4.54689 16.9577 4.59729 17.1943 4.69531C17.4307 4.79335 17.6462 4.93716 17.8271 5.11816L17.8262 5.11914L19.1289 6.4209L19.2578 6.5625C19.3791 6.7103 19.4783 6.87645 19.5518 7.05371C19.6496 7.2901 19.7001 7.54395 19.7002 7.7998C19.7002 8.05567 19.6496 8.3095 19.5518 8.5459C19.4783 8.7232 19.3791 8.88928 19.2578 9.03711L19.1289 9.17871L18.707 9.59961L18.7773 9.66992C18.9177 9.81045 18.997 10.0016 18.9971 10.2002V19.2002C18.9969 19.7171 18.7912 20.2136 18.4258 20.5791C18.0601 20.9446 17.5639 21.1504 17.0469 21.1504H6.24707C5.73008 21.1504 5.23382 20.9446 4.86816 20.5791C4.50272 20.2136 4.29702 19.7171 4.29688 19.2002V7.2002C4.29697 6.68324 4.50267 6.18688 4.86816 5.82129C5.05006 5.63944 5.26414 5.49646 5.49707 5.39941V4.7998C5.49717 4.28276 5.70275 3.78651 6.06836 3.4209C6.43404 3.05532 6.93018 2.84961 7.44727 2.84961H11.0469ZM15.0381 10.8682C14.7452 10.5755 14.2704 10.5755 13.9775 10.8682L11.999 12.8467L10.0205 10.8682C9.72767 10.5755 9.25281 10.5755 8.95996 10.8682C8.66713 11.161 8.66725 11.6358 8.95996 11.9287L10.9385 13.9072L8.95996 15.8857C8.66713 16.1786 8.66725 16.6534 8.95996 16.9463C9.2529 17.2386 9.7278 17.239 10.0205 16.9463L11.999 14.9678L13.9775 16.9463C14.2705 17.2386 14.7454 17.239 15.0381 16.9463C15.3306 16.6536 15.3304 16.1786 15.0381 15.8857L13.0596 13.9072L15.0381 11.9287C15.3306 11.636 15.3304 11.161 15.0381 10.8682ZM7.44727 4.34961C7.328 4.34961 7.21328 4.39717 7.12891 4.48145C7.0446 4.56575 6.99717 4.68059 6.99707 4.7998V5.25H11.4971V4.7998C11.497 4.68059 11.4495 4.56575 11.3652 4.48145C11.2809 4.39717 11.1661 4.34961 11.0469 4.34961H7.44727Z" fill="#FAFAFA"/>
</svg>
