<svg width="24" height="24" viewBox="0 0 24 24" fill="none" xmlns="http://www.w3.org/2000/svg">
<path fill-rule="evenodd" clip-rule="evenodd" d="M10.8826 10.2989C11.423 8.32459 11.9659 6.33959 12.4088 4.33842C12.5056 3.90129 12.4004 3.36596 11.8874 3.17598C11.7991 3.14326 11.6989 3.1112 11.5855 3.08091C11.472 3.05062 11.3693 3.02848 11.2763 3.01279C10.7367 2.92167 10.3771 3.33287 10.2415 3.75965C9.6188 5.72108 9.09141 7.71869 8.56688 9.70551L8.5593 9.73413C8.58806 9.73369 8.61686 9.7335 8.64573 9.7335C9.49576 9.7335 10.2447 9.94262 10.8826 10.2989ZM13.067 13.2913C13.067 12.8547 13.4221 12.5007 13.8603 12.5007H17.8268C18.2649 12.5007 18.6201 12.8547 18.6201 13.2913C18.6201 13.728 18.2649 14.082 17.8268 14.082H13.8603C13.4221 14.082 13.067 13.728 13.067 13.2913ZM15.0502 15.6632C14.6121 15.6632 14.2569 16.0172 14.2569 16.4539C14.2569 16.8905 14.6121 17.2445 15.0502 17.2445H19.0167C19.4549 17.2445 19.81 16.8905 19.81 16.4539C19.81 16.0172 19.4549 15.6632 19.0167 15.6632H15.0502ZM16.2402 18.8258C15.802 18.8258 15.4469 19.1797 15.4469 19.6164C15.4469 20.0531 15.802 20.407 16.2402 20.407H20.2067C20.6448 20.407 21 20.0531 21 19.6164C21 19.1797 20.6448 18.8258 20.2067 18.8258H16.2402ZM8.64589 10.7218C6.24833 10.7218 4.42536 12.5112 3.839 14.7017C3.48765 16.0142 3.13925 17.5627 3.00767 18.9405C2.91923 19.8665 3.60732 20.6299 4.48941 20.7327C4.90284 20.7809 5.42063 20.835 6.00005 20.8819C5.32388 19.4321 5.27922 17.8946 5.36468 17.1749C5.40329 16.8497 5.69912 16.6172 6.02544 16.6557C6.35178 16.6942 6.58501 16.989 6.54638 17.3142C6.46538 17.9965 6.54471 19.6499 7.40469 20.9703C7.82919 20.9889 8.26626 21 8.70384 21C9.1402 21 9.59774 20.9889 10.0571 20.9705C9.60543 20.3271 9.3346 19.629 9.17102 19.0312C9.03675 18.5406 8.96988 18.1004 8.93636 17.782C8.91954 17.6223 8.91101 17.492 8.90665 17.3997C8.90447 17.3536 8.90336 17.3169 8.90276 17.2907C8.90249 17.2775 8.90233 17.2671 8.90221 17.2593L8.90213 17.2498V17.2449C8.90213 16.9175 9.169 16.6515 9.49758 16.6515C9.82565 16.6515 10.0921 16.9166 10.0921 17.2436L10.0921 17.2464L10.0924 17.2612L10.0924 17.2641C10.0928 17.2811 10.0936 17.3081 10.0953 17.344C10.0987 17.416 10.1056 17.5235 10.1198 17.6582C10.1483 17.9287 10.2054 18.3038 10.319 18.7191C10.5226 19.4631 10.8929 20.284 11.5549 20.8879C11.8914 20.8649 12.2165 20.84 12.5215 20.8148C13.9259 20.699 14.4854 19.0163 13.5058 18.0581L13.0671 17.629C12.6368 17.2081 12.4002 16.6285 12.4136 16.0276L12.4362 15.0119C12.4843 12.8449 11.0137 10.7218 8.64589 10.7218Z" fill="#FAFAFA"/>
</svg>
