<svg width="24" height="24" viewBox="0 0 24 24" fill="none" xmlns="http://www.w3.org/2000/svg">
<path d="M16.5684 17.625C16.9768 17.3393 17.5127 17.3471 17.9131 17.6035L17.9971 17.6631L18.1123 17.7461C18.7086 18.1502 19.5868 18.375 20.25 18.375C20.6641 18.375 20.9999 18.7109 21 19.125C20.9999 19.5391 20.6641 19.875 20.25 19.875C19.3514 19.875 18.1612 19.5924 17.2656 18.9834C16.4834 19.5757 15.5552 19.875 14.625 19.875C13.7009 19.875 12.7789 19.5796 12 18.9951C11.2211 19.5796 10.2991 19.875 9.375 19.875C8.44451 19.875 7.51574 19.576 6.7334 18.9834C5.83794 19.5921 4.64838 19.875 3.75 19.875C3.33586 19.875 3.00012 19.5391 3 19.125C3.00011 18.7109 3.33586 18.375 3.75 18.375C4.45736 18.375 5.40927 18.1194 6.00293 17.6631C6.43695 17.3294 7.07196 17.3167 7.5166 17.6914C8.05882 18.1485 8.71763 18.375 9.375 18.375C10.0324 18.375 10.6912 18.1485 11.2334 17.6914L11.3184 17.626C11.7552 17.3207 12.3527 17.3426 12.7666 17.6914C13.3088 18.1485 13.9676 18.375 14.625 18.375C15.2824 18.375 15.9412 18.1485 16.4834 17.6914L16.5684 17.625Z" fill="#FAFAFA"/>
<path d="M7.5 8.625C7.91421 8.625 8.25 8.96079 8.25 9.375C8.25 9.78921 7.91421 10.125 7.5 10.125C7.08579 10.125 6.75 9.78921 6.75 9.375C6.75 8.96079 7.08579 8.625 7.5 8.625Z" fill="#FAFAFA"/>
<path d="M9.75 8.625C10.1642 8.625 10.5 8.96079 10.5 9.375C10.5 9.78921 10.1642 10.125 9.75 10.125C9.33579 10.125 9 9.78921 9 9.375C9 8.96079 9.33579 8.625 9.75 8.625Z" fill="#FAFAFA"/>
<path d="M12 8.625C12.4142 8.625 12.75 8.96079 12.75 9.375C12.75 9.78921 12.4142 10.125 12 10.125C11.5858 10.125 11.25 9.78921 11.25 9.375C11.25 8.96079 11.5858 8.625 12 8.625Z" fill="#FAFAFA"/>
<path fill-rule="evenodd" clip-rule="evenodd" d="M9.57422 4.125C10.3275 4.12501 10.9282 4.1496 11.3584 4.17676C12.1404 4.22616 12.7616 4.77329 12.9707 5.48438C13.0669 5.81145 13.1618 6.13056 13.251 6.43066C13.6655 6.44903 14.0112 6.46854 14.293 6.48926C15.1942 6.55568 15.9297 7.18548 16.1602 8.04199C16.2838 8.50179 16.3916 8.95585 16.4912 9.39355C17.3921 9.37054 18.5051 9.36249 19.5488 9.41797C20.3945 9.46313 21.0197 10.2113 20.9131 11.0518C20.76 12.2571 20.3617 14.7445 19.4541 17.2148C19.4489 17.229 19.4417 17.2426 19.4346 17.2559C19.4324 17.2598 19.4298 17.2636 19.4277 17.2676C19.426 17.2709 19.4245 17.2749 19.4229 17.2783C18.9567 17.1763 18.4806 16.9956 18.1123 16.7461L17.9971 16.6631L17.9131 16.6035C17.5128 16.3472 16.9767 16.3394 16.5684 16.625L16.4834 16.6914C15.9413 17.1484 15.2823 17.3749 14.625 17.375C13.9677 17.375 13.3088 17.1484 12.7666 16.6914C12.3528 16.3427 11.7551 16.3209 11.3184 16.626L11.2334 16.6914C10.6913 17.1484 10.0323 17.3749 9.375 17.375C8.71772 17.375 8.05877 17.1484 7.5166 16.6914C7.07202 16.3168 6.43692 16.3296 6.00293 16.6631C5.46921 17.0733 4.64551 17.3193 3.9707 17.3652C3.32125 15.2264 3.10707 13.3311 3.03613 12.3086C2.97485 11.4217 3.69838 10.742 4.53027 10.7568C4.60439 10.7582 4.68327 10.7583 4.7666 10.7598C4.83736 10.0558 4.92264 9.24957 5.02832 8.3623C5.12247 7.57189 5.6352 6.89759 6.36328 6.61426L6.35938 5.98828C6.35384 5.04546 7.06324 4.21346 8.05664 4.16211C8.45648 4.14153 8.96594 4.125 9.57422 4.125ZM7.5 14.25C7.08607 14.2502 6.75012 14.586 6.75 15C6.75014 15.4139 7.08608 15.7498 7.5 15.75H15C15.414 15.7499 15.7499 15.414 15.75 15C15.7499 14.586 15.414 14.2501 15 14.25H7.5ZM10.5439 7.875C8.93974 7.87501 7.81247 7.92387 7.08496 7.97266C6.79981 7.99198 6.5577 8.21191 6.51855 8.53906C6.42045 9.3627 6.33991 10.1158 6.27246 10.7803C8.23297 10.803 11.0238 10.8172 13.4717 10.7529L13.8438 10.1523C13.8496 10.1429 13.8572 10.1343 13.8633 10.125C14.0435 9.84801 14.3086 9.63974 14.6182 9.53125C14.6228 9.52962 14.6272 9.52697 14.6318 9.52539C14.7387 9.48914 14.8505 9.46609 14.9658 9.45508H14.9678C14.8889 9.11992 14.8039 8.77716 14.7109 8.43164C14.6417 8.17458 14.4314 8.00365 14.1826 7.98535C13.4666 7.9327 12.2866 7.875 10.5439 7.875ZM9.57422 5.625C8.99272 5.625 8.50906 5.64085 8.13379 5.66016C7.99249 5.66762 7.85822 5.78608 7.85938 5.97949L7.86133 6.42871C7.88804 6.42754 7.9151 6.42693 7.94238 6.42578C8.22673 6.41389 8.54197 6.40375 8.88965 6.39551C9.01009 6.39259 9.1344 6.38905 9.2627 6.38672C9.34473 6.38527 9.42838 6.384 9.51367 6.38281C9.83407 6.37823 10.1775 6.375 10.5449 6.375C10.9495 6.375 11.3252 6.37747 11.6729 6.38281C11.6268 6.22706 11.5795 6.06816 11.5322 5.90723C11.4889 5.75994 11.3745 5.68083 11.2637 5.67383C10.8633 5.64855 10.2942 5.62501 9.57422 5.625Z" fill="#FAFAFA"/>
</svg>
