<svg width="24" height="24" viewBox="0 0 24 24" fill="none" xmlns="http://www.w3.org/2000/svg">
<path d="M12 9.42383C12.5523 9.42383 13 9.87154 13 10.4238C12.9999 10.976 12.5522 11.4238 12 11.4238C11.4478 11.4238 11.0001 10.976 11 10.4238C11 9.87154 11.4477 9.42383 12 9.42383Z" fill="#FAFAFA"/>
<path fill-rule="evenodd" clip-rule="evenodd" d="M17 2.25C18.5188 2.25 19.75 3.48122 19.75 5V19C19.75 20.5188 18.5188 21.75 17 21.75H7C5.48122 21.75 4.25 20.5188 4.25 19V5C4.25 3.48122 5.48122 2.25 7 2.25H17ZM12 17.75C11.5858 17.75 11.25 18.0858 11.25 18.5C11.25 18.9142 11.5858 19.25 12 19.25C12.4142 19.25 12.75 18.9142 12.75 18.5C12.75 18.0858 12.4142 17.75 12 17.75ZM10.999 8.5C10.4467 8.5 9.99902 8.94772 9.99902 9.5V14.5C9.99902 15.0523 10.4467 15.5 10.999 15.5H13.002C13.5542 15.5 14.002 15.0523 14.002 14.5V9.5C14.002 8.94772 13.5542 8.5 13.002 8.5H10.999ZM12 4.75C11.5858 4.75 11.25 5.08579 11.25 5.5C11.25 5.91421 11.5858 6.25 12 6.25C12.4142 6.25 12.75 5.91421 12.75 5.5C12.75 5.08579 12.4142 4.75 12 4.75Z" fill="#FAFAFA"/>
</svg>
