<svg width="24" height="24" viewBox="0 0 24 24" fill="none" xmlns="http://www.w3.org/2000/svg">
<path fill-rule="evenodd" clip-rule="evenodd" d="M14.3691 6.14528C14.7032 5.90034 15.172 5.97243 15.417 6.30642C15.6616 6.6404 15.5897 7.10942 15.2559 7.35427L8.72363 12.1443C8.90229 12.5041 9 12.9031 9 13.3123C8.99982 14.0082 8.72357 14.6766 8.23145 15.1687C7.73919 15.6608 7.07103 15.9373 6.375 15.9373C5.67897 15.9373 5.01081 15.6608 4.51855 15.1687C4.20765 14.8578 3.98278 14.4762 3.85938 14.0623H2.625C2.21101 14.0623 1.87536 13.7262 1.875 13.3123C1.875 12.8981 2.21079 12.5623 2.625 12.5623H3.85938C3.98268 12.1482 4.20761 11.7669 4.51855 11.4558C5.01084 10.9635 5.67881 10.6873 6.375 10.6873C6.841 10.6873 7.29296 10.8133 7.68945 11.0427L14.3691 6.14528Z" fill="#FAFAFA"/>
<path d="M16.3496 11.0593C16.7638 11.0593 17.0996 11.3951 17.0996 11.8093V12.5593H21.3496C21.7638 12.5593 22.0996 12.8951 22.0996 13.3093C22.0995 13.7235 21.7637 14.0593 21.3496 14.0593H17.0996V14.8093C17.0995 15.2235 16.7637 15.5593 16.3496 15.5593C15.9355 15.5593 15.5997 15.2235 15.5996 14.8093V11.8093C15.5996 11.3951 15.9354 11.0593 16.3496 11.0593Z" fill="#FAFAFA"/>
</svg>
