<svg width="24" height="24" viewBox="0 0 24 24" fill="none" xmlns="http://www.w3.org/2000/svg">
<path fill-rule="evenodd" clip-rule="evenodd" d="M11.9998 1.99951C17.5226 1.99951 22.0002 6.47715 22.0002 12C22.0002 17.5228 17.5226 21.9998 11.9998 21.9998C6.47706 21.9996 2.00007 17.5227 2 12C2 6.47723 6.47702 1.99964 11.9998 1.99951ZM11.9998 14.5005C11.4476 14.5006 11 14.948 11 15.5002C11.0001 16.0524 11.4476 16.4999 11.9998 16.5C12.552 16.5 13.0002 16.0525 13.0002 15.5002C13.0002 14.948 12.552 14.5005 11.9998 14.5005ZM12.0005 7.99951C11.5863 7.99951 11.2505 8.3353 11.2505 8.74951V12.7493C11.2505 13.1635 11.5863 13.4993 12.0005 13.4993C12.4147 13.4993 12.7505 13.1635 12.7505 12.7493V8.74951C12.7505 8.3353 12.4147 7.99951 12.0005 7.99951Z" fill="#FAFAFA"/>
<path d="M11.9998 14.5005C12.552 14.5005 13.0002 14.948 13.0002 15.5002C13.0002 16.0525 12.552 16.5 11.9998 16.5C11.4476 16.4999 11.0001 16.0524 11 15.5002C11 14.948 11.4476 14.5006 11.9998 14.5005Z" fill="#131313"/>
<path d="M12.0005 7.99951C12.4147 7.99951 12.7505 8.3353 12.7505 8.74951V12.7493C12.7505 13.1635 12.4147 13.4993 12.0005 13.4993C11.5863 13.4993 11.2505 13.1635 11.2505 12.7493V8.74951C11.2505 8.3353 11.5863 7.99951 12.0005 7.99951Z" fill="#131313"/>
</svg>
