<svg width="24" height="24" viewBox="0 0 24 24" fill="none" xmlns="http://www.w3.org/2000/svg">
<path d="M9.22363 19.6427C9.32856 19.6344 9.43405 19.6473 9.53418 19.6798C9.98691 19.8306 10.4536 19.9381 10.9268 20.0001V19.9835C11.1388 20.0111 11.3314 20.1217 11.4619 20.2911C11.5924 20.4606 11.6506 20.6756 11.623 20.8878C11.5955 21.0999 11.484 21.2924 11.3145 21.4229C11.145 21.5533 10.9308 21.6116 10.7188 21.5841C10.1485 21.5111 9.58605 21.3851 9.03906 21.2081C8.93887 21.1756 8.84578 21.1231 8.76562 21.0548C8.68545 20.9863 8.6192 20.9026 8.57129 20.8087C8.52337 20.7147 8.49463 20.6121 8.48633 20.5069C8.47802 20.4018 8.48989 20.2957 8.52246 20.1954C8.58825 19.9929 8.73222 19.8253 8.92188 19.7286C9.01585 19.6807 9.11848 19.651 9.22363 19.6427Z" fill="#FAFAFA"/>
<path d="M14.7861 19.6153C14.8935 19.6206 14.999 19.6476 15.0957 19.6944C15.1925 19.7413 15.2789 19.8077 15.3496 19.8888C15.4203 19.9698 15.4744 20.0639 15.5078 20.1661C15.5412 20.2684 15.5532 20.3763 15.5439 20.4835C15.5346 20.5907 15.5036 20.6951 15.4531 20.7901C15.4026 20.885 15.3335 20.9686 15.25 21.0362C15.1664 21.1038 15.0702 21.1542 14.9668 21.1837C14.42 21.3634 13.8576 21.4918 13.2871 21.5675C13.075 21.595 12.8599 21.5378 12.6904 21.4073C12.5209 21.2768 12.4104 21.0834 12.3828 20.8712C12.3554 20.6591 12.4135 20.4449 12.5439 20.2755C12.6745 20.1061 12.867 19.9954 13.0791 19.9679C13.5521 19.9058 14.0181 19.7983 14.4707 19.6475V19.6632C14.5715 19.6261 14.6789 19.6101 14.7861 19.6153Z" fill="#FAFAFA"/>
<path d="M5.92188 17.6505C6.12343 17.6387 6.32279 17.7036 6.47852 17.8321C6.82441 18.1607 7.19884 18.458 7.59766 18.7198C7.68612 18.7772 7.76264 18.8516 7.82227 18.9386C7.88193 19.0257 7.92374 19.1242 7.94531 19.2276C7.96685 19.331 7.96808 19.4374 7.94824 19.5411C7.9284 19.6448 7.88828 19.744 7.83008 19.8321C7.77199 19.9199 7.6967 19.995 7.60938 20.0538C7.52195 20.1127 7.42364 20.1541 7.32031 20.1749C7.21721 20.1956 7.11098 20.1962 7.00781 20.1759C6.9044 20.1554 6.80541 20.1143 6.71777 20.0557C6.23696 19.7418 5.78705 19.3825 5.37402 18.9835C5.23911 18.8334 5.16575 18.6374 5.16895 18.4356C5.17226 18.2339 5.25205 18.0412 5.3916 17.8956C5.53121 17.7499 5.72047 17.6623 5.92188 17.6505Z" fill="#FAFAFA"/>
<path d="M18.084 17.6143C18.2894 17.6189 18.4853 17.7027 18.6309 17.8477C18.7057 17.922 18.7651 18.0102 18.8057 18.1075C18.8462 18.2049 18.8671 18.3097 18.8672 18.4151C18.8672 18.5206 18.8462 18.6254 18.8057 18.7227C18.7651 18.8202 18.7058 18.9091 18.6309 18.9835C18.2121 19.3759 17.7628 19.7347 17.2871 20.0557C17.199 20.114 17.0998 20.1541 16.9961 20.1739C16.8924 20.1937 16.7859 20.1925 16.6826 20.171C16.5792 20.1494 16.4807 20.1076 16.3936 20.0479C16.3065 19.9883 16.2322 19.9118 16.1748 19.8233C16.0598 19.646 16.02 19.4305 16.0635 19.2237C16.1069 19.0171 16.2298 18.8358 16.4062 18.7198C16.8024 18.4509 17.177 18.1508 17.5264 17.8233C17.6782 17.6847 17.8784 17.6099 18.084 17.6143Z" fill="#FAFAFA"/>
<path d="M17.999 10.6075C18.1049 10.6076 18.2063 10.6498 18.2812 10.7247C18.3563 10.7997 18.3984 10.9018 18.3984 11.0079C18.405 12.5142 17.8801 13.9745 16.916 15.1319C15.9517 16.2893 14.6098 17.0695 13.127 17.335C13.0338 17.3521 12.9497 17.4024 12.8896 17.4757C12.8296 17.5489 12.7973 17.6407 12.7988 17.7354V18.4395C12.7988 18.5985 12.7354 18.7509 12.623 18.8634C12.5105 18.9759 12.3574 19.0391 12.1982 19.0391C12.0393 19.039 11.8868 18.9758 11.7744 18.8634C11.662 18.7509 11.5986 18.5986 11.5986 18.4395V16.8399C11.6544 15.1758 12.352 13.5972 13.5449 12.4356C14.7378 11.2741 16.3341 10.619 17.999 10.6075Z" fill="#FAFAFA"/>
<path d="M3.78613 14.3477C3.89102 14.3509 3.99413 14.375 4.08984 14.4181C4.18568 14.4611 4.27268 14.5222 4.34473 14.5987C4.41669 14.6751 4.47248 14.7653 4.50977 14.8634C4.67702 15.3112 4.88605 15.7426 5.13379 16.1515V16.1759C5.20456 16.2657 5.25601 16.3695 5.2832 16.4806C5.31035 16.5915 5.31322 16.7072 5.29199 16.8194C5.27071 16.9318 5.22511 17.0385 5.15918 17.1319C5.09326 17.2253 5.00787 17.3037 4.90918 17.3614C4.81053 17.419 4.70058 17.4553 4.58691 17.4669C4.47321 17.4785 4.35831 17.4653 4.25 17.4288C4.14172 17.3923 4.04242 17.333 3.95898 17.255C3.8755 17.1768 3.80921 17.0814 3.76562 16.9757C3.46732 16.4857 3.21554 15.9687 3.01367 15.4317C2.97642 15.3336 2.95884 15.229 2.96191 15.1241C2.96504 15.0191 2.98914 14.9153 3.03223 14.8194C3.07531 14.7236 3.1374 14.6375 3.21387 14.5655C3.29033 14.4935 3.38033 14.4368 3.47852 14.3995C3.57661 14.3623 3.68127 14.3446 3.78613 14.3477Z" fill="#FAFAFA"/>
<path d="M20.21 14.3477C20.3148 14.3446 20.4195 14.3623 20.5176 14.3995C20.7121 14.4749 20.8703 14.6238 20.957 14.8136C21.0435 15.0033 21.0528 15.2198 20.9824 15.4161C20.7833 15.9528 20.534 16.4699 20.2383 16.96C20.1922 17.062 20.1245 17.1532 20.041 17.2276C19.9576 17.3019 19.8594 17.3576 19.7529 17.3917C19.6465 17.4258 19.534 17.4379 19.4229 17.4259C19.3116 17.4138 19.2032 17.3776 19.1064 17.3214C19.0099 17.2651 18.9258 17.1893 18.8604 17.0987C18.7949 17.0081 18.7496 16.9044 18.7266 16.795C18.7035 16.6855 18.7032 16.5724 18.7266 16.463C18.75 16.3535 18.7965 16.2498 18.8623 16.1593C19.1087 15.747 19.3177 15.3131 19.4863 14.8634C19.5236 14.7653 19.5794 14.6751 19.6514 14.5987C19.7234 14.5222 19.8104 14.4611 19.9062 14.4181C20.002 14.3751 20.1051 14.3509 20.21 14.3477Z" fill="#FAFAFA"/>
<path d="M6.03027 10.6397C7.04137 10.6406 8.03858 10.8789 8.94043 11.336C9.84233 11.7932 10.6242 12.4565 11.2227 13.2716C11.26 13.3345 11.2793 13.4064 11.2793 13.4796C11.2793 13.5527 11.2599 13.6246 11.2227 13.6876C10.7157 14.7193 10.4427 15.8507 10.4229 17.0001C10.4241 17.0312 10.4172 17.0621 10.4033 17.0899C10.3894 17.1178 10.3685 17.1416 10.3428 17.1593C10.3161 17.1747 10.2857 17.1836 10.2549 17.1837C10.224 17.1837 10.1937 17.1747 10.167 17.1593C8.84713 16.7583 7.69052 15.9445 6.86816 14.837C6.04585 13.7295 5.60081 12.3873 5.59863 11.0079C5.60267 10.9553 5.61669 10.9035 5.64062 10.8565C5.66455 10.8095 5.69814 10.7677 5.73828 10.7335C5.77837 10.6994 5.8249 10.6734 5.875 10.6573C5.92507 10.6412 5.97786 10.6354 6.03027 10.6397Z" fill="#FAFAFA"/>
<path d="M11.998 2.43954C13.2648 2.43425 14.5209 2.68011 15.6924 3.16219C16.8636 3.64427 17.9282 4.35291 18.8242 5.24813C19.7203 6.14349 20.43 7.20795 20.9131 8.37899C21.3961 9.5499 21.6429 10.8048 21.6387 12.0714C21.6387 12.3673 21.5986 12.6555 21.5986 12.9434C21.5795 13.1556 21.477 13.3518 21.3135 13.4884C21.15 13.6249 20.9387 13.691 20.7266 13.672C20.5145 13.6529 20.3182 13.5503 20.1816 13.3868C20.0452 13.2233 19.979 13.012 19.998 12.7999C20.0102 12.5574 20.0102 12.3139 19.998 12.0714C19.998 9.94981 19.1554 7.91534 17.6553 6.41512C16.155 4.91483 14.1198 4.07137 11.998 4.07137C9.87646 4.07148 7.842 4.91492 6.3418 6.41512C4.84161 7.91535 3.99811 9.94976 3.99805 12.0714C3.98591 12.3139 3.98591 12.5574 3.99805 12.7999C4.00789 12.9991 3.9434 13.1949 3.81641 13.3487C3.6891 13.5027 3.50838 13.6042 3.31055 13.6319C3.09953 13.652 2.88907 13.5871 2.72559 13.4522C2.56208 13.3172 2.45873 13.1223 2.43848 12.9112C2.39853 12.6233 2.39844 12.335 2.39844 12.0391C2.39856 9.49324 3.40972 7.0513 5.20996 5.25106C7.01021 3.45083 9.45213 2.43964 11.998 2.43954Z" fill="#FAFAFA"/>
<path d="M11.998 5.63778C12.1027 5.63778 12.2035 5.67875 12.2783 5.75204C13.4438 6.9212 14.1653 8.45988 14.3184 10.1036C14.3235 10.1797 14.3076 10.2557 14.2725 10.3233C14.2372 10.3911 14.1835 10.4479 14.1182 10.4874C13.3724 10.9361 12.7074 11.5072 12.1504 12.1759C12.1316 12.1978 12.1082 12.2156 12.082 12.2276C12.0558 12.2397 12.0269 12.2452 11.998 12.2452C11.9694 12.2451 11.9411 12.2395 11.915 12.2276C11.8889 12.2156 11.8654 12.1977 11.8467 12.1759C11.2886 11.5051 10.6198 10.9338 9.87012 10.4874C9.80583 10.4476 9.75359 10.3909 9.71973 10.3233C9.68581 10.2555 9.67186 10.1791 9.67871 10.1036C9.83372 8.46037 10.5549 6.92237 11.7188 5.75204C11.7934 5.67883 11.8935 5.63788 11.998 5.63778Z" fill="#FAFAFA"/>
</svg>
