<svg width="24" height="24" viewBox="0 0 24 24" fill="none" xmlns="http://www.w3.org/2000/svg">
<path fill-rule="evenodd" clip-rule="evenodd" d="M14.6562 9.50293C15.3054 8.33454 16.7658 7.71486 18.0625 8.42188C19.2431 9.06582 19.8732 10.5362 19.1621 11.8398C19.159 11.8456 19.1556 11.8518 19.1523 11.8574L17.1592 15.2842C16.0167 17.5312 13.3027 18.5534 10.9541 17.6191L9.00293 16.8701L7.16895 20.3877C7.16009 20.4046 7.14976 20.4213 7.13965 20.4375C6.62053 21.2678 5.83387 21.75 4.90332 21.75C4.454 21.7499 4.0199 21.6364 3.6084 21.4307C3.60047 21.4267 3.59176 21.4232 3.58398 21.4189C2.28909 20.7123 2.00216 19.1171 2.63965 17.9336L4.55859 14.2529C4.56457 14.2415 4.57156 14.2299 4.57812 14.2188C5.77617 12.1914 8.20639 11.355 10.46 12.0615L10.6777 12.1348L10.6924 12.1406L12.6777 12.9033L14.6562 9.50293ZM17.3447 9.73828C16.8884 9.48952 16.2779 9.66002 15.9619 10.2393L15.9612 10.2406C15.9583 10.2459 15.9552 10.2517 15.9521 10.2568L13.9521 13.6973L13.9512 13.6963C13.7848 14.0044 13.5269 14.2258 13.2158 14.3369C12.906 14.4474 12.5896 14.4352 12.3213 14.3682C12.2918 14.3608 12.2627 14.3507 12.2344 14.3398L10.1699 13.5459L9.85254 13.4463C8.27065 13.0205 6.67032 13.6395 5.87695 14.9678L3.96875 18.627L3.96191 18.6396C3.65086 19.2107 3.84075 19.8412 4.29395 20.0957C4.51618 20.2045 4.71712 20.2499 4.90332 20.25C5.24973 20.25 5.57994 20.0933 5.85938 19.6523L7.75879 16.0137L7.7998 15.9443C8.14617 15.4249 8.77418 15.2557 9.28125 15.3799L9.38086 15.4092L9.41309 15.4199L11.4932 16.2207L11.502 16.2236C13.141 16.8793 15.048 16.1544 15.833 14.585L15.8555 14.543L17.8447 11.1211C18.0936 10.6648 17.9241 10.0543 17.3447 9.73828Z" fill="#FAFAFA"/>
<path d="M9.22168 9.4502C9.63589 9.4502 9.97168 9.78598 9.97168 10.2002C9.97155 10.6143 9.63581 10.9502 9.22168 10.9502H5.62207C5.20794 10.9502 4.8722 10.6143 4.87207 10.2002C4.87207 9.78598 5.20786 9.4502 5.62207 9.4502H9.22168Z" fill="#FAFAFA"/>
<path d="M12.292 4.46973C12.5849 4.17683 13.0596 4.17683 13.3525 4.46973L14.9521 6.06934C14.983 6.10017 15.0098 6.13353 15.0342 6.16797C15.1208 6.29026 15.1729 6.43934 15.1729 6.60059C15.1727 6.76634 15.1166 6.91789 15.0254 7.04199C15.0063 7.068 14.9858 7.09327 14.9629 7.11719C14.9576 7.12269 14.9527 7.12845 14.9473 7.13379L13.3525 8.73047C13.0597 9.02321 12.5849 9.02318 12.292 8.73047C11.9991 8.43761 11.9992 7.96282 12.292 7.66992L12.6113 7.35059H11.0625C10.6484 7.35059 10.3128 7.01458 10.3125 6.60059C10.3125 6.18637 10.6483 5.85059 11.0625 5.85059H12.6123L12.292 5.53027C11.9991 5.23738 11.9991 4.76262 12.292 4.46973Z" fill="#FAFAFA"/>
<path d="M6.27539 6.89453C6.73439 6.94101 7.09277 7.32947 7.09277 7.80078C7.09244 8.2771 6.72596 8.66684 6.25977 8.70605L6.25879 8.70703L6.18262 8.71094L6.10547 8.70703L6.10059 8.70605C5.66734 8.66728 5.32138 8.32533 5.27734 7.89355L5.27246 7.80078L5.27734 7.70801C5.32104 7.27583 5.66704 6.93229 6.10059 6.89355C6.12749 6.89063 6.15493 6.89062 6.18262 6.89062L6.27539 6.89453Z" fill="#FAFAFA"/>
<path d="M8.58203 6.89062C9.08456 6.89062 9.49219 7.29815 9.49219 7.80078C9.49186 8.27677 9.12588 8.66638 8.66016 8.70605C8.63478 8.70866 8.60907 8.71093 8.58301 8.71094C8.55529 8.71094 8.52694 8.70899 8.5 8.70605C8.06721 8.66685 7.72174 8.32501 7.67773 7.89355L7.67285 7.80078L7.67773 7.70801C7.72136 7.27648 8.06638 6.93313 8.49902 6.89355H8.50488L8.58203 6.89062Z" fill="#FAFAFA"/>
<path fill-rule="evenodd" clip-rule="evenodd" d="M18.8594 2.25C20.4223 2.25004 21.6895 3.51713 21.6895 5.08008C21.6894 6.64299 20.4222 7.91011 18.8594 7.91016C17.2964 7.91016 16.0293 6.643 16.0293 5.08008C16.0293 3.51712 17.2963 2.25 18.8594 2.25ZM18.8594 3.75C18.1248 3.75 17.5293 4.34553 17.5293 5.08008C17.5293 5.81459 18.1248 6.41016 18.8594 6.41016C19.5938 6.41011 20.1894 5.81455 20.1895 5.08008C20.1895 4.34557 19.5939 3.75004 18.8594 3.75Z" fill="#FAFAFA"/>
<path d="M3.8623 5.85059C4.27652 5.85059 4.6123 6.18637 4.6123 6.60059C4.61204 7.01458 4.27636 7.35059 3.8623 7.35059H3.0625C2.64845 7.35059 2.31276 7.01458 2.3125 6.60059C2.3125 6.18637 2.64829 5.85059 3.0625 5.85059H3.8623Z" fill="#FAFAFA"/>
<path d="M6.18262 4.49023C6.68515 4.49023 7.09277 4.89776 7.09277 5.40039C7.09257 5.87681 6.72603 6.26643 6.25977 6.30566C6.23438 6.30827 6.20869 6.31054 6.18262 6.31055C5.71154 6.31055 5.32402 5.95201 5.27734 5.49316L5.27246 5.40039L5.27734 5.30762C5.32376 4.84851 5.71135 4.49023 6.18262 4.49023Z" fill="#FAFAFA"/>
<path d="M8.65918 4.49414C9.12513 4.53381 9.49219 4.92411 9.49219 5.40039C9.49198 5.87648 9.12595 6.26597 8.66016 6.30566C8.63477 6.30827 8.60908 6.31054 8.58301 6.31055L8.58203 6.30957C8.57942 6.30957 8.57682 6.3096 8.57422 6.30957C8.10712 6.30514 7.72412 5.94915 7.67773 5.49316L7.67285 5.40039L7.67773 5.30762C7.72415 4.84851 8.11174 4.49023 8.58301 4.49023L8.65918 4.49414Z" fill="#FAFAFA"/>
<path d="M9.22168 2.25C9.63589 2.25 9.97168 2.58579 9.97168 3C9.97168 3.41421 9.63589 3.75 9.22168 3.75H5.62207C5.20786 3.75 4.87207 3.41421 4.87207 3C4.87207 2.58579 5.20786 2.25 5.62207 2.25H9.22168Z" fill="#FAFAFA"/>
<path d="M17.3447 9.73828C16.8884 9.48952 16.2779 9.66002 15.9619 10.2393L15.9612 10.2406C15.9583 10.2459 15.9552 10.2517 15.9521 10.2568L13.9521 13.6973L13.9512 13.6963C13.7848 14.0044 13.5269 14.2258 13.2158 14.3369C12.906 14.4474 12.5896 14.4352 12.3213 14.3682C12.2918 14.3608 12.2627 14.3507 12.2344 14.3398L10.1699 13.5459L9.85254 13.4463C8.27065 13.0205 6.67032 13.6395 5.87695 14.9678L3.96875 18.627L3.96191 18.6396C3.65086 19.2107 3.84075 19.8412 4.29395 20.0957C4.51618 20.2045 4.71712 20.2499 4.90332 20.25C5.24973 20.25 5.57994 20.0933 5.85938 19.6523L7.75879 16.0137L7.7998 15.9443C8.14617 15.4249 8.77418 15.2557 9.28125 15.3799L9.38086 15.4092L9.41309 15.4199L11.4932 16.2207L11.502 16.2236C13.141 16.8793 15.048 16.1544 15.833 14.585L15.8555 14.543L17.8447 11.1211C18.0936 10.6648 17.9241 10.0543 17.3447 9.73828Z" fill="#FAFAFA"/>
<path d="M18.8594 3.75C18.1248 3.75 17.5293 4.34553 17.5293 5.08008C17.5293 5.81459 18.1248 6.41016 18.8594 6.41016C19.5938 6.41011 20.1894 5.81455 20.1895 5.08008C20.1895 4.34557 19.5939 3.75004 18.8594 3.75Z" fill="#FAFAFA"/>
</svg>
