<svg width="24" height="24" viewBox="0 0 24 24" fill="none" xmlns="http://www.w3.org/2000/svg">
<path fill-rule="evenodd" clip-rule="evenodd" d="M17.5498 2C17.964 2 18.2998 2.33579 18.2998 2.75V12.2383C18.444 12.1904 18.5685 12.1474 18.6718 12.1084C18.8129 12.0552 18.9164 12.012 18.9814 11.9834C19.0139 11.9691 19.0373 11.9585 19.0508 11.9521C19.0574 11.949 19.0625 11.9463 19.0644 11.9453C19.4339 11.7608 19.8833 11.9103 20.0693 12.2793C20.2437 12.626 20.1239 13.0437 19.8037 13.248L19.7363 13.2861L19.7207 13.2939C19.7131 13.2976 19.7027 13.3028 19.6904 13.3086C19.6654 13.3204 19.6302 13.336 19.5859 13.3555C19.4968 13.3947 19.3689 13.4487 19.2021 13.5117C18.896 13.6273 18.4581 13.7721 17.8906 13.9209L13.2812 17.2461L17.9883 20.6416C18.3239 20.884 18.3994 21.3526 18.1572 21.6885C17.9148 22.0243 17.4462 22.0998 17.1103 21.8574L12 18.1699L6.88865 21.8584C6.55291 22.1006 6.08423 22.0249 5.84177 21.6895C5.59949 21.3535 5.67581 20.8849 6.01169 20.6426L10.7187 17.2461L6.1113 13.9219C5.54235 13.7729 5.10352 13.6275 4.79685 13.5117C4.63005 13.4487 4.50211 13.3947 4.41306 13.3555C4.3687 13.3359 4.3336 13.3204 4.30857 13.3086C4.2962 13.3028 4.28591 13.2977 4.27829 13.2939L4.26267 13.2861C3.89289 13.0999 3.74364 12.6492 3.92966 12.2793C4.1158 11.91 4.56587 11.761 4.93552 11.9463C4.93745 11.9472 4.94169 11.9491 4.94822 11.9521C4.96165 11.9585 4.98513 11.9691 5.01755 11.9834C5.08256 12.012 5.18601 12.0551 5.32712 12.1084C5.43078 12.1475 5.55541 12.1913 5.70017 12.2393V2.75C5.70017 2.33579 6.03596 2 6.45017 2C6.86416 2.00026 7.20017 2.33595 7.20017 2.75V3.2334H16.7998V2.75C16.7998 2.33579 17.1356 2 17.5498 2ZM12 16.3213L14.5322 14.4941C13.7713 14.5644 12.9272 14.6074 12 14.6074C11.0728 14.6074 10.2287 14.5643 9.46775 14.4941L12 16.3213ZM7.20017 12.6406C8.35594 12.888 9.95557 13.1074 12 13.1074C14.0446 13.1074 15.6441 12.888 16.7998 12.6406V9.55859H7.20017V12.6406Z" fill="#FAFAFA"/>
</svg>
