<svg width="24" height="24" viewBox="0 0 24 24" fill="none" xmlns="http://www.w3.org/2000/svg">
<path d="M19.5 16.25C19.9142 16.25 20.25 16.5858 20.25 17C20.25 17.4142 19.9142 17.75 19.5 17.75H4.5C4.08579 17.75 3.75 17.4142 3.75 17C3.75001 16.5858 4.08579 16.25 4.5 16.25H19.5Z" fill="#FAFAFA"/>
<path d="M4.75 6.25V7C4.75 7.09064 4.75201 7.18082 4.75586 7.27051C4.75797 7.32018 4.76236 7.36958 4.76562 7.41895C4.76985 7.48232 4.77319 7.54556 4.7793 7.6084C4.78337 7.6506 4.79001 7.69242 4.79492 7.73438C4.80146 7.7899 4.80744 7.84533 4.81543 7.90039C4.82331 7.95503 4.83251 8.00931 4.8418 8.06348C4.84962 8.10887 4.85742 8.15417 4.86621 8.19922C4.87856 8.26274 4.89199 8.32585 4.90625 8.38867C4.91197 8.41379 4.91781 8.43886 4.92383 8.46387C4.93988 8.53075 4.9574 8.59706 4.97559 8.66309C4.98289 8.68953 4.99041 8.71588 4.99805 8.74219C5.01867 8.81337 5.04041 8.88399 5.06348 8.9541C5.06776 8.96711 5.0718 8.98019 5.07617 8.99316C5.90833 11.4674 8.24532 13.25 11 13.25H13C16.049 13.25 18.5857 11.0662 19.1367 8.17773C19.1413 8.15404 19.1451 8.13023 19.1494 8.10645C19.1617 8.03743 19.1735 7.96821 19.1836 7.89844C19.1915 7.84396 19.1986 7.7893 19.2051 7.73438C19.21 7.69246 19.2157 7.65057 19.2197 7.6084C19.2259 7.54553 19.2301 7.48235 19.2344 7.41895C19.2376 7.36958 19.242 7.32018 19.2441 7.27051C19.248 7.18082 19.25 7.09064 19.25 7V6.25H22C22.4142 6.25 22.75 6.58579 22.75 7C22.75 7.41421 22.4142 7.75 22 7.75H20.7129C20.3356 11.6782 17.0272 14.75 13 14.75H11C6.97285 14.75 3.66439 11.6782 3.28711 7.75H2C1.58579 7.75 1.25 7.41421 1.25 7C1.25 6.58579 1.58579 6.25 2 6.25H4.75Z" fill="#FAFAFA"/>
<path d="M8.14941 8.33691C8.40531 8.20148 8.72154 8.2243 8.95703 8.40527C9.26918 8.64535 9.70561 8.86078 10.2441 9.01465C10.7802 9.16778 11.3825 9.25 12 9.25C12.6174 9.25 13.2198 9.16778 13.7559 9.01465C14.2944 8.86078 14.7308 8.64537 15.043 8.40527L15.1484 8.33789C15.4045 8.20179 15.7211 8.22399 15.957 8.40527C16.2692 8.64537 16.7056 8.86078 17.2441 9.01465C17.2609 9.01943 17.2781 9.0227 17.2949 9.02734C16.5341 10.6362 14.8978 11.75 13 11.75H11C9.10124 11.75 7.46343 10.6356 6.70312 9.02539C6.72029 9.02067 6.73785 9.01756 6.75488 9.0127C7.29344 8.8589 7.73027 8.64433 8.04395 8.4043L8.14941 8.33691Z" fill="#FAFAFA"/>
</svg>
