<svg width="40" height="40" viewBox="0 0 40 40" fill="none" xmlns="http://www.w3.org/2000/svg">
<path d="M20.5215 1.97093C20.1241 1.64573 19.5706 1.57496 19.1022 1.79027C18.6337 2.00579 18.334 2.46867 18.334 2.97679V5.08291C9.91185 5.91914 3.33404 13.0244 3.33398 21.6666C3.33398 30.8713 10.7959 38.3332 20.0007 38.3332C29.2054 38.3332 36.6673 30.8713 36.6673 21.6666C36.6673 17.2558 34.9528 13.2421 32.1556 10.2619C31.6831 9.75873 30.8913 9.7342 30.388 10.2066C29.8847 10.6791 29.8602 11.4708 30.3327 11.9742C32.7119 14.5093 34.1673 17.9166 34.1673 21.6666C34.1673 29.4906 27.8247 35.8332 20.0007 35.8332C12.1766 35.8332 5.83398 29.4906 5.83398 21.6666C5.83404 14.4065 11.2954 8.42246 18.334 7.59756V9.52301C18.334 10.0311 18.6337 10.494 19.1022 10.7095C19.5707 10.9249 20.1241 10.8557 20.5215 10.5305L24.5205 7.25576C24.8245 7.00696 25.0007 6.63854 25.0007 6.2499C25.0006 5.8613 24.8245 5.49282 24.5205 5.24404L20.5215 1.97093Z" fill="#FAFAFA"/>
<path d="M16.791 29.6793H13.9557V19.5067C13.7391 19.7573 13.4715 19.9975 13.1533 20.2278C12.8349 20.4513 12.4484 20.6522 11.9945 20.8284C11.5475 20.9977 11.0156 21.126 10.3994 21.2141V18.7141C11.0224 18.5786 11.5679 18.3959 12.0352 18.1656C12.5094 17.9353 12.9231 17.6664 13.2754 17.3616C13.634 17.0502 13.9516 16.7114 14.2292 16.3459H16.791V29.6793Z" fill="#FAFAFA"/>
<path d="M27.8083 18.6148H22.4079L22.1768 21.5966C22.3976 21.3692 22.6989 21.176 23.0801 21.0155C23.4683 20.8482 23.9467 20.7633 24.5156 20.7632C25.2787 20.7632 25.9886 20.9084 26.6445 21.1962C27.3002 21.484 27.8283 21.9425 28.2298 22.5715C28.6313 23.2005 28.8336 24.0297 28.8337 25.0601C28.8337 26.0909 28.6222 26.949 28.2005 27.6317C27.7789 28.3142 27.2061 28.8253 26.4834 29.1666C25.7672 29.5079 24.957 29.6793 24.0534 29.6793C23.1501 29.6792 22.3302 29.5326 21.5941 29.2382C20.8578 28.9437 20.2713 28.4946 19.8363 27.8922C19.4015 27.2833 19.1837 26.5202 19.1836 25.6037H21.8447C21.8449 26.2058 22.0533 26.6738 22.4681 27.0084C22.883 27.3362 23.4111 27.4998 24.0534 27.4999C24.6623 27.4999 25.1548 27.3068 25.5296 26.9188C25.9111 26.5306 26.1025 25.9102 26.1025 25.0601C26.1024 24.2842 25.9017 23.725 25.5003 23.3837C25.1055 23.0357 24.5929 22.8629 23.9639 22.8629C23.4755 22.8629 23.0801 22.9385 22.779 23.0923C22.4845 23.2396 22.2468 23.4249 22.0661 23.6457H19.6768L20.248 16.3459H27.8083V18.6148Z" fill="#FAFAFA"/>
</svg>
