<svg width="40" height="40" viewBox="0 0 40 40" fill="none" xmlns="http://www.w3.org/2000/svg">
<path d="M20.5215 1.97093C20.1241 1.64573 19.5706 1.57496 19.1022 1.79027C18.6337 2.00579 18.334 2.46867 18.334 2.97679V5.08291C9.91185 5.91914 3.33404 13.0244 3.33398 21.6666C3.33398 30.8713 10.7959 38.3332 20.0007 38.3332C29.2054 38.3332 36.6673 30.8713 36.6673 21.6666C36.6673 17.2558 34.9528 13.2421 32.1556 10.2619C31.6831 9.75873 30.8913 9.7342 30.388 10.2066C29.8847 10.6791 29.8602 11.4708 30.3327 11.9742C32.7119 14.5093 34.1673 17.9166 34.1673 21.6666C34.1673 29.4906 27.8247 35.8332 20.0007 35.8332C12.1766 35.8332 5.83398 29.4906 5.83398 21.6666C5.83404 14.4065 11.2954 8.42246 18.334 7.59756V9.52301C18.334 10.0311 18.6337 10.494 19.1022 10.7095C19.5707 10.9249 20.1241 10.8557 20.5215 10.5305L24.5205 7.25576C24.8245 7.00696 25.0007 6.63854 25.0007 6.2499C25.0006 5.8613 24.8245 5.49282 24.5205 5.24404L20.5215 1.97093Z" fill="#FAFAFA"/>
<path fill-rule="evenodd" clip-rule="evenodd" d="M24.5143 15.4961C25.2801 15.4962 25.95 15.6418 26.5244 15.9323C27.1055 16.2229 27.5883 16.655 27.9714 17.2295C28.361 17.7974 28.6538 18.4986 28.8519 19.3307C29.0499 20.156 29.1497 21.1031 29.1497 22.1725C29.1497 23.249 29.05 24.2002 28.8519 25.0257C28.6538 25.851 28.3608 26.5477 27.9714 27.1156C27.5883 27.6769 27.1055 28.1027 26.5244 28.3932C25.95 28.6837 25.2801 28.8294 24.5143 28.8294C23.7483 28.8294 23.0771 28.6838 22.5026 28.3932C21.9283 28.1027 21.4468 27.6767 21.0573 27.1156C20.6743 26.5476 20.383 25.8512 20.1849 25.0257C19.9934 24.2002 19.8984 23.2521 19.8984 22.1823C19.8985 21.1064 19.9935 20.1559 20.1849 19.3307C20.383 18.4986 20.6743 17.7974 21.0573 17.2295C21.4468 16.6553 21.9284 16.2228 22.5026 15.9323C23.0771 15.6417 23.7483 15.4961 24.5143 15.4961ZM24.5143 17.7845C24.1512 17.7845 23.8503 17.897 23.6126 18.1214C23.3749 18.3459 23.1865 18.6595 23.0479 19.0622C22.9092 19.4649 22.8094 19.9338 22.75 20.4684C22.6972 20.9966 22.6719 21.5651 22.6719 22.1725C22.6719 22.7734 22.6972 23.3418 22.75 23.8766C22.8094 24.4048 22.9092 24.8703 23.0479 25.2731C23.1865 25.6693 23.3749 25.9796 23.6126 26.2041C23.8504 26.4286 24.1511 26.541 24.5143 26.541C24.8839 26.5409 25.1882 26.4285 25.4258 26.2041C25.6698 25.9796 25.8586 25.669 25.9906 25.2731C26.1291 24.8704 26.2242 24.4047 26.277 23.8766C26.3364 23.3417 26.3665 22.7734 26.3665 22.1725C26.3665 21.5651 26.3364 20.9966 26.277 20.4684C26.2242 19.9338 26.1292 19.4648 25.9906 19.0622C25.8585 18.6595 25.6699 18.3459 25.4258 18.1214C25.1882 17.897 24.8839 17.7846 24.5143 17.7845Z" fill="#FAFAFA"/>
<path d="M17.2412 28.8294H14.4059V18.6569C14.1893 18.9074 13.9217 19.1477 13.6035 19.3779C13.2851 19.6015 12.8986 19.8024 12.4447 19.9785C11.9977 20.1478 11.4658 20.2762 10.8496 20.3643V17.8643C11.4726 17.7288 12.0181 17.546 12.4854 17.3158C12.9596 17.0854 13.3733 16.8166 13.7256 16.5117C14.0842 16.2003 14.4018 15.8616 14.6794 15.4961H17.2412V28.8294Z" fill="#FAFAFA"/>
</svg>
