<svg width="32" height="32" viewBox="0 0 32 32" fill="none" xmlns="http://www.w3.org/2000/svg">
<path fill-rule="evenodd" clip-rule="evenodd" d="M3.66699 5.33301C4.21928 5.33301 4.66699 5.78072 4.66699 6.33301V22.9997C4.66699 23.9202 5.41318 24.6663 6.33366 24.6663H28.3337C28.8859 24.6663 29.3337 25.1141 29.3337 25.6663C29.3337 26.2186 28.8859 26.6663 28.3337 26.6663H6.33366C4.30861 26.6663 2.66699 25.0247 2.66699 22.9997V6.33301C2.66699 5.78072 3.11471 5.33301 3.66699 5.33301ZM18.667 8.99967C18.667 8.44739 19.1147 7.99967 19.667 7.99967H25.667C26.2193 7.99967 26.667 8.44739 26.667 8.99967V14.9997C26.667 15.552 26.2193 15.9997 25.667 15.9997C25.1147 15.9997 24.667 15.552 24.667 14.9997V11.4139L19.3741 16.7068C18.2472 17.8337 16.4201 17.8337 15.2932 16.7068C14.9474 16.3609 14.3866 16.3609 14.0408 16.7068L9.70743 21.0401C9.31691 21.4306 8.68374 21.4306 8.29322 21.0401C7.90269 20.6496 7.90269 20.0164 8.29322 19.6259L12.6266 15.2926C13.7535 14.1657 15.5805 14.1657 16.7074 15.2926C17.0533 15.6384 17.614 15.6384 17.9599 15.2926L23.2528 9.99967H19.667C19.1147 9.99967 18.667 9.55196 18.667 8.99967Z" fill="#FAFAFA"/>
</svg>
