<svg width="48" height="48" viewBox="0 0 48 48" fill="none" xmlns="http://www.w3.org/2000/svg">
<path fill-rule="evenodd" clip-rule="evenodd" d="M13.8391 6H34.1609C35.2292 5.99998 36.1209 5.99996 36.8493 6.05948C37.6091 6.12156 38.3224 6.25578 38.9969 6.59947C40.0318 7.12677 40.8732 7.96816 41.4005 9.00306C41.7442 9.67758 41.8784 10.3909 41.9405 11.1507C42 11.8791 42 12.7708 42 13.8391V34.1609C42 35.2292 42 36.1209 41.9405 36.8493C41.8784 37.6091 41.7442 38.3224 41.4005 38.9969C40.8732 40.0318 40.0318 40.8732 38.9969 41.4005C38.3224 41.7442 37.6091 41.8784 36.8493 41.9405C36.1209 42 35.2292 42 34.1609 42H13.8391C12.7708 42 11.8791 42 11.1507 41.9405C10.3909 41.8784 9.67758 41.7442 9.00306 41.4005C7.96816 40.8732 7.12677 40.0318 6.59947 38.9969C6.25578 38.3224 6.12156 37.6091 6.05948 36.8493C5.99996 36.1209 5.99998 35.2292 6 34.1609V13.8391C5.99998 12.7708 5.99996 11.8791 6.05948 11.1507C6.12156 10.3909 6.25578 9.67758 6.59947 9.00305C7.12677 7.96816 7.96816 7.12677 9.00305 6.59947C9.67758 6.25578 10.3909 6.12156 11.1507 6.05948C11.8791 5.99996 12.7708 5.99998 13.8391 6ZM9 25.5V34.1C9 35.2449 9.00117 36.0133 9.04952 36.605C9.09643 37.1793 9.1802 37.4538 9.27249 37.635C9.51217 38.1054 9.89462 38.4878 10.365 38.7275C10.5461 38.8198 10.8207 38.9036 11.395 38.9505C11.9867 38.9988 12.7551 39 13.9 39H22.5V25.5H9ZM22.5 22.5H9V13.9C9 12.7551 9.00117 11.9867 9.04952 11.395C9.09643 10.8207 9.1802 10.5461 9.27249 10.365C9.51217 9.89462 9.89462 9.51217 10.365 9.27249C10.5461 9.1802 10.8207 9.09643 11.395 9.04952C11.9867 9.00117 12.7551 9 13.9 9H22.5V22.5ZM25.5 25.5V39H34.1C35.2449 39 36.0133 38.9988 36.605 38.9505C37.1793 38.9036 37.4539 38.8198 37.635 38.7275C38.1054 38.4878 38.4878 38.1054 38.7275 37.635C38.8198 37.4538 38.9036 37.1793 38.9505 36.605C38.9988 36.0133 39 35.2449 39 34.1V25.5H25.5ZM39 22.5H25.5V9H34.1C35.2449 9 36.0133 9.00117 36.605 9.04952C37.1793 9.09643 37.4539 9.1802 37.635 9.27249C38.1054 9.51217 38.4878 9.89462 38.7275 10.365C38.8198 10.5461 38.9036 10.8207 38.9505 11.395C38.9988 11.9867 39 12.7551 39 13.9V22.5Z" fill="#FAFAFA"/>
</svg>
