<svg width="48" height="48" viewBox="0 0 48 48" fill="none" xmlns="http://www.w3.org/2000/svg">
<path d="M15.5078 33.3691C15.8668 32.9496 16.4984 32.901 16.918 33.2598L18.9082 34.9629C19.1321 35.1546 19.262 35.4357 19.2598 35.7305C19.2572 36.0254 19.1237 36.3061 18.8965 36.4941L16.9062 38.1406C16.4809 38.4923 15.8502 38.4327 15.498 38.0078C15.1835 37.6277 15.1999 37.0853 15.5098 36.7227H12.7715C12.2196 36.7224 11.7717 36.2746 11.7715 35.7227C11.7716 35.1706 12.2194 34.7229 12.7715 34.7227H15.5645C15.1987 34.3572 15.1663 33.7688 15.5078 33.3691Z" fill="#FAFAFA"/>
<path d="M31.082 33.2598C31.5016 32.901 32.1332 32.9496 32.4922 33.3691C32.8337 33.7688 32.8013 34.3572 32.4355 34.7227H35.2285C35.7806 34.7229 36.2284 35.1706 36.2285 35.7227C36.2283 36.2746 35.7804 36.7224 35.2285 36.7227H32.4902C32.8001 37.0853 32.8165 37.6277 32.502 38.0078C32.1498 38.4327 31.5191 38.4923 31.0938 38.1406L29.1035 36.4941C28.8763 36.3061 28.7428 36.0254 28.7402 35.7305C28.738 35.4357 28.8679 35.1546 29.0918 34.9629L31.082 33.2598Z" fill="#FAFAFA"/>
<path d="M24 33.4883C25.339 33.4883 26.4255 34.5732 26.4258 35.9121C26.4258 37.2513 25.3392 38.3379 24 38.3379C22.6608 38.3379 21.5762 37.2513 21.5762 35.9121C21.5764 34.5732 22.661 33.4883 24 33.4883Z" fill="#FAFAFA"/>
<path fill-rule="evenodd" clip-rule="evenodd" d="M22.873 8.56641C23.1663 8.56641 23.453 8.63925 23.7148 8.76758L23.7168 8.76367C28.1689 10.8221 30.8423 15.0789 30.8516 18.8848L30.8438 19.252C30.7709 20.903 30.1756 22.4914 28.9668 23.6699C27.7484 24.8567 26.0391 25.5 23.9961 25.5C21.9753 25.4997 20.264 24.8984 19.0352 23.7207C17.8099 22.5462 17.2175 20.9461 17.1484 19.248V19.2246C17.1221 18.1912 17.3799 17.1692 17.8926 16.2715C18.4055 15.374 19.1551 14.633 20.0586 14.1309C20.4272 13.9262 20.866 13.8873 21.2656 14.0215C21.6424 14.1483 21.9502 14.4195 22.127 14.7734C22.2477 13.6845 21.948 12.3683 21.2969 11.2402L21.2988 11.2383C21.0872 10.8756 21.0093 10.4496 21.082 10.0352L21.166 9.72266C21.2785 9.42086 21.4731 9.1519 21.7285 8.94922L21.8906 8.83789C22.1873 8.66072 22.5272 8.56665 22.873 8.56641ZM25.0938 13.2617C25.1874 13.9964 25.1867 14.7408 25.0684 15.4609C24.8264 16.9281 23.6908 17.8314 22.4336 17.9219C21.8213 17.9656 21.2049 17.816 20.6719 17.4941C20.6092 17.5786 20.5506 17.6679 20.498 17.7598C20.2598 18.1771 20.137 18.6525 20.1465 19.1328C20.1918 20.2133 20.5531 21.0196 21.1113 21.5547C21.6671 22.0873 22.5743 22.4997 23.9961 22.5C25.3965 22.5 26.3075 22.0721 26.873 21.5215C27.4465 20.9622 27.8025 20.1426 27.8477 19.1211L27.8457 18.6387C27.7565 16.9137 26.8188 14.8738 25.0938 13.2617Z" fill="#FAFAFA"/>
<path fill-rule="evenodd" clip-rule="evenodd" d="M38 4C40.2091 4 42 5.79086 42 8V40L41.9785 40.4082C41.7876 42.2913 40.2913 43.7876 38.4082 43.9785L38 44H10L9.5918 43.9785C7.70869 43.7876 6.2124 42.2913 6.02148 40.4082L6 40V8C6 5.79086 7.79086 4 10 4H38ZM9 40C9 40.5523 9.44772 41 10 41H38C38.5523 41 39 40.5523 39 40V30.4355H9V40ZM10 7C9.44772 7 9 7.44771 9 8V27.4355H39V8C39 7.44772 38.5523 7 38 7H10Z" fill="#FAFAFA"/>
</svg>
