<svg width="48" height="48" viewBox="0 0 48 48" fill="none" xmlns="http://www.w3.org/2000/svg">
<path d="M23.998 15.4434C24.8262 15.4437 25.498 16.1151 25.498 16.9434V17.7012C25.9264 17.6759 26.3627 17.8293 26.6797 18.166C27.2467 18.77 27.2173 19.7201 26.6133 20.2871L25.498 21.332V23.3828L27.2148 22.4062L27.5781 20.9199L27.6211 20.7734C27.8742 20.0616 28.6385 19.6437 29.3965 19.8281C29.8384 19.9363 30.1811 20.2318 30.375 20.6035L31.1562 20.1582C31.8758 19.7483 32.7985 19.9962 33.2168 20.7109C33.6349 21.4257 33.3909 22.3376 32.6719 22.748L31.8906 23.1934C32.1203 23.5451 32.2082 23.9857 32.082 24.418C31.8508 25.2081 31.0143 25.6606 30.2148 25.4277L28.7285 24.9941L27.0273 25.9629L28.7305 26.9336L30.2148 26.5L30.3652 26.4648C31.1165 26.3253 31.8651 26.7692 32.082 27.5098C32.2081 27.9419 32.1201 28.3827 31.8906 28.7344L32.6719 29.1797C33.3913 29.5899 33.6348 30.5018 33.2168 31.2168C32.7984 31.9315 31.8758 32.1796 31.1562 31.7695L30.377 31.3242C30.1832 31.6963 29.8405 31.9913 29.3984 32.0996C28.5898 32.297 27.7738 31.8093 27.5781 31.0098L27.2148 29.5234L25.498 28.543V30.4805L26.6133 31.5273C27.2169 32.0944 27.2465 33.0426 26.6797 33.6465C26.3626 33.9836 25.9266 34.1347 25.498 34.1094V34.9844C25.498 35.8126 24.8262 36.4841 23.998 36.4844C23.1703 36.4836 22.4981 35.8123 22.498 34.9844V34.1094C22.0691 34.1346 21.6315 33.9842 21.3145 33.6465C20.7488 33.043 20.7787 32.0942 21.3809 31.5273L22.498 30.4785V28.5449L20.6816 29.582L20.3184 31.0664C20.1227 31.8662 19.3088 32.356 18.5 32.1582C18.0581 32.0498 17.7132 31.7548 17.5195 31.3828L16.8418 31.7695C16.1222 32.179 15.1993 31.9316 14.7812 31.2168C14.364 30.502 14.6091 29.5898 15.3281 29.1797L16.0039 28.7949C15.7746 28.4433 15.6904 28.0003 15.8164 27.5684C16.0474 26.7786 16.8826 26.3267 17.6816 26.5586L19.166 26.9922L20.9707 25.9629L19.166 24.9355L17.6836 25.3691C16.8841 25.6016 16.0473 25.1497 15.8164 24.3594C15.6905 23.9275 15.7766 23.4863 16.0059 23.1348L15.3281 22.748C14.609 22.3377 14.3654 21.4258 14.7832 20.7109C15.2014 19.9961 16.1241 19.7483 16.8438 20.1582L17.5195 20.5449C17.7132 20.1731 18.0582 19.8779 18.5 19.7695C19.3089 19.5715 20.1245 20.0615 20.3203 20.8613L20.6816 22.3457L22.498 23.3809V21.334L21.3809 20.2871L21.2754 20.1758C20.7775 19.6024 20.7839 18.732 21.3145 18.166C21.6314 17.8286 22.0694 17.676 22.498 17.7012V16.9434C22.498 16.1154 23.1703 15.4441 23.998 15.4434Z" fill="#FAFAFA"/>
<path fill-rule="evenodd" clip-rule="evenodd" d="M29.5 3.99219C30.3284 3.99219 31 4.66376 31 5.49219V8.08984L36 8.09766C38.2091 8.09766 40 9.88852 40 12.0977V40L39.9785 40.4082C39.774 42.4255 38.0713 44 36 44H12C9.79087 44 8.00001 42.2091 8 40V12.0977C8 9.88852 9.79086 8.09766 12 8.09766H17V5.5C17 4.67158 17.6716 4 18.5 4C19.3284 4 20 4.67158 20 5.5V8.09766L28 8.08984V5.49219C28 4.66376 28.6716 3.99219 29.5 3.99219ZM12 11C11.4477 11 11 11.4477 11 12V39.9023C11 40.4546 11.4477 40.9023 12 40.9023H36C36.5523 40.9023 37 40.4546 37 39.9023V12C37 11.4477 36.5523 11 36 11H12Z" fill="#FAFAFA"/>
</svg>
