<svg width="48" height="48" viewBox="0 0 48 48" fill="none" xmlns="http://www.w3.org/2000/svg">
<path fill-rule="evenodd" clip-rule="evenodd" d="M30.9219 24.9844C31.9381 24.9844 32.7615 25.8081 32.7617 26.8242V28.3418C32.8413 28.3288 32.9226 28.3203 33.0059 28.3203H37.1973C38.0257 28.3203 38.6973 28.9919 38.6973 29.8203C38.6973 30.6487 38.0257 31.3203 37.1973 31.3203H33.0059C32.9225 31.3203 32.8414 31.3099 32.7617 31.2969V33.1836L32.7539 33.3711C32.6661 34.2377 31.976 34.9261 31.1094 35.0137L30.9219 35.0234H17.5391L17.0254 34.998C14.9382 34.7859 13.2306 33.2942 12.6953 31.3203H10.8027C9.97431 31.3203 9.30273 30.6487 9.30273 29.8203C9.30273 28.9919 9.97431 28.3203 10.8027 28.3203H12.8145C13.4519 26.5314 15.0702 25.2085 17.0254 25.0098L17.5391 24.9844H30.9219ZM17.5391 27.9844C16.4237 27.9844 15.5195 28.8885 15.5195 30.0039C15.5195 31.1193 16.4237 32.0234 17.5391 32.0234H20.4297V27.9844H17.5391ZM23.4297 32.0234H29.7617V27.9844H23.4297V32.0234Z" fill="#FAFAFA"/>
<path fill-rule="evenodd" clip-rule="evenodd" d="M30.9219 12.9766C31.9381 12.9766 32.7615 13.8002 32.7617 14.8164V16.334C32.8413 16.3209 32.9226 16.3125 33.0059 16.3125H37.1973C38.0257 16.3125 38.6973 16.9841 38.6973 17.8125C38.6973 18.6409 38.0257 19.3125 37.1973 19.3125H33.0059C32.9225 19.3125 32.8414 19.3021 32.7617 19.2891V21.1758L32.7539 21.3633C32.6661 22.2298 31.976 22.9183 31.1094 23.0059L30.9219 23.0156H17.5391L17.0254 22.9902C14.9382 22.7781 13.2306 21.2864 12.6953 19.3125H10.8027C9.97431 19.3125 9.30273 18.6409 9.30273 17.8125C9.30273 16.9841 9.97431 16.3125 10.8027 16.3125H12.8145C13.4519 14.5236 15.0702 13.2007 17.0254 13.002L17.5391 12.9766H30.9219ZM17.5391 15.9766C16.4237 15.9766 15.5195 16.8807 15.5195 17.9961C15.5195 19.1114 16.4237 20.0156 17.5391 20.0156H20.4297V15.9766H17.5391ZM23.4297 20.0156H29.7617V15.9766H23.4297V20.0156Z" fill="#FAFAFA"/>
<path fill-rule="evenodd" clip-rule="evenodd" d="M40 8C42.2091 8 44 9.79086 44 12V36C44 38.2091 42.2091 40 40 40H8L7.5918 39.9785C5.57445 39.774 4 38.0713 4 36V12C4 9.79086 5.79086 8 8 8H40ZM8 11C7.44772 11 7 11.4477 7 12V36C7 36.5523 7.44771 37 8 37H40C40.5523 37 41 36.5523 41 36V12C41 11.4477 40.5523 11 40 11H8Z" fill="#FAFAFA"/>
</svg>
