<svg width="48" height="48" viewBox="0 0 48 48" fill="none" xmlns="http://www.w3.org/2000/svg">
<path fill-rule="evenodd" clip-rule="evenodd" d="M27.2324 5.43945C28.0604 5.43998 28.7324 6.1133 28.7324 6.94141C28.7319 7.76906 28.0601 8.44088 27.2324 8.44141H22.959V13.1426H31.4102C33.683 13.1426 35.5253 14.985 35.5254 17.2578V20.373H41C41.8283 20.373 42.4998 21.0448 42.5 21.873V26.5918C42.4992 27.4195 41.8279 28.0918 41 28.0918H35.5254V31.207C35.5247 33.4793 33.6826 35.3223 31.4102 35.3223H27.3359V39.3262C27.3359 39.406 27.3284 39.4841 27.3164 39.5605H39C39.8284 39.5605 40.5 40.2321 40.5 41.0605C40.4995 41.8885 39.8281 42.5605 39 42.5605H7C6.1719 42.5605 5.50053 41.8885 5.5 41.0605C5.5 40.2321 6.17157 39.5605 7 39.5605H16.2012C16.1892 39.4842 16.1836 39.4059 16.1836 39.3262V35.3223H13.9746C9.29468 35.3223 5.50053 31.5275 5.5 26.8477V21.6172C5.5 16.9369 9.29435 13.1426 13.9746 13.1426H19.959V8.44141H15.6836C14.8555 8.44141 14.1841 7.76938 14.1836 6.94141C14.1836 6.11298 14.8552 5.43945 15.6836 5.43945H27.2324ZM19.1836 39.3262C19.1836 39.4059 19.1761 39.4842 19.1641 39.5605H24.3555C24.3435 39.4841 24.3359 39.406 24.3359 39.3262V35.3223H19.1836V39.3262ZM13.9746 16.1426C10.9512 16.1426 8.5 18.5938 8.5 21.6172V26.8477C8.50053 29.8706 10.9515 32.3223 13.9746 32.3223H31.4102C32.0257 32.3223 32.5247 31.8224 32.5254 31.207V26.5918C32.5254 25.7635 33.1971 25.0919 34.0254 25.0918H39.5V23.373H34.0254C33.1974 23.3729 32.5259 22.7009 32.5254 21.873V17.2578C32.5253 16.6419 32.0261 16.1426 31.4102 16.1426H13.9746Z" fill="#FAFAFA"/>
<path d="M24.0347 25.5C24.0347 25.2197 23.9054 24.7181 23.5601 24.0059C23.2322 23.3296 22.78 22.6039 22.3042 21.9199C22.0427 21.544 21.7778 21.1896 21.5347 20.873C21.2916 21.1896 21.0267 21.544 20.7652 21.9199C20.2894 22.6039 19.8372 23.3296 19.5093 24.0059C19.164 24.7181 19.0347 25.2197 19.0347 25.5C19.0347 26.8807 20.154 28 21.5347 28C22.9154 28 24.0347 26.8807 24.0347 25.5ZM27.0347 25.5C27.0347 28.5375 24.5722 31 21.5347 31C18.4971 31 16.0347 28.5375 16.0347 25.5C16.0347 24.5303 16.4054 23.5319 16.8101 22.6973C17.232 21.827 17.7803 20.9583 18.3042 20.2051C18.8315 19.4472 19.3548 18.7753 19.7456 18.2949C19.9417 18.0539 20.1059 17.8586 20.2222 17.7227C20.2802 17.6548 20.3265 17.6016 20.3589 17.5645C20.3751 17.5459 20.3889 17.5318 20.398 17.5215C20.4021 17.5168 20.4078 17.5098 20.4078 17.5098L20.5269 17.3906C20.8015 17.1411 21.1599 17 21.5347 17C21.9095 17 22.2679 17.1411 22.5425 17.3906L22.6617 17.5098C22.6617 17.5098 22.6673 17.5168 22.6714 17.5215C22.6805 17.5318 22.6943 17.5459 22.7105 17.5645C22.7429 17.6016 22.7892 17.6548 22.8472 17.7227C22.9635 17.8586 23.1277 18.0539 23.3238 18.2949C23.7146 18.7753 24.2379 19.4472 24.7652 20.2051C25.2891 20.9583 25.8374 21.827 26.2593 22.6973C26.664 23.5319 27.0347 24.5303 27.0347 25.5Z" fill="#FAFAFA"/>
</svg>
