<svg width="48" height="48" viewBox="0 0 48 48" fill="none" xmlns="http://www.w3.org/2000/svg">
<path d="M22.5722 24.002C22.5859 24.0026 22.5994 24.0068 22.6132 24.0078L22.6522 24.0098C22.6707 24.0117 22.6886 24.017 22.7069 24.0195C22.7715 24.0286 22.8351 24.0411 22.8983 24.0586C22.9283 24.0669 22.9571 24.0778 22.9862 24.0879C23.0406 24.1066 23.094 24.1272 23.1464 24.1523C23.1785 24.1678 23.2093 24.1854 23.2401 24.2031C23.2887 24.2309 23.3368 24.2593 23.3827 24.293C23.41 24.313 23.435 24.3356 23.4608 24.3574C23.4934 24.3849 23.5297 24.4087 23.5604 24.4395C23.5722 24.4513 23.5804 24.4664 23.5917 24.4785C23.6126 24.5008 23.6308 24.5253 23.6503 24.5488C23.69 24.5967 23.7288 24.6439 23.7616 24.6953C23.7759 24.7176 23.7856 24.7425 23.7987 24.7656C23.8308 24.8223 23.8625 24.878 23.8866 24.9375C23.8959 24.9604 23.9019 24.9844 23.91 25.0078C23.933 25.0735 23.9532 25.1393 23.9667 25.207C23.9699 25.2231 23.9699 25.2396 23.9725 25.2559C23.9848 25.3299 23.9929 25.4036 23.994 25.4785C23.9942 25.4863 23.9979 25.4941 23.9979 25.502L23.9999 37.5C23.9999 38.3283 23.3282 38.9998 22.4999 39C21.6716 39 21 38.3284 20.9999 37.5L20.9979 29.1211L8.56043 41.5605C7.97465 42.1463 7.02513 42.1463 6.43934 41.5605C5.85355 40.9748 5.85355 40.0252 6.43934 39.4395L18.8788 27H10.4999L10.3456 26.9922C9.58963 26.9149 8.99988 26.2763 8.99989 25.5C9.00002 24.6717 9.67157 24 10.4999 24L22.5722 24.002Z" fill="#FAFAFA"/>
<path d="M38.9999 6C39.7955 6.00004 40.5584 6.31633 41.121 6.87891C41.6835 7.44151 41.9999 8.20439 41.9999 9V33C41.9999 33.7956 41.6835 34.5585 41.121 35.1211C40.5584 35.6837 39.7955 36 38.9999 36H29.9999C29.1715 36 28.4999 35.3284 28.4999 34.5C28.4999 33.6716 29.1715 33 29.9999 33H38.9999V9H14.9999V18C14.9999 18.8284 14.3282 19.4999 13.4999 19.5C12.6715 19.5 11.9999 18.8284 11.9999 18V9C11.9999 8.20435 12.3162 7.44151 12.8788 6.87891C13.4414 6.31634 14.2043 6 14.9999 6H38.9999Z" fill="#FAFAFA"/>
</svg>
