<svg width="48" height="48" viewBox="0 0 48 48" fill="none" xmlns="http://www.w3.org/2000/svg">
<path fill-rule="evenodd" clip-rule="evenodd" d="M27.8243 2.02152C28.6408 1.8817 29.4161 2.4303 29.5559 3.24684L28.0774 3.5C29.5559 3.24684 29.5559 3.24659 29.5559 3.24684L29.5563 3.24909L29.5568 3.25213L29.5582 3.26056L29.5625 3.28668L29.576 3.37447C29.587 3.44821 29.6016 3.55192 29.6176 3.68099C29.6494 3.93858 29.6871 4.30027 29.7122 4.72867C29.7616 5.57191 29.7662 6.73404 29.5523 7.88726C29.3069 9.20999 28.6866 10.4195 28.1794 11.2499C27.9191 11.6761 27.6727 12.028 27.4895 12.2756C27.3977 12.3998 27.3209 12.4988 27.2653 12.5691C27.2374 12.6043 27.2148 12.6323 27.1981 12.6528L27.1776 12.6777L27.1709 12.6859L27.167 12.6906C27.1667 12.6908 27.1665 12.691 26.0171 11.7274L27.167 12.6906C26.6347 13.3254 25.6882 13.4091 25.0534 12.8768C24.4192 12.3452 24.3355 11.4006 24.8658 10.7658C24.8663 10.7652 24.8668 10.7647 24.8672 10.7641L24.8736 10.7563L24.9135 10.7065C24.9505 10.6598 25.007 10.5871 25.0775 10.4918C25.2191 10.3003 25.4138 10.0225 25.6192 9.68614C26.0436 8.99132 26.4534 8.14401 26.6026 7.34009C26.7549 6.51877 26.7595 5.62406 26.7173 4.9041C26.6966 4.55089 26.6656 4.2544 26.6403 4.04919C26.6276 3.94686 26.6165 3.86802 26.6089 3.81707L26.6004 3.76233L26.5989 3.75316C26.4594 2.93677 27.0079 2.16131 27.8243 2.02152ZM38.3729 5.1742C39.1522 5.45523 39.5562 6.3148 39.2751 7.0941L38.348 9.66515C38.067 10.4445 37.2074 10.8484 36.4281 10.5674C35.6488 10.2863 35.2448 9.42677 35.5259 8.64746L36.453 6.07641C36.7341 5.29711 37.5936 4.89318 38.3729 5.1742ZM43.842 14.1427C44.212 14.8839 43.911 15.7847 43.1698 16.1547L41.1094 17.1831C40.3682 17.5531 39.4674 17.2522 39.0974 16.5109C38.7274 15.7697 39.0284 14.8689 39.7696 14.4989L41.83 13.4705C42.5712 13.1005 43.472 13.4015 43.842 14.1427ZM34.2899 13.7529C34.8751 14.3392 34.8743 15.2889 34.288 15.8742L32.2277 17.931C31.6414 18.5163 30.6917 18.5155 30.1064 17.9292C29.5211 17.3429 29.5219 16.3932 30.1082 15.8079L32.1685 13.7511C32.7548 13.1658 33.7046 13.1666 34.2899 13.7529ZM12.0822 16.8707C13.5311 13.1782 18.2915 12.1832 21.0986 14.9855L33.0377 26.9042C35.8488 29.7106 34.8533 34.4789 31.1545 35.9267L11.5234 43.6112C7.05051 45.3621 2.63524 40.9465 4.39022 36.4739L12.0822 16.8707ZM18.9791 17.1086C17.7012 15.8329 15.5343 16.2862 14.8749 17.9665L7.18292 37.5697C6.38469 39.604 8.39288 41.615 10.4299 40.8176L30.061 33.1331C31.7446 32.4741 32.1973 30.3043 30.9182 29.0273L18.9791 17.1086ZM34.8202 21.9483C34.8551 21.1206 35.5544 20.478 36.382 20.5129L36.3188 22.0116C36.382 20.5129 36.3818 20.5129 36.382 20.5129L36.3864 20.5131L36.393 20.5134L36.4131 20.5144L36.4792 20.5181C36.5344 20.5214 36.6116 20.5266 36.7077 20.5344C36.8994 20.55 37.1681 20.5761 37.488 20.6188C38.1207 20.7034 38.9869 20.8573 39.8658 21.138C40.6877 21.4006 41.5555 21.8271 42.179 22.1598C42.4995 22.3309 42.7735 22.487 42.9683 22.6009C43.0659 22.658 43.1442 22.7048 43.1992 22.738L43.2638 22.7772L43.2821 22.7885L43.2876 22.7919L43.2894 22.793C43.2895 22.7931 43.2906 22.7937 42.4999 24.0684L43.2894 22.793C43.9934 23.2297 44.2112 24.1551 43.7745 24.8591C43.3379 25.563 42.4133 25.7797 41.7094 25.3432M36.2552 23.5102C36.2551 23.5102 36.2553 23.5102 36.2552 23.5102L36.2603 23.5105L36.2983 23.5126C36.3343 23.5148 36.3908 23.5185 36.4647 23.5246C36.613 23.5366 36.8295 23.5575 37.0907 23.5924C37.62 23.6631 38.2992 23.7869 38.9529 23.9958C39.5126 24.1746 40.19 24.4988 40.7664 24.8065C41.0458 24.9556 41.2854 25.0921 41.4542 25.1908C41.5384 25.24 41.6044 25.2795 41.6483 25.306L41.6969 25.3356L41.7094 25.3432M34.8202 21.9483C34.7852 22.7759 35.4277 23.4751 36.2552 23.5102L34.8202 21.9483Z" fill="#FAFAFA"/>
</svg>
