<svg width="48" height="48" viewBox="0 0 48 48" fill="none" xmlns="http://www.w3.org/2000/svg">
<g clip-path="url(#clip0_11422_1969)">
<path d="M46.5002 24C47.3287 24 48.0002 24.6716 48.0002 25.5C48.0002 26.3284 47.3287 27 46.5002 27H37.5002C36.6718 27 36.0002 26.3284 36.0002 25.5C36.0002 24.6716 36.6718 24 37.5002 24H46.5002Z" fill="#FAFAFA"/>
<path d="M40.5002 30V21C40.5002 20.1716 41.1718 19.5 42.0002 19.5C42.8287 19.5 43.5002 20.1716 43.5002 21V30C43.5002 30.8284 42.8287 31.5 42.0002 31.5C41.1718 31.5 40.5002 30.8284 40.5002 30Z" fill="#FAFAFA"/>
<path d="M29.2502 19C29.2502 14.0294 25.2208 10 20.2502 10C15.2797 10 11.2502 14.0294 11.2502 19C11.2502 23.9706 15.2797 28 20.2502 28V31C13.6228 31 8.25023 25.6274 8.25023 19C8.25023 12.3726 13.6228 7 20.2502 7C26.8776 7 32.2502 12.3726 32.2502 19C32.2502 25.6274 26.8776 31 20.2502 31V28C25.2208 28 29.2502 23.9706 29.2502 19Z" fill="#FAFAFA"/>
<path d="M20.2502 28.5C27.2495 28.5 33.0447 32.5318 37.1233 38.5977L37.5139 39.1914L37.5901 39.3242C37.9333 40.0026 37.7129 40.8448 37.0588 41.2637C36.4048 41.6822 35.5489 41.5291 35.0764 40.9336L34.9866 40.8086L34.2717 39.7441C30.6127 34.5579 25.7768 31.5 20.2502 31.5C14.3556 31.5 9.24717 34.979 5.5139 40.8086C5.06724 41.5061 4.13923 41.7101 3.44163 41.2637C2.74414 40.817 2.54018 39.889 2.98656 39.1914C7.08183 32.7963 13.025 28.5 20.2502 28.5Z" fill="#FAFAFA"/>
</g>
<defs>
<clipPath id="clip0_11422_1969">
<rect width="48" height="48" fill="white"/>
</clipPath>
</defs>
</svg>
