<svg width="48" height="48" viewBox="0 0 48 48" fill="none" xmlns="http://www.w3.org/2000/svg">
<path d="M21.1758 13.9258C21.9747 13.7088 22.7978 14.1799 23.0156 14.9785C23.233 15.7778 22.762 16.6047 21.9629 16.8223C21.944 16.8273 21.9231 16.8307 21.9043 16.8359C21.885 16.8414 21.8629 16.848 21.8438 16.8535C21.7785 16.8723 21.7118 16.8848 21.6465 16.8945L21.6387 16.8984C20.1066 17.3968 18.7693 18.3685 17.8223 19.6719C16.8756 20.9755 16.3654 22.5471 16.3652 24.1582C16.3654 25.7697 16.8752 27.3427 17.8223 28.6465C18.7693 29.9497 20.1067 30.9197 21.6387 31.418C23.1711 31.9159 24.8248 31.9155 26.3574 31.418C27.765 30.9606 29.0025 30.0995 29.9297 28.9531C29.9379 28.9422 29.9465 28.9307 29.9551 28.9199C29.9673 28.9044 29.9801 28.8867 29.9922 28.8711C30.0078 28.8511 30.0246 28.8315 30.041 28.8125C30.0841 28.7566 30.1322 28.7037 30.1738 28.6465C30.6606 27.9765 31.5994 27.8281 32.2695 28.3145C32.9393 28.8015 33.0884 29.7401 32.6016 30.4102C31.2817 32.226 29.4182 33.5779 27.2832 34.2715C25.1484 34.9645 22.8475 34.965 20.7129 34.2715C18.5779 33.5774 16.7161 32.2244 15.3965 30.4082C15.3124 30.2924 15.2315 30.1734 15.1523 30.0547L15.1172 30.0801C15.1018 30.057 15.0855 30.0329 15.0703 30.0098C15.0003 29.9026 14.9478 29.7877 14.9082 29.6719C13.9039 28.0161 13.3665 26.1116 13.3652 24.1641C13.3458 24.0592 13.3343 23.9508 13.3379 23.8398C13.3388 23.8115 13.3387 23.7823 13.3398 23.7539C13.341 23.7259 13.3424 23.6979 13.3438 23.6699C13.3492 23.5582 13.3682 23.4493 13.3965 23.3457C13.5465 21.3887 14.237 19.5047 15.3965 17.9082C15.42 17.8759 15.4449 17.8426 15.4688 17.8105C15.4995 17.7593 15.5346 17.7086 15.5723 17.6602C15.5896 17.6379 15.6075 17.6139 15.625 17.5918C15.6421 17.5701 15.6585 17.547 15.6758 17.5254C15.7159 17.4755 15.7598 17.4282 15.8047 17.3848C17.0879 15.8325 18.7889 14.6724 20.7129 14.0469C20.79 14.0218 20.8696 14.0044 20.9473 13.9922C20.9674 13.9854 20.9891 13.9768 21.0098 13.9707L21.1758 13.9258Z" fill="#FAFAFA"/>
<path d="M33.1426 22.9844C33.9705 23.0113 34.6205 23.7034 34.5938 24.5312L34.5859 24.7031C34.5454 25.5302 33.8409 26.1672 33.0137 26.127C32.1876 26.0853 31.5498 25.3831 31.5898 24.5566C31.5908 24.5366 31.5929 24.5161 31.5938 24.4961C31.5946 24.4758 31.5931 24.4539 31.5938 24.4336C31.6209 23.6062 32.3153 22.9582 33.1426 22.9844Z" fill="#FAFAFA"/>
<path d="M30.6836 17.8184C31.3691 17.354 32.3027 17.5336 32.7676 18.2188L32.8633 18.3613C33.3163 19.0541 33.1201 19.9837 32.4277 20.4375C31.7348 20.89 30.805 20.6965 30.3516 20.0039L30.2832 19.9023C29.8191 19.217 29.9988 18.2833 30.6836 17.8184Z" fill="#FAFAFA"/>
<path d="M25.6582 15.0859C25.9398 14.3079 26.7997 13.9054 27.5781 14.1855L27.7383 14.2441C28.5125 14.538 28.9028 15.4054 28.6094 16.1797C28.3149 16.9533 27.4479 17.3426 26.6738 17.0488C26.6553 17.0418 26.6357 17.0342 26.6172 17.0273C26.5983 17.0204 26.5775 17.0127 26.5586 17.0059C25.7807 16.7239 25.3775 15.8644 25.6582 15.0859Z" fill="#FAFAFA"/>
<path fill-rule="evenodd" clip-rule="evenodd" d="M37 4.84766C39.7613 4.84766 41.9997 7.08646 42 9.84766V24.0391C42 36.8345 29.768 42.6752 25.4707 44.332L25.1113 44.4512C24.2628 44.6885 23.3706 44.6298 22.5469 44.2832C18.2656 42.4816 6 36.2546 6 24.0391V9.84766C6.00026 7.08646 8.23874 4.84766 11 4.84766H37ZM11 7.84766C9.89559 7.84766 9.00026 8.74331 9 9.84766V24.0391C9 29.035 11.4809 32.9021 14.6973 35.8574C17.9383 38.8351 21.722 40.6826 23.7109 41.5195C23.9435 41.6172 24.1707 41.6187 24.3926 41.5332C26.3745 40.769 30.1226 39.0569 33.3301 36.1426C36.4928 33.2688 39 29.3609 39 24.0391V9.84766C38.9997 8.74332 38.1044 7.84766 37 7.84766H11Z" fill="#FAFAFA"/>
</svg>
