<svg width="48" height="48" viewBox="0 0 48 48" fill="none" xmlns="http://www.w3.org/2000/svg">
<path fill-rule="evenodd" clip-rule="evenodd" d="M18.1523 16.5078C18.9088 16.5845 19.5 17.2233 19.5 18C19.5 18.7767 18.9088 19.4155 18.1523 19.4922L18 19.5H17.9004V22.9004H18C18.8284 22.9004 19.5 23.572 19.5 24.4004C19.4997 25.2286 18.8283 25.9004 18 25.9004H7.59961C7.57323 25.9005 7.54796 25.911 7.5293 25.9297C7.51079 25.9483 7.5001 25.9737 7.5 26V40.4004C7.50013 40.4266 7.51078 40.4521 7.5293 40.4707C7.54793 40.4892 7.57334 40.4999 7.59961 40.5H40.4004C40.4267 40.4999 40.4521 40.4892 40.4707 40.4707C40.4892 40.4521 40.4999 40.4266 40.5 40.4004V26C40.4999 25.9737 40.4892 25.9483 40.4707 25.9297C40.452 25.911 40.4268 25.9005 40.4004 25.9004H30.8008C29.9725 25.9004 29.301 25.2286 29.3008 24.4004C29.3008 23.8264 29.626 23.3322 30.0996 23.0801V19.5H30C29.1716 19.5 28.5 18.8284 28.5 18C28.5 17.1716 29.1716 16.5 30 16.5H40.8008L40.9531 16.5078C41.7096 16.5845 42.3008 17.2233 42.3008 18C42.3008 18.7767 41.7096 19.4155 40.9531 19.4922L40.8008 19.5H40.6992V22.9141C41.4115 22.9832 42.0814 23.2982 42.5918 23.8086C43.1729 24.3898 43.4999 25.1781 43.5 26V40.4004C43.4999 41.2223 43.1729 42.0106 42.5918 42.5918C42.0105 43.1729 41.2223 43.4999 40.4004 43.5H7.59961C6.7777 43.4999 5.98945 43.1729 5.4082 42.5918C4.82708 42.0106 4.50013 41.2223 4.5 40.4004V26C4.5001 25.1781 4.82709 24.3898 5.4082 23.8086C5.91861 23.2982 6.58848 22.9832 7.30078 22.9141V19.5H7.19922C6.37079 19.5 5.69922 18.8284 5.69922 18C5.69922 17.1716 6.37079 16.5 7.19922 16.5H18L18.1523 16.5078ZM10.3008 22.9004H14.9004V19.5H10.3008V22.9004ZM33.0996 22.9004H37.6992V19.5H33.0996V22.9004Z" fill="#FAFAFA"/>
<path fill-rule="evenodd" clip-rule="evenodd" d="M25.1133 21.3477C25.5422 20.9189 26.1877 20.7895 26.748 21.0215C27.3081 21.2536 27.6735 21.8019 27.6738 22.4082L27.6777 27.4258H29.2246C29.6264 27.4281 30.0199 27.5495 30.3535 27.7734C30.687 27.9977 30.9476 28.3163 31.1016 28.6875C31.2555 29.059 31.2979 29.4686 31.2207 29.8633C31.1434 30.258 30.9506 30.6221 30.668 30.9082L30.6602 30.9141L22.8867 38.6797C22.4577 39.1079 21.812 39.2358 21.252 39.0039C20.6918 38.7716 20.3262 38.2236 20.3262 37.6172V32.5996H18.7617C18.3609 32.5928 17.9692 32.4669 17.6387 32.2402C17.3085 32.0134 17.0528 31.6935 16.9023 31.3223C16.7519 30.9507 16.7135 30.5433 16.793 30.1504C16.8724 29.7578 17.065 29.3971 17.3477 29.1133L25.1133 21.3477ZM21.1035 29.5996H21.8262C22.6543 29.5999 23.3262 30.2714 23.3262 31.0996V34L26.9043 30.4258H26.1777C25.3498 30.4258 24.6784 29.7556 24.6777 28.9277L24.6758 26.0254L21.1035 29.5996Z" fill="#FAFAFA"/>
<path d="M18.1523 11.707C18.9086 11.7837 19.4996 12.4228 19.5 13.1992C19.5 13.9759 18.9088 14.6147 18.1523 14.6914L18 14.6992H7.19922C6.37079 14.6992 5.69922 14.0276 5.69922 13.1992C5.69961 12.3711 6.37104 11.6992 7.19922 11.6992H18L18.1523 11.707Z" fill="#FAFAFA"/>
<path d="M40.9531 11.707C41.7094 11.7837 42.3004 12.4228 42.3008 13.1992C42.3008 13.9759 41.7096 14.6147 40.9531 14.6914L40.8008 14.6992H30C29.1716 14.6992 28.5 14.0276 28.5 13.1992C28.5004 12.3711 29.1718 11.6992 30 11.6992H40.8008L40.9531 11.707Z" fill="#FAFAFA"/>
<path d="M12.4004 4.5C13.2288 4.5 13.9004 5.17157 13.9004 6V6.90039H18L18.1523 6.9082C18.9088 6.98493 19.5 7.62368 19.5 8.40039C19.4998 9.1769 18.9087 9.81589 18.1523 9.89258L18 9.90039H7.19922C6.37095 9.90039 5.69948 9.22859 5.69922 8.40039C5.69922 7.57196 6.37079 6.90039 7.19922 6.90039H10.9004V6C10.9004 5.17157 11.572 4.5 12.4004 4.5Z" fill="#FAFAFA"/>
<path d="M35.5996 4.5C36.428 4.5 37.0996 5.17157 37.0996 6V6.90039H40.8008L40.9531 6.9082C41.7096 6.98493 42.3008 7.62368 42.3008 8.40039C42.3005 9.1769 41.7095 9.81589 40.9531 9.89258L40.8008 9.90039H30C29.1717 9.90039 28.5003 9.22859 28.5 8.40039C28.5 7.57196 29.1716 6.90039 30 6.90039H34.0996V6C34.0996 5.17157 34.7712 4.5 35.5996 4.5Z" fill="#FAFAFA"/>
</svg>
