<svg width="48" height="48" viewBox="0 0 48 48" fill="none" xmlns="http://www.w3.org/2000/svg">
<path fill-rule="evenodd" clip-rule="evenodd" d="M9.5 11C8.11929 11 7 12.1193 7 13.5V18H12.7703L14.1703 11H9.5ZM17.2297 11L15.8297 18H21.7703L23.1703 11H17.2297ZM26.2297 11L24.8297 18H30.8288L32.5788 11H26.2297ZM35.6712 11L33.9212 18H41V13.5C41 12.1193 39.8807 11 38.5 11H35.6712ZM41 21H7V34.5C7 35.8807 8.11929 37 9.5 37H38.5C39.8807 37 41 35.8807 41 34.5V21ZM4 13.5C4 10.4624 6.46243 8 9.5 8H38.5C41.5376 8 44 10.4624 44 13.5V34.5C44 37.5376 41.5376 40 38.5 40H9.5C6.46243 40 4 37.5376 4 34.5V13.5Z" fill="#FAFAFA"/>
</svg>
