<svg width="48" height="48" viewBox="0 0 48 48" fill="none" xmlns="http://www.w3.org/2000/svg">
<path d="M5.2692 37.5C6.09727 37.5004 6.7692 38.1718 6.7692 39C6.7692 39.8282 6.09727 40.4996 5.2692 40.5H5.24967C4.42155 40.4996 3.74967 39.8282 3.74967 39C3.74967 38.1718 4.42155 37.5004 5.24967 37.5H5.2692Z" fill="#FAFAFA"/>
<path d="M3.77506 31.2246C3.92703 30.4108 4.71111 29.8742 5.52506 30.0254C7.68365 30.4276 9.66964 31.4748 11.2223 33.0273C12.775 34.5801 13.8221 36.5659 14.2243 38.7246C14.3759 39.5388 13.8391 40.3226 13.0251 40.4746C12.2111 40.6258 11.427 40.0892 11.2751 39.2754C10.9839 37.712 10.2257 36.2729 9.10123 35.1484C7.97676 34.0241 6.53756 33.2658 4.97428 32.9746C4.16066 32.8223 3.62354 32.0385 3.77506 31.2246Z" fill="#FAFAFA"/>
<path d="M5.40787 22.5078C9.58778 22.9514 13.4903 24.815 16.4626 27.7871C19.4349 30.7594 21.2983 34.6618 21.7419 38.8418C21.8292 39.6655 21.2316 40.4048 20.4079 40.4922C19.5844 40.5791 18.8449 39.9817 18.7575 39.1582C18.3863 35.6607 16.8285 32.3952 14.3415 29.9082C11.8545 27.4214 8.58886 25.8634 5.09147 25.4922C4.26808 25.4045 3.67021 24.6653 3.75748 23.8418C3.84488 23.0183 4.58439 22.4209 5.40787 22.5078Z" fill="#FAFAFA"/>
<path d="M38.9997 7.5C40.3919 7.5 41.728 8.05275 42.7126 9.03711C43.6971 10.0217 44.2497 11.3576 44.2497 12.75V35.25C44.2497 36.6424 43.6971 37.9783 42.7126 38.9629C41.728 39.9472 40.3919 40.5 38.9997 40.5H27.7497C26.9215 40.4996 26.2497 39.8282 26.2497 39C26.2497 38.1718 26.9215 37.5004 27.7497 37.5H38.9997C39.5963 37.5 40.1695 37.2635 40.5915 36.8418C41.0134 36.4198 41.2497 35.8467 41.2497 35.25V12.75C41.2497 12.1533 41.0134 11.5802 40.5915 11.1582C40.1695 10.7365 39.5963 10.5 38.9997 10.5H8.99967C8.40317 10.5002 7.82967 10.7364 7.40787 11.1582C6.98612 11.5801 6.74967 12.1534 6.74967 12.75V16.5C6.74967 17.3284 6.0781 18 5.24967 18C4.42155 17.9996 3.74967 17.3282 3.74967 16.5V12.75C3.74967 11.3578 4.30242 10.0216 5.28678 9.03711C6.27119 8.0527 7.60752 7.50018 8.99967 7.5H38.9997Z" fill="#FAFAFA"/>
</svg>
