<svg width="48" height="48" viewBox="0 0 48 48" fill="none" xmlns="http://www.w3.org/2000/svg">
<path d="M15 17C15 13.7678 15.9589 10.7604 17.6055 8.24609C11.3861 10.773 7 16.8734 7 24C7 33.3888 14.6112 41 24 41V44L22.9707 43.9746C12.7442 43.4562 4.54381 35.2557 4.02539 25.0293L4 24C4 12.9543 12.9543 4 24 4C24.9251 4 25.0784 5.38629 24.2871 5.86523L23.5957 6.31445C20.2144 8.66184 18 12.572 18 17L18.0176 17.6699C18.355 24.3165 23.6835 29.645 30.3301 29.9824L31 30C35.723 30 39.8582 27.4805 42.1348 23.7129C42.6138 22.9217 44 23.0749 44 24L43.9746 25.0293C43.4389 35.5966 34.7004 44 24 44V41C31.1269 41 37.2252 36.6124 39.752 30.3926C37.2378 32.0389 34.232 33 31 33C22.1633 33 15 25.8367 15 17Z" fill="#FAFAFA"/>
</svg>
