<svg width="48" height="48" viewBox="0 0 48 48" fill="none" xmlns="http://www.w3.org/2000/svg">
<path fill-rule="evenodd" clip-rule="evenodd" d="M18.1582 13.9316C18.5097 13.3608 19.1986 13.0916 19.8438 13.2734C20.4892 13.4561 20.9352 14.046 20.9355 14.7168V20.6426H22.3047C22.6171 20.6427 22.9267 20.706 23.2129 20.8262L23.4922 20.9648L23.748 21.1406C23.911 21.268 24.0576 21.4165 24.1816 21.582L24.3516 21.8438L24.4844 22.125C24.5984 22.4133 24.6548 22.7231 24.6484 23.0352C24.6397 23.4519 24.5191 23.8598 24.3008 24.2148L18.2383 34.0684C17.8865 34.6395 17.1982 34.9072 16.5527 34.7246C15.9074 34.5416 15.4609 33.9521 15.4609 33.2812V27.3555H14.0918C13.6753 27.3555 13.2656 27.2438 12.9062 27.0332C12.5472 26.8224 12.2502 26.5196 12.0469 26.1562C11.8436 25.7924 11.7392 25.3796 11.748 24.9629L11.7754 24.6523C11.8232 24.3456 11.9318 24.0493 12.0957 23.7832L18.1582 13.9316ZM15.2656 24.3555H16.9609C17.789 24.3555 18.4604 25.0275 18.4609 25.8555V27.9805L21.1309 23.6426H19.4355C18.6077 23.642 17.9355 22.9706 17.9355 22.1426V20.0156L15.2656 24.3555Z" fill="#FAFAFA"/>
<path fill-rule="evenodd" clip-rule="evenodd" d="M24.5 6C27.5372 6.00026 29.9997 8.46282 30 11.5V18H31.5C34.5372 18.0003 36.9997 20.4628 37 23.5V31C37.0003 32.1042 37.8958 32.9997 39 33C40.1042 32.9997 40.9997 32.1042 41 31V17.7812C40.9999 17.0732 40.6998 16.3978 40.1738 15.9238L36.4961 12.6152C35.8808 12.0613 35.8315 11.1138 36.3848 10.498C36.939 9.88228 37.8881 9.83253 38.5039 10.3867L42.1797 13.6934C43.3384 14.7363 43.9999 16.2224 44 17.7812V31C43.9997 33.761 41.761 35.9997 39 36C36.239 35.9997 34.0003 33.761 34 31V23.5C33.9997 22.1197 32.8803 21.0003 31.5 21H30V39H30.5C31.3282 39.0003 32 39.6717 32 40.5C32 41.3283 31.3282 41.9997 30.5 42H5.5C4.67157 42 4 41.3284 4 40.5C4 39.6716 4.67157 39 5.5 39H6V11.5C6.00026 8.46266 8.4626 6 11.5 6H24.5ZM11.5 9C10.1195 9 9.00026 10.1195 9 11.5V39H27V11.5C26.9997 10.1197 25.8803 9.00026 24.5 9H11.5Z" fill="#FAFAFA"/>
</svg>
