<svg width="48" height="48" viewBox="0 0 48 48" fill="none" xmlns="http://www.w3.org/2000/svg">
<path d="M2.5 10V4L2.50781 3.8457C2.58506 3.08976 3.22367 2.5 4 2.5H10L10.1543 2.50781C10.9102 2.58506 11.5 3.22367 11.5 4C11.5 4.77633 10.9102 5.41494 10.1543 5.49219L10 5.5H5.5V10C5.5 10.8284 4.82843 11.5 4 11.5C3.17157 11.5 2.5 10.8284 2.5 10Z" fill="#FAFAFA"/>
<path d="M29 24C29 21.2385 26.7615 19 24 19C21.2385 19 19 21.2385 19 24C19 26.7615 21.2385 29 24 29V32L23.5879 31.9902C19.4975 31.7827 16.2173 28.5025 16.0098 24.4121L16 24C16 19.5816 19.5816 16 24 16L24.4121 16.0098C28.639 16.2242 32 19.7199 32 24L31.9902 24.4121C31.7758 28.639 28.2801 32 24 32V29C26.7615 29 29 26.7615 29 24Z" fill="#FAFAFA"/>
<path d="M24 8.5C28.9058 8.5 32.9541 10.5406 36.377 13.3555C39.7739 16.1491 42.6418 19.7793 45.1875 23.084C45.5171 23.5119 45.5891 24.079 45.3887 24.5684L45.2852 24.7734C43.1048 28.3989 40.0502 32.0494 36.4355 34.8086C32.8248 37.5646 28.5609 39.5 24 39.5C19.4391 39.5 15.1752 37.5646 11.5645 34.8086C7.94978 32.0494 4.8951 28.3989 2.71484 24.7734C2.39664 24.2443 2.43569 23.5731 2.8125 23.084C5.35817 19.7793 8.22609 16.149 11.623 13.3555C15.0459 10.5406 19.0943 8.5 24 8.5ZM24 11.5C19.9983 11.5 16.6006 13.1445 13.5273 15.6719C10.6841 18.0102 8.19445 21.0391 5.82422 24.0918C7.78997 27.1496 10.3967 30.1429 13.3848 32.4238C16.6591 34.9231 20.2981 36.5 24 36.5C27.7019 36.5 31.3409 34.9231 34.6152 32.4238C37.603 30.1431 40.2081 27.1493 42.1738 24.0918C39.8038 21.0394 37.3156 18.0099 34.4727 15.6719C31.3994 13.1445 28.0018 11.5 24 11.5Z" fill="#FAFAFA"/>
<path d="M42.5 10V5.5H38C37.1716 5.5 36.5 4.82843 36.5 4C36.5 3.17157 37.1716 2.5 38 2.5H44L44.1543 2.50781C44.9102 2.58506 45.5 3.22367 45.5 4V10C45.5 10.8284 44.8284 11.5 44 11.5C43.1716 11.5 42.5 10.8284 42.5 10Z" fill="#FAFAFA"/>
<path d="M2.5 38C2.5 37.1716 3.17157 36.5 4 36.5C4.82843 36.5 5.5 37.1716 5.5 38V42.5H10L10.1543 42.5078C10.9102 42.5851 11.5 43.2237 11.5 44C11.5 44.7763 10.9102 45.4149 10.1543 45.4922L10 45.5H4C3.17157 45.5 2.5 44.8284 2.5 44V38Z" fill="#FAFAFA"/>
<path d="M42.5 38C42.5 37.1716 43.1716 36.5 44 36.5C44.8284 36.5 45.5 37.1716 45.5 38V44C45.5 44.8284 44.8284 45.5 44 45.5H38C37.1716 45.5 36.5 44.8284 36.5 44C36.5 43.1716 37.1716 42.5 38 42.5H42.5V38Z" fill="#FAFAFA"/>
</svg>
