<svg width="48" height="48" viewBox="0 0 48 48" fill="none" xmlns="http://www.w3.org/2000/svg">
<path fill-rule="evenodd" clip-rule="evenodd" d="M33 4.5C34.7239 4.5 36.3767 5.18531 37.5957 6.4043C38.8147 7.62328 39.5 9.27609 39.5 11C39.5 12.7239 38.8147 14.3767 37.5957 15.5957C36.737 16.4544 35.6625 17.0462 34.5 17.3223V19.7422C34.4999 22.7777 32.0432 25.2421 29.0039 25.2422H18.998C17.6183 25.2422 16.5 26.3605 16.5 27.7422V30.6758C17.6627 30.9518 18.7369 31.5455 19.5957 32.4043C20.8147 33.6233 21.5 35.2761 21.5 37C21.5 38.7239 20.8147 40.3767 19.5957 41.5957C18.3767 42.8147 16.7239 43.5 15 43.5C13.2761 43.5 11.6233 42.8147 10.4043 41.5957C9.18531 40.3767 8.5 38.7239 8.5 37C8.5 35.2761 9.18531 33.6233 10.4043 32.4043C11.2631 31.5455 12.3373 30.9518 13.5 30.6758V17.3223C12.3375 17.0462 11.263 16.4544 10.4043 15.5957C9.18531 14.3767 8.5 12.7239 8.5 11C8.5 9.27609 9.18531 7.62328 10.4043 6.4043C11.6233 5.18531 13.2761 4.5 15 4.5C16.7239 4.5 18.3767 5.18531 19.5957 6.4043C20.8147 7.62328 21.5 9.27609 21.5 11C21.5 12.7239 20.8147 14.3767 19.5957 15.5957C18.737 16.4544 17.6625 17.0462 16.5 17.3223V22.8457C17.2498 22.4622 18.0976 22.2422 18.998 22.2422H29.0039C30.3826 22.2421 31.4999 21.1246 31.5 19.7422V17.3223C30.3375 17.0462 29.263 16.4544 28.4043 15.5957C27.1853 14.3767 26.5 12.7239 26.5 11C26.5 9.27609 27.1853 7.62328 28.4043 6.4043C29.6233 5.18531 31.2761 4.5 33 4.5ZM15 33.5C14.0717 33.5 13.1818 33.869 12.5254 34.5254C11.869 35.1818 11.5 36.0717 11.5 37C11.5 37.9283 11.869 38.8182 12.5254 39.4746C13.1818 40.131 14.0717 40.5 15 40.5C15.9283 40.5 16.8182 40.131 17.4746 39.4746C18.131 38.8182 18.5 37.9283 18.5 37C18.5 36.0717 18.131 35.1818 17.4746 34.5254C16.8182 33.869 15.9283 33.5 15 33.5ZM15 7.5C14.0717 7.5 13.1818 7.86901 12.5254 8.52539C11.869 9.18177 11.5 10.0717 11.5 11C11.5 11.9283 11.869 12.8182 12.5254 13.4746C13.1818 14.131 14.0717 14.5 15 14.5C15.9283 14.5 16.8182 14.131 17.4746 13.4746C18.131 12.8182 18.5 11.9283 18.5 11C18.5 10.0717 18.131 9.18177 17.4746 8.52539C16.8182 7.86901 15.9283 7.5 15 7.5ZM33 7.5C32.0717 7.5 31.1818 7.86901 30.5254 8.52539C29.869 9.18177 29.5 10.0717 29.5 11C29.5 11.9283 29.869 12.8182 30.5254 13.4746C31.1818 14.131 32.0717 14.5 33 14.5C33.9283 14.5 34.8182 14.131 35.4746 13.4746C36.131 12.8182 36.5 11.9283 36.5 11C36.5 10.0717 36.131 9.18177 35.4746 8.52539C34.8182 7.86901 33.9283 7.5 33 7.5Z" fill="#FAFAFA"/>
</svg>
