<svg width="48" height="48" viewBox="0 0 48 48" fill="none" xmlns="http://www.w3.org/2000/svg">
<path d="M11.0918 24.7695C11.9202 24.7695 12.5918 25.4411 12.5918 26.2695V30.9629C12.5913 31.7909 11.9199 32.4629 11.0918 32.4629C10.2637 32.4629 9.59232 31.7909 9.5918 30.9629V26.2695C9.5918 25.4411 10.2634 24.7695 11.0918 24.7695Z" fill="#FAFAFA"/>
<path fill-rule="evenodd" clip-rule="evenodd" d="M23.9199 4.90039C24.7483 4.90039 25.4199 5.57196 25.4199 6.40039C25.4197 7.22859 24.7482 7.90039 23.9199 7.90039H9.52734C8.63488 7.90039 7.89844 8.63683 7.89844 9.5293V19.6055H30.4902C31.3184 19.6055 31.9899 20.2774 31.9902 21.1055V38.4707C31.99 41.0199 29.9106 43.0996 27.3613 43.0996H9.52734C6.97816 43.0996 4.8987 41.0198 4.89844 38.4707V21.1426C4.89815 21.1304 4.89648 21.1177 4.89648 21.1055C4.89649 21.0924 4.8981 21.0794 4.89844 21.0664V9.5293C4.89844 6.97998 6.97802 4.90039 9.52734 4.90039H23.9199ZM7.89844 38.4707C7.89871 39.363 8.63506 40.0996 9.52734 40.0996H27.3613C28.2537 40.0996 28.99 39.363 28.9902 38.4707V22.6055H7.89844V38.4707Z" fill="#FAFAFA"/>
<path d="M34.9629 14.1777H34.9746C35.5418 14.2248 35.9997 14.5057 36.2988 14.8047C36.6264 15.1324 36.9333 15.651 36.9336 16.2949C36.9334 16.9391 36.6266 17.4594 36.2988 17.7871C35.9994 18.0862 35.5405 18.3655 34.9727 18.4121L34.9629 18.4141L34.8086 18.4219L34.6543 18.4141L34.6426 18.4121C34.0758 18.3649 33.6175 18.086 33.3184 17.7871C32.9905 17.4593 32.6837 16.9389 32.6836 16.2949C32.6838 15.6513 32.9907 15.1325 33.3184 14.8047C33.6171 14.5059 34.0745 14.2254 34.6406 14.1777C34.6957 14.1716 34.7519 14.1699 34.8086 14.1699L34.9629 14.1777Z" fill="#FAFAFA"/>
<path d="M11.0918 11.7832C11.9201 11.7832 12.5915 12.455 12.5918 13.2832V16.4121C12.5918 17.2405 11.9202 17.9121 11.0918 17.9121C10.2634 17.9121 9.59181 17.2405 9.5918 16.4121V13.2832C9.59206 12.455 10.2635 11.7832 11.0918 11.7832Z" fill="#FAFAFA"/>
<path d="M30.4629 11.4805C32.8991 9.0442 36.8592 8.97496 39.1992 11.5273C39.7588 12.138 39.718 13.0868 39.1074 13.6465C38.4969 14.2059 37.548 14.165 36.9883 13.5547C35.8864 12.3527 33.9023 12.2833 32.584 13.6016C31.9983 14.187 31.0486 14.1869 30.4629 13.6016C29.8772 13.0158 29.8773 12.0663 30.4629 11.4805Z" fill="#FAFAFA"/>
<path d="M27.0996 8.03906C31.2957 3.84294 38.174 3.87356 42.4961 8.01562C43.0937 8.58881 43.1139 9.53875 42.541 10.1367C41.9679 10.7345 41.018 10.7543 40.4199 10.1816C37.2329 7.12757 32.2209 7.15993 29.2207 10.1602C28.6351 10.7452 27.6853 10.7451 27.0996 10.1602C26.514 9.57452 26.5143 8.62489 27.0996 8.03906Z" fill="#FAFAFA"/>
</svg>
