<svg width="48" height="48" viewBox="0 0 48 48" fill="none" xmlns="http://www.w3.org/2000/svg">
<path fill-rule="evenodd" clip-rule="evenodd" d="M18 2C18.8284 2 19.5 2.67157 19.5 3.5V6.5C19.5 7.32843 18.8284 8 18 8C17.1716 8 16.5 7.32843 16.5 6.5V3.5C16.5 2.67157 17.1716 2 18 2ZM5.43934 5.43934C6.02513 4.85355 6.97487 4.85355 7.56066 5.43934L10.5607 8.43934C11.1464 9.02513 11.1464 9.97487 10.5607 10.5607C9.97487 11.1464 9.02513 11.1464 8.43934 10.5607L5.43934 7.56066C4.85355 6.97487 4.85355 6.02513 5.43934 5.43934ZM25.1109 6.76777C27.2588 4.61988 30.7412 4.61988 32.8891 6.76776L41.2322 15.1109C43.3801 17.2588 43.3801 20.7412 41.2322 22.8891L36.5607 27.5607C35.9749 28.1464 35.0251 28.1464 34.4393 27.5607C33.8536 26.9749 33.8536 26.0251 34.4393 25.4393L39.1109 20.7678C40.0872 19.7915 40.0872 18.2085 39.1109 17.2322L30.7678 8.88908C29.7915 7.91278 28.2085 7.91278 27.2322 8.88909L22.5607 13.5607C21.9749 14.1464 21.0251 14.1464 20.4393 13.5607C19.8536 12.9749 19.8536 12.0251 20.4393 11.4393L25.1109 6.76777ZM2 18C2 17.1716 2.67157 16.5 3.5 16.5H6.5C7.32843 16.5 8 17.1716 8 18C8 18.8284 7.32843 19.5 6.5 19.5H3.5C2.67157 19.5 2 18.8284 2 18ZM13.5607 20.4393C14.1464 21.0251 14.1464 21.9749 13.5607 22.5607L8.88909 27.2322C7.91278 28.2085 7.91278 29.7915 8.88909 30.7678L17.2322 39.1109C18.2085 40.0872 19.7915 40.0872 20.7678 39.1109L25.4393 34.4393C26.0251 33.8536 26.9749 33.8536 27.5607 34.4393C28.1464 35.0251 28.1464 35.9749 27.5607 36.5607L22.8891 41.2322C20.7412 43.3801 17.2588 43.3801 15.1109 41.2322L6.76777 32.8891C4.61988 30.7412 4.61988 27.2588 6.76777 25.1109L11.4393 20.4393C12.0251 19.8536 12.9749 19.8536 13.5607 20.4393ZM40 30C40 29.1716 40.6716 28.5 41.5 28.5H44.5C45.3284 28.5 46 29.1716 46 30C46 30.8284 45.3284 31.5 44.5 31.5H41.5C40.6716 31.5 40 30.8284 40 30ZM37.4393 37.4393C38.0251 36.8536 38.9749 36.8536 39.5607 37.4393L42.5607 40.4393C43.1464 41.0251 43.1464 41.9749 42.5607 42.5607C41.9749 43.1464 41.0251 43.1464 40.4393 42.5607L37.4393 39.5607C36.8536 38.9749 36.8536 38.0251 37.4393 37.4393ZM30 40C30.8284 40 31.5 40.6716 31.5 41.5V44.5C31.5 45.3284 30.8284 46 30 46C29.1716 46 28.5 45.3284 28.5 44.5V41.5C28.5 40.6716 29.1716 40 30 40Z" fill="#FAFAFA"/>
</svg>
