<svg width="48" height="48" viewBox="0 0 48 48" fill="none" xmlns="http://www.w3.org/2000/svg">
<path fill-rule="evenodd" clip-rule="evenodd" d="M36 33.1924C36 39.8198 30.6274 45.1924 24 45.1924C17.3726 45.1924 12 39.8198 12 33.1924V23.1924C12 16.565 17.3726 11.1924 24 11.1924C30.6274 11.1924 36 16.565 36 23.1924V33.1924ZM24 42.1924C28.9706 42.1924 33 38.1629 33 33.1924V23.1924C33 18.2218 28.9706 14.1924 24 14.1924C19.0294 14.1924 15 18.2218 15 23.1924V33.1924C15 38.1629 19.0294 42.1924 24 42.1924ZM24 37.1924C23.1716 37.1924 22.5 36.5208 22.5 35.6924V30.6924C22.5 29.864 23.1716 29.1924 24 29.1924C24.8284 29.1924 25.5 29.864 25.5 30.6924V35.6924C25.5 36.5208 24.8284 37.1924 24 37.1924ZM31.2481 7.52443C30.7885 8.21372 29.8572 8.39998 29.168 7.94046L25.3868 5.41966C24.547 4.85982 23.453 4.85982 22.6132 5.41965L18.8321 7.94045C18.1428 8.39998 17.2115 8.21372 16.7519 7.52443C16.2924 6.83514 16.4787 5.90383 17.1679 5.44431L20.9491 2.9235C22.7966 1.69187 25.2034 1.69188 27.0508 2.9235L30.832 5.4443C31.5213 5.90383 31.7076 6.83514 31.2481 7.52443Z" fill="#FAFAFA"/>
</svg>
