<svg width="48" height="48" viewBox="0 0 48 48" fill="none" xmlns="http://www.w3.org/2000/svg">
<path d="M30 40.5C30.8284 40.5 31.5 41.1716 31.5 42C31.5 42.8284 30.8284 43.5 30 43.5H18C17.1716 43.5 16.5 42.8284 16.5 42C16.5 41.1716 17.1716 40.5 18 40.5H30Z" fill="#FAFAFA"/>
<path fill-rule="evenodd" clip-rule="evenodd" d="M23.999 4.5C27.9771 4.5 31.7934 6.07977 34.6064 8.89258C37.4195 11.7056 38.999 15.5218 38.999 19.5C38.999 25.6434 40.3438 30.5194 41.3877 32.6172L41.5908 32.998L41.5928 33L41.7666 33.3516C41.9166 33.7136 41.9948 34.1036 41.9951 34.498C41.9955 35.0235 41.8567 35.5405 41.5947 35.9961C41.3327 36.4515 40.9553 36.8298 40.501 37.0938C40.0464 37.3578 39.5305 37.4981 39.0049 37.5H8.99121C8.46623 37.4968 7.95057 37.3563 7.49707 37.0918C7.04352 36.8272 6.66644 36.4477 6.40528 35.9922C6.14436 35.5369 6.0081 35.0208 6.00879 34.4961C6.00959 33.971 6.14858 33.4547 6.41114 33L6.61426 32.6172C7.65669 30.5188 8.99903 25.6415 8.99903 19.5C8.99903 15.5218 10.5805 11.7056 13.3936 8.89258C16.2064 6.08009 20.0213 4.5002 23.999 4.5ZM23.999 7.5C20.8167 7.5002 17.7649 8.76536 15.5147 11.0156C13.2644 13.266 11.999 16.3176 11.999 19.5C11.999 25.9483 10.6098 31.3467 9.27442 34.0059L9.00879 34.5H38.9932C37.5814 32.0598 35.999 26.3784 35.999 19.5C35.999 16.3177 34.7354 13.266 32.4854 11.0156C30.2349 8.76519 27.1816 7.5 23.999 7.5Z" fill="#FAFAFA"/>
</svg>
