<svg width="48" height="48" viewBox="0 0 48 48" fill="none" xmlns="http://www.w3.org/2000/svg">
<path fill-rule="evenodd" clip-rule="evenodd" d="M24.0117 15.6992C24.3865 15.6992 24.7449 15.8404 25.0195 16.0898L25.1523 16.2227C25.1631 16.2349 25.1778 16.2531 25.1973 16.2754C25.2364 16.3202 25.2926 16.3861 25.3633 16.4688C25.5045 16.6339 25.7047 16.8707 25.9434 17.1641C26.4199 17.7498 27.0577 18.5681 27.6992 19.4902C28.3372 20.4073 28.9984 21.4573 29.5059 22.5039C29.996 23.5149 30.4238 24.6848 30.4238 25.7969C30.4233 29.3379 27.5528 32.209 24.0117 32.209C20.4707 32.2088 17.6001 29.3378 17.5996 25.7969C17.5996 24.6849 18.0275 23.5148 18.5176 22.5039C19.025 21.4574 19.6863 20.4073 20.3242 19.4902C20.9656 18.5682 21.6036 17.7497 22.0801 17.1641C22.3186 16.8709 22.519 16.6339 22.6602 16.4688C22.7308 16.3862 22.787 16.3202 22.8262 16.2754C22.8457 16.253 22.8622 16.2349 22.873 16.2227C22.878 16.217 22.8818 16.2123 22.8848 16.209L23.0039 16.0898C23.2785 15.8403 23.6369 15.6993 24.0117 15.6992ZM24.0117 19.5586C23.6403 20.0309 23.2114 20.5932 22.7871 21.2031C22.1971 22.0513 21.6304 22.9595 21.2168 23.8125C20.7861 24.7009 20.5996 25.3741 20.5996 25.7969C20.6001 27.6809 22.1276 29.2088 24.0117 29.209C25.896 29.209 27.4233 27.681 27.4238 25.7969C27.4238 25.3741 27.2374 24.701 26.8066 23.8125C26.393 22.9595 25.8264 22.0514 25.2363 21.2031C24.812 20.5931 24.3832 20.031 24.0117 19.5586Z" fill="#FAFAFA"/>
<path fill-rule="evenodd" clip-rule="evenodd" d="M24 8C32.8366 8 40 15.1634 40 24C40 32.8366 32.8366 40 24 40C15.1634 40 8 32.8366 8 24C8 15.1634 15.1634 8 24 8ZM24 11C16.8203 11 11 16.8203 11 24C11 31.1797 16.8203 37 24 37C31.1797 37 37 31.1797 37 24C37 16.8203 31.1797 11 24 11Z" fill="#FAFAFA"/>
<path fill-rule="evenodd" clip-rule="evenodd" d="M38.3086 4.00781C41.4789 4.16843 44 6.78979 44 10V38L43.9922 38.3086C43.8368 41.3767 41.3767 43.8368 38.3086 43.9922L38 44H10L9.69141 43.9922C6.62332 43.8368 4.16325 41.3767 4.00781 38.3086L4 38V10C4 6.78979 6.52111 4.16843 9.69141 4.00781L10 4H38L38.3086 4.00781ZM10 7C8.34315 7 7 8.34315 7 10V38C7 39.6569 8.34315 41 10 41H38C39.6569 41 41 39.6569 41 38V10C41 8.34315 39.6569 7 38 7H10Z" fill="#FAFAFA"/>
</svg>
