<svg width="48" height="48" viewBox="0 0 48 48" fill="none" xmlns="http://www.w3.org/2000/svg">
<path fill-rule="evenodd" clip-rule="evenodd" d="M16.5996 4.00024C18.6329 4.00024 20.5837 4.80858 22.0215 6.24634C22.7918 7.01683 23.3788 7.93522 23.7598 8.93384H25.2344C27.0503 8.93397 28.8496 9.29174 30.5273 9.98657C32.205 10.6816 33.7315 11.7006 35.0156 12.9846C36.2998 14.269 37.3206 15.7949 38.0156 17.4729C38.7106 19.151 39.0684 20.9515 39.0684 22.7678V41.0002H42.502C43.3296 41.0012 44.002 41.6724 44.002 42.5002C44.0016 43.3277 43.3293 43.9993 42.502 44.0002H30.168C29.3398 44.0002 28.6684 43.3283 28.668 42.5002C28.668 41.6718 29.3395 41.0002 30.168 41.0002H36.0684V22.7678C36.0684 21.3455 35.7864 19.9355 35.2422 18.6213C34.698 17.3076 33.8999 16.1133 32.8945 15.1077C31.889 14.1021 30.6946 13.3025 29.3809 12.7581C28.0668 12.2138 26.6567 11.934 25.2344 11.9338H24.2656V14.0002C25.6884 15.0901 26.865 16.4727 27.7129 18.0588C28.6898 19.8866 29.2004 21.9277 29.1992 24.0002V25.2327C29.1992 26.0611 28.5276 26.7327 27.6992 26.7327H5.5C4.67157 26.7327 4 26.0611 4 25.2327V24.0002L4.02344 23.2249C4.13371 21.4209 4.63153 19.6582 5.48633 18.0588C6.33413 16.4727 7.51086 15.0901 8.93359 14.0002V11.6663C8.93374 9.63316 9.74206 7.68397 11.1797 6.24634C12.6174 4.80873 14.5665 4.00031 16.5996 4.00024ZM16.5996 7.00024C15.3621 7.00031 14.1759 7.49244 13.3008 8.36743C12.4258 9.24245 11.9337 10.4288 11.9336 11.6663V14.7698C11.9336 15.2711 11.6826 15.7396 11.2656 16.0178C9.95278 16.894 8.87692 18.0809 8.13281 19.4729C7.43054 20.7869 7.04821 22.2458 7.00781 23.7327H26.1914C26.151 22.2458 25.7706 20.7868 25.0684 19.4729C24.3242 18.0805 23.2468 16.8942 21.9336 16.0178C21.5166 15.7396 21.2656 15.2711 21.2656 14.7698V11.6663C21.2655 10.4291 20.775 9.2424 19.9004 8.36743C19.0252 7.49228 17.8373 7.00024 16.5996 7.00024Z" fill="#FAFAFA"/>
</svg>
