<svg width="48" height="48" viewBox="0 0 48 48" fill="none" xmlns="http://www.w3.org/2000/svg">
<path fill-rule="evenodd" clip-rule="evenodd" d="M24 7C14.6112 7 7 14.6112 7 24C7 33.3888 14.6112 41 24 41C33.3888 41 41 33.3888 41 24C41 14.6112 33.3888 7 24 7ZM4 24C4 12.9543 12.9543 4 24 4C35.0457 4 44 12.9543 44 24C44 35.0457 35.0457 44 24 44C12.9543 44 4 35.0457 4 24ZM24 14C24.8284 14 25.5 14.6716 25.5 15.5V23.3787L30.5607 28.4393C31.1464 29.0251 31.1464 29.9749 30.5607 30.5607C29.9749 31.1464 29.0251 31.1464 28.4393 30.5607L22.9393 25.0607C22.658 24.7794 22.5 24.3978 22.5 24V15.5C22.5 14.6716 23.1716 14 24 14Z" fill="#FAFAFA"/>
</svg>
