<svg width="48" height="48" viewBox="0 0 48 48" fill="none" xmlns="http://www.w3.org/2000/svg">
<path d="M24.625 2.36472C24.1482 1.97449 23.484 1.88956 22.9219 2.14793C22.3597 2.40655 22 2.96202 22 3.57176V6.0991C11.8934 7.10258 4.00007 15.6289 4 25.9995C4 37.0452 12.9543 45.9995 24 45.9995C35.0457 45.9995 44 37.0452 44 25.9995C44 20.7066 41.9426 15.8901 38.5859 12.3139C38.019 11.7101 37.0688 11.6807 36.4648 12.2475C35.8608 12.8145 35.8315 13.7646 36.3984 14.3686C39.2535 17.4107 41 21.4995 41 25.9995C41 35.3883 33.3888 42.9995 24 42.9995C14.6112 42.9995 7 35.3883 7 25.9995C7.00007 17.2874 13.5537 10.1066 22 9.11668V11.4272C22 12.037 22.3597 12.5924 22.9219 12.8511C23.484 13.1095 24.1482 13.0265 24.625 12.6362L29.4238 8.70652C29.7886 8.40796 30 7.96586 30 7.49949C30 7.03317 29.7886 6.59099 29.4238 6.29246L24.625 2.36472Z" fill="#FAFAFA"/>
<path fill-rule="evenodd" clip-rule="evenodd" d="M30.5625 19.0166C31.4814 19.0167 32.2854 19.1915 32.9746 19.54C33.672 19.8887 34.2513 20.4073 34.7109 21.0967C35.1785 21.7782 35.5298 22.6196 35.7676 23.6182C36.0052 24.6085 36.125 25.745 36.125 27.0283C36.125 28.32 36.0053 29.4616 35.7676 30.4521C35.5299 31.4424 35.1783 32.2786 34.7109 32.96C34.2513 33.6335 33.672 34.1445 32.9746 34.4932C32.2853 34.8418 31.4815 35.0165 30.5625 35.0166C29.6432 35.0166 28.8379 34.8419 28.1484 34.4932C27.4592 34.1445 26.8815 33.6334 26.4141 32.96C25.9544 32.2784 25.6049 31.4427 25.3672 30.4521C25.1374 29.4616 25.0234 28.3238 25.0234 27.04C25.0235 25.749 25.1376 24.6084 25.3672 23.6182C25.6049 22.6196 25.9544 21.7782 26.4141 21.0967C26.8815 20.4077 27.4594 19.8886 28.1484 19.54C28.8379 19.1914 29.6432 19.0166 30.5625 19.0166ZM30.5625 21.7627C30.1267 21.7627 29.7657 21.8977 29.4805 22.167C29.1953 22.4364 28.9691 22.8127 28.8027 23.2959C28.6364 23.7791 28.5166 24.3418 28.4453 24.9834C28.3819 25.6172 28.3516 26.2994 28.3516 27.0283C28.3516 27.7494 28.3819 28.4314 28.4453 29.0732C28.5166 29.7071 28.6364 30.2657 28.8027 30.749C28.9691 31.2244 29.1952 31.5968 29.4805 31.8662C29.7658 32.1357 30.1266 32.2705 30.5625 32.2705C31.006 32.2704 31.3711 32.1355 31.6562 31.8662C31.9491 31.5968 32.1756 31.2241 32.334 30.749C32.5003 30.2658 32.6144 29.7069 32.6777 29.0732C32.749 28.4314 32.7852 27.7494 32.7852 27.0283C32.7851 26.2994 32.749 25.6172 32.6777 24.9834C32.6143 24.3418 32.5003 23.7791 32.334 23.2959C32.1756 22.8127 31.9492 22.4364 31.6562 22.167C31.3711 21.8977 31.006 21.7628 30.5625 21.7627Z" fill="#FAFAFA"/>
<path d="M17.6055 19.0166C18.5399 19.0167 19.4033 19.1631 20.1953 19.4561C20.9877 19.7413 21.6222 20.1897 22.0977 20.7998C22.5811 21.4021 22.8223 22.1789 22.8223 23.1299C22.8223 24.0887 22.5811 24.8504 22.0977 25.4131C21.6222 25.9675 20.9761 26.3591 20.1602 26.5889C21.0477 26.7711 21.7847 27.1681 22.3711 27.7783C22.9573 28.3805 23.2499 29.2357 23.25 30.3447C23.25 31.3512 23.0202 32.204 22.5605 32.9014C22.1089 33.5905 21.4628 34.1132 20.623 34.4697C19.7912 34.8261 18.7972 35.0048 17.6406 35.0049C15.8101 35.0049 14.3912 34.5851 13.3848 33.7451C12.3783 32.9051 11.875 31.6325 11.875 29.9287H14.8945C14.8945 30.7133 15.1319 31.3287 15.6074 31.7725C16.0908 32.2081 16.7653 32.4248 17.6289 32.4248C18.4132 32.4247 19.008 32.2386 19.4121 31.8662C19.8236 31.4939 20.0292 30.9079 20.0293 30.1084C20.0293 29.3319 19.7766 28.7676 19.2695 28.4189C18.7623 28.0703 18.1108 27.8975 17.3184 27.8975H16.3555V25.4248H17.4141C18.1273 25.4248 18.7028 25.2425 19.1387 24.8779C19.5745 24.5055 19.791 24.0173 19.791 23.415C19.791 22.797 19.5973 22.3411 19.209 22.0479C18.8288 21.7549 18.2982 21.6085 17.6172 21.6084C16.8802 21.6084 16.3085 21.7983 15.9043 22.1787C15.5083 22.551 15.3107 23.0701 15.3105 23.7354H12.291C12.2911 22.6579 12.5247 21.7743 12.9922 21.085C13.4677 20.3877 14.1059 19.8691 14.9062 19.5283C15.7066 19.1876 16.607 19.0166 17.6055 19.0166Z" fill="#FAFAFA"/>
</svg>
