<svg width="48" height="48" viewBox="0 0 48 48" fill="none" xmlns="http://www.w3.org/2000/svg">
<path fill-rule="evenodd" clip-rule="evenodd" d="M23.5 4.58606C23.8776 4.45251 24.2962 4.47421 24.6602 4.65247C30.2102 7.37284 35.2296 12.2779 37.961 17.8927L38.0469 18.088C38.4334 19.0632 38.1898 20.0632 37.6094 20.7697C37.0129 21.495 36.087 21.9064 35.1055 21.9064H33.5078C33.457 21.9064 33.417 21.912 33.3868 21.92C36.3311 25.1487 38.4135 28.1009 41.1114 32.672L41.2832 33.0138C41.6238 33.8193 41.5506 34.6938 41.1504 35.4122C40.7583 36.1158 40.0876 36.62 39.2969 36.8439L38.9512 36.924C36.0454 37.4263 30.5106 38.2828 25.6739 38.4591V44.0001C25.6738 44.8284 25.0022 45.5 24.1739 45.5001C23.3455 45.5001 22.6739 44.8285 22.6739 44.0001V38.4708C18.4281 38.3445 13.574 37.6669 10.4121 37.1525L9.04886 36.924C8.1094 36.7616 7.29782 36.2163 6.84964 35.4122C6.39222 34.5909 6.36168 33.565 6.8887 32.672L7.8848 31.0118C10.126 27.35 12.0397 24.7401 14.6114 21.92C14.5813 21.9123 14.542 21.9064 14.4922 21.9064H12.8946C11.9127 21.9064 10.987 21.4936 10.3907 20.7677C9.77167 20.014 9.53558 18.928 10.0391 17.8927L10.5782 16.8478C13.4005 11.6728 18.1369 7.20273 23.3399 4.65247L23.5 4.58606ZM24 7.68763C19.3889 10.131 15.2394 14.2595 12.8907 18.9044L12.8946 18.9064H14.4922C15.7315 18.9064 16.8034 19.5477 17.3418 20.5353C17.8597 21.4858 17.8315 22.6919 17.084 23.6486L16.9258 23.8361C14.1544 26.8609 12.1948 29.6047 9.6055 33.9728C12.8577 34.5338 19.1315 35.493 24 35.4943L24.9317 35.4825C29.6428 35.3741 35.344 34.4987 38.3926 33.9728C36.1329 30.1606 34.3546 27.585 32.0957 24.9806L31.0743 23.8361C30.1746 22.8536 30.106 21.5489 30.6582 20.5353C31.1967 19.5477 32.2686 18.9065 33.5078 18.9064H35.1055L35.1075 18.9044C32.7586 14.2599 28.6109 10.1309 24 7.68763Z" fill="#FAFAFA"/>
</svg>
