<svg width="48" height="48" viewBox="0 0 48 48" fill="none" xmlns="http://www.w3.org/2000/svg">
<path d="M33.2148 22.7168C33.411 21.9123 34.2227 21.4195 35.0273 21.6152C37.6655 22.2572 39.9781 23.8431 41.5254 26.0742C42.0713 26.8614 42.505 27.7111 42.8281 28.5977C42.8383 28.6207 42.8465 28.6444 42.8555 28.668C43.4285 30.2742 43.6301 32.0034 43.4238 33.7227C43.1002 36.4184 41.8008 38.9034 39.7695 40.7051C37.7391 42.5058 35.1181 43.4978 32.4043 43.498L32.4004 43.5C29.8237 43.5084 27.3263 42.6093 25.3457 40.9609C24.709 40.4309 24.6223 39.4844 25.1523 38.8477C25.6825 38.2119 26.6273 38.1265 27.2637 38.6562C28.7037 39.8548 30.521 40.5071 32.3945 40.5H32.4004C34.3814 40.5005 36.2951 39.7752 37.7773 38.4609C38.2384 38.052 38.6475 37.5946 39 37.0996H32C31.1716 37.0996 30.5 36.428 30.5 35.5996C30.5003 34.7714 31.1717 34.0996 32 34.0996H40.3223C40.3742 33.8577 40.4156 33.6127 40.4453 33.3652C40.5529 32.469 40.5064 31.5694 40.3203 30.7012H34.8008C33.9727 30.7012 33.3013 30.0291 33.3008 29.2012C33.3008 28.3727 33.9724 27.7012 34.8008 27.7012H39C37.8715 26.1174 36.2101 24.9896 34.3184 24.5293C33.5134 24.3335 33.019 23.5217 33.2148 22.7168Z" fill="#FAFAFA"/>
<path fill-rule="evenodd" clip-rule="evenodd" d="M18 4.5C18.8284 4.5 19.5 5.17157 19.5 6V11.7852C22.5287 12.1235 25.3713 13.4787 27.5469 15.6543C28.3625 16.47 29.062 17.3796 29.6367 18.3574C29.6777 18.4174 29.7121 18.4811 29.7441 18.5469C30.8835 20.559 31.5 22.8483 31.5 25.2012C31.4998 27.5466 30.8846 29.8265 29.752 31.834C29.7184 31.9053 29.6826 31.9744 29.6387 32.0391C29.0634 33.0185 28.3637 33.9312 27.5469 34.748C25.0152 37.2795 21.5802 38.7012 18 38.7012C14.4198 38.7012 10.9848 37.2795 8.45312 34.748C7.64214 33.9371 6.94594 33.0319 6.37305 32.0605C6.31221 31.974 6.25845 31.8819 6.2168 31.7832C5.10289 29.7884 4.50017 27.5264 4.5 25.2012C4.5 22.8483 5.11652 20.559 6.25586 18.5469C6.29111 18.4745 6.32708 18.4032 6.37305 18.3379C6.94567 17.3672 7.64275 16.4648 8.45312 15.6543C10.6287 13.4787 13.4713 12.1235 16.5 11.7852V6C16.5 5.17157 17.1716 4.5 18 4.5ZM10.6562 32.7012C12.6175 34.6214 15.2523 35.7012 18 35.7012C20.7477 35.7012 23.3825 34.6214 25.3438 32.7012H10.6562ZM7.60938 26.7012C7.76022 27.7447 8.06662 28.7555 8.51562 29.7012H27.4844C27.9334 28.7555 28.2398 27.7447 28.3906 26.7012H7.60938ZM8.51562 20.7012C8.06676 21.647 7.76003 22.6575 7.60938 23.7012H28.3906C28.24 22.6575 27.9332 21.647 27.4844 20.7012H8.51562ZM18 14.7012C15.2519 14.7012 12.6176 15.7804 10.6562 17.7012H25.3438C23.3824 15.7804 20.7481 14.7012 18 14.7012Z" fill="#FAFAFA"/>
<path d="M32.4004 4.5C33.2288 4.5 33.9004 5.17157 33.9004 6V15.5996C33.9004 16.428 33.2288 17.0996 32.4004 17.0996C31.572 17.0996 30.9004 16.428 30.9004 15.5996V6C30.9004 5.17157 31.572 4.5 32.4004 4.5Z" fill="#FAFAFA"/>
</svg>
