<svg width="48" height="48" viewBox="0 0 48 48" fill="none" xmlns="http://www.w3.org/2000/svg">
<path d="M38.5 37.1992C38.5 36.6149 38.4996 36.266 38.4785 36.0078C38.4588 35.7677 38.4286 35.7407 38.4453 35.7734C38.3974 35.6794 38.3206 35.6026 38.2266 35.5547C38.2593 35.5714 38.2323 35.5412 37.9922 35.5215C37.734 35.5004 37.3851 35.5 36.8008 35.5H35.1992C34.6149 35.5 34.266 35.5004 34.0078 35.5215C33.7677 35.5412 33.7407 35.5714 33.7734 35.5547C33.6794 35.6026 33.6026 35.6794 33.5547 35.7734C33.5714 35.7407 33.5412 35.7677 33.5215 36.0078C33.5004 36.266 33.5 36.6149 33.5 37.1992V38.8008C33.5 39.3851 33.5004 39.734 33.5215 39.9922C33.5412 40.2323 33.5714 40.2593 33.5547 40.2266C33.6026 40.3206 33.6794 40.3974 33.7734 40.4453C33.7407 40.4286 33.7677 40.4588 34.0078 40.4785C34.266 40.4996 34.6149 40.5 35.1992 40.5H36.8008C37.3851 40.5 37.734 40.4996 37.9922 40.4785C38.2323 40.4588 38.2593 40.4286 38.2266 40.4453C38.3206 40.3974 38.3974 40.3206 38.4453 40.2266C38.4286 40.2593 38.4588 40.2323 38.4785 39.9922C38.4996 39.734 38.5 39.3851 38.5 38.8008V37.1992ZM17.4961 11.5C17.4926 11.7656 17.485 12.0136 17.4668 12.2363C17.4319 12.6624 17.3537 13.1295 17.1191 13.5898C16.7836 14.2481 16.2481 14.7836 15.5898 15.1191C15.1295 15.3537 14.6624 15.4319 14.2363 15.4668C14.0251 15.4841 13.7911 15.4924 13.541 15.4961L10.4941 32.5605C10.847 32.6062 11.2208 32.6928 11.5898 32.8809C12.2481 33.2164 12.7836 33.7519 13.1191 34.4102C13.3537 34.8705 13.4319 35.3376 13.4668 35.7637C13.485 35.9864 13.4926 36.2344 13.4961 36.5H30.5039C30.5074 36.2344 30.515 35.9864 30.5332 35.7637C30.5681 35.3376 30.6463 34.8705 30.8809 34.4102C31.2164 33.7519 31.7519 33.2164 32.4102 32.8809C32.8705 32.6463 33.3376 32.5681 33.7637 32.5332C34.1722 32.4998 34.6642 32.5 35.1992 32.5H35.2695L37.7031 15.459C37.2937 15.4215 36.8487 15.3426 36.4102 15.1191C35.7519 14.7836 35.2164 14.2481 34.8809 13.5898C34.6463 13.1295 34.5681 12.6624 34.5332 12.2363C34.515 12.0136 34.5074 11.7656 34.5039 11.5H17.4961ZM5.5 38.8008C5.5 39.3851 5.50039 39.734 5.52148 39.9922C5.54115 40.2323 5.57138 40.2593 5.55469 40.2266C5.60262 40.3206 5.67935 40.3974 5.77344 40.4453C5.74068 40.4286 5.76769 40.4588 6.00781 40.4785C6.26595 40.4996 6.61489 40.5 7.19922 40.5H8.80078C9.38511 40.5 9.73405 40.4996 9.99219 40.4785C10.2323 40.4588 10.2593 40.4286 10.2266 40.4453C10.3206 40.3974 10.3974 40.3206 10.4453 40.2266C10.4286 40.2593 10.4588 40.2323 10.4785 39.9922C10.4996 39.734 10.5 39.3851 10.5 38.8008V37.1992C10.5 36.6149 10.4996 36.266 10.4785 36.0078C10.4588 35.7677 10.4286 35.7407 10.4453 35.7734C10.3974 35.6794 10.3206 35.6026 10.2266 35.5547C10.2593 35.5714 10.2323 35.5412 9.99219 35.5215C9.73405 35.5004 9.38511 35.5 8.80078 35.5H7.19922C6.61489 35.5 6.26595 35.5004 6.00781 35.5215C5.76769 35.5412 5.74068 35.5714 5.77344 35.5547C5.67935 35.6026 5.60262 35.6794 5.55469 35.7734C5.57138 35.7407 5.54115 35.7677 5.52148 36.0078C5.50039 36.266 5.5 36.6149 5.5 37.1992V38.8008ZM42.5 9.19922C42.5 8.61489 42.4996 8.26595 42.4785 8.00781C42.4588 7.76769 42.4286 7.74068 42.4453 7.77344C42.3974 7.67935 42.3206 7.60262 42.2266 7.55469C42.2593 7.57138 42.2323 7.54115 41.9922 7.52148C41.734 7.50039 41.3851 7.5 40.8008 7.5H39.1992C38.6149 7.5 38.266 7.50039 38.0078 7.52148C37.7677 7.54115 37.7407 7.57138 37.7734 7.55469C37.6794 7.60262 37.6026 7.67935 37.5547 7.77344C37.5714 7.74068 37.5412 7.76769 37.5215 8.00781C37.5004 8.26595 37.5 8.61489 37.5 9.19922V10.8008C37.5 11.3851 37.5004 11.734 37.5215 11.9922C37.5412 12.2323 37.5714 12.2593 37.5547 12.2266C37.6026 12.3206 37.6794 12.3974 37.7734 12.4453C37.7407 12.4286 37.7677 12.4588 38.0078 12.4785C38.266 12.4996 38.6149 12.5 39.1992 12.5H40.8008C41.3851 12.5 41.734 12.4996 41.9922 12.4785C42.2323 12.4588 42.2593 12.4286 42.2266 12.4453C42.3206 12.3974 42.3974 12.3206 42.4453 12.2266C42.4286 12.2593 42.4588 12.2323 42.4785 11.9922C42.4996 11.734 42.5 11.3851 42.5 10.8008V9.19922ZM9.5 10.8008C9.5 11.3851 9.50039 11.734 9.52148 11.9922C9.54115 12.2323 9.57138 12.2593 9.55469 12.2266C9.60262 12.3206 9.67936 12.3974 9.77344 12.4453C9.74068 12.4286 9.76769 12.4588 10.0078 12.4785C10.266 12.4996 10.6149 12.5 11.1992 12.5H12.8008C13.3851 12.5 13.734 12.4996 13.9922 12.4785C14.2323 12.4588 14.2593 12.4286 14.2266 12.4453C14.3206 12.3974 14.3974 12.3206 14.4453 12.2266C14.4286 12.2593 14.4588 12.2323 14.4785 11.9922C14.4996 11.734 14.5 11.3851 14.5 10.8008V9.19922C14.5 8.61489 14.4996 8.26595 14.4785 8.00781C14.4588 7.76769 14.4286 7.74068 14.4453 7.77344C14.3974 7.67936 14.3206 7.60262 14.2266 7.55469C14.2593 7.57138 14.2323 7.54115 13.9922 7.52148C13.734 7.50039 13.3851 7.5 12.8008 7.5H11.1992C10.6149 7.5 10.266 7.50039 10.0078 7.52148C9.76769 7.54115 9.74068 7.57138 9.77344 7.55469C9.67936 7.60262 9.60262 7.67936 9.55469 7.77344C9.57138 7.74068 9.54115 7.76769 9.52148 8.00781C9.50039 8.26595 9.5 8.61489 9.5 9.19922V10.8008ZM45.5 10.8008C45.5 11.3358 45.5002 11.8278 45.4668 12.2363C45.4319 12.6624 45.3537 13.1295 45.1191 13.5898C44.7836 14.2481 44.2481 14.7836 43.5898 15.1191C43.1295 15.3537 42.6624 15.4319 42.2363 15.4668C41.8278 15.5002 41.3358 15.5 40.8008 15.5H40.7305L38.2949 32.5391C38.7049 32.5765 39.1505 32.657 39.5898 32.8809C40.2481 33.2164 40.7836 33.7519 41.1191 34.4102C41.3537 34.8705 41.4319 35.3376 41.4668 35.7637C41.5002 36.1722 41.5 36.6642 41.5 37.1992V38.8008C41.5 39.3358 41.5002 39.8278 41.4668 40.2363C41.4319 40.6624 41.3537 41.1295 41.1191 41.5898C40.7836 42.2481 40.2481 42.7836 39.5898 43.1191C39.1295 43.3537 38.6624 43.4319 38.2363 43.4668C37.8278 43.5002 37.3358 43.5 36.8008 43.5H35.1992C34.6642 43.5 34.1722 43.5002 33.7637 43.4668C33.3376 43.4319 32.8705 43.3537 32.4102 43.1191C31.7519 42.7836 31.2164 42.2481 30.8809 41.5898C30.6463 41.1295 30.5681 40.6624 30.5332 40.2363C30.515 40.0136 30.5074 39.7656 30.5039 39.5H13.4961C13.4926 39.7656 13.485 40.0136 13.4668 40.2363C13.4319 40.6624 13.3537 41.1295 13.1191 41.5898C12.7836 42.2481 12.2481 42.7836 11.5898 43.1191C11.1295 43.3537 10.6624 43.4319 10.2363 43.4668C9.82777 43.5002 9.33578 43.5 8.80078 43.5H7.19922C6.66422 43.5 6.17223 43.5002 5.76367 43.4668C5.33758 43.4319 4.87053 43.3537 4.41016 43.1191C3.75194 42.7836 3.21636 42.2481 2.88086 41.5898C2.64629 41.1295 2.56806 40.6624 2.5332 40.2363C2.49982 39.8278 2.5 39.3358 2.5 38.8008V37.1992C2.5 36.6642 2.49982 36.1722 2.5332 35.7637C2.56806 35.3376 2.64629 34.8705 2.88086 34.4102C3.21636 33.7519 3.75194 33.2164 4.41016 32.8809C4.87053 32.6463 5.33758 32.5681 5.76367 32.5332C6.17223 32.4998 6.66422 32.5 7.19922 32.5H7.45898L10.4941 15.4961C10.2307 15.4926 9.98477 15.4849 9.76367 15.4668C9.33758 15.4319 8.87053 15.3537 8.41016 15.1191C7.75194 14.7836 7.21635 14.2481 6.88086 13.5898C6.64629 13.1295 6.56806 12.6624 6.5332 12.2363C6.49982 11.8278 6.5 11.3358 6.5 10.8008V9.19922C6.5 8.66422 6.49982 8.17223 6.5332 7.76367C6.56806 7.33758 6.64629 6.87053 6.88086 6.41016C7.21635 5.75194 7.75194 5.21635 8.41016 4.88086C8.87053 4.64629 9.33758 4.56806 9.76367 4.5332C10.1722 4.49982 10.6642 4.5 11.1992 4.5H12.8008C13.3358 4.5 13.8278 4.49982 14.2363 4.5332C14.6624 4.56806 15.1295 4.64629 15.5898 4.88086C16.2481 5.21635 16.7836 5.75194 17.1191 6.41016C17.3537 6.87053 17.4319 7.33758 17.4668 7.76367C17.485 7.98641 17.4926 8.23437 17.4961 8.5H34.5039C34.5074 8.23437 34.515 7.98641 34.5332 7.76367C34.5681 7.33758 34.6463 6.87053 34.8809 6.41016C35.2164 5.75194 35.7519 5.21636 36.4102 4.88086C36.8705 4.64629 37.3376 4.56806 37.7637 4.5332C38.1722 4.49982 38.6642 4.5 39.1992 4.5H40.8008C41.3358 4.5 41.8278 4.49982 42.2363 4.5332C42.6624 4.56806 43.1295 4.64629 43.5898 4.88086C44.2481 5.21636 44.7836 5.75194 45.1191 6.41016C45.3537 6.87053 45.4319 7.33758 45.4668 7.76367C45.5002 8.17223 45.5 8.66422 45.5 9.19922V10.8008Z" fill="#FAFAFA"/>
</svg>
