<svg width="48" height="48" viewBox="0 0 48 48" fill="none" xmlns="http://www.w3.org/2000/svg">
<path fill-rule="evenodd" clip-rule="evenodd" d="M40.4688 6.10156C40.498 6.10255 40.5345 6.10445 40.5762 6.10742C40.6597 6.1134 40.7692 6.12333 40.8965 6.14453C41.1446 6.18589 41.4991 6.27112 41.8711 6.45703C42.249 6.64596 42.6723 6.95495 42.998 7.44336C43.3297 7.94102 43.4999 8.53733 43.5 9.19922V15.6289C43.4998 15.64 43.4985 15.6537 43.498 15.668C43.4971 15.6972 43.4952 15.7337 43.4922 15.7754C43.4862 15.8588 43.4762 15.9686 43.4551 16.0957C43.4137 16.3438 43.3283 16.6986 43.1426 17.0703C42.9536 17.4482 42.6447 17.8716 42.1562 18.1973C41.6584 18.529 41.0626 18.6992 40.4004 18.6992H39.6914L36.5898 39.377C36.4514 40.3009 35.9852 41.1442 35.2773 41.7539C34.5694 42.3635 33.6667 42.6994 32.7324 42.6992H15.2676C14.3332 42.6994 13.4288 42.3637 12.7207 41.7539C12.0133 41.1442 11.5465 40.3006 11.4082 39.377L8.30664 18.6992H7.53125C7.50198 18.6982 7.46552 18.6963 7.42383 18.6934C7.3403 18.6874 7.23086 18.6755 7.10352 18.6543C6.85528 18.6129 6.50094 18.5278 6.12891 18.3418C5.75115 18.1529 5.32758 17.8456 5.00195 17.3574C4.67011 16.8595 4.5 16.2619 4.5 15.5996V9.16992C4.50021 9.15888 4.50148 9.14499 4.50195 9.13086C4.50294 9.10168 4.50485 9.06488 4.50781 9.02344C4.5138 8.93999 4.52376 8.83016 4.54492 8.70312C4.58632 8.45494 4.67156 8.10029 4.85742 7.72852C5.04641 7.35067 5.35532 6.92719 5.84375 6.60156C6.34149 6.26997 6.93763 6.09968 7.59961 6.09961H40.4297C40.4408 6.09979 40.4544 6.10108 40.4688 6.10156ZM13.8613 35.5L14.375 38.9316C14.4068 39.1443 14.5152 39.3398 14.6777 39.4805C14.8409 39.621 15.0503 39.699 15.2656 39.6992H32.7324L32.8926 39.6855C33.05 39.6572 33.1977 39.5861 33.3203 39.4805C33.4835 39.3398 33.5912 39.1447 33.623 38.9316L34.1387 35.5H13.8613ZM13.4102 32.5H34.5879L35.2188 28.3008H12.7812L13.4102 32.5ZM12.332 25.3008H35.668L36.6582 18.6992H11.3418L12.332 25.3008ZM7.5293 9.10547C7.52046 9.13077 7.50961 9.16167 7.50391 9.19531C7.50032 9.21681 7.50025 9.23364 7.5 9.23828V15.5996C7.5 15.6277 7.50409 15.6504 7.50586 15.668C7.53138 15.6769 7.5616 15.6896 7.5957 15.6953C7.61796 15.699 7.63867 15.7012 7.63867 15.7012L7.63281 15.6992H40.4004C40.4288 15.6992 40.4511 15.6951 40.4688 15.6934C40.4777 15.6679 40.4904 15.6374 40.4961 15.6035C40.4997 15.5814 40.5 15.5605 40.5 15.5605V9.19922C40.4999 9.16994 40.494 9.14675 40.4922 9.12891C40.4671 9.12027 40.4373 9.10906 40.4043 9.10352C40.382 9.09981 40.3613 9.09961 40.3613 9.09961H7.59961C7.57023 9.09962 7.54721 9.10361 7.5293 9.10547Z" fill="#FAFAFA"/>
</svg>
