<svg width="48" height="48" viewBox="0 0 48 48" fill="none" xmlns="http://www.w3.org/2000/svg">
<path d="M40.5 28C41.3284 28 42 28.6716 42 29.5V36.5C42 39.5376 39.5376 42 36.5 42H11.5C8.46243 42 6 39.5376 6 36.5V29.5C6 28.6716 6.67157 28 7.5 28C8.32843 28 9 28.6716 9 29.5V36.5C9 37.8807 10.1193 39 11.5 39H36.5C37.8807 39 39 37.8807 39 36.5V29.5C39 28.6716 39.6716 28 40.5 28ZM24 6C24.3978 6.00001 24.7792 6.15815 25.0605 6.43945L32.0605 13.4395C32.6463 14.0252 32.6463 14.9748 32.0605 15.5605C31.4748 16.1463 30.5252 16.1463 29.9395 15.5605L25.5 11.1211V30C25.5 30.8284 24.8284 31.5 24 31.5C23.1716 31.5 22.5 30.8284 22.5 30V11.1211L18.0605 15.5605C17.4748 16.1463 16.5252 16.1463 15.9395 15.5605C15.3537 14.9748 15.3537 14.0252 15.9395 13.4395L22.9395 6.43945C23.2208 6.15816 23.6022 6 24 6Z" fill="#FAFAFA"/>
</svg>
