<svg width="48" height="48" viewBox="0 0 48 48" fill="none" xmlns="http://www.w3.org/2000/svg">
<path fill-rule="evenodd" clip-rule="evenodd" d="M29.6244 5.625C30.4528 5.625 31.1244 6.29657 31.1244 7.125C31.1244 7.95343 30.4528 8.625 29.6244 8.625H29.2494V19.8789C31.072 20.7017 32.6814 21.9434 33.9408 23.5098C35.4258 25.3568 36.3666 27.5816 36.6576 29.9336C36.9485 32.2857 36.5775 34.673 35.5873 36.8262C34.5968 38.9795 33.0255 40.8151 31.0502 42.125C30.8045 42.2879 30.5149 42.375 30.2201 42.375H17.7807C17.4862 42.3749 17.198 42.2876 16.9525 42.125C14.9762 40.8156 13.4029 38.9816 12.4115 36.8281C11.4203 34.6746 11.0487 32.2864 11.3392 29.9336C11.63 27.5805 12.5723 25.3536 14.058 23.5059C15.3174 21.9399 16.9269 20.6995 18.7494 19.877V8.625H18.3744C17.5462 8.62479 16.8744 7.9533 16.8744 7.125C16.8744 6.2967 17.5462 5.62521 18.3744 5.625H29.6244ZM14.2553 31.125C14.1968 32.6525 14.4939 34.1766 15.1361 35.5723C15.8342 37.0889 16.9131 38.3953 18.2592 39.375H29.7416C31.0864 38.3952 32.1632 37.0901 32.8607 35.5742C33.5029 34.178 33.8003 32.6531 33.7416 31.125H14.2553ZM21.7494 20.8867C21.7494 21.5227 21.3491 22.091 20.7494 22.3027C19.0398 22.9061 17.532 23.9739 16.3959 25.3867C15.7316 26.2129 15.2143 27.1396 14.851 28.125H33.1459C32.783 27.141 32.2662 26.2157 31.6029 25.3906C30.4672 23.9781 28.9584 22.9082 27.2494 22.3047C26.6506 22.0925 26.2494 21.526 26.2494 20.8906V8.625H21.7494V20.8867Z" fill="#FAFAFA"/>
</svg>
