<svg width="48" height="48" viewBox="0 0 48 48" fill="none" xmlns="http://www.w3.org/2000/svg">
<path fill-rule="evenodd" clip-rule="evenodd" d="M18 4.5C18 3.67157 18.6716 3 19.5 3H28.5C29.3284 3 30 3.67157 30 4.5C30 5.32843 29.3284 6 28.5 6H19.5C18.6716 6 18 5.32843 18 4.5ZM24 11C15.7157 11 9 17.7157 9 26C9 34.2843 15.7157 41 24 41C32.2843 41 39 34.2843 39 26C39 17.7157 32.2843 11 24 11ZM6 26C6 16.0589 14.0589 8 24 8C33.9411 8 42 16.0589 42 26C42 35.9411 33.9411 44 24 44C14.0589 44 6 35.9411 6 26ZM16.9393 21.0607C16.3536 20.4749 16.3536 19.5251 16.9393 18.9393C17.5251 18.3536 18.4749 18.3536 19.0607 18.9393L25.0607 24.9393C25.6464 25.5251 25.6464 26.4749 25.0607 27.0607C24.4749 27.6464 23.5251 27.6464 22.9393 27.0607L16.9393 21.0607Z" fill="#FAFAFA"/>
</svg>
