<svg width="48" height="48" viewBox="0 0 48 48" fill="none" xmlns="http://www.w3.org/2000/svg">
<path fill-rule="evenodd" clip-rule="evenodd" d="M24 7C14.6112 7 7 14.6112 7 24C7 33.3888 14.6112 41 24 41C33.3888 41 41 33.3888 41 24C41 14.6112 33.3888 7 24 7ZM4 24C4 12.9543 12.9543 4 24 4C35.0457 4 44 12.9543 44 24C44 35.0457 35.0457 44 24 44C12.9543 44 4 35.0457 4 24ZM24 10C24.8284 10 25.5 10.6716 25.5 11.5V13.646C27.4166 14.0313 28.9119 15.1539 29.7698 16.694C30.173 17.4177 29.9131 18.3312 29.1894 18.7343C28.4657 19.1375 27.5522 18.8777 27.1491 18.154C26.6365 17.234 25.6077 16.5003 24 16.5003C22.7329 16.5003 21.8636 16.7911 21.3423 17.202C20.8763 17.5694 20.5262 18.1573 20.5262 19.2016C20.5262 20.364 20.9281 20.9169 21.4873 21.3288C22.1475 21.815 23.0386 22.1162 24.2335 22.5201C24.3148 22.5476 24.3975 22.5755 24.4816 22.604C24.5879 22.6401 24.6979 22.6769 24.8108 22.7146C25.8869 23.0744 27.2314 23.524 28.2917 24.3049C29.6092 25.2752 30.4738 26.7201 30.4738 28.8476C30.4738 30.675 29.8029 32.1878 28.515 33.2031C27.6582 33.8787 26.6154 34.2654 25.5 34.4384V36.5C25.5 37.3284 24.8284 38 24 38C23.1716 38 22.5 37.3284 22.5 36.5V34.4033C20.5834 34.018 19.0881 32.8954 18.2302 31.3553C17.827 30.6316 18.0869 29.7181 18.8106 29.3149C19.5343 28.9118 20.4478 29.1716 20.8509 29.8953C21.3635 30.8153 22.3923 31.549 24 31.549C25.2671 31.549 26.1364 31.2582 26.6577 30.8473C27.1237 30.4799 27.4738 29.892 27.4738 28.8476C27.4738 27.6853 27.0719 27.1324 26.5127 26.7205C25.8525 26.2343 24.9615 25.9331 23.7665 25.5292C23.6852 25.5017 23.6025 25.4737 23.5184 25.4452C23.4121 25.4092 23.3021 25.3724 23.1893 25.3347C22.1131 24.9749 20.7686 24.5253 19.7083 23.7444C18.3908 22.7741 17.5262 21.3292 17.5262 19.2016C17.5262 17.3743 18.1971 15.8615 19.485 14.8461C20.3418 14.1706 21.3846 13.7839 22.5 13.6109V11.5C22.5 10.6716 23.1716 10 24 10Z" fill="#FAFAFA"/>
</svg>
