<svg width="48" height="48" viewBox="0 0 48 48" fill="none" xmlns="http://www.w3.org/2000/svg">
<path fill-rule="evenodd" clip-rule="evenodd" d="M6.19149 11.5925C5.8528 8.41105 8.49407 6 11.4437 6H15.0069C17.4467 6 19.595 7.60738 20.2834 9.94808L21.2729 13.3123C21.8401 15.2408 21.286 17.3246 19.8359 18.7167C19.0518 19.4694 18.9308 20.5429 19.411 21.2855C21.2999 24.2062 23.7936 26.7 26.7144 28.5888C27.4569 29.069 28.5304 28.948 29.2831 28.1639C30.6752 26.7138 32.7591 26.1598 34.6875 26.727L38.0518 27.7164C40.3925 28.4049 41.9998 30.5531 41.9998 32.993V36.5C41.9998 39.4859 39.5391 42.1267 36.3426 41.7727C31.6577 41.2539 27.1127 39.8373 22.9611 37.4287C17.8292 34.4513 13.5486 30.1706 10.5712 25.0387C8.17875 20.9152 6.69397 16.3125 6.19149 11.5925ZM11.4437 9C10.0222 9 9.05058 10.1096 9.17463 11.2749C9.63328 15.5831 10.9886 19.7801 13.1661 23.5332C15.8813 28.2133 19.7865 32.1185 24.4666 34.8338C28.233 37.0189 32.373 38.3148 36.6728 38.7909C37.8678 38.9233 38.9998 37.9324 38.9998 36.5V32.993C38.9998 31.8839 38.2692 30.9075 37.2053 30.5945L33.841 29.6051C32.9869 29.3538 32.0639 29.5993 31.4473 30.2415C29.8428 31.9128 27.2009 32.4761 25.0853 31.108C21.8082 28.9887 19.0111 26.1916 16.8919 22.9146C15.5238 20.799 16.087 18.157 17.7583 16.5526C18.4006 15.936 18.646 15.013 18.3948 14.1588L17.4053 10.7946C17.0924 9.73063 16.1159 9 15.0069 9H11.4437ZM41.5605 6.43934C42.1463 7.02513 42.1463 7.97487 41.5605 8.56066L33.1212 17H38.4998C39.3283 17 39.9998 17.6716 39.9998 18.5C39.9998 19.3284 39.3283 20 38.4998 20H29.4998C28.6714 20 27.9998 19.3284 27.9998 18.5V9.5C27.9998 8.67157 28.6714 8 29.4998 8C30.3283 8 30.9998 8.67157 30.9998 9.5V14.8787L39.4392 6.43934C40.025 5.85355 40.9747 5.85355 41.5605 6.43934Z" fill="#FAFAFA"/>
</svg>
