<svg width="48" height="48" viewBox="0 0 48 48" fill="none" xmlns="http://www.w3.org/2000/svg">
<path fill-rule="evenodd" clip-rule="evenodd" d="M31.1602 14.9434C31.8441 14.9434 32.5005 15.2154 32.9844 15.6992C33.4681 16.1831 33.7402 16.8396 33.7402 17.5234V19.2617H35.4805C36.1642 19.2619 36.821 19.5337 37.3047 20.0176C37.7886 20.5015 38.0586 21.1581 38.0586 21.8418V26.1602C38.0583 26.8433 37.7881 27.5007 37.3047 27.9844C36.8209 28.4682 36.1639 28.74 35.4805 28.7402H33.7402V30.4805C33.7398 31.1638 33.4683 31.8211 32.9844 32.3047C32.5005 32.788 31.8434 33.0586 31.1602 33.0586H26.8418C26.1581 33.0586 25.5015 32.7867 25.0176 32.3027C24.5343 31.8193 24.2622 31.1633 24.2617 30.4805V28.7402H22.5234C21.8396 28.7402 21.1831 28.4681 20.6992 27.9844C20.2156 27.5008 19.9436 26.8437 19.9434 26.1602V21.8418C19.9434 21.158 20.2156 20.5013 20.6992 20.0176C21.183 19.5339 21.8394 19.2617 22.5234 19.2617H24.2617V17.5234C24.2617 16.8398 24.5341 16.183 25.0176 15.6992C25.5014 15.2152 26.1578 14.9434 26.8418 14.9434H31.1602ZM27.2617 20.7617C27.2612 21.5897 26.5898 22.2617 25.7617 22.2617H22.9434V25.7402H25.7617C26.59 25.7402 27.2616 26.4119 27.2617 27.2402V30.0586H30.7402V27.2402C30.7404 26.412 31.412 25.7404 32.2402 25.7402H35.0586V22.2617H32.2402C31.4123 22.2616 30.7408 21.5896 30.7402 20.7617V17.9434H27.2617V20.7617Z" fill="#FAFAFA"/>
<path fill-rule="evenodd" clip-rule="evenodd" d="M6.73438 4C7.5628 4 8.23438 4.67157 8.23438 5.5V13.8672H14.002V13C14.002 10.7909 15.7928 9 18.002 9H40.002C42.2106 9.00053 44.002 10.7912 44.002 13V35C44.002 37.071 42.427 38.7735 40.4102 38.9785L40.002 39H18.002L17.5938 38.9785C15.7107 38.7876 14.2144 37.2913 14.0234 35.4082L14.002 35V34.1328H8.23438V42.5C8.23438 43.3284 7.5628 44 6.73438 44C5.90595 44 5.23438 43.3284 5.23438 42.5V5.5C5.23438 4.67157 5.90595 4 6.73438 4ZM18.002 12C17.4497 12 17.002 12.4477 17.002 13V35C17.002 35.5523 17.4497 36 18.002 36H40.002C40.5538 35.9995 41.002 35.552 41.002 35V13C41.002 12.448 40.5538 12.0005 40.002 12H18.002ZM8.23438 31.1328H14.002V16.8672H8.23438V31.1328Z" fill="#FAFAFA"/>
</svg>
