<svg width="48" height="48" viewBox="0 0 48 48" fill="none" xmlns="http://www.w3.org/2000/svg">
<path d="M44.1543 12.9922C44.9102 12.9149 45.5 12.2763 45.5 11.5C45.5 10.7237 44.9102 10.0851 44.1543 10.0078L44 10H4C3.17157 10 2.5 10.6716 2.5 11.5C2.5 12.3284 3.17157 13 4 13H44L44.1543 12.9922Z" fill="#FAFAFA"/>
<path fill-rule="evenodd" clip-rule="evenodd" d="M24 31.5C32.1606 31.5 38.8945 25.3906 39.877 17.4961C40.0134 16.4 39.1045 15.5 38 15.5H10C8.89543 15.5 7.98664 16.4 8.12305 17.4961C9.1055 25.3906 15.8394 31.5 24 31.5ZM24 28.5C17.8542 28.5 12.7051 24.232 11.3516 18.5H36.6484C35.2949 24.2319 30.1458 28.5 24 28.5Z" fill="#FAFAFA"/>
<path d="M6.81641 35.7539C7.29321 36.3668 8.15078 36.5091 8.79492 36.1055L8.92188 36.0176L11.9219 33.6836L12.0371 33.584C12.587 33.059 12.6603 32.1912 12.1836 31.5781C11.7067 30.9658 10.849 30.825 10.2051 31.2285L10.0781 31.3164L7.07812 33.6484L6.96289 33.75C6.41314 34.275 6.33963 35.1409 6.81641 35.7539Z" fill="#FAFAFA"/>
<path d="M38.9805 36.3789C39.5883 36.9416 40.5388 36.9047 41.1016 36.2969C41.6636 35.6892 41.6265 34.7405 41.0195 34.1777L38.0195 31.3984C37.4117 30.8359 36.4612 30.8728 35.8984 31.4805C35.3358 32.0883 35.3727 33.0388 35.9805 33.6016L38.9805 36.3789Z" fill="#FAFAFA"/>
<path d="M23.5137 41C24.3419 40.9998 25.0137 40.3283 25.0137 39.5V35.9453C25.0137 35.117 24.3419 34.4456 23.5137 34.4453C22.6852 34.4453 22.0137 35.1169 22.0137 35.9453V39.5C22.0137 40.3284 22.6852 41 23.5137 41Z" fill="#FAFAFA"/>
</svg>
