<svg width="48" height="48" viewBox="0 0 48 48" fill="none" xmlns="http://www.w3.org/2000/svg">
<path d="M29.1914 19C30.6235 19.0003 31.9815 19.5981 32.9707 20.6367C33.9577 21.6732 34.5 23.0642 34.5 24.5C34.5 25.9358 33.9578 27.3269 32.9707 28.3633C31.9815 29.4019 30.6235 29.9997 29.1914 30H24.4102C24.597 30.5279 24.483 31.1381 24.0605 31.5605C23.4748 32.1463 22.5252 32.1463 21.9395 31.5605L19.9395 29.5605C19.6581 29.2792 19.5 28.8978 19.5 28.5C19.5 28.1022 19.6581 27.7208 19.9395 27.4395L21.9395 25.4395C22.5252 24.8537 23.4748 24.8537 24.0605 25.4395C24.483 25.8619 24.597 26.4721 24.4102 27H29.1914C29.7793 26.9997 30.3597 26.7541 30.7988 26.293C31.2401 25.8292 31.5 25.1856 31.5 24.5C31.5 23.814 31.2406 23.169 30.7988 22.7051C30.3597 22.2441 29.7793 22.0003 29.1914 22H17C16.1716 22 15.5 21.3284 15.5 20.5C15.5 19.6716 16.1716 19 17 19H29.1914Z" fill="#FAFAFA"/>
<path fill-rule="evenodd" clip-rule="evenodd" d="M30 4.5C30.8284 4.5 31.5 5.17157 31.5 6C31.5 6.82843 30.8284 7.5 30 7.5H25.5V12H32L32.6172 12.0156C38.9578 12.3369 44 17.5796 44 24V26C44 31.2615 40.6124 35.7284 35.9004 37.3477V41.0996C35.9004 41.928 35.2288 42.5996 34.4004 42.5996C33.572 42.5996 32.9004 41.928 32.9004 41.0996V37.9609C32.8061 37.9679 32.712 37.9796 32.6172 37.9844L32 38H16C15.6764 38 15.3562 37.9822 15.0391 37.957V41.0996C15.0391 41.928 14.3675 42.5996 13.5391 42.5996C12.7106 42.5996 12.0391 41.928 12.0391 41.0996V37.3281C7.54329 35.7563 4.2674 31.5868 4.01562 26.6172L4 26V24C4 17.3726 9.37258 12 16 12H22.5V7.5H18C17.1716 7.5 16.5 6.82843 16.5 6C16.5 5.17157 17.1716 4.5 18 4.5H30ZM16 15C11.0294 15 7 19.0294 7 24V26C7 30.9706 11.0294 35 16 35H32C36.9706 35 41 30.9706 41 26V24C41 19.0294 36.9706 15 32 15H16Z" fill="#FAFAFA"/>
</svg>
