<svg width="48" height="48" viewBox="0 0 48 48" fill="none" xmlns="http://www.w3.org/2000/svg">
<path fill-rule="evenodd" clip-rule="evenodd" d="M24 7C14.6112 7 7 14.6112 7 24C7 33.3888 14.6112 41 24 41C33.3888 41 41 33.3888 41 24C41 14.6112 33.3888 7 24 7ZM4 24C4 12.9543 12.9543 4 24 4C35.0457 4 44 12.9543 44 24C44 35.0457 35.0457 44 24 44C12.9543 44 4 35.0457 4 24ZM16.0888 25.5C16.3356 27.5656 17.0863 29.4492 18.2123 30.9216C19.6068 32.7451 21.6396 34 24 34C26.3658 34 28.4024 32.7395 29.7972 30.9092C30.2993 30.2503 30.1722 29.3091 29.5133 28.807C28.8544 28.3048 27.9132 28.4319 27.4111 29.0908C26.4521 30.3491 25.2321 31 24 31C22.7706 31 21.5534 30.3521 20.5953 29.0992C19.8787 28.1621 19.3423 26.9214 19.1169 25.5H21.5C22.3284 25.5 23 24.8284 23 24C23 23.1716 22.3284 22.5 21.5 22.5H19.1169C19.3423 21.0786 19.8787 19.8379 20.5953 18.9008C21.5534 17.6479 22.7706 17 24 17C25.2321 17 26.4521 17.6509 27.4111 18.9092C27.9132 19.5681 28.8544 19.6952 29.5133 19.193C30.1722 18.6909 30.2993 17.7497 29.7972 17.0908C28.4024 15.2605 26.3658 14 24 14C21.6396 14 19.6068 15.2549 18.2123 17.0784C17.0863 18.5508 16.3356 20.4344 16.0888 22.5H15.5C14.6716 22.5 14 23.1716 14 24C14 24.8284 14.6716 25.5 15.5 25.5H16.0888Z" fill="#FAFAFA"/>
</svg>
