<svg width="48" height="48" viewBox="0 0 48 48" fill="none" xmlns="http://www.w3.org/2000/svg">
<path d="M40.498 20C40.498 19.337 40.2345 18.7013 39.7656 18.2324C39.2968 17.7638 38.661 17.5 37.998 17.5C37.3352 17.5002 36.6992 17.7637 36.2305 18.2324C35.7618 18.7012 35.498 19.3371 35.498 20V26C35.4981 26.6629 35.7618 27.2988 36.2305 27.7676C36.6408 28.1779 37.1795 28.4315 37.752 28.4883L37.998 28.5L38.2461 28.4883C38.8181 28.4314 39.3555 28.1776 39.7656 27.7676C40.2345 27.2987 40.498 26.663 40.498 26V20ZM43.498 26C43.498 27.4584 42.9197 28.8573 41.8887 29.8887C41.2194 30.558 40.3927 31.0313 39.498 31.2852V40.5H41.998L42.1523 40.5078C42.9086 40.5848 43.498 41.2235 43.498 42C43.498 42.7765 42.9086 43.4152 42.1523 43.4922L41.998 43.5H5.99805C5.1699 43.4997 4.49807 42.8282 4.49805 42C4.49805 41.2232 5.08911 40.5844 5.8457 40.5078L5.99805 40.5H14.498V29.2832C13.3704 29.0527 12.3028 28.5698 11.3848 27.8535C10.258 26.9742 9.41179 25.7942 8.93555 24.457C7.70069 23.7899 6.64453 22.8286 5.87109 21.6484C4.96594 20.2672 4.48438 18.6514 4.48438 17C4.48438 15.3486 4.96595 13.7328 5.87109 12.3516C6.64469 11.1711 7.70035 10.2082 8.93555 9.54102C9.41189 8.20458 10.2585 7.02547 11.3848 6.14648C12.7027 5.11811 14.3264 4.55872 15.998 4.55859C17.6699 4.55859 19.2952 5.11799 20.6133 6.14648C21.7391 7.02521 22.5823 8.20518 23.0586 9.54102C24.2929 10.2101 25.3473 11.1757 26.1191 12.3574C27.0202 13.7374 27.4989 15.35 27.498 16.998C27.4995 18.6472 27.0208 20.2617 26.1191 21.6426C25.3475 22.8241 24.2926 23.7879 23.0586 24.457C22.5824 25.7936 21.7396 26.9744 20.6133 27.8535C19.695 28.5701 18.6261 29.0528 17.498 29.2832V40.5H36.498V31.2852C35.6038 31.0312 34.7784 30.5577 34.1094 29.8887C33.0781 28.8573 32.4981 27.4586 32.498 26V20C32.498 18.5415 33.0781 17.1427 34.1094 16.1113C35.1407 15.08 36.5396 14.5002 37.998 14.5C39.4567 14.5 40.8572 15.0799 41.8887 16.1113C42.9197 17.1427 43.498 18.5416 43.498 20V26ZM7.48438 17C7.48438 18.0672 7.7959 19.1113 8.38086 20.0039C8.89275 20.785 9.59495 21.4196 10.418 21.8516L10.7773 22.0254L10.9316 22.1035C11.2796 22.3056 11.5337 22.6402 11.6328 23.0352C11.8766 24.0081 12.4398 24.8712 13.2305 25.4883C13.6153 25.7886 14.0441 26.021 14.498 26.1816V18C14.498 17.1718 15.1699 16.5003 15.998 16.5C16.7744 16.5 17.413 17.0898 17.4902 17.8457L17.498 18V26.1816C17.9524 26.021 18.3824 25.7888 18.7676 25.4883C19.558 24.8712 20.1195 24.0079 20.3633 23.0352C20.4762 22.5848 20.7915 22.2116 21.2168 22.0254C22.1932 21.5978 23.0246 20.8944 23.6074 20.002C24.1898 19.1099 24.4989 18.0673 24.498 17.002V16.998C24.4989 15.9327 24.1898 14.8901 23.6074 13.998C23.0246 13.1056 22.1932 12.4022 21.2168 11.9746C20.7915 11.7884 20.4762 11.4152 20.3633 10.9648C20.1195 9.99216 19.558 9.12877 18.7676 8.51172C17.9767 7.89462 17.0012 7.55859 15.998 7.55859C14.9951 7.55872 14.0212 7.89474 13.2305 8.51172C12.4398 9.1288 11.8766 9.99195 11.6328 10.9648C11.5196 11.4161 11.2039 11.7888 10.7773 11.9746C9.79884 12.4005 8.96582 13.1035 8.38086 13.9961C7.7959 14.8887 7.48438 15.9328 7.48438 17Z" fill="#FAFAFA"/>
</svg>
