<svg width="48" height="48" viewBox="0 0 48 48" fill="none" xmlns="http://www.w3.org/2000/svg">
<path fill-rule="evenodd" clip-rule="evenodd" d="M30 19C32.2091 19 34 20.7909 34 23V35C34 37.0713 32.4256 38.774 30.4082 38.9785L30 39H18L17.5918 38.9785C15.7087 38.7876 14.2124 37.2913 14.0215 35.4082L14 35V23C14 20.7909 15.7909 19 18 19H30ZM18 22C17.4477 22 17 22.4477 17 23V35C17 35.5523 17.4477 36 18 36H30C30.5523 36 31 35.5523 31 35V23C31 22.4477 30.5523 22 30 22H18Z" fill="#FAFAFA"/>
<path d="M32 13.5C32.8284 13.5 33.5 14.1716 33.5 15C33.5 15.8284 32.8284 16.5 32 16.5H30C29.1716 16.5 28.5 15.8284 28.5 15C28.5 14.1716 29.1716 13.5 30 13.5H32Z" fill="#FAFAFA"/>
<path fill-rule="evenodd" clip-rule="evenodd" d="M36 3C38.2091 3 40 4.79086 40 7V41C40 43.2091 38.2091 45 36 45H12C9.9287 45 8.22601 43.4256 8.02148 41.4082L8 41V7C8 4.79086 9.79086 3 12 3H36ZM12 6C11.4477 6 11 6.44772 11 7V41C11 41.5523 11.4477 42 12 42H36C36.5523 42 37 41.5523 37 41V7C37 6.44772 36.5523 6 36 6H34V7C34 9.0713 32.4256 10.774 30.4082 10.9785L30 11H18L17.5918 10.9785C15.5744 10.774 14 9.0713 14 7V6H12ZM17 7C17 7.55228 17.4477 8 18 8H30C30.5523 8 31 7.55228 31 7V6H17V7Z" fill="#FAFAFA"/>
<path d="M23.963 22.7535C24.539 22.7539 25.0064 23.2209 25.0064 23.7969V24.2846L25.4507 23.8417C25.8582 23.4344 26.5187 23.4343 26.9261 23.8417C27.3331 24.2492 27.3333 24.9098 26.9261 25.3172L25.0064 27.2355V27.9786L25.7645 27.9773L27.676 26.0671C28.0834 25.6599 28.744 25.66 29.1515 26.0671C29.5588 26.4745 29.5587 27.1351 29.1515 27.5425L28.7194 27.9732H29.2017C29.7778 27.9725 30.2454 28.4393 30.2465 29.0152C30.2472 29.5915 29.7807 30.0592 29.2044 30.06H28.6923L29.1515 30.5192L29.2235 30.598C29.5578 31.0077 29.5333 31.6126 29.1515 31.9946C28.7696 32.376 28.1659 32.4002 27.7562 32.0666L27.676 31.9946L25.7468 30.0641L25.0064 30.0654V30.8249L26.9261 32.7446L26.9981 32.8247C27.3316 33.2344 27.3075 33.8382 26.9261 34.22C26.5441 34.602 25.9393 34.6262 25.5295 34.292L25.4507 34.22L25.0064 33.7757V34.2648C25.0064 34.8408 24.539 35.3078 23.963 35.3082C23.3868 35.3082 22.9196 34.8411 22.9196 34.2648V33.773L22.474 34.22C22.0666 34.6274 21.4061 34.6272 20.9986 34.22C20.5914 33.8125 20.5912 33.1519 20.9986 32.7446L22.9196 30.8235V30.0681H22.1711L20.2473 31.9946C19.8398 32.4017 19.1792 32.4018 18.7719 31.9946C18.3649 31.5872 18.3648 30.9265 18.7719 30.5192L19.2175 30.0722L18.7365 30.0736C18.1603 30.0743 17.6925 29.6078 17.6918 29.0315C17.6914 28.4556 18.1578 27.9875 18.7338 27.9868L19.2148 27.9854L18.7719 27.5425C18.3649 27.1351 18.3647 26.4744 18.7719 26.0671C19.1792 25.6598 19.8398 25.6601 20.2473 26.0671L22.1615 27.9814H22.9196V27.2382L20.9986 25.3172C20.5912 24.9098 20.5913 24.2492 20.9986 23.8417C21.4061 23.4343 22.0665 23.4343 22.474 23.8417L22.9196 24.2874V23.7969C22.9196 23.2207 23.3868 22.7535 23.963 22.7535Z" fill="#FAFAFA"/>
</svg>
