<svg width="48" height="48" viewBox="0 0 48 48" fill="none" xmlns="http://www.w3.org/2000/svg">
<path d="M34.8359 34.5C35.6643 34.5 36.3358 35.1717 36.3359 36C36.3357 36.8282 35.6642 37.5 34.8359 37.5H29.2285C28.4003 37.4999 27.7288 36.8281 27.7285 36C27.7286 35.1717 28.4002 34.5001 29.2285 34.5H34.8359Z" fill="#FAFAFA"/>
<path d="M34.8359 28.6758C35.6643 28.6758 36.3358 29.3474 36.3359 30.1758C36.3359 31.0042 35.6644 31.6758 34.8359 31.6758H29.2285C28.4002 31.6757 27.7285 31.0042 27.7285 30.1758C27.7286 29.3475 28.4002 28.6759 29.2285 28.6758H34.8359Z" fill="#FAFAFA"/>
<path fill-rule="evenodd" clip-rule="evenodd" d="M38.9414 23.2227C40.9588 23.4272 42.5332 25.1299 42.5332 27.2012V27.4043C43.6144 27.4213 44.4898 28.2974 44.5 29.3848L44.5664 36.541C44.5762 37.6453 43.6883 38.5485 42.584 38.5586C42.567 38.5587 42.5501 38.5569 42.5332 38.5566V39.1992C42.533 41.2703 40.9586 42.9732 38.9414 43.1777L38.5332 43.2012H25.5332C23.4625 43.2011 21.7599 41.626 21.5547 39.6094L21.5332 39.1992V38.5566C20.4524 38.5394 19.5769 37.6651 19.5664 36.5781L19.5 29.4219C19.4901 28.3175 20.3781 27.4145 21.4824 27.4043C21.4993 27.4041 21.5164 27.404 21.5332 27.4043V27.2012C21.5332 24.9921 23.3241 23.2013 25.5332 23.2012H38.5332L38.9414 23.2227ZM25.5332 26.2012C24.981 26.2013 24.5332 26.6489 24.5332 27.2012V39.1992C24.5335 39.7512 24.9812 40.2011 25.5332 40.2012H38.5332C39.0853 40.2012 39.5329 39.7513 39.5332 39.1992V27.2012C39.5332 26.6489 39.0855 26.2012 38.5332 26.2012H25.5332Z" fill="#FAFAFA"/>
<path fill-rule="evenodd" clip-rule="evenodd" d="M12 6C13.933 6 15.5 7.567 15.5 9.5V10.5H27.5V9.5C27.5 7.567 29.067 6 31 6H36C37.933 6 39.5 7.567 39.5 9.5V14.5C39.5 16.433 37.933 18 36 18H35V19.5C35 20.3284 34.3284 21 33.5 21C32.6716 21 32 20.3284 32 19.5V18H31C29.067 18 27.5 16.433 27.5 14.5V13.5H15.5V14.5C15.5 16.433 13.933 18 12 18H11V30H11.5C13.433 30 15 31.567 15 33.5V34.5H15.5996C16.428 34.5 17.0996 35.1716 17.0996 36C17.0996 36.8284 16.428 37.5 15.5996 37.5H15V38.5C15 40.433 13.433 42 11.5 42H7C5.067 42 3.5 40.433 3.5 38.5V33.5C3.5 31.567 5.067 30 7 30H8V18H7C5.067 18 3.5 16.433 3.5 14.5V9.5C3.5 7.567 5.067 6 7 6H12ZM7 33C6.72386 33 6.5 33.2239 6.5 33.5V38.5C6.5 38.7761 6.72386 39 7 39H11.5C11.7761 39 12 38.7761 12 38.5V33.5C12 33.2239 11.7761 33 11.5 33H7ZM7 9C6.72386 9 6.5 9.22386 6.5 9.5V14.5C6.5 14.7761 6.72386 15 7 15H12C12.2761 15 12.5 14.7761 12.5 14.5V9.5C12.5 9.22386 12.2761 9 12 9H7ZM31 9C30.7239 9 30.5 9.22386 30.5 9.5V14.5C30.5 14.7761 30.7239 15 31 15H36C36.2761 15 36.5 14.7761 36.5 14.5V9.5C36.5 9.22386 36.2761 9 36 9H31Z" fill="#FAFAFA"/>
</svg>
