<svg width="48" height="48" viewBox="0 0 48 48" fill="none" xmlns="http://www.w3.org/2000/svg">
<path d="M32.9257 6.01172C33.1349 6.02434 33.2965 6.05118 33.4491 6.10156C33.7194 6.19089 33.9682 6.33635 34.1776 6.5293C34.4143 6.7474 34.5811 7.04745 34.9139 7.64648L43.1366 22.4453C43.4517 23.0125 43.608 23.2973 43.6698 23.5977C43.7243 23.8632 43.7243 24.1368 43.6698 24.4023C43.608 24.7027 43.4517 24.9875 43.1366 25.5547L34.9139 40.3535L34.5096 41.0547C34.3967 41.2319 34.296 41.3616 34.1776 41.4707L34.0135 41.6074C33.8429 41.7339 33.6517 41.8315 33.4491 41.8984C33.2965 41.9488 33.1349 41.9757 32.9257 41.9883L32.1171 42H15.8827L15.0721 41.9883C14.9674 41.982 14.8747 41.9712 14.7889 41.957L14.5487 41.8984C14.2784 41.8091 14.0296 41.6637 13.8202 41.4707C13.5836 41.2526 13.4166 40.9524 13.0839 40.3535L4.86316 25.5547C4.6265 25.1287 4.47754 24.8622 4.39246 24.6289L4.328 24.4023C4.27348 24.1369 4.27348 23.8631 4.328 23.5977C4.3589 23.4474 4.4133 23.3006 4.49988 23.1211L4.86316 22.4453L13.0839 7.64648C13.4166 7.04761 13.5836 6.74739 13.8202 6.5293C14.0296 6.33635 14.2784 6.19089 14.5487 6.10156C14.7013 6.05114 14.863 6.02435 15.0721 6.01172L15.8827 6H32.1171L32.9257 6.01172ZM15.7635 9C15.7457 9.03217 15.7271 9.06721 15.7069 9.10352L7.48425 23.9023C7.46502 23.937 7.44657 23.9694 7.42957 24C7.44657 24.0306 7.46502 24.063 7.48425 24.0977L15.7069 38.8965C15.7268 38.9322 15.7459 38.9663 15.7635 38.998C15.8007 38.9981 15.8408 39 15.8827 39H32.1171C32.1578 39 32.1961 38.9981 32.2323 38.998C32.2501 38.966 32.2708 38.9326 32.2909 38.8965L40.5135 24.0977C40.5326 24.0634 40.5494 24.0304 40.5663 24C40.5494 23.9696 40.5326 23.9366 40.5135 23.9023L32.2909 9.10352C32.2705 9.06685 32.2504 9.03245 32.2323 9H15.7635Z" fill="#FAFAFA"/>
</svg>
