<svg width="48" height="48" viewBox="0 0 48 48" fill="none" xmlns="http://www.w3.org/2000/svg">
<path fill-rule="evenodd" clip-rule="evenodd" d="M23.2539 16.332C23.6054 15.761 24.2942 15.4919 24.9395 15.6738C25.585 15.8565 26.031 16.4463 26.0312 17.1172V23.043H27.4004C27.7128 23.0431 28.0224 23.1064 28.3086 23.2266L28.5879 23.3652L28.8437 23.541C29.0068 23.6684 29.1533 23.8168 29.2773 23.9824L29.4473 24.2441L29.5801 24.5254C29.6941 24.8138 29.7505 25.1234 29.7441 25.4355C29.7354 25.8523 29.6149 26.2601 29.3965 26.6152L23.334 36.4688C22.9822 37.0399 22.2939 37.3076 21.6484 37.125C21.003 36.942 20.5566 36.3525 20.5566 35.6816V29.7559H19.1875C18.771 29.7559 18.3613 29.6442 18.002 29.4336C17.6428 29.2228 17.3459 28.9201 17.1426 28.5566C16.9393 28.1927 16.8349 27.7801 16.8437 27.3633L16.8711 27.0527C16.9189 26.7459 17.0274 26.4498 17.1914 26.1836L23.2539 16.332ZM20.3613 26.7559H22.0566C22.8848 26.7559 23.5562 27.4278 23.5566 28.2559V30.3809L26.2266 26.043H24.5312C23.7034 26.0423 23.0312 25.371 23.0312 24.543V22.416L20.3613 26.7559Z" fill="#FAFAFA"/>
<path fill-rule="evenodd" clip-rule="evenodd" d="M22.0937 5.69922C23.1279 5.69922 24.1202 6.11063 24.8516 6.8418C25.5828 7.57302 25.9939 8.56553 25.9941 9.59961V10.5H28.0937C28.4916 10.5 28.873 10.6581 29.1543 10.9395L29.293 11.0781L30.1367 10.2363C30.4987 9.87426 30.9293 9.58664 31.4023 9.39062C31.8753 9.19473 32.3826 9.0938 32.8945 9.09375C33.4068 9.09378 33.9154 9.1945 34.3887 9.39062C34.8618 9.58677 35.2923 9.87408 35.6543 10.2363L35.6523 10.2383L38.2578 12.8418L38.5156 13.125C38.7585 13.4208 38.9564 13.7526 39.1035 14.1074C39.2995 14.5805 39.4004 15.0876 39.4004 15.5996C39.4004 16.1116 39.2994 16.6187 39.1035 17.0918C38.9565 17.4466 38.7584 17.7784 38.5156 18.0742L38.2578 18.3574L37.4141 19.1992L37.5547 19.3398C37.8357 19.6211 37.9941 20.0028 37.9941 20.4004V38.4004C37.994 39.4346 37.5829 40.4269 36.8516 41.1582C36.1202 41.8895 35.128 42.3008 34.0937 42.3008H12.4941C11.46 42.3008 10.4677 41.8893 9.73633 41.1582C9.00503 40.4269 8.59385 39.4346 8.59375 38.4004V14.4004C8.59375 13.366 9.00494 12.374 9.73633 11.6426C10.1002 11.2787 10.5281 10.993 10.9941 10.7988V9.59961C10.9943 8.56553 11.4055 7.57302 12.1367 6.8418C12.8681 6.11063 13.8604 5.69922 14.8945 5.69922H22.0937ZM12.4941 13.5C12.2554 13.5 12.0262 13.5949 11.8574 13.7637C11.6886 13.9325 11.5937 14.1617 11.5937 14.4004V38.4004C11.5939 38.6389 11.6887 38.8684 11.8574 39.0371C12.0262 39.2057 12.2556 39.3008 12.4941 39.3008H34.0937C34.3323 39.3008 34.5617 39.2058 34.7305 39.0371C34.8992 38.8684 34.994 38.6389 34.9941 38.4004V21.0215L27.4727 13.5H12.4941ZM32.8945 12.0938C32.7767 12.0938 32.6597 12.1171 32.5508 12.1621C32.4416 12.2073 32.3413 12.2739 32.2578 12.3574L31.4141 13.1992L35.293 17.0781L36.1367 16.2363L36.248 16.0996C36.2808 16.0507 36.3094 15.998 36.332 15.9434C36.377 15.8344 36.4004 15.7175 36.4004 15.5996C36.4004 15.4817 36.3771 15.3648 36.332 15.2559C36.3094 15.2012 36.2808 15.1486 36.248 15.0996L36.1367 14.9629L33.5312 12.3574C33.4479 12.2741 33.3491 12.2073 33.2402 12.1621C33.1311 12.1169 33.0127 12.0938 32.8945 12.0938ZM14.8945 8.69922C14.656 8.69922 14.4266 8.79434 14.2578 8.96289C14.0892 9.1315 13.9943 9.36118 13.9941 9.59961V10.5H22.9941V9.59961C22.9939 9.36118 22.8991 9.1315 22.7305 8.96289C22.5617 8.79434 22.3323 8.69922 22.0937 8.69922H14.8945Z" fill="#FAFAFA"/>
</svg>
