<svg width="48" height="48" viewBox="0 0 48 48" fill="none" xmlns="http://www.w3.org/2000/svg">
<path fill-rule="evenodd" clip-rule="evenodd" d="M35.4685 8.59814C36.1795 8.32832 36.9922 8.63578 37.3396 9.33056C37.7096 10.0714 37.4104 10.9719 36.6697 11.3423L34.0329 12.6587C33.9359 12.708 33.858 12.7894 33.8103 12.8872C33.7627 12.9855 33.7477 13.0985 33.7693 13.2056L34.7322 18.0259C34.7337 18.0344 34.7366 18.0427 34.738 18.0513L36.0271 24.4985C38.0059 24.5059 39.9025 25.2961 41.3025 26.6958C42.7087 28.102 43.4994 30.0099 43.4997 31.9985C43.4997 33.4816 43.0599 34.9333 42.2361 36.1665C41.4123 37.3993 40.2406 38.3605 38.8708 38.9282C37.5006 39.4958 35.9915 39.6451 34.5368 39.356C33.0823 39.0666 31.7458 38.3518 30.697 37.3032C29.6484 36.2546 28.9338 34.9178 28.6443 33.4634C28.355 32.0088 28.5026 30.4996 29.07 29.1294C29.6377 27.7592 30.6006 26.5881 31.8337 25.7642C32.2301 25.4993 32.6507 25.2781 33.0857 25.0942L32.2185 20.7544L18.9861 29.2798C19.3203 30.1385 19.4996 31.0592 19.4997 31.9985C19.4997 33.4816 19.0599 34.9333 18.2361 36.1665C17.4123 37.3993 16.2406 38.3605 14.8708 38.9282C13.5006 39.4958 11.9915 39.6451 10.5368 39.356C9.08225 39.0666 7.7458 38.3518 6.697 37.3032C5.64837 36.2546 4.93376 34.9178 4.64426 33.4634C4.35503 32.0088 4.50258 30.4996 5.07004 29.1294C5.63774 27.7592 6.60055 26.5881 7.83371 25.7642C9.06692 24.9404 10.5167 24.4985 11.9997 24.4985C13.9885 24.4987 15.8961 25.2897 17.3025 26.6958C17.3225 26.7158 17.3413 26.738 17.3611 26.7583L20.9958 24.4145L19.6892 17.897C19.6654 17.7834 19.6021 17.6804 19.5114 17.6079C19.4203 17.5354 19.3056 17.4962 19.1892 17.4985H15.9997C15.1713 17.4985 14.4997 16.827 14.4997 15.9985C14.5004 15.1707 15.1717 14.4985 15.9997 14.4985H19.1599C19.9678 14.4893 20.755 14.761 21.3864 15.2661C21.9456 15.7135 22.3518 16.3206 22.5544 17.0024L22.6286 17.2993L22.6306 17.3032L23.7048 22.6685L31.5857 17.5903L30.8279 13.7954C30.6771 13.0446 30.7763 12.2635 31.1111 11.5747C31.4461 10.886 31.9996 10.326 32.6833 9.98095L35.3279 8.65869L35.4685 8.59814ZM11.9997 27.4985C11.11 27.4985 10.2396 27.7641 9.49973 28.2583C8.76003 28.7526 8.18212 29.4559 7.84153 30.2778C7.50126 31.0997 7.41222 32.0049 7.58567 32.8774C7.75931 33.7503 8.18882 34.5528 8.81809 35.1821C9.44734 35.8111 10.2501 36.239 11.1228 36.4126C11.9953 36.5859 12.9005 36.4972 13.7224 36.1567C14.5442 35.8161 15.2477 35.2382 15.7419 34.4985C16.2357 33.7588 16.4997 32.888 16.4997 31.9985C16.4996 31.6475 16.4523 31.3015 16.3728 30.9653L12.8122 33.2603C12.1159 33.709 11.1867 33.5074 10.738 32.811C10.2903 32.1148 10.4914 31.1873 11.1872 30.7388L14.7497 28.4419C13.966 27.836 13.001 27.4986 11.9997 27.4985ZM37.4704 31.7056L37.4919 31.8579C37.5648 32.6146 37.0542 33.3189 36.2927 33.4712C35.5317 33.623 34.79 33.1698 34.5661 32.4438L34.5271 32.2954L33.695 28.1372C33.6294 28.1764 33.5636 28.2157 33.4997 28.2583C32.76 28.7526 32.1821 29.4559 31.8415 30.2778C31.5013 31.0997 31.4122 32.0049 31.5857 32.8774C31.7593 33.7503 32.1888 34.5528 32.8181 35.1821C33.4473 35.8111 34.2501 36.239 35.1228 36.4126C35.9953 36.5859 36.9005 36.4972 37.7224 36.1567C38.5442 35.8161 39.2477 35.2382 39.7419 34.4985C40.2357 33.7588 40.4997 32.888 40.4997 31.9985C40.4994 30.8056 40.025 29.6605 39.1814 28.8169C38.4898 28.1255 37.5952 27.6869 36.6384 27.5493L37.4704 31.7056Z" fill="#FAFAFA"/>
</svg>
