<svg width="48" height="48" viewBox="0 0 48 48" fill="none" xmlns="http://www.w3.org/2000/svg">
<path fill-rule="evenodd" clip-rule="evenodd" d="M24.0234 11C24.4337 11.0005 24.8266 11.1694 25.1094 11.4668L25.1152 11.4727C25.1181 11.4758 25.1222 11.4812 25.127 11.4863C25.137 11.497 25.1523 11.5123 25.1699 11.5312C25.2057 11.5698 25.2568 11.6254 25.3203 11.6953C25.4482 11.8361 25.6287 12.0384 25.8437 12.2891C26.2732 12.7896 26.8509 13.4929 27.4297 14.2988C28.0051 15.1 28.6052 16.0323 29.0664 16.9883C29.5157 17.9198 29.8984 19.0071 29.8984 20.082C29.8984 21.9191 29.2813 23.439 28.1191 24.4824C26.9839 25.5013 25.4971 25.9137 24.0234 25.9141C22.5493 25.9141 21.0614 25.5014 19.9258 24.4824C18.7633 23.4389 18.1465 21.9194 18.1465 20.082C18.1465 19.0069 18.5291 17.9199 18.9785 16.9883C19.4398 16.0321 20.0417 15.1001 20.6172 14.2988C21.196 13.4931 21.7719 12.7894 22.2012 12.2891C22.4163 12.0384 22.5968 11.836 22.7246 11.6953C22.7882 11.6253 22.8392 11.5697 22.875 11.5312C22.8926 11.5123 22.908 11.497 22.918 11.4863C22.9228 11.4811 22.9268 11.4757 22.9297 11.4727L22.9355 11.4668C23.2187 11.1692 23.6127 11 24.0234 11ZM24.0234 14.791C23.7232 15.1592 23.3855 15.5856 23.0527 16.0488C22.5345 16.7704 22.0407 17.5486 21.6816 18.293C21.3107 19.0621 21.1465 19.6679 21.1465 20.082C21.1465 21.2233 21.5084 21.8719 21.9297 22.25C22.3778 22.6518 23.0815 22.9141 24.0234 22.9141C24.9647 22.9137 25.6675 22.6518 26.1152 22.25C26.5363 21.8718 26.8984 21.2228 26.8984 20.082C26.8984 19.6679 26.7342 19.0619 26.3633 18.293C26.0042 17.5487 25.5104 16.7704 24.9922 16.0488C24.6598 15.586 24.3235 15.159 24.0234 14.791Z" fill="#FAFAFA"/>
<path fill-rule="evenodd" clip-rule="evenodd" d="M32 4.5C35.0376 4.5 37.5 6.96243 37.5 10V32C37.5 35.0376 35.0376 37.5 32 37.5H29.5V38C29.5 39.3807 30.6193 40.5 32 40.5H38C38.8284 40.5 39.5 41.1716 39.5 42C39.5 42.8284 38.8284 43.5 38 43.5H32C28.9624 43.5 26.5 41.0376 26.5 38V37.5H21.5V38C21.5 41.0376 19.0376 43.5 16 43.5H10C9.17157 43.5 8.5 42.8284 8.5 42C8.5 41.1716 9.17157 40.5 10 40.5H16C17.3807 40.5 18.5 39.3807 18.5 38V37.5H16C12.9624 37.5 10.5 35.0376 10.5 32V10C10.5 6.96243 12.9624 4.5 16 4.5H32ZM13.5 32C13.5 33.3807 14.6193 34.5 16 34.5H32C33.3807 34.5 34.5 33.3807 34.5 32V31.5H13.5V32ZM16 7.5C14.6193 7.5 13.5 8.61929 13.5 10V28.5H34.5V10C34.5 8.61929 33.3807 7.5 32 7.5H16Z" fill="#FAFAFA"/>
</svg>
