<svg width="48" height="48" viewBox="0 0 48 48" fill="none" xmlns="http://www.w3.org/2000/svg">
<path d="M13.7818 4.50704C14.6063 4.5867 15.21 5.3202 15.1305 6.14473L14.566 11.9973C13.7762 20.1839 12.0279 28.2502 9.358 36.0295L7.14218 42.4875C6.87315 43.2709 6.0194 43.688 5.23593 43.4191C4.45254 43.1501 4.03539 42.2964 4.30429 41.5129L6.52109 35.0559C9.11482 27.4985 10.8124 19.6622 11.5797 11.7092L12.1441 5.85567C12.2239 5.0313 12.9574 4.4275 13.7818 4.50704Z" fill="#FAFAFA"/>
<path d="M34.2185 4.50704C34.9914 4.43273 35.6838 4.95891 35.8328 5.7043L35.8553 5.85665L36.4197 11.7092C37.1871 19.6622 38.8855 27.4985 41.4793 35.0559L43.6951 41.5129C43.964 42.2965 43.547 43.1502 42.7635 43.4191C41.9801 43.6879 41.1273 43.2707 40.8582 42.4875L38.6414 36.0295C35.9714 28.2502 34.2234 20.1839 33.4334 11.9973L32.8689 6.14376L32.8621 5.99044C32.8661 5.23034 33.4456 4.5816 34.2185 4.50704Z" fill="#FAFAFA"/>
<path d="M22.4997 12.8974V8.45597C22.4997 7.62755 23.1713 6.95597 23.9997 6.95597C24.8282 6.95597 25.4997 7.62755 25.4997 8.45597V12.8974C25.4996 13.7257 24.8281 14.3974 23.9997 14.3974C23.1714 14.3974 22.4998 13.7257 22.4997 12.8974Z" fill="#FAFAFA"/>
<path d="M22.4997 26.2211V21.7797C22.4997 20.9512 23.1713 20.2797 23.9997 20.2797C24.8282 20.2797 25.4997 20.9512 25.4997 21.7797V26.2211L25.4919 26.3744C25.415 27.1307 24.7763 27.7211 23.9997 27.7211C23.2231 27.7211 22.5844 27.1307 22.5075 26.3744L22.4997 26.2211Z" fill="#FAFAFA"/>
<path d="M22.4997 39.5448V35.1033C22.4997 34.2749 23.1713 33.6033 23.9997 33.6033C24.8282 33.6033 25.4997 34.2749 25.4997 35.1033V39.5448L25.4919 39.6981C25.415 40.4544 24.7763 41.0448 23.9997 41.0448C23.2231 41.0448 22.5844 40.4544 22.5075 39.6981L22.4997 39.5448Z" fill="#FAFAFA"/>
</svg>
