<svg width="48" height="48" viewBox="0 0 48 48" fill="none" xmlns="http://www.w3.org/2000/svg">
<path d="M33.1367 35.25C33.9536 34.6785 35.0254 34.6942 35.8262 35.207L35.9941 35.3262L36.2246 35.4922C37.4173 36.3005 39.1736 36.75 40.5 36.75C41.3283 36.75 41.9998 37.4218 42 38.25C41.9998 39.0782 41.3283 39.75 40.5 39.75C38.7028 39.75 36.3223 39.1848 34.5312 37.9668C32.9668 39.1513 31.1105 39.75 29.25 39.75C27.4019 39.75 25.5579 39.1591 24 37.9902C22.4421 39.1591 20.5981 39.75 18.75 39.75C16.889 39.75 15.0315 39.1519 13.4668 37.9668C11.6759 39.1841 9.29676 39.75 7.5 39.75C6.67172 39.75 6.00024 39.0782 6 38.25C6.00023 37.4218 6.67171 36.75 7.5 36.75C8.91472 36.75 10.8185 36.2388 12.0059 35.3262C12.8739 34.6589 14.1439 34.6333 15.0332 35.3828C16.1176 36.297 17.4353 36.75 18.75 36.75C20.0647 36.75 21.3824 36.297 22.4668 35.3828L22.6367 35.252C23.5103 34.6415 24.7055 34.6852 25.5332 35.3828C26.6176 36.297 27.9353 36.75 29.25 36.75C30.5647 36.75 31.8824 36.297 32.9668 35.3828L33.1367 35.25Z" fill="#FAFAFA"/>
<path d="M15 17.25C15.8284 17.25 16.5 17.9216 16.5 18.75C16.5 19.5784 15.8284 20.25 15 20.25C14.1716 20.25 13.5 19.5784 13.5 18.75C13.5 17.9216 14.1716 17.25 15 17.25Z" fill="#FAFAFA"/>
<path d="M19.5 17.25C20.3284 17.25 21 17.9216 21 18.75C21 19.5784 20.3284 20.25 19.5 20.25C18.6716 20.25 18 19.5784 18 18.75C18 17.9216 18.6716 17.25 19.5 17.25Z" fill="#FAFAFA"/>
<path d="M24 17.25C24.8284 17.25 25.5 17.9216 25.5 18.75C25.5 19.5784 24.8284 20.25 24 20.25C23.1716 20.25 22.5 19.5784 22.5 18.75C22.5 17.9216 23.1716 17.25 24 17.25Z" fill="#FAFAFA"/>
<path fill-rule="evenodd" clip-rule="evenodd" d="M19.1465 8.25C20.653 8.25001 21.8545 8.29919 22.7148 8.35352C24.2789 8.45232 25.5213 9.54657 25.9395 10.9688C26.1318 11.6229 26.3216 12.2611 26.5 12.8613C27.3299 12.8981 28.0219 12.937 28.5859 12.9785C30.3885 13.1114 31.8594 14.371 32.3203 16.084C32.5677 17.0036 32.7833 17.9117 32.9824 18.7871C34.7843 18.7411 37.0101 18.725 39.0977 18.8359C40.7891 18.9262 42.0396 20.4224 41.8262 22.1035C41.5201 24.514 40.7235 29.4887 38.9082 34.4297C38.6223 35.2066 37.7596 35.6056 36.9824 35.3203C36.2053 35.0345 35.8065 34.1718 36.0918 33.3945C37.771 28.824 38.5315 24.1711 38.834 21.8262C36.3719 21.7006 33.6953 21.7519 31.832 21.8203C31.1854 21.844 30.6373 21.8695 30.2324 21.8906L29.4941 23.0879C29.2297 23.5148 28.867 23.8632 28.4434 24.1074C28.337 24.1688 28.2266 24.2235 28.1133 24.2715C27.7749 24.4145 27.4081 24.4958 27.0293 24.5059C26.2245 24.527 25.4007 24.5412 24.5703 24.5547C24.3462 24.5583 24.1215 24.5613 23.8965 24.5645C23.4118 24.5712 22.9255 24.5774 22.4395 24.582C21.7541 24.5885 21.0692 24.5891 20.3906 24.5918C19.3388 24.596 18.3019 24.5986 17.3008 24.5957C16.762 24.5942 16.2336 24.591 15.7188 24.5879C14.7574 24.5822 13.8434 24.5756 12.998 24.5664C12.5104 24.5611 12.0455 24.5566 11.6074 24.5508C11.3515 24.5474 11.1039 24.5464 10.8672 24.543C10.8495 24.5427 10.832 24.5399 10.8145 24.5391C10.1471 24.5293 9.56017 24.5224 9.07227 24.5137C9.21368 26.4695 9.63241 30.0516 10.8711 34.0566C11.1157 34.8479 10.672 35.6886 9.88086 35.9336C9.08984 36.1776 8.25067 35.7342 8.00586 34.9434C6.65583 30.5784 6.21646 26.6959 6.07227 24.6172C5.94939 22.8431 7.39644 21.4838 9.06055 21.5137C9.20878 21.5163 9.36654 21.5167 9.5332 21.5195C9.67472 20.1115 9.84527 18.4991 10.0566 16.7246C10.2449 15.1444 11.2693 13.7956 12.7246 13.2285L12.7168 11.9766C12.7057 10.0909 14.1245 8.42692 16.1113 8.32422C16.911 8.28307 17.9299 8.25 19.1465 8.25ZM21.0879 15.75C17.8795 15.75 15.6249 15.8477 14.1699 15.9453C13.5996 15.984 13.1154 16.4238 13.0371 17.0781C12.8409 18.7254 12.6798 20.2316 12.5449 21.5605C16.4659 21.6061 22.0477 21.6345 26.9434 21.5059L27.6875 20.3047C27.7483 20.2065 27.8158 20.113 27.8867 20.0234C28.2365 19.5813 28.7042 19.2489 29.2363 19.0625C29.2457 19.0592 29.2543 19.0539 29.2637 19.0508C29.4774 18.9783 29.7011 18.9322 29.9316 18.9102H29.9355C29.7777 18.2398 29.6078 17.5543 29.4219 16.8633C29.2834 16.3492 28.8628 16.0073 28.3652 15.9707C26.9331 15.8654 24.5732 15.75 21.0879 15.75ZM19.1465 11.25C17.9835 11.25 17.0162 11.2817 16.2656 11.3203C15.983 11.3352 15.7145 11.5722 15.7168 11.959L15.7207 12.8574C15.7773 12.8549 15.8347 12.854 15.8926 12.8516C16.4576 12.828 17.0836 12.8074 17.7734 12.791C18.018 12.7851 18.2705 12.7782 18.5312 12.7734C18.6922 12.7706 18.8562 12.7679 19.0234 12.7656C19.6648 12.7564 20.3523 12.75 21.0879 12.75C21.8971 12.75 22.6484 12.7549 23.3438 12.7656C23.2517 12.4541 23.1571 12.1363 23.0625 11.8145C22.9759 11.5199 22.7471 11.3617 22.5254 11.3477C21.7246 11.2971 20.5865 11.25 19.1465 11.25Z" fill="#FAFAFA"/>
<path d="M30 28.5C30.8284 28.5 31.5 29.1716 31.5 30C31.5 30.8284 30.8284 31.5 30 31.5H15C14.1716 31.5 13.5 30.8284 13.5 30C13.5 29.1716 14.1716 28.5 15 28.5H30Z" fill="#FAFAFA"/>
</svg>
