<svg width="48" height="48" viewBox="0 0 48 48" fill="none" xmlns="http://www.w3.org/2000/svg">
<path d="M11.5 33C9.567 33 8 31.433 8 29.5C8 27.567 9.567 26 11.5 26C13.433 26 15 27.567 15 29.5C15 31.433 13.433 33 11.5 33Z" fill="#FAFAFA"/>
<path d="M11.5 22C9.567 22 8 20.433 8 18.5C8 16.567 9.567 15 11.5 15C13.433 15 15 16.567 15 18.5C15 20.433 13.433 22 11.5 22Z" fill="#FAFAFA"/>
<path d="M36.5 33C34.567 33 33 31.433 33 29.5C33 27.567 34.567 26 36.5 26C38.433 26 40 27.567 40 29.5C40 31.433 38.433 33 36.5 33Z" fill="#FAFAFA"/>
<path d="M36.5 22C34.567 22 33 20.433 33 18.5C33 16.567 34.567 15 36.5 15C38.433 15 40 16.567 40 18.5C40 20.433 38.433 22 36.5 22Z" fill="#FAFAFA"/>
<path d="M23.8 33C21.867 33 20.3 31.433 20.3 29.5C20.3 27.567 21.867 26 23.8 26H24C25.933 26 27.5 27.567 27.5 29.5C27.5 31.433 25.933 33 24 33H23.8Z" fill="#FAFAFA"/>
<path d="M23.8 22C21.867 22 20.3 20.433 20.3 18.5C20.3 16.567 21.867 15 23.8 15H24C25.933 15 27.5 16.567 27.5 18.5C27.5 20.433 25.933 22 24 22H23.8Z" fill="#FAFAFA"/>
</svg>
