<svg width="48" height="48" viewBox="0 0 48 48" fill="none" xmlns="http://www.w3.org/2000/svg">
<path fill-rule="evenodd" clip-rule="evenodd" d="M40 42.5C40 43.3284 39.3284 44 38.5 44H9.5C8.67157 44 8 43.3284 8 42.5C8 41.6716 8.67157 41 9.5 41H38.5C39.3284 41 40 41.6716 40 42.5ZM33.5607 25.4393C34.1464 26.0251 34.1464 26.9749 33.5607 27.5607L26.4749 34.6464C25.1081 36.0133 22.892 36.0133 21.5252 34.6465L14.4393 27.5607C13.8536 26.9749 13.8536 26.0251 14.4393 25.4393C15.0251 24.8536 15.9749 24.8536 16.5607 25.4393L22.5 31.3787V5.5C22.5 4.67157 23.1716 4 24 4C24.8285 4 25.5 4.67157 25.5 5.5V31.3787L31.4393 25.4393C32.0251 24.8536 32.9749 24.8536 33.5607 25.4393Z" fill="#FAFAFA"/>
</svg>
