<svg width="48" height="48" viewBox="0 0 48 48" fill="none" xmlns="http://www.w3.org/2000/svg">
<path fill-rule="evenodd" clip-rule="evenodd" d="M22 5C19.2386 5 17 7.23858 17 10C17 12.7614 19.2386 15 22 15C22.0207 15 22.0414 14.9999 22.062 14.9996C22.0211 14.6718 22 14.3382 22 14C22 11.0221 23.6263 8.42662 26.0373 7.04927C25.1269 5.80594 23.6564 5 22 5ZM28.9672 6.06623C27.5944 3.63989 24.9901 2 22 2C17.5817 2 14 5.58172 14 10C14 14.4183 17.5817 18 22 18C22.3495 18 22.6943 17.9775 23.0328 17.9338C24.4056 20.3601 27.0099 22 30 22C34.4183 22 38 18.4183 38 14C38 9.58172 34.4183 6 30 6C29.6505 6 29.3057 6.02251 28.9672 6.06623ZM30 9C29.492 9 29.0043 9.07528 28.546 9.21429C26.4922 9.83721 25 11.7463 25 14C25 14.6028 25.106 15.1775 25.2991 15.7086C25.998 17.6309 27.841 19 30 19C32.7614 19 35 16.7614 35 14C35 11.2386 32.7614 9 30 9ZM4 29.5C4 26.4624 6.46243 24 9.5 24C11.3543 24 12.9943 24.9176 13.9906 26.3236C19.358 24.9736 23.8474 24.5806 27.36 24.8074C30.9895 25.0417 33.8068 25.955 35.3626 27.4022C35.9034 27.9053 36.3383 28.5223 36.5478 29.2275C36.8906 28.9773 37.2232 28.7227 37.5418 28.4696C39.709 26.7474 43.0715 26.8385 44.9289 29.1632C46.3386 30.9275 46.4151 33.5304 44.8092 35.2987C39.9365 40.6644 33.762 44.3481 25.9159 43.974C24.0745 43.8862 21.8785 43.3266 20.2215 42.8273C19.3761 42.5726 18.6381 42.3233 18.1109 42.1375C17.8657 42.051 17.6653 41.9781 17.52 41.9243H13.8042C12.7965 43.1893 11.2429 44 9.5 44C6.46243 44 4 41.5376 4 38.5V29.5ZM14.9839 38.9243H17.7924C17.9773 38.9243 18.1606 38.9585 18.3331 39.0252M18.3331 39.0252L18.343 39.029L18.3801 39.0431C18.4136 39.0558 18.4645 39.075 18.5312 39.0997C18.6647 39.1493 18.8612 39.221 19.1081 39.308C19.6026 39.4823 20.2956 39.7164 21.087 39.9549C22.7037 40.442 24.6052 40.9081 26.0588 40.9774C32.7436 41.2961 38.1119 38.2112 42.5883 33.2819C43.1174 32.6993 43.158 31.7528 42.5851 31.0358C41.8868 30.1617 40.4456 29.9939 39.4082 30.8183C37.6091 32.2479 35.0706 33.9861 32.5348 34.6899C31.6855 34.9257 30.842 35.1113 30.0602 35.2569C28.8981 35.4986 27.5933 35.6697 26.1541 35.7627L26.1162 35.7652L26.0845 35.7672L26.0811 35.7673L26.0752 35.7677L26.0722 35.7679C26.072 35.7679 26.0703 35.768 25.9874 34.2703L26.0722 35.7679C25.2471 35.8136 24.5386 35.1835 24.49 34.3586C24.4413 33.5337 25.069 32.8248 25.8937 32.7732C25.9186 32.7716 25.9435 32.7701 25.9683 32.7684L26.0198 32.765C26.1017 32.7592 26.2249 32.7499 26.3835 32.7361C26.7011 32.7083 27.1592 32.6626 27.7109 32.5909C28.2338 32.5231 28.8351 32.4327 29.4767 32.314C31.3337 31.9247 32.5287 31.3747 33.1734 30.8503C33.646 30.4659 33.6807 30.2188 33.6832 30.1726C33.685 30.1402 33.6881 29.9418 33.3193 29.5988C32.5215 28.8567 30.5524 28.0197 27.1668 27.8011C24.078 27.6017 19.9952 27.9315 14.99 29.1663C14.9966 29.2767 15 29.3879 15 29.5V38.5C15 38.6428 14.9946 38.7843 14.9839 38.9243M9.5 27C8.11929 27 7 28.1193 7 29.5V38.5C7 39.8807 8.11929 41 9.5 41C10.8807 41 12 39.8807 12 38.5V29.5C12 28.1193 10.8807 27 9.5 27Z" fill="#FAFAFA"/>
</svg>
