<svg width="48" height="48" viewBox="0 0 48 48" fill="none" xmlns="http://www.w3.org/2000/svg">
<path d="M17.0508 27.5859C17.8792 27.5859 18.5508 28.2575 18.5508 29.0859C18.5508 29.9144 17.8792 30.5859 17.0508 30.5859H15.5742V32.8086C15.5742 33.637 14.9026 34.3086 14.0742 34.3086C13.2458 34.3086 12.5742 33.637 12.5742 32.8086V30.5859H11.0977C10.2692 30.5859 9.59766 29.9144 9.59766 29.0859C9.59766 28.2575 10.2692 27.5859 11.0977 27.5859H17.0508Z" fill="#FAFAFA"/>
<path d="M29.7637 21.3652C30.4627 21.3654 31.1327 21.6425 31.627 22.1367C32.1212 22.631 32.4003 23.301 32.4004 24C32.4004 24.6992 32.1213 25.3708 31.627 25.8652C31.1327 26.3592 30.4625 26.6366 29.7637 26.6367C29.0645 26.6367 28.3928 26.3596 27.8984 25.8652C27.4041 25.3708 27.127 24.6992 27.127 24C27.1271 23.3012 27.4045 22.6309 27.8984 22.1367C28.3928 21.6423 29.0645 21.3652 29.7637 21.3652Z" fill="#FAFAFA"/>
<path fill-rule="evenodd" clip-rule="evenodd" d="M30.5293 13.8242C31.0245 13.8633 31.5026 14.0333 31.9141 14.3164C32.3847 14.6404 32.7476 15.0988 32.9531 15.6309L33.332 16.6172L34.3711 17.2148L35.4531 17.0488C36.0091 16.9736 36.5758 17.0659 37.0801 17.3125C37.5855 17.5601 38.0076 17.9531 38.2891 18.4395L38.293 18.4473L38.8281 19.3828C39.1118 19.8729 39.2433 20.4372 39.2031 21.0039C39.1628 21.5715 38.9496 22.1131 38.5957 22.5605L38.5977 22.5625L37.9434 23.3945V24.5918L38.6133 25.4238L38.6172 25.4297C38.9745 25.8779 39.1882 26.4255 39.2285 26.998L39.2363 27.2129C39.2338 27.7114 39.0996 28.2024 38.8457 28.6348L38.8438 28.6328L38.3203 29.5547L38.3164 29.5625C38.0348 30.0493 37.6141 30.4422 37.1094 30.6895C36.6039 30.9374 36.0367 31.0264 35.4805 30.9512L35.4551 30.9492L34.3984 30.7852L33.3613 31.3809L32.9785 32.3711C32.7728 32.9033 32.4101 33.3598 31.9395 33.6836C31.4694 34.0071 30.913 34.1837 30.3418 34.1855H29.2109C28.711 34.1841 28.2205 34.0508 27.791 33.8008L27.6113 33.6855C27.1413 33.3621 26.7781 32.9043 26.5723 32.3711L26.1914 31.3828L25.1523 30.7852L24.0957 30.9473L24.0723 30.9512C23.5161 31.0266 22.9489 30.9352 22.4434 30.6875C21.9378 30.4401 21.5179 30.0488 21.2363 29.5625L21.2324 29.5547L20.7051 28.6348C20.4149 28.1407 20.2818 27.5695 20.3223 26.998L20.3457 26.7852C20.4184 26.2915 20.6209 25.8242 20.9336 25.4316L21.582 24.6055V23.4082L20.9121 22.5781L20.9062 22.5703C20.5494 22.1221 20.3374 21.5758 20.2969 21.0039C20.2564 20.4318 20.3889 19.8598 20.6797 19.3652L21.2051 18.4473L21.209 18.4395C21.4906 17.9531 21.9114 17.5619 22.416 17.3145L22.6094 17.2285C22.9985 17.0727 23.4176 17.0039 23.8359 17.0293L24.0449 17.0508L24.0703 17.0527L25.1309 17.2148L26.1914 16.6133L26.5723 15.6309C26.778 15.098 27.1409 14.6401 27.6113 14.3164L27.791 14.2012C28.2208 13.9509 28.7113 13.8179 29.2109 13.8164H30.3145L30.5293 13.8242ZM28.7969 18.1973C28.672 18.5192 28.4389 18.7883 28.1387 18.959L26.1602 20.082C25.8675 20.2479 25.5259 20.3103 25.1934 20.2598L23.75 20.0391L23.3223 20.7871L24.25 21.9375C24.4647 22.2041 24.582 22.5366 24.582 22.8789V25.123C24.582 25.4587 24.4689 25.7847 24.2617 26.0488L23.3477 27.2109L23.7754 27.9609L25.2207 27.7422C25.5565 27.6912 25.9009 27.7564 26.1953 27.9258L28.1465 29.0469L28.3555 29.1934C28.5508 29.3556 28.7041 29.5654 28.7969 29.8047L29.3301 31.1855H30.2227L30.7559 29.8047L30.8672 29.5762C30.998 29.358 31.1833 29.1751 31.4062 29.0469L33.3574 27.9258L33.5859 27.8184C33.8222 27.7313 34.0784 27.704 34.3301 27.7422L35.7734 27.9609L36.2012 27.2129L35.2754 26.0645C35.0604 25.7978 34.9434 25.4656 34.9434 25.123V22.8789C34.9434 22.5431 35.0564 22.2173 35.2637 21.9531L36.1738 20.7871L35.7461 20.0391L34.3047 20.2598C33.9688 20.311 33.6246 20.2455 33.3301 20.0762L31.3789 18.9551C31.0822 18.7842 30.8524 18.5165 30.7285 18.1973L30.1953 16.8164H29.3301L28.7969 18.1973Z" fill="#FAFAFA"/>
<path d="M13.9805 14.9453C14.8089 14.9453 15.4805 15.6188 15.4805 16.4473V24.3496C15.4794 25.1771 14.8082 25.8477 13.9805 25.8477C13.1524 25.8477 12.481 25.1756 12.4805 24.3477V16.4453C12.481 15.6173 13.1524 14.9453 13.9805 14.9453Z" fill="#FAFAFA"/>
<path fill-rule="evenodd" clip-rule="evenodd" d="M40 8C42.2091 8 44 9.79086 44 12V36C44 38.2091 42.2091 40 40 40H8L7.5918 39.9785C5.57445 39.774 4 38.0713 4 36V12C4 9.79086 5.79086 8 8 8H40ZM8 11C7.44772 11 7 11.4477 7 12V36C7 36.5523 7.44771 37 8 37H40C40.5523 37 41 36.5523 41 36V12C41 11.4477 40.5523 11 40 11H8Z" fill="#FAFAFA"/>
</svg>
