<svg width="48" height="48" viewBox="0 0 48 48" fill="none" xmlns="http://www.w3.org/2000/svg">
<path fill-rule="evenodd" clip-rule="evenodd" d="M24 4.5C25.3526 4.5 26.651 5.03771 27.6074 5.99414C28.5634 6.95043 29.0995 8.24742 29.0996 9.59961C29.0996 10.6893 28.7447 11.7386 28.1094 12.6074L36.5 18.9004H37.2012C38.0294 18.9006 38.7012 19.5721 38.7012 20.4004C38.7009 21.2246 38.0356 21.8919 37.2129 21.8984L34.084 36.4961C34.0979 36.5066 34.1132 36.5166 34.127 36.5273C34.8119 37.0623 35.2987 37.8112 35.5098 38.6543L36.2559 41.6367C36.3674 42.0843 36.268 42.5601 35.9844 42.9238C35.7001 43.2875 35.2624 43.5019 34.8008 43.502H13.2012C12.7396 43.502 12.3038 43.2874 12.0195 42.9238C11.7355 42.56 11.6344 42.0846 11.7461 41.6367L12.4922 38.6543C12.7032 37.8111 13.19 37.0623 13.875 36.5273C13.8877 36.5174 13.9012 36.5078 13.9141 36.498L10.7852 21.8984C9.9641 21.8901 9.30104 21.2234 9.30078 20.4004C9.30078 19.572 9.97235 18.9004 10.8008 18.9004H11.5L19.8887 12.6074C19.2537 11.7389 18.9004 10.6886 18.9004 9.59961C18.9005 8.24715 19.4382 6.95048 20.3945 5.99414C21.3509 5.0378 22.6475 4.5001 24 4.5ZM16.127 38.7129C15.9797 38.7374 15.8396 38.7997 15.7207 38.8926C15.5631 39.016 15.4509 39.1886 15.4023 39.3828L15.123 40.502H32.8789L32.5996 39.3828C32.551 39.1886 32.4388 39.016 32.2812 38.8926C32.1628 38.8001 32.0235 38.7377 31.877 38.7129L31.7266 38.7012H16.2754L16.127 38.7129ZM16.8125 35.7012H19.332C18.8625 34.8607 18.6022 33.9104 18.5859 32.9316L18.584 32.9336C18.5179 31.915 18.7445 30.8983 19.2363 30.0039C19.7284 29.1095 20.4656 28.3724 21.3613 27.8828L21.5254 27.8047C21.9193 27.6481 22.3656 27.6657 22.75 27.8574C22.844 27.9043 22.9311 27.9614 23.0117 28.0254C23.0107 28.0114 23.011 27.9964 23.0098 27.9824C22.9507 27.3131 22.6871 26.6774 22.2559 26.1621C21.8373 25.6617 21.7914 24.9476 22.1406 24.3965C22.4899 23.8462 23.1544 23.5836 23.7852 23.748C25.7824 24.2701 27.5317 25.4819 28.7227 27.168C29.9133 28.8538 30.4704 30.9065 30.2949 32.9629L30.293 32.9609C30.2626 33.9308 29.9939 34.8699 29.5234 35.7012H31.1875L34.1445 21.9004H13.8555L16.8125 35.7012ZM26.0117 28.5605C25.9657 29.5552 25.6872 30.5299 25.1875 31.4004C24.9388 31.8336 24.4904 32.1152 23.9922 32.1504C23.2181 32.2044 22.453 31.9727 21.8359 31.5059C21.6403 31.8855 21.5505 32.3113 21.5781 32.7383C21.5802 32.7703 21.5801 32.8039 21.5801 32.8359C21.5805 33.5953 21.8829 34.3244 22.4199 34.8613C22.9539 35.3949 23.6771 35.6937 24.4316 35.6973C25.1886 35.6829 25.9122 35.3778 26.4473 34.8418C26.984 34.3036 27.2902 33.5764 27.3008 32.8164L27.3066 32.709C27.422 31.3574 27.0559 30.0066 26.2734 28.8984C26.1911 28.7819 26.1019 28.67 26.0117 28.5605ZM16.502 18.9004H31.498L25.9004 14.7012H22.0996L16.502 18.9004ZM24 7.5C23.4432 7.5001 22.9094 7.7215 22.5156 8.11523C22.1219 8.50897 21.9005 9.0428 21.9004 9.59961C21.9004 10.1564 22.122 10.6902 22.5156 11.084C22.9094 11.4777 23.4432 11.6991 24 11.6992C24.557 11.6992 25.0905 11.4778 25.4844 11.084C25.8782 10.6902 26.0996 10.1566 26.0996 9.59961C26.0995 9.0428 25.8781 8.50897 25.4844 8.11523C25.0906 7.72165 24.5568 7.5 24 7.5Z" fill="#FAFAFA"/>
</svg>
