<svg width="48" height="48" viewBox="0 0 48 48" fill="none" xmlns="http://www.w3.org/2000/svg">
<path fill-rule="evenodd" clip-rule="evenodd" d="M12 14C12 7.37258 17.3726 2 24 2C30.6274 2 36 7.37258 36 14V24C36 30.6274 30.6274 36 24 36C17.3726 36 12 30.6274 12 24V14ZM24 5C19.0294 5 15 9.02944 15 14V24C15 28.9706 19.0294 33 24 33C28.9706 33 33 28.9706 33 24V14C33 9.02944 28.9706 5 24 5ZM24 10C24.8284 10 25.5 10.6716 25.5 11.5V16.5C25.5 17.3284 24.8284 18 24 18C23.1716 18 22.5 17.3284 22.5 16.5V11.5C22.5 10.6716 23.1716 10 24 10ZM16.7519 39.668C17.2115 38.9787 18.1428 38.7924 18.832 39.2519L22.6132 41.7727C23.453 42.3326 24.547 42.3326 25.3868 41.7727L29.1679 39.2519C29.8572 38.7924 30.7885 38.9787 31.2481 39.668C31.7076 40.3572 31.5213 41.2886 30.8321 41.7481L27.0509 44.2689C25.2034 45.5005 22.7966 45.5005 20.9492 44.2689L17.168 41.7481C16.4787 41.2886 16.2924 40.3572 16.7519 39.668Z" fill="#FAFAFA"/>
</svg>
