<svg width="48" height="48" viewBox="0 0 48 48" fill="none" xmlns="http://www.w3.org/2000/svg">
<path fill-rule="evenodd" clip-rule="evenodd" d="M28.5449 16.4082C29.1028 15.6757 30.0574 15.3257 30.9746 15.584L31.1699 15.6484L31.3574 15.7285C32.2595 16.166 32.748 17.1316 32.6504 18.084L32.4531 19.9902L33.2422 20.1855C33.9015 20.3484 34.4318 20.7898 34.7305 21.3594L34.8438 21.6113C35.1058 22.2978 35.0373 23.078 34.6465 23.709L29.8711 31.4082C29.2939 32.3388 28.1228 32.7647 27.0625 32.3281C26.0272 31.9004 25.4872 30.813 25.6582 29.7734L26.1621 26.707L25.4512 26.4219L25.4492 26.4199C24.7845 26.1506 24.3007 25.5931 24.1016 24.9355C23.9029 24.2785 23.9981 23.5613 24.3672 22.9785L28.4316 16.5703L28.5449 16.4082ZM27.3105 23.9355L28.3984 24.377C29.0491 24.6398 29.4321 25.3193 29.3184 26.0117L29.1836 26.8203L31.6289 22.877L30.4688 22.5898C29.743 22.4104 29.2594 21.7242 29.3359 20.9805L29.3633 20.6992L27.3105 23.9355Z" fill="#FAFAFA"/>
<path d="M17.5 29C18.3284 29 19 29.6716 19 30.5C19 31.3284 18.3284 32 17.5 32H13.5C12.6716 32 12 31.3284 12 30.5C12 29.6716 12.6716 29 13.5 29H17.5Z" fill="#FAFAFA"/>
<path d="M17.5 23C18.3284 23 19 23.6716 19 24.5C19 25.3284 18.3284 26 17.5 26H13.5C12.6716 26 12 25.3284 12 24.5C12 23.6716 12.6716 23 13.5 23H17.5Z" fill="#FAFAFA"/>
<path d="M14 16C15.1046 16 16 16.8954 16 18C16 19.1046 15.1046 20 14 20C12.8954 20 12 19.1046 12 18C12 16.8954 12.8954 16 14 16Z" fill="#FAFAFA"/>
<path fill-rule="evenodd" clip-rule="evenodd" d="M40 8C42.2091 8 44 9.79086 44 12V36C44 38.2091 42.2091 40 40 40H8L7.5918 39.9785C5.57445 39.774 4 38.0713 4 36V12C4 9.79086 5.79086 8 8 8H40ZM8 11C7.44772 11 7 11.4477 7 12V36C7 36.5523 7.44772 37 8 37H40C40.5523 37 41 36.5523 41 36V12C41 11.4477 40.5523 11 40 11H8Z" fill="#FAFAFA"/>
</svg>
