<svg width="48" height="48" viewBox="0 0 48 48" fill="none" xmlns="http://www.w3.org/2000/svg">
<path d="M27.5001 20.5002C28.3285 20.5002 29.0001 21.1718 29.0001 22.0002C29.0001 22.8286 28.3285 23.5002 27.5001 23.5002H23.5001C22.6716 23.5002 22.0001 22.8286 22.0001 22.0002C22.0001 21.1718 22.6716 20.5002 23.5001 20.5002H27.5001Z" fill="#FAFAFA"/>
<path fill-rule="evenodd" clip-rule="evenodd" d="M28.4532 4.50802C29.1828 4.58198 29.751 5.1791 29.7911 5.91818L37.2227 4.5256L37.3887 4.50412C37.7735 4.47547 38.1568 4.59699 38.4571 4.84592C38.8004 5.13085 39 5.55406 39.0001 6.00021V12.0002C39.0001 12.4464 38.8004 12.8695 38.4571 13.1545C38.1138 13.4391 37.6611 13.557 37.2227 13.4748L29.8008 12.0822V12.3322C30.5291 12.7648 31.1996 13.2959 31.7911 13.9143C32.6543 14.8168 33.3351 15.8862 33.7989 17.0569C34.2625 18.2272 34.5019 19.4793 34.502 20.7424V42.0002C34.502 42.8282 33.8298 43.4995 33.002 43.5002H17.334C16.5056 43.5002 15.834 42.8286 15.834 42.0002V20.7209L15.8458 20.2463C15.963 17.8728 16.9176 15.6103 18.5508 13.9065C19.1447 13.287 19.8127 12.7598 20.5333 12.3322V10.7756H15.0176L10.7149 16.7072L10.6172 16.8283C10.1109 17.3949 9.24764 17.497 8.6192 17.0412C7.94923 16.5549 7.79956 15.6179 8.28521 14.9475L13.0372 8.39474L13.1504 8.25607C13.4324 7.95138 13.8315 7.77563 14.252 7.7756H20.5333V6.00021L20.5411 5.84592C20.6183 5.09014 21.2571 4.50046 22.0333 4.50021H28.3008L28.4532 4.50802ZM25.168 14.0529C23.5129 14.0529 21.9098 14.7383 20.7169 15.9826C19.5217 17.2294 18.8378 18.936 18.834 20.7287V40.5002H31.502V20.7424C31.5019 19.8551 31.3333 18.9768 31.0098 18.1604C30.6864 17.3443 30.2142 16.6066 29.6231 15.9885C29.0319 15.3703 28.332 14.8837 27.5684 14.5529C26.9004 14.2637 26.192 14.0976 25.4747 14.0608L25.168 14.0529ZM23.5333 11.0529H26.8008V7.50021H23.5333V11.0529ZM31.0001 8.74435V9.25412L36.0001 10.1916V7.80685L31.0001 8.74435Z" fill="#FAFAFA"/>
</svg>
