<svg width="48" height="48" viewBox="0 0 48 48" fill="none" xmlns="http://www.w3.org/2000/svg">
<path fill-rule="evenodd" clip-rule="evenodd" d="M18.816 15.9766C19.1082 15.9766 19.3885 16.0455 19.6422 16.1641L26.3219 19.043L29.1031 16.8633C29.4711 16.5486 29.9021 16.3104 30.3785 16.1797C30.8915 16.039 31.4286 16.0285 31.9469 16.1504C31.9597 16.1534 31.9732 16.1568 31.9859 16.1602C32.6072 16.3239 33.1594 16.6603 33.5992 17.1113C34.0371 17.5605 34.3536 18.112 34.5367 18.7051L34.6168 19.0039C34.7789 19.71 34.7569 20.4551 34.5484 21.1504C34.3101 21.9449 33.8291 22.6667 33.1441 23.1641L33.1363 23.1699L21.3473 31.6055L21.3453 31.6016C20.9861 31.8642 20.5468 32.0234 20.0758 32.0234C19.5892 32.0233 19.1345 31.8568 18.7691 31.5781C18.7601 31.5713 18.7506 31.5637 18.7418 31.5566L14.4215 28.0996C14.4123 28.0922 14.4031 28.0837 14.3941 28.0762C14.1583 27.8777 13.9829 27.6319 13.8687 27.373C13.7548 27.1144 13.6988 26.8377 13.6988 26.5645C13.6989 26.2912 13.7547 26.0145 13.8687 25.7559C13.9662 25.5349 14.1104 25.3268 14.2965 25.1465H14.2926L16.109 23.3145L16.1266 23.2949C16.3669 23.0607 16.6775 22.8819 17.0348 22.8027L17.3062 22.7637C17.487 22.751 17.6679 22.7651 17.8434 22.8047L18.1031 22.8828L18.2672 22.957C18.3198 22.9849 18.3705 23.0168 18.4195 23.0508L19.7633 23.9824L20.2418 23.5977L16.3668 20.7754C16.3149 20.7376 16.265 20.6965 16.2184 20.6523C15.9986 20.4443 15.8352 20.1967 15.7281 19.9355C15.648 19.7402 15.5976 19.5357 15.5777 19.3301L15.568 19.123L15.5777 18.916C15.5976 18.7104 15.648 18.5059 15.7281 18.3105L15.818 18.1172C15.9193 17.9275 16.0535 17.7479 16.2184 17.5918L16.275 17.541L17.609 16.4004L17.8219 16.25C18.1165 16.0761 18.458 15.9766 18.816 15.9766ZM31.1715 19.0723C31.1397 19.0811 31.0921 19.1018 31.0387 19.1504C31.0116 19.1751 30.9835 19.2 30.9547 19.2227L27.4742 21.9531C27.042 22.2922 26.4592 22.3678 25.9547 22.1504L19.5699 19.3984L23.5914 22.3262C23.9687 22.6009 24.1972 23.0373 24.2086 23.5039C24.2197 23.9705 24.0117 24.4164 23.648 24.709L20.7691 27.0254C20.2508 27.4422 19.5186 27.4673 18.9723 27.0879L17.5621 26.1074L17.1969 26.4766L20.1051 28.8027L31.3824 20.7324C31.4877 20.6554 31.6066 20.511 31.6734 20.2891C31.7403 20.0657 31.74 19.8156 31.6715 19.5938L31.6695 19.5898C31.6177 19.4222 31.5363 19.2928 31.4508 19.2051C31.3763 19.1288 31.303 19.0902 31.2437 19.0703C31.2201 19.0669 31.1965 19.0654 31.1715 19.0723Z" fill="#FAFAFA"/>
<path fill-rule="evenodd" clip-rule="evenodd" d="M41.1559 10.5C41.9474 10.5001 42.7302 10.7874 43.3258 11.334C43.9256 11.8847 44.2906 12.661 44.2906 13.5V18.0156C44.2842 18.5963 44.0493 19.1346 43.6656 19.5352C43.2846 19.9326 42.7808 20.1719 42.2594 20.2383L42.2437 20.2402C41.1856 20.3634 40.2377 20.8361 39.5699 21.5371C38.9054 22.2348 38.5625 23.1079 38.5699 23.9863V23.998C38.5705 24.8715 38.9176 25.7383 39.5816 26.4297C40.2489 27.1242 41.1921 27.5924 42.2437 27.7148L42.2613 27.7168C42.7175 27.7749 43.1587 27.9646 43.5172 28.2773L43.6656 28.4199L43.8023 28.5762C44.1041 28.9551 44.2848 29.4297 44.2906 29.9375V34.4551C44.2906 35.2941 43.9256 36.0704 43.3258 36.6211C42.7302 37.1676 41.9473 37.455 41.1559 37.4551H6.83945C6.0479 37.455 5.26512 37.1677 4.66952 36.6211C4.06956 36.0704 3.7047 35.2942 3.70468 34.4551V29.9844C3.7111 29.4037 3.94596 28.8654 4.32968 28.4648L4.47812 28.3223C4.83669 28.0094 5.2796 27.8197 5.73593 27.7617H5.74374C6.79123 27.6349 7.72926 27.1643 8.39218 26.4707C9.05197 25.7799 9.39609 24.9158 9.39609 24.0449C9.39607 23.1741 9.05195 22.3099 8.39218 21.6191C7.72927 20.9255 6.79119 20.4569 5.74374 20.3301C5.17681 20.261 4.63144 19.9867 4.23984 19.5293C3.88067 19.1097 3.68344 18.5673 3.70468 18V13.5C3.70468 12.6609 4.06955 11.8847 4.66952 11.334C5.26512 10.7874 6.04788 10.5 6.83945 10.5H41.1559ZM6.83945 13.5C6.77142 13.5 6.72555 13.5248 6.70468 13.541V17.4492C8.17772 17.7472 9.53406 18.4709 10.5621 19.5469C11.7315 20.7712 12.3961 22.3688 12.3961 24.0449C12.3961 25.7211 11.7316 27.3186 10.5621 28.543C9.53415 29.6189 8.1776 30.3406 6.70468 30.6387V34.4121C6.72506 34.4283 6.77038 34.455 6.83945 34.4551H41.1559C41.2248 34.455 41.2702 34.4283 41.2906 34.4121V30.5977C39.8135 30.3046 38.4528 29.5832 37.4195 28.5078C36.243 27.2831 35.5713 25.683 35.5699 24.002C35.5588 22.315 36.2227 20.7029 37.398 19.4688C38.4337 18.3815 39.8032 17.6505 41.2906 17.3555V13.541C41.2698 13.5249 41.2238 13.5001 41.1559 13.5H6.83945Z" fill="#FAFAFA"/>
</svg>
