<svg width="48" height="48" viewBox="0 0 48 48" fill="none" xmlns="http://www.w3.org/2000/svg">
<path fill-rule="evenodd" clip-rule="evenodd" d="M15.004 17.9297C15.7408 17.9297 16.3396 18.5672 16.34 19.3535V30.459C16.866 30.6648 17.3521 30.987 17.756 31.418C18.485 32.1962 18.8943 33.2532 18.8946 34.3535C18.8944 35.4534 18.4844 36.5089 17.756 37.2871C17.0268 38.0651 16.0364 38.5035 15.006 38.5039C14.1038 38.5038 13.2332 38.1695 12.5411 37.5645L12.256 37.2891C11.5267 36.5107 11.1156 35.4541 11.1153 34.3535C11.1156 33.253 11.5267 32.1963 12.256 31.418C12.6596 30.9875 13.1441 30.6646 13.67 30.459V19.3535C13.6704 18.5674 14.2675 17.93 15.004 17.9297ZM15.004 33.0527L14.9943 33.0508C14.6751 33.0539 14.3689 33.1909 14.1427 33.4316C13.9141 33.6756 13.7856 34.0084 13.7853 34.3535C13.7855 34.6986 13.9142 35.0294 14.1427 35.2734L14.3282 35.4375C14.527 35.5788 14.7634 35.6562 15.006 35.6562C15.3293 35.6558 15.6389 35.5172 15.8673 35.2734L16.0216 35.0762C16.1538 34.8642 16.2265 34.6119 16.2267 34.3535C16.2264 34.0085 16.0958 33.6756 15.8673 33.4316C15.6412 33.1909 15.3347 33.0541 15.0157 33.0508L15.004 33.0527Z" fill="#FAFAFA"/>
<path fill-rule="evenodd" clip-rule="evenodd" d="M15.0001 4C16.7084 4.00039 18.3485 4.72463 19.5568 6.01367L19.7775 6.26172C20.8477 7.52351 21.4454 9.16895 21.4454 10.8789V27.6914C22.568 28.9212 23.3651 30.4527 23.7462 32.1289L23.881 32.8418C24.1374 34.5128 23.9772 36.2325 23.4083 37.8223C22.8393 39.4121 21.8852 40.8082 20.6505 41.8711L20.1036 42.3066C18.6028 43.4095 16.822 43.9997 15.0001 44C13.4061 43.9998 11.8436 43.5469 10.4728 42.6953L9.89659 42.3066C8.39561 41.2036 7.24238 39.6394 6.59191 37.8223L6.37316 37.1328C5.92082 35.5098 5.87804 33.7829 6.25402 32.1289L6.43956 31.4277C6.86613 30.0253 7.59223 28.7478 8.55675 27.6914V10.8789C8.5568 9.05458 9.23484 7.30366 10.4435 6.01367L10.6739 5.78125C11.856 4.63879 13.3979 4.00024 15.0001 4ZM15.0001 6.84961C14.1243 6.84984 13.2792 7.17451 12.6075 7.76172L12.3302 8.02734C11.6221 8.78309 11.2248 9.81009 11.2247 10.8789V28.2949C11.2247 28.6992 11.0631 29.0854 10.7814 29.3555C9.94537 30.1536 9.3233 31.1739 8.97863 32.3066L8.84777 32.8008C8.58335 33.9642 8.61364 35.1787 8.93175 36.3203L9.08605 36.8047L9.27355 37.2754C9.74947 38.3528 10.4865 39.2799 11.4103 39.959L11.8146 40.2324C12.779 40.8318 13.8784 41.1502 15.0001 41.1504C16.2816 41.1501 17.5345 40.7345 18.59 39.959L18.9747 39.6523C19.8428 38.9048 20.514 37.9243 20.9142 36.8066L21.0685 36.3203C21.3413 35.3414 21.403 34.3086 21.2482 33.3008L21.1544 32.8008C20.8899 31.6374 20.3395 30.572 19.5665 29.7129L19.2208 29.3574C18.9382 29.0872 18.7775 28.6999 18.7775 28.2949V10.8789C18.7774 9.8103 18.3778 8.78492 17.67 8.0293C16.9624 7.27451 16.0006 6.85 15.0001 6.84961Z" fill="#FAFAFA"/>
<path d="M27.7208 3.74023C28.5492 3.74023 29.2208 4.41181 29.2208 5.24023V5.96094L30.3087 5.30078C31.0164 4.87044 31.9387 5.09521 32.3693 5.80273C32.7996 6.51056 32.5751 7.43288 31.8673 7.86328L29.2208 9.47266V13.7695L33.795 16.9609L38.2208 14.416V11.2402C38.2208 10.412 38.8927 9.74056 39.7208 9.74023C40.5492 9.74023 41.2208 10.4118 41.2208 11.2402V12.6895L41.8693 12.3184C42.5872 11.9062 43.5052 12.1534 43.9181 12.8711C44.3308 13.5889 44.0827 14.5067 43.3653 14.9199L42.6114 15.3516L43.7228 16.0645C44.4197 16.5115 44.6225 17.4394 44.1759 18.1367C43.7289 18.8338 42.801 19.0365 42.1036 18.5898L39.6818 17.0371L35.2208 19.6035V23.875L39.6876 26.4297L42.1193 24.9141C42.8222 24.4761 43.7474 24.6919 44.1857 25.3945C44.6237 26.0976 44.4082 27.0228 43.7052 27.4609L42.6446 28.1191L43.3966 28.5508C44.1155 28.9619 44.3658 29.8786 43.9552 30.5977C43.544 31.3165 42.6273 31.5671 41.9083 31.1562L41.2208 30.7617V32.2402C41.2207 33.0686 40.5492 33.7402 39.7208 33.7402C38.8927 33.7399 38.2209 33.0684 38.2208 32.2402V29.0469L33.795 26.5156L29.213 29.7305V30.043L31.836 31.6387C32.543 32.0693 32.7678 32.9918 32.338 33.6992C31.9074 34.4068 30.9831 34.6315 30.2755 34.2012L29.215 33.5547L29.2169 34.0352L31.836 35.627C32.543 36.0574 32.7676 36.98 32.338 37.6875C31.9078 38.3949 30.9851 38.6208 30.2775 38.1914L29.2208 37.5488L29.2228 38.2383C29.2236 39.0664 28.5508 39.739 27.7228 39.7402C26.8949 39.7407 26.2239 39.0701 26.2228 38.2422L26.2189 34.9863C26.2147 34.9311 26.2149 34.876 26.2169 34.8203L26.213 29.7539L23.1114 27.6699C22.4241 27.2082 22.2402 26.2774 22.7013 25.5898C23.1632 24.9022 24.0956 24.718 24.7833 25.1797L27.6935 27.1328L32.2208 23.959V19.5195L27.6954 16.3633L24.7814 18.3223C24.094 18.7837 23.1634 18.6009 22.7013 17.9141C22.2393 17.2265 22.4219 16.294 23.1095 15.832L26.2208 13.7422V9.44922L23.6251 7.88672C22.9157 7.45944 22.6865 6.53769 23.1134 5.82812C23.5407 5.1186 24.4624 4.88936 25.172 5.31641L26.2208 5.94727V5.24023C26.2208 4.41201 26.8927 3.74056 27.7208 3.74023Z" fill="#FAFAFA"/>
</svg>
