<svg width="48" height="48" viewBox="0 0 48 48" fill="none" xmlns="http://www.w3.org/2000/svg">
<path fill-rule="evenodd" clip-rule="evenodd" d="M9.27754 8.14309C10.3188 6.79169 11.9283 6 13.6343 6H34.3657C36.0718 6 37.6812 6.79169 38.7225 8.14309L43.6882 14.5878C43.8904 14.8502 44 15.1721 44 15.5034V17.5042C44 19.4857 43.2143 21.2823 41.9444 22.6168V36.5C41.9444 39.5376 39.482 42 36.4444 42H11.5556C8.51799 42 6.05556 39.5376 6.05556 36.5V22.6168C4.78571 21.2823 4 19.4857 4 17.5042V15.5034C4 15.1721 4.10963 14.8502 4.3118 14.5878L9.27754 8.14309ZM9.05556 24.56V36.5C9.05556 37.8807 10.1748 39 11.5556 39H18.3889L18.3889 34.4974C18.3889 31.4211 20.9395 28.9958 24 28.9958C27.0605 28.9958 29.6111 31.4211 29.6111 34.4975L29.6111 39H36.4444C37.8252 39 38.9444 37.8807 38.9444 36.5V24.56C38.1283 24.8493 37.2487 25.0067 36.3333 25.0067C33.8217 25.0067 31.5698 23.8166 30.1667 21.9643C28.7636 23.8166 26.5117 25.0067 24 25.0067C21.4883 25.0067 19.2364 23.8166 17.8333 21.9643C16.4302 23.8166 14.1783 25.0067 11.6667 25.0067C10.7513 25.0067 9.87167 24.8493 9.05556 24.56ZM19.3333 17.5042C19.3333 19.953 21.3843 22.0067 24 22.0067C26.6157 22.0067 28.6667 19.953 28.6667 17.5042V17.0034H19.3333V17.5042ZM16.3333 17.0034V17.5042C16.3333 19.953 14.2824 22.0067 11.6667 22.0067C10.4586 22.0067 9.36571 21.5659 8.54088 20.8473C7.58654 20.0159 7 18.8228 7 17.5042V17.0034H16.3333ZM39.4506 14.0034L36.3461 9.97413C35.8728 9.35986 35.1412 9 34.3657 9H13.6343C12.8588 9 12.1272 9.35986 11.6539 9.97413L8.54938 14.0034H39.4506ZM41 17.0034H31.6667V17.5042C31.6667 19.953 33.7176 22.0067 36.3333 22.0067C37.5414 22.0067 38.6343 21.5659 39.4591 20.8473C40.4135 20.0159 41 18.8228 41 17.5042V17.0034ZM26.6111 39L26.6111 34.4975C26.6111 33.1537 25.4805 31.9958 24 31.9958C22.5195 31.9958 21.3889 33.1537 21.3889 34.4975L21.3889 39H26.6111Z" fill="#FAFAFA"/>
</svg>
