<svg width="48" height="48" viewBox="0 0 48 48" fill="none" xmlns="http://www.w3.org/2000/svg">
<path fill-rule="evenodd" clip-rule="evenodd" d="M20.3633 3.97461V3.98047H21.5C22.3284 3.98047 23 4.65204 23 5.48047C23 6.3089 22.3284 6.98047 21.5 6.98047H20.3633V26.2109L20.375 26.416C20.4245 26.8935 20.6361 27.3432 20.9785 27.6855C21.3694 28.076 21.8986 28.2958 22.4512 28.2988H22.5V27C22.5 26.1716 23.1716 25.5 24 25.5C24.8284 25.5 25.5 26.1716 25.5 27V28.2988H25.5996L25.8047 28.2891C26.2818 28.2396 26.73 28.0274 27.0723 27.6855C27.4633 27.2945 27.6845 26.764 27.6875 26.2109V18.9805H26.5C25.6716 18.9805 25 18.3089 25 17.4805C25 16.652 25.6716 15.9805 26.5 15.9805H27.6875V15.9746H41.4316V15.9805H42.5C43.3284 15.9805 44 16.652 44 17.4805C44 18.3089 43.3284 18.9805 42.5 18.9805H41.4316V28.002C41.4261 31.7228 39.9435 35.2888 37.3105 37.918C34.6776 40.547 31.1094 42.0252 27.3887 42.0254H25.5V43C25.5 43.8284 24.8284 44.5 24 44.5C23.1716 44.5 22.5 43.8284 22.5 43V42.0254H20.6621C16.9414 42.0252 13.3732 40.547 10.7402 37.918C8.27174 35.4531 6.81369 32.1648 6.63672 28.6973L6.61914 28.002V6.98047H5.5C4.67157 6.98047 4 6.3089 4 5.48047C4 4.65204 4.67157 3.98047 5.5 3.98047H6.61914V3.97461H20.3633ZM9.61914 6.98047V27.998L9.63281 28.5449C9.77213 31.2713 10.9186 33.8568 12.8594 35.7949C14.9298 37.8623 17.7363 39.0252 20.6621 39.0254H22.5V31.2988H21.5254V31.207C20.5219 31.0194 19.5894 30.5383 18.8574 29.8066C17.9076 28.8568 17.3704 27.5698 17.3633 26.2266V6.98047H9.61914ZM30.6875 26.2266C30.6804 27.5698 30.1432 28.8568 29.1934 29.8066C28.2437 30.7559 26.958 31.2916 25.6152 31.2988H25.5V39.0254H27.3887C30.3145 39.0252 33.121 37.8623 35.1914 35.7949C37.2615 33.7276 38.4271 30.9237 38.4316 27.998V18.9805H30.6875V26.2266Z" fill="#FAFAFA"/>
</svg>
