<svg width="48" height="48" viewBox="0 0 48 48" fill="none" xmlns="http://www.w3.org/2000/svg">
<path fill-rule="evenodd" clip-rule="evenodd" d="M41.2812 22.7402C42.1094 22.7405 42.7812 23.412 42.7812 24.2402C42.7812 30.2921 38.2908 35.419 32.3008 36.1953V36.8809C36.2297 37.1836 39.8299 38.651 42.8594 40.7715C43.538 41.2466 43.7036 42.1827 43.2285 42.8613C42.7533 43.5395 41.8171 43.7034 41.1387 43.2285C38.1505 41.1371 34.6047 39.8203 30.7988 39.8203C26.9358 39.8205 23.274 41.0109 20.5293 43.1777C19.8791 43.6909 18.9352 43.5798 18.4219 42.9297C17.9089 42.2795 18.02 41.3355 18.6699 40.8223C21.6295 38.4859 25.3796 37.1474 29.3008 36.875V36.1953C23.3107 35.419 18.8203 30.2921 18.8203 24.2402C18.8203 23.4118 19.4919 22.7402 20.3203 22.7402C24.7727 22.7402 28.7123 25.2408 30.8008 28.8945C32.8893 25.2408 36.8289 22.7402 41.2812 22.7402ZM21.9746 25.8984C22.65 29.5451 25.5102 32.4655 29.2207 33.1465C28.5263 29.5173 25.6039 26.5929 21.9746 25.8984ZM39.625 25.8984C35.9963 26.5934 33.0731 29.5176 32.3789 33.1465C36.09 32.466 38.9495 29.5454 39.625 25.8984Z" fill="#FAFAFA"/>
<path fill-rule="evenodd" clip-rule="evenodd" d="M27.6016 4.5C28.8815 4.50037 29.8314 5.17947 30.4668 5.90625L30.7207 6.2207L30.7695 6.28711L35.1719 12.8926C35.8651 13.6012 36.3008 14.5631 36.3008 15.6016V18.6406C36.3003 19.4683 35.6285 20.1402 34.8008 20.1406C33.9727 20.1406 33.3013 19.4686 33.3008 18.6406V15.6016C33.3008 15.1501 32.8518 14.7014 32.4004 14.7012H8.40039C7.94882 14.7012 7.5 15.15 7.5 15.6016V32.4004C7.50065 32.8516 7.94914 33.3008 8.40039 33.3008H16.7207C17.5487 33.3012 18.2205 33.9728 18.2207 34.8008C18.2202 35.6285 17.5485 36.3004 16.7207 36.3008H8.40039C6.29229 36.3008 4.50055 34.5084 4.5 32.4004V15.6016C4.5 14.5577 4.93928 13.5905 5.63867 12.8809L10.166 6.32422C10.7921 5.2036 12.0922 4.5 13.3613 4.5H27.6016ZM21.9004 11.7012H30.7734L28.3145 8.01172C27.9825 7.57227 27.7369 7.50036 27.6016 7.5H21.9004V11.7012ZM13.3613 7.5C13.254 7.5 13.1126 7.53559 12.9805 7.61328C12.8452 7.69302 12.792 7.77375 12.7832 7.79102C12.7518 7.85388 12.7157 7.91481 12.6758 7.97266L10.0996 11.7012H18.9004V7.5H13.3613Z" fill="#FAFAFA"/>
</svg>
