<svg width="48" height="48" viewBox="0 0 48 48" fill="none" xmlns="http://www.w3.org/2000/svg">
<path d="M20.25 33.75C21.0784 33.75 21.75 34.4216 21.75 35.25V35.2695C21.7496 36.0976 21.0782 36.7695 20.25 36.7695C19.4218 36.7695 18.7504 36.0976 18.75 35.2695V35.25C18.75 34.4216 19.4216 33.75 20.25 33.75Z" fill="#FAFAFA"/>
<path d="M27.75 33.75C28.5784 33.75 29.25 34.4216 29.25 35.25V35.2695C29.2496 36.0976 28.5782 36.7695 27.75 36.7695C26.9218 36.7695 26.2504 36.0976 26.25 35.2695V35.25C26.25 34.4216 26.9216 33.75 27.75 33.75Z" fill="#FAFAFA"/>
<path d="M20.25 28.125C21.0784 28.125 21.75 28.7966 21.75 29.625V29.6445C21.7496 30.4726 21.0782 31.1445 20.25 31.1445C19.4218 31.1445 18.7504 30.4726 18.75 29.6445V29.625C18.75 28.7966 19.4216 28.125 20.25 28.125Z" fill="#FAFAFA"/>
<path d="M27.75 28.125C28.5784 28.125 29.25 28.7966 29.25 29.625V29.6445C29.2496 30.4726 28.5782 31.1445 27.75 31.1445C26.9218 31.1445 26.2504 30.4726 26.25 29.6445V29.625C26.25 28.7966 26.9216 28.125 27.75 28.125Z" fill="#FAFAFA"/>
<path fill-rule="evenodd" clip-rule="evenodd" d="M24 15C25.3924 15 26.7283 15.5525 27.7129 16.5371C28.6975 17.5217 29.25 18.8576 29.25 20.25C29.25 21.6424 28.6975 22.9783 27.7129 23.9629C26.7283 24.9475 25.3924 25.5 24 25.5C22.6076 25.5 21.2717 24.9475 20.2871 23.9629C19.3025 22.9783 18.75 21.6424 18.75 20.25C18.75 18.8576 19.3025 17.5217 20.2871 16.5371C21.2717 15.5525 22.6076 15 24 15ZM24 18C23.4033 18 22.8302 18.2362 22.4082 18.6582C21.9862 19.0802 21.75 19.6533 21.75 20.25C21.75 20.8467 21.9862 21.4198 22.4082 21.8418C22.8302 22.2638 23.4033 22.5 24 22.5C24.5967 22.5 25.1698 22.2638 25.5918 21.8418C26.0138 21.4198 26.25 20.8467 26.25 20.25C26.25 19.6533 26.0138 19.0802 25.5918 18.6582C25.1698 18.2362 24.5967 18 24 18Z" fill="#FAFAFA"/>
<path fill-rule="evenodd" clip-rule="evenodd" d="M29.625 5.625C31.0174 5.625 32.3533 6.17754 33.3379 7.16211C34.3225 8.14668 34.875 9.48261 34.875 10.875V37.125C34.875 38.5174 34.3225 39.8533 33.3379 40.8379C32.3533 41.8225 31.0174 42.375 29.625 42.375H18.375C16.9826 42.375 15.6467 41.8225 14.6621 40.8379C13.6775 39.8533 13.125 38.5174 13.125 37.125V10.875C13.125 9.48261 13.6775 8.14668 14.6621 7.16211C15.6467 6.17754 16.9826 5.625 18.375 5.625H29.625ZM18.375 8.625C17.7783 8.625 17.2052 8.86125 16.7832 9.2832C16.3612 9.70516 16.125 10.2783 16.125 10.875V37.125C16.125 37.7217 16.3612 38.2948 16.7832 38.7168C17.2052 39.1388 17.7783 39.375 18.375 39.375H29.625C30.2217 39.375 30.7948 39.1388 31.2168 38.7168C31.6388 38.2948 31.875 37.7217 31.875 37.125V10.875C31.875 10.2783 31.6388 9.70516 31.2168 9.2832C30.7948 8.86125 30.2217 8.625 29.625 8.625H25.5V10.875C25.5 11.7034 24.8284 12.375 24 12.375C23.1716 12.375 22.5 11.7034 22.5 10.875V8.625H18.375Z" fill="#FAFAFA"/>
</svg>
