<svg width="48" height="48" viewBox="0 0 48 48" fill="none" xmlns="http://www.w3.org/2000/svg">
<path d="M38 39V42H10V39H38ZM39 38V10C39 9.44772 38.5523 9 38 9H10C9.44772 9 9 9.44772 9 10V38C9 38.5523 9.44772 39 10 39V42L9.5918 41.9785C7.57445 41.774 6 40.0713 6 38V10C6 7.79086 7.79086 6 10 6H38C40.2091 6 42 7.79086 42 10V38C42 40.2091 40.2091 42 38 42V39C38.5523 39 39 38.5523 39 38Z" fill="#FAFAFA"/>
<path d="M18.1466 25.3537L22.0859 29.293L22.0859 15.9144C22.0859 15.0859 22.7575 14.4144 23.5859 14.4144C24.4144 14.4144 25.0859 15.0859 25.0859 15.9144L25.0859 29.293L29.0253 25.3537C29.6111 24.7679 30.5608 24.7679 31.1466 25.3537C31.7324 25.9395 31.7324 26.8892 31.1466 27.475L26.0608 32.5608C24.694 33.9276 22.4779 33.9276 21.1111 32.5608L16.0253 27.475C15.4395 26.8892 15.4395 25.9395 16.0253 25.3537C16.6111 24.7679 17.5608 24.7679 18.1466 25.3537Z" fill="#FAFAFA"/>
</svg>
