<svg width="48" height="48" viewBox="0 0 48 48" fill="none" xmlns="http://www.w3.org/2000/svg">
<path fill-rule="evenodd" clip-rule="evenodd" d="M26.1403 12.5C26.842 8.79781 30.093 6 34 6C38.4197 6 42 9.58032 42 14C42 18.4197 38.4197 22 34 22C30.093 22 26.842 19.2022 26.1403 15.5H7.5C6.67157 15.5 6 14.8284 6 14C6 13.1716 6.67157 12.5 7.5 12.5H26.1403ZM34 9C31.2372 9 29 11.2372 29 14C29 16.7628 31.2372 19 34 19C36.7628 19 39 16.7628 39 14C39 11.2372 36.7628 9 34 9ZM10.1403 32.5C10.842 28.7978 14.093 26 18 26C21.907 26 25.158 28.7978 25.8597 32.5H40.5C41.3284 32.5 42 33.1716 42 34C42 34.8284 41.3284 35.5 40.5 35.5H25.8597C25.158 39.2022 21.907 42 18 42C14.093 42 10.842 39.2022 10.1403 35.5H7.5C6.67157 35.5 6 34.8284 6 34C6 33.1716 6.67157 32.5 7.5 32.5H10.1403ZM18 29C15.2372 29 13 31.2372 13 34C13 36.7628 15.2372 39 18 39C20.7628 39 23 36.7628 23 34C23 31.2372 20.7628 29 18 29Z" fill="#FAFAFA"/>
</svg>
