<svg width="48" height="48" viewBox="0 0 48 48" fill="none" xmlns="http://www.w3.org/2000/svg">
<path d="M24 20C25.0609 20 26.078 20.4217 26.8281 21.1719C27.5783 21.922 28 22.9391 28 24C28 25.0609 27.5783 26.078 26.8281 26.8281C26.078 27.5783 25.0609 28 24 28C22.9391 28 21.922 27.5783 21.1719 26.8281C20.4217 26.078 20 25.0609 20 24C20 22.9391 20.4217 21.922 21.1719 21.1719C21.922 20.4217 22.9391 20 24 20Z" fill="#FAFAFA"/>
<path fill-rule="evenodd" clip-rule="evenodd" d="M24 12.5C27.05 12.5 29.9742 13.7125 32.1309 15.8691C33.9308 17.669 35.0698 20.004 35.3984 22.5H42.75C43.5784 22.5 44.25 23.1716 44.25 24C44.25 24.8284 43.5784 25.5 42.75 25.5H35.3984C35.0698 27.996 33.9308 30.331 32.1309 32.1309C29.9742 34.2875 27.05 35.5 24 35.5C20.95 35.5 18.0258 34.2875 15.8691 32.1309C14.0692 30.331 12.9302 27.996 12.6016 25.5H6C5.17157 25.5 4.5 24.8284 4.5 24C4.5 23.1716 5.17157 22.5 6 22.5H12.6016C12.9302 20.004 14.0692 17.669 15.8691 15.8691C18.0258 13.7125 20.95 12.5 24 12.5ZM24 15.5C21.7457 15.5 19.5843 16.3962 17.9902 17.9902C16.3962 19.5843 15.5 21.7457 15.5 24C15.5 26.2543 16.3962 28.4157 17.9902 30.0098C19.5843 31.6038 21.7457 32.5 24 32.5C26.2543 32.5 28.4157 31.6038 30.0098 30.0098C31.6038 28.4157 32.5 26.2543 32.5 24C32.5 21.7457 31.6038 19.5843 30.0098 17.9902C28.4157 16.3962 26.2543 15.5 24 15.5Z" fill="#FAFAFA"/>
</svg>
