<svg width="48" height="48" viewBox="0 0 48 48" fill="none" xmlns="http://www.w3.org/2000/svg">
<path fill-rule="evenodd" clip-rule="evenodd" d="M2 24C2 15.1782 9.08162 8 17.85 8C23.6815 8 28.7692 11.1788 31.519 15.8957C31.7147 16.2315 32.1614 16.4626 32.6383 16.3965C33.1659 16.3234 33.704 16.2857 34.25 16.2857C40.754 16.2857 46 21.6091 46 28.1429C46 34.6766 40.754 40 34.25 40H17.85C9.08162 40 2 32.8218 2 24ZM17.85 11C10.7678 11 5 16.8056 5 24C5 31.1944 10.7678 37 17.85 37H34.25C39.0678 37 43 33.0493 43 28.1429C43 23.2364 39.0678 19.2857 34.25 19.2857C33.8422 19.2857 33.4417 19.3139 33.0501 19.3681C31.4617 19.5883 29.7816 18.8721 28.9272 17.4066C26.6874 13.5645 22.5606 11 17.85 11Z" fill="#FAFAFA"/>
</svg>
