<svg width="48" height="48" viewBox="0 0 48 48" fill="none" xmlns="http://www.w3.org/2000/svg">
<path fill-rule="evenodd" clip-rule="evenodd" d="M15.5 4C16.3284 4 17 4.67157 17 5.5V8H31V5.5C31 4.67157 31.6716 4 32.5 4C33.3284 4 34 4.67157 34 5.5V8H36.5C39.5376 8 42 10.4624 42 13.5V22.5C42 23.3284 41.3284 24 40.5 24C39.6716 24 39 23.3284 39 22.5V20H9V36.5C9 37.8807 10.1193 39 11.5 39H22.5C23.3284 39 24 39.6716 24 40.5C24 41.3284 23.3284 42 22.5 42H11.5C8.46243 42 6 39.5376 6 36.5V13.5C6 10.4624 8.46243 8 11.5 8H14V5.5C14 4.67157 14.6716 4 15.5 4ZM9 17H39V13.5C39 12.1193 37.8807 11 36.5 11H11.5C10.1193 11 9 12.1193 9 13.5V17ZM30.4369 30.4393C31.0227 29.8536 31.9724 29.8536 32.5582 30.4393L35.9976 33.8787L39.4369 30.4393C40.0227 29.8536 40.9724 29.8536 41.5582 30.4393C42.144 31.0251 42.144 31.9749 41.5582 32.5607L38.1189 36L41.5582 39.4393C42.144 40.0251 42.144 40.9749 41.5582 41.5607C40.9724 42.1464 40.0227 42.1464 39.4369 41.5607L35.9976 38.1213L32.5582 41.5607C31.9724 42.1464 31.0227 42.1464 30.4369 41.5607C29.8511 40.9749 29.8511 40.0251 30.4369 39.4393L33.8762 36L30.4369 32.5607C29.8511 31.9749 29.8511 31.0251 30.4369 30.4393Z" fill="#FAFAFA"/>
</svg>
