<svg width="48" height="48" viewBox="0 0 48 48" fill="none" xmlns="http://www.w3.org/2000/svg">
<path fill-rule="evenodd" clip-rule="evenodd" d="M33.3262 25.8672C35.2733 25.8672 37.1407 26.6409 38.5176 28.0176C39.8943 29.3944 40.6679 31.2619 40.668 33.209C40.6679 34.6372 40.2495 36.021 39.4844 37.2012L43.9824 41.4492C44.5836 42.0182 44.6096 42.9665 44.041 43.5684C43.4722 44.17 42.5239 44.1972 41.9219 43.6289L37.373 39.332C36.1811 40.1198 34.7764 40.5508 33.3262 40.5508C31.3791 40.5507 29.5116 39.7771 28.1348 38.4004C26.7581 37.0236 25.9845 35.156 25.9844 33.209C25.9845 31.2619 26.758 29.3944 28.1348 28.0176C29.5116 26.6407 31.379 25.8673 33.3262 25.8672ZM33.3262 28.8672C32.1747 28.8673 31.0701 29.3244 30.2559 30.1387C29.4417 30.9529 28.9845 32.0576 28.9844 33.209C28.9845 34.3603 29.4418 35.4651 30.2559 36.2793C31.0701 37.0934 32.1748 37.5507 33.3262 37.5508C34.4777 37.5508 35.5822 37.0935 36.3965 36.2793C37.2107 35.4651 37.6679 34.3604 37.668 33.209C37.6679 32.0576 37.2106 30.9529 36.3965 30.1387C35.5822 29.3246 34.4776 28.8672 33.3262 28.8672Z" fill="#FAFAFA"/>
<path d="M34.7109 4C36.658 4.00014 38.5256 4.7736 39.9023 6.15039C41.2791 7.52722 42.0527 9.39471 42.0527 11.3418V22.0527C42.0526 22.881 41.381 23.5526 40.5527 23.5527C39.7244 23.5527 39.0528 22.8811 39.0527 22.0527V11.3418C39.0527 10.1904 38.5954 9.0857 37.7812 8.27148C36.9671 7.45731 35.8623 7.00014 34.7109 7H11.3418C10.1903 7.00008 9.08572 7.45725 8.27148 8.27148C7.45725 9.08572 7.00008 10.1903 7 11.3418V27.1953L14.1973 19.998C15.3259 18.9122 16.6926 18.2754 18.1582 18.2754C19.441 18.2755 20.6477 18.7634 21.6855 19.6133L22.1191 19.998L22.1387 20.0195L26.0352 23.9141C26.6199 24.4998 26.6203 25.4496 26.0352 26.0352C25.4494 26.6206 24.4978 26.6206 23.9121 26.0352L20.0176 22.1406C19.3473 21.5041 18.7038 21.2755 18.1582 21.2754C17.6067 21.2754 16.9556 21.5077 16.2773 22.1602L7 31.4375V34.7109C7.00014 35.8623 7.45731 36.9671 8.27148 37.7812C9.0857 38.5954 10.1904 39.0527 11.3418 39.0527H22.0527C22.8811 39.0528 23.5527 39.7244 23.5527 40.5527C23.5526 41.381 22.881 42.0526 22.0527 42.0527H11.3418C9.39471 42.0527 7.52722 41.2791 6.15039 39.9023C4.7736 38.5256 4.00014 36.658 4 34.7109V11.3418C4.00008 9.39466 4.77355 7.52723 6.15039 6.15039C7.52723 4.77355 9.39466 4.00008 11.3418 4H34.7109Z" fill="#FAFAFA"/>
<path d="M30.1152 11.6465C31.1928 11.6467 32.2263 12.0759 32.9883 12.8379C33.7501 13.6 34.1777 14.6333 34.1777 15.7109C34.1777 16.7886 33.7502 17.8219 32.9883 18.584C32.2263 19.3459 31.1928 19.7752 30.1152 19.7754C29.0374 19.7754 28.0024 19.3461 27.2402 18.584C26.4784 17.8219 26.0508 16.7885 26.0508 15.7109C26.0508 14.6334 26.4785 13.6 27.2402 12.8379C28.0024 12.0757 29.0374 11.6465 30.1152 11.6465Z" fill="#FAFAFA"/>
</svg>
