<svg width="48" height="48" viewBox="0 0 48 48" fill="none" xmlns="http://www.w3.org/2000/svg">
<path fill-rule="evenodd" clip-rule="evenodd" d="M38.8787 9H29.5C28.6716 9 28 8.32843 28 7.5C28 6.67157 28.6716 6 29.5 6H41C42.6569 6 44 7.34314 44 9V20.5C44 21.3284 43.3284 22 42.5 22C41.6716 22 41 21.3284 41 20.5V11.1213L30.5607 21.5607C29.9749 22.1464 29.0251 22.1464 28.4393 21.5607C27.8536 20.9749 27.8536 20.0251 28.4393 19.4393L38.8787 9ZM24 13.5C24 12.6716 23.3284 12 22.5 12H11.5C8.46243 12 6 14.4624 6 17.5V38.5C6 41.5376 8.46243 44 11.5 44H32.5C35.5376 44 38 41.5376 38 38.5V27.5C38 26.6716 37.3284 26 36.5 26C35.6716 26 35 26.6716 35 27.5V38.5C35 39.8807 33.8807 41 32.5 41H11.5C10.1193 41 9 39.8807 9 38.5V17.5C9 16.1193 10.1193 15 11.5 15H22.5C23.3284 15 24 14.3284 24 13.5Z" fill="#FAFAFA"/>
</svg>
