<svg width="48" height="48" viewBox="0 0 48 48" fill="none" xmlns="http://www.w3.org/2000/svg">
<path fill-rule="evenodd" clip-rule="evenodd" d="M35.0001 23C38.3138 23 41.0001 25.6863 41.0001 29V29.3359C42.1826 29.8977 43.0001 31.1038 43.0001 32.5V37.5C43.0001 39.433 41.4331 41 39.5001 41H30.5001C28.5671 41 27.0001 39.433 27.0001 37.5V32.5C27.0001 31.1038 27.8176 29.8977 29.0001 29.3359V29C29.0001 25.6863 31.6864 23 35.0001 23ZM30.5001 32C30.224 32 30.0001 32.2239 30.0001 32.5V37.5C30.0001 37.7761 30.224 38 30.5001 38H39.5001C39.7762 38 40.0001 37.7761 40.0001 37.5V32.5C40.0001 32.2239 39.7762 32 39.5001 32H30.5001ZM35.0001 26C33.3433 26 32.0001 27.3432 32.0001 29H38.0001C38.0001 27.3431 36.6569 26 35.0001 26Z" fill="#FAFAFA"/>
<path d="M40.4083 7.02148C42.4256 7.22601 44.0001 8.9287 44.0001 11V12.4043C45.0813 12.4213 45.9568 13.2974 45.9669 14.3848L46.0157 20.9746C46.0257 22.3663 44.8997 23.4999 43.5079 23.5C42.1231 23.5 41.0001 22.377 41.0001 20.9922V11C41.0001 10.4477 40.5524 10 40.0001 10H8.00008C7.44799 10.0002 7.00008 10.4479 7.00008 11V31C7.00035 31.5519 7.44816 31.9998 8.00008 32H22.4649C23.3049 32.0005 23.9745 32.7165 23.9825 33.5566C23.9899 34.3536 23.3538 35 22.5567 35H8.00008C5.92914 34.9998 4.2263 33.4252 4.02157 31.4082L4.00008 31V29.5566C2.9194 29.5392 2.04377 28.665 2.03329 27.5781L1.96688 14.4219C1.95683 13.3175 2.84502 12.4146 3.9493 12.4043C3.96611 12.4041 3.98337 12.404 4.00008 12.4043V11C4.00008 8.791 5.79114 7.00023 8.00008 7H40.0001L40.4083 7.02148Z" fill="#FAFAFA"/>
<path d="M24.0235 25.3242C24.8519 25.3242 25.5235 25.9958 25.5235 26.8242C25.5235 27.6526 24.8519 28.3242 24.0235 28.3242H12.6954C11.8675 28.324 11.1959 27.6521 11.1954 26.8242C11.1954 25.9959 11.8672 25.3244 12.6954 25.3242H24.0235Z" fill="#FAFAFA"/>
<path d="M28.0001 19.5C28.8285 19.5 29.5001 20.1716 29.5001 21C29.5001 21.8284 28.8285 22.5 28.0001 22.5H12.6954C11.8673 22.4998 11.1957 21.8281 11.1954 21C11.1954 20.1717 11.8672 19.5002 12.6954 19.5H28.0001Z" fill="#FAFAFA"/>
<path d="M35.3028 13.6758C36.1312 13.6758 36.8028 14.3474 36.8028 15.1758C36.8028 16.0042 36.1312 16.6758 35.3028 16.6758H12.6954C11.8672 16.6756 11.1954 16.0041 11.1954 15.1758C11.1954 14.3475 11.8672 13.676 12.6954 13.6758H35.3028Z" fill="#FAFAFA"/>
</svg>
