<svg width="48" height="48" viewBox="0 0 48 48" fill="none" xmlns="http://www.w3.org/2000/svg">
<path fill-rule="evenodd" clip-rule="evenodd" d="M33.5642 20.774C33.8727 20.7647 34.1795 20.8295 34.4646 20.9537L34.4665 20.9497C37.1189 22.0778 39.3453 24.0194 40.822 26.4947C42.2909 28.9572 42.94 31.8212 42.6833 34.6763C42.6329 36.9992 41.6908 39.2137 40.0466 40.8579C38.3849 42.5195 36.1404 43.4687 33.7907 43.5005H33.7712C31.4065 43.5003 29.1369 42.561 27.4646 40.8892C25.8966 39.3213 24.9726 37.2282 24.863 35.024L24.8513 34.5826C24.7719 33.0827 25.1113 31.5892 25.8357 30.272C26.5757 28.9266 27.6856 27.821 29.0329 27.0845L29.197 27.0064C29.5909 26.8496 30.0371 26.8656 30.4216 27.0572C30.8609 27.2765 31.1653 27.6982 31.2361 28.1841C31.287 28.5346 31.4694 28.8534 31.7458 29.0747C31.8119 29.1276 31.8832 29.1738 31.9568 29.2134C32.2238 28.5033 32.3774 27.7536 32.4021 26.9908C32.4377 25.8855 32.2094 24.7871 31.7361 23.7876L31.738 23.7857C31.555 23.4061 31.488 22.9804 31.5505 22.563L31.6228 22.2447C31.7199 21.9354 31.8899 21.652 32.1169 21.4165L32.3591 21.1997C32.6175 21.004 32.9204 20.8693 33.2419 20.8091L33.5642 20.774ZM35.2009 24.7681C35.3566 25.528 35.4272 26.3058 35.4021 27.0865C35.351 28.6685 34.9225 30.2164 34.154 31.6001C33.9096 32.0402 33.4606 32.3288 32.9587 32.3677C31.847 32.4536 30.7436 32.1129 29.8728 31.4165C29.6152 31.2105 29.3859 30.9754 29.1833 30.7212C28.9057 31.0214 28.6636 31.3555 28.4646 31.7173C28.0001 32.562 27.7848 33.5229 27.8474 34.4849C27.8495 34.5171 27.8513 34.5502 27.8513 34.5826C27.8518 36.1516 28.4762 37.6566 29.5857 38.7662C30.6924 39.8727 32.1929 40.4949 33.7575 40.4986C35.3231 40.4755 36.8182 39.844 37.9255 38.7369C39.0344 37.6278 39.668 36.1293 39.6892 34.5611L39.695 34.4439C39.9036 32.2072 39.3946 29.961 38.2439 28.0318C37.4689 26.7329 36.4284 25.6233 35.2009 24.7681Z" fill="#FAFAFA"/>
<path fill-rule="evenodd" clip-rule="evenodd" d="M16.3923 5.21928C19.2859 4.31853 22.3767 4.26395 25.3005 5.06107C28.2242 5.8584 30.8604 7.47444 32.8962 9.71928C34.932 11.9644 36.2842 14.7452 36.7927 17.7329C36.9314 18.5493 36.3824 19.3242 35.5661 19.4634C34.7498 19.6023 33.9751 19.0529 33.8357 18.2369C33.4923 16.2193 32.6718 14.3192 31.4548 12.688L31.0114 13.2876L31.0095 13.2857C30.6933 13.7117 30.4858 14.209 30.4021 14.7329C30.3393 15.1261 30.3481 15.5267 30.4275 15.9146L30.531 16.2974L30.9392 17.5259C31.2004 18.3117 30.7755 19.1626 29.99 19.4244C29.2039 19.6857 28.3549 19.2591 28.0935 18.4732L27.6853 17.2486L27.5759 16.8833C27.3472 16.0296 27.2994 15.1358 27.4392 14.2603C27.599 13.2595 27.9991 12.3123 28.6032 11.4986L29.3591 10.4771C27.9471 9.30454 26.2956 8.44218 24.5114 7.9556C22.1395 7.30892 19.6323 7.35389 17.2849 8.08451C16.6221 8.29083 15.9793 8.54893 15.363 8.85599L21.2107 11.0767C22.0761 11.4021 22.7967 12.0243 23.2458 12.8326C23.6954 13.6421 23.8421 14.5868 23.6599 15.4947L23.1599 18.0025C23.0153 18.7266 22.6674 19.3957 22.1579 19.9302C21.7118 20.398 21.1564 20.7461 20.5446 20.9458L20.279 21.022L17.697 21.6665L16.1364 25.5728C15.6634 26.7556 14.8407 27.7682 13.781 28.4751L13.7653 28.4849L12.0642 29.5865C12.706 30.2189 13.4146 30.7868 14.1814 31.2759C16.2545 32.598 18.664 33.302 21.1228 33.3013C21.9503 33.3018 22.6221 33.9717 22.6228 34.7994C22.6228 35.6275 21.9509 36.3008 21.1228 36.3013C18.0921 36.3021 15.1233 35.4348 12.5681 33.8052C10.0133 32.1756 7.97619 29.8501 6.69894 27.1021C5.42174 24.3539 4.95755 21.2972 5.3591 18.2935C5.7609 15.2895 7.01181 12.4612 8.96652 10.1451C10.9213 7.82886 13.4985 6.12019 16.3923 5.21928ZM12.363 10.9263C11.9729 11.2866 11.6043 11.672 11.2595 12.0806C9.67377 13.9597 8.65777 16.253 8.33175 18.69C8.00586 21.1269 8.38363 23.6068 9.41965 25.8365C9.64386 26.3189 9.89752 26.7848 10.1775 27.2329L12.1325 25.9673C12.6799 25.5975 13.104 25.0712 13.3493 24.4576L15.197 19.8423L15.2732 19.6802C15.4727 19.3155 15.8177 19.0461 16.2263 18.9439L19.5525 18.1119L19.6736 18.0728C19.791 18.025 19.8979 17.9523 19.9861 17.8599C20.1034 17.7366 20.1852 17.5816 20.2185 17.4146L20.7185 14.9048C20.76 14.6958 20.7263 14.476 20.6228 14.2896C20.519 14.1031 20.352 13.9583 20.1521 13.8833L20.1462 13.8814L12.363 10.9263Z" fill="#FAFAFA"/>
</svg>
