<svg width="48" height="48" viewBox="0 0 48 48" fill="none" xmlns="http://www.w3.org/2000/svg">
<path d="M36.5 14.0801C37.6046 14.0801 38.5 14.9755 38.5 16.0801C38.5 17.1846 37.6046 18.0801 36.5 18.0801C35.3954 18.0801 34.5 17.1846 34.5 16.0801C34.5 14.9755 35.3954 14.0801 36.5 14.0801Z" fill="#FAFAFA"/>
<path fill-rule="evenodd" clip-rule="evenodd" d="M38.5 8C41.5376 8 44 10.4624 44 13.5V34.5C44 37.5376 41.5376 40 38.5 40H9.5C6.46243 40 4 37.5376 4 34.5V13.5C4 10.4624 6.46243 8 9.5 8H38.5ZM23.998 30.5C19.1898 30.5007 14.9911 33.1135 12.7422 37H35.2578C33.0085 33.113 28.8071 30.5 23.998 30.5ZM9.5 11C8.11929 11 7 12.1193 7 13.5V34.5C7 35.84 8.05454 36.9289 9.37891 36.9922C9.38405 36.9798 9.38903 36.9674 9.39453 36.9551C11.17 32.9993 14.5088 29.8938 18.625 28.4258C17.0124 26.9622 16 24.8493 16 22.5C16 18.0817 19.5817 14.5 24 14.5C28.4183 14.5 32 18.0817 32 22.5C32 24.8503 30.9849 26.9621 29.3711 28.4258C33.4888 29.8933 36.8276 32.9986 38.6035 36.9551C38.6089 36.967 38.6122 36.9802 38.6172 36.9922C39.9434 36.9309 41 35.8414 41 34.5V13.5C41 12.1193 39.8807 11 38.5 11H9.5ZM24 17.5C21.2386 17.5 19 19.7386 19 22.5C19 25.2614 21.2386 27.5 24 27.5C26.7614 27.5 29 25.2614 29 22.5C29 19.7386 26.7614 17.5 24 17.5Z" fill="#FAFAFA"/>
</svg>
