<svg width="48" height="48" viewBox="0 0 48 48" fill="none" xmlns="http://www.w3.org/2000/svg">
<path d="M24.0156 14.6C24.8436 14.6005 25.5156 15.2719 25.5156 16.1V17.2012L26.1543 16.5645C26.7401 15.9789 27.6897 15.9787 28.2754 16.5645C28.8606 17.1502 28.8608 18.0999 28.2754 18.6855L25.5156 21.4434V22.5117L26.6055 22.5098L29.3535 19.7637C29.9392 19.1783 30.8889 19.1784 31.4746 19.7637C32.0602 20.3494 32.0601 21.299 31.4746 21.8848L30.8535 22.5039H31.9469C32.775 22.5028 33.4472 23.174 33.4488 24.002C33.4499 24.8304 32.7792 25.5028 31.9508 25.5039H30.8145L31.4746 26.1641L31.5781 26.2773C32.0588 26.8664 32.0236 27.7359 31.4746 28.2852C30.9257 28.8335 30.0577 28.8683 29.4688 28.3887L29.3535 28.2852L26.5801 25.5098L25.5156 25.5117V26.6035L28.2754 29.3633L28.3789 29.4785C28.8583 30.0674 28.8237 30.9355 28.2754 31.4844C27.7262 32.0335 26.8567 32.0683 26.2676 31.5879L26.1543 31.4844L25.5156 30.8457V31.9488C25.5156 32.7769 24.8436 33.4483 24.0156 33.4488C23.1872 33.4488 22.5156 32.7773 22.5156 31.9488V30.8418L21.875 31.4844C21.2893 32.0701 20.3397 32.0699 19.7539 31.4844C19.1685 30.8986 19.1683 29.9489 19.7539 29.3633L22.5156 26.6016V25.5156H21.4395L18.6738 28.2852C18.0881 28.8704 17.1384 28.8706 16.5527 28.2852C15.9677 27.6995 15.9676 26.7497 16.5527 26.1641L17.1934 25.5215L16.102 25.5234C15.2735 25.5245 14.6011 24.8538 14.6 24.0254C14.5994 23.1974 15.2699 22.5245 16.098 22.5234L17.1895 22.5215L16.5527 21.8848C15.9676 21.299 15.9674 20.3493 16.5527 19.7637C17.1383 19.1781 18.088 19.1785 18.6738 19.7637L21.4258 22.5156H22.5156V21.4473L19.7539 18.6855C19.1682 18.0998 19.1684 17.1503 19.7539 16.5645C20.3397 15.9787 21.2892 15.9787 21.875 16.5645L22.5156 17.2051V16.1C22.5156 15.2716 23.1872 14.6 24.0156 14.6Z" fill="#FAFAFA"/>
<path fill-rule="evenodd" clip-rule="evenodd" d="M30.2969 4.18945C33.2509 4.19044 35.6541 6.52093 35.7832 9.44336H38C40.2091 9.44336 42 11.2342 42 13.4434V39.4434C41.9995 41.6521 40.2088 43.4434 38 43.4434H10L9.5918 43.4219C7.57476 43.2174 6.00049 41.5142 6 39.4434V13.4434C6 11.2342 7.79086 9.44336 10 9.44336H12.2168C12.3459 6.52031 14.7502 4.18945 17.7051 4.18945H30.2969ZM33.6309 37.9316C31.4547 39.4817 29.433 39.5 28.8145 39.5C28.1963 39.5 26.1754 39.482 24 37.9336C21.8245 39.482 19.8036 39.5 19.1855 39.5C18.5668 39.5 16.5438 39.4826 14.3672 37.9316C12.5039 39.2417 10.6395 39.4548 9.00391 39.4902C9.02894 40.0203 9.4638 40.4434 10 40.4434H38C38.5362 40.4434 38.9691 40.0202 38.9941 39.4902C37.3584 39.4549 35.4939 39.242 33.6309 37.9316ZM10 12.4434C9.44772 12.4434 9 12.8911 9 13.4434V36.4863C10.6319 36.4444 11.9569 36.2141 13.3438 34.9082L13.5742 34.7285C14.1415 34.372 14.8951 34.4324 15.4004 34.9082C17.1123 36.5201 18.767 36.5 19.1855 36.5C19.6036 36.5 21.2602 36.5208 22.9727 34.9082L23.2031 34.7285C23.7703 34.3724 24.5222 34.4329 25.0273 34.9082C26.7398 36.5208 28.3963 36.5 28.8145 36.5C29.2328 36.5 30.8875 36.5202 32.5996 34.9082C33.1772 34.3643 34.0786 34.3643 34.6562 34.9082C36.0431 36.2141 37.3681 36.4444 39 36.4863V13.4434C39 12.8911 38.5523 12.4434 38 12.4434H10ZM17.7051 7.18945C16.4076 7.18945 15.3406 8.17833 15.2168 9.44336H32.7832C32.6593 8.17895 31.5935 7.19041 30.2969 7.18945H17.7051Z" fill="#FAFAFA"/>
</svg>
