<svg width="48" height="48" viewBox="0 0 48 48" fill="none" xmlns="http://www.w3.org/2000/svg">
<path fill-rule="evenodd" clip-rule="evenodd" d="M20.5186 13.3456C20.5186 12.9186 20.0177 12.6881 19.6933 12.9659L7.25289 23.6199C7.01987 23.8194 7.01987 24.1798 7.25289 24.3794L19.6933 35.0334C20.0177 35.3112 20.5186 35.0807 20.5186 34.6536V13.3456ZM17.7419 10.6873C20.0126 8.74266 23.5186 10.3561 23.5186 13.3456V19.8578L34.2268 10.6873C36.4974 8.74267 40.0034 10.3561 40.0034 13.3456V34.6536C40.0034 37.6432 36.4974 39.2566 34.2268 37.312L23.5186 28.1415V34.6536C23.5186 37.6432 20.0126 39.2566 17.7419 37.312L5.30149 26.658C3.67033 25.2611 3.67034 22.7382 5.30149 21.3413L17.7419 10.6873ZM23.5186 24.1917L36.1782 35.0334C36.5026 35.3112 37.0034 35.0807 37.0034 34.6536V13.3456C37.0034 12.9186 36.5026 12.6881 36.1782 12.9659L23.5186 23.8076V24.1917Z" fill="#FAFAFA"/>
</svg>
