<svg width="48" height="48" viewBox="0 0 48 48" fill="none" xmlns="http://www.w3.org/2000/svg">
<path d="M34.748 38.1211C35.1537 38.1071 35.5474 38.2595 35.8398 38.541C36.6246 39.2968 37.5699 39.8683 38.6035 40.2129C39.637 40.5572 40.7353 40.667 41.8164 40.5332C42.638 40.4319 43.3861 41.0145 43.4883 41.8359C43.5898 42.6579 43.0056 43.4079 42.1836 43.5098C40.6592 43.6983 39.1115 43.5443 37.6543 43.0586C36.6499 42.7238 35.7075 42.2341 34.8555 41.6152C34.2768 42.0748 33.6417 42.4639 32.9629 42.7656C31.8414 43.2638 30.6275 43.5214 29.4004 43.5215C28.1728 43.5215 26.9578 43.2641 25.8359 42.7656C25.1787 42.4735 24.5638 42.0986 24 41.6582C23.4361 42.0987 22.8214 42.4735 22.1641 42.7656C21.0422 43.2642 19.8273 43.5215 18.5996 43.5215C17.3725 43.5214 16.1586 43.2638 15.0371 42.7656C14.3579 42.4638 13.7215 42.0751 13.1426 41.6152C12.2908 42.2337 11.3496 42.7239 10.3457 43.0586C8.88846 43.5443 7.34085 43.6983 5.81641 43.5098C4.99434 43.408 4.41012 42.658 4.51172 41.8359C4.61391 41.0145 5.36197 40.4318 6.18359 40.5332C7.26469 40.667 8.36301 40.5573 9.39648 40.2129C10.4302 39.8683 11.3754 39.2969 12.1602 38.541L12.2734 38.4414C12.5504 38.2238 12.8968 38.1088 13.252 38.1211C13.6575 38.1353 14.0404 38.3143 14.3125 38.6152C14.8538 39.2147 15.5158 39.6953 16.2539 40.0234C16.9921 40.3515 17.7918 40.5214 18.5996 40.5215C19.4075 40.5215 20.207 40.3515 20.9453 40.0234C21.6837 39.6953 22.3453 39.2149 22.8867 38.6152L22.998 38.5039C23.2718 38.2583 23.6285 38.1211 24 38.1211C24.4242 38.1212 24.8289 38.3005 25.1133 38.6152C25.6547 39.2149 26.3164 39.6953 27.0547 40.0234C27.7929 40.3515 28.5925 40.5215 29.4004 40.5215C30.2082 40.5214 31.0079 40.3515 31.7461 40.0234C32.4842 39.6953 33.1462 39.2148 33.6875 38.6152L33.793 38.5078C34.0542 38.2715 34.3928 38.1335 34.748 38.1211Z" fill="#FAFAFA"/>
<path d="M18 26.1211C18.8282 26.1213 19.5 26.7928 19.5 27.6211C19.4998 28.4493 18.8281 29.1209 18 29.1211H15.5996C14.7713 29.1211 14.0998 28.4494 14.0996 27.6211C14.0996 26.7927 14.7712 26.1211 15.5996 26.1211H18Z" fill="#FAFAFA"/>
<path d="M25.2012 26.1211C26.0294 26.1213 26.7012 26.7928 26.7012 27.6211C26.701 28.4493 26.0293 29.1209 25.2012 29.1211H22.8008C21.9725 29.1211 21.3009 28.4494 21.3008 27.6211C21.3008 26.7927 21.9724 26.1211 22.8008 26.1211H25.2012Z" fill="#FAFAFA"/>
<path d="M32.4004 26.1211C33.2286 26.1213 33.9004 26.7928 33.9004 27.6211C33.9002 28.4493 33.2285 29.1209 32.4004 29.1211H30C29.1717 29.1211 28.5002 28.4494 28.5 27.6211C28.5 26.7927 29.1716 26.1211 30 26.1211H32.4004Z" fill="#FAFAFA"/>
<path fill-rule="evenodd" clip-rule="evenodd" d="M19.5996 14.1211C20.1333 14.1211 20.6474 14.3073 21.0566 14.6426L21.2266 14.7949L21.3789 14.9629C21.7143 15.3722 21.9004 15.8881 21.9004 16.4219V21.3203H26.0996V16.4219C26.0996 15.8119 26.3422 15.2262 26.7734 14.7949C27.2048 14.3636 27.7904 14.1211 28.4004 14.1211H31.5996C32.1333 14.1211 32.6474 14.3073 33.0566 14.6426L33.2266 14.7949L33.3789 14.9629C33.7143 15.3722 33.9004 15.8881 33.9004 16.4219V21.3203C34.8443 21.3249 35.755 21.6719 36.4629 22.2969C37.1751 22.9258 37.6339 23.7936 37.752 24.7363L38.5234 30.9199H40.8008C41.0816 30.92 41.3606 30.9632 41.627 31.0488L41.8906 31.1504L42.1406 31.2754C42.3024 31.3679 42.4544 31.4778 42.5938 31.6016L42.7949 31.7988L42.9727 32.0156C43.0836 32.1658 43.1782 32.3283 43.2559 32.498L43.3594 32.7578L43.4355 33.0293C43.4962 33.3 43.5127 33.5799 43.4883 33.8574C43.3376 35.586 42.8723 37.2747 42.1152 38.8359C41.7537 39.5811 40.8566 39.8927 40.1113 39.5312C39.3668 39.1696 39.0551 38.2723 39.416 37.5273C39.9665 36.3921 40.3213 35.1717 40.4668 33.9199H7.5332C7.66084 35.008 7.94345 36.0738 8.375 37.082C8.70092 37.8432 8.3487 38.7243 7.58789 39.0508C6.82639 39.3768 5.94332 39.0251 5.61719 38.2637C5.01864 36.8655 4.64625 35.3801 4.51172 33.8652L4.5 33.584C4.50382 33.3041 4.55098 33.0242 4.64062 32.7578L4.74414 32.498C4.86062 32.2433 5.01736 32.0065 5.20703 31.7988L5.40625 31.6016C5.61552 31.4157 5.85416 31.2638 6.11133 31.1504L6.37305 31.0488C6.63934 30.9632 6.91838 30.922 7.19922 30.9219L9.47656 30.9199L10.25 24.7363C10.368 23.7936 10.8269 22.9258 11.5391 22.2969C12.2465 21.6725 13.1565 21.3253 14.0996 21.3203V16.4219C14.0996 15.8119 14.3422 15.2262 14.7734 14.7949C15.2048 14.3636 15.7904 14.1211 16.4004 14.1211H19.5996ZM14.1191 24.3203C13.9001 24.3205 13.6877 24.4 13.5234 24.5449C13.3592 24.69 13.2539 24.8919 13.2266 25.1094L12.5 30.9199H35.502L34.7754 25.1094C34.7481 24.8919 34.6408 24.69 34.4766 24.5449C34.3126 24.4005 34.1013 24.3206 33.8828 24.3203H14.1191ZM17.0996 21.3203H18.9004V17.1211H17.0996V21.3203ZM29.0996 21.3203H30.9004V17.1211H29.0996V21.3203Z" fill="#FAFAFA"/>
<path d="M22.8008 4.52148C23.6288 4.52191 24.3008 5.19332 24.3008 6.02148C24.3005 7.2138 23.6693 8.05 23.0098 8.59961C22.3997 9.10772 21.6275 9.48507 21.0703 9.76367C20.4286 10.0845 20.0005 10.3076 19.7109 10.5488C19.471 10.7489 19.5 10.815 19.5 10.8223C19.4992 11.65 18.8279 12.3223 18 12.3223C17.1721 12.3223 16.5008 11.65 16.5 10.8223C16.5 9.63002 17.1297 8.79386 17.7891 8.24414C18.399 7.73587 19.1711 7.35879 19.7285 7.08008C20.3705 6.75907 20.8001 6.53617 21.0898 6.29492C21.324 6.09976 21.3021 6.03158 21.3008 6.02148C21.3008 5.19306 21.9724 4.52148 22.8008 4.52148Z" fill="#FAFAFA"/>
<path d="M34.8008 4.52148C35.6288 4.52191 36.3008 5.19332 36.3008 6.02148C36.3005 7.2138 35.6693 8.05 35.0098 8.59961C34.3997 9.10772 33.6275 9.48507 33.0703 9.76367C32.4286 10.0845 32.0005 10.3076 31.7109 10.5488C31.471 10.7489 31.5 10.815 31.5 10.8223C31.4992 11.65 30.8279 12.3223 30 12.3223C29.1721 12.3223 28.5008 11.65 28.5 10.8223C28.5 9.63002 29.1297 8.79386 29.7891 8.24414C30.399 7.73587 31.1711 7.35879 31.7285 7.08008C32.3705 6.75907 32.8001 6.53617 33.0898 6.29492C33.324 6.09976 33.3021 6.03158 33.3008 6.02148C33.3008 5.19306 33.9724 4.52148 34.8008 4.52148Z" fill="#FAFAFA"/>
</svg>
