<svg width="48" height="48" viewBox="0 0 48 48" fill="none" xmlns="http://www.w3.org/2000/svg">
<path fill-rule="evenodd" clip-rule="evenodd" d="M21.2949 14.541C21.7488 14.1092 22.4362 13.8837 23.1348 14.0605L23.4336 14.1602L23.4941 14.1875C26.0793 15.4216 28.2647 17.3539 29.7988 19.7617L30.0586 20.1582C31.324 22.1549 31.9999 24.4711 32 26.8379V26.8496C31.9653 31.1845 28.3639 34.1905 24.3828 34.3281L23.998 34.332C20.02 34.283 16.1763 31.3198 16.0273 26.9844L16.002 26.5879C15.9443 24.6124 16.9238 22.785 18.373 21.6016C18.8554 21.1697 19.5288 20.864 20.2949 21.0449C20.9846 21.2084 21.4014 21.6938 21.5957 22.0625L21.7754 22.3496C22.0417 21.5641 22.1032 20.6474 21.9648 19.707L21.8984 19.3262C21.722 18.4447 21.4016 17.5942 20.9492 16.8125C20.4195 15.9078 20.824 14.9894 21.2949 14.541ZM24.8398 18.7363L24.9316 19.2559V19.2617L25.0137 20.0078C25.139 21.7877 24.7851 23.7729 23.5137 25.3555L23.5117 25.3574C23.3332 25.5787 23.1088 25.7591 22.8555 25.8848C22.6078 26.0074 22.336 26.0767 22.0605 26.0879H22.0391C21.7576 26.0971 21.4767 26.0458 21.2168 25.9375C20.9672 25.833 20.7403 25.6752 20.5527 25.4785C20.3036 25.2227 19.9877 24.9083 19.6777 24.5352C19.2652 25.0729 19.0279 25.6996 19.002 26.3164L19.0137 26.6875L19.0195 26.8086C19.0653 29.2904 21.3239 31.2981 24.0332 31.332L24.5391 31.3164C27.0281 31.1173 28.9742 29.2349 29 26.8379L28.9727 26.1191C28.8641 24.6939 28.4325 23.3096 27.7109 22.0703L27.3262 21.4648L27.2949 21.4141C26.6149 20.3375 25.7714 19.3764 24.8008 18.5645C24.8131 18.6215 24.8283 18.679 24.8398 18.7363Z" fill="#FAFAFA"/>
<path fill-rule="evenodd" clip-rule="evenodd" d="M24 8C32.8366 8 40 15.1634 40 24C40 32.8366 32.8366 40 24 40C15.1634 40 8 32.8366 8 24C8 15.1634 15.1634 8 24 8ZM24 11C16.8203 11 11 16.8203 11 24C11 31.1797 16.8203 37 24 37C31.1797 37 37 31.1797 37 24C37 16.8203 31.1797 11 24 11Z" fill="#FAFAFA"/>
<path fill-rule="evenodd" clip-rule="evenodd" d="M38.3086 4.00781C41.4789 4.16843 44 6.78979 44 10V38L43.9922 38.3086C43.8368 41.3767 41.3767 43.8368 38.3086 43.9922L38 44H10L9.69141 43.9922C6.62332 43.8368 4.16325 41.3767 4.00781 38.3086L4 38V10C4 6.78979 6.52111 4.16843 9.69141 4.00781L10 4H38L38.3086 4.00781ZM10 7C8.34315 7 7 8.34315 7 10V38C7 39.6569 8.34315 41 10 41H38C39.6569 41 41 39.6569 41 38V10C41 8.34315 39.6569 7 38 7H10Z" fill="#FAFAFA"/>
</svg>
