<svg width="48" height="48" viewBox="0 0 48 48" fill="none" xmlns="http://www.w3.org/2000/svg">
<path fill-rule="evenodd" clip-rule="evenodd" d="M14.7422 15.25C14.7422 15.4469 14.7801 15.6423 14.8555 15.8242C14.9309 16.0062 15.0424 16.1713 15.1816 16.3105C15.3209 16.4498 15.486 16.5613 15.668 16.6367C15.8499 16.7121 16.0453 16.75 16.2422 16.75C16.4391 16.75 16.6345 16.7121 16.8164 16.6367C16.9984 16.5613 17.1634 16.4498 17.3027 16.3105C17.442 16.1713 17.5535 16.0062 17.6289 15.8242C17.7042 15.6423 17.7422 15.4469 17.7422 15.25H20.4844L20.6875 15.2598C21.6962 15.362 22.4844 16.2143 22.4844 17.25V32.25L22.4727 32.4551C22.3699 33.4633 21.5177 34.25 20.4824 34.25H12L11.7949 34.2402C10.8541 34.1444 10.1056 33.3959 10.0098 32.4551L10 32.25V17.25C10 16.1454 10.8954 15.25 12 15.25H14.7422ZM13 31.25H19.4844V18.25H13V31.25Z" fill="#FAFAFA"/>
<path fill-rule="evenodd" clip-rule="evenodd" d="M30.2422 15.25C30.2422 15.4469 30.2801 15.6423 30.3555 15.8242C30.4309 16.0062 30.5424 16.1713 30.6816 16.3105C30.8209 16.4498 30.986 16.5613 31.168 16.6367C31.3499 16.7121 31.5453 16.75 31.7422 16.75C31.9391 16.75 32.1345 16.7121 32.3164 16.6367C32.4984 16.5613 32.6634 16.4498 32.8027 16.3105C32.942 16.1713 33.0535 16.0062 33.1289 15.8242C33.2042 15.6423 33.2422 15.4469 33.2422 15.25H35.9844L36.1875 15.2598C37.1962 15.362 37.9844 16.2143 37.9844 17.25V26.1465L37.9727 26.3516C37.87 27.3597 37.0176 28.1463 35.9824 28.1465H27.5L27.2949 28.1367C26.3541 28.0409 25.6056 27.2924 25.5098 26.3516L25.5 26.1465V17.25C25.5 16.1454 26.3954 15.25 27.5 15.25H30.2422ZM28.5 25.1465H34.9844V18.25H28.5V25.1465Z" fill="#FAFAFA"/>
<path d="M16.2422 13.75C16.64 13.75 17.0214 13.9081 17.3027 14.1895C17.584 14.4708 17.7422 14.8522 17.7422 15.25H14.7422C14.7422 14.8522 14.9003 14.4708 15.1816 14.1895C15.4629 13.9081 15.8444 13.75 16.2422 13.75Z" fill="#FAFAFA"/>
<path d="M31.7422 13.75C32.14 13.75 32.5214 13.9081 32.8027 14.1895C33.084 14.4708 33.2422 14.8522 33.2422 15.25H30.2422C30.2422 14.8522 30.4003 14.4708 30.6816 14.1895C30.9629 13.9081 31.3444 13.75 31.7422 13.75Z" fill="#FAFAFA"/>
<path fill-rule="evenodd" clip-rule="evenodd" d="M38.5 8C41.5376 8 44 10.4624 44 13.5V34.5C44 37.5376 41.5376 40 38.5 40H9.5C6.46243 40 4 37.5376 4 34.5V13.5C4 10.4624 6.46243 8 9.5 8H38.5ZM9.5 11C8.11929 11 7 12.1193 7 13.5V34.5C7 35.8807 8.11929 37 9.5 37H38.5C39.8807 37 41 35.8807 41 34.5V13.5C41 12.1193 39.8807 11 38.5 11H9.5Z" fill="#FAFAFA"/>
</svg>
