<svg width="48" height="48" viewBox="0 0 48 48" fill="none" xmlns="http://www.w3.org/2000/svg">
<path d="M24.0013 38.0996C24.8293 38.1 25.501 38.7716 25.5013 39.5996V42C25.5011 42.828 24.8293 43.4997 24.0013 43.5C23.1733 43.4996 22.5015 42.828 22.5013 42V39.5996C22.5016 38.7716 23.1734 38.1 24.0013 38.0996Z" fill="#FAFAFA"/>
<path d="M14.3529 36.3672C14.8125 35.6787 15.744 35.4922 16.4329 35.9512C17.1216 36.4106 17.3077 37.3422 16.849 38.0312L14.4486 41.6309C13.989 42.3199 13.0577 42.5062 12.3685 42.0469C11.6798 41.5873 11.4934 40.6558 11.9525 39.9668L14.3529 36.3672Z" fill="#FAFAFA"/>
<path d="M31.5697 35.9512C32.2587 35.4923 33.1902 35.6785 33.6497 36.3672L36.0501 39.9668C36.5094 40.6557 36.3225 41.5871 35.6341 42.0469C34.9449 42.506 34.0135 42.32 33.554 41.6309L31.1537 38.0312C30.6947 37.3422 30.8809 36.4107 31.5697 35.9512Z" fill="#FAFAFA"/>
<path fill-rule="evenodd" clip-rule="evenodd" d="M24.0013 4.5C24.8294 4.50034 25.5013 5.17178 25.5013 6V9.49219C26.8293 9.84875 28.0139 10.6187 28.8783 11.6973C29.8228 12.8762 30.3256 14.3477 30.3001 15.8574V16.7285C32.4317 17.7398 34.2941 19.2532 35.724 21.1426C37.2607 23.1737 38.242 25.5667 38.5755 28.0859L38.6341 28.5918L38.638 28.6426C38.6609 29.0122 38.6067 29.3845 38.4798 29.7324C38.3529 30.0799 38.155 30.3982 37.8997 30.666C37.6445 30.9336 37.3364 31.1477 36.9954 31.291C36.6604 31.4315 36.2981 31.5004 35.9349 31.498L30.1165 31.5C29.8444 32.6091 29.2752 33.6342 28.4544 34.4551C27.2734 35.6356 25.6712 36.3004 24.0013 36.3008C22.331 36.3006 20.7275 35.636 19.5462 34.4551C18.7254 33.6341 18.1543 32.6092 17.8822 31.5H12.0638C11.701 31.5021 11.3399 31.4316 11.0052 31.291C10.664 31.1475 10.3543 30.934 10.099 30.666C9.84387 30.3981 9.64569 30.0799 9.51889 29.7324C9.39206 29.3846 9.33979 29.0121 9.36264 28.6426C9.36369 28.6258 9.36494 28.6085 9.36654 28.5918C9.62972 25.8881 10.6378 23.3089 12.2767 21.1426C13.7066 19.2529 15.5687 17.7379 17.7005 16.7266V15.5996C17.7004 14.684 17.8994 13.7779 18.2845 12.9473C18.6699 12.1166 19.2338 11.3785 19.9329 10.7871C20.6322 10.1961 21.4542 9.76343 22.3372 9.52148C22.3909 9.50681 22.4473 9.49756 22.5013 9.48438V6C22.5013 5.1718 23.1732 4.50037 24.0013 4.5ZM21.0638 31.5C21.2194 31.8046 21.4211 32.0877 21.6673 32.334C22.286 32.9523 23.1267 33.3006 24.0013 33.3008C24.8756 33.3004 25.7149 32.9519 26.3333 32.334C26.5797 32.0876 26.7813 31.8047 26.9369 31.5H21.0638ZM24.5384 12.3438C24.0691 12.2663 23.5871 12.2904 23.1283 12.416C22.666 12.5428 22.2346 12.7686 21.8685 13.0781C21.5025 13.3878 21.2089 13.776 21.0072 14.2109C20.8056 14.646 20.7004 15.1201 20.7005 15.5996V17.7148C20.7 18.3322 20.3206 18.8868 19.7454 19.1113C17.7317 19.8979 15.974 21.2274 14.6693 22.9512C13.4422 24.5731 12.6666 26.4877 12.4037 28.5H35.597C35.334 26.4873 34.5589 24.5733 33.3314 22.9512C32.0266 21.2272 30.2692 19.8979 28.2552 19.1113C27.6807 18.8865 27.3007 18.3318 27.3001 17.7148V15.8242C27.318 15.0073 27.0474 14.2099 26.5365 13.5723C26.0325 12.9437 25.3261 12.5095 24.5384 12.3438Z" fill="#FAFAFA"/>
</svg>
