<svg width="48" height="48" viewBox="0 0 48 48" fill="none" xmlns="http://www.w3.org/2000/svg">
<path fill-rule="evenodd" clip-rule="evenodd" d="M18.5156 5.87012L18.916 5.91699C19.9632 6.05339 21.7454 6.42737 23.2109 7.7959C24.6747 9.16314 25.5838 11.2834 25.5156 14.4209C25.9712 14.1499 26.4674 13.8658 27 13.5967C28.6324 12.7717 30.6627 12.0264 32.9727 12.0205C32.9785 12.0204 32.9844 12.0206 32.9902 12.0205L33 12.0186C35.7156 11.9753 38.3411 12.9987 40.3066 14.8701C42.2791 16.7484 43.428 19.33 43.5 22.0498C43.5003 22.0627 43.5 22.076 43.5 22.0889C43.5 26.1404 42.0779 31.8296 39.9941 36.4932C38.9484 38.8334 37.6972 41.0078 36.3008 42.6221C34.9465 44.1875 33.2146 45.499 31.1992 45.499C29.721 45.4988 28.2956 44.8775 27.209 44.4404C26.0069 43.9569 25.0218 43.5986 24 43.5986C22.9782 43.5986 21.9931 43.9569 20.791 44.4404C19.7044 44.8775 18.279 45.4988 16.8008 45.499C14.7854 45.499 13.0535 44.1875 11.6992 42.6221C10.3028 41.0078 9.05158 38.8334 8.00586 36.4932C5.92211 31.8296 4.5 26.1404 4.5 22.0889V22.0518C4.56668 19.3299 5.71386 16.746 7.6875 14.8662C9.65418 12.9935 12.2829 11.9726 15 12.0205H15.0039C15.0129 12.0207 15.0223 12.0184 15.0312 12.0186L15.0293 12.0205C17.3385 12.0268 19.3681 12.7719 21 13.5967C21.544 13.8716 22.0501 14.1621 22.5137 14.4385C22.59 11.8735 21.849 10.6251 21.1602 9.98145C20.485 9.35101 19.6404 9.07741 18.9043 8.94434L18.2129 8.85059L18.0605 8.82715C17.3154 8.6732 16.7933 7.97901 16.8711 7.20801C16.9494 6.43671 17.6004 5.86152 18.3613 5.86231L18.5156 5.87012ZM14.9688 15.0186C13.0308 14.9787 11.1573 15.7057 9.75781 17.0381C8.35849 18.3706 7.54706 20.2008 7.5 22.126C7.5089 25.6405 8.78504 30.886 10.7441 35.2705C11.7232 37.4616 12.8342 39.3477 13.9688 40.6592C15.1456 42.0195 16.1162 42.499 16.8008 42.499C17.572 42.4988 18.3966 42.1702 19.6719 41.6572C20.8321 41.1905 22.3222 40.5986 24 40.5986C25.6778 40.5986 27.1679 41.1905 28.3281 41.6572C29.6034 42.1702 30.428 42.4988 31.1992 42.499C31.8838 42.499 32.8544 42.0195 34.0312 40.6592C35.1658 39.3477 36.2768 37.4616 37.2559 35.2705C39.2146 30.8868 40.4906 25.6424 40.5 22.1279L40.4824 21.7686C40.346 19.9774 39.5495 18.2928 38.2383 17.0439C36.8389 15.7115 34.9652 14.9825 33.0273 15.0186H33C31.3255 15.0186 29.7656 15.5608 28.3535 16.2744C27.65 16.63 26.9992 17.0185 26.3965 17.3936C25.8224 17.7507 25.2222 18.1407 24.7305 18.415C24.2765 18.6681 23.7235 18.6681 23.2695 18.415C22.7778 18.1407 22.1776 17.7507 21.6035 17.3936C21.0008 17.0185 20.35 16.63 19.6465 16.2744C18.4111 15.6501 17.0625 15.1574 15.623 15.0439L15 15.0186C14.9897 15.0186 14.9791 15.0188 14.9688 15.0186Z" fill="#FAFAFA"/>
<path d="M30.5664 8.91895C30.5653 9.74701 30.2359 10.5404 29.6504 11.126C29.0648 11.7115 28.2715 12.041 27.4434 12.042H25.8809V10.4795C25.8819 9.65154 26.2115 8.85799 26.7969 8.27246C27.3826 7.68672 28.1775 7.35731 29.0059 7.35645H30.5664V8.91895Z" fill="#FAFAFA"/>
</svg>
