<svg width="48" height="48" viewBox="0 0 48 48" fill="none" xmlns="http://www.w3.org/2000/svg">
<path fill-rule="evenodd" clip-rule="evenodd" d="M5.26367 31.0254L29.9434 33.6446C29.9933 33.6498 30.0445 33.6485 30.0938 33.6387L42.5117 31.1661C44.058 30.8583 45.5 32.0425 45.5 33.6192V37.7832C45.5 38.807 44.875 39.7269 43.9238 40.1055L31.2051 45.17C30.5632 45.4255 29.8594 45.4852 29.1836 45.3418L4.48047 40.0977C3.32596 39.8525 2.50037 38.8326 2.5 37.6524V33.5118C2.50006 32.0268 3.78699 30.8688 5.26367 31.0254ZM5.5 37.2481L28.5 42.129V36.5079L5.5 34.0704V37.2481ZM31.5 36.4161V41.8223L42.5 37.4454V34.2286L31.5 36.4161Z" fill="#FAFAFA"/>
<path fill-rule="evenodd" clip-rule="evenodd" d="M29.625 16.9395C29.9761 16.9022 30.3315 16.9195 30.6777 16.9883L43.4883 19.5372C44.6578 19.77 45.5 20.7978 45.5 21.9903V26.0098C45.5 27.2022 44.6577 28.228 43.4883 28.461L30.6777 31.0118C30.3315 31.0806 29.976 31.0959 29.625 31.0586L4.73633 28.4161C3.46516 28.2811 2.50036 27.2099 2.5 25.9317V22.0684C2.50002 20.7899 3.46493 19.717 4.73633 19.5821L29.625 16.9395ZM5.5 22.5196V25.4825L28.5 27.9219V20.0762L5.5 22.5196ZM31.5 27.7872L42.5 25.5997V22.4004L31.5 20.209V27.7872Z" fill="#FAFAFA"/>
<path fill-rule="evenodd" clip-rule="evenodd" d="M29.1836 2.65825C29.8594 2.5149 30.5632 2.57462 31.2051 2.83012L43.9238 7.89458C44.875 8.27321 45.5 9.19309 45.5 10.2168V14.3809C45.5 15.9576 44.0581 17.1418 42.5117 16.834L30.0938 14.3614C30.0445 14.3516 29.9933 14.3503 29.9434 14.3555L5.26367 16.9747C3.78697 17.1313 2.50003 15.9733 2.5 14.4883V10.3477C2.50039 9.16751 3.32597 8.1476 4.48047 7.90239L29.1836 2.65825ZM5.5 10.752V13.9297L28.5 11.4903V5.86919L5.5 10.752ZM31.5 11.5821L42.5 13.7715V10.5547L31.5 6.17583V11.5821Z" fill="#FAFAFA"/>
</svg>
