<svg width="48" height="48" viewBox="0 0 48 48" fill="none" xmlns="http://www.w3.org/2000/svg">
<path fill-rule="evenodd" clip-rule="evenodd" d="M24 4C24.8284 4 25.5 4.67157 25.5 5.5V7.55882C25.5 8.38725 24.8284 9.05882 24 9.05882C23.1716 9.05882 22.5 8.38725 22.5 7.55882V5.5C22.5 4.67157 23.1716 4 24 4ZM9.8601 9.86564C10.4464 9.28032 11.3961 9.28107 11.9814 9.86732L13.4349 11.3231C14.0202 11.9094 14.0195 12.8591 13.4332 13.4445C12.847 14.0298 11.8972 14.029 11.3119 13.4428L9.85842 11.987C9.2731 11.4007 9.27385 10.451 9.8601 9.86564ZM38.14 9.86564C38.7263 10.451 38.7271 11.4007 38.1417 11.987L36.6882 13.4428C36.1029 14.029 35.1532 14.0298 34.5669 13.4445C33.9807 12.8591 33.9799 11.9094 34.5652 11.3231L36.0187 9.86732C36.604 9.28107 37.5538 9.28032 38.14 9.86564ZM24 17C20.1363 17 17 20.1378 17 24.0135V24.5C17 25.3284 16.3284 26 15.5 26C14.6716 26 14 25.3284 14 24.5V24.0135C14 18.4854 18.4749 14 24 14C29.5251 14 34 18.4854 34 24.0135V24.5C34 25.3284 33.3284 26 32.5 26C31.6716 26 31 25.3284 31 24.5V24.0135C31 20.1378 27.8637 17 24 17ZM4 24.5C4 23.6716 4.67157 23 5.5 23H7.55556C8.38398 23 9.05556 23.6716 9.05556 24.5C9.05556 25.3284 8.38398 26 7.55556 26H5.5C4.67157 26 4 25.3284 4 24.5ZM38.9444 24.5C38.9444 23.6716 39.616 23 40.4444 23H42.5C43.3284 23 44 23.6716 44 24.5C44 25.3284 43.3284 26 42.5 26H40.4444C39.616 26 38.9444 25.3284 38.9444 24.5ZM4 32.5C4 31.6716 4.67157 31 5.5 31H42.5C43.3284 31 44 31.6716 44 32.5C44 33.3284 43.3284 34 42.5 34H5.5C4.67157 34 4 33.3284 4 32.5ZM12 40.5C12 39.6716 12.6716 39 13.5 39H34.5C35.3284 39 36 39.6716 36 40.5C36 41.3284 35.3284 42 34.5 42H13.5C12.6716 42 12 41.3284 12 40.5Z" fill="#FAFAFA"/>
</svg>
