<svg width="48" height="48" viewBox="0 0 48 48" fill="none" xmlns="http://www.w3.org/2000/svg">
<path fill-rule="evenodd" clip-rule="evenodd" d="M27.5 6C28.3284 6 29 6.67157 29 7.5V16.8787L39.4393 6.43934C40.0251 5.85355 40.9749 5.85355 41.5607 6.43934C42.1464 7.02513 42.1464 7.97487 41.5607 8.56066L31.1213 19H40.5C41.3284 19 42 19.6716 42 20.5C42 21.3284 41.3284 22 40.5 22H29.5C27.567 22 26 20.433 26 18.5V7.5C26 6.67157 26.6716 6 27.5 6ZM6 27.5C6 26.6716 6.67157 26 7.5 26H18.5C20.433 26 22 27.567 22 29.5V40.5C22 41.3284 21.3284 42 20.5 42C19.6716 42 19 41.3284 19 40.5V31.1213L8.56066 41.5607C7.97487 42.1464 7.02513 42.1464 6.43934 41.5607C5.85355 40.9749 5.85355 40.0251 6.43934 39.4393L16.8787 29H7.5C6.67157 29 6 28.3284 6 27.5Z" fill="#FAFAFA"/>
</svg>
