<svg width="48" height="48" viewBox="0 0 48 48" fill="none" xmlns="http://www.w3.org/2000/svg">
<path fill-rule="evenodd" clip-rule="evenodd" d="M23.6992 18.4023C23.8853 18.393 24.0724 18.4132 24.252 18.4629L24.5156 18.5605L24.5273 18.5664C26.1303 19.325 27.4891 20.5195 28.4473 22.0117C29.4051 23.5042 29.9249 25.2365 29.9473 27.0098L29.9492 27.0273C29.9491 28.5583 29.3404 30.0287 28.2578 31.1113C27.1754 32.1935 25.7064 32.8005 24.1758 32.8008C22.6449 32.8007 21.1744 32.1937 20.0918 31.1113C19.0771 30.0965 18.4791 28.741 18.4082 27.3145L18.4004 27.0273C18.3882 25.9952 18.677 24.981 19.2305 24.1094C19.778 23.2476 20.5626 22.5615 21.4883 22.1328C21.4923 22.1308 21.496 22.1271 21.5 22.125C21.5129 22.1191 21.528 22.1133 21.541 22.1074C21.7502 22.0112 21.9766 21.9572 22.207 21.9492L22.3945 21.9531C22.494 21.9605 22.5928 21.9777 22.6895 22.002C22.6127 21.6726 22.4899 21.3543 22.3105 21.0645C22.1158 20.7518 22.024 20.3834 22.0508 20.0156L22.0938 19.7383C22.1587 19.4664 22.2874 19.211 22.4727 18.998L22.6738 18.8027C22.8888 18.6241 23.146 18.4988 23.4219 18.4395L23.6992 18.4023ZM25.5254 22.6895C25.5288 23.658 25.2956 24.6141 24.8398 25.4707C24.6543 25.8193 24.3257 26.073 23.9414 26.1641C23.5571 26.2546 23.1501 26.1739 22.8281 25.9453C22.4946 25.7083 22.1995 25.4247 21.9473 25.1074C21.7986 25.2499 21.6623 25.4084 21.5508 25.584C21.2817 26.008 21.1426 26.5018 21.1504 27.0039V27.0273C21.1505 27.8288 21.4687 28.5991 22.0352 29.166C22.6022 29.7331 23.3739 30.0507 24.1758 30.0508C24.9774 30.0505 25.7476 29.7328 26.3145 29.166C26.881 28.5991 27.1971 27.8289 27.1973 27.0273C27.1783 25.7746 26.8117 24.5507 26.1348 23.4961C25.9518 23.2112 25.7472 22.9418 25.5254 22.6895Z" fill="#FAFAFA"/>
<path fill-rule="evenodd" clip-rule="evenodd" d="M32.5 4.70117C33.3284 4.70117 34 5.37274 34 6.20117C33.9997 7.02934 33.3282 7.70117 32.5 7.70117H25.5234V12H41V11.5C41 11.0753 41.1446 10.7192 41.4336 10.4316C41.7226 10.1443 42.0821 10 42.5098 10C42.9367 10.0002 43.2911 10.1445 43.5742 10.4316C43.8575 10.7193 44 11.075 44 11.5V24.5C44 24.9249 43.8555 25.2811 43.5664 25.5684C43.2774 25.8561 42.9179 26 42.4902 26C42.0634 25.9998 41.7089 25.8557 41.4258 25.5684C41.1425 25.2811 41 24.925 41 24.5V24H37.8496C37.9163 24.3332 37.9579 24.658 37.9746 24.9746C37.9913 25.2913 38 25.6333 38 26C38 29.9 36.6425 33.2091 33.9258 35.9258C31.2091 38.6425 27.9 40 24 40H7V40.5C7 40.9249 6.85555 41.2811 6.56641 41.5684C6.27741 41.8561 5.9179 42 5.49023 42C5.0634 41.9998 4.70889 41.8557 4.42578 41.5684C4.14245 41.2811 4 40.925 4 40.5V27.5C4 27.0753 4.14461 26.7192 4.43359 26.4316C4.72259 26.1443 5.0821 26 5.50977 26C5.93672 26.0002 6.29107 26.1446 6.57422 26.4316C6.85755 26.7193 7 27.075 7 27.5V28H10.1504C10.0837 27.6668 10.0421 27.342 10.0254 27.0254C10.0087 26.7087 10 26.3667 10 26C10 22.1 11.3575 18.7909 14.0742 16.0742C16.4412 13.7072 19.2582 12.373 22.5234 12.0684V7.70117H15.5C14.6718 7.70117 14.0003 7.02934 14 6.20117C14 5.37274 14.6716 4.70117 15.5 4.70117H32.5ZM7 37H15.3496C14.383 36.2333 13.5166 35.3408 12.75 34.3242C11.9835 33.3077 11.367 32.1998 10.9004 31H7V37ZM24.0098 15C20.9698 15.0002 18.3744 16.072 16.2246 18.2148C14.0749 20.3578 13 22.9501 13 25.9902C13.0002 29.0302 14.072 31.6256 16.2148 33.7754C18.3578 35.9251 20.9501 37 23.9902 37C27.0302 36.9998 29.6256 35.928 31.7754 33.7852C33.9251 31.6422 35 29.0499 35 26.0098C34.9998 22.9698 33.928 20.3744 31.7852 18.2246C29.6422 16.0749 27.0499 15 24.0098 15ZM32.6504 15C33.617 15.7667 34.4834 16.6592 35.25 17.6758C36.0165 18.6923 36.633 19.8002 37.0996 21H41V15H32.6504Z" fill="#FAFAFA"/>
</svg>
