<svg width="48" height="48" viewBox="0 0 48 48" fill="none" xmlns="http://www.w3.org/2000/svg">
<path d="M24 32.5C24.3978 32.5 24.7792 32.6581 25.0605 32.9395C25.3419 33.2208 25.5 33.6022 25.5 34C25.5 34.3978 25.3419 34.7792 25.0605 35.0605C24.7792 35.3419 24.3978 35.5 24 35.5C23.6022 35.5 23.2208 35.3419 22.9395 35.0605C22.6581 34.7792 22.5 34.3978 22.5 34C22.5 33.6022 22.6581 33.2208 22.9395 32.9395C23.2208 32.6581 23.6022 32.5 24 32.5Z" fill="#FAFAFA"/>
<path d="M18.6992 31C19.097 31 19.4785 31.1581 19.7598 31.4395C20.0411 31.7208 20.1992 32.1022 20.1992 32.5C20.1992 32.8978 20.0411 33.2792 19.7598 33.5605C19.4785 33.8419 19.097 34 18.6992 34C18.3014 34 17.92 33.8419 17.6387 33.5605C17.3574 33.2792 17.1992 32.8978 17.1992 32.5C17.1992 32.1022 17.3574 31.7208 17.6387 31.4395C17.92 31.1581 18.3014 31 18.6992 31Z" fill="#FAFAFA"/>
<path d="M29.3008 31C29.6986 31 30.08 31.1581 30.3613 31.4395C30.6426 31.7208 30.8008 32.1022 30.8008 32.5C30.8008 32.8978 30.6426 33.2792 30.3613 33.5605C30.08 33.8419 29.6986 34 29.3008 34C28.903 34 28.5215 33.8419 28.2402 33.5605C27.9589 33.2792 27.8008 32.8978 27.8008 32.5C27.8008 32.1022 27.9589 31.7208 28.2402 31.4395C28.5215 31.1581 28.903 31 29.3008 31Z" fill="#FAFAFA"/>
<path d="M13.4609 19.4004C13.7924 18.6411 14.6763 18.2936 15.4355 18.625C16.1947 18.9565 16.5403 19.8404 16.209 20.5996C15.7452 21.662 15.5001 22.8185 15.5 24C15.5 25.1818 15.7451 26.3398 16.209 27.4023C16.5401 28.1615 16.1946 29.0456 15.4355 29.377C14.6764 29.7083 13.7924 29.3607 13.4609 28.6016C13.0314 27.6177 12.7429 26.5735 12.6016 25.5H6C5.17157 25.5 4.5 24.8284 4.5 24C4.5 23.1716 5.17157 22.5 6 22.5H12.6016C12.743 21.4272 13.0316 20.3839 13.4609 19.4004Z" fill="#FAFAFA"/>
<path d="M32.5645 18.625C33.3237 18.2937 34.2097 18.6411 34.541 19.4004C34.9701 20.3837 35.2575 21.4273 35.3984 22.5H42C42.8284 22.5 43.5 23.1716 43.5 24C43.5 24.8284 42.8284 25.5 42 25.5H35.3984C35.2575 26.5727 34.9701 27.6162 34.541 28.5996C34.2097 29.3589 33.3237 29.7063 32.5645 29.375C31.8057 29.0436 31.4601 28.1594 31.791 27.4004C32.2546 26.3381 32.5 25.1814 32.5 24C32.5 22.8185 32.2546 21.662 31.791 20.5996C31.4598 19.8406 31.8056 18.9565 32.5645 18.625Z" fill="#FAFAFA"/>
<path d="M24 20C25.0609 20 26.078 20.4217 26.8281 21.1719C27.5783 21.922 28 22.9391 28 24C28 25.0609 27.5783 26.078 26.8281 26.8281C26.078 27.5783 25.0609 28 24 28C22.9391 28 21.922 27.5783 21.1719 26.8281C20.4217 26.078 20 25.0609 20 24C20 22.9391 20.4217 21.922 21.1719 21.1719C21.922 20.4217 22.9391 20 24 20Z" fill="#FAFAFA"/>
<path d="M18.6992 14C19.097 14 19.4785 14.1581 19.7598 14.4395C20.0411 14.7208 20.1992 15.1022 20.1992 15.5C20.1992 15.8978 20.0411 16.2792 19.7598 16.5605C19.4785 16.8419 19.097 17 18.6992 17C18.3014 17 17.92 16.8419 17.6387 16.5605C17.3574 16.2792 17.1992 15.8978 17.1992 15.5C17.1992 15.1022 17.3574 14.7208 17.6387 14.4395C17.92 14.1581 18.3014 14 18.6992 14Z" fill="#FAFAFA"/>
<path d="M29.3008 14C29.6986 14 30.08 14.1581 30.3613 14.4395C30.6426 14.7208 30.8008 15.1022 30.8008 15.5C30.8008 15.8978 30.6426 16.2792 30.3613 16.5605C30.08 16.8419 29.6986 17 29.3008 17C28.903 17 28.5215 16.8419 28.2402 16.5605C27.9589 16.2792 27.8008 15.8978 27.8008 15.5C27.8008 15.1022 27.9589 14.7208 28.2402 14.4395C28.5215 14.1581 28.903 14 29.3008 14Z" fill="#FAFAFA"/>
<path d="M24 12.5C24.3978 12.5 24.7792 12.6581 25.0605 12.9395C25.3419 13.2208 25.5 13.6022 25.5 14C25.5 14.3978 25.3419 14.7792 25.0605 15.0605C24.7792 15.3419 24.3978 15.5 24 15.5C23.6022 15.5 23.2208 15.3419 22.9395 15.0605C22.6581 14.7792 22.5 14.3978 22.5 14C22.5 13.6022 22.6581 13.2208 22.9395 12.9395C23.2208 12.6581 23.6022 12.5 24 12.5Z" fill="#FAFAFA"/>
</svg>
