<svg width="48" height="48" viewBox="0 0 48 48" fill="none" xmlns="http://www.w3.org/2000/svg">
<path d="M27.4395 6.43947C27.9885 5.89041 28.8581 5.85575 29.4473 6.33595L29.5606 6.43947L39 15.8789V9.90041C39 9.07211 39.6718 8.40062 40.5 8.40041C41.3282 8.40065 42 9.07213 42 9.90041V19.5C42 19.517 41.9967 19.5339 41.9961 19.5508C41.9956 19.5645 41.995 19.5781 41.9942 19.5918C41.9895 19.6685 41.9787 19.7432 41.9629 19.8164C41.9041 20.0889 41.7723 20.3489 41.5606 20.5606C41.4211 20.7 41.2608 20.8058 41.0899 20.8789C41.0655 20.8894 41.0387 20.8932 41.0137 20.9024C40.9491 20.926 40.885 20.9484 40.8184 20.9629C40.7446 20.9789 40.6692 20.9895 40.5918 20.9942C40.5781 20.995 40.5645 20.9956 40.5508 20.9961C40.5339 20.9967 40.517 21 40.5 21H30.9004C30.0721 21 29.4005 20.3283 29.4004 19.5C29.4006 18.6718 30.0721 18 30.9004 18H36.8789L27.4395 8.56056L27.336 8.44728C26.8558 7.85813 26.8904 6.98853 27.4395 6.43947Z" fill="#FAFAFA"/>
<path d="M15.5996 27.0001L15.8613 27.0118C16.4691 27.0649 17.0496 27.3021 17.5215 27.6954L31.0859 39.0001H37.1992V42.0001H30L15.5996 30.0001H10.8008V27.0001H15.5996ZM6 25.1993V22.8009C6 21.6868 6.38778 20.6121 7.08789 19.7579L7.40625 19.4063C8.19405 18.6185 9.22712 18.1325 10.3262 18.0235L10.8008 18.0001H18L32.4004 30.0001H37.1992C38.4722 30.0001 39.6936 30.5062 40.5938 31.4063C41.4939 32.3065 42 33.5279 42 34.8009V37.1993L41.9766 37.6739C41.8676 38.7729 41.3815 39.8061 40.5938 40.5938L40.2422 40.9122C39.5098 41.5124 38.6161 41.8832 37.6738 41.9766L37.1992 42.0001V39.0001C37.6765 39.0001 38.1351 38.8103 38.4727 38.4727C38.8102 38.1351 39 37.6766 39 37.1993V34.8009C39 34.3236 38.8102 33.865 38.4727 33.5274C38.1351 33.1898 37.6765 33.0001 37.1992 33.0001H32.4004C31.6986 33.0001 31.0177 32.7541 30.4785 32.3048L16.9141 21.0001H10.8008C10.3234 21.0001 9.86491 21.1899 9.52734 21.5274C9.18979 21.865 9 22.3235 9 22.8009V25.1993C9 25.6766 9.18981 26.1352 9.52734 26.4727C9.86497 26.8103 10.3235 27.0001 10.8008 27.0001V30.0001L10.3262 29.9766C9.38389 29.8832 8.49018 29.5124 7.75781 28.9122L7.40625 28.5938C6.61846 27.8061 6.13243 26.7729 6.02344 25.6739L6 25.1993Z" fill="#FAFAFA"/>
</svg>
