<svg width="48" height="48" viewBox="0 0 48 48" fill="none" xmlns="http://www.w3.org/2000/svg">
<path fill-rule="evenodd" clip-rule="evenodd" d="M23.4473 18.75C23.9807 18.4476 24.6585 18.4977 25.1445 18.9004C26.3915 19.9344 27.6304 21.3187 28.5664 22.8438C29.4925 24.3528 30.1971 26.1246 30.1973 27.9082C30.1972 29.7433 29.4281 31.2056 28.2363 32.1797C27.0806 33.1241 25.6004 33.5547 24.1855 33.5547C22.771 33.5545 21.2922 33.1238 20.1367 32.1797C18.9449 31.2056 18.1759 29.7433 18.1758 27.9082C18.1758 27.8779 18.1759 27.8466 18.1777 27.8164C18.4059 24.0919 20.3225 21.3121 23.2285 18.9004L23.4473 18.75ZM24.1699 22.0801C22.3091 23.8699 21.327 25.7109 21.1777 27.9531C21.1892 28.8567 21.5441 29.456 22.0352 29.8574C22.5706 30.2946 23.3459 30.5545 24.1855 30.5547C25.0256 30.5547 25.8022 30.2949 26.3379 29.8574C26.8371 29.4493 27.1972 28.8369 27.1973 27.9082C27.1971 26.8814 26.773 25.6589 26.0078 24.4121C25.4896 23.5679 24.8467 22.7688 24.1699 22.0801Z" fill="#FAFAFA"/>
<path fill-rule="evenodd" clip-rule="evenodd" d="M33.1973 4C34.0328 4 34.8263 4.34136 35.4043 4.93555C35.9807 5.52805 36.2969 6.32347 36.2969 7.14453V8.93359H39.5977C40.4261 8.93359 41.0977 9.60517 41.0977 10.4336C41.0975 11.2619 40.426 11.9336 39.5977 11.9336H38.6992V24.5547H39.5977C40.4258 24.5547 41.0973 25.2266 41.0977 26.0547C41.0977 26.8831 40.4261 27.5547 39.5977 27.5547H38.6992V41H39.5977C40.4261 41 41.0977 41.6716 41.0977 42.5C41.0977 43.3284 40.4261 44 39.5977 44H8.39844C7.57001 44 6.89844 43.3284 6.89844 42.5C6.89844 41.6716 7.57001 41 8.39844 41H9.29883V27.5547H8.39844C7.57001 27.5547 6.89844 26.8831 6.89844 26.0547C6.89883 25.2266 7.57025 24.5547 8.39844 24.5547H9.29883V11.9336H8.39844C7.57009 11.9336 6.89857 11.2619 6.89844 10.4336C6.89844 9.60517 7.57001 8.93359 8.39844 8.93359H26.0977V7.14453C26.0977 6.32363 26.4141 5.52801 26.9902 4.93555C27.5682 4.34144 28.3619 4.00011 29.1973 4H33.1973ZM12.2988 24.5547H14.3984C15.2266 24.5547 15.898 25.2266 15.8984 26.0547C15.8984 26.8831 15.2269 27.5547 14.3984 27.5547H12.2988V41H35.6992V27.5547H33.5977C32.7692 27.5547 32.0977 26.8831 32.0977 26.0547C32.0981 25.2266 32.7695 24.5547 33.5977 24.5547H35.6992V11.9336H12.2988V24.5547ZM29.1406 7.02734C29.1171 7.05168 29.0977 7.09354 29.0977 7.14453V8.93359H33.2969V7.14453C33.2969 7.09331 33.2775 7.05164 33.2539 7.02734C33.232 7.00484 33.2104 7 33.1973 7H29.1973C29.1841 7.0001 29.1624 7.00499 29.1406 7.02734Z" fill="#FAFAFA"/>
</svg>
