<svg width="48" height="48" viewBox="0 0 48 48" fill="none" xmlns="http://www.w3.org/2000/svg">
<path fill-rule="evenodd" clip-rule="evenodd" d="M9.5 11C8.11929 11 7 12.1193 7 13.5V30.5C7 31.8807 8.11929 33 9.5 33H18.5C19.3284 33 20 33.6716 20 34.5C20 35.3284 19.3284 36 18.5 36H9.5C6.46243 36 4 33.5376 4 30.5V13.5C4 10.4624 6.46243 8 9.5 8H34.5C37.5376 8 40 10.4624 40 13.5V22.5C40 23.3284 39.3284 24 38.5 24C37.6716 24 37 23.3284 37 22.5V13.5C37 12.1193 35.8807 11 34.5 11H9.5ZM24 32.5C24 30.0147 26.0147 28 28.5 28H39.5C41.9853 28 44 30.0147 44 32.5V37.5C44 39.9853 41.9853 42 39.5 42H28.5C26.0147 42 24 39.9853 24 37.5V32.5ZM28.5 31C27.6716 31 27 31.6716 27 32.5V37.5C27 38.3284 27.6716 39 28.5 39H39.5C40.3284 39 41 38.3284 41 37.5V32.5C41 31.6716 40.3284 31 39.5 31H28.5Z" fill="#FAFAFA"/>
</svg>
