<svg width="48" height="48" viewBox="0 0 48 48" fill="none" xmlns="http://www.w3.org/2000/svg">
<path fill-rule="evenodd" clip-rule="evenodd" d="M32.1172 21.2995C32.8411 21.2994 33.552 21.5011 34.168 21.8815C34.7838 22.2621 35.2815 22.8084 35.6055 23.4557L38.1641 28.5729C39.4776 28.7763 40.7026 29.393 41.6543 30.3444C42.8356 31.5257 43.4998 33.1289 43.5 34.7995V37.1999C43.4999 38.2339 43.0884 39.2264 42.3574 39.9577C41.6261 40.6888 40.6338 41.1003 39.5996 41.1003H38.4004C38.2063 41.5661 37.9222 41.9944 37.5586 42.3581C36.8273 43.0894 35.835 43.5005 34.8008 43.5006C33.7666 43.5006 32.7743 43.0892 32.043 42.3581C31.6793 41.9944 31.3953 41.5661 31.2012 41.1003H19.1992C19.0051 41.5661 18.7211 41.9944 18.3574 42.3581C17.6261 43.0894 16.6338 43.5005 15.5996 43.5006C14.5654 43.5006 13.5731 43.0892 12.8418 42.3581C12.4782 41.9944 12.1941 41.5661 12 41.1003H8.40039C7.36623 41.1003 6.37393 40.6888 5.64258 39.9577C4.91155 39.2264 4.5001 38.2339 4.5 37.1999V34.7995C4.50023 33.1289 5.16443 31.5257 6.3457 30.3444C7.5271 29.1634 9.13031 28.4987 10.8008 28.4987H13.4727L15.9863 23.4557C16.3103 22.8083 16.8099 22.2621 17.4258 21.8815C18.0418 21.5011 18.7526 21.2994 19.4766 21.2995H32.1172ZM15.5996 38.6999C15.361 38.6999 15.1317 38.7949 14.9629 38.9635C14.7942 39.1322 14.6993 39.3617 14.6992 39.6003C14.6993 39.8387 14.7943 40.0683 14.9629 40.237C15.1316 40.4055 15.3611 40.5006 15.5996 40.5006C15.8382 40.5005 16.0676 40.4057 16.2363 40.237C16.4049 40.0683 16.4999 39.8387 16.5 39.6003C16.4999 39.3619 16.4048 39.1322 16.2363 38.9635C16.0677 38.795 15.8381 38.7 15.5996 38.6999ZM34.8008 38.6999C34.5622 38.6999 34.3328 38.7949 34.1641 38.9635C33.9954 39.1322 33.9005 39.3617 33.9004 39.6003C33.9005 39.8387 33.9955 40.0683 34.1641 40.237C34.3328 40.4055 34.5623 40.5006 34.8008 40.5006C35.0393 40.5005 35.2688 40.4057 35.4375 40.237C35.6034 40.071 35.6962 39.8464 35.6992 39.612V39.5866C35.6956 39.3531 35.6027 39.129 35.4375 38.9635C35.2688 38.795 35.0392 38.7 34.8008 38.6999ZM10.8008 31.4987C9.92596 31.4987 9.08559 31.8471 8.4668 32.4655C7.84813 33.0842 7.50023 33.9246 7.5 34.7995V37.1999C7.5001 37.4382 7.59525 37.6679 7.76367 37.8366C7.93242 38.0051 8.16188 38.1003 8.40039 38.1003H12C12.1941 37.6346 12.4782 37.206 12.8418 36.8424C13.5732 36.1112 14.5654 35.6999 15.5996 35.6999C16.6337 35.7 17.6261 36.1113 18.3574 36.8424C18.7209 37.206 19.005 37.6346 19.1992 38.1003H31.2012C31.3953 37.6346 31.6794 37.206 32.043 36.8424C32.7743 36.1112 33.7665 35.6999 34.8008 35.6999C35.8349 35.7 36.8273 36.1113 37.5586 36.8424C37.9221 37.206 38.2062 37.6346 38.4004 38.1003H39.5996C39.8381 38.1003 40.0676 38.0051 40.2363 37.8366C40.4047 37.6679 40.4999 37.4382 40.5 37.1999V34.7995C40.4998 33.9246 40.1519 33.0842 39.5332 32.4655C38.9186 31.8513 38.0853 31.5033 37.2168 31.4987C37.2116 31.4988 37.2064 31.5006 37.2012 31.5006L10.8008 31.4987ZM19.4766 24.2995C19.3097 24.2994 19.1459 24.3467 19.0039 24.4342C18.8619 24.522 18.7467 24.6483 18.6719 24.7975L16.8242 28.5006H34.7734L32.9219 24.7975C32.8471 24.6483 32.7318 24.522 32.5898 24.4342C32.4835 24.3686 32.3651 24.3245 32.2422 24.3073L32.1172 24.2995H19.4766Z" fill="#FAFAFA"/>
<path d="M32.3164 5.2487C32.6629 4.67679 33.3467 4.40385 33.9922 4.57877C36.4006 5.23169 38.4595 7.11603 39.8809 9.12565C41.2977 11.1292 42.2981 13.5646 42.2988 15.6237C42.3006 16.8485 42.0431 18.0604 41.543 19.1784C41.0428 20.2962 40.3107 21.2951 39.3965 22.11C38.7781 22.6609 37.8304 22.6071 37.2793 21.9889C36.7285 21.3708 36.7829 20.423 37.4004 19.8717C37.9982 19.3389 38.4775 18.6847 38.8047 17.9538C39.1318 17.2225 39.3 16.4287 39.2988 15.6276C39.2987 14.4075 38.6426 12.5683 37.4316 10.8561C37.3025 10.6735 37.1676 10.4971 37.0312 10.3249C37.0698 11.115 36.9595 11.9563 36.5645 12.7428C36.0558 13.7551 35.1622 14.5114 33.9395 14.944L33.9414 14.946C32.8079 15.3478 31.7493 15.3386 30.8184 14.9889C29.9177 14.6505 29.2681 14.0431 28.8203 13.4694C28.7914 13.4323 28.7659 13.3914 28.7383 13.3542C28.3038 14.0739 28.0121 14.8771 27.8965 15.7233C27.9055 16.3393 28.0135 16.9506 28.2188 17.5319C28.4941 18.3129 28.0837 19.1702 27.3027 19.446C26.5219 19.721 25.6664 19.3107 25.3906 18.5299C25.0617 17.5983 24.8933 16.6175 24.8945 15.6296L24.9062 15.4499C25.1875 13.143 26.3291 11.0267 28.1035 9.52604L28.2598 9.4108C28.6343 9.16905 29.1005 9.10458 29.5312 9.24284C30.0213 9.40022 30.3967 9.7976 30.5254 10.2956L30.5293 10.3073C30.5335 10.3222 30.5408 10.3499 30.5527 10.3874C30.5769 10.4631 30.6156 10.5783 30.6719 10.7155C30.7881 10.9986 30.9602 11.3349 31.1855 11.6237C31.4108 11.9122 31.6428 12.0937 31.873 12.1803C32.0742 12.2559 32.3995 12.3085 32.9375 12.1178C33.5232 11.9107 33.7641 11.633 33.8828 11.3971C34.0194 11.1253 34.0857 10.7229 34.0098 10.1725C33.8522 9.03062 33.1495 7.74958 32.498 7.04557C32.0437 6.55468 31.9701 5.82094 32.3164 5.2487Z" fill="#FAFAFA"/>
</svg>
