<svg width="48" height="48" viewBox="0 0 48 48" fill="none" xmlns="http://www.w3.org/2000/svg">
<path fill-rule="evenodd" clip-rule="evenodd" d="M19.4183 5.01563C19.2323 5.03613 19.0496 5.0773 18.8734 5.13672L18.6136 5.23828L18.3675 5.36914C18.1307 5.51008 17.9201 5.68704 17.7386 5.88867L17.7367 5.88672L9.33825 15.2188C9.15665 15.4203 9.0066 15.6468 8.89098 15.8867L8.78551 16.1328L8.70348 16.3848C8.63383 16.6399 8.59997 16.9045 8.59997 17.168C8.60008 17.519 8.66196 17.8697 8.78551 18.2012C8.9094 18.5332 9.09388 18.8462 9.3363 19.1152L9.33825 19.1133L16.8343 27.4414L14.2328 30.334H8.00036V27.834C8.00036 27.0056 7.32878 26.334 6.50036 26.334C5.67204 26.3341 5.00036 27.0056 5.00036 27.834L5.00036 35.834C5.00117 36.6616 5.67254 37.3339 6.50036 37.334C7.32829 37.334 7.99955 36.6617 8.00036 35.834L8.00036 33.334H14.4047C15.1735 33.3336 15.8747 32.9918 16.3656 32.4473L18.8539 29.6855L27.3363 39.1133L27.3382 39.1113C27.5805 39.3806 27.8753 39.606 28.2132 39.7617C28.5521 39.9178 28.9232 39.9999 29.3011 40C29.6791 40 30.0501 39.9178 30.389 39.7617C30.7272 39.6059 31.0236 39.3808 31.266 39.1113L36.4672 33.332H42.2093C42.6009 33.33 42.9679 33.1992 43.264 32.9785C43.558 32.7592 43.7659 32.4651 43.8832 32.1504C44.0002 31.8359 44.0289 31.4971 43.9711 31.1719L43.9105 30.9297C43.8339 30.6908 43.7088 30.4617 43.5316 30.2637L21.6664 5.88867L21.473 5.69531C21.2715 5.51151 21.0412 5.35512 20.7875 5.23828L20.5277 5.13672C20.2633 5.04768 19.9847 5.00007 19.7015 5L19.4183 5.01563ZM33.7816 31.8301L29.3011 36.8086L11.6215 17.166L16.1019 12.1895L33.7816 31.8301ZM39.5629 30.332H36.4652L18.1195 9.94727L19.7015 8.18945L39.5629 30.332Z" fill="#FAFAFA"/>
</svg>
