<svg width="48" height="48" viewBox="0 0 48 48" fill="none" xmlns="http://www.w3.org/2000/svg">
<path d="M14.9941 21.1413C15.7764 20.8707 16.6308 21.2851 16.9023 22.0671C17.1737 22.8497 16.7591 23.7058 15.9766 23.9772C15.7571 24.0533 15.3003 24.2399 14.9727 24.3855C14.3204 24.6753 13.6926 25.0234 13.3047 25.3366C13.2729 25.3623 13.2389 25.3859 13.2051 25.4089C12.5583 25.8488 11.9251 26.4405 11.3223 27.1823C8.93454 30.1208 7.23789 35.1631 6.99023 41.0886H25.3027C25.2433 39.6704 25.1022 38.2969 24.8848 36.987C24.7673 36.2794 24.628 35.5891 24.4687 34.9226C24.3879 34.5845 24.2999 34.2527 24.209 33.9265C23.9866 33.1286 24.4541 32.3014 25.252 32.0788C26.0499 31.8564 26.8771 32.322 27.0996 33.1198C27.2007 33.4826 27.2954 33.8516 27.3848 34.2253C27.5608 34.9618 27.7151 35.72 27.8437 36.4948C28.1649 38.4287 28.3359 40.476 28.3359 42.5886C28.3358 43.4166 27.6639 44.0881 26.8359 44.0886H5.45508C4.62671 44.0886 3.95517 43.4169 3.95508 42.5886C3.95508 35.592 5.83221 29.1832 8.99414 25.2917C9.73851 24.3757 10.5663 23.5825 11.4746 22.9577C12.1514 22.4242 13.0238 21.9677 13.7539 21.6433C14.1103 21.4849 14.6568 21.2583 14.9941 21.1413Z" fill="#FAFAFA"/>
<path d="M30.0483 8.6626V6.87354C30.0483 6.04511 30.7199 5.37354 31.5483 5.37354C32.3768 5.37354 33.0483 6.04511 33.0483 6.87354V8.6626C33.0483 9.49102 32.3768 10.1626 31.5483 10.1626C30.7199 10.1626 30.0483 9.49102 30.0483 8.6626Z" fill="#FAFAFA"/>
<path d="M38.1984 8.95881C38.7842 8.37314 39.7337 8.37306 40.3195 8.95881C40.9051 9.54456 40.9051 10.4941 40.3195 11.0799L39.0539 12.3455C38.4681 12.9312 37.5185 12.9312 36.9328 12.3455C36.347 11.7598 36.3471 10.8102 36.9328 10.2244L38.1984 8.95881Z" fill="#FAFAFA"/>
<path d="M42.4042 16.2298C43.2326 16.2298 43.9042 16.9014 43.9042 17.7298C43.9042 18.5582 43.2326 19.2298 42.4042 19.2298H40.6151C39.7867 19.2298 39.1151 18.5582 39.1151 17.7298C39.1151 16.9014 39.7867 16.2298 40.6151 16.2298H42.4042Z" fill="#FAFAFA"/>
<path d="M36.9328 22.8823C37.5185 22.2966 38.4681 22.2966 39.0538 22.8823L40.3195 24.148C40.905 24.7338 40.9052 25.6833 40.3195 26.2691C39.7338 26.8548 38.7842 26.8546 38.1984 26.2691L36.9328 25.0034C36.347 24.4176 36.347 23.4681 36.9328 22.8823Z" fill="#FAFAFA"/>
<path d="M30.0483 28.3539V26.5648C30.0483 25.7364 30.7199 25.0648 31.5483 25.0648C32.3768 25.0648 33.0483 25.7364 33.0483 26.5648V28.3539C33.0483 29.1823 32.3768 29.8539 31.5483 29.8539C30.7199 29.8539 30.0483 29.1823 30.0483 28.3539Z" fill="#FAFAFA"/>
<path d="M24.2747 22.8823C24.8605 22.2967 25.81 22.2966 26.3958 22.8823C26.9814 23.4681 26.9814 24.4177 26.3958 25.0034L25.1302 26.2691C24.5444 26.8547 23.5948 26.8547 23.0091 26.2691C22.4233 25.6833 22.4234 24.7338 23.0091 24.148L24.2747 22.8823Z" fill="#FAFAFA"/>
<path d="M22.7128 16.2298C23.5412 16.2298 24.2128 16.9014 24.2128 17.7298C24.2128 18.5582 23.5412 19.2298 22.7128 19.2298H20.9237C20.0953 19.2298 19.4237 18.5582 19.4237 17.7298C19.4237 16.9014 20.0953 16.2298 20.9237 16.2298H22.7128Z" fill="#FAFAFA"/>
<path d="M23.0091 8.95881C23.5949 8.37302 24.5444 8.37302 25.1302 8.95881L26.3958 10.2244C26.9813 10.8102 26.9815 11.7598 26.3958 12.3455C25.8101 12.9312 24.8605 12.9311 24.2747 12.3455L23.0091 11.0799C22.4233 10.4941 22.4233 9.54459 23.0091 8.95881Z" fill="#FAFAFA"/>
<path d="M33.8733 17.7306C33.8733 17.1139 33.6277 16.5222 33.1916 16.0861C32.7558 15.6503 32.1654 15.4047 31.5491 15.4045C30.9323 15.4045 30.3406 15.65 29.9045 16.0861C29.4684 16.5222 29.2229 17.1139 29.2229 17.7306C29.2231 18.347 29.4687 18.9373 29.9045 19.3732C30.3406 19.8093 30.9323 20.0548 31.5491 20.0548C32.1655 20.0546 32.7558 19.8091 33.1916 19.3732C33.6275 18.9373 33.8731 18.3471 33.8733 17.7306ZM36.8733 17.7306C36.8731 19.1427 36.3132 20.4978 35.3147 21.4963C34.3162 22.4948 32.9611 23.0546 31.5491 23.0548C30.1371 23.0548 28.7821 22.4944 27.7834 21.4963C26.7849 20.4978 26.2231 19.1427 26.2229 17.7306C26.2229 16.3183 26.7847 14.9637 27.7834 13.965C28.7821 12.9663 30.1367 12.4045 31.5491 12.4045C32.9611 12.4047 34.3162 12.9665 35.3147 13.965C36.3129 14.9636 36.8733 16.3187 36.8733 17.7306Z" fill="#FAFAFA"/>
<path d="M16.2024 28.2453C16.2491 28.2462 16.2836 28.2457 16.302 28.2472C16.4661 28.2604 16.6086 28.2951 16.677 28.3136C16.8438 28.3587 17.0266 28.4256 17.1966 28.4953C17.4893 28.6153 17.9107 28.8215 18.2727 29.091L18.2747 29.0871C19.3195 29.7976 20.0578 30.9608 20.5325 32.216C21.0163 33.4954 21.2785 35.0052 21.2786 36.589C21.2786 37.4174 20.607 38.089 19.7786 38.089H12.511C11.6826 38.089 11.011 37.4174 11.011 36.589C11.0111 35.0053 11.2734 33.4954 11.7571 32.216C12.2318 30.9609 12.9702 29.7976 14.0149 29.0871V29.091C14.3771 28.821 14.7999 28.6155 15.0931 28.4953C15.2629 28.4257 15.4459 28.3587 15.6126 28.3136C15.6811 28.2951 15.8235 28.2604 15.9876 28.2472C16.0059 28.2458 16.0404 28.2462 16.0872 28.2453C16.1071 28.2442 16.126 28.2456 16.1438 28.2453C16.1622 28.2456 16.1818 28.2442 16.2024 28.2453ZM16.1438 31.3097C15.9717 31.3866 15.8435 31.4619 15.802 31.4953C15.7702 31.521 15.7363 31.5445 15.7024 31.5675C15.3496 31.8075 14.9137 32.3513 14.5638 33.2765C14.364 33.8047 14.2111 34.4174 14.1165 35.089H18.1751C18.0805 34.4173 17.9256 33.8047 17.7259 33.2765C17.3759 32.3514 16.94 31.8075 16.5872 31.5675C16.5537 31.5447 16.5211 31.5207 16.4895 31.4953C16.4483 31.4619 16.3174 31.3871 16.1438 31.3097ZM17.5911 30.1281C17.5736 30.1956 17.5549 30.2618 17.5286 30.3253C17.5562 30.259 17.5771 30.1903 17.595 30.1203L17.5911 30.1281ZM14.6927 30.1222C14.7081 30.1824 14.7286 30.2406 14.7513 30.298C14.7296 30.2428 14.7116 30.1863 14.6966 30.1281L14.6927 30.1222Z" fill="#FAFAFA"/>
</svg>
