<svg width="48" height="48" viewBox="0 0 48 48" fill="none" xmlns="http://www.w3.org/2000/svg">
<path fill-rule="evenodd" clip-rule="evenodd" d="M38 2C38.5682 2 39.0876 2.321 39.3416 2.82918L41.2847 6.7153L45.1708 8.65836C45.679 8.91245 46 9.43184 46 10C46 10.5682 45.679 11.0876 45.1708 11.3416L41.2847 13.2847L39.3416 17.1708C39.0876 17.679 38.5682 18 38 18C37.4318 18 36.9124 17.679 36.6584 17.1708L34.7153 13.2847L30.8292 11.3416C30.321 11.0876 30 10.5682 30 10C30 9.43184 30.321 8.91245 30.8292 8.65836L34.7153 6.7153L36.6584 2.82918C36.9124 2.321 37.4318 2 38 2ZM38 6.8541L37.175 8.50415C37.0298 8.79445 36.7944 9.02983 36.5042 9.17497L34.8541 10L36.5042 10.825C36.7944 10.9702 37.0298 11.2056 37.175 11.4958L38 13.1459L38.825 11.4958C38.9702 11.2056 39.2056 10.9702 39.4958 10.825L41.1459 10L39.4958 9.17497C39.2056 9.02983 38.9702 8.79445 38.825 8.50415L38 6.8541ZM11.5 9C10.1193 9 9 10.1193 9 11.5V36.5C9 37.8807 10.1193 39 11.5 39H13.1815C14.1224 33.8793 18.6078 30 24 30C29.3922 30 33.8776 33.8793 34.8185 39H36.5C37.8807 39 39 37.8807 39 36.5V25.5C39 24.6716 39.6716 24 40.5 24C41.3284 24 42 24.6716 42 25.5V36.5C42 39.5376 39.5376 42 36.5 42H11.5C8.46243 42 6 39.5376 6 36.5V11.5C6 8.46243 8.46243 6 11.5 6H22.5C23.3284 6 24 6.67157 24 7.5C24 8.32843 23.3284 9 22.5 9H11.5ZM31.7482 39C30.8603 35.55 27.7276 33 24 33C20.2724 33 17.1397 35.55 16.2518 39H31.7482ZM24 17C21.7909 17 20 18.7909 20 21C20 23.2091 21.7909 25 24 25C26.2091 25 28 23.2091 28 21C28 18.7909 26.2091 17 24 17ZM17 21C17 17.134 20.134 14 24 14C27.866 14 31 17.134 31 21C31 24.866 27.866 28 24 28C20.134 28 17 24.866 17 21Z" fill="#FAFAFA"/>
</svg>
