<svg width="48" height="48" viewBox="0 0 48 48" fill="none" xmlns="http://www.w3.org/2000/svg">
<path d="M14.1854 14.9393C14.7712 14.3536 15.7207 14.3536 16.3065 14.9393L24.3065 22.9393C24.8923 23.5251 24.8923 24.4746 24.3065 25.0604L16.3065 33.0604C15.7207 33.6462 14.7712 33.6462 14.1854 33.0604C13.5996 32.4746 13.5996 31.5251 14.1854 30.9393L21.1249 23.9999L14.1854 17.0604C13.5996 16.4746 13.5996 15.5251 14.1854 14.9393Z" fill="#FAFAFA"/>
<path d="M23.6932 14.9393C24.279 14.3536 25.2286 14.3536 25.8143 14.9393L33.8143 22.9393C34.4001 23.5251 34.4001 24.4746 33.8143 25.0604L25.8143 33.0604C25.2286 33.6462 24.279 33.6462 23.6932 33.0604C23.1075 32.4746 23.1075 31.5251 23.6932 30.9393L30.6327 23.9999L23.6932 17.0604C23.1075 16.4746 23.1075 15.5251 23.6932 14.9393Z" fill="#FAFAFA"/>
</svg>
