<svg width="48" height="48" viewBox="0 0 48 48" fill="none" xmlns="http://www.w3.org/2000/svg">
<path d="M16.5 5.625C17.3284 5.625 18 6.29657 18 7.125C18 7.95343 17.3284 8.625 16.5 8.625H10.7461L22.8633 20.7422C23.7107 21.5894 24.3812 22.5976 24.834 23.707C25.2846 24.8115 25.5107 25.9947 25.5 27.1875V42.75C25.5 43.5784 24.8284 44.25 24 44.25C23.1716 44.25 22.5 43.5784 22.5 42.75V27.1719C22.5086 26.373 22.3585 25.5796 22.0566 24.8398C21.8302 24.2849 21.5208 23.7687 21.1426 23.3066L20.7422 22.8633L8.625 10.7461V16.5C8.625 17.3284 7.95343 18 7.125 18C6.29657 18 5.625 17.3284 5.625 16.5V7.125C5.625 7.03436 5.63303 6.94559 5.64844 6.85938C5.66664 6.75772 5.6951 6.65741 5.73438 6.56055L5.74219 6.54102C5.76535 6.48623 5.79691 6.436 5.82617 6.38477C5.89106 6.27109 5.96743 6.16148 6.06445 6.06445C6.16148 5.96743 6.27109 5.89106 6.38477 5.82617C6.436 5.79691 6.48623 5.76535 6.54102 5.74219L6.56055 5.73438C6.62145 5.70968 6.685 5.6941 6.74805 5.67773C6.77425 5.67093 6.79943 5.6597 6.82617 5.6543C6.83719 5.65207 6.84832 5.65042 6.85938 5.64844C6.94559 5.63303 7.03436 5.625 7.125 5.625H16.5Z" fill="#FAFAFA"/>
<path d="M40.875 5.625C40.965 5.625 41.0531 5.63325 41.1387 5.64844C41.1497 5.6504 41.1609 5.65208 41.1719 5.6543C41.1986 5.65967 41.2238 5.67096 41.25 5.67773C41.3165 5.69489 41.3832 5.71187 41.4473 5.73828C41.5055 5.76236 41.559 5.79523 41.6133 5.82617C41.7275 5.8912 41.8381 5.96701 41.9355 6.06445C42.0323 6.16124 42.1071 6.27141 42.1719 6.38477C42.2029 6.43906 42.2356 6.4925 42.2598 6.55078C42.3012 6.65077 42.3308 6.75419 42.3496 6.85938C42.3651 6.9457 42.375 7.03424 42.375 7.125V16.5C42.375 17.3284 41.7034 18 40.875 18C40.0466 18 39.375 17.3284 39.375 16.5V10.7461L30.6855 19.4355C30.0998 20.0213 29.1502 20.0213 28.5645 19.4355C27.9787 18.8498 27.9787 17.9002 28.5645 17.3145L37.2539 8.625H31.5C30.6716 8.625 30 7.95343 30 7.125C30 6.29657 30.6716 5.625 31.5 5.625H40.875Z" fill="#FAFAFA"/>
</svg>
