<svg width="48" height="48" viewBox="0 0 48 48" fill="none" xmlns="http://www.w3.org/2000/svg">
<path d="M5.83594 32.122L15.7147 42.0007L41.8362 15.8792L31.9575 6.00043L5.83594 32.122ZM43.9576 13.7579C45.129 14.9294 45.129 16.829 43.9576 18.0005L17.836 44.122C16.6645 45.2936 14.765 45.2936 13.5934 44.122L3.71462 34.2433C2.54304 33.0717 2.54304 31.1722 3.71462 30.0006L29.8361 3.87911C31.0077 2.70765 32.9072 2.70758 34.0788 3.87911L43.9576 13.7579Z" fill="#FAFAFA"/>
<path d="M22.7749 10.9394C23.3241 10.3902 24.1936 10.3553 24.7827 10.8359L24.896 10.9394L30.896 16.9394L30.9995 17.0527C31.4801 17.6418 31.4452 18.5113 30.896 19.0605C30.3468 19.6097 29.4774 19.6446 28.8882 19.164L28.7749 19.0605L22.7749 13.0605L22.6714 12.9472C22.1908 12.358 22.2257 11.4886 22.7749 10.9394Z" fill="#FAFAFA"/>
<path d="M16.7749 16.9394C17.3241 16.3902 18.1936 16.3553 18.7827 16.8359L18.896 16.9394L24.896 22.9394L24.9995 23.0527C25.4801 23.6418 25.4452 24.5113 24.896 25.0605C24.3468 25.6097 23.4774 25.6446 22.8882 25.164L22.7749 25.0605L16.7749 19.0605L16.6714 18.9472C16.1908 18.358 16.2257 17.4886 16.7749 16.9394Z" fill="#FAFAFA"/>
<path d="M10.7749 22.9394C11.3241 22.3902 12.1936 22.3553 12.7827 22.8359L12.896 22.9394L18.896 28.9394L18.9995 29.0527C19.4801 29.6418 19.4452 30.5113 18.896 31.0605C18.3468 31.6097 17.4774 31.6446 16.8882 31.164L16.7749 31.0605L10.7749 25.0605L10.6714 24.9472C10.1908 24.358 10.2257 23.4886 10.7749 22.9394Z" fill="#FAFAFA"/>
</svg>
