<svg width="48" height="48" viewBox="0 0 48 48" fill="none" xmlns="http://www.w3.org/2000/svg">
<path fill-rule="evenodd" clip-rule="evenodd" d="M23.16 6.107C23.7112 5.96563 24.2885 5.96564 24.8397 6.107C25.4744 6.26979 26.0241 6.66783 26.5389 7.04254C26.5827 7.07444 26.6264 7.10687 26.6698 7.13825L43.3885 19.2359C44.0452 19.7115 44.1968 20.6344 43.7264 21.2984C43.2561 21.9624 42.3425 22.1152 41.6854 21.6402L39.6092 20.1382V36.2711C39.6092 37.3242 39.6106 38.2033 39.5526 38.9215C39.492 39.6704 39.3603 40.3737 39.0252 41.0386C38.5108 42.059 37.6892 42.8898 36.6795 43.4097C36.0217 43.7484 35.3248 43.8798 34.5838 43.941C33.8824 43.9988 33.0259 43.9976 32.0018 43.9976L31.9999 43.9996H15.9999L15.9959 43.9976C14.9727 43.9976 14.1168 43.9988 13.4159 43.941C12.6747 43.8798 11.9781 43.7485 11.3202 43.4097C10.3105 42.8898 9.4889 42.059 8.97446 41.0386C8.63941 40.3738 8.50961 39.6703 8.44907 38.9215C8.39102 38.2033 8.39046 37.3242 8.39048 36.2711V20.1382L6.31626 21.6402C5.65909 22.1157 4.74376 21.9626 4.27329 21.2984C3.80318 20.6345 3.95477 19.7115 4.61118 19.2359L21.3299 7.13825C21.3734 7.10677 21.4188 7.07454 21.4627 7.04254C21.9773 6.66802 22.5257 6.26978 23.16 6.107ZM23.8827 8.97223C23.8708 8.97679 23.8257 8.99675 23.7303 9.05622C23.5751 9.15304 23.377 9.29511 23.035 9.54254L11.3163 18.0211V36.2105C11.3163 37.3393 11.3179 38.0978 11.3651 38.6812C11.4109 39.2471 11.4938 39.5183 11.5838 39.6968C11.8176 40.1601 12.1899 40.5368 12.6483 40.773C12.825 40.864 13.0939 40.9475 13.6541 40.9937C13.8998 41.014 14.1768 41.0219 14.4999 41.0289V31.9996C14.5001 31.1715 15.1717 30.4997 15.9999 30.4996H16.4999V26.3004C16.5 25.3713 16.9113 24.5153 17.5819 23.9117C18.2474 23.3128 19.1198 22.9996 19.9999 22.9996H23.9999C24.8799 22.9996 25.7523 23.3129 26.4178 23.9117C27.0884 24.5153 27.4997 25.3713 27.4999 26.3004V26.9996H31.9999C32.8281 26.9996 33.4996 27.6714 33.4999 28.4996V41.0289C33.8229 41.0219 34.0999 41.014 34.3456 40.9937C34.9058 40.9475 35.1747 40.864 35.3514 40.773C35.8101 40.5367 36.184 40.1604 36.4178 39.6968C36.5078 39.5183 36.5888 39.2471 36.6346 38.6812C36.6818 38.0978 36.6834 37.3393 36.6834 36.2105V18.0211L24.9647 9.54254C24.6227 9.29507 24.4246 9.15302 24.2694 9.05622C24.174 8.99675 24.1289 8.97679 24.117 8.97223C24.0401 8.95304 23.9596 8.95296 23.8827 8.97223ZM17.4999 40.9996H24.4999V33.4996H17.4999V40.9996ZM27.4999 40.9996H30.4999V29.9996H27.4999V40.9996ZM19.9999 25.9996C19.8195 25.9996 19.6743 26.0662 19.5897 26.1422C19.5108 26.2131 19.5 26.2746 19.4999 26.3004V30.4996H24.4999V26.3004C24.4997 26.2745 24.4889 26.2131 24.41 26.1422C24.3254 26.0662 24.1801 25.9996 23.9999 25.9996H19.9999Z" fill="#FAFAFA"/>
</svg>
