<svg width="48" height="48" viewBox="0 0 48 48" fill="none" xmlns="http://www.w3.org/2000/svg">
<path d="M24.2715 18.6992C24.8472 18.6997 25.3142 19.1664 25.3145 19.7422V20.2305L25.7598 19.7871C26.1673 19.3804 26.8271 19.38 27.2344 19.7871C27.6414 20.1946 27.6416 20.8563 27.2344 21.2637L25.3145 23.1816V23.9238H26.0723L27.9844 22.0137C28.3918 21.6065 29.0515 21.6065 29.459 22.0137C29.8663 22.4211 29.8662 23.0808 29.459 23.4883L29.0273 23.918H29.5098C30.0858 23.9172 30.5536 24.385 30.5547 24.9609C30.5554 25.5372 30.088 26.0051 29.5117 26.0059H29L29.459 26.4648L29.5312 26.543C29.8656 26.9527 29.8408 27.5574 29.459 27.9395C29.0772 28.3209 28.4741 28.3453 28.0645 28.0117L27.9844 27.9395L26.0547 26.0098L25.3145 26.0117V26.7715L27.2344 28.6895L27.3066 28.7695C27.6401 29.1792 27.6157 29.7842 27.2344 30.166C26.8525 30.5477 26.2477 30.5721 25.8379 30.2383L25.7598 30.166L25.3145 29.7207V30.2109C25.3142 30.7867 24.8472 31.2534 24.2715 31.2539C23.6954 31.2539 23.2287 30.787 23.2285 30.2109V29.7188L22.7812 30.166C22.3738 30.5727 21.7139 30.573 21.3066 30.166C20.8994 29.7585 20.8993 29.0968 21.3066 28.6895L23.2285 26.7695V26.0137H22.4785L20.5547 27.9395C20.1472 28.3466 19.4875 28.3467 19.0801 27.9395C18.6736 27.532 18.6732 26.8721 19.0801 26.4648L19.5254 26.0176L19.0449 26.0195C18.4687 26.0203 18.0007 25.5528 18 24.9766C18 24.4009 18.4672 23.9324 19.043 23.9316H19.5234L19.0801 23.4883C18.6732 23.081 18.6734 22.421 19.0801 22.0137C19.4874 21.6063 20.1472 21.6066 20.5547 22.0137L22.4707 23.9277H23.2285V23.1836L21.3066 21.2637C20.8992 20.8563 20.8993 20.1946 21.3066 19.7871C21.7139 19.3799 22.3738 19.3803 22.7812 19.7871L23.2285 20.2324V19.7422C23.2287 19.1661 23.6954 18.6992 24.2715 18.6992Z" fill="#FAFAFA"/>
<path fill-rule="evenodd" clip-rule="evenodd" d="M30 4.5C30.8284 4.5 31.5 5.17157 31.5 6C31.5 6.82843 30.8284 7.5 30 7.5H25.5V12H32L32.6172 12.0156C38.9578 12.3369 44 17.5796 44 24V26C44 31.2615 40.6124 35.7284 35.9004 37.3477V41.0996C35.9004 41.928 35.2288 42.5996 34.4004 42.5996C33.572 42.5996 32.9004 41.928 32.9004 41.0996V37.9609C32.8061 37.9679 32.712 37.9796 32.6172 37.9844L32 38H16C15.6764 38 15.3562 37.9822 15.0391 37.957V41.0996C15.0391 41.928 14.3675 42.5996 13.5391 42.5996C12.7106 42.5996 12.0391 41.928 12.0391 41.0996V37.3281C7.54329 35.7563 4.2674 31.5868 4.01562 26.6172L4 26V24C4 17.3726 9.37258 12 16 12H22.5V7.5H18C17.1716 7.5 16.5 6.82843 16.5 6C16.5 5.17157 17.1716 4.5 18 4.5H30ZM16 15C11.0294 15 7 19.0294 7 24V26C7 30.9706 11.0294 35 16 35H32C36.9706 35 41 30.9706 41 26V24C41 19.0294 36.9706 15 32 15H16Z" fill="#FAFAFA"/>
</svg>
