<svg width="48" height="48" viewBox="0 0 48 48" fill="none" xmlns="http://www.w3.org/2000/svg">
<path d="M39 32.5C39.8284 32.5 40.5 33.1716 40.5 34C40.5 34.8284 39.8284 35.5 39 35.5H9C8.17157 35.5 7.5 34.8284 7.5 34C7.5 33.1716 8.17157 32.5 9 32.5H39Z" fill="#FAFAFA"/>
<path fill-rule="evenodd" clip-rule="evenodd" d="M9.5 14C9.5 15.5837 9.79671 17.0978 10.334 18.4922C11.4508 18.4641 12.5349 18.3038 13.5098 18.0254C14.5869 17.7178 15.4605 17.2887 16.0879 16.8086L16.2988 16.6738C16.8106 16.403 17.4431 16.4486 17.9141 16.8105C18.5384 17.2907 19.4112 17.7216 20.4883 18.0293C21.5603 18.3356 22.7651 18.5 24 18.5C25.2349 18.5 26.4397 18.3356 27.5117 18.0293C28.5887 17.7216 29.4615 17.2907 30.0859 16.8105L30.2969 16.6758C30.809 16.4036 31.4423 16.448 31.9141 16.8105C32.5385 17.2907 33.4113 17.7216 34.4883 18.0293C35.4628 18.3077 36.5471 18.4671 37.6641 18.4941C38.2019 17.0991 38.5 15.5846 38.5 14V12.5H44C44.8284 12.5 45.5 13.1716 45.5 14C45.5 14.8284 44.8284 15.5 44 15.5H41.4258C40.6712 23.3565 34.0543 29.5 26 29.5H22C13.9457 29.5 7.32878 23.3565 6.57422 15.5H4C3.17157 15.5 2.5 14.8284 2.5 14C2.5 13.1716 3.17157 12.5 4 12.5H9.5V14ZM31 19.7969C30.2029 20.2625 29.3007 20.6384 28.3359 20.9141C26.9758 21.3026 25.492 21.5 24 21.5C22.508 21.5 21.0242 21.3026 19.6641 20.9141C18.6987 20.6383 17.7955 20.2629 16.998 19.7969C16.2006 20.2612 15.2982 20.6348 14.334 20.9102C13.5609 21.1309 12.7477 21.2881 11.916 21.3848C14.1907 24.4857 17.8595 26.5 22 26.5H26C30.1391 26.5 33.8052 24.4858 36.0801 21.3867C35.2491 21.2905 34.4364 21.1347 33.6641 20.9141C32.6993 20.6384 31.7971 20.2625 31 19.7969Z" fill="#FAFAFA"/>
</svg>
