<svg width="48" height="48" viewBox="0 0 48 48" fill="none" xmlns="http://www.w3.org/2000/svg">
<path fill-rule="evenodd" clip-rule="evenodd" d="M40.875 11.25C41.7034 11.25 42.375 11.9216 42.375 12.75C42.375 13.5784 41.7034 14.25 40.875 14.25H40.5V37.125C40.5 37.9534 39.8284 38.625 39 38.625C38.1716 38.625 37.5 37.9534 37.5 37.125V33H33.375C31.9826 33 30.6467 32.4475 29.6621 31.4629C28.6775 30.4783 28.125 29.1424 28.125 27.75V21.75H10.5V37.125C10.5 37.9534 9.82843 38.625 9 38.625C8.17157 38.625 7.5 37.9534 7.5 37.125V14.25H7.125C6.29657 14.25 5.625 13.5784 5.625 12.75C5.625 11.9216 6.29657 11.25 7.125 11.25H40.875ZM31.125 27.75C31.125 28.3467 31.3612 28.9198 31.7832 29.3418C32.2052 29.7638 32.7783 30 33.375 30H37.5V21.75H31.125V27.75ZM31.125 18.75H37.5V14.25H31.125V18.75ZM10.5 18.75H28.125V14.25H10.5V18.75Z" fill="#FAFAFA"/>
</svg>
