<svg width="48" height="48" viewBox="0 0 48 48" fill="none" xmlns="http://www.w3.org/2000/svg">
<path fill-rule="evenodd" clip-rule="evenodd" d="M23.0195 9C31.3038 9 38.0195 15.7157 38.0195 24C38.0195 32.2843 31.3038 39 23.0195 39C16.4908 39 10.9326 34.8281 8.87268 29.0001C8.59661 28.2191 7.73962 27.8097 6.95855 28.0857C6.17747 28.3618 5.76809 29.2188 6.04416 29.9999C8.51446 36.989 15.1799 42 23.0195 42C32.9607 42 41.0195 33.9411 41.0195 24C41.0195 14.0589 32.9607 6 23.0195 6C17.4236 6 13.502 8.20831 9.97754 11.8146V8C9.97754 7.17157 9.30597 6.5 8.47754 6.5C7.64912 6.5 6.97754 7.17157 6.97754 8V14.5C6.97754 16.1569 8.32069 17.5 9.97754 17.5H16.4775C17.306 17.5 17.9775 16.8284 17.9775 16C17.9775 15.1716 17.306 14.5 16.4775 14.5H11.5638C14.8656 10.9254 18.1742 9 23.0195 9Z" fill="#FAFAFA"/>
</svg>
