<svg width="48" height="48" viewBox="0 0 48 48" fill="none" xmlns="http://www.w3.org/2000/svg">
<path fill-rule="evenodd" clip-rule="evenodd" d="M7 24C7 14.6112 14.6112 7 24 7C33.3888 7 41 14.6112 41 24C41 33.3888 33.3888 41 24 41C14.6112 41 7 33.3888 7 24ZM24 4C12.9543 4 4 12.9543 4 24C4 35.0457 12.9543 44 24 44C35.0457 44 44 35.0457 44 24C44 12.9543 35.0457 4 24 4ZM19.1213 25.5L23.0607 29.4393C23.6464 30.0251 23.6464 30.9749 23.0607 31.5607C22.4749 32.1464 21.5251 32.1464 20.9393 31.5607L15.8536 26.4749C14.4867 25.108 14.4867 22.892 15.8536 21.5251L20.9393 16.4393C21.5251 15.8536 22.4749 15.8536 23.0607 16.4393C23.6464 17.0251 23.6464 17.9749 23.0607 18.5607L19.1213 22.5H32.5C33.3284 22.5 34 23.1716 34 24C34 24.8284 33.3284 25.5 32.5 25.5H19.1213Z" fill="#FAFAFA"/>
</svg>
