<svg width="48" height="48" viewBox="0 0 48 48" fill="none" xmlns="http://www.w3.org/2000/svg">
<path fill-rule="evenodd" clip-rule="evenodd" d="M24 4C35.0457 4 44 12.9543 44 24C44 35.0457 35.0457 44 24 44C12.9543 44 4 35.0457 4 24C4 12.9543 12.9543 4 24 4ZM24 30.0762C19.1509 30.0765 14.9219 32.7501 12.7148 36.709C15.717 39.3767 19.6679 41 24 41C28.3315 41 32.2812 39.3761 35.2832 36.709C33.0758 32.7506 28.8487 30.0765 24 30.0762ZM24 7C14.6112 7 7 14.6112 7 24C7 27.9337 8.33895 31.5531 10.582 34.4336C12.4627 31.4888 15.2878 29.2042 18.6309 28.0059C17.0153 26.5422 16.0001 24.4279 16 22.0762C16 17.6579 19.5817 14.0762 24 14.0762C28.4183 14.0762 32 17.6579 32 22.0762C31.9999 24.4284 30.9834 26.5422 29.3672 28.0059C32.71 29.2039 35.5349 31.4874 37.416 34.4316C39.659 31.5511 41 27.9336 41 24C41 14.6112 33.3888 7 24 7ZM24 17.0762C21.2386 17.0762 19 19.3147 19 22.0762C19.0003 24.8374 21.2387 27.0762 24 27.0762C26.7613 27.0762 28.9997 24.8374 29 22.0762C29 19.3147 26.7614 17.0762 24 17.0762Z" fill="#FAFAFA"/>
</svg>
