<svg width="48" height="48" viewBox="0 0 48 48" fill="none" xmlns="http://www.w3.org/2000/svg">
<path fill-rule="evenodd" clip-rule="evenodd" d="M31.5292 3.77344C32.328 3.77348 32.9867 4.39957 33.0273 5.19727L33.3378 11.3867H37.2734C38.1013 11.3873 38.7734 12.0586 38.7734 12.8867C38.7731 13.7146 38.1012 14.3862 37.2734 14.3867H33.4902L33.9101 22.7598H35.6757C36.2204 22.7598 36.7236 23.0552 36.9882 23.5312L43.5351 35.3164C43.793 35.7809 43.785 36.3487 43.5155 36.8066C43.2459 37.2641 42.7536 37.5449 42.2226 37.5449H34.6542L34.9433 43.2773H37.2734C38.1011 43.2779 38.7729 43.9496 38.7734 44.7773C38.7731 45.6052 38.1012 46.2768 37.2734 46.2773H11.205C10.3767 46.2773 9.70526 45.6055 9.705 44.7773C9.70542 43.9493 10.3768 43.2773 11.205 43.2773H13.2812L13.6034 37.5449H5.77726C5.24975 37.5449 4.76103 37.2671 4.49015 36.8145C4.21978 36.362 4.20591 35.8005 4.455 35.3359L10.7851 23.5508L10.8944 23.377C11.1741 22.9932 11.6224 22.76 12.1054 22.7598H14.4277L14.8964 14.3867H11.205C10.3767 14.3867 9.70526 13.7149 9.705 12.8867C9.705 12.0583 10.3766 11.3867 11.205 11.3867H15.0644L15.4101 5.18945L15.455 4.90039C15.6216 4.24928 16.2119 3.77344 16.9081 3.77344H31.5292ZM16.3105 42.8379H31.9159L31.6503 37.5449H16.6073L16.3105 42.8379ZM8.28703 34.5449H11.4101L9.33585 32.5879L8.28703 34.5449ZM20.0546 34.5449H28.2265L24.1484 31.7539L20.0546 34.5449ZM36.6894 34.5449H39.6737L38.6054 32.6211L36.6894 34.5449ZM26.8105 29.9414L31.4257 33.0977L31.1191 27.0039L26.8105 29.9414ZM16.8534 33.0938L21.4902 29.9355L17.1952 26.998L16.8534 33.0938ZM10.8066 29.8496L13.871 32.7422L14.2616 25.7598H13.0038L10.8066 29.8496ZM34.4042 32.5859L37.0898 29.8926L34.7929 25.7598H34.0624L34.4042 32.5859ZM24.1523 28.123L27.621 25.7598H20.6972L24.1523 28.123ZM20.3495 22.7598H27.996L24.1796 19.8867L20.3495 22.7598ZM26.6796 18.0137L30.8241 21.1328L30.5234 15.1309L26.6796 18.0137ZM17.6269 19.293L17.5234 21.127L21.6855 18.0078L17.8573 15.127L17.6269 19.293ZM21.8612 14.3867L24.1835 16.1348L26.5155 14.3867H21.8612ZM21.9179 11.3867H26.4902L24.2089 10.3242L21.9179 11.3867ZM27.7675 8.67188L30.2558 9.83008L30.1425 7.57031L27.7675 8.67188ZM18.1542 9.82617L20.6503 8.66797L18.2812 7.56641L18.1542 9.82617ZM24.2089 7.01562L24.7343 6.77344H23.6855L24.2089 7.01562Z" fill="#FAFAFA"/>
</svg>
