<svg width="48" height="48" viewBox="0 0 48 48" fill="none" xmlns="http://www.w3.org/2000/svg">
<path fill-rule="evenodd" clip-rule="evenodd" d="M35.5 28C38.8135 28.0003 41.5 30.6865 41.5 34C41.5 35.7743 40.7242 37.3625 39.5 38.4609C41.5482 39.5707 42.6178 41.3978 42.9473 42.6055C43.165 43.4045 42.6934 44.2291 41.8945 44.4473C41.0956 44.6646 40.2707 44.1934 40.0527 43.3945C39.825 42.5603 38.6033 40.5002 35.5 40.5C32.3968 40.5004 31.1749 42.5604 30.9473 43.3945C30.7293 44.1934 29.9044 44.6648 29.1055 44.4473C28.3068 44.229 27.8351 43.4043 28.0527 42.6055C28.382 41.3982 29.4512 39.5708 31.498 38.4609C30.2747 37.3625 29.5 35.7736 29.5 34C29.5 30.6866 32.1867 28.0004 35.5 28ZM35.5 31C33.8435 31.0004 32.5 32.3434 32.5 34C32.5 35.6566 33.8435 36.9996 35.5 37C37.1566 36.9997 38.5 35.6567 38.5 34C38.5 32.3433 37.1566 31.0003 35.5 31Z" fill="#FAFAFA"/>
<path fill-rule="evenodd" clip-rule="evenodd" d="M32.5 4C33.3284 4 34 4.67157 34 5.5V8H36.5C39.5376 8 42 10.4624 42 13.5V22.5C42 23.3284 41.3284 24 40.5 24C39.6716 24 39 23.3284 39 22.5V20H9V36.5C9 37.8807 10.1193 39 11.5 39H22.5C23.3284 39 24 39.6716 24 40.5C24 41.3284 23.3284 42 22.5 42H11.5C8.46243 42 6 39.5376 6 36.5V13.5C6 10.4624 8.46243 8 11.5 8H14V5.5C14 4.67157 14.6716 4 15.5 4C16.3284 4 17 4.67157 17 5.5V8H31V5.5C31 4.67157 31.6716 4 32.5 4ZM11.5 11C10.1193 11 9 12.1193 9 13.5V17H39V13.5C39 12.1193 37.8807 11 36.5 11H11.5Z" fill="#FAFAFA"/>
</svg>
