<svg width="48" height="48" viewBox="0 0 48 48" fill="none" xmlns="http://www.w3.org/2000/svg">
<path d="M38.3519 13.7812C39.3214 13.619 40.4067 13.7942 41.2523 14.5332L41.4163 14.6895L41.5081 14.7891C42.8154 16.3644 42.4316 18.6901 41.0902 20.2617C42.2539 25.8316 42.2533 30.2608 41.0902 35.8301C41.7295 36.5644 42.1688 37.438 42.3187 38.3398C42.4901 39.373 42.2817 40.5371 41.4163 41.4062C41.3846 41.4381 41.3512 41.4692 41.3167 41.498C39.6899 42.8589 37.2659 42.3974 35.7015 40.9414C27.9428 42.6911 20.0558 42.6916 12.2972 40.9414C11.5368 41.6556 10.6117 42.1533 9.64875 42.3145C8.61464 42.4872 7.4505 42.2759 6.5843 41.4062C6.55295 41.3747 6.5209 41.3408 6.4925 41.3066C5.18638 39.7311 5.56873 37.4033 6.91047 35.832C5.74715 30.2628 5.74702 25.8331 6.91047 20.2637C6.27199 19.5296 5.83151 18.6571 5.68196 17.7559C5.51081 16.7231 5.71957 15.5583 6.5843 14.6895L6.68391 14.5977C8.30075 13.2446 10.7044 13.6958 12.2698 15.1309C14.7779 14.4876 17.2917 14.0918 19.8089 13.9512C20.6358 13.905 21.3444 14.5385 21.3909 15.3652C21.4366 16.1919 20.8036 16.8991 19.9769 16.9453C17.4011 17.0892 14.8181 17.5204 12.2308 18.2422C11.7086 18.3872 11.1484 18.2395 10.7659 17.8555L10.3167 17.4062C9.93883 17.0273 9.52491 16.8489 9.19367 16.8027C8.93283 16.7667 8.76308 16.8118 8.67219 16.8574C8.63815 16.9201 8.60409 17.0427 8.64094 17.2656C8.69514 17.5909 8.89893 18.0292 9.30696 18.4395C9.45587 18.589 9.45758 18.5914 9.60578 18.7402C9.96679 19.1032 10.1177 19.6254 10.0062 20.125C8.7105 25.9087 8.71062 30.1872 10.0062 35.9707C10.1179 36.4704 9.96689 36.9924 9.60578 37.3555C9.45694 37.505 9.45603 37.5065 9.30696 37.6562C8.9292 38.0358 8.75022 38.4536 8.70344 38.791C8.66672 39.0567 8.71367 39.2301 8.76008 39.3242C8.8202 39.3572 8.9365 39.3913 9.15266 39.3555C9.47238 39.302 9.90764 39.1001 10.3167 38.6895C10.4659 38.5396 10.6167 38.3901 10.7659 38.2402L10.9105 38.1113C11.2673 37.8353 11.7348 37.733 12.18 37.8398C20.0128 39.7337 27.9877 39.7335 35.8206 37.8398L36.012 37.8066C36.4605 37.7583 36.9133 37.916 37.2366 38.2402C37.385 38.3894 37.535 38.54 37.6839 38.6895L37.971 38.9375C38.2619 39.1498 38.5584 39.258 38.807 39.293C39.0671 39.3292 39.235 39.2818 39.3265 39.2363C39.3605 39.1734 39.3967 39.0529 39.3597 38.8301C39.3188 38.586 39.1949 38.278 38.9632 37.9668L38.6937 37.6562L38.3948 37.3555C38.0346 36.9925 37.8829 36.4699 37.9945 35.9707C39.2901 30.1869 39.2902 25.9089 37.9945 20.125C37.8832 19.6258 38.0343 19.103 38.3948 18.7402L38.6937 18.4395L38.9417 18.1504C39.154 17.8569 39.2621 17.558 39.2972 17.3047C39.3342 17.0358 39.2856 16.8628 39.2386 16.7695C39.1773 16.7372 39.0605 16.7048 38.848 16.7402C38.5283 16.7941 38.0925 16.996 37.6839 17.4062C37.0994 17.9928 36.1497 17.9945 35.5628 17.4102C34.9771 16.8257 34.9734 15.8758 35.557 15.2891C36.3421 14.5005 37.3281 13.953 38.3519 13.7812Z" fill="#FAFAFA"/>
<path d="M23.9573 19.5137C24.4349 19.5801 24.8567 19.875 25.0823 20.3105C25.3399 20.8086 25.299 21.4096 24.9749 21.8672L22.4007 25.5H24.0003C24.8287 25.5 25.5003 26.1716 25.5003 27C25.5003 27.8284 24.8287 28.5 24.0003 28.5H19.5003C18.9401 28.4996 18.4258 28.187 18.1683 27.6895C17.9111 27.1916 17.9521 26.5902 18.2757 26.1328L20.8499 22.5H19.7503C18.9224 22.4994 18.2503 21.8281 18.2503 21C18.2503 20.1719 18.9224 19.5006 19.7503 19.5H23.7503L23.9573 19.5137Z" fill="#FAFAFA"/>
<path d="M31.8753 6C32.4358 6 32.9496 6.31294 33.2073 6.81055C33.4649 7.30864 33.424 7.90957 33.0999 8.36719L28.4007 15H32.2503C33.0787 15 33.7503 15.6716 33.7503 16.5C33.7503 17.3284 33.0787 18 32.2503 18H25.5003C24.9401 17.9996 24.4258 17.687 24.1683 17.1895C23.9111 16.6916 23.9521 16.0902 24.2757 15.6328L28.9749 9H25.8753C25.0474 8.99941 24.3753 8.32807 24.3753 7.5C24.3753 6.67193 25.0474 6.00059 25.8753 6H31.8753Z" fill="#FAFAFA"/>
</svg>
