<svg width="48" height="48" viewBox="0 0 48 48" fill="none" xmlns="http://www.w3.org/2000/svg">
<path fill-rule="evenodd" clip-rule="evenodd" d="M24 41C33.3888 41 41 33.3888 41 24C41 14.6112 33.3888 7 24 7C14.6112 7 7 14.6112 7 24C7 33.3888 14.6112 41 24 41ZM44 24C44 35.0457 35.0457 44 24 44C12.9543 44 4 35.0457 4 24C4 12.9543 12.9543 4 24 4C35.0457 4 44 12.9543 44 24Z" fill="#FAFAFA"/>
<path fill-rule="evenodd" clip-rule="evenodd" d="M14.9393 28.6464C15.5251 29.2322 16.4749 29.2322 17.0607 28.6464L23.6464 22.0607C23.8417 21.8654 24.1583 21.8654 24.3536 22.0607L30.9393 28.6464C31.5251 29.2322 32.4749 29.2322 33.0607 28.6464C33.6464 28.0607 33.6464 27.1109 33.0607 26.5251L26.4749 19.9393C25.108 18.5725 22.892 18.5725 21.5251 19.9393L14.9393 26.5251C14.3536 27.1109 14.3536 28.0607 14.9393 28.6464Z" fill="#FAFAFA"/>
</svg>
