<svg width="48" height="48" viewBox="0 0 48 48" fill="none" xmlns="http://www.w3.org/2000/svg">
<path fill-rule="evenodd" clip-rule="evenodd" d="M9.89532 12.5217L22.4169 22.7667C23.3378 23.5201 24.6622 23.5201 25.5831 22.7667L38.1047 12.5217C37.6299 12.5014 37.0072 12.5 36.1 12.5H11.9C10.9928 12.5 10.3701 12.5014 9.89532 12.5217ZM5.5958 12.8801C5.65875 12.4043 5.76308 12.0234 5.93597 11.684C6.22258 11.1215 6.63677 10.6376 7.14194 10.269C7.31272 10.1443 7.49389 10.0329 7.68404 9.93597C8.53969 9.5 9.65979 9.5 11.9 9.5H36.1C38.3402 9.5 39.4603 9.5 40.316 9.93597C40.5061 10.0329 40.6873 10.1443 40.8581 10.269C41.3632 10.6376 41.7774 11.1215 42.064 11.684C42.2369 12.0234 42.3412 12.4043 42.4042 12.8801C42.5 13.6042 42.5 14.5482 42.5 15.9V32.1C42.5 34.3402 42.5 35.4603 42.064 36.316C41.6805 37.0686 41.0686 37.6805 40.316 38.064C39.4603 38.5 38.3402 38.5 36.1 38.5H11.9C9.65979 38.5 8.53969 38.5 7.68404 38.064C6.93139 37.6805 6.31947 37.0686 5.93597 36.316C5.5 35.4603 5.5 34.3402 5.5 32.1V15.9C5.5 14.5482 5.5 13.6042 5.5958 12.8801ZM39.4994 15.2567L27.4828 25.0885C25.4568 26.7462 22.5432 26.7462 20.5172 25.0885L8.50057 15.2567C8.50009 15.454 8.5 15.6677 8.5 15.9V32.1C8.5 33.2696 8.50233 33.9664 8.54453 34.4829C8.57029 34.7981 8.60427 34.9306 8.61529 34.9661C8.70937 35.1447 8.85529 35.2906 9.03385 35.3847C9.06937 35.3957 9.20187 35.4297 9.5171 35.4555C10.0336 35.4977 10.7304 35.5 11.9 35.5H36.1C37.2696 35.5 37.9664 35.4977 38.4829 35.4555C38.7981 35.4297 38.9306 35.3957 38.9661 35.3847C39.1447 35.2906 39.2906 35.1447 39.3847 34.9661C39.3957 34.9306 39.4297 34.7981 39.4555 34.4829C39.4977 33.9664 39.5 33.2696 39.5 32.1V15.9C39.5 15.6677 39.4999 15.454 39.4994 15.2567Z" fill="#FAFAFA"/>
</svg>
