<svg width="48" height="48" viewBox="0 0 48 48" fill="none" xmlns="http://www.w3.org/2000/svg">
<path d="M23.2002 5.34961C32.2784 5.34988 39.7002 12.7723 39.7002 21.8506C39.6999 22.6786 39.0282 23.3503 38.2002 23.3506C37.3719 23.3506 36.7005 22.6788 36.7002 21.8506C36.7002 14.4292 30.6215 8.35085 23.2002 8.35059C15.7786 8.35059 9.7002 14.429 9.7002 21.8506C9.70046 29.2719 15.7788 35.3506 23.2002 35.3506H36.2979L33.54 33.0527C32.9038 32.5225 32.8178 31.5768 33.3477 30.9404C33.8779 30.3041 34.8235 30.2179 35.46 30.748L41.46 35.748C41.8018 36.033 42 36.4553 42 36.9004C41.9999 37.3454 41.8018 37.7678 41.46 38.0527L35.46 43.0527C34.8236 43.5826 33.8779 43.4964 33.3477 42.8604C32.8176 42.224 32.9039 41.2784 33.54 40.748L36.417 38.3506H23.2002C14.1219 38.3506 6.69948 30.9288 6.69922 21.8506C6.69922 12.7722 14.1218 5.34961 23.2002 5.34961Z" fill="#FAFAFA"/>
<path d="M23.3994 10.2998C24.2278 10.2998 24.8993 10.9715 24.8994 11.7998V14.2793L26.4395 12.7393C27.0253 12.1538 27.9749 12.1536 28.5605 12.7393C29.1461 13.3249 29.1459 14.2746 28.5605 14.8604L24.8994 18.5215V20.2998H25.8789L29.4395 16.7393C30.0253 16.1538 30.9749 16.1536 31.5605 16.7393C32.1461 17.3249 32.1459 18.2746 31.5605 18.8604L30.1211 20.2998H33.3994C34.2278 20.2998 34.8993 20.9715 34.8994 21.7998C34.8994 22.6282 34.2278 23.2998 33.3994 23.2998H30.1211L31.5605 24.7393C32.1461 25.3249 32.1459 26.2746 31.5605 26.8604C30.9748 27.4461 30.0252 27.446 29.4395 26.8604L25.8789 23.2998H24.8994V25.0781L28.5605 28.7393C29.1461 29.3249 29.1459 30.2746 28.5605 30.8604C27.9748 31.4461 27.0252 31.446 26.4395 30.8604L24.8994 29.3203V31.7998C24.8994 32.6282 24.2278 33.2998 23.3994 33.2998C22.571 33.2998 21.8994 32.6282 21.8994 31.7998V29.5215L20.5605 30.8604C19.9748 31.4461 19.0252 31.446 18.4395 30.8604C17.8537 30.2746 17.8537 29.325 18.4395 28.7393L21.8994 25.2793V23.2998H21.1211L17.5605 26.8604C16.9748 27.4461 16.0252 27.446 15.4395 26.8604C14.8537 26.2746 14.8537 25.325 15.4395 24.7393L16.8789 23.2998H13.3994C12.571 23.2998 11.8994 22.6282 11.8994 21.7998C11.8995 20.9715 12.5711 20.2998 13.3994 20.2998H16.8789L15.4395 18.8604C14.8537 18.2746 14.8537 17.325 15.4395 16.7393C16.0253 16.1538 16.9749 16.1536 17.5605 16.7393L21.1211 20.2998H21.8994V18.3203L18.4395 14.8604C17.8537 14.2746 17.8537 13.325 18.4395 12.7393C19.0253 12.1538 19.9749 12.1536 20.5605 12.7393L21.8994 14.0781V11.7998C21.8995 10.9715 22.5711 10.2998 23.3994 10.2998Z" fill="#FAFAFA"/>
</svg>
