<svg width="48" height="48" viewBox="0 0 48 48" fill="none" xmlns="http://www.w3.org/2000/svg">
<path d="M24 29.3105C25.1731 29.3106 26.1242 30.2626 26.125 31.4355C26.125 32.6091 25.1735 33.5605 24 33.5605C22.8996 33.5605 21.9954 32.7241 21.8867 31.6523L21.875 31.4355L21.8867 31.2188C21.996 30.1477 22.9001 29.3105 24 29.3105Z" fill="#FAFAFA"/>
<path d="M23.998 21.9375C26.4636 21.9377 28.8557 22.784 30.7734 24.334C31.4172 24.8545 31.5177 25.7992 30.998 26.4434C30.4772 27.0876 29.5309 27.1888 28.8867 26.668C27.5029 25.5495 25.7772 24.9377 23.998 24.9375C22.2185 24.9376 20.4914 25.5491 19.1074 26.668C18.4632 27.1886 17.5188 27.0875 16.998 26.4434C16.4782 25.7992 16.5769 24.8545 17.2207 24.334C19.1386 22.7835 21.532 21.9376 23.998 21.9375Z" fill="#FAFAFA"/>
<path d="M24 14.4375C27.9832 14.4376 31.8462 15.8041 34.9434 18.3086C35.5872 18.8294 35.6865 19.7739 35.166 20.418C34.6451 21.0621 33.7008 21.1615 33.0566 20.6406C30.4934 18.5681 27.2963 17.4376 24 17.4375C20.7037 17.4375 17.5066 18.5681 14.9434 20.6406C14.2992 21.1615 13.3549 21.0621 12.834 20.418C12.3134 19.7738 12.4126 18.8294 13.0566 18.3086C16.1538 15.8041 20.0168 14.4375 24 14.4375Z" fill="#FAFAFA"/>
<path fill-rule="evenodd" clip-rule="evenodd" d="M37 4.42383C39.7614 4.42383 42 6.66241 42 9.42383V23.6152C42 36.4109 29.7679 42.2514 25.4707 43.9082L25.1113 44.0273C24.2628 44.2646 23.3706 44.206 22.5469 43.8594C18.2657 42.0579 6 35.8309 6 23.6152V9.42383C6 6.6624 8.23858 4.42383 11 4.42383H37ZM11 7.42383C9.89543 7.42383 9 8.31926 9 9.42383V23.6152C9 28.6113 11.4808 32.4783 14.6973 35.4336C17.9384 38.4114 21.722 40.2588 23.7109 41.0957C23.9435 41.1934 24.1707 41.1949 24.3926 41.1094C26.3744 40.3452 30.1226 38.6331 33.3301 35.7188C36.4929 32.8449 39 28.9372 39 23.6152V9.42383C39 8.31926 38.1046 7.42383 37 7.42383H11Z" fill="#FAFAFA"/>
</svg>
