<svg width="48" height="48" viewBox="0 0 48 48" fill="none" xmlns="http://www.w3.org/2000/svg">
<path d="M34.5 4C37.5376 4 40 6.46244 40 9.5V20.4922C40 21.3206 39.3284 21.9922 38.5 21.9922C37.6716 21.9922 37 21.3206 37 20.4922V9.5C37 8.11929 35.8807 7 34.5 7H13.5C12.1193 7 11 8.11929 11 9.5V38.5C11 39.8807 12.1193 41 13.5 41H20.5C21.3284 41 22 41.6716 22 42.5C22 43.3284 21.3284 44 20.5 44H13.5C10.4624 44 8 41.5376 8 38.5V9.5C8 6.46243 10.4624 4 13.5 4H34.5ZM34.0059 23.9883C39.5319 23.9883 44.0117 28.4681 44.0117 33.9941C44.0117 39.5202 39.5319 44 34.0059 44C28.4798 44 24 39.5202 24 33.9941C24 28.4681 28.4798 23.9883 34.0059 23.9883ZM34.0059 26.9883C30.1366 26.9883 27 30.1249 27 33.9941C27 37.8634 30.1366 41 34.0059 41C37.8751 41 41.0117 37.8634 41.0117 33.9941C41.0117 30.1249 37.8751 26.9883 34.0059 26.9883ZM36.1973 30.9395C36.6303 30.5214 37.2854 30.4419 37.8008 30.7324L38.0117 30.8789L38.1914 31.0645C38.5623 31.5243 38.5938 32.1817 38.2539 32.6777C38.2454 32.6901 38.2358 32.7029 38.2266 32.7148L38.1914 32.7598C38.1844 32.7688 38.1773 32.7784 38.1699 32.7871L34.1094 37.5859C33.8649 37.8745 33.5103 38.0485 33.1328 38.0645C32.8049 38.078 32.4813 37.9715 32.2246 37.7637C32.2123 37.7537 32.1992 37.7431 32.1875 37.7324L32.1445 37.6934L29.9043 35.4531C29.8963 35.4451 29.8885 35.4361 29.8809 35.4277L29.8418 35.3867C29.8318 35.3758 29.8219 35.3631 29.8125 35.3516C29.3783 34.8188 29.4091 34.0345 29.9043 33.5391L30.1035 33.375C30.5231 33.0906 31.0675 33.0677 31.5078 33.3066L31.7168 33.4473L31.752 33.4766L31.793 33.5156L31.8203 33.5391L32.9922 34.7109L36.1035 31.0391C36.1115 31.0296 36.1205 31.0188 36.1289 31.0098L36.168 30.9688L36.1973 30.9395ZM22.5 20C23.3284 20 24 20.6716 24 21.5C24 22.3284 23.3284 23 22.5 23H17.5C16.6716 23 16 22.3284 16 21.5C16 20.6716 16.6716 20 17.5 20H22.5ZM30.5 12C31.3284 12 32 12.6716 32 13.5C32 14.3284 31.3284 15 30.5 15H17.5C16.6716 15 16 14.3284 16 13.5C16 12.6716 16.6716 12 17.5 12H30.5Z" fill="#FAFAFA"/>
</svg>
