<svg width="48" height="48" viewBox="0 0 48 48" fill="none" xmlns="http://www.w3.org/2000/svg">
<path d="M34.5 4C37.5376 4 40 6.46243 40 9.5V38.5C40 41.5376 37.5376 44 34.5 44H13.5C10.4624 44 8 41.5376 8 38.5V9.5C8 6.46243 10.4624 4 13.5 4H34.5ZM13.5 31C12.1193 31 11 32.1193 11 33.5V38.5C11 39.8807 12.1193 41 13.5 41H34.5C35.8807 41 37 39.8807 37 38.5V33.5C37 32.1193 35.8807 31 34.5 31H13.5ZM26 34C27.1046 34 28 34.8954 28 36C28 37.1046 27.1046 38 26 38C24.8954 38 24 37.1046 24 36C24 34.8954 24.8954 34 26 34ZM32 34C33.1046 34 34 34.8954 34 36C34 37.1046 33.1046 38 32 38C30.8954 38 30 37.1046 30 36C30 34.8954 30.8954 34 32 34ZM13.5 7C12.1193 7 11 8.11929 11 9.5V28.5996C11.7501 28.2162 12.5998 28 13.5 28H34.5C35.4002 28 36.2499 28.2162 37 28.5996V9.5C37 8.11929 35.8807 7 34.5 7H13.5Z" fill="#FAFAFA"/>
</svg>
