<svg width="48" height="48" viewBox="0 0 48 48" fill="none" xmlns="http://www.w3.org/2000/svg">
<path fill-rule="evenodd" clip-rule="evenodd" d="M22.5098 4.54057C23.4841 4.26643 24.516 4.26643 25.4903 4.54057C26.1179 4.71725 26.6567 5.02237 27.1895 5.39603C27.6968 5.75178 28.2745 6.22498 28.961 6.78666L39.1036 15.0835C39.1467 15.1188 39.1884 15.1546 39.2305 15.189C39.9678 15.7914 40.5495 16.2652 40.9786 16.8667C41.3564 17.3965 41.6359 17.9907 41.8067 18.6187C42.0005 19.3317 42.0007 20.0806 42.0001 21.0328V35.8277C42.0001 36.8955 42.001 37.7869 41.9415 38.5152C41.8794 39.2749 41.7441 39.9891 41.4005 40.6636C40.8733 41.6978 40.0323 42.5388 38.9981 43.066C38.3236 43.4096 37.6094 43.5449 36.8497 43.607C36.1212 43.6665 35.2285 43.6656 34.1602 43.6656H13.8399C12.7716 43.6656 11.8789 43.6665 11.1505 43.607C10.391 43.5449 9.67827 43.4094 9.00397 43.066C7.96929 42.5388 7.127 41.6982 6.59967 40.6636C6.256 39.9891 6.12269 39.2749 6.06061 38.5152C6.00109 37.7867 6.00004 36.894 6.00006 35.8257V21.0328C5.99944 20.0807 5.99962 19.3317 6.19342 18.6187C6.36419 17.9907 6.64368 17.3965 7.02155 16.8667C7.45066 16.2651 8.03224 15.7915 8.76959 15.189L19.0391 6.78666C19.7256 6.22496 20.3033 5.75181 20.8106 5.39603C21.3434 5.0224 21.8823 4.71728 22.5098 4.54057ZM24.6778 7.42728C24.235 7.30268 23.7652 7.30268 23.3223 7.42728C23.1468 7.47676 22.9226 7.58002 22.5333 7.85307C22.1281 8.13729 21.6353 8.53773 20.8965 9.14213L10.7969 17.4058C9.87158 18.1629 9.63151 18.3755 9.46491 18.6089C9.29315 18.8497 9.16557 19.1204 9.08795 19.4058C9.01276 19.6826 9.00006 20.0029 9.00006 21.1988V35.7652C9.00006 36.91 9.00054 37.6793 9.04889 38.271C9.09581 38.8451 9.18123 39.1192 9.2735 39.3003C9.51319 39.7707 9.89489 40.1544 10.3653 40.3941C10.5464 40.4863 10.8211 40.5698 11.3946 40.6167C11.9864 40.6651 12.7556 40.6656 13.9005 40.6656H34.0997C35.2445 40.6656 36.0138 40.6651 36.6055 40.6167C37.179 40.5699 37.4537 40.4862 37.6348 40.3941C38.1052 40.1544 38.4889 39.7707 38.7286 39.3003C38.8207 39.1192 38.9044 38.8445 38.9512 38.271C38.9996 37.6793 39.0001 36.91 39.0001 35.7652V21.1988C39.0001 20.0027 38.9874 19.6826 38.9122 19.4058C38.8346 19.1204 38.707 18.8497 38.5352 18.6089C38.3686 18.3756 38.1283 18.1627 37.2032 17.4058L27.1036 9.14213C26.3647 8.53759 25.8721 8.1373 25.4669 7.85307C25.0773 7.57983 24.8533 7.47672 24.6778 7.42728Z" fill="#FAFAFA"/>
<path d="M18.7009 35.2977C17.9784 34.8306 17.7825 33.8842 18.2645 33.184C18.7467 32.4843 19.7239 32.2967 20.4468 32.7633L21.3525 33.3468C21.8056 33.6389 22.4153 33.5382 22.7418 33.1165L23.0041 32.8089C24.2866 31.4519 26.3651 31.1072 28.0408 31.9733L28.3933 32.1778L29.299 32.7613L29.4281 32.8545C30.0441 33.3458 30.1875 34.2201 29.7355 34.877C29.2533 35.5767 28.276 35.7661 27.5532 35.2997L26.6474 34.7142C26.2511 34.4591 25.7348 34.5039 25.3934 34.8015L25.2581 34.9444C23.9294 36.6603 21.4495 37.0724 19.6067 35.8832L18.7009 35.2977Z" fill="#FAFAFA"/>
<path d="M18.5718 27.7376C17.956 27.2464 17.8124 26.372 18.2645 25.7152C18.7163 25.0595 19.6029 24.8527 20.3075 25.2131L20.4468 25.2925L21.3525 25.8779C21.8055 26.1698 22.4154 26.0693 22.7418 25.6477L23.0041 25.3401C24.3783 23.8862 26.6659 23.5945 28.3933 24.709L29.299 25.2925C30.0219 25.7593 30.217 26.7058 29.7355 27.4062C29.2534 28.1066 28.2763 28.2959 27.5532 27.8289L26.6474 27.2454C26.2511 26.9903 25.7348 27.0351 25.3934 27.3327L25.2581 27.4756C23.9292 29.1918 21.4476 29.6045 19.6046 28.4144L18.7009 27.8289L18.5718 27.7376Z" fill="#FAFAFA"/>
<path d="M18.7009 20.3601C17.9784 19.893 17.7825 18.9466 18.2645 18.2464C18.7466 17.5468 19.7239 17.3575 20.4468 17.8237L21.3525 18.4091C21.8055 18.701 22.4154 18.6005 22.7418 18.1789L23.0041 17.8713C24.3783 16.4174 26.6659 16.1257 28.3933 17.2402L29.299 17.8237C30.0219 18.2905 30.217 19.237 29.7355 19.9374C29.2533 20.6378 28.2763 20.8271 27.5532 20.3601L26.6474 19.7766C26.2511 19.5215 25.7348 19.5663 25.3934 19.8639L25.2581 20.0068C23.9292 21.723 21.4476 22.1357 19.6046 20.9456L18.7009 20.3601Z" fill="#FAFAFA"/>
</svg>
