<svg width="48" height="48" viewBox="0 0 48 48" fill="none" xmlns="http://www.w3.org/2000/svg">
<path d="M4.5 13.0292C4.50007 11.6858 5.04453 10.4035 6.00391 9.46277C6.96238 8.52293 8.25657 7.99988 9.59961 7.99988H16.6172C17.4599 7.99398 18.2922 8.19402 19.0391 8.58387C19.7851 8.97343 20.4234 9.5418 20.8945 10.2382L22.3535 12.3554L22.3633 12.369L22.5156 12.5702C22.6822 12.7619 22.8863 12.9228 23.1172 13.0448C23.4248 13.2073 23.7703 13.2947 24.123 13.2948H34.7949C36.138 13.2948 37.4321 13.8179 38.3906 14.7577C39.3497 15.6985 39.8945 16.9809 39.8945 18.3241V20.5741C40.1456 20.65 40.3911 20.7453 40.6289 20.8593C41.3266 21.1936 41.94 21.6808 42.4199 22.287C42.8999 22.8935 43.2332 23.6028 43.3926 24.3593C43.5519 25.1159 43.5328 25.8986 43.3359 26.6464L40.5645 37.2323C40.2772 38.3234 39.6278 39.2849 38.7266 39.9647C37.8286 40.642 36.7307 41.0031 35.6055 40.9979L9.59961 40.9999C8.25657 40.9999 6.96238 40.4768 6.00391 39.537C5.04454 38.5962 4.50004 37.314 4.5 35.9706V13.0292ZM14.5254 29.6112C14.1389 30.3439 13.2308 30.6247 12.498 30.2382C11.7662 29.8516 11.4856 28.9451 11.8711 28.2128L14.5254 29.6112ZM7.5 35.9706C7.50004 36.4988 7.71351 37.0116 8.10352 37.3944C8.49506 37.7783 9.03342 37.9999 9.59961 37.9999H35.6152L35.9668 37.9725C36.314 37.9178 36.6418 37.7799 36.9199 37.5702C37.2896 37.2913 37.5481 36.9038 37.6621 36.4725L40.4355 25.8846L40.4805 25.6581C40.5125 25.4323 40.5042 25.2027 40.457 24.9784C40.394 24.6792 40.2622 24.3954 40.0684 24.1503C39.8741 23.9048 39.6221 23.7033 39.332 23.5643C39.042 23.4255 38.7218 23.3528 38.3965 23.3534H19.0645L18.7773 23.3788C18.4937 23.4232 18.2226 23.5236 17.9805 23.6737C17.6581 23.8735 17.4001 24.152 17.2324 24.4784L17.2246 24.494L14.5254 29.6112L11.8711 28.2128L14.5723 23.0936C14.9916 22.284 15.6247 21.6038 16.4004 21.1229C17.1806 20.6395 18.078 20.3743 18.9961 20.3534H36.8945V18.3241C36.8945 17.7955 36.6796 17.2813 36.2891 16.8983C35.8976 16.5148 35.3608 16.2948 34.7949 16.2948H24.123C23.2841 16.2947 22.4563 16.089 21.7148 15.6971C20.9779 15.3076 20.3472 14.7445 19.8809 14.0546L18.4238 11.9393L18.4141 11.9237C18.224 11.6409 17.9617 11.4066 17.6504 11.244C17.4167 11.1221 17.1617 11.0435 16.8984 11.0136L16.6328 10.9999H9.59961C9.03342 10.9999 8.49506 11.2214 8.10352 11.6054C7.7135 11.9882 7.50007 12.501 7.5 13.0292V35.9706Z" fill="#FAFAFA"/>
</svg>
