<svg width="48" height="48" viewBox="0 0 48 48" fill="none" xmlns="http://www.w3.org/2000/svg">
<path d="M27.9531 33.0723C28.7816 33.0723 29.4531 33.7438 29.4531 34.5723C29.4526 35.4002 28.7812 36.0723 27.9531 36.0723H20.0449C19.2168 36.0723 18.5454 35.4002 18.5449 34.5723C18.5449 33.7438 19.2165 33.0723 20.0449 33.0723H27.9531Z" fill="#FAFAFA"/>
<path d="M29.2734 12.6953C30.1019 12.6953 30.7734 13.3669 30.7734 14.1953V20.123C30.7729 20.951 30.1015 21.623 29.2734 21.623C28.4453 21.623 27.774 20.951 27.7734 20.123V14.1953C27.7734 13.3669 28.445 12.6953 29.2734 12.6953Z" fill="#FAFAFA"/>
<path fill-rule="evenodd" clip-rule="evenodd" d="M36.7266 4.00195C36.7576 4.00299 36.7967 4.00459 36.8418 4.00781C36.9321 4.01428 37.0523 4.0256 37.1914 4.04883C37.4627 4.09416 37.8473 4.18876 38.25 4.39062C38.6587 4.59548 39.1128 4.92567 39.4609 5.44922C39.8151 5.98181 39.9999 6.62415 40 7.34766V40.6816C39.9998 40.6933 39.9986 40.7072 39.998 40.7227C39.997 40.7538 39.9954 40.7926 39.9922 40.8379C39.9858 40.9282 39.9743 41.0484 39.9512 41.1875C39.906 41.4587 39.8121 41.8436 39.6113 42.2461C39.4075 42.6546 39.0772 43.1098 38.5547 43.459C38.0225 43.8144 37.38 44 36.6562 44H11.3145C11.3028 43.9998 11.2889 43.9986 11.2734 43.998C11.2424 43.997 11.2033 43.9954 11.1582 43.9922C11.0679 43.9857 10.9477 43.9744 10.8086 43.9512C10.5373 43.9058 10.1527 43.8112 9.75 43.6094C9.3413 43.4045 8.88723 43.0743 8.53906 42.5508C8.1849 42.0182 8.0001 41.3758 8 40.6523V7.31836C8.00019 7.30667 8.00144 7.29276 8.00195 7.27734C8.00299 7.24621 8.00459 7.20737 8.00781 7.16211C8.01425 7.07181 8.0257 6.95162 8.04883 6.8125C8.09398 6.54129 8.18794 6.15637 8.38867 5.75391C8.59254 5.34542 8.92281 4.89021 9.44531 4.54102C9.97753 4.18562 10.62 4 11.3438 4H36.6855C36.6972 4.00019 36.7111 4.00144 36.7266 4.00195ZM11 40.6523C11 40.7576 11.0128 40.821 11.0215 40.8516C11.0258 40.8667 11.0309 40.8757 11.0332 40.8809C11.0351 40.8849 11.0371 40.8887 11.0371 40.8887C11.0371 40.8887 11.0385 40.8931 11.0449 40.8984C11.0525 40.9047 11.068 40.9148 11.0938 40.9277C11.1519 40.9569 11.2284 40.9798 11.3027 40.9922C11.3358 40.9977 11.3604 40.9992 11.3711 41H36.6562C36.7604 41 36.8218 40.987 36.8516 40.9785C36.8662 40.9743 36.8759 40.971 36.8809 40.9688C36.8849 40.9669 36.8887 40.9648 36.8887 40.9648C36.8887 40.9648 36.8912 40.9633 36.8965 40.957C36.9028 40.9494 36.9144 40.933 36.9277 40.9062C36.9571 40.8473 36.9797 40.7703 36.9922 40.6953C36.9978 40.6617 36.9992 40.636 37 40.625V30.7852H11V40.6523ZM11.1484 7.02148C11.1338 7.02568 11.1241 7.02899 11.1191 7.03125C11.1151 7.03312 11.1113 7.03516 11.1113 7.03516C11.1113 7.03516 11.1088 7.03672 11.1035 7.04297C11.0972 7.05062 11.0856 7.06697 11.0723 7.09375C11.0429 7.15271 11.0203 7.22973 11.0078 7.30469C11.0022 7.33831 11.0008 7.36401 11 7.375V27.7852H22.5V7H11.3438C11.2396 7 11.1782 7.013 11.1484 7.02148ZM25.5 27.7852H37V7.34766C37 7.24239 36.9872 7.17903 36.9785 7.14844C36.9742 7.13335 36.9692 7.12428 36.9668 7.11914C36.9649 7.11507 36.9629 7.11133 36.9629 7.11133C36.9629 7.11133 36.9615 7.10691 36.9551 7.10156C36.9475 7.0953 36.932 7.08518 36.9062 7.07227C36.8481 7.0431 36.7716 7.02024 36.6973 7.00781C36.6642 7.00229 36.6396 7.00078 36.6289 7H25.5V27.7852Z" fill="#FAFAFA"/>
<path d="M29.2734 12.6953C30.1019 12.6953 30.7734 13.3669 30.7734 14.1953V20.123C30.7729 20.951 30.1015 21.623 29.2734 21.623C28.4453 21.623 27.774 20.951 27.7734 20.123V14.1953C27.7734 13.3669 28.445 12.6953 29.2734 12.6953Z" fill="#FAFAFA"/>
<path d="M18.6705 12.6953C19.499 12.6953 20.1705 13.3669 20.1705 14.1953V20.123C20.17 20.951 19.4986 21.623 18.6705 21.623C17.8424 21.623 17.1711 20.951 17.1705 20.123V14.1953C17.1705 13.3669 17.8421 12.6953 18.6705 12.6953Z" fill="#FAFAFA"/>
<path d="M18.6705 12.6953C19.499 12.6953 20.1705 13.3669 20.1705 14.1953V20.123C20.17 20.951 19.4986 21.623 18.6705 21.623C17.8424 21.623 17.1711 20.951 17.1705 20.123V14.1953C17.1705 13.3669 17.8421 12.6953 18.6705 12.6953Z" fill="#FAFAFA"/>
</svg>
