<svg width="48" height="48" viewBox="0 0 48 48" fill="none" xmlns="http://www.w3.org/2000/svg">
<path d="M20.4475 31.4241C20.9281 32.0132 20.8932 32.8827 20.344 33.4319C19.7948 33.9811 18.9253 34.016 18.3362 33.5354L18.2229 33.4319L9.22289 24.4319C8.67368 23.8827 8.63876 23.0132 9.11937 22.4241L9.22289 22.3108L18.2229 13.3108L18.3362 13.2073C18.9253 12.7266 19.7948 12.7616 20.344 13.3108C20.8932 13.86 20.9281 14.7294 20.4475 15.3186L20.344 15.4319L12.4045 23.3713L20.344 31.3108L20.4475 31.4241Z" fill="#FAFAFA"/>
<path d="M39.4475 22.4241C39.9281 23.0132 39.8932 23.8827 39.344 24.4319L30.344 33.4319L30.2307 33.5354C29.6415 34.016 28.7721 33.9811 28.2229 33.4319C27.6737 32.8827 27.6388 32.0132 28.1194 31.4241L28.2229 31.3108L36.1623 23.3713L28.2229 15.4319C27.6371 14.8461 27.6371 13.8966 28.2229 13.3108C28.8087 12.725 29.7582 12.725 30.344 13.3108L39.344 22.3108L39.4475 22.4241Z" fill="#FAFAFA"/>
</svg>
