<svg width="48" height="48" viewBox="0 0 48 48" fill="none" xmlns="http://www.w3.org/2000/svg">
<path fill-rule="evenodd" clip-rule="evenodd" d="M8 9.5C8 6.46243 10.4624 4 13.5 4H34.5C37.5376 4 40 6.46243 40 9.5V38.5C40 41.5376 37.5376 44 34.5 44H13.5C10.4624 44 8 41.5376 8 38.5V9.5ZM13.5 7C12.1193 7 11 8.11929 11 9.5V22H20.5C23.5376 22 26 24.4624 26 27.5V41H34.5C35.8807 41 37 39.8807 37 38.5V9.5C37 8.11929 35.8807 7 34.5 7H13.5ZM23 41V27.5C23 26.1193 21.8807 25 20.5 25H11V38.5C11 39.8807 12.1193 41 13.5 41H23Z" fill="#FAFAFA"/>
</svg>
