<svg width="48" height="48" viewBox="0 0 48 48" fill="none" xmlns="http://www.w3.org/2000/svg">
<path fill-rule="evenodd" clip-rule="evenodd" d="M17.0571 6.1072C17.8263 6.41487 18.2004 7.28782 17.8928 8.057L14.7156 15.9999H33.2845L30.1073 8.057C29.7997 7.28782 30.1738 6.41487 30.943 6.1072C31.7121 5.79953 32.5851 6.17365 32.8928 6.94282L36.5156 15.9999H40.1222C42.295 15.9999 43.9427 17.959 43.5704 20.0996L40.5543 37.4423C40.0962 40.0767 37.8096 41.9999 35.1357 41.9999H12.8644C10.1905 41.9999 7.90393 40.0767 7.44576 37.4423L4.42965 20.0996C4.05736 17.959 5.70511 15.9999 7.87789 15.9999H11.4845L15.1073 6.94282C15.415 6.17365 16.2879 5.79953 17.0571 6.1072ZM7.87789 18.9999C7.56749 18.9999 7.3321 19.2798 7.38528 19.5856L10.4014 36.9283C10.6097 38.1257 11.649 38.9999 12.8644 38.9999H35.1357C36.3511 38.9999 37.3904 38.1257 37.5987 36.9283L40.6148 19.5856C40.668 19.2798 40.4326 18.9999 40.1222 18.9999H7.87789Z" fill="#FAFAFA"/>
<path d="M14.5 33.1563V25.1563C14.5 24.3278 15.1716 23.6563 16 23.6563C16.8285 23.6563 17.5 24.3278 17.5 25.1563V33.1563C17.5 33.9847 16.8285 34.6563 16 34.6563C15.1716 34.6563 14.5 33.9847 14.5 33.1563ZM22.5 33.1563V25.1563C22.5 24.3278 23.1716 23.6563 24 23.6563C24.8285 23.6563 25.5 24.3278 25.5 25.1563V33.1563C25.5 33.9847 24.8285 34.6563 24 34.6563C23.1716 34.6563 22.5 33.9847 22.5 33.1563ZM30.5 33.1563V25.1563C30.5 24.3278 31.1716 23.6563 32 23.6563C32.8285 23.6563 33.5 24.3278 33.5 25.1563V33.1563C33.5 33.9847 32.8285 34.6563 32 34.6563C31.1716 34.6563 30.5 33.9847 30.5 33.1563Z" fill="#FAFAFA"/>
</svg>
