<svg width="48" height="48" viewBox="0 0 48 48" fill="none" xmlns="http://www.w3.org/2000/svg">
<path d="M25.3984 32.0999C26.4861 32.0999 27.5507 32.4234 28.4551 33.0276C29.3589 33.6317 30.0642 34.4902 30.4805 35.4944C30.8966 36.499 31.0048 37.6057 30.793 38.6721C30.5808 39.7386 30.0577 40.7195 29.2891 41.4885C28.52 42.2576 27.5393 42.7821 26.4727 42.9944C25.406 43.2066 24.2997 43.098 23.2949 42.6819C22.29 42.2656 21.4305 41.559 20.8262 40.6546C20.2223 39.7503 19.8984 38.6872 19.8984 37.5999C19.8988 36.7721 20.5706 36.1003 21.3984 36.0999C22.2266 36.0999 22.898 36.7718 22.8984 37.5999C22.8984 38.094 23.046 38.5776 23.3203 38.9885C23.595 39.3996 23.9867 39.7212 24.4434 39.9104C24.8999 40.0993 25.4022 40.1474 25.8867 40.051C26.3714 39.9546 26.8165 39.7168 27.166 39.3675C27.5153 39.018 27.7551 38.5728 27.8516 38.0882C27.9478 37.6034 27.8981 37.0994 27.709 36.6428C27.5199 36.1867 27.1995 35.7962 26.7891 35.5218C26.378 35.2472 25.8927 35.0999 25.3984 35.0999H6.19922C5.37079 35.0999 4.69922 34.4283 4.69922 33.5999C4.69963 32.7718 5.37104 32.0999 6.19922 32.0999H25.3984Z" fill="#FAFAFA"/>
<path fill-rule="evenodd" clip-rule="evenodd" d="M29.8008 12.0999C32.3202 12.0999 34.736 13.1017 36.5176 14.8831C38.299 16.6645 39.3006 19.0806 39.3008 21.5999C39.3008 23.6139 38.6571 25.5597 37.4902 27.1702L42.8613 32.5413C43.4463 33.1271 43.4468 34.0769 42.8613 34.6624C42.2758 35.2475 41.326 35.2472 40.7402 34.6624L35.3691 29.2913C33.7589 30.4575 31.8143 31.0999 29.8008 31.0999C27.2812 31.0999 24.8656 30.0983 23.084 28.3167C21.3026 26.5351 20.3008 24.1193 20.3008 21.5999C20.301 19.0806 21.3026 16.6645 23.084 14.8831C24.8655 13.1017 27.2814 12.0999 29.8008 12.0999ZM29.8008 15.0999C28.0771 15.0999 26.424 15.7854 25.2051 17.0042C23.9863 18.223 23.301 19.8762 23.3008 21.5999C23.3008 23.3236 23.9863 24.9766 25.2051 26.1956C26.4241 27.4146 28.0769 28.0999 29.8008 28.0999C31.3871 28.0999 32.9105 27.5173 34.0938 26.4749C34.1599 26.356 34.2389 26.2419 34.3398 26.1409C34.442 26.0387 34.5573 25.9574 34.6777 25.8909C35.7185 24.708 36.3008 23.1849 36.3008 21.5999C36.3006 19.8762 35.6153 18.223 34.3965 17.0042C33.1775 15.7854 31.5245 15.0999 29.8008 15.0999Z" fill="#FAFAFA"/>
<path d="M12.5996 25.7014C13.428 25.7014 14.0996 26.373 14.0996 27.2014C14.0992 28.0295 13.4278 28.7014 12.5996 28.7014H7C6.17181 28.7014 5.50038 28.0295 5.5 27.2014C5.5 26.373 6.17157 25.7014 7 25.7014H12.5996Z" fill="#FAFAFA"/>
<path d="M15.8008 19.301C16.6288 19.3015 17.3008 19.9729 17.3008 20.801C17.3004 21.6289 16.6286 22.3006 15.8008 22.301H7C6.17181 22.301 5.50038 21.6292 5.5 20.801C5.5 19.9726 6.17157 19.301 7 19.301H15.8008Z" fill="#FAFAFA"/>
<path d="M11.2949 5.31863C12.2997 4.90257 13.406 4.79396 14.4727 5.00613C15.5394 5.21839 16.52 5.7429 17.2891 6.51199C18.0579 7.28107 18.5808 8.26179 18.793 9.32839C19.005 10.3951 18.8967 11.5013 18.4805 12.5061C18.0642 13.5106 17.3591 14.3687 16.4551 14.9729C15.5506 15.5773 14.4862 15.9007 13.3984 15.9007H6.19922C5.37079 15.9007 4.69922 15.2291 4.69922 14.4007C4.69925 13.5723 5.37081 12.9007 6.19922 12.9007H13.3984C13.8929 12.9007 14.3779 12.7535 14.7891 12.4788C15.1997 12.2042 15.5199 11.8141 15.709 11.3577C15.8982 10.9009 15.948 10.3973 15.8516 9.91238C15.755 9.42762 15.5155 8.98259 15.166 8.63308C14.8164 8.28368 14.3715 8.04591 13.8867 7.94949C13.4022 7.85312 12.8999 7.90126 12.4434 8.09011C11.9866 8.27932 11.595 8.60088 11.3203 9.01199C11.0457 9.42303 10.8984 9.90634 10.8984 10.4007C10.8984 11.2291 10.2269 11.9007 9.39844 11.9007C8.57037 11.9002 7.89844 11.2288 7.89844 10.4007C7.89845 9.31314 8.22211 8.25029 8.82617 7.34597C9.43052 6.44152 10.2899 5.7349 11.2949 5.31863Z" fill="#FAFAFA"/>
</svg>
