<svg width="48" height="48" viewBox="0 0 48 48" fill="none" xmlns="http://www.w3.org/2000/svg">
<path fill-rule="evenodd" clip-rule="evenodd" d="M18.6621 12.0098C18.8675 12.035 19.0641 12.108 19.2363 12.2227C19.4086 12.3375 19.5519 12.4919 19.6543 12.6719C19.7567 12.8522 19.8157 13.0546 19.8262 13.2617C19.9576 15.6678 20.6038 17.7627 21.9043 19.4629C22.5204 19.1778 23.2029 19.0127 23.9238 19.002C24.2789 17.186 25.0872 15.4131 26.334 13.7188C26.8596 13.0025 27.6203 12.4921 28.4824 12.2773C29.3445 12.0627 30.2545 12.157 31.0547 12.543C33.3839 13.6701 35.007 15.5057 35.9219 18.0508C35.9918 18.246 36.0155 18.4563 35.9902 18.6621C35.965 18.8675 35.892 19.0641 35.7773 19.2363C35.6625 19.4086 35.5081 19.5519 35.3281 19.6543C35.1478 19.7567 34.9454 19.8157 34.7383 19.8262C32.3316 19.9576 30.2356 20.6032 28.5352 21.9043C28.8204 22.5206 28.9853 23.2026 28.9961 23.9238C30.8134 24.2796 32.588 25.0864 34.2812 26.334C34.9975 26.8596 35.5079 27.6203 35.7227 28.4824C35.9373 29.3445 35.843 30.2545 35.457 31.0547C34.3299 33.3839 32.4943 35.007 29.9492 35.9219C29.754 35.9918 29.5437 36.0154 29.3379 35.9902C29.1325 35.965 28.9359 35.892 28.7637 35.7773C28.5914 35.6625 28.4481 35.5081 28.3457 35.3281C28.2433 35.1478 28.1843 34.9454 28.1738 34.7383C28.0424 32.3312 27.3954 30.2357 26.0938 28.5352C25.4773 28.8202 24.7955 28.9856 24.0742 28.9961C23.7193 30.8125 22.9131 32.5864 21.666 34.2812C21.1404 34.9975 20.3797 35.5079 19.5176 35.7227C18.6555 35.9373 17.7455 35.843 16.9453 35.457C14.616 34.3299 12.993 32.4943 12.0781 29.9492C12.0082 29.754 11.9845 29.5437 12.0098 29.3379C12.035 29.1325 12.108 28.9359 12.2227 28.7637C12.3375 28.5913 12.4919 28.4481 12.6719 28.3457C12.8522 28.2433 13.0546 28.1843 13.2617 28.1738C15.6683 28.0424 17.7625 27.3947 19.4629 26.0938C19.178 25.4775 19.0124 24.7952 19.002 24.0742C17.1854 23.7182 15.4113 22.913 13.7188 21.666C13.0025 21.1404 12.4921 20.3797 12.2773 19.5176C12.0627 18.6555 12.157 17.7455 12.543 16.9453C13.6701 14.616 15.5057 12.993 18.0508 12.0781C18.246 12.0082 18.4563 11.9845 18.6621 12.0098ZM23.6172 22.0742C23.2361 22.15 22.886 22.3366 22.6113 22.6113C22.2435 22.98 22.0371 23.4792 22.0371 24C22.0371 24.5208 22.2435 25.02 22.6113 25.3887C22.886 25.6634 23.2361 25.85 23.6172 25.9258C23.9982 26.0015 24.3931 25.9631 24.752 25.8145C25.1106 25.6658 25.417 25.4145 25.6328 25.0918C25.8487 24.7688 25.9648 24.3885 25.9648 24C25.9648 23.6115 25.8487 23.2312 25.6328 22.9082C25.417 22.5855 25.1106 22.3342 24.752 22.1855C24.3931 22.0369 23.9982 21.9985 23.6172 22.0742Z" fill="#FAFAFA"/>
<path fill-rule="evenodd" clip-rule="evenodd" d="M24 4C35.0457 4 44 12.9543 44 24C44 35.0457 35.0457 44 24 44C12.9543 44 4 35.0457 4 24C4 12.9543 12.9543 4 24 4ZM24 7C14.6112 7 7 14.6112 7 24C7 33.3888 14.6112 41 24 41C33.3888 41 41 33.3888 41 24C41 14.6112 33.3888 7 24 7Z" fill="#FAFAFA"/>
</svg>
