<svg width="48" height="48" viewBox="0 0 48 48" fill="none" xmlns="http://www.w3.org/2000/svg">
<path d="M42.75 41.25C43.5784 41.25 44.25 41.9216 44.25 42.75C44.25 43.5784 43.5784 44.25 42.75 44.25H5.25C4.42157 44.25 3.75 43.5784 3.75 42.75C3.75 41.9216 4.42157 41.25 5.25 41.25H42.75Z" fill="#FAFAFA"/>
<path d="M14.7181 10.0446C15.6832 10.1369 16.6031 10.4963 17.3773 11.0797L17.3782 11.0788L24.9163 16.7038L24.9271 16.7126L25.055 16.8034C25.3605 17.0039 25.7112 17.127 26.0765 17.1618C26.4939 17.2015 26.9147 17.1235 27.2903 16.9372L27.2952 16.9352L35.1507 13.0729C36.4013 12.4463 37.8285 12.2754 39.1868 12.5856L39.4583 12.6549L39.473 12.6588L41.2757 13.1793C41.8661 13.3433 42.4135 13.6372 42.8763 14.0387C43.3391 14.4404 43.707 14.9402 43.9525 15.5016C44.1979 16.063 44.3156 16.6724 44.2962 17.2848C44.277 17.8913 44.1223 18.4855 43.847 19.026L43.848 19.027L43.136 20.4518C42.5641 21.5957 41.6414 22.5441 40.47 23.1422C40.4649 23.1449 40.4596 23.1475 40.4544 23.1501L16.3792 35.0934L16.3782 35.0944C15.5041 35.5273 14.5291 35.7057 13.5628 35.6159C13.4347 35.6277 13.3045 35.626 13.1751 35.6042L8.74933 34.8542C8.27772 34.7741 7.87244 34.4734 7.65851 34.0456L3.90851 26.5456C3.53828 25.8047 3.83871 24.9044 4.57941 24.5338L6.64191 23.5026C7.37366 23.1346 8.1812 22.943 9.0003 22.943C9.71817 22.943 10.4274 23.0896 11.0843 23.3737L11.3626 23.5045L11.4485 23.5504L11.7151 23.7077C12.0202 23.8551 12.3545 23.9322 12.6937 23.9323C13.0452 23.9323 13.3924 23.8502 13.7064 23.692L13.7249 23.6823L14.4798 23.3141L9.53351 13.4206C9.16328 12.6797 9.46371 11.7794 10.2044 11.4088L11.8919 10.5651L11.9007 10.5602C12.7739 10.1307 13.7494 9.95192 14.7181 10.0446ZM14.4329 13.0309C14.0177 12.9912 13.5992 13.0685 13.2249 13.2526L13.2239 13.2516L12.888 13.4206L17.8421 23.3288C18.0213 23.6871 18.0499 24.1027 17.9212 24.4821C17.7925 24.8614 17.5168 25.173 17.1566 25.3483L15.056 26.3698L15.0569 26.3708C14.3242 26.74 13.5142 26.9323 12.6937 26.9323C11.8732 26.9322 11.064 26.74 10.3314 26.3708C10.3025 26.3562 10.2743 26.3403 10.2464 26.3239L9.98273 26.1686C9.67666 26.02 9.34081 25.943 9.0003 25.943C8.64863 25.943 8.30166 26.025 7.98761 26.1833L7.263 26.5456L10.0013 32.0231L13.3441 32.5895C13.4534 32.5836 13.5641 32.5896 13.6741 32.6081C14.1413 32.6868 14.6216 32.616 15.0462 32.4059L39.1058 20.4694C39.6966 20.1675 40.162 19.691 40.4525 19.11L41.1732 17.6696C41.2497 17.521 41.2919 17.3571 41.2972 17.1901C41.3025 17.023 41.2704 16.8569 41.2034 16.7038C41.1365 16.5506 41.0367 16.4139 40.9105 16.3043C40.7842 16.1948 40.635 16.1147 40.4739 16.07C40.4691 16.0686 40.4641 16.0675 40.4593 16.0661L38.6546 15.5456L38.3812 15.4831C37.7394 15.3676 37.0743 15.4627 36.4876 15.7585C36.4833 15.7606 36.4792 15.7632 36.4749 15.7653L28.6185 19.6276L28.6175 19.6266C27.7424 20.0596 26.7643 20.2406 25.7923 20.1481C24.8183 20.0553 23.8893 19.6927 23.1107 19.1002L15.5843 13.4831L15.5765 13.4772C15.244 13.2255 14.848 13.0707 14.4329 13.0309Z" fill="#FAFAFA"/>
</svg>
