<svg width="48" height="48" viewBox="0 0 48 48" fill="none" xmlns="http://www.w3.org/2000/svg">
<path fill-rule="evenodd" clip-rule="evenodd" d="M23.9837 4C24.6304 4.0002 25.271 4.12803 25.8685 4.375C26.4666 4.62237 27.0103 4.98633 27.4681 5.44336C27.9256 5.90019 28.2887 6.44227 28.5365 7.03906C28.7841 7.63607 28.9114 8.27763 28.9115 8.92383C28.9114 9.57 28.7841 10.2116 28.5365 10.8086C28.3064 11.3628 27.9722 11.8654 27.5599 12.3008C27.764 12.379 27.9663 12.4629 28.1654 12.5547C29.4592 13.1514 30.6103 14.02 31.5404 15.0977C31.5922 15.1577 31.6403 15.221 31.683 15.2852L31.8001 15.4824L32.7064 17.2852L32.7396 17.3496L32.765 17.418L35.0033 23.2012L35.183 19.0918C35.2312 17.983 35.7193 16.6768 36.7884 15.9316C36.5096 15.8698 36.2349 15.7892 35.9701 15.6797C35.372 15.4323 34.8282 15.0683 34.3705 14.6113C33.913 14.1544 33.5497 13.6125 33.3021 13.0156C33.0545 12.4187 32.9272 11.7789 32.9271 11.1328C32.9271 10.4864 33.0544 9.84523 33.3021 9.24805C33.5499 8.65092 33.9127 8.10742 34.3705 7.65039C34.8281 7.19347 35.3721 6.83133 35.9701 6.58398C36.5679 6.33679 37.2097 6.20911 37.8568 6.20898C38.5039 6.2091 39.1457 6.33676 39.7435 6.58398C40.3415 6.83132 40.8854 7.19345 41.3431 7.65039C41.8008 8.10741 42.1637 8.65095 42.4115 9.24805C42.6592 9.84522 42.7865 10.4864 42.7865 11.1328C42.7864 11.7789 42.6591 12.4187 42.4115 13.0156C42.1638 13.6125 41.8005 14.1544 41.3431 14.6113C41.0549 14.8991 40.7284 15.1437 40.3802 15.3516C41.7609 15.6744 42.8309 16.8109 43.0755 18.2344C43.3979 20.1094 43.8506 23.269 43.9974 26.9023C44.0824 29.0111 42.4993 30.7573 40.4564 30.9883C39.7759 31.0651 38.9773 31.1474 38.1146 31.2383L40.4857 37.3613C40.9664 38.6048 40.0473 39.943 38.7123 39.9434H35.2669V42.4375C35.2658 43.2643 34.5933 43.9355 33.765 43.9355C32.9369 43.9353 32.2661 43.2641 32.265 42.4375V39.9434H15.4759V42.502C15.4751 43.329 14.8025 44 13.974 44C13.1456 43.9998 12.4748 43.3289 12.474 42.502V39.9434H9.87241C8.55261 39.9432 7.63363 38.6326 8.0853 37.3945L10.013 32.1113C9.96855 31.8048 9.92718 31.5193 9.89389 31.2656C9.02918 31.1746 8.22821 31.0926 7.54624 31.0156C5.5031 30.7848 3.91823 29.0386 4.00327 26.9297C4.15008 23.2961 4.60468 20.1367 4.9271 18.2617C5.17148 16.84 6.23691 15.7014 7.6146 15.377C7.25036 15.1644 6.91031 14.9105 6.61069 14.6113C6.15327 14.1544 5.78996 13.6125 5.54233 13.0156C5.29472 12.4187 5.16745 11.7789 5.16733 11.1328C5.16733 10.4864 5.29462 9.84523 5.54233 9.24805C5.7901 8.65092 6.15295 8.10742 6.61069 7.65039C7.06838 7.19347 7.61236 6.83133 8.2103 6.58398C8.80811 6.33679 9.44997 6.20911 10.097 6.20898C10.7441 6.2091 11.3859 6.33676 11.9837 6.58398C12.5817 6.83132 13.1256 7.19345 13.5833 7.65039C14.0411 8.10741 14.4039 8.65095 14.6517 9.24805C14.8994 9.84522 15.0267 10.4864 15.0267 11.1328C15.0266 11.7789 14.8993 12.4187 14.6517 13.0156C14.4041 13.6125 14.0408 14.1544 13.5833 14.6113C13.1256 15.0684 12.5818 15.4323 11.9837 15.6797C11.7201 15.7887 11.4466 15.8679 11.1693 15.9297C12.2688 16.6696 12.7708 17.996 12.8197 19.1191L13.0091 23.498C13.0566 23.5072 13.1049 23.5141 13.1517 23.5234L15.3724 17.4453L15.3802 17.4199L15.3919 17.3965L16.1146 15.6094C16.1903 15.4229 16.2976 15.2429 16.4369 15.082C17.3647 14.0111 18.512 13.1487 19.8001 12.5547C19.9986 12.4632 20.2001 12.3788 20.4037 12.3008C19.9914 11.8654 19.6571 11.3628 19.4271 10.8086C19.1794 10.2116 19.0522 9.57 19.0521 8.92383C19.0522 8.27763 19.1794 7.63608 19.4271 7.03906C19.6748 6.44229 20.038 5.9002 20.4955 5.44336C20.9532 4.98633 21.497 4.62239 22.0951 4.375C22.6932 4.12768 23.3364 4 23.9837 4ZM11.4447 36.9453H37.1048L32.8568 25.9746C32.7747 25.8423 32.7077 25.6966 32.6693 25.5371C32.6611 25.503 32.6535 25.4677 32.6478 25.4336L30.3353 19.457H17.8314L11.4447 36.9453ZM8.45639 18.2832C8.20072 18.2686 7.9388 18.4515 7.88413 18.7695C7.57605 20.5613 7.14131 23.5855 7.00131 27.0508C6.98211 27.5319 7.34566 27.9761 7.88217 28.0371C8.78027 28.1385 9.88398 28.2598 11.0697 28.3809C11.168 28.3909 11.2637 28.4094 11.3568 28.4336L12.1068 26.3789C11.9587 26.3523 11.8079 26.3249 11.6556 26.3008C10.7744 26.1612 10.0903 25.4194 10.0501 24.502L9.81967 19.25C9.80555 18.9257 9.7096 18.6808 9.60874 18.541C9.52416 18.424 9.44206 18.3781 9.33139 18.3633C9.05597 18.3265 8.75913 18.3011 8.45639 18.2832ZM39.5423 18.2559C39.24 18.2738 38.9444 18.2992 38.6693 18.3359C38.5586 18.3508 38.4765 18.3966 38.3919 18.5137C38.2911 18.6535 38.1951 18.8985 38.181 19.2227L37.9525 24.4746C37.9123 25.3921 37.2264 26.1339 36.3451 26.2734C36.2975 26.281 36.2497 26.291 36.2025 26.2988L36.9935 28.3457C38.1556 28.2268 39.2381 28.1094 40.1205 28.0098C40.6565 27.9484 41.0186 27.5043 40.9994 27.0234C40.8594 23.5583 40.4266 20.534 40.1185 18.7422C40.0638 18.4237 39.7983 18.2408 39.5423 18.2559ZM23.9837 14.6348C22.9743 14.6348 21.9764 14.8549 21.0599 15.2773C20.4074 15.5782 19.8066 15.9791 19.2787 16.4609H28.6849C28.1573 15.9796 27.5595 15.578 26.9076 15.2773C25.9911 14.8547 24.9933 14.6349 23.9837 14.6348ZM10.097 9.20703C9.84413 9.20715 9.59238 9.25689 9.35874 9.35352C9.125 9.45026 8.91265 9.59284 8.73374 9.77148C8.55503 9.95002 8.41259 10.1614 8.31577 10.3945C8.21888 10.6281 8.16928 10.88 8.16928 11.1328C8.16941 11.3852 8.21904 11.6359 8.31577 11.8691C8.41258 12.1022 8.55508 12.3137 8.73374 12.4922C8.91266 12.6708 9.125 12.8134 9.35874 12.9102C9.59239 13.0068 9.84411 13.0565 10.097 13.0566C10.3499 13.0565 10.6017 13.0068 10.8353 12.9102C11.069 12.8134 11.2814 12.6708 11.4603 12.4922C11.639 12.3137 11.7814 12.1023 11.8783 11.8691C11.975 11.6359 12.0246 11.3853 12.0248 11.1328C12.0248 10.88 11.9752 10.6281 11.8783 10.3945C11.7815 10.1614 11.639 9.95001 11.4603 9.77148C11.2814 9.59291 11.069 9.45025 10.8353 9.35352C10.6017 9.25693 10.3499 9.20715 10.097 9.20703ZM37.8568 9.20703C37.6039 9.20715 37.3521 9.25689 37.1185 9.35352C36.8848 9.45026 36.6724 9.59284 36.4935 9.77148C36.3148 9.95002 36.1724 10.1614 36.0755 10.3945C35.9786 10.6281 35.929 10.88 35.929 11.1328C35.9292 11.3852 35.9788 11.6359 36.0755 11.8691C36.1723 12.1022 36.3148 12.3137 36.4935 12.4922C36.6724 12.6708 36.8848 12.8134 37.1185 12.9102C37.3522 13.0068 37.6039 13.0565 37.8568 13.0566C38.1097 13.0565 38.3614 13.0068 38.5951 12.9102C38.8288 12.8134 39.0412 12.6708 39.2201 12.4922C39.3988 12.3137 39.5412 12.1023 39.638 11.8691C39.7348 11.6359 39.7844 11.3853 39.7845 11.1328C39.7845 10.88 39.7349 10.6281 39.638 10.3945C39.5412 10.1614 39.3988 9.95001 39.2201 9.77148C39.0412 9.59291 38.8287 9.45025 38.5951 9.35352C38.3615 9.25693 38.1096 9.20715 37.8568 9.20703ZM23.9837 6.99805C23.7305 6.99805 23.4774 7.04779 23.2435 7.14453C23.0098 7.24128 22.7974 7.38386 22.6185 7.5625C22.4395 7.74124 22.2974 7.95399 22.2005 8.1875C22.1039 8.42069 22.0542 8.67145 22.054 8.92383C22.0542 9.17622 22.1038 9.42695 22.2005 9.66016C22.2974 9.89369 22.4395 10.1064 22.6185 10.2852C22.7974 10.4638 23.0097 10.6064 23.2435 10.7031C23.4774 10.7999 23.7305 10.8496 23.9837 10.8496C24.2363 10.8494 24.4867 10.7996 24.7201 10.7031C24.9539 10.6064 25.1661 10.4638 25.3451 10.2852C25.5241 10.1064 25.6661 9.89372 25.763 9.66016C25.8598 9.42688 25.9094 9.17631 25.9095 8.92383C25.9094 8.67136 25.8598 8.42077 25.763 8.1875C25.6661 7.95393 25.5241 7.74127 25.3451 7.5625C25.1661 7.38384 24.9539 7.24124 24.7201 7.14453C24.4867 7.04803 24.2364 6.99825 23.9837 6.99805Z" fill="#FAFAFA"/>
</svg>
