<svg width="48" height="48" viewBox="0 0 48 48" fill="none" xmlns="http://www.w3.org/2000/svg">
<path fill-rule="evenodd" clip-rule="evenodd" d="M9.07617 4.5C9.58579 4.52126 10.0815 4.68451 10.5059 4.97266L10.5039 4.97461L14.8438 7.79492C15.1304 7.97676 15.3821 8.20996 15.584 8.48047L15.7695 8.76367L15.9199 9.06641C16.0069 9.27348 16.0688 9.49102 16.1035 9.71289L16.1348 10.0508L16.1367 10.0898L16.1465 11.7793C16.4186 11.5028 16.7029 11.2375 17.002 10.9883C17.638 10.4585 18.5829 10.5443 19.1133 11.1797C19.6436 11.8161 19.5583 12.7626 18.9219 13.293C18.8449 13.3571 18.77 13.4235 18.6953 13.4902L22.3828 15.6992C22.388 15.6992 22.3932 15.6992 22.3984 15.6992C23.6448 15.6992 24.8413 16.195 25.7227 17.0762C26.0546 17.4082 26.3302 17.7863 26.5469 18.1934L30.834 20.7617C30.8698 20.6634 30.9065 20.5655 30.9395 20.4668C31.2014 19.6811 32.0502 19.2559 32.8359 19.5176C33.6215 19.7794 34.0464 20.6284 33.7852 21.4141C33.6841 21.7174 33.5681 22.0206 33.4434 22.3242L33.4512 22.3301L35.2402 21.5547L35.2676 21.543C35.5834 21.413 35.9203 21.3415 36.2598 21.334L36.5996 21.3477L36.9336 21.4023C37.2577 21.4759 37.5649 21.6109 37.8438 21.7949L37.8457 21.791L42.2031 24.625L42.3828 24.748C42.7919 25.051 43.1108 25.4622 43.3008 25.9375C43.5177 26.4807 43.5563 27.0802 43.4102 27.6465C43.4076 27.6563 43.4051 27.6679 43.4023 27.6777C42.9582 29.2608 42.0396 30.6702 40.7715 31.7168L40.75 31.7344L40.7481 31.7324C40.2897 32.0968 39.7277 32.3079 39.1426 32.3301C38.5666 32.3518 37.9993 32.1898 37.5195 31.8711L33.1406 29.0254L33.1426 29.0234C32.7681 28.7827 32.4562 28.4565 32.2344 28.0703C32.01 27.6794 31.8839 27.2395 31.8672 26.7891C31.8666 26.7742 31.8653 26.759 31.8652 26.7441L31.8535 25.2012C30.9505 26.4583 29.8139 27.5865 28.4414 28.4219C26.7774 29.4347 24.8296 29.9765 22.6582 29.8535C22.643 31.3627 22.8912 32.8641 23.3945 34.291C26.1108 34.8813 28.9297 34.8347 31.6289 34.1465L31.6348 34.1445C32.7405 33.8671 33.8919 33.7558 34.832 34.207C35.3528 34.4572 35.7576 34.8572 36.0059 35.3691C36.2407 35.8534 36.2982 36.3591 36.2852 36.7988C36.2785 37.021 36.2514 37.2475 36.2109 37.4766C36.607 37.533 36.9685 37.7456 37.209 38.0723C37.7622 38.8234 38.4842 39.4358 39.3164 39.8574C40.1488 40.279 41.0689 40.4984 42.002 40.5C42.8304 40.5014 43.5014 41.1755 43.5 42.0039C43.4979 42.8315 42.8258 43.5011 41.9981 43.5C40.5955 43.4977 39.2122 43.167 37.9609 42.5332C37.2479 42.1719 36.5909 41.7142 36.002 41.1816C35.4129 41.7158 34.7551 42.1751 34.041 42.5371C32.7887 43.1718 31.404 43.502 30 43.502C28.596 43.502 27.2113 43.1718 25.959 42.5371C25.2461 42.1757 24.5883 41.7186 24 41.1855C23.4117 41.7186 22.7539 42.1757 22.041 42.5371C20.7887 43.1718 19.404 43.502 18 43.502C16.596 43.502 15.2113 43.1718 13.959 42.5371C13.2445 42.1749 12.5854 41.7163 11.9961 41.1816C11.4074 41.7137 10.7516 42.1722 10.0391 42.5332C8.78785 43.167 7.40452 43.4977 6.00196 43.5C5.17425 43.5011 4.50215 42.8315 4.5 42.0039C4.49862 41.1755 5.16963 40.5014 5.99805 40.5C6.93107 40.4984 7.85125 40.279 8.6836 39.8574C9.51579 39.4358 10.2378 38.8234 10.791 38.0723C11.074 37.6878 11.5245 37.4604 12.002 37.4609C12.4791 37.4616 12.9268 37.6895 13.209 38.0742C13.7604 38.8265 14.4825 39.4395 15.3145 39.8613C16.1466 40.2831 17.0671 40.502 18 40.502C18.9329 40.502 19.8534 40.2831 20.6855 39.8613C21.5175 39.4395 22.2396 38.8265 22.791 38.0742L22.9043 37.9375C23.1861 37.6357 23.5819 37.4609 24 37.4609C24.0255 37.4609 24.0508 37.4636 24.0762 37.4648C23.3894 37.3612 22.7058 37.2252 22.0293 37.0527C21.9947 37.0439 21.9597 37.0347 21.9258 37.0234C17.1065 35.417 14.1701 33.7759 12.1855 32.6523C11.1651 32.0746 10.5334 31.7165 10.0195 31.5215C9.68502 31.3946 9.50398 31.3774 9.38281 31.3945C9.36331 31.4138 9.33604 31.4404 9.30469 31.4785C9.18581 31.6232 9.03008 31.8704 8.91211 32.2344C8.68255 32.9429 8.57261 34.1592 9.23633 35.9609C9.52193 36.7379 9.12432 37.6003 8.34766 37.8867C7.57039 38.1729 6.70626 37.7733 6.41992 36.9961C5.55952 34.6598 5.59256 32.7493 6.0586 31.3105C6.28845 30.6013 6.62104 30.0187 6.98633 29.5742C7.31753 29.1713 7.77826 28.7585 8.32617 28.5762C9.32171 28.2439 10.2391 28.3962 11.084 28.7168C11.8652 29.0133 12.7368 29.518 13.6641 30.043C13.6683 30.0454 13.6735 30.0464 13.6777 30.0488C13.9078 28.7215 14.2368 27.4123 14.6738 26.1367C13.246 24.4234 12.5966 22.2968 12.6094 20.1406C12.6205 18.2995 13.1128 16.4301 13.9961 14.7402L12.7578 15.2793C12.7483 15.2834 12.7381 15.2871 12.7285 15.291C12.3076 15.4632 11.8508 15.5287 11.3984 15.4824C10.9535 15.4369 10.5272 15.2836 10.1543 15.0371L5.77539 12.1914L5.77735 12.1895C5.29222 11.8805 4.91501 11.429 4.70117 10.8945C4.48399 10.3509 4.44491 9.75026 4.5918 9.18359L4.59961 9.15625C5.04313 7.57193 5.96178 6.16078 7.23047 5.11328L7.25 5.0957C7.70832 4.73107 8.27216 4.52226 8.85742 4.5H9.07617ZM33.2637 36.9062C33.0791 36.9148 32.7905 36.948 32.3652 37.0547L32.3633 37.0527C29.7433 37.7199 27.0271 37.8699 24.3633 37.5059C24.6991 37.5899 24.9997 37.7889 25.209 38.0742C25.7604 38.8265 26.4825 39.4395 27.3145 39.8613C28.1466 40.2831 29.0671 40.502 30 40.502C30.6284 40.502 31.25 40.3987 31.8438 40.2051C32.2431 39.4936 32.5854 38.8301 32.8379 38.2383C33.0921 37.6423 33.2174 37.2013 33.2637 36.9062ZM17.1719 28.207C16.8573 29.3035 16.6255 30.4223 16.4805 31.5547C17.4679 32.0471 18.6134 32.5732 19.9629 33.1113C19.7119 31.8566 19.6144 30.5737 19.6699 29.291C19.1727 29.1322 18.6665 28.9394 18.1523 28.7109C17.8073 28.5575 17.4826 28.3857 17.1719 28.207ZM34.8535 24.9922L34.8633 26.5645L39.0137 29.2656C39.679 28.6697 40.1735 27.9101 40.4492 27.0605L36.2988 24.3633L34.8535 24.9922ZM16.8027 15.8555C16.0422 17.2029 15.618 18.7105 15.6094 20.1602C15.5954 22.5702 16.7076 24.7865 19.3711 25.9707L19.959 26.2148C20.4804 26.4157 20.9827 26.565 21.4648 26.6719C21.5283 26.6802 21.5901 26.6932 21.6504 26.709C23.7641 27.1323 25.4964 26.7018 26.8809 25.8594C27.8806 25.2509 28.7395 24.399 29.4375 23.4219L26.8555 21.877C26.6271 22.5656 26.2451 23.2001 25.7227 23.7227C24.8412 24.6041 23.645 25.0996 22.3984 25.0996C21.1523 25.0994 19.9574 24.6038 19.0762 23.7227C18.195 22.8413 17.6992 21.6448 17.6992 20.3984C17.6996 19.1933 18.1646 18.0378 18.9922 17.166L16.8027 15.8555ZM22.3984 18.6992C21.948 18.6994 21.5159 18.8789 21.1973 19.1973C20.8788 19.5157 20.6996 19.9481 20.6992 20.3984C20.6992 20.8491 20.8787 21.2828 21.1973 21.6016C21.5159 21.9201 21.9479 22.0994 22.3984 22.0996C22.8493 22.0996 23.2828 21.9204 23.6016 21.6016C23.9201 21.2828 24.0996 20.8491 24.0996 20.3984C24.0992 19.9482 23.9199 19.5157 23.6016 19.1973C23.2828 18.8787 22.8491 18.6992 22.3984 18.6992ZM8.98633 7.5625C8.32158 8.15825 7.82636 8.91857 7.55078 9.76758L11.7012 12.4648L13.1465 11.8359L13.1367 10.2617L8.98633 7.5625Z" fill="#FAFAFA"/>
</svg>
