<svg width="48" height="48" viewBox="0 0 48 48" fill="none" xmlns="http://www.w3.org/2000/svg">
<path fill-rule="evenodd" clip-rule="evenodd" d="M32.4004 30H37.1992C38.4722 30 39.6936 30.5061 40.5938 31.4062C41.4939 32.3064 42 33.5278 42 34.8008V37.1992L41.9766 37.6738C41.8676 38.7728 41.3815 39.806 40.5938 40.5938L40.2422 40.9121C39.5098 41.5123 38.6161 41.8831 37.6738 41.9766L37.1992 42H30L15.5996 30H10.8008L10.3262 29.9766C9.38389 29.8831 8.49018 29.5123 7.75781 28.9121L7.40625 28.5938C6.61846 27.806 6.13243 26.7728 6.02344 25.6738L6 25.1992V22.8008C6 21.6867 6.38778 20.612 7.08789 19.7578L7.40625 19.4062C8.19405 18.6185 9.22712 18.1324 10.3262 18.0234L10.8008 18H18L32.4004 30ZM10.8008 21C10.3234 21 9.86491 21.1898 9.52734 21.5273C9.18979 21.8649 9 22.3234 9 22.8008V25.1992C9 25.6765 9.18981 26.1351 9.52734 26.4727C9.86497 26.8103 10.3235 27 10.8008 27H15.5996L15.8613 27.0117C16.4691 27.0649 17.0496 27.3021 17.5215 27.6953L31.0859 39H37.1992C37.6765 39 38.1351 38.8102 38.4727 38.4727C38.8102 38.1351 39 37.6765 39 37.1992V34.8008C39 34.3235 38.8102 33.8649 38.4727 33.5273C38.1351 33.1898 37.6765 33 37.1992 33H32.4004C31.6986 33 31.0177 32.754 30.4785 32.3047L16.9141 21H10.8008Z" fill="#FAFAFA"/>
<path d="M38.0996 6C38.9278 6 39.5992 6.67191 39.5996 7.5C39.5994 8.32825 38.9279 9 38.0996 9H32.1211L41.5605 18.4395L41.6641 18.5527C42.1446 19.1418 42.1095 20.0113 41.5605 20.5605C41.0113 21.1097 40.1419 21.1447 39.5527 20.6641L39.4395 20.5605L30 11.1211V17.0996C30 17.9279 29.3282 18.5994 28.5 18.5996C27.6718 18.5993 27 17.9279 27 17.0996V7.5C27 7.48234 27.0013 7.46478 27.002 7.44727C27.0024 7.43358 27.003 7.41993 27.0039 7.40625C27.0086 7.3303 27.0195 7.25607 27.0352 7.18359C27.094 6.9111 27.2277 6.65117 27.4395 6.43945C27.5785 6.30049 27.7379 6.19415 27.9082 6.12109C27.9306 6.11146 27.9555 6.10817 27.9785 6.09961C28.0456 6.07466 28.1123 6.05019 28.1816 6.03516C28.2547 6.01934 28.3297 6.00866 28.4062 6.00391C28.4193 6.00309 28.4323 6.00243 28.4453 6.00195C28.4635 6.0013 28.4817 6.00001 28.5 6H38.0996Z" fill="#FAFAFA"/>
</svg>
