<svg width="48" height="48" viewBox="0 0 48 48" fill="none" xmlns="http://www.w3.org/2000/svg">
<path d="M37.2012 26.0996C38.0293 26.0998 38.7009 26.7715 38.7012 27.5996C38.7012 28.4279 38.0294 29.0994 37.2012 29.0996H25.5V42C25.4998 42.8282 24.8283 43.5 24 43.5C23.1717 43.5 22.5002 42.8282 22.5 42V29.0996H10.8008C9.97235 29.0996 9.30078 28.428 9.30078 27.5996C9.30105 26.7714 9.97252 26.0996 10.8008 26.0996H37.2012Z" fill="#FAFAFA"/>
<path d="M24 4.5C24.8284 4.5 25.5 5.17157 25.5 6V18.9004H37.2012C38.0294 18.9006 38.7012 19.5721 38.7012 20.4004C38.7009 21.2285 38.0293 21.9002 37.2012 21.9004H10.8008C9.97252 21.9004 9.30105 21.2286 9.30078 20.4004C9.30078 19.572 9.97235 18.9004 10.8008 18.9004H22.5V6C22.5 5.17157 23.1716 4.5 24 4.5Z" fill="#FAFAFA"/>
</svg>
