<svg width="48" height="48" viewBox="0 0 48 48" fill="none" xmlns="http://www.w3.org/2000/svg">
<path d="M29.2502 19C29.2502 14.0294 25.2208 10 20.2502 10C15.2797 10 11.2502 14.0294 11.2502 19C11.2502 23.9706 15.2797 28 20.2502 28V31C13.6228 31 8.25023 25.6274 8.25023 19C8.25023 12.3726 13.6228 7 20.2502 7C26.8776 7 32.2502 12.3726 32.2502 19C32.2502 25.6274 26.8776 31 20.2502 31V28C25.2208 28 29.2502 23.9706 29.2502 19Z" fill="#FAFAFA"/>
<path d="M20.2502 28.5C27.2495 28.5 33.0447 32.5318 37.1233 38.5977L37.5139 39.1914L37.5901 39.3242C37.9333 40.0026 37.7129 40.8448 37.0588 41.2637C36.4048 41.6822 35.5489 41.5291 35.0764 40.9336L34.9866 40.8086L34.2717 39.7441C30.6127 34.5579 25.7768 31.5 20.2502 31.5C14.3556 31.5 9.24717 34.979 5.5139 40.8086C5.06724 41.5061 4.13923 41.7101 3.44163 41.2637C2.74414 40.817 2.54018 39.889 2.98656 39.1914C7.08183 32.7963 13.025 28.5 20.2502 28.5Z" fill="#FAFAFA"/>
<path d="M43.4397 22.9393C44.0255 22.3536 44.975 22.3536 45.5608 22.9393C46.1466 23.5251 46.1466 24.4746 45.5608 25.0604L39.5608 31.0604C38.975 31.6462 38.0255 31.6462 37.4397 31.0604L34.4397 28.0604L34.3362 27.9472C33.8556 27.358 33.8905 26.4885 34.4397 25.9393C34.9889 25.3901 35.8583 25.3552 36.4475 25.8358L36.5608 25.9393L38.5002 27.8788L43.4397 22.9393Z" fill="#FAFAFA"/>
</svg>
