<svg width="48" height="48" viewBox="0 0 48 48" fill="none" xmlns="http://www.w3.org/2000/svg">
<path d="M40.5 30C40.5 28.2761 39.8147 26.6233 38.5957 25.4043C37.4529 24.2615 35.9288 23.5875 34.3223 23.5078L34 23.5H29.2402C28.5915 23.5026 27.9541 23.3247 27.4004 22.9863C26.844 22.6462 26.393 22.1566 26.0996 21.5742L26.0918 21.5586L25.2207 19.7754L25.1426 19.6621C25.1113 19.628 25.075 19.5987 25.0352 19.5742C24.9556 19.5256 24.8627 19.4994 24.7695 19.5H19.2305C19.1373 19.4994 19.0444 19.5256 18.9648 19.5742C18.8857 19.6228 18.8211 19.6924 18.7793 19.7754L17.9082 21.5586L17.9004 21.5742C17.607 22.1566 17.156 22.6462 16.5996 22.9863C16.0459 23.3247 15.4085 23.5007 14.7598 23.498L7.5 23.5V28.5H32C32.9283 28.5 33.8182 28.869 34.4746 29.5254C35.131 30.1818 35.5 31.0717 35.5 32V36C35.5 36.1326 35.5527 36.2597 35.6465 36.3535C35.7402 36.4473 35.8674 36.5 36 36.5H40C40.1326 36.5 40.2598 36.4473 40.3535 36.3535C40.4473 36.2597 40.5 36.1326 40.5 36V30ZM43.5 36C43.5 36.9283 43.131 37.8182 42.4746 38.4746C41.8182 39.131 40.9283 39.5 40 39.5H36C35.0717 39.5 34.1818 39.131 33.5254 38.4746C32.869 37.8182 32.5 36.9283 32.5 36V32C32.5 31.8674 32.4473 31.7402 32.3535 31.6465C32.2597 31.5527 32.1326 31.5 32 31.5H7.5V34C7.5 34.8284 6.82843 35.5 6 35.5C5.17157 35.5 4.5 34.8284 4.5 34V18C4.5 17.1716 5.17157 16.5 6 16.5C6.82843 16.5 7.5 17.1716 7.5 18V20.5H14.7695C14.8627 20.5006 14.9556 20.4744 15.0352 20.4258C15.1143 20.3772 15.1789 20.3076 15.2207 20.2246L16.0918 18.4414L16.0996 18.4258C16.393 17.8434 16.844 17.3538 17.4004 17.0137C17.9541 16.6753 18.5915 16.4974 19.2402 16.5H20.5V11.5H16C15.1716 11.5 14.5 10.8284 14.5 10C14.5 9.17157 15.1716 8.5 16 8.5H28C28.8284 8.5 29.5 9.17157 29.5 10C29.5 10.8284 28.8284 11.5 28 11.5H23.5V16.5H24.7598C25.4085 16.4974 26.0459 16.6753 26.5996 17.0137C27.0865 17.3113 27.4928 17.7225 27.7832 18.2109L27.9004 18.4258L27.9082 18.4414L28.7793 20.2246C28.8211 20.3076 28.8857 20.3772 28.9648 20.4258C29.0444 20.4744 29.1373 20.5006 29.2305 20.5H34C36.5196 20.5 38.9352 21.5016 40.7168 23.2832C42.4984 25.0648 43.5 27.4804 43.5 30V36Z" fill="#FAFAFA"/>
</svg>
