<svg width="48" height="48" viewBox="0 0 48 48" fill="none" xmlns="http://www.w3.org/2000/svg">
<path fill-rule="evenodd" clip-rule="evenodd" d="M24.0176 11.7012C24.4162 11.7012 24.7987 11.8603 25.0801 12.1426C27.22 14.2895 28.713 16.9957 29.3867 19.9512C29.7364 21.4854 29.8552 23.0544 29.752 24.6094C30.3356 24.2658 30.9423 23.9601 31.5703 23.6992C33.3545 22.9582 35.2673 22.5762 37.1992 22.5742L37.3535 22.582C38.1098 22.6581 38.7002 23.2958 38.7012 24.0723C38.7032 26.0045 38.3253 27.9191 37.5879 29.7051C36.8503 31.4911 35.7672 33.1146 34.4023 34.4824C33.0376 35.8501 31.417 36.9363 29.6328 37.6777C28.3119 38.2266 26.9197 38.5776 25.502 38.7246V42C25.5017 42.8282 24.8302 43.5 24.002 43.5C23.1737 43.5 22.5022 42.8282 22.502 42V38.7246C21.0835 38.5777 19.6907 38.2269 18.3691 37.6777C16.5847 36.9363 14.9625 35.8503 13.5977 34.4824C12.2332 33.1146 11.1514 31.4909 10.4141 29.7051C9.67673 27.919 9.2985 26.0045 9.30078 24.0723L9.30859 23.9199C9.38592 23.1632 10.0258 22.5733 10.8027 22.5742C13.4566 22.5775 16.0355 23.2977 18.2812 24.627C18.1767 23.0777 18.2953 21.5139 18.6406 19.9844C19.3109 17.0165 20.8069 14.2973 22.9551 12.1426C23.2364 11.8604 23.6191 11.7013 24.0176 11.7012ZM12.4121 25.6895C12.5477 26.6731 12.8069 27.6387 13.1875 28.5605C13.7745 29.9822 14.6363 31.2744 15.7227 32.3633C16.8091 33.4522 18.0991 34.3179 19.5195 34.9082C20.4404 35.2908 21.4055 35.5496 22.3887 35.6875C22.042 33.1771 20.8885 30.8303 19.0781 29.0156C17.2671 27.2005 14.9225 26.0416 12.4121 25.6895ZM35.5879 25.6895C34.605 25.8273 33.6413 26.0883 32.7207 26.4707C31.3 27.0609 30.0085 27.9247 28.9219 29.0137C28.8092 29.1266 28.6995 29.2422 28.5918 29.3594C28.5869 29.3649 28.5812 29.3696 28.5762 29.375C27.6515 30.3847 26.9102 31.5506 26.3867 32.8184C26.0064 33.7398 25.747 34.7044 25.6113 35.6875C26.5947 35.5497 27.5594 35.2908 28.4805 34.9082C29.9012 34.3179 31.1926 33.4523 32.2793 32.3633C33.3656 31.2744 34.2273 29.9822 34.8145 28.5605C35.1951 27.6388 35.4521 26.673 35.5879 25.6895ZM24.0156 15.4668C22.8329 16.9863 21.9935 18.7535 21.5664 20.6445C21.0404 22.9746 21.1627 25.4014 21.9121 27.666C22.746 28.6303 23.4466 29.6909 24 30.8223C24.5699 29.6576 25.2906 28.5733 26.1445 27.5977C26.8767 25.3434 26.9883 22.9315 26.4609 20.6172C26.0319 18.7356 25.1932 16.9794 24.0156 15.4668Z" fill="#FAFAFA"/>
<path d="M12.0645 37.5C12.5667 36.8415 13.5092 36.7148 14.168 37.2168C15.2403 38.0342 16.4156 38.7075 17.6641 39.2168C18.4311 39.5297 18.7992 40.4048 18.4863 41.1719C18.1732 41.9385 17.2981 42.3069 16.5312 41.9941C15.0378 41.3849 13.6304 40.5814 12.3477 39.6035C11.6894 39.1013 11.5628 38.1587 12.0645 37.5Z" fill="#FAFAFA"/>
<path d="M33.8711 37.2168C34.5303 36.7152 35.471 36.8429 35.9727 37.502C36.4741 38.1612 36.3467 39.1019 35.6875 39.6035C34.4049 40.5793 32.9994 41.384 31.5078 41.9941C30.7415 42.307 29.8646 41.9397 29.5508 41.1738C29.2373 40.4075 29.6052 39.5308 30.3711 39.2168C31.6197 38.7061 32.7974 38.0335 33.8711 37.2168Z" fill="#FAFAFA"/>
<path d="M6.93555 29.8086C7.69678 29.4822 8.57963 29.8346 8.90625 30.5957C9.43912 31.8385 10.1313 33.0076 10.9648 34.0723C11.4752 34.7243 11.3605 35.6669 10.709 36.1777C10.0567 36.6879 9.11212 36.574 8.60156 35.9219C7.60818 34.653 6.78351 33.2603 6.14844 31.7793C5.82214 31.0183 6.17495 30.1354 6.93555 29.8086Z" fill="#FAFAFA"/>
<path d="M39.1289 30.5957C39.4556 29.8344 40.3383 29.4819 41.0996 29.8086C41.8609 30.1353 42.2134 31.018 41.8867 31.7793C41.2513 33.2601 40.4266 34.6528 39.4336 35.9219C38.923 36.5741 37.9805 36.6881 37.3281 36.1777C36.6757 35.6673 36.5599 34.7247 37.0703 34.0723C37.9037 33.0072 38.5956 31.8385 39.1289 30.5957Z" fill="#FAFAFA"/>
<path d="M24 4.5C26.5608 4.49958 29.0969 5.00284 31.4629 5.98242C33.8291 6.96219 35.9799 8.40015 37.791 10.2109C39.6018 12.0216 41.0375 14.1713 42.0176 16.5371C42.9978 18.9032 43.5039 21.4389 43.5039 24C43.5033 24.8681 43.4447 25.7372 43.3301 26.5977C43.2207 27.4188 42.4657 27.9961 41.6445 27.8867C40.8237 27.777 40.2461 27.0222 40.3555 26.2012C40.4527 25.4714 40.5034 24.7362 40.5039 24L40.4824 23.1895C40.3895 21.2994 39.9719 19.4376 39.2461 17.6855C38.4168 15.6837 37.2022 13.8642 35.6699 12.332C34.1377 10.8001 32.3182 9.58488 30.3164 8.75586C28.3142 7.92683 26.1671 7.49961 24 7.5C19.6239 7.5 15.4264 9.23768 12.332 12.332C9.23768 15.4264 7.5 19.6239 7.5 24C7.5006 24.7361 7.54935 25.4715 7.64648 26.2012C7.75583 27.0224 7.1786 27.7774 6.35742 27.8867C5.53645 27.9957 4.78315 27.4187 4.67383 26.5977C4.55925 25.7371 4.50069 24.8701 4.5 24.002C4.5 18.8302 6.55398 13.8679 10.2109 10.2109C13.8679 6.55398 18.8283 4.5 24 4.5Z" fill="#FAFAFA"/>
</svg>
