<svg width="48" height="48" viewBox="0 0 48 48" fill="none" xmlns="http://www.w3.org/2000/svg">
<path d="M5.5 35.0039C6.32827 35.0039 6.99974 35.6757 7 36.5039V41H11.4961C12.3243 41.0001 12.996 41.6718 12.9961 42.5C12.9961 43.3283 12.3244 43.9999 11.4961 44H5.5C4.7238 43.9998 4.08492 43.4102 4.00781 42.6543C4.00265 42.6037 4 42.552 4 42.5V36.5039C4.00026 35.6759 4.67196 35.0042 5.5 35.0039Z" fill="#FAFAFA"/>
<path d="M42.5 35C43.328 35.0003 43.9997 35.672 44 36.5V42.4961C44 42.5481 43.9974 42.5998 43.9922 42.6504C43.9151 43.4063 43.2762 43.9958 42.5 43.9961H36.5039C35.6756 43.996 35.0039 43.3244 35.0039 42.4961C35.004 41.6679 35.6757 40.9962 36.5039 40.9961H41V36.5C41.0003 35.6718 41.6717 35 42.5 35Z" fill="#FAFAFA"/>
<path fill-rule="evenodd" clip-rule="evenodd" d="M24 10.1152C28.4183 10.1152 32 13.697 32 18.1152C31.9997 20.4649 30.9844 22.5756 29.3711 24.0391C33.489 25.5066 36.8295 28.6135 38.6055 32.5703C38.9432 33.3255 38.6044 34.2137 37.8496 34.5527C37.0945 34.8911 36.2068 34.5533 35.8672 33.7988C33.8334 29.2675 29.2824 26.1156 24 26.1152C18.7176 26.1156 14.1686 29.2675 12.1348 33.7988C11.7956 34.5534 10.9074 34.8903 10.1523 34.5527C9.39696 34.2137 9.05817 33.3258 9.39648 32.5703C11.1722 28.614 14.5101 25.5088 18.627 24.041C17.0137 22.5776 16.0003 20.4649 16 18.1152C16 13.697 19.5817 10.1152 24 10.1152ZM24 13.1152C21.2386 13.1152 19 15.3538 19 18.1152C19.0005 20.8762 21.2389 23.1152 24 23.1152C26.7611 23.1152 28.9995 20.8762 29 18.1152C29 15.3538 26.7614 13.1152 24 13.1152Z" fill="#FAFAFA"/>
<path d="M11.5332 4.00781C12.3612 4.00807 13.0329 4.67977 13.0332 5.50781C13.0332 6.33608 12.3614 7.00755 11.5332 7.00781H7.03711V11.5039C7.03698 12.3321 6.36534 13.0038 5.53711 13.0039C4.70876 13.0039 4.03724 12.3322 4.03711 11.5039V5.50781C4.03736 4.73161 4.6269 4.09273 5.38281 4.01562C5.43344 4.01046 5.48511 4.00781 5.53711 4.00781H11.5332Z" fill="#FAFAFA"/>
<path d="M42.6543 4.01172C43.4102 4.08883 43.9998 4.72771 44 5.50391V11.5C43.9999 12.3283 43.3283 13 42.5 13C41.6718 12.9999 41.0001 12.3282 41 11.5V7.00391H36.5039C35.6757 7.00364 35.0039 6.33217 35.0039 5.50391C35.0042 4.67587 35.6759 4.00417 36.5039 4.00391H42.5C42.552 4.00391 42.6037 4.00655 42.6543 4.01172Z" fill="#FAFAFA"/>
</svg>
