<svg width="48" height="48" viewBox="0 0 48 48" fill="none" xmlns="http://www.w3.org/2000/svg">
<path d="M40 37V40H8V37H40ZM41 36V12C41 11.4477 40.5523 11 40 11H8C7.44772 11 7 11.4477 7 12V36C7 36.5523 7.44771 37 8 37V40L7.5918 39.9785C5.57445 39.774 4 38.0713 4 36V12C4 9.79086 5.79086 8 8 8H40C42.2091 8 44 9.79086 44 12V36C44 38.2091 42.2091 40 40 40V37C40.5523 37 41 36.5523 41 36Z" fill="#FAFAFA"/>
<path d="M35.0001 28C36.6569 28 38.0001 29.3431 38.0001 31C38.0001 32.6569 36.6569 34 35.0001 34C33.3433 33.9999 32.0001 32.6568 32.0001 31C32.0001 29.3432 33.3433 28.0001 35.0001 28Z" fill="#FAFAFA"/>
<path d="M35.0001 20C36.6569 20 38.0001 21.3431 38.0001 23C38.0001 24.6569 36.6569 26 35.0001 26C33.3433 25.9999 32.0001 24.6568 32.0001 23C32.0001 21.3432 33.3433 20.0001 35.0001 20Z" fill="#FAFAFA"/>
<path d="M22.3216 12.7813C23.7042 12.7813 24.778 13.9882 24.6165 15.3614L24.0403 20.2559H26.2161C28.141 20.2564 29.2208 22.4723 28.0344 23.9883L19.9387 34.3321C19.5009 34.8914 18.8287 35.2188 18.1184 35.2188H17.2962C15.8982 35.2188 14.8208 33.9852 15.0071 32.5997L15.5344 28.6778H14.1594C12.3263 28.6773 11.2235 26.6439 12.2239 25.1075L19.5676 13.8301L19.7415 13.5977C20.177 13.0837 20.8198 12.7814 21.5032 12.7813H22.3216ZM15.4329 25.6778H16.3235C17.7213 25.6781 18.7988 26.9116 18.6126 28.2969L18.1477 31.7501L24.7962 23.2559H23.2649C21.8824 23.2559 20.8088 22.0488 20.97 20.6758L21.4719 16.4005L15.4329 25.6778Z" fill="#FAFAFA"/>
</svg>
