<svg width="48" height="48" viewBox="0 0 48 48" fill="none" xmlns="http://www.w3.org/2000/svg">
<path fill-rule="evenodd" clip-rule="evenodd" d="M29.7691 4.97695C30.7442 4.68361 31.7757 4.63421 32.775 4.82656L32.7769 4.82461L32.7886 4.82852C32.8063 4.83191 32.8257 4.83274 32.8433 4.83633L32.8414 4.83828C34.7533 5.15244 36.5403 5.99363 37.9976 7.27188C38.6198 7.81781 38.6813 8.76438 38.1363 9.38711C37.59 10.0099 36.6419 10.0721 36.0191 9.52578C34.9721 8.60763 33.6856 8.0047 32.3101 7.7875C32.2883 7.78406 32.2654 7.78019 32.2437 7.77578C31.7097 7.66697 31.1563 7.69314 30.6344 7.85C30.1127 8.00701 29.6368 8.29113 29.2515 8.67617L29.191 8.73281C29.3623 9.01481 29.5144 9.30957 29.6402 9.61758C30.1132 10.7758 30.2292 12.0506 29.9761 13.2758C29.8341 13.9624 29.5739 14.6146 29.2203 15.2113C29.3969 15.3955 29.5626 15.588 29.7183 15.7875L41.9429 28.0121L42.1363 28.227C42.2575 28.3773 42.3623 28.5407 42.4488 28.7133L42.566 28.9809L42.6519 29.2582C42.723 29.5385 42.7492 29.8299 42.7281 30.1195C42.6998 30.5063 42.5866 30.8831 42.4 31.223C42.2242 31.5429 41.9838 31.8224 41.6968 32.0473C41.6867 32.0556 41.6758 32.0644 41.6656 32.0727C41.6584 32.0781 41.6513 32.0866 41.6441 32.0922L41.6422 32.0902C40.3514 33.1264 38.7811 33.7565 37.1304 33.893C37.1137 33.8943 37.0964 33.896 37.0797 33.8969C35.3989 33.9769 33.7473 33.4264 32.4508 32.3539C31.8126 31.8259 31.7236 30.8789 32.2515 30.2406C32.7796 29.6037 33.725 29.5143 34.3629 30.0414C35.0785 30.6333 35.9882 30.9379 36.9156 30.8988C37.8809 30.8132 38.8006 30.4622 39.5797 29.891L31.2203 21.5316C30.9886 23.0481 30.2938 24.463 29.2222 25.5824C29.7776 26.3553 30.2337 27.1978 30.5758 28.0902C31.1024 29.4645 31.3481 30.93 31.3043 32.4008C31.3041 35.8172 29.9375 38.5431 28.4176 40.4008C27.6586 41.3283 26.8438 42.0611 26.107 42.5746C25.7396 42.8306 25.3715 43.0467 25.0211 43.2035C24.7058 43.3446 24.2699 43.5003 23.8062 43.5004C23.3426 43.5003 22.9066 43.3446 22.5914 43.2035C22.241 43.0467 21.8728 42.8306 21.5054 42.5746C20.7686 42.061 19.9538 41.3283 19.1949 40.4008C17.6822 38.5519 16.3213 35.8432 16.3082 32.4496L16.3062 32.4516C16.2552 30.9644 16.5042 29.4817 17.0367 28.0922C17.379 27.1993 17.8348 26.3558 18.3902 25.5824C17.3194 24.4632 16.6257 23.0475 16.3941 21.5316L8.03474 29.893C8.81399 30.4648 9.73495 30.815 10.7008 30.9008C11.6274 30.9395 12.5364 30.6347 13.2515 30.0434C13.8899 29.516 14.837 29.6045 15.3648 30.2426C15.8926 30.8807 15.8013 31.8277 15.1636 32.3559C13.8674 33.4277 12.2168 33.9767 10.5367 33.8969C10.5195 33.896 10.5011 33.8963 10.484 33.8949C8.83347 33.7581 7.26469 33.1266 5.9742 32.0902L5.97224 32.0922C5.96676 32.0881 5.96204 32.0827 5.95662 32.0785C5.94473 32.0689 5.93136 32.0608 5.91951 32.0512L5.92146 32.0492C5.634 31.8242 5.39246 31.5453 5.21638 31.225C5.02991 30.8855 4.91887 30.5097 4.89021 30.1234C4.86167 29.7371 4.91584 29.3481 5.05037 28.9848L5.1656 28.7191C5.29457 28.4602 5.46454 28.2219 5.66951 28.016L17.8961 15.7875C18.0512 15.5888 18.2163 15.3969 18.3922 15.2133C18.0379 14.6165 17.7804 13.9628 17.6383 13.2758C17.3852 12.0506 17.5012 10.7758 17.9742 9.61758C18.0997 9.31037 18.2507 9.0161 18.4215 8.73477L18.3648 8.67813C17.9797 8.29306 17.5035 8.0091 16.982 7.85195C16.4603 7.6949 15.9066 7.66925 15.3726 7.77773C15.3515 7.78201 15.3295 7.7861 15.3082 7.78945C13.9317 8.00666 12.6431 8.60902 11.5953 9.52774C10.9725 10.0729 10.026 10.0113 9.48005 9.38906C8.93418 8.76641 8.99654 7.81811 9.61873 7.27188C11.0761 5.99425 12.8634 5.15449 14.775 4.84024C14.7918 4.83681 14.8108 4.83368 14.8277 4.83047C14.8318 4.82981 14.8372 4.82742 14.8414 4.82656C15.8407 4.63447 16.8722 4.68532 17.8472 4.97891C18.8435 5.27903 19.7503 5.82121 20.4859 6.55703L20.5426 6.61367C21.5256 6.01802 22.6551 5.69961 23.8082 5.69961C24.9599 5.69984 26.086 6.01917 27.0679 6.61367L27.1285 6.55508C27.8642 5.81963 28.773 5.27679 29.7691 4.97695ZM20.8043 37.5004C21.0317 37.8598 21.2682 38.1961 21.5172 38.5004C22.1081 39.2227 22.7197 39.7648 23.2203 40.1137C23.4651 40.2842 23.6652 40.3952 23.8062 40.4594C23.9472 40.3952 24.1476 40.2841 24.3922 40.1137C24.8927 39.7648 25.5044 39.2225 26.0953 38.5004C26.3442 38.1962 26.5808 37.8597 26.8082 37.5004H20.8043ZM19.314 32.6996C19.3337 33.3325 19.415 33.933 19.5445 34.5004H28.0679C28.1975 33.933 28.2788 33.3325 28.2984 32.6996H19.314ZM26.7554 27.2914C25.8323 27.6865 24.8319 27.8988 23.8082 27.8988C22.7827 27.8988 21.7795 27.6877 20.8551 27.2914C20.436 27.8669 20.0934 28.497 19.8375 29.1644C19.7699 29.3407 19.7108 29.5196 19.6558 29.6996H27.9566C27.9017 29.5196 27.8425 29.3407 27.775 29.1644C27.519 28.4964 27.175 27.8672 26.7554 27.2914ZM23.8082 15.8988C22.615 15.8988 21.4704 16.3737 20.6265 17.2172C19.7829 18.0609 19.3084 19.2057 19.3082 20.3988C19.3082 21.5922 19.7828 22.7366 20.6265 23.5805C21.4705 24.4244 22.6147 24.8988 23.8082 24.8988C24.7099 24.8987 25.5827 24.6277 26.3199 24.1312C26.558 23.9708 26.7839 23.7864 26.9898 23.5805C27.8333 22.7366 28.3082 21.592 28.3082 20.3988C28.3079 19.2057 27.8335 18.0609 26.9898 17.2172C26.146 16.3735 25.0014 15.8989 23.8082 15.8988ZM23.8082 8.69961C23.153 8.69961 22.5103 8.89496 21.9664 9.26016C21.4228 9.62547 20.9993 10.1461 20.7515 10.7523C20.504 11.3588 20.4433 12.0269 20.5758 12.6684C20.6359 12.959 20.7351 13.239 20.8687 13.5004C21.7892 13.108 22.7881 12.8988 23.8082 12.8988C24.8266 12.8989 25.8226 13.1093 26.7418 13.5004C26.8757 13.2386 26.9784 12.9594 27.0386 12.6684C27.171 12.0269 27.1104 11.3588 26.8629 10.7523C26.615 10.1459 26.1919 9.62555 25.648 9.26016C25.1043 8.89491 24.4632 8.69986 23.8082 8.69961Z" fill="#FAFAFA"/>
</svg>
