<svg width="48" height="48" viewBox="0 0 48 48" fill="none" xmlns="http://www.w3.org/2000/svg">
<path d="M15.8691 15.8695C16.455 15.2841 17.4046 15.2838 17.9902 15.8695C18.5754 16.4552 18.5755 17.4049 17.9902 17.9906C16.3964 19.5844 15.5002 21.7463 15.5 24.0003C15.5001 26.2546 16.3962 28.4181 17.9902 30.0121C18.5752 30.5979 18.5756 31.5476 17.9902 32.1332C17.4047 32.7185 16.4549 32.7181 15.8691 32.1332C14.0693 30.3333 12.9303 27.9968 12.6016 25.5003H6C5.17168 25.5003 4.50017 24.8286 4.5 24.0003C4.5 23.1719 5.17157 22.5003 6 22.5003H12.6016C12.9303 20.0043 14.0694 17.6693 15.8691 15.8695Z" fill="#FAFAFA"/>
<path d="M30.0098 15.8675C30.5953 15.2823 31.5451 15.2826 32.1309 15.8675C33.9309 17.6676 35.0699 20.0039 35.3984 22.5003H42C42.8284 22.5003 43.5 23.1719 43.5 24.0003C43.4998 24.8286 42.8283 25.5003 42 25.5003H35.3984C35.0696 27.9963 33.9303 30.3316 32.1309 32.1312C31.545 32.7164 30.5954 32.7168 30.0098 32.1312C29.4247 31.5456 29.4247 30.5958 30.0098 30.0101C31.6036 28.4161 32.5 26.2526 32.5 23.9984C32.4996 21.7446 31.6035 19.5823 30.0098 17.9886C29.4248 17.4029 29.4246 16.4531 30.0098 15.8675Z" fill="#FAFAFA"/>
<path d="M23.4219 18.4749C23.7575 18.1836 24.2425 18.1836 24.5781 18.4749C25.6862 19.4368 28 21.7187 28 24.0003C27.9999 25.0611 27.5782 26.0784 26.8281 26.8285C26.078 27.5785 25.0608 28.0003 24 28.0003C22.9392 28.0003 21.922 27.5785 21.1719 26.8285C20.4218 26.0784 20.0001 25.0611 20 24.0003C20 21.7187 22.3138 19.4368 23.4219 18.4749Z" fill="#FAFAFA"/>
</svg>
