<svg width="48" height="48" viewBox="0 0 48 48" fill="none" xmlns="http://www.w3.org/2000/svg">
<path d="M19.9219 28.2734C20.3673 28.2734 20.747 28.4372 21.0605 28.7656C21.3741 29.094 21.5312 29.4841 21.5312 29.9355C21.5312 30.3959 21.3732 30.7892 21.0586 31.1133C20.7441 31.4369 20.3613 31.5996 19.9121 31.5996C19.4731 31.5994 19.0961 31.4367 18.7812 31.1133C18.4662 30.7896 18.3086 30.396 18.3086 29.9336C18.3087 29.4817 18.4663 29.0912 18.7812 28.7637C19.0962 28.4364 19.4767 28.2735 19.9219 28.2734Z" fill="#FAFAFA"/>
<path d="M28.2266 28.2734C28.6762 28.2736 29.0569 28.4375 29.3691 28.7656C29.6815 29.094 29.8378 29.4841 29.8379 29.9355C29.8379 30.3958 29.6817 30.7892 29.3672 31.1133C29.0527 31.4372 28.6699 31.5995 28.2207 31.5996C27.7714 31.5996 27.3895 31.4376 27.0762 31.1152C26.7628 30.7926 26.6055 30.4016 26.6055 29.9434C26.6055 29.4851 26.7631 29.0913 27.0781 28.7637C27.3931 28.4363 27.7767 28.2734 28.2266 28.2734Z" fill="#FAFAFA"/>
<path d="M15.6055 24.4355C16.0555 24.4355 16.4383 24.6008 16.752 24.9297C17.0655 25.2585 17.2227 25.6495 17.2227 26.1016C17.2225 26.5534 17.0649 26.944 16.75 27.2715C16.435 27.5989 16.0515 27.7617 15.6016 27.7617C15.1518 27.7616 14.7718 27.5982 14.4629 27.2695C14.1539 26.9407 14 26.5462 14 26.0879C14 25.6297 14.1545 25.2393 14.4648 24.918C14.7751 24.5968 15.1558 24.4358 15.6055 24.4355Z" fill="#FAFAFA"/>
<path d="M24.1055 24.4355C24.5507 24.4357 24.9299 24.601 25.2422 24.9297C25.5544 25.2585 25.7109 25.6496 25.7109 26.1016C25.7108 26.5534 25.5528 26.944 25.2383 27.2715C24.9238 27.5987 24.541 27.7617 24.0918 27.7617C23.6527 27.7616 23.2733 27.5981 22.9551 27.2695C22.6367 26.9407 22.4786 26.5496 22.4785 26.0977C22.4785 25.6457 22.6375 25.2553 22.957 24.9277C23.2767 24.6001 23.66 24.4355 24.1055 24.4355Z" fill="#FAFAFA"/>
<path d="M32.5508 24.4355C32.9901 24.4356 33.3691 24.6009 33.6875 24.9297C34.0059 25.2585 34.166 25.6495 34.166 26.1016C34.1659 26.5534 34.0051 26.944 33.6855 27.2715C33.366 27.5988 32.9823 27.7617 32.5371 27.7617C32.0921 27.7615 31.7126 27.5981 31.4004 27.2695C31.088 26.9407 30.9317 26.5496 30.9316 26.0977C30.9316 25.6456 31.0897 25.2553 31.4043 24.9277C31.7189 24.6001 32.1013 24.4355 32.5508 24.4355Z" fill="#FAFAFA"/>
<path d="M19.8496 20.5996C20.295 20.5996 20.6747 20.7618 20.9883 21.0859C21.3017 21.4098 21.4588 21.803 21.459 22.2656C21.459 22.7287 21.301 23.1196 20.9863 23.4375C20.6717 23.7554 20.2893 23.9141 19.8398 23.9141C19.4008 23.9139 19.0238 23.7543 18.709 23.4355C18.3943 23.1168 18.2365 22.7245 18.2363 22.2578C18.2363 21.801 18.394 21.41 18.709 21.0859C19.024 20.7618 19.4042 20.5996 19.8496 20.5996Z" fill="#FAFAFA"/>
<path d="M28.3164 20.5996C28.7664 20.5996 29.1485 20.7618 29.4609 21.0859C29.7728 21.4097 29.9275 21.8032 29.9277 22.2656C29.9277 22.7283 29.7716 23.1197 29.457 23.4375C29.142 23.7554 28.7586 23.914 28.3086 23.9141C27.8585 23.9141 27.4765 23.7545 27.1641 23.4355C26.8523 23.1169 26.6955 22.7243 26.6953 22.2578C26.6953 21.8012 26.8532 21.41 27.168 21.0859C27.483 20.7618 27.8663 20.5996 28.3164 20.5996Z" fill="#FAFAFA"/>
<path fill-rule="evenodd" clip-rule="evenodd" d="M30 7.35156C30.8284 7.35156 31.5 8.02314 31.5 8.85156C31.4995 9.67954 30.8281 10.3516 30 10.3516H25.5V16.0078H34.002L34.5156 16.0215C39.7987 16.2889 44 20.6564 44 26.0059C44 30.866 40.5317 34.9136 35.9355 35.8145V39.1484C35.9355 39.9765 35.2635 40.6479 34.4355 40.6484C33.6071 40.6484 32.9355 39.9769 32.9355 39.1484V36.0039H15.0645V39.1484C15.0645 39.9769 14.3929 40.6484 13.5645 40.6484C12.736 40.6484 12.0645 39.9769 12.0645 39.1484V35.8145C7.46826 34.9136 4 30.866 4 26.0059C4 20.6564 8.20134 16.2889 13.4844 16.0215L13.998 16.0078H22.5V10.3516H18C17.1719 10.3516 16.5005 9.67954 16.5 8.85156C16.5 8.02314 17.1716 7.35156 18 7.35156H30ZM13.998 19.0078C10.1331 19.0078 7 22.1409 7 26.0059C7 29.8708 10.1331 33.0039 13.998 33.0039H34.002C37.8669 33.0039 41 29.8708 41 26.0059C41 22.1409 37.8669 19.0078 34.002 19.0078H13.998Z" fill="#FAFAFA"/>
</svg>
