<svg width="48" height="48" viewBox="0 0 48 48" fill="none" xmlns="http://www.w3.org/2000/svg">
<path d="M12.5 15C13.8807 15 15 13.8807 15 12.5C15 11.1193 13.8807 10 12.5 10C11.1193 10 10 11.1193 10 12.5C10 13.8807 11.1193 15 12.5 15Z" fill="#FAFAFA"/>
<path d="M26 25.8815V34.1195C26 35.3331 27.366 36.0443 28.3602 35.3484L34.2445 31.2294C35.0976 30.6322 35.0976 29.3688 34.2445 28.7717L28.3602 24.6527C27.366 23.9568 26 24.668 26 25.8815Z" fill="#FAFAFA"/>
<path fill-rule="evenodd" clip-rule="evenodd" d="M4 9.5C4 6.46243 6.46243 4 9.5 4H26.5C29.5376 4 32 6.46243 32 9.5V16H38.5C41.5376 16 44 18.4624 44 21.5V38.5C44 41.5376 41.5376 44 38.5 44H21.5C18.4624 44 16 41.5376 16 38.5V32H9.5C6.46243 32 4 29.5376 4 26.5V9.5ZM29 9.5V16H21.5C18.6692 16 16.338 18.1385 16.0336 20.8882L15.047 20.2304C13.1995 18.9987 10.7927 18.9987 8.94526 20.2304L7 21.5272V9.5C7 8.11929 8.11929 7 9.5 7H26.5C27.8807 7 29 8.11929 29 9.5ZM13.3829 22.7265L16 24.4713V29H9.5C8.11929 29 7 27.8807 7 26.5V25.1328L10.6094 22.7265C11.4491 22.1667 12.5431 22.1667 13.3829 22.7265ZM19 38.5V21.5C19 20.1193 20.1193 19 21.5 19H38.5C39.8807 19 41 20.1193 41 21.5V38.5C41 39.8807 39.8807 41 38.5 41H21.5C20.1193 41 19 39.8807 19 38.5Z" fill="#FAFAFA"/>
</svg>
