<svg width="48" height="48" viewBox="0 0 48 48" fill="none" xmlns="http://www.w3.org/2000/svg">
<path d="M17.3746 8.00586L17.564 8.0332C17.6899 8.05791 17.8129 8.09698 17.9312 8.14844L18.105 8.23438L18.2691 8.3418C18.4261 8.45624 18.5656 8.59653 18.6792 8.75977L18.7847 8.92969C18.8762 9.09896 18.9361 9.28352 18.9683 9.47461L18.9703 9.47266C19.1651 10.6022 19.7702 11.639 20.689 12.3926L21.0445 12.6582C21.9021 13.244 22.9339 13.5662 24.0015 13.5664C25.2215 13.5664 26.3962 13.1467 27.316 12.3926C28.2348 11.639 28.8399 10.6023 29.0347 9.47266C29.0788 9.21378 29.1797 8.97355 29.3238 8.76562L29.3257 8.76172L29.4449 8.60742C29.572 8.46219 29.722 8.33881 29.8882 8.24219L30.0601 8.15625C30.2336 8.07911 30.418 8.02859 30.607 8.00977L30.7964 8.00195C30.9856 8.00328 31.1746 8.03477 31.355 8.0957L40.2437 11.1094L40.4585 11.1914C40.8767 11.3753 41.2417 11.6684 41.5132 12.043L41.6421 12.2363L41.7515 12.4414C41.9853 12.9309 42.0589 13.486 41.9527 14.0254L40.8082 19.8809C40.7136 20.3606 40.4846 20.8003 40.1539 21.1484L40.0054 21.291C39.6474 21.6122 39.2099 21.8263 38.7437 21.9141L38.5425 21.9434L36.0581 22.2129L36.5347 37.3535L36.5191 37.7324C36.4748 38.1072 36.3457 38.4685 36.1441 38.7891L36.1421 38.7871C35.941 39.1068 35.676 39.3761 35.3648 39.5781L35.0386 39.7578L35.0113 39.7715C34.6606 39.9249 34.2814 40.0001 33.8999 39.998L14.0992 40C13.8148 40.0015 13.5321 39.9585 13.2613 39.873L12.9878 39.7715C12.9786 39.7674 12.9696 39.762 12.9605 39.7578C12.5091 39.5492 12.1235 39.214 11.855 38.7871C11.5862 38.3597 11.448 37.8619 11.4644 37.3535L11.939 22.2129L9.45659 21.9434C8.98354 21.8917 8.53158 21.7117 8.1519 21.4219L7.9937 21.291C7.58368 20.9231 7.29894 20.4307 7.19097 19.8828L6.04643 14.0254L6.01323 13.793C5.95772 13.2511 6.07773 12.7057 6.35698 12.2363L6.48589 12.043C6.80269 11.606 7.24831 11.2813 7.75542 11.1094L16.6441 8.0957C16.8179 8.03624 16.9988 8.00402 17.1812 8L17.3746 8.00586ZM9.06597 13.832L10.0718 18.9922L13.1421 19.3281L13.3277 19.3574C13.6947 19.4317 14.0387 19.6045 14.3179 19.8633L14.4507 20L14.5718 20.1484C14.8378 20.5087 14.9804 20.9511 14.9664 21.4102L14.4761 37H33.523L33.0328 21.4121C33.0163 20.8867 33.2057 20.383 33.5484 20L33.6812 19.8633C34.0068 19.5616 34.4207 19.3757 34.857 19.3281L37.9253 18.9922L38.9312 13.832L31.6187 11.3535C31.1366 12.6547 30.3114 13.8144 29.2183 14.7109C27.7542 15.9117 25.9053 16.5664 24.0015 16.5664C22.098 16.5662 20.2505 15.9114 18.7867 14.7109C17.6932 13.8139 16.8642 12.6535 16.3824 11.3516L9.06597 13.832Z" fill="#FAFAFA"/>
</svg>
