<svg width="48" height="48" viewBox="0 0 48 48" fill="none" xmlns="http://www.w3.org/2000/svg">
<path d="M23.1289 36.2753C23.272 36.3009 23.4049 36.368 23.5098 36.4686C23.6147 36.5695 23.6874 36.6996 23.7188 36.8417C23.75 36.9837 23.7384 37.1319 23.6855 37.2675C23.6327 37.4029 23.5409 37.52 23.4219 37.6034C23.3024 37.6868 23.1593 37.7332 23.0137 37.7362C22.8686 37.739 22.7259 37.699 22.6035 37.621C22.4808 37.5426 22.3827 37.4282 22.3242 37.2948C22.2465 37.1163 22.2418 36.9138 22.3125 36.7323C22.3834 36.5506 22.5246 36.4048 22.7031 36.3261C22.8366 36.2675 22.9855 36.2498 23.1289 36.2753Z" fill="#FAFAFA"/>
<path fill-rule="evenodd" clip-rule="evenodd" d="M23 29.4999C27.1421 29.4999 30.5 32.8578 30.5 36.9999C30.4999 41.142 27.1421 44.4999 23 44.4999C18.8579 44.4999 15.5001 41.142 15.5 36.9999C15.5 32.8578 18.8579 29.4999 23 29.4999ZM22.5469 32.0233C21.5331 31.9959 20.6703 32.3127 19.959 32.9725C19.715 33.1995 19.5582 33.5054 19.5156 33.8358C19.4732 34.1662 19.548 34.5018 19.7266 34.7831C20.222 35.5666 20.8379 36.1554 21.5586 36.5292C21.5097 36.6779 21.4839 36.8335 21.4824 36.9901C20.61 37.3496 19.6704 37.3195 18.6797 36.994C18.6059 36.9695 18.5262 36.9613 18.4492 36.9725C18.3725 36.9838 18.2999 37.014 18.2363 37.0585C18.1726 37.1031 18.1189 37.1619 18.082 37.2304C18.0454 37.2986 18.0256 37.3755 18.0234 37.453C17.9961 38.4667 18.3127 39.3297 18.9727 40.0409C19.1995 40.2847 19.5056 40.4417 19.8359 40.4843C20.166 40.5265 20.5003 40.4516 20.7812 40.2733C21.5654 39.777 22.1542 39.1604 22.5273 38.4393C22.6765 38.4886 22.8331 38.5141 22.9902 38.5155C23.3499 39.3883 23.318 40.329 22.9922 41.3202C22.9678 41.3937 22.9616 41.4721 22.9727 41.5487C22.9839 41.6255 23.0122 41.7 23.0566 41.7636C23.101 41.8269 23.1605 41.8791 23.2285 41.9159C23.2968 41.9527 23.3737 41.9742 23.4512 41.9764C24.4648 42.0039 25.3278 41.6869 26.0391 41.0272C26.2831 40.8003 26.4398 40.4944 26.4824 40.1639C26.5249 39.8335 26.452 39.498 26.2734 39.2167C25.7779 38.4328 25.1604 37.8445 24.4395 37.4706C24.4884 37.3218 24.5142 37.1663 24.5156 37.0097C25.3884 36.6499 26.3291 36.68 27.3203 37.0057C27.3939 37.0302 27.4721 37.0384 27.5488 37.0272C27.6258 37.016 27.7 36.9859 27.7637 36.9413C27.827 36.8968 27.8793 36.8376 27.916 36.7694C27.9527 36.7011 27.9724 36.6243 27.9746 36.5468C28.0019 35.5331 27.6853 34.6701 27.0254 33.9589C26.7986 33.7153 26.4941 33.5581 26.1641 33.5155C25.8336 33.473 25.4981 33.5479 25.2168 33.7264C24.4326 34.2228 23.8439 34.8394 23.4707 35.5604C23.3219 35.5114 23.1665 35.4858 23.0098 35.4843C22.6501 34.6115 22.6801 33.6707 23.0059 32.6796C23.0303 32.6061 23.0364 32.5277 23.0254 32.4511C23.0142 32.3741 22.986 32.2999 22.9414 32.2362C22.8969 32.1727 22.8378 32.1207 22.7695 32.0839C22.7011 32.047 22.6246 32.0255 22.5469 32.0233Z" fill="#FAFAFA"/>
<path fill-rule="evenodd" clip-rule="evenodd" d="M37.9395 6.93934C38.5252 6.35355 39.4748 6.35355 40.0605 6.93934L44.0605 10.9393C44.6462 11.5251 44.6463 12.4747 44.0605 13.0604L40.0605 17.0604C39.4748 17.646 38.5252 17.646 37.9395 17.0604C37.3537 16.4747 37.3538 15.5251 37.9395 14.9393L39.3789 13.4999H37.4004C36.0197 13.4999 34.9004 14.6192 34.9004 15.9999V18.4999H37C40.0376 18.4999 42.5 20.9623 42.5 23.9999V32.1991C42.4998 35.2365 40.0374 37.6991 37 37.6991H34C33.1717 37.6991 32.5002 37.0274 32.5 36.1991C32.5004 35.371 33.1718 34.6991 34 34.6991H37C38.3806 34.6991 39.4998 33.5797 39.5 32.1991V23.9999C39.5 22.6192 38.3807 21.4999 37 21.4999H34.9004V24.4999C34.9002 27.2612 32.6617 29.4999 29.9004 29.4999C27.1391 29.4999 24.9006 27.2612 24.9004 24.4999V21.4999H20.9004V24.4999C20.9002 27.2612 18.6617 29.4999 15.9004 29.4999C13.1391 29.4999 10.9006 27.2612 10.9004 24.4999V21.4999H9C7.61929 21.4999 6.5 22.6192 6.5 23.9999V32.1991C6.50018 33.5797 7.6194 34.6991 9 34.6991H12C12.8282 34.6991 13.4996 35.371 13.5 36.1991C13.4998 37.0274 12.8283 37.6991 12 37.6991H9C5.96255 37.6991 3.50018 35.2365 3.5 32.1991V23.9999C3.5 20.9623 5.96244 18.4999 9 18.4999H10.9004V11.9999C10.9004 11.1715 11.572 10.4999 12.4004 10.4999C13.2288 10.4999 13.9004 11.1715 13.9004 11.9999V18.4999H17.9004V15.4999C17.9004 12.7385 20.139 10.4999 22.9004 10.4999C25.6618 10.4999 27.9004 12.7385 27.9004 15.4999V18.4999H31.9004V15.9999C31.9004 12.9623 34.3628 10.4999 37.4004 10.4999H39.3789L37.9395 9.06043C37.3537 8.4747 37.3538 7.52514 37.9395 6.93934ZM13.9004 24.4999C13.9006 25.6043 14.7959 26.4999 15.9004 26.4999C17.0048 26.4999 17.9002 25.6043 17.9004 24.4999V21.4999H13.9004V24.4999ZM27.9004 24.4999C27.9006 25.6043 28.7959 26.4999 29.9004 26.4999C31.0048 26.4999 31.9002 25.6043 31.9004 24.4999V21.4999H27.9004V24.4999ZM22.9004 13.4999C21.7958 13.4999 20.9004 14.3953 20.9004 15.4999V18.4999H24.9004V15.4999C24.9004 14.3953 24.005 13.4999 22.9004 13.4999Z" fill="#FAFAFA"/>
</svg>
