<svg width="48" height="48" viewBox="0 0 48 48" fill="none" xmlns="http://www.w3.org/2000/svg">
<path d="M7.94119 25.269C7.35544 24.6833 7.35565 23.7337 7.94119 23.1479C8.52694 22.562 9.47646 22.5621 10.0623 23.1479L24.0017 37.0873L37.9412 23.1479C38.527 22.5621 39.4765 22.562 40.0623 23.1479C40.6478 23.7337 40.648 24.6833 40.0623 25.269L25.7693 39.56C25.5374 39.792 25.2618 39.9753 24.9588 40.101C24.6554 40.2268 24.3302 40.2924 24.0017 40.2924C23.6733 40.2924 23.3481 40.2268 23.0447 40.101C22.7417 39.9753 22.466 39.792 22.2342 39.56L7.94119 25.269Z" fill="#FAFAFA"/>
<path d="M7.94119 10.2689C7.35543 9.68325 7.35565 8.73368 7.94119 8.14784C8.52694 7.56201 9.47646 7.56209 10.0623 8.14784L24.0017 22.0873L37.9412 8.14784C38.527 7.56209 39.4765 7.56201 40.0623 8.14784C40.6478 8.73368 40.648 9.68325 40.0623 10.2689L25.7693 24.5599C25.5375 24.792 25.2618 24.9753 24.9588 25.101C24.6554 25.2268 24.3301 25.2924 24.0017 25.2924C23.6733 25.2924 23.3481 25.2268 23.0447 25.101C22.7417 24.9753 22.466 24.792 22.2342 24.5599L7.94119 10.2689Z" fill="#FAFAFA"/>
</svg>
