<svg width="48" height="48" viewBox="0 0 48 48" fill="none" xmlns="http://www.w3.org/2000/svg">
<path d="M35.2695 24.375C36.0976 24.3754 36.7695 25.0468 36.7695 25.875C36.7695 26.7032 36.0976 27.3746 35.2695 27.375H35.25C34.4216 27.375 33.75 26.7034 33.75 25.875C33.75 25.0466 34.4216 24.375 35.25 24.375H35.2695Z" fill="#FAFAFA"/>
<path fill-rule="evenodd" clip-rule="evenodd" d="M13.6875 3.75C16.3231 3.75 18.8512 4.79651 20.7148 6.66016C22.5785 8.5238 23.625 11.0519 23.625 13.6875C23.625 16.1012 23.2388 18.0349 22.6172 19.6816C23.8167 19.232 25.0763 18.939 26.3652 18.8164C26.6646 16.9608 27.5406 15.2328 28.8867 13.8867C30.2167 12.5567 31.9198 11.6866 33.75 11.377V9C33.75 8.17157 34.4216 7.5 35.25 7.5C36.0784 7.5 36.75 8.17157 36.75 9V17.002C38.5804 17.3114 40.2833 18.1817 41.6133 19.5117C43.3011 21.1995 44.25 23.4881 44.25 25.875V29.625C44.25 31.0174 43.6975 32.3533 42.7129 33.3379C41.7283 34.3225 40.3924 34.875 39 34.875H37.125C36.031 34.875 34.9826 35.3104 34.209 36.084C33.4354 36.8576 33 37.906 33 39C33 39.0183 32.9967 39.0365 32.9961 39.0547C32.9933 39.4098 32.9683 39.7657 32.9121 40.1191C32.8507 40.5048 32.7552 40.8826 32.6328 41.25H35.25C36.0784 41.25 36.75 41.9216 36.75 42.75C36.75 43.5784 36.0784 44.25 35.25 44.25H16.5C10.4216 44.25 5.625 39.4534 5.625 33.375C5.625 27.3344 7.66967 23.7549 9.64453 20.916C9.90371 20.5435 10.1535 20.1914 10.3926 19.8555C10.2416 19.8666 10.0899 19.875 9.9375 19.875C8.29647 19.875 6.72288 19.2229 5.5625 18.0625C4.40212 16.9021 3.75 15.3285 3.75 13.6875C3.75 11.0519 4.79651 8.5238 6.66016 6.66016C8.5238 4.79651 11.0519 3.75 13.6875 3.75ZM13.6875 6.75C11.8476 6.75 10.0823 7.48022 8.78125 8.78125C7.48022 10.0823 6.75 11.8476 6.75 13.6875C6.75 14.5329 7.08582 15.3436 7.68359 15.9414C8.28137 16.5392 9.09212 16.875 9.9375 16.875C10.7829 16.875 11.5936 16.5392 12.1914 15.9414C12.7892 15.3436 13.125 14.5329 13.125 13.6875C13.125 12.8591 13.7966 12.1875 14.625 12.1875C15.4534 12.1875 16.125 12.8591 16.125 13.6875C16.125 13.8156 16.1192 13.9432 16.1113 14.0703C15.9671 17.73 13.7831 20.2193 12.1055 22.6309C10.3306 25.1824 8.625 28.1663 8.625 33.375C8.625 37.7966 12.0784 41.25 16.5 41.25H29.3301C29.6446 40.7663 29.8579 40.2208 29.9492 39.6465C30.0734 38.8645 29.9711 38.0626 29.6523 37.3379C29.3334 36.6131 28.8108 35.9954 28.1504 35.5586C27.49 35.1221 26.7173 34.8847 25.9258 34.875C25.0975 34.8651 24.4336 34.1856 24.4434 33.3574C24.4533 32.5292 25.1327 31.8653 25.9609 31.875C27.3287 31.8915 28.6636 32.3023 29.8047 33.0566C30.4547 33.4865 31.0222 34.0217 31.4961 34.6309C31.6777 34.3968 31.8742 34.1727 32.0859 33.9609C33.4221 32.6247 35.2353 31.875 37.125 31.875H39C39.5967 31.875 40.1698 31.6388 40.5918 31.2168C41.0138 30.7948 41.25 30.2217 41.25 29.625V25.875C41.25 24.2837 40.6174 22.758 39.4922 21.6328C38.367 20.5076 36.8413 19.875 35.25 19.875C34.4216 19.875 33.75 19.2034 33.75 18.375V14.4473C32.7218 14.7133 31.7717 15.2439 31.0078 16.0078C29.8826 17.133 29.25 18.6587 29.25 20.25C29.25 21.0784 28.5784 21.75 27.75 21.75C24.6669 21.75 21.7094 22.9742 19.5293 25.1543C17.3492 27.3344 16.125 30.2919 16.125 33.375C16.125 34.2034 15.4534 34.875 14.625 34.875C13.7966 34.875 13.125 34.2034 13.125 33.375C13.125 33.1203 13.1313 32.8663 13.1445 32.6133C13.3433 27.8869 15.3794 25.3401 17.1816 22.9746C18.1191 21.7442 18.956 20.6085 19.5801 19.1914C20.1943 17.7966 20.625 16.0702 20.625 13.6875C20.625 11.8476 19.8948 10.0823 18.5938 8.78125C17.2927 7.48022 15.5274 6.75 13.6875 6.75Z" fill="#FAFAFA"/>
</svg>
