<svg width="48" height="48" viewBox="0 0 48 48" fill="none" xmlns="http://www.w3.org/2000/svg">
<path d="M28.9336 33.6008C29.7615 33.6014 30.4336 34.2728 30.4336 35.1008C30.4335 35.8253 30.1457 36.5217 29.6328 37.0344L29.6309 37.0325C29.1184 37.5449 28.4232 37.833 27.6992 37.8333H20.2988C19.5749 37.833 18.8815 37.5443 18.3691 37.0325L18.3672 37.0344C17.8544 36.5218 17.5665 35.8256 17.5664 35.1008C17.5664 34.2724 18.238 33.6008 19.0664 33.6008C19.803 33.6013 20.4148 34.1329 20.541 34.8333H27.459C27.5853 34.1326 28.1966 33.6008 28.9336 33.6008Z" fill="#FAFAFA"/>
<path d="M28.9336 21.2668C29.7615 21.2674 30.4336 21.9388 30.4336 22.7668C30.4335 23.4913 30.1457 24.1877 29.6328 24.7004L29.6309 24.6985C29.1184 25.2109 28.4232 25.499 27.6992 25.4993H20.2988C19.5749 25.499 18.8815 25.2104 18.3691 24.6985L18.3672 24.7004C17.8544 24.1878 17.5665 23.4916 17.5664 22.7668C17.5664 21.9384 18.238 21.2668 19.0664 21.2668C19.803 21.2673 20.4148 21.799 20.541 22.4993H27.459C27.5853 21.7987 28.1966 21.2668 28.9336 21.2668Z" fill="#FAFAFA"/>
<path d="M28.9336 8.93286C29.7615 8.93343 30.4336 9.60479 30.4336 10.4329C30.4336 11.1575 30.1454 11.8538 29.6328 12.3665L29.6309 12.3645C29.1185 12.8767 28.4234 13.165 27.6992 13.1653H20.2988C19.5747 13.165 18.8795 12.8782 18.3672 12.3665C17.8546 11.8539 17.5664 11.1578 17.5664 10.4329C17.5664 9.60443 18.238 8.93286 19.0664 8.93286C19.803 8.93333 20.4148 9.46497 20.541 10.1653H27.459C27.5854 9.46475 28.1967 8.93286 28.9336 8.93286Z" fill="#FAFAFA"/>
<path fill-rule="evenodd" clip-rule="evenodd" d="M40.1113 4.00122C40.147 4.00242 40.1924 4.00325 40.2461 4.00708C40.3534 4.01475 40.4977 4.02981 40.666 4.05786C40.9955 4.11282 41.4574 4.22602 41.9375 4.46606C42.4238 4.70921 42.9563 5.0978 43.3633 5.70825C43.7763 6.32803 44 7.08715 44 7.96606V40.0657C43.9998 40.0786 43.9986 40.0948 43.998 40.1125C43.9968 40.1482 43.996 40.1938 43.9922 40.2473C43.9845 40.3544 43.9693 40.4975 43.9414 40.6653C43.8865 40.9948 43.7734 41.4583 43.5332 41.9387C43.29 42.4249 42.9014 42.9576 42.291 43.3645C41.6713 43.7775 40.912 44.0012 40.0332 44.0012H7.93555C7.92256 44.001 7.90657 43.9999 7.88867 43.9993C7.85298 43.9981 7.80761 43.9953 7.75391 43.9915C7.64658 43.9838 7.50225 43.9707 7.33398 43.9426C7.00453 43.8877 6.5426 43.7745 6.0625 43.5344C5.57621 43.2913 5.04371 42.9027 4.63672 42.2922C4.22365 41.6725 4.00005 40.9133 4 40.0344V7.93481C4.00021 7.92183 4.00136 7.90584 4.00195 7.88794C4.00315 7.85226 4.00398 7.80685 4.00781 7.75317C4.01548 7.64584 4.03054 7.50156 4.05859 7.33325C4.11355 7.0038 4.22675 6.54186 4.4668 6.06177C4.70995 5.5755 5.09853 5.04296 5.70898 4.63599C6.32877 4.22296 7.08788 3.99927 7.9668 3.99927H40.0645C40.0774 3.99948 40.0934 4.00062 40.1113 4.00122ZM7 40.0344C7.00005 40.3879 7.08353 40.5541 7.13281 40.6282C7.18834 40.7115 7.27389 40.7856 7.4043 40.8508C7.54056 40.919 7.69511 40.9615 7.82812 40.9836C7.89025 40.994 7.93911 40.9973 7.9668 40.9993C7.9781 41.0001 7.98828 41.0012 7.98828 41.0012H40.0332C40.3874 41.0012 40.5531 40.9157 40.627 40.8665C40.7101 40.811 40.7845 40.727 40.8496 40.5969C40.9177 40.4607 40.9603 40.3061 40.9824 40.1731C40.9929 40.1101 40.9961 40.06 40.998 40.0325C40.999 40.0194 41 40.011 41 40.011V31.6672H7V40.0344ZM7 28.6672H41V19.3333H7V28.6672ZM7.9668 6.99927C7.61345 6.99927 7.44722 7.08277 7.37305 7.13208C7.28978 7.18759 7.21558 7.27321 7.15039 7.40356C7.08225 7.53984 7.03975 7.69437 7.01758 7.82739C7.00723 7.88953 7.00396 7.93837 7.00195 7.96606C7.00115 7.97735 7 7.98755 7 7.98755V16.3333H41V7.96606C41 7.61272 40.9165 7.44648 40.8672 7.37231C40.8117 7.28905 40.7261 7.21485 40.5957 7.14966C40.4594 7.08152 40.3049 7.03902 40.1719 7.01685C40.1097 7.0065 40.0609 7.00322 40.0332 7.00122C40.0219 7.00041 40.0117 6.99927 40.0117 6.99927H7.9668Z" fill="#FAFAFA"/>
</svg>
