<svg width="48" height="48" viewBox="0 0 48 48" fill="none" xmlns="http://www.w3.org/2000/svg">
<path fill-rule="evenodd" clip-rule="evenodd" d="M23.0642 9.375C23.5874 9.37514 24.1039 9.49667 24.572 9.73047C25.0405 9.96471 25.4491 10.3056 25.7634 10.7246L30.3767 16.875H39.9392C41.5798 16.8752 43.154 17.5275 44.3142 18.6875C45.4743 19.8478 46.1267 21.4217 46.1267 23.0625C46.1267 24.7033 45.4743 26.2772 44.3142 27.4375C43.154 28.5975 41.5798 29.2498 39.9392 29.25H32.4021L32.3181 29.2598C32.2913 29.2659 32.2649 29.2752 32.24 29.2871C32.1895 29.3114 32.1441 29.3469 32.1091 29.3906L25.7341 37.3594C25.4183 37.7538 25.0176 38.072 24.5622 38.291C24.2203 38.4553 23.8534 38.5612 23.4782 38.6035L23.1013 38.625H19.2673C18.7164 38.6246 18.1738 38.4888 17.6872 38.2305C17.2007 37.972 16.7832 37.5988 16.4743 37.1426C16.1654 36.6861 15.9729 36.1593 15.9138 35.6113C15.8548 35.0637 15.9302 34.5095 16.1345 33.998L17.8259 29.7637C17.8486 29.7069 17.8578 29.6448 17.8513 29.584C17.8446 29.5234 17.8229 29.4645 17.7888 29.4141C17.7546 29.3638 17.7077 29.3216 17.654 29.293C17.6275 29.279 17.5989 29.269 17.57 29.2617L17.4782 29.25H10.236C9.576 29.2498 8.9297 29.0566 8.37863 28.6934C7.82752 28.3299 7.39464 27.8118 7.13448 27.2051L3.11691 17.8301C2.8968 17.3165 2.80738 16.7557 2.85714 16.1992C2.90693 15.6428 3.09438 15.1069 3.40206 14.6406C3.70976 14.1746 4.12894 13.7918 4.62081 13.5273C5.11246 13.2631 5.66228 13.1247 6.22042 13.125H9.71847C10.3447 13.1255 10.9593 13.2995 11.4919 13.6289C12.0241 13.9581 12.452 14.4307 12.7321 14.9902L13.5739 16.666L13.5759 16.668C13.6068 16.7296 13.6541 16.7819 13.7126 16.8184C13.7716 16.8548 13.8405 16.8748 13.9099 16.875H17.8259L16.5173 14.2578C16.2604 13.7435 16.1379 13.172 16.1638 12.5977C16.1897 12.0236 16.3619 11.4655 16.6638 10.9766C16.9659 10.4876 17.3885 10.0829 17.8903 9.80273C18.3922 9.52272 18.9583 9.37551 19.5329 9.375H23.0642ZM6.21847 16.125C6.15664 16.1251 6.0952 16.1406 6.04073 16.1699C5.98648 16.1992 5.94002 16.2416 5.90597 16.293C5.87185 16.3447 5.85095 16.405 5.84542 16.4668C5.83994 16.5285 5.85033 16.5915 5.87472 16.6484L9.8923 26.0234C9.92119 26.0905 9.97006 26.1473 10.031 26.1875C10.0919 26.2276 10.1631 26.2498 10.236 26.25H17.4841C18.0348 26.2509 18.5779 26.3859 19.0642 26.6445C19.5505 26.9033 19.9665 27.2781 20.2751 27.7344C20.5836 28.1907 20.7747 28.7161 20.8337 29.2637C20.8927 29.8113 20.8173 30.3654 20.613 30.877L18.9216 35.1113C18.899 35.1681 18.8897 35.2303 18.8962 35.291C18.9029 35.3516 18.9246 35.4105 18.9587 35.4609C18.9929 35.5114 19.0397 35.5534 19.0935 35.582C19.1474 35.6106 19.2082 35.6249 19.2693 35.625H23.0993C23.1552 35.625 23.211 35.612 23.2614 35.5879C23.312 35.5636 23.3572 35.5281 23.3923 35.4844L29.7673 27.5156L30.0193 27.2344C30.2864 26.9681 30.5977 26.7483 30.9392 26.584C31.3947 26.365 31.8947 26.2504 32.4001 26.25H39.9392C40.7841 26.2498 41.5955 25.9138 42.1931 25.3164C42.7906 24.7187 43.1267 23.9077 43.1267 23.0625L43.111 22.748C43.0387 22.0183 42.716 21.3317 42.1931 20.8086C41.5955 20.2112 40.7841 19.8752 39.9392 19.875H13.9079C13.2817 19.8744 12.667 19.7005 12.1345 19.3711C11.6017 19.0415 11.1723 18.5682 10.8923 18.0078L10.0525 16.334L10.0505 16.332C10.0195 16.2703 9.97245 16.2181 9.91378 16.1816C9.88405 16.1633 9.85138 16.1481 9.81808 16.1387L9.71652 16.125H6.21847ZM19.4411 12.3867C19.4108 12.3946 19.3809 12.4065 19.3532 12.4219C19.2976 12.453 19.25 12.4985 19.2165 12.5527C19.1831 12.6068 19.1648 12.6689 19.1618 12.7324C19.159 12.7962 19.1724 12.8609 19.2009 12.918L21.1794 16.875H26.6247L23.363 12.5254C23.3281 12.4789 23.2822 12.4401 23.2302 12.4141C23.1787 12.3885 23.1216 12.3751 23.0642 12.375H19.5349L19.4411 12.3867Z" fill="#FAFAFA"/>
</svg>
