<svg width="48" height="48" viewBox="0 0 48 48" fill="none" xmlns="http://www.w3.org/2000/svg">
<path fill-rule="evenodd" clip-rule="evenodd" d="M36.0208 11.9792C29.3819 5.34027 18.6181 5.34027 11.9792 11.9792C5.34027 18.6181 5.34027 29.3819 11.9792 36.0208C18.6181 42.6597 29.3819 42.6597 36.0208 36.0208C42.6597 29.3819 42.6597 18.6181 36.0208 11.9792ZM9.85787 9.85787C17.6684 2.04738 30.3317 2.04737 38.1421 9.85788C45.9526 17.6684 45.9526 30.3317 38.1421 38.1421C30.3316 45.9526 17.6683 45.9526 9.85787 38.1421C2.04738 30.3316 2.04738 17.6683 9.85787 9.85787Z" fill="#FAFAFA"/>
<path d="M21 19C21 20.6569 19.8807 22 18.5 22C17.1193 22 16 20.6569 16 19C16 17.3431 17.1193 16 18.5 16C19.8807 16 21 17.3431 21 19Z" fill="#FAFAFA"/>
<path d="M32 19C32 20.6569 30.8807 22 29.5 22C28.1193 22 27 20.6569 27 19C27 17.3431 28.1193 16 29.5 16C30.8807 16 32 17.3431 32 19Z" fill="#FAFAFA"/>
<path fill-rule="evenodd" clip-rule="evenodd" d="M28.5968 31.9038C26.0584 29.3654 21.9428 29.3654 19.4044 31.9038C18.8186 32.4896 17.8689 32.4896 17.2831 31.9038C16.6973 31.318 16.6973 30.3683 17.2831 29.7825C20.9931 26.0725 27.0081 26.0725 30.7181 29.7825C31.3039 30.3683 31.3039 31.318 30.7181 31.9038C30.1323 32.4896 29.1826 32.4896 28.5968 31.9038Z" fill="#FAFAFA"/>
</svg>
