<svg width="48" height="48" viewBox="0 0 48 48" fill="none" xmlns="http://www.w3.org/2000/svg">
<path fill-rule="evenodd" clip-rule="evenodd" d="M37.418 3.33398C38.2456 3.33486 38.918 4.0061 38.918 4.83398C38.918 5.66187 38.2456 6.33311 37.418 6.33398H35.082V12.8301C35.0817 14.2444 34.5198 15.6016 33.5195 16.6016L26.1191 24L33.5176 31.3984C34.5177 32.3982 35.0815 33.7558 35.082 35.1699V41.668H37.418C38.2456 41.6688 38.918 42.3401 38.918 43.168C38.9176 43.9956 38.2454 44.6671 37.418 44.668H10.584C9.75577 44.668 9.08238 43.9961 9.08203 43.168C9.08203 42.3395 9.75556 41.668 10.584 41.668H12.916V35.1699C12.9165 33.7558 13.4784 32.3982 14.4785 31.3984L21.877 24L14.4785 16.6016C13.6033 15.7265 13.0628 14.5783 12.9414 13.3574L12.916 12.8301V6.33398H10.584C9.75556 6.33398 9.08203 5.66241 9.08203 4.83398C9.08203 4.00556 9.75556 3.33398 10.584 3.33398H37.418ZM16.5996 33.5215C16.1625 33.9586 15.9165 34.5518 15.916 35.1699V41.668H32.082V35.1699C32.0815 34.5516 31.8357 33.9586 31.3984 33.5215L23.998 26.1211L16.5996 33.5215ZM16.5898 14.4707L23.998 21.8789L31.3984 14.4805C31.4016 14.4773 31.405 14.4739 31.4082 14.4707H16.5898ZM15.916 11.4707H32.082V6.33398H15.916V11.4707Z" fill="#FAFAFA"/>
</svg>
