<svg width="48" height="48" viewBox="0 0 48 48" fill="none" xmlns="http://www.w3.org/2000/svg">
<path d="M16.1329 34.4398C17.8708 34.442 19.8188 35.1572 21.6543 35.889C23.5962 36.6633 25.5636 37.5237 27.6485 38.1215C29.7111 38.7128 31.7583 39.0025 33.7618 38.6762C35.7357 38.3545 37.774 37.4178 39.8145 35.3773C40.4003 34.7917 41.3498 34.7916 41.9356 35.3773C42.5212 35.9631 42.5212 36.9127 41.9356 37.4984C39.4766 39.9574 36.8734 41.2085 34.2422 41.6371C31.6408 42.0606 29.1166 41.6626 26.8204 41.0043C24.5463 40.3522 22.3645 39.3997 20.545 38.6742C18.6218 37.9074 17.1974 37.4379 16.125 37.4379H16.1153C13.1716 37.4206 10.3237 38.4891 8.11723 40.4379C7.49636 40.9856 6.54827 40.9276 6.00005 40.307C5.45169 39.6861 5.51197 38.7363 6.13286 38.1879C8.89 35.7531 12.447 34.4202 16.125 34.4398H16.129L16.1348 34.4379L16.1329 34.4398Z" fill="#FAFAFA"/>
<path d="M16.1329 28.0648C17.8708 28.067 19.8188 28.7822 21.6543 29.514C23.5962 30.2883 25.5636 31.1487 27.6485 31.7465C29.7111 32.3378 31.7583 32.6275 33.7618 32.3012C35.7356 31.9795 37.774 31.0428 39.8145 29.0023C40.4003 28.4168 41.3499 28.4167 41.9356 29.0023C42.5212 29.5881 42.5211 30.5377 41.9356 31.1234C39.4766 33.5824 36.8734 34.8335 34.2422 35.2621C31.6408 35.6856 29.1166 35.2876 26.8204 34.6293C24.5463 33.9772 22.3645 33.0247 20.545 32.2992C18.6218 31.5324 17.1974 31.0629 16.125 31.0629H16.1153C13.1716 31.0456 10.3237 32.1142 8.11723 34.0629C7.49636 34.6106 6.54827 34.5526 6.00005 33.932C5.45176 33.3111 5.51199 32.3612 6.13286 31.8129C8.88999 29.3782 12.447 28.0452 16.125 28.0648H16.129L16.1348 28.0629L16.1329 28.0648Z" fill="#FAFAFA"/>
<path d="M39.8145 22.6273C40.4002 22.0419 41.3499 22.042 41.9356 22.6273C42.5211 23.2131 42.5211 24.1627 41.9356 24.7484C37.6242 29.0595 32.9855 29.5562 28.7598 28.7269C27.9475 28.567 27.417 27.7777 27.5762 26.9652C27.7359 26.1528 28.5255 25.6246 29.3379 25.7836C32.8122 26.4653 36.3603 26.0813 39.8145 22.6273Z" fill="#FAFAFA"/>
<path fill-rule="evenodd" clip-rule="evenodd" d="M25.4063 6.266C25.8323 5.82931 26.4819 5.69423 27.0469 5.9242C27.6113 6.15447 27.9805 6.70323 27.9805 7.31287V14.5453H30.8321C31.1606 14.546 31.4836 14.6217 31.7774 14.7621L32.0606 14.9242L32.3165 15.1254C32.4765 15.2722 32.6143 15.4422 32.7247 15.6293L32.8692 15.9222L32.8711 15.9281C33.032 16.3307 33.0735 16.7723 32.9883 17.1976C32.9057 17.6091 32.7048 17.9853 32.418 18.2894L32.4219 18.2933L23.1973 28.2543C22.778 28.7068 22.1233 28.8563 21.5489 28.6312C20.9745 28.4061 20.5961 27.8516 20.5957 27.2347V20.0883H17.1661C16.7284 20.0874 16.3001 19.9562 15.9375 19.7113C15.575 19.4663 15.2931 19.1187 15.129 18.7133L15.127 18.7074C14.966 18.3048 14.9249 17.863 15.0098 17.4379L15.0957 17.1273C15.204 16.8229 15.3777 16.5435 15.6055 16.3109L25.4063 6.266ZM19.0391 17.0883H22.0957C22.9239 17.0883 23.5953 17.7602 23.5957 18.5883V23.4066L29.0254 17.5453H26.4805C25.6524 17.5452 24.9809 16.8734 24.9805 16.0453V10.9984L19.0391 17.0883Z" fill="#FAFAFA"/>
<path d="M16.1348 21.6879C16.9627 21.6933 17.6298 22.3696 17.625 23.1976C17.6198 24.0257 16.9434 24.6927 16.1153 24.6879C13.1716 24.6706 10.3237 25.7391 8.11723 27.6879C7.49636 28.2356 6.54827 28.1776 6.00005 27.557C5.45171 26.9361 5.51197 25.9863 6.13286 25.4379C8.89222 23.0012 12.4536 21.666 16.1348 21.6879Z" fill="#FAFAFA"/>
</svg>
