<svg width="40" height="40" viewBox="0 0 40 40" fill="none" xmlns="http://www.w3.org/2000/svg">
<path fill-rule="evenodd" clip-rule="evenodd" d="M25.8546 5.71169C26.9936 4.57266 28.8404 4.57266 29.9794 5.7117L35.4675 11.1999C35.9557 11.688 35.9557 12.4795 35.4675 12.9676C34.9794 13.4558 34.1879 13.4558 33.6998 12.9676L29.167 8.43483V33.7504C29.167 34.4408 28.6073 35.0004 27.917 35.0004C27.2266 35.0004 26.667 34.4408 26.667 33.7504V8.43483L22.1342 12.9676C21.6461 13.4558 20.8546 13.4558 20.3664 12.9676C19.8783 12.4795 19.8783 11.688 20.3664 11.1999L25.8546 5.71169ZM12.0837 5.0004C12.774 5.0004 13.3337 5.56004 13.3337 6.2504V31.566L17.8664 27.0332C18.3546 26.545 19.1461 26.545 19.6342 27.0332C20.1224 27.5213 20.1224 28.3128 19.6342 28.8009L14.1461 34.2891C13.007 35.4281 11.1603 35.4281 10.0213 34.2891L4.53311 28.8009C4.04495 28.3128 4.04495 27.5213 4.53311 27.0332C5.02126 26.545 5.81272 26.545 6.30088 27.0332L10.8337 31.566V6.2504C10.8337 5.56004 11.3933 5.0004 12.0837 5.0004Z" fill="#FAFAFA"/>
</svg>
