<svg width="48" height="48" viewBox="0 0 48 48" fill="none" xmlns="http://www.w3.org/2000/svg">
<rect x="19.3076" y="9.01172" width="18.8749" height="27.4544" rx="0.714958" fill="#1C82DF" fill-opacity="0.19"/>
<path d="M6.17652 8.91133L25.3374 5.71785C25.7732 5.64522 26.1699 5.98128 26.1699 6.42308V38.9814C26.1699 39.4465 25.7328 39.7878 25.2815 39.675L6.12066 34.8848C5.80238 34.8052 5.5791 34.5192 5.5791 34.1912V9.61656C5.5791 9.26706 5.83178 8.96879 6.17652 8.91133Z" fill="#1C82DF"/>
<path d="M19.3076 15.2119C19.3076 14.9466 19.5227 14.7314 19.7881 14.7314H34.2703C34.5356 14.7314 34.7507 14.9466 34.7507 15.2119V17.1337C34.7507 17.399 34.5356 17.6142 34.2703 17.6142H19.7881C19.5227 17.6142 19.3076 17.399 19.3076 17.1337V15.2119Z" fill="#1C82DF" fill-opacity="0.5"/>
<path d="M19.3076 21.2976C19.3076 21.0323 19.5227 20.8171 19.7881 20.8171H34.2703C34.5356 20.8171 34.7507 21.0323 34.7507 21.2976V23.2194C34.7507 23.4847 34.5356 23.6999 34.2703 23.6999H19.7881C19.5227 23.6999 19.3076 23.4847 19.3076 23.2194V21.2976Z" fill="#1C82DF" fill-opacity="0.5"/>
<path d="M19.3076 27.3833C19.3076 27.118 19.5227 26.9028 19.7881 26.9028H34.2703C34.5356 26.9028 34.7507 27.118 34.7507 27.3833V29.3051C34.7507 29.5705 34.5356 29.7856 34.2703 29.7856H19.7881C19.5227 29.7856 19.3076 29.5705 19.3076 29.3051V27.3833Z" fill="#1C82DF" fill-opacity="0.5"/>
<path d="M21.9824 17.5908C22.2831 17.5908 22.5463 17.6856 22.7607 17.8779C22.9916 18.0767 23.1025 18.3469 23.1025 18.6699C23.1025 18.828 23.0716 18.9962 23.0127 19.1729L23.0107 19.1777L20.1582 26.9805C20.0627 27.2352 19.8916 27.4384 19.6523 27.584L19.6504 27.585C19.4233 27.7191 19.1711 27.7851 18.8975 27.7852C18.6236 27.7852 18.3708 27.7192 18.1436 27.585L18.1387 27.582C17.9091 27.4358 17.7451 27.2346 17.6504 26.9824L17.6494 26.9795L15.7549 21.626L13.8086 26.9824C13.7139 27.2348 13.5491 27.4358 13.3193 27.582L13.3145 27.585C13.0874 27.7191 12.8351 27.7851 12.5615 27.7852C12.2957 27.7852 12.0445 27.7182 11.8105 27.5859L11.8027 27.582C11.5732 27.4358 11.4091 27.2346 11.3145 26.9824L8.46094 19.1758C8.40123 19.0066 8.36915 18.8421 8.36914 18.6836C8.36914 18.3579 8.48673 18.0865 8.72754 17.8887C8.95839 17.6899 9.23337 17.5909 9.54395 17.5908C9.79257 17.5908 10.0201 17.6579 10.2207 17.7939C10.4355 17.9241 10.5886 18.119 10.6816 18.3672L10.6826 18.3701L12.6465 24.0195L14.6875 18.3945C14.78 18.1479 14.9279 17.9501 15.1318 17.8105L15.1348 17.8086C15.3413 17.6744 15.5632 17.6045 15.7979 17.6045C16.0403 17.6045 16.2637 17.6737 16.4639 17.8105C16.6695 17.9512 16.8163 18.155 16.9082 18.4102L16.9092 18.4121L18.8584 24.1191L20.8867 18.3672C20.9784 18.1226 21.1204 17.9285 21.3174 17.7969C21.5174 17.6603 21.7403 17.5909 21.9824 17.5908ZM21.0371 18.4229H21.0361H21.0371ZM8.54883 18.4824H8.54785H8.54883ZM15.6484 17.7754C15.5501 17.7903 15.4541 17.8206 15.3604 17.8652C15.3137 17.8875 15.2672 17.9137 15.2217 17.9434C15.1348 18.0028 15.0591 18.0746 14.9951 18.1592H14.9961C15.06 18.0748 15.135 18.0027 15.2217 17.9434C15.3587 17.8543 15.5011 17.7977 15.6484 17.7754ZM8.98926 17.8975H8.98828H8.98926ZM15.7979 17.7646C15.903 17.7646 16.0036 17.7799 16.0996 17.8096L15.9521 17.7754L15.7979 17.7646Z" fill="#FAFAFA"/>
</svg>
