<svg width="48" height="48" viewBox="0 0 48 48" fill="none" xmlns="http://www.w3.org/2000/svg">
<path fill-rule="evenodd" clip-rule="evenodd" d="M20.3418 15.4023C20.9696 14.6456 21.9822 14.3404 22.9121 14.5801L23.1113 14.6406L23.3066 14.7188C24.2601 15.1436 24.8833 16.1365 24.7598 17.2324L24.4961 19.5566L25.7559 19.8418C26.4317 19.9945 27.0258 20.4216 27.375 21.0312L27.5098 21.3047L27.6094 21.5938C27.7716 22.1801 27.707 22.8037 27.4316 23.3438L27.2773 23.6055L21.3086 32.4062C20.6477 33.3801 19.4045 33.7398 18.3359 33.3379C17.2527 32.9288 16.5517 31.8063 16.7676 30.6094L17.418 26.9902L16.3184 26.584C15.6242 26.3271 15.0611 25.7711 14.8203 25.0449C14.5781 24.313 14.7006 23.5182 15.1328 22.8945L20.2129 15.5723L20.3418 15.4023ZM18.0098 24.0098L19.6387 24.6133C20.3207 24.8652 20.7242 25.5696 20.5957 26.2852L20.1465 28.7715L24.3359 22.5957L22.5273 22.1875C21.7818 22.0187 21.2815 21.3164 21.3672 20.5566L21.5527 18.9023L18.0098 24.0098Z" fill="#FAFAFA"/>
<path fill-rule="evenodd" clip-rule="evenodd" d="M28.1074 7.00781C31.2773 7.16892 33.7988 9.79012 33.7988 13V15.3281H36.9336V10.5078C36.9336 9.67939 37.6052 9.00781 38.4336 9.00781C39.2616 9.00834 39.9336 9.67971 39.9336 10.5078V16.8281C39.9331 17.6558 39.2612 18.3276 38.4336 18.3281H33.7988V22.5586H40.4336C41.2616 22.5591 41.9336 23.2305 41.9336 24.0586C41.9336 24.8867 41.2616 25.5581 40.4336 25.5586H33.7988V29.791H38.4336C39.2616 29.7915 39.9336 30.4629 39.9336 31.291V37.6113C39.9331 38.439 39.2612 39.1108 38.4336 39.1113C37.6055 39.1113 36.9341 38.4393 36.9336 37.6113V32.791H33.7988V35C33.7988 38.2099 31.2773 40.8311 28.1074 40.9922L27.7988 41H13.7988C10.5886 41 7.96728 38.4789 7.80664 35.3086L7.79688 35V13C7.79688 9.68629 10.4851 7 13.7988 7H27.7988L28.1074 7.00781ZM13.7988 10C12.142 10 10.7988 11.3431 10.7988 13V35C10.7988 36.6569 12.142 38 13.7988 38H27.7988C29.4552 37.9995 30.7988 36.6565 30.7988 35V13C30.7988 11.3435 29.4552 10.0005 27.7988 10H13.7988Z" fill="#FAFAFA"/>
</svg>
