<svg width="48" height="48" viewBox="0 0 48 48" fill="none" xmlns="http://www.w3.org/2000/svg">
<path d="M28.4138 27.7919C29.4719 27.8998 30.298 28.7933 30.2986 29.8798C30.2985 31.0393 29.3584 31.9791 28.199 31.9794C27.0394 31.9792 26.0995 31.0394 26.0994 29.8798C26.1001 28.7207 27.0398 27.7804 28.199 27.7802L28.4138 27.7919Z" fill="#FAFAFA"/>
<path fill-rule="evenodd" clip-rule="evenodd" d="M26.6267 23.6493C28.8084 23.7853 30.9425 24.3807 32.8845 25.3993C35.104 26.5633 37.0085 28.2469 38.4373 30.3056C38.7935 30.8194 38.7953 31.5026 38.4392 32.0165C37.0107 34.076 35.1042 35.7604 32.8845 36.9247C30.6647 38.0889 28.194 38.6998 25.6873 38.704C21.9649 38.7039 19.3738 37.734 16.6775 35.6689C15.7956 34.9933 14.8911 34.1856 13.9177 33.2567C12.679 34.521 11.273 35.9815 9.58767 37.6669C9.00206 38.2524 8.05237 38.2521 7.46657 37.6669C6.88099 37.0811 6.88095 36.1315 7.46657 35.5458C9.07588 33.9365 10.4915 32.463 11.783 31.1474C10.4823 29.8331 9.03937 28.3488 7.38845 26.6982C6.8027 26.1125 6.803 25.1629 7.38845 24.5771C7.97404 23.9917 8.92376 23.99 9.50954 24.5751C11.2258 26.2911 12.6592 27.7665 13.9119 29.0341C14.7993 28.1843 15.6395 27.4307 16.4666 26.788C19.1647 24.6915 21.8457 23.6201 25.6853 23.62H25.6892L26.6267 23.6493ZM25.6834 26.62C22.5603 26.6204 20.5176 27.439 18.3064 29.1571C17.572 29.7279 16.8341 30.3872 16.0447 31.1415C16.9194 31.975 17.7175 32.6873 18.5017 33.288C20.6926 34.966 22.6448 35.7017 25.6834 35.7021C27.706 35.6986 29.6987 35.2078 31.49 34.2685C32.9624 33.4962 34.2594 32.4354 35.3162 31.161C34.2593 29.8873 32.962 28.8276 31.49 28.0556C29.6988 27.1162 27.706 26.6239 25.6834 26.62Z" fill="#FAFAFA"/>
<path d="M39.2146 22.9911C40.2727 23.099 41.0987 23.9926 41.0994 25.079C41.0993 26.2385 40.1592 27.1783 38.9998 27.1786C37.8402 27.1784 36.9003 26.2386 36.9002 25.079C36.9009 23.9199 37.8406 22.9796 38.9998 22.9794L39.2146 22.9911Z" fill="#FAFAFA"/>
<path d="M36.8201 15.7919C37.8784 15.8998 38.7047 16.7929 38.7049 17.8798C38.7047 19.0393 37.7647 19.9791 36.6052 19.9794C35.4453 19.9792 34.5058 19.0391 34.5056 17.8798C34.5058 16.7205 35.4454 15.7804 36.6052 15.7802L36.8201 15.7919Z" fill="#FAFAFA"/>
<path d="M34.7478 8.57901C35.1531 8.56521 35.5474 8.71769 35.8396 8.99894C36.6245 9.75476 37.5696 10.3263 38.6033 10.6708C39.6366 11.0151 40.7352 11.1249 41.8162 10.9911C42.6372 10.8903 43.3855 11.4731 43.4881 12.2939C43.5896 13.1156 43.005 13.8655 42.1834 13.9677C40.8497 14.1327 39.4979 14.0347 38.2049 13.6825L37.6541 13.5165C36.6496 13.1817 35.7073 12.692 34.8552 12.0732C34.2768 12.5325 33.6412 12.9219 32.9627 13.2235C31.8414 13.7217 30.6271 13.9792 29.4002 13.9794C28.1726 13.9794 26.9575 13.722 25.8357 13.2235C25.1784 12.9315 24.5636 12.5565 23.9998 12.1161C23.4361 12.5564 22.8209 12.9315 22.1638 13.2235C21.0422 13.722 19.8268 13.9793 18.5994 13.9794C17.3723 13.9794 16.1583 13.7217 15.0369 13.2235C14.3577 12.9217 13.7213 12.533 13.1424 12.0732C12.2908 12.6915 11.3491 13.1819 10.3455 13.5165C8.8884 14.0022 7.34048 14.1561 5.81618 13.9677C4.99407 13.8659 4.40981 13.116 4.51149 12.2939C4.61409 11.4728 5.36203 10.8898 6.18337 10.9911C7.2643 11.1248 8.36294 11.0151 9.39626 10.6708C10.4296 10.3262 11.3753 9.75463 12.1599 8.99894L12.2732 8.89933C12.55 8.68219 12.8969 8.56672 13.2517 8.57901C13.6569 8.59338 14.0403 8.77247 14.3123 9.07316C14.8536 9.67264 15.5156 10.1533 16.2537 10.4814C16.9918 10.8093 17.7917 10.9794 18.5994 10.9794C19.4071 10.9793 20.2071 10.8094 20.9451 10.4814C21.6832 10.1532 22.3453 9.67261 22.8865 9.07316L22.9978 8.96183C23.2715 8.71669 23.6287 8.57901 23.9998 8.57901C24.4236 8.57925 24.8289 8.75875 25.1131 9.07316C25.6544 9.67272 26.3161 10.1533 27.0545 10.4814C27.7926 10.8093 28.5923 10.9794 29.4002 10.9794C30.2078 10.9792 31.008 10.8093 31.7459 10.4814C32.4837 10.1532 33.1462 9.67247 33.6873 9.07316L33.7927 8.96573C34.0538 8.72989 34.393 8.59141 34.7478 8.57901Z" fill="#FAFAFA"/>
</svg>
