<svg width="48" height="48" viewBox="0 0 48 48" fill="none" xmlns="http://www.w3.org/2000/svg">
<path d="M5.5 36.0664C6.32835 36.0664 6.99987 36.7381 7 37.5664V41H10.7852C11.6135 41 12.285 41.6717 12.2852 42.5C12.285 43.3283 11.6135 44 10.7852 44H5.5C4.67166 44 4.00014 43.3283 4 42.5V37.5664C4.00013 36.7381 4.67165 36.0664 5.5 36.0664Z" fill="#FAFAFA"/>
<path d="M42.5 36.0664C43.3281 36.0667 43.9999 36.7383 44 37.5664V42.5C43.9999 43.3281 43.3281 43.9997 42.5 44H37.2148C36.3865 44 35.715 43.3283 35.7148 42.5C35.715 41.6717 36.3865 41 37.2148 41H41V37.5664C41.0001 36.7383 41.6719 36.0667 42.5 36.0664Z" fill="#FAFAFA"/>
<path d="M14 17.5C14.8284 17.5 15.5 18.1716 15.5 19V29C15.5 29.8284 14.8284 30.5 14 30.5C13.1716 30.5 12.5 29.8284 12.5 29V19C12.5 18.1716 13.1716 17.5 14 17.5Z" fill="#FAFAFA"/>
<path d="M29 27.5C29.8284 27.5001 30.5 28.1716 30.5 29C30.5 29.8284 29.8284 30.4999 29 30.5H19C18.1716 30.5 17.5 29.8284 17.5 29C17.5 28.1716 18.1716 27.5 19 27.5H29Z" fill="#FAFAFA"/>
<path d="M34 17.5C34.8282 17.5002 35.5 18.1717 35.5 19V29C35.5 29.8283 34.8282 30.4998 34 30.5C33.1716 30.5 32.5 29.8284 32.5 29V19C32.5 18.1716 33.1716 17.5 34 17.5Z" fill="#FAFAFA"/>
<path d="M19 17.5C19.8284 17.5001 20.5 18.1716 20.5 19V25C20.5 25.8284 19.8284 26.4999 19 26.5C18.1716 26.5 17.5 25.8284 17.5 25V19C17.5 18.1716 18.1716 17.5 19 17.5Z" fill="#FAFAFA"/>
<path d="M24 17.5C24.8283 17.5001 25.5 18.1717 25.5 19V25C25.5 25.8284 24.8283 26.4999 24 26.5C23.1716 26.5 22.5 25.8284 22.5 25V19C22.5 18.1716 23.1716 17.5 24 17.5Z" fill="#FAFAFA"/>
<path d="M29 17.5C29.8283 17.5002 30.5 18.1717 30.5 19V25C30.5 25.8283 29.8283 26.4998 29 26.5C28.1716 26.5 27.5 25.8284 27.5 25V19C27.5 18.1716 28.1716 17.5 29 17.5Z" fill="#FAFAFA"/>
<path fill-rule="evenodd" clip-rule="evenodd" d="M37.0195 12.502C37.0523 12.503 37.0943 12.5044 37.1426 12.5078C37.2384 12.5147 37.3653 12.528 37.5137 12.5527C37.8044 12.6012 38.2158 12.6997 38.6445 12.9141C39.0791 13.1314 39.5595 13.4828 39.9277 14.0352C40.3018 14.5966 40.4999 15.2776 40.5 16.0527V31.9766C40.4998 31.9887 40.4986 32.0032 40.498 32.0195C40.497 32.0523 40.4956 32.0943 40.4922 32.1426C40.4853 32.2384 40.472 32.3653 40.4473 32.5137C40.3988 32.8044 40.3003 33.2158 40.0859 33.6445C39.8686 34.0791 39.5172 34.5595 38.9648 34.9277C38.4034 35.3018 37.7224 35.4999 36.9473 35.5H11.0234C11.0113 35.4998 10.9968 35.4986 10.9805 35.498C10.9477 35.497 10.9057 35.4956 10.8574 35.4922C10.7616 35.4853 10.6347 35.472 10.4863 35.4473C10.1956 35.3988 9.78418 35.3003 9.35547 35.0859C8.92086 34.8686 8.4405 34.5172 8.07227 33.9648C7.69825 33.4034 7.5001 32.7224 7.5 31.9473V16.0234C7.5002 16.0113 7.50141 15.9968 7.50195 15.9805C7.50304 15.9477 7.50436 15.9057 7.50781 15.8574C7.51468 15.7616 7.52802 15.6347 7.55273 15.4863C7.60119 15.1956 7.69972 14.7842 7.91406 14.3555C8.13137 13.9209 8.4828 13.4405 9.03516 13.0723C9.59658 12.6983 10.2776 12.5001 11.0527 12.5H36.9766C36.9887 12.5002 37.0032 12.5014 37.0195 12.502ZM11.0527 15.5C10.8067 15.5001 10.7172 15.5564 10.6992 15.5684C10.6741 15.5851 10.637 15.6185 10.5977 15.6973C10.5555 15.7817 10.5274 15.8844 10.5117 15.9785C10.5045 16.0221 10.5012 16.056 10.5 16.0723V31.9473C10.5001 32.1933 10.5564 32.2828 10.5684 32.3008C10.5851 32.3259 10.6185 32.363 10.6973 32.4023C10.7817 32.4445 10.8844 32.4726 10.9785 32.4883C11.0221 32.4955 11.056 32.4988 11.0723 32.5H36.9473C37.1933 32.4999 37.2828 32.4436 37.3008 32.4316C37.3259 32.4149 37.363 32.3815 37.4023 32.3027C37.4445 32.2183 37.4726 32.1156 37.4883 32.0215C37.4955 31.9779 37.4988 31.944 37.5 31.9277V16.0527C37.4999 15.8067 37.4436 15.7172 37.4316 15.6992C37.4149 15.6741 37.3815 15.637 37.3027 15.5977C37.2183 15.5555 37.1156 15.5274 37.0215 15.5117C36.9779 15.5045 36.944 15.5012 36.9277 15.5H11.0527Z" fill="#FAFAFA"/>
<path d="M10.7852 4C11.6136 4 12.2852 4.67157 12.2852 5.5C12.2852 6.32843 11.6136 7 10.7852 7H7V10.4336L6.99219 10.5859C6.91572 11.3427 6.27691 11.9336 5.5 11.9336C4.72309 11.9336 4.08428 11.3427 4.00781 10.5859L4 10.4336V5.5L4.00781 5.3457C4.08506 4.58976 4.72367 4 5.5 4H10.7852Z" fill="#FAFAFA"/>
<path d="M42.5 4C43.3282 4.00026 44 4.67174 44 5.5V10.4336C43.9999 11.2617 43.3281 11.9333 42.5 11.9336C41.6719 11.9333 41.0001 11.2617 41 10.4336V7H37.2148C36.3864 7 35.7148 6.32843 35.7148 5.5C35.7148 4.67157 36.3864 4 37.2148 4H42.5Z" fill="#FAFAFA"/>
</svg>
