<svg width="48" height="48" viewBox="0 0 48 48" fill="none" xmlns="http://www.w3.org/2000/svg">
<path fill-rule="evenodd" clip-rule="evenodd" d="M36.3567 5.42584C37.0883 5.03766 37.9975 5.31546 38.386 6.04693C38.7733 6.77792 38.4952 7.68557 37.7649 8.07428L23.9153 15.4278L24.0657 15.6758C25.3146 17.4568 26.9317 18.9437 28.804 20.0372L29.6263 20.4844L29.6692 20.5059C29.9428 20.6549 30.1828 20.8592 30.3724 21.1036L30.5442 21.3614L30.679 21.6387C30.7949 21.9251 30.8515 22.234 30.8431 22.545C30.8314 22.9598 30.7045 23.3654 30.4778 23.7129C30.2512 24.06 29.9324 24.338 29.5579 24.5157L25.8977 26.2481H32.6048C33.3732 26.2475 34.1134 26.5418 34.6712 27.0704C35.1237 27.4994 35.4257 28.0574 35.5462 28.6622L37.4934 26.6954C38.076 26.1067 39.0257 26.1013 39.6145 26.6837C40.2027 27.2662 40.2084 28.216 39.6263 28.8047L35.9739 32.4942C36.4586 34.8854 37.4086 37.1701 38.7786 39.2149L38.7747 39.2169C38.9976 39.537 39.1379 39.9075 39.1731 40.2969C39.2107 40.7131 39.1315 41.1322 38.9446 41.5059C38.7577 41.8796 38.4699 42.1945 38.1145 42.4141C37.7595 42.6333 37.3501 42.75 36.9329 42.7501H10.2024C9.78479 42.7499 9.37412 42.6337 9.01884 42.4141C8.66387 42.1945 8.37745 41.8792 8.19071 41.5059C8.004 41.1323 7.92469 40.7129 7.9622 40.2969C7.99739 39.9083 8.13661 39.5385 8.35868 39.2188L8.35478 39.2169C10.3511 36.2301 11.4489 32.7325 11.5188 29.1407C11.5192 29.1245 11.52 29.108 11.5208 29.0919C11.5609 28.3238 11.8963 27.5996 12.4544 27.0704C13.0118 26.5423 13.751 26.2498 14.5188 26.2501L15.0911 26.2481C15.3521 24.2666 15.2277 22.2533 14.722 20.3145L13.7649 20.8243C13.0335 21.2125 12.1263 20.9343 11.7376 20.2032C11.3489 19.4716 11.6271 18.5645 12.3587 18.1758L13.6419 17.4922L13.4231 16.9473C13.2142 16.4236 13.2089 15.8376 13.4095 15.3106L13.4934 15.1172C13.71 14.6776 14.0672 14.3183 14.5091 14.0977L19.2688 11.7188C19.7124 11.4975 20.2155 11.4287 20.6985 11.5215L20.9036 11.5704L21.1028 11.6387C21.4948 11.794 21.8352 12.0572 22.0852 12.3965L22.2024 12.5723L22.3704 12.8536L36.3567 5.42584ZM14.5169 29.2481C14.4365 32.9507 13.4126 36.5629 11.554 39.7501H16.8099V35.2501C16.8099 34.4216 17.4814 33.7501 18.3099 33.7501C19.138 33.7504 19.8099 34.4219 19.8099 35.2501V39.7501H22.8099V35.2501C22.8099 34.4216 23.4814 33.7501 24.3099 33.7501C25.138 33.7504 25.8099 34.4219 25.8099 35.2501V39.7501H28.8099V35.2501C28.8099 34.4216 29.4814 33.7501 30.3099 33.7501C31.138 33.7504 31.8099 34.4219 31.8099 35.2501V39.7501H35.5794C33.7173 36.5641 32.6892 32.9515 32.6067 29.2481H19.304C19.289 29.2489 19.274 29.2478 19.2591 29.2481H16.3606C16.3463 29.2481 16.332 29.2485 16.3177 29.2481H14.5169ZM16.4642 16.4727L17.4544 18.9415L17.5032 19.0821C18.1776 21.4131 18.3736 23.8479 18.1087 26.2481H18.886L26.9583 22.4258C24.8404 21.127 23.0063 19.4045 21.5794 17.3575C21.5602 17.3299 21.542 17.3003 21.5247 17.2715L19.9856 14.711L16.4642 16.4727Z" fill="#FAFAFA"/>
</svg>
