<svg width="48" height="48" viewBox="0 0 48 48" fill="none" xmlns="http://www.w3.org/2000/svg">
<path d="M11.0098 4.87323C11.5799 4.37125 12.4499 4.37162 13.0195 4.89862C13.5891 5.42602 13.656 6.29342 13.1992 6.90057L13.1016 7.01972L12.7402 7.41229C12.4067 7.78533 12.1485 8.11056 11.9453 8.48847C11.6945 8.9553 11.5001 9.56467 11.5 10.5002C11.5 12.1575 12.1558 12.9181 13.1211 14.0041C14.1556 15.1679 15.4999 16.6581 15.5 19.5002C15.5 20.9038 15.1941 22.0059 14.6953 22.9338C14.2165 23.8239 13.5859 24.4966 13.1016 25.0197C12.5863 25.5762 12.2163 25.9845 11.9453 26.4885C11.6945 26.9553 11.5001 27.5647 11.5 28.5002C11.5 30.1575 12.1558 30.9181 13.1211 32.0041C14.0909 33.0951 15.3327 34.4731 15.4844 36.9826L15.5 37.5002C15.5 38.9038 15.1941 40.0059 14.6953 40.9338C14.3361 41.6016 13.8908 42.1465 13.4863 42.5978L13.1016 43.0197L12.9902 43.1271C12.42 43.6294 11.5502 43.629 10.9805 43.1017C10.411 42.5742 10.3438 41.7069 10.8008 41.0998L10.8984 40.9807L11.2598 40.5881C11.5933 40.215 11.8515 39.8899 12.0547 39.5119C12.3055 39.045 12.5 38.4357 12.5 37.5002L12.4922 37.1994C12.4165 35.7467 11.7838 35.0143 10.8789 33.9963C9.84437 32.8324 8.5 31.3423 8.5 28.5002C8.50006 27.0966 8.80582 25.9945 9.30469 25.0666C9.7835 24.1765 10.4141 23.5037 10.8984 22.9807C11.4137 22.4241 11.7837 22.0159 12.0547 21.5119C12.3055 21.045 12.5 20.4357 12.5 19.5002C12.4999 17.843 11.8442 17.0823 10.8789 15.9963C9.84437 14.8324 8.5 13.3423 8.5 10.5002C8.50006 9.09665 8.80582 7.99449 9.30469 7.06659C9.66389 6.39884 10.1092 5.85387 10.5137 5.40253L10.8984 4.98065L11.0098 4.87323Z" fill="#FAFAFA"/>
<path d="M23.0098 4.87323C23.5799 4.37125 24.4499 4.37162 25.0195 4.89862C25.5891 5.42602 25.656 6.29342 25.1992 6.90057L25.1016 7.01972L24.7402 7.41229C24.4067 7.78533 24.1485 8.11056 23.9453 8.48847C23.6945 8.9553 23.5001 9.56467 23.5 10.5002C23.5 12.1575 24.1558 12.9181 25.1211 14.0041C26.1556 15.1679 27.4999 16.6581 27.5 19.5002C27.5 20.9038 27.1941 22.0059 26.6953 22.9338C26.2165 23.8239 25.5859 24.4966 25.1016 25.0197C24.5863 25.5762 24.2163 25.9845 23.9453 26.4885C23.6945 26.9553 23.5001 27.5647 23.5 28.5002C23.5 30.1575 24.1558 30.9181 25.1211 32.0041C26.1556 33.1679 27.4999 34.6581 27.5 37.5002C27.5 38.9038 27.1941 40.0059 26.6953 40.9338C26.3361 41.6016 25.8908 42.1465 25.4863 42.5978L25.1016 43.0197L24.9902 43.1271C24.42 43.6294 23.5502 43.629 22.9805 43.1017C22.411 42.5742 22.3438 41.7069 22.8008 41.0998L22.8984 40.9807L23.2598 40.5881C23.5933 40.215 23.8515 39.8899 24.0547 39.5119C24.3055 39.045 24.5 38.4357 24.5 37.5002C24.4999 35.843 23.8442 35.0823 22.8789 33.9963C21.8444 32.8324 20.5 31.3423 20.5 28.5002C20.5001 27.0966 20.8058 25.9945 21.3047 25.0666C21.7835 24.1765 22.4141 23.5037 22.8984 22.9807C23.4137 22.4241 23.7837 22.0159 24.0547 21.5119C24.3055 21.045 24.5 20.4357 24.5 19.5002C24.4999 17.843 23.8442 17.0823 22.8789 15.9963C21.8444 14.8324 20.5 13.3423 20.5 10.5002C20.5001 9.09665 20.8058 7.99449 21.3047 7.06659C21.6639 6.39884 22.1092 5.85387 22.5137 5.40253L22.8984 4.98065L23.0098 4.87323Z" fill="#FAFAFA"/>
<path d="M35.0098 4.87323C35.5799 4.37125 36.4499 4.37162 37.0195 4.89862C37.5891 5.42602 37.656 6.29342 37.1992 6.90057L37.1016 7.01972L36.7402 7.41229C36.4067 7.78533 36.1485 8.11056 35.9453 8.48847C35.6945 8.95531 35.5001 9.56467 35.5 10.5002C35.5 12.1575 36.1558 12.9181 37.1211 14.0041C38.1556 15.1679 39.4999 16.6581 39.5 19.5002C39.5 20.9038 39.1941 22.0059 38.6953 22.9338C38.2165 23.8239 37.5859 24.4966 37.1016 25.0197C36.5863 25.5762 36.2163 25.9845 35.9453 26.4885C35.6945 26.9553 35.5001 27.5647 35.5 28.5002C35.5 30.1575 36.1558 30.9181 37.1211 32.0041C38.1556 33.1679 39.4999 34.6581 39.5 37.5002C39.5 38.9038 39.1941 40.0059 38.6953 40.9338C38.3361 41.6016 37.8908 42.1465 37.4863 42.5978L37.1016 43.0197L36.9902 43.1271C36.42 43.6294 35.5502 43.629 34.9805 43.1017C34.411 42.5742 34.3438 41.7069 34.8008 41.0998L34.8984 40.9807L35.2598 40.5881C35.5933 40.215 35.8515 39.8899 36.0547 39.5119C36.3055 39.045 36.5 38.4357 36.5 37.5002C36.4999 35.843 35.8442 35.0823 34.8789 33.9963C33.8444 32.8324 32.5 31.3423 32.5 28.5002C32.5001 27.0966 32.8058 25.9945 33.3047 25.0666C33.7835 24.1765 34.4141 23.5037 34.8984 22.9807C35.4137 22.4241 35.7837 22.0159 36.0547 21.5119C36.3055 21.045 36.5 20.4357 36.5 19.5002C36.4999 17.843 35.8442 17.0823 34.8789 15.9963C33.8444 14.8324 32.5 13.3423 32.5 10.5002C32.5001 9.09665 32.8058 7.99449 33.3047 7.06659C33.6639 6.39884 34.1092 5.85387 34.5137 5.40253L34.8984 4.98065L35.0098 4.87323Z" fill="#FAFAFA"/>
</svg>
