<svg width="48" height="48" viewBox="0 0 48 48" fill="none" xmlns="http://www.w3.org/2000/svg">
<path fill-rule="evenodd" clip-rule="evenodd" d="M21.4238 14.5312C21.8693 14.1074 22.5438 13.8857 23.2285 14.0586L23.5234 14.1582L23.582 14.1855C25.9951 15.3375 28.0344 17.1421 29.4629 19.3926C30.7888 21.3296 31.4996 23.6189 31.5 25.9629V25.9746C31.4683 30.0479 28.0852 32.867 24.3574 32.9961L23.9961 33C20.2767 32.9542 16.6699 30.1834 16.5254 26.1133L16.502 25.7383C16.4476 23.8746 17.371 22.1547 18.7324 21.043C19.1968 20.6288 19.8532 20.3285 20.6055 20.5059C21.2821 20.6661 21.6899 21.1407 21.8809 21.502C21.8885 21.5164 21.9019 21.5307 21.9102 21.5449C22.0855 20.8961 22.1198 20.1588 22.0078 19.3984L21.9473 19.0527C21.7868 18.2518 21.4951 17.4799 21.084 16.7695L21.0859 16.7676C20.5635 15.874 20.9622 14.9707 21.4238 14.5312ZM24.9746 18.9473V18.9531L25.0508 19.6523C25.1679 21.3159 24.8377 23.1799 23.6406 24.6699L23.6387 24.6719C23.4633 24.8892 23.243 25.0661 22.9941 25.1895C22.751 25.3098 22.4852 25.3757 22.2148 25.3867L22.2168 25.3887C22.2105 25.3888 22.2035 25.3865 22.1973 25.3867L22.1953 25.3887L22.1934 25.3867C21.9171 25.3957 21.6418 25.3466 21.3867 25.2402C21.1423 25.1379 20.9202 24.9835 20.7363 24.791L20.7344 24.7949C20.5317 24.5868 20.2776 24.3289 20.0195 24.0293C19.7053 24.4803 19.5233 24.9888 19.502 25.4883L19.5117 25.8145L19.5195 25.9355C19.5602 28.153 21.582 29.9697 24.0332 30L24.4883 29.9844C26.7355 29.8053 28.4775 28.1076 28.5 25.9629L28.4746 25.3125C28.3759 24.014 27.9836 22.7522 27.3262 21.623L26.9766 21.0703C26.9656 21.0544 26.9536 21.0358 26.9434 21.0195C26.3822 20.1313 25.6982 19.3301 24.918 18.6367L24.9746 18.9473Z" fill="#FAFAFA"/>
<path fill-rule="evenodd" clip-rule="evenodd" d="M30.2969 4.18945C33.2509 4.19044 35.6541 6.52093 35.7832 9.44336H38C40.2091 9.44336 42 11.2342 42 13.4434V39.4434C41.9995 41.6521 40.2088 43.4434 38 43.4434H10L9.5918 43.4219C7.57476 43.2174 6.00049 41.5142 6 39.4434V13.4434C6 11.2342 7.79086 9.44336 10 9.44336H12.2168C12.3459 6.52031 14.7502 4.18945 17.7051 4.18945H30.2969ZM33.6309 37.9316C31.4547 39.4817 29.433 39.5 28.8145 39.5C28.1963 39.5 26.1754 39.482 24 37.9336C21.8245 39.482 19.8036 39.5 19.1855 39.5C18.5668 39.5 16.5438 39.4826 14.3672 37.9316C12.5039 39.2417 10.6395 39.4548 9.00391 39.4902C9.02894 40.0203 9.4638 40.4434 10 40.4434H38C38.5362 40.4434 38.9691 40.0202 38.9941 39.4902C37.3584 39.4549 35.4939 39.242 33.6309 37.9316ZM10 12.4434C9.44772 12.4434 9 12.8911 9 13.4434V36.4863C10.6319 36.4444 11.9569 36.2141 13.3438 34.9082L13.5742 34.7285C14.1415 34.372 14.8951 34.4324 15.4004 34.9082C17.1123 36.5201 18.767 36.5 19.1855 36.5C19.6036 36.5 21.2602 36.5208 22.9727 34.9082L23.2031 34.7285C23.7703 34.3724 24.5222 34.4329 25.0273 34.9082C26.7398 36.5208 28.3963 36.5 28.8145 36.5C29.2328 36.5 30.8875 36.5202 32.5996 34.9082C33.1772 34.3643 34.0786 34.3643 34.6562 34.9082C36.0431 36.2141 37.3681 36.4444 39 36.4863V13.4434C39 12.8911 38.5523 12.4434 38 12.4434H10ZM17.7051 7.18945C16.4076 7.18945 15.3406 8.17833 15.2168 9.44336H32.7832C32.6593 8.17895 31.5935 7.19041 30.2969 7.18945H17.7051Z" fill="#FAFAFA"/>
</svg>
