<svg width="48" height="48" viewBox="0 0 48 48" fill="none" xmlns="http://www.w3.org/2000/svg">
<path fill-rule="evenodd" clip-rule="evenodd" d="M29.625 9.37305C30.5172 9.37305 31.3934 9.60278 32.1738 10.0332L39.6738 13.7969L39.7422 13.834C40.54 14.2885 41.2038 14.9468 41.666 15.7402C42.128 16.5338 42.3734 17.4372 42.375 18.3555V27.7656C42.3746 29.6348 41.3686 31.3585 39.7461 32.2891C39.722 32.3029 39.6967 32.3157 39.6719 32.3281L20.9219 41.7188L20.9199 41.7168C20.1403 42.146 19.2658 42.375 18.375 42.375C17.483 42.375 16.6065 42.1471 15.8262 41.7168L8.32617 37.9531C8.30236 37.9412 8.27899 37.9273 8.25586 37.9141C6.73359 37.0435 5.75363 35.4762 5.63672 33.7422L5.625 33.3926V23.9844L5.63672 23.6348C5.75336 21.9021 6.73295 20.3334 8.25391 19.4609L8.32812 19.4219L27.0781 10.0312C27.8582 9.60137 28.7334 9.37305 29.625 9.37305ZM8.625 33.3926L8.64453 33.6855C8.73408 34.3481 9.12393 34.9442 9.71875 35.2949L16.875 38.8867V27.7773L8.625 24.0273V33.3926ZM19.875 27.7578V38.8848L38.2656 29.6758C38.9558 29.2737 39.3746 28.5457 39.375 27.7656V18.4316L19.875 27.7578ZM29.625 12.375C29.2283 12.375 28.8386 12.479 28.4941 12.6758C28.4706 12.6892 28.4461 12.7027 28.4219 12.7148L10.6055 21.6328L18.3574 25.1562L37.4375 16.0312L30.8262 12.7129C30.8026 12.7011 30.7787 12.6888 30.7559 12.6758C30.4114 12.479 30.0217 12.375 29.625 12.375Z" fill="#FAFAFA"/>
</svg>
