<svg width="48" height="48" viewBox="0 0 48 48" fill="none" xmlns="http://www.w3.org/2000/svg">
<path fill-rule="evenodd" clip-rule="evenodd" d="M24.0371 8.00195C29.2588 8.00199 34.0438 8.63695 37.5723 9.69922C39.3268 10.2274 40.8563 10.8874 41.9805 11.6875C43.0633 12.4585 44.0739 13.5878 44.0742 15.0977C44.074 16.608 43.0637 17.7387 41.9805 18.5098C40.8563 19.3099 39.3269 19.9698 37.5723 20.498C34.4048 21.4516 30.2245 22.0551 25.625 22.1699L25.6426 31.2246L35.668 39.2969C36.3157 39.8184 36.4236 40.7728 35.9082 41.4277C35.392 42.0823 34.4466 42.1915 33.7988 41.6699L24.1367 33.8887L14.2988 41.6777C13.6467 42.193 12.7039 42.0768 12.1934 41.418C11.6829 40.7587 11.7991 39.8053 12.4512 39.2891L22.6426 31.2168L22.625 22.1738C17.9564 22.0703 13.7097 21.4636 10.502 20.498C8.74758 19.9699 7.21789 19.3098 6.09375 18.5098C5.01049 17.7387 4.00022 16.608 4 15.0977C4.00029 13.5875 5.01065 12.4585 6.09375 11.6875C7.21791 10.8873 8.74739 10.2275 10.502 9.69922C14.0304 8.63705 18.8156 8.00195 24.0371 8.00195ZM24.0371 11.0332C19.0215 11.0332 14.5378 11.648 11.3574 12.6055C9.75805 13.087 8.57213 13.6291 7.82031 14.1641C7.03296 14.7245 7.0004 15.0634 7 15.0977C7.0003 15.131 7.03225 15.4682 7.82031 16.0293C8.57213 16.5644 9.75757 17.1101 11.3574 17.5918C14.5378 18.5492 19.0216 19.1641 24.0371 19.1641C29.0519 19.164 33.5346 18.5491 36.7148 17.5918C38.3143 17.1103 39.5001 16.5643 40.252 16.0293C41.0402 15.4681 41.0739 15.131 41.0742 15.0977C41.0738 15.0634 41.0393 14.7245 40.252 14.1641C39.5001 13.6292 38.3138 13.0869 36.7148 12.6055C33.5346 11.6482 29.0521 11.0332 24.0371 11.0332Z" fill="#FAFAFA"/>
</svg>
