<svg width="48" height="48" viewBox="0 0 48 48" fill="none" xmlns="http://www.w3.org/2000/svg">
<path d="M11.4785 31.8828C12.2189 31.5132 13.1196 31.8128 13.4902 32.5527C14.1716 33.9149 14.3629 35.1028 14.0898 36.1953C13.8386 37.1994 13.2117 37.9407 12.918 38.3301C12.5643 38.7991 12.5232 38.9384 12.5195 39.0645C12.5154 39.2104 12.5708 39.6859 13.3496 40.7246C13.8462 41.3872 13.7109 42.3272 13.0488 42.8242C12.386 43.3212 11.4462 43.1862 10.9492 42.5234C10.0074 41.2671 9.48904 40.1195 9.52148 38.9785C9.55486 37.8182 10.1601 37.0052 10.5234 36.5234C10.9469 35.9619 11.1087 35.7505 11.1797 35.4668C11.2286 35.2704 11.2741 34.8312 10.8066 33.8965C10.4361 33.1556 10.7376 32.2534 11.4785 31.8828Z" fill="#FAFAFA"/>
<path d="M19.5684 31.8828C20.3088 31.5132 21.2094 31.8128 21.5801 32.5527C22.2614 33.9149 22.4527 35.1028 22.1797 36.1953C21.9285 37.1994 21.3015 37.9407 21.0078 38.3301C20.6541 38.7991 20.6131 38.9384 20.6094 39.0645C20.6052 39.2104 20.6607 39.6859 21.4395 40.7246C21.9361 41.3872 21.8008 42.3272 21.1387 42.8242C20.4759 43.3212 19.536 43.1862 19.0391 42.5234C18.0972 41.2671 17.5789 40.1195 17.6113 38.9785C17.6447 37.8182 18.25 37.0052 18.6133 36.5234C19.0367 35.9619 19.1986 35.7505 19.2695 35.4668C19.3185 35.2704 19.364 34.8312 18.8965 33.8965C18.5259 33.1556 18.8275 32.2534 19.5684 31.8828Z" fill="#FAFAFA"/>
<path d="M27.6602 31.8828C28.4006 31.5132 29.3012 31.8128 29.6719 32.5527C30.3532 33.9149 30.5445 35.1028 30.2715 36.1953C30.0203 37.1994 29.3933 37.9407 29.0996 38.3301C28.7459 38.7991 28.7048 38.9384 28.7012 39.0645C28.697 39.2104 28.7525 39.6859 29.5312 40.7246C30.0279 41.3872 29.8926 42.3272 29.2305 42.8242C28.5677 43.3212 27.6278 43.1862 27.1309 42.5234C26.189 41.2671 25.6707 40.1195 25.7031 38.9785C25.7365 37.8182 26.3418 37.0052 26.7051 36.5234C27.1285 35.9619 27.2904 35.7505 27.3613 35.4668C27.4103 35.2704 27.4557 34.8312 26.9883 33.8965C26.6177 33.1556 26.9193 32.2534 27.6602 31.8828Z" fill="#FAFAFA"/>
<path d="M35.75 31.8828C36.4904 31.5132 37.3911 31.8128 37.7617 32.5527C38.4431 33.9149 38.6343 35.1028 38.3613 36.1953C38.1101 37.1994 37.4832 37.9407 37.1895 38.3301C36.8358 38.7991 36.7947 38.9384 36.791 39.0645C36.7869 39.2104 36.8423 39.6859 37.6211 40.7246C38.1177 41.3872 37.9824 42.3272 37.3203 42.8242C36.6575 43.3212 35.7177 43.1862 35.2207 42.5234C34.2789 41.2671 33.7605 40.1195 33.793 38.9785C33.8263 37.8182 34.4316 37.0052 34.7949 36.5234C35.2184 35.9619 35.3802 35.7505 35.4512 35.4668C35.5001 35.2704 35.5456 34.8312 35.0781 33.8965C34.7076 33.1556 35.0091 32.2534 35.75 31.8828Z" fill="#FAFAFA"/>
<path fill-rule="evenodd" clip-rule="evenodd" d="M21.6367 6.80273C22.216 6.79956 22.7796 6.97571 23.25 7.30664L23.4473 7.45898L23.6309 7.62891C23.98 7.98361 24.2279 8.42673 24.3477 8.91016L24.3984 9.16406C24.9166 12.6617 25.7113 16.1137 26.7734 19.4863C27.8562 22.5306 29.3219 25.4233 31.1289 28.0996H39.1504C38.1728 26.4144 37.3474 24.6428 36.6953 22.8027C36.6895 22.7862 36.6849 22.7686 36.6797 22.752C35.8808 20.2168 35.2738 17.6254 34.8613 15H30.6875C30.5302 16.0011 30.3506 16.9983 30.1367 17.9883C29.9617 18.7978 29.163 19.3133 28.3535 19.1387C27.5444 18.9634 27.0284 18.1648 27.2031 17.3555C27.4362 16.2769 27.635 15.1901 27.7969 14.0977V14.0879C27.8876 13.502 28.1881 12.9675 28.6406 12.584L28.8145 12.4492C29.2313 12.1556 29.7316 12 30.2441 12.002L35.3066 12C35.8199 11.9975 36.3194 12.1561 36.7363 12.4492L36.9121 12.584L37.0742 12.7344C37.4362 13.1016 37.6744 13.5749 37.7539 14.0879L37.7559 14.0977C38.144 16.7177 38.7383 19.3035 39.5332 21.8301C40.3584 24.1506 41.484 26.3522 42.873 28.3848C43.2513 28.657 43.4998 29.098 43.5 29.5996C43.5 30.428 42.8284 31.0996 42 31.0996H6C5.17157 31.0996 4.5 30.428 4.5 29.5996C4.50019 29.0122 4.84006 28.5077 5.33203 28.2617C7.19779 25.5291 8.70845 22.5692 9.81445 19.4492C10.8707 16.0885 11.6614 12.6489 12.1777 9.16406V9.1543C12.2798 8.49371 12.6171 7.89119 13.127 7.45898L13.3242 7.30664C13.7946 6.97556 14.3584 6.79964 14.9375 6.80273L21.6367 6.79883V6.80273ZM15.1133 9.80078C14.5708 13.3917 13.7518 16.9364 12.6602 20.4004C12.6549 20.417 12.6484 20.4348 12.6426 20.4512C11.6964 23.1203 10.4789 25.683 9.01172 28.0996H27.5605C26.0936 25.6832 24.8777 23.12 23.9316 20.4512C23.9259 20.4349 23.9212 20.4169 23.916 20.4004C22.8244 16.9364 22.0034 13.3918 21.4609 9.80078H15.1133Z" fill="#FAFAFA"/>
</svg>
