<svg width="48" height="48" viewBox="0 0 48 48" fill="none" xmlns="http://www.w3.org/2000/svg">
<path d="M27.6 6H20.4C19.0745 6 18 7.43269 18 9.2V10.8C18 12.5673 19.0745 14 20.4 14H27.6C28.9255 14 30 12.5673 30 10.8V9.2C30 7.43269 28.9255 6 27.6 6Z" fill="#FAFAFA"/>
<path d="M15 10V10.8008C15.0002 12.2705 15.4431 13.7171 16.3027 14.8633C17.1633 16.0105 18.5818 17 20.4004 17H27.5996C29.4182 17 30.8367 16.0105 31.6973 14.8633C32.5569 13.7171 32.9998 12.2705 33 10.8008V10H35.333C36.0402 10 36.7188 10.2812 37.2188 10.7812C37.7187 11.2814 38 11.9597 38 12.667V39.333C38 40.0402 37.7188 40.7188 37.2188 41.2188C36.7188 41.7188 36.0402 42 35.333 42H12.667C11.9597 42 11.2814 41.7187 10.7812 41.2188C10.2812 40.7188 10 40.0402 10 39.333V12.667C10 11.9597 10.2812 11.2814 10.7812 10.7812C11.2814 10.2812 11.9597 10 12.667 10H15Z" fill="#FAFAFA"/>
<path d="M30 10V10.8L29.9883 11.127C29.8655 12.7407 28.8427 14 27.6 14H20.4L20.1543 13.9844C19.0248 13.8313 18.1263 12.633 18.0117 11.127L18 10.8V10H30Z" fill="#FAFAFA"/>
<path d="M24 21.7695C24.8283 21.7695 25.4999 22.4412 25.5 23.2695V26.2695H28.5C29.3283 26.2695 29.9999 26.9412 30 27.7695C30 28.598 29.3284 29.2695 28.5 29.2695H25.5V32.2695C25.5 33.098 24.8284 33.7695 24 33.7695C23.1716 33.7695 22.5 33.098 22.5 32.2695V29.2695H19.5C18.6716 29.2695 18 28.598 18 27.7695C18.0001 26.9412 18.6717 26.2695 19.5 26.2695H22.5V23.2695C22.5001 22.4412 23.1717 21.7695 24 21.7695Z" fill="#131313"/>
</svg>
