<svg width="48" height="48" viewBox="0 0 48 48" fill="none" xmlns="http://www.w3.org/2000/svg">
<path d="M36.9004 4C38.6122 4.00021 39.9998 5.38784 40 7.09961V40.9004C40 40.9338 39.9952 40.9669 39.9941 41H42.5C43.3284 41 44 41.6716 44 42.5C44 43.3284 43.3284 44 42.5 44H5.5C4.67157 44 4 43.3284 4 42.5C4 41.6716 4.67157 41 5.5 41H8.00586C8.00481 40.9669 8 40.9338 8 40.9004V7.09961C8.00021 5.38784 9.38784 4.00021 11.0996 4H36.9004ZM11.0996 7C11.0447 7.00021 11.0002 7.04469 11 7.09961V40.9004C11.0002 40.9553 11.0447 40.9998 11.0996 41H36.9004C36.9553 40.9998 36.9998 40.9553 37 40.9004V7.09961C36.9998 7.04469 36.9553 7.00021 36.9004 7H11.0996ZM22.5 38H14V25.5H22.5V38ZM34 38H25.5V25.5H34V38ZM22.5 22.5H14V11.5117C14 10.6827 14.6719 10.0098 15.502 10.0098H22.5V22.5ZM32.498 10.0098C33.3263 10.0098 34 10.681 34 11.5117V22.5H25.5V10.0098H32.498Z" fill="#FAFAFA"/>
</svg>
