<svg width="48" height="48" viewBox="0 0 48 48" fill="none" xmlns="http://www.w3.org/2000/svg">
<path d="M30.7402 17.9434V20.7617C30.7408 21.5896 31.4123 22.2616 32.2402 22.2617H35.0586V25.7402H32.2402C31.412 25.7404 30.7404 26.412 30.7402 27.2402V30.0586H27.2617V27.2402C27.2616 26.4123 26.5896 25.7408 25.7617 25.7402H22.9434V22.2617H25.7617C26.5894 22.2612 27.2612 21.5894 27.2617 20.7617V17.9434H30.7402Z" fill="#FAFAFA"/>
<path fill-rule="evenodd" clip-rule="evenodd" d="M6.73438 4C7.56235 4.00053 8.23438 4.6719 8.23438 5.5V13.8672H14.002V13C14.002 10.7909 15.7928 9 18.002 9H40.002C42.2102 9.00106 44.002 10.7915 44.002 13V35C44.002 37.0706 42.4266 38.7731 40.4102 38.9785L40.002 39H18.002L17.5938 38.9785C15.7107 38.7876 14.2144 37.2912 14.0234 35.4082L14.002 35V34.1328H8.23438V42.5C8.23438 43.3281 7.56235 43.9995 6.73438 44C5.90595 44 5.23242 43.3284 5.23242 42.5V5.5C5.23242 4.67157 5.90595 4 6.73438 4ZM26.8418 14.9434C26.158 14.9434 25.5014 15.2155 25.0176 15.6992C24.5341 16.183 24.2617 16.8398 24.2617 17.5234V19.2617H22.5234C21.8396 19.2617 21.1829 19.5343 20.6992 20.0176C20.2156 20.5013 19.9434 21.158 19.9434 21.8418V26.1602C19.9436 26.8437 20.2156 27.5008 20.6992 27.9844C21.183 28.4678 21.8398 28.7402 22.5234 28.7402H24.2617V30.4805C24.2622 31.1633 24.5343 31.8193 25.0176 32.3027C25.5014 32.7864 26.1583 33.0586 26.8418 33.0586H31.1602C31.8431 33.0583 32.5008 32.7878 32.9844 32.3047C33.468 31.8212 33.7398 31.1636 33.7402 30.4805V28.7402H35.4805C36.1636 28.7398 36.8212 28.468 37.3047 27.9844C37.7878 27.5008 38.0583 26.8431 38.0586 26.1602V21.8418C38.0586 21.1583 37.7883 20.5014 37.3047 20.0176C36.8212 19.534 36.1639 19.2622 35.4805 19.2617H33.7402V17.5234C33.7402 16.8398 33.4678 16.183 32.9844 15.6992C32.5008 15.2156 31.8437 14.9436 31.1602 14.9434H26.8418ZM8.23438 31.1328H14.002V16.8672H8.23438V31.1328Z" fill="#FAFAFA"/>
</svg>
