<svg width="48" height="48" viewBox="0 0 48 48" fill="none" xmlns="http://www.w3.org/2000/svg">
<path d="M40 8C42.2091 8 44 9.79086 44 12V36C44 38.2091 42.2091 40 40 40H8L7.5918 39.9785C5.57445 39.774 4 38.0713 4 36V12C4 9.79086 5.79086 8 8 8H40ZM12.3984 28.502C11.2941 28.5022 10.3984 29.3975 10.3984 30.502C10.3994 31.6055 11.2947 32.5017 12.3984 32.502C13.5024 32.502 14.3975 31.6057 14.3984 30.502C14.3984 29.3974 13.503 28.502 12.3984 28.502ZM28.6201 29.25C27.7917 29.25 27.1201 29.9216 27.1201 30.75V30.7695C27.1208 31.5974 27.7921 32.2695 28.6201 32.2695L28.6221 32.2686L28.625 32.2695C29.453 32.2695 30.1243 31.5974 30.125 30.7695V30.75C30.125 29.9216 29.4534 29.25 28.625 29.25H28.6201ZM23.25 27.5C22.4216 27.5 21.75 28.1716 21.75 29V29.0195C21.7507 29.8474 22.422 30.5195 23.25 30.5195C24.078 30.5195 24.7493 29.8474 24.75 29.0195V29C24.75 28.1716 24.0784 27.5 23.25 27.5ZM33.9951 27.5C33.1667 27.5 32.4951 28.1716 32.4951 29V29.0195C32.4958 29.8474 33.1671 30.5195 33.9951 30.5195C34.8231 30.5195 35.4944 29.8474 35.4951 29.0195V29C35.4951 28.1716 34.8235 27.5 33.9951 27.5ZM28.6182 20.125C27.6924 20.1268 26.8052 20.4956 26.1504 21.1504C25.5762 21.7247 25.2221 22.4781 25.1426 23.2793L25.125 23.625C25.1251 24.5531 25.4941 25.4433 26.1504 26.0996C26.8047 26.7538 27.6912 27.1217 28.6162 27.124L28.6201 27.125L28.6221 27.124L28.625 27.125L28.6279 27.124C29.5533 27.122 30.4402 26.754 31.0947 26.0996C31.751 25.4433 32.12 24.5531 32.1201 23.625L32.1025 23.2793C32.023 22.4781 31.669 21.7247 31.0947 21.1504C30.4397 20.4954 29.5521 20.1265 28.626 20.125H28.6182ZM12.3984 15.5C11.57 15.5 10.8984 16.1716 10.8984 17V25C10.899 25.828 11.5703 26.5 12.3984 26.5C13.2265 26.5 13.8979 25.828 13.8984 25V17C13.8984 16.1716 13.2269 15.5 12.3984 15.5ZM21.5 22.125C20.6716 22.125 20 22.7966 20 23.625V23.6445C20.0007 24.4724 20.672 25.1445 21.5 25.1445C22.328 25.1445 22.9993 24.4724 23 23.6445V23.625C23 22.7966 22.3284 22.125 21.5 22.125ZM35.7451 22.125C34.9167 22.125 34.2451 22.7966 34.2451 23.625V23.6445C34.2458 24.4724 34.9171 25.1445 35.7451 25.1445C36.5731 25.1445 37.2444 24.4724 37.2451 23.6445V23.625C37.2451 22.7966 36.5735 22.125 35.7451 22.125ZM23.25 16.75C22.4216 16.75 21.75 17.4216 21.75 18.25V18.2695C21.7507 19.0974 22.422 19.7695 23.25 19.7695C24.078 19.7695 24.7493 19.0974 24.75 18.2695V18.25C24.75 17.4216 24.0784 16.75 23.25 16.75ZM33.9951 16.75C33.1667 16.75 32.4951 17.4216 32.4951 18.25V18.2695C32.4958 19.0974 33.1671 19.7695 33.9951 19.7695C34.8231 19.7695 35.4944 19.0974 35.4951 18.2695V18.25C35.4951 17.4216 34.8235 16.75 33.9951 16.75ZM28.6201 15C27.7917 15 27.1201 15.6716 27.1201 16.5V16.5195C27.1208 17.3474 27.7921 18.0195 28.6201 18.0195L28.6221 18.0186L28.625 18.0195C29.453 18.0195 30.1243 17.3474 30.125 16.5195V16.5C30.125 15.6716 29.4534 15 28.625 15H28.6201Z" fill="#FAFAFA"/>
</svg>
