<svg width="48" height="48" viewBox="0 0 48 48" fill="none" xmlns="http://www.w3.org/2000/svg">
<path d="M41 24C41 14.6112 33.3888 7 24 7C14.6112 7 7 14.6112 7 24C7 33.3888 14.6112 41 24 41V44C12.9543 44 4 35.0457 4 24C4 12.9543 12.9543 4 24 4C35.0457 4 44 12.9543 44 24C44 35.0457 35.0457 44 24 44V41C33.3888 41 41 33.3888 41 24Z" fill="#FAFAFA"/>
<path d="M4 24C4 12.9543 12.9543 4 24 4C35.0457 4 44 12.9543 44 24C44 35.0457 35.0457 44 24 44C12.9543 44 4 35.0457 4 24Z" fill="#FAFAFA"/>
<path fill-rule="evenodd" clip-rule="evenodd" d="M14 20.5C14 20.1022 14.158 19.7206 14.4393 19.4393C14.7206 19.158 15.1022 19 15.5 19H32.5C32.8978 19 33.2794 19.158 33.5607 19.4393C33.842 19.7206 34 20.1022 34 20.5C34 20.8978 33.842 21.2794 33.5607 21.5607C33.2794 21.842 32.8978 22 32.5 22H15.5C15.1022 22 14.7206 21.842 14.4393 21.5607C14.158 21.2794 14 20.8978 14 20.5Z" fill="#131313"/>
<path fill-rule="evenodd" clip-rule="evenodd" d="M14 27.5C14 27.1022 14.158 26.7206 14.4393 26.4393C14.7206 26.158 15.1022 26 15.5 26H32.5C32.8978 26 33.2794 26.158 33.5607 26.4393C33.842 26.7206 34 27.1022 34 27.5C34 27.8978 33.842 28.2794 33.5607 28.5607C33.2794 28.842 32.8978 29 32.5 29H15.5C15.1022 29 14.7206 28.842 14.4393 28.5607C14.158 28.2794 14 27.8978 14 27.5Z" fill="#131313"/>
</svg>
