<svg width="48" height="48" viewBox="0 0 48 48" fill="none" xmlns="http://www.w3.org/2000/svg">
<path fill-rule="evenodd" clip-rule="evenodd" d="M33.334 16C34.5713 16.0002 35.7578 16.4863 36.6328 17.3516C37.5079 18.2171 38 19.3912 38 20.6152V31.3848C38 32.6088 37.5079 33.7829 36.6328 34.6484C35.7578 35.5137 34.5713 35.9998 33.334 36H14.666C13.4287 35.9998 12.2422 35.5136 11.3672 34.6484C10.4921 33.7829 10 32.6088 10 31.3848V20.6152C10 19.3912 10.4921 18.2171 11.3672 17.3516C12.2422 16.4864 13.4287 16.0002 14.666 16H33.334ZM24 24.5C23.1716 24.5 22.5 25.1716 22.5 26V29C22.5 29.8284 23.1716 30.5 24 30.5C24.8284 30.5 25.5 29.8284 25.5 29V26C25.5 25.1716 24.8284 24.5 24 24.5Z" fill="#FAFAFA"/>
<path d="M28.5 16V11.7148C28.5 10.6216 28.0452 9.55633 27.209 8.75977C26.475 8.06076 25.5 7.62071 24.4531 7.52148L24 7.5C22.7836 7.5 21.6299 7.96079 20.791 8.75977C19.9548 9.55633 19.5 10.6216 19.5 11.7148V16C19.5 16.8284 18.8284 17.5 18 17.5C17.1716 17.5 16.5 16.8284 16.5 16V11.7148C16.5 9.77738 17.3089 7.93453 18.7227 6.58789C20.1342 5.24359 22.0338 4.5 24 4.5L24.3672 4.50781C26.2013 4.59425 27.9539 5.32747 29.2773 6.58789C30.6911 7.93453 31.5 9.77738 31.5 11.7148V16C31.5 16.8284 30.8284 17.5 30 17.5C29.1716 17.5 28.5 16.8284 28.5 16Z" fill="#FAFAFA"/>
<path d="M22.5 35C22.5 34.1716 23.1716 33.5 24 33.5C24.8284 33.5 25.5 34.1716 25.5 35V40.5H38C38.8284 40.5 39.5 41.1716 39.5 42C39.5 42.8284 38.8284 43.5 38 43.5H10C9.17157 43.5 8.5 42.8284 8.5 42C8.5 41.1716 9.17157 40.5 10 40.5H22.5V35Z" fill="#FAFAFA"/>
</svg>
