<svg width="48" height="48" viewBox="0 0 48 48" fill="none" xmlns="http://www.w3.org/2000/svg">
<path d="M30.5547 29.9602C30.2764 30.0612 30.0572 30.2803 29.956 30.5585L25.4347 42.9931C25.3254 43.2875 25.1286 43.5415 24.8708 43.7208C24.6129 43.9001 24.3064 43.9962 23.9923 43.9962C23.6782 43.9962 23.3717 43.9001 23.1139 43.7208C22.856 43.5415 22.6592 43.2875 22.5499 42.9931L18.0361 30.5585C17.9351 30.2803 17.716 30.0611 17.4378 29.9599L5.00314 25.4386C4.7087 25.3293 4.45476 25.1325 4.27544 24.8747C4.09612 24.6168 4 24.3103 4 23.9962C4 23.6821 4.09612 23.3756 4.27544 23.1178C4.45476 22.8599 4.7087 22.6631 5.00314 22.5539L17.4377 18.04C17.7159 17.939 17.9351 17.7199 18.0363 17.4417L22.5576 5.00704C22.6669 4.71261 22.8637 4.45867 23.1216 4.27935C23.3794 4.10002 23.6859 4.00391 24 4.00391C24.3141 4.00391 24.6206 4.10002 24.8785 4.27935C25.1363 4.45867 25.3331 4.71261 25.4424 5.00704L29.9638 17.442C30.0649 17.72 30.2839 17.939 30.5619 18.0401L42.9969 22.5615C43.2913 22.6708 43.5452 22.8676 43.7246 23.1255C43.9039 23.3833 44 23.6898 44 24.0039C44 24.318 43.9039 24.6245 43.7246 24.8824C43.5452 25.1402 43.2913 25.337 42.9969 25.4463L30.5547 29.9602Z" fill="#FAFAFA"/>
</svg>
