<svg width="48" height="48" viewBox="0 0 48 48" fill="none" xmlns="http://www.w3.org/2000/svg">
<path d="M13.291 10.0098C13.5892 9.97443 13.8904 10.0373 14.1504 10.1875C14.4104 10.3379 14.6162 10.5676 14.7344 10.8438L18.4082 19.0527C18.4985 19.2636 18.5357 19.4942 18.5156 19.7227C18.4956 19.9511 18.4205 20.1714 18.2949 20.3633L14.5781 24.7812C14.4463 24.9802 14.368 25.2111 14.3516 25.4492C14.3351 25.6872 14.3812 25.9255 14.4844 26.1406C15.9226 29.0847 18.9652 32.0911 21.918 33.5156C22.1343 33.6184 22.3745 33.6645 22.6133 33.6465C22.8521 33.6285 23.0828 33.5481 23.2813 33.4141L27.6328 29.7109C27.8255 29.5827 28.0488 29.5053 28.2793 29.4844C28.5095 29.4636 28.7408 29.5006 28.9531 29.5918L37.1563 33.2656C37.4324 33.3838 37.6621 33.5896 37.8125 33.8496C37.9628 34.1096 38.0256 34.4108 37.9902 34.709C37.72 36.7282 36.725 38.5808 35.1914 39.9219C33.6578 41.2628 31.6895 42.0016 29.6523 42C23.3794 41.9999 17.3634 39.5079 12.9277 35.0723C8.49208 30.6366 6.0001 24.6206 6 18.3477C5.99844 16.3105 6.73723 14.3422 8.07813 12.8086C9.41917 11.275 11.2718 10.28 13.291 10.0098Z" fill="white"/>
<path d="M34.7148 6C35.2671 6 35.7148 6.44772 35.7148 7V10.209L38.4082 8.62109C38.8897 8.33723 39.5115 8.50393 39.7871 8.99023L41.5156 12.041C41.784 12.5156 41.6221 13.1176 41.1523 13.3945L38.4297 15L41.1523 16.6055C41.6221 16.8824 41.784 17.4844 41.5156 17.959L39.7871 21.0098C39.5115 21.4961 38.8897 21.6628 38.4082 21.3789L35.7148 19.791V23C35.7148 23.5523 35.2671 24 34.7148 24H31.2852C30.7329 24 30.2852 23.5523 30.2852 23V19.791L27.5918 21.3789C27.1103 21.6628 26.4885 21.4961 26.2129 21.0098L24.4844 17.959C24.216 17.4844 24.3779 16.8824 24.8477 16.6055L27.5703 15L24.8477 13.3945C24.3779 13.1176 24.216 12.5156 24.4844 12.041L26.2129 8.99023C26.4885 8.50392 27.1103 8.33723 27.5918 8.62109L30.2852 10.209V7C30.2852 6.44772 30.7329 6 31.2852 6H34.7148Z" fill="white"/>
</svg>
