<svg width="48" height="48" viewBox="0 0 48 48" fill="none" xmlns="http://www.w3.org/2000/svg">
<path d="M24.0001 35.4545L34.2601 41.7639C34.5263 41.9255 34.8344 42.0045 35.1455 41.991C35.4567 41.9776 35.7568 41.8722 36.008 41.6882C36.2593 41.5041 36.4503 41.2498 36.557 40.9572C36.6638 40.6647 36.6813 40.347 36.6076 40.0445L33.8176 28.2714L42.9488 20.3964C43.1816 20.1919 43.3495 19.9238 43.4317 19.6251C43.5138 19.3263 43.5067 19.0101 43.4112 18.7154C43.3157 18.4206 43.1359 18.1603 42.8942 17.9666C42.6524 17.7728 42.3592 17.6541 42.0507 17.6251L30.0676 16.6501L25.4513 5.47511C25.3337 5.1868 25.1328 4.94009 24.8743 4.76642C24.6158 4.59275 24.3115 4.5 24.0001 4.5C23.6887 4.5 23.3843 4.59275 23.1259 4.76642C22.8674 4.94009 22.6665 5.1868 22.5488 5.47511L17.9326 16.6501L5.94946 17.6251C5.63889 17.6524 5.34325 17.7706 5.09946 17.9649C4.85568 18.1592 4.67456 18.4211 4.57874 18.7177C4.48292 19.0144 4.47664 19.3327 4.56069 19.6329C4.64474 19.9332 4.8154 20.2019 5.05133 20.4057L14.1826 28.2807L11.3926 40.0445C11.3188 40.347 11.3364 40.6647 11.4431 40.9572C11.5498 41.2498 11.7409 41.5041 11.9921 41.6882C12.2434 41.8722 12.5435 41.9776 12.8546 41.991C13.1657 42.0045 13.4739 41.9255 13.7401 41.7639L24.0001 35.4545Z" fill="#FAFAFA"/>
</svg>
