<svg width="48" height="48" viewBox="0 0 48 48" fill="none" xmlns="http://www.w3.org/2000/svg">
<path d="M7.20117 21.7946C7.83755 21.7947 8.44844 22.0477 8.89844 22.4977C9.34832 22.9478 9.60156 23.5586 9.60156 24.195V28.8024C9.60117 28.9556 9.55566 29.1054 9.47266 29.2341C9.0893 29.8206 8.86857 30.4991 8.83203 31.1989C8.79553 31.8986 8.94546 32.5952 9.26562 33.2184L11.4238 36.8181C11.4785 36.9084 11.5517 36.9879 11.6367 37.0505C11.7215 37.1128 11.8177 37.158 11.9199 37.1833C12.0224 37.2085 12.13 37.2129 12.2344 37.197C12.3385 37.181 12.4391 37.146 12.5293 37.0915C12.6196 37.0369 12.6972 36.9636 12.7598 36.8786C12.8222 36.7937 12.8673 36.6977 12.8926 36.5954C12.9178 36.4929 12.9241 36.3853 12.9082 36.2809C12.8923 36.1768 12.8553 36.0762 12.8008 35.986L10.6719 32.4509C10.4132 31.9593 10.3439 31.3887 10.4766 30.8493C10.6093 30.3102 10.9357 29.8386 11.3926 29.5231C13.2326 28.3071 14.1775 29.8114 17.1855 33.0114C17.9808 34.1933 18.4035 35.5869 18.4004 37.0114V41.8102C18.4004 42.0224 18.316 42.2266 18.166 42.3766C18.0162 42.5263 17.8133 42.6108 17.6016 42.611H11.2012C11.0906 42.6005 10.9831 42.5664 10.8867 42.5114C10.7902 42.4562 10.7059 42.3807 10.6406 42.2907L6.40039 36.9626C5.37161 35.6894 4.8075 34.1033 4.80078 32.4665V24.195C4.80078 23.5585 5.05382 22.9478 5.50391 22.4977C5.95399 22.0477 6.56468 21.7946 7.20117 21.7946Z" fill="#FAFAFA"/>
<path d="M40.8008 21.8259C41.4341 21.8259 42.0426 22.077 42.4922 22.5231C42.9418 22.9697 43.1969 23.5769 43.2012 24.2106V32.4821C43.1945 34.119 42.6303 35.7051 41.6016 36.9782L37.4258 42.3063C37.3521 42.4015 37.2566 42.4782 37.1484 42.5309C37.0403 42.5836 36.9211 42.6116 36.8008 42.611H30.4023C30.1902 42.611 29.986 42.5266 29.8359 42.3766C29.6859 42.2266 29.6016 42.0224 29.6016 41.8102V37.0114C29.5985 35.5866 30.0228 34.1934 30.8184 33.0114C33.8262 29.8596 34.7696 28.3387 36.6094 29.5544C37.0666 29.87 37.3927 30.343 37.5254 30.8825C37.6579 31.4217 37.5885 31.9907 37.3301 32.4821L35.2012 36.0192C35.0912 36.2015 35.0585 36.4199 35.1094 36.6266C35.1603 36.8334 35.2905 37.0124 35.4727 37.1227C35.6551 37.2331 35.875 37.2655 36.082 37.2145C36.2889 37.1635 36.4678 37.0336 36.5781 36.8513L38.7383 33.2516C39.0585 32.6284 39.2065 31.9299 39.1699 31.2302C39.1333 30.5307 38.9125 29.8536 38.5293 29.2673C38.4463 29.1388 38.4029 28.9886 38.4023 28.8356V24.2263C38.4025 23.5899 38.6555 22.979 39.1055 22.529C39.5553 22.0796 40.1649 21.8261 40.8008 21.8259Z" fill="#FAFAFA"/>
<path fill-rule="evenodd" clip-rule="evenodd" d="M22.873 6.82196C23.6461 6.02701 24.9253 6.02788 25.6992 6.82196C28.9711 10.1817 32.2845 14.0283 32.2852 17.9098L32.2754 18.3239C32.0609 22.5774 28.5652 25.9606 24.2852 25.9606L23.873 25.9489C19.7828 25.74 16.5025 22.44 16.2949 18.3239L16.2852 17.9098C16.2858 14.0514 19.7117 10.0754 22.873 6.82196ZM27.7441 17.9997C26.9164 18.0001 26.2447 18.672 26.2441 19.4997C26.2433 19.5047 26.2378 19.5498 26.207 19.6208C26.1736 19.6976 26.125 19.7696 26.0684 19.8239C26.0152 19.8747 25.9569 19.9099 25.8906 19.9294C25.8267 19.948 25.7082 19.9669 25.5137 19.9274C24.7026 19.7632 23.9096 20.2866 23.7441 21.0973C23.5793 21.9088 24.1048 22.7015 24.916 22.8669C26.239 23.1357 27.3681 22.7318 28.1406 21.9938C28.8511 21.3149 29.2441 20.3678 29.2441 19.4997C29.2436 18.6717 28.5722 17.9997 27.7441 17.9997Z" fill="#FAFAFA"/>
</svg>
