<svg width="48" height="48" viewBox="0 0 48 48" fill="none" xmlns="http://www.w3.org/2000/svg">
<path d="M40.3633 6C40.7971 6 41.2137 6.17135 41.5205 6.47656C41.8274 6.78198 42 7.19698 42 7.62891V29.7549C41.9998 30.1862 41.8278 30.6001 41.5215 30.9053L30.8418 41.5234C30.5352 41.8282 30.1199 41.9998 29.6865 42H7.63672C7.20288 42 6.78634 41.8287 6.47949 41.5234C6.17261 41.218 6 40.803 6 40.3711V7.62891C6 7.19698 6.17261 6.78198 6.47949 6.47656C6.78634 6.17135 7.20288 6 7.63672 6H40.3633ZM28.5 28C28.2239 28 28 28.2239 28 28.5V38.793C28.0001 39.2384 28.5385 39.4614 28.8535 39.1465L39.1465 28.8535C39.4614 28.5385 39.2384 28.0001 38.793 28H28.5Z" fill="#FAFAFA"/>
</svg>
