<svg width="48" height="48" viewBox="0 0 48 48" fill="none" xmlns="http://www.w3.org/2000/svg">
<path fill-rule="evenodd" clip-rule="evenodd" d="M43.0378 13.6916C46.1755 21.5343 42.1773 33.0093 24.7378 42.808C24.2815 43.0644 23.7246 43.0644 23.2683 42.808C5.82876 33.0094 1.83049 21.5343 4.96808 13.6916C6.50238 9.85644 9.71781 7.11845 13.4975 6.27361C16.9344 5.50542 20.7232 6.32625 24.003 9.09911C27.2827 6.32625 31.0715 5.50541 34.5083 6.2736C38.2881 7.11843 41.5035 9.85642 43.0378 13.6916ZM22.3416 17.3292C22.0923 16.8305 21.5869 16.5112 21.0294 16.5003C20.4719 16.4894 19.9544 16.7886 19.6857 17.2771L16.8131 22.5H13.5C12.6716 22.5 12 23.1716 12 24C12 24.8284 12.6716 25.5 13.5 25.5H17.7C18.247 25.5 18.7507 25.2022 19.0143 24.7229L20.9367 21.2276L25.6584 30.6708C25.9077 31.1695 26.4131 31.4888 26.9706 31.4997C27.5281 31.5106 28.0456 31.2114 28.3143 30.7229L31.1869 25.5H34.5C35.3284 25.5 36 24.8284 36 24C36 23.1716 35.3284 22.5 34.5 22.5H30.3C29.753 22.5 29.2493 22.7978 28.9857 23.2771L27.0633 26.7724L22.3416 17.3292Z" fill="#FAFAFA"/>
</svg>
