<svg width="48" height="48" viewBox="0 0 48 48" fill="none" xmlns="http://www.w3.org/2000/svg">
<path d="M5.5 6C4.67157 6 4 6.67157 4 7.5V12.5C4 13.3284 4.67157 14 5.5 14H42.5C43.3284 14 44 13.3284 44 12.5V7.5C44 6.67157 43.3284 6 42.5 6H5.5Z" fill="#FAFAFA"/>
<path fill-rule="evenodd" clip-rule="evenodd" d="M6 34.1609L6 17H42V34.1609C42 35.2292 42 36.1209 41.9405 36.8493C41.8784 37.6091 41.7442 38.3224 41.4005 38.9969C40.8732 40.0318 40.0318 40.8732 38.9969 41.4005C38.3224 41.7442 37.6091 41.8784 36.8493 41.9405C36.1209 42 35.2292 42 34.1609 42H13.8391C12.7708 42 11.8791 42 11.1507 41.9405C10.3909 41.8784 9.67758 41.7442 9.00306 41.4005C7.96816 40.8732 7.12677 40.0318 6.59946 38.9969C6.25578 38.3224 6.12155 37.6091 6.05948 36.8493C5.99996 36.1209 5.99998 35.2292 6 34.1609ZM20 22C19.1716 22 18.5 22.6716 18.5 23.5C18.5 24.3284 19.1716 25 20 25H28C28.8284 25 29.5 24.3284 29.5 23.5C29.5 22.6716 28.8284 22 28 22H20Z" fill="#FAFAFA"/>
</svg>
