<svg width="48" height="48" viewBox="0 0 48 48" fill="none" xmlns="http://www.w3.org/2000/svg">
<path d="M22.9998 4.95888C23.5658 4.45623 24.4176 4.45336 24.9862 4.95303L23.9959 6.07998L24.9881 4.95498L24.994 4.96084C24.997 4.9635 25.0013 4.96667 25.0057 4.9706C25.0155 4.97944 25.0285 4.99295 25.0448 5.00771C25.0774 5.0374 25.1238 5.07816 25.1795 5.13076C25.2919 5.23685 25.4493 5.38917 25.6346 5.57998C26.0038 5.96016 26.4972 6.50582 26.994 7.16592C27.9267 8.40544 29.0492 10.2872 29.0916 12.3593L29.1073 12.8983C29.0859 14.1507 28.6386 15.3653 27.8299 16.3358C27.2053 17.0852 26.3964 17.6428 25.4959 17.9745V32.3983C28.0452 32.0689 30.432 30.9112 32.2694 29.0741C34.1901 27.1534 35.375 24.6328 35.6405 21.953C34.7629 21.6188 33.9746 21.0694 33.3631 20.3358C32.4646 19.2576 32.0152 17.8785 32.0975 16.4804L32.1092 16.0878C32.2391 14.1363 33.3086 12.3643 34.1971 11.1796C34.6929 10.5186 35.186 9.9719 35.5545 9.58974C35.7396 9.39781 35.8956 9.24334 36.0076 9.13662C36.0635 9.08342 36.1098 9.04153 36.1424 9.01162C36.1584 8.99689 36.1718 8.98523 36.1815 8.97646L36.1971 8.96084C36.2023 8.96614 36.2559 9.02103 36.7615 9.58974L36.201 8.95888C36.767 8.45623 37.6188 8.45336 38.1873 8.95303L37.1971 10.08L38.1893 8.95498L38.1951 8.96084C38.1982 8.9635 38.2025 8.96667 38.2069 8.9706C38.2167 8.97944 38.2297 8.99295 38.2459 9.00771C38.2786 9.0374 38.325 9.07816 38.3807 9.13076C38.493 9.23685 38.6504 9.38917 38.8358 9.57998C39.205 9.96016 39.6984 10.5058 40.1951 11.1659C41.1279 12.4054 42.2503 14.2872 42.2928 16.3593L42.3084 16.8983C42.2871 18.1507 41.8398 19.3653 41.0311 20.3358C40.3944 21.0997 39.5659 21.6631 38.6444 21.9921C38.3626 25.4542 36.8648 28.7209 34.3905 31.1952C31.9897 33.5957 28.8431 35.0766 25.4959 35.4198V40.4999H29.9959C30.8243 40.5 31.4959 41.1715 31.4959 41.9999C31.4959 42.8282 30.8242 43.4998 29.9959 43.4999H17.9959C17.1675 43.4999 16.496 42.8283 16.4959 41.9999C16.4959 41.1715 17.1675 40.4999 17.9959 40.4999H22.4959V35.4198C19.1487 35.0765 16.002 33.5957 13.6014 31.1952C11.1277 28.7213 9.62938 25.4554 9.34748 21.994C8.42636 21.6651 7.59923 21.0993 6.96272 20.3358C6.06418 19.2576 5.61479 17.8785 5.69709 16.4804L5.70881 16.0878C5.83876 14.1363 6.90818 12.3643 7.7967 11.1796C8.29247 10.5186 8.78565 9.9719 9.15412 9.58974C9.33921 9.39781 9.49519 9.24334 9.60725 9.13662C9.66311 9.08342 9.70945 9.04153 9.74201 9.01162C9.75805 8.99689 9.77137 8.98523 9.78108 8.97646L9.7967 8.96084C9.80193 8.96615 9.85552 9.02104 10.3612 9.58974L9.80061 8.95888C10.3666 8.45623 11.2184 8.45336 11.7869 8.95303L10.7967 10.08L11.7889 8.95498L11.7947 8.96084C11.7978 8.9635 11.8021 8.96667 11.8065 8.9706C11.8163 8.97944 11.8293 8.99295 11.8455 9.00771C11.8782 9.0374 11.9246 9.07816 11.9803 9.13076C12.0927 9.23685 12.2501 9.38917 12.4354 9.57998C12.8046 9.96016 13.298 10.5058 13.7947 11.1659C14.7275 12.4054 15.8499 14.2872 15.8924 16.3593L15.908 16.8983C15.8867 18.1507 15.4394 19.3653 14.6307 20.3358C14.0188 21.0699 13.2296 21.6188 12.3514 21.953C12.6168 24.6329 13.8036 27.1533 15.7244 29.0741C17.5616 30.9108 19.9473 32.0687 22.4959 32.3983V17.9745C21.5954 17.6428 20.7866 17.0852 20.1619 16.3358C19.2634 15.2576 18.814 13.8785 18.8963 12.4804L18.908 12.0878C19.038 10.1363 20.1074 8.36428 20.9959 7.17959C21.4917 6.51861 21.9849 5.9719 22.3533 5.58974C22.5384 5.39781 22.6944 5.24334 22.8065 5.13662C22.8623 5.08342 22.9087 5.04153 22.9412 5.01162C22.9573 4.99689 22.9706 4.98523 22.9803 4.97646L22.9959 4.96084C23.0011 4.96614 23.0547 5.02103 23.5604 5.58974L22.9998 4.95888Z" fill="#FAFAFA"/>
</svg>
