<svg width="40" height="40" viewBox="0 0 40 40" fill="none" xmlns="http://www.w3.org/2000/svg">
<path d="M9.17546 4.06103C9.65055 3.64271 10.3756 3.64302 10.8503 4.08218C11.3249 4.52169 11.3807 5.24452 11 5.75048L10.9186 5.84976L10.6175 6.17691C10.3396 6.48778 10.1244 6.7588 9.95508 7.07372C9.74603 7.46275 9.58404 7.97056 9.58398 8.75015C9.58398 10.1313 10.1305 10.7651 10.9349 11.6701C11.797 12.6399 12.9172 13.8818 12.9173 16.2502C12.9173 17.4198 12.6624 18.3382 12.2467 19.1115C11.8478 19.8533 11.3222 20.4139 10.9186 20.8498C10.4892 21.3135 10.1809 21.6538 9.95508 22.0737C9.74603 22.4628 9.58404 22.9706 9.58398 23.7502C9.58398 25.1313 10.1305 25.7651 10.9349 26.6701C11.7431 27.5793 12.7779 28.7275 12.9043 30.8188L12.9173 31.2502C12.9173 32.4198 12.6624 33.3382 12.2467 34.1115C11.9474 34.668 11.5763 35.1221 11.2393 35.4982L10.9186 35.8498L10.8258 35.9393C10.3507 36.3578 9.62578 36.3575 9.15104 35.9181C8.67648 35.4785 8.6205 34.7557 9.0013 34.2498L9.08268 34.1505L9.38379 33.8234C9.66171 33.5125 9.87688 33.2416 10.0462 32.9266C10.2552 32.5375 10.4173 32.0298 10.4173 31.2502L10.4108 30.9995C10.3477 29.7889 9.82051 29.1786 9.06641 28.3302C8.20429 27.3604 7.08398 26.1186 7.08398 23.7502C7.08404 22.5805 7.33883 21.6621 7.75456 20.8888C8.15357 20.1471 8.67908 19.5864 9.08268 19.1505C9.5121 18.6868 9.8204 18.3466 10.0462 17.9266C10.2552 17.5375 10.4173 17.0298 10.4173 16.2502C10.4172 14.8692 9.87084 14.2352 9.06641 13.3302C8.20429 12.3604 7.08398 11.1186 7.08398 8.75015C7.08404 7.58054 7.33883 6.66207 7.75456 5.88883C8.05389 5.33237 8.425 4.87823 8.76204 4.50211L9.08268 4.15054L9.17546 4.06103Z" fill="#FAFAFA"/>
<path d="M19.1755 4.06103C19.6506 3.64271 20.3756 3.64302 20.8503 4.08218C21.3249 4.52169 21.3807 5.24452 21 5.75048L20.9186 5.84976L20.6175 6.17691C20.3396 6.48778 20.1244 6.7588 19.9551 7.07372C19.746 7.46275 19.584 7.97056 19.584 8.75015C19.584 10.1313 20.1305 10.7651 20.9349 11.6701C21.797 12.6399 22.9172 13.8818 22.9173 16.2502C22.9173 17.4198 22.6624 18.3382 22.2467 19.1115C21.8478 19.8533 21.3222 20.4139 20.9186 20.8498C20.4892 21.3135 20.1809 21.6538 19.9551 22.0737C19.746 22.4628 19.584 22.9706 19.584 23.7502C19.584 25.1313 20.1305 25.7651 20.9349 26.6701C21.797 27.6399 22.9172 28.8818 22.9173 31.2502C22.9173 32.4198 22.6624 33.3382 22.2467 34.1115C21.9474 34.668 21.5763 35.1221 21.2393 35.4982L20.9186 35.8498L20.8258 35.9393C20.3507 36.3578 19.6258 36.3575 19.151 35.9181C18.6765 35.4785 18.6205 34.7557 19.0013 34.2498L19.0827 34.1505L19.3838 33.8234C19.6617 33.5125 19.8769 33.2416 20.0462 32.9266C20.2552 32.5375 20.4173 32.0298 20.4173 31.2502C20.4172 29.8692 19.8708 29.2352 19.0664 28.3302C18.2043 27.3604 17.084 26.1186 17.084 23.7502C17.084 22.5805 17.3388 21.6621 17.7546 20.8888C18.1536 20.1471 18.6791 19.5864 19.0827 19.1505C19.5121 18.6868 19.8204 18.3466 20.0462 17.9266C20.2552 17.5375 20.4173 17.0298 20.4173 16.2502C20.4172 14.8692 19.8708 14.2352 19.0664 13.3302C18.2043 12.3604 17.084 11.1186 17.084 8.75015C17.084 7.58054 17.3388 6.66207 17.7546 5.88883C18.0539 5.33237 18.425 4.87823 18.762 4.50211L19.0827 4.15054L19.1755 4.06103Z" fill="#FAFAFA"/>
<path d="M29.1755 4.06103C29.6506 3.64271 30.3756 3.64302 30.8503 4.08218C31.3249 4.52169 31.3807 5.24452 31 5.75048L30.9186 5.84976L30.6175 6.17691C30.3396 6.48778 30.1244 6.7588 29.9551 7.07372C29.746 7.46275 29.584 7.97056 29.584 8.75015C29.584 10.1313 30.1305 10.7651 30.9349 11.6701C31.797 12.6399 32.9172 13.8818 32.9173 16.2502C32.9173 17.4198 32.6624 18.3382 32.2467 19.1115C31.8478 19.8533 31.3222 20.4139 30.9186 20.8498C30.4892 21.3135 30.1809 21.6538 29.9551 22.0737C29.746 22.4628 29.584 22.9706 29.584 23.7502C29.584 25.1313 30.1305 25.7651 30.9349 26.6701C31.797 27.6399 32.9172 28.8818 32.9173 31.2502C32.9173 32.4198 32.6624 33.3382 32.2467 34.1115C31.9474 34.668 31.5763 35.1221 31.2393 35.4982L30.9186 35.8498L30.8258 35.9393C30.3507 36.3578 29.6258 36.3575 29.151 35.9181C28.6765 35.4785 28.6205 34.7557 29.0013 34.2498L29.0827 34.1505L29.3838 33.8234C29.6617 33.5125 29.8769 33.2416 30.0462 32.9266C30.2552 32.5375 30.4173 32.0298 30.4173 31.2502C30.4172 29.8692 29.8708 29.2352 29.0664 28.3302C28.2043 27.3604 27.084 26.1186 27.084 23.7502C27.084 22.5805 27.3388 21.6621 27.7546 20.8888C28.1536 20.1471 28.6791 19.5864 29.0827 19.1505C29.5121 18.6868 29.8204 18.3466 30.0462 17.9266C30.2552 17.5375 30.4173 17.0298 30.4173 16.2502C30.4172 14.8692 29.8708 14.2352 29.0664 13.3302C28.2043 12.3604 27.084 11.1186 27.084 8.75015C27.084 7.58054 27.3388 6.66207 27.7546 5.88883C28.0539 5.33237 28.425 4.87823 28.762 4.50211L29.0827 4.15054L29.1755 4.06103Z" fill="#FAFAFA"/>
</svg>
