<svg width="40" height="40" viewBox="0 0 40 40" fill="none" xmlns="http://www.w3.org/2000/svg">
<path d="M29.6562 21.1328C29.6562 20.563 29.4293 20.0172 29.0264 19.6143C28.6235 19.2113 28.0776 18.9844 27.5078 18.9844H11.6484C11.0786 18.9844 10.5328 19.2113 10.1299 19.6143C9.72697 20.0172 9.5 20.563 9.5 21.1328V31.3281L9.50977 31.5397C9.55844 32.0318 9.77714 32.4939 10.1299 32.8467C10.5328 33.2496 11.0786 33.4766 11.6484 33.4766H27.5078C28.0776 33.4766 28.6235 33.2496 29.0264 32.8467C29.4293 32.4438 29.6562 31.8979 29.6562 31.3281V21.1328ZM25.1185 11.7969C25.0872 11.162 24.9471 10.5364 24.7034 9.94792C24.4247 9.27494 24.0157 8.66286 23.5007 8.14779C22.9856 7.63271 22.3735 7.22374 21.7005 6.94499C21.112 6.70129 20.4864 6.56128 19.8516 6.52995L19.5781 6.52344C18.8499 6.52344 18.1286 6.66637 17.4557 6.94499C16.7828 7.22374 16.1707 7.63271 15.6556 8.14779C15.1405 8.66286 14.7316 9.27494 14.4528 9.94792C14.1742 10.6208 14.0312 11.3421 14.0312 12.0703V16.4844H25.125V12.0703L25.1185 11.7969ZM27.625 16.4893C28.8153 16.5193 29.9499 17.0026 30.7939 17.8467C31.6657 18.7184 32.1562 19.9 32.1562 21.1328V31.3281C32.1562 32.561 31.6657 33.7425 30.7939 34.6143C29.9222 35.486 28.7407 35.9766 27.5078 35.9766H11.6484C10.4156 35.9766 9.23406 35.486 8.3623 34.6143C7.59942 33.8514 7.12836 32.8514 7.02279 31.7871L7 31.3281V21.1328C7 19.9 7.49055 18.7184 8.3623 17.8467C9.20638 17.0026 10.3409 16.5193 11.5312 16.4893V12.0703C11.5312 11.0136 11.7389 9.96713 12.1432 8.99089C12.5476 8.01459 13.1408 7.12743 13.888 6.38021C14.6352 5.63299 15.5224 5.03981 16.4987 4.63542C17.4749 4.23107 18.5215 4.02344 19.5781 4.02344L19.9736 4.0332C20.8952 4.07855 21.8033 4.2816 22.6576 4.63542C23.6338 5.03981 24.521 5.63299 25.2682 6.38021C26.0154 7.12743 26.6086 8.01459 27.013 8.99089C27.4174 9.96713 27.625 11.0136 27.625 12.0703V16.4893Z" fill="#FAFAFA"/>
</svg>
