<svg width="40" height="40" viewBox="0 0 40 40" fill="none" xmlns="http://www.w3.org/2000/svg">
<path d="M17.5 5C18.1904 5 18.75 5.55964 18.75 6.25C18.75 6.94036 18.1904 7.5 17.5 7.5H8.75V32.5H17.5C18.1904 32.5 18.75 33.0596 18.75 33.75C18.75 34.4404 18.1904 35 17.5 35H7.5C6.80964 35 6.25 34.4404 6.25 33.75V6.25L6.25684 6.12109C6.32137 5.49132 6.85318 5 7.5 5H17.5Z" fill="#FAFAFA"/>
<path d="M22.959 12.7803C23.45 12.3798 24.1751 12.4085 24.6328 12.8662C25.0905 13.3239 25.1193 14.0491 24.7188 14.54L24.6328 14.6338L20.5166 18.75H35C35.6904 18.75 36.25 19.3096 36.25 20C36.25 20.6904 35.6904 21.25 35 21.25H20.5166L24.6328 25.3662C25.1209 25.8543 25.1208 26.6456 24.6328 27.1338C24.1447 27.6219 23.3534 27.6219 22.8652 27.1338L16.6152 20.8838C16.1577 20.4262 16.1281 19.7019 16.5283 19.2109L16.6152 19.1162L22.8652 12.8662L22.959 12.7803Z" fill="#FAFAFA"/>
</svg>
