<svg width="40" height="40" viewBox="0 0 40 40" fill="none" xmlns="http://www.w3.org/2000/svg">
<path d="M13.75 12.5007C14.9103 12.5007 16.0236 12.9611 16.8441 13.7816C17.6644 14.602 18.125 15.7154 18.125 16.8757C18.1248 17.5658 17.5652 18.1257 16.875 18.1257C16.1848 18.1257 15.6252 17.5658 15.625 16.8757C15.625 16.3785 15.428 15.9008 15.0765 15.5492C14.7249 15.1975 14.2473 15.0007 13.75 15.0007C13.2527 15.0007 12.7751 15.1975 12.4235 15.5492C12.072 15.9008 11.875 16.3785 11.875 16.8757C11.8748 17.5658 11.3152 18.1257 10.625 18.1257C9.93478 18.1257 9.37522 17.5658 9.375 16.8757C9.375 15.7154 9.83558 14.602 10.6559 13.7816C11.4764 12.9611 12.5897 12.5007 13.75 12.5007Z" fill="#FAFAFA"/>
<path fill-rule="evenodd" clip-rule="evenodd" d="M13.2601 4.78906C13.6251 4.63338 14.0467 4.65807 14.3929 4.86556L20.5876 8.58301C21.9678 9.41136 22.8125 10.9039 22.8125 12.5137V20.388C24.8179 20.631 26.2674 21.4689 27.3226 22.7041C28.5121 24.0968 29.1103 25.9006 29.5915 27.4404C30.1072 29.0906 30.4902 30.4247 31.1621 31.402C31.4756 31.8579 31.8293 32.1947 32.2575 32.4242C32.6855 32.6535 33.2575 32.8132 34.0625 32.8132C34.7528 32.8132 35.3124 33.3728 35.3125 34.0632C35.3123 34.7534 34.7528 35.3132 34.0625 35.3132C32.9146 35.3132 31.9234 35.0821 31.0758 34.6279C30.2289 34.1739 29.5935 33.5335 29.1016 32.818C28.1624 31.4518 27.6662 29.6603 27.2054 28.1859C26.7101 26.601 26.2336 25.2793 25.4215 24.3285C24.8519 23.6616 24.0663 23.1229 22.8125 22.9108V34.0632C22.8123 34.7534 22.2528 35.3132 21.5625 35.3132C20.8722 35.3132 20.3127 34.7534 20.3125 34.0632V24.3757H15V34.0632C14.9998 34.7534 14.4403 35.3132 13.75 35.3132C13.0597 35.3132 12.5002 34.7534 12.5 34.0632V24.3757H7.1875V34.0632C7.18733 34.7534 6.62775 35.3132 5.9375 35.3132C5.24725 35.3132 4.68767 34.7534 4.6875 34.0632V12.5137C4.68754 10.9039 5.53221 9.41136 6.91243 8.58301L13.1071 4.86556L13.2601 4.78906ZM8.19824 10.7266C7.57117 11.1031 7.18754 11.7822 7.1875 12.5137V21.8757H20.3125V12.5137C20.3125 11.7822 19.9288 11.1031 19.3018 10.7266L13.75 7.39486L8.19824 10.7266Z" fill="#FAFAFA"/>
</svg>
