<svg width="40" height="40" viewBox="0 0 40 40" fill="none" xmlns="http://www.w3.org/2000/svg">
<path d="M24.9995 33.75C25.6899 33.75 26.2495 34.3096 26.2495 35C26.2495 35.6904 25.6899 36.25 24.9995 36.25H14.9995C14.3092 36.25 13.7495 35.6904 13.7495 35C13.7495 34.3096 14.3092 33.75 14.9995 33.75H24.9995Z" fill="#FAFAFA"/>
<path d="M29.9987 16.25C29.9987 13.5981 28.9457 11.055 27.0706 9.17969C25.1953 7.30432 22.6509 6.25 19.9987 6.25C17.3468 6.25016 14.8036 7.30447 12.9284 9.17969C11.0532 11.055 9.9987 13.598 9.9987 16.25C9.9987 21.6236 8.841 26.1223 7.72819 28.3382L7.50684 28.75H32.4938C31.3174 26.7165 29.9987 21.982 29.9987 16.25ZM32.4987 16.25C32.4987 21.3695 33.6194 25.4328 34.4893 27.181L34.6585 27.4984L34.6602 27.5L34.805 27.793C34.93 28.0947 34.9952 28.4197 34.9954 28.7484C34.9957 29.1863 34.8801 29.6171 34.6618 29.9967C34.4434 30.3763 34.129 30.6915 33.7503 30.9115C33.3715 31.1315 32.9416 31.2485 32.5036 31.25H7.49219C7.0547 31.2474 6.62499 31.1303 6.24707 30.9098C5.86911 30.6893 5.55488 30.3731 5.33724 29.9935C5.11981 29.6141 5.00626 29.184 5.00684 28.7467C5.0075 28.3092 5.12333 27.8789 5.34212 27.5L5.5114 27.181C6.38009 25.4323 7.4987 21.3679 7.4987 16.25C7.4987 12.9348 8.8166 9.75469 11.1608 7.41048C13.5048 5.06674 16.684 3.75016 19.9987 3.75C23.3138 3.75 26.494 5.06647 28.8382 7.41048C31.1824 9.75469 32.4987 12.9348 32.4987 16.25Z" fill="#FAFAFA"/>
<path d="M22.4995 13.75L22.6704 13.7614C23.0633 13.8155 23.4111 14.0552 23.6014 14.4108C23.7916 14.7665 23.7973 15.1884 23.6242 15.5452L23.5396 15.6934L19.8351 21.25H22.4995C23.1899 21.25 23.7495 21.8096 23.7495 22.5C23.7495 23.1904 23.1899 23.75 22.4995 23.75H17.4995C17.0385 23.75 16.6151 23.4956 16.3976 23.0892C16.1803 22.6828 16.2038 22.1901 16.4595 21.8066L20.1639 16.25H17.4995C16.8092 16.25 16.2495 15.6904 16.2495 15C16.2495 14.3096 16.8092 13.75 17.4995 13.75H22.4995Z" fill="#FAFAFA"/>
</svg>
