<svg width="40" height="40" viewBox="0 0 40 40" fill="none" xmlns="http://www.w3.org/2000/svg">
<path d="M13.3333 15.4165C14.0237 15.4165 14.5833 15.9761 14.5833 16.6665V23.3332C14.5833 24.0235 14.0237 24.5832 13.3333 24.5832C12.643 24.5832 12.0833 24.0235 12.0833 23.3332V21.2498H5C4.30965 21.2498 3.75 20.6902 3.75 19.9998C3.75 19.3095 4.30964 18.7498 5 18.7498H12.0833V16.6665C12.0833 15.9761 12.643 15.4165 13.3333 15.4165Z" fill="#FAFAFA"/>
<path d="M26.6667 15.4165C27.357 15.4165 27.9167 15.9761 27.9167 16.6665V18.7498H35C35.6904 18.7498 36.25 19.3095 36.25 19.9998C36.25 20.6902 35.6904 21.2498 35 21.2498H27.9167V23.3332C27.9167 24.0235 27.357 24.5832 26.6667 24.5832C25.9763 24.5832 25.4167 24.0235 25.4167 23.3332V16.6665C25.4167 15.9761 25.9763 15.4165 26.6667 15.4165Z" fill="#FAFAFA"/>
<path d="M20 17.0832C20.6904 17.0832 21.25 17.6428 21.25 18.3332V21.6665C21.25 22.3569 20.6904 22.9165 20 22.9165C19.3096 22.9165 18.75 22.3569 18.75 21.6665V18.3332C18.75 17.6428 19.3096 17.0832 20 17.0832Z" fill="#FAFAFA"/>
</svg>
