<svg width="40" height="40" viewBox="0 0 40 40" fill="none" xmlns="http://www.w3.org/2000/svg">
<path d="M21.0576 6.65021C20.5695 6.16208 19.7782 6.16226 19.29 6.65021C18.8018 7.13833 18.8018 7.9296 19.29 8.41779L30.9062 20.034L19.29 31.6502C18.8018 32.1384 18.8018 32.9297 19.29 33.4178C19.7782 33.9057 20.5695 33.9059 21.0576 33.4178L32.9667 21.507C33.1601 21.3138 33.3128 21.084 33.4176 20.8315C33.5224 20.5787 33.5771 20.3077 33.5771 20.034C33.5771 19.7603 33.5224 19.4893 33.4176 19.2365C33.3128 18.984 33.1601 18.7542 32.9667 18.561L21.0576 6.65021Z" fill="#FAFAFA"/>
<path d="M8.55752 6.65021C8.06946 6.16208 7.27814 6.16226 6.78994 6.65021C6.30176 7.13833 6.30182 7.9296 6.78994 8.41779L18.4062 20.034L6.78994 31.6502C6.30182 32.1384 6.30176 32.9297 6.78994 33.4178C7.27814 33.9057 8.06946 33.9059 8.55752 33.4178L20.4667 21.507C20.6601 21.3138 20.8128 21.084 20.9175 20.8315C21.0224 20.5787 21.0771 20.3077 21.0771 20.034C21.0771 19.7603 21.0224 19.4893 20.9175 19.2365C20.8128 18.984 20.6601 18.7542 20.4667 18.561L8.55752 6.65021Z" fill="#FAFAFA"/>
</svg>
