<svg width="40" height="40" viewBox="0 0 40 40" fill="none" xmlns="http://www.w3.org/2000/svg">
<path d="M15.0007 17.083C15.691 17.083 16.2507 17.6427 16.2507 18.333V21.2497L16.5013 20.916C16.9156 20.3642 17.6989 20.2529 18.251 20.667C18.8028 21.0813 18.9141 21.8646 18.5 22.4167L16 25.75C15.9662 25.795 15.9282 25.8358 15.8893 25.8753C15.882 25.8827 15.874 25.8893 15.8665 25.8965C15.8185 25.9429 15.7679 25.9856 15.7135 26.0234C15.7065 26.0284 15.6995 26.0333 15.6924 26.0381C15.636 26.0757 15.5766 26.1078 15.515 26.1357C15.4972 26.1438 15.4794 26.1513 15.4613 26.1585C15.3974 26.1839 15.3319 26.2041 15.2643 26.2188C15.2406 26.2238 15.2169 26.228 15.1927 26.2318C15.1732 26.2348 15.1539 26.2394 15.1341 26.2415C15.0902 26.2462 15.0458 26.2497 15.0007 26.2497C14.955 26.2497 14.91 26.2463 14.8656 26.2415C14.8458 26.2394 14.8265 26.2348 14.807 26.2318C14.7828 26.228 14.759 26.2239 14.7354 26.2188C14.6678 26.204 14.6022 26.184 14.5384 26.1585C14.5203 26.1513 14.5024 26.1438 14.4847 26.1357C14.4231 26.1077 14.3636 26.0757 14.3073 26.0381C14.3001 26.0333 14.2932 26.0284 14.2861 26.0234C14.2319 25.9855 14.1811 25.9429 14.1331 25.8965C14.1257 25.8893 14.1176 25.8827 14.1104 25.8753C14.0717 25.836 14.0348 25.7947 14.0013 25.75L11.5013 22.4167C11.0872 21.8646 11.1985 21.0813 11.7503 20.667C12.3024 20.2529 13.0857 20.3642 13.5 20.916L13.7507 21.2497V18.333C13.7507 17.6427 14.3103 17.083 15.0007 17.083Z" fill="#FAFAFA"/>
<path d="M25.0007 17.083C25.691 17.083 26.2507 17.6427 26.2507 18.333V21.2497L26.5013 20.916C26.9156 20.3642 27.6989 20.2529 28.251 20.667C28.8028 21.0813 28.9141 21.8646 28.5 22.4167L26 25.75C25.9662 25.795 25.9282 25.8358 25.8893 25.8753C25.882 25.8827 25.874 25.8893 25.8665 25.8965C25.8185 25.9429 25.7679 25.9856 25.7135 26.0234C25.7065 26.0284 25.6995 26.0333 25.6924 26.0381C25.636 26.0757 25.5766 26.1078 25.515 26.1357C25.4972 26.1438 25.4794 26.1513 25.4613 26.1585C25.3974 26.1839 25.3319 26.2041 25.2643 26.2188C25.2406 26.2238 25.2169 26.228 25.1927 26.2318C25.1732 26.2348 25.1539 26.2394 25.1341 26.2415C25.0902 26.2462 25.0458 26.2497 25.0007 26.2497C24.955 26.2497 24.91 26.2463 24.8656 26.2415C24.8458 26.2394 24.8265 26.2348 24.807 26.2318C24.7828 26.228 24.759 26.2239 24.7354 26.2188C24.6678 26.204 24.6022 26.184 24.5384 26.1585C24.5203 26.1513 24.5024 26.1438 24.4847 26.1357C24.4231 26.1077 24.3636 26.0757 24.3073 26.0381C24.3001 26.0333 24.2932 26.0284 24.2861 26.0234C24.2319 25.9855 24.1811 25.9429 24.1331 25.8965C24.1257 25.8893 24.1176 25.8827 24.1104 25.8753C24.0717 25.836 24.0348 25.7947 24.0013 25.75L21.5013 22.4167C21.0872 21.8646 21.1985 21.0813 21.7503 20.667C22.3024 20.2529 23.0857 20.3642 23.5 20.916L23.7507 21.2497V18.333C23.7507 17.6427 24.3103 17.083 25.0007 17.083Z" fill="#FAFAFA"/>
<path fill-rule="evenodd" clip-rule="evenodd" d="M25.0007 6.12598C25.691 6.12598 26.2507 6.68562 26.2507 7.37598C26.2502 8.06596 25.6907 8.62598 25.0007 8.62598H21.2507V13.3395H28.3356L28.7637 13.3509C33.1662 13.5737 36.6673 17.2133 36.6673 21.6712C36.6673 25.7213 33.7771 29.0943 29.9469 29.8451V32.6234C29.9469 33.3135 29.3869 33.8729 28.6969 33.8734C28.0066 33.8734 27.4469 33.3137 27.4469 32.6234V30.0029H12.5544V32.6234C12.5544 33.3137 11.9947 33.8734 11.3044 33.8734C10.614 33.8734 10.0544 33.3137 10.0544 32.6234V29.8451C6.2242 29.0943 3.33398 25.7213 3.33398 21.6712C3.33398 17.2133 6.8351 13.5737 11.2376 13.3509L11.6657 13.3395H18.7507V8.62598H15.0007C14.3106 8.62598 13.7511 8.06596 13.7507 7.37598C13.7507 6.68562 14.3103 6.12598 15.0007 6.12598H25.0007ZM11.6657 15.8395C8.44493 15.8395 5.83398 18.4505 5.83398 21.6712C5.83398 24.892 8.44493 27.5029 11.6657 27.5029H28.3356C31.5564 27.5029 34.1673 24.892 34.1673 21.6712C34.1673 18.4505 31.5564 15.8395 28.3356 15.8395H11.6657Z" fill="#FAFAFA"/>
</svg>
