<svg width="40" height="40" viewBox="0 0 40 40" fill="none" xmlns="http://www.w3.org/2000/svg">
<path fill-rule="evenodd" clip-rule="evenodd" d="M36.6699 9.58333C36.6699 7.05203 34.6179 5 32.0866 5H7.91992C5.38862 5 3.33659 7.05203 3.33659 9.58333V27.0833C3.33659 29.6146 5.38862 31.6667 7.91992 31.6667H19.6822L27.7342 36.0953C28.1214 36.3083 28.5924 36.3009 28.9728 36.076C29.3532 35.8511 29.5866 35.442 29.5866 35V31.6667H32.0866C34.6179 31.6667 36.6699 29.6146 36.6699 27.0833V9.58333ZM32.0866 7.5C33.2372 7.5 34.1699 8.43274 34.1699 9.58333V27.0833C34.1699 28.2339 33.2372 29.1667 32.0866 29.1667H28.3366C27.6462 29.1667 27.0866 29.7263 27.0866 30.4167V32.8859L20.6057 29.3214C20.4211 29.2199 20.2139 29.1667 20.0033 29.1667H7.91992C6.76933 29.1667 5.83659 28.2339 5.83659 27.0833V9.58333C5.83659 8.43274 6.76933 7.5 7.91992 7.5H32.0866Z" fill="#FAFAFA"/>
<path d="M12.5068 16.25C13.6573 16.25 14.5906 17.1826 14.5908 18.333C14.5908 19.4836 13.6574 20.417 12.5068 20.417C11.3563 20.4169 10.4238 19.4835 10.4238 18.333C10.424 17.1826 11.3564 16.2501 12.5068 16.25ZM20.0068 16.25C21.1573 16.25 22.0906 17.1826 22.0908 18.333C22.0908 19.4836 21.1574 20.417 20.0068 20.417C18.8563 20.4169 17.9238 19.4835 17.9238 18.333C17.924 17.1826 18.8564 16.2501 20.0068 16.25ZM27.5068 16.25C28.6573 16.25 29.5906 17.1826 29.5908 18.333C29.5908 19.4836 28.6574 20.417 27.5068 20.417C26.3563 20.4169 25.4238 19.4835 25.4238 18.333C25.424 17.1826 26.3564 16.2501 27.5068 16.25Z" fill="#FAFAFA"/>
</svg>
