<svg width="40" height="40" viewBox="0 0 40 40" fill="none" xmlns="http://www.w3.org/2000/svg">
<path fill-rule="evenodd" clip-rule="evenodd" d="M3.33398 11.2498C3.33398 8.71853 5.38601 6.6665 7.91732 6.6665H32.084C34.6153 6.6665 36.6673 8.71853 36.6673 11.2498V28.7498C36.6673 31.2811 34.6153 33.3332 32.084 33.3332H7.91732C5.38601 33.3332 3.33398 31.2811 3.33398 28.7498V11.2498ZM7.91732 9.1665C6.76672 9.1665 5.83398 10.0992 5.83398 11.2498V28.7498C5.83398 29.9004 6.76672 30.8332 7.91732 30.8332H32.084C33.2346 30.8332 34.1673 29.9004 34.1673 28.7498V11.2498C34.1673 10.0992 33.2346 9.1665 32.084 9.1665H7.91732Z" fill="#FAFAFA"/>
<path d="M20.8071 25.8309V14.1688H25.1479C26.3956 14.1688 27.4613 14.3998 28.3451 14.8619C29.2346 15.324 29.9133 15.9883 30.3812 16.8547C30.849 17.7211 31.083 18.7608 31.083 19.9738C31.083 21.2273 30.8462 22.2901 30.3725 23.1623C29.8989 24.0345 29.2173 24.6988 28.3277 25.1551C27.444 25.6056 26.384 25.8309 25.1479 25.8309H20.8071ZM23.2418 23.8035H24.888C25.714 23.8035 26.3985 23.6648 26.9415 23.3876C27.4902 23.1045 27.9003 22.68 28.1718 22.1139C28.4433 21.5421 28.579 20.8229 28.579 19.9565C28.579 19.1305 28.4317 18.4403 28.1371 17.8857C27.8483 17.3255 27.4295 16.9038 26.8808 16.6208C26.3321 16.3377 25.6678 16.1962 24.888 16.1962H23.2418V23.8035Z" fill="#FAFAFA"/>
<path d="M8.91829 25.8309V14.1688H11.353V18.7262H16.6382V14.1688H19.0728V25.8309H16.6382V20.8749H11.353V25.8309H8.91829Z" fill="#FAFAFA"/>
</svg>
