<svg width="40" height="40" viewBox="0 0 40 40" fill="none" xmlns="http://www.w3.org/2000/svg">
<path d="M20.0003 3.3335C21.984 3.33352 23.8905 4.11086 25.2982 5.49984C26.7063 6.88937 27.5003 8.77817 27.5003 10.7505V18.908C27.8252 19.086 28.129 19.3075 28.3971 19.5721C29.1537 20.3191 29.5837 21.3358 29.5837 22.3993C29.5836 22.8491 29.5002 23.2885 29.3542 23.7046C29.7444 23.5611 30.104 23.3398 30.4023 23.0454C30.947 22.5078 31.25 21.7816 31.2503 21.0288V17.4823H30.417C29.7269 17.4823 29.1674 16.9222 29.167 16.2323C29.167 15.5419 29.7266 14.9823 30.417 14.9823H34.5837C35.274 14.9823 35.8337 15.5419 35.8337 16.2323C35.8332 16.9222 35.2737 17.4822 34.5837 17.4823H33.7503V21.0288C33.75 22.4557 33.1759 23.8222 32.1585 24.826C31.1417 25.8293 29.7646 26.3899 28.3337 26.3901H26.2503C26.1635 26.3901 26.0782 26.3793 25.9964 26.3625C25.8505 26.3785 25.7035 26.3901 25.5553 26.3901H21.2503V28.0356C23.0447 28.1925 24.7768 28.8042 26.2747 29.8211C28.1303 31.081 29.5304 32.8985 30.264 35.0067C30.4903 35.6584 30.1458 36.3716 29.4941 36.5985C28.8425 36.8251 28.1296 36.4799 27.9023 35.8286C27.3469 34.2323 26.2847 32.8503 24.8701 31.8898C23.7885 31.1555 22.5446 30.6975 21.2503 30.5487V35.4168C21.25 36.1069 20.6905 36.6668 20.0003 36.6668C19.3102 36.6668 18.7506 36.1069 18.7503 35.4168V30.547C17.4549 30.6944 16.2095 31.1518 15.1273 31.8866C13.7126 32.8471 12.652 34.23 12.0983 35.827C11.8719 36.4787 11.1585 36.8243 10.5065 36.5985C9.85503 36.3722 9.50976 35.66 9.73503 35.0083C10.4665 32.8985 11.8665 31.08 13.7227 29.8195C15.2214 28.802 16.9549 28.1913 18.7503 28.0356V26.3901H14.4453C14.297 26.3901 14.1488 26.3785 14.0026 26.3625C13.921 26.3792 13.8368 26.3901 13.7503 26.3901H11.667C10.236 26.3901 8.85914 25.8293 7.84212 24.826C6.82475 23.8222 6.25061 22.4557 6.25033 21.0288V17.4823H5.41699C4.72687 17.4823 4.16738 16.9223 4.16699 16.2323C4.16699 15.5419 4.72664 14.9823 5.41699 14.9823H9.58366C10.274 14.9823 10.8337 15.5419 10.8337 16.2323C10.8333 16.9223 10.2737 17.4822 9.58366 17.4823H8.75033V21.0288C8.75061 21.7816 9.05363 22.5078 9.59831 23.0454C9.89556 23.3386 10.2531 23.5595 10.6416 23.703C10.4964 23.2875 10.4171 22.8482 10.417 22.3993C10.417 21.3358 10.8452 20.3191 11.6019 19.5721C11.871 19.3066 12.1738 19.083 12.5003 18.9048V10.7505C12.5003 8.77812 13.2943 6.88938 14.7025 5.49984C16.1102 4.11083 18.0166 3.3335 20.0003 3.3335ZM14.4453 20.9084C14.0348 20.9084 13.6433 21.0696 13.3581 21.3511C13.0736 21.6319 12.917 22.0095 12.917 22.3993C12.9172 22.7888 13.0737 23.1668 13.3581 23.4474C13.6433 23.7284 14.0352 23.8901 14.4453 23.8901H19.9678C19.9786 23.8899 19.9894 23.8885 20.0003 23.8885C20.0112 23.8885 20.0221 23.8899 20.0329 23.8901H25.5553C25.9656 23.8899 26.3575 23.7287 26.6426 23.4474C26.9268 23.1668 27.0834 22.7887 27.0837 22.3993C27.0837 22.0099 26.9265 21.6318 26.6426 21.3511C26.3575 21.0698 25.9656 20.9086 25.5553 20.9084H14.4453ZM20.0003 5.8335C18.669 5.8335 17.3951 6.35502 16.4587 7.27881C15.5228 8.20219 15.0003 9.45196 15.0003 10.7505V18.4084H25.0003V10.7505C25.0003 9.45196 24.4778 8.20219 23.542 7.27881C22.6056 6.35497 21.3316 5.83352 20.0003 5.8335Z" fill="#FAFAFA"/>
</svg>
