<svg width="40" height="40" viewBox="0 0 40 40" fill="none" xmlns="http://www.w3.org/2000/svg">
<path d="M15.1875 4.6875C17.945 4.68766 20.1512 6.76242 21.5938 9.46777C23.065 12.2271 23.9359 15.9533 23.9359 20C23.9359 24.0467 23.0637 27.7729 21.5921 30.5322C20.1492 33.2375 17.9433 35.3125 15.1859 35.3125C12.3376 35.3122 10.0794 33.1019 8.63478 30.2523C8.32311 29.6368 8.56964 28.8848 9.18491 28.5726C9.80053 28.2607 10.5524 28.5072 10.8646 29.1227C12.1522 31.6624 13.7547 32.8122 15.1859 32.8125C16.5707 32.8125 18.1153 31.7394 19.3867 29.3555C20.6295 27.0251 21.4359 23.7195 21.4359 20C21.4359 16.2804 20.6293 12.9749 19.3867 10.6445C18.1157 8.26085 16.5722 7.18767 15.1875 7.1875C13.7562 7.18777 12.1536 8.33859 10.8646 10.8789C10.552 11.494 9.79867 11.7397 9.18329 11.4274C8.56841 11.1148 8.32271 10.3614 8.63478 9.74609C10.0805 6.89714 12.3394 4.68776 15.1875 4.6875Z" fill="#FAFAFA"/>
<path d="M28.8952 19.1032C29.1468 18.4606 29.8719 18.1439 30.5147 18.3952L34.3998 19.9137C34.8523 20.0909 35.162 20.5143 35.1924 20.9993C35.2225 21.4848 34.9673 21.9442 34.5397 22.1761C33.1311 22.9397 31.6204 23.4799 30.0622 23.7858C30.2127 23.7862 30.3661 23.8123 30.5147 23.8704L34.3998 25.3906C34.8526 25.568 35.1624 25.9924 35.1924 26.4779C35.2219 26.9629 34.9671 27.4214 34.5397 27.653C32.0219 29.0168 29.1793 29.6701 26.3187 29.541C25.6296 29.5096 25.0966 28.9248 25.1273 28.2357C25.1584 27.546 25.743 27.0115 26.4326 27.0426C27.833 27.1057 29.2277 26.9443 30.5667 26.5739L29.6032 26.1979C28.9609 25.9461 28.6439 25.221 28.8952 24.5784C29.0309 24.2318 29.3053 23.9829 29.6292 23.8639C28.5405 24.0463 27.4311 24.116 26.3187 24.0658C25.6294 24.0343 25.0964 23.4497 25.1273 22.7604C25.1585 22.0708 25.743 21.5362 26.4326 21.5674C27.8335 21.6306 29.2289 21.4696 30.5684 21.0986L29.6048 20.7227C28.9619 20.4713 28.6438 19.7462 28.8952 19.1032Z" fill="#FAFAFA"/>
<path d="M12.1081 23.5482C14.5217 23.4503 16.9256 23.9094 19.1328 24.8909C19.7634 25.1714 20.0477 25.9107 19.7676 26.5413C19.4871 27.172 18.7479 27.4565 18.1172 27.1761C16.2608 26.3505 14.239 25.9642 12.209 26.0465C10.1789 26.1289 8.1949 26.678 6.41148 27.6514C5.80574 27.9819 5.04642 27.7587 4.71551 27.1533C4.38486 26.5475 4.60794 25.7882 5.21356 25.4574C7.33425 24.2999 9.69409 23.6462 12.1081 23.5482Z" fill="#FAFAFA"/>
<path d="M12.1081 18.0729C14.5219 17.9753 16.9256 18.4354 19.1328 19.4173C19.7636 19.6979 20.0482 20.437 19.7676 21.0677C19.4869 21.6981 18.7478 21.9813 18.1172 21.7008C16.2609 20.875 14.239 20.4891 12.209 20.5713C10.1791 20.6535 8.19487 21.2014 6.41148 22.1745C5.80552 22.505 5.0462 22.2823 4.71551 21.6764C4.38489 21.0705 4.60774 20.3112 5.21356 19.9805C7.33434 18.8232 9.6941 18.1707 12.1081 18.0729Z" fill="#FAFAFA"/>
<path d="M28.6885 13.5156C28.9176 12.8645 29.6324 12.5217 30.2835 12.7507L34.6032 14.2708C35.0797 14.4387 35.4088 14.8764 35.4365 15.3809C35.464 15.8854 35.1841 16.3568 34.7285 16.5755C32.1206 17.8276 29.262 18.4725 26.3692 18.4587C25.6793 18.4551 25.1227 17.892 25.1257 17.2021C25.129 16.5118 25.6919 15.9554 26.3822 15.9587C27.7634 15.9652 29.1355 15.7983 30.4675 15.4671L29.4535 15.1107C28.8024 14.8818 28.4599 14.1668 28.6885 13.5156Z" fill="#FAFAFA"/>
<path d="M12.1081 12.5651C14.5217 12.4673 16.9255 12.9266 19.1328 13.9079C19.7636 14.1883 20.048 14.9274 19.7676 15.5583C19.4871 16.1889 18.7479 16.4733 18.1172 16.193C16.2607 15.3677 14.239 14.9811 12.209 15.0635C10.1791 15.1459 8.19492 15.6938 6.41148 16.6667C5.80548 16.9972 5.04615 16.7746 4.71551 16.1686C4.38494 15.5627 4.60771 14.8033 5.21356 14.4727C7.33432 13.3156 9.69423 12.6631 12.1081 12.5651Z" fill="#FAFAFA"/>
</svg>
