<svg width="40" height="40" viewBox="0 0 40 40" fill="none" xmlns="http://www.w3.org/2000/svg">
<path d="M13.2243 13.2247C13.7125 12.7369 14.5038 12.7367 14.9919 13.2247C15.4795 13.7128 15.4796 14.5043 14.9919 14.9923C13.6637 16.3205 12.9168 18.1221 12.9167 20.0004C12.9167 21.879 13.6635 23.6819 14.9919 25.0102C15.4793 25.4984 15.4797 26.2898 14.9919 26.7778C14.5039 27.2656 13.7124 27.2653 13.2243 26.7778C11.7244 25.2779 10.7752 23.3308 10.5013 21.2504H5C4.30973 21.2504 3.75014 20.6907 3.75 20.0004C3.75 19.3101 4.30964 18.7504 5 18.7504H10.5013C10.7752 16.6704 11.7245 14.7245 13.2243 13.2247Z" fill="#FAFAFA"/>
<path d="M25.0081 13.2231C25.4961 12.7354 26.2876 12.7356 26.7757 13.2231C28.2757 14.7231 29.2249 16.6701 29.4987 18.7504H35C35.6904 18.7504 36.25 19.3101 36.25 20.0004C36.2499 20.6907 35.6903 21.2504 35 21.2504H29.4987C29.2247 23.3304 28.2752 25.2765 26.7757 26.7762C26.2875 27.2638 25.4961 27.2641 25.0081 26.7762C24.5206 26.2881 24.5206 25.4966 25.0081 25.0086C26.3363 23.6802 27.0833 21.8773 27.0833 19.9988C27.083 18.1206 26.3362 16.3188 25.0081 14.9907C24.5207 14.5026 24.5205 13.7111 25.0081 13.2231Z" fill="#FAFAFA"/>
<path d="M20 15.4171C20.6904 15.4171 21.25 15.9768 21.25 16.6671V18.7504H23.3333C24.0237 18.7504 24.5833 19.3101 24.5833 20.0004C24.5832 20.6907 24.0236 21.2504 23.3333 21.2504H21.25V23.3338C21.2499 24.024 20.6903 24.5838 20 24.5838C19.3097 24.5838 18.7501 24.024 18.75 23.3338V21.2504H16.6667C15.9764 21.2504 15.4168 20.6907 15.4167 20.0004C15.4167 19.3101 15.9763 18.7504 16.6667 18.7504H18.75V16.6671C18.75 15.9768 19.3096 15.4171 20 15.4171Z" fill="#FAFAFA"/>
</svg>
