<svg width="40" height="40" viewBox="0 0 40 40" fill="none" xmlns="http://www.w3.org/2000/svg">
<path d="M28.1322 31.2181C28.6097 30.9122 29.2499 30.9632 29.6735 31.3711C31.2279 32.8716 32.703 32.8962 34.6328 32.8962C35.3229 32.8962 35.8824 33.4562 35.8828 34.1462C35.8828 34.8365 35.3232 35.3962 34.6328 35.3962C32.92 35.3962 30.8579 35.4141 28.806 33.9053C26.8228 35.379 24.9692 35.3962 24.4033 35.3962C23.8373 35.3962 21.9835 35.38 20.0007 33.9069C18.0178 35.38 16.1638 35.3962 15.598 35.3962C15.0319 35.3962 13.1771 35.3798 11.1937 33.9053C9.14206 35.4133 7.08099 35.3962 5.36849 35.3962C4.67813 35.3962 4.11849 34.8365 4.11849 34.1462C4.11889 33.4562 4.67838 32.8962 5.36849 32.8962C7.29839 32.8962 8.77345 32.8716 10.3278 31.3711L10.5215 31.2181C10.9993 30.9119 11.6409 30.9625 12.0645 31.3711C13.6638 32.915 15.2097 32.8962 15.598 32.8962C15.986 32.8962 17.5335 32.9152 19.1331 31.3711L19.3268 31.2181C19.8043 30.9121 20.4446 30.9632 20.8682 31.3711C22.4676 32.9151 24.015 32.8962 24.4033 32.8962C24.7913 32.8962 26.3389 32.9152 27.9385 31.3711L28.1322 31.2181Z" fill="#FAFAFA"/>
<path d="M28.1322 25.0137C28.6098 24.7076 29.2499 24.7585 29.6735 25.1667C31.2279 26.6671 32.703 26.6918 34.6328 26.6918C35.3231 26.6918 35.8826 27.2516 35.8828 27.9418C35.8828 28.6321 35.3232 29.1918 34.6328 29.1918C32.92 29.1918 30.8579 29.2097 28.806 27.7009C26.8228 29.1746 24.9692 29.1918 24.4033 29.1918C23.8373 29.1918 21.9835 29.1756 20.0007 27.7025C18.0178 29.1756 16.1638 29.1918 15.598 29.1918C15.0319 29.1918 13.1771 29.1753 11.1937 27.7009C9.14206 29.2089 7.08099 29.1918 5.36849 29.1918C4.67813 29.1918 4.11849 28.6321 4.11849 27.9418C4.11867 27.2516 4.67824 26.6918 5.36849 26.6918C7.29839 26.6918 8.77345 26.6672 10.3278 25.1667L10.5215 25.0137C10.9994 24.7073 11.6408 24.7579 12.0645 25.1667C13.6638 26.7106 15.2097 26.6918 15.598 26.6918C15.986 26.6918 17.5335 26.7108 19.1331 25.1667L19.3268 25.0137C19.8044 24.7075 20.4445 24.7586 20.8682 25.1667C22.4676 26.7107 24.015 26.6918 24.4033 26.6918C24.7913 26.6918 26.3389 26.7108 27.9385 25.1667L28.1322 25.0137Z" fill="#FAFAFA"/>
<path d="M10.5215 18.8093C10.9995 18.5027 11.6408 18.5533 12.0645 18.9623C13.6637 20.5059 15.2097 20.4873 15.598 20.4873C15.986 20.4873 17.5336 20.5062 19.1331 18.9623L19.3268 18.8093C19.8045 18.5029 20.4445 18.5539 20.8682 18.9623C22.4675 20.506 24.015 20.4873 24.4033 20.4873C24.7913 20.4873 26.3389 20.5062 27.9385 18.9623L28.1322 18.8093C28.6099 18.503 29.2498 18.5539 29.6735 18.9623C31.2278 20.4625 32.7031 20.4873 34.6328 20.4873C35.3232 20.4873 35.8828 21.047 35.8828 21.7373C35.8825 22.4275 35.323 22.9873 34.6328 22.9873C32.92 22.9873 30.8579 23.0051 28.806 21.4964C26.8229 22.97 24.9691 22.9873 24.4033 22.9873C23.8373 22.9873 21.9834 22.971 20.0007 21.4981C18.0178 22.971 16.1637 22.9873 15.598 22.9873C15.0319 22.9873 13.1771 22.9707 11.1937 21.4964C9.14213 23.0043 7.08092 22.9873 5.36849 22.9873C4.6783 22.9873 4.11875 22.4275 4.11849 21.7373C4.11849 21.047 4.67813 20.4873 5.36849 20.4873C7.29829 20.4873 8.77354 20.4625 10.3278 18.9623L10.5215 18.8093Z" fill="#FAFAFA"/>
<path d="M7.04329 4.95185C7.54101 4.47355 8.33251 4.49002 8.81087 4.98766C9.28922 5.48539 9.27438 6.27687 8.77669 6.75524L7.70573 7.78388H10.5833C14.2912 7.78388 17.3832 10.6855 17.3835 14.3675V15.5313C17.3833 16.2213 16.8235 16.781 16.1335 16.7813C15.4432 16.7813 14.8836 16.2215 14.8835 15.5313V14.3675C14.8832 12.1589 13.0049 10.2839 10.5833 10.2839H7.7041L8.77669 11.3142C9.27415 11.7925 9.28912 12.5841 8.81087 13.0817C8.33247 13.5792 7.54093 13.5942 7.04329 13.1159L3.80924 10.0072C3.52202 9.77816 3.33398 9.4298 3.33398 9.03388C3.33411 8.63218 3.52606 8.27778 3.82064 8.04918L7.04329 4.95185Z" fill="#FAFAFA"/>
<path d="M31.1888 4.98766C31.6671 4.49004 32.4586 4.47384 32.9564 4.95185L36.1855 8.05569C36.4766 8.28448 36.6672 8.63511 36.6673 9.03388C36.6673 9.43016 36.4783 9.77818 36.1904 10.0072L32.9564 13.1159C32.4586 13.5942 31.6672 13.5794 31.1888 13.0817C30.7106 12.584 30.727 11.7925 31.2246 11.3142L32.2956 10.2839H29.418C26.9963 10.2839 25.1181 12.1589 25.1178 14.3675V15.5313C25.1177 16.2215 24.5581 16.7813 23.8678 16.7813C23.1776 16.7813 22.618 16.2215 22.6178 15.5313V14.3675C22.6181 10.6855 25.71 7.78388 29.418 7.78388H32.2956L31.2246 6.75524C30.727 6.277 30.7109 5.48543 31.1888 4.98766Z" fill="#FAFAFA"/>
</svg>
