<svg width="40" height="40" viewBox="0 0 40 40" fill="none" xmlns="http://www.w3.org/2000/svg">
<path fill-rule="evenodd" clip-rule="evenodd" d="M24.9993 15.8333C26.8403 15.8333 28.3327 17.3257 28.3327 19.1667V29.1667C28.3327 30.8927 27.0206 32.3117 25.3395 32.4821L24.9993 32.5H14.9993L14.6592 32.4821C13.0899 32.323 11.843 31.0761 11.6839 29.5068L11.666 29.1667V19.1667C11.666 17.3257 13.1584 15.8333 14.9993 15.8333H24.9993ZM14.9993 18.3333C14.5391 18.3333 14.166 18.7064 14.166 19.1667V29.1667C14.166 29.6269 14.5391 30 14.9993 30H24.9993C25.4596 30 25.8327 29.6269 25.8327 29.1667V19.1667C25.8327 18.7064 25.4596 18.3333 24.9993 18.3333H14.9993Z" fill="#FAFAFA"/>
<path d="M26.666 11.25C27.3564 11.25 27.916 11.8096 27.916 12.5C27.916 13.1904 27.3564 13.75 26.666 13.75H24.9993C24.309 13.75 23.7493 13.1904 23.7493 12.5C23.7493 11.8096 24.309 11.25 24.9993 11.25H26.666Z" fill="#FAFAFA"/>
<path fill-rule="evenodd" clip-rule="evenodd" d="M29.9993 2.5C31.8403 2.5 33.3327 3.99238 33.3327 5.83333V34.1667C33.3327 36.0076 31.8403 37.5 29.9993 37.5H9.99935C8.27326 37.5 6.85436 36.188 6.68392 34.5068L6.66602 34.1667V5.83333C6.66602 3.99238 8.1584 2.5 9.99935 2.5H29.9993ZM9.99935 5C9.53911 5 9.16602 5.3731 9.16602 5.83333V34.1667C9.16602 34.6269 9.53911 35 9.99935 35H29.9993C30.4596 35 30.8327 34.6269 30.8327 34.1667V5.83333C30.8327 5.3731 30.4596 5 29.9993 5H28.3327V5.83333C28.3327 7.55942 27.0206 8.97833 25.3395 9.14876L24.9993 9.16667H14.9993L14.6592 9.14876C12.9781 8.97833 11.666 7.55942 11.666 5.83333V5H9.99935ZM14.166 5.83333C14.166 6.29357 14.5391 6.66667 14.9993 6.66667H24.9993C25.4596 6.66667 25.8327 6.29357 25.8327 5.83333V5H14.166V5.83333Z" fill="#FAFAFA"/>
<path d="M19.9685 18.9613C20.4485 18.9616 20.838 19.3507 20.838 19.8308V20.2372L21.2082 19.8681C21.5478 19.5287 22.0982 19.5286 22.4378 19.8681C22.777 20.2077 22.7771 20.7582 22.4378 21.0976L20.838 22.6962V23.3155L21.4698 23.3144L23.0627 21.7226C23.4022 21.3832 23.9527 21.3833 24.2922 21.7226C24.6317 22.0621 24.6316 22.6126 24.2922 22.9521L23.9322 23.311H24.3341C24.8141 23.3104 25.2038 23.6994 25.2048 24.1794C25.2054 24.6596 24.8166 25.0494 24.3364 25.05H23.9096L24.2922 25.4327L24.3522 25.4983C24.6308 25.8398 24.6105 26.3438 24.2922 26.6622C23.974 26.98 23.4709 27.0002 23.1295 26.7222L23.0627 26.6622L21.4551 25.0534L20.838 25.0545V25.6874L22.4378 27.2871L22.4978 27.3539C22.7757 27.6953 22.7556 28.1985 22.4378 28.5166C22.1194 28.835 21.6154 28.8552 21.2739 28.5767L21.2082 28.5166L20.838 28.1464V28.554C20.838 29.034 20.4485 29.4232 19.9685 29.4235C19.4883 29.4235 19.099 29.0342 19.099 28.554V28.1442L18.7277 28.5166C18.3882 28.8561 17.8377 28.856 17.4982 28.5166C17.1588 28.1771 17.1587 27.6266 17.4982 27.2871L19.099 25.6863V25.0568H18.4752L16.8721 26.6622C16.5326 27.0014 15.9821 27.0015 15.6426 26.6622C15.3035 26.3227 15.3034 25.7721 15.6426 25.4327L16.0139 25.0602L15.6131 25.0613C15.1329 25.0619 14.7431 24.6732 14.7425 24.1929C14.7422 23.713 15.1309 23.323 15.6109 23.3223L16.0117 23.3212L15.6426 22.9521C15.3034 22.6126 15.3033 22.062 15.6426 21.7226C15.982 21.3831 16.5325 21.3834 16.8721 21.7226L18.4673 23.3178H19.099V22.6985L17.4982 21.0976C17.1587 20.7581 17.1588 20.2077 17.4982 19.8681C17.8377 19.5286 18.3881 19.5286 18.7277 19.8681L19.099 20.2395V19.8308C19.099 19.3505 19.4883 18.9613 19.9685 18.9613Z" fill="#FAFAFA"/>
</svg>
