<svg width="40" height="40" viewBox="0 0 40 40" fill="none" xmlns="http://www.w3.org/2000/svg">
<path fill-rule="evenodd" clip-rule="evenodd" d="M22.6943 4.5332C23.3843 4.53364 23.9443 5.09475 23.9443 5.78483C23.9439 6.47454 23.384 7.03439 22.6943 7.03483H19.1331V10.9525H26.1758C28.0698 10.9525 29.6051 12.4878 29.6051 14.3818V16.9779H34.1673C34.8576 16.9779 35.4172 17.5376 35.4173 18.2279V22.1602C35.4167 22.8499 34.8573 23.4102 34.1673 23.4102H29.6051V26.0062C29.6045 27.8997 28.0695 29.4355 26.1758 29.4355H22.7806V32.7721C22.7806 32.8386 22.7743 32.9038 22.7643 32.9674H32.5007C33.191 32.9674 33.7507 33.5271 33.7507 34.2174C33.7502 34.9074 33.1907 35.4674 32.5007 35.4674H5.83398C5.1439 35.4674 4.58442 34.9074 4.58398 34.2174C4.58398 33.5271 5.14363 32.9674 5.83398 32.9674H13.5016C13.4916 32.9038 13.487 32.8386 13.487 32.7721V29.4355H11.6462C7.74621 29.4355 4.58442 26.2732 4.58398 22.3734V18.0146C4.58398 14.1144 7.74594 10.9525 11.6462 10.9525H16.6331V7.03483H13.0703C12.3802 7.03483 11.8208 6.47481 11.8203 5.78483C11.8203 5.09447 12.38 4.5332 13.0703 4.5332H22.6943ZM15.987 32.7721C15.987 32.8386 15.9807 32.9038 15.9707 32.9674H20.2969C20.2869 32.9038 20.2806 32.8386 20.2806 32.7721V29.4355H15.987V32.7721ZM11.6462 13.4525C9.12665 13.4525 7.08398 15.4951 7.08398 18.0146V22.3734C7.08442 24.8925 9.12693 26.9355 11.6462 26.9355H26.1758C26.6888 26.9355 27.1045 26.519 27.1051 26.0062V22.1602C27.1051 21.4699 27.6649 20.9103 28.3551 20.9102H32.9173V19.4779H28.3551C27.6652 19.4778 27.1056 18.9178 27.1051 18.2279V14.3818C27.1051 13.8686 26.6891 13.4525 26.1758 13.4525H11.6462Z" fill="#FAFAFA"/>
<path d="M20.0296 21.2503C20.0296 21.0167 19.9218 20.5987 19.6341 20.0052C19.3608 19.4416 18.984 18.8369 18.5875 18.2669C18.3696 17.9536 18.1489 17.6584 17.9462 17.3945C17.7436 17.6584 17.5229 17.9536 17.305 18.2669C16.9085 18.8369 16.5317 19.4416 16.2584 20.0052C15.9706 20.5987 15.8629 21.0167 15.8629 21.2503C15.8629 22.4009 16.7957 23.3337 17.9462 23.3337C19.0968 23.3337 20.0296 22.4009 20.0296 21.2503ZM22.5296 21.2503C22.5296 23.7816 20.4775 25.8337 17.9462 25.8337C15.4149 25.8337 13.3629 23.7816 13.3629 21.2503C13.3629 20.4423 13.6718 19.6103 14.0091 18.9147C14.3607 18.1895 14.8175 17.4656 15.2542 16.8379C15.6936 16.2063 16.1297 15.6464 16.4554 15.2461C16.6188 15.0452 16.7556 14.8825 16.8525 14.7692C16.9008 14.7127 16.9394 14.6683 16.9664 14.6374C16.9799 14.6219 16.9914 14.6101 16.999 14.6016C17.0024 14.5976 17.0071 14.5918 17.0071 14.5918L17.1064 14.4925C17.3352 14.2846 17.6339 14.167 17.9462 14.167C18.2586 14.167 18.5572 14.2846 18.7861 14.4925L18.8854 14.5918C18.8854 14.5918 18.89 14.5976 18.8935 14.6016C18.9011 14.6101 18.9125 14.6219 18.9261 14.6374C18.9531 14.6683 18.9916 14.7127 19.04 14.7692C19.1369 14.8825 19.2737 15.0452 19.4371 15.2461C19.7628 15.6464 20.1989 16.2063 20.6383 16.8379C21.0749 17.4656 21.5318 18.1895 21.8834 18.9147C22.2206 19.6103 22.5296 20.4423 22.5296 21.2503Z" fill="#FAFAFA"/>
</svg>
