<svg width="40" height="40" viewBox="0 0 40 40" fill="none" xmlns="http://www.w3.org/2000/svg">
<path d="M16.667 31.6667C16.667 29.8257 18.1594 28.3333 20.0003 28.3333C21.8413 28.3333 23.3337 29.8257 23.3337 31.6667C23.3337 33.5076 21.8413 35 20.0003 35C18.1594 35 16.667 33.5076 16.667 31.6667Z" fill="#FAFAFA"/>
<path d="M16.667 20C16.667 18.159 18.1594 16.6667 20.0003 16.6667C21.8413 16.6667 23.3337 18.159 23.3337 20C23.3337 21.8409 21.8413 23.3333 20.0003 23.3333C18.1594 23.3333 16.667 21.8409 16.667 20Z" fill="#FAFAFA"/>
<path d="M16.667 8.33333C16.667 6.49239 18.1594 5 20.0003 5C21.8413 5 23.3337 6.49239 23.3337 8.33333C23.3337 10.1743 21.8413 11.6667 20.0003 11.6667C18.1594 11.6667 16.667 10.1743 16.667 8.33333Z" fill="#FAFAFA"/>
</svg>
