<svg width="40" height="40" viewBox="0 0 40 40" fill="none" xmlns="http://www.w3.org/2000/svg">
<path fill-rule="evenodd" clip-rule="evenodd" d="M19.166 24.5836C22.6178 24.5836 25.416 27.3818 25.416 30.8336C25.4159 34.2853 22.6177 37.0836 19.166 37.0836C15.7143 37.0836 12.9161 34.2853 12.916 30.8336C12.916 27.3818 15.7142 24.5836 19.166 24.5836ZM19.1628 26.6669C18.7805 26.6669 18.4698 26.9764 18.4694 27.3586V27.6842L18.1732 27.3896C17.9028 27.1191 17.4655 27.1192 17.195 27.3896C16.9246 27.66 16.9246 28.0973 17.195 28.3677L18.4694 29.6438V30.137H17.9665L16.6953 28.8658C16.4248 28.5959 15.9858 28.5955 15.7155 28.8658C15.4455 29.1361 15.4458 29.5752 15.7155 29.8456L16.0101 30.1402H15.6911C15.3088 30.1407 14.9992 30.4514 14.9993 30.8336C14.9998 31.216 15.3103 31.5257 15.6927 31.5253H16.0117L15.7155 31.8215C15.4458 32.0919 15.4456 32.5311 15.7155 32.8013C15.9857 33.0715 16.4248 33.0711 16.6953 32.8013L17.973 31.522H18.4694V32.0233L17.195 33.2978C16.9246 33.5682 16.9247 34.0071 17.195 34.2776C17.4654 34.5476 17.9028 34.5478 18.1732 34.2776L18.4694 33.9814V34.3069C18.4694 34.6894 18.7803 35.0002 19.1628 35.0002C19.5447 34.9996 19.8545 34.6889 19.8545 34.3069V33.983L20.1491 34.2776L20.2012 34.3248C20.4732 34.5466 20.8754 34.5311 21.1289 34.2776C21.3819 34.0242 21.3974 33.6233 21.1761 33.3515L21.1289 33.2978L19.8545 32.025V31.5204L20.346 31.5188L21.627 32.8013L21.679 32.8485C21.9507 33.0698 22.3517 33.0538 22.6051 32.8013C22.8586 32.5478 22.8757 32.1456 22.654 31.8736L22.6051 31.8215L22.3008 31.5172H22.641C23.0232 31.5167 23.3328 31.2059 23.3327 30.8238C23.3319 30.4416 23.0216 30.1316 22.6393 30.1321H22.3187L22.6051 29.8456C22.8755 29.5751 22.8755 29.1362 22.6051 28.8658C22.3348 28.5962 21.8972 28.5961 21.627 28.8658L20.3574 30.1337L19.8545 30.1353V29.6422L21.1289 28.3677C21.3987 28.0974 21.3986 27.6599 21.1289 27.3896C20.8585 27.1191 20.4196 27.1192 20.1491 27.3896L19.8545 27.6825V27.3586C19.8541 26.9769 19.5445 26.6676 19.1628 26.6669Z" fill="#FAFAFA"/>
<path fill-rule="evenodd" clip-rule="evenodd" d="M31.6156 5.78311C32.1037 5.29495 32.895 5.29495 33.3831 5.78311L36.7165 9.11644C37.2045 9.6046 37.2046 10.3959 36.7165 10.884L33.3831 14.2174C32.895 14.7054 32.1037 14.7054 31.6156 14.2174C31.1274 13.7292 31.1275 12.9379 31.6156 12.4498L32.8151 11.2502H31.1663C30.0157 11.2502 29.083 12.183 29.083 13.3336V15.4169H30.8327C33.364 15.4169 35.416 17.4689 35.416 20.0002V26.8329C35.4159 29.3641 33.3639 31.4162 30.8327 31.4162H28.3327C27.6424 31.4162 27.0828 30.8565 27.0827 30.1662C27.083 29.4762 27.6425 28.9162 28.3327 28.9162H30.8327C31.9832 28.9162 32.9159 27.9834 32.916 26.8329V20.0002C32.916 18.8496 31.9833 17.9169 30.8327 17.9169H29.083V20.4169C29.0829 22.718 27.2175 24.5836 24.9163 24.5836C22.6152 24.5836 20.7498 22.718 20.7497 20.4169V17.9169H17.4163V20.4169C17.4162 22.718 15.5508 24.5836 13.2497 24.5836C10.9485 24.5836 9.0831 22.718 9.08301 20.4169V17.9169H7.49935C6.34876 17.9169 5.41602 18.8496 5.41602 20.0002V26.8329C5.41611 27.9834 6.34881 28.9162 7.49935 28.9162H9.99935C10.6895 28.9162 11.249 29.4762 11.2493 30.1662C11.2493 30.8565 10.6896 31.4162 9.99935 31.4162H7.49935C4.9681 31.4162 2.91611 29.3641 2.91602 26.8329V20.0002C2.91602 17.4689 4.96804 15.4169 7.49935 15.4169H9.08301V10.0002C9.08301 9.30988 9.64265 8.75023 10.333 8.75023C11.0234 8.75023 11.583 9.30988 11.583 10.0002V15.4169H14.9163V12.9169C14.9163 10.6157 16.7818 8.75023 19.083 8.75023C21.3842 8.75023 23.2497 10.6157 23.2497 12.9169V15.4169H26.583V13.3336C26.583 10.8023 28.635 8.75023 31.1663 8.75023H32.8151L31.6156 7.55069C31.1274 7.06256 31.1275 6.27127 31.6156 5.78311ZM11.583 20.4169C11.5831 21.3373 12.3293 22.0836 13.2497 22.0836C14.1701 22.0836 14.9162 21.3373 14.9163 20.4169V17.9169H11.583V20.4169ZM23.2497 20.4169C23.2498 21.3373 23.9959 22.0836 24.9163 22.0836C25.8368 22.0836 26.5829 21.3373 26.583 20.4169V17.9169H23.2497V20.4169ZM19.083 11.2502C18.1625 11.2502 17.4163 11.9964 17.4163 12.9169V15.4169H20.7497V12.9169C20.7497 11.9964 20.0035 11.2502 19.083 11.2502Z" fill="#FAFAFA"/>
</svg>
