<svg width="40" height="40" viewBox="0 0 40 40" fill="none" xmlns="http://www.w3.org/2000/svg">
<path fill-rule="evenodd" clip-rule="evenodd" d="M22.6943 4.5332C23.3843 4.53364 23.9443 5.09475 23.9443 5.78483C23.9439 6.47454 23.384 7.03439 22.6943 7.03483H19.1331V10.9525H26.1758C28.0698 10.9525 29.6051 12.4878 29.6051 14.3818V16.9779H34.1673C34.8576 16.9779 35.4172 17.5376 35.4173 18.2279V22.1602C35.4167 22.8499 34.8573 23.4102 34.1673 23.4102H29.6051V26.0062C29.6045 27.8997 28.0695 29.4355 26.1758 29.4355H22.7806V32.7721C22.7806 32.8386 22.7743 32.9038 22.7643 32.9674H32.5007C33.191 32.9674 33.7507 33.5271 33.7507 34.2174C33.7502 34.9074 33.1907 35.4674 32.5007 35.4674H5.83398C5.1439 35.4674 4.58442 34.9074 4.58398 34.2174C4.58398 33.5271 5.14363 32.9674 5.83398 32.9674H13.5016C13.4916 32.9038 13.487 32.8386 13.487 32.7721V29.4355H11.6462C7.74621 29.4355 4.58442 26.2732 4.58398 22.3734V18.0146C4.58398 14.1144 7.74594 10.9525 11.6462 10.9525H16.6331V7.03483H13.0703C12.3802 7.03483 11.8208 6.47481 11.8203 5.78483C11.8203 5.09447 12.38 4.5332 13.0703 4.5332H22.6943ZM15.987 32.7721C15.987 32.8386 15.9807 32.9038 15.9707 32.9674H20.2969C20.2869 32.9038 20.2806 32.8386 20.2806 32.7721V29.4355H15.987V32.7721ZM11.6462 13.4525C9.12665 13.4525 7.08398 15.4951 7.08398 18.0146V22.3734C7.08442 24.8925 9.12693 26.9355 11.6462 26.9355H26.1758C26.6888 26.9355 27.1045 26.519 27.1051 26.0062V22.1602C27.1051 21.4699 27.6649 20.9103 28.3551 20.9102H32.9173V19.4779H28.3551C27.6652 19.4778 27.1056 18.9178 27.1051 18.2279V14.3818C27.1051 13.8686 26.6891 13.4525 26.1758 13.4525H11.6462Z" fill="#FAFAFA"/>
<path d="M17.7175 15.0361C18.1975 15.0364 18.587 15.4256 18.587 15.9056V16.3121L18.9572 15.943C19.2968 15.6035 19.8472 15.6035 20.1867 15.943C20.5259 16.2825 20.5261 16.833 20.1867 17.1725L18.587 18.7711V19.3904L19.2187 19.3893L20.8117 17.7975C21.1512 17.4581 21.7017 17.4582 22.0412 17.7975C22.3807 18.137 22.3806 18.6874 22.0412 19.027L21.6812 19.3859H22.0831C22.5631 19.3852 22.9528 19.7743 22.9537 20.2542C22.9543 20.7344 22.5656 21.1242 22.0854 21.1249H21.6585L22.0412 21.5075L22.1012 21.5732C22.3798 21.9147 22.3594 22.4187 22.0412 22.737C21.723 23.0549 21.2199 23.0751 20.8785 22.7971L20.8117 22.737L19.204 21.1283L18.587 21.1294V21.7623L20.1867 23.362L20.2467 23.4288C20.5246 23.7702 20.5045 24.2734 20.1867 24.5915C19.8684 24.9098 19.3644 24.93 19.0229 24.6515L18.9572 24.5915L18.587 24.2213V24.6289C18.587 25.1089 18.1975 25.4981 17.7175 25.4984C17.2373 25.4984 16.848 25.1091 16.848 24.6289V24.219L16.4767 24.5915C16.1372 24.931 15.5867 24.9309 15.2472 24.5915C14.9078 24.2519 14.9077 23.7015 15.2472 23.362L16.848 21.7611V21.1317H16.2242L14.6211 22.737C14.2815 23.0763 13.731 23.0764 13.3916 22.737C13.0524 22.3975 13.0524 21.847 13.3916 21.5075L13.7629 21.135L13.3621 21.1362C12.8819 21.1368 12.4921 20.748 12.4915 20.2678C12.4912 19.7879 12.8798 19.3978 13.3598 19.3972L13.7606 19.3961L13.3916 19.027C13.0524 18.6874 13.0523 18.1369 13.3916 17.7975C13.731 17.458 14.2815 17.4583 14.6211 17.7975L16.2163 19.3927H16.848V18.7734L15.2472 17.1725C14.9076 16.833 14.9077 16.2826 15.2472 15.943C15.5867 15.6034 16.1371 15.6034 16.4767 15.943L16.848 16.3143V15.9056C16.848 15.4254 17.2373 15.0361 17.7175 15.0361Z" fill="#FAFAFA"/>
</svg>
