<svg width="40" height="40" viewBox="0 0 40 40" fill="none" xmlns="http://www.w3.org/2000/svg">
<path d="M29.7881 7.09961C30.5826 7.17867 31.3295 7.53094 31.8991 8.10059L32.1302 8.35449C32.6363 8.97216 32.9162 9.7492 32.9163 10.555V32.7783C32.9162 33.699 32.55 34.5818 31.8991 35.2327C31.2482 35.8837 30.3654 36.2499 29.4447 36.25H10.5547C9.74888 36.2499 8.97183 35.97 8.35417 35.4639L8.10026 35.2327C7.44916 34.5817 7.08315 33.6989 7.08301 32.7783V10.555C7.08315 9.6343 7.44927 8.75161 8.10026 8.10059L8.35417 7.86947C8.97192 7.36324 9.74899 7.08346 10.5547 7.08333C11.245 7.08333 11.8047 7.64298 11.8047 8.33333C11.8047 9.02369 11.245 9.58333 10.5547 9.58333C10.3616 9.58344 10.1743 9.64061 10.016 9.74609L9.86784 9.86816C9.68564 10.0504 9.58315 10.2974 9.58301 10.555V32.7783C9.58315 33.036 9.68577 33.2831 9.86784 33.4652L10.016 33.5872C10.1744 33.6928 10.3617 33.7499 10.5547 33.75H29.4447C29.7022 33.7499 29.9494 33.6473 30.1315 33.4652C30.3137 33.283 30.4162 33.0359 30.4163 32.7783V10.555C30.4162 10.3621 30.3591 10.1747 30.2536 10.0163L30.1315 9.86816C29.995 9.73164 29.8218 9.64029 29.6351 9.60286L29.4447 9.58333L29.3161 9.57682C28.6859 9.5127 28.1947 8.98046 28.1947 8.33333C28.1947 7.64298 28.7543 7.08333 29.4447 7.08333L29.7881 7.09961Z" fill="#FAFAFA"/>
<path d="M17.8447 16.0889C19.057 15.5868 20.3924 15.4552 21.6794 15.7113C22.9661 15.9673 24.1486 16.5985 25.0762 17.526C26.0037 18.4536 26.6349 19.6362 26.8909 20.9229C27.147 22.2098 27.0154 23.5453 26.5133 24.7575C26.0111 25.9694 25.1611 27.0055 24.0703 27.7344C22.9793 28.4634 21.696 28.8525 20.3838 28.8525H18.5283L18.9596 29.2839C19.4475 29.772 19.4477 30.5634 18.9596 31.0514C18.4715 31.5387 17.68 31.539 17.1921 31.0514L14.6286 28.488C14.5482 28.4075 14.4851 28.3135 14.43 28.2161C14.3266 28.0342 14.2624 27.8267 14.2624 27.6025C14.2624 27.2574 14.4023 26.9449 14.6286 26.7188L17.1921 24.1553C17.68 23.6673 18.4714 23.6676 18.9596 24.1553C19.4475 24.6435 19.4477 25.4348 18.9596 25.9229L18.5299 26.3525H20.3838C21.2015 26.3525 22.0021 26.1102 22.682 25.6559C23.3616 25.2017 23.8908 24.5557 24.2038 23.8005C24.4775 23.1396 24.5754 22.4203 24.4886 21.7139L24.4398 21.4111C24.2803 20.6093 23.8868 19.8718 23.3086 19.2936C22.8028 18.7878 22.1748 18.4242 21.4889 18.234L21.1911 18.1624C20.3891 18.0029 19.5573 18.0855 18.8018 18.3984C18.0466 18.7114 17.4005 19.2406 16.9463 19.9202C16.492 20.6001 16.2497 21.4007 16.2497 22.2184C16.2494 22.9086 15.6899 23.4684 14.9997 23.4684C14.3095 23.4684 13.7499 22.9086 13.7497 22.2184C13.7497 20.9063 14.1388 19.6229 14.8678 18.5319C15.5967 17.4411 16.6328 16.5911 17.8447 16.0889Z" fill="#FAFAFA"/>
<path fill-rule="evenodd" clip-rule="evenodd" d="M22.9993 3.75C24.0331 3.75 24.8736 4.3118 25.4131 5.03092C25.9522 5.74973 26.2495 6.68556 26.2497 7.66602V9.00065C26.2495 9.9811 25.9522 10.9169 25.4131 11.6357C24.8736 12.3549 24.0331 12.9167 22.9993 12.9167H17C15.9663 12.9167 15.1258 12.3549 14.5863 11.6357C14.0472 10.9169 13.7498 9.9811 13.7497 9.00065V7.66602C13.7498 6.68556 14.0472 5.74973 14.5863 5.03092C15.1258 4.3118 15.9663 3.75 17 3.75H22.9993ZM17 6.25C16.9294 6.25 16.7693 6.28578 16.585 6.53158C16.4006 6.77769 16.2498 7.17463 16.2497 7.66602V9.00065C16.2498 9.49203 16.4006 9.88898 16.585 10.1351C16.7693 10.3809 16.9294 10.4167 17 10.4167H22.9993C23.07 10.4167 23.23 10.3809 23.4144 10.1351C23.5987 9.88898 23.7495 9.49203 23.7497 9.00065V7.66602C23.7495 7.17463 23.5987 6.77769 23.4144 6.53158C23.23 6.28578 23.07 6.25 22.9993 6.25H17Z" fill="#FAFAFA"/>
</svg>
