<svg width="40" height="40" viewBox="0 0 40 40" fill="none" xmlns="http://www.w3.org/2000/svg">
<path fill-rule="evenodd" clip-rule="evenodd" d="M6.03861 18.7602C6.67586 18.7602 7.19246 19.2808 7.19246 19.9229C7.19246 20.9933 8.05345 21.8609 9.11553 21.8609H33.7309C34.3682 21.8609 34.8848 22.3815 34.8848 23.0237C34.8848 23.6659 34.3682 24.1865 33.7309 24.1865H30.9785C31.017 24.3702 31.0386 24.5622 31.0386 24.7619V29.9672C31.0386 30.1461 31.0201 30.3188 30.989 30.485C32.5307 30.6533 33.7309 31.9677 33.7309 33.5661C33.7309 35.2786 32.3533 36.6668 30.654 36.6668C28.9547 36.6668 27.5771 35.2786 27.5771 33.5661C27.5771 33.232 27.6303 32.9106 27.7273 32.6092C27.4461 32.5411 27.1673 32.4257 26.901 32.2549L21.4232 28.7408L15.9455 32.2549C15.6787 32.426 15.3993 32.5412 15.1176 32.6092C15.2147 32.9108 15.2694 33.2319 15.2694 33.5661C15.2694 35.2786 13.8918 36.6668 12.1925 36.6668C10.4931 36.6668 9.11553 35.2786 9.11553 33.5661C9.11553 31.9682 10.315 30.654 11.8559 30.485C11.8248 30.3188 11.8079 30.146 11.8078 29.9672V24.7619C11.8079 24.5622 11.8295 24.3702 11.8679 24.1865H9.11553C6.77895 24.1865 4.88477 22.2776 4.88477 19.9229C4.88477 19.2808 5.40136 18.7602 6.03861 18.7602ZM12.1925 32.7909C11.7676 32.7909 11.4232 33.1379 11.4232 33.5661C11.4232 33.9942 11.7676 34.3412 12.1925 34.3412C12.6173 34.3412 12.9617 33.9942 12.9617 33.5661C12.9617 33.1379 12.6173 32.7909 12.1925 32.7909ZM30.654 32.7909C30.2292 32.7909 29.8848 33.1379 29.8848 33.5661C29.8848 33.9942 30.2292 34.3412 30.654 34.3412C31.0788 34.3412 31.4232 33.9942 31.4232 33.5661C31.4232 33.1379 31.0788 32.7909 30.654 32.7909ZM14.706 24.4348C14.4502 24.2716 14.116 24.4567 14.1155 24.7619V29.9672C14.116 30.2724 14.4502 30.4574 14.706 30.2942L19.2733 27.3645L14.706 24.4348ZM28.7309 24.7619C28.7305 24.4567 28.3963 24.2716 28.1405 24.4348L23.5717 27.3645L28.1405 30.2942C28.3963 30.4574 28.7305 30.2724 28.7309 29.9672V24.7619ZM18.6152 24.1865L21.4232 25.9867L24.2312 24.1865H18.6152Z" fill="#FAFAFA"/>
<path fill-rule="evenodd" clip-rule="evenodd" d="M28.3463 3.3335C29.2644 3.3335 30.1446 3.70128 30.7937 4.35548C31.4148 4.9814 31.7718 5.82058 31.8018 6.70226C31.8058 6.74158 31.8078 6.78149 31.8078 6.82187V16.1242C31.8078 17.0494 31.4429 17.9364 30.7937 18.5906C30.1446 19.2448 29.2644 19.6126 28.3463 19.6126H14.5001C13.5821 19.6126 12.7019 19.2448 12.0527 18.5906C11.4036 17.9364 11.0386 17.0494 11.0386 16.1242V6.82187C11.0386 6.78149 11.0406 6.74158 11.0446 6.70226C11.0747 5.82058 11.4316 4.9814 12.0527 4.35548C12.7019 3.70128 13.5821 3.3335 14.5001 3.3335H28.3463ZM23.2502 12.8523L23.2486 12.8508C22.6987 13.1969 22.0641 13.3822 21.4157 13.3822C20.767 13.3822 20.1314 13.1973 19.5813 12.8508L13.3463 8.92034V16.1242L13.3688 16.3528C13.4133 16.576 13.5222 16.7829 13.6843 16.9463C13.9007 17.1644 14.1941 17.287 14.5001 17.287H28.3463L28.5732 17.2643C28.7947 17.2195 29 17.1097 29.1621 16.9463C29.3785 16.7283 29.5002 16.4326 29.5002 16.1242V8.91731L23.2502 12.8523ZM14.5001 5.65908C14.1941 5.65908 13.9007 5.78167 13.6843 5.99974C13.6055 6.07916 13.5429 6.17083 13.4905 6.26773L20.8042 10.8795L20.947 10.9552C21.094 11.0211 21.2536 11.0567 21.4157 11.0567C21.6319 11.0566 21.8439 10.995 22.0272 10.8795L29.3544 6.26773C29.3021 6.17108 29.2407 6.07899 29.1621 5.99974C28.9457 5.78167 28.6523 5.65908 28.3463 5.65908H14.5001Z" fill="#FAFAFA"/>
</svg>
