<svg width="40" height="40" viewBox="0 0 40 40" fill="none" xmlns="http://www.w3.org/2000/svg">
<path fill-rule="evenodd" clip-rule="evenodd" d="M19.9056 3.75C21.0327 3.75 22.1148 4.19819 22.9118 4.99512C23.7084 5.79202 24.1552 6.87285 24.1553 7.99967C24.1553 9.12684 23.7088 10.2088 22.9118 11.0059C22.4171 11.5005 21.8124 11.8589 21.1556 12.0605V15.7503H24.9056C25.5959 15.7503 26.1556 16.31 26.1556 17.0003C26.1554 17.6905 25.5958 18.2503 24.9056 18.2503H21.1556V30.6852C23.0524 30.4972 24.8896 29.8905 26.5299 28.8997C28.23 27.8727 29.6619 26.4663 30.7226 24.7982L29.4808 25.4427C28.8681 25.7602 28.1141 25.5213 27.7962 24.9089C27.4788 24.2961 27.7174 23.5404 28.3301 23.2227L30.9017 21.8896L31.0384 21.8294C31.1783 21.7769 31.3276 21.7497 31.4779 21.7497C31.7706 21.7497 32.0598 21.8073 32.3291 21.9173L32.5911 22.0443L32.8353 22.2054C32.99 22.3225 33.129 22.4596 33.2487 22.6123L33.4131 22.8516L33.5449 23.112C33.6215 23.2903 33.6743 23.4782 33.7028 23.6702L33.7272 23.9616L33.7142 24.2529C33.6815 24.5419 33.5926 24.823 33.4521 25.0798L33.4505 25.0781C32.1496 27.5391 30.2051 29.6006 27.8223 31.04C25.7916 32.2667 23.5088 33.0001 21.1556 33.195V35C21.1552 35.6901 20.5957 36.25 19.9056 36.25C19.2156 36.2498 18.6559 35.69 18.6556 35V33.195C16.3022 33.0002 14.0181 32.2667 11.9873 31.04C9.59957 29.5974 7.65 27.5297 6.34927 25.0618L6.3509 25.0602C6.17023 24.7225 6.07586 24.3448 6.08234 23.9616L6.10676 23.6702C6.1494 23.3824 6.24714 23.1035 6.39647 22.8516L6.56086 22.6123C6.74047 22.383 6.96372 22.1894 7.21841 22.0443L7.48046 21.9173C7.74962 21.8072 8.03905 21.7498 8.33169 21.7497L8.48143 21.7594C8.62958 21.7772 8.77464 21.8207 8.90787 21.8896L11.4795 23.2227C12.0924 23.5404 12.3327 24.296 12.015 24.9089C11.6972 25.5217 10.9416 25.7604 10.3288 25.4427L9.08527 24.7982C10.1461 26.4668 11.5808 27.8725 13.2812 28.8997C14.9217 29.8906 16.7589 30.4988 18.6556 30.6868V18.2503H14.9056C14.2155 18.2502 13.6558 17.6904 13.6556 17.0003C13.6556 16.3101 14.2154 15.7505 14.9056 15.7503H18.6556V12.0589C17.9997 11.8571 17.3953 11.4999 16.901 11.0059C16.1041 10.2088 15.6559 9.12677 15.6559 7.99967C15.656 6.8727 16.1042 5.79205 16.901 4.99512C17.6979 4.19824 18.7786 3.75017 19.9056 3.75ZM19.9056 6.25C19.4417 6.25017 18.9966 6.43466 18.6686 6.7627C18.3406 7.09079 18.156 7.53574 18.1559 7.99967C18.1559 8.46358 18.3407 8.90851 18.6686 9.23665C18.9966 9.56469 19.4417 9.74918 19.9056 9.74935C20.3696 9.74935 20.8144 9.56474 21.1426 9.23665C21.4708 8.90846 21.6553 8.4638 21.6553 7.99967C21.6552 7.53566 21.4707 7.09081 21.1426 6.7627C20.8144 6.43481 20.3695 6.25 19.9056 6.25Z" fill="#FAFAFA"/>
</svg>
