<svg width="40" height="40" viewBox="0 0 40 40" fill="none" xmlns="http://www.w3.org/2000/svg">
<path fill-rule="evenodd" clip-rule="evenodd" d="M12.2848 12.7084C12.2848 12.8725 12.3164 13.0353 12.3792 13.1869C12.442 13.3386 12.535 13.4761 12.651 13.5922C12.7671 13.7083 12.9047 13.8012 13.0563 13.864C13.2079 13.9268 13.3707 13.9584 13.5348 13.9584C13.6989 13.9584 13.8617 13.9268 14.0133 13.864C14.165 13.8012 14.3025 13.7083 14.4186 13.5922C14.5347 13.4761 14.6276 13.3386 14.6904 13.1869C14.7532 13.0353 14.7848 12.8725 14.7848 12.7084H17.07L17.2393 12.7166C18.0799 12.8017 18.7367 13.512 18.7367 14.3751V26.8751L18.7269 27.046C18.6413 27.8862 17.9311 28.5417 17.0684 28.5417H9.99967L9.82878 28.5336C9.04473 28.4538 8.42098 27.83 8.34115 27.046L8.33301 26.8751V14.3751C8.33301 13.4546 9.0792 12.7084 9.99967 12.7084H12.2848ZM10.833 26.0417H16.2367V15.2084H10.833V26.0417Z" fill="#FAFAFA"/>
<path fill-rule="evenodd" clip-rule="evenodd" d="M25.2015 12.7084C25.2015 12.8725 25.2331 13.0353 25.2959 13.1869C25.3587 13.3386 25.4516 13.4761 25.5677 13.5922C25.6838 13.7083 25.8213 13.8012 25.973 13.864C26.1246 13.9268 26.2874 13.9584 26.4515 13.9584C26.6156 13.9584 26.7784 13.9268 26.93 13.864C27.0817 13.8012 27.2192 13.7083 27.3353 13.5922C27.4514 13.4761 27.5443 13.3386 27.6071 13.1869C27.6699 13.0353 27.7015 12.8725 27.7015 12.7084H29.9867L30.1559 12.7166C30.9965 12.8017 31.6533 13.512 31.6533 14.3751V21.7888L31.6436 21.9597C31.558 22.7998 30.8477 23.4553 29.985 23.4555H22.9163L22.7454 23.4473C21.9614 23.3675 21.3376 22.7438 21.2578 21.9597L21.2497 21.7888V14.3751C21.2497 13.4546 21.9959 12.7084 22.9163 12.7084H25.2015ZM23.7497 20.9555H29.1533V15.2084H23.7497V20.9555Z" fill="#FAFAFA"/>
<path d="M13.5348 11.4584C13.8664 11.4584 14.1842 11.5902 14.4186 11.8246C14.653 12.059 14.7848 12.3769 14.7848 12.7084H12.2848C12.2848 12.3769 12.4166 12.059 12.651 11.8246C12.8855 11.5902 13.2033 11.4584 13.5348 11.4584Z" fill="#FAFAFA"/>
<path d="M26.4515 11.4584C26.783 11.4584 27.1009 11.5902 27.3353 11.8246C27.5697 12.059 27.7015 12.3769 27.7015 12.7084H25.2015C25.2015 12.3769 25.3333 12.059 25.5677 11.8246C25.8021 11.5902 26.12 11.4584 26.4515 11.4584Z" fill="#FAFAFA"/>
<path fill-rule="evenodd" clip-rule="evenodd" d="M32.083 6.66675C34.6143 6.66675 36.6663 8.71878 36.6663 11.2501V28.7501C36.6663 31.2814 34.6143 33.3334 32.083 33.3334H7.91634C5.38504 33.3334 3.33301 31.2814 3.33301 28.7501V11.2501C3.33301 8.71878 5.38504 6.66675 7.91634 6.66675H32.083ZM7.91634 9.16675C6.76575 9.16675 5.83301 10.0995 5.83301 11.2501V28.7501C5.83301 29.9007 6.76575 30.8334 7.91634 30.8334H32.083C33.2336 30.8334 34.1663 29.9007 34.1663 28.7501V11.2501C34.1663 10.0995 33.2336 9.16675 32.083 9.16675H7.91634Z" fill="#FAFAFA"/>
</svg>
