<svg width="40" height="40" viewBox="0 0 40 40" fill="none" xmlns="http://www.w3.org/2000/svg">
<path fill-rule="evenodd" clip-rule="evenodd" d="M34.0625 9.375C34.7529 9.375 35.3125 9.93464 35.3125 10.625C35.3125 11.3154 34.7529 11.875 34.0625 11.875H33.75V30.9375C33.75 31.6279 33.1904 32.1875 32.5 32.1875C31.8096 32.1875 31.25 31.6279 31.25 30.9375V27.5H27.8125C26.6522 27.5 25.5389 27.0395 24.7184 26.2191C23.898 25.3986 23.4375 24.2853 23.4375 23.125V18.125H8.75V30.9375C8.75 31.6279 8.19036 32.1875 7.5 32.1875C6.80964 32.1875 6.25 31.6279 6.25 30.9375V11.875H5.9375C5.24714 11.875 4.6875 11.3154 4.6875 10.625C4.6875 9.93464 5.24714 9.375 5.9375 9.375H34.0625ZM25.9375 23.125C25.9375 23.6223 26.1344 24.0999 26.486 24.4515C26.8376 24.8031 27.3152 25 27.8125 25H31.25V18.125H25.9375V23.125ZM25.9375 15.625H31.25V11.875H25.9375V15.625ZM8.75 15.625H23.4375V11.875H8.75V15.625Z" fill="#FAFAFA"/>
</svg>
