<svg width="40" height="40" viewBox="0 0 40 40" fill="none" xmlns="http://www.w3.org/2000/svg">
<path d="M19.9977 12.8693C20.6879 12.8696 21.2477 13.4291 21.2477 14.1193V14.7508C21.6046 14.7298 21.9683 14.8576 22.2324 15.1382C22.7049 15.6415 22.6804 16.4333 22.1771 16.9058L21.2477 17.7765V19.4855L22.6784 18.6717L22.9811 17.4331L23.0169 17.311C23.2279 16.7179 23.8648 16.3696 24.4964 16.5233C24.8647 16.6134 25.1503 16.8596 25.3118 17.1694L25.9629 16.7983C26.5625 16.4567 27.3314 16.6634 27.68 17.259C28.0284 17.8546 27.8251 18.6145 27.2259 18.9565L26.5749 19.3276C26.7663 19.6208 26.8395 19.9879 26.7344 20.3481C26.5417 21.0066 25.8446 21.3837 25.1784 21.1896L23.9398 20.8283L22.5221 21.6356L23.9414 22.4445L25.1784 22.0832L25.3037 22.0539C25.9298 21.9376 26.5536 22.3075 26.7344 22.9246C26.8395 23.2847 26.7661 23.6521 26.5749 23.9451L27.2259 24.3162C27.8255 24.6581 28.0284 25.418 27.68 26.0138C27.3314 26.6094 26.5625 26.8162 25.9629 26.4744L25.3135 26.1034C25.152 26.4134 24.8664 26.6592 24.498 26.7495C23.8242 26.914 23.1442 26.5076 22.9811 25.8413L22.6784 24.6027L21.2477 23.7856V25.4002L22.1771 26.2726C22.6801 26.7451 22.7048 27.5353 22.2324 28.0386C21.9682 28.3195 21.6049 28.4454 21.2477 28.4243V29.1535C21.2477 29.8436 20.6878 30.4032 19.9977 30.4035C19.3079 30.4028 18.7478 29.8434 18.7477 29.1535V28.4243C18.3903 28.4454 18.0256 28.32 17.7614 28.0386C17.29 27.5357 17.3149 26.745 17.8167 26.2726L18.7477 25.3986V23.7873L17.234 24.6515L16.9313 25.8885C16.7682 26.555 16.0901 26.9632 15.416 26.7983C15.0477 26.708 14.7603 26.4622 14.599 26.1522L14.0342 26.4744C13.4345 26.8157 12.6654 26.6095 12.3171 26.0138C11.9693 25.4182 12.1736 24.658 12.7728 24.3162L13.3359 23.9956C13.1448 23.7026 13.0747 23.3334 13.1797 22.9735C13.3722 22.3153 14.0682 21.9388 14.734 22.132L15.971 22.4933L17.4749 21.6356L15.971 20.7795L14.7357 21.1408C14.0695 21.3345 13.3721 20.9579 13.1797 20.2993C13.0747 19.9394 13.1465 19.5718 13.3376 19.2788L12.7728 18.9565C12.1735 18.6146 11.9705 17.8546 12.3187 17.259C12.6672 16.6633 13.4361 16.4568 14.0358 16.7983L14.599 17.1206C14.7604 16.8108 15.0479 16.5648 15.416 16.4744C16.0901 16.3094 16.7698 16.7177 16.9329 17.3843L17.234 18.6213L18.7477 19.4839V17.7782L17.8167 16.9058L17.7288 16.813C17.314 16.3351 17.3193 15.6098 17.7614 15.1382C18.0255 14.857 18.3905 14.7298 18.7477 14.7508V14.1193C18.7477 13.4293 19.3079 12.8699 19.9977 12.8693Z" fill="#FAFAFA"/>
<path fill-rule="evenodd" clip-rule="evenodd" d="M24.5827 3.32666C25.273 3.32666 25.8327 3.8863 25.8327 4.57666V6.74137L29.9993 6.74788C31.8403 6.74788 33.3327 8.24027 33.3327 10.0812V33.3332L33.3148 33.6733C33.1443 35.3545 31.7254 36.6665 29.9993 36.6665H9.99935C8.15841 36.6665 6.66602 35.1741 6.66602 33.3332V10.0812C6.66602 8.24027 8.1584 6.74788 9.99935 6.74788H14.166V4.58317C14.166 3.89282 14.7257 3.33317 15.416 3.33317C16.1064 3.33317 16.666 3.89282 16.666 4.58317V6.74788L23.3327 6.74137V4.57666C23.3327 3.8863 23.8923 3.32666 24.5827 3.32666ZM9.99935 9.1665C9.53911 9.1665 9.16602 9.5396 9.16602 9.99984V33.2518C9.16602 33.712 9.53912 34.0851 9.99935 34.0851H29.9993C30.4596 34.0851 30.8327 33.712 30.8327 33.2518V9.99984C30.8327 9.5396 30.4596 9.1665 29.9993 9.1665H9.99935Z" fill="#FAFAFA"/>
</svg>
