<svg width="40" height="40" viewBox="0 0 40 40" fill="none" xmlns="http://www.w3.org/2000/svg">
<path fill-rule="evenodd" clip-rule="evenodd" d="M14.0003 3.75C15.3924 3.75017 16.7269 4.30378 17.7113 5.28809C18.3955 5.9723 18.8712 6.82613 19.098 7.75065H21.0007C21.6907 7.751 22.2507 8.31051 22.2507 9.00065C22.2502 9.69042 21.6904 10.2503 21.0007 10.2507H19.098C18.8711 11.1746 18.3953 12.0276 17.7113 12.7116C17.2193 13.2036 16.6391 13.5862 16.0088 13.8477C17.0256 14.0469 17.9689 14.5448 18.7122 15.2881C19.6968 16.2727 20.2503 17.6083 20.2503 19.0007V25C20.2503 25.862 19.9077 26.6887 19.2982 27.2982C18.9951 27.6013 18.6382 27.838 18.25 27.9997V32.0003C18.2499 33.1274 17.8018 34.2079 17.0049 35.0049C16.2079 35.8018 15.1274 36.25 14.0003 36.25C12.8732 36.25 11.7928 35.8018 10.9958 35.0049C10.1988 34.2079 9.75074 33.1274 9.75065 32.0003V27.9997C9.3625 27.838 9.00559 27.6013 8.70247 27.2982C8.09298 26.6887 7.75033 25.862 7.75033 25V19.0007C7.75033 17.6083 8.30385 16.2727 9.28841 15.2881C10.0313 14.5452 10.974 14.0471 11.9902 13.8477C11.3598 13.5862 10.7796 13.2035 10.2878 12.7116C9.60382 12.0276 9.12792 11.1746 8.90104 10.2507H7C6.30992 10.2507 5.75044 9.69063 5.75 9.00065C5.75 8.3103 6.30964 7.75065 7 7.75065H8.90104C9.12781 6.82613 9.60355 5.9723 10.2878 5.28809C11.2723 4.30352 12.6079 3.75 14.0003 3.75ZM13.001 16.25C12.2716 16.25 11.5717 16.5399 11.056 17.0557C10.5403 17.5714 10.2503 18.2713 10.2503 19.0007V25C10.2503 25.1989 10.3294 25.3899 10.4701 25.5306C10.6107 25.6712 10.8018 25.7503 11.0007 25.7503C11.6909 25.7505 12.2507 26.3101 12.2507 27.0003V32.0003C12.2507 32.4643 12.4352 32.9092 12.7633 33.2373C13.0915 33.5654 13.5363 33.75 14.0003 33.75C14.4644 33.75 14.9091 33.5654 15.2373 33.2373C15.5654 32.9092 15.7499 32.4643 15.75 32.0003V27.0003C15.75 26.3101 16.3098 25.7505 17 25.7503C17.1988 25.7503 17.39 25.6712 17.5306 25.5306C17.6713 25.3899 17.7503 25.1989 17.7503 25V19.0007C17.7503 18.2713 17.4604 17.5714 16.9447 17.0557C16.4289 16.5399 15.729 16.25 14.9997 16.25H13.001ZM11.5524 10.2507C11.6821 10.5041 11.8503 10.7389 12.0553 10.944C12.5711 11.4597 13.271 11.7497 14.0003 11.7497C14.7294 11.7495 15.4281 11.4596 15.9437 10.944C16.1488 10.7389 16.317 10.5041 16.4466 10.2507H11.5524ZM14.0003 6.25C13.271 6.25 12.5711 6.53994 12.0553 7.05566C11.8499 7.26107 11.6821 7.49659 11.5524 7.75065H16.4466C16.3169 7.49659 16.1491 7.26107 15.9437 7.05566C15.4281 6.54019 14.7294 6.25017 14.0003 6.25Z" fill="#FAFAFA"/>
<path d="M32.9993 3.75C33.6897 3.75 34.2493 4.30964 34.2493 5V9.00065C34.2492 10.3928 33.6957 11.7272 32.7113 12.7116C32.0273 13.3955 31.1741 13.8698 30.2503 14.0967V35C30.2503 35.6904 29.6907 36.25 29.0003 36.25C28.31 36.25 27.7503 35.6904 27.7503 35V14.0967C26.8259 13.8699 25.9719 13.3957 25.2878 12.7116C24.3034 11.7272 23.7498 10.3927 23.7497 9.00065V5C23.7497 4.30964 24.3093 3.75 24.9997 3.75C25.69 3.75 26.2497 4.30964 26.2497 5V9.00065C26.2498 9.72969 26.5399 10.4285 27.0553 10.944C27.2607 11.1494 27.4963 11.3172 27.7503 11.4469V5C27.7503 4.30964 28.31 3.75 29.0003 3.75C29.6907 3.75 30.2503 4.30964 30.2503 5V11.4453C30.5036 11.3157 30.7387 11.149 30.9437 10.944C31.4593 10.4284 31.7492 9.72976 31.7493 9.00065V5C31.7493 4.30975 32.3091 3.75018 32.9993 3.75Z" fill="#FAFAFA"/>
</svg>
