<svg width="40" height="40" viewBox="0 0 40 40" fill="none" xmlns="http://www.w3.org/2000/svg">
<path fill-rule="evenodd" clip-rule="evenodd" d="M26.1123 20.0164C29.8596 20.0169 32.8991 23.0546 32.8994 26.8019C32.8994 28.2239 32.4588 29.5428 31.7113 30.6333L35.93 34.8504C36.4176 35.3385 36.4176 36.1316 35.93 36.6196C35.442 37.1077 34.649 37.1074 34.1608 36.6196L29.9437 32.4009C28.8534 33.1484 27.5341 33.5889 26.1123 33.589C22.3647 33.5887 19.3268 30.5496 19.3268 26.8019C19.3271 23.0545 22.3649 20.0167 26.1123 20.0164ZM26.1123 22.5164C23.7456 22.5167 21.8271 24.4352 21.8268 26.8019C21.8268 29.1689 23.7454 31.0887 26.1123 31.089C28.479 31.0886 30.3994 29.1688 30.3994 26.8019C30.3991 24.4353 28.4789 22.5169 26.1123 22.5164Z" fill="#FAFAFA"/>
<path fill-rule="evenodd" clip-rule="evenodd" d="M25.7884 3.3335C26.4788 3.3335 27.0384 3.89314 27.0384 4.5835V6.66683H29.1217C31.6531 6.66683 33.7051 8.71886 33.7051 11.2502V17.0835C33.7051 17.7739 33.1454 18.3335 32.4551 18.3335C31.7647 18.3335 31.2051 17.7739 31.2051 17.0835V16.6668H6.20508V30.4168C6.20508 31.5674 7.13782 32.5002 8.28841 32.5002H17.4551C18.1454 32.5002 18.7051 33.0598 18.7051 33.7502C18.7051 34.4405 18.1454 35.0002 17.4551 35.0002H8.28841C5.75711 35.0002 3.70508 32.9481 3.70508 30.4168V11.2502C3.70508 8.71886 5.75711 6.66683 8.28841 6.66683H10.3717V4.5835C10.3717 3.89314 10.9314 3.3335 11.6217 3.3335C12.3121 3.3335 12.8717 3.89314 12.8717 4.5835V6.66683H24.5384V4.5835C24.5384 3.89314 25.0981 3.3335 25.7884 3.3335ZM8.28841 9.16683C7.13782 9.16683 6.20508 10.0996 6.20508 11.2502V14.1668H31.2051V11.2502C31.2051 10.0996 30.2723 9.16683 29.1217 9.16683H8.28841Z" fill="#FAFAFA"/>
</svg>
