<svg width="40" height="40" viewBox="0 0 40 40" fill="none" xmlns="http://www.w3.org/2000/svg">
<path fill-rule="evenodd" clip-rule="evenodd" d="M29.528 29.2806C29.9009 29.2701 30.2607 29.4277 30.5062 29.7087C30.7915 30.0355 31.3591 30.7615 31.862 31.5397C32.1141 31.9299 32.3689 32.3599 32.5635 32.7783C32.7399 33.1578 32.9424 33.6835 32.9427 34.2122C32.9425 35.3051 32.4833 36.1695 31.7659 36.7301C31.0917 37.2566 30.2707 37.4557 29.5654 37.4561C28.8599 37.4561 28.038 37.2569 27.3633 36.7301C26.6455 36.1695 26.1867 35.3055 26.1865 34.2122C26.1868 33.6692 26.3948 33.1372 26.5788 32.749C26.7794 32.3258 27.04 31.8943 27.2949 31.5088C27.8047 30.7379 28.3725 30.028 28.5775 29.764L28.6686 29.6598C28.8938 29.4286 29.2018 29.2902 29.528 29.2806ZM29.3799 32.8874C29.1579 33.2231 28.968 33.5457 28.8379 33.82C28.6926 34.1268 28.6866 34.2417 28.6865 34.2122C28.6866 34.3989 28.7233 34.5144 28.7565 34.5833C28.7899 34.6524 28.8367 34.7102 28.9014 34.7607C29.0451 34.8728 29.2891 34.9561 29.5654 34.9561C29.8412 34.9557 30.0844 34.8727 30.2279 34.7607C30.2922 34.7103 30.3395 34.6521 30.3727 34.5833C30.4059 34.5143 30.4426 34.3983 30.4427 34.2122C30.4427 34.2535 30.4409 34.1443 30.2962 33.833C30.1685 33.5584 29.9807 33.2334 29.7624 32.8955C29.6999 32.7989 29.6341 32.7043 29.5703 32.6107C29.5073 32.7015 29.4418 32.7938 29.3799 32.8874Z" fill="#FAFAFA"/>
<path fill-rule="evenodd" clip-rule="evenodd" d="M16.6667 2.33398C17.357 2.33398 17.9167 2.89363 17.9167 3.58398C17.9167 4.27434 17.357 4.83398 16.6667 4.83398H15.9163V8.42936C15.9184 8.83157 16.0764 9.21134 16.346 9.4873C16.6148 9.76234 16.9729 9.91341 17.3405 9.91536H18.75V8.58398C18.75 7.89363 19.3096 7.33398 20 7.33398C20.6904 7.33398 21.25 7.89363 21.25 8.58398V9.91536H23.9925C26.8078 9.91536 29.5027 11.0581 31.486 13.0843C33.3445 14.9831 34.4376 17.5119 34.5703 20.1725L34.5833 20.7064V24.0007H35C35.6904 24.0007 36.25 24.5603 36.25 25.2507C36.25 25.941 35.6904 26.5007 35 26.5007H23.3333C22.643 26.5007 22.0833 25.941 22.0833 25.2507C22.0833 24.5603 22.643 24.0007 23.3333 24.0007H24.0837V22.0719C24.0816 21.6697 23.9236 21.29 23.654 21.014C23.4189 20.7735 23.116 20.628 22.7979 20.5941L22.6595 20.5859H21.25V21.9173C21.25 22.6077 20.6904 23.1673 20 23.1673C19.3096 23.1673 18.75 22.6077 18.75 21.9173V20.5859H16.0075C13.1922 20.5859 10.4973 19.4432 8.514 17.417C6.53165 15.3917 5.42084 12.6492 5.41667 9.79492V4.83398H5C4.30964 4.83398 3.75 4.27434 3.75 3.58398C3.75 2.89363 4.30964 2.33398 5 2.33398H16.6667ZM21.25 12.4154V18.0859H22.6725C23.7172 18.0915 24.7129 18.5192 25.4427 19.2659C26.1715 20.0117 26.5784 21.0163 26.5837 22.0589V24.0007H32.0833V20.7096L32.0719 20.2962C31.9691 18.2374 31.1239 16.29 29.6989 14.834C28.1797 13.2818 26.1267 12.4154 23.9925 12.4154H21.25ZM7.91667 4.83398V9.79167C7.9199 12.0018 8.78098 14.1142 10.3011 15.6673C11.8203 17.2195 13.8733 18.0859 16.0075 18.0859H18.75V12.4154H17.3275C16.2828 12.4098 15.2871 11.9821 14.5573 11.2354C13.8285 10.4896 13.4216 9.485 13.4163 8.44238V4.83398H7.91667Z" fill="#FAFAFA"/>
</svg>
