<svg width="40" height="40" viewBox="0 0 40 40" fill="none" xmlns="http://www.w3.org/2000/svg">
<path d="M12.9996 9.18652H27.0017L27.1999 9.19466C27.6601 9.22937 28.1104 9.38556 28.5095 9.65527C28.966 9.96394 29.3403 10.4109 29.5785 10.9508L29.5915 10.9801L29.6062 11.0111L32.4543 16.6523H7.54696L10.3951 11.0111L10.4098 10.9801L10.4228 10.9508C10.661 10.4109 11.0353 9.96394 11.4918 9.65527C11.8909 9.38556 12.3412 9.22937 12.8014 9.19466L12.9996 9.18652ZM7.0774 19.1719H32.9239C33.4221 19.1719 33.8498 19.4683 34.0499 19.8945C34.0574 19.9268 34.0628 19.9599 34.0677 19.9922C34.1358 20.1528 34.1733 20.3307 34.1733 20.5163V29.4697C34.1733 29.4744 34.1721 29.4911 34.1717 29.4958C34.1714 29.4998 34.1718 29.4919 34.1717 29.4958V29.5527C34.1716 30.2484 33.613 30.8141 32.9239 30.8141H7.0774C6.38834 30.8141 5.82973 30.2484 5.8296 29.5527V29.4958C5.8295 29.4918 5.82995 29.4998 5.8296 29.4958C5.82918 29.4911 5.82797 29.4744 5.82797 29.4697V20.5163C5.828 20.3307 5.86546 20.1528 5.93358 19.9922C5.93849 19.9599 5.94389 19.9268 5.95145 19.8945C6.15148 19.4683 6.57918 19.1719 7.0774 19.1719ZM7.0774 33.3337H32.9239C34.9913 33.3337 36.6672 31.6399 36.6673 29.5527V20.4316C36.6673 19.9572 36.5769 19.504 36.4187 19.0856C36.3552 18.8771 36.2732 18.6697 36.1701 18.4655L31.8304 9.86686C31.4049 8.93103 30.7385 8.12928 29.897 7.56055C29.037 6.97948 28.0325 6.66678 27.0017 6.66699H12.9996C11.9688 6.66678 10.9643 6.97948 10.1043 7.56055C9.26281 8.12928 8.59636 8.93103 8.17086 9.86686L3.83116 18.4655C3.72813 18.6697 3.64611 18.8771 3.58257 19.0856C3.4244 19.504 3.33405 19.9572 3.33398 20.4316V29.5527C3.33412 31.6399 5.01005 33.3337 7.0774 33.3337Z" fill="#FAFAFA"/>
<path d="M13.6123 22.5142C14.0725 22.5142 14.4456 22.8895 14.4456 23.3524V25.561C14.4456 26.0239 14.0725 26.3992 13.6123 26.3993H12.9482C12.7109 27.0336 12.1042 27.4861 11.3906 27.4865C10.6767 27.4865 10.0688 27.0339 9.83138 26.3993H9.16732C8.70727 26.399 8.33398 26.0238 8.33398 25.561V23.3524C8.33398 22.8896 8.70727 22.5144 9.16732 22.5142H13.6123Z" fill="#FAFAFA"/>
<path d="M22.224 22.5142C22.6841 22.5142 23.0573 22.8895 23.0573 23.3524V25.561C23.0573 26.0239 22.6841 26.3992 22.224 26.3993H21.5599C21.3226 27.0336 20.7159 27.4861 20.0023 27.4865C19.2883 27.4865 18.6804 27.0339 18.443 26.3993H17.779C17.3189 26.399 16.9456 26.0238 16.9456 25.561V23.3524C16.9456 22.8896 17.3189 22.5144 17.779 22.5142H22.224Z" fill="#FAFAFA"/>
<path d="M30.8356 22.5142C31.2958 22.5142 31.6689 22.8895 31.6689 23.3524V25.561C31.6689 26.0239 31.2958 26.3992 30.8356 26.3993H30.1715C29.9342 27.0336 29.3275 27.4861 28.6139 27.4865C27.9 27.4865 27.2921 27.0339 27.0547 26.3993H26.3906C25.9306 26.399 25.5573 26.0238 25.5573 25.561V23.3524C25.5573 22.8896 25.9306 22.5144 26.3906 22.5142H30.8356Z" fill="#FAFAFA"/>
</svg>
