<svg width="40" height="40" viewBox="0 0 40 40" fill="none" xmlns="http://www.w3.org/2000/svg">
<path fill-rule="evenodd" clip-rule="evenodd" d="M23.7861 13.6738C24.2511 13.0634 25.0465 12.7717 25.8109 12.987L25.9736 13.0407L26.1299 13.1074C26.8816 13.472 27.2887 14.2767 27.2074 15.0703L27.043 16.6589L27.7005 16.8216C28.2499 16.9573 28.6919 17.3252 28.9408 17.7998L29.0352 18.0098C29.2535 18.5818 29.1964 19.232 28.8708 19.7578L24.8913 26.1738C24.4103 26.9493 23.4343 27.3042 22.5508 26.9404C21.688 26.584 21.238 25.6779 21.3805 24.8115L21.8005 22.2562L21.208 22.0186L21.2064 22.0169C20.6525 21.7925 20.2493 21.3279 20.0833 20.7799C19.9177 20.2324 19.9971 19.6347 20.3047 19.1491L23.6917 13.8089L23.7861 13.6738ZM22.7575 19.9466L23.6641 20.3145C24.2063 20.5335 24.5254 21.0998 24.4307 21.6768L24.3184 22.3506L26.3561 19.0645L25.3893 18.8252C24.7845 18.6757 24.3815 18.1038 24.4453 17.484L24.4681 17.2497L22.7575 19.9466Z" fill="#FAFAFA"/>
<path d="M14.582 24.167C15.2724 24.167 15.832 24.7266 15.832 25.417C15.832 26.1073 15.2724 26.667 14.582 26.667H11.2487C10.5583 26.667 9.9987 26.1073 9.9987 25.417C9.9987 24.7266 10.5583 24.167 11.2487 24.167H14.582Z" fill="#FAFAFA"/>
<path d="M14.582 19.167C15.2724 19.167 15.832 19.7266 15.832 20.417C15.832 21.1073 15.2724 21.667 14.582 21.667H11.2487C10.5583 21.667 9.9987 21.1073 9.9987 20.417C9.9987 19.7266 10.5583 19.167 11.2487 19.167H14.582Z" fill="#FAFAFA"/>
<path d="M11.6654 13.3337C12.5858 13.3337 13.332 14.0799 13.332 15.0003C13.332 15.9208 12.5858 16.667 11.6654 16.667C10.7449 16.667 9.9987 15.9208 9.9987 15.0003C9.9987 14.0799 10.7449 13.3337 11.6654 13.3337Z" fill="#FAFAFA"/>
<path fill-rule="evenodd" clip-rule="evenodd" d="M33.332 6.66699C35.173 6.66699 36.6654 8.15938 36.6654 10.0003V30.0003C36.6654 31.8413 35.173 33.3337 33.332 33.3337H6.66536L6.3252 33.3158C4.64407 33.1453 3.33203 31.7264 3.33203 30.0003V10.0003C3.33203 8.15938 4.82442 6.66699 6.66536 6.66699H33.332ZM6.66536 9.16699C6.20513 9.16699 5.83203 9.54009 5.83203 10.0003V30.0003C5.83203 30.4606 6.20513 30.8337 6.66536 30.8337H33.332C33.7923 30.8337 34.1654 30.4606 34.1654 30.0003V10.0003C34.1654 9.54009 33.7923 9.16699 33.332 9.16699H6.66536Z" fill="#FAFAFA"/>
</svg>
