<svg width="40" height="40" viewBox="0 0 40 40" fill="none" xmlns="http://www.w3.org/2000/svg">
<path fill-rule="evenodd" clip-rule="evenodd" d="M14.7862 23.1735C16.2473 23.1735 17.6942 23.4633 19.0424 24.0264C20.3904 24.5894 21.6141 25.4142 22.641 26.4531C23.6677 27.492 24.4783 28.7252 25.0255 30.0794C25.5725 31.4338 25.8465 32.8848 25.8295 34.3454C25.821 35.0351 25.2546 35.5884 24.5649 35.5807C23.8748 35.5727 23.3219 35.006 23.3295 34.3161C23.3426 33.1864 23.1308 32.0645 22.7078 31.0169C22.2845 29.9691 21.6564 29.0147 20.8621 28.2109C20.4571 27.8012 20.012 27.4345 19.5356 27.1156C19.2823 27.8363 18.8731 28.4995 18.3181 29.0443C17.376 29.9688 16.1078 30.486 14.7879 30.4863C13.4676 30.4863 12.1984 29.9689 11.256 29.0443C10.7007 28.4993 10.2885 27.8366 10.0353 27.1156C9.55918 27.4344 9.11511 27.8015 8.71038 28.2109C7.91597 29.0148 7.28802 29.9691 6.86468 31.0169C6.4416 32.0645 6.22981 33.1863 6.24293 34.3161C6.25054 35.006 5.69756 35.5726 5.00758 35.5807C4.31782 35.5885 3.75142 35.0351 3.74293 34.3454C3.72593 32.8847 3.99989 31.4338 4.54697 30.0794C5.0942 28.7251 5.90465 27.492 6.93141 26.4531C7.95839 25.4141 9.182 24.5894 10.53 24.0264C11.8783 23.4633 13.3252 23.1735 14.7862 23.1735ZM14.7862 25.6735C13.9484 25.6735 13.1163 25.7955 12.3172 26.0365C12.4273 26.497 12.6642 26.9219 13.0073 27.2588C13.4822 27.7247 14.1225 27.9863 14.7879 27.9863C15.4529 27.986 16.0921 27.7247 16.5668 27.2588C16.9097 26.922 17.1435 26.4967 17.2537 26.0365C16.4549 25.7957 15.6236 25.6735 14.7862 25.6735Z" fill="#FAFAFA"/>
<path d="M34.6935 4.42676C35.3838 4.42676 35.9435 4.98803 35.9435 5.67839V9.67904C35.9431 11.0709 35.3896 12.4058 34.4054 13.39C33.7214 14.0737 32.8682 14.5484 31.9444 14.7751V34.3307C31.944 35.0207 31.3845 35.5807 30.6944 35.5807C30.0047 35.5803 29.4449 35.0205 29.4444 34.3307V14.7751C28.5203 14.5482 27.6659 14.0739 26.9819 13.39C25.9977 12.4058 25.4442 11.0708 25.4438 9.67904V5.67839C25.4438 4.98828 26.0038 4.42716 26.6938 4.42676C27.3841 4.42676 27.9438 4.98803 27.9438 5.67839V9.67904C27.9442 10.4078 28.2342 11.107 28.7494 11.6224C28.9544 11.8274 29.191 11.9925 29.4444 12.1221V5.67839C29.4444 4.98828 30.0044 4.42716 30.6944 4.42676C31.3848 4.42676 31.9444 4.98803 31.9444 5.67839V12.1237C32.1977 11.9942 32.4328 11.8272 32.6378 11.6224C33.1532 11.107 33.4431 10.4079 33.4435 9.67904V5.67839C33.4435 4.98839 34.0036 4.42734 34.6935 4.42676Z" fill="#FAFAFA"/>
<path fill-rule="evenodd" clip-rule="evenodd" d="M17.6589 8.23047C18.6126 8.23074 19.5331 8.58374 20.242 9.22168C20.8622 9.78018 21.2824 10.5237 21.4448 11.3359L21.4985 11.6891L21.8517 15.1055C22.3513 15.3554 22.8382 15.6341 23.31 15.9404C23.8886 16.3165 24.052 17.0901 23.6762 17.6689C23.4567 18.0069 23.1016 18.1984 22.7289 18.2288C23.0959 18.9537 23.5746 19.6234 24.1531 20.2096C24.1733 20.2301 24.1946 20.2529 24.2133 20.2747C24.4397 20.5388 24.606 20.8497 24.7 21.1846C24.7939 21.5197 24.8131 21.8729 24.7569 22.2165C24.7006 22.5597 24.5702 22.8876 24.3744 23.1751C24.1784 23.4627 23.9215 23.705 23.6225 23.8831L23.6062 23.8913L23.4028 24.0101C22.8047 24.354 22.0399 24.1471 21.6954 23.5495C21.3512 22.9511 21.5576 22.1863 22.156 21.8421L22.2211 21.8031C21.6541 21.2032 21.1629 20.5413 20.7563 19.8337C20.4861 20.2329 20.1766 20.6067 19.8285 20.9437C19.1565 21.5941 18.3597 22.1055 17.488 22.4443C16.6271 22.7787 15.7077 22.9391 14.7846 22.918C13.8615 22.9385 12.9418 22.7777 12.0811 22.4427C11.2099 22.1035 10.4154 21.5926 9.74391 20.9421C9.38987 20.599 9.07673 20.2182 8.80315 19.8109C8.39366 20.5287 7.89961 21.2005 7.32529 21.8079C7.3671 21.8317 7.41116 21.8581 7.45713 21.8828C8.0645 22.2099 8.29324 22.9678 7.96657 23.5755C7.63962 24.1826 6.88147 24.4093 6.27386 24.0833C6.15279 24.0182 6.03265 23.9519 5.92067 23.8848L5.92229 23.8831C5.62481 23.7053 5.36885 23.4648 5.1736 23.1784C4.97768 22.8907 4.84579 22.5632 4.78948 22.2197C4.73328 21.8761 4.75406 21.5231 4.84808 21.1878C4.94225 20.8528 5.10805 20.5421 5.33473 20.278L5.39332 20.2145C5.97492 19.6252 6.45282 18.9502 6.82073 18.2207C6.45968 18.1819 6.11746 17.9923 5.90439 17.6641C5.52925 17.0849 5.69327 16.3094 6.27223 15.9339C6.73843 15.6318 7.21933 15.3558 7.71266 15.1087L8.07561 11.6859C8.17621 10.7383 8.62383 9.85918 9.33213 9.22168C10.0409 8.58415 10.9618 8.23053 11.9151 8.23047H17.6589ZM14.8172 16.0218C14.7967 16.0223 14.7758 16.0223 14.7553 16.0218C13.1936 15.9829 11.6472 16.2376 10.1931 16.7624C10.2536 17.0735 10.345 17.3792 10.4698 17.6722C10.7058 18.2259 11.05 18.7279 11.4822 19.1468C11.9146 19.5658 12.4283 19.8952 12.9894 20.1136C13.5499 20.3316 14.1492 20.4358 14.7504 20.4196C14.7731 20.419 14.7977 20.419 14.8204 20.4196C15.4221 20.4362 16.022 20.3315 16.5831 20.1136C17.1442 19.8955 17.6576 19.5671 18.0903 19.1484C18.5228 18.7297 18.868 18.2275 19.1043 17.6738C19.2293 17.3806 19.319 17.0739 19.3793 16.7624C17.9253 16.2378 16.3788 15.9826 14.8172 16.0218ZM11.9151 10.7305C11.5793 10.7305 11.255 10.8559 11.0053 11.0804C10.8184 11.2486 10.6826 11.4643 10.6114 11.7021L10.561 11.9479L10.3347 14.0915C11.7738 13.6827 13.274 13.4889 14.7862 13.5234C16.2966 13.4887 17.7954 13.6821 19.2328 14.0898L19.0131 11.9495L18.9643 11.7038C18.8933 11.4655 18.7574 11.249 18.5704 11.0804C18.3206 10.8555 17.9951 10.7307 17.6589 10.7305H11.9151Z" fill="#FAFAFA"/>
</svg>
