<svg width="32" height="32" viewBox="0 0 32 32" fill="none" xmlns="http://www.w3.org/2000/svg">
<path fill-rule="evenodd" clip-rule="evenodd" d="M26.2756 13.6145C26.8278 13.6145 27.2755 14.0623 27.2756 14.6145V27.9921C27.2755 28.5443 26.8279 28.9921 26.2756 28.9921H9.02301C8.471 28.9918 8.02308 28.5441 8.02301 27.9921V24.3423C8.0231 23.7903 8.47101 23.3426 9.02301 23.3423H11.9423V21.3033C11.9424 20.7512 12.3903 20.3035 12.9423 20.3033H15.8602V18.2642C15.8606 17.7125 16.3086 17.2647 16.8602 17.2642H20.5686V14.6145C20.5687 14.0624 21.0166 13.6147 21.5686 13.6145H26.2756ZM22.5686 18.2642C22.5686 18.8163 22.1207 19.264 21.5686 19.2642H17.8602V21.3033C17.8602 21.8555 17.4125 22.3033 16.8602 22.3033H13.9423V24.3423C13.942 24.8942 13.4942 25.3421 12.9423 25.3423H10.023V26.9921H25.2756V15.6145H22.5686V18.2642Z" fill="#FAFAFA"/>
<path fill-rule="evenodd" clip-rule="evenodd" d="M9.43967 9.90743C9.69932 8.92423 10.6666 8.27536 11.6936 8.43738C12.7881 8.61061 13.5372 9.63993 13.3642 10.7356C13.1906 11.8314 12.1604 12.5791 11.066 12.4061L11.0647 12.4048C9.97034 12.2307 9.22502 11.2024 9.39801 10.108L9.43967 9.90743ZM11.3759 10.4152C11.3746 10.4163 11.3735 10.4175 11.3733 10.4178L11.372 10.4205V10.4231C11.3722 10.4237 11.3725 10.4258 11.3733 10.427C11.3743 10.4283 11.3756 10.4294 11.3759 10.4296H11.3811C11.3819 10.4293 11.3835 10.428 11.385 10.427L11.3876 10.4257L11.3889 10.4244L11.3876 10.4231L11.3889 10.4218C11.3888 10.4215 11.3876 10.4184 11.3863 10.4165C11.3853 10.4154 11.3842 10.4144 11.3837 10.4139L11.3798 10.4126C11.3796 10.4127 11.3774 10.4142 11.3759 10.4152Z" fill="#FAFAFA"/>
<path fill-rule="evenodd" clip-rule="evenodd" d="M11.5972 2.68217C12.6304 2.51937 13.69 2.65957 14.6454 3.08452C14.6765 3.09838 14.707 3.11443 14.7365 3.13139L14.8238 3.18087L14.9032 3.23165C15.1395 3.39918 15.3284 3.6361 15.4371 3.91785L15.4384 3.92045C15.5462 4.20201 15.5646 4.50503 15.5009 4.78894C15.4936 4.82124 15.484 4.85389 15.4735 4.8853L15.4423 4.97905C15.4321 5.00964 15.4202 5.04073 15.4071 5.07019L14.9097 6.18608C15.0002 6.2056 15.0922 6.22692 15.1819 6.25118C16.1913 6.52451 17.1006 7.08518 17.799 7.86316C18.4973 8.64128 18.9563 9.60612 19.1194 10.6392C19.2821 11.6723 19.1422 12.7319 18.717 13.6874L18.7183 13.6887C18.5571 14.0501 18.2567 14.3366 17.8824 14.4803C17.5077 14.6241 17.0929 14.6099 16.7313 14.4491L15.6155 13.953C15.5961 14.043 15.5771 14.1333 15.553 14.2225C15.2796 15.2323 14.7172 16.1415 13.9397 16.8397C13.1615 17.5381 12.1969 17.9969 11.1636 18.16C10.1302 18.323 9.07107 18.1841 8.11546 17.759C7.75255 17.5975 7.46606 17.2964 7.32249 16.9231C7.17903 16.5486 7.19201 16.1345 7.35243 15.7733L7.84723 14.6574C7.75839 14.6382 7.6697 14.6174 7.5816 14.5936C6.69764 14.3545 5.88962 13.8949 5.23395 13.2629L4.96311 12.9803C4.26515 12.2027 3.80346 11.2394 3.6402 10.2056C3.47734 9.17236 3.61766 8.11273 4.04254 7.15743L4.08551 7.0715L4.13499 6.98426L4.18967 6.89962C4.36085 6.65809 4.60087 6.47096 4.87717 6.36446L5.0204 6.31759C5.35558 6.22606 5.71196 6.25381 6.02822 6.39441L7.1441 6.89051C7.16352 6.80068 7.18644 6.71131 7.21051 6.62228C7.48368 5.6125 8.04331 4.70368 8.82119 4.00509C9.59867 3.30732 10.5636 2.84549 11.5972 2.68217ZM12.1545 4.62749L11.9084 4.65743C11.2575 4.76022 10.6489 5.05072 10.1571 5.49207C9.66593 5.93317 9.31247 6.50765 9.1402 7.14441C9.03792 7.52289 9.00183 7.91513 9.03212 8.30327C9.05965 8.65456 8.90053 8.99565 8.61285 9.1991C8.32503 9.40234 7.95042 9.44 7.62848 9.29676L5.70009 8.43868C5.56816 8.91015 5.53867 9.40748 5.61546 9.89441C5.71828 10.5451 6.00906 11.1529 6.45009 11.6444L6.62197 11.8215C7.03629 12.2211 7.54533 12.5119 8.10244 12.6626C8.48062 12.7649 8.87361 12.7998 9.26259 12.7694C9.61357 12.7422 9.95256 12.9025 10.1558 13.19C10.359 13.4778 10.3966 13.8512 10.2535 14.1731L9.3954 16.1001C9.8673 16.2325 10.3647 16.2617 10.8524 16.1848C11.5035 16.0819 12.1114 15.7932 12.6024 15.3527C13.094 14.9114 13.4497 14.3371 13.622 13.7004C13.724 13.3229 13.7578 12.9297 13.7274 12.5402L13.7261 12.4087C13.7423 12.106 13.8954 11.8236 14.1467 11.6457C14.4344 11.4424 14.8092 11.405 15.1311 11.5481L17.0582 12.4061C17.1902 11.9346 17.2209 11.4378 17.1441 10.9504C17.0412 10.2987 16.7504 9.69039 16.3095 9.1991C15.8685 8.70801 15.2953 8.35319 14.6584 8.18087L14.6597 8.18217C14.2811 8.07977 13.8864 8.04353 13.497 8.0741C13.1458 8.1014 12.807 7.94125 12.6037 7.65353C12.4005 7.36564 12.3627 6.99241 12.5061 6.67045L13.3629 4.74207C12.9708 4.63247 12.5613 4.59326 12.1545 4.62749Z" fill="#FAFAFA"/>
</svg>
