<svg width="40" height="40" viewBox="0 0 40 40" fill="none" xmlns="http://www.w3.org/2000/svg">
<path fill-rule="evenodd" clip-rule="evenodd" d="M7.91732 9.1665C6.76672 9.1665 5.83398 10.0992 5.83398 11.2498V25.4165C5.83398 26.5671 6.76672 27.4998 7.91732 27.4998H15.4173C16.1077 27.4998 16.6673 28.0595 16.6673 28.7498C16.6673 29.4402 16.1077 29.9998 15.4173 29.9998H7.91732C5.38601 29.9998 3.33398 27.9478 3.33398 25.4165V11.2498C3.33398 8.71853 5.38601 6.6665 7.91732 6.6665H28.7507C31.282 6.6665 33.334 8.71853 33.334 11.2498V18.7498C33.334 19.4402 32.7743 19.9998 32.084 19.9998C31.3936 19.9998 30.834 19.4402 30.834 18.7498V11.2498C30.834 10.0992 29.9012 9.1665 28.7507 9.1665H7.91732ZM20.0007 27.0832C20.0007 25.0121 21.6796 23.3332 23.7507 23.3332H32.9173C34.9884 23.3332 36.6673 25.0121 36.6673 27.0832V31.2498C36.6673 33.3209 34.9884 34.9998 32.9173 34.9998H23.7507C21.6796 34.9998 20.0007 33.3209 20.0007 31.2498V27.0832ZM23.7507 25.8332C23.0603 25.8332 22.5007 26.3928 22.5007 27.0832V31.2498C22.5007 31.9402 23.0603 32.4998 23.7507 32.4998H32.9173C33.6077 32.4998 34.1673 31.9402 34.1673 31.2498V27.0832C34.1673 26.3928 33.6077 25.8332 32.9173 25.8332H23.7507Z" fill="#FAFAFA"/>
</svg>
