<svg width="40" height="40" viewBox="0 0 40 40" fill="none" xmlns="http://www.w3.org/2000/svg">
<path fill-rule="evenodd" clip-rule="evenodd" d="M20.0007 7.05713C20.3527 7.05713 20.7012 7.1292 21.0244 7.26872C21.2671 7.37353 21.4926 7.51467 21.6917 7.68701L21.8822 7.8693L25.7787 12.0181L25.8014 12.0441C26.8417 13.214 26.7336 14.7205 25.8649 15.646C25.8113 15.7031 25.7533 15.7565 25.694 15.8088L27.6927 18.216C27.8899 18.4281 28.051 18.6716 28.1647 18.9386C28.296 19.2469 28.364 19.5785 28.3649 19.9136C28.3657 20.2487 28.2993 20.5812 28.1696 20.8901C28.0397 21.1993 27.8481 21.4795 27.6081 21.7137C27.5426 21.7776 27.4731 21.8366 27.4014 21.8927L28.5895 23.4097C28.8977 23.7464 29.1101 24.1602 29.1999 24.6092C29.297 25.095 29.2488 25.5998 29.0599 26.0578C28.871 26.5155 28.5498 26.9064 28.1387 27.1825C27.7275 27.4585 27.2439 27.6074 26.7487 27.6089H21.2507V31.6958C21.25 32.3856 20.6906 32.9458 20.0007 32.9458C19.3107 32.9458 18.7513 32.3856 18.7507 31.6958V27.6089H13.2542C12.759 27.6074 12.2755 27.4585 11.8643 27.1825C11.4531 26.9064 11.1319 26.5155 10.943 26.0578C10.7542 25.5998 10.706 25.095 10.8031 24.6092C10.8929 24.1602 11.1052 23.7464 11.4134 23.4097L12.6211 21.8651C12.5511 21.8102 12.482 21.7519 12.4176 21.6893C11.9418 21.2258 11.67 20.5924 11.6608 19.9282C11.6523 19.2967 11.8831 18.6872 12.3037 18.2192L14.3008 15.8104C14.2427 15.7592 14.1874 15.7052 14.1348 15.6493C13.2636 14.7234 13.1567 13.2173 14.195 12.0474L14.2194 12.0213L18.1191 7.87093L18.1208 7.8693C18.3622 7.61301 18.6536 7.40833 18.9769 7.26872C19.3002 7.12916 19.6486 7.05715 20.0007 7.05713ZM19.9681 9.56364C19.9578 9.5681 19.9482 9.57502 19.9404 9.58317L19.9388 9.58154L16.0651 13.7075L15.9935 13.8019L15.9902 13.8052C16.4654 13.3862 17.1832 13.3856 17.6569 13.8182C18.1494 14.2682 18.2016 15.0251 17.7757 15.5386L14.2275 19.8159C14.2067 19.841 14.1852 19.8657 14.1624 19.8892L14.1592 19.894L14.1624 19.8989L14.1673 19.9006L14.1722 19.8989C14.6354 19.4231 15.3891 19.3922 15.8893 19.8289C16.3895 20.2659 16.4615 21.0182 16.0521 21.5412L13.3568 24.9819C13.3256 25.0218 13.2917 25.0601 13.2559 25.0959L13.2542 25.0991V25.104L13.2575 25.1073L13.2607 25.1089H26.7406L26.7454 25.1073L26.7487 25.104V25.0991L26.7471 25.0959C26.7114 25.0602 26.6773 25.0217 26.6462 24.9819L23.9509 21.5412C23.5369 21.0128 23.6134 20.252 24.125 19.8175C24.6367 19.3831 25.4009 19.4308 25.8551 19.925L25.8568 19.9266H25.8617L25.8649 19.9233V19.9185L25.8633 19.9168C25.8302 19.8849 25.7982 19.8497 25.7689 19.8143L22.2223 15.5386C21.7969 15.0252 21.8491 14.268 22.3412 13.8182C22.8156 13.385 23.5344 13.3877 24.0094 13.8084C23.9929 13.7806 23.9687 13.7461 23.9329 13.7059L20.0609 9.58154C20.0532 9.57344 20.0435 9.56808 20.0332 9.56364C20.023 9.55931 20.0118 9.55713 20.0007 9.55713C19.9895 9.55715 19.9784 9.55927 19.9681 9.56364Z" fill="#FAFAFA"/>
<path d="M13.0003 29.4448C13.6907 29.4448 14.2503 30.0045 14.2503 30.6948V31.6942C14.2501 32.3843 13.6906 32.9442 13.0003 32.9442C12.3101 32.9442 11.7506 32.3843 11.7503 31.6942V30.6948C11.7503 30.0045 12.31 29.4448 13.0003 29.4448Z" fill="#FAFAFA"/>
<path d="M27.001 29.4448C27.6913 29.4448 28.251 30.0045 28.251 30.6948V31.6942C28.2508 32.3843 27.6912 32.9442 27.001 32.9442C26.3108 32.9442 25.7512 32.3843 25.751 31.6942V30.6948C25.751 30.0045 26.3106 29.4448 27.001 29.4448Z" fill="#FAFAFA"/>
<path d="M13.0003 7.05713C13.3524 7.05713 13.7008 7.1292 14.0241 7.26872C14.3475 7.4084 14.6403 7.61284 14.8818 7.8693C15.3548 8.3719 15.3306 9.16369 14.8281 9.63688C14.3255 10.1099 13.5338 10.0857 13.0606 9.58317C13.0528 9.57507 13.0432 9.56808 13.0329 9.56364C13.0226 9.55931 13.0115 9.55713 13.0003 9.55713C12.9892 9.55715 12.9781 9.55927 12.9678 9.56364C12.9575 9.5681 12.9479 9.57502 12.9401 9.58317L9.06641 13.7075C9.03432 13.7436 9.01138 13.7755 8.9948 13.8019C9.46996 13.3868 10.1843 13.3869 10.6566 13.8182C11.1491 14.2681 11.2013 15.0251 10.7754 15.5386L7.22885 19.8143C7.19951 19.8497 7.16912 19.8849 7.13607 19.9168L7.13445 19.9185V19.9233L7.1377 19.9266H7.14258L7.14421 19.925C7.5983 19.431 8.36104 19.3835 8.87273 19.8175C9.38441 20.2517 9.46196 21.0126 9.04851 21.5412L6.35645 24.9819C6.32522 25.0218 6.29138 25.0601 6.25554 25.0959L6.25391 25.0991V25.104L6.25717 25.1073L6.26042 25.1089H8.33399C9.02425 25.109 9.58399 25.6686 9.58399 26.3589C9.58371 27.0489 9.02407 27.6088 8.33399 27.6089H6.25391C5.75869 27.6074 5.27513 27.4585 4.86394 27.1825C4.4528 26.9064 4.1316 26.5155 3.94272 26.0578C3.75384 25.5998 3.70565 25.095 3.80274 24.6092C3.89317 24.1572 4.10802 23.7411 4.4196 23.4032L5.59799 21.8927C5.52603 21.8365 5.4553 21.7777 5.38966 21.7137C5.14977 21.4796 4.95957 21.1992 4.82976 20.8901C4.70002 20.5811 4.63363 20.2488 4.63445 19.9136C4.63536 19.5785 4.70334 19.247 4.83464 18.9386C4.9495 18.669 5.11168 18.423 5.31153 18.2095L7.30209 15.8104C7.24367 15.7589 7.18735 15.7055 7.13445 15.6493C6.26284 14.7219 6.15916 13.2143 7.19955 12.0457L7.22234 12.0213L11.1188 7.87093L11.1204 7.8693C11.3619 7.61301 11.6533 7.40833 11.9766 7.26872C12.2998 7.12916 12.6482 7.05715 13.0003 7.05713Z" fill="#FAFAFA"/>
<path d="M26.9994 7.05713C27.3516 7.05713 27.7014 7.12908 28.0247 7.26872C28.2671 7.37345 28.4915 7.51491 28.6904 7.68701L28.8809 7.8693L28.8825 7.87093L32.7773 12.0213C32.7847 12.0291 32.793 12.0377 32.8001 12.0457C33.8417 13.2149 33.7319 14.7209 32.8636 15.646C32.8101 15.703 32.7519 15.7566 32.6927 15.8088L34.6914 18.2144C34.8896 18.427 35.0525 18.6706 35.1667 18.9386C35.2979 19.2469 35.366 19.5785 35.3669 19.9136C35.3677 20.2486 35.3012 20.5812 35.1716 20.8901C35.0417 21.1993 34.8501 21.4796 34.61 21.7137C34.5441 21.7781 34.4741 21.8379 34.4017 21.8944L35.5801 23.4032C35.8915 23.7411 36.1066 24.1573 36.1969 24.6092C36.294 25.095 36.2442 25.5998 36.0553 26.0578C35.8665 26.5152 35.5466 26.9066 35.1357 27.1825C34.7245 27.4585 34.2395 27.6075 33.7441 27.6089H31.6673C30.9772 27.6088 30.4176 27.0489 30.4173 26.3589C30.4173 25.6686 30.9771 25.109 31.6673 25.1089H33.7376L33.7425 25.1073L33.7441 25.104L33.7458 25.0991L33.7425 25.0959C33.7067 25.06 33.6728 25.0219 33.6416 24.9819L30.9512 21.5396C30.5386 21.0112 30.616 20.2515 31.127 19.8175C31.6386 19.3836 32.4014 19.4312 32.8555 19.925L32.8587 19.9266H32.8636L32.8669 19.9233V19.9185L32.8652 19.9168C32.8326 19.8853 32.8015 19.8508 32.7725 19.8159L29.221 15.5418C28.7953 15.0289 28.8466 14.2717 29.3382 13.8215C29.8133 13.3866 30.5343 13.39 31.0098 13.8133C30.9933 13.7854 30.9696 13.75 30.9333 13.7091L27.0612 9.58317L27.0335 9.56364C27.0231 9.55919 27.0107 9.55713 26.9994 9.55713C26.9883 9.55724 26.977 9.55925 26.9668 9.56364C26.9564 9.56814 26.9469 9.57495 26.9391 9.58317C26.4658 10.0856 25.6741 10.1101 25.1716 9.63688C24.6693 9.16359 24.6464 8.3718 25.1195 7.8693C25.3609 7.61295 25.6523 7.40838 25.9756 7.26872C26.2988 7.12914 26.6473 7.05724 26.9994 7.05713Z" fill="#FAFAFA"/>
</svg>
