<svg width="40" height="40" viewBox="0 0 40 40" fill="none" xmlns="http://www.w3.org/2000/svg">
<path fill-rule="evenodd" clip-rule="evenodd" d="M11.5326 5H28.4674C29.3576 4.99998 30.1007 4.99997 30.7078 5.04957C31.3409 5.1013 31.9354 5.21315 32.4975 5.49955C33.3599 5.93897 34.061 6.64013 34.5004 7.50255C34.7869 8.06465 34.8987 8.65908 34.9504 9.29222C35 9.89927 35 10.6423 35 11.5326V28.4674C35 29.3577 35 30.1007 34.9504 30.7078C34.8987 31.3409 34.7869 31.9353 34.5004 32.4974C34.061 33.3599 33.3599 34.061 32.4975 34.5004C31.9354 34.7868 31.3409 34.8987 30.7078 34.9504C30.1007 35 29.3577 35 28.4674 35H11.5326C10.6423 35 9.89927 35 9.29222 34.9504C8.65908 34.8987 8.06465 34.7868 7.50255 34.5004C6.64013 34.061 5.93897 33.3599 5.49955 32.4974C5.21315 31.9353 5.1013 31.3409 5.04957 30.7078C4.99997 30.1007 4.99998 29.3576 5 28.4674V11.5326C4.99998 10.6424 4.99997 9.89927 5.04957 9.29222C5.1013 8.65908 5.21315 8.06465 5.49955 7.50254C5.93897 6.64013 6.64013 5.93897 7.50254 5.49955C8.06465 5.21315 8.65908 5.1013 9.29222 5.04957C9.89927 4.99997 10.6424 4.99998 11.5326 5ZM9.4958 7.54126C9.01726 7.58036 8.78846 7.65016 8.63752 7.72707C8.24552 7.92681 7.92681 8.24552 7.72707 8.63752C7.65017 8.78845 7.58036 9.01726 7.54126 9.4958C7.50097 9.98893 7.5 10.6293 7.5 11.5833V28.4167C7.5 29.3707 7.50097 30.0111 7.54126 30.5042C7.58036 30.9827 7.65017 31.2115 7.72707 31.3625C7.92681 31.7545 8.24552 32.0732 8.63752 32.2729C8.78845 32.3498 9.01726 32.4196 9.4958 32.4587C9.98893 32.499 10.6293 32.5 11.5833 32.5H18.75V7.5H11.5833C10.6293 7.5 9.98893 7.50097 9.4958 7.54126ZM21.25 7.5V32.5H28.4167C29.3707 32.5 30.0111 32.499 30.5042 32.4587C30.9827 32.4196 31.2115 32.3498 31.3625 32.2729C31.7545 32.0732 32.0732 31.7545 32.2729 31.3625C32.3498 31.2115 32.4196 30.9827 32.4587 30.5042C32.499 30.0111 32.5 29.3707 32.5 28.4167V11.5833C32.5 10.6293 32.499 9.98893 32.4587 9.4958C32.4196 9.01726 32.3498 8.78845 32.2729 8.63752C32.0732 8.24552 31.7545 7.92681 31.3625 7.72707C31.2115 7.65017 30.9827 7.58036 30.5042 7.54126C30.0111 7.50097 29.3707 7.5 28.4167 7.5H21.25Z" fill="#FAFAFA"/>
<path fill-rule="evenodd" clip-rule="evenodd" d="M11.5313 4.96094H28.4687C29.3578 4.96092 30.1023 4.9609 30.711 5.01063C31.3465 5.06256 31.9467 5.17507 32.5152 5.46475C33.385 5.90791 34.0921 6.61505 34.5353 7.48481C34.8249 8.05334 34.9374 8.65348 34.9894 9.28904C35.0391 9.89772 35.0391 10.6422 35.0391 11.5313V28.4687C35.0391 29.3578 35.0391 30.1023 34.9894 30.711C34.9374 31.3465 34.8249 31.9467 34.5353 32.5152C34.0921 33.3849 33.385 34.0921 32.5152 34.5352C31.9467 34.8249 31.3465 34.9374 30.711 34.9894C30.1023 35.0391 29.3578 35.0391 28.4687 35.0391H11.5313C10.6422 35.0391 9.89772 35.0391 9.28904 34.9894C8.65348 34.9374 8.05334 34.8249 7.48481 34.5352C6.61505 34.0921 5.90791 33.3849 5.46475 32.5152C5.17507 31.9467 5.06256 31.3465 5.01063 30.711C4.9609 30.1023 4.96092 29.3578 4.96094 28.4687V11.5313C4.96092 10.6422 4.9609 9.8977 5.01063 9.28904C5.06256 8.65348 5.17507 8.05334 5.46475 7.48481C5.90791 6.61505 6.61505 5.90791 7.48481 5.46475C8.05334 5.17507 8.65348 5.06256 9.28904 5.01063C9.89771 4.9609 10.6422 4.96092 11.5313 4.96094ZM7.53906 16.7008V23.2992H32.4609V16.7008H7.53906ZM32.4609 14.1227H7.53906V11.5833C7.53906 10.6286 7.54007 9.99015 7.5802 9.49898C7.6191 9.02286 7.68824 8.79977 7.76188 8.65526C7.95787 8.2706 8.2706 7.95787 8.65526 7.76188C8.79977 7.68824 9.02286 7.6191 9.49898 7.5802C9.99015 7.54007 10.6286 7.53906 11.5833 7.53906H28.4167C29.3714 7.53906 30.0099 7.54007 30.501 7.5802C30.9771 7.6191 31.2002 7.68824 31.3447 7.76188C31.7294 7.95787 32.0421 8.2706 32.2381 8.65525C32.3118 8.79976 32.3809 9.02286 32.4198 9.49898C32.4599 9.99015 32.4609 10.6286 32.4609 11.5833V14.1227ZM32.4609 25.8773H7.53906V28.4167C7.53906 29.3714 7.54007 30.0098 7.5802 30.501C7.6191 30.9771 7.68824 31.2002 7.76188 31.3447C7.95787 31.7294 8.2706 32.0421 8.65525 32.2381C8.79976 32.3117 9.02286 32.3809 9.49898 32.4198C9.99015 32.4599 10.6286 32.4609 11.5833 32.4609H28.4167C29.3714 32.4609 30.0099 32.4599 30.501 32.4198C30.9771 32.3809 31.2002 32.3118 31.3448 32.2381C31.7294 32.0421 32.0421 31.7294 32.2381 31.3447C32.3118 31.2002 32.3809 30.9771 32.4198 30.501C32.4599 30.0098 32.4609 29.3714 32.4609 28.4167V25.8773Z" fill="#FAFAFA"/>
</svg>
