<svg width="40" height="40" viewBox="0 0 40 40" fill="none" xmlns="http://www.w3.org/2000/svg">
<path d="M25.3053 21.8296C25.9029 21.4852 26.6676 21.6896 27.0127 22.2869L27.8835 23.7941C28.1693 24.2894 28.3213 24.8531 28.3213 25.425C28.321 25.9966 28.1693 26.5592 27.8835 27.0542C27.5975 27.5492 27.1854 27.9614 26.6904 28.2472C26.2569 28.4972 25.7702 28.6443 25.2728 28.6769L25.0596 28.6834H22.999C23.3734 29.1733 23.3375 29.8775 22.89 30.3257C22.4021 30.813 21.6104 30.8128 21.1224 30.3257L19.1123 28.3172C19.0603 28.2652 19.0149 28.2078 18.974 28.1496C18.9683 28.1415 18.9615 28.1333 18.9561 28.1252C18.9317 28.0887 18.9142 28.0479 18.8942 28.0096C18.877 27.9767 18.8565 27.9448 18.8421 27.9103C18.8311 27.8836 18.8251 27.8546 18.8161 27.8273C18.7747 27.7032 18.7478 27.5714 18.7477 27.4334C18.7478 27.3038 18.7712 27.1799 18.8079 27.0623C18.8182 27.0293 18.8258 26.9953 18.8389 26.9631L18.8454 26.9468C18.8579 26.9172 18.8762 26.8905 18.891 26.8621C18.9485 26.7506 19.0189 26.6432 19.1123 26.5496L21.1224 24.5396C21.6106 24.052 22.402 24.0516 22.89 24.5396C23.3381 24.9886 23.3741 25.6936 22.9974 26.1834H25.0612C25.1939 26.1832 25.3255 26.1472 25.4404 26.0809C25.5552 26.0144 25.6523 25.919 25.7188 25.8042C25.7851 25.689 25.8212 25.5562 25.8213 25.4233L25.8148 25.3241C25.8061 25.2589 25.7878 25.1944 25.7627 25.1336L25.7188 25.0441L24.848 23.5369C24.503 22.9393 24.7078 22.1749 25.3053 21.8296Z" fill="#FAFAFA"/>
<path d="M15.8262 18.6525C15.8684 18.6553 15.911 18.6616 15.9531 18.6688C15.9897 18.675 16.0265 18.6822 16.0622 18.6916C16.1082 18.7037 16.1554 18.7162 16.2005 18.7339C16.2116 18.7382 16.2238 18.7423 16.2347 18.7469C16.2763 18.7647 16.3181 18.7861 16.3584 18.8088C16.3705 18.8156 16.3824 18.8244 16.3942 18.8315C16.4098 18.841 16.4263 18.8507 16.4414 18.8608C16.4903 18.8937 16.5369 18.9298 16.5798 18.9683C16.6143 18.9994 16.6447 19.0358 16.6758 19.0708C16.6969 19.0946 16.7202 19.1172 16.7393 19.1424C16.772 19.1856 16.8 19.233 16.8271 19.2808C16.839 19.3015 16.854 19.3212 16.8646 19.3426C16.8775 19.369 16.8859 19.3981 16.8971 19.4256C16.9161 19.4721 16.936 19.5188 16.9492 19.5672L16.9525 19.5737L17.6882 22.3195C17.8656 22.9855 17.4702 23.6706 16.8044 23.8494C16.205 24.01 15.5908 23.7049 15.3428 23.1577L14.2897 25.0327L14.2832 25.0441C14.2168 25.1594 14.1807 25.2903 14.1807 25.4233C14.1809 25.5562 14.2168 25.6875 14.2832 25.8026C14.3497 25.9173 14.4451 26.0145 14.5599 26.0809C14.6752 26.1471 14.8078 26.1835 14.9408 26.1834H16.985C17.675 26.1839 18.235 26.7433 18.235 27.4334C18.2341 28.1228 17.6745 28.683 16.985 28.6834H14.9408C14.3693 28.6836 13.8066 28.5325 13.3115 28.2472C12.8163 27.9616 12.4048 27.5491 12.1185 27.0542C11.8323 26.559 11.6809 25.9953 11.6807 25.4233C11.6807 24.8516 11.8312 24.2893 12.1169 23.7941L13.2008 21.8654C12.5753 21.9677 11.9613 21.5819 11.793 20.9572C11.6143 20.2905 12.0101 19.6044 12.6768 19.4256L15.4014 18.6948C15.4055 18.6937 15.4103 18.6927 15.4144 18.6916L15.4225 18.6899L15.5479 18.6639C15.5605 18.6619 15.5742 18.6623 15.5869 18.6606C15.6304 18.6551 15.6747 18.6518 15.7188 18.6509C15.7546 18.6501 15.7908 18.6502 15.8262 18.6525Z" fill="#FAFAFA"/>
<path d="M19.9977 13.4002C20.5701 13.4005 21.1347 13.5515 21.6302 13.8381C22.0635 14.0889 22.4326 14.4371 22.7093 14.8521L22.8232 15.0343L22.8265 15.0392L23.8747 16.8833C24.118 16.3263 24.7394 16.0149 25.3444 16.1769C26.0104 16.356 26.4063 17.0422 26.2282 17.7085L25.4925 20.4526C25.4719 20.5296 25.4428 20.6031 25.4095 20.6724C25.3034 20.8941 25.1329 21.0883 24.9033 21.2192C24.6602 21.3575 24.3896 21.3994 24.1318 21.3673C24.0963 21.3629 24.06 21.3571 24.0244 21.3494C23.9897 21.342 23.9542 21.3353 23.9202 21.325L21.2168 20.6007C20.5505 20.4219 20.1547 19.7373 20.333 19.0708C20.4995 18.4509 21.1044 18.0648 21.7246 18.1577L20.6569 16.2811L20.6016 16.1981C20.5414 16.1195 20.4647 16.0528 20.3786 16.0028C20.2635 15.9362 20.1307 15.9005 19.9977 15.9002C19.8648 15.9003 19.7336 15.9364 19.6185 16.0028C19.5031 16.0695 19.4067 16.1656 19.3402 16.2811L19.3385 16.2827L18.6305 17.5083C18.2854 18.1053 17.5205 18.3096 16.9232 17.9657C16.3255 17.6201 16.1203 16.8543 16.4658 16.2567L17.1755 15.0311C17.4612 14.536 17.8719 14.1242 18.3669 13.8381C18.8624 13.5517 19.4254 13.4003 19.9977 13.4002Z" fill="#FAFAFA"/>
<path fill-rule="evenodd" clip-rule="evenodd" d="M15.416 3.3335C16.1062 3.3335 16.6658 3.89333 16.666 4.5835V6.74821L23.3327 6.75472V4.59001C23.3327 3.89979 23.8925 3.34023 24.5827 3.34001C25.2729 3.34023 25.8327 3.89979 25.8327 4.59001V6.75472L29.9993 6.74821C31.84 6.74843 33.3325 8.24092 33.3327 10.0815V33.3335L33.3148 33.6737C33.1441 35.3544 31.7251 36.6666 29.9993 36.6668H9.99935C8.15879 36.6666 6.66634 35.174 6.66602 33.3335V10.0815C6.66624 8.24092 8.15872 6.74843 9.99935 6.74821H14.166V4.5835C14.1662 3.89333 14.7258 3.3335 15.416 3.3335ZM9.99935 9.24821C9.53944 9.24843 9.16624 9.62163 9.16602 10.0815V33.3335C9.16634 33.7933 9.5395 34.1666 9.99935 34.1668H29.9993C30.4592 34.1666 30.8324 33.7933 30.8327 33.3335V10.0815C30.8325 9.62163 30.4593 9.24843 29.9993 9.24821H9.99935Z" fill="#FAFAFA"/>
</svg>
