<svg width="40" height="40" viewBox="0 0 40 40" fill="none" xmlns="http://www.w3.org/2000/svg">
<path d="M17.0007 17.7507C17.691 17.7507 18.2507 18.3103 18.2507 19.0007V23.0013C18.25 23.6911 17.6906 24.2513 17.0007 24.2513C16.3107 24.2513 15.7513 23.6911 15.7507 23.0013V19.0007C15.7507 18.3103 16.3103 17.7507 17.0007 17.7507Z" fill="#FAFAFA"/>
<path d="M23 17.7507C23.6904 17.7507 24.25 18.3103 24.25 19.0007V23.0013C24.2493 23.6911 23.6899 24.2513 23 24.2513C22.3101 24.2513 21.7507 23.6911 21.75 23.0013V19.0007C21.75 18.3103 22.3096 17.7507 23 17.7507Z" fill="#FAFAFA"/>
<path fill-rule="evenodd" clip-rule="evenodd" d="M20.0003 3.75C20.8622 3.75009 21.6891 4.09273 22.2985 4.70215C22.9078 5.31161 23.2507 6.13853 23.2507 7.00033V9.74935H24.0286C24.0412 9.74955 24.0575 9.75036 24.0758 9.75098C24.1124 9.7522 24.1601 9.75502 24.2174 9.75911C24.3327 9.76735 24.4903 9.78208 24.6748 9.81283C25.0376 9.87333 25.5405 9.99684 26.0583 10.2555C26.5814 10.5171 27.1443 10.931 27.5719 11.5723C28.0044 12.2213 28.2505 13.0311 28.2507 13.999V24.012C28.2506 24.0166 28.2492 24.0225 28.249 24.0283C28.2488 24.0406 28.2496 24.0562 28.249 24.0739C28.2478 24.1104 28.245 24.1596 28.2409 24.2171C28.2327 24.3321 28.2162 24.4889 28.1855 24.6729C28.1251 25.0358 28.0018 25.5398 27.7428 26.0579C27.4813 26.5811 27.0689 27.1423 26.4277 27.57C25.8352 27.965 25.1086 28.2017 24.25 28.2406V31.001C24.2494 31.6908 23.69 32.251 23 32.251H21.2503V35C21.25 35.6901 20.6905 36.25 20.0003 36.25C19.3102 36.25 18.7507 35.6901 18.7503 35V32.251H17.0007C16.3106 32.251 15.7512 31.6908 15.7507 31.001V28.2357C15.6391 28.2268 15.494 28.2132 15.3258 28.1852C14.9627 28.1247 14.4591 28.0017 13.9408 27.7425C13.4176 27.4809 12.8563 27.0687 12.4287 26.4274C11.996 25.7781 11.75 24.9675 11.75 23.999V13.9714C11.7502 13.9589 11.751 13.9422 11.7516 13.9242C11.7529 13.8875 11.7557 13.8384 11.7598 13.7809C11.768 13.6658 11.7828 13.5091 11.8135 13.3252C11.874 12.9622 11.9972 12.4582 12.2562 11.9401C12.5178 11.417 12.9316 10.8556 13.5729 10.4281C14.2221 9.9955 15.0315 9.7494 15.9997 9.74935H16.75V7.00033C16.75 6.13837 17.0927 5.31164 17.7021 4.70215C18.3116 4.09266 19.1384 3.75 20.0003 3.75ZM18.2507 29.751H19.9678C19.9786 29.7507 19.9894 29.7493 20.0003 29.7493C20.0112 29.7493 20.0221 29.7507 20.0329 29.751H21.75V28.2503H18.2507V29.751ZM14.25 23.999C14.25 24.5299 14.3793 24.8463 14.5088 25.0407C14.6435 25.2427 14.8325 25.3929 15.0589 25.5062C15.2902 25.6218 15.5368 25.6861 15.736 25.7194C15.8327 25.7355 15.9118 25.7436 15.9606 25.7471C15.9843 25.7488 16.0005 25.7485 16.0078 25.7487H23.9993C24.5306 25.7487 24.8466 25.6195 25.041 25.4899C25.2429 25.3551 25.3933 25.1663 25.5065 24.9398C25.622 24.7085 25.6865 24.4618 25.7197 24.2627C25.7357 24.1666 25.7439 24.0884 25.7474 24.0397C25.7487 24.0222 25.7503 24.0077 25.7507 23.999V16.25H14.25V23.999ZM15.9997 12.2493C15.4693 12.2494 15.154 12.3787 14.9596 12.5081C14.7576 12.6428 14.6058 12.8318 14.4925 13.0583C14.377 13.2894 14.3126 13.5362 14.2793 13.7354C14.2785 13.74 14.2784 13.7454 14.2777 13.75H25.7344C25.7012 13.367 25.5995 13.1206 25.4919 12.959C25.3572 12.7571 25.1681 12.6051 24.9417 12.4919C24.7102 12.3761 24.4623 12.3119 24.263 12.2786C24.1666 12.2626 24.0888 12.2561 24.04 12.2526C24.0167 12.2509 24.0004 12.2496 23.9928 12.2493H15.9997ZM20.0003 6.25C19.8014 6.25 19.6104 6.32907 19.4697 6.46973C19.3291 6.61038 19.25 6.80141 19.25 7.00033V9.74935H20.7507V7.00033C20.7507 6.80157 20.6714 6.61035 20.5309 6.46973C20.3903 6.32915 20.1991 6.25009 20.0003 6.25Z" fill="#FAFAFA"/>
</svg>
