<svg width="40" height="40" viewBox="0 0 40 40" fill="none" xmlns="http://www.w3.org/2000/svg">
<path d="M32.0848 13.5215C31.5602 13.0731 30.7707 13.1353 30.3221 13.6598C29.8737 14.1844 29.9359 14.9739 30.4604 15.4225C31.8176 16.5836 32.8606 18.0674 33.4943 19.7373C34.128 21.4077 34.3325 23.2118 34.0867 24.9814C33.841 26.7506 33.1543 28.4301 32.0897 29.8642C31.0249 31.2987 29.6156 32.4419 27.993 33.1894C26.3703 33.9369 24.5849 34.2647 22.8026 34.1416L22.1369 34.0748C20.5929 33.8703 19.1092 33.3275 17.7928 32.4847C16.2887 31.5213 15.0499 30.1959 14.1925 28.6289C13.3351 27.0618 12.8858 25.3032 12.8856 23.5166C12.8855 22.8262 12.3259 22.2665 11.6356 22.2666C10.9454 22.2669 10.3856 22.8264 10.3856 23.5166C10.3858 25.7224 10.9413 27.8934 12.0002 29.8284C12.9928 31.6425 14.3978 33.1958 16.1001 34.3629L16.4451 34.5908C18.3025 35.7799 20.4295 36.4832 22.63 36.6351C24.8305 36.7871 27.0344 36.3827 29.0379 35.4599C31.0415 34.537 32.7816 33.125 34.0965 31.3535C35.4111 29.5825 36.2589 27.5093 36.5623 25.3248C36.8657 23.1399 36.6157 20.9127 35.8332 18.8502C35.0506 16.7879 33.7611 14.9552 32.0848 13.5215Z" fill="#FAFAFA"/>
<path d="M20.2178 34.5126V26.2542C20.2179 26.0999 20.278 25.9516 20.3871 25.8424C20.4964 25.7331 20.646 25.6715 20.8005 25.6715C21.4421 25.6745 22.0786 25.5505 22.6723 25.3069C23.2683 25.0622 23.81 24.7014 24.2657 24.2457C24.7214 23.79 25.0822 23.2484 25.3269 22.6523C25.5715 22.0561 25.6956 21.4168 25.6915 20.7724C25.6912 20.0092 25.518 19.2556 25.1853 18.5686C24.8842 17.9476 24.1365 17.6883 23.5153 17.9892C22.8943 18.2902 22.6351 19.0379 22.9359 19.6591C23.1047 20.0077 23.192 20.39 23.1915 20.7773V20.7887C23.1935 21.1021 23.133 21.4134 23.014 21.7034C22.895 21.9932 22.7196 22.2566 22.4981 22.4781C22.2764 22.6998 22.0118 22.875 21.7217 22.9941C21.432 23.1129 21.1218 23.1735 20.8086 23.1715H20.8005C19.9829 23.1715 19.1976 23.4967 18.6195 24.0748C18.0417 24.6528 17.7179 25.4368 17.7178 26.2542V34.5126C17.7178 35.203 18.2775 35.7626 18.9678 35.7626C19.6578 35.7622 20.2178 35.2027 20.2178 34.5126Z" fill="#FAFAFA"/>
<path d="M28.357 34.8469V29.0152C28.3569 28.6926 28.4223 28.3731 28.5474 28.0761C28.6727 27.7789 28.8552 27.5086 29.0862 27.2834C29.3171 27.0583 29.5915 26.8819 29.8918 26.7642C30.1921 26.6467 30.5135 26.5915 30.8359 26.5998H35.2711C35.9613 26.5998 36.5209 26.04 36.5211 25.3498C36.5211 24.6595 35.9614 24.0998 35.2711 24.0998H30.8684C30.2231 24.0872 29.5816 24.2014 28.9804 24.4367C28.3693 24.6761 27.8114 25.035 27.3414 25.4931C26.8713 25.9512 26.4977 26.4995 26.2428 27.1044C25.9879 27.7091 25.8568 28.3589 25.857 29.0152V34.8469C25.8573 35.537 26.4169 36.0968 27.107 36.0969C27.7972 36.0969 28.3567 35.537 28.357 34.8469Z" fill="#FAFAFA"/>
<path d="M25.0901 3.76286C24.0962 3.40231 23.0342 3.26672 21.9814 3.36409C20.9573 3.45888 19.9679 3.77585 19.0761 4.28694L10.5556 8.54476L9.40817 6.76904C9.15439 6.39794 8.78525 6.1202 8.35836 5.97803L8.19723 5.93082C7.81749 5.83785 7.41738 5.85462 7.04489 5.98128L4.66533 6.7902C4.64363 6.79758 4.62149 6.80605 4.60022 6.81461C4.22887 6.96416 3.91174 7.21882 3.68388 7.54378L3.59111 7.68701C3.36065 8.08226 3.26759 8.54332 3.32744 8.9956C3.33739 9.07075 3.35452 9.14485 3.37789 9.21696L5.52145 15.8104C5.52474 15.8205 5.52766 15.8313 5.53121 15.8413C5.78137 16.5487 6.30094 17.1282 6.97653 17.4543C7.64648 17.7775 8.41584 17.8247 9.12008 17.5877L13.5732 16.1392L13.3632 17.145L13.3535 17.2036C13.2962 17.5637 13.3317 17.9325 13.4576 18.2746C13.5837 18.6166 13.7957 18.9215 14.0729 19.1584C14.3503 19.3953 14.685 19.5577 15.0429 19.6287C15.3997 19.6995 15.7681 19.6757 16.1139 19.5636L18.9215 18.6619C19.2558 18.5555 19.5588 18.3667 19.802 18.1134C20.0415 17.8639 20.2144 17.5576 20.3082 17.2248L20.3099 17.2264L21.2962 13.8475L27.4908 11.8537C27.8532 11.7514 28.1926 11.5794 28.4886 11.3459C28.806 11.0954 29.068 10.7813 29.2552 10.423C29.4424 10.0645 29.5516 9.66956 29.5758 9.26579C29.5999 8.86216 29.5382 8.45752 29.3951 8.07926C29.0399 7.0923 28.4729 6.19483 27.7334 5.45068C26.9878 4.70055 26.0843 4.12362 25.0901 3.76286ZM22.2125 5.8527C22.8983 5.78934 23.5898 5.8783 24.2373 6.11312C24.8851 6.34822 25.4735 6.72459 25.9593 7.21338C26.4451 7.70218 26.817 8.29265 27.0481 8.94189C27.0508 8.94939 27.0535 8.95723 27.0563 8.96468C27.0745 9.013 27.0837 9.06442 27.0807 9.11605C27.0776 9.16789 27.0624 9.21971 27.0384 9.26579C27.0143 9.31158 26.9813 9.3526 26.9407 9.3846C26.9001 9.41663 26.8525 9.43865 26.8024 9.45133C26.7762 9.45792 26.7499 9.46586 26.7242 9.47412L20.5117 11.4728L20.4856 11.4826L19.8672 11.6958L19.7288 11.7544C19.4142 11.9077 19.1754 12.1871 19.0761 12.5275L17.9661 16.341L15.9495 16.9904L16.4297 14.6792C16.5063 14.3109 16.4131 13.9277 16.1757 13.6359C15.9385 13.3444 15.5831 13.1755 15.2073 13.1753H14.802L14.6067 13.1899C14.5418 13.2002 14.4774 13.2151 14.4147 13.2355L8.34534 15.2114L8.32581 15.2179C8.2396 15.2476 8.14535 15.2424 8.06376 15.2033C7.98189 15.1638 7.91823 15.0934 7.88798 15.008L5.93649 8.99886L7.52503 8.45849L9.06311 10.8429C9.40899 11.378 10.1029 11.5673 10.6728 11.2824L20.1927 6.52165C20.2181 6.50893 20.243 6.49537 20.2675 6.48096C20.8613 6.13103 21.5263 5.91617 22.2125 5.8527ZM18.2819 16.6519L18.2754 16.6502L18.2737 16.6437L18.2819 16.6519ZM18.2754 16.6502L18.2819 16.6519L18.2737 16.6437L18.2754 16.6502Z" fill="#FAFAFA"/>
</svg>
