<svg width="40" height="40" viewBox="0 0 40 40" fill="none" xmlns="http://www.w3.org/2000/svg">
<path fill-rule="evenodd" clip-rule="evenodd" d="M20 3.75C20.5802 3.75 21.1276 3.99047 21.5479 4.24967C21.9958 4.52598 22.4339 4.90696 22.8206 5.35482C23.5859 6.24106 24.2497 7.52045 24.2497 9.00065C24.2496 10.2462 23.9162 11.2092 23.6784 12.0492C23.487 12.7252 23.3084 13.4573 23.2617 14.4694C23.6463 14.6451 24.0184 14.8532 24.3783 15.0879C24.6603 14.5126 25.0163 13.9583 25.446 13.4717C26.2881 12.5181 27.4877 11.7499 28.999 11.7497C31.0634 11.7498 32.8979 13.1023 34.152 14.9137C35.4288 16.7581 36.2499 19.2593 36.25 22.0003C36.2497 22.6522 35.7476 23.1941 35.0977 23.2454C34.0858 23.3251 33.071 23.128 32.1631 22.6742C31.255 22.2201 30.4866 21.5265 29.943 20.6689C29.5738 20.0859 29.7474 19.3132 30.3304 18.9437C30.9134 18.5745 31.6861 18.7482 32.0557 19.3311C32.3558 19.8044 32.78 20.1872 33.2812 20.4378C33.4033 20.4988 33.529 20.5516 33.6572 20.5957C33.4432 18.917 32.8622 17.4424 32.0964 16.3363C31.1007 14.8981 29.9344 14.2498 28.999 14.2497C28.4018 14.2499 27.8351 14.5415 27.3193 15.1253C26.9082 15.591 26.577 16.1961 26.3574 16.8213C26.4505 16.9283 26.543 17.0366 26.6325 17.1484C26.7885 17.3434 26.9357 17.5459 27.0784 17.7523C27.2608 17.8697 27.4172 18.0327 27.5212 18.2406C27.5871 18.3728 27.6218 18.5119 27.6383 18.6507C28.6879 20.5221 29.2497 22.7367 29.2497 25C29.2497 25.1157 29.2444 25.2312 29.2415 25.3467C29.6982 25.2785 30.1617 25.2629 30.6169 25.3206C31.8315 25.4749 32.9435 26.1497 33.54 27.4886L33.7484 27.998C34.1918 29.2028 34.3404 30.5 34.1797 31.779C33.9959 33.2402 33.4142 34.6231 32.4984 35.7764C32.2612 36.0749 31.8998 36.25 31.5186 36.25H31.5007C31.4942 36.2499 31.4869 36.2486 31.4795 36.2484C31.4646 36.248 31.4476 36.2478 31.429 36.2467C31.3911 36.2446 31.3446 36.2401 31.2923 36.2337C31.188 36.221 31.0539 36.1989 30.9017 36.1556C30.5961 36.0685 30.2081 35.898 29.8291 35.5745C29.0338 34.8954 28.5124 33.7473 28.5124 31.9987C28.5131 31.309 29.0725 30.7488 29.7624 30.7487C30.452 30.7491 31.0117 31.3091 31.0124 31.9987C31.0124 32.5677 31.0884 32.9511 31.1768 33.2064C31.4432 32.661 31.6228 32.0741 31.6992 31.4665C31.8257 30.4596 31.673 29.4369 31.2581 28.5107L31.2565 28.5075C31.0527 28.0492 30.7441 27.8574 30.3011 27.8011C29.9208 27.753 29.4394 27.8147 28.9144 27.9899C28.5072 29.7937 27.7358 31.4724 26.6325 32.8516C24.9304 34.9791 22.5547 36.25 20 36.25C17.4454 36.2499 15.0695 34.9791 13.3675 32.8516C12.2642 31.4724 11.4912 29.7938 11.084 27.9899C10.5589 27.8148 10.0775 27.753 9.69727 27.8011C9.25452 27.8574 8.94565 28.0495 8.74186 28.5075L8.74023 28.5107C8.32547 29.4368 8.17434 30.4597 8.30078 31.4665C8.37725 32.0747 8.5531 32.6638 8.81999 33.2096C8.9089 32.9544 8.98763 32.5703 8.98763 31.9987C8.98833 31.3089 9.54771 30.7487 10.2376 30.7487C10.9272 30.7491 11.4869 31.3092 11.4876 31.9987C11.4876 33.7468 10.9658 34.8953 10.1709 35.5745C9.79188 35.8981 9.4023 36.0685 9.09668 36.1556C8.9452 36.1987 8.81175 36.221 8.70768 36.2337C8.65563 36.2401 8.60882 36.2446 8.57096 36.2467C8.55259 36.2478 8.53528 36.248 8.52051 36.2484C8.51318 36.2486 8.50421 36.2498 8.49772 36.25H8.48307L8.47982 35V36.25C8.09874 36.2499 7.73866 36.0748 7.50163 35.7764C6.58554 34.623 6.00411 33.2404 5.82031 31.779C5.63666 30.3174 5.85774 28.8329 6.45996 27.4886C7.05657 26.1499 8.16851 25.4749 9.38314 25.3206C9.83798 25.263 10.3007 25.2802 10.7568 25.3483C10.7539 25.2323 10.7503 25.1163 10.7503 25C10.7503 22.737 11.3108 20.522 12.36 18.6507C12.3766 18.5118 12.4128 18.3729 12.4788 18.2406C12.5826 18.033 12.7381 17.8697 12.9199 17.7523C13.0628 17.5456 13.2114 17.3436 13.3675 17.1484C13.4562 17.0375 13.547 16.9291 13.6393 16.8229C13.4202 16.1973 13.092 15.5911 12.6807 15.1253C12.1647 14.541 11.5969 14.2497 10.9993 14.2497C10.064 14.25 8.8976 14.8983 7.90202 16.3363C7.13628 17.4425 6.55353 18.9171 6.33952 20.5957C6.46873 20.5514 6.59573 20.4993 6.71875 20.4378C7.22006 20.1871 7.64419 19.8044 7.94434 19.3311C8.31396 18.7482 9.0866 18.5742 9.6696 18.9437C10.2525 19.3133 10.4247 20.0859 10.0553 20.6689C9.5118 21.5263 8.7449 22.2201 7.83691 22.6742C6.92898 23.1281 5.91429 23.325 4.90234 23.2454C4.25226 23.1943 3.75033 22.6523 3.75 22.0003C3.75006 19.2592 4.57112 16.7581 5.84798 14.9137C7.102 13.1025 8.93519 11.75 10.9993 11.7497C12.511 11.7497 13.7118 12.5179 14.554 13.4717C14.9835 13.9581 15.3381 14.5128 15.6201 15.0879C15.9804 14.8529 16.3533 14.6453 16.7383 14.4694C16.6899 13.4558 16.5129 12.7245 16.3216 12.0492C16.0835 11.2087 15.7504 10.2481 15.7503 9.00065C15.7503 7.52049 16.4142 6.24105 17.1794 5.35482C17.5662 4.9068 18.0057 4.52604 18.4538 4.24967C18.8738 3.99065 19.4202 3.75009 20 3.75ZM17.4788 33.1087C18.286 33.5328 19.1432 33.7499 20 33.75C20.6107 33.75 21.2216 33.6393 21.8148 33.4229L20.2165 30.2279C20.0319 30.2605 19.8429 30.2512 19.6615 30.2002L17.4788 33.1087ZM22.4756 29.1569L23.9421 32.0882C24.199 31.8474 24.4473 31.5827 24.681 31.2907C25.1164 30.7465 25.4892 30.1309 25.7959 29.4645L24.7607 28.0159L22.4756 29.1569ZM14.2025 29.4645C14.5092 30.1312 14.8835 30.7463 15.319 31.2907C15.3882 31.3772 15.4592 31.4609 15.5306 31.543L17.3747 29.0837L15.236 28.0143L14.2025 29.4645ZM20.5583 23.1185C20.2065 23.2942 19.7918 23.2943 19.4401 23.1185L18.9209 22.8581L16.7074 25.9554L19.9984 27.6009L23.2894 25.9554L21.0758 22.8581L20.5583 23.1185ZM14.2155 20.5046C13.5947 21.8413 13.2503 23.3893 13.2503 25C13.2503 25.466 13.279 25.9267 13.335 26.3786L16.6585 21.7269L14.2155 20.5046ZM23.3398 21.7253L26.6618 26.3786C26.7178 25.9266 26.7497 25.4661 26.7497 25C26.7497 23.3891 26.4039 21.8415 25.7829 20.5046L23.3398 21.7253ZM20 16.25C18.4241 16.2501 16.8437 16.9787 15.5843 18.3952L19.9984 20.6022L24.4141 18.3936C23.1549 16.9782 21.5753 16.25 20 16.25ZM20 6.25977C19.9604 6.27392 19.882 6.30677 19.7656 6.37858C19.5575 6.50702 19.3086 6.71329 19.0706 6.98893C18.5862 7.55026 18.2503 8.27181 18.2503 9.00065C18.2504 9.81909 18.4497 10.3893 18.7272 11.3688C18.9173 12.04 19.1056 12.8069 19.196 13.7939C19.4616 13.766 19.7297 13.75 20 13.75C20.2708 13.75 20.5395 13.7659 20.8057 13.7939C20.8951 12.8081 21.0826 12.0404 21.2728 11.3688C21.5508 10.3866 21.7496 9.81683 21.7497 9.00065C21.7497 8.27168 21.414 7.55031 20.9294 6.98893C20.6912 6.71311 20.4426 6.507 20.2344 6.37858C20.1174 6.30646 20.0395 6.27381 20 6.25977Z" fill="#FAFAFA"/>
</svg>
