<svg width="40" height="40" viewBox="0 0 40 40" fill="none" xmlns="http://www.w3.org/2000/svg">
<path fill-rule="evenodd" clip-rule="evenodd" d="M24.6875 4.6875C26.2622 4.6875 27.7732 5.31228 28.8867 6.42578C30.0002 7.53928 30.625 9.05028 30.625 10.625C30.625 11.3154 30.0654 11.875 29.375 11.875C28.6846 11.875 28.125 11.3154 28.125 10.625C28.125 9.71332 27.7622 8.83964 27.1175 8.19499C26.4729 7.55033 25.5992 7.1875 24.6875 7.1875C23.7758 7.1875 22.9021 7.55033 22.2575 8.19499C21.6128 8.83964 21.25 9.71332 21.25 10.625V25H23.4375V18.4375C23.4375 17.2772 23.898 16.1639 24.7184 15.3434C25.5389 14.523 26.6522 14.0625 27.8125 14.0625C28.9728 14.0625 30.0861 14.523 30.9066 15.3434C31.727 16.1639 32.1875 17.2772 32.1875 18.4375C32.1875 19.1279 31.6279 19.6875 30.9375 19.6875C30.2471 19.6875 29.6875 19.1279 29.6875 18.4375C29.6875 17.9402 29.4906 17.4626 29.139 17.111C28.7874 16.7594 28.3098 16.5625 27.8125 16.5625C27.3152 16.5625 26.8376 16.7594 26.486 17.111C26.1344 17.4626 25.9375 17.9402 25.9375 18.4375V25H34.0625C34.7529 25 35.3125 25.5596 35.3125 26.25V29.375C35.3125 30.9497 34.6877 32.4607 33.5742 33.5742C32.4607 34.6877 30.9497 35.3125 29.375 35.3125H10.625C9.05028 35.3125 7.53928 34.6877 6.42578 33.5742C5.31228 32.4607 4.6875 30.9497 4.6875 29.375V26.25C4.6875 25.5596 5.24714 25 5.9375 25H14.0625V18.4375C14.0625 17.9402 13.8656 17.4626 13.514 17.111C13.1624 16.7594 12.6848 16.5625 12.1875 16.5625C11.6902 16.5625 11.2126 16.7594 10.861 17.111C10.5094 17.4626 10.3125 17.9402 10.3125 18.4375C10.3125 19.1279 9.75286 19.6875 9.0625 19.6875C8.37214 19.6875 7.8125 19.1279 7.8125 18.4375C7.8125 17.2772 8.27295 16.1639 9.09342 15.3434C9.9139 14.523 11.0272 14.0625 12.1875 14.0625C13.3478 14.0625 14.4611 14.523 15.2816 15.3434C16.102 16.1639 16.5625 17.2772 16.5625 18.4375V25H18.75V10.625C18.75 9.71332 18.3872 8.83964 17.7425 8.19499C17.0979 7.55033 16.2242 7.1875 15.3125 7.1875C14.4008 7.1875 13.5271 7.55033 12.8825 8.19499C12.2378 8.83964 11.875 9.71332 11.875 10.625C11.875 11.3154 11.3154 11.875 10.625 11.875C9.93464 11.875 9.375 11.3154 9.375 10.625C9.375 9.05028 9.99978 7.53928 11.1133 6.42578C12.2268 5.31228 13.7378 4.6875 15.3125 4.6875C16.8872 4.6875 18.3982 5.31228 19.5117 6.42578C19.6871 6.60113 19.8494 6.78703 20 6.98079C20.1506 6.78703 20.3129 6.60113 20.4883 6.42578C21.6018 5.31228 23.1128 4.6875 24.6875 4.6875ZM7.1875 29.375L7.20378 29.7152C7.28198 30.502 7.631 31.241 8.19499 31.805C8.83964 32.4497 9.71332 32.8125 10.625 32.8125H29.375C30.2867 32.8125 31.1604 32.4497 31.805 31.805C32.4497 31.1604 32.8125 30.2867 32.8125 29.375V27.5H7.1875V29.375Z" fill="#FAFAFA"/>
</svg>
