<svg width="40" height="40" viewBox="0 0 40 40" fill="none" xmlns="http://www.w3.org/2000/svg">
<path fill-rule="evenodd" clip-rule="evenodd" d="M27.9688 17.3118C28.226 17.3041 28.4816 17.3581 28.7192 17.4615L28.7208 17.4583C30.9311 18.3983 32.7865 20.0163 34.017 22.0791C35.2411 24.1312 35.782 26.5178 35.5681 28.8971C35.5261 30.8328 34.741 32.6782 33.3709 34.0485C31.9861 35.4331 30.1157 36.2241 28.1576 36.2506H28.1414C26.1708 36.2504 24.2795 35.4676 22.8858 34.0745C21.5792 32.7679 20.8092 31.0237 20.7179 29.1868L20.7081 28.819C20.6419 27.5691 20.9248 26.3245 21.5284 25.2268C22.1451 24.1057 23.0701 23.1843 24.1928 22.5706L24.3295 22.5055C24.6578 22.3748 25.0296 22.3881 25.35 22.5478C25.7161 22.7306 25.9698 23.082 26.0287 23.4869C26.0712 23.779 26.2232 24.0447 26.4535 24.2291C26.5086 24.2731 26.5681 24.3117 26.6293 24.3447C26.8519 23.7529 26.9799 23.1282 27.0004 22.4925C27.0301 21.5714 26.8399 20.6561 26.4454 19.8232L26.447 19.8216C26.2945 19.5053 26.2387 19.1505 26.2908 18.8027L26.351 18.5374C26.4319 18.2797 26.5736 18.0435 26.7628 17.8473L26.9646 17.6666C27.18 17.5035 27.4324 17.3913 27.7003 17.3411L27.9688 17.3118ZM29.3328 20.6403C29.4625 21.2735 29.5214 21.9216 29.5004 22.5722C29.4578 23.8906 29.1008 25.1805 28.4604 26.3336C28.2567 26.7003 27.8825 26.9408 27.4643 26.9733C26.5379 27.0448 25.6184 26.7609 24.8927 26.1806C24.6781 26.0089 24.4869 25.813 24.3181 25.6012C24.0868 25.8514 23.885 26.1298 23.7192 26.4313C23.3321 27.1352 23.1527 27.9359 23.2048 28.7376C23.2066 28.7645 23.2081 28.792 23.2081 28.819C23.2085 30.1265 23.7289 31.3806 24.6534 32.3053C25.5757 33.2274 26.8261 33.7459 28.13 33.749C29.4346 33.7298 30.6805 33.2035 31.6033 32.2809C32.5274 31.3567 33.0553 30.1079 33.073 28.8011L33.0779 28.7034C33.2517 26.8395 32.8276 24.9677 31.8686 23.36C31.2227 22.2775 30.3557 21.3529 29.3328 20.6403Z" fill="#FAFAFA"/>
<path fill-rule="evenodd" clip-rule="evenodd" d="M13.6589 4.34956C16.0702 3.59894 18.646 3.55346 21.0825 4.21772C23.5189 4.88217 25.7157 6.22887 27.4122 8.09956C29.1087 9.97046 30.2355 12.2879 30.6593 14.7776C30.7749 15.4579 30.3174 16.1037 29.6371 16.2197C28.9569 16.3355 28.3113 15.8776 28.1951 15.1975C27.9089 13.5162 27.2252 11.9328 26.211 10.5735L25.8416 11.0732L25.8399 11.0716C25.5765 11.4266 25.4035 11.841 25.3338 12.2776C25.2815 12.6052 25.2888 12.939 25.3549 13.2623L25.4412 13.5813L25.7813 14.6051C25.9991 15.2599 25.645 15.969 24.9903 16.1871C24.3353 16.4049 23.6278 16.0494 23.4099 15.3945L23.0698 14.374L22.9786 14.0696C22.7881 13.3582 22.7482 12.6134 22.8647 11.8837C22.9978 11.0497 23.3313 10.2604 23.8347 9.58231L24.4646 8.73107C23.288 7.75395 21.9117 7.03531 20.4249 6.62983C18.4483 6.09093 16.359 6.12841 14.4028 6.73725C13.8505 6.90919 13.3148 7.12427 12.8012 7.38016L17.6742 9.23074C18.3955 9.50193 18.9959 10.0204 19.3702 10.694C19.7448 11.3686 19.8671 12.1558 19.7153 12.9124L19.2986 15.0022C19.1781 15.6056 18.8882 16.1632 18.4636 16.6087C18.0919 16.9985 17.629 17.2886 17.1192 17.455L16.8979 17.5185L14.7462 18.0556L13.4457 21.3108C13.0515 22.2965 12.366 23.1403 11.4828 23.7294L11.4698 23.7376L10.0522 24.6556C10.587 25.1826 11.1775 25.6559 11.8165 26.0634C13.5441 27.1651 15.552 27.7518 17.601 27.7513C18.2907 27.7517 18.8505 28.3099 18.851 28.9996C18.851 29.6897 18.2911 30.2508 17.601 30.2513C15.0755 30.2519 12.6015 29.5292 10.4721 28.1712C8.34309 26.8132 6.64552 24.8752 5.58115 22.5852C4.51682 20.2951 4.12999 17.7479 4.46461 15.2447C4.79945 12.7414 5.84187 10.3845 7.4708 8.45438C9.09979 6.52421 11.2474 5.10032 13.6589 4.34956ZM10.3012 9.10542C9.97612 9.40567 9.66898 9.72683 9.38161 10.0673C8.06017 11.6332 7.21351 13.5443 6.94183 15.5751C6.67025 17.6059 6.98505 19.6725 7.8484 21.5306C8.03525 21.9326 8.24663 22.3209 8.47991 22.6943L10.1091 21.6396C10.5653 21.3314 10.9187 20.8928 11.1231 20.3815L12.6629 16.5354L12.7263 16.4003C12.8926 16.0964 13.1802 15.8719 13.5206 15.7867L16.2924 15.0934L16.3933 15.0608C16.4912 15.021 16.5803 14.9604 16.6537 14.8834C16.7516 14.7806 16.8197 14.6515 16.8474 14.5123L17.2641 12.4208C17.2987 12.2466 17.2706 12.0635 17.1843 11.9082C17.0978 11.7527 16.9587 11.6321 16.7921 11.5696L16.7872 11.568L10.3012 9.10542Z" fill="#FAFAFA"/>
</svg>
