<svg width="40" height="40" viewBox="0 0 40 40" fill="none" xmlns="http://www.w3.org/2000/svg">
<path fill-rule="evenodd" clip-rule="evenodd" d="M20.3402 5.00797C21.9508 5.09168 23.4782 5.7697 24.624 6.91552L24.847 7.14827C25.9298 8.34337 26.5356 9.90126 26.5397 11.5216L26.5381 11.5737C26.5348 11.6582 26.5256 11.7421 26.5169 11.826C26.5657 11.8564 26.6155 11.8857 26.6634 11.9172C27.5852 12.5212 28.328 13.3009 28.8509 14.2544C29.234 13.2933 29.3262 12.0836 29.3262 10.48C29.3264 9.78985 29.886 9.23005 30.5762 9.22998C31.2663 9.23009 31.826 9.78988 31.8262 10.48C31.8262 12.9346 31.6774 15.4734 29.7005 17.394C29.7088 17.5533 29.7135 17.716 29.7135 17.8807V20.8739H33.75L33.877 20.8804C34.5075 20.9442 35 21.4765 35 22.1239C35 22.7712 34.5075 23.3035 33.877 23.3673L33.75 23.3739H29.7135V24.2316C29.7134 25.4638 29.4774 26.6426 29.0544 27.7293C29.7568 28.37 30.38 29.0597 30.8529 29.8729C31.4976 30.9819 31.8278 32.2355 31.8278 33.7498C31.8277 34.4399 31.2678 34.9995 30.5778 34.9998C29.8876 34.9997 29.3279 34.44 29.3278 33.7498C29.3278 32.6248 29.0896 31.8142 28.6914 31.1294C28.4652 30.7404 28.173 30.3698 27.806 29.9917C26.0332 32.3834 23.1924 33.9419 20.0016 33.9419L20 33.9403C16.809 33.9392 13.966 32.3814 12.194 29.9884C11.8263 30.3671 11.535 30.7401 11.3086 31.1294C10.9108 31.8139 10.6739 32.6249 10.6738 33.7498C10.6736 34.44 10.1141 34.9998 9.42383 34.9998C8.73361 34.9998 8.17404 34.44 8.17383 33.7498C8.17387 32.2353 8.50233 30.9803 9.14714 29.8713C9.62038 29.0575 10.2404 28.362 10.944 27.7212C10.5232 26.6369 10.2899 25.4605 10.2897 24.2316V23.3739H6.25C5.55964 23.3739 5 22.8142 5 22.1239C5 21.4335 5.55964 20.8739 6.25 20.8739H10.2897V17.8807C10.2897 17.6758 10.298 17.474 10.3125 17.2769C8.32919 15.3763 8.17383 12.9593 8.17383 10.48C8.17405 9.78981 8.73361 9.22998 9.42383 9.22998C10.114 9.22998 10.6736 9.78981 10.6738 10.48C10.6738 12.1562 10.7694 13.3568 11.2061 14.3065C11.7256 13.4106 12.4465 12.6596 13.3203 12.062C13.378 12.0226 13.4372 11.9845 13.4961 11.9464L13.4635 11.5867C13.4625 11.5651 13.4619 11.5433 13.4619 11.5216C13.4664 9.7934 14.1557 8.13738 15.3776 6.91552L15.612 6.69254C16.8072 5.61013 18.3636 5.00414 19.9837 4.99983H20.0179L20.3402 5.00797ZM20.0016 12.7847C17.8339 12.7847 15.992 13.2641 14.7314 14.1258C13.5242 14.9515 12.7897 16.1601 12.7897 17.8807V24.2316C12.7904 27.7676 15.3771 30.7302 18.75 31.328V15.7697C18.75 15.0793 19.3096 14.5197 20 14.5197C20.6904 14.5197 21.25 15.0793 21.25 15.7697V31.3296C23.5089 30.9304 25.4136 29.4703 26.4274 27.4868C26.4319 27.4782 26.4357 27.4693 26.4404 27.4608C26.933 26.4875 27.2133 25.3907 27.2135 24.2316V22.1873C27.2125 22.1663 27.2103 22.1452 27.2103 22.1239C27.2103 22.102 27.2124 22.0803 27.2135 22.0588V17.8807C27.2135 15.9581 26.4592 14.7729 25.293 14.0086C24.0471 13.1925 22.2108 12.7847 20.0016 12.7847ZM19.5915 7.52099C18.8022 7.60136 18.0533 7.91165 17.4398 8.41455L17.1452 8.6831C16.5614 9.26685 16.177 10.0112 16.0303 10.812C17.2686 10.4512 18.6202 10.2847 20.0016 10.2847C21.3658 10.2847 22.7145 10.4204 23.9567 10.7485C23.8281 10.1006 23.5449 9.49159 23.1234 8.9777L22.8564 8.6831C22.1959 8.02262 21.3299 7.61453 20.4085 7.52099L20.0114 7.49983H19.9902L19.5915 7.52099Z" fill="#FAFAFA"/>
<path d="M9.90885 4.53108C10.1516 3.93104 10.8076 3.62145 11.416 3.79866L11.5365 3.84098L16.8701 5.99918L16.9873 6.05289C17.5474 6.34871 17.8029 7.02692 17.5602 7.62679C17.3175 8.2264 16.6627 8.53579 16.0547 8.35921L15.9326 8.31689L10.599 6.15869L10.4834 6.10498C9.92273 5.80941 9.6661 5.13123 9.90885 4.53108Z" fill="#FAFAFA"/>
<path d="M30.0911 4.53108C29.8484 3.93104 29.1924 3.62145 28.584 3.79866L28.4635 3.84098L23.1299 5.99918L23.0127 6.05289C22.4526 6.34871 22.1971 7.02692 22.4398 7.62679C22.6825 8.2264 23.3373 8.53579 23.9453 8.35921L24.0674 8.31689L29.401 6.15869L29.5166 6.10498C30.0773 5.80941 30.3339 5.13123 30.0911 4.53108Z" fill="#FAFAFA"/>
</svg>
