<svg width="40" height="40" viewBox="0 0 40 40" fill="none" xmlns="http://www.w3.org/2000/svg">
<path fill-rule="evenodd" clip-rule="evenodd" d="M19.6833 36.651L19.3708 36.5956L19.2487 36.5582L5.18945 31.5777C4.65634 31.4198 4.18615 31.0961 3.85156 30.65C3.50654 30.1898 3.32623 29.6277 3.33561 29.0533L3.33398 10.9592L3.34212 10.7558C3.37806 10.285 3.54275 9.83163 3.81901 9.44556C4.13109 9.00966 4.57093 8.68192 5.07715 8.50644L5.07552 8.50481L19.138 3.47877L19.1462 3.47551C19.6994 3.28225 20.302 3.28225 20.8551 3.47551L20.8617 3.47877L34.9502 8.49179L34.9567 8.49342C35.4573 8.67439 35.891 9.00511 36.1969 9.44068C36.5027 9.87618 36.6669 10.3962 36.6673 10.9283L36.6673 29.094C36.6766 29.6683 36.4947 30.2306 36.1497 30.6907C35.8182 31.1326 35.3535 31.4541 34.8265 31.6135L20.751 36.5598L20.6305 36.5956C20.3199 36.671 19.999 36.6888 19.6833 36.651ZM34.1673 10.9299C34.1672 10.9114 34.16 10.893 34.1494 10.8779C34.1388 10.863 34.1242 10.8516 34.1071 10.8453L21.2507 6.27174L21.2507 23.8515L34.1673 28.3713L34.1673 10.9299ZM18.7507 23.8499L18.7507 6.27336L5.91699 10.8599L5.89583 10.8665C5.87802 10.8725 5.86288 10.8854 5.85189 10.9006C5.84107 10.9159 5.83405 10.934 5.83398 10.9527L5.83398 28.3713L18.7507 23.8499ZM31.5664 30.1096L20.0007 26.0618L8.48372 30.0933L19.9827 34.1656C19.9966 34.1671 20.0097 34.1675 20.0234 34.1656L31.5664 30.1096Z" fill="#FAFAFA"/>
</svg>
