<svg width="40" height="40" viewBox="0 0 40 40" fill="none" xmlns="http://www.w3.org/2000/svg">
<path fill-rule="evenodd" clip-rule="evenodd" d="M36.6699 9.58333C36.6699 7.05203 34.6179 5 32.0866 5H7.91992C5.38862 5 3.33659 7.05203 3.33659 9.58333V27.0833C3.33659 29.6146 5.38862 31.6667 7.91992 31.6667H19.6822L27.7342 36.0953C28.1214 36.3083 28.5924 36.3009 28.9728 36.076C29.3532 35.8511 29.5866 35.442 29.5866 35V31.6667H32.0866C34.6179 31.6667 36.6699 29.6146 36.6699 27.0833V9.58333ZM32.0866 7.5C33.2372 7.5 34.1699 8.43274 34.1699 9.58333V27.0833C34.1699 28.2339 33.2372 29.1667 32.0866 29.1667H28.3366C27.6462 29.1667 27.0866 29.7263 27.0866 30.4167V32.8859L20.6057 29.3214C20.4211 29.2199 20.2139 29.1667 20.0033 29.1667H7.91992C6.76933 29.1667 5.83659 28.2339 5.83659 27.0833V9.58333C5.83659 8.43274 6.76933 7.5 7.91992 7.5H32.0866Z" fill="#FAFAFA"/>
</svg>
