<svg width="40" height="40" viewBox="0 0 40 40" fill="none" xmlns="http://www.w3.org/2000/svg">
<path d="M35.0007 21.5005C35.6907 21.5008 36.2507 22.0603 36.2507 22.7505C36.2507 23.4406 35.6907 24.0001 35.0007 24.0005H32.25V26.7511C32.2497 27.4412 31.6901 28.0011 31 28.0011H26.2507V30.7502C26.2507 31.4403 25.6907 31.9998 25.0007 32.0002H20.2497V34.7508C20.2495 35.441 19.6899 36.0008 18.9997 36.0008H11C10.3098 36.0008 9.75018 35.441 9.75 34.7508C9.75 34.0605 10.3096 33.5008 11 33.5008H17.7497V30.7502C17.7499 30.0601 18.3096 29.5003 18.9997 29.5002H23.7507V26.7511C23.7507 26.0608 24.3103 25.5011 25.0007 25.5011H29.75V22.7505C29.75 22.0601 30.3096 21.5005 31 21.5005H35.0007Z" fill="#FAFAFA"/>
<path d="M22.7507 11.7506C22.7507 11.5517 22.6715 11.3606 22.5309 11.22C22.3904 11.0794 22.1991 11.0003 22.0003 11.0002H21.9775C20.5726 10.9744 19.1776 11.2467 17.8857 11.7994C16.5939 12.352 15.434 13.1728 14.4824 14.2066L14.4759 14.2131C14.0788 14.6378 13.3609 15.3557 12.137 15.9547C10.9167 16.5518 9.25778 17.0012 7.00033 17.0012C6.80141 17.0012 6.61038 17.0803 6.46973 17.2209C6.32944 17.3614 6.25015 17.5514 6.25 17.7499C6.25 17.9488 6.32916 18.1399 6.46973 18.2805C6.57501 18.3858 6.70837 18.4567 6.85221 18.4856L7.00033 18.5002L7.0459 18.5019C9.55825 18.5925 12.0361 17.8891 14.126 16.4918L14.2497 16.4185C14.5499 16.2645 14.9016 16.2379 15.2246 16.3485C15.5936 16.475 15.8828 16.7662 16.0059 17.1363L16.849 19.6688C17.0143 20.166 16.8516 20.7141 16.4421 21.0409L14.0316 22.9647L14.0299 22.9664C13.4739 23.4088 13.0247 23.9716 12.7165 24.6119C12.4084 25.2521 12.2483 25.9538 12.2493 26.6643V28.7444C12.2493 28.943 12.3288 29.1344 12.4691 29.275C12.6097 29.4155 12.8009 29.4946 12.9997 29.4947C13.1986 29.4947 13.3896 29.4156 13.5303 29.275C13.6708 29.1343 13.75 28.9432 13.75 28.7444V26.6659C13.7493 26.1784 13.859 25.6972 14.0706 25.258C14.2821 24.8194 14.5896 24.4331 14.9707 24.1301L17.7702 21.8889L17.8792 21.8108C18.1391 21.6447 18.4526 21.5799 18.7598 21.6317H18.7646C18.7646 21.6317 18.7702 21.6327 18.7744 21.6334C18.7842 21.635 18.7994 21.6383 18.8184 21.6415C18.8565 21.6479 18.913 21.6571 18.9844 21.6692C19.1271 21.6932 19.3312 21.7272 19.5768 21.7685C20.0686 21.851 20.7267 21.9612 21.3916 22.0712C22.057 22.1812 22.728 22.2904 23.2454 22.3723C23.5044 22.4133 23.7211 22.447 23.8786 22.47C23.9445 22.4796 23.9966 22.4861 24.0348 22.4911C24.2106 22.4832 24.3784 22.4169 24.5085 22.2974C24.647 22.1699 24.7339 21.9936 24.7493 21.8059C24.7646 21.6185 24.7087 21.4317 24.5931 21.2834C24.4836 21.1431 24.3272 21.0477 24.1536 21.0116C24.1436 21.0102 24.1328 21.0117 24.1227 21.01L19.3115 20.2108C18.8552 20.135 18.477 19.8129 18.3301 19.3743L16.9482 15.2385C16.7593 14.6731 16.9955 14.0532 17.513 13.7574C17.9391 13.5139 18.3746 13.2527 18.6377 13.1047C18.942 12.9336 19.2503 12.7752 19.6012 12.6653C20.2865 12.4507 21.0004 12.4741 22.0052 12.4993C22.2022 12.4979 22.3915 12.4206 22.5309 12.2812C22.6715 12.1405 22.7506 11.9494 22.7507 11.7506ZM25.2507 11.7506C25.2506 12.6124 24.9079 13.4393 24.2985 14.0487C23.6891 14.6581 22.8622 15.0008 22.0003 15.0009C21.9901 15.0009 21.9796 15.0011 21.9694 15.0009C20.7947 14.9716 20.5551 14.9866 20.3483 15.0513C20.2503 15.0821 20.1239 15.1376 19.8633 15.2841C19.7882 15.3263 19.7153 15.3674 19.6403 15.411L20.4622 17.8655L24.458 18.5312C24.4818 18.5337 24.5058 18.5354 24.5296 18.5393C25.3349 18.6721 26.062 19.1019 26.5641 19.7453C27.0661 20.3887 27.3063 21.1977 27.2396 22.011C27.1727 22.8244 26.8033 23.5838 26.2028 24.1366C25.6027 24.6891 24.8163 24.9945 24.0007 24.9944C23.8905 24.9944 23.7693 24.9781 23.7435 24.9748C23.6806 24.9669 23.6029 24.9564 23.5173 24.9439C23.3447 24.9187 23.1155 24.8829 22.8532 24.8414C22.3272 24.7581 21.6498 24.6473 20.9831 24.537C20.3158 24.4267 19.6561 24.317 19.1634 24.2343C19.0672 24.2181 18.9772 24.2025 18.8949 24.1887L16.5332 26.0816L16.4111 26.2037C16.377 26.2464 16.3472 26.2925 16.3232 26.342C16.2752 26.4418 16.2497 26.5519 16.25 26.6627V28.7444C16.25 29.6062 15.9072 30.4331 15.2979 31.0425C14.6884 31.652 13.8616 31.9947 12.9997 31.9947C12.1378 31.9946 11.3109 31.652 10.7015 31.0425C10.0924 30.4331 9.74935 29.6061 9.74935 28.7444V26.6659C9.74803 25.5795 9.99277 24.5069 10.4639 23.5279C10.9355 22.548 11.6229 21.687 12.474 21.01L14.2008 19.6298L14.1211 19.3905C11.9183 20.5301 9.45131 21.0905 6.95475 21.0002V20.997C6.10918 20.9852 5.30096 20.6469 4.70215 20.0481C4.09274 19.4386 3.75 18.6118 3.75 17.7499C3.75015 16.8882 4.09279 16.0611 4.70215 15.4517C5.3116 14.8425 6.13859 14.5012 7.00033 14.5012C8.91586 14.5012 10.1935 14.1236 11.0384 13.7102C11.6691 13.4015 12.0952 13.0555 12.3926 12.7694L12.6497 12.5058C13.8394 11.2153 15.2889 10.1915 16.9027 9.50121C18.5126 8.8125 20.2497 8.47288 22.0003 8.50186H22.0036C22.01 8.50196 22.0167 8.50011 22.0231 8.50023L22.0215 8.50186C22.8757 8.5075 23.6941 8.84795 24.2985 9.45238C24.9079 10.0619 25.2507 10.8887 25.2507 11.7506Z" fill="#FAFAFA"/>
<path d="M12.2503 8.74984C12.2502 8.45458 12.1924 8.16162 12.0794 7.88883C11.9664 7.61603 11.7999 7.36849 11.5911 7.15967C11.3822 6.95074 11.1333 6.78446 10.8604 6.67139C10.5876 6.55851 10.2946 6.50049 9.99935 6.50049C9.7041 6.50057 9.41113 6.5584 9.13835 6.67139C8.86552 6.78446 8.61801 6.95084 8.40918 7.15967C8.20035 7.3685 8.03397 7.61601 7.9209 7.88883C7.80791 8.16162 7.75009 8.45458 7.75 8.74984C7.75 9.04505 7.80802 9.33806 7.9209 9.61084C8.03397 9.88382 8.20025 10.1327 8.40918 10.3416C8.61801 10.5504 8.86555 10.7169 9.13835 10.8299C9.41113 10.9429 9.7041 11.0007 9.99935 11.0008C10.2945 11.0008 10.5876 10.9428 10.8604 10.8299C11.1333 10.7168 11.3822 10.5506 11.5911 10.3416C11.8001 10.1327 11.9664 9.88382 12.0794 9.61084C12.1923 9.33809 12.2503 9.04501 12.2503 8.74984ZM14.7503 8.74984C14.7503 9.37343 14.6276 9.99172 14.389 10.5679C14.1503 11.1442 13.7998 11.6681 13.3587 12.1092C12.9176 12.5503 12.3937 12.9008 11.8174 13.1395C11.2412 13.3781 10.6229 13.5008 9.99935 13.5008C9.37608 13.5007 8.75881 13.3779 8.18294 13.1395C7.60672 12.9008 7.08265 12.5502 6.6416 12.1092C6.20052 11.6681 5.85004 11.1442 5.61133 10.5679C5.37273 9.99169 5.25 9.37347 5.25 8.74984C5.25009 8.12652 5.37288 7.50933 5.61133 6.93343C5.85004 6.35713 6.20052 5.83317 6.6416 5.39209C7.08268 4.95101 7.60665 4.60053 8.18294 4.36182C8.75885 4.12337 9.37604 4.00057 9.99935 4.00049C10.623 4.00049 11.2412 4.12321 11.8174 4.36182C12.3937 4.60053 12.9176 4.95101 13.3587 5.39209C13.7997 5.83313 14.1503 6.35721 14.389 6.93343C14.6274 7.5093 14.7502 8.12656 14.7503 8.74984Z" fill="#FAFAFA"/>
<path d="M30.5646 6.91025C30.734 6.90168 30.904 6.92029 31.0675 6.96559L31.3068 7.05348L31.3182 7.05999C32.7759 7.74988 34.0113 8.8344 34.8826 10.1915C35.7539 11.5489 36.2263 13.1245 36.2465 14.7374L36.2482 14.7537C36.248 16.1459 35.6945 17.4818 34.7101 18.4662C33.7256 19.4507 32.3898 20.0027 30.9975 20.0027C29.6053 20.0027 28.2695 19.4506 27.285 18.4662C26.3621 17.5434 25.8179 16.3115 25.7534 15.0141L25.7469 14.7537C25.7356 13.8145 25.9983 12.8921 26.5021 12.0991C27 11.3153 27.7126 10.692 28.5545 10.3022C28.5583 10.3003 28.5621 10.2975 28.5659 10.2957C28.5777 10.2902 28.5898 10.2847 28.6017 10.2794C28.7924 10.1915 28.9986 10.1433 29.2088 10.1362L29.3781 10.1394C29.4688 10.1461 29.5585 10.1612 29.6466 10.1834C29.5767 9.88355 29.4649 9.59435 29.3016 9.3305C29.1243 9.04606 29.0411 8.71134 29.0656 8.37673L29.1046 8.12445C29.1636 7.87713 29.2811 7.64595 29.4497 7.45225L29.632 7.27484C29.8276 7.11204 30.061 6.99844 30.3123 6.94443L30.5646 6.91025ZM32.2247 10.8084C32.2278 11.6894 32.016 12.5585 31.6014 13.3377C31.4325 13.6549 31.1341 13.8849 30.7843 13.9675C30.4347 14.05 30.0664 13.9769 29.7736 13.769C29.4699 13.5533 29.2007 13.2961 28.9712 13.0073C28.836 13.1368 28.7129 13.2805 28.6115 13.4402C28.3665 13.8262 28.2396 14.2754 28.2469 14.7325V14.7537C28.247 15.4826 28.5372 16.1815 29.0525 16.697C29.5683 17.2128 30.2682 17.5027 30.9975 17.5027C31.7268 17.5027 32.4268 17.2127 32.9425 16.697C33.4577 16.1815 33.7464 15.4825 33.7465 14.7537C33.7295 13.6142 33.3955 12.5017 32.7797 11.5424C32.6132 11.2829 32.4268 11.0382 32.2247 10.8084ZM29.2495 11.7475L29.2592 11.7442L29.256 11.7345L29.2495 11.7475ZM29.2592 11.7442L29.2495 11.7475L29.256 11.7345L29.2592 11.7442Z" fill="#FAFAFA"/>
</svg>
