<svg width="40" height="40" viewBox="0 0 40 40" fill="none" xmlns="http://www.w3.org/2000/svg">
<path fill-rule="evenodd" clip-rule="evenodd" d="M29.2506 3.3335C29.941 3.3335 30.5006 3.89314 30.5006 4.5835V20.3973C30.7411 20.3175 30.9484 20.2459 31.1207 20.1808C31.3557 20.0921 31.5283 20.0202 31.6367 19.9725C31.6907 19.9487 31.7298 19.931 31.7522 19.9204C31.7632 19.9152 31.7718 19.9106 31.775 19.909C32.3908 19.6015 33.1399 19.8507 33.4498 20.4657C33.7405 21.0435 33.5408 21.7396 33.0071 22.0802L32.8948 22.1437L32.8688 22.1567C32.8561 22.1629 32.8388 22.1715 32.8183 22.1812C32.7766 22.2008 32.718 22.2268 32.6442 22.2593C32.4957 22.3247 32.2825 22.4147 32.0045 22.5197C31.4943 22.7123 30.7645 22.9537 29.8186 23.2017L22.1363 28.7437L29.9814 34.4028C30.5409 34.8068 30.6667 35.5879 30.263 36.1476C29.859 36.7073 29.078 36.8331 28.5182 36.4292L20.0009 30.2834L11.4821 36.4308C10.9225 36.8345 10.1414 36.7084 9.73726 36.1493C9.33346 35.5894 9.46066 34.8084 10.0205 34.4045L17.8655 28.7437L10.1865 23.2033C9.23823 22.9549 8.50684 22.7126 7.99573 22.5197C7.71773 22.4147 7.50449 22.3246 7.35608 22.2593C7.28215 22.2267 7.22364 22.2008 7.18192 22.1812C7.16131 22.1714 7.14416 22.1629 7.13147 22.1567L7.10543 22.1437C6.48913 21.8333 6.24037 21.0821 6.55041 20.4657C6.86064 19.8501 7.61076 19.6019 8.22685 19.9106C8.23006 19.9122 8.23713 19.9153 8.248 19.9204C8.27039 19.931 8.30953 19.9487 8.36356 19.9725C8.47191 20.0202 8.64432 20.092 8.87951 20.1808C9.05227 20.246 9.26 20.3189 9.50126 20.3989V4.5835C9.50126 3.89314 10.0609 3.3335 10.7513 3.3335C11.4412 3.33394 12.0013 3.89341 12.0013 4.5835V5.38916H28.0006V4.5835C28.0006 3.89314 28.5603 3.3335 29.2506 3.3335ZM20.0009 27.2023L24.2213 24.1571C22.9531 24.2741 21.5463 24.3458 20.0009 24.3459C18.4556 24.3459 17.0489 24.2741 15.7806 24.1571L20.0009 27.2023ZM12.0013 21.0679C13.9275 21.4801 16.5936 21.8459 20.0009 21.8459C23.4087 21.8458 26.0745 21.4802 28.0006 21.0679V15.9312H12.0013V21.0679ZM12.0013 13.4312H28.0006V7.88916H12.0013V13.4312Z" fill="#FAFAFA"/>
</svg>
