<svg width="40" height="40" viewBox="0 0 40 40" fill="none" xmlns="http://www.w3.org/2000/svg">
<path d="M14.9987 20.4163C15.6891 20.4163 16.2487 20.976 16.2487 21.6663V23.333C16.2487 24.0234 15.6891 24.583 14.9987 24.583C14.3083 24.583 13.7487 24.0234 13.7487 23.333V21.6663C13.7487 20.976 14.3083 20.4163 14.9987 20.4163Z" fill="#FAFAFA"/>
<path d="M24.9987 20.4163C25.6891 20.4163 26.2487 20.976 26.2487 21.6663V23.333C26.2487 24.0234 25.6891 24.583 24.9987 24.583C24.3083 24.583 23.7487 24.0234 23.7487 23.333V21.6663C23.7487 20.976 24.3083 20.4163 24.9987 20.4163Z" fill="#FAFAFA"/>
<path d="M19.9987 13.7497C20.6891 13.7497 21.2487 14.3093 21.2487 14.9997V16.6663C21.2487 17.3567 20.6891 17.9163 19.9987 17.9163C19.3083 17.9163 18.7487 17.3567 18.7487 16.6663V14.9997C18.7487 14.3093 19.3083 13.7497 19.9987 13.7497Z" fill="#FAFAFA"/>
<path fill-rule="evenodd" clip-rule="evenodd" d="M20.5765 8.34766C23.4603 8.49055 26.1977 9.698 28.249 11.7493C30.4369 13.9373 31.6654 16.9055 31.6654 19.9997L31.6507 20.5775C31.5078 23.4613 30.3004 26.1987 28.249 28.25L27.8291 28.6488C25.689 30.5864 22.8994 31.6663 19.9987 31.6663L19.4209 31.6517C16.7294 31.5183 14.1659 30.4574 12.1683 28.6488L11.7484 28.25C9.69703 26.1987 8.48957 23.4613 8.34668 20.5775L8.33203 19.9997C8.33203 17.099 9.41193 14.3094 11.3496 12.1693L11.7484 11.7493C13.9363 9.56142 16.9045 8.33301 19.9987 8.33301L20.5765 8.34766ZM19.9987 10.833C17.5675 10.833 15.2367 11.7995 13.5176 13.5186C11.9058 15.1303 10.9557 17.2798 10.8434 19.5456L10.832 19.9997C10.832 22.4308 11.7985 24.7617 13.5176 26.4808C15.2367 28.1999 17.5675 29.1663 19.9987 29.1663C22.4298 29.1663 24.7607 28.1999 26.4798 26.4808C28.0916 24.869 29.0417 22.7196 29.154 20.4538L29.1654 19.9997C29.1654 17.5685 28.1989 15.2376 26.4798 13.5186C24.8681 11.9068 22.7186 10.9567 20.4528 10.8444L19.9987 10.833Z" fill="#FAFAFA"/>
<path fill-rule="evenodd" clip-rule="evenodd" d="M31.9225 3.33952C34.5644 3.47336 36.6654 5.65783 36.6654 8.33301V31.6663L36.6589 31.9235C36.5293 34.4802 34.4793 36.5303 31.9225 36.6598L31.6654 36.6663H8.33203L8.07487 36.6598C5.51813 36.5303 3.46807 34.4802 3.33854 31.9235L3.33203 31.6663V8.33301C3.33203 5.65783 5.43296 3.47337 8.07487 3.33952L8.33203 3.33301H31.6654L31.9225 3.33952ZM8.33203 5.83301C6.95132 5.83301 5.83203 6.9523 5.83203 8.33301V31.6663C5.83203 33.0471 6.95132 34.1663 8.33203 34.1663H31.6654C33.0461 34.1663 34.1654 33.0471 34.1654 31.6663V8.33301C34.1654 6.9523 33.0461 5.83301 31.6654 5.83301H8.33203Z" fill="#FAFAFA"/>
</svg>
