<svg width="40" height="40" viewBox="0 0 40 40" fill="none" xmlns="http://www.w3.org/2000/svg">
<path fill-rule="evenodd" clip-rule="evenodd" d="M20 28.7497C21.2156 28.7497 22.3811 29.2331 23.2406 30.0924C24.0999 30.952 24.5833 32.1174 24.5833 33.333C24.5833 34.5486 24.0999 35.7141 23.2406 36.5736C22.3811 37.4329 21.2156 37.9163 20 37.9163C18.7844 37.9163 17.6189 37.4329 16.7594 36.5736C15.9 35.714 15.4167 34.5485 15.4167 33.333C15.4167 32.1175 15.9 30.952 16.7594 30.0924C17.6189 29.2331 18.7844 28.7497 20 28.7497ZM20 31.2497C19.4476 31.2497 18.9179 31.4693 18.527 31.86C18.1363 32.2508 17.9167 32.7806 17.9167 33.333C17.9167 33.8854 18.1363 34.4152 18.527 34.806C18.9179 35.1967 19.4476 35.4163 20 35.4163C20.5524 35.4163 21.0821 35.1967 21.473 34.806C21.8637 34.4151 22.0833 33.8854 22.0833 33.333C22.0833 32.7807 21.8637 32.2509 21.473 31.86C21.0821 31.4693 20.5524 31.2497 20 31.2497Z" fill="#FAFAFA"/>
<path fill-rule="evenodd" clip-rule="evenodd" d="M8.33333 15.4163C8.93522 15.4163 9.53183 15.5343 10.0879 15.7646C10.644 15.995 11.1486 16.3338 11.5739 16.7591C11.9995 17.1847 12.3381 17.6893 12.5684 18.2451C12.7987 18.8012 12.9167 19.3978 12.9167 19.9997C12.9167 20.6016 12.7987 21.1982 12.5684 21.7542C12.3381 22.3101 11.9995 22.8147 11.5739 23.2402C11.1484 23.6656 10.6427 24.0027 10.0863 24.2331C9.53031 24.4633 8.93499 24.583 8.33333 24.583C7.73144 24.583 7.13491 24.4651 6.57878 24.2347C6.02258 24.0044 5.51809 23.6655 5.09277 23.2402C4.66719 22.8147 4.32859 22.3101 4.09831 21.7542C3.86791 21.1982 3.75 20.6016 3.75 19.9997C3.75 19.3978 3.86791 18.8012 4.09831 18.2451C4.32859 17.6893 4.66719 17.1847 5.09277 16.7591C5.51811 16.3338 6.02263 15.995 6.57878 15.7646C7.13484 15.5343 7.73145 15.4163 8.33333 15.4163ZM8.33333 17.9163C8.05976 17.9163 7.78856 17.9695 7.53581 18.0742C7.28333 18.1788 7.05394 18.3331 6.86035 18.5267C6.66702 18.72 6.5126 18.9493 6.40788 19.2021C6.30325 19.4547 6.25 19.726 6.25 19.9997C6.25 20.2733 6.30325 20.5447 6.40788 20.7972C6.5126 21.05 6.66702 21.2793 6.86035 21.4727C7.05387 21.6661 7.28352 21.819 7.53581 21.9235C7.78851 22.0282 8.05976 22.083 8.33333 22.083C8.60691 22.083 8.87816 22.0282 9.13086 21.9235C9.38314 21.819 9.6128 21.6661 9.80631 21.4727C9.99965 21.2793 10.1541 21.05 10.2588 20.7972C10.3634 20.5447 10.4167 20.2733 10.4167 19.9997C10.4167 19.726 10.3634 19.4547 10.2588 19.2021C10.1541 18.9493 9.99965 18.72 9.80631 18.5267C9.61273 18.3331 9.38334 18.1788 9.13086 18.0742C8.8781 17.9695 8.6069 17.9163 8.33333 17.9163Z" fill="#FAFAFA"/>
<path fill-rule="evenodd" clip-rule="evenodd" d="M20 15.4163C21.2155 15.4163 22.381 15.8996 23.2406 16.7591C24.0999 17.6186 24.5833 18.7841 24.5833 19.9997C24.5833 21.2153 24.0999 22.3807 23.2406 23.2402C22.3811 24.0995 21.2156 24.583 20 24.583C18.7844 24.583 17.6189 24.0995 16.7594 23.2402C15.9 22.3807 15.4167 21.2152 15.4167 19.9997C15.4167 18.7841 15.9 17.6187 16.7594 16.7591C17.619 15.8996 18.7845 15.4163 20 15.4163ZM20 17.9163C19.4476 17.9163 18.9178 18.136 18.527 18.5267C18.1363 18.9175 17.9167 19.4472 17.9167 19.9997C17.9167 20.5521 18.1363 21.0819 18.527 21.4727C18.9179 21.8634 19.4476 22.083 20 22.083C20.5524 22.083 21.0821 21.8634 21.473 21.4727C21.8637 21.0818 22.0833 20.552 22.0833 19.9997C22.0833 19.4473 21.8637 18.9175 21.473 18.5267C21.0822 18.136 20.5524 17.9163 20 17.9163Z" fill="#FAFAFA"/>
<path fill-rule="evenodd" clip-rule="evenodd" d="M31.6667 15.4163C32.8822 15.4163 34.0477 15.8996 34.9072 16.7591C35.7665 17.6186 36.25 18.7841 36.25 19.9997C36.25 21.2153 35.7665 22.3807 34.9072 23.2402C34.0477 24.0995 32.8823 24.583 31.6667 24.583C30.4511 24.583 29.2856 24.0995 28.4261 23.2402C27.5668 22.3807 27.0833 21.2153 27.0833 19.9997C27.0833 18.7841 27.5668 17.6186 28.4261 16.7591C29.2857 15.8996 30.4511 15.4163 31.6667 15.4163ZM31.6667 17.9163C31.1142 17.9163 30.5845 18.136 30.1937 18.5267C29.803 18.9175 29.5833 19.4473 29.5833 19.9997C29.5833 20.552 29.803 21.0818 30.1937 21.4727C30.5845 21.8634 31.1143 22.083 31.6667 22.083C32.219 22.083 32.7488 21.8634 33.1396 21.4727C33.5304 21.0818 33.75 20.552 33.75 19.9997C33.75 19.4473 33.5304 18.9175 33.1396 18.5267C32.7489 18.136 32.2191 17.9163 31.6667 17.9163Z" fill="#FAFAFA"/>
<path fill-rule="evenodd" clip-rule="evenodd" d="M8.33333 2.08301C8.93521 2.08301 9.53181 2.20098 10.0879 2.43132C10.6439 2.66165 11.1484 3.00027 11.5739 3.42578C11.9994 3.85129 12.338 4.35582 12.5684 4.91178C12.7987 5.46785 12.9167 6.06445 12.9167 6.66634C12.9167 7.26823 12.7987 7.86483 12.5684 8.4209C12.338 8.97687 11.9994 9.48139 11.5739 9.9069C11.1484 10.3324 10.6439 10.671 10.0879 10.9014C9.53182 11.1317 8.93522 11.2497 8.33333 11.2497C7.73145 11.2497 7.13484 11.1317 6.57878 10.9014C6.02281 10.671 5.51829 10.3324 5.09277 9.9069C4.66726 9.48139 4.32864 8.97687 4.09831 8.4209C3.86797 7.86482 3.75 7.26822 3.75 6.66634C3.75 6.06446 3.86797 5.46786 4.09831 4.91178C4.32864 4.35581 4.66726 3.85129 5.09277 3.42578C5.51828 3.00027 6.02281 2.66165 6.57878 2.43132C7.13485 2.20098 7.73145 2.08301 8.33333 2.08301ZM8.33333 4.58301C8.05975 4.58301 7.78855 4.6362 7.53581 4.74089C7.28307 4.84557 7.05381 4.9999 6.86035 5.19336C6.66689 5.38682 6.51256 5.61608 6.40788 5.86881C6.30319 6.12156 6.25 6.39276 6.25 6.66634C6.25 6.93992 6.30319 7.21112 6.40788 7.46387C6.51256 7.71661 6.66689 7.94586 6.86035 8.13932C7.05381 8.33278 7.28307 8.48711 7.53581 8.5918C7.78856 8.69648 8.05976 8.74967 8.33333 8.74967C8.6069 8.74967 8.87811 8.69648 9.13086 8.5918C9.3836 8.48711 9.61285 8.33278 9.80631 8.13932C9.99978 7.94586 10.1541 7.71661 10.2588 7.46387C10.3635 7.21111 10.4167 6.93991 10.4167 6.66634C10.4167 6.39277 10.3635 6.12157 10.2588 5.86881C10.1541 5.61607 9.99978 5.38682 9.80631 5.19336C9.61285 4.9999 9.3836 4.84557 9.13086 4.74089C8.87811 4.6362 8.60691 4.58301 8.33333 4.58301Z" fill="#FAFAFA"/>
<path fill-rule="evenodd" clip-rule="evenodd" d="M20 2.08301C21.2155 2.08301 22.381 2.5663 23.2406 3.42578C24.0999 4.28526 24.5833 5.4507 24.5833 6.66634C24.5833 7.88198 24.0999 9.04743 23.2406 9.9069C22.381 10.7664 21.2155 11.2497 20 11.2497C18.7845 11.2497 17.619 10.7664 16.7594 9.9069C15.8999 9.04736 15.4167 7.88192 15.4167 6.66634C15.4167 5.45076 15.8999 4.28532 16.7594 3.42578C17.619 2.5663 18.7845 2.08301 20 2.08301ZM20 4.58301C19.4476 4.58301 18.9178 4.80263 18.527 5.19336C18.1363 5.58407 17.9167 6.1138 17.9167 6.66634C17.9167 7.21888 18.1363 7.74861 18.527 8.13932C18.9178 8.53005 19.4476 8.74967 20 8.74967C20.5524 8.74967 21.0822 8.53005 21.473 8.13932C21.8637 7.74855 22.0833 7.21879 22.0833 6.66634C22.0833 6.11389 21.8637 5.58413 21.473 5.19336C21.0822 4.80263 20.5524 4.58301 20 4.58301Z" fill="#FAFAFA"/>
<path fill-rule="evenodd" clip-rule="evenodd" d="M31.6667 2.08301C32.8822 2.08301 34.0477 2.5663 34.9072 3.42578C35.7666 4.28526 36.25 5.4507 36.25 6.66634C36.25 7.88198 35.7666 9.04743 34.9072 9.9069C34.0476 10.7664 32.8822 11.2497 31.6667 11.2497C30.4511 11.2497 29.2857 10.7664 28.4261 9.9069C27.5668 9.04743 27.0833 7.88198 27.0833 6.66634C27.0833 5.4507 27.5668 4.28526 28.4261 3.42578C29.2857 2.5663 30.4511 2.08301 31.6667 2.08301ZM31.6667 4.58301C31.1142 4.58301 30.5845 4.80263 30.1937 5.19336C29.803 5.58413 29.5833 6.11389 29.5833 6.66634C29.5833 7.21879 29.803 7.74855 30.1937 8.13932C30.5845 8.53005 31.1142 8.74967 31.6667 8.74967C32.2191 8.74967 32.7489 8.53005 33.1396 8.13932C33.5303 7.74855 33.75 7.21879 33.75 6.66634C33.75 6.11389 33.5303 5.58413 33.1396 5.19336C32.7489 4.80263 32.2191 4.58301 31.6667 4.58301Z" fill="#FAFAFA"/>
</svg>
