<svg width="40" height="40" viewBox="0 0 40 40" fill="none" xmlns="http://www.w3.org/2000/svg">
<path d="M11.8212 12.4496C12.3094 11.9615 13.1006 11.9615 13.5888 12.4496L20.2554 19.1163C20.7436 19.6044 20.7436 20.3957 20.2554 20.8839L13.5888 27.5505C13.1006 28.0387 12.3094 28.0387 11.8212 27.5505C11.333 27.0624 11.333 26.2711 11.8212 25.7829L17.6041 20.0001L11.8212 14.2172C11.333 13.729 11.333 12.9378 11.8212 12.4496Z" fill="#FAFAFA"/>
<path d="M19.7444 12.4496C20.2325 11.9615 21.0238 11.9615 21.5119 12.4496L28.1786 19.1163C28.6668 19.6044 28.6668 20.3957 28.1786 20.8839L21.5119 27.5505C21.0238 28.0387 20.2325 28.0387 19.7444 27.5505C19.2562 27.0624 19.2562 26.2711 19.7444 25.7829L25.5272 20.0001L19.7444 14.2172C19.2562 13.729 19.2562 12.9378 19.7444 12.4496Z" fill="#FAFAFA"/>
</svg>
