<svg width="40" height="40" viewBox="0 0 40 40" fill="none" xmlns="http://www.w3.org/2000/svg">
<path fill-rule="evenodd" clip-rule="evenodd" d="M11.0532 7.5C9.95152 7.5 9.04029 8.35767 8.97365 9.4573L7.71102 30.2906C7.63842 31.4886 8.59038 32.5 9.79054 32.5H30.2076C31.4078 32.5 32.3597 31.4886 32.2871 30.2906L31.0245 9.4573C30.9578 8.35767 30.0466 7.5 28.945 7.5H11.0532ZM6.47822 9.30606C6.62484 6.88688 8.62954 5 11.0532 5H28.945C31.3686 5 33.3733 6.88687 33.5199 9.30606L34.7825 30.1394C34.9423 32.7749 32.8479 35 30.2076 35H9.79054C7.15019 35 5.05587 32.7749 5.2156 30.1394L6.47822 9.30606ZM14.9991 12.0833C15.6894 12.0833 16.2491 12.643 16.2491 13.3333C16.2491 15.4044 17.928 17.0833 19.9991 17.0833C22.0701 17.0833 23.7491 15.4044 23.7491 13.3333C23.7491 12.643 24.3087 12.0833 24.9991 12.0833C25.6894 12.0833 26.2491 12.643 26.2491 13.3333C26.2491 16.7851 23.4508 19.5833 19.9991 19.5833C16.5473 19.5833 13.7491 16.7851 13.7491 13.3333C13.7491 12.643 14.3087 12.0833 14.9991 12.0833Z" fill="#FAFAFA"/>
</svg>
