<svg width="40" height="40" viewBox="0 0 40 40" fill="none" xmlns="http://www.w3.org/2000/svg">
<path d="M12.1426 16.3151C12.3826 15.6681 13.1018 15.3381 13.749 15.5778C14.6015 15.8938 15.851 17.0181 15.7347 18.9502L15.7331 18.9648C15.6549 20.0457 15.0329 20.7987 14.6963 21.2288C14.305 21.7289 14.1945 21.9148 14.1722 22.1208C14.1507 22.4813 14.2253 22.7297 14.3366 22.9346C14.4621 23.1654 14.657 23.3848 14.9421 23.6556C15.4421 24.1311 15.4611 24.9228 14.986 25.4232C14.5107 25.9231 13.7205 25.9434 13.2201 25.4688C12.5136 24.7977 11.5629 23.7368 11.6771 21.9515L11.6787 21.9238C11.7701 20.8564 12.3983 20.1091 12.7269 19.6891C13.1207 19.1858 13.224 18.9996 13.2396 18.7842C13.2569 18.444 13.1612 18.237 13.0719 18.112C12.9608 17.9566 12.8474 17.9096 12.8799 17.9215C12.233 17.6815 11.903 16.9622 12.1426 16.3151Z" fill="#FAFAFA"/>
<path d="M18.2884 16.3151C18.5284 15.6681 19.2477 15.3381 19.8949 15.5778C20.7474 15.894 22.0046 17.023 21.8643 18.9648L21.8626 18.9632C21.7926 20.0459 21.1677 20.801 20.8372 21.2256C20.4378 21.7388 20.3447 21.9113 20.3327 22.1077V22.1273C20.3049 22.4897 20.3779 22.7377 20.4873 22.9427C20.6105 23.1733 20.8012 23.3924 21.083 23.667C21.5769 24.1487 21.5871 24.9402 21.1058 25.4346C20.6241 25.9287 19.8326 25.9387 19.3382 25.4574C18.6595 24.7961 17.7098 23.7349 17.8392 21.9548C17.9054 20.8702 18.5375 20.111 18.8646 19.6908C19.2591 19.1838 19.3567 19.0053 19.3691 18.7988L19.3708 18.7842C19.3957 18.4375 19.3 18.23 19.2129 18.1071C19.1042 17.9542 18.9926 17.9087 19.0273 17.9215C18.38 17.6818 18.0486 16.9625 18.2884 16.3151Z" fill="#FAFAFA"/>
<path d="M24.4342 16.3151C24.6742 15.6681 25.3935 15.3381 26.0407 15.5778C26.8932 15.8938 28.1427 17.0181 28.0264 18.9502L28.0247 18.9648C27.9466 20.0457 27.3245 20.7987 26.988 21.2288C26.5967 21.7289 26.4862 21.9148 26.4639 22.1208C26.4424 22.481 26.5168 22.7307 26.6283 22.9378C26.7541 23.1714 26.9473 23.3927 27.2288 23.667C27.7229 24.1487 27.7331 24.9402 27.2516 25.4346C26.7699 25.9289 25.9785 25.9389 25.484 25.4574C24.8024 24.7931 23.8547 23.7336 23.9688 21.9515L23.9704 21.9238C24.0618 20.8564 24.6899 20.1091 25.0186 19.6891C25.4123 19.1858 25.5157 18.9996 25.5312 18.7842C25.5486 18.444 25.4528 18.237 25.3636 18.112C25.2525 17.9566 25.1391 17.9096 25.1715 17.9215C24.5247 17.6815 24.1946 16.9622 24.4342 16.3151Z" fill="#FAFAFA"/>
<path fill-rule="evenodd" clip-rule="evenodd" d="M25.0007 3.75C25.691 3.75 26.2507 4.30964 26.2507 5C26.2507 5.69036 25.691 6.25 25.0007 6.25H21.2507V10H26.6673L27.1816 10.013C32.4655 10.2807 36.6673 14.6496 36.6673 20V21.6667C36.6673 26.0513 33.8444 29.7737 29.9176 31.123V34.2497C29.9176 34.94 29.358 35.4997 28.6676 35.4997C27.9773 35.4997 27.4176 34.94 27.4176 34.2497V31.6341C27.3391 31.6399 27.2607 31.6496 27.1816 31.6536L26.6673 31.6667H13.334C13.0643 31.6667 12.7975 31.6518 12.5332 31.6309V34.2497C12.5332 34.94 11.9736 35.4997 11.2832 35.4997C10.5928 35.4997 10.0332 34.94 10.0332 34.2497V31.1068C6.28673 29.7969 3.55682 26.3223 3.34701 22.181L3.33398 21.6667V20C3.33398 14.4772 7.81114 10 13.334 10H18.7507V6.25H15.0007C14.3103 6.25 13.7507 5.69036 13.7507 5C13.7507 4.30964 14.3103 3.75 15.0007 3.75H25.0007ZM13.334 12.5C9.19185 12.5 5.83398 15.8579 5.83398 20V21.6667C5.83398 25.8088 9.19185 29.1667 13.334 29.1667H26.6673C30.8095 29.1667 34.1673 25.8088 34.1673 21.6667V20C34.1673 15.8579 30.8095 12.5 26.6673 12.5H13.334Z" fill="#FAFAFA"/>
</svg>
