<svg width="40" height="40" viewBox="0 0 40 40" fill="none" xmlns="http://www.w3.org/2000/svg">
<path d="M23.9826 15.1305L23.9858 15.1272L23.9891 15.1256L23.9826 15.1305Z" fill="#FAFAFA"/>
<path fill-rule="evenodd" clip-rule="evenodd" d="M33.4911 4.74148C33.9791 4.25344 34.7705 4.25354 35.2586 4.74148C35.7465 5.22965 35.7466 6.021 35.2586 6.50906L27.0343 14.7317C27.1221 14.878 27.2176 15.0572 27.2883 15.2688C27.3958 15.5916 27.4625 16.0093 27.3696 16.4749C27.2746 16.95 27.0306 17.3884 26.6551 17.7639L20.4881 23.9309C20.4815 23.9378 20.4754 23.9453 20.4686 23.9521C20.4637 23.957 20.4573 23.9603 20.4523 23.9651L18.701 25.718L17.8172 24.8343L18.6994 25.7197L18.6961 25.7213L18.6929 25.7262C18.6902 25.7288 18.6863 25.7313 18.6831 25.7343C18.6765 25.7407 18.6689 25.749 18.6603 25.7571C18.6429 25.7734 18.6208 25.7936 18.5952 25.8157C18.5444 25.8597 18.4757 25.9152 18.3918 25.9752C18.2276 26.0925 17.977 26.2452 17.6593 26.3512C17.3365 26.4588 16.9191 26.5256 16.4533 26.4326C16.1724 26.3764 15.9055 26.267 15.6558 26.1103L6.50863 35.2591C6.02062 35.7469 5.22919 35.7467 4.74105 35.2591C4.25315 34.7709 4.25312 33.9796 4.74105 33.4915L13.9012 24.3297C13.8135 24.1835 13.7177 24.0039 13.6473 23.7926C13.5399 23.4698 13.4728 23.0519 13.5659 22.5865C13.661 22.1117 13.9052 21.6745 14.2804 21.2991L22.2394 13.3401L22.2443 13.3369C22.2469 13.3342 22.2493 13.3301 22.2524 13.3271C22.2589 13.3209 22.2669 13.3137 22.2752 13.3059C22.2925 13.2898 22.315 13.2693 22.3403 13.2473C22.3914 13.2031 22.461 13.1465 22.5454 13.0862C22.7095 12.969 22.959 12.8161 23.2762 12.7102C23.5991 12.6026 24.018 12.5357 24.4839 12.6289C24.7643 12.685 25.0308 12.7948 25.2798 12.9511L33.4911 4.74148ZM16.0513 23.0618L16.0675 23.0862L16.9269 23.9456C16.93 23.9436 16.9352 23.9429 16.9383 23.9407C16.9436 23.9369 16.9481 23.9335 16.9513 23.9309L17.814 23.0651L16.9302 22.1813L16.0513 23.0618ZM16.0675 23.0862C16.0675 23.0862 16.0638 23.0809 16.061 23.0781L16.0545 23.0732L16.0675 23.0862ZM18.6978 20.4137L19.5815 21.2975L22.2329 18.6445L21.3491 17.7607L18.6978 20.4137ZM23.9989 15.1207L23.9924 15.124L23.9972 15.1175L23.9858 15.1272L23.9826 15.1305L23.1167 15.9931L24.0005 16.8769L24.8827 15.998L24.8778 15.9899C24.8701 15.9791 24.8631 15.9703 24.8631 15.9703L24.007 15.1142C24.007 15.1142 24.0016 15.1187 23.9989 15.1207ZM24.881 15.9899L24.8843 15.9915L24.8761 15.9833L24.881 15.9899Z" fill="#FAFAFA"/>
<path d="M29.3032 20.4381L29.3049 20.4348L29.3081 20.4332L29.3032 20.4381Z" fill="#FAFAFA"/>
<path fill-rule="evenodd" clip-rule="evenodd" d="M33.4911 15.3665C33.9791 14.8785 34.7705 14.8787 35.2586 15.3665C35.7464 15.8547 35.7466 16.646 35.2586 17.1341L32.3517 20.0393C32.4396 20.1857 32.5367 20.3647 32.6073 20.5764C32.7148 20.8993 32.7817 21.3169 32.6886 21.7825C32.5935 22.2576 32.3496 22.6961 31.9741 23.0716L24.02 31.0257L23.1362 30.1419L24.0184 31.0273L24.0151 31.0289L24.0119 31.0338C24.0092 31.0364 24.0053 31.0389 24.0021 31.0419C23.9955 31.0484 23.9879 31.0567 23.9793 31.0647C23.9619 31.081 23.9397 31.1012 23.9142 31.1233C23.8634 31.1674 23.7946 31.2229 23.7108 31.2828C23.5466 31.4001 23.2959 31.5529 22.9784 31.6588C22.6555 31.7664 22.238 31.8332 21.7723 31.7402C21.4911 31.6839 21.2231 31.5748 20.9731 31.4179L17.1336 35.2591C16.6456 35.7471 15.8542 35.7469 15.3661 35.2591C14.878 34.7709 14.878 33.9796 15.3661 33.4915L19.2202 29.6357C19.1327 29.4896 19.0367 29.3112 18.9663 29.1002C18.8588 28.7774 18.792 28.3596 18.8849 27.8942C18.9799 27.4192 19.2242 26.9822 19.5995 26.6067L27.5584 18.6477L27.5633 18.6445C27.566 18.6418 27.5684 18.6378 27.5715 18.6347C27.5779 18.6285 27.5859 18.6213 27.5942 18.6136C27.6115 18.5974 27.634 18.5769 27.6593 18.555C27.7104 18.5108 27.78 18.4541 27.8644 18.3938C28.0285 18.2767 28.2779 18.1237 28.5952 18.0178C28.9182 17.9102 29.3369 17.8433 29.8029 17.9365C30.0832 17.9926 30.3498 18.1009 30.5988 18.2571L33.4911 15.3665ZM21.3703 28.3694L21.3866 28.3938L21.7902 28.7975C21.7965 28.8035 21.8036 28.8092 21.8097 28.8154C21.8154 28.8211 21.8204 28.8275 21.826 28.8333L22.2459 29.2532C22.2489 29.2512 22.2541 29.2504 22.2573 29.2483C22.2625 29.2446 22.2671 29.2411 22.2703 29.2386L23.1346 28.371L22.2508 27.4873L21.3703 28.3694ZM21.3866 28.3938C21.3866 28.3938 21.3829 28.3887 21.38 28.3857L21.3735 28.3808L21.3866 28.3938ZM24.0184 25.7197L24.9022 26.6035L25.786 25.7197L24.9022 24.8359L24.0184 25.7197ZM29.3179 20.4283L29.3114 20.4316L29.3162 20.4251L29.3049 20.4348L26.6698 23.0683L27.5536 23.9521L30.2017 21.3056L30.1968 21.2975C30.1893 21.287 30.1821 21.2779 30.1821 21.2779L29.326 20.4218C29.326 20.4218 29.3206 20.4264 29.3179 20.4283ZM30.2 21.2975L30.2033 21.2991L30.1952 21.291L30.2 21.2975Z" fill="#FAFAFA"/>
<path d="M18.6782 9.8131L18.6799 9.80984L18.6831 9.80821L18.6782 9.8131Z" fill="#FAFAFA"/>
<path fill-rule="evenodd" clip-rule="evenodd" d="M22.8661 4.74148C23.3541 4.25348 24.1455 4.25367 24.6336 4.74148C25.1214 5.22965 25.1216 6.02102 24.6336 6.50906L21.7267 9.41433C21.8146 9.56071 21.9117 9.73965 21.9823 9.95144C22.0898 10.2743 22.1567 10.6919 22.0636 11.1575C21.9685 11.6326 21.7246 12.0711 21.3491 12.4466L13.395 20.4007L12.5112 19.5169L13.3934 20.4023L13.3901 20.4039L13.3869 20.4088C13.3842 20.4114 13.3803 20.4139 13.3771 20.4169C13.3705 20.4234 13.3629 20.4317 13.3543 20.4397C13.3369 20.456 13.3147 20.4762 13.2892 20.4983C13.2384 20.5424 13.1696 20.5979 13.0858 20.6578C12.9216 20.7751 12.6709 20.9279 12.3534 21.0338C12.0305 21.1414 11.613 21.2082 11.1473 21.1152C10.8661 21.0589 10.5981 20.9498 10.3481 20.7929L6.50863 24.6341C6.02058 25.1221 5.22921 25.1219 4.74105 24.6341C4.25299 24.1459 4.25298 23.3546 4.74105 22.8665L8.59522 19.0107C8.50766 18.8646 8.41169 18.6862 8.34131 18.4752C8.23382 18.1524 8.16695 17.7346 8.25993 17.2692C8.35493 16.7942 8.59924 16.3572 8.97445 15.9817L16.9334 8.02273L16.9383 8.01948C16.941 8.01685 16.9434 8.01281 16.9465 8.00971C16.9529 8.00352 16.9609 7.99632 16.9692 7.98855C16.9865 7.9724 17.009 7.95194 17.0343 7.92996C17.0853 7.88576 17.155 7.82913 17.2394 7.76883C17.4035 7.65166 17.6529 7.49873 17.9702 7.39285C18.2932 7.28518 18.7119 7.21826 19.1779 7.31147C19.4582 7.36757 19.7248 7.47587 19.9738 7.63211L22.8661 4.74148ZM10.7453 17.7444L10.7616 17.7688L11.1652 18.1725C11.1715 18.1785 11.1786 18.1842 11.1847 18.1904C11.1883 18.1939 11.191 18.1982 11.1945 18.2018L11.6209 18.6282C11.6239 18.6262 11.6291 18.6254 11.6323 18.6233C11.6375 18.6196 11.6421 18.6161 11.6453 18.6136L12.5031 17.7542L11.6193 16.8704L10.7453 17.7444ZM10.7616 17.7688C10.7616 17.7688 10.7579 17.7637 10.755 17.7607L10.7485 17.7558L10.7616 17.7688ZM18.6929 9.80333L18.6864 9.80659L18.6912 9.80008L18.6799 9.80984L15.1545 13.3336L16.0383 14.2174L19.5767 10.6806L19.5718 10.6725C19.5643 10.662 19.5571 10.6529 19.5571 10.6529L18.701 9.79682C18.701 9.79682 18.6956 9.80136 18.6929 9.80333ZM19.575 10.6725L19.5783 10.6741L19.5702 10.666L19.575 10.6725Z" fill="#FAFAFA"/>
</svg>
