<svg width="40" height="40" viewBox="0 0 40 40" fill="none" xmlns="http://www.w3.org/2000/svg">
<path fill-rule="evenodd" clip-rule="evenodd" d="M10.4167 7.36127C10.4167 5.13679 12.22 3.3335 14.4444 3.3335C16.7383 3.3335 18.7671 4.46837 20 6.20728C21.2329 4.46837 23.2617 3.3335 25.5556 3.3335C27.78 3.3335 29.5833 5.13679 29.5833 7.36127C29.5833 8.99478 29.0078 10.4939 28.0485 11.6668H30.4167C32.948 11.6668 35 13.7189 35 16.2502V16.6668C35 18.0913 34.3497 19.3629 33.3333 20.2023V30.4168C33.3333 32.9481 31.2813 35.0002 28.75 35.0002H11.25C8.71869 35.0002 6.66667 32.9481 6.66667 30.4168V20.2023C5.65029 19.3629 5 18.0913 5 16.6668V16.2502C5 13.7189 7.05203 11.6668 9.58333 11.6668H11.9515C10.9922 10.4939 10.4167 8.99478 10.4167 7.36127ZM17.2222 11.6668H18.75V10.1391C18.75 7.76116 16.8223 5.8335 14.4444 5.8335C13.6007 5.8335 12.9167 6.51751 12.9167 7.36127C12.9167 9.73917 14.8443 11.6668 17.2222 11.6668ZM21.25 10.1391V11.6668H22.7778C25.1557 11.6668 27.0833 9.73917 27.0833 7.36127C27.0833 6.51751 26.3993 5.8335 25.5556 5.8335C23.1777 5.8335 21.25 7.76116 21.25 10.1391ZM18.75 14.1668H9.58333C8.43274 14.1668 7.5 15.0996 7.5 16.2502V16.6668C7.5 17.4364 7.9166 18.1101 8.54257 18.4722C8.84773 18.6487 9.20179 18.7502 9.58333 18.7502H18.75V14.1668ZM21.25 18.7502V14.1668H30.4167C31.5673 14.1668 32.5 15.0996 32.5 16.2502V16.6668C32.5 17.4364 32.0834 18.1101 31.4574 18.4722C31.1523 18.6487 30.7982 18.7502 30.4167 18.7502H21.25ZM18.75 21.2502H9.58333C9.44297 21.2502 9.30399 21.2438 9.16667 21.2314V30.4168C9.16667 31.5674 10.0994 32.5002 11.25 32.5002H18.75V21.2502ZM21.25 32.5002V21.2502H30.4167C30.557 21.2502 30.696 21.2438 30.8333 21.2314V30.4168C30.8333 31.5674 29.9006 32.5002 28.75 32.5002H21.25Z" fill="#FAFAFA"/>
</svg>
