<svg width="40" height="40" viewBox="0 0 40 40" fill="none" xmlns="http://www.w3.org/2000/svg">
<path d="M12.2624 16.3272C12.9056 16.0774 13.63 16.397 13.8802 17.0401C14.13 17.6834 13.8106 18.4079 13.1673 18.6579C12.9623 18.7376 12.7027 18.8463 12.5114 18.9314C11.9679 19.1729 11.4447 19.463 11.1214 19.724C11.0949 19.7454 11.0666 19.7651 11.0384 19.7842C10.4994 20.1508 9.97173 20.644 9.4694 21.2621C7.47969 23.7107 6.06582 27.9129 5.85938 32.8506H21.1198C21.0703 31.669 20.9527 30.5241 20.7715 29.4327C20.6736 28.8435 20.5574 28.269 20.4248 27.7139C20.3574 27.4321 20.2841 27.1541 20.2083 26.8822L20.2067 26.8708C20.0158 26.1637 19.6713 25.1858 19.1764 24.1413C19.1009 23.9818 19.0599 23.8721 19.0348 23.8093C19.0189 23.7693 19.0064 23.7373 18.9681 23.6644C18.6472 23.0535 18.8815 22.2979 19.4922 21.9766C20.103 21.6555 20.8585 21.8903 21.18 22.5007C21.2675 22.6671 21.3166 22.7809 21.3574 22.8832C21.389 22.9625 21.4015 22.9951 21.4372 23.0704C21.9919 24.2409 22.3859 25.3555 22.6172 26.21C22.7014 26.5122 22.7804 26.82 22.8548 27.1312C23.0015 27.7448 23.1301 28.377 23.2373 29.0225C23.5049 30.6339 23.6474 32.3403 23.6475 34.1006C23.6474 34.7907 23.0875 35.3503 22.3975 35.3506H4.58008C3.88984 35.3505 3.33013 34.7909 3.33008 34.1006C3.33015 28.2703 4.89441 22.9294 7.5293 19.6866C8.14958 18.9233 8.83948 18.2622 9.59635 17.7416C10.1603 17.2971 10.8874 16.9166 11.4958 16.6462C11.7198 16.5467 12.0168 16.4227 12.2624 16.3272Z" fill="#FAFAFA"/>
<path fill-rule="evenodd" clip-rule="evenodd" d="M13.6198 22.1508C13.7563 22.1618 13.8753 22.1907 13.9323 22.2061C14.0711 22.2436 14.2238 22.2995 14.3652 22.3575C14.6092 22.4575 14.9606 22.6295 15.262 22.8539L15.2637 22.8506C16.134 23.4428 16.7497 24.4124 17.1452 25.4581C17.5481 26.5241 17.7669 27.7828 17.7669 29.1023C17.7665 29.7921 17.2068 30.3521 16.5169 30.3523H10.4606C9.77053 30.3523 9.21105 29.7923 9.21061 29.1023C9.21068 27.7827 9.42937 26.5241 9.83236 25.4581C10.2279 24.4122 10.8433 23.4427 11.7139 22.8506V22.8539C12.0157 22.629 12.368 22.4577 12.6123 22.3575C12.7538 22.2995 12.9064 22.2436 13.0452 22.2061C13.1024 22.1907 13.2212 22.1617 13.3577 22.1508C13.3731 22.1496 13.402 22.1499 13.4408 22.1491H13.5368C13.5755 22.1499 13.6044 22.1495 13.6198 22.1508ZM13.488 24.7029C13.3445 24.7669 13.2377 24.8297 13.2031 24.8575C13.1766 24.8788 13.1482 24.8986 13.1201 24.9177C12.8261 25.1177 12.4628 25.5709 12.1712 26.3419C12.0049 26.7818 11.8773 27.2928 11.7985 27.8523H15.1807C15.1019 27.2929 14.9726 26.7818 14.8063 26.3419C14.5149 25.5715 14.1513 25.1179 13.8574 24.9177C13.8297 24.8988 13.8021 24.8785 13.776 24.8575C13.7417 24.8297 13.6323 24.7672 13.488 24.7029ZM14.694 23.7182C14.6795 23.7742 14.6638 23.8298 14.6419 23.8825C14.6649 23.8275 14.6824 23.7698 14.6973 23.7116L14.694 23.7182ZM12.3275 23.8598C12.3095 23.814 12.2944 23.7663 12.2819 23.7182L12.2786 23.7133C12.2915 23.7631 12.3087 23.8122 12.3275 23.8598Z" fill="#FAFAFA"/>
<path d="M21.8343 16.3126C23.486 16.2847 25.1927 16.6872 27.0817 17.5267C28.7304 18.2595 30.0725 18.5463 31.2712 18.5261C31.512 18.522 31.7509 18.5014 31.9889 18.4724C31.7314 18.1368 31.6465 17.6809 31.8115 17.2582C32.0629 16.6157 32.7884 16.2978 33.431 16.5486L35.8756 17.5056C36.3354 17.6855 36.6456 18.1192 36.6683 18.6124C36.6908 19.1054 36.421 19.5663 35.9798 19.7875C34.4819 20.5384 32.97 20.998 31.3135 21.0261C29.6617 21.054 27.9552 20.6514 26.0661 19.8119C24.4172 19.0791 23.075 18.7924 21.8766 18.8126C20.6831 18.8328 19.5393 19.1591 18.2861 19.7875C17.6692 20.096 16.9173 19.846 16.6081 19.2292C16.2993 18.6124 16.5499 17.8623 17.1663 17.5528C18.6652 16.8012 20.1776 16.3407 21.8343 16.3126Z" fill="#FAFAFA"/>
<path d="M21.8343 10.4825C23.486 10.4546 25.1926 10.8571 27.0817 11.6967C28.7304 12.4293 30.0725 12.7162 31.2712 12.696C31.512 12.6919 31.7509 12.6713 31.9889 12.6423C31.7315 12.3067 31.6466 11.8508 31.8115 11.4281C32.0629 10.7854 32.7882 10.469 33.431 10.7201L35.8756 11.6755C36.3353 11.8554 36.6456 12.2892 36.6683 12.7823C36.6905 13.275 36.4208 13.7347 35.9798 13.9558C34.4818 14.7068 32.9702 15.1679 31.3135 15.196C29.6617 15.2239 27.9552 14.8213 26.0661 13.9818C24.4172 13.249 23.0751 12.9622 21.8766 12.9825C20.6831 13.0028 19.5394 13.3293 18.2861 13.9574C17.6692 14.2658 16.9172 14.0158 16.6081 13.3991C16.2991 12.7822 16.5498 12.0306 17.1663 11.7211C18.665 10.9701 20.1778 10.5107 21.8343 10.4825Z" fill="#FAFAFA"/>
<path d="M21.8343 4.65077C23.4859 4.62287 25.1927 5.0255 27.0817 5.86496C28.7305 6.59768 30.0725 6.88446 31.2712 6.86431C31.5121 6.86024 31.7509 6.83958 31.9889 6.8106C31.7317 6.4749 31.6463 6.01904 31.8115 5.59641C32.0629 4.95388 32.7883 4.63756 33.431 4.8884L35.8756 5.8438C36.3349 6.02353 36.6451 6.45642 36.6683 6.94895C36.6911 7.44185 36.4223 7.90253 35.9814 8.12408C34.4831 8.87578 32.9705 9.33629 31.3135 9.36431C29.6617 9.39211 27.9551 8.98959 26.0661 8.15012C24.4173 7.41742 23.075 7.13054 21.8766 7.15077C20.683 7.17112 19.5394 7.49763 18.2861 8.12571C17.6691 8.43441 16.9172 8.18437 16.6081 7.56744C16.2994 6.95051 16.5497 6.19865 17.1663 5.88938C18.665 5.13839 20.1778 4.67898 21.8343 4.65077Z" fill="#FAFAFA"/>
</svg>
