<svg width="40" height="40" viewBox="0 0 40 40" fill="none" xmlns="http://www.w3.org/2000/svg">
<path fill-rule="evenodd" clip-rule="evenodd" d="M20.0003 5.8335C27.8244 5.8335 34.167 12.1761 34.167 20.0002C34.167 22.1404 33.6932 24.1665 32.8461 25.9823L33.9788 26.5108L32.8461 25.9823C32.5676 26.5792 32.4685 27.279 32.6365 27.9705L33.9851 33.5202C34.0581 33.8205 33.7903 34.0929 33.4889 34.0251L27.7037 32.7246C27.0423 32.5759 26.3772 32.6699 25.8046 32.9274L26.3173 34.0674L25.8046 32.9274C24.0348 33.7234 22.071 34.1668 20.0003 34.1668C12.1763 34.1668 5.83366 27.8242 5.83366 20.0002C5.83366 12.1761 12.1763 5.8335 20.0003 5.8335ZM36.667 20.0002C36.667 10.7954 29.2051 3.3335 20.0003 3.3335C10.7956 3.3335 3.33366 10.7954 3.33366 20.0002C3.33366 29.2049 10.7956 36.6668 20.0003 36.6668C22.4314 36.6668 24.7442 36.1455 26.83 35.2074C26.9557 35.1509 27.0698 35.1444 27.1554 35.1637L32.9405 36.4643C35.0508 36.9387 36.9252 35.0317 36.4144 32.9299L35.0658 27.3802L33.8512 27.6753L35.0658 27.3802C35.0441 27.2908 35.0504 27.1706 35.1116 27.0393L33.9862 26.5142L35.1116 27.0393C36.11 24.8993 36.667 22.5131 36.667 20.0002Z" fill="#FAFAFA"/>
</svg>
