<svg width="40" height="40" viewBox="0 0 40 40" fill="none" xmlns="http://www.w3.org/2000/svg">
<path d="M29.1904 30.416C29.5229 30.416 29.8429 30.5482 30.0775 30.7839C31.5555 32.2682 32.9438 32.291 34.791 32.291C35.4814 32.291 36.041 32.8507 36.041 33.541C36.041 34.2314 35.4814 34.791 34.791 34.791C33.1509 34.791 31.1654 34.8064 29.1921 33.3213C27.2904 34.7698 25.5141 34.791 24.9603 34.791C24.4071 34.791 22.6302 34.7708 20.7285 33.3229C18.8268 34.7708 17.0499 34.791 16.4967 34.791C15.9427 34.791 14.1653 34.7706 12.2633 33.3213C10.2904 34.8056 8.3058 34.791 6.66602 34.791C5.97566 34.791 5.41602 34.2314 5.41602 33.541C5.41602 32.8507 5.97566 32.291 6.66602 32.291C8.51323 32.291 9.90162 32.2682 11.3796 30.7839L11.5716 30.6276C11.7758 30.4911 12.0174 30.416 12.2666 30.416C12.5989 30.4161 12.9176 30.5484 13.152 30.7839C14.6759 32.3145 16.1386 32.291 16.4967 32.291C16.8539 32.291 18.3184 32.3153 19.8431 30.7839L20.0335 30.6276C20.2377 30.4909 20.4791 30.416 20.7285 30.416C21.0608 30.416 21.3794 30.5484 21.6139 30.7839C23.1387 32.3153 24.603 32.291 24.9603 32.291C25.3183 32.291 26.781 32.3146 28.305 30.7839L28.4954 30.6276C28.6996 30.4909 28.9411 30.4161 29.1904 30.416Z" fill="#FAFAFA"/>
<path d="M29.1904 23.7493C29.5229 23.7493 29.8429 23.8816 30.0775 24.1172C31.5555 25.6015 32.9438 25.6243 34.791 25.6243C35.4814 25.6243 36.041 26.184 36.041 26.8743C36.041 27.5647 35.4814 28.1243 34.791 28.1243C33.1509 28.1243 31.1654 28.1397 29.1921 26.6546C27.2904 28.1032 25.5141 28.1243 24.9603 28.1243C24.4071 28.1243 22.6302 28.1041 20.7285 26.6562C18.8268 28.1041 17.0499 28.1243 16.4967 28.1243C15.9427 28.1243 14.1653 28.1039 12.2633 26.6546C10.2904 28.139 8.3058 28.1243 6.66602 28.1243C5.97566 28.1243 5.41602 27.5647 5.41602 26.8743C5.41602 26.184 5.97566 25.6243 6.66602 25.6243C8.51323 25.6243 9.90162 25.6015 11.3796 24.1172L11.5716 23.9609C11.7758 23.8244 12.0174 23.7493 12.2666 23.7493C12.5989 23.7495 12.9176 23.8817 13.152 24.1172C14.6759 25.6478 16.1386 25.6244 16.4967 25.6243C16.8539 25.6243 18.3184 25.6486 19.8431 24.1172L20.0335 23.9609C20.2377 23.8243 20.4791 23.7493 20.7285 23.7493C21.0608 23.7493 21.3794 23.8818 21.6139 24.1172C23.1387 25.6486 24.603 25.6243 24.9603 25.6243C25.3183 25.6244 26.781 25.6479 28.305 24.1172L28.4954 23.9609C28.6996 23.8242 28.9411 23.7494 29.1904 23.7493Z" fill="#FAFAFA"/>
<path d="M20.001 6.66602C20.691 6.66646 21.251 7.22593 21.251 7.91602V8.50033L21.7832 7.96973C22.2714 7.48173 23.0627 7.48163 23.5508 7.96973C24.0384 8.45786 24.0386 9.24929 23.5508 9.7373L21.251 12.0355V12.9258L22.1592 12.9242L24.4492 10.6357C24.9373 10.1479 25.7287 10.148 26.2168 10.6357C26.7048 11.1238 26.7047 11.9152 26.2168 12.4033L25.6992 12.9193H26.277C26.9671 12.9184 27.5273 13.4777 27.5286 14.1676C27.5295 14.858 26.9706 15.4184 26.2803 15.4193H25.6667L26.2168 15.9694L26.3031 16.0638C26.7036 16.5547 26.6743 17.2793 26.2168 17.737C25.7594 18.1939 25.036 18.2229 24.5452 17.8232L24.4492 17.737L22.138 15.4242L21.251 15.4258V16.3356L23.5508 18.6354L23.637 18.7314C24.0365 19.2222 24.0077 19.9456 23.5508 20.403C23.0932 20.8606 22.3686 20.8896 21.8776 20.4893L21.7832 20.403L21.251 19.8708V20.4567C21.251 21.1468 20.691 21.7063 20.001 21.7067C19.3106 21.7067 18.751 21.1471 18.751 20.4567V19.8675L18.2171 20.403C17.7291 20.8911 16.9377 20.8909 16.4495 20.403C15.9617 19.9148 15.9615 19.1235 16.4495 18.6354L18.751 16.334V15.429H17.8542L15.5495 17.737C15.0613 18.2247 14.2699 18.2248 13.7819 17.737C13.2944 17.2489 13.2943 16.4574 13.7819 15.9694L14.3158 15.4339L13.7396 15.4355C13.0492 15.4364 12.4889 14.8775 12.488 14.1872C12.4875 13.4972 13.0462 12.9364 13.7363 12.9355L14.3125 12.9339L13.7819 12.4033C13.2943 11.9152 13.2941 11.1237 13.7819 10.6357C14.2699 10.1478 15.0613 10.1481 15.5495 10.6357L17.8428 12.929H18.751V12.0387L16.4495 9.7373C15.9615 9.24922 15.9616 8.4579 16.4495 7.96973C16.9377 7.48157 17.729 7.48157 18.2171 7.96973L18.751 8.50358V7.91602C18.751 7.22566 19.3106 6.66602 20.001 6.66602Z" fill="#FAFAFA"/>
</svg>
