<svg width="40" height="40" viewBox="0 0 40 40" fill="none" xmlns="http://www.w3.org/2000/svg">
<path fill-rule="evenodd" clip-rule="evenodd" d="M19.999 11.4202C22.2745 11.4202 24.4577 12.3242 26.0667 13.9333C27.6755 15.5421 28.5796 17.7241 28.5798 19.9993C28.5798 22.2749 27.6758 24.458 26.0667 26.0671C24.4577 27.6761 22.2745 28.5801 19.999 28.5801C17.7238 28.5799 15.5418 27.6759 13.9329 26.0671C12.3239 24.458 11.4199 22.2749 11.4199 19.9993C11.4201 17.7241 12.3241 15.5421 13.9329 13.9333C15.5418 12.3244 17.7238 11.4204 19.999 11.4202ZM19.999 13.9202C18.3868 13.9204 16.8405 14.5608 15.7005 15.7008C14.5605 16.8409 13.9201 18.3871 13.9199 19.9993C13.9199 21.6118 14.5603 23.1593 15.7005 24.2995C16.8405 25.4394 18.3869 26.0799 19.999 26.0801C21.6115 26.0801 23.159 25.4397 24.2992 24.2995C25.4393 23.1593 26.0798 21.6118 26.0798 19.9993C26.0796 18.3872 25.4391 16.8409 24.2992 15.7008C23.159 14.5607 21.6115 13.9202 19.999 13.9202Z" fill="#FAFAFA"/>
<path fill-rule="evenodd" clip-rule="evenodd" d="M27.1214 5.1377C27.7252 5.13771 28.3185 5.3017 28.8369 5.61133C29.3551 5.92103 29.7796 6.36555 30.0658 6.89714L36.2669 18.4157C36.5289 18.9027 36.6673 19.448 36.6673 20.001C36.6672 20.5537 36.5304 21.0979 36.2686 21.5846L36.2669 21.5863L30.0658 33.1032C29.7796 33.6348 29.3551 34.0793 28.8369 34.389C28.3185 34.6986 27.7252 34.8626 27.1214 34.8626H12.8799C12.2761 34.8626 11.6828 34.6986 11.1644 34.389C10.6462 34.0793 10.2217 33.6348 9.93555 33.1032L3.73438 21.5863L3.73275 21.5846C3.47092 21.0979 3.33411 20.5537 3.33398 20.001C3.33398 19.448 3.47077 18.9027 3.73275 18.4157L9.93555 6.89714C10.2217 6.36555 10.6462 5.92103 11.1644 5.61133C11.6828 5.3017 12.2761 5.13771 12.8799 5.1377H27.1214ZM12.8799 7.6377C12.7275 7.63771 12.5777 7.67843 12.4469 7.75651C12.316 7.8347 12.2083 7.94777 12.1361 8.08203L5.9349 19.6006C5.86882 19.7235 5.83398 19.8614 5.83398 20.001C5.83411 20.1402 5.86898 20.2771 5.9349 20.3997L12.1361 31.9183C12.2083 32.0526 12.316 32.1656 12.4469 32.2438C12.5778 32.3219 12.7275 32.3626 12.8799 32.3626H27.1214C27.2738 32.3626 27.4235 32.3219 27.5544 32.2438C27.6853 32.1656 27.793 32.0526 27.8652 31.9183L34.0664 20.3997C34.1323 20.2771 34.1672 20.1402 34.1673 20.001C34.1673 19.8614 34.1325 19.7235 34.0664 19.6006L27.8652 8.08203C27.793 7.94777 27.6853 7.8347 27.5544 7.75651C27.4236 7.67843 27.2738 7.63771 27.1214 7.6377H12.8799Z" fill="#FAFAFA"/>
</svg>
