<svg width="40" height="40" viewBox="0 0 40 40" fill="none" xmlns="http://www.w3.org/2000/svg">
<path d="M28.7464 3.33398C31.2768 3.33485 33.3294 5.38685 33.3298 7.91732L33.3281 19.0957C33.3281 19.7855 32.7693 20.3448 32.0798 20.3457C31.3895 20.3456 30.8298 19.786 30.8298 19.0957L30.8281 7.91732C30.8278 6.76728 29.8948 5.83442 28.7448 5.83398H11.2529C10.1026 5.83404 9.1699 6.76702 9.1696 7.91732V32.084C9.1696 33.2342 10.1012 34.1667 11.2513 34.1673H20.6556C21.3453 34.1677 21.9052 34.7276 21.9056 35.4173C21.9054 36.1075 21.3442 36.6673 20.654 36.6673L11.2529 36.6689C8.72199 36.6689 6.66857 34.6164 6.66797 32.0856L6.6696 7.91732C6.66988 5.38628 8.72183 3.33403 11.2529 3.33398H28.7464Z" fill="#FAFAFA"/>
<path fill-rule="evenodd" clip-rule="evenodd" d="M29.9997 23.334C33.6813 23.334 36.6659 26.3191 36.6663 30.0007C36.6663 33.6825 33.6816 36.6673 29.9997 36.6673C26.3178 36.6673 23.333 33.6825 23.333 30.0007C23.3335 26.3191 26.3181 23.334 29.9997 23.334ZM28.2809 33.793C28.8054 34.0311 29.3861 34.1673 29.9997 34.1673C30.7027 34.1673 31.3638 33.9913 31.9447 33.6839L30.1673 31.9066L28.2809 33.793ZM26.3148 28.054C26.0072 28.6349 25.8332 29.2977 25.833 30.0007C25.833 30.7752 26.0491 31.4985 26.4173 32.1198L28.3997 30.139L26.3148 28.054ZM31.9349 30.139L33.7008 31.9049C33.9952 31.3338 34.1663 30.6875 34.1663 30.0007C34.1662 29.3874 34.03 28.8062 33.792 28.2819L31.9349 30.139ZM29.9997 25.834C29.3125 25.834 28.6652 26.0032 28.0938 26.2979L30.1673 28.3714L32.1188 26.4183C31.4974 26.05 30.7744 25.834 29.9997 25.834Z" fill="#FAFAFA"/>
<path d="M11.6777 25.834C12.368 25.834 12.9293 26.3937 12.9294 27.084L12.9277 30.4173C12.9274 31.1074 12.3678 31.6672 11.6777 31.6673C10.9878 31.6671 10.4281 31.1072 10.4277 30.4173V27.084C10.4281 26.394 10.9877 25.8341 11.6777 25.834Z" fill="#FAFAFA"/>
<path d="M16.7656 25.834C17.4556 25.8341 18.0153 26.394 18.0156 27.084V30.4157C18.0156 31.106 17.456 31.6673 16.7656 31.6673C16.0754 31.6672 15.5157 31.1075 15.5156 30.4173V27.084C15.5159 26.394 16.0757 25.8343 16.7656 25.834Z" fill="#FAFAFA"/>
<path d="M28.3444 16.6689C29.0347 16.669 29.5944 17.2303 29.5944 17.9206C29.594 18.6101 29.0355 19.1698 28.346 19.1706H11.6777C10.988 19.1701 10.4298 18.6103 10.4294 17.9206C10.4294 17.2302 10.989 16.6689 11.6794 16.6689H28.3444Z" fill="#FAFAFA"/>
<path fill-rule="evenodd" clip-rule="evenodd" d="M28.0107 7.72689C28.885 7.72689 29.5942 8.43631 29.5944 9.31055V13.8662C29.5943 14.7401 28.8861 15.4491 28.0124 15.4499H12.0114C11.1375 15.4493 10.4279 14.7402 10.4277 13.8662V9.30892C10.4287 8.43546 11.1378 7.72721 12.0114 7.72689H28.0107ZM12.9277 12.9499H15.9665L15.9681 10.2269H12.9277V12.9499ZM18.4665 12.9499H21.5182V10.2269H18.4681L18.4665 12.9499ZM24.0182 12.9499H27.096L27.0944 10.2269H24.0182V12.9499Z" fill="#FAFAFA"/>
</svg>
