<svg width="40" height="40" viewBox="0 0 40 40" fill="none" xmlns="http://www.w3.org/2000/svg">
<path fill-rule="evenodd" clip-rule="evenodd" d="M15.0993 7.06235C15.5874 6.57427 16.3787 6.57427 16.8669 7.06235L21.8587 12.0542H30.3874C32.5089 12.0542 34.1865 13.5476 35.262 15.4299C36.3575 17.3474 36.9954 19.9135 36.9954 22.6792C36.9953 25.4449 36.3576 28.0112 35.262 29.9286C34.1865 31.8105 32.5087 33.3042 30.3874 33.3042H9.61426C9.56861 33.3042 9.52355 33.3008 9.47917 33.2961C7.49229 33.2351 5.83826 31.8468 4.74121 29.9269C3.60683 27.9414 3.00781 25.332 3.00781 22.6776C3.00792 20.0232 3.60673 17.4136 4.74121 15.4282C5.86306 13.4653 7.56738 12.0529 9.61426 12.0526C9.62675 12.0526 9.63923 12.0541 9.65169 12.0542H18.3236L15.0993 8.82993C14.6112 8.34177 14.6111 7.55049 15.0993 7.06235ZM13.9193 14.5542C14.1219 14.8305 14.3138 15.1218 14.4889 15.4282C15.6234 17.4136 16.2222 20.0232 16.2223 22.6776C16.2223 23.6144 16.1457 24.546 15.9993 25.4461H21.6683C22.3586 25.4461 22.9182 26.0058 22.9183 26.6961C22.9183 27.3865 22.3587 27.9461 21.6683 27.9461H15.3776C15.1326 28.6537 14.836 29.3195 14.4889 29.9269C14.3133 30.2343 14.121 30.5272 13.9176 30.8042H30.3874C31.2245 30.8042 32.2276 30.1987 33.0908 28.6883C33.9339 27.213 34.4953 25.0905 34.4954 22.6792C34.4954 22.1902 34.4709 21.7124 34.4271 21.2502H22.3535C21.6633 21.2502 21.1037 20.6904 21.1035 20.0002C21.1035 19.3098 21.6632 18.7502 22.3535 18.7502H33.9518C33.7217 17.9675 33.4311 17.2657 33.0908 16.6701C32.2275 15.1593 31.2246 14.5542 30.3874 14.5542H13.9193ZM9.61426 14.5542C8.82026 14.5545 7.79942 15.1167 6.91243 16.6685C6.03784 18.199 5.50792 20.3598 5.50781 22.6776C5.50781 24.9954 6.03793 27.156 6.91243 28.6867C7.79949 30.2389 8.82017 30.8023 9.61426 30.8026C10.4085 30.8026 11.4304 30.2395 12.3177 28.6867C13.1922 27.156 13.7223 24.9954 13.7223 22.6776C13.7222 20.3598 13.1923 18.199 12.3177 16.6685C11.4305 15.1161 10.4084 14.5542 9.61426 14.5542Z" fill="#FAFAFA"/>
</svg>
