<svg width="40" height="40" viewBox="0 0 40 40" fill="none" xmlns="http://www.w3.org/2000/svg">
<path fill-rule="evenodd" clip-rule="evenodd" d="M17.2731 15.7066C17.7276 15.7067 18.1467 15.9535 18.3669 16.3511C18.5869 16.7489 18.5741 17.2355 18.3327 17.6207L15.9352 21.4439L18.3099 24.9693C18.4489 25.1757 18.5231 25.4203 18.5231 25.6692V31.5513C18.523 31.8826 18.3911 32.2008 18.1569 32.4351C17.9226 32.6694 17.6044 32.8012 17.2731 32.8013H14.9554C14.6375 35.0899 12.678 36.8533 10.3021 36.8541C7.92546 36.8541 5.9636 35.0904 5.64551 32.8013H4.45573C3.78509 32.8011 3.23494 32.4562 2.8916 32.1129C2.54828 31.7695 2.20334 31.2194 2.20312 30.5487V23.9765C2.20315 22.6376 2.9454 21.7629 3.77051 21.2877C4.53287 20.8489 5.3905 20.7197 5.95964 20.7196C6.22681 20.7196 6.38902 20.6817 6.47559 20.6545L7.85091 17.9022C8.03808 17.5279 8.29496 17.0083 8.64518 16.5969C9.03351 16.1408 9.6299 15.7066 10.473 15.7066H17.2731ZM10.3021 29.9449C9.08451 29.9449 8.09668 30.9327 8.09668 32.1503C8.09751 33.3672 9.08503 34.3541 10.3021 34.3541C11.5184 34.3532 12.505 33.3666 12.5059 32.1503C12.5059 30.9333 11.5189 29.9458 10.3021 29.9449ZM10.5495 18.218C10.5002 18.2759 10.4366 18.3679 10.3542 18.511C10.2717 18.6542 10.1878 18.8193 10.0872 19.0204L8.58333 22.0282C8.56913 22.0566 8.55246 22.084 8.53613 22.1112L7.46517 21.4683C8.51218 22.0965 8.5345 22.1145 8.5345 22.1145L8.53125 22.1194L8.5166 22.1438C8.50977 22.1545 8.50171 22.1663 8.49381 22.178C8.47778 22.2015 8.45915 22.2277 8.43848 22.2545C8.3967 22.3086 8.34482 22.3693 8.28223 22.4319C8.15572 22.5583 7.98807 22.6922 7.77116 22.8127C7.33122 23.0571 6.73821 23.2196 5.95964 23.2196C5.69348 23.2198 5.29853 23.2921 5.01725 23.454C4.88968 23.5275 4.81779 23.6008 4.77799 23.6623C4.7443 23.7146 4.70314 23.8048 4.70312 23.9765V30.3013H5.97428C6.6928 28.6218 8.36005 27.4449 10.3021 27.4449C12.2434 27.4455 13.9085 28.6223 14.6266 30.3013H16.0231V26.05L13.4059 22.1682C13.1297 21.7583 13.1221 21.223 13.3848 20.8043L15.014 18.2066H10.5592C10.5562 18.2101 10.5529 18.214 10.5495 18.218Z" fill="#FAFAFA"/>
<path fill-rule="evenodd" clip-rule="evenodd" d="M29.529 15.7066C30.3719 15.7068 30.9685 16.1409 31.3568 16.5969C31.707 17.0084 31.9639 17.5279 32.151 17.9022L33.5264 20.6545C33.613 20.6817 33.7754 20.7196 34.0423 20.7196C34.6117 20.7198 35.4706 20.8485 36.2331 21.2877C37.0579 21.763 37.7988 22.638 37.7988 23.9765V30.5487C37.7986 31.2192 37.4536 31.7695 37.1104 32.1129C36.7671 32.4561 36.2167 32.801 35.5462 32.8013H34.6527C34.3348 35.0899 32.3752 36.8533 29.9993 36.8541C27.6227 36.8541 25.6609 35.0904 25.3428 32.8013H23.0674C22.3772 32.8013 21.8177 32.2415 21.8174 31.5513V25.0116L19.7064 20.9149C19.4989 20.5121 19.5257 20.0277 19.7764 19.6503L22.0257 16.2649L22.1201 16.1412C22.3558 15.8676 22.7012 15.7066 23.0674 15.7066H29.529ZM29.9993 29.9449C28.7818 29.9449 27.7939 30.9327 27.7939 32.1503C27.7948 33.3672 28.7823 34.3541 29.9993 34.3541C31.2157 34.3532 32.2023 33.3666 32.2031 32.1503C32.2031 30.9333 31.2162 29.9458 29.9993 29.9449ZM22.265 20.4218L24.1774 24.1376C24.2684 24.3144 24.3173 24.5101 24.3174 24.7089V30.3013H25.6715C26.3901 28.6218 28.0573 27.4449 29.9993 27.4449C31.9407 27.4455 33.6058 28.6223 34.3239 30.3013H35.2988V23.9765C35.2988 23.8049 35.2576 23.7146 35.224 23.6623C35.1842 23.6008 35.1122 23.5275 34.9847 23.454C34.7035 23.2921 34.3085 23.2198 34.0423 23.2196C33.2638 23.2196 32.6707 23.0571 32.2308 22.8127C32.0139 22.6922 31.8462 22.5583 31.7197 22.4319C31.6571 22.3693 31.6053 22.3086 31.5635 22.2545C31.5428 22.2276 31.5242 22.2015 31.5081 22.178C31.5002 22.1663 31.4922 22.1545 31.4854 22.1438L31.4707 22.1194L31.4674 22.1161C31.4708 22.1127 31.5329 22.0706 32.5368 21.4683L31.4658 22.1112C31.4496 22.0842 31.4344 22.0564 31.4202 22.0282L29.9147 19.0204C29.8142 18.8193 29.7302 18.6542 29.6478 18.511C29.5655 18.368 29.5017 18.2759 29.4525 18.218C29.4491 18.214 29.4458 18.2101 29.4427 18.2066H23.7363L22.265 20.4218Z" fill="#FAFAFA"/>
<path d="M20.307 3.14802C20.7449 3.15288 21.1477 3.38734 21.3698 3.76488L23.152 6.79222L26.5635 5.53571C26.9822 5.38145 27.4524 5.46214 27.7956 5.7473C28.1386 6.03242 28.3034 6.47946 28.2285 6.91917L27.6019 10.5894L30.2012 11.4293L30.3216 11.4732C30.9017 11.7275 31.2068 12.3857 31.0085 13.0015C30.8096 13.6169 30.1775 13.9736 29.5583 13.8414L29.4346 13.8072L25.8034 12.6369C25.2124 12.446 24.8512 11.8495 24.9554 11.2372L25.3997 8.62816L23.0365 9.50056C22.4697 9.70884 21.8343 9.48199 21.5277 8.96182L20.2663 6.81826L18.93 8.9846C18.6175 9.48972 17.9917 9.70577 17.4342 9.50056L15.2435 8.69326L15.8441 11.1509C15.9865 11.736 15.6917 12.341 15.1426 12.5881L12.5417 13.7584C11.9127 14.0407 11.1731 13.7602 10.8896 13.1317C10.6065 12.5024 10.8872 11.7616 11.5163 11.4781L13.1683 10.7327L12.2601 7.00544C12.1507 6.55696 12.2984 6.08414 12.6426 5.7766C12.9872 5.46927 13.4739 5.37619 13.9072 5.53571L17.3382 6.80036L19.2295 3.74046L19.3239 3.60863C19.5622 3.31595 19.9238 3.14406 20.307 3.14802Z" fill="#FAFAFA"/>
</svg>
