<svg width="40" height="40" viewBox="0 0 40 40" fill="none" xmlns="http://www.w3.org/2000/svg">
<path d="M20.0013 28.5597C20.4522 28.5599 20.8415 28.7175 21.1683 29.0317C21.4951 29.3461 21.6582 29.7285 21.6582 30.1776C21.6581 30.6264 21.4946 31.0054 21.1667 31.3136C20.8386 31.6219 20.4453 31.7757 19.9883 31.7759C19.5309 31.7759 19.1404 31.6218 18.8197 31.312C18.4989 31.0022 18.3395 30.6219 18.3395 30.1727C18.3395 29.7238 18.5032 29.343 18.8311 29.0301C19.1593 28.7171 19.5501 28.5597 20.0013 28.5597Z" fill="#FAFAFA"/>
<path d="M16.1732 24.3312C16.6352 24.3312 17.0245 24.4893 17.3418 24.8032C17.6591 25.1172 17.8187 25.4988 17.8187 25.9474C17.8185 26.3857 17.6583 26.7627 17.3402 27.077C17.022 27.3909 16.6293 27.5474 16.1634 27.5474C15.7079 27.5472 15.3181 27.3911 14.9948 27.077C14.6713 26.7626 14.5098 26.3823 14.5098 25.9377C14.5098 25.4932 14.6715 25.1146 14.9948 24.8016C15.3182 24.4886 15.7111 24.3313 16.1732 24.3312Z" fill="#FAFAFA"/>
<path d="M23.8278 24.2596C24.2872 24.2596 24.6794 24.416 25.0029 24.73C25.3263 25.0439 25.4879 25.4257 25.488 25.8742C25.488 26.3127 25.3259 26.6893 25.0029 27.0037C24.6799 27.3182 24.2877 27.4757 23.8262 27.4757C23.375 27.4757 22.9862 27.3182 22.6592 27.0037C22.3323 26.6894 22.1678 26.3104 22.1676 25.866C22.1676 25.4215 22.333 25.0414 22.6608 24.7284C22.9885 24.4158 23.3775 24.2597 23.8278 24.2596Z" fill="#FAFAFA"/>
<path d="M20.0013 20.0881C20.4522 20.0882 20.8415 20.2462 21.1683 20.5601C21.4947 20.8738 21.6581 21.2546 21.6582 21.7026C21.6582 22.1409 21.4944 22.5194 21.1667 22.8371C20.8384 23.1549 20.4476 23.314 19.9964 23.314C19.5454 23.3139 19.1563 23.1544 18.8294 22.8354C18.5028 22.5166 18.3397 22.1354 18.3395 21.6912C18.3395 21.2469 18.5032 20.8685 18.8311 20.5568C19.1593 20.245 19.5501 20.0881 20.0013 20.0881Z" fill="#FAFAFA"/>
<path d="M23.8278 15.9686C24.2872 15.9686 24.6794 16.125 25.0029 16.439C25.3263 16.7529 25.4879 17.1347 25.488 17.5832C25.488 18.0318 25.3266 18.4129 25.0046 18.7257C24.6827 19.0384 24.2931 19.1944 23.8359 19.1945C23.3786 19.1945 22.9862 19.0369 22.6592 18.7225C22.3325 18.4082 22.1678 18.0271 22.1676 17.5783C22.1676 17.1291 22.333 16.7475 22.6608 16.4357C22.9885 16.1243 23.3775 15.9686 23.8278 15.9686Z" fill="#FAFAFA"/>
<path d="M16.1732 15.8774C16.635 15.8774 17.0246 16.0354 17.3418 16.3494C17.6591 16.6639 17.8187 17.0461 17.8187 17.4953C17.8187 17.9444 17.6585 18.3244 17.3402 18.6362C17.0219 18.9479 16.6296 19.105 16.1634 19.105C15.7078 19.1048 15.3181 18.9472 14.9948 18.633C14.6713 18.3186 14.5098 17.9363 14.5098 17.4871C14.5098 17.0382 14.6715 16.6579 14.9948 16.3462C15.3182 16.0344 15.7111 15.8775 16.1732 15.8774Z" fill="#FAFAFA"/>
<path d="M20.0013 11.6506C20.4522 11.6507 20.8415 11.8102 21.1683 12.1291C21.4948 12.4478 21.658 12.8292 21.6582 13.2733C21.6582 13.7175 21.4944 14.096 21.1667 14.4077C20.8384 14.7195 20.4476 14.8765 19.9964 14.8765C19.5454 14.8764 19.1563 14.7184 18.8294 14.4045C18.5029 14.0907 18.3397 13.71 18.3395 13.2619C18.3395 12.8236 18.5032 12.4452 18.8311 12.1274C19.1593 11.8096 19.5501 11.6506 20.0013 11.6506Z" fill="#FAFAFA"/>
<path fill-rule="evenodd" clip-rule="evenodd" d="M27.6657 3.3335C28.3619 3.3335 29.0232 3.61797 29.5049 4.11312C29.9852 4.60687 30.2487 5.26972 30.2487 5.95394V7.44482H32.9993C33.6897 7.44482 34.2493 8.00447 34.2493 8.69482C34.2492 9.38509 33.6896 9.94482 32.9993 9.94482H32.2507V20.4624H32.9993C33.6895 20.4624 34.249 21.0223 34.2493 21.7124C34.2493 22.4028 33.6897 22.9624 32.9993 22.9624H32.2507V34.1668H32.9993C33.6897 34.1668 34.2493 34.7265 34.2493 35.4168C34.2493 36.1072 33.6897 36.6668 32.9993 36.6668H7C6.30964 36.6668 5.75 36.1072 5.75 35.4168C5.75 34.7265 6.30964 34.1668 7 34.1668H7.75033V22.9624H7C6.30964 22.9624 5.75 22.4028 5.75 21.7124C5.75033 21.0223 6.30985 20.4624 7 20.4624H7.75033V9.94482H7C6.30971 9.94482 5.75011 9.38509 5.75 8.69482C5.75 8.00447 6.30964 7.44482 7 7.44482H21.7493V5.95394C21.7493 5.26985 22.013 4.60684 22.4932 4.11312C22.9748 3.61803 23.6362 3.33358 24.3324 3.3335H27.6657ZM10.2503 20.4624H12C12.6902 20.4624 13.2497 21.0223 13.25 21.7124C13.25 22.4028 12.6904 22.9624 12 22.9624H10.2503V34.1668H29.7507V22.9624H27.9993C27.309 22.9624 26.7493 22.4028 26.7493 21.7124C26.7497 21.0223 27.3092 20.4624 27.9993 20.4624H29.7507V9.94482H10.2503V20.4624ZM24.2852 5.85628C24.2656 5.87656 24.2493 5.91145 24.2493 5.95394V7.44482H27.7487V5.95394C27.7487 5.91126 27.7326 5.87653 27.7129 5.85628C27.6946 5.83753 27.6766 5.8335 27.6657 5.8335H24.3324C24.3214 5.83358 24.3033 5.83766 24.2852 5.85628Z" fill="#FAFAFA"/>
</svg>
