<svg width="40" height="40" viewBox="0 0 40 40" fill="none" xmlns="http://www.w3.org/2000/svg">
<path fill-rule="evenodd" clip-rule="evenodd" d="M31.9245 3.33952C34.5664 3.47336 36.6673 5.65783 36.6673 8.33301V31.6663L36.6608 31.9235C36.5313 34.4802 34.4812 36.5303 31.9245 36.6598L31.6673 36.6663H8.33398L8.07682 36.6598C5.52008 36.5303 3.47003 34.4802 3.34049 31.9235L3.33398 31.6663V8.33301C3.33398 5.65783 5.43491 3.47337 8.07682 3.33952L8.33398 3.33301H31.6673L31.9245 3.33952ZM8.33398 5.83301C6.95327 5.83301 5.83398 6.9523 5.83398 8.33301V31.6663C5.83398 33.0471 6.95327 34.1663 8.33398 34.1663H31.6673C33.048 34.1663 34.1673 33.0471 34.1673 31.6663V8.33301C34.1673 6.9523 33.048 5.83301 31.6673 5.83301H8.33398Z" fill="#FAFAFA"/>
<path d="M13.7012 22.4477C15.3309 22.3587 16.7181 21.8687 17.7854 20.848C17.6982 20.6184 17.6471 20.3767 17.634 20.1315C16.3706 19.9967 15.1371 19.4907 13.969 18.63C13.5488 18.3216 13.2498 17.8758 13.1238 17.37C12.9979 16.8642 13.0529 16.3303 13.2795 15.8608C13.9408 14.4943 15.018 13.5427 16.5113 13.006C16.6258 12.9649 16.7483 12.9513 16.869 12.9661C16.9898 12.9809 17.1054 13.0237 17.2066 13.0912C17.3078 13.1587 17.3918 13.2489 17.4519 13.3546C17.512 13.4604 17.5465 13.5788 17.5527 13.7003C17.6416 15.33 18.1317 16.7171 19.1523 17.7844C19.3821 17.6972 19.624 17.6461 19.8694 17.633C20.0031 16.3699 20.5098 15.1374 21.3703 13.9681C21.6787 13.5478 22.1245 13.2488 22.6303 13.1228C23.1361 12.9969 23.6701 13.052 24.1395 13.2785C25.5061 13.9398 26.4577 15.017 26.9943 16.5103C27.0354 16.6248 27.049 16.7473 27.0343 16.8681C27.0195 16.9888 26.9766 17.1044 26.9091 17.2056C26.8417 17.3068 26.7514 17.3908 26.6457 17.4509C26.5399 17.511 26.4216 17.5455 26.3001 17.5517C24.6703 17.6407 23.2832 18.1307 22.2159 19.1513C22.3031 19.3809 22.3541 19.6226 22.3673 19.8678C23.6307 20.0026 24.8642 20.5086 26.0322 21.3693C26.4525 21.6778 26.7515 22.1235 26.8775 22.6293C27.0034 23.1352 26.9483 23.6691 26.7218 24.1386C26.0605 25.5051 24.9833 26.4567 23.49 26.9933C23.3755 27.0344 23.253 27.0481 23.1323 27.0333C23.0115 27.0185 22.8959 26.9756 22.7947 26.9082C22.6935 26.8407 22.6095 26.7505 22.5494 26.6447C22.4893 26.5389 22.4548 26.4206 22.4486 26.2991C22.3597 24.6694 21.8696 23.2823 20.849 22.2149C20.6192 22.3022 20.3773 22.3532 20.1319 22.3664C19.9982 23.6294 19.4915 24.862 18.631 26.0313C18.3226 26.4515 17.8768 26.7505 17.371 26.8765C16.8652 27.0024 16.3312 26.9474 15.8618 26.7208C14.4952 26.0596 13.5436 24.9823 13.007 23.4891C12.9659 23.3746 12.9523 23.252 12.967 23.1313C12.9818 23.0106 13.0247 22.895 13.0922 22.7937C13.1596 22.6925 13.2499 22.6085 13.3556 22.5484C13.4614 22.4883 13.5797 22.4538 13.7012 22.4477ZM19.1858 20.8145C19.347 20.9757 19.5523 21.0854 19.7758 21.1299C19.9994 21.1743 20.2311 21.1515 20.4416 21.0643C20.6522 20.9771 20.8322 20.8294 20.9588 20.6399C21.0854 20.4504 21.153 20.2276 21.153 19.9997C21.153 19.7718 21.0854 19.549 20.9588 19.3595C20.8322 19.17 20.6522 19.0223 20.4416 18.9351C20.2311 18.8478 19.9994 18.825 19.7758 18.8695C19.5523 18.914 19.347 19.0237 19.1858 19.1849C18.9701 19.4011 18.8489 19.6942 18.8489 19.9997C18.8489 20.3052 18.9701 20.5982 19.1858 20.8145Z" fill="#FAFAFA"/>
<path fill-rule="evenodd" clip-rule="evenodd" d="M20.0007 33.333C12.6369 33.333 6.66732 27.3635 6.66732 19.9997C6.66732 12.6359 12.6369 6.66634 20.0007 6.66634C27.3644 6.66634 33.334 12.6359 33.334 19.9997C33.334 27.3635 27.3644 33.333 20.0007 33.333ZM20.0007 9.16634C25.9837 9.16634 30.834 14.0166 30.834 19.9997C30.834 25.9828 25.9837 30.833 20.0007 30.833C14.0176 30.833 9.16732 25.9828 9.16732 19.9997C9.16732 14.0166 14.0176 9.16634 20.0007 9.16634Z" fill="#FAFAFA"/>
</svg>
