<svg width="40" height="40" viewBox="0 0 40 40" fill="none" xmlns="http://www.w3.org/2000/svg">
<path d="M12.4987 14.1666C12.4987 11.4731 13.2978 8.9669 14.6699 6.87167C9.48714 8.97746 5.83203 14.061 5.83203 19.9999C5.83203 27.8239 12.1747 34.1666 19.9987 34.1666V36.6666L19.141 36.6454C10.6189 36.2134 3.78521 29.3796 3.35319 20.8577L3.33203 19.9999C3.33203 10.7952 10.7939 3.33325 19.9987 3.33325C20.7697 3.33326 20.8973 4.4885 20.238 4.88762L19.6618 5.26197C16.8441 7.21812 14.9987 10.4766 14.9987 14.1666L15.0133 14.7249C15.2945 20.2636 19.735 24.7041 25.2738 24.9853L25.832 24.9999C29.7679 24.9999 33.2138 22.9003 35.111 19.7607C35.5102 19.1013 36.6654 19.229 36.6654 19.9999L36.6442 20.8577C36.1978 29.6637 28.9157 36.6666 19.9987 36.6666V34.1666C25.9378 34.1666 31.0197 30.5103 33.1253 25.3271C31.0302 26.699 28.5254 27.4999 25.832 27.4999C18.4682 27.4999 12.4987 21.5305 12.4987 14.1666Z" fill="#FAFAFA"/>
<path d="M33.1655 3.84524C32.8974 3.16259 31.9347 3.16259 31.6665 3.84524L30.9492 5.67071C30.8674 5.87912 30.703 6.04411 30.4954 6.12631L28.6765 6.84626C27.9964 7.11549 27.9964 8.08159 28.6765 8.35082L30.4954 9.07079C30.703 9.15299 30.8674 9.31796 30.9492 9.52637L31.6665 11.3518C31.9347 12.0345 32.8974 12.0345 33.1655 11.3519L33.8829 9.52637C33.9647 9.31796 34.129 9.15299 34.3367 9.07079L36.1555 8.35082C36.8357 8.08159 36.8357 7.11549 36.1555 6.84626L34.3367 6.12631C34.129 6.04411 33.9647 5.87912 33.8829 5.67071L33.1655 3.84524Z" fill="#FAFAFA"/>
<path d="M26.72 13.549C26.4517 12.8664 25.4892 12.8664 25.2209 13.549L24.9594 14.2146C24.8775 14.423 24.7132 14.588 24.5055 14.6702L23.8424 14.9327C23.1622 15.2019 23.1622 16.168 23.8424 16.4372L24.5055 16.6998C24.7132 16.7819 24.8775 16.9469 24.9594 17.1554L25.2209 17.8209C25.4892 18.5036 26.4517 18.5036 26.72 17.8209L26.9815 17.1554C27.0634 16.9469 27.2277 16.7819 27.4354 16.6998L28.0985 16.4372C28.7787 16.168 28.7787 15.2019 28.0985 14.9327L27.4354 14.6702C27.2277 14.588 27.0634 14.423 26.9815 14.2146L26.72 13.549Z" fill="#FAFAFA"/>
</svg>
