<svg width="40" height="40" viewBox="0 0 40 40" fill="none" xmlns="http://www.w3.org/2000/svg">
<path d="M21.874 22.2425C24.0626 22.2425 25.6027 24.3869 24.9128 26.4596C24.2446 28.4641 21.8531 29.2852 20.0951 28.1133L19.724 27.8659C19.1498 27.4829 18.9944 26.7068 19.3773 26.1325C19.7603 25.5586 20.5365 25.4033 21.1107 25.7858L21.4818 26.0332C21.8681 26.2906 22.3944 26.1106 22.5413 25.6702C22.6934 25.2125 22.3527 24.7425 21.874 24.7425C19.1389 24.7425 15.0268 24.7425 12.9173 24.7425C12.227 24.7425 11.6673 24.1829 11.6673 23.4925C11.6678 22.8025 12.2272 22.2425 12.9173 22.2425C15.0268 22.2425 19.1389 22.2425 21.874 22.2425Z" fill="#FAFAFA"/>
<path d="M23.6481 15.6149C25.7864 13.7147 29.1667 15.2332 29.1673 18.0938C29.167 19.9241 27.6838 21.4092 25.8519 21.4092C22.6542 21.4092 16.5013 21.4092 12.9173 21.4092C12.227 21.4092 11.6674 20.8495 11.6673 20.1592C11.6677 19.4692 12.2272 18.9092 12.9173 18.9092C16.5013 18.9092 22.6542 18.9092 25.8519 18.9092C26.3016 18.9092 26.667 18.5449 26.6673 18.0938C26.6667 17.3905 25.836 17.0167 25.3099 17.4834L24.9974 17.7601C24.4814 18.2185 23.6917 18.1718 23.2331 17.6559C22.775 17.1399 22.8215 16.3501 23.3372 15.8916L23.6481 15.6149Z" fill="#FAFAFA"/>
<path d="M16.7617 12.2051C18.5195 11.0337 20.911 11.8549 21.5794 13.8587C22.2701 15.9322 20.7285 18.0755 18.5407 18.0758C16.8422 18.0758 14.6534 18.0758 12.9173 18.0758C12.227 18.0758 11.6674 17.5162 11.6673 16.8258C11.6677 16.1358 12.2272 15.5758 12.9173 15.5758C14.6534 15.5758 16.8422 15.5758 18.5407 15.5758C19.0201 15.5755 19.3604 15.1051 19.208 14.6481C19.0608 14.2083 18.5346 14.0282 18.1484 14.2852L17.7773 14.5326C17.2029 14.9155 16.4269 14.7603 16.0439 14.1859C15.6614 13.6115 15.8164 12.8353 16.3906 12.4525L16.7617 12.2051Z" fill="#FAFAFA"/>
<path fill-rule="evenodd" clip-rule="evenodd" d="M20.0007 6.66634C27.3644 6.66634 33.334 12.6359 33.334 19.9997C33.334 27.3635 27.3644 33.333 20.0007 33.333C12.6369 33.333 6.66732 27.3635 6.66732 19.9997C6.66732 12.6359 12.6369 6.66634 20.0007 6.66634ZM20.0007 9.16634C14.0176 9.16634 9.16732 14.0166 9.16732 19.9997C9.16732 25.9828 14.0176 30.833 20.0007 30.833C25.9837 30.833 30.834 25.9828 30.834 19.9997C30.834 14.0166 25.9837 9.16634 20.0007 9.16634Z" fill="#FAFAFA"/>
<path fill-rule="evenodd" clip-rule="evenodd" d="M31.9245 3.33952C34.5664 3.47336 36.6673 5.65783 36.6673 8.33301V31.6663L36.6608 31.9235C36.5313 34.4802 34.4812 36.5303 31.9245 36.6598L31.6673 36.6663H8.33398L8.07682 36.6598C5.52008 36.5303 3.47003 34.4802 3.34049 31.9235L3.33398 31.6663V8.33301C3.33398 5.65783 5.43491 3.47337 8.07682 3.33952L8.33398 3.33301H31.6673L31.9245 3.33952ZM8.33398 5.83301C6.95327 5.83301 5.83398 6.9523 5.83398 8.33301V31.6663C5.83398 33.0471 6.95327 34.1663 8.33398 34.1663H31.6673C33.048 34.1663 34.1673 33.0471 34.1673 31.6663V8.33301C34.1673 6.9523 33.048 5.83301 31.6673 5.83301H8.33398Z" fill="#FAFAFA"/>
</svg>
