<svg width="40" height="40" viewBox="0 0 40 40" fill="none" xmlns="http://www.w3.org/2000/svg">
<path fill-rule="evenodd" clip-rule="evenodd" d="M17.8016 3.35278C18.048 3.38623 18.2849 3.4676 18.5063 3.58228L18.508 3.57902C28.0187 7.97641 33.412 17.1443 33.0799 24.8176C32.9382 28.0386 31.7846 31.0234 29.5464 33.2047C27.3007 35.393 24.0741 36.6665 19.9956 36.6666C15.9353 36.6666 12.7036 35.4642 10.4481 33.3023C8.19548 31.1429 7.0447 28.1493 6.90965 24.8144V24.7965C6.86088 22.8865 7.33704 20.9996 8.28498 19.3407C9.23292 17.6819 10.617 16.3133 12.2873 15.3857L12.4044 15.3287C12.6845 15.2097 13.0002 15.1967 13.2915 15.2945C13.6243 15.4066 13.8952 15.6535 14.0369 15.9749C14.5077 17.0428 15.4238 17.4636 16.2098 17.4071C16.9636 17.3527 17.6802 16.8623 17.8585 15.7779C18.3603 12.7241 17.531 9.12006 15.8126 6.14412C15.5873 5.76166 15.5042 5.30933 15.5815 4.87134C15.661 4.42209 15.9027 4.01697 16.2602 3.73364L16.3953 3.64087C16.732 3.43989 17.1178 3.33325 17.5102 3.33325L17.8016 3.35278ZM18.814 6.52987C20.1958 9.5611 20.8423 13.0311 20.3244 16.1832C19.9515 18.4513 18.2541 19.7659 16.3904 19.9006C14.9779 20.0023 13.5226 19.4239 12.5168 18.2193C11.6831 18.8599 10.9801 19.6614 10.4546 20.581C9.73337 21.8432 9.37254 23.2797 9.40965 24.733C9.52757 27.5474 10.4846 29.8738 12.1782 31.4973C13.8727 33.1214 16.4343 34.1666 19.9956 34.1666C23.5388 34.1665 26.1001 33.0723 27.8016 31.4143C29.5103 29.749 30.4646 27.4053 30.5832 24.7086C30.8503 18.5266 26.6575 10.7592 18.814 6.52987Z" fill="#FAFAFA"/>
</svg>
