<svg width="40" height="40" viewBox="0 0 40 40" fill="none" xmlns="http://www.w3.org/2000/svg">
<path fill-rule="evenodd" clip-rule="evenodd" d="M19.9987 3.3335C20.6891 3.3335 21.2487 3.89314 21.2487 4.5835V11.1491L23.2815 9.11628C23.7696 8.62812 24.5611 8.62812 25.0492 9.11628C25.5374 9.60443 25.5374 10.3959 25.0492 10.884L20.8826 15.0507C20.3944 15.5389 19.603 15.5389 19.1148 15.0507L14.9481 10.884C14.46 10.3959 14.46 9.60443 14.9481 9.11628C15.4363 8.62812 16.2278 8.62812 16.7159 9.11628L18.7487 11.1491V4.5835C18.7487 3.89314 19.3083 3.3335 19.9987 3.3335ZM7.23125 15.9537C7.675 15.4249 8.46344 15.3559 8.99229 15.7996L10.9074 17.4066C11.4362 17.8504 11.5052 18.6388 11.0615 19.1676C10.6177 19.6965 9.82927 19.7655 9.30043 19.3217L7.38532 17.7147C6.85647 17.271 6.78749 16.4825 7.23125 15.9537ZM32.7672 15.9537C33.2109 16.4826 33.142 17.271 32.6131 17.7148L30.698 19.3217C30.1692 19.7655 29.3807 19.6965 28.937 19.1677C28.4932 18.6388 28.5622 17.8504 29.091 17.4066L31.0062 15.7996C31.535 15.3559 32.3234 15.4249 32.7672 15.9537ZM19.9987 20.8335C16.777 20.8335 14.1654 23.4452 14.1654 26.6668V27.0835C14.1654 27.7739 13.6057 28.3335 12.9154 28.3335C12.225 28.3335 11.6654 27.7739 11.6654 27.0835V26.6668C11.6654 22.0645 15.3963 18.3335 19.9987 18.3335C24.6011 18.3335 28.332 22.0645 28.332 26.6668V27.0835C28.332 27.7739 27.7724 28.3335 27.082 28.3335C26.3917 28.3335 25.832 27.7739 25.832 27.0835V26.6668C25.832 23.4452 23.2204 20.8335 19.9987 20.8335ZM3.33203 27.0835C3.33203 26.3931 3.89168 25.8335 4.58203 25.8335H7.08203C7.77239 25.8335 8.33203 26.3931 8.33203 27.0835C8.33203 27.7739 7.77239 28.3335 7.08203 28.3335H4.58203C3.89168 28.3335 3.33203 27.7739 3.33203 27.0835ZM31.6654 27.0835C31.6654 26.3931 32.225 25.8335 32.9154 25.8335H35.4154C36.1057 25.8335 36.6654 26.3931 36.6654 27.0835C36.6654 27.7739 36.1057 28.3335 35.4154 28.3335H32.9154C32.225 28.3335 31.6654 27.7739 31.6654 27.0835ZM3.33854 33.7502C3.33854 33.0598 3.89819 32.5002 4.58854 32.5002H35.4219C36.1122 32.5002 36.6719 33.0598 36.6719 33.7502C36.6719 34.4405 36.1122 35.0002 35.4219 35.0002H4.58854C3.89819 35.0002 3.33854 34.4405 3.33854 33.7502Z" fill="#FAFAFA"/>
</svg>
