<svg width="40" height="40" viewBox="0 0 40 40" fill="none" xmlns="http://www.w3.org/2000/svg">
<path fill-rule="evenodd" clip-rule="evenodd" d="M30.749 3.3335C32.1755 3.33367 33.3319 4.49003 33.332 5.9165V34.0838C33.332 34.1116 33.328 34.1392 33.3271 34.1668H35.4154C36.1057 34.1668 36.6654 34.7265 36.6654 35.4168C36.6654 36.1072 36.1057 36.6668 35.4154 36.6668H4.58203C3.89168 36.6668 3.33203 36.1072 3.33203 35.4168C3.33203 34.7265 3.89168 34.1668 4.58203 34.1668H6.67025C6.66937 34.1392 6.66537 34.1116 6.66536 34.0838V5.9165C6.66554 4.49003 7.8219 3.33367 9.24837 3.3335H30.749ZM9.24837 5.8335C9.20261 5.83367 9.16554 5.87074 9.16536 5.9165V34.0838C9.16554 34.1296 9.20261 34.1667 9.24837 34.1668H11.6654V9.59326C11.6654 8.90245 12.2253 8.34165 12.917 8.34163H27.0804C27.7706 8.34166 28.332 8.90102 28.332 9.59326V34.1668H30.749C30.7948 34.1667 30.8319 34.1296 30.832 34.0838V5.9165C30.8319 5.87074 30.7948 5.83367 30.749 5.8335H9.24837ZM14.1654 23.7534V34.1668H18.7487V23.7534H14.1654ZM21.2487 23.7534V34.1668H25.832V23.7534H21.2487ZM14.1654 21.2534H18.7487V10.8416H14.1654V21.2534ZM21.2487 21.2534H25.832V10.8416H21.2487V21.2534Z" fill="#FAFAFA"/>
</svg>
