<svg width="40" height="40" viewBox="0 0 40 40" fill="none" xmlns="http://www.w3.org/2000/svg">
<path fill-rule="evenodd" clip-rule="evenodd" d="M3.7001 3.69961C4.18826 3.21146 4.97971 3.21146 5.46787 3.69961L36.3012 34.5329C36.7894 35.0211 36.7894 35.8126 36.3012 36.3007C35.813 36.7889 35.0216 36.7889 34.5334 36.3007L33.2329 35.0002H7.91732C5.38601 35.0002 3.33398 32.9481 3.33398 30.4168V14.5835C3.33398 12.0522 5.38601 10.0002 7.91732 10.0002H8.23288L3.7001 5.46738C3.21195 4.97922 3.21195 4.18777 3.7001 3.69961ZM10.7329 12.5002H7.91732C6.76672 12.5002 5.83398 13.4329 5.83398 14.5835V30.4168C5.83398 31.5674 6.76672 32.5002 7.91732 32.5002H30.7329L24.6638 26.4311C23.4625 27.6068 21.8167 28.3335 20.0007 28.3335C16.3188 28.3335 13.334 25.3487 13.334 21.6668C13.334 19.8508 14.0607 18.205 15.2364 17.0037L10.7329 12.5002ZM17.0042 18.7714C16.2786 19.522 15.834 20.5427 15.834 21.6668C15.834 23.968 17.6995 25.8335 20.0007 25.8335C21.1248 25.8335 22.1455 25.3889 22.896 24.6633L17.0042 18.7714ZM15.0007 6.25016C15.0007 5.55981 15.5603 5.00016 16.2507 5.00016H22.3834C23.9158 5.00016 25.3469 5.76604 26.1969 7.04112L27.5512 9.07245C27.9375 9.65203 28.588 10.0002 29.2846 10.0002H32.084C34.6153 10.0002 36.6673 12.0522 36.6673 14.5835V27.0835C36.6673 27.7739 36.1077 28.3335 35.4173 28.3335C34.727 28.3335 34.1673 27.7739 34.1673 27.0835V14.5835C34.1673 13.4329 33.2346 12.5002 32.084 12.5002H29.2846C27.7521 12.5002 26.3211 11.7343 25.471 10.4592L24.1168 8.42787C23.7304 7.84829 23.0799 7.50016 22.3834 7.50016H16.2507C15.5603 7.50016 15.0007 6.94052 15.0007 6.25016Z" fill="#FAFAFA"/>
</svg>
