<svg width="40" height="40" viewBox="0 0 40 40" fill="none" xmlns="http://www.w3.org/2000/svg">
<path fill-rule="evenodd" clip-rule="evenodd" d="M13.75 9.375C14.4959 9.375 15.2115 9.67112 15.7389 10.1986C16.2664 10.726 16.5625 11.4416 16.5625 12.1875V18.75H23.4375V12.1875C23.4375 11.4416 23.7336 10.726 24.2611 10.1986C24.7885 9.67112 25.5041 9.375 26.25 9.375H27.8125C28.5584 9.375 29.274 9.67112 29.8014 10.1986C30.3289 10.726 30.625 11.4416 30.625 12.1875V12.5H32.5C33.2459 12.5 33.9615 12.7961 34.4889 13.3236C35.0164 13.851 35.3125 14.5666 35.3125 15.3125V18.75H35.625C36.3154 18.75 36.875 19.3096 36.875 20C36.875 20.6904 36.3154 21.25 35.625 21.25H35.3125V24.6875C35.3125 25.4334 35.0164 26.149 34.4889 26.6764C33.9615 27.2039 33.2459 27.5 32.5 27.5H30.625V27.8125C30.625 28.5584 30.3289 29.274 29.8014 29.8014C29.274 30.3289 28.5584 30.625 27.8125 30.625H26.25C25.5041 30.625 24.7885 30.3289 24.2611 29.8014C23.7336 29.274 23.4375 28.5584 23.4375 27.8125V21.25H16.5625V27.8125C16.5625 28.5584 16.2664 29.274 15.7389 29.8014C15.2115 30.3289 14.4959 30.625 13.75 30.625H12.1875C11.4416 30.625 10.726 30.3289 10.1986 29.8014C9.67112 29.274 9.375 28.5584 9.375 27.8125V27.5H7.5C6.75408 27.5 6.03851 27.2039 5.51107 26.6764C4.98362 26.149 4.6875 25.4334 4.6875 24.6875V21.25H4.375C3.68464 21.25 3.125 20.6904 3.125 20C3.125 19.3096 3.68464 18.75 4.375 18.75H4.6875V15.3125C4.6875 14.5666 4.98362 13.851 5.51107 13.3236C6.03851 12.7961 6.75408 12.5 7.5 12.5H9.375V12.1875C9.375 11.4416 9.67112 10.726 10.1986 10.1986C10.726 9.67112 11.4416 9.375 12.1875 9.375H13.75ZM12.1875 11.875C12.1046 11.875 12.0247 11.9075 11.9661 11.9661C11.9075 12.0247 11.875 12.1046 11.875 12.1875V27.8125C11.875 27.8954 11.9075 27.9752 11.9661 28.0339C12.0248 28.0925 12.1046 28.125 12.1875 28.125H13.75C13.8329 28.125 13.9127 28.0925 13.9714 28.0339C14.03 27.9752 14.0625 27.8954 14.0625 27.8125V12.1875C14.0625 12.1046 14.03 12.0248 13.9714 11.9661C13.9127 11.9075 13.8329 11.875 13.75 11.875H12.1875ZM26.25 11.875C26.1671 11.875 26.0872 11.9075 26.0286 11.9661C25.97 12.0248 25.9375 12.1046 25.9375 12.1875V27.8125C25.9375 27.8954 25.97 27.9752 26.0286 28.0339C26.0873 28.0925 26.1671 28.125 26.25 28.125H27.8125C27.8954 28.125 27.9752 28.0925 28.0339 28.0339C28.0925 27.9752 28.125 27.8954 28.125 27.8125V12.1875C28.125 12.1046 28.0925 12.0248 28.0339 11.9661C27.9752 11.9075 27.8954 11.875 27.8125 11.875H26.25ZM7.5 15C7.41712 15 7.33725 15.0325 7.27865 15.0911C7.22004 15.1498 7.1875 15.2296 7.1875 15.3125V24.6875C7.1875 24.7704 7.22004 24.8502 7.27865 24.9089C7.33725 24.9675 7.41712 25 7.5 25H9.375V15H7.5ZM30.625 25H32.5C32.5829 25 32.6627 24.9675 32.7214 24.9089C32.78 24.8502 32.8125 24.7704 32.8125 24.6875V15.3125C32.8125 15.2296 32.78 15.1498 32.7214 15.0911C32.6627 15.0325 32.5829 15 32.5 15H30.625V25Z" fill="#FAFAFA"/>
</svg>
