<svg width="40" height="40" viewBox="0 0 40 40" fill="none" xmlns="http://www.w3.org/2000/svg">
<path fill-rule="evenodd" clip-rule="evenodd" d="M12.9167 3.3335C13.607 3.3335 14.1667 3.89314 14.1667 4.5835V6.66683H25.8333V4.5835C25.8333 3.89314 26.393 3.3335 27.0833 3.3335C27.7737 3.3335 28.3333 3.89314 28.3333 4.5835V6.66683H30.4167C32.948 6.66683 35 8.71886 35 11.2502V30.4168C35 32.9481 32.948 35.0002 30.4167 35.0002H9.58333C7.05203 35.0002 5 32.9481 5 30.4168V11.2502C5 8.71886 7.05203 6.66683 9.58333 6.66683H11.6667V4.5835C11.6667 3.89314 12.2263 3.3335 12.9167 3.3335ZM9.58333 9.16683C8.43274 9.16683 7.5 10.0996 7.5 11.2502V15.0002H32.5V11.2502C32.5 10.0996 31.5673 9.16683 30.4167 9.16683H9.58333ZM32.5 17.5002H7.5V30.4168C7.5 31.5674 8.43274 32.5002 9.58333 32.5002H30.4167C31.5673 32.5002 32.5 31.5674 32.5 30.4168V17.5002Z" fill="#FAFAFA"/>
<path d="M12.5924 26.0118C13.6152 26.0118 14.4443 26.8409 14.4443 27.8636C14.4443 28.8864 13.6152 29.7155 12.5924 29.7155C11.5697 29.7155 10.7406 28.8864 10.7406 27.8636C10.7406 26.8409 11.5697 26.0118 12.5924 26.0118Z" fill="#FAFAFA"/>
<path d="M19.9998 26.0118C21.0226 26.0118 21.8517 26.8409 21.8517 27.8636C21.8517 28.8864 21.0226 29.7155 19.9998 29.7155C18.9771 29.7155 18.148 28.8864 18.148 27.8636C18.148 26.8409 18.9771 26.0118 19.9998 26.0118Z" fill="#FAFAFA"/>
<path d="M12.5924 20.0002C13.6152 20.0002 14.4443 20.8293 14.4443 21.852C14.4443 22.8748 13.6152 23.7039 12.5924 23.7039C11.5697 23.7039 10.7406 22.8748 10.7406 21.852C10.7406 20.8293 11.5697 20.0002 12.5924 20.0002Z" fill="#FAFAFA"/>
<path d="M19.9998 20.0002C21.0226 20.0002 21.8517 20.8293 21.8517 21.852C21.8517 22.8748 21.0226 23.7039 19.9998 23.7039C18.9771 23.7039 18.148 22.8748 18.148 21.852C18.148 20.8293 18.9771 20.0002 19.9998 20.0002Z" fill="#FAFAFA"/>
<path d="M27.4072 20.0002C28.43 20.0002 29.2591 20.8293 29.2591 21.852C29.2591 22.8748 28.43 23.7039 27.4072 23.7039C26.3845 23.7039 25.5554 22.8748 25.5554 21.852C25.5554 20.8293 26.3845 20.0002 27.4072 20.0002Z" fill="#FAFAFA"/>
</svg>
