<svg width="40" height="40" viewBox="0 0 40 40" fill="none" xmlns="http://www.w3.org/2000/svg">
<path d="M27.083 5.83301V12.9163H34.1663C34.8567 12.9163 35.4163 13.476 35.4163 14.1663C35.4163 14.8567 34.8567 15.4163 34.1663 15.4163H25.833L25.7044 15.4098C25.0745 15.3455 24.583 14.8133 24.583 14.1663V5.83301C24.583 5.14265 25.1427 4.58301 25.833 4.58301C26.5234 4.58301 27.083 5.14265 27.083 5.83301Z" fill="#FAFAFA"/>
<path d="M13.7497 34.1663C13.7497 34.8567 13.19 35.4163 12.4997 35.4163C11.8093 35.4163 11.2497 34.8567 11.2497 34.1663V28.7497H5.83301L5.70443 28.7432C5.07448 28.6788 4.58301 28.1466 4.58301 27.4997C4.58301 26.8527 5.07448 26.3206 5.70443 26.2562L5.83301 26.2497H12.4997C13.19 26.2497 13.7497 26.8093 13.7497 27.4997V34.1663Z" fill="#FAFAFA"/>
<path d="M27.083 34.1663C27.083 34.8567 26.5234 35.4163 25.833 35.4163C25.1427 35.4163 24.583 34.8567 24.583 34.1663V27.4997C24.583 26.8093 25.1427 26.2497 25.833 26.2497H34.1663C34.8567 26.2497 35.4163 26.8093 35.4163 27.4997C35.4163 28.19 34.8567 28.7497 34.1663 28.7497H27.083V34.1663Z" fill="#FAFAFA"/>
<path d="M13.7497 5.83301V14.1663L13.7432 14.2949C13.6788 14.9249 13.1466 15.4163 12.4997 15.4163H5.83301L5.70443 15.4098C5.07448 15.3455 4.58301 14.8133 4.58301 14.1663C4.58301 13.5194 5.07448 12.9872 5.70443 12.9229L5.83301 12.9163H11.2497V5.83301C11.2497 5.14265 11.8093 4.58301 12.4997 4.58301C13.19 4.58301 13.7497 5.14265 13.7497 5.83301Z" fill="#FAFAFA"/>
</svg>
