<svg width="40" height="40" viewBox="0 0 40 40" fill="none" xmlns="http://www.w3.org/2000/svg">
<path d="M3.33398 36.6666L5.67704 28.1069C4.23121 25.6013 3.47148 22.761 3.47287 19.8485C3.47704 10.743 10.8868 3.33325 19.9909 3.33325C24.409 3.33464 28.5562 5.05547 31.6757 8.1777C34.7937 11.2999 36.5104 15.4499 36.509 19.8638C36.5048 28.9708 29.0951 36.3805 19.9909 36.3805C17.227 36.3791 14.5034 35.686 12.0909 34.3694L3.33398 36.6666ZM12.4965 31.3791C14.8243 32.761 17.0465 33.5888 19.9854 33.5902C27.552 33.5902 33.7159 27.4319 33.7201 19.861C33.7229 12.2749 27.5882 6.12492 19.9965 6.12214C12.4243 6.12214 6.26454 12.2805 6.26176 19.8499C6.26037 22.9402 7.16593 25.2541 8.68676 27.6749L7.29926 32.7416L12.4965 31.3791ZM28.3118 23.7902C28.209 23.618 27.934 23.5152 27.5201 23.3083C27.1076 23.1013 25.0784 22.1027 24.6993 21.9652C24.3215 21.8277 24.0465 21.7583 23.7701 22.1721C23.4951 22.5846 22.7034 23.5152 22.4632 23.7902C22.2229 24.0652 21.9812 24.0999 21.5687 23.893C21.1562 23.686 19.8257 23.2513 18.2493 21.8444C17.0229 20.7499 16.1937 19.3985 15.9534 18.9846C15.7132 18.5721 15.9284 18.3485 16.134 18.143C16.3201 17.9583 16.5465 17.661 16.7534 17.4194C16.9632 17.1805 17.0312 17.0083 17.1701 16.7319C17.3076 16.4569 17.2395 16.2152 17.1354 16.0083C17.0312 15.8027 16.2062 13.7708 15.8632 12.9444C15.527 12.1402 15.1868 12.2485 14.934 12.236L14.1423 12.2221C13.8673 12.2221 13.4201 12.3249 13.0423 12.7388C12.6645 13.1527 11.5979 14.1499 11.5979 16.1819C11.5979 18.2138 13.077 20.1763 13.2826 20.4513C13.4895 20.7263 16.1923 24.8958 20.3326 26.6833C21.3173 27.1083 22.0868 27.3624 22.6854 27.5527C23.6743 27.8666 24.5743 27.8221 25.2854 27.7166C26.0784 27.5985 27.727 26.718 28.0715 25.7541C28.4159 24.7888 28.4159 23.9624 28.3118 23.7902Z" fill="#FAFAFA"/>
</svg>
