<svg width="40" height="40" viewBox="0 0 40 40" fill="none" xmlns="http://www.w3.org/2000/svg">
<path fill-rule="evenodd" clip-rule="evenodd" d="M9.6684 8.15663C9.20657 8.5436 9.16602 8.78876 9.16602 8.86542C9.16602 8.94207 9.20657 9.18723 9.6684 9.5742C10.1236 9.95566 10.8569 10.3553 11.8727 10.7153C13.8931 11.4314 16.7662 11.8978 19.9993 11.8978C23.2324 11.8978 26.1056 11.4314 28.126 10.7153C29.1418 10.3553 29.8751 9.95566 30.3303 9.5742C30.7921 9.18723 30.8327 8.94207 30.8327 8.86542C30.8327 8.78876 30.7921 8.5436 30.3303 8.15663C29.8751 7.77517 29.1418 7.37549 28.126 7.01549C26.1056 6.29944 23.2324 5.83301 19.9993 5.83301C16.7662 5.83301 13.8931 6.29944 11.8727 7.01549C10.8569 7.37549 10.1236 7.77517 9.6684 8.15663ZM30.8327 12.2403C30.2712 12.5552 29.6387 12.8316 28.9611 13.0717C26.6082 13.9056 23.4397 14.3978 19.9993 14.3978C16.559 14.3978 13.3905 13.9056 11.0376 13.0717C10.36 12.8316 9.72748 12.5552 9.16602 12.2403V16.1325C9.16602 16.2091 9.20657 16.4543 9.6684 16.8413C10.1236 17.2227 10.8569 17.6224 11.8727 17.9824C13.8931 18.6985 16.7662 19.1649 19.9993 19.1649C23.2324 19.1649 26.1056 18.6985 28.126 17.9824C29.1418 17.6224 29.8751 17.2227 30.3303 16.8413C30.7921 16.4543 30.8327 16.2091 30.8327 16.1325V12.2403ZM33.3327 8.86542C33.3327 7.75951 32.697 6.8781 31.9359 6.24039C31.1683 5.59716 30.132 5.07406 28.9611 4.6591C26.6082 3.82523 23.4397 3.33301 19.9993 3.33301C16.559 3.33301 13.3905 3.82523 11.0376 4.6591C9.86672 5.07406 8.83043 5.59716 8.06277 6.24039C7.3017 6.8781 6.66602 7.75951 6.66602 8.86542V31.1339C6.66602 32.2398 7.3017 33.1213 8.06277 33.759C8.83043 34.4022 9.86672 34.9253 11.0376 35.3402C13.3905 36.1741 16.559 36.6663 19.9993 36.6663C23.4397 36.6663 26.6082 36.1741 28.9611 35.3402C30.132 34.9253 31.1683 34.4022 31.9359 33.759C32.697 33.1213 33.3327 32.2398 33.3327 31.1339V8.86542ZM30.8327 19.5074C30.2712 19.8223 29.6387 20.0987 28.9611 20.3388C26.6082 21.1727 23.4397 21.6649 19.9993 21.6649C16.559 21.6649 13.3905 21.1727 11.0376 20.3388C10.36 20.0987 9.72748 19.8223 9.16602 19.5074V23.2158C9.16602 23.2925 9.20657 23.5376 9.6684 23.9246C10.1236 24.3061 10.8569 24.7057 11.8727 25.0657C13.8931 25.7818 16.7662 26.2482 19.9993 26.2482C23.2324 26.2482 26.1056 25.7818 28.126 25.0657C29.1418 24.7057 29.8751 24.3061 30.3303 23.9246C30.7921 23.5376 30.8327 23.2925 30.8327 23.2158V19.5074ZM30.8327 26.5907C30.2712 26.9056 29.6387 27.182 28.9611 27.4221C26.6082 28.256 23.4397 28.7482 19.9993 28.7482C16.559 28.7482 13.3905 28.256 11.0376 27.4221C10.36 27.182 9.72748 26.9056 9.16602 26.5907V31.1339C9.16602 31.2106 9.20657 31.4557 9.6684 31.8427C10.1236 32.2242 10.8569 32.6239 11.8727 32.9839C13.8931 33.6999 16.7662 34.1663 19.9993 34.1663C23.2324 34.1663 26.1056 33.6999 28.126 32.9839C29.1418 32.6239 29.8751 32.2242 30.3303 31.8427C30.7921 31.4557 30.8327 31.2106 30.8327 31.1339V26.5907Z" fill="#FAFAFA"/>
</svg>
