<svg width="40" height="40" viewBox="0 0 40 40" fill="none" xmlns="http://www.w3.org/2000/svg">
<path fill-rule="evenodd" clip-rule="evenodd" d="M4.99935 9.58333C4.99935 7.05203 7.05138 5 9.58268 5H20.416C22.9473 5 24.9993 7.05203 24.9993 9.58333V12.0833H30.416C32.9473 12.0833 34.9994 14.1354 34.9994 16.6667V30.8333H37.0827C37.773 30.8333 38.3327 31.393 38.3327 32.0833C38.3327 32.7737 37.773 33.3333 37.0827 33.3333H2.91602C2.22566 33.3333 1.66602 32.7737 1.66602 32.0833C1.66602 31.393 2.22566 30.8333 2.91602 30.8333H4.99935V9.58333ZM7.49935 30.8333H22.4993V9.58333C22.4993 8.43274 21.5666 7.5 20.416 7.5H9.58268C8.43209 7.5 7.49935 8.43274 7.49935 9.58333V30.8333ZM24.9993 30.8333H32.4993V16.6667C32.4993 15.5161 31.5666 14.5833 30.416 14.5833H24.9993V30.8333ZM11.666 14.5833C11.666 13.893 12.2257 13.3333 12.916 13.3333H17.0827C17.773 13.3333 18.3327 13.893 18.3327 14.5833C18.3327 15.2737 17.773 15.8333 17.0827 15.8333H12.916C12.2257 15.8333 11.666 15.2737 11.666 14.5833ZM11.666 21.25C11.666 20.5596 12.2257 20 12.916 20H17.0827C17.773 20 18.3327 20.5596 18.3327 21.25C18.3327 21.9404 17.773 22.5 17.0827 22.5H12.916C12.2257 22.5 11.666 21.9404 11.666 21.25Z" fill="#FAFAFA"/>
</svg>
