<svg width="40" height="40" viewBox="0 0 40 40" fill="none" xmlns="http://www.w3.org/2000/svg">
<path d="M24.111 28.0007C24.801 28.0012 25.361 28.5607 25.361 29.2507C25.3609 29.8545 25.1211 30.4348 24.6937 30.8621L24.6921 30.8604C24.265 31.2875 23.6857 31.5275 23.0824 31.5278H16.9154C16.3121 31.5275 15.7343 31.287 15.3073 30.8604L15.3057 30.8621C14.8783 30.4349 14.6384 29.8547 14.6383 29.2507C14.6383 28.5604 15.198 28.0007 15.8883 28.0007C16.5021 28.0011 17.012 28.4442 17.1172 29.0278H22.8822C22.9874 28.4439 23.4968 28.0007 24.111 28.0007Z" fill="#FAFAFA"/>
<path d="M24.111 17.7224C24.801 17.7229 25.361 18.2824 25.361 18.9724C25.3609 19.5761 25.1211 20.1565 24.6937 20.5837L24.6921 20.5821C24.265 21.0091 23.6857 21.2492 23.0824 21.2494H16.9154C16.3121 21.2492 15.7343 21.0087 15.3073 20.5821L15.3057 20.5837C14.8783 20.1566 14.6384 19.5764 14.6383 18.9724C14.6383 18.2821 15.198 17.7224 15.8883 17.7224C16.5021 17.7228 17.012 18.1658 17.1172 18.7494H22.8822C22.9874 18.1656 23.4968 17.7224 24.111 17.7224Z" fill="#FAFAFA"/>
<path d="M24.111 7.44409C24.801 7.44457 25.361 8.00403 25.361 8.69409C25.361 9.29795 25.1209 9.87818 24.6937 10.3054L24.6921 10.3038C24.2651 10.7307 23.6858 10.9709 23.0824 10.9711H16.9154C16.3119 10.9709 15.7326 10.7319 15.3057 10.3054C14.8785 9.87825 14.6383 9.29821 14.6383 8.69409C14.6383 8.00374 15.198 7.44409 15.8883 7.44409C16.5021 7.44448 17.012 7.88752 17.1172 8.47111H22.8822C22.9875 7.88733 23.4969 7.44409 24.111 7.44409Z" fill="#FAFAFA"/>
<path fill-rule="evenodd" clip-rule="evenodd" d="M33.4258 3.33439C33.4555 3.33539 33.4934 3.33608 33.5381 3.33927C33.6275 3.34566 33.7478 3.35822 33.888 3.38159C34.1626 3.42739 34.5475 3.52172 34.9476 3.72176C35.3528 3.92439 35.7966 4.2482 36.1357 4.75692C36.4799 5.2734 36.6663 5.906 36.6663 6.63843V33.3881C36.6662 33.3989 36.6652 33.4123 36.6647 33.4272C36.6637 33.4569 36.663 33.4949 36.6598 33.5395C36.6535 33.6287 36.6408 33.748 36.6175 33.8878C36.5717 34.1624 36.4775 34.5486 36.2773 34.949C36.0747 35.3541 35.7508 35.798 35.2422 36.1371C34.7257 36.4813 34.093 36.6677 33.3607 36.6677H6.61263C6.60181 36.6675 6.58849 36.6666 6.57357 36.6661C6.54383 36.6651 6.50601 36.6628 6.46126 36.6596C6.37183 36.6532 6.25155 36.6423 6.11133 36.6189C5.83679 36.5731 5.45184 36.4788 5.05176 36.2787C4.64651 36.0761 4.20277 35.7523 3.86361 35.2436C3.51938 34.7271 3.33305 34.0945 3.33301 33.3621V6.61239C3.33318 6.60157 3.33414 6.58824 3.33464 6.57332C3.33563 6.54359 3.33632 6.50575 3.33952 6.46102C3.34591 6.37158 3.35846 6.25134 3.38184 6.11108C3.42763 5.83654 3.52197 5.45159 3.72201 5.05151C3.92463 4.64629 4.24845 4.2025 4.75716 3.86336C5.27365 3.51918 5.90624 3.33276 6.63867 3.33276H33.3867C33.3975 3.33294 33.4109 3.33389 33.4258 3.33439ZM5.83301 33.3621C5.83305 33.6566 5.90262 33.7951 5.94368 33.8569C5.98996 33.9263 6.06125 33.9881 6.16992 34.0424C6.28348 34.0992 6.41227 34.1346 6.52311 34.1531C6.57488 34.1617 6.6156 34.1644 6.63867 34.1661C6.64809 34.1668 6.65658 34.1677 6.65658 34.1677H33.3607C33.6559 34.1677 33.7939 34.0965 33.8555 34.0554C33.9247 34.0092 33.9868 33.9392 34.041 33.8308C34.0978 33.7173 34.1332 33.5885 34.1517 33.4776C34.1604 33.4252 34.1631 33.3834 34.1647 33.3604C34.1655 33.3495 34.1663 33.3425 34.1663 33.3425V26.3894H5.83301V33.3621ZM5.83301 23.8894H34.1663V16.1111H5.83301V23.8894ZM6.63867 5.83276C6.34422 5.83276 6.20569 5.90234 6.14388 5.94344C6.07449 5.9897 6.01266 6.06105 5.95833 6.16968C5.90155 6.28324 5.86613 6.41202 5.84766 6.52287C5.83903 6.57465 5.83631 6.61535 5.83464 6.63843C5.83396 6.64783 5.83301 6.65633 5.83301 6.65633V13.6111H34.1663V6.63843C34.1663 6.34397 34.0968 6.20544 34.0557 6.14364C34.0094 6.07425 33.9381 6.01241 33.8294 5.95809C33.7159 5.90131 33.5871 5.86589 33.4762 5.84741C33.4245 5.83879 33.3838 5.83606 33.3607 5.83439C33.3513 5.83372 33.3428 5.83276 33.3428 5.83276H6.63867Z" fill="#FAFAFA"/>
</svg>
