<svg width="40" height="40" viewBox="0 0 40 40" fill="none" xmlns="http://www.w3.org/2000/svg">
<path d="M34.1663 20.0003C34.1663 19.8227 34.1052 19.6914 34.054 19.6276C32.7752 18.0825 30.7291 15.8688 28.2158 14.0547C25.6663 12.2147 22.85 10.9395 19.9997 10.9395C17.1494 10.9395 14.333 12.2146 11.7835 14.0547C9.2698 15.8691 7.22409 18.0824 5.94531 19.6276L5.90625 19.6878C5.86753 19.7598 5.83301 19.8669 5.83301 20.0003C5.83309 20.1744 5.89165 20.3033 5.94206 20.3682C7.22067 21.9136 9.26743 24.13 11.7835 25.946C14.333 27.786 17.1493 29.0612 19.9997 29.0612V31.5612L19.3307 31.5417C12.8959 31.1899 7.36679 25.8599 4.54069 22.5833L3.99544 21.9355C3.62286 21.471 3.39544 20.8855 3.3444 20.2673L3.33301 20.0003C3.33301 19.3745 3.51361 18.7678 3.84408 18.2702L3.99544 18.0635C6.69301 14.7975 12.8325 8.43945 19.9997 8.43945L20.6686 8.45736C27.5473 8.83347 33.3907 14.8996 36.0039 18.0635C36.4298 18.5945 36.6663 19.2849 36.6663 20.0003L36.6549 20.2673C36.6039 20.8855 36.3764 21.471 36.0039 21.9355L35.4587 22.5833C32.5351 25.9729 26.7188 31.5611 19.9997 31.5612V29.0612C22.85 29.0612 25.6663 27.786 28.2158 25.946C30.7315 24.1303 32.777 21.9135 34.0557 20.3682C34.1062 20.3033 34.1663 20.1748 34.1663 20.0003Z" fill="#FAFAFA"/>
<path d="M22.6372 19.9995C22.6372 18.5428 21.4572 17.3614 20.0005 17.3612C18.5436 17.3612 17.3621 18.5426 17.3621 19.9995C17.3624 21.4562 18.5437 22.6362 20.0005 22.6362V25.1362L19.7352 25.1297C17.1082 24.9963 15.0017 22.8903 14.8687 20.2632L14.8621 19.9995C14.8621 17.1619 17.1629 14.8612 20.0005 14.8612L20.2642 14.8677C22.979 15.0051 25.1372 17.2505 25.1372 19.9995L25.1307 20.2632C24.9932 22.9779 22.7493 25.136 20.0005 25.1362V22.6362C21.4571 22.636 22.637 21.4561 22.6372 19.9995Z" fill="#FAFAFA"/>
</svg>
