<svg width="40" height="40" viewBox="0 0 40 40" fill="none" xmlns="http://www.w3.org/2000/svg">
<path fill-rule="evenodd" clip-rule="evenodd" d="M4.11547 4.11612C4.60362 3.62796 5.39508 3.62796 5.88323 4.11612L35.8832 34.1161C36.3714 34.6043 36.3714 35.3957 35.8832 35.8839C35.3951 36.372 34.6036 36.372 34.1155 35.8839L31.4676 33.236C31.0564 33.3001 30.6356 33.3333 30.2077 33.3333H11.666C6.14317 33.3333 1.66602 28.8562 1.66602 23.3333C1.66602 18.5068 5.08436 14.4804 9.6326 13.5405C9.84032 13.0489 10.0819 12.5754 10.3543 12.1227L4.11547 5.88388C3.62731 5.39573 3.62731 4.60427 4.11547 4.11612ZM12.1923 13.9607C12.0124 14.3148 11.8561 14.6827 11.7251 15.0622C11.5702 15.5116 11.1737 15.8342 10.7022 15.8945C7.0158 16.3667 4.16602 19.5182 4.16602 23.3333C4.16602 27.4755 7.52388 30.8333 11.666 30.8333H29.0649L12.1923 13.9607ZM19.9993 9.16667C18.7103 9.16667 17.4895 9.44463 16.3908 9.9427C15.7621 10.2278 15.0213 9.94913 14.7362 9.32037C14.4512 8.69161 14.7298 7.95082 15.3586 7.66577C16.775 7.02361 18.3472 6.66667 19.9993 6.66667C25.9536 6.66667 30.8275 11.2924 31.2234 17.1462C35.2313 17.646 38.3327 21.065 38.3327 25.2083C38.3327 26.8238 37.86 28.3326 37.0449 29.5995C36.6713 30.1801 35.8979 30.3479 35.3173 29.9744C34.7367 29.6009 34.5689 28.8274 34.9424 28.2468C35.5057 27.3712 35.8327 26.3299 35.8327 25.2083C35.8327 22.1017 33.3143 19.5833 30.2077 19.5833C30.1481 19.5833 30.0887 19.5843 30.0294 19.5861C29.6824 19.5969 29.3465 19.4628 29.1023 19.216C28.858 18.9692 28.7274 18.632 28.7418 18.2851C28.7468 18.163 28.7493 18.0402 28.7493 17.9167C28.7493 13.0842 24.8318 9.16667 19.9993 9.16667Z" fill="#FAFAFA"/>
</svg>
