<svg width="40" height="40" viewBox="0 0 40 40" fill="none" xmlns="http://www.w3.org/2000/svg">
<path fill-rule="evenodd" clip-rule="evenodd" d="M23.6539 7.2754C23.9791 4.96118 26.1188 3.34879 28.433 3.67403L30.7804 4.00393C33.0946 4.32917 34.707 6.46889 34.3818 8.78311C34.141 10.4965 32.8812 11.8907 31.2009 12.3035L29.625 12.6906L28.6849 19.3799L35.0071 24.9998H35.4173C36.1077 24.9998 36.6673 25.5594 36.6673 26.2498V30.4164C36.6673 32.9477 34.6153 34.9998 32.084 34.9998H7.91732C5.38601 34.9998 3.33398 32.9477 3.33398 30.4164V26.2498C3.33398 25.5594 3.89363 24.9998 4.58398 24.9998H4.81895L7.84857 21.6335L6.28915 14.5417C5.96468 13.0661 6.81836 11.6226 8.19449 11.1546L8.18637 11.0969C7.83408 8.59021 9.58055 6.27256 12.0872 5.92027C14.5939 5.56798 16.9115 7.31445 17.2638 9.82112L17.2719 9.87889C18.7238 9.9494 19.9422 11.1017 20.0371 12.6095L20.5189 20.2708L26.2129 19.0054L27.1493 12.3427L25.7411 11.5362C24.2397 10.6762 23.4131 8.98883 23.6539 7.2754ZM28.6923 10.3454L30.6045 9.87567C31.2921 9.70677 31.8076 9.13629 31.9061 8.43518C32.0392 7.48823 31.3794 6.61269 30.4325 6.4796L28.0851 6.1497C27.1382 6.01662 26.2626 6.67638 26.1295 7.62333C26.031 8.32444 26.3692 9.01491 26.9836 9.36678L28.6923 10.3454ZM17.9586 19.391L17.542 12.7664C17.5268 12.5242 17.3085 12.3462 17.0682 12.38L9.07977 13.5027C8.83941 13.5364 8.67869 13.7677 8.73081 14.0048L9.9057 19.3478L9.95216 19.2962C11.28 17.8208 13.4066 17.3678 15.2204 18.174L17.9586 19.391ZM14.7891 10.1757L14.7882 10.1691C14.628 9.02966 13.5746 8.23581 12.4352 8.39594C11.2958 8.55607 10.5019 9.60955 10.662 10.7489L10.663 10.7556L14.7891 10.1757ZM5.83398 27.4998H34.1673V30.4164C34.1673 31.567 33.2346 32.4998 32.084 32.4998H7.91732C6.76672 32.4998 5.83398 31.567 5.83398 30.4164V27.4998ZM31.2442 24.9998H8.18235L11.8104 20.9686C12.414 20.298 13.3806 20.0921 14.2051 20.4585L18.8279 22.5131C19.5044 22.8138 20.2596 22.8894 20.9823 22.7288L27.1479 21.3586L31.2442 24.9998Z" fill="#FAFAFA"/>
</svg>
