<svg width="40" height="40" viewBox="0 0 40 40" fill="none" xmlns="http://www.w3.org/2000/svg">
<path d="M33.3817 18.9434C33.8698 19.4314 33.8696 20.2227 33.3817 20.7109C32.8935 21.1991 32.1023 21.1991 31.6141 20.7109L19.9979 9.09473L8.38166 20.7109C7.89347 21.1991 7.1022 21.1991 6.61408 20.7109C6.12613 20.2227 6.12595 19.4314 6.61408 18.9434L18.5249 7.03418C18.7181 6.84081 18.9478 6.68807 19.2003 6.58333C19.4532 6.47851 19.7242 6.42383 19.9979 6.42383C20.2716 6.42383 20.5426 6.47851 20.7954 6.58333C21.0479 6.68807 21.2776 6.84081 21.4708 7.03418L33.3817 18.9434Z" fill="#FAFAFA"/>
<path d="M33.3817 31.4434C33.8698 31.9315 33.8696 32.7228 33.3817 33.211C32.8935 33.6992 32.1023 33.6991 31.6141 33.211L19.9979 21.5948L8.38165 33.211C7.89347 33.6991 7.1022 33.6992 6.61408 33.211C6.12613 32.7228 6.12595 31.9315 6.61408 31.4434L18.5249 19.5342C18.7181 19.3408 18.9478 19.1881 19.2003 19.0834C19.4532 18.9785 19.7242 18.9239 19.9979 18.9239C20.2715 18.9239 20.5426 18.9785 20.7954 19.0834C21.0479 19.1881 21.2776 19.3408 21.4708 19.5342L33.3817 31.4434Z" fill="#FAFAFA"/>
</svg>
