<svg width="40" height="40" viewBox="0 0 40 40" fill="none" xmlns="http://www.w3.org/2000/svg">
<path fill-rule="evenodd" clip-rule="evenodd" d="M11.7721 3.76302C14.3678 3.89964 16.8168 5.05453 18.6423 6.99056C19.8354 8.25608 20.7016 9.79303 21.1943 11.4583C21.496 11.0267 21.8303 10.6165 22.1937 10.2311C24.1407 8.16619 26.7975 6.99056 29.5846 6.99056H34.168L34.2965 6.99707C34.9264 7.06143 35.4178 7.5938 35.418 8.24056V9.86165L35.4049 10.4004C35.2792 13.0926 34.2154 15.659 32.3923 17.5928C30.5669 19.5288 28.1178 20.682 25.5221 20.8187L25.0013 20.8333H21.668V23.195H28.0579L28.1849 23.2015C28.8153 23.2654 29.3079 23.7977 29.3079 24.445V30.9261C29.3078 32.0939 28.871 33.2286 28.0726 34.0755C27.2716 34.9249 26.1676 35.4167 25.0013 35.4167H15.8346C14.6685 35.4165 13.5658 34.9248 12.765 34.0755C11.9664 33.2286 11.5297 32.094 11.5296 30.9261V24.445L11.5361 24.3164C11.6005 23.6865 12.1327 23.195 12.7796 23.195H19.168V19.2122H15.8346C13.0476 19.2122 10.3907 18.0381 8.44368 15.9733C6.62058 14.0397 5.55689 11.4729 5.43099 8.78092L5.41797 8.24056V5L5.42448 4.87142C5.48885 4.24147 6.02102 3.75 6.66797 3.75H11.2513L11.7721 3.76302ZM14.0296 30.9261C14.0297 31.4769 14.2373 31.9917 14.5846 32.36C14.9295 32.7257 15.3806 32.9165 15.8346 32.9167H25.0013C25.4555 32.9167 25.9079 32.7258 26.2529 32.36C26.6001 31.9917 26.8078 31.4768 26.8079 30.9261V25.695H14.0296V30.9261ZM29.5846 9.49056C27.5096 9.49056 25.5028 10.3637 24.0117 11.945C22.5217 13.5253 21.6719 15.6833 21.668 17.9476V18.3333H25.0013L25.3887 18.3236C27.3247 18.222 29.1761 17.3601 30.5742 15.8773C31.9739 14.3923 32.8093 12.3983 32.9082 10.2848L32.918 9.86165V9.49056H29.5846ZM7.91797 8.24056L7.92773 8.66536C8.02676 10.7789 8.86187 12.773 10.2617 14.2578C11.7528 15.8393 13.7595 16.7122 15.8346 16.7122H19.168V14.7217C19.1678 12.4519 18.3176 10.2883 16.8242 8.70443C15.4261 7.22162 13.5746 6.36134 11.6387 6.25977L11.2513 6.25H7.91797V8.24056Z" fill="#FAFAFA"/>
</svg>
