<svg width="40" height="40" viewBox="0 0 40 40" fill="none" xmlns="http://www.w3.org/2000/svg">
<path d="M15.9736 17.2088C16.9657 17.2093 17.7266 18.0235 17.7266 18.9731C17.7262 19.9225 16.9655 20.7354 15.9736 20.7358V19.7088L15.972 19.7072L15.9736 20.7358C15.0435 20.7356 14.3144 20.0209 14.2272 19.1489L14.2191 18.9731L14.2272 18.7957C14.3147 17.9241 15.0437 17.2091 15.9736 17.2088Z" fill="#FAFAFA"/>
<path d="M24.2126 17.2186C25.1135 17.3119 25.7816 18.0829 25.7816 18.9731C25.7813 19.8632 25.1133 20.6329 24.2126 20.7261L24.0286 20.7358C23.0985 20.7356 22.3711 20.0208 22.2839 19.1489L22.2757 18.9731L22.2839 18.7957C22.3713 17.924 23.0987 17.2091 24.0286 17.2088L24.2126 17.2186Z" fill="#FAFAFA"/>
<path fill-rule="evenodd" clip-rule="evenodd" d="M30.0703 3.3335C31.8966 3.33379 33.3337 4.83797 33.3337 6.63916V31.3055C33.3337 32.6677 32.511 33.8585 31.3203 34.3589V35.4168C31.3203 36.1071 30.7606 36.6668 30.0703 36.6668C29.38 36.6668 28.8204 36.1071 28.8203 35.4168V34.6112H11.182V35.4168C11.1819 36.1069 10.6219 36.6664 9.93197 36.6668C9.24165 36.6668 8.68202 36.1071 8.68197 35.4168V34.3589C7.4905 33.8588 6.66699 32.6682 6.66699 31.3055V6.63916C6.66699 4.83798 8.10399 3.33379 9.93034 3.3335H30.0703ZM9.93034 5.8335C9.53267 5.8338 9.16699 6.17022 9.16699 6.63916V31.3055C9.16699 31.7744 9.53269 32.1109 9.93034 32.1112H18.7503V5.8335H9.93034ZM21.2503 32.1112H30.0703C30.4679 32.1109 30.8337 31.7744 30.8337 31.3055V6.63916C30.8337 6.17023 30.468 5.8338 30.0703 5.8335H21.2503V32.1112Z" fill="#FAFAFA"/>
</svg>
