<svg width="40" height="40" viewBox="0 0 40 40" fill="none" xmlns="http://www.w3.org/2000/svg">
<path d="M6.61798 21.0576C6.12985 20.5695 6.13003 19.7782 6.61798 19.29C7.10611 18.8018 7.89737 18.8018 8.38556 19.29L20.0018 30.9062L31.618 19.29C32.1062 18.8018 32.8974 18.8018 33.3856 19.29C33.8735 19.7782 33.8737 20.5695 33.3856 21.0576L21.4748 32.9667C21.2815 33.1601 21.0518 33.3128 20.7993 33.4176C20.5465 33.5224 20.2755 33.5771 20.0018 33.5771C19.7281 33.5771 19.4571 33.5224 19.2042 33.4176C18.9517 33.3128 18.722 33.1601 18.5288 32.9667L6.61798 21.0576Z" fill="#FAFAFA"/>
<path d="M6.61798 8.55752C6.12985 8.06946 6.13003 7.27814 6.61798 6.78994C7.10611 6.30176 7.89737 6.30182 8.38556 6.78994L20.0018 18.4062L31.618 6.78994C32.1062 6.30182 32.8974 6.30176 33.3856 6.78994C33.8735 7.27814 33.8737 8.06946 33.3856 8.55752L21.4748 20.4667C21.2815 20.6601 21.0518 20.8128 20.7993 20.9175C20.5465 21.0224 20.2754 21.0771 20.0018 21.0771C19.7281 21.0771 19.4571 21.0224 19.2042 20.9175C18.9517 20.8128 18.722 20.6601 18.5288 20.4667L6.61798 8.55752Z" fill="#FAFAFA"/>
</svg>
