<svg width="40" height="40" viewBox="0 0 40 40" fill="none" xmlns="http://www.w3.org/2000/svg">
<path fill-rule="evenodd" clip-rule="evenodd" d="M30.278 6.66333C31.1543 6.66355 31.9955 7.01214 32.6152 7.63175C33.2347 8.25155 33.5837 9.09267 33.5837 9.96899V18.0761C34.3022 18.2441 34.9675 18.6055 35.4977 19.1357C36.246 19.884 36.6663 20.8997 36.6663 21.9579V32.0816C36.6661 32.7717 36.1065 33.3316 35.4163 33.3316C34.7262 33.3316 34.1666 32.7717 34.1663 32.0816V29.7167H5.83301V32.0865C5.83273 32.7766 5.27319 33.3365 4.58301 33.3365C3.89282 33.3365 3.33328 32.7766 3.33301 32.0865V21.9579C3.33307 20.8997 3.75331 19.884 4.50163 19.1357C5.03222 18.6052 5.69816 18.244 6.41732 18.0761V9.96899C6.41732 9.09235 6.76586 8.25162 7.38574 7.63175C8.00566 7.01192 8.84635 6.66333 9.72298 6.66333H30.278ZM7.32389 20.467C6.92855 20.467 6.54875 20.6238 6.26921 20.9032C5.98971 21.1827 5.83307 21.5627 5.83301 21.9579V27.2167H34.1663V21.9579C34.1663 21.5627 34.0096 21.1827 33.7301 20.9032C33.4506 20.6238 33.0708 20.467 32.6755 20.467H32.3662C32.3554 20.4673 32.3445 20.4687 32.3337 20.4687C32.323 20.4687 32.3117 20.4673 32.3011 20.467H7.69987C7.68905 20.4673 7.67821 20.4687 7.66732 20.4687C7.6567 20.4687 7.64532 20.4673 7.63477 20.467H7.32389ZM9.72298 9.16333C9.50934 9.16333 9.30438 9.24832 9.15332 9.39933C9.00226 9.55038 8.91732 9.75542 8.91732 9.96899V17.967H12.5827V15.4491C12.5827 14.7542 12.8595 14.0883 13.3509 13.5969C13.8423 13.1056 14.5082 12.8287 15.2031 12.8287H24.7962C25.4909 12.8288 26.1572 13.1057 26.6484 13.5969C27.1396 14.0883 27.4166 14.7544 27.4167 15.4491V17.967H31.0837V9.96899C31.0837 9.75578 30.9982 9.55031 30.8477 9.39933C30.6968 9.24858 30.4913 9.16355 30.278 9.16333H9.72298ZM15.2031 15.3287C15.1712 15.3287 15.1411 15.342 15.1185 15.3645C15.0959 15.387 15.0827 15.4173 15.0827 15.4491V17.967H24.9167V15.4491C24.9166 15.4174 24.9032 15.387 24.8809 15.3645C24.8584 15.3421 24.828 15.3288 24.7962 15.3287H15.2031Z" fill="#FAFAFA"/>
</svg>
