<svg width="40" height="40" viewBox="0 0 40 40" fill="none" xmlns="http://www.w3.org/2000/svg">
<path d="M25.8849 14.1173C26.373 14.6054 26.373 15.3969 25.8849 15.885L21.7687 20.0012L25.8849 24.1173C26.373 24.6054 26.373 25.3969 25.8849 25.885C25.3967 26.3732 24.6052 26.3732 24.1171 25.885L20.001 21.7689L15.8849 25.885C15.3967 26.3732 14.6052 26.3732 14.1171 25.885C13.6289 25.3969 13.6289 24.6054 14.1171 24.1173L18.2332 20.0012L14.1171 15.885C13.6289 15.3969 13.6289 14.6054 14.1171 14.1173C14.6052 13.6291 15.3967 13.6291 15.8849 14.1173L20.001 18.2334L24.1171 14.1173C24.6052 13.6291 25.3967 13.6291 25.8849 14.1173Z" fill="#FAFAFA"/>
</svg>
