<svg width="40" height="40" viewBox="0 0 40 40" fill="none" xmlns="http://www.w3.org/2000/svg">
<path d="M20 27.0834C20.3315 27.0834 20.6494 27.2152 20.8838 27.4496C21.1182 27.684 21.25 28.0019 21.25 28.3334C21.25 28.6649 21.1182 28.9828 20.8838 29.2172C20.6494 29.4516 20.3315 29.5834 20 29.5834C19.6685 29.5834 19.3506 29.4516 19.1162 29.2172C18.8818 28.9828 18.75 28.6649 18.75 28.3334C18.75 28.0019 18.8818 27.684 19.1162 27.4496C19.3506 27.2152 19.6685 27.0834 20 27.0834Z" fill="#FAFAFA"/>
<path d="M15.5827 25.8334C15.9142 25.8334 16.2321 25.9652 16.4665 26.1996C16.7009 26.434 16.8327 26.7519 16.8327 27.0834C16.8327 27.4149 16.7009 27.7328 16.4665 27.9672C16.2321 28.2016 15.9142 28.3334 15.5827 28.3334C15.2512 28.3334 14.9333 28.2016 14.6989 27.9672C14.4645 27.7328 14.3327 27.4149 14.3327 27.0834C14.3327 26.7519 14.4645 26.434 14.6989 26.1996C14.9333 25.9652 15.2512 25.8334 15.5827 25.8334Z" fill="#FAFAFA"/>
<path d="M24.4173 25.8334C24.7488 25.8334 25.0667 25.9652 25.3011 26.1996C25.5355 26.434 25.6673 26.7519 25.6673 27.0834C25.6673 27.4149 25.5355 27.7328 25.3011 27.9672C25.0667 28.2016 24.7488 28.3334 24.4173 28.3334C24.0858 28.3334 23.7679 28.2016 23.5335 27.9672C23.2991 27.7328 23.1673 27.4149 23.1673 27.0834C23.1673 26.7519 23.2991 26.434 23.5335 26.1996C23.7679 25.9652 24.0858 25.8334 24.4173 25.8334Z" fill="#FAFAFA"/>
<path d="M11.2174 16.1671C11.4936 15.5344 12.2303 15.2447 12.863 15.5209C13.4956 15.7971 13.7836 16.5338 13.5075 17.1664C13.121 18.0517 12.9168 19.0155 12.9167 20.0001C12.9167 20.9849 13.121 21.9499 13.5075 22.8354C13.7834 23.468 13.4955 24.2047 12.863 24.4809C12.2303 24.757 11.4937 24.4673 11.2174 23.8347C10.8595 23.0148 10.6191 22.1446 10.5013 21.2501H5C4.30964 21.2501 3.75 20.6904 3.75 20.0001C3.75 19.3097 4.30964 18.7501 5 18.7501H10.5013C10.6191 17.8561 10.8597 16.9867 11.2174 16.1671Z" fill="#FAFAFA"/>
<path d="M27.137 15.5209C27.7698 15.2448 28.5081 15.5343 28.7842 16.1671C29.1417 16.9865 29.3813 17.8561 29.4987 18.7501H35C35.6904 18.7501 36.25 19.3097 36.25 20.0001C36.25 20.6904 35.6904 21.2501 35 21.2501H29.4987C29.3813 22.144 29.1418 23.0136 28.7842 23.8331C28.5081 24.4658 27.7698 24.7554 27.137 24.4792C26.5047 24.203 26.2167 23.4663 26.4925 22.8337C26.8788 21.9485 27.0833 20.9846 27.0833 20.0001C27.0833 19.0155 26.8789 18.0517 26.4925 17.1664C26.2165 16.5339 26.5047 15.7972 27.137 15.5209Z" fill="#FAFAFA"/>
<path d="M20 16.6667C20.8841 16.6667 21.7316 17.0182 22.3568 17.6433C22.9819 18.2684 23.3333 19.116 23.3333 20.0001C23.3333 20.8841 22.9819 21.7317 22.3568 22.3569C21.7316 22.982 20.8841 23.3334 20 23.3334C19.1159 23.3334 18.2683 22.982 17.6432 22.3569C17.0181 21.7317 16.6667 20.8841 16.6667 20.0001C16.6667 19.116 17.0181 18.2684 17.6432 17.6433C18.2683 17.0182 19.1159 16.6667 20 16.6667Z" fill="#FAFAFA"/>
<path d="M15.5827 11.6667C15.9142 11.6667 16.2321 11.7985 16.4665 12.033C16.7009 12.2674 16.8327 12.5852 16.8327 12.9167C16.8327 13.2483 16.7009 13.5661 16.4665 13.8005C16.2321 14.035 15.9142 14.1667 15.5827 14.1667C15.2512 14.1667 14.9333 14.035 14.6989 13.8005C14.4645 13.5661 14.3327 13.2483 14.3327 12.9167C14.3327 12.5852 14.4645 12.2674 14.6989 12.033C14.9333 11.7985 15.2512 11.6667 15.5827 11.6667Z" fill="#FAFAFA"/>
<path d="M24.4173 11.6667C24.7488 11.6667 25.0667 11.7985 25.3011 12.033C25.5355 12.2674 25.6673 12.5852 25.6673 12.9167C25.6673 13.2483 25.5355 13.5661 25.3011 13.8005C25.0667 14.035 24.7488 14.1667 24.4173 14.1667C24.0858 14.1667 23.7679 14.035 23.5335 13.8005C23.2991 13.5661 23.1673 13.2483 23.1673 12.9167C23.1673 12.5852 23.2991 12.2674 23.5335 12.033C23.7679 11.7985 24.0858 11.6667 24.4173 11.6667Z" fill="#FAFAFA"/>
<path d="M20 10.4167C20.3315 10.4167 20.6494 10.5485 20.8838 10.783C21.1182 11.0174 21.25 11.3352 21.25 11.6667C21.25 11.9983 21.1182 12.3161 20.8838 12.5505C20.6494 12.785 20.3315 12.9167 20 12.9167C19.6685 12.9167 19.3506 12.785 19.1162 12.5505C18.8818 12.3161 18.75 11.9983 18.75 11.6667C18.75 11.3352 18.8818 11.0174 19.1162 10.783C19.3506 10.5485 19.6685 10.4167 20 10.4167Z" fill="#FAFAFA"/>
</svg>
