<svg width="40" height="40" viewBox="0 0 40 40" fill="none" xmlns="http://www.w3.org/2000/svg">
<path fill-rule="evenodd" clip-rule="evenodd" d="M10.7829 27.4495C11.271 26.9614 12.0623 26.9614 12.5505 27.4495C13.0386 27.9377 13.0386 28.729 12.5505 29.2171L10.8838 30.8838L10.8805 30.8854C10.909 30.9449 10.9399 31.0034 10.9652 31.0645C11.1537 31.5194 11.25 32.0075 11.25 32.5C11.25 32.9924 11.1537 33.4806 10.9652 33.9355C10.7768 34.3903 10.4996 34.8032 10.1514 35.1514C9.80341 35.4993 9.39068 35.7767 8.93555 35.9652C8.48052 36.1537 7.99246 36.25 7.5 36.25C7.00754 36.25 6.51948 36.1537 6.06445 35.9652C5.60932 35.7767 5.19659 35.4993 4.84863 35.1514C4.5004 34.8032 4.22324 34.3903 4.03483 33.9355C3.84631 33.4806 3.75 32.9924 3.75 32.5C3.75 32.0076 3.84631 31.5194 4.03483 31.0645C4.22324 30.6097 4.5004 30.1968 4.84863 29.8486C5.19659 29.5007 5.60932 29.2233 6.06445 29.0348C6.51948 28.8463 7.00754 28.75 7.5 28.75C7.99246 28.75 8.48052 28.8463 8.93555 29.0348C8.99597 29.0599 9.05408 29.0897 9.11296 29.1178L9.11621 29.1162L10.7829 27.4495ZM7.5 31.25C7.33587 31.25 7.17307 31.2816 7.02148 31.3444C6.87026 31.407 6.73237 31.5001 6.61621 31.6162C6.50026 31.7321 6.40725 31.8697 6.3444 32.0215C6.28165 32.1729 6.25 32.3358 6.25 32.5C6.25 32.6642 6.28165 32.8271 6.3444 32.9785C6.40725 33.1302 6.50026 33.2679 6.61621 33.3838C6.73237 33.4999 6.87026 33.5913 7.02148 33.654C7.17307 33.7168 7.33587 33.75 7.5 33.75C7.66413 33.75 7.82693 33.7184 7.97852 33.6556C8.12974 33.593 8.26763 33.4999 8.38379 33.3838C8.49974 33.2679 8.59275 33.1303 8.6556 32.9785C8.71835 32.8271 8.75 32.6642 8.75 32.5C8.75 32.3358 8.71835 32.1729 8.6556 32.0215C8.59275 31.8697 8.49974 31.7321 8.38379 31.6162C8.26763 31.5001 8.12974 31.4087 7.97852 31.346C7.82693 31.2832 7.66413 31.25 7.5 31.25Z" fill="#FAFAFA"/>
<path fill-rule="evenodd" clip-rule="evenodd" d="M27.4495 27.4495C27.9377 26.9614 28.729 26.9614 29.2171 27.4495L30.887 29.1195C31.3866 28.881 31.9358 28.75 32.5 28.75C33.4946 28.75 34.4482 29.1456 35.1514 29.8486C35.8544 30.5518 36.25 31.5054 36.25 32.5C36.25 33.4946 35.8544 34.4482 35.1514 35.1514C34.4482 35.8544 33.4946 36.25 32.5 36.25C31.5054 36.25 30.5518 35.8544 29.8486 35.1514C29.1456 34.4482 28.75 33.4946 28.75 32.5C28.75 31.9358 28.881 31.3866 29.1195 30.887L27.4495 29.2171C26.9614 28.729 26.9614 27.9377 27.4495 27.4495ZM32.5 31.25C32.1686 31.25 31.8508 31.3818 31.6162 31.6162C31.3818 31.8508 31.25 32.1686 31.25 32.5C31.25 32.8314 31.3818 33.1492 31.6162 33.3838C31.8508 33.6182 32.1686 33.75 32.5 33.75C32.8314 33.75 33.1492 33.6182 33.3838 33.3838C33.6182 33.1492 33.75 32.8314 33.75 32.5C33.75 32.1686 33.6182 31.8508 33.3838 31.6162C33.1492 31.3818 32.8314 31.25 32.5 31.25Z" fill="#FAFAFA"/>
<path fill-rule="evenodd" clip-rule="evenodd" d="M20 12.5C22.7612 12.5002 25 14.7387 25 17.5C25 18.9786 24.3535 20.302 23.3333 21.2174C25.0402 22.1422 25.9316 23.6648 26.2061 24.6712C26.3875 25.3371 25.9945 26.0243 25.3288 26.2061C24.6629 26.3874 23.9756 25.9946 23.7939 25.3288C23.6042 24.6337 22.5862 22.9168 20 22.9167C17.4138 22.9168 16.3958 24.6337 16.2061 25.3288C16.0244 25.9946 15.3371 26.3874 14.6712 26.2061C14.0055 26.0243 13.6125 25.3371 13.7939 24.6712C14.0684 23.6651 14.9592 22.1423 16.665 21.2174C15.6455 20.3021 15 18.978 15 17.5C15 14.7387 17.2387 12.5002 20 12.5ZM20 15C18.6195 15.0002 17.5 16.1194 17.5 17.5C17.5 18.8806 18.6195 19.9998 20 20C21.3805 19.9998 22.5 18.8806 22.5 17.5C22.5 16.1194 21.3805 15.0002 20 15Z" fill="#FAFAFA"/>
<path fill-rule="evenodd" clip-rule="evenodd" d="M7.5 3.75C7.99245 3.75 8.48057 3.84637 8.93555 4.03483C9.39045 4.22329 9.80321 4.50048 10.1514 4.84863C10.4995 5.19679 10.7767 5.60955 10.9652 6.06445C11.1536 6.51942 11.25 7.00755 11.25 7.5C11.25 7.99245 11.1536 8.48058 10.9652 8.93555C10.9401 8.99618 10.9088 9.05387 10.8805 9.11296L12.5505 10.7829C13.0386 11.271 13.0386 12.0623 12.5505 12.5505C12.0623 13.0386 11.271 13.0386 10.7829 12.5505L9.11296 10.8805C9.05387 10.9088 8.99618 10.9401 8.93555 10.9652C8.48058 11.1536 7.99245 11.25 7.5 11.25C7.00755 11.25 6.51942 11.1536 6.06445 10.9652C5.60955 10.7767 5.19679 10.4995 4.84863 10.1514C4.50048 9.80321 4.22329 9.39045 4.03483 8.93555C3.84637 8.48057 3.75 7.99245 3.75 7.5C3.75 7.00755 3.84637 6.51943 4.03483 6.06445C4.22329 5.60954 4.50048 5.19679 4.84863 4.84863C5.19679 4.50048 5.60954 4.22329 6.06445 4.03483C6.51943 3.84637 7.00755 3.75 7.5 3.75ZM7.5 6.25C7.33589 6.25 7.1731 6.28162 7.02148 6.3444C6.86985 6.40721 6.73229 6.50013 6.61621 6.61621C6.50013 6.73229 6.40721 6.86985 6.3444 7.02148C6.28162 7.1731 6.25 7.33589 6.25 7.5C6.25 7.66411 6.28162 7.8269 6.3444 7.97852C6.40721 8.13015 6.50013 8.26771 6.61621 8.38379C6.73229 8.49987 6.86985 8.59279 7.02148 8.6556C7.1731 8.71838 7.3359 8.75 7.5 8.75C7.6641 8.75 7.8269 8.71838 7.97852 8.6556C8.13015 8.59279 8.26771 8.49987 8.38379 8.38379C8.49987 8.26771 8.59279 8.13015 8.6556 7.97852C8.71838 7.8269 8.75 7.6641 8.75 7.5C8.75 7.3359 8.71838 7.1731 8.6556 7.02148C8.59279 6.86985 8.49987 6.73229 8.38379 6.61621C8.26771 6.50013 8.13015 6.40721 7.97852 6.3444C7.8269 6.28162 7.66411 6.25 7.5 6.25Z" fill="#FAFAFA"/>
<path fill-rule="evenodd" clip-rule="evenodd" d="M32.5 3.75C33.4945 3.75 34.4481 4.14543 35.1514 4.84863C35.8545 5.55183 36.25 6.50537 36.25 7.5C36.25 8.49463 35.8545 9.44817 35.1514 10.1514C34.4481 10.8546 33.4945 11.25 32.5 11.25C31.9351 11.25 31.3855 11.118 30.8854 10.8789L30.8838 10.8838L29.2171 12.5505C28.729 13.0386 27.9377 13.0386 27.4495 12.5505C26.9614 12.0623 26.9614 11.271 27.4495 10.7829L29.1162 9.11621L29.1195 9.11133C28.8814 8.61212 28.75 8.06369 28.75 7.5C28.75 6.50537 29.1455 5.55183 29.8486 4.84863C30.5519 4.14543 31.5055 3.75 32.5 3.75ZM32.5 6.25C32.1686 6.25 31.8507 6.38176 31.6162 6.61621C31.3818 6.8507 31.25 7.16857 31.25 7.5C31.25 7.83143 31.3818 8.1493 31.6162 8.38379C31.8507 8.61824 32.1686 8.75 32.5 8.75C32.8314 8.75 33.1493 8.61824 33.3838 8.38379C33.6182 8.1493 33.75 7.83143 33.75 7.5C33.75 7.16857 33.6182 6.8507 33.3838 6.61621C33.1493 6.38176 32.8314 6.25 32.5 6.25Z" fill="#FAFAFA"/>
</svg>
