<svg width="40" height="40" viewBox="0 0 40 40" fill="none" xmlns="http://www.w3.org/2000/svg">
<path d="M20 23.751C20.9205 23.751 21.667 24.4975 21.667 25.418C21.6668 26.3383 20.9204 27.084 20 27.084C19.0797 27.0839 18.3342 26.3382 18.334 25.418C18.334 24.4975 19.0796 23.7511 20 23.751Z" fill="#FAFAFA"/>
<path d="M20 12.916C20.6904 12.916 21.25 13.4776 21.25 14.168V20.834C21.2496 21.524 20.6901 22.084 20 22.084C19.31 22.0839 18.7504 21.5239 18.75 20.834V14.168C18.75 13.4777 19.3097 12.9161 20 12.916Z" fill="#FAFAFA"/>
<path fill-rule="evenodd" clip-rule="evenodd" d="M30.833 3.33301C33.1341 3.33301 34.9999 5.19889 35 7.5V19.3262C35 29.9892 24.8065 34.8566 21.2256 36.2373L20.9258 36.3369C20.2188 36.5345 19.4754 36.4851 18.7891 36.1963C15.2214 34.695 5 29.5058 5 19.3262V7.5C5.00009 5.19889 6.86586 3.33301 9.16699 3.33301H30.833ZM9.16699 5.83398C8.24657 5.83398 7.50009 6.5796 7.5 7.5V19.3262C7.5 23.4896 9.56762 26.712 12.248 29.1748C14.9489 31.6562 18.1013 33.1961 19.7588 33.8936C19.9525 33.9749 20.1423 33.9765 20.3271 33.9053C21.9787 33.2685 25.1025 31.8417 27.7754 29.4131C30.4111 27.0182 32.5 23.7612 32.5 19.3262V7.5C32.4999 6.57961 31.7534 5.83399 30.833 5.83398H9.16699Z" fill="#FAFAFA"/>
</svg>
