<svg width="40" height="40" viewBox="0 0 40 40" fill="none" xmlns="http://www.w3.org/2000/svg">
<path fill-rule="evenodd" clip-rule="evenodd" d="M19.4163 14.8356C19.5714 14.8278 19.7273 14.8447 19.877 14.8861L20.0967 14.9674L20.1064 14.9723C21.4422 15.6045 22.5746 16.5999 23.373 17.8434C24.1713 19.0872 24.6044 20.5307 24.623 22.0085L24.6247 22.0231C24.6245 23.2989 24.1173 24.5243 23.2152 25.4264C22.3131 26.3283 21.089 26.8341 19.8135 26.8343C18.5378 26.8342 17.3123 26.3284 16.4102 25.4264C15.5646 24.5807 15.0663 23.4512 15.0072 22.2624L15.0007 22.0231C14.9905 21.163 15.2312 20.3178 15.6924 19.5915C16.1486 18.8733 16.8025 18.3016 17.5739 17.9443C17.5772 17.9427 17.5803 17.9396 17.5837 17.9378C17.5944 17.9329 17.607 17.9281 17.6178 17.9232C17.7921 17.843 17.9808 17.798 18.1729 17.7913L18.3291 17.7946C18.412 17.8007 18.4944 17.8151 18.5749 17.8353C18.5109 17.5608 18.4086 17.2956 18.2591 17.054C18.0969 16.7935 18.0203 16.4865 18.0426 16.18L18.0785 15.9489C18.1325 15.7223 18.2398 15.5095 18.3942 15.332L18.5618 15.1693C18.741 15.0204 18.9553 14.916 19.1852 14.8665L19.4163 14.8356ZM20.9382 18.4082C20.941 19.2154 20.7467 20.012 20.3669 20.7259C20.2122 21.0164 19.9384 21.2278 19.6182 21.3037C19.2979 21.3792 18.9587 21.3119 18.6904 21.1214C18.4125 20.9239 18.1666 20.6876 17.9564 20.4232C17.8325 20.5419 17.7189 20.674 17.626 20.8203C17.4018 21.1737 17.2859 21.5851 17.2923 22.0036V22.0231C17.2924 22.691 17.5576 23.3329 18.0296 23.8053C18.5022 24.2779 19.1452 24.5426 19.8135 24.5426C20.4815 24.5424 21.1233 24.2777 21.5957 23.8053C22.0678 23.3329 22.3313 22.691 22.3314 22.0231C22.3156 20.9791 22.0101 19.9592 21.446 19.0804C21.2935 18.843 21.123 18.6185 20.9382 18.4082Z" fill="#FAFAFA"/>
<path d="M9.11686 18.2829C9.60502 17.7947 10.3963 17.7947 10.8844 18.2829C11.2365 18.6349 11.3315 19.1434 11.1758 19.5833H12.5007C13.191 19.5833 13.7507 20.143 13.7507 20.8333C13.7507 21.5237 13.191 22.0833 12.5007 22.0833H11.1758C11.3315 22.5233 11.2365 23.0318 10.8844 23.3838C10.3963 23.8719 9.60502 23.8719 9.11686 23.3838L7.4502 21.7171C7.4423 21.7092 7.4367 21.6992 7.42904 21.6911C7.32266 21.5789 7.23428 21.4493 7.17513 21.3037C7.14432 21.2278 7.12222 21.1485 7.10677 21.0677C7.09235 20.9917 7.08398 20.9135 7.08398 20.8333C7.08398 20.6999 7.11036 20.5731 7.14909 20.4525C7.16003 20.4185 7.16621 20.3829 7.18001 20.3499C7.24331 20.199 7.33622 20.0635 7.4502 19.9495L9.11686 18.2829Z" fill="#FAFAFA"/>
<path d="M27.9499 18.2829C28.438 17.7948 29.2293 17.7949 29.7174 18.2829C30.0695 18.6349 30.1645 19.1434 30.0088 19.5833H31.3337C32.024 19.5833 32.5837 20.143 32.5837 20.8333C32.5837 21.5237 32.024 22.0833 31.3337 22.0833H30.0088C30.1645 22.5233 30.0695 23.0317 29.7174 23.3838C29.2293 23.8717 28.438 23.8719 27.9499 23.3838L26.2832 21.7171C26.2753 21.7092 26.2697 21.6992 26.262 21.6911C26.1559 21.579 26.0689 21.449 26.0098 21.3037C25.9789 21.2277 25.9553 21.1487 25.9398 21.0677C25.9254 20.9918 25.917 20.9135 25.917 20.8333C25.917 20.7184 25.9384 20.6086 25.9674 20.5029C25.9817 20.4513 25.994 20.3992 26.0146 20.3499C26.0343 20.3031 26.0612 20.2602 26.0863 20.2165C26.1304 20.1391 26.1821 20.067 26.2425 20C26.257 19.984 26.2679 19.9648 26.2832 19.9495L27.9499 18.2829Z" fill="#FAFAFA"/>
<path fill-rule="evenodd" clip-rule="evenodd" d="M25.0007 3.75C25.691 3.75 26.2507 4.30964 26.2507 5C26.2507 5.69036 25.691 6.25 25.0007 6.25H21.2507V10H26.6673L27.1816 10.013C32.4655 10.2807 36.6673 14.6496 36.6673 20V21.6667C36.6673 26.0513 33.8444 29.7737 29.9176 31.123V34.2497C29.9176 34.94 29.358 35.4997 28.6676 35.4997C27.9773 35.4997 27.4176 34.94 27.4176 34.2497V31.6341C27.3391 31.6399 27.2607 31.6496 27.1816 31.6536L26.6673 31.6667H13.334C13.0643 31.6667 12.7975 31.6518 12.5332 31.6309V34.2497C12.5332 34.94 11.9736 35.4997 11.2832 35.4997C10.5928 35.4997 10.0332 34.94 10.0332 34.2497V31.1068C6.28673 29.7969 3.55682 26.3223 3.34701 22.181L3.33398 21.6667V20C3.33398 14.4772 7.81114 10 13.334 10H18.7507V6.25H15.0007C14.3103 6.25 13.7507 5.69036 13.7507 5C13.7507 4.30964 14.3103 3.75 15.0007 3.75H25.0007ZM13.334 12.5C9.19185 12.5 5.83398 15.8579 5.83398 20V21.6667C5.83398 25.8088 9.19185 29.1667 13.334 29.1667H26.6673C30.8095 29.1667 34.1673 25.8088 34.1673 21.6667V20C34.1673 15.8579 30.8095 12.5 26.6673 12.5H13.334Z" fill="#FAFAFA"/>
</svg>
