<svg width="40" height="40" viewBox="0 0 40 40" fill="none" xmlns="http://www.w3.org/2000/svg">
<path fill-rule="evenodd" clip-rule="evenodd" d="M22.6943 4.5332C23.3843 4.53364 23.9443 5.09475 23.9443 5.78483C23.9439 6.47454 23.384 7.03439 22.6943 7.03483H19.1331V10.9525H26.1758C28.0698 10.9525 29.6051 12.4878 29.6051 14.3818V16.9779H34.1673C34.8576 16.9779 35.4172 17.5376 35.4173 18.2279V22.1602C35.4167 22.8499 34.8573 23.4102 34.1673 23.4102H29.6051V26.0062C29.6045 27.8997 28.0695 29.4355 26.1758 29.4355H22.7806V32.7721C22.7806 32.8386 22.7743 32.9038 22.7643 32.9674H32.5007C33.191 32.9674 33.7507 33.5271 33.7507 34.2174C33.7502 34.9074 33.1907 35.4674 32.5007 35.4674H5.83398C5.1439 35.4674 4.58442 34.9074 4.58398 34.2174C4.58398 33.5271 5.14363 32.9674 5.83398 32.9674H13.5016C13.4916 32.9038 13.487 32.8386 13.487 32.7721V29.4355H11.6462C7.74621 29.4355 4.58442 26.2732 4.58398 22.3734V18.0146C4.58398 14.1144 7.74594 10.9525 11.6462 10.9525H16.6331V7.03483H13.0703C12.3802 7.03483 11.8208 6.47481 11.8203 5.78483C11.8203 5.09447 12.38 4.5332 13.0703 4.5332H22.6943ZM15.987 32.7721C15.987 32.8386 15.9807 32.9038 15.9707 32.9674H16.9066V29.4355H15.987V32.7721ZM19.4066 32.9674H20.2969C20.2869 32.9038 20.2806 32.8386 20.2806 32.7721V29.4355H19.4066V32.9674ZM11.6462 13.4525C9.12665 13.4525 7.08398 15.4951 7.08398 18.0146V22.3734C7.08442 24.8925 9.12693 26.9355 11.6462 26.9355H16.9066V20.3079C16.9066 19.6176 17.4662 19.0579 18.1566 19.0579H22.0531L21.8691 18.8773C21.376 18.3945 21.3757 17.6118 21.8691 17.1292C22.3626 16.6471 23.1628 16.6471 23.6562 17.1292L26.0114 19.4339C26.5047 19.9166 26.5049 20.6993 26.0114 21.182L23.6562 23.485C23.1627 23.9676 22.3627 23.9676 21.8691 23.485C21.376 23.0023 21.3757 22.2196 21.8691 21.737L22.0531 21.5579H19.4066V26.9355H26.1758C26.6888 26.9355 27.1045 26.519 27.1051 26.0062V22.1602C27.1051 21.4699 27.6649 20.9103 28.3551 20.9102H32.9173V19.4779H28.3551C27.6652 19.4778 27.1056 18.9178 27.1051 18.2279V14.3818C27.1051 13.8686 26.6891 13.4525 26.1758 13.4525H11.6462Z" fill="#FAFAFA"/>
</svg>
