<svg width="40" height="40" viewBox="0 0 40 40" fill="none" xmlns="http://www.w3.org/2000/svg">
<path fill-rule="evenodd" clip-rule="evenodd" d="M18.7582 3.78364C19.5701 3.55519 20.43 3.55519 21.2419 3.78364C21.7649 3.93088 22.2139 4.18515 22.6579 4.49653C23.0806 4.79299 23.5621 5.18732 24.1342 5.65539L32.5863 12.5694C32.6222 12.5988 32.657 12.6287 32.6921 12.6573C33.3065 13.1594 33.7912 13.5542 34.1488 14.0555C34.4637 14.497 34.6966 14.9921 34.8389 15.5154C35.0004 16.1096 35.0006 16.7337 35.0001 17.5271V29.8562C35.0001 30.7461 35.0008 31.489 34.9512 32.0958C34.8995 32.729 34.7868 33.3241 34.5004 33.8862C34.0611 34.748 33.3603 35.4488 32.4984 35.8881C31.9363 36.1745 31.3412 36.2873 30.7081 36.339C30.101 36.3886 29.3571 36.3878 28.4668 36.3878H11.5333C10.643 36.3878 9.89909 36.3886 9.29205 36.339C8.65915 36.2872 8.06522 36.1744 7.50331 35.8881C6.64108 35.4488 5.93916 34.7483 5.49973 33.8862C5.21333 33.3241 5.10224 32.7289 5.05051 32.0958C5.00091 31.4888 5.00004 30.7449 5.00005 29.8546V17.5271C4.99953 16.7337 4.99969 16.1096 5.16119 15.5154C5.30349 14.9921 5.5364 14.497 5.85129 14.0555C6.20889 13.5541 6.69353 13.1594 7.308 12.6573L15.8659 5.65539C16.438 5.1873 16.9195 4.79301 17.3422 4.49653C17.7861 4.18517 18.2353 3.93091 18.7582 3.78364ZM20.5648 6.18924C20.1958 6.0854 19.8043 6.0854 19.4353 6.18924C19.289 6.23047 19.1022 6.31652 18.7777 6.54406C18.4401 6.78091 18.0294 7.11461 17.4138 7.61828L8.99745 14.5047C8.22632 15.1356 8.02626 15.3128 7.88742 15.5073C7.74429 15.708 7.63798 15.9335 7.5733 16.1713C7.51064 16.402 7.50005 16.6689 7.50005 17.6655V29.8041C7.50005 30.7582 7.50045 31.3992 7.54074 31.8924C7.57984 32.3708 7.65103 32.5992 7.72792 32.7501C7.92765 33.1421 8.24575 33.4618 8.63775 33.6616C8.78863 33.7384 9.01756 33.808 9.4955 33.8471C9.98863 33.8874 10.6297 33.8878 11.5837 33.8878H28.4164C29.3704 33.8878 30.0115 33.8874 30.5046 33.8471C30.9825 33.8081 31.2114 33.7384 31.3624 33.6616C31.7544 33.4618 32.0741 33.1421 32.2738 32.7501C32.3506 32.5992 32.4203 32.3702 32.4594 31.8924C32.4997 31.3992 32.5001 30.7582 32.5001 29.8041V17.6655C32.5001 16.6688 32.4895 16.402 32.4268 16.1713C32.3621 15.9335 32.2558 15.708 32.1127 15.5073C31.9739 15.3128 31.7736 15.1354 31.0027 14.5047L22.5863 7.61828C21.9706 7.1145 21.5601 6.78092 21.2224 6.54406C20.8977 6.31636 20.7111 6.23044 20.5648 6.18924Z" fill="#FAFAFA"/>
<path d="M15.5841 29.4146C14.982 29.0253 14.8187 28.2367 15.2204 27.6532C15.6223 27.0701 16.4366 26.9137 17.039 27.3025L17.7938 27.7888C18.1713 28.0323 18.6794 27.9483 18.9515 27.5969L19.1701 27.3406C20.2389 26.2098 21.9709 25.9225 23.3674 26.6443L23.6611 26.8146L24.4158 27.3009L24.5234 27.3786C25.0368 27.788 25.1563 28.5166 24.7796 29.064C24.3777 29.6471 23.5634 29.8049 22.961 29.4163L22.2062 28.9283C21.8759 28.7158 21.4456 28.7531 21.1611 29.0011L21.0484 29.1202C19.9411 30.5501 17.8746 30.8935 16.3389 29.9025L15.5841 29.4146Z" fill="#FAFAFA"/>
<path d="M15.4765 23.1145C14.9634 22.7051 14.8437 21.9765 15.2204 21.4292C15.597 20.8827 16.3358 20.7104 16.9229 21.0107L17.039 21.0769L17.7938 21.5648C18.1712 21.808 18.6795 21.7242 18.9515 21.3729L19.1701 21.1166C20.3152 19.905 22.2216 19.6619 23.6611 20.5906L24.4158 21.0769C25.0183 21.4659 25.1808 22.2547 24.7796 22.8383C24.3778 23.422 23.5636 23.5797 22.961 23.1906L22.2062 22.7043C21.8759 22.4918 21.4456 22.5291 21.1611 22.7771L21.0484 22.8962C19.941 24.3264 17.873 24.6703 16.3372 23.6785L15.5841 23.1906L15.4765 23.1145Z" fill="#FAFAFA"/>
<path d="M15.5841 16.9666C14.982 16.5773 14.8188 15.7887 15.2204 15.2052C15.6222 14.6222 16.4366 14.4644 17.039 14.8529L17.7938 15.3408C18.1712 15.584 18.6795 15.5002 18.9515 15.1489L19.1701 14.8926C20.3152 13.681 22.2216 13.4379 23.6611 14.3666L24.4158 14.8529C25.0183 15.2419 25.1808 16.0307 24.7796 16.6143C24.3778 17.198 23.5636 17.3557 22.961 16.9666L22.2062 16.4803C21.8759 16.2678 21.4456 16.3051 21.1611 16.5531L21.0484 16.6722C19.941 18.1024 17.873 18.4463 16.3372 17.4545L15.5841 16.9666Z" fill="#FAFAFA"/>
</svg>
