<svg width="40" height="40" viewBox="0 0 40 40" fill="none" xmlns="http://www.w3.org/2000/svg">
<path d="M23.4606 10.4231C24.0906 10.4875 24.582 11.0196 24.582 11.6666C24.582 12.3135 24.0906 12.8457 23.4606 12.9101L23.332 12.9166H16.6654C15.975 12.9166 15.4154 12.3569 15.4154 11.6666C15.4154 10.9762 15.975 10.4166 16.6654 10.4166H23.332L23.4606 10.4231Z" fill="#FAFAFA"/>
<path fill-rule="evenodd" clip-rule="evenodd" d="M31.9225 3.33976C34.5644 3.47361 36.6654 5.65808 36.6654 8.33325V31.6666L36.6589 31.9237C36.5293 34.4805 34.4793 36.5305 31.9225 36.6601L31.6654 36.6666H8.33203L8.07487 36.6601C5.51813 36.5305 3.46807 34.4805 3.33854 31.9237L3.33203 31.6666V8.33325C3.33203 5.65808 5.43296 3.47361 8.07487 3.33976L8.33203 3.33325H31.6654L31.9225 3.33976ZM8.33203 5.83325C6.95132 5.83325 5.83203 6.95254 5.83203 8.33325V31.6666C5.83203 33.0473 6.95132 34.1666 8.33203 34.1666H10.4154V19.2594C10.4154 18.6319 10.6971 18.0644 11.1396 17.6708L11.3105 17.5325C11.7198 17.2342 12.2144 17.0833 12.707 17.0833H27.2904C27.8534 17.0833 28.4181 17.2816 28.8561 17.6708L28.8577 17.6692C29.3009 18.0629 29.582 18.6317 29.582 19.2594V34.1666H31.6654C33.0461 34.1666 34.1654 33.0473 34.1654 31.6666V8.33325C34.1654 6.95254 33.0461 5.83325 31.6654 5.83325H8.33203ZM12.9154 34.1666H18.7487V19.5833H12.9154V34.1666ZM21.2487 34.1666H27.082V19.5833H21.2487V34.1666Z" fill="#FAFAFA"/>
</svg>
