<svg width="40" height="40" viewBox="0 0 40 40" fill="none" xmlns="http://www.w3.org/2000/svg">
<path fill-rule="evenodd" clip-rule="evenodd" d="M11.5326 35L28.4674 35C29.3577 35 30.1007 35 30.7078 34.9504C31.3409 34.8987 31.9354 34.7869 32.4975 34.5004C33.3599 34.061 34.061 33.3599 34.5004 32.4975C34.7869 31.9353 34.8987 31.3409 34.9504 30.7078C35 30.1007 35 29.3577 35 28.4674V24.5833C35 23.893 34.4404 23.3333 33.75 23.3333C33.0596 23.3333 32.5 23.893 32.5 24.5833V28.4167C32.5 29.3707 32.499 30.0111 32.4587 30.5042C32.4196 30.9827 32.3498 31.2115 32.2729 31.3625C32.0732 31.7545 31.7545 32.0732 31.3625 32.2729C31.2115 32.3498 30.9827 32.4196 30.5042 32.4587C30.0111 32.499 29.3707 32.5 28.4167 32.5L11.5833 32.5C10.6293 32.5 9.98893 32.499 9.4958 32.4587C9.01726 32.4196 8.78846 32.3498 8.63752 32.2729C8.24552 32.0732 7.92681 31.7545 7.72707 31.3625C7.65017 31.2115 7.58036 30.9827 7.54126 30.5042C7.50097 30.0111 7.5 29.3707 7.5 28.4167L7.5 11.5833C7.5 10.6293 7.50097 9.98893 7.54126 9.49579C7.58036 9.01726 7.65017 8.78845 7.72707 8.63752C7.9268 8.24552 8.24552 7.92681 8.63752 7.72707C8.78846 7.65016 9.01726 7.58036 9.4958 7.54126C9.98893 7.50097 10.6293 7.5 11.5833 7.5H15.4167C16.107 7.5 16.6667 6.94036 16.6667 6.25C16.6667 5.55964 16.107 5 15.4167 5H11.5326C10.6423 4.99998 9.89927 4.99997 9.29222 5.04957C8.65908 5.1013 8.06465 5.21315 7.50255 5.49955C6.64013 5.93897 5.93897 6.64014 5.49956 7.50254C5.21315 8.06465 5.1013 8.65907 5.04957 9.29222C4.99997 9.89927 4.99998 10.6423 5 11.5326L5 28.4674C4.99998 29.3576 4.99997 30.1007 5.04957 30.7078C5.1013 31.3409 5.21315 31.9354 5.49956 32.4975C5.93897 33.3599 6.64014 34.061 7.50255 34.5004C8.06465 34.7869 8.65908 34.8987 9.29222 34.9504C9.89927 35 10.6424 35 11.5326 35ZM17.4495 22.5505C17.9376 23.0387 18.7291 23.0387 19.2172 22.5505L32.5 9.26777V17.0833C32.5 17.7737 33.0596 18.3333 33.75 18.3333C34.4404 18.3333 35 17.7737 35 17.0833V6.25C35 5.55964 34.4404 5 33.75 5H22.9167C22.2263 5 21.6667 5.55964 21.6667 6.25C21.6667 6.94036 22.2263 7.5 22.9167 7.5H30.7322L17.4495 20.7828C16.9613 21.2709 16.9613 22.0624 17.4495 22.5505Z" fill="#FAFAFA"/>
</svg>
