<svg width="40" height="40" viewBox="0 0 40 40" fill="none" xmlns="http://www.w3.org/2000/svg">
<path fill-rule="evenodd" clip-rule="evenodd" d="M21.7406 3.33325C23.3782 3.33325 24.8125 4.4326 25.2383 6.01392L32.818 34.1666H35.4173L35.5459 34.1731C36.1758 34.2375 36.6673 34.7696 36.6673 35.4166C36.6673 36.0635 36.1758 36.5957 35.5459 36.6601L35.4173 36.6666H4.58398C3.89363 36.6666 3.33398 36.1069 3.33398 35.4166C3.33398 34.7262 3.89363 34.1666 4.58398 34.1666H7.18327L14.763 6.01392C15.1887 4.43269 16.6233 3.33342 18.2607 3.33325H21.7406ZM11.6559 27.1793L9.77441 34.1666H30.2285L28.347 27.1793H11.6559ZM12.3281 24.6793H27.6748L25.1553 15.3206H14.8477L12.3281 24.6793ZM18.2607 5.83325C17.7537 5.83342 17.3103 6.1738 17.1784 6.66333L15.5215 12.8206H24.4814L22.8245 6.66333C22.6927 6.17357 22.2478 5.83325 21.7406 5.83325H18.2607Z" fill="#FAFAFA"/>
</svg>
