<svg width="40" height="40" viewBox="0 0 40 40" fill="none" xmlns="http://www.w3.org/2000/svg">
<path fill-rule="evenodd" clip-rule="evenodd" d="M3.33398 10.4167C3.33398 7.42512 5.75911 5 8.75065 5H12.9173V10H17.9173C18.6077 10 19.1673 10.5596 19.1673 11.25C19.1673 11.9404 18.6077 12.5 17.9173 12.5H12.9173V25.4167C12.9173 26.107 12.3577 26.6667 11.6673 26.6667H8.75065C7.13982 26.6667 5.83398 27.9725 5.83398 29.5833C5.83398 31.1942 7.13982 32.5 8.75065 32.5H30.4173C31.5679 32.5 32.5007 31.5673 32.5007 30.4167V21.25C32.5007 20.5596 33.0603 20 33.7507 20C34.441 20 35.0007 20.5596 35.0007 21.25V30.4167C35.0007 32.948 32.9486 35 30.4173 35H8.75065C5.75911 35 3.33398 32.5749 3.33398 29.5833V10.4167ZM5.83398 25.0182C6.6759 24.4792 7.67678 24.1667 8.75065 24.1667H10.4173V7.5H8.75065C7.13982 7.5 5.83398 8.80584 5.83398 10.4167V25.0182ZM28.334 7.5C26.0197 7.5 24.1673 9.35182 24.1673 11.6071C24.1673 13.3157 25.2112 14.7897 26.4652 15.9266C27.0753 16.4797 27.6907 16.9114 28.1553 17.205C28.218 17.2446 28.2777 17.2815 28.334 17.3158C28.3903 17.2815 28.45 17.2446 28.5126 17.205C28.9773 16.9114 29.5927 16.4797 30.2027 15.9266C31.4568 14.7897 32.5007 13.3157 32.5007 11.6071C32.5007 9.35182 30.6482 7.5 28.334 7.5ZM28.334 18.75C27.7799 19.8705 27.7795 19.8703 27.7791 19.8701L27.776 19.8685L27.7701 19.8656L27.7525 19.8567L27.6947 19.827C27.6466 19.8018 27.5794 19.7661 27.496 19.7199C27.3293 19.6277 27.0967 19.4933 26.8199 19.3184C26.2689 18.9703 25.5302 18.4534 24.7861 17.7788C23.3318 16.4603 21.6673 14.3629 21.6673 11.6071C21.6673 7.94513 24.6651 5 28.334 5C32.0028 5 35.0007 7.94513 35.0007 11.6071C35.0007 14.3629 33.3362 16.4603 31.8819 17.7788C31.1378 18.4534 30.399 18.9703 29.848 19.3184C29.5713 19.4933 29.3386 19.6277 29.172 19.7199C29.0885 19.7661 29.0214 19.8018 28.9732 19.827L28.9155 19.8567L28.8979 19.8656L28.892 19.8685L28.8898 19.8696C28.8894 19.8698 28.8881 19.8705 28.334 18.75ZM28.334 18.75L28.8881 19.8705C28.5389 20.0432 28.1283 20.0428 27.7791 19.8701L28.334 18.75Z" fill="#FAFAFA"/>
</svg>
