<svg width="40" height="40" viewBox="0 0 40 40" fill="none" xmlns="http://www.w3.org/2000/svg">
<path fill-rule="evenodd" clip-rule="evenodd" d="M27.8151 15.3011C28.5055 15.3011 29.0651 15.8608 29.0651 16.5511V23.9632H32.0827V23.5286C32.0831 22.8386 32.6426 22.2786 33.3327 22.2786C34.0228 22.2786 34.5823 22.8386 34.5827 23.5286V35C34.5827 35.6904 34.023 36.25 33.3327 36.25C32.6423 36.25 32.0827 35.6904 32.0827 35V34.165H16.2493V35C16.2493 35.6904 15.6897 36.25 14.9993 36.25C14.309 36.25 13.7493 35.6904 13.7493 35V34.165H7.91602V35C7.91602 35.6904 7.35637 36.25 6.66602 36.25C5.97566 36.25 5.41602 35.6904 5.41602 35V23.5286C5.41643 22.8386 5.97592 22.2786 6.66602 22.2786C7.35612 22.2786 7.9156 22.8386 7.91602 23.5286V23.9632H13.7493V23.3333C13.7493 22.643 14.309 22.0833 14.9993 22.0833C15.6897 22.0833 16.2493 22.643 16.2493 23.3333V23.9632H20.1279V16.5511C20.1279 15.861 20.6879 15.3015 21.3779 15.3011H27.8151ZM7.91602 26.4632V31.665H13.7493V26.4632H7.91602ZM22.6279 17.8011V25.2132C22.6279 25.9036 22.0683 26.4632 21.3779 26.4632H16.2493V31.665H32.0827V26.4632H27.8151C27.1249 26.463 26.5651 25.9035 26.5651 25.2132V17.8011H22.6279Z" fill="#FAFAFA"/>
<path d="M30.1719 3.75C30.8622 3.75006 31.4219 4.30968 31.4219 5C31.4219 5.69032 30.8622 6.24994 30.1719 6.25H25.8473V11.7383C25.8472 12.4284 25.2875 12.9881 24.5973 12.9883C23.9071 12.9883 23.3475 12.4285 23.3473 11.7383V6.25H19.0228L18.8942 6.24349C18.264 6.17932 17.7728 5.6471 17.7728 5C17.7728 4.3529 18.264 3.82068 18.8942 3.75651L19.0228 3.75H30.1719Z" fill="#FAFAFA"/>
</svg>
