<svg width="40" height="40" viewBox="0 0 40 40" fill="none" xmlns="http://www.w3.org/2000/svg">
<path fill-rule="evenodd" clip-rule="evenodd" d="M8.67383 25.0176C10.3547 25.1881 11.6668 26.6072 11.667 28.333V31.667L11.6484 32.0068C11.4893 33.576 10.2429 34.8232 8.67383 34.9824L8.33301 35H5L4.66016 34.9824C3.0909 34.8233 1.84367 33.5761 1.68457 32.0068L1.66699 31.667V28.333C1.66716 26.6071 2.97914 25.188 4.66016 25.0176L5 25H8.33301L8.67383 25.0176ZM5 27.5C4.53987 27.5 4.16717 27.8729 4.16699 28.333V31.667C4.16717 32.1271 4.53987 32.5 5 32.5H8.33301C8.79314 32.5 9.16682 32.1271 9.16699 31.667V28.333C9.16682 27.8729 8.79314 27.5 8.33301 27.5H5Z" fill="#FAFAFA"/>
<path fill-rule="evenodd" clip-rule="evenodd" d="M22.0068 25.0176C23.6879 25.188 24.9998 26.6071 25 28.333V31.667L24.9824 32.0068C24.8233 33.5761 23.5761 34.8233 22.0068 34.9824L21.667 35H18.333L17.9932 34.9824C16.4239 34.8233 15.1767 33.5761 15.0176 32.0068L15 31.667V28.333C15.0002 26.6071 16.3121 25.188 17.9932 25.0176L18.333 25H21.667L22.0068 25.0176ZM18.333 27.5C17.873 27.5002 17.5002 27.873 17.5 28.333V31.667C17.5002 32.127 17.873 32.4998 18.333 32.5H21.667C22.127 32.4998 22.4998 32.127 22.5 31.667V28.333C22.4998 27.873 22.127 27.5002 21.667 27.5H18.333Z" fill="#FAFAFA"/>
<path fill-rule="evenodd" clip-rule="evenodd" d="M35.3398 25.0176C37.0209 25.188 38.3328 26.6071 38.333 28.333V31.667L38.3154 32.0068C38.1563 33.5761 36.9091 34.8233 35.3398 34.9824L35 35H31.667L31.3262 34.9824C29.7571 34.8232 28.5107 33.576 28.3516 32.0068L28.333 31.667V28.333C28.3332 26.6072 29.6453 25.1881 31.3262 25.0176L31.667 25H35L35.3398 25.0176ZM31.667 27.5C31.2069 27.5 30.8332 27.8729 30.833 28.333V31.667C30.8332 32.1271 31.2069 32.5 31.667 32.5H35C35.4601 32.5 35.8328 32.1271 35.833 31.667V28.333C35.8328 27.8729 35.4601 27.5 35 27.5H31.667Z" fill="#FAFAFA"/>
<path fill-rule="evenodd" clip-rule="evenodd" d="M22.0068 5.01758C23.6879 5.188 24.9998 6.60707 25 8.33301V11.667L24.9824 12.0068C24.8233 13.5761 23.5761 14.8233 22.0068 14.9824L21.667 15H21.25V17.083H32.2578C32.7195 17.0832 33.1995 17.2056 33.6113 17.4678L33.7822 17.5898L33.9482 17.7295C34.3186 18.0804 34.583 18.5799 34.583 19.167V21.667C34.5828 22.3572 34.0233 22.917 33.333 22.917C32.6429 22.9168 32.0832 22.3571 32.083 21.667V19.583H21.25V21.667C21.2498 22.3572 20.6902 22.917 20 22.917C19.3098 22.917 18.7502 22.3572 18.75 21.667V19.583H7.91699V21.667L7.91016 21.7949C7.8458 22.4248 7.31379 22.9168 6.66699 22.917C6.02005 22.917 5.48722 22.4249 5.42285 21.7949L5.41699 21.667V19.167L5.43262 18.9209C5.50504 18.3602 5.82044 17.8974 6.21777 17.5898L6.38867 17.4678C6.80052 17.2056 7.28049 17.0832 7.74219 17.083H18.75V15H18.333L17.9932 14.9824C16.4239 14.8233 15.1767 13.5761 15.0176 12.0068L15 11.667V8.33301C15.0002 6.60707 16.3121 5.18801 17.9932 5.01758L18.333 5H21.667L22.0068 5.01758ZM18.333 7.5C17.873 7.50018 17.5002 7.87303 17.5 8.33301V11.667C17.5002 12.127 17.873 12.4998 18.333 12.5H21.667C22.127 12.4998 22.4998 12.127 22.5 11.667V8.33301C22.4998 7.87303 22.127 7.50018 21.667 7.5H18.333Z" fill="#FAFAFA"/>
</svg>
