<svg width="40" height="40" viewBox="0 0 40 40" fill="none" xmlns="http://www.w3.org/2000/svg">
<path fill-rule="evenodd" clip-rule="evenodd" d="M20.0007 5.8335C12.1766 5.8335 5.83398 12.1761 5.83398 20.0002C5.83398 27.8242 12.1766 34.1668 20.0007 34.1668C27.8247 34.1668 34.1673 27.8242 34.1673 20.0002C34.1673 12.1761 27.8247 5.8335 20.0007 5.8335ZM3.33398 20.0002C3.33398 10.7954 10.7959 3.3335 20.0007 3.3335C29.2054 3.3335 36.6673 10.7954 36.6673 20.0002C36.6673 29.2049 29.2054 36.6668 20.0007 36.6668C10.7959 36.6668 3.33398 29.2049 3.33398 20.0002ZM27.5512 12.4496C28.0394 12.9378 28.0394 13.7292 27.5512 14.2174L14.2179 27.5507C13.7297 28.0389 12.9383 28.0389 12.4501 27.5507C11.9619 27.0626 11.9619 26.2711 12.4501 25.7829L25.7834 12.4496C26.2716 11.9615 27.063 11.9615 27.5512 12.4496Z" fill="#FAFAFA"/>
<path d="M14.999 13.9165C15.5972 13.9165 16.0828 14.4014 16.083 14.9995C16.083 15.5978 15.5973 16.0835 14.999 16.0835C14.4009 16.0833 13.916 15.5977 13.916 14.9995C13.9162 14.4015 14.401 13.9167 14.999 13.9165Z" fill="#FAFAFA" stroke="#FAFAFA" stroke-width="0.5" stroke-linecap="round" stroke-linejoin="round"/>
<path d="M24.999 23.9165C25.5972 23.9165 26.0828 24.4014 26.083 24.9995C26.083 25.5978 25.5973 26.0835 24.999 26.0835C24.4009 26.0833 23.916 25.5977 23.916 24.9995C23.9162 24.4015 24.401 23.9167 24.999 23.9165Z" fill="#FAFAFA" stroke="#FAFAFA" stroke-width="0.5" stroke-linecap="round" stroke-linejoin="round"/>
</svg>
