<svg width="40" height="40" viewBox="0 0 40 40" fill="none" xmlns="http://www.w3.org/2000/svg">
<path d="M33.6851 16.4686C33.8138 16.4686 33.9362 16.4943 34.053 16.5304C34.0903 16.5419 34.1289 16.5495 34.1653 16.5646C34.1886 16.5743 34.2094 16.5893 34.232 16.6004C34.3534 16.6596 34.4697 16.7356 34.5705 16.8364L37.9918 20.2576C38.4794 20.7458 38.4797 21.5372 37.9918 22.0252C37.5038 22.5128 36.7123 22.5127 36.2242 22.0252L34.9156 20.7166C34.7765 23.625 33.7927 26.4359 32.0722 28.7977C30.2104 31.353 27.585 33.2522 24.5754 34.2208C21.5656 35.1894 18.3253 35.1768 15.3225 34.1867C12.3196 33.1965 9.70831 31.2786 7.86481 28.7098C7.46305 28.1491 7.59109 27.3691 8.15127 26.9666C8.71202 26.5646 9.49361 26.6926 9.89606 27.2531C11.431 29.3918 13.6053 30.9876 16.1054 31.812C18.6056 32.6364 21.3028 32.6461 23.8088 31.8397C26.3147 31.0332 28.5005 29.4523 30.0507 27.3247C31.4503 25.4034 32.2643 23.1258 32.4091 20.7638L31.1493 22.0252C30.6613 22.513 29.8699 22.5128 29.3817 22.0252C28.8938 21.5371 28.8939 20.7458 29.3817 20.2576L32.7851 16.8527C32.8011 16.8361 32.8186 16.8212 32.8355 16.8055C32.8773 16.7666 32.9203 16.7302 32.9657 16.6981C32.9746 16.6918 32.9827 16.6846 32.9918 16.6785C33.0108 16.6658 33.0325 16.6575 33.052 16.646C33.1035 16.6155 33.1556 16.5859 33.2115 16.563C33.2304 16.5552 33.2509 16.5519 33.2701 16.5451C33.4004 16.499 33.5391 16.4686 33.6851 16.4686Z" fill="#FAFAFA"/>
<path fill-rule="evenodd" clip-rule="evenodd" d="M20.1435 11.9145C20.468 11.9485 20.71 12.0881 20.8075 12.1473C20.9599 12.2398 21.0977 12.3512 21.2128 12.4533C21.4464 12.6605 21.698 12.9307 21.9485 13.2313C22.4551 13.8392 23.0433 14.67 23.6021 15.6157C24.693 17.462 25.8122 19.9832 25.8124 22.2807C25.8123 23.8219 25.1996 25.3006 24.1099 26.3904C23.0201 27.4803 21.5415 28.0928 20.0002 28.0929C18.4589 28.0929 16.9805 27.4802 15.8905 26.3904C14.8008 25.3006 14.1881 23.8219 14.1881 22.2807C14.1883 19.9832 15.3075 17.462 16.3983 15.6157C16.9571 14.6701 17.5454 13.8392 18.052 13.2313C18.3025 12.9308 18.5541 12.6605 18.7877 12.4533C18.9027 12.3513 19.0407 12.2397 19.1929 12.1473C19.3048 12.0794 19.6044 11.9064 20.0002 11.9064L20.1435 11.9145ZM19.9726 14.8328C19.5629 15.3244 19.0499 16.0425 18.55 16.8885C17.5233 18.6263 16.6883 20.6691 16.6881 22.2807C16.6881 23.1589 17.0372 24.0019 17.6581 24.6229C18.2792 25.2438 19.122 25.5929 20.0002 25.5929C20.8785 25.5928 21.7213 25.2439 22.3424 24.6229C22.9631 24.0019 23.3123 23.1588 23.3124 22.2807C23.3122 20.6689 22.4756 18.6264 21.4488 16.8885C20.949 16.0426 20.4375 15.3245 20.0279 14.8328C20.0188 14.8219 20.0091 14.8108 20.0002 14.8003C19.9913 14.8109 19.9816 14.8219 19.9726 14.8328Z" fill="#FAFAFA"/>
<path d="M15.4202 5.78172C18.4283 4.81277 21.6662 4.82319 24.6682 5.81102C27.6706 6.79916 30.2827 8.71484 32.1275 11.2814C32.5302 11.8419 32.403 12.6233 31.8427 13.0262C31.2821 13.429 30.5008 13.3002 30.0979 12.7397C28.5619 10.6028 26.3867 9.00843 23.887 8.18569C21.3875 7.36317 18.6914 7.35452 16.1868 8.16128C13.6821 8.96822 11.4975 10.5493 9.94815 12.6763C8.54899 14.5972 7.73317 16.8754 7.58812 19.2371L8.85114 17.9757C9.33922 17.4879 10.1306 17.4879 10.6187 17.9757C11.1068 18.4638 11.1067 19.2552 10.6187 19.7433L7.1975 23.1645C7.14442 23.2176 7.08606 23.263 7.0266 23.3045C6.95305 23.3558 6.87453 23.4 6.7906 23.4347C6.73716 23.4568 6.68166 23.4708 6.62621 23.4852C6.60433 23.4908 6.58343 23.5002 6.5611 23.5047C6.55138 23.5067 6.54156 23.5079 6.53181 23.5096C6.46086 23.5221 6.38824 23.5307 6.31371 23.5307C6.23812 23.5307 6.16425 23.5224 6.09235 23.5096C6.08313 23.5079 6.07388 23.5066 6.06468 23.5047C6.04237 23.5002 6.02145 23.4909 5.99958 23.4852C5.94416 23.4708 5.88859 23.4568 5.83519 23.4347C5.78662 23.4146 5.7421 23.3874 5.69685 23.3615C5.60235 23.3075 5.51059 23.2452 5.42992 23.1645L2.00869 19.7433C1.52054 19.2552 1.52054 18.4639 2.00869 17.9757C2.49687 17.4878 3.28818 17.4876 3.77627 17.9757L5.08161 19.2811C5.22141 16.3744 6.20727 13.5656 7.92666 11.2049C9.78757 8.65 12.4117 6.75098 15.4202 5.78172Z" fill="#FAFAFA"/>
</svg>
