<svg width="40" height="40" viewBox="0 0 40 40" fill="none" xmlns="http://www.w3.org/2000/svg">
<path d="M13.7487 30.8333C13.7487 29.2225 12.4429 27.9167 10.832 27.9167C9.22121 27.9167 7.91537 29.2225 7.91537 30.8333C7.91537 32.4442 9.22121 33.75 10.832 33.75C12.4429 33.75 13.7487 32.4442 13.7487 30.8333ZM32.082 30.8333C32.082 29.2225 30.7762 27.9167 29.1654 27.9167C27.5545 27.9167 26.2487 29.2225 26.2487 30.8333C26.2487 32.4442 27.5545 33.75 29.1654 33.75C30.7762 33.75 32.082 32.4442 32.082 30.8333ZM35.4105 19.0121C35.4078 18.9538 35.4049 18.9309 35.404 18.9258C35.3938 18.8835 35.3763 18.8425 35.3535 18.8053C35.3493 18.7994 35.3348 18.7804 35.2982 18.7402C35.2369 18.6731 35.1522 18.5877 35.0003 18.4359L31.5628 14.9984C31.411 14.8466 31.3256 14.7618 31.2585 14.7005C31.2183 14.6639 31.1993 14.6494 31.1934 14.6452C31.1563 14.6224 31.1152 14.605 31.0729 14.5947C31.0679 14.5938 31.0449 14.5909 30.9867 14.5882C30.8958 14.5841 30.7749 14.5833 30.5602 14.5833H27.9154V25.4167H33.9994C34.4863 25.4167 34.7771 25.4163 34.9922 25.3988C35.1923 25.3824 35.2148 25.3572 35.1875 25.3711C35.2659 25.3312 35.3298 25.2672 35.3698 25.1888C35.3559 25.2161 35.3811 25.1936 35.3975 24.9935C35.415 24.7784 35.4154 24.4876 35.4154 24.0007V19.4385C35.4154 19.2238 35.4146 19.1029 35.4105 19.0121ZM25.4154 10.3337C25.4154 9.37962 25.415 8.73858 25.3747 8.24545C25.3356 7.76712 25.2644 7.5386 25.1875 7.3877C24.9878 6.99584 24.6695 6.67758 24.2777 6.47787C24.1268 6.40098 23.8983 6.3298 23.4199 6.2907C22.9268 6.25041 22.2858 6.25001 21.3317 6.25001H8.6657C7.71165 6.25001 7.07061 6.25041 6.57748 6.2907C6.09915 6.3298 5.87064 6.40098 5.71973 6.47787C5.32787 6.67758 5.00961 6.99584 4.8099 7.3877C4.73301 7.5386 4.66183 7.76712 4.62273 8.24545C4.58244 8.73858 4.58204 9.37962 4.58204 10.3337V21.333C4.58204 22.2871 4.58244 22.9281 4.62273 23.4212C4.66183 23.8996 4.73301 24.1281 4.8099 24.279C5.00961 24.6708 5.32787 24.9891 5.71973 25.1888C5.87064 25.2657 6.09915 25.3369 6.57748 25.376C7.07061 25.4163 7.71165 25.4167 8.6657 25.4167H25.4154V10.3337ZM27.9154 12.0833H30.5602C30.9083 12.0833 31.2865 12.0761 31.6556 12.1647C31.9531 12.2361 32.2378 12.3532 32.4987 12.513C32.8224 12.7114 33.0842 12.9846 33.3304 13.2308L36.7679 16.6683C37.0141 16.9145 37.2873 17.1763 37.4857 17.5C37.6455 17.7609 37.7626 18.0456 37.834 18.3431C37.9226 18.7122 37.9154 19.0904 37.9154 19.4385V24.0007C37.9154 24.4465 37.9155 24.8565 37.8877 25.1969C37.8587 25.552 37.7935 25.9412 37.598 26.3249C37.3184 26.8734 36.8721 27.3197 36.3236 27.5993C35.9399 27.7948 35.5507 27.86 35.1956 27.889C34.8552 27.9168 34.4452 27.9167 33.9994 27.9167H33.7292C34.2684 28.7587 34.582 29.7592 34.582 30.8333C34.582 33.8249 32.1569 36.25 29.1654 36.25C26.1738 36.25 23.7487 33.8249 23.7487 30.8333C23.7487 29.7592 24.0623 28.7587 24.6016 27.9167H15.3958C15.9351 28.7587 16.2487 29.7592 16.2487 30.8333C16.2487 33.8249 13.8236 36.25 10.832 36.25C7.8405 36.25 5.41537 33.8249 5.41537 30.8333C5.41537 29.7351 5.74233 28.7133 6.30404 27.8597C5.69735 27.8055 5.12638 27.6926 4.58529 27.417C3.72288 26.9776 3.02113 26.2758 2.58171 25.4134C2.29552 24.8515 2.18259 24.2576 2.13087 23.6247C2.08033 23.0061 2.08204 22.2458 2.08204 21.333V10.3337C2.08204 9.42087 2.08033 8.66055 2.13087 8.042C2.18259 7.40911 2.29553 6.81517 2.58171 6.25326C3.02113 5.39085 3.72288 4.6891 4.58529 4.24968C5.1472 3.96349 5.74114 3.85055 6.37403 3.79883C6.99258 3.7483 7.7529 3.75001 8.6657 3.75001H21.3317C22.2445 3.75001 23.0048 3.7483 23.6234 3.79883C24.2563 3.85055 24.8502 3.96349 25.4121 4.24968C26.2745 4.6891 26.9763 5.39085 27.4157 6.25326C27.7019 6.81517 27.8148 7.40911 27.8665 8.042C27.9171 8.66055 27.9154 9.42087 27.9154 10.3337V12.0833Z" fill="#FAFAFA"/>
</svg>
