<svg width="40" height="40" viewBox="0 0 40 40" fill="none" xmlns="http://www.w3.org/2000/svg">
<path fill-rule="evenodd" clip-rule="evenodd" d="M16.5981 6.41884C16.5981 4.29925 19.0703 3.14136 20.6986 4.49829L28.3187 10.8484L27.6211 11.6856L28.3187 10.8484C29.5252 11.8538 29.5168 13.7094 28.3014 14.7039L21.8283 20L28.3014 25.2962C29.5168 26.2907 29.5252 28.1463 28.3187 29.1517L20.6986 35.5018C19.0703 36.8587 16.5981 35.7008 16.5981 33.5812V24.2793L9.6119 29.9953C9.07759 30.4324 8.29006 30.3537 7.8529 29.8194C7.41574 29.2851 7.4945 28.4975 8.0288 28.0604L16.5981 21.0491V18.951L8.0288 11.9397C7.4945 11.5025 7.41574 10.715 7.8529 10.1807C8.29006 9.64641 9.07759 9.56765 9.6119 10.0048L16.5981 15.7208V6.41884ZM19.8543 18.385L19.0981 17.7663V6.41884L26.7183 12.769L19.8543 18.385ZM19.8543 21.6151L19.0981 22.2338V33.5812L26.7183 27.2311L19.8543 21.6151Z" fill="#FAFAFA"/>
</svg>
