<svg width="40" height="40" viewBox="0 0 40 40" fill="none" xmlns="http://www.w3.org/2000/svg">
<path d="M24.4187 23.6037C25.109 23.6037 25.6687 24.1633 25.6687 24.8537C25.6682 25.5437 25.1088 26.1037 24.4187 26.1037H15.5792C14.8892 26.1036 14.3296 25.5436 14.3292 24.8537C14.3292 24.1634 14.8889 23.6038 15.5792 23.6037H24.4187Z" fill="#FAFAFA"/>
<path d="M27.4493 16.6164C27.9374 16.1282 28.7287 16.1283 29.2169 16.6164L31.7169 19.1164C32.205 19.6045 32.205 20.3958 31.7169 20.884L29.2169 23.384C28.7287 23.8721 27.9374 23.8721 27.4493 23.384C26.9612 22.8958 26.9612 22.1045 27.4493 21.6164L27.8155 21.2502H12.184L12.5502 21.6164C13.0384 22.1045 13.0384 22.8958 12.5502 23.384C12.062 23.8721 11.2708 23.8721 10.7826 23.384L8.28262 20.884C7.79451 20.3958 7.79451 19.6045 8.28262 19.1164L10.7826 16.6164C11.2708 16.1282 12.062 16.1283 12.5502 16.6164C13.0384 17.1045 13.0384 17.8958 12.5502 18.384L12.184 18.7502H27.8155L27.4493 18.384C26.9612 17.8958 26.9612 17.1045 27.4493 16.6164Z" fill="#FAFAFA"/>
<path d="M24.4187 13.8966C25.109 13.8966 25.6687 14.4563 25.6687 15.1466C25.6687 15.837 25.109 16.3966 24.4187 16.3966H15.5792C14.8889 16.3965 14.3292 15.8369 14.3292 15.1466C14.3292 14.4564 14.8889 13.8968 15.5792 13.8966H24.4187Z" fill="#FAFAFA"/>
<path fill-rule="evenodd" clip-rule="evenodd" d="M33.6732 8.3514C35.3544 8.52184 36.6664 9.94075 36.6664 11.6668V12.8371C37.5674 12.8513 38.297 13.5813 38.3054 14.4875L38.3607 25.451C38.3689 26.3713 37.629 27.1239 36.7087 27.1323C36.6946 27.1324 36.6804 27.1309 36.6664 27.1307V28.3335C36.6662 30.0594 35.3542 31.4785 33.6732 31.6489L33.3331 31.6668H6.66641C4.94056 31.6667 3.5216 30.3545 3.35098 28.6737L3.33308 28.3335V27.1307C2.43244 27.1163 1.70282 26.3877 1.69408 25.4819L1.63874 14.5184C1.63036 13.5981 2.37046 12.8456 3.29076 12.8371C3.30482 12.8369 3.3191 12.8369 3.33308 12.8371V11.6668C3.33308 9.82595 4.82556 8.33361 6.66641 8.3335H33.3331L33.6732 8.3514ZM6.66641 10.8335C6.20627 10.8336 5.83308 11.2067 5.83308 11.6668V28.3335C5.8333 28.7935 6.20641 29.1667 6.66641 29.1668H33.3331C33.7932 29.1668 34.1662 28.7935 34.1664 28.3335V11.6668C34.1664 11.2066 33.7933 10.8335 33.3331 10.8335H6.66641Z" fill="#FAFAFA"/>
</svg>
