<svg width="40" height="40" viewBox="0 0 40 40" fill="none" xmlns="http://www.w3.org/2000/svg">
<path d="M28.9567 31.7677C29.2947 31.7561 29.6229 31.8831 29.8665 32.1177C30.5205 32.7475 31.3082 33.2238 32.1696 33.5109C33.0308 33.7978 33.9461 33.8893 34.847 33.7778C35.5316 33.6934 36.1551 34.1789 36.2402 34.8634C36.3249 35.5484 35.838 36.1734 35.153 36.2583C33.8826 36.4154 32.5929 36.2871 31.3786 35.8823C30.5416 35.6033 29.7563 35.1952 29.0462 34.6795C28.564 35.0625 28.0348 35.3868 27.4691 35.6382C26.5345 36.0534 25.523 36.268 24.5003 36.2681C23.4773 36.2681 22.4648 36.0536 21.5299 35.6382C20.9822 35.3948 20.4698 35.0823 20 34.7153C19.5301 35.0824 19.0178 35.3947 18.4701 35.6382C17.5352 36.0536 16.5227 36.268 15.4997 36.2681C14.4771 36.268 13.4655 36.0533 12.5309 35.6382C11.9649 35.3866 11.4346 35.0628 10.9521 34.6795C10.2423 35.1949 9.45804 35.6034 8.62142 35.8823C7.40705 36.2871 6.11738 36.4154 4.84701 36.2583C4.16195 36.1735 3.6751 35.5485 3.75977 34.8634C3.84492 34.1789 4.46831 33.6933 5.15299 33.7778C6.05391 33.8893 6.96918 33.7979 7.8304 33.5109C8.69182 33.2238 9.47947 32.7476 10.1335 32.1177L10.2279 32.0347C10.4587 31.8534 10.7473 31.7575 11.0433 31.7677C11.3812 31.7796 11.7003 31.9287 11.9271 32.1795C12.3782 32.6791 12.9298 33.0796 13.5449 33.353C14.1601 33.6264 14.8265 33.768 15.4997 33.7681C16.1729 33.768 16.8392 33.6264 17.4544 33.353C18.0697 33.0796 18.6211 32.6793 19.0723 32.1795L19.165 32.0868C19.3932 31.8821 19.6904 31.7677 20 31.7677C20.3535 31.7678 20.6908 31.9173 20.9277 32.1795C21.3789 32.6792 21.9303 33.0796 22.5456 33.353C23.1608 33.6264 23.8271 33.7681 24.5003 33.7681C25.1735 33.768 25.8399 33.6264 26.4551 33.353C27.0702 33.0796 27.6218 32.6792 28.0729 32.1795L28.1608 32.09C28.3785 31.8931 28.6607 31.7781 28.9567 31.7677Z" fill="#FAFAFA"/>
<path d="M15 21.7677C15.6902 21.7679 16.25 22.3275 16.25 23.0177C16.2499 23.7079 15.6901 24.2676 15 24.2677H12.9997C12.3094 24.2677 11.7498 23.708 11.7497 23.0177C11.7497 22.3274 12.3093 21.7677 12.9997 21.7677H15Z" fill="#FAFAFA"/>
<path d="M21.001 21.7677C21.6912 21.7679 22.251 22.3275 22.251 23.0177C22.2508 23.7079 21.6911 24.2676 21.001 24.2677H19.0007C18.3104 24.2677 17.7508 23.708 17.7507 23.0177C17.7507 22.3274 18.3103 21.7677 19.0007 21.7677H21.001Z" fill="#FAFAFA"/>
<path d="M27.0003 21.7677C27.6905 21.7679 28.2503 22.3275 28.2503 23.0177C28.2502 23.7079 27.6904 24.2676 27.0003 24.2677H25C24.3097 24.2677 23.7501 23.708 23.75 23.0177C23.75 22.3274 24.3096 21.7677 25 21.7677H27.0003Z" fill="#FAFAFA"/>
<path fill-rule="evenodd" clip-rule="evenodd" d="M16.333 11.7677C16.7778 11.7677 17.2061 11.9229 17.5472 12.2023L17.6888 12.3293L17.8158 12.4692C18.0952 12.8103 18.2503 13.2402 18.2503 13.6851V17.7671H21.7497V13.6851C21.7497 13.1768 21.9518 12.6887 22.3112 12.3293C22.6706 11.9698 23.1587 11.7677 23.667 11.7677H26.333C26.7778 11.7677 27.2061 11.9229 27.5472 12.2023L27.6888 12.3293L27.8158 12.4692C28.0952 12.8103 28.2503 13.2402 28.2503 13.6851V17.7671C29.0369 17.7709 29.7958 18.0601 30.3857 18.5809C30.9792 19.105 31.3616 19.8281 31.46 20.6138L32.1029 25.7668H34.0007C34.2347 25.7668 34.4672 25.8029 34.6891 25.8742L34.9089 25.9588L35.1172 26.063C35.252 26.1401 35.3787 26.2317 35.4948 26.3348L35.6624 26.4992L35.8105 26.6798C35.903 26.805 35.9819 26.9404 36.0465 27.0819L36.1328 27.2983L36.1963 27.5246C36.2469 27.7502 36.2606 27.9835 36.2402 28.2147C36.1146 29.6552 35.7269 31.0624 35.096 32.3634C34.7947 32.9844 34.0472 33.2441 33.4261 32.9429C32.8056 32.6415 32.546 31.8938 32.8467 31.2729C33.3054 30.3269 33.6011 29.3099 33.7223 28.2668H6.27767C6.38404 29.1735 6.61954 30.0617 6.97917 30.9019C7.25077 31.5362 6.95725 32.2704 6.32324 32.5425C5.68866 32.8142 4.95276 32.5211 4.68099 31.8866C4.1822 30.7214 3.87187 29.4836 3.75977 28.2212L3.75 27.9868C3.75318 27.7536 3.79249 27.5203 3.86719 27.2983L3.95345 27.0819C4.05051 26.8696 4.18114 26.6723 4.33919 26.4992L4.50521 26.3348C4.6796 26.1799 4.87847 26.0533 5.09277 25.9588L5.31087 25.8742C5.53278 25.8028 5.76531 25.7685 5.99935 25.7684L7.89714 25.7668L8.54167 20.6138C8.64002 19.8282 9.02241 19.105 9.61589 18.5809C10.2054 18.0606 10.9637 17.7712 11.7497 17.7671V13.6851C11.7497 13.1768 11.9518 12.6887 12.3112 12.3293C12.6706 11.9698 13.1587 11.7677 13.667 11.7677H16.333ZM11.766 20.2671C11.5834 20.2672 11.4064 20.3335 11.2695 20.4543C11.1326 20.5752 11.0449 20.7434 11.0221 20.9246L10.4167 25.7668H29.585L28.9795 20.9246C28.9568 20.7434 28.8674 20.5752 28.7305 20.4543C28.5938 20.3339 28.4178 20.2673 28.2357 20.2671H11.766ZM14.2497 17.7671H15.7503V14.2677H14.2497V17.7671ZM24.2497 17.7671H25.7503V14.2677H24.2497V17.7671Z" fill="#FAFAFA"/>
<path d="M19.0007 3.76807C19.6907 3.76842 20.2507 4.32793 20.2507 5.01807C20.2505 6.01167 19.7244 6.7085 19.1748 7.1665C18.6664 7.58993 18.0229 7.90439 17.5586 8.13656C17.0238 8.40394 16.6671 8.58984 16.4258 8.79085C16.2258 8.95758 16.25 9.01262 16.25 9.01872C16.2493 9.70851 15.6899 10.2687 15 10.2687C14.3101 10.2687 13.7507 9.70851 13.75 9.01872C13.75 8.02518 14.2747 7.32838 14.8242 6.87028C15.3325 6.44672 15.9759 6.13249 16.4404 5.90023C16.9754 5.63272 17.3334 5.44697 17.5749 5.24593C17.77 5.0833 17.7517 5.02648 17.7507 5.01807C17.7507 4.32771 18.3103 3.76807 19.0007 3.76807Z" fill="#FAFAFA"/>
<path d="M29.0007 3.76807C29.6907 3.76842 30.2507 4.32793 30.2507 5.01807C30.2504 6.01167 29.7244 6.7085 29.1748 7.1665C28.6664 7.58993 28.0229 7.90439 27.5586 8.13656C27.0238 8.40394 26.6671 8.58984 26.4258 8.79085C26.2258 8.95758 26.25 9.01262 26.25 9.01872C26.2493 9.70851 25.6899 10.2687 25 10.2687C24.3101 10.2687 23.7507 9.70851 23.75 9.01872C23.75 8.02518 24.2747 7.32838 24.8242 6.87028C25.3325 6.44672 25.9759 6.13249 26.4404 5.90023C26.9754 5.63272 27.3334 5.44697 27.5749 5.24593C27.77 5.0833 27.7517 5.02648 27.7507 5.01807C27.7507 4.32771 28.3103 3.76807 29.0007 3.76807Z" fill="#FAFAFA"/>
</svg>
