<svg width="40" height="40" viewBox="0 0 40 40" fill="none" xmlns="http://www.w3.org/2000/svg">
<path d="M10.8503 27.5002C11.7708 27.5002 12.5169 28.2464 12.517 29.1669C12.517 30.0873 11.7708 30.8335 10.8503 30.8335H10.834C9.91354 30.8335 9.16734 30.0873 9.16734 29.1669C9.16735 28.2464 9.91355 27.5002 10.834 27.5002H10.8503Z" fill="#FAFAFA"/>
<path fill-rule="evenodd" clip-rule="evenodd" d="M14.0013 21.6669C14.4403 21.6669 14.8704 21.665 15.2318 21.6945C15.6126 21.7257 16.0623 21.7995 16.5143 22.0298C17.0631 22.3094 17.5222 22.7349 17.8425 23.257L17.9711 23.4865L18.1159 23.8251C18.2351 24.1598 18.283 24.4836 18.3063 24.7691C18.3359 25.1304 18.334 25.5606 18.334 25.9995V32.3342C18.334 32.7731 18.3359 33.2033 18.3063 33.5646C18.2752 33.9455 18.2014 34.3951 17.9711 34.8472C17.6515 35.4743 17.1414 35.9843 16.5143 36.3039C16.0622 36.5343 15.6126 36.608 15.2318 36.6392C14.8704 36.6687 14.4403 36.6669 14.0013 36.6669H7.66669C7.22772 36.6669 6.79757 36.6687 6.43622 36.6392C6.05538 36.608 5.60576 36.5342 5.15367 36.3039C4.5266 35.9843 4.01652 35.4743 3.69696 34.8472C3.46662 34.3951 3.39284 33.9455 3.36168 33.5646C3.33216 33.2033 3.33401 32.7731 3.33401 32.3342V25.9995C3.33401 25.5606 3.33215 25.1304 3.36168 24.7691C3.39284 24.3882 3.46661 23.9386 3.69696 23.4865C4.01652 22.8594 4.52659 22.3494 5.15367 22.0298C5.60576 21.7995 6.05538 21.7257 6.43622 21.6945C6.79757 21.665 7.22772 21.6669 7.66669 21.6669H14.0013ZM7.66669 25.0002C7.17291 25.0002 6.90225 25.0022 6.70803 25.0181C6.70061 25.0187 6.69354 25.0191 6.68687 25.0197C6.68626 25.0264 6.68585 25.0335 6.68525 25.0409C6.66938 25.2351 6.66734 25.5058 6.66734 25.9995V32.3342C6.66734 32.8279 6.66938 33.0986 6.68525 33.2928C6.6858 33.2997 6.68631 33.3062 6.68687 33.3124C6.69358 33.313 6.70056 33.315 6.70803 33.3156C6.90225 33.3315 7.17291 33.3335 7.66669 33.3335H14.0013C14.4951 33.3335 14.7658 33.3315 14.96 33.3156C14.9669 33.3151 14.9733 33.3129 14.9795 33.3124C14.9801 33.3061 14.9822 33.2997 14.9828 33.2928C14.9986 33.0986 15.0007 32.8279 15.0007 32.3342V25.9995C15.0007 25.5058 14.9986 25.2351 14.9828 25.0409C14.9822 25.0334 14.9801 25.0264 14.9795 25.0197C14.9733 25.0192 14.9668 25.0187 14.96 25.0181C14.7658 25.0022 14.4951 25.0002 14.0013 25.0002H7.66669Z" fill="#FAFAFA"/>
<path d="M23.334 25.8335C24.2545 25.8335 25.0007 26.5797 25.0007 27.5002V35.0002C25.0007 35.9207 24.2545 36.6669 23.334 36.6669C22.4135 36.6668 21.6673 35.9207 21.6673 35.0002V27.5002C21.6674 26.5797 22.4136 25.8335 23.334 25.8335Z" fill="#FAFAFA"/>
<path d="M35.0007 26.6669C35.9211 26.6669 36.6673 27.4131 36.6673 28.3335V35.0002C36.6673 35.9207 35.9212 36.6669 35.0007 36.6669H28.334C27.4135 36.6668 26.6673 35.9207 26.6673 35.0002C26.6674 34.0797 27.4136 33.3335 28.334 33.3335H33.334V28.3335C33.334 27.4131 34.0802 26.6669 35.0007 26.6669Z" fill="#FAFAFA"/>
<path d="M29.1836 27.5002C30.1041 27.5002 30.8503 28.2464 30.8503 29.1669C30.8503 30.0873 30.1041 30.8335 29.1836 30.8335H29.1673C28.2469 30.8335 27.5007 30.0873 27.5007 29.1669C27.5007 28.2464 28.2469 27.5002 29.1673 27.5002H29.1836Z" fill="#FAFAFA"/>
<path d="M35.0007 21.6669C35.9211 21.6669 36.6673 22.4131 36.6673 23.3335C36.6673 24.254 35.9212 25.0002 35.0007 25.0002H27.5007C26.5802 25.0002 25.834 24.254 25.834 23.3335C25.834 22.4131 26.5802 21.6669 27.5007 21.6669H35.0007Z" fill="#FAFAFA"/>
<path d="M21.6836 20.0002C22.6041 20.0002 23.3503 20.7464 23.3503 21.6669C23.3503 22.5873 22.6041 23.3335 21.6836 23.3335H21.6673C20.7469 23.3335 20.0007 22.5873 20.0007 21.6669C20.0007 20.7464 20.7469 20.0002 21.6673 20.0002H21.6836Z" fill="#FAFAFA"/>
<path d="M10.8503 9.16685C11.7708 9.16685 12.5169 9.91306 12.517 10.8335C12.517 11.754 11.7708 12.5002 10.8503 12.5002H10.834C9.91354 12.5002 9.16734 11.754 9.16734 10.8335C9.16735 9.91306 9.91355 9.16687 10.834 9.16685H10.8503Z" fill="#FAFAFA"/>
<path fill-rule="evenodd" clip-rule="evenodd" d="M14.6442 3.33677C14.852 3.34014 15.0508 3.3464 15.2318 3.36119C15.6126 3.39235 16.0623 3.46613 16.5143 3.69648C17.0631 3.97609 17.5222 4.40161 17.8425 4.92369L17.9711 5.15318L18.1159 5.49172C18.2351 5.82645 18.283 6.15028 18.3063 6.43573C18.3359 6.79708 18.334 7.22723 18.334 7.6662V14.0008C18.334 14.4398 18.3359 14.87 18.3063 15.2313C18.2752 15.6121 18.2014 16.0618 17.9711 16.5139C17.6515 17.1409 17.1414 17.651 16.5143 17.9706C16.0622 18.2009 15.6126 18.2747 15.2318 18.3059C14.8704 18.3354 14.4403 18.3335 14.0013 18.3335H7.66669C7.22772 18.3335 6.79757 18.3354 6.43622 18.3059C6.05538 18.2747 5.60576 18.2009 5.15367 17.9706C4.52659 17.651 4.01652 17.1409 3.69696 16.5139C3.46662 16.0618 3.39284 15.6121 3.36168 15.2313C3.33216 14.87 3.33401 14.4398 3.33401 14.0008V7.6662C3.33401 7.22723 3.33215 6.79708 3.36168 6.43573C3.39284 6.0549 3.46661 5.60527 3.69696 5.15318C4.01652 4.5261 4.52659 4.01603 5.15367 3.69648C5.60576 3.46612 6.05538 3.39235 6.43622 3.36119C6.79757 3.33167 7.22772 3.33352 7.66669 3.33352H14.0013L14.6442 3.33677ZM7.66669 6.66685C7.17291 6.66685 6.90225 6.66889 6.70803 6.68476C6.70061 6.68536 6.69354 6.68577 6.68687 6.68638C6.68626 6.69305 6.68585 6.70012 6.68525 6.70754C6.66938 6.90176 6.66734 7.17242 6.66734 7.6662V14.0008C6.66734 14.4946 6.66938 14.7653 6.68525 14.9595C6.6858 14.9663 6.68631 14.9728 6.68687 14.979C6.69358 14.9796 6.70056 14.9817 6.70803 14.9823C6.90225 14.9982 7.17291 15.0002 7.66669 15.0002H14.0013C14.4951 15.0002 14.7658 14.9981 14.96 14.9823C14.9669 14.9817 14.9733 14.9796 14.9795 14.979C14.9801 14.9728 14.9822 14.9664 14.9828 14.9595C14.9986 14.7653 15.0007 14.4946 15.0007 14.0008V7.6662C15.0007 7.17242 14.9986 6.90176 14.9828 6.70754C14.9822 6.70007 14.9801 6.69309 14.9795 6.68638C14.9733 6.68582 14.9668 6.68532 14.96 6.68476C14.8627 6.67681 14.746 6.67242 14.5921 6.67011L14.0013 6.66685H7.66669Z" fill="#FAFAFA"/>
<path d="M29.1836 9.16685C30.1041 9.16685 30.8503 9.91306 30.8503 10.8335C30.8503 11.754 30.1041 12.5002 29.1836 12.5002H29.1673C28.2469 12.5002 27.5007 11.754 27.5007 10.8335C27.5007 9.91306 28.2469 9.16687 29.1673 9.16685H29.1836Z" fill="#FAFAFA"/>
<path fill-rule="evenodd" clip-rule="evenodd" d="M32.3347 3.33352C32.7736 3.33352 33.2038 3.33167 33.5651 3.36119C33.946 3.39235 34.3956 3.46613 34.8477 3.69648C35.3964 3.9761 35.8556 4.40161 36.1758 4.92369L36.3044 5.15318L36.4492 5.49172C36.5684 5.82645 36.6163 6.15028 36.6397 6.43573C36.6692 6.79708 36.6673 7.22723 36.6673 7.6662V14.0008C36.6673 14.4398 36.6692 14.87 36.6397 15.2313C36.6085 15.6121 36.5347 16.0618 36.3044 16.5139C35.9848 17.1409 35.4748 17.651 34.8477 17.9706C34.3956 18.2009 33.946 18.2747 33.5651 18.3059C33.2038 18.3354 32.7736 18.3335 32.3347 18.3335H26C25.5611 18.3335 25.1309 18.3354 24.7696 18.3059C24.3887 18.2747 23.9391 18.2009 23.487 17.9706C22.8599 17.651 22.3498 17.1409 22.0303 16.5139C21.8 16.0618 21.7262 15.6121 21.695 15.2313C21.6655 14.87 21.6673 14.4398 21.6673 14.0008V7.6662C21.6673 7.22723 21.6655 6.79708 21.695 6.43573C21.7262 6.0549 21.7999 5.60527 22.0303 5.15318C22.3499 4.5261 22.8599 4.01603 23.487 3.69648C23.9391 3.46612 24.3887 3.39235 24.7696 3.36119C25.1309 3.33167 25.5611 3.33352 26 3.33352H32.3347ZM26 6.66685C25.5062 6.66685 25.2356 6.66889 25.0414 6.68476C25.0339 6.68536 25.0269 6.68577 25.0202 6.68638C25.0196 6.69305 25.0192 6.70012 25.0186 6.70754C25.0027 6.90176 25.0007 7.17242 25.0007 7.6662V14.0008C25.0007 14.4946 25.0027 14.7653 25.0186 14.9595C25.0191 14.9663 25.0196 14.9728 25.0202 14.979C25.0269 14.9796 25.0339 14.9817 25.0414 14.9823C25.2356 14.9982 25.5062 15.0002 26 15.0002H32.3347C32.8284 15.0002 33.0991 14.9981 33.2933 14.9823C33.3002 14.9817 33.3066 14.9796 33.3128 14.979C33.3134 14.9728 33.3155 14.9664 33.3161 14.9595C33.332 14.7653 33.334 14.4946 33.334 14.0008V7.6662C33.334 7.17242 33.332 6.90176 33.3161 6.70754C33.3155 6.70007 33.3135 6.69309 33.3128 6.68638C33.3067 6.68582 33.3001 6.68532 33.2933 6.68476C33.0991 6.66889 32.8284 6.66685 32.3347 6.66685H26Z" fill="#FAFAFA"/>
</svg>
