<svg width="40" height="40" viewBox="0 0 40 40" fill="none" xmlns="http://www.w3.org/2000/svg">
<path fill-rule="evenodd" clip-rule="evenodd" d="M19.9984 3.125C20.4982 3.12487 20.9502 3.42262 21.1475 3.88184C21.3445 4.34147 21.2498 4.87549 20.9049 5.23763C17.4025 8.91516 15.3355 13.707 15.0407 18.75H17.6562C18.3466 18.75 18.9062 19.3096 18.9062 20C18.9062 20.6904 18.3466 21.25 17.6562 21.25H15.0407C15.3095 25.84 17.0482 30.2202 20 33.7435C22.2466 31.0613 23.8095 27.8654 24.5361 24.4287C24.6791 23.7535 25.3419 23.3224 26.0173 23.4652C26.6925 23.6081 27.1236 24.2709 26.9808 24.9463C26.2813 28.2543 24.8875 31.3617 22.9102 34.0755C25.3206 33.5777 27.5674 32.471 29.4303 30.8529C31.4357 29.1109 32.9188 26.847 33.7158 24.3132C33.9229 23.6548 34.6248 23.2877 35.2832 23.4945C35.9416 23.7015 36.3071 24.4034 36.1003 25.0618C35.1646 28.0369 33.4239 30.6958 31.0693 32.7409C28.7148 34.7859 25.8387 36.1372 22.762 36.6471C21.8578 36.797 20.9468 36.8699 20.0374 36.8717C20.025 36.8721 20.0125 36.875 20 36.875C19.9916 36.875 19.9824 36.8735 19.974 36.8734C17.8106 36.8696 15.6591 36.4507 13.6393 35.6283C10.7511 34.4521 8.24505 32.4993 6.39974 29.9854C4.5544 27.4713 3.4415 24.4948 3.18522 21.3867C3.14992 20.9586 3.13247 20.5302 3.12988 20.1025C3.12713 20.0687 3.125 20.0345 3.125 20C3.125 19.9566 3.12719 19.9137 3.13151 19.8714C3.1514 17.2736 3.76833 14.7079 4.94792 12.3779C6.35666 9.59551 8.50852 7.25665 11.1654 5.62337C13.8221 3.99019 16.8798 3.1259 19.9984 3.125ZM5.68359 21.25C5.91253 23.8727 6.85642 26.3828 8.41471 28.5059C9.98664 30.6475 12.1213 32.3119 14.5817 33.3138C15.3933 33.6443 16.2309 33.8956 17.0817 34.0723C14.3637 30.34 12.7802 25.8872 12.5374 21.25H5.68359ZM17.0833 5.92448C15.4602 6.2612 13.9004 6.8781 12.4756 7.75391C10.2123 9.14522 8.37778 11.1373 7.17773 13.5075C6.34622 15.1501 5.84234 16.9305 5.68359 18.75H12.5374C12.7802 14.1115 14.364 9.65731 17.0833 5.92448Z" fill="#FAFAFA"/>
<path fill-rule="evenodd" clip-rule="evenodd" d="M29.375 3.125C30.5353 3.125 31.6486 3.58545 32.4691 4.40592C33.2895 5.2264 33.75 6.33968 33.75 7.5V9.375H34.0625V10.0456C34.0627 9.375 34.062 9.375 34.0625 9.375H34.0869C34.0967 9.37516 34.1082 9.3762 34.1211 9.37663C34.1473 9.3775 34.1806 9.37878 34.2188 9.38151C34.2946 9.38693 34.3948 9.39623 34.5117 9.41569C34.7399 9.45372 35.0635 9.53302 35.402 9.70215C35.7456 9.87395 36.128 10.1514 36.4209 10.5908C36.719 11.038 36.875 11.5781 36.875 12.1875V16.875H35.625C36.875 16.875 36.875 16.8744 36.875 16.875V16.8994C36.8748 16.9092 36.8738 16.9207 36.8734 16.9336C36.8725 16.9598 36.8712 16.9931 36.8685 17.0312C36.8631 17.1071 36.8538 17.2073 36.8343 17.3242C36.7963 17.5524 36.717 17.876 36.5479 18.2145C36.376 18.5581 36.0986 18.9405 35.6592 19.2334C35.212 19.5315 34.6719 19.6875 34.0625 19.6875H24.6875V18.4375C24.6875 19.6875 24.6881 19.6875 24.6875 19.6875H24.6631C24.6533 19.6873 24.6418 19.6863 24.6289 19.6859C24.6027 19.685 24.5694 19.6837 24.5312 19.681C24.4554 19.6756 24.3552 19.6663 24.2383 19.6468C24.0101 19.6088 23.6865 19.5295 23.348 19.3604C23.0044 19.1886 22.622 18.9111 22.3291 18.4717C22.031 18.0245 21.875 17.4844 21.875 16.875V12.1875H23.125C21.875 12.1875 21.875 12.1881 21.875 12.1875V12.1631C21.8752 12.1533 21.8762 12.1418 21.8766 12.1289C21.8775 12.1027 21.8788 12.0694 21.8815 12.0312C21.8869 11.9554 21.8962 11.8552 21.9157 11.7383C21.9537 11.5101 22.033 11.1865 22.2021 10.848C22.3739 10.5044 22.6514 10.122 23.0908 9.8291C23.538 9.53095 24.0781 9.375 24.6875 9.375H25V7.5C25 6.33968 25.4605 5.2264 26.2809 4.40592C27.1014 3.58545 28.2147 3.125 29.375 3.125ZM24.515 11.8945C24.4888 11.902 24.4788 11.9084 24.4775 11.9092C24.4774 11.9093 24.4617 11.9182 24.4385 11.9645C24.4126 12.0163 24.3939 12.084 24.3831 12.1484C24.3784 12.177 24.3757 12.1988 24.375 12.2087V16.875C24.375 16.9655 24.3867 17.0201 24.3945 17.0475C24.402 17.0737 24.4084 17.0837 24.4092 17.085C24.4093 17.0851 24.4182 17.1008 24.4645 17.124C24.5163 17.1499 24.584 17.1686 24.6484 17.1794C24.677 17.1841 24.6988 17.1868 24.7087 17.1875H34.0625C34.153 17.1875 34.2076 17.1758 34.235 17.168C34.2612 17.1605 34.2712 17.1541 34.2725 17.1533C34.2726 17.1532 34.2883 17.1443 34.3115 17.098C34.3374 17.0462 34.3561 16.9785 34.3669 16.9141C34.3716 16.8855 34.3743 16.8637 34.375 16.8538V12.1875C34.375 12.097 34.3633 12.0424 34.3555 12.015C34.348 11.9888 34.3416 11.9788 34.3408 11.9775C34.3407 11.9774 34.3318 11.9617 34.2855 11.9385C34.2337 11.9126 34.166 11.8939 34.1016 11.8831C34.073 11.8784 34.0512 11.8757 34.0413 11.875H24.6875C24.597 11.875 24.5424 11.8867 24.515 11.8945ZM29.375 5.625C28.8777 5.625 28.4001 5.82187 28.0485 6.1735C27.6969 6.52513 27.5 7.00272 27.5 7.5V9.375H31.25V7.5C31.25 7.00272 31.0531 6.52513 30.7015 6.1735C30.3499 5.82187 29.8723 5.625 29.375 5.625Z" fill="#FAFAFA"/>
</svg>
