<svg width="40" height="40" viewBox="0 0 40 40" fill="none" xmlns="http://www.w3.org/2000/svg">
<path fill-rule="evenodd" clip-rule="evenodd" d="M9.99935 4.58325C10.6897 4.58325 11.2493 5.1429 11.2493 5.83325V17.5536C12.0198 16.3728 12.9556 15.2763 14.0439 14.2968C17.1533 11.4984 21.2644 9.85234 25.5853 9.6158C25.7945 8.85791 26.193 8.15846 26.7588 7.59269C27.6183 6.73315 28.7838 6.24992 29.9993 6.24992C31.2149 6.24992 32.3804 6.73315 33.2399 7.59269C34.0995 8.45223 34.5827 9.61768 34.5827 10.8333C34.5827 12.0488 34.0995 13.2143 33.2399 14.0738C32.3804 14.9334 31.2149 15.4166 29.9993 15.4166C28.7838 15.4166 27.6183 14.9334 26.7588 14.0738C26.2099 13.5249 25.8157 12.8509 25.6016 12.1191C21.8655 12.3497 18.3517 13.7845 15.7171 16.1555C12.9018 18.6894 11.3229 22.0776 11.2542 25.594C11.9979 25.806 12.6833 26.2028 13.2399 26.7594C14.0995 27.6189 14.5827 28.7843 14.5827 29.9999C14.5827 31.2155 14.0995 32.3809 13.2399 33.2405C12.3804 34.1 11.2149 34.5833 9.99935 34.5833C8.78377 34.5833 7.61833 34.1 6.75879 33.2405C5.89925 32.3809 5.41602 31.2155 5.41602 29.9999C5.41602 28.7843 5.89925 27.6189 6.75879 26.7594C7.3165 26.2016 8.00393 25.8056 8.74935 25.594V5.83325C8.74935 5.1429 9.30899 4.58325 9.99935 4.58325ZM9.99935 27.9166C9.44681 27.9166 8.91707 28.1362 8.52637 28.5269C8.13567 28.9176 7.91602 29.4474 7.91602 29.9999C7.91602 30.5525 8.13567 31.0822 8.52637 31.4729C8.91707 31.8636 9.44682 32.0833 9.99935 32.0833C10.5519 32.0833 11.0816 31.8636 11.4723 31.4729C11.863 31.0822 12.0827 30.5525 12.0827 29.9999C12.0827 29.4474 11.863 28.9176 11.4723 28.5269C11.0816 28.1362 10.5519 27.9166 9.99935 27.9166ZM29.9993 8.74992C29.4468 8.74992 28.9171 8.96957 28.5264 9.36027C28.1357 9.75097 27.916 10.2807 27.916 10.8333C27.916 11.3858 28.1357 11.9155 28.5264 12.3062C28.9171 12.6969 29.4468 12.9166 29.9993 12.9166C30.5519 12.9166 31.0816 12.6969 31.4723 12.3062C31.863 11.9155 32.0827 11.3858 32.0827 10.8333C32.0827 10.2807 31.863 9.75097 31.4723 9.36027C31.0816 8.96957 30.5519 8.74992 29.9993 8.74992Z" fill="#FAFAFA"/>
<path d="M26.8743 21.2499C27.5647 21.2499 28.1243 21.8096 28.1243 22.4999V26.2499H31.5618C32.2522 26.2499 32.8118 26.8096 32.8118 27.4999C32.8118 28.1903 32.2522 28.7499 31.5618 28.7499H28.1243V31.8749C28.1243 32.5653 27.5647 33.1249 26.8743 33.1249C26.184 33.1249 25.6243 32.5653 25.6243 31.8749V28.7499H22.1868C21.4965 28.7499 20.9368 28.1903 20.9368 27.4999C20.9368 26.8096 21.4965 26.2499 22.1868 26.2499H25.6243V22.4999C25.6243 21.8096 26.184 21.2499 26.8743 21.2499Z" fill="#FAFAFA"/>
</svg>
