<svg width="40" height="40" viewBox="0 0 40 40" fill="none" xmlns="http://www.w3.org/2000/svg">
<path d="M9.56803 15.765C10.2584 15.765 10.818 16.3246 10.818 17.015V18.75H11.7197C12.4098 18.7504 12.9697 19.3099 12.9697 20C12.9697 20.6901 12.4098 21.2496 11.7197 21.25H10.818V23.2194H11.7197C12.4098 23.2198 12.9697 23.7793 12.9697 24.4694C12.9697 25.1595 12.4098 25.719 11.7197 25.7194H10.818V28.7695C10.818 28.9996 11.0046 29.1862 11.2347 29.1862H14.2881V28.2861C14.2881 27.5958 14.8477 27.0361 15.5381 27.0361C16.2281 27.0366 16.7881 27.596 16.7881 28.2861V29.1862H18.7559V28.2861C18.7559 27.5958 19.3155 27.0361 20.0059 27.0361C20.6962 27.0361 21.2559 27.5958 21.2559 28.2861V29.1862H22.9893C23.6794 29.1862 24.2389 29.7461 24.2393 30.4362C24.2393 31.1266 23.6796 31.6862 22.9893 31.6862H20.0384C20.0276 31.6865 20.0168 31.6878 20.0059 31.6878C19.995 31.6878 19.9841 31.6865 19.9733 31.6862H15.5706C15.5598 31.6865 15.549 31.6878 15.5381 31.6878C15.5275 31.6878 15.5161 31.6865 15.5055 31.6862H11.2347C9.62387 31.6862 8.31803 30.3804 8.31803 28.7695V17.015C8.31803 16.3246 8.87768 15.765 9.56803 15.765Z" fill="#FAFAFA"/>
<path fill-rule="evenodd" clip-rule="evenodd" d="M32.2389 2.35352C33.6426 2.43735 34.9707 3.03565 35.9661 4.03809C37.1253 5.20579 37.4183 6.72261 37.4229 8.05827V31.8913H37.4115C37.4115 31.9043 37.4131 31.9173 37.4131 31.9303C37.413 33.3922 36.8547 34.7987 35.8522 35.8626C34.8493 36.9266 33.4771 37.5682 32.0176 37.6546L31.9801 37.6562H5.26628C3.65544 37.6562 2.34961 36.3504 2.34961 34.7396V12.5472C2.34961 10.9364 3.65544 9.63053 5.26628 9.63053H27.7093V5.26042C27.7093 3.64959 29.0151 2.34375 30.626 2.34375H31.9574L32.2389 2.35352ZM5.26628 12.1305C5.03616 12.1305 4.84961 12.3171 4.84961 12.5472V34.7396C4.84961 34.9697 5.03616 35.1562 5.26628 35.1562H31.8988C32.7112 35.1009 33.4735 34.7418 34.0326 34.1488C34.5982 33.5487 34.913 32.755 34.9131 31.9303C34.9131 31.1057 34.5981 30.312 34.0326 29.7119C33.4701 29.1153 32.702 28.7548 31.8841 28.7028H30.626C29.0151 28.7028 27.7093 27.397 27.7093 25.7861V12.1305H5.26628ZM30.626 4.84375C30.3959 4.84375 30.2093 5.0303 30.2093 5.26042V25.7861C30.2093 26.0163 30.3959 26.2028 30.626 26.2028H31.9801L32.0046 26.2044C33.0447 26.2249 34.0518 26.5267 34.9229 27.0671V8.06641L34.9115 7.69694C34.8591 6.86395 34.6305 6.24085 34.1921 5.79915C33.6679 5.27135 32.9802 4.94313 32.2471 4.86328L31.9313 4.84375H30.626Z" fill="#FAFAFA"/>
</svg>
