<svg width="40" height="40" viewBox="0 0 40 40" fill="none" xmlns="http://www.w3.org/2000/svg">
<path fill-rule="evenodd" clip-rule="evenodd" d="M5 9.58333C5 7.05203 7.05203 5 9.58333 5H30.4167C32.948 5 35 7.05203 35 9.58333V30.4167C35 32.948 32.948 35 30.4167 35H9.58333C7.05203 35 5 32.948 5 30.4167V9.58333ZM9.58333 7.5C8.43274 7.5 7.5 8.43274 7.5 9.58333V21.4996L10.6865 19.1157L10.7148 19.0968C12.5859 17.8494 15.0856 18.1438 16.6158 19.7917C19.0728 22.4377 21.6357 24.5063 25 24.5063C28.2161 24.5063 30.3136 23.3536 32.4494 21.2177C32.466 21.2012 32.4828 21.1853 32.5 21.1699V9.58333C32.5 8.43274 31.5673 7.5 30.4167 7.5H9.58333ZM32.5 24.5076C30.4511 26.084 28.1244 27.0063 25 27.0063C20.5062 27.0063 17.3016 24.2043 14.7838 21.4928C14.0951 20.7511 12.9743 20.6126 12.1266 21.1605L7.5 24.6219V30.4167C7.5 31.5673 8.43274 32.5 9.58333 32.5H30.4167C31.5673 32.5 32.5 31.5673 32.5 30.4167V24.5076ZM25.4167 12.5C24.2661 12.5 23.3333 13.4327 23.3333 14.5833C23.3333 15.7339 24.2661 16.6667 25.4167 16.6667C26.5673 16.6667 27.5 15.7339 27.5 14.5833C27.5 13.4327 26.5673 12.5 25.4167 12.5ZM20.8333 14.5833C20.8333 12.052 22.8854 10 25.4167 10C27.948 10 30 12.052 30 14.5833C30 17.1146 27.948 19.1667 25.4167 19.1667C22.8854 19.1667 20.8333 17.1146 20.8333 14.5833Z" fill="#FAFAFA"/>
</svg>
