<svg width="40" height="40" viewBox="0 0 40 40" fill="none" xmlns="http://www.w3.org/2000/svg">
<path d="M19.992 2.0835C20.6824 2.0835 21.242 2.64314 21.242 3.3335V6.17855L22.4204 5.05876C22.9207 4.5837 23.7108 4.60429 24.1864 5.10433C24.6619 5.60449 24.6423 6.39453 24.1424 6.87028L21.242 9.62907V17.8354L28.4116 13.6965L29.3524 9.80485C29.5143 9.134 30.1886 8.72193 30.8595 8.88363C31.5303 9.04546 31.9437 9.71996 31.7824 10.3908L31.3999 11.9712L33.8022 10.5845C34.4 10.2396 35.1645 10.4441 35.5096 11.0418C35.8542 11.6395 35.6495 12.404 35.0522 12.7492L32.6515 14.1359L34.2091 14.5949C34.8708 14.7904 35.2488 15.4858 35.0539 16.1476C34.8581 16.8091 34.1629 17.1876 33.5011 16.9923L29.6632 15.8612L22.492 20.0002L29.66 24.1392L33.5011 23.008C34.1631 22.8128 34.8568 23.1908 35.0522 23.8527C35.2475 24.5146 34.8708 25.2097 34.2091 25.4054L32.6483 25.8644L35.0506 27.2511C35.6485 27.5963 35.8531 28.3606 35.508 28.9585C35.1626 29.5559 34.3983 29.7609 33.8006 29.4159L31.3999 28.0308L31.7824 29.6095C31.9437 30.2804 31.5287 30.9549 30.8579 31.1167C30.1875 31.2776 29.5144 30.8657 29.3524 30.1955L28.4116 26.3055L21.242 22.1649V30.4429L24.1424 33.2033C24.6424 33.679 24.6619 34.469 24.1864 34.9692C23.7108 35.4693 22.9207 35.49 22.4204 35.0148L21.242 33.8934V36.6668C21.242 37.3572 20.6824 37.9168 19.992 37.9168C19.302 37.9165 18.742 37.357 18.742 36.6668V33.895L17.5653 35.0148C17.065 35.4902 16.2733 35.4694 15.7977 34.9692C15.3227 34.4689 15.3433 33.6788 15.8433 33.2033L18.742 30.4445V22.1649L11.6343 26.2697L10.6968 30.158C10.5349 30.8287 9.86036 31.2422 9.18961 31.0809C8.51893 30.9189 8.10536 30.2429 8.26676 29.5721L8.64599 27.995L6.18505 29.4159C5.58736 29.7609 4.82139 29.5559 4.47607 28.9585C4.13125 28.3607 4.33733 27.5962 4.93505 27.2511L7.39761 25.8286L5.84 25.368C5.17843 25.1722 4.79998 24.4771 4.99527 23.8153C5.19074 23.1538 5.88477 22.776 6.54638 22.9705L10.3859 24.1034L17.4904 19.9985L10.3843 15.897L6.54638 17.0282C5.88483 17.223 5.19109 16.8462 4.99527 16.1851C4.79999 15.5233 5.17692 14.8265 5.83837 14.6307L7.39599 14.1717L4.93342 12.7492C4.33579 12.4041 4.13134 11.6396 4.47607 11.0418C4.82132 10.4442 5.58565 10.2393 6.18342 10.5845L8.64761 12.007L8.26676 10.4266C8.1055 9.75578 8.5188 9.08122 9.18961 8.91943C9.86022 8.75811 10.5346 9.17025 10.6968 9.84066L11.6359 13.7323L18.742 17.8338V9.62744L15.8433 6.87028C15.3434 6.39475 15.3227 5.60459 15.7977 5.10433C16.2733 4.60422 17.065 4.58351 17.5653 5.05876L18.742 6.17692V3.3335C18.742 2.64335 19.302 2.08384 19.992 2.0835Z" fill="#FAFAFA"/>
</svg>
