<svg width="40" height="40" viewBox="0 0 40 40" fill="none" xmlns="http://www.w3.org/2000/svg">
<path d="M20 10.4167C22.5417 10.4167 24.9785 11.4271 26.7757 13.2244C28.2756 14.7243 29.2248 16.67 29.4987 18.7501H35C35.6904 18.7501 36.25 19.3097 36.25 20.0001C36.25 20.6904 35.6904 21.2501 35 21.2501H29.5003C29.2264 23.3302 28.2757 25.2758 26.7757 26.7758C24.9785 28.573 22.5417 29.5834 20 29.5834C17.4583 29.5834 15.0215 28.573 13.2243 26.7758C12.7361 26.2876 12.7361 25.4964 13.2243 25.0082C13.7125 24.5207 14.5039 24.5203 14.9919 25.0082C16.3202 26.3366 18.1214 27.0834 20 27.0834C21.8786 27.0834 23.6798 26.3366 25.0081 25.0082C26.2534 23.7629 26.9883 22.1023 27.0752 20.3516L27.0833 20.0001C27.0833 18.1215 26.3365 16.3203 25.0081 14.9919C23.6798 13.6636 21.8786 12.9167 20 12.9167L19.6484 12.9249C17.8978 13.0118 16.2372 13.7467 14.9919 14.9919C14.5039 15.4799 13.7125 15.4795 13.2243 14.9919C12.7361 14.5038 12.7361 13.7125 13.2243 13.2244C14.9092 11.5395 17.1561 10.5457 19.5247 10.4281L20 10.4167Z" fill="#FAFAFA"/>
<path d="M19.1162 15.783C19.6044 15.2948 20.3956 15.2948 20.8838 15.783L24.2171 19.1163C24.4515 19.3507 24.5833 19.6686 24.5833 20.0001C24.5833 20.3316 24.4515 20.6494 24.2171 20.8839L20.8838 24.2172C20.3956 24.7054 19.6044 24.7054 19.1162 24.2172C18.6281 23.729 18.6281 22.9378 19.1162 22.4496L20.3158 21.2501H5C4.30964 21.2501 3.75 20.6904 3.75 20.0001C3.75 19.3097 4.30964 18.7501 5 18.7501H20.3158L19.1162 17.5505C18.6281 17.0624 18.6281 16.2711 19.1162 15.783Z" fill="#FAFAFA"/>
</svg>
