<svg width="40" height="40" viewBox="0 0 40 40" fill="none" xmlns="http://www.w3.org/2000/svg">
<path d="M14.9987 25.4165C15.6891 25.4165 16.2487 25.9761 16.2487 26.6665V28.3332C16.2487 29.0235 15.6891 29.5832 14.9987 29.5832C14.3083 29.5832 13.7487 29.0235 13.7487 28.3332V26.6665C13.7487 25.9761 14.3083 25.4165 14.9987 25.4165Z" fill="#FAFAFA"/>
<path d="M19.9987 25.4165C20.6891 25.4165 21.2487 25.9761 21.2487 26.6665V28.3332C21.2487 29.0235 20.6891 29.5832 19.9987 29.5832C19.3083 29.5832 18.7487 29.0235 18.7487 28.3332V26.6665C18.7487 25.9761 19.3083 25.4165 19.9987 25.4165Z" fill="#FAFAFA"/>
<path d="M24.9987 25.4165C25.6891 25.4165 26.2487 25.9761 26.2487 26.6665V28.3332C26.2487 29.0235 25.6891 29.5832 24.9987 29.5832C24.3083 29.5832 23.7487 29.0235 23.7487 28.3332V26.6665C23.7487 25.9761 24.3083 25.4165 24.9987 25.4165Z" fill="#FAFAFA"/>
<path fill-rule="evenodd" clip-rule="evenodd" d="M24.9987 10.4165C26.6095 10.4165 27.9154 11.7223 27.9154 13.3332V19.9998C27.9154 21.6107 26.6095 22.9165 24.9987 22.9165H14.9987C13.3879 22.9165 12.082 21.6107 12.082 19.9998V13.3332C12.082 11.7223 13.3879 10.4165 14.9987 10.4165H24.9987ZM14.9987 12.9165C14.7686 12.9165 14.582 13.1031 14.582 13.3332V19.9998C14.582 20.23 14.7686 20.4165 14.9987 20.4165H24.9987C25.2288 20.4165 25.4154 20.23 25.4154 19.9998V13.3332C25.4154 13.1031 25.2288 12.9165 24.9987 12.9165H14.9987Z" fill="#FAFAFA"/>
<path fill-rule="evenodd" clip-rule="evenodd" d="M28.332 5.4165C30.8633 5.4165 32.9154 7.46853 32.9154 9.99984V29.9998C32.9154 32.5311 30.8633 34.5832 28.332 34.5832H11.6654C9.13406 34.5832 7.08203 32.5311 7.08203 29.9998V9.99984C7.08203 7.46853 9.13406 5.4165 11.6654 5.4165H28.332ZM11.6654 7.9165C10.5148 7.9165 9.58203 8.84924 9.58203 9.99984V29.9998C9.58203 31.1504 10.5148 32.0832 11.6654 32.0832H28.332C29.4826 32.0832 30.4154 31.1504 30.4154 29.9998V9.99984C30.4154 8.84924 29.4826 7.9165 28.332 7.9165H11.6654Z" fill="#FAFAFA"/>
</svg>
