<svg width="40" height="40" viewBox="0 0 40 40" fill="none" xmlns="http://www.w3.org/2000/svg">
<path fill-rule="evenodd" clip-rule="evenodd" d="M19.5145 9.17127L19.8626 13.679C19.9228 14.4579 19.5421 15.205 18.8766 15.6141L15.0252 17.982L19.9146 19.1634C20.3702 19.2735 20.726 19.6293 20.8361 20.0849L22.0175 24.9743L24.3854 21.1229C24.7945 20.4574 25.5416 20.0767 26.3205 20.1369L30.8282 20.485L27.897 17.0428C27.3905 16.448 27.2593 15.6199 27.5572 14.8977L29.2813 10.7182L25.1018 12.4422C24.3796 12.7402 23.5515 12.609 22.9567 12.1025L19.5145 9.17127ZM16.9448 8.36497C16.8021 6.51735 18.9617 5.41694 20.3726 6.61839L24.3837 10.0341L29.2541 8.02507C30.9672 7.31841 32.6811 9.03233 31.9744 10.7454L29.9654 15.6157L33.3811 19.6269C34.5826 21.0377 33.4822 23.1974 31.6345 23.0547L26.3818 22.649L23.6225 27.1371C22.6519 28.7157 20.2579 28.3365 19.8227 26.5352L18.9293 22.8379L7.13388 34.6333C6.64572 35.1214 5.85427 35.1214 5.36611 34.6332C4.87796 34.1451 4.87796 33.3536 5.36612 32.8655L17.1615 21.0702L13.4643 20.1768C11.663 19.7416 11.2838 17.3476 12.8624 16.377L17.3505 13.6177L16.9448 8.36497Z" fill="#FAFAFA"/>
</svg>
