<svg width="40" height="40" viewBox="0 0 40 40" fill="none" xmlns="http://www.w3.org/2000/svg">
<path d="M14.9997 11.6667C15.6901 11.6667 16.2497 12.2264 16.2497 12.9167C16.2496 13.607 15.69 14.1667 14.9997 14.1667H6.66641C6.2064 14.167 5.83308 14.54 5.83308 15.0001V31.6667C5.83345 32.1265 6.20663 32.4998 6.66641 32.5001H33.3331C33.7931 32.5001 34.166 32.1267 34.1664 31.6667V15.0001C34.1664 14.5398 33.7933 14.1667 33.3331 14.1667H24.9997C24.3095 14.1667 23.7498 13.607 23.7497 12.9167C23.7497 12.2264 24.3095 11.6668 24.9997 11.6667H33.3331L33.6732 11.6846C35.3544 11.8551 36.6664 13.274 36.6664 15.0001V16.1703C37.5674 16.1845 38.297 16.9145 38.3054 17.8207L38.3607 28.7842C38.3687 29.7044 37.6289 30.4572 36.7087 30.4656C36.6947 30.4657 36.6803 30.4642 36.6664 30.4639V31.6667C36.6661 33.3925 35.3541 34.8118 33.6732 34.9822L33.3331 35.0001H6.66641C4.94077 34.9998 3.5217 33.6876 3.35098 32.0069L3.33308 31.6667V30.4639C2.43266 30.4494 1.70296 29.7207 1.69408 28.8152L1.63874 17.8516C1.63036 16.9314 2.37059 16.179 3.29076 16.1703C3.30472 16.1702 3.31919 16.1701 3.33308 16.1703V15.0001C3.33308 13.1593 4.82569 11.667 6.66641 11.6667H14.9997Z" fill="#FAFAFA"/>
<path d="M29.4187 26.9369C30.109 26.9369 30.6687 27.4966 30.6687 28.1869C30.6681 28.8768 30.1087 29.4369 29.4187 29.4369H10.5792C9.88941 29.4367 9.32976 28.8766 9.32917 28.1869C9.32917 27.4967 9.88904 26.9372 10.5792 26.9369H29.4187Z" fill="#FAFAFA"/>
<path d="M29.4187 22.0834C30.109 22.0834 30.6687 22.643 30.6687 23.3334C30.6683 24.0234 30.1088 24.5834 29.4187 24.5834H10.5792C9.88927 24.5831 9.32954 24.0233 9.32917 23.3334C9.32917 22.6432 9.88904 22.0837 10.5792 22.0834H29.4187Z" fill="#FAFAFA"/>
<path d="M29.4187 17.2299C30.109 17.2299 30.6687 17.7895 30.6687 18.4799C30.6685 19.1701 30.109 19.7299 29.4187 19.7299H10.5792C9.88914 19.7296 9.32933 19.1699 9.32917 18.4799C9.32917 17.7897 9.88904 17.2302 10.5792 17.2299H29.4187Z" fill="#FAFAFA"/>
<path d="M24.9493 2.44961C25.4374 1.96146 26.2287 1.96146 26.7169 2.44961L29.2169 4.94961C29.705 5.43777 29.705 6.22905 29.2169 6.71719L26.7169 9.21719C26.2287 9.70509 25.4374 9.70523 24.9493 9.21719C24.4612 8.72912 24.4614 7.93779 24.9493 7.44961L25.3155 7.0834H23.3331C22.1826 7.08352 21.2497 8.01621 21.2497 9.16674V14.1667C21.2496 14.857 20.69 15.4167 19.9997 15.4167C19.3096 15.4166 18.7499 14.8569 18.7497 14.1667V9.16674C18.7497 6.6355 20.8019 4.58352 23.3331 4.5834H25.3155L24.9493 4.21719C24.4612 3.72912 24.4614 2.93779 24.9493 2.44961Z" fill="#FAFAFA"/>
</svg>
