<svg width="40" height="40" viewBox="0 0 40 40" fill="none" xmlns="http://www.w3.org/2000/svg">
<path d="M28.7503 3.3335C31.2816 3.3335 33.3337 5.38553 33.3337 7.91683V17.077C33.3337 17.7673 32.774 18.327 32.0837 18.327C31.3933 18.327 30.8337 17.7673 30.8337 17.077V7.91683C30.8337 6.76624 29.9009 5.8335 28.7503 5.8335H11.2503C10.0997 5.8335 9.16699 6.76623 9.16699 7.91683V32.0835C9.16699 33.2341 10.0997 34.1668 11.2503 34.1668H17.0837C17.774 34.1668 18.3337 34.7265 18.3337 35.4168C18.3337 36.1072 17.774 36.6668 17.0837 36.6668H11.2503C8.71902 36.6668 6.66699 34.6148 6.66699 32.0835V7.91683C6.66699 5.38552 8.71902 3.3335 11.2503 3.3335H28.7503ZM28.3385 19.9904C32.9436 19.9904 36.6768 23.7235 36.6768 28.3286C36.6768 32.9337 32.9436 36.6668 28.3385 36.6668C23.7335 36.6668 20.0003 32.9337 20.0003 28.3286C20.0003 23.7235 23.7335 19.9904 28.3385 19.9904ZM28.3385 22.4904C25.1142 22.4904 22.5003 25.1043 22.5003 28.3286C22.5003 31.553 25.1142 34.1668 28.3385 34.1668C31.5629 34.1668 34.1768 31.553 34.1768 28.3286C34.1768 25.1043 31.5629 22.4904 28.3385 22.4904ZM30.1647 25.783C30.5256 25.4346 31.0715 25.3684 31.501 25.6105L31.6768 25.7326L31.8265 25.8872C32.1356 26.2704 32.1618 26.8183 31.8786 27.2316C31.8715 27.2419 31.8635 27.2526 31.8558 27.2625L31.8265 27.3C31.8207 27.3075 31.8147 27.3155 31.8086 27.3228L28.4248 31.3218C28.2211 31.5622 27.9256 31.7073 27.611 31.7205C27.3378 31.7318 27.0681 31.6431 26.8542 31.4699C26.8439 31.4616 26.833 31.4527 26.8232 31.4438L26.7874 31.4113L24.9206 29.5444C24.9139 29.5377 24.9074 29.5303 24.901 29.5233L24.8685 29.4891C24.8601 29.48 24.8519 29.4694 24.8441 29.4598C24.4822 29.0158 24.5079 28.3622 24.9206 27.9494L25.0866 27.8127C25.4362 27.5757 25.8899 27.5566 26.2568 27.7557L26.431 27.8729L26.4603 27.8973L26.4945 27.9298L26.5173 27.9494L27.4938 28.9259L30.0866 25.866C30.0932 25.8582 30.1007 25.8492 30.1077 25.8416L30.1403 25.8075L30.1647 25.783ZM18.7503 16.6668C19.4407 16.6668 20.0003 17.2265 20.0003 17.9168C20.0003 18.6072 19.4407 19.1668 18.7503 19.1668H14.5837C13.8933 19.1668 13.3337 18.6072 13.3337 17.9168C13.3337 17.2265 13.8933 16.6668 14.5837 16.6668H18.7503ZM25.417 10.0002C26.1073 10.0002 26.667 10.5598 26.667 11.2502C26.667 11.9405 26.1073 12.5002 25.417 12.5002H14.5837C13.8933 12.5002 13.3337 11.9405 13.3337 11.2502C13.3337 10.5598 13.8933 10.0002 14.5837 10.0002H25.417Z" fill="#FAFAFA"/>
</svg>
