<svg width="40" height="40" viewBox="0 0 40 40" fill="none" xmlns="http://www.w3.org/2000/svg">
<path fill-rule="evenodd" clip-rule="evenodd" d="M16.0512 28.43C16.7109 28.4682 17.426 28.7021 17.9685 29.3544C18.4655 29.9525 18.6865 30.7503 18.7693 31.6282C19.0452 34.566 17.4749 37.7283 14.5521 38.3014C11.6843 38.8623 8.70801 36.6409 8.10682 33.5504C7.95881 32.789 7.95597 32.0564 8.20448 31.3938C8.46438 30.7015 8.9428 30.2307 9.47889 29.916C9.98485 29.619 10.5592 29.4497 11.0805 29.3284C11.5956 29.2086 12.1964 29.1074 12.7178 29.0078C13.2566 28.9048 13.7156 28.7752 14.2999 28.6399C14.8175 28.5201 15.4445 28.3948 16.0512 28.43ZM15.9063 30.9251C15.6892 30.9126 15.3689 30.9577 14.863 31.0748C14.4233 31.1766 13.7801 31.3507 13.1882 31.4638C12.5792 31.5802 12.0999 31.6583 11.6485 31.7633C11.2032 31.8669 10.9221 31.9687 10.7452 32.0725C10.5981 32.1589 10.5646 32.2205 10.545 32.2727C10.5142 32.3554 10.4641 32.5819 10.5596 33.0735C10.9351 35.0032 12.7482 36.1072 14.072 35.8486L14.3015 35.7867C15.4432 35.4054 16.4702 33.881 16.2806 31.8626C16.2191 31.2096 16.0806 30.9945 16.0463 30.9527C16.0437 30.9497 16.0398 30.9462 16.0398 30.9462C16.0291 30.9421 15.9897 30.9299 15.9063 30.9251Z" fill="#FAFAFA"/>
<path fill-rule="evenodd" clip-rule="evenodd" d="M23.9483 21.0846C24.5552 21.0495 25.1836 21.1747 25.7012 21.2945C26.2853 21.4298 26.7428 21.5592 27.2816 21.6624C27.8029 21.7621 28.404 21.8631 28.919 21.983C29.4402 22.1044 30.0146 22.2752 30.5206 22.5722C31.0562 22.8869 31.535 23.3568 31.795 24.0485C32.0437 24.711 32.0422 25.4451 31.8943 26.2067C31.3119 29.2007 28.4984 31.3785 25.7159 31.0016L25.4473 30.9576C22.5241 30.3846 20.9538 27.2218 21.2302 24.2845C21.3129 23.4064 21.5342 22.6089 22.031 22.0107C22.5733 21.3586 23.2885 21.123 23.9483 21.0846ZM23.9581 23.6009L23.9548 23.6074C23.9212 23.6478 23.7807 23.8623 23.7188 24.5188C23.5163 26.6711 24.6986 28.2618 25.9275 28.5032C27.2511 28.7617 29.0643 27.6594 29.4398 25.7298C29.5356 25.2366 29.4852 25.0092 29.4545 24.9274C29.4349 24.8753 29.4018 24.813 29.2559 24.7272C29.079 24.6233 28.7975 24.5216 28.3526 24.4179C27.901 24.3128 27.4205 24.235 26.8112 24.1184C26.22 24.0052 25.5758 23.8312 25.1364 23.7294C24.6311 23.6124 24.3101 23.5673 24.0931 23.5797C24.0063 23.5848 23.9669 23.5974 23.9581 23.6009Z" fill="#FAFAFA"/>
<path fill-rule="evenodd" clip-rule="evenodd" d="M9.6856 8.97033C10.7753 8.88378 11.7502 9.30497 12.5486 9.9241C13.3412 10.5391 14.0273 11.3979 14.6026 12.3476C15.7536 14.2479 16.5932 16.7356 16.9512 19.1136C17.3034 21.4573 17.2024 23.5153 16.3555 25.1031C15.4631 26.7763 13.8788 27.6889 11.8503 27.9889C9.56637 28.3265 7.7387 27.7277 6.44341 26.205C5.24155 24.7916 4.63227 22.7288 4.28683 20.4303C3.8095 17.2521 4.10919 14.5414 5.04041 12.5332C5.98096 10.5055 7.61367 9.13528 9.6856 8.97033ZM9.88416 11.4622C8.91875 11.5391 7.96671 12.1674 7.3093 13.5846C6.64285 15.0215 6.33035 17.2043 6.75917 20.0592L6.891 20.8453C7.22181 22.6042 7.70618 23.831 8.34771 24.5856C8.98759 25.3377 9.8961 25.75 11.4857 25.5149C12.9432 25.2992 13.7204 24.7286 14.1485 23.9264C14.6219 23.0387 14.8004 21.6261 14.4789 19.4863C14.1621 17.3814 13.4181 15.2168 12.4639 13.6416C11.9868 12.8542 11.4897 12.2669 11.017 11.9C10.5502 11.538 10.1761 11.4392 9.88416 11.4622Z" fill="#FAFAFA"/>
<path fill-rule="evenodd" clip-rule="evenodd" d="M30.3041 1.62495C32.3831 1.77578 34.0175 3.15106 34.9574 5.17964C35.8886 7.19023 36.1888 9.9074 35.711 13.0865C35.3655 15.3848 34.7563 17.4463 33.5544 18.8596C32.259 20.3828 30.4306 20.9813 28.1459 20.6435C26.1186 20.3433 24.536 19.4303 23.6439 17.7578C22.7975 16.1699 22.6944 14.1134 23.0466 11.7698C23.4043 9.39253 24.238 6.90773 25.3871 5.00874C25.9614 4.05961 26.6477 3.2026 27.4411 2.58686C28.2406 1.96665 29.2148 1.54619 30.3041 1.62495ZM30.1234 4.11844C29.8211 4.09675 29.4402 4.2 28.9727 4.56277C28.4989 4.93064 28.0014 5.51673 27.5258 6.30268C26.6934 7.67822 26.0241 9.50404 25.6573 11.3499L25.5189 12.1409C25.1974 14.2802 25.3763 15.6932 25.8493 16.581C26.2773 17.3835 27.0551 17.9554 28.5121 18.1712C30.1026 18.4063 31.0103 17.9925 31.6501 17.2402C32.3833 16.378 32.9102 14.8994 33.2387 12.7138C33.6677 9.85909 33.3552 7.67076 32.6885 6.23107C32.0303 4.81049 31.0806 4.18798 30.1234 4.11844Z" fill="#FAFAFA"/>
</svg>
