<svg width="40" height="40" viewBox="0 0 40 40" fill="none" xmlns="http://www.w3.org/2000/svg">
<path d="M6.51693 24.4758C7.00503 23.9877 7.79634 23.9878 8.2845 24.4758C8.77234 24.964 8.77255 25.7553 8.2845 26.2434L6.9515 27.5764C6.46344 28.0643 5.67205 28.0642 5.18392 27.5764C4.69597 27.0883 4.69596 26.2969 5.18392 25.8088L6.51693 24.4758Z" fill="#FAFAFA"/>
<path d="M31.7171 24.4758C32.2053 23.9877 32.9965 23.9877 33.4847 24.4758L34.8177 25.8088C35.3054 26.297 35.3057 27.0884 34.8177 27.5764C34.3297 28.0641 33.5382 28.064 33.0501 27.5764L31.7171 26.2434C31.2291 25.7554 31.2293 24.964 31.7171 24.4758Z" fill="#FAFAFA"/>
<path fill-rule="evenodd" clip-rule="evenodd" d="M11.6667 13.4423C12.8226 13.4423 14.0779 13.5849 15.2262 14.0771L15.2246 14.0787C17.5105 15.0032 19.3161 16.9589 19.3164 19.3586C19.3163 21.7586 17.5108 23.7157 15.2246 24.6402C14.0764 25.1322 12.8225 25.2749 11.6667 25.275H10.9993C10.4598 25.2748 10.0247 25.018 9.74935 24.7427C9.49774 24.4911 9.26428 24.1058 9.22526 23.6295C8.85143 20.2648 8.84977 18.4528 9.22363 15.0878C9.26284 14.6119 9.4979 14.226 9.74935 13.9745C10.0247 13.6994 10.4601 13.4425 10.9993 13.4423H11.6667ZM11.6504 15.9423C11.3796 18.5675 11.3781 20.1501 11.6488 22.775H11.6667C12.6437 22.7749 13.5235 22.6514 14.2415 22.3437L14.2692 22.3323C15.9693 21.6521 16.8163 20.4152 16.8164 19.3586C16.8161 18.3022 15.9689 17.0667 14.2692 16.3866C14.2602 16.383 14.2505 16.3791 14.2415 16.3752C13.5235 16.0675 12.6437 15.9423 11.6667 15.9423H11.6504Z" fill="#FAFAFA"/>
<path fill-rule="evenodd" clip-rule="evenodd" d="M29.0007 13.4423C29.54 13.4424 29.9753 13.6993 30.2507 13.9745C30.5021 14.226 30.7355 14.6119 30.7747 15.0878C31.1486 18.453 31.1502 20.266 30.7764 23.6311L30.7747 23.6295C30.7357 24.1056 30.5022 24.4911 30.2507 24.7427C29.9753 25.0181 29.5402 25.2748 29.0007 25.275H28.3333C27.1773 25.275 25.9222 25.134 24.7738 24.6418C22.4882 23.7171 20.6837 21.7582 20.6836 19.3586C20.6839 16.9593 22.4885 15.0034 24.7738 14.0787C25.9222 13.5865 27.1773 13.4423 28.3333 13.4423H29.0007ZM28.3333 15.9423C27.3564 15.9423 26.4781 16.0676 25.7601 16.3752C25.7508 16.3792 25.7402 16.3829 25.7308 16.3866C24.031 17.0667 23.1839 18.3021 23.1836 19.3586C23.1837 20.3491 23.9281 21.4971 25.4215 22.1972L25.7308 22.3323L25.7601 22.3437C26.478 22.6511 27.3566 22.7749 28.3333 22.775H28.3512C28.6219 20.1501 28.6204 18.5675 28.3496 15.9423H28.3333Z" fill="#FAFAFA"/>
<path d="M6.7334 18.1086C7.42361 18.1087 7.98323 18.6684 7.9834 19.3586C7.9833 20.0489 7.42365 20.6086 6.7334 20.6086H5C4.30971 20.6086 3.7501 20.0489 3.75 19.3586C3.75017 18.6684 4.30975 18.1086 5 18.1086H6.7334Z" fill="#FAFAFA"/>
<path d="M35 18.1086C35.6902 18.1087 36.2498 18.6684 36.25 19.3586C36.2499 20.0489 35.6903 20.6086 35 20.6086H33.2666C32.5763 20.6086 32.0167 20.0489 32.0166 19.3586C32.0168 18.6684 32.5763 18.1086 33.2666 18.1086H35Z" fill="#FAFAFA"/>
<path d="M5.18229 11.1425C5.67045 10.6543 6.46171 10.6543 6.94987 11.1425L8.28288 12.4755C8.77059 12.9637 8.77089 13.7551 8.28288 14.2431C7.79484 14.7307 7.00338 14.7307 6.5153 14.2431L5.18229 12.9101C4.69425 12.422 4.69448 11.6307 5.18229 11.1425Z" fill="#FAFAFA"/>
<path d="M33.0501 11.1425C33.5382 10.6544 34.3295 10.6545 34.8177 11.1425C35.3055 11.6307 35.3058 12.422 34.8177 12.9101L33.4847 14.2431C32.9966 14.731 32.2053 14.7309 31.7171 14.2431C31.2292 13.7549 31.2292 12.9636 31.7171 12.4755L33.0501 11.1425Z" fill="#FAFAFA"/>
</svg>
