<svg width="40" height="40" viewBox="0 0 40 40" fill="none" xmlns="http://www.w3.org/2000/svg">
<path fill-rule="evenodd" clip-rule="evenodd" d="M31.8132 3.33325C31.8238 3.33344 31.8363 3.33439 31.8506 3.33488C31.8803 3.33592 31.9186 3.33808 31.9629 3.34139C32.0514 3.348 32.1701 3.35967 32.3079 3.38371C32.5779 3.43084 32.9562 3.52701 33.348 3.73201C33.7459 3.94027 34.173 4.26993 34.4971 4.77856C34.8245 5.29258 35 5.91761 35 6.63892V33.387C34.9998 33.3973 34.9988 33.4102 34.9984 33.4244L34.998 33.4349C34.9972 33.4624 34.9961 33.4963 34.9935 33.5351C34.9875 33.6229 34.9764 33.7405 34.9544 33.8785C34.9113 34.1492 34.8219 34.5313 34.6322 34.9283C34.4407 35.3288 34.1308 35.7762 33.6361 36.1213C33.1305 36.4738 32.5069 36.6666 31.7855 36.6666H8.18685C8.17622 36.6664 8.16371 36.6655 8.14941 36.665C8.11968 36.6639 8.08141 36.6618 8.03711 36.6584C7.94863 36.6518 7.82991 36.6402 7.69206 36.6161C7.42205 36.569 7.04383 36.4728 6.65202 36.2678C6.25408 36.0596 5.82705 35.7299 5.50293 35.2213C5.17547 34.7073 5 34.0822 5 33.3609V6.61287C5.00016 6.60252 5.00117 6.58968 5.00163 6.57544C5.00256 6.54637 5.00351 6.5087 5.00651 6.46476C5.01252 6.37694 5.02362 6.25929 5.04557 6.12134C5.08869 5.8506 5.17813 5.46858 5.36784 5.07153C5.55928 4.67105 5.86916 4.22367 6.36393 3.8785C6.86949 3.52601 7.49305 3.33325 8.21452 3.33325H31.8132ZM7.5 33.3609V22.2786H32.5V33.3446L32.4984 33.3642L32.4981 33.3676C32.4964 33.3925 32.4936 33.4344 32.4854 33.4862C32.4671 33.6006 32.4319 33.7327 32.3763 33.8492C32.3222 33.9625 32.2629 34.0305 32.2054 34.0706C32.1582 34.1033 32.0447 34.1666 31.7855 34.1666H8.22266C8.20362 34.1652 8.16776 34.1616 8.12174 34.1536C8.02355 34.1364 7.9098 34.1044 7.81087 34.0527C7.71821 34.0041 7.65471 33.9475 7.61068 33.8785C7.56984 33.8144 7.5 33.6674 7.5 33.3609ZM32.5 19.7786H7.5V16.1116H32.5V19.7786ZM7.7946 5.92928C7.84175 5.89652 7.95532 5.83325 8.21452 5.83325H31.7773C31.7964 5.83469 31.8322 5.83825 31.8783 5.84627C31.9765 5.86342 32.0902 5.89542 32.1891 5.94718C32.2818 5.99573 32.3453 6.05234 32.3893 6.12134C32.4302 6.18544 32.5 6.33245 32.5 6.63892V13.6116H30.9668C30.9914 13.5063 31.0117 13.4095 31.0254 13.3235C31.0474 13.1852 31.0584 13.0664 31.0645 12.9784C31.0647 12.9743 31.065 12.9703 31.0653 12.9663C31.0679 12.9281 31.0701 12.8955 31.071 12.8694V12.8059V10.7502C31.071 10.0291 30.897 9.40386 30.5697 8.88989C30.2455 8.38103 29.817 8.05163 29.4189 7.84334C29.027 7.63834 28.6489 7.54212 28.3789 7.49504C28.2414 7.47107 28.1238 7.45934 28.0355 7.45272C27.9911 7.4494 27.953 7.44725 27.9232 7.44621C27.9167 7.44598 27.9105 7.44568 27.9047 7.44539C27.8972 7.44502 27.8903 7.44468 27.8841 7.44458H23.929C23.2076 7.44458 22.584 7.63734 22.0784 7.98983C21.5837 8.33499 21.2738 8.78241 21.0824 9.18286C20.8927 9.57985 20.8032 9.96197 20.7601 10.2327C20.7382 10.3705 20.727 10.4883 20.721 10.5761C20.7184 10.6149 20.7173 10.649 20.7165 10.6764C20.7164 10.68 20.7161 10.6868 20.7161 10.6868C20.7159 10.6934 20.7156 10.6997 20.7153 10.7056C20.7149 10.7124 20.7146 10.7187 20.7145 10.7242V10.7502V12.8059C20.7145 13.0897 20.743 13.3584 20.7959 13.6116H19.1813C19.2059 13.5063 19.2262 13.4095 19.2399 13.3235C19.2619 13.1851 19.273 13.0664 19.279 12.9784L19.2798 12.9663C19.2824 12.9281 19.2846 12.8955 19.2855 12.8694V12.8059V10.7502C19.2855 10.0292 19.1114 9.40379 18.7842 8.88989C18.4602 8.3813 18.0313 8.05165 17.6335 7.84334C17.2419 7.63854 16.8633 7.54217 16.5934 7.49504C16.4564 7.47114 16.3383 7.45935 16.25 7.45272C16.206 7.44943 16.1674 7.44726 16.1377 7.44621C16.1312 7.44598 16.125 7.44568 16.119 7.44539C16.1116 7.44503 16.1046 7.4447 16.0986 7.44458H12.1436C11.4223 7.44458 10.7984 7.63754 10.293 7.98983C9.79826 8.33496 9.48832 8.78242 9.29688 9.18286C9.10717 9.57991 9.01773 9.96193 8.97461 10.2327C8.95266 10.3706 8.94156 10.4883 8.93555 10.5761C8.9329 10.6149 8.93184 10.6489 8.93099 10.6763C8.93088 10.6799 8.93077 10.6834 8.93066 10.6868C8.93045 10.6934 8.93012 10.6997 8.92981 10.7056C8.92945 10.7124 8.92912 10.7187 8.92904 10.7242V10.7502L9.15113 10.7505L10.179 10.7502C9.63216 10.7502 9.32436 10.7504 9.15113 10.7505C8.96276 10.7505 8.93351 10.7506 8.92904 10.7502V12.8059C8.92906 13.0897 8.95588 13.3585 9.00879 13.6116H7.5V6.65519L7.50163 6.63566L7.50186 6.63228C7.50355 6.60733 7.50639 6.56544 7.51465 6.51359C7.53291 6.39919 7.56809 6.26718 7.6237 6.15063C7.67782 6.03737 7.73714 5.96937 7.7946 5.92928ZM8.92904 10.7502L9.15113 10.7505L10.179 10.7502C9.63216 10.7502 9.32436 10.7504 9.15113 10.7505C8.96276 10.7505 8.93351 10.7506 8.92904 10.7502ZM11.7236 10.0406C11.7711 10.0078 11.8852 9.94458 12.1436 9.94458H16.0628C16.0819 9.94603 16.1183 9.94969 16.1637 9.9576C16.2618 9.97476 16.3759 10.0069 16.4746 10.0585C16.5669 10.1069 16.6308 10.1639 16.6748 10.2327C16.7157 10.297 16.7855 10.4446 16.7855 10.7502V12.7929L16.7871 12.7896L16.7855 12.8092C16.7838 12.8336 16.7794 12.8759 16.7708 12.9296C16.7526 13.044 16.719 13.1775 16.6634 13.2942C16.6094 13.4072 16.5498 13.4754 16.4925 13.5155C16.4457 13.5481 16.3316 13.6113 16.0726 13.6116H12.1647C12.1647 13.6116 12.1584 13.6105 12.1517 13.6099C12.1327 13.6085 12.0963 13.6048 12.0508 13.5969C11.9529 13.5798 11.8386 13.5475 11.7399 13.496C11.6476 13.4476 11.5837 13.3906 11.5397 13.3219C11.4988 13.2575 11.4291 13.1111 11.429 12.8059V10.7665L11.4307 10.747L11.4309 10.7437C11.4326 10.7188 11.4354 10.6768 11.4437 10.6249C11.4619 10.5105 11.4971 10.3785 11.5527 10.262C11.6068 10.1488 11.6662 10.0807 11.7236 10.0406ZM23.5091 10.0406C23.5563 10.0078 23.6698 9.94458 23.929 9.94458H27.8483C27.8672 9.94599 27.9031 9.94957 27.9492 9.9576C28.0474 9.97473 28.1611 10.0068 28.2601 10.0585C28.3528 10.107 28.4162 10.1637 28.4603 10.2327C28.5011 10.2968 28.571 10.444 28.571 10.7502V12.7929L28.5726 12.7896L28.571 12.8092C28.5693 12.8336 28.5648 12.876 28.5563 12.9296C28.5381 13.0441 28.5045 13.1775 28.4489 13.2942C28.3948 13.4074 28.3354 13.4755 28.278 13.5155C28.2311 13.5482 28.1175 13.6115 27.8581 13.6116H23.9502C23.9502 13.6116 23.9444 13.6105 23.9372 13.6099C23.9181 13.6085 23.8822 13.6049 23.8363 13.5969C23.7381 13.5798 23.6242 13.5477 23.5254 13.496C23.433 13.4475 23.3691 13.3908 23.3252 13.3219C23.2843 13.2575 23.2146 13.1111 23.2145 12.8059V10.7665L23.2161 10.747L23.2164 10.7438C23.2181 10.7189 23.2209 10.6768 23.2292 10.6249C23.2474 10.5106 23.2827 10.3785 23.3382 10.262C23.3923 10.1488 23.4517 10.0807 23.5091 10.0406Z" fill="#FAFAFA"/>
<path fill-rule="evenodd" clip-rule="evenodd" d="M9.15113 10.7505C8.96276 10.7505 8.93351 10.7506 8.92904 10.7502H10.179L9.15113 10.7505Z" fill="#FAFAFA"/>
</svg>
