<svg width="40" height="40" viewBox="0 0 40 40" fill="none" xmlns="http://www.w3.org/2000/svg">
<path fill-rule="evenodd" clip-rule="evenodd" d="M19.3213 13.3464C19.9184 12.5978 20.9327 12.3044 21.8457 12.6351C22.8212 12.9895 23.4263 13.9642 23.3154 14.9919L23.0208 17.7067L24.515 18.0599C25.1398 18.207 25.6672 18.6122 25.9717 19.1667L26.0889 19.4124L26.1735 19.6712C26.3361 20.2823 26.2352 20.9402 25.8854 21.4779L19.917 30.6445C19.3346 31.5384 18.2038 31.9013 17.2103 31.512C16.2165 31.1217 15.6336 30.0852 15.8154 29.0332L16.5137 24.9854L15.1921 24.4759C14.5551 24.2306 14.0629 23.7091 13.8558 23.0583C13.6484 22.4059 13.7505 21.6963 14.1276 21.1296L19.2074 13.5026L19.3213 13.3464ZM16.3802 22.2559L18.3708 23.0208C18.9272 23.2352 19.2553 23.8134 19.1536 24.401L18.4847 28.2617L23.5954 20.4118L21.3737 19.8893C20.7596 19.7449 20.349 19.164 20.4167 18.5368L20.7194 15.7389L16.3802 22.2559Z" fill="#FAFAFA"/>
<path fill-rule="evenodd" clip-rule="evenodd" d="M25.2474 3.49121C27.7091 3.49204 29.7117 5.43411 29.8193 7.86947H31.6667C33.5076 7.86947 35 9.36185 35 11.2028V32.8695C34.9996 34.71 33.5073 36.2028 31.6667 36.2028H8.33333L7.99316 36.1849C6.3123 36.0145 5.00041 34.5952 5 32.8695V11.2028C5 9.36185 6.49238 7.86947 8.33333 7.86947H10.1807C10.2882 5.43359 12.2919 3.49121 14.7542 3.49121H25.2474ZM8.33333 10.3695C7.8731 10.3695 7.5 10.7426 7.5 11.2028V32.8695C7.50044 33.3293 7.87337 33.7028 8.33333 33.7028H31.6667C32.1266 33.7028 32.4996 33.3293 32.5 32.8695V11.2028C32.5 10.7426 32.1269 10.3695 31.6667 10.3695H8.33333ZM14.7542 5.99121C13.673 5.99121 12.7839 6.81528 12.6807 7.86947H27.3193C27.2161 6.81579 26.3279 5.99201 25.2474 5.99121H14.7542Z" fill="#FAFAFA"/>
</svg>
