<svg width="40" height="40" viewBox="0 0 40 40" fill="none" xmlns="http://www.w3.org/2000/svg">
<path d="M13.2243 13.2245C13.7125 12.7366 14.5038 12.7364 14.9919 13.2245C15.4795 13.7126 15.4796 14.504 14.9919 14.9921C13.6637 16.3203 12.9168 18.1219 12.9167 20.0002C12.9167 21.8787 13.6635 23.6816 14.9919 25.01C15.4793 25.4981 15.4797 26.2896 14.9919 26.7775C14.5039 27.2654 13.7124 27.265 13.2243 26.7775C11.7244 25.2777 10.7752 23.3306 10.5013 21.2502H5C4.30973 21.2502 3.75014 20.6904 3.75 20.0002C3.75 19.3098 4.30964 18.7502 5 18.7502H10.5013C10.7752 16.6702 11.7245 14.7243 13.2243 13.2245Z" fill="#FAFAFA"/>
<path d="M25.0081 13.2229C25.4961 12.7352 26.2876 12.7354 26.7757 13.2229C28.2757 14.7229 29.2249 16.6698 29.4987 18.7502H35C35.6904 18.7502 36.25 19.3098 36.25 20.0002C36.2499 20.6904 35.6903 21.2502 35 21.2502H29.4987C29.2247 23.3301 28.2752 25.2763 26.7757 26.7759C26.2875 27.2636 25.4961 27.2639 25.0081 26.7759C24.5206 26.2879 24.5206 25.4964 25.0081 25.0083C26.3363 23.68 27.0833 21.8771 27.0833 19.9986C27.083 18.1204 26.3362 16.3185 25.0081 14.9904C24.5207 14.5023 24.5205 13.7108 25.0081 13.2229Z" fill="#FAFAFA"/>
<path d="M19.5182 15.3957C19.7979 15.1529 20.2021 15.1529 20.4818 15.3957C21.4051 16.1973 23.3333 18.0988 23.3333 20.0002C23.3333 20.8842 22.9818 21.7319 22.3568 22.357C21.7317 22.982 20.884 23.3335 20 23.3335C19.116 23.3335 18.2683 22.982 17.6432 22.357C17.0182 21.7319 16.6667 20.8842 16.6667 20.0002C16.6667 18.0988 18.5949 16.1973 19.5182 15.3957Z" fill="#FAFAFA"/>
</svg>
