<svg width="40" height="40" viewBox="0 0 40 40" fill="none" xmlns="http://www.w3.org/2000/svg">
<path fill-rule="evenodd" clip-rule="evenodd" d="M29.5571 7.16495C30.1495 6.9401 30.8268 7.19632 31.1163 7.77531C31.4247 8.39268 31.1753 9.14309 30.558 9.45174L28.3608 10.5487C28.28 10.5898 28.215 10.6577 28.1752 10.7392C28.1355 10.8211 28.1231 10.9152 28.1411 11.0045L28.9435 15.0214C28.9448 15.0285 28.9472 15.0354 28.9483 15.0426L30.0226 20.4153C31.6716 20.4214 33.2521 21.0799 34.4187 22.2463C35.5905 23.4182 36.2495 25.0081 36.2498 26.6653C36.2498 27.9012 35.8832 29.1109 35.1967 30.1386C34.5102 31.166 33.5338 31.9669 32.3924 32.44C31.2505 32.913 29.9929 33.0375 28.7807 32.7965C27.5685 32.5554 26.4548 31.9597 25.5808 31.0859C24.707 30.212 24.1115 29.098 23.8702 27.886C23.6292 26.6738 23.7522 25.4162 24.225 24.2743C24.6981 23.1325 25.5005 22.1566 26.5281 21.47C26.8585 21.2493 27.2089 21.0649 27.5714 20.9117L26.8487 17.2952L15.8217 24.3997C16.1003 25.1153 16.2496 25.8825 16.2498 26.6653C16.2498 27.9012 15.8832 29.1109 15.1967 30.1386C14.5102 31.166 13.5338 31.9669 12.3924 32.44C11.2505 32.913 9.99289 33.0375 8.7807 32.7965C7.56854 32.5554 6.45483 31.9597 5.58083 31.0859C4.70697 30.212 4.11147 29.098 3.87022 27.886C3.62919 26.6738 3.75215 25.4162 4.22503 24.2743C4.69811 23.1325 5.50046 22.1566 6.5281 21.47C7.55577 20.7835 8.76388 20.4153 9.99977 20.4153C11.6571 20.4154 13.2467 21.0746 14.4187 22.2463C14.4354 22.263 14.4511 22.2815 14.4675 22.2984L17.4965 20.3453L16.4077 14.914C16.3878 14.8193 16.3351 14.7335 16.2595 14.6731C16.1836 14.6126 16.088 14.58 15.991 14.5819H13.3331C12.6428 14.5819 12.0831 14.0223 12.0831 13.3319C12.0837 12.6421 12.6431 12.0819 13.3331 12.0819H15.9666C16.6399 12.0743 17.2958 12.3007 17.822 12.7216C18.288 13.0944 18.6265 13.6004 18.7953 14.1685L18.8572 14.4159L18.8588 14.4192L19.754 18.8902L26.3214 14.6584L25.6899 11.496C25.5642 10.8704 25.6469 10.2194 25.9259 9.64542C26.2051 9.07147 26.6663 8.60486 27.2361 8.3173L29.4399 7.21541L29.5571 7.16495ZM9.99977 22.9153C9.2583 22.9153 8.53302 23.1366 7.91644 23.5484C7.30002 23.9604 6.81844 24.5465 6.53461 25.2314C6.25105 25.9163 6.17685 26.6706 6.32139 27.3977C6.46609 28.1251 6.82402 28.7939 7.34841 29.3183C7.87278 29.8425 8.54178 30.199 9.26898 30.3437C9.9961 30.4881 10.7504 30.4141 11.4353 30.1304C12.1201 29.8466 12.7064 29.365 13.1183 28.7486C13.5298 28.1322 13.7498 27.4065 13.7498 26.6653C13.7497 26.3727 13.7102 26.0844 13.644 25.8043L10.6769 27.7167C10.0966 28.0906 9.32229 27.9227 8.94834 27.3424C8.57523 26.7622 8.74281 25.9892 9.32269 25.6155L12.2914 23.7014C11.6384 23.1965 10.8341 22.9154 9.99977 22.9153ZM31.2254 26.4211L31.2433 26.5481C31.304 27.1787 30.8785 27.7656 30.2439 27.8925C29.6097 28.019 28.9917 27.6413 28.8051 27.0364L28.7726 26.9127L28.0792 23.4475C28.0245 23.4802 27.9696 23.5129 27.9164 23.5484C27.3 23.9604 26.8184 24.5465 26.5346 25.2314C26.2511 25.9163 26.1769 26.6706 26.3214 27.3977C26.4661 28.1251 26.824 28.7939 27.3484 29.3183C27.8728 29.8425 28.5418 30.199 29.269 30.3437C29.9961 30.4881 30.7504 30.4141 31.4353 30.1304C32.1201 29.8466 32.7064 29.365 33.1183 28.7486C33.5298 28.1322 33.7498 27.4065 33.7498 26.6653C33.7495 25.6711 33.3541 24.7169 32.6511 24.0139C32.0748 23.4378 31.3293 23.0722 30.532 22.9576L31.2254 26.4211Z" fill="#FAFAFA"/>
</svg>
