<svg width="40" height="40" viewBox="0 0 40 40" fill="none" xmlns="http://www.w3.org/2000/svg">
<path fill-rule="evenodd" clip-rule="evenodd" d="M21.2062 6.34978C20.5251 5.6601 19.4736 5.6601 18.7925 6.34978C17.0937 8.07011 14.6612 10.76 12.6611 13.8463C10.6433 16.9601 9.16602 20.3253 9.16602 23.4272C9.16602 29.3501 14.0072 34.1679 19.9993 34.1679C25.9915 34.1679 30.8327 29.3501 30.8327 23.4272C30.8327 20.3253 29.3554 16.9601 27.3376 13.8463C25.3375 10.76 22.905 8.07011 21.2062 6.34978ZM17.0136 4.59318C18.6735 2.9123 21.3252 2.9123 22.9851 4.59318C24.746 6.3765 27.3071 9.20228 29.4356 12.4868C31.5463 15.7438 33.3327 19.6047 33.3327 23.4272C33.3327 30.7489 27.3541 36.6679 19.9993 36.6679C12.6446 36.6679 6.66602 30.7489 6.66602 23.4272C6.66602 19.6047 8.45241 15.7438 10.5631 12.4868C12.6916 9.20228 15.2527 6.3765 17.0136 4.59318Z" fill="#FAFAFA"/>
<path d="M20.0002 15.7634C20.6901 15.7639 21.2502 16.3233 21.2502 17.0134V17.5977L21.7824 17.0671C22.2706 16.5791 23.0619 16.579 23.55 17.0671C24.0376 17.5553 24.0378 18.3467 23.55 18.8347L21.2502 21.1329V22.0232L22.1584 22.0216L24.4484 19.7332C24.9365 19.2453 25.7279 19.2454 26.216 19.7332C26.704 20.2212 26.7039 21.0126 26.216 21.5007L25.6984 22.0167H26.2762C26.9663 22.0158 27.5265 22.5751 27.5278 23.2651C27.5287 23.9554 26.9698 24.5158 26.2795 24.5167H25.6659L26.216 25.0668L26.3022 25.1612C26.7028 25.6521 26.6735 26.3767 26.216 26.8344C25.7585 27.2913 25.0352 27.3203 24.5444 26.9207L24.4484 26.8344L22.1372 24.5216L21.2502 24.5232V25.433L23.55 27.7328L23.6362 27.8289C24.0357 28.3196 24.0069 29.043 23.55 29.5004C23.0923 29.958 22.3678 29.987 21.8768 29.5867L21.7824 29.5004L21.2502 28.9682V29.5541C21.2502 30.2442 20.6901 30.8037 20.0002 30.8041C19.3098 30.8041 18.7502 30.2445 18.7502 29.5541V28.9649L18.2163 29.5004C17.7282 29.9885 16.9369 29.9883 16.4487 29.5004C15.9609 29.0122 15.9607 28.2209 16.4487 27.7328L18.7502 25.4314V24.5264H17.8534L15.5487 26.8344C15.0605 27.3221 14.2691 27.3223 13.7811 26.8344C13.2936 26.3463 13.2935 25.5548 13.7811 25.0668L14.3149 24.5313L13.7388 24.533C13.0484 24.5339 12.488 23.9749 12.4871 23.2846C12.4867 22.5946 13.0454 22.0339 13.7355 22.033L14.3117 22.0313L13.7811 21.5007C13.2935 21.0126 13.2933 20.2212 13.7811 19.7332C14.2691 19.2452 15.0605 19.2455 15.5487 19.7332L17.842 22.0264H18.7502V21.1361L16.4487 18.8347C15.9606 18.3466 15.9608 17.5553 16.4487 17.0671C16.9369 16.579 17.7282 16.579 18.2163 17.0671L18.7502 17.601V17.0134C18.7502 16.3231 19.3098 15.7634 20.0002 15.7634Z" fill="#FAFAFA"/>
</svg>
