<svg width="40" height="40" viewBox="0 0 40 40" fill="none" xmlns="http://www.w3.org/2000/svg">
<path d="M28.3385 30.3241C29.0289 30.3241 29.5885 30.8837 29.5885 31.5741C29.5881 32.264 29.0286 32.8241 28.3385 32.8241C27.6484 32.8241 27.089 32.264 27.0885 31.5741C27.0885 30.8837 27.6482 30.3241 28.3385 30.3241Z" fill="#FAFAFA"/>
<path d="M28.3385 23.8055C29.0289 23.8055 29.5885 24.3651 29.5885 25.0555V28.3384C29.5885 29.0287 29.0289 29.5884 28.3385 29.5884C27.6482 29.5884 27.0885 29.0287 27.0885 28.3384V25.0555C27.0885 24.3651 27.6482 23.8055 28.3385 23.8055Z" fill="#FAFAFA"/>
<path fill-rule="evenodd" clip-rule="evenodd" d="M28.3385 19.9904C32.746 19.9904 36.3524 23.4102 36.654 27.741C36.6679 27.9384 36.6768 28.1375 36.6768 28.3384C36.6768 32.9434 32.9436 36.6766 28.3385 36.6766C23.7335 36.6766 20.0003 32.9434 20.0003 28.3384C20.0003 28.1375 20.0108 27.9384 20.0247 27.741C20.3264 23.4103 23.9311 19.9904 28.3385 19.9904ZM28.3385 22.5002C25.2621 22.5002 22.7446 24.8799 22.5199 27.8989C22.5095 28.0409 22.5003 28.184 22.5003 28.3286C22.5003 31.553 25.1142 34.1668 28.3385 34.1668C31.5629 34.1668 34.1768 31.553 34.1768 28.3286C34.1768 28.184 34.1692 28.0409 34.1589 27.8989C33.9341 24.8799 31.415 22.5002 28.3385 22.5002Z" fill="#FAFAFA"/>
<path d="M28.7503 3.3335C31.2816 3.3335 33.3337 5.38553 33.3337 7.91683V17.077C33.3337 17.7673 32.774 18.327 32.0837 18.327C31.3933 18.327 30.8337 17.7673 30.8337 17.077V7.91683C30.8337 6.76624 29.9009 5.8335 28.7503 5.8335H11.2503C10.0997 5.8335 9.16699 6.76623 9.16699 7.91683V32.0835C9.16699 33.2341 10.0997 34.1668 11.2503 34.1668H17.0837C17.774 34.1668 18.3337 34.7265 18.3337 35.4168C18.3337 36.1072 17.774 36.6668 17.0837 36.6668H11.2503C8.71902 36.6668 6.66699 34.6148 6.66699 32.0835V7.91683C6.66699 5.38552 8.71902 3.3335 11.2503 3.3335H28.7503Z" fill="#FAFAFA"/>
<path d="M18.7503 16.6668C19.4407 16.6668 20.0003 17.2265 20.0003 17.9168C20.0003 18.6072 19.4407 19.1668 18.7503 19.1668H14.5837C13.8933 19.1668 13.3337 18.6072 13.3337 17.9168C13.3337 17.2265 13.8933 16.6668 14.5837 16.6668H18.7503Z" fill="#FAFAFA"/>
<path d="M25.417 10.0002C26.1073 10.0002 26.667 10.5598 26.667 11.2502C26.667 11.9405 26.1073 12.5002 25.417 12.5002H14.5837C13.8933 12.5002 13.3337 11.9405 13.3337 11.2502C13.3337 10.5598 13.8933 10.0002 14.5837 10.0002H25.417Z" fill="#FAFAFA"/>
</svg>
