<svg width="40" height="40" viewBox="0 0 40 40" fill="none" xmlns="http://www.w3.org/2000/svg">
<path d="M12.4997 11.6667C13.1901 11.6667 13.7497 12.2264 13.7497 12.9167C13.7497 13.607 13.1901 14.1667 12.4997 14.1667H6.66641C6.20634 14.1669 5.83308 14.5399 5.83308 15.0001V31.6667C5.83335 32.1266 6.2065 32.4999 6.66641 32.5001H33.3331C33.7931 32.5001 34.1661 32.1267 34.1664 31.6667V15.0001C34.1664 14.5398 33.7933 14.1667 33.3331 14.1667H27.4997C26.8095 14.1667 26.2498 13.607 26.2497 12.9167C26.2497 12.2264 26.8095 11.6668 27.4997 11.6667H33.3331L33.6732 11.6846C35.3544 11.8551 36.6664 13.274 36.6664 15.0001V16.1703C37.5674 16.1845 38.297 16.9145 38.3054 17.8207L38.3607 28.7842C38.3688 29.7044 37.629 30.4572 36.7087 30.4656C36.6947 30.4657 36.6804 30.4642 36.6664 30.4639V31.6667C36.6662 33.3926 35.3542 34.8117 33.6732 34.9822L33.3331 35.0001H6.66641C4.94065 34.9999 3.52163 33.6877 3.35098 32.0069L3.33308 31.6667V30.4639C2.43254 30.4494 1.70286 29.7208 1.69408 28.8152L1.63874 17.8516C1.63036 16.9313 2.37052 16.1789 3.29076 16.1703C3.30477 16.1702 3.31915 16.1701 3.33308 16.1703V15.0001C3.33308 13.1592 4.82562 11.6669 6.66641 11.6667H12.4997Z" fill="#FAFAFA"/>
<path d="M29.4187 26.9369C30.109 26.9369 30.6687 27.4966 30.6687 28.1869C30.6682 28.8769 30.1087 29.4369 29.4187 29.4369H10.5792C9.88928 29.4367 9.32966 28.8767 9.32917 28.1869C9.32917 27.4967 9.88898 26.9371 10.5792 26.9369H29.4187Z" fill="#FAFAFA"/>
<path d="M29.4187 22.0834C30.109 22.0834 30.6687 22.643 30.6687 23.3334C30.6684 24.0235 30.1089 24.5834 29.4187 24.5834H10.5792C9.88915 24.5832 9.32944 24.0234 9.32917 23.3334C9.32917 22.6432 9.88898 22.0836 10.5792 22.0834H29.4187Z" fill="#FAFAFA"/>
<path d="M29.4187 17.2299C30.109 17.2299 30.6687 17.7895 30.6687 18.4799C30.6686 19.1702 30.109 19.7299 29.4187 19.7299H10.5792C9.88901 19.7297 9.32922 19.1701 9.32917 18.4799C9.32917 17.7896 9.88898 17.2301 10.5792 17.2299H29.4187Z" fill="#FAFAFA"/>
<path d="M24.9493 2.44961C25.4374 1.96146 26.2287 1.96146 26.7169 2.44961L29.2169 4.94961C29.705 5.43777 29.705 6.22904 29.2169 6.71719L26.7169 9.21719C26.2287 9.70526 25.4374 9.70531 24.9493 9.21719C24.4612 8.72906 24.4612 7.93777 24.9493 7.44961L25.3155 7.0834H23.3331C22.1825 7.08344 21.2497 8.01617 21.2497 9.16674V11.1492L21.616 10.7829C22.1041 10.2948 22.8954 10.2948 23.3835 10.7829C23.8717 11.2711 23.8717 12.0624 23.3835 12.5505L20.8835 15.0505C20.8025 15.1315 20.7099 15.1934 20.615 15.2475C20.5697 15.2733 20.5252 15.3006 20.4766 15.3207C20.4232 15.3428 20.3677 15.3568 20.3122 15.3712C20.2904 15.3768 20.2695 15.3862 20.2471 15.3907C20.2379 15.3925 20.2287 15.3939 20.2195 15.3956C20.1481 15.4083 20.0748 15.4167 19.9997 15.4167C19.9247 15.4167 19.8514 15.4083 19.78 15.3956C19.7703 15.3938 19.7604 15.3927 19.7507 15.3907C19.7284 15.3862 19.7075 15.3768 19.6856 15.3712C19.6302 15.3568 19.5746 15.3428 19.5212 15.3207C19.4374 15.2859 19.3587 15.2419 19.2852 15.1905C19.2261 15.1491 19.1688 15.1033 19.116 15.0505L16.616 12.5505C16.1278 12.0624 16.1279 11.2711 16.616 10.7829C17.1041 10.2948 17.8954 10.2948 18.3835 10.7829L18.7497 11.1492V9.16674C18.7497 8.01614 17.817 7.0834 16.6664 7.0834H14.684L15.0502 7.44961C15.5383 7.93777 15.5384 8.72904 15.0502 9.21719C14.562 9.70526 13.7708 9.70531 13.2826 9.21719L10.7826 6.71719C10.2945 6.22906 10.2945 5.43777 10.7826 4.94961L13.2826 2.44961C13.7708 1.96146 14.562 1.96146 15.0502 2.44961C15.5383 2.93777 15.5384 3.72904 15.0502 4.21719L14.684 4.5834H16.6664C17.9814 4.5834 19.1639 5.14004 19.9997 6.02709C20.8355 5.14001 22.0181 4.58342 23.3331 4.5834H25.3155L24.9493 4.21719C24.4612 3.72906 24.4612 2.93777 24.9493 2.44961Z" fill="#FAFAFA"/>
</svg>
