<svg width="40" height="40" viewBox="0 0 40 40" fill="none" xmlns="http://www.w3.org/2000/svg">
<path d="M32.9652 22.3716C33.6554 22.3717 34.2152 22.9313 34.2152 23.6216C34.2152 31.5091 27.8583 37.9168 20.0013 37.9168C12.1446 37.9164 5.78906 31.5088 5.78906 23.6216C5.78906 22.9312 6.34871 22.3716 7.03906 22.3716C7.72942 22.3716 8.28906 22.9312 8.28906 23.6216C8.28906 30.143 13.5402 35.4164 20.0013 35.4168C26.4628 35.4168 31.7152 30.1433 31.7152 23.6216C31.7152 22.9312 32.2748 22.3716 32.9652 22.3716Z" fill="#FAFAFA"/>
<path d="M8.33464 16.6668C8.80686 16.6668 9.20334 16.8259 9.52279 17.1453C9.84223 17.4648 10.0013 17.8613 10.0013 18.3335C10.0013 18.8057 9.84223 19.2022 9.52279 19.5216C9.20334 19.8411 8.80686 20.0002 8.33464 20.0002C7.86241 20.0002 7.46593 19.8411 7.14648 19.5216C6.82704 19.2022 6.66797 18.8057 6.66797 18.3335C6.66797 17.8613 6.82704 17.4648 7.14648 17.1453C7.46593 16.8259 7.86241 16.6668 8.33464 16.6668Z" fill="#FAFAFA"/>
<path d="M15.8346 16.6668C16.3069 16.6668 16.7033 16.8259 17.0228 17.1453C17.3422 17.4648 17.5013 17.8613 17.5013 18.3335C17.5013 18.8057 17.3422 19.2022 17.0228 19.5216C16.7033 19.8411 16.3069 20.0002 15.8346 20.0002C15.3624 20.0002 14.9659 19.8411 14.6465 19.5216C14.327 19.2022 14.168 18.8057 14.168 18.3335C14.168 17.8613 14.327 17.4648 14.6465 17.1453C14.9659 16.8259 15.3624 16.6668 15.8346 16.6668Z" fill="#FAFAFA"/>
<path d="M24.168 16.6668C24.6402 16.6668 25.0367 16.8259 25.3561 17.1453C25.6756 17.4648 25.8346 17.8613 25.8346 18.3335C25.8346 18.8057 25.6756 19.2022 25.3561 19.5216C25.0367 19.8411 24.6402 20.0002 24.168 20.0002C23.6957 20.0002 23.2993 19.8411 22.9798 19.5216C22.6604 19.2022 22.5013 18.8057 22.5013 18.3335C22.5013 17.8613 22.6604 17.4648 22.9798 17.1453C23.2993 16.8259 23.6957 16.6668 24.168 16.6668Z" fill="#FAFAFA"/>
<path d="M31.668 16.6668C32.1402 16.6668 32.5367 16.8259 32.8561 17.1453C33.1756 17.4648 33.3346 17.8613 33.3346 18.3335C33.3346 18.8057 33.1756 19.2022 32.8561 19.5216C32.5367 19.8411 32.1402 20.0002 31.668 20.0002C31.1957 20.0002 30.7993 19.8411 30.4798 19.5216C30.1604 19.2022 30.0013 18.8057 30.0013 18.3335C30.0013 17.8613 30.1604 17.4648 30.4798 17.1453C30.7993 16.8259 31.1957 16.6668 31.668 16.6668Z" fill="#FAFAFA"/>
<path d="M12.0846 12.0835C12.5569 12.0835 12.9533 12.2426 13.2728 12.562C13.5922 12.8815 13.7513 13.2779 13.7513 13.7502C13.7513 14.2224 13.5922 14.6189 13.2728 14.9383C12.9533 15.2578 12.5569 15.4168 12.0846 15.4168C11.6124 15.4168 11.2159 15.2578 10.8965 14.9383C10.577 14.6189 10.418 14.2224 10.418 13.7502C10.418 13.2779 10.577 12.8815 10.8965 12.562C11.2159 12.2426 11.6124 12.0835 12.0846 12.0835Z" fill="#FAFAFA"/>
<path d="M27.918 12.0835C28.3902 12.0835 28.7867 12.2426 29.1061 12.562C29.4256 12.8815 29.5846 13.2779 29.5846 13.7502C29.5846 14.2224 29.4256 14.6189 29.1061 14.9383C28.7867 15.2578 28.3902 15.4168 27.918 15.4168C27.4457 15.4168 27.0493 15.2578 26.7298 14.9383C26.4104 14.6189 26.2513 14.2224 26.2513 13.7502C26.2513 13.2779 26.4104 12.8815 26.7298 12.562C27.0493 12.2426 27.4457 12.0835 27.918 12.0835Z" fill="#FAFAFA"/>
<path d="M20.0013 11.6668C20.4735 11.6668 20.87 11.8259 21.1895 12.1453C21.5089 12.4648 21.668 12.8613 21.668 13.3335C21.668 13.8057 21.5089 14.2022 21.1895 14.5216C20.87 14.8411 20.4735 15.0002 20.0013 15.0002C19.5291 15.0002 19.1326 14.8411 18.8132 14.5216C18.4937 14.2022 18.3346 13.8057 18.3346 13.3335C18.3346 12.8613 18.4937 12.4648 18.8132 12.1453C19.1326 11.8259 19.5291 11.6668 20.0013 11.6668Z" fill="#FAFAFA"/>
<path d="M15.8346 7.50016C16.3069 7.50016 16.7033 7.65923 17.0228 7.97868C17.3422 8.29812 17.5013 8.69461 17.5013 9.16683C17.5013 9.63905 17.3422 10.0355 17.0228 10.355C16.7033 10.6744 16.3069 10.8335 15.8346 10.8335C15.3624 10.8335 14.9659 10.6744 14.6465 10.355C14.327 10.0355 14.168 9.63905 14.168 9.16683C14.168 8.69461 14.327 8.29812 14.6465 7.97868C14.9659 7.65923 15.3624 7.50016 15.8346 7.50016Z" fill="#FAFAFA"/>
<path d="M24.168 7.50016C24.6402 7.50016 25.0367 7.65923 25.3561 7.97868C25.6756 8.29812 25.8346 8.69461 25.8346 9.16683C25.8346 9.63905 25.6756 10.0355 25.3561 10.355C25.0367 10.6744 24.6402 10.8335 24.168 10.8335C23.6957 10.8335 23.2993 10.6744 22.9798 10.355C22.6604 10.0355 22.5013 9.63905 22.5013 9.16683C22.5013 8.69461 22.6604 8.29812 22.9798 7.97868C23.2993 7.65923 23.6957 7.50016 24.168 7.50016Z" fill="#FAFAFA"/>
<path d="M20.0013 3.3335C20.4735 3.3335 20.87 3.49257 21.1895 3.81201C21.5089 4.13146 21.668 4.52794 21.668 5.00016C21.668 5.47238 21.5089 5.86887 21.1895 6.18831C20.87 6.50776 20.4735 6.66683 20.0013 6.66683C19.5291 6.66683 19.1326 6.50776 18.8132 6.18831C18.4937 5.86887 18.3346 5.47238 18.3346 5.00016C18.3346 4.52794 18.4937 4.13146 18.8132 3.81201C19.1326 3.49257 19.5291 3.3335 20.0013 3.3335Z" fill="#FAFAFA"/>
</svg>
