<svg width="40" height="40" viewBox="0 0 40 40" fill="none" xmlns="http://www.w3.org/2000/svg">
<path fill-rule="evenodd" clip-rule="evenodd" d="M31.6663 5.41677C34.1974 5.41696 36.2496 7.46892 36.2496 10.0001V20.0001C36.2495 21.4244 35.5989 22.6963 34.5797 23.5369C34.5753 24.3257 34.5386 25.2085 34.2444 26.115C33.9143 27.1316 33.2963 28.0908 32.2441 29.048C31.242 29.9595 31.0271 30.1713 30.9127 30.6202C30.764 31.2041 30.8069 32.2331 31.235 34.7934C31.2954 35.1556 31.1938 35.527 30.9566 35.8074C30.7193 36.0877 30.3701 36.2498 30.0029 36.2501H19.1663C18.7843 36.2499 18.4234 36.0745 18.1865 35.7748C17.9495 35.4748 17.862 35.0823 17.9505 34.7104L18.551 32.1892C17.2131 31.4999 16.0538 30.6684 15.2145 29.4304C14.3516 28.1572 13.9108 26.5809 13.7887 24.5639C11.8949 24.3747 10.4165 22.777 10.4163 20.8334C10.4163 18.7624 12.0952 17.0834 14.1663 17.0834H27.083V10.0001C27.083 7.4688 29.135 5.41677 31.6663 5.41677ZM16.2968 24.5834C16.4149 26.2185 16.77 27.2697 17.2848 28.0291C17.9218 28.9683 18.9148 29.6421 20.5139 30.3631C21.0602 30.6096 21.356 31.2107 21.2171 31.7937L20.7499 33.7501H28.5429C28.3104 32.1086 28.2533 30.9361 28.4908 30.0034C28.8278 28.6806 29.7328 27.954 30.5628 27.199C31.3422 26.4899 31.6897 25.8865 31.8665 25.3419C31.9451 25.0993 31.9919 24.8508 32.0244 24.5834H16.2968ZM14.1663 19.5834C13.4759 19.5834 12.9163 20.1431 12.9163 20.8334C12.9165 21.5236 13.476 22.0834 14.1663 22.0834H27.083V19.5834H14.1663ZM31.6663 7.91677C30.5157 7.91677 29.583 8.84951 29.583 10.0001V22.0834H31.6663C32.8166 22.0832 33.7494 21.1504 33.7496 20.0001V10.0001C33.7496 8.84963 32.8167 7.91696 31.6663 7.91677Z" fill="#FAFAFA"/>
<path d="M13.1946 3.75824C13.8806 3.68206 14.4984 4.1758 14.5748 4.86176C14.6509 5.54759 14.1571 6.1654 13.4713 6.24197C11.6247 6.44752 9.90232 7.27515 8.58848 8.58897C7.27466 9.90281 6.44703 11.6252 6.24148 13.4718C6.16492 14.1576 5.5471 14.6514 4.86127 14.5753C4.17531 14.4989 3.68157 13.8811 3.75776 13.1951C4.02611 10.7845 5.10583 8.53649 6.82091 6.82139C8.536 5.10632 10.784 4.0266 13.1946 3.75824Z" fill="#FAFAFA"/>
<path d="M13.2516 8.75336C13.9401 8.70894 14.5348 9.23024 14.5797 9.91873C14.6241 10.6072 14.1026 11.2018 13.4143 11.2469C12.8505 11.2834 12.3188 11.5239 11.9202 11.9223C11.5218 12.3207 11.2819 12.8506 11.2464 13.4116C11.2027 14.1001 10.61 14.6231 9.92149 14.5802C9.23282 14.5367 8.70989 13.9439 8.75287 13.2553C8.82669 12.0862 9.32413 10.9832 10.1526 10.1547C10.9808 9.32666 12.0827 8.82922 13.2516 8.75336Z" fill="#FAFAFA"/>
</svg>
