<svg width="40" height="40" viewBox="0 0 40 40" fill="none" xmlns="http://www.w3.org/2000/svg">
<path fill-rule="evenodd" clip-rule="evenodd" d="M16.7564 4.91446C17.2573 3.94208 18.2609 3.3335 19.3513 3.3335C22.16 3.3335 24.3216 5.83969 23.8877 8.6229L23.1532 13.3335H30.4312C34.2577 13.3335 37.1858 16.7409 36.6101 20.5238L35.2152 29.6904C34.7505 32.744 32.125 35.0002 29.0363 35.0002H6.24967C4.63884 35.0002 3.33301 33.6943 3.33301 32.0835V19.5835C3.33301 17.9727 4.63884 16.6668 6.24967 16.6668H10.7021L16.7564 4.91446ZM9.99967 19.1668H6.24967C6.01956 19.1668 5.83301 19.3534 5.83301 19.5835V32.0835C5.83301 32.3136 6.01956 32.5002 6.24967 32.5002H9.99967V19.1668ZM12.4997 32.5002H29.0363C30.8895 32.5002 32.4648 31.1464 32.7436 29.3143L34.1386 20.1477C34.484 17.8779 32.7271 15.8335 30.4312 15.8335H21.6932C21.3281 15.8335 20.9812 15.6738 20.7437 15.3965C20.5062 15.1191 20.4019 14.7517 20.4581 14.3909L21.4175 8.23777C21.6138 6.97849 20.6339 5.8335 19.3513 5.8335C19.1935 5.8335 19.0495 5.92218 18.9788 6.05935L12.4997 18.6365V32.5002Z" fill="#FAFAFA"/>
</svg>
