<svg width="40" height="40" viewBox="0 0 40 40" fill="none" xmlns="http://www.w3.org/2000/svg">
<path d="M20 24.167C20.9203 24.1672 21.6659 24.9127 21.666 25.833C21.666 26.7534 20.9203 27.4998 20 27.5C19.0795 27.5 18.333 26.7535 18.333 25.833C18.3331 24.9126 19.0796 24.167 20 24.167Z" fill="#FAFAFA"/>
<path d="M20 13.333C20.6904 13.333 21.25 13.8927 21.25 14.583V21.25C21.2498 21.9402 20.6902 22.5 20 22.5C19.3098 22.5 18.7502 21.9402 18.75 21.25V14.583C18.75 13.8927 19.3096 13.333 20 13.333Z" fill="#FAFAFA"/>
<path fill-rule="evenodd" clip-rule="evenodd" d="M20 3.33301C29.2045 3.33318 36.6659 10.7954 36.666 20C36.666 29.2046 29.2046 36.6668 20 36.667C10.7953 36.667 3.33301 29.2047 3.33301 20C3.3331 10.7953 10.7953 3.33301 20 3.33301ZM20 5.83398C12.176 5.83398 5.8331 12.176 5.83301 20C5.83301 27.824 12.176 34.167 20 34.167C27.8239 34.1668 34.166 27.8239 34.166 20C34.1659 12.1761 27.8238 5.83416 20 5.83398Z" fill="#FAFAFA"/>
</svg>
