<svg width="40" height="40" viewBox="0 0 40 40" fill="none" xmlns="http://www.w3.org/2000/svg">
<path fill-rule="evenodd" clip-rule="evenodd" d="M17.5117 22.652C17.832 22.5664 18.1736 22.6114 18.4606 22.7773C18.9281 23.0476 19.4585 23.1905 19.9987 23.1908C20.5389 23.1909 21.0705 23.0491 21.5384 22.779L21.6523 22.7204C22.2301 22.4608 22.9221 22.676 23.2458 23.2363L26.374 28.653C26.7185 29.2506 26.514 30.0152 25.9167 30.3604C24.1178 31.3997 22.0764 31.9472 19.9987 31.9473C17.9212 31.9473 15.8796 31.3995 14.0807 30.3604C13.4831 30.015 13.2782 29.2491 13.6234 28.6514L16.7516 23.2347C16.9175 22.9476 17.1914 22.7377 17.5117 22.652ZM21.6328 25.4417C21.1051 25.6035 20.5553 25.6909 19.9987 25.6908C19.4418 25.6906 18.8909 25.604 18.363 25.4417L16.4554 28.7458C17.5761 29.2059 18.7794 29.4473 19.9987 29.4473C21.2172 29.4472 22.4188 29.2053 23.5387 28.7458L21.6328 25.4417Z" fill="#FAFAFA"/>
<path d="M19.9987 18.5944C20.8352 18.5946 21.514 19.2732 21.514 20.1097C21.514 20.9462 20.8352 21.6248 19.9987 21.625C19.162 21.625 18.4834 20.9464 18.4834 20.1097C18.4834 19.273 19.162 18.5944 19.9987 18.5944Z" fill="#FAFAFA"/>
<path fill-rule="evenodd" clip-rule="evenodd" d="M14.1947 9.80208C14.7723 9.54285 15.4646 9.75788 15.7881 10.318L18.9163 15.7347C19.0822 16.022 19.1276 16.3648 19.0417 16.6852C18.9556 17.0054 18.7447 17.2781 18.4574 17.4437C17.9894 17.7134 17.6013 18.1022 17.3311 18.57C17.061 19.0375 16.9192 19.568 16.9193 20.1081C16.9194 20.4396 16.7875 20.759 16.5531 20.9935C16.3188 21.2278 16.0006 21.3595 15.6693 21.3597H9.41439C8.72422 21.3597 8.16465 20.7999 8.16439 20.1097C8.1636 18.0323 8.70957 15.9909 9.74805 14.1917C10.7865 12.3926 12.2815 10.8991 14.0807 9.86068L14.1947 9.80208ZM14.2891 12.722C13.3308 13.4624 12.5238 14.3861 11.9144 15.4417C11.3049 16.4976 10.9108 17.6594 10.749 18.8597H14.5625C14.6862 18.3215 14.8878 17.8022 15.1663 17.32C15.4448 16.8379 15.794 16.4036 16.1982 16.0277L14.2891 12.722Z" fill="#FAFAFA"/>
<path fill-rule="evenodd" clip-rule="evenodd" d="M24.2777 10.2122C24.6481 9.6986 25.3546 9.53924 25.915 9.8623C27.7143 10.9002 29.2105 12.393 30.2493 14.1917C31.2883 15.9906 31.8349 18.0324 31.8346 20.1097C31.8344 20.7996 31.2744 21.3592 30.5846 21.3597H24.3281C23.6383 21.3593 23.0783 20.7996 23.0781 20.1097C23.078 19.5693 22.9364 19.0379 22.6663 18.57C22.396 18.1019 22.0064 17.7124 21.5384 17.4421C21.2515 17.2764 21.0416 17.0035 20.9557 16.6836C20.87 16.3634 20.9153 16.0218 21.0811 15.7347L24.2093 10.3197L24.2777 10.2122ZM23.7975 16.0277C24.2017 16.4039 24.5526 16.8377 24.8311 17.32C25.1093 17.802 25.3111 18.3217 25.4349 18.8597H29.25C29.0879 17.6598 28.6926 16.4988 28.083 15.4434C27.4732 14.3876 26.6638 13.4655 25.7051 12.7253L23.7975 16.0277Z" fill="#FAFAFA"/>
<path fill-rule="evenodd" clip-rule="evenodd" d="M19.9987 3.33398C29.2034 3.33398 36.6654 10.7959 36.6654 20.0007C36.6649 29.205 29.2032 36.6673 19.9987 36.6673C10.7942 36.6673 3.33247 29.205 3.33203 20.0007C3.33203 10.7959 10.794 3.33398 19.9987 3.33398ZM19.9987 5.83398C12.1747 5.83398 5.83203 12.1766 5.83203 20.0007C5.83247 27.8243 12.1749 34.1673 19.9987 34.1673C27.8225 34.1673 34.1649 27.8243 34.1654 20.0007C34.1654 12.1766 27.8227 5.83398 19.9987 5.83398Z" fill="#FAFAFA"/>
</svg>
