<svg width="40" height="40" viewBox="0 0 40 40" fill="none" xmlns="http://www.w3.org/2000/svg">
<path fill-rule="evenodd" clip-rule="evenodd" d="M9.75651 8.33333C10.3006 6.40958 12.0694 5 14.1673 5H25.834C27.9319 5 29.7007 6.40958 30.2448 8.33333H32.084C34.6153 8.33333 36.6673 10.3854 36.6673 12.9167V27.0833C36.6673 29.6146 34.6153 31.6667 32.084 31.6667H30.2448C29.7007 33.5904 27.9319 35 25.834 35H14.1673C12.0694 35 10.3006 33.5904 9.75651 31.6667H7.91732C5.38601 31.6667 3.33398 29.6146 3.33398 27.0833V12.9167C3.33398 10.3854 5.38601 8.33333 7.91732 8.33333H9.75651ZM9.58398 10.8333H7.91732C6.76672 10.8333 5.83398 11.7661 5.83398 12.9167V27.0833C5.83398 28.2339 6.76672 29.1667 7.91732 29.1667H9.58398V10.8333ZM30.4173 29.1667H32.084C33.2346 29.1667 34.1673 28.2339 34.1673 27.0833V12.9167C34.1673 11.7661 33.2346 10.8333 32.084 10.8333H30.4173V29.1667ZM14.1673 7.5C13.0167 7.5 12.084 8.43274 12.084 9.58333V30.4167C12.084 31.5673 13.0167 32.5 14.1673 32.5H25.834C26.9846 32.5 27.9173 31.5673 27.9173 30.4167V9.58333C27.9173 8.43274 26.9846 7.5 25.834 7.5H14.1673Z" fill="#FAFAFA"/>
</svg>
