<svg width="40" height="40" viewBox="0 0 40 40" fill="none" xmlns="http://www.w3.org/2000/svg">
<path fill-rule="evenodd" clip-rule="evenodd" d="M19.9993 3.75C21.1265 3.75 22.2085 4.19809 23.0055 4.99512C23.8022 5.79202 24.2489 6.87285 24.249 7.99967C24.249 8.90776 23.9532 9.78213 23.4238 10.5062L30.416 15.7503H31.0003C31.6905 15.7505 32.2503 16.3101 32.2503 17.0003C32.2501 17.6871 31.6957 18.2433 31.0101 18.2487L28.4027 30.4134C28.4142 30.4222 28.427 30.4305 28.4385 30.4395C29.0092 30.8853 29.4149 31.5093 29.5908 32.2119L30.2126 34.6973C30.3055 35.0702 30.2227 35.4668 29.9863 35.7699C29.7495 36.073 29.3847 36.2516 29 36.2516H11.0003C10.6157 36.2516 10.2525 36.0729 10.0156 35.7699C9.77889 35.4667 9.69469 35.0705 9.78776 34.6973L10.4095 32.2119C10.5854 31.5093 10.991 30.8853 11.5618 30.4395C11.5725 30.4312 11.5837 30.4232 11.5944 30.415L8.98698 18.2487C8.30276 18.2417 7.75022 17.6861 7.75 17.0003C7.75 16.31 8.30964 15.7503 9 15.7503H9.58268L16.5732 10.5062C16.0441 9.78241 15.7497 8.90715 15.7497 7.99967C15.7498 6.87262 16.1978 5.79207 16.9948 4.99512C17.7917 4.19816 18.8723 3.75009 19.9993 3.75ZM13.4385 32.2607C13.3157 32.2812 13.199 32.3331 13.0999 32.4105C12.9686 32.5133 12.8751 32.6571 12.8346 32.819L12.6019 33.7516H27.3984L27.1657 32.819C27.1252 32.6572 27.0317 32.5133 26.9004 32.4105C26.8017 32.3334 26.6856 32.2814 26.5635 32.2607L26.4382 32.251H13.5622L13.4385 32.2607ZM14.0098 29.751H16.1094C15.7181 29.0506 15.5011 28.2586 15.4876 27.443L15.486 27.4447C15.4309 26.5958 15.6198 25.7486 16.0296 25.0033C16.4397 24.2579 17.054 23.6437 17.8005 23.2357L17.9372 23.1706C18.2654 23.0401 18.6374 23.0548 18.9577 23.2145C19.036 23.2536 19.1086 23.3012 19.1758 23.3545C19.1749 23.3428 19.1752 23.3304 19.1742 23.3187C19.1249 22.7609 18.9053 22.2312 18.5459 21.8018C18.1971 21.3847 18.1589 20.7896 18.4499 20.3304C18.741 19.8718 19.2947 19.653 19.8203 19.79C21.4846 20.2251 22.9424 21.2349 23.9349 22.64C24.9271 24.0448 25.3913 25.7554 25.2451 27.4691L25.2435 27.4674C25.2182 28.2757 24.9943 29.0583 24.6022 29.751H25.9889L28.4531 18.2503H11.5456L14.0098 29.751ZM21.6758 23.8005C21.6375 24.6293 21.4053 25.4416 20.9889 26.167C20.7817 26.528 20.408 26.7626 19.9928 26.792C19.3478 26.837 18.7102 26.6439 18.196 26.2549C18.033 26.5712 17.9581 26.9261 17.9811 27.2819C17.9829 27.3085 17.9827 27.3366 17.9827 27.3633C17.9831 27.9961 18.2351 28.6037 18.6826 29.0511C19.1276 29.4957 19.7303 29.7447 20.359 29.7477C20.9899 29.7358 21.5928 29.4815 22.0387 29.0348C22.486 28.5864 22.7412 27.9803 22.75 27.347L22.7549 27.2575C22.8511 26.1311 22.5459 25.0055 21.8939 24.082C21.8253 23.985 21.7509 23.8917 21.6758 23.8005ZM13.751 15.7503H26.2477L21.583 12.251H18.4157L13.751 15.7503ZM19.9993 6.25C19.5353 6.25009 19.0905 6.43458 18.7624 6.7627C18.4343 7.09081 18.2498 7.53566 18.2497 7.99967C18.2497 8.46365 18.4344 8.9085 18.7624 9.23665C19.0905 9.56477 19.5353 9.74926 19.9993 9.74935C20.4635 9.74935 20.9081 9.56484 21.2363 9.23665C21.5645 8.90846 21.749 8.4638 21.749 7.99967C21.7489 7.53566 21.5644 7.09081 21.2363 6.7627C20.9082 6.43471 20.4633 6.25 19.9993 6.25Z" fill="#FAFAFA"/>
</svg>
