<svg width="40" height="40" viewBox="0 0 40 40" fill="none" xmlns="http://www.w3.org/2000/svg">
<path fill-rule="evenodd" clip-rule="evenodd" d="M33.6686 22.4045H33.6914C33.7007 22.4046 33.712 22.4057 33.724 22.4061C33.7483 22.4069 33.7788 22.4085 33.8135 22.411C33.883 22.416 33.9744 22.4243 34.0804 22.4419C34.2872 22.4764 34.5826 22.5474 34.8926 22.7023C35.2074 22.8598 35.5603 23.1173 35.8317 23.5243C36.108 23.939 36.2499 24.4359 36.25 24.9875V33.6545V33.6789C36.2498 33.6881 36.2488 33.6995 36.2484 33.7114C36.2476 33.7358 36.246 33.7663 36.2435 33.801C36.2385 33.8704 36.2302 33.962 36.2126 34.0679C36.1781 34.2746 36.1069 34.5703 35.9521 34.8801C35.7947 35.195 35.5372 35.5478 35.1302 35.8192C34.7154 36.0957 34.2188 36.2374 33.667 36.2375H6.33301H6.27604C6.25165 36.2367 6.22126 36.2351 6.18652 36.2326C6.11691 36.2276 6.02572 36.2177 5.9196 36.2001C5.71273 36.1656 5.41744 36.0946 5.10742 35.9396C4.79263 35.7822 4.43964 35.5261 4.16829 35.1193C3.89178 34.7044 3.75 34.2064 3.75 33.6545V24.9875V24.9631C3.75018 24.9539 3.75124 24.9423 3.75163 24.9305C3.75245 24.9062 3.75405 24.8755 3.75651 24.841C3.7615 24.7715 3.7698 24.6799 3.78743 24.5741C3.82194 24.3673 3.89298 24.0717 4.04785 23.7619C4.20535 23.447 4.46279 23.0941 4.86979 22.8228C5.28457 22.5465 5.78137 22.4045 6.33301 22.4045H33.6686ZM6.27441 24.9094C6.26706 24.9304 6.25801 24.9562 6.25326 24.9842C6.25029 25.002 6.2502 25.0161 6.25 25.02V33.6545C6.25 33.6778 6.2534 33.6968 6.25488 33.7114C6.27614 33.7189 6.30134 33.7294 6.32975 33.7342C6.34829 33.7373 6.36556 33.7391 6.36556 33.7391L6.36068 33.7375H33.667C33.6906 33.7375 33.7092 33.7341 33.724 33.7326C33.7314 33.7114 33.742 33.686 33.7467 33.6577C33.7498 33.6394 33.75 33.6219 33.75 33.6219V24.9875C33.7499 24.9631 33.745 24.9437 33.7435 24.9289C33.7226 24.9217 33.6977 24.9123 33.6702 24.9077C33.6517 24.9046 33.6344 24.9045 33.6344 24.9045H30.2507V27.7707C30.2505 28.4607 29.6906 29.0203 29.0007 29.0207C28.3104 29.0207 27.7508 28.4609 27.7507 27.7707V24.9045H24.2497V27.7707C24.2496 28.4609 23.69 29.0207 22.9997 29.0207C22.3094 29.0207 21.7498 28.4609 21.7497 27.7707V24.9045H18.2503V27.7707C18.2502 28.4609 17.6906 29.0207 17.0003 29.0207C16.31 29.0207 15.7504 28.4609 15.7503 27.7707V24.9045H12.251V27.7707C12.2509 28.4607 11.6909 29.0203 11.001 29.0207C10.3107 29.0207 9.75109 28.4609 9.75098 27.7707V24.9045H6.33301C6.30853 24.9045 6.28934 24.9078 6.27441 24.9094Z" fill="#FAFAFA"/>
<path fill-rule="evenodd" clip-rule="evenodd" d="M19.5801 3.83514C19.8966 3.72232 20.2484 3.7401 20.5534 3.89048L28.0452 7.59328C28.0886 7.61474 28.129 7.64065 28.1689 7.66652C28.1769 7.67169 28.1855 7.67583 28.1934 7.68117C28.2519 7.721 28.3057 7.76621 28.3561 7.81464C28.3708 7.82877 28.3845 7.84376 28.3984 7.85858C28.437 7.89949 28.4716 7.94327 28.5042 7.98879C28.5137 8.00203 28.5245 8.01423 28.5335 8.02785C28.5725 8.08694 28.6076 8.14845 28.6361 8.2134C28.6439 8.23129 28.6486 8.25042 28.6556 8.26874C28.6747 8.31857 28.6902 8.36946 28.7028 8.42173C28.7104 8.45349 28.7188 8.48511 28.724 8.51776C28.7257 8.5286 28.7274 8.53941 28.7288 8.55031C28.7358 8.60365 28.7418 8.65784 28.7419 8.71307V16.1138C28.7419 16.589 28.471 17.0243 28.0452 17.2352L20.5534 20.9364C20.5384 20.9438 20.5214 20.9491 20.5062 20.9559C20.4922 20.9621 20.4781 20.9681 20.4639 20.9738C20.3978 21.0003 20.3308 21.0225 20.262 21.0373C20.2304 21.044 20.1984 21.0493 20.166 21.0536C20.1562 21.0549 20.1466 21.0574 20.1367 21.0585C20.0918 21.0633 20.0462 21.0666 20 21.0666L19.9984 21.065C19.994 21.065 19.9897 21.065 19.9854 21.065C19.9442 21.0645 19.9034 21.0628 19.8633 21.0585C19.8469 21.0567 19.8308 21.0528 19.8145 21.0503C19.7892 21.0466 19.7643 21.0425 19.7396 21.0373C19.6681 21.0221 19.5982 21.0001 19.5296 20.9722C19.5174 20.9672 19.5058 20.9612 19.4938 20.9559C19.4783 20.949 19.4619 20.9439 19.4466 20.9364L11.9564 17.2352C11.53 17.0245 11.2598 16.5894 11.2598 16.1138V8.71307C11.2598 8.65736 11.2624 8.60247 11.2695 8.54869C11.2709 8.53833 11.2728 8.52805 11.2744 8.51776C11.2795 8.48515 11.288 8.45346 11.2956 8.42173C11.3082 8.36951 11.3237 8.31852 11.3428 8.26874C11.3498 8.25043 11.3545 8.23128 11.3623 8.2134C11.3907 8.14849 11.426 8.08691 11.4648 8.02785C11.4745 8.01323 11.4856 7.99972 11.4958 7.98554C11.5251 7.94481 11.5561 7.90538 11.5902 7.86835C11.6089 7.848 11.6271 7.82719 11.6471 7.80813C11.6861 7.77108 11.7286 7.7376 11.7725 7.70559C11.8013 7.68451 11.8314 7.66559 11.862 7.64699C11.8925 7.62848 11.924 7.6093 11.9564 7.59328L19.4466 3.89048L19.5801 3.83514ZM13.7598 15.3374L18.75 17.8016V13.189L13.7598 10.7248V15.3374ZM21.25 13.189V17.8016L26.2419 15.3358V10.7248L21.25 13.189ZM15.3304 8.71307L20 11.0194L24.668 8.71307L20 6.40676L15.3304 8.71307Z" fill="#FAFAFA"/>
</svg>
