<svg width="40" height="40" viewBox="0 0 40 40" fill="none" xmlns="http://www.w3.org/2000/svg">
<path fill-rule="evenodd" clip-rule="evenodd" d="M19.9996 3.3335C20.69 3.3335 21.2496 3.89314 21.2496 4.5835V6.70613C27.7728 7.11762 33.3909 10.7262 36.2631 15.9196C37.0344 17.3142 36.8245 18.8079 36.0294 19.9085C35.2541 20.9817 33.9409 21.6719 32.4781 21.6719H7.52113C6.05827 21.6719 4.7451 20.9817 3.96976 19.9085C3.17469 18.8079 2.9648 17.3142 3.73611 15.9196C6.60833 10.7262 12.2264 7.11762 18.7496 6.70613V4.5835C18.7496 3.89314 19.3092 3.3335 19.9996 3.3335ZM19.9996 9.16683C13.828 9.16683 8.52306 12.4297 5.92383 17.1295C5.658 17.6101 5.7222 18.0651 5.99624 18.4444C6.29002 18.8511 6.84101 19.1719 7.52113 19.1719H32.4781C33.1582 19.1719 33.7092 18.8511 34.003 18.4444C34.277 18.0651 34.3412 17.6102 34.0754 17.1295C31.4761 12.4297 26.1712 9.16683 19.9996 9.16683ZM19.9996 24.1668C20.69 24.1668 21.2496 24.7265 21.2496 25.4168V32.2114C21.2496 34.672 19.2548 36.6668 16.7941 36.6668C14.6703 36.6668 12.8417 35.1677 12.4252 33.0851L12.1072 31.4953C11.9718 30.8184 12.4108 30.1598 13.0878 30.0244C13.7647 29.889 14.4233 30.3281 14.5587 31.005L14.8766 32.5949C15.0594 33.5089 15.862 34.1668 16.7941 34.1668C17.8741 34.1668 18.7496 33.2913 18.7496 32.2114V25.4168C18.7496 24.7265 19.3092 24.1668 19.9996 24.1668Z" fill="#FAFAFA"/>
</svg>
