<svg width="40" height="40" viewBox="0 0 40 40" fill="none" xmlns="http://www.w3.org/2000/svg">
<path fill-rule="evenodd" clip-rule="evenodd" d="M27.8021 24.3746C28.6858 24.3749 29.534 24.7264 30.1589 25.3512C30.7837 25.9761 31.1354 26.8242 31.1355 27.7079C31.1355 28.5916 30.7836 29.4397 30.1589 30.0647C29.534 30.6896 28.6858 31.041 27.8021 31.0413C26.9183 31.0413 26.0704 30.6896 25.4454 30.0647C24.8203 29.4396 24.4688 28.5919 24.4688 27.7079C24.4689 26.824 24.8203 25.9762 25.4454 25.3512C26.0704 24.7265 26.9184 24.3746 27.8021 24.3746ZM27.8021 26.8746C27.5815 26.8746 27.3692 26.9629 27.2129 27.1187C27.0568 27.2749 26.9689 27.4871 26.9688 27.7079C26.9688 27.9289 27.0567 28.1409 27.2129 28.2971C27.3692 28.4532 27.5813 28.5413 27.8021 28.5413C28.0228 28.541 28.2353 28.4532 28.3913 28.2971C28.5472 28.1409 28.6355 27.9286 28.6355 27.7079C28.6354 27.4873 28.5472 27.2749 28.3913 27.1187C28.2353 26.9628 28.0227 26.8749 27.8021 26.8746Z" fill="#FAFAFA"/>
<path fill-rule="evenodd" clip-rule="evenodd" d="M28.5036 18.3801C28.8769 18.4096 29.2396 18.522 29.5632 18.7105L29.7211 18.8115L29.8724 18.9238C30.2128 19.198 30.4759 19.5579 30.6342 19.967L31.0085 20.9355L32.0616 21.5409L33.0984 21.3847L33.1195 21.3814L33.3034 21.3635C33.7328 21.3375 34.1635 21.4224 34.5518 21.6126C34.9963 21.8302 35.3654 22.176 35.613 22.6038L35.6163 22.6103L36.1062 23.468C36.3608 23.9018 36.4802 24.4038 36.4447 24.9068C36.4093 25.4062 36.2223 25.8837 35.9109 26.2773L35.9125 26.2789L35.2712 27.0943V28.3101L35.9271 29.1256L35.932 29.1305C36.2462 29.5244 36.4335 30.0058 36.4691 30.509C36.5044 31.0064 36.3886 31.5031 36.1387 31.9348L35.6423 32.8072L35.639 32.8121C35.3914 33.2404 35.0202 33.5842 34.5762 33.8017C34.1317 34.0195 33.6331 34.1007 33.1439 34.0344L33.1244 34.0328L32.0892 33.8733L31.0329 34.482L30.6602 35.4488C30.4793 35.9172 30.1597 36.3212 29.7455 36.606L29.7439 36.6044C29.3309 36.8882 28.8424 37.0421 28.3409 37.0439H27.2878C26.7852 37.0424 26.2952 36.8891 25.8816 36.6044C25.4686 36.3202 25.1496 35.9187 24.9685 35.4504L24.5941 34.4804L23.5378 33.8733L22.5027 34.0328L22.4831 34.0344C21.9937 34.1008 21.4939 34.0214 21.0492 33.8033C20.6054 33.5856 20.2368 33.2393 19.9896 32.8121L19.9864 32.8072L19.4883 31.9365L19.49 31.9348C19.2399 31.5032 19.1227 31.0068 19.1579 30.509L19.1791 30.3219C19.2432 29.8878 19.42 29.4755 19.695 29.1305L20.3314 28.3199V27.1041L19.6755 26.2903L19.6706 26.2854C19.3565 25.8911 19.1691 25.4101 19.1335 24.9068C19.0981 24.404 19.2148 23.9011 19.4704 23.4664L19.9603 22.6103L19.9636 22.6038C20.2113 22.1761 20.581 21.8301 21.0248 21.6126C21.4134 21.4222 21.8451 21.3373 22.2748 21.3635L22.4587 21.3814L22.4782 21.3847L23.5183 21.5426L24.5941 20.9322L24.9685 19.967C25.1495 19.499 25.4682 19.0959 25.8816 18.8115C26.2953 18.5269 26.7858 18.3735 27.2878 18.372H28.3148L28.5036 18.3801ZM26.7654 22.2506C26.6613 22.5192 26.4673 22.7447 26.2168 22.887L24.376 23.9319C24.1321 24.0703 23.8476 24.1221 23.5704 24.08L22.1251 23.8587L21.6335 24.7213L21.627 24.731L22.5547 25.8785C22.7337 26.1005 22.8313 26.3779 22.8314 26.663V28.7529C22.8314 29.0323 22.7368 29.3044 22.5645 29.5243L21.6563 30.6816L21.653 30.6848L21.6596 30.6962L22.1495 31.5556L23.5948 31.3375L23.8047 31.3228C24.0148 31.3266 24.2228 31.383 24.407 31.4889L26.2234 32.5338L26.3975 32.6559C26.5603 32.7909 26.688 32.966 26.7654 33.1653L27.2976 34.5439H28.3295L28.8633 33.1669L28.9561 32.9749C29.0651 32.7933 29.2198 32.6405 29.4053 32.5338L31.2217 31.4889L31.4122 31.3993C31.609 31.3269 31.8227 31.3056 32.0323 31.3375L33.476 31.5556L33.9691 30.6962L33.9756 30.6865L33.0479 29.5374C32.8691 29.3153 32.7712 29.038 32.7712 28.7529V26.663C32.7714 26.3834 32.8655 26.1115 33.0381 25.8915L33.9463 24.7343L33.9496 24.731L33.9447 24.7213L33.4515 23.8587L32.0079 24.08C31.728 24.1226 31.4411 24.0681 31.1957 23.927L29.3809 22.8821C29.1333 22.7396 28.9405 22.5169 28.8373 22.2506L28.3034 20.872H27.2992L26.7654 22.2506Z" fill="#FAFAFA"/>
<path d="M18.8829 2.97161C19.3421 2.85386 19.8234 2.85387 20.2826 2.97161C20.8114 3.10723 21.268 3.44067 21.697 3.75286C21.7336 3.77948 21.7715 3.8048 21.8077 3.83098L35.74 13.9124C36.2874 14.3086 36.4136 15.0793 36.0215 15.6327C35.6294 16.1858 34.8666 16.3121 34.3191 15.9159L32.5905 14.6659V15.4472C32.5905 16.1205 32.0447 16.6663 31.3715 16.6663C30.6983 16.6661 30.1524 16.1204 30.1524 15.4472V12.9016L20.3868 5.83619C20.1014 5.6297 19.9368 5.50999 19.8073 5.42929C19.728 5.37983 19.6903 5.36473 19.6804 5.36093C19.6162 5.34488 19.5492 5.34488 19.4851 5.36093C19.4749 5.36484 19.4372 5.38002 19.3581 5.42929C19.2287 5.51 19.0641 5.62967 18.7787 5.83619L9.01307 12.9016V28.0595C9.01307 28.9995 9.01451 29.6307 9.05376 30.1168C9.09185 30.5879 9.15954 30.8143 9.23443 30.9631C9.42925 31.3496 9.74076 31.6646 10.1231 31.8616C10.2703 31.9374 10.4946 32.0053 10.9613 32.0439C11.4423 32.0835 12.0672 32.0846 12.9974 32.0846H15.434C16.1146 32.0849 16.6661 32.6376 16.6661 33.3183C16.6657 33.9987 16.1144 34.5501 15.434 34.5504H12.947C12.0793 34.5504 11.3546 34.5504 10.7627 34.5016C10.1452 34.4505 9.56461 34.3395 9.01633 34.0572C8.1751 33.624 7.49024 32.9331 7.06157 32.0829C6.78229 31.5289 6.6726 30.9426 6.62212 30.3186C6.57374 29.7201 6.5749 28.9861 6.57492 28.1083V14.6659L4.84478 15.9159C4.29731 16.3119 3.53604 16.1857 3.14393 15.6327C2.75204 15.0794 2.87809 14.3086 3.42551 13.9124L17.3578 3.83098C17.3938 3.80497 17.4305 3.7793 17.4668 3.75286C17.8958 3.44063 18.354 3.1073 18.8829 2.97161Z" fill="#FAFAFA"/>
</svg>
