<svg width="40" height="40" viewBox="0 0 40 40" fill="none" xmlns="http://www.w3.org/2000/svg">
<path fill-rule="evenodd" clip-rule="evenodd" d="M17.6446 5.26918C18.9464 3.96763 21.0565 3.9675 22.3581 5.26918L34.7328 17.6439C36.0339 18.9456 36.0342 21.0558 34.7328 22.3574L22.3581 34.7321C21.0566 36.0335 18.9464 36.0332 17.6446 34.7321L5.26993 22.3574C4.0494 21.1369 3.97384 19.2054 5.04206 17.8961L5.26993 17.6439L17.6446 5.26918ZM20.5906 7.03676C20.2652 6.71139 19.7376 6.71152 19.4122 7.03676L7.03751 19.4114C6.71218 19.7369 6.7121 20.2644 7.03751 20.5898L19.4122 32.9645C19.7376 33.2893 20.2653 33.2896 20.5906 32.9645L32.9652 20.5898C33.2903 20.2646 33.29 19.7369 32.9652 19.4114L20.5906 7.03676Z" fill="#FAFAFA"/>
<path fill-rule="evenodd" clip-rule="evenodd" d="M18.9587 15.9725C18.3834 15.9725 17.917 16.4388 17.917 17.0141C17.917 17.5894 17.4506 18.0558 16.8753 18.0558C16.3 18.0558 15.8337 17.5894 15.8337 17.0141C15.8337 15.2882 17.2328 13.8891 18.9587 13.8891H20.6374C22.5867 13.8891 24.167 15.4694 24.167 17.4187C24.167 18.5989 23.5772 19.7009 22.5953 20.3555L21.8151 20.8757C21.3321 21.1976 21.042 21.7397 21.042 22.3202V22.5697C21.042 23.145 20.5756 23.6113 20.0003 23.6113C19.425 23.6113 18.9587 23.145 18.9587 22.5697V22.3202C18.9587 21.0431 19.5969 19.8506 20.6595 19.1422L21.4396 18.6221C21.842 18.3539 22.0837 17.9023 22.0837 17.4187C22.0837 16.62 21.4361 15.9725 20.6374 15.9725H18.9587Z" fill="#FAFAFA"/>
<path d="M18.6114 26.3891C18.6114 25.6221 19.2333 25.0002 20.0003 25.0002C20.7674 25.0002 21.3892 25.6221 21.3892 26.3891C21.3892 27.1562 20.7674 27.778 20.0003 27.778C19.2333 27.778 18.6114 27.1562 18.6114 26.3891Z" fill="#FAFAFA"/>
</svg>
