<svg width="40" height="40" viewBox="0 0 40 40" fill="none" xmlns="http://www.w3.org/2000/svg">
<path d="M15.4657 32.3535C16.1559 32.3535 16.7154 32.9134 16.7157 33.6035V35C16.7154 35.6901 16.1559 36.25 15.4657 36.25H9.18802C8.49782 36.25 7.93828 35.6901 7.93802 35V33.6035C7.93828 32.9134 8.49782 32.3535 9.18802 32.3535C9.87796 32.3538 10.4378 32.9136 10.438 33.6035V33.75H14.2157V33.6035C14.2159 32.9135 14.7757 32.3538 15.4657 32.3535Z" fill="#FAFAFA"/>
<path d="M19.7772 3.75C20.1021 3.75 20.4148 3.87706 20.648 4.10319L35.871 18.8688C36.2363 19.2232 36.3501 19.7643 36.159 20.236C35.9678 20.7077 35.5092 21.0173 35.0002 21.0173H31.9436V35C31.9436 35.3329 31.8102 35.6524 31.5741 35.887C31.338 36.1212 31.018 36.2521 30.6854 36.25L23.8299 36.2061C23.753 36.2055 23.6783 36.1954 23.6053 36.1816C23.5983 36.1803 23.5912 36.1798 23.5842 36.1784C23.5501 36.1713 23.5179 36.1589 23.4849 36.1491C23.2825 36.0892 23.0996 35.9853 22.9543 35.8398L22.9494 35.835C22.9329 35.8182 22.921 35.7973 22.9055 35.7796C22.7108 35.5592 22.5881 35.2732 22.5881 34.9561V23.6914H21.7336C21.0435 23.6911 20.4836 23.1316 20.4836 22.4414C20.4836 21.7512 21.0435 21.1917 21.7336 21.1914H23.8381C24.5282 21.1917 25.0881 21.7512 25.0881 22.4414V33.7126L29.4436 33.7419V19.7673C29.4436 19.0771 30.0035 18.5176 30.6936 18.5173H31.9159L19.7268 6.69108L18.7909 7.62858C18.3028 8.11603 17.5113 8.11615 17.0233 7.62858C16.5354 7.14047 16.5354 6.34748 17.0233 5.85938L18.7665 4.11621C19.0008 3.88188 19.3205 3.7501 19.6519 3.75H19.7772Z" fill="#FAFAFA"/>
<path d="M9.18802 26.7725C9.87805 26.7728 10.4379 27.3324 10.438 28.0225V29.4189C10.4378 30.1089 9.87796 30.6686 9.18802 30.6689C8.49782 30.6689 7.93828 30.1091 7.93802 29.4189V28.0225C7.93813 27.3322 8.49773 26.7725 9.18802 26.7725Z" fill="#FAFAFA"/>
<path d="M15.4657 26.7725C16.156 26.7725 16.7156 27.3322 16.7157 28.0225V29.4189C16.7154 30.1091 16.1559 30.6689 15.4657 30.6689C14.7757 30.6687 14.216 30.1089 14.2157 29.4189V28.0225C14.2158 27.3323 14.7756 26.7727 15.4657 26.7725Z" fill="#FAFAFA"/>
<path d="M16.8605 21.1914C17.5508 21.1915 18.1105 21.7511 18.1105 22.4414C18.1105 23.1317 17.5508 23.6913 16.8605 23.6914H16.7157V23.8379C16.7154 24.528 16.1559 25.0879 15.4657 25.0879C14.7757 25.0877 14.216 24.5278 14.2157 23.8379V22.4414C14.2157 21.7512 14.7755 21.1916 15.4657 21.1914H16.8605Z" fill="#FAFAFA"/>
<path d="M6.18672 16.6992C6.66158 16.1983 7.45328 16.1774 7.95429 16.652C8.45463 17.1271 8.47463 17.9172 7.99987 18.418L7.90547 18.5173H9.18639C9.87672 18.5173 10.4364 19.0769 10.4364 19.7673V23.5042C10.4362 24.1945 9.87665 24.7542 9.18639 24.7542C8.49663 24.7537 7.93655 24.1941 7.93639 23.5042V21.0173H5.00019C4.50091 21.017 4.04832 20.7191 3.8511 20.2604C3.65411 19.8017 3.75025 19.2686 4.09362 18.9063L6.18672 16.6992Z" fill="#FAFAFA"/>
<path d="M10.3941 12.4886C10.8822 12.0005 11.6751 12.0006 12.1633 12.4886C12.6509 12.9767 12.6509 13.7681 12.1633 14.2562L10.4185 16.001C9.93038 16.488 9.13877 16.4884 8.65091 16.001C8.16313 15.513 8.16339 14.7199 8.65091 14.2318L10.3941 12.4886Z" fill="#FAFAFA"/>
<path d="M14.5819 8.30241C15.0701 7.8147 15.8631 7.81443 16.3511 8.30241C16.8386 8.79032 16.8383 9.5819 16.3511 10.07L14.6063 11.8148C14.1183 12.3024 13.3268 12.3024 12.8387 11.8148C12.3506 11.3266 12.3506 10.5337 12.8387 10.0456L14.5819 8.30241Z" fill="#FAFAFA"/>
</svg>
