<svg width="40" height="40" viewBox="0 0 40 40" fill="none" xmlns="http://www.w3.org/2000/svg">
<path fill-rule="evenodd" clip-rule="evenodd" d="M13.751 31C14.8094 31.0002 15.667 31.8586 15.667 32.917C15.6668 33.9753 14.8093 34.8328 13.751 34.833C12.6927 34.8328 11.8342 33.9753 11.834 32.917C11.834 31.8586 12.6926 31.0002 13.751 31ZM13.4258 34.5508C13.4765 34.5608 13.5278 34.5699 13.5801 34.5752L13.751 34.583C13.6396 34.583 13.531 34.5716 13.4258 34.5508Z" fill="#FAFAFA"/>
<path fill-rule="evenodd" clip-rule="evenodd" d="M28.751 31C29.8094 31.0002 30.667 31.8586 30.667 32.917C30.6668 33.9753 29.8093 34.8328 28.751 34.833C27.6927 34.8328 26.8342 33.9753 26.834 32.917C26.834 31.8586 27.6926 31.0002 28.751 31ZM28.4258 34.5508C28.4765 34.5608 28.5278 34.5699 28.5801 34.5752L28.751 34.583C28.6396 34.583 28.531 34.5716 28.4258 34.5508Z" fill="#FAFAFA"/>
<path fill-rule="evenodd" clip-rule="evenodd" d="M5.0752 5C7.32697 5 9.24483 6.63588 9.60059 8.85938L9.7832 10H31.8008C33.5927 10.0002 34.9608 11.6011 34.6816 13.3711L32.9297 24.4648C32.5779 26.6926 30.6577 28.333 28.4023 28.333H14.0938C11.8421 28.333 9.92332 26.6979 9.56738 24.4746L7.13281 9.25391C6.97102 8.24334 6.09866 7.5 5.0752 7.5H2.91797C2.22761 7.5 1.66797 6.94036 1.66797 6.25C1.66797 5.55964 2.22761 5 2.91797 5H5.0752ZM12.0361 24.0791C12.1978 25.0898 13.0702 25.833 14.0938 25.833H28.4023C29.4274 25.833 30.301 25.0877 30.4609 24.0752L32.2119 12.9814C32.2517 12.7287 32.0566 12.5002 31.8008 12.5H10.1836L12.0361 24.0791Z" fill="#FAFAFA"/>
</svg>
