<svg width="40" height="40" viewBox="0 0 40 40" fill="none" xmlns="http://www.w3.org/2000/svg">
<path fill-rule="evenodd" clip-rule="evenodd" d="M20.0007 5.8335C12.1766 5.8335 5.83398 12.1761 5.83398 20.0002C5.83398 27.8242 12.1766 34.1668 20.0007 34.1668C27.8247 34.1668 34.1673 27.8242 34.1673 20.0002C34.1673 12.1761 27.8247 5.8335 20.0007 5.8335ZM3.33398 20.0002C3.33398 10.7954 10.7959 3.3335 20.0007 3.3335C29.2054 3.3335 36.6673 10.7954 36.6673 20.0002C36.6673 29.2049 29.2054 36.6668 20.0007 36.6668C10.7959 36.6668 3.33398 29.2049 3.33398 20.0002Z" fill="#FAFAFA"/>
<path d="M26.6673 20.0002C26.6673 23.6821 23.6825 26.6668 20.0007 26.6668C16.3188 26.6668 13.334 23.6821 13.334 20.0002C13.334 16.3183 16.3188 13.3335 20.0007 13.3335C23.6825 13.3335 26.6673 16.3183 26.6673 20.0002Z" fill="#FAFAFA"/>
</svg>
