<svg width="40" height="40" viewBox="0 0 40 40" fill="none" xmlns="http://www.w3.org/2000/svg">
<path fill-rule="evenodd" clip-rule="evenodd" d="M9.58301 7.5C8.43241 7.5 7.49967 8.43274 7.49967 9.58333V17.0833C7.49967 17.7737 6.94003 18.3333 6.24967 18.3333C5.55932 18.3333 4.99967 17.7737 4.99967 17.0833V9.58333C4.99967 7.05203 7.0517 5 9.58301 5H32.083C34.6143 5 36.6663 7.05203 36.6663 9.58333V22.0833C36.6663 24.6146 34.6143 26.6667 32.083 26.6667H24.583C23.8927 26.6667 23.333 26.107 23.333 25.4167C23.333 24.7263 23.8927 24.1667 24.583 24.1667H32.083C33.2336 24.1667 34.1663 23.2339 34.1663 22.0833V9.58333C34.1663 8.43274 33.2336 7.5 32.083 7.5H9.58301ZM22.4997 12.9167C22.4997 12.2263 23.0593 11.6667 23.7497 11.6667H28.7497C29.44 11.6667 29.9997 12.2263 29.9997 12.9167V17.9167C29.9997 18.607 29.44 19.1667 28.7497 19.1667C28.0593 19.1667 27.4997 18.607 27.4997 17.9167V15.9344L24.2169 19.2172C23.7287 19.7054 22.9373 19.7054 22.4491 19.2172C21.961 18.7291 21.961 17.9376 22.4491 17.4494L25.7319 14.1667H23.7497C23.0593 14.1667 22.4997 13.607 22.4997 12.9167ZM3.33301 26.25C3.33301 23.7187 5.38504 21.6667 7.91634 21.6667H15.4163C17.9476 21.6667 19.9997 23.7187 19.9997 26.25V32.0833C19.9997 34.6146 17.9476 36.6667 15.4163 36.6667H7.91634C5.38504 36.6667 3.33301 34.6146 3.33301 32.0833V26.25ZM7.91634 24.1667C6.76575 24.1667 5.83301 25.0994 5.83301 26.25V32.0833C5.83301 33.2339 6.76575 34.1667 7.91634 34.1667H15.4163C16.5669 34.1667 17.4997 33.2339 17.4997 32.0833V26.25C17.4997 25.0994 16.5669 24.1667 15.4163 24.1667H7.91634Z" fill="#FAFAFA"/>
</svg>
