<svg width="40" height="40" viewBox="0 0 40 40" fill="none" xmlns="http://www.w3.org/2000/svg">
<path fill-rule="evenodd" clip-rule="evenodd" d="M18.054 14.6188C18.1324 14.6284 18.208 14.6565 18.2738 14.7002C18.3397 14.7441 18.3941 14.8039 18.4333 14.8727C18.4724 14.9416 18.496 15.0182 18.5 15.0973C18.5579 16.1584 18.8771 17.0619 19.5417 17.7568C19.6909 17.7002 19.8478 17.6661 20.0072 17.6576C20.0943 16.8353 20.4251 16.0327 20.9854 15.2715C21.1861 14.998 21.4764 14.8033 21.8057 14.7214C22.135 14.6394 22.4831 14.6748 22.7887 14.8223C23.6784 15.2528 24.2981 15.9546 24.6475 16.9268C24.6741 17.0012 24.683 17.081 24.6735 17.1595C24.6639 17.2379 24.6358 17.3135 24.5921 17.3792C24.5482 17.4451 24.4885 17.4996 24.4196 17.5387C24.3507 17.5779 24.2741 17.6015 24.195 17.6055C23.1339 17.6634 22.2304 17.9826 21.5355 18.6471C21.5921 18.7964 21.6262 18.9533 21.6348 19.1126C22.4573 19.2004 23.2604 19.5305 24.0208 20.0908C24.2943 20.2916 24.489 20.5819 24.571 20.9111C24.6529 21.2404 24.6175 21.5886 24.4701 21.8942C24.0395 22.7838 23.3377 23.4035 22.3656 23.7529C22.2911 23.7796 22.2113 23.7885 22.1328 23.779C22.0544 23.7694 21.9788 23.7413 21.9131 23.6976C21.8472 23.6537 21.7927 23.5939 21.7536 23.5251C21.7145 23.4562 21.6909 23.3796 21.6868 23.3005C21.6289 22.2394 21.3097 21.3359 20.6452 20.6409C20.496 20.6976 20.3391 20.7316 20.1797 20.7402C20.0926 21.5625 19.7617 22.3651 19.2015 23.1263C19.0007 23.3998 18.7104 23.5944 18.3812 23.6764C18.0519 23.7584 17.7038 23.723 17.3981 23.5755C16.5085 23.145 15.8888 22.4432 15.5394 21.471C15.5127 21.3966 15.5038 21.3167 15.5133 21.2383C15.5229 21.1599 15.551 21.0843 15.5947 21.0186C15.6387 20.9527 15.6984 20.8982 15.7673 20.859C15.8361 20.8199 15.9128 20.7963 15.9919 20.7923C17.053 20.7344 17.9564 20.4152 18.6514 19.7507C18.5948 19.6014 18.5607 19.4445 18.5521 19.2852C17.7296 19.1973 16.9264 18.8673 16.166 18.307C15.8925 18.1062 15.6979 17.8159 15.6159 17.4867C15.5339 17.1573 15.5693 16.8092 15.7168 16.5036C16.1474 15.614 16.8491 14.9943 17.8213 14.6449C17.8957 14.6182 17.9756 14.6093 18.054 14.6188ZM19.9469 18.4632C19.8015 18.4922 19.6677 18.5634 19.5628 18.6683C19.4223 18.8091 19.3431 19 19.3431 19.1989C19.3431 19.3978 19.4223 19.5887 19.5628 19.7295C19.6677 19.8344 19.8015 19.9056 19.9469 19.9346C20.0923 19.9635 20.243 19.9488 20.3799 19.8923C20.5169 19.8355 20.6344 19.7389 20.7168 19.6156C20.7992 19.4922 20.8438 19.3473 20.8438 19.1989C20.8437 19.0505 20.7992 18.9056 20.7168 18.7822C20.6344 18.6589 20.5169 18.5623 20.3799 18.5055C20.243 18.449 20.0923 18.4343 19.9469 18.4632Z" fill="#FAFAFA"/>
<path fill-rule="evenodd" clip-rule="evenodd" d="M20.4906 9.69368C25.5205 9.94827 29.5205 14.1073 29.5205 19.2005L29.5075 19.6888C29.2525 24.7181 25.0948 28.7183 20.0023 28.7188L19.5124 28.7057C14.6449 28.4592 10.7422 24.5562 10.4954 19.6888L10.4824 19.2005C10.4824 13.9434 14.7453 9.6809 20.0023 9.68066L20.4906 9.69368ZM20.0023 12.1807C16.126 12.1809 12.9824 15.3242 12.9824 19.2005C12.9833 23.0761 16.1265 26.2185 20.0023 26.2188C23.8779 26.2183 27.0196 23.076 27.0205 19.2005C27.0205 15.3243 23.8784 12.1811 20.0023 12.1807Z" fill="#FAFAFA"/>
<path fill-rule="evenodd" clip-rule="evenodd" d="M26.8887 4.61068C30.411 4.7894 33.2119 7.70248 33.2119 11.2692V34.0882H34.1673L34.2959 34.0947C34.9258 34.1591 35.4173 34.6913 35.4173 35.3382C35.4173 35.9852 34.9258 36.5173 34.2959 36.5817L34.1673 36.5882H33.2119V36.5947H6.78939V36.5882H5.83398C5.14363 36.5882 4.58398 36.0286 4.58398 35.3382C4.58398 34.6479 5.14363 34.0882 5.83398 34.0882H6.78939V11.2692C6.78939 7.58731 9.77416 4.60254 13.4561 4.60254H26.5452L26.8887 4.61068ZM13.4561 7.10254C11.1549 7.10254 9.28939 8.96802 9.28939 11.2692V34.0882H30.7119V11.2692C30.7119 8.96802 28.8464 7.10254 26.5452 7.10254H13.4561Z" fill="#FAFAFA"/>
</svg>
