<svg width="40" height="40" viewBox="0 0 40 40" fill="none" xmlns="http://www.w3.org/2000/svg">
<path d="M5 18.7502H35C35.6904 18.7502 36.25 19.3098 36.25 20.0002C36.25 20.6905 35.6904 21.2502 35 21.2502H5C4.30964 21.2502 3.75 20.6905 3.75 20.0002C3.75 19.3098 4.30964 18.7502 5 18.7502Z" fill="#FAFAFA"/>
<path d="M9.58333 15.0002C9.58333 15.6905 9.02369 16.2502 8.33333 16.2502C7.64298 16.2502 7.08333 15.6905 7.08333 15.0002V11.6668C7.08333 10.9765 7.64298 10.4168 8.33333 10.4168C9.02369 10.4168 9.58333 10.9765 9.58333 11.6668V15.0002ZM12.5 7.0835L14.6875 7.0835C15.3779 7.0835 15.9375 7.64314 15.9375 8.3335C15.9375 9.02385 15.3779 9.5835 14.6875 9.5835H12.5C11.8096 9.5835 11.25 9.02385 11.25 8.3335C11.25 7.64314 11.8096 7.0835 12.5 7.0835ZM19.0625 7.0835H21.25C21.9404 7.0835 22.5 7.64314 22.5 8.3335C22.5 9.02385 21.9404 9.5835 21.25 9.5835H19.0625C18.3721 9.5835 17.8125 9.02385 17.8125 8.3335C17.8125 7.64314 18.3721 7.0835 19.0625 7.0835ZM25.625 7.0835H27.8125C28.5029 7.0835 29.0625 7.64314 29.0625 8.3335C29.0625 9.02385 28.5029 9.5835 27.8125 9.5835H25.625C24.9346 9.5835 24.375 9.02385 24.375 8.3335C24.375 7.64314 24.9346 7.0835 25.625 7.0835ZM32.9167 15.0002C32.9167 15.6905 32.357 16.2502 31.6667 16.2502C30.9763 16.2502 30.4167 15.6905 30.4167 15.0002V11.6668C30.4167 10.9765 30.9763 10.4168 31.6667 10.4168C32.357 10.4168 32.9167 10.9765 32.9167 11.6668V15.0002Z" fill="#FAFAFA"/>
<path d="M11.25 32.9168H28.75C29.77 32.9168 30.7917 32.6007 31.5837 31.9793C32.3829 31.3522 32.9166 30.4282 32.9167 29.3784V25.0002L32.9102 24.8716C32.8458 24.2416 32.3136 23.7502 31.6667 23.7502C31.0197 23.7502 30.4875 24.2416 30.4232 24.8716L30.4167 25.0002V29.3784C30.4166 29.5425 30.3353 29.782 30.0407 30.0132C29.7387 30.2501 29.277 30.4168 28.75 30.4168H11.25C10.723 30.4168 10.2613 30.2501 9.95931 30.0132C9.66472 29.782 9.58338 29.5425 9.58333 29.3784V25.0002L9.57682 24.8716C9.51245 24.2416 8.98028 23.7502 8.33333 23.7502C7.68639 23.7502 7.15421 24.2416 7.08984 24.8716L7.08333 25.0002V29.3784C7.08338 30.4282 7.61714 31.3522 8.41634 31.9793C9.20831 32.6007 10.23 32.9168 11.25 32.9168Z" fill="#FAFAFA"/>
</svg>
