<svg width="40" height="40" viewBox="0 0 40 40" fill="none" xmlns="http://www.w3.org/2000/svg">
<path d="M14.2077 22.9886C14.898 22.9886 15.4577 23.5483 15.4577 24.2386C15.4577 24.929 14.898 25.4886 14.2077 25.4886H12.9772V27.3408C12.9772 28.0312 12.4176 28.5908 11.7272 28.5908C11.0369 28.5908 10.4772 28.0312 10.4772 27.3408V25.4886H9.24674C8.55639 25.4886 7.99674 24.929 7.99674 24.2386C7.99674 23.5483 8.55639 22.9886 9.24674 22.9886H14.2077Z" fill="#FAFAFA"/>
<path d="M24.8018 17.8047C25.3843 17.8048 25.9426 18.0357 26.3545 18.4476C26.7664 18.8595 26.9989 19.4178 26.999 20.0003C26.999 20.583 26.7665 21.1427 26.3545 21.5547C25.9426 21.9663 25.3841 22.1975 24.8018 22.1976C24.2191 22.1976 23.6594 21.9667 23.2474 21.5547C22.8354 21.1427 22.6045 20.583 22.6045 20.0003C22.6046 19.418 22.8358 18.8594 23.2474 18.4476C23.6594 18.0356 24.2191 17.8047 24.8018 17.8047Z" fill="#FAFAFA"/>
<path fill-rule="evenodd" clip-rule="evenodd" d="M25.4398 11.5205C25.8525 11.5531 26.2509 11.6947 26.5938 11.9307C26.9859 12.2007 27.2883 12.5826 27.4596 13.026L27.7754 13.848L28.6413 14.346L29.543 14.2077C30.0063 14.145 30.4785 14.2219 30.8988 14.4274C31.32 14.6337 31.6717 14.9612 31.9062 15.3665L31.9095 15.373L32.3555 16.1527C32.5919 16.5611 32.7015 17.0313 32.668 17.5036C32.6344 17.9765 32.4567 18.4279 32.1618 18.8008L32.1634 18.8024L31.6182 19.4958V20.4935L32.1764 21.1868L32.1797 21.1917C32.4774 21.5652 32.6555 22.0216 32.6891 22.4987L32.6956 22.6777C32.6936 23.0932 32.5817 23.5023 32.3701 23.8626L32.3685 23.861L31.9323 24.6292L31.929 24.6357C31.6944 25.0414 31.3438 25.3688 30.9232 25.5749C30.5019 25.7815 30.0293 25.8556 29.5658 25.793L29.5446 25.7913L28.6641 25.6546L27.7998 26.151L27.4808 26.9762C27.3094 27.4198 27.0071 27.8001 26.6149 28.07C26.2232 28.3396 25.7595 28.4867 25.2835 28.4883H24.3411C23.9246 28.487 23.5158 28.376 23.1579 28.1676L23.0081 28.0716C22.6164 27.8021 22.3138 27.4206 22.1423 26.9762L21.8249 26.1527L20.959 25.6546L20.0784 25.7897L20.0589 25.793C19.5954 25.8559 19.1228 25.7796 18.7015 25.5732C18.2802 25.3671 17.9303 25.041 17.6956 24.6357L17.6924 24.6292L17.2529 23.8626C17.0111 23.4509 16.9002 22.9749 16.9339 22.4987L16.9535 22.3213C17.0141 21.9099 17.1828 21.5205 17.4434 21.1934L17.9837 20.5049V19.5072L17.4255 18.8154L17.4206 18.8089C17.1232 18.4354 16.9465 17.9802 16.9128 17.5036C16.879 17.0269 16.9894 16.5502 17.2318 16.138L17.6696 15.373L17.6729 15.3665C17.9075 14.9612 18.2582 14.6352 18.6787 14.429L18.8398 14.3574C19.1641 14.2275 19.5134 14.1703 19.862 14.1914L20.0361 14.2093L20.0573 14.2109L20.9411 14.346L21.8249 13.8447L22.1423 13.026C22.3137 12.582 22.6161 12.2004 23.0081 11.9307L23.1579 11.8346C23.516 11.6261 23.9248 11.5152 24.3411 11.514H25.2607L25.4398 11.5205ZM23.9961 15.1647C23.892 15.433 23.6977 15.6573 23.4476 15.7995L21.7988 16.7354C21.5549 16.8736 21.2703 16.9256 20.9932 16.8835L19.7904 16.6995L19.4339 17.3229L20.207 18.2816C20.386 18.5037 20.4837 18.7808 20.4837 19.0661V20.9362C20.4837 21.2159 20.3894 21.4876 20.2168 21.7077L19.4551 22.6761L19.8115 23.3011L21.0159 23.1188C21.2957 23.0763 21.5828 23.1307 21.8281 23.2718L23.4541 24.2061L23.6283 24.3281C23.791 24.4633 23.9188 24.6382 23.9961 24.8376L24.4404 25.9883H25.1842L25.6286 24.8376L25.7214 24.6471C25.8303 24.4653 25.9848 24.3129 26.1706 24.2061L27.7965 23.2718L27.987 23.1823C28.1839 23.1097 28.3974 23.087 28.6071 23.1188L29.8099 23.3011L30.1663 22.6777L29.3949 21.7207C29.2157 21.4985 29.1182 21.2216 29.1182 20.9362V19.0661C29.1182 18.7863 29.2123 18.5147 29.3851 18.2946L30.1436 17.3229L29.7871 16.6995L28.5859 16.8835C28.306 16.9262 28.0192 16.8716 27.7738 16.7305L26.1478 15.7962C25.9005 15.6539 25.709 15.4307 25.6058 15.1647L25.1615 14.014H24.4404L23.9961 15.1647Z" fill="#FAFAFA"/>
<path d="M11.6491 12.4548C12.3394 12.4548 12.8991 13.016 12.8991 13.7064V20.2917C12.8982 20.9813 12.3389 21.54 11.6491 21.54C10.959 21.54 10.3995 20.98 10.3991 20.29V13.7048C10.3995 13.0148 10.959 12.4548 11.6491 12.4548Z" fill="#FAFAFA"/>
<path fill-rule="evenodd" clip-rule="evenodd" d="M33.332 6.66699C35.173 6.66699 36.6654 8.15938 36.6654 10.0003V30.0003C36.6654 31.8413 35.173 33.3337 33.332 33.3337H6.66536L6.3252 33.3158C4.64407 33.1453 3.33203 31.7264 3.33203 30.0003V10.0003C3.33203 8.15938 4.82442 6.66699 6.66536 6.66699H33.332ZM6.66536 9.16699C6.20513 9.16699 5.83203 9.54009 5.83203 10.0003V30.0003C5.83203 30.4606 6.20513 30.8337 6.66536 30.8337H33.332C33.7923 30.8337 34.1654 30.4606 34.1654 30.0003V10.0003C34.1654 9.54009 33.7923 9.16699 33.332 9.16699H6.66536Z" fill="#FAFAFA"/>
</svg>
