<svg width="40" height="40" viewBox="0 0 40 40" fill="none" xmlns="http://www.w3.org/2000/svg">
<path d="M20.4753 10.4281C22.8439 10.5457 25.0908 11.5395 26.7757 13.2244C27.2639 13.7125 27.2639 14.5038 26.7757 14.9919C26.2875 15.4795 25.4961 15.4799 25.0081 14.9919C23.7628 13.7467 22.1022 13.0118 20.3516 12.9249L20 12.9167C18.1214 12.9167 16.3202 13.6636 14.9919 14.9919C13.6635 16.3203 12.9167 18.1215 12.9167 20.0001L12.9248 20.3516C13.0117 22.1023 13.7466 23.7629 14.9919 25.0082C16.3202 26.3366 18.1214 27.0834 20 27.0834C21.8786 27.0834 23.6798 26.3366 25.0081 25.0082C25.4961 24.5203 26.2875 24.5207 26.7757 25.0082C27.2639 25.4964 27.2639 26.2876 26.7757 26.7758C24.9785 28.573 22.5417 29.5834 20 29.5834C17.4583 29.5834 15.0215 28.573 13.2243 26.7758C11.7243 25.2758 10.7736 23.3302 10.4997 21.2501H5C4.30964 21.2501 3.75 20.6904 3.75 20.0001C3.75 19.3097 4.30964 18.7501 5 18.7501H10.5013C10.7752 16.67 11.7244 14.7243 13.2243 13.2244C15.0215 11.4271 17.4583 10.4167 20 10.4167L20.4753 10.4281Z" fill="#FAFAFA"/>
<path d="M20 16.6667C20.8841 16.6667 21.7316 17.0182 22.3568 17.6433C22.6759 17.9624 22.9231 18.3397 23.0892 18.7501H35C35.6904 18.7501 36.25 19.3097 36.25 20.0001C36.25 20.6904 35.6904 21.2501 35 21.2501H23.0892C22.9231 21.6605 22.6759 22.0377 22.3568 22.3569C21.7316 22.982 20.8841 23.3334 20 23.3334C19.1159 23.3334 18.2683 22.982 17.6432 22.3569C17.0181 21.7317 16.6667 20.8841 16.6667 20.0001C16.6667 19.116 17.0181 18.2684 17.6432 17.6433C18.2683 17.0182 19.1159 16.6667 20 16.6667Z" fill="#FAFAFA"/>
</svg>
