<svg width="40" height="40" viewBox="0 0 40 40" fill="none" xmlns="http://www.w3.org/2000/svg">
<path fill-rule="evenodd" clip-rule="evenodd" d="M20 10.417C22.5416 10.417 24.9782 11.4274 26.7754 13.2246C28.2753 14.7245 29.2251 16.67 29.499 18.75H35.625C36.3153 18.75 36.875 19.3097 36.875 20C36.875 20.6904 36.3154 21.25 35.625 21.25H29.499C29.2251 23.33 28.2753 25.2755 26.7754 26.7754C24.9782 28.5726 22.5417 29.583 20 29.583C17.4583 29.583 15.0218 28.5726 13.2246 26.7754C11.7247 25.2755 10.7749 23.33 10.501 21.25H5C4.30964 21.25 3.75 20.6904 3.75 20C3.75004 19.3097 4.30967 18.75 5 18.75H10.501C10.7749 16.67 11.7247 14.7245 13.2246 13.2246C15.0218 11.4274 17.4584 10.417 20 10.417ZM23.0889 21.25C22.9227 21.6603 22.6755 22.0374 22.3564 22.3564C21.7313 22.9816 20.8841 23.333 20 23.333C19.1159 23.333 18.2687 22.9816 17.6436 22.3564C17.3245 22.0374 17.0773 21.6603 16.9111 21.25H13.0293C13.283 22.664 13.9623 23.9779 14.9922 25.0078C16.3206 26.3362 18.1214 27.083 20 27.083C21.8786 27.083 23.6794 26.3362 25.0078 25.0078C26.0377 23.9779 26.717 22.664 26.9707 21.25H23.0889ZM20 12.917C18.1214 12.917 16.3206 13.6638 14.9922 14.9922C13.9623 16.022 13.2831 17.336 13.0293 18.75H16.9111C17.0773 18.3398 17.3245 17.9626 17.6436 17.6436C18.2687 17.0185 19.116 16.667 20 16.667C20.884 16.667 21.7313 17.0185 22.3564 17.6436C22.6755 17.9626 22.9227 18.3398 23.0889 18.75H26.9707C26.7169 17.336 26.0377 16.022 25.0078 14.9922C23.6794 13.6638 21.8786 12.917 20 12.917Z" fill="#FAFAFA"/>
</svg>
