<svg width="40" height="40" viewBox="0 0 40 40" fill="none" xmlns="http://www.w3.org/2000/svg">
<path fill-rule="evenodd" clip-rule="evenodd" d="M13.7756 14.9422C14.4939 14.9422 15.0762 15.4736 15.0762 16.1292V25.3836C15.5892 25.5551 16.0627 25.8234 16.4564 26.1826C17.1672 26.8314 17.5672 27.7119 17.5673 28.6292C17.5671 29.5458 17.1663 30.4241 16.4564 31.0726L16.4581 31.0742C15.7474 31.7229 14.782 32.0876 13.7773 32.088C12.8979 32.088 12.0489 31.8088 11.3743 31.3044L11.0965 31.0742C10.3858 30.4255 9.98584 29.5463 9.98563 28.6292C9.98574 27.7119 10.3857 26.8314 11.0965 26.1826C11.49 25.8238 11.9623 25.555 12.475 25.3836V16.1292C12.475 15.4737 13.0573 14.9422 13.7756 14.9422ZM13.7756 27.5442C13.7722 27.5442 13.7689 27.5427 13.7655 27.5427C13.4543 27.5453 13.1562 27.6602 12.9357 27.8611C12.7127 28.0645 12.5869 28.3414 12.5868 28.6292C12.587 28.9169 12.7128 29.1924 12.9357 29.3957L13.1169 29.5317C13.3107 29.6496 13.5408 29.7141 13.7773 29.7141C14.0925 29.7137 14.3947 29.5989 14.6173 29.3957L14.7663 29.2304C14.8951 29.0537 14.966 28.8445 14.9661 28.6292C14.966 28.3414 14.8401 28.0645 14.6173 27.8611C14.3969 27.66 14.0987 27.5455 13.7875 27.5427C13.7835 27.5427 13.7796 27.5442 13.7756 27.5442Z" fill="#FAFAFA"/>
<path fill-rule="evenodd" clip-rule="evenodd" d="M13.7722 3.33398C15.4373 3.33431 17.035 3.93801 18.2125 5.0124L18.4276 5.21949C19.4707 6.27099 20.0533 7.64128 20.0534 9.06624V23.0762C21.1475 24.101 21.9241 25.3776 22.2955 26.7746L22.4276 27.368C22.6777 28.7609 22.5199 30.1942 21.9653 31.5193C21.4107 32.8442 20.4812 34.0073 19.2777 34.8931L18.746 35.2563C17.2832 36.1755 15.548 36.6671 13.7722 36.6673C12.2184 36.6673 10.6953 36.2906 9.35904 35.5808L8.79681 35.2563C7.33394 34.3371 6.21145 33.0335 5.5775 31.5193L5.36412 30.9443C4.92325 29.5917 4.8808 28.153 5.24727 26.7746L5.42848 26.1904C5.84423 25.0216 6.55103 23.9565 7.49113 23.0762V9.06624C7.49119 7.54597 8.15231 6.08739 9.33025 5.0124L9.55548 4.81766C10.7078 3.86543 12.2104 3.33398 13.7722 3.33398ZM13.7722 5.70787C12.9183 5.70787 12.0935 5.97864 11.4386 6.46826L11.1694 6.69081C10.4793 7.3206 10.0924 8.17556 10.0923 9.06624V23.58C10.0923 23.9173 9.93385 24.2389 9.65879 24.4641C8.844 25.1292 8.23856 25.9789 7.90265 26.9229L7.77564 27.334C7.51775 28.3037 7.54683 29.3159 7.85693 30.2674L8.00764 30.6708L8.19054 31.0633C8.65437 31.9612 9.37151 32.7338 10.2718 33.2997L10.6664 33.5284C11.6066 34.028 12.6787 34.2934 13.7722 34.2934C15.0215 34.2932 16.2422 33.9462 17.271 33.2997L17.6452 33.0447C18.4915 32.4216 19.1452 31.6039 19.5352 30.6723L19.6859 30.2674C19.9517 29.4517 20.0112 28.5912 19.8603 27.7513L19.7689 27.334C19.511 26.3643 18.9748 25.4768 18.221 24.7608L17.8857 24.4656C17.6098 24.2404 17.4522 23.9178 17.4522 23.58V9.06624C17.4521 8.17574 17.0632 7.32204 16.3734 6.69235C15.6837 6.06317 14.7475 5.7082 13.7722 5.70787Z" fill="#FAFAFA"/>
<path d="M33.8332 18.3578C34.4882 18.4193 35 18.9245 35 19.5385C34.9996 20.1523 34.488 20.6579 33.8332 20.7193L33.6994 20.7255H24.9831C24.2651 20.7255 23.6829 20.1937 23.6825 19.5385C23.6825 18.883 24.2648 18.3516 24.9831 18.3516H33.6994L33.8332 18.3578Z" fill="#FAFAFA"/>
<path d="M28.851 11.539C29.5067 11.5999 30.0195 12.1053 30.0195 12.7198C30.0193 13.3341 29.5066 13.8397 28.851 13.9006L28.7189 13.9067H24.9831C24.2649 13.9067 23.6827 13.3752 23.6825 12.7198C23.6825 12.0643 24.2648 11.5329 24.9831 11.5329H28.7189L28.851 11.539Z" fill="#FAFAFA"/>
<path d="M33.8332 4.7203C34.4882 4.78176 35 5.28701 35 5.90106C35 6.51511 34.4882 7.02035 33.8332 7.08182L33.6994 7.088H24.9831C24.2648 7.088 23.6825 6.55659 23.6825 5.90106C23.6825 5.24553 24.2648 4.71412 24.9831 4.71412H33.6994L33.8332 4.7203Z" fill="#FAFAFA"/>
</svg>
