<svg width="40" height="40" viewBox="0 0 40 40" fill="none" xmlns="http://www.w3.org/2000/svg">
<path fill-rule="evenodd" clip-rule="evenodd" d="M20.3643 13.5025C21.946 13.1993 23.5613 13.3039 25.073 13.802C25.326 13.8855 25.539 14.0519 25.6833 14.2708L25.7501 14.3831C25.7672 14.4166 25.7815 14.4518 25.7956 14.4872C25.7981 14.4933 25.8015 14.499 25.8038 14.5051C25.9306 14.8403 25.906 15.222 25.7354 15.55C25.5536 15.8988 25.4161 16.4753 25.2829 17.3534C25.1628 18.1457 25.0434 19.1982 24.8435 20.1594C24.4416 22.0911 23.5587 24.472 20.8445 25.2424C19.3043 25.6787 18.0429 24.9431 17.3142 24.3391C17.2226 24.6439 17.1331 24.9709 17.0522 25.3222C16.8948 26.0048 16.2264 26.4541 15.5596 26.3248C14.8931 26.1945 14.4781 25.5344 14.6352 24.8518C14.8594 23.8789 15.1322 23.0354 15.4327 22.3062C14.7082 21.4251 14.2429 20.4466 14.1746 19.3944C14.1032 18.2909 14.4731 17.2705 15.1641 16.3964C15.2215 16.3238 15.2798 16.2521 15.3415 16.1816C15.3693 16.1499 15.3976 16.1184 15.4262 16.0872C15.4615 16.0485 15.4969 16.0096 15.5336 15.9716L15.6882 15.8202C15.775 15.7364 15.8637 15.6531 15.9568 15.5728L15.9926 15.5435C16.3281 15.2745 16.6778 15.0275 17.0391 14.8046C17.0493 14.7984 17.0599 14.7929 17.0701 14.7867C17.1081 14.7635 17.1474 14.7426 17.1856 14.72C17.3357 14.6308 17.4875 14.5455 17.6413 14.4644C17.6785 14.4449 17.7162 14.4265 17.7537 14.4075C17.9161 14.3245 18.0807 14.2469 18.2468 14.1731C18.2837 14.1568 18.3204 14.1401 18.3575 14.1243C18.5436 14.0443 18.7321 13.9711 18.9223 13.9029C18.9278 13.9009 18.933 13.8984 18.9385 13.8964H18.9418C19.4064 13.7309 19.8806 13.5954 20.3643 13.5025ZM23.045 15.9277C22.2766 15.8151 21.4929 15.8288 20.7224 15.9765C19.5663 16.1984 18.4623 16.7093 17.503 17.4722C16.8096 18.0747 16.619 18.6334 16.6501 19.1194C16.6637 19.3282 16.7219 19.5671 16.8389 19.829C16.9829 19.6438 17.1244 19.4725 17.267 19.318C17.7456 18.7991 18.1973 18.4598 18.5528 18.2421C18.7296 18.1339 18.8817 18.0548 19.0004 18.0012C19.0595 17.9746 19.112 17.9552 19.1534 17.9394C19.1739 17.9315 19.193 17.9238 19.2087 17.9182C19.2162 17.9156 19.2235 17.9122 19.2299 17.9101L19.2397 17.9068L19.2462 17.9052C19.2462 17.9052 19.26 17.9432 19.5668 19.0689L19.2494 17.9052C19.9101 17.6936 20.592 18.0579 20.7729 18.719C20.953 19.3805 20.5625 20.0867 19.9021 20.2994L19.9053 20.301L19.9086 20.2994L19.9167 20.2978L19.9395 20.2896C19.9395 20.2896 19.9319 20.2937 19.9265 20.2961C19.9014 20.3075 19.8453 20.3345 19.767 20.3824C19.6091 20.4791 19.3488 20.666 19.0443 20.996C18.8508 21.206 18.6357 21.4817 18.4112 21.8359C18.5449 21.9937 18.7194 22.18 18.9223 22.3502C19.4383 22.7824 19.8939 22.9267 20.2748 22.8189C21.4895 22.4737 22.0558 21.478 22.4167 19.7428C22.4579 19.5448 22.4943 19.3477 22.5274 19.1503C22.5307 19.1307 22.5355 19.1113 22.5388 19.0917C22.6477 18.4392 22.7249 17.7815 22.8318 17.0767C22.8875 16.7091 22.9561 16.3174 23.045 15.9277Z" fill="#FAFAFA"/>
<path d="M12.9163 24.8534C12.9163 25.5438 12.3567 26.1034 11.6663 26.1034H10.5792C9.88925 26.1032 9.32961 25.5433 9.32917 24.8534C9.32917 24.1632 9.88898 23.6036 10.5792 23.6034H11.6663C12.3567 23.6034 12.9163 24.1631 12.9163 24.8534Z" fill="#FAFAFA"/>
<path d="M30.252 23.6034C30.9424 23.6034 31.502 24.1631 31.502 24.8534C31.5016 25.5434 30.9421 26.1034 30.252 26.1034H26.6663C25.976 26.1034 25.4163 25.5438 25.4163 24.8534C25.4163 24.1631 25.976 23.6034 26.6663 23.6034H30.252Z" fill="#FAFAFA"/>
<path d="M11.1663 18.7499C11.8567 18.7499 12.4163 19.3096 12.4163 19.9999C12.4163 20.6903 11.8567 21.2499 11.1663 21.2499H10.5792C9.88911 21.2497 9.32939 20.69 9.32917 19.9999C9.32917 19.3097 9.88898 18.7501 10.5792 18.7499H11.1663Z" fill="#FAFAFA"/>
<path d="M30.252 18.7499C30.9424 18.7499 31.502 19.3096 31.502 19.9999C31.5018 20.6901 30.9422 21.2499 30.252 21.2499H28.4079C27.7176 21.2499 27.1579 20.6903 27.1579 19.9999C27.1579 19.3096 27.7176 18.7499 28.4079 18.7499H30.252Z" fill="#FAFAFA"/>
<path d="M12.083 13.8964C12.7734 13.8964 13.333 14.456 13.333 15.1464C13.333 15.8368 12.7734 16.3964 12.083 16.3964H10.5792C9.88898 16.3962 9.32917 15.8366 9.32917 15.1464C9.32917 14.4562 9.88898 13.8966 10.5792 13.8964H12.083Z" fill="#FAFAFA"/>
<path d="M30.252 13.8964C30.9424 13.8964 31.502 14.456 31.502 15.1464C31.502 15.8368 30.9424 16.3964 30.252 16.3964H29.3422C28.6518 16.3964 28.0922 15.8368 28.0922 15.1464C28.0922 14.456 28.6518 13.8964 29.3422 13.8964H30.252Z" fill="#FAFAFA"/>
<path fill-rule="evenodd" clip-rule="evenodd" d="M33.6732 8.35116C35.3544 8.52159 36.6664 9.9405 36.6664 11.6666V12.8368C37.5674 12.851 38.297 13.581 38.3054 14.4872L38.3607 25.4508C38.3689 26.371 37.629 27.1237 36.7087 27.1321C36.6947 27.1322 36.6804 27.1307 36.6664 27.1305V28.3333C36.6662 30.0592 35.3542 31.4783 33.6732 31.6487L33.3331 31.6666H6.66641C4.94062 31.6664 3.52159 30.3542 3.35098 28.6734L3.33308 28.3333V27.1305C2.43251 27.116 1.70282 26.3874 1.69408 25.4817L1.63874 14.5181C1.63036 13.5979 2.37052 12.8454 3.29076 12.8368C3.30477 12.8367 3.31915 12.8366 3.33308 12.8368V11.6666C3.33308 9.82575 4.82562 8.33344 6.66641 8.33325H33.3331L33.6732 8.35116ZM6.66641 10.8333C6.20634 10.8334 5.83308 11.2065 5.83308 11.6666V28.3333C5.8333 28.7932 6.20647 29.1664 6.66641 29.1666H33.3331C33.7932 29.1666 34.1662 28.7933 34.1664 28.3333V11.6666C34.1664 11.2063 33.7933 10.8333 33.3331 10.8333H6.66641Z" fill="#FAFAFA"/>
</svg>
