<svg width="40" height="40" viewBox="0 0 40 40" fill="none" xmlns="http://www.w3.org/2000/svg">
<path d="M17.0386 26.1869C17.4391 26.6778 17.41 27.4024 16.9523 27.8601C16.4947 28.3177 15.7701 28.3468 15.2792 27.9463L15.1848 27.8601L7.68477 20.3601C7.22709 19.9024 7.19799 19.1778 7.5985 18.6869L7.68477 18.5925L15.1848 11.0925L15.2792 11.0062C15.7701 10.6057 16.4947 10.6348 16.9523 11.0925C17.41 11.5502 17.4391 12.2747 17.0386 12.7657L16.9523 12.8601L10.3361 19.4763L16.9523 26.0925L17.0386 26.1869Z" fill="#FAFAFA"/>
<path d="M32.8719 18.6869C33.2725 19.1778 33.2433 19.9024 32.7857 20.3601L25.2857 27.8601L25.1913 27.9463C24.7003 28.3468 23.9758 28.3177 23.5181 27.8601C23.0604 27.4024 23.0313 26.6778 23.4318 26.1869L23.5181 26.0925L30.1343 19.4763L23.5181 12.8601C23.0299 12.3719 23.0299 11.5806 23.5181 11.0925C24.0063 10.6043 24.7975 10.6043 25.2857 11.0925L32.7857 18.5925L32.8719 18.6869Z" fill="#FAFAFA"/>
</svg>
