<svg width="40" height="40" viewBox="0 0 40 40" fill="none" xmlns="http://www.w3.org/2000/svg">
<path d="M20.0224 17.173C20.0224 13.6722 17.1837 10.8337 13.6829 10.8335C10.1819 10.8335 7.34339 13.672 7.34339 17.173C7.34361 20.6738 10.182 23.5125 13.6829 23.5125C17.1836 23.5123 20.0222 20.6737 20.0224 17.173ZM22.5224 17.173C22.5222 22.0544 18.5643 26.0123 13.6829 26.0125C8.80133 26.0125 4.84361 22.0545 4.84339 17.173C4.84339 12.2913 8.8012 8.3335 13.6829 8.3335C18.5644 8.33372 22.5224 12.2914 22.5224 17.173Z" fill="#FAFAFA"/>
<path d="M14.1223 23.5152C16.3176 23.5837 18.469 24.1651 20.4032 25.2144C22.3374 26.2638 23.9974 27.7504 25.2518 29.5536L25.496 29.9182L25.5611 30.0289C25.8509 30.5921 25.6722 31.2939 25.1297 31.6467C24.5872 31.9995 23.8734 31.8781 23.4761 31.3847L23.4012 31.2805L22.9878 30.688C21.9837 29.3366 20.6951 28.2173 19.2101 27.4117C17.7254 26.6063 16.0855 26.1364 14.4055 26.0315L13.6828 26.0087C11.752 26.0087 9.85099 26.4909 8.15383 27.4117C6.457 28.3323 5.01699 29.6622 3.96438 31.2805L3.88951 31.3847C3.49223 31.8784 2.77688 31.9996 2.23423 31.6467C1.65611 31.2702 1.49199 30.4967 1.86802 29.9182L2.11379 29.5536C3.3682 27.7505 5.02813 26.2638 6.96242 25.2144C9.02554 24.0952 11.3356 23.5087 13.6828 23.5087L14.1223 23.5152Z" fill="#FAFAFA"/>
<path d="M26.9651 23.5187C29.1604 23.586 31.3118 24.1658 33.2461 25.2146C35.1806 26.2636 36.8405 27.7506 38.0947 29.5538L38.3405 29.9184L38.4039 30.0291C38.694 30.5925 38.5153 31.2957 37.9726 31.6486C37.4301 32.0007 36.716 31.8783 36.319 31.3849L36.2441 31.2807L35.8307 30.6883C34.8269 29.337 33.5395 28.2171 32.0546 27.4119C30.5696 26.6067 28.9286 26.1389 27.2483 26.035L26.5257 26.0122L26.3987 26.0057C25.7683 25.9421 25.2761 25.4094 25.2757 24.7622C25.2757 24.0722 25.8356 23.5126 26.5257 23.5122L26.9651 23.5187Z" fill="#FAFAFA"/>
<path d="M27.0538 8.34977C28.353 8.42854 29.6195 8.79281 30.7615 9.41748C31.9033 10.0421 32.8932 10.9116 33.6602 11.9631C34.4273 13.0147 34.9522 14.2233 35.1983 15.5015C35.4443 16.7794 35.406 18.0962 35.0844 19.3573C34.7625 20.6186 34.1648 21.7939 33.3363 22.798C32.5079 23.802 31.4682 24.6107 30.2911 25.1662C29.1138 25.7217 27.8274 26.011 26.5257 26.0122L26.3987 26.0057C25.7683 25.9421 25.2761 25.4094 25.2757 24.7622C25.2757 24.0722 25.8356 23.5126 26.5257 23.5122L26.8731 23.5011C27.6868 23.4556 28.486 23.2542 29.225 22.9054C30.069 22.507 30.8153 21.9261 31.4092 21.2062C32.0029 20.4865 32.4301 19.6444 32.6609 18.7404C32.8917 17.8358 32.9204 16.8902 32.7439 15.9735C32.5673 15.057 32.1904 14.1901 31.6404 13.436C31.0902 12.682 30.3792 12.0594 29.5603 11.6115C28.7414 11.1636 27.8341 10.9014 26.9024 10.8449C25.9708 10.7884 25.0382 10.9387 24.1713 11.2843L24.0492 11.3267C23.4401 11.5005 22.7867 11.1871 22.5469 10.5861C22.2914 9.94506 22.6027 9.21763 23.2436 8.96175L23.7025 8.79411C24.7791 8.43223 25.9171 8.2809 27.0538 8.34977Z" fill="#FAFAFA"/>
</svg>
