<svg width="40" height="40" viewBox="0 0 40 40" fill="none" xmlns="http://www.w3.org/2000/svg">
<path d="M7.5 17.2367V33.0228C7.50044 33.4827 7.87337 33.8561 8.33333 33.8561H18.75V19.32C18.75 18.6296 19.3096 18.07 20 18.07C20.6904 18.07 21.25 18.6296 21.25 19.32V33.8561H31.6667C32.1266 33.8561 32.4996 33.4826 32.5 33.0228V29.7367H37.5C38.1904 29.7367 38.75 30.2963 38.75 30.9867C38.75 31.677 38.1904 32.2367 37.5 32.2367H35V33.0228C34.9996 34.8634 33.5073 36.3561 31.6667 36.3561H8.33333L7.99316 36.3382C6.3123 36.1678 5.00041 34.7485 5 33.0228V19.7367H2.5C1.80964 19.7367 1.25 19.177 1.25 18.4867C1.25 17.7963 1.80964 17.2367 2.5 17.2367H7.5Z" fill="#FAFAFA"/>
<path fill-rule="evenodd" clip-rule="evenodd" d="M25.2474 3.64453C27.7091 3.64536 29.7117 5.58743 29.8193 8.02279H31.6667C33.5076 8.02279 35 9.51517 35 11.3561V24.7367H37.5C38.1904 24.7367 38.75 25.2963 38.75 25.9867C38.75 26.677 38.1904 27.2367 37.5 27.2367H32.5V11.3561C32.5 10.8959 32.1269 10.5228 31.6667 10.5228H21.25V13.9033C21.25 14.5937 20.6904 15.1533 20 15.1533C19.3096 15.1533 18.75 14.5937 18.75 13.9033V10.5228H8.33333C7.8731 10.5228 7.5 10.8959 7.5 11.3561V14.7367H2.5C1.80964 14.7367 1.25 14.177 1.25 13.4867C1.25 12.7963 1.80964 12.2367 2.5 12.2367H5V11.3561C5 9.51517 6.49238 8.02279 8.33333 8.02279H10.1807C10.2882 5.58691 12.2919 3.64453 14.7542 3.64453H25.2474ZM14.7542 6.14453C13.673 6.14453 12.7839 6.9686 12.6807 8.02279H27.3193C27.2161 6.96911 26.3279 6.14533 25.2474 6.14453H14.7542Z" fill="#FAFAFA"/>
</svg>
