<svg width="32" height="32" viewBox="0 0 32 32" fill="none" xmlns="http://www.w3.org/2000/svg">
<path d="M11.578 27.6192C11.7043 27.6445 11.8476 27.6741 11.8939 27.6825C11.9402 27.691 12.0287 27.6994 12.0919 27.7036C12.1593 27.7036 12.3572 27.6783 12.5341 27.6445C12.7152 27.6108 13.0059 27.5138 13.1786 27.4294C13.4818 27.2818 13.604 27.1636 16.1734 24.5904C18.1952 22.5698 18.886 21.8484 18.9828 21.6755C19.0502 21.5489 19.1513 21.3084 19.1976 21.1481C19.2566 20.9499 19.2861 20.7432 19.2861 20.5154C19.2861 20.3298 19.2566 20.0724 19.2229 19.9459C19.1892 19.8193 19.1008 19.5915 19.025 19.4397C18.9365 19.2625 18.7764 19.0474 18.2373 18.4905L12.1045 24.6284L7.02893 19.5451L8.67165 17.8999L7.69444 16.9171C7.1553 16.3813 6.70039 15.9384 6.67933 15.9384C6.66248 15.9384 6.14861 16.4446 5.53364 17.0647C4.6112 17.997 4.38796 18.2416 4.27423 18.4694C4.1942 18.6213 4.09732 18.8871 4.0552 19.06C4.00466 19.2878 3.98781 19.465 4.00887 19.6928C4.0215 19.8657 4.07205 20.1315 4.11838 20.2834C4.16471 20.4352 4.27844 20.6715 4.37111 20.8107C4.47641 20.971 5.66843 22.1943 7.64811 24.1728C10.5292 27.0497 10.7777 27.2902 11.0515 27.4252C11.2115 27.5053 11.4516 27.5939 11.578 27.6192Z" fill="#004C94"/>
<path d="M9.17288 13.4284L11.46 15.719C12.7195 16.9761 13.7598 18.0054 13.7767 18.0054C13.7978 18.0054 14.2484 17.554 15.7479 16.0017L14.2021 14.4493C13.3471 13.5971 12.5552 12.8336 12.4415 12.7577C12.3235 12.6817 12.0876 12.5636 11.915 12.5003C11.6538 12.4075 11.5274 12.3864 11.1778 12.3864C10.8282 12.3864 10.7019 12.4033 10.4407 12.4961C10.268 12.5594 10.0279 12.6691 9.91421 12.745C9.79627 12.8252 9.58567 13.0066 9.17288 13.4284Z" fill="#004C94"/>
<path d="M20.002 19.4862C20.1283 19.5368 20.3389 19.5916 20.4653 19.6085C20.5917 19.6254 20.7138 19.6423 20.7391 19.6465C20.7644 19.6465 20.9413 19.6296 21.1392 19.6085C21.413 19.5748 21.5731 19.5284 21.8342 19.4018C22.0701 19.2837 22.2681 19.1445 22.8157 18.6172L18.2329 14.0191L16.249 16.0017L17.8201 17.571C18.6836 18.4358 19.4755 19.1993 19.5808 19.271C19.6861 19.3428 19.8756 19.4398 20.002 19.4862Z" fill="#0092A7"/>
<path d="M23.3295 14.1035L24.3067 15.0821C24.8459 15.6221 25.3008 16.065 25.3176 16.065C25.3387 16.065 25.8568 15.5588 26.4717 14.9387C27.4616 13.9389 27.609 13.7744 27.7354 13.5129C27.8154 13.3483 27.9123 13.0573 27.9502 12.859C28.0092 12.5637 28.0134 12.4456 27.9755 12.1841C27.9502 12.0111 27.887 11.7622 27.8407 11.6357C27.7943 11.5091 27.6975 11.3193 27.6301 11.2138C27.5585 11.1084 26.0842 9.60659 24.3531 7.87281C21.5731 5.09708 21.1729 4.70898 20.9371 4.59509C20.7939 4.52337 20.558 4.43478 20.4106 4.40104C20.2673 4.36729 20.0273 4.33776 19.8756 4.33776C19.724 4.33776 19.4839 4.36729 19.3365 4.40104C19.1933 4.43478 18.9574 4.52337 18.81 4.59509C18.5825 4.70898 18.2203 5.05489 15.8783 7.38769C14.3494 8.91477 13.1489 10.1466 13.0689 10.2731C12.9889 10.3954 12.8793 10.6401 12.8204 10.8131C12.7403 11.0577 12.7151 11.218 12.7151 11.5091C12.7151 11.8002 12.7403 11.9605 12.8204 12.2052C12.8793 12.3781 12.9889 12.6228 13.0647 12.7409C13.1447 12.8632 13.3258 13.0826 13.4648 13.226C13.608 13.3737 13.7386 13.4918 13.7555 13.4918C13.7765 13.4918 15.1539 12.125 16.8219 10.4545C18.4898 8.784 19.8714 7.41722 19.8967 7.41722C19.922 7.41722 21.0719 8.55198 24.9722 12.4583L23.3295 14.1035Z" fill="#0092A7"/>
<path d="M10.4407 19.0387C10.6134 19.1273 10.8788 19.2201 11.0304 19.2497C11.182 19.2792 11.3842 19.3087 11.4853 19.3087C11.5822 19.3129 11.8012 19.2876 11.9697 19.2539C12.134 19.2243 12.3867 19.14 12.5257 19.0683C12.6647 19.0008 12.8837 18.8489 13.0101 18.735C13.1364 18.6211 13.3049 18.4735 13.5197 18.2794L10.466 15.2126C8.78536 13.521 7.40801 12.1289 7.40801 12.1121C7.40801 12.091 8.54527 10.9393 12.4625 7.01618L14.1052 8.66138L16.0849 6.67871L14.9392 5.53551C13.8778 4.4809 13.764 4.37966 13.4734 4.24045C13.3007 4.15608 13.0733 4.06749 12.968 4.0464C12.8627 4.02109 12.6352 4 12.4625 4C12.2898 4 12.0371 4.02953 11.9023 4.06328C11.7717 4.09702 11.5527 4.17717 11.4179 4.24045C11.2073 4.33747 10.7819 4.74666 7.96401 7.56036C4.80073 10.72 4.74597 10.7748 4.58591 11.1081C4.49325 11.2937 4.40058 11.551 4.3711 11.6776C4.34161 11.8083 4.33319 12.0657 4.34582 12.2681C4.35846 12.5002 4.40058 12.7237 4.46797 12.9009C4.52694 13.0528 4.64909 13.289 4.74176 13.4282C4.84285 13.5759 5.98854 14.7528 7.52174 16.2799C9.98581 18.7434 10.1417 18.8911 10.4407 19.0387Z" fill="#AA007B"/>
<path d="M14.0168 13.7657L14.9982 14.7444C15.5373 15.2843 15.9922 15.723 16.0091 15.7146C16.0217 15.7104 16.6578 15.0903 17.4201 14.3394C18.1783 13.5885 18.9028 12.8545 19.0249 12.7153C19.1513 12.5719 19.3072 12.3483 19.3745 12.2133C19.4419 12.0825 19.5262 11.8547 19.5599 11.7071C19.5936 11.5637 19.6231 11.3232 19.6231 11.1713C19.6231 11.0195 19.5936 10.779 19.5599 10.6314C19.5262 10.488 19.4377 10.2559 19.3703 10.1167C19.2945 9.96487 19.1134 9.72442 18.5911 9.18446L14.0168 13.7657Z" fill="#AA007B"/>
<path d="M4.85961 13.6397L7.40792 16.2003V16.2045C8.81055 17.6134 9.96045 18.7651 9.96466 18.7651C9.97308 18.7651 9.97729 18.7609 9.97729 18.7566C9.97729 18.7482 8.82739 17.5966 4.85961 13.6397Z" fill="#E88BA9"/>
<path d="M14.2104 13.9767L15.0949 14.871V14.8752C15.5793 15.3645 15.9879 15.7695 16.0005 15.7695C16.0131 15.7695 16.4681 15.3181 18.0013 13.7657L16.0005 15.7484L14.2104 13.9767Z" fill="#BA4488"/>
<path d="M16.2869 11.4625C14.5431 13.2047 13.9913 13.7742 14.0293 13.8164C14.0503 13.8417 14.084 13.867 14.0967 13.867C14.1093 13.867 14.0967 13.8417 14.0714 13.8164C14.0293 13.7742 14.4884 13.2891 18.5909 9.16343L16.2869 11.4625Z" fill="#BA4488"/>
<path d="M11.0303 4.45987C11.0176 4.45987 9.60657 5.86461 7.89225 7.58151C6.17793 9.29842 4.78794 10.7032 4.809 10.7032C4.82585 10.7032 6.2369 9.29842 7.947 7.58151C9.6529 5.86461 11.0429 4.45987 11.0303 4.45987Z" fill="#BA4488"/>
<path d="M12.4624 7.03312C12.4497 7.03312 12.812 7.40434 13.2627 7.85571C13.7134 8.30708 14.0924 8.67831 14.1051 8.67831C14.1177 8.67831 14.5726 8.22693 16.1058 6.67455L14.1051 8.65721L13.2964 7.84727C12.8499 7.40012 12.475 7.03312 12.4624 7.03312Z" fill="#BA4488"/>
<path d="M13.9577 4.52314L15.0107 5.59041C15.5877 6.17255 16.0679 6.65346 16.0721 6.65346C16.0805 6.65346 16.0848 6.64924 16.0848 6.64502C16.0848 6.63707 15.6586 6.21354 14.2322 4.79599L13.9577 4.52314Z" fill="#BA4488"/>
<path d="M7.8587 18.7225C7.4038 19.1739 7.02892 19.5493 7.02892 19.5535V19.5577C7.02892 19.562 7.03735 19.5662 7.04998 19.5662C7.06262 19.5662 7.4375 19.1907 8.6927 17.8999L7.8587 18.7225Z" fill="#3A92A8"/>
<path d="M16.4008 16.1661L17.875 17.6552C18.6838 18.4694 19.3535 19.1401 19.3577 19.1401C19.3661 19.1401 19.3703 19.1359 19.3703 19.1317C19.3703 19.1237 18.7765 18.5323 16.7871 16.5508L16.4008 16.1661Z" fill="#3A92A8"/>
<path d="M15.7479 16.0185C15.7353 16.0185 15.5963 16.1492 15.432 16.3138C15.2678 16.4783 15.154 16.609 15.1709 16.609C15.1877 16.609 15.3309 16.4741 15.4868 16.3138C15.6426 16.1492 15.7606 16.0185 15.7479 16.0185Z" fill="#3A92A8"/>
<path d="M23.3086 14.0991L24.2985 15.1031C24.8418 15.6515 25.301 16.1028 25.3178 16.1028C25.3389 16.1028 25.3641 16.0775 25.3852 16.0522C25.4063 16.0142 25.3978 16.01 25.3515 16.0353C25.3052 16.0606 25.0524 15.8371 23.3086 14.0991Z" fill="#3A92A8"/>
<path d="M12.7784 13.0023L14.2527 14.4914C15.0614 15.3055 15.7311 15.9763 15.7353 15.9763C15.7437 15.9763 15.7479 15.9721 15.7479 15.9678C15.7479 15.9599 15.1542 15.3685 13.1651 13.3874L12.7784 13.0023Z" fill="#3A92A8"/>
<path d="M21.329 4.8185L24.3827 7.88953V7.88531C26.0633 9.5769 27.4407 10.9563 27.4449 10.9563C27.4533 10.9563 27.4575 10.9521 27.4575 10.9479C27.4575 10.9395 26.0802 9.56003 21.329 4.8185Z" fill="#3A92A8"/>
<path d="M18.4016 4.84381C18.3889 4.84381 17.2137 6.01232 15.7901 7.43815C14.3664 8.86399 13.2123 10.0325 13.2333 10.0325C13.2502 10.0325 14.4253 8.86399 15.8448 7.43815C17.2601 6.01232 18.4142 4.84381 18.4016 4.84381Z" fill="#3A92A8"/>
<path d="M19.8968 7.39597L20.6761 8.18904C21.1057 8.62354 21.4595 8.97789 21.4637 8.97789C21.4722 8.97789 21.4764 8.97367 21.4764 8.96945C21.4764 8.96101 21.1226 8.60666 19.8968 7.39597Z" fill="#3A92A8"/>
<path d="M18.5995 27.8177C18.7216 27.8725 18.8943 27.9358 18.9828 27.9569H18.9786C19.067 27.978 19.2903 27.9949 19.4756 27.9991C19.6609 28.0033 19.9179 27.9864 20.0442 27.9611C20.1706 27.94 20.4191 27.8515 20.5918 27.7671C20.8951 27.6194 21.0257 27.4929 23.9741 24.5484C25.6632 22.8653 27.1247 21.3719 27.2258 21.2327C27.3269 21.0935 27.4617 20.8362 27.5249 20.6632C27.626 20.3975 27.6428 20.2794 27.6428 19.9039C27.647 19.5538 27.626 19.4061 27.5544 19.1868C27.5038 19.0349 27.3859 18.7987 27.2932 18.6595C27.1879 18.495 26.2023 17.4825 24.4627 15.7445C22.0113 13.3063 21.7712 13.0743 21.5185 12.9561C21.3668 12.8844 21.1436 12.8085 21.0214 12.779C20.9035 12.7537 20.6592 12.7326 20.4865 12.7326C20.3138 12.7326 20.0695 12.7537 19.9474 12.779C19.8294 12.8043 19.5978 12.8971 19.4335 12.9815C19.2524 13.0743 19.0123 13.2557 18.4816 13.7661L24.6143 19.9039L19.5388 24.9871L17.8961 23.3419L15.8953 25.3457L16.8852 26.3413C17.4285 26.8854 17.9887 27.4212 18.1277 27.5266C18.2667 27.6321 18.4816 27.7629 18.5995 27.8177Z" fill="#E60123"/>
<path d="M12.7026 22.0131C12.791 22.165 12.9764 22.4055 13.1111 22.5531C13.2501 22.6965 13.3723 22.8146 13.3891 22.8146C13.4018 22.8146 14.4422 21.7853 17.9845 18.2376L16.0048 16.255L14.3874 17.8791C13.0311 19.2416 12.7489 19.5454 12.6436 19.7563C12.5762 19.8955 12.4878 20.1317 12.4498 20.2836C12.4119 20.4354 12.3825 20.6801 12.3825 20.832C12.3825 20.9838 12.4161 21.2496 12.4625 21.4226C12.5046 21.5955 12.6141 21.8613 12.7026 22.0131Z" fill="#E60123"/>
<path d="M15.8532 25.3454L16.9273 26.4211C17.517 27.0117 18.0098 27.4968 18.0224 27.4968C18.0351 27.4968 17.5591 27.012 15.8953 25.3457L17.8961 23.3419L19.5388 24.9871L24.6143 19.9039L18.4226 13.7236L24.5722 19.9036L19.5388 24.9446L17.8961 23.2995L15.8532 25.3454Z" fill="#E88BA9"/>
<path d="M27.1626 21.3801C27.15 21.3801 25.7684 22.7553 24.0878 24.4384C22.4072 26.1216 21.0467 27.4968 21.0678 27.4968C21.0846 27.4968 22.4662 26.1216 24.1426 24.4384C25.8148 22.7553 27.1753 21.3801 27.1626 21.3801Z" fill="#E88BA9"/>
<path d="M16.0006 16.2126L14.4295 17.7945L12.8626 19.3764L16.0006 16.2548L17.875 18.1109L16.0006 16.2126Z" fill="#BA4488"/>
<path d="M17.9802 18.2588C17.9675 18.2588 16.9356 19.2839 15.6846 20.5368C14.4336 21.7896 13.4227 22.8147 13.4438 22.8147C13.4606 22.8147 14.4926 21.7896 15.7393 20.5368C16.9819 19.2839 17.9928 18.2588 17.9802 18.2588Z" fill="#EC223C"/>
<path d="M22.0027 13.26L24.551 15.8205C25.9537 17.2337 27.1036 18.3854 27.1078 18.3854C27.1162 18.3854 27.1204 18.3811 27.1204 18.3769C27.1204 18.3685 25.9705 17.2168 22.0027 13.26Z" fill="#EC223C"/>
</svg>
