<svg width="48" height="48" viewBox="0 0 48 48" fill="none" xmlns="http://www.w3.org/2000/svg">
<path d="M24.625 2.36472C24.1482 1.97449 23.484 1.88956 22.9219 2.14793C22.3597 2.40655 22 2.96202 22 3.57176V6.0991C11.8934 7.10258 4.00007 15.6289 4 25.9995C4 37.0452 12.9543 45.9995 24 45.9995C35.0457 45.9995 44 37.0452 44 25.9995C44 20.7066 41.9426 15.8901 38.5859 12.3139C38.019 11.7101 37.0688 11.6807 36.4648 12.2475C35.8608 12.8145 35.8315 13.7646 36.3984 14.3686C39.2535 17.4107 41 21.4995 41 25.9995C41 35.3883 33.3888 42.9995 24 42.9995C14.6112 42.9995 7 35.3883 7 25.9995C7.00007 17.2874 13.5537 10.1066 22 9.11668V11.4272C22 12.037 22.3597 12.5924 22.9219 12.8511C23.484 13.1095 24.1482 13.0265 24.625 12.6362L29.4238 8.70652C29.7886 8.40796 30 7.96586 30 7.49949C30 7.03317 29.7886 6.59099 29.4238 6.29246L24.625 2.36472Z" fill="#FAFAFA"/>
<path fill-rule="evenodd" clip-rule="evenodd" d="M29.418 18.5957C30.3369 18.5958 31.1408 18.7706 31.8301 19.1191C32.5274 19.4678 33.1068 19.9864 33.5664 20.6758C34.034 21.3573 34.3853 22.1988 34.623 23.1973C34.8606 24.1876 34.9804 25.3241 34.9805 26.6074C34.9805 27.8992 34.8608 29.0407 34.623 30.0312C34.3854 31.0215 34.0338 31.8577 33.5664 32.5391C33.1068 33.2127 32.5274 33.7236 31.8301 34.0723C31.1408 34.4209 30.337 34.5956 29.418 34.5957C28.4987 34.5957 27.6934 34.421 27.0039 34.0723C26.3147 33.7236 25.737 33.2125 25.2695 32.5391C24.8099 31.8575 24.4604 31.0218 24.2227 30.0312C23.9929 29.0407 23.8789 27.9029 23.8789 26.6191C23.8789 25.3281 23.993 24.1875 24.2227 23.1973C24.4604 22.1988 24.8099 21.3573 25.2695 20.6758C25.7369 19.9868 26.3148 19.4677 27.0039 19.1191C27.6934 18.7705 28.4987 18.5957 29.418 18.5957ZM29.418 21.3418C28.9822 21.3418 28.6212 21.4768 28.3359 21.7461C28.0507 22.0155 27.8246 22.3918 27.6582 22.875C27.4918 23.3582 27.3721 23.9209 27.3008 24.5625C27.2374 25.1963 27.207 25.8785 27.207 26.6074C27.207 27.3285 27.2374 28.0105 27.3008 28.6523C27.3721 29.2862 27.4918 29.8448 27.6582 30.3281C27.8246 30.8035 28.0507 31.1759 28.3359 31.4453C28.6212 31.7148 28.9821 31.8496 29.418 31.8496C29.8615 31.8495 30.2266 31.7146 30.5117 31.4453C30.8046 31.1759 31.0311 30.8032 31.1895 30.3281C31.3557 29.8449 31.4698 29.286 31.5332 28.6523C31.6045 28.0105 31.6406 27.3285 31.6406 26.6074C31.6406 25.8785 31.6045 25.1963 31.5332 24.5625C31.4698 23.9209 31.3558 23.3582 31.1895 22.875C31.031 22.3918 30.8047 22.0155 30.5117 21.7461C30.2266 21.4768 29.8615 21.3419 29.418 21.3418Z" fill="#FAFAFA"/>
<path d="M20.6895 34.5957H17.2871V22.3887C17.0271 22.6893 16.706 22.9776 16.3242 23.2539C15.9421 23.5222 15.4783 23.7632 14.9336 23.9746C14.3972 24.1778 13.759 24.3318 13.0195 24.4375V21.4375C13.7671 21.2749 14.4217 21.0556 14.9824 20.7793C15.5515 20.5029 16.048 20.1803 16.4707 19.8145C16.9011 19.4408 17.2822 19.0343 17.6152 18.5957H20.6895V34.5957Z" fill="#FAFAFA"/>
</svg>
