<svg width="40" height="40" viewBox="0 0 40 40" fill="none" xmlns="http://www.w3.org/2000/svg">
<path d="M31.6667 32.5V35H8.33333V32.5H31.6667ZM32.5 31.6667V8.33333C32.5 7.8731 32.1269 7.5 31.6667 7.5H8.33333C7.8731 7.5 7.5 7.8731 7.5 8.33333V31.6667C7.5 32.1269 7.8731 32.5 8.33333 32.5V35L7.99316 34.9821C6.31204 34.8117 5 33.3928 5 31.6667V8.33333C5 6.49238 6.49238 5 8.33333 5H31.6667C33.5076 5 35 6.49238 35 8.33333V31.6667C35 33.5076 33.5076 35 31.6667 35V32.5C32.1269 32.5 32.5 32.1269 32.5 31.6667Z" fill="#FAFAFA"/>
<path d="M20.7834 15.4671L24.0661 18.7498H12.9172C12.2269 18.7498 11.6672 19.3095 11.6672 19.9998C11.6672 20.6902 12.2269 21.2498 12.9172 21.2498H24.0661L20.7834 24.5326C20.2952 25.0208 20.2952 25.8122 20.7834 26.3004C21.2715 26.7885 22.063 26.7885 22.5511 26.3004L26.7893 22.0622C27.9283 20.9232 27.9283 19.0765 26.7893 17.9374L22.5511 13.6993C22.063 13.2111 21.2715 13.2111 20.7834 13.6993C20.2952 14.1874 20.2952 14.9789 20.7834 15.4671Z" fill="#FAFAFA"/>
</svg>
