<svg width="40" height="40" viewBox="0 0 40 40" fill="none" xmlns="http://www.w3.org/2000/svg">
<path d="M12.1556 13.9657C12.7862 14.0295 13.2786 14.5618 13.2786 15.2092C13.2783 15.8562 12.7859 16.3889 12.1556 16.4527L12.0286 16.4592H12.0124C11.3225 16.459 10.7628 15.8991 10.7624 15.2092C10.7624 14.519 11.3222 13.9594 12.0124 13.9592H12.0286L12.1556 13.9657Z" fill="#FAFAFA"/>
<path fill-rule="evenodd" clip-rule="evenodd" d="M11.3223 5.97254C12.0967 6.02881 12.8532 6.23622 13.5472 6.58452L28.7132 14.1757L28.959 14.314C29.5125 14.6634 29.9318 15.1948 30.1406 15.8212C30.3493 16.4476 30.3333 17.1253 30.0999 17.7369L29.986 17.994L29.6068 18.7509H33.3877L33.749 18.7736C34.1075 18.8198 34.4552 18.935 34.7728 19.1122C35.1964 19.3486 35.553 19.6891 35.8079 20.1018C36.0628 20.5144 36.2077 20.9861 36.2295 21.4706C36.2511 21.9545 36.1497 22.4369 35.9333 22.8703L32.6829 29.3694C32.4634 29.8076 32.1341 30.1844 31.7275 30.4582C31.3207 30.7319 30.8491 30.8967 30.3604 30.9351C29.8713 30.9733 29.3792 30.8851 28.9346 30.6779C28.4898 30.4707 28.105 30.1511 27.8197 29.7518L25.6338 26.6952L25.0251 27.9143C24.8578 28.2485 24.6255 28.5483 24.3431 28.7932C24.0608 29.0377 23.7323 29.2253 23.3779 29.3433C23.0235 29.4612 22.6487 29.5082 22.276 29.4817C21.9965 29.4617 21.7214 29.4008 21.4606 29.301L21.2035 29.1871L15.7705 26.4673L14.0273 29.9797L14.0241 29.9862C13.6514 30.7258 13.0787 31.348 12.3721 31.7798C11.6681 32.2099 10.858 32.4332 10.0332 32.4292L5.27734 32.4309V34.3742C5.27734 35.0645 4.71751 35.624 4.02734 35.6242C3.33699 35.6242 2.77734 35.0646 2.77734 34.3742V27.9859C2.77759 27.2957 3.33714 26.7359 4.02734 26.7359C4.71736 26.7361 5.2771 27.2959 5.27734 27.9859V29.9309H10.0413L10.3115 29.9146C10.5787 29.879 10.8366 29.7876 11.0684 29.646C11.3775 29.4571 11.628 29.185 11.791 28.8615L13.5342 25.3475L6.03581 21.5959C4.63921 20.8924 3.57846 19.6634 3.08496 18.1796C2.59186 16.696 2.7055 15.0771 3.40234 13.6776L5.60612 9.2245L5.60775 9.21799C5.9559 8.52422 6.43835 7.90453 7.02539 7.3967C7.61261 6.88893 8.29544 6.50189 9.03223 6.25737C9.76918 6.01298 10.5479 5.9164 11.3223 5.97254ZM26.8984 24.1643L29.8542 28.2984L29.9144 28.3635C29.9373 28.3826 29.9636 28.398 29.9909 28.4107C30.0446 28.4357 30.1043 28.4476 30.1634 28.4432C30.2228 28.4386 30.2816 28.4177 30.3311 28.3847C30.3804 28.3514 30.4215 28.3043 30.4482 28.2512L33.6953 21.7538L33.7246 21.6708C33.7307 21.6422 33.734 21.6123 33.7327 21.5829C33.7301 21.5239 33.7117 21.4655 33.6807 21.4153C33.6497 21.3652 33.6067 21.3236 33.5553 21.2948C33.5294 21.2804 33.5009 21.2696 33.4723 21.2623L33.3861 21.2509H28.3568L26.8984 24.1643ZM11.1416 8.46603C10.6945 8.4336 10.2454 8.48933 9.81999 8.63042C9.39461 8.77157 9.00015 8.99482 8.66113 9.28797C8.32232 9.58113 8.04339 9.93895 7.84245 10.3394L5.64193 14.7893L5.6403 14.7925C5.23818 15.6004 5.17167 16.5355 5.45638 17.3918C5.74091 18.247 6.3528 18.9549 7.15723 19.3612L22.3232 26.9524L22.3867 26.9768C22.4084 26.9827 22.431 26.9865 22.4535 26.9882C22.4988 26.9914 22.5454 26.9846 22.5885 26.9703C22.6314 26.9559 22.6715 26.9331 22.7057 26.9035C22.74 26.8738 22.7684 26.8366 22.7887 26.7961L27.7497 16.8759C27.7903 16.794 27.7979 16.699 27.7692 16.6122C27.7474 16.5466 27.7058 16.4896 27.652 16.4478L27.5951 16.412L12.4274 8.81922C12.0268 8.61812 11.5887 8.49852 11.1416 8.46603Z" fill="#FAFAFA"/>
</svg>
