<svg width="40" height="40" viewBox="0 0 40 40" fill="none" xmlns="http://www.w3.org/2000/svg">
<path fill-rule="evenodd" clip-rule="evenodd" d="M29.4639 3.35286C31.0103 3.42938 32.4785 4.07635 33.5785 5.17578C34.7515 6.34823 35.4111 7.93833 35.4112 9.59635C35.4112 11.2543 34.7513 12.8444 33.5785 14.0169C33.4133 14.182 33.2384 14.3365 33.0577 14.4808C33.5715 14.804 34.0503 15.1909 34.4802 15.638C35.8819 17.0961 36.661 19.0638 36.6612 21.1051V25.0098C36.6612 25.7001 36.1018 26.2594 35.4112 26.2598H34.0196L32.8998 35.5697C32.8243 36.1978 32.2909 36.6728 31.6579 36.6732H26.6531C26.0198 36.6732 25.4851 36.1981 25.4096 35.5697L24.2914 26.2598H22.8998C22.2089 26.2598 21.6482 25.7004 21.6482 25.0098V21.1051C21.6484 19.0639 22.4277 17.0961 23.8292 15.638C24.2589 15.1911 24.7366 14.8022 25.2501 14.4792C25.0701 14.3353 24.897 14.1814 24.7325 14.0169C23.5594 12.8444 22.8998 11.2546 22.8998 9.59635C22.8999 7.93825 23.5594 6.34825 24.7325 5.17578C25.9055 4.00351 27.4959 3.34481 29.1547 3.34473L29.4639 3.35286ZM29.1547 15.8496C27.8441 15.8497 26.5768 16.3909 25.6342 17.3714C24.6901 18.3536 24.15 19.6956 24.1498 21.1051V23.7598H25.4014C26.0347 23.7598 26.5694 24.2332 26.6449 24.8617L27.7631 34.1715H30.5463L31.6661 24.8617L31.7165 24.6338C31.8779 24.1224 32.354 23.7599 32.9079 23.7598H34.1596V21.1051C34.1594 19.6955 33.6194 18.3536 32.6752 17.3714C31.7325 16.391 30.4653 15.8496 29.1547 15.8496ZM29.1547 5.84473C28.1594 5.84481 27.2055 6.24152 26.5017 6.94499C25.798 7.64842 25.4015 8.6016 25.4014 9.59635C25.4014 10.5913 25.7978 11.5458 26.5017 12.2493C27.2055 12.9526 28.1595 13.3479 29.1547 13.348C30.1501 13.348 31.1054 12.9529 31.8093 12.2493C32.5131 11.5458 32.9079 10.5912 32.9079 9.59635C32.9078 8.60184 32.5127 7.64837 31.8093 6.94499C31.1935 6.32949 30.3849 5.94798 29.5258 5.86263L29.1547 5.84473Z" fill="#FAFAFA"/>
<path fill-rule="evenodd" clip-rule="evenodd" d="M11.9753 3.34798C13.5215 3.42455 14.9884 4.07167 16.0883 5.1709C17.2613 6.34336 17.9209 7.93337 17.921 9.59147C17.921 11.2496 17.2613 12.8395 16.0883 14.012C15.8395 14.2607 15.5706 14.4848 15.2875 14.6859C15.5332 14.9053 15.7633 15.1485 15.9776 15.4134C16.9638 16.6328 17.6114 18.2884 18.1488 20.0635C18.1548 20.0831 18.1618 20.1038 18.1667 20.1237L19.9506 27.2721C20.0438 27.6456 19.9598 28.043 19.7227 28.3464C19.4858 28.6493 19.1211 28.8263 18.7364 28.8265H16.2722L15.255 35.5518C15.1622 36.1627 14.6362 36.6158 14.018 36.6162H9.29792C8.67966 36.6159 8.15367 36.1628 8.06094 35.5518L7.04206 28.8265H4.5795C4.19455 28.8265 3.83028 28.6494 3.59317 28.3464C3.35606 28.0431 3.2722 27.6456 3.36531 27.2721L5.14916 20.1188L5.16544 20.0586C5.70296 18.2832 6.35173 16.6285 7.33829 15.4102C7.55396 15.1439 7.78598 14.8995 8.03327 14.6794C7.75391 14.48 7.48816 14.2578 7.24226 14.012C6.06941 12.8395 5.40958 11.2495 5.40958 9.59147C5.40968 7.9334 6.06925 6.34336 7.24226 5.1709C8.41541 3.99834 10.007 3.33984 11.6661 3.33984L11.9753 3.34798ZM11.6579 15.8447C10.6017 15.8448 9.88956 16.2342 9.28327 16.9824C8.62105 17.8001 8.08368 19.0524 7.56452 20.7633L6.18106 26.3249H8.11954L8.34577 26.346C8.86195 26.441 9.27388 26.8545 9.35489 27.3893L10.3738 34.1146H12.9405L13.9594 27.3893C14.052 26.7779 14.5793 26.3249 15.198 26.3249H17.1348L15.7481 20.7666C15.2291 19.0566 14.695 17.8028 14.0326 16.984C13.4258 16.234 12.7133 15.8449 11.6579 15.8447ZM11.6661 5.83984C10.6706 5.83984 9.71535 6.23657 9.01146 6.9401C8.30799 7.6435 7.91294 8.59691 7.91283 9.59147C7.91283 10.5864 8.30764 11.5409 9.01146 12.2445C9.71535 12.948 10.6706 13.3431 11.6661 13.3431C12.6613 13.343 13.6153 12.9478 14.3191 12.2445C15.023 11.5409 15.4193 10.5864 15.4193 9.59147C15.4192 8.59676 15.0227 7.64352 14.3191 6.9401C13.7033 6.32464 12.8962 5.94312 12.0372 5.85775L11.6661 5.83984Z" fill="#FAFAFA"/>
</svg>
