<svg width="40" height="40" viewBox="0 0 40 40" fill="none" xmlns="http://www.w3.org/2000/svg">
<path fill-rule="evenodd" clip-rule="evenodd" d="M21.7899 8.51859C20.9824 7.16047 19.016 7.16047 18.2085 8.51859L5.7352 29.4964C4.90948 30.8851 5.91024 32.6445 7.5259 32.6445H32.4725C34.0881 32.6445 35.0889 30.8851 34.2632 29.4964L21.7899 8.51859ZM23.9387 7.2409L36.412 28.2187C38.2286 31.2739 36.0269 35.1445 32.4725 35.1445H7.5259C3.97146 35.1445 1.76977 31.2739 3.58636 28.2187L16.0597 7.24091C17.8362 4.25304 22.1622 4.25303 23.9387 7.2409Z" fill="#FAFAFA"/>
<path d="M17.8535 16.0048C18.2249 15.6513 18.7864 15.4664 19.3574 15.6109L19.6032 15.6939L19.652 15.7167C21.6632 16.6768 23.3623 18.1801 24.5527 20.0559C25.6578 21.6703 26.2502 23.5775 26.2503 25.5311V25.5409C26.2238 28.9353 23.4047 31.2845 20.2982 31.3921L19.997 31.3954C16.8973 31.3575 13.8919 29.0484 13.7715 25.6565L13.7519 25.344C13.7063 23.7905 14.4759 22.3578 15.6107 21.4312C15.9978 21.0858 16.5442 20.8354 17.1715 20.9836C17.736 21.1173 18.0755 21.5125 18.2343 21.8137H18.236C18.2425 21.826 18.2519 21.8372 18.2588 21.8495C18.405 21.3086 18.4335 20.6947 18.3401 20.0608L18.2897 19.7727C18.156 19.1049 17.913 18.4623 17.5703 17.87L17.5719 17.8684C17.1357 17.1234 17.4686 16.3711 17.8535 16.0048ZM20.8125 19.6848V19.6897L20.876 20.2723C20.9736 21.6587 20.6986 23.212 19.7008 24.4537L19.6992 24.4553C19.5531 24.6364 19.3695 24.7838 19.1621 24.8866C18.9595 24.987 18.738 25.0418 18.5127 25.051L18.5143 25.0526C18.5089 25.0529 18.5034 25.0508 18.498 25.051L18.4964 25.0526L18.4948 25.051C18.2643 25.0585 18.0353 25.0176 17.8226 24.9289H17.8209C17.6169 24.8436 17.434 24.7152 17.2806 24.5546L17.2789 24.5578C17.1099 24.3843 16.8986 24.1699 16.6832 23.9198C16.4212 24.2959 16.2695 24.7191 16.2519 25.1356L16.2601 25.4074L16.2666 25.5083C16.3005 27.3564 17.985 28.8704 20.028 28.8954L20.4072 28.8824C22.2799 28.7331 23.7315 27.3184 23.7503 25.5311L23.7291 24.9891C23.647 23.9067 23.3201 22.8559 22.7721 21.9146L22.4808 21.454C22.4715 21.4405 22.4619 21.4255 22.4531 21.4117C21.9853 20.6711 21.4158 20.004 20.7653 19.426L20.8125 19.6848Z" fill="#FAFAFA"/>
</svg>
