<svg width="40" height="40" viewBox="0 0 40 40" fill="none" xmlns="http://www.w3.org/2000/svg">
<path d="M26.4608 23.1135C26.9518 22.713 27.6763 22.7421 28.134 23.1997C28.5917 23.6574 28.6208 24.3819 28.2202 24.8729L28.134 24.9673L20.634 32.4673C20.1763 32.925 19.4518 32.9541 18.9608 32.5536L18.8664 32.4673L11.3664 24.9673L11.2801 24.8729C10.8796 24.3819 10.9087 23.6574 11.3664 23.1997C11.8241 22.7421 12.5486 22.713 13.0396 23.1135L13.134 23.1997L19.7502 29.816L26.3664 23.1997L26.4608 23.1135Z" fill="#FAFAFA"/>
<path d="M18.9608 7.28014C19.4518 6.87963 20.1763 6.90873 20.634 7.36641L28.134 14.8664L28.2202 14.9608C28.6208 15.4518 28.5917 16.1763 28.134 16.634C27.6763 17.0917 26.9518 17.1208 26.4608 16.7202L26.3664 16.634L19.7502 10.0178L13.134 16.634C12.6458 17.1221 11.8546 17.1221 11.3664 16.634C10.8783 16.1458 10.8783 15.3546 11.3664 14.8664L18.8664 7.36641L18.9608 7.28014Z" fill="#FAFAFA"/>
</svg>
