<svg width="40" height="40" viewBox="0 0 40 40" fill="none" xmlns="http://www.w3.org/2000/svg">
<path d="M29.7881 7.09961C30.5826 7.17867 31.3298 7.53094 31.8994 8.10059L32.1309 8.35449C32.6368 8.97206 32.9168 9.74905 32.917 10.5547V32.7783C32.9168 33.699 32.5503 34.5815 31.8994 35.2324C31.2486 35.8833 30.3659 36.2498 29.4453 36.25H10.5547C9.74902 36.2498 8.97206 35.9699 8.35449 35.4639L8.10059 35.2324C7.44959 34.5814 7.08317 33.6988 7.08301 32.7783V10.5547C7.08322 9.63409 7.44969 8.75155 8.10059 8.10059L8.35449 7.86914C8.97214 7.36304 9.74916 7.08322 10.5547 7.08301C11.245 7.08301 11.8046 7.64276 11.8047 8.33301C11.8047 9.02336 11.245 9.58301 10.5547 9.58301C10.3618 9.58319 10.1748 9.64074 10.0166 9.74609L9.86816 9.86816C9.68606 10.0503 9.58322 10.2972 9.58301 10.5547V32.7783C9.58317 33.0359 9.6862 33.2828 9.86816 33.4648L10.0166 33.5869C10.1749 33.6923 10.3619 33.7498 10.5547 33.75H29.4453C29.7028 33.7498 29.9497 33.6469 30.1318 33.4648C30.3139 33.2827 30.4168 33.0358 30.417 32.7783V10.5547C30.4168 10.3619 30.3593 10.1749 30.2539 10.0166L30.1318 9.86816C29.9954 9.73169 29.8224 9.64 29.6357 9.60254L29.4453 9.58301L29.3164 9.57715C28.6862 9.51303 28.1953 8.98014 28.1953 8.33301C28.1954 7.64276 28.755 7.08301 29.4453 7.08301L29.7881 7.09961Z" fill="#FAFAFA"/>
<path d="M24.0234 17.5518C24.4547 17.0128 25.2422 16.9253 25.7812 17.3564C26.3203 17.7877 26.4077 18.5752 25.9766 19.1143L19.3096 27.4482C18.9628 27.8813 18.3793 28.0274 17.8789 27.832L17.6709 27.7266L14.3379 25.6426L14.2314 25.5693C13.7317 25.1808 13.5977 24.4693 13.9404 23.9209C14.2833 23.3725 14.9816 23.181 15.5498 23.46L15.6621 23.5234L18.0498 25.0166L24.0234 17.5518Z" fill="#FAFAFA"/>
<path fill-rule="evenodd" clip-rule="evenodd" d="M23 3.75C24.0336 3.75012 24.8736 4.3122 25.4131 5.03125C25.9522 5.75005 26.2499 6.68558 26.25 7.66602V9.00098C26.2498 9.98131 25.9521 10.917 25.4131 11.6357C24.8736 12.3547 24.0335 12.9169 23 12.917H17C15.9665 12.9169 15.1264 12.3547 14.5869 11.6357C14.0479 10.917 13.7502 9.98131 13.75 9.00098V7.66602C13.7501 6.68558 14.0478 5.75005 14.5869 5.03125C15.1264 4.3122 15.9664 3.75012 17 3.75H23ZM17 6.25C16.9292 6.25011 16.769 6.28588 16.585 6.53125C16.4006 6.77736 16.2501 7.17463 16.25 7.66602V9.00098C16.2502 9.49196 16.4008 9.88868 16.585 10.1348C16.769 10.3802 16.9292 10.4169 17 10.417H23C23.0708 10.4169 23.231 10.3802 23.415 10.1348C23.5992 9.88868 23.7498 9.49196 23.75 9.00098V7.66602C23.7499 7.17463 23.5994 6.77736 23.415 6.53125C23.231 6.28588 23.0708 6.25011 23 6.25H17Z" fill="#FAFAFA"/>
</svg>
