<svg width="40" height="40" viewBox="0 0 40 40" fill="none" xmlns="http://www.w3.org/2000/svg">
<path fill-rule="evenodd" clip-rule="evenodd" d="M33.3337 35.4168C33.3337 36.1072 32.774 36.6668 32.0837 36.6668H7.91699C7.22664 36.6668 6.66699 36.1072 6.66699 35.4168C6.66699 34.7265 7.22664 34.1668 7.91699 34.1668H32.0837C32.774 34.1668 33.3337 34.7265 33.3337 35.4168ZM27.9675 21.1996C28.4557 21.6878 28.4557 22.4792 27.9675 22.9674L22.0627 28.8722C20.9237 30.0112 19.077 30.0112 17.938 28.8722L12.0331 22.9674C11.545 22.4792 11.545 21.6878 12.0331 21.1996C12.5213 20.7115 13.3127 20.7115 13.8009 21.1996L18.7504 26.1491V4.5835C18.7504 3.89314 19.31 3.3335 20.0004 3.3335C20.6907 3.3335 21.2504 3.89314 21.2504 4.5835V26.1491L26.1998 21.1996C26.6879 20.7115 27.4794 20.7115 27.9675 21.1996Z" fill="#FAFAFA"/>
</svg>
