<svg width="40" height="40" viewBox="0 0 40 40" fill="none" xmlns="http://www.w3.org/2000/svg">
<path fill-rule="evenodd" clip-rule="evenodd" d="M4.6875 20.0001C4.68752 18.8398 5.14798 17.7265 5.96842 16.906C6.78889 16.0856 7.9022 15.6251 9.0625 15.6251C10.2228 15.6251 11.3361 16.0856 12.1566 16.906C12.6749 17.4243 13.0479 18.06 13.2536 18.7501H31.0449L28.4912 16.1964C28.0031 15.7082 28.0031 14.9169 28.4912 14.4288C28.9794 13.9407 29.7706 13.9407 30.2588 14.4288L34.9463 19.1163C34.9994 19.1694 35.0447 19.2277 35.0863 19.2872C35.1376 19.3608 35.1817 19.4393 35.2165 19.5232C35.2385 19.5766 35.2526 19.6321 35.2669 19.6876C35.2726 19.7095 35.282 19.7304 35.2865 19.7527C35.2884 19.7624 35.2896 19.7722 35.2913 19.782C35.3039 19.8529 35.3125 19.9256 35.3125 20.0001C35.3125 20.0757 35.3042 20.1495 35.2913 20.2214C35.2897 20.2307 35.2883 20.2399 35.2865 20.2491C35.2819 20.2714 35.2726 20.2924 35.2669 20.3142C35.2525 20.3696 35.2386 20.4252 35.2165 20.4786C35.1963 20.5272 35.1691 20.5717 35.1432 20.617C35.0892 20.7114 35.0269 20.8032 34.9463 20.8839L30.2588 25.5714C29.7706 26.0595 28.9794 26.0595 28.4912 25.5714C28.0031 25.0832 28.0031 24.2919 28.4912 23.8038L31.0449 21.2501H13.2536C13.048 21.9402 12.6749 22.5758 12.1566 23.0942C11.3361 23.9146 10.2228 24.3751 9.0625 24.3751C7.90218 24.3751 6.7889 23.9146 5.96842 23.0942C5.14798 22.2737 4.6875 21.1604 4.6875 20.0001ZM7.1875 20.0001C7.1875 20.4974 7.3844 20.975 7.736 21.3266C8.08763 21.6782 8.56522 21.8751 9.0625 21.8751C9.55978 21.8751 10.0374 21.6782 10.389 21.3266C10.7406 20.975 10.9375 20.4974 10.9375 20.0001C10.9375 19.5028 10.7406 19.0252 10.389 18.6736C10.0374 18.322 9.55976 18.1251 9.0625 18.1251C8.56524 18.1251 8.08763 18.322 7.736 18.6736C7.38439 19.0252 7.18752 19.5028 7.1875 20.0001Z" fill="#FAFAFA"/>
</svg>
