<svg width="40" height="40" viewBox="0 0 40 40" fill="none" xmlns="http://www.w3.org/2000/svg">
<path d="M20.0003 24.1668C20.9207 24.1668 21.6669 24.9131 21.667 25.8335C21.6666 26.7536 20.9206 27.5002 20.0003 27.5002C19.0803 27.4999 18.334 26.7535 18.3337 25.8335C18.3338 24.9133 19.0801 24.1671 20.0003 24.1668Z" fill="#FAFAFA"/>
<path d="M20.0003 13.3335C20.6907 13.3335 21.2503 13.8931 21.2503 14.5835V21.2502C21.2499 21.9401 20.6904 22.5002 20.0003 22.5002C19.3104 22.5 18.7508 21.94 18.7503 21.2502V14.5835C18.7503 13.8932 19.3101 13.3337 20.0003 13.3335Z" fill="#FAFAFA"/>
<path fill-rule="evenodd" clip-rule="evenodd" d="M25.0199 4.59489C25.5734 4.6499 26.0943 4.89475 26.4912 5.2915L34.7106 13.5109L34.8717 13.6883C35.2242 14.1187 35.4186 14.6604 35.4186 15.2215V24.7788C35.4186 25.4202 35.1642 26.0358 34.7106 26.4894L26.4912 34.7088L26.3138 34.8683C25.9448 35.1709 25.4946 35.3583 25.0199 35.4054L24.7806 35.4168H15.2201C14.6586 35.4167 14.1173 35.2214 13.6868 34.8683L13.5094 34.7088L5.29004 26.4894C4.83667 26.0358 4.58203 25.4202 4.58203 24.7788V15.2215C4.58203 14.5802 4.83668 13.9645 5.29004 13.5109L13.5094 5.2915C13.963 4.83804 14.5787 4.58362 15.2201 4.5835H24.7806L25.0199 4.59489ZM7.08203 15.2541V24.7463L15.2526 32.9168H24.748L32.9186 24.7463V15.2541L24.748 7.0835H15.2526L7.08203 15.2541Z" fill="#FAFAFA"/>
</svg>
