<svg width="40" height="40" viewBox="0 0 40 40" fill="none" xmlns="http://www.w3.org/2000/svg">
<path d="M33.75 8.75C34.4404 8.75 35 9.30964 35 10C35 10.6904 34.4404 11.25 33.75 11.25H6.25C5.55964 11.25 5 10.6904 5 10C5 9.30964 5.55964 8.75 6.25 8.75H33.75Z" fill="#FAFAFA"/>
<path d="M15 27.5V17.5C15 16.8096 15.5596 16.25 16.25 16.25C16.9404 16.25 17.5 16.8096 17.5 17.5V27.5C17.5 28.1904 16.9404 28.75 16.25 28.75C15.5596 28.75 15 28.1904 15 27.5Z" fill="#FAFAFA"/>
<path d="M22.5 27.5V17.5C22.5 16.8096 23.0596 16.25 23.75 16.25C24.4404 16.25 25 16.8096 25 17.5V27.5C25 28.1904 24.4404 28.75 23.75 28.75C23.0596 28.75 22.5 28.1904 22.5 27.5Z" fill="#FAFAFA"/>
<path d="M7.5 33.75V10C7.5 9.30964 8.05964 8.75 8.75 8.75C9.44036 8.75 10 9.30964 10 10V33.75H30V10C30 9.30964 30.5596 8.75 31.25 8.75C31.9404 8.75 32.5 9.30964 32.5 10V33.75C32.5 34.413 32.2364 35.0487 31.7676 35.5176C31.2987 35.9864 30.663 36.25 30 36.25H10C9.33696 36.25 8.70126 35.9864 8.23242 35.5176C7.76358 35.0487 7.5 34.413 7.5 33.75Z" fill="#FAFAFA"/>
<path d="M25 10V7.5C25 7.16848 24.8682 6.85063 24.6338 6.61621C24.4582 6.44058 24.2357 6.32254 23.9958 6.27441L23.75 6.25H16.25C15.9185 6.25 15.6006 6.38179 15.3662 6.61621C15.1318 6.85063 15 7.16848 15 7.5V10C15 10.6904 14.4404 11.25 13.75 11.25C13.0596 11.25 12.5 10.6904 12.5 10V7.5C12.5 6.50544 12.8954 5.55189 13.5986 4.84863C14.3019 4.14537 15.2554 3.75 16.25 3.75H23.75L24.1211 3.7679C24.9794 3.85322 25.7861 4.23338 26.4014 4.84863C27.1046 5.55189 27.5 6.50544 27.5 7.5V10C27.5 10.6904 26.9404 11.25 26.25 11.25C25.5596 11.25 25 10.6904 25 10Z" fill="#FAFAFA"/>
</svg>
