<svg width="40" height="40" viewBox="0 0 40 40" fill="none" xmlns="http://www.w3.org/2000/svg">
<path d="M33.6051 26.1475C34.2598 25.9299 34.9673 26.284 35.1855 26.9386C35.4033 27.5933 35.0492 28.3024 34.3945 28.5206L13.3952 35.5193C12.7407 35.7373 12.0318 35.3841 11.8132 34.7299C11.5949 34.0751 11.9495 33.3663 12.6042 33.1479L33.6051 26.1475Z" fill="#FAFAFA"/>
<path d="M10.9993 19.5834C11.9658 19.5834 12.7488 20.3668 12.749 21.3331C12.749 22.2996 11.9659 23.0828 10.9993 23.0828C10.033 23.0826 9.24967 22.2994 9.24967 21.3331C9.24985 20.3669 10.0331 19.5836 10.9993 19.5834Z" fill="#FAFAFA"/>
<path fill-rule="evenodd" clip-rule="evenodd" d="M10.9993 14.0837C12.9222 14.0837 14.7667 14.8481 16.1263 16.2078C17.4856 17.5672 18.2502 19.4107 18.2503 21.3331C18.2502 22.2254 17.9486 23.1968 17.5651 24.0984C17.1712 25.0243 16.6383 25.9956 16.071 26.9239C14.9355 28.7817 13.5982 30.563 12.7718 31.6195C12.5615 31.8887 12.2928 32.1062 11.9857 32.2559C11.6779 32.4061 11.3405 32.4854 10.9993 32.4854C10.6582 32.4853 10.3207 32.4078 10.013 32.2576C9.70643 32.1079 9.43695 31.8899 9.22689 31.6212C8.40077 30.5643 7.06503 28.7818 5.92936 26.9239C5.36204 25.9958 4.82917 25.0242 4.43522 24.0984C4.05169 23.1969 3.75009 22.2255 3.75 21.3331C3.75017 19.4106 4.51466 17.5672 5.87402 16.2078C7.2335 14.8483 9.07677 14.0839 10.9993 14.0837ZM10.9993 16.5837C9.73981 16.5839 8.53224 17.0847 7.6416 17.9753C6.75111 18.8659 6.25017 20.0736 6.25 21.3331C6.2501 21.7212 6.39608 22.3217 6.73503 23.1186C7.0639 23.8916 7.52961 24.75 8.06152 25.6202C9.04058 27.2219 10.1967 28.7857 10.9993 29.8243C11.8018 28.7865 12.9579 27.2224 13.9372 25.6202C14.4689 24.7502 14.9348 23.8931 15.2637 23.1202C15.6029 22.3228 15.7502 21.7213 15.7503 21.3331C15.7502 20.0737 15.2491 18.8659 14.3587 17.9753C13.4679 17.0845 12.2591 16.5837 10.9993 16.5837Z" fill="#FAFAFA"/>
<path d="M30 12.5831C30.9662 12.5831 31.7493 13.3666 31.7497 14.3328C31.7497 15.2993 30.9665 16.0824 30 16.0824C29.0337 16.0823 28.2503 15.2992 28.2503 14.3328C28.2507 13.3667 29.0339 12.5833 30 12.5831Z" fill="#FAFAFA"/>
<path fill-rule="evenodd" clip-rule="evenodd" d="M30 8.08439C31.6577 8.08439 33.2468 8.74338 34.4189 9.91545C35.5907 11.0875 36.25 12.677 36.25 14.3344C36.2498 15.1501 35.9606 16.0925 35.6136 16.9646C35.2526 17.8719 34.7675 18.852 34.2578 19.7917C33.2367 21.6742 32.068 23.4885 31.46 24.406C31.3005 24.6464 31.0826 24.8453 30.8268 24.9822L30.8252 24.9806C30.571 25.1166 30.2875 25.1889 30 25.1889C29.7124 25.1888 29.4291 25.1168 29.1748 24.9806C28.9189 24.8437 28.7012 24.6465 28.5417 24.406C27.9337 23.4893 26.7652 21.6768 25.7438 19.795C25.2337 18.855 24.7477 17.8743 24.3864 16.9662C24.0392 16.0934 23.7502 15.1513 23.75 14.3344C23.75 12.677 24.4093 11.0875 25.5811 9.91545C26.7532 8.74338 28.3423 8.08439 30 8.08439ZM30 10.5844C29.0054 10.5844 28.052 10.9798 27.3486 11.683C26.6457 12.3863 26.25 13.34 26.25 14.3344C26.2502 14.6534 26.3847 15.2265 26.709 16.0417C27.0196 16.8225 27.4555 17.7073 27.9411 18.602C28.6321 19.8752 29.4011 21.1258 30 22.0623C30.5988 21.1251 31.3695 19.8743 32.0605 18.6003C32.5459 17.7055 32.9805 16.8206 33.291 16.0401C33.6154 15.2247 33.7498 14.6519 33.75 14.3344C33.75 13.34 33.3543 12.3863 32.6514 11.683C31.948 10.9798 30.9946 10.5844 30 10.5844Z" fill="#FAFAFA"/>
<path d="M20.9619 20.6479C21.2768 20.0336 22.0289 19.7911 22.6432 20.1059L25.5599 21.6C26.1741 21.915 26.4168 22.6687 26.1019 23.283C25.7868 23.897 25.0331 24.1398 24.4189 23.825L21.5039 22.3292C20.8896 22.0143 20.6471 21.2622 20.9619 20.6479Z" fill="#FAFAFA"/>
<path d="M15.9993 4.08374C17.6569 4.08374 19.2462 4.74273 20.4183 5.9148C21.5901 7.08686 22.2493 8.67623 22.2493 10.3337C22.2493 10.4043 22.2433 10.4758 22.2314 10.5453C21.8892 12.5446 21.1471 14.4557 20.0505 16.1622C19.677 16.7421 18.904 16.9094 18.3236 16.5365C17.7432 16.1633 17.5747 15.3903 17.9476 14.8097C18.8418 13.4179 19.4506 11.8634 19.7445 10.2361C19.7195 9.27706 19.3307 8.36256 18.6507 7.68237C17.9474 6.97912 16.9939 6.58374 15.9993 6.58374C15.0048 6.58374 14.0512 6.97911 13.348 7.68237C12.6498 8.38062 12.2549 9.32576 12.2493 10.3126C12.2563 10.5417 12.2922 10.7692 12.3551 10.9897C12.5446 11.6533 12.1594 12.3462 11.4958 12.5359C10.8323 12.7252 10.141 12.3399 9.95117 11.6765C9.82936 11.2501 9.7609 10.8097 9.74935 10.3663C9.74907 10.3556 9.74934 10.3444 9.74935 10.3337C9.74935 8.67624 10.4084 7.08688 11.5804 5.9148C12.7525 4.74269 14.3417 4.08374 15.9993 4.08374Z" fill="#FAFAFA"/>
<path d="M16.1784 8.5922C17.0606 8.68186 17.7489 9.42783 17.749 10.3337C17.7486 11.2999 16.9656 12.0834 15.9993 12.0834C15.0333 12.0832 14.2501 11.2998 14.2497 10.3337C14.2499 9.3675 15.0331 8.58424 15.9993 8.58407L16.1784 8.5922Z" fill="#FAFAFA"/>
</svg>
