<svg width="40" height="40" viewBox="0 0 40 40" fill="none" xmlns="http://www.w3.org/2000/svg">
<path d="M20.001 11.6797C20.6912 11.6798 21.251 12.2394 21.251 12.9297V18.751H27.0723C27.7624 18.7512 28.3223 19.3108 28.3223 20.001C28.3221 20.6911 27.7623 21.2507 27.0723 21.251H21.251V27.0723C21.2507 27.7623 20.6911 28.3221 20.001 28.3223C19.3108 28.3223 18.7512 27.7624 18.751 27.0723V21.251H12.9297C12.2394 21.251 11.6798 20.6912 11.6797 20.001C11.6797 19.3106 12.2393 18.751 12.9297 18.751H18.751V12.9297C18.751 12.2393 19.3106 11.6797 20.001 11.6797Z" fill="#FAFAFA"/>
<path fill-rule="evenodd" clip-rule="evenodd" d="M20 3.33301C29.2045 3.33318 36.6659 10.7954 36.666 20C36.666 29.2046 29.2046 36.6668 20 36.667C10.7953 36.667 3.33301 29.2047 3.33301 20C3.3331 10.7953 10.7953 3.33301 20 3.33301ZM20 5.83398C12.176 5.83398 5.8331 12.176 5.83301 20C5.83301 27.824 12.176 34.167 20 34.167C27.8239 34.1668 34.166 27.8239 34.166 20C34.1659 12.1761 27.8238 5.83416 20 5.83398Z" fill="#FAFAFA"/>
</svg>
