<svg width="40" height="40" viewBox="0 0 40 40" fill="none" xmlns="http://www.w3.org/2000/svg">
<path fill-rule="evenodd" clip-rule="evenodd" d="M25.9661 12.4527C26.5361 12.4527 27.0831 12.6794 27.4863 13.0826C27.8895 13.4858 28.1162 14.0329 28.1162 14.6028V16.0514H29.5664C30.1362 16.0515 30.6835 16.278 31.0866 16.6812C31.4898 17.0845 31.7148 17.6316 31.7148 18.2014V21.8C31.7146 22.3693 31.4894 22.9172 31.0866 23.3202C30.6835 23.7234 30.136 23.9499 29.5664 23.9501H28.1162V25.4003C28.1158 25.9698 27.8896 26.5175 27.4863 26.9205C27.0831 27.3233 26.5355 27.5487 25.9661 27.5487H22.3675C21.7978 27.5487 21.2506 27.3222 20.8473 26.9189C20.4446 26.516 20.2178 25.9694 20.2174 25.4003V23.9501H18.7689C18.199 23.9501 17.6519 23.7234 17.2487 23.3202C16.8457 22.9172 16.619 22.3697 16.6188 21.8V18.2014C16.6188 17.6316 16.8457 17.0844 17.2487 16.6812C17.6518 16.2782 18.1988 16.0514 18.7689 16.0514H20.2174V14.6028C20.2174 14.0331 20.4444 13.4858 20.8473 13.0826C21.2505 12.6793 21.7975 12.4528 22.3675 12.4527H25.9661ZM22.7174 17.3014C22.717 17.9913 22.1575 18.5514 21.4674 18.5514H19.1188V21.4501H21.4674C22.1577 21.4501 22.7173 22.0099 22.7174 22.7001V25.0487H25.6162V22.7001C25.6163 22.0099 26.176 21.4502 26.8662 21.4501H29.2148V18.5514H26.8662C26.1762 18.5512 25.6167 17.9913 25.6162 17.3014V14.9527H22.7174V17.3014Z" fill="#FAFAFA"/>
<path fill-rule="evenodd" clip-rule="evenodd" d="M5.61133 3.33325C6.30168 3.33325 6.86133 3.8929 6.86133 4.58325V11.5559H11.6676V10.8333C11.6676 8.9923 13.16 7.49992 15.001 7.49992H33.3343C35.1749 7.50036 36.6676 8.99257 36.6676 10.8333V29.1666C36.6676 30.8924 35.3552 32.3112 33.6745 32.482L33.3343 32.4999H15.001L14.6608 32.482C13.0916 32.3229 11.8447 31.076 11.6855 29.5068L11.6676 29.1666V28.4439H6.86133V35.4166C6.86133 36.1069 6.30168 36.6666 5.61133 36.6666C4.92097 36.6666 4.36133 36.1069 4.36133 35.4166V4.58325C4.36133 3.8929 4.92097 3.33325 5.61133 3.33325ZM15.001 9.99992C14.5407 9.99992 14.1676 10.373 14.1676 10.8333V29.1666C14.1676 29.6268 14.5407 29.9999 15.001 29.9999H33.3343C33.7942 29.9995 34.1676 29.6266 34.1676 29.1666V10.8333C34.1676 10.3733 33.7942 10.0004 33.3343 9.99992H15.001ZM6.86133 25.9439H11.6676V14.0559H6.86133V25.9439Z" fill="#FAFAFA"/>
</svg>
