<svg width="40" height="40" viewBox="0 0 40 40" fill="none" xmlns="http://www.w3.org/2000/svg">
<path fill-rule="evenodd" clip-rule="evenodd" d="M20.4954 18.3577C21.6398 18.4715 22.7155 18.9778 23.5358 19.7982C24.4735 20.7359 25.0007 22.0073 25.0007 23.3333L24.9762 23.8281C24.8625 24.9725 24.3561 26.0482 23.5358 26.8685L23.1696 27.2005C22.2798 27.9297 21.1611 28.3333 20.0007 28.3333C18.8402 28.3333 17.7215 27.9297 16.8317 27.2005L16.4655 26.8685C15.6452 26.0482 15.1388 24.9725 15.0251 23.8281L15.0007 23.3333C15.0007 22.1729 15.4043 21.0542 16.1335 20.1644L16.4655 19.7982C17.4032 18.8605 18.6746 18.3333 20.0007 18.3333L20.4954 18.3577ZM20.0007 20.8333C19.3376 20.8333 18.7019 21.0969 18.2331 21.5658C17.7642 22.0346 17.5007 22.6703 17.5007 23.3333C17.5007 23.9964 17.7642 24.6321 18.2331 25.1009C18.7019 25.5698 19.3376 25.8333 20.0007 25.8333C20.6637 25.8333 21.2994 25.5698 21.7682 25.1009C22.2371 24.6321 22.5007 23.9964 22.5007 23.3333C22.5007 22.6703 22.2371 22.0346 21.7682 21.5658C21.2994 21.0969 20.6637 20.8333 20.0007 20.8333Z" fill="#FAFAFA"/>
<path fill-rule="evenodd" clip-rule="evenodd" d="M20.0007 3.75C22.5423 3.75 24.9791 4.76039 26.7764 6.55762C28.2763 8.05753 29.2255 10.0033 29.4993 12.0833H31.6673L31.7959 12.0898C32.4258 12.1542 32.9173 12.6864 32.9173 13.3333C32.9173 13.9803 32.4258 14.5125 31.7959 14.5768L31.6673 14.5833H29.584V18.75H30.0007C30.7742 18.75 31.5158 19.0575 32.0628 19.6045C32.6098 20.1515 32.9173 20.8931 32.9173 21.6667V25C32.9173 25.7735 32.6098 26.5152 32.0628 27.0622C31.5158 27.6092 30.7742 27.9167 30.0007 27.9167H29.584V33.75H31.6673C32.3577 33.75 32.9173 34.3096 32.9173 35C32.9173 35.6904 32.3577 36.25 31.6673 36.25H8.33398C7.64363 36.25 7.08398 35.6904 7.08398 35C7.08398 34.3096 7.64363 33.75 8.33398 33.75H10.4173V27.9167H10.0007C9.2271 27.9167 8.48546 27.6092 7.93848 27.0622C7.3915 26.5152 7.08398 25.7735 7.08398 25V21.6667C7.08398 20.8931 7.3915 20.1515 7.93848 19.6045C8.48546 19.0575 9.2271 18.75 10.0007 18.75H10.4173V14.5833H8.33398C7.64363 14.5833 7.08398 14.0237 7.08398 13.3333C7.08398 12.643 7.64363 12.0833 8.33398 12.0833H10.502C10.7758 10.0033 11.725 8.05753 13.2249 6.55762C15.0222 4.76039 17.459 3.75 20.0007 3.75ZM12.9173 14.5833V20C12.9173 20.6904 12.3577 21.25 11.6673 21.25H10.0007C9.89014 21.25 9.78419 21.2939 9.70605 21.3721C9.62791 21.4502 9.58398 21.5562 9.58398 21.6667V25C9.58398 25.1105 9.62791 25.2165 9.70605 25.2946C9.78419 25.3727 9.89014 25.4167 10.0007 25.4167H11.6673C12.3577 25.4167 12.9173 25.9763 12.9173 26.6667V33.75H27.084V26.6667C27.084 25.9763 27.6436 25.4167 28.334 25.4167H30.0007C30.1112 25.4167 30.2171 25.3727 30.2952 25.2946C30.3734 25.2165 30.4173 25.1105 30.4173 25V21.6667C30.4173 21.5562 30.3734 21.4502 30.2952 21.3721C30.2171 21.2939 30.1112 21.25 30.0007 21.25H28.334C27.6436 21.25 27.084 20.6904 27.084 20V14.5833H12.9173ZM20.0007 6.25C18.122 6.25 16.3209 6.99681 14.9925 8.3252C13.9626 9.35508 13.2834 10.6693 13.0296 12.0833H26.9717C26.7179 10.6693 26.0387 9.35508 25.0088 8.3252C23.6804 6.99681 21.8793 6.25 20.0007 6.25Z" fill="#FAFAFA"/>
</svg>
