<svg width="40" height="40" viewBox="0 0 40 40" fill="none" xmlns="http://www.w3.org/2000/svg">
<path fill-rule="evenodd" clip-rule="evenodd" d="M15.4297 4.89176L15.7633 4.93083C16.636 5.04449 18.1212 5.35614 19.3424 6.49658C20.5622 7.63595 21.3198 9.40283 21.263 12.0174C21.6427 11.7916 22.0562 11.5549 22.5 11.3306C23.8603 10.6431 25.5522 10.022 27.4772 10.0171C27.4821 10.017 27.487 10.0172 27.4919 10.0171L27.5 10.0155C29.763 9.97943 31.9509 10.8322 33.5889 12.3918C35.2326 13.957 36.19 16.1083 36.25 18.3748C36.2503 18.3855 36.25 18.3967 36.25 18.4074C36.25 21.7837 35.0649 26.5247 33.3284 30.411C32.457 32.3612 31.4144 34.1731 30.2507 35.5184C29.1221 36.8229 27.6789 37.9159 25.9993 37.9159C24.7675 37.9157 23.5797 37.3979 22.6742 37.0337C21.6725 36.6308 20.8515 36.3322 20 36.3322C19.1485 36.3322 18.3275 36.6308 17.3258 37.0337C16.4203 37.3979 15.2325 37.9157 14.0007 37.9159C12.3211 37.9159 10.8779 36.8229 9.74935 35.5184C8.58564 34.1731 7.54298 32.3612 6.67155 30.411C4.93509 26.5247 3.75 21.7837 3.75 18.4074V18.3765C3.80557 16.1082 4.76155 13.955 6.40625 12.3885C8.04515 10.8279 10.2358 9.97714 12.5 10.0171H12.5033C12.5107 10.0172 12.5185 10.0153 12.526 10.0155L12.5244 10.0171C14.4487 10.0223 16.1401 10.6433 17.5 11.3306C17.9534 11.5597 18.3751 11.8018 18.7614 12.0321C18.825 9.89455 18.2075 8.85426 17.6335 8.31787C17.0708 7.7925 16.367 7.56451 15.7536 7.45361L15.1774 7.37549L15.0505 7.35596C14.4295 7.22766 13.9944 6.64917 14.0592 6.00667C14.1245 5.36392 14.667 4.8846 15.3011 4.88525L15.4297 4.89176ZM12.474 12.5155C10.859 12.4822 9.29776 13.0881 8.13151 14.1984C6.9654 15.3089 6.28922 16.834 6.25 18.4383C6.25742 21.3671 7.32087 25.7384 8.95345 29.3921C9.76936 31.218 10.6952 32.7897 11.6406 33.8826C12.6214 35.0163 13.4302 35.4159 14.0007 35.4159C14.6433 35.4157 15.3305 35.1418 16.3932 34.7144C17.3601 34.3255 18.6019 33.8322 20 33.8322C21.3981 33.8322 22.6399 34.3255 23.6068 34.7144C24.6695 35.1418 25.3567 35.4157 25.9993 35.4159C26.5698 35.4159 27.3786 35.0163 28.3594 33.8826C29.3048 32.7897 30.2306 31.218 31.0465 29.3921C32.6788 25.739 33.7422 21.3687 33.75 18.4399L33.7354 18.1405C33.6216 16.6478 32.9579 15.244 31.8652 14.2033C30.6991 13.0929 29.1377 12.4854 27.5228 12.5155H27.5C26.1046 12.5155 24.8047 12.9673 23.6279 13.562C23.0417 13.8583 22.4993 14.1821 21.9971 14.4946C21.5187 14.7923 21.0185 15.1173 20.6087 15.3459C20.2304 15.5567 19.7696 15.5567 19.3913 15.3459C18.9815 15.1173 18.4813 14.7923 18.0029 14.4946C17.5007 14.1821 16.9583 13.8583 16.3721 13.562C15.3426 13.0417 14.2188 12.6312 13.0192 12.5366L12.5 12.5155C12.4914 12.5155 12.4825 12.5156 12.474 12.5155Z" fill="#FAFAFA"/>
<path d="M25.472 7.43246C25.4711 8.12251 25.1966 8.78369 24.7087 9.27165C24.2206 9.75957 23.5596 10.0342 22.8695 10.035H21.5674V8.73291C21.5683 8.04295 21.8429 7.38166 22.3307 6.89372C22.8188 6.4056 23.4812 6.1311 24.1715 6.13037H25.472V7.43246Z" fill="#FAFAFA"/>
</svg>
