<svg width="64" height="64" viewBox="0 0 64 64" fill="none" xmlns="http://www.w3.org/2000/svg">
<path d="M43.4277 34.6288C43.4277 28.3169 38.311 23.2002 31.9992 23.2002V39.0669H43.4277V34.6288Z" fill="#316EFF"/>
<path d="M41.3337 45.3335V34.6668C41.3337 29.5122 37.155 25.3335 32.0003 25.3335C26.8457 25.3335 22.667 29.5122 22.667 34.6668V45.3335C22.667 50.4882 26.8457 54.6668 32.0003 54.6668V58.6668C24.8662 58.6668 19.0417 53.0639 18.6852 46.0184L18.667 45.3335V34.6668C18.667 27.303 24.6365 21.3335 32.0003 21.3335C39.3641 21.3335 45.3337 27.303 45.3337 34.6668V45.3335L45.3154 46.0184C44.9589 53.0639 39.1344 58.6668 32.0003 58.6668V54.6668C37.155 54.6668 41.3337 50.4882 41.3337 45.3335Z" fill="#FAFAFA"/>
<path d="M43.43 37.0674V41.0674H20.5732V37.0674H43.43Z" fill="#FAFAFA"/>
<path d="M31.7272 35.4159C30.4723 35.288 29.4741 34.2907 29.347 33.0356L29.334 32.7648V30.257C29.334 28.7842 30.5279 27.5903 32.0007 27.5903C33.4734 27.5903 34.6673 28.7842 34.6673 30.257V32.7648L34.6543 33.0356C34.5181 34.3807 33.3816 35.4315 32.0007 35.4315L31.7272 35.4159Z" fill="#FAFAFA"/>
<path d="M37.0782 14.9738C37.4571 15.4952 37.4032 16.1983 36.9844 16.6561L36.7839 16.8358L32.7839 19.7447C32.3164 20.0846 31.6837 20.0846 31.2162 19.7447L27.2162 16.8358C26.6208 16.4028 26.4891 15.5694 26.9219 14.9738C27.355 14.3783 28.1884 14.2465 28.7839 14.6796L30.6667 16.0494L30.6667 4.91134L28.6381 6.01811L28.3907 6.12488C27.7978 6.30699 27.1395 6.05233 26.8308 5.48686C26.5223 4.9214 26.6646 4.23076 27.1381 3.83061L27.362 3.67697L31.362 1.49728C31.76 1.2802 32.2401 1.2802 32.6381 1.49728L36.6381 3.67697L36.862 3.83061C37.3355 4.23076 37.4777 4.9214 37.1693 5.48686C36.8165 6.13291 36.0083 6.37062 35.362 6.01811L33.3334 4.91134L33.3334 16.0494L35.2162 14.6796L35.448 14.5442C36.0127 14.2865 36.6989 14.4523 37.0782 14.9738Z" fill="#316EFF"/>
</svg>
