<svg width="64" height="64" viewBox="0 0 64 64" fill="none" xmlns="http://www.w3.org/2000/svg">
<path d="M43.4277 29.2953C43.4277 22.9834 38.311 17.8667 31.9992 17.8667V33.7334H43.4277V29.2953Z" fill="#316EFF"/>
<path d="M41.3337 40V29.3333C41.3337 24.1787 37.155 20 32.0003 20C26.8457 20 22.667 24.1787 22.667 29.3333V40C22.667 45.1547 26.8457 49.3333 32.0003 49.3333V53.3333C24.8662 53.3333 19.0417 47.7304 18.6852 40.6849L18.667 40V29.3333C18.667 21.9695 24.6365 16 32.0003 16C39.3641 16 45.3337 21.9695 45.3337 29.3333V40L45.3154 40.6849C44.9589 47.7304 39.1344 53.3333 32.0003 53.3333V49.3333C37.155 49.3333 41.3337 45.1547 41.3337 40Z" fill="#FAFAFA"/>
<path d="M43.43 31.7339V35.7339H20.5732V31.7339H43.43Z" fill="#FAFAFA"/>
<path d="M31.7272 30.0824C30.4723 29.9545 29.4741 28.9573 29.347 27.7021L29.334 27.4313V24.9235C29.334 23.4507 30.5279 22.2568 32.0007 22.2568C33.4734 22.2568 34.6673 23.4507 34.6673 24.9235V27.4313L34.6543 27.7021C34.5181 29.0472 33.3816 30.098 32.0007 30.098L31.7272 30.0824Z" fill="#FAFAFA"/>
<path d="M49.757 16.0002V14.5223L54.3849 10.964C54.9072 10.5624 55.2868 10.1876 55.5237 9.83952C55.7666 9.48611 55.8881 9.09521 55.8881 8.66683C55.8881 8.24916 55.7636 7.9011 55.5146 7.62265C55.2655 7.34421 54.8434 7.20498 54.2483 7.20498C53.5741 7.20498 53.0913 7.37366 52.7997 7.71101C52.5082 8.04836 52.3625 8.48477 52.3625 9.02024H50.0485C50.0485 8.24916 50.2094 7.58785 50.5313 7.03631C50.8593 6.48477 51.336 6.06442 51.9616 5.77526C52.5872 5.48075 53.3494 5.3335 54.2483 5.3335C55.0742 5.3335 55.7939 5.45933 56.4074 5.71101C57.0268 5.96268 57.5036 6.32413 57.8376 6.79534C58.1778 7.26656 58.3478 7.83952 58.3478 8.51422C58.3478 9.08182 58.2294 9.58517 57.9925 10.0243C57.7557 10.4633 57.4307 10.8676 57.0177 11.2371C56.6108 11.6012 56.1462 11.9734 55.6239 12.3536L53.1368 14.1929H58.6667V16.0002H49.757Z" fill="#316EFF"/>
<path d="M40 16.0002L43.3799 11.4861L44.4366 10.948L46.3224 8.16081H48.9006L45.7576 12.3777L44.7919 12.8998L42.5782 16.0002H40ZM46.6048 16.0002L44.3729 12.8998L43.5074 12.4018L40.3006 8.16081H42.8788L44.7919 10.9399L45.7758 11.4781L49.1921 16.0002H46.6048Z" fill="#316EFF"/>
</svg>
