<svg width="24" height="24" viewBox="0 0 24 24" fill="none" xmlns="http://www.w3.org/2000/svg">
<path fill-rule="evenodd" clip-rule="evenodd" d="M14.1338 2.01593C14.2377 1.99486 14.3458 1.9952 14.4493 2.01788C14.5526 2.04063 14.6496 2.08482 14.7325 2.14679C14.8153 2.20895 14.8835 2.28787 14.9297 2.37726C14.9758 2.46676 14.9997 2.56604 15 2.66534V4.00031H19.1407C19.368 4.00031 19.5864 4.14089 19.7471 4.39093C19.9077 4.64092 19.9981 4.97984 19.9981 5.33331V18.6663C19.9981 19.0199 19.9078 19.3596 19.7471 19.6097C19.5864 19.8597 19.368 20.0003 19.1407 20.0003H15V21.3421C15 21.4374 14.9774 21.532 14.9346 21.6185C14.8917 21.705 14.8288 21.7824 14.751 21.8441C14.6733 21.9057 14.5817 21.9514 14.4834 21.9769C14.3851 22.0022 14.2813 22.0069 14.1807 21.9915L5.60941 20.889C5.4389 20.8653 5.28292 20.7838 5.17093 20.6614C5.05917 20.539 4.99834 20.3828 5.00003 20.222V4.63019C5.00285 4.48006 5.06022 4.3352 5.16214 4.21906C5.26401 4.10305 5.40464 4.02263 5.56156 3.99054L14.1338 2.01593ZM15 18.5003H18.4981V5.50031H15V18.5003ZM10.9971 11.0003C10.4448 11.0003 9.9971 11.448 9.9971 12.0003C9.99729 12.5524 10.4449 13.0003 10.9971 13.0003C11.549 13 11.9969 12.5522 11.9971 12.0003C11.9971 11.4482 11.5491 11.0006 10.9971 11.0003Z" fill="#FAFAFA"/>
</svg>
