<svg width="24" height="24" viewBox="0 0 24 24" fill="none" xmlns="http://www.w3.org/2000/svg">
<path d="M2 6C2 4.89543 2.89543 4 4 4H20C21.1046 4 22 4.89543 22 6V18C22 19.1046 21.1046 20 20 20H4C2.89543 20 2 19.1046 2 18V6Z" fill="#FAFAFA"/>
<path d="M8.71362 7.23013C8.91651 7.04322 9.21114 6.95184 9.50899 7.02547L9.63648 7.06708L9.66116 7.07812C10.9741 7.68483 12.0887 8.63702 12.8739 9.83118L13.0071 10.0265C13.6533 11.0133 14.0007 12.1614 14.0007 13.3392V13.3443C13.9834 15.4929 12.1533 16.9315 10.1909 16.9975L10.0009 17C8.02845 16.9767 6.0654 15.5397 6.01167 13.3731C5.92432 12.403 6.36847 11.5013 7.0505 10.8969L7.19115 10.778C7.42014 10.5773 7.71551 10.4554 8.03752 10.5292C8.33273 10.5969 8.52284 10.8025 8.61656 10.975C8.68472 11.0994 8.77691 11.2145 8.89293 11.341C9.11933 10.8838 9.17724 10.322 9.09033 9.75221L9.05579 9.55944C8.96296 9.11033 8.79381 8.67637 8.55405 8.27547C8.29909 7.85368 8.5009 7.42624 8.71362 7.23013Z" fill="#131313"/>
<path d="M19 11.5C19 12.3284 18.3284 13 17.5 13C16.6716 13 16 12.3284 16 11.5C16 10.6716 16.6716 10 17.5 10C18.3284 10 19 10.6716 19 11.5Z" fill="#131313"/>
<path d="M19 15.5C19 16.3284 18.3284 17 17.5 17C16.6716 17 16 16.3284 16 15.5C16 14.6716 16.6716 14 17.5 14C18.3284 14 19 14.6716 19 15.5Z" fill="#131313"/>
</svg>
