<svg width="24" height="24" viewBox="0 0 24 24" fill="none" xmlns="http://www.w3.org/2000/svg">
<path d="M12.001 1.39746C13.4469 1.39765 14.5186 2.02275 15.4277 2.85938C15.8747 3.27076 16.2921 3.74268 16.6982 4.2207C17.1141 4.71017 17.5091 5.195 17.9512 5.69238L18.3936 6.19043L17.9512 6.68848C17.5089 7.18602 17.1142 7.67052 16.6982 8.16016C16.292 8.63835 15.8749 9.10998 15.4277 9.52148C14.5186 10.3581 13.4469 10.9822 12.001 10.9824C10.555 10.9824 9.48336 10.358 8.57422 9.52148C8.12719 9.1101 7.70892 8.63823 7.30273 8.16016C6.88697 7.67079 6.49278 7.18575 6.05078 6.68848L5.60645 6.19043L6.05078 5.69238C6.49299 5.1949 6.8868 4.71027 7.30273 4.2207C7.70906 3.74245 8.12702 3.27091 8.57422 2.85938C9.48344 2.02272 10.5548 1.39746 12.001 1.39746ZM12 4.09277C11.4438 4.09277 10.9099 4.31377 10.5166 4.70703C10.1233 5.10031 9.90241 5.63426 9.90234 6.19043C9.90242 6.74643 10.1235 7.27962 10.5166 7.67285C10.9099 8.06618 11.4437 8.28711 12 8.28711C12.5562 8.28703 13.0892 8.06612 13.4824 7.67285C13.8756 7.2796 14.0966 6.74653 14.0967 6.19043C14.0966 5.63426 13.8757 5.10031 13.4824 4.70703C13.0892 4.31397 12.556 4.09285 12 4.09277Z" fill="#FAFAFA"/>
<path d="M11 17.8079C11.0002 17.2558 11.4479 16.8079 12 16.8079C12.5521 16.8079 12.9998 17.2558 13 17.8079V17.8176C13 18.3699 12.5523 18.8176 12 18.8176C11.4477 18.8176 11 18.3699 11 17.8176V17.8079Z" fill="#FAFAFA"/>
<path d="M15.3345 15.0834C15.3347 14.5313 15.7823 14.0834 16.3345 14.0834C16.8866 14.0834 17.3342 14.5313 17.3345 15.0834V15.0932C17.3345 15.6454 16.8868 16.0932 16.3345 16.0932C15.7822 16.0932 15.3345 15.6454 15.3345 15.0932V15.0834Z" fill="#FAFAFA"/>
<path d="M6.66553 15.0834C6.66575 14.5313 7.11338 14.0834 7.66553 14.0834C8.21767 14.0834 8.6653 14.5313 8.66553 15.0834V15.0932C8.66553 15.6454 8.21781 16.0932 7.66553 16.0932C7.11324 16.0932 6.66553 15.6454 6.66553 15.0932V15.0834Z" fill="#FAFAFA"/>
<path d="M2.33008 12.3585C2.3303 11.8064 2.77793 11.3585 3.33008 11.3585C3.88222 11.3585 4.32985 11.8064 4.33008 12.3585V12.3683C4.33008 12.9206 3.88236 13.3683 3.33008 13.3683C2.77779 13.3683 2.33008 12.9206 2.33008 12.3683L2.33008 12.3585Z" fill="#FAFAFA"/>
<path d="M11 13.3725C11.0002 12.8204 11.4479 12.3725 12 12.3725C12.5521 12.3725 12.9998 12.8204 13 13.3725V13.3823C13 13.9345 12.5523 14.3823 12 14.3823C11.4477 14.3823 11 13.9345 11 13.3823V13.3725Z" fill="#FAFAFA"/>
<path d="M19.6699 12.3585C19.6701 11.8064 20.1178 11.3585 20.6699 11.3585C21.2221 11.3585 21.6697 11.8064 21.6699 12.3585V12.3683C21.6699 12.9206 21.2222 13.3683 20.6699 13.3683C20.1176 13.3683 19.6699 12.9206 19.6699 12.3683V12.3585Z" fill="#FAFAFA"/>
<path d="M15.25 20.3521C15.6642 20.3521 16 20.6878 16 21.1021C16 21.5163 15.6642 21.8521 15.25 21.8521H8.75C8.33579 21.8521 8 21.5163 8 21.1021C8 20.6878 8.33579 20.3521 8.75 20.3521H15.25Z" fill="#FAFAFA"/>
</svg>
