<svg width="24" height="24" viewBox="0 0 24 24" fill="none" xmlns="http://www.w3.org/2000/svg">
<path fill-rule="evenodd" clip-rule="evenodd" d="M14.3636 4.25763L21.8476 16.8443C22.9376 18.6774 21.6165 20.9998 19.4839 20.9998H4.51593C2.38326 20.9998 1.06225 18.6774 2.15221 16.8443L9.63618 4.25763C10.7021 2.46491 13.2977 2.4649 14.3636 4.25763Z" fill="#FAFAFA"/>
<path d="M12 9C12.4142 9 12.75 9.33579 12.75 9.75V13.75C12.75 14.1642 12.4142 14.5 12 14.5C11.5858 14.5 11.25 14.1642 11.25 13.75V9.75C11.25 9.33579 11.5858 9 12 9Z" fill="black"/>
<path d="M13 16.5002C13 17.0525 12.5523 17.5002 12 17.5002C11.4477 17.5002 11 17.0525 11 16.5002C11 15.948 11.4477 15.5002 12 15.5002C12.5523 15.5002 13 15.948 13 16.5002Z" fill="black"/>
</svg>
