<svg width="24" height="24" viewBox="0 0 24 24" fill="none" xmlns="http://www.w3.org/2000/svg">
<path d="M11.9982 8.39956C12.3163 8.39961 12.6218 8.52622 12.8468 8.75112C13.0718 8.97611 13.1983 9.2816 13.1984 9.59975C13.1984 9.91796 13.0718 10.2234 12.8468 10.4484C12.6218 10.6734 12.3164 10.7999 11.9982 10.7999C11.68 10.7999 11.3746 10.6733 11.1496 10.4484C10.9246 10.2234 10.798 9.91794 10.798 9.59975C10.7981 9.28157 10.9246 8.97612 11.1496 8.75112C11.3746 8.52619 11.68 8.3996 11.9982 8.39956Z" fill="#FAFAFA"/>
<path fill-rule="evenodd" clip-rule="evenodd" d="M14.8859 2.39956C15.013 2.39923 15.1389 2.42965 15.2521 2.48745C15.3653 2.54527 15.463 2.62943 15.5373 2.73257C15.6115 2.83577 15.6609 2.95547 15.6798 3.0812C15.6986 3.20665 15.6871 3.33501 15.6466 3.45522L14.5265 6.82339C14.5165 6.85775 14.5157 6.89515 14.5246 6.92983C14.5334 6.9641 14.5514 6.99552 14.5763 7.02065C14.6015 7.04587 14.6336 7.06444 14.6681 7.07339C14.7028 7.08228 14.7402 7.08144 14.7746 7.07143L18.1418 5.95132C18.2621 5.91065 18.3911 5.89931 18.5168 5.91811C18.6425 5.93699 18.7622 5.98645 18.8654 6.06069C18.9685 6.13495 19.0527 6.23268 19.1105 6.34585C19.1683 6.45908 19.1987 6.58491 19.1984 6.71206L19.2384 12.4474C19.2454 12.5779 19.2202 12.7087 19.1652 12.8273C19.1101 12.9458 19.0262 13.0492 18.922 13.1281C18.818 13.2068 18.6963 13.2585 18.5675 13.2794C18.4385 13.3003 18.3055 13.2902 18.1818 13.2482L14.8146 12.1281C14.7802 12.1181 14.7428 12.1172 14.7082 12.1261C14.6736 12.1351 14.6416 12.1527 14.6164 12.1779C14.5911 12.2031 14.5735 12.2351 14.5646 12.2697C14.5557 12.3043 14.5566 12.3418 14.5666 12.3761L15.6857 15.7433C15.7264 15.8637 15.7377 15.9926 15.7189 16.1183C15.7 16.2441 15.6516 16.3637 15.5773 16.4669C15.503 16.5701 15.4054 16.6542 15.2921 16.7121C15.1789 16.7699 15.0531 16.8003 14.9259 16.7999H13.0382C12.9852 16.8 12.9341 16.8211 12.8966 16.8585C12.8593 16.896 12.8381 16.9472 12.838 17.0001V20.7999C12.838 21.012 12.7536 21.2154 12.6037 21.3654C12.4537 21.5153 12.2503 21.5997 12.0382 21.5998C11.8262 21.5997 11.6228 21.5153 11.4728 21.3654C11.3229 21.2154 11.2385 21.012 11.2384 20.7999V17.0402C11.2384 16.9873 11.2171 16.936 11.1798 16.8986C11.1424 16.8612 11.0912 16.84 11.0382 16.84H9.15054C9.02005 16.8469 8.88918 16.8218 8.77066 16.7667C8.65217 16.7117 8.54877 16.6277 8.46988 16.5236C8.39119 16.4196 8.33843 16.2978 8.31753 16.1691C8.29667 16.0401 8.30776 15.9071 8.34976 15.7833L9.46988 12.4162C9.47989 12.3818 9.48072 12.3444 9.47183 12.3097C9.46288 12.2752 9.44432 12.2431 9.41909 12.2179C9.39396 12.193 9.36255 12.175 9.32827 12.1662C9.29359 12.1573 9.25619 12.1581 9.22183 12.1681L5.85366 13.2873C5.72999 13.3292 5.5978 13.3404 5.4689 13.3195C5.34021 13.2986 5.21839 13.2468 5.11441 13.1681C5.01033 13.0892 4.92626 12.9858 4.87124 12.8673C4.81625 12.7488 4.79107 12.6179 4.798 12.4874V6.71206C4.7977 6.5849 4.82806 6.45909 4.88589 6.34585C4.94373 6.23263 5.02783 6.13497 5.13101 6.06069C5.23422 5.98641 5.35389 5.93702 5.47964 5.91811C5.60507 5.89933 5.73347 5.91085 5.85366 5.95132L9.18179 7.07143C9.21617 7.08146 9.25353 7.08225 9.28823 7.07339C9.3228 7.06445 9.35479 7.0459 9.38003 7.02065C9.40502 6.9955 9.4229 6.96416 9.43179 6.92983C9.44066 6.89513 9.43987 6.85777 9.42984 6.82339L8.30972 3.45522C8.26791 3.33165 8.25761 3.19924 8.27847 3.07046C8.29939 2.94173 8.35115 2.81996 8.42984 2.71596C8.50874 2.61182 8.61212 2.52785 8.73062 2.4728C8.84913 2.41777 8.98002 2.39265 9.1105 2.39956H14.8859ZM9.9982 7.19936C9.89216 7.1994 9.78997 7.24157 9.71499 7.31655C9.64001 7.39153 9.59785 7.49372 9.59781 7.59975V11.5998C9.59782 11.7058 9.64008 11.808 9.71499 11.883C9.78997 11.9579 9.89218 12.0001 9.9982 12.0001H13.9982C14.1043 12.0001 14.2064 11.958 14.2814 11.883C14.3564 11.808 14.3986 11.7058 14.3986 11.5998V7.59975C14.3985 7.49374 14.3563 7.39152 14.2814 7.31655C14.2064 7.24164 14.1042 7.19937 13.9982 7.19936H9.9982Z" fill="#FAFAFA"/>
</svg>
