<svg width="24" height="24" viewBox="0 0 24 24" fill="none" xmlns="http://www.w3.org/2000/svg">
<path d="M4.75195 3C3.23317 3 2.00195 4.23122 2.00195 5.75V16.25C2.00195 17.7688 3.23317 19 4.75195 19H11.8093L16.6405 21.6572C16.8729 21.785 17.1554 21.7806 17.3837 21.6456C17.6119 21.5106 17.752 21.2652 17.752 21V19H19.252C20.7707 19 22.002 17.7688 22.002 16.25V5.75C22.002 4.23122 20.7707 3 19.252 3H4.75195Z" fill="#FAFAFA"/>
<path d="M7 8.75C7 8.33579 7.33579 8 7.75 8H14.25C14.6642 8 15 8.33579 15 8.75C15 9.16421 14.6642 9.5 14.25 9.5H7.75C7.33579 9.5 7 9.16421 7 8.75Z" fill="#131313"/>
<path d="M7 13.25C7 12.8358 7.33579 12.5 7.75 12.5H11.25C11.6642 12.5 12 12.8358 12 13.25C12 13.6642 11.6642 14 11.25 14H7.75C7.33579 14 7 13.6642 7 13.25Z" fill="#131313"/>
</svg>
