<svg width="24" height="24" viewBox="0 0 24 24" fill="none" xmlns="http://www.w3.org/2000/svg">
<path fill-rule="evenodd" clip-rule="evenodd" d="M19.25 2.75C20.3546 2.75 21.25 3.64543 21.25 4.75V19.25C21.25 20.3546 20.3546 21.25 19.25 21.25H4.75C3.64543 21.25 2.75 20.3546 2.75 19.25V4.75C2.75 3.64543 3.64543 2.75 4.75 2.75H19.25ZM12 4.25C11.5858 4.25 11.25 4.58579 11.25 5V10.1885L7.58105 6.51953C7.28822 6.22696 6.81334 6.22696 6.52051 6.51953C6.22761 6.81242 6.22761 7.28816 6.52051 7.58105L10.1895 11.25H5C4.58579 11.25 4.25 11.5858 4.25 12C4.25 12.4142 4.58579 12.75 5 12.75H10.1895L6.51953 16.4199C6.2268 16.7128 6.22669 17.1876 6.51953 17.4805C6.81239 17.7731 7.28725 17.7731 7.58008 17.4805L11.25 13.8105V19C11.25 19.4142 11.5858 19.75 12 19.75C12.4142 19.75 12.75 19.4142 12.75 19V13.8105L16.4199 17.4805C16.7127 17.7731 17.1876 17.7731 17.4805 17.4805C17.7733 17.1876 17.7732 16.7128 17.4805 16.4199L13.8105 12.75H19C19.4142 12.75 19.75 12.4142 19.75 12C19.75 11.5858 19.4142 11.25 19 11.25H13.8105L17.4795 7.58105C17.7724 7.28816 17.7724 6.81242 17.4795 6.51953C17.1867 6.22696 16.7118 6.22696 16.4189 6.51953L12.75 10.1885V5C12.75 4.58579 12.4142 4.25 12 4.25Z" fill="#FAFAFA"/>
</svg>
