<svg width="24" height="24" viewBox="0 0 24 24" fill="none" xmlns="http://www.w3.org/2000/svg">
<path d="M2.75 17.502C3.16413 17.502 3.49987 17.8379 3.5 18.252V20.5H5.74805C6.16216 20.5001 6.49798 20.8359 6.49805 21.25C6.49805 21.6642 6.1622 21.9999 5.74805 22H2.75C2.3619 21.9999 2.04246 21.7051 2.00391 21.3271C2.00132 21.3018 2 21.276 2 21.25V18.252C2.00013 17.8379 2.33598 17.5021 2.75 17.502Z" fill="#FAFAFA"/>
<path d="M21.25 17.5C21.664 17.5001 21.9999 17.836 22 18.25V21.248C22 21.274 21.9987 21.2999 21.9961 21.3252C21.9575 21.7031 21.6381 21.9979 21.25 21.998H18.252C17.8378 21.998 17.502 21.6622 17.502 21.248C17.502 20.8339 17.8378 20.4981 18.252 20.498H20.5V18.25C20.5001 17.8359 20.8359 17.5 21.25 17.5Z" fill="#FAFAFA"/>
<path d="M12 5.05762C14.2091 5.05762 16 6.84848 16 9.05762C15.9999 10.2324 15.4931 11.2887 14.6865 12.0205C16.6371 12.7158 18.2385 14.1459 19.1562 15.9766C19.4822 16.6278 18.9855 17.3412 18.3096 17.3418H5.69141C5.01509 17.3415 4.51825 16.6281 4.84473 15.9766L4.97168 15.7334C5.90592 14.0197 7.44977 12.6848 9.3125 12.0205C8.50626 11.2887 8.00014 10.2321 8 9.05762C8 6.84848 9.79086 5.05762 12 5.05762Z" fill="#FAFAFA"/>
<path d="M5.7666 2.00391C6.18062 2.00404 6.51647 2.33989 6.5166 2.75391C6.5166 3.16804 6.1807 3.50378 5.7666 3.50391H3.51855V5.75195C3.51849 6.16607 3.18267 6.50189 2.76855 6.50195C2.35438 6.50195 2.01862 6.16611 2.01855 5.75195V2.75391C2.01868 2.36581 2.31345 2.04637 2.69141 2.00781C2.71672 2.00523 2.74256 2.00391 2.76855 2.00391H5.7666Z" fill="#FAFAFA"/>
<path d="M21.3271 2.00586C21.7051 2.04441 21.9999 2.36385 22 2.75195V5.75C21.9999 6.16416 21.6642 6.5 21.25 6.5C20.8359 6.49993 20.5001 6.16412 20.5 5.75V3.50195H18.252C17.8379 3.50182 17.502 3.16609 17.502 2.75195C17.5021 2.33793 17.8379 2.00208 18.252 2.00195H21.25C21.276 2.00195 21.3018 2.00328 21.3271 2.00586Z" fill="#FAFAFA"/>
</svg>
