<svg width="24" height="24" viewBox="0 0 24 24" fill="none" xmlns="http://www.w3.org/2000/svg">
<path fill-rule="evenodd" clip-rule="evenodd" d="M14.5908 2C15.0776 2.00002 15.56 2.09592 16.0098 2.28223C16.4594 2.46854 16.8678 2.74178 17.2119 3.08594L20.9141 6.78809C21.2582 7.13221 21.5315 7.54062 21.7178 7.99023C21.9041 8.43996 22 8.92239 22 9.40918C22 9.89603 21.9041 10.3783 21.7178 10.8281C21.5314 11.2779 21.2583 11.687 20.9141 12.0312L18.1973 14.7471C17.8531 15.0912 17.4448 15.3645 16.9951 15.5508C16.5453 15.7371 16.063 15.833 15.5762 15.833C15.0894 15.833 14.607 15.7371 14.1572 15.5508C13.8038 15.4043 13.4759 15.2041 13.1846 14.958L6.96582 21.1777C6.4997 21.6438 5.88415 21.9315 5.22754 21.9893L5.19629 21.9912L5.0166 21.999L4.99902 22H3.77734C3.34206 21.9999 2.92198 21.84 2.59668 21.5508C2.2714 21.2615 2.06374 20.8629 2.0127 20.4307L2.00977 20.4092L2.00879 20.3877L2.00098 20.2666L2 20.2441V19.0176C2.00016 18.3589 2.23224 17.7207 2.65527 17.2158L2.66602 17.2041L2.67676 17.1914L2.79883 17.0576L2.82227 17.0342L3.24707 16.6084L3.4668 16.3887H5.08301V14.333H7.13867V12.7168L9.04102 10.8145C8.79537 10.5234 8.59549 10.1958 8.44922 9.84277C8.26291 9.39303 8.16701 8.91064 8.16699 8.42383C8.16699 7.93698 8.26289 7.45467 8.44922 7.00488C8.63551 6.55522 8.90876 6.1469 9.25293 5.80273L11.9688 3.08594C12.313 2.74167 12.7221 2.46855 13.1719 2.28223C13.6217 2.0959 14.104 2 14.5908 2ZM16.8096 5.3418C15.7727 5.34185 14.9326 6.17925 14.9326 7.21191C14.9328 8.24446 15.7728 9.081 16.8096 9.08105C17.8465 9.08105 18.6874 8.24449 18.6875 7.21191C18.6875 6.17922 17.8465 5.3418 16.8096 5.3418Z" fill="#FAFAFA"/>
</svg>
