<svg width="24" height="24" viewBox="0 0 24 24" fill="none" xmlns="http://www.w3.org/2000/svg">
<path d="M15.0117 2.75684C15.3439 2.78984 15.6564 2.93675 15.8945 3.1748L20.8262 8.10645L20.9229 8.21289C21.1343 8.47111 21.251 8.79614 21.251 9.13281V14.8672C21.251 15.252 21.0983 15.6214 20.8262 15.8936L15.8945 20.8252L15.7881 20.9209C15.5667 21.1024 15.2966 21.2149 15.0117 21.2432L14.8682 21.25H9.13184C8.79496 21.2499 8.47017 21.1327 8.21191 20.9209L8.10547 20.8252L3.17383 15.8936C2.90181 15.6214 2.74902 15.252 2.74902 14.8672V9.13281C2.74902 8.74802 2.90181 8.3786 3.17383 8.10645L8.10547 3.1748C8.37758 2.90272 8.74705 2.75008 9.13184 2.75H14.8682L15.0117 2.75684Z" fill="#FAFAFA"/>
<path d="M12 8C12.4142 8 12.75 8.33579 12.75 8.75V12.75C12.75 13.1642 12.4142 13.5 12 13.5C11.5858 13.5 11.25 13.1642 11.25 12.75V8.75C11.25 8.33579 11.5858 8 12 8Z" fill="black"/>
<path d="M13 15.5002C13 16.0525 12.5523 16.5002 12 16.5002C11.4477 16.5002 11 16.0525 11 15.5002C11 14.948 11.4477 14.5002 12 14.5002C12.5523 14.5002 13 14.948 13 15.5002Z" fill="black"/>
</svg>
