<svg width="24" height="24" viewBox="0 0 24 24" fill="none" xmlns="http://www.w3.org/2000/svg">
<path d="M13.125 9V15H10.875V9H13.125Z" fill="#FAFAFA"/>
<path fill-rule="evenodd" clip-rule="evenodd" d="M21 5C22.1046 5 23 5.89543 23 7V17C23 18.1046 22.1046 19 21 19H3C1.89543 19 1 18.1046 1 17V7C1 5.89543 1.89543 5 3 5H21ZM4.5 7.5C4.05245 7.5 3.62311 7.67767 3.30664 7.99414C2.99017 8.31061 2.8125 8.73995 2.8125 9.1875V11.0625C2.8125 11.5101 2.99017 11.9394 3.30664 12.2559C3.62311 12.5723 4.05245 12.75 4.5 12.75H6.375C6.42473 12.75 6.47265 12.7695 6.50781 12.8047C6.54298 12.8399 6.5625 12.8878 6.5625 12.9375V14.8125C6.5625 14.8622 6.54298 14.9101 6.50781 14.9453C6.47265 14.9805 6.42473 15 6.375 15H3.5625C3.14829 15 2.8125 15.3358 2.8125 15.75C2.8125 16.1642 3.14829 16.5 3.5625 16.5H6.375C6.82255 16.5 7.25189 16.3223 7.56836 16.0059C7.88483 15.6894 8.0625 15.2601 8.0625 14.8125V12.9375C8.0625 12.4899 7.88483 12.0606 7.56836 11.7441C7.25189 11.4277 6.82255 11.25 6.375 11.25H4.5C4.45027 11.25 4.40235 11.2305 4.36719 11.1953C4.33202 11.1601 4.3125 11.1122 4.3125 11.0625V9.1875C4.3125 9.13777 4.33202 9.08985 4.36719 9.05469C4.40235 9.01952 4.45027 9 4.5 9H7.3125C7.72671 9 8.0625 8.66421 8.0625 8.25C8.0625 7.83579 7.72671 7.5 7.3125 7.5H4.5ZM10.125 7.5C9.71079 7.5 9.375 7.83579 9.375 8.25V15.75C9.375 16.1642 9.71079 16.5 10.125 16.5H13.875C14.2892 16.5 14.625 16.1642 14.625 15.75V8.25C14.625 7.83579 14.2892 7.5 13.875 7.5H10.125ZM17.625 7.5C17.1774 7.5 16.7481 7.67767 16.4316 7.99414C16.1152 8.31061 15.9375 8.73995 15.9375 9.1875V11.0625C15.9375 11.5101 16.1152 11.9394 16.4316 12.2559C16.7481 12.5723 17.1774 12.75 17.625 12.75H19.5C19.5497 12.75 19.5976 12.7695 19.6328 12.8047C19.668 12.8399 19.6875 12.8878 19.6875 12.9375V14.8125C19.6875 14.8622 19.668 14.9101 19.6328 14.9453C19.5976 14.9805 19.5497 15 19.5 15H16.6875C16.2733 15 15.9375 15.3358 15.9375 15.75C15.9375 16.1642 16.2733 16.5 16.6875 16.5H19.5C19.9476 16.5 20.3769 16.3223 20.6934 16.0059C21.0098 15.6894 21.1875 15.2601 21.1875 14.8125V12.9375C21.1875 12.4899 21.0098 12.0606 20.6934 11.7441C20.3769 11.4277 19.9476 11.25 19.5 11.25H17.625C17.5753 11.25 17.5274 11.2305 17.4922 11.1953C17.457 11.1601 17.4375 11.1122 17.4375 11.0625V9.1875C17.4375 9.13777 17.457 9.08985 17.4922 9.05469C17.5273 9.01952 17.5753 9 17.625 9H20.4375C20.8517 9 21.1875 8.66421 21.1875 8.25C21.1875 7.83579 20.8517 7.5 20.4375 7.5H17.625Z" fill="#FAFAFA"/>
</svg>
