<svg width="32" height="32" viewBox="0 0 32 32" fill="none" xmlns="http://www.w3.org/2000/svg">
<path d="M16.416 1.57616C16.0981 1.316 15.6553 1.25938 15.2806 1.43163C14.9058 1.60404 14.666 1.97435 14.666 2.38085V4.06574C7.92831 4.73473 2.66606 10.4189 2.66602 17.3327C2.66602 24.6965 8.63555 30.666 15.9993 30.666C23.3631 30.666 29.3327 24.6965 29.3327 17.3327C29.3327 13.8041 27.9611 10.5931 25.7233 8.20897C25.3453 7.8064 24.7119 7.78678 24.3092 8.1647C23.9066 8.54266 23.887 9.17607 24.265 9.57876C26.1683 11.6068 27.3327 14.3327 27.3327 17.3327C27.3327 23.5919 22.2586 28.666 15.9993 28.666C9.74012 28.666 4.66602 23.5919 4.66602 17.3327C4.66606 11.5246 9.03518 6.73738 14.666 6.07746V7.61782C14.666 8.02432 14.9058 8.39463 15.2806 8.56704C15.6554 8.73933 16.0981 8.68399 16.416 8.42381L19.6152 5.80402C19.8584 5.60498 19.9993 5.31025 19.9993 4.99933C19.9993 4.68846 19.8584 4.39367 19.6152 4.19465L16.416 1.57616Z" fill="#FAFAFA"/>
<path d="M13.4316 23.7428H11.1634V15.6048C10.9901 15.8052 10.776 15.9975 10.5215 16.1816C10.2668 16.3605 9.95751 16.5212 9.5944 16.6621C9.23683 16.7975 8.81132 16.9002 8.31836 16.9707V14.9707C8.81676 14.8623 9.25312 14.7161 9.62695 14.5319C10.0063 14.3476 10.3373 14.1325 10.6191 13.8887C10.9061 13.6396 11.1601 13.3685 11.3822 13.0762H13.4316V23.7428Z" fill="#FAFAFA"/>
<path d="M22.2454 14.8913H17.9251L17.7402 17.2767C17.9169 17.0948 18.1579 16.9403 18.4629 16.8118C18.7734 16.678 19.1562 16.61 19.6113 16.61C20.2218 16.61 20.7897 16.7261 21.3145 16.9564C21.839 17.1866 22.2615 17.5534 22.5827 18.0566C22.9039 18.5598 23.0657 19.2232 23.0658 20.0475C23.0658 20.8721 22.8966 21.5586 22.5592 22.1048C22.2219 22.6508 21.7637 23.0596 21.1855 23.3327C20.6126 23.6058 19.9644 23.7428 19.2415 23.7428C18.5189 23.7428 17.863 23.6255 17.2741 23.39C16.6851 23.1544 16.2159 22.7951 15.8678 22.3131C15.52 21.826 15.3458 21.2156 15.3457 20.4824H17.4746C17.4747 20.9641 17.6414 21.3385 17.9733 21.6061C18.3052 21.8683 18.7277 21.9993 19.2415 21.9993C19.7287 21.9993 20.1227 21.8449 20.4225 21.5345C20.7277 21.2239 20.8809 20.7276 20.8809 20.0475C20.8808 19.4268 20.7202 18.9794 20.3991 18.7064C20.0832 18.428 19.6731 18.2898 19.1699 18.2897C18.7792 18.2897 18.4629 18.3503 18.222 18.4733C17.9864 18.5911 17.7963 18.7393 17.6517 18.916H15.7402L16.1973 13.0762H22.2454V14.8913Z" fill="#FAFAFA"/>
</svg>
