<svg width="48" height="48" viewBox="0 0 48 48" fill="none" xmlns="http://www.w3.org/2000/svg">
<path d="M41.0488 12.415C41.6358 11.9326 42.5053 11.9643 43.0566 12.5107C43.6074 13.0575 43.6455 13.9256 43.168 14.5166L43.0645 14.6318L28.9785 28.8428C28.6968 29.1269 28.3122 29.2881 27.9121 29.2881H7.5V40.499H26.125L26.8262 40.4814C30.3199 40.3062 33.6382 38.8303 36.127 36.3193L40.9355 31.4697L41.0488 31.3662C41.6359 30.8831 42.5051 30.9131 43.0566 31.46C43.6446 32.0433 43.6476 32.9929 43.0645 33.5811L38.2559 38.4287L38.2578 38.4307C35.2435 41.4718 31.2192 43.2668 26.9766 43.4795L26.125 43.499H6C5.17161 43.499 4.50006 42.8274 4.5 41.999V27.7881L4.50781 27.6338C4.58483 26.8776 5.2235 26.2881 6 26.2881H9.44141L10.8125 18.6963L10.8184 18.6709L10.9453 18.1494C11.2923 16.9487 11.991 15.8744 12.959 15.0732C14.066 14.1572 15.4568 13.6557 16.8926 13.6553H17.7383L18.002 13.6768C18.6015 13.7831 19.089 14.2478 19.2109 14.8623L20.1465 19.585L20.1973 19.79C20.3342 20.2642 20.6086 20.6863 20.9863 20.999C21.4179 21.3561 21.9576 21.5497 22.5117 21.5498H27.1309L27.2832 21.5576C28.0398 21.6341 28.6307 22.2731 28.6309 23.0498C28.6308 23.8266 28.0398 24.4654 27.2832 24.542L27.1309 24.5498H22.5117C21.2569 24.5495 20.0414 24.1117 19.0742 23.3115C18.2283 22.6116 17.6176 21.6726 17.3145 20.624L17.2031 20.167L16.5117 16.6807C15.9141 16.7536 15.3448 16.9937 14.873 17.3838C14.3079 17.8514 13.9155 18.5028 13.7656 19.2295L12.4902 26.2881H27.2871L40.9355 12.5186L41.0488 12.415Z" fill="#FAFAFA"/>
<path d="M16.5039 4.50684C18.713 4.50684 20.5039 6.2977 20.5039 8.50684C20.5039 10.716 18.713 12.5068 16.5039 12.5068C14.2948 12.5068 12.5039 10.716 12.5039 8.50684C12.5039 6.2977 14.2948 4.50684 16.5039 4.50684Z" fill="#FAFAFA"/>
</svg>
