<svg width="48" height="48" viewBox="0 0 48 48" fill="none" xmlns="http://www.w3.org/2000/svg">
<path fill-rule="evenodd" clip-rule="evenodd" d="M34 6.5C37.0376 6.5 39.5 8.96243 39.5 12V38.5H42C42.8284 38.5 43.5 39.1716 43.5 40C43.5 40.8284 42.8284 41.5 42 41.5H6C5.17157 41.5 4.5 40.8284 4.5 40C4.5 39.1716 5.17157 38.5 6 38.5H8.5V12C8.5 8.96243 10.9624 6.5 14 6.5H34ZM14 9.5C12.6193 9.5 11.5 10.6193 11.5 12V38.5H36.5V12C36.5 10.6193 35.3807 9.5 34 9.5H14Z" fill="#FAFAFA"/>
<path d="M36.5 28.6816L34.0859 38.5H30.9961L36.5 16.1172V28.6816ZM34 9.5C34.4137 9.5 34.8028 9.60338 35.1465 9.78125L28.0859 38.5H24.9961L32.127 9.5H34ZM29.2168 9.5L22.0859 38.5H18.9961L26.127 9.5H29.2168ZM23.2168 9.5L16.0859 38.5H12.9961L20.127 9.5H23.2168ZM17.2168 9.5L11.5 32.748V20.1836L14.127 9.5H17.2168Z" fill="#FAFAFA"/>
</svg>
