<svg width="48" height="48" viewBox="0 0 48 48" fill="none" xmlns="http://www.w3.org/2000/svg">
<path d="M25.1934 12.3813C25.1934 12.0645 25.0678 11.7597 24.8438 11.5356C24.6199 11.312 24.3165 11.1862 24 11.186C23.6831 11.186 23.3784 11.3116 23.1543 11.5356C22.9302 11.7597 22.8047 12.0645 22.8047 12.3813C22.8048 12.6978 22.9306 13.0012 23.1543 13.2251C23.3784 13.4492 23.6831 13.5747 24 13.5747C24.3167 13.5746 24.6198 13.449 24.8438 13.2251C25.0677 13.0012 25.1932 12.698 25.1934 12.3813ZM28.1934 12.3813C28.1932 13.4937 27.7514 14.5597 26.9648 15.3462C26.1783 16.1327 25.1123 16.5746 24 16.5747C22.8875 16.5747 21.8199 16.1329 21.0332 15.3462C20.2469 14.5597 19.8048 13.4935 19.8047 12.3813C19.8047 11.2688 20.2465 10.2012 21.0332 9.41455C21.8199 8.62789 22.8875 8.18604 24 8.18604C25.1121 8.18619 26.1784 8.62827 26.9648 9.41455C27.7515 10.2012 28.1934 11.2688 28.1934 12.3813Z" fill="#FAFAFA"/>
<path d="M24.001 2.7959C26.8933 2.79599 29.036 4.04433 30.8545 5.71777C31.7488 6.54077 32.5829 7.48403 33.3955 8.44043C34.2275 9.41971 35.0168 10.3887 35.9014 11.3838L36.7861 12.3799L35.9014 13.376C35.0168 14.3711 34.2275 15.3401 33.3955 16.3193C32.5829 17.2758 31.7488 18.219 30.8545 19.042C29.036 20.7155 26.8933 21.9638 24.001 21.9639C21.1085 21.9639 18.966 20.7154 17.1475 19.042C16.2531 18.2189 15.4171 17.2758 14.6045 16.3193C13.7727 15.3403 12.9849 14.3709 12.1006 13.376L11.2139 12.3799L12.1006 11.3838C12.985 10.3888 13.7726 9.4196 14.6045 8.44043C15.4171 7.48393 16.2531 6.54085 17.1475 5.71777C18.9659 4.04444 21.1087 2.7959 24.001 2.7959ZM24.001 5.7959C22.1056 5.7959 20.6544 6.5687 19.1787 7.92676C18.4261 8.61939 17.6886 9.44573 16.8916 10.3838C16.3641 11.0047 15.7936 11.684 15.2002 12.3799C15.7939 13.0761 16.3639 13.7568 16.8916 14.3779C17.6886 15.316 18.4261 16.1423 19.1787 16.835C20.6543 18.1929 22.1057 18.9639 24.001 18.9639C25.8962 18.9638 27.3476 18.1929 28.8232 16.835C29.5759 16.1423 30.3133 15.3161 31.1104 14.3779C31.6379 13.757 32.2063 13.0759 32.7998 12.3799C32.2067 11.6843 31.6377 11.0045 31.1104 10.3838C30.3135 9.44588 29.5757 8.61932 28.8232 7.92676C27.3476 6.56878 25.8962 5.79599 24.001 5.7959Z" fill="#FAFAFA"/>
<path d="M22 35.6157C22.0004 34.5115 22.8957 33.6157 24 33.6157C25.1043 33.6157 25.9996 34.5115 26 35.6157V35.6353C26 36.7398 25.1046 37.6353 24 37.6353C22.8954 37.6353 22 36.7398 22 35.6353V35.6157Z" fill="#FAFAFA"/>
<path d="M30.6689 30.1668C30.6694 29.0626 31.5647 28.1668 32.6689 28.1668C33.7732 28.1668 34.6685 29.0626 34.6689 30.1668V30.1863C34.6689 31.2909 33.7735 32.1863 32.6689 32.1863C31.5644 32.1863 30.6689 31.2909 30.6689 30.1863V30.1668Z" fill="#FAFAFA"/>
<path d="M13.3311 30.1668C13.3315 29.0626 14.2268 28.1668 15.3311 28.1668C16.4353 28.1668 17.3306 29.0626 17.3311 30.1668V30.1863C17.3311 31.2909 16.4356 32.1863 15.3311 32.1863C14.2265 32.1863 13.3311 31.2909 13.3311 30.1863V30.1668Z" fill="#FAFAFA"/>
<path d="M4.66016 24.7171C4.6606 23.6129 5.55586 22.7171 6.66016 22.7171C7.76445 22.7171 8.65971 23.6129 8.66016 24.7171V24.7366C8.66016 25.8412 7.76473 26.7366 6.66016 26.7366C5.55559 26.7366 4.66016 25.8412 4.66016 24.7366L4.66016 24.7171Z" fill="#FAFAFA"/>
<path d="M22 26.745C22.0004 25.6408 22.8957 24.745 24 24.745C25.1043 24.745 25.9996 25.6408 26 26.745V26.7645C26 27.8691 25.1046 28.7645 24 28.7645C22.8954 28.7645 22 27.8691 22 26.7645V26.745Z" fill="#FAFAFA"/>
<path d="M39.3398 24.7171C39.3403 23.6129 40.2355 22.7171 41.3398 22.7171C42.4441 22.7171 43.3394 23.6129 43.3398 24.7171V24.7366C43.3398 25.8412 42.4444 26.7366 41.3398 26.7366C40.2353 26.7366 39.3398 25.8412 39.3398 24.7366V24.7171Z" fill="#FAFAFA"/>
<path d="M30.5 40.7041C31.3284 40.7041 32 41.3757 32 42.2041C32 43.0325 31.3284 43.7041 30.5 43.7041H17.5C16.6716 43.7041 16 43.0325 16 42.2041C16 41.3757 16.6716 40.7041 17.5 40.7041H30.5Z" fill="#FAFAFA"/>
</svg>
