<svg width="48" height="48" viewBox="0 0 48 48" fill="none" xmlns="http://www.w3.org/2000/svg">
<path d="M38 39V42H10V39H38ZM39 38V10C39 9.44772 38.5523 9 38 9H10C9.44772 9 9 9.44772 9 10V38C9 38.5523 9.44772 39 10 39V42L9.5918 41.9785C7.57445 41.774 6 40.0713 6 38V10C6 7.79086 7.79086 6 10 6H38C40.2091 6 42 7.79086 42 10V38C42 40.2091 40.2091 42 38 42V39C38.5523 39 39 38.5523 39 38Z" fill="#FAFAFA"/>
<path fill-rule="evenodd" clip-rule="evenodd" d="M14 24C14 23.6022 14.158 23.2206 14.4393 22.9393C14.7206 22.658 15.1022 22.5 15.5 22.5H32.5C32.8978 22.5 33.2794 22.658 33.5607 22.9393C33.842 23.2206 34 23.6022 34 24C34 24.3978 33.842 24.7794 33.5607 25.0607C33.2794 25.342 32.8978 25.5 32.5 25.5H15.5C15.1022 25.5 14.7206 25.342 14.4393 25.0607C14.158 24.7794 14 24.3978 14 24Z" fill="#FAFAFA"/>
</svg>
