<svg width="48" height="48" viewBox="0 0 48 48" fill="none" xmlns="http://www.w3.org/2000/svg">
<path fill-rule="evenodd" clip-rule="evenodd" d="M13.5 7C12.1193 7 11 8.11929 11 9.5V21.7069L23.2287 25.6729C23.7301 25.8355 24.2699 25.8355 24.7713 25.6729L37 21.7069V9.5C37 8.11929 35.8807 7 34.5 7H13.5ZM40 20.7858V9.5C40 6.46243 37.5376 4 34.5 4H13.5C10.4624 4 8 6.46244 8 9.5V20.7858C5.93915 20.4819 4 22.0775 4 24.2512V36.5C4 39.5376 6.46243 42 9.5 42H38.5C41.5376 42 44 39.5376 44 36.5V24.2512C44 22.0775 42.0609 20.4819 40 20.7858ZM18 15.5C18 14.6716 18.6716 14 19.5 14H28.5C29.3284 14 30 14.6716 30 15.5C30 16.3284 29.3284 17 28.5 17H19.5C18.6716 17 18 16.3284 18 15.5ZM7.65425 23.7756C7.33125 23.6708 7 23.9116 7 24.2512V36.5C7 37.8807 8.11929 39 9.5 39H38.5C39.8807 39 41 37.8807 41 36.5V24.2512C41 23.9116 40.6688 23.6708 40.3457 23.7756L25.6968 28.5266C24.5939 28.8843 23.4061 28.8843 22.3032 28.5266L7.65425 23.7756Z" fill="#FAFAFA"/>
</svg>
