<svg width="48" height="48" viewBox="0 0 48 48" fill="none" xmlns="http://www.w3.org/2000/svg">
<path d="M39.75 21.833C39.7498 21.2624 39.496 20.6064 38.8086 19.8838C38.1129 19.1528 37.0342 18.4249 35.5879 17.7822C32.6991 16.4986 28.6032 15.667 24 15.667C19.3968 15.667 15.3009 16.4986 12.4121 17.7822C10.9658 18.4249 9.88711 19.1528 9.19141 19.8838C8.50405 20.6064 8.25019 21.2624 8.25 21.833C8.25 22.4038 8.50354 23.0612 9.19141 23.7842C9.88708 24.5152 10.9659 25.2411 12.4121 25.8838C15.1203 27.0872 18.8891 27.8951 23.1426 27.9912L24 28.001L24.1543 28.0088C24.9102 28.0861 25.5 28.7247 25.5 29.501C25.4997 30.277 24.9101 30.916 24.1543 30.9932L24 31.001L23.082 30.9893C18.5161 30.8868 14.3384 30.0235 11.1934 28.626C9.51812 27.8815 8.06971 26.956 7.01953 25.8525C5.96188 24.7412 5.25 23.38 5.25 21.833C5.2502 20.2864 5.96214 18.9266 7.01953 17.8154C8.06966 16.712 9.51816 15.7865 11.1934 15.042C14.5481 13.5513 19.0775 12.667 24 12.667C28.9225 12.667 33.4519 13.5513 36.8066 15.042C38.4818 15.7865 39.9303 16.712 40.9805 17.8154C42.0379 18.9266 42.7498 20.2864 42.75 21.833C42.75 23.7806 41.6335 25.4174 40.0996 26.667C38.5589 27.9219 36.4424 28.9264 34.0117 29.6494C33.2177 29.8856 32.3827 29.4337 32.1465 28.6396C31.9103 27.8456 32.3622 27.0106 33.1562 26.7744C35.3518 26.1213 37.0694 25.2659 38.2051 24.3408C39.3469 23.4105 39.75 22.5453 39.75 21.833Z" fill="#FAFAFA"/>
<path d="M17.9041 23.8103C18.4341 23.2429 19.3008 23.1784 19.906 23.6384L20.0232 23.7381L25.0232 28.4041L25.1326 28.5193C25.3739 28.7978 25.5066 29.157 25.4998 29.5291C25.4927 29.9014 25.3473 30.2558 25.0955 30.5252L24.9822 30.6345L19.9822 34.9666C19.3563 35.509 18.4096 35.4418 17.867 34.8162C17.3245 34.1903 17.3917 33.2435 18.0173 32.7009L21.7556 29.4588L17.9763 25.9295L17.8689 25.8201C17.3686 25.2478 17.3742 24.378 17.9041 23.8103Z" fill="#FAFAFA"/>
</svg>
