<svg width="48" height="48" viewBox="0 0 48 48" fill="none" xmlns="http://www.w3.org/2000/svg">
<path fill-rule="evenodd" clip-rule="evenodd" d="M8.03305 18.0239C5.76719 18.2575 4 20.1724 4 22.5V29.5C4 31.9853 6.01472 34 8.5 34H11.5C12.3284 34 13 33.3284 13 32.5V19.5C13 18.6716 12.3284 18 11.5 18H11.045C11.5933 11.9224 17.0927 7 24 7C30.9073 7 36.4067 11.9224 36.955 18H36.5C35.6716 18 35 18.6716 35 19.5V32.5C35 33.3284 35.6716 34 36.5 34H37.4836C37.2263 37.909 33.9741 41 30 41H26C25.7239 41 25.5 40.7761 25.5 40.5V39.2857C25.5 38.4573 24.8284 37.7857 24 37.7857C23.1716 37.7857 22.5 38.4573 22.5 39.2857V40.5C22.5 42.433 24.067 44 26 44H30C35.6684 44 40.2877 39.5084 40.4929 33.8901C42.5004 33.438 44 31.6441 44 29.5V22.5C44 20.1724 42.2328 18.2575 39.9669 18.0239C39.4289 10.1087 32.3919 4 24 4C15.6081 4 8.5711 10.1087 8.03305 18.0239ZM38 21H39.5C40.3284 21 41 21.6716 41 22.5V29.5C41 30.3284 40.3284 31 39.5 31H38V21ZM8.5 21C7.67157 21 7 21.6716 7 22.5V29.5C7 30.3284 7.67157 31 8.5 31H10V21H8.5Z" fill="#FAFAFA"/>
</svg>
