<svg width="48" height="48" viewBox="0 0 48 48" fill="none" xmlns="http://www.w3.org/2000/svg">
<path fill-rule="evenodd" clip-rule="evenodd" d="M22.9953 4.02569C27.9464 3.777 32.8145 5.37553 36.6535 8.51202C40.4923 11.6485 43.029 16.0991 43.7726 21.0003C44.4541 25.4925 43.5798 30.0671 41.3234 33.9827C41.9987 34.8854 42.3742 35.9847 42.3742 37.1253C42.3741 38.5176 41.8216 39.8537 40.8371 40.8382C39.8525 41.8227 38.5165 42.3753 37.1242 42.3753C35.9832 42.3753 34.8845 41.9983 33.9816 41.3226C30.0659 43.5793 25.4915 44.4553 20.9992 43.7737C16.4042 43.0765 12.2056 40.8026 9.1144 37.3577L8.51089 36.6546C5.57057 33.0556 3.98145 28.5524 3.99917 23.9241L4.02456 22.9964C4.27338 18.0456 6.35153 13.363 9.85659 9.85773C13.1429 6.57136 17.4645 4.54014 22.0714 4.09405L22.9953 4.02569ZM23.1457 7.02179C18.9376 7.23341 14.957 8.99945 11.9777 11.9788C8.99845 14.9582 7.23219 18.9387 7.02065 23.1468C6.80931 27.3552 8.16922 31.493 10.8351 34.7562C13.5009 38.0188 17.2829 40.1767 21.4484 40.8089C25.1532 41.371 28.9252 40.686 32.1867 38.8929C31.9854 38.3303 31.8742 37.7342 31.8742 37.1253C31.8742 36.2457 32.0964 35.3894 32.507 34.6292L26.4933 28.6155C25.7333 29.0259 24.8785 29.2503 23.9992 29.2503C22.6068 29.2503 21.2708 28.6977 20.2863 27.7132C19.3018 26.7287 18.7492 25.3926 18.7492 24.0003C18.7492 22.608 19.3018 21.272 20.2863 20.2874C21.2708 19.3029 22.6068 18.7503 23.9992 18.7503C25.3916 18.7503 26.7275 19.3028 27.7121 20.2874C28.6966 21.272 29.2492 22.6079 29.2492 24.0003C29.2491 24.88 29.0271 25.7362 28.6164 26.4964L34.6261 32.5062C35.3865 32.0952 36.2442 31.8753 37.1242 31.8753C37.733 31.8753 38.3291 31.9866 38.8917 32.1878C40.685 28.9262 41.3698 25.1545 40.8078 21.4495C40.1756 17.2839 38.0177 13.5021 34.755 10.8362C31.4919 8.17024 27.3541 6.8104 23.1457 7.02179ZM37.1242 34.8753C36.5685 34.8753 36.0339 35.0806 35.6222 35.4495C35.5959 35.4805 35.5714 35.514 35.5421 35.5433C35.5128 35.5726 35.4795 35.597 35.4484 35.6234C35.0797 36.035 34.8742 36.5698 34.8742 37.1253C34.8742 37.722 35.1105 38.2952 35.5324 38.7171C35.9543 39.139 36.5275 39.3753 37.1242 39.3753C37.7208 39.3753 38.294 39.139 38.716 38.7171C39.1379 38.2952 39.3741 37.722 39.3742 37.1253C39.3742 36.5286 39.1379 35.9555 38.716 35.5335C38.294 35.1116 37.7209 34.8753 37.1242 34.8753ZM23.9992 21.7503C23.4025 21.7503 22.8293 21.9866 22.4074 22.4085C21.9855 22.8304 21.7492 23.4036 21.7492 24.0003C21.7492 24.597 21.9855 25.1702 22.4074 25.5921C22.8293 26.014 23.4025 26.2503 23.9992 26.2503C24.557 26.2503 25.0907 26.0398 25.5031 25.6683C25.5281 25.6391 25.5556 25.6119 25.5832 25.5843C25.6127 25.5547 25.6436 25.5269 25.675 25.5003C26.0432 25.0888 26.2491 24.5555 26.2492 24.0003C26.2492 23.4036 26.0129 22.8305 25.591 22.4085C25.169 21.9866 24.5959 21.7503 23.9992 21.7503Z" fill="#FAFAFA"/>
</svg>
