<svg width="48" height="48" viewBox="0 0 48 48" fill="none" xmlns="http://www.w3.org/2000/svg">
<path fill-rule="evenodd" clip-rule="evenodd" d="M34 6.5C37.0376 6.5 39.5 8.96243 39.5 12V38.5H42C42.8284 38.5 43.5 39.1716 43.5 40C43.5 40.8284 42.8284 41.5 42 41.5H6C5.17157 41.5 4.5 40.8284 4.5 40C4.5 39.1716 5.17157 38.5 6 38.5H8.5V12C8.5 8.96243 10.9624 6.5 14 6.5H34ZM11.5 38.5H36.5V21.5H31.5V26.4023C32.3965 26.9211 33 27.8898 33 29C33 30.6569 31.6569 32 30 32C28.3431 32 27 30.6569 27 29C27 27.8898 27.6035 26.9211 28.5 26.4023V21.5H11.5V38.5ZM11.5 18.5H28.5V15.5H11.5V18.5ZM31.5 18.5H36.5V15.5H31.5V18.5ZM14 9.5C12.6193 9.5 11.5 10.6193 11.5 12V12.5H28.5V9.5H14ZM31.5 12.5H36.5V12C36.5 10.6193 35.3807 9.5 34 9.5H31.5V12.5Z" fill="#FAFAFA"/>
</svg>
