<svg width="48" height="48" viewBox="0 0 48 48" fill="none" xmlns="http://www.w3.org/2000/svg">
<path d="M39 24C39 20.0218 37.4205 16.2056 34.6074 13.3926C31.9703 10.7554 28.4515 9.20157 24.7441 9.01758L24 9C20.0218 9 16.2056 10.5795 13.3926 13.3926C10.7554 16.0297 9.20157 19.5485 9.01758 23.2559L9 24C9 25.9698 9.38876 27.9203 10.1426 29.7402C10.8964 31.56 11.9998 33.2146 13.3926 34.6074C14.7854 36.0002 16.44 37.1036 18.2598 37.8574C20.0796 38.6112 22.0302 39 24 39V42L23.1152 41.9785C21.3482 41.8916 19.6033 41.5451 17.9375 40.9492L17.1113 40.6289C15.2008 39.8374 13.4433 38.7236 11.9141 37.3379L11.2715 36.7285C9.80883 35.2659 8.61117 33.5631 7.72852 31.6973L7.37109 30.8887C6.57954 28.9777 6.12294 26.9463 6.02148 24.8848L6 24C6 19.5243 7.66626 15.2199 10.6562 11.918L11.2715 11.2715C14.6471 7.89583 19.2261 6 24 6L24.8926 6.02148C29.3415 6.24219 33.5638 8.1068 36.7285 11.2715C40.1042 14.6471 42 19.2261 42 24L41.9785 24.8848C41.8771 26.9463 41.4205 28.9777 40.6289 30.8887L40.2715 31.6973C39.3888 33.5631 38.1912 35.2659 36.7285 36.7285L36.0859 37.3379C34.5567 38.7236 32.7992 39.8374 30.8887 40.6289L30.0625 40.9492C28.1192 41.6443 26.0683 42 24 42V39C25.9698 39 27.9204 38.6112 29.7402 37.8574C31.56 37.1036 33.2146 36.0002 34.6074 34.6074C36.0002 33.2146 37.1036 31.56 37.8574 29.7402C38.5169 28.1481 38.8978 26.4559 38.9824 24.7383L39 24Z" fill="#FAFAFA"/>
<path d="M27.8447 23.6221C27.8076 23.2447 27.7149 22.8741 27.5693 22.5225C27.3752 22.0538 27.0901 21.6272 26.7314 21.2686C26.3728 20.91 25.9461 20.6267 25.4775 20.4326C25.0093 20.2387 24.5078 20.1378 24.001 20.1377C23.4937 20.1377 22.9911 20.2385 22.5225 20.4326C22.0538 20.6267 21.6272 20.9099 21.2686 21.2686C20.9099 21.6272 20.6267 22.0538 20.4326 22.5225C20.2385 22.9911 20.1377 23.4937 20.1377 24.001L20.1572 24.3799C20.1945 24.7567 20.2872 25.1264 20.4326 25.4775C20.6267 25.9461 20.91 26.3728 21.2686 26.7314C21.6272 27.0901 22.0538 27.3752 22.5225 27.5693C22.9909 27.7633 23.4939 27.8623 24.001 27.8623L24.3799 27.8447C24.7566 27.8075 25.1265 27.7146 25.4775 27.5693C25.9462 27.3752 26.3728 27.0901 26.7314 26.7314C27.0901 26.3728 27.3752 25.9462 27.5693 25.4775C27.7631 25.0094 27.8622 24.5076 27.8623 24.001L27.8447 23.6221ZM30.8545 24.3369C30.8159 25.1229 30.6425 25.8974 30.3408 26.626C29.9959 27.4586 29.4898 28.2153 28.8525 28.8525C28.2153 29.4898 27.4586 29.9959 26.626 30.3408C25.8974 30.6425 25.1229 30.8159 24.3369 30.8545L24.001 30.8623C23.0998 30.8623 22.2066 30.6856 21.374 30.3408C20.5414 29.9959 19.7847 29.4898 19.1475 28.8525C18.5103 28.2153 18.004 27.4585 17.6592 26.626C17.3575 25.8974 17.1841 25.1229 17.1455 24.3369L17.1377 24.001C17.1377 23.0999 17.3144 22.2065 17.6592 21.374C18.0041 20.5414 18.5102 19.7847 19.1475 19.1475C19.7847 18.5102 20.5414 18.0041 21.374 17.6592C22.2065 17.3144 23.0999 17.1377 24.001 17.1377C24.9017 17.1378 25.7938 17.3146 26.626 17.6592C27.4585 18.004 28.2153 18.5103 28.8525 19.1475C29.4898 19.7847 29.9959 20.5414 30.3408 21.374C30.6856 22.2066 30.8623 23.0998 30.8623 24.001L30.8545 24.3369Z" fill="#FAFAFA"/>
<path d="M22.5 11.4746V4.3125C22.5 3.48407 23.1716 2.8125 24 2.8125C24.8284 2.8125 25.5 3.48407 25.5 4.3125V11.4746C25.5 12.303 24.8284 12.9746 24 12.9746C23.1716 12.9746 22.5 12.303 22.5 11.4746Z" fill="#FAFAFA"/>
<path d="M22.5 43.687V36.5249C22.5 35.6965 23.1716 35.0249 24 35.0249C24.8284 35.0249 25.5 35.6965 25.5 36.5249V43.687C25.5 44.5154 24.8284 45.187 24 45.187C23.1716 45.187 22.5 44.5154 22.5 43.687Z" fill="#FAFAFA"/>
<path d="M11.4746 22.5L11.6289 22.5078C12.385 22.5849 12.9746 23.2235 12.9746 24C12.9746 24.7765 12.385 25.4151 11.6289 25.4922L11.4746 25.5H4.3125C3.48407 25.5 2.8125 24.8284 2.8125 24C2.8125 23.1716 3.48407 22.5 4.3125 22.5H11.4746Z" fill="#FAFAFA"/>
<path d="M43.687 22.5L43.8413 22.5078C44.5974 22.5849 45.187 23.2235 45.187 24C45.187 24.7765 44.5974 25.4151 43.8413 25.4922L43.687 25.5H36.5249C35.6965 25.5 35.0249 24.8284 35.0249 24C35.0249 23.1716 35.6965 22.5 36.5249 22.5H43.687Z" fill="#FAFAFA"/>
</svg>
